<svg xmlns="http://www.w3.org/2000/svg" width="520" height="320"><rect x="0" y="0" width="520" height="320" fill="floralwhite"/><rect x="10" y="10" width="500" height="300" stroke="black" stroke-width="1" fill="none"/><path stroke="black" stroke-width="1" fill="none" stroke-linecap="round" stroke-linejoin="round" d="
M 189.45 113.89 200.06 108.07 221.9 97.65 229.54 95.05 245.51 92.79 253.42 91.19 261.38 89.87 269.38 88.85 277.45 88.99 293.29 92.05 301.16 93.83 317.09 96.38 324.98 98.07 332.7 100.4 339.91 104.02 353.83 112.18 360.93 116.02 382.73 126.51 396.53 133.46 
M 396.53 165.4 380.84 173.94 373.56 177.41 366.2 180.73 351.66 187.72 336.77 193.93 329.45 197.31 322.26 200.98 315.22 204.91 308.3 209.06 300.8 212.03 292.8 213.05 284.73 213.37 276.67 213.47 268.6 213.24 252.6 211.16 244.77 209.23 229.44 204.19 222.13 200.79 214.94 197.13 197.43 189.04 
M 219.27 138.92 222.07 138.94 
M 231.65 138.12 234.25 138.17 
M 248.77 138.51 251.93 138.47 
M 255.24 138.55 258.59 138.67 
M 264.7 138.43 269.07 138.2 278.48 138.95 285.69 139.3 
M 288.67 139.51 290.17 139.63 294.34 139.44 
M 297.37 139.5 300.85 139.79 
M 304.57 140.21 306.45 140.43 309.9 140.47 312.86 139.97 315.57 139.24 318.46 138.85 321.62 138.75 331.19 139.04 338.84 139.87 
M 341.99 140.4 346.71 141.29 355.54 142.06 372.36 142.13 377.09 142.67 
M 380.41 143.2 385.13 143.75 387.63 143.47 390.86 142.49 
M 197.58 111.72 195.59 113.85 
M 193.63 116.05 191.68 118.32 
M 199.5 188.81 199.92 190.2 
M 204.01 117.96 202.48 120.5 
M 199.72 125.99 198.32 128.76 
M 201.04 175.81 201.85 178.84 
M 203.81 187.26 204.61 190.14 
M 205.35 192.55 205.4 192.69 
M 213.01 113.13 211.67 115.69 
M 210.27 118.24 208.95 120.91 
M 203.78 132.12 202.57 135.07 
M 206.51 174.89 207.52 180.65 
M 207.96 183.39 208.48 186.18 
M 210.96 195.16 210.99 195.28 
M 221.36 107.92 220.58 110.94 
M 219.58 113.75 217.27 119.19 
M 214.6 124.44 213.31 127.17 
M 212.08 129.99 207.91 139.37 
M 211.83 172.43 212.21 174.42 
M 212.74 177.47 213.88 185.9 
M 214.55 188.89 215.23 191.85 
M 216.36 197.73 216.39 197.87 
M 226.61 111.65 225.32 116.06 223.26 121.76 221.13 125.57 
M 218.18 130.67 216.99 133.54 
M 218.21 174.13 218.46 177 
M 218.77 179.87 219.26 182.88 
M 219.88 185.97 220.46 188.95 
M 220.91 191.75 221.4 194.51 
M 222.13 197.45 223.37 201.37 
M 234.35 107.61 234.05 109.24 232.78 113.68 
M 230.85 119.47 229.84 122.39 
M 228.67 125.19 227.38 127.91 
M 224.78 133.42 223.21 136.87 
M 224.9 173.07 225.48 177.31 
M 225.79 180.24 225.92 182.92 
M 229.08 197.92 230.22 201.19 
M 240.45 109.21 239.58 112.19 
M 238.57 115.02 235.99 122.26 234.16 126.45 
M 232.9 129.24 231.65 132.08 
M 230.34 134.88 228.61 138.34 
M 231.5 171.41 232.71 178.04 
M 233.68 186.75 234.31 189.84 
M 234.99 192.9 235.61 195.81 
M 248.76 104.42 247.66 107.26 
M 246.72 110.2 246.29 111.7 245.09 114.37 243.62 116.81 242.34 119.5 240.77 123.95 
M 239.71 126.95 236.96 134.5 235.07 138.21 
M 238.4 170.62 238.73 172.08 
M 239.61 175.68 240.49 179.23 
M 241.26 182.62 242.59 189.01 
M 243.16 192.02 244.25 198.83 244.9 201.6 245.43 203.15 
M 246.55 206.25 247.79 209.98 
M 261.54 91.42 260.27 94.33 
M 259.16 97.35 258.02 100.29 
M 256.76 103.06 255.48 105.75 
M 253.25 111.32 251.54 115.47 249.57 119.48 
M 245.76 127.9 244.7 130.99 
M 243.8 134.26 242.49 138.61 
M 247.05 173.14 248.34 177.12 
M 250.4 186.94 250.56 189.57 
M 251.51 195.23 253.3 203.41 
M 254.65 208.6 255.33 211.53 
M 261.57 110.66 260.67 113.61 
M 258.47 119.26 257.83 120.61 255.52 124.37 
M 254.05 127.01 252.81 129.93 
M 251.83 133.14 250.45 138.47 
M 254.51 169.59 255.46 174.61 256.69 184.83 
M 257.45 190.42 258.94 196.42 
M 259.68 199.29 260.29 201.94 
M 260.84 204.46 261.51 207.04 
M 262.59 210.4 263.28 212.45 
M 271.24 105.08 270.41 106.2 269.06 108.71 268.19 111.65 266.94 118.15 266.15 121.3 264.99 124.14 264.24 125.41 
M 262.72 127.97 261.96 129.26 261.38 130.76 
M 260.39 133.93 259.15 138.69 
M 261.98 170.8 262.15 173.59 
M 262.27 176.27 262.67 180.43 264.44 189.36 267.27 198.71 268.33 202.79 
M 269.13 205.55 271.63 212.16 
M 283.05 103.19 280.16 108.18 
M 278.81 110.68 276.55 116.07 
M 274.6 121.9 273.55 124.8 
M 272.36 127.61 269.49 132.87 
M 267.86 136.21 266.94 138.2 
M 268.5 162.03 268.57 163.03 
M 268.88 165.95 270.04 175.94 270.61 178.94 272.91 188.31 273.68 193.52 274.51 196.47 276.1 201.16 
M 277.18 204.26 278.38 207.43 
M 279.57 210.3 280.1 211.53 
M 292.07 102.71 290.87 105.49 
M 288.58 111.01 287.53 113.78 
M 286.4 116.47 283.03 122.7 280.56 128.06 277.09 134.59 
M 276.8 164.91 277.24 167.8 
M 277.67 170.66 277.91 172.11 279.17 176.95 
M 280.82 183.28 281.72 187.64 284.06 196.59 284.77 200.48 
M 287.73 209.18 288.12 210.12 
M 298.32 107.64 296.72 111.87 295.4 116.27 
M 294.49 119.16 294 120.57 293.36 121.83 
M 291.93 124.22 286.87 130.74 
M 284.16 135.88 282.82 139.13 
M 283.67 155.32 283.68 156.09 
M 284.85 164.37 285.46 167.32 
M 286.25 170.43 287.73 175.36 289.71 184.22 291.38 190.41 293 198.62 293.72 201.51 296.17 208.14 
M 303.33 114.48 302.74 117.68 
M 302.23 120.96 301.94 122.56 300.77 125.16 299.92 126.2 
M 296.29 130.12 293.72 133.26 292.3 135.67 290.57 139.64 
M 292.43 156.6 292.76 159.18 
M 293.22 161.89 294.86 171.35 297.85 179.97 
M 298.89 183.29 299.61 186.29 
M 300.16 189.11 300.75 191.96 
M 301.42 194.88 302.53 199.35 304.37 205.02 
M 310.65 111.74 309.89 114.81 
M 309.31 118.04 308.54 122.92 307.8 125.92 306.81 128.65 305.47 131.03 303.91 133.19 300.23 136.96 298.15 139.57 
M 302.31 162.4 303.42 167.87 
M 304.15 170.8 305.09 173.96 
M 306.23 177.34 307.94 182.48 308.66 185.52 309.45 190.95 310.33 195.32 
M 311.12 198.62 311.57 200.43 
M 318.44 113.81 315.66 120.59 314.89 123.57 313.63 129.75 312.68 132.48 312.08 133.72 
M 308.23 140.01 307.8 140.54 
M 307.75 145.87 308.18 148.42 
M 311.16 161.96 311.7 164.64 
M 312.32 167.42 313.01 170.3 
M 313.79 173.31 316.34 181.58 317.05 184.66 317.23 187.22 317.17 189.55 317.42 192.2 318.08 195.38 
M 325.28 115.6 323.87 118.07 
M 321.42 123.24 320.98 124.68 319.71 130.85 318.77 133.6 315.55 139.24 
M 318.49 153.63 319.14 156.36 
M 319.7 159 320.83 164.36 
M 321.41 167.1 323.48 177.04 326.21 192.35 
M 333.41 116.2 331.82 118.57 
M 330.18 120.82 329.38 121.96 328.11 124.5 323.63 138.75 
M 326.15 148.52 327.22 153.7 
M 328.31 158.96 331.11 172.7 
M 331.54 175.45 332.31 182.23 333.6 189.16 
M 343.05 114.56 341.76 117.34 
M 340.33 119.93 334.83 128.1 333.73 130.79 331.89 139.03 
M 333.11 143.38 333.61 145.95 
M 333.98 148.39 335.32 156.01 
M 335.94 158.76 338.14 167.57 
M 338.79 170.5 339.62 174.83 340.39 182.93 341.03 186.62 
M 349.33 121.22 346.92 124.87 342.46 132.19 341.33 134.9 340.91 136.37 
M 340.19 138.91 339.9 139.98 
M 341.31 146.67 342.2 151.83 
M 342.73 154.52 343.72 158.79 345.43 165.01 346.03 167.91 347.25 178.73 348.16 184.14 
M 358.79 122.4 358.06 123.75 352.85 130.78 351.35 133.27 350.07 135.94 348.08 141.46 
M 349.95 153.28 353.01 167.99 
M 353.48 170.88 353.98 173.83 
M 354.69 177.01 355.77 180.79 
M 365.93 124.97 365.41 126.57 364.04 129.4 361.46 133.07 
M 359.79 135.51 356.6 140.66 
M 356.17 145.93 357.14 153.99 
M 357.45 156.71 357.97 160.91 359.12 167.03 360.8 173.75 362.4 178.68 
M 373.02 127.39 372.35 128.89 367.25 136.69 363.08 142.07 
M 363.24 145.92 363.68 150.12 363.99 155.51 364.47 158.57 366.86 168.77 369.45 177.19 
M 377.4 131.98 374.24 135.49 372.46 138.12 370.43 142.09 
M 372.01 152.94 373.61 164.02 374.36 167.48 376.42 174.48 
M 269.28 125.87 269.45 124.58 270.27 122.14 270.28 121.2 269.69 119.85 268.18 118.31 267.34 117.78 
M 378.91 138.21 376.54 135.7 373.47 133.91 
M 280.9 131.88 280.47 131.3 277.04 129.42 275.49 127.78 
M 306.86 110.68 308.04 108.97 309.37 108.37 310.22 107.72 311.14 107.51 312.03 107.08 
M 313.8 166.08 312.7 164.87 310.81 162.1 309.31 160.61 309.4 160.46 
M 366.34 134.11 366.83 134.13 367.29 134.35 369.21 135.88 370.55 136.59 371.36 136.75 372.19 136.57 
M 302.01 203.68 299.44 204.31 
M 278.94 132.39 277.56 131.46 275.82 130.96 274.66 130.93 
M 302.74 168.67 299.54 169.6 297.28 170.61 296.8 170.64 296.32 170.35 
M 287.87 190.96 287.71 191.15 287.43 191.17 
M 280.68 94.37 277.95 94.98 276.1 93.9 275.59 93.75 
M 295.12 202.99 295.36 201.32 295.11 200.41 294.57 199.56 294.22 199.31 293.5 199.18 292.77 199.71 
M 325.86 115.53 326.11 117.1 326.75 118.25 327.31 119.83 327.25 120.43 325.81 122.49 
M 262.64 101.27 262.26 101.31 262.21 100.75 
M 272.18 181.18 271.47 181 270.68 180.23 269.26 178.03 268.57 176.25 
M 379.79 134.93 375.54 132.49 374.18 131.32 374.19 130.46 375.64 127.39 
M 272.62 136.52 271.21 136.61 
M 222.14 146.76 221.21 145.27 219.93 143.94 219.06 143.95 217.76 144.87 
M 209.06 109.21 210.47 107.31 211.43 106.47 213.07 106.14 214.05 106.44 215.68 106.55 
M 350.25 133.84 348.93 131.93 347.79 129.74 347.37 129.62 
M 314.33 155.97 314.93 155.77 316.91 155.62 317.33 155.37 318.08 154.43 318.48 154.26 
M 304.37 115.44 303.86 114.29 303.69 112.44 303.04 110.78 
M 312.12 123.44 311 123.45 308.81 122.25 307.23 122.22 
M 242.26 103.87 241.56 102.99 239.4 101.3 236.9 100.12 235.66 99.83 
M 278.29 93.63 276.82 93.01 273.33 92.67 271.45 91.93 270.38 91.06 
M 393.41 163.05 392.78 163.92 392.02 165.61 391.72 165.96 390.7 166.48 390.17 166.52 389.7 166.35 
M 307.76 189.86 308.84 188.21 309.13 187.46 309.77 185.43 309.99 183.81 
M 268.58 104.91 267.43 103.43 265.83 102 265.4 101.78 264.64 101.7 264.2 101.9 264.05 102.3 
M 304.51 140.96 305.06 137.87 304.91 136.41 304.31 135.61 302.53 134.49 
M 271.06 123.17 272.04 121.1 270.53 119.92 
M 356.57 174.18 356.8 173.05 357.3 172.46 359.31 171.19 361.18 170.63 
M 237.86 109.55 236.3 111.35 234.65 112.34 233.05 112.8 230.94 112.23 
M 245.21 92.85 246.02 91.12 246.8 88.7 247.49 82.11 248.01 79.5 248.23 76.91 249.33 72.84 250.2 70.81 251.02 65.71 252.26 63.74 254.99 60.15 256.92 58.61 258.08 57.37 259.61 53.3 261.92 48.46 263.4 46.63 267.84 43.82 269.23 42.22 270.42 39.55 272.37 37.7 274.3 36.57 277.12 31.59 278.59 29.99 276.34 35.52 279.25 46.11 279.63 47.96 281.44 52.91 281.36 56.82 282.37 58.95 285.1 63 289.67 66.37 290.87 68.43 292.86 73.48 292.15 77.57 292.92 79.04 294.46 81.11 296.11 84.33 296.93 85.55 297.59 87.49 297.83 89.49 298.84 92.01 299.76 93.52 
M 300.96 93.79 300.96 93.79 
M 248.98 92.08 249.82 90.33 250.65 85.81 250.98 83.36 251.17 78.56 251.51 76.33 252.15 74.28 253.4 72.42 254.53 67.93 255.47 66.1 255.9 64.06 257.26 61.89 258.96 60.01 
M 252.76 91.32 253.65 89.47 254.41 84.94 254.26 80 254.5 77.6 255.47 75.79 257.44 72.81 258.97 65.81 260.86 61.34 
M 256.55 90.67 257.38 89.03 257.76 86.82 257.68 84.36 258.15 79.46 258.89 77.49 260.51 74.48 261.03 72.44 261.26 69.92 262.36 67.88 263.95 65.64 265.46 63.75 267.24 62.51 268.06 60.44 269.47 58.88 270.79 53.01 273.22 51.87 275.68 50.04 
M 260.35 90.03 261.14 88.38 261.34 86.09 261.15 83.85 261.39 81.54 261.41 79.36 261.91 77.64 262.86 75.96 264.36 71.86 265.63 69.49 267.43 67.43 269.87 64.19 273.94 60.6 275.4 58.93 
M 264.16 89.5 264.93 87.68 265.35 81.23 266.14 77.36 267.07 75.67 268.8 71.2 270.55 70.03 
M 267.98 89 268.79 87.28 269.37 85.21 269.62 80.99 270.8 76.92 271.85 74.28 274.42 70.42 
M 271.83 88.87 273.12 87.19 273.79 81.1 274.4 78.92 275.72 77.07 276.74 74.37 278.27 72.55 
M 275.68 88.91 277.36 86.86 277.38 85.08 279.01 81.21 279.52 79.36 
M 279.5 89.37 280.78 88.2 281.52 86.32 282.13 85.27 282.45 82.56 283.77 81.29 
M 283.29 90.06 284.63 89.11 285.31 87.61 285.95 85.46 
M 287.07 90.79 288.12 89.48 289.29 87.29 
M 290.85 91.55 292.59 89.94 294.19 88.16 
M 294.61 92.35 296.62 91.74 
M 298.37 93.2 298.37 93.2 
M 199.64 146.18 320.71 142.45 320.74 143.22 200.26 148.77 
M 200.4 149.9 302.98 152.97 302.96 153.74 200.7 152.49 
M 200.76 153.68 284.89 161.36 284.83 162.13 200.83 156.23 
M 200.92 157.49 266.63 167.61 266.53 168.37 201.16 160.02 
M 201.25 161.37 248.4 171.73 248.25 172.48 201.31 163.8 
M 201.28 165.27 230.38 173.73 230.18 174.47 201.07 167.49 
M 200.91 169.19 212.75 173.64 212.51 174.37 200.75 171.02 
M 307.62 143.82 301.65 145.59 298.01 147.39 294.71 149.8 291.63 152.63 
M 291.61 153.6 287.61 154.22 283.8 155.26 280.26 156.96 275.36 160.49 
M 275.28 161.46 269.44 161.84 265.76 162.76 262.28 164.37 258.94 166.42 
M 258.8 167.39 255 167.09 251.29 167.25 247.71 168.11 242.53 170.44 
M 242.34 171.39 238.71 170.66 235.11 170.39 231.56 170.83 226.32 172.55 
M 226.07 173.49 222.65 172.34 219.21 171.66 215.73 171.68 210.47 172.78 
M 210.16 173.7 205.33 171.71 203.68 171.31 200.74 171.06 
M 305.59 144.34 301.65 145.59 298.01 147.39 296.32 148.52 293.15 151.19 
M 285.27 145.23 282.02 146.26 279.01 147.74 277.62 148.68 275.01 150.88 
M 264.95 146.12 261.17 147.46 258.92 148.84 256.86 150.57 
M 244.62 147.01 241.86 147.99 240.22 149 238.72 150.26 
M 289.6 153.88 285.67 154.67 283.8 155.26 280.26 156.96 276.96 159.24 
M 266.23 153.56 263.22 154.16 260.4 155.21 259.07 155.92 256.54 157.67 
M 242.87 153.24 240.77 153.66 238.81 154.38 236.13 156.09 
M 273.31 161.5 269.44 161.84 265.76 162.76 264 163.49 260.6 165.37 
M 253.75 160.12 250.78 160.38 247.96 161.09 246.61 161.65 244 163.09 
M 234.18 158.74 232.12 158.92 230.15 159.41 227.4 160.8 
M 256.9 167.21 253.13 167.09 251.29 167.25 247.71 168.11 244.24 169.58 
M 233.29 164.22 229.65 164.25 227.32 164.8 225.07 165.76 
M 240.52 170.99 236.9 170.45 235.11 170.39 231.56 170.83 228.06 171.89 
M 237.25 206.73 239.46 209.57 242.15 214.34 244.35 215.62 246.07 217.88 248.73 222.01 249.76 224.33 251.25 226.5 252.85 229.21 255.43 231.3 258.16 235.86 259.06 237.89 261.11 240.41 260.57 249.58 259.3 251.28 258.44 253.39 257.22 255.14 256.25 257.31 254.74 259.06 253.59 261.17 251.68 262.52 248.32 265.69 247.03 267.66 245.93 269.83 244.57 271.74 241.25 273.27 229.82 280 229.97 278.27 230.97 276.27 231.43 274.53 231.41 272.53 232.28 269.81 232.34 267.29 230.67 264.88 229.68 262 230.18 256.75 229.67 253.03 229.89 250.83 230.69 248.18 231.65 246.64 231.59 244.14 230.41 241.25 229.62 238.8 229.26 236.25 230.88 230.97 231.2 228.45 231.25 225.94 230.27 224.57 229.81 222.29 230.05 217.48 230.04 212.21 229.69 206.94 229.28 204.14 
M 235.78 206.25 237.71 209.15 241.31 216.33 243.09 218.52 244.15 221.19 245.18 222.99 245.82 225.02 246.8 226.54 
M 234.32 205.77 235.83 208.86 237.82 213.8 238.57 216.14 241.66 221.42 242.23 223.81 242.15 225.77 243.61 229.55 246.91 233.68 
M 232.85 205.3 234.05 208.43 235.39 213.34 237.81 221.09 238.4 225.67 239.27 230.01 240.91 232.62 242.73 233.99 244.2 238.5 
M 231.39 204.82 232.08 207.79 232.92 212.89 233.59 215.55 233.63 220.67 234.29 222.79 235.16 224.73 236.48 229.43 236.95 234.34 237.01 236.62 237.51 239.02 238.31 241.06 238.45 243.73 238.99 246.46 238.98 249.66 240.26 254.4 240.12 255.86 239.37 257.87 239.75 259.44 239.65 268.48 
M 372.64 177.85 375.5 181.57 376.81 184.34 380.53 188.98 376.87 189.36 374.89 190.03 373.42 191.27 369.23 193 367.06 194.09 365.8 196.08 364.19 197.69 359.92 199.91 357.59 200.82 355.57 202.02 354.84 204.53 352.49 208.71 350.47 209.95 348.92 211.55 347.67 213.47 346.23 215.24 345.35 217.62 343.38 218.86 341.26 219.88 340.07 221.47 339.3 223.35 339.91 226.2 339.71 228.34 337.52 232.07 336.59 234.29 335.84 236.73 332.02 240.74 334.33 245.16 331.86 243.2 329.61 241.13 328.43 240.7 324.89 237.61 322.9 235.13 319.38 232.06 318.25 230.38 316.46 228.38 314.35 226.86 312.58 225.22 310.99 223.08 309.04 221.52 307.2 219.04 305.38 217.08 303.58 214.67 300.96 212.01 
M 369.12 179.42 372.79 182.42 
M 365.61 180.99 369.33 184.29 371.4 186.64 
M 362.14 182.67 367.6 187.5 369.42 190.2 
M 358.69 184.38 365.18 188.73 366.59 190.57 
M 355.22 186.06 358.49 189.25 361.27 190.93 
M 351.74 187.69 354.23 191.16 356.44 193.5 359.16 194.8 
M 348.23 189.29 350.75 192.93 352.67 195.01 354.87 196.89 
M 344.65 190.69 347.96 194.18 351.48 198.3 
M 341.07 192.1 344 194.87 345.81 197.64 347.92 199.49 
M 337.52 193.61 341.4 196.17 344.55 200.74 346.32 202.65 
M 333.99 195.13 337.47 197.82 339.74 199.99 341.75 202.85 
M 330.51 196.78 333.29 199.66 335.36 201.43 337.56 203.72 340.43 206.3 342.38 208.87 344.05 209.65 346.95 210.57 
M 327.06 198.5 329.78 201.25 333.48 205.6 335.55 206.88 338.55 209.16 340.36 211.59 342.78 213.71 
M 323.63 200.25 326.92 203.25 330.28 206.68 332.46 208.21 334.95 210.4 337.67 212.04 339.05 214.86 341.45 216.46 
M 320.24 202.07 323.58 205.18 327.69 208.58 329.46 210.28 332.67 211.54 334.7 213.43 337.53 217.34 339.07 218.56 340.18 219.01 
M 316.85 203.9 320.04 206.66 322.63 208.28 324.33 209.83 328.83 212.81 331.25 214.62 332.68 216.55 334.55 218.13 336.4 220.27 337.91 220.93 338.85 222.07 
M 313.58 205.92 316.82 208 321.22 211.53 325.22 214.8 329.19 218.79 331.25 220.26 
M 310.3 207.95 315.55 212.37 319.73 215.37 323.01 219.59 324.54 221.18 
M 306.84 209.64 310.05 212.39 311.78 214.46 312.88 216.1 316.57 219.58 318.3 221.55 319.71 223.75 321.52 225.67 324.53 226.16 325.92 227.88 
M 303.27 211.08 308.01 216.13 312.64 222.21 314.09 223.62 316.31 225.19 318.42 227.06 
M 396.53 133.46 399.03 131.95 400.77 129.9 404.14 126.77 407.74 123.93 411.33 120.79 413.67 119.89 415.67 118.13 421.02 115.67 423.99 115.02 427.97 113.58 430.04 113.86 440.39 108.74 440.5 113.17 440.95 115.79 441.4 120.65 441.09 122.59 437.88 125.37 437.36 128.09 435.69 132.93 434.33 134.8 432.42 136.11 430.77 137.68 428.88 139.04 427.71 141.12 426.96 143.58 425.04 144.84 422.76 145.76 421.07 147.33 418.34 151.13 416.62 152.61 414.65 153.9 415.36 155.4 416.66 155.5 417.97 156.21 419.77 158.25 425.6 163.08 430.92 166.53 432.25 168.34 433.05 170.21 434.33 172.31 436.71 174.44 438.68 176.67 440.11 179.74 440.26 181.8 439.86 185.45 440.92 187.67 441.67 189.81 441.55 192.25 440.64 192.7 440.8 198.11 434.64 196.09 429.52 194.16 427.57 192.39 425.21 190.68 421.11 188.27 418.2 187.55 416.89 186.84 415.19 186.47 411.24 182.38 409.38 180.79 406.29 177.08 404.36 175.2 402.77 172.78 400.65 170.59 396.53 165.4 
M 402.81 130.19 404.51 128.68 406.4 127.61 410.47 124.28 412.45 122.91 414.98 122.55 417.25 121.67 418.75 119.58 422.39 118.13 424.68 117.59 427.61 117.14 431.14 116.83 
M 403.21 132.2 406.59 129.59 413.63 125.78 415.4 125.25 418.03 124.05 419.78 122.48 424.5 120.47 429.46 120.64 431.5 119.38 433.96 118.71 436.28 119.25 438.62 119.3 
M 399.53 136.72 401.98 135.31 406.77 132.16 409.07 130.97 411.96 129.81 414.76 128.3 416.47 127.15 418.97 126.73 421.17 125.83 423.39 124.37 425.72 123.14 429.75 123.63 434.42 123.11 
M 404.23 136.28 407.01 134.29 412.39 131.41 415.56 130.26 417.52 129.35 422.11 128.07 424.65 126.95 427.01 126.6 
M 396.53 140.5 399.7 140.28 402.34 139.21 404.76 138.48 407.71 136 416.35 132.41 418.89 131.7 
M 399.6 141.92 402.17 141.08 404.74 140.46 406.84 139.12 408.16 137.8 411.07 137.13 413.54 136.21 416.09 135.52 
M 404.94 142.13 407.11 141.3 408.67 140.46 411.27 139.67 413.45 138.64 415.47 138.69 
M 405.18 144.53 407.22 143.72 411.72 142.39 413.24 141.44 415.13 141.4 
M 405.19 146.63 410.06 146.03 419.36 145.51 
M 403.12 149.03 405.89 149.04 
M 396.53 150.36 400.15 152.72 402.95 153.83 406.89 154.54 
M 405.69 155.16 408.78 155.99 
M 399.39 155.23 401.85 156.48 404.81 156.63 410.21 158.24 
M 401.7 157.64 404.16 158.68 410.01 160.61 412.01 161.65 414.35 161.62 416.27 162.31 
M 399.21 157.69 403.97 160.51 412.02 163.17 413.67 164.47 418.64 165.39 422.44 165.18 424.25 166.37 426.99 167.67 
M 399.09 159.22 403.85 161.84 406.6 163.16 409.6 164.07 411.93 165.8 413.87 167.01 418.63 167.61 421.31 168.18 
M 403.6 163.72 411.3 167.92 413.33 169.86 415.42 170.1 
M 403.66 165.44 406.2 167.4 412.53 171.62 414.77 172.02 420.72 175.9 422.7 177.43 425.21 178.34 426.77 179.77 432.48 180.16 435.57 180.56 
M 396.53 161.63 398.96 163.73 401.17 165.26 405.99 169.37 407.96 171.26 410.44 172.98 412.38 173.78 413.59 175.01 414.59 177.01 416.7 178.23 419.41 179.02 421.66 180.07 426.67 181.81 432.6 184.65 435.3 185.14 437.56 185.24 438.99 185.04 
M 401.06 167.09 403.21 169.26 411.5 176.62 413.34 180.07 420.21 183.02 423.07 183.04 
M 400.64 168.87 405.22 173.33 413.41 182.16 415.61 184.04 417.55 184.6 
M 111.39 116.43 114.03 116.56 127.2 116.39 136.85 115.95 142.29 115.54 154.01 113.72 160.06 113.2 165.79 113.02 180.56 113.1 184.53 113.19 187.66 113.45 189.43 113.84 194.22 125.43 196.48 133.19 198.22 137 198.94 140.92 199.33 144.88 200.27 148.78 200.73 152.74 201.34 164.67 200.18 176.79 199.65 180.85 198.93 184.93 197.43 189.03 187.34 188.22 179.9 186.59 173.26 184.36 167.15 181.68 161.65 178.51 156.43 174.62 151.46 170.17 141.08 160.34 136.44 154.93 
M 117.98 130.91 114.69 126.09 
M 111.5 116.84 111.39 116.43 
M 178.22 129.91 178.79 136.51 178.49 139.5 177.8 142.3 176.64 149.95 176.73 152.53 177.26 155.29 179.1 161.62 179.6 165.5 173.02 165.86 168.14 165.72 163.47 165.06 158.84 163.82 154.41 161.91 150.05 159.04 145.8 155.34 
M 135.51 154.36 131.57 149.05 129.52 145.9 119.99 133.74 115.7 127.48 111.03 121.34 109.99 119.63 110.05 117.76 111.6 116.78 113.47 117.22 114.6 118.72 121.48 129.9 126.83 138.03 130.9 144.59 134.54 151.15 136.79 154.71 
M 136.36 155.31 126.69 153.77 122.97 152.96 113.68 151.51 103.89 150.44 96.21 149.34 85.02 147.08 81.25 146.5 79.35 145.96 78.32 144.39 79.02 142.71 80.88 142.06 82.74 142.36 88.29 143.62 99.52 146.55 109.06 148.41 112.93 148.99 118.62 150.2 122.28 151.01 127.73 152.53 136.54 154.55 
M 148.47 134.1 147.54 130.56 147.8 126.92 149.24 123.56 151.69 120.85 154.88 119.08 158.48 118.44 162.09 119 165.32 120.71 167.82 123.37 169.32 126.71 169.66 130.34 168.8 133.9 166.83 136.97 163.97 139.25 160.53 140.47 156.87 140.5 153.4 139.35 150.5 137.14 148.47 134.1 
M 148.33 133.79 147.61 131.14 147.55 128.39 147.78 127.04 148.72 124.46 150.27 122.19 152.33 120.37 154.77 119.12 156.09 118.72 158.82 118.44 161.54 118.84 162.84 119.28 
M 149.76 133.2 149.37 132.08 149.03 129.74 149.33 127.21 
M 149.68 126.1 150.7 124.14 151.58 123.06 
M 151.84 122.8 153.2 121.64 154.21 121.04 156.44 120.22 158.79 119.98 159.97 120.08 162.25 120.71 
M 151.18 132.61 150.65 130.69 150.57 129.7 150.75 127.87 
M 152.89 123.92 154.07 122.92 154.92 122.41 156.78 121.72 158.76 121.52 159.75 121.6 161.66 122.13 
M 152.6 132.02 152.18 130.47 152.2 128.53 
M 153.93 125.05 155.62 123.78 157.13 123.22 159.52 123.13 161.07 123.55 
M 154.54 131.36 154.17 129.95 154.22 129.25 
M 155.34 126.6 155.83 126.06 157.11 125.35 158.55 125.1 159.99 125.32 161.28 126.01 162.28 127.07 162.88 128.41 163.02 129.86 162.67 131.28 161.89 132.51 160.74 133.42 159.36 133.91 157.9 133.92 156.52 133.46 155.35 132.58 154.54 131.36 
M 156.86 125.49 156.01 127.19 
M 154.93 129.35 154.33 130.55 
M 158.18 125.16 156.82 127.89 
M 156.03 129.46 154.85 131.82 
M 159.31 125.22 157.66 128.51 
M 157.46 128.91 155.55 132.73 
M 160.32 125.5 156.39 133.37 
M 161.24 125.98 157.36 133.74 
M 162 126.77 158.42 133.92 
M 162.62 127.83 159.63 133.82 
M 162.98 129.43 161.14 133.11 
M 136.21 153.78 137.24 154.81 
M 112.85 116.56 115.87 119.57 
M 117.42 116.51 121.03 120.12 
M 121.94 116.4 124.93 119.4 
M 126.54 116.39 130.69 120.53 
M 131.07 116.29 135.58 120.81 
M 135.44 116.04 138.93 119.53 
M 139.75 115.73 143.9 119.88 
M 143.93 115.3 147.9 119.26 
M 147.95 114.7 150.38 117.13 
M 151.93 114.06 154.45 116.57 
M 156.04 113.55 159.48 116.99 
M 160.31 113.19 162.63 115.51 
M 164.79 113.05 169.4 117.67 
M 169.41 113.05 173.23 116.87 
M 174.08 113.1 176.53 115.55 
M 178.71 113.11 182.54 116.94 
M 183.38 113.16 187.02 116.8 
M 188.47 113.63 189.47 114.63 
M 141.71 117.27 142.22 117 142.13 116.03 
M 166.93 143.24 165.12 141.08 163.86 139.29 
M 137.66 137.2 137.03 137.7 136.72 138.27 136.41 140.09 136.76 140.74 138.22 142.24 
M 177.28 170.76 175.99 171.06 174.09 171.2 
M 159.89 118.66 159.52 118.45 159.23 118.03 
M 140.3 146.9 141.48 146.33 142.74 145.13 
M 186.91 126 181.63 125.29 180.22 124.59 177.46 122.46 
M 139.51 133.95 137.34 135.55 136.1 136.65 135.8 137.23 136.28 140.27 
M 141.74 116.06 142.11 115.79 142.15 115.55 
M 185.56 140.17 185.32 138.56 183.55 134.78 182.61 133.51 180.83 131.73 
M 184.55 184.4 181.37 181.58 180.79 180.39 180.32 178.8 179.58 178.5 178.55 178.6 
M 173.28 136.25 174.52 134.39 175.95 132.96 
M 177.96 131.87 176.34 130.38 174.42 128.9 173.5 126.82 173.45 125.71 
M 123.93 132.91 123.45 132.92 
M 185.54 158.05 186.26 158.53 186.98 160.01 187.19 160.14 
M 179.08 120.11 176.08 119.39 175.31 119.46 
M 139.07 155.88 139.63 155.15 140.26 154.68 141.44 154.15 144.08 154.44 145.89 154.34 147.32 154.14 147.95 153.89 148.31 153.52 
M 173.99 141.05 174.67 140.28 175.63 139.77 176.67 138.93 
M 182.44 175.22 181.08 174.99 177.5 176.08 175.18 176.29 174.07 177.03 173.58 177.86 
M 181.96 131.42 181.08 131.04 178.27 127.75 
M 178.14 170.32 177.04 169.97 176.06 169.33 175.15 169.15 
M 185.37 125.05 182.66 124.62 181.29 124.03 180.77 123.6 179.46 121.33 178.87 120.62 
M 120.8 123.29 119.49 122 118.48 121.4 116.36 120.46 115.61 120.48 
M 199.76 180 194.69 181.15 192.68 182.65 
M 181.47 117.1 182.16 115.92 184.33 115.24 185.7 114.29 
M 161.75 169.38 160.91 172.17 160.59 174.74 160.68 175.39 161.24 176.35 
M 133.31 137.57 133.86 137.67 134.6 138.29 136.51 140.7 
M 162.92 148.81 161.4 149.8 160.05 150.94 158.15 151.98 156.91 153.1 156.29 153.37 156.03 153.33 
M 156.77 159.6 157.98 158.73 158.68 157.79 159.09 156.81 159.17 156.17 159.06 155.75 
M 164.98 163.22 166.01 163.5 166.76 163.3 167.54 162.68 168.63 161.12 169.29 160.52 
M 190.92 139.44 191.58 138.88 192.05 138.14 192.47 136.12 193 134.97 
M 178.68 175.93 177.1 176.27 175.48 176.37 174.78 176.6 174.23 177.01 173.62 177.87 173.12 177.95 
M 168.55 174.84 168.93 175.53 169.14 177.31 170.1 178.19 
M 164.15 116.34 163.82 115.63 163.47 115.45 162.17 116.23 
M 154.41 171.48 153.95 172.4 
M 133.36 116.17 132.53 116.93 130.95 118.93 
M 176.38 179.36 175.34 180.35 174.58 180.75 174.14 180.8 173.73 180.44 173.26 178.8 
M 177.01 180.73 175.68 182.38 174.36 184.73 
M 142.23 129.42 142.89 130.95 143.92 131.45 
M 179.68 185.61 179.99 186.61 
M 188.04 151.55 188.42 151.96 188.6 152.87 188.25 154.76 187.71 155.6 
M 170.47 165.46 170.71 164.21 171.12 163.27 171.98 162.55 172.68 162.21 173.05 162.24 
M 171.78 136.7 173.85 131.38 173.89 130.79 173.48 127.59 
M 167.7 154.49 168.63 158.32 169.24 159.09 170.07 159.55 
M 188.22 183.2 187.26 183.03 186.8 182.73 185.09 180.72 182.19 177.85 180.93 177.54 179.02 177.91 
M 188.6 131.78 185.38 130.02 182.92 129.95 
M 197.82 183.19 194.86 182.97 193.13 183.46 
M 167.39 116.53 167.13 114.72 166.67 113.9 166 113.64 164.47 113.72 
M 153.8 151.84 153.17 150.07 152.13 148.99 150.73 147.08 
M 137.93 149.71 139.93 146.94 141.24 146.44 141.77 146.04 
M 185.18 159.19 186.74 160.41 187.15 160.39 187.33 160.13 
M 163.91 171.06 163.78 171.77 163.79 174.14 164.03 175.51 164.51 176.78 
M 186.12 120.76 186.49 119 186.98 117.8 187.28 117.44 188.29 116.95 189.09 116.79 190.78 117.04 
M 136.45 154.93 137.01 155.76 
M 134.07 152.46 134.12 152.52 
M 131.7 149.23 131.56 149.93 132.08 149.75 
M 129.6 146.02 129.22 146.6 129.05 147.33 129.48 146.98 130.14 146.84 
M 127.35 143.15 126.81 143.82 126.54 144.73 127.07 144.2 128 143.92 
M 125.09 140.28 124.4 141.04 124.03 142.14 124.66 141.43 125.67 141.05 
M 122.88 137.35 121.99 138.27 121.53 139.54 122.25 138.65 123.49 138.13 
M 120.62 134.49 119.58 135.49 119.02 136.95 119.83 135.87 121.25 135.24 
M 118.42 131.56 117.17 132.71 116.51 134.35 117.42 133.1 118.97 132.36 
M 116.37 128.49 114.75 129.94 114 131.75 115.01 130.32 116.95 129.36 
M 114.23 125.52 112.34 127.16 111.49 129.16 112.6 127.54 114.9 126.37 
M 111.97 122.66 109.93 124.38 108.98 126.56 110.19 124.77 112.6 123.5 
M 109.99 119.55 107.52 121.61 106.47 123.97 107.78 121.99 110.53 120.52 
M 136.41 155.09 137.34 155.26 
M 129.77 152.96 129.93 152.88 129.95 153 
M 126.06 152.11 126.61 151.76 126.57 152.24 
M 122.65 151.12 123.28 150.64 123.15 151.26 
M 119.12 150.31 119.96 149.51 119.74 150.45 
M 115.59 149.57 115.83 149.08 116.63 148.39 116.29 149.16 116.33 149.72 
M 112.06 148.87 112.41 148.08 113.31 147.27 112.87 148.16 112.9 148.98 
M 108.49 148.3 108.99 147.08 109.98 146.15 109.45 147.16 109.46 148.48 
M 104.96 147.65 105.57 146.08 106.66 145.03 106.03 146.17 106.01 147.84 
M 101.47 146.94 102.15 145.08 103.34 143.91 102.61 145.17 102.55 147.13 
M 98.01 146.15 98.73 144.08 100.01 142.79 99.19 144.17 99.09 146.43 
M 94.58 145.24 95.31 143.08 96.69 141.67 95.77 143.17 95.63 145.48 
M 91.14 144.4 91.89 142.08 93.36 140.55 92.35 142.17 92.18 144.69 
M 87.71 143.49 88.47 141.08 90.04 139.43 88.93 141.17 88.73 143.74 
M 84.26 142.66 85.05 140.08 86.71 138.31 85.51 140.17 85.28 142.9 
M 80.72 142.12 81.63 139.08 83.39 137.19 82.09 139.17 81.81 142.21 
M 86.11 147.3 95.52 152.4 103.09 156.13 110.74 159.45 118.84 162.46 127.06 164.97 135.25 167.09 151.46 170.17 
M 192.18 120.47 193.27 121.57 
M 190.95 113.08 197.14 119.28 
M 194.87 110.84 203.42 119.39 
M 198.86 108.67 204.75 114.56 
M 202.96 106.62 210.38 114.03 
M 207.12 104.61 213.09 110.59 
M 211.34 102.67 216.52 107.85 
M 215.52 100.69 223.01 108.18 
M 219.66 98.67 225.17 104.18 
M 224.05 96.9 232.25 105.1 
M 228.63 95.32 237.09 103.78 
M 233.92 94.45 239.05 99.58 
M 239.32 93.69 246.57 100.94 
M 244.71 92.92 252.01 100.22 
M 249.86 91.91 257.41 99.45 
M 255.04 90.92 260.64 96.52 
M 260.31 90.04 266.02 95.75 
M 265.73 89.29 273.78 97.34 
M 271.47 88.87 277.45 94.85 
M 277.82 89.06 285.89 97.13 
M 285.37 90.45 292.33 97.41 
M 293.08 92 301.46 100.38 
M 301.05 93.81 306.78 99.54 
M 308.49 95.09 314.68 101.28 
M 315.73 96.17 322.44 102.88 
M 323.46 97.73 331.98 106.25 
M 332.11 100.23 339.57 107.68 
M 345.16 107.11 350.28 112.24 
M 359.45 115.24 365.73 121.52 
M 371.57 121.2 379.29 128.93 
M 383.36 126.84 390.69 134.16 
M 395.76 133.07 396.41 133.72 
M 204.89 191.89 205.25 192.62 
M 204.97 186.68 208.74 194.21 
M 203.69 178.71 212.24 195.81 
M 203.77 173.48 215.82 197.59 
M 205.63 171.82 219.45 199.45 
M 209 173.16 223.02 201.21 
M 211.38 172.55 223.27 196.31 
M 213.8 171.99 224.01 192.4 
M 204.08 147.16 204.19 147.38 
M 216.33 171.65 224.06 187.11 
M 190.01 113.62 190.35 114.31 
M 204.82 143.24 206.84 147.29 
M 219.02 171.65 223.41 180.43 
M 204.85 137.91 209.49 147.19 
M 221.98 172.18 223.45 175.1 
M 204.19 131.2 212.14 147.1 
M 240.7 204.21 242.89 208.61 
M 204.22 125.87 214.79 147.01 
M 240.73 198.88 246.08 209.59 
M 204.97 121.98 217.44 146.92 
M 240.1 192.23 249.14 210.33 
M 205.06 116.76 220.09 146.83 
M 240.19 187.02 252.21 211.07 
M 205.84 112.93 222.37 145.99 
M 240.27 181.81 255.15 211.55 
M 205.92 107.72 222.46 140.78 
M 240.36 176.6 256.21 208.28 
M 207.08 104.63 222.57 135.62 
M 241.17 172.82 256.32 203.13 
M 209.27 103.62 222.01 129.11 
M 242.65 170.38 255.76 196.61 
M 211.46 102.62 222.14 123.97 
M 244.81 169.32 255.89 191.47 
M 213.65 101.61 222.95 120.2 
M 247.03 168.37 256.7 187.71 
M 215.82 100.55 223.05 115.01 
M 249.36 167.63 256.11 181.14 
M 217.98 99.49 223.15 109.82 
M 240.37 144.26 241.29 146.1 
M 251.84 167.2 256.21 175.94 
M 273.43 210.38 274.95 213.43 
M 220.15 98.43 223.25 104.63 
M 239.78 137.69 243.94 146.01 
M 254.48 167.09 257 172.13 
M 273.53 205.19 277.67 213.47 
M 222.37 97.49 223.41 99.55 
M 239.94 132.62 246.59 145.92 
M 257.25 167.24 257.85 168.43 
M 274.38 201.5 280.34 213.43 
M 240.17 127.69 249.24 145.83 
M 275.3 197.94 283.02 213.4 
M 241.09 124.13 251.89 145.74 
M 274.84 191.64 285.69 213.34 
M 242.01 120.58 254.54 145.65 
M 274.38 185.33 288.07 212.71 
M 241.77 114.72 256.92 145.03 
M 273.45 178.09 289.3 209.77 
M 242.22 110.24 257.38 140.54 
M 273.22 172.23 289.75 205.29 
M 241.3 103 257.14 134.68 
M 273.67 167.75 290.89 202.18 
M 240.37 95.75 257.59 130.19 
M 273.25 161.51 291.34 197.69 
M 241.85 93.33 258.04 125.7 
M 275.41 160.45 291.79 193.2 
M 244.37 92.97 258.49 121.21 
M 277.36 158.94 292.24 188.71 
M 246.52 91.88 258.57 115.98 
M 272.35 143.54 273.09 145.01 
M 279.36 157.55 291.64 182.11 
M 304.03 206.91 305.65 210.13 
M 247.14 87.72 259.19 111.83 
M 272.97 139.38 275.74 144.92 
M 281.44 156.33 290.88 175.2 
M 304.65 202.75 307.89 209.22 
M 247.69 83.43 258.36 104.78 
M 272.83 133.71 278.39 144.83 
M 283.64 155.33 290.74 169.53 
M 304.51 197.08 310.03 208.12 
M 248.25 79.16 256.86 96.38 
M 272.7 128.06 281.04 144.74 
M 285.97 154.6 290.61 163.88 
M 305.07 192.81 312.09 206.85 
M 249.2 75.67 255.74 88.76 
M 272.96 123.2 283.69 144.65 
M 288.4 154.08 290.18 157.64 
M 306.02 189.32 314.15 205.57 
M 250.3 72.48 255.46 82.81 
M 273.37 118.62 286.34 144.55 
M 305.74 183.37 316.21 204.29 
M 250.95 68.4 256.12 78.73 
M 274.72 115.93 288.99 144.46 
M 305.02 176.54 318.31 203.11 
M 252.39 65.88 256.18 73.46 
M 275.46 112.03 290.62 142.34 
M 304.39 169.89 318.86 198.82 
M 254.03 63.78 256.44 68.6 
M 274.35 104.42 289.51 134.72 
M 304.66 165.03 319.12 193.96 
M 255.76 61.85 256.8 63.91 
M 274.02 98.35 289.17 128.66 
M 305.7 161.72 319.48 189.27 
M 273.81 92.55 288.96 122.85 
M 306.18 157.29 319.27 183.47 
M 273.72 86.98 288.87 117.28 
M 306.09 151.72 319.18 177.9 
M 273.57 81.29 288.72 111.59 
M 306.63 147.41 319.03 172.21 
M 273.51 75.78 289.36 107.47 
M 306.58 141.91 307.53 143.83 
M 307.54 143.84 318.97 166.7 
M 273.01 69.38 289.54 102.45 
M 305.38 134.13 319.85 163.06 
M 333.62 190.61 335.55 194.46 
M 273.59 65.16 290.12 98.22 
M 305.27 128.53 321.12 160.21 
M 333.52 185.01 337.77 193.51 
M 273.57 59.73 289.41 91.41 
M 305.26 123.1 321.79 156.16 
M 334.19 180.96 339.99 192.56 
M 273.35 53.9 289.88 86.96 
M 305.04 117.26 322.26 151.7 
M 334.65 176.5 342.23 191.65 
M 272.64 47.09 288.49 78.78 
M 305.71 113.22 322.93 147.66 
M 335.32 172.45 344.48 190.76 
M 271.98 40.38 281.36 59.13 
M 282.58 61.57 287.75 71.91 
M 305.65 107.72 322.87 142.16 
M 335.96 168.34 346.73 189.88 
M 274.01 39.05 279.64 50.31 
M 305.21 101.45 323.12 137.27 
M 336.9 164.82 348.98 188.98 
M 275.5 36.62 276.67 38.97 
M 304.72 95.07 322.63 130.88 
M 337.09 159.81 351.16 187.96 
M 276.96 34.16 277.44 35.12 
M 307.32 94.89 322.82 125.88 
M 337.97 156.19 353.35 186.93 
M 310.25 95.36 322.31 119.47 
M 338.84 152.53 355.53 185.91 
M 313.16 95.79 322.46 114.38 
M 338.99 147.45 354.15 177.75 
M 316.07 96.22 322.62 109.3 
M 339.15 142.37 353.61 171.3 
M 319.06 96.8 322.16 103 
M 339.38 137.44 353.84 166.37 
M 322.08 97.44 322.42 98.13 
M 338.26 129.81 353.42 160.12 
M 339.22 126.35 353.69 155.28 
M 338.96 120.42 354.11 150.73 
M 338.69 114.49 354.53 146.18 
M 338.66 109.05 354.51 140.74 
M 338.82 103.98 354.67 135.67 
M 371.2 168.73 375.16 176.65 
M 342.18 105.31 355.61 132.17 
M 370.77 162.48 377.34 175.62 
M 346.05 107.66 355.35 126.25 
M 369.13 153.81 379.52 174.59 
M 349.89 109.94 355.06 120.27 
M 368.14 146.45 381.67 173.49 
M 353.65 112.07 354.68 114.14 
M 369.15 143.07 383.78 172.34 
M 369.45 138.27 385.9 171.19 
M 369.65 133.3 386.18 166.36 
M 369.86 128.31 386.39 161.38 
M 369.93 123.07 386.46 156.14 
M 371.73 121.28 386.54 150.89 
M 375.25 122.92 385.23 142.9 
M 378.77 124.57 383.93 134.9 
M 382.33 126.31 384.05 129.75 
M 218.33 291.39 216.44 297.7 
M 218.33 291.39 220.64 297.7 
M 222.53 291.39 220.64 297.7 
M 223.46 295.3 227.06 295.3 227.24 294.7 227.12 294.1 226.4 293.5 225.5 293.5 224.81 293.8 224.03 294.39 223.46 295.3 223.28 295.89 223.31 296.8 223.73 297.39 224.24 297.7 225.14 297.7 225.83 297.39 226.61 296.8 
M 230.33 291.39 228.44 297.7 
M 229.34 294.7 230.51 293.8 231.2 293.5 232.1 293.5 232.61 293.8 232.64 294.7 231.74 297.7 
M 235.73 291.39 235.94 291.7 236.33 291.39 236.12 291.1 235.73 291.39 
M 235.4 293.5 234.14 297.7 
M 237.8 293.5 235.91 299.8 
M 237.53 294.39 238.31 293.8 239 293.5 239.9 293.5 240.41 293.8 240.83 294.39 240.86 295.3 240.68 295.89 240.11 296.8 239.33 297.39 238.64 297.7 237.74 297.7 237.23 297.39 236.81 296.8 
M 243.83 291.39 244.04 291.7 244.43 291.39 244.22 291.1 243.83 291.39 
M 243.5 293.5 242.24 297.7 
M 245.9 293.5 244.64 297.7 
M 245.54 294.7 246.71 293.8 247.4 293.5 248.3 293.5 248.81 293.8 248.84 294.7 247.94 297.7 
M 251.6 293.5 250.7 296.5 250.73 297.39 251.24 297.7 252.14 297.7 252.83 297.39 254 296.5 
M 254.9 293.5 253.64 297.7 
M 260.02 294.39 259.9 293.8 259.1 293.5 258.2 293.5 257.21 293.8 256.73 294.39 256.85 295 257.36 295.3 258.77 295.6 259.27 295.89 259.39 296.5 258.83 297.39 257.84 297.7 256.94 297.7 256.13 297.39 256.01 296.8 
M 268.43 294.39 268.01 293.8 267.5 293.5 266.6 293.5 265.9 293.8 265.13 294.39 264.56 295.3 264.38 295.89 264.4 296.8 264.83 297.39 265.34 297.7 266.24 297.7 266.93 297.39 267.7 296.8 
M 274.1 293.5 272.83 297.7 
M 273.83 294.39 273.41 293.8 272.89 293.5 272 293.5 271.31 293.8 270.52 294.39 269.95 295.3 269.77 295.89 269.81 296.8 270.23 297.39 270.74 297.7 271.64 297.7 272.33 297.39 273.11 296.8 
M 276.5 293.5 275.24 297.7 
M 275.95 295.3 276.52 294.39 277.31 293.8 278 293.5 278.89 293.5 
M 283.7 293.5 282.44 297.7 
M 283.43 294.39 283.01 293.8 282.5 293.5 281.6 293.5 280.91 293.8 280.13 294.39 279.56 295.3 279.38 295.89 279.41 296.8 279.83 297.39 280.33 297.7 281.24 297.7 281.93 297.39 282.7 296.8 
M 286.1 293.5 284.83 297.7 
M 285.74 294.7 286.91 293.8 287.6 293.5 288.5 293.5 289.01 293.8 289.04 294.7 288.14 297.7 
M 289.04 294.7 290.2 293.8 290.89 293.5 291.8 293.5 292.31 293.8 292.33 294.7 291.44 297.7 
M 295.43 291.39 295.64 291.7 296.02 291.39 295.82 291.1 295.43 291.39 
M 295.1 293.5 293.83 297.7 
M 300.23 294.39 300.11 293.8 299.3 293.5 298.39 293.5 297.41 293.8 296.93 294.39 297.05 295 297.56 295.3 298.97 295.6 299.48 295.89 299.51 296.8 299.02 297.39 298.04 297.7 297.14 297.7 296.33 297.39 296.2 296.8 
M 301.82 297.1 301.43 297.39 301.64 297.7 302.02 297.39 301.82 297.1 
"/></svg>
