<svg xmlns="http://www.w3.org/2000/svg" width="520" height="320"><rect x="0" y="0" width="520" height="320" fill="floralwhite"/><rect x="10" y="10" width="500" height="300" stroke="black" stroke-width="1" fill="none"/><path stroke="black" stroke-width="1" fill="none" stroke-linecap="round" stroke-linejoin="round" d="
M 143.73 96.01 152.4 92.35 178.22 80.03 186.82 76.3 204.03 72.22 212.63 70.87 229.84 70.28 247.05 70.16 255.66 70.75 264.26 72.41 272.87 74.65 281.47 77.21 290.08 80.78 324.5 95.38 333.1 99.4 341.71 103.59 350.31 108.24 367.52 118.18 
M 367.52 149.83 324.5 173.36 315.89 177.89 307.29 182.77 298.68 186.91 290.08 190.57 281.47 194.45 272.87 197.99 264.26 199.92 255.66 200.36 247.05 200.5 229.84 200.52 221.24 200.22 212.63 198.64 204.03 196.54 186.82 194.05 178.22 191.79 169.61 188.3 161.01 184.57 152.4 180.33 
M 145.4 99.47 147.91 94.79 147.91 94.24 
M 150.44 115.51 152.5 112.8 154.76 107.62 154.76 104.4 152.5 99.21 149 94.63 148.21 94.12 
M 154.14 139.26 155.56 135.96 155.56 132.59 153.23 127.14 152.4 126.03 
M 154.86 107.09 157.94 105.35 161.89 100.9 164.44 95.86 164.44 92.73 161.93 87.77 
M 155.9 135.39 159.18 133.53 163.39 128.77 166.11 123.38 166.11 120.04 163.39 114.65 159.18 109.89 155.9 108.03 
M 165.52 148.1 165.52 147.27 162.83 142.05 158.66 137.44 155.4 135.64 
M 163.49 170.85 161.97 167.91 158.81 164.44 
M 163.53 92.27 164.44 91.64 167.57 87.38 168.75 84.55 
M 165.14 122.19 166.98 120.83 170.36 115.86 172.54 110.23 172.54 106.74 170.36 101.11 166.98 96.14 164.34 94.2 
M 162.06 105.74 168.64 104.41 
M 162.04 108.3 168.44 108.91 
M 161.6 110.93 168.89 112.55 
M 172.24 145.34 174.78 139.71 174.78 136.43 172.49 131.12 168.93 126.44 166.16 124.61 
M 163.88 135.25 170.34 133.73 
M 163.72 137.8 170.82 138.07 
M 163.33 141.2 170.46 142.02 
M 166.09 171.63 168.53 168.46 
M 171.76 107.87 174.18 106.42 178.03 101.79 180.52 96.55 180.52 93.31 178.03 88.07 174.18 83.45 172.8 82.62 
M 168.56 92.68 175.91 91.1 
M 168.54 94.94 176.2 94.72 
M 168.57 97.88 176.07 98.64 
M 173.96 136.85 176.27 135.42 180.23 130.57 182.78 125.07 182.78 121.66 180.23 116.16 176.27 111.31 173.18 109.41 
M 169.86 120.44 178.46 119.13 
M 169.94 123.71 178.09 123.07 
M 170.03 126.42 178.24 127.8 
M 179.24 142.9 175.88 139.12 173.96 138.04 
M 182.01 175.63 182.01 174.84 
M 170.41 172.9 176.12 172.07 
M 179.63 93.14 180.77 92.38 184.01 88.05 186.1 83.15 186.1 80.12 184.84 77.16 
M 175.74 81.56 182.29 81.95 
M 175.71 84.46 181.93 85.13 
M 181.87 121.33 182.51 120.82 185.61 115.88 187.61 110.27 187.61 106.8 185.61 101.2 182.51 96.25 180.09 94.32 
M 177.9 105.82 183.9 104.62 
M 178.07 108.6 183.99 108.83 
M 177.65 111.61 184.01 112.6 
M 189.17 141.78 189.81 140.06 189.81 136.68 187.77 131.22 184.61 126.4 182.15 124.52 
M 179.78 135.79 185.83 134.04 
M 179.55 138.35 185.7 138.19 
M 180.19 141.52 182.06 141.94 
M 181.78 175.59 182.52 175.12 
M 185.35 80.94 187.85 79.72 191.65 76 192.22 75.02 
M 187.11 108.47 190.05 106.67 193.83 102.04 196.26 96.81 196.26 93.57 193.83 88.33 190.05 83.71 187.11 81.91 
M 189.08 137.45 191.88 135.64 195.67 130.71 198.11 125.14 198.11 121.69 195.67 116.11 191.88 111.19 188.92 109.26 
M 192.57 139.73 189.44 137.94 
M 195.39 94.17 197.08 93.03 200.27 88.71 202.34 83.82 202.34 80.8 200.27 75.91 198.51 73.53 
M 197.23 120.96 197.89 120.43 200.93 115.53 202.89 109.99 202.89 106.56 200.93 101.01 197.89 96.12 195.52 94.21 
M 205.58 135.58 203.85 131 200.52 125.97 197.92 124.01 
M 201.6 81.09 203.82 79.99 207.55 76.3 209.95 72.13 209.95 71.29 
M 202.77 108.44 205.67 106.64 209.39 102.02 211.78 96.79 211.78 93.55 209.39 88.31 205.67 83.69 202.77 81.89 
M 209.28 134.55 211.68 131.31 214.14 125.5 214.14 121.91 211.68 116.1 207.87 110.97 204.89 108.96 
M 219.43 180.5 219.43 179.49 219.05 178.84 
M 210.93 94.09 212.66 92.84 215.57 88.65 217.44 83.9 217.44 80.97 215.57 76.22 212.66 72.03 211.33 71.08 
M 208.24 80.06 213.87 78.41 
M 207.87 82.57 214.21 82.11 
M 208.45 85.07 214.28 85.9 
M 213.26 120.06 216.37 115.18 218.46 109.43 218.46 105.86 216.37 100.11 213.14 95.03 211.6 93.83 
M 208.02 104.7 214.83 103.45 
M 208.04 107.52 214.62 107.84 
M 208.52 110.68 214.31 111.76 
M 222.66 143.58 223.05 142.38 223.05 138.51 221.05 132.26 217.95 126.75 215.52 124.59 
M 214.15 137.15 219.62 135.9 
M 219.57 140.23 219.65 140.23 
M 222.29 180.8 224.9 177.65 227.43 172.26 227.43 168.92 226.51 166.95 
M 223.08 174.42 223.12 174.42 
M 216.77 80.31 218.77 79.28 222.33 75.62 224.63 71.48 224.63 70.47 
M 212.99 72.12 220.64 72.92 
M 218.13 108.31 221 106.47 224.67 101.78 227.04 96.46 227.04 93.17 224.67 87.85 221 83.16 218.13 81.33 
M 215.04 92.01 222.46 90.36 
M 215.6 95.09 222.8 94.41 
M 215.25 97.81 222.68 99.07 
M 222.33 138.04 223.66 137.1 227.43 131.76 229.87 125.71 229.87 121.97 227.43 115.93 223.66 110.59 220.72 108.51 
M 217.98 120.96 225.13 118.9 
M 217.49 124.25 225.45 124.19 
M 218.17 126.71 225.32 128.18 
M 226.53 169.97 227.82 169.1 231.83 163.68 234.42 157.56 234.42 153.76 231.83 147.63 227.82 142.22 224.69 140.11 
M 228.14 151.48 229.58 151.2 
M 229.51 155.58 229.79 155.58 
M 237.73 180.96 236.26 178.32 231.61 173.53 227.98 171.66 
M 226.13 90.18 228.56 86.36 230.38 81.35 230.38 78.25 228.56 73.24 226.75 70.39 
M 220.99 77.46 227.22 75.73 
M 221.33 79.99 227.36 79.91 
M 221.7 82.46 227.3 83.47 
M 229 123.2 230.54 122.01 233.82 116.92 235.94 111.16 235.94 107.6 233.82 101.84 230.54 96.76 227.97 94.77 
M 225.13 106.66 231.96 104.81 
M 225.58 108.94 232.25 109.53 
M 225.41 112.57 232.17 113.36 
M 232.54 149.14 234.02 146.31 235.92 139.89 235.92 135.91 234.02 129.49 231.07 123.82 229.76 122.57 
M 226.94 134.22 232.89 132.63 
M 226.27 137.91 232.32 138.18 
M 226.45 141.05 232.47 142.49 
M 243 180.95 244.78 175.7 244.78 171.7 242.6 165.25 239.21 159.55 236.57 157.32 
M 230.59 79.59 233.39 78.16 236.97 74.49 239.27 70.19 
M 227.66 70.94 235.44 72.35 
M 235.18 106.93 236.22 106.25 239.87 101.46 242.22 96.03 242.22 92.67 239.87 87.25 236.22 82.45 233.37 80.58 
M 230.85 91.57 237.9 90.25 
M 231.04 94.71 238.23 94.02 
M 230.84 97.27 237.52 98.49 
M 236.3 139.23 239.34 137.12 243.24 131.73 245.75 125.62 245.75 121.84 243.24 115.73 239.34 110.34 236.3 108.24 
M 244 169.09 247.34 164.17 249.83 157.75 249.83 153.77 247.34 147.35 243.48 141.67 240.47 139.46 
M 253.37 180.93 253.16 180.45 249.24 175.35 246.18 173.35 
M 241.16 89.42 243.76 85.56 245.7 80.52 245.7 77.4 243.76 72.37 242.29 70.18 
M 244.85 123.13 245.94 122.2 249 116.99 250.98 111.09 250.98 107.44 249 101.54 245.94 96.33 243.55 94.29 
M 248.94 150.6 251.5 146.7 253.88 140.35 253.88 136.42 251.5 130.07 247.81 124.46 245.33 122.59 
M 256.84 180.9 258.5 175.04 258.5 171.04 256.67 164.58 253.84 158.87 251.63 156.64 
M 245.89 79.04 248.79 77.63 252.49 74.02 254.44 70.67 
M 250.27 106.95 251.46 106.14 255.14 101.2 257.51 95.6 257.51 92.13 255.14 86.53 251.46 81.58 248.59 79.65 
M 253.13 140.69 256.31 138.55 260.37 133.06 263 126.84 263 122.99 260.37 116.77 256.31 111.28 253.13 109.14 
M 257.84 170.97 259.78 169.67 263.79 164.27 266.38 158.16 266.38 154.37 263.79 148.26 259.78 142.87 256.65 140.76 
M 253.83 152.77 261.99 151.32 
M 253.87 156.68 262.03 156.1 
M 253.83 159.54 261.41 160.72 
M 266.98 180.38 266.43 179.02 262.94 174.1 260.22 172.18 
M 256.45 88.79 259.09 84.99 261.07 80.01 261.07 76.92 259.09 71.94 258.68 71.34 
M 262.06 121.41 264.33 117.25 266.36 110.76 266.36 106.75 264.33 100.26 261.2 94.53 258.75 92.3 
M 256.59 105.66 262.98 104.14 
M 256.14 108.45 262.32 109.05 
M 256.69 112.46 262.26 113.81 
M 265.45 158.69 268.16 156.7 271.83 151.28 274.19 145.15 274.19 141.35 271.83 135.22 268.16 129.8 265.3 127.69 
M 262.52 140.42 269.94 138.26 
M 262.94 143.47 269.9 143.49 
M 262.54 146.44 269.6 147.97 
M 268.76 180.11 270.41 177.58 272.46 172.08 272.46 168.68 270.41 163.19 267.24 158.33 266.81 158.01 
M 262.69 167.95 269.11 166.11 
M 262.62 170.74 268.57 170.34 
M 262.26 173.02 268.53 174.17 
M 261.61 79.01 264.57 77.61 268.35 74.01 268.63 73.55 
M 265.63 107.34 267.12 106.34 270.9 101.27 273.33 95.52 273.33 91.97 270.9 86.22 267.12 81.14 264.17 79.16 
M 260.92 90.63 269.15 89.48 
M 261.25 94.12 269.29 93.55 
M 262.21 97.05 268.87 97.91 
M 273.35 140.07 277.32 134.57 279.94 128.2 279.94 124.25 277.32 117.88 273.26 112.26 270.08 110.06 
M 267.01 122.96 275.63 121.07 
M 267.39 126.39 274.76 126.4 
M 267.25 129.13 274.86 131.15 
M 273.59 172.4 276.82 170.38 280.96 165.22 283.63 159.37 283.63 155.75 280.96 149.9 276.82 144.74 273.59 142.72 
M 270.39 154.61 278.71 153.11 
M 270.53 157.71 279.02 157.91 
M 270.27 160.38 278.72 161.75 
M 280.42 177.18 277.76 173.96 274.84 172.2 
M 272.24 88.53 274.87 84.89 276.91 79.9 276.91 76.81 276.46 75.72 
M 266.51 75.66 272.81 74.64 
M 266.78 78.51 273.3 78.25 
M 266.98 80.98 272.98 82.54 
M 279.01 121.16 280.8 117.95 282.88 111.42 282.88 107.38 280.8 100.85 277.58 95.09 275.06 92.84 
M 272.46 105.7 279.08 104.78 
M 273.04 109.77 279.44 109.39 
M 272.99 112.57 279.19 114.05 
M 282.67 158.43 283.98 157.39 287.5 151.8 289.77 145.46 289.77 141.53 287.5 135.2 283.98 129.6 281.23 127.41 
M 291.39 173.71 291.39 171.44 289.18 166.02 285.76 161.23 283.09 159.36 
M 277.56 79.37 280.58 77.95 281.4 77.19 
M 282.14 107.74 283.31 106.97 287.24 101.8 289.78 95.94 289.78 92.31 287.24 86.46 283.31 81.28 280.23 79.26 
M 277.44 91.32 285.59 89.59 
M 277.61 94.1 285.55 94.2 
M 278.66 97.69 285.51 98.87 
M 288.96 142.62 290.19 141.76 294.34 136 297.02 129.47 297.02 125.43 294.34 118.9 290.19 113.14 286.95 110.89 
M 291.3 173.74 294.12 171.98 298.24 166.85 300.89 161.05 300.89 157.46 298.24 151.66 294.12 146.54 290.91 144.54 
M 291.43 173.7 291.17 173.55 
M 288.84 89.07 291.51 85.55 293.03 82.04 
M 295.7 121.36 297.12 118.81 299.28 111.93 299.28 107.68 297.12 100.8 293.76 94.73 291.14 92.36 
M 300.38 163.27 303.3 161.07 307.03 155.44 309.44 149.07 309.44 145.12 307.03 138.75 303.3 133.12 300.38 130.93 
M 305.34 169.24 304.35 166.67 301.68 162.72 
M 298.5 109.67 300.27 108.51 304.33 103.21 306.94 97.22 306.94 93.5 304.33 87.5 303.6 86.56 
M 308.58 142.91 312.02 138.1 314.71 131.53 314.71 127.47 312.02 120.9 307.87 115.1 304.62 112.84 
M 301.53 126.43 309.89 124.07 
M 301.23 129.49 309.44 129.23 
M 302.72 132.95 310.21 134.5 
M 315.83 165 317.07 162.19 317.07 158.73 314.6 153.14 310.76 148.2 308.58 146.79 
M 305.27 157.47 312.46 155.96 
M 305.17 160.7 312.89 160.06 
M 304.85 163.13 312.2 164.94 
M 306 91.82 308.33 88.58 
M 313.41 123.4 314.92 120.77 317.18 113.86 317.18 109.58 314.92 102.68 311.42 96.57 308.68 94.19 
M 306.09 108.43 313.28 106.08 
M 305.67 111.44 313.02 111.86 
M 307.71 115.59 313.36 116.74 
M 320.15 163.33 320.82 162.78 324.1 157.38 326.21 151.27 326.21 147.48 324.1 141.37 320.82 135.97 318.27 133.86 
M 315.5 146.54 322.22 144.89 
M 315.38 149.31 322.14 149.51 
M 315.69 152.61 322.1 154.17 
M 317.46 164.37 316.19 162.41 
M 316.37 110.47 317.11 109.97 321.01 104.61 323.53 98.55 323.53 94.98 
M 311.53 93.31 316.92 92.24 
M 310.79 96.23 318.91 97.07 
M 313.11 100.22 318.82 101.69 
M 325.19 143.72 328.22 139.16 330.63 132.77 330.63 128.82 328.22 122.43 324.48 116.79 321.56 114.59 
M 318.71 127.5 325.88 125.83 
M 318.82 131.15 326.11 130.95 
M 319.11 133.59 326.13 135.88 
M 331.13 159.01 331.13 158.11 328.91 152.75 325.45 148 
M 324.45 156.24 327.48 155.57 
M 322.43 159.51 326.81 159.52 
M 320.71 162.31 322.14 162.57 
M 329.77 126.29 331.66 122.57 333.66 115.7 333.66 111.45 331.66 104.59 328.57 98.52 326.16 96.16 
M 337.44 156.5 337.75 155.9 339.43 150.25 339.43 146.75 337.75 141.1 335.15 136.11 333.12 134.16 
M 332.94 108.47 335.99 104.11 337.09 101.34 
M 337.59 141.32 340.58 136.29 342.62 130.27 342.62 126.55 340.58 120.53 337.42 115.22 334.95 113.14 
M 343.1 154.28 341.28 149.58 338.83 145.98 
M 341.84 123.17 344.02 118.78 345.68 112.89 345.68 109.25 344.51 105.1 
M 342.62 153.19 342.87 152.91 345.15 147.91 346.61 142.24 346.61 138.74 345.15 133.07 342.87 128.07 341.89 126.99 
M 345.62 134.6 348.22 133.05 351.55 129.08 353.69 124.59 353.69 121.81 351.55 117.32 348.22 113.35 345.62 111.8 
M 355.21 149.71 354.03 147.41 350.53 143.53 347.81 142.02 
M 148.21 94.12 148.21 94.12 
M 162.41 180.3 164.58 176.1 164.58 172.97 163.49 170.85 
M 168.75 84.55 168.75 84.55 
M 163.65 173.83 165.15 172.86 166.09 171.63 
M 170.61 183.46 169.83 181.75 166.36 177.44 163.66 175.76 
M 172.8 82.62 172.8 82.62 
M 176.37 185.54 179.32 182.48 182.01 177.55 182.01 175.63 
M 168.97 176.25 177.14 175.94 
M 181.05 176.06 181.78 175.59 
M 181.76 187.01 185.62 186.45 
M 192.22 75.02 192.22 75.02 
M 193.16 188.98 197.38 184.71 200.2 179.53 
M 198.51 73.53 198.51 73.53 
M 208.14 191.25 205.81 186.35 202.19 182.1 199.37 180.45 
M 209.95 71.29 209.95 71.29 
M 211.9 192.09 216.42 187.74 219.43 182.64 219.43 180.5 
M 211.33 71.08 211.33 71.08 
M 218.35 183.98 220.96 182.41 222.29 180.8 
M 227.52 193.94 227.52 193.54 224.82 188.69 220.64 184.41 219.34 183.75 
M 215.12 192.68 222.56 190.94 
M 226.75 70.39 226.75 70.39 
M 238.19 188.72 239.21 187.85 242.6 182.15 243 180.95 
M 245.58 193.98 243.23 191.38 240.11 189.66 
M 254.78 185.32 256.67 181.51 256.84 180.9 
M 259.96 193.71 258.64 191.59 256.41 189.8 
M 266.65 193.07 268.68 188.03 268.68 184.59 266.98 180.38 
M 257.37 183.88 264.18 182.22 
M 257.88 186.33 264.33 186.6 
M 258.03 188.76 264.98 190.59 
M 267.85 181.5 268.76 180.11 
M 272.83 191.83 270.24 187.61 268.09 185.84 
M 283.44 187.78 283.91 186.79 283.91 183.62 281.5 178.49 280.42 177.18 
M 276.46 75.72 276.46 75.72 
M 272.81 74.64 272.81 74.64 
M 283.09 186.88 285.76 185.01 289.18 180.23 291.39 174.8 291.39 173.71 
M 284.06 187.53 283.44 187.14 
M 281.4 77.19 281.4 77.19 
M 290.91 173.98 291.3 173.74 
M 304.64 179.19 306.3 174.88 306.3 171.74 305.34 169.24 
M 320.15 171.54 320.15 170.58 318.37 165.76 317.46 164.37 
M 311.14 171.92 316.63 172.07 
M 311.52 174.68 313.24 174.95 
M 323.53 94.98 323.53 94.98 
M 316.92 92.24 316.92 92.24 
M 328.4 167.5 328.91 166.79 331.13 161.43 331.13 159.01 
M 333.12 162.83 335.15 160.89 337.44 156.5 
M 345.48 159 343.87 156.51 342.62 155.54 
M 356.28 153.73 356.28 151.8 355.21 149.71 
M 202.45 72.11 204.03 72.22 
M 215.59 70.53 219.75 45.72 220.63 45.83 218.76 70.67 
M 228.81 69.99 236.07 36.87 236.94 37.03 231.98 70.26 
M 242.05 69.8 252.85 30 253.7 30.2 245.22 70.17 
M 255.3 70.42 270.53 33 271.35 33.31 258.36 71.28 
M 268.29 73.09 288.53 36.7 289.31 37.1 271.26 74.24 
M 281.04 76.71 303.27 44.73 304.01 45.21 283.85 78.2 
M 293.29 81.74 312.98 57.44 313.69 57.97 296.05 83.33 
M 306.03 87.17 307.29 88.14 
M 204.72 72.12 208.83 67.51 210.8 65.04 212.62 62.48 214.26 59.8 217.02 54.14 219.34 48.2 
M 220.44 48.33 224.29 47.52 226.14 46.96 227.9 46.23 229.55 45.33 232.58 42.99 235.35 40.18 
M 236.44 40.38 240.28 40 243.92 39.14 245.63 38.42 247.25 37.52 248.8 36.44 251.77 33.98 
M 252.85 34.24 256.26 35.91 259.76 37.06 261.56 37.34 263.38 37.41 265.24 37.3 269 36.74 
M 270.04 37.13 273.49 38.95 277.03 40.26 278.86 40.61 280.73 40.77 282.63 40.74 286.51 40.34 
M 287.49 40.85 289.98 43.43 291.3 44.56 292.71 45.53 294.22 46.32 297.51 47.36 301.05 47.93 
M 301.98 48.53 303.1 51.76 303.8 53.26 304.64 54.65 305.64 55.91 308.12 58.06 311.01 59.87 
M 311.9 60.54 309.66 66.39 307.95 72.34 307.39 75.37 307.03 78.43 306.86 81.53 306.85 87.8 
M 222.38 47.96 226.14 46.96 227.9 46.23 229.55 45.33 231.11 44.24 233.98 41.62 
M 222.87 55.85 225.31 55.2 226.45 54.73 228.54 53.43 230.41 51.73 
M 238.38 40.23 242.14 39.66 243.92 39.14 245.63 38.42 247.25 37.52 250.3 35.24 
M 238.05 47.23 240.94 46.79 242.3 46.39 244.85 45.15 247.19 43.41 
M 237.73 54.23 240.68 53.65 242.46 52.78 244.08 51.57 
M 254.55 35.11 258 36.58 259.76 37.06 261.56 37.34 263.38 37.41 267.12 37.06 
M 253.79 41.32 256.63 42.53 259.57 43.16 261.08 43.22 264.15 42.92 
M 253.02 47.52 255.27 48.48 256.41 48.79 258.77 49.02 261.19 48.79 
M 252.26 53.73 254.74 54.66 256.46 54.82 258.23 54.65 
M 271.76 38.08 275.24 39.7 277.03 40.26 278.86 40.61 280.73 40.77 284.56 40.57 
M 270.27 44.08 273.14 45.42 274.62 45.88 277.67 46.3 280.83 46.14 
M 268.78 50.09 271.04 51.14 273.39 51.74 274.61 51.84 277.1 51.71 
M 267.29 56.1 268.94 56.87 270.66 57.3 273.37 57.28 
M 288.72 42.17 291.3 44.56 292.71 45.53 294.22 46.32 295.82 46.92 299.26 47.67 
M 286.5 48.04 288.63 50.01 291.04 51.46 292.36 51.96 295.2 52.58 
M 284.28 53.91 285.96 55.46 287.85 56.6 288.9 56.99 291.13 57.48 
M 282.06 59.78 283.96 61.37 285.43 62.03 287.07 62.39 
M 302.51 50.17 303.8 53.26 304.64 54.65 305.64 55.91 306.81 57.04 309.54 58.99 
M 299.23 57.16 300.22 59.53 301.63 61.56 302.53 62.43 304.62 63.92 
M 295.96 64.15 296.64 65.8 297.63 67.22 299.7 68.86 
M 156.26 149.57 160.98 149.23 164.18 148.56 167.04 147.57 169.23 146.08 176.74 144.15 179.65 142.69 184.96 141.14 186.54 140.94 189.38 141.85 190.89 140.27 209.07 134.46 211.36 135.46 220.53 140.77 222.43 143.08 223.02 144.35 224.2 146.2 228.73 152.28 228.82 153.99 231.08 159.58 229.9 162.05 227.95 163.83 226.74 166.35 225.71 169.06 223.15 170.23 223.09 175.52 221.21 177.34 218.1 179.49 191.61 179.54 189.13 180.18 186.68 179.37 184.49 177.17 182.99 175.37 180.11 173.81 175.63 171.85 171.87 169.64 163.91 166.72 160.84 165.16 155.62 163.2 
M 156.15 150.75 158.46 150.41 161.25 150.4 164.03 150.06 166.42 149.58 168.52 148.24 174.93 147.18 177.03 146.3 179.23 145.69 181.98 144.42 184.72 143.37 190.1 141.83 
M 156.03 152.15 161.79 151.82 166.97 151.93 169.01 150.89 175.01 150.01 179.92 148.67 183.12 148.05 185.32 147.33 188.08 147.01 191.36 145.48 194.57 145.34 198.6 146.53 201.34 146.18 202.95 145.49 203.88 144.51 205.19 144.4 208.8 142.67 212.01 141.39 215.72 140.6 218.46 140.38 
M 158.82 153.84 175.13 153.76 180.75 152.83 184.13 151.99 186.52 151.13 189.02 151.14 191.99 150.62 
M 156.02 155.26 158.54 155.61 161.46 155.76 164.44 155.66 167.41 156.06 172.41 156.4 175.01 156.21 177.68 156.35 180.5 156.26 186.86 154.68 190.17 154.2 192.24 155.06 194.94 155.7 
M 158.32 157.26 161.13 157.5 164.72 157.38 175.01 158.85 177.78 158.9 183.71 159.89 186.81 159.37 192.31 159.02 195.65 158.48 198.45 158.27 201.45 159.62 204.18 160.27 206.69 160.06 211.75 160.94 213.8 161.47 216.16 161.4 219.9 162.23 222.68 162.05 226.08 162.86 228.5 161.46 
M 161.13 159.19 164.34 159.96 171.01 160.75 173.29 161.23 175.55 162.01 177.46 163.23 180.29 163.51 183.81 163.56 190.19 164.88 195.96 163.85 198.52 163.96 200.47 164.76 202.95 164.41 205.5 164.32 
M 161.13 161.05 164.02 162.25 173.03 163.95 175.17 164.91 177.87 166.69 180.82 167.06 182.8 167.73 186.01 167.86 
M 155.76 161.58 158.23 162.29 163.86 164.28 166.93 165.1 169.43 166.23 175.5 167.99 177.83 169.14 180.34 170.07 183.31 171.67 185.2 173.02 
M 178.22 191.79 182.28 198.11 184.46 200.56 188.37 207.51 189.83 209.66 191.43 211.43 192.33 213.53 193.36 216.73 195.55 220.32 196.91 223.45 198.74 225.91 200.53 229.66 201.99 234.96 199.66 245.1 198.64 250.61 197.44 255.93 195.51 257.71 193.84 259.76 187.48 264.57 185.7 266.44 183.02 267.4 180.85 268.88 178.27 269.94 175.97 272.26 165.74 280 165.45 276.19 165.64 272.93 164.83 270.02 165.81 265.48 165.83 263.45 165.14 261.38 166.88 254.56 167.91 251.74 168.06 249.92 167.36 247.83 167.66 245.11 167.3 241.76 168.12 236.83 168.67 234.54 168.65 231.61 169.35 228.09 169.46 224.29 169.39 221.71 168.37 219.55 168.65 215.17 169.88 209.92 170.32 206.78 170.31 200.29 169.9 191.37 169.61 188.3 
M 176.58 191.13 178.58 194.69 179.65 197.59 181.32 200.25 182.91 202.32 184.63 207.37 185.99 210.27 188.62 214.37 189.38 217.74 191.42 220.04 192 226.4 193.14 229.1 194.14 230.94 194.63 232.8 197.38 237.85 
M 174.95 190.47 176.6 193.96 177.34 197.11 178.27 199.99 179.38 202.14 181.18 207.14 181.68 209.75 183.1 215.02 184.24 217.17 185.22 220.1 186.71 223.2 186.96 225.6 188.16 230.43 187.63 233.35 189.59 235.68 190.54 238.49 190.78 241.52 
M 173.31 189.8 174.51 193.14 175.28 196.2 177.9 209.16 178.91 212.16 179.44 216 179.21 218.1 179.67 220.29 180.67 223.22 180.73 228.56 181.09 234.69 181.68 236.52 
M 171.68 189.14 173.04 195.15 173.48 197.95 174.26 206.68 174.04 209.75 174.54 215.55 174.15 218.52 174.52 220.17 175.46 222.88 175.08 228.54 175.48 230.92 175.61 234.19 175.48 239.03 175.74 241.41 175.85 244.84 177.6 248.54 
M 325.47 172.11 330.97 177.86 330.43 178.55 323.52 174.61 
M 313.84 178.37 320.81 185.42 320.26 186.11 311.86 180.85 
M 302.18 184.54 313.24 195.81 312.66 196.47 300.08 186.92 
M 290.12 189.89 307.92 208.31 307.32 208.95 287.94 192.19 
M 282.56 193.3 310.34 221.23 309.73 221.87 280.38 195.6 
M 329.74 178.16 326.96 178.68 324.48 179.64 323.41 180.37 322.46 181.27 321.61 182.32 320.11 184.72 
M 319.42 185.59 316.91 186.9 314.83 188.54 314.02 189.56 313.37 190.7 312.87 191.95 312.14 194.68 
M 311.4 195.52 309.21 197.46 307.5 199.63 306.92 200.85 306.52 202.16 306.29 203.54 306.14 206.47 
M 305.38 207.27 304.75 209.97 304.64 212.57 304.89 213.81 305.34 215.01 305.96 216.17 307.56 218.44 
M 318.14 186.22 315.8 187.66 314.83 188.54 314.02 189.56 313.37 190.7 312.47 193.3 
M 310.27 196.47 308.27 198.51 307.5 199.63 306.92 200.85 306.52 202.16 306.18 204.99 
M 305.03 208.63 304.61 211.29 304.64 212.57 304.89 213.81 305.34 215.01 306.73 217.31 
M 298.11 203.07 297.83 204.8 297.86 205.63 298.31 207.22 299.21 208.71 
M 367.52 118.18 370.35 117.85 372.82 116.63 375.52 114.77 382.99 110.27 385.3 109.44 387.54 108.33 391.64 104.61 394.06 103.11 395.76 102.46 397.93 102.44 400.04 100.87 401.94 98.79 403.91 97.11 408.3 94.41 411.48 93.72 414.98 92.26 417.58 90.39 419.42 88.63 421.59 87.53 424.19 85.76 426.68 84.52 430.32 81.54 432.57 81.14 435.43 78.74 438.35 77.55 442.55 73.46 443.87 70.8 445.14 69.06 449.82 67.45 451.1 67.58 462.44 69.98 471.19 76.62 472.07 80.27 475.27 88.4 475.55 91.44 475.32 93.96 474.3 95.69 473.91 98.06 474.67 101.84 473.61 104.5 471.23 105.85 469.34 107.69 467.49 109.57 464.45 113.94 462.52 115.59 461.82 118.45 460.47 120.67 458.35 122.13 456.83 124.29 454.25 129.15 453.46 132.09 451.85 134.18 452.63 136.82 453.71 141.61 454.99 143.87 462.03 155.04 463.66 157.51 466.2 160.89 467.39 162.94 467.37 164.11 467.63 165.56 468.46 167.57 472.98 174.47 473.39 176.08 474.78 178.94 475.15 180.77 476.88 185.43 477.34 187.63 474.46 191.93 470.56 195.34 468.95 197.4 466.29 198.4 464.42 200.2 462.66 202.28 452.3 207.93 448.66 208.11 444.96 206.24 442.86 203.93 439.62 199.09 437.45 197.26 435.75 196.18 433.99 195.32 431.73 194.89 427.29 192 421.62 187.35 419.9 185.49 415.73 182.69 414.02 180.08 411.28 178.36 408.1 177.43 405.92 175.5 402.87 174.54 400.06 172.99 397.82 171.37 394.33 168.45 391.72 167.6 389.27 165.67 384.85 161.1 382.49 159.21 380.23 157.84 378.24 156.87 367.52 149.83 
M 370.48 119.95 372.93 118.96 381.37 114.76 383.61 113.35 385.71 112.39 388.27 111.56 390.97 110.17 393.12 109.41 394.13 107.8 396.59 106.29 398.36 105.34 401.21 104.9 403.24 103.41 405.37 100.99 410.31 98.86 413.57 98.29 416.27 96.69 419.44 95.69 422.44 95.64 425.1 94.71 426.89 93.02 429.54 91.16 431.27 89.4 433.42 87.7 435.73 87.26 
M 373.29 121.22 383.98 116.54 386.1 115.3 388.59 114.52 390.82 114.07 393.11 113.2 397.74 111.25 402.51 108.55 408.32 106.81 410.48 105.28 412.88 104.13 417.25 102.64 420.4 100.94 422.75 100.5 424.58 99.96 428.04 99.41 431.28 98.05 
M 367.52 124.38 370.8 124.35 373.54 123.83 379.07 121.65 381.97 120.76 389.42 117.79 391.87 117.08 393.98 116.72 396.83 115.85 398.67 115.04 406.91 113.03 414.05 110.09 416.54 109.9 418.15 108.61 420.99 107.19 423.79 106.12 428.75 105.66 432.11 104.56 436.15 103.67 439.1 102.56 441.33 101.32 444 99.22 446.71 98.41 448.08 97.71 449.7 97.43 451.99 97.64 454.64 97.16 460.74 97.01 466.44 94.81 470.38 90.69 
M 367.52 126.45 370.98 126.76 373.77 126.32 376.43 125.65 379.07 124.58 381.89 123.76 386.82 123.17 389.04 122.62 392.14 121.51 397.8 120.64 402.86 118.85 405.29 118.42 410.47 116.72 413.29 116.39 415.67 116.32 417.92 115.95 423.34 113.73 426.02 113.49 431.13 110.23 434.18 109.67 437.14 108.77 439.28 109.31 447.45 107.66 
M 374.09 128.81 376.58 128.32 382.33 126.82 384.43 126.97 386.71 126.9 389.06 126.67 392.26 125.97 395.74 125.67 398.69 125.03 401.54 125.1 403.3 124.15 406.08 123.69 408.5 122.93 411.65 122.4 417.82 122.16 419.85 121.66 422.65 120.49 428.78 118.53 431.07 118.94 434.04 119.81 436.64 119.77 439.6 118.8 441.55 117.91 444.61 117.63 446.67 116.63 453.22 115.96 455.99 115.37 459.58 112.67 462.5 112.48 
M 370.88 131.39 374.01 131.48 379.79 130.25 382.37 130.2 387.22 130.43 392.52 130.18 395.96 129.77 401.85 129.36 403.69 128.86 406.02 128.82 408.95 128.36 415.36 128.38 417.62 127.93 422.33 126.53 424.84 126.1 430.36 125.85 432.92 126.43 438.37 126.54 440.88 126.95 444.77 126.92 449.93 126.02 454.21 124.94 457.25 124.57 
M 370.56 133.65 373.74 133.86 376.92 133.85 379.32 133.09 393.44 133.49 396.11 134.77 398.48 135.48 401.56 135.26 403.92 134.14 406.5 134.39 409.69 134.42 412.98 134.01 416 133.09 422.31 132.84 424.34 133.61 427.57 132.45 431.24 132.59 436.07 133.63 439.93 133.46 441.95 134.44 444.31 135.22 447.83 135.05 449.86 135.35 
M 376.76 136.5 379.34 136.15 382.11 136.01 385.55 136.65 390.86 137.04 394.15 137.65 396.39 138.84 398.31 139.58 400.92 139.91 406.2 138.96 408.65 138.94 411.79 138.11 415.64 137.82 419.11 138.75 421.73 138.4 428.12 139.39 
M 370.87 138.01 376.54 138.98 379.73 138.79 382.83 139.1 387.85 140.46 395.55 141.71 398.13 141.88 401.16 142.49 406.19 142.41 409.22 142.67 415.27 144.03 418.25 144.28 426.38 146.91 429.03 147.29 432.08 148.08 434.09 148.06 437.11 148.7 439.07 147.49 441.1 147.69 442.99 147.41 445.95 148.51 449.85 148.79 
M 367.52 138.84 370.93 140.14 373.86 140.98 376.7 141.22 379.85 141.76 387.22 143.45 390.08 143.67 392.64 144.76 395.08 145.4 397.72 145.66 400.59 146.62 403.82 146.89 406.1 147.72 408.16 148.95 410.62 150.03 413.27 150.1 416.12 149.43 422.37 151.28 428.59 153.46 434.63 154.7 438.39 154.52 441.39 155.49 443.74 157.04 446.17 157.36 450.05 156.68 
M 376.91 143.75 384.51 146.33 387.13 147.41 389.38 148.81 392.04 149.55 400.96 150.35 403.17 151.53 405.28 153.1 407.35 155.33 410.32 155.5 412.41 155.35 414.53 155.7 417.21 156.54 420.06 158.41 423.68 158.8 426.82 158.77 429.96 159.65 434.7 162.18 436.9 162.98 439.18 162.75 440.98 162.95 443.24 164.45 
M 376.33 146.88 382.03 148.79 384.28 149.78 389.22 153.4 391.99 154.31 397.46 154.64 399.7 155.6 402.52 157.23 405.07 159.05 407.93 159.56 410.38 160.55 412.66 161.94 414.62 162.56 418.95 164.51 425.41 164.83 428.38 165.73 430.19 166.75 
M 370.71 146.71 376.08 149.53 378.62 150.63 383.69 153.21 386.51 154.84 388.31 156.41 395.97 160.29 400.56 162.85 406.05 164.37 409.36 165.58 411.58 166.9 413.39 168.62 415.63 170.12 418.21 170.43 420.53 171.38 
M 370.59 148.93 373.11 150.46 375.84 151.81 383.3 156 387.82 159.78 390.19 161.5 392.43 162.65 398.96 166.58 409.47 171.73 412.02 173.53 414.66 175.08 
M 333.1 99.4 337.5 104.76 358.47 87.32 345.17 107.66 341.71 103.59 
M 337.06 101.33 340.2 101.32 342.17 99.92 343.97 97.37 346.28 94.98 347.76 92.81 349.34 91.44 351.96 90.07 
M 59.96 138.22 60.41 136.63 61.57 134.06 64.06 131.09 68.17 128.06 72.5 125.16 77.57 123.21 82.88 120.94 87.99 117.46 98.98 110.79 112.26 105.19 119.26 102.71 125.85 100.54 131.9 98.79 137.13 97.44 143.73 96.02 145.79 100.26 148.13 108.99 151.2 117.65 152.22 122.04 152.42 126.5 153.35 130.89 154.2 139.78 156.35 148.53 155.95 153.06 156.09 157.53 155.31 166.58 154.83 175.6 152.39 180.33 138.87 180.02 128.67 179.13 119.62 177.99 111.25 176.53 97.09 172.6 91.16 170.71 86.1 168.5 81.58 165.69 
M 79.7 164.57 73.17 160.63 70.06 157.79 67.33 154.41 64.85 150.84 63.04 147.85 
M 128.63 124.77 129.19 128.54 128.89 132.21 128.3 135.67 128.31 141.67 127.4 144.46 127.45 149.96 127.86 152.51 130.2 158.44 130.16 162.3 114.35 162.53 107.91 162.48 101.51 162.15 89.83 159.96 84.78 158.46 
M 80.26 165.12 72.98 158.14 65.39 150.16 62.21 147.07 57.93 142.26 57.4 140.22 58.58 138.4 60.66 138.12 62.18 139.42 68.86 148.11 75.34 157.29 81.88 165.4 
M 81.53 166.17 68.2 166.13 57.04 165.74 52.53 165.43 45.94 165.72 43.77 165.26 42.65 163.44 43.35 161.2 45.41 160.26 56.44 161.65 62.85 162.84 69.5 163.79 81.58 165.26 
M 93.25 136.44 92.35 133.04 92.61 129.52 93.99 126.29 96.35 123.67 99.42 121.97 102.89 121.35 106.37 121.9 109.48 123.54 111.89 126.11 113.34 129.32 113.66 132.82 112.83 136.24 110.94 139.21 108.18 141.4 104.86 142.58 101.34 142.61 98 141.5 95.2 139.37 93.25 136.44 
M 93.12 136.14 92.42 133.59 92.31 132.27 92.58 129.64 93.49 127.15 94.98 124.97 96.96 123.22 98.1 122.54 100.59 121.63 103.22 121.36 104.54 121.47 107.09 122.17 
M 94.75 135.46 94.16 133.33 94.07 132.23 94.38 129.76 
M 96.82 125.62 98.91 124.11 100.98 123.35 103.18 123.12 104.28 123.21 106.41 123.8 
M 96.37 134.79 95.9 133.08 95.83 132.19 96.08 130.2 
M 98.13 126.8 99.72 125.67 101.38 125.06 102.26 124.92 104.03 124.95 105.74 125.42 
M 99.1 133.8 98.74 132.44 98.89 130.93 
M 100.24 128.8 101.57 128.02 102.95 127.77 104.35 127.99 105.59 128.65 106.55 129.67 107.13 130.96 107.26 132.36 106.93 133.73 106.17 134.91 105.07 135.79 103.74 136.26 102.33 136.27 101 135.83 99.88 134.97 99.1 133.8 
M 99.11 130.99 98.8 131.61 
M 101.95 127.95 101.04 129.78 
M 100.27 131.31 99.07 133.71 
M 103.34 127.83 101.87 130.75 
M 101.44 131.62 99.81 134.87 
M 104.53 128.08 102.76 131.63 
M 102.6 131.93 100.75 135.64 
M 105.57 128.64 101.84 136.11 
M 106.44 129.55 103.08 136.26 
M 107.1 130.88 104.55 135.97 
M 59.97 138.17 60.01 138.21 
M 61.44 134.35 64.9 137.81 
M 63.79 131.41 66.9 134.52 
M 66.76 129.1 70.87 133.21 
M 69.87 126.92 73.66 130.71 
M 73.15 124.91 78.04 129.8 
M 76.97 123.45 80.81 127.28 
M 80.69 121.88 85.31 126.49 
M 84.16 120.06 88.94 124.84 
M 87.31 117.92 91.04 121.65 
M 90.58 115.91 93.73 119.05 
M 93.88 113.92 97.43 117.47 
M 97.16 111.9 99.98 114.73 
M 100.64 110.1 103.84 113.3 
M 104.37 108.54 108.44 112.61 
M 108.09 106.97 111 109.89 
M 111.79 105.39 116.99 110.59 
M 115.67 103.98 118.96 107.27 
M 119.58 102.61 123.63 106.65 
M 123.56 101.3 128.67 106.4 
M 127.59 100.04 132.54 104.99 
M 131.69 98.85 134.95 102.11 
M 135.89 97.76 139.72 101.59 
M 140.17 96.75 143.29 99.87 
M 94.15 143.8 95.66 141.98 96.41 140.29 
M 132.77 129.88 131.57 128.52 130.41 126.51 130.29 125.9 130.4 124.41 129.98 120.67 
M 90.26 168.91 91.09 167.97 91.25 167.39 91.21 166.81 90.86 166.06 90.47 165.74 89.92 165.57 89.17 165.66 
M 122.15 116.91 122.42 118.19 123.08 119.16 124.21 119.79 126.03 120.32 
M 140.06 126.49 139.56 127.24 139.06 127.58 137.66 127.84 136.88 127.44 
M 138.03 141.49 136.15 141.64 134.28 142.53 131.1 144.92 129.65 145.82 128.52 146.92 128.12 147.02 
M 124.12 173.9 122.8 170.07 122.79 169.63 123.1 169.11 
M 93.5 171.46 92.91 169.28 92.4 166.51 92.03 165.97 90.96 165.44 
M 149.47 177.7 151.7 176.58 152.96 175.02 153.9 174.77 154.89 174.77 
M 126.24 151.85 125.68 150.64 125.42 149.64 125.42 148.71 125.88 147.46 125.9 146.93 
M 140.49 151.1 139.92 153.23 139.14 153.97 138.06 154.37 134.34 154.28 
M 114.03 175.73 112.32 176.72 
M 142.5 146.56 140.75 146.33 138.35 145.42 136.31 145.44 133.82 146.14 132.64 146.71 130.17 147.15 128.87 147.83 
M 92.62 140.1 92.67 139.38 91.97 138.58 
M 63.16 147.97 63.13 148.01 
M 102.31 155.51 101.85 155.92 100.82 156.14 100.17 156.11 97.94 154.7 96.39 153.3 
M 92.83 134.85 92.22 136.73 91.38 137.19 
M 120.84 160.74 119.8 162.27 119.98 163.5 
M 134.53 159.98 135.19 161.24 135.56 162.76 135.75 166.41 
M 114.12 125.8 113.43 126.75 112.52 127.5 
M 150.55 140.94 148.76 140.75 148.15 140.54 146.21 139.32 144.18 138.62 142.46 138.26 140.19 138.21 
M 148.39 162.71 148.98 162.93 150.72 164.57 152 166.29 152.12 167.23 
M 117.93 143.55 113.95 146.01 113.22 146.69 112.62 147.65 
M 67.89 137.73 69.85 137.38 71.97 137.89 72.52 137.86 74.13 137.41 75.18 136.78 
M 122.07 116.91 122.25 118.15 122.85 119.21 124.04 119.8 125.92 120.31 
M 135.67 119.41 135.84 113.48 135.72 112.39 135.1 110.8 
M 124.42 101.01 126.78 101.71 128.58 102.92 
M 100.21 166.49 96.98 164.68 95.81 164.2 93.85 164.12 93.21 164.34 91.92 165.23 90.66 165.24 
M 98.41 167.36 96.57 165.78 95.39 165.28 93.65 165.11 92.17 165.67 90.6 165.31 
M 110.28 107.17 109.97 106.63 
M 132.43 102.91 131.98 103.69 131.02 104.01 
M 90.71 150.22 89.85 148.53 89.24 147.83 89.21 147.49 91.73 145.76 
M 74.58 171.15 72.66 178.79 71.82 183.88 70.91 197.02 70.81 199.59 70.95 202.14 71.31 204.68 71.91 207.17 73.79 211.96 75.01 214.21 76.5 216.3 78.19 218.24 80.06 220 82.12 221.5 84.41 222.59 92.06 224.55 94.57 225.57 96.92 226.88 103.41 231.44 105.71 232.68 110.6 234.56 113.15 235.19 115.75 235.55 118.38 235.68 121 235.53 123.6 235.09 126.14 234.36 130.97 232.24 126.16 234.43 123.63 235.22 121.03 235.73 118.38 235.94 115.72 235.88 113.08 235.58 110.48 235.01 105.46 233.22 103.08 232.01 96.47 227.61 94.18 226.41 91.76 225.5 84 223.7 81.49 222.59 79.23 221.03 77.2 219.21 75.37 217.21 73.73 215.03 72.38 212.67 71.23 210.22 70.27 207.67 69.56 205.04 69.11 202.35 68.89 199.63 68.93 196.92 69.52 183.66 70.26 178.3 72.02 170.51 
M 74.67 171.36 74.37 171.97 
M 73.04 177.18 73.07 178.24 73.62 180.56 74.65 182.72 76.15 184.6 78.03 186.19 80.13 187.55 82.4 188.64 84.77 189.43 87.22 189.84 89.72 189.83 92.2 189.46 94.62 188.74 96.87 187.67 98.85 186.2 100.41 184.31 101.44 182.07 101.97 179.62 102.08 177.08 101.84 174.54 101.21 172.05 98.39 164.7 95.12 157.54 93.68 155.4 91.84 153.6 89.65 152.22 87.24 151.28 84.68 150.75 82.07 150.56 79.45 150.68 76.87 151.13 74.35 151.9 71.94 152.96 69.69 154.33 65.87 157.97 69.65 154.28 71.88 152.85 74.28 151.71 76.8 150.87 79.41 150.35 82.07 150.16 84.74 150.29 87.38 150.77 89.91 151.69 92.24 153.07 94.23 154.92 95.8 157.13 99.3 164.31 102.35 171.69 103.07 174.31 103.41 177.03 103.35 179.78 102.83 182.51 101.71 185.1 99.96 187.33 97.74 189.07 95.25 190.34 92.62 191.19 89.88 191.68 87.09 191.75 84.32 191.36 81.65 190.55 79.13 189.41 76.75 187.96 74.56 186.18 72.7 183.97 72 182.58 
M 70.57 176.86 70.52 175.65 71.12 172.77 71.87 171.12 
M 72.14 170.54 72.28 170.23 
M 75.17 171.32 74.84 173.86 74.85 176.32 75.22 178.74 76.02 181.03 77.23 183.18 78.71 185.19 80.46 186.99 82.42 188.64 
M 90.43 191.58 91.71 191.73 94.16 191.52 96.47 190.77 98.55 189.48 100.3 187.72 101.74 185.67 102.75 183.37 103.43 180.91 104.56 173.08 105.15 170.45 106.04 167.89 110.85 158.46 111.83 156.03 112.62 153.54 113.16 150.98 113.44 148.38 113.46 145.76 113.18 143.16 112.61 140.6 110.79 135.66 109.59 133.31 108.18 131.08 104.73 127.09 108.24 131.04 109.71 133.24 110.97 135.58 112.04 138 112.93 140.51 113.58 143.09 113.92 145.74 113.97 148.4 113.75 151.07 113.27 153.7 112.52 156.27 110.51 161.21 107.02 168.29 106.23 170.74 105.73 173.29 104.79 181.18 104.13 183.84 103.07 186.4 101.53 188.72 99.6 190.76 97.22 192.31 94.53 193.27 91.71 193.58 88.92 193.34 86.22 192.72 83.6 191.75 81.09 190.29 
M 81.58 165.69 82.15 166.36 
M 77.88 162.83 77.89 162.84 
M 74.24 159.3 74.19 159.99 74.59 159.63 
M 70.83 155.82 70.5 157.14 71.01 156.5 71.33 156.36 
M 67.52 152.35 67.08 152.97 66.81 154.29 67.43 153.36 68.14 152.99 
M 64.19 148.96 63.5 149.83 63.12 151.43 63.84 150.23 64.87 149.64 
M 60.85 145.59 59.92 146.7 59.42 148.58 60.26 147.1 61.52 146.32 
M 57.83 141.87 56.34 143.57 55.73 145.73 56.68 143.97 58.42 142.83 
M 81.55 165.69 82.45 165.75 
M 76.94 164.75 77.26 164.59 77.37 164.79 
M 72.25 164.15 72.94 163.48 73.08 164.27 
M 67.72 163.54 67.95 163.03 68.62 162.37 68.47 163.07 68.65 163.67 
M 63.23 162.9 63.49 162.15 64.3 161.27 64.02 162.19 64.19 163.04 
M 58.8 162.09 59.04 161.27 59.99 160.16 59.56 161.31 59.7 162.28 
M 54.32 161.4 54.58 160.39 55.67 159.06 55.11 160.42 55.23 161.51 
M 49.82 160.84 50.13 159.51 51.35 157.95 50.65 159.54 50.77 160.96 
M 45.32 160.3 45.67 158.63 47.03 156.84 46.2 158.66 46.31 160.38 
M 52.87 165.45 62.28 168.29 67.82 169.71 73.57 170.8 85.21 172.1 97.09 172.6 
M 80.81 169.61 79.82 170.39 
M 144.14 95.83 153.13 104.82 
M 149.1 93.74 154.83 99.47 
M 153.99 91.58 160.72 98.31 
M 158.75 89.29 168.42 98.96 
M 163.53 87.02 172.48 95.97 
M 168.32 84.76 173.64 90.08 
M 173.09 82.48 178.93 88.32 
M 177.86 80.2 187.58 89.92 
M 182.77 78.06 190.69 85.98 
M 187.82 76.06 195.11 83.35 
M 193.52 74.71 202.2 83.39 
M 199.22 73.36 206.7 80.84 
M 204.98 72.07 214.55 81.64 
M 211.08 71.12 219.15 79.19 
M 217.71 70.7 227.19 80.18 
M 224.53 70.47 231.26 77.19 
M 231.38 70.27 238.01 76.89 
M 238.36 70.19 245.46 77.29 
M 245.38 70.17 255.21 79.99 
M 252.82 70.56 262.58 80.32 
M 261.12 71.81 268.71 79.4 
M 270.37 74 280.84 84.47 
M 280.26 76.85 289.74 86.32 
M 292.11 81.65 299.39 88.92 
M 304.43 86.91 309.73 92.22 
M 316.72 92.16 326.28 101.72 
M 329.18 97.57 337.96 106.35 
M 342.9 104.23 351.96 113.29 
M 358.92 113.2 366.21 120.5 
M 205.5 71.26 205.88 72.01 
M 208.04 68.41 209.63 71.58 
M 210.51 65.41 213.38 71.15 
M 212.84 62.12 214.81 66.07 
M 214.97 58.45 216.94 62.4 
M 216.91 54.4 218.09 56.77 
M 218.66 49.99 219.85 52.35 
M 236.49 69.77 236.72 70.23 
M 237.58 64.03 240.67 70.2 
M 238.98 58.89 244.65 70.24 
M 239.32 51.64 248.74 70.49 
M 240.37 45.81 252.83 70.73 
M 241.33 39.81 256.93 71 
M 244.78 38.78 259.37 67.94 
M 247.9 37.07 260.11 61.51 
M 250.75 34.85 261.39 56.13 
M 254.94 35.29 263.22 51.85 
M 259.79 37.07 263.34 44.16 
M 287.77 77.17 289.47 80.56 
M 286.14 65.96 294.49 82.66 
M 287.13 60.01 299.53 84.82 
M 288.17 54.15 304.58 86.98 
M 288.05 46 306.83 83.55 
M 291.3 44.56 307.26 76.47 
M 296.54 47.1 308.36 70.74 
M 300.9 47.9 309.87 65.83 
M 310.78 59.73 311.58 61.33 
M 233.18 291.39 228.89 297.7 
M 233.18 291.39 233.69 297.7 
M 230.42 295.6 233.42 295.6 
M 237.08 291.39 235.19 297.7 
M 238.01 295.3 241.61 295.3 241.79 294.7 241.67 294.1 240.95 293.5 240.05 293.5 239.36 293.8 238.58 294.39 238.01 295.3 237.83 295.89 237.86 296.8 238.28 297.39 238.79 297.7 239.69 297.7 240.38 297.39 241.16 296.8 
M 247.28 294.39 246.86 293.8 246.35 293.5 245.45 293.5 244.76 293.8 243.98 294.39 243.41 295.3 243.23 295.89 243.26 296.8 243.68 297.39 244.19 297.7 245.09 297.7 245.78 297.39 246.56 296.8 
M 249.65 293.5 248.75 296.5 248.78 297.39 249.29 297.7 250.19 297.7 250.88 297.39 252.05 296.5 
M 252.95 293.5 251.69 297.7 
M 258.08 294.39 257.96 293.8 257.14 293.5 256.25 293.5 255.26 293.8 254.78 294.39 254.9 295 255.41 295.3 256.82 295.6 257.33 295.89 257.36 296.8 256.88 297.39 255.89 297.7 254.99 297.7 254.18 297.39 254.06 296.8 
M 267.38 291.39 265.49 297.7 
M 266.48 294.39 266.06 293.8 265.55 293.5 264.64 293.5 263.96 293.8 263.18 294.39 262.61 295.3 262.43 295.89 262.46 296.8 262.88 297.39 263.39 297.7 264.28 297.7 264.98 297.39 265.76 296.8 
M 269.14 293.5 268.25 296.5 268.27 297.39 268.79 297.7 269.69 297.7 270.38 297.39 271.55 296.5 
M 272.45 293.5 271.19 297.7 
M 275.77 291.39 274.25 296.5 274.27 297.39 274.79 297.7 275.39 297.7 
M 274.25 293.5 276.35 293.5 
M 278.45 293.5 277.55 296.5 277.58 297.39 278.08 297.7 278.99 297.7 279.68 297.39 280.85 296.5 
M 281.75 293.5 280.49 297.7 
M 286.88 294.39 286.76 293.8 285.95 293.5 285.05 293.5 284.06 293.8 283.58 294.39 283.7 295 284.2 295.3 285.62 295.6 286.13 295.89 286.16 296.8 285.68 297.39 284.69 297.7 283.79 297.7 282.98 297.39 282.86 296.8 
M 288.47 297.1 288.08 297.39 288.29 297.7 288.68 297.39 288.47 297.1 
"/></svg>
