<svg xmlns="http://www.w3.org/2000/svg" width="520" height="320"><rect x="0" y="0" width="520" height="320" fill="floralwhite"/><rect x="10" y="10" width="500" height="300" stroke="black" stroke-width="1" fill="none"/><path stroke="black" stroke-width="1" fill="none" stroke-linecap="round" stroke-linejoin="round" d="
M 122.8 118.16 130.96 114.44 140.47 110.39 150.21 106.96 179.88 98.03 190.04 96.11 200.3 94.92 220.89 93.28 231.22 92.91 241.55 93.12 251.85 93.84 262.11 95.09 282.42 98.86 312.6 105.9 322.48 108.93 332.12 112.63 360.83 124.29 398.86 140.47 408.79 144.87 
M 408.79 168.37 340.71 197.48 321.4 204.83 311.67 208.31 301.82 211.41 281.84 216.68 271.69 218.59 261.4 219.55 251.21 221.27 241.11 223.41 230.82 224.31 220.55 223.21 200.32 218.99 190.16 217.1 180.17 214.47 170.37 211.23 150.53 205.46 140.79 202 131.29 197.94 121.89 193.66 111.44 189.36 
M 149.72 144.87 153.53 144.55 
M 179.83 141.34 188.37 141.86 
M 192.29 141.86 195.98 141.73 
M 202.88 141.21 206.19 140.98 
M 219.27 140.79 227.72 139.9 
M 230.56 139.66 235.24 139.67 246.88 140.4 
M 250.19 140.65 251.79 140.74 254.51 140.51 256.92 139.96 258.24 139.88 
M 261.1 139.97 272.17 141.1 279.83 142.69 283.32 143.05 289.63 142.93 294.86 143.2 
M 302.45 144.16 304.35 144.4 311.06 144.58 317.91 145.07 327.88 146.01 334.92 147.21 341.6 148.07 349.31 148.41 
M 352.35 148.48 357.18 148.84 362.24 149.46 
M 365.69 149.96 374.32 151.12 384.25 151.9 394.6 153.1 398.18 153.65 402.18 154.61 405.83 155.75 
M 120.45 192.97 120.55 193.11 
M 120.36 179.64 122.39 183.13 
M 126.86 190.47 128.92 193.95 
M 130.56 197 130.97 197.79 
M 130.01 123.12 126.18 128.95 
M 129.15 179.23 131.22 182.96 
M 137.99 196.2 139.97 199.76 
M 136.63 125.21 134.56 128.02 
M 132.64 130.96 130.88 134.04 
M 137.02 175.61 138.29 178.23 
M 141.42 184.92 142.92 188.18 
M 146.23 194.98 147.71 198.17 
M 150.2 204.07 150.81 205.54 
M 149.44 118.63 145.07 124.14 
M 148.54 179.41 153.99 192.32 
M 157.18 199.16 158.47 202.26 
M 160.76 114.92 159.75 116.37 155.31 121.84 154.37 123.37 
M 150.89 129.79 149.22 133.07 
M 159.4 181.09 162.08 188.74 163.98 193.56 
M 165.39 196.9 167.92 203.29 
M 170.87 210.39 171.4 211.57 
M 170.69 114.48 169.95 116.18 168.09 119.23 167.04 120.64 
M 164.82 123.35 163.64 124.64 161.52 127.46 159.99 130.88 159.4 132.77 
M 158.24 136.56 156.83 141.31 
M 172.71 189.77 173.93 193.07 
M 175.09 196.28 176.82 201.08 179.01 206.45 
M 183.59 103.63 182.64 105.02 181.01 108.18 179.99 111.97 179.32 116.16 178.28 120 176.52 123.14 175.39 124.47 
M 171.18 130.15 170.32 131.76 168.29 137.18 
M 182.88 186.63 186.9 199.4 
M 188 202.68 190.49 210.99 191.24 213 
M 200.81 94.87 199.01 97.24 
M 193.84 105.57 192.16 108.59 
M 188.89 119.68 188.47 121.68 187.23 125.33 181.22 136.58 
M 196.32 193.45 198.37 200 
M 199.53 203.43 201.93 210.65 
M 204.44 218.41 204.92 219.92 
M 203 111.81 202 113.15 200.23 116.09 199.68 117.91 
M 196.72 129.39 195.36 132.91 
M 192.22 139.97 191.32 141.89 
M 202.69 180.8 205.26 188.39 208.71 197.79 
M 210.99 204.76 213.48 213.58 215.44 222.11 
M 219.77 99.6 218.57 102.61 
M 217.33 105.69 213.27 115.13 
M 211.75 118.22 209.43 122.9 208.02 126.23 203.01 138.92 
M 213.01 180.06 214.31 183.68 
M 215.82 187.73 218.28 195.17 
M 219.21 198.53 220.13 201.85 
M 222.2 208.87 223.7 214.34 223.92 215.95 
M 224.14 219 224.2 221.97 
M 226.65 104.9 224.08 111.05 
M 222.65 114.07 221.28 117.19 
M 220.08 120.54 216.7 131.07 
M 215.36 134.45 212.58 140.05 
M 224.95 184.47 225.96 188.03 
M 227.07 191.65 229.36 198.86 
M 232.07 208.96 232.43 210.61 233.01 218.05 
M 233.41 221.31 233.76 224.05 
M 234.75 108.4 226.94 124.82 225.17 129.9 
M 224.03 133.37 221.56 140.6 
M 232.44 176.9 233.64 180.67 
M 234.99 184.56 237.63 192.18 
M 240.21 201.99 240.97 205.18 
M 241.82 213.74 241.69 219.06 
M 241.83 221.61 241.93 222.74 
M 245.41 107 244.23 110.04 
M 242.81 112.89 241.24 115.6 
M 236.88 124.31 234.59 128.66 232.46 133.28 
M 230.86 137.27 229.96 139.7 
M 240.77 173.04 245.37 188.46 248.82 199.05 250.34 205.34 251.18 209.92 
M 251.54 212.8 251.8 215.62 
M 252.14 218.6 252.34 220.15 
M 255.91 102.12 253.76 108.4 
M 251.24 114.36 249.8 117.17 
M 246.87 122.81 245.67 125.92 
M 244.61 129.21 244.08 130.86 241.97 135.36 
M 240.45 138.43 239.7 140.05 
M 249.3 171.1 250.33 174.54 
M 251.56 178.18 252.88 181.88 
M 254.25 185.61 256.28 191.17 258.69 199.41 
M 259.64 202.71 260.56 206.02 
M 261.33 209.19 262.25 214.96 
M 265.14 100.61 264.28 101.92 263.71 103.5 
M 262.76 106.84 262.38 108.6 261.31 111.82 257.9 116.93 256.47 119.76 255.2 122.75 252.93 126.9 
M 251.53 129.79 250.92 131.33 250.08 137.89 
M 257.78 166.86 259.03 171.61 260.08 174.98 260.86 176.91 
M 262.6 180.95 265.39 187.18 267.06 192.31 
M 267.82 195.37 269.02 200.05 271.93 208.8 
M 272.94 212.15 274.32 218.1 
M 271.03 104.13 270 105.31 269.28 106.77 
M 266.47 116.96 264.22 123.26 
M 259.47 135.57 258.73 136.97 258.27 138.38 
M 266.53 163 267.72 165.74 269.7 171.04 
M 270.98 174.53 274.48 183.56 275.92 188.34 
M 276.83 191.49 277.77 194.7 
M 278.81 198.02 283.71 210.91 284.98 215.48 
M 281.78 103.59 279.8 106.13 
M 274.4 118.43 273.03 123.56 269.85 133.21 266.9 140.6 
M 275.04 159.95 277.45 165.06 
M 279.12 168.82 280.52 172.31 
M 281.91 175.79 285.61 184.77 290.7 198.61 294.03 208.65 295.01 213.24 
M 294.06 101.53 293.27 102.93 
M 290.21 109.15 288.71 112.23 
M 287.18 115.24 285.63 118.19 
M 282.8 124.23 281.03 129.01 280.03 132.34 278.58 139.48 277.51 142.24 
M 287.8 165.58 291.61 173.36 
M 293.57 177.33 296.09 182.89 300.7 195.95 302.92 202.62 305.17 210.36 
M 303.09 105.01 302.06 106.33 301.2 107.8 
M 299.59 110.84 296.23 118.96 295.03 122.28 291.81 132.46 289.17 138.62 287.78 142.99 
M 296.27 161.96 298.33 165.94 
M 300.43 169.98 303.28 175.8 309.26 190.11 310.46 193.5 312.39 199.94 314.25 207.39 
M 314.56 109.38 312.47 112 
M 306.45 124.55 303.26 132.71 299.82 140.38 
M 298.75 142.76 298.36 143.63 
M 304.2 156.11 309.14 166.92 
M 312.61 176.56 320 196.17 321.03 199.53 322.1 204.57 
M 323.45 121.49 314.47 133.56 312.75 136.43 311.28 139.49 309.27 144.56 
M 316.27 160.47 318.42 165.72 320.99 174.77 322.08 178.1 326.5 189.4 327.42 192.66 328.54 198.5 329.24 201.24 
M 329.76 131.68 326.81 135.86 322.35 140.79 320.44 143.52 319.51 145.2 
M 325.26 160.35 328.07 168.7 329.86 175.09 331.5 180.27 
M 332.86 183.99 334.72 189.41 336.7 196.93 
M 344.77 126.41 343.62 127.74 337.51 136.39 329.58 146.27 
M 335.58 162.15 337.15 167.19 338.62 173.39 340.24 178.61 
M 341.39 182.16 343.8 190.52 345.25 194.9 
M 355.9 126.84 353.3 129.29 
M 350.85 131.89 349.67 133.23 347.56 136.17 344.8 140.92 
M 342.84 143.93 339.97 147.91 
M 342.93 156.45 343.43 158.09 344.63 163.97 345.61 167.32 347.76 173.07 
M 349.16 176.86 349.8 178.7 353.34 191.13 
M 365.2 130.93 360.88 134.34 358.39 137.01 354.01 142.91 350.52 147.04 
M 352.54 159.53 356.58 170.59 
M 357.85 174.19 359.98 180.91 
M 361.25 184.88 362.04 187.25 
M 372.44 138.51 367.57 141.49 364.53 143.69 358.98 149.02 
M 364.25 164.18 366.42 169.64 371.58 181.18 372.57 183.9 
M 381.44 142.7 378.28 144.8 
M 371.31 149.09 369.36 150.5 
M 371.34 155.41 372.58 158.61 
M 373.89 161.87 376.24 167.11 380.11 174.73 382.25 179.8 
M 329.34 191.39 329.66 189.96 330.5 188.17 330.88 187.67 332.5 186.87 333.93 186.7 334.73 186.85 
M 208.28 143.64 206.41 143.65 206.01 144 205.74 144.57 
M 247.97 221 250.02 218.8 250.71 218.65 251.27 218.76 
M 194.13 139.76 193.97 141.03 193.5 141.52 192.46 142.05 189.94 142.31 
M 312.12 146.12 311.77 145.71 310.41 144.76 309.04 144.3 
M 263.67 119.81 262.86 118.47 261.78 117.13 257.65 113.33 256.75 112.05 256.59 111.56 
M 322.52 166.75 321.31 167.67 320.14 168.21 318.32 168.4 
M 262.06 119.42 260 116.28 257.53 113.64 256.64 112.25 256.53 111.33 
M 294.17 122.26 292.7 122.57 291.64 122.46 290.65 121.7 290.04 120.78 
M 300.9 138.16 301.77 136.65 302.75 135.55 303.36 135.12 304.12 134.88 305.68 134.8 306.38 134.51 307.26 133.93 307.57 133.29 
M 191.87 145.3 191.14 144.37 
M 225.01 130.77 223.98 130.68 223.28 130.81 221.67 131.95 221.05 132.1 220.61 131.96 
M 256.6 183.85 255.7 182.91 252.06 180.55 250.2 179.8 249.09 179.96 
M 400.94 149.32 400.16 151.84 399.72 152.64 398.84 153.62 398.76 154.19 
M 268.36 199.68 267.6 199.78 264.48 199.5 263.73 199.65 262.98 200 261.73 200.94 260.98 202.06 260.96 202.65 
M 296.47 159.85 296.85 158.98 297.51 158.46 298.43 158.33 298.96 158.67 
M 248.03 207.78 249.51 209.26 249.75 209.35 250.31 209.17 250.89 208.6 251.93 206.96 252.51 205.49 252.65 204.62 
M 151.24 202.6 152.25 202.73 153.5 203.25 155.87 204.72 156.69 205.34 159.11 207.75 
M 227.57 210.88 226.72 211.16 225.65 211.23 223.07 212.35 222.15 212.49 220.58 212.47 
M 264.3 141.89 264.94 141.53 265.82 141.36 267.91 141.55 268.5 141.91 268.65 142.46 268.57 142.8 
M 187.82 135.52 184.99 134.71 181 134.79 179.29 134.6 176.68 133.71 174.91 132.78 
M 158.93 142.76 157.11 142.87 156.27 143.13 155.71 143.49 155.25 144.28 155.38 145.39 154.86 146.63 
M 249.19 113.01 249.79 111.6 250.26 111.12 251.51 110.75 254.62 110.32 255.59 109.61 
M 278.39 204.04 277.29 202.85 276.65 202.49 275.52 202.42 273.18 202.62 272.54 202.37 271.63 201.64 
M 343.26 125.3 344.61 122.76 346.3 120.73 347.39 119.94 348.42 119.46 
M 223.17 141.55 221.94 141.4 221.26 141.04 220.72 140.4 219.85 138.46 217.17 134.76 217.1 134.23 
M 224.76 124.78 223.81 126.25 223.35 126.48 222.87 126.32 
M 307.39 169.43 306.24 167.59 305.76 165.46 
M 281 173.98 281.9 174.49 282.44 173.69 
M 371.74 151.05 370.12 150.64 369.04 150.8 368.01 150.74 367.41 150.59 366.53 150.1 
M 202.88 94.65 204.07 92.69 206.11 84.84 208.05 79.84 209.18 74.63 209.5 72.44 210.67 70.67 211.49 68.52 212.35 62.67 213.08 60.12 217.26 56.88 219.51 56.2 221.51 54.83 223.15 52.98 225.51 47.36 226.63 46.02 228.84 44.63 229.97 42.18 232.48 39.66 234.74 37.09 236.75 35.93 238.21 34.3 243.68 30 242.87 37.43 243.23 39.41 242.95 40.76 242.27 42.16 242.7 44.87 243.79 48.06 246.65 54.78 246.79 56.68 247.95 59.15 249.41 61.52 250.6 64.25 250.24 66.33 254.25 69.76 257.46 72.05 258.39 74.19 258.57 78.31 260.42 80.89 261.18 83.53 261.56 86.07 263.97 89.59 269.1 94.65 271.5 96.8 
M 271.52 96.8 271.52 96.8 
M 207.15 94.31 207.93 92.09 209.19 86.76 210.71 82.07 211.28 79.63 211.68 74.63 212.74 72.46 214.13 70.56 215.04 67.87 215.47 65.68 216.46 63.2 219.92 58.36 221.64 57.99 224.48 56.71 226.65 54.58 227.68 51.28 228.07 49.29 
M 211.41 93.98 212.48 91.85 213.91 87.16 214.17 84.51 214.01 79.17 214.87 76.51 216.14 73.92 217.71 72.06 218.92 69.26 219.19 67.4 220.31 64.85 220.81 62.36 221.98 59.86 223.68 59.12 226.44 58.37 230.23 54.81 231.88 52.08 232.38 50.13 233.71 49.77 
M 215.68 93.65 216.83 91.66 217.76 89.36 218.05 86.97 217.93 84.02 218.69 78.72 219.88 76.47 221.84 71.66 224.14 67.02 224.81 64.91 
M 219.95 93.35 221.14 91.4 222 89.36 222.27 86.55 222.31 83.78 222.61 81.47 222.92 79.72 224.59 74.54 225.98 71.81 227.29 69.66 229.03 65.74 230.83 64.58 235.51 60.67 237.6 57.14 239.76 55.21 242.16 53.76 
M 224.21 93.05 225.26 91.3 225.7 88.91 226.31 83.6 227.16 81.87 227.95 78.96 228.78 77.18 232.25 71.35 233.07 68.74 234.71 67.04 
M 228.49 92.93 229.59 91.26 229.96 88.7 231.15 83.96 232.66 79.62 234.02 76.7 235.42 75.27 240.59 68.94 
M 232.77 92.91 233.74 90.97 234.44 88.59 234.54 86.49 235.52 83.9 235.86 81.45 236.63 78.96 238.19 77.78 239.84 76.01 242.66 73.5 244.45 71.35 245.49 69.63 
M 237.05 92.89 238.31 91.06 239 84.33 240.02 81.97 243.15 78.52 245.99 76.01 249.57 74.11 
M 241.32 93.1 241.74 91.66 241.88 89.49 242.57 87.72 243.26 85.21 
M 245.59 93.33 246.49 92.36 247.34 88.12 248.33 86.41 
M 249.86 93.63 250.92 92.69 251.62 90.74 
M 254.12 94.08 255.03 93 255.86 91.07 257.14 89.18 259.04 86.97 
M 258.37 94.54 261.93 91.94 
M 262.6 95.18 265.54 94.84 
M 266.81 95.95 266.82 95.95 
M 126.02 153.7 139.44 151.6 141.91 151.42 149.85 150.29 155.25 149.11 160.52 148.55 165.58 148.22 168.04 147.78 170.87 147.59 173.16 147.2 175.27 147.24 177.78 147.04 183.45 145.99 185.98 145.82 188.72 145.26 193.76 145.34 196.36 144.96 204.56 144.81 208.87 144.04 217.04 144.16 219.45 144.44 222.16 144 230.02 143.82 235.75 144.69 238.39 144.81 243.08 144.59 252.61 146.07 257.82 145.99 260.85 146.37 263.05 146.9 265.58 146.32 273.65 147.01 281.27 146.99 284.19 147.24 286.44 147.1 288.53 147.54 295.41 147.48 297.8 147.86 277.83 158.86 273.06 160.7 270.45 161.4 263.31 164.18 261.14 165.31 256.53 167.32 252.16 169.59 249.72 170.47 244.23 171.61 241.96 172.66 237.08 174.29 232.5 176.08 224.58 177.71 222.08 178.39 219.85 179.34 214.95 179.95 207.37 180.58 199.42 180.85 191.02 180.71 188.74 181.19 186.04 181.23 183.55 181.5 181.28 181.98 179.06 182.14 168.29 180.86 163.37 180.68 157.72 179.49 155.33 179.27 153.22 179.34 143.86 177.96 126.41 171.96 122.54 170.12 
M 125.68 155.65 139.75 154.26 149.7 153.06 158.34 152.44 163.55 151.84 168.09 152.32 170.63 152.14 173.31 152.38 178.19 152.09 180.99 151.38 186.88 151.22 189.27 151.43 193.75 151.3 204.9 152.14 
M 125.48 157.48 131.84 157.07 137.22 157.02 147.82 156.32 152.71 156.42 161.19 155.82 163.61 156.03 168.73 156.94 178.97 156.68 193.96 157.97 200.19 158.8 202.71 158.82 207.85 159.32 210.45 159.41 213.09 159.91 
M 125.61 159.28 134.68 159.13 139.84 159.6 147.99 159.35 155.74 159.84 161.56 160.55 169.32 161.26 174.01 161.14 176.59 161.39 178.91 161.89 
M 125.7 161.09 135 161.15 142.68 162.5 150.56 162.74 153.2 162.95 155.99 163.78 161.68 164.95 164 165.15 169.14 166.07 176.64 167.1 181.91 168.68 183.88 168.98 
M 125.37 162.91 129.73 163.49 132.53 163.29 134.96 163.49 137.64 163.94 142.73 165.56 147.9 166.38 150.73 166.03 153.26 166.38 155.75 167.1 161.3 169.07 163.44 169.5 165.79 170.69 168.73 171.28 173.84 173.02 176.99 173.78 
M 124.98 164.85 129.63 165.69 132.51 165.74 135.05 166.28 139.74 167.97 142.73 168.81 147.65 169.91 150.33 170.07 152.58 170.6 
M 124.37 166.57 126.73 167.23 129.68 167.72 132.42 168.39 134.77 169.62 137.16 170.35 144.95 173.4 149.5 174.45 152.24 175.47 157 177.65 
M 123.72 168.35 129.78 170.13 132.17 171.42 134.53 173.12 136.78 174.15 
M 168.56 210.63 176.37 221.7 178.34 223.86 181.17 226.18 182.54 228.39 183.39 230.41 184.97 232.48 187.67 233.48 190.46 236.16 190.97 238.36 191.16 241.46 188.61 246.28 186.55 250.84 183.76 254.98 182.2 256.86 181.8 262.56 181.95 266.22 179.91 267.77 177.17 268.61 176.05 271.13 174.22 272.92 171.92 274.25 170.97 275.4 163.36 280 163.41 277.92 162.02 274.54 161.79 272.77 163.35 267.76 163.9 263.61 163.59 259.67 163.2 258.03 163.68 254.84 162.95 252.33 163.06 248.8 162.58 245.93 160.61 237.99 160.37 235.87 160.66 233.18 160.1 230.91 159.61 227.88 159.67 223.13 158.98 216.97 158.07 210.9 157.12 207.4 
M 166.91 210.16 170.43 215.77 172.27 218.12 173.26 221.25 175.63 223.75 178.27 225.96 180.26 228.61 181.4 233.4 
M 165.27 209.7 168.43 215.45 170.84 220.65 172.31 223.31 174.58 225.54 176.53 228 177.65 230.45 
M 163.62 209.23 165.28 212.59 168.15 220.15 170.1 222.89 172.47 227.76 173.46 230.29 175.19 235.64 175.44 238.33 176.41 240.5 179.76 244.44 180.82 247.23 181.62 250.72 182.66 253.58 183.32 255.96 
M 161.97 208.77 165.51 217.74 166.97 222.98 168.55 224.93 169.71 227.24 170.98 234.04 171.78 236.36 174.23 239.84 174.47 241.71 175.25 244.23 176.75 247.97 176.97 251.54 176.74 255.16 177.34 257.97 178.77 260.25 181.03 262.98 
M 160.33 208.3 163.51 217.86 164.2 223.05 165.35 225.26 166.31 227.74 166.73 230.85 168.27 236.61 169.38 239.2 
M 158.68 207.84 159.88 211.43 160.54 214.67 161.33 217.49 162.66 226.12 162.73 228.38 163.31 231.28 164.74 235.95 164.52 237.78 164.88 239.83 165.99 243.24 166.53 245.69 166.64 248.51 167.05 251.06 168.44 256.51 168.36 258.79 169.01 261.26 169.36 264.28 171 267.07 
M 340.16 197.71 344.91 201.5 347.06 204.7 347.83 206.3 345.33 208.43 342.63 209.08 340.88 210.94 338.73 212.42 334.74 215.59 332.82 216.62 330.37 217.01 328.26 217.98 325.71 218.54 323.27 219.63 321.79 221.75 319.5 223.03 317.19 224.06 313.72 224.09 311.42 225.35 310.24 227.8 306.22 231.03 303.41 231.05 301.44 232.6 301.41 235.89 300.5 238.6 298.47 240.2 295.95 241.29 292.14 244.7 287.73 247.51 287.01 249.3 281.43 252.11 280.46 250.74 278.27 246.77 275.57 244.45 273.98 242.2 272.54 239.57 270.45 236.5 265.75 227.82 264.02 225.12 260.08 219.67 
M 336.16 199.24 340.65 203.29 
M 332.16 200.77 339.25 208.58 
M 328.17 202.3 333.5 207.09 
M 324.16 203.8 328.5 208.83 
M 320.15 205.3 322.93 210.24 
M 316.13 206.77 321 214.24 
M 312.09 208.17 315.47 212.42 318.64 214.4 321.21 216.66 
M 308.05 209.57 311.22 213.87 314.66 216.17 
M 303.96 210.83 309.48 216.66 312.58 219.07 315.52 221.64 
M 299.83 211.94 302.8 215.64 305.75 217.45 
M 295.7 213.05 298.9 217.47 301.25 219.75 303.11 221.83 
M 291.56 214.16 296.46 221.02 298.98 223.79 301.37 225.92 
M 287.43 215.27 290.31 218.78 295.57 224.4 297.13 226.75 298.21 229.02 
M 283.3 216.37 286.43 220.03 290.68 223.97 292.56 226.89 
M 279.1 217.19 282.25 220.51 288.26 227.42 293.14 237.21 295.47 238.69 
M 274.89 217.99 277.94 221.18 279.69 223.62 281.43 226.5 286 230.93 287.63 234.38 288.02 238.7 
M 270.67 218.7 273.21 221.9 274.81 224.33 279.02 229.36 280.31 232.98 281.48 235.09 283.07 237.39 285.43 239.99 287 242.65 288.37 244.58 
M 266.41 219.09 268.79 222.19 271.29 227.39 273.91 230.08 276.21 233.17 277.42 236.56 279.08 239.38 280.92 240.83 282.81 243.35 
M 408.79 144.87 411.58 144.52 414 143.27 418.45 140.61 425.8 137.32 429.72 133.88 431.66 133.46 434.44 133.59 439.55 129.5 441.03 127.47 443.53 125.66 445.45 124.81 447.86 124.36 449.9 122.4 451.9 121.12 456.02 117.85 459.17 117.15 470.19 116.4 470.98 117.85 475.19 123.37 476.15 128.2 476.09 130.47 474.99 132.34 473.02 133.94 471.38 135.89 470.38 138.46 468.9 140.5 468.31 143.45 467.46 146.13 466.26 148.46 464.76 150.52 462.72 152.06 461.22 154.14 460.45 156.93 458.92 158.93 457.24 160.55 458.56 164.55 465.18 170.01 467.89 172.47 473.38 179.47 474.33 182.01 475.88 187.26 477.37 190.61 477.19 193.22 476.1 195.05 475.99 197.86 474.39 199.84 472.39 201.47 470.16 204.66 458.28 206.34 455.57 204.3 450.3 198.22 447.67 195.86 441.92 193.25 438.96 190.21 436.46 189.24 427.02 183.49 423.62 179.63 419.75 176.01 417.35 174.32 414.7 172.72 408.79 168.37 
M 408.79 146.54 411.73 146.13 414.05 145.44 419.18 143.09 423.37 140.57 425.43 139.86 428.81 138.27 431.58 136.71 435.55 136.56 437.93 135.42 440.95 133.69 443.5 131.55 445.64 130.25 447.77 128.67 449.51 128.01 454.25 125.76 
M 414.56 147.3 416.87 146.61 425.76 142.67 432.59 140.26 435.66 139.34 437.8 138.22 440 138.47 442.37 137.2 444.76 136.14 447.76 135.36 449.88 134.57 450.83 133.26 455.31 130.97 460.84 128.42 464.1 127.11 466.64 126.89 468.55 126.04 471.18 124.3 473.68 124.13 
M 408.79 149.9 412.05 149.75 417.32 148.94 422.66 146.94 424.91 146.47 427.25 145.73 433.19 143.6 435.98 142.94 440.27 141.37 442.14 142.04 444.73 141.39 447.46 140.07 449.7 139.7 451.51 139.21 453.94 138.13 
M 408.79 151.58 411.97 151.91 417.63 151.5 420.29 150.9 425.74 148.94 428.26 148.58 431.09 148.6 434.41 148.06 436.83 147.08 439.12 146.56 441.2 146.64 444.02 147.29 445.5 146.54 447.91 146.35 450.17 145.64 452.87 145.08 455.54 142.98 459.4 142.03 462.61 140.82 464.57 140.83 467.07 140.45 
M 411.89 154 415.15 154.16 420.68 153.77 426.4 151.56 429.01 152.12 435.4 152.68 438.2 152.6 440.38 152.07 446.22 151.28 449.59 149.43 452.31 148.88 
M 412.08 155.86 418.23 156.56 420.84 156.36 426.35 154.85 429.28 154.81 432.18 155.17 435.61 156.35 437.91 155.95 439.91 156.02 443.1 156.56 446.14 156.75 450.89 154.9 454.29 155.5 
M 418.17 158.85 423.47 158.41 429.1 158.23 435.09 159.14 437.92 159.91 440.23 160.84 446.08 161.23 449.1 161.99 453.24 162.31 455.91 162.77 
M 418.14 161.2 423.61 161.55 426.7 161.48 429.05 161.71 431.93 162.47 434.3 163.93 437.34 163.91 
M 408.79 159.97 412.07 161.72 420.99 164.03 423.41 164.4 425.9 165.36 428.26 165.32 431.02 166.06 433.79 167.38 436.58 167.94 440.15 168.1 
M 411.95 163.52 418.39 165.41 423.02 167 424.98 168.07 433.75 170.77 436.74 171.92 439.58 171.57 442.1 172.15 445.01 173.35 447.45 173.62 450.37 174.55 
M 415.13 166.51 418.42 167.55 425.08 171.15 427.81 172.13 431.22 172.87 436.85 175.09 440.4 176.23 443.16 177.72 446.18 178.49 449.19 179.48 452.52 180.11 454.57 180.89 456.71 181.15 
M 417.95 170.1 420.34 171.19 422.61 172.45 424.99 174.38 427.54 175.49 430.28 176.21 433.02 177.47 437.66 179.3 439.37 180.08 442.64 181.97 445.31 183.11 449.52 183.96 455.22 186.37 456.37 187.73 459.77 190.57 462.76 191.21 
M 411.85 169.02 420.09 173.62 424.59 176.98 426.97 178.2 429.27 180.07 431.8 181.45 434.39 182.45 436.7 184.5 439.43 185.67 
M 305.84 104.26 311.35 109.34 319.33 92.99 324.71 93.38 328.08 94.27 330.63 93.55 333.47 93.54 335.61 93.3 338.12 93.47 343.25 94.35 345.81 96.17 348.01 96.92 349.9 96.19 355.01 95.06 357.25 93.95 362.24 96.7 366.14 99.97 368.45 101.6 371.66 102.8 374.1 103.2 375.78 104.07 377.66 105.78 378.38 107.8 378.07 109.77 378.38 111.62 380.1 113.19 380.81 115.53 382.74 120.26 378.51 132.59 374.47 130.08 
M 309.99 105.27 313.05 104.33 314.74 102.6 316.18 98.54 
M 314.15 106.28 317.2 105.24 319.91 101.53 324.21 97.32 
M 318.28 107.4 321.07 106.15 323.33 103.98 324.81 101.69 327.55 100.17 330.16 97.66 331.36 96.03 331.79 94.77 
M 322.3 108.87 325.34 107.75 327.34 106.38 329.42 104.82 331.52 102.52 333.78 100.97 335.66 98.74 337.13 94.32 
M 326.32 110.33 329.8 109.61 331.76 108.56 333.72 106.94 336.06 104.35 337.87 101.89 339.03 99.87 340.86 97.42 342.4 96.05 
M 330.31 111.87 333.61 110.99 335.61 109.47 337.24 108.09 339.31 105.4 340.94 102.48 342.77 100.55 345.56 99.95 
M 334.26 113.52 337.13 112.63 340.82 108.54 343.25 106.2 345.03 105.18 346.89 105.01 348.47 104.05 349.91 102.71 351.25 100.45 
M 338.22 115.16 340.99 114.05 345.19 110.39 349.59 107.48 351.05 106.27 352.46 105.05 356.05 99.89 
M 342.17 116.78 344.55 115.42 347.9 111.78 350.22 110.02 352.97 109.42 354.5 108.56 358.7 103.47 
M 346.14 118.39 348.46 117.25 352.52 113.65 354.84 111.88 357.34 111.29 358.96 110.18 360.46 108.32 361.65 105.6 362.88 103.27 363.87 100.79 
M 350.1 120 353.11 119.1 356.77 114.87 358.87 113.21 
M 354.07 121.6 357.08 120.74 359.32 119.08 364.23 116.47 365.38 114.44 
M 358.05 123.18 360.77 122.38 363.21 120.96 367.83 118.62 369.72 116.89 371.21 114.53 
M 362.02 124.77 366.53 122.14 369.71 120.72 
M 365.96 126.43 368.97 125.85 370.9 124.67 373.79 122.47 376.82 121.16 378.69 119.33 380.09 116.66 
M 369.9 128.12 373.86 127.29 376.47 125.64 
M 47.97 155.12 50.33 152.65 56.4 147.6 60.95 144.33 65.83 141.18 70.85 138.48 76.31 136.09 87.57 130.41 104.16 123.2 109.48 121.23 114.18 119.76 118.12 118.8 121.14 118.29 122.8 118.19 123.63 122.17 124.02 126.08 126.98 138.07 128.07 145.92 127.66 149.7 126.1 153.29 125.44 157.02 125.74 160.91 125.05 164.64 123.77 168.27 121.45 171.73 120.14 175.36 119.25 179.06 117.73 182.65 115.64 186.16 111.44 189.24 103.96 188.72 98.4 187.88 93.33 186.77 88.73 185.54 84.47 184.12 75.88 180.52 71.73 178.47 67.8 176.22 
M 64.27 174.03 56.83 169.58 54.22 167.49 52.07 165.14 50.53 163.08 
M 109.88 143.68 109.39 146.91 107.56 149.88 106.33 152.83 105.86 155.68 104.7 158.1 103.43 160.15 101.72 161.94 101.2 163.9 101.43 166.07 101.46 168.25 101.24 170.66 99.35 173.18 91 173.05 83.96 172.59 80.47 172.03 76.82 170.97 73.11 169.47 
M 64.71 174.38 59.13 169.98 55.75 167.05 50.74 163.22 45.38 159.45 44.45 157.37 45.37 155.34 47.45 154.8 49.35 155.95 52.53 158.93 58.39 165.25 61.3 168.65 68.12 175.89 
M 67.67 176.58 57.41 174.02 53.37 172.87 44.76 170.87 42.94 169.71 42.62 167.64 44.05 165.93 46.42 165.85 54.33 169.28 64.05 174.07 67.98 175.82 
M 86.02 151.12 84.28 148.69 83.43 145.83 83.55 142.84 84.64 140.06 86.57 137.78 89.14 136.25 92.06 135.64 95.02 136.01 97.71 137.32 99.82 139.43 101.13 142.12 101.5 145.08 100.89 148 99.36 150.57 97.08 152.5 94.3 153.59 91.31 153.71 88.45 152.86 86.02 151.12 
M 98.34 140.49 99.39 142.63 99.69 145.01 99.2 147.34 97.97 149.4 96.15 150.94 93.92 151.81 91.54 151.91 89.25 151.23 87.3 149.84 
M 89.23 146.63 88.53 145.66 88.19 144.51 88.24 143.32 88.67 142.21 89.45 141.29 90.47 140.68 91.64 140.44 92.83 140.59 93.9 141.11 94.75 141.96 95.27 143.03 95.42 144.21 95.17 145.38 94.56 146.41 93.65 147.18 92.54 147.62 91.34 147.67 90.2 147.33 89.23 146.63 
M 88.89 146.05 90.07 147.23 
M 90.42 145.28 92.7 147.55 
M 90.32 142.87 94.19 146.73 
M 92.46 142.69 95.16 145.4 
M 93.92 141.84 95.29 143.22 
M 48.15 154.9 48.96 155.71 
M 50.7 152.32 54.29 155.91 
M 53.46 149.95 56.93 153.42 
M 56.31 147.66 60.11 151.46 
M 59.3 145.51 63.08 149.3 
M 62.35 143.43 65.03 146.11 
M 65.47 141.41 68.17 144.12 
M 68.78 139.59 72.86 143.67 
M 72.21 137.89 75.8 141.47 
M 75.78 136.32 78.44 138.99 
M 79.19 134.6 82.63 138.04 
M 82.59 132.86 87.16 137.43 
M 86.03 131.17 89.07 134.22 
M 89.56 129.57 93.87 133.88 
M 93.17 128.05 95.79 130.66 
M 96.69 126.43 101.83 131.56 
M 100.25 124.86 104.96 129.57 
M 103.86 123.33 106.5 125.97 
M 107.59 121.93 112.07 126.4 
M 111.42 120.62 115.98 125.18 
M 115.4 119.46 118.8 122.86 
M 119.61 118.55 121.71 120.64 
M 94.1 127.63 94.41 128.44 95.35 129.47 95.46 130.09 
M 113.95 130.71 114.56 132.05 115.14 132.7 116.51 133.67 117.21 133.95 119.01 134.21 119.88 133.76 121.42 132.62 
M 84.13 141.38 83.49 141.08 83.47 140.62 
M 110.35 139.32 108.08 139.8 103.6 141.18 100.95 141.76 
M 75.88 136.37 76.09 136.19 
M 77.48 135.48 78.12 135.59 
M 113.44 133.84 114.58 135.37 115.47 135.82 118.11 135.92 119.77 135.01 
M 84.12 132.11 85.59 134.56 
M 82.37 132.97 83.32 133.89 83.9 134.21 85.54 134.64 
M 86.6 132.92 86.37 134.21 86.11 134.57 85.72 134.76 
M 70.04 155.06 69.68 154.59 
M 92 128.54 92.81 130.57 93.04 133.48 
M 111.53 180.89 112.71 184.01 113.36 185.26 113.62 186.3 113.51 187.14 112.66 188.12 
M 80.98 146.6 79.26 143.25 79.33 142.53 79.91 142.22 
M 80.64 163.04 80.15 162.78 79.76 162.33 78.16 159.55 76.73 158.3 75.9 158 75.2 157.98 74.25 158.22 
M 121.38 118.57 121.42 118.27 
M 97.63 158.67 97.1 157.34 96.89 154.98 97.91 152.87 98.54 152.39 
M 107.34 170.78 108.16 170.11 108.41 169.72 109.51 165.1 110.45 162.63 
M 83.44 145.51 82.01 143.89 81.59 143.16 81.57 142.79 
M 104.19 182.04 106 185.29 106.65 186.95 106.81 187.86 106.51 188.9 
M 94.78 157.27 94.59 155.34 95.09 153.28 
M 74.61 160.47 73.91 159.46 73.23 158.81 72.38 158.54 
M 61.31 172.13 61.18 172.19 
M 65.31 152.5 66.78 148.59 66.86 147.3 67.04 146.77 67.75 145.05 68.32 144.25 
M 112.77 143.04 110.9 143.99 107.56 144.96 105.72 145.16 103.17 144.95 
M 83.44 145.7 82.22 144.37 
M 99.59 152.34 99.84 151.8 
M 101.84 166.66 100.67 166.54 97.92 167.54 96.27 167.4 95.31 167.64 
M 123.64 133.38 123.76 130.29 123.5 128.76 122.48 126.71 121.66 124.48 120.33 122.4 
M 63.98 145.91 64.77 143.06 64.78 142.44 64.6 141.97 
M 78.4 181.62 80.07 180.9 80.58 180.83 82.14 181.3 83.22 181.85 
M 78.18 165.27 78.96 164.62 79.73 164.54 80.6 165.31 80.76 165.72 80.72 166.2 
M 84.33 174.85 85.51 173.83 86.8 171.33 86.94 170.57 86.75 170.22 86.4 170.13 
M 77.41 149.68 76.9 149.08 76.24 148.98 73.86 149.74 73.08 150.23 
M 99.62 138.43 99.06 138.67 
M 51.07 157.62 50.2 155.13 49.01 153.98 
M 108.52 125.97 107.35 123.26 106.69 122.27 
M 60.85 156.24 61.59 154.69 62.46 153.82 63.4 153.2 63.65 152.83 64.85 150.02 
M 97.25 134.22 96.9 135.58 96.29 136.63 
M 116.77 179.03 117.43 180.27 117.82 180.64 118.48 180.87 
M 81.09 141.66 82.72 141.1 83.66 140.38 
M 113.99 125.34 115.59 124.75 117.88 123.53 118.33 122.84 118.37 122.21 
M 122.58 119.69 122.63 118.2 
M 51.19 172.34 55.51 174.87 59.24 176.6 63.24 178.09 67.46 179.37 80.19 182.4 
M 75.77 181.37 76.4 180.86 
M 54.65 173.25 54.87 174.51 
M 123.68 122.7 126.28 125.3 
M 125.01 117.18 135.03 127.2 
M 129.7 115.02 139.39 124.72 
M 134.39 112.87 140.71 119.19 
M 139.26 110.89 146.91 118.54 
M 144.12 108.9 152.83 117.62 
M 149.28 107.22 158.01 115.95 
M 154.59 105.69 162.78 113.87 
M 159.88 104.12 168.25 112.5 
M 165.13 102.54 171.14 108.54 
M 170.38 100.94 178.65 109.21 
M 175.63 99.34 181.79 105.5 
M 180.95 97.82 187.1 103.96 
M 186.72 96.73 195.81 105.83 
M 192.56 95.73 198.14 101.31 
M 198.75 95.08 205.6 101.92 
M 205 94.48 212.02 101.5 
M 211.35 93.98 216.83 99.46 
M 217.72 93.51 224.75 100.54 
M 224.11 93.06 233.61 102.55 
M 230.82 92.91 237.12 99.22 
M 237.66 92.91 242.96 98.21 
M 244.89 93.29 255.13 103.54 
M 252.33 93.89 261.1 102.66 
M 260 94.71 266.59 101.31 
M 268.36 96.23 274.48 102.35 
M 276.77 97.79 285 106.02 
M 285.34 99.51 291.16 105.33 
M 294.25 101.58 299.55 106.88 
M 303.16 103.64 310.58 111.06 
M 312.15 105.79 320.86 114.5 
M 321.95 108.74 328.94 115.73 
M 333.07 113.02 339.44 119.38 
M 344.71 117.81 351.19 124.29 
M 356.18 122.44 362.22 128.48 
M 367.81 127.22 373.97 133.38 
M 379.82 132.38 385.2 137.76 
M 391.73 137.45 399.01 144.73 
M 403.77 142.64 407.7 146.58 
M 219.38 291.39 215.09 297.7 
M 219.38 291.39 219.89 297.7 
M 216.62 295.6 219.62 295.6 
M 226.58 291.39 224.69 297.7 
M 225.68 294.39 225.26 293.8 224.75 293.5 223.85 293.5 223.16 293.8 222.38 294.39 221.81 295.3 221.63 295.89 221.66 296.8 222.08 297.39 222.59 297.7 223.49 297.7 224.18 297.39 224.96 296.8 
M 228.68 291.39 228.89 291.7 229.28 291.39 229.07 291.1 228.68 291.39 
M 228.35 293.5 227.09 297.7 
M 233.78 294.39 233.36 293.8 232.85 293.5 231.95 293.5 231.26 293.8 230.48 294.39 229.91 295.3 229.73 295.89 229.76 296.8 230.18 297.39 230.69 297.7 231.59 297.7 232.28 297.39 233.06 296.8 
M 236.78 291.39 234.89 297.7 
M 235.79 294.7 236.96 293.8 237.65 293.5 238.55 293.5 239.06 293.8 239.09 294.7 238.19 297.7 
M 241.85 293.5 240.95 296.5 240.98 297.39 241.49 297.7 242.39 297.7 243.08 297.39 244.25 296.5 
M 245.15 293.5 243.89 297.7 
M 250.28 294.39 250.16 293.8 249.35 293.5 248.45 293.5 247.46 293.8 246.98 294.39 247.1 295 247.61 295.3 249.02 295.6 249.53 295.89 249.56 296.8 249.08 297.39 248.08 297.7 247.19 297.7 246.38 297.39 246.26 296.8 
M 258.95 293.5 257.69 297.7 
M 258.68 294.39 258.26 293.8 257.75 293.5 256.85 293.5 256.15 293.8 255.38 294.39 254.81 295.3 254.63 295.89 254.66 296.8 255.08 297.39 255.59 297.7 256.49 297.7 257.18 297.39 257.96 296.8 
M 261.35 293.5 260.09 297.7 
M 260.99 294.7 262.15 293.8 262.85 293.5 263.75 293.5 264.26 293.8 264.28 294.7 263.39 297.7 
M 270.08 294.39 269.65 293.8 269.14 293.5 268.25 293.5 267.56 293.8 266.77 294.39 266.2 295.3 266.02 295.89 266.06 296.8 266.48 297.39 266.99 297.7 267.89 297.7 268.58 297.39 269.36 296.8 
M 275.75 293.5 274.49 297.7 
M 275.48 294.39 275.06 293.8 274.55 293.5 273.64 293.5 272.95 293.8 272.18 294.39 271.61 295.3 271.43 295.89 271.45 296.8 271.88 297.39 272.39 297.7 273.28 297.7 273.98 297.39 274.76 296.8 
M 278.14 293.5 276.89 297.7 
M 277.78 294.7 278.95 293.8 279.64 293.5 280.55 293.5 281.06 293.8 281.08 294.7 280.19 297.7 
M 283.85 293.5 282.58 297.7 
M 283.49 294.7 284.65 293.8 285.35 293.5 286.25 293.5 286.76 293.8 286.78 294.7 285.89 297.7 
M 289.88 291.39 290.08 291.7 290.48 291.39 290.27 291.1 289.88 291.39 
M 289.55 293.5 288.28 297.7 
M 294.98 294.39 294.56 293.8 294.05 293.5 293.14 293.5 292.45 293.8 291.68 294.39 291.11 295.3 290.93 295.89 290.95 296.8 291.38 297.39 291.89 297.7 292.78 297.7 293.48 297.39 294.26 296.8 
M 300.64 293.5 299.39 297.7 
M 300.38 294.39 299.95 293.8 299.45 293.5 298.55 293.5 297.86 293.8 297.08 294.39 296.51 295.3 296.33 295.89 296.36 296.8 296.77 297.39 297.28 297.7 298.19 297.7 298.88 297.39 299.65 296.8 
M 302.27 297.1 301.88 297.39 302.08 297.7 302.48 297.39 302.27 297.1 
"/></svg>
