<svg xmlns="http://www.w3.org/2000/svg" width="520" height="320"><rect x="0" y="0" width="520" height="320" fill="floralwhite"/><rect x="10" y="10" width="500" height="300" stroke="black" stroke-width="1" fill="none"/><path stroke="black" stroke-width="1" fill="none" stroke-linecap="round" stroke-linejoin="round" d="
M 185.99 124.96 191.57 122.34 199.85 118.9 208.43 116.26 217.33 115.18 226.29 114.73 253.12 112.55 271.03 111.55 280 111.68 288.92 112.71 297.67 114.66 306.41 116.72 314.93 119.51 323.26 122.84 331.41 126.59 347.59 134.37 355.5 138.6 359.63 141.05 
M 359.63 200.7 335.11 209.71 326.76 213 309.94 219.24 301.72 222.83 285.64 230.79 277.3 234.11 268.65 236.49 259.93 238.61 250.98 239.23 233.15 237.24 224.44 235.11 216.03 231.99 178.83 215.32 
M 198.16 158.98 200.41 158.58 
M 213 159.09 215.93 159.79 
M 223.75 160.71 230.83 160.43 
M 233.27 160.3 238.61 160.47 
M 241.51 160.7 242.95 160.79 246.76 160.48 
M 254.59 159.71 257.45 159.56 
M 260.32 159.31 263.18 158.97 
M 265.99 158.59 270.24 158.05 271.79 158 
M 274.95 157.97 278.06 157.9 
M 280.92 157.59 290.26 156.12 299.39 153.69 301.79 153.34 307.72 152.9 
M 310.05 152.86 311.26 152.89 318.44 153.89 323.15 154.81 325.24 155.08 328.06 155.2 
M 332.21 155.83 335.85 156.82 346.56 160.25 356.19 162.26 359.63 162.77 
M 179.21 214.99 179.43 215.59 
M 184.15 208.47 186 214.35 
M 197.8 121.3 196.69 123.45 
M 190.45 137.24 188.8 140.63 
M 188.09 197.66 189.12 200.28 
M 192.59 209.75 193.09 211.7 
M 194.32 215.79 195.16 218.05 
M 196.11 220.4 197.5 223.66 
M 197.29 139.85 195.99 141.93 
M 194.68 144.02 193.41 146.2 
M 192.03 148.29 189.61 151.24 
M 197.33 199.47 198.12 201.47 
M 199.08 204.03 202.5 215.28 
M 203.18 217.51 204.68 222.09 
M 205.48 224.43 206.3 226.75 
M 207.55 134 206.83 138.25 205.78 140.54 205.02 141.45 
M 201.79 144.96 201 145.87 198.95 148.97 
M 195.5 156 194.76 158.39 
M 198.53 176.23 198.99 178.57 
M 207.52 205.09 208.43 208.94 
M 208.89 211.06 210.77 217.94 
M 213.22 225.41 214.85 230.36 
M 213.06 137.27 212.24 139.79 
M 210.27 144.51 208.9 146.51 
M 206.22 150.59 203.9 155.12 
M 215.57 208.6 217.11 213.67 
M 220.57 224.27 221.46 226.96 
M 222.3 229.61 223.01 231.85 
M 226.61 122.11 225.02 126.83 
M 220.93 135.78 220.38 136.89 219.61 139.46 218.77 143.61 
M 217.1 148.58 215.87 150.67 
M 213.16 154.64 211.9 157.19 
M 214.52 170.2 215.04 172.52 
M 224.46 210.54 226.26 216.96 227.33 221.77 228.55 225.8 
M 232.73 131.5 230.65 136.02 
M 229.62 138.32 228.61 140.65 
M 227.64 143.01 226.76 145.42 
M 223.29 155.06 222.4 157.44 
M 221.54 159.71 221.11 160.77 
M 233.2 212.7 236.43 224.81 237.72 228.96 
M 241.25 130.06 240.44 134.22 238.13 140.32 
M 237.3 142.84 235.93 146.43 235.28 147.42 
M 233.97 149.38 233.3 150.35 231.78 153.69 
M 230.92 156.06 229.91 158.89 
M 231.97 169.16 232.73 171.61 
M 240.76 205.13 241.73 208.43 242.59 212.11 
M 243.92 217.22 244.47 219.65 
M 245.07 222.13 247.63 230.3 
M 248.87 233.75 249.66 235.83 
M 250.66 126.02 249.72 128.41 
M 248.75 130.79 245.76 139.76 244.13 143.21 
M 243.25 145.69 241.45 152.17 239.2 158.07 
M 238.46 159.82 238.19 160.43 
M 246.52 192.31 247.3 197.32 250.36 206.87 
M 252.64 212.84 254.36 218.23 
M 255.08 220.79 256.63 227.77 
M 257.25 230.18 258.2 233.03 
M 258.57 126.52 257.66 128.99 
M 256.74 131.49 254.81 136.49 
M 254 139.15 252.88 143.18 249.67 151.82 
M 248.96 154.45 247.6 160.36 
M 247.95 161.55 248.61 163.88 
M 254.74 183.59 255.22 185.81 
M 255.7 188.05 256.55 194.28 
M 258.43 201.64 265.79 225.03 
M 266.79 227.75 268.78 232.92 
M 269.72 124.07 265.13 134.96 264.22 137.55 262.64 142.96 261.7 145.48 259.53 150.21 259.14 151.53 
M 258.41 154.21 256.98 159.66 
M 264.16 184.91 264.68 187.2 
M 265.28 189.6 267.8 198.45 269.2 204.38 
M 270.64 209.37 271.53 212.01 
M 273.08 217 274.35 221.64 
M 275.11 224.06 275.91 226.51 
M 276.52 228.39 276.74 229.07 
M 283.09 121.65 282.05 123.95 
M 280.9 126.18 276.4 133.76 273.98 138.41 273.49 139.68 
M 272.58 142.3 269.1 152.9 
M 268.13 155.42 266.89 158.45 
M 271.81 172.99 272.25 175.21 
M 273.33 181.67 273.77 183.91 
M 274.18 186.15 274.98 190.59 
M 276.61 195.88 277.86 199.88 278.07 200.99 
M 278.77 205.27 283.58 221.88 
M 292.05 126.25 291.61 127.49 290.44 129.74 287.17 133.4 285.85 135.59 284.35 139.41 
M 283.31 141.93 281.76 145.72 279.68 152.55 
M 278.69 155.12 277.53 157.97 
M 282.38 178.38 282.81 180.67 
M 283.2 182.93 284.09 190.35 285.09 194.14 
M 287.11 201.66 288.32 208.15 
M 288.7 210.24 289.43 213.48 290.81 217.31 
M 291.67 219.43 291.99 220.19 
M 300.86 127.99 299.93 132.14 298.96 134.62 291.88 146.97 
M 290.79 149.45 289.16 153.21 288.49 154.34 
M 289.52 169.37 289.86 171.62 
M 290.24 173.92 290.63 176.24 
M 291.23 180.67 292.7 190.72 294.58 197.29 
M 295.09 199.64 296.22 208.69 296.48 209.79 
M 297.46 212.73 298.17 214.56 
M 310.62 128.87 309.43 132.66 308.48 135.09 306.06 139.56 304.73 141.71 298.29 149.42 296.9 151.62 295.55 154.68 
M 296.85 162.76 297.17 166.01 300.44 184.92 301.47 189.79 303.6 197.56 305.08 205.36 
M 305.78 207.79 307.29 212.19 
M 318.73 129.7 316.87 134.37 
M 315.91 136.72 315.39 137.87 313.96 139.8 310.75 143.4 307.75 147.32 303.75 153.2 
M 306.75 169.04 307.13 171.39 
M 307.51 173.75 308.84 180.93 
M 309.3 183.31 310.69 190.4 
M 311.21 192.79 312.37 197.67 
M 313.02 200.15 314.19 204.02 316.76 210.38 
M 323.22 134.61 321.85 138.11 318.63 143.09 
M 317.3 145.08 315.88 147.01 
M 314.45 148.96 311.9 152.93 
M 313.3 159.24 313.67 161.57 
M 313.93 163.78 314.26 166.06 
M 316.06 173.62 316.6 176.06 
M 317.09 178.43 319.58 188.35 
M 320.19 190.79 321.26 195.54 
M 321.91 198.02 325.21 207.45 
M 329.28 138.45 327.54 141.48 326.21 143.35 323.01 149.82 321.64 151.72 320.21 154.2 
M 322.08 164.51 323.2 169.29 
M 324.6 174.27 326.22 180.32 327.44 184.17 
M 328.31 186.79 333.59 204.22 
M 335.49 142.34 333.11 146.25 
M 331.81 148.08 330.56 149.97 
M 329.38 151.95 327.56 155.16 
M 329.23 162.93 330.63 167.7 
M 331.64 170.36 333.15 174.33 335.22 181.24 337.63 187.74 
M 338.5 190.27 340.08 196.12 341.52 200.57 
M 344.32 145.86 341.04 150.42 335.14 156.61 
M 340.93 172.29 342.39 175.92 343.38 179.82 344.34 182.26 348.31 190.8 350.7 198.23 
M 273.37 147.41 272.6 147.31 272.16 147.67 271.87 149.78 
M 267.09 167.44 267.35 166.64 268.75 165.43 270.65 162.92 270.77 162.43 270.67 161.89 270.07 160.75 
M 299.52 122.21 300.13 122.48 301.04 123.46 301.64 123.87 302.84 124.19 304.12 124.76 
M 236.62 212.11 236.33 212.08 
M 235.87 212.24 235.27 212.93 234.51 214.45 
M 299.24 121.33 301.49 121.6 302.93 120.97 
M 341.02 141.6 340.4 141.35 340.02 141.46 
M 292.72 197.42 292.75 199.67 292.51 200.97 292.57 202.23 292.43 203.24 
M 254.24 200.06 255.17 200.17 255.72 200.54 258.77 204.81 
M 317.19 211.47 318.27 212.92 318.6 214.44 318.91 214.81 
M 260.79 168.9 260.79 169.56 260.02 172.11 260.05 172.92 
M 215.18 221.54 215.64 222.01 215.46 222.36 
M 319.94 151.61 321.73 151.35 324.1 150.37 324.43 150.06 324.82 149.18 324.99 148.45 324.93 147.94 
M 285.33 186.44 282.3 183.58 280.9 181.8 280.48 181.54 279.77 181.39 
M 303.57 190.79 304.74 189.56 305.16 188.89 305.68 186.25 
M 304.39 194.21 305.42 194.55 305.87 194.88 
M 343.51 143.49 342.27 143.29 341.06 142.58 340.31 141.93 
M 253.84 148.51 252.19 149.38 250.49 151.21 249.82 151.66 249.04 151.84 247.87 151.65 245.94 150.32 
M 218.85 156.88 220.75 156.36 221.28 155.79 221.72 154.66 221.28 153.28 
M 248.24 158.69 247.67 159.14 247.18 159.15 246.45 158.84 245.53 158.05 244.86 156.74 244.88 154.9 
M 297.76 176.18 297.03 176.08 294.1 174.36 293.36 174.11 
M 207.95 125.6 208.6 122.25 208.5 121.63 
M 216.9 155.31 217.76 155.22 219.09 155.61 219.96 155.67 220.42 155.4 220.68 154.83 
M 346.17 199.41 350.26 199 
M 340.1 166.35 341.65 165.53 342.29 165.38 344.04 165.92 344.61 166.54 
M 275.45 126.49 276.31 127 277.27 128.09 278.4 128.9 279.29 130.67 
M 222.86 164.86 221.91 163.92 221.21 163.51 220.5 163.57 219.35 164.06 217.42 164.27 
M 197.69 122.92 197.83 122.02 197.55 121.48 196.26 120.39 
M 222.29 134.16 221.84 134.07 219.6 132.73 
M 210.74 155.77 210.27 155.26 208.95 154.55 207.98 153.48 207.26 150.94 
M 255.13 187.85 252.99 185.92 250.17 184.16 249.27 183.31 
M 239.35 237.99 239.02 236.84 237.76 236.27 
M 330.97 207.4 330.09 207.85 329.65 207.87 326.46 207.1 
M 221.01 114.47 269.07 30 269.63 30.31 223.39 114.94 
M 230.61 113.77 267.64 43.16 268.22 43.46 232.99 114.17 
M 240.2 113.08 267.33 55.35 267.92 55.62 242.56 113.47 
M 249.8 112.16 270.18 67.2 270.77 67.46 252.13 112.58 
M 259.43 111.8 274.01 78.39 274.61 78.63 261.77 112.16 
M 269.05 111.18 279 88.17 279.6 88.41 271.38 111.52 
M 278.72 111.17 285.83 97.73 286.41 98 280.97 111.76 
M 288.33 112.25 292.35 106.66 292.91 106.97 290.49 113.06 
M 293.1 113.28 294.11 113.85 
M 264.97 38.84 263.52 42.53 263.14 45.05 263.35 47.62 263.94 50.22 
M 264.66 50.59 263.53 54.1 263.37 56.44 263.8 58.78 264.62 61.12 
M 265.36 61.46 265.18 63.95 265.37 66.34 266.14 68.58 268.14 71.7 
M 268.88 72.02 268.93 74.47 269.33 76.78 270.29 78.89 272.55 81.73 
M 273.3 82.04 273.9 85.39 274.81 87.34 276.24 89 278 90.47 
M 278.76 90.77 279.99 94.21 281.28 96.15 283.05 97.73 285.11 99.07 
M 285.85 99.41 287 102.7 288.24 104.53 289.94 105.99 291.94 107.22 
M 292.66 107.61 292.09 109.1 291.9 110.52 292.29 111.84 293.76 113.65 
M 264.42 40.06 263.52 42.53 263.25 43.78 263.17 46.33 263.62 48.92 
M 262.22 44.42 261.38 46.74 261.02 49.11 261.05 50.32 261.47 52.76 
M 260.03 48.77 259.24 50.95 259 52.05 258.93 54.3 259.33 56.59 
M 257.84 53.12 256.88 56.19 256.81 58.29 257.18 60.43 
M 255.65 57.47 254.75 60.32 254.69 62.27 255.03 64.26 
M 253.45 61.82 252.82 63.57 252.55 65.35 252.89 68.1 
M 251.26 66.17 250.68 67.78 250.43 69.42 250.74 71.93 
M 249.07 70.53 248.54 71.99 248.31 73.48 248.6 75.77 
M 246.88 74.88 246.4 76.2 246.19 77.54 246.45 79.6 
M 244.68 79.23 244.26 80.4 244.08 81.6 244.3 83.44 
M 242.49 83.58 242.12 84.61 241.96 85.66 242.16 87.27 
M 240.3 87.93 239.88 89.27 240.01 91.11 
M 264.22 51.76 263.53 54.1 263.38 55.27 263.52 57.61 264.19 59.95 
M 262.06 56.6 261.43 58.75 261.28 59.83 261.41 61.99 262.03 64.15 
M 259.9 61.43 259.32 63.41 259.18 65.38 259.31 66.37 259.87 68.35 
M 257.74 66.27 257.21 68.06 257.09 69.85 257.71 72.55 
M 255.58 71.1 255.11 72.71 255 74.32 255.56 76.74 
M 253.42 75.94 253 77.37 252.9 78.79 253.4 80.94 
M 251.26 80.77 250.89 82.02 250.81 83.27 251.24 85.14 
M 249.1 85.61 248.72 87.2 248.78 88.27 249.08 89.34 
M 246.94 90.44 246.62 91.77 246.93 93.54 
M 265.24 62.71 265.21 65.16 265.68 67.48 266.14 68.58 267.41 70.68 
M 263.32 67.75 263.3 69.96 263.44 71.02 264.13 73.03 265.27 74.92 
M 261.41 72.79 261.38 74.75 261.76 76.6 263.14 79.16 
M 259.49 77.82 259.58 80.37 260.11 81.93 261 83.4 
M 257.57 82.86 257.65 85.04 258.11 86.38 258.87 87.64 
M 255.65 87.9 255.63 89.13 255.87 90.28 256.73 91.88 
M 253.73 92.94 253.72 93.92 253.91 94.84 254.6 96.12 
M 268.88 73.25 269.06 75.65 269.33 76.78 270.29 78.89 271.73 80.81 
M 267.03 78.74 267.19 80.8 267.42 81.77 268.24 83.58 269.49 85.23 
M 265.18 84.22 265.51 86.76 266.2 88.28 267.24 89.66 
M 263.34 89.71 263.6 91.75 264.15 92.97 264.99 94.09 
M 261.49 95.19 261.68 96.74 262.11 97.67 262.74 98.51 
M 273.44 83.19 273.9 85.39 274.81 87.34 275.46 88.2 277.1 89.75 
M 271.54 89.89 272.19 92.36 273.09 93.74 274.35 94.92 
M 269.65 96.6 269.89 97.77 270.38 98.81 271.6 100.1 
M 279.11 91.96 279.99 94.21 281.28 96.15 282.11 96.98 284.06 98.42 
M 277.66 98.85 278.61 100.97 279.6 102.11 280.87 103.04 
M 286.18 100.55 287 102.7 288.24 104.53 289.04 105.3 290.92 106.62 
M 189.02 181.43 190.72 181.02 192.68 180.21 196.77 178.94 201 178.43 202.98 177.65 207.34 177.16 208.85 176.05 210.43 175.49 212.58 173.54 222.38 171.84 226.04 171.93 228.66 172.77 230.51 172.83 232.16 173.1 234.49 174.33 237.76 175.38 239.65 176.17 241.61 177.58 244.92 180.65 249.83 188.17 249.05 189.98 245.02 193.82 244.07 195.28 242.07 200.93 241.18 202.59 240.93 204.66 240.29 206.47 239.86 208.51 239.15 210.37 237.73 211.4 236.07 212.2 233.29 212.73 209.43 205.87 205.32 204.27 203.72 203.34 202.6 203.28 198.69 200.2 195.32 198.32 188.56 195.62 187 194.38 
M 189.03 182.34 199.17 179.83 203.13 179.08 204.79 179.12 207.21 178.51 208.89 177.38 210.7 176.64 212.38 176.12 213.98 175.87 
M 188.94 183.42 201.17 181.13 206.97 180.54 211.01 179.36 214.73 179.04 216.53 178.72 
M 192.22 184.14 203.04 182.21 205.31 182.13 207.43 182.38 209.23 182.3 211.26 181.48 212.79 181.28 215 181.46 216.92 181.43 218.43 180.98 219.18 180.28 221.16 180 225.82 179.68 227.55 180.04 233.91 176.54 236.06 175.91 
M 192.14 185.29 194.23 185.09 198.41 184.22 202.36 183.98 206.88 184.7 209.07 184.48 210.61 183.94 212.31 183.92 214.22 183.31 216.37 183.63 218.62 183.7 220.45 183.13 222.11 182.95 
M 188.56 186.68 190.26 186.75 192.38 186.56 194.34 186.68 198.47 185.78 200.64 185.79 206.51 186.92 208.95 186.85 212.88 186.36 216.56 186.68 221.28 186.71 223.49 186.58 224.82 186.12 226.81 185.92 228.8 186.09 231.58 185.33 233.79 184.46 235.8 184.94 
M 190.38 188.02 194.33 188.05 196.55 187.71 198.73 187.62 200.79 188.05 202.75 188.14 207.16 188.92 209.15 188.85 210.41 188.52 212.32 188.65 216.31 189.29 218.81 189.42 
M 190.49 189.26 199.11 189.53 201.31 189.85 207.69 191.27 211.21 191.25 212.4 191.51 214.06 192.43 216.55 192.23 218.68 191.77 220.71 190.95 223.09 191.2 224.78 192.04 228.62 193.36 230.54 192.96 234.62 193.68 236.6 193.26 239.13 193.2 241.18 193.83 243.17 193.29 
M 187.85 189.81 190.51 190.43 197.33 190.88 199.44 191.16 203.31 192.36 211.15 193.95 212.69 194.55 214.25 195.44 216.5 195.01 218.39 194.15 220.75 194.07 226.62 195.86 228.62 196.01 230.58 196.6 
M 188.52 191.2 190.68 191.81 194.69 192.09 197.14 192.49 203.32 194.3 205.03 194.69 206.98 194.83 209.03 195.32 212.61 197.43 214.73 197.93 218.69 197.58 221.8 197.83 223.7 198.55 225.15 198.53 226.9 197.96 
M 188.48 192.3 198.9 194.79 204.38 197.02 208.39 197.65 209.94 198.34 211.78 199.53 215.89 200.11 218.13 200.73 221.18 200.97 222.92 201.54 228.31 201.72 232.27 204.11 233.98 204.31 236.04 204.27 238.47 204.68 
M 192.54 194.43 198.41 196.53 200.07 197.73 202.07 198.52 204.25 198.92 205.9 199.56 207.79 199.82 209.44 200.64 211.49 202.02 213.66 202.97 
M 192.58 195.95 198.01 198.31 202.01 200.85 203.72 200.99 209.13 203.28 214.58 205.09 
M 236.44 237.74 239.78 241.75 244.13 247.45 250.34 260.25 250.44 262.08 249.8 266.65 249.48 271.36 247.39 274.65 246.17 276.13 245.09 277.76 243.24 278.62 241.9 280 239.29 279.78 233.41 275.12 227.54 271.03 226.06 270.66 224.39 270.6 222.88 270.01 217.24 265.44 211.54 238.09 210.95 236.57 209.55 234.88 208.56 232.38 207.6 228.32 
M 233.26 237.26 235.53 239.69 237.06 241.72 240.98 247.56 242.62 249.16 243.84 251.16 
M 230.08 236.78 234.71 243.44 237.98 249.01 240.38 252.57 240.76 254.07 241.85 255.7 243.42 257.37 245.86 261.77 246.58 263.53 247.5 265 249.17 266.4 
M 226.98 235.92 229.31 240.42 232.91 246.27 233.64 247.87 234.59 249.42 235.33 251.45 235.45 253.88 236.67 257.25 241.02 263.29 241.74 265.27 
M 223.92 234.94 225.91 239.58 228.33 243.88 229.44 247.79 229.39 249.91 230.79 252.98 231.06 254.86 231.82 256.59 232.45 258.75 236.25 262.3 237.03 264.3 236.64 268.02 238.44 271.38 239.75 273.49 241.07 277.93 
M 220.88 233.89 222.13 236.44 222.61 238.53 223.36 240.67 224.47 243.01 225.18 245.22 225.41 247.25 225.61 252.22 227.01 255.5 228.01 258.6 229.34 261.07 232.14 264.11 
M 217.88 232.72 220.13 237.71 220.57 239.59 222.05 243.18 222.57 245.22 222.71 247.69 223.88 252.86 224.42 254.31 224.95 258.22 
M 214.89 231.55 215.89 234.07 217.99 240.58 218.78 242.08 219.99 248.62 220.58 253.5 
M 211.95 230.24 213.48 234.51 214.33 238.54 215.7 243.96 215.95 245.98 215.97 248.08 216.64 251.8 217.26 253.93 217.57 256.57 217.25 258.82 217.56 263.77 
M 344.57 206.19 348.57 209.59 351.05 212.28 349.73 214.49 349.22 216.65 348.07 218.2 345.99 218.84 344.24 219.82 343.02 221.3 341.96 222.92 341.22 224.89 339.36 225.71 337.17 226.05 335.63 226.99 332.95 229.75 331.25 230.22 329.24 230.45 327.37 231.17 326.62 232.92 325.41 233.89 321.25 232.76 319.15 231.7 315.43 233.34 313.63 233.54 311.42 233.32 310.17 234.73 305.22 237.58 303.99 238.9 300.71 240.99 298.48 241.31 294.93 242.98 293.6 243.89 291.95 244.19 290.1 244.28 284.86 242.51 279.09 241.74 276 239.28 272.48 235.57 
M 341.55 207.29 346.84 211.65 
M 338.53 208.39 343.23 212.15 345.43 214.43 
M 335.52 209.54 339.74 214.29 342.2 215.59 
M 332.53 210.73 334.88 213.8 336.51 215.34 
M 329.54 211.91 333.56 216.4 336.59 219.2 339.43 221.24 
M 326.55 213.08 328.83 216.31 331.7 219.71 
M 323.55 214.25 326.04 216.85 327.5 219.34 329.51 221.38 333.05 224.33 
M 320.53 215.35 323.75 217.4 325.35 219.7 326.58 221.98 328.1 224.14 329.99 225.48 
M 317.5 216.43 322.07 220.65 323.74 223.09 325.12 225.51 327.97 228.55 
M 314.48 217.53 316.18 220.08 320.44 223.4 322.47 225.56 323.72 227.64 325.48 228.74 326.73 230.19 
M 311.47 218.66 313.71 221.22 315.56 222.73 317.52 223.53 318.95 225.15 
M 308.46 219.8 310.48 222.5 312.25 224.47 314.13 225.88 316.16 226.26 317.76 227.88 319.43 229.23 
M 305.53 221.12 307.44 223.96 309.14 226.06 311.13 227.74 313.33 228.84 315.68 229.11 
M 302.59 222.43 304.58 225.15 306.42 226.91 308.17 228.24 
M 299.69 223.82 301.88 226.31 305.96 230.05 
M 296.82 225.26 299.11 228.07 300.92 229.68 303.15 231.13 304.67 232.99 306.73 234.48 
M 293.94 226.7 296.6 229.3 300.52 232.57 
M 291.07 228.14 293.48 230.38 295.71 232.06 298.93 235.17 
M 288.2 229.59 290.3 231.83 295.11 235.16 296.67 237.17 298.41 238.73 
M 285.28 230.95 288.09 233.44 290.28 234.93 293.1 236.33 294.79 238 
M 282.33 232.23 287.23 236.39 289.51 237.18 
M 279.37 233.48 282.17 235.93 283.87 238 285.69 239.58 
M 276.29 234.42 279.52 236.62 282.75 239.91 283.87 241.79 
M 358.99 140.62 361.13 140.22 362.83 139.43 366.23 137.24 368.11 136.33 371.51 135.06 372.91 133.91 376.89 131.71 378.43 130.54 380.02 129.66 381.93 129.1 383.62 127.85 384.76 126.7 385.72 125.35 387.27 124.59 390.67 121.41 395.06 119.37 397.67 117.71 399.29 116.49 400.66 115.2 402.95 113.79 404.88 112.91 406.62 110.78 408.5 109.23 410.27 108.17 414.51 106.94 419.13 104.72 419.56 110.56 418.74 112.04 418.48 114.06 418.88 116.75 418.81 118.97 418.53 120.99 418.04 122.89 417.18 124.45 415.96 128.04 416.03 130.33 415.39 131.92 415.19 133.95 415.28 136.27 415.13 137.85 415.52 139.91 415.31 143.69 414.79 145.8 412.89 149.15 411.92 150.4 411.78 151.68 413.12 155.85 413.18 157.76 412.41 161.46 412.2 163.36 411.73 165.01 411.97 167.36 411.23 169.04 410.05 170.41 409.47 172.37 409.81 174.17 411.35 178.17 412.32 182.66 412.33 184.73 412.01 186.48 411.5 187.93 411.29 189.67 411.29 191.62 411.36 193.03 413.37 197.16 413.47 198.91 414.29 203.01 414.51 204.89 413.58 210.24 416.02 216.99 415.74 218.14 416.09 220.89 417.64 224.01 418.71 228.34 418.83 230.3 420.58 236.27 420.68 243.98 418.6 242.16 416.17 241.38 415.1 240.09 413.49 238.96 411.72 237.98 408.9 235.66 404.36 232.43 402.67 231.76 401.14 230.9 398.45 228.2 396.09 226.84 393.48 225.7 390.1 223.22 388.87 221.43 387.11 219.7 381.89 216.61 379.66 215.66 378.07 214.63 376.84 213.24 373.38 211.24 370.24 208.73 363.22 204.07 358.99 200.96 
M 361.26 143.29 366.5 140.93 370.05 138.85 372.13 138.31 373.22 137.51 377.17 135.65 379.04 134.27 381.04 133.57 384.23 132.15 389.23 128.94 391.49 128.72 392.99 128.04 396.47 125.09 398.49 123.99 401.92 122.54 403.67 121.42 404.7 119.77 407.75 118.07 410.32 114.74 412.14 114.22 413.53 113.39 
M 363.16 145.68 366.9 144.24 372.08 141.89 374.35 141.58 377.96 139.58 381.34 137.09 385.51 135.82 388.91 134.52 390.7 133.36 392.71 132.97 395.76 132.65 399.5 130.04 401.58 129.04 403.16 127.74 406.31 125.8 410.29 124.67 
M 363.43 148.97 367.25 147.55 371.37 146.38 373.15 145.6 374.81 144.28 376.55 143.93 378.39 143.31 379.99 141.85 381.7 141.03 386.17 139.54 388.1 139.49 389.92 138.73 391.95 138.43 394.8 136.86 396.38 136.6 397.7 135.69 401.43 134.66 403.25 133.59 405.3 132.81 
M 361.68 152.55 369.03 150.76 371.31 150.02 373.44 149.07 377 147.92 378.83 147.76 384.42 145.19 386.39 144.44 390.36 143.38 391.68 142.36 395.44 140.46 397.42 140.41 399.86 140.68 
M 363.57 155.13 369.08 154.17 370.97 153.6 372.96 152.57 374.99 152.11 381.38 151.08 383.3 151.13 384.93 150.71 386.85 149.65 389.15 148.82 390.82 147.77 392 147.35 394.04 147.65 400.76 147.35 403.04 146.25 404.28 146.54 407.39 144.86 409.26 144.53 
M 358.99 158.73 365.38 157.73 367.7 157.63 371.71 156.98 373.34 157.23 375.33 156.87 377.07 156.13 379.43 155.87 383.61 155.69 385.67 155.8 389.4 154.66 392.5 154.19 393.98 153.77 
M 358.99 161.74 361.15 161.75 365.7 161.25 367.94 161.32 369.81 160.9 371.47 160.85 373.23 161.44 375.44 161.3 377.43 160.1 379.06 160.03 380.71 159.47 383.23 160.01 385.86 160.26 388.53 159.92 
M 358.99 164.76 363.51 164.85 368.48 165.48 370.49 165.19 377.81 164.98 379.67 164.1 381.57 164.33 383.97 163.83 386.57 164.03 388.32 164.34 390.43 164.19 392.74 162.95 393.63 162.64 395.39 162.41 
M 361.28 168.13 370.86 168.89 378.3 168.19 379.94 167.77 381.58 167.99 384.06 167.93 386.43 168.77 388.77 169.28 390.57 169.22 393.69 168.02 398.2 167.55 400.26 167.06 402.22 167.21 404.55 167.06 
M 366.09 171.74 368.36 172.13 370.47 172.22 372.2 172.18 373.8 171.8 375.6 171.73 380.52 172.9 382.86 173.1 386.88 172.96 388.9 172.22 390.62 172.73 
M 358.99 173.81 370.04 176.27 371.91 176.17 373.74 176.31 375.58 176.78 377.63 177.01 382.08 177.33 386.24 176.98 388.55 176.49 390.65 176.82 394.18 178.5 
M 361.9 177.96 367.4 178.82 369.43 179.53 371.26 179.87 375.97 180.5 377.89 181.25 379.93 181.46 381.6 182.06 383.77 182.25 386.05 181.85 388.04 181.96 392.15 182.85 
M 361.61 181.23 365.78 182.03 369.83 183.08 371.81 183.13 375.3 184.14 378.98 185.84 380.67 186.38 382.79 186.63 385.51 187.41 390.08 187.72 391.83 188.2 392.89 189.24 394.62 189.65 400.24 189.8 402.35 190.01 404.54 190.48 405.7 191.38 409.41 192.46 
M 358.99 182.86 363.6 185.05 371.59 186.79 373.52 187.46 377.26 189.21 379.12 189.84 381.29 190.1 385.61 191.18 387.55 191.5 391.82 192.99 393.75 194.49 395.66 195.47 399.66 195.04 401.13 195.09 402.71 195.54 404.32 196.53 406.78 196.93 
M 363.57 188.06 365.7 188.7 367.93 189.08 369.84 189.94 371.61 191.13 373.39 191.84 374.96 192.75 377.15 193.16 381.5 194.37 385.25 196.04 387.08 196.01 391.12 196.78 392.65 196.89 395.87 198.51 
M 361.23 190.25 365.48 192.14 369.6 193.65 372.87 195.35 375.09 195.74 376.89 196.56 381.04 199.09 383.14 199.9 385.14 200.38 387.26 200.5 389.05 201.51 391.16 201.51 392.94 201.91 393.98 202.87 397.59 204.42 399.19 205.48 400.4 206.9 402.39 207.28 
M 358.99 191.91 361.33 193.41 369.3 196.74 372.85 198.83 376.35 200.63 378.1 201.92 380.02 202.85 382.03 203.22 384.21 204.37 386.41 204.85 388.18 204.32 390.05 205.35 391.53 206.73 
M 365.15 198.17 368.78 200.02 373.94 203.67 375.89 204.28 378.28 205.39 380.03 206.69 381.52 208.06 383.38 208.98 385.39 209.58 387.41 209.81 389.11 210.55 390.83 211.98 
M 358.99 197.95 363.33 200.86 368.32 203.85 370.09 205.17 374.09 207.32 377.33 209.6 382.28 212.52 384.1 213.14 386.03 214.18 390.01 215.83 391.99 217.29 393.63 218.84 
M 300.03 114.21 302.44 114.72 303.81 114.62 306.4 113.72 307.64 113.52 309.42 116.72 310.49 117.14 311.48 117.35 312.61 117.25 315.04 116.39 316.4 116.58 318.43 120.04 320.92 121.11 322.26 121.14 324.8 120.58 325.82 121.29 326.66 123.18 327.68 123.98 330.03 124.92 332.65 124.64 333.98 124.94 335.31 127.24 336.22 128.25 338.75 129.53 342.51 129.16 344.9 132.47 347.18 133.59 348.33 133.72 350.89 133.4 351.78 136.45 
M 117.45 150.72 119.54 148.83 124.17 145.72 130.43 142.43 138.85 137.58 153.94 129.48 159.28 127.98 169.29 126.1 173.78 125.42 181.44 124.64 184.32 124.59 185.95 124.8 187.3 129.75 188.69 139.45 189.53 149.1 189.75 158.7 189.53 168.27 188.96 177.81 189.04 182.6 188.48 187.35 187.28 192.05 186.72 196.79 185.86 201.52 184.66 206.21 183.02 210.88 178.79 215.37 171.56 215.26 166.27 214.43 161.56 213.03 157.15 211.08 152.86 208.62 148.9 205.38 142.29 197.32 139.26 192.76 
M 173.37 148.68 172.69 156.65 171.04 163.67 170.54 166.84 169.75 169.74 168.81 172.38 169.1 184.38 167.11 188.48 159.09 189.97 155.79 190.14 152.4 189.71 148.89 188.58 145.55 186.39 142.7 183.17 
M 138.5 192.25 135.78 187.35 128.24 174.7 123.01 164.63 116.61 153.92 116.11 152.36 116.78 150.89 118.28 150.51 119.51 151.38 122.57 156.97 123.97 159.77 130.52 174.55 132.74 178.79 139.45 192.66 
M 139.07 193.11 132.86 191.43 128.4 190 111.17 185.52 101.65 183.22 100.15 182.71 99.31 181.35 99.9 179.87 101.52 179.23 103.17 179.59 121.33 186.13 128.95 188.58 133.41 190.39 139.27 192.5 
M 149.27 151.82 148.67 149.54 148.84 147.19 149.77 145.02 151.35 143.27 153.41 142.13 155.73 141.72 158.06 142.08 160.15 143.18 161.76 144.9 162.73 147.05 162.95 149.4 162.39 151.69 161.12 153.68 159.28 155.15 157.05 155.94 154.7 155.96 152.46 155.22 150.58 153.79 149.27 151.82 
M 149.19 151.62 148.72 149.91 148.68 148.14 149.08 146.42 149.43 145.6 150.43 144.14 151.06 143.51 152.53 142.51 154.19 141.9 155.95 141.72 156.84 141.79 158.55 142.26 
M 150.37 151.13 149.93 149 150.26 146.94 
M 151.84 144.55 153.11 143.66 154.48 143.15 155.93 143 158.05 143.45 
M 151.56 150.64 151.21 148.98 151.42 147.53 
M 152.62 145.59 153.7 144.8 154.77 144.41 155.9 144.29 157.56 144.64 
M 153.19 150.06 152.95 149.15 153.02 148.23 
M 153.81 146.88 154.85 146.18 155.78 146.02 156.71 146.16 157.54 146.6 158.19 147.29 158.58 148.15 158.66 149.09 158.44 150.01 157.93 150.8 157.19 151.39 156.3 151.7 155.36 151.71 154.47 151.42 153.72 150.84 153.19 150.06 
M 154.11 146.59 153.91 146.99 
M 153.24 148.32 152.97 148.87 
M 155.32 146.1 154.58 147.58 
M 154.16 148.42 153.28 150.19 
M 156.29 146.1 155.25 148.17 
M 155.16 148.34 153.86 150.95 
M 157.11 146.38 154.57 151.45 
M 157.82 146.9 155.41 151.71 
M 158.38 147.71 156.39 151.67 
M 158.66 149.07 157.7 150.98 
M 144.2 199.74 146.7 202.24 
M 138.03 189.71 139.57 191.24 
M 134.41 182.23 135.71 183.53 
M 130.45 174.41 131.05 175.01 
M 117.89 150.27 118.16 150.54 
M 119.98 152.37 121 153.39 
M 119.98 148.51 123.19 151.71 
M 122.26 146.92 125.73 150.4 
M 124.65 145.46 127.27 148.08 
M 127.15 144.1 130.39 147.34 
M 129.71 142.8 133.26 146.35 
M 132.17 141.4 134.71 143.94 
M 134.61 139.98 137.07 142.44 
M 137.07 138.59 140.04 141.55 
M 139.56 137.21 142.07 139.73 
M 142.09 135.88 144.29 138.08 
M 144.6 134.53 148.41 138.34 
M 147.06 133.14 150.3 136.38 
M 149.55 131.77 152.59 134.81 
M 152.09 130.45 155.93 134.29 
M 154.75 129.25 158.36 132.86 
M 157.76 128.41 161.55 132.19 
M 160.9 127.68 164.52 131.31 
M 164.16 127.09 166.86 129.79 
M 167.4 126.46 169.76 128.83 
M 170.68 125.89 173.04 128.25 
M 174.04 125.39 176.26 127.61 
M 177.5 124.99 179.75 127.24 
M 181.04 124.67 183.56 127.19 
M 184.89 124.66 185.99 125.76 
M 170.34 168.44 169.53 167.59 168.63 167.06 166.5 166.37 165.29 165.79 164.53 165.75 
M 144.46 161.37 144.45 159.82 144.23 159.23 141.9 155.95 140.48 155.48 
M 147.66 203.92 147.39 201.29 146.9 200.73 
M 165.3 179.31 165.18 177.82 164.71 176.67 164.55 175.58 163.61 173.93 
M 139.7 181.21 140.22 182.37 139.97 183.13 139.51 183.64 
M 138.74 191.16 140.87 190.38 142.72 189.47 
M 143.52 142.19 142.5 142.45 142.14 143.18 
M 166.4 201.83 166.05 202.72 164.11 204.51 
M 145.33 198.97 143.89 198.43 141.81 196.6 
M 185.18 203.37 185.36 203.46 
M 144.81 196.53 143.93 196.01 142.94 195.9 142.63 195.73 142.6 195.34 143.05 194.78 
M 139 182.8 139.25 183.23 139.28 183.66 138.47 184.8 
M 178.57 188.14 176.65 187.72 176 186.96 174.96 186.17 
M 139.75 178.4 140.14 178.84 143.53 180.88 145.13 183.47 145.94 184.38 
M 157.08 199.73 158.65 201.8 159.38 203.46 159.54 205.33 
M 148.09 190.57 146.08 189.15 145.37 188.37 
M 170.66 169.84 170.76 169.3 170.61 168.77 169.51 167.54 168.6 167.03 165.99 166.16 
M 180.92 204.91 183.28 200.8 
M 139.53 168.44 138.67 167.12 137.04 165.19 135.38 163.74 134.06 162.89 132.98 162.44 
M 166.25 183.21 166.32 182.59 166.16 181.89 165.39 180.74 165.25 178.62 
M 181.61 130.18 181.97 130.73 182.38 131.01 
M 128.39 155.85 123.58 158.92 
M 157.78 137.83 156.63 136.37 156.46 135.56 156.06 134.75 156.22 134.18 
M 148.69 149.32 147.72 148.78 
M 161.77 144.92 162.3 142.07 162.19 141.25 161.78 140.41 
M 181.21 209.68 181.48 208.97 182.92 207.17 183.68 205.9 184.93 205.16 
M 169.16 167.61 167.92 166.84 166.25 166.31 165.47 165.85 164.81 165.72 164.32 165.87 
M 178.53 161.37 177.33 161.1 175.07 160.9 173.52 159.98 
M 172.88 197.33 172.74 196.34 173.06 194.68 172.69 193.84 
M 172.9 145.01 176.06 145.05 177.93 144.11 179.03 143.12 
M 173.61 178.83 174.48 179.95 177.09 180.21 177.62 180.54 178.26 181.34 
M 183.11 135.57 182.76 134.86 182.57 133.74 182.17 132.99 
M 181.66 131.84 181.1 131.16 180.98 130.78 
M 178.39 163.86 177.47 163.88 176.37 163.68 173.49 162.07 172.89 161.86 171.7 161.84 
M 141.43 162.21 141.6 160.84 141.3 159.41 140.26 157.18 138.75 154.87 
M 130.13 153.42 130.11 153.23 130.4 152.96 
M 189.35 163.16 189.57 162.95 
M 131.2 174.89 131.72 173.95 131.79 173.46 131.09 172.17 
M 180.36 180.28 181.29 182.45 181.87 182.89 183.54 182.8 184.28 182.37 184.49 182.03 
M 139.25 192.76 139.47 193.19 
M 137.28 190.05 137.27 190.29 137.42 190.3 
M 135.68 187.19 135.36 187.96 136.03 187.81 
M 134.09 184.55 133.7 184.97 133.46 185.62 133.88 185.31 134.48 185.23 
M 132.54 181.9 131.91 182.48 131.56 183.29 132.09 182.82 132.97 182.62 
M 131.01 179.23 130.12 179.99 129.65 180.96 130.3 180.33 131.47 180 
M 129.43 176.63 128.33 177.49 127.75 178.62 128.51 177.83 129.91 177.39 
M 127.87 174.01 126.53 175 125.85 176.29 126.71 175.34 128.3 174.79 
M 126.48 171.26 124.74 172.51 123.94 173.96 124.92 172.85 126.9 172.12 
M 125.09 168.53 122.95 170.01 122.04 171.62 123.13 170.35 125.56 169.42 
M 123.65 165.84 121.16 167.52 120.14 169.29 121.34 167.86 124.13 166.75 
M 122.15 163.18 119.36 165.03 118.23 166.96 119.54 165.37 122.68 164.08 
M 120.64 160.54 117.57 162.53 116.33 164.62 117.75 162.88 121.15 161.45 
M 119.02 157.97 115.78 160.04 114.42 162.29 115.96 160.38 119.55 158.85 
M 117.42 155.38 113.98 157.55 112.52 159.96 114.16 157.89 117.99 156.23 
M 116.17 152.57 112.19 155.06 110.62 157.62 112.37 155.4 116.5 153.58 
M 139.23 192.64 139.79 192.81 
M 135.76 191.24 136.35 190.98 136.49 191.51 
M 132.61 190.08 133 189.62 133.52 189.33 133.36 189.74 133.43 190.4 
M 129.56 188.82 130 188.15 130.69 187.69 130.37 188.27 130.35 189.15 
M 126.39 187.77 127 186.68 127.87 186.04 127.37 186.79 127.26 188.04 
M 123.22 186.75 124.01 185.21 125.04 184.4 124.38 185.32 124.15 187.04 
M 120.1 185.66 121.01 183.74 122.22 182.75 121.38 183.85 121.04 186.02 
M 116.98 184.57 118.01 182.27 119.39 181.11 118.38 182.38 117.93 184.91 
M 113.88 183.46 115.02 180.8 116.57 179.46 115.39 180.91 114.83 183.79 
M 110.75 182.38 112.02 179.33 113.74 177.82 112.39 179.44 111.72 182.71 
M 107.63 181.3 109.03 177.85 110.91 176.18 109.39 177.97 108.6 181.63 
M 104.57 180.08 106.03 176.38 108.09 174.53 106.4 176.5 105.51 180.46 
M 101.33 179.31 103.03 174.91 105.26 172.89 103.4 175.03 102.38 179.42 
M 106.14 184.31 110.94 187.52 120.82 193.73 126.1 196.53 131.52 199.05 137.14 201.35 148.9 205.38 
M 131.59 197.93 132.11 198.82 133.03 199.67 
M 187.19 129.35 190.67 132.83 
M 187.27 124.28 194.12 131.13 
M 190.81 122.68 197.72 129.58 
M 194.4 121.12 200.03 126.75 
M 198.05 119.63 205.5 127.08 
M 201.8 118.23 207.04 123.47 
M 205.7 116.99 212.47 123.75 
M 209.89 116.03 214.23 120.37 
M 214.33 115.33 221.12 122.11 
M 219.27 115.12 225.54 121.39 
M 224.17 114.88 228.91 119.61 
M 228.97 114.53 233.69 119.25 
M 233.7 114.11 240.52 120.93 
M 238.46 113.74 244.22 119.49 
M 243.3 113.43 250.05 120.17 
M 247.95 112.93 252.36 117.34 
M 252.73 112.56 258.57 118.4 
M 257.72 112.41 263.61 118.3 
M 262.56 112.1 268.43 117.97 
M 267.39 111.79 274.86 119.26 
M 272.21 111.47 276.78 116.03 
M 277.48 111.59 283.1 117.21 
M 282.97 111.93 288.23 117.19 
M 288.89 112.71 296.26 120.08 
M 295.49 114.17 301.28 119.95 
M 302.17 115.7 308.38 121.91 
M 309.03 117.42 316.55 124.93 
M 317.11 120.35 322.82 126.06 
M 325.99 124.08 333.61 131.7 
M 335.82 128.76 342.1 135.05 
M 345.55 133.35 350.87 138.67 
M 356.56 139.22 362.71 145.37 
M 181.99 211.97 185.04 218.06 
M 183.3 210.08 187.94 219.37 
M 184.23 207.44 190.86 220.71 
M 185.07 204.62 193.77 222.03 
M 185.83 201.64 196.66 223.3 
M 186.44 198.35 199.55 224.57 
M 186.95 194.87 202.47 225.92 
M 189.84 196.16 205.41 227.29 
M 192.63 197.23 208.33 228.64 
M 195.47 198.4 211.23 229.92 
M 189.01 180.99 189.21 181.39 
M 198.58 200.14 214.12 231.21 
M 189.02 176.5 191.18 180.83 
M 202.29 203.04 214.6 227.67 
M 189.21 172.4 193.07 180.1 
M 205.08 204.13 215.28 224.53 
M 189.51 168.49 195.03 179.53 
M 207.89 205.24 215.96 221.39 
M 189.54 164.05 196.97 178.91 
M 210.63 206.22 216.62 218.2 
M 189.7 159.86 199.06 178.59 
M 213.26 206.98 217.27 215 
M 189.71 155.39 201.2 178.36 
M 215.89 207.73 217.92 211.8 
M 189.59 150.63 203.09 177.65 
M 218.52 208.49 218.57 208.6 
M 189.23 145.41 205.25 177.46 
M 188.73 139.92 207.35 177.15 
M 187.85 133.65 209.02 175.99 
M 239.48 236.91 240.08 238.11 
M 186.28 126 210.84 175.12 
M 240.12 233.69 242.45 238.35 
M 187.59 124.13 212.39 173.72 
M 241.38 231.7 244.83 238.6 
M 189.43 123.3 212.15 168.75 
M 242.64 229.72 247.2 238.85 
M 191.27 122.48 211.69 163.32 
M 243.33 226.59 249.58 239.1 
M 193.1 121.65 211.8 159.04 
M 244.59 224.62 251.88 239.21 
M 194.97 120.89 210.79 152.52 
M 245.31 221.55 254.11 239.16 
M 196.84 120.12 210.36 147.16 
M 246.03 218.49 256.33 239.1 
M 198.71 119.36 210.51 142.95 
M 246.75 215.43 258.51 238.95 
M 200.59 118.62 210.08 137.6 
M 246.9 211.23 260.52 238.47 
M 202.53 118 209.72 132.38 
M 246.54 206.01 262.52 237.98 
M 204.48 117.38 209.37 127.16 
M 246.76 201.94 264.53 237.49 
M 206.42 116.76 209.58 123.09 
M 246.97 197.87 266.54 237 
M 208.42 116.26 209.86 119.14 
M 246.67 192.77 268.39 236.21 
M 210.5 115.93 210.79 116.51 
M 248.05 191.02 268.32 231.55 
M 243.94 178.3 245.65 181.73 
M 249.39 189.2 268.68 227.77 
M 241.43 168.77 269.04 223.99 
M 237.88 157.18 269.52 220.46 
M 236.07 149.06 270.01 216.94 
M 235.42 143.24 270.51 213.42 
M 235.14 138.19 270.81 209.52 
M 235.76 134.93 271.42 206.26 
M 236.38 131.66 271.47 201.84 
M 237.57 129.54 271.51 197.42 
M 238.19 126.28 271.55 193.01 
M 239.38 124.16 272.17 189.74 
M 240 120.89 272.21 185.32 
M 240.61 117.63 272.83 182.05 
M 241.81 115.51 272.87 177.64 
M 242.43 112.24 272.91 173.22 
M 297.65 222.69 298.51 224.41 
M 243.04 108.98 271.8 166.5 
M 297.69 218.27 300.31 223.51 
M 243.66 105.71 268.4 155.18 
M 297.73 213.86 302.13 222.64 
M 243.7 101.29 268.44 150.76 
M 297.78 209.44 303.96 221.82 
M 244.32 98.03 268.48 146.35 
M 297.82 205.02 305.8 220.99 
M 243.79 92.46 267.95 140.78 
M 297.86 200.6 307.64 220.17 
M 243.83 88.04 267.99 136.36 
M 297.33 195.04 309.51 219.4 
M 243.87 83.62 267.46 130.79 
M 296.79 189.47 311.4 218.69 
M 243.91 79.21 267.5 126.38 
M 296.26 183.9 313.3 217.98 
M 244.82 76.52 267.54 121.96 
M 295.73 178.33 315.19 217.27 
M 246.01 74.4 267.58 117.54 
M 295.2 172.76 317.1 216.58 
M 247.21 72.28 268.2 114.28 
M 295.24 168.35 319.01 215.89 
M 248.4 70.17 268.82 111.01 
M 295.86 165.08 320.92 215.21 
M 249.59 68.05 269.44 107.74 
M 295.9 160.66 322.83 214.53 
M 250.78 65.93 269.48 103.32 
M 295.94 156.25 324.71 213.8 
M 251.98 63.82 269.52 98.91 
M 296.56 152.98 325.89 211.65 
M 253.17 61.7 268.41 92.19 
M 297.18 149.71 325.94 207.24 
M 254.36 59.58 268.46 87.77 
M 297.22 145.3 325.98 202.82 
M 255.55 57.47 268.5 83.35 
M 297.83 142.03 326.02 198.4 
M 256.75 55.35 268.54 78.94 
M 297.88 137.61 324.91 191.68 
M 257.94 53.24 265.34 68.04 
M 268.13 73.61 268.88 75.12 
M 297.63 132.61 323.51 184.38 
M 259.13 51.12 263.69 60.23 
M 265.24 63.33 265.34 63.54 
M 297.68 128.21 324.14 181.13 
M 260.33 49 263.64 55.62 
M 297.47 123.3 323.93 176.22 
M 261.52 46.89 263.73 51.31 
M 264.23 52.3 264.52 52.89 
M 297.71 119.26 324.17 172.18 
M 262.71 44.77 263.24 45.83 
M 297.94 115.24 324.41 168.16 
M 263.9 42.65 264.04 42.92 
M 300.2 115.24 324.64 164.13 
M 302.75 115.84 325.47 161.28 
M 305.31 116.46 325.73 157.3 
M 307.87 117.08 326.57 154.47 
M 350.15 201.64 351.25 203.83 
M 310.56 117.96 327.53 151.9 
M 350.54 197.92 353.15 203.13 
M 313.3 118.93 327.97 148.27 
M 350.98 194.29 355.05 202.43 
M 316.04 119.92 328.41 144.66 
M 350.85 189.52 356.94 201.72 
M 318.86 121.06 328.35 140.04 
M 351.36 186.06 358.84 201.02 
M 321.68 122.19 328.87 136.57 
M 351.88 182.59 360.73 200.28 
M 324.55 123.43 329.44 133.21 
M 352.45 179.23 362.61 199.55 
M 327.46 124.75 329.48 128.78 
M 353.06 175.95 364.49 198.81 
M 353.1 171.53 366.2 197.71 
M 354.36 169.55 366.2 193.21 
M 355.05 166.42 366.2 188.71 
M 356.27 164.37 366.2 184.21 
M 356.9 161.12 366.2 179.71 
M 357.55 157.9 366.2 175.21 
M 357.67 153.64 366.2 170.7 
M 358.36 150.53 366.2 166.2 
M 358.62 146.54 366.2 161.7 
M 358.91 142.62 366.2 157.2 
M 360.66 141.63 366.2 152.7 
M 363.88 143.55 366.2 148.19 
M 223.13 291.39 218.84 297.7 
M 223.13 291.39 223.64 297.7 
M 220.37 295.6 223.37 295.6 
M 229.43 294.39 229.01 293.8 228.5 293.5 227.6 293.5 226.91 293.8 226.13 294.39 225.56 295.3 225.38 295.89 225.41 296.8 225.83 297.39 226.34 297.7 227.24 297.7 227.93 297.39 228.71 296.8 
M 232.43 291.39 230.54 297.7 
M 231.44 294.7 232.61 293.8 233.3 293.5 234.2 293.5 234.71 293.8 234.74 294.7 233.84 297.7 
M 237.5 293.5 236.6 296.5 236.63 297.39 237.14 297.7 238.04 297.7 238.73 297.39 239.9 296.5 
M 240.8 293.5 239.54 297.7 
M 245.93 294.39 245.81 293.8 245 293.5 244.1 293.5 243.11 293.8 242.63 294.39 242.75 295 243.26 295.3 244.67 295.6 245.18 295.89 245.21 296.8 244.73 297.39 243.74 297.7 242.84 297.7 242.03 297.39 241.91 296.8 
M 251.3 293.5 250.04 297.7 
M 250.76 295.3 251.33 294.39 252.11 293.8 252.8 293.5 253.7 293.5 
M 254.36 295.3 257.96 295.3 258.14 294.7 258.02 294.1 257.3 293.5 256.39 293.5 255.71 293.8 254.93 294.39 254.36 295.3 254.18 295.89 254.21 296.8 254.63 297.39 255.14 297.7 256.03 297.7 256.73 297.39 257.51 296.8 
M 263.63 294.39 263.21 293.8 262.7 293.5 261.8 293.5 261.11 293.8 260.33 294.39 259.76 295.3 259.58 295.89 259.61 296.8 260.02 297.39 260.53 297.7 261.44 297.7 262.13 297.39 262.9 296.8 
M 269.3 293.5 268.04 297.7 
M 269.02 294.39 268.61 293.8 268.1 293.5 267.2 293.5 266.51 293.8 265.73 294.39 265.15 295.3 264.98 295.89 265.01 296.8 265.43 297.39 265.94 297.7 266.83 297.7 267.52 297.39 268.31 296.8 
M 271.7 293.5 270.8 296.5 270.83 297.39 271.33 297.7 272.24 297.7 272.93 297.39 274.1 296.5 
M 275 293.5 273.74 297.7 
M 281.33 291.39 279.44 297.7 
M 280.43 294.39 280.01 293.8 279.5 293.5 278.6 293.5 277.9 293.8 277.13 294.39 276.56 295.3 276.38 295.89 276.4 296.8 276.83 297.39 277.33 297.7 278.24 297.7 278.93 297.39 279.7 296.8 
M 282.26 295.3 285.86 295.3 286.03 294.7 285.91 294.1 285.2 293.5 284.3 293.5 283.61 293.8 282.83 294.39 282.26 295.3 282.08 295.89 282.11 296.8 282.52 297.39 283.03 297.7 283.94 297.7 284.63 297.39 285.4 296.8 
M 288.5 293.5 287.24 297.7 
M 288.14 294.7 289.31 293.8 290 293.5 290.89 293.5 291.4 293.8 291.44 294.7 290.53 297.7 
M 296.93 294.39 296.81 293.8 296 293.5 295.1 293.5 294.11 293.8 293.63 294.39 293.75 295 294.26 295.3 295.66 295.6 296.18 295.89 296.2 296.8 295.73 297.39 294.74 297.7 293.83 297.7 293.02 297.39 292.9 296.8 
M 298.52 297.1 298.13 297.39 298.33 297.7 298.73 297.39 298.52 297.1 
"/></svg>
