<svg xmlns="http://www.w3.org/2000/svg" width="520" height="320"><rect x="0" y="0" width="520" height="320" fill="floralwhite"/><rect x="10" y="10" width="500" height="300" stroke="black" stroke-width="1" fill="none"/><path stroke="black" stroke-width="1" fill="none" stroke-linecap="round" stroke-linejoin="round" d="
M 160.05 135.17 169.21 134.97 178.52 133.92 197.14 129.49 206.45 129.19 215.76 130.29 225.07 131.92 234.38 133.29 253 135.33 262.31 136.94 271.62 139.52 280.93 142.85 290.24 145.53 299.55 146.84 318.17 148.3 327.48 149.27 346.09 150.24 355.4 151.08 392.64 157.65 393.67 158.1 
M 393.67 179.94 392.64 181.17 383.33 185.8 374.02 188.76 355.4 192.35 346.09 194.72 327.48 200.62 318.17 203 308.86 205.03 299.55 206.67 290.24 207.86 280.93 208.09 271.62 207.35 262.8 206.03 
M 194.06 204.88 187.83 206.11 178.52 206.99 169.21 205.83 
M 168.02 151.74 168.02 149.57 165.58 142.4 163.61 139.12 
M 163.06 138.2 161.78 136.07 160.68 135.15 
M 166.74 146.72 168.44 145.41 171.87 140.11 173.96 134.43 
M 174.47 166.1 174.47 165.27 172.39 157.34 169.16 150.33 167.27 148.29 
M 169.98 161.61 170.47 161.41 
M 169.32 167.62 170.1 167.68 
M 178.93 164.5 182.81 158.98 185.54 152.16 185.54 147.95 182.81 141.13 178.58 135.12 177.11 134.08 
M 184.56 147.08 186.58 145.61 190.31 140.17 192.72 134.01 192.72 130.5 
M 191.97 159.78 191.63 158.78 187.94 152.46 185.05 150 
M 192.93 132.03 196.4 130.36 197.31 129.49 
M 203.39 155.66 204.67 152.75 204.67 148.73 201.81 142.23 197.39 136.5 193.93 134.26 
M 203.24 149.17 206.14 147.08 209.84 141.73 212.24 135.67 212.24 131.92 211.39 129.77 
M 200.07 130.57 205.8 129.21 
M 200.86 134.21 207.4 133.91 
M 200.11 136.64 207.87 138.59 
M 206.9 154.91 206.6 154.42 203.79 152.14 
M 211.56 132.58 214.95 130.92 215.62 130.27 
M 220.7 157.82 222.82 153.03 222.82 149.13 220.02 142.83 215.68 137.26 212.29 135.09 
M 208.69 148.2 218.13 146.33 
M 209.39 151.54 217.86 151.37 
M 209.09 154.71 217.7 155.79 
M 221.82 147.95 223.67 146.58 227.27 141.25 229.59 135.2 229.59 132.58 
M 218.08 133.67 225.43 133.33 
M 218.43 135.97 225.27 137.62 
M 226.34 157.73 224.04 154.02 221.82 152.23 
M 236.67 161.24 238.26 159.27 241.15 152.98 241.15 149.09 238.26 142.8 233.78 137.24 230.28 135.08 
M 226.59 147.46 235.55 146.42 
M 227.07 150.77 235.79 150.71 
M 226.73 154.15 235.4 156.3 
M 239.4 149.59 242.41 147.46 246.26 141.99 248.75 135.8 248.75 134.85 
M 236.76 133.71 243.62 134.27 
M 236.65 136.93 244.11 138.66 
M 249.1 168.47 249.1 166.64 246.57 160.23 242.66 154.57 239.6 152.36 
M 240.48 164.79 244.38 163.88 
M 249.8 168.69 253.56 166.54 258.46 160.91 261.62 154.55 261.62 150.6 258.46 144.24 253.56 138.61 249.73 136.42 
M 246.46 149 255.93 147.36 
M 246.35 152.39 256.38 152.87 
M 245.54 156.28 255.69 157.1 
M 259.16 183.19 259.16 182.88 256.07 176.9 251.29 171.62 250.29 171.06 
M 260.49 152 262.77 150.43 266.96 144.68 269.36 138.9 
M 256.24 135.96 256.84 136 
M 256.11 139.16 265 141.39 
M 261.24 187.24 263.84 185.58 268.21 179.97 271.04 173.63 271.04 169.7 268.21 163.35 263.84 157.75 260.49 155.61 
M 270.97 172.45 275.02 170.23 280.21 164.53 283.55 158.08 283.55 154.08 280.21 147.63 275.02 141.93 270.97 139.7 
M 266.71 153.26 277.16 150.76 
M 266.94 156.04 277.46 155.6 
M 266.76 159.83 277.4 161.37 
M 275.4 197.63 277.49 195.5 280.81 189.54 280.81 185.85 277.49 179.9 272.34 174.64 268.31 172.58 
M 264.07 184.65 275.29 183.26 
M 264.64 188.12 274.36 187.85 
M 264.53 191.02 274.53 192.29 
M 281.07 156.91 284.3 154.61 288.43 148.73 289.76 145.39 
M 278.41 143.56 286.35 145.06 
M 282.89 192.46 286.47 190.29 291.06 184.74 294.02 178.46 294.02 174.57 291.06 168.28 286.47 162.73 282.89 160.56 
M 278.96 173.33 289.14 171.28 
M 279.2 176.34 288.92 176.61 
M 279.65 179.39 288.38 181.79 
M 284.23 198.38 282.75 195.35 279.62 191.72 
M 292.96 176.16 296.43 174.18 301.44 168.43 304.67 161.93 304.67 157.9 301.44 151.4 297.17 146.5 
M 288.47 157.1 298.52 155.05 
M 288.9 159.92 298.34 159.73 
M 288.38 163.55 298.93 165.28 
M 300.7 197.54 302.95 193.62 302.95 189.94 299.53 183.99 294.23 178.74 292.96 178.11 
M 287.61 188.26 296.59 187.21 
M 286.15 192.17 297.25 191.98 
M 285.75 194.61 296.31 196.1 
M 303.51 156.06 307.69 150.17 308.71 147.57 
M 307.65 196.58 308.61 195.88 312.62 190.09 315.21 183.52 315.21 179.46 312.62 172.9 308.61 167.1 305.48 164.84 
M 302.52 178.17 310.53 176.6 
M 302.39 181.53 310.9 181.83 
M 302.16 184.84 310.35 186.91 
M 303.12 197.2 300.55 194.69 296.76 192.83 
M 312.38 178.65 316.04 176.38 320.72 170.55 323.74 163.96 323.74 159.87 320.72 153.28 316.62 148.18 
M 308.97 158.1 318.18 156.99 
M 308.65 161.55 318.65 162.02 
M 309.03 165.18 317.79 166.8 
M 323.99 193.62 320.85 187.6 315.77 182.06 311.81 179.9 
M 308.19 192.73 318.38 190.74 
M 307.81 195.37 312.58 195.76 
M 320.78 160.06 323.93 157.88 327.97 152.28 329.16 149.37 
M 327.11 192.99 329.05 189.68 331.37 182.7 331.37 178.38 329.05 171.4 325.45 165.24 322.65 162.84 
M 331.49 179.89 335.23 177.61 340.02 171.76 343.1 165.13 343.1 161.03 340.02 154.41 336.23 149.78 
M 340.19 189.6 335.4 183.69 331.73 181.46 
M 342 161.97 344.27 160.45 348.52 154.75 350.27 150.62 
M 350.05 187.25 351.48 183.59 351.48 179.42 348.84 172.68 344.76 166.73 342 164.72 
M 352.19 182.71 356.15 180.44 361.23 174.62 364.5 168.04 364.5 163.96 361.23 157.37 356.15 151.55 355.32 151.08 
M 348.71 163.09 358.92 160.85 
M 348.2 165.7 358.5 165.87 
M 348.87 169.31 358.17 171.46 
M 355.14 186.21 354.52 185.52 350.76 183.4 
M 362.91 168 366.23 165.64 370.48 159.58 372.64 154.19 
M 359.61 154.11 368.64 156.05 
M 373.84 183.64 371.05 177.31 366.71 171.74 363.32 169.57 
M 360.25 182.64 368.52 180.65 
M 379 182.39 382.48 178.33 385.74 171.63 385.74 167.48 382.48 160.78 377.58 155.05 
M 369.41 166.64 379.44 164.75 
M 370.06 169.13 379.66 169.94 
M 370.04 173.02 379.62 174.61 
M 384.57 169.78 386.24 168.47 390.19 162.24 391.9 157.52 
M 380.29 156.41 388.51 158.82 
M 390.7 178.41 387.89 174.61 384.57 172.38 
M 390.53 169.08 393.67 168.78 
M 390.83 172.4 393.67 172.29 
M 390.6 174.81 393.67 175.25 
M 173.96 134.43 173.96 134.43 
M 180.51 203.14 178.01 197.69 
M 177.11 134.08 177.11 134.08 
M 181.93 202.99 183.6 200.19 
M 211.39 129.77 211.39 129.77 
M 229.59 132.58 229.59 132.58 
M 269.89 202.01 272.34 200.76 275.4 197.63 
M 285.27 204.79 285.48 204.36 285.48 200.92 284.23 198.38 
M 272.26 202.92 280.29 202.45 
M 294.83 204.22 299.53 199.57 300.7 197.54 
M 308.71 147.57 308.71 147.57 
M 305.48 198.14 307.65 196.58 
M 307.14 202.44 305.4 199.44 303.12 197.2 
M 323.46 199.01 324.12 197.75 324.12 193.87 323.99 193.62 
M 312.58 195.76 317.88 196.21 
M 329.16 149.37 329.16 149.37 
M 342.11 193.69 340.19 189.6 
M 358.32 189.79 355.14 186.21 
M 372.64 154.19 372.64 154.19 
M 373.84 187.07 373.84 183.64 
M 360.26 185.74 368.64 185.11 
M 359.95 188.54 363.02 189 
M 373.48 186.55 377.42 184.24 379 182.39 
M 206.45 129.19 206.45 129.19 
M 212.92 129.95 220.82 113 229.26 108.41 231.04 105.85 234.43 105.41 237.13 104.32 240.66 103.75 242.71 101.46 245.15 99.57 248.61 98.89 251.35 97.71 253.91 96.27 256.95 95.2 258.98 93.31 263.53 89.77 266.44 88.34 268.97 86.54 270.86 84.09 274.13 83.73 276.83 82.83 278.91 81.3 281.55 81.06 284.47 81.17 293.56 81.08 296.74 81.67 300.16 82.75 302.74 82.99 306.66 83.89 310.1 83.74 313.17 83.22 315.98 82.44 318.98 81.85 321.31 80.6 323.9 78.87 329.75 76.04 331.35 73.29 333.19 70.83 335.41 68.76 337.23 66.28 337.06 63.62 335.84 66.23 336.63 69.2 336.38 72.04 337.6 75.42 339.94 77.31 343.38 80.89 347.26 85.41 349.06 87.71 351.22 90.83 350.86 94.33 348.29 99.47 348.1 101.67 349.6 104.77 352.09 108.87 353.05 111.44 353.18 117.86 352.07 119.7 351.52 121.66 351.89 124.54 354.91 132.85 351.53 150.73 
M 346.1 150.24 346.09 150.24 
M 211.54 129.79 214.13 128.31 215.69 126.09 218.09 121.89 218.35 118.61 
M 216.62 130.44 219.29 128.88 222.5 124.28 223.15 121.83 224.53 118.11 226.05 115.42 
M 221.67 131.32 224.02 129.7 225.49 127.6 228.1 122.96 229.5 120.06 230.8 116.51 235.45 111.82 237.34 109.05 238.9 106.32 
M 226.73 132.16 228.85 131.18 231.94 127.33 234.03 120.74 235.75 116.54 237.62 114.26 239.35 111.44 241.59 109.3 243.1 105.66 
M 231.8 132.91 234.17 131.65 237.4 127.72 240 119.89 240.63 117 242.53 114.56 244.38 111.85 243.94 110.44 243.82 107.92 246.2 105.3 248.73 101.78 
M 236.89 133.55 238.79 132.14 240.5 129.56 242.44 127.43 243.54 124.35 244.76 121.5 246.35 118.55 248.49 113.33 248.34 111.32 247.99 109.61 252.68 102.66 254.31 98.85 255.44 95.37 
M 241.98 134.1 243.67 132.81 245.55 130.26 247.21 127.62 248.22 124.86 249.77 122.29 252.88 116.3 253.71 113.85 254.14 111.44 253.84 108.73 255.22 106.31 257.48 103.33 
M 247.08 134.66 249.16 132.86 250.56 130.53 252.92 126.11 253.98 122.58 257.65 116.66 258.75 113.7 258.48 111.6 
M 252.17 135.24 254.16 133.17 255.45 131.04 257.1 128.87 258.22 125.89 259.94 123.35 261.46 120.39 263.8 114.75 265.54 113.45 
M 257.23 136.06 259.09 134.52 260.93 131.95 262.97 129.56 265.33 127.52 266.35 125.17 268.14 118.33 270.08 113.27 272.37 110.81 
M 262.28 136.93 264.26 135.64 270.57 128.75 273.51 122.48 274.56 119 275.72 116.5 277.71 114.33 279.57 113.07 281.94 108.73 283.71 105.87 285.86 101.23 
M 267.22 138.3 269.67 137.05 273.05 132.23 277.61 127.29 278.71 124.75 279.3 121.75 280.67 118.61 282.83 115.57 283.49 113.67 285.45 111.23 288.58 110.27 293.85 103.28 
M 272.15 139.71 274.22 138.54 277.95 134.15 279.57 131.83 280.99 128.2 282.48 125.37 284.57 123.6 286.37 121.11 289.55 116.15 291.23 114.07 
M 276.98 141.44 279.25 139.97 282.96 135.71 284.34 133.03 286.21 130.42 292.46 123.89 293.86 120.83 295.2 118.36 298.89 113.65 301.2 111.9 303.18 109.71 309.94 100.13 311.18 98.09 312.24 95.61 315.1 93.8 316.68 90.78 318.92 88.5 320.79 85.99 
M 281.82 143.11 285.58 139.24 291.61 131.92 294.25 129.65 296 127.56 297.68 124.67 300.04 119.89 301.92 117.54 303.13 113.6 305.02 111.12 306.64 109.71 308.2 107.71 314.4 96.17 316.24 93.72 
M 286.75 144.52 288.98 142.69 290.93 140.48 295.01 135.18 298.01 130.82 300.03 128.67 301.68 125.87 302.76 123.53 304.62 120.24 305.74 117.03 307.29 114.13 309.75 109.68 311.7 106.86 312.46 103.98 313.96 101.6 
M 291.73 145.74 294.18 143.82 297.67 138.53 299.23 135.7 300.41 133.09 303.19 129.12 305.91 123.58 308.36 117.06 310.44 114.41 312.12 108.95 313.31 106.3 314.17 103.72 315.63 101.49 318.42 95.62 322.54 90.47 323.12 88.48 
M 296.81 146.45 299.01 144.42 302.17 138.84 303.15 135.93 304.82 133.56 306.12 131.02 306.72 129.17 308.11 126.67 310.45 120.63 311.91 117.55 313.64 114.44 314.2 111.07 315 108.14 315.54 105.34 316.25 103.04 318.04 100.98 319.87 98.1 321.08 95.35 322.14 91.85 324 90.2 324.73 87.64 325.35 84.61 326.62 82.35 327.69 78.7 330.22 73.89 
M 301.9 147.03 304.06 144.53 305.59 141.68 308.02 136.5 309.68 133.75 310.47 132.01 311.81 130.36 312.99 127.98 313.99 124.85 316.52 118.06 318.02 114.78 318.86 110.62 318.82 108.21 319.66 105.26 323.07 100.53 324.98 98.88 325.73 95 327.98 90.3 327.87 87.04 329.11 84.83 329.97 82.64 330.58 79.67 332.63 73.6 334.68 71.05 
M 307.01 147.44 308.73 145 311.38 139.99 313.05 137.17 313.89 134.93 315.06 132.64 317.6 130.43 318.92 128.03 319.37 125.18 320.68 121.7 322.15 114.56 321.65 111.58 322.67 108.24 324.32 105.16 325.09 103.33 329.5 97.85 332.1 92.86 331.85 89.99 
M 312.12 147.83 313.78 145.93 314.93 143.14 320.1 133.48 322.53 126.86 324.7 122.17 324.88 120.21 325.84 117.7 326.51 113.99 329.39 106.73 330.1 104.33 331.33 102.72 334.17 100.58 335.12 98.36 335.62 94.64 
M 317.23 148.23 322.26 141.17 323.87 138.43 325.12 135.57 325.82 133.51 326.13 129.79 327.05 126.86 328.93 124.45 331.24 120.38 332.45 117.44 334.68 113.71 335.81 110.13 337.82 107.28 338.47 104.58 338.08 103.22 
M 322.33 148.73 324.38 146.45 327.96 142.01 329.32 139.37 330.53 136.37 332.15 133.64 332.7 130.64 333.6 128.08 334.17 125.84 338.16 120.51 339.3 116.91 340.71 113.84 
M 327.43 149.27 329.23 147.58 330.66 145.32 332.78 142.97 334 139.34 336 135.61 336.11 133.9 337.47 128.69 340.77 123.36 341.61 120.96 
M 332.55 149.57 334.27 148.43 335.86 146.13 337.44 143.03 339.11 139.19 340.97 136.41 341.23 134.87 341.07 132.97 342.13 129.79 342.65 126.75 343.77 124.05 344.97 122.61 346.41 119.91 
M 337.67 149.85 339.73 148.64 342.63 144.3 344.76 141.55 346.39 139.83 346.13 137.16 346.37 134.89 347.14 130.91 348.14 128.72 
M 342.79 150.09 345.97 149.64 347.66 148.14 348.95 145.07 350.41 142.89 
M 169.58 165.97 210.15 151.91 210.51 152.87 169.32 169.8 
M 169.35 170.66 241.44 155.17 241.67 156.17 169.59 174.27 
M 169.67 175.21 259.13 167.91 259.23 168.93 170.92 178.68 
M 171.38 179.88 271.47 184.89 271.43 185.91 172.9 183.48 
M 173.91 185.14 282.55 205.09 282.38 206.1 174.98 188.87 
M 175.17 190.73 257.34 217.72 257.04 218.7 175.27 194.35 
M 175.26 194.89 209.17 211.88 208.74 212.81 175.03 198.22 
M 206.13 154.67 212.19 156.46 215.23 157.15 218.3 157.63 221.38 157.87 224.48 157.86 227.59 157.64 233.86 156.8 
M 234.15 158.06 236.89 161.51 238.37 163.07 239.97 164.45 241.71 165.63 243.59 166.6 245.58 167.4 249.8 168.67 
M 249.92 169.95 251.32 173.96 252.18 175.83 253.21 177.58 254.43 179.18 255.85 180.64 257.43 181.96 260.93 184.36 
M 260.88 185.65 261.97 190.16 262.69 192.31 263.6 194.36 264.72 196.28 266.04 198.08 267.55 199.77 270.93 202.96 
M 270.71 204.23 265.16 205.37 262.47 206.13 259.88 207.07 257.38 208.24 254.99 209.63 252.69 211.21 248.26 214.74 
M 247.88 215.97 238.52 213.29 233.82 212.14 229.08 211.21 224.31 210.52 219.5 210.07 214.67 209.83 204.94 209.75 
M 209.15 155.61 215.23 157.15 218.3 157.63 221.38 157.87 224.48 157.86 230.72 157.26 
M 235.49 159.82 238.37 163.07 239.97 164.45 241.71 165.63 243.59 166.6 247.67 168.07 
M 211.18 165.24 213.04 167.35 214.09 168.25 216.44 169.65 219.09 170.61 
M 250.59 171.98 252.18 175.83 253.21 177.58 254.43 179.18 255.85 180.64 259.15 183.19 
M 220.99 174.58 222.02 177.09 222.69 178.22 224.41 180.21 226.55 181.87 
M 261.39 187.93 262.69 192.31 263.6 194.36 264.72 196.28 266.04 198.08 269.2 201.39 
M 239.13 186.9 240.13 190.26 240.83 191.83 242.7 194.68 245.13 197.22 
M 216.88 185.87 217.58 188.21 218.65 190.32 219.36 191.28 221.05 193.05 
M 267.92 204.76 262.47 206.13 259.88 207.07 257.38 208.24 254.99 209.63 250.46 212.94 
M 232.25 198.76 228.71 199.65 227.02 200.26 223.85 201.92 220.9 204.07 
M 243.21 214.59 233.82 212.14 229.08 211.21 224.31 210.52 219.5 210.07 209.81 209.75 
M 232.34 211.85 233.27 213.52 235.7 216.89 240.74 227.97 240.51 230.93 240.03 233.7 238.69 236.41 240.4 239.71 241.33 243.83 242.27 246.37 240.28 244.57 237.94 242.07 236.2 240.75 228.86 236.71 199.14 217.54 197.05 214.19 192.95 211.16 187.83 206.11 
M 227.4 210.97 228.86 214.01 231.5 217 234.85 218.72 236.91 221.76 
M 221.88 210.29 224.08 212.71 226.24 215.49 227.71 218.22 230.49 220.21 232.65 223.44 235.12 226.43 236.33 228.61 238.46 230.28 
M 215.5 209.87 219.82 215.08 223.22 217.97 224.83 220.58 227.61 222.67 
M 210.49 209.76 212.89 212.91 217.76 218.18 220.29 220.67 222.3 222.32 225.35 223.99 231.73 230.59 235.78 236.55 238.17 239.41 240.03 243.67 241.86 246.08 
M 205.02 209.75 205.78 210.6 207.83 213.61 210.37 216.08 212.69 218.86 217.54 223.84 220.41 225.51 223.63 226.89 227.9 231.14 231.01 234.39 232.89 238.72 
M 194.99 205.3 198.79 208.92 201.22 212.03 206.07 216.62 208.09 219.22 
M 355.4 192.35 360.62 197.63 364.51 201.83 366.68 206.91 367.77 211.12 365.18 212.84 363.19 215.16 361.95 218.17 361.91 222.16 361.56 225.32 356.63 227.49 354.69 229.84 352.19 231.61 350.5 233.94 350.28 237.74 348.35 240.14 345.46 241.35 334.12 235.28 328.43 232.45 326.05 232.7 323.64 233.2 320.01 232.46 317.63 231.69 314.93 229.06 301.35 219.71 297.88 215.01 294.59 212.26 290.24 207.86 
M 350.44 193.61 357.19 201.24 360.44 204.08 
M 345.48 194.92 352.43 202.59 354.76 205.62 360.56 210.87 362.94 213.75 
M 340.59 196.47 345.19 200.9 350.74 205.76 353.42 209 
M 335.71 198.02 342.25 204.32 347.74 208.81 350.83 212.6 
M 330.82 199.56 334.19 203.37 336.19 206.38 338.89 209.29 341.95 212.04 344.92 215.1 348.45 217.94 349.96 221.38 
M 325.91 201.02 331.68 209.08 339.67 218.45 341.97 220.93 344.39 222.84 349.45 228.9 
M 320.94 202.29 324.06 206.73 326.11 210.24 328.75 213 332.14 215.21 334.64 218.46 
M 315.95 203.48 320.67 210.69 323.45 213.47 329.5 216.88 331.99 220.54 332.99 223.96 334.93 226.63 338.74 229.46 
M 310.95 204.57 316.47 211.02 318.74 214.09 323.97 220.43 
M 305.91 205.55 311.47 211.44 316.67 219.12 
M 300.87 206.44 304.64 209.86 307.06 212.82 309.66 215.31 311.43 219.14 
M 295.79 207.15 299.66 210.95 305.08 216.65 
M 392.64 157.65 396.23 157.12 401.89 153.64 404.66 152.19 407.16 152.19 409.77 150.64 413.39 150.28 415.73 148.92 417.96 147.27 421.03 144.46 423.75 141.56 426.66 139.4 429.54 136.54 432.77 135.7 435.36 136.19 444.68 136.66 447.59 136.6 450.92 136.95 453.46 136.62 459.71 138.47 463.67 140.24 465.51 139.89 468.21 140.56 471.64 141.99 474.37 142.74 477.06 144.91 482.95 151.65 485.81 156.28 487.67 159.72 488.27 165.39 489.38 169.04 490 172.71 489.57 179.3 486.68 180.49 485.5 183.38 484.71 186.72 482.77 189.06 480.52 191.09 479.15 194.01 476.83 196.01 475.89 199.39 472.67 200.48 469.86 201.97 467.43 203.83 464.64 205.26 462.11 206.78 459.85 208.57 456.75 209.53 453.87 210.12 450.61 209.91 446.92 209.28 444.77 209.34 433.46 212.51 431.53 211.91 429.1 208.72 427.85 205.99 425.6 203.44 423.48 201.33 420.82 200.05 416.98 198.88 413.15 196.84 410.55 194.69 408.23 192 405.93 189.81 400.21 185.61 392.64 181.17 
M 396.2 158.71 402.68 155.68 405.34 154.64 408.33 153.95 411.06 152.58 416.78 151.49 419.72 149.87 
M 402.94 157.93 411.78 154.77 414.58 153.52 417.93 152.51 420.78 152.4 423.36 151.44 
M 396.34 162.03 406.11 158.97 409.69 158.26 412.28 157.03 418.31 154.96 421.26 154.53 424.01 154.34 426.66 153.21 
M 400.01 163.25 406.27 161.57 409.39 161.15 413.11 159.96 422.28 157.68 426.01 156.56 428.96 156.52 431.75 156.23 434.64 155.55 437.53 155.63 440.46 155.42 443.36 154.94 447.49 154.65 451.46 152.41 454.44 151.63 457.05 152.04 460.19 151.15 463.14 149.85 465.74 147.86 468.56 147.08 
M 403.6 164.95 406.39 164.64 409.44 163.85 413.35 163.38 416.28 163.35 422 162.16 432.52 160.76 434.36 160.74 440.27 161.79 447.31 160.38 452.31 159.13 454.52 159.18 456.03 158.02 
M 392.64 167.06 396.88 167.36 406.89 167.37 409.6 167.2 425.81 166.86 430.13 166.2 435.36 166.48 437.97 167.05 
M 403.63 169.71 406.97 169.87 412.33 169.79 415.25 170.66 418.76 170.69 421.8 171.4 425.66 171.36 430.06 170.49 432.9 171.52 438.21 172.46 449.69 170.66 
M 399.94 171.17 403.55 171.65 407.05 172.43 412.42 172.46 415.11 173.47 421.83 174.73 425.91 174.76 429.38 173.9 436.01 175.94 439.77 176.87 442.95 177.14 446.1 176.35 450.16 174.34 453.26 174.52 462.83 176.25 467.29 176.86 
M 400.03 173.36 403.49 173.99 410.22 175.54 412.39 175.65 415.15 176.84 421.88 178.08 425.86 177.85 429.41 177.12 433.01 178.43 436.47 181.29 439.7 181.59 443.01 182.23 445.65 181.69 448.41 180.54 451.14 180.31 455.32 180.45 
M 396.6 174.78 403.53 176.65 412.5 178.61 415.11 180.14 418.02 181.26 421.52 181.76 428.89 182.16 432.87 183.49 436.69 184.35 439.62 186.43 444.93 188.59 447.9 188.43 450.02 188.6 453.2 189.38 458.82 189.16 461.97 189.99 466.64 190.2 
M 392.64 174.9 396.64 176.74 400 177.92 406.72 179.62 409.81 180.68 415.34 183.6 417.53 184.56 421.25 185.89 425.21 186.99 429.4 187.64 435.86 189.17 438.25 191.83 
M 396.71 178.58 406.63 181.93 409.89 183.23 413 185.15 415.27 187.12 418.1 189.25 421.3 190.92 424.52 191.96 428.6 191.65 434.69 194.83 
M 400.42 181.71 403.7 183.03 410.16 186.54 413.09 188.27 417.97 192.48 420.77 194.07 423.96 195.33 
M 403.7 185.24 406.73 187.19 412.16 191.25 414.11 193.97 417.38 195.41 420.83 197.17 424.38 197.9 430.17 200.89 432.12 203.18 433.99 205.85 
M 48.56 156.63 52.4 154.44 61.52 150.39 67.16 148.05 74.16 146.09 81.8 144.19 90 143.23 98.34 141.94 106.7 139.9 115.46 138.37 124.31 136.48 132.67 135.31 140.03 134.72 146.98 134.48 157.63 134.76 159.97 135.09 163.36 138.5 166.38 145.67 167.61 149.29 168.24 152.99 169.49 156.61 170.03 160.32 169.88 164.13 169.26 167.99 169.69 175.5 172.43 182.71 174.57 186.21 175.14 189.92 175.28 193.68 175.22 197.47 174.21 201.39 169.21 205.82 152.17 205.83 139.85 205.34 128.78 204.13 118.62 202.91 108.96 200.81 92.4 195.66 85.41 192.79 78.93 189.43 72.17 185.5 
M 70.46 184.34 66.94 181.95 62.25 178.19 54.37 171.43 51.2 168.28 49.11 164.82 
M 138.59 154.48 138.19 157.74 136.9 160.9 135.15 166.36 135.29 168.57 135.7 170.59 137.38 172.5 139.86 177.08 141.64 179.76 143.05 182.7 141.53 186.53 121.88 187.61 105.95 187.62 98 186.64 90.56 184.87 83.79 182.86 
M 70.77 184.63 66.17 180.28 53.07 168.73 49.31 165.01 45.49 161.59 44.27 159.41 45.07 156.98 47.37 156.04 49.59 157.15 52.9 161.31 67.52 178.55 72.69 185.01 
M 72.33 185.89 67.09 185.93 62.07 186.27 54.37 187.08 34.1 187.75 31.51 187.21 30 185.11 30.74 182.78 33.12 181.75 35.67 181.8 48.44 183.1 66.2 184.16 72.31 184.83 
M 93.22 179.25 89.66 174.27 87.92 168.4 88.17 162.29 90.4 156.58 94.35 151.91 99.61 148.78 105.6 147.52 111.68 148.28 117.18 150.97 121.51 155.3 124.19 160.8 124.95 166.87 123.7 172.86 120.56 178.12 115.89 182.08 110.19 184.3 104.07 184.56 98.2 182.81 93.22 179.25 
M 118.48 157.46 120.63 161.86 121.24 166.72 120.23 171.51 117.72 175.72 113.99 178.88 109.42 180.66 104.53 180.87 99.84 179.47 95.85 176.62 
M 100.34 170.59 98.92 168.6 98.22 166.25 98.32 163.81 99.21 161.53 100.79 159.66 102.9 158.4 105.29 157.9 107.72 158.2 109.92 159.28 111.66 161.01 112.73 163.21 113.03 165.64 112.53 168.04 111.28 170.14 109.41 171.72 107.13 172.61 104.68 172.72 102.34 172.02 100.34 170.59 
M 99.87 168.83 103.36 172.32 
M 98.8 164.99 106.45 172.64 
M 99.72 163.14 108.61 172.04 
M 101.27 161.92 110.31 170.96 
M 102.21 160.1 111.64 169.53 
M 105.46 160.57 112.6 167.72 
M 107.11 159.46 113 165.35 
M 110.1 159.68 111.87 161.46 
M 51.71 154.81 57.49 160.59 
M 55.98 152.93 61.35 158.31 
M 60.2 151 63.98 154.78 
M 64.5 149.15 68.78 153.43 
M 69.03 147.53 73.6 152.1 
M 73.83 146.18 78.91 151.26 
M 78.75 144.95 84.81 151.01 
M 83.9 143.94 87.15 147.2 
M 89.4 143.3 93.52 147.42 
M 94.75 142.49 97.97 145.72 
M 99.95 141.55 105.34 146.94 
M 104.89 140.34 110.25 145.69 
M 110.02 139.32 115.85 145.14 
M 115.26 138.4 120.01 143.16 
M 120.34 137.33 124.84 141.83 
M 125.48 136.32 131.48 142.32 
M 130.87 135.56 135.6 140.29 
M 136.47 135 141.09 139.63 
M 142.26 134.64 147.93 140.32 
M 148.27 134.51 152.08 138.32 
M 154.57 134.65 159.85 139.93 
M 103.94 140.58 104.64 141.01 105.59 141.91 106.57 143.94 107.09 144.46 109.94 145.53 111.07 146.16 111.52 146.96 111.98 148.43 
M 162.74 196.06 162.07 195.89 161.07 195.94 159.47 196.64 158.19 196.84 157.5 196.59 156.14 195.67 
M 154.33 202.4 153.73 201.2 153.47 199.97 153.59 196.64 153.44 195.16 152.36 192.01 
M 112.44 146.82 112.52 148.69 
M 114.91 146.51 113.07 148.96 
M 108.83 139.52 109.48 143.03 111.22 144.82 
M 166.85 147.06 163.69 144.94 161.91 144.41 158.3 143.79 155.28 142.28 
M 93.32 152.33 92.58 153.86 91.7 154.81 91.36 155.44 
M 163.71 142.14 161.96 141.4 159.31 139.85 156.03 137.04 155.09 136.63 153.47 136.41 152.96 136.52 152.36 136.98 
M 154.54 198.47 154.21 196.91 152.58 192.41 151.15 189.83 
M 137.99 196.18 137.07 196.94 134.97 197.95 133.35 199.01 132.84 199.61 131.75 201.85 131.69 202.36 
M 146.83 160.15 147.16 158.79 146.33 153.65 146.32 152.07 146.13 151.24 145.35 149.83 
M 144.88 154.69 144.58 152.95 142.75 149.28 141.94 148.56 141.34 148.51 140.58 148.76 
M 108.49 189.22 107.89 188.85 106.89 188.92 106.51 189.52 106.62 190.18 
M 139.36 152.04 140.72 151.69 141.32 151.22 141.71 150.39 141.58 149.58 
M 138.33 142.88 136.24 143.76 133.2 144.21 132.11 145.22 131.66 146.97 
M 136.43 200.11 133.75 200.8 132.14 201.62 131.72 202.19 131.87 202.97 
M 55.33 172.09 55.25 172.15 
M 129.39 174.83 131 174.92 131.84 174.67 134.46 172.65 134.73 172.34 134.91 171.75 134.48 169.63 
M 138.63 197.77 137.69 198.5 133.7 200 133.07 200.41 131.83 201.79 131.71 202.46 
M 140.02 191.59 140.26 192.16 140.24 192.59 139.86 193.85 138.28 196.57 137.42 197.46 133.44 199.19 132.61 200.36 
M 143.46 166.94 144.31 165.1 145.48 163.48 147 159.82 
M 143.19 154.53 143.21 152.18 142.68 149.88 142.23 149.1 141.77 148.78 141.19 148.74 140.49 148.95 
M 114.46 199.95 115.22 198.73 115.34 198.11 115.13 197.2 114.19 195.97 113.79 195.04 113.74 194.39 114.3 192.42 
M 163.8 194.55 162.12 193.79 158.39 192.83 156.87 192.25 
M 155.39 174.37 154.62 174.33 153.87 173.98 151.72 172.06 150.78 170.67 150.34 168.9 
M 169.44 156.46 167.53 154.91 166.22 154.14 165.62 154.03 165 154.15 164.51 154.83 
M 89.09 172.34 87.62 170.33 87.04 169.83 86.36 169.51 84.74 169.27 83.95 169.37 82.34 170.26 81.18 171.55 80.92 172.55 
M 138.94 146.96 136.35 148.55 135.69 148.64 133.55 148.5 
M 153.68 150.45 153.46 149.47 152.69 148.92 150.83 148.27 149.23 148.12 148.04 147.72 
M 151.9 144.19 150.73 145.41 149.21 145.75 148.6 146.29 
M 120.04 193.15 122.07 192.28 123.11 191.28 123.29 190.81 123.39 189.27 124.06 186.75 
M 90.65 190.95 90.45 190.12 90.35 187.31 90.06 185.17 88.68 182.54 86.54 180.4 
M 89.16 175.28 87.24 171.84 85.92 170.54 84.96 170.46 84.42 170.74 83.21 171.91 82.82 172.48 82.63 173.09 
M 160.43 155.98 161.68 156.61 163.8 158.33 164.27 158.22 164.54 157.8 
M 80.92 180.55 83.79 179.87 84.93 179.36 85.45 178.9 85.78 177.99 84.98 175.18 
M 122.31 190.53 123.38 188.41 124.52 184.45 124.67 183.44 124.56 181.02 
M 133.24 191.13 132.05 191.16 130.7 191.43 129.88 191.95 129.3 192.62 128.96 193.9 129.06 196.23 128.72 199.64 
M 163.65 198.84 162.75 198.58 161.29 198.77 159.51 199.95 158.37 200.3 157.26 200.02 156.26 199.38 
M 146.66 191.78 146.04 191.06 145.01 190.33 
M 163.35 168.78 162.36 169.59 160.92 172.4 160.11 172.68 
M 116.82 144.7 113.11 148.98 
M 159.17 146.72 156.78 146.33 153.79 146.38 153.01 146.47 150.02 147.6 149.01 147.74 148.46 147.64 
M 73.22 149.51 72.02 152.36 71.78 153.46 71.91 154.24 73.05 155.2 
M 115.59 138.34 115.44 139.48 114.34 141.87 112.78 148.82 
M 63.51 177.97 62.77 178.61 
M 155.96 156.68 156.58 157.32 158.01 157.99 159.11 158.19 161.32 158.17 162.44 158.53 163.35 159.12 
M 149.87 161.54 150.12 160.85 150.3 158.52 150.26 156.88 151.17 154.27 151.04 152.65 150.43 151.07 
M 141.06 156.23 142.86 151.98 142.85 150.95 142.53 149.8 142.13 149.1 141.67 148.83 
M 79.66 169.11 76.03 169.54 74.79 170.07 73.94 170.99 73.29 172.12 72.76 174.95 
M 109.8 193.72 111.81 190.81 111.91 190.46 111.84 190.16 111.4 189.77 109.52 189.05 
M 98.36 146.25 96.6 144.87 94.32 142.56 
M 113.17 138.77 113.23 140.11 112.65 148.76 
M 153.58 200.15 153.64 196.85 153.5 195.37 152.45 192.17 151.27 190.2 
M 161.29 159.73 162.94 160.11 163.77 160.09 
M 121.8 197.68 122.45 196.72 122.82 196.46 123.61 196.24 124.79 196.37 125.51 196.82 126.27 197.6 127.56 199.41 
M 126.48 203.17 128.27 203.09 129.15 203.42 130.42 204.31 
M 167.26 162.8 166.76 161.86 164.86 159.89 164.09 159.35 163.82 159.47 
M 80.86 147.74 80.94 146.89 81.97 144.17 
M 57.44 155.97 58.21 157.96 58.37 160.27 58.04 160.73 
M 121.64 177.6 125.54 173.39 126.04 172.38 126.58 170.36 126.76 169.31 126.72 167.28 125.79 164.49 124.62 163.1 
M 108.84 184.36 108.1 185.1 106.85 185.72 
M 113.81 189.78 114.01 186.97 114.45 185.03 114.43 183.34 114.69 182.93 
M 113.7 185.54 113.66 185.02 113.34 184.3 112.71 183.81 112.11 183.76 110.34 184.43 107.91 186.54 
M 152.23 161.93 154.83 158.53 155.46 158.35 158.48 158.89 
M 167.42 165.45 166.92 164.1 165.71 161.97 163.79 160.26 
M 100.08 183.37 98.92 183.75 97 185.37 96.28 185.75 95.8 185.6 95.38 184.83 
M 115 187.44 115.6 185.73 117.5 181.96 118.15 180.17 
M 121.94 175.81 123.93 173.3 
M 81.7 169.93 80.59 170.86 79.77 171.87 79.25 171.81 
M 92.61 148.81 92.09 148.79 91.63 148.47 90.05 146.18 
M 162.18 147.09 158.61 146.1 157.35 145.9 154.13 145.76 153.41 145.89 150.94 147.28 150.08 147.54 
M 87.59 191.15 88.51 189.51 88.66 188.72 88.4 184.47 88.17 183.61 86.56 180.75 
M 164.98 186.21 162.87 187.79 160.65 189.09 158.25 189.75 155.53 189.81 
M 125.85 185.79 125.08 182.56 124.83 180.67 124.91 179.7 125.33 178.64 126.01 177.67 127.03 176.99 128.04 176.6 130.83 176.7 
M 136.32 154.42 138.28 153.23 139.59 152.22 140.2 151.97 
M 58.38 162.57 58.55 162.01 58.47 161.54 58.18 161.17 57.61 160.93 
M 88.02 168.74 85.4 168.25 83.45 168.17 
M 120.72 182.49 121.04 180.26 121.4 179.13 122.1 178.04 124.06 175.89 126.18 174.14 126.74 173.28 127.83 169.37 127.72 167.24 
M 101.41 145.07 100.91 144.12 98.7 141.85 
M 92.19 184.24 91.75 181.35 91.12 179.75 87.29 174.86 86.8 174.02 86.55 172.56 
M 137.51 177.98 136.72 176.73 136.26 175.51 136.15 174.27 136.49 172.52 135.95 170.98 
M 110.01 185.26 108.31 186.93 106.38 187.95 105.75 188.75 
M 129.02 173.06 129.39 172.56 129.65 171.83 129.8 170.81 129.83 169.53 129.57 166.58 128.93 164.96 128.26 163.9 126.22 162.25 
M 113.66 193.01 114.6 186.9 115.39 184.6 116.62 182.43 
M 78.2 170.51 76.54 170.86 75.96 171.26 74.78 172.73 74.51 173.84 74.51 174.6 
M 56.91 153.13 56.92 155.2 57.91 158.16 57.9 159.25 58.1 160.24 58 160.61 
M 81.49 170.69 80.84 171.6 80.67 172.2 80.74 172.71 81.52 173.69 82.21 173.89 83.05 173.89 
M 105.09 140.29 105.86 141.23 106.75 143.51 107.21 144.19 107.82 144.57 109.95 145.33 111.07 145.98 111.51 146.78 
M 126.18 184.42 125.57 182.89 125.05 180.03 125.34 178.99 125.92 178 126.84 177.27 127.8 176.81 128.82 176.71 130.62 176.82 131.46 176.64 132.16 176.17 132.75 175.52 
M 72.24 185.44 73.21 186.47 
M 69.27 183.2 69.38 183.32 
M 66.05 180.18 66.1 180.9 66.62 180.69 
M 62.96 177.5 62.9 178.49 63.57 178.02 
M 59.89 174.8 59.7 176.07 60.2 175.47 60.51 175.34 
M 56.88 172.01 56.65 172.4 56.51 173.66 57.08 172.85 57.52 172.63 
M 53.8 169.35 53.53 169.78 53.31 171.25 53.95 170.23 54.48 169.93 
M 50.82 166.55 50.4 167.16 50.11 168.84 50.82 167.61 51.48 167.21 
M 47.89 163.68 47.27 164.54 46.91 166.42 47.7 164.99 48.64 164.39 
M 45.02 160.76 44.15 161.92 43.71 164.01 44.57 162.37 45.6 161.68 
M 72.33 185.72 73.53 185.75 
M 60.72 183.87 61.02 183.6 61.04 183.88 
M 56.48 183.63 57.2 182.9 57.15 183.67 
M 52.46 183.38 52.59 183.04 53.37 182.19 53.2 183.06 53.32 183.45 
M 48.48 183.1 48.67 182.51 49.55 181.48 49.28 182.53 49.44 183.16 
M 44.54 182.72 44.75 181.98 45.72 180.78 45.36 181.99 45.54 182.84 
M 40.61 182.32 40.82 181.44 41.9 180.07 41.44 181.46 41.61 182.42 
M 36.69 181.9 36.9 180.91 38.07 179.36 37.52 180.93 37.69 182 
M 32.67 181.94 32.98 180.37 34.24 178.66 33.6 180.39 33.79 181.76 
M 40.51 187.49 45.5 189.25 51.73 191.11 58.13 192.68 64.75 193.93 71.61 194.81 78.52 195.31 92.4 195.66 
M 59.91 189.61 59.09 189.69 
M 69.13 191.71 68.38 191.89 67.21 191.76 66.63 191.91 66.42 192.08 66.31 192.61 66.64 193.5 
M 163.38 135.1 174.67 146.39 
M 171.23 134.74 178 141.51 
M 178.59 133.9 185.71 141.02 
M 185.16 132.28 196.44 143.56 
M 191.8 130.71 199.1 138.01 
M 198.73 129.44 210.43 141.14 
M 206.71 129.22 217.59 140.1 
M 216.03 130.33 225.72 140.03 
M 225.94 132.05 234.43 140.53 
M 235.5 133.41 242.91 140.81 
M 244.69 134.39 255.75 145.45 
M 254.01 135.51 264.21 145.71 
M 264.15 137.45 275.3 148.6 
M 275.99 141.08 283.35 148.44 
M 287.98 144.88 297.65 154.55 
M 297.92 146.61 305.87 154.56 
M 306.94 147.43 315.31 155.81 
M 315.83 148.12 323.79 156.08 
M 324.91 149 336.1 160.19 
M 333.75 149.64 344.7 160.58 
M 342.38 150.07 351.88 159.56 
M 351.22 150.7 357.52 157 
M 360.68 151.96 368.37 159.65 
M 370.73 153.81 378.98 162.06 
M 380.69 155.57 392.66 167.54 
M 390.61 157.29 399.16 165.84 
M 214.33 129.14 214.87 130.21 
M 216.48 124.21 219.88 131.01 
M 218.25 118.52 223.29 128.61 
M 220.47 113.75 227.35 127.5 
M 229.32 131.44 229.92 132.63 
M 223.9 111.36 228.94 121.45 
M 233.52 130.62 234.86 133.3 
M 227.53 109.41 234.41 123.17 
M 237.16 128.67 239.15 132.64 
M 230.65 106.41 244.06 133.24 
M 234.7 105.3 238.83 113.55 
M 239.75 115.39 249.52 134.94 
M 238.7 104.07 240.99 108.65 
M 241.91 110.49 242.83 112.32 
M 244.66 115.99 245.58 117.82 
M 246.5 119.66 254.47 135.61 
M 242.26 101.96 247.3 112.05 
M 248.22 113.88 249.14 115.71 
M 250.05 117.55 257.39 132.22 
M 245.63 99.48 260.76 129.74 
M 249.72 98.42 265.76 130.51 
M 268.51 136.01 270.07 139.12 
M 253.86 97.48 267.61 124.98 
M 269.45 128.65 275.59 140.94 
M 257.67 95.87 260.42 101.37 
M 264.09 108.71 270.51 121.55 
M 274.18 128.88 281.18 142.88 
M 260.44 92.19 265.49 102.28 
M 267.32 105.94 275.57 122.45 
M 277.41 126.12 281.99 135.29 
M 283.82 138.95 286.59 144.48 
M 263.79 89.65 267.91 97.9 
M 270.66 103.4 291.84 145.75 
M 267.4 87.65 270.61 94.07 
M 273.36 99.57 281.61 116.08 
M 282.53 117.91 296.8 146.45 
M 270.48 84.58 270.94 85.5 
M 276.44 96.5 284.69 113.01 
M 286.53 116.68 301.21 146.05 
M 275.96 86.33 300.72 135.84 
M 305.31 145.01 306.5 147.4 
M 278.29 81.75 290.67 106.51 
M 291.59 108.34 300.76 126.68 
M 307.18 139.52 311.3 147.77 
M 282.58 81.1 291.29 98.52 
M 295.87 107.69 303.21 122.36 
M 306.88 129.7 316.1 148.14 
M 287.21 81.14 307.84 122.4 
M 309.68 126.07 320.94 148.6 
M 291.8 81.08 307.84 113.18 
M 309.68 116.85 317.93 133.35 
M 319.76 137.02 325.8 149.1 
M 296.7 81.67 301.75 91.75 
M 305.41 99.09 310.92 110.09 
M 316.42 121.1 330.59 149.45 
M 301.94 82.92 305.15 89.34 
M 314.32 107.67 315.24 109.51 
M 321.65 122.35 333.58 146.19 
M 334.69 148.41 335.34 149.72 
M 307.03 83.88 309.33 88.46 
M 310.24 90.3 312.99 95.8 
M 318.5 106.8 319.41 108.64 
M 325.83 121.47 326.75 123.31 
M 327.67 125.14 338.67 147.15 
M 311.46 83.51 316.51 93.6 
M 320.18 100.93 324.76 110.1 
M 329.35 119.27 330.26 121.11 
M 331.18 122.94 332.1 124.78 
M 333.93 128.44 344.8 150.18 
M 315.59 82.54 319.72 90.8 
M 326.14 103.63 327.97 107.3 
M 330.72 112.8 335.31 121.97 
M 338.98 129.31 347.23 145.81 
M 349.98 151.32 351.02 153.41 
M 319.67 81.48 324.72 91.56 
M 329.3 100.73 330.22 102.57 
M 333.89 109.9 348.56 139.25 
M 323.21 79.33 328.26 89.42 
M 337.43 107.76 341.09 115.09 
M 342.93 118.76 352.1 137.1 
M 326.87 77.41 331.91 87.5 
M 338.33 100.34 344.75 113.17 
M 347.5 118.68 354.14 131.96 
M 330.31 75.07 330.77 75.99 
M 335.36 85.16 337.19 88.83 
M 338.11 90.66 347.28 109 
M 351.89 118.23 352.38 119.2 
M 332.96 71.14 336.17 77.56 
M 337.09 79.39 348.12 101.46 
M 350.6 106.42 351.06 107.34 
M 341.31 78.62 349.11 94.21 
M 222.23 291.39 224.54 297.7 
M 226.43 291.39 220.34 297.7 
M 227.06 295.3 230.66 295.3 230.84 294.7 230.72 294.1 230 293.5 229.1 293.5 228.41 293.8 227.63 294.39 227.06 295.3 226.88 295.89 226.91 296.8 227.33 297.39 227.84 297.7 228.74 297.7 229.43 297.39 230.21 296.8 
M 233.3 293.5 232.04 297.7 
M 232.94 294.7 234.11 293.8 234.8 293.5 235.7 293.5 236.21 293.8 236.24 294.7 235.34 297.7 
M 240.2 293.5 239.51 293.8 238.73 294.39 238.16 295.3 237.98 295.89 238.01 296.8 238.43 297.39 238.94 297.7 239.84 297.7 240.53 297.39 241.31 296.8 241.88 295.89 242.06 295.3 242.03 294.39 241.61 293.8 241.1 293.5 240.2 293.5 
M 247.73 294.39 247.31 293.8 246.8 293.5 245.9 293.5 245.21 293.8 244.43 294.39 243.86 295.3 243.68 295.89 243.71 296.8 244.13 297.39 244.64 297.7 245.54 297.7 246.23 297.39 247.01 296.8 
M 250.73 291.39 248.84 297.7 
M 249.74 294.7 250.91 293.8 251.6 293.5 252.5 293.5 253.01 293.8 253.04 294.7 252.14 297.7 
M 257 293.5 256.31 293.8 255.53 294.39 254.96 295.3 254.78 295.89 254.81 296.8 255.23 297.39 255.74 297.7 256.64 297.7 257.33 297.39 258.11 296.8 258.68 295.89 258.86 295.3 258.83 294.39 258.4 293.8 257.89 293.5 257 293.5 
M 262.13 291.39 260.24 297.7 
M 267.2 293.5 265.94 297.7 
M 266.93 294.39 266.51 293.8 266 293.5 265.1 293.5 264.4 293.8 263.63 294.39 263.06 295.3 262.88 295.89 262.9 296.8 263.33 297.39 263.84 297.7 264.74 297.7 265.43 297.39 266.2 296.8 
M 272.6 293.5 271.33 297.7 
M 272.06 295.3 272.63 294.39 273.4 293.8 274.1 293.5 275 293.5 
M 275.65 295.3 279.26 295.3 279.44 294.7 279.32 294.1 278.6 293.5 277.7 293.5 277.01 293.8 276.23 294.39 275.65 295.3 275.48 295.89 275.51 296.8 275.93 297.39 276.44 297.7 277.33 297.7 278.02 297.39 278.81 296.8 
M 281.89 293.5 280.64 297.7 
M 281.54 294.7 282.7 293.8 283.39 293.5 284.3 293.5 284.81 293.8 284.83 294.7 283.94 297.7 
M 287.6 293.5 286.7 296.5 286.73 297.39 287.24 297.7 288.14 297.7 288.83 297.39 290 296.5 
M 290.89 293.5 289.64 297.7 
M 296.02 294.39 295.9 293.8 295.1 293.5 294.2 293.5 293.2 293.8 292.73 294.39 292.85 295 293.36 295.3 294.77 295.6 295.27 295.89 295.31 296.8 294.83 297.39 293.83 297.7 292.94 297.7 292.13 297.39 292.01 296.8 
M 297.62 297.1 297.23 297.39 297.44 297.7 297.83 297.39 297.62 297.1 
"/></svg>
