<svg xmlns="http://www.w3.org/2000/svg" width="520" height="320"><rect x="0" y="0" width="520" height="320" fill="floralwhite"/><rect x="10" y="10" width="500" height="300" stroke="black" stroke-width="1" fill="none"/><path stroke="black" stroke-width="1" fill="none" stroke-linecap="round" stroke-linejoin="round" d="
M 183.86 90.21 192.56 82.8 201.25 76.26 209.95 70.68 218.64 66.36 227.33 62.72 236.02 59.39 244.71 56.8 262.09 55.47 270.78 54.09 279.47 54.18 288.16 56.02 305.54 57.74 322.93 62.39 331.62 66.6 340.31 72.04 349 78.22 357.69 85.19 375.07 100.45 383.76 106.94 402.13 119.71 
M 402.13 179.74 349 220.54 331.62 231.95 322.93 236.67 305.54 243.24 296.85 247.37 288.16 249.83 262.09 249.48 253.4 247.01 236.02 238.07 227.33 233.1 209.95 220.18 192.58 210.08 
M 190.64 102.75 191.64 102.2 195.57 97.85 198.1 92.93 198.1 89.88 195.57 84.95 193.2 82.33 
M 194.94 128.32 196.6 126.21 199.1 120.63 199.1 117.18 196.6 111.6 192.73 106.68 191.39 105.82 
M 196.74 190.35 198.98 184.52 198.98 180.55 198.72 179.89 
M 198.04 91.64 201.86 90.21 206.75 86.55 209.9 82.41 209.9 79.85 206.75 75.71 204.61 74.11 
M 199.05 118.62 202.7 116.83 207.38 112.24 210.4 107.05 210.4 103.83 207.38 98.64 202.7 94.05 199.05 92.26 
M 207.14 141.67 210.31 135.62 210.31 131.97 207.27 126.07 202.57 120.86 198.89 118.82 
M 198.58 181.14 202.2 178.98 206.83 173.47 207.99 171.05 
M 208.35 197.12 208.35 195.32 205.47 189.5 200.99 184.37 198.27 182.81 
M 198.86 193.38 203.17 192.92 
M 208.28 80.24 211.54 79.07 215.72 76.08 218.42 72.69 218.42 70.6 216.06 67.64 
M 208.82 104.26 211.91 102.65 215.87 98.53 218.42 93.86 218.42 90.97 215.87 86.3 211.91 82.17 208.82 80.56 
M 209.09 133.27 212.09 131.34 215.94 126.38 218.41 120.78 218.41 117.3 215.94 111.7 212.09 106.74 209.09 104.81 
M 206 115.79 213.54 114.39 
M 205.95 118.87 214.31 119.1 
M 205.78 121.68 214.3 123.17 
M 216.12 142.1 215.78 141.28 211.8 135.85 208.69 133.74 
M 207.91 196.94 210.68 194.88 214.35 189.44 216.72 183.27 216.72 179.45 214.35 173.29 213.73 172.36 
M 218.02 71.86 221.84 70.98 226.74 68.74 229.9 66.2 229.9 64.62 227.46 62.66 
M 218.45 92.42 222.16 91.05 226.9 87.53 229.97 83.55 229.97 81.08 226.9 77.1 222.16 73.58 218.45 72.21 
M 218.66 118.79 222.27 117.03 226.89 112.51 229.87 107.39 229.87 104.23 226.89 99.11 222.27 94.6 218.66 92.84 
M 214.87 102.93 224.17 101.51 
M 215.56 105.71 224.79 105.35 
M 214.91 108.01 224.83 109.25 
M 226.14 142.59 226.77 141.89 229.74 136.03 229.74 132.4 226.77 126.55 222.15 121.37 218.55 119.35 
M 214.96 131.36 224.14 129.66 
M 215.41 134.55 224.56 134.38 
M 215.07 136.72 224.28 138.97 
M 217.78 180.86 221.37 178.74 225.97 173.31 228.93 167.15 228.93 166.77 
M 223.53 205.38 224.48 204.31 227.46 198.45 227.46 194.82 224.48 188.97 219.87 183.79 216.27 181.78 
M 228.77 63.65 231.13 63.2 235.13 61.68 237.71 59.97 237.69 58.89 
M 228.34 80.8 231.37 79.67 235.25 76.77 237.75 73.49 237.75 71.46 235.25 68.18 231.37 65.29 228.77 64.31 
M 225.49 70.33 232.92 70.03 
M 225.63 72.28 232.74 72.51 
M 225.65 73.67 233.37 75.35 
M 228.81 104.14 231.34 102.79 235.14 98.74 237.59 94.14 237.59 91.3 235.14 86.71 231.34 82.66 228.37 81.08 
M 228.36 133.25 231.33 131.32 235.14 126.39 237.59 120.8 237.59 117.34 235.14 111.75 231.33 106.82 228.81 105.18 
M 235.37 143.03 234.74 141.45 230.98 136.07 228.04 133.98 
M 226.57 196.66 229.63 194.51 233.54 189.02 236.06 182.79 236.06 178.94 233.54 172.72 229.63 167.22 228.97 166.76 
M 223.76 177.85 231.97 176.19 
M 223.26 181.31 231 180.45 
M 224.08 184.46 231.66 185.64 
M 234.98 210.82 232.42 205.12 228.44 200.11 225.33 198.16 
M 237.8 72.2 241.41 71.35 246.04 69.18 249.03 66.72 249.03 65.2 246.04 62.74 241.41 60.56 237.8 59.72 
M 237.76 92.31 241.28 90.96 245.79 87.51 248.7 83.59 248.7 81.17 245.79 77.25 241.28 73.8 237.76 72.45 
M 234.85 80.47 243.51 79.71 
M 234.12 82.4 243.81 82.37 
M 234.84 84.08 243.87 85.55 
M 237.78 118.58 241.24 116.83 245.67 112.34 248.52 107.26 248.52 104.11 245.67 99.03 241.24 94.54 237.78 92.78 
M 234 103.1 243.25 101.7 
M 234.77 105.86 243.55 105.22 
M 234.4 108.64 243.19 109.36 
M 243.91 143.45 245.43 141.66 248.28 135.79 248.28 132.15 245.43 126.28 241.01 121.1 237.55 119.07 
M 234.46 131.31 243.32 129.46 
M 234.08 133.94 243.25 133.49 
M 234.25 136.47 243.47 138.64 
M 237.05 181.09 240.55 178.94 245.04 173.43 247.93 167.2 247.93 163.34 247.18 161.72 
M 236.61 165.43 242.24 165.51 
M 233.88 168.29 242.26 170.02 
M 237.54 211.85 239.72 210.59 244.38 205.21 247.39 199.11 247.39 195.33 244.38 189.23 239.72 183.85 236.09 181.75 
M 247.96 63.87 250.52 63.37 254.29 61.92 256.72 60.27 256.72 59.25 254.29 57.6 250.96 56.31 
M 247.28 80.27 250.23 79.17 254.01 76.35 256.45 73.15 256.45 71.18 254.01 67.98 250.23 65.16 247.96 64.32 
M 247.5 103.56 249.84 102.23 253.41 98.17 255.72 93.58 255.72 90.73 253.41 86.14 249.84 82.08 247.05 80.5 
M 247.33 132.9 250.13 130.98 253.72 126.07 256.03 120.51 256.03 117.06 253.72 111.5 250.13 106.59 247.5 104.79 
M 246.9 164.12 249.28 162.3 251.88 158.3 
M 254.18 143.94 252.87 140.42 249.28 134.9 246.47 132.75 
M 247.1 198.37 249.98 196.17 253.67 190.53 256.05 184.15 256.05 180.2 253.67 173.82 249.98 168.18 247.1 165.98 
M 253.58 218.42 254.92 215.2 254.92 211.41 252.37 205.29 248.42 199.88 245.34 197.77 
M 256.77 71.81 260.3 70.98 264.82 68.84 267.74 66.43 267.74 64.94 264.82 62.52 260.3 60.39 256.77 59.56 
M 253.02 64.07 262.65 64.17 
M 252.88 65.9 262.88 65.28 
M 253.38 66.9 262.7 67.54 
M 256.2 91.25 259.6 89.93 263.96 86.56 266.76 82.75 266.76 80.39 263.96 76.57 259.6 73.2 256.2 71.88 
M 253.18 79.73 261.57 78.43 
M 252.69 81.58 261.71 81.6 
M 252.91 83.55 261.97 84.27 
M 255.7 117.14 259.02 115.4 263.26 110.95 265.99 105.9 265.99 102.78 263.26 97.74 259.02 93.29 255.7 91.55 
M 260.1 144.23 263.26 140.43 266.05 134.53 266.05 130.88 263.26 124.98 258.93 119.77 255.55 117.73 
M 252.56 129.24 260.52 128.11 
M 252.4 133.03 261.17 132.25 
M 251.89 135.67 260.71 136.94 
M 255.26 180.32 258.73 178.13 263.17 172.53 266.04 166.18 266.04 162.25 263.17 155.9 261.34 153.59 
M 255.2 213.34 258.8 211.13 263.42 205.48 266.39 199.07 266.39 195.11 263.42 188.7 258.8 183.05 255.2 180.84 
M 251.43 193.45 260.61 191.96 
M 251.7 197.03 260.9 197.23 
M 251.43 200.52 261.21 201.59 
M 263.15 220.36 259.29 216.29 255.46 214.27 
M 265.9 63.22 268.86 62.62 272.65 61.09 275.1 59.36 275.1 58.29 272.65 56.56 268.86 55.03 267.09 54.67 
M 266.34 79.81 269.25 78.74 272.98 76.02 275.38 72.94 275.38 71.03 272.98 67.95 269.25 65.23 266.34 64.17 
M 264.14 101.12 266.82 99.6 270.26 95.72 272.47 91.32 272.47 88.6 270.26 84.2 266.82 80.32 265.76 79.72 
M 261.71 87.92 268.39 86.21 
M 261.18 90.08 268.73 90.18 
M 261.55 92.65 268.81 92.93 
M 265.05 130.19 267.06 128.78 270.61 123.82 272.89 118.21 272.89 114.73 270.61 109.11 267.06 104.15 264.29 102.22 
M 264.1 162.63 267 160.5 270.7 155.05 273.08 148.87 273.08 146.67 
M 273.01 144.85 270.7 138.88 267 133.43 265.05 131.99 
M 261.44 144.29 268.47 141.97 
M 268.97 151.99 269.21 152.06 
M 265.32 194.33 266.33 193.56 270.16 187.75 272.63 181.16 272.63 177.08 270.16 170.5 266.33 164.68 263.35 162.41 
M 260.8 175.57 267.84 174.34 
M 260.87 178.75 267.78 178.67 
M 260.58 182.62 268.42 184.38 
M 272.77 220.25 274.5 215.78 274.5 211.74 271.98 205.21 268.07 199.45 265.32 197.42 
M 275.65 71.17 279.13 70.37 283.6 68.33 286.48 66.02 286.48 64.59 283.6 62.28 279.13 60.24 275.65 59.45 
M 274.12 89.58 277.49 88.31 281.8 85.05 284.58 81.36 284.58 79.08 281.8 75.39 277.49 72.13 274.12 70.86 
M 273.14 115.38 276.43 113.63 280.66 109.15 283.38 104.07 283.38 100.93 280.66 95.85 276.43 91.37 273.14 89.62 
M 273.7 146.91 275.94 145.55 
M 276.79 145.04 277.13 144.83 281.53 139.5 284.36 133.46 284.36 129.72 281.53 123.68 277.13 118.35 273.7 116.27 
M 274.05 180.16 277.69 177.93 282.35 172.22 285.36 165.76 285.36 161.76 282.35 155.29 277.69 149.58 274.05 147.35 
M 274.53 213.6 278.22 211.37 282.94 205.65 285.98 199.18 285.98 195.17 282.94 188.7 278.22 182.98 274.53 180.75 
M 281.98 220.43 278.53 216.52 274.96 214.49 
M 285.66 63.36 288.57 62.81 292.29 61.42 294.69 59.83 294.69 58.86 292.29 57.28 289.23 56.13 
M 284.69 78.3 287.53 77.32 291.17 74.8 293.52 71.96 293.52 70.2 291.17 67.35 287.53 64.83 285.45 64.11 
M 282.34 69.14 289.46 69.33 
M 281.59 71.5 289.44 71.18 
M 282.29 72.15 288.97 73.64 
M 281.32 99.12 284.1 97.59 287.67 93.67 289.97 89.24 289.97 86.49 287.67 82.06 284.1 78.14 281.32 76.61 
M 282.79 130.56 285.55 128.55 289.09 123.38 291.37 117.52 291.37 113.9 289.09 108.04 285.55 102.88 282.79 100.86 
M 280.03 112.47 287.66 111.74 
M 279.89 115.67 287.39 116.16 
M 279.98 119.11 286.77 120.27 
M 283.61 163.74 286.63 161.49 290.49 155.75 292.99 149.24 292.99 145.21 290.49 138.7 286.63 132.95 283.61 130.71 
M 285.14 198.45 288.38 196.18 292.52 190.35 295.18 183.76 295.18 179.68 292.52 173.09 288.38 167.26 285.14 164.99 
M 292.46 219.79 293.98 216.01 293.98 212.18 291.49 205.99 287.62 200.53 284.89 198.6 
M 284.89 198.6 284.6 198.39 
M 281.44 211.3 289.82 209.14 
M 281.68 213.97 289.2 213.88 
M 282.17 217.38 289.03 218.77 
M 294.12 70.23 297.48 69.45 301.77 67.47 304.54 65.22 304.54 63.83 301.77 61.58 297.48 59.59 294.12 58.82 
M 290.63 63.25 299.06 63.07 
M 290.8 65 299.26 64.84 
M 290.86 65.91 299.91 66.35 
M 292.83 87.97 295.55 86.96 299.88 83.76 302.66 80.14 302.66 77.89 299.88 74.27 295.5 71.04 
M 294.68 76.21 297.47 75.87 
M 294.25 78.97 297.83 78.78 
M 293.83 81.65 298.03 82.14 
M 290.9 114.02 294.17 112.25 298.36 107.72 301.06 102.58 301.06 99.41 298.36 94.27 294.17 89.74 292.68 88.94 
M 292.26 146.83 295.6 144.66 299.87 139.12 302.63 132.84 302.63 128.95 299.87 122.67 295.6 117.13 292.26 114.96 
M 289.35 127.63 297.76 126.42 
M 288.97 130.98 297.63 130.65 
M 289.14 134.19 297.3 135.98 
M 294.13 181.42 297.73 179.13 302.33 173.29 305.3 166.66 305.3 162.56 302.33 155.94 297.73 150.09 294.13 147.81 
M 294.61 214.13 298.23 211.94 302.87 206.34 305.87 199.99 305.87 196.06 302.87 189.71 298.23 184.11 294.61 181.92 
M 298.71 218.08 297.25 216.42 293.78 214.44 
M 303.27 61.84 305.91 61.28 309.3 59.83 310.42 58.99 
M 302.87 77.42 305.65 76.41 309.22 73.82 311.52 70.9 311.52 69.08 309.22 66.16 305.65 63.57 302.87 62.56 
M 299.84 98.02 302.68 96.54 306.32 92.75 308.66 88.46 308.66 85.8 306.32 81.51 302.68 77.72 299.84 76.24 
M 301.64 126.76 302.17 126.33 305.4 121.07 307.49 115.12 307.49 111.43 305.4 105.48 302.17 100.23 299.64 98.18 
M 304.24 163.6 305.81 162.29 309.42 156.28 311.75 149.48 311.75 145.26 309.42 138.46 305.81 132.45 302.99 130.1 
M 304.8 198.84 307.7 196.57 311.43 190.76 313.83 184.17 313.83 180.1 311.43 173.51 307.7 167.7 304.8 165.43 
M 312.96 213.27 312.96 212.28 310.55 206.26 306.81 200.95 303.89 198.87 
M 301 210.92 308.17 209.18 
M 301.33 213.96 308.27 214.24 
M 300.81 216.72 301.72 216.9 
M 311.46 68.61 314.73 67.79 318.93 65.7 321.63 63.32 321.63 62.03 
M 310.23 86.92 313.51 85.68 317.7 82.51 320.4 78.92 320.4 76.69 317.7 73.1 313.51 69.93 310.69 68.86 
M 307.94 111.53 311.14 109.8 315.25 105.35 317.9 100.31 317.9 97.19 315.25 92.15 311.14 87.71 307.94 85.97 
M 305.29 96.17 313.05 94.49 
M 304.73 99.13 312.64 98.58 
M 304.47 101.74 313.02 102.12 
M 310.92 143.67 312.31 142.67 316.29 136.99 318.86 130.55 318.86 126.56 316.29 120.12 312.31 114.44 309.2 112.22 
M 305.95 125.69 313.92 123.8 
M 305.72 128.92 314.69 128.73 
M 306.1 132.27 313.94 133.82 
M 312.51 181.02 315.71 178.67 319.8 172.65 322.45 165.84 322.45 161.62 319.8 154.8 315.71 148.78 312.51 146.43 
M 314.59 212.81 316.73 211.43 321.06 205.82 323.86 199.47 323.86 195.54 321.06 189.19 316.73 183.58 313.34 181.39 
M 312.19 213.5 312.15 213.47 
M 320.42 76.19 323.02 75.11 326.34 72.36 328.49 69.24 328.49 67.3 326.34 64.18 325.96 63.86 
M 318.38 66.2 324.52 66.12 
M 317.68 68.13 324.57 68.61 
M 317.86 70.09 324.92 70.89 
M 317.81 96.07 320.5 94.67 323.94 91.11 326.16 87.08 326.16 84.58 323.94 80.55 320.5 76.99 317.81 75.6 
M 314.45 123.67 317.09 121.64 320.46 116.46 322.64 110.59 322.64 106.95 320.46 101.08 316.95 95.78 
M 321.5 161.05 322.1 160.43 325.15 154.14 327.12 147.02 327.12 142.6 325.15 135.48 322.1 129.19 319.72 126.73 
M 322.86 197.39 325.08 195.38 328.35 189.42 330.46 182.68 330.46 178.5 328.35 171.76 325.08 165.8 322.52 163.48 
M 329.82 207.85 328.78 205.22 325.06 199.88 322.86 198.3 
M 328.88 66.45 330.51 66.06 
M 327.01 84.32 330.33 83.1 334.57 79.95 337.31 76.4 337.31 74.19 334.57 70.64 330.33 67.5 327.01 66.27 
M 324.11 73.41 332.4 72.28 
M 323.53 75.06 332.18 75.21 
M 323.95 76.92 332.83 77.89 
M 324.82 108.64 328.25 106.97 332.65 102.69 335.49 97.85 335.49 94.85 332.65 90.01 328.25 85.73 325.36 84.32 
M 321.58 94.2 330.14 93.03 
M 321.14 96.13 329.89 96.32 
M 321.65 99 330.73 100.24 
M 324.05 139.87 327.16 137.73 331.15 132.23 333.72 126.01 333.72 122.15 331.15 115.93 327.16 110.44 324.05 108.29 
M 321.36 120.48 328.94 118.86 
M 320.93 123.83 329.11 124.33 
M 321.49 127.7 329.1 128.34 
M 329.67 174.76 329.99 174.49 333.8 168.22 336.26 161.11 336.26 156.71 333.8 149.61 329.99 143.33 327.02 140.88 
M 324.48 154.89 331.44 153.81 
M 324.59 159.4 331.88 159.18 
M 324.07 162.53 331.47 164.01 
M 338.24 204.06 340.83 197.63 340.83 193.48 338.13 186.77 333.94 180.84 330.67 178.53 
M 327.41 191.81 336.32 189.97 
M 327.64 195.44 335.52 195.31 
M 327.12 199.29 336.38 201.14 
M 335.7 71.24 337.81 70.47 
M 334.12 93.8 337.27 92.31 341.3 88.5 343.91 84.18 343.91 81.51 341.3 77.19 337.27 73.38 336.33 72.94 
M 332.89 121.01 335.87 119.24 339.68 114.69 342.14 109.54 342.14 106.36 339.68 101.21 335.87 96.66 332.89 94.89 
M 329.11 151.91 331.51 149.59 334.58 143.63 336.55 136.88 336.55 132.7 334.58 125.96 332.8 122.51 
M 339.86 191.42 342.61 185.68 344.75 177.88 344.75 173.04 342.61 165.24 339.31 158.35 336.72 155.66 
M 334.66 171.91 341.02 169.35 
M 334.21 175.02 341.01 175.61 
M 334.46 179.15 340.99 181.71 
M 345.18 200.91 344.13 199.34 341.28 197.19 
M 345.26 83.94 348.96 82.62 351.89 80.54 
M 344.36 108.49 348.05 106.88 352.77 102.76 355.82 98.1 355.82 95.21 352.77 90.54 348.05 86.42 344.36 84.82 
M 340.2 135.62 343.44 133.63 347.59 128.52 350.27 122.73 350.27 119.14 347.59 113.35 343.44 108.24 340.2 106.25 
M 341.68 172.71 344.81 170.2 348.81 163.78 351.39 156.51 351.39 152 348.81 144.73 344.81 138.3 341.68 135.8 
M 358.25 194.35 358.25 191.34 355.51 184.26 351.25 178 347.93 175.56 
M 357.7 98.93 361.02 97.34 365.26 93.28 365.79 92.39 
M 354.71 84.97 356.91 84.56 
M 354.8 87.6 360.13 87.36 
M 354.29 89.75 363.02 90.81 
M 352.73 120.22 355.58 118.64 359.23 114.58 361.59 109.98 361.59 107.13 359.23 102.53 355.58 98.47 352.73 96.89 
M 350.03 105.98 357.56 105.47 
M 350.34 108.35 356.88 108.54 
M 350.24 110.93 356.99 112.27 
M 346.05 149.34 348.63 147.05 351.94 141.16 354.08 134.5 354.08 130.38 351.94 123.72 348.63 117.84 346.05 115.54 
M 344.03 128.65 350.53 127.13 
M 343.71 132.76 350.34 132.67 
M 344.01 135.46 349.78 137.14 
M 354.85 194.33 357.7 191.61 361.35 184.65 363.7 176.76 363.7 171.88 361.35 164 357.7 157.03 354.85 154.31 
M 364.04 108.25 367.51 106.73 371.96 102.85 374.08 99.59 
M 357.51 133.3 360.67 131.35 364.72 126.37 367.34 120.72 367.34 117.22 364.72 111.57 360.67 106.58 357.51 104.64 
M 354.35 115.97 362.25 114.19 
M 354.5 118.51 363.09 118.59 
M 354.46 121.83 362.48 122.93 
M 359.03 171.13 362.3 168.58 366.48 162.03 369.17 154.62 369.17 150.03 366.48 142.62 362.3 136.08 359.03 133.52 
M 375 185.64 373.93 182.97 369.5 176.64 366.03 174.16 
M 369.4 117.11 372 115.59 375.33 111.7 377.48 107.29 377.48 104.57 375.7 100.92 
M 365.46 142.07 367.58 138.03 369.65 131.1 369.65 126.81 367.58 119.88 366.4 117.63 
M 362.17 128.94 365.72 129.39 
M 359.49 132.19 365.67 134.38 
M 380.59 182.55 382.5 176.12 382.5 171.07 380.07 162.9 376.31 155.68 373.38 152.87 
M 381.27 105.35 381.5 105.25 
M 373.64 130.38 376.81 128.4 380.86 123.32 383.48 117.58 383.48 114.02 380.86 108.28 376.81 103.21 375.98 102.69 
M 375.38 102.31 373.64 101.23 
M 371.04 113.06 379.06 111.61 
M 370.68 116.16 378.92 115.65 
M 370.92 118.55 379.04 119.86 
M 376.36 170.13 379.68 167.44 380.97 165.35 
M 380.97 165.35 383.93 160.57 386.67 152.78 386.67 147.96 383.93 140.18 379.68 133.3 376.36 130.62 
M 389.76 177.49 388.69 175.99 385.06 173.45 
M 385.76 113.94 388.6 112.45 389.82 111.17 
M 377.54 143.93 380.15 141.4 383.49 134.93 385.65 127.6 385.65 123.06 383.49 115.73 381.08 111.06 
M 379.66 108.79 377.54 106.73 
M 401.98 170.83 399.52 162.2 395.66 154.51 392.64 151.5 
M 389.4 168.97 397.87 167.13 
M 389.92 173.19 397.14 173.47 
M 390.99 126.16 394.42 124.49 398.81 120.22 399.98 118.22 
M 387.95 111.48 389.85 111.19 
M 387.23 114.16 394.07 114.12 
M 387.48 115.9 396.46 117.98 
M 394.33 164.15 397.81 162.11 402.13 157.03 
M 402.13 141.14 397.81 136.06 394.33 134.01 
M 196.1 193.67 198.86 193.38 
M 195.44 197.21 203.19 196.97 
M 194.97 200.22 202.89 201.38 
M 213.76 215.3 214.6 213.45 214.6 210.13 212.14 204.75 208.33 200 205.36 198.15 
M 216.27 211.5 219.87 209.48 223.53 205.38 
M 224.31 222.51 221.05 216.83 216 211.89 212.05 209.96 
M 228.26 225.07 232.42 219.95 234.98 214.29 234.98 210.82 
M 245.56 228.69 248.42 226.74 252.37 221.33 253.58 218.42 
M 261.55 239.64 264.2 236.84 267.36 230.97 267.36 227.34 264.2 221.47 263.15 220.36 
M 252.18 226.22 261.62 224.85 
M 273.5 239.8 272.72 238.07 268.86 233.21 265.85 231.31 
M 284.6 229.8 287.62 227.67 291.49 222.2 292.46 219.79 
M 291.55 239.24 290.81 237.57 287.19 232.88 284.35 231.05 
M 302.21 235.45 304.56 230.76 304.56 227.21 301.69 221.48 298.71 218.08 
M 310.42 58.99 310.42 58.99 
M 303.89 229.42 306.81 227.34 310.55 222.03 312.96 216.01 312.96 213.27 
M 301.72 216.9 309.03 218.39 
M 306.73 233.54 305.05 231.31 303.69 230.4 
M 313.34 213.62 314.59 212.81 
M 325.96 63.86 325.96 63.86 
M 322.92 227.96 325.06 226.42 328.78 221.07 331.18 215.02 331.18 211.28 329.82 207.85 
M 321.29 228.51 320.3 227.79 
M 330.51 66.06 330.51 66.06 
M 337.96 219.91 337.48 218.89 333.18 213.77 329.82 211.77 
M 351.89 80.54 351.89 80.54 
M 347.93 211.51 351.25 209.07 355.51 202.82 358.25 195.73 358.25 194.35 
M 350.6 212.33 347.88 210.75 
M 360.13 87.36 360.13 87.36 
M 375.7 100.92 375.7 100.92 
M 375.77 192.03 376.31 191.51 380.07 184.29 380.59 182.55 
M 397.14 173.47 397.55 173.49 
M 399.98 118.22 399.98 118.22 
M 394.07 114.12 394.07 114.12 
M 253.4 56.13 253.4 56.13 
M 260.98 55.55 265.39 47.94 268.43 43.21 274.75 37.5 277.44 37.05 280.46 36.93 283.24 36.14 286.51 35.65 293.14 35.17 295.14 34.45 300.99 35.38 303.51 35.09 306.09 34.16 308.41 32.6 310.5 30.91 312.9 30 316.33 30.34 321.78 34.78 324.78 36.49 328.08 37.15 332.85 37.37 337.67 37.89 341.66 39.73 349.78 45.18 352.54 49.97 355.04 53.41 357.62 55.8 359.91 58.43 364.61 63.1 368.29 67.21 370.14 68.8 372.75 70.44 375.77 73.96 376.07 76.61 375.14 79.45 373.8 81.86 373.38 84.76 372.69 87.3 372.41 88.97 371.76 97.58 
M 366.39 92.92 366.38 92.91 
M 258.31 55.75 259.68 54.69 261.63 50.7 263.64 48.07 
M 263.21 55.29 264.72 54.08 267.05 46.67 
M 268.08 54.52 269.89 53.75 271.42 48.61 272.46 42.77 
M 272.98 54.11 275.7 53.51 276.84 51.06 277.29 48.7 
M 277.91 54.16 280.99 53.3 282.35 51.39 283.84 48.79 284.54 46.9 
M 282.78 54.88 285.95 53.98 287.37 52.02 287.49 49.96 288.93 46.64 289.45 44.4 291.07 40.93 291.75 39.02 
M 287.6 55.9 289.24 54.37 290.51 52.32 291.95 49.84 293.16 46.84 294.8 43.99 296.41 41.7 299.54 38.14 
M 292.49 56.46 294.44 54.73 295.34 52.71 298.77 47.04 301.25 45.24 302.44 43 302.57 41.41 303.24 39.47 
M 297.39 56.96 299.65 55.68 300.32 53.56 301.56 50.56 303.9 47.94 305.77 46.36 308.56 40.88 309.37 38.15 310.77 35.62 
M 302.29 57.43 304.6 56.01 306 53.57 307.62 49.3 309.97 46.62 
M 307.16 58.16 309.49 56.22 312.16 51.64 314.31 49.89 316.06 47.06 318.11 45.47 
M 311.93 59.38 314.64 58.12 318.5 55.09 320.49 53.03 322.22 50.79 
M 316.69 60.65 319.28 59.58 320.71 58.16 323.52 56.66 326.05 54.57 
M 321.43 61.98 324.45 61.24 327.46 60.07 332.33 56.25 334.44 54.04 336.23 51.31 
M 325.97 63.87 330.06 63.59 332.85 61.86 337.79 57.83 339.86 55.33 341.48 52.61 
M 330.41 66.01 334.19 65.6 336.93 64.5 338.61 62.2 340.9 59.89 346.9 55.82 
M 334.66 68.5 337.88 68.18 342.46 64.67 346.02 62.79 
M 338.83 71.11 341.94 71.11 348.32 67.24 352.32 66.16 356.23 64.43 357.3 62.93 
M 342.9 73.88 346.94 73.81 349.92 71.95 352.96 70.51 355.59 69 357.96 68.08 360.38 67.48 
M 346.92 76.74 351.61 77.15 354.71 74.86 360.02 72.87 
M 350.85 79.7 355.36 79.73 358.63 78.58 360.99 77.29 
M 354.69 82.78 358.99 82.84 362.13 81.97 365.12 80.06 368.85 78.6 
M 358.49 85.91 363.03 86.21 366.45 85.32 368.45 85.21 
M 362.18 89.18 368.12 90.97 370.44 90.14 
M 196.84 139.44 290.26 144.51 290.22 145.49 196.68 142.78 
M 196.61 143.73 277.97 151.88 277.89 152.86 196.45 147.05 
M 196.51 148.02 265.59 158.18 265.47 159.16 196.71 151.35 
M 196.77 152.37 253.21 163.41 253.04 164.38 197.49 155.76 
M 197.76 156.95 240.88 167.57 240.67 168.53 198.34 160.24 
M 198.47 161.58 228.68 170.67 228.42 171.63 198.78 164.67 
M 198.95 166.28 216.67 172.73 216.38 173.67 199.26 169.08 
M 199.49 171.3 204.94 173.76 204.6 174.69 199.39 173.22 
M 280.06 145.19 277.02 145.36 274.26 146.05 273.04 146.7 271.93 147.55 270.91 148.58 269.05 150.99 
M 268.95 152.22 265.99 152.14 263.27 152.59 262.04 153.13 260.91 153.88 259.86 154.82 257.92 157.05 
M 257.76 158.28 254.9 157.95 252.24 158.17 251.02 158.6 249.87 159.25 248.8 160.1 246.78 162.15 
M 246.57 163.37 243.82 162.8 242.5 162.7 241.23 162.8 240.02 163.12 237.78 164.42 235.69 166.29 
M 235.43 167.51 232.82 166.7 231.55 166.49 230.32 166.48 229.13 166.7 226.87 167.8 224.72 169.48 
M 224.4 170.68 221.95 169.66 219.55 169.22 218.39 169.33 217.25 169.68 216.13 170.24 213.93 171.73 
M 213.55 172.91 211.27 171.68 210.13 171.26 209 171.04 207.87 171.05 205.61 171.76 203.37 173.05 
M 202.94 174.22 200.98 172.59 199.5 171.78 
M 278.52 145.24 275.59 145.62 274.26 146.05 273.04 146.7 271.93 147.55 269.96 149.75 
M 247.06 144.37 245.16 144.61 244.3 144.89 242.78 145.86 241.5 147.29 
M 267.45 152.14 264.59 152.27 263.27 152.59 262.04 153.13 260.91 153.88 258.88 155.9 
M 239.87 150.23 238.01 150.31 237.15 150.52 235.62 151.36 234.3 152.67 
M 256.32 158.08 253.53 157.96 252.24 158.17 251.02 158.6 249.87 159.25 247.78 161.09 
M 245.18 163.05 242.5 162.7 241.23 162.8 240.02 163.12 238.88 163.67 236.73 165.32 
M 234.11 167.06 231.55 166.49 230.32 166.48 229.13 166.7 227.98 167.15 225.79 168.6 
M 227.33 233.1 229.24 237.08 231.52 243.87 232.83 246.68 235.8 251.75 238.15 254.6 239.07 258.67 240.1 261.1 236.78 267.26 234.77 269.11 232.15 270.35 229.22 271.32 221.78 276.06 219.58 277.91 214.79 279.1 206.24 280 206.01 278.89 209.37 272.61 210.19 269.4 211.51 267.55 213.97 260.5 213.68 257.78 213.98 255.12 215.28 253 216.01 249.77 216.38 242.48 217.47 236.15 218.49 233.23 218.9 230.25 218.64 226.64 
M 225.75 231.92 227.4 235.4 229.5 246.15 230.75 248.72 231.48 251.52 233.51 255.35 234.23 258.34 
M 224.17 230.75 225.61 234.27 226.7 240.84 226.79 249.18 227.29 251.95 230.15 258.85 
M 222.59 229.57 223.79 233.05 224.01 236.22 224.65 239.62 224.08 242.7 224.05 246.79 223.69 251.88 223.65 255.29 224.33 257.93 224.64 261.12 225.13 263.47 224.33 266.07 223.29 268.55 
M 221 228.4 221.56 231.93 221.79 234.9 221.8 238.31 221.31 241.59 220.37 244.83 220.58 249.14 220.23 252.13 220.68 255.06 220.41 258.35 218.66 263.26 217.83 266.39 
M 383.76 193.83 389.8 198.45 393.76 201.75 395.95 204.07 393.47 208.31 389.68 207.75 387.15 209.27 384.12 210.42 379.88 214.48 378.72 217.46 376.4 219.26 373.19 224.22 370.01 225.18 367.98 227.29 365.82 229.23 363.44 231.02 361 236.68 359.46 239.22 355.96 243.92 352.15 248.43 351.17 251.47 349.61 257.64 348.25 260.04 345.58 261.55 343.19 263.33 340.99 265.29 338.54 267.02 336.8 269.46 334.38 271.22 333.18 274.12 332.05 279.72 330.48 277.34 323.04 272.86 320.79 270.82 319.27 268.82 317.24 266.97 313.86 266.38 311.58 264.34 309.27 261.74 306.54 259.29 304.76 256.63 302.45 253.7 296.85 247.37 
M 379.88 196.86 384.96 201.72 
M 376.01 199.9 379.92 204.43 383.87 206.67 
M 372.09 202.89 377.46 206.2 382.34 208.25 
M 368.17 205.86 373.9 210.3 379.03 213.37 
M 364.26 208.86 369.83 213.22 
M 360.37 211.88 365.55 215.83 369.9 217.48 373.7 218.32 
M 356.47 214.89 362 220.1 365.93 222.22 369.99 222.65 
M 352.54 217.86 357.7 222.3 362.22 225.5 365.99 226.75 
M 348.6 220.8 352.95 225.19 356.44 226.95 
M 344.48 223.5 348.82 227.32 351.53 228.89 
M 340.35 226.19 345.32 229.43 351 234.04 
M 336.24 228.9 344.39 233.98 347.56 236.44 
M 332.13 231.61 336.91 235.57 340.06 237.45 344.03 240.18 346.2 242.87 349.08 244.07 350.85 245.85 
M 327.83 234.01 334.29 241.01 337.74 242.99 347.73 249.87 349.15 251.77 
M 323.5 236.36 326.91 240.52 329.63 243.43 332.48 245.46 336.35 247.87 339.76 250.41 342.02 252.98 344.5 256.4 
M 318.92 238.16 322.56 242.02 328.12 247.23 331.58 249.65 333.65 252.62 336.19 254.96 338.3 258.03 340.08 261.58 
M 314.3 239.87 320.35 246.16 325.91 250.13 
M 309.71 241.64 312.95 245.63 315.74 248.47 318.51 250.26 323.83 254.96 326.6 256.73 
M 305.12 243.44 308.24 247.13 310.88 249.68 313.26 252.67 316.18 254.7 319.28 256.33 324.26 259.5 325.77 262.59 327.58 266.88 329.56 269.39 
M 300.68 245.55 304.39 249.04 306.79 251.97 308.42 254.79 310.33 257.1 313.17 259.63 316.44 261.65 319.62 262.83 321.11 264.33 321.97 266.69 324.86 269.05 327.14 271.18 
M 401.14 119.02 405.01 119.64 410.67 117.24 413.34 115.81 416.35 114.64 418.53 114.25 421.13 112.49 424.88 110.35 426.58 108.73 429.34 107.81 431.51 107.55 436.47 103.86 445.21 104.33 449.79 107.55 458.1 116.81 459.75 118.4 463.9 120.62 466.03 123.09 470.33 129.51 473.56 133.51 474.67 135.78 476.56 138.84 477.6 141.15 476.4 146.36 480.25 158.66 480.16 161.1 478.65 162.85 477.43 165.49 475.82 167.75 475.59 171.49 475.03 174.9 474.36 178.25 473.24 181.16 471.07 183.03 469.17 185.17 466.13 186.22 464.78 188.96 461.08 193.61 457.95 194.56 455 194.89 452.9 196.35 452.01 199.64 450.63 202.42 448.79 204.76 443.63 206.41 437.04 207.24 435.69 205.65 432.87 203.81 430.35 201.36 424.02 197.99 421.76 195.39 418.78 193.78 415.92 191.52 413.97 190.22 411.52 187.88 408.15 185.56 405.05 183.16 401.14 180.53 
M 401.14 122.1 404.96 122.74 408.12 122.02 410.88 120.85 413.76 119.12 416.86 117.53 419.02 116.63 421.5 116.49 423.97 114.65 
M 405.27 125.54 411.09 124.24 416.8 120.42 419.8 119.12 422.28 118.29 
M 411.29 126.81 417.46 124.25 420.96 122.44 423.72 121.66 426.2 121.56 429.35 121.76 431.82 120.3 434.67 119.22 437.58 117.54 
M 408.85 130.85 412.15 130.43 414.5 129.66 419.59 127.52 422.59 126.8 425.85 126.49 429.66 126.42 433.01 125.47 436.01 123.9 438.25 123.48 439.71 123.47 442.49 121.39 
M 411.94 133.7 414.86 133.88 416.81 133.28 419.19 132.31 425.68 131.43 428.33 131.5 431.5 130.48 435.55 129.93 438.23 128.65 440.34 128.23 
M 411.23 136.74 414.03 136.6 419.88 135.57 423.17 135.93 426.2 135.91 428.57 135.47 430.81 134.65 434.41 132.65 438.16 132.69 442 131.93 444.63 130.32 447.44 129.16 450.63 128.5 452.86 128.4 454.9 127.28 458.95 127.7 461.85 127.42 
M 404.82 141.03 407.37 140.9 413.54 139.68 417.07 139.2 420.23 138.25 423.5 138.67 426.5 139.35 432.3 138.88 436.38 138.81 445.81 136.19 448.38 134.89 
M 405.18 144.24 410.71 144.14 417.73 143.53 420.58 143.01 423.43 142.28 426.32 142.75 429.38 143.52 433.14 143.47 436.68 144.19 
M 405.32 147.5 417.74 148.23 420.83 148.26 423.94 147.37 426.99 147.26 433.04 147.83 439.1 147.39 442.36 147.41 445.71 147.89 453.25 148.21 
M 401.14 149.78 405.34 150.75 408.53 151.18 411.86 151.26 414.17 151.65 417.47 152.6 420.49 152.85 424.53 152.15 428.26 151.82 431.83 151.2 434.14 151.74 441.92 152.53 445.79 153.27 449.72 151.94 452.56 151.68 454.86 152.19 460.91 152.18 462.98 152.43 466.61 152.54 471.23 151.67 474.16 151.99 476.69 152.53 
M 408.97 154.46 414.47 154.79 417.19 155.68 423.15 156.15 426.91 155.86 430.02 156.37 432.6 156.59 435.72 157.2 439.23 159.12 442.52 159.2 
M 409.05 157.55 412.26 157.89 414.67 158.79 419.69 160.07 422.92 159.92 426.57 160.23 432.44 161.81 435.3 163.59 438.87 165.05 441.65 165.78 444.8 165.3 447.43 166.11 454.3 167.43 462.7 166.73 
M 412.1 161.4 414.94 162.74 417.16 163.46 419.64 165.02 432.93 167.01 435.54 168.13 438.67 167.78 441.25 167.82 447.45 169.56 454.36 170.96 461.57 171.07 
M 401.14 162.08 405.39 163.4 411.51 166.02 420.88 169.46 426.97 171 429.75 172.64 432.49 173.54 436.09 172.78 437.9 172.24 440.77 172.83 
M 407.99 168.79 410.9 170.29 414.5 171.63 417.86 172.48 420.9 173.88 423.84 174.25 426.63 175.86 432.56 177.46 435.38 178.95 439.26 178.56 442.77 179.33 445.09 180.63 446.98 183.11 450.46 184.88 
M 401.14 168.23 405.03 170.58 407.65 172.37 414.45 175.09 417.91 176.26 420.58 177.84 422.87 178.77 425.46 180.34 429.08 181.83 432.12 182.98 435.47 183.9 439.05 184.02 442.73 184.51 444.55 186.55 448.29 188.77 451.16 189.35 453.93 190.46 456.97 193.6 
M 401.14 171.31 404.67 173.68 414.6 177.98 416.62 180.31 419.24 182.03 422.18 183.51 425.15 184.79 428.22 186.48 432.01 187.02 434.4 188 438.06 190.12 
M 408.87 177.81 412.19 179.08 414.04 182.02 416.46 184.55 419.53 185.76 424.43 189.63 427.34 190.4 432.49 193.9 437.14 195.23 
M 411.9 183.43 414.7 186.26 416.7 188.03 419.41 189.2 422.48 191.09 424.19 193.35 426.48 195.21 430.2 196.74 
M 80.32 118.32 80.54 117.55 81.79 116.15 90.84 108.62 95.13 106.65 100.03 105.36 113.44 100.92 136.33 94.58 161.81 91.05 176 90.28 183.84 90.18 188.02 96.25 190.56 102.4 192.07 108.64 193.22 121.24 196.37 133.69 196.89 139.99 196.4 146.37 196.79 152.68 198.21 158.92 199.52 171.51 199.03 177.89 198.04 184.3 195.44 197.17 194.46 203.59 192.58 210.04 176.24 209.2 164.07 207.68 153.02 205.15 143.12 201.79 134.06 197.66 126.1 192.62 118.9 187.24 112.29 181.04 104.86 174.37 
M 103.64 173.22 98.79 168.65 93.64 162.81 89.31 156.69 85.47 150.53 82.79 144.06 81.32 137.46 80.41 128.57 
M 80.29 118.58 80.32 118.32 
M 166.54 120.51 166.7 125.91 165.53 131.09 164.79 135.87 164.77 140.14 164.12 144.03 163.76 147.85 162.94 151.77 162.44 155.65 162.5 159.71 163.18 164.26 164.41 169.39 165.2 175.17 146.39 176.22 138.49 175.82 130.96 174.59 123.62 172.31 116.93 168.71 110.78 164.26 
M 103.74 173.42 102.25 170.32 96 158.92 90.75 148.59 88.48 144.58 81.72 130.94 78.04 124.78 77.09 122.65 77.21 120.22 79.07 118.49 81.38 118.66 82.71 120.51 88.94 134.82 89.77 137.24 94.34 148.16 97.6 156.57 99.56 161.19 102.94 168.46 105.23 174.2 
M 104.59 174.87 95.56 171.5 81.27 167.46 72.23 164.32 41.29 154.59 39.74 152.74 40.25 150.39 42.51 149.21 44.88 149.8 47.15 150.63 53.88 153.46 70.31 159.6 75 161.49 83.53 165.28 95.2 169.61 104.97 173.94 
M 117.97 128.52 116.6 123.33 116.99 117.99 119.1 113.05 122.69 109.07 127.38 106.47 132.66 105.54 137.96 106.37 142.7 108.87 146.38 112.78 148.58 117.67 149.08 123.01 147.81 128.22 144.92 132.74 140.72 136.08 135.67 137.87 130.3 137.92 125.21 136.23 120.95 132.98 117.97 128.52 
M 117.77 128.06 117.12 126.15 116.7 124.18 116.54 122.16 116.62 120.15 116.95 118.16 117.53 116.22 118.34 114.37 119.37 112.64 120.61 111.04 122.04 109.62 123.63 108.37 125.37 107.34 127.22 106.53 129.15 105.95 131.15 105.62 133.16 105.54 135.17 105.71 137.15 106.12 139.06 106.78 
M 119.59 127.31 119.02 125.63 118.65 123.89 118.51 122.12 118.58 120.35 119.15 117.66 
M 119.41 116.81 120.09 115.27 121 113.75 122.09 112.35 123.35 111.09 124.75 110 126.27 109.09 127.9 108.38 129.6 107.87 131.35 107.58 133.12 107.51 134.89 107.65 136.63 108.02 138.31 108.59 
M 121.41 126.55 120.92 125.11 120.48 122.08 120.54 120.55 120.91 118.64 
M 124.13 113.09 125.86 111.63 127.17 110.84 130.04 109.79 133.08 109.48 136.11 109.92 137.55 110.41 
M 123.23 125.8 122.81 124.58 122.44 122.04 122.71 119.47 
M 125.51 114.48 126.97 113.25 128.07 112.6 130.49 111.71 133.04 111.45 134.32 111.55 136.8 112.23 
M 126.88 124.5 126.34 122.43 126.45 120.86 
M 128.16 117.4 128.77 116.72 130.65 115.68 132.76 115.31 134.88 115.64 136.78 116.65 138.25 118.21 139.13 120.16 139.33 122.3 138.82 124.39 137.66 126.19 135.98 127.53 133.96 128.24 131.82 128.27 129.78 127.59 128.08 126.29 126.88 124.5 
M 129.53 116.3 128.68 118.01 
M 127.15 121.08 126.38 122.6 
M 131.39 115.55 129.7 118.92 
M 128.43 121.47 126.9 124.53 
M 132.97 115.34 130.73 119.82 
M 129.71 121.86 127.74 125.79 
M 134.34 115.56 131.74 120.75 
M 131.18 121.87 128.73 126.78 
M 135.59 116.02 132.75 121.68 
M 132.68 121.83 129.8 127.59 
M 136.76 116.63 131.06 128.02 
M 137.72 117.65 132.42 128.26 
M 138.57 118.92 133.9 128.25 
M 139.17 120.66 135.69 127.63 
M 138.85 124.26 138.67 124.61 
M 85.46 150.5 89.89 154.93 
M 82.18 141.31 85.28 144.41 
M 80.94 134.16 85.3 138.52 
M 81.26 116.75 87.09 122.58 
M 84.37 113.95 88.68 118.26 
M 87.58 111.25 92.44 116.12 
M 90.85 108.62 95.25 113.02 
M 94.9 106.76 99.54 111.4 
M 99.54 105.49 104.23 110.17 
M 103.99 104.03 108.89 108.93 
M 108.43 102.56 113.82 107.95 
M 112.88 101.1 116.47 104.69 
M 117.46 99.77 123.21 105.52 
M 122.06 98.46 125.89 102.29 
M 126.7 97.19 131.61 102.11 
M 131.35 95.93 135.32 99.9 
M 135.99 94.67 140.46 99.14 
M 141.13 93.9 145.54 98.3 
M 146.31 93.17 151.88 98.73 
M 151.5 92.45 156.32 97.27 
M 156.7 91.74 162.17 97.21 
M 161.91 91.04 165.09 94.22 
M 167.49 90.71 173.07 96.29 
M 173.11 90.42 176.87 94.18 
M 178.8 90.2 183.07 94.47 
M 184.37 101.46 184.17 99.46 184.36 98.11 183.92 96.36 183.93 95.43 
M 191.54 134.44 192.27 133.8 193.27 134.31 
M 193.04 180.17 193.74 178.96 195 177.9 195.09 177.6 
M 123.67 145.67 123.76 146.34 124.55 147.79 124.74 148.79 125.15 149.71 
M 82.55 120.29 83.85 117.18 84.8 115.35 85.3 113.88 85.35 113.12 
M 98.09 155.12 97.28 155.74 
M 95.14 157.21 93.4 158.46 91.67 160.02 
M 174.46 182.71 175.11 183.59 175.03 184.61 172.79 186.68 171.02 188.71 
M 163.62 180.02 165.8 180.81 167.51 181.88 168.22 182.58 169.17 184.33 169.37 185.27 169 186.84 167.34 189.56 
M 113.3 168.64 110.72 167.36 108.89 165.88 107.81 164.26 107.56 163.52 107.55 162.34 107.96 161.63 
M 101.75 131.59 100.51 131.77 99.69 132.08 96.16 134.26 95.48 134.18 95.32 133.69 
M 133.29 183.63 133.76 182.17 133.46 179.74 
M 108.81 157.78 110.72 158.25 113.87 160.59 116.1 161.13 
M 192.46 113.45 187.81 111.6 185.4 111.76 184.86 111.6 
M 171.73 127.75 170.5 126.34 168.88 122.82 167.25 120.81 166.77 119.66 166.03 117.06 
M 150.49 136.8 148.75 136.19 148.04 136.19 147.38 136.37 146.25 137.13 145.32 138.73 144.16 142.76 
M 176.37 189.61 175.5 189.39 173.7 189.58 172.58 190.05 170.65 191.34 
M 141.17 178.65 140.49 178.14 138.68 175.08 138.09 174.52 136.53 173.82 134.19 173.94 
M 173.63 158.35 173.16 158.47 172.66 158.87 171.43 160.71 170.78 161.25 169.94 161.43 168.44 160.86 
M 117.23 172.57 117.19 169.1 116.89 167.66 116.58 167.01 114.49 164.55 114.07 163.78 
M 141.76 199.82 142.32 198.84 143.01 196.92 143.26 195.49 142.62 193.8 140.81 190.88 
M 116.62 183.07 114.58 183.19 
M 183.07 96.34 183.22 94.27 183.03 93.31 182.66 92.69 180.55 91.49 179.59 91.14 177.69 90.85 176.13 90.27 
M 174.52 90.35 174.33 90.42 
M 152.88 164.75 152.94 163.83 152.78 162.9 152.37 161.96 150.4 158.55 149.72 157.74 147.81 156.7 145.92 156.2 144.85 156.15 142.42 156.6 
M 105.64 110.08 104.91 112.22 104.93 114.68 104.78 115.22 104.22 116.39 103.52 117.17 
M 157.33 201.59 156.38 202.13 155.35 202.41 149.59 202.61 148.29 202.84 147.54 203.29 
M 112.5 106.64 113.07 106 114.83 105.82 
M 127.22 176.18 127.87 175.32 128.07 173.37 127.92 172.5 127.73 172.25 126.83 171.92 
M 173.6 162.64 172.61 162.64 171.37 162.96 
M 131.23 192.62 136.6 187.54 138.14 186.83 138.33 186.22 
M 144.7 151.85 143.7 151.81 142.87 152.17 141.21 153.25 139.16 154.16 138.24 154.34 136 153.55 134.96 153.68 133.71 154.29 
M 184.8 95.22 183.73 93.21 182.75 92.36 180.23 91.17 178.18 90.82 176.57 90.26 
M 120.35 168.03 121.91 168.37 124.64 169.7 125.99 172.03 126.42 172.35 
M 103.78 110.2 103.59 112.87 103.99 115.92 103.85 116.59 103.43 117.15 
M 139.92 199.39 141.16 196.7 141.51 195.37 141.26 194.09 139.9 191.97 
M 187.15 164.17 186.33 163.07 186.16 162.58 186.3 161.73 186.77 161.09 
M 189.68 120.03 189.09 118.8 187.95 117.11 
M 89.98 136.92 90.06 136.35 90.41 135.71 91.83 134.83 
M 165.45 138.32 166.7 137.21 166.93 136.45 166.83 136 165.68 134.36 164.57 133.28 163.9 132.95 162.27 132.87 
M 178.49 132.77 177.19 131.22 176.53 130.69 174.1 129.33 171.28 127.28 170.55 126.3 169.79 124.47 
M 164.64 134.98 164.11 133.55 163.57 133.13 161.62 132.77 158.93 132.8 
M 196.55 135.88 195.8 135.95 194.72 136.32 
M 139.8 148.62 138.73 149.84 137.01 152.32 133.87 154.05 
M 184.95 162.63 185.01 161.17 185.32 160.42 185.9 159.69 186.85 159.24 188.17 159.47 
M 175.4 177.4 177.42 179.43 178.36 181.03 178.5 182.33 178.37 182.85 177.13 184.45 
M 182.84 203.41 181.94 203.51 180.43 204.09 179.48 204.1 178.77 203.71 177.28 201.97 
M 91.14 149.33 89.31 148.64 87.61 148.84 
M 146.04 140.93 144.73 143.16 143.67 145.59 139.58 149.63 138.16 151.24 
M 146.18 186.42 146.02 188.35 144.28 190.2 
M 82.99 121.15 85.48 114.26 85.58 113.24 
M 132.62 195.27 132.86 194.4 133.39 193.48 135.62 191.2 136.68 190.65 137.86 190.32 138.28 190.37 
M 183.5 147.25 183.69 145.38 183.53 144.58 183.08 143.94 181.83 143.15 177.15 141.26 176.15 141 175.28 140.54 174.61 139.8 
M 138.82 155.31 137.81 155.15 136.1 154.21 135.44 154.05 134.39 154.2 132.05 155 130.93 155.01 
M 167.42 184.22 167.72 185.01 167.76 185.65 167.19 186.57 165.12 188.4 164.56 188.53 163.32 188.42 
M 110.49 148.24 108.34 150.64 107.13 152.46 106.67 152.69 106.06 152.51 
M 183.49 137.05 182.8 137.4 179.11 138.54 178.1 138.6 177.12 138.41 176.05 138.06 175.07 137.42 173.76 136.22 172.44 134.39 
M 97.35 162.86 94.71 164.01 
M 88.77 121 88.8 117.96 88.99 117.69 
M 150.02 189.88 148.53 192.68 148.04 194.64 147.8 195.05 147.25 195.63 146.73 195.48 
M 151.75 94.04 150.64 93.61 150.26 93.61 149.77 94 149.6 94.48 
M 189.11 197.94 189.26 195.65 189.6 194.84 190.35 193.85 191.69 192.98 193.13 192.32 194.54 192.09 
M 187.13 156.8 188.06 156.6 188.69 156.67 192.92 159.68 
M 148.13 136.16 146.86 136.63 146.32 137.05 145.63 138.04 145.11 139.3 144.85 140.73 143.62 144.77 
M 154.7 161.31 153.3 159.04 152.45 157.28 151.79 156.37 148.45 153.07 145.88 151.68 144 151.53 143.12 151.77 
M 125.53 100.17 126.1 100.33 126.61 100.24 127.63 99.33 128.25 97.98 128.32 96.75 
M 103.83 155.76 103.02 155.23 100.95 154.35 99.84 154.62 98.57 155.58 
M 177.54 200.13 176.97 199.74 175.55 197.76 175.19 196.58 173.55 193.35 173.14 192.07 
M 155.45 120.23 156.14 121.33 155.68 124.53 
M 189.59 168.74 187.77 168.29 185.48 166.97 184.46 165.82 184.14 164.75 
M 103.34 137.62 103.3 139.05 103.75 140.54 103.72 143.24 103.86 144.81 103.98 145.29 104.82 146.29 
M 178.7 176.9 180.79 182.95 180.67 184 180.29 184.6 
M 161.33 159.89 160.14 159.48 159.64 159.12 158.5 157.75 157.97 156.91 157.22 154.87 156.98 153.02 156.67 152.3 156.3 151.81 155.23 151.29 
M 104.95 174.33 105.47 175.44 
M 99.53 165.42 99.57 165.48 
M 96.88 160.53 96.75 160.96 97.05 160.84 
M 94.32 155.55 93.98 156.43 94.59 156.09 
M 91.85 150.7 91.21 151.9 91.92 151.41 92.21 151.38 
M 89.3 145.95 89.02 146.19 88.44 147.37 89.27 146.73 89.71 146.65 
M 86.76 141.2 86.37 141.51 85.67 142.85 86.62 142.05 87.15 141.94 
M 84.37 136.34 83.71 136.83 82.9 138.32 83.96 137.37 84.77 137.17 
M 82 131.47 81.06 132.15 80.14 133.79 81.31 132.68 82.48 132.38 
M 79.36 126.81 78.41 127.47 77.37 129.26 78.66 128 79.87 127.66 
M 77.13 121.87 75.76 122.79 74.6 124.73 76.01 123.32 77.23 122.96 
M 104.77 174.44 105.98 174.88 
M 89.92 167.65 90.29 167.5 90.23 167.77 
M 84.5 165.61 85.37 165.15 85.14 165.83 
M 79.37 163.49 80.45 162.81 80.08 163.5 80.08 163.81 
M 74.35 161.23 75.53 160.46 75.02 161.5 
M 69.2 159.16 69.42 158.84 70.6 158.11 69.98 159.05 69.94 159.45 
M 63.97 157.24 64.37 156.62 65.68 155.76 64.93 156.82 64.84 157.55 
M 58.82 155.21 59.32 154.39 60.76 153.41 59.88 154.59 59.73 155.56 
M 53.59 153.33 54.27 152.16 55.84 151.06 54.83 152.36 54.6 153.71 
M 48.52 151.18 49.22 149.93 50.92 148.71 49.78 150.13 49.51 151.58 
M 43.25 149.4 44.17 147.7 46 146.37 44.72 147.9 44.37 149.68 
M 50.93 157.56 60.37 164 69.17 169.48 78.21 174.47 87.35 178.67 96.65 182.37 116.04 189.31 126.1 192.62 
M 184.83 89.39 196.49 101.05 
M 189.09 85.76 197.84 94.51 
M 193.38 82.18 201.45 90.25 
M 197.88 78.8 205.62 86.54 
M 202.45 75.49 213.17 86.22 
M 207.25 72.41 215.68 80.85 
M 212.25 69.54 218.83 76.11 
M 217.51 66.92 224.6 74 
M 223 64.53 232.08 73.6 
M 228.59 62.23 238.83 72.48 
M 234.28 60.05 240.91 66.68 
M 240.24 58.13 248.26 66.15 
M 246.64 56.65 254.07 64.08 
M 253.95 56.08 261.61 63.74 
M 261.27 55.53 268.16 62.41 
M 268.13 54.51 276.17 62.55 
M 275.64 54.14 285.19 63.68 
M 284.66 55.28 295.64 66.25 
M 293.87 56.61 305.45 68.19 
M 302.6 57.46 310.16 65.02 
M 312.56 59.54 318.79 65.77 
M 323.64 62.74 332.05 71.15 
M 342.05 73.28 351.64 82.86 
M 383.11 106.46 393.49 116.84 
M 409.2 124.67 409.59 125.06 
M 263.69 52.52 264.94 55.01 
M 267.85 51.97 269.08 54.43 
M 270.35 48.1 273.35 54.11 
M 271.11 40.75 271.55 41.63 
M 275.95 50.44 277.81 54.16 
M 281.65 52.99 282.59 54.85 
M 284.71 50.23 285.59 51.99 
M 286.47 53.76 287.54 55.89 
M 287.96 47.87 292.24 56.44 
M 292.02 47.13 296.91 56.91 
M 296.28 46.78 301.34 56.91 
M 311.26 41.28 312.14 43.04 
M 313.02 44.8 316.54 51.85 
M 317.42 53.61 318.3 55.37 
M 312.7 35.31 322.39 54.69 
M 316.76 34.57 323.81 48.66 
M 324.69 50.42 325.57 52.18 
M 320.96 34.1 326.69 45.55 
M 327.57 47.32 329.33 50.84 
M 334.62 61.41 335.5 63.17 
M 336.38 64.93 338.14 68.46 
M 326.79 36.9 327.23 37.78 
M 330.75 44.82 331.64 46.59 
M 336.04 55.4 342.21 67.73 
M 338.02 50.5 339.79 54.02 
M 340.67 55.79 346.83 68.12 
M 353.19 80.83 353.82 82.08 
M 342.71 51 352.4 70.38 
M 345.42 47.57 355.11 66.95 
M 352.08 52.02 357.36 62.59 
M 359.39 57.78 359.83 58.66 
M 368.64 76.27 373.2 85.4 
M 370.93 71.99 374.89 79.91 
M 210.98 291.39 209.08 297.7 
M 210.98 291.39 213.29 297.7 
M 215.17 291.39 213.29 297.7 
M 220.25 293.5 218.98 297.7 
M 219.98 294.39 219.56 293.8 219.04 293.5 218.14 293.5 217.45 293.8 216.67 294.39 216.1 295.3 215.92 295.89 215.95 296.8 216.38 297.39 216.88 297.7 217.79 297.7 218.48 297.39 219.26 296.8 
M 225.68 294.39 225.26 293.8 224.75 293.5 223.85 293.5 223.16 293.8 222.38 294.39 221.81 295.3 221.63 295.89 221.66 296.8 222.08 297.39 222.58 297.7 223.49 297.7 224.18 297.39 224.96 296.8 
M 228.68 291.39 226.79 297.7 
M 227.69 294.7 228.86 293.8 229.55 293.5 230.45 293.5 230.96 293.8 230.99 294.7 230.08 297.7 
M 232.91 295.3 236.51 295.3 236.69 294.7 236.57 294.1 235.85 293.5 234.95 293.5 234.26 293.8 233.48 294.39 232.91 295.3 232.73 295.89 232.76 296.8 233.18 297.39 233.69 297.7 234.58 297.7 235.27 297.39 236.06 296.8 
M 239.48 291.39 239.69 291.7 240.08 291.39 239.87 291.1 239.48 291.39 
M 239.15 293.5 237.89 297.7 
M 241.55 293.5 240.29 297.7 
M 241.19 294.7 242.36 293.8 243.05 293.5 243.95 293.5 244.46 293.8 244.49 294.7 243.58 297.7 
M 247.58 291.39 247.79 291.7 248.18 291.39 247.97 291.1 247.58 291.39 
M 247.25 293.5 245.99 297.7 
M 252.68 294.39 252.26 293.8 251.75 293.5 250.85 293.5 250.15 293.8 249.38 294.39 248.8 295.3 248.63 295.89 248.65 296.8 249.08 297.39 249.58 297.7 250.49 297.7 251.18 297.39 251.96 296.8 
M 255.05 293.5 254.15 296.5 254.18 297.39 254.69 297.7 255.58 297.7 256.27 297.39 257.45 296.5 
M 258.35 293.5 257.08 297.7 
M 263.48 294.39 263.36 293.8 262.55 293.5 261.64 293.5 260.65 293.8 260.18 294.39 260.3 295 260.8 295.3 262.22 295.6 262.73 295.89 262.76 296.8 262.27 297.39 261.28 297.7 260.39 297.7 259.58 297.39 259.46 296.8 
M 268.84 293.5 267.58 297.7 
M 268.49 294.7 269.65 293.8 270.34 293.5 271.25 293.5 271.76 293.8 271.78 294.7 270.89 297.7 
M 271.78 294.7 272.95 293.8 273.64 293.5 274.54 293.5 275.06 293.8 275.08 294.7 274.19 297.7 
M 277.01 295.3 280.61 295.3 280.78 294.7 280.66 294.1 279.95 293.5 279.04 293.5 278.36 293.8 277.58 294.39 277.01 295.3 276.83 295.89 276.86 296.8 277.27 297.39 277.78 297.7 278.69 297.7 279.38 297.39 280.15 296.8 
M 283.88 291.39 281.99 297.7 
M 288.95 293.5 287.69 297.7 
M 288.68 294.39 288.26 293.8 287.75 293.5 286.84 293.5 286.15 293.8 285.38 294.39 284.81 295.3 284.63 295.89 284.65 296.8 285.08 297.39 285.58 297.7 286.49 297.7 287.18 297.39 287.95 296.8 
M 292.27 291.39 290.75 296.5 290.77 297.39 291.28 297.7 291.89 297.7 
M 290.75 293.5 292.84 293.5 
M 294.11 295.3 297.7 295.3 297.89 294.7 297.77 294.1 297.04 293.5 296.14 293.5 295.45 293.8 294.68 294.39 294.11 295.3 293.93 295.89 293.95 296.8 294.38 297.39 294.89 297.7 295.78 297.7 296.48 297.39 297.26 296.8 
M 300.34 293.5 299.08 297.7 
M 299.81 295.3 300.38 294.39 301.15 293.8 301.84 293.5 302.75 293.5 
M 307.54 293.5 306.28 297.7 
M 307.27 294.39 306.86 293.8 306.34 293.5 305.45 293.5 304.76 293.8 303.98 294.39 303.4 295.3 303.23 295.89 303.26 296.8 303.68 297.39 304.19 297.7 305.08 297.7 305.77 297.39 306.56 296.8 
M 309.16 297.1 308.77 297.39 308.99 297.7 309.38 297.39 309.16 297.1 
"/></svg>
