<svg xmlns="http://www.w3.org/2000/svg" width="520" height="320"><rect x="0" y="0" width="520" height="320" fill="floralwhite"/><rect x="10" y="10" width="500" height="300" stroke="black" stroke-width="1" fill="none"/><path stroke="black" stroke-width="1" fill="none" stroke-linecap="round" stroke-linejoin="round" d="
M 185.74 111.38 194.81 107.04 203.9 103.1 212.98 99.57 222.07 95.3 231.15 90.54 240.24 87.3 249.32 85.78 258.41 84.95 276.58 84.86 285.66 84.23 294.75 84.96 303.83 86.71 312.92 90.26 322 95 331.09 98.42 340.17 101.28 349.26 105.47 367.43 115.81 376.51 120.77 404.68 134.67 
M 404.68 172.24 394.68 178.93 385.6 184.76 367.43 196.02 358.34 201.48 349.26 206.56 340.17 210.78 331.09 213.61 312.92 216.7 303.83 217.4 294.75 217.5 285.66 218.24 276.58 218.77 258.41 219.12 249.32 217.92 240.24 216.14 231.15 213.59 222.07 210.36 212.98 206.85 185.73 195.11 176.57 190.95 
M 187.57 119.63 190.81 117.71 194.36 114.03 194.36 111.74 191.4 108.67 
M 186.14 112.69 188.26 112.61 
M 187.01 115.52 188.24 115.61 
M 195.81 114.32 199.16 113.14 203.44 110.11 206.2 106.68 206.2 104.55 204.76 102.77 
M 197.52 105.87 200.95 105.77 
M 193.21 107.8 201.52 108.43 
M 189.71 135.58 193.39 134.14 198.11 130.46 201.15 126.28 201.15 123.7 198.11 119.53 193.09 115.72 
M 187.77 122.41 195.33 121.73 
M 187.85 125.34 195.85 125.16 
M 187.77 126.94 195.56 128.16 
M 206.48 106 210.03 104.99 214.58 102.4 217.51 99.47 217.51 97.65 217.37 97.51 
M 209.65 100.87 211.95 101.15 
M 203.3 126.49 207.28 125.13 212.37 121.65 215.66 117.7 215.66 115.26 212.37 111.32 207.28 107.84 205.21 107.13 
M 199.31 114.33 209.98 113.22 
M 199.91 116.25 209.27 116.47 
M 199.86 118.77 209.32 119.07 
M 204.53 141.73 208.18 137.19 208.18 134.34 204.49 129.75 200.06 126.62 
M 194.05 133.19 201.8 132.29 
M 189.91 135.49 201.72 135.34 
M 189.97 137.81 201.11 139.06 
M 185.23 171.29 185.73 171.09 
M 189.84 147.62 189.25 147.18 
M 191.1 184.14 191.1 183.12 188.05 178.26 
M 185.73 175.99 184.28 174.68 
M 181.82 180.88 184.81 180.52 
M 216.69 117.5 219.79 116.18 223.77 112.79 226.33 108.96 226.33 106.59 223.77 102.76 219.79 99.38 216.69 98.06 
M 213.65 105.58 221.63 104.69 
M 213.52 107.88 221.29 107.92 
M 214.05 109.49 221.61 111.14 
M 210.98 138.55 214.12 137.06 218.13 133.23 220.72 128.89 220.72 126.21 218.13 121.87 214.48 118.39 
M 207.86 125.21 216.12 124.05 
M 207.57 127.34 216.03 127.92 
M 207.84 129.33 216.33 130.87 
M 209.63 141.52 206.86 139.31 
M 195.32 185.39 196.46 184.86 198.93 182.58 
M 225.41 106.04 227.92 105.18 232.27 102.21 235.07 98.85 235.07 96.77 232.27 93.41 229.41 91.46 
M 220.96 96.41 230.24 95.62 
M 220.91 97.84 229.83 97.57 
M 221.33 99.13 229.72 100.14 
M 223.32 128.76 226.96 127.26 231.62 123.44 234.63 119.1 234.63 116.42 231.62 112.08 226.96 108.25 225.41 107.62 
M 220.6 115.09 229.21 114.72 
M 219.85 117.66 229.58 117.75 
M 219.9 120.14 229.34 121.49 
M 230.26 142.11 230.51 141.77 230.51 138.74 227.03 133.85 221.64 129.54 219.8 128.8 
M 213.55 137.57 223.87 136.34 
M 213.06 140.16 223.52 140.52 
M 214.27 191.09 214.83 190.3 214.83 187.2 213.44 185.24 
M 197.57 186.06 206.1 185.42 
M 206.06 188.64 208.37 188.66 
M 231.28 93.06 233.25 92.34 236.75 89.77 238.06 88.08 
M 235.66 118.77 238.59 117.31 242.35 113.55 244.77 109.3 244.77 106.66 242.35 102.41 238.59 98.65 235.66 97.18 
M 232.42 106.03 240.76 104.78 
M 233.2 108.08 240.63 107.97 
M 232.66 110.5 240.55 110.76 
M 229.93 140.21 232.9 138.51 236.7 134.17 239.15 129.25 239.15 126.21 236.7 121.29 233.55 117.7 
M 229.33 124.88 234.91 124.11 
M 226.72 127.35 234.35 127.52 
M 226.83 130.06 235.02 131.88 
M 219.26 192.38 221.92 191.19 225.88 187.65 
M 243.9 105.66 245.93 104.9 250.15 101.78 252.86 98.24 252.86 96.05 250.15 92.51 245.93 89.38 242.65 88.16 
M 239.42 95.04 247.99 94.06 
M 239.51 96.72 248.24 97.14 
M 239.08 98.74 248.33 100.29 
M 242.29 129.61 245.88 128.03 250.46 123.97 253.42 119.39 253.42 116.55 250.46 111.96 245.88 107.91 243.9 107.03 
M 239.83 115.63 247.81 114.88 
M 238.79 117.99 248.41 117.72 
M 239.28 120.59 247.71 121.91 
M 243.77 152.91 247.49 149.5 250.72 144.29 250.72 141.06 247.49 135.85 242.47 131.25 238.56 129.45 
M 234.39 139.87 245.21 138.75 
M 234.9 142.6 244.81 142.33 
M 240.4 146.14 244.43 146.49 
M 238.57 179.95 242.6 176.44 246 171.25 246 168.04 244.95 166.44 
M 236.04 196.04 237.2 194.38 237.2 191.34 233.75 186.44 232.26 185.23 
M 222.18 190.44 231.24 189.52 
M 220 192.44 231.04 193.08 
M 250.93 93.41 252.55 92.8 255.83 90.34 257.95 87.54 257.95 85.82 257.37 85.04 
M 247.21 86.54 253.82 87.05 
M 247.1 88.49 253.83 89.23 
M 254.42 118.62 257.15 117.17 260.66 113.46 262.92 109.25 262.92 106.65 260.66 102.45 257.15 98.74 254.42 97.29 
M 251.45 105.6 258.65 104.51 
M 251.46 107.63 258.8 107.94 
M 251.77 110.14 259.22 111.38 
M 249.56 140.63 252.47 139.12 256.7 134.72 259.43 129.74 259.43 126.66 256.7 121.68 252.36 117.22 
M 248.5 125.26 254.44 124.57 
M 245.69 128 254.83 127.96 
M 246.03 130.49 254.64 131.67 
M 247.34 171.84 250.42 169.92 254.36 165.03 256.9 159.49 256.9 156.06 254.36 150.51 250.42 145.62 249.56 145.09 
M 245.08 154.71 252.26 153.62 
M 244.87 157.58 252.34 158.13 
M 246.06 160.89 252.51 161.65 
M 239.53 195.88 242.74 194.16 246.85 189.76 249.5 184.77 249.5 181.68 246.85 176.69 244.59 174.26 
M 238.6 180.11 244.43 179.61 
M 236.9 182.79 244.56 182.89 
M 236.68 186.1 244.7 186.96 
M 261.16 103.36 265.18 99.56 267.61 95.4 267.61 92.83 265.18 88.67 261.35 84.96 
M 255.77 91.97 263.39 90.49 
M 255.43 94.15 262.94 93.8 
M 255.39 96.21 263.4 96.97 
M 261.6 131.36 265.14 129.62 269.68 125.14 272.61 120.08 272.61 116.94 269.68 111.87 265.14 107.39 262.11 105.9 
M 258.6 116.15 267.64 114.57 
M 258.59 118.09 267.66 118.71 
M 258.25 121.45 266.94 122.1 
M 258.99 157.77 262.8 155.95 267.69 151.29 270.83 146.01 270.83 142.74 267.69 137.46 262.8 132.79 258.99 130.97 
M 255.44 142.03 265.44 140.36 
M 254.93 144.79 265.49 144.51 
M 254.93 146.75 265.49 148.78 
M 253.39 184.38 257.17 182.57 262.01 177.95 265.13 172.7 265.13 169.46 262.01 164.22 257.17 159.59 255.99 159.03 
M 251.45 168.07 259.76 166.9 
M 249.56 171.08 259.61 171.39 
M 249.97 173.44 259.8 175.06 
M 257.59 198.92 258.81 197.16 258.81 194.07 255.32 189.06 249.9 184.64 248.55 184.08 
M 243.5 192.83 252.53 191.62 
M 241.5 195.28 252.93 195.55 
M 271.56 119.35 273.13 118.05 276.21 112.97 278.2 107.21 278.2 103.64 276.21 97.88 273.13 92.79 270.72 90.81 
M 268.32 102.05 274.75 101.32 
M 268.35 105.58 274.59 105.78 
M 268.31 108.66 274.83 109.92 
M 272.08 145.97 275.45 144.14 279.75 139.43 282.53 134.1 282.53 130.8 279.75 125.47 275.45 120.76 272.18 118.98 
M 268.38 129.7 277.26 128.68 
M 268.41 132.62 277.44 132.19 
M 268.57 135.5 277.29 136.14 
M 267.38 172.44 270.34 170.62 274.13 165.97 276.58 160.7 276.58 157.44 274.13 152.17 270.34 147.51 269.71 147.13 
M 264.12 156.79 272.41 154.64 
M 264.29 158.93 272.18 158.94 
M 264.21 161.32 272.29 162.8 
M 259.33 197.35 262.67 195.58 266.94 191.02 269.7 185.86 269.7 182.67 266.94 177.51 264.01 174.39 
M 257.9 181.33 264.34 180.42 
M 255.93 184.14 264.91 184.67 
M 256.2 186.53 264.59 188.4 
M 257.82 198.94 257.56 198.72 
M 275.3 96.93 277.48 94.28 279.9 89.09 279.9 85.89 279.33 84.67 
M 267.86 87.76 275.44 87.34 
M 268.42 90.24 275.46 91.18 
M 281.54 131.9 283.08 130.95 287.37 125.68 290.13 119.71 290.13 116.01 287.37 110.04 283.08 104.77 279.74 102.72 
M 276.85 114.73 284.75 113.48 
M 276.29 117.54 284.93 117.66 
M 276.87 120.72 285.05 122.75 
M 279.23 159.85 282.83 157.95 287.43 153.09 290.4 147.58 290.4 144.17 287.43 138.67 282.83 133.8 281.54 133.12 
M 276.11 143 284.83 141.49 
M 275.32 145.54 285.27 146.01 
M 275.63 149.05 284.77 149.78 
M 273.56 186.38 277.23 184.5 281.92 179.67 284.95 174.21 284.95 170.82 281.92 165.36 277.23 160.53 275.71 159.75 
M 270.76 169.56 279.16 168.79 
M 270.41 172.25 279.75 172.3 
M 270.28 175.41 279.61 176.39 
M 282.25 198.34 278.74 193.02 273.18 188.22 268.84 186.35 
M 264.33 196.96 276.19 196.34 
M 288.15 111.54 289.49 108.86 291.43 102.01 291.43 97.77 289.49 90.92 286.47 84.87 285.84 84.24 
M 282.23 96.55 288.21 94.28 
M 282.02 100.33 287.98 99.52 
M 282.19 103.38 288.26 105.16 
M 292.05 148.73 295.07 146.69 298.93 141.45 301.42 135.51 301.42 131.84 298.93 125.9 295.07 120.66 292.05 118.62 
M 289.16 130.9 296.67 129.19 
M 288.74 134 296.73 133.39 
M 288.85 137.12 296.7 137.91 
M 285.42 172.27 288.07 170.37 291.45 165.52 293.63 160.02 293.63 156.62 291.45 151.12 289.34 148.1 
M 285.1 155.01 289.67 154.46 
M 282.58 158.54 289.65 158.16 
M 282.75 160.84 289.98 162.25 
M 288.14 198 289.59 196.18 292.29 190.24 292.29 186.56 289.59 180.62 285.4 175.37 283.87 174.41 
M 278.97 185.23 286.95 184.15 
M 279.16 188 286.96 188.26 
M 279.01 191.55 287.22 193.22 
M 290.74 95.14 295.02 91.08 298.07 86 298.07 85.6 
M 285.93 84.53 287.89 84.41 
M 287.46 87.56 292.35 88.49 
M 300.53 129.17 304.43 124.2 307.23 117.91 307.23 114.02 304.43 107.72 300.07 102.17 296.67 100 
M 293.77 113 302.05 111.29 
M 293.1 116.36 301.99 115.52 
M 293.65 119.41 302.31 121.04 
M 297.35 159.92 300.68 157.92 304.94 152.8 307.69 147 307.69 143.41 304.94 137.61 300.53 132.4 
M 298.23 141.83 302.34 141 
M 295.52 145.45 302.61 145.54 
M 293.87 148.6 302.54 149.41 
M 292.42 187.47 295.76 185.45 300.04 180.27 302.8 174.42 302.8 170.79 300.04 164.93 295.76 159.76 292.85 158 
M 289.57 170 298.09 167.86 
M 288.76 172.66 298.18 172.44 
M 289.62 175.63 297.9 176.85 
M 300.75 197.74 299.84 195.99 294.99 190.72 291.32 188.72 
M 304.22 108.05 306.58 104.72 309.1 98.48 309.1 94.62 306.58 88.38 306 87.56 
M 296.41 93.41 304.82 91.81 
M 296.84 96.92 304.93 96.76 
M 296.42 100.15 304.31 101.51 
M 310.89 149.33 313.8 147.21 317.53 141.79 319.94 135.64 319.94 131.84 317.53 125.69 313.8 120.27 310.89 118.15 
M 307.92 130.89 316 129.26 
M 308.27 133.88 315.78 133.73 
M 307.7 136.55 315.83 138.85 
M 301.81 168.76 303.57 167.41 306.79 162.45 308.86 156.83 308.86 153.36 306.7 147.61 
M 302.57 155.07 304.74 154.96 
M 299.72 158.43 305.09 158.95 
M 306.75 197.78 307.26 196.95 309.5 190.57 309.5 186.62 307.26 180.24 303.8 174.61 301.81 173 
M 298.76 185.21 305.37 183.46 
M 298.83 188.7 305.63 188.86 
M 298.25 192.17 305.46 193.54 
M 308.72 98.69 312.9 97.22 318.48 93.17 
M 305.68 87.71 306.51 87.76 
M 307.36 90.04 313.74 90.69 
M 319.08 129.05 324.08 123.78 327.12 117.99 327.12 114.4 324.08 108.61 319.36 103.49 315.67 101.5 
M 312.33 112.8 321.94 112.04 
M 312.14 116.24 321.96 115.92 
M 312.71 119.37 322.05 120.75 
M 314.69 158.14 318.08 156.18 322.42 151.17 325.22 145.48 325.22 141.97 322.42 136.28 319.08 132.43 
M 318.69 139.56 320.44 139.19 
M 315.86 143.61 320.13 143.3 
M 313.5 146.99 320.47 147.93 
M 309 185.43 312.23 183.38 316.37 178.13 319.04 172.18 319.04 168.5 316.37 162.55 312.23 157.3 309 155.25 
M 305.69 167.58 314.55 165.46 
M 306.25 170.74 314.17 170.77 
M 305.94 173.43 314.43 174.63 
M 317.47 197.47 316.18 194.47 312.04 188.99 308.81 186.84 
M 326.03 112.4 330.44 107.75 333.28 102.48 333.21 99.09 
M 319.4 97.89 327.93 97.23 
M 319.61 100.87 328.04 100.9 
M 318.89 103.42 328.29 104.71 
M 329.57 147.64 332.46 145.74 336.16 140.87 338.54 135.35 338.54 131.93 336.16 126.41 332.46 121.54 329.57 119.64 
M 327.1 131.18 334.31 128.99 
M 326.5 133.58 334.32 133.27 
M 326.41 136.82 334.2 138.19 
M 318.08 165.72 320.22 164.37 324.04 159.56 326.5 154.12 326.5 150.74 324.21 145.69 
M 321.21 152.01 321.88 151.99 
M 317.81 155.88 322.49 156.79 
M 320.25 197.31 322.47 193.54 324.6 187.2 324.6 183.28 322.47 176.94 319.17 171.34 318.08 170.41 
M 314.35 182.01 321.05 180.43 
M 313.83 185.44 320.63 184.83 
M 314.55 188.27 320.81 189.75 
M 332.26 100.5 333.86 99.86 334.37 99.45 
M 337.69 130.61 339.53 129.65 344.17 124.84 347.16 119.39 347.16 116.02 344.17 110.57 339.53 105.75 335.92 103.88 
M 332.7 114.9 341.58 113.14 
M 332.13 117.39 342.06 117.37 
M 332.63 120.35 342.06 121.73 
M 333.48 157.4 337.07 155.54 341.67 150.79 344.63 145.41 344.63 142.08 341.67 136.69 337.69 132.58 
M 336.38 140.07 339.19 139.46 
M 333.5 143.8 339.44 143.34 
M 329.67 146.81 330.34 146.9 
M 331.03 146.99 339.02 148.07 
M 326.66 183.79 330.09 181.81 334.48 176.73 337.31 170.98 337.31 167.42 334.48 161.67 330.09 156.6 326.66 154.61 
M 323.53 166.07 331.72 164.54 
M 323.32 169.59 332.14 168.94 
M 322.9 171.92 331.96 173.93 
M 334.36 195.62 332.95 192.39 328.77 186.93 325.51 184.8 
M 326.36 196.79 330.78 195.55 
M 346.09 115.35 349.83 110.3 351.35 106.64 
M 340.41 102.74 343.33 102.74 
M 340.69 105.5 347.72 107.09 
M 348.1 147.07 351.01 145.21 354.74 140.45 357.15 135.06 357.15 131.72 354.74 126.33 351.01 121.57 348.1 119.71 
M 345.32 130.31 352.61 128.84 
M 344.97 133.42 353.23 133.15 
M 345.58 136.35 353.02 137.63 
M 339.01 168.64 342.19 166.85 346.27 162.28 348.9 157.11 348.9 153.91 346.27 148.73 343.57 145.7 
M 339.87 152.12 344.52 151.14 
M 336.22 155.84 344.49 155.48 
M 335.55 158.53 343.99 159.37 
M 337.77 194.88 339.92 191.54 342.13 185.5 342.13 181.76 339.92 175.73 336.29 170.25 
M 331.61 180.27 337.7 179.29 
M 331.57 183.64 337.81 183.36 
M 331.43 186.4 337.99 188.37 
M 356.28 130.76 357.47 130.03 361.65 124.86 364.35 119.02 364.35 115.39 363.5 113.54 
M 351.28 114.48 359.48 112.8 
M 351.26 117.43 359.34 116.95 
M 350.88 119.77 359.66 121.85 
M 353.04 158.18 356.71 156.33 361.39 151.59 364.41 146.22 364.41 142.89 361.39 137.52 356.71 132.78 356.28 132.57 
M 353.53 141.48 358.99 140.63 
M 351 144.65 358.71 144.94 
M 349.4 147.67 358.62 148.37 
M 345.44 183.42 349.15 181.49 353.91 176.54 356.97 170.94 356.97 167.48 353.91 161.87 349.15 156.93 347.96 156.31 
M 342.46 166 351.41 164.84 
M 341.87 168.78 351.75 169.21 
M 341.65 171.6 351.54 173.31 
M 350.91 190.75 347.07 185.99 343.58 183.82 
M 367.06 148.51 369.96 146.48 373.68 141.29 376.08 135.4 376.08 131.76 373.68 125.88 369.96 120.68 367.06 118.66 
M 364.65 130.89 371.47 129.02 
M 364.6 133.39 371.67 133.83 
M 364.6 136.15 371.99 138.43 
M 358.01 168.51 361.21 166.77 365.31 162.33 367.96 157.3 367.96 154.18 365.31 149.15 363.33 147 
M 360 152.47 362.9 152.25 
M 356.58 155.88 363.03 155.74 
M 355.33 158.34 362.9 159.42 
M 359.7 187.27 361.2 183.87 361.2 180.05 358.48 173.89 355.87 170.54 
M 352.33 177.64 356.31 176.92 
M 347.95 182.13 356.31 181.66 
M 347.55 185.28 355.86 186.42 
M 373.68 126.42 376.59 122.2 377.05 121.04 
M 366.08 116.51 371.62 118.1 
M 372.63 160.51 376.33 158.45 381.07 153.19 384.13 147.23 384.13 143.54 381.07 137.58 376.33 132.32 375.22 131.7 
M 373.13 141.5 378.63 140.83 
M 370.19 145.54 378.49 145.58 
M 368.78 148.49 378.54 150 
M 371.22 182.3 375.39 178.39 378.75 172.86 378.75 169.45 375.39 163.92 370.18 159.05 367.01 157.56 
M 362.02 168.15 372.88 167.16 
M 362.31 171.44 372.51 171.38 
M 361.9 173.7 372.53 175.77 
M 364.09 185.4 362.56 184.54 
M 385.46 152.07 388.22 149.5 391.76 142.93 394.05 135.5 394.05 130.89 393.53 129.2 
M 382.56 129.57 390.27 127.64 
M 382.65 133.44 390.06 133.27 
M 382.67 136.69 389.8 138.85 
M 380 172.94 383.46 171.05 387.9 166.21 390.76 160.73 390.76 157.34 387.9 151.86 387.02 150.9 
M 378.17 155.81 385.15 154.77 
M 376.39 159.07 385.9 159.28 
M 376.98 162.11 386 163.03 
M 380.94 177.94 379.1 176.02 377.55 175.21 
M 392.53 163.06 396.17 160.82 400.82 155.07 403.82 148.56 403.82 144.53 400.82 138.02 396.17 132.27 393.23 130.46 
M 391.52 142.7 398.49 141.39 
M 389.22 146.89 398.2 146.96 
M 389.33 150.22 398.79 151.06 
M 398.9 169.46 397.78 167.64 392.57 162.77 389.73 161.45 
M 384.68 171.79 395.12 170.59 
M 384.79 175.03 387.23 175.07 
M 402.74 149.85 404.68 147.94 
M 400.48 135.02 404.68 136.19 
M 404.68 149.23 404.04 148.84 
M 399.2 159.32 404.68 158.27 
M 399.14 162.44 404.68 162.21 
M 399.35 165.29 404.68 166.33 
M 204.76 102.77 204.76 102.77 
M 178.86 187.88 185.03 188.97 
M 197.29 186.09 197.57 186.06 
M 197.56 188.56 206.06 188.64 
M 197.01 191.07 208.7 192.39 
M 218.19 192.86 219.26 192.38 
M 219.28 203.65 219.3 200.57 216.43 195.62 213.56 192.81 
M 207.17 199.23 214.21 198.71 
M 257.37 85.04 257.37 85.04 
M 227.33 205.53 236.43 205.23 
M 261.35 84.96 261.35 84.96 
M 245.67 208.32 249.9 206.59 255.32 202.17 257.59 198.92 
M 247.35 210.96 246.23 210.2 241.7 208.65 
M 264.83 212.29 265.71 210.97 265.71 207.87 262.38 202.86 257.82 198.94 
M 248.89 207.14 260.03 205.22 
M 248.96 209.45 260.05 209.66 
M 279.33 84.67 279.33 84.67 
M 272.93 212.14 278.74 207.24 282.32 201.81 282.25 198.34 
M 264.43 199.89 276.19 199.81 
M 282.12 203.47 285.4 201.43 288.14 198 
M 287.17 200.48 297.62 199.41 
M 301.84 204.17 303.8 202.58 306.75 197.78 
M 306.42 210.73 303.7 206.76 301.84 205.41 
M 313.74 90.69 313.74 90.69 
M 316.54 209.92 318.85 204.53 318.85 200.69 317.47 197.47 
M 305.7 199.91 314.41 197.92 
M 305.34 202.61 314.04 202.39 
M 322.92 209.1 319.36 203.23 317.89 202.06 
M 333.57 207.16 335.64 202.39 335.64 198.56 334.36 195.62 
M 321.97 203.99 330.43 205.57 
M 343.33 102.74 343.33 102.74 
M 334.68 198.27 336.49 196.87 337.77 194.88 
M 354.42 198.91 354.42 197.8 351.54 191.53 350.91 190.75 
M 339.8 196.91 349.34 195.13 
M 340.44 199.89 349.32 200.01 
M 339.84 202.59 344.27 203.59 
M 353.39 196.02 354.25 195.46 358.48 190.03 359.7 187.27 
M 366.12 185.17 370.18 183.26 371.22 182.3 
M 369.85 190.64 366.28 186.63 364.09 185.4 
M 393.53 129.2 393.53 129.2 
M 384.56 182.37 383.7 180.8 380.94 177.94 
M 372.07 184.82 381.47 183.59 
M 371.84 187.52 375.32 187.56 
M 400.86 172.68 398.9 169.46 
M 231.15 90.54 231.61 88.3 231.12 80.42 231.46 77.54 231.47 75.26 232.09 73.26 232.3 70.68 232.79 68.07 232.84 65.45 233.81 63.2 233.89 59.55 235.17 56.48 236.68 54.09 238.11 51.32 239.73 49.29 245.28 43.66 245.82 40.74 246.95 39.13 250.56 35.4 253.58 30 253.78 34.41 258.62 36.84 261.43 39.09 270.61 48.01 271.87 49.58 273.89 52.44 276.92 57.93 280.41 61.88 282.62 66.53 283.83 67.63 284.31 70.53 285.5 72.9 287.92 75.1 293.82 79.09 295.52 81.11 298.12 83.71 300.41 85.71 301.63 86.29 
M 303.83 86.72 303.83 86.71 
M 235.46 89.01 235.87 87.17 235.82 78.98 235.65 76.53 235.88 74.63 235.68 71.94 235.7 69.41 238.04 63.8 238.33 61.04 238.95 57.67 240.45 55.43 
M 239.77 87.47 240.21 85.58 240.63 79.95 241.27 77.7 241.2 75.3 241.5 72.61 241.97 70.3 242.98 68.65 244.06 66.1 244.82 63.23 246.1 59.65 247.02 56.21 248.03 53.67 249.39 51.13 251.34 49.66 
M 244.26 86.63 246.03 79.07 246.77 74.93 246.94 72.78 250.43 65.14 251.74 62.73 253.59 60.06 
M 248.77 85.87 249.48 83.4 250.45 80.98 251 78.44 250.88 76.64 251.42 74.68 253.28 69.59 255.6 67.27 258.38 61.28 259.4 60.16 
M 253.32 85.41 254.35 83.33 254.81 81.14 255.24 78.91 255.27 76 257.8 71.97 258.91 69.42 261.18 66.86 263.4 63.05 266.48 61.41 
M 257.88 85 258.89 83.29 259.5 80.78 259.48 77.96 261.49 73.64 262.73 72.12 265.28 70.79 267.3 67.97 268.95 65.18 
M 262.45 84.97 263.16 82.98 263.54 79.95 264.61 77.14 266.52 75.38 267.74 74.54 268.32 72.53 271.29 69.69 
M 267.03 84.98 267.52 82.91 267.65 80.26 269.17 77.88 271.88 75.91 274.17 71.03 
M 271.6 84.93 272.39 83.22 272.67 80.67 274.28 78.1 275.47 74.95 277.61 72.14 280.17 70.51 282.98 69.5 
M 276.17 84.87 277.36 82.98 277.71 81.22 278.71 78.17 280.8 75.92 
M 280.73 84.57 282.39 82.93 283.31 80.5 284.43 78.31 285.74 76.61 
M 285.3 84.25 287.39 82.28 
M 289.86 84.56 292.27 83.37 
M 294.42 84.93 297.65 84.44 
M 298.91 85.76 298.92 85.77 
M 189.34 146.16 208.21 139.07 208.57 139.91 189.03 149.49 
M 188.93 150.29 232.54 137.66 232.82 138.53 188.41 153.75 
M 188.29 154.44 246.26 143.56 246.44 144.45 187.6 157.86 
M 187.47 158.45 251.56 152.97 251.66 153.88 186.63 161.8 
M 186.51 162.28 255.86 163.32 255.87 164.23 186.18 165.55 
M 186.14 165.96 248.25 173.35 248.16 174.26 185.64 169.21 
M 186.06 169.61 244.76 182.78 244.58 183.68 185.4 172.84 
M 186.22 173.31 235.51 189.93 235.24 190.8 185.24 176.46 
M 191.2 178.17 208.61 186.62 208.25 187.46 185.08 178.86 
M 206.35 141 211.23 141.73 216.05 141.92 218.44 141.7 220.8 141.27 223.15 140.64 227.81 139.03 
M 228.16 140.13 230.41 142.24 231.6 143.13 232.86 143.85 234.19 144.35 237.08 144.78 240.17 144.7 
M 240.41 145.83 240.41 148.14 240.56 149.2 240.88 150.17 241.39 151.03 242.94 152.42 244.96 153.53 
M 245.08 154.68 244.84 157.05 244.89 158.16 245.11 159.2 245.53 160.15 246.94 161.79 248.85 163.21 
M 248.85 164.37 246.43 165.45 245.35 166.1 244.43 166.88 243.67 167.8 242.63 170.03 242.01 172.61 
M 241.9 173.76 240.13 175.04 239.42 175.75 238.88 176.53 238.55 177.38 238.46 179.33 238.89 181.47 
M 238.66 182.6 236.19 182.89 235.06 183.19 234.03 183.64 233.14 184.27 231.7 186.05 230.58 188.27 
M 230.24 189.37 225.12 187.36 219.92 185.89 217.27 185.46 214.59 185.25 211.87 185.23 206.38 185.54 
M 229.27 141.22 231.6 143.13 232.86 143.85 234.19 144.35 235.6 144.66 238.61 144.78 
M 240.37 147 240.56 149.2 240.88 150.17 241.39 151.03 242.08 151.77 243.92 152.99 
M 221.25 151 221.37 152.43 221.91 153.61 222.36 154.1 223.55 154.89 
M 244.93 155.88 244.89 158.16 245.11 159.2 245.53 160.15 246.14 161.01 247.86 162.52 
M 224.21 158.05 224.18 159.53 224.33 160.21 225 161.38 226.11 162.37 
M 247.61 164.88 245.35 166.1 244.43 166.88 243.67 167.8 243.07 168.85 242.29 171.29 
M 225.95 165.18 224.49 165.98 223.39 167.08 223 167.76 222.49 169.35 
M 240.98 174.38 239.42 175.75 238.88 176.53 238.55 177.38 238.42 178.32 238.64 180.38 
M 237.4 182.71 235.06 183.19 234.03 183.64 233.14 184.27 232.36 185.08 231.12 187.13 
M 240.24 216.14 244.79 220.55 247.18 225.04 248.95 228.75 259.62 255.46 259.87 258.52 260.78 262.22 260.8 265.04 260.34 267.37 260.32 270.69 258.35 272.6 253.56 275.54 250.84 276.7 248.02 277.66 246.79 280 243.7 277.5 228.24 264.17 218.5 253.8 207.27 215.81 205.88 207.18 203.9 202.96 
M 235.84 214.91 240.58 221.45 241.85 224.38 243.09 226.47 244.5 229.61 246.58 236.37 
M 231.43 213.67 233.75 217.21 235.19 220.46 236.43 222.66 237.54 225.43 239.16 228.24 240.47 231.18 242.16 233.68 244 237 245.1 239.81 245.23 242.69 
M 227.12 212.16 229.13 215.74 230.52 218.69 232.77 226.39 234.31 229.44 235.4 232.78 237.16 235.21 239.15 237.59 240.12 240.59 240.51 243.32 240.27 246.35 241.22 249.11 243.43 252.03 245.48 254.07 248.36 256.52 247.71 259.24 248.13 262.57 
M 222.81 210.62 225.22 217.09 226.4 219.73 228.45 225.51 228.79 228.27 230.67 234.08 231.83 236.39 232.51 239.16 233.7 242.92 234.5 244.85 234.96 247.14 236.96 253.05 238.86 255.76 240.48 258.44 241.18 260.69 
M 218.54 208.99 220.2 212.89 220.65 215.78 221.33 218.71 223.1 224.41 224.28 226.74 226.3 232.91 226.04 235.87 226.22 239.33 228.09 241.89 
M 214.27 207.34 216 210.87 216.36 214.27 217.55 220.18 218.07 223.69 219.3 226.98 220.54 229.6 221.3 235.4 220.86 237.17 222 243.94 
M 210.05 205.59 211.9 209.16 212.43 212.21 212.32 215.39 212.95 218.99 213.28 222.23 214.29 226.14 215.24 228.9 215.85 231.68 216.18 234.42 217.8 240.22 217.8 243.21 
M 358.34 201.48 362.98 206 366.19 210.04 366.9 216.11 367.43 219.15 367.57 221.79 364.44 229.92 361.88 231.21 359.99 233.18 358.67 235.71 355.67 236.51 353.37 237.92 351.17 238.98 348.43 239.51 345.65 239.63 342.15 238.85 337.12 239.37 335.19 240.85 332.94 242.11 330.4 241.85 327.48 240.8 323.83 238.77 316.47 233.14 310.94 228.57 307.64 223.92 303.83 217.4 
M 354.35 203.71 360.5 210.03 
M 350.36 205.95 353.5 209.05 355.66 212.15 358.96 214.87 
M 346.25 207.96 351.59 212.74 354.2 216.17 357.27 219.4 362.32 224.23 364.05 226.9 
M 342.11 209.89 348.34 215.83 350.15 218.78 352.16 221.59 354.59 224.11 357.07 225.72 360.06 228.34 
M 337.83 211.51 341.43 214.79 343.81 217.29 346.3 219.47 348.56 222.78 349.67 226.23 
M 333.46 212.87 339.45 218.56 348.18 230.72 349.72 233.04 351.1 235.66 
M 329.03 213.98 331.92 217.53 336.45 221.93 338.54 225.33 
M 324.53 214.8 329.54 221.05 335.98 228.34 340.32 236.16 
M 320.02 215.57 322.3 219.26 327 225.11 328.5 227.32 330.85 229.68 
M 315.5 216.29 320.56 222.8 322.38 225.66 323.75 229.18 328.34 235.72 
M 310.96 216.85 314.25 220.75 315.45 223.11 317.56 226.16 318.7 229.73 
M 306.41 217.2 309.55 221.84 312.08 224.94 313.08 227.85 314.84 229.76 
M 403.77 134.18 407.24 133.21 409.54 132.15 421.05 126.32 423.06 124.98 425.51 123.63 428.46 122.56 431.57 120.64 435.45 116.96 437.43 116.15 439.38 115.13 441.37 113.29 444 112.15 452.3 107.17 455.24 106.41 457.58 105.44 459.38 103.97 461.2 101.8 463.52 100.64 466.44 99.58 469.58 96.84 473.25 95.91 475.98 94.54 478.11 92.05 480.1 90.67 481.49 87.78 476.39 99.79 472.45 103.6 470.92 105.93 468.66 107.55 467.15 109.9 465.92 112.51 462.08 116.31 459.62 117.68 458.57 120.28 458.28 123.57 457.63 126.49 454.65 131.16 450.66 134.89 449.48 137.58 447.52 139.5 444.98 140.84 443.12 142.76 441.72 145.14 439.04 146.34 436.85 148.03 436.2 151.17 435.82 154.41 434.72 156.54 433.98 158.7 433.41 161.31 433.12 164.21 435.64 167.31 439.99 171.86 441.5 179.46 442.67 182.13 443.37 187.2 444.27 189.9 445.29 192.14 446.87 197.84 447.81 203.56 445.98 201.84 443.39 200.74 438.07 197.87 435.64 196.33 430.69 191.29 428.4 189.81 426.12 188.54 423.87 186.95 419.08 185.04 413.95 181.41 412.07 179.64 406.79 175.66 403.77 172.84 
M 407.38 135.25 412.09 133.59 414.25 132.15 419.52 130.53 421.82 129.13 424.05 127.39 426.5 126.4 434.36 122.46 437.06 120.74 439.17 118.19 441.01 117.36 442.96 116.98 445.54 115.61 448.94 113.08 457.23 110.21 459.02 109.01 460.78 108.21 
M 403.77 138.05 407.35 137.61 415.12 135.33 417.61 134.13 420.56 133.75 423.02 132.22 429.88 129.28 432.76 127.75 439.39 123.22 442.06 122.17 445.65 120.5 448.59 118.53 451.34 117.7 453.22 116.65 455.64 116.33 
M 403.77 139.98 407.11 140.1 412.82 138.48 415.39 137.94 423.47 134.78 426.47 133.93 433.13 131.16 438.86 130.09 441.02 128.53 442.81 127.48 446.72 125.89 452.92 122.23 
M 403.77 141.91 407.04 142.26 410.38 141.58 415.6 139.71 418.27 139.47 420.82 139.03 423.75 137.48 426.99 136.76 431.97 135.15 435.65 133.59 438.26 133.87 444.14 132.05 447.92 131.81 451.32 129.71 
M 410.05 143.99 412.73 142.86 416.08 141.78 419.03 141.74 421.38 141.97 423.81 141.66 427.05 140.81 429.87 138.62 432.7 138.58 437.11 137.01 439.35 136.78 
M 403.77 145.78 406.79 146.73 410.04 146.56 416.07 144.12 418.97 144.56 424.45 145.1 435.89 141.11 438.13 141.38 
M 413.34 148.08 416.24 147.15 419.39 147.4 422.46 147.96 425.86 147.73 427.56 147.41 
M 403.77 149.64 407.4 151.03 410.39 151.32 416.82 151.44 419.99 150.62 422.94 150.94 426.38 152.24 429 151.94 
M 403.77 151.58 407.68 153.2 410.93 153.51 417.56 154.71 419.91 154.31 
M 407.63 155.37 411.03 156.24 417.72 157.22 419.88 157.32 423.15 157.37 426.76 156.46 429.85 157.52 433.1 156.43 
M 407.46 157.31 410.61 158.35 417 159.55 419.72 159.54 423.12 159.89 
M 407.34 159.38 410.36 160.31 413.61 160.39 416.53 161.13 420.16 161.47 
M 403.77 159.31 407.26 160.9 410.62 161.21 416.44 162.33 420.29 163.8 
M 410.63 163.25 413.57 163.88 416.28 165.48 419.81 167.07 
M 407.25 164.81 410.14 165.96 413.82 167.06 422.82 171.44 
M 413.45 169.84 416.86 171.42 419.32 173 422.07 174.26 424.71 175.03 
M 410.15 170.91 415.98 173.57 418.68 175.56 421.79 176.94 424.6 177.39 427.32 178.52 429.28 180.13 432.75 181.39 435.82 182.26 438.36 183.57 
M 406.87 171.57 413.02 174.88 417.97 178.39 421.09 179.82 423.38 180.55 425.42 180.86 428.2 183.54 431.19 184.95 434.62 185.6 
M 406.74 173.57 414.97 178.94 419.85 183.03 422.77 183.37 424.51 183.78 427.15 186.01 431.99 188.64 434.5 190.33 436.4 192.28 442.2 195.82 443.58 197.13 
M 331.09 98.42 337.04 100.61 346.88 92.54 349.79 91.86 355.89 87.19 358.31 86.25 361.43 86.03 364.76 86.18 367.14 85.48 369.64 85.35 377.11 86.33 380.35 87.51 383.74 89.59 386.53 92.35 387.47 95.18 387.16 96.75 389.88 101.05 392.06 103.79 395.18 106.06 395.77 108.78 394.93 110.92 395.05 113.75 394.97 116.47 390.82 128.06 385.6 125.34 
M 335.45 99.79 339.61 98.76 341.55 97.31 343.07 95.91 
M 339.81 101.17 343.06 99.86 344.88 98 346.86 97.29 348.63 96.09 
M 343.98 103.04 346.95 101.78 349.82 98.32 352.3 97.52 357.23 94.29 358.7 92.38 359.07 89.83 
M 348.14 104.96 357.93 98.83 360.1 96.75 361.2 95.35 362.28 94.35 
M 352.17 107.11 355.18 105.83 357.5 104.16 362.65 101.31 365.25 99.71 367.55 97.72 369.01 95.87 
M 356.16 109.34 359.01 108.31 361.21 106.45 363.77 105.28 368.81 102.14 371.59 100.64 374.72 96.7 377.08 95.12 
M 360.14 111.6 362.89 110.76 365.09 109.22 367.37 107.99 369.12 106.42 372.05 104.33 378.49 100.8 
M 364.1 113.89 366.86 113.83 371.48 110.96 380.64 104.41 382.64 103.26 
M 368.07 116.16 371.2 115.81 373.76 114.58 376.26 112.76 378.38 110.72 383.74 107.64 
M 372.08 118.35 375.36 117.27 384.66 112.09 
M 376.09 120.55 379.45 119.51 381.61 118.61 384.02 117.18 386.49 115.06 388.78 113.57 391.04 113.26 
M 380.17 122.62 383.9 122.16 385.78 120.6 387.61 118.62 
M 81.87 122.31 89.94 121.51 99.49 119.2 105.73 118.47 112.79 118.32 128.18 118.74 136.47 117.99 144.76 116.78 152.6 115.94 159.93 114.79 179.3 112.13 185.74 111.39 187.1 115.78 187.63 120.09 187.89 124.36 187.45 132.8 188.32 137.15 188.96 141.46 189.38 145.75 188.98 149.95 188.36 154.13 186.48 162.4 186.08 166.6 185.38 170.76 184.23 174.88 179.49 187.07 176.57 190.88 164.44 189.89 155.39 188.43 147.43 186.43 140.22 183.84 133.63 180.8 127.44 177.25 121.9 173.08 116.64 168.82 
M 114.63 167.16 111.42 164.52 106.86 160.03 102.85 155.38 93.17 143.1 
M 163.95 132.27 164.15 135.98 163.22 139.42 161.87 142.62 160.28 145.56 158.62 148.18 157.78 150.67 157.3 153.19 157.09 158.76 157.55 161.98 158.44 165.37 158.24 168.86 150.34 168.92 144.34 168.69 138.68 168.05 133.15 166.8 127.75 164.91 122.48 162.28 117.72 158.76 
M 115.56 168.26 107.18 158.96 101.34 151.8 91.78 141.76 85.55 134.76 82.72 131.19 78.19 126.12 77.61 123.86 78.9 121.96 81.19 121.74 82.98 123.23 95.47 139.95 96.97 141.69 105.39 152.56 109.34 158.39 117.02 168.52 
M 114.15 169.24 93.77 167.92 84.36 166.76 72.86 166.46 56.86 165.3 50.18 164.58 41.05 164.21 39.12 163.16 38.5 160.91 39.78 159.01 41.99 158.73 48.7 159.48 71.19 162.55 80.42 163.55 91.87 165.3 98.89 166.15 103.3 166.93 115.15 168.23 
M 116.12 168.31 116.73 168.36 
M 131.14 140.48 129.03 137.53 128 134.05 128.15 130.43 129.47 127.05 131.81 124.28 134.93 122.42 138.48 121.67 142.08 122.12 145.34 123.72 147.91 126.28 149.5 129.54 149.95 133.14 149.21 136.69 147.35 139.81 144.58 142.16 141.2 143.48 137.57 143.63 134.1 142.59 131.14 140.48 
M 146.11 127.56 147.39 130.17 147.75 133.05 147.15 135.89 145.67 138.39 143.45 140.26 140.75 141.32 137.85 141.44 135.06 140.61 132.7 138.92 
M 135.13 135.12 134.29 133.94 133.88 132.55 133.94 131.1 134.46 129.74 135.4 128.64 136.65 127.89 138.07 127.6 139.51 127.78 140.81 128.41 141.84 129.44 142.48 130.74 142.66 132.18 142.36 133.6 141.62 134.85 140.51 135.79 139.16 136.32 137.71 136.38 136.31 135.96 135.13 135.12 
M 134.84 132.4 138.77 136.33 
M 137.35 132.44 140.61 135.7 
M 138.45 131.08 141.84 134.47 
M 139.09 129.24 142.55 132.7 
M 141.06 128.74 141.92 129.6 
M 97.96 149.24 101.25 152.53 
M 81.99 122.29 82.66 122.97 
M 83.14 123.45 85.81 126.11 
M 87.01 121.82 90.43 125.24 
M 91.77 121.1 97.1 126.43 
M 96.21 120.05 100.88 124.72 
M 100.71 119.06 104.47 122.83 
M 105.62 118.49 110.68 123.54 
M 110.98 118.36 115.98 123.36 
M 116.51 118.4 119.48 121.37 
M 122.14 118.54 126.73 123.13 
M 127.82 118.73 131.51 122.42 
M 132.89 118.32 136.41 121.83 
M 137.85 117.79 142.29 122.22 
M 142.64 117.09 146.18 120.63 
M 147.53 116.49 150.78 119.74 
M 152.48 115.95 155.52 118.99 
M 157.23 115.21 161.01 118.99 
M 162 114.5 166.72 119.22 
M 166.81 113.82 172.19 119.2 
M 171.64 113.17 176 117.52 
M 176.48 112.51 180.25 116.29 
M 181.33 111.87 186.16 116.7 
M 169.27 188.34 166.64 187.4 162.97 186.8 161.35 185.5 160.86 185.28 160.07 185.46 159.48 185.94 
M 108.73 126.94 109.29 126.54 111.1 125.92 115.19 125.28 118.62 123.82 
M 156.68 138.44 159.93 143.24 161.11 144.3 161.92 146.11 
M 172.51 125.59 169.33 121.6 168.79 121.16 167.54 120.53 165.48 119.95 164.3 119.06 
M 175.09 159.84 175.32 159.22 176.48 159.15 177 158.96 
M 172.54 171.98 169.08 167.37 167.43 165.7 166.78 164.64 165.62 159.67 165.49 158.88 165.61 158.31 
M 130.35 139.37 128.83 140.14 128.1 140.29 
M 179.62 186.7 177.12 185.53 
M 107.96 119.28 107.02 121.64 106.36 122.35 104.63 122.74 102.15 122.45 
M 165.05 172.77 162.4 170.7 160.99 168.8 160.53 168.48 158.37 168.32 157.44 168.56 
M 180.76 183.56 179.51 182.62 178.91 181.38 
M 127.74 125.09 128.1 126.49 128.17 128.95 127.99 129.77 126.65 132.75 126.09 133.17 125.42 133.09 
M 177.12 129.5 174.29 130.45 171.41 130.05 169.74 130.09 167.32 131.31 
M 181.85 133.1 181.2 134.68 180.64 135.53 179.95 136.21 177.53 137.36 175.33 137.81 174.62 138.16 
M 113.79 154.25 115.21 152.5 115.43 151.84 115.45 151.04 115.27 149.95 114.97 149.35 114.08 148.52 113.27 148.29 
M 155.52 115.74 155.12 115.54 
M 167.51 127.42 166.54 126.38 164.83 122.62 163.94 121.6 163.63 120.45 
M 178.3 182.88 178.92 181.96 178.77 181.25 
M 155.44 161.18 152.21 163.09 151.56 163.31 150.19 163.56 146.59 163.7 145.06 163.96 
M 109.64 123.1 110.91 123.54 112.46 123.78 115.18 123.65 116.41 123.38 116.92 123.1 117.6 122.58 117.94 122.06 
M 149.71 129.07 149.14 128.8 
M 118.78 129.94 119.62 128.9 
M 183 139.1 183.08 138.22 183.43 137.99 
M 138.43 175.85 137.75 174.83 136.65 172.6 135.68 171.34 130.72 167.22 129.95 166.73 
M 132.31 119.98 131.71 119.23 130.52 118.53 
M 157.96 122.44 161.96 121.77 162.44 121.29 162.59 120.7 
M 172.37 166.04 172.15 163.83 172.56 161.27 172.41 159.06 171.92 157.88 171.05 156.97 
M 112.72 148.81 112.55 148.46 112.23 148.45 
M 128.08 152.73 127.02 152.92 126.2 153.4 124.12 155.83 123.47 156.26 122.38 156.52 
M 147.24 179.57 145.01 178.52 142.05 177.56 139.99 177.97 139.08 178.35 137.95 179.28 137.18 180.18 
M 108.05 144.04 107 143.32 
M 160.82 189.31 159.47 186.67 159.24 186.5 158.97 186.54 
M 162.9 185.62 161.37 185 160.82 184.93 159.66 185.58 158.93 186.55 
M 110.16 163.28 110.64 162.7 
M 111.36 161 111.76 159.84 112.38 159.02 114.26 158.3 
M 106.09 159.14 106.69 158.36 
M 108.06 156.58 108.96 155.22 
M 166.92 171.96 165.08 170.77 161.47 166.9 160.8 166.62 160.14 166.63 157.92 167.55 
M 181.06 182.76 180 182.04 179.1 181.2 178.74 181.17 
M 170.36 169.06 169.1 167.41 167.45 165.75 166.78 164.69 166.43 163.67 165.43 158.93 165.78 157.84 166.56 156.89 
M 117.51 169.7 115.34 171.56 109.86 175.62 108.96 176.48 108.24 177.45 107.73 178.53 107.51 179.68 107.63 180.82 108.14 181.84 109.03 182.59 110.17 183 111.44 183.09 112.73 182.93 114 182.56 116.4 181.35 118.49 179.61 120.14 177.43 118.58 179.69 117.65 180.72 115.47 182.44 112.91 183.62 111.5 183.92 110.02 183.94 108.54 183.54 107.24 182.63 106.39 181.26 106.07 179.7 106.24 178.13 106.76 176.67 107.56 175.36 108.55 174.22 113.73 169.64 115.57 167.76 
M 116.62 168.83 117.12 169.44 
M 111.08 163.22 111.12 163.5 111.3 163.47 
M 108.4 160.32 108.4 160.89 108.74 160.7 
M 105.83 157.32 105.69 158.27 106.31 157.9 
M 103.4 154.21 103.09 154.78 102.98 155.66 103.44 155.2 104.02 155.02 
M 100.89 151.29 100.43 152.03 100.26 153.04 100.78 152.46 101.64 152.14 
M 98.29 148.53 97.78 149.28 97.55 150.43 98.13 149.71 99.06 149.31 
M 95.69 145.76 95.12 146.53 94.84 147.81 95.47 146.96 96.41 146.52 
M 93.07 143.01 92.47 143.79 92.13 145.2 92.82 144.21 93.78 143.73 
M 90.45 140.25 89.81 141.04 89.41 142.58 90.16 141.46 91.09 140.97 
M 87.94 137.36 87.16 138.29 86.7 139.97 87.5 138.71 88.61 138.11 
M 85.38 134.53 84.5 135.54 83.99 137.35 84.85 135.96 86.04 135.28 
M 82.98 131.52 81.84 132.79 81.27 134.73 82.19 133.22 83.65 132.36 
M 80.46 128.65 79.19 130.04 78.56 132.12 79.54 130.47 81.19 129.48 
M 78.07 125.65 76.53 127.29 75.85 129.5 76.88 127.72 78.65 126.63 
M 116.65 168.74 117.45 168.82 
M 109.02 167.62 109.52 167.4 109.79 167.7 
M 105.38 167.14 106.02 166.74 106.31 167.27 
M 101.76 166.68 102.51 166.07 102.78 166.84 
M 98.26 166.07 99 165.41 99.13 166.19 
M 94.62 165.66 94.88 165.24 95.49 164.75 95.42 165.29 95.59 165.75 
M 91.05 165.16 91.31 164.66 91.98 164.08 91.86 164.72 92.04 165.32 
M 87.52 164.56 87.75 164.08 88.47 163.42 88.29 164.14 88.44 164.72 
M 83.95 164.03 84.18 163.51 84.96 162.75 84.73 163.56 84.85 164.15 
M 80.37 163.55 80.62 162.93 81.45 162.09 81.16 162.98 81.29 163.67 
M 76.76 163.13 77.05 162.35 77.94 161.42 77.6 162.4 77.73 163.23 
M 73.16 162.71 73.48 161.77 74.44 160.76 74.03 161.83 74.17 162.83 
M 69.55 162.33 69.92 161.19 70.93 160.09 70.47 161.25 70.61 162.47 
M 65.97 161.85 66.35 160.62 67.42 159.43 66.9 160.67 67.04 161.99 
M 62.38 161.42 62.79 160.04 63.91 158.76 63.33 160.09 63.46 161.53 
M 58.82 160.87 59.22 159.46 60.4 158.1 59.77 159.52 59.89 161.06 
M 55.25 160.38 55.66 158.88 56.89 157.43 56.2 158.94 56.31 160.51 
M 51.68 159.88 52.09 158.31 53.38 156.77 52.64 158.36 52.74 160.03 
M 48.1 159.41 48.53 157.73 49.87 156.11 49.07 157.78 49.16 159.54 
M 44.5 159.04 44.96 157.15 46.36 155.44 45.51 157.2 45.59 159.13 
M 40.84 158.88 41.4 156.57 42.85 154.78 41.94 156.63 42.02 158.74 
M 49.68 164.54 60.82 168.69 70.77 171.99 80.92 174.76 91.17 176.86 101.77 178.48 106.16 178.9 
M 107.63 179.05 118.16 179.92 
M 118.36 179.93 133.63 180.8 
M 71.23 167.6 70.16 167.85 68.86 167.56 
M 124.34 178.83 124.36 179.65 123.96 180.31 
M 186.31 113.23 195.83 122.75 
M 189.82 109.43 198.31 117.92 
M 194.77 107.06 205.37 117.66 
M 199.87 104.85 208.25 113.22 
M 205.01 102.67 213.13 110.79 
M 210.28 100.62 217.18 107.52 
M 215.41 98.43 223.49 106.51 
M 220.39 96.09 230.7 106.41 
M 225.25 93.63 232.27 100.66 
M 230.05 91.12 237.82 98.89 
M 235.31 89.06 244.08 97.83 
M 240.78 87.21 246.44 92.87 
M 247.04 86.16 255.49 94.61 
M 253.59 85.39 261.53 93.33 
M 260.48 84.96 268.8 93.28 
M 267.82 84.98 274.65 91.82 
M 275.03 84.88 285.34 95.19 
M 281.95 84.49 291.3 93.83 
M 289.31 84.52 297.49 92.71 
M 297.62 85.51 304.85 92.75 
M 307.61 88.19 317.98 98.56 
M 321.45 94.72 331.22 104.49 
M 333.11 99.06 342.27 108.21 
M 344.78 103.41 351.79 110.42 
M 360.5 111.81 366.72 118.03 
M 377.05 121.05 384.58 128.57 
M 391.57 128.24 397.4 134.07 
M 406.01 135.36 409.71 139.07 
M 224.18 291.39 222.29 297.7 
M 224.18 291.39 228.08 291.39 
M 223.28 294.39 225.68 294.39 
M 222.29 297.7 226.19 297.7 
M 229.25 293.5 227.36 299.8 
M 228.98 294.39 229.76 293.8 230.45 293.5 231.35 293.5 231.86 293.8 232.28 294.39 232.31 295.3 232.13 295.89 231.56 296.8 230.78 297.39 230.09 297.7 229.19 297.7 228.68 297.39 228.26 296.8 
M 235.58 291.39 233.69 297.7 
M 234.59 294.7 235.76 293.8 236.45 293.5 237.35 293.5 237.86 293.8 237.89 294.7 236.99 297.7 
M 240.98 291.39 241.19 291.7 241.58 291.39 241.37 291.1 240.98 291.39 
M 240.65 293.5 239.39 297.7 
M 245.78 294.39 245.66 293.8 244.85 293.5 243.95 293.5 242.96 293.8 242.48 294.39 242.6 295 243.11 295.3 244.52 295.6 245.03 295.89 245.15 296.5 244.58 297.39 243.59 297.7 242.69 297.7 241.88 297.39 241.76 296.8 
M 254.45 293.5 253.19 297.7 
M 254.18 294.39 253.76 293.8 253.25 293.5 252.35 293.5 251.66 293.8 250.88 294.39 250.31 295.3 250.13 295.89 250.16 296.8 250.58 297.39 251.09 297.7 251.99 297.7 252.68 297.39 253.46 296.8 
M 257.48 291.39 255.59 297.7 
M 259.25 293.5 257.36 299.8 
M 258.98 294.39 259.76 293.8 260.45 293.5 261.35 293.5 261.86 293.8 262.27 294.39 262.31 295.3 262.13 295.89 261.56 296.8 260.77 297.39 260.09 297.7 259.19 297.7 258.68 297.39 258.26 296.8 
M 265.27 291.39 265.49 291.7 265.88 291.39 265.66 291.1 265.27 291.39 
M 264.95 293.5 263.69 297.7 
M 270.38 294.39 269.95 293.8 269.45 293.5 268.55 293.5 267.86 293.8 267.08 294.39 266.51 295.3 266.33 295.89 266.36 296.8 266.77 297.39 267.29 297.7 268.19 297.7 268.88 297.39 269.66 296.8 
M 276.05 293.5 274.79 297.7 
M 275.77 294.39 275.36 293.8 274.85 293.5 273.95 293.5 273.26 293.8 272.48 294.39 271.91 295.3 271.73 295.89 271.76 296.8 272.18 297.39 272.69 297.7 273.58 297.7 274.27 297.39 275.06 296.8 
M 278.45 293.5 277.55 296.5 277.58 297.39 278.08 297.7 278.99 297.7 279.68 297.39 280.85 296.5 
M 281.75 293.5 280.49 297.7 
M 286.88 294.39 286.76 293.8 285.95 293.5 285.05 293.5 284.06 293.8 283.58 294.39 283.7 295 284.2 295.3 285.62 295.6 286.13 295.89 286.15 296.8 285.68 297.39 284.69 297.7 283.79 297.7 282.98 297.39 282.86 296.8 
M 289.58 291.39 289.79 291.7 290.18 291.39 289.97 291.1 289.58 291.39 
M 289.25 293.5 287.99 297.7 
M 294.38 294.39 294.26 293.8 293.45 293.5 292.55 293.5 291.56 293.8 291.08 294.39 291.2 295 291.7 295.3 293.12 295.6 293.63 295.89 293.65 296.8 293.18 297.39 292.19 297.7 291.29 297.7 290.48 297.39 290.36 296.8 
M 295.97 297.1 295.58 297.39 295.79 297.7 296.18 297.39 295.97 297.1 
"/></svg>
