<svg xmlns="http://www.w3.org/2000/svg" width="520" height="320"><rect x="0" y="0" width="520" height="320" fill="floralwhite"/><rect x="10" y="10" width="500" height="300" stroke="black" stroke-width="1" fill="none"/><path stroke="black" stroke-width="1" fill="none" stroke-linecap="round" stroke-linejoin="round" d="
M 177.55 125.99 198.82 118.34 205.91 116.1 220.1 112.89 227.2 110.34 234.3 108.33 241.39 107.22 248.49 107.31 276.87 112.97 291.06 116.8 305.26 121.12 312.35 123.11 319.45 125.42 326.54 128.13 333.64 131.3 340.74 134.72 354.93 141.96 
M 354.93 189.92 340.74 196.72 333.64 199.72 319.45 204.94 312.35 206.98 298.16 210.47 283.97 214.37 262.68 217.89 255.58 218.23 248.49 217.62 234.3 217.47 213.01 215.6 205.91 214.72 198.82 213.49 191.72 211.78 177.53 207.72 170.42 205.01 
M 178.4 129.43 179.45 128.23 179.45 126.67 178.54 125.63 
M 180.02 127.63 182.04 126.8 184.62 124.69 185.77 123.05 
M 178.88 141.24 182.13 138.64 184.08 135.81 184.08 134.05 182.13 131.22 179.1 128.71 178.66 128.53 
M 178.68 132.78 180.38 132.63 
M 178.72 135.12 180.68 135.27 
M 178.74 136.76 180.54 137.01 
M 185.19 135.49 187.75 134.56 191.03 132.16 193.14 129.44 193.14 127.76 191.03 125.05 187.75 122.65 187.31 122.49 
M 182.43 127.52 189.67 126.49 
M 182.69 128.83 189.55 128.76 
M 182.92 130.03 189.37 130.5 
M 180.56 150.66 183.48 149.58 187.22 146.82 189.64 143.69 189.64 141.75 187.22 138.62 183.38 135.82 
M 179.06 140.88 185.32 140.52 
M 178.94 142.65 185.54 142.37 
M 179.11 144.78 185.29 145.37 
M 180.49 162.41 182.88 158.96 182.88 156.81 180.46 153.32 179.83 152.8 
M 192.8 127.81 194.8 126.93 197.37 124.7 199.02 122.17 199.02 120.61 197.78 118.72 
M 195.72 119.46 195.81 119.45 
M 190.8 121.24 196.36 121.42 
M 191.11 122.76 195.75 123.39 
M 191.18 144.4 193.33 143.34 196.09 140.6 197.87 137.5 197.87 135.58 196.09 132.47 193.33 129.74 192.38 129.27 
M 189.09 134.92 194.56 134.05 
M 189.23 136.69 194.29 136.76 
M 189.19 138.32 194.39 138.87 
M 185.54 160.05 188.21 158.92 191.62 156.04 193.82 152.78 193.82 150.76 191.62 147.49 188.78 145.09 
M 183.04 150.06 189.7 149.08 
M 182.59 151.54 190.06 151.99 
M 183.09 153.68 190.05 154.6 
M 180.25 173.77 182.71 171.2 184.68 167.61 184.68 165.38 182.71 161.79 181.91 160.95 
M 180.6 163.62 181.36 163.51 
M 180.56 166.43 180.73 166.42 
M 180.5 169.09 181.12 169.15 
M 176.56 192.92 178.58 190.67 180.54 186.84 180.54 184.47 178.8 181.08 
M 199.53 121.22 201.96 120.54 205.06 118.81 207.07 116.86 207.07 115.85 
M 200.95 117.67 203.47 117.96 
M 198.54 136.38 201.02 135.38 204.18 132.83 206.22 129.95 206.22 128.16 204.18 125.27 201.02 122.72 198.54 121.72 
M 196.37 127.78 202.56 126.51 
M 195.93 129.27 202.54 129.41 
M 196.04 130.9 202.6 131.16 
M 195.81 153.62 198.62 152.48 202.22 149.55 204.54 146.23 204.54 144.17 202.22 140.85 198.62 137.92 197.24 137.35 
M 192.83 143.62 200.56 142.93 
M 192.74 145.34 200.57 144.89 
M 192.75 147.1 200.09 147.37 
M 189.67 169.89 192.74 168.69 196.68 165.61 199.22 162.12 199.22 159.96 196.68 156.48 193.03 153.63 
M 187.87 158.86 194.64 158.27 
M 187.02 160.81 194.53 160.72 
M 186.82 162.46 194.63 163.73 
M 183.35 187.18 186.27 185.96 
M 191.69 175.11 190.27 173.03 186.38 169.78 183.98 168.77 
M 180.68 176.29 184.62 175.54 
M 185.28 175.42 188.53 174.81 
M 180.04 177.88 184.62 177.83 
M 180.35 179.5 184.62 180.21 
M 189.01 197.65 189.01 195.6 186.63 191.94 182.93 188.71 180.04 187.45 
M 177.33 194.54 184.67 193.69 
M 184.25 196.76 184.54 196.77 
M 205.79 127.87 207.82 127 210.41 124.76 212.08 122.23 212.08 120.66 210.41 118.13 207.5 115.76 
M 203.82 119.84 209.07 119.15 
M 204.01 121.55 209.39 121.51 
M 204.02 122.72 208.7 123.15 
M 204.4 145.44 206.46 144.27 209.1 141.27 210.8 137.88 210.8 135.78 209.1 132.39 206.46 129.4 205.49 128.85 
M 202.45 135.06 208.04 133.91 
M 202.04 136.8 207.74 136.5 
M 202.03 138.37 207.41 139.2 
M 202.11 164.6 204.6 163.39 207.8 160.27 209.86 156.75 209.86 154.56 207.8 151.04 204.6 147.92 203.71 147.49 
M 199.62 154.16 206.09 152.77 
M 199.83 155.64 206.44 155.84 
M 199.8 157.44 206.13 158.17 
M 200.03 174.75 202.17 171.36 202.17 169.16 199.92 165.6 198.24 164.08 
M 192.48 168.52 198.06 167.9 
M 191.24 170.45 197.96 170.58 
M 191.34 171.75 197.71 172.65 
M 190.36 197.9 191.85 197.17 195.24 193.87 197.15 190.62 
M 186.66 187.25 188.37 186.97 
M 186.56 188.79 191.2 188.67 
M 186.29 190.88 193.58 191.74 
M 212.6 121.36 214.99 120.69 218.06 118.95 220.04 116.99 220.04 115.78 218.06 113.82 217.51 113.51 
M 210.43 115.71 216.82 115.25 
M 210.07 116.12 216.71 116.65 
M 209.98 117.24 216.39 117.95 
M 211.69 136.92 214.14 135.88 217.28 133.22 219.3 130.21 219.3 128.34 217.28 125.33 214.14 122.66 211.69 121.63 
M 209.2 127.77 215.38 126.62 
M 209.4 128.95 215.91 128.96 
M 209.07 130.8 215.94 131.74 
M 210.31 155.96 212.98 154.73 216.39 151.57 218.59 147.99 218.59 145.77 216.39 142.19 212.98 139.03 210.31 137.8 
M 207.92 144.79 214.41 144.16 
M 207.83 146.75 214.77 146.98 
M 207.92 148.89 214.44 149.31 
M 206.01 173.94 209.11 172.69 213.07 169.47 215.62 165.82 215.62 163.57 213.07 159.92 209.12 156.71 
M 204.65 162.97 210.63 162.12 
M 203.04 164.31 210.63 165.04 
M 202.73 166.62 210.61 167.27 
M 204.25 174.6 203.4 173.96 201.36 173.18 
M 205.67 199.9 205.67 199.07 203.14 195.57 199.23 192.47 196.65 191.45 
M 193.07 198.14 201.26 197.73 
M 219.39 114.8 221.32 114.33 223.8 113.11 225.41 111.73 225.41 110.99 
M 221.39 112.43 222.31 112.45 
M 218.86 128.08 220.85 127.2 223.4 124.94 225.05 122.38 225.05 120.79 223.4 118.23 220.85 115.97 219.33 115.3 
M 216.72 120.03 222.08 119.36 
M 216.86 121.49 221.8 121.83 
M 217.19 122.7 222.45 123.23 
M 217.8 146.23 219.79 145.06 222.47 141.9 224.19 138.33 224.19 136.12 222.47 132.54 219.79 129.39 218.57 128.67 
M 215.67 135.15 220.78 134.3 
M 215.71 137.52 220.77 137.54 
M 215.67 139.23 220.73 140.3 
M 217.05 167.51 219.28 166.19 222.14 162.81 223.98 158.98 223.98 156.61 222.14 152.79 219.28 149.41 217.8 148.54 
M 214.96 155.88 220.25 154.66 
M 215 157.68 220.82 158.05 
M 214.76 159.5 220.32 160.86 
M 219.9 173.65 217.71 170.25 214.71 167.61 
M 208.2 173.23 215.97 172.23 
M 210.38 200.26 212.61 198.23 214.88 194.62 214.88 193.95 
M 203.93 193.23 210.91 193.66 
M 203.56 195.23 210.92 196.46 
M 225.23 121.21 227.57 120.51 230.57 118.72 232.5 116.69 232.5 115.43 230.57 113.39 227.57 111.6 225.46 110.97 
M 223.13 115.11 229.35 114.8 
M 222.86 116.18 228.66 116.23 
M 222.59 117.1 229.35 117.48 
M 224.82 137.44 227.24 136.36 230.34 133.59 232.34 130.45 232.34 128.51 230.34 125.37 227.24 122.6 224.82 121.52 
M 222.87 127.5 228.52 127.24 
M 222.81 129.37 228.91 129.58 
M 222.7 131.14 228.96 131.92 
M 224.18 157.57 226.69 156.25 229.91 152.87 231.98 149.05 231.98 146.69 229.91 142.86 226.69 139.49 224.18 138.17 
M 222.09 146.2 228.32 144.75 
M 221.84 147.6 228.41 148.03 
M 221.97 149.57 228.53 150.81 
M 227.82 173.85 228.58 173.13 230.95 169.21 230.95 166.78 228.58 162.86 224.9 159.39 223.32 158.65 
M 219.36 165.68 226.44 165.1 
M 219.14 168.05 226.27 168.17 
M 219.48 169.65 226.94 170.9 
M 217.53 196 220.76 194.72 
M 220.3 200.69 219.06 199.08 215.14 196.19 214.07 195.8 
M 216.27 200.56 216.63 200.49 
M 231.25 113.85 233.13 113.35 235.55 112.06 237.11 110.6 237.11 109.7 235.39 108.16 
M 232.05 108.96 234.19 108.74 
M 229.38 110.33 234.48 110.31 
M 229.3 110.58 234.64 111.52 
M 231.62 128.03 233.41 127.18 235.95 124.76 237.59 122.03 237.59 120.33 235.95 117.6 233.41 115.18 231.81 114.42 
M 229.35 119.62 234.63 118.83 
M 229.12 120.92 234.44 121.14 
M 229.27 122.74 234.9 123.52 
M 231.29 147.26 233.29 145.99 235.85 142.74 237.5 139.06 237.5 136.78 235.85 133.1 233.29 129.85 231.62 128.79 
M 229.71 136.03 234.53 135.46 
M 229.39 137.81 234.13 137.67 
M 229.17 139.87 234.56 140.91 
M 230.67 169.21 232.72 167.76 235.35 164.04 237.04 159.83 237.04 157.23 235.35 153.02 232.72 149.3 231.24 148.25 
M 228.62 156.78 233.92 155.46 
M 229.08 158.33 233.97 158.59 
M 228.55 160.35 234.34 161.48 
M 233.2 173.6 231.66 171.86 230.1 170.98 
M 230.22 200.98 231.58 198.91 231.58 196.86 231.29 196.41 
M 221.16 196.21 227.08 195.77 
M 220.6 197.87 227.33 197.88 
M 220.76 199.26 227.82 200.16 
M 237.67 120.88 240.07 120.15 243.14 118.28 245.12 116.17 245.12 114.87 243.14 112.76 240.07 110.89 237.67 110.16 
M 235.01 114.66 241.22 113.85 
M 235.33 115.37 241.33 115.68 
M 235.61 116.32 241.47 116.93 
M 237.63 137.46 240.04 136.35 243.13 133.53 245.12 130.33 245.12 128.35 243.13 125.15 240.04 122.32 237.63 121.22 
M 234.93 127.44 241.76 127.15 
M 235.42 129.69 241.26 129.34 
M 235.11 131.15 241.29 131.52 
M 237.2 157.97 239.62 156.61 242.72 153.13 244.72 149.18 244.72 146.74 242.72 142.8 239.62 139.31 237.2 137.95 
M 234.98 145.94 241.02 145.23 
M 234.68 147.83 241.15 148.22 
M 234.78 149.64 241.33 151.31 
M 242.71 173.35 244.09 170.62 244.09 168.04 242 163.87 238.75 160.2 236.44 158.89 
M 233.93 167.29 239.95 166.17 
M 234.1 169.1 239.99 169.47 
M 233.69 171.64 240.24 172.55 
M 233.39 199.55 236.25 198.24 237.65 196.94 
M 233.37 201.07 231.37 199.69 230.8 199.49 
M 243.84 113.37 245.66 112.9 248.29 111.54 249.98 110.01 249.98 109.06 248.29 107.53 247.85 107.3 
M 241.88 108.98 246.91 108.41 
M 241.32 109.37 246.87 109.79 
M 241.9 110.14 246.61 110.43 
M 244.41 128.09 246.47 127.17 249.13 124.77 250.84 122.05 250.84 120.37 249.13 117.65 246.47 115.26 244.41 114.33 
M 242.66 119.55 247.8 118.78 
M 242.14 120.93 247.56 121.47 
M 242.17 122.73 247.55 123.19 
M 244 145.96 245.39 145.07 247.92 141.84 249.56 138.18 249.56 135.91 247.92 132.25 245.39 129.01 244.41 128.39 
M 241.36 135.38 246.29 134.12 
M 241.67 136.69 246.62 136.76 
M 241.22 138.83 246.27 139.48 
M 243.44 169.08 245.47 167.62 248.08 163.89 249.75 159.66 249.75 157.04 248.08 152.82 245.47 149.08 244 148.03 
M 241.14 156.18 246.84 155.34 
M 241.68 158.48 246.72 158.11 
M 241.6 160.87 247 161.76 
M 245.36 173.43 243.34 170.47 
M 247.25 201.06 247.25 200.07 245.06 196.23 
M 237.12 199.14 243.19 198.57 
M 250.93 121.19 253.46 120.47 256.7 118.61 258.79 116.51 258.79 115.21 256.7 113.11 253.46 111.26 250.93 110.53 
M 248.65 114.86 254.86 114.44 
M 248.33 116.17 255.05 115.55 
M 248.43 116.62 254.92 117.19 
M 250.66 137.47 253.16 136.38 256.37 133.58 258.43 130.42 258.43 128.46 256.37 125.3 253.16 122.5 250.66 121.41 
M 248.49 127.62 254.92 127.24 
M 247.99 129.41 254.42 129.33 
M 248.37 130.93 255.07 131.99 
M 250.1 157.87 252.59 156.52 255.77 153.05 257.83 149.13 257.83 146.7 255.77 142.78 252.59 139.31 250.1 137.96 
M 247.57 146.09 254.16 145.18 
M 247.55 147.98 253.93 148.02 
M 247.39 149.88 254.22 150.69 
M 254.72 174.46 256.57 170.5 256.57 167.85 254.56 163.57 251.45 159.78 249.15 158.39 
M 246.35 167.11 252.77 166.28 
M 246.36 169.38 253.15 168.88 
M 246.98 171.39 252.7 172.59 
M 248.95 201.12 250.22 200.43 253.58 196.73 253.92 196.06 
M 258.05 114.35 259.77 113.94 262.58 112.61 264.39 111.11 264.39 110.41 
M 255.55 110.17 259.62 109.45 
M 255.61 110.69 261.23 110.35 
M 255.16 111.15 260.91 111.63 
M 258.13 128.78 260.25 127.87 262.97 125.53 264.72 122.88 264.72 121.24 262.97 118.59 260.25 116.25 258.13 115.34 
M 255.97 120.72 261.59 119.85 
M 256 121.84 261.62 122.44 
M 256.46 123.56 261.35 124.41 
M 257.09 146.44 258.88 145.4 261.64 142.2 263.42 138.57 263.42 136.32 261.64 132.7 258.88 129.49 257.69 128.8 
M 254.51 136 260.01 135.04 
M 254.8 137.24 260.41 137.58 
M 254.47 139.51 260.35 140.17 
M 256.82 169.41 258.94 167.97 261.67 164.29 263.43 160.11 263.43 157.52 261.67 153.35 258.94 149.66 257.09 148.4 
M 254.46 156.54 260.31 155.29 
M 254.66 158.45 260.4 159.19 
M 254.91 160.88 260.38 162.13 
M 259.28 174.91 258.87 173.81 256.3 169.84 255.85 169.5 
M 261.71 201.72 260.35 198.59 258.14 195.71 
M 253.64 201.6 258.91 200.9 
M 264.78 122.08 267.31 121.36 270.55 119.54 272.64 117.48 272.64 116.2 270.55 114.14 267.31 112.32 264.78 111.61 
M 262.12 116.08 268.75 115.01 
M 262.08 116.48 268.83 116.97 
M 262.18 117.7 269.02 118.06 
M 264.41 138.3 266.94 137.21 270.19 134.43 272.28 131.28 272.28 129.33 270.19 126.17 266.94 123.39 264.41 122.31 
M 262.1 129.09 268.28 128.11 
M 261.78 130.14 268.75 130.35 
M 261.84 131.91 268.37 132.97 
M 263.85 158.64 266.41 157.3 269.68 153.87 271.79 149.99 271.79 147.58 269.68 143.7 266.41 140.28 263.85 138.94 
M 261.27 147.2 267.63 146.07 
M 261.49 149.04 267.98 148.67 
M 261.62 151.12 267.73 151.9 
M 268.14 175.1 270.2 170.89 270.2 168.24 268.11 163.95 264.85 160.17 262.8 158.97 
M 260.13 167.66 266.65 166.25 
M 260.24 169.93 266.32 169.61 
M 259.69 171.64 266.56 172.94 
M 264.18 201.54 267.19 197.93 268.81 194.53 
M 263.26 195.42 265.06 195.86 
M 271.89 115.52 273.8 115.07 276.46 113.8 277.31 113.09 
M 270 111.68 270.75 111.74 
M 269.41 112.53 274.93 112.78 
M 271.7 129.5 273.74 128.59 276.36 126.23 278.04 123.57 278.04 121.92 276.36 119.25 273.74 116.9 271.89 116.07 
M 269.54 121.06 275.06 120.56 
M 269.66 122.8 274.79 122.61 
M 269.47 124.15 274.6 124.96 
M 271.08 148.26 273.21 146.99 275.93 143.76 277.69 140.09 277.69 137.82 275.93 134.16 273.21 130.92 271.53 129.93 
M 268.93 137.16 274.57 136.39 
M 268.98 139.1 274.8 139.29 
M 268.92 141.02 274.26 141.8 
M 270.79 170.22 272.9 168.82 275.6 165.24 277.34 161.18 277.34 158.67 275.6 154.61 272.9 151.03 271.04 149.8 
M 268.73 158.21 274.2 157 
M 268.53 159.58 274.3 160.02 
M 268.48 162.13 274.06 163.18 
M 273.11 175.7 272.43 174.04 269.45 170.05 
M 273.99 200.47 273.18 198.28 270.47 194.09 
M 278.02 122.4 280.41 121.69 283.46 119.87 285.42 117.81 285.42 116.53 283.7 114.72 
M 275.34 116.17 281.63 115.98 
M 276.11 117.13 281.48 117.35 
M 275.93 118.57 282.03 118.57 
M 277.81 138.88 280.24 137.79 283.36 134.97 285.36 131.78 285.36 129.81 283.36 126.62 280.24 123.81 277.81 122.71 
M 275.51 129.43 281.37 128.74 
M 275.25 130.52 281.73 130.83 
M 275.74 132.05 281.82 133.06 
M 277.46 159.46 279.94 158.11 283.12 154.64 285.18 150.72 285.18 148.29 283.12 144.36 279.94 140.89 277.46 139.54 
M 274.88 147.87 281.17 146.2 
M 274.89 149.39 281.73 149.12 
M 275.17 151.69 281.66 152.39 
M 282.19 176.1 284.3 171.89 284.3 169.22 282.14 164.91 278.79 161.11 276.71 159.92 
M 273.34 168.24 280.47 167.51 
M 273.71 170.34 280.04 170.2 
M 273.78 173.06 280.47 173.53 
M 280.6 199.79 281.26 199.02 283.45 194.49 283.45 192.45 
M 277.99 192.89 279.17 192.83 
M 272.45 195.42 279.76 196.69 
M 284.36 115.19 284.88 115.05 
M 284.64 129.22 286.32 128.41 288.79 126.02 290.39 123.31 290.39 121.63 288.79 118.93 286.32 116.53 284.72 115.76 
M 282.8 120.87 287.61 120.62 
M 282.15 122.68 287.88 122.14 
M 282.66 123.54 287.52 124.26 
M 284.44 148.19 286.08 147.15 288.64 143.88 290.29 140.17 290.29 137.87 288.64 134.16 286.08 130.89 284.64 129.98 
M 282.26 137.42 287.67 136.33 
M 281.94 139.25 287.52 139.25 
M 282.41 140.9 287.16 141.75 
M 283.89 170.95 285.93 169.47 288.55 165.7 290.24 161.42 290.24 158.78 288.55 154.5 285.93 150.73 284.44 149.65 
M 281.67 157.62 287.15 156.75 
M 281.96 159.82 287.06 160.17 
M 282.14 162.34 287.19 163.55 
M 282.67 193.77 284.98 192.24 
M 288.81 178.35 288.01 176.49 285.01 172.52 283.52 171.54 
M 286.73 198.9 284.56 195.84 282.67 194.51 
M 290.28 121.83 292.59 121.1 295.55 119.22 296.27 118.42 
M 288.41 116.61 290.03 116.51 
M 287.87 117.41 293.64 117.94 
M 290.46 138.78 292.81 137.65 295.82 134.77 297.77 131.5 297.77 129.48 295.82 126.21 292.81 123.33 290.46 122.2 
M 288.47 129.15 293.88 128.09 
M 288.03 130.13 294.25 130.57 
M 287.84 131.91 294.35 132.89 
M 290.47 159.9 292.89 158.49 295.98 154.91 297.98 150.84 297.98 148.32 295.98 144.26 292.89 140.67 290.47 139.27 
M 288.14 147.83 294.14 146.76 
M 288.33 149.35 294.54 149.5 
M 288.44 152.02 294.35 152.74 
M 294.55 179.4 296.09 177.56 298.22 173.11 298.22 170.35 296.09 165.9 292.79 161.97 290.21 160.44 
M 287.51 169.3 294.31 168.31 
M 287.47 171.82 294.49 171.56 
M 288.04 174.31 294.46 175.04 
M 297.55 196.87 297.92 196.11 297.92 193.35 296.14 189.73 
M 287.31 192.78 293.84 191.65 
M 286.85 194.89 293.98 194.87 
M 287 196.93 292.68 197.77 
M 297.07 128.53 298.48 127.83 300.97 125.33 302.58 122.49 302.58 120.74 302.29 120.24 
M 294.69 119.91 299.98 119.71 
M 294.69 121.75 300.04 121.44 
M 294.6 123.26 299.88 123.45 
M 297.26 148.26 298.81 147.22 301.32 143.85 302.93 140.03 302.93 137.67 301.32 133.85 298.81 130.48 297.07 129.31 
M 295.03 137.29 300.2 135.99 
M 295.01 138.66 299.63 138.96 
M 295.09 140.51 299.7 142.05 
M 297.45 171.39 299.13 170.14 301.75 166.2 303.45 161.74 303.45 158.98 301.75 154.52 299.13 150.59 297.26 149.19 
M 295.43 157.76 300.49 156.69 
M 294.84 160.16 300.17 160.3 
M 295.29 162.51 300.61 163.5 
M 297.21 195.71 299.37 194.13 302.12 190.09 303.47 186.62 
M 302.92 180.16 302.12 178.1 299.37 174.05 297.45 172.65 
M 297.78 196.82 297.14 196.38 
M 302.73 121.35 304.33 120.85 
M 303.01 138.48 305.38 137.34 308.41 134.41 310.36 131.1 310.36 129.05 308.41 125.73 305.38 122.81 303.01 121.66 
M 300.38 128.45 306.55 127.87 
M 300.44 129.74 306.73 129.84 
M 300.45 131.73 306.75 132.34 
M 303.37 160.1 305.76 158.67 308.82 154.99 310.8 150.82 310.8 148.24 308.82 144.08 305.76 140.4 303.37 138.96 
M 301.16 147.48 307.12 146.55 
M 300.85 149.48 306.89 149.54 
M 300.9 151.96 307.5 152.82 
M 307.53 180.57 309.29 178.3 311.31 173.75 311.31 170.93 309.29 166.37 306.16 162.35 303.72 160.78 
M 301.23 169.98 307.32 169.1 
M 301.33 172.55 307.64 172.28 
M 301.67 174.66 308.02 175.89 
M 311.35 194.56 309.28 189.88 306.07 185.93 305.52 185.6 
M 301.44 193.42 307.73 192.42 
M 300.87 195.89 303.77 195.77 
M 309.66 128.43 311.42 127.6 313.99 125.17 314.75 123.89 
M 307.29 122.86 312.65 123.96 
M 310.09 147.48 311.23 146.71 313.77 143.31 315.4 139.46 315.4 137.07 313.77 133.22 311.23 129.81 309.66 128.76 
M 307.48 136.45 312.05 135.35 
M 307.1 138.57 312.6 138.52 
M 307.28 140.32 312.42 141.57 
M 310.59 171.92 312.27 170.59 314.81 166.59 316.45 162.06 316.45 159.25 314.81 154.72 312.27 150.72 310.29 149.16 
M 308.68 158.44 313.48 157.04 
M 308.24 160.42 313.6 160.36 
M 308.54 162.86 313.15 164.11 
M 312.26 194.42 314.76 190.33 316.38 185.68 316.38 182.8 314.76 178.15 312.25 174.04 310.59 172.68 
M 312.17 180.96 313.18 180.65 
M 308.52 184.3 313.76 184.21 
M 308.16 186.97 313.69 187.6 
M 315.83 138.37 318.25 137.22 321.35 134.29 323.35 130.97 323.35 128.92 321.78 126.31 
M 313.41 128.54 320 127.49 
M 313.57 130.31 319.4 129.68 
M 313.47 131.81 319.66 132.22 
M 316.11 159.86 318.5 158.43 321.56 154.76 323.53 150.61 323.53 148.04 321.56 143.89 318.5 140.23 316.11 138.8 
M 313.72 147.05 319.74 145.98 
M 313.67 149.47 319.99 149.22 
M 313.9 151.38 319.67 152.55 
M 316.39 183.67 318.69 182.09 321.64 178.05 323.54 173.47 323.54 170.64 321.64 166.06 318.69 162.01 316.39 160.44 
M 314.26 169.46 320.01 168.59 
M 314.47 172.24 319.74 171.72 
M 314.46 174.72 319.78 175.67 
M 322.86 192.16 321.87 189.82 318.87 185.8 316.53 184.24 
M 314.66 193.67 320.52 192.41 
M 322.63 128.66 324.32 127.83 324.72 127.43 
M 322.82 147.76 324.42 146.75 327.07 143.4 328.78 139.62 328.78 137.27 327.07 133.49 324.42 130.14 322.63 129.01 
M 320.44 136.79 325.6 135.36 
M 319.99 138.59 325.46 138.71 
M 320.64 140.15 325.45 141.25 
M 322.86 170.94 324.48 169.65 326.95 165.74 328.53 161.31 328.53 158.57 326.95 154.14 324.48 150.23 322.82 148.91 
M 320.9 157.54 325.46 156.23 
M 320.57 159.87 325.8 160.02 
M 320.32 162.32 325.59 163.08 
M 325.45 191.51 326.55 189.54 328.04 184.84 328.04 181.92 326.55 177.22 324.24 173.07 322.86 171.83 
M 320.73 181.3 325 179.65 
M 320.49 183.61 325.24 183.17 
M 320.42 185.79 325.16 187.07 
M 328.95 138.66 331.43 137.5 334.6 134.53 335.9 132.39 
M 326.35 128.63 327.28 128.46 
M 326.66 129.83 330.32 129.82 
M 326.72 131.94 333.11 132.59 
M 328.94 159.42 331.38 158.03 334.51 154.48 336.52 150.45 336.52 147.96 334.51 143.93 331.38 140.38 328.94 138.99 
M 326.33 147.17 333.15 146.06 
M 326.86 149.52 333.03 149.24 
M 326.61 151.28 332.48 152.5 
M 328.32 182.39 330.6 180.84 333.51 176.87 335.39 172.36 335.39 169.58 333.51 165.07 330.6 161.1 328.32 159.55 
M 325.92 168.38 331.85 167.47 
M 326.03 171.35 332.23 171.35 
M 326.41 173.11 331.91 174.43 
M 333.99 189.35 333.75 188.75 330.85 184.65 328.59 183.05 
M 335.84 148.49 337.94 147.21 340.63 143.91 342.36 140.18 342.36 137.87 340.95 134.83 
M 333.63 137.19 339.42 136.02 
M 334.02 139.06 339.28 139.22 
M 333.66 141.04 338.84 142.22 
M 335.01 169.96 337.05 168.53 339.67 164.86 341.36 160.7 341.36 158.12 339.67 153.96 337.05 150.29 335.8 149.41 
M 333.12 157.25 338.45 156.03 
M 332.75 159.73 338.66 159.66 
M 332.72 161.44 338.62 162.77 
M 336.72 188.57 337.41 187.33 338.9 182.61 338.9 179.69 337.41 174.97 335.1 170.8 334.71 170.46 
M 331.99 178.49 336.48 177.39 
M 331.54 181.2 336.31 181.44 
M 331.48 183.49 335.91 184.81 
M 342.37 139.14 344.86 137.99 345.66 137.24 
M 342.27 159.56 344.76 158.21 347.95 154.75 350 150.83 350 148.41 347.95 144.49 344.76 141.03 342.27 139.68 
M 339.9 147.7 346.35 146.81 
M 340.05 149.46 346.51 149.53 
M 339.96 151.36 346.4 152.32 
M 340.64 181.45 343.04 179.93 346.12 176.06 348.1 171.67 348.1 168.95 346.12 164.56 343.04 160.68 340.76 159.24 
M 337.97 168.35 344.61 166.91 
M 338.06 170.22 344.48 170.57 
M 337.97 172.62 344.19 173.57 
M 344.79 186.12 343.02 183.68 340.67 182.07 
M 349.36 149.17 351.39 147.88 354 144.56 354.93 142.48 
M 347.13 139.46 350.42 139.67 
M 347.39 141.52 352.94 142.8 
M 348.86 170.63 350.98 169.24 353.7 165.67 354.93 162.84 
M 354.93 157.95 354.93 157.95 
M 346.43 158.47 352.11 157.55 
M 346.82 160.68 352.51 160.42 
M 346.44 162.65 351.91 163.71 
M 350.86 184.11 351.72 181.72 351.72 178.84 350.05 174.19 347.39 170.04 
M 344.2 178.03 348.81 176.68 
M 343.74 180.04 348.83 179.9 
M 343.26 182.73 348.51 183.72 
M 353.15 148.63 354.93 148.43 
M 353.46 150.14 354.93 150.04 
M 353.26 151.46 354.93 151.68 
M 353.97 179.7 354.93 179.22 
M 354.93 162.22 354.93 162.22 
M 351.62 168.54 354.93 168.09 
M 351.34 170.33 354.93 170.48 
M 351.66 172.51 354.93 173.15 
M 185.77 123.05 185.77 123.05 
M 187.31 122.49 187.31 122.49 
M 190.8 121.24 190.8 121.24 
M 177.79 203.7 176.04 200.13 174.95 198.86 
M 200.95 117.67 200.95 117.67 
M 182.53 204.92 182.93 204.75 186.63 201.52 189.01 197.86 189.01 197.65 
M 177.05 196.67 184.25 196.76 
M 189.2 198.46 190.36 197.9 
M 185.52 205.69 190.57 204.55 
M 217.51 113.51 217.51 113.51 
M 197.61 208.48 199.23 207.84 203.14 204.74 205.67 201.24 205.67 199.9 
M 193.61 200.22 201.36 200.12 
M 206.35 202.66 209.1 201.42 210.38 200.26 
M 214.71 210.66 215.14 210.5 219.06 207.62 221.58 204.36 221.58 202.34 220.3 200.69 
M 209.37 201.84 216.27 200.56 
M 209.39 204.9 217.05 205.84 
M 232.05 108.96 232.05 108.96 
M 223.38 206.28 226.02 205.14 229.4 202.22 230.22 200.98 
M 223.8 211.29 223.8 210.42 221.75 207.48 220.37 206.36 
M 225.4 206.98 233.45 207.02 
M 237.26 201.27 243.38 201.33 
M 237.02 202.88 243.66 203.75 
M 239.61 212 236.81 210.17 236.35 210.02 
M 247.6 201.87 248.95 201.12 
M 242.52 211.26 250.93 211.21 
M 264.39 110.41 264.39 110.41 
M 259.62 109.45 259.62 109.45 
M 258.21 212.66 260.35 209.86 262.22 205.55 262.22 202.89 261.71 201.72 
M 253.23 204.4 259.11 203.87 
M 252.84 206.34 258.95 207.49 
M 261.55 203.29 263.88 201.9 264.18 201.54 
M 269.38 211.45 268.38 209.83 264.64 206.38 261.72 205.04 
M 263.21 212.41 266.61 211.75 
M 266.39 202.14 271.53 201.22 
M 266.28 204.75 271.82 204.27 
M 283.7 114.72 283.7 114.72 
M 280.81 209.86 278.65 207.54 276.04 206.14 
M 288.69 208.22 289.17 207.03 289.17 204.26 287.36 199.79 286.73 198.9 
M 289.67 206.05 292.32 204.51 295.73 200.57 297.55 196.87 
M 292.68 197.77 293.72 197.92 
M 290.86 207.68 289.51 206.95 
M 302.89 204.81 301.37 201.17 298.58 197.37 297.78 196.82 
M 293.97 204.48 300.12 203.86 
M 293.95 206.49 295.27 206.6 
M 307.51 203.79 309.28 201.61 311.35 197.13 311.35 194.56 
M 300.97 198.19 307.74 199.05 
M 310.61 195.77 312.26 194.42 
M 321.78 126.31 321.78 126.31 
M 322.64 199.93 323.8 197.19 323.8 194.37 322.86 192.16 
M 314.06 198.48 320 199.23 
M 325.72 198.93 325.04 197.86 323.11 196.34 
M 327.28 128.46 327.28 128.46 
M 326.34 192.3 332.06 191.13 
M 326.34 194.75 332.46 194.72 
M 340.95 134.83 340.95 134.83 
M 335.8 195.48 335.54 195.27 
M 347.3 190.87 346.02 187.8 344.79 186.12 
M 338.31 191.18 344.47 190.47 
M 354.93 142.48 354.93 142.48 
M 350.42 139.67 350.42 139.67 
M 354.93 157.95 353.7 155.11 350.98 151.55 349.26 150.42 
M 354.93 179.22 354.93 179.22 
M 354.93 162.22 354.82 162.17 
M 354.93 170.48 354.93 170.48 
M 184.62 123.46 184.63 123.46 
M 188.9 121.92 188.48 104.58 188.89 102.31 188.57 99.31 188.71 96.77 189.18 94.55 189.31 92.01 189.94 89.58 190.98 87.35 192.31 85.41 194.02 83.85 195.31 81.97 196.35 79.84 198.76 75.74 200.92 74.57 202.79 73.11 203.92 70.94 205.51 69.22 206.78 67.18 207.76 64.83 209.67 63.41 212.1 62.51 213.71 60.8 215.85 56.38 217.81 55.08 217.95 53.12 220.49 52.34 222.6 51.29 225.41 47.45 227.74 46.48 229.39 44.98 231.56 44 233.31 42.6 235.47 41.61 239.35 38.92 241.62 37.87 243.7 36.62 245.38 34.98 250.18 33.35 251.8 31.78 256.4 30 258.81 30.27 262.06 32.1 263.16 32.48 264.98 33.59 269.96 37.01 278.08 42.02 281 44.15 285.74 48.1 287.77 50.44 289.88 53.34 291.88 55.1 296.66 57.97 298.46 61.94 299.15 64.16 298.99 65.97 299.75 66.88 301.86 68.56 304.14 70.81 310.88 77.95 311.57 79.79 311.73 81.61 311.55 85.57 312.05 88.1 313.78 93.77 314.82 99.92 302.22 120.22 
M 298.16 119.01 298.16 119.01 
M 188.32 122.13 188.59 120.82 188.47 119.01 188.76 117.99 188.33 116.49 188.07 114.19 188.42 111.7 
M 192.01 120.8 192.25 119.53 192.4 115.76 192.3 113.47 191.83 111.9 192.47 110.33 
M 195.7 119.47 195.92 118.31 195.77 116.27 196.17 111.77 195.53 108.28 195.15 106.98 195.6 101.48 196.1 99.55 195.72 97.34 196.24 95.07 
M 199.41 118.16 199.73 116.47 199.89 112.11 199.68 110.06 199.15 108.44 199.26 106 198.72 104 198.83 101.87 200.05 97.86 199.78 95.5 
M 203.15 116.97 203.9 115.04 203.79 108.62 203.89 106.91 203.57 105.27 202.18 101.63 202.58 99.62 202.67 94.4 203.13 91.76 203.28 89.63 
M 206.92 115.88 207.33 114.11 207.22 111.67 207.54 109.53 208.24 107.59 208.78 101.67 208.19 95.42 208.79 92.82 208.88 87.37 
M 210.76 115.06 211.41 111.21 211.52 109.25 212.66 105.71 213.12 103.21 213.56 98.98 213.64 96.71 212.98 88.83 213.47 87.13 213.29 85.04 212.78 83.21 213.24 80.06 214.35 76.73 214.43 72.91 213.2 69.3 
M 214.59 114.2 215.08 112.57 215.61 108.19 215.89 104.14 215.98 99.34 216.36 97.96 215.82 95.35 215.95 92.84 216.61 89.84 216.66 88.09 216.43 84.18 215.95 82.04 216.39 79.65 217.84 75.7 
M 218.41 113.29 218.86 111.66 219.03 109.59 219.02 104.83 218.71 102.94 218.2 96.66 219.18 91.54 218.99 88.23 219.31 87.29 218.1 84.55 218.04 82.31 219.23 77.77 
M 222.17 112.15 222.65 110.32 222.5 106.28 221.73 102.03 221.91 95.38 221.57 90.13 221.58 87.88 221.44 86.31 220.86 85.34 220.17 83.53 220.17 81.22 
M 225.86 110.82 226.6 108.96 226.62 106.97 226.28 105.22 226.34 103.12 226.86 101.04 226.29 98.77 226.23 94.22 226.67 89.25 226.11 86.43 225.43 80.44 225.71 79.03 225.71 76.98 225.94 75.07 225.58 72.58 224.62 69.84 
M 229.61 109.66 230.03 107.81 230.45 103.65 230.32 101.31 230.75 97.82 230.62 95.16 231.01 92.92 231.35 85.31 230.82 82.89 230.65 80.44 230.75 79.08 230.57 77.75 
M 233.39 108.58 233.99 106.93 234.51 104.44 234.74 102.33 234.85 100.69 234.41 98.19 234.64 96.11 235.48 94.1 235.75 88.83 235.48 87.07 235.74 84.85 235.69 83.09 236.14 80.61 237.06 77.96 236.43 76.35 236.08 72.23 
M 237.25 107.87 238.3 106.17 238.79 101.8 238.92 97.71 239.78 92.89 240.89 88.22 240.92 85.99 240.6 84.36 240.51 80.13 240.8 77.74 241.03 72.38 
M 241.13 107.26 242.23 105.83 243.02 103.69 243.51 101.59 244.64 94.31 246.03 88 246.26 85.93 245.86 83.79 247.85 76.63 248.37 74.05 248.92 72.06 250.01 69.89 250.98 64.54 252.31 63.62 253.16 61.44 253.24 59.09 253.55 56.91 254.09 55.67 253.9 53.79 254.7 51.56 255.24 48.33 256.08 45.71 255.64 43.05 255.9 40.74 255.58 37.69 255.02 35.61 256.39 33.73 256.89 31.22 
M 245.05 107.27 246.51 105.88 248.31 101.71 249.86 94.56 250.34 92.97 250.47 91.24 251.02 89.31 252.06 86.95 252.64 84.07 254.32 79.35 255.63 77.33 255.29 74.87 256.08 72.24 257.13 70.6 257.87 68.93 257.99 67.49 259.25 64.55 260.71 61.68 261.49 56.79 262.43 54.92 262.39 51.12 264.01 47.82 266.73 43.03 266.99 40.8 266.82 39.5 267.71 37.23 
M 248.98 107.4 250.52 105.91 251.82 104.19 252.75 102.07 253.31 99.98 254.5 97.83 256.53 92.03 257.94 89.83 260.01 85.37 260.85 83.08 261.33 81.08 261.6 78.65 262.33 76.17 
M 252.83 108.14 254.37 106.81 255.52 105.25 257.74 101.47 259.36 97.26 262.51 92.72 263.64 90.58 265.94 84.25 268.1 80.36 268.88 77.62 270.25 75 272.17 73.53 273.33 71.55 274.45 70.26 
M 256.69 108.88 258.27 107.54 261.53 101.47 263.14 98.05 266.29 93.86 267.52 90.93 269.03 88.61 271.74 82.59 273.71 78.99 276.59 74.29 277.47 72.46 278.71 71.45 279.29 69.19 281.41 64.34 283.17 63.13 284.59 58.95 
M 260.54 109.63 262.11 108.24 263.32 106.17 264.19 103.86 266.59 100.84 267.57 99.04 269.12 97.03 273.19 89.98 274.63 87.89 275.02 85.53 276.13 83.35 276.98 81.17 278.29 79.21 279.14 77.33 280.47 75.76 
M 264.39 110.41 266.04 109.17 268.17 104.63 270.63 101.43 273.11 98.55 274.24 96.77 277.22 91.18 277.87 89.39 279.11 87.04 281.03 82.6 282.07 80.71 283.29 78.77 284.96 77.25 286.93 74.78 288.04 72.69 289.19 70.95 289.69 69.58 291.83 67.2 292.58 64.49 
M 268.23 111.22 269.85 109.97 273.03 104.62 277.31 99.02 278.6 96.65 279.8 95.1 282.72 89.16 283.41 85.44 284.68 83.49 285.6 80.75 287.36 79.51 289.11 77.51 291.57 73.54 293.95 71.09 293.98 68.8 295 66.18 
M 272.08 112.01 273.63 110.97 275.12 109.25 278.31 103.52 280.09 101.79 282.72 97.91 284.72 93.91 287.13 90.01 287.87 87.31 
M 275.93 112.78 277.66 111.38 279.97 107.85 281.24 106.39 282.23 104.44 288.36 96.41 289.51 94.51 290.14 92.25 291.44 90.7 293.1 88.05 296.09 82.25 297.64 80.91 298.08 79.45 
M 279.74 113.71 281.43 112.25 285.38 106.94 286.94 105.51 289.82 101.46 293.04 97.56 294.68 96.09 295.81 94.66 296.97 92.38 298.51 90.31 
M 283.55 114.68 285.5 113.24 287.14 111.17 288.2 109.36 289.67 107.42 291.44 105.74 292.35 103.5 293.44 102.13 295.33 100.78 298.55 97.8 
M 287.33 115.74 289.37 114.23 290.89 112.67 292.15 111.07 293.68 109.58 294.42 107.19 296.62 103.1 299.15 101.41 301.03 100.54 302 98.17 303.45 97.15 305.18 94.64 306.86 91.14 
M 291.1 116.81 293.08 115.64 296.47 112.9 297.87 110.95 298.65 108.09 302.36 104.37 304.06 103.29 305.41 101.46 
M 294.85 117.98 296.87 116.98 300.63 114.41 304.35 110.27 
M 184.62 175.4 189.71 175.38 197.02 174.63 199.51 174.77 206.67 174.51 208.94 174.09 213.6 173.66 223.38 173.62 225.3 173.88 227.95 173.85 230.46 173.6 235.58 173.62 237.95 173.06 240.02 172.94 242.35 173.34 247.54 173.59 254.19 174.36 256.96 174.87 259.31 174.91 261.01 174.45 263.28 174.5 265.99 175.03 268.35 175.11 270.82 175.6 273.61 175.72 278.38 176.28 280.59 175.93 283.04 176.19 285.9 176.76 290.19 179.01 292.87 179.13 295.39 179.53 297.58 179.63 299.92 180.2 301.82 180.38 303.66 180.01 308.8 180.76 314.72 181.03 299.46 188.61 297.41 189.43 295.08 189.98 292.45 190.23 290.41 191.06 288.13 191.66 283.2 192.48 280.34 192.35 276.07 193.42 271.19 193.88 269.12 194.48 262.44 195.54 260.11 195.75 257.5 195.69 252.83 196.13 250.19 195.96 245.5 196.14 241.45 196.95 234.49 196.87 232.15 196.62 229.38 195.94 224.78 195.53 219.6 194.47 217.24 194.13 212.99 193.92 206.01 192.76 192.24 189.43 190.69 188.3 187.95 186.74 184.62 185.21 
M 189.66 176.77 194.6 176.46 207.07 176.67 211.76 176.32 213.99 176.32 221.14 176.45 223.64 176.78 225.77 177.39 230.38 177.53 234.98 177.42 237.39 177.6 242.19 177.36 244.62 177.84 247.21 178.03 249.74 177.71 256.39 179.47 258.77 179.96 265.81 180.76 271.09 181.1 273.37 181.94 278.4 183.01 280.73 182.82 283.01 183.28 288.08 185.17 
M 189.71 178.16 194.7 178.18 216.33 179.08 218.56 178.94 221.33 179.17 223.79 179.83 225.93 180.78 230.66 181.15 232.79 181.02 
M 192.33 179.79 195 180.04 199.58 180.18 206.97 181.07 209.46 181.14 211.9 181.46 214.28 181.97 218.64 181.94 223.98 183.18 226.22 183.88 230.83 184.49 237.49 186.5 241.5 186.79 243.97 187.35 246.46 188.06 248.52 189.32 253.71 190.08 256.49 190.73 259.02 191.11 261.41 192.1 
M 187.33 180.69 195.25 181.84 197.43 181.83 199.6 182.13 204.46 183.21 207.16 183.28 209.53 183.64 214.35 184.98 216.46 185.39 218.76 185.38 221.51 186.22 223.88 186.64 228.57 187.98 235.56 191.13 237.57 191.63 239.21 192.34 241.19 192.78 
M 192.54 183.03 197.3 183.82 204.24 185.83 206.91 186.01 209.53 186.62 218.77 189.02 221.05 189.9 
M 192.53 184.68 197.11 185.95 201.37 187.72 203.62 188.45 208.99 189.69 
M 184.62 183.64 192.51 186.49 198.94 189.54 200.91 190.87 
M 191.72 211.78 194.2 215.03 196.07 217.06 201.47 221.96 203.59 224.51 204.84 226.5 207.39 231.69 208.18 234.52 211.16 238.35 212.83 241.73 214.7 244.14 213.82 248.29 213.31 253.87 212.13 255.74 210.74 257.39 208.96 258.73 207.68 260.71 206.79 263.07 206.15 265.68 205.26 268.08 203.56 269.69 202.46 271.91 200.56 273.33 188.35 280 188.43 276.6 188.24 273.8 187.27 269.01 187.14 266.61 188.56 264.43 188.84 261.82 187.49 257.04 187.14 254.12 187.22 252.19 187.08 250.7 187.71 246.33 188.28 243.99 188.39 240.93 188.26 238.3 187.49 236.19 187.76 232.05 186.51 225.62 186.5 222.94 185.87 220.64 185.47 218.07 185.16 215.55 185.04 212.87 184.62 209.78 
M 190.21 211.35 192.06 214.65 195.39 218.7 198.28 222.9 199.42 224.97 201.8 230.58 203.54 232.43 204.67 237.83 205.66 240.57 206.57 241.62 209.15 242.87 210.92 244.63 213.14 245.55 
M 188.7 210.93 190.11 214.19 194.14 220.82 196.18 225.81 199 231.68 200.19 235.4 200.41 238.04 202.33 243.15 203.13 243.76 205.78 247.54 
M 187.19 210.5 189.06 216.27 191.37 220.36 192.13 222.72 192.82 225.88 193.98 229.07 195.5 231.68 195.78 233.68 195.51 235.52 196.01 238.82 
M 185.67 210.08 186.34 213.13 186.7 215.79 187.43 218.52 188.3 220.71 188.97 222.96 189.46 225.61 191.07 232.06 191.43 234.47 191.96 236.44 192.47 240.73 193.24 243.94 193.03 245.37 193.42 247.83 194.8 249.26 194.8 251.64 195.26 256.96 195.03 259.27 193.6 261.92 193.78 264.14 195.31 266.38 198.16 273.81 
M 333.64 199.72 338.23 204.03 340.27 207.46 343.32 215.29 342.9 217.89 341.8 220.01 339.96 221.45 337.82 222.29 335.26 222.71 330.4 224.27 329.1 226.29 327.19 227.7 325.19 228.77 323.61 230.52 321.24 231.29 318.56 231.08 316.05 230.42 313.69 229.6 311.12 229.6 309.1 230.15 306.93 230.33 304.05 229.4 296.17 228.62 293.68 228 290.28 226.8 284.73 222.86 276.87 215.58 
M 329.96 201.09 332.92 204.83 334.68 207.48 337.34 210.15 
M 326.28 202.46 329.39 206.38 331.52 208.71 336.53 211.68 
M 322.59 203.8 328 209.79 330.56 211 332.76 212.32 335.31 215.25 337.06 218.19 
M 318.89 205.1 322.06 208.4 328.67 213.03 
M 315.12 206.19 318.06 209.35 322.58 213.34 324.46 215.37 
M 311.33 207.22 313.68 210.53 316.3 212.23 318.2 213.85 320.41 216.17 321.97 218.88 324.17 221.74 
M 307.5 208.11 312 213.54 315.98 217.35 318.13 220.37 
M 303.69 209.04 306.07 212.58 307.96 215 310.44 216.9 312.25 219.07 
M 299.89 210.02 302.26 213.35 303.96 216.35 305.54 218.62 308.12 220.2 310.81 223.21 
M 296.1 211.04 299.16 213.59 304.79 221.82 307.56 223.89 
M 292.31 212.07 295.58 214.9 297.81 216.51 301.69 221.61 
M 288.52 213.11 291.75 216.61 294.3 218.11 296 219.83 
M 284.74 214.16 292.28 222.26 
M 280.88 214.89 284.17 218.1 285.9 220.01 288.29 222.17 291.21 226.95 
M 354.93 141.96 357.03 140.46 358.7 138.64 361.24 134.64 364.56 131.05 366.82 129.01 368.68 127.75 370.37 125.6 371.66 122.97 375.01 121.05 378.04 116.7 380.26 115.33 382.03 113.67 383.67 112.79 385.58 111.38 391.29 108.68 393.36 107.48 396.05 106.35 399.8 103.85 404.97 101.54 407.98 100.88 410.95 99.37 413.17 98.85 415.12 98.65 417.72 99.26 421.23 97.04 423.57 96.12 428.08 95.9 432.36 96.03 433.98 101.06 434.18 103.32 434.13 105.33 435.14 108.47 434.93 111.18 433.85 113.01 432.27 114.42 432.21 117.46 429.7 121.08 429.14 123.46 428.94 126.2 427.8 128.01 426.32 129.55 425.16 134.49 423.87 136.53 422.32 138.31 418.46 141.12 417.17 143.16 414.16 146.8 411.76 147.74 410.08 149.39 409.07 151.7 407.88 153.84 406.1 155.39 403.85 156.44 401.2 157.07 399.3 158.45 397.89 160.32 394.04 162.76 388.73 163.74 386.55 164.84 383.22 168.09 381.96 170.13 381.97 172.38 386.17 173.58 390.95 175.3 392.88 175.77 398.2 178.15 399.71 179.37 411.66 190.39 412.99 191.82 417.75 197.89 418.91 198.99 423.39 202.58 427.14 207.8 428.19 209.64 431.2 216.19 434.29 223.42 434.98 225.7 433.87 229.65 434.23 232.54 432.7 237.71 430.46 242.84 426.97 241.95 424.25 242.82 422.51 241.84 417.43 241.78 414.81 240.65 411.4 240.28 409.08 238.14 407.19 236.88 405.55 234.61 403.37 233.86 402.14 233.99 399.5 233.3 397.27 232.51 395.08 231.13 392.75 230.26 390.59 228.49 389.08 225.76 387.72 224.11 384.88 223.33 381.27 221.09 379.47 219.39 377.42 216.83 376.08 215.69 374.08 214.49 371.97 212.44 370.28 210.11 368.34 208 365.49 202.83 363.92 200.98 360.39 197.37 358.65 195.23 354.93 189.92 
M 358.95 140.79 362.06 137.2 365.36 133.84 367.42 131.96 371.67 129.08 374.82 125.08 376.09 124.32 379.13 121.7 381.76 120.09 383.97 118.1 385.6 116.32 387.28 114.97 389.76 114.9 391.81 114.44 393.51 113.82 400.66 110.06 
M 359.15 142.94 361.09 141.26 365.03 138.66 368.4 134.78 370.53 133.28 374.88 130.66 376.51 129.06 380.04 126.88 387.84 119.65 390.21 118.77 392.5 118.44 394.74 118.66 396.43 118.42 397.95 116.55 401.08 115.18 404.68 113.9 408.38 112.87 409.4 112.1 415.19 111.01 419.05 110.03 424.21 109.44 427.44 110 430.94 109.91 
M 361.48 143.62 365.95 141.19 367.77 139.87 369.29 138.11 371.51 136.31 375.4 134.1 377.78 133 380.48 131.11 388.09 126.29 389.76 124.82 392.33 123.75 394.41 123.76 396.67 123.98 398.77 123.27 401.01 120.96 
M 359.84 147.14 361.71 145.95 369.93 141.38 371.92 139.66 374.1 138.04 376.01 136.94 378.41 136.7 380.63 135.73 385.03 133.01 387.66 131.99 390.98 131.81 392.92 130.86 394.63 129.11 395.96 127.44 398.22 126.57 402.24 125.95 404.7 124.66 407.42 124.01 410.46 123.77 413.45 122.64 
M 360.3 149.56 361.97 147.95 366.24 145.52 370.93 143.72 373.09 142.62 374.87 141.45 376.98 140.45 383.87 138.25 385.79 136.79 388.19 135.72 393.21 134.78 395.03 133.61 396.87 131.81 398.92 131.06 402.23 132.08 404.86 132.13 407.5 131.71 411.45 129.25 418.09 128.34 422.56 129.38 
M 360.32 151.52 364.06 149.17 366.28 148.28 368.81 147.02 374.08 145.49 376.32 144.64 380.68 143.79 383.22 143.06 385.05 141.6 387.67 140.98 389.27 139.6 391.21 138.55 393.41 138.47 396.03 138.15 398 137.49 400.4 136.93 403.75 136.95 
M 360.1 153.56 362.82 152.62 369.26 149.78 372.33 148.79 374.62 148.47 378.74 147.3 383.41 147.22 386.02 145.96 388.3 144.2 
M 362.81 155.01 370.46 152.77 373.17 152.19 375.42 152.13 377.79 151.55 379.93 151.3 381.69 151.48 384.22 151.3 386.76 150.8 391.35 148.36 394.16 148.42 396.84 148.89 397.76 149.91 399.97 149.54 403.68 149.51 406.47 148.7 409.4 149.07 
M 354.93 159.3 357.98 158.86 363.13 157.52 365.91 157.05 368.63 156.84 371.08 156.14 375.88 155.9 378.29 155.63 380.59 154.96 383.57 154.74 
M 360.68 160.71 363.43 160.04 368.69 159.72 371.41 159.39 376.51 159.9 378.52 159.48 383.39 157.84 386.32 157.66 389.18 158.26 391.39 159.67 
M 364.41 162.95 366.85 162.83 369.06 163.35 371.36 163.11 374.02 163.09 376.89 163.89 379.92 164.1 
M 358.92 165.96 367.43 165.98 372.65 166.46 378.57 168.7 
M 354.93 167 359.06 168.25 362.15 168.66 365.23 168.83 369.59 169.61 372.73 169.74 
M 358.48 170.52 361.28 171.49 363.92 171.46 366.08 171.65 368.48 172.78 374.4 173.73 
M 363.12 174.25 370.33 175.91 373.06 176.88 375.91 176.3 382.46 178.77 384.93 179.35 387.05 179.4 389.48 178.91 392.3 178.93 395.3 178.62 
M 359.92 175.83 362.52 176.9 364.97 177.37 367.39 178.06 370.02 179.21 372.58 179.78 375.51 180.12 377.99 180.81 379.86 182.08 
M 360.12 177.95 362.38 179.35 364.81 180.08 367.36 180.44 369.84 181.57 372.11 183.03 374.74 183.74 376.75 185.07 379.15 185.75 385.25 186.54 390.7 187.8 393.12 188.69 394.93 189 
M 362.35 181.48 366.32 183.35 368.83 184.34 371.23 185.87 373.19 187.62 375.38 188.43 378.49 189.02 381.14 189.98 384.01 190.26 390.34 194.32 394.35 195.05 396.85 196.51 399.26 197.11 404.54 195.85 410.19 196.03 412.37 196.65 
M 362.24 183.96 364.25 185.11 365.74 186.19 370.88 188.96 375.35 192.08 379.54 193.7 381.98 193.49 383.52 194.81 386.1 196.46 388.07 198.26 390.88 199.82 392.87 200.6 395.42 200.84 398.79 200.39 402.71 201.8 405.14 200.46 408.08 200.53 412.19 200.9 415.67 201.46 417.67 202.07 
M 357.64 182.75 362.11 186.26 365.69 189.37 372.55 193.53 375.15 194.65 376.73 196.03 378.46 196.75 380.2 196.97 385.43 200.01 387.5 201.42 389.81 202.23 391.93 203.29 394.29 203.94 396.86 205.03 400.77 204.98 403.78 205.79 405.91 206.79 411.67 208.22 414.12 209.62 
M 359.91 186.75 363.44 190.41 369.51 195.68 374.29 198.35 375.94 199.84 377.96 201.07 380 201.57 382.38 202.55 384.71 204.23 387.03 205.02 389.91 205.68 391.16 207.02 392.59 208.11 394.33 209.21 397 210.51 399.8 211.16 406.25 213.94 409.02 215.3 411.21 215.34 
M 354.93 184.34 359.63 188.92 364.93 194.92 373.43 201.58 375.13 203.31 376.75 204.32 379.03 205.41 383.46 207.92 388.68 211.08 393.31 212.31 395.91 212.78 401.14 216.76 404.79 218.35 407.04 218.62 408.77 218.33 410.48 218.55 
M 354.93 186.27 362.94 195.18 364.86 197.06 367.02 198.8 368.57 200.48 371.81 204.57 373.7 206.36 380.08 210.88 383.91 212.4 385.1 213.46 389.24 215.78 
M 357.3 190.92 360.74 195.45 362.36 197.2 364.5 199.16 366.45 200.44 369.51 205.64 371.38 207.8 377.05 212.5 380.71 214.55 384.03 217.46 386.58 218.96 388.87 220.59 393.49 224.34 396.37 226.2 398.34 227.15 400.6 228.94 
M 87.24 180.29 87.91 177.01 89.35 173.08 94.63 164.18 98.93 159.39 105.07 155.42 111.37 152.01 126.51 145.58 140.1 139.43 147.47 136.58 160.84 130.9 166.63 128.75 171.64 127.24 175.48 126.32 177.55 126 178.61 130.28 178.95 142.89 179.75 151.35 180.63 164.01 180.41 172.37 179.93 176.52 177.89 184.72 176.55 192.99 175.56 197.09 174.17 201.16 170.42 204.94 158.71 204.43 150.19 203.52 135.29 201.29 123.14 198.78 113.3 195.97 
M 105.14 192.85 100.94 191.34 97.77 189.98 93.72 187.65 
M 156.83 157.67 156.83 161.26 156.51 164.69 154.42 170.83 151.69 175.58 151.03 177.74 151.13 179.96 151.81 182.33 152.78 184.78 153.42 187.58 152.22 190.57 144.56 190.52 127.75 189.93 117.55 188.88 113.11 187.82 
M 110.32 195.35 104.56 192.56 99.24 190.31 95.61 188.45 86.55 184.44 85.41 182.9 85.77 181.01 87.5 180.16 89.33 180.79 96.16 184.84 99.54 187.13 113.45 195.7 
M 111.46 196.55 107.36 196.63 99.84 196.25 87.96 196.1 86.01 195.78 84.85 194.2 85.29 192.29 87.14 191.45 92.88 192.13 98.68 193.31 104.49 194.23 110.01 195.31 112.18 195.57 
M 113.01 195.64 113.3 195.67 
M 126 172.36 124.84 167.94 125.17 163.38 126.96 159.18 130.02 155.79 134.02 153.57 138.52 152.77 143.03 153.48 147.07 155.62 150.2 158.95 152.08 163.11 152.5 167.66 151.42 172.1 148.96 175.95 145.39 178.8 141.08 180.32 136.51 180.37 132.17 178.93 128.54 176.16 126 172.36 
M 125.83 171.97 125.27 170.34 124.92 168.66 124.78 166.94 124.85 165.22 125.13 163.53 125.62 161.88 126.32 160.3 127.2 158.82 128.25 157.47 129.47 156.25 130.83 155.19 132.3 154.31 133.88 153.62 135.53 153.13 137.23 152.85 138.94 152.78 140.66 152.92 142.34 153.27 143.97 153.83 
M 127.28 171.37 126.79 169.92 126.35 166.91 126.41 165.38 126.86 163.21 
M 129.59 158.35 131.71 156.49 133.02 155.71 135.88 154.66 138.91 154.35 140.43 154.47 143.37 155.28 
M 128.73 170.77 128.3 169.51 127.92 166.88 127.97 165.55 128.35 163.72 
M 130.55 159.61 132.6 157.79 134.96 156.57 136.24 156.19 137.55 155.97 140.21 156.03 142.77 156.73 
M 130.19 170.16 129.82 169.09 129.49 166.84 129.54 165.71 129.84 164.18 
M 131.76 160.62 133.48 159.08 134.46 158.5 136.59 157.72 138.85 157.49 139.98 157.58 142.17 158.18 
M 131.64 169.56 131.33 168.67 131.06 166.81 131.35 164.61 
M 133.1 161.49 134.37 160.38 135.18 159.9 136.94 159.25 138.81 159.06 140.67 159.33 141.57 159.63 
M 133.6 168.94 133.13 167.17 133.32 165.2 
M 134.78 162.77 135.2 162.31 136.8 161.42 138.6 161.1 140.41 161.39 142.02 162.24 143.28 163.57 144.03 165.24 144.2 167.06 143.76 168.83 142.78 170.37 141.35 171.51 139.63 172.12 137.8 172.14 136.06 171.56 134.61 170.46 133.6 168.94 
M 135.57 162.1 135.07 163.11 
M 133.93 165.39 133.14 166.96 
M 137.12 161.37 135.82 163.97 
M 134.96 165.69 133.51 168.59 
M 138.41 161.14 136.58 164.81 
M 136.08 165.8 134.12 169.72 
M 139.53 161.25 137.34 165.64 
M 137.27 165.77 134.84 170.63 
M 140.59 161.48 135.69 171.28 
M 141.53 161.98 136.64 171.75 
M 142.38 162.62 137.65 172.09 
M 143.15 163.44 138.8 172.13 
M 143.74 164.61 140.06 171.97 
M 144.12 166.22 141.55 171.35 
M 87.84 177.32 90.44 179.92 
M 89.08 173.84 92.8 177.57 
M 90.74 170.79 94.38 174.43 
M 92.49 167.84 95.58 170.92 
M 94.23 164.86 97.71 168.35 
M 96.35 162.27 100.64 166.56 
M 98.58 159.79 101.11 162.32 
M 101.34 157.84 105.03 161.53 
M 104.2 155.99 107.16 158.94 
M 107.2 154.27 109.81 156.88 
M 110.25 152.61 112.94 155.3 
M 113.47 151.12 117.99 155.64 
M 116.79 149.73 119.99 152.93 
M 120.1 148.33 122.95 151.18 
M 123.4 146.92 127.22 150.74 
M 126.69 145.5 130.97 149.78 
M 129.91 144.01 133.34 147.44 
M 133.13 142.51 136.88 146.27 
M 136.39 141.07 140.48 145.16 
M 139.66 139.62 143.02 142.98 
M 143.04 138.29 146.62 141.87 
M 146.44 136.98 149.03 139.56 
M 149.77 135.6 154.45 140.27 
M 153.07 134.19 155.59 136.7 
M 156.38 132.78 160.78 137.18 
M 159.69 131.38 163.46 135.15 
M 163.09 130.07 166.62 133.6 
M 166.52 128.79 169.42 131.69 
M 170.14 127.69 173.06 130.61 
M 173.86 126.71 177.12 129.97 
M 161.56 182.18 159.81 179.85 159.01 179.2 158.58 179.07 157.84 179.09 157.33 179.49 156.98 180.42 157.15 181.1 
M 172.34 140.27 168.72 140.16 167.15 139.39 166.5 138.89 165.16 136.94 163.77 135.43 
M 152.99 167.59 153.49 166.44 155.4 163.83 155.62 162.87 155.5 162.46 154.95 161.82 153.3 160.71 
M 147.11 177.91 147.09 177.44 
M 142.24 201.49 141.6 201.17 140.38 200.07 136.84 197.64 136 196.52 135.01 195.7 
M 157.59 188.63 158.17 188.87 159 188.42 
M 149.47 178.4 148.44 176.37 
M 125.26 163.17 124.64 161.82 123.93 161.24 
M 127.86 185.61 127.13 184.74 126.51 183.38 124.75 181.26 123.89 179.77 
M 144.33 200.77 142.36 200.67 141.84 200.46 140.79 199.73 139.36 199.16 138.1 198.37 137.07 197.59 136.44 196.79 
M 103.02 162.03 102.46 162.78 101.07 163.31 98.37 163.38 95.67 163.02 
M 111.56 158.73 112.2 158.66 112.59 158.43 114.06 157.12 116.13 154.4 117.25 152.62 
M 114.11 170.69 113.88 169.83 113.86 168.87 114.15 168.15 114.81 167.38 
M 179.61 164.06 179.6 163.35 179.08 162.04 177.99 160.7 176.03 157.76 175.57 157.2 174.47 156.37 
M 163.23 142.12 163.28 141 163.03 140.36 161.06 137.08 159.04 134.9 
M 130.69 186.81 129.93 185.82 128.72 184.72 127.69 184.03 127.04 183.19 
M 150.19 150.76 148.84 151.19 147.75 151.78 147.29 152.27 147.09 152.84 147.13 153.47 147.47 154.35 148.02 154.97 149.13 155.78 
M 106.29 183.85 106.6 184.29 106.68 185.11 106.63 185.92 106.34 186.75 105.65 187.52 103.32 189.14 
M 155.41 185.11 155.7 185.8 156.36 186.61 157.85 187.21 158.43 187.65 
M 178.83 143.72 175.69 141.07 174.35 139.37 173.87 138.44 
M 177.7 162.76 177.38 162.08 175.26 159.25 174.4 158.91 173.84 159.39 
M 127.59 186.32 127.51 185.93 126.72 184.91 124.8 181.72 124.25 180.52 
M 166.81 194.15 166.11 193.6 165.23 193.97 
M 155.18 180.16 156.16 181.1 157.17 182.45 157.6 183.87 
M 103.86 182.11 102.04 177.05 100.9 175.89 99.52 175.25 
M 176.66 163.25 176.41 162.11 175.19 159.88 174.44 159.2 173.93 159.34 
M 103.82 186.08 102.8 187.34 102.28 188.79 
M 88.21 179.86 88.47 180.5 
M 116.1 174.36 115.92 175.46 114.39 177.45 
M 144.99 183.62 144.03 182.07 143.71 179.39 
M 114.2 196.83 113.41 197.49 112.9 198.24 112.59 199.1 112.53 200.02 112.75 200.93 113.25 201.76 113.98 202.48 114.88 203.03 115.9 203.4 118.15 203.65 121.64 203.35 123.93 202.82 119.37 204.07 116.97 204.37 115.73 204.32 114.48 204.05 113.29 203.52 112.21 202.73 111.35 201.64 110.83 200.31 110.72 198.88 111 197.47 111.66 196.16 112.53 195.16 
M 94.96 196.16 100.38 197.54 105.09 198.39 110.74 199.16 
M 112.57 199.34 119.22 199.83 128.91 199.98 
M 128.91 199.98 128.91 199.98 
M 126.14 199.55 126.28 199.98 
M 126.2 199.56 126.32 199.98 
M 178.51 129.87 184.7 136.06 
M 180.03 125.1 186.56 131.64 
M 184.66 123.45 192.22 131.01 
M 189.27 121.79 197.88 130.4 
M 193.89 120.12 201.27 127.5 
M 198.51 118.45 207.84 127.79 
M 203.27 116.94 209.35 123.02 
M 208.22 115.6 213.96 121.34 
M 213.38 114.48 220.27 121.37 
M 218.46 113.28 225.24 120.06 
M 223.23 111.77 231.32 119.86 
M 227.89 110.15 234.53 116.78 
M 232.78 108.76 237.74 113.71 
M 238.05 107.74 246.46 116.15 
M 243.84 107.25 252.8 116.21 
M 250.58 107.71 257.08 114.21 
M 258.35 109.2 263.39 114.24 
M 266.23 110.8 271.03 115.6 
M 274.14 112.43 280.93 119.21 
M 282.38 114.38 290.53 122.54 
M 291.09 116.81 297.95 123.67 
M 300.17 119.61 309.27 128.7 
M 309.02 122.18 317.18 130.34 
M 318.11 124.99 327.43 134.31 
M 328.34 128.93 337.47 138.06 
M 340.11 134.42 345.71 140.02 
M 352.9 140.93 354.23 142.26 
M 239.93 291.39 235.64 297.7 
M 239.93 291.39 240.44 297.7 
M 237.17 295.6 240.17 295.6 
M 244.13 291.39 242.6 296.5 242.63 297.39 243.14 297.7 243.74 297.7 
M 242.6 293.5 244.7 293.5 
M 246.8 293.5 245.9 296.5 245.93 297.39 246.44 297.7 247.34 297.7 248.03 297.39 249.2 296.5 
M 250.1 293.5 248.84 297.7 
M 255.23 294.39 255.11 293.8 254.3 293.5 253.4 293.5 252.41 293.8 251.93 294.39 252.05 295 252.56 295.3 253.97 295.6 254.48 295.89 254.51 296.8 254.03 297.39 253.04 297.7 252.14 297.7 251.33 297.39 251.21 296.8 
M 259.76 295.3 263.36 295.3 263.53 294.7 263.41 294.1 262.7 293.5 261.8 293.5 261.11 293.8 260.33 294.39 259.76 295.3 259.58 295.89 259.61 296.8 260.02 297.39 260.53 297.7 261.44 297.7 262.13 297.39 262.9 296.8 
M 269.3 293.5 267.86 298.3 267.29 299.2 266.2 299.8 265.31 299.8 264.8 299.5 
M 269.02 294.39 268.61 293.8 268.1 293.5 267.2 293.5 266.51 293.8 265.73 294.39 265.15 295.3 264.98 295.89 265.01 296.8 265.43 297.39 265.94 297.7 266.83 297.7 267.52 297.39 268.31 296.8 
M 271.7 293.5 270.8 296.5 270.83 297.39 271.33 297.7 272.24 297.7 272.93 297.39 274.1 296.5 
M 275 293.5 273.74 297.7 
M 280.13 294.39 280.01 293.8 279.2 293.5 278.3 293.5 277.31 293.8 276.83 294.39 276.95 295 277.45 295.3 278.87 295.6 279.38 295.89 279.41 296.8 278.93 297.39 277.94 297.7 277.04 297.7 276.23 297.39 276.11 296.8 
M 281.72 297.1 281.33 297.39 281.54 297.7 281.93 297.39 281.72 297.1 
"/></svg>
