<svg xmlns="http://www.w3.org/2000/svg" width="520" height="320"><rect x="0" y="0" width="520" height="320" fill="floralwhite"/><rect x="10" y="10" width="500" height="300" stroke="black" stroke-width="1" fill="none"/><path stroke="black" stroke-width="1" fill="none" stroke-linecap="round" stroke-linejoin="round" d="
M 177.01 92.73 185.55 91.24 194.11 91.06 202.68 91.35 211.24 92.3 219.8 94.16 228.36 96.68 236.93 98.79 245.49 99.31 254.05 98.21 262.62 96.36 271.18 94.75 279.74 93.82 305.43 91.98 314 92.2 322.56 92.67 331.12 92.84 339.69 92.7 348.25 92.98 356.81 94.35 373.94 97.73 382.5 100.03 391.07 103.53 391.93 104.51 
M 391.93 178.55 391.07 178.91 382.5 179.57 356.81 180.28 348.25 180.95 339.69 182.25 331.12 184.23 322.56 186.98 305.43 194.82 296.87 197.99 288.31 200.22 271.18 203.8 254.05 208.41 245.49 210.36 236.93 211 228.36 209.98 219.8 208.54 202.68 206.58 194.11 205.36 185.54 203.81 
M 391.93 124.06 388.9 122.28 381.32 119.76 377.53 118.77 373.72 118.05 369.91 117.56 342.36 116.72 335.47 116.88 320.09 118.18 
M 313.19 118.91 308.21 119.74 301.88 121.35 297.14 122.78 
M 293.98 123.68 286.14 125.45 278.06 126.66 
M 274.73 127.13 269.68 127.77 264.61 128.68 
M 257.64 130.23 252.21 131.74 246.7 132.92 
M 243.15 133.51 241.4 133.71 239.71 133.67 
M 229.89 132.28 223.4 130.84 
M 209.95 127.68 202.84 126.26 
M 189.56 195.75 193.25 198.35 
M 190.61 191.44 193.14 193.54 
M 202.21 195.41 205.34 197.56 
M 190.33 178.45 190.65 178.84 
M 193.24 181.84 196.03 184.76 
M 205.18 192.67 208.36 195.04 
M 211.53 197.26 214.63 199.33 
M 199.16 181.37 205 187.05 
M 211.3 192.3 214.5 194.76 
M 208.04 183.76 211.06 186.61 
M 190.14 150.98 190.6 151.82 
M 218.68 187.85 220.18 189.22 
M 229.37 196.87 232.23 198.91 
M 186.77 136.13 191.2 142.43 
M 193.52 146.11 195.63 149.95 
M 229.15 192.05 232.15 194.54 
M 235.03 196.74 237.79 198.72 
M 181.96 117.97 188.72 129.72 198.26 143.79 200.64 148.1 
M 181.76 109.53 183.96 112.28 186.13 115.35 194.39 129.27 201.63 139.89 205.53 146.28 
M 180.88 102.24 185.04 106.34 187.38 108.97 189.59 111.81 191.68 114.89 197.77 125.39 201.24 130.84 
M 203.61 134.42 210.31 144.5 
M 248.22 194.42 250.76 196.42 
M 178.16 94.83 185.98 101.15 190.79 105.84 193.05 108.48 195.18 111.36 197.22 114.52 203.37 125.34 209.09 134.28 
M 211.41 137.66 213.74 141.04 
M 255.78 196 258.15 197.9 
M 180.47 92.12 184.36 94.79 189.32 98.56 194.18 102.92 196.48 105.4 198.67 108.13 200.75 111.13 203.77 116.22 
M 205.75 119.93 208.85 125.57 211.03 129.14 219.48 141.1 
M 185.41 91.26 190.14 94.33 195.11 98.08 197.53 100.22 199.86 102.59 202.09 105.2 204.23 108.07 206.3 111.24 208.28 114.74 212.15 122.31 214.2 125.89 216.34 129.17 219.69 133.67 
M 221.98 136.68 223.98 139.43 
M 191.56 91.11 195.88 93.87 200.8 97.78 203.16 100.05 207.66 105.31 209.79 108.36 211.8 111.76 217.45 122.78 219.46 126.02 226 134.62 228.23 137.85 
M 197.95 91.19 201.53 93.61 203.98 95.59 208.75 100.16 211.08 102.78 213.29 105.69 215.34 108.95 220.8 119.69 222.69 122.93 225.72 127.2 
M 227.82 129.98 231.02 134.46 233.19 137.8 
M 269.9 186.67 272.27 189.2 
M 204.26 91.53 207.08 93.64 212.05 97.96 214.48 100.42 216.77 103.18 218.88 106.26 220.79 109.63 224.25 116.6 226.02 119.83 227.9 122.8 233.9 131.31 237.09 136.23 
M 277.57 188.87 279.92 191.58 
M 210.56 92.22 215.31 95.99 217.81 98.3 220.18 100.86 222.36 103.74 224.32 106.91 229.46 116.81 231.23 119.81 235.98 126.83 
M 237.95 129.8 242.97 137.5 
M 275.71 180.04 278.11 182.92 
M 280.49 185.82 282.87 188.7 
M 217.69 93.7 221.01 96.44 223.44 98.82 225.68 101.48 228.63 105.99 
M 230.41 109.2 234.66 116.94 244.08 131.36 247.53 136.27 
M 280.94 179.63 283.38 182.65 
M 224.95 95.67 226.5 97.07 228.79 99.52 230.9 102.28 233.74 106.83 
M 235.52 109.9 238.11 114.29 247.26 128.22 249.44 131.31 253.24 136.21 
M 288.81 182.56 291.39 185.63 
M 231.16 97.37 233.89 100.51 235.94 103.34 241.49 111.88 252.54 128.17 258.74 135.85 
M 286.64 173.11 289.21 176.24 
M 294.68 182.55 297.42 185.61 
M 236.44 98.67 238.88 101.63 247.52 113.29 
M 249.26 115.73 250.93 118.25 
M 252.62 120.9 254.49 123.72 
M 256.69 126.69 263.59 135 
M 287.62 167.6 289.63 170 
M 292.31 173.1 295.16 176.27 
M 240.79 99.02 251.73 111.95 253.37 114.27 258.34 122.21 260.6 125.26 264.74 130.24 
M 267.66 133.8 267.92 134.13 
M 290.09 164.02 292.75 166.97 
M 298.52 173.17 301.56 176.41 
M 304.54 179.67 307.31 182.89 
M 245.37 99.3 250.03 103.96 
M 252.12 106.12 254.99 109.32 256.64 111.52 261.26 119.24 263.31 122.32 272.02 133.24 
M 292.68 160.69 293.11 161.12 
M 298.86 167 301.88 170.12 
M 249.66 98.77 256.26 104.6 258.2 106.61 259.92 108.71 261.42 110.98 266.2 119.31 268.46 122.6 276 132.33 
M 292.1 154.16 296.12 158.22 
M 302.08 164 305.13 167.12 
M 254.33 98.15 259.26 101.99 261.31 103.87 263.14 105.88 264.72 108.09 269.26 116.22 272.44 121.12 
M 274.97 124.64 280.59 132.22 
M 286.14 139.83 287.72 141.99 
M 291.57 147.04 294.9 151.08 299.11 155.25 
M 311.2 167.43 314.11 170.91 
M 258.85 97.17 262.12 99.44 264.24 101.19 266.18 103.12 267.88 105.26 269.4 107.66 274.19 116.18 278.73 123 287.04 134.56 292.47 141.75 296.3 146.51 
M 298.98 149.45 306.52 156.4 311.03 161.06 
M 322.22 175.24 324.75 178.85 
M 263.46 96.2 266.97 98.68 268.98 100.51 270.8 102.59 272.44 104.92 277.18 113.08 282.48 121.35 
M 285.03 125.09 289.13 130.88 296.04 140.04 
M 298.67 143.31 299.98 144.88 304.33 149.18 
M 316.49 161.31 319.25 164.88 
M 267.99 95.35 269.54 96.42 271.56 98.15 273.48 100.15 275.25 102.4 284.99 117.96 
M 287.31 121.52 294 130.94 300.87 139.91 
M 303.61 143.08 305 144.6 309.66 148.84 
M 315.93 154.75 318.76 158.1 
M 329.72 172.95 332.47 176.61 
M 272.23 94.63 274.03 96.06 275.99 97.95 277.86 100.11 281.34 105 288.63 116.42 293.41 123.44 301.66 134.52 304.42 138 308.68 142.68 
M 311.73 145.6 314.87 148.52 
M 317.93 151.56 320.79 154.83 
M 331.95 169.76 334.92 173.49 
M 276.38 94.18 278.41 95.99 282.21 100.3 285.83 105.21 295.78 119.92 303.81 130.64 308.04 135.88 
M 313.85 142.23 318.4 146.77 322.76 151.58 
M 280.27 93.78 282.78 96.12 284.72 98.24 288.56 102.91 292.29 107.9 298.31 116.66 302.01 121.64 
M 307.41 128.56 310.25 132.05 
M 316.05 138.75 319 141.92 
M 321.96 145.09 327.64 151.76 
M 284.26 93.51 287.23 96.29 293.2 102.93 297.05 107.88 303.19 116.74 306.94 121.58 
M 309.66 124.91 318.3 135.21 
M 324.17 141.82 327.1 145.13 
M 329.97 148.55 335.75 155.72 
M 341.92 163.11 351.81 173.89 
M 288.31 93.22 291.8 96.37 295.91 100.52 299.9 105.23 302.82 109.32 
M 304.82 112.26 308.07 116.86 314.85 124.91 
M 317.75 128.31 320.63 131.73 
M 329.4 141.96 332.37 145.4 
M 338.22 152.33 341.2 155.86 
M 292.47 92.92 297.51 97.24 
M 299.6 99.29 302.68 102.72 304.67 105.31 310.74 114.03 313.14 117.11 323.06 128.42 
M 325.89 131.84 328.73 135.31 
M 331.68 138.79 334.72 142.22 
M 337.74 145.62 340.71 149.01 
M 352.92 163.25 356.21 166.99 
M 296.78 92.6 301.19 96.14 303.29 98.13 305.37 100.4 307.41 102.94 314.68 112.92 
M 317.13 115.93 324.12 123.66 328.35 128.63 
M 331.15 132.07 335.5 137.27 343.16 145.72 
M 349.05 152.57 352.01 156.14 
M 358.25 163.65 361.58 167.52 
M 301.09 92.3 303.8 94.33 305.91 96.2 307.99 98.34 310.07 100.76 316.31 108.94 321.05 114.8 329.38 123.9 336.47 132.27 
M 339.4 135.66 345.51 142.45 
M 348.5 145.9 360.43 160.48 
M 305.26 92 308.5 94.53 312.67 98.74 321.29 109.34 324.98 113.64 
M 327.59 116.55 336.04 125.8 
M 338.91 129.11 344.76 135.78 
M 347.77 139.19 356.54 149.92 
M 359.54 153.62 362.75 157.46 
M 309.79 92.09 313.14 94.85 317.37 99.15 326.34 109.59 339.87 124.45 350 136.02 
M 352.92 139.56 360.27 148.75 368.47 158.4 
M 314.26 92.21 317.77 95.13 319.94 97.2 327.84 105.7 
M 330.23 108.36 345.11 124.71 355.1 136.42 
M 360.99 143.75 364.05 147.51 
M 367.27 151.34 370.68 155.25 
M 377.57 162.96 380.71 166.63 
M 318.96 92.47 324.76 97.4 329.4 101.97 339.08 112.72 347.43 121.66 353.1 128.15 360.22 136.76 
M 363.2 140.45 369.41 148 
M 382.81 163.18 385.7 166.75 
M 323.84 92.7 327.38 95.42 332.09 99.68 341.6 110.03 348.37 117.09 
M 351.18 120.11 358.1 128.07 365.44 136.98 
M 371.62 144.49 374.85 148.26 
M 378.2 152.07 381.51 155.85 
M 328.9 92.8 332.4 95.44 337.07 99.82 344.16 107.35 354.84 118.29 364.59 129.57 
M 370.81 137.06 373.96 140.84 
M 377.09 144.56 386.51 155.78 
M 333.96 92.8 337.44 95.5 339.76 97.61 357.09 114.93 363.9 122.3 
M 366.8 125.68 376.33 136.99 
M 385.56 148.17 388.55 151.9 
M 391.42 155.62 391.93 156.28 
M 339 92.72 342.51 95.47 347.12 99.7 363.43 115.66 
M 366.25 118.57 369.17 121.81 
M 384.92 140.58 387.91 144.26 
M 344.57 92.86 347.61 95.23 352.19 99.27 359.16 106.16 370.22 116.53 371.73 118.15 
M 374.78 121.57 377.87 125.29 
M 350.97 93.42 354.86 96.69 364.15 105.6 372.85 113.27 375.9 116.35 377.41 118.08 
M 380.42 121.68 383.48 125.46 
M 357.94 94.57 365.51 101.56 
M 368.17 103.91 375.52 110.21 377.04 111.69 
M 365.13 95.96 378.29 107.17 381.31 110.02 384.32 113.23 388.8 118.57 
M 373.27 97.6 378.25 101.61 382.66 105.45 
M 385.65 108.38 391.62 115.12 
M 383.51 100.44 387.1 103.63 391.54 108.26 
M 182.36 91.79 178.05 94.64 
M 188.39 91.18 182.94 94.88 179.56 97.4 
M 193.55 91.07 188.73 94.44 184.24 97.9 
M 181.25 100.34 180.6 100.89 
M 198.44 91.21 191.55 96.22 185.57 101.18 181.35 105.02 
M 203.43 91.44 200.15 93.65 194.37 98.14 186.83 104.87 
M 183.79 107.85 181.79 109.86 
M 208.28 91.97 202.94 95.59 200.08 97.8 195.62 101.58 
M 192.58 104.37 187.97 108.92 181.8 115.64 
M 213.17 92.72 208.52 95.68 205.66 97.77 199.8 102.59 193.63 108.43 190.5 111.73 185.77 117.11 
M 217.84 93.73 214.23 95.92 208.35 100.15 202.35 105.2 199.25 108.11 192.9 114.79 183.54 126.1 
M 222.35 94.9 217.08 98.24 211.01 102.77 204.81 108.08 200.05 112.79 
M 196.82 116.31 191.99 122.02 185.08 130.68 
M 226.73 96.2 222.73 98.74 216.71 103.17 210.37 108.41 207.2 111.3 204 114.45 197.52 121.7 186.6 135.49 
M 231.3 97.4 225.31 101.43 217.52 107.65 
M 214.3 110.44 209.48 114.87 203.1 121.65 199.99 125.34 192.4 134.96 
M 189.32 138.93 188.04 140.58 
M 236.13 98.59 230.54 102.21 227.65 104.4 218.09 112.61 211.7 118.7 208.58 121.97 205.55 125.41 201.13 130.85 
M 241.97 99.1 235.59 103.26 232.78 105.27 226.64 110.3 221.78 114.76 
M 218.59 117.82 213.94 122.49 208.08 129.07 191.41 150.24 
M 247.96 98.99 234.88 108.42 231.8 110.88 225.4 116.65 219.22 122.87 213.44 129.17 210.67 132.54 200.56 145.71 
M 253.93 98.23 245.6 104.98 236.91 111.47 230.61 116.85 227.47 119.83 221.52 125.98 215.98 132.36 205.56 146.27 
M 259.85 96.96 250.74 105.06 238.94 114.33 235.81 116.96 231.16 121.27 
M 228.19 124.23 223.93 128.76 221.23 131.96 218.56 135.39 212.7 143.61 
M 265.17 95.88 253.07 107.19 242.55 115.76 
M 239.44 118.37 234.84 122.57 229.08 128.46 226.4 131.51 222.49 136.63 
M 270.21 94.93 258.14 106.62 252.24 111.92 243.09 119.66 237.03 125.34 231.45 131.33 227.61 136.21 
M 195.07 178.35 194.91 178.53 
M 274.99 94.33 270.73 98.22 260.14 108.68 242.19 125.26 239.26 128.25 235.16 132.9 
M 232.6 136.14 231.35 137.81 
M 199.16 180 197.93 181.47 
M 279.99 93.8 275.17 97.96 271.7 101.4 
M 269.15 103.95 255.94 116.64 244.41 128.24 238.85 134.58 236.44 137.73 
M 203.32 181.67 201.12 184.33 
M 195.83 190.65 193.29 193.53 
M 284.99 93.46 279.53 98 260.63 116.37 246.78 131.34 241.7 137.56 
M 207.52 183.36 207.14 183.83 
M 290.13 93.09 286.13 96.25 281.65 100.27 268.38 113.23 262.61 119.24 250.85 132.92 
M 248.06 136.26 247.28 137.22 
M 202.72 195.37 200.07 197.88 
M 295.27 92.71 292.95 94.46 288.38 98.39 281.29 105 276 110.19 267.6 119.35 259.1 129.83 
M 256.54 132.93 253.46 136.6 
M 216.14 186.83 213.99 189.38 
M 211.46 192.28 208.87 195 
M 300.55 92.33 297.64 94.38 295.32 96.3 283.24 107.63 277.95 113.08 273.96 117.8 
M 271.43 121.06 263.49 131.68 260.27 135.61 
M 305.97 92 302.37 94.32 297.68 98.25 285.26 110.37 282.69 113.13 280.15 116.17 277.69 119.48 271.08 129.36 267.86 133.82 
M 223.46 192 221 194.61 
M 310.8 92.12 307.09 94.44 302.41 98.13 289.92 110.54 287.38 113.3 284.94 116.28 282.62 119.56 279.38 124.82 
M 277.33 128.27 274.65 132.64 
M 315.45 92.28 309.45 96.43 304.77 100.38 297.27 107.88 292.12 113.45 289.68 116.46 287.42 119.73 278.66 135.24 
M 319.89 92.52 314.1 96.79 309.47 100.71 302.06 107.9 296.94 113.53 294.5 116.59 292.24 119.87 290.17 123.4 284.6 134.41 282.03 138.64 
M 241.24 191.55 240.48 192.32 
M 238.2 194.56 235.83 196.75 
M 324.47 92.71 318.78 97.13 314.16 101.15 306.83 108.11 301.79 113.63 299.38 116.68 297.14 119.93 295.07 123.45 289.56 134.65 287.67 138.22 285.81 141.12 
M 245.94 192.04 241.25 196.66 
M 236.4 200.68 233.83 202.53 
M 329.27 92.8 323.57 97.37 314.12 106.1 309.1 111.06 306.62 113.8 304.26 116.76 302.07 119.95 300.02 123.39 298.06 127.1 292.62 138.33 289.87 142.79 
M 248.67 194.39 244.17 198.62 
M 334.36 92.79 330.88 95.42 323.75 101.85 314.05 111.46 309.16 116.9 306.98 119.94 304.97 123.29 303.01 126.94 296.5 140.04 
M 294.48 143.38 291.47 147.58 
M 253.8 193.95 251.5 196.35 
M 246.95 200.46 244.59 202.23 
M 339.58 92.71 335.91 95.48 333.53 97.51 328.75 101.96 316.68 114.48 313.17 118.61 
M 311 121.62 307.98 126.71 302.29 138.13 300.39 141.65 298.41 144.93 296.25 148.07 292.52 152.58 
M 256.52 195.9 254.19 198.22 
M 344.32 92.85 340.97 95.49 336.14 99.79 331.36 104.49 325.4 110.91 
M 323.07 113.54 317.34 120.3 315.19 123.28 313.1 126.58 311.12 130.19 307.26 137.77 303.4 144.71 301.45 147.87 299.28 150.92 295.5 155.37 
M 270.18 186.14 269.73 186.67 
M 264.31 192.64 261.68 195.33 
M 348.76 93.06 346.06 95.33 341.12 99.88 336.36 104.66 331.67 109.73 327.09 115.12 322.71 120.61 320.56 123.49 317.36 128.33 
M 315.31 131.83 309.47 142.61 
M 305.73 149.09 304.77 150.63 301.33 155.14 
M 296.06 161.07 289.16 168.47 286.53 171.52 
M 282.67 176.38 277.63 182.94 
M 352.56 93.67 346.16 99.76 341.36 104.77 336.75 109.91 331.15 116.67 
M 329.03 119.46 321.59 130.04 317.52 136.98 310.2 150.3 307.15 154.89 
M 302.11 160.98 293.58 170 
M 277.7 188.84 275.06 191.7 
M 356.24 94.26 351.26 99.36 344.1 107.35 337.42 115.47 333.19 121.09 324.73 133.48 318.87 143.55 313.72 153.17 312.73 154.73 
M 310.57 157.86 308.13 160.97 
M 299.81 170.07 295.34 174.69 291.05 179.41 
M 285.65 185.67 280.36 191.56 
M 359.84 94.94 356.13 98.85 351.54 104.31 344.77 112.78 339.47 119.9 
M 337.4 122.8 329.98 133.69 323.08 145.06 
M 319.56 151.51 316.99 156.34 313.84 161.13 
M 311.47 164.23 308.92 167.26 
M 306.16 170.27 303.24 173.3 
M 297.17 179.46 294.14 182.56 
M 288.43 188.64 283.05 194.22 
M 363.49 95.64 360.96 98.3 356.42 103.82 344.7 120.07 
M 338.49 129.11 333.19 137.2 327.22 146.76 324.38 151.6 
M 320.89 158.18 319.02 161.45 
M 312.24 170.7 306.66 176.65 
M 303.6 179.64 297.25 185.62 
M 367.43 96.42 363.57 100.47 361.27 103.28 355.99 110.68 
M 353.95 113.79 349.89 120.11 
M 347.87 123.24 340.65 134.04 334.55 143.87 331.4 148.63 
M 325.57 158.52 323.82 161.88 
M 322.01 165.15 320.04 168.3 
M 317.84 171.33 315.41 174.28 
M 312.77 177.17 311.4 178.61 306.77 182.87 
M 371.59 97.26 366.41 102.75 361.92 108.55 357.88 114.83 351.01 126.48 
M 349 129.58 346.99 132.65 
M 344.97 135.79 342.96 139.05 
M 340.96 142.36 338.9 145.64 
M 336.76 148.91 333.51 153.84 330.45 158.92 
M 326.84 165.71 325.02 168.94 
M 323.04 172.05 320.83 175.02 
M 375.8 98.23 369.49 105.11 367.12 107.99 364.93 110.99 360.87 117.56 355.09 128.16 352.15 132.92 
M 350.2 136.03 344.31 145.75 
M 342.19 149.03 335.75 159.3 
M 331.83 166.23 329.99 169.55 
M 379.95 99.34 372.76 107.56 368.12 113.58 365.97 116.91 363.91 120.51 357.21 133.16 
M 355.3 136.41 351.56 142.77 
M 347.57 149.17 343.32 155.9 
M 341.21 159.46 339.17 163.07 
M 337.18 166.62 335.21 170.05 
M 331.09 176.46 328.9 179.33 
M 384.08 100.67 376.12 110.19 373.77 113.24 370.33 118.22 
M 368.12 121.87 361.37 135.04 355.71 144.88 352.79 149.51 
M 348.74 156 346.71 159.5 
M 388.16 102.34 381.91 110.01 377.15 116.35 374.83 119.74 372.55 123.42 370.43 127.32 364.68 138.76 360.84 145.45 355.96 153.14 
M 352.11 159.66 350.22 163.18 
M 391.93 104.67 387.75 109.93 380.49 119.88 378.2 123.41 376.05 127.17 373 133.12 
M 371.02 137.03 365.16 147.6 
M 352 170.39 349.97 173.88 
M 391.93 112.2 383.83 123.65 381.64 127.25 374.51 140.83 
M 372.47 144.5 367.83 153.14 362.93 160.87 
M 361.01 164.01 359.22 167.25 
M 391.93 120.37 387.24 127.43 385.12 131.08 376.03 148.27 
M 374.24 151.93 370.68 158.71 
M 368.73 161.84 365.68 166.42 362.85 171.11 
M 361 174.3 360.04 175.9 
M 391.93 129.09 389.65 132.93 
M 387.55 136.7 385.46 140.56 
M 383.38 144.42 380.51 150.18 377.19 157.61 375.45 161.06 372.47 165.82 
M 391.93 138.52 387.7 146.17 384.87 152.01 
M 381.64 159.55 379.1 164.82 378.06 166.46 
M 373.59 172.78 371.92 175.02 
M 391.93 148.1 389.01 153.8 384.21 164.98 382.35 168.45 381.24 170.12 
M 391.93 157.97 388.06 166.72 
M 386.23 170.24 385.25 171.98 382.87 175.46 
M 235.62 97.95 280.63 30 281.36 30.46 238.69 98.9 
M 248.44 98.12 273.38 44.99 274.17 45.34 251.63 98.52 
M 261.07 95.94 272.98 58.66 273.81 58.9 264.24 96.05 
M 273.83 93.88 281.03 72.2 281.86 72.43 276.95 94.12 
M 286.7 92.84 290.25 83.66 291.09 83.88 289.77 93.12 
M 295.35 92.29 296.87 92.6 
M 277.05 37.38 274.68 39.77 272.78 42.39 272.09 43.83 271.59 45.35 271.25 46.95 270.89 50.3 
M 271.88 50.75 270.75 53.32 270.35 54.61 270.14 55.91 270.13 57.2 270.7 59.79 271.79 62.39 
M 272.83 62.69 273.56 65.88 274.72 68.79 275.55 70.09 276.56 71.28 277.71 72.37 280.31 74.37 
M 281.35 74.66 282.41 77.59 283.07 78.94 283.87 80.18 284.81 81.28 287.16 83.1 289.9 84.58 
M 290.95 84.85 291.24 87.19 291.53 88.26 291.96 89.22 292.56 90.07 294.24 91.43 296.34 92.49 
M 275.83 38.56 273.64 41.04 272.78 42.39 272.09 43.83 271.59 45.35 271.04 48.61 
M 272.04 45.58 270.11 47.78 269.35 48.97 268.3 51.58 267.81 54.46 
M 268.26 52.61 266.59 54.51 265.92 55.55 265.01 57.82 264.59 60.32 
M 264.48 59.63 263.06 61.25 262.49 62.12 261.72 64.05 261.36 66.17 
M 260.69 66.66 259.06 68.7 258.43 70.28 258.14 72.02 
M 256.91 73.68 255.63 75.28 255.14 76.51 254.91 77.87 
M 271.28 52.03 270.35 54.61 270.14 55.91 270.13 57.2 270.33 58.5 271.21 61.09 
M 268.64 60 267.88 62.13 267.69 64.26 267.85 65.33 268.58 67.47 
M 266 67.97 265.4 69.65 265.26 70.49 265.38 72.17 265.96 73.85 
M 263.37 75.94 262.83 77.77 262.91 79 263.33 80.24 
M 273.17 64.3 274.07 67.39 274.72 68.79 275.55 70.09 276.56 71.28 278.98 73.39 
M 271.69 75.16 272.27 77.17 273.24 78.93 273.89 79.7 275.47 81.07 
M 281.86 76.15 283.07 78.94 283.87 80.18 284.81 81.28 285.92 82.25 288.5 83.86 
M 190.11 150.39 232.38 135.2 232.69 136.01 190.19 153.56 
M 190.2 154.1 286.63 129.66 286.85 130.49 190.25 157.24 
M 190.26 157.83 303.5 141.81 303.62 142.67 190.29 160.92 
M 190.3 161.56 306 157.9 306.03 158.76 190.03 164.63 
M 189.95 165.24 297.19 173.65 297.13 174.51 189.61 168.29 
M 189.63 168.84 281.13 186.34 280.98 187.18 189.77 171.97 
M 189.79 172.51 269.24 197.03 269 197.85 190.04 175.75 
M 196.29 177.5 232.22 193.49 231.89 194.28 190.29 178.06 
M 228.26 137.84 239.16 137.68 249.99 137 255.37 136.38 260.73 135.54 266.07 134.53 276.71 132.17 
M 276.99 133.22 279.67 136.41 282.66 139.17 284.32 140.31 286.09 141.27 287.96 142.09 291.91 143.45 
M 292.07 144.53 291.44 147.75 291.33 150.89 291.56 152.42 292 153.92 292.61 155.39 294.18 158.28 
M 294.22 159.36 291.5 161.78 289.22 164.47 288.34 165.96 287.63 167.56 287.08 169.24 286.26 172.79 
M 286.19 173.88 282.34 175.36 278.79 177.26 277.2 178.45 275.72 179.8 274.36 181.3 271.83 184.56 
M 271.64 185.63 268.59 186.76 267.18 187.46 265.88 188.29 264.71 189.28 262.76 191.7 261.15 194.53 
M 260.84 195.57 253.64 193.57 250.02 192.74 246.38 192.09 242.71 191.65 235.31 191.33 227.84 191.54 
M 233.71 137.79 244.58 137.43 249.99 137 255.37 136.38 260.73 135.54 271.39 133.39 
M 278.31 134.84 281.12 137.86 282.66 139.17 284.32 140.31 286.09 141.27 289.92 142.8 
M 257.2 140.25 259.35 142.57 260.53 143.57 263.17 145.18 266.1 146.35 
M 236.09 145.66 237.59 147.27 239.3 148.57 242.28 149.9 
M 291.72 146.14 291.3 149.34 291.33 150.89 291.56 152.42 292 153.92 293.36 156.84 
M 273.54 148.82 273.19 151.46 273.22 152.74 273.77 155.24 274.89 157.65 
M 255.36 151.51 255.09 153.58 255.11 154.59 255.54 156.56 256.43 158.46 
M 237.19 154.19 237 156.44 237.32 157.88 237.96 159.27 
M 292.83 160.55 290.28 163.08 289.22 164.47 288.34 165.96 287.63 167.56 286.64 171 
M 268.33 161.57 266.38 163.51 264.89 165.71 264.35 166.94 263.59 169.58 
M 243.84 162.59 241.91 164.67 241.06 166.32 240.53 168.16 
M 284.24 174.59 280.51 176.24 278.79 177.26 277.2 178.45 275.72 179.8 273.07 182.9 
M 261.75 173.14 258.89 174.4 257.57 175.18 255.22 177.13 253.19 179.51 
M 239.26 171.68 236.35 173.11 234.71 174.46 233.3 176.11 
M 270.09 186.17 267.18 187.46 265.88 188.29 264.71 189.28 263.68 190.42 261.93 193.09 
M 241.3 181.14 239.41 181.98 237.81 183.16 237.14 183.91 236 185.64 
M 257.25 194.54 250.02 192.74 246.38 192.09 242.71 191.65 239.02 191.4 231.58 191.4 
M 245.49 210.36 251.75 215.2 255.16 221.24 283.38 255.55 283.43 258.04 283.06 260.11 283.99 263.48 284.06 265.99 284.41 268.77 283.1 270.95 281.51 272.86 279.12 273.99 276.49 274.86 273.48 275.36 271.01 276.44 268.8 277.89 267.25 280 264.65 279.51 250.7 265.41 245.74 262.22 243.61 261 242.25 260.55 240.79 258.43 238.3 252.7 236.51 249.76 220.4 221.06 216.54 216.5 214.43 213.48 213.31 210.94 211.24 207.54 
M 241.19 210.68 246.2 215.08 248.55 217.45 250.66 219.3 255.54 226.99 260.3 230.72 265.3 233.78 266.92 235.72 269.18 237.23 270.15 239.03 270.82 239.42 272.83 241.61 275.83 243.46 
M 236.9 211 241.27 216.35 243.36 218.13 245.34 220.45 250.16 227.12 251.02 229.11 254.13 234.36 255.67 236.64 259.81 239.82 261.92 242 264.03 243.57 265.41 245.63 267.7 250.76 270.13 253.18 272.71 256.32 276.07 261.41 278.3 264.19 
M 232.62 210.48 236.76 216.16 238.16 218.77 240.03 220.74 241.59 223.11 244.64 229.93 247.22 234.79 249.04 237.16 251.45 239.08 252.84 241.51 253.83 243.69 255.55 246.29 
M 228.34 209.97 236.13 223.16 237.78 225.33 239.46 230.35 240.57 232.74 241.94 235.14 246.77 241.1 248.2 244.52 248.86 248.02 249.91 250.95 251.28 253.69 
M 224.09 209.26 226.16 212.8 232 225.9 234.38 229.74 236.53 235.5 237.43 238.79 239.44 243.15 
M 219.84 208.55 223.22 215.14 224.65 217.57 227.07 222.79 228.06 225.52 228.12 228.24 228.79 230.42 230.76 232.15 231.82 235.21 234.51 241.75 235.37 244.67 237.48 246.04 
M 215.56 208.05 220.41 217.49 223.41 221.99 224.7 224.81 224.52 228.13 225.07 231.29 225.68 233.68 226.7 235.24 228.91 237.66 232.24 243.83 
M 358.15 179.5 361.96 188.25 361.22 188.68 355.47 181.07 
M 345.26 180.77 350.2 190.65 349.47 191.11 342.64 182.43 
M 332.5 183.23 341.29 196.09 340.62 196.63 330.07 185.16 
M 320.22 187.44 335.55 204.78 334.94 205.38 318 189.6 
M 308.47 192.83 331.24 217.74 330.62 218.35 306.25 195 
M 298.03 196.96 328.8 233 328.16 233.57 295.71 199.03 
M 360.64 187.92 358.04 187.22 355.52 187.02 354.3 187.21 353.12 187.61 351.96 188.18 349.71 189.66 
M 348.79 190.25 346.4 190.29 344.26 190.78 343.33 191.29 342.49 191.97 341.75 192.82 340.41 194.8 
M 339.56 195.48 337.44 196.5 335.73 197.84 335.11 198.68 334.66 199.64 334.36 200.71 334.02 203.04 
M 333.24 203.8 331.25 205.96 330.42 207.1 329.75 208.3 329.27 209.57 328.88 212.32 328.96 215.25 
M 328.19 216.01 326.55 218.79 325.42 221.65 325.15 223.14 325.08 224.66 325.18 226.22 325.72 229.39 
M 359.34 187.53 356.76 187.03 355.52 187.02 354.3 187.21 353.12 187.61 350.83 188.89 
M 347.58 190.23 345.29 190.45 344.26 190.78 343.33 191.29 342.49 191.97 341.06 193.78 
M 338.47 195.97 336.51 197.12 335.73 197.84 335.11 198.68 334.66 199.64 334.16 201.86 
M 332.21 204.87 330.42 207.1 329.75 208.3 329.27 209.57 328.99 210.91 328.89 213.77 
M 325.57 200.09 324.4 201.54 323.97 202.32 323.48 204.02 323.41 205.88 
M 327.33 217.39 325.9 220.2 325.42 221.65 325.15 223.14 325.08 224.66 325.42 227.8 
M 321.45 212.39 320.35 214.54 319.98 215.66 319.72 217.96 319.98 220.37 
M 315.57 207.39 314.55 209.66 314.36 211.27 314.54 212.94 
M 391.07 103.53 394.02 102.96 398.75 100.17 403.76 97.86 410.65 92.99 416.93 89.38 421.85 85.61 425.24 83.8 427.99 82.45 430.56 81.57 433.42 81.07 436.5 79.2 438.52 77.33 440.35 76.15 442.49 75.14 445.2 70.7 447.26 68.95 450.1 67.68 452.56 66.18 454.99 65.82 461.27 62.2 463.08 61.84 456.8 72.09 455.66 74.28 455.07 77.02 454.67 79.94 453.38 81.99 452.26 84.19 449.64 91.99 448.55 94.42 446.6 95.97 445.88 98.74 444.86 101.21 442.53 105.84 440.86 107.68 438.71 109.17 434.73 112.47 433.28 117.64 432.8 120.44 431.74 122.65 428.57 126.44 426.48 131.5 424.1 132.68 422.17 134.31 418.64 144.13 419.62 150.61 419.48 155.06 419.97 157.56 420.92 160.45 422.32 166.3 423.35 169.56 425.53 173.09 425.34 174.48 424.94 175.89 425.17 178.2 426.16 181.63 427.74 185.67 428.78 188.95 428.48 190.63 428.62 192.75 429.27 194.1 432.17 198.54 434.04 207.54 430.65 205.16 429.17 202.67 426.25 200.89 422.77 199.65 420.15 198.19 416.99 198.12 414.63 196.72 412.31 195.1 410.35 193.17 408.02 191.2 405.91 190.01 404.16 188.54 401.54 186.94 396.56 183.47 391.07 178.91 
M 393.95 106.8 396.79 105.88 406.03 100.93 408.42 100.48 410.82 99.75 413.15 97.49 415.42 96.43 416.88 95.06 425.25 90.81 427.34 89.3 
M 399.03 109.11 401.7 107.67 404.06 106.62 406.55 105.82 410.46 105 416.74 101.32 418.56 99.9 420.37 99.14 423.1 98.33 426.52 96.31 430.11 95.34 432.54 94.45 437.08 94.45 439.89 93.91 441.33 92.96 
M 399.33 113.17 401.88 112.44 404.81 111.86 409.88 110.14 412.09 108.86 415.26 108.21 423.32 103.99 425.68 103.5 428.64 103.33 432.82 101.03 435.62 100.22 437.68 100.72 440.29 100.76 443.07 99.26 
M 394.34 118.37 402.11 116.3 404.54 115.44 407.6 115.34 413.82 114.27 419.66 112.44 422.66 112.49 
M 397.44 122.04 400.17 121.11 402.39 120.77 404.99 119.88 407.39 119.29 410 118.99 413.21 117.85 415.47 117.8 422.99 117.07 425.09 115.96 431.24 113.86 
M 394.87 127.19 397.54 127.09 400.01 126.45 403.03 126.09 408.73 124.32 410.97 124.09 416.7 122.67 420.6 123.12 423.71 123.11 424.79 123.43 
M 391.07 129.91 395.22 131 397.58 131.31 402.76 131.31 405.53 130.93 409.06 130.01 412.55 128.57 415.6 127.52 419.12 127.16 422.04 127.42 424.52 127.34 
M 395.39 134.42 398.54 135 403.95 134.6 406.36 134.79 409.81 134.23 
M 395.59 138.05 398.34 138.75 405.12 138.39 407.65 139.15 
M 394.79 142.56 397.56 142.57 400.79 142.85 403.7 143.37 406.4 144.07 410.48 143.55 414.69 143.44 416.59 143.99 
M 396.72 147.73 403.3 148.46 406.57 148.28 410.56 148.56 413.91 148.56 
M 391.07 148.75 394.88 150.25 397.92 151.24 401.34 151.66 404.87 152.83 
M 398.33 154.68 401.6 155.87 407.83 157.77 
M 395.26 157.76 403.13 160.71 405.15 162.04 411.88 164.27 
M 398.14 163.83 400.12 164.23 402.07 165.1 408.16 166.96 410.64 168.56 413.7 169.77 
M 399.25 168.03 401.57 169.52 404.58 170.98 407.35 171.75 410.42 173.92 412.51 174.73 
M 399.04 172.68 401.63 174.48 404.59 175.23 406.99 176.09 409.53 178.62 412.24 180.35 415.02 180.82 
M 394.42 173.31 397.17 174.65 401.43 178.38 406.57 180.93 409.19 183.31 411.75 185 420.03 188.4 
M 397.08 179.13 401.11 182.56 403.94 184.02 406.01 185.89 411.32 188.2 
M 90.08 125.36 91.5 123.64 93.69 121.63 106.05 112.17 111.48 108.8 117.74 106.04 123.26 103.83 149.2 97.54 161.15 95.01 175.06 92.88 177.01 92.73 180.09 98.37 181.27 104.16 181.81 110 181.8 115.88 182.25 121.73 183.94 127.48 185.99 133.2 187.54 138.96 189.31 144.71 190.13 150.53 190.31 162.27 189.6 168.21 189.86 174.07 191.1 185.74 190.59 191.66 189.08 197.65 185.54 203.78 172.64 203.27 163.4 202.02 155.09 200.04 147.35 197.69 140.01 194.87 133.23 191.59 126.35 187.28 120.25 182.49 114.57 176.93 108.93 171.01 
M 106.49 167.52 104.16 164.16 100.16 156.82 96.58 150.73 93.33 146.08 90.99 141.42 90.59 135.37 
M 161.82 123.04 163.92 132.67 163.75 137.12 162.21 144.87 161.1 148.27 161.25 151.48 163.6 158.49 164.52 162.78 165.02 167.66 164.1 173.18 149.36 174.33 143.42 174.19 137.48 173.62 131.49 172.33 125.74 170.2 119.8 166.65 
M 107.84 170.31 96.09 146 89.3 132.8 88.47 130.78 87.73 128.67 88.13 126.45 89.95 125.32 92 125.95 92.99 127.85 94.2 132.1 99.67 145.7 101.76 151.84 105.83 161.99 109.06 170.94 
M 108.56 171.53 98.32 167.7 88.34 164.59 80.08 161.2 76 159.74 67.72 156.98 63.6 155.96 57.96 153.89 56.91 152.03 57.64 150 59.64 149.21 61.53 149.9 77.07 156.37 89.29 162.3 98.92 166 108.82 170.74 
M 128.86 135.13 126.62 132 125.53 128.31 125.69 124.47 127.08 120.89 129.57 117.95 132.87 115.99 136.63 115.2 140.45 115.67 143.9 117.36 146.62 120.08 148.31 123.53 148.79 127.35 148 131.11 146.03 134.41 143.09 136.9 139.51 138.3 135.67 138.46 131.99 137.36 128.86 135.13 
M 144.72 121.44 146.07 124.2 146.45 127.25 145.82 130.26 144.25 132.91 141.9 134.89 139.03 136.01 135.96 136.14 133.01 135.26 130.51 133.47 
M 133.17 129.52 132.27 128.27 131.83 126.8 131.9 125.26 132.46 123.83 133.45 122.66 134.77 121.87 136.28 121.55 137.8 121.74 139.18 122.42 140.27 123.51 140.95 124.89 141.14 126.41 140.82 127.92 140.04 129.24 138.86 130.23 137.43 130.79 135.89 130.86 134.42 130.42 133.17 129.52 
M 133.25 127.62 136.46 130.83 
M 134.6 126.64 138.38 130.42 
M 135.93 125.65 139.76 129.47 
M 135.83 123.22 140.71 128.1 
M 137.73 122.8 141.11 126.17 
M 113.32 175.61 117.28 179.58 
M 100.72 157.85 102.86 159.99 
M 92.53 144.49 95.65 147.61 
M 90.69 137.47 92.66 139.44 
M 91.95 123.22 94.68 125.95 
M 94.71 120.81 99.06 125.16 
M 97.6 118.53 102.44 123.37 
M 100.56 116.32 104.06 119.82 
M 103.51 114.09 107.33 117.91 
M 106.49 111.9 109.9 115.32 
M 109.67 109.92 112.4 112.65 
M 113.03 108.11 116.96 112.03 
M 116.62 106.53 119.74 109.65 
M 120.28 105.02 125.44 110.18 
M 124.07 103.63 128.3 107.87 
M 128.21 102.6 132.83 107.23 
M 132.39 101.61 136.7 105.92 
M 136.57 100.62 141.3 105.35 
M 140.71 99.59 145.49 104.37 
M 144.87 98.58 149.88 103.59 
M 149.04 97.58 153.42 101.97 
M 153.34 96.71 157.46 100.83 
M 157.61 95.81 162.16 100.36 
M 161.86 94.89 165.13 98.16 
M 166.28 94.14 170.61 98.47 
M 170.77 93.46 173.36 96.05 
M 175.34 92.86 178.44 95.95 
M 182.24 196.94 181.24 197.05 180.52 197.41 179.54 198.37 179.38 198.72 
M 109.08 112.76 106.14 112.12 
M 92.54 140.4 92.64 139.4 
M 96.06 136.83 97.18 134.86 97.41 134.14 
M 169.43 182.39 169.09 182.29 167.76 182.5 165.86 182.47 
M 103.85 132.85 103.89 133.26 104.44 133.39 104.82 133 104.77 132.61 
M 138.98 108.05 138.29 107.7 137.1 107.88 133.16 109.45 131.6 109.9 130.88 110.56 130.31 111.41 
M 167.04 175.86 166.52 176.53 166.02 177.68 164.94 181.19 164.11 182.78 163.42 183.49 
M 158 199.51 159.38 201.06 
M 160.08 133.33 161.87 133.7 
M 117.87 108.26 118.71 107.13 119.21 105.45 
M 166.25 168.32 164.35 169.5 163.85 170.33 163.15 172.1 161.53 174.08 160.76 175.35 
M 102.23 124.33 100.45 126.31 99.99 126.62 96.41 127.65 
M 109.23 152.68 108.29 149.53 107.06 147.27 106.79 146.59 106.7 145.83 106.93 144.46 108.93 140.81 
M 190.03 152.74 190.17 152.51 
M 190.09 150.27 189.5 149.17 187.92 147.77 187.31 147.49 185.67 147.33 
M 173.05 108.72 172.51 107.77 172.45 106.54 172.24 106.01 
M 150.91 126.81 152.17 124.31 152.29 123.58 152.04 119.61 152.55 116.51 152.38 115.79 151.52 114.49 
M 158.67 150.33 160.47 150.07 162.47 150.18 162.88 150.55 163.29 151.59 
M 163.31 200.28 164.02 200.58 167.13 199.87 170.44 199.7 172.06 199.91 
M 181.8 111.3 180.38 111.97 179.51 112.06 178.87 111.58 177.64 109.97 
M 125.69 170.4 126.98 167.32 128.11 162.56 
M 144.77 149.31 146.21 149.11 146.89 148.86 147.19 148.44 147.58 147.32 
M 186.53 183.46 189.57 186.08 190.28 186.51 191.02 186.69 
M 118.75 140.98 113.82 143.63 112.42 144.12 111.88 144.02 111.46 143.7 109.98 141.94 
M 171.55 156.15 171.5 155.2 171.89 154.01 172.53 150.78 172.55 148.55 
M 174.87 201.39 175.64 201.13 177.36 201.49 177.89 201.41 178.58 201 179.01 200.05 
M 146.92 105.18 147.03 104.52 148.96 102.57 151.35 99.25 152.47 96.89 
M 173.61 176.56 173.46 176.38 172.95 176.31 171.65 176.68 170.64 177.18 169.04 178.38 167.78 180.17 
M 176.32 103.66 175.3 103.82 174.62 103.69 174.24 103.41 173.61 102.53 
M 153.75 186.68 152.63 187.07 151.36 186.98 148.58 185.95 145.63 184.28 
M 168.39 163.4 165.99 162.91 165.28 162.29 164.53 161.37 164.01 160.27 163.88 158.37 
M 138.53 157.95 137.42 157.19 136.6 156.89 134.17 157.44 132.53 157.2 131.28 157.22 
M 148.69 127.8 150.18 122.96 150.24 121.2 151.01 117.66 151.09 116.77 150.9 115.99 150.52 115.35 
M 176.08 123.47 175.58 123.84 175.31 124.38 175.37 124.91 175.68 125.42 176.23 125.87 176.91 126.17 178.04 126.18 
M 122.32 143.54 122.68 146.8 122.32 147.79 
M 102.46 147.67 102.37 144.77 102.74 143.41 103.06 140.92 102.99 138.45 103.09 137.89 
M 182.96 183.02 184.1 183.05 185.35 183.54 190.13 186.72 
M 108.02 139.78 110.08 138.06 110.59 137.93 110.85 138.24 
M 108.91 171.02 109.22 171.74 
M 104.08 162.45 103.82 163.13 104.36 162.99 
M 101.98 158.1 101.67 158.4 101.3 159.22 101.87 158.87 102.33 158.85 
M 99.8 153.88 99.3 154.29 98.77 155.31 99.5 154.77 100.2 154.67 
M 97.76 149.58 96.93 150.19 96.24 151.4 97.13 150.66 98.17 150.47 
M 95.72 145.3 94.56 146.09 93.71 147.49 94.77 146.56 96.2 146.23 
M 93.54 141.12 92.19 141.98 91.19 143.58 92.4 142.46 94.03 142.04 
M 91.38 136.93 89.82 137.88 88.66 139.67 90.03 138.35 91.84 137.85 
M 89.26 132.71 87.45 133.78 86.13 135.76 87.66 134.25 89.72 133.64 
M 87.83 128.09 85.09 129.67 83.61 131.85 85.29 130.15 87.96 129.33 
M 108.77 170.9 109.68 171.26 
M 104.3 168.63 104.73 168.57 104.84 168.88 
M 99.89 166.47 100.58 166.19 100.51 166.77 
M 95.26 164.59 95.68 164.16 96.43 163.81 96.16 164.35 96.17 164.96 
M 90.62 162.86 91.36 161.93 92.29 161.42 91.84 162.12 91.75 163.31 
M 86.28 160.77 87.04 159.7 88.14 159.04 87.52 159.89 87.33 161.29 
M 81.89 158.75 82.72 157.47 83.99 156.66 83.2 157.66 82.92 159.26 
M 77.55 156.62 78.4 155.24 79.85 154.28 78.89 155.43 78.54 157.14 
M 73.1 154.69 74.09 153.01 75.7 151.9 74.57 153.19 74.13 155.12 
M 68.61 152.84 69.77 150.77 71.55 149.52 70.25 150.96 69.69 153.26 
M 64.09 151.04 65.45 148.54 67.4 147.14 65.93 148.73 65.21 151.53 
M 59.59 149.23 61.13 146.31 63.26 144.76 61.61 146.5 60.77 149.62 
M 66.39 156.69 73.18 161.62 80.13 166.41 87.32 170.77 94.87 174.64 102.63 178.28 110.5 181.52 126.35 187.28 
M 106.49 176.65 106.5 177.6 108.5 179.94 
M 180.07 98.33 181.08 99.35 
M 180.71 92.08 189.88 101.25 
M 186.74 91.21 195.09 99.56 
M 193.49 91.07 199.34 96.92 
M 200.59 91.28 205.94 96.63 
M 208.17 91.96 214.53 98.32 
M 216.55 93.45 226.65 103.55 
M 225.96 95.97 235.3 105.31 
M 235.27 98.38 241.91 105.02 
M 242.94 99.15 249.64 105.85 
M 249.48 98.8 256.64 105.97 
M 255.48 97.9 263.8 106.23 
M 261.14 96.68 267.41 102.94 
M 266.91 95.55 274.42 103.06 
M 272.82 94.57 281.53 103.27 
M 279.04 93.9 285.19 100.04 
M 285.46 93.42 291.31 99.27 
M 291.9 92.96 300.67 101.74 
M 298.32 92.49 304.4 98.57 
M 304.76 92.03 311.25 98.52 
M 311.76 92.14 316.99 97.37 
M 318.99 92.47 324.72 98.21 
M 326.15 92.74 333.53 100.12 
M 333.11 92.81 341.9 101.6 
M 339.91 92.71 348.55 101.35 
M 347.03 92.94 355.98 101.89 
M 355.05 94.07 365.33 104.35 
M 363.53 95.65 373.5 105.62 
M 372.14 97.37 379.09 104.32 
M 381.4 99.73 389.18 107.52 
M 191.18 183.26 194.26 189.42 
M 194.53 183.92 197.61 190.09 
M 197.93 184.69 199.47 187.77 
M 201.01 190.86 202.55 193.94 
M 209.78 184.27 209.96 184.62 
M 185.6 129.87 187.14 132.95 
M 181.83 116.3 184.39 121.41 
M 187.47 127.58 189.78 132.21 
M 181.81 110.22 186.26 119.13 
M 187.8 122.21 192.43 131.46 
M 180.91 102.39 181.2 102.97 
M 182.74 106.06 186.59 113.76 
M 188.14 116.85 195.07 130.72 
M 178.92 92.39 183.93 102.41 
M 186.25 107.04 187.79 110.12 
M 190.87 116.29 197.81 130.16 
M 199.35 133.24 200.12 134.79 
M 237.84 210.23 238.18 210.91 
M 181.7 91.91 187.48 103.47 
M 192.88 114.26 203.67 135.84 
M 233.73 195.97 234.5 197.51 
M 240.68 209.88 241.09 210.69 
M 184.47 91.43 187.94 98.36 
M 188.71 99.9 191.8 106.07 
M 196.42 115.32 198.73 119.94 
M 201.05 124.57 201.82 126.11 
M 202.59 127.65 205.67 133.82 
M 234.44 191.35 237.27 197.02 
M 187.38 91.2 189.3 95.05 
M 190.07 96.6 190.85 98.14 
M 191.62 99.68 193.93 104.3 
M 194.7 105.85 196.24 108.93 
M 197.01 110.47 197.78 112.01 
M 237.46 191.37 239.41 195.26 
M 240.95 198.34 241.72 199.88 
M 190.36 91.14 193.06 96.53 
M 193.83 98.08 196.91 104.24 
M 197.69 105.78 203.08 116.57 
M 240.54 191.5 240.85 192.11 
M 193.35 91.08 196.05 96.47 
M 196.82 98.01 206.84 118.06 
M 244.61 193.59 246.15 196.68 
M 196.4 91.14 197.55 93.45 
M 198.32 94.99 207.57 113.49 
M 199.46 91.24 199.85 92.02 
M 200.62 93.56 209.1 110.51 
M 212.18 116.68 213.72 119.76 
M 222.97 138.26 223.62 139.56 
M 202.92 92.12 210.63 107.54 
M 211.4 109.08 212.17 110.62 
M 226.04 138.37 226.16 138.61 
M 205.72 91.69 213.81 107.88 
M 226.92 134.08 228.46 137.17 
M 208.91 92.04 220.09 114.4 
M 230.11 134.44 231.79 137.81 
M 212.16 92.5 225.64 119.48 
M 215.54 93.23 226.71 115.58 
M 227.49 117.13 229.8 121.75 
M 237.51 137.17 237.78 137.71 
M 218.92 93.96 227.79 111.69 
M 229.33 114.78 233.18 122.48 
M 222.42 94.93 236.68 123.45 
M 242.07 134.24 243.61 137.32 
M 225.95 95.97 238.67 121.4 
M 241.76 127.57 243.3 130.65 
M 244.07 132.19 246.38 136.82 
M 229.46 96.95 241.41 120.84 
M 242.95 123.92 244.49 127.01 
M 246.03 130.09 248.35 134.71 
M 232.9 97.79 241.77 115.52 
M 243.31 118.61 250.24 132.48 
M 236.34 98.64 236.73 99.41 
M 238.27 102.5 242.89 111.75 
M 247.52 121 252.14 130.25 
M 239.08 98.08 242.55 105.02 
M 247.17 114.27 255.65 131.23 
M 257.19 134.31 258.02 135.96 
M 240.79 95.47 245.03 103.95 
M 248.88 111.65 254.28 122.45 
M 255.05 123.99 258.13 130.15 
M 258.9 131.69 260.82 135.53 
M 285.88 185.65 288.19 190.28 
M 242.49 92.85 263.57 135 
M 288.36 184.58 290.67 189.2 
M 244.2 90.24 266.32 134.48 
M 290.84 183.5 292.38 186.59 
M 245.91 87.62 257.09 109.97 
M 257.86 111.52 260.94 117.68 
M 261.71 119.22 265.57 126.93 
M 266.34 128.47 268.65 133.1 
M 295.63 187.05 297.17 190.14 
M 247.62 85.01 251.09 91.94 
M 251.86 93.48 258.8 107.36 
M 261.88 113.53 264.19 118.15 
M 265.73 121.23 268.05 125.86 
M 268.82 127.4 271.13 132.02 
M 297.34 184.44 299.65 189.06 
M 249.33 82.39 253.57 90.87 
M 255.11 93.95 262.82 109.37 
M 264.36 112.45 269.75 123.24 
M 270.53 124.78 272.84 129.41 
M 274.38 132.49 274.47 132.68 
M 300.59 184.91 301.36 186.45 
M 251.04 79.78 256.82 91.34 
M 258.36 94.42 265.3 108.29 
M 266.84 111.38 272.23 122.17 
M 273 123.71 278.92 135.55 
M 252.75 77.16 257.76 87.18 
M 259.3 90.26 273.17 118.01 
M 274.71 121.1 284.32 140.31 
M 254.45 74.54 260.24 86.11 
M 261.01 87.65 283.36 132.35 
M 284.13 133.9 284.9 135.44 
M 287.98 141.6 288.29 142.21 
M 291.38 148.4 295.69 157.02 
M 256.16 71.93 258.86 77.32 
M 262.71 85.03 285.07 129.74 
M 290.46 140.53 292 143.61 
M 292.78 145.15 295.86 151.32 
M 257.87 69.31 261.34 76.25 
M 265.96 85.5 277.53 108.62 
M 279.07 111.71 285.23 124.04 
M 286.01 125.58 287.55 128.66 
M 291.4 136.37 294.48 142.54 
M 295.25 144.08 296.8 147.16 
M 299.11 151.79 299.88 153.33 
M 302.96 159.5 305.28 164.12 
M 259.58 66.7 280.78 109.09 
M 281.55 110.63 286.94 121.42 
M 289.26 126.05 290.03 127.59 
M 293.11 133.76 300.82 149.17 
M 305.44 158.42 307.75 163.05 
M 261.29 64.08 289.42 120.35 
M 294.82 131.14 295.59 132.68 
M 297.9 137.31 303.3 148.1 
M 263 61.47 278.03 91.53 
M 279.57 94.61 292.67 120.82 
M 299.61 134.69 306.55 148.57 
M 313.48 162.44 315.8 167.07 
M 264.71 58.85 280.51 90.45 
M 284.36 98.16 295.15 119.74 
M 300.55 130.54 308.26 145.95 
M 266.41 56.24 283.76 90.92 
M 289.15 101.71 294.55 112.5 
M 296.09 115.59 300.71 124.84 
M 304.57 132.55 309.96 143.34 
M 268.12 53.62 270.24 57.86 
M 279.48 76.35 286.04 89.45 
M 289.89 97.16 296.06 109.49 
M 299.14 115.66 311.47 140.32 
M 317.64 152.65 318.41 154.2 
M 329.2 175.78 332.28 181.95 
M 271.03 53.4 271.45 54.25 
M 287.17 85.69 288.33 88 
M 291.41 94.17 300.66 112.67 
M 301.43 114.21 302.97 117.29 
M 306.06 123.46 311.45 134.25 
M 319.93 151.21 322.24 155.83 
M 332.26 175.87 335.43 182.2 
M 294.91 95.14 300.31 105.93 
M 308.02 121.34 313.41 132.14 
M 320.35 146.01 325.74 156.8 
M 334.99 175.3 337.31 179.92 
M 338.14 181.6 338.59 182.5 
M 297.82 94.92 303.22 105.72 
M 303.99 107.26 304.76 108.8 
M 310.93 121.13 316.32 131.92 
M 317.09 133.46 317.86 135.01 
M 321.72 142.71 325.57 150.42 
M 299.96 93.17 306.9 107.05 
M 307.67 108.59 308.44 110.13 
M 310.75 114.76 311.53 116.3 
M 313.07 119.38 317.69 128.63 
M 340.82 174.88 341.59 176.42 
M 276.59 40.4 276.67 40.54 
M 302.49 92.2 305.19 97.59 
M 306.73 100.67 320.6 128.42 
M 305.4 91.99 308.1 97.38 
M 310.41 102.01 321.97 125.13 
M 308.46 92.06 311.92 99 
M 313.47 102.08 320.4 115.95 
M 322.71 120.58 325.03 125.2 
M 338.13 151.41 340.44 156.04 
M 346.61 168.37 349.69 174.53 
M 311.51 92.14 321.92 112.95 
M 322.69 114.49 323.46 116.03 
M 325 119.11 327.31 123.74 
M 337.33 143.78 348.12 165.36 
M 314.57 92.23 316.5 96.08 
M 318.04 99.17 330.37 123.83 
M 340.39 143.87 341.16 145.41 
M 342.71 148.5 344.25 151.58 
M 346.56 156.21 351.19 165.45 
M 317.67 92.4 318.83 94.71 
M 320.37 97.8 333.48 124 
M 341.95 140.96 344.27 145.58 
M 349.66 156.38 353.52 164.08 
M 355.06 167.17 357.37 171.79 
M 360.45 177.96 361.19 179.42 
M 320.78 92.57 321.16 93.34 
M 323.47 97.97 326.56 104.13 
M 328.1 107.22 335.81 122.63 
M 336.58 124.17 338.12 127.26 
M 352.76 156.55 356.62 164.25 
M 357.39 165.8 364.5 180.01 
M 323.85 92.7 325.01 95.01 
M 330.41 105.8 341.2 127.38 
M 341.97 128.92 342.74 130.46 
M 358.15 161.3 367.48 179.94 
M 326.9 92.76 329.6 98.15 
M 332.68 104.32 342.7 124.36 
M 361.2 161.36 361.97 162.9 
M 362.74 164.44 366.6 172.15 
M 367.37 173.69 370.46 179.88 
M 329.95 92.82 331.87 96.67 
M 332.65 98.21 335.73 104.38 
M 337.27 107.46 338.04 109 
M 344.21 121.34 344.98 122.88 
M 355 142.92 358.08 149.09 
M 365.79 164.5 368.1 169.13 
M 368.87 170.67 372.9 178.71 
M 332.96 92.81 334.89 96.67 
M 335.66 98.21 341.05 109 
M 356.47 139.83 365.72 158.33 
M 371.12 169.12 371.89 170.66 
M 372.66 172.2 373.43 173.75 
M 335.95 92.76 345.59 112.03 
M 346.36 113.58 347.9 116.66 
M 361 142.87 368.71 158.28 
M 376.42 173.7 377.19 175.24 
M 338.95 92.72 350.89 116.61 
M 360.91 136.65 361.68 138.19 
M 364 142.82 364.77 144.36 
M 367.08 148.98 369.39 153.61 
M 377.1 169.03 377.87 170.57 
M 378.64 172.11 380.18 175.19 
M 380.95 176.73 382.37 179.57 
M 341.99 92.78 347 102.8 
M 349.32 107.42 352.4 113.59 
M 360.88 130.55 367.04 142.88 
M 368.59 145.96 370.9 150.59 
M 384 176.8 385.28 179.35 
M 345.06 92.88 347.76 98.27 
M 348.53 99.82 349.3 101.36 
M 351.61 105.98 352.38 107.52 
M 363.17 129.11 372.42 147.61 
M 380.13 163.02 380.9 164.56 
M 348.13 92.98 351.59 99.92 
M 353.91 104.54 354.68 106.08 
M 364.7 126.12 366.24 129.21 
M 367.01 130.75 375.49 147.7 
M 380.11 156.95 383.97 164.66 
M 351.39 93.49 357.95 106.59 
M 367.2 125.09 377.22 145.13 
M 380.3 151.29 385.7 162.09 
M 354.67 94.01 364.31 113.28 
M 370.47 125.61 371.25 127.15 
M 372.02 128.69 377.41 139.49 
M 382.04 148.74 386.66 157.99 
M 357.97 94.58 367.61 113.85 
M 372.23 123.1 373 124.64 
M 375.32 129.26 379.94 138.51 
M 384.56 147.76 389.19 157.01 
M 361.31 95.22 365.55 103.7 
M 367.09 106.78 371.72 116.03 
M 374.8 122.2 376.34 125.28 
M 377.11 126.82 380.97 134.53 
M 387.13 146.87 390.99 154.57 
M 364.65 95.87 374.29 115.14 
M 376.6 119.76 378.91 124.39 
M 379.68 125.93 381.99 130.55 
M 388.16 142.89 388.93 144.43 
M 389.7 145.97 394.33 155.22 
M 368 96.54 376.87 114.27 
M 379.18 118.89 386.89 134.31 
M 389.97 140.47 396.14 152.81 
M 371.36 97.21 379.45 113.4 
M 380.22 114.94 396.41 147.31 
M 374.74 97.95 388.23 124.92 
M 392.85 134.17 394.39 137.26 
M 395.94 140.34 399.13 146.73 
M 378.22 98.88 380.15 102.73 
M 384 110.44 390.17 122.77 
M 384.4 105.21 393.65 123.71 
M 394.42 125.25 397.51 131.41 
M 386.58 103.53 391.98 114.33 
M 392.75 115.87 395.83 122.03 
M 396.6 123.57 399.63 129.63 
M 389.22 102.77 399.63 123.6 
M 394.66 107.63 399.63 117.56 
M 232.58 291.39 230.69 297.7 
M 232.58 291.39 236.48 291.39 
M 231.68 294.39 234.08 294.39 
M 230.69 297.7 234.59 297.7 
M 241.58 291.39 239.69 297.7 
M 240.68 294.39 240.26 293.8 239.75 293.5 238.85 293.5 238.16 293.8 237.38 294.39 236.81 295.3 236.63 295.89 236.66 296.8 237.08 297.39 237.59 297.7 238.49 297.7 239.18 297.39 239.96 296.8 
M 242.51 295.3 246.11 295.3 246.29 294.7 246.17 294.1 245.45 293.5 244.55 293.5 243.86 293.8 243.08 294.39 242.51 295.3 242.33 295.89 242.36 296.8 242.78 297.39 243.29 297.7 244.19 297.7 244.88 297.39 245.66 296.8 
M 251.48 294.39 251.36 293.8 250.55 293.5 249.65 293.5 248.66 293.8 248.18 294.39 248.3 295 248.81 295.3 250.22 295.6 250.73 295.89 250.76 296.8 250.28 297.39 249.29 297.7 248.39 297.7 247.58 297.39 247.46 296.8 
M 256.85 293.5 255.95 296.5 255.98 297.39 256.49 297.7 257.39 297.7 258.08 297.39 259.25 296.5 
M 260.14 293.5 258.89 297.7 
M 266.48 291.39 264.59 297.7 
M 265.58 294.39 265.15 293.8 264.64 293.5 263.75 293.5 263.06 293.8 262.27 294.39 261.71 295.3 261.52 295.89 261.56 296.8 261.98 297.39 262.49 297.7 263.39 297.7 264.08 297.39 264.86 296.8 
M 267.41 295.3 271.01 295.3 271.19 294.7 271.07 294.1 270.35 293.5 269.45 293.5 268.76 293.8 267.98 294.39 267.41 295.3 267.23 295.89 267.26 296.8 267.68 297.39 268.19 297.7 269.08 297.7 269.77 297.39 270.56 296.8 
M 273.64 293.5 272.39 297.7 
M 273.11 295.3 273.68 294.39 274.45 293.8 275.14 293.5 276.05 293.5 
M 277.55 293.5 276.64 296.5 276.68 297.39 277.19 297.7 278.08 297.7 278.77 297.39 279.95 296.5 
M 280.85 293.5 279.58 297.7 
M 285.98 294.39 285.86 293.8 285.05 293.5 284.14 293.5 283.16 293.8 282.68 294.39 282.8 295 283.31 295.3 284.72 295.6 285.23 295.89 285.26 296.8 284.77 297.39 283.79 297.7 282.89 297.7 282.08 297.39 281.95 296.8 
M 287.57 297.1 287.18 297.39 287.39 297.7 287.77 297.39 287.57 297.1 
"/></svg>
