<svg xmlns="http://www.w3.org/2000/svg" width="520" height="320"><rect x="0" y="0" width="520" height="320" fill="floralwhite"/><rect x="10" y="10" width="500" height="300" stroke="black" stroke-width="1" fill="none"/><path stroke="black" stroke-width="1" fill="none" stroke-linecap="round" stroke-linejoin="round" d="
M 129.4 161.33 151.12 155.38 161.98 152.68 172.85 150.86 183.71 149.61 216.3 146.47 227.17 145.8 238.03 145.32 248.9 145.18 270.63 144.27 281.49 144.43 292.35 145.7 314.08 150.25 346.68 157.54 357.54 160.75 379.27 167.66 401.84 175.25 
M 401.84 212.09 390.13 215.17 368.41 220.14 357.54 222.78 335.81 227.6 324.95 229.88 314.08 231.59 303.22 233.65 292.35 236.3 281.49 238.49 270.63 240.43 259.76 241.91 248.9 242.41 238.03 242.32 216.3 240.71 205.44 240.16 194.57 239.1 183.71 237.71 172.85 235.89 140.2 229.75 
M 401.84 182.31 389.46 180.34 378.45 179.29 371.72 179.02 358.1 178.91 351.53 178.6 339.32 178.9 332.81 178.83 329.46 178.6 319.87 177.23 316.69 176.94 313.43 176.78 308.28 176.8 
M 301.02 177.14 288.77 178.24 285.41 178.71 276.75 180.46 
M 273.25 181.16 264.62 182.69 253.28 183.21 
M 243.4 183.7 234.81 184.44 227.94 184.81 224.6 184.78 216.65 184.25 
M 213.53 184.04 210.37 183.83 
M 203.91 183.62 194.28 183.91 
M 190.99 184.02 184.11 184.05 
M 180.47 183.96 169.2 183.85 
M 165.55 184.08 158.55 184.97 
M 145.5 217.77 147.24 220.76 
M 149.56 216.2 150.42 217.85 
M 154.25 224.9 155.84 227.71 
M 155.56 218.42 157.36 222.1 
M 141.57 181.88 146.12 188.61 
M 159.81 217.1 160.64 218.94 
M 130.32 161.08 132.5 163.63 
M 134.73 166.26 139.53 172.09 143.44 177.39 
M 148.6 184.77 151.01 188.54 
M 134.28 159.99 142.1 169.04 147.45 175.79 152.6 182.99 156.25 188.91 
M 171.28 220.01 172.99 224.01 
M 138.26 158.9 150.17 172.47 152.82 175.83 156.66 181.14 
M 142.32 157.79 152.91 169.32 158.25 175.78 163.3 182.87 167.2 189.23 
M 180.12 215.95 180.35 216.59 
M 181.89 220.78 183.42 224.68 
M 186.59 231.61 187.59 233.52 
M 146.52 156.64 155.74 166.35 161.08 172.45 166.34 179.22 168.88 182.88 172.46 188.5 
M 184.91 215.02 187.03 220.76 
M 150.84 155.46 159.99 164.97 
M 162.62 167.88 169.37 175.86 173.41 181.26 
M 175.91 184.92 178.82 189.57 
M 190.65 216.61 192.14 220.49 
M 196.88 231.69 198.1 234.22 
M 155.26 154.35 161.67 160.85 172.44 172.75 178.02 179.78 180.54 183.35 184.44 189.73 
M 194.76 213.89 195.73 216.49 
M 197.19 220.35 198.69 224.26 
M 159.7 153.25 172.71 166.59 178.37 173.11 183.78 180.06 186.13 183.5 189.76 189.89 
M 199.31 212.78 200.73 216.67 
M 164.18 152.31 173.09 160.82 178.62 166.69 181.41 169.95 186.77 176.73 189.2 180.07 192.38 185.21 
M 194.33 188.91 194.89 190.04 
M 205.58 217.21 206.9 221.2 
M 168.98 151.51 173.64 155.49 178.97 160.67 184.36 166.71 190.79 174.88 
M 193.17 178.12 196.42 183.21 199.86 190.18 
M 207.72 210.12 211.46 221.76 
M 174.05 150.72 179.51 155.24 183.39 159.13 
M 185.96 161.99 194.68 172.82 198.14 177.61 
M 200.3 181.16 201.35 183.04 204.37 189.52 
M 212.39 210.44 214.79 218.29 
M 216.14 222.18 217.76 225.94 
M 179.36 150.11 182.67 152.7 185.19 155.01 187.64 157.58 196.02 167.76 
M 198.44 170.72 201.98 175.39 204.18 179 206.33 183.13 209.54 190.47 
M 215.53 205.81 215.87 206.81 
M 184.56 149.53 188.18 152.51 190.51 154.88 192.75 157.5 197.3 163.1 204.65 171.75 207.03 175.19 208.14 177.17 
M 214.21 190.48 214.26 190.6 
M 220.22 205.2 223.49 214.74 
M 226.86 222.36 229.04 226.01 
M 189.6 149.09 191.03 150.25 193.26 152.42 199.79 160.16 207.3 168.45 209.82 171.71 212.09 175.5 213.13 177.64 
M 215.16 182.04 218.99 190.74 
M 224.44 202.96 228.19 212.75 229.89 216.66 233 222.4 
M 194.32 148.67 195.97 150.16 198.07 152.38 201.29 156.08 
M 203.59 158.65 208.65 163.96 
M 211.21 166.91 212.48 168.48 214.83 172.11 216.97 176.23 221 184.99 223.91 190.89 
M 231.31 206.7 232.99 210.62 
M 234.85 214.6 236.92 218.56 
M 243.78 228.98 246.2 231.88 
M 198.91 148.23 200.82 150.03 212.64 162.24 215.13 165.25 216.32 167 
M 218.63 170.73 226.03 185.34 229.17 191.04 
M 233.41 199.18 234.94 202.45 
M 244.87 222.06 247.13 225.44 
M 203.63 147.77 212.96 156.51 215.43 159.03 217.88 161.9 220.26 165.24 222.54 169.06 229.07 181.36 234.5 190.85 
M 237.58 196.59 238.35 198.2 
M 241.9 205.9 243.82 209.99 
M 245.87 214.09 249.17 219.9 250.34 221.62 
M 208.66 147.26 213.56 151.31 218.33 155.8 220.73 158.49 223.1 161.64 225.41 165.26 239.73 190.36 
M 243.4 197.72 245.1 201.54 
M 248.88 209.7 252.18 215.74 253.39 217.57 
M 258.34 224.44 260.84 227.68 
M 214.03 146.7 216.62 148.64 221.27 152.75 223.65 155.23 226 158.16 228.32 161.54 233.08 169.1 240.9 182.49 
M 242.94 186.21 244.85 189.91 
M 248.29 197.42 249.98 201.34 
M 251.85 205.41 255.07 211.51 258.78 217.11 
M 261.34 220.58 263.9 223.92 
M 219.73 146.26 221.98 147.99 224.26 150.01 226.57 152.35 228.91 155.05 233.85 161.53 236.36 165.14 238.77 168.84 242.1 174.46 
M 244.2 178.26 248.94 187.76 253.99 199.35 256.88 205.38 
M 259.13 209.31 261.61 213.07 
M 225.24 145.92 227.28 147.64 231.96 152.34 237.21 158.18 239.81 161.5 242.28 164.96 244.55 168.53 247.61 174.11 
M 249.51 177.98 253.01 185.78 
M 254.69 189.67 259.95 201.42 
M 262.06 205.29 263.19 207.2 267.03 212.68 
M 230.34 145.66 236.56 151.19 
M 239.29 153.83 243.37 158.23 245.88 161.44 248.16 164.8 251.14 170.18 
M 252.94 173.99 257.92 185.9 
M 259.62 189.81 261.39 193.67 
M 263.23 197.5 266.24 203.15 267.42 205 
M 272.4 212.31 277.38 219.25 
M 235.52 145.43 241.32 150.06 244.14 152.56 246.88 155.29 249.43 158.22 251.73 161.35 253.79 164.71 255.65 168.31 257.32 172.12 262.04 184.08 264.69 189.81 
M 266.6 193.54 268.55 197.24 
M 277.68 211.97 280.14 215.43 
M 240.98 145.28 244.65 147.89 247.48 150.14 250.23 152.6 252.79 155.26 255.17 158.18 257.34 161.37 259.27 164.81 260.11 166.64 
M 261.7 170.4 265.46 180.21 267.15 184.03 269 187.73 277.12 202.6 279.43 206.27 283.04 211.53 
M 288 218.04 292.83 223.68 
M 246.63 145.21 250.61 147.92 253.33 150.12 255.97 152.57 258.48 155.3 260.79 158.29 262.85 161.53 264.62 164.99 269.04 176.22 271.56 181.86 
M 275.37 189.24 279.43 196.77 
M 283.8 204.09 286.16 207.57 
M 293.39 217.06 295.7 219.86 
M 298.06 222.54 300.57 225.19 
M 252.16 145.05 256.3 147.89 259 150.16 261.61 152.69 264.07 155.45 266.29 158.44 268.22 161.66 269.87 165.05 275.13 177.74 
M 276.9 181.42 283.92 194.6 287.16 200.05 
M 291.75 206.87 294.05 210.04 
M 296.29 213.01 298.51 215.86 
M 300.78 218.66 303.24 221.49 
M 257.5 144.84 261.92 147.98 264.58 150.3 267.13 152.84 269.5 155.55 271.61 158.47 273.44 161.57 274.23 163.21 
M 275.74 166.57 279.51 175.4 282.24 180.89 
M 284.21 184.64 287.33 190.37 290.6 195.91 
M 292.77 199.45 296.02 204.53 299.24 209.06 
M 301.38 211.9 303.57 214.75 
M 262.69 144.63 264.75 146.01 267.41 148.09 269.98 150.38 272.44 152.84 274.72 155.44 276.71 158.27 278.42 161.34 282.96 171.36 285.6 176.68 
M 287.53 180.36 291.76 187.92 
M 293.95 191.68 299.17 200.64 301.25 203.85 308.83 214.07 
M 311.32 217.27 314.02 220.56 
M 267.78 144.4 270.14 146.02 272.69 148.05 275.15 150.26 277.47 152.65 279.58 155.27 281.43 158.12 283.86 162.73 
M 285.43 165.94 287.05 169.24 
M 288.79 172.66 291.68 178.03 297.23 187.4 
M 299.33 191.18 302.34 196.72 305.42 201.71 
M 307.51 204.73 309.68 207.65 
M 314.42 213.92 317 217.32 
M 273.04 144.31 275.27 145.87 277.67 147.87 279.94 150.11 282.06 152.55 284.03 155.19 286.68 159.5 
M 288.36 162.53 292.7 170.59 298.27 179.38 
M 300.57 183.09 302.68 186.9 
M 310.73 201.29 315.3 207.45 
M 317.75 210.73 322.81 217.62 
M 278.3 144.39 280.06 145.75 282.26 147.8 284.34 150.06 288.27 155.13 291 159.37 
M 292.8 162.34 297.82 170.21 302.76 177.02 305.11 180.68 306.13 182.6 
M 308.07 186.46 310.81 192.25 311.86 194.08 
M 314.05 197.6 321.24 207.48 
M 328.51 217.78 330.7 220.86 
M 283.21 144.64 286.57 147.79 288.54 150.03 293.44 156.41 
M 295.4 159.22 298.47 163.62 301.99 168.22 
M 307.12 174.79 308.39 176.53 310.59 180.24 311.53 182.17 
M 313.38 186.07 315.31 189.91 
M 319.91 197.04 324.83 203.93 
M 327.23 207.53 331.8 214.45 
M 288.17 145.21 292.72 149.95 301.14 160.48 308.66 169.36 311.28 172.62 313.7 176.15 314.74 178.04 
M 316.77 181.87 318.8 185.72 
M 321.01 189.42 328.42 200.07 
M 330.75 203.75 332.97 207.41 
M 335.1 210.86 337.2 213.98 
M 293.19 145.87 297.02 149.86 306.08 160.27 311.25 165.95 313.84 169.01 316.35 172.38 317.52 174.22 
M 319.78 177.95 321.98 181.74 
M 326.83 188.98 330.67 194.26 333.07 197.95 340.46 210.28 
M 298.75 147.02 303.78 152.17 313.68 162.74 316.23 165.68 318.71 168.93 327.21 181.71 
M 329.83 185.23 332.5 188.71 
M 335.06 192.28 337.42 195.99 
M 339.62 199.71 341.7 203.28 
M 343.72 206.54 345.71 209.5 
M 347.7 212.29 349.66 215 
M 304.71 148.26 313.52 157 318.52 162.43 320.95 165.57 328.36 176.4 337.89 188.63 
M 340.37 192.29 345.85 201.36 350.92 208.75 
M 311.32 149.67 315.91 153.99 320.79 159.12 323.19 162.15 330.63 172.85 337.61 181.52 
M 345.41 192.35 347.68 196.02 
M 349.85 199.42 351.98 202.5 
M 354.07 205.36 356.14 208.15 
M 318.59 151.27 323.08 155.77 325.46 158.67 329.07 163.73 
M 331.59 167.33 335.56 172.67 343.84 182.93 347.84 188.53 
M 352.66 195.8 354.9 199 
M 361.39 207.56 363.51 210.47 
M 325.62 152.85 328.93 156.84 
M 331.34 160.1 337.55 168.77 348.54 182.53 357.65 195.2 
M 366.63 206.97 370.94 213.05 
M 331.57 154.12 339.47 164.84 343.27 169.74 
M 346 173.03 348.87 176.49 
M 351.82 180.18 364.88 197.12 
M 367.23 200.13 369.57 203.24 
M 371.85 206.43 374.02 209.63 
M 337.09 155.32 346.33 167.43 359.7 183.23 
M 362.45 186.62 364.98 189.8 
M 367.41 192.89 374.74 202.64 
M 379.32 209.37 382.68 214.42 
M 342.6 156.6 350.89 166.91 360.31 177.25 366.1 183.94 371.09 190.2 377.52 198.73 
M 348.54 158.09 352.9 163.24 360.79 171.57 
M 364.05 174.97 368.5 179.89 372.34 184.59 
M 374.88 187.84 381.75 196.63 385.71 202.12 
M 388.12 205.74 391.88 211.76 
M 355.42 160.12 367.9 172.8 370.9 176.06 374.88 180.8 
M 377.53 184.05 380.34 187.46 
M 383.27 191.02 388.89 198.39 
M 363.5 162.64 369.93 168.94 377.4 177.08 
M 380.24 180.35 389.19 190.97 
M 392 194.68 394.54 198.4 
M 372.02 165.35 381.28 174.91 388.98 183.66 
M 392.04 187.33 394.91 191 
M 397.5 194.7 399.84 198.43 
M 380.66 168.12 386.71 174.47 391.5 179.91 
M 394.59 183.64 398.91 189.19 401.84 193.45 
M 389.2 170.98 395.32 177.97 399.86 183.69 
M 396.79 173.54 401.84 179.78 
M 132.97 160.35 131.17 162.65 
M 139.92 158.45 136.18 162.85 134.24 165.49 
M 147.66 156.33 143.65 160.39 141.38 163.07 136.61 169.64 
M 155.9 154.19 151.73 157.99 149.19 160.58 144.53 166.11 141.32 170.59 
M 139.18 173.75 138.94 174.11 
M 163.7 152.39 157.45 158.12 152.36 163.42 147.74 169.24 141.03 179.12 
M 170.7 151.22 165.64 155.68 160.52 160.83 155.56 166.34 152.06 170.9 
M 149.79 174.15 141.83 186.49 
M 177.43 150.33 171.41 155.57 166.09 160.89 161.12 166.4 158.72 169.34 155.21 174.15 
M 150.58 181.15 148.33 184.75 
M 146.09 188.31 145.9 188.61 
M 183.82 149.6 180 152.82 177.29 155.34 171.88 160.84 166.69 166.47 161.85 172.45 155.91 181.14 
M 153.53 184.84 151.05 188.76 
M 189.65 149.08 185.66 152.59 180.42 157.82 168.68 171.02 
M 166.2 174.13 162.55 179.22 156.08 188.9 
M 195.1 148.59 190.95 152.45 186.06 157.62 174.56 171.28 
M 171.98 174.36 166.8 181.05 
M 164.16 184.75 161.16 189.05 
M 200.39 148.08 198.14 150.11 193.58 154.86 188.97 160.4 185.39 165.1 
M 182.94 168.34 171.19 182.95 166.43 189.21 
M 205.77 147.56 203.05 149.94 200.65 152.32 196.16 157.48 191.82 163.34 184.92 173.35 182.46 176.64 175.59 184.94 
M 172.64 188.53 171.96 189.37 
M 211.25 146.99 205.7 152.09 200.96 157.41 196.72 163.13 187.98 176.71 185.52 180.09 181.36 185.13 
M 178.39 188.59 177.59 189.53 
M 216.51 146.45 213.65 149.03 211.05 151.62 206.03 157.17 203.73 160 199.53 165.92 194.28 174.56 
M 192 178.19 190.83 180 186.86 185.21 
M 221.5 146.15 219.03 148.32 213.88 153.74 206.7 162.6 202.44 168.71 195.87 179.6 193.42 183.35 188.4 189.85 
M 226.77 145.82 224.37 147.78 221.79 150.24 219.25 153 214.33 159.15 208.68 166.9 
M 204.24 173.51 198.39 183.12 194.47 188.85 
M 172.78 216.38 169.78 219.84 
M 232.46 145.57 229.64 147.63 227.08 149.87 224.57 152.45 222.1 155.37 217.25 161.94 211.64 170.11 
M 209.36 173.48 206.98 177.1 
M 204.54 181.02 202.08 185.08 
M 199.52 189.1 198.81 190.15 
M 179.05 215.71 178.43 216.47 
M 175.19 220.34 171.98 223.89 
M 168.87 227.06 166.43 229.44 
M 238.8 145.31 235.27 147.7 232.5 149.89 229.85 152.32 227.38 155.05 224.92 158.2 222.47 161.66 212.01 177.48 
M 209.58 181.29 204.52 189.49 
M 185.01 214.97 183.64 216.73 
M 245.03 145.23 238.45 150 235.6 152.4 232.84 155.08 230.2 158.13 227.7 161.55 224.02 167.16 
M 221.62 170.93 219.25 174.6 
M 214.47 181.95 209.49 190.01 
M 191.39 213.35 188.78 216.71 
M 185.6 220.81 180.85 226.5 176.54 230.89 
M 251.06 145.1 244.63 150.11 238.86 155.18 235.96 158.17 233.17 161.53 230.5 165.25 214.3 190.61 
M 190.72 220.58 187.56 224.56 
M 256.99 144.86 253.17 147.89 245.08 155.27 242.09 158.22 239.09 161.5 234.77 167.12 
M 232.04 171.15 224.23 183.26 
M 204.89 209.9 198.91 216.58 
M 263 144.61 258.83 147.92 256.37 150.12 251.11 155.28 245.16 161.44 242.08 164.97 239.07 168.82 232.08 179.23 
M 226.81 187.3 224.38 190.9 
M 209.88 210.2 203.83 217 
M 200.78 220.53 197.72 224.23 
M 268.8 144.36 262 150.23 254 158.18 247.97 164.8 244.86 168.52 240.37 174.61 
M 234.77 183.04 229.47 191.05 
M 219.05 205.21 214.59 210.57 
M 199.71 228.15 196.77 231.67 
M 273.88 144.32 265.06 152.79 255.14 163.03 
M 252.05 166.51 247.41 172.17 244.41 176.26 234.66 190.84 
M 225.94 202.95 222.72 206.9 
M 278.56 144.39 277.8 145.1 
M 276.01 146.89 259.09 164.8 252.82 172.04 246.87 180.07 239.24 191.33 
M 233.83 199.16 227.95 206.84 
M 221.12 214.72 216.26 220.32 211.99 225.59 
M 209.32 229.01 206.68 232.36 
M 282.92 144.6 279.77 147.82 273.22 155.5 262.83 166.74 
M 253.5 177.94 247.78 185.88 
M 245.01 189.9 243.94 191.47 
M 242.97 192.89 234.91 204.43 231.67 208.66 219.73 222.31 
M 214.12 229.36 211.59 232.68 
M 286.85 145.06 284.21 147.79 275.69 158.32 263.17 172.35 260.02 176.15 254.14 183.86 248.58 191.61 
M 248.5 191.71 241.55 201.82 
M 238.61 206.13 235.5 210.46 
M 228.67 218.58 225.21 222.35 
M 222 225.98 219.17 229.51 
M 290.63 145.5 288.45 147.79 286.6 150.04 282.76 155.2 277.85 161.37 266.68 174.34 
M 263.53 178.23 257.64 185.9 
M 254.83 189.68 249.27 197.39 
M 246.51 201.46 239.52 212.36 236.37 216.59 234.68 218.57 
M 227.85 226.02 224.72 229.51 
M 294.22 146.09 290.76 149.99 284.94 158.04 281.16 162.88 
M 275.11 170.22 267.07 180.18 254.14 197.41 
M 251.39 201.34 248.73 205.5 
M 246.14 209.85 242.1 216.41 240.59 218.45 
M 297.76 146.82 295 149.9 287 161.01 283.08 166.12 
M 280.15 169.83 264.84 189.81 
M 259.12 197.51 254.98 203.37 248.67 213.93 
M 243.28 222.17 240.27 225.87 
M 301.4 147.57 297.45 152.29 292.44 159.33 
M 290.2 162.46 282.17 173.29 
M 279.16 177.35 264.28 197.47 
M 261.44 201.42 260.05 203.39 256.31 209.45 
M 253.88 213.61 250.13 219.82 248.78 221.76 
M 305.22 148.37 302 152.21 300.01 154.87 276.99 187.19 268.16 199.17 264.04 205.22 
M 261.55 209.23 259.17 213.27 
M 254.27 221.26 251.64 225.05 
M 309.1 149.2 306.74 152.07 302.67 157.56 293.39 170.54 289.49 176.33 
M 286.74 180.43 278.01 192.95 
M 275.06 196.94 272.17 200.89 
M 269.46 204.88 266.95 208.88 
M 262.21 216.83 257.25 224.53 
M 251.86 231.52 249.09 234.61 
M 313.02 150.03 307.54 157.37 297.27 172.03 
M 294.66 175.9 284.97 190.57 277.63 200.68 
M 274.88 204.61 272.36 208.54 
M 316.78 150.86 298.85 177.39 290.5 190.06 280.34 204.34 
M 277.73 208.25 273.02 215.99 
M 320.45 151.69 304.54 176.86 293.17 193.73 285.91 203.91 
M 283.17 207.87 280.62 211.76 
M 268.71 230.41 266.1 233.89 
M 324.13 152.52 311.28 174.47 
M 308.71 178.44 299.97 191.12 
M 297.15 195.26 291.54 203.3 
M 288.76 207.28 286.07 211.23 
M 281.12 218.9 278.79 222.6 
M 327.98 153.35 323.97 160.44 
M 322.12 163.87 317.45 172.38 315.29 176.08 312.69 180.09 296.94 202.66 
M 294.26 206.55 289.03 214.41 
M 286.48 218.27 284 221.98 
M 331.96 154.2 329.56 158.42 320.21 176.08 315.03 183.96 302.17 202.06 
M 299.51 205.76 295.66 211.47 291.93 217.38 
M 335.85 155.03 326.88 172.77 325.01 176.27 321.61 181.79 
M 318.89 185.75 315.92 189.88 
M 312.95 194 308.75 199.79 302.06 208.59 
M 299.54 212.32 292.26 223.78 
M 289.72 227.22 287.14 230.45 
M 339.6 155.9 332.66 170.98 
M 330.84 174.64 328.94 178.18 
M 326.84 181.75 323.09 187.38 315.7 197.44 
M 309.98 204.53 307.26 207.86 
M 343.29 156.76 341.25 161.09 336.63 172.57 334.98 176.33 333.14 179.92 328.78 187.05 321.65 196.85 
M 318.61 200.67 312.71 207.48 
M 307.34 214.21 304.91 217.86 
M 347.01 157.64 344.02 164.2 339.76 175.87 338.2 179.69 336.4 183.33 334.32 186.88 329.18 194.35 326.2 198.32 321.58 203.96 
M 318.54 207.4 315.61 210.65 
M 350.78 158.75 348.45 163.65 346.95 167.34 342.93 179.2 341.38 183.1 340.47 184.95 
M 336.14 192.27 332.11 197.98 326.08 205.71 315.92 217.29 
M 354.72 159.91 351.56 166.85 350.13 170.58 346.13 182.75 344.49 186.7 342.54 190.46 338.95 196 
M 319.08 220.7 316.68 223.84 
M 358.91 161.18 355.02 170.16 353.57 174 351.53 180.2 
M 350.07 184.41 349.29 186.5 347.47 190.47 345.32 194.22 342.89 197.87 338.84 203.48 
M 335.99 207.28 330.28 214.51 
M 327.46 217.79 324.69 220.93 
M 363.32 162.58 358.74 173.57 354.13 186.11 352.35 190.27 350.26 194.17 346.68 199.6 
M 341.34 206.85 332.94 217.61 
M 367.81 164.01 365.82 169.34 362.43 177.02 358.15 187.55 
M 356.25 191.75 355.23 193.8 352.95 197.56 349.21 202.78 
M 346.56 206.26 343.8 209.83 
M 372.23 165.42 371.09 168.81 369.56 172.64 366.81 178.36 
M 364.92 182.35 361.13 190.8 
M 354.33 202.27 346.25 212.55 
M 343.45 216.09 340.62 219.56 
M 376.65 166.82 374.66 172.05 372.93 175.82 368.95 183.38 365.96 189.56 
M 363.93 193.77 360.64 199.75 359.42 201.54 
M 356.89 205.02 354.22 208.36 
M 348.65 215.16 345.79 218.56 
M 381.11 168.27 378.07 175.24 372.92 184.52 
M 370.85 188.44 365.64 198.69 363.32 202.51 362.06 204.29 
M 359.46 207.76 356.73 211.14 
M 385.61 169.78 383.44 174.72 381.46 178.48 374.85 189.65 370.67 197.68 368.43 201.65 364.7 207.15 
M 390.17 171.3 387.05 178.16 383.81 183.73 
M 379.17 191.17 374.68 198.97 
M 369.94 206.59 367.31 210.12 
M 394.77 172.86 392.58 177.99 390.7 181.79 388.55 185.49 382.52 194.75 
M 380.07 198.57 375.16 206.14 
M 399.36 174.41 397.01 179.87 
M 395.21 183.63 392.09 189.15 385.79 198.41 
M 383.17 202.16 380.52 205.85 
M 401.84 180.78 400.45 183.7 
M 396.48 191.01 392.89 196.54 388.85 202.1 
M 386.09 205.75 383.28 209.28 
M 380.5 212.67 378.71 214.86 
M 401.84 190.88 401.71 191.1 
M 399.47 194.72 397.03 198.41 
M 394.41 202.1 388.84 209.28 
M 401.84 199.04 399.68 202.13 
M 401.84 206.26 398.19 211.09 
M 215.03 145.64 291.48 30 292.19 30.46 218.18 146.35 
M 227.65 144.94 284.99 50.67 285.71 51.1 230.76 145.64 
M 240.29 144.54 282.11 70.68 282.85 71.09 243.36 145.25 
M 252.92 144.31 280.82 88.66 281.58 89.03 255.99 144.9 
M 265.56 143.84 283.33 105.29 284.11 105.62 268.62 144.36 
M 278.24 143.78 289.77 121.05 290.54 121.4 281.26 144.43 
M 290.88 144.99 297.06 135.44 297.81 135.83 293.75 145.99 
M 301.87 147.25 303.22 147.95 
M 284.73 42.14 282.47 45.81 281.5 47.7 280.7 49.63 280.1 51.63 279.43 55.79 279.25 60.1 
M 280.17 60.64 278.59 64.37 277.52 68.17 277.27 70.11 277.22 72.07 277.35 74.05 277.93 78.07 
M 278.86 78.58 277.59 82 276.83 85.44 276.73 87.18 276.84 88.93 277.13 90.69 278.03 94.23 
M 278.99 94.69 278.49 98.09 278.49 101.4 278.77 103.01 279.26 104.58 279.91 106.12 281.55 109.14 
M 282.53 109.56 282.89 113.06 283.71 116.35 284.39 117.88 285.25 119.33 286.27 120.7 288.62 123.32 
M 289.58 123.76 290.15 127.09 291.17 130.17 291.93 131.57 292.87 132.88 293.96 134.11 296.44 136.4 
M 297.39 136.89 297.6 139.77 298.28 142.43 298.87 143.64 299.65 144.75 300.58 145.78 302.75 147.71 
M 283.57 43.97 281.5 47.7 280.7 49.63 280.1 51.63 279.68 53.68 279.31 57.93 
M 280.29 49.47 278.33 53 277.58 54.83 276.61 58.66 276.26 62.68 
M 277.01 54.96 275.16 58.29 274.45 60.02 273.54 63.64 273.21 67.43 
M 273.72 60.46 271.99 63.59 270.81 66.89 270.46 68.61 270.15 72.17 
M 270.44 65.96 268.82 68.89 267.72 71.98 267.39 73.59 267.1 76.92 
M 267.16 71.46 265.65 74.19 264.62 77.06 264.32 78.56 264.05 81.67 
M 263.88 76.96 262.48 79.49 261.94 80.8 261.25 83.54 261 86.42 
M 260.6 82.46 258.81 85.99 258.18 88.51 257.95 91.16 
M 257.32 87.96 256.14 90.08 255.34 92.32 254.89 95.91 
M 254.04 93.46 252.56 96.38 252.03 98.47 251.84 100.66 
M 250.76 98.96 249.43 101.57 248.96 103.44 248.79 105.4 
M 247.47 104.46 246.31 106.77 245.89 108.42 245.74 110.15 
M 244.19 109.96 243.18 111.96 242.82 113.39 242.69 114.9 
M 279.35 62.5 277.97 66.26 277.52 68.17 277.27 70.11 277.22 72.07 277.6 76.06 
M 276.26 68.31 274.98 71.81 274.56 73.59 274.29 77.21 274.64 80.92 
M 273.18 74.12 271.99 77.36 271.61 79 271.35 82.35 271.68 85.78 
M 270.09 79.93 269.01 82.9 268.65 84.41 268.42 87.49 268.72 90.64 
M 267.01 85.74 266.02 88.45 265.52 91.22 265.48 92.63 265.75 95.5 
M 263.93 91.55 263.03 93.99 262.74 95.24 262.54 97.77 262.79 100.36 
M 260.84 97.36 259.78 100.65 259.61 102.91 259.83 105.22 
M 257.76 103.17 256.83 106.06 256.67 108.05 256.87 110.08 
M 254.67 108.98 254.07 110.63 253.76 112.33 253.91 114.94 
M 251.59 114.79 250.91 116.89 250.8 118.33 250.94 119.8 
M 278.19 80.29 277.12 83.72 276.83 85.44 276.73 87.18 276.84 88.93 277.54 92.46 
M 275.17 86.77 274.2 89.86 273.94 91.41 273.95 94.55 274.58 97.72 
M 272.14 93.25 271.29 96 271.05 97.38 271.06 100.17 271.62 102.99 
M 269.12 99.74 268.37 102.14 268.1 104.57 268.18 105.79 268.67 108.26 
M 266.1 106.22 265.45 108.28 265.22 110.36 265.71 113.52 
M 263.07 112.7 262.54 114.42 262.34 116.15 262.75 118.79 
M 260.05 119.19 259.5 121.25 259.51 122.65 259.79 124.06 
M 278.7 96.39 278.4 99.76 278.49 101.4 278.77 103.01 279.26 104.58 280.7 107.64 
M 276.17 103.16 275.91 106.05 275.99 107.46 276.65 110.2 277.89 112.83 
M 273.64 109.92 273.42 112.34 273.49 113.53 274.04 115.81 275.08 118.01 
M 271.11 116.68 270.98 119.59 271.43 121.43 272.27 123.2 
M 268.58 123.45 268.48 125.65 268.82 127.05 269.46 128.39 
M 282.68 111.32 283.22 114.74 283.71 116.35 284.39 117.88 285.25 119.33 287.41 122.03 
M 280.49 119.05 280.9 121.67 281.28 122.9 282.46 125.18 284.12 127.25 
M 278.3 126.77 278.85 129.45 279.67 131.04 280.82 132.48 
M 289.84 125.44 290.58 128.67 291.17 130.17 291.93 131.57 292.87 132.88 295.17 135.27 
M 141.93 186.98 261.41 190.97 261.39 191.81 142.27 189.99 
M 142.25 190.46 246.82 198.87 246.76 199.72 142.31 193.47 
M 142.37 193.94 232.09 205.45 231.99 206.29 143.04 197.02 
M 143.27 197.57 217.32 210.7 217.18 211.54 144.47 200.74 
M 144.67 201.41 202.6 214.63 202.43 215.46 145.47 204.51 
M 145.62 205.27 188.03 217.25 187.81 218.06 145.69 208.18 
M 145.58 208.94 173.68 218.56 173.43 219.37 145.42 211.71 
M 145.47 212.64 159.65 218.6 159.36 219.4 145.53 215.26 
M 145.51 217.05 146.02 217.38 145.7 218.16 145.47 218.11 
M 249.28 191.63 245.89 192.07 242.72 192.97 241.27 193.68 239.9 194.57 238.61 195.62 236.17 198.02 
M 236.1 199.08 232.77 199.22 229.63 199.84 228.17 200.42 226.78 201.18 225.45 202.11 222.92 204.28 
M 222.8 205.33 219.56 205.18 217.99 205.27 216.47 205.52 215 205.97 212.25 207.41 209.64 209.34 
M 209.47 210.39 206.33 209.96 203.31 210.02 201.86 210.33 200.45 210.84 199.07 211.53 196.4 213.21 
M 196.18 214.26 193.18 213.55 190.24 213.34 188.81 213.52 187.4 213.91 186.01 214.46 183.29 215.91 
M 183.02 216.94 180.17 215.96 177.34 215.5 175.93 215.55 174.54 215.81 173.15 216.24 170.38 217.43 
M 170.07 218.45 167.39 217.22 164.68 216.5 163.31 216.43 161.94 216.56 160.55 216.87 157.76 217.81 
M 157.4 218.81 154.91 217.34 152.35 216.38 151.03 216.18 149.68 216.19 148.3 216.36 145.51 217.04 
M 247.57 191.82 244.27 192.44 242.72 192.97 241.27 193.68 239.9 194.57 237.37 196.79 
M 222.53 191.42 220 191.9 218.81 192.31 216.65 193.53 214.71 195.23 
M 197.49 191.03 194.9 191.65 193.4 192.5 192.05 193.68 
M 234.42 199.12 231.17 199.45 229.63 199.84 228.17 200.42 226.78 201.18 224.17 203.16 
M 212.45 197.81 209.95 198.06 208.78 198.36 206.59 199.39 204.59 200.91 
M 190.48 196.5 187.92 196.89 186.4 197.6 185.01 198.66 
M 221.17 205.23 217.99 205.27 216.47 205.52 215 205.97 213.6 206.6 210.93 208.34 
M 192.85 202.31 190.78 202.34 189.79 202.5 187.93 203.2 186.19 204.33 
M 207.89 210.14 204.8 209.9 203.31 210.02 201.86 210.33 200.45 210.84 197.73 212.34 
M 184.22 206.69 182.21 206.53 181.24 206.61 179.38 207.14 177.61 208.11 
M 194.67 213.87 191.7 213.36 190.24 213.34 188.81 213.52 187.4 213.91 184.65 215.15 
M 181.59 216.42 178.75 215.64 177.34 215.5 175.93 215.55 174.54 215.81 171.76 216.8 
M 206.59 239.16 210.88 245.77 210.24 246.33 204.29 241.16 
M 194.09 238.02 215.03 270.6 214.33 271.08 191.57 239.74 
M 181.64 236.46 191.67 259.12 190.91 259.5 178.91 237.81 
M 163.41 233.24 164.98 240.96 164.19 241.24 160.55 234.26 
M 209.64 245.81 209.3 250.76 209.46 255.63 209.83 258.03 210.39 260.39 211.13 262.72 212.93 267.35 
M 212.05 267.95 207.8 264.52 203.31 261.54 200.94 260.31 198.47 259.26 195.92 258.36 190.67 256.86 
M 189.71 257.33 184.8 252.63 182.25 250.41 179.6 248.34 176.83 246.44 170.97 243.11 164.83 240.19 
M 209.94 266.2 205.6 262.95 203.31 261.54 200.94 260.31 198.47 259.26 193.31 257.58 
M 201.76 256.33 198.93 254.22 197.45 253.3 194.3 251.82 190.94 250.73 
M 346.68 225.19 354.19 234.35 356.3 236.47 351.81 238.04 344.91 241.63 342.14 241.78 339.41 241.54 337.31 242.53 336.14 244.91 334.6 246.95 332.91 248.47 331.74 250.57 329.7 252.11 327.99 253.98 326.72 256.29 321.93 258.62 321.04 261.24 318.91 265.98 318.15 268.67 315.29 272.83 313.5 274.54 312.53 275.72 313.26 280 311.83 279.34 310.43 276.32 308.36 274.25 307.34 271.43 305.46 269.4 302.69 264.63 300.84 262.69 299.66 259.72 298.38 257.37 296.58 255.88 295.03 253.81 289.88 248.95 287.85 246.6 285.86 243.71 281.49 238.49 
M 342.55 226.1 345.84 230.58 347.07 232.98 
M 338.43 227.02 344.43 235.09 345.83 237.29 
M 334.3 227.92 338.02 232.76 339.84 236.19 341.72 238.79 
M 330.17 228.78 332.99 232.17 334.42 234.67 336.28 236.84 338.42 240.26 
M 326.03 229.65 330.62 235.3 
M 321.87 230.36 328.67 239.29 330.18 241.98 333.19 244.35 
M 317.69 231.02 319.8 234.72 324.59 240.31 326.67 243.58 329.45 245.98 
M 313.52 231.7 315.95 234.94 317.3 237.03 319.63 239.62 324.81 245.96 327.12 249.48 
M 309.37 232.48 312.26 235.37 315.72 240.37 319.63 245.29 323.38 251.18 
M 305.22 233.27 310.35 238.96 313.39 243.89 315.48 246.12 316.8 248.71 
M 301.09 234.17 306.02 239.6 307.62 242.7 309.59 245.47 313.63 249.53 315.01 251.76 316.28 254.32 317.9 257.06 319.85 259.55 
M 296.99 235.17 299.98 238.51 303.77 243.23 305.76 246.22 308.04 248.55 308.61 250.68 310.45 253.14 313.22 255.43 
M 292.89 236.17 295.46 238.96 299.16 244.64 300.49 247.06 304.46 251.3 306.49 252.82 309.16 255.36 
M 288.75 237.03 291.51 240.01 293.16 242.87 295.27 245.5 299.48 251.55 301.83 252.28 304.51 254.33 306.64 257.74 
M 284.61 237.86 287.18 240.74 291.08 246.21 294.62 250.39 295.9 251.67 299.77 254.92 303.35 259.25 
M 401 174.96 403.57 174.21 412.35 169.65 414.84 168.1 417.06 166.4 418.93 165.21 421.05 164.26 425.56 160.34 427.81 159.39 430.41 157.8 433.13 156.5 436.35 156.54 438.58 155.59 439.83 154.32 444.14 151.58 448.96 148.16 455.68 144.52 458.3 140.48 464.13 137.36 466.4 136.49 472.44 131.16 475.95 131.12 480.07 129.11 471.42 141.53 470.62 144.11 469.14 146 468.46 148.69 468.76 152.4 467.08 154.13 465.2 155.67 463.84 157.72 461.7 159.01 459.88 160.75 457.6 162.01 456.02 163.96 454.91 166.39 449.02 174.68 446.74 175.93 444.69 177.42 443.15 179.42 439.7 183.08 438.17 185.08 438.02 188.03 436.52 193.3 434.96 195.34 434.56 198.25 434.48 200.95 433.52 203.01 433.98 205.9 434.52 207.61 434.28 209.05 436.07 214.27 437.23 217.1 439.56 221.26 440.39 223.51 440.15 224.68 440.64 226.63 442.41 229.93 443.38 232.64 443.76 235.15 443.86 237.38 444.75 239.79 444.34 245.25 442.51 243.78 439.97 242.37 436.93 240.29 435.42 238.67 433.09 237.07 431.25 234.38 429.96 231.92 427.78 230.07 421.88 227.44 420.23 226.22 418.15 224.33 415.28 222.91 412.67 221.85 410.49 220.64 408.61 218.59 406.4 216.52 401 212.31 
M 401 176.83 403.69 176.51 408.2 174.18 410.62 173.18 412.99 172.42 415.41 171.27 420.31 168.33 422.88 167.24 428.5 162.32 430.97 161.57 433.68 159.85 439.11 158.56 441.21 158.37 443.14 156.88 448.17 154.03 450.98 153.22 453.51 152.2 456.11 150.36 458.57 149.33 461.01 147.61 463.27 145.67 464.58 144.75 465.48 143.74 467.2 143.91 
M 408.44 176.52 413.3 174.8 419.2 173.05 421.02 171.77 423.59 170.6 425.67 168.98 430.08 166.28 432.46 165.1 434.37 163.9 436.73 162.91 440.32 162.55 
M 409.03 178.52 411.68 177.91 414.65 176.72 422.27 174.97 424.78 174.05 427.09 172.97 430.29 170.5 433.25 169.48 
M 401 182.43 404.11 182.43 406.81 182.11 409.03 181.43 411.96 180.25 421.32 177.7 423.06 177.93 425.79 177.56 428.61 176.74 430.46 175.49 432.37 175.02 434.26 173.97 439.37 172.33 442.2 170.95 445.2 169.17 447.22 169.55 449.68 167.39 
M 404.58 184.35 407.09 184.41 409.6 184.23 412.19 183.63 415.22 182.47 419.12 181.77 421.84 180.94 423.72 181.19 426.2 180.91 428.71 180.37 433.25 178.68 
M 409.59 186.7 412.67 186.03 415.45 185.82 418.85 185.2 423.98 184.96 429.14 183.32 431.38 183.56 433.61 182.53 436.69 180.38 439.65 179.49 442.15 179.26 
M 401 188.03 407.41 188.78 409.63 189.25 412.89 188.97 415.58 188.24 418.25 188.44 421.15 188.17 423.94 188.5 426.76 187.63 
M 409.95 191.33 413.09 190.79 419.26 191.08 424.29 191.71 427.35 191.42 429.65 191 433.45 191.68 
M 410.74 193.22 416.64 192.7 419.25 193.25 421.85 193.59 
M 410.97 195.56 414.15 195.75 416.84 195.63 
M 401 195.5 404.64 196.7 410.93 197.86 416.85 198.58 
M 404.82 198.72 410.06 200.28 413.72 200.94 419.91 201.26 423 202.07 425.27 202.94 428.63 203.28 
M 409.6 201.96 412.7 202.45 416.17 203.29 420.16 205.08 423.25 205.75 426.06 205.15 428.58 207.47 
M 404.94 202.71 407.45 203.1 412.17 204.88 415.5 205.87 
M 401 202.97 406.97 205.66 409.37 206.46 415.58 209.15 418.86 209.76 421.8 210.77 
M 409.58 209.14 415.16 211.83 418.45 213.11 421.38 214.1 423.56 214.41 427.11 216.77 432.74 218.13 435.21 220.09 437.54 220.75 
M 407.36 210.35 410.4 211.94 412.67 213.4 415 214.47 418.04 215.2 422.98 217.2 
M 401 208.57 407.06 212.61 410.27 214.12 412.41 215.71 419.69 218.08 421.9 219.53 423.5 221.28 426.54 222.09 429.07 223.04 431.49 225.29 
M 409.33 216.19 413.73 218.9 418.51 221.3 425.08 225.04 428.24 226.3 430.87 227.66 437.83 234.26 439.45 235.46 441.7 236.59 
M 68.34 170.79 72.68 169.87 78.96 169.02 87.08 168.62 91.38 168.23 104.78 165.57 113.98 163.42 118.26 162.74 129.4 161.34 133.5 164.37 135.69 167.72 140.79 177.98 141.56 181.55 141.58 185.24 142.31 188.82 142.18 192.53 142.67 196.15 144.12 199.61 145.2 203.13 145.89 206.72 145.36 210.49 145.55 214.16 145.5 217.86 145.02 221.63 144.24 225.44 140.2 229.72 130.62 229.19 123.54 228.03 117.1 226.21 111.55 224.12 106.65 221.91 101.82 219.5 97.49 216.83 93.29 213.54 88.82 209.42 
M 85.72 205.74 77.94 195.8 74.91 191.56 72.53 186.97 69.93 180.71 
M 123.73 176.96 124.24 180.05 123.7 183.11 123.48 185.89 123.98 188.34 124.3 192.97 123.75 195.4 125.95 206.25 124.1 210.07 117.72 210.3 113 210.2 108.41 209.62 104.2 208.72 100.25 207.49 96.16 205.8 92.44 203.6 
M 87.84 208.76 83.72 202.92 81.55 199.37 79.04 195.83 73.72 186.28 67.91 177.54 65.53 174.3 65.03 172.39 66.17 170.78 68.16 170.61 69.62 172.05 71.76 175.41 77.72 186.39 80.27 192.71 83.43 198.35 85.19 202 89.16 209.23 
M 88.7 209.81 84.55 209.1 74.04 206.78 63.75 204.79 59.74 203.82 53.82 202.1 45.27 200.81 41.09 199.77 39.92 197.93 40.37 195.67 42.35 194.56 44.49 195.07 48.65 196.54 54.78 198.21 62.54 201.21 84.86 207.95 88.91 209.05 
M 96.61 186.2 94.72 183.54 93.78 180.41 93.92 177.14 95.11 174.1 97.22 171.61 100.02 169.94 103.22 169.27 106.46 169.67 109.4 171.1 111.71 173.41 113.14 176.35 113.55 179.59 112.88 182.79 111.2 185.59 108.71 187.7 105.67 188.89 102.4 189.03 99.27 188.09 96.61 186.2 
M 110.09 174.57 111.24 176.91 111.56 179.51 111.03 182.06 109.69 184.31 107.69 186 105.26 186.95 102.65 187.06 100.14 186.31 98.02 184.79 
M 100.19 181.35 99.43 180.29 99.06 179.04 99.11 177.73 99.59 176.51 100.43 175.52 101.55 174.85 102.83 174.58 104.13 174.74 105.3 175.32 106.23 176.24 106.8 177.41 106.96 178.71 106.7 179.99 106.03 181.11 105.03 181.96 103.81 182.43 102.51 182.48 101.25 182.11 100.19 181.35 
M 100.15 181.3 100.25 181.4 
M 99.93 178.79 103.58 182.44 
M 102.14 178.72 105.22 181.8 
M 103.16 177.46 106.32 180.62 
M 103.36 175.38 106.92 178.93 
M 76.51 193.8 79.93 197.22 
M 70.91 183.13 73.01 185.23 
M 68.64 170.72 73.61 175.69 
M 72.84 169.85 77.24 174.26 
M 77.27 169.21 79.9 171.84 
M 81.93 168.8 84.64 171.52 
M 86.82 168.62 90.36 172.16 
M 91.48 168.21 95.93 172.67 
M 95.71 167.37 98.3 169.97 
M 99.95 166.55 102.54 169.13 
M 104.17 165.7 107.94 169.46 
M 108.26 164.72 111.13 167.58 
M 112.39 163.77 116.49 167.88 
M 116.67 162.99 120.65 166.97 
M 121.12 162.36 123.84 165.09 
M 125.61 161.78 129.49 165.67 
M 132.58 163.69 133.47 164.57 
M 105.11 205.52 105.82 203.35 106.65 202.09 109.23 199.07 110.09 197.77 110.43 196.78 
M 104.64 218.32 104.31 217.97 104.22 217.09 105.09 215.26 105.32 214.41 
M 129.3 164.83 129.71 165.14 131.9 165.61 
M 94.55 202.31 93.23 204.48 92.73 205.69 92.98 207.98 92.46 209.67 
M 88.95 171.99 89.29 172.74 89.24 173.98 
M 91.77 205.23 91.58 206.17 92.07 207.91 92.08 209.74 92.45 210.33 
M 112.12 223.11 110.76 221.99 110.34 221.31 109.19 217.64 108.77 216.74 108.96 214.04 
M 113.35 206.16 112.16 206.53 110.06 208.16 108.23 209.18 
M 107.03 210.98 105.5 209.53 104.2 207.91 103.9 207.13 103.87 206.43 104.34 203.44 106.82 198.98 
M 93.53 169.98 97.2 169.73 98.83 169.29 99.4 169 99.75 168.61 100.4 167.26 100.47 166.45 
M 127.56 208.81 127.88 209.32 129.34 210.71 131.54 211.43 132.55 211.38 134.93 209.92 
M 112.18 200.57 111.17 198.15 
M 83.82 191.7 85.96 193.23 87.67 194.81 88.6 196.01 89.42 197.74 
M 117.41 173.2 116.89 171.94 117 171.31 118.5 169.79 119.86 167.22 
M 102.14 194.87 103.5 194.25 105.04 192.87 106.03 191.69 106.81 190.27 107.13 189.09 107.15 188.31 
M 135.24 197.49 136.29 197.46 136.76 197.15 137.73 194.76 139.56 192.31 140.28 191.69 
M 134.66 166.15 133.65 167.96 133.6 168.69 
M 86.71 198.35 86.27 198.74 86.3 199.25 
M 140.55 218.74 140.4 217.84 140.74 216.02 141.04 215.3 142.07 214.11 142.87 212.75 142.84 211.78 141.75 210.28 
M 132.04 199.53 131.59 199.9 127.99 201.5 126.82 202.19 123.68 205.19 122.79 205.58 
M 121.17 215.43 119.95 215.08 119.29 214.33 117.05 208.91 
M 142.28 222.77 141.39 222.02 140.31 220.48 139.54 217.96 139.46 217.12 139.56 215.52 139.78 214.96 141.02 213.17 141.62 211.93 
M 92.48 175.74 89.96 175.89 89.5 175.49 89.53 174.76 
M 94.23 181.91 92.21 182.34 
M 79.43 173.87 79.17 173.77 
M 124.71 205.15 124.14 205.63 123.02 205.89 121.24 205.14 119.55 204.69 118 204.6 
M 94.66 198.36 95.11 199.31 94.11 201.82 
M 108.66 214.83 108.78 214.32 108.63 213.63 108.13 213.12 106.56 212.07 103.72 207.92 
M 83.45 168.71 84.37 169.4 85.05 171.32 85.69 172.41 86.18 172.65 88.05 172.79 88.89 173.06 
M 116.36 165.4 118.23 163.78 120.08 162.5 
M 119.21 206.54 119.16 205.77 118.93 205.35 117.71 204.65 117.31 204.12 
M 135.75 213.97 136.44 213.32 139.14 211.79 140.12 211.06 141.38 209.77 
M 134.74 188.28 134.52 187.65 134.62 186.94 134.95 186.39 135.54 186.17 
M 135.4 193.71 136.68 192.03 137.12 190.75 138.04 189.27 139.44 188.37 
M 106.48 197.76 106.94 196.91 107.38 195.35 107.29 192.03 107.07 190.47 107.26 188.27 
M 125.92 200.34 124.24 202.31 121.95 204.42 120.77 204.65 118.46 204.6 
M 142.56 215.74 143.36 212.91 142.97 211.49 141.81 209.78 
M 131.97 197.9 130.96 198.59 130.06 198.82 127.77 199.01 126.18 199.56 124.66 200.8 123.41 202.21 
M 113.01 182.14 114.21 181.62 117.45 181.62 
M 75.64 179.35 75.16 176.3 75.34 173.19 
M 113.23 177.06 114.08 177.15 
M 114.36 224.38 113.68 224.3 110.9 223.22 107.39 222.25 
M 119.42 169.45 120.21 167.49 122.59 163.26 123.57 162.49 124.52 162.09 
M 135.63 226.17 133.93 225.69 132.6 226.29 
M 140.99 228.89 138.74 227.89 133.62 227.08 
M 141.07 218.5 140.96 217.55 141.42 215.8 142.62 213.85 143.08 212.57 142.89 211.64 141.8 210.2 
M 113.31 180.71 116.71 180.45 117.54 180.04 118.44 178.91 
M 88.81 209.43 89.2 210.11 
M 85.91 206.02 85.89 206.29 86.09 206.27 
M 83.33 202.3 83.01 203.21 83.7 202.89 
M 80.99 198.59 80.48 199.13 80.12 200.13 80.74 199.57 81.55 199.37 
M 78.57 195.04 77.76 195.79 77.24 197.05 78.02 196.23 79.09 195.89 
M 76.47 191.23 75.04 192.45 74.35 193.97 75.3 192.89 77 192.26 
M 74.39 187.44 72.32 189.11 71.47 190.88 72.58 189.55 75.03 188.56 
M 72.07 183.86 69.6 185.77 68.58 187.8 69.85 186.21 72.82 184.95 
M 69.68 180.33 66.88 182.43 65.7 184.72 67.13 182.87 70.41 181.41 
M 67.35 176.76 64.15 179.09 62.81 181.64 64.41 179.53 68.09 177.83 
M 65.21 173.06 61.43 175.75 59.92 178.56 61.69 176.18 65.57 174.35 
M 88.81 209.39 89.6 209.59 
M 84.61 207.88 85.23 207.65 85.43 208.11 
M 80.7 206.64 81.67 205.92 81.58 206.36 81.73 206.97 
M 76.82 205.49 77.36 204.69 78.12 204.19 77.85 204.82 77.95 205.84 
M 72.99 204.3 73.64 203.15 74.57 202.46 74.13 203.28 74.14 204.68 
M 69.15 203.13 69.92 201.61 71.02 200.73 70.41 201.74 70.33 203.49 
M 65.3 202 66.2 200.07 67.47 199 66.69 200.2 66.52 202.33 
M 61.48 200.82 62.47 198.53 63.91 197.27 62.96 198.66 62.7 201.26 
M 57.76 199.41 58.75 196.99 60.36 195.54 59.24 197.12 58.91 199.85 
M 54.03 197.99 55.03 195.45 56.81 193.81 55.52 195.58 55.14 198.36 
M 50.15 196.94 51.3 193.91 53.26 192.08 51.8 194.04 51.32 197.24 
M 46.35 195.72 47.58 192.37 49.71 190.35 48.07 192.5 47.49 196.13 
M 42.51 194.6 43.86 190.83 46.15 188.62 44.35 190.96 43.69 194.88 
M 51.17 201.69 61.54 206.63 67.89 209.31 80.96 214.23 87.8 216.37 94.8 218.1 101.82 219.5 
M 135.8 167.96 137.57 169.72 
M 134.53 159.93 141.7 167.1 
M 139.84 158.47 149.13 167.77 
M 145.14 157.02 153.84 165.72 
M 150.45 155.57 159.94 165.06 
M 155.85 154.21 162.55 160.91 
M 161.26 152.86 171.01 162.61 
M 167 151.84 176.72 161.56 
M 172.79 150.87 181.9 159.99 
M 178.85 150.17 184.97 156.29 
M 184.93 149.5 193.45 158.01 
M 191.14 148.95 197.65 155.46 
M 197.33 148.38 203.12 154.16 
M 203.5 147.78 210.76 155.04 
M 209.63 147.16 216.54 154.07 
M 215.76 146.52 225.43 156.2 
M 222.1 146.11 230.92 154.93 
M 228.49 145.74 237.84 155.09 
M 234.97 145.46 240.57 151.06 
M 241.55 145.28 249.06 152.79 
M 248.22 145.19 254.03 151 
M 254.74 144.95 263.3 153.51 
M 261.24 144.69 266.82 150.27 
M 267.71 144.4 273.71 150.4 
M 274.4 144.33 281.8 151.73 
M 281.26 144.43 287.97 151.15 
M 288.88 145.3 296.67 153.09 
M 297.01 146.67 303.15 152.8 
M 305.55 148.44 310.77 153.67 
M 314.13 150.26 324.26 160.39 
M 322.86 152.24 329.42 158.8 
M 331.48 154.1 339.09 161.71 
M 340.18 156.03 350.1 165.95 
M 349.18 158.28 354.84 163.94 
M 358.81 161.15 365.83 168.17 
M 368.72 164.3 375.78 171.36 
M 378.64 167.46 385.99 174.81 
M 388.77 170.84 396.58 178.64 
M 398.98 174.28 408.32 183.62 
M 409.27 177.81 410.78 179.33 
M 140.84 229.05 141.29 229.96 
M 142.77 227 144.56 230.57 
M 144.45 224.44 145.58 226.7 
M 146.33 228.21 147.26 230.07 
M 145.22 220.07 146.65 222.92 
M 147.4 224.44 148.16 225.95 
M 146.53 216.77 149.99 223.69 
M 149.55 216.9 151.06 219.92 
M 154.08 225.97 156.35 230.5 
M 156.67 225.23 159.69 231.27 
M 158.5 222.97 161.52 229.02 
M 141.57 183.2 142.96 185.97 
M 143.71 187.48 144.25 188.56 
M 137.24 168.63 141.02 176.19 
M 142.53 179.21 146.31 186.77 
M 135.69 159.61 137.58 163.39 
M 139.85 167.92 143.62 175.48 
M 146.65 181.52 148.16 184.55 
M 171.59 231.4 172.34 232.91 
M 173.1 234.42 173.7 235.63 
M 138.29 158.9 140.94 164.19 
M 141.69 165.7 142.45 167.21 
M 143.2 168.72 145.47 173.26 
M 168.14 218.6 171.92 226.16 
M 172.68 227.67 176.61 235.54 
M 140.89 158.18 142.78 161.96 
M 170.49 217.38 173.77 223.93 
M 175.28 226.96 177.54 231.49 
M 178.3 233 179.06 234.51 
M 155.96 182.41 159.25 189 
M 173.34 217.17 176.37 223.22 
M 177.88 226.24 181.66 233.8 
M 182.41 235.31 183.6 237.69 
M 157.81 180.19 161.59 187.74 
M 175.53 215.62 175.94 216.46 
M 185.01 234.6 186.77 238.1 
M 149.07 156.8 152.09 162.85 
M 155.12 168.89 158.14 174.94 
M 160.41 179.47 161.16 180.98 
M 161.92 182.5 164.19 187.03 
M 178.48 215.61 178.54 215.75 
M 151.67 156.09 154.7 162.14 
M 156.96 166.67 161.5 175.74 
M 183.41 219.57 187.19 227.13 
M 155.06 156.95 157.33 161.48 
M 160.35 167.53 164.13 175.09 
M 168.66 184.16 169.42 185.67 
M 186.04 218.92 189.82 226.48 
M 191.33 229.5 193.6 234.03 
M 156.93 154.78 157.69 156.3 
M 163.74 168.39 165.25 171.41 
M 170.54 181.99 173.56 188.04 
M 187.92 216.75 190.94 222.8 
M 192.45 225.82 193.21 227.33 
M 193.96 228.84 196.23 233.38 
M 159.57 154.13 162.59 160.18 
M 173.17 181.34 176.19 187.38 
M 195.08 225.17 198.11 231.21 
M 201.97 238.94 202.43 239.87 
M 161.82 152.72 165.22 159.52 
M 169 167.08 172.02 173.12 
M 175.04 179.17 178.07 185.22 
M 204.52 238.12 205.54 240.17 
M 164.92 153.01 167.18 157.54 
M 171.72 166.61 173.99 171.14 
M 198.92 221.02 199.68 222.53 
M 206.48 236.14 208.57 240.32 
M 182.01 181.27 182.76 182.78 
M 185.78 188.82 186.26 189.79 
M 200.9 219.05 203.17 223.59 
M 178.69 168.72 179.44 170.23 
M 180.96 173.25 181.71 174.76 
M 182.47 176.28 186.25 183.83 
M 187.76 186.86 189.27 189.87 
M 202.87 217.08 206.65 224.64 
M 209.67 230.69 212.7 236.73 
M 174.62 154.66 177.64 160.71 
M 180.66 166.75 183.68 172.8 
M 185.2 175.82 188.97 183.38 
M 191.24 187.91 192.27 189.96 
M 211.65 228.72 215.42 236.28 
M 176.65 152.82 181.19 161.89 
M 183.45 166.42 185.72 170.96 
M 187.99 175.49 190.26 180.02 
M 213.68 226.88 216.71 232.93 
M 179.45 152.5 183.23 160.05 
M 186.25 166.1 187.01 167.61 
M 187.76 169.12 188.52 170.63 
M 217.99 229.58 221.77 237.14 
M 183 153.68 183.76 155.2 
M 185.27 158.22 188.29 164.26 
M 199.63 186.94 201.27 190.22 
M 216.25 220.19 219.27 226.23 
M 220.79 229.26 223.81 235.3 
M 188.07 157.9 191.09 163.95 
M 195.62 173.02 197.89 177.55 
M 201.67 185.11 204.27 190.31 
M 213.76 209.29 215.27 212.31 
M 217.54 216.85 222.07 225.92 
M 225.1 231.96 225.85 233.47 
M 229.62 241.01 229.98 241.74 
M 191.65 159.16 192.41 160.67 
M 197.7 171.25 200.72 177.3 
M 215.08 206.02 218.86 213.57 
M 220.37 216.6 221.13 218.11 
M 221.88 219.62 224.15 224.15 
M 189.57 149.09 190.71 151.35 
M 200.53 171 202.8 175.54 
M 217.91 205.77 221.69 213.32 
M 224.71 219.37 225.47 220.88 
M 231.51 232.97 232.27 234.48 
M 192.4 148.84 193.54 151.1 
M 199.58 163.2 201.1 166.22 
M 220.74 205.52 222.26 208.54 
M 223.77 211.56 225.28 214.58 
M 226.03 216.1 228.3 220.63 
M 232.08 228.19 235.86 235.74 
M 200.15 158.41 203.17 164.45 
M 205.44 168.99 209.21 176.54 
M 226.6 211.31 230.37 218.86 
M 234.15 226.42 238.69 235.49 
M 239.44 237 242.12 242.35 
M 202.97 158.13 204.48 161.16 
M 207.5 167.2 212.04 176.27 
M 213.55 179.29 215.06 182.32 
M 217.33 186.85 219.28 190.75 
M 229.42 211.03 233.2 218.59 
M 236.22 224.64 236.97 226.15 
M 237.73 227.66 240 232.19 
M 242.26 236.73 244.62 241.44 
M 210.32 166.93 213.35 172.98 
M 214.86 176 218.64 183.56 
M 219.39 185.07 222.28 190.84 
M 227.3 200.89 227.7 201.69 
M 240.55 227.39 241.31 228.9 
M 245.09 236.46 247.52 241.32 
M 205.59 151.54 209.37 159.1 
M 214.66 169.68 215.41 171.19 
M 216.92 174.21 221.46 183.28 
M 222.21 184.79 222.97 186.31 
M 240.35 221.07 243.37 227.11 
M 250.17 240.72 250.76 241.89 
M 207.65 149.75 211.43 157.31 
M 213.69 161.84 216.72 167.89 
M 220.5 175.45 223.52 181.49 
M 226.54 187.54 228.28 191.01 
M 237.88 210.21 240.14 214.74 
M 242.41 219.28 246.19 226.83 
M 250.72 235.9 251.48 237.41 
M 252.24 238.93 253.86 242.18 
M 210.46 149.46 213.48 155.5 
M 215.75 160.04 219.53 167.6 
M 221.04 170.62 223.31 175.15 
M 228.6 185.73 231.28 191.1 
M 235.28 199.1 236.91 202.36 
M 239.18 206.89 243.71 215.96 
M 244.47 217.47 247.49 223.52 
M 249.76 228.05 250.51 229.56 
M 253.53 235.61 256.75 242.05 
M 212.14 146.9 212.51 147.66 
M 214.03 150.68 214.78 152.19 
M 218.56 159.75 221.58 165.79 
M 223.09 168.82 226.12 174.86 
M 231.41 185.44 234.28 191.19 
M 237.18 196.99 238.96 200.56 
M 241.23 205.09 245.77 214.16 
M 248.03 218.69 249.54 221.72 
M 251.81 226.25 254.83 232.3 
M 257.1 236.83 258.61 239.85 
M 225.15 167.01 228.17 173.06 
M 234.22 185.15 234.97 186.66 
M 236.49 189.68 237.24 191.19 
M 245.55 207.82 246.31 209.33 
M 253.87 224.45 256.89 230.49 
M 217.79 146.37 220.43 151.66 
M 227.99 166.78 229.5 169.8 
M 231.77 174.34 234.04 178.87 
M 234.79 180.38 235.55 181.89 
M 257.46 225.73 258.22 227.24 
M 261.24 233.28 263.51 237.82 
M 264.91 240.63 265.19 241.17 
M 219.95 144.78 222.97 150.82 
M 229.77 164.43 232.04 168.96 
M 234.31 173.49 238.08 181.05 
M 252.44 209.77 255.47 215.81 
M 263.02 230.93 266.05 236.97 
M 267.57 240.02 267.96 240.8 
M 221.25 141.46 221.62 142.22 
M 231.45 161.87 233.72 166.4 
M 238.25 175.47 239.01 176.98 
M 242.03 183.03 244.3 187.56 
M 248.83 196.63 251.1 201.16 
M 254.12 207.21 258.65 216.28 
M 260.17 219.3 262.43 223.84 
M 222.93 138.9 224.06 141.17 
M 228.59 150.24 232.37 157.8 
M 233.13 159.31 237.66 168.38 
M 243.71 180.47 248.24 189.54 
M 251.26 195.58 254.29 201.63 
M 257.31 207.67 260.33 213.72 
M 261.84 216.74 264.87 222.79 
M 225.74 138.61 227.25 141.64 
M 231.03 149.19 235.56 158.26 
M 236.32 159.77 237.07 161.29 
M 237.83 162.8 239.34 165.82 
M 241.61 170.35 243.87 174.89 
M 246.9 180.93 250.68 188.49 
M 254.45 196.05 256.72 200.58 
M 265.03 217.21 266.55 220.23 
M 271.84 230.81 273.35 233.83 
M 274.1 235.35 274.86 236.86 
M 226.66 134.54 229.68 140.59 
M 234.22 149.66 237.24 155.7 
M 242.53 166.28 246.31 173.84 
M 251.6 184.42 253.86 188.96 
M 274.27 229.76 277.29 235.81 
M 229.85 135.01 230.6 136.52 
M 231.36 138.03 232.12 139.54 
M 237.41 150.12 238.16 151.63 
M 245.72 166.75 248.74 172.79 
M 254.79 184.89 257.81 190.93 
M 260.83 196.98 261.59 198.49 
M 269.15 213.6 269.9 215.11 
M 273.68 222.67 275.95 227.21 
M 278.21 231.74 278.97 233.25 
M 229.64 128.67 230.02 129.43 
M 236.06 141.52 239.84 149.08 
M 243.62 156.63 245.89 161.17 
M 256.47 182.33 260.24 189.88 
M 261 191.4 264.78 198.95 
M 267.05 203.49 267.8 205 
M 270.07 209.53 274.6 218.6 
M 275.36 220.11 278.38 226.16 
M 279.89 229.18 280.65 230.69 
M 231.32 126.11 232.45 128.38 
M 238.49 140.47 242.27 148.03 
M 243.78 151.05 249.07 161.63 
M 262.68 188.84 265.7 194.88 
M 267.97 199.42 270.99 205.46 
M 272.5 208.49 277.04 217.55 
M 277.79 219.07 278.55 220.58 
M 281.57 226.62 285.35 234.18 
M 240.17 137.91 243.95 145.47 
M 246.97 151.52 250.75 159.07 
M 252.26 162.1 255.29 168.14 
M 259.82 177.21 262.84 183.26 
M 265.87 189.3 268.13 193.84 
M 270.4 198.37 274.18 205.93 
M 275.69 208.95 276.45 210.46 
M 277.2 211.97 278.71 215 
M 284 225.58 287.03 231.62 
M 288.54 234.64 289.64 236.85 
M 248.65 148.96 250.92 153.49 
M 253.94 159.54 258.48 168.61 
M 261.5 174.65 264.52 180.7 
M 273.59 198.83 274.35 200.35 
M 275.1 201.86 275.86 203.37 
M 280.39 212.44 281.15 213.95 
M 281.9 215.46 282.66 216.97 
M 287.19 226.04 290.22 232.09 
M 291.84 235.33 292.33 236.3 
M 242.77 131.28 244.28 134.31 
M 249.57 144.89 252.6 150.93 
M 256.38 158.49 259.4 164.54 
M 263.93 173.61 266.96 179.65 
M 269.98 185.7 270.73 187.21 
M 282.83 211.39 285.85 217.44 
M 291.89 229.53 293.41 232.55 
M 238.03 115.88 238.41 116.64 
M 243.7 127.22 245.96 131.75 
M 246.72 133.26 247.47 134.77 
M 252.01 143.84 255.79 151.4 
M 267.88 175.58 269.39 178.6 
M 272.41 184.65 274.68 189.18 
M 276.95 193.72 279.21 198.25 
M 284.5 208.83 288.28 216.39 
M 293.57 226.97 295.84 231.5 
M 296.6 233.02 297.29 234.4 
M 246.88 127.68 249.91 133.73 
M 252.93 139.77 253.69 141.28 
M 254.44 142.79 257.46 148.84 
M 262 157.91 265.02 163.95 
M 268.8 171.51 272.58 179.07 
M 274.09 182.09 280.89 195.69 
M 281.65 197.21 282.4 198.72 
M 286.94 207.79 287.69 209.3 
M 288.45 210.81 289.2 212.32 
M 295.25 224.41 298.27 230.46 
M 249.32 126.63 250.07 128.14 
M 250.83 129.66 251.59 131.17 
M 253.1 134.19 256.12 140.24 
M 263.68 155.35 267.46 162.91 
M 271.99 171.98 274.26 176.51 
M 275.01 178.02 278.04 184.07 
M 278.79 185.58 279.55 187.09 
M 281.81 191.62 283.33 194.65 
M 284.84 197.67 287.86 203.72 
M 297.68 223.36 300.71 229.41 
M 255.53 133.14 258.55 139.19 
M 263.09 148.26 264.6 151.28 
M 267.62 157.33 269.13 160.35 
M 274.42 170.93 275.93 173.95 
M 276.69 175.46 278.2 178.49 
M 286.52 195.11 290.29 202.67 
M 304.65 231.39 305.56 233.2 
M 244.74 105.65 245.12 106.4 
M 250.41 116.98 252.67 121.52 
M 258.72 133.61 259.48 135.12 
M 264.01 144.19 266.28 148.72 
M 267.03 150.23 267.79 151.74 
M 273.08 162.32 275.35 166.86 
M 282.9 181.97 283.66 183.48 
M 284.41 185 285.17 186.51 
M 289.7 195.58 292.73 201.62 
M 306.33 228.83 308.26 232.69 
M 246.42 103.09 247.55 105.35 
M 249.82 109.89 250.57 111.4 
M 252.84 115.93 255.86 121.98 
M 266.44 143.14 270.98 152.21 
M 274.76 159.77 278.54 167.32 
M 286.09 182.44 288.36 186.97 
M 292.89 196.04 294.41 199.06 
M 299.7 209.64 301.21 212.67 
M 301.96 214.18 302.72 215.69 
M 248.1 100.53 248.47 101.28 
M 251.5 107.33 255.27 114.89 
M 256.79 117.91 257.54 119.42 
M 261.32 126.98 264.34 133.02 
M 268.88 142.09 271.9 148.14 
M 273.41 151.16 277.19 158.72 
M 277.95 160.23 280.21 164.77 
M 285.5 175.35 287.01 178.37 
M 288.53 181.39 289.28 182.9 
M 293.82 191.97 294.57 193.48 
M 302.13 208.6 305.15 214.64 
M 253.93 106.28 256.95 112.33 
M 263 124.42 265.27 128.96 
M 266.78 131.98 267.53 133.49 
M 271.31 141.05 272.07 142.56 
M 275.85 150.12 278.87 156.16 
M 287.18 172.79 288.69 175.81 
M 291.72 181.86 293.98 186.39 
M 295.49 189.41 298.52 195.46 
M 304.56 207.55 307.59 213.6 
M 309.1 216.62 312.12 222.66 
M 314.39 227.2 316.4 231.22 
M 265.43 123.37 269.21 130.93 
M 270.72 133.95 274.5 141.51 
M 283.57 159.65 284.33 161.16 
M 289.62 171.74 291.88 176.27 
M 294.15 180.81 300.2 192.9 
M 300.95 194.41 301.71 195.92 
M 303.22 198.95 304.73 201.97 
M 305.49 203.48 306.24 204.99 
M 310.78 214.06 315.31 223.13 
M 316.82 226.15 319.14 230.79 
M 258.8 104.19 261.82 110.24 
M 269.38 125.35 270.89 128.37 
M 273.16 132.91 276.93 140.46 
M 284.49 155.58 288.27 163.14 
M 296.58 179.76 298.85 184.3 
M 301.12 188.83 302.63 191.85 
M 304.9 196.39 307.92 202.43 
M 313.96 214.52 316.23 219.06 
M 319.25 225.1 321.51 229.62 
M 256.7 94.07 258.96 98.61 
M 260.48 101.63 265.01 110.7 
M 275.59 131.86 277.86 136.39 
M 282.39 145.46 284.66 150 
M 286.17 153.02 290.7 162.09 
M 309.6 199.87 310.35 201.39 
M 311.86 204.41 314.89 210.45 
M 258.37 91.52 262.15 99.07 
M 262.91 100.58 266.69 108.14 
M 268.2 111.16 271.22 117.21 
M 284.07 142.9 287.85 150.46 
M 288.6 151.97 291.63 158.02 
M 297.67 170.11 298.43 171.62 
M 299.18 173.13 299.94 174.64 
M 306.74 188.25 308.25 191.27 
M 314.3 203.36 318.08 210.92 
M 319.59 213.94 322.61 219.99 
M 325.63 226.03 327.31 229.38 
M 258.16 85.18 259.3 87.45 
M 261.56 91.98 263.83 96.51 
M 265.34 99.54 268.37 105.58 
M 269.88 108.61 273.66 116.16 
M 287.26 143.37 290.28 149.41 
M 299.35 167.55 303.13 175.11 
M 309.17 187.2 311.44 191.73 
M 316.73 202.31 319.75 208.36 
M 322.02 212.89 325.8 220.45 
M 327.31 223.47 329.99 228.82 
M 259.84 82.62 260.98 84.89 
M 267.02 96.98 268.53 100 
M 273.07 109.07 275.33 113.6 
M 278.36 119.65 279.11 121.16 
M 279.87 122.67 280.62 124.18 
M 282.89 128.72 287.43 137.79 
M 301.03 164.99 305.56 174.06 
M 310.85 184.64 314.63 192.2 
M 324.46 211.85 327.48 217.89 
M 330.5 223.94 332.15 227.23 
M 268.7 94.42 271.72 100.47 
M 280.03 117.09 283.81 124.65 
M 285.32 127.67 286.08 129.18 
M 286.84 130.7 289.1 135.23 
M 301.19 159.41 304.22 165.46 
M 304.97 166.97 307.24 171.5 
M 310.26 177.55 311.77 180.57 
M 314.04 185.11 316.31 189.64 
M 317.06 191.15 320.09 197.2 
M 322.35 201.73 323.11 203.24 
M 327.64 212.31 329.16 215.34 
M 267.35 85.82 270.38 91.86 
M 271.13 93.37 274.16 99.42 
M 282.47 116.05 283.44 117.99 
M 285.64 122.38 286.77 124.65 
M 289.79 130.7 292.06 135.23 
M 298.11 147.32 298.86 148.83 
M 302.64 156.39 303.4 157.9 
M 304.15 159.41 307.93 166.97 
M 311.71 174.53 314.73 180.57 
M 319.27 189.64 320.78 192.67 
M 321.53 194.18 323.05 197.2 
M 323.8 198.71 327.58 206.27 
M 330.6 212.31 331.36 213.83 
M 337.51 226.14 338 227.11 
M 269.03 83.26 272.81 90.82 
M 301.17 147.52 302.3 149.79 
M 306.83 158.86 308.34 161.88 
M 314.39 173.97 316.66 178.51 
M 321.19 187.58 325.73 196.65 
M 326.48 198.16 330.26 205.71 
M 331.77 208.74 334.79 214.78 
M 339.33 223.85 340.66 226.52 
M 272.22 83.72 277.26 93.8 
M 304.47 148.21 304.85 148.97 
M 310.14 159.55 310.89 161.06 
M 324.49 188.27 326.01 191.29 
M 329.03 197.34 332.05 203.38 
M 333.56 206.4 338.1 215.47 
M 341.88 223.03 343.33 225.93 
M 270.88 75.12 273.14 79.65 
M 316.47 166.3 320.24 173.85 
M 336.87 207.11 339.89 213.15 
M 271.8 71.05 276.33 80.12 
M 311.08 149.62 312.22 151.88 
M 315.24 157.93 316.75 160.95 
M 318.26 163.98 323.55 174.56 
M 325.06 177.58 326.58 180.6 
M 330.35 188.16 333.38 194.2 
M 335.64 198.74 337.91 203.27 
M 274.99 71.51 277.32 76.18 
M 314.39 150.32 315.53 152.59 
M 316.28 154.1 319.31 160.15 
M 321.57 164.68 325.35 172.24 
M 326.11 173.75 327.62 176.77 
M 328.37 178.29 329.89 181.31 
M 332.15 185.84 335.18 191.89 
M 337.44 196.42 341.22 203.98 
M 317.73 151.08 318.11 151.83 
M 319.62 154.86 323.39 162.41 
M 324.91 165.44 327.17 169.97 
M 329.44 174.5 331.71 179.04 
M 340.78 197.18 343.04 201.71 
M 347.58 210.78 349.85 215.31 
M 353.61 222.84 353.97 223.57 
M 322.19 154.1 323.71 157.12 
M 327.48 164.68 329.75 169.21 
M 345.62 200.95 346.38 202.46 
M 350.16 210.02 352.42 214.55 
M 355.45 220.6 356.63 222.98 
M 330.06 163.92 333.08 169.96 
M 343.67 191.12 345.18 194.15 
M 346.69 197.17 349.71 203.21 
M 351.98 207.75 354.25 212.28 
M 357.27 218.33 359.28 222.35 
M 331.86 161.61 334.13 166.14 
M 344.71 187.3 348.49 194.86 
M 349.25 196.37 353.02 203.93 
M 354.54 206.95 356.05 209.97 
M 356.8 211.49 357.56 213 
M 342.73 177.43 346.51 184.99 
M 348.02 188.01 350.29 192.54 
M 352.56 197.08 353.31 198.59 
M 356.33 204.63 360.11 212.19 
M 344.53 175.11 349.06 184.18 
M 351.33 188.71 352.09 190.23 
M 358.89 203.83 363.42 212.9 
M 341.81 163.76 343.33 166.79 
M 347.86 175.86 350.13 180.39 
M 362.22 204.57 364.49 209.11 
M 366.75 213.64 369.02 218.18 
M 342.14 158.49 344.4 163.03 
M 358.01 190.23 360.27 194.77 
M 368.59 211.39 371.61 217.44 
M 345.48 159.27 348.5 165.31 
M 353.04 174.38 353.79 175.89 
M 360.59 189.5 363.62 195.54 
M 366.64 201.59 368.15 204.61 
M 371.93 212.17 372.69 213.68 
M 374.87 218.04 375.16 218.62 
M 348.11 158.61 350.37 163.14 
M 354.15 170.7 357.18 176.74 
M 359.44 181.28 361.71 185.81 
M 363.22 188.84 365.49 193.37 
M 367.76 197.9 370.78 203.95 
M 377.51 217.41 377.82 218.03 
M 356.87 170.21 359.13 174.74 
M 361.4 179.28 364.42 185.32 
M 369.71 195.9 373.49 203.46 
M 375 206.48 375.76 208 
M 376.51 209.51 377.27 211.02 
M 364.87 180.3 366.38 183.33 
M 373.18 196.93 373.94 198.44 
M 376.96 204.49 380.74 212.04 
M 378.93 202.5 383.46 211.57 
M 385.56 215.77 385.77 216.19 
M 371.11 180.95 374.13 186.99 
M 377.15 193.04 379.42 197.57 
M 383.2 205.13 383.95 206.64 
M 386.22 211.18 388.42 215.57 
M 373.11 179.04 376.89 186.6 
M 379.16 191.13 382.18 197.18 
M 388.98 210.78 391.05 214.93 
M 369.07 165.04 369.83 166.56 
M 375.12 177.14 378.14 183.18 
M 382.67 192.25 383.43 193.76 
M 372.21 165.41 374.1 169.19 
M 388.46 197.9 392.24 205.46 
M 375.73 166.53 376.1 167.29 
M 379.88 174.84 382.91 180.89 
M 390.46 196 395 205.07 
M 397.26 209.61 398.64 212.37 
M 382.64 174.45 385.67 180.5 
M 386.42 182.01 389.45 188.05 
M 394.74 198.63 396.25 201.66 
M 397.76 204.68 401.51 212.17 
M 384.68 172.61 386.95 177.15 
M 388.46 180.17 393 189.24 
M 399.8 202.84 404.12 211.49 
M 391.26 179.85 395.04 187.41 
M 399.57 196.47 401.84 201.01 
M 405.62 208.57 406.37 210.07 
M 401.61 194.64 404.63 200.68 
M 394.59 174.68 395.34 176.19 
M 404.41 194.33 406.68 198.86 
M 408.95 203.4 410.46 206.42 
M 397.01 173.61 398.9 177.39 
M 411.62 202.82 411.86 203.32 
M 403.97 181.62 406.99 187.66 
M 406.03 179.82 409.81 187.38 
M 408.09 178.03 409.6 181.06 
M 410.36 182.57 411.3 184.45 
M 411.58 179.08 411.86 179.66 
M 220.61 292.3 220.19 291.7 219.38 291.39 218.17 291.39 217.19 291.7 216.41 292.3 216.23 292.89 216.56 293.8 219.2 295 219.53 295.89 219.26 296.8 218.48 297.39 217.48 297.7 216.29 297.7 215.48 297.39 215.06 296.8 
M 225.65 293.5 224.39 297.7 
M 225.38 294.39 224.96 293.8 224.45 293.5 223.55 293.5 222.86 293.8 222.08 294.39 221.51 295.3 221.33 295.89 221.36 296.8 221.78 297.39 222.29 297.7 223.19 297.7 223.88 297.39 224.66 296.8 
M 228.05 293.5 226.79 297.7 
M 227.51 295.3 228.08 294.39 228.86 293.8 229.55 293.5 230.45 293.5 
M 232.58 291.39 230.69 297.7 
M 231.68 294.39 232.46 293.8 233.15 293.5 234.05 293.5 234.56 293.8 234.98 294.39 235.01 295.3 234.83 295.89 234.26 296.8 233.48 297.39 232.79 297.7 231.89 297.7 231.38 297.39 230.96 296.8 
M 238.85 293.5 238.16 293.8 237.38 294.39 236.81 295.3 236.63 295.89 236.66 296.8 237.08 297.39 237.58 297.7 238.49 297.7 239.18 297.39 239.96 296.8 240.52 295.89 240.71 295.3 240.68 294.39 240.26 293.8 239.75 293.5 238.85 293.5 
M 244.27 291.39 242.75 296.5 242.77 297.39 243.29 297.7 243.89 297.7 
M 242.75 293.5 244.85 293.5 
M 248.15 293.5 247.46 293.8 246.68 294.39 246.11 295.3 245.93 295.89 245.96 296.8 246.38 297.39 246.89 297.7 247.79 297.7 248.48 297.39 249.26 296.8 249.83 295.89 250.01 295.3 249.98 294.39 249.56 293.8 249.05 293.5 248.15 293.5 
M 255.38 294.39 255.26 293.8 254.45 293.5 253.55 293.5 252.56 293.8 252.08 294.39 252.2 295 252.71 295.3 254.12 295.6 254.63 295.89 254.65 296.8 254.18 297.39 253.19 297.7 252.29 297.7 251.48 297.39 251.36 296.8 
M 260.77 294.39 260.36 293.8 259.85 293.5 258.95 293.5 258.26 293.8 257.48 294.39 256.9 295.3 256.73 295.89 256.76 296.8 257.18 297.39 257.69 297.7 258.58 297.7 259.27 297.39 260.05 296.8 
M 263.48 291.39 263.69 291.7 264.08 291.39 263.87 291.1 263.48 291.39 
M 263.14 293.5 261.89 297.7 
M 266.75 293.5 266.06 293.8 265.27 294.39 264.71 295.3 264.52 295.89 264.55 296.8 264.98 297.39 265.49 297.7 266.39 297.7 267.08 297.39 267.86 296.8 268.43 295.89 268.61 295.3 268.58 294.39 268.15 293.8 267.64 293.5 266.75 293.5 
M 271.25 293.5 269.99 297.7 
M 270.89 294.7 272.06 293.8 272.75 293.5 273.64 293.5 274.15 293.8 274.19 294.7 273.28 297.7 
M 279.95 293.5 278.69 297.7 
M 279.58 294.7 280.76 293.8 281.45 293.5 282.34 293.5 282.86 293.8 282.89 294.7 281.99 297.7 
M 282.89 294.7 284.06 293.8 284.75 293.5 285.64 293.5 286.15 293.8 286.19 294.7 285.28 297.7 
M 292.25 293.5 290.99 297.7 
M 291.98 294.39 291.56 293.8 291.04 293.5 290.14 293.5 289.45 293.8 288.67 294.39 288.11 295.3 287.92 295.89 287.95 296.8 288.38 297.39 288.89 297.7 289.78 297.7 290.48 297.39 291.26 296.8 
M 294.64 293.5 293.39 297.7 
M 294.11 295.3 294.68 294.39 295.45 293.8 296.14 293.5 297.04 293.5 
M 297.7 295.3 301.31 295.3 301.49 294.7 301.37 294.1 300.64 293.5 299.75 293.5 299.06 293.8 298.27 294.39 297.7 295.3 297.52 295.89 297.56 296.8 297.98 297.39 298.49 297.7 299.39 297.7 300.08 297.39 300.86 296.8 
M 303.16 297.1 302.77 297.39 302.99 297.7 303.38 297.39 303.16 297.1 
"/></svg>
