<svg xmlns="http://www.w3.org/2000/svg" width="520" height="320"><rect x="0" y="0" width="520" height="320" fill="floralwhite"/><rect x="10" y="10" width="500" height="300" stroke="black" stroke-width="1" fill="none"/><path stroke="black" stroke-width="1" fill="none" stroke-linecap="round" stroke-linejoin="round" d="
M 161.58 142.61 183.42 142.89 194.34 143.29 227.12 145.16 248.96 146.93 259.89 147.57 292.66 148.86 314.51 150.3 336.36 151.4 347.29 152.08 369.14 154.07 380.06 154.79 401.91 155.76 412.84 156.59 423.76 157.88 424.86 158.19 
M 424.86 211.26 423.76 211.58 412.84 212.65 390.99 214.23 358.21 216.15 347.29 216.57 336.36 216.68 314.51 216.11 303.59 216.35 259.89 217.86 248.96 218.61 238.04 219.14 216.19 219.35 205.27 219.61 172.49 221.59 161.57 221.68 150.66 221.05 
M 165.86 186.58 166.36 185.92 168.89 180.05 168.89 176.42 166.36 170.54 165.27 169.11 
M 164.19 178.27 164.76 178.29 
M 163.9 182.36 164.7 182.52 
M 168.96 209.78 168.96 208.26 168.36 207.09 
M 157.77 205.93 159.18 205.75 
M 167.99 176.37 170.34 175.15 174.61 170.73 177.36 165.72 177.36 162.62 174.61 157.61 170.34 153.19 168.16 152.06 
M 167.06 161.31 172.39 160.6 
M 166.32 164.38 172.29 163.99 
M 165.64 166.89 172.19 168.39 
M 169.99 209.77 171.6 208.85 172.66 207.64 
M 175.26 185.37 171.6 181.2 167.99 179.13 
M 175.26 158.74 176.41 158.13 179.74 154.51 181.89 150.42 181.89 147.88 179.74 143.79 178.84 142.81 
M 171.67 147.31 178.04 145.64 
M 171.29 148.64 177.61 149.45 
M 171.61 150.85 178.27 151.82 
M 184.52 184.88 186.12 180.49 186.12 176.58 183.82 170.25 180.24 164.67 177.45 162.48 
M 174.87 175.36 182.47 173.28 
M 174.89 179 181.8 178.71 
M 175.29 182.1 181.5 183.03 
M 176.78 209.57 178.65 208.98 
M 185.3 176.38 187.56 175.11 191.67 170.49 194.33 165.26 194.33 162.02 191.67 156.79 187.56 152.17 184.35 150.37 
M 181.52 161.09 189.8 160.12 
M 181.41 164.16 189.15 163.18 
M 180.85 166.01 189 167.3 
M 190.5 208.9 190.64 208.7 
M 191.39 183.75 189.59 181.32 186.25 179.05 
M 192.3 157.97 193.4 157.35 196.64 153.71 198.73 149.59 198.73 147.03 196.92 143.46 
M 188.01 146.35 194.72 145.06 
M 188.54 148.44 194.42 148.83 
M 188.47 150.14 194.96 151.47 
M 202.94 183.24 203.91 180.54 203.91 176.59 201.62 170.22 198.07 164.59 195.3 162.4 
M 193.03 175.73 199.89 173.39 
M 192.2 178.22 200.23 178.59 
M 192.48 181.48 198.75 183.49 
M 202.25 208.39 201.31 205.43 
M 195.14 208.66 198.73 207.34 
M 203.09 175.31 204.47 174.49 208.46 169.75 211.04 164.38 211.04 161.05 208.46 155.68 204.47 150.94 201.35 149.08 
M 197.96 159.68 206.83 158.17 
M 197.89 162.44 206.62 163.19 
M 198.35 165.27 205.83 166.76 
M 207.63 208.24 210.77 203.74 211.29 202.46 
M 208.52 183.25 206.7 180.66 203.52 178.38 
M 207.95 155.58 208.43 155.26 211.43 151.3 213.35 146.82 213.35 144.44 
M 204.12 145.16 209.53 145.35 
M 204.32 147.97 210.29 148.77 
M 220.62 183.69 221.71 180.57 221.71 176.54 219.43 170.03 215.88 164.29 213.11 162.04 
M 210.48 174.8 217.46 173.64 
M 210.51 178.61 217.37 178.92 
M 209.94 181.79 217.28 183.49 
M 218.33 208.14 216.44 201.91 216.04 201.16 
M 208.85 207.21 215.33 206.04 
M 220.89 173.34 224.85 168.44 227.5 162.69 227.5 159.13 224.85 153.38 220.75 148.3 217.54 146.32 
M 214.42 158.39 222.94 156.37 
M 214.6 160.38 222.86 160.82 
M 215.19 163.88 222.26 165.4 
M 223.5 208.16 227.45 202.49 230.07 195.9 230.07 194.31 
M 226.42 183.75 223.39 179.4 220.89 177.61 
M 224.25 198.54 225.51 198.84 
M 223.31 152.04 226.44 148 227.67 145.21 
M 223.21 144.96 224.94 145.42 
M 230.93 195.68 233.7 193.36 234.75 191.59 
M 237.78 185.84 239.54 180.64 239.54 176.46 237.25 169.7 233.7 163.74 230.93 161.41 
M 228.15 174.78 235.84 173.1 
M 228.76 178.33 235.29 178.97 
M 228.2 181.81 235.89 184.19 
M 234 208.17 234 205.69 231.87 199.26 229.3 194.82 
M 226 203.93 229.79 203.03 
M 223.25 207.81 230.16 207.69 
M 238.72 173.34 243.19 168.28 246.06 162.55 246.06 159.01 243.19 153.29 238.73 148.24 235.25 146.26 
M 231.88 157.93 240.49 156.94 
M 232.05 160.73 240.37 161.04 
M 233.4 163.96 240.85 165.55 
M 239.23 208.14 240.65 207.18 244.87 201.51 247.59 195.08 247.59 191.11 244.87 184.68 240.65 179.01 238.72 177.71 
M 238.82 188.85 242.64 188.34 
M 233.95 192.68 243.01 192.6 
M 234.62 195.93 242.51 198.3 
M 244.3 155.06 248.72 150.9 250.98 147.05 
M 237.61 147.16 246.15 148.08 
M 248.78 194.55 251.53 192.38 255.06 186.82 257.34 180.52 257.34 176.62 255.06 170.32 251.53 164.75 248.78 162.58 
M 246.24 175.32 253.01 173.31 
M 246.53 178.77 253.21 178.39 
M 246.06 181.7 253.47 183.31 
M 252.65 207.67 252.65 205.66 250.28 199.45 246.61 193.98 
M 242.35 204.25 248.81 202.67 
M 241.5 207.68 247.97 207.32 
M 256.52 174.65 257.9 173.91 262.26 169.26 265.07 163.99 265.07 160.73 262.26 155.46 257.9 150.81 254.5 149 
M 250.78 159.49 259.46 158.12 
M 251.05 162.3 260.36 162.74 
M 251.27 165.02 259.44 166.69 
M 258.11 207.4 258.83 206.95 263.13 201.49 265.91 195.31 265.91 191.49 263.13 185.31 258.83 179.86 256.52 178.4 
M 252.54 190.15 260.5 189.09 
M 252.66 193.51 261.18 193.79 
M 252.71 196.32 260.52 198.02 
M 263.3 157.04 264.22 156.56 267.65 152.96 269.86 148.88 269.86 147.95 
M 259.12 147.7 262.48 147.67 
M 259.36 150.21 265.57 151.16 
M 266.41 193.87 269.05 191.77 272.43 186.37 274.62 180.25 274.62 176.47 272.43 170.35 269.05 164.95 266.41 162.84 
M 263.48 175.69 270.62 173.59 
M 263.69 178.41 270.24 177.9 
M 263.68 181.77 271.07 182.96 
M 271.98 206.98 269.65 201.13 265.87 195.76 264.92 195.08 
M 260.38 206.53 268.13 204.28 
M 273.83 173.28 274.27 173.01 278.11 168.25 280.58 162.87 280.58 159.54 278.11 154.15 274.27 149.39 272.07 148.03 
M 268.29 158.36 275.87 157.32 
M 268.9 160.9 275.91 161.08 
M 268.88 164.29 275.6 165.01 
M 276.89 206.92 280.87 201.7 283.57 195.46 283.57 191.6 280.87 185.37 276.68 179.86 273.83 177.99 
M 269.73 190.49 278.56 188.44 
M 270.19 193.82 279.09 193.25 
M 269.84 196.46 278.65 197.95 
M 276.31 152.45 276.62 152.22 279.29 148.26 
M 282.68 193.83 285.21 191.49 288.45 185.51 290.54 178.73 290.54 174.53 288.45 167.75 285.21 161.76 282.68 159.43 
M 280.42 172.84 287.09 171.78 
M 279.88 176.3 286.93 176.56 
M 280.22 180.45 286.39 181.66 
M 289.69 206.68 287.97 202.23 284.39 196.97 282.61 195.66 
M 280.26 206.88 286.02 205.28 
M 288.91 169.21 291.72 164.99 294.02 158.93 294.02 155.18 291.51 148.8 
M 283.08 153.58 289.5 152.32 
M 282.78 157 290.37 156.72 
M 284.19 160.63 290.35 161.44 
M 294.05 206.57 297.68 201.34 300.29 194.75 300.29 190.68 297.68 184.09 293.64 178.27 290.49 176 
M 287.82 189.82 295.1 187.82 
M 287.81 192.28 296.04 193.23 
M 287.16 196.2 295.22 198.08 
M 299.35 193.44 301.35 191.38 304.61 184.68 306.7 177.1 306.7 172.41 304.61 164.82 301.35 158.12 298.81 155.51 
M 296.45 171.04 303.25 169.19 
M 296.18 174.87 303.3 174.29 
M 296.45 178.4 302.36 180.32 
M 306.63 206.31 304.9 201.55 301.52 196.23 299.35 194.52 
M 296.02 206.2 303.62 204.64 
M 303.5 163.28 304.98 160.83 307.41 153.77 307.41 149.81 
M 295.56 151.7 302.64 151.31 
M 295.34 155.58 299.9 156.19 
M 300.01 156.21 303.31 156.65 
M 310.82 206.27 314.49 200.7 317.16 193.58 317.16 189.17 314.49 182.05 310.35 175.77 307.11 173.31 
M 303.74 187.38 311.98 185.76 
M 304.48 190.87 312.31 191.88 
M 303.99 194.77 312.02 196.55 
M 316.2 194.34 318.07 192.37 321.74 184.64 324.11 175.88 324.11 170.45 321.74 161.69 318.07 153.96 315.21 150.94 
M 312.66 168.24 319.82 166.69 
M 311.99 173.02 319.47 173.44 
M 312.82 177.53 319.59 179.73 
M 324.04 206.51 321.78 200.15 318.28 194.76 316.96 193.75 
M 313.06 204.87 320.21 204.02 
M 320.66 160.26 321.31 159.22 324.12 151.22 324.12 150.8 
M 310.58 153.01 314.27 153.57 
M 317.68 154.09 319.38 154.35 
M 329.25 206.67 332.84 201.27 335.66 193.82 335.66 189.22 332.84 181.77 328.47 175.2 325.06 172.63 
M 321.43 188.11 330.63 185.99 
M 321.39 191.47 330.13 191.13 
M 321.23 195.21 331.05 197.34 
M 335.45 198.98 338.45 195.84 342.29 187.79 344.77 178.67 344.77 173.03 342.29 163.92 338.45 155.87 335.45 152.73 
M 332.34 171.06 339.92 169.21 
M 332.63 176.19 339.8 176.37 
M 332.04 181.01 340.83 182.64 
M 342.55 206.9 340.36 201.32 337.4 197.04 
M 330.87 205.48 338.32 204.18 
M 341.24 162.59 342.46 160.99 345.84 153.13 345.84 151.99 
M 329.15 151.23 330.84 151.13 
M 329.18 154.19 334.71 155.27 
M 338 155.91 339.24 156.15 
M 347.75 206.89 351.26 201.72 354.05 194.5 354.05 190.03 351.26 182.82 346.94 176.44 343.88 174.19 
M 341.5 188.58 348.88 187.28 
M 340.23 191.94 349.22 191.92 
M 340.1 196.24 349.51 197.44 
M 353.65 197.2 356.52 194.35 360.19 187.07 362.56 178.82 362.56 173.71 360.19 165.46 356.52 158.17 353.65 155.33 
M 351.26 172.15 358.14 169.95 
M 350.8 176.67 358.44 175.74 
M 350.56 180.55 358.69 183.05 
M 359.22 206.65 359.22 206.28 357.06 200.57 353.71 195.53 353.05 195.04 
M 349.05 205.47 355.07 204.18 
M 361.71 169.23 366.22 164.77 369.88 158.41 369.88 154.47 369.67 154.11 
M 351.53 152.66 352.41 152.54 
M 352.3 156.75 354.19 156.62 
M 355.23 156.55 363.57 155.98 
M 357.38 160.74 363.02 161.42 
M 364.21 206.49 364.53 206.28 368.81 200.55 371.57 194.06 371.57 190.04 368.81 183.55 364.53 177.81 361.71 175.93 
M 359.05 188.52 366.05 186.96 
M 357.82 192.01 366.75 191.51 
M 357.61 195.43 366.25 196.96 
M 372.37 193.28 375.25 191.11 378.94 185.53 381.32 179.22 381.32 175.31 378.94 168.99 375.25 163.42 372.37 161.24 
M 369.07 174.1 376.52 172.86 
M 369.61 177.67 377.18 177.09 
M 369.84 180.03 377.29 182.5 
M 376.27 206.05 376.27 204.86 373.97 199.16 370.58 194.37 
M 366.17 203.43 371.91 202.63 
M 380.47 173.89 382.55 172.95 387.58 168.39 390.83 163.23 390.83 160.03 387.74 155.12 
M 374.53 159.22 384.73 157.52 
M 375.11 161.19 385 161.59 
M 375.27 164.12 385.15 165.38 
M 382.43 205.79 382.8 205.57 387.2 200.28 390.04 194.29 390.04 190.58 387.2 184.59 382.8 179.31 380.47 177.91 
M 376.33 188.83 384.45 187.62 
M 376.42 192.83 384.98 192.2 
M 376.15 195.25 384.62 197.23 
M 389.01 156.62 389.46 156.42 390.76 155.25 
M 390.69 193.04 393.46 190.97 396.99 185.67 399.28 179.67 399.28 175.96 396.99 169.96 393.46 164.66 390.69 162.59 
M 387.99 175.05 395.14 173.02 
M 387.59 177.32 394.75 177.67 
M 388.19 180.47 395.39 182.02 
M 395.74 205.14 393.68 200.27 389.79 195.02 389.03 194.5 
M 383.29 204.53 391.77 203.86 
M 398.46 174.61 400.44 173.54 404.55 169.09 407.2 164.06 407.2 160.95 404.58 155.97 
M 394 160.36 402.05 158.6 
M 393.84 162.79 402.7 162.69 
M 393.6 164.97 402.38 165.79 
M 403.02 204.76 405.77 201.35 408.59 195.22 408.59 191.42 405.77 185.3 401.4 179.88 398.46 178.06 
M 394.31 190.02 403.57 188.59 
M 394.68 193.16 403.3 192.97 
M 394.7 196.33 403.57 198.08 
M 404.89 156.75 406.08 156.08 
M 407.91 192.95 410.38 190.81 413.54 185.3 415.58 179.07 415.58 175.21 413.54 168.98 410.38 163.48 407.91 161.33 
M 405.3 174.48 411.84 172.56 
M 405.39 176.97 412.34 177.39 
M 405.06 180.39 412.1 181.72 
M 414.56 204.13 413.68 201.98 409.7 196.37 407.58 194.89 
M 414.76 171.66 415.31 171.31 419.02 166.58 421.42 161.23 421.42 157.91 421.27 157.58 
M 409.71 156.94 411.76 156.51 
M 409.68 159.16 416.64 159.77 
M 409.88 162.54 416.96 164.1 
M 422 203.64 423.18 201.98 424.86 197.81 
M 424.86 188.6 423.18 184.43 418.98 178.51 415.7 176.2 
M 412.35 189.44 420.87 187.96 
M 412.14 193.18 421.22 192.83 
M 412.72 196.49 421.42 198.58 
M 424.7 187.17 424.86 186.84 
M 424.86 158.63 424.62 158.12 
M 419.79 169.6 424.86 166.94 
M 419.55 172.37 424.86 172.48 
M 419.3 176.17 424.86 177.77 
M 424.73 159.09 424.86 159.1 
M 156.27 217.44 154.58 215.2 
M 166.12 217.69 168.96 212.13 168.96 209.78 
M 156.19 210.23 162.81 209.97 
M 155.05 213.61 162.88 214.9 
M 167.81 211.01 169.99 209.77 
M 178.84 142.81 178.84 142.81 
M 186 216.93 186.62 215.22 186.62 211.03 186.29 210.13 
M 186.25 212.4 189.59 210.13 190.5 208.9 
M 189.87 216.68 189.58 216.3 186.12 214.12 
M 202.56 215.97 202.93 214.78 202.93 210.56 202.25 208.39 
M 192.48 212.93 198.5 213.08 
M 206.54 215.81 206.22 215.35 203.15 213.15 
M 213.35 144.44 213.35 144.44 
M 217.58 215.61 218.46 212.71 218.46 208.58 218.33 208.14 
M 208.38 210.66 214.27 210.75 
M 257.7 214.48 255.43 211.67 252.19 209.67 
M 259.62 209.4 267.7 209.64 
M 259.8 212.39 267.32 213.61 
M 273.4 209.35 276.68 207.2 276.89 206.92 
M 274.45 213.87 272.59 211.66 271.21 210.85 
M 278.86 209.95 286.08 209.53 
M 291.48 213.44 289.45 211.1 
M 307.41 149.81 307.41 149.81 
M 307.11 209.44 310.35 206.99 310.82 206.27 
M 308.86 212.92 306.3 210.03 
M 322.93 213.04 324.04 210.04 324.04 206.51 
M 330.95 208.78 338.16 208.73 
M 343.56 210.58 346.94 208.09 347.75 206.89 
M 358.01 213 359.22 209.81 359.22 206.65 
M 348.72 208.36 354.99 208 
M 369.67 154.11 369.67 154.11 
M 362.42 212.8 358.81 209.1 358.44 208.91 
M 365.16 209.61 371.74 211.06 
M 387.74 155.12 387.74 155.12 
M 379.36 207.63 382.43 205.79 
M 390.76 155.25 390.76 155.25 
M 383.63 207.7 391.24 207.66 
M 384.16 211.37 385.71 211.59 
M 403.74 207.24 411.94 205.81 
M 403.47 210.18 406.3 210.29 
M 421.27 157.58 421.27 157.58 
M 416.69 209.51 418.98 207.9 422 203.64 
M 192.41 142.84 194.35 143.29 
M 208.9 143.83 225.07 84.56 226.14 84.83 212.83 144.41 
M 225.4 144.65 249.38 63.61 250.44 63.9 229.32 145.34 
M 241.88 145.93 275.21 41.18 276.27 41.5 245.79 146.67 
M 258.36 147.02 290 46.4 291.05 46.71 262.29 147.66 
M 274.86 147.6 311.05 34.76 312.1 35.08 278.8 148.25 
M 291.38 148.25 332.38 33.39 333.42 33.75 295.3 149.02 
M 307.88 149.28 337.1 74.82 338.13 75.2 311.78 150.12 
M 324.37 150.19 345.86 98.66 346.89 99.06 328.29 151.01 
M 345.45 151.33 347.29 152.08 
M 195.09 143.34 202.58 132.35 206.17 126.7 209.56 120.94 212.72 115.05 215.65 109.04 218.38 102.93 223.45 90.49 
M 224.8 90.82 230.65 87.65 233.44 85.9 236.07 83.97 238.54 81.85 240.83 79.53 242.97 77.03 246.98 71.71 
M 248.32 72.08 254.48 68.61 257.42 66.71 260.21 64.64 262.83 62.37 265.27 59.91 267.57 57.27 271.88 51.66 
M 273.21 52.06 275.8 54.39 277.16 55.34 278.6 56.08 280.11 56.57 281.71 56.81 283.37 56.83 286.83 56.46 
M 288.16 56.86 293.14 55.69 295.52 54.92 297.79 53.94 299.93 52.74 301.94 51.31 303.84 49.68 307.43 46.04 
M 308.75 46.45 313.21 47.51 315.42 47.83 317.61 47.91 319.78 47.74 321.93 47.3 324.06 46.64 328.28 44.88 
M 329.59 45.33 329.21 53.71 329.23 57.88 329.48 62.01 329.99 66.12 330.76 70.19 331.75 74.23 334.18 82.26 
M 335.48 82.75 335.99 87.94 336.45 90.46 337.12 92.9 338.03 95.24 339.19 97.49 340.56 99.65 343.71 103.82 
M 345.01 104.32 343.96 114.92 343.65 120.22 343.57 125.5 343.75 130.78 344.19 136.05 344.87 141.31 346.65 151.82 
M 227.75 89.27 233.44 85.9 236.07 83.97 238.54 81.85 240.83 79.53 245.01 74.4 
M 226.54 97.04 231.42 94.13 233.69 92.48 235.81 90.65 237.78 88.66 241.37 84.25 
M 225.32 104.8 229.41 102.37 233.08 99.46 234.74 97.79 237.74 94.1 
M 224.11 112.57 227.4 110.61 228.93 109.49 231.69 106.92 234.11 103.95 
M 222.89 120.33 226.55 118 228.64 116.05 230.48 113.79 
M 251.43 70.38 257.42 66.71 260.21 64.64 262.83 62.37 265.27 59.91 269.76 54.5 
M 249.84 77.93 255.23 74.63 257.74 72.76 260.1 70.72 262.3 68.5 266.33 63.63 
M 248.25 85.47 253.04 82.54 255.28 80.88 257.37 79.07 259.33 77.09 262.91 72.77 
M 246.66 93.02 250.86 90.45 254.64 87.41 256.36 85.69 259.49 81.9 
M 245.07 100.56 248.67 98.37 250.34 97.12 253.38 94.28 256.07 91.03 
M 243.49 108.11 246.48 106.28 247.88 105.24 250.41 102.87 252.65 100.17 
M 241.9 115.66 244.29 114.19 246.46 112.45 249.23 109.3 
M 274.49 53.27 277.16 55.34 278.6 56.08 280.11 56.57 281.71 56.81 285.09 56.69 
M 272.74 60.56 275.21 62.47 276.53 63.15 277.93 63.61 279.4 63.83 282.52 63.71 
M 270.99 67.85 273.25 69.61 274.46 70.23 275.74 70.64 277.09 70.84 279.94 70.74 
M 269.25 75.15 271.3 76.74 272.4 77.3 274.78 77.86 277.37 77.77 
M 267.5 82.44 269.34 83.87 270.33 84.38 272.47 84.88 274.8 84.8 
M 265.75 89.74 267.38 91 269.19 91.75 270.16 91.9 272.23 91.83 
M 264 97.03 265.43 98.14 266.19 98.53 267.85 98.92 269.65 98.85 
M 262.25 104.32 264.12 105.61 265.54 105.94 267.08 105.88 
M 260.51 111.62 262.06 112.68 263.23 112.96 264.51 112.91 
M 290.67 56.31 295.52 54.92 297.79 53.94 299.93 52.74 301.94 51.31 305.66 47.9 
M 288.95 63.43 293.42 62.15 295.51 61.25 297.48 60.14 299.34 58.82 302.77 55.68 
M 287.22 70.56 291.32 69.38 293.23 68.55 295.04 67.54 296.74 66.33 299.88 63.45 
M 285.5 77.68 289.21 76.61 290.95 75.86 292.59 74.94 294.14 73.84 296.99 71.23 
M 283.78 84.8 287.11 83.84 290.15 82.34 291.54 81.35 294.1 79.01 
M 282.05 91.92 285.01 91.07 286.4 90.47 288.94 88.87 291.21 86.78 
M 280.33 99.04 282.91 98.3 284.12 97.78 286.34 96.38 288.32 94.56 
M 278.6 106.17 281.84 105.09 283.74 103.89 285.43 102.34 
M 276.88 113.29 278.71 112.76 280.38 111.94 282.54 110.11 
M 310.98 47.03 315.42 47.83 317.61 47.91 319.78 47.74 321.93 47.3 326.17 45.81 
M 309.16 54.13 313.29 54.88 315.32 54.96 317.34 54.8 319.34 54.39 323.29 53 
M 307.35 61.24 311.16 61.93 313.04 62 314.91 61.85 316.76 61.48 320.41 60.19 
M 305.53 68.34 309.03 68.98 310.76 69.04 312.47 68.91 314.17 68.56 317.53 67.38 
M 303.71 75.45 306.9 76.03 308.48 76.09 311.59 75.65 314.65 74.57 
M 301.89 82.55 304.77 83.08 306.2 83.13 309 82.74 311.76 81.76 
M 300.07 89.66 302.64 90.13 305.17 90.07 306.42 89.82 308.88 88.95 
M 298.25 96.77 300.51 97.17 301.63 97.22 303.83 96.91 306 96.14 
M 296.44 103.87 299.35 104.26 301.25 103.99 303.12 103.33 
M 294.62 110.98 297.07 111.31 298.67 111.08 300.24 110.53 
M 329.36 49.53 329.23 57.88 329.48 62.01 329.99 66.12 330.76 70.19 332.92 78.25 
M 326.57 59.52 326.46 67.03 326.68 70.75 327.14 74.45 327.83 78.11 329.78 85.37 
M 323.78 69.51 323.68 76.19 323.88 79.5 324.29 82.78 324.9 86.04 326.64 92.49 
M 321 79.5 320.91 85.34 321.08 88.24 321.98 93.96 323.49 99.61 
M 318.21 89.49 318.14 94.5 318.59 99.44 319.05 101.89 320.35 106.72 
M 315.43 99.48 315.36 103.65 315.74 107.77 316.13 109.81 317.21 113.84 
M 312.64 109.47 312.69 114.46 313.2 117.73 314.06 120.96 
M 335.69 85.36 336.45 90.46 337.12 92.9 338.03 95.24 339.19 97.49 342.1 101.75 
M 333.21 94.47 333.86 98.86 334.44 100.96 335.23 102.97 336.22 104.9 338.72 108.57 
M 330.73 103.58 331.28 107.26 332.42 110.7 333.25 112.31 335.34 115.38 
M 328.25 112.69 328.69 115.65 329.08 117.07 330.28 119.73 331.97 122.2 
M 325.77 121.81 326.4 125.12 327.31 127.14 328.59 129.02 
M 163.4 186.85 175.56 185.33 184.71 184.87 192.85 183.54 196.98 183.69 205.68 183.02 208.46 183.24 211.91 183.98 215.74 183.63 227.85 183.74 232.27 184.97 236.51 185.58 240.04 186.31 242.44 186.4 232.66 193 229.62 194.54 227.16 196.66 224.43 198.5 220.94 199.29 214.82 201.59 211.42 202.4 208.35 203.55 204.92 204.24 201.93 205.06 199.55 206.49 196.15 206.89 189.8 208.98 186.76 210.16 183.71 209.92 176.95 208.65 172.93 207.68 169.46 207.12 160.41 206.82 158.18 204.88 
M 163.07 188.89 172.38 188.09 175.78 188.17 179.33 188.56 185.3 188.77 193.1 187.38 196.59 187.28 199.44 188.17 202.42 188.54 205.83 188.76 209.09 188.63 212.49 189 216 190.25 219.68 191.22 222.88 190.91 225.77 190.97 228.77 191.9 
M 162.57 190.9 168.77 190.52 172.24 190.6 175.7 190.88 186.15 192.47 193.2 191.81 196.56 192.18 199.29 192.9 202.3 193.21 205.89 194.25 
M 162.03 192.94 168.93 192.79 172.26 193.41 175.53 193.53 179.28 193.99 183.16 195.36 186.79 195.93 196.81 196.93 202.2 197.89 206.11 198.97 209.5 199.5 212.29 200.69 
M 161.45 194.94 162.41 195.12 169.16 195.21 172.33 196.04 175.54 196.45 179.3 197.23 186.43 200.07 189.21 200.2 192.28 200.63 195.71 201.29 199.43 202.24 
M 160.89 196.81 162.5 197.22 169.16 197.74 175.92 199.76 179.57 201.27 
M 160.35 198.74 162.61 199.43 166 199.97 168.98 200.69 176.45 203.23 
M 162.45 201.79 165.6 202.82 169.28 203.65 
M 158.98 202.9 162.02 204.9 
M 228.52 217.9 234.28 225.75 233.5 226.52 225.71 220.69 
M 212.09 218.17 253.75 267.64 252.92 268.36 209.12 220.79 
M 195.65 219.02 239.36 275.91 238.5 276.6 192.56 221.49 
M 185.04 219.86 189.39 228.58 188.49 229.21 181.79 222.14 
M 232.72 225.94 235.18 234.69 236.61 238.98 238.24 243.18 240.12 247.26 242.23 251.23 244.55 255.11 249.58 262.69 
M 248.54 263.61 244.91 263.8 243.19 264.1 241.57 264.6 240.06 265.33 238.67 266.3 237.38 267.48 234.99 270.22 
M 233.91 271.08 224.9 260.43 220.25 255.25 215.43 250.24 210.44 245.42 205.26 240.79 199.93 236.33 188.95 227.7 
M 246.71 263.66 243.19 264.1 241.57 264.6 240.06 265.33 238.67 266.3 236.17 268.81 
M 240.5 257.53 237.47 257.91 236.08 258.33 234.78 258.97 233.59 259.8 231.43 261.96 
M 234.29 251.4 231.76 251.71 230.59 252.07 228.5 253.3 226.7 255.1 
M 228.08 245.27 226.04 245.52 224.23 246.24 223.42 246.8 221.97 248.25 
M 221.87 239.14 220.32 239.33 218.95 239.87 217.23 241.4 
M 390.99 214.23 394.26 220.92 396.86 224.92 400.59 229.98 393.97 229.64 388 232.03 384.76 232.91 382.43 234.67 379.04 235.45 376.07 236.74 372.71 237.67 369.61 238.25 365.62 237.77 361.82 238.58 358.81 240.17 354.64 245.24 352.19 247.34 350.99 250.37 350.85 254.44 350.08 257.96 348.14 260.55 345.11 262.16 339.03 266.08 338.22 263.85 338.52 261.34 336.67 257.68 334.34 253.71 333.44 249.52 332.05 245.37 328.43 239.56 326.13 237.07 320.1 227.58 317.06 220.54 314.51 216.11 
M 385.49 214.58 389.38 219.78 
M 380 214.93 385.72 219.15 388.85 224.77 
M 374.5 215.25 379.62 219.56 382.54 223.85 384.53 229.84 
M 369.01 215.56 373.85 220.57 378.83 229.52 
M 363.51 215.86 370.69 225.23 
M 358.02 216.15 362.17 221.06 365.16 224.92 367.43 228.42 369.52 233.14 
M 352.52 216.37 356.27 221.33 358.23 224.67 360.83 228.25 362.04 232.84 364.31 235.65 
M 347.01 216.58 350.29 221.01 352.09 224.82 354.51 229.07 357.16 232.74 359.29 236.24 
M 341.51 216.63 346.61 224.65 348.82 228.72 351.88 232.66 352.95 236.03 353.46 239.12 355.46 242.49 
M 336.01 216.67 338.49 221.94 339.85 225.59 343 232.91 345.64 235.51 350.75 246.77 
M 330.5 216.52 332.59 221.44 334.5 225.28 335.74 229.47 336.79 233.83 338.39 236.9 
M 325 216.37 327.13 221.51 328.74 224.67 330.87 228.05 331.79 231.9 333.42 235.52 335.51 238.39 338.3 240.76 340.88 244.18 
M 319.5 216.23 323.78 225.05 325.93 228.33 328.81 234.61 332 238.13 334.14 239.87 335.15 243.08 337.57 246.32 339.31 250.71 340.81 255.44 
M 423.76 157.88 428.03 157.29 430.92 155.72 433.45 153.77 436.38 152.18 439.65 150.81 443.03 149.7 446.82 148.03 450.24 147.02 455.25 143.32 463.99 137.25 466.74 136.23 470.58 134.4 473.14 132.62 475.22 130.81 477.5 128.46 480.6 125.85 489.19 122.82 490 119.82 482.68 132.83 481.45 135.81 480.91 139.46 479.14 146.13 477.17 148.44 475.79 151.35 473.95 154.15 471.17 156.03 468.74 158.27 466.77 160.73 465.38 163.75 463.06 166.04 460.91 168.51 459.48 171.68 457.22 174.03 455.24 176.66 453.08 179.03 451.15 181.64 449.6 184.59 449.14 188.36 449.09 191.88 448.57 194.96 449.21 198.68 450.84 201.88 452.54 204.17 454.39 207.15 456.2 212.25 457.24 216.24 457.52 219.5 457.54 222.47 457.35 225.21 457.96 227.44 461.93 232.23 463.01 237.35 459.81 236.11 456.93 234.17 452.53 232.77 449.93 231.08 447.35 228.87 444.23 226.72 441.02 223.47 437.02 220.23 434.71 218.1 431.67 216.89 428.49 215.06 423.76 211.58 
M 423.76 160.56 428.22 160.57 431.2 159.33 439.68 154.03 447.88 151.91 451.81 150.43 454.45 149.23 457.16 147.85 458.68 145.78 461.72 143.03 464.69 142.51 467.99 142.4 472.38 140.64 
M 423.76 163.25 428.27 163.51 431.86 162.56 434.21 161.21 437.9 159.58 441.04 158.28 444.89 157.13 449.48 156.49 453.79 156.57 455.95 154.17 458.22 153.23 459.72 150.88 462.78 148.6 465.75 147.89 
M 428.49 166.53 432.05 166.05 435.14 165.22 438.31 164.09 441.69 162.67 449.55 160.75 453.76 159.89 456.77 158.33 459.88 156.44 463.86 155.04 
M 423.76 168.62 428.61 169.56 432.14 169.05 435.65 168.76 438.27 167.52 442.42 166.81 446.73 165.09 454.15 163.72 
M 428.61 172.45 435.69 171.83 439.04 170.97 442.61 169.74 451.55 167.48 455.64 167.35 459.52 166.33 461.42 165.02 
M 432.91 174.98 437.56 174.38 441.3 174.12 444.13 173.41 
M 438.07 177.66 442.07 177.82 445.87 178.48 448.24 179.1 
M 433.76 180.57 442.66 181.61 
M 433.15 183.8 437.92 184.44 
M 432.68 187.18 437.06 187.23 441.6 188.11 
M 428.91 190.53 436.74 190.14 440.38 190.87 
M 423.76 190.1 428.64 192.79 433.3 193.8 436.76 193.76 439.76 194.59 444.24 196.98 447.25 197.36 
M 428.43 194.93 432.75 196.62 437.06 197.26 441.01 199.19 447.48 201.01 
M 432.19 199.13 436.35 200.67 443.35 202.88 
M 436.47 204.59 439.88 206.12 442.99 206.86 447.36 208.29 
M 435.34 207.55 442.96 211.63 447.73 212.17 
M 423.76 203.53 428.95 206.02 434.77 210.24 437.85 212.07 
M 423.76 206.21 428.79 209.01 432.13 211.2 435.08 213.55 437.61 214.29 445.31 218.28 454.56 222.42 455.99 223.97 458.1 226.83 
M 432.23 214.88 437.53 217.07 444.03 221.27 
M 390.99 155.26 395.21 151.02 399.29 146.63 401.24 144.34 404.77 139.41 406.97 137.38 410.02 136.19 413.68 135.64 418.04 136.51 422.15 139.13 425.14 142.95 426.62 147.37 426.29 151.37 424.34 154.05 421.57 155.08 412.84 156.59 
M 400.26 149.89 404.77 143.81 406.97 141.78 410.02 140.59 413.68 140.04 415.86 140.48 
M 39.77 184 49.58 176.48 68.03 163.2 75.5 159.41 83.61 155.78 101.1 151.54 109.64 149.18 127.78 145.86 145.45 143.63 158.42 142.6 161.54 142.57 166.89 147.56 168.15 151.94 168.28 156.17 165.25 168.37 165.4 172.6 164.31 176.66 163.71 184.99 163.03 189.11 159.65 201.26 156.53 209.24 153.95 217.3 150.66 220.92 135.37 219.99 124.1 218.64 104.87 215.41 96.56 213.67 89.38 211.62 69.03 205.17 56.38 200.54 51.75 198.32 
M 134.13 170.26 132.94 173.72 132.02 177.16 130.76 180.4 129.09 183.24 125.86 187.76 124.92 189.63 124.32 191.57 124.49 193.65 125.35 196.33 126.6 199.36 126.25 202.43 116.12 202.35 108.69 202.09 94.61 201.3 87.86 200.58 81.81 199.28 76.01 197.6 
M 41.89 192.64 37.41 189.85 35.43 187.79 35.51 184.98 37.78 183.39 40.43 184.21 46.03 190.52 52.08 197.93 
M 51.54 198.91 35.35 195.42 32.58 194.66 30.25 192.98 30 190.34 31.73 188.51 34.38 188.73 39.33 191.43 46.76 195.1 51.88 197.82 
M 95.14 182.72 92.8 179.43 91.65 175.56 91.81 171.53 93.28 167.76 95.89 164.68 99.36 162.62 103.31 161.79 107.32 162.29 110.95 164.06 113.8 166.91 115.57 170.54 116.07 174.55 115.25 178.5 113.18 181.97 110.1 184.58 106.34 186.05 102.3 186.21 98.43 185.06 95.14 182.72 
M 111.8 168.34 113.22 171.24 113.62 174.45 112.96 177.61 111.31 180.38 108.84 182.47 105.83 183.65 102.6 183.78 99.51 182.86 96.88 180.98 
M 99.52 176.69 98.58 175.37 98.12 173.82 98.19 172.21 98.78 170.71 99.82 169.47 101.21 168.65 102.79 168.31 104.39 168.51 105.84 169.22 106.99 170.37 107.7 171.82 107.9 173.42 107.56 175 106.74 176.39 105.5 177.43 104 178.02 102.39 178.09 100.84 177.62 99.52 176.69 
M 99.18 176.17 100.13 177.12 
M 99.08 173.1 104 178.02 
M 101.64 172.68 105.98 177.03 
M 101.65 169.73 107.33 175.4 
M 103.33 168.43 107.83 172.93 
M 40.61 183.36 46.35 189.1 
M 44.38 180.52 48.26 184.41 
M 48.1 177.64 53.27 182.81 
M 51.9 174.83 57.79 180.73 
M 55.75 172.08 61.43 177.75 
M 59.57 169.29 64.47 174.19 
M 63.4 166.51 69.15 172.27 
M 67.25 163.76 71.23 167.74 
M 71.52 161.43 77.79 167.69 
M 75.92 159.22 80.93 164.23 
M 80.48 157.18 85.06 161.75 
M 85.29 155.38 88.97 159.06 
M 90.64 154.12 95.54 159.02 
M 95.94 152.82 100.73 157.6 
M 101.23 151.5 107.38 157.65 
M 106.41 150.07 112.98 156.64 
M 111.73 148.79 117.58 154.64 
M 117.29 147.75 123.75 154.21 
M 122.89 146.74 129.09 152.94 
M 128.51 145.76 133.57 150.81 
M 134.33 144.97 140.36 151 
M 140.21 144.24 145.3 149.33 
M 146.14 143.56 151.21 148.63 
M 152.2 143.03 158.27 149.09 
M 158.39 142.6 162.29 146.51 
M 142.73 193.24 141.78 194.24 138.82 195.94 137.78 196.74 135.42 197.85 133.43 199.12 132.63 199.83 131.81 200.03 
M 103.94 206.89 103.34 205.32 102.68 202.7 101.64 201.83 101.31 201.89 100.91 202.26 
M 141.38 219.52 140.79 220.32 
M 87.38 195.14 85.04 197.79 83.54 200.02 82.54 200.75 81.47 200.78 
M 150.27 167.59 152.34 165.29 153.89 163.22 154.52 162.72 155.09 162.54 158.43 162.48 158.98 162.59 159.71 163.28 
M 106.48 200.18 105.64 199.68 102.89 199.17 102.11 199.21 101.35 199.62 100.79 200.46 100.56 202.07 
M 53.26 173.86 53.37 175.35 
M 116.12 147.97 114.5 151.1 112.61 153.86 109.77 155.45 
M 92.09 212.39 91.78 210.99 91.9 209.5 91.81 208.85 
M 130.47 157.8 130.76 155.84 130.41 149.95 130.96 147.24 
M 56.18 187.35 56.01 188.68 55.26 189.69 53.13 191.25 51.31 191.87 49.97 193.13 
M 160.05 177.23 161.23 178.13 161.65 178.71 162.09 179.73 162.33 180.96 162.3 181.72 162.05 182.48 160.29 186.1 160.04 186.85 160.05 187.54 
M 65.88 201.86 64.95 201.71 63.81 201.16 61.09 199.47 55.89 195.32 54.91 194.79 53.78 194.49 
M 47.14 191.59 47 191.7 
M 104.68 157.86 107.55 156.82 109.77 155.59 
M 114.99 164.84 114.19 164.45 113.14 162.66 112.58 161.24 112.28 158.84 112.07 158.32 
M 69.48 162.85 70.07 162.59 71.62 162.78 73.68 164.43 
M 102.49 186.59 101.66 186.39 100.19 185.59 
M 123.23 146.67 123.6 147.06 124.08 147.17 124.75 146.84 125.32 146.3 
M 121.03 176.73 120.55 176.38 119.66 176.27 115.47 177.42 
M 143.96 150.73 142.27 149.54 140.56 147.78 137.46 146.58 136.63 146.52 136 146.72 
M 153.02 200.45 154.45 200.94 155.94 201.89 156.3 201.94 157.09 201.61 
M 146.98 218.51 149.18 216.54 152.14 214.77 153.06 214.03 154.68 213.88 
M 146.31 163.14 146.1 160.64 145.64 159.79 145.2 159.47 143.87 159.12 140.99 159.15 140.09 159.01 138.51 158.28 
M 146.97 205.55 149.12 206.08 152.77 206.61 153.49 207.07 154.02 207.71 
M 130.4 189.84 126.86 188.88 123.78 186.78 
M 129.41 178.52 125.72 178.07 124.52 178.1 122.99 178.41 122.83 178.49 122.87 178.68 
M 159.75 175.36 163.8 176.48 164.38 176.39 
M 117.44 185.85 121.55 188.7 122.22 188.81 122.6 188.37 
M 129.97 210.49 131.77 210.83 133.8 210.42 134.46 209.85 136.1 207.15 
M 154.74 189.98 154.14 189.98 153.01 189.49 151.9 188.75 151.44 188.16 148.52 180.78 148 179.85 147.68 179.03 147.6 178.22 
M 160.93 155.83 158.66 150.62 157.52 148.89 156.22 147.79 154.54 147.21 152.67 146.95 
M 126.62 207.73 126.13 207.53 124.47 207.35 124.06 207.62 123.62 208.27 
M 139.99 146.3 137.07 146.09 136.29 146.33 135.14 146.97 134.32 147.13 
M 142.45 146.9 142.01 147.32 141.22 147.53 139.91 147.31 137.32 146.47 136.51 146.48 135.9 146.73 
M 139.59 204.21 139.96 203.61 141.42 202.49 141.58 201.48 141.37 200.94 
M 107.68 162.46 109.6 160 111.5 158.31 111.54 158.03 
M 109.64 159.88 111.49 158.28 111.48 157.98 
M 131.49 163.39 131.26 163.42 
M 159.11 177.59 159.99 178.32 160.39 178.87 160.95 180.36 161.04 181.18 160.55 182.88 158.72 187.05 158.62 188.59 
M 138.33 199.92 137.95 200.43 137.87 201.01 138.02 201.51 138.61 202.1 139.43 202.36 140.27 202.3 140.89 202.07 141.31 201.46 
M 86.49 160.34 84.28 159.76 83.99 159.37 84.25 158.86 
M 158.36 163.56 160.12 164.1 161.51 165.01 162.65 166.59 
M 105.14 201.63 103.69 200.18 102.94 199.89 101.97 199.87 101.21 200.38 100.99 200.77 100.72 202.12 100.44 202.48 
M 162.51 168.63 163.1 168.65 164.29 169.37 165.29 169.5 
M 72.49 180.25 72.9 181.29 73.03 182.97 72.77 184.07 71.78 186.45 70.98 187.27 69.45 188.27 67.63 188.91 65.67 189.83 64.77 190.06 
M 101.79 214.1 98.47 213.88 97.72 213.6 96.79 212.8 96.17 212 95.93 211.26 95.8 209.83 
M 159.16 153.06 158.03 150.9 156.62 149.36 155.05 148.48 152.16 147.78 151.17 147.33 150.72 146.94 
M 45.63 197.61 52.53 200.48 56.62 201.9 60.78 203.13 69.03 205.17 
M 53.18 199.79 51.44 200.04 
M 168.18 152.93 168.26 153.01 
M 166.71 142.65 174.31 150.25 
M 175.62 142.75 184.43 151.56 
M 184.61 142.93 192.02 150.35 
M 193.75 143.27 203.85 153.37 
M 203.15 143.86 210.54 151.25 
M 212.49 144.4 221.99 153.89 
M 221.79 144.89 229.62 152.71 
M 231.2 145.49 240.3 154.59 
M 240.78 146.26 249.46 154.94 
M 250.34 147.01 259.29 155.96 
M 259.69 147.56 267.21 155.07 
M 268.85 147.91 279.48 158.54 
M 277.97 148.22 289.23 159.48 
M 287.15 148.6 295.11 156.55 
M 296.46 149.1 309.31 161.95 
M 305.87 149.7 315.91 159.74 
M 315.32 150.35 328.22 163.24 
M 324.61 150.83 335.15 161.37 
M 333.87 151.28 340.61 158.01 
M 343.23 151.83 353.62 162.23 
M 352.78 152.58 362.99 162.79 
M 362.47 153.46 372.67 163.65 
M 372.09 154.26 383.48 165.66 
M 381.48 154.85 391.26 164.63 
M 390.68 155.24 400.6 165.17 
M 399.92 155.67 409.51 165.26 
M 409.38 156.33 416.32 163.26 
M 419.2 157.34 430.23 168.37 
M 430.41 159.74 432.55 161.89 
M 234.83 291.39 232.94 297.7 
M 234.83 291.39 238.73 291.39 
M 233.93 294.39 236.33 294.39 
M 232.94 297.7 236.84 297.7 
M 239.9 293.5 238.64 297.7 
M 239.54 294.7 240.71 293.8 241.4 293.5 242.3 293.5 242.81 293.8 242.84 294.7 241.94 297.7 
M 242.84 294.7 244.01 293.8 244.7 293.5 245.6 293.5 246.11 293.8 246.14 294.7 245.24 297.7 
M 249.23 291.39 249.44 291.7 249.83 291.39 249.62 291.1 249.23 291.39 
M 248.9 293.5 247.64 297.7 
M 254.03 294.39 253.91 293.8 253.1 293.5 252.2 293.5 251.21 293.8 250.73 294.39 250.85 295 251.36 295.3 252.77 295.6 253.28 295.89 253.31 296.8 252.83 297.39 251.84 297.7 250.94 297.7 250.13 297.39 250.01 296.8 
M 258.8 293.5 259.34 297.7 
M 262.39 293.5 259.34 297.7 
M 267.5 293.5 266.24 297.7 
M 267.23 294.39 266.81 293.8 266.3 293.5 265.39 293.5 264.71 293.8 263.93 294.39 263.36 295.3 263.18 295.89 263.21 296.8 263.63 297.39 264.14 297.7 265.03 297.7 265.73 297.39 266.51 296.8 
M 272.93 294.39 272.51 293.8 272 293.5 271.1 293.5 270.41 293.8 269.63 294.39 269.06 295.3 268.88 295.89 268.91 296.8 269.33 297.39 269.83 297.7 270.74 297.7 271.43 297.39 272.2 296.8 
M 275.3 293.5 274.39 296.5 274.43 297.39 274.94 297.7 275.83 297.7 276.52 297.39 277.7 296.5 
M 278.6 293.5 277.33 297.7 
M 283.73 294.39 283.61 293.8 282.8 293.5 281.89 293.5 280.91 293.8 280.43 294.39 280.55 295 281.06 295.3 282.47 295.6 282.98 295.89 283.01 296.8 282.52 297.39 281.54 297.7 280.64 297.7 279.83 297.39 279.7 296.8 
M 285.32 297.1 284.93 297.39 285.14 297.7 285.52 297.39 285.32 297.1 
"/></svg>
