<svg xmlns="http://www.w3.org/2000/svg" width="520" height="320"><rect x="0" y="0" width="520" height="320" fill="floralwhite"/><rect x="10" y="10" width="500" height="300" stroke="black" stroke-width="1" fill="none"/><path stroke="black" stroke-width="1" fill="none" stroke-linecap="round" stroke-linejoin="round" d="
M 157.78 117.73 169.77 111.9 179.09 108.67 188.59 106.05 197.9 102.82 207.38 100.11 217.02 98.05 226.86 97.5 236.72 97.51 246.57 97.18 256.33 98.57 265.97 100.65 275.69 102.29 285.2 104.86 294.45 108.27 303.57 112.02 312.5 116.2 321.05 121.1 329.33 126.45 337.48 132 357.31 145.93 
M 357.31 182.3 330.76 197.68 322.08 202.36 313.25 206.74 304.21 210.66 295.02 214.24 285.71 217.47 276.13 219.78 266.44 221.61 256.82 223.77 247.31 226.37 237.69 228.49 227.83 228.74 218.01 227.93 208.45 225.5 198.85 223.3 189.18 221.35 179.73 218.56 170.52 215.04 161.56 210.94 149.68 204.08 
M 166.88 154.9 170.52 155.05 
M 188.75 151.72 191.91 150.99 
M 195.43 150.62 199.32 150.58 
M 206.92 150.43 212.25 149.94 214.21 149.98 
M 221.98 149.98 233.54 149.41 
M 241.14 148.41 246.41 147.48 250.08 147.05 254.09 147.11 267.52 148.77 282.34 150.31 
M 286.39 150.71 290.2 150.92 
M 293.85 151 303.13 151.54 314.48 152.76 326.55 155.1 332.74 156.51 
M 345.21 159.5 352.85 160.92 
M 158.28 193.75 161.39 204.9 
M 164.99 191.09 166.77 200.5 169.21 208.98 
M 168.48 131.35 167.23 134.67 
M 165.9 137.86 164.49 140.9 
M 172.18 194.41 172.68 196.85 174.56 202.41 
M 176.79 209.74 177.58 214.26 
M 176.92 128.74 175.45 131.88 
M 174.09 135.08 173.47 136.72 171.94 141.86 
M 168.91 151.82 167.87 154.11 
M 170.29 162.97 171.44 166.2 
M 181.53 198.71 184.08 208.99 
M 185.66 215.72 185.98 217.21 
M 186.96 117.39 183.41 130.35 181.73 135.49 
M 179.62 142.26 178.64 145.64 
M 177.65 148.95 176.67 152.56 
M 191.28 204.93 193.01 211.97 
M 193.77 215.41 194.61 218.97 
M 191.99 120.15 189.58 127.11 
M 188.68 130.8 187.95 134.58 
M 185.92 145.76 183.82 153.01 
M 199.3 205.6 199.66 207.12 
M 200.42 210.56 201.56 215.74 202.24 218 
M 203.14 109.96 201.41 113.14 
M 199.98 116.56 197.7 123.79 
M 196.84 127.59 194.79 139.11 
M 193.96 142.7 192.24 149.42 
M 209.01 209.39 210.08 214.55 211.61 220.33 
M 209.59 115.7 208.96 117.5 207.57 123.28 
M 206.71 127.12 205.9 130.95 
M 203 146.08 202.15 149.23 
M 219.73 212.38 219.73 212.39 
M 220.33 215.73 221.26 220.11 
M 224.59 105.61 222.73 108.79 
M 218.65 119.47 217.61 125.61 216.83 129.53 216.31 131.33 
M 213.12 141.82 211.54 148.63 
M 231.24 216.2 232.97 223.28 
M 234.05 109.36 232.16 112.46 
M 230.51 115.75 229.76 117.45 228.78 121.32 227.58 129.63 227.04 131.42 
M 224.49 138.09 223.38 141.52 
M 222.46 145.08 221.32 150.04 
M 242.37 214.76 243.21 217.31 
M 239.73 120.97 238.7 124.77 
M 237 132.55 235.62 138.13 232.16 147.12 
M 253.05 212.46 256.71 221.74 
M 254.9 108.21 253.23 111.59 
M 251.71 115.09 248.27 123.95 246.82 129.69 
M 245.95 133.55 244.11 141.02 
M 259.99 199.31 267.06 219.58 
M 263.32 113.05 261.66 116.41 
M 259.93 119.63 259.05 121.21 257.57 124.6 255.32 134.26 
M 253.02 141.29 250.67 147.01 
M 257.27 162.95 258.54 166.27 
M 269.4 193.79 270.46 196.81 274.59 207.14 
M 275.85 210.99 277.75 218.1 
M 275.4 112.72 273.87 116.22 
M 270.5 122.74 269.68 124.37 268.41 127.94 266.66 135.71 265.5 139.23 262.38 146.94 
M 272.62 172.03 274.14 175.62 
M 275.73 179.3 282.72 196.22 284.76 201.82 
M 285.78 205.29 286.76 208.79 
M 287.77 212.37 288.75 216.42 
M 287.49 113.67 286.76 115.46 282.47 123.59 
M 280.96 126.95 280.28 128.69 279.39 132.6 278.52 138.83 
M 277.45 142.44 276.74 144.07 273.41 149.27 
M 277.53 158.5 279.41 162.4 
M 281.29 166.29 283.07 170.09 
M 284.69 173.74 290.06 186.43 294.5 197.57 296.87 204.7 299.12 212.65 
M 294.27 124.87 290.4 133.07 288.4 138.17 
M 287.31 141.75 285.72 147.12 284.34 150.54 
M 291.8 167.01 295.4 174.63 
M 297.34 178.61 301.48 186.92 
M 304.51 194.3 307.07 202.59 308.36 208.86 
M 306.95 117.84 305.87 121.77 
M 301.95 132.46 299.66 137.29 294.18 150.99 
M 301.9 167.62 304.43 173.12 306.52 177.22 311.61 186.41 312.52 188.38 
M 313.98 191.98 317.01 201.75 
M 309.66 136.17 308.85 137.75 307.19 143.15 
M 306.01 146.63 303.89 151.6 
M 306.34 156.97 308.14 160.71 
M 311.86 168.3 317.53 178.89 319.51 182.89 322.51 190.06 326.25 200.11 
M 322.48 130.87 319.8 135.56 318.22 138.82 314.88 149.68 313.76 152.65 
M 316.28 158.01 320.23 165.75 
M 324.82 174.18 327.91 180.22 334.36 195.61 
M 331.65 136.7 329.72 139.7 
M 326.86 146.56 325.22 152.07 324.27 154.66 
M 333.29 172 342.67 190.81 
M 215.43 132.32 213.59 132.98 210.87 134.5 208.71 135.26 206.83 136.87 205.13 137.43 
M 298.21 189.24 296.05 187.18 293.96 185.47 292.45 183.5 289.85 181.21 288.88 179.76 
M 190.29 134.15 192.78 135.13 
M 206.08 122.85 203.3 123.71 201.96 124.96 201.09 125.36 200.84 125.65 
M 190.16 215.41 190.09 214.06 190.61 213.05 191.8 212.07 193.44 211.16 195.44 209.61 196.12 208.76 
M 288.79 193.84 288.41 193.98 288.07 194.41 287.57 196.29 286.78 197.78 284.8 199.47 
M 278.77 192.13 279.46 191.52 279.69 190.93 279.69 190.33 279.38 189.21 278.76 188.3 278.15 187.74 277.67 187.66 277.17 187.78 
M 281.82 194.7 281.57 197.47 281.22 199.06 280.82 199.96 279.27 202.87 277.95 204.49 276.73 205.52 
M 280.54 131.5 283.82 131.88 284.26 132.06 284.82 132.6 
M 219.91 113.88 218.83 111.81 218.38 111.34 217.48 111.09 215.13 111.39 
M 357.22 153.79 356.77 155.8 356.97 157.23 
M 269.39 164.55 268.51 164.23 265.79 161.91 264.94 160.85 264.5 160 
M 236.86 140.13 239.79 139.26 240.91 139.4 
M 215.53 124.7 213.59 124.36 210.69 124.43 207.91 123.19 206.75 123.12 
M 209.35 133.35 205.14 134.18 203.43 133.78 202.26 132.82 
M 233.25 224.36 232.67 224.13 229.5 223.71 225.98 223.49 
M 260.23 202.64 259.32 203.13 258.68 204.15 258.08 204.67 
M 331.45 161.32 334.72 161.66 336.43 161.42 336.96 161.8 
M 325.39 200.58 326.18 199.74 326.94 199.22 327.27 198.53 
M 258.87 202.06 258.95 202.59 
M 322.37 183.8 321.12 181.87 320.24 181.62 
M 226.69 126.04 224.77 126.2 220.97 127.24 219.65 127.45 217.24 127.56 215.46 127.19 212.37 127.05 
M 297.53 128.12 294.81 124.17 292.91 122.34 291.75 120.84 
M 273.97 138.76 274.11 137.87 275.4 135.63 275.91 134.32 275.99 131.68 275.88 130.47 
M 202.22 218.45 199.1 217.13 197.6 216.91 197.22 216.62 
M 269 119.1 268.78 120.87 267.85 122.91 267.98 123.74 268.92 125.37 269.02 126.42 
M 180.99 149.25 180.78 147.67 179.87 146.33 174.86 143.93 173.63 142.79 
M 339.95 169.24 339.12 170.76 338.53 172.7 337.26 175.82 337.65 176.73 339.08 177.6 
M 244.33 109.72 245.41 109.65 246.06 109.92 247.23 111.92 248.42 113.3 249.63 115.31 
M 189.66 105.75 189.66 105.75 
M 195.48 103.67 196.74 89.77 199.25 84.46 200.05 81.35 202.53 76.45 203.45 73.7 204.81 71.29 206.97 69.65 209.18 64.27 212.87 60.04 215.02 58.25 216.58 55.81 220.44 51.66 223.13 50.35 227.67 47.34 230.36 46.45 233.28 45.78 236.57 45.49 242.38 43.93 244.44 42.31 246.8 41.87 250.41 42.07 253.1 40.79 255.51 39.2 257.62 37.32 259.37 35.08 261.82 33.93 263.68 32.21 265.27 30.24 268.23 29.99 271.1 30.42 277.5 31.93 281.36 33.24 284.2 32.61 288.91 30.37 291.77 30.18 294.97 30.77 297.55 30.73 299.69 31.12 301.21 33.35 302.35 35.91 303.84 38.18 312.27 48.63 319.82 53.21 328.15 57.77 332.63 60.05 335.87 61.32 339.18 62.39 340.86 63.84 338.61 68.15 337.47 73.74 337.55 77.23 336.87 79.95 335.86 82.14 338.36 89.49 338.62 92.18 338.29 94.81 336.88 96.55 336.35 99.53 323.27 122.49 
M 317.4 118.83 317.39 118.82 
M 194.1 104.16 194.11 104.16 
M 195.19 103.77 194.7 102.58 194.68 96.62 196.38 93.08 
M 198.57 102.62 199.97 101.67 200.75 99.5 200.65 96.82 200.86 93.13 
M 203.1 101.3 204.62 99.56 205.53 97.41 205.57 94.55 206.37 87.06 205.7 85.7 205.06 83.58 
M 207.65 100.04 208.62 98.37 210.23 89.92 209.92 87.73 210.05 85.22 208.6 82.2 
M 212.22 98.88 213.16 96.97 214.3 91.61 214.64 89.03 214.62 86.36 213.94 80.73 214.59 78.63 215.71 77.25 216.6 74.95 216.85 71.83 
M 216.87 98.07 218.6 95.99 219.24 93.68 220.15 88.71 219.66 84.66 219.96 82.72 220.9 79.46 222.59 75.58 223.28 72.61 224.09 66.84 223.58 66.32 
M 221.55 97.42 223.65 95.42 224.5 93.3 225.6 87.95 225.58 86.34 225.88 83.83 226.5 81.38 227.65 78.92 229.69 72.6 230.05 69.69 230.12 64.27 
M 226.27 97.49 228.24 95.69 228.96 93.2 229.91 91.19 230.81 88.79 231.17 86.58 232.35 84.85 233.69 82.24 233.91 78.66 235.06 75.25 235.56 72.13 237.86 68.15 237.51 65.57 237.78 62.55 238.58 60.3 
M 230.99 97.54 232.7 95.51 233.43 93.4 234.51 91.67 236.32 86.38 236.64 84.05 238.22 78.17 239.94 75.51 240.99 73.56 241.84 70.57 242.46 67.29 242.12 65.7 242.44 63.43 243.43 60.5 243.64 58.41 245.09 56.39 
M 235.71 97.51 237.13 95.73 238.18 93.71 239.91 89.05 240.6 86.63 241.65 80.67 242.63 78.09 243.4 75.29 244.97 71.75 245.83 69.35 246.57 66.69 247.7 61.81 247.34 59.2 
M 240.43 97.35 241.77 95.63 243.16 91.21 244.19 88.77 244.54 85.55 245.05 82.97 245.23 80.1 246.18 76.87 246.74 73.41 248.01 71.25 249.19 67.21 249.55 64.93 250.4 61.77 250.96 58.49 251.18 55.81 
M 245.14 97.1 246.84 95.19 247.58 92.71 248.04 90.38 249.11 87.76 249.68 84.95 251.57 80.16 252.29 77.3 253.63 74.72 255.04 73.13 257.1 67.26 258.29 61.88 259.91 59.68 261.4 56.4 262.36 52.75 262.63 50.36 
M 249.84 97.51 251.76 95.59 253.03 93.23 257.37 86.52 257.9 83.97 258.58 81.9 259.68 79.57 262.54 74.85 265.15 69.01 265.68 66.52 266.6 64.62 267.6 60.9 268.63 58.01 270.1 52.86 270.91 51.09 272.73 49.29 273.86 46.25 275.98 43.05 277.14 40.39 277.62 37.97 278.91 34.67 
M 254.52 98.13 260.39 92.05 262.01 89.73 262.7 87.33 265.31 82.38 266.65 79.45 267.87 75.98 270.47 72.47 271.64 69.46 274.35 66.04 278.33 57.08 279.77 55.67 281.34 52.63 281.72 50.06 282.75 47.99 284.42 46.58 284.28 42.54 285.13 39.06 
M 259.11 99.26 261.07 97.47 264.86 93.29 266.45 90.96 267.56 88.56 269.92 85.81 270.87 82.87 274.27 78.93 275.26 76.14 276.91 74.47 278.65 72.4 279.81 70.32 280.46 67.87 
M 263.72 100.25 265.79 98.73 267.31 96.85 268.79 94.44 272.91 86.5 274.58 84.24 276.31 82.62 277.39 79.94 278.64 77.84 280.43 75.57 281.73 73.4 283 70.14 283.42 67.96 285.55 62.71 286.76 61.23 288.6 59.44 289.71 56.35 291.04 53.66 293.84 50.05 294.84 47.21 296.39 45.4 
M 268.37 101.08 270.44 99.55 271.89 97.57 273.51 95 276.58 88.31 278.08 85.9 280.37 83.01 283.99 75.28 287.01 70.25 290.57 61.35 292.14 58.71 294.72 54.86 
M 273.02 101.86 275.03 100.08 276.38 97.7 279.28 93.36 279.92 91.5 281.44 89.11 283.46 87.37 284.66 85.05 286.31 82.94 286.79 79.34 287.88 75.38 289.79 73.11 291.61 70.41 291.85 68.1 292.9 65.72 294.52 62.99 296.92 60.59 300.87 55.33 
M 277.68 102.63 279.7 100.81 281.48 98.62 283.97 94.8 286.47 90.15 288.54 88.48 290.28 86.47 291.67 84.12 292.5 81.35 294.76 78.49 298.33 73.01 300.1 71.01 301.2 68.58 302.82 66.75 303.86 64.34 
M 282.21 103.97 284.36 102.66 286.08 100.88 289.03 96.83 291.09 94.56 293.11 91.82 295.48 89.58 297.73 84.78 299.06 82.8 300.68 80.7 303.2 77.96 305.34 76.11 306.75 73.83 308.14 72.04 310.75 67.63 
M 286.71 105.39 289.1 104.33 291.06 101.96 293.47 99.53 297.4 94.92 302.38 89.57 304.06 86.81 306.58 84.88 307.92 83.02 311.68 79.06 311.89 76.41 313.03 74.65 316.3 71.01 317.87 66.8 320.56 63.26 324.77 60.54 
M 291.14 107.02 293.66 105.53 296.33 103.37 298.36 101.44 299.97 99.49 301.94 97.6 303.72 95.44 304.98 93.36 305.37 90.24 307.99 88.78 311.2 87.62 316 82.69 318.07 81 320.04 76.99 320.21 74.71 322.21 72.29 324.38 70.09 326.97 68.25 
M 295.55 108.71 297.96 107.32 302.71 103.93 304.67 101.88 306.64 100.2 308.03 98.02 309.16 95.55 311.3 92.36 317.75 86.66 320.81 84.84 324.68 79.89 
M 299.92 110.48 302.37 109.39 308.95 104.35 310.4 101.96 313.37 97.7 316.12 95.45 318.39 92.9 320.31 91.78 322.13 90.32 
M 304.27 112.32 307.01 111.46 309.18 110.01 311.06 108.46 315.88 102.12 318.3 100.3 323.72 96.95 
M 308.6 114.19 311.34 113.8 315.45 110.12 317.63 108.73 321.03 105.93 322.83 103.64 324.7 102.18 
M 312.8 116.36 315.68 116.35 318.31 115.25 321.44 113.22 324.61 111.81 326.56 110.59 328.24 108.35 330.42 106.21 
M 162.09 168.49 165.67 167.37 168.47 167.17 170.69 167.59 172.64 167.48 175.62 166.49 178.61 164.35 181.77 163.27 187.31 160.75 188.9 160.98 190.6 160.53 193.53 159.18 227.46 155.08 230.19 155.36 232.18 154.9 235.78 156.05 238.56 156.37 244.41 157.62 245.76 158.13 251.32 162.04 253.36 163.25 256.42 165.48 258.8 168.11 264.6 175.56 272.06 183.92 272.23 186.99 271.38 190.02 270.29 192.81 268.39 194.91 266.26 196.61 263.29 197.47 260.63 198.64 258.75 200.59 256.6 202.27 255.63 204.7 256.09 208.24 255.3 210.52 253.18 212.37 251.01 213.79 248.1 214.46 244.56 214.51 241.33 214.87 239.34 216.46 235.29 217.55 194.28 203.88 190.47 202.84 187.11 200.82 184.52 198.97 178.99 196.87 176.25 195.42 169.79 193.8 159.52 188.1 
M 161.65 170.63 165.47 169.62 167.98 169.18 172.88 169.22 175.79 168.54 178.65 167.2 184.8 165.86 186.99 164.78 189.32 164.7 191.67 164.96 198.61 163.09 202.59 162.63 205.66 161.95 209.07 161.44 212.8 161.11 215.61 161.05 217.81 160.39 220.62 157.38 222.99 155.29 
M 162.22 172.6 167.85 171.59 173.65 171.26 179.37 170.07 185.28 169.22 187.83 168.6 190.46 168.37 192.2 168.42 195.45 167.46 204.52 166.35 207.23 164.57 213.3 164.2 
M 161 174.91 165.45 174.85 168.22 173.99 173.91 173.42 177.14 173.42 179.82 173.11 181.91 173.66 188.58 172.85 194.48 171.34 196.88 171.84 198.86 171.71 201.97 170.47 206.93 170.05 209.98 169.33 213.16 168.9 216.82 169.51 219.97 168.86 222.71 169.01 
M 160.85 176.77 165.45 177.11 168.11 176.67 173.64 176.08 176.97 176.01 181.87 177.47 184.84 176.94 188.7 176.01 192.4 175.56 195.23 174.82 197.21 175.06 202.62 176.78 205.45 176.24 208.33 177.06 210.71 176.95 213.98 176.52 217.32 177.32 224.13 177.5 226.6 176.77 232.52 173.77 237.06 174.26 240.56 174.86 243.23 174.14 245.79 174.89 248.79 175.23 251.84 175.06 256.3 175.24 
M 160.73 178.68 165.44 179.4 170.91 179.18 176.81 179.42 179.72 180.11 185.56 180.45 188.74 180.87 191.85 180.4 195.24 180.28 197.22 181.33 199.93 181.76 202.78 181.58 208.15 182.48 212.09 182.91 217.13 182.77 220.85 183.01 224.5 182.75 
M 160.62 180.69 161.92 181.05 167.77 181.9 173.44 181.9 176.43 182.32 178.95 183.15 188.78 185.36 192.42 185.75 197.91 185.94 202.19 187.03 204.96 186.93 211.79 187.77 214.88 187.78 217.59 188.09 223.31 188.37 225.83 189.04 228.82 189.51 232.25 189.61 241.9 190.55 
M 160.47 182.46 164.65 183.69 167.53 184.31 173.51 184.66 176.03 185.63 181.75 187.27 188.15 188.81 191.79 189.46 194.32 190.26 197.25 190 202.42 190.06 205.74 191.02 208.85 192.12 211.73 194.77 214.67 195.61 218.09 196.26 221.18 197.35 223.68 198.49 225.86 198.23 228.39 196.64 231.7 196.09 234.78 196.85 237.52 197.81 240.17 198.96 243.13 199.57 246.23 200.48 
M 161.47 184.83 164.42 186.08 170.25 187.34 173.45 188.37 178.73 189.29 181.98 190.3 185.24 190.92 188.02 192.06 190.52 192.64 194.14 193.18 196.46 193.88 199.28 193.79 208.3 197.51 211.33 199.59 213.38 200.76 217.05 200.45 
M 159.8 186.07 169.86 190.73 173.24 191.33 175.92 192.28 182.24 193.54 185.26 194.76 190.1 197.35 193.43 198.08 198.71 200.21 202.08 201.94 204.94 203.88 207.74 204.11 209.8 204.88 
M 181.68 219.26 184.26 223.23 190.93 232.07 192.6 234.59 193.59 237.99 194.49 240.21 195.11 242.3 196.8 245.93 201.08 249.17 199.59 255.95 198.29 258.6 197.37 261.63 195.73 263.94 193.59 265.79 191.2 267.39 188.99 269.18 187.71 272.07 177.53 280 176.5 278.13 177.34 277.13 177.74 274.46 176.03 267.41 175.38 259.99 176.46 255.64 176.94 252.61 176.84 249.75 175.1 245.56 174.3 242.05 174.83 239.6 175.25 233.73 175.4 223.68 174.91 220.41 173.69 216.39 
M 179.9 218.62 181.96 222.62 185.09 229.49 186.69 232.51 188.16 234.79 190.06 236.97 191.14 239.51 191.27 242.43 
M 178.12 217.98 179.84 221.79 181.11 225.1 181.77 228.91 183.89 235.52 185.33 238.04 186.38 239.37 187.42 241.71 188.26 244.87 189.68 249.19 191.18 252.9 192.04 255.66 193.12 257.67 
M 176.35 217.34 177.76 221.25 179.62 227.8 179.4 231.53 180.09 234.54 182.42 242.58 183.99 249.62 183.8 253.33 184.11 256.54 
M 325.38 200.64 331.07 206.15 332.88 210.08 331.75 212.69 329.97 214.84 327.17 215.78 323.95 215.61 320.78 215.91 315.89 219 313.66 220.77 311.25 222.1 307.27 225.97 304.06 226.62 299.97 230.35 299.03 233.33 297.08 235.33 294.74 236.97 292.91 239.13 290.63 240.34 287.68 245.1 286.46 246.03 280.12 248.77 279.15 247.57 279.05 245.74 276.71 243.6 269.26 234.73 267.13 232.81 265.84 229.36 264.36 226.45 261.51 222.63 
M 321.19 202.83 327.23 207.79 
M 317 204.99 322.35 209.48 
M 312.72 206.98 317.51 210.74 
M 308.42 208.93 313.24 212.33 315.71 215.68 
M 304.05 210.72 309.31 214.15 
M 299.67 212.47 305.54 216.93 
M 295.26 214.15 299.34 218.96 303.08 221.65 
M 290.81 215.74 294.43 220.08 
M 286.34 217.25 289.47 220.32 291.43 223.39 295.32 227.19 297.99 230.49 
M 281.78 218.46 284.59 221.25 287.17 224.26 289.5 227.84 
M 277.19 219.58 280.81 222.7 282.67 226.1 285.15 229.8 
M 272.55 220.43 275.82 224.18 280.11 229.82 281.85 232.88 284.66 235.62 
M 267.91 221.31 270.47 225.32 277.59 233.05 283.5 242.22 
M 357.31 145.93 360.7 145.41 363.28 144.16 365.82 142.26 378.29 135.41 380.62 133.38 383.16 131.52 385.68 130.36 389.89 126.64 392.55 125.6 395.42 124.99 397.41 123.41 399.33 121.12 401.77 118.61 410.34 116.47 412.69 115.02 415.53 114.01 417.53 112.47 417.82 110.05 419.17 108.98 422.8 107.53 425.44 104.33 427.37 102.64 430.04 101.3 434.45 97.66 437.44 97.22 439.98 97.31 442.59 94.29 446.49 91.14 449.21 90.28 452.5 88.03 466.18 95.84 473.05 98.54 475.89 100 477.43 101.91 479.17 104.53 481.5 108.61 483.06 112.23 481.24 118.05 479.71 120.34 477.95 122.39 476.1 124.19 475.07 126.81 473.44 128.82 472.95 135.63 471.68 138 469.86 140.15 464.98 147.26 462.99 149.26 460.65 150.92 457.83 152.04 455.56 153.64 452.99 154.94 450.9 156.73 449.21 159 447.47 164.81 445.85 166.96 444.08 168.96 444.95 171.95 445.45 174.54 445.04 176.22 451.24 181.58 455.26 184.76 459.53 188.43 472.42 200.64 476.5 208.32 479.35 214.89 480.63 217.42 481.56 219.67 482 221.43 484.82 226.9 485.29 230.25 484.14 233.04 480.49 237.25 479.14 239.89 473.03 241.47 471.25 243.54 468.63 244.77 466.63 245.16 449.48 245.28 446.89 244.69 444.28 243.3 444.05 241.55 439.81 238.07 434.48 235.79 429.59 232.82 426.31 231.34 420.14 226.72 418.5 226.32 417.29 223.64 413.54 221.4 411.24 219.25 404.45 215.93 400.78 214.99 398.84 212.58 396.71 210.68 394.29 209.11 392.57 207 390.58 205.8 387.99 205.18 385.61 203.13 381.03 198.61 378.07 196.63 372.48 193.28 366.03 188.28 363.11 186.81 360.4 184.84 357.31 182.3 
M 366.27 145.38 368.8 143.62 373.68 141.68 379.1 139.1 381.43 138.43 384.09 136.91 386.78 134.84 391.39 130.89 397.64 128.46 401.65 126.08 404.3 125.18 407.19 123.95 411.39 122.54 413.44 120.73 418.06 115.84 420.13 114.88 423.03 115.18 426.17 114.15 429.8 113.35 433.04 111.93 435.69 107.64 438.19 105.81 440.51 105.45 442.85 104.34 445.6 102.4 448.71 100.74 451.66 98.72 455.21 98.85 458.14 98.71 
M 366.58 148.16 371.62 145.09 374.13 144.35 377.46 143.78 382.9 141.85 384.89 140.85 387.3 138.97 389.93 137.33 392.5 135.86 395.05 134.66 398.29 133.81 401.6 132.66 403.94 131.38 407.3 130.89 413.08 129.76 414.88 128.12 417.66 124.28 419.93 123.05 422.87 122.33 426.06 122.13 432.28 119.59 437.65 117.91 439.82 116.51 442.14 115.67 444.51 114.34 449.43 114.31 452.83 113.95 454.32 111.12 455.79 109.02 457.67 106.97 460.26 106.3 462.8 106.76 
M 360.42 152.47 363.4 151.78 366.69 150.67 369.46 149.94 374.78 147.37 377.48 146.61 380.33 146.16 383.28 145.29 388.7 142.94 391.18 141.39 394.15 140.85 396.6 139.89 403.09 138.3 405.74 137.17 407.85 136.02 413.22 134.9 415.61 134.11 419.48 131.34 425.3 130.71 428.63 130.58 431.13 129.08 
M 363.32 154.27 366.7 153.48 372.48 152.45 375.07 151.32 378 150.69 381.31 150.32 384.31 149.47 387.17 148.16 393.11 146.5 395.36 145.39 397.93 144.66 400.85 144.4 402.96 144.02 405.58 143.03 413.72 140.68 419.11 139.31 421.76 139.02 425.38 138.37 428.48 138.37 431.3 138.1 433.19 137.52 435.77 135.55 438.85 134.31 
M 357.31 157.59 360.38 157.43 366.76 156.66 377.97 154.77 380.95 154.54 384.04 153.94 387.43 153.91 390.23 152.75 398.8 151.19 406.63 148.98 408.68 149.29 418.19 146.43 427.7 145.46 430.3 145.45 
M 357.31 159.92 360.6 160.1 366.86 160.03 381.26 158.53 384.65 158.28 387.92 158.46 394.45 157.68 406.26 155.86 410.76 156.54 413.84 156.11 417.16 154.35 420.15 153.46 422.56 153.22 427.41 153.52 430.63 154.72 433.25 153.1 436.12 152.92 
M 360.66 162.95 363.69 163.04 366.92 163.63 373.19 163.64 376.21 163.37 382.15 162.25 385.21 162.21 391.34 162.65 394.01 162.16 396.79 161.4 399.64 161.69 402.43 161.17 
M 367.08 166.48 370.74 166.85 373.7 167.42 376.28 167.05 379.27 166.24 382.17 165.79 387.07 166.44 393.62 166.43 396.26 167.42 399.72 167.64 406.51 168.71 
M 360.9 168.24 366.95 169.63 370.4 170.07 376.86 170.57 379.21 170.04 381.89 169.7 384.41 170 387.49 170.12 390.52 171.02 393.59 171.3 396.78 172.27 400.41 172.54 403.31 172.99 408.43 172.66 412.13 172.93 414.29 173.65 418.13 175.47 420.98 177.12 426.45 175.9 
M 364.06 171.41 381.1 174 384.75 174.15 388.24 175.2 391.25 175.4 393.86 176.26 396.62 177.79 402.94 178.59 405.15 177.99 408.16 177.82 411.38 178.55 414.54 179.81 416.67 181.27 
M 363.83 173.83 367.13 174.72 372.34 175.73 378.29 177.56 384.45 178.81 393.2 180.85 398.8 182.53 402.37 182.79 405.2 183.36 407.97 183.64 410.98 184.14 413.97 184.96 416.9 186.58 419.81 187.03 424.92 188.3 427.32 189.36 429.73 190.03 432.43 190.19 435.27 191.31 438.45 193.23 441.94 193.89 445.64 195.47 448.64 197.47 451.16 198.07 456.03 196.68 459.55 196.82 462.69 197.32 466.95 198.77 
M 360.72 175.44 372.23 179.46 375.32 180.8 377.94 181.42 381.23 181.97 383.95 182.82 386.86 183.35 389.21 184.5 398.15 187.86 405.43 189.93 408.21 191.18 410.7 192.71 414.09 193.25 416.92 193.05 419.92 194.54 422.21 194.73 424.99 195.73 427.73 197.12 430.93 197.52 434.55 199.74 437.51 200.35 440.49 200.47 443.01 201.3 444.51 202.34 446.16 204.57 448.79 205.97 453.22 207.23 456.97 207.4 460.49 206.86 462.53 207.79 464.87 209.72 
M 366.22 180.71 369.43 182.03 372.21 183.66 374.89 184.63 380.46 185.57 383.37 186.83 388.89 189.84 391.85 191.21 394.72 192.1 397.01 193.16 398.75 194.48 406.93 197.31 410.33 199.24 413.38 200.18 415.91 201.21 418.29 202.91 421.35 204.21 424.36 206.07 427.74 207 431.1 207.59 432.84 208.56 436.87 208.81 438.94 208.56 441.43 210.23 444.27 211.64 447.51 214.55 450.64 215.82 453.56 216.05 456.11 216.96 458.86 217.4 462.49 219.06 465.09 221.27 
M 366.59 183.92 371.75 186.9 374.23 187.92 376.72 188.44 379.74 189.55 382.53 190.99 388.64 194.8 391.29 196.23 394.04 197.42 395.82 197.94 400.4 200.1 403.29 202.28 405.68 203.63 408.28 204.83 411.17 205.8 414.5 207.79 416.79 210.28 419 211.19 420.82 212.15 427.48 213.44 430.47 214.3 433.1 215.28 434.78 216.75 436.79 219.03 439.68 220.26 443.62 222.3 446.6 223.31 447.65 224.09 
M 360.53 183.26 366.33 186.63 370.8 189.55 375.97 192.04 379.35 193.26 384.39 196.51 386.86 198.79 389.26 200.48 392.27 201.88 394.56 203.33 396.48 204.32 398.92 206.43 403.82 208.92 406.88 210.96 410.26 212.59 413 214.88 417.38 217.52 418.18 218.89 419.67 220.38 
M 339.78 190.02 336.15 191.56 334.65 192.73 332.57 196.3 333.36 196.24 
M 41.3 176.74 50.99 171.45 56.89 168.84 63.3 164.87 69.92 160.06 77.05 155.49 84.66 150.99 93.23 146.15 103.35 140.74 112.91 135.11 121.54 130.69 137.25 123.72 144.35 121.21 150.6 119.45 157.78 117.79 160.75 122.63 162.43 127.37 163.33 132.03 164.34 141.29 164.35 145.87 164.61 150.47 164.39 155.03 163.26 159.51 162.08 168.56 161.14 173.05 160.53 182.16 159.69 186.66 159.15 191.19 157.64 195.63 154.97 199.97 149.68 204.03 124.05 203.56 114.34 203.12 105.32 202.29 96.92 201.01 81.73 198.34 74.91 196.66 68.29 194.39 62.83 192.19 58.62 190.2 
M 135.12 152.52 134.7 156.52 130.18 167.73 128.61 171.03 127.87 173.89 127.62 178.71 129.13 183.49 129.54 186.01 127.8 188.7 118 188.59 103.57 189.31 96.51 189.44 89.55 189.08 82.7 188.34 76.47 187.39 
M 56.85 190.22 47.31 185.87 42.91 183.48 38.46 181.42 36.68 180.08 36.3 177.75 37.64 175.77 39.94 175.81 41.93 177.18 53.72 186.34 58.72 190.02 
M 58.6 190.86 38.74 198.47 36.35 198.53 34.7 196.86 34.92 194.59 36.88 193.32 58.37 189.98 
M 92.67 173.24 91.15 167.48 91.58 161.53 93.92 156.05 97.92 151.62 103.13 148.73 109 147.69 114.89 148.61 120.17 151.4 124.25 155.74 126.7 161.18 127.25 167.12 125.84 172.91 122.63 177.94 117.96 181.65 112.34 183.64 106.38 183.7 100.72 181.82 95.98 178.2 92.67 173.24 
M 92.45 172.73 91.72 170.61 91.26 168.41 91.07 166.18 91.17 163.93 91.53 161.72 92.18 159.57 93.08 157.51 94.23 155.58 96.09 153.33 
M 96.17 153.25 97.19 152.22 98.96 150.85 100.89 149.7 102.95 148.79 105.1 148.15 107.31 147.78 109.56 147.69 111.79 147.88 113.99 148.34 116.12 149.07 
M 94.19 172.01 93.54 170.11 93.13 168.14 92.96 166.14 93.04 164.13 93.67 161.17 
M 97.55 154.53 100.03 152.4 101.76 151.38 103.6 150.57 105.53 149.99 107.51 149.66 109.52 149.58 111.52 149.75 113.49 150.16 115.39 150.81 
M 95.94 171.29 95.36 169.61 94.99 167.87 94.85 166.1 94.92 164.32 95.59 161.31 
M 98.93 155.82 101.09 153.96 102.62 153.05 104.25 152.34 105.95 151.83 107.7 151.54 109.48 151.47 111.25 151.61 112.99 151.98 114.67 152.56 
M 97.68 170.57 96.86 167.6 96.74 166.06 96.8 164.52 97.38 161.91 
M 100.22 157.19 102.16 155.52 103.49 154.73 106.38 153.67 109.44 153.36 112.49 153.8 113.95 154.3 
M 99.43 169.84 99 168.61 98.62 166.02 98.68 164.71 99.15 162.55 
M 101.52 158.56 103.22 157.08 104.35 156.41 106.8 155.51 109.4 155.24 111.99 155.62 113.23 156.04 
M 102.58 168.78 101.97 166.47 102.14 164.09 102.34 163.63 
M 104.06 160.81 104.68 160.13 106.76 158.97 109.11 158.56 111.47 158.93 113.58 160.04 115.21 161.78 116.19 163.95 116.41 166.33 115.85 168.65 114.56 170.66 112.7 172.14 110.45 172.94 108.06 172.96 105.8 172.21 103.9 170.76 102.58 168.78 
M 104.74 160.09 104.3 160.98 
M 102.9 163.77 102.04 165.5 
M 106.7 159.01 105.33 161.75 
M 104.16 164.09 102.31 167.78 
M 108.27 158.71 106.35 162.54 
M 105.44 164.36 102.95 169.34 
M 109.71 158.65 107.37 163.33 
M 106.69 164.68 103.76 170.55 
M 111.02 158.86 108.21 164.48 
M 107.84 165.22 104.75 171.41 
M 112.21 159.32 109.05 165.63 
M 108.99 165.76 105.77 172.19 
M 113.33 159.91 106.98 172.6 
M 114.3 160.81 108.22 172.96 
M 115.22 161.8 109.64 172.95 
M 115.89 163.29 111.2 172.67 
M 116.31 165.27 113 171.9 
M 43.96 175.27 47.56 178.87 
M 47.62 173.27 50.66 176.3 
M 51.32 171.31 55.44 175.42 
M 55.25 169.57 58.09 172.4 
M 58.93 167.58 62.66 171.32 
M 62.42 165.41 66.01 168.99 
M 65.76 163.08 71.33 168.66 
M 69.04 160.7 71.88 163.54 
M 72.45 158.44 77.45 163.45 
M 75.9 156.23 80.95 161.28 
M 79.42 154.09 82.83 157.5 
M 82.98 151.98 88.12 157.12 
M 86.57 149.91 89.87 153.21 
M 90.19 147.87 95.16 152.84 
M 93.83 145.83 98.6 150.61 
M 97.52 143.86 101.92 148.26 
M 101.21 141.89 104.69 145.37 
M 104.84 139.86 107.73 142.74 
M 108.41 137.76 112.66 142.01 
M 111.97 135.66 115.71 139.39 
M 115.67 133.69 119.26 137.28 
M 119.42 131.77 124.52 136.87 
M 123.25 129.94 128.36 135.05 
M 127.19 128.22 130.7 131.73 
M 131.12 126.48 134.15 129.52 
M 135.02 124.72 138.34 128.04 
M 139.05 123.08 142.15 126.19 
M 143.24 121.61 148.44 126.81 
M 147.59 120.3 150.47 123.17 
M 152.04 119.08 156.94 123.98 
M 156.64 118.01 158.77 120.15 
M 143.55 175.52 142.6 175.42 142.12 175.2 
M 115.48 140.99 117.97 142.47 118.41 142.52 119.12 142.43 119.81 142 119.95 141.66 119.74 141.13 
M 128.47 145.45 129.92 145.11 131.38 145.35 132.7 145.92 133.02 146.45 133.14 147.8 132.96 148.24 132.37 148.48 
M 102.3 149.19 101.44 148.48 100.41 146.79 99.15 142.99 
M 134.24 140.11 132.79 138.42 130.72 136.86 
M 66.54 162.52 66.97 163.71 
M 153.41 201.17 152.05 200.47 150.54 199.02 150.03 196.87 149.88 193.51 
M 164.34 141.93 163.61 142.08 161.64 142.88 
M 100.37 150.26 98.62 147.48 96.82 144.23 
M 140.63 129.03 140.4 129.25 137.67 129.65 
M 133.72 157.53 131.12 156.83 126.58 155.9 122.48 153.87 
M 156.25 130.23 154.22 129.83 152.83 129.14 152.15 129.14 
M 147.61 158.76 149.09 159.76 149.55 160.38 149.64 161.1 149.48 161.36 149 161.59 148.47 161.55 
M 98.02 144.64 97.57 143.83 
M 152.73 168.45 152.64 168.96 153.11 170.48 
M 122.19 195.23 121.34 195.88 121.13 196.63 121.88 197.64 122.9 197.94 
M 143.44 157.66 144.09 157.12 145.75 156.41 148.21 156.07 150.84 156.63 152.08 157.09 
M 101.86 149.43 100.81 148.24 99.73 146.54 98.49 143.34 
M 98.96 194.5 99.6 188.74 99.09 186.53 99.42 184.44 99.92 183.42 
M 104.76 139.96 104.81 139.88 
M 100.23 150.34 98.53 147.53 
M 90.47 179.2 88.26 179.65 83.07 179.19 80.72 179.25 79.9 179.09 78.89 178.28 78.09 176.43 
M 130.19 171.11 130.42 172.63 131.04 173.32 
M 133.81 153.38 132.77 153.13 131.78 153.12 127.98 154.08 126.79 153.97 124.63 152.97 120.38 150.2 119.08 149.59 
M 142.57 164.79 142.61 165.85 143.04 167.58 
M 150.6 172.09 151.43 172.36 152.81 171.73 154.52 171.62 
M 143.54 201.71 142.58 201.73 138.61 201.21 137.12 201.65 136.69 202.45 
M 113.43 148.38 114.45 148.54 
M 116.09 149.25 116.75 149.57 
M 75.45 178.5 74.07 177.3 72.13 175.12 70.87 174.16 70.57 173.57 
M 137.69 135.58 135.02 134.1 132.19 132 131.12 131.98 129.88 132.42 
M 82.42 166.12 81.71 166.5 81.16 167.08 80.68 169.21 80.08 170 
M 134.44 188.72 136.29 189.43 136.71 189.81 
M 58.6 190.22 59.21 190.57 
M 52.65 188.34 52.85 189.1 53.18 188.58 
M 47.38 185.9 47.13 186.69 47.31 188.11 47.62 186.98 48.26 186.32 
M 42.35 183.22 41.63 185.06 41.77 187.13 42.12 185.34 43.42 183.76 
M 37.36 180.59 36.12 183.43 36.23 186.14 36.61 183.71 38.4 181.37 
M 58.4 190.09 59.3 189.86 
M 52.37 190.92 52.51 190.19 52.92 189.5 53.06 190.05 53.62 190.72 
M 46.93 191.73 46.9 190.22 47.46 188.9 47.45 190.08 48.24 191.56 
M 41.51 192.58 41.29 190.25 41.99 188.3 41.84 190.11 42.82 192.35 
M 36.16 193.79 35.68 190.28 36.52 187.7 36.23 190.14 37.44 193.23 
M 43.68 196.5 50.03 197.13 58.48 197.34 66.67 197.15 74.91 196.66 
M 53.43 196.6 55.34 196.59 56.54 196.93 57.02 196.87 
M 68.14 197.07 66.47 196.58 62.86 196.54 61.51 196.27 
M 54.94 196.59 57.04 197.14 
M 64.12 197.21 63.56 197.27 
M 61.87 197.31 60.85 196.93 59.88 196.22 
M 158.3 118.65 167.28 127.62 
M 162.55 115.34 171.54 124.33 
M 167.63 112.87 174.03 119.27 
M 172.83 110.51 182.79 120.48 
M 178.66 108.79 187.01 117.14 
M 184.59 107.17 194.59 117.17 
M 190.44 105.47 197.3 112.33 
M 196 103.48 202.09 109.57 
M 201.76 101.69 212.22 112.14 
M 207.67 100.04 214.44 106.81 
M 213.69 98.51 222.19 107.01 
M 220.32 97.59 228.7 105.96 
M 227.8 97.52 233.59 103.3 
M 235.36 97.52 244.61 106.76 
M 242.62 97.23 248.3 102.91 
M 250.52 97.58 260.84 107.89 
M 259.97 99.47 266.42 105.92 
M 269.3 101.25 277.78 109.73 
M 278.47 102.87 287.43 111.83 
M 289.62 106.46 298.33 115.17 
M 302.09 111.38 312.98 122.27 
M 316.73 118.47 324.23 125.96 
M 338.6 132.78 346.73 140.91 
M 168.41 164.21 170.04 167.46 
M 164.58 149.95 165.96 152.69 
M 168.49 157.76 173.25 167.28 
M 194.67 210.11 195.51 211.8 
M 164.35 142.86 170.29 154.75 
M 171.14 156.44 176.02 166.2 
M 198.16 210.48 199 212.17 
M 163.67 134.9 172.94 153.44 
M 160.38 121.72 166.29 133.54 
M 168.83 138.61 175.58 152.12 
M 163.02 120.39 168.93 132.21 
M 172.31 138.96 177.38 149.1 
M 165.66 119.05 172.41 132.56 
M 166.2 113.52 171.68 124.5 
M 174.22 129.56 175.06 131.25 
M 168.89 112.3 179.44 133.41 
M 171.58 111.08 182.14 132.19 
M 190.58 149.08 191.43 150.76 
M 174.75 110.79 185.72 132.75 
M 189.95 141.19 191.64 144.57 
M 192.48 146.26 195.86 153.02 
M 196.7 154.7 198.39 158.08 
M 177.24 109.17 188.64 131.97 
M 193.7 142.1 194.55 143.79 
M 195.39 145.48 201.3 157.3 
M 180.15 108.39 191.55 131.19 
M 197.46 143.01 204.22 156.52 
M 183.06 107.59 196.15 133.77 
M 201.21 143.9 202.06 145.59 
M 203.75 148.97 207.99 157.45 
M 185.96 106.78 197.36 129.58 
M 204.96 144.78 211.1 157.07 
M 188.86 105.98 198.57 125.4 
M 207.86 143.97 212.08 152.42 
M 191.69 105.03 201.4 124.45 
M 208.15 137.96 213.22 148.09 
M 194.49 104.02 195.76 106.56 
M 196.6 108.24 205.05 125.13 
M 207.58 130.2 209.27 133.58 
M 211.8 138.64 216.02 147.09 
M 196.03 100.49 197.3 103.02 
M 198.98 106.4 219.25 146.93 
M 196.54 94.89 200.34 102.49 
M 201.18 104.18 202.02 105.87 
M 203.71 109.25 223.98 149.78 
M 226.51 154.85 226.68 155.19 
M 197.68 90.57 204.01 103.24 
M 207.39 109.99 229.34 153.9 
M 199.29 87.18 206.46 101.53 
M 211.53 111.67 217.44 123.49 
M 221.66 131.93 228.42 145.44 
M 229.26 147.13 233.33 155.26 
M 200.56 83.12 203.52 89.04 
M 209.43 100.86 211.12 104.24 
M 216.19 114.37 217.03 116.06 
M 224.63 131.26 230.54 143.08 
M 233.07 148.15 237.1 156.2 
M 202.23 79.85 205.19 85.76 
M 212.79 100.96 213.63 102.65 
M 221.23 117.85 222.08 119.54 
M 223.76 122.92 233.05 141.49 
M 237.27 149.94 240.65 156.69 
M 203.68 76.14 208.32 85.42 
M 212.54 93.87 217.61 104 
M 223.52 115.82 224.37 117.51 
M 225.21 119.2 235.34 139.47 
M 242.1 152.98 244.42 157.62 
M 205.66 73.48 211.99 86.15 
M 212.83 87.84 213.68 89.53 
M 214.52 91.22 222.12 106.41 
M 222.97 108.1 223.81 109.79 
M 226.34 114.86 239.85 141.88 
M 244.92 152.01 249.19 160.55 
M 207.61 70.78 225.77 107.09 
M 226.61 108.78 227.45 110.47 
M 231.68 118.92 242.65 140.87 
M 243.5 142.56 246.03 147.63 
M 247.72 151 251.94 159.45 
M 252.79 161.14 254.12 163.81 
M 273.05 201.67 273.9 203.36 
M 209.13 67.22 209.55 68.06 
M 210.4 69.75 229.82 108.6 
M 233.2 115.35 245.02 138.99 
M 246.71 142.37 250.09 149.13 
M 251.78 152.5 252.62 154.19 
M 255.15 159.26 256 160.95 
M 273.73 196.41 276.26 201.48 
M 211.22 64.78 231.06 104.47 
M 234.44 111.22 242.04 126.42 
M 244.57 131.49 248.79 139.93 
M 265.68 173.71 269.21 180.76 
M 272.22 186.78 272.44 187.22 
M 274.97 192.29 275.81 193.98 
M 276.66 195.66 278.35 199.04 
M 213.36 62.47 216.32 68.38 
M 218.01 71.75 234.05 103.84 
M 235.74 107.22 236.59 108.91 
M 237.43 110.6 244.19 124.11 
M 247.56 130.86 253.47 142.68 
M 254.32 144.37 255.16 146.06 
M 266.14 168.02 267.83 171.4 
M 270.36 176.46 275.43 186.59 
M 278.81 193.35 281.34 198.42 
M 215.56 60.24 218.51 66.15 
M 221.89 72.91 224.42 77.97 
M 227.8 84.73 235.4 99.93 
M 238.78 106.68 239.62 108.37 
M 240.47 110.06 246.38 121.88 
M 249.75 128.64 254.82 138.77 
M 256.51 142.15 257.35 143.84 
M 274.24 177.61 277.62 184.37 
M 217.52 57.56 224.7 71.92 
M 230.61 83.74 233.14 88.81 
M 235.68 93.87 237.37 97.25 
M 242.43 107.38 243.28 109.07 
M 244.12 110.76 249.19 120.9 
M 250.88 124.27 258.48 139.47 
M 277.9 178.32 279.59 181.69 
M 219.67 55.26 230.23 76.37 
M 235.3 86.5 236.99 89.88 
M 237.83 91.57 246.27 108.46 
M 249.65 115.21 261.47 138.86 
M 264.01 143.93 265.7 147.3 
M 222.17 53.65 234.42 78.13 
M 235.26 79.82 247.08 103.47 
M 249.62 108.53 250.46 110.22 
M 252.15 113.6 263.13 135.55 
M 267.35 144 269.04 147.38 
M 281.7 172.71 283.39 176.09 
M 224.7 52.1 251.3 105.3 
M 252.15 106.99 261.43 125.56 
M 263.12 128.94 268.19 139.07 
M 269.88 142.45 272.41 147.52 
M 283.39 169.47 286.77 176.23 
M 227.19 50.47 261.39 118.87 
M 268.15 132.38 268.99 134.07 
M 273.22 142.52 274.9 145.89 
M 286.73 169.54 288.41 172.92 
M 295.17 186.43 296.01 188.11 
M 301.93 199.94 303.61 203.31 
M 229.97 49.41 235.46 60.39 
M 236.3 62.08 244.74 78.96 
M 245.59 80.65 252.34 94.16 
M 253.19 95.85 254.03 97.54 
M 254.88 99.23 255.72 100.92 
M 258.25 105.99 264.17 117.81 
M 305.54 200.56 306.39 202.25 
M 232.91 48.7 237.56 57.98 
M 240.09 63.05 247.69 78.25 
M 249.38 81.63 251.91 86.7 
M 255.29 93.45 258.67 100.21 
M 259.51 101.89 264.58 112.03 
M 266.27 115.41 268.8 120.47 
M 269.65 122.16 273.02 128.92 
M 284.85 152.56 286.53 155.94 
M 287.38 157.63 288.22 159.32 
M 236.05 48.37 238.16 52.59 
M 239.01 54.28 240.7 57.66 
M 243.23 62.72 245.76 67.79 
M 254.21 84.68 259.28 94.81 
M 261.81 99.88 266.03 108.32 
M 271.94 120.14 276.16 128.59 
M 281.23 138.72 282.92 142.1 
M 289.67 155.61 292.21 160.68 
M 239.02 47.69 247.04 63.73 
M 252.95 75.55 260.55 90.75 
M 262.24 94.13 270.68 111.02 
M 274.91 119.46 279.13 127.91 
M 281.66 132.97 285.88 141.42 
M 301.93 173.51 303.62 176.88 
M 242.34 47.73 252.48 68 
M 255.01 73.06 276.12 115.28 
M 277.81 118.66 278.65 120.35 
M 280.34 123.73 282.88 128.79 
M 284.57 132.17 288.79 140.62 
M 298.92 160.88 301.45 165.95 
M 303.14 169.33 307.36 177.77 
M 244.38 45.19 255.78 67.99 
M 257.47 71.37 277.73 111.9 
M 278.58 113.59 291.24 138.92 
M 301.38 159.19 305.6 167.63 
M 306.44 169.32 311.51 179.45 
M 247.46 44.74 274.06 97.94 
M 274.9 99.63 291.79 133.4 
M 303.61 157.05 313.74 177.31 
M 250.76 44.74 272.29 87.8 
M 273.98 91.18 275.67 94.56 
M 278.2 99.62 292.56 128.33 
M 293.4 130.02 294.25 131.71 
M 295.94 135.09 300.16 143.53 
M 305.22 153.67 308.6 160.42 
M 309.45 162.11 311.14 165.49 
M 312.82 168.87 317.05 177.31 
M 253.4 43.42 274.94 86.48 
M 277.47 91.55 280 96.62 
M 280.85 98.3 282.54 101.68 
M 286.76 110.13 294.36 125.33 
M 295.2 127.02 296.05 128.7 
M 296.89 130.39 302.8 142.21 
M 307.03 150.66 309.56 155.73 
M 315.47 167.55 318.85 174.3 
M 256.28 42.57 278.24 86.48 
M 283.3 96.61 284.99 99.99 
M 290.06 110.12 297.66 125.32 
M 299.35 128.7 306.1 142.21 
M 307.79 145.58 311.17 152.34 
M 258.51 40.4 264.42 52.23 
M 266.95 57.29 279.62 82.63 
M 285.53 94.45 288.91 101.2 
M 290.59 104.58 300.73 124.85 
M 302.42 128.22 310.86 145.11 
M 316.77 156.93 319.31 162 
M 260.34 37.46 264.14 45.06 
M 269.2 55.19 275.12 67.01 
M 278.49 73.77 286.94 90.66 
M 288.63 94.03 303.83 124.43 
M 306.36 129.5 314.8 146.39 
M 319.03 154.83 324.09 164.97 
M 262.83 35.83 287.74 85.65 
M 291.12 92.41 316.45 143.07 
M 318.98 148.14 325.74 161.65 
M 264.95 33.47 290.71 84.98 
M 293.24 90.04 301.68 106.93 
M 302.53 108.62 327.86 159.29 
M 340.53 184.62 341.37 186.31 
M 267.95 32.85 272.59 42.14 
M 273.44 43.83 293.7 84.36 
M 296.24 89.43 304.68 106.31 
M 305.52 108 323.26 143.47 
M 324.95 146.85 328.32 153.6 
M 341.83 180.62 343.52 184 
M 271.5 33.34 272.76 35.87 
M 276.98 44.32 282.9 56.14 
M 287.12 64.58 297.25 84.85 
M 299.78 89.92 306.54 103.43 
M 310.76 111.87 317.52 125.38 
M 318.36 127.07 326.81 143.96 
M 340.32 170.98 343.69 177.74 
M 275.22 34.18 276.49 36.72 
M 279.87 43.47 284.93 53.61 
M 289.16 62.05 300.13 84.01 
M 301.82 87.38 304.36 92.45 
M 305.2 94.14 310.27 104.27 
M 313.64 111.03 319.55 122.85 
M 322.09 127.91 328 139.74 
M 337.29 158.31 344.89 173.51 
M 279.08 35.3 293.02 63.17 
M 294.71 66.54 314.13 105.39 
M 316.66 110.45 323.42 123.96 
M 325.95 129.03 329.33 135.79 
M 339.46 156.05 347.06 171.25 
M 282.63 35.79 321.9 114.32 
M 324.43 119.39 325.47 121.47 
M 327.7 125.92 328.54 127.61 
M 329.39 129.3 331.08 132.68 
M 340.37 151.25 348.81 168.14 
M 285.86 35.63 296.84 57.59 
M 299.37 62.66 327.23 118.38 
M 343.64 151.19 351.24 166.39 
M 288.12 33.54 300.36 58.03 
M 301.21 59.72 302.05 61.41 
M 302.9 63.1 308.81 74.92 
M 313.03 83.36 328.99 115.29 
M 341.08 139.47 341.93 141.16 
M 346.15 149.6 346.99 151.29 
M 352.06 161.42 354.59 166.49 
M 291.18 33.05 311.87 74.43 
M 315.24 81.18 321.15 93 
M 325.38 101.45 330.75 112.2 
M 342.35 135.39 342.77 136.24 
M 343.61 137.92 346.15 142.99 
M 346.99 144.68 349.53 149.75 
M 354.59 159.88 356.28 163.26 
M 294.74 33.56 306.14 56.36 
M 310.36 64.8 324.71 93.51 
M 326.4 96.89 332.51 109.11 
M 347.43 138.94 352.07 148.23 
M 298.09 33.66 298.52 34.51 
M 300.2 37.89 309.49 56.46 
M 314.56 66.6 326.38 90.24 
M 327.23 91.93 334.27 106.02 
M 352.53 142.54 356.33 150.14 
M 307.6 46.08 311.83 54.52 
M 313.51 57.9 336.03 102.93 
M 314.21 52.67 315.47 55.21 
M 319.7 63.65 337.3 98.86 
M 323.56 64.77 336.22 90.1 
M 327.34 65.72 336.39 83.82 
M 328.06 60.55 329.33 63.09 
M 330.17 64.78 337.54 79.52 
M 332.49 62.81 332.91 63.65 
M 333.76 65.34 338 73.83 
M 336.58 64.38 339.27 69.75 
M 227.48 292.89 227.36 292.3 226.94 291.7 226.43 291.39 225.23 291.39 224.54 291.7 223.76 292.3 223.28 292.89 222.71 293.8 222.26 295.3 222.41 296.8 222.83 297.39 223.33 297.7 224.54 297.7 225.23 297.39 226.01 296.8 226.49 296.2 
M 230.33 291.39 228.8 296.5 228.83 297.39 229.33 297.7 229.94 297.7 
M 228.8 293.5 230.9 293.5 
M 232.16 295.3 235.76 295.3 235.94 294.7 235.82 294.1 235.1 293.5 234.2 293.5 233.51 293.8 232.73 294.39 232.16 295.3 231.98 295.89 232.01 296.8 232.43 297.39 232.94 297.7 233.83 297.7 234.53 297.39 235.31 296.8 
M 242.33 291.39 240.44 297.7 
M 241.43 294.39 241.01 293.8 240.5 293.5 239.6 293.5 238.91 293.8 238.13 294.39 237.56 295.3 237.38 295.89 237.41 296.8 237.83 297.39 238.33 297.7 239.24 297.7 239.93 297.39 240.71 296.8 
M 245.3 293.5 244.61 293.8 243.83 294.39 243.26 295.3 243.08 295.89 243.11 296.8 243.52 297.39 244.04 297.7 244.94 297.7 245.63 297.39 246.41 296.8 246.98 295.89 247.16 295.3 247.13 294.39 246.71 293.8 246.2 293.5 245.3 293.5 
M 252.83 294.39 252.41 293.8 251.9 293.5 251 293.5 250.31 293.8 249.52 294.39 248.96 295.3 248.77 295.89 248.81 296.8 249.23 297.39 249.74 297.7 250.64 297.7 251.33 297.39 252.11 296.8 
M 258.5 293.5 257.24 297.7 
M 258.23 294.39 257.81 293.8 257.3 293.5 256.39 293.5 255.71 293.8 254.93 294.39 254.36 295.3 254.18 295.89 254.21 296.8 254.63 297.39 255.14 297.7 256.03 297.7 256.73 297.39 257.51 296.8 
M 267.2 293.5 265.94 297.7 
M 266.93 294.39 266.51 293.8 266 293.5 265.1 293.5 264.4 293.8 263.63 294.39 263.05 295.3 262.88 295.89 262.9 296.8 263.33 297.39 263.83 297.7 264.74 297.7 265.43 297.39 266.2 296.8 
M 269.59 293.5 268.33 297.7 
M 269.06 295.3 269.63 294.39 270.4 293.8 271.09 293.5 272 293.5 
M 274.13 291.39 272.24 297.7 
M 279.2 293.5 277.94 297.7 
M 278.93 294.39 278.51 293.8 278 293.5 277.09 293.5 276.4 293.8 275.63 294.39 275.06 295.3 274.88 295.89 274.9 296.8 275.33 297.39 275.83 297.7 276.74 297.7 277.43 297.39 278.2 296.8 
M 281 293.5 281.53 297.7 
M 284.59 293.5 281.53 297.7 
M 286.73 291.39 286.94 291.7 287.33 291.39 287.12 291.1 286.73 291.39 
M 286.39 293.5 285.14 297.7 
M 289.73 291.39 288.2 296.5 288.23 297.39 288.74 297.7 289.33 297.7 
M 288.2 293.5 290.29 293.5 
M 293.02 291.39 291.14 297.7 
M 295.13 291.39 295.33 291.7 295.73 291.39 295.52 291.1 295.13 291.39 
M 294.79 293.5 293.53 297.7 
M 296.41 297.1 296.02 297.39 296.24 297.7 296.63 297.39 296.41 297.1 
"/></svg>
