<svg xmlns="http://www.w3.org/2000/svg" width="520" height="320"><rect x="0" y="0" width="520" height="320" fill="floralwhite"/><rect x="10" y="10" width="500" height="300" stroke="black" stroke-width="1" fill="none"/><path stroke="black" stroke-width="1" fill="none" stroke-linecap="round" stroke-linejoin="round" d="
M 164.1 121.06 172.39 118.28 180.69 115.78 205.57 109.78 213.86 108.33 222.16 107.65 230.45 107.72 238.75 108.39 263.63 108.55 271.93 108.99 280.22 110.58 288.51 113.07 329.99 123.78 338.28 126.19 346.57 128.87 363.99 134.93 
M 363.99 168.56 354.87 171.29 321.69 182.35 305.1 186.67 296.81 188.46 288.51 189.82 271.93 192.16 263.63 193.55 255.34 194.45 238.75 194.48 230.45 194.01 213.86 192.21 205.57 190.59 197.28 188.38 172.39 183.04 155.85 179.09 
M 363.99 138.44 350.34 136.9 343.65 136.35 336.86 136.18 324.24 136.23 306.14 135.12 299.87 134.59 287.67 132.94 283.28 132.72 
M 280.39 132.71 278.95 132.7 269.97 133.65 266.87 133.72 262.14 133.52 
M 255.67 133.01 252.36 132.79 
M 248.98 132.61 247.28 132.51 236.95 130.98 230.22 130.38 228.57 130.41 
M 225.3 130.51 218.86 131.06 
M 215.66 131.38 202.86 132.13 
M 196.53 132.67 193.31 133.05 
M 183.27 134.78 173.2 137.35 
M 169.72 157.21 172.32 161.56 
M 170.43 148.74 177.53 160.98 
M 170.61 139.75 172.83 143.01 178 151.73 
M 168.33 129.16 174.13 136.2 177.38 140.94 
M 179.48 144.38 181.57 147.97 
M 183.65 151.64 187.76 159.2 
M 166.67 120.2 175.23 129.77 177.56 132.53 179.81 135.53 184.09 142.39 191.37 155.32 
M 193.44 159.06 193.94 159.94 
M 213.4 187.21 213.48 187.27 
M 171.47 118.59 180.99 128.89 183.3 131.79 185.51 135.03 189.78 142.25 195.77 153.36 199.31 159.38 
M 176.39 117.07 184.36 125.45 186.73 128.23 189 131.36 191.18 134.8 193.24 138.44 198.92 149.64 200.96 153.34 204.54 158.98 
M 225.19 186.39 227.54 188.18 
M 181.31 115.62 185.21 119.56 190.06 125.04 192.38 127.99 195.6 132.97 
M 199.37 140.3 203.97 149.8 206.16 153.5 209.83 159.08 
M 186.23 114.4 188.45 116.62 193.3 122.03 197.9 127.87 199.99 131.17 201.87 134.73 207.15 146.3 209.24 150.15 214.58 158.64 
M 238.68 188.39 240.59 189.73 
M 190.93 113.27 194.07 116.45 198.84 121.84 203.34 127.81 205.33 131.2 207.13 134.86 210.61 142.68 212.54 146.53 217.88 155.51 
M 195.59 112.19 199.67 116.25 202.04 118.87 206.62 124.62 208.78 127.81 210.74 131.31 216.06 142.62 223.25 155.4 
M 200.23 111.08 202.9 113.57 207.62 118.64 212.15 124.52 214.25 127.74 216.15 131.19 220.66 140.42 
M 222.63 144.14 228.82 155.36 
M 250.11 183.72 252.71 185.92 256.34 188.55 
M 204.86 109.95 208.56 113.28 210.93 115.71 213.24 118.35 216.54 122.67 
M 218.63 125.77 221.55 130.84 224.32 136.36 
M 226.23 140.14 232.58 151.69 
M 234.77 155.63 236.25 158.27 
M 209.87 109.03 214.24 112.88 216.56 115.28 220.95 120.66 223.04 123.68 225.07 126.98 227.02 130.53 232.97 142.14 236.45 148.13 
M 238.79 152.14 242.48 158.74 
M 259.39 181.36 260.58 182.42 
M 215.13 108.23 219.87 112.39 222.12 114.77 224.31 117.36 226.44 120.21 228.54 123.36 230.62 126.82 239.15 142.57 244 150.67 247.25 156.55 
M 263.78 179.98 266.02 182.04 
M 268.28 184 270.52 185.82 
M 220.78 107.77 223.17 109.77 225.46 111.96 227.69 114.4 229.87 117.09 234.17 123.35 237.37 128.77 
M 241.82 136.77 244.22 140.97 
M 246.65 145.11 249 149.07 
M 251.15 152.91 254.57 159.64 
M 226.72 107.69 228.78 109.5 231.06 111.79 233.3 114.34 235.49 117.13 239.87 123.46 251.44 143.38 253.67 147.34 256.55 153.05 
M 272.9 177.68 274.46 179.19 
M 232.66 107.9 236.65 111.87 238.88 114.46 243.34 120.31 245.57 123.62 252.44 135.21 254.74 139.44 259.63 149.47 
M 261.39 153.2 263.16 156.75 
M 279.66 178.66 281.81 180.75 
M 238.56 108.38 242.16 112.06 244.42 114.64 248.95 120.46 251.19 123.75 255.74 131.36 257.95 135.57 264.3 149.66 
M 268.14 156.65 271.11 161.27 
M 282.63 175.83 284.78 178.08 
M 243.86 108.47 247.61 112.25 252.19 117.54 254.48 120.61 256.8 124.06 259.1 127.85 261.3 131.91 263.22 136.07 266.43 144.12 268.21 147.87 270.28 151.4 275.5 159.3 
M 285.62 172.83 287.75 175.24 
M 294.1 181.74 296.19 183.62 
M 249.1 108.49 253.02 112.33 255.31 114.9 260.03 121.06 262.42 124.67 264.7 128.48 266.7 132.43 269.89 140.27 271.53 144.02 272.52 145.78 
M 274.61 149.17 278.88 155.45 
M 280.83 158.46 283.25 162.3 
M 299.13 181.46 300.97 183.16 
M 254.34 108.44 258.29 112.42 260.62 115.13 265.5 121.6 267.89 125.19 270.07 128.85 271.91 132.57 274.31 138.13 
M 276.02 141.69 278 145.05 
M 280.19 148.28 284.3 154.59 
M 286.1 157.73 288.53 161.93 
M 295.89 171.9 297.97 174.42 
M 259.54 108.49 263.41 112.53 268.3 118.51 273.06 125.29 276.03 130.56 
M 279.52 137.57 282.43 142.54 286.79 149.05 293.06 160.43 
M 297.52 166.98 299.03 168.97 
M 264.7 108.61 268.46 112.58 270.91 115.44 275.74 121.76 277.95 125.09 283.72 135.28 286.75 140.2 
M 288.85 143.53 290.95 146.95 
M 292.92 150.36 296.5 156.96 
M 300.23 163.1 300.44 163.42 
M 301.63 165.12 302.25 165.97 
M 306.4 171.49 308.56 174.13 
M 313.36 178.95 315.13 180.44 
M 270.02 108.89 273.48 112.55 275.89 115.37 280.55 121.5 282.71 124.75 294 143.21 
M 296.11 146.62 302.67 158.3 305.55 162.92 
M 314.57 174.06 317.14 176.51 
M 275.92 109.76 278.45 112.49 283.1 118.1 287.56 124.36 302.38 148.01 305.26 153.15 
M 307.09 156.5 309.97 161.34 311.08 162.85 
M 313.41 165.82 315.87 168.68 
M 282.35 111.22 285.73 114.95 290.38 120.77 292.68 124.06 296.04 129.31 
M 298.19 132.75 300.28 136.07 
M 302.33 139.32 307.67 147.79 312.6 156.45 
M 317.17 162.84 319.7 165.82 
M 324.81 171.36 327.31 173.91 
M 289.72 113.39 293.22 117.42 295.65 120.57 301.45 129.32 
M 303.58 132.71 309.73 142.44 
M 311.89 145.95 316.1 153.08 
M 323.4 162.79 325.94 165.76 
M 296.95 115.29 301.1 120.54 306.88 129.29 
M 308.96 132.59 314.95 142.46 
M 317.08 146.07 320.4 151.46 321.62 153.15 
M 324.15 156.45 326.75 159.6 
M 329.29 162.65 336.49 171.2 
M 303.99 117.08 306.56 120.48 311.16 127.42 323.33 148 325.76 151.43 334.76 162.42 
M 337.18 165.41 343.43 172.61 
M 310.86 118.86 314.14 123.64 316.28 127.12 325.16 142.6 
M 327.39 146.09 328.55 147.81 332.45 152.73 
M 317.33 120.53 321.24 126.8 329.28 140.6 332.83 145.7 
M 335.42 149.04 340.59 155.56 
M 323.44 122.1 332.52 136.86 334.84 140.19 343.76 151.97 
M 348.64 158.62 351.18 161.84 
M 329.58 123.68 335.78 133.24 341.99 141.48 
M 344.58 144.88 347.08 148.35 
M 349.49 151.83 354.27 158.59 
M 336.03 125.54 341.37 133.07 349.07 143.02 355.18 151.84 
M 357.48 155.26 359.75 158.59 
M 342.9 127.68 343.66 128.72 
M 345.7 131.4 352.16 139.62 358.58 148.39 
M 363.1 155.23 363.99 156.6 
M 350.16 130.1 356.53 138 
M 359.29 141.42 361.98 144.9 
M 357.76 132.74 363.99 139.94 
M 166.62 120.22 165.16 122.22 
M 173.63 117.91 167.77 126.32 
M 180.66 115.78 177.1 120.45 168.97 132.08 
M 187.53 114.08 182.9 119.77 170.52 137.14 
M 194.54 112.43 190.9 116.54 186.32 122.33 181.53 128.81 175.27 137.7 
M 172.73 141.32 170.43 144.66 
M 201.66 110.73 196.5 116.37 187.27 128.19 173.15 148.33 
M 170.54 152.14 170.05 152.85 
M 208.56 109.26 204.42 113.5 198.68 120.42 
M 196.4 123.39 191.69 129.65 
M 189.2 133.11 178.76 148.03 
M 176.13 151.78 173.52 155.5 
M 170.93 159.2 168.91 162.08 
M 214.86 108.25 210.1 113.18 205.38 118.74 198.42 127.86 192.26 136.62 
M 187.06 144.16 184.42 147.91 
M 181.76 151.65 179.11 155.38 
M 176.49 159.08 174.97 161.23 
M 220.52 107.79 215.76 112.75 207.42 123.07 
M 205.04 126.21 200.12 132.94 
M 195.13 140.29 187.44 151.59 
M 184.75 155.39 181.02 160.64 
M 225.88 107.68 221.37 112.26 218.98 115.06 206.73 131.22 201.5 138.44 190.42 155.35 
M 231.24 107.78 226.96 111.89 222.1 117.55 213.46 129.51 
M 210.78 133.14 204.05 142.31 193.39 159.08 
M 236.43 108.2 232.57 111.79 230.12 114.33 225.14 120.3 210.66 140.74 
M 208.01 144.45 204.41 149.83 198.9 158.85 
M 241.86 108.44 235.73 114.38 230.7 120.08 225.59 126.95 213.41 144.6 
M 208.59 151.87 204.14 159 
M 247.42 108.51 243.63 112.12 238.86 117.2 236.34 120.14 232.46 125.08 
M 229.81 128.66 220.24 142.37 211.76 155.48 
M 252.93 108.45 250.19 111.15 
M 247.94 113.5 242.01 120.27 234.14 130.53 225.83 142.08 219.42 151.81 
M 217.04 155.49 215.01 158.63 
M 258.06 108.47 252.27 114.82 247.64 120.43 238.58 132.6 
M 232.93 140.18 230.16 143.97 
M 227.53 147.77 224.94 151.6 
M 222.37 155.39 220.34 158.38 
M 262.94 108.54 253.18 120.55 248.33 127.23 240.46 138.68 233.37 147.92 
M 230.6 151.61 225.76 158.26 
M 267.67 108.77 253.97 127.4 250.35 133.12 
M 247.87 137.11 245.25 141.04 
M 242.49 144.8 236.7 151.97 
M 233.76 155.56 231.89 157.87 
M 272.39 109.08 269.82 112.58 264.23 121.48 257.19 131.48 250.01 143.34 248.69 145.23 
M 276.69 109.9 274.82 112.54 273.09 115.42 269.54 121.84 267.52 125.17 260.21 135.78 254.41 145.43 
M 251.93 149.17 249.19 152.86 
M 280.98 110.81 278.02 115.31 272.71 125.3 270.56 128.86 262.85 140.04 259.43 145.7 
M 257.22 149.37 253.55 154.85 250.51 158.8 
M 284.96 112 284.86 112.14 
M 283.84 113.7 281.16 118.22 275.59 128.76 273.23 132.53 267.8 140.27 264.12 145.94 
M 261.96 149.59 257.44 156.77 
M 288.98 113.2 286.05 117.9 280.41 128.46 278.2 132.24 269.02 145.98 
M 262.32 156.79 260.08 160.17 
M 293.19 114.31 289.17 120.85 283.11 131.8 279.51 137.6 
M 276.91 141.59 274.33 145.59 
M 271.9 149.48 269.57 153.17 
M 267.27 156.69 265.13 159.89 
M 297.67 115.48 294.39 120.6 285.88 135.05 276.19 150.74 270.16 159.87 
M 302.29 116.65 290.97 134.69 281.79 149.79 274.06 161.42 
M 254.32 184.85 251.85 186.87 
M 306.9 117.83 300.87 127.59 292.79 139.8 
M 290.59 143.42 287.24 149 283.42 154.71 
M 264.62 179.89 264.59 179.92 
M 257.64 186.68 253.54 189.84 
M 311.37 118.99 306.32 127.59 299.13 137.79 291.2 150.47 
M 288.69 154.12 283.55 161.3 
M 265.48 184.19 263.2 186.32 
M 315.67 120.11 311.66 127.39 309.34 130.94 302.06 141 296.38 150.14 
M 293.87 153.77 287.78 162.01 
M 278.28 175.38 277.43 176.47 
M 273.08 181.54 270.87 183.82 
M 319.88 121.19 316.75 127.09 314.55 130.7 307.35 140.78 302.83 147.99 299.09 153.43 
M 296.49 156.96 292.47 162.27 
M 282.57 175.83 280.44 178.56 
M 324.12 122.28 319.57 130.44 317.3 133.97 312.63 140.68 306.89 149.59 
M 304.36 153.18 296.81 163.12 
M 289.83 172.39 285.56 177.99 
M 328.48 123.4 322.31 133.82 313.41 147.76 308.39 154.8 301.97 163.03 
M 299.57 166.09 294.98 171.97 
M 290.66 177.46 288.55 180.03 
M 332.89 124.63 316.37 151.37 313.88 154.78 309.87 159.74 
M 307.31 162.89 300.17 171.66 
M 297.92 174.42 293.61 179.57 
M 337.38 125.93 326.9 142.53 
M 324.79 146.19 322.76 149.74 
M 318.29 156.49 314.35 161.32 307.86 168.71 
M 296.52 181.58 294.42 183.73 
M 341.89 127.36 331.13 144.04 325.16 154.81 323.01 158.11 320.54 161.29 317.84 164.36 311.04 171.46 
M 306.09 176.69 303.81 179.11 
M 301.6 181.37 299.45 183.46 
M 346.47 128.83 336.87 143.58 331.54 152.78 
M 329.65 156.24 327.64 159.57 
M 320.06 168.67 314.49 174.07 
M 309.25 179.04 306.87 181.28 
M 351 130.39 339.32 148.73 
M 337.13 152.37 333.15 159.3 
M 331.09 162.58 328.82 165.7 
M 320.92 173.99 318.13 176.5 
M 355.44 131.92 352.85 136.31 341.68 153.8 337.53 160.69 334.41 165.51 
M 332.15 168.5 329.76 171.29 
M 359.96 133.51 356.49 139.67 350.9 148.34 
M 348.54 151.84 343.96 158.74 
M 341.86 162.08 338.78 166.87 335.47 171.2 
M 363.99 136.58 362.32 139.68 360.19 143.16 351.87 155.25 
M 349.56 158.61 347.35 161.9 
M 345.26 165.1 341.05 171.11 
M 363.99 146.35 355.18 158.59 
M 363.99 154.08 359.5 160.23 354.46 167.98 
M 363.86 161.76 361.8 164.92 
M 197.28 111.8 197.28 111.8 
M 203.41 110.31 204.37 87.81 206.19 83.21 206.9 80.71 209.09 76.48 209.77 73.95 211.17 71.91 213.68 67.45 215.15 65.44 216.25 63.06 217.81 61.1 220.02 59.79 221.49 57.74 223.33 56.06 225.76 54.97 230.31 52.49 231.63 50.3 235.22 46.85 237.67 45.78 240.86 41.92 242.63 40.37 247.61 40.07 249.51 39.34 255.92 40.63 259.36 38.44 264.28 37.35 266.96 33.13 269.94 32.6 271.69 30.88 274.27 30 276.33 30.63 277.18 32.04 278.06 34.49 279.42 35.92 281.9 36.28 285.31 38.04 287.49 39.43 288.92 40.06 291.58 41.68 294.48 42.67 298.52 46.2 301.07 48.2 304.02 49.79 306.86 51.28 309.68 51.33 311.23 50.52 320.61 53.4 324.14 56.73 324.64 61.36 325.78 67.35 327.43 69.72 329.02 72.68 329.61 79.54 331.23 86.49 330.21 90.93 330.17 93.59 329.73 97.85 330.48 101.04 330.37 103.44 329.16 107.23 328.91 108.66 327.35 123.11 
M 321.69 121.65 321.69 121.65 
M 201.31 110.82 202.6 109.54 202.98 107.7 202.95 105.34 203.9 98.38 203.73 96.96 204.87 94.57 205.09 92.62 
M 205.34 109.84 206.97 103.71 207.21 101.07 207.77 98.69 207.07 96.5 207.56 94.28 208.63 92.57 209.19 91 209.57 88.89 209.19 85.83 210.2 83.31 210.22 80.69 211.19 78.93 210.56 77.82 
M 209.43 109.11 210.23 107.45 212.06 102.39 212.41 100.61 212.09 95.83 212.44 93.79 213.46 91.65 214.26 87.32 
M 213.51 108.39 214.86 106.67 215.69 103.85 216.57 100.21 217.11 96.07 217.75 93.21 219.96 85.6 219.93 83.7 221.17 81.1 221.97 78.68 221.97 76.71 220.87 71.15 221.38 67.76 222.42 63.78 224.19 61.19 
M 217.65 108.02 218.86 106.4 221.46 99.92 221.18 96.83 221.47 94.19 222.56 91.76 224.25 86.9 224.27 84.41 224.95 82.4 226.62 79.8 227.19 77.59 
M 221.78 107.69 223.4 105.91 224.54 104.14 225.21 101.89 225.29 99.42 226.34 94.31 228.41 89.58 228.47 86.91 230.9 83 231.23 81.26 232.07 79.21 232.03 76.9 232.87 72.76 233.97 69.71 236.27 64.98 236.2 62.97 
M 225.93 107.68 227.15 106.06 228.89 102.09 229.48 99.64 230.28 94.49 232.05 92.6 233.2 89.95 233.95 87.22 234.79 85.58 236.05 83.8 237.59 82.56 238.43 80.3 238.13 77.23 240.05 69.75 240.15 67.46 239.68 64.3 240.15 62.23 242.19 60.45 242.39 56.03 245.64 50.52 247.47 48.38 
M 230.08 107.71 231.37 106.18 234.43 99.56 235.15 96.89 238.61 89.3 240.05 86.97 240.97 84.71 242.13 82.56 243.59 80.38 244.19 78.19 245.52 70.53 245.9 67.86 245.95 64.1 247.32 59.96 249.62 56.62 250.6 54.21 251.13 51.53 
M 234.22 108.02 235.71 106.39 238.02 102.29 240.67 95.21 243.85 89.08 244.7 86.68 246.71 82.94 248.14 80.75 251.73 71.27 251.93 68.78 252.45 65.59 253.67 63.45 253.93 60.72 254.64 58.92 256.38 56.3 256.91 53.3 257.78 51.72 257.8 50.57 
M 238.36 108.36 239.89 106.84 241.86 102.8 242.74 100.15 245.91 92.92 247.33 89.08 248.56 87.25 249.95 85.88 250.65 83.57 251.14 80.86 252.21 78.95 253.35 76.2 253.97 73.37 254.92 70.55 256.06 62.81 256.95 60.96 258.77 55.55 259.79 53.12 259.87 51.81 260.35 49.9 261.7 47.27 263.8 43.7 
M 242.51 108.45 244.01 106.79 246.17 102.88 248.02 97.97 248.95 94.88 250.6 91.23 251.52 87.22 252.8 84.55 253.43 82.09 253.66 80.05 255.28 77.59 256.41 75.17 256.58 72.07 257.1 69.5 257.61 64.95 258.48 62.21 
M 246.66 108.5 248.15 106.87 249.32 104.9 250.4 102.64 251.95 97.65 252.35 95.38 253.73 91.45 254.07 89.3 254.84 86.87 256.2 84.41 257.32 81.48 258.15 78.45 260.17 73.83 260.2 71.46 260.71 69.61 260.66 68.01 261.4 62.75 262.5 60.21 265.02 56.86 266.18 54.18 267.22 52.59 267.45 49.79 268.26 47.32 268.97 46.02 270.73 43.88 
M 250.81 108.47 252.34 106.87 253.46 104.62 254.41 102.25 255.12 99.68 256 94.86 257 91.3 258.76 86.42 260.31 84.51 261.22 81.5 261.3 79.16 262.52 76.95 262.56 72.25 263.6 68.1 264.46 65.53 265.69 63.33 267.35 61.23 268.56 59.12 269.13 56.33 
M 254.96 108.43 256.76 106.63 257.83 104.53 258.6 102.26 260.05 95.26 261.24 91.33 263.21 86.68 264.45 84.22 266.08 80.11 266.06 75.13 
M 259.11 108.48 260.56 106.82 262.94 99.97 264 98.05 264.98 95.68 265.62 93.69 266.66 89.42 267.54 87.07 268.12 84.51 269.14 82.28 269.5 80.06 270.3 77.03 270.44 75.07 271.3 73.43 272.24 71.15 273.46 67.6 
M 263.26 108.55 264.71 106.54 267.12 100.26 268.4 98.28 270.5 93.81 270.68 91.94 271.57 89.53 273.04 84.65 273.74 78.82 275.08 77.07 275.87 75.16 276.93 73.75 278.23 71.33 279.86 67.69 280.18 64.55 280.65 62.55 
M 267.4 108.75 268.74 107.12 271.75 100.75 274.31 96.48 275.4 92.04 276.44 89.43 277.41 87.73 278.56 80.15 279.95 77.6 281.67 74.91 
M 271.54 108.97 272.86 107.48 276.68 100.9 279.35 97.03 280.31 94.88 281.76 93.13 283.07 91.18 284.9 86.3 285.64 81.44 286.28 79.84 288.46 77.52 
M 275.63 109.7 277.36 108.2 280.56 103.97 281.91 101.63 282.77 99.34 283.94 97.91 285.54 96.58 287.5 91.77 289.9 89.94 292.29 85.59 293.82 82.25 294.72 79.67 295.78 77.34 297.58 74.44 
M 279.71 110.48 281.54 109.16 283.21 107.07 285.72 103.37 286.92 101.23 288.61 99.41 290.83 96.12 292.85 94 296.49 89.54 297.49 87.66 299.42 82.62 301.13 80.57 304.55 77.24 305.19 74.29 305.9 72.04 307.2 70.23 308.36 67.68 309.32 66.87 
M 283.7 111.62 285.83 110.44 287.28 108.61 288.54 106.37 290.2 104.29 292.62 100.81 294.59 99.17 296.88 97.94 298.94 95.94 299.38 93.44 302.61 89.99 304.22 87.9 306.45 84.42 308.98 79.5 312.73 74.79 314.13 73.27 315.66 68.97 316.71 67.7 318.06 66.42 
M 287.67 112.82 289.67 111.46 292.93 107.83 295.13 103.58 296.98 101.66 298.56 100.03 300.91 98.89 303.32 96.63 304.06 94.45 305.59 92.58 308.9 87.3 310.81 81.82 311.95 79.56 313.51 77.84 
M 291.67 113.91 293.98 112.81 295.89 110.94 298.38 106.97 299.33 104.57 300.51 102.59 302.4 101.43 304.33 99.42 305.94 97.07 306.84 95.24 309.92 91.72 311.25 87.12 
M 295.69 114.96 298.22 113.57 299.82 112.03 302.64 107.85 303.46 105.6 304.85 104.22 306.36 102.31 308.1 100.74 309.37 98.4 312.27 94.52 316.42 86.32 317.99 84.32 
M 299.71 115.99 302 114.88 303.77 113.43 305.44 111.63 307.74 107.21 309.24 105.19 310.39 103.09 313.68 99.72 314.76 98.12 
M 303.73 117.01 306.26 116.38 308.21 114.81 309.66 112.61 311.6 111.16 312.85 108.93 314.9 104.01 316.67 102.24 318.38 100.18 319.36 98.49 320.8 96.55 322.33 95.02 323.48 93.11 
M 307.75 118.05 310.08 117.17 311.95 115.43 314.18 113.76 317.23 109.46 318.3 107.4 319.07 106.35 320.61 104.9 
M 311.76 119.1 316.56 116.85 318.14 115.15 319.94 112.69 320.23 111.24 
M 315.78 120.14 318.71 119.3 320.3 118.3 321.28 116.48 321.81 114.54 
M 167.61 162.34 171.6 161.65 176.66 161.03 181.59 160.56 191.53 160.14 201.92 159.11 206.8 158.86 209.55 159.1 214.38 158.64 221.76 158.26 226.68 158.28 231.82 157.86 234.72 157.98 239.34 158.74 242.12 158.77 246.66 158.39 251.65 158.87 254.3 159.59 256.67 160.02 259.17 160.18 262.09 160.16 265.58 159.85 269.72 161.11 272.28 161.41 274.88 161.42 281.97 162.29 284.45 162.3 289.57 161.83 292 162.14 294.87 162.97 300.3 163.38 303.74 164.16 286.9 171.8 284.9 173.03 277.75 175.55 275.72 176.74 271.03 178.44 266.24 179.76 263.42 179.99 258.86 181.52 256.84 182.55 254.32 182.96 251.63 183.13 249.56 183.93 241.97 184.94 239.73 185.48 237.08 185.5 234.83 185.92 232.09 185.85 229.55 185.99 223.88 185.7 216.37 186.66 209.31 187.98 204.7 187.77 194.87 186.73 184.92 184.36 182.89 184.19 179.75 183.57 164.61 180.11 161.96 177.84 159.72 176.64 
M 166.61 164.21 171.79 163.67 179.48 163.35 184.33 163.23 189.03 163.44 191.46 163.33 194.08 163.15 197.01 162.71 199.64 162.6 202.01 163.11 204.72 163.44 207.55 163.36 209.74 163.53 211.85 163.32 216.91 163.28 219.3 163.46 222.23 163.05 227.19 163.48 232.35 163.5 234.71 163.89 236.89 163.94 239.29 164.29 244.44 164.47 247.1 165.37 
M 165.8 165.72 177.07 165.88 179.48 166.01 181.89 166.37 191.65 166.45 197.1 166.02 199.75 166 202.2 166.83 207.63 167.7 219.61 168.3 222.35 168.29 227.47 169 232.55 170.25 234.76 171.09 238.99 171.63 241.6 172.26 248.9 173.46 254.89 173.62 257.35 174.04 259.79 174.8 261.83 175.67 266.93 176.93 269.19 177.71 
M 164.91 167.35 177.04 168.23 184.54 169.17 196.87 169.69 204.36 171.46 207 171.79 209.26 172.34 213.79 172.61 216.23 173.08 218.84 173.86 224.15 174.83 
M 164.21 168.96 174.39 170.31 177.14 170.44 179.76 170.85 182.4 171.72 189.39 172.22 191.72 172.76 193.99 173.06 199.35 174.72 201.75 175.22 
M 163.58 170.65 169.18 171.66 177 172.8 182.06 174.33 187.04 175.04 191.79 176.13 203.76 180.7 209.12 182.08 213.97 183.69 215.9 185.1 218.77 185.51 
M 162.81 172.27 166.55 173.24 174.6 174.88 179.49 176.38 181.73 177.45 184.32 177.93 189.23 179.29 191.66 180.39 193.53 181.67 196.2 182.81 198.95 183.53 201.66 184.67 204.14 186.11 
M 162.02 173.83 166.62 175.6 174.64 177.37 181.47 180.6 
M 164.17 176.87 166.73 178.09 169.23 178.99 171.91 179.57 174.51 180.5 176.99 181.8 
M 213.86 192.21 219.05 196.44 220.71 198.68 221.79 201.14 223.34 203.45 225.09 204.99 230.85 208.31 232.97 210.36 234.91 212.69 237.18 214.97 238.81 217.12 240.33 218.79 243.06 220.33 244.71 222.32 244.86 224.54 245.86 227.18 248.09 237.99 245.95 242.24 245.64 245.12 244.77 247.44 239.78 255.78 239.31 258.66 238.11 260.88 236.7 262.97 234.79 264.56 233.36 266.62 232.28 269.04 230.63 271.35 221.23 280 220.99 278.32 219.51 275.63 219.35 273.75 218.71 271.99 216.02 267.24 216.41 264.58 215.84 260.99 216.16 256.98 216.78 253.27 216.25 251.19 216.07 249.43 215.09 246.93 214.7 244.62 214.02 242.58 213.12 240.77 212.02 239.2 212.56 235.95 212.58 233.25 211.67 231.18 211.03 228.53 211.74 225.36 211.38 219.23 210.41 214.68 209.76 212.66 209.52 209.86 209.58 207.4 208.73 204.68 206.55 193.52 205.57 190.59 
M 212.24 191.89 214.79 194.43 216.72 196.62 218.12 198.66 220.78 203.72 222.13 205.88 225.4 209.16 229.6 214.51 230.98 216.72 231.68 219.1 
M 210.61 191.57 212.84 194.12 214.47 196.7 217.8 203.82 220.96 207.62 221.61 209.95 222.51 212.03 223.94 214.48 226.29 219.72 227.96 222.35 229.31 225.01 232.1 229.7 
M 208.98 191.26 210.9 194.06 211.99 196.7 213.5 201.45 219.03 213.41 221.24 220.84 221.67 223.58 222.73 227.15 224.28 229.63 225.21 231.82 227.52 234.46 228.83 236.54 229.79 239 
M 207.35 190.94 208.79 193.86 209.71 196.74 210.09 199.42 210.74 202.08 212.99 206.74 213.61 209.42 213.86 211.66 215.83 215.98 215.94 218.68 217.2 223.54 218.52 226.41 219.09 229.13 220.24 233.1 
M 338.28 176.9 342.6 181.35 347.84 184.95 350.43 186.99 353.71 198.18 352.79 200.09 352.6 202.73 354.49 210.26 353.04 211.97 350.3 212.67 348.19 213.97 347.81 216.89 346.46 219.06 343.81 219.71 341.19 219.8 338.24 217.41 336.38 216.17 335.13 217.54 333 218.03 331.07 219.24 328.61 219.9 322.51 217.77 319.64 217.17 317.86 217.67 313.92 217.72 303.46 213.26 300.61 212.6 290.52 204.25 287.22 202.26 282.82 195.92 280.22 190.99 
M 334.34 178.22 337.85 181.64 339.47 183.88 343.99 187.51 346.1 189.54 347.05 191.76 349.78 194.74 
M 330.41 179.54 337.15 187.25 339.51 188.99 343.4 193.99 344.17 195.77 346.14 197.31 348.23 198.67 352.95 204.2 
M 326.46 180.82 329.35 183.99 333.59 189.08 341.1 196.74 
M 322.51 182.09 324.96 184.93 326.88 187.49 329.12 189.8 331.39 191.85 333.58 193.4 337.7 198.09 339.13 200.55 340.42 203.17 
M 318.52 183.22 323.02 188.15 324.88 190.9 327.37 193.6 330.11 195.56 331.5 197.01 332.5 199.36 
M 314.51 184.31 316.98 187.21 319.35 189.59 325.57 197.09 327.29 198.85 328.54 200.78 330.31 202.17 331.56 204.2 
M 310.49 185.33 315.1 190.88 317.3 192.98 319.45 195.5 321.48 197.97 322.78 199.97 324.38 201.84 325.93 203.31 329.26 207.88 330.98 210.57 
M 306.46 186.33 309.1 189.45 311.07 191.29 313.42 193.89 315.26 196.15 316.76 198.91 318.19 201.09 322.56 205.75 323.36 207.4 324.96 209.61 329.45 214.73 
M 302.42 187.25 307.24 192.44 309.47 194.48 312.52 198.59 314.01 202.22 317.69 207 318.77 209.03 320.31 211.17 
M 298.36 188.12 301.23 191.03 305.06 195.54 307.25 200.14 309.56 202.69 311.24 204.83 
M 294.28 188.87 296.88 191.91 298.92 194 302.05 199.16 303.1 201.46 
M 290.18 189.55 296.34 197.42 298.58 202.55 300.39 204.86 305.02 209.21 307.03 211.58 
M 286.08 190.16 290.49 196.42 292.33 199.4 296.62 203.87 
M 363.16 134.64 365.9 134.39 371.02 132.08 375.45 129.59 377.94 128.67 380.22 128.1 382.11 126.45 384.2 125.7 386.05 124.27 388.3 122.88 393.19 121.42 396.02 119.21 399.04 118.92 402.99 116.72 405.4 114.86 406.86 112.09 414.45 111.39 417.42 112.09 418.85 111.26 421.38 111.54 427.59 113.52 429.33 113.32 434.31 115.18 437.89 117 440.05 118.32 445.18 122.18 447.47 123.73 451.79 126.28 453.49 127.95 458.05 134.18 459.57 137.04 458.88 140.01 460.43 142.36 463.49 146.4 464.38 149.47 463.7 151.88 462.46 153.73 461.72 155.93 460.98 160.94 461.55 166.57 461.52 171.65 460.32 173.98 458.13 175.31 456.17 176.87 454.52 178.69 453.45 181.08 452.63 183.72 448.23 186.37 446.17 187.8 443.94 188.96 440.46 192.27 438.27 193.41 435.71 194.14 432.88 194.6 430.76 195.78 428.88 197.13 426.05 197.54 419.59 196.91 417.59 197.73 413.54 198.95 406.78 199.63 404.39 197.79 399.3 195.72 397.71 194.02 389.82 188.78 387.96 186.8 385.57 185.03 383.86 183.27 381.83 181.98 380.08 180.33 378.33 178.25 375.94 176.67 370.98 174.41 366.11 171.35 363.16 168.8 
M 365.94 136.2 368.5 135.49 371.19 134.38 380.39 130.21 387.41 127.35 389.14 126.13 390.81 125.24 393.48 124.12 
M 371.24 136.56 373.78 135.58 376.44 134.89 379.27 133.73 381.31 132.62 383.27 131.31 386.07 130.62 390.64 128.37 395.14 126.82 398.06 125.5 400.72 123.97 
M 366.03 139.8 368.68 139.27 373.84 137.56 379.01 136.38 381.93 135.48 383.98 134.43 386 133.08 391.58 131.19 393.74 130.68 395.94 129.81 
M 363.16 141.47 366.06 141.65 371.37 140.68 373.92 140.1 376.43 139.26 379.22 138.66 382.28 138.22 384.65 137.6 386.35 136.2 388.85 135.06 391.34 134.19 393.82 132.83 403.24 130.43 405.42 130.8 407.27 129.97 410.32 128.9 412.63 127.43 415.34 126.5 417.99 125.21 420.23 124.73 
M 363.16 143.18 366.16 143.43 369 143.05 379.11 141.04 382.39 140.6 384.58 140.02 386.75 138.83 391.05 137.22 393.61 135.74 396.95 135.11 399.88 135.26 401.6 134.71 405.44 134.88 407.67 134.29 410.76 132.95 416.36 131.03 418.11 129.93 420.86 128.78 423.3 127.5 425.67 126.89 428.45 126.52 433.5 127.14 436.33 127.01 438.21 126.57 
M 369.08 145.04 371.9 144.35 378.78 143.2 384.28 142.54 391.4 140.58 393.91 139.24 397.27 138.89 400.25 138.9 401.91 137.99 404.16 138.03 407.03 138.36 409.32 138.08 
M 369.02 146.74 374.36 146.3 376.76 145.78 378.77 145.54 387.33 145.43 392.75 144.45 394.67 143.34 396.87 142.9 402.63 142.57 405.63 142.05 410.01 141.76 414.32 140.26 416.49 139.96 418.59 139.97 424.36 140.91 426.74 139.66 429.61 138.98 432.19 139.42 434.17 138.15 437.74 137.67 441.08 136.91 444.48 135.87 
M 371.73 148.93 374.24 148.84 378.9 147.75 381.51 147.79 384.36 148.3 387.72 148.34 390.78 147.92 393.1 147.82 395.11 147.19 397.29 146.09 400.06 145.99 402.81 146.34 405.94 146.4 408.86 146.27 410.77 145.98 412.62 144.94 417.71 144.63 419.57 143.96 
M 363.16 150.01 366.3 150.5 374.41 151.05 379.22 150.15 381.7 149.96 384.28 150.86 386.94 151.02 390.34 150.69 392.76 150.75 395.72 150.34 400.15 150.03 408.76 150.37 411.06 150.87 412.82 150.43 414.3 149.8 417.29 149.27 422.34 147.79 425.02 148.15 428.88 149.22 432.18 150.33 434.31 150.83 436.7 149.55 
M 363.16 151.72 366.34 152.32 374.88 153.11 379.4 152.45 381.74 152.57 384.62 153.02 389.24 154.56 391.78 154.8 395.2 154.42 398.36 153.73 401.42 153.61 403.57 154.11 405.97 154.42 408.21 154.31 411 155.28 413.14 154.88 415.1 154.72 421.69 153.43 423.72 152.83 426.03 152.74 429.12 153.23 
M 371.83 155.07 377.24 155.4 379.37 155.27 381.56 155.71 384.4 155.97 389.82 157.34 392.32 157.58 395.27 157.52 399.1 157.1 401.58 157.41 403.51 158.8 406.13 159.16 410.08 159.19 415.26 159.57 417.06 160.07 422.69 158.77 425.56 158.96 428.42 159.47 430.75 160.6 433.5 161.16 439.51 160.94 442.41 160.69 
M 363.16 155.13 371.49 157.03 374.06 157.41 376.82 157.52 381.57 158.67 387.51 159.53 390.69 160.28 393.36 160.45 395.8 160.19 401.46 161.32 404.89 162.64 407.34 162.66 408.92 163.91 411.21 164.68 416.59 165.03 420.22 164.87 
M 363.16 156.84 369.08 158.28 371.36 159.06 373.86 159.47 376.69 159.72 381.93 161.63 384.76 161.68 393.26 163.38 395.54 163.56 398.56 164.7 403.1 166 404.89 166.83 407.06 167.38 409.09 168.29 411.16 168.76 413.51 169.98 415.77 170.41 423.3 170.48 426.26 171.76 428.69 172.24 431.39 171.93 433.34 170.94 439.51 173.04 441.41 174.41 445.66 175.21 449.93 175.16 
M 371.35 160.97 376.26 162.19 381.43 164.3 384.24 164.66 387.57 165.31 390.39 165.61 392.55 166.12 394.44 167.17 400.07 169.13 402.02 170.05 404.53 170.78 406.91 170.97 
M 366.25 161.47 380.99 167.5 384.08 167.67 386.84 168.3 389.73 168.44 391.85 169.68 393.71 171.02 396.67 172.05 399.32 172.25 406.29 176.15 
M 370.98 165.92 375.78 168.26 378.49 168.95 383.39 170.71 386.26 171.42 389.07 171.87 391.15 173.24 395.7 174.86 398.93 175.83 401.13 177.33 403.96 178.83 404.96 180.12 406.75 180.83 413.76 181.75 415.55 183.43 417.58 184.73 420.31 185.36 422.05 186.64 424.84 187.94 430.73 189.7 433.3 189.18 434.77 190.17 
M 363.16 163.67 366.24 165.68 370.8 168.26 373.28 169.46 376.03 170.35 378.34 171.44 380.66 172.14 385.41 174.66 387.72 175.46 389.68 176.35 392.46 177.16 396.3 178.88 402.42 183.3 403.96 183.91 406.48 183.9 
M 368.39 168.95 373.1 171.69 378.04 173.99 380.78 174.76 385.15 176.88 387.03 177.96 388.67 179.33 391.58 180.84 396.61 184.81 399.5 186.68 401.68 188.32 403.68 189.08 405.67 189.28 407.05 189.16 409.3 191.49 
M 368.32 170.96 370.91 172.43 382.78 178.31 384.58 180.28 386.88 181.56 388.95 183.34 390.92 184.77 392.99 187.32 395.53 189.44 
M 353.04 169.46 351.37 169.89 348.43 171.32 345.33 174.12 346.57 174.05 
M 71.82 127.35 75.05 126.45 81.92 125.32 86.76 125.17 92.25 125.34 98.62 124.89 113.27 122.68 120.49 122.04 127.86 121.93 141.72 121.03 164.09 121.06 167.41 124.65 168.65 131.06 170.66 137.58 170.41 143.78 170.39 150 170.02 153.07 169.9 156.17 169.38 159.21 164.63 167.87 163.51 170.83 162.09 173.74 159.87 176.54 155.8 179.12 144.43 179.24 136 178.86 128.66 177.86 121.83 176.13 115.45 173.8 109.82 170.95 99.5 164.38 95.04 160.98 
M 92.5 158.58 90.79 156.94 82.88 147.19 
M 146.83 135.29 146.71 137.97 146.04 140.44 143.82 144.82 142.55 146.74 140.75 148.51 139.53 150.34 138.91 152.11 139.79 155.98 139.85 158.31 138.51 160.89 125.4 162.22 120.09 162.32 114.73 161.71 109.42 160.36 104.62 158.26 100.02 155.46 
M 92.77 158.91 88.08 152.82 79.63 143.71 75.91 139.1 68.91 131.09 68.16 128.94 69.21 127.21 71.24 126.89 72.87 128.2 80.04 138.2 83.47 143.41 89.71 151.78 92.94 157.18 95.35 160.81 
M 94.75 161.33 85.44 156.01 80.09 153.51 76.65 151.62 65.26 146.04 61.57 144.13 58.21 142.12 56.51 140.96 55.61 139.03 56.42 137.1 58.45 136.64 60.27 137.6 68.65 143.64 79.29 150.14 80.87 151.28 86.13 154.27 95.22 160.69 
M 110.21 139.36 109.36 136.14 109.6 132.82 110.91 129.76 113.14 127.28 116.05 125.67 119.33 125.09 122.62 125.6 125.56 127.16 127.84 129.59 129.21 132.62 129.52 135.94 128.73 139.17 126.94 141.98 124.33 144.05 121.19 145.16 117.86 145.2 114.7 144.15 112.05 142.13 110.21 139.36 
M 110.08 139.07 109.68 137.89 109.32 135.41 109.57 132.92 110.43 130.57 111.85 128.51 112.73 127.62 114.8 126.21 117.15 125.35 119.64 125.09 120.89 125.19 123.3 125.86 
M 111.62 138.44 111.28 137.45 110.97 135.38 111.3 132.93 
M 111.63 131.98 112.84 129.93 
M 113.27 129.43 114.66 128.22 115.56 127.69 117.52 126.97 119.6 126.75 120.65 126.84 122.66 127.39 
M 113.15 137.8 112.88 137.01 112.63 135.34 112.97 133.14 
M 114.68 130.36 116.32 129.16 117.9 128.58 118.73 128.44 120.41 128.48 122.03 128.93 
M 115.74 136.86 115.4 135.58 115.5 134.25 115.72 133.72 
M 116.84 132.12 118.08 131.39 119.39 131.16 120.7 131.36 121.88 131.99 122.79 132.96 123.34 134.17 123.46 135.5 123.15 136.79 122.43 137.91 121.39 138.74 120.13 139.19 118.8 139.2 117.54 138.78 116.48 137.97 115.74 136.86 
M 115.96 133.78 115.46 134.78 
M 118.43 131.33 117.66 132.87 
M 116.97 134.24 115.71 136.76 
M 119.73 131.21 118.51 133.65 
M 117.99 134.69 116.4 137.86 
M 120.86 131.44 119.36 134.44 
M 119.06 135.04 117.29 138.59 
M 121.84 131.97 120.21 135.23 
M 120.15 135.35 118.31 139.04 
M 122.66 132.82 119.47 139.19 
M 123.29 134.06 120.85 138.93 
M 73.05 126.96 76.68 130.58 
M 77.12 126.05 80.05 128.97 
M 81.45 125.39 85.86 129.8 
M 86.23 125.19 90.3 129.27 
M 91.33 125.31 94.75 128.73 
M 96.06 125.07 100.51 129.52 
M 100.58 124.61 104 128.02 
M 104.94 123.98 109.29 128.33 
M 109.25 123.31 113.09 127.16 
M 113.57 122.65 116.22 125.31 
M 118.14 122.25 121.29 125.4 
M 122.88 122.01 126.27 125.39 
M 127.79 121.93 131.83 125.97 
M 132.41 121.58 136.42 125.58 
M 137.09 121.27 141.41 125.59 
M 141.82 121.03 146.65 125.85 
M 146.76 120.99 149.92 124.14 
M 151.8 121.04 154.48 123.73 
M 156.83 121.1 160.9 125.16 
M 161.77 121.05 166.72 126 
M 110.41 139.67 110.77 141.54 111.49 142.99 
M 99.63 126.35 101.43 128.61 
M 128.2 148.44 129.92 146.99 130.39 146.2 132.41 140.58 133.12 139.23 133.59 138.68 
M 126.17 167.15 125.5 167.53 123.22 168.26 121.74 169.46 120.82 170.01 119.37 170.3 
M 159.26 172.5 159.04 171.69 156.99 169.52 155.64 167.21 153.46 162.85 
M 159.26 131.18 158.84 130.24 158 129.5 156.06 129.21 154.16 129.19 
M 117.03 164.64 116.89 165.31 117.1 166.12 119.03 167.1 
M 142.78 154 144.51 152.81 144.91 152.79 145.48 153.16 
M 149.8 150.04 150.08 150.32 150.38 150.33 150.72 150.11 151.23 149.38 151.26 148.58 150.87 147.96 
M 108.83 169.51 109.53 168.4 109.97 166.8 110.49 166.42 111.49 166.17 
M 129.2 146.28 130.27 144.69 131.45 142.25 132.54 139.49 134.81 136.83 
M 165.48 133.96 166.3 134.22 167.88 134.2 169.4 133.46 
M 169.04 148.85 169.63 148.64 170.43 148.81 
M 129.3 168.29 129.91 169.68 131.05 170.85 132.28 171.36 133.78 171.14 
M 169.39 157.98 168.08 157.64 166.83 156.93 166.28 156.46 165.32 155.08 163.83 154.21 161.95 153.52 160.99 153.32 160.21 153.35 159.11 153.86 
M 165.2 139.87 162.47 141.7 161.8 142.34 160.38 144.39 158.81 147.52 
M 135.78 140.75 136.18 138.68 135.92 136.25 135.97 132.7 135.54 131.85 
M 78.7 130.34 78.57 132.05 78.21 133.12 77.99 133.48 77.37 133.89 
M 146.1 175.46 143.56 178.06 142.71 178.5 141.66 178.11 139.67 176.12 
M 101.43 165.64 101.8 165.04 103.05 164.12 104.46 162.75 105.66 161.98 
M 151.53 162.44 151.69 160.98 153.26 157.93 154.11 156.71 
M 159.92 135.99 160.39 136.51 162.47 138.03 162.76 138.45 162.84 138.93 162.39 140.46 160.34 144.01 
M 149.88 121.24 149.84 121.01 
M 109.77 158.02 109.91 157.62 109.76 157.35 108.34 156.61 
M 84.22 127.3 83.86 128.22 83.69 130.21 
M 130.31 144.38 131.25 142.5 132.24 139.88 133.22 138.45 134.52 137.12 134.96 136.33 135.57 134.28 
M 91.32 148.77 90.58 148.2 89.26 146.72 87.39 144.98 86.49 143.75 85.22 141.53 83.63 139.63 83.13 138.24 83.16 137.52 
M 156.44 152.93 154.63 150.99 153.8 150.85 
M 138.09 139.46 136.22 137.1 135.95 135.62 136.01 132.88 135.63 131.94 134.82 131.17 
M 114.97 173.56 114.19 171.29 114.36 170.92 114.79 170.73 
M 142.03 165.06 143.26 165.9 144.41 166.31 
M 159.55 153.7 158.5 154.21 157.71 154.27 157.3 154.1 156.45 153.22 
M 144.84 139.65 144.44 138.07 144.65 137.4 145.27 136.74 146.84 135.61 148.68 133.65 
M 148.42 126.08 149.52 124.67 149.95 123.7 150.12 122.36 149.88 121.01 
M 84.85 141.74 83.38 139.82 83.05 139.01 82.87 137.9 83.49 136.42 85.16 134.81 
M 106.04 139.05 107.63 139.05 108.18 139.4 
M 141.22 168.72 141.27 169.75 140.95 170.19 138.34 171.56 136.94 171.76 
M 158.51 138.9 160.03 140.19 160.37 140.86 160.3 141.74 159.49 143.49 158.85 145.85 158.35 147.06 158.03 147.36 
M 115.88 173.96 115.4 173.1 114.76 171.37 115.03 170.96 115.76 170.96 
M 83.39 129.67 83.18 130.25 81.73 131.58 81.13 132.37 81.13 132.85 81.49 133.15 
M 125.94 168.45 124.79 169.02 123.46 169.36 120.56 170.73 119.62 170.96 118.12 171.04 
M 103.18 166.78 104.32 165.36 105.92 164.12 
M 152.47 128.05 152 127.95 151.23 127.45 150.31 126.22 150.24 125.54 150.44 124.14 150.33 123.12 
M 105.23 153.98 105.33 153.54 105.01 153.11 
M 68.82 147.75 79.04 155.13 84.73 158.76 90.69 162.1 96.93 165.21 109.82 170.95 
M 168.3 129.01 168.59 129.29 
M 166.27 120.33 175.96 130.03 
M 171.24 118.66 178.4 125.82 
M 176.31 117.1 181.56 122.35 
M 181.44 115.59 187.85 122 
M 186.76 114.27 195.36 122.86 
M 192.12 112.99 198.05 118.91 
M 197.51 111.74 203.73 117.95 
M 202.86 110.44 211.57 119.15 
M 208.35 109.3 214.78 115.72 
M 214.01 108.32 221.6 115.91 
M 220.15 107.82 228.51 116.17 
M 226.66 107.69 236.27 117.29 
M 233.59 107.97 239.16 113.55 
M 240.67 108.42 249.17 116.91 
M 247.4 108.51 254.17 115.28 
M 253.97 108.44 260.11 114.58 
M 260.68 108.51 267.33 115.15 
M 267.58 108.76 274.54 115.73 
M 275.04 109.59 283.54 118.09 
M 283.73 111.63 289.36 117.27 
M 292.98 114.25 299.57 120.84 
M 301.93 116.55 307.37 122 
M 310.88 118.87 316.22 124.21 
M 319.83 121.17 326.45 127.79 
M 328.76 123.47 333.98 128.68 
M 338.06 126.13 344.71 132.78 
M 347.89 129.32 353.91 135.34 
M 358.05 132.84 367.66 142.45 
M 368.31 136.46 370.03 138.18 
M 167.27 181.33 167.55 181.89 
M 170.21 181.39 170.85 182.67 
M 168.55 160.66 169.24 162.03 
M 169.73 157.19 170.21 158.15 
M 170.95 159.63 171.93 161.61 
M 171.21 154.34 171.95 155.82 
M 172.69 157.31 174.17 160.28 
M 186.39 184.72 187.1 186.13 
M 174.42 154.96 177.43 160.98 
M 170.55 141.41 170.95 142.22 
M 180.11 154.71 183 160.49 
M 165.89 120.46 168.49 125.66 
M 181.11 150.9 184.82 158.32 
M 168.37 119.63 169.49 121.85 
M 183.59 150.06 188.71 160.3 
M 203.06 188.99 203.59 190.06 
M 180.88 138.84 183.85 144.77 
M 186.82 150.71 189.79 156.65 
M 205.37 187.8 206.89 190.85 
M 182.64 136.54 187.1 145.45 
M 190.81 152.88 191.55 154.36 
M 208.34 187.94 210.11 191.48 
M 184.42 134.3 188.88 143.21 
M 211.15 187.75 211.89 189.23 
M 178.41 116.46 179.53 118.69 
M 180.27 120.17 181.01 121.66 
M 186.95 133.54 189.92 139.47 
M 190.66 140.96 191.4 142.44 
M 180.94 115.71 182.8 119.42 
M 199.87 153.57 202.62 159.07 
M 183.53 115.07 185.38 118.78 
M 195.03 138.08 195.77 139.57 
M 200.97 149.96 205.45 158.93 
M 186.11 114.43 186.48 115.17 
M 195.39 132.99 199.84 141.9 
M 202.81 147.84 204.3 150.8 
M 205.04 152.29 208.4 159 
M 197.97 132.35 203.17 142.74 
M 205.4 147.19 211.29 158.98 
M 191.67 113.92 196.12 122.83 
M 199.83 130.25 205.03 140.65 
M 208.74 148.07 212.45 155.5 
M 228.78 188.16 230.27 191.13 
M 193.9 112.58 194.27 113.32 
M 195.01 114.8 198.72 122.23 
M 203.18 131.14 206.89 138.56 
M 231.39 187.56 234.74 194.25 
M 196.5 111.98 199.84 118.66 
M 200.59 120.14 201.33 121.63 
M 233.46 185.89 236.96 192.89 
M 200.21 113.58 200.95 115.07 
M 217.28 147.73 221 155.15 
M 236.25 185.66 239.56 192.27 
M 206.51 120.37 208.74 124.83 
M 219.88 147.1 223.59 154.52 
M 207.67 116.87 212.12 125.78 
M 221.03 143.6 225.48 152.51 
M 244.78 191.11 245.53 192.59 
M 246.2 193.94 246.5 194.55 
M 210.12 115.97 213.83 123.4 
M 230.91 157.55 231.09 157.9 
M 247.24 190.21 249.4 194.53 
M 205.15 100.23 205.9 101.71 
M 214.8 119.53 215.55 121.01 
M 220 129.92 222.97 135.86 
M 223.71 137.35 224.46 138.83 
M 233.36 156.65 234.02 157.95 
M 249.7 189.31 252.28 194.49 
M 205.38 94.88 209.09 102.3 
M 223.2 130.51 226.91 137.93 
M 231.37 146.84 233.59 151.29 
M 207.66 93.62 211.37 101.04 
M 225.47 129.25 229.19 136.67 
M 231.41 141.13 236.61 151.52 
M 209.68 91.85 210.42 93.33 
M 211.16 94.82 213.39 99.27 
M 215.62 103.72 217.1 106.69 
M 232.69 137.87 239.37 151.24 
M 242.34 157.17 243.1 158.69 
M 255.16 182.82 255.7 183.9 
M 216.11 98.91 216.86 100.39 
M 217.6 101.88 221.31 109.3 
M 225.76 118.21 226.51 119.69 
M 232.45 131.57 233.93 134.54 
M 236.9 140.48 239.87 146.42 
M 245.07 156.81 245.89 158.46 
M 257.71 182.1 258.43 183.54 
M 261.4 189.48 262.14 190.96 
M 219.09 99.05 223.54 107.96 
M 226.51 113.9 227.26 115.38 
M 228 116.87 229.48 119.84 
M 230.23 121.32 231.71 124.29 
M 233.94 128.75 237.65 136.17 
M 239.88 140.62 240.62 142.11 
M 241.36 143.59 245.07 151.02 
M 248.78 158.44 248.91 158.7 
M 262.15 185.17 266.13 193.13 
M 210.3 75.67 211.42 77.9 
M 215.13 85.32 218.84 92.74 
M 221.07 97.2 225.52 106.11 
M 227.75 110.56 233.69 122.44 
M 236.66 128.38 240.37 135.8 
M 244.08 143.22 247.79 150.65 
M 265.61 186.28 268.81 192.68 
M 211.91 73.06 213.76 76.77 
M 216.73 82.71 221.19 91.62 
M 224.9 99.05 225.64 100.53 
M 230.84 110.92 235.29 119.83 
M 239.74 128.74 241.97 133.19 
M 247.17 143.59 250.14 149.53 
M 267.95 185.16 271.49 192.23 
M 214.56 72.56 215.3 74.05 
M 219.01 81.47 221.98 87.41 
M 222.73 88.89 223.47 90.38 
M 233.12 109.68 238.32 120.07 
M 250.19 143.83 251.68 146.8 
M 268.01 179.46 268.75 180.95 
M 272.46 188.37 273.21 189.86 
M 231.11 99.85 231.85 101.34 
M 232.59 102.82 233.34 104.3 
M 237.79 113.21 240.02 117.67 
M 244.47 126.58 245.96 129.55 
M 270.49 178.61 272.68 183 
M 216.63 65.07 218.48 68.79 
M 225.16 82.15 225.91 83.63 
M 231.84 95.51 236.3 104.42 
M 245.21 122.24 245.95 123.72 
M 246.69 125.2 248.18 128.17 
M 248.92 129.66 249.66 131.14 
M 259.31 150.44 261.54 154.9 
M 263.77 159.35 264.08 159.98 
M 272.92 177.67 276.39 184.59 
M 218.56 63.14 221.9 69.82 
M 226.36 78.73 231.55 89.12 
M 234.52 95.06 238.24 102.48 
M 247.89 121.78 253.08 132.18 
M 261.25 148.51 264.96 155.93 
M 275.41 176.84 279.07 184.14 
M 220.62 61.44 223.96 68.12 
M 228.41 77.03 234.35 88.91 
M 237.32 94.85 239.55 99.3 
M 245.49 111.18 249.2 118.6 
M 249.94 120.09 251.43 123.06 
M 252.17 124.54 254.4 128.99 
M 263.3 146.81 264.79 149.78 
M 265.53 151.26 267.02 154.23 
M 277.69 175.59 280.38 180.96 
M 282.61 185.41 284.09 188.38 
M 222.47 59.33 225.81 66.02 
M 231.01 76.41 235.46 85.32 
M 246.6 107.59 247.34 109.07 
M 248.08 110.56 251.79 117.98 
M 253.28 120.95 254.02 122.44 
M 254.76 123.92 256.25 126.89 
M 258.48 131.34 259.22 132.83 
M 259.96 134.31 261.45 137.28 
M 267.38 149.16 268.13 150.65 
M 272.58 159.55 273.51 161.42 
M 280.19 174.77 281.49 177.37 
M 283.72 181.82 287.41 189.22 
M 233.96 76.51 236.93 82.44 
M 237.67 83.93 238.42 85.41 
M 249.55 107.68 253.26 115.11 
M 261.43 131.44 265.14 138.86 
M 274.79 158.16 276.54 161.66 
M 285.93 180.44 290.24 189.05 
M 237.03 76.83 240 82.77 
M 253.36 109.5 254.85 112.47 
M 263.01 128.8 266.73 136.22 
M 276.38 155.52 279.57 161.92 
M 289 180.76 291.97 186.7 
M 230.41 57.77 234.12 65.2 
M 266.78 130.52 267.52 132.01 
M 268.27 133.49 269.01 134.98 
M 280.14 157.25 282.66 162.29 
M 292.02 181 293.51 183.97 
M 231.56 54.27 236.75 64.66 
M 244.92 80.99 245.66 82.48 
M 251.6 94.35 254.57 100.29 
M 255.31 101.78 256.05 103.26 
M 277.58 146.32 280.55 152.26 
M 292.43 176.01 293.92 178.98 
M 234.18 53.7 238.63 62.6 
M 246.05 77.45 246.8 78.94 
M 247.54 80.42 250.51 86.36 
M 253.48 92.3 257.93 101.21 
M 260.9 107.15 261.64 108.63 
M 262.39 110.12 263.13 111.6 
M 272.04 129.42 275.01 135.36 
M 279.46 144.26 284.66 154.66 
M 294.31 173.96 298.02 181.38 
M 236.87 53.26 241.32 62.17 
M 242.06 63.66 242.8 65.14 
M 248.74 77.02 252.46 84.44 
M 256.17 91.87 259.14 97.81 
M 262.11 103.74 266.56 112.65 
M 273.24 126.01 277.7 134.92 
M 281.41 142.35 282.15 143.83 
M 282.89 145.32 286.6 152.74 
M 295.51 170.56 296.25 172.04 
M 297 173.53 299.97 179.46 
M 242.17 58.06 245.88 65.48 
M 249.59 72.91 254.79 83.3 
M 259.24 92.21 262.21 98.15 
M 264.44 102.6 268.89 111.51 
M 270.38 114.48 273.35 120.42 
M 274.83 123.39 275.57 124.87 
M 276.32 126.36 279.29 132.29 
M 284.48 142.69 288.19 150.11 
M 298.59 170.9 302.3 178.32 
M 304.53 182.78 306.32 186.37 
M 239.18 46.28 239.56 47.02 
M 243.27 54.45 249.21 66.32 
M 252.92 73.75 253.66 75.23 
M 255.15 78.2 257.37 82.66 
M 267.02 101.96 270.73 109.38 
M 272.22 112.35 276.67 121.26 
M 278.9 125.71 281.87 131.65 
M 294.49 156.89 297.63 163.18 
M 302.66 173.22 303.4 174.71 
M 306.37 180.65 308.91 185.72 
M 241.06 44.23 241.43 44.97 
M 245.89 53.88 250.34 62.79 
M 253.31 68.73 254.8 71.7 
M 274.1 110.3 280.04 122.18 
M 290.43 142.96 293.4 148.9 
M 294.14 150.39 294.88 151.87 
M 297.11 156.33 300.68 163.47 
M 301.53 165.16 301.57 165.23 
M 310.47 183.05 311.49 185.08 
M 249.56 55.42 252.53 61.35 
M 253.27 62.84 259.21 74.72 
M 276.29 108.87 280 116.29 
M 280.74 117.77 281.48 119.26 
M 292.62 141.53 296.33 148.95 
M 300.04 156.38 303.01 162.32 
M 256.08 62.64 262.02 74.52 
M 267.21 84.91 267.96 86.4 
M 279.83 110.15 281.32 113.12 
M 282.06 114.6 282.8 116.09 
M 286.52 123.51 287.26 125 
M 295.42 141.33 297.65 145.78 
M 298.39 147.27 299.14 148.75 
M 249.84 44.36 250.58 45.84 
M 251.33 47.33 253.55 51.78 
M 258.01 60.69 258.75 62.17 
M 259.49 63.66 263.2 71.08 
M 267.66 79.99 271.37 87.41 
M 288.44 121.56 289.19 123.05 
M 289.93 124.53 290.67 126.02 
M 291.41 127.5 292.16 128.98 
M 299.58 143.83 301.06 146.8 
M 304.03 152.74 304.78 154.22 
M 313.68 172.04 314.43 173.53 
M 251.72 42.3 254.32 47.5 
M 255.06 48.98 256.54 51.95 
M 261.74 62.34 262.48 63.83 
M 263.22 65.31 265.45 69.77 
M 269.91 78.67 274.36 87.58 
M 276.59 92.04 278.81 96.49 
M 279.56 97.98 281.78 102.43 
M 285.5 109.85 286.98 112.82 
M 291.43 121.73 295.15 129.16 
M 304.8 148.46 308.51 155.88 
M 315.93 170.73 319.64 178.15 
M 321.25 181.36 321.74 182.34 
M 254.94 42.94 258.28 49.62 
M 259.77 52.59 261.25 55.56 
M 272.39 77.83 275.36 83.77 
M 279.07 91.19 284.27 101.58 
M 286.49 106.04 287.23 107.52 
M 287.98 109.01 290.2 113.46 
M 293.92 120.88 295.4 123.85 
M 296.14 125.34 296.89 126.82 
M 304.31 141.67 305.05 143.16 
M 305.79 144.64 311.73 156.52 
M 317.67 168.4 322.13 177.3 
M 257.83 42.91 258.58 44.39 
M 260.8 48.85 265.26 57.76 
M 270.45 68.15 272.68 72.6 
M 275.65 78.54 276.39 80.03 
M 280.85 88.94 286.78 100.81 
M 289.01 105.27 292.72 112.69 
M 306.09 139.42 311.28 149.81 
M 312.02 151.29 313.51 154.26 
M 320.19 167.63 323.16 173.56 
M 263.06 47.55 267.51 56.46 
M 271.97 65.36 277.16 75.76 
M 280.87 83.18 282.36 86.15 
M 284.59 90.6 288.3 98.03 
M 291.27 103.97 294.98 111.39 
M 300.18 121.78 301.66 124.75 
M 307.6 136.63 312.05 145.54 
M 312.8 147.02 313.54 148.51 
M 265.7 47.01 269.41 54.44 
M 273.86 63.35 279.06 73.74 
M 281.29 78.19 286.48 88.59 
M 287.22 90.07 288.71 93.04 
M 289.45 94.53 290.19 96.01 
M 301.33 118.28 307.27 130.16 
M 309.49 134.61 313.21 142.04 
M 264.7 39.22 265.82 41.45 
M 268.79 47.38 271.75 53.32 
M 276.95 63.72 277.69 65.2 
M 278.44 66.69 280.66 71.14 
M 283.63 77.08 289.57 88.96 
M 300.71 111.23 302.93 115.68 
M 303.68 117.17 308.87 127.56 
M 312.58 134.98 313.33 136.47 
M 314.07 137.95 316.3 142.41 
M 333.98 177.78 334.22 178.26 
M 266.34 36.68 268.94 41.87 
M 280.81 65.63 282.3 68.6 
M 286.01 76.02 287.49 78.99 
M 288.24 80.48 289.72 83.45 
M 296.4 96.81 297.14 98.29 
M 297.89 99.78 300.11 104.23 
M 301.6 107.2 306.05 116.11 
M 306.8 117.59 311.25 126.5 
M 313.48 130.96 314.22 132.44 
M 336.42 176.83 336.71 177.43 
M 268.57 35.33 271.17 40.53 
M 291.21 80.61 291.95 82.1 
M 294.92 88.04 295.66 89.52 
M 297.89 93.98 301.6 101.4 
M 304.57 107.34 309.03 116.25 
M 309.77 117.73 311.25 120.7 
M 312 122.19 313.48 125.16 
M 314.97 128.12 318.68 135.55 
M 325.36 148.91 327.59 153.37 
M 330.56 159.3 331.3 160.79 
M 332.04 162.27 334.27 166.73 
M 337.98 174.15 339.2 176.59 
M 270.89 34.15 271.26 34.9 
M 283.88 60.14 284.62 61.62 
M 289.07 70.53 289.82 72.01 
M 290.56 73.5 291.3 74.98 
M 295.01 82.41 295.75 83.89 
M 296.5 85.38 297.98 88.35 
M 300.21 92.8 303.92 100.22 
M 307.63 107.65 309.12 110.62 
M 316.54 125.46 320.25 132.89 
M 326.19 144.77 331.39 155.16 
M 333.61 159.61 337.33 167.04 
M 283.17 52.91 287.62 61.82 
M 289.11 64.79 289.85 66.27 
M 290.59 67.76 292.08 70.73 
M 296.53 79.64 297.27 81.12 
M 298.02 82.61 301.73 90.03 
M 303.21 93 303.95 94.48 
M 319.54 125.66 322.51 131.6 
M 329.2 144.96 332.16 150.9 
M 332.91 152.39 333.65 153.87 
M 335.13 156.84 338.85 164.27 
M 284.48 49.72 289.67 60.11 
M 291.9 64.56 297.1 74.96 
M 298.58 77.93 304.52 89.8 
M 317.14 115.04 319.37 119.5 
M 332.73 146.22 334.96 150.68 
M 337.18 155.13 341.64 164.04 
M 344.61 169.98 345.35 171.46 
M 346.18 173.12 346.63 174.03 
M 287.48 49.92 291.94 58.83 
M 292.68 60.31 293.42 61.8 
M 294.16 63.28 294.91 64.77 
M 295.65 66.25 298.62 72.19 
M 301.59 78.13 306.04 87.04 
M 308.27 91.49 309.01 92.97 
M 317.92 110.79 321.63 118.22 
M 323.86 122.67 324.6 124.15 
M 325.34 125.64 326.08 127.12 
M 340.93 156.82 342.42 159.79 
M 343.16 161.27 343.9 162.76 
M 346.87 168.7 349.12 173.2 
M 285.87 40.89 286.99 43.12 
M 289.96 49.06 295.15 59.45 
M 297.38 63.9 300.35 69.84 
M 306.29 81.72 307.77 84.69 
M 309.26 87.66 311.48 92.11 
M 312.23 93.6 313.71 96.57 
M 315.94 101.02 318.91 106.96 
M 319.65 108.44 324.85 118.84 
M 325.59 120.32 330.04 129.23 
M 338.95 147.05 341.18 151.5 
M 349.34 167.83 351.61 172.37 
M 289.91 43.15 290.28 43.9 
M 295.48 54.29 296.22 55.77 
M 308.1 79.53 308.84 81.01 
M 311.81 86.95 315.52 94.38 
M 317.75 98.83 326.66 116.65 
M 327.53 118.39 328.02 119.38 
M 330.27 123.87 332.12 127.58 
M 339.55 142.42 344.74 152.82 
M 347.71 158.76 351.42 166.18 
M 352.17 167.66 354.1 171.54 
M 309.65 76.82 313.36 84.25 
M 314.85 87.22 317.81 93.15 
M 320.04 97.61 324.5 106.52 
M 325.98 109.49 328.19 113.9 
M 333.66 124.85 335.52 128.56 
M 342.2 141.93 345.91 149.35 
M 349.62 156.77 354.08 165.68 
M 310.71 73.14 314.42 80.56 
M 315.17 82.05 315.91 83.53 
M 322.59 96.89 325.56 102.83 
M 327.79 107.29 329.12 109.95 
M 337.06 125.84 337.43 126.58 
M 346.34 144.4 347.83 147.37 
M 351.54 154.79 355.99 163.7 
M 309.19 64.29 311.42 68.75 
M 312.9 71.71 316.62 79.14 
M 341.62 129.14 343.1 132.11 
M 343.84 133.59 344.59 135.08 
M 354.24 154.38 357.95 161.8 
M 306.83 53.75 307.94 55.98 
M 310.17 60.43 313.88 67.85 
M 314.62 69.34 315.36 70.82 
M 316.11 72.31 319.82 79.73 
M 343.97 128.03 348.05 136.19 
M 352.5 145.1 353.25 146.59 
M 357.7 155.49 359.18 158.46 
M 309.75 53.78 310.12 54.53 
M 313.83 61.95 316.8 67.89 
M 318.29 70.86 319.77 73.83 
M 320.51 75.31 321.26 76.8 
M 347.44 129.17 349.3 132.88 
M 353.75 141.79 355.98 146.24 
M 312.45 53.37 312.82 54.11 
M 316.53 61.53 317.27 63.02 
M 328.41 85.29 330.89 90.25 
M 355.77 140.02 360.23 148.93 
M 358.54 139.75 363 148.66 
M 324.12 65.1 325.31 67.48 
M 359.84 136.53 363.55 143.95 
M 370.23 157.31 371.46 159.77 
M 369.3 149.64 371.46 153.96 
M 227.18 291.39 222.89 297.7 
M 227.18 291.39 227.69 297.7 
M 224.42 295.6 227.42 295.6 
M 231.08 291.39 229.19 297.7 
M 235.88 294.39 235.46 293.8 234.95 293.5 234.05 293.5 233.36 293.8 232.58 294.39 232.01 295.3 231.83 295.89 231.86 296.8 232.28 297.39 232.79 297.7 233.69 297.7 234.38 297.39 235.16 296.8 
M 241.55 293.5 240.29 297.7 
M 241.28 294.39 240.86 293.8 240.35 293.5 239.45 293.5 238.76 293.8 237.98 294.39 237.41 295.3 237.23 295.89 237.26 296.8 237.68 297.39 238.19 297.7 239.09 297.7 239.78 297.39 240.56 296.8 
M 243.95 293.5 242.69 297.7 
M 243.59 294.7 244.76 293.8 245.45 293.5 246.35 293.5 246.86 293.8 246.89 294.7 245.99 297.7 
M 249.65 293.5 248.39 297.7 
M 249.29 294.7 250.46 293.8 251.15 293.5 252.05 293.5 252.56 293.8 252.59 294.7 251.69 297.7 
M 252.59 294.7 253.76 293.8 254.45 293.5 255.35 293.5 255.86 293.8 255.89 294.7 254.99 297.7 
M 258.64 293.5 257.75 296.5 257.77 297.39 258.28 297.7 259.19 297.7 259.88 297.39 261.05 296.5 
M 261.95 293.5 260.69 297.7 
M 267.08 294.39 266.95 293.8 266.14 293.5 265.25 293.5 264.26 293.8 263.77 294.39 263.89 295 264.4 295.3 265.82 295.6 266.33 295.89 266.36 296.8 265.88 297.39 264.89 297.7 263.99 297.7 263.18 297.39 263.06 296.8 
M 273.08 291.39 271.19 297.7 
M 272.08 294.7 273.26 293.8 273.95 293.5 274.85 293.5 275.36 293.8 275.39 294.7 274.49 297.7 
M 281.45 293.5 280.19 297.7 
M 281.18 294.39 280.76 293.8 280.25 293.5 279.35 293.5 278.66 293.8 277.88 294.39 277.31 295.3 277.13 295.89 277.16 296.8 277.58 297.39 278.08 297.7 278.99 297.7 279.68 297.39 280.45 296.8 
M 287.14 293.5 285.7 298.3 285.14 299.2 284.06 299.8 283.15 299.8 282.64 299.5 
M 286.88 294.39 286.45 293.8 285.95 293.5 285.05 293.5 284.36 293.8 283.58 294.39 283.01 295.3 282.83 295.89 282.86 296.8 283.27 297.39 283.79 297.7 284.69 297.7 285.38 297.39 286.15 296.8 
M 292.85 293.5 291.58 297.7 
M 292.58 294.39 292.15 293.8 291.64 293.5 290.75 293.5 290.06 293.8 289.27 294.39 288.7 295.3 288.52 295.89 288.56 296.8 288.98 297.39 289.49 297.7 290.39 297.7 291.08 297.39 291.86 296.8 
M 294.47 297.1 294.08 297.39 294.29 297.7 294.68 297.39 294.47 297.1 
"/></svg>
