<svg xmlns="http://www.w3.org/2000/svg" width="520" height="320"><rect x="0" y="0" width="520" height="320" fill="floralwhite"/><rect x="10" y="10" width="500" height="300" stroke="black" stroke-width="1" fill="none"/><path stroke="black" stroke-width="1" fill="none" stroke-linecap="round" stroke-linejoin="round" d="
M 196.5 106.18 204.92 103.05 213.36 100.49 230.24 98.14 247.12 94.7 264.01 92.75 272.45 91.93 280.89 91.83 289.33 92.35 297.77 94.28 306.21 97.25 323.09 102.76 331.53 105.01 339.98 106.76 356.86 111.7 365.3 113.85 373.74 116.55 382.18 119.88 400.09 127.69 
M 400.09 194.47 382.18 203.61 373.74 207.65 356.86 214.47 348.42 217.62 339.98 220.04 314.65 224.3 306.21 226.08 297.77 229.01 289.33 231.05 280.89 231.29 264.01 231.46 255.57 230.03 247.12 227.75 230.24 224.57 221.8 222.4 204.92 216.71 196.48 213.53 187.99 209.39 
M 198.25 108.69 199.69 107.35 199.69 104.99 
M 199.06 109.87 202.85 109.05 209.31 106.27 213.48 103.11 213.48 101.16 212.81 100.65 
M 201.88 104.17 205.51 104.34 
M 201.44 133.1 208.06 128.8 212.33 123.91 212.33 120.88 208.06 116 201.43 111.68 200 111.22 
M 200.38 164.96 206.72 159.47 210.67 153.35 210.67 149.57 206.72 143.46 200.84 138.29 
M 200.73 147.23 203.2 146.86 
M 200.65 151.47 203.44 151.54 
M 200.79 155.68 203.74 155.9 
M 200.2 198.41 205.25 193.12 209 186.22 209 185.59 
M 204.92 174.7 199.74 169.27 
M 196.47 179.45 202.36 178.39 
M 195.38 184 201.72 183.59 
M 194.9 188.25 202.45 189.79 
M 211.99 103.09 214.45 102.54 219.17 100.44 220.45 99.44 
M 211.42 125.87 215.18 124.44 220.01 120.77 223.12 116.63 223.12 114.06 220.01 109.91 215.18 106.25 211.75 104.94 
M 207.66 112.73 217.92 112.05 
M 207.58 115.79 217.97 114.95 
M 210.04 117.72 217.05 118.88 
M 209.25 153.4 213.08 151.59 218.31 146.63 221.68 141.02 221.68 137.55 218.31 131.94 213.08 126.98 210.8 125.91 
M 209.3 188.16 211.67 186.77 
M 220.83 170.21 217.77 163.91 213.01 158.35 209.3 156.18 
M 205.45 169.2 215.38 167.73 
M 206.1 172.44 212.85 172.54 
M 218.5 203.09 218.5 200.87 215.12 193.86 209.87 187.67 207.66 186.37 
M 222 115.13 225.12 114.25 230.24 111.35 233.55 108.08 233.55 106.05 230.24 102.78 225.12 99.89 222.5 99.15 
M 220.6 141.04 224.7 139.33 229.94 134.94 233.32 129.97 233.32 126.9 229.94 121.93 224.7 117.54 222 116.41 
M 216.13 125.75 227.66 124.35 
M 217.06 127.96 227.23 128.22 
M 216.54 130.79 226.75 132.51 
M 226.51 168.48 229.56 165.4 232.99 159.31 232.99 155.55 229.56 149.46 224.24 144.08 220.47 142.18 
M 215.81 153.96 227.23 152.38 
M 216.2 157.35 226.93 157.63 
M 215.61 160.21 226.55 162.49 
M 223.89 204.34 229.12 198.82 230.24 196.75 
M 232.36 104.73 234.21 104.24 238.01 102.23 240.45 99.95 240.45 98.54 238.3 96.53 
M 231 97.99 236 97.6 
M 228.05 99.69 236.12 98.83 
M 228.1 100.14 235.97 100.89 
M 232.11 126.71 233.98 125.76 237.71 121.98 240.12 117.69 240.12 115.03 237.71 110.75 233.98 106.96 232.36 106.14 
M 228.59 114.34 235.75 112.9 
M 228.31 116.73 235.85 115.9 
M 228.49 118.88 235.34 119.85 
M 231.76 156.96 233.81 155.53 237.5 150.39 239.89 144.56 239.89 140.95 237.5 135.12 233.81 129.97 232.11 128.79 
M 227.7 139.51 236.01 138.14 
M 227.96 142.42 235.18 142.45 
M 227.95 146.13 236.02 147.48 
M 236.97 164.88 234.29 161.03 231.76 159.21 
M 241.23 207.05 238.68 201.12 237.53 199.61 
M 232.4 205.89 236.67 205.08 
M 240 115.41 243.32 114.3 247.57 111.47 250.31 108.26 250.31 106.27 247.57 103.06 243.32 100.22 240 99.12 
M 236.66 105.83 245.78 105.25 
M 237.09 107.13 245.65 107.24 
M 237.12 108.89 245.21 110.19 
M 239.03 140.78 242.19 139.09 246.3 134.66 248.95 129.65 248.95 126.54 246.3 121.53 242.19 117.11 239.26 115.53 
M 249.3 160.81 249.71 159.86 249.71 155.91 246.92 149.53 242.59 143.9 239.21 141.7 
M 235.65 155 244.82 152.56 
M 236.12 157.61 244.3 157.66 
M 235.8 161.48 243.8 162.81 
M 243.75 207.37 247.75 202.47 
M 248.77 103.88 251.46 103.08 254.9 101.03 257.12 98.71 257.12 97.28 254.9 94.96 253.32 94.01 
M 248.91 125.5 251.41 124.13 254.61 120.64 256.68 116.68 256.68 114.23 254.61 110.28 251.41 106.78 249.33 105.65 
M 246.2 113.23 252.75 112.21 
M 246.33 114.95 252.93 115.11 
M 246.82 117.87 252.94 118.07 
M 247.46 150.81 250.48 145.64 252.47 139.66 252.47 135.96 250.48 129.99 248 125.74 
M 252.94 160.47 252.6 159.88 249.78 157.43 
M 258.08 209.91 258.08 207.72 257.6 206.4 
M 246.93 206.14 254 204.64 
M 253.81 209.22 253.89 209.22 
M 256.31 112.37 259.35 111.33 263.25 108.67 265.76 105.66 265.76 103.8 263.25 100.78 259.35 98.12 256.32 97.09 
M 254.13 137.17 257.07 135.43 260.83 130.96 263.25 125.9 263.25 122.76 260.83 117.7 257.07 113.23 255.94 112.56 
M 253.57 121.39 259.35 119.97 
M 251.65 124.62 258.85 124.48 
M 251.25 126.52 259.12 127.77 
M 265.3 157.76 265.34 153.49 262.78 146.78 258.82 140.85 255.73 138.54 
M 258.33 208.97 260.31 207.56 
M 258.82 210 257.26 208.95 
M 265.69 100.95 268.26 100.29 271.56 98.61 273.68 96.7 273.68 95.51 271.56 93.6 268.96 92.27 
M 262.72 94.64 270.21 94.86 
M 263.21 96.31 269.92 95.82 
M 263.29 96.86 269.72 97.06 
M 261.88 119.14 264.25 117.81 267.29 114.4 269.25 110.55 269.25 108.16 267.29 104.3 264.25 100.89 262.44 99.88 
M 264.86 106.79 265.65 106.75 
M 262.12 109.15 265.25 109.3 
M 259.74 111.11 265.3 112.66 
M 260.76 151.08 263.26 148.85 266.47 143.15 268.54 136.69 268.54 132.69 266.47 126.24 263.26 120.53 260.76 118.31 
M 258.16 131.48 264.85 129.35 
M 257.89 134.54 265.02 134.83 
M 258.2 138.46 265.06 139.31 
M 268.9 157.25 267.39 155.77 
M 274.68 210.41 274.76 209.81 
M 271.72 108.55 274.81 107.55 278.76 105 281.31 102.12 281.31 100.33 278.76 97.44 274.81 94.89 271.92 93.96 
M 269.07 99.74 276.99 99.47 
M 269.18 101.26 276.54 101.53 
M 268.88 102.48 276.4 103.64 
M 269.27 133.56 272.39 131.79 276.39 127.26 278.97 122.13 278.97 118.95 276.39 113.82 272.39 109.28 269.27 107.51 
M 280.82 155.58 281.06 154.9 281.06 150.67 278.6 143.84 274.79 137.8 271.81 135.44 
M 268.91 149 276.63 147.42 
M 268.88 153.12 276.37 152.72 
M 268.99 156.23 272 156.81 
M 277.33 210.4 277.06 210.05 
M 281.49 97.89 283.86 97.23 286.9 95.53 288.86 93.61 288.76 92.32 
M 278.81 92.44 282.67 91.94 
M 278.88 93.38 285.11 93.43 
M 279.68 94.22 285.19 94.12 
M 278.03 116.12 280.79 114.88 284.6 111.47 287.05 107.61 287.05 105.22 284.6 101.36 280.79 97.95 278 96.7 
M 274.78 104.13 282.39 103.2 
M 275.41 106.36 282.47 106.66 
M 275.35 108.75 282.83 109.54 
M 276.63 147.81 279.23 145.55 
M 279.23 145.55 282.47 140.01 284.58 133.65 284.58 129.72 282.47 123.36 279.19 117.75 278.05 116.77 
M 278.05 116.77 276.63 115.56 
M 274.36 127.98 275.43 127.86 
M 275.43 127.86 280.75 127.24 
M 274.14 131.58 280.61 131.39 
M 274.59 134.95 281.18 136.29 
M 284.92 155 284.75 154.63 282.47 152.14 
M 288.42 107.38 291.74 106.25 296 103.37 298.75 100.11 298.75 98.09 296 94.82 293.9 93.4 
M 285 97.93 293.85 96.1 
M 284.85 98.71 293.93 99.36 
M 285.33 100.81 294.11 101.14 
M 286.84 131.73 290.34 130.05 294.82 125.74 297.71 120.85 297.71 117.83 294.82 112.95 290.34 108.63 286.84 106.95 
M 283.74 116.98 292.26 115.66 
M 283.04 119.2 292.62 119.31 
M 283.43 121.76 291.99 122.8 
M 293.69 153.77 295.34 149.7 295.34 145.82 292.8 139.57 288.87 134.04 285.79 131.88 
M 282.56 144.15 290.62 142.52 
M 283.24 147.35 291.02 148.09 
M 282.35 151.35 290.8 152.88 
M 294.73 94.71 296.58 94.01 
M 299.63 120.7 302.67 119.21 306.56 115.4 309.07 111.08 309.07 108.41 306.56 104.09 302.67 100.28 299.63 98.79 
M 296.84 107.87 304.62 106.25 
M 296.84 110.13 304.77 109.69 
M 296.76 112.06 304.7 113.4 
M 294 141.8 296.38 140.47 300.34 136.06 302.9 131.06 302.9 127.97 300.34 122.97 296.14 118.42 
M 294.09 117.28 293.29 116.83 
M 290.63 126.9 297.98 126.04 
M 290.31 129.83 298.37 129.55 
M 289.81 132.41 298.36 133.32 
M 296.76 153.34 296.04 150.93 294.43 147.81 
M 294.43 147.81 293.09 145.23 290.78 143 
M 306.47 107.44 309.84 106.21 314.14 103.07 316.16 100.5 
M 303.55 96.42 303.76 96.39 
M 303.7 97.99 310.72 98.72 
M 303.53 100.64 312.13 101 
M 306.36 132.08 309.83 130.47 314.26 126.35 317.12 121.67 317.12 118.78 314.26 114.11 309.83 109.99 306.36 108.38 
M 302.59 118.16 311.95 116.71 
M 303 120.13 311.59 120.74 
M 302.97 122.67 311.51 123.93 
M 308.9 151.64 311.49 146.32 311.49 142.98 308.85 137.57 304.76 132.79 301.57 130.93 
M 298.39 142.22 306.27 140.25 
M 298.61 144.4 306.59 144.8 
M 298.3 147.69 306.5 149.16 
M 316.61 119.18 319.14 117.65 322.37 113.73 324.46 109.3 324.46 106.55 322.6 102.6 
M 314.44 105.95 320.3 104.53 
M 314.57 108.38 320.42 108.39 
M 313.86 109.99 320.72 111.4 
M 315.93 146.24 318.81 144.54 322.51 140.19 324.89 135.25 324.89 132.2 322.51 127.27 318.81 122.91 316.1 121.31 
M 313.42 130.83 320.17 129.73 
M 312.98 133.52 321.06 134.04 
M 312.79 136.27 320.43 137.29 
M 312.42 151.14 311.66 149.1 310.54 147.4 
M 323.9 105.33 327.16 104.21 327.55 103.95 
M 323.1 129.58 326.1 128.02 329.95 124.04 332.42 119.54 332.42 116.75 329.95 112.24 326.1 108.27 323.71 107.03 
M 320.52 115.54 327.98 115 
M 319.93 118.24 327.98 118.14 
M 320.42 120.15 328.22 121.33 
M 318.05 154.57 320.49 153.09 324.26 148.53 326.69 143.36 326.69 140.16 324.26 134.99 320.49 130.43 317.55 128.65 
M 314.34 139.02 322.41 137.88 
M 314.48 141.76 321.77 141.71 
M 314.75 144.68 321.81 145.2 
M 331.51 113.78 333.94 112.43 337.06 108.98 338.38 106.43 
M 329.45 106.04 335.48 107.35 
M 328.36 139.1 330.52 137.47 333.28 133.27 335.06 128.52 335.06 125.58 333.28 120.83 331.54 118.18 
M 329.33 124.26 331.48 123.93 
M 326.26 127.39 332.25 126.97 
M 326.31 129.82 331.95 130.99 
M 324.16 159.41 325.12 157.81 327.11 152.07 327.11 148.52 325.12 142.78 322.05 137.71 319.64 135.73 
M 317.27 147.41 323.67 146.27 
M 316.98 150.51 323.36 150.24 
M 316.86 153.13 323.75 154.16 
M 336.21 122.75 339.05 121.31 342.68 117.64 345.03 113.48 345.03 110.9 343.24 107.73 
M 333.62 110.19 340.29 108.55 
M 332.97 112.61 340.8 112.36 
M 333.79 114.67 341.05 115.49 
M 330.44 149.69 333.32 147.77 337 142.86 339.38 137.29 339.38 133.84 337 128.27 334.42 124.83 
M 334.28 131.34 334.94 131.23 
M 331.49 135.51 335.37 135.9 
M 327.94 138.19 328.69 138.31 
M 329.53 138.44 335 139.29 
M 331.31 183.75 331.99 183.25 336.37 176.77 339.19 169.43 339.19 164.89 336.37 157.56 331.99 151.08 328.57 148.55 
M 345.37 201.98 343.96 198.09 339.43 191.03 335.9 188.27 
M 337.9 129.66 340.18 127.97 343.11 123.67 344.99 118.79 344.99 115.77 343.11 110.89 340.38 106.88 
M 336.16 114.7 341.8 113.45 
M 336.02 117.14 342 116.98 
M 335.3 119.48 341.73 120.77 
M 335.84 165.15 338.6 162.77 342.12 156.67 344.4 149.77 344.4 145.5 342.12 138.59 338.53 132.44 
M 336.29 143.27 339.95 142.35 
M 333.58 147.83 339.8 147.51 
M 332.96 150.79 340.68 152.46 
M 345.63 201.4 347.41 198.08 349.99 189.63 349.99 184.39 347.41 175.94 343.41 168.48 340.28 165.56 
M 337.52 182.58 345.43 180.98 
M 336.96 186.85 345.42 186.63 
M 339.69 192.28 345.62 193.86 
M 350.64 117.89 354 116.5 358.31 112.93 358.81 112.19 
M 346.98 109.66 350.97 110.01 
M 345.47 146.99 348.95 144.91 353.4 139.57 356.27 133.53 356.27 129.79 353.4 123.75 348.95 118.41 345.47 116.33 
M 342.21 128.97 351.27 126.62 
M 342.04 132.08 351.24 131.65 
M 342.59 134.91 350.84 135.82 
M 347.37 186.69 350.93 184.06 355.47 177.3 358.41 169.65 358.41 164.92 355.47 157.27 350.93 150.51 347.37 147.88 
M 343.96 163.51 353.19 161.19 
M 343.47 167.1 353.03 167.38 
M 343.78 170.67 353.11 173.34 
M 361.87 197.56 357.91 191.36 354.47 188.67 
M 353.25 126.9 356.65 125.11 361.02 120.52 363.83 115.32 363.83 113.47 
M 349.6 110.78 352.17 110.35 
M 350.04 113.58 359.15 113.73 
M 350.34 116.5 358.54 117.72 
M 357.36 164.31 358.03 163.78 362.06 157.43 364.65 150.24 364.65 145.79 362.06 138.6 358.03 132.25 354.89 129.77 
M 365.02 196.62 367.23 188.97 367.23 183.99 364.91 175.94 361.3 168.83 358.48 166.06 
M 355.8 182.65 362.62 180.25 
M 356.02 186.31 362.85 186.13 
M 356.07 190.16 362.87 193.08 
M 370.58 119.66 374.78 118.21 375.93 117.41 
M 366.07 148.71 370.43 146.67 376.01 141.45 379.61 135.53 379.61 131.87 376.01 125.95 370.43 120.73 366.07 118.69 
M 361.39 130.21 373.48 129.46 
M 361.7 133.64 372.69 134.06 
M 361.67 136.41 373.03 137.96 
M 366.52 186.45 370.21 183.92 374.95 177.41 378 170.05 378 165.49 374.95 158.12 370.21 151.62 366.52 149.08 
M 362.78 163.89 372.23 162.33 
M 362.54 167.66 372.38 167.59 
M 363.13 171.36 372.61 172.98 
M 377.04 192.84 375.82 190.92 372.48 188.27 
M 380.02 135.01 384.49 133.28 390.22 128.88 393.31 124.7 
M 376.91 166.2 379.63 164.52 384.11 158.97 387 152.68 387 148.79 384.11 142.51 379.63 136.96 378.32 136.15 
M 373.27 147.31 382.27 145.84 
M 372.93 150.52 381.56 150.35 
M 372.88 153.68 381.41 155.97 
M 384.95 190.04 385.47 188.29 385.47 183.38 383.1 175.44 379.43 168.43 376.56 165.69 
M 373.49 181.85 381.2 179.93 
M 373.59 186.09 381.03 185.72 
M 374.11 189.86 380.32 191.7 
M 390.81 152.3 394.95 150.65 400.09 146.54 
M 400.09 133.78 394.95 129.67 390.81 128.02 
M 386.37 138.23 397.55 136.66 
M 387.19 140.26 397.14 140.55 
M 387.03 142.78 397.55 143.99 
M 386.84 183.52 390.49 181.61 395.17 176.74 398.18 171.22 398.18 167.8 395.17 162.28 390.49 157.4 386.84 155.5 
M 194.9 201.59 199.44 199.21 200.2 198.41 
M 207.49 211.84 207.2 211.24 201.85 204.9 197.67 202.43 
M 213.76 213.82 215.12 212.22 218.5 205.21 218.5 203.09 
M 219.25 206.96 223.58 204.68 223.89 204.34 
M 230.23 218.25 229.09 215.99 223.99 210.24 220.01 207.99 
M 237.85 219.55 238.68 218.46 241.53 211.84 241.53 207.74 241.23 207.05 
M 227.67 213.41 236.49 214.8 
M 252.86 222.54 255.77 218 258.08 211.65 258.08 209.91 
M 246.93 209.21 253.81 209.22 
M 246.97 212.84 253.77 214.89 
M 265.8 224.49 265.8 221.5 263.27 215.58 259.34 210.34 258.82 210 
M 254.3 219.67 260.77 218.64 
M 255.54 223.21 261.31 223.29 
M 265.03 224.5 264.25 223.25 261.85 221.31 
M 280.28 224.32 281.34 221.86 281.34 218.23 278.83 212.38 277.33 210.4 
M 288.76 92.32 288.76 92.32 
M 281.93 219.97 284.21 217.87 287.12 212.5 287.54 211.12 
M 283.48 224.25 279.86 219.45 276.95 217.51 
M 293.9 93.4 293.9 93.4 
M 295.17 222.84 296.89 218.53 296.89 214.56 295.86 211.97 
M 296.58 94.01 296.58 94.01 
M 291.64 213.99 293.5 211.73 
M 309.24 219.08 311.01 213.97 311.01 210.13 
M 318.61 217.5 317.7 215.72 315.01 213.08 
M 327.55 103.95 327.55 103.95 
M 325.03 216.55 327.13 210.54 327.13 205.77 
M 317.78 208.3 321.97 208.53 
M 313.55 212.25 322.13 214.37 
M 338.38 106.43 338.38 106.43 
M 336.09 214.96 333.1 212 
M 346.25 212.76 346.87 211.05 346.87 206.1 345.37 201.98 
M 358.81 112.19 358.81 112.19 
M 351.41 208.21 359.95 208.21 
M 352.17 110.35 352.17 110.35 
M 358.48 206.9 361.3 204.13 365.02 196.62 
M 375.93 117.41 375.93 117.41 
M 380.92 199.97 380.1 197.68 377.04 192.84 
M 393.31 124.7 393.31 124.7 
M 381.2 199.85 383.1 196.23 384.95 190.04 
M 393.71 194.11 393.16 193.47 389.77 191.46 
M 247.12 94.7 247.13 94.7 
M 253.51 93.99 257.33 72.04 261.29 67.27 266.1 63.34 269.11 62.27 271.65 60.77 274.19 58.94 275.22 55.68 276.85 53.04 279.81 52.2 283.37 52.08 286.5 51.52 288.68 51.36 290.12 52.24 293.18 54.75 297.58 55.57 303.28 52.65 306.38 51.89 309.26 50.92 311.93 50.4 314.81 50.93 317.09 50.85 319.61 51.02 325.69 53.09 332.56 56.14 332.58 59 331 60.74 330.46 63.51 330.5 66.46 331.63 69.79 334.77 77.16 335.68 80.04 337.08 83.37 337.37 84.78 327.81 104.02 
M 323.09 102.76 323.09 102.76 
M 252.25 94.13 254.2 91.83 255.57 89.45 256.44 86.94 256.99 80.05 257.44 78.34 257.37 76.67 
M 257.37 93.55 258.62 92.6 258.91 90.23 259.91 87.26 261.12 84.63 262.3 78.42 
M 262.48 92.93 263.86 91.78 264.46 89.42 266.61 83.35 267.08 80.97 267.05 74.52 268.2 68.99 271 66.43 
M 267.61 92.4 269.29 90.28 271.09 85.01 273.41 79.63 272.73 74.65 272.68 70.53 
M 272.74 91.92 274.87 89.56 276.06 87.02 278.99 79.02 278.8 76.36 279.29 73.3 280.1 70.93 283.17 65.77 284.05 62.97 284.98 56.31 286.86 54.44 
M 277.89 91.86 280.23 89.85 282.04 84.61 282.33 81.71 283.22 78.95 285.07 77.69 
M 283.04 91.96 285.04 89.61 286.42 86.96 287.1 84.32 289.84 80.35 291.12 77.6 293.34 71.87 294.67 69.36 296.48 67.41 
M 288.18 92.28 290.55 90.37 292.26 87.71 294.03 85.75 295.09 83.54 296.19 80.55 297.8 77.87 299.73 75.4 300.27 72.96 301.46 69.9 303.75 67.28 306.69 64.54 308.58 61.31 309.63 56.51 
M 293.24 93.25 295.95 91.43 299.7 86.67 301.69 83.24 303.14 81.44 304.79 78.09 307.12 75.2 310.64 69.2 312.91 66.45 313.71 64.25 314.36 61.06 
M 298.25 94.45 301.58 92.81 305.59 88.39 307.56 87.06 308.91 84.65 309.84 81.82 313.03 79.47 313.87 76.48 315.67 74.26 317.67 72.22 319.36 69.08 321.11 66.91 322.35 63.76 
M 303.12 96.16 306.57 95 309.1 92.85 311.36 91.37 316.51 87.53 318.12 85.14 319.73 82.04 321.58 80.3 322.12 78.06 324.12 74.61 
M 307.99 97.83 314.21 94.96 317.01 93.23 319.46 90.56 321.85 88.46 
M 312.89 99.43 316.04 98.12 318.95 96.21 321.65 94.1 324.09 91.44 325.65 89.25 329.79 86.31 331.97 83.22 
M 317.79 101.03 320.57 99.55 323.45 97.58 325.93 96.15 328.89 94.08 
M 204.92 173.89 209.41 173.61 212.89 172.53 218.36 171.32 221.43 169.94 228.72 167.79 230.93 166.74 233.45 166.33 237.63 164.61 244.29 162.67 247.14 161 253.83 160.38 257.87 161.08 259.99 159.93 261.39 158.3 313.26 151.03 321.5 157.16 328.6 163.2 330.1 166.67 331.36 173.29 330.7 178 330.69 180.66 331.3 183.71 332.51 187.18 334.6 191.55 335.31 194.53 335.13 196.62 335.44 199.2 336.78 202.81 333.57 203.67 330.33 204.14 328.22 205.73 324.62 205.85 321.55 206.49 316.6 208.94 313.85 209.91 310.42 210.18 301.24 212.53 261.88 208.49 259.09 206.83 256.47 206.08 252.79 203.62 245.49 202.04 242.51 200.94 239.33 200.94 237.08 199.27 234.78 197.9 231.94 197.03 228.37 196.44 224.46 194.06 217.89 190.43 215.1 188.24 209.19 185.69 204.92 183.39 
M 204.92 175.44 209.1 175.33 217.91 173.48 220.43 172.76 227.33 171.78 233.3 170.29 240.46 169.55 247.24 167.53 250.73 166.86 254.3 166.59 257.32 165.33 259.56 164.64 261.81 164.41 
M 209.01 177.29 218.23 176.69 225.1 176.42 234.47 175.05 237.87 175.63 249.71 174.74 259.26 172.77 262.45 173.16 269.92 172.71 274.35 171.5 277.4 171.62 283.6 170.62 
M 204.92 178.53 209.11 179.41 212.4 179.76 218.21 179.69 221.25 179.97 228.54 181 231.45 181.16 240.73 181.02 251.38 182.55 254.06 181.99 257.45 182.23 264.33 180.75 267.04 181.59 
M 215.47 182.68 221.24 183.07 224.33 184.46 227.96 185.27 231.43 185.94 240.79 186.97 250.84 189.32 252.95 190.41 256.92 190.18 259.92 190.54 266.15 191.72 271.92 193.99 275.32 194.8 
M 208.99 183.5 212.38 184.67 221.15 187.14 228.25 189.92 231.93 190.61 235.08 192.06 238.77 192.77 241.23 194 244.03 195.15 246.76 195.39 249.71 196.03 253.55 196.57 256.36 197.48 
M 255.57 230.03 260.28 237.04 263.34 241.05 266.84 256.51 264.3 257.17 261.76 258.7 258.58 259.59 255.95 258.04 248.62 251.96 236.96 236.56 235.37 231.34 230.24 224.57 
M 250.59 228.69 254.16 232.48 257.61 239.94 
M 245.58 227.47 248.87 231.55 252.62 238.23 253.41 242.24 254.48 246.45 
M 240.52 226.53 243.26 230.87 245.44 233.68 247.44 237.25 248.81 240.57 250.17 248.33 252.01 251.41 254.92 253.3 255.17 255.32 
M 235.46 225.57 238.4 230.2 243.74 240.01 
M 356.86 214.47 363.07 219.88 366.97 222.81 369.64 232.62 366.91 234.25 365.15 236.84 362.79 238.84 360.91 241.19 358.33 242.79 355.21 243.08 352.42 243.94 350.1 245.54 343.23 244.97 336.04 243.98 330.72 239.64 328.15 239.5 324.36 240.23 314.98 236.99 310.82 232.87 306.21 226.08 
M 352.03 216.28 355.61 221.32 358.45 223.52 361.56 227.08 
M 347.17 217.98 351.63 223.43 354.38 225.8 
M 342.22 219.4 346.82 224.41 351.88 231.25 354.02 234.39 
M 337.18 220.52 341.08 224.98 349.44 235.54 
M 332.1 221.37 334.56 225.62 340.58 233.21 343.63 236.3 345.66 240 348.16 242.02 
M 327.02 222.2 330.19 226.59 332.32 230.2 335.23 233.42 337.62 236.62 340.01 239.47 340.41 242.32 
M 321.93 223.03 325.19 226.91 328.09 229.9 330.69 233.28 
M 316.86 223.92 322.6 230.93 325.32 233.1 327.68 236.12 
M 311.8 224.9 315.61 229.93 318.31 233.95 
M 399.06 127.22 402.32 126.32 408.14 123.58 411 122.03 413.48 120.46 416.22 119.27 419.48 118.11 422.42 115.9 425.66 112.06 428.36 110.72 431.87 109.37 435.68 108.27 439.23 107.45 441.81 106.29 444.05 102.84 446.55 100.14 451.15 96.29 454.86 93.56 457.41 91.89 460.76 90.35 464.23 89.15 471.71 85.61 473.93 83.1 476.48 82.17 479.17 81.61 485.03 79.28 487.16 76.76 490 74.62 482.58 87.85 481.63 91.04 481.03 94.57 479.76 97.43 478.68 100.48 476.99 102.94 474.45 104.71 472.41 106.98 470.48 109.37 469.07 112.27 466.3 113.78 464.91 116.62 463.79 119.74 462.28 122.45 460.52 124.92 458.33 127.02 456.57 129.55 454.38 131.66 453.37 134.98 451.71 137.69 449.89 140.23 448.51 143.21 444.39 147.79 443.74 151.08 443.77 154.43 442.03 156.92 439.32 158.53 438.24 161.63 437.7 164.77 436.92 167.63 435.98 170.31 437.19 175.35 436.14 177.6 435.85 180.6 437.1 184.8 437.54 187.92 438.29 190.33 440.97 192.39 443.22 194.44 444.59 198.71 444.99 201.84 446.54 204.69 447.31 207.27 446.92 209.3 448.73 215.91 448.68 218.19 451.95 230.5 446.99 229.93 443.57 228.59 440.66 226.16 439 223.94 436.82 223.45 433.26 221.42 427.51 216.85 426.07 214.53 423.84 211.87 420.69 208.69 417.28 206.47 414.01 205.93 410.51 204.67 408.3 202.62 402.49 197.99 399.06 195.02 
M 402.32 129.97 405.74 128.57 408.34 127.16 413.76 124.88 419.66 121.6 428.62 118.38 435.54 113.98 438.59 112.3 442.11 111.23 445.67 109.39 448.24 106.9 450.91 103.74 453.58 102.48 455.48 102.67 458.23 102.04 460.34 100.93 464.45 98.15 
M 406.17 132.38 411.33 130.07 413.73 129.68 416.47 127.87 423.21 125.71 427.48 124.14 430.26 122.68 432.69 122.02 437.98 119.41 441.01 118.28 443.15 117.2 450.95 112.45 453.84 111.03 456.9 110.42 459.07 109.26 460.6 109.31 462.79 107.89 465.6 106.45 469.66 104.69 
M 399.06 137.39 402.62 137.28 409.44 135.33 412.19 134.36 417.23 133.41 420.34 132.46 423.83 130.53 427.85 129.83 431.28 128.42 433.83 127.77 436.09 126.42 438.54 124.53 441.16 123.11 444.38 122.48 446.54 121.81 450.65 119.94 457.87 118.55 465.28 114.41 466.56 114.21 
M 402.85 140.8 406.34 140.39 412.88 138.71 416.06 138.58 418.83 138.2 421.34 137.37 424.01 136.24 427.59 135.26 430.6 133.88 433.63 133.32 437.02 132.3 439.57 131.77 446.2 129.81 
M 399.06 144.17 403.1 144.42 409.94 143.39 417.52 143.52 423.54 142.24 426.51 140.95 429.91 140.25 435.77 139.76 438.13 138.55 444.96 136.86 
M 407.54 147.27 414.76 147 418.28 147.66 421.71 147.57 424.16 146.48 427.84 145.88 431.13 145 434.58 144.35 436.42 142.78 438.12 142.19 440.82 142.02 
M 403.99 151.54 407.48 151.5 414.73 150.97 418.93 151.09 422.26 151.49 431.33 150.78 433.92 149.4 436.3 147.82 
M 403.84 155.32 411.09 155.76 415.14 155.27 419.15 155.48 422.36 155.05 427.08 155.24 
M 410.63 159.54 414.45 159.8 417.77 160.74 420.73 160.91 427.22 160.75 
M 399.06 161.12 403.77 162.87 410.38 163.86 412.93 164.55 416.85 164.78 420.1 164.66 423.38 164.14 426.95 164.91 
M 403.24 166.11 407.06 166.89 410.54 168.34 413.46 169.01 416.92 169.45 419.73 169.68 423.63 169.44 427.58 168.9 
M 403.32 169.62 410.22 171.97 418.38 173.92 421.82 174.4 427.28 174.31 
M 399.06 171.29 403.27 173.34 406.64 174.02 410.3 175.5 420.97 179.08 424.25 179.02 427.88 179.77 
M 410.56 179.14 413.96 180.58 416.96 181.09 420.29 182.28 423.87 183.15 426.62 184.35 
M 410.38 182.92 413.2 184.29 420.41 185.62 423.32 187.84 425.89 189.37 428.75 191.52 
M 403.6 183.99 410.08 186.69 420.89 189.56 425.68 192.89 
M 406.4 188.58 416.71 192.46 420.41 194.39 422.95 195.45 426.14 197.6 428.34 200.73 
M 408.9 193.7 415.92 197.11 418.98 198.21 422.18 200.09 424.93 202.32 427.09 205.81 429.87 207.59 432.67 208.63 435.65 208.67 
M 405.9 196.1 408.84 198.14 411.63 200.46 417.51 202.5 420.49 204.23 424.59 207.12 
M 388.61 197.32 386.71 198.2 384.64 198.89 383.04 200.2 381.49 204.13 379.6 205.02 375.43 203.95 373.39 204.09 369.57 205.73 363.88 211.11 365.3 211.13 
M 64.56 131.6 67.48 129.96 70.61 128.45 75.66 126.75 90.58 124.48 99.22 122.62 120.2 120.17 131.21 118.13 142.37 116.3 152.33 114.06 171.46 108.96 180.17 107.32 187.66 106.4 193.43 106.11 196.49 106.15 200.53 111.99 201.69 117.55 202.02 123.05 201.83 128.5 201.38 133.93 200.72 139.35 200.83 144.83 200.61 150.28 200.8 155.76 200.69 161.23 200.24 166.66 199.21 172.04 197.09 177.34 195.53 182.68 194.91 188.1 194.7 193.55 193.91 198.96 192.06 204.28 187.99 209.29 171.65 208.46 159.25 207.51 148.27 205.67 138.43 203.14 129.27 199.67 112.29 191.52 104.69 186.85 97.88 181.78 
M 96.52 180.59 91.58 176.3 86.41 170.35 81.72 164.47 77.27 158.41 74.89 154.66 
M 168.27 134.64 167.81 139.33 167.12 143.82 165.71 148.02 163.82 151.89 161.73 155.42 159.33 158.77 158.16 162.08 158.46 165.35 161.77 172.94 163.07 177.1 162.72 181.59 143.75 182.05 135.95 181.67 128.41 180.73 120.92 178.76 113.53 175.74 106.42 172.53 
M 96.78 180.91 92.88 176.36 88.17 170.32 84.68 166.44 81.45 162.3 74.48 154.17 64.81 141.88 61.68 137.45 60.26 135.14 60.66 132.42 62.92 131.01 65.32 131.87 71.1 141.1 85.71 163.05 90.23 169.35 94.33 175.73 98.48 181.36 
M 97.97 182.12 92.9 181.5 72.25 179.56 54.09 177.01 33.59 174.68 31.15 173.92 30 171.7 30.98 169.3 33.28 168.47 35.74 168.85 45.53 171 56.16 172.88 74.23 176.79 98.16 181.18 
M 125.56 140.71 124.72 137.51 124.96 134.21 126.26 131.16 128.48 128.71 131.37 127.1 134.63 126.53 137.9 127.04 140.83 128.58 143.09 131 144.45 134.01 144.76 137.31 143.98 140.52 142.19 143.31 139.6 145.37 136.48 146.48 133.17 146.51 130.03 145.47 127.4 143.46 125.56 140.71 
M 125.44 140.43 125.04 139.25 124.68 136.79 124.94 134.31 125.79 131.98 127.19 129.92 128.08 129.04 130.13 127.64 132.46 126.78 134.94 126.53 136.18 126.63 138.58 127.29 
M 127.35 139.64 127.02 138.7 126.74 136.74 126.78 135.75 127.16 134.06 
M 129.35 130.68 131.07 129.47 132.93 128.79 134.9 128.59 135.88 128.67 137.79 129.19 
M 131.06 138.23 130.73 136.95 130.89 135.46 
M 131.92 133.77 132.23 133.43 133.39 132.79 134.69 132.56 136 132.76 137.17 133.38 138.08 134.35 138.62 135.55 138.74 136.87 138.43 138.16 137.72 139.27 136.68 140.1 135.43 140.54 134.11 140.55 132.85 140.13 131.8 139.33 131.06 138.23 
M 132.75 133.14 132.24 134.16 
M 131.47 135.71 130.77 137.11 
M 134.58 132.58 133.26 135.22 
M 132.85 136.05 131.46 138.82 
M 136.03 132.78 134.3 136.22 
M 134.26 136.32 132.49 139.86 
M 137.24 133.45 133.75 140.43 
M 138.2 134.62 135.24 140.54 
M 138.72 136.66 137.22 139.67 
M 65.05 131.31 68.37 134.64 
M 69.1 129.18 72.41 132.49 
M 73.56 127.46 77.9 131.8 
M 78.57 126.29 82.59 130.3 
M 83.92 125.45 87.43 128.97 
M 89.31 124.66 93.53 128.88 
M 94.47 123.64 98.04 127.21 
M 99.59 122.57 104.41 127.4 
M 105.11 121.91 111.2 127.99 
M 110.64 121.26 114.38 124.99 
M 116.19 120.62 119.57 124.01 
M 121.65 119.9 124.79 123.04 
M 126.87 118.93 132.45 124.52 
M 132.1 117.98 137.73 123.61 
M 137.41 117.11 140.91 120.61 
M 142.71 116.22 148.83 122.34 
M 147.76 115.09 153.48 120.81 
M 152.79 113.94 157.11 118.26 
M 157.67 112.64 162.51 117.48 
M 162.55 111.33 166.32 115.1 
M 167.43 110.03 172.45 115.05 
M 172.37 108.79 176.68 113.1 
M 177.58 107.81 183.18 113.41 
M 182.93 106.98 188.87 112.92 
M 188.49 106.36 191.7 109.57 
M 194.44 106.12 198.81 110.49 
M 91.16 139.51 92.12 139.11 92.39 138.71 92.52 138.16 92.31 136.53 92.52 135.36 
M 121.29 171.44 122.25 168.89 122.42 167.77 122.1 167.3 120.99 167.03 
M 97.49 177.77 99.38 178.19 99.69 178.39 99.58 179.38 100.04 181.11 
M 125.53 132.86 122.82 134.09 121.99 134.67 120.54 136.34 119.99 137.23 119.06 139.77 117.91 140.87 116.31 141.85 
M 110.78 183.32 110.28 183.94 108.15 185.69 105.32 187.23 
M 178.09 154.07 177.15 153.67 176.43 152.28 174.62 149.67 173.61 147.6 172.65 146.49 
M 128.24 158.56 129.37 157.5 130.48 155.67 132.58 153.09 
M 160.96 187.91 161.85 187.55 163.44 186.27 163.7 185.84 163.74 185.22 
M 197.75 132.6 195.87 132.4 194.24 132.75 190.4 134.62 188.62 135.68 
M 156.29 185.33 154.21 183.2 153.72 182.88 152.65 182.69 151.88 182.83 151.72 183.04 
M 95.9 169.4 96.72 167.72 96.63 166.37 95.98 165.55 94.15 164.51 
M 124.86 171.57 127.38 171.44 130.22 170.93 131.46 169.26 131.47 168.86 131.18 168.04 
M 136.12 159.26 133.67 156.65 133.28 155.44 133.12 152.72 
M 106.55 163.64 108.33 163.27 109.72 163.63 110.59 164.12 
M 100 171.89 101.12 168.94 101.54 168.63 102.12 168.73 
M 101.76 162.45 102.68 165.36 102.45 166.73 
M 139.89 178.11 140.4 177.9 140.89 177.26 140.84 176.86 139.99 175.31 139.78 174.28 139.4 173.6 
M 193.19 126.96 192.37 126 191.54 124.1 191.32 122.86 191.43 116.77 190.72 113.59 
M 147.37 136 144.46 134.06 
M 180.04 170.86 182.2 171.99 182.87 172.17 184.65 172.19 185.84 171.16 186.46 169.29 186.67 168.07 
M 190.09 201.39 187.78 201.68 186.98 201.96 186.58 202.39 186.07 203.94 
M 137.08 202.63 135.3 199.99 132.92 197.18 132.12 195.84 
M 163.91 184.24 161.15 181.21 160.4 179.73 160.17 178.78 159.78 173.83 
M 197.23 159.23 195.25 158.82 194.26 158.79 190.88 159.65 
M 124.1 122.53 121.89 121.19 120.45 120.73 119.05 120.52 116.82 120.55 
M 189.94 114.26 189.7 113.47 189.27 112.9 188.75 112.47 187.5 112.03 186.83 112.05 185.31 112.48 184.45 112.52 182.08 112.31 180.35 111.79 
M 158.43 122.27 156.34 122.51 155.76 122.43 154.45 121.69 154.16 121.23 154.07 120.64 154.16 119.03 154.02 118.37 
M 174.39 179.04 175.42 177.62 175.8 177.4 176.58 177.61 177.28 178.28 177.45 178.69 
M 114.76 137.03 113.38 138.71 113.12 139.29 112.29 142.27 112.34 142.71 
M 87.4 136.36 88.2 136.03 90.7 135.95 92.3 135.51 
M 168.84 160.63 169.83 160.45 170.48 160.04 173.08 157.07 174.56 155.61 174.92 155.02 
M 109.25 187.73 108.02 187.32 105.87 187.57 
M 98.54 168.19 97.57 165.8 97.2 165.31 94.83 164.55 
M 157.91 194.18 160.02 194.7 161.62 195.62 162.02 196.23 161.84 197.22 
M 179.42 122.45 179.67 120.78 179.28 117.79 179.68 115.73 179.3 113.42 178.73 112.52 
M 87.49 138.63 88.62 137.81 89.6 136.59 91.3 136.06 92.35 135.52 
M 171.31 152.9 172.04 151.74 172.89 149.26 172.78 147.85 171.92 145.61 
M 165.25 198.72 164.61 199.19 163.01 201.05 162.09 203.87 161.3 205.02 161.02 206.13 
M 183.74 113.73 177.88 111.15 177.03 111.05 175.38 111.21 
M 200.52 135.27 199.81 134.67 198.78 134.1 197.8 133.78 196 133.47 195.33 133.57 190.36 136.78 
M 193.07 162.93 192.68 163.03 191.86 163.63 191.16 164.48 190.51 165.75 189.27 166.56 
M 123.24 142.51 122.35 143.56 121.17 144.58 120.43 145.6 120.34 146.43 120.76 147.8 
M 180.66 184.11 180.53 180.35 180.64 179.65 181.03 179.23 
M 119.17 136.98 118.49 138.59 118.01 139.29 117.32 139.88 115.4 140.81 113.55 142.44 112.6 142.91 
M 96.98 143.57 96.45 142.92 96.01 142.01 93.89 136.68 93.37 135.88 92.57 135.1 
M 65.87 131.38 66.58 131.96 67.25 132.2 68.89 132.39 
M 193.96 128.23 192.91 128.04 192.13 127.51 191.28 126.24 190.53 124.16 190.2 121.58 190.26 120.26 190.92 116.57 
M 145.97 176.84 146.64 174.27 146.62 173.36 145.46 169.79 145.2 167.48 145.37 166.7 146.11 165.34 147.33 164.22 
M 97.87 181.79 98.43 182.56 
M 94.83 178.69 94.87 179.26 95.35 179.27 
M 92.23 175.51 92.01 175.99 91.92 176.78 92.38 176.49 92.93 176.42 
M 89.78 172.37 89.2 173.24 88.97 174.31 89.56 173.74 90.63 173.44 
M 87.29 169.35 86.38 170.5 86.02 171.83 86.75 171 88.25 170.43 
M 84.7 166.47 83.56 167.75 83.07 169.36 83.93 168.25 85.63 167.5 
M 82.29 163.38 80.75 165.01 80.12 166.88 81.11 165.51 83.18 164.51 
M 79.83 160.35 77.93 162.26 77.17 164.41 78.3 162.76 80.77 161.49 
M 77.24 157.47 75.12 159.52 74.22 161.94 75.48 160.01 78.19 158.56 
M 74.74 154.48 72.3 156.77 71.27 159.46 72.67 157.27 75.67 155.59 
M 72.3 151.45 69.49 154.02 68.32 156.99 69.85 154.52 73.21 152.59 
M 69.88 148.4 66.67 151.28 65.37 154.51 67.04 151.78 70.8 149.57 
M 67.47 145.34 63.86 148.53 62.42 152.04 64.22 149.03 68.39 146.54 
M 65.1 142.26 61.04 145.79 59.47 149.56 61.41 146.28 66.03 143.47 
M 62.81 139.1 58.23 143.04 56.52 147.09 58.59 143.54 63.72 140.38 
M 60.68 135.82 55.41 140.29 53.57 144.61 55.78 140.79 61.53 137.21 
M 98.04 181.77 98.84 181.89 
M 94.15 180.4 94.31 180.43 
M 89.83 179.67 90.71 178.98 90.86 179.83 
M 85.89 179 86.38 178.21 87.16 177.61 86.99 178.3 87.22 179.23 
M 82.06 178.27 82.67 177.05 83.6 176.23 83.28 177.14 83.49 178.56 
M 78.26 177.52 78.95 175.89 80.05 174.85 79.56 175.98 79.73 177.79 
M 74.45 176.83 75.24 174.73 76.49 173.48 75.85 174.82 75.97 177.12 
M 70.7 175.98 71.53 173.57 72.94 172.1 72.14 173.66 72.2 176.33 
M 66.94 175.14 67.82 172.41 69.38 170.73 68.43 172.5 68.43 175.46 
M 63.15 174.4 64.1 171.25 65.83 169.35 64.71 171.34 64.66 174.7 
M 59.38 173.6 60.39 170.09 62.27 167.98 61 170.18 60.89 173.94 
M 55.62 172.77 56.68 168.93 58.72 166.6 57.29 169.02 57.12 173.09 
M 51.83 172.06 52.96 167.77 55.16 165.22 53.57 167.86 53.35 172.33 
M 48.03 171.4 49.25 166.61 51.61 163.85 49.86 166.7 49.57 171.66 
M 44.22 170.74 45.54 165.45 48.05 162.47 46.15 165.54 45.79 171.04 
M 40.46 169.9 41.82 164.29 44.5 161.1 42.44 164.38 42.02 170.27 
M 36.71 169.05 38.11 163.13 40.94 159.72 38.72 163.22 38.25 169.37 
M 32.86 168.62 34.4 161.97 37.39 158.35 35.01 162.06 34.48 168.65 
M 41.51 175.57 51.66 180.09 60.79 183.59 70.15 186.61 79.57 189.15 89.45 191.12 99.71 192.68 120.56 195.45 
M 63.32 181.3 63.06 180.41 62.33 179.61 
M 84.59 185.66 80.37 187.89 79.89 188.28 79.39 189.1 
M 107.35 192.04 107.37 191.86 
M 200.46 104.71 208.69 112.94 
M 206.55 102.55 217.42 113.42 
M 212.87 100.63 219.2 106.97 
M 219.99 99.51 230.47 109.99 
M 227.26 98.53 238.58 109.85 
M 234.3 97.33 244.22 107.25 
M 241.15 95.94 250.63 105.41 
M 248.05 94.59 257.21 103.75 
M 255.48 93.78 265.88 104.18 
M 262.84 92.89 274.41 104.46 
M 270.33 92.13 280.37 102.17 
M 278.3 91.86 285.83 99.39 
M 286.88 92.2 293.19 98.51 
M 297.04 94.11 308.73 105.81 
M 309.49 98.32 320.94 109.77 
M 321.73 102.32 332.24 112.83 
M 332.96 105.31 340.14 112.48 
M 343.8 107.9 354.56 118.66 
M 355.43 111.29 365.67 121.53 
M 366.68 114.29 374.36 121.97 
M 379.43 118.79 385.75 125.12 
M 393.79 124.91 402.77 133.89 
M 247.77 94.63 248.25 95.59 
M 252.65 95.12 253.14 96.11 
M 255.54 82.34 257.84 86.95 
M 259.68 90.64 260.93 93.12 
M 256.73 75.46 262.72 87.44 
M 263.65 89.29 265.32 92.64 
M 258.75 70.22 267.51 87.73 
M 261.73 66.91 268.65 80.74 
M 265.03 64.23 266.41 67 
M 268.26 70.69 273.79 81.75 
M 275.63 85.43 276.55 87.28 
M 277.48 89.12 278.86 91.88 
M 270.13 65.16 271.06 67.01 
M 274.74 74.38 283.55 91.99 
M 272.33 60.28 274.63 64.89 
M 278.32 72.26 288.35 92.31 
M 275 56.35 280.07 66.49 
M 281.92 70.18 293.48 93.3 
M 277.84 52.76 283.84 64.74 
M 284.76 66.59 297.66 92.39 
M 282.16 52.12 302.9 93.6 
M 286.5 51.52 307.24 93 
M 292.46 54.16 309.51 88.26 
M 306.51 73 312.04 84.06 
M 316.65 93.28 321.06 102.1 
M 310.23 71.15 316.68 84.05 
M 320.36 91.43 327.24 105.17 
M 306.74 54.91 329.55 100.52 
M 310.76 53.66 331.86 95.87 
M 314.41 51.69 334.17 91.22 
M 318.68 50.96 332.04 77.69 
M 335.88 85.35 336.48 86.57 
M 324.12 52.56 327.34 59.01 
M 328.26 60.85 330.48 65.28 
M 329.94 54.93 330.4 55.86 
M 331.53 58.1 332.19 59.43 
M 214.43 291.39 212.54 297.7 
M 214.43 291.39 217.13 291.39 217.94 291.7 218.27 292.6 218 293.5 217.13 294.39 216.14 294.7 213.44 294.7 
M 223.4 293.5 222.14 297.7 
M 223.13 294.39 222.71 293.8 222.2 293.5 221.3 293.5 220.61 293.8 219.83 294.39 219.26 295.3 219.08 295.89 219.11 296.8 219.53 297.39 220.04 297.7 220.94 297.7 221.63 297.39 222.41 296.8 
M 229.1 293.5 227.66 298.3 227.09 299.2 226.01 299.8 225.11 299.8 224.6 299.5 
M 228.83 294.39 228.41 293.8 227.9 293.5 227 293.5 226.31 293.8 225.53 294.39 224.96 295.3 224.78 295.89 224.81 296.8 225.23 297.39 225.74 297.7 226.64 297.7 227.33 297.39 228.11 296.8 
M 232.7 293.5 232.01 293.8 231.23 294.39 230.66 295.3 230.48 295.89 230.51 296.8 230.93 297.39 231.44 297.7 232.34 297.7 233.03 297.39 233.81 296.8 234.38 295.89 234.56 295.3 234.53 294.39 234.11 293.8 233.6 293.5 232.7 293.5 
M 237.2 293.5 235.31 299.8 
M 236.93 294.39 237.71 293.8 238.4 293.5 239.3 293.5 239.81 293.8 240.23 294.39 240.26 295.3 240.08 295.89 239.51 296.8 238.73 297.39 238.04 297.7 237.14 297.7 236.63 297.39 236.21 296.8 
M 243.53 291.39 241.64 297.7 
M 242.54 294.7 243.71 293.8 244.4 293.5 245.3 293.5 245.81 293.8 245.84 294.7 244.94 297.7 
M 251.9 293.5 250.64 297.7 
M 251.63 294.39 251.21 293.8 250.7 293.5 249.8 293.5 249.11 293.8 248.33 294.39 247.76 295.3 247.58 295.89 247.61 296.8 248.03 297.39 248.54 297.7 249.44 297.7 250.13 297.39 250.91 296.8 
M 257.6 293.5 256.15 298.3 255.59 299.2 254.51 299.8 253.61 299.8 253.1 299.5 
M 257.33 294.39 256.9 293.8 256.39 293.5 255.5 293.5 254.81 293.8 254.03 294.39 253.46 295.3 253.28 295.89 253.31 296.8 253.73 297.39 254.24 297.7 255.14 297.7 255.83 297.39 256.61 296.8 
M 259.15 295.3 262.76 295.3 262.94 294.7 262.82 294.1 262.1 293.5 261.2 293.5 260.51 293.8 259.73 294.39 259.15 295.3 258.98 295.89 259.01 296.8 259.43 297.39 259.94 297.7 260.84 297.7 261.52 297.39 262.31 296.8 
M 265.39 293.5 264.14 297.7 
M 264.86 295.3 265.43 294.39 266.2 293.8 266.89 293.5 267.8 293.5 
M 275.02 294.39 274.9 293.8 274.1 293.5 273.2 293.5 272.2 293.8 271.73 294.39 271.85 295 272.36 295.3 273.77 295.6 274.27 295.89 274.31 296.8 273.83 297.39 272.83 297.7 271.94 297.7 271.13 297.39 271.01 296.8 
M 278.6 293.5 277.9 293.8 277.13 294.39 276.56 295.3 276.38 295.89 276.4 296.8 276.83 297.39 277.33 297.7 278.24 297.7 278.93 297.39 279.7 296.8 280.27 295.89 280.45 295.3 280.43 294.39 280.01 293.8 279.5 293.5 278.6 293.5 
M 287.02 291.39 285.14 297.7 
M 286.13 294.39 285.7 293.8 285.2 293.5 284.3 293.5 283.61 293.8 282.83 294.39 282.26 295.3 282.08 295.89 282.11 296.8 282.52 297.39 283.04 297.7 283.94 297.7 284.63 297.39 285.4 296.8 
M 289.13 291.39 289.33 291.7 289.73 291.39 289.52 291.1 289.13 291.39 
M 288.8 293.5 287.54 297.7 
M 291.83 291.39 289.94 297.7 
M 293.93 291.39 294.14 291.7 294.52 291.39 294.32 291.1 293.93 291.39 
M 293.6 293.5 292.33 297.7 
M 296 293.5 294.74 297.7 
M 295.64 294.7 296.81 293.8 297.5 293.5 298.39 293.5 298.9 293.8 298.94 294.7 298.04 297.7 
M 302.02 291.39 302.24 291.7 302.63 291.39 302.42 291.1 302.02 291.39 
M 301.7 293.5 300.44 297.7 
M 304.43 291.39 304.64 291.7 305.02 291.39 304.82 291.1 304.43 291.39 
M 304.1 293.5 302.83 297.7 
M 305.72 297.1 305.33 297.39 305.54 297.7 305.93 297.39 305.72 297.1 
"/></svg>
