<svg xmlns="http://www.w3.org/2000/svg" width="520" height="320"><rect x="0" y="0" width="520" height="320" fill="floralwhite"/><rect x="10" y="10" width="500" height="300" stroke="black" stroke-width="1" fill="none"/><path stroke="black" stroke-width="1" fill="none" stroke-linecap="round" stroke-linejoin="round" d="
M 150.08 103.96 156.45 103.64 164.29 102.66 172.01 100.95 187.28 96.86 195.15 96.08 203.06 96.17 218.82 97.38 226.67 98.34 234.44 99.8 242.09 101.8 264.8 108.65 272.42 110.77 280.12 112.58 287.9 113.96 319.34 117.42 366.41 123.3 374.21 124.61 381.62 127.37 388.23 131.98 
M 388.23 150.28 381.43 156.92 374.78 161.2 367.53 164.36 360.15 167.2 352.69 169.82 345.12 172.1 337.45 174.02 329.73 175.71 306.46 180.3 298.67 181.66 290.85 182.81 282.99 183.66 275.08 183.92 267.2 183.37 259.38 182.18 251.6 180.77 243.77 179.67 235.9 178.94 228 178.44 220.1 178.26 212.2 178.62 204.37 179.7 196.57 181.03 188.74 182.11 180.88 182.97 172.98 183.34 165.09 182.95 159.32 181.93 
M 158.9 130.68 160.31 130.63 
M 221.19 127.81 230.19 129.08 
M 236.2 129.72 240.07 129.75 241.54 129.97 
M 248.11 131.6 256.83 134.22 262.52 136.12 
M 266.08 137.07 267.74 137.4 277.89 137.18 
M 280.98 137.06 285.84 136.94 287.77 137.19 
M 295.66 138.24 297.51 138.38 300.65 138.07 303.54 137.53 306.68 137.27 308.46 137.36 
M 312.14 137.69 315.96 138.21 
M 319.79 138.78 327.47 140.02 
M 333.9 140.08 337.87 139.3 341 139.22 342.84 139.46 
M 346.5 139.91 348.33 140.13 351.53 140.09 363.32 138.74 366.41 138.5 369.74 138.51 376.61 138.76 386.53 140.14 
M 155.43 103.69 155.15 104.59 
M 163.32 102.78 160.76 109.09 
M 158.21 115.54 157.25 118.43 
M 163.61 176.39 163.92 177.39 
M 172.23 100.88 172.2 101.01 
M 162.52 128.2 161.95 130.03 
M 169.39 169.56 170.15 172.47 
M 171.08 175.9 171.56 177.66 
M 179.53 102.41 179.13 104.25 177.36 109.25 
M 176.07 112.49 173.83 119.36 
M 171.74 126.37 171.71 126.47 
M 178.56 173.15 179.89 178.21 
M 186.66 104.8 185.15 110.16 183.34 115.28 
M 188.64 177.36 189.25 179.52 
M 195.43 105.31 194.7 106.88 193.16 112.35 
M 192.11 116 191.53 117.78 189.39 122.26 
M 197.57 174.82 197.67 175.17 
M 198.86 179.18 199.28 180.57 
M 206.38 103.92 204.77 106.94 
M 203.25 110.11 201.85 113.44 
M 198.84 120.01 197.69 122.07 
M 207.11 176.41 207.97 179.21 
M 216.09 101.64 215.54 103.36 214.17 106.6 211.75 111.25 
M 210.16 114.44 207.28 120.16 
M 214.85 171.83 216.84 178.19 
M 223.7 102.31 222.24 105.45 
M 220.84 108.72 218.61 113.62 216.08 118.38 
M 220.84 163.72 222.2 167.85 
M 223.62 171.98 225.66 178.39 
M 231.48 103.89 229.9 106.95 
M 228.27 110.03 226.64 113.17 
M 224.95 116.32 224.08 117.88 220.93 125.31 
M 225.87 154.74 230.9 170.38 233.26 178.77 
M 237.73 109.36 232.84 116.49 232.05 118.16 
M 228.99 126.11 227.98 128.71 
M 233.36 155.95 234.78 160.16 
M 237.09 167.89 239.1 175.02 
M 240.21 178.58 240.46 179.36 
M 243.56 114.93 241.56 117.79 
M 236.32 127.79 235.39 129.71 
M 235.5 137.06 236.17 140.62 
M 237.99 148.17 238.98 151.98 
M 240.2 155.97 242.21 162.03 245.83 174.51 
M 247.02 178.07 247.74 180.23 
M 254.18 110.96 250.8 117.17 
M 245.62 149.4 249.28 162.37 250.73 168.81 251.68 172.15 255.09 181.4 
M 260.99 112.65 259.29 115.73 
M 257.62 118.89 255.06 123.66 252.23 128.29 
M 250.39 130.91 249.54 132.03 
M 252.08 144.16 253.8 152.53 255.12 157.7 
M 255.98 161.06 256.78 164.31 
M 257.66 167.57 258.77 171 
M 260.09 174.58 263.06 182.74 
M 266.58 117.63 263.88 122.16 261.48 127.12 
M 259.94 130.53 257.84 134.56 
M 261.64 152.53 262.22 155.57 
M 262.94 158.7 265.52 168.21 
M 266.72 171.61 270.55 180.73 271.22 182.68 
M 274.2 119.38 271.64 124.01 270.05 127.27 268.67 130.78 266.59 137.28 
M 269.66 155.95 271.6 163.46 272.58 166.59 273.3 168.37 
M 274.95 172.1 277.55 177.75 278.74 181.03 
M 282.34 121.08 281.31 122.41 278.58 126.85 
M 275.26 133.19 273.28 137.28 
M 275.21 147.26 276.45 152.95 
M 277.17 155.83 278.58 160.44 283.04 171.05 285.79 178.55 
M 288.45 124.91 283.64 131.99 280.53 137.11 
M 282.93 147.16 283.45 149.81 
M 284 152.48 285.11 156.71 291.72 174.11 
M 298.29 122.92 296.79 126.1 
M 295.03 129.04 292.05 133.14 288.6 137.28 
M 290.55 144.52 291.08 147.14 
M 291.95 152.13 293.04 156.28 298.04 170.51 
M 307.64 120.63 306.52 121.82 304.59 124.55 300.96 132.65 
M 299.02 136.32 297.82 138.38 
M 298.47 142.13 299.28 147.05 
M 299.75 149.56 300.3 152.14 
M 301.04 154.9 303.09 161.94 306.71 171.2 
M 317.94 119.65 312.39 125.61 310.44 128.32 307.77 132.67 
M 305.91 135.75 304.92 137.36 
M 306.8 144.33 307.45 147.01 
M 308.06 149.64 308.71 152.29 
M 309.56 155.11 311.83 161.26 
M 313.07 164.39 314.21 167.39 
M 315.02 169.6 315.28 170.33 
M 325.73 121.24 323.12 125.4 319.29 130.73 313.35 137.83 
M 315.76 145.22 316.5 147.93 
M 317.14 150.51 317.89 153.17 
M 318.92 156.1 323.96 169.44 
M 333.14 122.74 332.41 124.21 331.2 127.43 329.68 130.39 326.81 134.31 
M 324.68 136.77 322.43 139.2 
M 323.9 143.53 324.62 146.15 
M 326.19 151.4 329.61 160.99 332.93 168.68 
M 336.96 129.47 335.57 132.48 
M 334.13 135.48 333.37 136.96 331.2 140.41 
M 332.34 144.22 333.09 146.72 
M 333.88 149.22 335.37 154.84 335.85 156.12 
M 337.05 158.91 340.24 165.27 
M 346.19 128.51 341.15 134.21 339.27 136.71 337.62 139.34 
M 340.9 146.59 342.45 150.43 343.94 154.85 345.03 157.36 348.51 164.24 
M 354.92 127.25 352.57 131.14 349.92 134.82 
M 348.05 137.22 345.71 139.86 
M 350.23 149.19 352.61 154.76 356.34 161.86 
M 361.74 128.27 357.24 134.09 353.46 139.93 
M 358.21 148.74 361.67 154.87 364.97 160.3 
M 369.1 129.93 363.74 134.89 361.81 137.12 360.38 139.08 
M 362.71 142.86 366.92 149.31 371.88 156.5 
M 286.76 165.05 287.37 165.98 287.83 167.15 288.35 167.81 289.75 169.24 291.31 170.11 
M 259.91 131.56 261.01 130 260.86 129.05 258.96 127.24 257.53 126.44 
M 322.21 151.33 321.35 151.64 319.84 152.6 318.95 153.72 318.84 154.29 319.53 155.76 
M 246.72 131.93 247.11 131.43 247.35 131.35 248.69 131.59 249.24 132.14 250.31 134.14 251.02 134.92 
M 295.04 170.99 294.22 171.72 293.71 171.83 
M 286.23 156.15 285.45 158.21 285 158.9 283.15 159.84 281.68 160.26 
M 317.32 178.21 317.01 177.82 
M 240.14 147.45 239.97 148.36 240.34 150.47 240.2 151 239.85 151.34 
M 238.17 160.99 237.93 160.33 237.54 159.92 236.13 159.18 234.92 158.75 232.25 158.68 231.52 158.29 231.33 157.91 
M 169.4 114.74 167.52 113.26 166.01 111 165.62 110.78 164.85 110.86 
M 339.33 145.89 338.68 145.66 338.15 145.71 336.65 146.14 335.72 146.68 335.16 147.36 334.65 148.62 334.3 150.22 
M 297.85 125.23 296.22 126.18 295.08 127.42 294.99 128.39 295.45 129.11 295.84 129.29 296.54 129.01 
M 293.07 116.58 290.72 115.73 288.93 115.8 
M 215.31 106.94 214.11 107.85 211.77 110.24 211.27 110.95 211.21 111.82 
M 250.9 153.68 253.28 155.81 253.43 156.67 253.02 158.9 
M 260.16 174.4 258.91 171.95 258.24 171.34 257.16 170.72 
M 170.98 176.16 168.47 177.32 167.17 178.16 165.67 178.47 
M 328.22 129.08 326.88 125.41 324.96 122.17 324.8 121.23 324.94 120.42 
M 302.74 145.33 301.49 145.96 300.19 147.25 298.91 148.19 298.12 148.32 295.74 148.25 293.32 147.64 
M 245.25 136.77 245.67 133.63 246.58 131.08 246.92 130.8 248.04 130.94 
M 299.93 178.86 299.2 177.08 298.79 175.35 299.02 172.68 298.78 172.3 297.8 171.5 296.93 171.21 
M 242.2 154.59 239.49 151.63 
M 336.98 152.08 335.6 152.62 335.09 153.06 334.02 155.21 333.75 155.49 333.5 155.53 
M 338.77 167.69 339.02 167.27 339.58 166.97 339.87 167.01 339.99 167.39 
M 266.87 170.86 266.46 171.02 
M 205.03 96.21 205.03 96.21 
M 211.99 96.77 217.03 88.88 218.24 86.58 220.15 84.96 222.85 84.32 224.96 83.25 227.77 82.81 229.71 81.34 231.83 80.09 234.45 79.54 236.43 78.37 242.28 78.84 244.42 78.28 247.56 78.49 250.4 78.4 253.14 78.57 255.52 79.95 257.34 80.28 259.29 80.19 261.97 80.66 263.5 79.92 265.19 80.74 267.65 82.46 271.32 84.45 274.31 84.82 277.14 84.53 279.31 84.06 284.16 85 286.43 85.8 287.73 86.58 288.95 87.66 291.1 88.17 294.08 89.37 299.71 92.87 301.56 94.62 302.43 96.29 303.92 97.17 308.05 96 310.48 95.51 312.95 95.32 315.75 96.11 317.94 97.05 320.48 98.49 325.54 105.54 326.41 107 328.33 109.34 330.03 111.76 329.66 118.75 
M 324.11 118.02 324.11 118.02 
M 209.2 96.55 211.71 95.73 213.09 93.77 
M 213.36 96.88 215.64 95.61 216.85 94.67 
M 217.53 97.26 219.44 95.96 221.54 93 
M 221.69 97.64 223.22 96.61 224.45 94.57 225.23 92.51 231.27 87.04 232.12 84.75 
M 225.83 98.21 227.57 97.24 228.76 95.55 229.75 93.07 231.82 90.97 234.09 89.64 
M 229.96 98.88 231.62 98.05 233.48 96.07 235.29 94 237.57 89.37 239.76 88.07 240.9 86.41 
M 234.06 99.7 235.9 98.75 240.54 93.86 243.05 91.55 244.74 89.57 
M 238.11 100.75 240.72 100 242.68 98.08 245.59 94.71 247.1 92.73 
M 242.15 101.82 244.96 101.37 246.45 99.52 249.26 95.4 251.46 94.12 253.18 92.53 253.48 89.86 
M 246.15 103.01 248.47 102.32 250.2 100.67 251.83 98.61 254.22 97.14 255.54 95.11 
M 250.16 104.21 252.03 103.39 254.09 101.94 256.12 100.39 258.2 98.52 261.67 94.17 262.6 92.27 
M 254.16 105.43 258.71 102.82 262.43 98.75 263.98 96.73 264.87 94.8 
M 258.16 106.65 260.63 105.67 262.68 103.92 264.66 101.57 265.81 99.7 267.5 96.05 269.25 94.08 271.27 92.38 272.63 90.36 274.27 89.32 
M 262.16 107.86 264.34 107.13 266.4 105.38 268.25 103.15 270.17 101.22 271.61 97.44 275.94 93.98 
M 266.16 109.06 268.81 108.01 271.88 104.29 273.58 101.98 274.65 99.76 276.17 98.09 
M 270.18 110.21 272.67 109.39 274.39 107.34 275.45 104.86 277.05 103.01 278.2 101.11 280.31 99.08 282 97.87 283.66 96.03 
M 274.24 111.23 276.2 110.39 277.86 108.54 279.23 106.06 280.72 103.81 284.28 101.14 
M 278.29 112.25 280.68 110.97 283.38 106.89 285.19 104.78 287.12 104.28 288.25 102.74 288.91 100.53 290.85 98.86 293.05 95.93 
M 282.41 112.99 284.67 111.53 288.41 106.27 290.09 104.66 292.65 100.53 295.41 98.7 298.36 95.83 299.09 94.18 
M 286.52 113.74 289.01 112.42 293.45 104.79 295.14 103.61 
M 290.66 114.29 293.16 112.59 294.39 110.45 295.82 108.4 297.03 107.44 297.92 106.12 
M 294.81 114.79 296.97 113.7 299.98 110.2 300.88 108.71 
M 298.97 115.24 301.43 114.26 306.46 106.28 310.33 103.16 
M 303.13 115.64 305.12 114.82 306.54 112.99 308.88 110.72 310.72 108.42 
M 307.29 116.05 309.41 115.28 313.65 110.87 315.47 108.53 316.41 107.03 
M 311.45 116.5 313.98 115.78 315.9 113.75 320 110.07 320.56 108.5 
M 315.6 116.96 318.82 115.87 324.41 111.44 325.18 110.02 325.38 108.65 
M 319.75 117.47 323.4 116.49 325.55 115.29 
M 158.82 129.64 187 119.82 187.3 120.6 159.08 132.49 
M 159.22 133.18 218.09 117.11 218.32 117.91 159.82 135.98 
M 160 136.75 228.53 123.96 228.7 124.78 160.67 139.53 
M 160.85 140.43 232.39 133.19 232.48 134.02 161.08 143.27 
M 161.16 144.24 239.59 142.84 239.62 143.68 161.27 147.1 
M 161.31 148.09 235.73 153.08 235.68 153.91 161.99 150.97 
M 162.3 152.09 230.96 162.59 230.84 163.42 163.09 155.03 
M 163.44 156.31 225.03 171.18 224.85 171.99 163.95 159.24 
M 164.17 160.62 219.02 178.92 218.76 179.71 164.7 163.61 
M 164.96 166.74 187.02 176.63 186.7 177.41 164.97 169.27 
M 184.15 121.93 190.4 122.31 196.6 122.19 202.72 121.3 205.75 120.59 211.76 118.83 
M 212.06 119.84 213.53 121.98 215.26 123.69 217.39 124.74 218.59 125.04 221.17 125.33 
M 221.38 126.37 221.12 128.48 221.33 130.4 222.24 132.01 224.66 133.97 
M 224.78 135.02 225.36 137.46 226.33 139.59 227.9 141.24 228.9 141.89 231.15 142.99 
M 231.19 144.04 229.42 145.52 228.11 147.19 227.52 149.16 227.69 152.54 
M 227.63 153.59 225.75 154.83 224.3 156.3 223.54 158.14 223.41 161.44 
M 223.26 162.48 220.37 163.96 219.06 165.41 218.37 167.3 218.09 169.5 
M 217.86 170.53 215.88 171.24 214.29 172.27 213.29 173.79 212.69 176.8 
M 212.37 177.81 206.14 176.17 203.01 175.51 196.7 174.74 190.32 174.73 183.9 175.23 
M 187.28 122.15 193.51 122.33 196.6 122.19 202.72 121.3 208.76 119.74 
M 212.78 120.94 214.35 122.91 215.26 123.69 217.39 124.74 219.87 125.21 
M 192.64 126.74 194.26 128.52 195.64 129.21 197.25 129.51 
M 221.22 127.44 221.14 129.47 221.33 130.4 222.24 132.01 223.77 133.35 
M 198.13 132.13 198.2 134.05 198.79 135.1 199.79 135.97 
M 225.04 136.26 225.77 138.58 226.33 139.59 227.9 141.24 230 142.46 
M 200.62 139.03 201.45 141.2 202.47 142.27 203.84 143.06 
M 230.27 144.77 228.68 146.32 228.11 147.19 227.52 149.16 227.55 151.38 
M 204.01 145.73 202.61 147.31 202.23 148.58 202.25 150.03 
M 226.66 154.19 224.95 155.52 224.3 156.3 223.54 158.14 223.37 160.3 
M 201.67 153.03 200.14 154.4 199.64 155.59 199.53 157 
M 222.23 162.92 220.37 163.96 219.06 165.41 218.65 166.3 218.2 168.38 
M 198.79 159.87 197.11 160.98 196.46 162.07 196.17 163.42 
M 216.84 170.86 215.02 171.7 214.29 172.27 213.29 173.79 212.82 175.74 
M 195.29 166.21 193.63 167.12 192.98 168.11 192.67 169.38 
M 209.26 176.95 203.01 175.51 199.86 175.02 193.52 174.65 187.11 174.95 
M 223.35 178.21 227.32 181.32 229.82 182.98 232.93 185.67 246.65 207.4 249.99 213.06 250.68 215.46 249.43 217.75 248.83 219.73 249.09 221.58 246.32 222.23 244 222.05 241.31 221.5 234.07 221.97 228.83 221.43 226.97 221.78 222.06 221.82 219.99 222.85 217.97 223.19 213.36 221.18 210.39 219.51 207.3 218.03 188.39 196.82 186.56 193.96 180.89 187.76 177.55 183.3 
M 219.17 178.27 221.71 180.75 226.46 184.17 232.58 191.38 234.46 193.27 237.24 195.26 238.47 197.25 239.28 199.17 243.6 204.54 244.89 206.78 
M 214.99 178.34 219.51 182.98 223.97 186.9 229.7 193.09 232.16 195.16 234.86 196.75 236.84 199.01 238.71 200.71 240.41 202.95 242.71 207.34 
M 210.84 178.8 217.25 185.15 219.59 187.02 225.47 193.34 230.02 197.1 232.6 198.01 
M 206.69 179.37 211.21 183.54 212.99 185.72 215.17 187.65 217.44 189.09 221.21 193.34 225.89 197.88 227.96 199.4 230.93 200.89 
M 202.56 180.01 209.08 186.11 214.95 192.1 216.75 193.15 224.41 199.7 226.97 201.62 228.52 203.91 
M 198.44 180.71 201.47 183.42 203.58 185.63 205.5 187.01 211.29 193 212.69 194.97 216.8 198.42 219.77 199.42 221.95 201.55 
M 194.31 181.36 197.21 183.96 199.31 186.23 200.91 188.86 202.51 190.52 206.26 194.27 210.94 198.11 212.34 199.85 
M 190.17 181.92 192.96 184.56 198.19 191.2 199.36 193.5 200.76 195.35 202.7 197.21 204.67 198.74 206.67 200.68 
M 186.02 182.46 188.88 185.36 190.67 187.67 192.12 189.93 195.83 194.06 196.97 196.23 198.49 198.13 201.75 201.53 204.2 203.67 
M 181.86 182.87 186.89 188.53 189.65 193.08 191.46 195.23 196.3 202.28 197.94 203.97 200.53 204.88 202.13 207.22 
M 360.75 166.99 366.73 172.98 368.7 176 370.06 178.76 366.29 177.28 363.91 178.07 362.17 179.57 358.18 182.44 355.67 182.98 353 183.06 349.27 186.29 347.22 187.76 345.34 189.4 343.83 191.31 338.68 192.16 336.14 193 334.79 195.06 334.39 198.05 333.24 200.31 331.82 202.41 330.16 204.29 327.37 208.59 325.23 209.98 322.79 211.06 320.12 211.94 318.03 213.39 316.91 215.78 315.48 217.89 313.1 219.02 311.48 220.94 309.21 222.18 307.53 223.88 306.56 227.9 304.1 231.71 303.04 229.8 300.66 227.24 298.04 224.79 296.43 221.57 295.46 218.68 293.66 215.84 291.36 208.91 289.85 207.36 288.09 204.96 285.6 199.38 285.1 196.96 283.95 194.42 278.31 184.06 
M 356.81 168.37 363.04 173.92 
M 352.86 169.76 355.86 173.1 361.27 176.98 
M 348.87 171 351.38 174.54 353.76 177.47 
M 344.86 172.17 347.35 175.76 349.19 178.72 
M 340.82 173.25 343.37 176.34 347.48 182.24 349.24 185.14 
M 336.74 174.19 340.22 177.73 341.68 179.98 345.77 185.51 
M 332.66 175.11 336.06 179.03 337.38 181.86 338.97 183.84 340.41 186.26 
M 328.57 175.95 331.44 179.49 332.91 182.28 334.99 187.24 
M 324.48 176.8 327.39 180.49 328.88 182.88 331.16 185.54 331.83 187.79 333.18 189.92 
M 320.38 177.61 323.29 181.01 324.83 183.65 328.73 188.76 
M 316.27 178.42 319.52 182.2 321.08 185.18 322.7 187.26 324.44 189.1 325.81 191.84 328.48 196.51 
M 312.17 179.21 315.3 183.13 317.29 186.13 319.06 188.29 320.38 190.3 321.2 192.73 
M 308.06 179.99 310.86 183.27 312.84 186.19 316.98 192.98 318.37 195.52 319.47 198.76 
M 303.95 180.74 310.46 189.2 313.4 194.95 315.16 196.91 315.72 198.82 317.49 202.09 
M 299.83 181.46 302.08 184.89 304.04 187.32 305.84 189.99 306.7 192.57 308.3 195.3 310.35 197.77 311.27 199.61 312.13 201.89 313.7 203.54 315.06 206.05 
M 295.7 182.14 299.81 188.22 302.17 190.72 304.02 193.35 306.44 198.4 307.58 203.2 309.36 205.14 
M 291.56 182.71 293.27 186.07 295.14 188.69 298.92 193.37 300.47 195.76 302.69 201.97 
M 287.42 183.29 289.26 186.79 292.49 192.19 293.7 194.59 294.83 197.43 296.41 199.95 297.19 202.94 
M 283.26 183.64 286.45 189.29 288.27 192.12 290.36 197.34 291.99 202.85 293.01 204.91 294.27 207.06 295.69 208.36 
M 388.23 131.98 390.77 131.4 393.16 130.62 395.32 129.33 397.48 127.6 404.05 123.71 406.55 121.76 408.87 120.48 411.9 120.15 414.35 118.68 417.17 115.57 420.11 113.03 424.63 110.78 426.13 109.82 430.62 107.43 434.37 105.81 436.03 105.27 437.97 104.15 441.48 101.82 444.4 99.1 446.34 97.05 448.67 96.19 451.4 95.51 452.79 94.66 454.24 92.49 456.81 91.52 458.7 90.42 460.09 89.12 463.07 85.73 481.97 91.93 490 99.7 488.43 101.39 487.55 103.77 487.04 106.53 485.82 108.57 485.37 111.38 484.54 113.8 483.85 116.46 482.23 118.37 480.84 120.5 478.26 124.99 474.45 128.25 471.77 129.1 469.77 130.64 466.81 134.74 464.72 136.19 462.89 137.9 461.3 139.8 462.58 143.53 463.31 146.72 463.61 149.47 464.9 151.69 472.9 160.73 478.93 168.97 479.62 170.22 482.45 174.23 483.54 176.54 486.45 181.89 487.45 184.1 487.6 185.48 488.34 187.43 484.92 191.03 483.05 192.68 481.81 194.96 480.9 197.58 479.43 198.44 464.37 201.14 461.49 199.99 458.39 200 455.93 199.69 454.13 198.69 451.08 196.17 449.3 193.56 447.47 192.13 445.68 190.96 443.53 190 441.29 188.03 440.53 186.24 436.15 183.31 432.73 181.99 429.69 180.25 427.18 179.26 424.51 177.75 421.16 173.96 416.47 170.5 410.45 166.71 404.34 161.13 401.5 159.56 399.53 157.85 393.45 154.04 391.05 152.13 388.23 150.28 
M 390.87 133.34 393.32 132.5 400.19 129.27 402.32 127.84 405 126.93 407.49 125.56 409.64 123.82 412.01 122.71 414.26 121.97 418.52 119.79 421.2 118.75 426.04 117.41 428.36 115.96 429.87 114.46 432.73 113.97 438.15 111.66 439.56 111.43 441.19 110.5 444.12 108.47 446.77 107.29 449.73 105.69 
M 388.23 135.35 390.92 135.23 395.88 133.83 403.07 131.26 407.98 128.91 413.03 127 416.33 127.1 419.7 126.92 421.95 126.13 423.58 124.74 425.35 123.76 429.42 122.44 431.73 121.16 433.75 119.49 435.86 118.14 439.3 118 442.15 117.57 444.12 116.62 449.09 115.64 452.13 114.54 455.65 112.6 460.58 110.52 463.18 108.58 465.4 107.8 466.09 108.11 468.16 106.83 471.07 105.85 
M 390.93 137.2 393.52 136.97 398.68 135.56 403.56 134.73 406.54 133.77 408.79 133.57 411.34 132.63 414.53 131.78 417.48 131.62 420.7 131.87 422.88 131.5 424.88 130.77 426.1 128.97 428.88 128 434.75 127.66 437.84 127.63 439.82 126.97 442.33 126.46 445.79 124.67 447.67 123.92 448.86 123.69 450.74 123.88 453.1 123.43 456.59 123.03 459.85 122.84 461.81 121.73 466.9 119.68 469.38 118.49 
M 388.23 138.71 390.97 139.21 393.53 139.18 398.9 138.38 401.42 138.59 407.18 137.29 409.77 137.25 415.35 136.65 418.34 136.3 420.75 135.83 428.02 136.68 434.13 135.51 436.66 135.28 439.29 134.76 444.18 134.35 446.7 132.72 448.7 132.35 450.55 131.61 
M 396.64 141.6 399.31 141.65 402.33 142.14 404.66 141.54 407.28 141.11 414.79 140.61 420.8 140.59 423.11 141.52 425.81 142.29 428.31 142.4 434.36 141.92 438.41 142.5 
M 393.91 143.41 402.31 145.2 404.57 144.98 406.97 144.4 412.54 144.8 415.6 144.43 421.75 145.7 423.53 146.75 425.64 147.5 428.13 148.73 430.95 148.24 436.38 149.03 438.69 149.03 440.57 149.49 443.44 148.61 
M 388.23 143.76 391.15 144.88 393.75 145.6 396.77 145.92 399.31 146.67 401.47 147.52 410.47 148.06 413.1 148.79 416.12 148.96 421.1 150.23 423.55 151.13 425.35 151.3 427.16 151.86 429.42 151.9 432.46 152.89 
M 396.38 148.2 401.19 150.12 407 151.45 411.95 152.89 414.6 153.24 419.88 154.46 424.11 156.68 426.62 157.46 431.26 159.76 436.91 161.03 439.57 161.83 442.44 162.4 444.46 162.38 446.72 162.93 449.61 164.46 454.5 166.35 457.22 166.52 
M 393.43 149.73 396.16 150.61 400.83 152.94 403.37 153.89 406.12 155.17 408.64 156.06 413.38 158.5 415.81 159.32 418.67 159.61 420.78 160.66 422.58 162.01 425.09 162.96 427.92 164.42 433.9 166.83 436.37 168.31 438.85 169.49 440.72 170.8 443.47 172.3 453.05 175.04 457.08 177.07 458.76 177.34 461.2 178.38 463.98 178.98 465.3 179.99 467.1 180.8 469.34 182.08 
M 393.5 151.82 395.74 153.13 397.88 154.63 400.4 155.63 402.59 156.77 407.37 159.54 412.4 162.76 413.71 163.21 416.02 164.39 418.19 165.99 420.29 167.18 429.37 171.8 431.1 173.23 433.61 174.62 437.11 177.16 440.26 178.49 442.45 179.63 
M 351.59 121.46 354.73 124.8 369.12 107.24 363.09 126.11 360.75 122.55 
M 355.74 121.95 358.23 121.18 360.05 119.37 361.64 117.37 363.18 115.89 364.44 114.33 
M 67.66 152.57 74.22 145.73 78.15 142.38 87.97 135.46 93.06 131.15 98.53 126.99 104.37 122.8 110.6 118.79 116.83 115.11 122.89 111.92 128.82 109.45 134.6 107.26 139.83 105.56 144.29 104.43 147.88 103.88 150.01 103.88 153.43 107.72 155.12 111.69 157.64 119.75 158.61 123.81 158.7 127.98 159 132.12 160.84 140.25 161.33 148.54 163.53 156.64 164.92 164.83 165 168.99 164.52 173.22 163.27 177.54 159.12 182.15 146.91 181.98 137.76 181.6 129.7 180.93 122.42 179.99 115.44 178.6 108.5 176.69 102.15 174.4 91.16 169.73 86.38 167.99 
M 83.05 166.67 74.7 163.1 71.87 161.47 69.76 159.67 69.02 158.78 
M 137.48 133.01 138.11 136.53 138.45 139.96 137.97 143.27 137.24 146.33 137.41 149.05 138.3 153.81 140.98 160.4 141.66 163.2 140.16 166.72 132 166.89 120.13 167.55 114.55 167.61 108.86 167.15 102.99 165.99 97.54 164.17 
M 85.02 167.77 78.88 164.17 75.18 162.46 69.7 159.14 65.97 157.17 64.28 155.8 64 153.75 65.6 152.37 67.77 152.58 71.14 155.07 86.58 167.71 
M 84.07 169.04 78.39 170.57 68.44 173.59 58.3 176.27 56.19 176.67 54.27 176.08 53.74 174.12 54.99 172.16 57 171.54 73.31 169.35 79.49 168.38 84.86 167.78 
M 86.02 167.66 86.28 167.64 
M 105.73 145.11 104.88 141.87 105.12 138.52 106.44 135.44 108.69 132.94 111.62 131.32 114.93 130.73 118.24 131.25 121.21 132.82 123.5 135.27 124.88 138.32 125.19 141.67 124.4 144.93 122.59 147.75 119.97 149.84 116.8 150.96 113.45 150.99 110.27 149.94 107.6 147.9 105.73 145.11 
M 105.61 144.82 104.94 142.39 104.84 141.14 105.1 138.63 105.97 136.26 107.39 134.18 109.28 132.51 111.52 131.36 112.73 131 115.24 130.74 116.5 130.84 118.93 131.51 
M 107.16 144.18 106.6 142.15 106.51 141.1 106.69 139.24 
M 107.56 136.84 108.64 135.29 109.39 134.54 110.22 133.89 112.09 132.93 113.11 132.62 115.2 132.41 116.25 132.49 118.29 133.05 
M 108.7 143.54 108.25 141.91 108.28 139.81 
M 110.09 136.2 111.89 134.84 113.48 134.25 115.17 134.08 116.01 134.15 117.65 134.6 
M 111.31 142.6 110.97 141.3 111.03 140.5 
M 111.99 138.29 112.49 137.73 113.66 137.08 114.99 136.85 116.31 137.06 117.5 137.68 118.42 138.66 118.97 139.88 119.09 141.22 118.78 142.53 118.05 143.66 117 144.49 115.74 144.94 114.4 144.95 113.12 144.53 112.05 143.72 111.31 142.6 
M 112.3 137.94 112.08 138.39 
M 114.02 137.02 112.92 139.21 
M 112.15 140.75 111.28 142.49 
M 115.33 136.9 113.77 140.02 
M 113.26 141.04 111.98 143.6 
M 116.47 137.14 114.65 140.76 
M 114.35 141.38 112.87 144.34 
M 117.46 137.66 115.54 141.49 
M 115.43 141.72 113.9 144.79 
M 118.28 138.52 115.07 144.95 
M 118.91 139.77 116.46 144.68 
M 69.51 150.62 73.74 154.85 
M 71.95 148.05 76.55 152.65 
M 74.45 145.53 78.27 149.35 
M 77.16 143.23 80.1 146.16 
M 80.04 141.09 83.01 144.06 
M 83.01 139.04 87.94 143.97 
M 85.92 136.94 89.08 140.09 
M 88.77 134.77 92.35 138.35 
M 91.49 132.48 95.86 136.84 
M 94.27 130.23 99.24 135.21 
M 97.11 128.06 101.41 132.36 
M 100 125.93 104.62 130.55 
M 102.92 123.83 106.81 127.72 
M 105.91 121.81 109.06 124.95 
M 108.96 119.84 111.71 122.59 
M 112.06 117.93 117.01 122.87 
M 115.22 116.07 118.79 119.64 
M 118.44 114.27 122.62 118.45 
M 121.72 112.54 126.37 117.19 
M 125.17 110.97 129.99 115.79 
M 128.71 109.49 131.96 112.75 
M 132.34 108.11 137.04 112.8 
M 136.04 106.79 140.47 111.22 
M 139.83 105.56 143.25 108.98 
M 143.84 104.55 146.54 107.25 
M 148.18 103.88 151.06 106.76 
M 117.11 156.32 117.99 159.2 118.67 160.47 119.74 161.21 122.55 161.61 
M 151.69 147.09 150.56 148.6 149.05 149.55 148.07 150.95 147.8 151.59 
M 94.37 162.67 93.76 160.75 93.09 159.61 92.58 159.14 90.38 157.91 88.59 157.26 87.64 156.53 
M 122.11 165.47 119.36 168.23 119.15 168.76 119.13 169.37 
M 151.27 147.83 150.54 148.87 149.55 149.28 149.01 149.73 148.06 151.09 147.78 152.06 
M 151.19 138.91 150.4 137.91 148.8 136.95 148.29 136.48 147.75 135.03 147.13 134.06 145.55 132.53 
M 70.84 159.81 69.71 159.6 
M 158.25 178.98 159.25 179.75 159.39 180.28 
M 103.43 148.13 104.45 147.72 105.21 147.8 109.76 150.51 110.94 151.75 
M 137.35 132.54 134.34 133.84 131.41 134.01 128.81 134.37 
M 146.54 114.78 147.76 115.37 148.56 115.56 150.63 115.68 151.75 115.49 152.92 114.71 
M 129.32 114.61 128.49 113.91 128.22 113.44 128.13 112.11 128.62 111.1 129.86 110.47 130.31 110.02 
M 95.96 150.65 95.39 149.83 94.5 147.8 93.39 146.2 
M 122.8 126.27 127.04 121.53 127.37 120.95 127.51 119.82 127.18 117.61 
M 125.95 169.04 125.64 170.17 125.87 170.76 126.35 171.24 
M 160.33 176.56 160.79 177.03 160.92 177.6 160.36 179.96 
M 111.24 175.07 111.76 173.33 111.86 172.47 111.52 171.75 110.18 169.29 109.63 168.6 105.64 164.51 
M 77.03 152.09 75.19 151.24 73.54 149.81 71.46 148.55 
M 101.9 157.77 104.41 158.15 105.04 158.63 105.72 159.77 
M 92.73 159.85 90.62 158.7 88.29 157.7 86.99 156.43 86.11 156.08 85.44 155.55 
M 92.68 155.46 90.6 153.04 89.36 152.21 88.59 152.04 87.65 152.16 85.83 153.01 
M 147.55 132.41 147.04 131.57 145.99 130.51 145.46 130.37 144.97 130.54 
M 149.03 154.6 151.39 153.85 152.83 153.07 154.36 153.26 
M 103.29 143.54 104.44 143.39 105.16 142.94 
M 139.64 109.47 138.7 107.86 138.48 106.86 138.52 105.99 
M 153.04 149.82 152.85 150.92 153.03 152.16 153.42 152.85 154.31 153.19 
M 142.43 118.19 143.83 119.82 143.99 120.95 143.74 122.4 
M 81.29 157.23 80.65 156.87 79.8 156.9 75.83 158.91 
M 141.74 113.67 144.1 115.59 148.18 118.38 149.32 119.77 149.9 121.35 
M 146.98 134.05 146 133.04 144.32 131.81 
M 141.7 152.48 141.04 153.22 139.61 153.53 138.73 153.22 138.65 152.73 138.82 152.24 
M 114.42 156.8 115.54 158.85 116.56 161.63 118.93 163.74 
M 105.05 148.94 109.28 150.96 110.55 152.18 111 152.97 111.25 153.85 111.6 155.63 111.71 157.42 
M 94.56 158.7 93.83 157.88 91.11 156.27 89.41 154.92 87.76 154.33 86.11 154.64 
M 100.4 173.63 100.03 172.78 99.38 172.21 97.17 171.56 96.74 171.29 
M 98.37 137.6 96.18 136.37 95.43 135.63 94.98 134.53 95.12 133.21 
M 151.21 155.04 153.23 153.72 155.48 153.49 
M 93.26 168.52 94.28 167.79 96.51 165.73 97.02 165.03 97.69 163.54 
M 149.26 168.94 145.93 169.96 144.36 170.16 143.74 169.98 143.18 169.59 142.07 168.49 139.67 166.55 
M 138.35 173.55 138.23 170.39 137.72 168.17 137.18 167.32 135.97 166.44 
M 130.5 137.54 129.14 135.95 126.25 134.22 
M 116.27 119.85 114.66 118.37 114.28 117.47 113.79 116.91 
M 87.2 168.85 85.55 170.38 84.31 172.41 83.23 174.64 81.59 179.38 82.43 174.4 83.39 170.65 84.57 168.14 85.43 167.08 
M 76.37 178.12 75.13 180.37 73.6 182.56 71.72 184.49 69.55 186.07 67.19 187.28 64.75 188.21 62.25 188.9 54.76 190.17 49.71 190.73 47.13 190.73 44.55 190.42 42.04 189.67 39.76 188.39 37.79 186.68 36.3 184.54 35.37 182.11 35.02 179.56 35.2 177.01 35.84 174.54 36.85 172.22 39.44 167.91 42.27 163.77 39.53 167.97 37.12 172.35 36.21 174.66 35.67 177.08 35.6 179.53 36.02 181.93 36.97 184.17 38.43 186.09 40.31 187.59 42.44 188.69 44.77 189.28 47.18 189.48 49.62 189.38 54.51 188.65 59.41 187.66 61.81 187.12 64.12 186.39 66.33 185.45 68.4 184.28 70.23 182.84 71.79 181.12 73.05 179.14 74.15 176.95 
M 77.01 177.53 76.33 179.99 75.41 182.48 74.1 184.83 72.41 186.92 70.44 188.7 68.28 190.19 66.01 191.45 59.03 194.45 54.25 196.18 51.78 196.83 49.23 197.25 46.63 197.32 44.07 196.85 41.63 195.92 39.47 194.47 37.72 192.57 36.42 190.34 35.64 187.9 35.35 185.37 35.53 182.53 
M 35.81 180.73 37.56 173.01 36.49 177.91 35.94 181.44 
M 35.76 183.14 35.73 185.35 36.11 187.79 36.95 190.09 38.25 192.16 39.96 193.88 42.02 195.15 44.31 195.91 46.69 196.26 49.1 196.1 51.49 195.61 53.84 194.89 60.7 191.98 65.16 189.82 67.23 188.57 69.15 187.13 70.85 185.49 71.44 184.69 
M 74.53 177.15 74.58 176.9 
M 77.13 177.17 76.69 179.73 75.88 182.27 74.76 184.66 73.41 186.89 65.91 197.05 59.39 204.71 54.92 210.73 51.59 214.56 49.61 216.19 47.38 217.46 44.95 218.27 42.43 218.62 39.9 218.55 37.4 218.21 30 216.85 37.43 218.02 39.91 218.27 42.4 218.24 44.83 217.8 47.13 216.94 49.21 215.64 51.05 214.01 52.67 212.15 58.41 203.93 64.6 196.06 68.99 189.7 
M 74.63 176.91 74.64 176.8 
M 86.37 168 87.02 168.42 
M 82.7 166.47 82.82 167.52 83.08 167.16 83.51 166.92 
M 79.65 164.62 79.22 165.94 79.33 167.08 79.64 166.21 80.71 165.25 
M 76.58 163.09 75.78 164.99 75.84 166.64 76.2 165.27 77.74 163.63 
M 73.56 161.48 72.33 164.05 72.34 166.2 72.75 164.32 74.64 162.13 
M 70.63 159.69 68.89 163.1 68.85 165.76 69.31 163.38 71.77 160.36 
M 67.64 158.03 65.45 162.16 65.36 165.32 65.87 162.43 68.83 158.67 
M 64.76 156.19 62.01 161.22 61.86 164.87 62.43 161.49 65.83 157.06 
M 86.33 167.96 87.14 167.79 
M 82.84 168 83.23 167.52 83.52 167.92 
M 79.61 168.36 79.7 167.8 80.14 167.07 80.19 167.7 80.55 168.26 
M 76.47 168.89 76.52 167.7 77.04 166.62 77.01 167.59 77.56 168.72 
M 73.36 169.35 73.33 167.59 73.95 166.17 73.82 167.49 74.53 169.18 
M 70.27 169.74 70.15 167.48 70.86 165.73 70.64 167.38 71.47 169.59 
M 67.19 170.16 66.96 167.38 67.77 165.28 67.45 167.27 68.4 169.98 
M 64.1 170.58 63.78 167.27 64.68 164.83 64.27 167.17 65.34 170.43 
M 61.02 170.97 60.59 167.17 61.59 164.39 61.08 167.06 62.25 170.81 
M 57.94 171.41 57.4 167.06 58.5 163.94 57.9 166.96 59.19 171.24 
M 54.92 172.26 54.22 166.95 55.41 163.49 54.71 166.85 56.16 171.8 
M 61.92 175.3 70.65 176.62 75.59 177.13 82.04 177.17 
M 82.31 177.15 85.85 176.93 91.18 176.26 102.15 174.4 
M 91.61 175.84 91.89 176.15 
M 84.67 176.08 83.92 175.79 83.72 174.77 
M 98.74 174.82 98.46 174.4 
M 80.22 175.76 78.78 177.21 
M 151.18 103.88 159.4 112.1 
M 157.57 103.58 164.21 110.22 
M 163.48 102.8 169.99 109.32 
M 169.14 101.77 176.1 108.73 
M 174.34 100.28 181.47 107.42 
M 179.57 98.82 189.33 108.59 
M 184.85 97.41 191.43 104 
M 190.65 96.52 197.45 103.33 
M 196.84 96.03 205.73 104.92 
M 203.68 96.18 210.77 103.27 
M 210.87 96.68 216.85 102.66 
M 218.2 97.32 227.65 106.77 
M 225.76 98.19 232.52 104.95 
M 233.92 99.66 241.04 106.78 
M 243.03 102.08 251.16 110.21 
M 252.59 104.95 259.33 111.7 
M 262.19 107.87 267.46 113.13 
M 271.57 110.56 278.75 117.73 
M 280.32 112.61 286.35 118.65 
M 288.41 114.02 295.89 121.49 
M 296.02 114.94 303.02 121.94 
M 303.44 115.67 310.66 122.89 
M 310.9 116.44 318.46 124 
M 318.46 117.31 325.27 124.12 
M 326.12 118.28 334.35 126.52 
M 333.81 119.29 341.77 127.24 
M 341.46 120.24 350.3 129.09 
M 349.06 121.16 358.74 130.84 
M 356.65 122.06 364.13 129.53 
M 364.3 123.02 371.61 130.33 
M 372.18 124.21 378.25 130.28 
M 382.96 128.31 386.78 132.12 
M 218.03 291.39 213.74 297.7 
M 218.03 291.39 218.54 297.7 
M 215.27 295.6 218.27 295.6 
M 221.3 293.5 220.04 297.7 
M 220.76 295.3 221.33 294.39 222.11 293.8 222.8 293.5 223.7 293.5 
M 228.5 293.5 227.06 298.3 226.49 299.2 225.41 299.8 224.51 299.8 224 299.5 
M 228.23 294.39 227.81 293.8 227.3 293.5 226.4 293.5 225.71 293.8 224.93 294.39 224.36 295.3 224.18 295.89 224.21 296.8 224.63 297.39 225.14 297.7 226.04 297.7 226.73 297.39 227.51 296.8 
M 232.1 293.5 231.41 293.8 230.63 294.39 230.06 295.3 229.88 295.89 229.91 296.8 230.33 297.39 230.84 297.7 231.74 297.7 232.43 297.39 233.21 296.8 233.78 295.89 233.96 295.3 233.93 294.39 233.51 293.8 233 293.5 232.1 293.5 
M 236.6 293.5 234.71 299.8 
M 236.33 294.39 237.11 293.8 237.8 293.5 238.7 293.5 239.21 293.8 239.63 294.39 239.66 295.3 239.48 295.89 238.91 296.8 238.13 297.39 237.44 297.7 236.54 297.7 236.03 297.39 235.61 296.8 
M 245.6 293.5 244.34 297.7 
M 245.33 294.39 244.91 293.8 244.4 293.5 243.5 293.5 242.81 293.8 242.03 294.39 241.46 295.3 241.28 295.89 241.31 296.8 241.73 297.39 242.24 297.7 243.14 297.7 243.83 297.39 244.61 296.8 
M 248.63 291.39 246.74 297.7 
M 247.73 294.39 248.51 293.8 249.2 293.5 250.1 293.5 250.61 293.8 251.03 294.39 251.06 295.3 250.88 295.89 250.31 296.8 249.53 297.39 248.84 297.7 247.94 297.7 247.43 297.39 247.01 296.8 
M 254.03 291.39 254.24 291.7 254.63 291.39 254.42 291.1 254.03 291.39 
M 253.7 293.5 252.44 297.7 
M 256.1 293.5 255.2 296.5 255.23 297.39 255.74 297.7 256.64 297.7 257.33 297.39 258.5 296.5 
M 259.39 293.5 258.14 297.7 
M 264.52 294.39 264.4 293.8 263.6 293.5 262.7 293.5 261.71 293.8 261.23 294.39 261.35 295 261.86 295.3 263.27 295.6 263.77 295.89 263.81 296.8 263.33 297.39 262.34 297.7 261.44 297.7 260.63 297.39 260.51 296.8 
M 272.93 294.39 272.51 293.8 272 293.5 271.1 293.5 270.4 293.8 269.63 294.39 269.06 295.3 268.88 295.89 268.9 296.8 269.33 297.39 269.83 297.7 270.74 297.7 271.43 297.39 272.2 296.8 
M 278.6 293.5 277.33 297.7 
M 278.33 294.39 277.9 293.8 277.39 293.5 276.5 293.5 275.81 293.8 275.02 294.39 274.45 295.3 274.27 295.89 274.31 296.8 274.73 297.39 275.24 297.7 276.14 297.7 276.83 297.39 277.61 296.8 
M 281 293.5 279.74 297.7 
M 280.64 294.7 281.81 293.8 282.5 293.5 283.39 293.5 283.9 293.8 283.94 294.7 283.04 297.7 
M 283.94 294.7 285.11 293.8 285.8 293.5 286.7 293.5 287.2 293.8 287.24 294.7 286.33 297.7 
M 290.93 291.39 289.39 296.5 289.43 297.39 289.94 297.7 290.54 297.7 
M 289.39 293.5 291.5 293.5 
M 293.6 293.5 292.7 296.5 292.73 297.39 293.24 297.7 294.14 297.7 294.83 297.39 296 296.5 
M 296.89 293.5 295.64 297.7 
M 302.02 294.39 301.9 293.8 301.1 293.5 300.2 293.5 299.2 293.8 298.73 294.39 298.85 295 299.36 295.3 300.77 295.6 301.27 295.89 301.31 296.8 300.83 297.39 299.83 297.7 298.94 297.7 298.13 297.39 298.01 296.8 
M 303.62 297.1 303.23 297.39 303.44 297.7 303.83 297.39 303.62 297.1 
"/></svg>
