<svg xmlns="http://www.w3.org/2000/svg" width="520" height="320"><rect x="0" y="0" width="520" height="320" fill="floralwhite"/><rect x="10" y="10" width="500" height="300" stroke="black" stroke-width="1" fill="none"/><path stroke="black" stroke-width="1" fill="none" stroke-linecap="round" stroke-linejoin="round" d="
M 127.84 113.25 133.62 111.89 145.07 109.59 156.57 107.58 168.13 105.96 179.75 104.87 191.41 104.24 203.08 103.95 226.42 103.84 238.08 103.25 249.76 103.23 261.41 103.92 284.73 104.99 296.37 105.9 331.24 109.17 342.76 111 388.38 120.98 399.75 123.64 411.07 126.47 432.87 132.46 
M 432.87 154.51 387.14 164.49 353 172.29 318.75 179.57 295.87 184.21 284.32 185.94 261.05 187.74 249.39 188.4 226.05 188.66 214.39 188.09 202.81 186.58 191.29 184.73 179.81 182.57 156.93 177.94 133.99 173.59 122.57 171.17 115.63 169.49 
M 152.27 126.96 154.11 126.98 156.16 127.28 
M 172.45 129.67 176.6 130.4 
M 181.03 131.41 187.59 132.85 202.35 135.43 
M 206.4 135.89 214.66 136.84 
M 222.23 136.72 225.5 136.09 
M 228.85 135.49 230.6 135.23 232.54 135.17 
M 236.49 135.11 250.11 134.91 254.34 135.24 263.59 136.69 267.83 136.98 271.61 136.81 278.74 136.02 285.53 134.86 289.14 134.47 293.36 134.69 300.54 135.86 
M 305.15 136.45 307.36 136.64 311.37 136.63 320.94 136.11 
M 324.52 135.71 327.81 135.06 
M 331.02 134.34 332.65 134.02 336.1 133.76 341.58 133.73 
M 345.41 133.96 355.66 135.41 359.61 135.81 376.8 136.98 
M 380.5 137.13 386.32 137.64 390.65 138.41 404.25 141.45 408.48 142.18 412.43 142.61 416.2 142.84 419.58 142.73 425.64 141.79 430.27 141.72 
M 127.85 113.25 127.84 113.26 
M 134.72 116.04 132.3 119.08 
M 153.85 171.53 155.31 173.31 
M 157.94 107.39 155.53 108.94 
M 152.28 110.87 149.02 112.82 
M 145.91 114.97 143.03 117.42 
M 140.34 120.1 137.77 122.95 
M 134.91 126.55 133.6 128.27 
M 144.18 145.45 146.87 149.13 
M 173.25 105.51 170.23 107.52 
M 158.22 115.89 154.96 117.82 
M 145.41 125.35 143.48 127.33 
M 152.41 141.75 155.2 145.68 
M 179.89 111.64 176.64 113.42 
M 170.24 117.14 165.98 120.53 164.41 121.53 
M 154.96 126.44 154.13 126.99 
M 158.61 134.76 160.72 138.13 
M 165.83 145.65 167.79 148.42 
M 179.55 121.02 177.78 121.78 174.55 123.63 173.11 124.73 
M 170.14 126.89 168.62 127.93 166.64 128.97 
M 175.66 143.7 177.94 147.15 
M 203.65 114.25 201.17 116.91 
M 189.35 125.41 185.88 127.01 
M 182.47 128.67 180.81 129.55 178.81 130.87 
M 188.33 145.81 189.07 146.94 
M 214.73 114.02 204.64 124.71 
M 199.07 129.35 195.94 131.3 
M 193.08 132.93 191.83 133.62 
M 198.7 144.34 199.44 145.43 
M 225.57 112.5 223.47 115.78 
M 221.29 118.94 220.17 120.46 217.72 123.28 211.35 129.9 
M 208.74 132.42 207.38 133.63 204.43 135.71 
M 207.05 139.81 209.07 142.78 
M 241.12 110.22 236.21 113.65 234.83 115.01 
M 232.2 117.82 225.96 124.96 224.86 126.5 
M 220.6 132.7 219.5 134.2 216.77 137.07 
M 219.75 141.36 221.3 143.78 
M 250.23 113.03 246.86 115.3 
M 243.82 117.83 242.38 119.17 238.59 123.58 
M 233.2 128.92 231.78 130.17 229.25 132.91 227.13 135.73 
M 233.34 145.11 233.48 145.32 
M 272.71 105.86 271.02 107.09 269.52 108.51 
M 263.52 114.14 261.87 115.39 260.01 116.39 
M 256.42 118.51 254.68 119.61 253.23 120.97 
M 247.81 126.67 246.49 128.1 242.29 132.02 
M 239.7 134.2 238.54 135.12 
M 242.93 141.93 244.74 144.78 
M 279.28 111.74 277.55 112.95 276.02 114.35 
M 273.06 117.24 268.6 121.49 260.55 127.7 
M 257.39 130.14 255.79 131.33 250.15 134.92 
M 254.9 142.34 256.62 144.99 
M 285.41 117.93 283.53 118.99 280.06 121.41 269.73 131.33 
M 266.81 134.07 265.34 135.42 263.64 136.7 
M 285.69 177.16 287.69 180.67 
M 298.51 119.84 288.93 125.03 287.21 126.24 
M 283.91 128.81 280.76 131.49 
M 277.19 134.61 275.2 136.42 
M 296.07 174.81 297.88 177.82 
M 318.2 116.82 316.63 118.14 313.22 120.57 309.49 122.72 307.5 123.68 
M 303.41 125.5 296.95 127.91 292.8 129.67 289.14 131.89 287.36 133.37 
M 307.52 172.96 309.01 175.22 
M 332.23 114.71 330.87 116.22 327.81 118.91 324.35 121.24 311.64 129 
M 300.02 134.73 298.2 135.49 
M 303.92 144.19 306.65 148.64 
M 317.98 168.8 320.54 172.5 
M 344.23 111.48 342.58 112.69 339.55 115.38 331.02 124.14 327.73 126.65 320.17 130.75 316.5 132.93 311.41 136.63 
M 328.1 164.53 333.87 172.9 
M 340.73 122.14 337.59 124.74 
M 334.53 127.44 331.47 130.14 
M 328.23 132.66 326.52 133.84 322.85 135.96 
M 325.65 141.27 332.63 152.64 
M 337.99 160.34 345.53 170.79 
M 350.42 123.17 348.6 124.19 343.47 127.57 
M 339.97 129.74 332.7 134.01 
M 336.77 140.33 346.01 153.82 
M 347.79 156.2 358.76 171.01 
M 365.51 123.98 363.6 124.89 351.59 129.69 347.8 131.49 343.5 133.77 
M 349.84 141.94 356.78 151.32 
M 359.37 154.74 369.51 168.56 
M 383.47 122.32 379.8 124.21 
M 376.17 126.14 374.32 127.07 366.33 130.17 355.72 135.42 
M 359.54 139.98 361.88 142.85 
M 364.19 145.71 366.5 148.59 
M 371.17 154.44 380.61 165.98 
M 386.33 127.91 384.39 128.71 380.99 130.76 377.44 132.64 367.21 136.25 
M 373.41 143.06 378.62 148.83 
M 381.41 151.91 391.95 163.44 
M 397.71 131.01 387.03 133.6 383.23 135.07 378.71 137.06 
M 389.07 147.15 403.31 160.98 
M 418.02 132.85 416.34 133.72 412.42 134.94 390.72 138.43 
M 403.32 149.28 414.5 158.59 
M 136.05 138.89 135.49 136.96 135.16 136.77 
M 399.45 151.92 399.37 151.3 399.94 150.02 399.72 146.89 400.01 146.04 
M 285.24 141.4 285.03 142.11 284.83 144.56 284.21 146.9 
M 363.65 123.99 364.05 124.91 364.91 125.98 365.2 126.69 365.15 127.56 364.56 128 
M 294.78 181.8 293.06 177.52 292.84 176.51 292.94 175.52 
M 303.76 110.95 304.04 112 305.89 114.86 306.15 115.58 306.1 117.26 
M 334.38 167.71 334.02 165.77 332.66 162.6 
M 169.57 140.48 173.26 137.85 174.49 136.72 176.34 136.48 
M 427.61 149.16 427.72 147.75 427.99 147.19 428.58 146.64 431.49 144.95 432.87 143.82 
M 323.82 123.76 323.72 125.06 322.76 127.47 322.92 128.05 
M 158.63 109.07 160.49 108.15 161.77 106.86 
M 242.88 110.49 241.58 107.57 241.23 103.24 
M 305.78 176.8 306.4 175.93 306.78 175 306.78 173.15 
M 321.37 128.34 321.98 128.66 322.5 128.67 324.71 127.78 326.27 127.53 
M 181.02 130.16 183.02 131.99 183.63 132.17 185.36 132.28 
M 351.18 144.59 349.94 144.2 348.83 143.53 346.42 142.44 344.59 141.24 342.07 139.1 340.84 138.53 339.88 138.34 
M 389.56 124.61 389.97 122.98 390.58 121.5 
M 216.72 127.66 219.11 130.71 220.84 132.55 221.53 132.8 223.48 132.63 
M 296.12 184.16 295.07 180.66 
M 122.32 171.06 125.96 163.77 126.72 161.52 
M 422.75 135.11 423.49 134.1 425.06 133.09 425.76 132.21 
M 396.83 162.37 395.9 161.98 392.6 161.31 390.74 160.55 389.61 158.97 389.24 157.74 389.14 156.46 389.41 155.15 
M 224.35 127.14 225.65 127.63 227.23 127.78 227.93 127.58 229.75 126.41 231.97 126.4 
M 366.21 121.66 366.12 122.66 366.64 123.26 367.31 123.52 368.63 123.25 
M 318.28 141.85 318.94 141.48 321.87 141.27 323.12 141.6 324.36 142.18 
M 200.99 103.96 202.36 101.38 203.13 98.74 204.17 96.3 204.62 93.58 206.74 88.96 207.33 86.04 208.51 82.41 210.18 79.76 211.46 76.11 214.15 69.36 215.98 66.59 218.79 63.46 221.28 61.3 223.79 58.34 225.62 55.62 227.94 52.92 229.06 51.39 230.68 48.74 233.91 45.46 236.62 43.42 238.52 42.39 241.11 40.31 244.98 39.01 250.29 36.51 252.78 34 255.9 31.34 257.64 30.22 259.12 37.35 259.25 40.01 258.68 41.75 258 43.14 258.7 46.33 259.05 49.16 260.27 52.2 264.88 59.96 269.32 68.05 271.13 69.86 273.12 71.32 275.04 73.13 276.98 75.78 277.38 77.99 279.03 80.88 281.75 84.63 283.3 87.18 289.4 93.3 290.73 95.06 292.86 97.35 294.99 98.52 302.14 103.04 307.9 107.01 
M 310.83 107.3 310.83 107.3 
M 205.86 103.95 207.31 101.93 208.07 99.42 208.95 93.94 210.28 91.04 211.22 87.81 212.69 84.96 213.89 82.1 215.89 75.54 217.7 73.65 219.04 71.66 219.27 69.89 220.22 67.77 224.48 63.04 225.74 60.54 228.03 57.98 231.19 55.42 232.66 53.78 233.5 51.38 240.05 46.53 242.79 45.23 244.83 43.14 248.22 41.92 251.18 41.21 253.96 39.63 255.71 37.61 
M 210.72 103.94 212.13 101.95 213.2 96.46 214.43 93.32 215.3 90.05 216.29 87.3 217.61 84.82 218.68 82.04 222.01 72.14 224.94 67.23 227.32 64.4 228.78 61.23 231.43 59.66 233.73 58.08 237.66 54.48 
M 215.58 103.93 216.9 101.51 217.85 98.58 219.27 93.05 219.56 90.29 223.28 78.84 224.54 76.77 226.43 74.49 227.95 71.63 228.08 68.75 229.79 66.12 233.69 61.17 237.11 59.44 241.63 55.33 245.1 53.37 247.94 52.8 249.66 51.33 251.66 48.35 254.64 47.63 256.86 46.14 
M 220.45 103.92 221.87 101.39 223.51 93.69 226.35 84.06 227.9 81.81 228.51 79.46 231.09 74.44 231.96 71.64 
M 225.31 103.9 226.28 101.41 227.18 96.21 228.66 90.12 229.99 87.1 231.79 84.72 232.29 82.04 234.36 77.16 235.14 74.05 236.58 72.07 238.03 69.42 241.19 67.3 243.7 65.85 246.52 63.26 249.43 61.06 252.31 58.31 254.67 56.59 257.03 55.39 
M 230.16 103.64 231.77 98.69 232.44 96.34 233.03 93.29 234.18 90.03 234.95 87.19 235.17 84.7 236.27 82.18 237.86 76.94 242 71.71 
M 235.02 103.39 236.03 101.28 237.81 96.24 238.69 93.12 238.95 90.66 241.72 82.62 245.02 76.96 246.63 73.89 250.49 70.27 
M 239.88 103.24 241.06 101.51 241.9 98.88 242.77 95.63 243.3 92.77 244.96 88.39 245.38 85.5 247.12 83.07 249.16 79.49 251.58 76.68 254.97 73.57 
M 244.74 103.24 245.78 101.36 246.57 98.7 247.73 96.05 248.39 93.05 249.3 90.84 249.73 87.68 249.7 85.7 252.13 81.88 254.42 81.22 256.64 79.53 
M 249.61 103.23 250.47 101.38 252.74 94.79 256.05 83.49 258.43 82.31 260.65 81.71 
M 254.46 103.51 256.08 101.21 256.87 98.06 258.81 92.18 259.36 89.67 260.47 87.5 262.42 84.56 266.76 81.09 269.2 79.95 272.38 78.81 275.3 76.73 
M 259.32 103.8 261.22 101.39 262.39 95.95 263.41 93.61 267.2 88.68 268.7 86.04 270.71 84.73 272.98 82.3 275.7 80.87 
M 264.17 104.06 265.95 102.36 266.43 100.01 268.31 94.42 269.86 91.7 
M 269.03 104.3 270.73 102.77 271.18 99.82 274.25 95.31 
M 273.89 104.53 275.55 102.83 276.89 100.16 278.97 98.03 280.77 95.6 
M 278.75 104.74 280.55 103.57 281.46 101.1 282.99 98.65 284.6 97.34 287.23 96.06 
M 283.61 104.94 286.11 102.1 287.9 100.79 
M 288.46 105.23 289.67 104.6 290.91 102.77 
M 293.31 105.64 293.61 105.67 
M 295.48 105.83 298.23 103.86 
M 298.15 106.05 298.16 106.05 
M 302.99 106.52 303 106.52 
M 307.83 107 307.83 107 
M 127.87 151.97 133.65 151.68 145.55 150.43 151.36 149.26 154.3 149.03 157.26 149.05 163.19 148.52 166 148.53 168.97 148.34 174.86 147.76 177.79 147.22 180.9 146.94 187.31 147.11 195.87 146.33 198.32 145.65 201.17 145.09 207.53 145.94 210.8 146.18 213.75 146.14 219.14 145.52 224.7 145.62 233.5 145.32 239.78 145.52 242.76 145.17 245.98 144.57 250.89 144.38 254.06 144.49 260.73 145.6 263.82 145.48 266.27 145.11 271.58 145.87 274.23 146.92 277.09 147.45 280.1 147.41 285.52 146.76 291.4 147.72 294.93 148.94 298.43 149.34 301.43 149.28 303.61 148.62 306.5 148.62 309.35 148.93 313.09 150.25 319.9 151.53 322.51 151.44 324.7 151.83 329.66 151.92 333.4 152.83 336.23 153.28 339.02 154.04 342.57 154.16 345.54 153.91 348.05 153.4 351.25 154.74 309.14 172.54 306.41 173.25 303.45 173.75 300.17 173.92 286.08 177.09 283.14 177.61 276.45 177.83 274.08 178.91 271.91 180.19 269.33 181.06 266.47 181.65 263.18 181.77 259.61 181.19 256.65 181.23 248.82 182.37 243.22 182.77 236.74 182.27 230.72 182.24 227.92 182.42 224.55 182.06 218.84 182.28 209.86 181.06 204.69 181.05 198.47 180 193.76 180.45 188.02 179.88 184.82 179.26 177.49 178.48 135.29 166.08 132.69 164.94 130.17 163.16 127.52 162.08 125.26 160.46 
M 133.76 153.97 145.66 153.79 151.46 153.05 157.69 153.15 160.58 153.5 166.8 153.43 172.05 153.86 174.93 153.63 184.5 154.16 187.66 153.83 190.48 153.76 193.36 153.88 196.26 154.52 205.07 154.93 207.66 155.58 210.39 155.62 213.22 155.93 216.38 156.99 223.05 157.23 226.11 157.72 228.76 157.86 230.73 157.32 234.04 158.18 
M 130.64 155.97 142.75 157.02 145.61 157.18 151.36 157.05 154.43 157.36 157.63 157.88 160.76 158.61 174.69 159.99 181 161.32 186.8 162.02 193.38 162.41 198.68 164.12 204.43 164.96 207.42 165.61 212.91 166.11 215.74 167.48 222.2 170.09 225.04 170.7 229.58 170.94 232.37 171.35 235.42 172.82 238.05 174.32 241.2 175.57 
M 127.44 157.35 133.52 158.46 139.45 159.78 145.62 160.83 148.12 160.83 153.9 161.91 160.45 163.9 166.4 165.27 177.73 168.19 180.78 169.6 183.71 170.24 186.46 171.28 189.25 171.85 192.24 173.15 197.77 175.22 203.45 176.72 
M 133.09 160.91 136.05 161.78 139.27 163.15 142.49 164.22 148.2 165.76 151.13 166.97 153.51 167.53 159.79 170.61 
M 176.59 181.94 179.35 185.07 181.73 188.54 184.5 191.41 186.78 193.21 188.4 195.17 191.46 197.85 193.63 201.73 197.95 206.09 199.09 207.86 201.68 213.72 202.83 217.95 205.57 220.17 208.2 220.94 213 224.65 208.22 233.44 208.78 237.92 208.19 241.24 206.33 243.3 203.63 244.57 201.79 246.71 199.49 248.38 198.8 251.67 198.56 255.22 198.06 258.5 196.64 260.86 194.42 262.76 191.62 264.03 187.46 267.99 184.19 269.13 175.33 279.77 175.91 276.69 174.9 270.23 173.92 266.45 174.25 264.37 174.16 261.92 173.5 257.89 173.52 251.46 172.23 248.76 172.68 244.2 171.38 239.28 171.6 235.72 170.74 229.25 169.39 225.96 169.41 222.8 169.15 219.76 169.49 216.77 169.1 214.22 168.88 208.85 167.99 206.2 167.05 199.63 166.3 196.02 165.8 189.6 165.75 186.26 165.41 183.04 164.38 179.48 
M 174.68 181.56 177.25 184.74 179.1 188.16 181.58 191.61 184.28 194.41 185.99 196.43 187.31 199.14 191.17 204.83 193.83 207.67 195.05 208.48 
M 172.77 181.17 175.17 184.45 178.52 191.19 180.97 194.11 182.68 197.3 186.05 204.56 189.54 210.95 190.41 211.94 
M 170.87 180.79 173.1 184.23 175.41 190.71 176.96 193.4 178.45 196.69 179.97 199.42 180.75 202.79 181.72 205.59 183.38 208.54 185.58 211.61 186.26 213.81 187.62 216.65 189.33 218.87 190.37 222.12 191.63 224.55 191.42 234.24 192.6 237.2 196 238.92 198.06 242.21 197.84 244 199.08 247.26 200.02 251.01 
M 168.96 180.41 170.82 183.99 172.32 190.27 174.42 196.15 175.82 199.04 177.05 202.92 177.9 206.39 178.11 209.15 181.4 214.8 182.71 217.67 183.63 220.59 183.86 223.2 184.93 225.78 185.62 228.8 184.62 231.98 184.37 234.44 185.47 237.29 
M 167.05 180.02 168.43 183.64 169.03 186.76 169.3 189.83 170.92 195.98 172.03 199.19 173.37 205.43 173.27 208.73 174.3 212.64 174.83 215.83 175.75 217.88 176.43 222.49 177.18 225.52 178.54 229.86 178.8 232.68 
M 347.44 173.47 353.27 178.02 357.1 183.52 356.28 193.29 355.63 196.35 353.82 198.65 351.68 200.56 349.05 201.64 347.66 204.3 344.81 205.51 341.86 206.38 338.85 206.91 335.55 206.97 332.6 207.27 326.67 205.93 324.52 205.08 321.41 204.8 317.5 207.05 314.13 206.34 310.38 205.26 307.76 204.75 303.04 202.07 295.83 195.17 291.79 191.67 286.42 185.76 
M 342.68 174.48 346.69 177.9 349.57 180.74 352.06 183.56 354.19 187.07 
M 337.93 175.49 346.04 184.3 348.76 187.85 350.86 191.66 
M 333.17 176.51 336.54 181.12 339.77 184.52 341.98 186.57 343.6 189.43 345.66 192.08 351.56 199.01 
M 328.42 177.53 331.58 181.69 334.31 184.6 336.98 187.81 339.18 190.7 340.69 193.08 
M 323.66 178.56 328.74 185.14 333.82 190.65 335.7 194.07 337.03 196.86 
M 318.9 179.54 321.55 183.75 323.75 186.32 326.61 189.31 329 192.49 331.29 194.9 333.55 198.35 334.28 201.27 
M 314.14 180.51 318.77 188.23 321.71 190.95 326.24 197.18 328.26 199.32 
M 309.37 181.49 317.02 192.26 320.29 195.51 322.38 198.43 
M 304.62 182.5 307.67 186.33 309.63 189.57 311.86 192.55 313.71 196.14 
M 299.86 183.5 302.91 187.82 305.33 190.84 307.54 192.58 309.23 195.54 311.17 198.49 
M 295.07 184.34 298.34 188.76 301.06 191.35 304.08 193.07 305.77 196.4 
M 290.27 185.13 294.12 189.98 297.64 192.6 299.89 195.08 301.71 198.45 
M 432.87 132.46 435.76 131 440.53 127.37 443.16 125 447.66 120.58 449.85 118.78 452.29 116.35 454.94 114.57 456.8 112.52 458.66 111.27 463.03 109.02 465.38 109.02 469.9 108.61 474.15 108.7 477.43 107.86 483.1 105.39 486.75 104.54 488.77 105.07 490 108.09 489.81 111.18 487.91 113.35 485.7 115.21 484.97 118.07 485.25 121.68 485.07 124.86 484.51 127.67 483.24 130.15 481.37 132.36 479.44 134.56 476.51 135.54 474.08 137.02 471.65 138.12 468.87 138.76 466.08 139.99 461.92 144.08 459.43 145.68 456.07 146.06 452.41 146.15 450.89 148.74 454.27 150.86 456.72 151.25 462.3 153.26 465.17 154.67 468.16 156.43 471.96 160.23 474.25 160.95 477.34 161.49 481.52 166.47 482.26 168.17 484.22 173.8 485.96 176.7 487.06 179.14 489.01 184.78 488.81 188.54 486.42 194.05 484.05 193.91 482.67 193.59 479.32 193.31 477.01 192.12 469.31 189.35 466.6 187.22 460.7 183.52 457.94 181.47 455.2 180.17 453.05 178.07 451.39 175.95 449.76 174.4 447.78 171.97 442.34 166.17 437.54 161.52 432.87 154.51 
M 438.31 130.55 440.97 129.03 446.07 124.63 448.98 122.37 451.23 120.92 453.38 118.91 456.34 117.27 458.88 115.64 460.95 115.29 463.93 113.57 
M 438.86 131.79 441.61 130.34 443.95 128.55 449.5 125.45 452.31 123.6 455.18 122.6 457.18 120.45 459.45 119.17 461.23 119.46 464.51 117.99 469.63 114.73 
M 439.45 133.19 442.5 131.87 450.17 128.1 452.92 126.56 456.16 125.05 458.1 123.47 460.29 123.13 463.08 123.07 469.01 121.17 471.92 119.96 476.8 117.09 480.35 116.84 
M 443.16 133.91 446.1 132.86 448.32 131.28 451.12 130.56 453.91 128.96 456.77 127.89 459.13 126.58 461.22 126.1 464.52 127.02 471.43 125.66 474.91 124.28 
M 443.42 135.75 446.8 134.92 449.24 133.24 455.19 131.56 
M 432.87 138.7 436.65 138.69 439.79 138.01 443.59 137.67 446.99 137.09 449.97 135.6 452.84 134.72 455.91 134.6 459.42 134.23 
M 432.87 139.74 436.75 140.1 440.03 139.87 450.01 138.51 453.78 138.13 457.04 137.38 
M 436.79 141.48 447.01 140.73 453.76 141.1 460.23 141.06 463.12 140.04 
M 440.09 142.8 443.19 142.8 
M 432.87 142.86 436.9 144.87 442.93 144.95 445.82 145.61 
M 432.87 143.9 436.77 146.53 439.57 146.96 
M 442.7 148.71 445.8 149.1 
M 443.14 150.56 446.04 151.54 448.95 153.71 452.77 154.27 456.3 153.7 460.2 155.09 
M 440.17 151.74 446.09 153.84 448.26 155.75 451.77 156.66 454.72 156.74 463.28 157.96 
M 436.75 151.56 439.79 153.3 443.03 154.52 445.77 155.89 447.74 157.72 450.35 158.67 453.36 158.83 462.24 161.04 465.48 163.15 471.17 163.09 473.58 162.44 
M 442.87 156.03 445.39 157.41 447.31 159.58 449.97 160.73 453.24 161.61 457.15 163.78 
M 439.35 155.67 442.42 157.45 447.19 161.33 450.24 162.83 459.45 167.88 465.62 169.36 469.84 170.02 472.23 169.46 474.69 171.19 476.74 172 478.94 172.13 
M 439.1 157.07 446.86 163.06 455.62 169.33 458.63 170.62 464.39 172.76 467.38 173.37 
M 438.65 158.49 441.15 160.75 443.8 162.55 449.6 167.78 452.33 169.75 454.43 171.96 457.13 173.11 459.88 174.97 463.47 175.69 465.64 176.75 467.36 178.67 469.46 180.53 471.96 182.2 475.35 183.06 478.14 182.34 482.63 182.81 
M 435.71 157.08 438.06 159.94 440.57 162.37 442.98 164.33 445.75 167.02 448.87 169.65 451.01 172.19 453.67 173.71 455.46 176.06 457.79 177.78 460.4 178.92 463.14 180.58 466 181.73 468.42 184.23 470.98 185.15 473.33 186.64 478.09 186.82 480.86 187.77 484.71 187.71 
M 384.05 119.99 387.48 116.45 389.4 114.88 391.76 113.76 397 112.02 401.74 109.79 404.29 108.86 409.92 107.51 413.24 107.58 416.87 109.47 419.95 112.82 421.39 116.5 420.78 119.53 418.6 121.47 413.4 123.24 408.46 125.78 
M 387.31 120.52 389.4 118.77 391.76 117.65 397 115.91 401.74 113.68 404.29 112.75 408.48 111.7 
M 43.99 128.05 45.23 127.49 55.11 124.26 59.73 123.02 70.6 120.54 83.25 117.04 89.7 115.55 96.31 114.24 102.98 113.33 115.3 112.29 120.63 112.3 124.97 112.6 127.65 113.04 131.17 116.98 132.99 123.59 133.6 126.82 133.61 129.93 133.12 132.93 130.96 138.67 129.44 141.45 128.64 144.38 128.53 147.46 128.02 150.45 127.72 153.49 126.19 156.26 124.91 162.2 123.41 164.97 121.23 167.61 115.47 169.54 104.89 169.59 96.85 169.23 89.84 168.11 83.38 166.33 76.99 164.13 71.18 161.83 66.1 159.51 61.23 156.84 57.09 154.07 54.1 151.4 52.13 149.17 
M 111.59 130.09 110.43 132.54 108.57 134.78 107.15 136.94 
M 73.01 152.4 68.15 150.83 63.85 148.98 
M 48.24 144.88 45.78 141.14 43.26 136.89 39.02 130.66 39.56 128.17 41.59 127.07 43.94 127.96 45.18 130.18 46.26 132.45 49.55 142.02 52.43 149 
M 51.68 149.63 43.21 144.03 37.36 139.8 31.05 135.67 30 133.51 30.95 131.27 33.32 130.52 35.45 131.74 40.9 136.84 45.75 142.32 52.31 148.85 
M 74.31 154.21 70.56 148.97 68.73 142.8 68.99 136.37 71.33 130.37 75.5 125.46 81.03 122.16 87.33 120.84 93.72 121.63 99.5 124.46 104.06 129.02 106.89 134.8 107.68 141.19 106.36 147.49 103.06 153.02 98.15 157.19 92.15 159.53 85.72 159.79 79.55 157.96 74.31 154.21 
M 100.87 131.29 103.14 135.92 103.77 141.03 102.72 146.07 100.08 150.5 96.15 153.83 91.35 155.7 86.2 155.91 81.27 154.44 77.07 151.45 
M 81.88 145.19 80.38 143.09 79.64 140.62 79.75 138.05 80.69 135.65 82.35 133.68 84.56 132.36 87.09 131.84 89.64 132.15 91.96 133.29 93.78 135.11 94.91 137.42 95.23 139.98 94.7 142.5 93.38 144.71 91.41 146.37 89.01 147.31 86.44 147.42 83.97 146.68 81.88 145.19 
M 81.81 144.34 84.24 146.76 
M 80.68 140.58 87.48 147.37 
M 82.91 140.18 89.75 147.02 
M 82.93 137.58 91.59 146.23 
M 84.99 137.01 93.01 145.02 
M 87.33 136.72 94.1 143.49 
M 89.3 136.06 94.88 141.64 
M 88.58 132.72 95.14 139.28 
M 92.69 134.21 93.95 135.46 
M 46.71 133.7 47.73 134.71 
M 46.07 127.21 50.48 131.62 
M 50.46 125.77 55.03 130.34 
M 54.87 124.34 58.88 128.35 
M 59.46 123.1 64.73 128.37 
M 64.23 122.03 69.52 127.33 
M 68.96 120.93 74.58 126.54 
M 73.58 119.71 77.16 123.29 
M 78.14 118.44 81.72 122.01 
M 82.73 117.19 86.54 121 
M 87.44 116.07 91.56 120.18 
M 92.25 115.04 95.78 118.57 
M 97.17 114.12 102.94 119.89 
M 102.3 113.42 105.28 116.39 
M 107.59 112.87 111.21 116.5 
M 113 112.45 117.23 116.67 
M 118.69 112.3 123.84 117.45 
M 124.81 112.59 129.2 116.97 
M 109.05 159.06 110.32 158.7 111.74 158.92 
M 62.5 157.53 62.89 156.22 66.41 150.25 
M 121.39 143.16 123.56 144.23 125.58 144.46 126.21 144.37 126.55 144.24 126.79 143.92 126.96 142.33 
M 108.28 138.74 110.28 137.41 111.25 136.45 113.04 134.07 115.15 130.17 115.65 129.6 116.51 129.06 
M 66.6 139.07 67.26 139.84 68.82 140.58 
M 114.39 130.8 114.85 130.1 115.86 129.19 119.3 127.77 
M 86.63 161.23 89.06 160.63 89.83 160.7 90.82 161.1 
M 59.09 155.41 60.57 154.7 61.16 154.21 62.98 151.35 
M 107.93 114.41 108.49 112.79 
M 45.96 130.21 48.74 130.81 49.63 131.15 50.28 131.09 
M 105.62 123.34 105.62 124.78 105.87 125.57 
M 69.42 145.43 69.51 145.42 
M 107.09 131.93 109.44 129.29 109.64 128.65 109.77 126.78 
M 103.26 117.09 104.93 116.54 106.54 115.55 107.77 114.1 108.32 112.8 
M 92.62 166.96 91.52 167.17 90.94 167.04 90.77 166.85 90.73 166.24 91.12 164.54 
M 116.76 165.07 119.89 163.79 120.86 163.17 124.5 159.18 125.73 158.25 
M 78.04 156.88 78.1 157.04 
M 103.06 114.63 103.11 113.85 103.36 113.29 
M 114.28 131.37 115.22 129.93 115.72 129.43 119.2 127.81 
M 114.94 128.7 116.84 128.17 117.99 128.13 119.4 127.64 
M 100.74 156.4 100.12 157.48 99.94 159.51 99.69 160.27 97.41 164.3 
M 55.71 150.59 55.56 147.78 55.14 147.43 54.57 147.39 
M 61.8 157.15 62.89 155.18 
M 65.13 139.68 66.29 140.73 68.79 141.29 
M 69.3 126.18 71.27 124.62 71.85 122.23 71.94 120.88 
M 104.07 169.15 102.86 166.98 101.63 166.52 
M 65.06 139.11 66.25 140.39 66.87 140.76 68.79 141.2 
M 72.03 120.56 72.1 120.12 
M 112.05 150.08 111.85 151.32 112.47 151.79 
M 100.77 122.83 101.95 122.84 104 123.39 104.9 124.01 105.38 124.7 
M 91.71 166.21 91.18 166.04 91.19 164.8 90.93 164.01 
M 53.96 124.63 54.34 124.88 
M 77.48 164.3 80 164.17 81.97 163.87 84.27 163.08 86.35 161.97 88.83 161.22 
M 113.68 163.42 114.4 163.09 117.55 162.51 119.63 161.71 121.52 160.27 123.68 158.25 125.95 156.8 
M 124.37 129.24 124.84 129.5 125.64 129.5 
M 59.45 149.24 61.02 148.57 61.77 147.55 
M 124.78 154.87 126.39 155.89 
M 109.2 125.76 107.12 126.1 106.33 125.85 
M 89.09 118.86 88.71 117.83 88.33 115.86 
M 100.73 163.03 98.83 166.06 
M 108.5 164.71 110.4 163.4 112.64 161.29 113.47 160.14 
M 67.27 159.23 68.53 158.89 69.88 158.83 72.94 159.54 74.75 158.95 
M 40.55 142.1 44.47 145.86 47.61 148.44 50.79 150.76 54.1 152.88 61.23 156.84 
M 47.01 147.94 47.21 146.68 
M 131.38 117.66 138.71 125 
M 133.43 111.93 141.95 120.46 
M 139.84 110.56 148.43 119.16 
M 146.4 109.34 156.47 119.41 
M 152.98 108.15 163.94 119.1 
M 159.71 107.09 165.62 113 
M 166.53 106.13 174.94 114.54 
M 173.57 105.39 183.47 115.29 
M 180.77 104.81 187.6 111.63 
M 188.1 104.36 194.45 110.71 
M 195.64 104.11 203.38 111.86 
M 203.26 103.95 211.75 112.45 
M 211.03 103.94 219.23 112.15 
M 218.79 103.92 229.73 114.86 
M 226.49 103.84 233.46 110.82 
M 233.87 103.45 244.86 114.44 
M 241.45 103.24 251 112.79 
M 249.22 103.23 257.3 111.31 
M 257.46 103.69 268.52 114.75 
M 265.69 104.14 272.41 110.86 
M 273.86 104.53 283.31 113.98 
M 281.99 104.88 291.23 114.12 
M 290.28 105.39 297.6 112.71 
M 298.78 106.1 304.92 112.25 
M 307.41 106.96 315.91 115.46 
M 315.94 107.71 323.86 115.63 
M 324.45 108.43 331.32 115.31 
M 333.17 109.38 341.75 117.95 
M 342.54 110.96 351.77 120.2 
M 352.37 113.01 360.37 121.01 
M 362.44 115.3 369.7 122.56 
M 372.39 117.47 383.8 128.88 
M 382.32 119.62 392.54 129.84 
M 392.37 121.89 401.51 131.03 
M 402.6 124.34 411.17 132.91 
M 413.03 126.99 422.57 136.53 
M 423.69 129.87 431.84 138.01 
M 124.27 168.12 126.24 172.06 
M 125.54 163.86 130.04 172.85 
M 128.2 162.36 133.57 173.1 
M 132.95 165.06 137.55 174.26 
M 137.14 166.62 137.18 166.72 
M 138.05 168.46 139.79 171.94 
M 141.13 167.8 141.93 169.41 
M 148.4 175.53 148.8 176.34 
M 134.04 140.01 137.52 146.97 
M 151.44 174.81 152.56 177.04 
M 135.32 135.75 141.41 147.93 
M 154.46 174.03 155.33 175.77 
M 156.06 177.23 156.35 177.83 
M 139.2 136.71 144.42 147.15 
M 159.9 178.1 160.15 178.61 
M 130.96 113.42 136.18 123.86 
M 143.14 137.78 147.49 146.48 
M 133.6 111.89 139.26 123.2 
M 136.68 111.24 141.46 120.81 
M 139.75 110.58 140.19 111.45 
M 141.06 113.19 144.54 120.15 
M 145.41 121.89 147.15 125.37 
M 148.02 127.11 149.76 130.59 
M 142.86 110 143.3 110.87 
M 144.17 112.61 145.04 114.35 
M 145.91 116.09 147.65 119.57 
M 148.52 121.31 152.87 130 
M 149.89 117.25 153.37 124.21 
M 155.11 127.69 156.85 131.17 
M 151.27 113.19 159.97 130.59 
M 154.39 112.62 161.35 126.53 
M 163.09 130.01 164.83 133.49 
M 165.7 135.23 166.57 136.97 
M 158.41 113.86 162.76 122.56 
M 163.63 124.3 164.5 126.04 
M 165.37 127.78 169.72 136.48 
M 162.44 115.11 163.31 116.85 
M 165.05 120.33 172.88 135.99 
M 161.68 106.78 162.99 109.39 
M 168.21 119.83 169.95 123.31 
M 170.82 125.05 176.04 135.49 
M 178.65 140.71 180.39 144.19 
M 181.26 145.93 181.76 146.95 
M 164.85 106.31 168.77 114.14 
M 172.25 121.1 177.46 131.54 
M 180.07 136.76 185.2 147.01 
M 168.08 105.97 168.52 106.84 
M 175.48 120.76 176.35 122.5 
M 177.22 124.24 178.96 127.72 
M 183.31 136.42 185.05 139.9 
M 185.92 141.64 188.59 146.98 
M 171.32 105.63 172.62 108.24 
M 185.67 134.33 190.89 144.77 
M 190.64 137.47 192.38 140.95 
M 196.33 135.24 197.2 136.98 
M 219.85 182.27 222.99 188.54 
M 184.85 105.46 185.72 107.2 
M 197.9 131.55 199.64 135.03 
M 200.51 136.77 202.25 140.25 
M 223.19 182.15 226.45 188.66 
M 188.15 105.25 190.76 110.47 
M 199.46 127.87 205.55 140.05 
M 226.67 182.29 229.84 188.63 
M 191.05 104.25 194.1 110.34 
M 201.06 124.26 207.15 136.44 
M 208.02 138.18 209.76 141.66 
M 211.5 145.14 212.01 146.16 
M 230.07 182.28 233.22 188.59 
M 194.41 104.15 196.58 108.5 
M 204.41 124.16 207.89 131.12 
M 208.76 132.86 211.37 138.08 
M 233.45 182.24 235.73 186.79 
M 197.76 104.05 198.2 104.92 
M 199.07 106.66 199.94 108.4 
M 203.42 115.36 204.29 117.1 
M 206.9 122.32 212.12 132.76 
M 212.99 134.5 213.86 136.24 
M 218.2 144.94 218.52 145.58 
M 236.88 182.28 239.76 188.04 
M 204.16 110.05 208.51 118.74 
M 211.12 123.96 212.86 127.44 
M 240.38 182.47 243.38 188.48 
M 205.42 105.75 212.38 119.67 
M 243.89 182.7 246.76 188.43 
M 208.43 104.96 214.52 117.14 
M 247.17 182.44 250.14 188.38 
M 210.83 102.95 217.79 116.87 
M 221.27 123.83 227.36 136.01 
M 250.42 182.13 253.44 188.18 
M 216.44 107.36 219.91 114.32 
M 223.39 121.28 230.35 135.19 
M 253.62 181.73 255.58 185.65 
M 209.12 85.92 209.99 87.66 
M 225.65 118.98 226.52 120.72 
M 227.39 122.46 229.13 125.94 
M 230 127.68 234.35 136.37 
M 210.48 81.83 212.66 86.18 
M 228.31 117.5 235.27 131.42 
M 260.21 181.28 261.37 183.61 
M 211.91 77.88 214.08 82.23 
M 214.95 83.97 215.82 85.71 
M 232.35 118.77 236.7 127.46 
M 263.84 181.75 265.41 184.88 
M 213.41 74.07 218.19 83.64 
M 237.33 121.92 239.94 127.14 
M 267.13 181.51 267.78 182.81 
M 215.57 71.59 216.44 73.33 
M 218.18 76.81 219.92 80.29 
M 244.28 129.01 247.76 135.97 
M 228.98 91.59 229.85 93.33 
M 230.72 95.07 231.59 96.81 
M 244.63 122.91 250.72 135.08 
M 222.52 71.87 225.13 77.09 
M 231.22 89.27 237.31 101.45 
M 241.66 110.15 243.4 113.63 
M 247.75 122.32 253.84 134.5 
M 257.32 141.46 258.19 143.2 
M 259.06 144.94 259.29 145.4 
M 221.79 63.61 222.23 64.48 
M 223.97 67.96 224.84 69.7 
M 225.71 71.44 230.06 80.14 
M 233.54 87.1 234.41 88.83 
M 235.28 90.57 239.63 99.27 
M 243.98 107.97 248.33 116.67 
M 250.07 120.15 254.41 128.85 
M 261.37 142.77 262.75 145.53 
M 223.92 61.06 225.23 63.67 
M 227.84 68.89 234.8 82.81 
M 237.41 88.03 242.63 98.47 
M 246.11 105.43 250.46 114.13 
M 263.5 140.22 265.97 145.15 
M 282.21 177.63 282.64 178.5 
M 225.9 58.21 228.08 62.56 
M 229.82 66.04 230.69 67.78 
M 231.56 69.52 237.65 81.7 
M 241.13 88.66 244.6 95.61 
M 249.82 106.05 253.3 113.01 
M 265.48 137.37 269.6 145.61 
M 285.4 177.21 286.36 179.13 
M 288.1 182.61 289.43 185.27 
M 228.05 55.69 228.48 56.56 
M 233.7 67 238.05 75.7 
M 238.92 77.44 239.79 79.18 
M 243.27 86.14 244.14 87.88 
M 267.63 134.86 273.52 146.64 
M 288.44 176.47 288.51 176.61 
M 291.12 181.83 292.58 184.75 
M 257.4 107.58 258.27 109.32 
M 271.32 135.42 275.67 144.12 
M 294.8 182.4 295.72 184.24 
M 256.04 98.05 261.25 108.49 
M 238.33 55.83 242.68 64.53 
M 248.77 76.71 251.38 81.93 
M 257.47 94.11 265.3 109.76 
M 239.95 52.27 246.04 64.45 
M 250.39 73.15 254.74 81.85 
M 260.83 94.03 261.7 95.76 
M 262.57 97.5 267.79 107.94 
M 273.88 120.12 275.62 123.6 
M 242.53 50.62 247.75 61.06 
M 248.62 62.8 249.49 64.54 
M 252.97 71.49 259.06 83.67 
M 265.15 95.85 266.02 97.59 
M 266.89 99.33 270.37 106.29 
M 275.59 116.73 279.94 125.43 
M 244.25 47.25 245.12 48.99 
M 245.99 50.73 251.21 61.17 
M 254.69 68.13 260.78 80.31 
M 269.48 97.7 270.35 99.44 
M 278.18 115.1 284.27 127.28 
M 292.1 142.94 295.11 148.96 
M 248.91 49.75 253.26 58.45 
M 260.21 72.37 261.95 75.85 
M 281.09 114.12 286.31 124.56 
M 295.88 143.7 298.7 149.33 
M 249.06 43.24 252.54 50.2 
M 284.72 114.58 288.2 121.54 
M 292.55 130.23 293.42 131.97 
M 296.9 138.93 301.99 149.11 
M 250.46 39.25 255.25 48.82 
M 294.4 127.11 298.75 135.81 
M 300.49 139.29 305.15 148.62 
M 252.73 36.97 258.58 48.67 
M 295.79 123.1 301.88 135.28 
M 303.62 138.76 304.49 140.5 
M 305.36 142.24 307.1 145.72 
M 319.28 170.08 323.53 178.58 
M 255.11 34.93 259.2 43.1 
M 288.07 100.85 291.55 107.81 
M 299.38 123.47 304.6 133.91 
M 321.34 167.38 326.61 177.92 
M 289.36 96.61 294.58 107.05 
M 304.14 126.19 306.75 131.41 
M 324.15 166.19 324.15 166.2 
M 325.02 167.94 329.68 177.26 
M 295.26 101.6 297.43 105.95 
M 318.31 147.71 320.21 151.52 
M 326.96 165.01 332.75 176.6 
M 306.75 117.79 310.23 124.75 
M 311.1 126.49 311.97 128.23 
M 320.67 145.63 323.68 151.65 
M 329.77 163.82 333.72 171.73 
M 310.26 117.99 316.35 130.17 
M 323.31 144.09 324.18 145.83 
M 325.05 147.57 327.18 151.83 
M 334.62 166.7 337.23 171.92 
M 311.23 113.12 312.1 114.86 
M 312.97 116.6 318.19 127.04 
M 326.89 144.44 327.76 146.18 
M 329.5 149.66 330.76 152.19 
M 339.94 170.54 340.81 172.28 
M 341.61 173.89 341.98 174.63 
M 313.93 111.72 320.89 125.64 
M 340.9 165.66 345.06 173.97 
M 315.3 107.66 316.61 110.27 
M 317.48 112.01 321.83 120.71 
M 333.14 143.32 338.36 153.76 
M 343.58 164.2 348.14 173.32 
M 318.85 107.94 319.29 108.81 
M 320.16 110.55 322.77 115.77 
M 323.63 117.51 324.5 119.25 
M 327.98 126.21 328.85 127.95 
M 331.46 133.17 332.33 134.91 
M 336.68 143.61 340.16 150.57 
M 346.25 162.75 351.21 172.67 
M 322.4 108.23 323.7 110.84 
M 328.92 121.28 333.27 129.98 
M 334.14 131.72 335.01 133.46 
M 336.75 136.94 337.62 138.68 
M 339.36 142.15 345.25 153.94 
M 349.8 163.03 354 171.44 
M 325.99 108.6 326.42 109.47 
M 331.64 119.91 337.73 132.09 
M 341.21 139.05 347.3 151.23 
M 336.98 123.78 340.46 130.74 
M 343.07 135.96 348.29 146.4 
M 349.16 148.14 350.03 149.88 
M 338.84 120.69 339.71 122.43 
M 341.45 125.91 343.19 129.39 
M 356.24 155.49 357.11 157.23 
M 355.55 147.31 359.9 156.01 
M 357.57 144.53 362.79 154.97 
M 360.45 143.49 364.8 152.19 
M 353.78 123.34 356.39 128.56 
M 364.22 144.22 365.09 145.96 
M 365.96 147.7 366.83 149.44 
M 355.02 119.01 361.98 132.93 
M 358.87 119.9 364.09 130.34 
M 366.7 135.56 367.57 137.3 
M 368.44 139.04 371.05 144.26 
M 360.11 115.56 365.33 126 
M 371.42 138.18 375.76 146.88 
M 372.63 133.8 378.72 145.98 
M 367.31 116.36 367.75 117.23 
M 374.71 131.15 376.45 134.63 
M 377.32 136.37 381.67 145.07 
M 377.66 130.25 383.75 142.43 
M 388.97 152.87 390.71 156.35 
M 391.58 158.09 392.45 159.83 
M 380.48 129.07 383.96 136.03 
M 385.7 139.51 386.57 141.25 
M 390.04 148.21 395.26 158.65 
M 392.83 146.97 398.92 159.15 
M 394.74 143.99 401.7 157.91 
M 402.69 159.89 403.25 161 
M 397.29 142.28 401.64 150.98 
M 402.51 152.72 404.25 156.2 
M 405.94 159.58 406.33 160.35 
M 394.18 129.24 396.79 134.46 
M 402.01 144.9 402.88 146.64 
M 395.41 124.9 399.76 133.6 
M 400.63 135.34 401.5 137.08 
M 398.4 124.07 401.88 131.03 
M 402.75 132.77 404.49 136.25 
M 401.03 122.52 401.29 123.04 
M 401.85 124.15 407.5 135.46 
M 413.59 147.64 414.46 149.38 
M 415.33 151.12 418.06 156.58 
M 404.82 123.28 405.17 124 
M 405.73 125.1 407.9 129.45 
M 416.6 146.85 417.47 148.59 
M 418.34 150.33 421.69 157.03 
M 402.43 111.71 403.3 113.45 
M 417.88 142.61 424.14 155.13 
M 403.98 108 407.9 115.83 
M 420.94 141.91 427.2 154.44 
M 406.96 107.16 410.01 113.25 
M 417.47 128.17 417.9 129.04 
M 424.86 142.96 427.47 148.18 
M 410.06 106.54 413.1 112.63 
M 416.7 119.82 417.25 120.91 
M 421.4 129.22 422.71 131.83 
M 429.28 138.17 432.6 144.8 
M 429.76 132.33 432.87 138.54 
M 215.33 291.39 213.44 297.7 
M 215.33 291.39 215.84 297.7 
M 220.13 291.39 215.84 297.7 
M 220.13 291.39 218.24 297.7 
M 222.23 291.39 222.44 291.7 222.83 291.39 222.62 291.1 222.23 291.39 
M 221.9 293.5 220.64 297.7 
M 227.33 294.39 226.91 293.8 226.4 293.5 225.5 293.5 224.81 293.8 224.03 294.39 223.46 295.3 223.28 295.89 223.31 296.8 223.73 297.39 224.24 297.7 225.14 297.7 225.83 297.39 226.61 296.8 
M 230.63 291.39 229.1 296.5 229.13 297.39 229.64 297.7 230.24 297.7 
M 229.1 293.5 231.2 293.5 
M 233.93 291.39 232.04 297.7 
M 232.94 294.7 234.11 293.8 234.8 293.5 235.7 293.5 236.21 293.8 236.24 294.7 235.34 297.7 
M 240.2 293.5 239.51 293.8 238.73 294.39 238.16 295.3 237.98 295.89 238.01 296.8 238.43 297.39 238.94 297.7 239.84 297.7 240.53 297.39 241.31 296.8 241.88 295.89 242.06 295.3 242.03 294.39 241.61 293.8 241.1 293.5 240.2 293.5 
M 244.7 293.5 242.81 299.8 
M 244.43 294.39 245.21 293.8 245.9 293.5 246.8 293.5 247.31 293.8 247.73 294.39 247.76 295.3 247.58 295.89 247.01 296.8 246.23 297.39 245.54 297.7 244.64 297.7 244.13 297.39 243.71 296.8 
M 250.4 293.5 249.14 297.7 
M 250.04 294.7 251.21 293.8 251.9 293.5 252.8 293.5 253.31 293.8 253.34 294.7 252.44 297.7 
M 253.34 294.7 254.51 293.8 255.2 293.5 256.1 293.5 256.61 293.8 256.64 294.7 255.74 297.7 
M 259.73 291.39 259.94 291.7 260.33 291.39 260.12 291.1 259.73 291.39 
M 259.39 293.5 258.14 297.7 
M 264.52 294.39 264.4 293.8 263.6 293.5 262.7 293.5 261.71 293.8 261.23 294.39 261.35 295 261.86 295.3 263.27 295.6 263.77 295.89 263.89 296.5 263.33 297.39 262.34 297.7 261.44 297.7 260.63 297.39 260.51 296.8 
M 273.2 293.5 271.94 297.7 
M 272.93 294.39 272.51 293.8 272 293.5 271.1 293.5 270.41 293.8 269.63 294.39 269.06 295.3 268.88 295.89 268.91 296.8 269.33 297.39 269.83 297.7 270.74 297.7 271.43 297.39 272.2 296.8 
M 275.6 293.5 274.33 297.7 
M 275.06 295.3 275.63 294.39 276.41 293.8 277.1 293.5 278 293.5 
M 282.8 293.5 281.54 297.7 
M 282.52 294.39 282.11 293.8 281.6 293.5 280.7 293.5 280.01 293.8 279.23 294.39 278.66 295.3 278.48 295.89 278.51 296.8 278.93 297.39 279.44 297.7 280.33 297.7 281.02 297.39 281.81 296.8 
M 286.13 291.39 284.6 296.5 284.63 297.39 285.14 297.7 285.74 297.7 
M 284.6 293.5 286.7 293.5 
M 289.13 291.39 289.33 291.7 289.73 291.39 289.52 291.1 289.13 291.39 
M 288.8 293.5 287.54 297.7 
M 292.13 291.39 290.6 296.5 290.63 297.39 291.14 297.7 291.74 297.7 
M 290.6 293.5 292.7 293.5 
M 294.8 293.5 293.89 296.5 293.93 297.39 294.44 297.7 295.33 297.7 296.02 297.39 297.2 296.5 
M 298.1 293.5 296.83 297.7 
M 303.23 294.39 303.11 293.8 302.3 293.5 301.39 293.5 300.41 293.8 299.93 294.39 300.05 295 300.56 295.3 301.97 295.6 302.48 295.89 302.51 296.8 302.02 297.39 301.04 297.7 300.14 297.7 299.33 297.39 299.2 296.8 
M 304.82 297.1 304.43 297.39 304.64 297.7 305.02 297.39 304.82 297.1 
"/></svg>
