<svg xmlns="http://www.w3.org/2000/svg" width="520" height="320"><rect x="0" y="0" width="520" height="320" fill="floralwhite"/><rect x="10" y="10" width="500" height="300" stroke="black" stroke-width="1" fill="none"/><path stroke="black" stroke-width="1" fill="none" stroke-linecap="round" stroke-linejoin="round" d="
M 144.5 80.93 154.08 77.97 173.14 69.8 182.66 67.56 192.19 67.25 201.72 68.15 211.25 69.32 220.77 71.02 230.3 73.54 249.36 79.51 268.41 85.05 277.94 88.06 287.47 90.59 296.99 92.74 306.52 94.69 316.05 96.3 325.58 97.54 335.11 98.48 344.63 99.91 363.69 103.43 373.22 104.75 382.74 107.12 
M 382.74 161.56 373.22 177.38 363.69 184.45 354.16 189.55 344.63 193.29 335.11 196.54 316.05 203.53 306.52 206.83 296.99 209.45 287.47 211.34 277.94 212.46 268.41 212.81 258.88 212.73 249.36 211.84 239.83 209.56 230.3 205.59 220.77 201.02 211.25 197.8 201.72 195.89 182.66 191.49 173.14 188.91 144.55 179.27 135.04 177.76 
M 377.6 123.01 370.97 128.84 367.72 131.35 364.41 132.36 357.8 133.41 351.03 133.86 337.09 135.53 329.93 136.18 312.51 136.31 298.96 137.88 295.62 138.13 288.88 138.13 283.76 137.64 
M 280.34 137.32 278.63 137.16 268.53 135.35 261.82 133.22 256.57 131.31 
M 253.05 130.02 242.75 126.7 
M 239.51 125.76 237.92 125.29 231.76 122.84 220.35 117.27 
M 210.18 113.03 203.57 110.92 
M 200.39 109.9 198.8 109.4 190.49 107.63 
M 187.09 107.07 180.27 106.37 
M 173.44 106.38 171.73 106.42 166.67 106.96 
M 160.09 107.78 156.85 108.28 
M 150.19 109.08 146.79 109.39 
M 142.61 160.28 143.32 161.45 
M 146.92 168.02 148.64 171.24 
M 150.49 174.45 151.6 176.28 
M 148.53 161.6 151.81 167.87 
M 153.19 161.14 154.91 164.37 
M 157.84 160.74 159.7 164.06 
M 165.47 174.04 167.4 177.31 
M 143.02 130.25 146.3 134.43 
M 161.37 158.19 162.65 160.49 
M 164.59 163.93 166.51 167.36 
M 168.43 170.77 172.35 177.46 
M 144.14 124.31 150.54 131.54 
M 173.39 170.93 175.4 174.31 
M 145.48 119 154.23 128.01 
M 157.23 131.38 159.33 134.07 
M 170.08 155.93 170.69 157.1 
M 172.59 160.69 174.54 164.22 
M 185.45 181.11 187.93 184.4 
M 146.48 113.34 148.31 115.37 
M 151.38 118.58 157.68 124.75 
M 163.34 131.2 165.11 133.92 
M 174.56 154.99 177.75 160.81 
M 146.9 106.14 150.44 110.8 153.35 114.04 165.07 126.14 167.5 129.37 169.93 133.78 
M 178.8 153.18 181.06 157.17 
M 183.2 160.72 185.45 164.28 
M 187.79 167.94 190.21 171.65 
M 146.83 97.74 148.04 99.72 
M 150.15 102.98 152.6 106.24 
M 155.35 109.44 167.8 122.94 170.17 126.01 172.2 129.39 173.09 131.2 
M 186.64 156.77 191.37 164.25 
M 146.36 89.6 152.19 98.72 154.47 101.82 157.09 104.9 168.14 116.71 170.67 119.55 172.96 122.55 174.98 125.82 177.72 131.09 
M 192.45 156.2 202.37 172.16 
M 144.66 80.88 147.74 84.8 155.41 96.09 157.69 98.98 160.29 101.85 171.36 113.11 173.82 115.92 176.1 118.87 178.15 122.06 184.61 133.38 
M 193.66 148.22 195.99 151.93 
M 198.4 155.83 203.41 164.19 
M 205.87 168.23 210.4 175.21 
M 212.64 178.3 217.54 184.43 
M 227.85 195.79 231.62 199.49 
M 148.6 79.66 156.87 90.69 161.29 96.03 166.47 101.54 173.35 108.24 
M 175.93 110.91 179.54 115.16 181.7 118.26 190.7 133.21 
M 197.55 144.46 211.74 168.04 
M 213.85 171.52 215.98 174.76 
M 218.25 177.94 220.7 181.14 
M 233.46 195.7 235.98 198.16 
M 152.48 78.46 158.55 85.66 167.61 95.75 180.69 108.86 183.12 111.68 185.39 114.72 188.47 119.52 
M 190.44 122.71 196.87 133.04 
M 205.87 148.1 212.27 158.48 217.55 167.89 
M 226.49 181.25 229.06 184.48 
M 156.28 77.01 167.01 87.79 176.63 97.99 184.33 105.74 186.79 108.52 191.32 114.68 196.36 122.37 
M 198.37 125.47 202.87 132.88 
M 206.99 139.69 216.39 154.96 218.66 158.91 225.33 171.38 
M 227.53 174.87 229.93 178.32 
M 240.04 190.69 244.03 194.77 246.85 197.35 251.23 200.82 
M 160.14 75.34 166.64 80.79 171.31 85.11 181.8 96.22 
M 184.33 98.79 188.19 102.68 190.65 105.49 192.95 108.51 201.35 120.77 206.78 129.06 
M 210.29 134.66 211.73 136.98 
M 214.27 141.11 221.56 153.36 
M 223.67 157.18 227.34 164.46 
M 233.59 175.41 238.49 182.15 
M 246.29 191.02 249.12 193.75 
M 164.18 73.59 170.97 78.49 175.73 82.53 177.97 84.71 184.62 91.83 192.33 99.49 194.75 102.33 196.98 105.41 201.18 111.81 206.53 119.34 
M 213.61 129.66 215.45 132.53 
M 215.53 132.67 223.3 145.7 
M 227.54 153.39 235.19 168.47 
M 237.39 172.3 239.74 175.94 
M 242.16 179.33 244.64 182.54 
M 168.28 71.86 172.84 74.6 175.36 76.3 180.12 80.07 188.93 88.77 194.07 93.55 196.62 96.18 198.98 99.04 200.05 100.6 
M 204.13 107.02 208.48 113.26 
M 210.79 116.29 216.8 124.55 220.49 130.23 
M 222.87 134.11 229.38 145.7 
M 235.17 156.92 241.26 168.84 
M 256.46 188.97 259.42 191.84 
M 265.19 197.04 267.94 199.27 
M 172.28 70.17 177.15 72.71 179.67 74.26 182.08 75.94 185.43 78.72 
M 187.57 80.7 190.84 83.8 198.28 90.41 200.79 92.99 203.08 95.83 209.32 105.38 211.54 108.51 218.7 117.82 222.34 123.06 
M 227 130.44 230.23 136.03 233.26 141.68 
M 249.62 173.06 251.97 176.64 
M 254.44 180.04 257.1 183.34 
M 259.94 186.53 262.87 189.57 
M 176.88 68.92 181.35 71 186.14 73.94 188.37 75.64 202.19 87.68 204.62 90.15 206.93 92.93 213.57 102.24 219.42 109.83 
M 221.81 112.93 225.37 117.86 229.88 124.91 234.11 132.02 237.14 137.61 
M 239.14 141.45 241.16 145.36 
M 243.19 149.32 245.19 153.29 
M 247.18 157.36 249.19 161.55 
M 251.27 165.72 254.57 171.67 258.13 177.15 
M 263.4 184.07 266.27 187.27 
M 269.22 190.2 275 195.27 
M 181.48 67.84 185.37 69.46 187.74 70.72 192.18 73.75 205.8 85.35 209.48 89.03 
M 211.89 91.79 217.76 99.31 224.96 108.18 228.38 112.93 
M 230.55 116.27 234.78 123.05 
M 236.9 126.41 240.04 131.68 243.17 137.48 
M 247.35 145.63 253.2 158.12 
M 255.23 162.33 257.36 166.44 
M 264.42 177.97 265.68 179.79 269.83 184.78 
M 275.65 190.57 278.52 193.1 
M 187.47 67.41 191.56 69.23 195.91 72.05 206.94 81.15 211.89 85.49 216.98 90.7 226.84 102.18 229.18 105.1 231.38 108.17 234.45 113.11 
M 236.48 116.46 238.56 119.73 
M 240.72 122.93 244.04 127.9 248.44 135.69 252.59 144.11 255.4 150.48 
M 257.28 154.73 259.26 158.97 
M 263.59 167.25 268.4 175.05 
M 273.61 182.06 276.4 185.22 
M 284.82 193.31 287.51 195.65 
M 194.36 67.46 197.52 69.08 201.74 72.03 213 81.14 218.15 85.66 223.49 90.86 228.59 96.34 233.22 102 236.35 106.67 
M 238.35 109.96 241.37 114.98 249.32 126.3 
M 251.62 130.08 254.95 136.27 257.92 142.65 
M 261.52 151.15 263.43 155.4 
M 267.77 163.81 270.13 167.88 
M 275.03 175.55 277.56 179.09 
M 280.17 182.41 282.85 185.51 
M 285.56 188.39 288.22 191.07 
M 202.03 68.19 207.7 72.01 216.66 79.03 224.65 85.64 230.13 90.6 232.6 93.23 237.13 98.76 239.26 101.78 244.42 109.99 
M 246.58 113.29 253.6 122.99 
M 260.42 134.77 263.36 141.04 266.85 149.41 268.82 153.64 274.55 164.16 
M 286.49 182.66 291.54 188.51 
M 209.55 69.12 215.74 73.46 228.41 83.07 233.88 87.66 236.39 90.1 238.74 92.68 243.22 98.38 249.83 108.11 255.62 116.14 
M 258 119.48 261.5 124.97 263.71 128.97 265.84 133.03 268.72 139.13 
M 270.55 143.25 273.45 149.5 281.33 164.35 
M 294.97 185.46 297.28 188.3 
M 217.59 70.45 226.65 76.71 234.83 82.71 240.06 87.12 242.51 89.53 244.9 92.15 249.64 98.05 261.31 113.95 264.72 119.24 
M 266.89 123.04 269 126.99 
M 271.07 130.98 273.08 135.02 
M 277.02 143.22 279.12 147.38 
M 281.33 151.61 283.54 155.94 
M 289.66 168.61 292.78 174.17 293.93 175.81 
M 298.61 181.95 300.9 184.88 
M 227.49 72.8 238.48 80.28 243.76 84.37 248.86 89.08 252.71 93.23 
M 255.26 96.2 257.74 99.24 
M 260.12 102.3 263.53 106.89 267.91 113.45 273.12 122.86 
M 275.21 126.84 286.71 149.54 288.79 153.9 292.52 162.63 294.4 166.64 296.46 170.3 297.6 171.96 
M 299.94 175.15 302.34 178.16 
M 304.72 181.13 307.04 184.12 
M 309.36 187.12 311.78 189.99 
M 240.1 76.61 247.54 81.83 252.93 86.21 255.69 88.73 261.05 94.36 263.53 97.3 266.89 101.73 
M 268.98 104.77 274.01 113.09 283.48 130.79 
M 285.54 134.93 289.69 143.3 
M 291.69 147.56 297.01 160.57 
M 301.14 168.04 303.55 171.28 
M 310.87 180.44 313.2 183.56 
M 253.18 80.6 255.62 82.35 
M 258.48 84.59 262.73 88.36 265.41 91.11 267.88 93.93 272.15 99.68 274.08 102.68 277.84 109.17 286.36 124.52 289.65 130.8 
M 291.71 134.95 294.69 141.14 297.3 147.62 
M 304.69 164.07 305.87 165.8 309.68 170.58 
M 312.15 173.76 318.02 181.81 319.28 183.32 
M 265.61 84.22 269.43 87.84 271.85 90.55 276.15 96.1 279.88 102.07 284.55 110.57 
M 286.68 114.32 293.65 126.54 
M 295.82 130.59 298.8 136.65 300.57 140.88 304.46 151.99 
M 306.31 156.16 307.33 158.16 310.84 163.5 
M 322.86 180.18 325.47 183.17 
M 275.76 87.37 280.01 92.46 282.01 95.31 283.86 98.32 289.46 108.51 296.46 120.23 300.95 128.15 302.97 132.11 304.84 136.26 309.63 149.65 311.46 153.82 314.74 159.44 
M 317.08 163 324.15 173.56 
M 284.47 89.8 287.89 94.65 290.72 99.55 
M 292.64 103.02 296.99 110.38 
M 299.37 114.23 302.89 120.06 307.08 127.81 309.06 131.87 311.73 138.48 
M 313.36 143.01 315.86 149.51 317.78 153.42 318.87 155.28 
M 321.1 158.96 323.4 162.61 
M 328.09 169.86 331.86 174.93 335.98 179.46 
M 338.86 182.36 341.78 185.3 
M 292.23 91.67 293.93 94.36 297.85 101.25 304.81 112.42 309.19 120.03 313.17 127.93 315.14 132.26 320.4 145.5 322.2 149.4 324.19 153.09 329.81 162.34 
M 332.2 165.97 334.75 169.44 
M 298.87 93.13 301.74 97.94 308.98 108.88 315.29 120.35 318.28 126.57 
M 320.27 130.98 324.07 139.77 
M 325.86 143.76 328.6 149.28 331.7 154.75 
M 336.32 162.09 338.9 165.57 
M 341.65 168.86 344.48 172 
M 349.97 178.19 354.62 183.81 
M 304.86 94.35 312.76 105.56 315.11 109.3 319.4 117.02 322.47 123.2 
M 324.47 127.53 327.5 134.1 332.25 143.81 
M 334.07 147.4 338.06 154.72 
M 342.89 161.85 345.63 165.17 
M 310.95 95.44 316.28 102.5 318.88 106.17 321.29 109.92 325.68 117.7 334.9 136.21 
M 336.81 139.98 338.6 143.66 
M 344.39 154.79 345.52 156.6 348.05 160.03 352.26 164.87 
M 317.3 96.46 325.15 106.88 329.89 114.28 334.17 122.13 342.22 137.81 347.52 149.39 349.55 153.13 351.91 156.63 354.63 159.92 359.07 164.56 
M 361.99 167.57 364.78 170.59 
M 323.61 97.28 331.55 107.41 334.05 110.91 336.32 114.53 339.47 120.25 
M 341.49 124.1 345.52 131.78 
M 347.47 135.7 351.88 145.78 353.79 149.67 354.94 151.47 
M 357.42 154.93 360.2 158.17 
M 365.97 164.25 368.7 167.24 
M 330.11 97.99 337.96 107.62 340.36 111.11 344.6 118.49 350.69 129.88 352.66 133.93 356.28 142.33 358.2 146.32 360.46 149.98 364.43 154.93 
M 367.2 158.07 369.9 161.1 
M 337.04 98.77 341.62 104.31 344.16 107.73 346.47 111.3 354.78 126.42 356.75 130.52 359.56 136.98 
M 361.45 141.18 362.43 143.22 363.55 145.06 
M 365.93 148.57 371.13 154.92 
M 344.37 99.87 347.79 104.22 350.28 107.76 352.57 111.46 356.8 119.12 359.81 125.14 
M 361.72 129.42 365.44 138.15 
M 367.48 142.1 368.56 143.97 369.77 145.62 
M 372.24 148.8 377.27 154.99 
M 351.98 101.33 356.52 107.76 358.81 111.53 360.91 115.37 364.86 123.59 367.6 130.37 
M 369.42 134.81 371.34 138.88 
M 378.35 148.85 380.96 152.03 
M 359.56 102.7 362.84 107.49 365.06 111.26 367.09 115.19 369.02 119.41 373.54 130.83 
M 377.36 138.88 379.57 142.36 
M 367.16 103.91 369.13 107.04 371.23 110.89 373.19 114.98 379.58 130.72 
M 374.3 105.02 377.29 110.75 381.92 121.48 
M 381.27 106.76 382.02 108.26 
M 153.74 78.07 150.69 80.54 145.73 85.14 
M 169.25 71.45 163.74 74.98 161.14 76.92 156.15 81.02 151.49 85.27 146.46 90.62 
M 183.41 67.54 178.71 69.75 173.16 72.89 167.53 76.67 164.76 78.77 162.06 80.98 156.92 85.65 152.29 90.42 149.16 94.09 
M 189.59 67.34 185.27 69.47 182.68 70.94 177.2 74.39 171.44 78.46 165.7 83.06 160.28 88.07 155.38 93.32 153.19 95.95 146.88 104.25 
M 194.84 67.5 191.47 69.23 186.45 72.27 179.68 77.05 
M 176.8 79.23 169.44 85.22 163.86 90.5 161.25 93.27 158.77 96.11 156.55 98.97 151.6 106.2 
M 149.44 109.18 147.2 112.19 
M 199.58 67.95 194.97 70.53 192.51 72.09 187.46 75.68 179.07 82.33 171.74 88.81 
M 168.94 91.58 166.27 94.43 
M 163.76 97.35 161.48 100.34 
M 159.45 103.37 154.72 110.98 148.44 120.02 145.38 124.71 
M 204.41 68.48 200.83 70.47 195.88 73.71 190.92 77.46 184.07 83.16 
M 181.18 85.71 178.3 88.39 
M 175.47 91.18 171.41 95.53 168.89 98.5 166.6 101.53 164.53 104.65 158.97 114.14 154.06 121.71 
M 152.03 124.8 149.91 128.08 
M 147.73 131.56 146.04 134.44 
M 209.17 69.07 201.71 73.7 196.8 77.33 191.77 81.53 186.18 86.54 180.54 92.16 175.36 98.08 170.73 104.13 168.69 107.3 162.13 118.68 
M 156.63 127.98 152.72 134.26 
M 213.65 69.75 207.67 73.68 202.69 77.29 197.9 81.25 194.09 84.72 
M 191.36 87.3 185.73 93.09 
M 180.55 99.09 178.16 102.04 
M 175.89 105.06 173.75 108.21 
M 171.7 111.52 167.84 118.28 
M 164.51 124.62 160.89 131.27 
M 145.35 160.87 145 161.44 
M 217.97 70.52 213.59 73.53 208.68 77.25 201.64 83.22 194 90.81 184.5 101.54 
M 182.1 104.5 178.69 109.06 174.4 115.83 170.59 122.75 168.16 127.71 
M 149.94 161.35 147.84 164.74 
M 222.27 71.42 217.09 75.17 212.3 79.12 207.68 83.21 203.14 87.66 195.28 96.3 187.18 105.6 182.44 111.73 179 116.87 
M 176.79 120.48 174.75 124.09 
M 172.92 127.64 171.23 131.17 
M 152.64 164.51 150.55 167.91 
M 226.5 72.53 220.79 76.91 216.09 81.12 210.35 86.61 
M 208.02 88.97 203.14 94.38 
M 197.7 100.66 190.92 108.49 184.76 116.41 
M 182.31 119.95 178.75 125.55 176.66 129.31 174.5 133.66 
M 155.44 167.66 153.41 171.07 
M 230.87 73.72 227.09 76.7 222.38 81.01 212.99 90.47 205.29 98.93 189.36 117.86 186.77 121.3 184.23 125.03 181.81 128.91 179.2 133.53 
M 165.45 158.25 164.21 160.47 
M 235.21 75.08 231.16 78.55 228.86 80.78 214.17 96.2 208.7 102.17 201.81 110.22 
M 199.2 113.31 196.6 116.32 
M 191.3 122.69 188.69 126.32 
M 172.39 155.02 167.2 163.96 
M 239.64 76.47 235.3 80.46 233.04 82.82 225.96 90.81 221.96 95.06 
M 219.25 97.89 212.25 105.36 195.88 123.95 193.25 127.47 189.6 133.24 
M 178.36 153.57 177.25 155.53 
M 177.25 155.54 176.25 157.24 
M 174.18 160.74 172.15 164.13 
M 164.44 177.28 163.17 179.42 
M 244.08 77.86 239.38 82.4 227.29 96.4 218.88 105.27 203.26 122.29 
M 195.38 132.69 195.13 133.09 
M 185 150.97 179.41 160.79 
M 248.54 79.25 243.36 84.4 241 87.04 231.09 99.11 214.1 117.81 206.83 125.59 
M 201.38 132.46 201.05 132.93 
M 191.68 148.43 189.41 152.59 
M 180.55 167.72 176.33 174.33 
M 253.17 80.59 247.3 86.55 244.81 89.34 234.66 101.95 219.43 119.49 
M 216.55 122.8 210.69 129.37 
M 199.96 143.95 197.58 147.92 
M 193.01 156.12 190.78 160.26 
M 258.01 81.97 248.66 91.92 234.09 109.82 
M 231.44 113 223.3 123.07 
M 220.49 126.55 215.5 132.53 
M 215.36 132.69 211.81 136.99 
M 208.99 140.56 206.27 144.22 
M 198.97 155.81 194.54 164.18 
M 189.97 171.6 187.62 174.82 
M 262.99 83.44 252.63 94.74 246.92 101.47 233.51 118.02 227.03 126.75 
M 224.32 130.4 210.29 148.51 
M 205.15 155.96 203.93 157.92 198.38 168.28 
M 267.95 84.91 262.55 91.28 253.62 101.13 240.69 116.57 
M 238.13 119.75 234.39 124.78 222.5 141.78 
M 219.76 145.52 214.34 152.83 
M 206.66 164.25 204.38 168.29 
M 272.6 86.37 269.27 90.81 266.57 94.03 254.38 107.78 242.88 121.31 240.32 124.57 237.78 128.1 226.07 145.75 
M 223.44 149.58 220.83 153.34 
M 218.16 157 215.43 160.63 
M 210.3 168.14 207.99 171.95 
M 203.48 178.91 201.18 182.06 
M 277.01 87.77 272.89 93.44 270.23 96.76 253.65 116.22 
M 250.73 119.62 247.93 122.88 
M 245.21 126.2 241.17 131.64 237.21 137.6 
M 221.53 160.83 216.11 167.96 
M 213.66 171.56 209.23 178.58 
M 281.44 88.99 273.57 99.53 259.01 117.63 250.29 128.08 246.04 133.6 
M 240.52 141.42 237.84 145.38 
M 235.2 149.33 232.61 153.22 
M 230.01 157.06 227.34 160.81 
M 221.88 167.88 219.32 171.29 
M 285.9 90.17 262.79 121.15 251.05 135.89 243.91 145.42 
M 241.12 149.25 233.06 160.74 
M 225.1 171.36 222.68 174.62 
M 290.63 91.3 279.79 105.48 269.22 120.99 263.52 128.96 247.28 149.57 
M 244.45 153.23 240.26 158.86 233.64 168.34 
M 228.6 174.95 226.32 178.06 
M 295.54 92.42 288.33 101.36 282.88 108.79 275.33 120.75 268.43 131.01 
M 265.54 135.03 256.32 146.54 
M 250.53 153.82 245.02 161.15 
M 242.32 164.97 238.41 170.58 234.69 175.51 
M 230.13 181.5 228.09 184.46 
M 300.45 93.45 297.24 97.76 291.55 104.81 288.76 108.52 286.18 112.36 277.41 126.76 
M 274.67 130.91 270.33 137.07 267.24 141.16 259.45 150.93 
M 256.55 154.61 253.77 158.2 
M 251.07 161.79 240.84 176.01 
M 238.45 179.08 236.14 181.98 
M 231.91 187.59 229.98 190.37 
M 305.53 94.49 300.68 101.34 295.07 108.47 292.31 112.27 289.75 116.24 283.55 126.63 
M 278.04 134.95 275.08 139.09 
M 271.99 143.24 259.84 159.03 
M 257.12 162.6 251.9 169.61 
M 246.96 176.36 242.25 182.4 
M 237.76 187.88 235.68 190.52 
M 310.99 95.45 306.88 101.68 298.85 112.3 296.11 116.2 288.42 128.71 285.68 132.86 279.98 141.12 275.39 147.4 
M 272.22 151.59 260.62 166.87 
M 258.02 170.23 253.06 176.71 
M 243.87 188.21 241.64 190.78 
M 316.88 96.41 310.76 105.41 301.29 118.16 
M 298.57 122.22 291.85 132.87 289.06 137.04 283.5 145.27 275.95 155.85 
M 269.86 163.93 261.72 174.22 
M 256.89 180.25 254.66 183.13 
M 252.46 185.9 247.98 191.12 
M 243.51 195.98 241.39 198.29 
M 323.17 97.23 313.11 110.98 
M 310.44 114.51 303.51 123.97 299.38 130.34 
M 296.59 134.7 293.81 139.04 
M 291.09 143.29 282.74 155.91 
M 279.74 160.14 275.18 166.2 268.15 175.02 
M 260.95 183.76 258.84 186.42 
M 329.56 97.93 323.06 106.65 309.69 123.85 302.68 134.25 
M 299.79 138.73 296.96 143.2 
M 294.27 147.57 289.03 156.09 
M 286.26 160.3 281.91 166.42 274.79 175.53 
M 272.13 178.76 261.11 192 
M 335.73 98.58 329.43 107.27 318.59 120.7 312.99 127.92 302.71 143.03 
M 299.8 147.58 292.13 160.51 
M 289.53 164.62 286.81 168.57 
M 284.06 172.32 281.36 175.84 
M 278.74 179.15 271.64 187.75 
M 267.46 192.58 265.4 194.8 
M 263.27 196.93 261.04 198.98 
M 341.42 99.43 335.87 107.57 319.09 128.7 314.82 134.39 
M 311.8 138.51 308.63 142.94 
M 305.48 147.51 301.14 154.27 292.71 168.61 
M 290.18 172.44 286.35 177.82 280.38 185.4 
M 275.96 190.59 273.83 192.95 
M 271.71 195.18 269.57 197.29 
M 346.89 100.35 342.13 107.7 339.66 111.08 313.15 145.23 308.45 151.86 
M 305.58 156.23 300.66 164.42 
M 296.07 172.12 291.27 179.39 
M 284.5 188.34 282.34 190.83 
M 280.2 193.15 278.05 195.35 
M 275.88 197.44 271.45 201.25 
M 269.22 202.93 265.08 205.79 
M 352.3 101.4 348.25 107.76 345.78 111.28 328.68 134.2 325.7 137.99 320.98 143.56 
M 317.79 147.48 316.2 149.5 311.76 155.81 
M 309.07 159.94 306.58 163.91 
M 304.25 167.74 297.34 178.83 
M 357.88 102.41 354.44 107.76 351.87 111.45 343.8 122.2 335.1 134.25 332.08 138.25 322.54 149.39 318.09 155.35 
M 312.8 163.32 310.42 167.08 
M 308.13 170.73 305.82 174.36 
M 301.02 181.62 298.62 185.1 
M 294.24 191.16 290.33 195.8 
M 363.45 103.38 358.1 111.54 355.34 115.3 347.16 125.99 338.46 138.02 333.72 143.77 
M 327.44 151.15 325.92 153.02 320.36 160.9 311.93 173.76 
M 309.61 177.24 307.17 180.8 
M 293.9 198.18 292.02 199.98 
M 290.01 201.66 287.87 203.27 
M 369.02 104.17 361.55 115.37 358.77 119.21 349.1 131.79 
M 346.21 135.71 340.04 143.59 
M 336.89 147.35 333.83 151.04 
M 328.13 158.61 315.57 176.97 
M 374.43 105.05 363.48 121.37 
M 360.69 125.18 352.34 135.92 
M 349.36 139.71 346.27 143.56 
M 343.16 147.36 340.14 151.06 
M 331.82 162.28 329.11 166.14 
M 326.46 169.93 323.93 173.56 
M 316.89 183.43 310.79 191.63 307.11 196.11 
M 379.58 106.34 365.24 127.89 359.74 135.05 355.44 140.27 
M 352.41 143.88 347.85 149.4 342.25 156.58 330.32 173.3 
M 327.74 176.84 325.31 180.14 
M 323.03 183.26 320.79 186.31 
M 382.74 110.75 379.85 115 371.17 128.53 368.33 132.63 362.87 139.61 354.14 149.68 349.94 154.9 
M 337.17 172.73 334.44 176.35 
M 331.82 179.8 327.14 186.01 
M 382.74 120.02 374.27 133.05 371.45 137.05 366.24 143.73 359.38 151.64 
M 356.56 154.96 352.63 159.96 345.52 170.25 341.5 175.63 
M 331.4 188.62 329.19 191.41 
M 382.74 129.24 377.46 137.03 372.32 144.17 367.54 150.24 363.57 154.95 
M 355.83 164.74 348.49 174.98 
M 382.74 137.89 378.38 144.1 371.57 153.35 361.51 166.02 352.62 178.01 
M 350.06 181.52 347.52 184.96 
M 382.74 146.64 371.9 161.08 
M 369.5 164.15 361.96 174.04 
M 359.34 177.56 356.73 181.15 
M 382.74 155.36 374.55 165.6 368.56 173.64 
M 182.66 67.56 182.67 67.56 
M 188.12 67.39 194.41 51.61 196.43 50.12 197.41 47.6 198.85 45.53 200.9 44.09 204.29 44.02 208.34 41.15 209.81 39.17 214.84 38.07 217.24 37.11 218.78 35.26 220.88 34.08 229.04 33.1 231.08 31.88 233.72 31.27 236.3 31.2 237.92 30.23 240.47 31.22 243.03 32.57 245.08 32.75 249.86 30.92 252.47 30.6 255.02 30.62 258.17 31.2 260.88 31.15 262.81 30.32 264.59 30.12 266.6 31.11 268.72 30.92 271.01 30.15 273.92 29.99 277.14 30.48 278.69 31.08 280.68 32.18 282.19 33.58 284.28 36.29 284.97 38.38 290.57 37.99 292.93 38.12 295.41 38.42 297.75 39.42 299.47 40.73 304.24 46.52 306.39 47.67 308.14 48.09 310.35 50.27 312.56 52.81 316.24 59.44 316.98 61.57 317.36 64.48 317.91 66.58 318.08 69.44 317.59 75.18 315.62 79.09 310.5 95.37 
M 306.52 94.7 306.52 94.69 
M 186.82 67.43 189.12 66.49 190.46 64.3 191.29 62.07 192.2 60.39 
M 190.97 67.29 193.24 65.95 194.46 63.76 196.77 61.03 197.06 59.3 
M 195.12 67.53 196.98 66.03 199.74 62.82 202.76 57.12 
M 199.26 67.92 200.99 66.38 204.14 62.52 205.13 60.02 208.96 53.33 210.28 51.78 211.83 49 
M 203.39 68.36 205.37 67.23 208.1 62.62 209.73 58.43 212.3 54.35 212.55 51.75 213.77 49.85 215.05 47.3 215.86 44.36 216.73 42.82 
M 207.51 68.86 209.45 67.87 210.54 65.76 210.95 63.24 211.56 60.82 213.11 58.92 213.78 56.75 215.53 52.86 217.17 50.16 221.21 45.23 221.7 42.86 221.22 40.26 
M 211.63 69.39 213.25 68.27 216.16 60.61 217.31 58.77 220.89 55.13 222.48 54.04 224.29 49.26 224.6 45.28 225.35 43.25 227.2 41.98 227.66 39.8 229.13 38.31 230.56 35.68 
M 215.72 70.12 217.14 68.78 222.39 60.4 225.59 57.5 227.94 52.49 229.38 46.44 230.9 44.12 232.46 42.7 233.65 41.93 235.38 37.64 
M 219.81 70.85 221.31 69.55 222.58 67.95 226.53 61.59 228.01 59.9 230.27 54.95 231.92 52.49 233.14 49.81 235.1 47.81 
M 223.85 71.84 225.61 70.74 227.23 68.96 229.72 65.35 233.71 58.65 235.3 56.33 238.61 52.97 239.86 50.62 243.29 47.3 244.93 44.62 245.62 41.94 
M 227.87 72.9 230.06 71.84 231.67 70.18 233.97 66.83 238.13 62.02 239.85 58.57 241.49 57.04 243.36 54.92 246.59 49.89 247.78 48.89 
M 231.87 74.03 234.12 73.19 237.03 69.53 238.04 67.54 240.01 65.15 243.37 61.5 244.53 59.54 246.28 57.63 246.83 56.14 248.44 53.96 250.12 52.69 252.19 50.78 
M 235.83 75.27 237.74 74.32 240.49 70.4 241.98 68.65 243.97 66.79 247.9 60.3 249.04 58.81 252.82 55.55 254.67 53.44 255.74 50.81 257.58 48.31 259.01 45.25 260.85 43.32 262.94 42.4 
M 239.8 76.52 241.94 75.53 244.97 72.2 250.72 63.49 251.54 61.48 253.17 59.77 254.74 57.6 256.97 56.63 258.22 55.01 260.34 52.71 263.3 47.73 265.22 46.99 266.69 45.32 268.86 40.71 
M 243.76 77.76 246.31 76.88 247.78 75.21 248.75 73.34 252.01 69.22 254.02 67.1 255.49 64.7 256.26 62.36 258.84 58.68 260.7 57.91 263.25 56.49 264.52 54.04 266.3 51.45 267.55 50.08 269.58 48.83 270.74 47.2 271.99 44.52 272.25 42.17 272.8 40.29 274.43 37.98 
M 247.73 79 250.09 78.04 252 76.28 255.43 71.85 257.29 69.97 258.77 67.96 259.78 66.21 261.32 61.02 263.17 59.51 264.72 58.74 266.18 56.21 267.98 54.23 269.5 53.17 270.94 50.86 271.78 48.66 273.27 43.56 276.48 41.4 
M 251.71 80.18 254.02 78.93 261.23 71.02 263.22 67.67 264.78 65.73 265.48 63.69 268.57 59.06 270.84 57.08 271.77 56.1 272.82 54.61 273.83 51.44 
M 255.71 81.32 259.8 78.18 264.83 72.83 268.77 67 269.71 64.21 271.79 61.39 275.5 58.49 276.84 55.44 278.48 53.29 280.29 50.16 280.8 48.45 
M 259.7 82.46 261.93 81.39 263.79 79.68 267.03 75.88 268.76 74.26 269.65 72.39 272.81 67.91 275.3 65.72 277.06 63.3 278.44 61.15 278.55 59.8 279.25 58.52 282.08 57.38 283.57 55.35 284.67 53.38 286.01 51.56 287.18 49.16 
M 263.69 83.64 265.96 82.65 269.19 79 271.13 77.32 272.69 75.62 275.32 70.85 278.23 67.29 279.54 65.31 282.02 60.79 283.63 58.54 285.9 57.11 288.32 54.94 289.89 50.63 291.67 49.03 294.03 47.86 
M 267.67 84.83 269.78 83.82 271.31 82.31 273.66 80.58 275.51 78.57 276.76 76.77 277.89 74.49 279.2 72.41 283.16 68.25 284.12 66.86 284.87 64.36 287.07 61.78 
M 271.64 86.07 273.82 85.44 277.2 81.47 278.87 79.8 280.27 78.01 281.66 75.48 283.27 73.37 288.19 69.7 288.89 67.58 289.83 65.42 291.42 63.54 292.91 61.29 294.26 59.69 295.3 57.68 296.99 55.67 298.47 52.92 299.79 52.04 301.57 51.3 302.48 49.48 
M 275.6 87.32 277.32 86.05 281.04 82.15 282.9 80.62 285.87 77.04 291.45 71.16 292.77 69.36 296.09 65.58 296.99 63.31 298.78 62.28 
M 279.58 88.5 281.65 87.01 282.84 85.52 288.29 79.63 290.64 77.69 292.13 75.09 293.44 73.4 296.39 70.06 297.83 69.17 299.38 67.11 302.26 63.93 
M 283.6 89.56 287.28 86.96 289.13 85.19 290.8 83.16 292.56 80.59 295.87 77.22 297.7 75.64 298.54 74.07 300.3 72.97 301.51 71.14 302.92 68.57 305.48 65.95 
M 287.62 90.62 289.54 89.49 292.97 86.38 296.9 82.29 298.16 80.52 301.07 77.48 302.3 74.88 302.75 73.07 
M 291.67 91.54 294.22 90.57 296.23 88.95 297.68 86.98 300.8 83.42 301.75 81.61 302.38 79.5 303.4 77.32 305.19 74.8 305.94 72.94 
M 295.72 92.46 298.6 91.2 303.66 86.36 304.92 82.82 306.23 80.23 307.85 78.16 
M 299.79 93.32 302.44 92.09 304.19 90.16 305.73 89.19 308.29 85.75 310.17 81 
M 303.86 94.15 306.13 93.16 309.77 90.18 311.27 87.97 313.06 83.28 314.38 81.39 315.28 80.59 
M 142.79 133.08 225.72 131.25 225.75 132.08 142.74 135.89 
M 142.73 136.79 215.01 138.89 214.99 139.72 142.67 139.58 
M 142.64 140.51 204.11 145.46 204.06 146.29 142.51 143.26 
M 142.4 144.19 193.12 150.96 193.03 151.78 142.1 146.9 
M 141.98 147.83 182.11 155.39 181.97 156.21 141.54 150.48 
M 141.39 151.4 171.15 158.75 170.98 159.56 140.92 153.98 
M 140.73 154.91 160.34 161.05 160.12 161.85 140.22 157.39 
M 140.08 158.44 149.73 162.31 149.48 163.1 139.83 160.73 
M 216.68 132.5 213.96 132.96 211.5 133.85 209.46 135.39 208.58 136.38 207.01 138.65 
M 206.99 139.7 204.32 139.91 201.88 140.57 199.8 141.9 198.89 142.8 197.21 144.9 
M 197.15 145.95 194.54 145.91 192.13 146.33 190.03 147.45 189.09 148.26 187.33 150.18 
M 187.21 151.23 184.69 150.94 182.34 151.13 180.23 152.05 179.26 152.76 177.42 154.5 
M 177.25 155.54 173.69 154.91 171.49 155.24 169.47 156.31 167.57 157.86 
M 167.35 158.89 163.97 157.92 161.83 158.04 159.8 158.91 157.84 160.27 
M 157.57 161.28 155.46 160.32 153.37 159.85 151.32 160.15 148.31 161.74 
M 147.99 162.74 146.18 161.34 144.28 160.44 142.26 160.29 139.81 160.92 
M 215.3 132.7 212.68 133.33 211.5 133.85 209.46 135.39 207.78 137.49 
M 187.2 134 184.74 134.75 183.41 135.74 182.32 137.11 
M 205.64 139.78 203.06 140.16 201.88 140.57 199.8 141.9 198.03 143.82 
M 180.92 139.76 179.25 140.01 177.77 140.65 175.98 142.39 
M 195.83 145.9 193.3 146.04 191.04 146.8 190.03 147.45 188.19 149.19 
M 174.55 144.9 172.15 145.18 170.78 145.91 169.58 147.04 
M 185.94 151.05 183.49 150.95 182.34 151.13 180.23 152.05 178.33 153.6 
M 176.04 155.24 173.69 154.91 171.49 155.24 170.46 155.69 168.51 157.05 
M 173.14 188.91 177.59 194.33 179.31 196.97 180.48 199.48 181.7 200.95 184.53 205.4 187.74 210.05 190.12 211.77 191.53 214.63 192.83 216.47 195.21 217.14 197.56 218.97 199.86 221.85 201.1 224.22 204.11 231.6 202.62 239.23 201.37 241.5 200.37 244.03 198.36 245.54 196.07 246.76 194.61 248.76 193.89 251.51 191.65 252.74 187.96 255.85 187 258.23 185.66 263.54 183.78 265.13 182.08 266.93 181.04 269.38 179.09 272.14 168.05 280 167.63 277.24 168.91 272.98 168.34 270.2 168.81 267.31 170.1 262.5 169.68 258.82 168.68 256.46 168.19 254.83 168.92 248.41 168.03 245.79 168.11 242.49 167.08 238.23 167 228.19 167.12 225.49 167.59 221.29 167.65 218.7 166.96 216.33 167.33 210.84 166.64 208.37 166.25 205.4 166.17 202.74 164.67 197.55 164.38 194.76 164.41 189.02 163.61 185.8 
M 171.56 188.39 174.02 191.48 176.9 196.5 178.06 199.13 178.58 201.28 181.47 204.97 183.71 209.6 185.32 212.13 
M 169.98 187.88 172.05 191.02 173.53 193.84 175.34 198.48 175.81 200.87 176.86 203.58 178.24 205.46 179.48 207.66 183.54 215.66 184.84 218.9 186.35 223.75 187.82 225.2 188.89 227.32 190.63 229.71 
M 168.4 187.36 170.08 190.6 172.05 196.01 172.66 198.17 172.89 200.76 174.52 205.82 175.83 208.08 177.28 209.71 177.96 212.48 179.39 215.73 179.95 219.18 182.22 227.75 183.55 230.08 185.77 232.4 186.65 235.79 187 239.18 
M 166.82 186.85 168.25 190.11 168.72 193 170.85 200.26 171.95 205.67 173.55 210.15 175.62 219.73 176.41 221.73 177.43 223.44 178.19 226.44 178.47 228.43 
M 165.24 186.33 166.31 189.63 166.86 195.3 167.43 197.77 169.24 203.06 169.87 208.36 170.65 210.81 170.43 213.19 171.51 221.53 172.55 223.91 172.78 225.94 173.4 228.55 173.37 230.59 172.87 235.17 173.75 237.99 173.74 243.53 174.87 249.29 176.91 252.34 178.21 257.62 178.26 260.54 178.94 265.11 179 266.96 180.3 271.37 
M 325.58 199.96 329.3 203.82 337.15 210.24 337.65 211.05 338.77 221.3 338.38 223.67 338.95 229.36 337 230.93 335.39 232.81 333.84 233.96 332.35 235.36 329.38 235.64 326.52 236.16 323.18 236.19 320.8 236.92 318.01 236.98 315.86 237.67 308.02 234.68 299.08 225.35 295.9 221.64 293.85 218.94 290.63 215.4 287.47 211.34 
M 321.69 201.42 324.57 204.49 329.68 207.9 334.98 212.19 336.05 214.29 
M 317.79 202.87 320.91 205.69 322.91 207.81 327.28 210.95 330.32 213.34 332.6 215.56 334.19 218.26 336.42 221.42 337.18 223.93 
M 313.88 204.28 316.8 207.33 318.9 209.93 320.8 211.64 322.82 212.99 327.92 217.68 329.83 219.22 332.16 221.94 334.32 224.99 336.28 227 337.26 228.94 
M 309.96 205.64 316.56 213.51 320.81 217.06 323.62 218.8 
M 306.02 206.97 310.74 212.91 315.73 218.19 318.04 220.12 
M 302.01 208.07 304.74 211.5 309.24 215.51 311.82 219.79 316.13 223.84 318.41 226.34 319.36 229.55 321.69 231.66 323.69 232.65 325.68 233.21 
M 298.01 209.17 304.95 216.84 306.86 219.32 308.44 221.86 310.36 223.71 311.15 225.38 313.87 228.07 315.33 230.18 
M 293.95 210.05 296.78 213.47 298.78 215.56 300.36 218.09 302.62 220.31 303.68 221.61 305.12 223.81 307.01 226.06 
M 289.87 210.86 292.45 214.2 294.88 216.99 298.45 221.78 299.92 223.44 302.88 228.22 304.61 230.12 305.79 231.88 
M 382.74 107.12 385.56 106.33 387.71 105.13 389.97 103.47 394.45 101.6 398.61 98.61 401.35 97.6 403.5 96.32 405.36 94.86 407.18 92.91 410.02 92.07 411.94 91.16 418.9 86.29 419.97 84.6 422.04 84.19 426.75 81.91 429.61 81.19 431.88 79.58 434.54 78.06 436.32 76.8 437.1 76.11 438.15 74.63 440.58 72.93 444.17 69.44 447.51 68.82 449.2 67.12 452.43 65.47 455.47 63.39 457.32 62.63 461 60.47 463.27 58.4 472.24 62.4 479.83 68.63 484.92 72.37 485.01 77.07 485.85 82.95 485.3 84.92 485.88 88.03 485.59 90.27 485.66 92.88 485.32 97.59 483.37 99.01 481.64 100.72 480.2 102.72 479.31 105.26 478.91 108.31 477.82 110.65 476.12 112.39 474.2 113.88 472.57 115.67 471.64 118.15 470.35 120.28 469.43 122.77 468.8 125.58 467.68 127.91 465.86 129.53 464.49 131.61 463.63 134.2 463.79 136.73 463.07 138.36 463.66 143.05 465.03 145.77 465.85 147.93 466.17 149.61 466.81 151.59 468.49 153.57 477.48 162.84 478.6 164.78 479.62 169.84 479.86 174.11 480.47 176.73 484.31 186.04 487.11 191.39 487.15 193.83 485.97 198.74 485.71 201.51 484.66 203.7 482.9 205.44 481.41 207.46 479.23 208.78 477.3 210.35 475.04 211.59 471.9 212.52 464.68 218.46 462.41 215.56 460.59 213.82 457.22 212.82 453.58 210.93 451.19 209.29 447.14 208.14 445.62 207.34 443.82 205.78 441.58 204.5 439.61 202.34 437.48 200.36 436.29 199.5 434.79 197.72 431.55 196.57 429.29 195.98 427.15 194.01 424.6 192.91 421.82 190.66 412.16 181.08 410.27 180.72 407.79 179.81 403.72 176.62 396.83 172.04 394.55 170.34 391.8 168.91 389.56 167.52 382.74 161.56 
M 382.74 110.76 387.86 108.88 392.37 106.62 396.51 105.1 398.26 104.15 403.36 102.1 408.91 99.18 410.96 97.61 418.31 93.41 420.6 93.02 424.11 92.16 426.34 90.22 429.1 88.61 432.23 87.4 436.56 84.92 438.43 82.97 439.91 83.27 441.24 82.1 444.24 80.8 446.71 76.82 449.17 75.56 452.14 75.01 
M 382.74 114.39 390.28 111.97 395.88 109.74 402.4 107.77 406.89 105.85 409.25 105.09 413.72 102.19 416.35 100.81 421.18 99.41 423.91 98.9 425.81 97.88 430.36 96.1 432.56 95.08 435.18 94.36 437.58 92.13 440.95 90.58 444.1 89.32 446.97 89.13 
M 385.56 117.67 391.01 116.03 396.26 115.15 398.78 114.07 403.68 112.33 405.56 111.85 407.8 110.84 410.59 110.21 412.51 109.02 416.9 107.7 419.89 106.46 422.2 105.78 424.28 104.56 426.81 103.7 429.1 103.77 431.67 103.36 433.69 102.49 436.56 101.65 
M 382.74 121.65 385.9 121.35 391.24 120.01 396.18 119.88 401.35 118.82 403.71 117.91 408.42 116.79 411.28 115.82 413.14 114.69 415.58 113.99 417.8 114.05 419.97 114.41 424.87 113.76 430.88 112.36 433.11 111.59 438.67 110.78 440.68 109.84 443.53 109.53 445.49 108.77 447.9 106.86 451.15 107.06 453.59 106.09 456.12 104.35 457.55 101.58 459.8 101.16 465.34 102.5 467.37 101.48 472.84 100.1 476.49 100.62 478.6 100.05 
M 386.03 125.15 391.67 124.49 396.06 124.5 398.23 124.13 401.22 123.95 404.13 123.22 409.2 122.48 416.26 119.99 419.44 120.14 425.89 119.28 427.83 118.75 435.13 117.95 437.41 118.51 439.55 118.56 441.47 118.15 444.52 116.93 446.55 115.59 451.08 114.69 453.6 114.63 457.24 115.49 462.66 115.18 464.41 114.82 465.89 113.46 471.35 112.71 473.5 113.43 
M 386.12 129.09 391.76 129.05 394.44 128.64 396.18 129.42 398.4 129.53 405.3 128.6 410.28 127.56 411.55 126.72 414.15 126.13 416.47 125.89 420.99 127.08 423.79 127.37 426.99 126.5 
M 388.84 133.15 394.16 133.08 397.15 133.75 400.12 134.02 402.09 133.7 407.32 133.72 410.16 133.79 412.31 134.23 419.2 133.74 422.1 133.77 424.59 133.2 430.6 133.71 434.53 133.34 436.31 132.43 
M 391.47 137.19 394.46 137.78 400.49 138.31 402.44 138.03 404.77 138.41 407.1 139.2 410.04 139.58 412.38 140.31 414.19 139.67 416.83 140.01 420.26 140.72 423.99 140.49 427.34 141.28 430.04 141.59 432.79 141.43 435.55 140.89 
M 390.94 141.73 393.8 141.96 399.34 142.71 402.31 143.67 404.86 144.76 407.1 145.18 409.2 145.43 411.99 144.73 414.44 144.86 416.85 145.51 421.63 147.45 424.99 148.21 426.87 148.85 429.15 149.04 432.1 149.51 435.02 149.66 437.74 148.6 
M 388.04 145.29 390.65 146.03 393.78 146.41 398.79 147.6 401.39 148.5 403.52 149.55 406.15 150.06 411.41 151.44 416.7 150.99 419.96 152.79 422.95 153.64 425.48 153.52 427.23 154.46 429.62 156.25 432.33 156.26 436.62 156.9 439.43 156.93 442.23 158.23 446.53 158.08 448.88 158.28 454.27 160.55 
M 388.15 149.68 390.78 150.75 398.02 152.82 403.04 154.94 408.32 155.97 411.5 156.3 413.93 156.74 416.5 157.7 418.8 158.3 421.27 159.94 424.08 161.33 428.43 162.72 431.54 162.77 434.35 163.1 436.2 164.97 438.98 165.66 442.41 165.97 444.96 166.73 
M 385.72 152.34 388.23 153.84 390.6 155.03 395.87 156.22 398.29 157.44 400.61 158.02 408.1 161.48 411.13 162.54 415.88 163.26 420.65 166.33 424.89 168.36 427.22 168.94 432.51 171.71 440.46 173.4 443.24 173.83 444.83 175.26 447.17 176.57 449.1 178.79 451.66 180.1 453.7 180.65 455.68 180.82 458.17 181.35 
M 388.2 157.67 393.33 160.22 395.43 161.05 398.01 161.79 406.69 166.38 409.16 167.33 411.59 168.71 421.37 172.85 422.65 174.08 427.18 176.51 431.53 180.28 434.14 181.3 437.11 181.39 439.53 182.42 441.01 183.5 443.26 184.76 445.2 186.16 447.81 186.37 450.21 187.76 452.75 189.56 458.49 193 460.9 193.11 462.57 194.64 465.46 196.07 468 196.8 470.18 198.23 473.45 198.73 475.97 200.25 478.82 202.42 
M 390.57 163.27 392.65 164.62 397.86 167.33 400.32 169.04 402.58 169.77 404.14 170.46 405.82 172 407.97 173.62 410.88 174.94 416.35 176.02 418.1 177.38 419.51 179.37 425.85 184.62 428.44 186.35 431.72 187.98 434.4 188.78 436.2 189.97 437.91 190.55 440.78 192.57 446.09 193.92 448.06 195.73 453.17 199.39 457.47 201.69 459.34 201.62 463.03 202.86 
M 361.87 182.63 358.85 184.11 357.7 185.3 357.03 186.79 356.54 188.47 355.21 189.45 350.06 188.17 347.2 189.61 346 190.76 344.02 193.44 342.57 193.58 339.26 192.73 333.32 194.76 335.11 196.54 
M 61.46 117.31 63.1 115.51 65.56 113.59 71.91 110.15 75.37 107.76 79.87 106.02 85.11 104.23 90.57 101.63 95.93 98.33 102.01 94.97 108.48 91.83 115.03 88.87 121.53 86.42 127.55 84.67 138.29 81.93 144.5 80.94 146.04 86.21 146.53 91.4 146.82 96.58 146.9 106.88 146.67 112 145.94 117.08 143.37 127.12 142.8 132.21 142.6 142.48 142.02 147.57 141.19 152.63 140.16 157.68 139.6 162.77 138.79 167.84 137.71 172.88 135 177.84 125.07 177.97 117.71 177.56 111 176.45 104.58 174.57 98.21 171.72 92.7 168.4 88.3 165.1 84.12 161.13 80.34 156.54 76.74 151.68 
M 74.81 148.86 70.46 142.28 68.2 138.14 65.71 133.02 
M 126.12 109.25 124.92 113.54 123.29 117.63 122.18 121.58 120.69 128.88 119.74 132.03 119.09 135.16 118.78 138.27 120.47 148.23 119.99 152.33 108.77 153.72 104.01 154 99.06 153.55 93.84 152.02 89.17 149.73 85.44 147.03 
M 75.81 150.88 73.5 146.21 70.47 140.89 62.82 128.41 59.02 121.09 58.88 119 60.29 117.33 62.25 117.3 63.39 119.04 66.46 127.09 75.05 145.87 77.06 151.52 
M 75.01 151.6 64.77 148.45 60.85 147.36 56.67 146.46 52.81 145.19 34.92 139.99 33.21 138.86 32.84 136.78 34.1 135.28 36.24 135.3 59.27 144.37 67.14 147.21 75.7 150.83 
M 76.07 150.99 76.83 151.31 
M 96.18 117.35 94.97 112.73 95.31 107.97 97.19 103.58 100.38 100.04 104.56 97.73 109.26 96.89 113.97 97.63 118.19 99.86 121.46 103.34 123.42 107.69 123.86 112.44 122.74 117.08 120.17 121.1 116.43 124.07 111.93 125.67 107.16 125.71 102.63 124.21 98.83 121.31 96.18 117.35 
M 96.01 116.94 95.43 115.24 95.06 113.48 94.91 111.69 94.98 109.89 95.28 108.12 95.79 106.4 96.51 104.76 97.43 103.21 98.54 101.79 99.81 100.52 101.22 99.42 102.77 98.5 104.41 97.78 106.13 97.27 107.91 96.97 109.7 96.9 111.49 97.04 113.25 97.41 114.95 98 
M 97.54 116.3 96.7 113.24 96.57 111.66 96.89 108.52 
M 99.77 102.91 100.91 101.77 102.16 100.79 103.53 99.98 106.51 98.89 109.67 98.56 111.25 98.69 114.31 99.53 
M 99.08 115.67 98.35 113 98.23 111.62 98.46 109.21 
M 101.11 103.91 103.1 102.16 104.29 101.46 106.88 100.5 109.63 100.22 111.01 100.33 113.68 101.07 
M 100.62 115.03 99.99 112.76 99.89 111.59 100.06 109.73 
M 102.36 105.01 104.04 103.54 105.05 102.93 107.26 102.12 109.6 101.88 110.77 101.98 113.04 102.6 
M 102.15 114.39 101.64 112.52 101.66 110.16 
M 103.56 106.15 104.97 104.91 105.81 104.41 107.63 103.74 109.56 103.54 111.49 103.82 112.41 104.14 
M 104.12 113.77 103.63 111.93 103.72 110.66 
M 105.15 107.57 105.8 106.85 107.46 105.92 109.34 105.59 111.23 105.89 112.92 106.78 114.23 108.17 115.01 109.91 115.19 111.81 114.74 113.67 113.71 115.27 112.21 116.46 110.41 117.1 108.5 117.12 106.69 116.52 105.18 115.36 104.12 113.77 
M 106.24 106.6 105.57 107.94 
M 104.16 110.76 103.64 111.81 
M 107.86 105.85 106.49 108.6 
M 105.26 111.05 104.04 113.49 
M 109.23 105.61 107.42 109.22 
M 106.35 111.37 104.71 114.66 
M 110.4 105.76 108.31 109.94 
M 107.61 111.35 105.48 115.59 
M 111.51 106.03 109.18 110.7 
M 109.07 110.92 106.39 116.28 
M 112.5 106.56 107.4 116.75 
M 113.38 107.27 108.47 117.11 
M 114.2 108.14 109.71 117.11 
M 114.8 109.44 111.08 116.86 
M 115.13 111.25 112.74 116.05 
M 71.25 143.5 72.87 145.12 
M 64.29 121.58 64.51 121.8 
M 63.16 115.46 66.89 119.19 
M 66.03 113.35 70.38 117.7 
M 69.3 111.63 73.05 115.38 
M 72.44 109.79 75.23 112.58 
M 75.4 107.75 80.19 112.55 
M 78.99 106.36 83.3 110.67 
M 82.68 105.06 86.36 108.75 
M 86.27 103.67 89.63 107.03 
M 89.65 102.06 93.93 106.34 
M 92.82 100.24 95.35 102.77 
M 95.9 98.34 99.06 101.5 
M 99.11 96.57 101.8 99.25 
M 102.34 94.81 105.15 97.62 
M 105.7 93.18 108.91 96.39 
M 109.07 91.56 112.49 94.98 
M 112.5 90.01 116.08 93.59 
M 115.99 88.51 119.04 91.57 
M 119.61 87.14 124.14 91.67 
M 123.34 85.89 127.32 89.87 
M 127.2 84.77 130.53 88.09 
M 131.13 83.71 133.89 86.47 
M 135.11 82.7 139.76 87.35 
M 139.17 81.78 143.92 86.53 
M 143.46 81.08 144.48 82.1 
M 131.16 174.21 128.37 174.25 127.65 174.16 127.17 173.91 126.75 173.23 127.38 171.04 
M 106.97 140.71 106.43 139.06 106.02 135.66 105.41 133.92 105.45 133.09 
M 101.85 173.34 103.91 171.52 104.92 170.09 
M 113.26 173.12 111.7 174.39 110.17 176.21 
M 96.06 154.04 95.89 151.89 96.03 151.01 96.48 148.75 97.16 147.2 
M 96.31 98.45 97.1 97.68 
M 105.59 152.1 104.42 151.32 103.6 150.31 103.01 149.25 102.41 147.74 102.52 144.96 102.41 143.98 101.67 143.15 101.08 142.86 
M 140.76 102.29 139.68 101.16 138.6 99.61 138.39 97 
M 144.92 121.36 144.27 118.98 143.64 117.43 
M 114.42 94.99 115.63 93.64 117.28 92.94 117.86 92.96 118.23 93.17 119.16 94.29 120.26 95.23 
M 115.41 98.39 115.38 96.85 115.56 95.82 116.25 94.33 117.12 93.63 118.11 93.57 
M 142.61 141.84 142.37 141.77 
M 66.72 135.14 67.02 135.23 
M 81.22 105.7 75.01 108.01 
M 73.54 109.03 73.21 109.54 
M 95.35 114.16 93.81 113.62 
M 120.14 157.55 119.64 156.67 
M 138.58 162.78 137.98 163.44 137.29 163.8 135.8 164.22 133.82 164.11 133.24 164.21 131.38 165.19 
M 133.24 118.27 131.79 117.96 129.6 118.25 128.45 118.7 127.4 119.73 126.5 120.03 
M 141.04 118.01 140.67 117.29 139.89 116.41 139.77 115.89 141.14 112.36 
M 88.8 102.47 87.83 103.37 82.89 105.49 
M 105.26 132.67 105.85 130.32 108.19 125.7 
M 115.17 149.03 113.08 148.96 110.88 148.18 
M 132.28 163.48 129.78 164.48 129 164.57 127.79 164.24 127.44 163.99 127 162.69 
M 111.43 165.01 111.55 164.37 113.11 162.03 113.94 160.2 114.9 157.08 115.1 154.7 
M 101.36 137.77 101.42 139.02 101.25 139.47 100.08 140.81 98.11 142.53 
M 129.45 145.27 127.91 144.94 127.46 144.69 126.96 143.74 126.26 140.56 125.62 139.57 124.81 139.17 
M 99.78 126.83 97.03 128.69 95.18 130.46 94.8 131.03 
M 112.71 165.92 112.2 165.22 111.97 164.42 112.28 163.6 113.27 161.91 114.07 160 114.78 157.87 115.08 155.89 
M 76.45 108.84 74.57 109.5 73.89 110.01 68.52 115.08 
M 131.75 86.72 131.98 86.49 132.16 86.66 
M 72.57 117.68 74.62 117.47 76.26 117.58 80.6 116.7 
M 136.13 114.82 135.68 114.34 134.88 112.61 134.3 111.82 133.98 110.75 
M 121.31 157.04 120.16 156.27 119.63 156.64 
M 130.73 133.04 132.25 132.13 132.83 131.59 134.63 129.25 134.84 128.57 134.9 127.14 134.35 125.05 134.23 123.71 
M 120.61 123.39 119.5 123.07 118.73 122.24 
M 68.56 137.86 68.43 138 
M 92.28 161.94 90.62 160.99 89.57 159.81 88.34 157.04 88.49 154.08 89.37 152.57 90.06 151.89 
M 116.5 90.67 117.55 90.49 118.99 91.11 120.8 94.02 
M 85.43 132.98 87.13 130.18 87.61 130.27 89.61 131.99 
M 77.56 152.48 76.72 153.2 76.14 154.01 75.72 154.96 75.45 157.08 75.97 159.22 76.51 160.2 77.23 161.04 78.12 161.67 79.17 161.98 80.29 161.91 81.38 161.51 82.37 160.85 83.22 159.98 83.91 158.96 84.64 156.6 84.04 159.03 83.46 160.15 82.67 161.17 81.68 162.02 80.48 162.61 79.13 162.85 77.74 162.62 76.5 161.96 75.48 161.02 74.67 159.9 74.08 158.65 73.71 157.3 73.59 155.89 73.73 154.46 74.15 153.06 74.88 151.75 75.8 150.71 
M 76.72 151.68 77.04 152.34 
M 74.67 148.58 74.56 149.18 74.99 149.24 
M 73.11 145.54 72.66 146.1 72.44 146.77 72.88 146.55 73.67 146.55 
M 71.51 142.7 70.71 143.47 70.32 144.36 70.93 143.92 72.09 143.75 
M 69.84 139.93 68.76 140.83 68.2 141.95 68.97 141.28 70.5 140.95 
M 68.15 137.18 66.8 138.2 66.08 139.54 67.02 138.65 68.75 138.18 
M 66.54 134.37 64.85 135.56 63.96 137.13 65.07 136.01 67.11 135.39 
M 64.82 131.63 62.89 132.93 61.83 134.72 63.11 133.38 65.45 132.61 
M 63.12 128.89 60.94 130.3 59.71 132.31 61.16 130.74 63.72 129.86 
M 61.56 126.04 58.99 127.66 57.59 129.9 59.2 128.11 62.1 127.06 
M 60.06 123.17 57.03 125.03 55.47 127.49 57.25 125.48 60.61 124.22 
M 58.95 120.06 55.08 122.39 53.35 125.08 55.3 122.84 59.16 121.36 
M 76.72 151.61 77.47 151.87 
M 73.78 150.01 74.01 149.97 74.07 150.13 
M 70.66 148.68 71.34 148.34 71.31 148.95 
M 67.66 147.44 67.96 147.09 68.68 146.72 68.44 147.25 68.47 147.8 
M 64.62 146.32 65.14 145.62 66.01 145.09 65.61 145.78 65.58 146.69 
M 61.61 145.22 62.31 144.14 63.34 143.47 62.78 144.31 62.67 145.58 
M 58.63 144.12 59.48 142.67 60.67 141.84 59.95 142.83 59.73 144.54 
M 55.68 142.96 56.66 141.2 58 140.22 57.13 141.36 56.8 143.4 
M 52.74 141.78 53.83 139.72 55.34 138.59 54.3 139.88 53.87 142.24 
M 49.78 140.66 51 138.25 52.67 136.96 51.47 138.41 50.94 141.08 
M 46.85 139.48 48.18 136.77 50 135.34 48.65 136.94 48.01 139.94 
M 43.9 138.35 45.35 135.3 47.33 133.71 45.82 135.46 45.07 138.79 
M 40.96 137.2 42.52 133.83 44.67 132.09 42.99 133.99 42.13 137.67 
M 38.04 136 39.69 132.35 42 130.46 40.17 132.51 39.21 136.49 
M 34.9 135.29 36.87 130.88 39.33 128.84 37.34 131.04 36.28 135.31 
M 41.33 141.86 51.58 148.83 57.39 152.29 63.26 155.34 69.27 158.11 75.1 160.49 
M 77.97 161.56 78.82 161.87 
M 80.64 162.54 88.3 165.1 
M 145.66 84.93 151.09 90.36 
M 147.41 80.03 154.95 87.57 
M 152.49 78.46 158.37 84.34 
M 157.27 76.59 165.2 84.52 
M 161.9 74.57 170.44 83.12 
M 166.56 72.59 171.77 77.79 
M 171.23 70.61 177.79 77.17 
M 176.33 69.05 185.75 78.47 
M 181.71 67.79 187.37 73.45 
M 187.96 67.39 193.56 72.99 
M 194.71 67.49 199.85 72.63 
M 202.06 68.19 208.81 74.94 
M 209.64 69.13 216.51 76 
M 217.63 70.46 225.28 78.11 
M 226.29 72.48 231.57 77.76 
M 235.69 75.23 241.92 81.46 
M 245.37 78.26 253.45 86.34 
M 254.82 81.06 263.13 89.38 
M 264.2 83.8 272.15 91.75 
M 273.81 86.76 282.44 95.39 
M 283.15 89.44 289.08 95.38 
M 291.96 91.6 298.2 97.85 
M 300.45 93.45 309.42 102.42 
M 308.71 95.06 316.09 102.44 
M 316.68 96.38 325.82 105.52 
M 324.32 97.38 333.1 106.15 
M 331.74 98.15 337.84 104.25 
M 339.36 99.12 348.09 107.85 
M 347.32 100.43 355.95 109.06 
M 355.54 102 362.4 108.86 
M 363.6 103.41 370.86 110.67 
M 371.32 104.49 381.1 114.27 
M 379.9 106.42 382.58 109.09 
M 170.5 184.16 172.83 188.81 
M 170.7 178.73 176.2 189.74 
M 170.94 173.39 179.57 190.65 
M 170.44 166.58 182.93 191.55 
M 170.69 161.27 186.23 192.35 
M 170.75 155.56 189.54 193.14 
M 173.34 154.93 192.84 193.92 
M 176.46 155.34 196.11 194.65 
M 178.44 153.5 199.38 195.37 
M 180.54 151.88 202.64 196.08 
M 173.16 131.29 174.34 133.66 
M 183.02 151.02 205.87 196.73 
M 174.19 127.53 177.21 133.58 
M 185.95 151.05 209.11 197.37 
M 175.22 123.78 180.08 133.5 
M 188.02 149.39 212.43 198.2 
M 176.2 119.93 182.95 133.42 
M 189.98 147.49 215.93 199.38 
M 177.11 115.92 185.82 133.35 
M 192.29 146.29 219.43 200.56 
M 178.01 111.91 188.69 133.27 
M 195.01 145.9 222.68 201.25 
M 178.91 107.9 191.56 133.19 
M 197.33 144.74 223.51 197.1 
M 179.08 102.41 194.43 133.11 
M 199.14 142.54 222.93 190.12 
M 178.51 95.45 197.3 133.03 
M 201.24 140.91 223.1 184.65 
M 178.68 89.97 200.17 132.95 
M 203.71 140.04 221.79 176.2 
M 178.1 83.01 203.03 132.87 
M 206.46 139.73 221.22 169.24 
M 177.62 76.23 205.9 132.79 
M 208.06 137.11 221.48 163.94 
M 176.88 68.92 208.77 132.71 
M 209.91 134.99 222.59 160.35 
M 179.48 68.31 211.64 132.63 
M 212.12 133.58 222.96 155.28 
M 182.08 67.7 214.51 132.56 
M 214.65 132.83 223.34 150.21 
M 184.89 67.49 223.17 144.05 
M 187.75 67.4 223.8 139.5 
M 189.8 65.68 224.36 134.81 
M 191.09 62.44 221.94 124.14 
M 265.05 210.36 266.26 212.79 
M 192.38 59.21 221.74 117.93 
M 265.6 205.64 269.17 212.78 
M 193.67 55.97 221.55 111.72 
M 266.14 200.92 272.02 212.68 
M 195.31 53.44 221.7 106.21 
M 267.04 196.9 274.88 212.57 
M 197.03 51.06 221.93 100.86 
M 268.02 193.04 277.73 212.46 
M 198.6 48.38 222.02 95.21 
M 268.85 188.87 280.49 212.16 
M 200.69 46.73 222.61 90.59 
M 269.44 184.25 283.24 211.84 
M 203.49 46.53 221.71 82.95 
M 270.02 179.59 285.99 211.52 
M 205.88 45.48 221.86 77.44 
M 270.17 174.07 288.69 211.1 
M 208 43.91 221.75 71.41 
M 269.32 166.56 291.33 210.57 
M 209.79 41.68 220.57 63.23 
M 268.89 159.87 293.98 210.05 
M 212.46 41.18 220.26 56.79 
M 268.58 153.42 296.62 209.52 
M 215.02 40.49 219.85 50.16 
M 266.68 143.81 299.19 208.84 
M 217.39 39.42 219.99 44.62 
M 265.33 135.31 301.75 208.14 
M 219.32 37.45 220.43 39.68 
M 265.03 128.88 304.31 207.44 
M 264.47 121.94 306.86 206.72 
M 263.5 114.18 309.34 205.86 
M 262.54 106.46 311.81 205 
M 262.13 99.81 313.42 202.39 
M 262.3 94.33 314.33 198.39 
M 262.04 87.99 314.07 192.06 
M 261.61 81.32 312.9 183.9 
M 261.99 76.26 312.53 177.35 
M 262.57 71.6 312.37 171.21 
M 263.7 68.04 311.27 163.19 
M 263.89 62.6 311.46 157.75 
M 264.33 57.67 311.16 151.33 
M 264.25 51.69 310.33 143.86 
M 265.22 47.81 309.07 135.52 
M 265.84 43.25 306.73 125.01 
M 266.84 39.42 305.49 116.73 
M 267.2 34.32 305.11 110.14 
M 269.52 33.15 304.83 103.76 
M 272.15 32.58 305.22 98.74 
M 275.1 32.67 304.46 91.39 
M 278.4 33.46 304.79 86.24 
M 283.41 37.66 284.87 40.59 
M 285.01 40.87 305.45 81.75 
M 358.01 186.86 358.26 187.36 
M 287.83 40.68 306.04 77.1 
M 358.34 181.71 360.55 186.13 
M 290.64 40.49 306.62 72.45 
M 358.49 176.18 362.85 184.9 
M 293.66 40.7 307.41 68.2 
M 357.14 167.67 365.03 183.45 
M 297.01 41.6 307.79 63.15 
M 357.28 162.13 367.15 181.88 
M 302.52 46.79 308.84 59.43 
M 356.63 155.02 369.27 180.3 
M 307.21 50.36 309.07 54.08 
M 357.46 150.86 371.4 178.73 
M 357.55 145.21 373.44 177 
M 356.21 136.71 375.03 174.36 
M 354.89 128.26 376.62 171.72 
M 352.09 116.84 378.21 169.09 
M 351.57 109.98 379.8 166.45 
M 351.81 104.66 381.39 163.81 
M 353.18 101.57 382.74 160.7 
M 356.37 102.14 382.74 154.88 
M 359.56 102.7 382.74 149.06 
M 362.75 103.26 382.74 143.25 
M 365.89 103.73 382.74 137.43 
M 369.02 104.17 382.74 131.61 
M 372.15 104.6 382.74 125.79 
M 375.4 105.29 382.74 119.98 
M 378.72 106.12 382.74 114.16 
M 382.05 106.95 382.74 108.34 
M 234.23 291.39 229.94 297.7 
M 234.23 291.39 234.74 297.7 
M 231.47 295.6 234.47 295.6 
M 237.5 293.5 236.6 296.5 236.63 297.39 237.14 297.7 238.04 297.7 238.73 297.39 239.9 296.5 
M 240.8 293.5 239.54 297.7 
M 243.2 293.5 241.94 297.7 
M 242.83 294.7 244.01 293.8 244.7 293.5 245.6 293.5 246.11 293.8 246.14 294.7 245.24 297.7 
M 248.9 293.5 248 296.5 248.02 297.39 248.54 297.7 249.44 297.7 250.13 297.39 251.3 296.5 
M 252.2 293.5 250.94 297.7 
M 257.33 294.39 257.21 293.8 256.39 293.5 255.5 293.5 254.51 293.8 254.02 294.39 254.15 295 254.66 295.3 256.07 295.6 256.58 295.89 256.61 296.8 256.13 297.39 255.14 297.7 254.24 297.7 253.43 297.39 253.31 296.8 
M 262.7 293.5 261.44 297.7 
M 262.33 294.7 263.51 293.8 264.2 293.5 265.1 293.5 265.61 293.8 265.64 294.7 264.74 297.7 
M 265.64 294.7 266.81 293.8 267.5 293.5 268.39 293.5 268.9 293.8 268.94 294.7 268.03 297.7 
M 270.86 295.3 274.45 295.3 274.64 294.7 274.52 294.1 273.8 293.5 272.89 293.5 272.2 293.8 271.43 294.39 270.86 295.3 270.68 295.89 270.7 296.8 271.13 297.39 271.64 297.7 272.53 297.7 273.22 297.39 274.01 296.8 
M 278.02 291.39 276.5 296.5 276.52 297.39 277.03 297.7 277.64 297.7 
M 276.5 293.5 278.59 293.5 
M 281.02 291.39 281.24 291.7 281.63 291.39 281.41 291.1 281.02 291.39 
M 280.7 293.5 279.44 297.7 
M 285.83 294.39 285.7 293.8 284.89 293.5 284 293.5 283.01 293.8 282.52 294.39 282.64 295 283.15 295.3 284.57 295.6 285.08 295.89 285.11 296.8 284.63 297.39 283.64 297.7 282.74 297.7 281.93 297.39 281.81 296.8 
M 287.41 297.1 287.02 297.39 287.24 297.7 287.63 297.39 287.41 297.1 
"/></svg>
