<svg xmlns="http://www.w3.org/2000/svg" width="520" height="320"><rect x="0" y="0" width="520" height="320" fill="floralwhite"/><rect x="10" y="10" width="500" height="300" stroke="black" stroke-width="1" fill="none"/><path stroke="black" stroke-width="1" fill="none" stroke-linecap="round" stroke-linejoin="round" d="
M 130.66 122.22 141.27 120.57 151.82 120.21 162.31 121.29 172.72 123.02 183.17 124.48 193.69 125.31 204.24 125.64 225.34 125.82 235.89 125.64 246.43 125.2 256.98 125.04 267.53 125.29 278.07 125.78 288.6 126.54 299.09 127.62 320 130.51 340.83 133.9 372.01 139.38 382.37 141.39 402.95 146.03 413.19 148.61 422.79 152.07 
M 422.79 170.05 415.46 172.08 405 173.43 394.48 174.25 373.41 175.52 310.24 179.8 299.76 180.98 289.4 182.98 279.24 185.84 259.19 192.42 249.06 195.39 238.86 198.06 228.53 200.21 218.09 201.8 207.6 202.91 197.07 203.6 186.52 203.75 175.98 203.29 154.97 201.28 144.44 200.57 142.2 200.27 
M 149.51 151.85 156.77 152.7 
M 174.29 155.6 178.39 156.61 
M 182.81 157.85 185.6 158.59 
M 254.53 159.17 256.57 158.63 260.18 157.02 263.99 155.56 268.22 154.46 274.86 153.02 
M 279.27 152.03 289.9 149.47 292.17 149.17 
M 296.88 148.88 301.68 148.86 
M 306.16 148.64 319.8 147.21 326.4 146.06 330.17 146.18 336.41 147.06 
M 340.72 147.83 342.89 148.25 347.7 149.57 352.77 151.21 357.35 152.38 365.29 153.55 371.69 154.91 
M 376.03 155.89 390.19 158.5 401.44 160.1 408.69 160.8 418.52 160.62 422.79 161.19 
M 142.57 131.49 141.43 132.82 
M 148.2 188.73 150.74 194.23 
M 154.02 134.64 151.77 137.51 
M 149.47 140.33 147.18 143.19 
M 156.17 183.92 162.18 198.44 
M 154.62 148.29 152.43 152.11 
M 168.92 191.78 170.68 195.76 
M 172.43 199.73 173.78 203.07 
M 166.17 147.16 164.95 148.45 162.76 151.27 161.56 153.22 
M 176.17 187.11 182.13 199.66 183.82 203.63 
M 188.2 136.19 186.01 138.97 
M 183.74 141.67 180.18 145.54 176.28 149.06 
M 186.26 187.95 188.6 193.15 191.62 199.26 
M 187.86 151.87 186.77 153.24 184.24 155.63 182.95 156.6 
M 202.59 200.64 203.98 203.15 
M 206.78 141.71 205.57 143.02 203.41 145.87 198.55 153.4 
M 205.48 186.21 206.85 189.08 
M 208.71 192.74 210.67 196.52 
M 212.53 200.22 213.52 202.28 
M 212.88 148.2 210.66 151.01 
M 208.64 154 205.93 158.98 
M 216.26 186.18 219.28 192.44 
M 220.54 195.4 222.72 200.47 
M 226.89 146.66 225.88 148.25 224.62 149.57 
M 222.05 152.12 220.73 153.36 218.5 156.21 216.87 159.2 
M 225.77 182.77 227.24 185.76 
M 228.85 188.91 230.43 192.06 
M 240.51 137.66 239 141.71 
M 235.26 148.84 233.05 151.96 
M 228.45 157.83 227.44 159.41 
M 236.9 181.79 237.18 182.32 
M 238.99 185.54 243.83 194.08 244.97 196.46 
M 247.48 143.4 243.04 153 238.65 159.63 
M 249.5 182.01 252.6 187.19 255.14 191.91 
M 260.79 138.09 259.85 140.17 255.59 147.83 252.09 155.95 249.09 159.83 
M 257.33 173.4 258.14 174.75 
M 260.06 177.96 262.78 182.69 266.22 190.17 
M 269.25 139.71 268.37 141.96 266.29 146.08 261.56 153.52 259.67 157.25 
M 269.72 172.58 274.29 181.28 
M 277.95 142.09 273.07 149.92 
M 271.15 152.89 270.48 153.94 
M 276.52 163.09 278.19 165.77 
M 280.34 169.26 288.66 183.19 
M 296.84 129.19 295.45 131.07 291.94 137.4 
M 289.29 141.31 285.05 146.89 282.18 151.29 
M 288.07 160.31 296.36 173.78 300.22 180.93 
M 302.04 135.97 299.74 140.26 
M 294.75 147.58 293.65 148.9 
M 303.55 163.92 305.72 167.74 
M 308.59 174.08 311.27 179.73 
M 316.51 130 313.7 133.75 311.38 137.9 306.18 148.64 
M 312.13 158.57 313.95 162.12 
M 315.49 165.47 321.85 178.99 
M 325.97 131.46 325.13 132.57 
M 322.6 136.26 321.41 138.2 316.64 147.48 
M 323.12 160.13 327.46 169.27 332.26 178.35 
M 332.74 137.77 331.14 139.21 328.27 142.47 325.76 146.12 
M 333.26 159.96 342.96 177.62 
M 349.42 135.41 348.53 136.5 345.49 139.41 340.41 143.36 
M 337.51 145.86 336.27 147.01 
M 342.69 157.69 349.14 168.47 353.86 176.9 
M 360.46 137.73 359.06 139.24 356.55 142.59 353.86 145.82 350.5 148.42 348.35 149.78 
M 349.98 152.18 353.09 156.85 
M 358.23 165.14 364.32 176.2 
M 368.94 144.31 367.35 145.6 364.45 148.53 360.53 152.88 
M 364.54 158.96 367.2 162.99 
M 369.72 166.89 372.79 172 374.54 175.45 
M 383.7 145.93 380.52 148.43 
M 377.22 150.85 373.51 153.45 
M 378.13 164.45 384.78 174.81 
M 390.67 151.35 385.91 155.02 382.68 157.14 
M 386.48 162.36 389.14 165.95 
M 391.73 169.45 395.09 174.21 
M 406.18 148.67 401.48 152.24 393.18 158.99 
M 397.33 164.05 404.86 173.44 
M 415.38 150.93 403 160.29 
M 404.5 161.84 407.36 164.81 
M 409.8 167.33 414.57 172.2 
M 422.79 155.11 419.17 156.7 415.79 158.48 412.25 160.76 
M 418.81 165.45 422.79 168.4 
M 416.09 163.89 413.93 162.57 412.94 162.3 411.61 162.47 410.9 163.13 410.31 164.43 410.26 165.2 410.51 166.68 
M 199.58 127.46 196.63 126.15 196.26 125.39 
M 179.69 197.91 177.67 197.04 176.35 195.47 175.92 194.14 175.52 191.4 
M 235.6 196.3 234.37 197.17 233.86 198.29 233.77 199.12 
M 292.08 181.11 289.33 181.38 287.03 181.35 286.22 181.2 285.35 180.68 
M 325.58 145.56 326.34 146.22 328.13 147.14 329.48 147.27 330.5 146.86 330.89 146.99 331.05 147.29 
M 173.33 201.97 172.33 202.93 
M 255.04 187.3 254.51 187.44 254.14 187.29 252.35 185.27 
M 241.61 193.3 239.37 193.71 235.45 193.5 233.45 194.25 231.53 195.99 230.14 196.87 229.37 196.99 227.69 196.83 
M 347.73 135.11 346.15 136.11 345.48 136.74 
M 271.27 169.83 271.83 168.43 271.81 167.18 272.19 165.01 
M 274.29 160.32 274.76 159.59 275.78 157.27 
M 287.07 183.43 285.19 182.49 282.76 180.84 282.49 180.57 282.26 179.92 282.52 178.89 
M 336.06 171.18 337.1 169.55 337.38 168.49 336.88 166.16 336.26 160.87 335.42 157.81 
M 185.01 139.61 183.59 139.47 182.14 139.02 179.47 136.79 176.33 134.82 174.6 133.98 173.02 132.76 
M 299.88 138.42 301.07 137.7 302.05 136.25 303.9 135.71 
M 226.64 125.8 227.29 127.2 228.17 128.1 
M 308.81 174.95 306.49 173.21 305.78 172.23 305.14 170.86 304.94 169.98 304.95 169.09 305.21 168.37 306.27 166.65 
M 173.94 123.19 173.41 123.74 
M 221.42 200.32 219.92 201.52 
M 217.8 201.83 216.51 201.57 214.67 202.16 
M 399.53 169.53 399.83 170.91 399.73 171.69 
M 245.95 194.08 245.46 194.6 244.36 195.3 242.04 194.83 240.66 194.93 238.98 195.32 236.92 196.39 
M 198.66 125.27 200.42 125.6 
M 213.54 125.41 223.24 83.79 224.21 83.99 217.1 125.78 
M 228.42 125.4 240.51 70.79 241.48 70.98 231.99 125.72 
M 243.3 124.89 255.9 70.97 256.87 71.17 246.88 125.18 
M 258.2 124.6 274.9 66.67 275.86 66.92 261.75 125.11 
M 273.1 125.05 288.88 81.32 289.82 81.63 276.63 125.7 
M 287.98 125.98 302.88 91.45 303.8 91.81 291.48 126.79 
M 302.81 127.53 318.73 95.62 319.63 96.03 306.26 128.51 
M 315.33 129.24 316.94 130.03 
M 201.11 125.61 206.86 117.95 209.6 113.97 212.17 109.89 214.53 105.69 216.69 101.38 218.66 96.97 222.27 87.95 
M 223.49 88.2 227.78 86.56 229.8 85.59 231.7 84.45 233.45 83.12 235.07 81.6 236.56 79.92 239.3 76.25 
M 240.53 76.49 243.67 77.74 245.25 78.17 246.82 78.39 248.38 78.37 249.95 78.12 251.51 77.66 254.64 76.36 
M 255.86 76.62 260.02 76.93 262.05 76.9 264.03 76.67 265.96 76.21 267.84 75.52 269.67 74.62 273.23 72.46 
M 274.44 72.78 276.39 76.55 277.51 78.3 278.77 79.9 280.2 81.33 281.79 82.6 283.54 83.72 287.3 85.69 
M 288.49 86.08 290.63 89.1 291.82 90.44 293.12 91.62 294.55 92.6 296.12 93.38 297.8 94 301.39 94.9 
M 302.55 95.36 305.5 97.37 307.02 98.18 308.58 98.8 310.2 99.18 311.88 99.33 313.6 99.29 317.14 98.81 
M 318.28 99.33 316.58 106.01 315.93 109.36 315.48 112.73 315.27 116.11 315.29 119.51 315.52 122.91 316.37 129.75 
M 225.66 87.41 229.8 85.59 231.7 84.45 233.45 83.12 235.07 81.6 237.95 78.12 
M 225.15 94.12 228.56 92.62 231.58 90.58 232.91 89.33 235.29 86.46 
M 224.63 100.83 227.33 99.64 229.7 98.04 230.75 97.06 232.63 94.79 
M 224.12 107.54 226.09 106.67 227.82 105.5 229.96 103.13 
M 242.1 77.16 245.25 78.17 246.82 78.39 248.38 78.37 249.95 78.12 253.08 77.05 
M 241.47 83.92 244.18 84.79 245.53 84.98 246.88 84.97 248.22 84.76 250.91 83.84 
M 240.84 90.69 243.11 91.42 244.24 91.58 246.49 91.39 248.75 90.62 
M 240.21 97.46 242.04 98.05 243.86 98.17 244.77 98.02 246.58 97.4 
M 239.59 104.23 241.66 104.77 243.04 104.66 244.41 104.18 
M 257.95 76.81 262.05 76.9 264.03 76.67 265.96 76.21 267.84 75.52 271.46 73.58 
M 257.18 83.58 260.71 83.66 262.42 83.46 264.08 83.06 265.69 82.47 268.8 80.8 
M 256.42 90.35 259.37 90.41 262.19 89.91 263.54 89.42 266.14 88.02 
M 255.65 97.12 258.03 97.17 259.18 97.03 261.39 96.36 263.49 95.24 
M 254.89 103.89 256.69 103.92 258.42 103.62 260.83 102.46 
M 275.39 74.69 277.51 78.3 278.77 79.9 280.2 81.33 281.79 82.6 285.39 84.74 
M 273.98 83.55 275.73 86.53 277.95 89.03 279.27 90.08 282.23 91.84 
M 272.58 92.42 273.96 94.76 275.7 96.73 276.74 97.56 279.08 98.94 
M 271.17 101.28 272.78 103.75 274.22 105.03 275.92 106.05 
M 289.54 87.62 291.82 90.44 293.12 91.62 294.55 92.6 296.12 93.38 299.57 94.48 
M 287.83 96.61 289.58 98.77 291.67 100.42 292.87 101.02 295.52 101.86 
M 286.12 105.59 287.34 107.09 288.8 108.24 291.47 109.25 
M 304.02 96.4 307.02 98.18 308.58 98.8 310.2 99.18 311.88 99.33 315.36 99.09 
M 302.39 103.65 304.69 105.01 305.89 105.48 308.42 105.89 311.08 105.71 
M 300.76 110.89 303.2 112.17 304.95 112.45 306.81 112.32 
M 147.88 156.08 301.97 159.68 301.96 160.67 148.74 159.57 
M 148.9 160.57 276.21 172.97 276.12 173.96 148.85 164.02 
M 148.77 165.01 250.06 182.56 249.9 183.54 148.61 168.44 
M 148.57 169.42 223.93 188.46 223.7 189.42 149.35 173.05 
M 149.65 174.26 198.21 190.7 197.92 191.64 150.29 177.83 
M 150.24 179.19 173.3 189.36 172.93 190.28 149.94 182.2 
M 149.44 184.17 149.57 184.26 149.22 184.97 
M 285.97 160.55 280.28 161.87 277.51 162.71 274.84 163.73 272.26 164.96 269.79 166.41 267.41 168.04 262.82 171.66 
M 262.71 172.91 257.1 173.43 254.36 173.87 251.69 174.51 249.08 175.38 246.56 176.47 244.1 177.75 239.3 180.69 
M 239.1 181.93 233.68 181.67 231.01 181.73 228.37 182 225.78 182.49 223.24 183.22 220.73 184.15 215.79 186.4 
M 215.5 187.62 210.36 186.61 207.8 186.3 205.25 186.2 202.71 186.33 200.18 186.7 197.67 187.28 192.66 188.82 
M 192.29 190.01 187.5 188.3 185.1 187.63 182.67 187.18 180.22 186.96 177.75 186.97 175.26 187.19 170.25 188.02 
M 169.79 189.18 165.47 186.75 163.26 185.72 160.99 184.89 158.67 184.29 156.29 183.92 153.86 183.76 149.55 183.78 
M 283.11 161.18 277.51 162.71 274.84 163.73 272.26 164.96 269.79 166.41 265.1 169.82 
M 258.44 160.92 253.82 162.18 251.62 163.03 247.46 165.24 243.58 168.05 
M 233.77 160.67 230.14 161.66 228.4 162.33 225.12 164.07 222.07 166.28 
M 209.11 160.41 205.18 161.62 202.78 162.9 200.55 164.52 
M 259.89 173.13 254.36 173.87 251.69 174.51 249.08 175.38 246.56 176.47 241.68 179.19 
M 232.42 170.93 228.18 171.5 226.13 171.99 222.2 173.49 218.46 175.57 
M 204.95 168.72 202 169.12 199.18 169.92 195.24 171.95 
M 236.38 181.76 231.01 181.73 228.37 182 225.78 182.49 223.24 183.22 218.25 185.24 
M 203.4 176.82 199.91 176.8 196.51 177.3 194.86 177.77 191.62 179.08 
M 212.93 187.07 207.8 186.3 205.25 186.2 202.71 186.33 200.18 186.7 195.16 188.01 
M 189.9 189.11 185.1 187.63 182.67 187.18 180.22 186.96 177.75 186.97 172.76 187.56 
M 223.72 201.1 228.44 205.22 231.8 208.54 234.48 211.92 246.35 222.67 247.1 226.07 247.52 229.14 246.04 231.25 245.32 234.18 243.73 236.79 241.69 238.95 238.65 239.68 231.67 239.26 229.66 240.99 227.25 242.32 223.97 242.29 221.45 243.1 218.14 243.32 214.45 243.15 210.41 242.65 206.91 240.23 198.79 233.95 194.19 230.88 191.38 230.66 188.12 229.99 185.36 230.72 183.58 232.47 181.61 232.07 177.35 230.21 162.89 216.99 160.62 212.87 158.19 207.38 153.8 201.17 
M 218.79 201.71 224.72 207.9 227.53 210.34 230.04 213.09 232.33 215.04 235.41 217.4 238.95 219.13 241.3 220.77 
M 213.87 202.32 225.6 213.34 227.34 215.64 231.87 220.09 236.64 222.66 239.11 223.1 
M 208.93 202.8 212.09 205.68 215.07 208 218.05 210.64 223.28 216.69 225.26 217.96 226.84 220.09 
M 203.99 203.21 207.04 206.01 210.1 208.16 217.41 215.8 221.79 220.89 227.66 225.46 
M 199.04 203.55 201.98 207.12 204.07 210.06 207.14 212.1 214.31 219.19 217.64 223.77 221.03 226.67 223.71 228.65 226.68 231.66 227.9 235.28 
M 194.08 203.69 197.05 207.3 199.05 210.12 201.31 212.76 203.49 215.05 206.16 217.15 208.88 219.94 211.09 225.52 
M 189.12 203.83 192.59 207.84 194.54 210.75 196.02 213.81 197.99 216.27 199.54 218.75 204.54 222.78 206.17 225.73 208 228.3 210.03 231.73 
M 184.17 203.66 187.73 207.76 192.23 213.98 193.36 217.06 195.22 219.84 197.3 221.89 201.89 225.35 203.85 228.43 
M 179.21 203.47 182.04 207.4 184.26 211.21 187.12 214.89 188.94 217.72 191.12 220.62 192.45 222.96 192.62 225.89 
M 174.26 203.12 179.34 210.67 181.15 214.42 183.33 218.08 184.58 220.92 185.85 223.02 
M 169.33 202.64 172.76 206.82 174.49 210.55 178.51 216.92 179.92 220.01 181.6 222.01 184.71 226.7 
M 164.39 202.17 167.44 206.41 170.08 209.69 172.39 213.66 174.13 217.63 175.41 220.02 177.25 221.51 
M 159.45 201.7 162.31 206.57 164.74 209.99 168.13 217.68 170.26 220.68 171.93 222.6 172.88 223.25 
M 376.78 174.56 379.64 182.94 378.76 183.39 373.6 176.2 
M 361.95 175.67 365.68 186.04 364.79 186.48 358.75 177.27 
M 347.11 176.67 353.58 192.99 352.69 193.43 343.9 178.23 
M 332.27 177.71 343.17 204.02 342.27 204.44 329.04 179.22 
M 318.56 178.54 335.4 218.96 334.49 219.37 315.3 180.01 
M 378.25 182.67 375.14 181.94 373.63 181.76 372.15 181.79 370.71 182.05 369.32 182.54 367.96 183.23 365.31 185.01 
M 364.19 185.56 361.1 185.72 359.65 185.97 358.29 186.4 357.04 187.05 355.9 187.9 354.85 188.94 352.93 191.36 
M 351.81 191.91 348.76 193.1 347.37 193.84 346.12 194.72 345.04 195.78 344.12 197 343.35 198.37 342.08 201.39 
M 340.95 201.92 338.23 204.19 337.04 205.42 336.03 206.75 335.22 208.19 334.62 209.75 334.21 211.41 333.71 214.92 
M 362.63 185.6 359.65 185.97 358.29 186.4 357.04 187.05 355.9 187.9 353.87 190.11 
M 350.25 192.47 347.37 193.84 346.12 194.72 345.04 195.78 344.12 197 342.69 199.85 
M 339.55 203.03 337.04 205.42 336.03 206.75 335.22 208.19 334.62 209.75 333.92 213.15 
M 334.04 194.58 332.4 196.13 331.75 196.99 330.83 198.94 330.38 201.15 
M 421.8 151.12 425.57 150.5 428.73 149.42 431.01 148.32 432.96 146.64 437.83 143.84 440.5 141.83 443.85 140.07 446.86 139.57 450.64 138.15 452.39 136.66 453.67 134.33 455.59 133.07 458.84 131.26 462.42 130.04 465.37 128.66 470.75 125.25 472.75 124.5 475.98 124.16 476.84 121.91 478.6 118.95 479.82 117.43 483.28 116.13 486.57 113.46 488.62 123.03 488.07 125.79 487.07 128.11 486.84 131.2 486.13 134.2 484.9 136.78 484.26 139.94 484.05 143.14 483.28 149.56 482.28 152.33 480.65 154.47 480.08 157.52 479.83 160.85 479.3 163.89 478.25 166.49 476.91 168.8 476.17 170.62 477.59 173.42 480.21 183.08 481.02 187.66 482.2 190.72 483.63 196.4 485.77 203.09 485.91 205.43 490 218.28 486.66 215.8 483.79 214.36 481.12 212.55 477.18 209.48 473.13 208.44 470.15 206.03 466.12 202.34 464.88 202.32 463.33 201.08 461.24 197.85 458.88 195.73 454.95 193.99 451.09 192.54 449.01 190.68 446.92 188.17 445.05 186.76 438.85 183.49 436.3 181.59 433.73 180.12 428.32 175.63 421.8 171.05 
M 431.75 150.59 436.42 148.35 438.73 146.98 441.35 145.86 444.1 144.34 450.83 142.45 453.8 141.16 457 136.94 459.77 135.83 463.47 134.66 
M 421.8 154.19 425.92 154.11 432.33 152.83 435.05 151.89 438.11 151.3 442.94 149.19 449.11 147.39 450.95 146.42 454.32 145.16 458.04 144.66 461.06 143.38 462.26 140.99 464.39 140.38 467.73 138.41 
M 425.96 155.89 429.57 155.56 435.85 154.33 439.63 154.02 442.03 153.5 444.18 153.26 446.93 152.23 449.5 151.82 
M 421.8 157.25 429.54 157.71 432.59 157.62 436.22 157.23 440.07 156.25 446.11 156.58 447.96 155.92 450.68 155.56 454.39 154.46 461.29 155.38 464.31 153.76 467.29 151.85 
M 425.97 159.27 436.51 159.5 440.24 159 443.34 159.71 445.73 159.88 448.48 159 451.58 159.35 459.44 159.76 463.06 160.19 468.25 158.66 
M 425.9 161.09 429.26 161.17 436.13 162.1 440.14 161.94 442.57 162.45 445.5 162.6 448.87 162.05 452.24 162.35 458.94 163.88 462.62 163.42 464.81 162.79 468.12 162.95 
M 421.8 161.85 425.97 162.88 436.06 164.85 439 165.33 445.14 165.75 448.06 166.75 451.09 166.36 453.65 165.74 
M 425.99 164.71 429.6 165.46 432.44 166.6 435.97 167.64 441.97 168.87 448.02 169.18 451.27 169.62 
M 425.91 166.51 432.51 168.46 435.34 169.7 444.95 172.35 448.66 172.26 452.05 172.97 
M 429.23 169.32 432.51 170.58 437.57 173.88 441.1 174.71 448.3 175.82 451.34 176.67 454.36 177.89 456.45 179.81 459.68 180.81 462.14 181.84 466.16 182.38 468.82 184.3 471.72 185.58 475.02 186.69 477.47 189.2 480.3 190.87 
M 421.8 167.98 429.16 171.43 432.03 172.99 434.46 174.45 437.15 176.42 443.93 179.34 447.6 179.89 451.02 180.61 454.37 183.82 456.25 185.11 459.21 186.25 
M 425.55 171.72 431.43 175.11 439.42 180.47 443 182.17 446.32 183.34 449.11 184.89 451.59 186.44 453.35 188.5 456.24 190.33 463.2 193.65 465.08 195.81 470.01 199.57 475.01 201.73 477.41 203.53 
M 386.84 142.3 389.73 141.64 392.92 141.27 402.87 140.54 406.46 140.58 417.79 141.24 424.89 141.23 428.37 141.4 431.36 142.61 432.93 144.47 432.6 146.43 430.52 148.07 427.31 149.07 423.72 149.15 410.15 147.72 
M 404.66 144.53 417.79 145.21 423.11 145.2 
M 426.63 145.28 428.37 145.37 429.86 145.97 
M 53.77 134.93 62.99 130.31 67.29 128.39 77.5 124.62 82.9 123.41 93.82 122.29 99.25 121.34 104.77 120.72 110.19 120.61 120.37 120.78 124.81 121.07 128.39 121.52 130.46 122.11 136.62 125.53 139.8 129.26 141.61 133.2 142.56 137.27 145.28 145.27 145.61 149.43 146.84 153.45 148.41 157.43 149.05 161.54 148.55 170.03 149.62 174.07 150.35 178.17 149.91 182.44 146.16 195.62 142.13 200.35 129.66 199.44 120.47 198.01 112.41 196.08 105.09 193.67 98.37 190.65 92.29 186.77 86.34 182.31 80.53 177.48 75.26 172.78 70.38 168.03 
M 68.62 166.34 66.45 164.27 63.04 159.71 60.42 155.21 57.22 151.13 54.83 146.99 54.29 145.18 
M 122.64 139.76 124.32 146.43 124.03 149.53 121.85 155.09 122.61 159.61 122.48 164.9 123.16 171.91 121.59 176.22 106.87 176.51 101.08 176.16 95.47 175.25 90.01 173.55 84.91 170.74 79.83 167.06 
M 69.15 167.22 59.68 152.29 50.4 140.13 49.12 138.13 49.65 135.65 51.85 134.38 54.36 135.1 58.26 141.52 62.94 150.4 65.13 154.87 70.72 167.87 
M 70.09 168.51 65.37 167.6 60.62 167.09 55.74 166.29 41.46 163.41 34.27 161.78 31.78 161.06 30 159.42 30.14 157.1 32.13 155.66 34.59 155.99 41.76 158.51 48.48 160.59 53.23 162.4 57.96 163.98 65.11 165.91 70.44 167.65 
M 86.06 144.08 85.23 140.93 85.47 137.68 86.75 134.67 88.93 132.25 91.79 130.67 95 130.1 98.22 130.61 101.11 132.13 103.34 134.51 104.68 137.48 104.98 140.73 104.21 143.9 102.46 146.65 99.9 148.68 96.83 149.77 93.56 149.8 90.47 148.77 87.87 146.8 86.06 144.08 
M 85.94 143.8 85.29 141.44 85.24 138.99 85.44 137.78 86.29 135.48 87.67 133.45 89.51 131.83 90.56 131.2 92.86 130.36 95.3 130.1 96.53 130.21 98.89 130.86 
M 87.78 143.05 87.26 141.15 87.17 140.18 87.37 138.26 
M 89.28 134.65 90.63 133.47 91.47 132.97 93.31 132.29 95.26 132.09 96.24 132.17 98.13 132.69 
M 91.48 141.64 91.15 140.38 91.22 139.37 
M 91.93 137.69 92.63 136.91 93.77 136.28 95.06 136.05 96.35 136.25 97.5 136.86 98.39 137.81 98.93 139 99.05 140.3 98.74 141.57 98.04 142.67 97.02 143.48 95.79 143.92 94.48 143.93 93.25 143.52 92.21 142.73 91.48 141.64 
M 93.08 136.66 92.36 138.1 
M 91.69 139.43 91.17 140.47 
M 94.85 136.08 93.4 138.99 
M 93.1 139.6 91.82 142.15 
M 96.26 136.24 92.8 143.17 
M 97.45 136.84 93.99 143.76 
M 98.42 137.87 95.4 143.92 
M 99 139.7 97.17 143.36 
M 58.45 152.69 62.56 156.8 
M 57.03 139.37 57.14 139.48 
M 56.93 133.32 62.43 138.82 
M 60.91 131.34 64.7 135.14 
M 64.95 129.44 68.98 133.46 
M 69.14 127.67 73.41 131.94 
M 73.46 126.04 78.3 130.88 
M 77.9 124.53 82.07 128.7 
M 82.77 123.44 88.49 129.16 
M 88.22 122.94 92.88 127.61 
M 93.55 122.32 96.85 125.62 
M 98.63 121.45 102.09 124.91 
M 103.95 120.81 108.46 125.33 
M 109.71 120.62 114.38 125.29 
M 115.71 120.67 120.15 125.11 
M 121.87 120.88 125.12 124.13 
M 128.49 121.55 131.52 124.57 
M 131.79 138.75 131.83 139.44 131.62 140.2 128.67 145.13 
M 72.49 127.1 72.61 127.8 72.23 129.33 71.74 129.87 70.92 130.29 
M 85.31 163.35 85.87 160.34 85.67 159.29 84.35 157.61 82.28 156.13 
M 130.85 175.28 129.67 174.8 129.11 174.23 127.85 170.56 127.24 169.4 127.07 168.44 
M 84.36 177.96 83.73 178.83 83.28 179.01 82.58 178.95 81.7 178.27 79.56 175.63 
M 77.11 152.83 78.25 152.31 80.35 150.96 81.01 150.88 82.08 151.46 
M 134.21 172.3 130.34 168.74 129.94 168.06 129.78 166.72 130.2 163.74 
M 127.47 126.76 128.47 126.92 131.44 126.67 
M 122.45 160.72 123.35 159.79 124.4 157.31 124.48 155.85 123.97 154.33 
M 133.62 152.84 135.77 154.81 136.37 155.56 136.96 156.94 136.9 157.54 136.06 158.66 135.5 158.98 135.1 159 134.58 158.49 
M 133.93 174.33 133.19 174.04 131.83 173.15 130.82 172.21 129.85 170.79 129.06 168.73 
M 122.14 194.38 122.66 194.04 122.92 193.67 123.06 191.41 
M 141.86 140.33 142.38 139.76 143.24 139.43 
M 104.94 165.97 102.84 163.75 102.99 162.83 
M 129.54 125.39 130.34 125.16 130.84 125.51 
M 137.44 180.68 138.56 179.72 140.04 179.26 140.47 178.98 141 178.31 141.58 176.88 142.12 176.02 
M 104.57 143 104.44 142.95 
M 85.43 128.53 81.8 126.7 79.33 124.21 
M 85.35 139.35 83.82 138.42 82.21 137.85 79.16 137.17 75.64 136.61 
M 108.23 130.06 107.68 131.43 107.16 131.87 106.63 132.04 
M 108.85 138.63 107.71 135.47 107.17 135.1 
M 119.16 186.01 119.68 185.4 120.54 182.16 121.05 181.08 121.13 180.6 120.97 179.71 
M 84.84 168.92 85.51 165.53 86.12 163.41 86.63 160.78 86.61 160.16 
M 80.66 164.39 79.69 164.41 78.55 164.97 77.5 165.21 76.18 165.22 74.77 164.59 74.32 164.17 73.79 163.01 
M 67.33 130.84 68.3 131.23 68.79 131.97 69.46 134.22 69.89 136.66 70.76 138.16 
M 107.31 137.32 106.63 136.2 106.63 135.32 
M 103.26 125.8 104.47 125.56 105.15 125.65 105.77 125.93 106.61 126.66 108.26 128.58 
M 120.29 129.38 118.03 128.78 116.42 128.11 115.52 127.45 114.96 126.47 
M 85.71 137.12 83.14 135.82 80.93 135.38 79.71 135.35 77.49 135.79 75.63 135.86 74.91 136.11 
M 92.44 169.14 91.75 167.87 91.21 165.94 91.2 165.06 91.57 163.32 92.58 160.97 93.56 160.43 94.84 160.17 
M 148.61 182.59 147.89 181.29 147.84 179.68 148.03 177.84 148.2 176.97 148.56 176.18 149.77 174.93 
M 84.03 176.97 82.84 177.64 81.68 177.28 80.19 176.03 79.69 174.53 
M 135.02 153.69 136.78 155.91 137.05 156.63 137.1 157.26 136.86 157.87 135.82 158.88 135.29 159.07 134.97 158.98 134.67 158.7 134.55 158.33 
M 60.84 154.04 60.36 155.13 
M 137.12 171.71 135.1 173.1 134.23 173.29 133.68 172.93 130.96 170.27 
M 135 138.03 136.71 136.51 137.3 136.17 141.06 134.86 141.84 134.21 
M 123.44 179.41 122.87 176.82 123.03 174.97 123.95 170.35 124.1 168.26 124.76 166.31 125.34 165.61 
M 120.8 127.43 117.32 127.02 116.4 126.57 116.14 125.99 
M 117.21 127.06 116.26 126.55 115.8 125.49 115.3 125.43 
M 128.77 176.68 127.98 176.24 126.69 175.2 126.09 174.57 125.64 173.78 125.5 170.88 125.21 169.37 125.19 168.42 125.44 167.5 126.61 165.34 
M 109.85 132.31 108.01 133.63 106.21 134.44 105.96 134.79 
M 96.38 170.58 96.31 169.3 96.71 168.29 98.17 167.09 101.33 163.57 102.1 163.09 
M 69.32 135.41 69.6 136.88 71 138.73 71.4 139.52 
M 81.1 170.51 80.04 170.87 79.72 171.15 79.68 171.41 
M 132.4 146.86 131.72 148 130.99 150.09 130.91 151.82 131.54 153.91 132.52 156.27 132.85 156.67 133.62 157.13 
M 108.72 182.09 110.27 178.13 111.3 176.27 113.37 171.44 114.65 169.22 114.96 168.23 115.06 166.69 115.34 165.88 
M 130 183.75 126.47 180.57 123.7 176.87 123.39 176.02 123.43 175.1 124.3 170.5 
M 123.38 130.71 125.31 132.16 126.31 133.38 
M 135.77 157.06 135.83 157.53 135.4 158.32 134.78 158.46 134.63 158.25 134.68 158.04 
M 96.8 158.44 97.63 158.8 98.84 158.75 
M 77.76 146.37 76.83 146.1 74.95 145.15 74.37 144.7 73.22 142.62 72.96 141.61 72.92 140.58 
M 146.13 151.12 144.6 150.1 142.93 149.47 
M 79.04 153.54 81.17 151.57 81.63 151.45 82.27 151.6 
M 77.45 135.45 75.61 135.63 73.64 136.52 71.78 138.13 71.39 138.87 
M 130.61 190.7 128.47 191.12 127.24 190.94 126.46 190.28 125.52 188.94 125.22 188.2 
M 106.46 181.49 106.99 179.79 110.74 172.98 112.24 168.82 112.36 167.72 112.23 166.62 112.01 165.53 111.44 164.42 
M 148.76 165.16 145.01 166.33 143.97 166.16 141.71 165.23 
M 113.02 142.56 112.35 143.94 111.92 144.5 111.31 144.95 109.36 145.79 108.6 146.69 108.44 147.38 
M 120.54 130.13 119.23 129.57 117.82 129.22 116.25 128.26 115.4 127.51 115 126.59 
M 127 196.02 125.91 195.97 125.19 196.16 124.69 197.05 124.34 198.61 
M 106.87 160.69 105.64 159.43 103.37 158.17 102.31 158.25 101.49 158.99 
M 76.1 134.34 73.38 136.07 71.69 138.12 71.39 138.72 
M 147.6 190.9 144.91 190.85 142.96 190.62 142.6 190.22 142.34 189.28 
M 86.25 181.1 85.93 181.96 
M 79.1 174.63 79.12 174.04 79.36 173.63 80.78 172.9 
M 81.74 169.52 80.07 170.49 79.66 170.89 
M 70.72 138.96 71.28 139.41 71.43 139.95 
M 81.81 176.24 81.03 176.1 80.69 175.71 80.61 174.93 80.75 173.53 
M 104.76 133.78 105.27 134.31 105.63 135.03 105.7 135.76 105.58 136.26 
M 119.83 156.63 121.01 155.7 122.25 154.25 123.53 151.76 124.09 151.41 124.58 151.45 
M 97.79 163.24 99.12 161.22 99.71 160.7 101.87 160.01 102.18 159.62 
M 73.74 128.63 73.71 131.47 73.22 132.94 72.68 135.54 
M 100.87 172.26 100.27 170.99 100.28 169.25 100.56 167.92 101.35 166.8 
M 146.47 152.24 143.38 150.08 143.1 149.99 142.87 150.13 
M 70.91 153.03 69.7 150.42 69.3 148.87 69.51 148.16 70.27 146.94 70.8 145.63 
M 96.69 125.77 97.13 124.78 97.06 121.72 
M 82.44 142.99 76.82 140.12 75.24 139.53 73.51 139.34 72.53 139.76 
M 107.24 176.73 110.3 170.21 110.66 168.89 110.74 167.69 110.46 166.58 109.89 165.51 105.02 161.25 104.56 160.69 
M 118.49 185.67 119.05 184.9 119.79 182.41 120.49 181.09 120.73 179.65 
M 108.37 170.51 108.78 169.34 108.91 168.22 108.67 167.17 108.13 166.18 105.45 163.47 102.86 162.06 
M 107.56 133.11 105.84 133.86 105.7 134.31 105.79 135.19 
M 123.37 132.61 124.17 132.45 125.22 132.89 125.94 133.56 126.57 134.46 126.91 135.59 126.49 138.32 
M 128.19 142.55 127.11 144.89 126.43 146.98 126.51 149.15 127.22 152.59 127.87 154.29 
M 124.24 183 123.88 181.49 123.81 179.26 123.09 177.38 122.97 176.66 123.29 173.64 123.88 171.28 124 170.15 
M 80.73 128.34 78.59 125.64 77.56 124.6 
M 136.57 142.71 138.08 138.88 138.58 136.65 139.1 135.89 141.17 134.9 141.86 134.27 
M 87.54 152.43 88.84 153.44 90.35 154.99 91.36 156.94 91.77 158.93 92.4 159.25 
M 123.33 151.42 124.02 151.14 124.61 151.28 124.89 151.88 124.82 152.19 124.6 152.35 
M 55.48 146.79 55.12 147.49 
M 143.71 147.82 143.46 146.91 143.52 146.42 143.85 146.12 145.31 145.61 
M 143.11 152.55 142.54 152.47 142.22 152.59 142.04 152.88 141.64 156.37 141.13 157.7 140.54 158.65 
M 90.89 177.76 90.66 178.42 90.63 179.82 91.42 182.3 91.55 184.78 92.6 186.38 
M 90.83 180.09 91.56 181.99 91.6 184.53 93.03 187.25 
M 116.95 183.84 118.51 182.1 118.89 181.05 119.55 179.89 119.96 178.43 119.93 176.87 120.08 175.99 120.92 174.21 
M 124.81 166.57 127.42 162.97 128.44 160.98 128.84 160.53 130.71 159.29 131.59 158.51 
M 104.71 136.44 104.53 137.16 
M 110.03 153.48 110.85 154.44 111.66 154.95 112.43 155.19 113.12 154.94 113.82 154.4 117.38 150.72 118.05 149.68 118.38 147.83 118.23 147.27 117.93 146.99 117.51 146.89 
M 140.16 196.97 139.62 197.64 138.24 200.06 
M 125.17 161.91 125.72 161.38 126.06 160.66 126.35 159.23 126.85 157.88 127.28 157.68 128.48 158.01 
M 90.23 122.71 90.74 124.07 92.77 127.46 
M 127.38 152.61 128.33 155.23 128.73 155.94 129.95 157.32 130.88 157.72 133.39 157.62 
M 70.55 167.94 71.37 169.35 
M 67.35 164.31 67.3 164.78 67.6 164.71 
M 64.32 159.73 64.01 160.13 63.73 161.06 64.31 160.64 64.87 160.56 
M 61.55 155.17 60.65 156.07 60.16 157.34 60.95 156.59 62.22 156.24 
M 58.58 150.88 57.3 152.02 56.59 153.62 57.6 152.53 59.4 151.92 
M 55.44 146.73 53.94 147.96 53.02 149.9 54.24 148.48 56.14 147.75 
M 52.28 142.59 50.59 143.91 49.45 146.19 50.89 144.42 53.02 143.54 
M 49.25 138.34 47.23 139.85 45.88 142.47 47.53 140.37 49.89 139.33 
M 70.17 168.31 71.83 168.75 
M 65.6 166.07 65.93 165.94 65.94 166.17 
M 59.7 164.5 60.16 163.89 60.98 163.38 60.74 164.04 60.83 164.82 
M 54.3 162.76 54.95 161.63 56.04 160.82 55.52 161.78 55.53 163.16 
M 49.03 160.79 49.74 159.36 51.09 158.26 50.31 159.52 50.21 161.23 
M 43.63 159.12 44.52 157.1 46.15 155.7 45.1 157.25 44.88 159.5 
M 38.32 157.25 39.31 154.84 41.21 153.14 39.89 154.99 39.55 157.7 
M 32.85 155.76 34.1 152.57 36.26 150.58 34.68 152.72 34.21 155.94 
M 40.58 163.21 43.88 165.14 49.67 168.15 55.63 170.94 61.64 173.52 73.83 178.04 86.34 182.31 
M 133.09 121.84 143.21 131.95 
M 139.97 120.77 147.11 127.91 
M 147.45 120.31 155.12 127.99 
M 155.45 120.38 166.7 131.63 
M 164.59 121.59 174.44 131.43 
M 174.24 123.3 180.76 129.82 
M 183.38 124.51 191.96 133.08 
M 192.05 125.24 203.61 136.8 
M 200.35 125.59 210.24 135.49 
M 208.37 125.68 215.89 133.2 
M 216.39 125.77 226.22 135.6 
M 224.4 125.84 235.66 137.1 
M 232.21 125.72 242.55 136.05 
M 239.91 125.47 248.79 134.36 
M 247.54 125.17 259.33 136.96 
M 255.37 125.06 265.38 135.07 
M 263.4 125.16 271.07 132.83 
M 271.62 125.44 282.6 136.42 
M 279.99 125.88 288.61 134.5 
M 288.59 126.54 299.41 137.36 
M 297.41 127.42 307.91 137.92 
M 306.46 128.54 317.65 139.72 
M 315.72 129.86 324.9 139.04 
M 325.12 131.32 332.83 139.03 
M 334.6 132.86 340.83 139.1 
M 344.16 134.49 351.42 141.75 
M 353.79 136.19 363.23 145.62 
M 363.44 137.9 373.35 147.81 
M 373.04 139.56 384.05 150.57 
M 382.92 141.51 394.18 152.76 
M 393.09 143.74 401.72 152.37 
M 403.43 146.14 410.24 152.95 
M 414.1 148.87 421.66 156.44 
M 162.86 201.04 163.37 202.07 
M 165.01 198.4 167.02 202.42 
M 167.23 195.91 170.67 202.77 
M 133.63 121.75 135.09 124.68 
M 145 144.5 145.61 145.71 
M 147.38 149.26 149.16 152.81 
M 169.56 193.63 174.31 203.13 
M 136.85 121.26 139.07 125.69 
M 140.84 129.24 145.28 138.11 
M 146.17 139.89 151.49 150.54 
M 172.79 193.13 177.94 203.43 
M 140.07 120.76 141.41 123.42 
M 142.29 125.19 154.72 150.04 
M 176.01 192.63 178.67 197.95 
M 181.18 202.98 181.48 203.56 
M 143.37 120.41 144.7 123.07 
M 145.59 124.84 158.01 149.69 
M 182.86 199.38 183.75 201.15 
M 148.14 122.99 160.56 147.84 
M 151.57 122.91 163.1 145.98 
M 155 122.83 155.89 124.6 
M 156.77 126.38 161.21 135.25 
M 162.1 137.03 164.76 142.35 
M 165.65 144.13 166.53 145.9 
M 194.95 202.73 195.41 203.65 
M 158.71 123.3 166.69 139.27 
M 172.9 151.69 173.79 153.47 
M 174.68 155.24 176.26 158.4 
M 197.75 201.38 198.83 203.56 
M 161.53 122.01 164.2 127.34 
M 165.08 129.11 166.86 132.66 
M 167.75 134.43 168.63 136.21 
M 174.84 148.63 179.76 158.47 
M 199.69 198.32 202.21 203.36 
M 165.25 122.5 167.03 126.05 
M 167.91 127.83 170.58 133.15 
M 176.79 145.57 183.27 158.54 
M 202.52 197.04 205.54 203.08 
M 168.61 122.27 172.6 130.26 
M 173.49 132.03 174.38 133.81 
M 180.59 146.23 186.78 158.61 
M 208.26 201.58 208.88 202.81 
M 172.43 122.97 179.97 138.05 
M 183.52 145.15 190.28 158.68 
M 204.08 186.26 204.82 187.74 
M 176.25 123.66 181.13 133.42 
M 188.23 147.62 193.55 158.27 
M 207.75 186.66 208.64 188.44 
M 179.96 124.13 184.84 133.89 
M 191.05 146.31 191.93 148.09 
M 192.82 149.86 196.37 156.96 
M 211.46 187.13 212.34 188.91 
M 183.63 124.53 187.62 132.52 
M 187.3 124.93 189.52 129.37 
M 203.72 157.76 204.31 158.95 
M 220.45 184.28 220.62 184.64 
M 227.85 199.09 228.42 200.23 
M 199.33 135.1 201.99 140.42 
M 203.76 143.97 204.65 145.75 
M 209.98 156.4 211.32 159.09 
M 230.38 197.21 231.21 198.87 
M 202.88 135.25 203.76 137.03 
M 204.65 138.8 207.31 144.13 
M 213.53 156.55 214.41 158.32 
M 233.05 195.59 234.78 199.06 
M 203.75 130.05 209.07 140.69 
M 210.84 144.24 212.62 147.79 
M 236.58 195.71 237.88 198.31 
M 204.35 124.32 204.8 125.2 
M 205.68 126.98 215.45 146.5 
M 238.52 192.64 239.4 194.42 
M 206.87 122.4 215.74 140.15 
M 216.63 141.92 217.51 143.69 
M 210.67 123.05 218.65 139.03 
M 219.54 140.8 220.43 142.58 
M 216.2 127.17 220.63 136.04 
M 220.78 129.4 221.67 131.17 
M 234.09 156.02 234.98 157.79 
M 235.87 159.57 235.87 159.57 
M 235.93 152.75 237.71 156.3 
M 236.8 147.54 237.69 149.31 
M 239.46 152.86 242.88 159.71 
M 240.25 147.51 246.39 159.78 
M 242.75 145.56 246.3 152.66 
M 247.19 154.43 249.9 159.85 
M 246.97 147.05 249.63 152.38 
M 250.52 154.15 253.4 159.91 
M 240.58 127.33 241.47 129.11 
M 248.57 143.31 249.46 145.08 
M 250.34 146.85 252.12 150.4 
M 253.01 152.18 256.91 159.98 
M 241.12 121.47 244.67 128.57 
M 254.43 148.09 255.32 149.86 
M 256.21 151.64 259.76 158.74 
M 265.97 171.16 266.86 172.93 
M 243.99 120.26 250.2 132.68 
M 259.08 150.43 259.96 152.21 
M 267.76 167.8 270.61 173.5 
M 271.5 175.28 272.39 177.05 
M 236.08 97.48 236.96 99.26 
M 238.74 102.81 239.63 104.58 
M 240.51 106.36 241.4 108.13 
M 244.95 115.23 248.5 122.33 
M 249.39 124.1 252.05 129.43 
M 266.24 157.82 267.43 160.19 
M 270.37 166.07 273.34 172.02 
M 274.23 173.79 275.12 175.57 
M 233.73 85.84 235.94 90.28 
M 236.83 92.05 240.38 99.15 
M 241.27 100.92 242.16 102.7 
M 243.04 104.47 243.93 106.25 
M 248.37 115.12 256.35 131.09 
M 267.89 154.16 270.94 160.26 
M 273.09 164.57 274.99 168.36 
M 276.76 171.91 279.42 177.23 
M 236.03 83.5 248.01 107.45 
M 250.67 112.78 252.44 116.33 
M 253.33 118.1 258.65 128.75 
M 269.3 150.05 270.19 151.82 
M 271.08 153.6 274.44 160.33 
M 275.93 163.31 282.61 176.67 
M 239.49 83.47 249.25 103 
M 250.14 104.77 251.02 106.54 
M 255.46 115.42 260.78 126.07 
M 272.32 149.14 273.21 150.91 
M 274.09 152.69 277.95 160.4 
M 278.9 162.29 282.08 168.66 
M 282.97 170.43 283.85 172.21 
M 241.07 79.7 254.83 107.21 
M 260.15 117.85 261.04 119.63 
M 277.9 153.35 281.45 160.46 
M 281.95 161.46 286.77 171.09 
M 245.27 81.15 255.47 101.55 
M 267.89 126.4 268.78 128.17 
M 269.67 129.95 272.33 135.27 
M 280.32 151.24 284.96 160.53 
M 285.07 160.75 288.3 167.22 
M 248.81 81.28 255.46 94.59 
M 256.35 96.37 257.24 98.14 
M 258.12 99.91 259.01 101.69 
M 269.66 122.99 271.43 126.53 
M 273.21 130.08 275.87 135.41 
M 276.76 137.18 277.65 138.96 
M 282.97 149.6 283.86 151.38 
M 284.74 153.15 288.29 160.25 
M 289.18 162.03 290.07 163.8 
M 251.89 80.49 254.1 84.93 
M 254.99 86.71 261.2 99.13 
M 270.08 116.88 280.72 138.17 
M 288.71 154.14 289.6 155.92 
M 254.8 79.37 255.24 80.26 
M 257.01 83.81 258.79 87.35 
M 259.68 89.13 264.11 98 
M 271.21 112.2 282.75 135.27 
M 259.83 82.48 260.71 84.26 
M 261.6 86.03 262.49 87.81 
M 274.91 112.65 285.56 133.95 
M 286.44 135.72 287.33 137.5 
M 262.44 80.77 263.33 82.54 
M 277.52 110.93 288.17 132.23 
M 265.21 79.36 266.54 82.03 
M 280.74 110.42 291.39 131.72 
M 284.58 111.16 291.68 125.36 
M 292.57 127.14 293.46 128.91 
M 270.91 76.88 272.24 79.54 
M 287.33 109.71 296.2 127.45 
M 305.96 146.97 307.73 150.52 
M 273.73 75.57 274.17 76.46 
M 305.23 138.57 306.12 140.34 
M 307 142.12 308.78 145.67 
M 309.67 147.44 310.55 149.22 
M 307.69 136.55 312.13 145.42 
M 313.01 147.19 313.9 148.97 
M 314.79 150.74 315.68 152.52 
M 321.89 164.94 322.77 166.71 
M 323.66 168.49 327.21 175.59 
M 287.64 89.51 290.3 94.83 
M 292.08 98.38 295.63 105.48 
M 309.83 133.87 318.7 151.62 
M 324.91 164.04 332.07 178.37 
M 293.94 95.15 297.93 103.14 
M 298.82 104.91 299.71 106.69 
M 312.13 131.53 313.02 133.31 
M 313.9 135.08 321.89 151.06 
M 325.44 158.15 328.99 165.25 
M 329.87 167.03 335.09 177.46 
M 298.4 97.14 299.73 99.8 
M 316.59 133.52 321.03 142.39 
M 321.92 144.17 323.69 147.71 
M 329.9 160.14 337.89 176.11 
M 302.45 98.3 302.9 99.18 
M 303.78 100.96 305.56 104.51 
M 319.77 132.93 325.09 143.58 
M 325.98 145.35 326.87 147.13 
M 331.31 156 336.63 166.65 
M 337.52 168.42 338.4 170.2 
M 339.29 171.97 340.18 173.75 
M 341.07 175.52 341.83 177.04 
M 307.44 101.32 308.77 103.99 
M 325.31 137.07 327.09 140.62 
M 334.19 154.82 338.62 163.69 
M 339.51 165.47 343.95 174.34 
M 311.38 102.26 311.83 103.15 
M 338.84 157.19 339.73 158.96 
M 341.51 162.51 346.83 173.16 
M 341.73 156.02 343.51 159.57 
M 344.39 161.34 346.17 164.89 
M 349.72 171.99 352.23 177.01 
M 351.73 169.07 355.59 176.79 
M 354.63 167.92 358.95 176.56 
M 357.53 166.78 362.31 176.34 
M 360.45 165.68 365.66 176.1 
M 362.48 162.8 364.26 166.35 
M 365.14 168.12 369.01 175.85 
M 358.3 147.5 362.74 156.37 
M 367.18 165.24 368.06 167.02 
M 368.95 168.79 370.73 172.34 
M 371.76 174.41 372.35 175.6 
M 361.23 146.4 370.1 164.15 
M 371.88 167.7 373.65 171.25 
M 361.49 139.98 363.26 143.53 
M 364.15 145.3 372.14 161.27 
M 365.3 140.65 375.95 161.95 
M 367.77 138.65 379.75 162.61 
M 371.57 139.31 375.56 147.29 
M 376.45 149.07 381.77 159.71 
M 375.36 139.95 383.79 156.81 
M 379.5 141.28 384.82 151.92 
M 385.71 153.7 386.6 155.47 
M 382.75 140.83 388.51 152.36 
M 386.44 141.26 386.64 141.67 
M 401.61 171.62 402.63 173.65 
M 403.76 168.97 405.95 173.34 
M 405.02 164.54 409.27 173.03 
M 408.94 165.44 412.51 172.57 
M 411.1 162.82 415.72 172.04 
M 415.04 163.75 418.93 171.52 
M 418.1 162.92 421.65 170.02 
M 410 139.79 410.45 140.68 
M 413.61 140.05 414.05 140.94 
M 417.17 140.22 418.5 142.88 
M 420.65 140.24 421.09 141.13 
M 432.32 142.75 432.87 143.85 
M 225.38 291.39 223.49 297.7 
M 223.28 291.39 227.48 291.39 
M 231.65 293.5 230.39 297.7 
M 231.38 294.39 230.96 293.8 230.45 293.5 229.55 293.5 228.86 293.8 228.08 294.39 227.51 295.3 227.33 295.89 227.36 296.8 227.78 297.39 228.29 297.7 229.19 297.7 229.88 297.39 230.66 296.8 
M 234.05 293.5 233.15 296.5 233.18 297.39 233.69 297.7 234.59 297.7 235.28 297.39 236.45 296.5 
M 237.35 293.5 236.09 297.7 
M 240.38 291.39 238.49 297.7 
M 239.48 294.39 240.26 293.8 240.95 293.5 241.85 293.5 242.36 293.8 242.78 294.39 242.81 295.3 242.63 295.89 242.06 296.8 241.28 297.39 240.59 297.7 239.69 297.7 239.18 297.39 238.76 296.8 
M 245.78 291.39 245.99 291.7 246.38 291.39 246.17 291.1 245.78 291.39 
M 245.45 293.5 244.19 297.7 
M 247.85 293.5 246.59 297.7 
M 247.49 294.7 248.66 293.8 249.35 293.5 250.25 293.5 250.76 293.8 250.79 294.7 249.89 297.7 
M 256.85 293.5 255.59 297.7 
M 256.58 294.39 256.15 293.8 255.65 293.5 254.75 293.5 254.06 293.8 253.28 294.39 252.71 295.3 252.53 295.89 252.56 296.8 252.98 297.39 253.49 297.7 254.39 297.7 255.08 297.39 255.86 296.8 
M 265.55 293.5 264.28 297.7 
M 265.27 294.39 264.86 293.8 264.35 293.5 263.45 293.5 262.76 293.8 261.98 294.39 261.4 295.3 261.23 295.89 261.26 296.8 261.68 297.39 262.19 297.7 263.09 297.7 263.77 297.39 264.56 296.8 
M 268.58 291.39 266.69 297.7 
M 273.64 293.5 272.39 297.7 
M 273.38 294.39 272.95 293.8 272.45 293.5 271.55 293.5 270.86 293.8 270.08 294.39 269.51 295.3 269.33 295.89 269.36 296.8 269.77 297.39 270.29 297.7 271.19 297.7 271.88 297.39 272.66 296.8 
M 276.68 291.39 274.79 297.7 
M 281.75 293.5 280.49 297.7 
M 281.48 294.39 281.06 293.8 280.55 293.5 279.64 293.5 278.95 293.8 278.18 294.39 277.61 295.3 277.43 295.89 277.45 296.8 277.88 297.39 278.39 297.7 279.29 297.7 279.98 297.39 280.76 296.8 
M 286.88 294.39 286.76 293.8 285.95 293.5 285.05 293.5 284.06 293.8 283.58 294.39 283.7 295 284.2 295.3 285.62 295.6 286.13 295.89 286.15 296.8 285.68 297.39 284.69 297.7 283.79 297.7 282.98 297.39 282.86 296.8 
M 289.58 291.39 289.79 291.7 290.18 291.39 289.97 291.1 289.58 291.39 
M 289.25 293.5 287.99 297.7 
M 294.38 294.39 294.26 293.8 293.45 293.5 292.55 293.5 291.56 293.8 291.08 294.39 291.2 295 291.7 295.3 293.12 295.6 293.63 295.89 293.65 296.8 293.18 297.39 292.19 297.7 291.29 297.7 290.48 297.39 290.36 296.8 
M 295.97 297.1 295.58 297.39 295.79 297.7 296.18 297.39 295.97 297.1 
"/></svg>
