<svg xmlns="http://www.w3.org/2000/svg" width="520" height="320"><rect x="0" y="0" width="520" height="320" fill="floralwhite"/><rect x="10" y="10" width="500" height="300" stroke="black" stroke-width="1" fill="none"/><path stroke="black" stroke-width="1" fill="none" stroke-linecap="round" stroke-linejoin="round" d="
M 107.38 120.95 121.42 118.88 128.83 118.09 158.6 116.55 165.99 115.56 173.3 114.09 180.54 112.31 187.88 111.02 195.29 110.22 202.74 110.33 210.19 110.69 217.62 111.28 232.4 113.21 239.75 114.42 254.39 117.26 261.73 118.5 283.93 121.25 291.3 122.37 298.62 123.76 305.9 125.34 327.52 131.08 349.36 135.88 356.58 137.72 363.74 139.79 370.84 142.04 377.79 144.74 382.1 147.39 
M 382.1 183.52 379.95 185.49 373.11 188.45 366.16 191.15 359.14 193.66 352.03 195.88 337.67 199.88 330.38 201.45 323.05 202.82 315.68 203.94 308.26 204.57 285.93 205.69 271.08 207.09 263.71 208.17 256.37 209.48 227.17 215.5 219.81 216.65 205.02 218.57 190.19 220.06 182.75 220.51 160.39 220.49 138.05 221.44 130.6 221.41 123.2 220.48 118.46 219.51 
M 128.59 159.5 132.39 159.72 
M 146.04 158.84 156.13 157.87 
M 163.22 157.41 166.81 157.09 
M 170.57 156.87 174.6 156.86 
M 186.41 156.46 190.39 156.44 
M 194.44 156.54 200.37 156.76 204.03 156.68 207.29 156.31 208.77 155.99 
M 211.67 155.37 216.07 154.6 222.1 153.98 226.22 153.22 
M 228.83 152.61 234.97 150.8 236.32 150.6 
M 239.37 150.52 241.06 150.65 244.91 151.35 251.14 152.84 
M 259.48 154.75 261.51 155.15 267.14 155.85 
M 274.14 156.21 277.5 156.22 
M 280.88 156.25 289.81 156.84 303.27 158.77 
M 310.47 159.47 319.06 159.88 328.23 160.71 
M 331.92 160.97 341.55 161.93 345.21 162.12 351.93 161.89 359.07 162.15 367.48 162.13 
M 370.9 162.21 374.36 162.37 
M 377.93 162.68 382.1 163.33 
M 120.29 132.2 119.32 135.51 
M 116.97 141.73 116.42 143.12 
M 120.6 209.37 121.41 220.12 
M 127.06 134.81 126.5 136.4 123.84 142.33 122.82 145.6 121.34 152.72 120.75 154.27 
M 122.98 191.52 123.16 192.24 
M 127.86 213.14 128.11 215.06 128.3 220.29 
M 131.07 143.61 130.55 145.26 130.25 147.13 
M 130.09 191.63 130.12 191.79 
M 133.19 218.35 133.05 221.42 
M 137.31 150.58 136.65 154.31 
M 135.33 179.43 136.2 187.26 
M 148.19 135.77 144.9 145.83 
M 142.37 157.04 141.92 159.16 
M 142.23 175.59 142.31 179.23 
M 143 190.57 143 190.58 
M 144.02 213.96 144.02 215.57 
M 144.09 219 144.2 221.19 
M 151.07 148.36 150.24 152.08 
M 149.69 183.08 149.61 190.56 
M 169.34 117.74 168.54 121.19 
M 163.45 133.67 162.5 137.25 
M 160 143.91 158.63 147.15 
M 156.58 155.18 156.13 157.86 
M 155.48 215.83 155.75 217.15 
M 156.34 220.41 156.38 220.62 
M 171.11 131.88 170.7 133.72 170.19 137.77 169.41 141.6 168.73 143.24 
M 167.23 146.4 165.72 149.58 
M 164.56 153.12 163.65 157.44 
M 162.22 188.78 162.08 190.16 
M 161.99 215.92 162.15 216.66 
M 180.75 118.8 180.19 122.51 
M 178.07 133.68 176.24 141.05 
M 172.99 151.96 171.41 156.84 
M 169.94 185.06 169.39 189.71 
M 168.45 216.06 169.45 220.48 
M 183.59 139.3 180.99 153.36 179.94 156.77 
M 178.64 169.67 178.03 173.12 
M 177.58 176.71 177.43 180.56 
M 177.37 184.47 177.33 186.4 176.8 189.95 
M 175.22 216.1 176.1 220.51 
M 193.41 126.94 192.85 130.86 
M 191.09 138.31 190.27 142.22 
M 189.73 146.46 188.97 152.96 188.54 154.67 
M 186.28 173.04 185.8 176.67 
M 185.24 180.17 184.64 183.6 
M 184 186.92 183.45 189.69 
M 182.41 215.9 182.71 218.32 
M 201.5 118.98 200.43 124.37 199.96 128.34 199.81 135.04 
M 199.58 139.48 199.38 141.63 196.64 156.6 
M 190.89 185.79 190.43 187.31 189.8 190.57 
M 207.96 122.9 207.39 128.9 207.18 140.16 
M 206.09 148.62 205.13 153.65 
M 203.94 170.54 203.58 172.27 202.98 173.74 
M 200.54 179.54 199.38 182.45 
M 198.31 185.38 197.82 186.87 197.5 188.49 
M 197.37 217.09 197.62 219.41 
M 216.22 120.81 215.6 124.43 
M 215.17 128.31 214.38 138.72 213.85 142.84 212.6 148.71 
M 211.56 153.07 210.98 155.49 
M 209.84 168.73 209.41 172.41 
M 208.1 179.23 207.2 182.34 
M 206.34 185.43 204.86 191.92 
M 224.43 123.67 222.85 128.39 221.06 139.77 219.91 145.5 
M 219 149.26 218.49 151.11 217.19 154.48 
M 214.71 166.02 213.83 175.1 212.08 186.85 
M 211.94 190.43 212.1 193.39 
M 213.42 212.66 213.78 217.36 
M 233.77 120.07 232.92 123.27 
M 231.91 126.35 230.82 129.4 
M 229.85 132.63 227.1 142.88 
M 225.03 149.83 224.47 151.56 223.45 153.77 
M 219.72 171.17 219.56 174.79 
M 219.43 178.4 219.19 187.34 220.11 193.66 
M 221.69 208.61 221.89 212.24 
M 221.94 214.75 221.95 215.59 
M 236.17 134.4 233.6 142.34 232.46 145.5 231.77 146.99 
M 230.06 150.52 229.05 152.56 
M 226.8 166.73 226.74 170.27 
M 227.18 177.86 227.75 187.21 228.45 193.06 
M 230.32 205.43 230.65 208.63 
M 230.65 212.05 230.53 213.71 
M 240.06 138.17 239.02 141.21 
M 237.71 144.02 235.46 148.03 234.22 151.03 
M 233.71 159.1 233.75 162.55 
M 234.34 169.92 234.88 173.83 
M 235.94 181.59 236.27 185.25 
M 236.56 188.85 237.41 196.3 
M 238.21 202.92 238.28 203.73 
M 238.57 207.29 238.98 211.4 
M 252.35 130.18 251.74 131.55 248.41 136.12 246.9 138.54 246.3 139.9 
M 245.07 142.61 244.44 143.96 242.01 147.49 
M 240.77 149.62 240.34 150.56 
M 243.13 173.97 243.7 177.68 
M 244.11 181.24 244.95 189.97 245.93 197.62 
M 246.25 200.35 246.81 206.51 
M 254.3 139.29 252.29 142.98 248.64 152.23 
M 249.39 163.31 250.26 167.1 
M 251.73 174.42 251.85 176.01 251.72 181.8 252.69 188.81 253.16 193.92 
M 253.4 197.31 253.71 200.82 
M 253.92 203.69 253.98 204.78 
M 261.77 133.92 261.28 137.23 
M 260.94 140.65 260.76 142.33 260.08 145.32 258.3 150.83 257.9 152.6 
M 259.03 162.75 260.23 169.37 
M 260.76 172.62 260.97 174.18 260.87 176.83 260.66 178 
M 260.39 180.53 260.45 183.42 
M 260.61 186.47 260.57 189.39 
M 260.03 194.99 259.9 198.37 
M 267.47 134.12 267.21 135.77 266.78 146.29 265.88 154.14 
M 268.77 167.66 269.53 174.77 269.36 177.18 268.97 179.42 268.81 186.12 
M 268.48 188.68 267.86 192.53 267.64 195.42 267.64 198.22 
M 275.39 128.36 274.44 131.37 
M 273.14 137.67 272.79 144.53 
M 272.87 148.11 273.24 156.21 
M 274.8 161.43 275.6 164.63 
M 276.1 167.52 277.82 182.9 277.6 185.36 276.31 189.72 276.05 192.45 276.19 196.66 
M 281.79 132.59 281.33 134.08 280.76 137.31 280.45 142.5 
M 280.29 145.89 280.09 150.88 280.3 156.2 
M 283.83 170.22 284.39 174.33 286.14 180.99 286.52 183.94 286.25 186.32 285.1 190.8 285 192.2 
M 284.95 195.76 285.01 197.93 
M 288.67 137.07 288.24 145.87 287.62 152.21 287.76 156.63 
M 291.25 170.54 291.29 171.75 291.82 174.65 292.3 176.34 
M 293.78 182.83 293.9 184.24 293.78 185.46 
M 293.47 187.87 292.92 191.62 292.76 194.46 292.8 197.92 
M 297.23 135.37 297.25 139.31 
M 297.25 143.1 297.18 144.91 296.03 150.97 295.65 154.07 295.71 157.6 
M 298.68 171.15 298.62 172.29 298.78 173.66 
M 299.16 176.5 299.78 180.92 300.58 189.93 300.55 197.21 
M 305.92 137.82 306.07 143.88 305.64 147.25 304.61 151.75 
M 306.29 172.24 307.35 190.79 307.42 193.88 307.2 198.26 
M 314.21 135.6 313.14 146.62 
M 312.62 149.95 311.41 159.55 
M 313.28 170.38 313.67 173.38 
M 313.83 176.19 314.02 180.43 315.37 193.37 315.61 196.7 315.64 199.99 
M 321.41 140.43 319.89 149.1 318.62 159.85 
M 320.84 177.22 321.17 181.84 321.58 185.19 323.76 196.52 324.5 201.97 
M 329.87 137.77 328.47 142.82 327.8 146.39 326.3 160.57 
M 327.17 165.8 327.5 169.06 
M 327.66 172.16 327.67 176.64 328.28 183.31 329.66 194.06 330.43 198.05 331.26 201.26 
M 337.32 142.85 336.8 144.54 335.35 151.8 334.74 155.47 334.1 161.12 
M 334.89 166.6 334.99 169.83 
M 334.86 172.86 334.64 177.38 334.7 179.05 
M 334.94 182.49 336.07 193.38 
M 336.88 198.06 337.27 199.97 
M 345.24 148.86 343.05 157.9 342.29 162 
M 342.52 170.57 341.98 173.38 
M 341.28 179.42 341.25 184.46 341.51 188.11 342.75 198.52 
M 355.19 148.36 349.6 161.96 
M 349.5 170.7 349.27 174.02 
M 348.87 177.17 348.15 181.75 347.87 185.01 347.88 195.87 
M 364.98 143.25 364.41 145.06 363.68 146.72 
M 362.18 150.01 361.41 151.65 358.76 158.58 357.01 162.09 
M 356.8 171.15 356.79 173 356.46 176.37 355.13 182.42 354.7 185.65 354.2 193.84 
M 370.31 148.47 367.61 153.08 366.12 156.49 364.2 162.14 
M 363.86 171.42 363.41 174.81 
M 362.82 178.04 362.09 183.02 361.24 191.9 
M 377.2 151.38 374.7 156.29 371.34 162.21 
M 370 174.72 369.14 179.74 368.61 186.93 368.25 189.38 
M 230.66 121.17 229.43 121.94 229.08 122.42 228.29 124.34 226.82 126.08 226.02 126.58 223.54 127.54 
M 196.8 112.75 197.13 113.22 198.81 114.6 199.56 116.24 
M 280.31 123.57 276.03 124.78 272.87 124.89 
M 262.11 184.98 257.4 184.7 256.97 184.4 
M 257.72 133.59 258.49 133.4 259.91 132.75 261.58 132.68 264.15 133.44 265.16 133.97 266.78 135.26 
M 143.3 213.84 140.84 215.39 136.02 220.2 134.57 221.32 
M 172.51 155.45 176.72 150.96 176.87 150.26 176.49 148.85 
M 178.68 136.35 178.76 135.07 178.65 134.65 178.07 134.52 176.92 134.6 
M 248.18 197.86 247.53 197.13 245.84 194.63 244.73 193.64 243.24 192.81 240.27 191.87 
M 176.93 216.03 176.31 219.3 175.8 220.51 
M 364.09 148.89 361.96 149.27 361.1 149.24 359.49 148.75 357.5 147.77 356.15 147.57 355.86 147.68 
M 295.99 171.27 296.03 171.96 295.64 173.98 295.07 175.9 295.01 176.59 295.23 177.23 296.29 178.16 298.53 179.54 299.23 180.26 
M 253.74 157.51 253.14 157.04 251.69 156.34 250.25 156.06 249.72 156.16 249.26 156.44 248.45 157.38 248.22 158.15 248.27 158.74 
M 284.04 189.6 287.29 189.92 290.26 190.49 292.14 191.25 
M 193.85 134.62 194.12 136.94 195.06 139.26 194.92 141.18 
M 343.86 162.51 343.29 161.22 343.11 160.39 343.22 158.26 343.72 157.35 
M 258.13 121.87 258.23 119.33 258.5 117.95 
M 325.16 190.2 327.12 190.6 328.44 190.24 
M 215.67 185.32 215.47 184.15 215.65 182.53 216.99 179.65 217.07 179.09 216.78 178.39 
M 249.08 175.98 248.1 176.49 247.8 176.81 247.51 177.78 247.54 178.64 
M 327.57 149.04 322.89 156.86 
M 171.55 143.78 170.54 144.19 165.75 149.37 163.55 150.34 
M 297.91 151.98 295.17 147.91 294.28 144.47 
M 189.56 142.02 189.83 145.72 189.55 147.49 188.98 149.35 
M 365.42 140.32 363.4 141.13 
M 330.28 142.22 328.67 140.97 327.26 140.73 326.64 140.78 325.44 141.41 324.56 142.37 322.83 143.81 
M 378.32 156.25 378.15 157.78 378.49 158.79 379.64 159.53 381.02 159.77 
M 138.68 117.11 140.24 117.43 
M 151.92 116.59 159.62 79.6 160.5 79.75 155.11 116.77 
M 165.08 115.28 171.35 59.46 172.23 59.55 168.29 115.1 
M 178.03 112.42 184.13 44.39 185.01 44.46 181.23 112.14 
M 191.15 110.18 206.11 35.74 206.98 35.9 194.36 110.29 
M 204.46 109.89 230.55 31.52 231.39 31.79 207.6 110.5 
M 217.71 110.87 248.39 37.49 249.21 37.81 220.82 111.66 
M 230.9 112.53 266.47 38.61 267.27 38.99 233.97 113.46 
M 243.97 114.84 277.63 50.38 278.42 50.77 247 115.88 
M 257 117.28 289.28 52.57 290.08 52.95 260.05 118.26 
M 270.13 119.07 298.79 58.15 299.6 58.51 273.22 119.92 
M 283.3 120.69 308.03 71.56 308.82 71.94 286.37 121.62 
M 296.42 122.82 318.29 85.43 319.07 85.85 299.43 123.92 
M 309.37 125.78 329.17 96.03 329.92 96.5 312.31 127.04 
M 325.12 129.98 326.45 130.85 
M 140.88 117.41 145.8 110.46 148.16 106.84 150.35 103.14 152.36 99.33 155.84 91.44 158.85 83.3 
M 159.95 83.49 163.33 79.97 164.86 78.12 166.24 76.17 167.44 74.12 169.31 69.72 170.72 65.05 
M 171.83 65.15 175.3 62.78 178.36 60.07 179.66 58.52 180.79 56.83 181.79 55.03 183.52 51.2 
M 184.63 51.28 189.5 50.53 194.17 49.29 196.39 48.39 198.53 47.3 200.6 46.03 204.62 43.18 
M 205.71 43.38 210.85 43.61 215.9 43.31 218.37 42.86 220.8 42.2 223.2 41.37 227.94 39.36 
M 229 39.69 232.29 41.92 235.73 43.63 237.55 44.2 239.42 44.57 241.36 44.77 245.32 44.82 
M 246.36 45.24 249.98 46.54 253.64 47.32 255.48 47.4 257.32 47.28 259.18 46.97 262.91 46.01 
M 263.92 46.47 265.42 49.58 266.29 51.01 267.29 52.3 268.44 53.45 271.17 55.33 274.27 56.82 
M 275.26 57.32 277.48 58.83 279.79 59.8 280.99 60 282.22 59.98 283.48 59.78 286.05 59.04 
M 287.06 59.52 288.5 61.57 290.18 63.15 291.17 63.68 292.25 64.02 293.42 64.19 295.93 64.24 
M 296.94 64.7 297.94 67.98 298.58 69.53 299.36 70.96 300.32 72.27 302.72 74.52 305.55 76.47 
M 306.56 76.95 307.78 80.37 309.43 83.45 310.49 84.81 311.72 86.04 313.09 87.15 316.11 89.17 
M 317.08 89.7 318.56 92.61 319.41 93.93 320.4 95.12 321.52 96.15 324.17 97.77 327.19 99.01 
M 328.14 99.59 326.52 106.39 325.89 109.8 325.44 113.23 325.2 116.67 325.33 123.59 325.98 130.54 
M 161.67 81.75 164.86 78.12 166.24 76.17 167.44 74.12 168.45 71.97 170.05 67.4 
M 161.39 87.77 164.03 84.77 166.15 81.48 166.99 79.7 168.3 75.93 
M 161.11 93.79 163.19 91.43 164.08 90.16 165.52 87.43 166.56 84.46 
M 160.83 99.81 162.35 98.08 163.57 96.18 164.81 92.99 
M 173.59 63.99 176.9 61.48 178.36 60.07 179.66 58.52 180.79 56.83 182.68 53.14 
M 173.54 69.82 176.46 67.61 177.75 66.36 179.9 63.5 181.57 60.23 
M 173.49 75.65 176.02 73.73 177.14 72.65 179.01 70.17 180.46 67.33 
M 173.43 81.48 175.58 79.86 176.53 78.94 178.12 76.83 179.34 74.43 
M 173.38 87.32 175.15 85.98 176.62 84.4 178.23 81.53 
M 173.33 93.15 175.32 91.52 176.33 90.17 177.12 88.63 
M 187.08 50.94 191.87 50 194.17 49.29 196.39 48.39 198.53 47.3 202.62 44.64 
M 186.98 57 191.3 56.15 195.36 54.7 197.29 53.72 200.98 51.33 
M 186.89 63.05 190.73 62.3 192.57 61.74 196.06 60.14 199.33 58.01 
M 186.8 69.11 190.16 68.45 191.77 67.96 194.82 66.56 197.69 64.7 
M 186.71 75.17 189.58 74.6 192.3 73.64 193.58 72.98 196.04 71.39 
M 186.62 81.22 190.16 80.4 192.35 79.4 194.39 78.07 
M 186.53 87.28 188.44 86.9 190.25 86.26 192.75 84.76 
M 208.29 43.53 213.39 43.55 215.9 43.31 218.37 42.86 220.8 42.2 225.58 40.4 
M 207.51 49.38 212.16 49.4 214.45 49.18 218.92 48.17 223.28 46.53 
M 206.72 55.24 210.94 55.25 213 55.05 217.05 54.14 220.99 52.65 
M 205.94 61.09 209.71 61.1 213.38 60.59 215.17 60.11 218.69 58.78 
M 205.16 66.94 208.48 66.95 211.71 66.51 213.29 66.08 216.39 64.91 
M 204.38 72.8 207.25 72.81 210.05 72.42 214.1 71.03 
M 203.59 78.65 207.21 78.54 209.54 78.02 211.8 77.16 
M 202.81 84.5 205.76 84.42 207.66 83.99 209.51 83.29 
M 230.63 40.84 233.98 42.86 235.73 43.63 237.55 44.2 239.42 44.57 243.33 44.83 
M 229.05 46.97 232.11 48.82 233.71 49.52 237.07 50.38 240.64 50.61 
M 227.47 53.1 230.24 54.77 231.68 55.41 234.73 56.18 237.95 56.4 
M 225.89 59.24 228.36 60.73 230.99 61.72 232.38 61.99 235.26 62.18 
M 224.31 65.37 226.49 66.68 227.63 67.18 230.03 67.8 232.57 67.96 
M 222.74 71.5 225.6 73.07 227.68 73.6 229.88 73.74 
M 221.16 77.63 222.75 78.59 224.44 79.23 227.19 79.53 
M 219.58 83.76 221.55 84.85 222.98 85.21 224.5 85.31 
M 248.17 45.93 251.81 47.02 253.64 47.32 255.48 47.4 257.32 47.28 261.05 46.52 
M 246.21 51.74 249.53 52.74 251.2 53.01 254.56 52.97 257.96 52.28 
M 244.25 57.55 247.25 58.45 248.76 58.7 251.8 58.66 254.87 58.04 
M 242.29 63.36 244.97 64.17 246.32 64.38 249.04 64.36 251.79 63.8 
M 240.33 69.17 242.69 69.88 245.08 70.13 246.28 70.05 248.7 69.56 
M 238.37 74.98 241.44 75.76 243.52 75.74 245.61 75.31 
M 236.41 80.79 239 81.45 240.76 81.43 242.52 81.07 
M 234.45 86.6 236.57 87.14 238 87.12 239.44 86.83 
M 264.65 48.05 266.29 51.01 267.29 52.3 268.44 53.45 269.74 54.46 272.69 56.1 
M 262.39 53.85 263.89 56.55 265.85 58.78 267.04 59.7 269.73 61.2 
M 260.13 59.66 261.49 62.1 263.26 64.12 264.33 64.94 266.77 66.3 
M 257.88 65.46 259.09 67.64 260.68 69.45 261.63 70.18 263.81 71.4 
M 255.62 71.27 256.69 73.19 258.09 74.78 258.93 75.43 260.85 76.5 
M 253.37 77.07 254.29 78.73 255.5 80.11 257.89 81.6 
M 251.11 82.87 251.89 84.28 252.91 85.44 254.93 86.7 
M 248.86 88.68 249.88 90.32 250.83 91.16 251.97 91.79 
M 276.37 58.11 278.62 59.41 279.79 59.8 280.99 60 282.22 59.98 284.76 59.44 
M 274.23 63.24 276.28 64.43 277.35 64.79 279.57 64.95 281.89 64.46 
M 272.09 68.37 273.95 69.44 274.91 69.77 276.91 69.92 279.01 69.48 
M 269.95 73.51 271.61 74.46 272.47 74.76 274.26 74.88 276.14 74.49 
M 267.81 78.64 269.27 79.48 270.03 79.74 271.61 79.85 273.26 79.51 
M 265.67 83.77 267.59 84.72 268.96 84.82 270.39 84.52 
M 263.53 88.9 265.15 89.71 266.31 89.79 267.51 89.54 
M 261.39 94.04 262.71 94.69 263.65 94.76 264.64 94.55 
M 287.76 60.58 289.3 62.44 290.18 63.15 291.17 63.68 292.25 64.02 294.66 64.25 
M 285.48 66.4 286.87 68.08 287.66 68.72 289.53 69.5 291.69 69.71 
M 283.21 72.23 284.44 73.72 285.93 74.71 286.8 74.98 288.73 75.17 
M 280.93 78.06 282.01 79.36 283.32 80.23 284.08 80.47 285.76 80.63 
M 278.66 83.88 280.11 85.43 281.35 85.95 282.8 86.09 
M 276.38 89.71 277.59 91 278.63 91.43 279.83 91.55 
M 274.11 95.54 274.72 96.29 275.47 96.78 276.86 97.01 
M 297.41 66.36 298.58 69.53 299.36 70.96 300.32 72.27 301.45 73.45 304.11 75.52 
M 295.16 72.68 296.19 75.48 296.89 76.74 298.73 78.94 301.08 80.77 
M 292.92 79.01 293.81 81.43 294.41 82.53 296.01 84.44 298.05 86.03 
M 290.67 85.33 291.43 87.38 291.94 88.31 293.29 89.93 295.02 91.28 
M 288.42 91.65 289.05 93.34 289.98 94.8 292 96.53 
M 286.18 97.97 286.66 99.29 287.39 100.43 288.97 101.79 
M 307.14 78.68 308.53 81.97 309.43 83.45 310.49 84.81 311.72 86.04 314.57 88.18 
M 304.37 86.35 305.51 89.06 307.13 91.4 308.14 92.42 310.49 94.19 
M 301.59 94.01 302.49 96.15 303.07 97.11 304.56 98.79 306.42 100.19 
M 298.81 101.68 299.47 103.24 300.4 104.59 302.34 106.19 
M 317.8 91.18 319.41 93.93 320.4 95.12 321.52 96.15 322.78 97.03 325.66 98.42 
M 315.43 97.12 316.76 99.39 317.57 100.37 319.54 101.94 321.91 103.09 
M 313.06 103.06 314.11 104.84 315.48 106.29 316.3 106.86 318.17 107.76 
M 310.69 108.99 311.46 110.3 312.46 111.35 314.43 112.43 
M 120.69 192.49 124.07 192.13 126.76 192.11 132.13 191.65 134.74 191.08 137.31 191.11 142.6 190.59 150.58 190.53 153.19 190.15 155.99 190.02 161.91 190.18 164.66 189.73 167.36 189.57 175.23 190.04 183.53 189.69 186.57 189.93 191.63 190.83 194.27 191.09 198.73 191.19 201.6 191.62 204.4 191.77 207.45 192.75 212.32 193.42 217.76 193.49 223.43 193.87 228.94 194.43 234.3 195.54 236.91 196.45 239.38 196.52 242.82 197.2 245.2 197.41 247.87 198.19 251.74 198.61 227.39 206.37 222.52 208.15 220.38 209.33 215.16 210.77 212.74 211.66 209.75 212 204.96 213.83 202.06 213.81 196.86 214.41 188.53 214.76 186.02 215.15 183.78 215.8 181.11 215.99 178.36 215.94 170.48 216.19 167.57 216 162.07 215.92 159.59 216.15 157.31 216.14 151.77 215.02 149.44 214.9 141.44 213.54 139.06 213.36 136.6 212.83 119.92 207.33 
M 120.59 194.88 124.27 195.09 137.35 194.44 145.47 194.48 151.18 195 156.42 195.9 163.99 196.67 166.82 196.86 169.83 196.78 173.01 196.95 181.69 197.75 
M 120.4 197.16 121.83 197.39 127.24 197.53 130.18 197.93 137.48 198.08 145.6 198.95 151.03 199.76 154.01 200.9 159.33 202.26 162.19 202.65 164.82 202.63 167.18 202.86 172.39 204.42 175.38 205.01 177.88 205.82 
M 120.25 199.41 130 201.02 132.62 201.18 134.95 201.96 137.05 202.4 142.59 204.05 147.66 204.78 156.14 207.56 161.95 208.94 
M 120.14 201.85 124.4 203.36 127.2 204.17 129.63 204.33 132.3 205.04 134.77 206.14 142.06 209.84 146.7 210.81 149.07 211.93 158.36 215.63 
M 120.02 204.65 126.85 208.19 129.61 209.01 
M 195.01 219.71 201.3 225.89 202.73 228.51 204.73 231.07 233.06 262.34 233.39 264.94 234.75 268.57 235.49 271.58 235.37 273.73 230.39 278.47 224.76 277.68 222.31 277.57 217.14 276.93 214.74 276.56 212.05 275.89 209.96 275.84 170.99 234.21 167.06 228.26 165.48 224.91 162.14 220.43 
M 190.6 220.03 193.93 223.13 199.1 229.12 201.6 230.95 203.71 233.09 208.51 236.92 210.33 238.66 211.71 241.17 213.51 243.52 216.03 245.99 218.45 249.37 220.31 251.32 222.67 253.2 226.34 254.31 227.64 256.24 228.41 258.82 
M 186.19 220.35 188.64 223.28 191.18 225.64 193.35 228.27 195.27 230.08 196.67 232.21 198.59 234 200.57 235.33 202.44 237.4 206.56 242.13 210.13 247.15 212.24 248.97 216.92 251.99 219.45 254.06 221.62 256.39 222.95 259.38 226.99 266.75 229.12 268.42 
M 181.77 220.51 184.23 223.32 186.22 226 188.42 228.41 191.62 232.81 193.8 235.12 195.32 237.1 197.12 238.65 200.25 244.03 203.36 248.52 205.5 251.04 207.85 253.05 210.04 254.12 214.02 258.93 215.61 264.08 216.64 266.65 220.75 271.89 224.11 273.47 226.15 275.24 227.18 277.17 
M 177.35 220.51 183.62 228.79 185.46 231.47 189.14 235.83 190.75 238.38 194.33 242.31 196.13 244.74 198.18 246.89 199.16 249.98 201.36 254.43 203.1 256.74 204.67 259.32 207.2 261.21 208.65 263.72 211.66 266.34 212.28 268.14 
M 172.93 220.51 176.6 226.21 182.41 234.18 184.84 236.38 186.31 239.13 187.88 240.96 190.06 242.82 191.13 245.36 194.19 249.15 195.65 251.29 197.08 254.56 197.85 256.82 199.47 259.63 200.82 262.48 201.09 265.27 202.27 267.9 204.68 269.49 206.82 271.54 208.25 274.11 
M 168.51 220.48 170.72 223.74 175.58 231.61 177.91 233.85 182.05 239.38 188.05 248.47 
M 348.36 197.03 352.37 202.2 355.15 205.34 357.96 209.06 359.62 217.71 359.45 221.01 358.88 223.94 355.53 227.98 353.54 229.73 351.87 231.75 347.89 235.14 345.46 236.32 343.5 238.1 341.39 239.57 335.58 238.96 332.44 238.98 327.34 239.71 324.3 239.24 321.25 238.5 318.57 238.12 317.04 238.21 314.65 237.43 312.13 237.98 309.25 237.99 307.08 238.21 304.86 237.78 300.04 234.49 297.18 233.14 291.91 232.89 289.63 232.11 287.16 232.13 284.45 231.86 282.13 230.86 280.02 230.42 271.15 220.23 267.29 217.01 264.82 214.56 260.73 208.61 
M 344.09 198.17 349.83 204.76 352.88 207.76 355.41 210.57 356.56 213.42 358.33 215.39 
M 339.82 199.31 342.96 202.99 347.82 207.62 349.37 211.02 351.46 213.86 354.56 219.21 
M 335.52 200.35 342.47 208.12 344.2 209.7 346.29 212.36 348.51 215.26 351.15 221.39 353.35 223.42 355.45 225.72 
M 331.2 201.28 334.77 204.5 336.99 207.76 340.33 211.67 341.61 214.08 343.41 216.54 344.07 219.17 345.35 221.44 347.41 223.84 
M 326.88 202.21 329.59 205.14 333.97 211.23 336.12 213.63 338.36 216.48 339.29 218.48 339.73 220.56 341.22 222.43 343.37 224.71 
M 322.51 202.9 324.91 205.88 326.44 208.47 330.41 213.96 332.25 216.9 334.88 219.76 339.06 226.56 
M 318.14 203.57 324 211.37 326.21 214.01 327.75 217.54 331.05 222.86 332.29 224.46 334 227.13 336.42 230.22 338.31 231.93 339.57 233.52 
M 313.75 204.11 316.21 207.83 318.55 210.85 319.79 213.55 321.29 215.76 322.71 218.47 328.58 227.11 
M 309.35 204.48 313.71 211.33 315.02 213.86 316.11 216.62 319.02 220.83 321.21 223.39 323.39 226.77 325.66 229.08 327.18 231.78 
M 304.94 204.85 307.49 208.3 310.74 213.88 311.84 216.15 313.89 218.87 316.12 224 
M 300.53 205.02 304.87 211.58 307.55 216.93 308.45 219.81 311.54 225 312.47 228.13 314.08 230.7 317.49 234.1 319.23 236.99 
M 296.11 205.16 301.08 212.31 302.29 214.69 304.64 218.46 305.82 221.73 
M 291.69 205.36 296.07 212.35 299.73 216.85 300.62 218.49 302.04 221.37 303.3 224.56 303.29 227.93 
M 287.28 205.61 290.85 212.26 293.36 214.9 295.44 218.14 297.63 220.32 298.61 222.71 
M 282.87 205.87 288.78 214.88 291.16 218.06 293.07 221.23 294.26 223.74 294.61 226.53 
M 278.47 206.31 281.5 209.66 283.48 212.39 284.83 215.56 286.76 218.76 
M 274.07 206.76 276.79 209.96 278.98 213.25 284.55 223.12 
M 269.68 207.3 273.88 213.33 275.95 216.74 
M 265.31 207.94 267.84 211.81 269.9 213.97 272.07 216.86 
M 381.22 146.08 383.97 145.03 386.15 143.77 391.31 141.44 393.87 139.97 396.15 138.91 400.99 135.87 404.59 132.41 409.32 129.29 411.89 128.91 414.86 127.62 419.12 124.07 422.32 122.89 428.05 120 430.45 118.2 434.89 115.51 436.85 113.36 441.62 108.82 445.47 107.03 451.85 103.36 454.9 100.6 457.18 98.96 461.02 97.07 463.53 96.18 465.8 95.6 468.66 93.8 470.69 92.25 471.7 90.98 473.81 89.25 476.94 88.23 479.06 86.27 481.6 84.42 484.3 81.68 487.08 80.12 490 79.23 464.74 103.3 463.63 105.66 462.86 108.37 462.43 111.41 461.35 113.81 459.95 115.88 459.04 118.44 457.7 120.78 453.05 127.15 452.59 130.05 451.68 132.51 450.26 134.62 449.08 137.02 446.1 141.17 446.01 144.15 447 148.03 445.69 149.7 444.03 151.24 442.88 153.31 442.2 156.07 442.16 159.38 442.52 162.49 442.21 164.84 442.47 167.57 441.23 172.57 440.82 175.42 441.56 178.19 441.18 179.85 442.41 185.22 443.24 187.95 447.55 193.74 447.21 194.88 447.33 196.78 449.05 201.89 451.15 207.39 452.79 214.04 453.52 215.95 457.64 223.36 461.43 229.18 463.79 232.33 488.51 259.46 485.46 257.75 484.76 255.1 482.83 254.56 478.3 251.65 474.67 250.92 464.33 243.73 460.88 239.8 458.62 237.7 456.38 236.06 454.46 235.89 451.44 234.8 448.97 233.5 447.14 231.54 445.08 230.06 442.27 228.54 437.79 225.36 435.45 223.98 433.43 223.4 431.86 221.77 429.45 220.58 425.55 217.03 423.72 215.57 419.57 211.44 416.61 209.85 411.42 206.07 409.4 204.92 407.62 204.48 405.56 203.12 400.81 199.23 397.95 197.67 396.07 195.98 394.28 194.06 386.67 188.94 381.22 184.94 
M 384.12 147.24 386.32 145.99 388.81 144.9 391.58 144.22 394.38 142.71 399.31 140.91 401.63 139.87 403.68 138.22 405.72 136.18 408.21 134.92 410.41 133.44 412.84 133.45 418.4 131.18 421.36 129.6 423.75 128.95 425.25 128.15 428.65 124.89 431.27 123.63 434.4 122.44 437.6 121.79 440.66 119.91 442.66 116.63 447.38 115.25 449.16 114.27 
M 381.22 149.96 384.21 149.24 394.33 145.1 397.11 143.72 399.75 143.65 401.9 143.16 403.76 141.36 406.35 140.19 413.59 136.36 416.49 135.76 425.53 133.34 427.93 131.61 430.5 130.16 434.99 128.44 438.42 126.76 442.8 126.34 445.11 125.03 446.03 122.71 
M 389.2 149.76 391.48 148.67 394.06 148.21 396.84 147.19 402.42 146.14 404.67 146.02 407.26 144.52 409.42 142.72 412.26 141.37 414.49 139.97 417.47 139.18 
M 384.59 153.45 387.15 152.93 392.12 151.27 394.92 150.99 400.11 149.26 402.8 148.82 404.6 148.7 407.58 148.13 410.64 146.22 414.08 145.46 416.75 144.36 418.99 143.91 422.24 141.98 428.82 140.34 431.35 139.15 433.78 138.5 
M 381.22 155.79 384.65 155.38 387.38 154.75 395.87 154.18 401.16 153.27 403.37 152.34 405.15 152.32 408.19 151.11 411.87 150.12 415.89 149.57 418.53 149.56 420.5 149.82 422.2 148.17 
M 384.65 157.57 387.66 156.84 390.59 156.98 393.41 157.41 396.65 157.09 401.84 156.21 404.68 155.93 409.19 154.2 415.89 154.18 419.02 153.43 421.25 153.66 422.82 152.51 424.94 152.6 430.57 151.67 433.12 150.84 436.16 150.12 
M 390.57 159.66 396.7 160.11 399.57 159.83 402.26 158.9 408.17 157.74 416.37 156.55 418.48 157.37 
M 384.56 162.41 387.36 162.23 390.17 162.28 396.13 163.23 398.96 162.84 408.3 161.01 413.87 160.75 416.34 160.46 418.7 161.49 420.8 161.93 422.26 161.12 425.64 161.09 428.6 160.62 430.5 161.99 
M 381.22 163.57 384.67 164.84 396.04 165.77 398.91 165.72 401.96 164.89 405.39 164.22 408.34 164.44 411.63 164.22 413.85 164.82 418.25 164.99 420.99 165.38 423.85 165.4 
M 387.35 167.39 390.43 167.7 393.15 168.17 399.1 168.08 402.44 168.22 405.64 167.68 408.67 167.68 411.54 168.29 415.37 167.48 418.24 168.9 420.75 169.36 427.21 169.01 430.61 169.38 
M 384.75 168.87 396.45 171.17 399.09 171.35 401.93 171.02 404.85 171.24 411.1 172.69 413.08 172.51 415.15 173.12 418.47 172.69 421.09 172.96 422.93 172.75 429.29 174.28 
M 387.84 171.52 390.42 172.16 393.29 173.13 396.21 173.58 402.35 174.39 404.8 174.05 407.42 174.46 410.39 175.66 412.51 175.8 415.25 176.41 418.08 176.08 420.52 176.44 423.34 177.47 428.57 177.68 
M 384.58 172.9 387.49 173.54 393.32 175.61 395.76 176.22 398.92 176.75 402.41 177.85 404.58 177.61 407.47 178.37 410.33 179.63 415.7 180.51 418.66 180.8 420.37 180.45 423.15 180.68 425.46 181.32 427.94 181.27 
M 381.22 173.28 384.58 174.92 395.68 178.5 398.4 179.53 402.04 180.24 404.97 181.6 410.31 182.96 416.77 183.94 
M 387.85 178.14 390.49 179.28 393.17 180.13 395.46 180.54 398.54 181.5 401.86 182.98 412.66 186.71 415.7 187.33 417.54 187.45 
M 381.22 177.17 384.74 179.11 390.82 181.71 393.57 182.33 401.34 185.4 409.03 190.18 411.86 191.02 414.53 191.03 419.54 193.26 421.79 195.2 423.59 197.09 425.7 198.19 427.85 197.89 430.6 198.2 433.47 199.64 437.44 201.26 
M 384.76 181.21 387.95 182.94 390.75 184.11 393.29 184.92 395.29 186.22 400.7 188.77 406.41 191.82 411.18 194.65 413.69 195.17 416.48 196.38 422.7 200.02 427.66 201.77 430.11 203.42 434.7 206.01 438.89 207.81 442.21 208.28 444.55 208.8 
M 384.51 183.22 395.25 189.02 398.18 190.78 403.05 194.07 407.66 196.1 409.58 197.98 411.41 198.86 413.86 199.52 416.51 200.72 419.3 201.26 425.39 204.31 
M 389.69 188.62 392.38 190.03 397.75 193.23 399.97 195.17 402.35 196.42 408.28 200.99 410.09 201.9 412.54 202.77 417.31 206 420.17 208.28 423.33 210.13 427.74 213.72 430.43 215.11 432.92 216.07 434.66 217.47 436.04 218.83 437.64 219.27 
M 35.8 184.41 36.63 182.06 38.51 178.43 41.61 174.63 45.71 170.85 62.15 150.72 66.71 145.97 73.02 141.55 79.25 137.8 90.08 130.09 99.19 124.72 102.91 122.82 107.38 120.96 110.56 125.82 112.67 130.86 114.46 135.92 117.21 146.15 119.1 151.21 119.98 156.37 120.59 161.57 120.31 166.87 121.11 177.31 121 182.59 120.43 187.92 120.73 193.15 120.3 198.46 119.65 214.33 118.41 219.74 107.98 219.5 100.38 218.76 93.51 217.61 87.04 216.29 81.05 214.85 75.24 213.27 69.89 211.38 64.96 209.19 55.94 204.56 51.32 201.96 
M 44.38 197.02 41.65 195.11 40.82 194.34 
M 99.09 156.43 99.11 156.75 
M 97.64 174.43 97.16 176.99 96.22 180.23 96.34 183.05 96.24 185.77 96.62 188.57 97.47 191.66 98.94 195.21 99.7 199.48 87.85 199.77 78.05 199.68 73.17 199.28 68.26 198.46 63.66 196.98 
M 49.82 201.5 42.49 195.51 38.96 193 33.8 188.9 32.97 186.88 34.06 184.81 36.23 184.31 37.95 185.65 51.54 201.72 
M 51.28 202.45 40.72 203.81 34.08 205.12 31.87 205.4 30.16 204.09 30 201.83 31.62 200.18 33.77 200.01 40.68 200.36 51.22 201.62 
M 68.89 171.33 67.48 165.95 67.88 160.41 70.06 155.3 73.79 151.17 78.65 148.48 84.12 147.51 89.61 148.37 94.53 150.96 98.33 155.01 100.62 160.08 101.13 165.62 99.82 171.02 96.82 175.7 92.47 179.16 87.23 181.02 81.68 181.07 76.4 179.32 71.98 175.95 68.89 171.33 
M 68.69 170.85 68.01 168.87 67.58 166.82 67.41 164.74 67.49 162.65 67.84 160.58 68.44 158.58 69.28 156.66 70.35 154.86 71.63 153.21 73.11 151.73 74.76 150.45 76.56 149.38 78.48 148.54 80.48 147.94 82.55 147.6 84.64 147.51 86.72 147.68 88.77 148.11 90.75 148.79 
M 70.32 170.18 69.71 168.4 69.33 166.57 69.18 164.7 69.25 162.83 69.56 160.98 70.1 159.19 70.85 157.47 72.64 154.79 
M 73.37 153.97 75.76 151.91 77.37 150.95 79.09 150.2 80.88 149.66 82.73 149.35 84.6 149.28 86.47 149.43 88.3 149.82 90.07 150.42 
M 71.96 169.5 71.42 167.93 71.08 166.31 70.94 164.67 71.01 163.01 71.36 161.13 
M 74.63 155.2 76.76 153.37 78.18 152.52 79.69 151.86 81.28 151.38 82.91 151.11 84.56 151.04 86.21 151.18 87.83 151.52 89.4 152.06 
M 73.59 168.82 72.83 166.06 72.71 164.63 72.77 163.2 73.12 161.39 
M 75.84 156.49 77.76 154.83 78.99 154.09 81.68 153.11 83.09 152.87 85.96 152.93 88.72 153.69 
M 75.22 168.15 74.83 167 74.48 164.59 74.53 163.38 74.86 161.75 
M 76.99 157.83 78.75 156.29 79.8 155.67 82.08 154.83 84.49 154.58 85.7 154.68 88.04 155.32 
M 78.13 167.16 77.56 165.02 77.83 162.55 
M 79.51 159.74 80.09 159.1 82.03 158.02 84.22 157.64 86.42 157.98 88.38 159.02 89.91 160.64 90.82 162.67 91.03 164.88 90.5 167.04 89.3 168.92 87.56 170.3 85.47 171.04 83.24 171.06 81.13 170.36 79.37 169.01 78.13 167.16 
M 80.17 159.06 79.73 159.93 
M 78.33 162.73 77.63 164.14 
M 82 158.04 80.67 160.71 
M 79.45 163.15 77.89 166.26 
M 83.46 157.77 81.57 161.55 
M 80.55 163.6 78.49 167.71 
M 84.81 157.73 82.43 162.49 
M 81.65 164.06 79.25 168.85 
M 86.04 157.92 83.3 163.4 
M 82.79 164.43 80.18 169.64 
M 87.15 158.37 84.2 164.26 
M 83.96 164.73 81.15 170.37 
M 88.19 158.92 82.28 170.74 
M 89.09 159.77 83.45 171.06 
M 89.94 160.72 84.78 171.05 
M 90.57 162.12 86.25 170.76 
M 90.95 164.03 87.97 169.97 
M 36.13 183.46 39.52 186.85 
M 37.79 179.82 41.67 183.7 
M 39.95 176.67 42.73 179.45 
M 42.45 173.86 46.53 177.94 
M 45.21 171.32 49.29 175.4 
M 47.67 168.47 50.71 171.51 
M 50.06 165.56 54.26 169.77 
M 52.43 162.62 57.23 167.43 
M 54.81 159.7 59.06 163.95 
M 57.19 156.78 59.94 159.53 
M 59.58 153.86 63.32 157.6 
M 61.97 150.95 65.34 154.32 
M 64.55 148.22 68.21 151.88 
M 67.23 145.6 71.48 149.84 
M 70.35 143.42 73.28 146.35 
M 73.5 141.26 76.97 144.73 
M 76.81 139.27 80.78 143.24 
M 80.07 137.22 84.03 141.18 
M 83.16 135 88.18 140.02 
M 86.25 132.79 90.06 136.6 
M 89.36 130.6 94.06 135.29 
M 92.61 128.54 95.7 131.63 
M 95.93 126.56 99.22 129.85 
M 99.33 124.65 103.3 128.62 
M 102.84 122.85 106.94 126.95 
M 106.55 121.27 109.09 123.8 
M 105.99 182.47 104.8 183.53 104.46 184.48 104.51 185.99 104.82 186.73 105.41 187.37 
M 114.37 182.15 113.71 181.63 112.19 180.85 109.93 179.95 109.32 179.93 108.71 180.06 105.72 181.38 104.87 182.32 
M 112.9 194.7 112.52 194.03 112.21 191.91 111.29 188.33 110.4 187.18 109.17 186.73 
M 91.21 132.96 90.96 133.28 90.71 134.42 90.43 134.84 88.88 135.5 87.39 136.7 
M 58.26 198.55 59.47 200.77 61.77 203.75 62.05 205.15 
M 62.73 199.89 63.3 200.68 64.53 201.82 65.08 204.28 
M 112.83 184.65 109.96 184.2 107.51 184.4 106.51 184.9 106.17 185.26 105.9 186.05 105.96 187.19 
M 97.7 154.35 98.38 154.04 99.23 154.33 99.68 154.78 100.48 156.11 
M 53.26 177.78 51.21 178.27 46.91 178.26 45.04 179.62 43.97 181.46 
M 53.04 176.98 51.07 177.52 47.35 177.67 46.62 177.87 44.65 179.54 43.76 181.38 
M 65.01 167.54 67.87 167.44 
M 71.6 182.05 72.94 182.32 75.77 183.65 78.02 183.63 
M 111.31 161.49 110.09 161.53 109.55 161.7 108.51 162.2 108.15 162.53 107.07 164.07 106.79 164.72 106.53 166.1 106.57 167.37 
M 118.78 215.27 117.89 217.54 117.01 218.82 116.39 219.24 115.2 219.66 
M 116.15 218.7 114.5 219.65 
M 82.15 137.75 80.32 139.96 79.4 140.75 75.24 143.04 
M 81.82 195.68 82.57 196.87 84.23 198.06 88.22 199.89 89.61 199.99 
M 103.01 183.47 102.14 184.91 102.16 185.44 102.8 186.28 103.89 186.91 
M 63.91 180.05 63.55 178.94 63.23 178.51 62.04 177.58 61.38 176 
M 41.39 174.9 39.67 177.44 39 178 38.29 179.4 37.89 180.73 
M 85.32 196.97 88.71 198.31 90.87 198.67 91.39 199.04 91.62 199.56 91.76 200.82 91.44 202.15 
M 97.92 154.58 98.27 154.39 98.84 154.43 
M 101.1 140.23 99.05 142.55 98.54 142.86 98.2 142.87 
M 110.78 188.26 110.33 187.45 109.91 187.13 108.31 186.69 107.49 186.31 
M 94.8 138.92 92.84 137.05 92.31 136.86 91.73 136.88 90.59 137.28 90.02 137.7 88.99 138.96 86.86 140.5 
M 47.22 192.85 44.54 191.91 42.9 190.85 40.55 188.85 
M 111.26 127.49 110.64 127.12 
M 107.52 169.81 108.12 168.52 108.25 167.74 108.17 167.45 107.75 167.23 107.23 167.27 106.93 167.47 
M 51.42 186.45 48.49 185.29 45.56 184.5 44.6 184.38 
M 103.17 191.78 102.48 191.24 100.22 188.51 100.02 187.26 100.35 186.11 
M 50.68 170.71 49.63 171.33 47.92 172.91 46.69 174.97 44.26 177.47 42.94 179.08 41.73 181.01 
M 98.86 175.03 98.22 176.46 98.23 176.83 98.48 176.93 
M 83.93 146.39 83.12 147.68 
M 91.53 191.54 91.77 188.93 92.25 187.35 95.12 181.99 96.99 179.84 
M 111.86 143.82 110.29 142.47 109.03 140.75 108.01 139.88 107.03 139.69 106.45 139.81 105.24 140.33 104.77 140.73 
M 71.12 208.56 70.13 208.33 68.79 207.48 66.64 206.91 65.51 206.34 
M 102.99 191.12 100.29 188.28 100.11 187.08 100.43 186.04 
M 107.66 214.8 107.85 213.9 107.48 211.08 106.08 208.92 105.52 207.47 
M 120.28 195.05 120.14 194.6 119.61 194.25 117.83 193.81 115.77 193.65 
M 72.9 152.15 72.44 151.76 
M 51.38 201.9 52.38 202.85 
M 46.72 198.97 46.61 200.12 46.98 199.68 47.35 199.53 
M 42.34 195.4 41.64 196.58 41.48 198 42.03 196.94 43.24 196.11 
M 37.86 192.15 36.69 193.83 36.35 195.88 37.07 194.19 38.77 192.85 
M 33.65 188.53 31.73 191.09 31.22 193.75 32.12 191.45 34.47 189.45 
M 51.27 202.26 52.62 202.22 
M 44.95 200.91 45.68 199.82 45.57 200.59 45.73 201 
M 38.44 200.25 38.61 198.95 39.62 197.39 39.14 198.93 39.41 200.3 
M 31.95 200.16 32.18 197.3 33.56 194.96 32.71 197.28 33.11 200.06 
M 37.43 204.37 43.05 206.05 46.63 206.95 50.25 207.66 57.6 208.62 64.96 209.19 
M 45.11 206.32 45.05 206.56 
M 56.91 207.61 58.36 208.69 
M 107.63 120.87 115.61 128.85 
M 113.75 119.92 124.28 130.45 
M 119.94 119.03 125.77 124.86 
M 126.33 118.36 132.61 124.63 
M 132.89 117.84 138.53 123.47 
M 139.59 117.47 145.24 123.12 
M 146.39 117.2 156.15 126.95 
M 153.16 116.89 160.82 124.55 
M 159.82 116.47 166.83 123.48 
M 165.98 115.56 174.17 123.76 
M 171.87 114.38 179.59 122.1 
M 177.6 113.03 186.85 122.29 
M 183.28 111.64 190.21 118.57 
M 189.54 110.83 198.03 119.32 
M 196.01 110.23 204.7 118.92 
M 203.19 110.33 213.68 120.83 
M 210.65 110.73 216.67 116.74 
M 218.37 111.37 225.36 118.36 
M 226.38 112.31 233.36 119.28 
M 234.73 113.58 242.34 121.2 
M 243.37 115.15 252.2 123.98 
M 252.15 116.86 257.86 122.57 
M 260.75 118.38 267.13 124.76 
M 268.82 119.38 277.57 128.13 
M 276.87 120.36 286.46 129.95 
M 285 121.42 290.99 127.4 
M 293.34 122.68 300.58 129.93 
M 302.23 124.5 309.51 131.78 
M 311.68 126.87 317.14 132.34 
M 321.35 129.47 330.05 138.17 
M 330.74 131.79 341.24 142.29 
M 339.79 133.76 345.41 139.39 
M 348.84 135.75 356.93 143.83 
M 358.34 138.17 364.96 144.79 
M 368.52 141.28 377.7 150.46 
M 379.86 145.55 388.5 154.18 
M 119.34 215.67 121.63 220.25 
M 119.8 210.41 124.98 220.75 
M 121.64 207.9 128.32 221.26 
M 125.35 209.12 129.11 216.65 
M 120.52 187.08 123.1 192.24 
M 121.02 181.89 126.13 192.12 
M 120.98 175.63 129.1 191.87 
M 120.42 168.32 130.61 188.69 
M 120.55 162.38 131.02 183.32 
M 119.65 154.39 131.43 177.96 
M 115.63 140.18 131.84 172.59 
M 108.97 120.66 132.3 167.32 
M 111.84 120.21 132 160.54 
M 161.41 219.36 161.95 220.44 
M 114.71 119.77 131.71 153.77 
M 162.79 215.93 165.05 220.45 
M 117.58 119.32 132.21 148.58 
M 165.91 215.97 168.16 220.48 
M 120.5 118.97 131.97 141.91 
M 169.06 216.1 171.27 220.5 
M 123.44 118.66 132.53 136.85 
M 172.18 216.14 174.37 220.51 
M 126.38 118.35 132.31 130.21 
M 175.25 216.1 177.46 220.51 
M 129.32 118.04 132.09 123.58 
M 164.51 188.42 165.15 189.7 
M 178.27 215.95 180.55 220.51 
M 165.15 183.51 168.21 189.63 
M 181.38 215.97 183.65 220.5 
M 164.99 177.01 171.38 189.78 
M 184.31 215.65 186.64 220.31 
M 164.84 170.52 174.58 189.99 
M 187.07 214.98 189.63 220.1 
M 164.7 164.04 177.63 189.9 
M 190.01 214.66 192.62 219.88 
M 163.94 156.35 180.65 189.75 
M 193.04 214.54 195.39 219.23 
M 164.17 150.6 183.72 189.71 
M 165.13 146.34 186.97 190.01 
M 165.26 140.41 190.38 190.65 
M 164.55 132.8 193.66 191.03 
M 164.55 126.62 196.19 189.88 
M 165.26 121.85 196.89 185.11 
M 165.11 115.35 195.95 177.03 
M 164.89 108.73 195.73 170.41 
M 160.68 94.11 196.26 165.28 
M 159.77 86.11 196.54 159.66 
M 161.89 84.16 196.29 152.96 
M 225.55 211.48 227.53 215.45 
M 163.88 81.95 195.91 146.01 
M 226.3 206.79 230.36 214.91 
M 165.75 79.51 196.2 140.4 
M 228.94 205.88 233.17 214.35 
M 167.46 76.73 195.53 132.88 
M 225.58 192.98 226.17 194.15 
M 231.61 205.03 235.99 213.79 
M 168.9 73.43 194.6 124.83 
M 225.45 186.52 229.45 194.53 
M 234.27 204.17 238.81 213.24 
M 170.14 69.72 195.05 119.54 
M 224.31 178.06 232.89 195.22 
M 236.94 203.32 241.59 212.62 
M 172.17 67.58 195.49 114.24 
M 223.96 171.17 236.54 196.32 
M 239.61 202.47 244.37 212 
M 174.48 66.01 196.22 109.5 
M 224.69 166.44 239.77 196.6 
M 242.28 201.62 247.16 211.38 
M 176.71 64.29 196.08 103.04 
M 224.55 159.97 243.18 197.23 
M 244.95 200.77 249.94 210.76 
M 178.77 62.22 196.56 97.81 
M 224.24 153.17 246.56 197.8 
M 247.62 199.92 252.76 210.2 
M 180.62 59.74 196.04 90.58 
M 223.72 145.93 249.96 198.41 
M 250.29 199.07 255.57 209.64 
M 182.23 56.76 196.06 84.43 
M 223.74 139.79 256.96 206.21 
M 183.88 53.88 196.14 78.39 
M 223.82 133.75 253.87 193.84 
M 186.85 53.62 191.2 62.32 
M 223.62 127.17 252.09 184.1 
M 223.31 120.35 250.99 175.71 
M 223.7 114.94 250.58 168.71 
M 223.97 109.29 250.06 161.48 
M 223.32 101.82 250.21 155.59 
M 223.36 95.69 250.24 149.47 
M 224.09 90.98 250.19 143.17 
M 223.99 84.58 249.29 135.19 
M 283.3 203.2 284.58 205.77 
M 224.08 78.58 248.6 127.61 
M 282.6 195.62 287.59 205.59 
M 223.27 70.77 248.58 121.38 
M 281 186.22 290.6 205.42 
M 221.56 61.16 248.45 114.94 
M 280.87 179.78 293.6 205.25 
M 220.52 52.88 248.2 108.24 
M 279.83 171.5 296.65 205.14 
M 219.74 45.14 248.61 102.87 
M 277.86 161.39 299.69 205.04 
M 222.41 44.3 249.7 98.86 
M 278.16 155.8 302.74 204.94 
M 225 43.29 249.91 93.1 
M 277.59 148.46 305.75 204.78 
M 227.54 42.18 250.08 87.26 
M 277.76 142.61 308.72 204.53 
M 231.61 44.13 250.2 81.3 
M 277.08 135.07 311.69 204.29 
M 235.8 46.31 250.43 75.57 
M 275.73 126.18 312.9 200.51 
M 239.34 47.21 250.02 68.56 
M 275.32 119.17 313.28 195.09 
M 242.56 47.46 250.07 62.48 
M 275.38 113.09 314.13 190.59 
M 245.75 47.65 250.1 56.35 
M 275.4 106.96 314.15 184.45 
M 249.54 49.05 249.94 49.84 
M 276.83 103.61 313.99 177.95 
M 277.96 99.7 311.97 167.7 
M 277.96 93.5 310.38 158.34 
M 277.7 86.8 310.92 153.23 
M 278.08 81.37 310.51 146.21 
M 278.5 76.01 310.13 139.27 
M 278.18 69.19 307.44 127.71 
M 341.45 195.72 342.84 198.5 
M 278.58 63.79 306.26 119.15 
M 341.84 190.32 345.57 197.77 
M 281.1 62.65 306.8 114.05 
M 342.39 185.22 348.3 197.04 
M 284.02 62.29 307.34 108.95 
M 342.93 180.12 350.98 196.21 
M 287.05 62.17 308 104.08 
M 343.59 175.25 353.65 195.38 
M 292.41 66.69 307.83 97.53 
M 344.2 170.29 356.33 194.54 
M 295.6 66.89 308.65 92.99 
M 343.93 163.55 359.01 193.71 
M 304.45 78.39 308.79 87.09 
M 344.24 157.98 361.64 192.78 
M 343.76 150.84 364.26 191.83 
M 343.28 143.69 366.88 190.89 
M 343.59 138.11 369.51 189.95 
M 345.08 134.91 369.99 184.73 
M 348.56 135.67 371.09 180.75 
M 352.1 136.58 371.48 175.33 
M 355.65 137.48 371.86 169.91 
M 359.2 138.39 372.25 164.49 
M 362.86 139.52 373.53 160.87 
M 366.52 140.66 374.03 155.68 
M 370.18 141.79 373.74 148.91 
M 237.08 291.39 235.19 297.7 
M 241.28 291.39 239.39 297.7 
M 236.18 294.39 240.38 294.39 
M 242.21 295.3 245.81 295.3 245.99 294.7 245.87 294.1 245.15 293.5 244.25 293.5 243.56 293.8 242.78 294.39 242.21 295.3 242.03 295.89 242.06 296.8 242.48 297.39 242.99 297.7 243.89 297.7 244.58 297.39 245.36 296.8 
M 249.08 291.39 247.19 297.7 
M 250.85 293.5 249.95 296.5 249.98 297.39 250.49 297.7 251.39 297.7 252.08 297.39 253.25 296.5 
M 254.15 293.5 252.89 297.7 
M 259.27 294.39 259.15 293.8 258.35 293.5 257.45 293.5 256.46 293.8 255.98 294.39 256.1 295 256.61 295.3 258.02 295.6 258.52 295.89 258.56 296.8 258.08 297.39 257.09 297.7 256.19 297.7 255.38 297.39 255.26 296.8 
M 265.58 291.39 264.05 296.5 264.08 297.39 264.59 297.7 265.19 297.7 
M 264.05 293.5 266.14 293.5 
M 268.25 293.5 266.99 297.7 
M 267.7 295.3 268.27 294.39 269.06 293.8 269.75 293.5 270.64 293.5 
M 272.48 291.39 272.69 291.7 273.08 291.39 272.87 291.1 272.48 291.39 
M 272.14 293.5 270.89 297.7 
M 275.48 291.39 273.95 296.5 273.98 297.39 274.49 297.7 275.08 297.7 
M 273.95 293.5 276.05 293.5 
M 281.45 293.5 280.19 297.7 
M 281.18 294.39 280.76 293.8 280.25 293.5 279.35 293.5 278.66 293.8 277.88 294.39 277.31 295.3 277.13 295.89 277.16 296.8 277.58 297.39 278.08 297.7 278.99 297.7 279.68 297.39 280.45 296.8 
M 283.07 297.1 282.68 297.39 282.89 297.7 283.27 297.39 283.07 297.1 
"/></svg>
