<svg xmlns="http://www.w3.org/2000/svg" width="520" height="320"><rect x="0" y="0" width="520" height="320" fill="floralwhite"/><rect x="10" y="10" width="500" height="300" stroke="black" stroke-width="1" fill="none"/><path stroke="black" stroke-width="1" fill="none" stroke-linecap="round" stroke-linejoin="round" d="
M 152.69 124.42 154.56 123.82 164.53 121.4 174.61 119.46 184.81 118.32 205.27 116.65 225.78 115.93 236.03 115.31 246.29 115.13 256.55 115.14 277.06 115.87 287.32 115.56 297.58 115.48 307.76 116.79 317.79 118.97 327.68 121.72 347.16 128.17 356.84 131.6 379.21 140.13 
M 379.21 192.5 364.44 197.15 334.95 205.97 325.08 208.8 305.25 214.08 275.2 220.81 265.15 222.86 255.03 224.59 244.83 225.71 234.57 225.99 224.31 226 214.09 225.09 203.99 223.27 194.07 220.62 184.25 217.63 164.45 212.21 154.63 209.24 143.3 205.5 
M 277.74 158.6 282.07 159.14 
M 286.27 159.51 288.28 159.6 296.31 158.23 
M 299.79 158 308.8 157.98 312.68 158.27 321.02 159.43 326.46 159.55 
M 329.97 159.5 335.14 159.29 341.13 158.04 344.38 157.67 346.22 157.7 
M 353.89 158.15 366.56 158.42 373.94 158.82 379.21 158.71 
M 151.09 203.18 152.4 206.14 
M 155.99 196.38 158.09 202.29 
M 165.22 129.48 163.04 132.53 
M 161.04 135.77 159.11 139.09 
M 158.77 184.27 161.76 191.45 
M 166.34 204.43 167.95 208.06 
M 176.3 129.04 168.92 140.08 166.7 143.16 162.03 149.12 158.9 153.85 
M 176.3 208.56 177.87 212.23 
M 183.52 130.22 180.08 137.38 
M 178.27 140.9 177.33 142.63 175.18 145.84 173.66 147.72 
M 179.57 194.77 180.8 198.43 
M 182.02 202.02 184.47 209.06 
M 197.97 117.9 196.26 121.32 
M 189.03 135.14 185.51 142.37 
M 189.65 198.66 191.1 202.99 
M 192.03 206.32 193.05 210.79 194.16 214.1 197.58 221.56 
M 203.12 122.65 201.59 126.36 
M 200.13 130.19 197.12 137.92 
M 201.67 205.23 205.35 215.8 
M 206.75 219.33 208.52 224.09 
M 213.01 121.78 211.96 123.32 211.1 125.09 
M 209.51 128.79 208.07 132.7 
M 206.7 136.73 205.71 139.73 
M 211.22 201.83 213.36 209.08 215.5 214.6 
M 216.94 218.18 217.6 219.9 218.98 225.53 
M 223.63 121.63 221.83 124.95 
M 220.04 128.36 219.18 130.12 218.51 132.13 
M 221.68 203.73 223.21 210.04 
M 224.05 213.02 224.98 215.99 
M 226.15 219.12 227.52 222.39 
M 237.31 115.85 235.38 118.74 
M 233.63 121.89 232.14 125.39 
M 230.65 128.97 228.88 132.37 
M 234.03 214.05 237.41 221.11 
M 239.29 225.16 239.59 225.85 
M 245.91 120.33 244.72 121.52 242.69 124.33 241.18 127.73 239.46 133.53 
M 244.28 209.9 244.57 210.54 
M 249.02 220.42 250.92 225.04 
M 250.12 130.52 249.37 132.21 247.11 140.3 
M 252.98 200.53 254.23 203.71 
M 255.63 206.99 259.39 215.26 262.65 223.28 
M 269.13 122.4 268.29 123.9 266.1 126.4 263.51 128.52 261.06 130.8 258.89 133.41 257.07 136.42 256.37 138.16 
M 255.03 141.75 254.58 143.07 
M 262.17 195.28 270 212.03 
M 271.25 215.02 272.34 218.2 
M 274.81 128.45 273.97 129.96 272.04 132.73 268.96 136.72 
M 266.85 139.36 263.86 143.58 263.39 144.77 
M 269.14 184.11 269.93 186.88 
M 272.72 193.19 277.24 201.98 282.99 215.43 
M 285.07 129.69 282.32 134 275.35 145.82 271.4 151.42 269.95 155.14 
M 279.54 182.72 281.11 186.75 286.93 198.27 
M 288.38 201.38 289.55 204.23 
M 290.72 207.13 293.32 213.29 
M 306.24 123.26 305.15 124.69 303.82 125.85 
M 296.63 133.29 292.39 138.56 
M 290.39 141.27 287.37 145.29 285.55 148.16 282.54 154.57 279.89 158.87 
M 287.56 174.13 288.44 176.58 
M 289.32 179.03 290.45 181.69 
M 291.77 184.55 295.76 193.21 
M 297.02 196.08 298.21 198.92 
M 299.35 201.76 300.54 204.7 
M 301.92 207.97 302.68 209.73 
M 312.35 131.65 310.21 134.5 
M 307.97 137.18 302.11 143.42 297.83 148.63 296.65 149.8 
M 294.44 152.3 293.41 153.62 291.94 156.87 291.11 159.21 
M 298.04 173.04 299.3 175.77 
M 300.58 178.5 305.24 187.61 
M 306.57 190.48 307.13 191.81 307.99 195.1 
M 308.68 197.46 310.29 201.67 313.08 207.5 
M 316.47 138.44 313.54 142.94 309.47 148.61 307.2 151.15 302.26 155.72 300.41 157.94 
M 308.66 172.58 310.17 175.49 
M 311.64 178.37 314.56 184.17 
M 315.73 186.81 316.63 189.21 
M 317.39 191.51 318.75 195.25 320.16 198.3 323.43 204.25 
M 331.11 135.7 328.58 138.33 
M 325.9 140.76 322 144.42 319.75 147.16 315.94 153.16 313.52 155.6 310.69 158.03 
M 313.65 163 315.47 166.14 
M 317.08 169.05 322.73 179.33 327.01 188.49 
M 328.58 191.53 334.14 202.06 
M 344.38 130.97 342.1 133.99 
M 339.81 136.98 332.19 147.46 330.99 148.8 
M 326.27 154.12 322.29 159.48 
M 323.12 160.91 324.72 163.72 
M 326.39 166.6 330.13 172.76 
M 333.06 178.15 335.43 183.08 
M 337.97 188.3 341.85 195.74 344.98 201.12 
M 349.23 138.98 338.23 151.43 334.96 155.77 
M 339.89 171.92 341.46 174.6 
M 342.97 177.27 348.09 186.63 353.53 195.37 
M 355.5 198.39 356.16 199.42 
M 356.59 144.4 355.34 145.79 351.03 149.35 
M 348 151.53 346.47 152.59 343.67 154.94 341.15 158.04 
M 349.47 170.74 358.98 185.65 
M 361.05 188.89 365.93 196.32 
M 370.84 141.04 361.38 150.01 357.17 153.64 
M 353.52 156.37 351.33 157.96 
M 360.74 171.15 371.61 186.8 
M 373.82 190.05 376.1 193.5 
M 290.67 178.4 290.15 176.93 290.16 176.35 290.67 175.29 291.25 174.78 
M 338.74 133.94 337.52 133.42 337.21 133.13 336.9 132.4 336.78 130.93 337.83 129.93 
M 349.9 153.96 349.7 152.97 349.65 151.2 348.23 149 345.51 147.01 343.98 146.16 343.51 145.46 
M 280.85 151.26 280.48 148.47 280.62 145.79 280.35 144.64 279.82 143.9 279.65 143.31 
M 180.24 144.98 181.18 144.22 182.24 143.66 184.41 143.25 
M 160.75 128.96 160.48 128.57 159.34 128.52 158.57 128.22 
M 315.77 152.24 313.57 150.72 313.09 150.11 312.83 149.28 312.64 146.7 312.33 145.85 311.87 145.05 309.5 142.5 
M 272.14 199.43 272.68 198.65 272.69 198.23 272.39 197.3 271.58 196.46 
M 271.25 152.47 270.99 151.65 271.05 151.1 271.42 150.37 272.82 148.93 274.92 147.53 276.42 145.93 277.13 144.57 277.45 142.92 
M 376.32 173.22 376.05 172.12 376.13 171.71 376.59 171.32 377.06 171.34 
M 329.74 153.98 331.52 152.75 332.46 151.73 332.71 150.71 332.54 150.05 332.19 149.99 
M 300.38 129.7 301.44 128.89 303.13 128.44 303.64 128.47 
M 215.54 206.76 216.26 205.94 217.04 204.4 217.99 203 
M 276.04 220.61 272.84 218.26 272.2 217.98 271.31 218.07 
M 300.22 132.65 299.49 133.18 297.97 133.66 
M 189.11 141.3 189.54 140.38 
M 297.18 167.08 296.68 167.41 295.63 169.37 294.97 171.31 294.71 172.94 294.35 173.35 293.82 173.41 
M 271.06 146.57 273.42 144.91 275.11 142.49 275.94 140.86 277 140.06 
M 157.48 190.91 157.29 189.53 156.48 187.54 156.31 186.74 156.47 185.95 157.12 185.42 
M 178.28 139.36 178.77 139.45 179.62 139.95 181.11 141.41 182.43 142.28 184.59 142.82 
M 331.25 194.78 330.52 195.03 329.58 195.6 328.88 196.48 328.7 196.97 328.77 197.39 329.48 198.22 330.52 198.71 
M 266.76 139.8 264.57 138.08 264.02 137.11 
M 331.26 159.64 331.97 158.52 335.3 155.75 336.42 154.34 336.58 153.75 336.38 151.68 336.58 151.16 
M 354.46 190.93 355.89 188.72 356.32 188.36 357.97 187.72 358.3 187.7 358.65 187.94 
M 267.93 145.14 268.97 144.14 271.46 142.55 272.06 141.72 272.28 141.13 
M 375 188.55 379.21 188.67 
M 311.2 172.43 310.53 173.5 309.06 176.8 
M 283.44 178.4 282.94 177.61 280.91 176.3 279.82 176 278.99 176.38 
M 264.96 219.35 265.16 220.2 266.33 222.61 
M 317.5 198.62 320.58 197.66 321.78 197.7 322.53 198.16 323.32 199.73 
M 227.86 115.83 229.26 113.91 230.16 111.59 231 106.17 231.12 103.5 233.03 97.33 234.47 94.55 236.02 89.24 237.94 83.93 238.62 80.73 240.02 78.76 241.04 76.32 241.94 75.15 242.39 73.52 244.3 70.8 245.03 68.2 248.33 62.06 249.94 60.12 253.07 59.48 254.9 56.47 256.7 54.98 260.08 50.91 264.99 46.62 266.53 44.58 268.97 44.4 272.68 41.12 274.26 39.32 276.78 37.47 283.96 35.62 286.39 34.51 277.58 43.69 277.99 50.05 276.32 54.45 275.31 56.66 274.68 59.26 274.68 62.48 272.73 66.95 272.44 69.86 273.21 76.97 271.51 84.51 271.83 87.79 271.71 90.37 270.17 91.53 270.12 94.17 270.68 97.42 271.65 100.99 274.57 106 274.94 108.28 274.49 110.31 274.78 114.29 275.77 115.9 
M 274.88 115.92 274.88 115.92 
M 232.38 115.54 233.56 113.81 234.32 111.32 235.13 103.13 237.59 93.95 237.81 90.73 238.67 88.35 240.72 86.43 241.74 83.64 244.2 79.29 244.36 77.34 245.59 75.74 247.42 73.89 248.34 70.93 251.43 64.78 
M 236.9 115.25 238.09 113.5 238.6 110.96 238.78 108.51 238.72 105.75 239.04 102.93 241.14 96.6 241.43 93.48 242.4 90.89 243.18 89.72 247.19 85.64 249.09 83.36 249.05 80.81 249.82 78.62 251.43 77.01 253.18 74.92 254.93 71.95 257.3 69.09 259.22 67.64 261.54 65.47 264.67 63.01 
M 241.42 115.18 242.46 112.91 242.56 110.41 243.12 104.84 244.9 99.65 247.61 93.78 249.34 91.18 254.54 84.51 255.88 82.37 257.66 80.21 
M 245.95 115.13 246.6 112.98 247.49 107.76 248.25 105.27 248.49 102.84 249.3 100.17 250.45 98.07 252.05 96.96 252.75 94.14 254.42 90.78 256.33 88.74 258.16 87.7 260.04 85.83 263.39 84.03 265.15 82.89 266.96 80.72 
M 250.48 115.12 251.26 112.76 252.36 107.56 252.2 103.51 256.61 95.83 258.47 93.1 260.84 91.12 
M 255.01 115.13 256.15 112.8 256.59 109.99 256.47 107.59 256.84 105.19 259.05 100.63 261.37 98.37 
M 259.53 115.2 261.12 113.37 262.41 105.9 
M 264.06 115.3 266.38 113.89 267.5 111.83 
M 268.58 115.53 271.27 115.53 
M 156.55 153.12 196.41 137.09 196.77 137.93 155.81 156.78 
M 155.59 157.55 248 131.71 248.25 132.58 154.54 161.19 
M 154.38 161.77 276.49 142.96 276.64 143.86 153.69 165.16 
M 153.62 165.65 292.08 161.29 292.12 162.2 153.35 168.91 
M 153.35 169.36 287.41 181.61 287.34 182.51 153.41 172.62 
M 153.45 173.06 269.71 198.4 269.53 199.29 153.76 176.44 
M 153.74 176.83 256.09 212.79 255.8 213.65 153.52 180.18 
M 154.31 180.44 195.94 201.79 195.54 202.61 153.37 183.53 
M 192.42 139.93 202.78 139.85 213.07 139.24 218.19 138.62 223.27 137.79 228.33 136.77 238.42 134.39 
M 238.74 135.48 243.96 138.66 249.38 141.33 252.2 142.37 255.09 143.21 258.05 143.88 264.08 144.87 
M 264.27 146 266.47 150.27 269.09 154.17 270.63 155.92 272.33 157.52 274.18 159.01 278.13 161.73 
M 278.18 162.87 276.11 166.49 275.24 168.34 274.56 170.23 274.09 172.18 273.76 176.22 273.95 180.38 
M 273.85 181.52 269.56 183.84 265.63 186.57 263.87 188.16 262.25 189.91 260.77 191.81 258.04 195.86 
M 257.8 196.97 254.31 198.87 251.2 201.15 249.86 202.5 248.68 204.01 247.64 205.65 245.8 209.18 
M 245.44 210.26 233.72 206.75 221.89 203.77 215.92 202.59 209.9 201.62 203.85 200.83 191.68 199.61 
M 197.6 139.93 207.94 139.64 213.07 139.24 218.19 138.62 223.27 137.79 233.38 135.62 
M 241.34 137.11 246.64 140.08 249.38 141.33 252.2 142.37 255.09 143.21 261.05 144.41 
M 220.64 142.89 224.71 145.17 228.97 146.92 231.18 147.57 235.75 148.49 
M 199.95 148.67 204.24 150.92 207.28 151.92 210.46 152.56 
M 265.34 148.16 267.71 152.28 269.09 154.17 270.63 155.92 272.33 157.52 276.13 160.39 
M 245.62 151.19 247.57 154.59 248.71 156.15 251.39 158.92 254.52 161.29 
M 225.9 154.23 227.44 156.91 228.33 158.14 230.44 160.32 232.91 162.18 
M 206.17 157.26 207.95 160.12 209.49 161.71 211.3 163.07 
M 277.11 164.67 275.24 168.34 274.56 170.23 274.09 172.18 273.83 174.18 273.81 178.29 
M 255.32 165.45 253.79 168.48 253.23 170.04 252.62 173.29 252.61 176.69 
M 233.54 166.23 232.33 168.61 231.89 169.84 231.41 172.41 231.4 175.08 
M 211.76 167.01 210.55 169.65 210.21 171.52 210.2 173.48 
M 271.68 182.65 267.53 185.13 265.63 186.57 263.87 188.16 262.25 189.91 259.38 193.8 
M 243.9 180.34 240.72 182.24 239.26 183.34 236.68 185.91 234.47 188.89 
M 216.13 178.03 212.9 180.12 211.1 181.9 209.57 183.98 
M 256.03 197.89 252.68 199.94 251.2 201.15 249.86 202.5 248.68 204.01 246.69 207.39 
M 231.9 192.87 229.34 194.44 227.18 196.4 226.27 197.56 224.75 200.15 
M 207.78 187.85 205.2 189.58 203.86 191.11 202.8 192.91 
M 239.58 208.46 227.82 205.17 221.89 203.77 215.92 202.59 209.9 201.62 197.77 200.18 
M 218.46 225.73 223.31 231.15 225.58 234.05 227.9 236.16 233.62 252.42 235.35 255.4 236.07 257.37 238.27 262.22 237.2 264.49 236.33 266.96 235.01 268.98 233.04 270.77 230.86 272.25 228.16 273.1 222.65 273.65 219.77 274.21 217.48 275.48 211.83 272.88 209 270.72 203.48 264.99 200.95 263.92 198.81 262.48 189.38 251.97 176.03 227.07 174.82 224.11 174.06 219.57 171.44 214.23 
M 213.98 225.07 219.46 231.66 223.4 237.38 224.2 239.32 
M 209.5 224.41 211.91 228.11 215.53 233.13 219.58 239.43 220.36 241.85 221.57 244.08 
M 205.07 223.5 208.96 229.9 210.32 232.77 212.38 234.73 214.67 237.44 216.5 240.49 217.6 242.97 219.03 245.07 220.88 247.43 224.29 249.33 225.79 251.95 225.72 255.48 226.75 258.7 229.07 260.48 
M 200.64 222.56 204.08 229.24 207.31 234.29 208.86 236.47 211.81 239.64 213.75 242.7 214.43 244.67 214.76 246.51 215.6 248.62 217.06 251.01 218.8 254.57 219.94 257.98 
M 196.29 221.31 197.97 224.79 202.82 236.46 206.86 241.33 208.31 243.72 209.08 245.51 210.48 250.93 211.53 253.47 212.72 258.59 
M 191.96 219.97 194.89 226.4 197.34 232.31 198.98 235.26 200.05 237.95 201.95 240.16 202.8 242.26 206.68 249.98 207.58 252.45 208.24 255.55 
M 187.63 218.65 189.29 222.05 191.95 228.2 193.51 231.05 194.69 234.18 196.53 237.41 197.27 239.94 201.59 246.77 202.12 249.19 203.51 252.12 
M 183.3 217.34 185.34 221.24 186.63 224.11 187.91 227.27 188.61 230.12 191.33 235.7 192.62 238.7 193.45 241.73 195.68 245.43 198.07 247.29 199.32 249.3 199.83 252.44 
M 178.94 216.12 183.46 226.21 184.63 229.38 185.07 232.03 187.08 237.34 189.97 246.05 192.4 247.43 194.51 249.16 196.21 251.04 197.57 254.01 199.49 262.75 
M 174.55 215.01 178.54 225.63 180.46 228.76 181.29 234.5 183.11 236.31 183.65 239.49 185.5 244.83 
M 368.9 195.81 373.08 199.85 376.88 202.23 381.45 205.6 376.6 208.47 374.93 210.03 371.37 209.7 367.75 209.83 364.93 210.85 363.73 213.49 362.02 215.61 359.75 217.1 357.17 218.07 354.7 219.26 352.89 221.29 350.28 222.45 346.66 222.44 344.63 224.07 343.02 226.29 342.08 228.68 337.97 232.11 335.84 233.62 333.41 234.83 332.24 237.36 330.89 239.69 329.9 242.38 328.29 244.61 326.31 246.39 323.38 247.13 320.87 248.46 319.13 250.49 318.57 253.37 318.27 258.62 315.15 260.54 312.6 257.52 311.33 256.89 308.93 254.51 307.12 251.69 303.93 248.72 302.84 247.13 301.59 242.8 299.1 239.37 296.3 236.71 295.59 234.3 294.53 232.3 290.32 227.12 286.9 222.02 284.28 218.7 
M 364.57 197.11 368.32 200.44 
M 360.23 198.41 363.81 202.21 366.52 204.17 368.5 206.87 
M 355.88 199.67 360.39 204.81 362.86 207.03 
M 351.53 200.92 356.34 206.05 359.25 209.52 
M 347.19 202.22 352.34 205.8 355.51 209.46 
M 342.86 203.53 347.25 206.95 349.37 210.45 
M 338.53 204.86 342.28 208.52 346.9 215 
M 334.21 206.2 339.08 211.63 341.07 214.29 343.27 217.86 
M 329.87 207.5 332.53 211.3 334.94 213.66 336.6 215.63 341.79 222.39 
M 325.5 208.69 329.04 212.77 331.3 215.98 333.57 218.2 335.35 220.85 336.95 223.63 339.5 226 
M 321.13 209.87 323.73 213.75 328.72 219.67 329.92 222.67 332.01 224.68 333.76 226.84 336.67 230.01 
M 316.76 211.04 319.24 215.02 321.77 218.09 323.67 220.76 324.91 223.34 326.81 226.19 328.96 227.87 330.47 230.08 
M 312.38 212.2 314.84 215.95 317.05 218.63 320.38 224.25 322.37 226.3 324.84 227.73 327.12 230.54 328.32 233.59 
M 308 213.35 312.56 219.35 314.21 221.98 316.43 224.83 318.33 227.09 320.01 228.4 322.71 230.04 324.71 233.57 
M 303.63 214.51 306.08 217.75 311.23 225.4 313.65 227.19 317.42 232.52 
M 299.21 215.52 302.13 218.7 304.16 221.76 305.64 224.56 307.54 227.02 308.67 229.27 310.16 230.58 312.09 233.17 
M 294.79 216.5 297.5 219.84 299.31 222.64 301.58 225.25 303.35 228.01 304.93 230.96 305.88 233.76 307.6 235.2 309.57 237.72 312.54 240.06 313.68 242.19 
M 290.36 217.43 292.83 221.15 298.42 228.97 301.63 234.91 304.2 236.9 305.84 239.21 310.2 243.94 311.49 246.36 313.62 249.11 315.32 252.12 317.39 254.13 
M 378.31 139.73 381.03 139.03 383.6 137.78 388.3 134.56 390.35 133.9 395.39 131.06 399.78 128.03 404.74 125.15 407.33 123.2 412.71 120.1 414.35 118.83 415.39 117.2 418.01 116.74 420.26 115.98 427.08 110.4 429.19 109.05 431.91 107.66 437.83 104.11 440.07 102.95 442.27 101.37 445.42 97.08 447.97 94.68 450.1 94.03 452.82 94.35 455.49 94.14 466.39 87.13 468.47 84.74 470.57 82.92 471.9 82.08 474.04 79.66 479.08 76.05 482.04 75.73 487.17 74 489.15 71.72 489.81 70.34 462.17 96.88 461.24 99.47 458.64 103.91 457.92 106.7 457.02 109.32 453.82 113.64 451.93 115.51 451.25 118.58 451.23 122.18 449.95 124.51 449.03 127.22 447.08 128.89 447.29 132.05 448.16 138.65 448.12 141.73 446.9 143.64 445.53 145.4 444.23 147.56 443.11 150.06 441.66 152.22 440.45 154.53 438.98 156.6 437.5 162.28 439.24 168.33 441.59 174.57 442.42 177.17 442.25 178.88 443.89 184.6 443.5 186.85 443.35 191.62 444.41 193.51 444.51 195.59 447.03 202.41 447.28 204.4 448.02 206.71 449.26 209.53 450.3 212.45 451.13 215.15 452.28 220.04 454.72 224.7 458.89 231.93 462.4 239.17 463.13 241.28 490 268.98 489.01 267.73 486.77 266.24 483.03 264.74 480.59 264.34 478.61 262.1 476.51 260.5 474.81 259.49 472.14 258.49 468.92 257.77 467.15 256.16 465.46 254.16 463.88 251.72 460.71 249.24 458.71 247.15 453.49 245.72 446.59 241.33 442.35 237.53 436.03 233.5 434.86 231.44 432.4 230.53 430.8 229.25 428.56 228.37 423.13 224 421.2 223.08 419.24 221.32 417.3 219.08 414.96 217.89 413.06 216.42 410.39 215.08 408.19 213.2 405.41 211.72 402.81 210.65 399.95 208.61 395.21 204.44 393.09 202.84 390.73 201.49 388.72 200.02 386.34 198.58 378.31 192.81 
M 381.19 141.94 383.86 141 389.25 138.07 394.15 136.35 396.44 134.93 402.28 130.82 404.37 129.75 406.11 129.32 408.81 127.84 414.01 124.9 416.3 123.24 418.61 121.85 420.32 121.55 422.17 120.42 424.2 118.61 426.59 117.65 429.54 117.09 432.26 116.09 434.5 114.41 
M 381.47 144.65 386.55 142.86 392.83 140.37 397.68 138.77 399.87 137.6 402.65 135.69 410.21 131.64 415.09 129.96 419.5 126.8 425.16 124.36 427.32 123.23 429.15 124.06 431.21 122.97 434 122.42 
M 384.4 146.65 389.53 144.89 395.93 143.28 398.99 142.82 401.77 142.13 406.66 139.8 409.24 137.82 411.92 136.05 416.33 134.14 418.64 132.65 420.62 130.72 425.55 130.31 428.1 130.81 431.08 129.9 432.8 128.48 435.22 128.43 
M 387.03 148.78 392.08 147.26 395.62 146.56 398.78 146.35 401.74 145.93 404.73 145.1 409.58 142.86 411.76 141.02 414.83 140.38 
M 378.31 153 382 153.2 384.9 152.95 392.27 150.3 397.51 149.38 400.73 148.46 403.64 147.96 406.41 147.04 410.11 146.61 413.27 146.88 415.28 145.86 416.55 144.52 419.38 144.86 424.27 143.66 429.25 143.33 432.87 143.49 434.6 141.84 
M 387.92 155.48 390.18 155.21 395.4 154.1 398.27 153.35 403.78 151.34 407.48 151.17 412.97 151.22 418.56 149.84 420.1 150.88 423.41 149.72 426.72 148.11 430.09 147.92 
M 382.02 158.91 387.65 158.88 390.17 159.12 392.84 158.52 396.04 158.19 403.03 156.93 408.36 156.63 410.61 155.95 412.96 155.78 416.51 156.31 421.27 154.69 424.09 154.81 
M 382.12 161.57 390.41 161.97 393.28 162.54 396.36 161.49 399.79 161.13 403.73 161.78 406.38 161.3 407.52 160.45 410.98 161.48 413.98 161.71 416.54 161.48 420.04 160.73 422.8 159.76 426.13 159.19 428.93 158.14 431.91 157.7 
M 388.25 164.37 393.73 165.29 397 164.63 400.2 164.52 402.75 164.87 409.15 165.06 
M 382.11 166.7 388.22 166.91 397.1 168.83 403.23 168.85 405.9 168.37 408.85 168.59 411.92 169.48 414.78 169.87 417.55 169.91 418.49 171.06 420.55 171.29 425.05 172.2 
M 385.04 170.09 388.6 170.46 394.43 171.75 400.64 172.03 405.65 173.09 408.39 173.07 412.11 173.41 414.53 173.32 417.81 174.77 420.11 174.84 422.96 176.03 425.66 175.86 428.58 176.27 430.99 176.16 
M 388.51 173.95 394.17 175.33 402.5 176.78 405.54 177.78 408.67 178.41 410.43 178.31 413.45 179.44 416.48 180.95 419.7 180.78 422.97 180.93 425.38 181.48 427.13 182.31 429.57 182.28 431.73 182.74 435.32 184.34 440.12 184.15 
M 384.98 176.69 394.08 179.02 397.22 179.54 401.77 181.1 404.79 181.36 407.11 182.59 410.21 183.02 413.04 183.1 415.59 182.84 418.7 184.27 421.81 185.23 424.51 185.86 
M 381.94 178.51 390.99 181.29 394.35 182.11 396.5 183.37 398.82 184.4 401.89 184.7 404.45 185.52 406.75 185.46 409.01 186.71 412.19 187.11 414.62 188.2 417.57 189.15 420.09 190.36 423.1 191.04 427.07 191.42 431.37 193.52 435.29 193.22 
M 382.12 181.32 387.83 183.6 393.95 186.39 396.26 187.09 398.31 187.26 401.46 188.72 406.56 190.26 418.04 193.37 421.9 195.27 424.79 195.91 426.33 196.5 427.1 197.26 429.39 198.77 432.64 199.08 436.55 198.76 440.04 199.48 
M 387.41 186.94 390.63 188.63 398.48 191.69 400.64 193.2 403.13 194.55 406.2 194.87 408.5 196.33 411.49 197.82 414.25 198.63 416.85 198.72 420.03 199.73 422.41 200.28 425.11 200.52 427.14 201.09 429.07 203.06 435.53 204.75 437.67 205.9 441.04 207 442.6 208.27 446.08 209.01 
M 387.43 190.04 392.62 192.57 395.25 194.06 397.41 195.75 400.15 197.28 410.38 201.04 412.82 201.37 415.66 202.42 417.85 202.9 419.63 203.99 
M 387.15 193.09 392.41 195.71 394.98 197.21 399.18 200.26 401.42 202.36 403.71 203.58 409.6 204.54 412.31 205.3 414.85 206.5 416.56 208.36 420.35 209.47 
M 386.9 195.88 391.64 199.13 394.07 200.56 396.09 201.38 400.74 205.61 403.09 207.22 405.51 208.5 408.57 209.38 411.18 210.47 414.04 212.39 419.39 214.71 424.56 218.12 426.98 219.44 427.98 221.58 429.08 222.95 434.84 226.11 437.19 226.86 439.02 228.1 440.89 229.02 
M 282.22 113.67 286.18 113.81 287.89 113.11 290.59 110.68 292.05 109.65 295.67 113.33 297.43 113.84 299.17 113.91 300.95 113.72 303.97 111.78 305.22 110.54 308.63 114.74 310.25 115.48 312.17 116.03 314.07 116.24 317.61 114.98 319.04 114.18 322.27 118.54 324.11 119.24 325.86 119.8 327.68 119.82 331.09 118.69 332.82 119.36 335.13 122.45 336.55 123.33 339.81 124.15 343.22 123.19 345.11 123.38 347.53 126.34 349.06 127.6 352.76 129.12 358.01 128.35 360.61 131.34 362 132.61 363.74 133.3 367.04 134.24 368.9 136.11 
M 62.47 175.16 65.8 170.87 68.85 168.19 78.61 161.92 83.91 157.48 89.56 152.39 95.57 147.51 107.26 138.55 113.45 134.24 120.22 130.76 127.5 127.91 134.12 126.28 140.27 125.15 145.7 124.4 150.04 124.09 152.58 124.23 155.5 128.97 157.13 133.49 157.72 137.88 156.82 150.77 156.33 155.05 153.91 163.43 153.35 167.7 153.35 172.03 153.77 176.41 153.17 189.33 152.46 193.58 150.69 197.7 148.04 201.73 143.28 205.52 132.19 205.58 124.1 205.43 116.86 205.06 110.15 204.12 103.43 202.83 96.57 201.24 90.32 199.03 79.83 194.45 
M 77.86 193.35 75.74 192.16 67.04 185.87 65.26 184.39 64.17 183.03 
M 133.48 155.56 132.21 159.16 130.66 162.66 129.39 166.07 128.55 169.34 128.25 172.43 127.78 175.05 127.69 177.32 128.51 181.39 128.35 183.65 127.84 186.13 125.72 188.91 118.44 189.28 108.11 190.55 102.98 190.77 97.48 190.51 91.66 189.69 86.32 187.98 
M 78.51 193.89 70.63 187.7 64.96 183.66 59.39 179.15 58.42 177.2 59.47 175.16 61.64 174.59 63.43 175.83 68.21 181.06 74.47 187.53 80.16 194.1 
M 77.51 195.18 71.07 196 55.25 197.48 53.09 196.53 52.51 194.25 53.96 192.37 56.23 192.1 67.52 193.17 78.5 193.89 
M 79.31 193.94 79.84 193.97 
M 101.44 166.72 100.47 163.03 100.75 159.22 102.25 155.7 104.81 152.87 108.15 151.01 111.91 150.35 115.68 150.94 119.06 152.72 121.68 155.51 123.25 158.99 123.6 162.8 122.7 166.51 120.64 169.73 117.65 172.1 114.05 173.38 110.23 173.42 106.6 172.21 103.57 169.9 101.44 166.72 
M 101.3 166.39 100.54 163.63 100.48 160.76 101.13 157.96 102.44 155.41 103.33 154.27 105.48 152.37 106.71 151.63 109.41 150.65 110.83 150.41 113.7 150.47 116.47 151.23 
M 102.98 165.7 102.58 164.55 102.23 162.16 102.54 159.55 
M 105.17 154.98 106.5 153.87 107.54 153.25 109.82 152.41 112.23 152.16 113.44 152.26 115.77 152.9 
M 104.65 165.01 104.33 164.07 104.04 162.12 104.32 159.9 
M 106.69 156.02 108.37 154.86 110.23 154.18 112.19 153.97 113.18 154.05 115.08 154.58 
M 107.79 163.86 107.4 162.38 107.61 160.64 
M 109.11 158.35 110.47 157.58 111.98 157.31 113.49 157.55 114.84 158.26 115.89 159.38 116.51 160.77 116.66 162.29 116.29 163.78 115.47 165.06 114.28 166.01 112.84 166.52 111.31 166.54 109.86 166.06 108.64 165.13 107.79 163.86 
M 107.76 160.68 107.49 161.22 
M 110.68 157.54 109.88 159.15 
M 108.96 160.98 107.7 163.51 
M 112.14 157.34 110.77 160.08 
M 110.19 161.25 108.42 164.79 
M 113.4 157.53 111.64 161.06 
M 111.42 161.5 109.34 165.66 
M 114.49 158.08 110.41 166.24 
M 115.44 158.9 111.62 166.54 
M 116.2 160.08 113.02 166.46 
M 116.62 161.96 114.81 165.59 
M 63.02 174.42 66.31 177.71 
M 65.4 171.37 69.67 175.64 
M 68.21 168.75 72.31 172.85 
M 71.46 166.56 74.94 170.05 
M 74.77 164.44 79.48 169.15 
M 78.05 162.29 80.98 165.22 
M 81.06 159.87 84.13 162.93 
M 84.02 157.39 88.08 161.45 
M 86.87 154.81 90.21 158.15 
M 89.74 152.25 93.22 155.73 
M 92.74 149.81 95.69 152.76 
M 95.74 147.38 100.88 152.52 
M 98.78 144.99 102.76 148.97 
M 101.84 142.61 105.07 145.85 
M 104.94 140.28 108.38 143.72 
M 108.07 137.98 113.2 143.11 
M 111.27 135.75 114.01 138.48 
M 114.6 133.64 119.88 138.92 
M 118.19 131.8 122.65 136.26 
M 121.91 130.09 125.98 134.16 
M 125.82 128.57 131.22 133.97 
M 129.98 127.3 134.98 132.29 
M 134.36 126.24 138.37 130.25 
M 138.94 125.39 143.54 129.99 
M 143.67 124.68 147.72 128.74 
M 148.61 124.19 153.44 129.03 
M 92.39 166.28 93.13 165.27 94.43 164.06 95.31 162.12 95.46 161.68 95.42 160.83 94.88 159.99 
M 126.4 204.71 125.61 204.97 123.52 204.93 122.12 204.09 120.12 202.07 
M 143.68 148.34 144.97 148.85 146.35 149.05 
M 84.88 168.51 81.59 167.8 78.86 167.67 78.26 167.83 77.42 168.37 76.68 169.8 
M 140.65 131.6 141.53 132.77 142.35 134.62 144.14 136.72 
M 152.23 174.43 151.28 175.43 149.3 178.54 148.96 179.34 148.85 180.08 148.93 181.62 148.83 181.9 148.48 182.16 
M 136.09 189.8 136.54 187.53 136.39 186.57 136.06 185.88 135.53 185.4 134.86 185.21 134.28 185.41 133.85 185.8 
M 137.13 178.83 136.83 176.48 137.18 170.64 137.48 169.76 138.39 169.04 
M 80.44 171.48 78.34 171.57 77.99 171.76 77.86 172.14 
M 69.51 167.78 71.57 168.99 
M 157.27 143.22 153.03 142.97 151.75 142.61 
M 65.42 171.34 66.34 172.82 67.42 173.97 68.04 174.08 68.85 173.9 
M 138.26 170.83 138.3 170.23 138.75 169.55 140.46 168.26 141.75 167.89 143.92 168.31 
M 71.01 182.11 71.02 180.63 70.84 180.07 70.36 179.32 69.4 178.41 
M 113.71 134.78 113.36 134.8 113.1 134.48 
M 134.4 203.19 134.75 204.42 134.14 205.57 
M 94.41 148.46 93.55 151.5 
M 140.71 146.08 140.89 146.8 141.34 147.22 145.22 148.89 
M 136.49 174.28 136.5 173.18 137.24 169.86 137.93 169.16 139.17 168.59 
M 120.02 181.03 116.54 182.22 115.12 183.11 114.56 184.17 
M 141.81 149.95 142.24 150.4 142.26 151.1 141.9 152.79 141.62 153.15 141.31 153.26 
M 124.36 158.88 124.39 157.49 124.89 155.58 125.56 154.57 127.19 153.4 128.39 152.18 128.79 151.37 129.07 149.88 
M 73.81 175.89 75.34 174.44 76.78 172.26 
M 138.94 154.49 138.37 153.69 136.56 152.26 136.42 151.45 136.61 150.22 
M 116.86 202.84 116.42 202.37 115.81 200.95 115.3 200.34 114.59 199.94 111.82 198.97 
M 84.86 184.21 86.26 186.39 87.33 187.65 87.99 189.1 
M 139.04 136.68 138.39 137.12 134.39 138.61 
M 145.48 185.76 145.68 184.99 146.25 184.15 146.54 183.99 147.35 184.05 
M 96.51 181.53 97.44 182.8 100.12 187.83 102.06 189.69 102.72 190.15 103.72 190.54 
M 131.92 190.12 132.75 189.62 132.9 188.66 
M 86.06 160.35 86.1 159.6 86.38 159.08 87.07 158.84 87.64 158.98 
M 96.91 197.66 97.94 197.33 99.81 197.13 102.3 197.53 103.16 197.52 
M 102.5 194.07 103.42 193.59 106.34 192.62 106.63 192.35 106.68 191.86 
M 105.2 143.05 103.46 142.89 102.27 142.29 
M 111.64 190.95 109.62 190.69 107 190.9 106.21 190.83 
M 86.32 162.06 84.29 160.23 83.59 158.84 
M 80.47 172.82 80.62 172.29 80.23 171.71 79.49 171.61 78.28 171.72 
M 133.47 191.57 134.18 190.72 134.63 189.04 134.57 188.17 134.12 186.55 133.78 186.3 
M 91.95 153.8 90.81 153.89 87.07 155.39 
M 137.69 163.18 137.99 161.45 137.96 159.43 137.2 156.77 137.15 155.42 136.75 154.13 
M 150.99 174.02 150.01 175.38 148.91 176.56 147.42 177.76 142.7 180.39 
M 129.54 156.85 130.46 156.09 131.8 154.55 132.34 153.24 132.79 151.28 133.12 151.04 133.74 150.91 
M 104.46 153.25 104.23 151.49 103.85 150.24 103.2 149.18 101.97 147.9 101.42 146.91 
M 152.37 190.42 153.08 189.86 
M 106.65 199.46 105.25 198.51 104.38 197.68 104.34 197.15 105.34 195.42 
M 120.31 130.72 118.96 132.31 118.3 132.83 117.48 133.32 115.86 133.91 
M 156.52 137.72 157.67 137.54 
M 100.19 192.39 101.02 191.99 103.46 191.78 104.44 191.16 105.18 190.9 
M 102.01 150.41 101.84 149.78 100.44 147.55 99.51 146.83 98.57 146.94 
M 68.67 187.02 68.76 186.35 
M 80.79 195.41 79.88 196.22 79.26 197.11 78.84 198.12 78.63 199.24 78.61 200.42 79.11 202.76 79.63 203.8 80.36 204.69 81.3 205.38 82.38 205.84 83.55 206.03 84.76 205.94 89.91 204.38 92.69 204.05 96.79 204.54 102.04 205.97 96.73 204.86 92.72 204.71 90.14 205.22 85.03 207.21 83.55 207.44 82.02 207.32 80.55 206.83 79.23 206.01 78.13 204.88 77.33 203.56 76.78 202.14 76.45 200.66 76.35 199.12 76.52 197.55 77.02 196.01 77.85 194.59 78.87 193.49 
M 70.34 200.14 69.17 205.36 68.47 210.63 68.29 221.49 67.87 224.32 66.92 227.07 65.35 229.53 63.24 231.57 60.62 232.92 57.72 233.41 54.85 233.03 52.19 232.02 49.78 230.56 47.65 228.74 45.8 226.69 42.6 222.23 34.54 208.05 33.13 205.73 30 201.29 34.7 207.95 43.23 221.82 46.51 226.08 48.36 227.99 50.42 229.64 52.7 230.92 55.15 231.76 57.68 232 60.12 231.51 62.29 230.29 64.03 228.49 65.3 226.32 66.04 223.91 66.33 221.35 66.11 213.27 66.33 207.71 67.13 202.23 67.69 199.54 
M 70.57 199.37 69.93 201.88 69.78 204.34 70.15 206.8 70.91 209.24 74.26 216.64 75.23 219.26 75.93 222 76.27 224.82 76.25 227.64 75.88 230.41 75.34 233.13 74.56 235.83 73.27 238.4 71.32 240.54 68.83 242.01 66.06 242.74 63.23 242.7 60.51 242.09 57.91 241.16 55.42 240 48.29 236.02 43.42 233.66 40.88 232.7 35.65 231.24 40.91 232.61 43.49 233.49 48.47 235.69 55.71 239.41 58.18 240.46 60.73 241.28 63.32 241.77 65.92 241.72 68.38 240.98 70.53 239.61 72.17 237.67 73.24 235.34 73.88 232.8 74.3 230.18 74.56 227.55 74.49 224.94 74.09 222.38 73.37 219.88 72.36 217.44 68.58 209.65 
M 67.75 199.56 67.92 198.75 
M 70.82 200.01 70.29 202.54 70.29 205.01 70.74 207.5 72.47 212.68 
M 74.43 228.96 73.28 231.49 69.21 238.53 68.18 241.04 
M 67.88 242.26 67.56 243.52 67.32 246.14 67.58 248.75 68.29 251.3 69.34 253.76 70.69 256.07 72.27 258.24 75.93 262.2 82.2 267.39 86.06 271.22 82.14 267.46 75.68 262.48 71.84 258.59 70.15 256.43 68.67 254.1 67.5 251.6 66.66 248.94 66.29 246.16 66.61 242.59 
M 66.86 241.44 68.02 238 71.85 230.78 72.85 228.37 73.44 225.88 73.53 223.35 73.11 220.83 72.29 218.35 70.29 213.29 
M 79.83 194.45 80.49 195.07 
M 75.9 191.84 75.81 193.05 76.16 192.69 76.74 192.49 
M 72.56 189.16 71.9 190.38 71.8 191.64 72.3 190.75 73.58 189.94 
M 69.19 186.66 68.04 188.43 67.79 190.24 68.44 188.8 70.25 187.43 
M 65.76 184.27 64.18 186.49 63.78 188.83 64.58 186.86 66.78 185.04 
M 62.49 181.65 60.32 184.54 59.76 187.43 60.72 184.91 63.5 182.49 
M 59.3 178.96 56.46 182.6 55.75 186.03 56.86 182.97 60.31 179.85 
M 79.85 194.45 80.73 194.42 
M 74.42 193.62 74.59 193.19 75.15 192.57 75.13 193.17 75.38 193.69 
M 69.37 193.27 69.62 191.91 70.47 190.69 70.16 191.89 70.54 193.34 
M 64.41 192.91 64.65 190.64 65.79 188.8 65.2 190.62 65.63 193.01 
M 59.47 192.4 59.69 189.37 61.11 186.92 60.23 189.35 60.7 192.57 
M 54.5 192.3 54.72 188.09 56.43 185.04 55.26 188.07 55.77 192.15 
M 60.38 197 69.1 199.51 73.56 200.42 76.48 200.8 
M 78.7 201.05 87.15 201.47 96.57 201.24 
M 82.35 199.97 82.27 199.19 
M 92.12 200.6 93.24 201.38 
M 157.36 135.19 158.05 135.88 
M 153.5 124.09 160.32 130.91 
M 159.3 122.64 165.04 128.38 
M 165.17 121.27 170.86 126.95 
M 171.11 119.97 180.36 129.21 
M 177.46 119.07 188.3 129.91 
M 184.01 118.38 192.7 127.07 
M 190.76 117.89 198.01 125.14 
M 197.35 117.23 204 123.88 
M 204.09 116.73 212.16 124.8 
M 211 116.39 220.83 126.22 
M 218.15 116.3 224.66 122.81 
M 225.06 115.96 230.84 121.75 
M 231.91 115.57 241.51 125.17 
M 238.79 115.21 248.28 124.7 
M 245.96 115.13 255.48 124.65 
M 253.2 115.13 262.27 124.19 
M 260.54 115.22 269.93 124.61 
M 268.05 115.49 278.77 126.21 
M 275.7 115.9 283.74 123.94 
M 282.81 115.76 293.43 126.38 
M 289.71 115.42 300.39 126.1 
M 296.97 115.43 303.61 122.08 
M 305.03 116.26 312.9 124.13 
M 314.12 118.1 322.07 126.05 
M 323.79 120.53 330.48 127.22 
M 334.36 123.85 341.31 130.81 
M 345.29 127.54 351.06 133.31 
M 356.46 131.46 367.05 142.06 
M 368.01 135.77 375.15 142.91 
M 379.83 140.35 384.91 145.43 
M 173.61 212.97 174.64 215.04 
M 163.53 186.49 164.97 189.36 
M 172.26 203.94 175.5 210.42 
M 167.67 188.41 168.47 190.02 
M 175.76 204.6 177.38 207.84 
M 177.64 202.02 180.07 206.88 
M 156.99 148.06 157.94 149.94 
M 181.42 196.92 182.23 198.54 
M 185.47 205.01 189.52 213.11 
M 192.74 219.56 193.13 220.33 
M 159.03 145.8 162.34 152.42 
M 186.57 200.87 194.67 217.07 
M 157.53 136.45 157.7 136.79 
M 160.13 141.65 164.97 151.33 
M 190.09 201.58 195.76 212.92 
M 154.81 124.67 167.59 150.24 
M 192.31 199.66 194.49 204.04 
M 157.22 123.16 170.22 149.15 
M 160.04 122.45 171.78 145.94 
M 172.59 147.56 172.84 148.06 
M 162.86 121.77 171.37 138.78 
M 165.72 121.14 173.42 136.53 
M 168.58 120.52 176.27 135.91 
M 213.53 210.42 214.34 212.04 
M 215.96 215.28 217.58 218.52 
M 171.44 119.9 179.94 136.9 
M 182.37 141.76 183.34 143.7 
M 216.38 209.79 217.19 211.41 
M 221.24 219.51 222.05 221.13 
M 174.4 119.49 182.91 136.5 
M 177.37 119.08 186.68 137.71 
M 188.3 140.95 188.59 141.52 
M 180.33 118.67 191.21 140.43 
M 183.38 118.42 194.13 139.93 
M 186.44 118.21 197.3 139.93 
M 189.5 117.99 190.71 120.42 
M 191.52 122.04 200.45 139.89 
M 192.53 117.71 192.93 118.52 
M 195.36 123.38 203.58 139.82 
M 195.54 117.41 195.95 118.22 
M 198.38 123.08 206.69 139.69 
M 198.56 117.11 207.88 135.73 
M 201.62 116.88 204.45 122.55 
M 205.26 124.17 209.31 132.26 
M 206.72 120.74 212.39 132.08 
M 208.17 117.31 212.22 125.41 
M 215.46 131.89 217.08 135.13 
M 210.88 116.4 215.34 125.3 
M 216.15 126.92 221.01 136.64 
M 214.03 116.35 214.44 117.16 
M 216.06 120.4 223.35 134.98 
M 220.01 121.98 225.68 133.32 
M 227.3 136.56 227.5 136.94 
M 221.51 118.63 227.18 129.97 
M 259.22 194.05 259.57 194.76 
M 224.6 118.48 231.89 133.06 
M 261.07 191.42 263.48 196.23 
M 226.88 116.7 236.02 134.97 
M 263.05 189.04 266.57 196.07 
M 229.56 115.72 229.97 116.53 
M 230.78 118.15 239.76 136.12 
M 265.19 186.97 268.03 192.66 
M 231.03 112.31 232.65 115.55 
M 233.46 117.17 244.29 138.83 
M 267.46 185.18 267.47 185.2 
M 231.13 106.18 244.49 132.9 
M 246.11 136.14 248.51 140.93 
M 232.34 102.26 244.89 127.36 
M 248.13 133.84 251.37 140.32 
M 279.71 197.01 281.33 200.25 
M 234.13 99.51 238.18 107.61 
M 238.99 109.23 244.66 120.57 
M 247.9 127.05 252.76 136.77 
M 278.68 188.6 279.49 190.22 
M 280.3 191.84 285.16 201.56 
M 235.12 95.15 237.96 100.82 
M 239.58 104.06 240.39 105.68 
M 241.2 107.3 246.87 118.64 
M 248.48 121.88 254.96 134.83 
M 278.45 181.81 281.69 188.29 
M 282.5 189.9 286.55 198 
M 295.37 215.65 295.69 216.3 
M 237.51 93.59 238.32 95.21 
M 243.99 106.55 257.76 134.08 
M 262.62 143.8 263.08 144.72 
M 275.09 168.76 276.39 171.34 
M 281.24 181.06 284.48 187.54 
M 237.63 87.48 240.46 93.15 
M 247.75 107.73 260.71 133.64 
M 266.38 144.98 270.43 153.08 
M 284.19 180.62 285.81 183.86 
M 238.71 83.31 248.02 101.94 
M 249.64 105.18 263.41 132.71 
M 267.46 140.81 268.27 142.43 
M 299.86 205.6 301.48 208.84 
M 240.45 80.45 272.44 144.43 
M 278.11 155.77 279.73 159 
M 242.08 77.37 275.69 144.59 
M 280.55 154.31 282.98 159.17 
M 285.41 164.03 292.69 178.6 
M 243.73 74.33 254.66 96.2 
M 255.47 97.82 278.15 143.17 
M 282.2 151.27 284.63 156.13 
M 288.68 164.23 292.73 172.33 
M 245.11 70.76 257.66 95.87 
M 258.47 97.49 279.53 139.6 
M 285.2 150.94 286.82 154.18 
M 291.68 163.9 294.92 170.38 
M 313.55 207.63 314.36 209.25 
M 246.72 67.63 260.08 94.36 
M 261.7 97.6 280.33 134.85 
M 286.81 147.81 288.43 151.05 
M 290.05 154.29 290.86 155.91 
M 294.1 162.39 297.33 168.87 
M 315.96 206.12 317.7 209.6 
M 248.41 64.68 258.53 84.93 
M 259.34 86.55 260.15 88.16 
M 265.01 97.88 269.87 107.6 
M 270.68 109.22 282.02 131.9 
M 289.31 146.48 290.12 148.1 
M 292.55 152.95 294.17 156.19 
M 296.6 161.05 298.22 164.29 
M 317.65 203.17 320.08 208.03 
M 250.59 62.71 260.71 82.95 
M 265.57 92.67 271.24 104.01 
M 273.67 108.87 274.88 111.28 
M 277.17 115.87 287.3 136.12 
M 291.35 144.22 292.16 145.84 
M 295.4 152.31 296.21 153.93 
M 297.02 155.55 299.44 160.41 
M 305.92 173.37 309.16 179.85 
M 317.26 196.05 320.5 202.53 
M 253.31 61.8 263.43 82.05 
M 268.29 91.77 270.14 95.47 
M 280.31 115.81 289.62 134.44 
M 300.15 155.49 301.77 158.73 
M 305.01 165.21 305.82 166.83 
M 307.44 170.07 313.11 181.41 
M 319.59 194.37 322.02 199.22 
M 255.09 59.03 266.83 82.51 
M 270.88 90.61 271.74 92.33 
M 283.45 115.75 287.09 123.03 
M 288.71 126.27 292.76 134.37 
M 310.58 170.01 315.44 179.73 
M 321.92 192.68 325.16 199.16 
M 257.27 57.05 269.82 82.16 
M 286.55 115.6 288.57 119.65 
M 291 124.51 295.05 132.61 
M 297.48 137.47 299.1 140.71 
M 308.82 160.14 310.44 163.38 
M 315.3 173.1 318.54 179.58 
M 259.25 54.67 270.99 78.16 
M 293.27 122.71 296.51 129.19 
M 298.94 134.05 302.18 140.53 
M 307.04 150.25 308.66 153.49 
M 311.9 159.97 316.76 169.69 
M 318.38 172.93 321.62 179.4 
M 326.48 189.12 327.29 190.74 
M 329.72 195.6 334.54 205.25 
M 261.36 52.56 263.39 56.61 
M 265.82 61.47 272.33 74.5 
M 294.73 119.3 298.78 127.4 
M 303.64 137.12 314.17 158.17 
M 314.98 159.79 315.79 161.41 
M 316.6 163.03 318.22 166.27 
M 321.46 172.75 323.08 175.99 
M 328.75 187.33 329.56 188.95 
M 331.18 192.19 337.65 205.13 
M 263.57 50.64 265.6 54.69 
M 268.03 59.55 272.9 69.29 
M 295.93 115.36 302.01 127.51 
M 304.44 132.36 310.91 145.32 
M 311.72 146.94 315.77 155.04 
M 323.06 169.62 324.68 172.86 
M 333.59 190.68 340.39 204.28 
M 265.65 48.46 268.49 54.13 
M 269.3 55.75 274.38 65.92 
M 299.22 115.6 318.25 153.66 
M 321.49 160.14 326.35 169.86 
M 336.07 189.29 339.31 195.77 
M 342.64 202.44 343.14 203.45 
M 268.18 47.17 270.2 51.22 
M 271.82 54.46 274.98 60.77 
M 302.51 115.84 329.64 170.1 
M 270.62 45.71 271.02 46.52 
M 273.45 51.38 276.33 57.15 
M 305.98 116.44 331.49 167.46 
M 348.37 201.22 348.65 201.78 
M 272.79 43.72 273.19 44.53 
M 276.43 51.01 277.7 53.55 
M 309.49 117.12 315.57 129.27 
M 319.62 137.37 322.85 143.85 
M 323.66 145.47 334.19 166.53 
M 274.89 41.58 277.6 47.01 
M 313.02 117.83 318.28 128.36 
M 323.14 138.08 323.95 139.7 
M 325.57 142.94 327.19 146.18 
M 329.62 151.04 336.91 165.62 
M 277.3 40.06 279.48 44.42 
M 316.61 118.69 324.31 134.08 
M 325.12 135.7 330.79 147.04 
M 334.83 155.13 338.88 163.23 
M 343.74 172.95 344.55 174.57 
M 345.36 176.19 346.17 177.81 
M 280.1 39.33 281.56 42.25 
M 320.21 119.55 325.47 130.07 
M 327.09 133.31 332.76 144.65 
M 347.34 173.81 349.77 178.67 
M 351.39 181.91 355.44 190 
M 282.91 38.61 283.65 40.08 
M 323.88 120.56 327.53 127.84 
M 329.96 132.7 334.82 142.42 
M 346.16 165.1 347.77 168.34 
M 352.63 178.06 357.49 187.77 
M 327.62 121.7 331.27 128.99 
M 332.08 130.61 338.56 143.57 
M 349.09 164.62 349.9 166.24 
M 350.71 167.86 351.52 169.48 
M 357.19 180.82 358 182.44 
M 331.37 122.85 341.49 143.09 
M 342.3 144.71 344.73 149.57 
M 352.83 165.77 353.64 167.39 
M 335.18 124.13 342.06 137.89 
M 346.11 145.99 346.92 147.61 
M 338.99 125.41 344.25 135.93 
M 349.11 145.65 349.92 147.27 
M 358.02 163.47 358.83 165.09 
M 371.79 191.01 373.46 194.36 
M 342.8 126.69 346.44 133.98 
M 348.87 138.84 349.68 140.46 
M 350.49 142.08 352.11 145.32 
M 353.73 148.56 354.54 150.18 
M 374.79 190.67 375.69 192.48 
M 346.61 127.99 354.31 143.38 
M 355.93 146.61 357.55 149.85 
M 350.43 129.29 361.37 151.16 
M 355.52 133.11 358.75 139.59 
M 359.56 141.21 364.42 150.93 
M 368.47 159.03 370.09 162.27 
M 365.05 145.84 368.29 152.32 
M 369.1 153.94 373.96 163.66 
M 368.13 145.67 377.04 163.49 
M 380.28 169.97 381.09 171.59 
M 382.71 174.83 383.52 176.45 
M 374.47 152 380.14 163.34 
M 380.95 164.96 383.38 169.82 
M 384.19 171.44 385 173.06 
M 369.88 136.48 373.52 143.77 
M 376.76 150.25 378.38 153.49 
M 379.19 155.11 380.81 158.35 
M 384.05 164.83 384.86 166.45 
M 373.8 137.99 386.36 163.1 
M 377.73 139.51 387.17 158.4 
M 381.69 141.1 387.71 153.13 
M 386.07 143.51 387.71 146.8 
M 238.73 291.39 238.04 291.7 237.26 292.3 236.21 293.8 235.76 295.3 235.79 296.2 235.91 296.8 236.33 297.39 236.83 297.7 238.04 297.7 238.73 297.39 239.51 296.8 240.56 295.3 241.01 293.8 240.86 292.3 240.44 291.7 239.93 291.39 238.73 291.39 
M 243.2 293.5 241.31 299.8 
M 242.93 294.39 243.71 293.8 244.4 293.5 245.3 293.5 245.81 293.8 246.23 294.39 246.26 295.3 246.08 295.89 245.51 296.8 244.73 297.39 244.04 297.7 243.14 297.7 242.63 297.39 242.21 296.8 
M 248.9 293.5 247.64 297.7 
M 248.36 295.3 248.93 294.39 249.71 293.8 250.4 293.5 251.3 293.5 
M 256.1 293.5 254.83 297.7 
M 255.83 294.39 255.41 293.8 254.9 293.5 254 293.5 253.31 293.8 252.52 294.39 251.96 295.3 251.77 295.89 251.81 296.8 252.23 297.39 252.74 297.7 253.64 297.7 254.33 297.39 255.11 296.8 
M 261.5 293.5 259.61 299.8 
M 261.23 294.39 262.01 293.8 262.7 293.5 263.6 293.5 264.11 293.8 264.52 294.39 264.56 295.3 264.38 295.89 263.81 296.8 263.02 297.39 262.33 297.7 261.44 297.7 260.93 297.39 260.51 296.8 
M 266.36 295.3 269.95 295.3 270.14 294.7 270.02 294.1 269.3 293.5 268.39 293.5 267.7 293.8 266.93 294.39 266.36 295.3 266.18 295.89 266.2 296.8 266.63 297.39 267.14 297.7 268.03 297.7 268.72 297.39 269.51 296.8 
M 273.52 291.39 272 296.5 272.02 297.39 272.53 297.7 273.14 297.7 
M 272 293.5 274.09 293.5 
M 279.2 293.5 274.64 297.7 
M 275.89 293.5 279.2 293.5 
M 274.64 297.7 277.94 297.7 
M 281.63 291.39 281.83 291.7 282.22 291.39 282.02 291.1 281.63 291.39 
M 281.3 293.5 280.03 297.7 
M 282.91 297.1 282.52 297.39 282.74 297.7 283.13 297.39 282.91 297.1 
"/></svg>
