<svg xmlns="http://www.w3.org/2000/svg" width="520" height="320"><rect x="0" y="0" width="520" height="320" fill="floralwhite"/><rect x="10" y="10" width="500" height="300" stroke="black" stroke-width="1" fill="none"/><path stroke="black" stroke-width="1" fill="none" stroke-linecap="round" stroke-linejoin="round" d="
M 110.76 138.66 123.13 133.67 135.48 129.41 147.83 125.73 160.18 122.72 172.53 120.97 197.23 119.25 221.93 115.66 234.28 114.49 246.63 114.45 258.98 115.47 283.68 118.84 296.03 120.08 308.38 120.98 320.73 122.82 333.08 125.89 345.43 129.73 357.78 134.05 419.53 156.55 431.88 160.73 
M 431.88 169.7 407.18 178.63 394.83 182.76 382.48 186.64 370.13 190.39 357.78 193.82 345.43 196.88 333.08 200.32 320.73 204.04 296.03 212.08 283.68 215.57 271.33 218.11 258.98 219.68 246.63 220.1 234.28 220.03 221.93 219.38 209.58 218.34 197.23 216.9 184.88 213.76 172.53 209.92 147.83 201.16 123.23 193.63 
M 111.44 139.11 110.84 138.63 
M 112.86 139.52 113.45 139.21 114.2 138.42 114.69 137.53 114.69 137.07 
M 116.28 142.42 117 141.11 117 140.53 116.58 139.6 115.93 138.77 115.42 138.45 
M 117.5 139.46 118.12 139.15 118.91 138.35 119.42 137.44 119.42 136.88 118.91 135.98 118.48 135.54 
M 120.13 145.77 120.36 145.33 120.36 144.72 119.85 143.73 119.06 142.85 118.44 142.51 
M 126.46 191.5 126.62 190.56 125.96 189.29 
M 122.3 139.56 122.93 139.25 123.73 138.44 124.25 137.52 124.25 136.95 123.73 136.03 122.93 135.22 122.3 134.9 
M 128.21 180.17 128.77 179.09 128.77 178.51 128.48 177.89 
M 127.21 189.04 127.77 188.72 128.48 187.9 128.94 186.97 128.94 186.4 128.48 185.47 127.63 184.57 
M 124.28 135.81 124.8 135.49 125.46 134.68 125.88 133.75 125.88 133.18 125.7 132.78 
M 125.16 143.48 125.69 143.15 126.37 142.33 126.81 141.4 126.81 140.83 126.37 139.9 125.69 139.08 125.16 138.76 
M 126.07 151.59 126.57 151.25 127.21 150.39 127.63 149.4 127.63 148.79 127.21 147.81 126.57 146.94 126.07 146.6 
M 129.28 184.88 129.72 184.56 130.3 183.73 130.67 182.8 130.67 182.22 130.3 181.29 129.72 180.46 129.28 180.14 
M 127.98 147.5 128.59 147.17 129.37 146.34 129.88 145.4 129.88 144.82 129.37 143.87 128.59 143.04 127.98 142.72 
M 131.08 180.5 131.79 179.94 
M 131.27 188.37 131.79 188.05 132.46 187.22 132.9 186.29 132.9 185.71 132.46 184.78 131.79 183.95 131.27 183.63 
M 128.99 135.87 129.49 135.54 130.13 134.7 130.54 133.74 130.54 133.15 130.13 132.19 129.57 131.45 
M 130.02 143.6 130.54 143.28 131.2 142.47 131.63 141.54 131.63 140.97 131.2 140.05 130.54 139.23 130.02 138.92 
M 130.66 151.32 131.15 151 131.78 150.18 132.19 149.25 132.19 148.67 131.78 147.74 131.15 146.92 130.66 146.6 
M 131.31 159.38 131.76 159.04 132.33 158.19 132.7 157.22 132.7 156.63 132.33 155.66 131.76 154.81 131.31 154.48 
M 131.79 139.67 132.39 139.35 133.15 138.51 133.64 137.57 133.64 136.98 133.15 136.04 132.39 135.2 131.79 134.88 
M 132.62 147.34 133.21 147.03 133.97 146.22 134.46 145.3 134.46 144.74 133.97 143.82 133.21 143.01 132.62 142.7 
M 133.11 155.05 133.67 154.74 134.39 153.92 134.85 152.99 134.85 152.42 134.39 151.49 133.67 150.67 133.11 150.35 
M 135.3 160.79 135.3 160.36 134.86 159.4 134.19 158.55 133.66 158.21 
M 135.1 187.48 135.62 187.15 136.28 186.33 136.71 185.39 136.71 184.81 136.28 183.87 135.62 183.04 135.1 182.72 
M 133.5 135.72 133.98 135.38 134.59 134.51 134.99 133.53 134.99 132.92 134.59 131.94 133.98 131.08 133.5 130.74 
M 134.66 143.5 135.15 143.19 135.78 142.38 136.18 141.46 136.18 140.89 135.78 139.97 135.15 139.15 134.66 138.84 
M 135.12 150.95 135.6 150.65 136.21 149.86 136.6 148.97 136.6 148.42 136.21 147.52 135.6 146.74 135.12 146.43 
M 135.35 158.57 135.81 158.25 136.39 157.44 136.76 156.52 136.76 155.95 136.39 155.03 135.81 154.21 135.35 153.9 
M 136.95 183.08 137.35 182.77 
M 134.66 131.3 135.22 130.96 135.94 130.09 136.39 129.14 
M 136.22 139.39 136.79 139.06 137.51 138.22 137.98 137.27 137.98 136.68 137.51 135.72 136.79 134.88 136.22 134.55 
M 137.04 147.01 137.61 146.7 138.33 145.9 138.8 145 138.8 144.44 138.33 143.53 137.61 142.73 137.04 142.42 
M 137.36 154.5 137.91 154.19 138.62 153.39 139.08 152.49 139.08 151.94 138.62 151.04 137.91 150.24 137.36 149.93 
M 139.27 160.4 139.35 159.64 138.91 158.7 138.21 157.87 137.67 157.55 
M 138.97 143.09 139.43 142.77 140.02 141.96 140.4 141.03 140.4 140.46 140.02 139.54 139.43 138.72 138.97 138.41 
M 139.42 150.5 139.88 150.19 140.47 149.41 140.85 148.53 140.85 147.98 140.47 147.1 139.88 146.32 139.42 146.02 
M 139.54 157.98 139.99 157.67 140.58 156.87 140.96 155.96 140.96 155.4 140.58 154.49 139.99 153.69 139.54 153.38 
M 138.91 130.77 139.47 130.44 140.2 129.58 140.66 128.61 140.6 127.89 
M 140.4 138.82 140.94 138.49 141.63 137.66 142.08 136.71 142.08 136.12 141.63 135.17 140.94 134.33 140.4 134 
M 141.24 146.47 141.78 146.16 142.47 145.36 142.92 144.46 142.92 143.9 142.47 142.99 141.78 142.19 141.24 141.88 
M 141.55 153.96 142.1 153.65 142.8 152.85 143.26 151.96 143.26 151.4 142.8 150.5 142.1 149.71 141.55 149.4 
M 143.36 160.03 143.54 159.65 143.54 159.07 143.09 158.13 142.38 157.3 141.83 156.98 
M 141.85 134.54 142.3 134.21 142.87 133.36 143.24 132.4 143.24 131.81 142.87 130.85 142.3 130 141.85 129.67 
M 143.02 142.4 143.45 142.08 144.02 141.26 144.38 140.34 144.38 139.77 144.02 138.84 143.45 138.03 143.02 137.71 
M 143.54 149.91 143.99 149.6 144.56 148.81 144.93 147.92 144.93 147.37 144.56 146.47 143.99 145.69 143.54 145.38 
M 143.72 157.44 144.18 157.13 144.77 156.32 145.15 155.41 145.15 154.85 144.77 153.94 144.18 153.13 143.72 152.82 
M 143.23 130.21 143.8 129.9 144.53 129.09 145.01 128.18 145.01 127.61 144.54 126.71 
M 144.42 138.05 144.95 137.73 145.63 136.91 146.06 135.98 146.06 135.41 145.63 134.48 144.95 133.66 144.42 133.34 
M 145.25 145.76 145.78 145.45 146.45 144.64 146.89 143.73 146.89 143.17 146.45 142.25 145.78 141.45 145.25 141.13 
M 145.68 153.37 146.22 153.06 146.91 152.26 147.36 151.34 147.36 150.78 146.91 149.87 146.22 149.07 145.68 148.75 
M 147.45 159.74 147.76 159.12 147.76 158.53 147.3 157.59 146.59 156.75 146.03 156.43 
M 145.9 133.72 146.35 133.41 146.93 132.61 147.3 131.7 147.3 131.14 146.93 130.24 146.35 129.44 145.9 129.13 
M 147.55 149.22 147.99 148.91 148.56 148.11 148.92 147.19 148.92 146.63 148.56 145.72 147.99 144.91 147.55 144.6 
M 147.89 156.92 148.35 156.6 148.94 155.78 149.32 154.85 149.32 154.28 148.94 153.35 148.35 152.54 147.89 152.22 
M 147.63 129.7 148.21 129.41 148.96 128.67 149.44 127.83 149.44 127.31 148.96 126.47 148.1 125.67 
M 148.39 137.2 148.92 136.89 149.6 136.1 150.04 135.2 150.04 134.65 149.6 133.75 148.92 132.96 148.39 132.65 
M 149.19 144.99 149.72 144.67 150.4 143.86 150.83 142.94 150.83 142.37 150.4 141.44 149.72 140.63 149.19 140.31 
M 149.78 152.79 150.32 152.47 151.02 151.65 151.47 150.72 151.47 150.14 151.02 149.21 150.32 148.39 149.78 148.07 
M 149.71 126 150.23 125.73 150.94 124.97 
M 149.99 132.92 150.45 132.63 151.03 131.88 151.41 131.04 151.41 130.51 151.03 129.67 150.45 128.92 149.99 128.63 
M 152.11 156.45 152.58 156.13 153.18 155.29 153.57 154.34 153.57 153.76 153.18 152.81 152.58 151.97 152.11 151.65 
M 152.09 129.27 152.68 129 153.43 128.31 153.91 127.54 153.91 127.06 153.43 126.28 152.68 125.6 152.09 125.33 
M 153.21 144.29 153.75 143.97 154.45 143.15 154.9 142.22 154.9 141.64 154.45 140.72 153.75 139.9 153.21 139.58 
M 153.96 152.28 154.52 151.96 155.24 151.12 155.7 150.17 155.7 149.58 155.24 148.63 154.52 147.79 153.96 147.46 
M 154.46 125.86 154.96 125.62 155.61 125 156.03 124.31 155.96 123.75 
M 154.21 132.29 154.68 132.01 155.28 131.31 155.67 130.5 155.67 130.01 155.28 129.21 154.68 128.5 154.21 128.22 
M 154.8 139.93 155.26 139.62 155.85 138.81 156.23 137.9 156.23 137.34 155.85 136.42 155.26 135.62 154.8 135.3 
M 155.72 148.03 156.19 147.7 156.79 146.86 157.17 145.9 157.17 145.31 156.79 144.36 156.19 143.52 155.72 143.19 
M 156.45 156.1 156.93 155.77 157.54 154.91 157.94 153.95 157.94 153.35 157.54 152.39 156.93 151.54 156.45 151.2 
M 156.58 128.94 157.16 128.68 157.9 128.03 158.38 127.29 158.38 126.83 157.9 126.09 157.16 125.43 156.58 125.18 
M 156.69 135.93 157.26 135.63 157.98 134.88 158.44 134.03 158.44 133.5 157.98 132.64 157.26 131.89 156.69 131.6 
M 157.45 143.81 158.01 143.49 158.74 142.66 159.2 141.73 159.2 141.15 158.74 140.22 158.01 139.39 157.45 139.07 
M 158.31 151.94 158.89 151.6 159.63 150.75 160.1 149.79 160.1 149.19 159.63 148.23 158.89 147.38 158.31 147.05 
M 159.04 125.66 159.52 125.43 160.13 124.83 160.53 124.15 160.53 123.74 159.86 122.8 
M 158.61 131.93 159.09 131.66 159.69 130.96 160.08 130.17 160.08 129.69 159.69 128.9 159.09 128.2 158.61 127.93 
M 160.94 155.89 161.44 155.55 162.07 154.69 162.48 153.72 162.48 153.12 162.07 152.14 161.44 151.28 160.94 150.95 
M 161.43 122.64 161.79 122.49 
M 161.79 143.45 162.35 143.12 163.06 142.29 163.52 141.34 163.52 140.76 163.06 139.81 162.35 138.98 161.79 138.65 
M 162.77 151.71 163.35 151.37 164.1 150.51 164.57 149.53 164.57 148.92 164.1 147.94 163.35 147.08 162.77 146.74 
M 165.37 158.21 165.55 157.84 165.55 157.22 165.05 156.21 164.27 155.33 163.66 154.98 
M 163.23 125.13 163.67 124.89 164.24 124.29 164.6 123.61 164.6 123.19 163.93 122.19 
M 162.83 131.42 163.28 131.15 163.85 130.45 164.21 129.66 164.21 129.17 163.85 128.38 163.28 127.68 162.83 127.41 
M 163.4 139.09 163.84 138.77 164.41 137.96 164.78 137.03 164.78 136.46 164.41 135.54 163.84 134.73 163.4 134.41 
M 164.92 127.79 165.43 127.54 166.09 126.89 166.52 126.15 166.52 125.7 166.09 124.96 165.43 124.31 164.92 124.06 
M 165.01 134.8 165.53 134.5 166.19 133.74 166.62 132.88 166.62 132.34 166.19 131.48 165.53 130.72 165.01 130.42 
M 165.91 142.9 166.44 142.56 167.12 141.7 167.56 140.73 167.56 140.13 167.12 139.16 166.44 138.3 165.91 137.97 
M 167.17 151.48 167.74 151.13 168.47 150.23 168.94 149.2 168.94 148.57 168.47 147.55 167.74 146.65 167.17 146.3 
M 170.32 157.74 170.32 157.21 169.8 156.17 169.01 155.26 168.39 154.9 
M 172.66 195.12 173.21 194.77 173.93 193.88 174.39 192.88 174.39 192.25 173.73 190.99 
M 173.41 203.57 173.98 203.22 174.7 202.33 175.17 201.32 175.17 200.69 174.7 199.68 173.98 198.79 173.41 198.45 
M 166.99 124.14 167.93 123.31 168.27 122.63 168.27 122.2 167.98 121.62 
M 166.62 130.47 167.04 130.2 167.57 129.5 167.92 128.71 167.92 128.21 167.57 127.42 167.04 126.72 166.62 126.44 
M 170.1 155.82 170.6 155.45 171.23 154.51 171.64 153.45 171.64 152.79 171.23 151.73 170.6 150.79 170.1 150.42 
M 175.03 198.99 175.48 198.64 176.06 197.75 176.43 196.74 176.43 196.12 176.06 195.11 175.48 194.22 175.03 193.87 
M 168.59 126.72 169.08 126.47 169.72 125.81 170.13 125.08 170.13 124.62 169.72 123.88 169.08 123.23 168.59 122.97 
M 168.7 133.77 169.2 133.47 169.83 132.7 170.24 131.82 170.24 131.28 169.83 130.41 169.2 129.64 168.7 129.34 
M 169.74 142.09 170.25 141.74 170.91 140.85 171.33 139.84 171.33 139.21 170.91 138.2 170.25 137.3 169.74 136.96 
M 175.11 157.35 174.6 156.17 173.8 155.21 173.17 154.84 
M 176.77 194.49 177.32 194.14 178.01 193.26 178.46 192.26 178.46 191.69 
M 177.62 203.09 178.17 202.73 178.88 201.82 179.34 200.8 179.34 200.16 178.88 199.14 178.17 198.23 177.62 197.87 
M 179.84 207.61 179.32 206.98 178.75 206.64 
M 170.54 122.95 171.48 122.12 171.82 121.43 171.82 121.07 
M 170.78 137.09 171.19 136.76 171.72 135.91 172.06 134.94 172.06 134.35 171.72 133.39 171.19 132.54 170.78 132.2 
M 174.64 155.84 175.14 155.44 175.76 154.43 176.17 153.29 176.17 152.58 175.76 151.43 175.14 150.42 174.64 150.03 
M 179.07 198.33 179.52 197.97 180.1 197.07 180.48 196.05 180.48 195.42 180.1 194.4 179.52 193.5 179.07 193.15 
M 180.3 207.29 180.77 206.93 181.36 206 181.75 204.95 181.75 204.3 181.36 203.24 180.77 202.32 180.3 201.95 
M 172.2 125.59 172.7 125.33 173.35 124.68 173.76 123.94 173.76 123.49 173.35 122.75 172.7 122.1 172.2 121.84 
M 172.31 132.65 172.81 132.35 173.45 131.57 173.87 130.69 173.87 130.14 173.45 129.26 172.81 128.48 172.31 128.18 
M 173.48 141.19 174 140.83 174.65 139.9 175.07 138.85 175.07 138.19 174.65 137.14 174 136.21 173.48 135.85 
M 175.63 150.82 176.18 150.42 176.89 149.4 177.35 148.24 177.35 147.52 176.89 146.36 176.18 145.34 175.63 144.94 
M 179.77 157.12 179.33 156.12 178.54 155.11 177.93 154.72 
M 180.89 193.84 181.45 193.5 182.17 192.63 182.45 192.03 
M 181.81 202.57 182.37 202.21 183.09 201.29 183.56 200.25 183.56 199.61 183.09 198.57 182.37 197.65 181.81 197.29 
M 174.21 121.87 174.64 121.63 175.31 120.8 
M 173.85 128.21 174.27 127.94 174.82 127.24 175.17 126.44 175.17 125.95 174.82 125.16 174.27 124.46 173.85 124.19 
M 174.4 136.01 174.83 135.67 175.37 134.81 175.72 133.83 175.72 133.22 175.37 132.24 174.83 131.38 174.4 131.04 
M 176.31 145.48 176.75 145.08 177.31 144.05 177.67 142.88 177.67 142.16 177.31 141 176.75 139.97 176.31 139.56 
M 179.12 155.77 179.6 155.35 180.22 154.27 180.61 153.05 180.61 152.29 180.22 151.07 179.6 149.99 179.12 149.57 
M 183.26 197.79 183.74 197.44 184.36 196.53 184.75 195.51 184.75 194.87 184.36 193.84 183.74 192.94 183.26 192.58 
M 184.59 206.88 185.07 206.51 185.69 205.57 186.09 204.51 186.09 203.85 185.69 202.78 185.07 201.84 184.59 201.47 
M 176.03 124.66 176.56 124.41 177.25 123.76 177.69 123.03 177.69 122.58 177.25 121.85 176.56 121.2 176.03 120.95 
M 177.34 140.38 177.87 140.01 178.55 139.05 178.99 137.97 178.99 137.3 178.55 136.22 177.87 135.26 177.34 134.89 
M 179.81 150.41 180.37 149.99 181.08 148.92 181.54 147.7 181.54 146.95 181.08 145.74 180.37 144.66 179.81 144.24 
M 184.02 156.21 183.16 154.91 182.56 154.49 
M 185.31 193.51 185.92 193.17 186.63 192.37 
M 186.23 202.27 186.83 201.91 187.61 200.99 188.11 199.95 188.11 199.3 187.61 198.26 186.83 197.34 186.23 196.98 
M 188.76 210 189.38 208.82 189.38 208.18 188.88 207.15 188.12 206.24 187.52 205.89 
M 178.25 121.15 179.08 120.57 
M 177.81 127.42 178.27 127.14 178.86 126.45 179.24 125.67 179.24 125.18 178.86 124.4 178.27 123.7 177.81 123.43 
M 178.31 135.18 178.76 134.84 179.34 133.98 179.71 132.99 179.71 132.39 179.34 131.4 178.76 130.54 178.31 130.2 
M 183.49 155.55 183.96 155.11 184.57 153.98 184.96 152.71 184.96 151.92 184.57 150.65 183.96 149.52 183.49 149.08 
M 187.89 197.69 188.43 197.34 189.11 196.43 189.55 195.41 189.55 194.78 189.11 193.75 188.43 192.85 188 192.57 
M 189.17 206.71 189.69 206.35 190.36 205.41 190.78 204.36 190.78 203.7 190.36 202.65 189.69 201.71 189.17 201.35 
M 190.73 210.47 190.42 210.26 
M 180.26 124.12 180.84 123.87 181.58 123.24 182.06 122.52 182.06 122.08 181.58 121.36 180.84 120.72 180.3 120.49 
M 181.45 139.78 182.01 139.4 182.73 138.44 183.19 137.35 183.19 136.67 182.73 135.58 182.01 134.62 181.45 134.24 
M 184.05 149.98 184.61 149.55 185.33 148.46 185.8 147.21 185.8 146.44 185.33 145.2 184.61 144.11 184.05 143.68 
M 190.22 193.68 190.89 193.35 191.62 192.61 
M 191.06 202.34 191.72 201.98 192.56 201.08 193.1 200.05 193.1 199.41 192.56 198.39 191.72 197.48 191.06 197.13 
M 192.45 210.88 192.82 210.67 193.62 209.78 194.14 208.76 194.14 208.14 193.62 207.13 192.82 206.23 192.2 205.88 
M 182.78 120.9 183.75 120.28 
M 182.59 134.7 183.07 134.37 183.69 133.51 184.09 132.54 184.09 131.93 183.69 130.96 183.07 130.1 182.59 129.76 
M 184.58 144.37 185.05 143.95 185.66 142.89 186.05 141.69 186.05 140.94 185.66 139.74 185.05 138.68 184.58 138.26 
M 187.8 155.16 188.27 154.72 188.87 153.58 189.26 152.29 189.26 151.49 188.87 150.19 188.27 149.05 187.8 148.61 
M 193.07 198.11 193.66 197.76 194.41 196.87 194.9 195.87 194.9 195.24 194.41 194.24 193.66 193.35 193.07 193 
M 184.9 123.99 185.53 123.74 186.33 123.13 186.85 122.43 186.85 122 186.33 121.3 185.53 120.68 184.9 120.44 
M 184.71 130.8 185.31 130.5 186.09 129.74 186.59 128.88 186.59 128.34 186.09 127.48 185.31 126.72 184.71 126.42 
M 188.38 149.57 188.95 149.14 189.69 148.05 190.16 146.81 190.16 146.04 189.69 144.8 188.95 143.71 188.38 143.28 
M 192.93 155.89 191.96 154.17 191.39 153.74 
M 195.59 194.33 196.31 194 197.23 193.13 197.54 192.63 
M 196.26 202.74 196.96 202.39 197.84 201.52 198.42 200.52 198.42 199.91 197.84 198.91 196.96 198.03 196.26 197.69 
M 197.07 211.06 197.71 210.73 198.53 209.87 199.06 208.9 199.06 208.29 198.53 207.32 197.71 206.46 197.07 206.12 
M 187.73 121.07 188.29 120.85 189.32 119.87 
M 186.9 126.95 187.42 126.69 188.1 126.03 188.53 125.28 188.53 124.82 188.1 124.07 187.42 123.41 186.9 123.15 
M 187.17 134.52 187.68 134.19 188.33 133.34 188.76 132.38 188.76 131.79 188.33 130.84 187.68 129.99 187.17 129.66 
M 198.62 198.87 199.23 198.53 200.01 197.67 200.52 196.69 200.52 196.09 200.01 195.11 199.23 194.24 198.62 193.91 
M 189.86 124.16 190.52 123.93 191.36 123.33 191.91 122.66 191.91 122.24 191.36 121.56 190.52 120.97 189.86 120.74 
M 189.47 130.78 190.1 130.49 190.91 129.74 191.43 128.9 191.43 128.38 190.91 127.54 190.1 126.8 189.47 126.51 
M 190.45 139.23 191.06 138.87 191.84 137.93 192.35 136.88 192.35 136.22 191.84 135.17 191.06 134.24 190.45 133.87 
M 192.81 149.21 193.39 148.79 194.14 147.72 194.62 146.5 194.62 145.75 194.14 144.53 193.39 143.45 192.81 143.03 
M 201.17 195.19 201.89 194.86 202.83 193.99 203.43 193.02 203.43 192.75 
M 201.62 203.27 202.32 202.94 203.21 202.1 203.79 201.15 203.79 200.56 203.21 199.6 202.32 198.76 201.62 198.43 
M 191.84 127.11 192.38 126.86 193.08 126.22 193.52 125.5 193.52 125.05 193.08 124.32 192.38 123.68 191.84 123.43 
M 191.97 134.53 192.49 134.21 193.17 133.38 193.6 132.45 193.6 131.87 193.17 130.94 192.49 130.11 191.97 129.79 
M 196.42 119.52 197.27 119.25 
M 194.97 124.5 195.64 124.27 196.49 123.7 197.05 123.05 197.05 122.64 196.49 121.99 195.64 121.41 194.97 121.19 
M 194.37 130.9 195.01 130.62 195.83 129.9 196.36 129.08 196.36 128.57 195.83 127.75 195.01 127.03 194.37 126.74 
M 206.63 195.94 207.33 195.6 208.22 194.74 208.79 193.77 208.79 193.16 208.6 192.84 
M 198.24 122.02 199.53 121.31 200 120.73 200 120.37 199.53 119.79 198.27 119.09 
M 196.85 127.35 197.39 127.11 198.08 126.48 198.53 125.78 198.53 125.34 198.08 124.64 197.39 124.01 196.85 123.77 
M 196.83 134.62 197.36 134.3 198.03 133.5 198.47 132.59 198.47 132.02 198.03 131.11 197.36 130.3 196.83 129.99 
M 201.72 120.07 203.27 119.39 203.83 118.84 203.83 118.5 203.61 118.29 
M 200.05 124.81 200.7 124.59 201.54 124.03 202.08 123.4 202.08 123 201.54 122.37 200.7 121.81 200.05 121.59 
M 199.27 131.03 199.91 130.75 200.72 130.05 201.24 129.25 201.24 128.75 200.72 127.95 199.91 127.24 199.27 126.96 
M 199.94 139.13 200.55 138.78 201.35 137.9 201.85 136.89 201.85 136.27 201.35 135.27 200.55 134.38 199.94 134.04 
M 201.84 148.64 202.44 148.24 203.2 147.22 203.69 146.06 203.69 145.34 203.2 144.18 202.44 143.16 201.84 142.76 
M 205.29 118.22 206.02 117.92 
M 203.34 122.37 204.58 121.67 205.03 121.11 205.03 120.76 204.58 120.19 203.34 119.5 
M 201.77 127.51 202.3 127.27 202.98 126.66 203.42 125.97 203.42 125.54 202.98 124.85 202.3 124.24 201.77 124 
M 201.63 134.65 202.15 134.34 202.82 133.55 203.25 132.65 203.25 132.1 202.82 131.2 202.15 130.41 201.63 130.1 
M 205.26 153.47 205.75 153.06 206.37 152 206.78 150.79 206.78 150.05 206.37 148.85 205.75 147.78 205.26 147.37 
M 206.76 120.38 208.25 119.71 208.79 119.17 208.79 118.83 208.25 118.29 207.2 117.74 
M 204.98 124.99 205.63 124.78 206.46 124.23 206.99 123.6 206.99 123.21 206.46 122.59 205.63 122.03 204.98 121.82 
M 204.65 139.07 205.28 138.73 206.08 137.86 206.6 136.87 206.6 136.26 206.08 135.28 205.28 134.41 204.65 134.07 
M 206.41 148.42 207.01 148.03 207.79 147.02 208.29 145.89 208.29 145.18 207.79 144.04 207.01 143.04 206.41 142.65 
M 210.62 155.52 210.62 154.98 210.13 153.77 209.38 152.7 208.79 152.28 
M 210.21 118.41 211.43 117.77 211.87 117.06 
M 208.22 122.51 209.45 121.82 209.9 121.26 209.9 120.92 209.45 120.35 208.22 119.66 
M 206.59 127.59 207.14 127.36 207.84 126.75 208.29 126.07 208.29 125.64 207.84 124.96 207.14 124.35 206.59 124.12 
M 206.39 134.65 206.93 134.34 207.62 133.56 208.06 132.68 208.06 132.13 207.62 131.25 206.93 130.47 206.39 130.16 
M 209.79 153.23 210.29 152.82 210.94 151.77 211.35 150.59 211.35 149.85 210.94 148.66 210.29 147.61 209.79 147.2 
M 218.83 207.52 219.32 207.23 219.95 206.47 220.36 205.61 220.36 205.08 219.95 204.22 219.32 203.46 218.83 203.16 
M 211.7 120.59 213.18 119.92 213.72 119.38 213.72 119.04 213.18 118.49 211.7 117.82 
M 209.07 131.34 209.75 131.07 210.62 130.38 211.18 129.59 211.18 129.11 210.62 128.33 209.75 127.63 209.07 127.36 
M 209.54 139.2 210.21 138.86 211.06 138.01 211.61 137.04 211.61 136.44 211.06 135.47 210.21 134.61 209.54 134.28 
M 211.14 148.37 211.78 147.98 212.6 147 213.12 145.89 213.12 145.2 212.6 144.08 211.78 143.1 211.14 142.72 
M 215.11 155.82 215.22 154.81 214.72 153.62 213.95 152.57 213.35 152.16 
M 220.9 210.97 221.5 210.68 222.27 209.92 222.76 209.07 222.76 208.54 222.27 207.68 221.5 206.93 220.9 206.63 
M 221.3 214.14 220.64 213.81 
M 215.1 118.59 216.32 117.94 216.76 117.41 216.76 117.08 216.18 116.46 
M 213.26 122.86 214.54 122.16 215.01 121.58 215.01 121.23 214.54 120.66 213.26 119.96 
M 211.76 128.05 212.35 127.81 213.1 127.2 213.58 126.51 213.58 126.09 213.1 125.4 212.35 124.79 211.76 124.55 
M 212.62 143.65 213.19 143.29 213.92 142.36 214.39 141.32 214.39 140.67 213.92 139.63 213.19 138.71 212.62 138.35 
M 214.54 153.16 215.07 152.77 215.75 151.75 216.18 150.6 216.18 149.89 215.75 148.74 215.07 147.72 214.54 147.32 
M 223.33 207.34 223.82 207.03 224.44 206.26 224.84 205.39 224.84 204.85 224.44 203.97 223.82 203.2 223.33 202.9 
M 223.44 214.26 224.21 213.44 224.63 212.59 224.63 212.07 224.21 211.22 223.56 210.47 223.05 210.18 
M 218.22 116.58 219.57 115.99 
M 215.21 125.82 215.92 125.6 216.83 125.03 217.42 124.39 217.42 124 216.83 123.36 215.92 122.79 215.21 122.57 
M 214.43 131.98 215.16 131.71 216.1 131.02 216.7 130.24 216.7 129.75 216.1 128.97 215.16 128.28 214.43 128.01 
M 216.17 148.58 216.85 148.21 217.72 147.26 218.28 146.18 218.28 145.52 217.72 144.45 216.85 143.5 216.17 143.13 
M 219.88 155.77 220 154.81 219.48 153.66 218.68 152.65 218.05 152.25 
M 225.53 203.46 226.09 203.14 226.82 202.33 227.29 201.41 227.29 200.85 226.82 199.93 226.09 199.12 225.53 198.8 
M 225.48 210.87 226.08 210.57 226.84 209.79 227.33 208.92 227.33 208.38 226.84 207.5 226.08 206.73 225.48 206.43 
M 226.31 214.39 225.35 213.77 
M 220.06 118.88 221.32 118.21 221.78 117.66 221.78 117.32 221.32 116.77 220.06 116.1 
M 218.53 123.46 219.12 123.26 219.88 122.74 220.37 122.14 220.37 121.78 219.88 121.18 219.12 120.66 218.53 120.45 
M 217.13 135.9 217.76 135.6 218.57 134.84 219.1 133.98 219.1 133.44 218.57 132.58 217.76 131.82 217.13 131.52 
M 219.53 153.29 220.09 152.92 220.8 151.95 221.26 150.85 221.26 150.17 220.8 149.08 220.09 148.11 219.53 147.73 
M 227.78 207.13 228.26 206.82 228.88 206.02 229.28 205.12 229.28 204.56 228.88 203.65 228.26 202.86 227.78 202.54 
M 227.85 214.46 228.27 214.22 228.92 213.45 229.35 212.58 229.35 212.04 228.92 211.17 228.27 210.41 227.76 210.11 
M 223.19 116.87 224.71 116.19 225.26 115.64 225.26 115.34 
M 221.97 121.53 222.68 121.32 223.58 120.81 224.17 120.22 224.17 119.86 223.58 119.28 222.68 118.76 221.97 118.56 
M 220.76 126.7 221.51 126.48 222.47 125.89 223.09 125.23 223.09 124.82 222.47 124.16 221.51 123.58 220.76 123.35 
M 220.15 132.99 220.93 132.72 221.92 132.03 222.56 131.24 222.56 130.76 221.92 129.97 220.93 129.28 220.15 129.01 
M 221.49 149.05 222.21 148.69 223.12 147.79 223.72 146.77 223.72 146.14 223.12 145.11 222.21 144.21 221.49 143.86 
M 224.96 155.37 224.96 154.99 224.43 153.9 223.59 152.94 222.94 152.56 
M 229.33 195.08 229.87 194.73 230.56 193.84 231.01 192.83 230.98 192.15 
M 229.82 203.08 230.38 202.76 231.09 201.92 231.55 200.98 231.55 200.4 231.09 199.45 230.38 198.62 229.82 198.29 
M 230.04 210.77 230.63 210.46 231.39 209.66 231.88 208.76 231.88 208.2 231.39 207.3 230.63 206.5 230.04 206.19 
M 231.29 214.62 230.71 214.06 230.09 213.76 
M 225.24 119.4 226.57 118.7 227.05 118.12 227.05 117.77 226.57 117.2 225.24 116.49 
M 224.06 124.36 224.69 124.14 225.49 123.59 226 122.97 226 122.59 225.49 121.96 224.69 121.41 224.06 121.2 
M 223.14 130.09 223.8 129.84 224.64 129.2 225.19 128.48 225.19 128.03 224.64 127.31 223.8 126.67 223.14 126.42 
M 224.76 153.64 225.34 153.28 226.09 152.37 226.57 151.34 226.57 150.71 226.09 149.67 225.34 148.76 224.76 148.41 
M 232.18 206.89 232.65 206.56 233.26 205.73 233.65 204.79 233.65 204.21 233.26 203.27 232.65 202.44 232.18 202.11 
M 232.45 214.54 232.95 214.23 233.6 213.44 234.01 212.55 234.01 212 233.6 211.1 232.95 210.31 232.45 210 
M 228.4 117.42 229.11 117.22 230.02 116.71 230.6 116.14 230.6 115.79 229.53 114.94 
M 226.12 134.26 226.93 133.99 227.96 133.3 228.63 132.51 228.63 132.02 227.96 131.24 226.93 130.54 226.12 130.27 
M 230.11 155.34 229.57 154.34 228.7 153.44 228.02 153.08 
M 234.54 210.61 235.12 210.29 235.87 209.47 236.35 208.54 236.35 207.96 235.87 207.03 235.12 206.21 234.54 205.89 
M 236.16 214.76 235.38 213.99 234.78 213.69 
M 231.45 115.3 232.76 114.64 
M 230.73 120.24 231.35 120.03 232.15 119.5 232.66 118.9 232.66 118.53 232.15 117.93 231.35 117.41 230.73 117.2 
M 229.86 125.52 230.52 125.29 231.36 124.72 231.9 124.07 231.9 123.67 231.36 123.02 230.52 122.44 229.86 122.22 
M 229.19 131.47 229.87 131.22 230.74 130.57 231.3 129.83 231.3 129.37 230.74 128.64 229.87 127.99 229.19 127.73 
M 229.13 138.43 229.81 138.14 230.68 137.4 231.25 136.56 231.25 136.04 230.68 135.2 229.81 134.46 229.13 134.17 
M 229.55 146.1 230.2 145.79 231.04 144.98 231.58 144.07 231.58 143.5 231.04 142.58 230.2 141.78 229.55 141.46 
M 236.51 206.57 236.98 206.23 237.58 205.37 237.97 204.4 237.97 203.8 237.58 202.83 236.98 201.97 236.51 201.63 
M 237.03 214.45 237.52 214.13 238.14 213.32 238.55 212.41 238.55 211.84 238.14 210.93 237.52 210.12 237.03 209.8 
M 233.94 118.3 234.69 118.09 235.66 117.57 236.28 116.97 236.28 116.6 235.66 116.01 234.69 115.49 233.94 115.28 
M 233.25 123.5 234.03 123.28 235.03 122.72 235.67 122.09 235.67 121.7 235.03 121.06 234.03 120.5 233.25 120.28 
M 232.56 129.19 233.36 128.95 234.39 128.33 235.05 127.63 235.05 127.2 234.39 126.5 233.36 125.88 232.56 125.64 
M 232.22 135.66 233.03 135.39 234.07 134.69 234.74 133.9 234.74 133.42 234.07 132.63 233.03 131.94 232.22 131.66 
M 232.35 142.9 233.15 142.6 234.17 141.84 234.82 140.97 234.82 140.44 234.17 139.57 233.15 138.81 232.35 138.51 
M 232.75 150.62 233.51 150.3 234.48 149.49 235.1 148.57 235.1 148 234.48 147.08 233.51 146.27 232.75 145.96 
M 234.95 155.08 233.98 154.12 233.28 153.78 
M 238.93 210.32 239.49 209.99 240.2 209.15 240.67 208.2 240.67 207.61 240.2 206.66 239.49 205.82 238.93 205.49 
M 240.75 214.79 239.88 213.77 239.31 213.46 
M 237.06 116.25 237.69 116.05 238.5 115.53 239.03 114.94 238.94 114.48 
M 236.54 121.39 237.19 121.18 238.03 120.63 238.57 120.01 238.57 119.63 238.03 119.01 237.19 118.46 236.54 118.25 
M 235.86 126.85 236.53 126.62 237.39 126.04 237.94 125.37 237.94 124.96 237.39 124.29 236.53 123.7 235.86 123.47 
M 235.32 132.91 235.99 132.65 236.85 132 237.4 131.25 237.4 130.79 236.85 130.05 235.99 129.39 235.32 129.14 
M 235.25 139.82 235.91 139.53 236.77 138.8 237.32 137.97 237.32 137.46 236.77 136.63 235.91 135.9 235.25 135.62 
M 235.78 154.93 236.39 154.62 237.18 153.81 237.69 152.9 237.69 152.33 237.18 151.42 236.39 150.61 235.78 150.29 
M 241.42 214.14 241.87 213.82 242.46 213 242.84 212.07 242.84 211.49 242.46 210.56 241.87 209.74 241.42 209.42 
M 239.77 119.46 240.55 119.25 241.55 118.71 242.2 118.09 242.2 117.72 241.55 117.11 240.55 116.57 239.77 116.36 
M 239.2 124.77 240 124.55 241.02 123.98 241.67 123.34 241.67 122.94 241.02 122.3 240 121.73 239.2 121.51 
M 238.58 130.51 239.37 130.26 240.38 129.64 241.03 128.94 241.03 128.51 240.38 127.81 239.37 127.19 238.58 126.94 
M 238.23 136.94 239.01 136.67 240.01 135.99 240.66 135.2 240.66 134.72 240.01 133.94 239.01 133.25 238.23 132.98 
M 243.03 209.72 243.56 209.39 244.22 208.54 244.65 207.57 244.65 206.98 244.22 206.01 243.56 205.16 243.03 204.83 
M 242.94 117.47 243.59 117.26 244.43 116.73 244.97 116.12 244.97 115.74 244.43 115.13 243.17 114.46 
M 242.54 122.7 243.2 122.49 244.06 121.94 244.61 121.31 244.61 120.92 244.06 120.3 243.2 119.74 242.54 119.53 
M 241.87 128.15 242.53 127.92 243.37 127.33 243.92 126.67 243.92 126.26 243.37 125.6 242.53 125.01 241.87 124.79 
M 241.25 134.11 241.89 133.86 242.71 133.21 243.23 132.48 243.23 132.02 242.71 131.29 241.89 130.64 241.25 130.38 
M 241.82 155.54 242.78 154.67 243.29 153.78 243.29 153.24 242.78 152.35 242 151.57 241.39 151.27 
M 245.88 115.5 246.65 115.29 247.84 114.55 
M 245.72 120.72 246.5 120.51 247.51 119.96 248.15 119.34 248.15 118.96 247.51 118.34 246.5 117.79 245.72 117.58 
M 245.16 126.02 245.95 125.8 246.95 125.23 247.59 124.59 247.59 124.2 246.95 123.56 245.95 122.99 245.16 122.77 
M 244.43 131.62 245.19 131.38 246.16 130.78 246.79 130.09 246.79 129.66 246.16 128.97 245.19 128.36 244.43 128.12 
M 244.08 152.41 244.81 152.11 245.74 151.34 246.34 150.47 246.34 149.93 245.74 149.05 244.81 148.28 244.08 147.98 
M 248.62 214.76 248.77 213.87 248.37 212.97 247.74 212.18 247.24 211.87 
M 248.87 118.73 249.52 118.52 250.34 117.97 250.88 117.35 250.88 116.96 250.34 116.34 249.52 115.79 248.87 115.58 
M 248.52 123.97 249.17 123.75 250 123.2 250.53 122.58 250.53 122.2 250 121.57 249.17 121.02 248.52 120.81 
M 247.73 129.25 248.36 129.02 249.17 128.45 249.69 127.81 249.69 127.41 249.17 126.77 248.36 126.2 247.73 125.97 
M 246.88 134.99 247.48 134.74 248.25 134.11 248.75 133.39 248.75 132.95 248.25 132.23 247.48 131.6 246.88 131.35 
M 248.33 155.39 248.77 154.6 248.77 154.06 248.28 153.18 247.51 152.41 246.92 152.1 
M 251.63 116.59 252.38 116.37 253.33 115.82 253.94 115.06 
M 251.56 121.86 252.32 121.65 253.28 121.1 253.91 120.48 253.91 120.09 253.28 119.47 252.32 118.92 251.56 118.71 
M 250.95 127.06 251.7 126.85 252.65 126.29 253.27 125.67 253.27 125.28 252.65 124.65 251.7 124.1 250.95 123.88 
M 249.31 145.65 249.99 145.36 250.87 144.62 251.44 143.78 251.44 143.26 250.87 142.42 249.99 141.68 249.31 141.39 
M 249.5 153.12 250.19 152.82 251.09 152.04 251.66 151.17 251.66 150.63 251.09 149.75 250.19 148.98 249.5 148.68 
M 254.6 119.77 255.21 119.56 255.99 119 256.5 118.37 256.5 117.98 255.99 117.35 255.21 116.8 254.6 116.58 
M 254.26 124.98 254.87 124.77 255.65 124.22 256.15 123.61 256.15 123.23 255.65 122.61 254.87 122.07 254.26 121.86 
M 252.03 149.64 252.59 149.34 253.31 148.56 253.77 147.69 253.77 147.14 253.31 146.27 252.59 145.49 252.03 145.19 
M 253.75 155.8 254.05 155.24 254.05 154.69 253.58 153.81 252.85 153.04 252.27 152.73 
M 257.13 117.4 257.82 117.18 258.72 116.62 259.29 115.98 259.22 115.5 
M 257.11 122.69 257.81 122.48 258.71 121.93 259.29 121.31 259.29 120.92 258.71 120.3 257.81 119.75 257.11 119.54 
M 255.34 133.01 256.01 132.78 256.88 132.2 257.43 131.55 257.43 131.14 256.88 130.49 256.01 129.91 255.34 129.69 
M 254.52 139 255.17 138.74 256.02 138.08 256.56 137.34 256.56 136.87 256.02 136.13 255.17 135.47 254.52 135.21 
M 259.95 120.42 260.51 120.2 261.23 119.64 261.69 119.01 261.69 118.62 261.23 117.98 260.51 117.42 259.95 117.21 
M 258.55 130.56 259.1 130.34 259.81 129.81 260.27 129.19 260.27 128.82 259.81 128.2 259.1 127.66 258.55 127.45 
M 256.78 142.42 257.31 142.14 257.99 141.43 258.42 140.63 258.42 140.13 257.99 139.32 257.31 138.61 256.78 138.34 
M 257.04 149.96 257.58 149.65 258.26 148.87 258.71 147.98 258.71 147.43 258.26 146.55 257.58 145.77 257.04 145.46 
M 258.85 156.08 259.08 155.64 259.08 155.09 258.63 154.2 257.93 153.42 257.39 153.12 
M 262.24 117.8 262.87 117.58 263.69 117.01 264.21 116.2 
M 262.23 123.1 262.87 122.89 263.69 122.34 264.21 121.72 264.21 121.33 263.69 120.71 262.87 120.16 262.23 119.95 
M 259.43 139.17 260.06 138.92 260.86 138.26 261.38 137.52 261.38 137.06 260.86 136.32 260.06 135.66 259.43 135.4 
M 259.63 153.84 260.26 153.53 261.07 152.75 261.59 151.86 261.59 151.31 261.07 150.42 260.26 149.64 259.63 149.33 
M 264.86 120.61 265.36 120.39 266 119.83 266.42 119.19 266.42 118.8 266 118.16 265.36 117.6 264.86 117.38 
M 264.51 125.78 265.66 125.03 266.08 124.42 266.08 124.05 265.66 123.44 264.51 122.69 
M 263.43 130.7 264.59 129.95 265.01 129.34 265.01 128.97 264.59 128.36 263.43 127.61 
M 262.09 135.94 262.6 135.7 263.26 135.1 263.69 134.42 263.69 134 263.26 133.33 262.6 132.73 262.09 132.49 
M 263.2 156.89 263.83 155.76 263.83 155.21 263.4 154.32 262.75 153.53 262.23 153.23 
M 259.38 201.04 259.88 200.7 260.52 199.82 260.93 198.83 260.93 198.22 260.52 197.23 259.88 196.35 259.38 196.01 
M 266.83 117.66 267.4 117.44 268.2 116.76 
M 266.84 122.99 267.41 122.77 268.14 122.22 268.6 121.6 268.6 121.21 268.14 120.59 267.41 120.03 266.84 119.82 
M 265.03 133.24 265.63 133.02 266.39 132.45 266.89 131.8 266.89 131.4 266.39 130.75 265.63 130.17 265.03 129.95 
M 264.17 139.19 264.78 138.94 265.56 138.28 266.06 137.53 266.06 137.07 265.56 136.33 264.78 135.67 264.17 135.41 
M 264.36 153.84 264.97 153.53 265.74 152.75 266.24 151.86 266.24 151.32 265.74 150.43 264.97 149.65 264.36 149.34 
M 264.94 157.15 264.44 156.9 
M 260.64 188.31 261.26 187.98 262.05 187.15 262.55 186.22 
M 261.36 196.84 261.97 196.49 262.76 195.62 263.27 194.62 263.27 194.01 262.76 193.01 261.97 192.14 261.36 191.79 
M 269.15 120.16 270.15 119.38 270.51 118.75 270.51 118.35 270.15 117.71 269.15 116.93 
M 268.85 125.4 269.87 124.64 270.24 124.03 270.24 123.65 269.87 123.03 268.85 122.27 
M 266.73 135.88 267.23 135.64 267.86 135.03 268.27 134.34 268.27 133.91 267.86 133.22 267.23 132.61 266.73 132.37 
M 266.28 142.47 266.79 142.19 267.44 141.48 267.86 140.68 267.86 140.18 267.44 139.37 266.79 138.66 266.28 138.38 
M 266.52 149.97 267.02 149.67 267.67 148.89 268.08 148.01 268.08 147.46 267.67 146.58 267.02 145.8 266.52 145.49 
M 267.08 157.43 267.95 156.51 268.35 155.62 268.35 155.08 267.95 154.2 267.32 153.42 266.83 153.12 
M 263.35 192.65 263.88 192.31 264.56 191.43 264.99 190.43 264.99 189.82 264.56 188.82 263.88 187.94 263.35 187.6 
M 264.16 201.08 264.68 200.74 265.35 199.87 265.78 198.88 265.78 198.27 265.35 197.28 264.68 196.41 264.16 196.07 
M 268.92 153.63 269.5 153.33 270.25 152.56 270.73 151.69 270.73 151.15 270.25 150.27 269.5 149.5 268.92 149.2 
M 270.36 158 269.46 156.94 268.89 156.65 
M 265.48 188.44 266.11 188.11 266.92 187.27 267.44 186.32 267.44 185.73 266.97 184.87 
M 266.18 196.92 266.81 196.58 267.61 195.71 268.13 194.72 268.13 194.11 267.61 193.12 266.81 192.24 266.18 191.9 
M 266.89 205.15 267.51 204.82 268.31 203.96 268.82 203 268.82 202.4 268.31 201.43 267.51 200.58 266.89 200.24 
M 267.5 213.1 268.13 212.77 268.93 211.95 269.45 211.01 269.45 210.43 268.93 209.49 268.13 208.67 267.5 208.34 
M 272.72 119.01 273.62 118.22 273.95 117.55 
M 272.57 124.44 273.49 123.65 273.83 123.01 273.83 122.61 273.49 121.97 272.57 121.18 
M 271.96 129.89 272.95 129.08 273.31 128.42 273.31 128.01 272.95 127.35 271.96 126.54 
M 271.22 135.71 271.7 135.47 272.32 134.83 272.71 134.11 272.71 133.66 272.32 132.94 271.7 132.31 271.22 132.06 
M 270.93 142.41 271.43 142.13 272.07 141.41 272.48 140.61 272.48 140.1 272.07 139.3 271.43 138.58 270.93 138.3 
M 271.08 149.76 271.57 149.46 272.19 148.7 272.6 147.83 272.6 147.3 272.19 146.43 271.57 145.66 271.08 145.36 
M 268.24 192.8 268.76 192.46 269.44 191.59 269.87 190.59 269.87 189.98 269.44 188.99 268.76 188.11 268.24 187.77 
M 268.97 201.15 269.49 200.81 270.15 199.94 270.58 198.96 270.58 198.36 270.15 197.38 269.49 196.51 268.97 196.17 
M 269.6 209.22 270.12 208.89 270.78 208.05 271.2 207.09 271.2 206.5 270.78 205.55 270.12 204.71 269.6 204.38 
M 271.09 213.09 270.22 212.35 
M 274.23 120.96 274.7 120.74 275.3 120.16 275.69 119.5 275.69 119.1 275.3 118.44 274.7 117.86 274.23 117.64 
M 274.03 126.62 274.52 126.39 275.15 125.79 275.56 125.11 275.56 124.7 275.15 124.02 274.52 123.42 274.03 123.19 
M 273.29 138.94 273.87 138.67 274.61 137.99 275.09 137.21 275.09 136.73 274.61 135.95 273.87 135.27 273.29 135 
M 273.3 153.24 273.87 152.94 274.59 152.19 275.05 151.33 275.05 150.81 274.59 149.95 273.87 149.2 273.3 148.9 
M 274.8 158.01 274.36 157.19 273.66 156.45 273.11 156.17 
M 270.31 188.56 270.93 188.23 271.72 187.38 272.23 186.43 272.23 185.83 271.72 184.88 270.96 184.06 
M 270.98 196.99 271.6 196.65 272.38 195.78 272.89 194.79 272.89 194.18 272.38 193.2 271.6 192.33 270.98 191.99 
M 271.64 205.18 272.25 204.85 273.04 203.99 273.54 203.02 273.54 202.42 273.04 201.46 272.25 200.6 271.64 200.27 
M 273.09 212.73 273.73 212.05 274.24 211.1 274.24 210.5 273.73 209.54 272.93 208.7 272.31 208.37 
M 275.55 135.42 276.02 135.16 276.61 134.48 277 133.72 277 133.25 276.61 132.49 276.02 131.81 275.55 131.55 
M 275.49 149.38 275.96 149.09 276.56 148.35 276.95 147.5 276.95 146.98 276.56 146.13 275.96 145.38 275.49 145.09 
M 275.42 156.6 275.87 156.31 276.45 155.57 276.82 154.73 276.82 154.21 276.45 153.37 275.87 152.62 275.42 152.33 
M 272.37 184.32 272.87 184 273.32 183.43 
M 273.03 192.87 273.54 192.52 274.19 191.65 274.6 190.66 274.6 190.05 274.19 189.06 273.54 188.18 273.03 187.84 
M 273.69 201.13 274.19 200.79 274.83 199.93 275.24 198.95 275.24 198.35 274.83 197.38 274.19 196.52 273.69 196.18 
M 274.31 209.23 274.82 208.89 275.46 208.04 275.88 207.08 275.88 206.48 275.46 205.52 274.82 204.67 274.31 204.34 
M 277.36 119.41 277.82 119.17 278.65 118.17 
M 277.51 125.49 278 125.24 278.63 124.6 279.03 123.87 279.03 123.42 278.63 122.7 278 122.05 277.51 121.8 
M 277.61 131.91 278.14 131.64 278.81 130.97 279.25 130.2 279.25 129.73 278.81 128.96 278.14 128.29 277.61 128.02 
M 277.63 138.6 278.19 138.33 278.91 137.62 279.37 136.83 279.37 136.33 278.91 135.53 278.19 134.83 277.63 134.55 
M 277.61 145.56 278.17 145.27 278.88 144.54 279.35 143.72 279.35 143.21 278.88 142.38 278.17 141.65 277.61 141.37 
M 277.51 152.66 278.05 152.37 278.74 151.63 279.19 150.8 279.19 150.28 278.74 149.45 278.05 148.71 277.51 148.42 
M 275.61 196.88 276.19 196.54 276.94 195.68 277.43 194.69 277.43 194.08 276.94 193.1 276.19 192.23 275.61 191.89 
M 276.26 205.09 276.85 204.75 277.61 203.89 278.09 202.92 278.09 202.32 277.61 201.34 276.85 200.48 276.26 200.14 
M 279.05 121.64 279.45 121.39 279.96 120.75 280.29 120.02 280.29 119.57 279.52 118.29 
M 279.42 128.17 279.85 127.9 280.39 127.22 280.74 126.44 280.74 125.96 280.39 125.18 279.85 124.5 279.42 124.23 
M 279.73 134.96 280.18 134.68 280.76 133.97 281.13 133.17 281.13 132.67 280.76 131.87 280.18 131.17 279.73 130.89 
M 279.79 141.82 280.25 141.54 280.84 140.82 281.22 140 281.22 139.5 280.84 138.68 280.25 137.96 279.79 137.68 
M 276.85 184.12 277.32 183.79 277.92 182.95 278.2 182.26 
M 277.54 192.65 278.01 192.3 278.61 191.43 279 190.44 279 189.83 278.61 188.83 278.01 187.96 277.54 187.62 
M 278.18 200.9 278.65 200.56 279.26 199.7 279.65 198.72 279.65 198.11 279.26 197.13 278.65 196.27 278.18 195.93 
M 278.87 209.11 279.36 208.77 279.98 207.9 280.38 206.92 280.38 206.31 279.98 205.33 279.36 204.46 278.87 204.12 
M 281.09 124.42 281.6 124.16 282.25 123.48 282.66 122.72 282.66 122.24 282.25 121.48 281.6 120.8 281.09 120.54 
M 281.54 131.19 282.07 130.91 282.74 130.2 283.18 129.4 283.18 128.91 282.74 128.11 282.07 127.4 281.54 127.12 
M 281.79 138.06 282.33 137.78 283.02 137.06 283.47 136.25 283.47 135.75 283.02 134.93 282.33 134.22 281.79 133.94 
M 281.76 144.95 282.3 144.67 282.99 143.95 283.43 143.13 283.43 142.62 282.99 141.81 282.3 141.08 281.76 140.8 
M 281.2 158.68 282.2 157.78 282.63 156.97 282.63 156.46 282.2 155.65 281.54 154.94 281.03 154.66 
M 279.23 188.06 279.77 187.72 280.47 186.86 280.92 185.89 280.92 185.29 280.47 184.31 279.77 183.45 279.23 183.12 
M 279.92 196.48 280.47 196.14 281.17 195.26 281.62 194.27 281.62 193.66 281.17 192.67 280.47 191.79 279.92 191.45 
M 280.65 204.79 281.22 204.45 281.93 203.58 282.4 202.58 282.4 201.97 281.93 200.98 281.22 200.1 280.65 199.76 
M 283.46 210.78 283.46 210.35 282.97 209.33 282.22 208.42 281.63 208.07 
M 282.64 120.54 283.07 120.28 283.62 119.62 283.97 118.87 
M 283.24 127.32 283.68 127.04 284.24 126.33 284.6 125.53 284.6 125.03 284.24 124.22 283.68 123.51 283.24 123.23 
M 283.76 134.3 284.21 134.01 284.78 133.29 285.15 132.47 285.15 131.97 284.78 131.15 284.21 130.43 283.76 130.15 
M 283.87 141.15 284.32 140.87 284.89 140.16 285.26 139.34 285.26 138.84 284.89 138.03 284.32 137.31 283.87 137.03 
M 283.3 154.94 283.73 154.66 284.28 153.94 284.63 153.13 284.63 152.62 284.28 151.81 283.73 151.09 283.3 150.81 
M 280.91 183.46 281.35 183.13 281.9 182.29 282.26 181.33 282.26 180.88 
M 281.62 192 282.06 191.66 282.62 190.78 282.98 189.78 282.98 189.16 282.62 188.17 282.06 187.29 281.62 186.94 
M 282.34 200.36 282.79 200.02 283.36 199.14 283.72 198.15 283.72 197.53 283.36 196.54 282.79 195.66 282.34 195.31 
M 283.22 208.81 283.69 208.46 284.29 207.56 284.67 206.55 284.67 205.92 284.29 204.9 283.69 204.01 283.22 203.66 
M 284.98 123.61 285.52 123.34 286.21 122.65 286.65 121.87 286.65 121.39 286.21 120.61 285.52 119.92 284.98 119.65 
M 285.55 130.48 286.09 130.2 286.79 129.49 287.24 128.68 287.24 128.17 286.79 127.36 286.09 126.65 285.55 126.37 
M 285.85 137.38 286.4 137.1 287.1 136.38 287.55 135.57 287.55 135.07 287.1 134.26 286.4 133.54 285.85 133.26 
M 285.42 151.02 285.94 150.74 286.6 150.03 287.03 149.22 287.03 148.72 286.6 147.91 285.94 147.2 285.42 146.92 
M 284.81 157.79 285.31 157.51 285.96 156.8 286.37 156 286.37 155.5 285.96 154.7 285.31 153.99 284.81 153.72 
M 283.16 187.27 283.68 186.93 284.35 186.06 284.77 185.08 284.77 184.48 284.35 183.5 283.68 182.63 283.16 182.3 
M 284.8 204.28 285.34 203.93 286.04 203.03 286.48 202.01 286.48 201.37 286.04 200.35 285.34 199.45 284.8 199.1 
M 286.71 119.88 287.53 119.23 
M 287.33 126.68 287.8 126.4 288.39 125.69 288.78 124.88 288.78 124.38 288.39 123.57 287.8 122.86 287.33 122.58 
M 287.85 133.64 288.32 133.36 288.91 132.64 289.3 131.83 289.3 131.32 288.91 130.51 288.32 129.79 287.85 129.51 
M 287.91 140.43 288.37 140.16 288.96 139.45 289.34 138.64 289.34 138.15 288.96 137.34 288.37 136.64 287.91 136.36 
M 287.6 147.17 288.05 146.9 288.62 146.19 288.99 145.39 288.99 144.89 288.62 144.09 288.05 143.39 287.6 143.11 
M 287.08 153.93 287.5 153.66 288.04 152.95 288.39 152.16 288.39 151.66 288.04 150.86 287.5 150.16 287.08 149.88 
M 287.53 158.73 287.53 158.33 287.19 157.53 286.67 156.83 286.26 156.56 
M 285.42 191.08 285.85 190.74 286.4 189.85 286.75 188.84 286.75 188.22 286.4 187.21 285.85 186.33 285.42 185.98 
M 286.26 199.61 286.7 199.26 287.26 198.36 287.62 197.34 287.62 196.71 287.26 195.69 286.7 194.79 286.26 194.43 
M 287.39 208.34 287.85 207.98 288.43 207.05 288.8 205.99 288.8 205.34 288.43 204.29 287.85 203.36 287.39 202.99 
M 289.21 123.11 289.78 122.84 290.52 122.15 290.99 121.36 290.99 120.88 290.52 120.1 289.83 119.46 
M 289.79 130 290.37 129.72 291.11 129 291.59 128.19 291.59 127.69 291.11 126.88 290.37 126.16 289.79 125.88 
M 290.08 136.86 290.65 136.58 291.39 135.87 291.86 135.06 291.86 134.57 291.39 133.76 290.65 133.05 290.08 132.77 
M 289.88 143.53 290.44 143.25 291.15 142.56 291.62 141.77 291.62 141.28 291.15 140.49 290.44 139.8 289.88 139.52 
M 288.46 156.65 288.96 156.38 289.59 155.69 290 154.9 290 154.42 289.59 153.63 288.96 152.94 288.46 152.67 
M 286.99 186.38 287.51 186.04 288.17 185.16 288.6 184.18 288.6 183.57 288.17 182.58 287.51 181.71 286.99 181.37 
M 291.73 126.35 292.22 126.07 292.85 125.35 293.26 124.54 293.26 124.04 292.85 123.23 292.22 122.51 291.73 122.23 
M 292.27 133.32 292.76 133.04 293.4 132.32 293.81 131.51 293.81 131.01 293.4 130.19 292.76 129.48 292.27 129.2 
M 292.28 140.03 292.77 139.75 293.4 139.06 293.81 138.27 293.81 137.79 293.4 137 292.77 136.31 292.28 136.04 
M 290.19 198.84 290.63 198.48 291.19 197.57 291.55 196.53 291.55 195.89 291.19 194.85 290.63 193.94 290.19 193.58 
M 291.49 207.78 291.94 207.41 292.52 206.45 292.89 205.36 292.89 204.69 292.52 203.61 291.94 202.65 291.49 202.28 
M 293.73 122.9 294.33 122.63 295.11 121.94 295.61 121.15 295.61 120.67 295.18 119.99 
M 294.35 129.82 294.96 129.54 295.74 128.83 296.24 128.01 296.24 127.51 295.74 126.7 294.96 125.98 294.35 125.7 
M 294.62 136.64 295.23 136.37 296 135.67 296.51 134.87 296.51 134.38 296 133.58 295.23 132.88 294.62 132.61 
M 294.26 143.1 294.84 142.84 295.6 142.16 296.08 141.4 296.08 140.93 295.6 140.17 294.84 139.5 294.26 139.24 
M 292.07 155.44 292.57 155.18 293.21 154.51 293.62 153.76 293.62 153.29 293.21 152.53 292.57 151.86 292.07 151.6 
M 290.92 185.58 291.45 185.24 292.12 184.36 292.56 183.36 292.56 182.75 292.12 181.75 291.45 180.87 290.92 180.53 
M 291.73 194.16 292.26 193.81 292.94 192.9 293.38 191.88 293.38 191.24 292.94 190.22 292.26 189.32 291.73 188.96 
M 296.41 126.32 296.93 126.04 297.6 125.32 298.03 124.5 298.03 124 297.6 123.18 296.93 122.46 296.41 122.18 
M 296.98 133.3 297.5 133.02 298.17 132.31 298.61 131.5 298.61 130.99 298.17 130.18 297.5 129.46 296.98 129.18 
M 296.94 139.91 297.46 139.65 298.12 138.97 298.55 138.2 298.55 137.73 298.12 136.96 297.46 136.28 296.94 136.02 
M 296.08 145.98 296.56 145.73 297.19 145.1 297.59 144.37 297.59 143.92 297.19 143.2 296.56 142.56 296.08 142.31 
M 299.15 129.9 299.79 129.62 300.61 128.91 301.13 128.09 301.13 127.59 300.61 126.77 299.79 126.06 299.15 125.77 
M 299.4 136.67 300.03 136.4 300.85 135.71 301.37 134.93 301.37 134.44 300.85 133.66 300.03 132.96 299.4 132.69 
M 295.81 154.37 296.33 154.12 297 153.48 297.43 152.75 297.43 152.3 297 151.57 296.33 150.92 295.81 150.67 
M 294.33 176.45 294.86 176.11 295.47 175.35 
M 301.32 126.51 301.86 126.22 302.55 125.5 303 124.69 303 124.18 302.55 123.36 301.86 122.64 301.32 122.36 
M 301.89 133.49 302.43 133.21 303.12 132.49 303.57 131.68 303.57 131.18 303.12 130.37 302.43 129.66 301.89 129.38 
M 301.79 139.99 302.32 139.73 303 139.07 303.44 138.32 303.44 137.86 303 137.11 302.32 136.45 301.79 136.19 
M 296.82 156.8 297.26 156.55 297.82 155.88 298.18 155.13 298.18 154.67 297.82 153.91 297.26 153.25 296.82 152.99 
M 303.49 123.22 304.15 122.95 304.99 122.25 305.54 121.47 305.54 120.98 305.39 120.76 
M 304.12 130.14 304.78 129.86 305.62 129.15 306.16 128.34 306.16 127.84 305.62 127.03 304.78 126.31 304.12 126.03 
M 304.33 136.85 304.97 136.58 305.8 135.9 306.34 135.12 306.34 134.65 305.8 133.87 304.97 133.19 304.33 132.92 
M 303.62 142.88 304.25 142.63 305.05 142.01 305.57 141.3 305.57 140.86 305.05 140.15 304.25 139.52 303.62 139.28 
M 301.92 148.24 302.51 148.01 303.28 147.41 303.77 146.74 303.77 146.32 303.28 145.64 302.51 145.05 301.92 144.81 
M 298.44 160 298.99 159.72 299.69 159.01 300.14 158.21 300.14 157.71 299.69 156.9 298.99 156.19 298.44 155.91 
M 306.9 133.75 307.45 133.48 308.15 132.77 308.6 131.97 308.6 131.47 308.15 130.67 307.45 129.96 306.9 129.69 
M 306.72 140.16 307.26 139.91 307.94 139.26 308.39 138.52 308.39 138.07 307.94 137.34 307.26 136.69 306.72 136.44 
M 305.35 145.65 305.87 145.42 306.53 144.83 306.96 144.16 306.96 143.75 306.53 143.08 305.87 142.49 305.35 142.26 
M 300.96 156.18 301.45 155.93 302.06 155.27 302.46 154.53 302.46 154.07 302.06 153.33 301.45 152.68 300.96 152.42 
M 308.61 123.6 309.29 123.33 310.15 122.65 310.71 121.87 310.67 121.32 
M 309.18 130.46 309.84 130.18 310.69 129.47 311.24 128.67 311.24 128.18 310.69 127.37 309.84 126.67 309.18 126.39 
M 309.3 137.07 309.95 136.81 310.78 136.14 311.32 135.37 311.32 134.9 310.78 134.14 309.95 133.47 309.3 133.21 
M 303.43 183.91 303.99 183.56 304.71 182.68 305.18 181.68 305.18 181.06 304.71 180.05 303.99 179.17 303.43 178.82 
M 311.5 127.21 312.07 126.93 312.79 126.23 313.25 125.43 313.25 124.93 312.79 124.13 312.07 123.42 311.5 123.15 
M 311.94 134.03 312.48 133.76 313.18 133.07 313.64 132.28 313.64 131.79 313.18 131 312.48 130.3 311.94 130.03 
M 311.65 140.34 312.19 140.09 312.87 139.45 313.31 138.73 313.31 138.28 312.87 137.56 312.19 136.92 311.65 136.67 
M 310.2 145.76 310.73 145.54 311.41 144.95 311.86 144.29 311.86 143.88 311.41 143.22 310.73 142.63 310.2 142.4 
M 305.67 156.15 306.22 155.89 306.92 155.25 307.37 154.51 307.37 154.06 306.92 153.33 306.22 152.68 305.67 152.43 
M 309.87 203.25 309.87 202.59 309.47 201.45 308.84 200.44 308.35 200.04 
M 313.82 124.06 314.51 123.8 315.39 123.12 315.96 122.35 315.96 122.11 
M 314.27 130.79 314.94 130.52 315.79 129.82 316.35 129.04 316.35 128.55 315.79 127.76 314.94 127.07 314.27 126.8 
M 311.56 148.41 312.22 148.18 313.08 147.59 313.63 146.92 313.63 146.51 313.08 145.84 312.22 145.26 311.56 145.03 
M 309.38 153.68 310.07 153.44 310.95 152.82 311.52 152.12 311.52 151.69 310.95 151 310.07 150.38 309.38 150.14 
M 308.5 192.02 309.06 191.66 309.78 190.74 310.24 189.71 310.24 189.06 309.78 188.03 309.06 187.11 308.5 186.75 
M 316.68 127.61 317.25 127.34 317.98 126.65 318.45 125.87 318.45 125.39 317.98 124.61 317.25 123.92 316.68 123.65 
M 316.95 134.29 317.5 134.02 318.21 133.34 318.66 132.57 318.66 132.09 318.21 131.32 317.5 130.63 316.95 130.37 
M 316.55 140.51 317.09 140.26 317.77 139.62 318.22 138.9 318.22 138.46 317.77 137.74 317.09 137.1 316.55 136.85 
M 315.16 146.04 315.71 145.81 316.42 145.21 316.87 144.54 316.87 144.12 316.42 143.45 315.71 142.85 315.16 142.62 
M 313.04 151.18 313.63 150.95 314.39 150.35 314.87 149.68 314.87 149.27 314.39 148.59 313.63 148 313.04 147.77 
M 310.09 187.36 310.55 187.01 311.13 186.11 311.51 185.1 311.51 184.47 311.13 183.46 310.55 182.57 310.09 182.22 
M 311.17 196.25 311.64 195.88 312.26 194.93 312.65 193.85 312.65 193.18 312.26 192.1 311.64 191.14 311.17 190.77 
M 314.34 201.9 313.47 200.27 312.96 199.87 
M 319.12 124.6 319.83 124.34 320.74 123.68 321.3 122.96 
M 319.41 131.16 320.09 130.89 320.96 130.21 321.53 129.45 321.53 128.97 320.96 128.21 320.09 127.53 319.41 127.26 
M 319.26 137.54 319.93 137.28 320.77 136.63 321.32 135.89 321.32 135.43 320.77 134.68 319.93 134.03 319.26 133.77 
M 316.77 148.95 317.47 148.71 318.37 148.11 318.95 147.43 318.95 147 318.37 146.32 317.47 145.71 316.77 145.48 
M 313.19 160.45 313.93 160.19 314.87 159.53 315.48 158.77 315.48 158.3 314.87 157.55 313.93 156.88 313.19 156.62 
M 321.95 128.11 322.54 127.85 323.29 127.18 323.78 126.42 323.78 125.95 323.29 125.19 322.54 124.52 321.95 124.26 
M 322.04 134.61 322.61 134.35 323.34 133.68 323.8 132.93 323.8 132.46 323.34 131.71 322.61 131.04 322.04 130.78 
M 321.51 140.75 322.07 140.5 322.77 139.86 323.23 139.14 323.23 138.7 322.77 137.98 322.07 137.34 321.51 137.09 
M 320.29 146.5 320.86 146.26 321.6 145.65 322.07 144.95 322.07 144.52 321.6 143.82 320.86 143.21 320.29 142.97 
M 318.6 152.08 319.22 151.84 320.02 151.23 320.53 150.53 320.53 150.1 320.02 149.41 319.22 148.79 318.6 148.55 
M 316.78 157.8 317.44 157.55 318.27 156.91 318.81 156.19 318.81 155.75 318.27 155.03 317.44 154.39 316.78 154.14 
M 313.7 178.28 314.17 177.96 314.77 177.15 315.16 176.22 315.16 175.65 314.77 174.73 314.17 173.91 313.7 173.59 
M 314.22 186.79 314.68 186.43 315.27 185.53 315.65 184.5 315.65 183.86 315.27 182.83 314.68 181.93 314.22 181.57 
M 318.5 200.65 317.73 199.84 
M 324.58 125.29 325.31 125.04 326.39 124.23 
M 324.68 131.67 325.39 131.41 326.3 130.75 326.89 130 326.89 129.54 326.3 128.79 325.39 128.13 324.68 127.88 
M 324.39 137.93 325.08 137.67 325.97 137.03 326.54 136.29 326.54 135.84 325.97 135.1 325.08 134.46 324.39 134.2 
M 323.53 143.91 324.22 143.66 325.11 143.03 325.68 142.32 325.68 141.88 325.11 141.16 324.22 140.53 323.53 140.28 
M 322.22 149.74 322.95 149.5 323.88 148.87 324.49 148.16 324.49 147.72 323.88 147.02 322.95 146.39 322.22 146.14 
M 320.63 155.54 321.4 155.29 322.39 154.66 323.03 153.95 323.03 153.51 322.39 152.79 321.4 152.16 320.63 151.91 
M 317.31 167.55 318.01 167.28 318.89 166.61 319.46 165.84 319.43 165.31 
M 327.41 128.81 328.03 128.55 328.82 127.9 329.33 127.16 329.33 126.71 328.82 125.97 328.03 125.32 327.41 125.06 
M 327.33 135.14 327.93 134.89 328.69 134.23 329.18 133.5 329.18 133.04 328.69 132.3 327.93 131.65 327.33 131.4 
M 326.69 141.21 327.27 140.96 328.02 140.32 328.5 139.6 328.5 139.15 328.02 138.43 327.27 137.79 326.69 137.54 
M 325.63 147.19 326.23 146.94 327 146.3 327.49 145.58 327.49 145.13 327 144.41 326.23 143.77 325.63 143.52 
M 324.36 153.2 325 152.95 325.81 152.31 326.34 151.59 326.34 151.14 325.81 150.42 325 149.78 324.36 149.53 
M 320.89 164.8 321.51 164.55 322.31 163.91 322.82 163.2 322.82 162.75 322.31 162.03 321.51 161.4 320.89 161.15 
M 319.04 170.75 319.58 170.48 320.28 169.81 320.73 169.04 320.73 168.57 320.28 167.8 319.58 167.13 319.04 166.87 
M 318.05 177.8 318.54 177.5 319.17 176.72 319.57 175.83 319.57 175.28 319.17 174.39 318.54 173.61 318.05 173.31 
M 318.49 186.35 318.97 186 319.59 185.08 319.98 184.04 319.98 183.39 319.59 182.35 318.97 181.43 318.49 181.07 
M 330.24 126.2 331.01 125.95 331.66 125.54 
M 330.2 132.42 330.94 132.17 331.9 131.53 332.51 130.8 332.51 130.34 331.9 129.61 330.94 128.97 330.2 128.72 
M 329.78 138.58 330.51 138.33 331.44 137.68 332.04 136.96 332.04 136.51 331.44 135.78 330.51 135.14 329.78 134.89 
M 328.93 144.62 329.66 144.37 330.59 143.73 331.19 143 331.19 142.55 330.59 141.83 329.66 141.19 328.93 140.94 
M 324.71 162.43 325.46 162.19 326.43 161.56 327.06 160.85 327.06 160.41 326.43 159.71 325.46 159.08 324.71 158.84 
M 322.63 168.04 323.33 167.79 324.22 167.15 324.8 166.42 324.8 165.98 324.22 165.25 323.33 164.61 322.63 164.36 
M 320.97 174.3 321.6 174.02 322.42 173.3 322.94 172.49 322.94 171.99 322.42 171.18 321.6 170.47 320.97 170.19 
M 321.62 191.13 322.23 190.74 323 189.76 323.5 188.65 323.5 187.97 323 186.86 322.23 185.88 321.62 185.49 
M 333.13 129.77 333.77 129.52 334.6 128.88 335.13 128.16 335.13 127.72 334.6 126.99 333.77 126.36 333.13 126.11 
M 332.91 135.98 333.54 135.73 334.35 135.09 334.87 134.36 334.87 133.91 334.35 133.19 333.54 132.55 332.91 132.3 
M 332.18 141.99 332.8 141.74 333.6 141.1 334.11 140.38 334.11 139.93 333.6 139.21 332.8 138.57 332.18 138.32 
M 331.21 148.09 331.83 147.84 332.63 147.19 333.15 146.45 333.15 146 332.63 145.26 331.83 144.61 331.21 144.35 
M 330.16 154.33 330.79 154.08 331.61 153.42 332.13 152.69 332.13 152.23 331.61 151.49 330.79 150.84 330.16 150.59 
M 326.5 165.62 327.11 165.38 327.88 164.77 328.38 164.09 328.38 163.66 327.88 162.97 327.11 162.36 326.5 162.13 
M 324.1 170.99 324.65 170.74 325.37 170.1 325.83 169.37 325.83 168.92 325.37 168.2 324.65 167.56 324.1 167.31 
M 322.69 177.64 323.21 177.35 323.88 176.59 324.31 175.73 324.31 175.19 323.88 174.33 323.21 173.57 322.69 173.28 
M 323.05 186.19 323.56 185.83 324.22 184.91 324.65 183.86 324.65 183.22 324.22 182.17 323.56 181.25 323.05 180.89 
M 336.11 127.33 336.9 127.08 
M 335.96 133.44 336.72 133.2 337.71 132.56 338.34 131.84 338.34 131.4 337.71 130.68 336.72 130.04 335.96 129.79 
M 335.45 139.52 336.21 139.28 337.17 138.64 337.8 137.92 337.8 137.47 337.17 136.75 336.21 136.12 335.45 135.87 
M 330.34 163.31 331.07 163.07 332.01 162.46 332.62 161.76 332.62 161.34 332.01 160.64 331.07 160.03 330.34 159.79 
M 327.94 168.57 328.64 168.33 329.54 167.71 330.12 167.01 330.12 166.58 329.54 165.88 328.64 165.26 327.94 165.02 
M 325.93 174.48 326.6 174.21 327.46 173.51 328.01 172.73 328.01 172.24 327.46 171.45 326.6 170.76 325.93 170.49 
M 325.35 182.03 326 181.7 326.83 180.86 327.37 179.91 327.37 179.33 326.83 178.38 326 177.54 325.35 177.22 
M 339.04 130.95 339.69 130.7 340.52 130.07 341.06 129.36 341.06 128.92 340.52 128.21 
M 338.74 137.08 339.38 136.83 340.19 136.2 340.72 135.48 340.72 135.03 340.19 134.32 339.38 133.68 338.74 133.43 
M 337.97 143.06 338.6 142.81 339.41 142.18 339.93 141.46 339.93 141.01 339.41 140.29 338.6 139.66 337.97 139.41 
M 334.27 161.1 334.88 160.86 335.67 160.24 336.18 159.54 336.18 159.11 335.67 158.41 334.88 157.8 334.27 157.55 
M 331.91 166.28 332.5 166.05 333.27 165.45 333.76 164.77 333.76 164.36 333.27 163.68 332.5 163.08 331.91 162.85 
M 329.27 171.4 329.84 171.15 330.58 170.53 331.06 169.82 331.06 169.38 330.58 168.66 329.84 168.04 329.27 167.79 
M 327.68 177.89 328.25 177.59 328.97 176.84 329.44 175.99 329.44 175.47 328.97 174.62 328.25 173.87 327.68 173.58 
M 327.98 186.38 328.54 186.02 329.25 185.11 329.71 184.07 329.71 183.43 329.25 182.39 328.54 181.48 327.98 181.12 
M 341.77 134.52 342.53 134.28 343.5 133.65 344.13 132.94 344.13 132.5 343.5 131.79 342.53 131.17 341.77 130.93 
M 337.87 158.64 338.61 158.4 339.55 157.77 340.16 157.06 340.16 156.62 339.55 155.9 338.61 155.27 337.87 155.03 
M 335.84 164.08 336.56 163.84 337.49 163.24 338.09 162.55 338.09 162.13 337.49 161.44 336.56 160.84 335.84 160.6 
M 331.17 174.97 331.87 174.7 332.77 174.02 333.35 173.24 333.35 172.76 332.77 171.98 331.87 171.29 331.17 171.02 
M 330.5 182.43 331.2 182.1 332.09 181.28 332.67 180.34 332.67 179.76 332.09 178.83 331.2 178 330.5 177.68 
M 331.41 191.42 332.09 191.04 332.95 190.08 333.51 188.99 333.51 188.32 332.95 187.23 332.09 186.27 331.41 185.9 
M 344.87 132.03 345.5 131.79 346.32 131.17 346.84 130.48 346.84 130.23 
M 334.66 172.07 335.26 171.83 336.03 171.2 336.52 170.49 336.52 170.05 336.03 169.34 335.26 168.72 334.66 168.47 
M 333.06 178.53 333.66 178.24 334.43 177.49 334.93 176.65 334.93 176.13 334.43 175.28 333.66 174.54 333.06 174.25 
M 333.28 186.91 333.88 186.56 334.64 185.67 335.13 184.65 335.13 184.02 334.64 183.01 333.88 182.11 333.28 181.76 
M 345.8 147.36 346.52 147.11 347.43 146.47 348.02 145.74 348.02 145.29 347.43 144.57 346.52 143.93 345.8 143.68 
M 344.79 153.52 345.51 153.27 346.43 152.62 347.02 151.89 347.02 151.44 346.43 150.7 345.51 150.06 344.79 149.8 
M 338.76 169.93 339.48 169.69 340.4 169.08 340.99 168.39 340.99 167.96 340.4 167.27 339.48 166.66 338.76 166.42 
M 336.65 175.74 337.38 175.47 338.32 174.79 338.92 174.01 338.92 173.53 338.32 172.75 337.38 172.06 336.65 171.8 
M 335.97 183.14 336.7 182.82 337.63 182.01 338.23 181.09 338.23 180.52 337.63 179.6 336.7 178.78 335.97 178.47 
M 350.5 132.9 351.11 132.67 351.93 132.01 
M 349.88 138.73 350.46 138.49 351.21 137.87 351.7 137.18 351.7 136.75 351.21 136.06 350.46 135.45 349.88 135.21 
M 348.98 144.63 349.56 144.38 350.3 143.75 350.78 143.04 350.78 142.59 350.3 141.88 349.56 141.25 348.98 141 
M 340.21 172.92 340.82 172.67 341.6 172.04 342.1 171.33 342.1 170.89 341.6 170.17 340.82 169.54 340.21 169.29 
M 338.68 179.44 339.31 179.15 340.1 178.41 340.62 177.57 340.62 177.04 340.1 176.2 339.31 175.46 338.68 175.17 
M 338.84 187.67 339.45 187.34 340.24 186.47 340.74 185.48 340.74 184.88 340.24 183.89 339.45 183.02 338.84 182.69 
M 352.85 136.1 353.55 135.87 354.45 135.27 355.02 134.59 355.02 134.17 354.45 133.49 353.55 132.88 352.85 132.65 
M 350.17 154.21 350.87 153.96 351.76 153.3 352.34 152.56 352.34 152.1 351.76 151.36 350.87 150.71 350.17 150.46 
M 342.24 176.63 342.97 176.36 343.91 175.67 344.51 174.89 344.51 174.41 343.91 173.62 342.97 172.93 342.24 172.67 
M 341.57 183.99 342.3 183.68 343.24 182.88 343.85 181.98 343.85 181.42 343.24 180.51 342.3 179.71 341.57 179.4 
M 355.89 133.54 356.09 133.46 
M 354.17 145.1 354.74 144.86 355.45 144.23 355.92 143.51 355.92 143.07 355.45 142.36 354.74 141.72 354.17 141.48 
M 348.2 168.42 348.78 168.19 349.53 167.6 350.01 166.92 350.01 166.5 349.53 165.83 348.78 165.23 348.2 165 
M 358.07 136.59 358.74 136.36 359.6 135.76 360.16 134.91 
M 357.2 142.35 357.86 142.11 358.72 141.49 359.27 140.8 359.27 140.36 358.72 139.67 357.86 139.05 357.2 138.81 
M 356.28 148.41 356.95 148.16 357.8 147.51 358.35 146.78 358.35 146.33 357.8 145.59 356.95 144.95 356.28 144.69 
M 355.4 154.74 356.08 154.48 356.94 153.82 357.5 153.08 357.5 152.61 356.94 151.87 356.08 151.21 355.4 150.95 
M 354.18 160.82 354.86 160.58 355.74 159.94 356.3 159.22 356.3 158.78 355.74 158.06 354.86 157.42 354.18 157.18 
M 347.33 192.85 348 192.52 348.87 191.67 349.43 190.71 349.43 190.12 348.87 189.16 348 188.31 347.33 187.98 
M 360.23 139.61 360.78 139.37 361.49 138.77 361.94 138.09 361.94 137.67 361.49 136.99 360.78 136.39 360.23 136.16 
M 359.25 145.46 359.8 145.21 360.5 144.58 360.96 143.87 360.96 143.42 360.5 142.71 359.8 142.08 359.25 141.83 
M 358.4 151.75 358.95 151.49 359.66 150.83 360.12 150.07 360.12 149.61 359.66 148.85 358.95 148.18 358.4 147.92 
M 356.01 163.97 356.57 163.73 357.29 163.12 357.76 162.42 357.76 161.99 357.29 161.3 356.57 160.69 356.01 160.45 
M 349.78 189.04 350.34 188.72 351.06 187.9 351.52 186.97 351.52 186.4 351.06 185.47 350.34 184.66 349.78 184.34 
M 350.46 192.43 350.07 192.18 
M 363.12 136.91 364.2 136.37 
M 362.24 142.68 362.89 142.43 363.73 141.82 364.27 141.12 364.27 140.69 363.73 139.99 362.89 139.37 362.24 139.13 
M 361.33 148.76 361.99 148.5 362.83 147.85 363.37 147.12 363.37 146.66 362.83 145.93 361.99 145.28 361.33 145.02 
M 354.03 191.65 354.39 191.02 354.39 190.44 353.85 189.51 353.02 188.68 352.37 188.36 
M 365.22 139.88 365.76 139.65 366.45 139.04 366.89 138.36 366.89 137.94 366.31 137.13 
M 364.26 145.75 364.8 145.5 365.49 144.87 365.94 144.15 365.94 143.71 365.49 142.99 364.8 142.36 364.26 142.11 
M 363.42 152.06 363.97 151.8 364.66 151.13 365.11 150.37 365.11 149.91 364.66 149.15 363.97 148.48 363.42 148.22 
M 354.73 189.24 355.27 188.92 355.97 188.12 356.42 187.2 356.42 186.64 355.97 185.72 355.27 184.92 354.73 184.6 
M 367.2 142.92 367.84 142.67 368.66 142.06 369.2 141.35 369.2 140.92 368.66 140.22 367.84 139.6 367.2 139.36 
M 366.31 149.02 366.96 148.77 367.79 148.11 368.32 147.38 368.32 146.92 367.79 146.18 366.96 145.53 366.31 145.27 
M 362.32 166.98 363 166.74 363.86 166.14 364.42 165.45 364.42 165.02 363.86 164.34 363 163.73 362.32 163.49 
M 357.28 185.47 357.95 185.16 358.81 184.39 359.36 183.52 359.36 182.98 358.81 182.11 357.95 181.34 357.28 181.03 
M 359.24 190.47 358.8 189.74 357.96 188.92 357.3 188.6 
M 370.13 140.07 370.66 139.84 371.49 139 
M 369.19 145.96 369.72 145.71 370.4 145.08 370.84 144.36 370.84 143.91 370.4 143.19 369.72 142.56 369.19 142.31 
M 368.39 152.31 368.93 152.05 369.62 151.38 370.06 150.62 370.06 150.15 369.62 149.39 368.93 148.71 368.39 148.45 
M 361.23 175.1 361.8 174.85 362.54 174.21 363.02 173.48 363.02 173.03 362.54 172.3 361.8 171.66 361.23 171.41 
M 359.86 181.73 360.43 181.44 361.16 180.7 361.64 179.87 361.64 179.35 361.16 178.52 360.43 177.78 359.86 177.49 
M 359.75 189.51 360.31 189.2 361.04 188.4 361.5 187.49 361.5 186.93 361.04 186.03 360.31 185.23 359.75 184.91 
M 372.08 143.08 372.72 142.84 373.53 142.22 374.05 141.52 374.05 141.08 373.53 140.38 372.72 139.76 372.08 139.51 
M 371.23 149.23 371.87 148.97 372.69 148.32 373.22 147.57 373.22 147.11 372.69 146.37 371.87 145.71 371.23 145.45 
M 370.51 155.73 371.17 155.47 372.01 154.79 372.55 154.03 372.55 153.56 372.01 152.79 371.17 152.12 370.51 151.85 
M 369.48 162.01 370.16 161.75 371.03 161.11 371.58 160.37 371.58 159.92 371.03 159.18 370.16 158.54 369.48 158.28 
M 367.55 167.5 368.24 167.26 369.13 166.65 369.71 165.95 369.71 165.53 369.13 164.83 368.24 164.22 367.55 163.98 
M 362.49 185.94 363.19 185.64 364.09 184.87 364.67 184.01 364.67 183.47 364.09 182.6 363.19 181.84 362.49 181.54 
M 363.27 189.49 362.44 189.05 
M 374.04 146.1 374.56 145.85 375.24 145.21 375.67 144.49 375.67 144.04 375.24 143.31 374.56 142.68 374.04 142.43 
M 373.32 152.55 373.85 152.28 374.54 151.6 374.98 150.83 374.98 150.35 374.54 149.58 373.85 148.89 373.32 148.63 
M 365.26 182.4 365.87 182.11 366.64 181.38 367.15 180.55 367.15 180.04 366.64 179.21 365.87 178.48 365.26 178.19 
M 366.66 188.65 366.95 188.12 366.95 187.56 366.46 186.66 365.69 185.87 365.09 185.56 
M 376.92 143.2 377.55 142.95 378.35 142.33 378.84 141.66 
M 368.78 179.57 369.52 179.31 370.48 178.62 371.09 177.84 371.09 177.36 370.48 176.58 369.52 175.89 368.78 175.62 
M 367.99 186.7 368.73 186.41 369.67 185.65 370.29 184.79 370.29 184.26 369.67 183.4 368.73 182.64 367.99 182.34 
M 378.85 146.2 379.37 145.94 380.04 145.3 380.47 144.57 380.47 144.12 380.04 143.39 379.37 142.75 378.85 142.5 
M 378.23 152.78 378.76 152.5 379.44 151.81 379.88 151.02 379.88 150.53 379.44 149.74 378.76 149.04 378.23 148.77 
M 370.91 183.33 371.54 183.05 372.35 182.32 372.88 181.49 372.88 180.98 372.35 180.15 371.54 179.42 370.91 179.14 
M 371.88 187.33 371.31 186.78 370.69 186.47 
M 380.53 156.4 381.18 156.12 382.02 155.41 382.56 154.61 382.56 154.11 382.02 153.31 381.18 152.6 380.53 152.33 
M 379.91 163.09 380.59 162.83 381.47 162.14 382.03 161.37 382.03 160.89 381.47 160.12 380.59 159.44 379.91 159.17 
M 383.65 146.29 384.18 146.04 384.85 145.39 385.28 144.65 385.13 143.95 
M 382.12 166.63 382.7 166.37 383.45 165.71 383.93 164.96 383.93 164.49 383.45 163.74 382.7 163.08 382.12 162.82 
M 378.06 177.83 378.7 177.58 379.52 176.92 380.05 176.18 380.05 175.73 379.52 174.99 378.7 174.33 378.06 174.08 
M 376.72 184.43 377.37 184.14 378.19 183.41 378.73 182.59 378.73 182.08 378.19 181.25 377.37 180.52 376.72 180.24 
M 385.84 149.74 386.48 149.47 387.3 148.79 387.83 148.01 387.83 147.53 387.3 146.76 386.48 146.07 385.84 145.8 
M 380.56 184.98 379.51 184.47 
M 388.49 146.42 389.03 146.17 389.63 145.59 
M 388.07 153.25 388.61 152.97 389.3 152.24 389.75 151.42 389.75 150.91 389.3 150.09 388.61 149.37 388.07 149.08 
M 387.41 167.26 387.98 166.99 388.7 166.31 389.17 165.54 389.17 165.06 388.7 164.29 387.98 163.61 387.41 163.34 
M 390.79 149.99 391.44 149.72 392.29 149.03 392.83 148.24 392.83 147.76 392.29 146.97 391.44 146.28 390.79 146.01 
M 389.15 170.4 389.83 170.14 390.69 169.47 391.25 168.72 391.25 168.25 390.69 167.49 389.83 166.82 389.15 166.56 
M 387.5 176.38 388.22 176.12 389.13 175.46 389.72 174.71 389.72 174.25 389.13 173.5 388.22 172.84 387.5 172.58 
M 393.1 153.56 393.65 153.27 394.36 152.55 394.82 151.73 394.82 151.22 394.36 150.4 393.65 149.68 393.1 149.39 
M 389.44 179.87 390.04 179.61 390.81 178.92 391.3 178.15 391.3 177.67 390.81 176.9 390.04 176.22 389.44 175.95 
M 395.89 150.37 396.57 150.1 397.43 149.41 397.98 148.65 
M 395.13 164.24 395.77 163.96 396.58 163.25 397.1 162.44 397.1 161.95 396.58 161.14 395.77 160.43 395.13 160.15 
M 392.77 177 393.45 176.74 394.31 176.05 394.87 175.28 394.87 174.8 394.31 174.02 393.45 173.34 392.77 173.07 
M 393.82 181.28 393.27 180.53 392.35 179.81 391.63 179.53 
M 395.91 173.93 396.43 173.66 397.11 172.98 397.54 172.2 397.54 171.72 397.11 170.95 396.43 170.26 395.91 170 
M 394.73 180.53 395.3 180.25 396.03 179.54 396.5 178.73 396.5 178.23 396.03 177.43 395.3 176.71 394.73 176.44 
M 399.9 164.23 400.52 163.96 401.32 163.27 401.84 162.48 401.84 161.99 401.32 161.2 400.52 160.5 399.9 160.23 
M 397.8 177.39 398.46 177.11 399.3 176.4 399.84 175.59 399.84 175.09 399.3 174.28 398.46 173.57 397.8 173.29 
M 397.31 180.26 397.02 180.14 
M 401.67 178.95 401.67 178.67 401.2 177.82 400.47 177.08 399.9 176.78 
M 402.83 177.78 403.51 177.49 404.37 176.75 404.93 175.91 404.93 175.39 404.37 174.55 403.51 173.81 402.83 173.52 
M 408.66 154.85 409.21 154.58 409.93 153.9 410.34 153.2 
M 407.76 161.19 408.31 160.93 409.02 160.26 409.48 159.5 409.48 159.03 409.02 158.27 408.31 157.6 407.76 157.34 
M 405.9 177.68 405.18 177.26 
M 409.73 164.58 410.41 164.31 411.27 163.63 411.83 162.86 411.83 162.38 411.27 161.61 410.41 160.93 409.73 160.66 
M 410.33 176.28 410.33 175.94 409.74 175.08 408.83 174.31 408.11 174.01 
M 413.69 155.21 414.46 154.7 
M 411.73 167.98 412.31 167.71 413.06 167.02 413.55 166.23 413.55 165.75 413.06 164.96 412.31 164.27 411.73 164 
M 410.94 174.99 411.55 174.69 412.32 173.94 412.82 173.09 412.82 172.56 412.32 171.71 411.55 170.96 410.94 170.67 
M 418.14 162.24 418.7 161.96 419.42 161.26 419.88 160.46 419.88 159.96 419.42 159.16 418.7 158.46 418.14 158.18 
M 420.8 158.97 421.43 158.68 422.49 157.55 
M 420.31 165.85 421 165.56 421.87 164.84 422.44 164.02 422.44 163.51 421.87 162.69 421 161.97 420.31 161.68 
M 422.2 172.44 422.15 172.42 
M 425.53 159.09 426.14 158.79 
M 425.44 166.34 426.09 166.04 426.93 165.29 427.46 164.43 427.46 163.9 426.93 163.05 426.09 162.29 425.44 162 
M 428.04 162.91 428.54 162.61 429.19 161.82 429.61 160.93 429.61 160.38 429.38 159.88 
M 431.88 163.45 430.91 162.33 430.29 162.02 
M 147.83 125.73 147.83 125.74 
M 152.6 124.57 153.77 105.46 155.71 103.21 158.16 101.47 160.86 99.98 163.04 97.99 164.6 95.39 166.72 93.37 171.68 85.85 173.47 83.48 176.27 82.19 179.29 81.15 182.05 79.84 184.28 77.96 186.99 76.47 189.28 74.57 190.99 72.09 193.92 70.91 196.28 69.21 199.57 69.63 202.27 69.46 203.52 66.52 205.06 63.91 208.97 60.21 212.08 55.52 214.94 54.72 220.38 52.62 222.35 50.76 224.64 49.14 226.8 47.33 230.33 46.87 237.65 48.85 242.53 46.23 244.5 44.08 250.8 37.93 256.4 35.96 259.45 35.22 261.8 33.54 264.59 32.3 266.85 30.54 269.74 30 273.33 31.48 275.93 31.88 277.9 31.48 281.34 32.57 284.57 33.35 290.73 33.58 293.15 33.26 296.4 33.95 300.33 35.33 306.16 36.72 307.99 36.87 310.17 38.66 311.92 40.97 318.77 51.71 319.22 53.77 321.01 57.21 321.91 60.13 322.42 62.68 323.21 63.83 325.45 65.07 328.52 66.36 331.46 67.34 334.02 69.85 341.15 79.06 346.22 82.84 348.18 85.89 347.9 88.36 348.87 97.6 348.29 99.79 348.52 104.02 338.39 127.54 
M 333.09 125.89 333.08 125.89 
M 152.64 124.56 153.66 123.85 154.59 121.99 155.55 119.04 155.39 116.16 154.95 113.14 
M 157.45 123.38 158.73 122.19 159.78 117.7 160.53 115.4 160.28 111.88 159.51 108.77 160.31 104.43 160.31 101.97 
M 162.3 122.42 163.69 120.69 164.75 118.19 164.95 115.23 165.02 109.19 165.47 106.45 166.11 105.25 166.64 103.27 
M 167.21 121.72 168.83 119.64 169.78 117 170.89 108.66 170.76 105.85 171.51 104.71 171.44 102.28 
M 172.11 121.03 174.12 119.57 175.28 117.5 175.53 114.72 175.6 110.92 175.15 107.97 175.47 105.25 176.18 103.12 177.85 101.4 178.74 98.71 178.78 93.6 179.58 91.1 
M 177.05 120.69 178.87 119.41 180.38 117.18 180.64 114.09 180.18 111.14 179.91 108.01 182.29 101.96 183.55 100.51 184.06 97.83 185.2 89.81 186.99 88.17 189.02 85.22 189.75 81.57 191.31 78.72 
M 181.99 120.39 183.34 118.49 184.12 116.23 184.62 113.92 185.45 111.37 187.02 105.56 187.52 102.63 187.41 99.57 188.32 96.37 190.65 93.73 190.56 92.05 192.07 86.98 193.08 83.91 194.62 81.58 
M 186.93 120.05 187.84 118.22 188.4 115.76 189.64 113.31 190.66 110.55 191.61 104.98 191.45 101.89 193.02 96.76 
M 191.86 119.67 192.97 117.96 193.77 115.33 195.07 112.72 196.11 109.28 196.76 106.18 197.02 103.89 196.53 99.74 197.54 96.3 199.69 93.36 201.54 91.43 202.3 88.42 202.86 84.33 203.28 77.1 204.02 76.14 204.74 74.13 
M 196.8 119.29 200.1 112.03 201.47 105.75 201.64 103.06 201.59 100.85 203.83 92.21 204.2 89.11 
M 201.7 118.57 202.58 116.56 205.16 108.36 205.58 105.42 207.48 98.07 206.59 94.07 207.03 91.01 207.62 88.39 207.74 84.46 209.03 81.11 211.07 79.41 211.21 76.88 210.61 73.85 210.12 69.19 210.74 66.78 211.93 65.19 212.44 62.85 
M 206.59 117.83 207.75 115.79 208.26 112.77 209.03 110.06 210.31 107.74 210.8 104.85 210.72 102.45 211.31 100.3 211.59 97.27 211.53 91.14 212.98 85.52 214.33 81.89 214.42 76.52 214.69 73.75 213.53 70.77 213.86 68.16 214.72 64.77 215.81 61.32 216.13 58.29 215.32 56.42 215.31 54.76 
M 211.49 117.11 212.83 114.59 213.27 112.2 215.03 107.12 215.22 104.65 215.2 101.89 215.6 99.7 216.52 96.79 216.76 94.45 216.65 91.6 219.02 80.71 219.17 77.43 219.55 74.76 220.3 73.05 220.38 71.62 219.99 63.34 221.03 59.58 221.04 57.27 222.45 56.21 222.59 55.14 
M 216.4 116.43 217.92 114.17 219.49 109.58 220.14 104.36 220.51 98.65 221.32 95.85 222.36 93.32 222.6 90.96 223.49 87.31 223.88 83.45 223.36 77.07 223.68 75.04 224.39 73.69 226.01 71.33 226.24 68.12 226.76 64.52 227.03 57.55 228.56 55.49 230.09 52.79 231.01 48.54 
M 221.3 115.75 222.51 113.83 223.28 111.4 224.57 105.62 224.68 103.15 225.33 101.01 225.9 98.18 226.29 95.14 229.49 88.37 229.67 85.98 228.13 82.61 227.83 79.04 228.4 75.85 231.28 72.3 232.82 69.08 232.19 66.97 232.29 63.44 234.18 57.25 235.23 55.19 235.35 51.19 
M 226.22 115.25 227.32 113.62 228.82 107.55 230.25 102.87 230.4 100.01 230.92 97.17 232.33 94.34 233.05 90.86 233.33 87.18 233.93 84.77 233.37 82.18 233.56 79.04 235.76 73.32 238.19 68.32 238.89 59.52 240.71 57.3 
M 231.15 114.79 232.42 112.91 233.45 110.46 237.66 95.52 238.21 91.04 238.61 85.11 239.22 81.99 240.45 79.87 240.97 76.21 243.04 70.91 243.51 67.93 243.61 64.82 244.64 61.74 246.36 58.88 246.89 56.19 248.4 53.73 
M 236.09 114.49 237.53 112.51 238.7 110.14 239.57 107.66 240.12 104.35 240.93 101.34 241.96 98.87 242.52 96.41 243.41 93.55 243.44 91.38 243.94 89.35 245.34 86.1 248.7 79.55 249.08 76.4 
M 241.05 114.47 242.47 112.36 244.88 104.08 245.54 101.17 246.78 98.58 248.09 93.96 249.65 91.92 251.73 85.81 253.08 82.95 254.81 80.17 255.49 77.36 256.94 74.14 
M 246 114.45 247.42 112.26 251.11 104.46 251.71 102.12 253.76 97.59 255.66 94.8 257.15 91.51 260.27 83.29 260.75 80.53 262.16 78.09 264.57 72.01 265.94 69.74 266.24 66.79 267.09 64.34 268.54 62.22 269.33 59.35 269.72 56.56 269.56 52.22 270.02 48.67 272.74 46.09 275.4 44.24 
M 250.93 114.81 253.05 112.75 254.69 110.39 256.29 107.27 257.26 104.7 258.18 103.08 258.79 100.83 259.92 97.89 261.8 95.43 263.25 92.27 264.24 88.88 264.7 86.08 265.78 82.88 268.6 77.18 270.34 74.33 272.54 71.91 273.6 69.08 274.22 65.37 275.26 63.41 276.83 61.19 277.75 57.79 279.41 53.76 280.96 51.23 282.03 48.37 282.68 45.86 283.92 43.86 
M 255.87 115.21 258.07 113.11 259.76 110.73 261.96 106.1 262.5 103.57 263.88 100.52 265.65 97.91 267.86 92.44 271.05 86.92 271.51 84.22 272.51 81.9 272.71 78.91 274.04 76.95 275.99 75.5 277.44 73.16 
M 260.79 115.72 262.79 113.58 264.27 111.56 267.26 106.91 270.39 98.42 271.9 96.07 275.97 90.58 277.6 87.68 278.02 85.45 278.81 83.76 279.29 81.09 282.57 75.35 
M 265.7 116.41 267.77 114.55 270.51 110.12 271.72 107.87 272.99 105.29 274.11 102.33 275.51 99.75 276.84 97.76 279.18 94.85 281.25 91.43 282.57 88.28 283.09 85.23 284.11 83.3 285.15 80.75 286.7 77.87 289.19 76.41 291.13 73.11 292.44 70.06 294.14 67.07 293.45 64.65 
M 270.6 117.1 272.41 115.48 275.42 110.78 277.03 108.54 278.32 105.87 279.36 102.78 283.94 95.16 285.04 92.13 284.92 88.54 286.5 86.07 288.87 84.52 290.55 82.56 291.82 80.6 293.43 77.51 294.33 74.47 296.92 70.67 298.76 67.41 
M 275.51 117.76 277.21 116.04 281.63 108.57 282.73 105.96 284.31 103.66 286.25 101.82 287.98 99.44 288.82 96.82 289.48 93.11 290.56 90.19 292.22 87.64 294.55 85.66 297.38 81.91 300.02 75.46 301.88 71.75 303.31 69.07 304.62 67.9 305.76 65.81 305.43 63.89 
M 280.41 118.41 282.31 116.83 285.08 111.84 286 108.4 287.04 105.64 289.25 103.88 292.3 99.38 293.81 96.26 295.28 94.17 297.7 91.19 298.98 88.71 299.71 85.82 300.47 84.18 302.73 82.14 305.01 76.27 306.73 73.13 308.87 70.88 309.77 68.13 311.11 65.82 309.72 64.39 
M 285.33 119.01 287.32 117.39 288.84 115.14 290.05 112 290.92 109.24 292.18 107.39 296.37 102.49 297.37 99.76 298.62 97.16 301.66 91.79 303.28 89.67 305 86.04 306.36 82.63 307.28 79.57 310.99 73.43 
M 290.25 119.5 292.1 117.38 293.75 114.78 295.43 112.86 298.15 108.59 299.65 105.87 300.9 103.01 301.42 100.1 303.81 94.83 305.34 93 
M 295.18 119.99 297.2 117.71 298.59 115.2 301.74 111.04 303.66 109.34 304.78 106.53 305.31 103.27 305.54 99.54 306.81 96.38 309.1 93.53 311.07 91.89 312.49 89.02 313.88 84.84 315.96 82.03 316.8 78.45 318.32 76.87 318.8 75.39 319.39 71.56 
M 300.12 120.38 302.28 118.65 305.23 113.95 307.04 111.63 308.47 109.46 309.56 106.65 310.33 102.99 311.09 100.62 312.67 98.86 313.09 95.7 314.22 93.49 315.86 91.42 
M 305.05 120.74 307.18 119.13 308.59 116.69 314.69 107.53 315.95 104.64 316.76 101.89 317.04 98.7 318.9 96.42 
M 309.98 121.22 312.09 119.72 313.42 117.39 315.09 115.46 318.45 110.77 320.38 108.4 321.37 104.72 322.55 101.55 323.37 98.79 325.55 96.06 328.48 93.16 328.94 91.24 331.43 88.68 333.5 82.71 336.46 77.85 
M 314.88 121.95 316.98 120.64 320.48 116.14 322.1 113.7 324.26 110.86 328.31 103.07 330.08 100.32 330.88 97.76 331.66 96.14 333.59 93.94 335.92 92.43 337.82 89.64 338.61 87.3 
M 319.77 122.68 322.37 121.25 328.39 113.52 333.92 108 335.1 105.76 335.77 101.54 
M 324.6 123.78 327.42 122.6 329.56 120.32 332.76 116.51 335.08 114.66 337.58 112.8 340.64 111.54 341.93 108.63 341.76 104.94 342.7 103.06 
M 329.4 124.98 332.44 123.79 334.12 121.9 335.02 120.54 336.82 118.96 339.05 116.2 
M 128.29 161.62 141.73 160.09 145.01 159.97 154 159.26 157.4 159.29 165.79 158.15 174.91 157.35 177.79 157.36 180.49 157.03 183.49 156.26 186.81 155.93 189.72 155.82 201.62 156.01 207.41 155.28 216.61 155.9 223.22 155.59 226.47 155.19 229.22 155.38 234.33 155.02 240.46 155.57 243.33 155.5 246.02 155.06 249.17 155.51 258.79 156.07 269.73 157.99 276.15 158.01 278.87 158.23 282.06 158.84 285.9 158.64 288.89 158.81 291.2 159.44 294.02 159.23 296.78 159.95 310.14 161.83 316.26 163.43 319.07 163.62 322.12 164.06 300.97 173.94 294.92 175.49 289.64 177.8 287.39 179.35 284.39 180.14 278.76 182.1 275.82 182.94 272.65 183.56 269.74 184.43 266.48 184.95 263.44 185.69 258.86 188.6 256.59 189.73 253.19 189.72 247.07 190.39 244.25 190.97 241.7 191.81 235.13 191.81 232.13 191.96 226.64 192.75 220.4 192.8 214 192.56 208.29 192.85 205.12 192.67 202.26 192.8 199.08 192.62 187.89 192.57 184.77 192.08 179.21 191.78 173.12 190.89 160.87 188.46 154.01 187.87 133.97 181.74 130.63 178.99 128.33 177.82 
M 128.72 163.37 157.43 162.11 163.36 162.13 165.99 161.63 178.1 161.37 183.67 160.65 186.67 160.42 192.59 161.47 195.68 161.83 201.46 161.77 208.15 161.02 210.99 161.71 220.48 162.75 229.33 162.97 232 163.25 234.62 163.31 237.43 163.9 240.62 164.2 246.5 164.08 249.79 164.47 253.5 165.21 259.21 165.65 262.38 166.29 264.24 167.23 267.19 167.95 270.06 167.86 273.1 168.69 275.15 169.45 282.35 169.56 
M 132.55 165.2 148.37 165.16 157.39 165.55 169.09 165.52 178.55 165.99 186.71 165.91 189.49 166.16 192.73 166.87 196.48 166.95 199.61 167.26 202.28 167.72 
M 129.48 166.97 138.66 167.22 148.54 167.87 154.56 168.43 157.52 168.91 160.47 168.97 163.43 169.3 168.68 169.37 175.75 170.16 184.65 170.76 187.14 171.32 193.76 171.7 199.48 172.9 204.54 174.24 
M 129.61 168.68 135.64 169.15 148.1 170.77 157.94 171.77 160.9 172.25 163.2 172.89 165.69 172.99 175.49 174.72 178.56 174.92 184.01 176.18 186.62 176.45 198.39 179.69 204.63 181.77 211.27 183.62 214.15 183.42 217.08 183.93 219.66 184.62 225.14 186.6 
M 128.44 170.18 132.57 170.95 138.37 171.72 144.85 173.41 157.94 175.1 160.66 175.59 162.91 176.47 165.51 176.98 168.59 177.3 171.65 178.62 179.9 180.83 185.79 182.13 188.82 183.52 
M 128.33 172.02 132.55 172.93 147.74 177.11 154.48 178.05 157.49 178.64 162.08 180.57 165.09 181.03 168.73 181.97 171.24 183.35 175.97 185.6 178.44 186.58 
M 128.45 173.87 132.38 175.28 138.07 176.85 141.47 177.99 150.94 181.74 154.01 182.07 157.97 184.18 161.24 185 164.55 186.07 167.79 187.81 
M 128.42 175.75 129.79 176.29 132.43 177.81 138.05 179.67 141.66 181.65 
M 147.83 201.16 150.69 204.83 155.76 209.99 158.95 212.75 160.88 215.67 161.92 218.35 164.37 221.13 166 223.95 168.05 225.76 170.59 227.7 173.2 231.02 174.51 234.45 177.81 237.9 175.15 243.38 173.64 245.83 173.59 249.75 173.06 253.26 170.03 258.35 164 260.7 161.78 262.68 158.21 267.52 156.3 269.81 154.02 271.72 150.6 272.31 147.42 274.11 140.39 280 140.78 275.9 140.12 274.72 138.94 271.46 138.86 268.62 139.19 264.17 138.56 260.08 138.71 253.55 139.21 250.88 140.36 246.95 138.46 241.5 136.92 239.57 136.78 236.21 137.88 232.9 137.03 224.88 137.43 221.82 137.17 219.24 136.56 206.95 136.05 200.67 135.48 197.3 
M 145.94 200.56 148.25 204.61 150.18 207.55 154.59 212.89 157.32 215.44 159.08 218.31 160.22 221.22 161.15 224.73 162.86 227.89 
M 144.05 199.97 147.6 207.38 151.05 213.38 155.25 218.71 156.22 221.63 156.89 225.02 157.45 229.33 159.29 232.06 162.33 233.41 164.61 235.17 165.54 238.85 168.32 243.43 170.47 245.6 
M 142.16 199.38 143.81 202.98 144.94 206.4 146.44 210.13 149.72 217.03 151.85 222.67 153.57 225.4 153.88 228.42 155.87 231.92 157.77 234.5 158.75 238.36 161.29 241.38 162.14 243.34 
M 140.27 198.79 142.64 205.32 143.74 209.23 144.97 212.86 146.48 216.67 148.05 223.24 149.94 226.19 152.03 228.84 152.6 231.68 152.77 233.85 154.29 235.06 155.24 237.6 154.69 241.69 155.18 244.59 156.18 245.98 
M 138.38 198.2 140.35 204.72 143.12 215.19 143.3 218.36 143.69 220.95 145.19 224.35 147.03 227.91 148.16 230.78 148.38 234.98 148.86 238.3 148.71 241.23 150.6 244.8 151.31 248.21 152.79 250.56 154.29 254.32 154.84 258.68 154.87 261.03 153.46 264.34 
M 136.49 197.61 137.35 200.9 138.44 207.27 138.74 210.58 139.58 213.88 140.14 217.32 140.33 219.44 140.25 222.35 140.99 225.15 141.66 228.92 142.64 233 142.18 236.03 142.43 238.75 143.83 241.81 144.96 245.37 145.23 248.91 145.94 251.2 146.65 254.49 145.95 257.87 146.09 261.52 145.57 265.64 146.38 269.51 
M 370.13 190.39 375.67 194.73 381.5 200.59 376.17 205.02 374.52 207.49 372.6 209.69 371.16 212.4 369.41 214.84 367.42 217.04 365.04 218.87 363.22 221.23 360.46 222.45 357.09 222.89 353.95 223.63 351.83 225.69 349.09 226.82 347.03 228.25 344.95 230.32 335.51 231.94 332.87 232.77 330.33 232.93 327.78 232.15 325.82 231.97 322.69 232.26 319.87 232.87 316.22 232.11 313.13 231.9 309.75 231.28 305.22 230.7 291.67 227.11 290.9 224.35 289.19 220.41 283.68 215.57 
M 365.36 191.72 369.68 195.13 372.81 198.01 
M 360.59 193.04 364.33 196.32 369.55 202.28 
M 355.81 194.31 358.95 197.49 362.05 201.54 364.82 204.84 370.46 210.64 371.53 212.65 
M 351 195.5 357.73 202.47 360.03 205.99 
M 346.2 196.69 349.41 200.28 352.82 203.64 355.86 206.29 359.97 211.84 361.42 214.92 363.44 218.01 
M 341.42 198 347.52 204.31 350.29 207.6 355.85 212.4 
M 336.65 199.33 339.72 202.89 342.69 205.18 345.56 208.18 347.49 211.66 350.6 216.67 353.28 219.45 
M 331.89 200.68 334.93 204.43 337.63 207.3 340.12 209.45 342.68 212.89 344.18 215.4 346.1 216.66 348.15 219.22 
M 327.15 202.11 330.5 205.58 332.77 208.22 335.62 210.32 338.26 212.94 
M 322.41 203.53 326.09 206.66 329.07 209.45 331.14 212.22 333.48 214.07 
M 317.69 205.02 323.9 211.17 326.98 213.37 329.07 215.92 331.6 217.94 334.11 221.33 
M 312.98 206.55 316.4 210.2 318.61 213.39 321.01 216.16 326.91 220.61 
M 308.27 208.08 311.59 212.1 313.59 215.28 315.45 219.03 318.48 221.51 321.98 222.69 
M 303.56 209.62 307.51 214.37 310.27 217.12 311.9 219.55 314.87 222.86 
M 298.86 211.16 306.32 218.54 308.4 221.53 310.25 223.67 313.68 224.76 315.58 226.04 317.23 229.99 
M 294.13 212.62 297.25 215.3 303.5 221.94 
M 289.36 213.96 293.09 216.87 295.67 220.44 299.81 226.97 302.87 228.32 
M 431.88 160.73 436.6 157.66 439.29 155.5 441.67 152.48 444.19 150.17 445.68 148.12 447.66 146.52 449.84 145.1 452.43 144.32 459.53 140.62 463.74 139.86 466.85 138.92 478.76 137.77 483.48 134.66 484.13 145.72 482.03 147.66 478.37 156.11 476.15 158.09 474.44 160.49 471.84 161.98 468.83 163.07 466.29 164.64 464.63 167.07 461.23 166.79 454.93 166.73 451.9 166.83 449.11 167.16 451.51 169.2 456.11 171.19 459.55 173.33 469.77 179.11 476.06 183.37 478.35 184.64 480.27 187.32 483.52 192.93 481.67 205.82 477.9 203.36 475.35 202.08 467.44 202.04 464.2 201.51 460.48 199.82 458.02 197.25 454.98 193.56 452.71 191.79 449.72 189.87 447.72 189.04 445.33 187.08 443.03 184.45 440.79 181.55 438.43 179.35 436.98 176.71 431.88 169.7 
M 431.88 161.86 434.45 161 440.61 157.64 449.73 151.17 452.7 149.77 456.02 148.61 459.8 148.43 464.52 147.95 467.75 147.43 473.3 147.44 
M 438.34 161.47 441.49 159.72 448.19 158.15 449.61 158.03 451.72 156.9 454.54 156.32 459.68 157.04 
M 438.54 164.61 446.22 162.54 452.78 164.03 454.81 163.62 
M 439.08 169.49 443.56 168.02 
M 435.81 169.29 438.91 170.83 442.55 171.15 446.07 172.25 452.64 173.35 
M 431.88 167.48 435.52 170.58 438.78 172.56 441.96 173.67 444.59 175.45 446.97 176.43 456.05 180.94 458.39 181.13 
M 435.18 172.03 440.47 176.57 445.74 180.52 448.29 182.65 456.17 186.65 458.16 187.94 461.63 190.85 464.66 192.82 473.25 192.74 477.33 192.4 481.32 192.81 
M 405.47 176.91 401.36 177.82 400.08 179.32 397.88 182.6 395.85 183.08 392.15 181.7 390.16 181.59 386.46 182.85 385.15 184.32 383.67 185.63 381.44 187.22 382.48 186.64 
M 45.14 170.94 45.71 170.06 47.14 168.72 49.16 167.29 52.02 165.64 70.91 156.14 87.68 148.22 97.87 143.69 102.12 141.86 110.76 138.73 114.58 140.83 120.05 145.68 122.51 148.17 125.72 153.52 126.48 156.39 128.43 162.03 129.06 164.92 128.8 168.02 128.27 171.18 128.47 174.17 127.93 183.41 127.11 186.63 125.66 189.99 123.18 193.71 112.17 194.22 104.11 194.32 96.83 194.08 90.09 193.54 77.65 192.13 72.26 191.15 67.28 189.97 62.95 188.59 
M 57.35 185.68 55.7 184.58 
M 105.56 156.95 106.14 159.39 106.41 161.79 106.04 164.21 104.8 166.68 103.38 169.05 102.82 171.1 102.53 173.01 102.71 174.77 103.66 178.49 103.99 180.75 103.67 183.52 91.07 184.43 85.87 184.68 80.68 184.72 75.39 184.59 70.37 184.21 65.76 183.41 
M 61.24 188.25 52.26 182.34 48.05 179.2 44.11 176.62 42.31 174.98 42.16 172.51 43.89 170.79 46.22 171.06 49.87 174.44 55.01 180.12 63.18 188.31 
M 60.33 189.72 55.52 190.63 43.76 193.47 39.16 194.35 36.86 193.53 35.86 191.11 37.1 188.84 39.46 188.24 61.31 188.25 
M 62.6 188.23 62.83 188.22 
M 72.21 179.75 69.6 176.09 68.32 171.78 68.5 167.29 70.14 163.11 73.04 159.68 76.9 157.38 81.3 156.46 85.76 157.01 89.79 158.99 92.97 162.16 94.94 166.2 95.5 170.66 94.58 175.06 92.28 178.92 88.85 181.82 84.66 183.45 80.17 183.64 75.87 182.36 72.21 179.75 
M 90.75 163.75 92.33 166.98 92.77 170.55 92.03 174.06 90.19 177.15 87.45 179.47 84.1 180.78 80.51 180.93 77.07 179.9 74.14 177.81 
M 77.26 173.21 76.21 171.75 75.7 170.03 75.78 168.23 76.43 166.56 77.59 165.19 79.13 164.27 80.89 163.9 82.68 164.12 84.29 164.91 85.56 166.18 86.35 167.79 86.57 169.58 86.2 171.34 85.28 172.88 83.91 174.04 82.24 174.69 80.44 174.77 78.72 174.26 77.26 173.21 
M 77.73 171.45 81.02 174.74 
M 78.89 169.94 83.25 174.3 
M 79.22 167.59 84.86 173.24 
M 80.42 166.12 85.99 171.69 
M 80.95 163.98 86.57 169.6 
M 48.07 168.06 53.6 173.6 
M 51.75 165.8 57.69 171.74 
M 55.73 163.84 59.09 167.2 
M 59.7 161.87 64.06 166.23 
M 63.65 159.88 68.55 164.78 
M 67.58 157.87 71.37 161.65 
M 71.51 155.85 74.48 158.82 
M 75.54 153.95 78.61 157.02 
M 79.56 152.03 84.38 156.84 
M 83.6 150.12 87.6 154.12 
M 87.65 148.23 92.72 153.3 
M 91.78 146.42 96.45 151.09 
M 95.89 144.59 101.06 149.76 
M 100.01 142.77 105.34 148.1 
M 104.23 141.05 109.26 146.08 
M 108.63 139.5 112.83 143.71 
M 63.51 164.46 63.53 167.56 63.15 168.91 62.15 171.15 
M 83.62 152.11 82.76 150.51 
M 110.61 150.94 111.32 148.01 112.55 146.88 112.85 146.22 
M 100.98 148.63 101.54 147.37 101.69 146.03 101.29 144.66 100.56 144 
M 67.12 162.07 66.93 162.8 67.11 163.89 68.76 166.64 
M 116.45 192.72 112.81 193.33 110.34 193.15 109.84 192.67 109.36 191.1 
M 122.17 149.15 122.84 148.71 
M 115.08 155.98 117.59 154.35 118.99 152.29 119.16 151.6 
M 109.27 161.76 107.71 163.02 107.5 163.53 107.58 164.17 
M 92.32 156.72 92.16 155.5 92.27 154.31 92.17 151.85 92.68 149.61 93.67 147.59 93.82 146.81 
M 97.5 146.34 97.2 146.45 96.2 146.23 
M 107.78 189.53 108.22 188.65 109.2 187.56 109.56 186.93 109.66 186.23 109.44 184.43 
M 99.8 175.97 99.78 173.18 99.57 172.62 97.78 170.59 95.25 168.63 
M 112.99 147.11 112.97 146.17 112.81 145.79 
M 65.9 164.23 67.12 166.78 67.33 167.7 67.07 171.27 66.41 171.92 
M 59.39 175.68 59.7 176.31 60.73 177.05 60.89 176.82 60.9 175.99 
M 119.16 180.54 117.17 181.52 115.55 181.83 114.4 181.36 113.65 180.63 113.5 180.21 
M 121.15 185.55 119.78 185.22 117.25 183.37 114.94 182.47 113.74 181.13 113.29 180.34 
M 124.8 162.33 120.57 161.06 120.29 160.85 120 160.3 119.94 159.7 120.13 159.14 
M 62.88 169.54 62.21 170.88 61.86 173.01 
M 101.36 180.63 103.21 181.34 
M 67.02 176.34 63.02 174.84 61.89 173.7 61.39 173.43 
M 99.69 188.18 98.17 188.05 95.34 188.17 90.66 189.18 89.75 188.9 87.86 187.57 86.15 185.61 
M 88.42 156.4 85.89 153.57 85.2 152.56 84.16 149.86 
M 67.23 160 65.93 162.17 65.67 163.15 65.79 164.11 67.18 167.19 
M 109.15 182.99 109.46 183.11 109.74 183 109.78 182.15 
M 98.43 169.73 97.15 168.68 95.92 167.27 94.92 165.86 94.05 164.08 93.72 163.7 
M 67.68 174.3 66.66 173.29 65.78 172.97 64.13 173.2 62.81 173.07 62.18 173.32 
M 79.09 152.82 80.35 155.85 80.53 156.62 
M 113.82 169.41 114.38 168.62 115.4 166.12 115.86 164.15 116.82 161.66 116.72 160.33 
M 111.21 177.96 110.09 177.49 107.96 177.03 107.03 176.99 104.87 177.28 104 177.13 103.29 176.77 102.73 176.17 101.28 173.45 
M 115.84 149.18 115.15 148.66 113.08 147.7 112.87 147.29 112.91 146.68 
M 95.46 189.14 93.54 189.95 91.22 190.2 90.48 190.17 89.71 189.88 87.82 188.68 86.93 187.8 85.39 185.58 83.35 184.07 
M 56.38 178.3 59.09 178.13 61 178.48 61.24 178.36 61.15 177.98 
M 117.91 167.63 118.01 162.94 117.75 158.98 118.43 157.78 
M 98.68 179.36 96.52 175.77 95.84 172.63 95.31 171.57 
M 96.17 161.44 95.1 160.83 94.78 160.37 94.05 157.31 94.07 155.42 94.45 151.82 95.12 149.92 
M 126.61 157.74 125.86 156.89 125.33 156.03 125.01 155.08 124.71 154.03 124.8 151.97 
M 71.2 161.63 70.85 162.26 
M 111.56 173.68 110.37 173.39 106.18 173.48 103.39 173.22 102.52 172.83 101.13 171.79 100.53 171.54 
M 116.94 161.01 116.53 159.04 116.67 158.44 117.31 157.37 118.65 156.11 119.78 154.72 120.15 154.12 120.55 152.82 
M 111.33 140.23 112.29 140.28 112.84 139.9 
M 108.11 143.29 108.09 141.1 108.37 139.59 
M 125.11 158.18 124.4 157.44 123.75 156.05 123.73 154.24 124.14 152.26 124.47 151.41 
M 63.93 188.88 63.94 188.91 
M 116.96 155.97 117.88 155.3 119.85 153.06 120.25 151.69 120.04 150.26 
M 93.67 192.39 92.61 191.7 90.84 191.31 88.84 190.11 87.02 188.68 84.48 185.73 82.41 184.41 
M 96.55 150.35 96.67 148.31 96.24 147.45 96.13 146.42 
M 64.06 170.06 63.6 170.94 62.6 171.83 61.93 173.22 61.7 173.41 
M 90.79 149.31 91.27 147.72 92.09 147.02 
M 118.09 159.42 118.22 158.81 119.78 156.44 120.76 154.27 121.06 150.89 
M 97.94 167.93 97.14 167.24 94.28 163.57 93.25 162.75 
M 91.93 161.12 91.86 160.13 
M 88.42 157.05 84.88 153.5 83.09 150.36 
M 54.99 169.5 56.1 170.49 57.04 171.77 58.54 176.42 58.96 176.96 59.49 177.32 60.56 177.93 60.88 177.92 
M 74.7 184.79 75.34 181.98 
M 123.44 180.74 122.19 180.79 119.46 181.34 115.34 181.86 114.72 181.61 113.76 180.79 
M 112.21 147.57 112.79 146.8 112.92 146.3 112.84 145.9 
M 111.35 170.58 112.62 170.72 113.81 171.13 114.7 171.57 116.04 172.57 117.06 173.03 
M 70.83 177.81 65.56 177 63.82 176.21 63.24 175.78 62.66 175.29 61.9 174.18 
M 78.12 184.61 77.76 182.92 
M 97.44 179.52 95.58 177.11 94.76 174.16 
M 93.59 163.38 93.55 163.35 
M 89.34 189.99 87.47 188.69 86.65 187.8 85.06 185.6 82.08 183.56 
M 66.17 173.11 65.22 172.97 64.06 173.21 62.75 173.08 61.78 173.48 
M 68.11 158.18 65.8 159.79 65.2 161.19 64.83 163.45 65.25 167.29 65.11 168.96 
M 125.87 187.06 125.02 185.9 123.51 184.99 122.65 184.71 120.25 184.71 
M 96.66 144.24 96.61 144.98 
M 113.75 191.17 111.78 191.02 110.67 190.7 109.95 190.27 109.44 189.73 109.15 189.25 108.99 188.48 109.59 186.97 109.67 186.25 
M 113.3 166.12 112.2 161.52 112.06 159.93 
M 95.36 155.73 96.25 152.87 96.6 148.47 96.17 147.17 
M 121.82 164.63 120.73 164.17 120.27 163.7 118.99 161.94 118.42 159.96 118.34 159.33 118.5 158.72 120.06 156.4 
M 103.91 175.71 102.54 174.55 100.82 172.16 99.23 171.12 97.02 169.35 95.47 167.69 
M 64.04 189.66 63.06 190.52 62.44 191.46 62.07 192.6 61.87 195.26 62.34 199.63 62.32 202.79 61.96 204.34 61.41 205.84 60.57 207.2 59.51 208.38 57 210.16 55.61 210.79 54.14 211.2 52.64 211.39 51.13 211.34 48.25 210.62 51.14 211.2 52.61 211.11 54.04 210.79 55.39 210.27 56.64 209.56 58.8 207.69 59.63 206.57 60.24 205.33 60.77 202.63 60.51 199.87 59.62 195.43 59.56 192.16 59.96 190.43 60.81 188.8 61.94 187.56 
M 62.95 188.58 63.75 189.23 
M 57.31 185.65 57.33 186.77 57.99 186.12 
M 52.25 182.33 51.74 183.36 51.68 184.93 52.2 183.73 53.19 182.96 
M 47.45 178.79 46.24 180.83 46.03 183.09 46.7 181.2 48.53 179.54 
M 42.66 175.3 40.73 178.29 40.37 181.26 41.19 178.67 43.69 176.23 
M 62.86 188.62 63.97 188.51 
M 57.53 188.23 58.17 187.36 58.26 187.85 58.51 188.22 
M 52.45 188.29 52.64 187.19 53.36 186.11 53.24 187.13 53.69 188.29 
M 47.47 188.22 47.62 186.47 48.54 184.86 48.21 186.41 48.75 188.25 
M 42.49 188.3 42.6 185.74 43.73 183.61 43.19 185.68 43.83 188.3 
M 37.52 188.73 37.57 185.02 38.91 182.35 38.16 184.96 38.9 188.38 
M 49.38 192.14 59.54 192.7 
M 62.05 192.72 68.72 192.62 77.65 192.13 
M 51.84 192.24 51.55 192.31 
M 50.96 192.26 50.63 192.14 
M 67.14 191.87 66.56 192.67 
M 115.98 136.55 127.46 148.03 
M 121.63 134.28 130.86 143.51 
M 127.45 132.18 136.76 141.49 
M 133.34 130.15 139.58 136.39 
M 139.37 128.25 146.13 135.02 
M 145.47 126.44 154.77 135.73 
M 151.74 124.78 159.1 132.15 
M 158.1 123.23 164.19 129.31 
M 164.85 122.06 174.45 131.65 
M 171.79 121.08 183.06 132.34 
M 179.2 120.56 186.81 128.17 
M 186.64 120.07 192.67 126.11 
M 193.99 119.5 202.22 127.73 
M 201.07 118.67 210.65 128.25 
M 207.95 117.63 218.31 127.99 
M 214.89 116.64 222.82 124.57 
M 221.84 115.67 231.09 124.92 
M 229.07 114.98 236.13 122.04 
M 236.5 114.49 247.52 125.51 
M 244.39 114.46 255.01 125.08 
M 252.81 114.96 262.26 124.4 
M 261.61 115.84 271.69 125.91 
M 270.82 117.13 280.01 126.31 
M 279.96 118.35 286.22 124.6 
M 288.9 119.36 298.78 129.24 
M 297.65 120.2 308.62 131.16 
M 306.2 120.82 316.87 131.49 
M 315.31 122.01 325.71 132.41 
M 325.14 123.91 334.76 133.54 
M 335.92 126.77 347.77 138.62 
M 347.53 130.47 354.94 137.88 
M 359.75 134.76 369.72 144.73 
M 372.15 139.24 382.42 149.51 
M 384.57 143.74 392.25 151.42 
M 397.06 148.31 403.83 155.08 
M 409.61 152.94 420.39 163.72 
M 421.96 157.37 427.44 162.85 
M 154.7 104.39 155.14 105.27 
M 157.82 101.72 158.26 102.6 
M 170.68 109.61 172.45 113.15 
M 173.34 114.92 175.11 118.46 
M 172.64 104.62 174.41 108.16 
M 175.3 109.93 180.57 120.48 
M 173.41 97.25 174.3 99.03 
M 175.18 100.8 184.88 120.19 
M 176.84 95.21 189.18 119.88 
M 181.71 96.03 182.6 97.8 
M 183.48 99.57 192.34 117.28 
M 193.13 118.86 193.47 119.54 
M 187.22 98.14 189 101.68 
M 190.77 105.23 195.19 114.08 
M 192.57 99.93 194.35 103.47 
M 195.23 105.24 197.89 110.56 
M 205.52 63.45 208.62 69.65 
M 227.22 106.84 228.11 108.61 
M 230.76 113.91 231.19 114.79 
M 208.55 60.58 208.99 61.47 
M 209.87 63.24 210.76 65.01 
M 213.42 70.33 214.3 72.1 
M 231.13 105.75 235.52 114.52 
M 211.16 56.89 217.8 70.18 
M 225.77 86.12 226.65 87.89 
M 229.31 93.2 230.2 94.97 
M 234.62 103.83 239.95 114.47 
M 214.57 54.82 220.33 66.33 
M 230.96 87.59 231.84 89.36 
M 233.62 92.9 236.27 98.21 
M 239.81 105.3 240.7 107.07 
M 241.59 108.84 244.4 114.46 
M 218.31 53.37 218.75 54.25 
M 219.63 56.03 224.06 64.88 
M 231.15 79.05 239.12 94.99 
M 240 96.76 240.89 98.54 
M 244.43 105.62 247.97 112.71 
M 248.69 114.13 248.95 114.67 
M 221.74 51.33 225.73 59.31 
M 233.7 75.25 234.59 77.02 
M 235.47 78.79 245.21 98.27 
M 224.97 48.87 227.18 53.29 
M 228.07 55.07 229.84 58.61 
M 236.92 72.78 250.21 99.35 
M 228.98 47.99 231.64 53.3 
M 240.5 71.01 253.78 97.58 
M 242.61 66.34 254.13 89.37 
M 255.01 91.14 255.9 92.91 
M 256.78 94.68 257.67 96.45 
M 247.49 67.18 248.38 68.96 
M 249.26 70.73 263.43 99.07 
M 265.2 102.61 268.75 109.69 
M 256.32 75.94 258.98 81.25 
M 262.52 88.33 272.26 107.82 
M 263.78 81.93 264.66 83.7 
M 265.55 85.47 276.18 106.73 
M 268.56 82.59 280.96 107.39 
M 286.34 118.14 286.85 119.16 
M 273.31 83.17 277.74 92.03 
M 278.62 93.8 284.82 106.2 
M 289.25 115.06 291.54 119.63 
M 276.17 79.98 277.05 81.75 
M 278.82 85.29 279.71 87.06 
M 282.37 92.38 284.14 95.92 
M 285.91 99.46 286.79 101.23 
M 295.71 119.07 296.21 120.07 
M 282.73 84.19 283.61 85.96 
M 285.39 89.5 286.27 91.27 
M 287.16 93.05 288.04 94.82 
M 298.67 116.07 300.42 119.58 
M 273.8 48.51 274.69 50.28 
M 299.48 99.88 300.37 101.65 
M 301.25 103.42 302.14 105.19 
M 303.03 106.96 304.8 110.5 
M 273.93 39.86 281.9 55.81 
M 299.62 91.23 301.39 94.77 
M 302.27 96.54 310.24 112.49 
M 276.48 36.05 277.37 37.82 
M 278.25 39.59 287.11 57.31 
M 304.82 92.73 313.68 110.44 
M 280.12 34.42 290.75 55.68 
M 305.81 85.79 316.43 107.04 
M 324.4 122.97 324.83 123.84 
M 283.97 33.2 291.5 48.26 
M 292.38 50.03 294.15 53.57 
M 295.04 55.34 295.93 57.12 
M 310.1 85.46 319.84 104.94 
M 326.92 119.11 328.69 122.65 
M 329.53 124.32 329.92 125.1 
M 288.58 33.52 297 50.35 
M 315.59 87.54 316.48 89.31 
M 317.37 91.08 322.68 101.71 
M 333.31 122.97 335.71 127.78 
M 292.92 33.29 293.37 34.18 
M 294.25 35.95 300.45 48.35 
M 319.94 87.31 321.71 90.86 
M 325.25 97.94 327.02 101.48 
M 297.99 34.51 298.43 35.39 
M 299.32 37.17 301.09 40.71 
M 314.79 50.29 316.56 53.83 
M 220.43 291.39 222.74 297.7 
M 224.63 291.39 218.54 297.7 
M 226.43 291.39 226.64 291.7 227.03 291.39 226.82 291.1 226.43 291.39 
M 226.1 293.5 224.83 297.7 
M 229.43 291.39 227.9 296.5 227.93 297.39 228.44 297.7 229.04 297.7 
M 227.9 293.5 230 293.5 
M 231.26 295.3 234.86 295.3 235.04 294.7 234.92 294.1 234.2 293.5 233.3 293.5 232.61 293.8 231.83 294.39 231.26 295.3 231.08 295.89 231.11 296.8 231.53 297.39 232.04 297.7 232.94 297.7 233.63 297.39 234.41 296.8 
M 237.5 293.5 235.61 299.8 
M 237.23 294.39 238.01 293.8 238.7 293.5 239.6 293.5 240.11 293.8 240.52 294.39 240.56 295.3 240.38 295.89 239.81 296.8 239.02 297.39 238.33 297.7 237.44 297.7 236.93 297.39 236.51 296.8 
M 243.83 291.39 241.94 297.7 
M 242.83 294.7 244.01 293.8 244.7 293.5 245.6 293.5 246.11 293.8 246.14 294.7 245.24 297.7 
M 248.06 295.3 251.66 295.3 251.83 294.7 251.72 294.1 251 293.5 250.1 293.5 249.41 293.8 248.63 294.39 248.06 295.3 247.88 295.89 247.91 296.8 248.33 297.39 248.83 297.7 249.74 297.7 250.43 297.39 251.21 296.8 
M 254.3 293.5 253.4 296.5 253.43 297.39 253.94 297.7 254.83 297.7 255.52 297.39 256.7 296.5 
M 257.6 293.5 256.33 297.7 
M 262.73 294.39 262.61 293.8 261.8 293.5 260.89 293.5 259.9 293.8 259.43 294.39 259.55 295 260.05 295.3 261.47 295.6 261.98 295.89 262.01 296.8 261.52 297.39 260.53 297.7 259.64 297.7 258.83 297.39 258.71 296.8 
M 268.72 291.39 266.83 297.7 
M 267.74 294.7 268.9 293.8 269.59 293.5 270.5 293.5 271.01 293.8 271.03 294.7 270.14 297.7 
M 274.13 291.39 274.33 291.7 274.72 291.39 274.52 291.1 274.13 291.39 
M 273.8 293.5 272.53 297.7 
M 276.2 293.5 274.31 299.8 
M 275.93 294.39 276.7 293.8 277.39 293.5 278.29 293.5 278.81 293.8 279.22 294.39 279.26 295.3 279.08 295.89 278.51 296.8 277.72 297.39 277.03 297.7 276.14 297.7 275.63 297.39 275.2 296.8 
M 282.83 291.39 281.29 296.5 281.33 297.39 281.83 297.7 282.44 297.7 
M 281.29 293.5 283.39 293.5 
M 285.5 293.5 284.59 296.5 284.63 297.39 285.14 297.7 286.03 297.7 286.73 297.39 287.89 296.5 
M 288.79 293.5 287.53 297.7 
M 291.2 293.5 289.94 297.7 
M 290.83 294.7 292.01 293.8 292.7 293.5 293.59 293.5 294.11 293.8 294.14 294.7 293.24 297.7 
M 294.14 294.7 295.31 293.8 296 293.5 296.89 293.5 297.4 293.8 297.44 294.7 296.53 297.7 
M 299.41 297.1 299.02 297.39 299.24 297.7 299.63 297.39 299.41 297.1 
"/></svg>
