<svg xmlns="http://www.w3.org/2000/svg" width="520" height="320"><rect x="0" y="0" width="520" height="320" fill="floralwhite"/><rect x="10" y="10" width="500" height="300" stroke="black" stroke-width="1" fill="none"/><path stroke="black" stroke-width="1" fill="none" stroke-linecap="round" stroke-linejoin="round" d="
M 167.51 113.33 178.17 111.39 188.82 110.05 199.47 109.55 210.12 110.21 231.43 113.79 242.08 114.73 252.73 114.21 263.39 112.89 274.04 112.12 284.69 112.58 295.34 113.92 316.65 116.98 327.3 119.15 348.61 124.35 369.91 130.13 391.22 135.31 401.87 138.18 412.52 141.77 423.17 146.52 424.28 147.81 
M 424.28 188.47 423.17 189.37 412.52 191.99 401.87 193.58 380.56 196.07 369.91 197.71 359.26 199.84 327.3 207.67 306 212.46 295.34 214.54 284.69 216.24 274.04 217.4 263.39 217.48 252.73 216.8 231.43 216.2 220.78 214.69 210.12 212.69 199.47 210.85 188.82 209.28 178.17 207.31 156.94 201.79 
M 165.93 199.57 165.93 198.81 165.19 197.46 163.75 196.12 
M 166.69 196.98 167.44 196.51 168.41 195.31 169.04 193.94 169.04 193.1 168.41 191.74 167.21 190.39 
M 170.39 117 170.86 116.82 171.99 115.93 172.72 114.92 172.72 114.3 171.99 113.3 171.18 112.66 
M 173.23 112.79 173.96 112.45 174.36 112.08 
M 173.48 121.46 174.22 121.1 175.17 120.18 175.78 119.13 175.78 118.49 175.17 117.44 174.22 116.52 173.48 116.16 
M 173.87 130.61 174.28 130.4 175.24 129.41 175.85 128.28 175.85 127.59 175.24 126.46 174.28 125.47 173.53 125.08 
M 175.36 149.94 176 148.66 176 147.88 175.55 146.97 
M 173.68 185.46 174.43 184.99 175.39 183.78 176.01 182.41 176.01 181.56 175.39 180.19 174.43 178.98 173.68 178.5 
M 176.92 126.1 177.81 125.73 178.95 124.77 179.68 123.68 179.68 123.01 178.95 121.92 177.81 120.96 176.92 120.58 
M 177.02 135.83 177.92 135.43 179.06 134.4 179.8 133.24 179.8 132.52 179.06 131.35 177.92 130.32 177.02 129.92 
M 177.09 156.96 177.99 156.52 179.15 155.38 179.89 154.1 179.89 153.3 179.15 152.02 177.99 150.88 177.09 150.44 
M 179.9 112.62 180.62 112.27 181.55 111.39 181.82 110.93 
M 180.27 121.39 181 121.02 181.95 120.09 182.55 119.04 182.55 118.38 181.95 117.33 181 116.4 180.27 116.03 
M 180.39 130.78 181.14 130.39 182.09 129.39 182.7 128.26 182.7 127.56 182.09 126.43 181.14 125.43 180.39 125.04 
M 180.52 140.89 181.27 140.47 182.22 139.41 182.84 138.21 182.84 137.46 182.22 136.26 181.27 135.19 180.52 134.78 
M 183.43 116.93 184.3 116.57 185.41 115.65 186.12 114.61 186.12 113.97 185.41 112.93 184.3 112.02 183.43 111.66 
M 183.88 135.82 184.77 135.42 185.91 134.39 186.65 133.22 186.65 132.49 185.91 131.32 184.77 130.29 183.88 129.88 
M 183.97 146.18 184.87 145.76 186.02 144.67 186.76 143.43 186.76 142.67 186.02 141.44 184.87 140.35 183.97 139.92 
M 184.52 161.7 183.99 161.43 
M 186.54 112.42 187.24 112.06 188.14 111.16 188.72 110.06 
M 187.02 121.28 187.74 120.91 188.67 119.97 189.26 118.9 189.26 118.24 188.67 117.18 187.74 116.23 187.02 115.87 
M 187.21 130.74 187.95 130.34 188.89 129.34 189.5 128.2 189.5 127.5 188.89 126.36 187.95 125.35 187.21 124.96 
M 187.38 140.88 188.13 140.47 189.08 139.4 189.69 138.19 189.69 137.44 189.08 136.24 188.13 135.17 187.38 134.75 
M 187.44 151.48 188.19 151.05 189.15 149.93 189.77 148.67 189.77 147.89 189.15 146.63 188.19 145.51 187.44 145.08 
M 189.98 116.64 190.81 116.27 191.87 115.33 192.55 114.27 192.55 113.62 191.87 112.56 190.81 111.62 189.98 111.26 
M 190.43 125.9 191.28 125.52 192.38 124.53 193.09 123.42 193.09 122.73 192.38 121.62 191.28 120.63 190.43 120.25 
M 190.68 135.77 191.56 135.36 192.69 134.32 193.42 133.14 193.42 132.41 192.69 131.23 191.56 130.19 190.68 129.78 
M 190.84 146.18 191.73 145.75 192.88 144.66 193.62 143.42 193.62 142.65 192.88 141.41 191.73 140.32 190.84 139.89 
M 190.87 156.99 191.77 156.54 192.92 155.41 193.66 154.12 193.66 153.32 192.92 152.04 191.77 150.9 190.87 150.45 
M 190.85 191.27 191.75 190.79 192.9 189.58 193.64 188.2 193.64 187.35 192.9 185.98 191.75 184.76 190.85 184.29 
M 192.82 111.86 193.47 111.5 194.3 110.57 194.7 109.78 
M 193.54 120.98 194.23 120.6 195.1 119.64 195.67 118.54 195.67 117.86 195.1 116.77 194.23 115.8 193.54 115.42 
M 193.93 130.61 194.65 130.21 195.57 129.19 196.16 128.03 196.16 127.32 195.57 126.16 194.65 125.14 193.93 124.74 
M 194.21 140.85 194.95 140.43 195.89 139.36 196.5 138.14 196.5 137.38 195.89 136.16 194.95 135.09 194.21 134.67 
M 194.32 151.49 195.07 151.05 196.03 149.94 196.64 148.67 196.64 147.89 196.03 146.62 195.07 145.51 194.32 145.07 
M 195.99 160.89 196.61 159.56 196.61 158.75 196 157.44 195.05 156.28 194.3 155.83 
M 194.3 185.44 195.05 184.96 196.01 183.75 196.63 182.18 
M 194.31 197.13 195.06 196.66 196.02 195.44 196.64 194.06 196.64 193.2 196.02 191.82 195.06 190.61 194.31 190.13 
M 196.63 205.39 196.63 204.87 196.02 203.5 195.07 202.29 194.32 201.82 
M 196.02 115.88 196.79 115.49 197.77 114.52 198.41 113.41 198.41 112.72 197.77 111.62 196.79 110.64 196.02 110.26 
M 196.86 125.55 197.68 125.15 198.74 124.13 199.42 122.97 199.42 122.25 198.74 121.09 197.68 120.07 196.86 119.67 
M 197.39 135.66 198.26 135.24 199.38 134.18 200.09 132.97 200.09 132.22 199.38 131.02 198.26 129.95 197.39 129.54 
M 197.68 146.16 198.57 145.73 199.71 144.63 200.45 143.38 200.45 142.61 199.71 141.36 198.57 140.26 197.68 139.83 
M 197.73 156.97 198.63 156.52 199.77 155.39 200.51 154.1 200.51 153.3 199.77 152.01 198.63 150.88 197.73 150.43 
M 197.75 191.28 198.64 190.81 199.79 189.6 200.53 188.22 200.53 187.37 199.79 186 198.64 184.78 197.75 184.31 
M 197.74 202.92 198.62 202.45 199.76 201.24 200.5 199.87 200.5 199.02 199.76 197.65 198.62 196.44 197.74 195.96 
M 198.2 110.43 198.79 110.05 199.16 109.57 
M 199.51 120.23 200.16 119.82 200.98 118.79 201.51 117.62 201.51 116.89 200.98 115.72 200.16 114.68 199.51 114.28 
M 200.45 130.37 201.16 129.96 202.06 128.89 202.64 127.68 202.64 126.93 202.06 125.72 201.16 124.65 200.45 124.24 
M 200.98 140.8 201.72 140.37 202.66 139.28 203.27 138.04 203.27 137.27 202.66 136.03 201.72 134.93 200.98 134.5 
M 201.2 151.49 201.95 151.06 202.91 149.94 203.52 148.67 203.52 147.89 202.91 146.62 201.95 145.5 201.2 145.06 
M 202.89 160.59 203.4 159.49 203.4 158.68 202.79 157.37 201.85 156.22 201.11 155.77 
M 201.19 185.46 201.94 184.99 203.04 183.44 
M 201.18 197.11 201.92 196.64 202.87 195.42 203.49 194.05 203.49 193.2 202.87 191.82 201.92 190.61 201.18 190.14 
M 203.06 206.38 203.39 205.64 203.39 204.8 202.79 203.44 201.85 202.24 201.12 201.77 
M 201.45 114.56 202.19 114.15 203.13 113.11 203.74 111.92 203.74 111.19 202.92 109.77 
M 202.98 124.95 203.78 124.52 204.81 123.43 205.47 122.19 205.47 121.43 204.81 120.19 203.78 119.1 202.98 118.67 
M 204 135.49 204.86 135.06 205.96 133.95 206.67 132.7 206.67 131.92 205.96 130.67 204.86 129.57 204 129.13 
M 204.49 146.13 205.38 145.69 206.52 144.58 207.25 143.32 207.25 142.53 206.52 141.27 205.38 140.16 204.49 139.72 
M 204.56 156.91 205.46 156.47 206.6 155.33 207.33 154.05 207.33 153.25 206.6 151.96 205.46 150.83 204.56 150.39 
M 204.57 191.22 205.46 190.75 206.59 189.54 207.33 188.16 207.33 187.32 206.59 185.94 205.46 184.73 204.57 184.26 
M 204.5 202.77 205.38 202.3 206.5 201.1 207.22 199.74 207.22 198.9 206.5 197.54 205.38 196.34 204.5 195.87 
M 205.1 119.15 205.73 118.71 206.54 117.57 207.07 116.29 207.07 115.5 206.54 114.22 205.73 113.08 205.1 112.64 
M 206.84 130.06 207.54 129.62 208.44 128.48 209.01 127.19 209.01 126.39 208.44 125.11 207.54 123.97 206.84 123.53 
M 207.72 140.73 208.45 140.29 209.38 139.16 209.99 137.89 209.99 137.1 209.38 135.83 208.45 134.71 207.72 134.27 
M 209.75 160.22 210.16 159.36 210.16 158.55 209.55 157.25 208.6 156.11 207.87 155.66 
M 207.98 185.36 208.71 184.89 209.3 184.14 
M 207.94 196.95 208.67 196.48 209.61 195.28 210.21 193.91 210.21 193.07 209.61 191.7 208.67 190.5 207.94 190.03 
M 208.88 207.36 209.39 206.71 209.99 205.36 209.99 204.53 209.39 203.19 208.47 202 207.75 201.54 
M 206.83 113.19 207.6 112.75 208.58 111.64 209.21 110.16 
M 209.04 124.31 209.86 123.85 210.9 122.69 211.58 121.37 211.58 120.55 210.9 119.23 209.86 118.06 209.04 117.61 
M 211.33 191.08 212.21 190.61 213.35 189.4 214.08 188.03 214.08 187.19 213.35 185.82 212.21 184.61 211.72 184.35 
M 211.18 202.54 212.06 202.08 213.19 200.88 213.92 199.54 213.92 198.7 213.19 197.35 212.06 196.16 211.18 195.69 
M 212.2 207.95 211.79 207.52 210.92 207.07 
M 210.94 118.27 211.62 117.8 212.48 116.6 213.04 115.23 213.04 114.39 212.48 113.02 211.62 111.82 210.94 111.35 
M 214.44 140.63 215.17 140.18 216.11 139.04 216.71 137.74 216.71 136.93 216.11 135.63 215.17 134.48 214.44 134.03 
M 214.95 151.5 215.69 151.06 216.65 149.94 217.27 148.66 217.27 147.87 216.65 146.6 215.69 145.47 214.95 145.03 
M 216.58 160.19 217.01 159.29 217.01 158.49 216.4 157.2 215.44 156.06 214.69 155.62 
M 214.39 208.09 215.12 207.63 216.07 206.45 216.67 205.11 216.67 204.29 216.07 202.95 215.12 201.78 214.39 201.32 
M 217.21 135.12 218.08 134.66 219.2 133.48 219.92 132.15 219.92 131.32 219.2 129.99 218.08 128.82 217.21 128.36 
M 217.45 117.95 218.19 117.47 219.13 116.25 219.74 114.86 219.74 114 219.13 112.61 218.3 111.53 
M 219.92 129.55 220.65 129.08 221.59 127.87 222.2 126.51 222.2 125.66 221.59 124.3 220.65 123.09 219.92 122.62 
M 219.56 112.25 220.34 111.86 
M 222.14 123.74 223.03 123.27 224.18 122.06 224.91 120.69 224.91 119.84 224.18 118.48 223.03 117.27 222.14 116.8 
M 225.18 156.92 226.08 156.47 227.24 155.32 227.98 154.03 227.98 153.22 227.24 151.93 226.08 150.78 225.18 150.33 
M 224.45 118.02 225.22 117.55 226.2 116.34 226.83 114.97 226.83 114.13 226.26 112.88 
M 227.98 140.45 228.72 140 229.67 138.83 230.28 137.52 230.28 136.7 229.67 135.38 228.72 134.22 227.98 133.77 
M 228.64 151.5 229.38 151.05 230.33 149.9 230.95 148.6 230.95 147.79 230.33 146.49 229.38 145.34 228.64 144.9 
M 230.86 159.77 230.99 158.69 230.37 157.38 229.4 156.23 228.64 155.78 
M 229.08 123.75 229.99 123.29 231.14 122.1 231.89 120.75 231.89 119.92 231.14 118.57 229.99 117.38 229.08 116.92 
M 230.77 134.9 231.66 134.44 232.8 133.27 233.53 131.94 233.53 131.12 232.8 129.79 231.66 128.62 230.77 128.16 
M 231.72 145.94 232.61 145.49 233.75 144.33 234.48 143.02 234.48 142.21 233.75 140.9 232.61 139.74 231.72 139.29 
M 232.08 156.97 232.98 156.52 234.13 155.36 234.87 154.05 234.87 153.24 234.13 151.93 232.98 150.78 232.08 150.33 
M 231.56 118.19 232.32 117.73 233.3 116.55 233.92 115.21 233.92 114.38 233.74 113.99 
M 233.59 129.36 234.33 128.9 235.28 127.73 235.89 126.4 235.89 125.57 235.28 124.24 234.33 123.07 233.59 122.61 
M 234.79 140.37 235.53 139.91 236.47 138.75 237.08 137.44 237.08 136.62 236.47 135.31 235.53 134.15 234.79 133.7 
M 235.46 151.46 236.2 151.01 237.15 149.85 237.77 148.54 237.77 147.73 237.15 146.42 236.2 145.26 235.46 144.81 
M 237.74 159.97 237.92 159.57 237.92 158.76 237.3 157.44 236.34 156.28 235.59 155.83 
M 235.58 185.44 236.34 184.97 237.31 183.73 
M 235.98 123.73 236.86 123.27 238 122.09 238.73 120.76 238.73 119.94 238 118.61 236.86 117.44 235.98 116.98 
M 237.57 134.8 238.45 134.35 239.58 133.18 240.31 131.86 240.31 131.04 239.58 129.72 238.45 128.55 237.57 128.1 
M 238.52 145.88 239.41 145.42 240.54 144.26 241.27 142.95 241.27 142.13 240.54 140.82 239.41 139.66 238.52 139.2 
M 238.95 156.98 239.85 156.52 240.99 155.36 241.73 154.04 241.73 153.23 240.99 151.91 239.85 150.75 238.95 150.3 
M 239.02 191.26 239.92 190.79 241.08 189.58 241.83 188.22 241.83 187.37 241.08 186 239.92 184.79 239.02 184.32 
M 238.91 202.77 239.82 202.3 240.98 201.11 241.73 199.75 241.73 198.92 240.98 197.56 239.82 196.37 238.91 195.9 
M 241.3 211.4 241.48 211.08 241.48 210.25 240.73 208.92 239.57 207.75 238.66 207.29 
M 238.42 118.14 239.14 117.68 240.07 116.51 240.67 115.18 240.67 114.6 
M 240.35 129.22 241.08 128.77 242 127.6 242.6 126.27 242.6 125.45 242 124.13 241.08 122.96 240.35 122.51 
M 241.57 140.27 242.3 139.81 243.23 138.65 243.84 137.33 243.84 136.52 243.23 135.2 242.3 134.03 241.57 133.58 
M 242.28 151.41 243.02 150.96 243.96 149.8 244.57 148.48 244.57 147.66 243.96 146.35 243.02 145.18 242.28 144.73 
M 244.65 159.91 244.8 159.59 244.8 158.77 244.18 157.45 243.23 156.28 242.48 155.82 
M 242.48 185.46 243.23 184.99 244.19 183.78 244.81 182.32 
M 242.47 197.1 243.22 196.63 244.18 195.42 244.8 194.05 244.8 193.21 244.18 191.84 243.22 190.63 242.47 190.16 
M 242.29 208.5 243.04 208.04 244.01 206.85 244.63 205.51 244.63 204.68 244.01 203.34 243.04 202.16 242.29 201.69 
M 242.63 123.49 243.48 123.04 244.57 121.86 245.27 120.53 245.27 119.7 244.57 118.37 243.48 117.2 242.63 116.74 
M 244.26 134.62 245.12 134.16 246.21 132.99 246.92 131.66 246.92 130.84 246.21 129.51 245.12 128.33 244.26 127.88 
M 245.28 145.77 246.15 145.31 247.26 144.14 247.98 142.82 247.98 142 247.26 140.67 246.15 139.5 245.28 139.05 
M 245.79 156.95 246.67 156.49 247.8 155.32 248.54 154 248.54 153.18 247.8 151.85 246.67 150.68 245.79 150.23 
M 245.91 191.28 246.81 190.81 247.96 189.6 248.71 188.23 248.71 187.38 247.96 186.01 246.81 184.8 245.91 184.33 
M 245.83 202.81 246.73 202.34 247.88 201.15 248.63 199.79 248.63 198.95 247.88 197.6 246.73 196.4 245.83 195.93 
M 248.19 211.57 248.43 211.15 248.43 210.32 247.68 208.99 246.52 207.81 245.61 207.35 
M 244.87 117.71 245.56 117.25 246.44 116.07 247 114.49 
M 246.89 128.9 247.59 128.44 248.48 127.26 249.05 125.92 249.05 125.1 248.48 123.76 247.59 122.58 246.89 122.12 
M 248.22 140.07 248.93 139.61 249.84 138.43 250.42 137.1 250.42 136.27 249.84 134.94 248.93 133.76 248.22 133.3 
M 249.04 151.32 249.77 150.86 250.69 149.69 251.29 148.36 251.29 147.54 250.69 146.2 249.77 145.03 249.04 144.57 
M 251.53 159.82 251.64 158.75 251.03 157.42 250.08 156.24 249.34 155.78 
M 249.36 185.46 250.11 184.99 251.06 183.78 251.68 182.41 251.68 181.64 
M 249.35 197.1 250.1 196.63 251.06 195.42 251.67 194.05 251.67 193.21 251.06 191.84 250.1 190.63 249.35 190.16 
M 249.2 208.55 249.95 208.08 250.92 206.89 251.54 205.55 251.54 204.71 250.92 203.37 249.95 202.18 249.2 201.71 
M 248.95 122.93 249.76 122.47 250.79 121.28 251.45 119.94 251.45 119.11 250.79 117.77 249.76 116.59 248.95 116.13 
M 250.69 134.19 251.51 133.73 252.55 132.54 253.23 131.19 253.23 130.36 252.55 129.01 251.51 127.82 250.69 127.36 
M 252.51 156.83 253.38 156.37 254.48 155.19 255.2 153.85 255.2 153.01 254.48 151.67 253.38 150.49 252.51 150.03 
M 252.79 191.28 253.69 190.81 254.84 189.6 255.58 188.23 255.58 187.38 254.84 186.01 253.69 184.8 252.79 184.33 
M 252.73 202.85 253.63 202.38 254.78 201.18 255.53 199.82 255.53 198.97 254.78 197.61 253.63 196.41 252.73 195.94 
M 255.11 211.8 255.42 211.25 255.42 210.42 254.66 209.08 253.5 207.9 252.59 207.44 
M 250.97 116.89 251.63 116.43 252.46 115.26 252.89 114.19 
M 253.06 128.2 253.72 127.74 254.55 126.54 255.09 125.18 255.09 124.35 254.55 122.99 253.72 121.79 253.06 121.33 
M 255.59 151.04 256.28 150.57 257.17 149.37 257.74 148.02 257.74 147.18 257.17 145.82 256.28 144.62 255.59 144.16 
M 256.23 197.11 256.97 196.64 257.93 195.42 258.55 194.05 258.55 193.2 257.93 191.83 256.97 190.62 256.23 190.15 
M 256.14 208.64 256.89 208.17 257.86 206.97 258.48 205.61 258.48 204.77 257.86 203.41 256.89 202.21 256.14 201.74 
M 254.85 121.91 255.61 121.45 256.58 120.26 257.21 118.92 257.21 118.09 256.58 116.75 255.61 115.56 254.85 115.1 
M 256.71 133.36 257.48 132.88 258.47 131.67 259.1 130.3 259.1 129.46 258.47 128.09 257.48 126.88 256.71 126.41 
M 258.1 144.92 258.9 144.45 259.92 143.23 260.57 141.86 260.57 141.01 259.92 139.63 258.9 138.42 258.1 137.94 
M 256.65 115.58 257.26 115.13 258.21 113.53 
M 258.73 126.98 259.34 126.5 260.12 125.29 260.62 123.92 260.62 123.07 260.12 121.7 259.34 120.49 258.73 120.02 
M 260.48 138.66 261.11 138.18 261.91 136.94 262.43 135.55 262.43 134.69 261.91 133.29 261.11 132.06 260.48 131.58 
M 261.77 150.41 262.43 149.93 263.27 148.69 263.81 147.3 263.81 146.44 263.27 145.05 262.43 143.82 261.77 143.34 
M 260.25 120.34 260.97 119.88 261.89 118.7 262.48 117.37 262.48 116.54 261.89 115.21 260.97 114.03 260.25 113.57 
M 262.19 131.96 262.92 131.48 263.84 130.24 264.44 128.85 264.44 127.98 263.84 126.59 262.92 125.36 262.19 124.87 
M 267.66 162.11 266.77 161.08 265.94 160.59 
M 261.84 113.72 262.62 112.99 
M 268.73 161.51 269.39 161.01 270.23 159.74 270.78 158.3 270.78 157.4 270.23 155.96 269.39 154.69 268.73 154.19 
M 267.27 130.14 267.99 129.65 268.91 128.4 269.51 126.98 269.51 126.1 268.91 124.68 267.99 123.43 267.27 122.94 
M 269.25 142.43 269.99 141.92 270.93 140.62 271.54 139.16 271.54 138.25 270.93 136.78 269.99 135.49 269.25 134.98 
M 274.67 163.56 274.67 163.05 274.01 161.58 272.98 160.28 272.18 159.78 
M 268.67 123.02 269.27 122.55 270.04 121.32 270.54 119.94 270.54 119.08 270.04 117.69 269.27 116.47 268.67 115.99 
M 272.89 147.92 273.51 147.4 274.3 146.08 274.81 144.58 274.81 143.65 274.3 142.15 273.51 140.82 272.89 140.3 
M 274.53 160.55 275.15 160.03 275.95 158.7 276.46 157.19 276.46 156.26 275.95 154.75 275.15 153.42 274.53 152.9 
M 270.48 116.61 271.21 116.15 272.16 114.99 272.76 113.67 272.76 112.85 272.48 112.23 
M 272.62 128.58 273.37 128.09 274.35 126.81 274.97 125.37 274.97 124.48 274.35 123.04 273.37 121.77 272.62 121.27 
M 274.73 140.99 275.5 140.48 276.47 139.17 277.1 137.7 277.1 136.78 276.47 135.3 275.5 133.99 274.73 133.48 
M 276.42 153.46 277.16 152.94 278.11 151.62 278.72 150.11 278.72 149.18 278.11 147.68 277.16 146.35 276.42 145.84 
M 280.13 163.59 280.41 162.91 280.41 161.96 279.78 160.42 278.8 159.07 278.04 158.54 
M 279.55 179.23 280.4 178.71 281.48 177.38 282.18 175.88 282.18 174.95 282.04 174.64 
M 280.23 191.31 281.12 190.82 282.26 189.57 283 188.16 283 187.28 282.26 185.86 281.12 184.61 280.23 184.12 
M 280.21 202.8 281.08 202.33 282.2 201.13 282.93 199.77 282.93 198.93 282.2 197.57 281.08 196.37 280.21 195.9 
M 282.53 211.28 282.61 210.32 281.91 209 280.84 207.84 279.99 207.39 
M 274.22 121.71 274.86 121.22 275.68 119.97 276.21 118.55 276.21 117.67 275.68 116.25 274.86 114.99 274.22 114.5 
M 276.7 134.25 277.37 133.74 278.23 132.44 278.78 130.96 278.78 130.04 278.23 128.56 277.37 127.26 276.7 126.75 
M 278.46 146.45 279.1 145.95 279.92 144.66 280.44 143.2 280.44 142.29 279.92 140.83 279.1 139.54 278.46 139.04 
M 279.78 158.92 280.37 158.39 281.14 157.03 281.63 155.49 281.63 154.54 281.14 153 280.37 151.64 279.78 151.11 
M 283.61 185.6 284.36 185.09 285.32 183.77 285.93 182.29 285.93 181.37 285.32 179.88 284.36 178.57 283.61 178.06 
M 283.68 197.03 284.42 196.56 285.36 195.35 285.97 193.98 285.97 193.14 285.36 191.77 284.42 190.56 283.68 190.09 
M 283.45 208.34 284.16 207.89 285.06 206.71 285.65 205.39 285.65 204.56 285.06 203.24 284.16 202.06 283.45 201.61 
M 276.12 115.39 276.89 114.92 277.88 113.73 278.51 112.31 
M 278.56 127.65 279.36 127.15 280.39 125.86 281.06 124.4 281.06 123.5 280.39 122.04 279.36 120.75 278.56 120.24 
M 280.65 139.9 281.45 139.4 282.47 138.12 283.13 136.68 283.13 135.78 282.47 134.33 281.45 133.05 280.65 132.56 
M 281.88 151.92 282.64 151.41 283.6 150.1 284.22 148.62 284.22 147.71 283.6 146.23 282.64 144.92 281.88 144.41 
M 284.96 163.66 285.32 163.14 285.94 161.54 285.94 160.55 285.32 158.95 284.35 157.53 283.59 156.98 
M 285.94 178.94 286.78 178.39 287.86 176.99 288.56 175.4 288.56 174.41 287.62 172.51 
M 287.04 191.29 287.93 190.8 289.07 189.53 289.8 188.09 289.8 187.21 289.07 185.77 287.93 184.5 287.04 184.01 
M 286.83 202.45 287.7 201.99 288.8 200.82 289.51 199.5 289.51 198.68 288.8 197.35 287.7 196.18 286.83 195.72 
M 288.71 210.47 288.74 209.64 288.06 208.37 287.02 207.26 286.21 206.82 
M 280.26 120.96 280.92 120.46 281.78 119.16 282.33 117.69 282.33 116.77 281.78 115.3 280.92 114 280.26 113.5 
M 283.07 133.69 283.76 133.18 284.65 131.88 285.23 130.41 285.23 129.5 284.65 128.03 283.76 126.74 283.07 126.23 
M 284.35 145.21 285.02 144.73 285.87 143.51 286.42 142.13 286.42 141.28 285.87 139.9 285.02 138.68 284.35 138.21 
M 284.92 157.1 285.54 156.57 286.33 155.22 286.84 153.68 286.84 152.73 286.33 151.19 285.54 149.83 284.92 149.3 
M 288.7 164.19 288.4 163.64 287.74 163.04 
M 290.5 185.77 291.24 185.23 292.2 183.86 292.82 182.31 292.82 181.36 292.2 179.81 291.24 178.44 290.5 177.9 
M 290.38 196.77 291.12 196.31 292.06 195.13 292.66 193.79 292.66 192.96 292.06 191.62 291.12 190.44 290.38 189.98 
M 289.81 207.64 290.51 207.21 291.42 206.09 292 204.82 292 204.04 291.42 202.78 290.51 201.66 289.81 201.22 
M 282.06 114.49 282.85 114.01 283.98 112.55 
M 284.8 127.04 285.62 126.53 286.67 125.23 287.35 123.74 287.35 122.83 286.67 121.35 285.62 120.04 284.8 119.53 
M 286.86 139.13 287.69 138.64 288.75 137.39 289.43 135.97 289.43 135.1 288.75 133.68 287.69 132.43 286.86 131.94 
M 287.64 150.67 288.45 150.17 289.48 148.89 290.15 147.44 290.15 146.55 289.48 145.1 288.45 143.82 287.64 143.32 
M 289.32 164.03 290.14 163.46 291.18 162.01 291.85 160.35 291.85 159.33 291.18 157.68 290.14 156.22 289.32 155.65 
M 292.38 178.67 293.24 178.1 294.35 176.63 295.06 174.96 295.06 173.93 294.35 172.26 293.24 170.78 292.71 170.43 
M 293.85 191.25 294.74 190.75 295.89 189.47 296.62 188.02 296.62 187.12 295.89 185.67 294.74 184.39 293.85 183.89 
M 293.42 202.05 294.3 201.61 295.43 200.47 296.16 199.18 296.16 198.39 295.43 197.1 294.3 195.96 293.42 195.52 
M 294.96 209.56 294.96 208.88 294.27 207.66 293.19 206.59 292.35 206.17 
M 286.42 120.31 287.09 119.79 287.95 118.46 288.51 116.95 288.51 116.01 287.95 114.5 287.09 113.17 286.65 112.83 
M 289.48 133.21 290.17 132.7 291.06 131.4 291.63 129.93 291.63 129.02 291.06 127.54 290.17 126.24 289.48 125.73 
M 290.56 144.4 291.26 143.94 292.16 142.75 292.73 141.42 292.73 140.59 292.16 139.25 291.26 138.07 290.56 137.6 
M 290.72 155.97 291.43 155.44 292.33 154.08 292.92 152.54 292.92 151.59 292.33 150.05 291.43 148.69 290.72 148.16 
M 293.92 171.26 294.64 170.64 295.41 169.33 
M 295.93 165.4 295.57 164.33 294.64 162.74 293.92 162.11 
M 297.37 185.87 298.11 185.32 299.06 183.91 299.68 182.32 299.68 181.33 299.06 179.74 298.11 178.33 297.37 177.78 
M 297.15 196.6 297.9 196.15 298.87 194.98 299.49 193.66 299.49 192.85 298.87 191.53 297.9 190.37 297.15 189.91 
M 296.35 207.19 297.09 206.77 298.05 205.68 298.66 204.46 298.66 203.7 298.05 202.47 297.09 201.39 296.35 200.97 
M 288.11 113.68 288.97 113.12 
M 291.04 126.43 291.86 125.91 292.9 124.58 293.58 123.08 293.58 122.14 292.9 120.64 291.86 119.31 291.04 118.79 
M 293.24 138.63 294.09 138.14 295.17 136.88 295.87 135.45 295.87 134.56 295.17 133.13 294.09 131.87 293.24 131.38 
M 294.08 150.24 294.99 149.74 296.15 148.45 296.9 146.99 296.9 146.08 296.15 144.62 294.99 143.33 294.08 142.83 
M 295.88 163.75 296.82 163.17 298.02 161.69 298.79 160.02 298.79 158.99 298.02 157.31 296.82 155.84 295.88 155.26 
M 300.29 202.01 301.21 201.57 302.38 200.45 303.14 199.17 303.14 198.38 302.38 197.11 301.21 195.98 300.29 195.54 
M 292.53 119.55 293.21 119.02 294.07 117.68 294.63 116.15 294.63 115.21 294.1 113.76 
M 295.72 132.64 296.41 132.12 297.28 130.78 297.85 129.28 297.85 128.34 297.28 126.83 296.41 125.5 295.72 124.98 
M 297.19 144.28 297.94 143.8 298.9 142.57 299.53 141.17 299.53 140.3 298.9 138.91 297.94 137.67 297.19 137.19 
M 297.85 156.32 298.71 155.78 299.82 154.39 300.53 152.82 300.53 151.85 299.82 150.28 298.71 148.89 297.85 148.35 
M 304.17 185.77 304.91 185.23 305.85 183.83 306.45 182.24 306.45 181.26 305.85 179.67 304.91 178.27 304.17 177.72 
M 297.25 125.8 298.07 125.27 299.13 123.92 299.82 122.38 299.82 121.43 299.13 119.9 298.07 118.54 297.25 118.01 
M 299.83 138.53 300.71 138.01 301.84 136.68 302.57 135.17 302.57 134.23 301.84 132.72 300.71 131.39 299.83 130.87 
M 303.58 164.56 304.64 163.99 305.99 162.53 306.87 160.88 306.87 159.85 305.99 158.2 304.64 156.74 303.58 156.16 
M 298.74 118.85 299.44 118.32 300.33 116.97 300.91 115.45 300.91 114.73 
M 301.99 132.18 302.69 131.63 303.59 130.24 304.17 128.66 304.17 127.68 303.59 126.1 302.69 124.7 301.99 124.16 
M 303.66 125.4 304.53 124.86 305.65 123.48 306.37 121.91 306.37 120.94 305.65 119.37 304.53 117.98 303.66 117.44 
M 306.74 138.85 307.67 138.29 308.86 136.86 309.62 135.24 309.62 134.23 308.86 132.61 307.67 131.18 306.74 130.62 
M 309.46 152.37 310.51 151.81 311.86 150.37 312.73 148.73 312.73 147.72 311.86 146.09 310.51 144.65 309.46 144.08 
M 305.33 118.52 306.08 118 307.04 116.66 307.44 115.67 
M 320.4 204.71 319.81 203.53 318.82 202.41 318.05 201.97 
M 310.57 125.49 311.49 124.95 312.67 123.54 313.44 121.94 313.44 120.96 312.67 119.36 311.49 117.95 310.57 117.41 
M 319.9 166.99 320.91 166.46 322.2 165.08 323.03 163.52 323.03 162.56 322.2 161 320.91 159.62 319.9 159.08 
M 320.84 179.06 321.77 178.56 322.96 177.3 323.73 175.87 323.73 174.98 322.96 173.55 321.77 172.29 320.84 171.8 
M 321.31 202.59 322.2 202.12 323.33 200.93 324.07 199.58 324.07 198.75 323.33 197.4 322.2 196.2 321.31 195.74 
M 312.54 118.87 313.32 118.35 314.47 116.67 
M 315.82 132.52 316.61 131.94 317.62 130.45 318.27 128.76 318.27 127.72 317.62 126.03 316.61 124.55 315.82 123.97 
M 319.63 147.08 320.44 146.47 321.48 144.92 322.15 143.17 322.15 142.08 321.48 140.33 320.44 138.78 319.63 138.17 
M 322.99 161.19 323.81 160.63 324.86 159.18 325.54 157.55 325.54 156.53 324.86 154.89 323.81 153.45 322.99 152.88 
M 324.46 173.5 325.24 173 326.24 171.73 326.89 170.3 326.89 169.41 326.24 167.98 325.24 166.71 324.46 166.21 
M 324.31 184.68 325.05 184.21 326.01 183.01 326.62 181.64 326.62 180.8 326.01 179.44 325.05 178.23 324.31 177.76 
M 324.34 196.52 325.07 196.03 326.01 194.78 326.61 193.35 326.61 192.47 326.01 191.05 325.07 189.79 324.34 189.3 
M 326.58 203.39 325.76 202.42 325.01 201.97 
M 317.79 125.87 318.7 125.32 319.87 123.91 320.61 122.31 320.61 121.32 319.87 119.72 318.7 118.3 317.79 117.75 
M 324.88 154.25 325.81 153.67 327 152.18 327.77 150.49 327.77 149.44 327 147.75 325.81 146.26 324.88 145.68 
M 327.22 167.38 328.15 166.86 329.33 165.51 330.09 163.98 330.09 163.03 329.33 161.5 328.15 160.15 327.22 159.63 
M 327.84 179.1 328.74 178.61 329.9 177.38 330.64 175.99 330.64 175.12 329.9 173.73 328.74 172.49 327.84 172.01 
M 327.78 190.61 328.67 190.13 329.81 188.9 330.54 187.51 330.54 186.65 329.81 185.26 328.67 184.03 327.78 183.55 
M 328.12 202.55 329.02 202.08 330.16 200.88 330.9 199.52 330.9 198.68 330.16 197.32 329.02 196.11 328.12 195.64 
M 319.78 119.23 320.51 118.71 321.09 117.89 
M 323.04 132.87 323.76 132.29 324.69 130.8 325.29 129.12 325.29 128.08 324.69 126.39 323.76 124.91 323.04 124.33 
M 326.84 147.39 327.57 146.79 328.51 145.25 329.12 143.51 329.12 142.43 328.51 140.68 327.57 139.14 326.84 138.54 
M 330.06 161.34 330.8 160.78 331.75 159.35 332.36 157.73 332.36 156.73 331.75 155.11 330.8 153.69 330.06 153.13 
M 331.38 173.51 332.12 173.02 333.07 171.76 333.68 170.34 333.68 169.46 333.07 168.03 332.12 166.78 331.38 166.28 
M 331.21 184.7 331.95 184.23 332.91 183.03 333.52 181.66 333.52 180.82 332.91 179.46 331.95 178.25 331.21 177.79 
M 331.25 196.55 332 196.06 332.96 194.8 333.58 193.38 333.58 192.5 332.96 191.08 332 189.82 331.25 189.33 
M 332.2 202.15 331.89 201.96 
M 324.44 125.6 325.26 125.05 326.32 123.65 327 122.06 327 121.08 326.32 119.49 325.84 118.85 
M 328 139.76 328.83 139.17 329.89 137.64 330.57 135.92 330.57 134.85 329.89 133.12 328.83 131.6 328 131.01 
M 331.65 154.16 332.5 153.57 333.59 152.07 334.29 150.37 334.29 149.32 333.59 147.62 332.5 146.13 331.65 145.54 
M 334.02 167.3 334.89 166.78 336 165.42 336.72 163.89 336.72 162.94 336 161.41 334.89 160.06 334.02 159.53 
M 334.66 179.04 335.54 178.56 336.67 177.32 337.39 175.92 337.39 175.05 336.67 173.65 335.54 172.42 334.66 171.93 
M 334.65 190.61 335.54 190.13 336.69 188.9 337.42 187.5 337.42 186.64 336.69 185.24 335.54 184.01 334.65 183.53 
M 336.86 201.11 337.8 199.53 337.8 198.69 337.06 197.32 335.91 196.12 335.01 195.65 
M 329.03 131.95 329.67 131.37 330.48 129.88 331.01 128.19 331.01 127.14 330.48 125.45 329.67 123.95 329.03 123.37 
M 333.09 146.84 333.76 146.23 334.61 144.65 335.16 142.87 335.16 141.76 334.61 139.98 333.76 138.4 333.09 137.79 
M 336.6 161.06 337.3 160.49 338.2 159.04 338.78 157.39 338.78 156.37 338.2 154.72 337.3 153.27 336.6 152.7 
M 338.04 173.32 338.76 172.82 339.68 171.55 340.27 170.11 340.27 169.22 339.68 167.78 338.76 166.51 338.04 166.01 
M 338 184.64 338.73 184.16 339.67 182.95 340.28 181.57 340.28 180.72 339.67 179.34 338.73 178.13 338 177.65 
M 338.14 196.57 338.89 196.08 339.85 194.82 340.47 193.4 340.47 192.51 339.85 191.08 338.89 189.82 338.14 189.33 
M 330.28 124.46 331.05 123.92 332.05 122.53 332.69 120.96 332.69 120.44 
M 333.9 138.81 334.68 138.21 335.68 136.66 336.33 134.9 336.33 133.81 335.68 132.06 334.68 130.51 333.9 129.9 
M 337.89 153.6 338.7 153 339.75 151.46 340.43 149.72 340.43 148.64 339.75 146.9 338.7 145.36 337.89 144.76 
M 340.53 166.99 341.38 166.45 342.46 165.07 343.17 163.51 343.17 162.54 342.46 160.98 341.38 159.6 340.53 159.06 
M 341.33 178.88 342.2 178.39 343.32 177.13 344.04 175.71 344.04 174.83 343.32 173.41 342.2 172.16 341.33 171.67 
M 341.47 190.59 342.36 190.1 343.5 188.86 344.24 187.45 344.24 186.58 343.5 185.17 342.36 183.92 341.47 183.43 
M 334.52 130.53 335.16 129.95 335.99 128.44 336.52 126.74 336.52 125.69 335.99 123.99 335.16 122.48 334.52 121.89 
M 338.94 145.92 339.61 145.29 340.46 143.66 341.01 141.81 341.01 140.67 340.46 138.82 339.61 137.19 338.94 136.56 
M 342.91 160.58 343.61 160 344.5 158.5 345.08 156.8 345.08 155.76 344.5 154.06 343.61 152.57 342.91 151.98 
M 344.56 173.01 345.27 172.5 346.19 171.2 346.78 169.74 346.78 168.83 346.19 167.36 345.27 166.06 344.56 165.56 
M 336.14 123.35 336.96 122.81 337.83 121.68 
M 339.81 137.87 340.63 137.26 341.68 135.68 342.36 133.9 342.36 132.79 341.68 131.01 340.63 129.43 339.81 128.82 
M 344.11 153.03 344.96 152.41 346.04 150.84 346.74 149.05 346.74 147.95 346.04 146.16 344.96 144.58 344.11 143.97 
M 340.57 129.68 341.29 129.09 342.21 127.58 342.8 125.88 342.8 124.82 341.96 122.7 
M 345.19 145.35 345.91 144.7 346.83 143.04 347.43 141.16 347.43 139.99 346.83 138.11 345.91 136.45 345.19 135.8 
M 347.62 129.85 348.42 129.27 349.44 127.76 350.09 126.05 349.99 124.73 
M 353.61 137.9 354.57 137.29 355.79 135.72 356.58 133.94 356.58 132.84 355.79 131.06 354.57 129.49 353.61 128.88 
M 362.59 195.62 362.51 195.58 
M 359.47 145.76 360.26 145.13 361.27 143.52 361.93 141.69 361.93 140.55 361.27 138.72 360.26 137.11 359.47 136.48 
M 363.36 160.37 364.11 159.79 365.09 158.3 365.71 156.61 365.71 155.56 365.09 153.87 364.11 152.38 363.36 151.8 
M 365.02 172.83 365.77 172.32 366.73 171.02 367.34 169.55 367.34 168.64 366.73 167.17 365.77 165.87 365.02 165.36 
M 365.24 184.43 365.98 183.94 366.93 182.7 367.54 181.3 367.54 180.43 366.93 179.02 365.98 177.78 365.24 177.3 
M 367.22 194.8 367.86 193.31 367.86 192.42 367.25 190.97 366.31 189.7 365.57 189.2 
M 367.63 166.58 368.52 166.04 369.67 164.65 370.4 163.08 370.4 162.11 369.67 160.54 368.52 159.15 367.63 158.61 
M 368.53 178.57 369.41 178.08 370.54 176.81 371.27 175.38 371.27 174.49 370.54 173.06 369.41 171.79 368.53 171.3 
M 368.77 190.4 369.65 189.91 370.77 188.65 371.49 187.23 371.49 186.34 370.77 184.92 369.65 183.66 368.77 183.17 
M 362.74 131.24 363.54 130.65 364.72 128.73 
M 366.7 146.01 367.47 145.4 368.44 143.83 369.07 142.04 369.07 140.94 368.44 139.16 367.47 137.58 366.7 136.97 
M 370.28 160.35 371.02 159.77 371.96 158.31 372.57 156.65 372.57 155.62 371.96 153.96 371.02 152.49 370.28 151.92 
M 371.86 172.76 372.59 172.26 373.53 170.97 374.13 169.51 374.13 168.61 373.53 167.15 372.59 165.86 371.86 165.36 
M 371.99 184.27 372.71 183.78 373.63 182.55 374.23 181.15 374.23 180.29 373.63 178.89 372.71 177.65 371.99 177.17 
M 374.29 193.74 374.53 193.15 374.53 192.25 373.94 190.79 373.01 189.51 372.29 189 
M 368.18 138.61 369.07 138.01 370.22 136.49 370.96 134.77 370.96 133.7 370.22 131.98 369.07 130.45 368.18 129.86 
M 371.84 153.05 372.71 152.46 373.83 150.95 374.55 149.24 374.55 148.18 373.83 146.47 372.71 144.96 371.84 144.37 
M 374.38 166.4 375.24 165.86 376.34 164.49 377.06 162.93 377.06 161.97 376.34 160.42 375.24 159.04 374.38 158.51 
M 375.21 178.35 376.07 177.85 377.16 176.59 377.87 175.17 377.87 174.28 377.16 172.86 376.07 171.6 375.21 171.11 
M 375.41 190.16 376.26 189.67 377.35 188.4 378.05 186.97 378.05 186.09 377.35 184.66 376.26 183.39 375.41 182.9 
M 369.79 131.35 370.51 130.78 370.78 130.35 
M 373.48 145.82 374.18 145.22 375.09 143.67 375.67 141.92 375.67 140.84 375.09 139.09 374.18 137.54 373.48 136.94 
M 376.89 160.03 377.6 159.46 378.5 158.01 379.08 156.36 379.08 155.34 378.5 153.69 377.6 152.23 376.89 151.67 
M 378.47 172.46 379.17 171.96 380.08 170.68 380.66 169.22 380.66 168.32 380.08 166.87 379.17 165.58 378.47 165.08 
M 378.52 183.89 379.22 183.41 380.11 182.18 380.69 180.79 380.69 179.92 380.11 178.53 379.22 177.3 378.52 176.82 
M 380.98 192.87 381 191.89 380.43 190.41 379.53 189.11 378.83 188.6 
M 374.73 138.21 375.55 137.62 376.6 136.12 377.28 134.42 377.28 133.37 376.65 131.79 
M 378.3 152.6 379.12 152.01 380.18 150.5 380.87 148.8 380.87 147.75 380.18 146.04 379.12 144.54 378.3 143.95 
M 380.84 165.97 381.68 165.43 382.75 164.06 383.45 162.5 383.45 161.54 382.75 159.99 381.68 158.61 380.84 158.08 
M 381.65 177.87 382.48 177.38 383.54 176.13 384.23 174.7 384.23 173.82 383.54 172.4 382.48 171.15 381.65 170.66 
M 381.8 189.68 382.62 189.18 383.67 187.91 384.35 186.47 384.35 185.58 383.67 184.14 382.62 182.86 381.8 182.37 
M 379.64 145.08 380.29 144.47 381.13 142.92 381.68 141.17 381.68 140.08 381.13 138.33 380.29 136.78 379.64 136.18 
M 383.19 159.46 383.88 158.89 384.76 157.42 385.33 155.75 385.33 154.72 384.76 153.06 383.88 151.59 383.19 151.02 
M 380.65 137.2 381.41 136.61 382.39 135.11 383.02 133.34 
M 384.43 151.89 385.23 151.29 386.25 149.76 386.9 148.03 386.9 146.95 386.25 145.22 385.23 143.69 384.43 143.09 
M 390.35 151.04 391.13 150.42 392.12 148.84 392.76 147.05 392.76 145.94 392.12 144.14 391.13 142.56 390.35 141.94 
M 393.64 187.6 394.39 187.11 395.34 185.86 395.96 184.45 395.96 183.57 395.34 182.16 394.39 180.91 393.64 180.42 
M 395.68 158.38 396.33 157.77 397.17 156.22 397.72 154.45 397.72 153.36 397.17 151.6 396.33 150.04 395.68 149.43 
M 399.4 163.86 400.17 163.32 401.14 161.92 401.77 160.34 401.77 159.36 401.14 157.77 400.17 156.37 399.4 155.83 
M 399.65 174.91 400.4 174.45 401.35 173.26 401.97 171.92 401.97 171.09 401.35 169.75 400.4 168.57 399.65 168.1 
M 396.22 141.24 396.83 140.58 397.61 138.89 398.06 137.16 
M 401.43 157.28 402.05 156.66 402.84 155.08 403.34 153.29 403.34 152.18 402.84 150.39 402.05 148.8 401.43 148.19 
M 403.12 169.27 403.74 168.79 404.52 167.58 405.03 166.2 405.03 165.35 404.52 163.98 403.74 162.76 403.12 162.29 
M 401.67 179.02 402.27 178.58 403.03 177.46 403.53 176.18 403.53 175.39 403.03 174.12 402.27 172.99 401.67 172.55 
M 401.6 190.83 402.07 190.44 402.83 189.15 403.33 187.69 403.33 186.78 402.83 185.32 402.07 184.03 401.47 183.52 
M 401.46 148.36 402.18 147.73 403.11 146.11 403.71 144.28 403.71 143.15 403.11 141.31 402.18 139.7 401.46 139.07 
M 404.83 162.34 405.55 161.79 406.46 160.4 407.05 158.82 407.05 157.84 406.46 156.26 405.55 154.87 404.83 154.32 
M 404.96 173.24 405.69 172.79 406.62 171.61 407.22 170.28 407.22 169.46 406.62 168.13 405.69 166.96 404.96 166.5 
M 404.2 184.16 404.96 183.69 405.93 182.47 406.55 181.09 406.55 180.24 405.93 178.86 404.96 177.65 404.2 177.17 
M 406.07 190.28 405.68 189.76 404.91 189.24 
M 406.56 155.38 407.13 154.77 407.87 153.21 408.34 151.44 408.34 150.35 407.87 148.58 407.13 147.02 406.56 146.41 
M 408.22 167.41 408.8 166.93 409.53 165.72 410.01 164.34 410.01 163.48 409.53 162.11 408.8 160.89 408.22 160.42 
M 406.84 177.28 407.48 176.83 408.29 175.69 408.81 174.4 408.81 173.6 408.29 172.31 407.48 171.17 406.84 170.73 
M 406.83 189.4 407.52 188.89 408.4 187.58 408.97 186.1 408.97 185.19 408.4 183.71 407.52 182.4 406.83 181.89 
M 406.59 146.35 407.3 145.74 408.21 144.19 408.79 142.43 408.79 141.34 408.48 140.41 
M 409.67 160.2 410.35 159.65 411.22 158.26 411.79 156.68 411.79 155.7 411.22 154.12 410.35 152.73 409.67 152.18 
M 410.21 171.7 410.95 171.22 411.9 169.99 412.52 168.59 412.52 167.73 411.9 166.34 410.95 165.1 410.21 164.62 
M 410.13 183.3 410.98 182.81 412.07 181.54 412.77 180.11 412.77 179.23 412.07 177.8 410.98 176.53 410.13 176.04 
M 412.36 189.5 411.92 188.97 411.04 188.45 
M 411.06 152.73 411.62 152.14 412.33 150.64 412.79 148.94 412.79 147.89 412.33 146.18 411.62 144.68 411.06 144.09 
M 412.83 165.27 413.39 164.77 414.12 163.47 414.58 161.99 414.58 161.08 414.12 159.61 413.39 158.31 412.83 157.8 
M 412.95 176.85 413.65 176.35 414.55 175.08 415.13 173.64 415.13 172.75 414.55 171.31 413.65 170.04 412.95 169.55 
M 414.83 188.99 415.75 187.81 416.42 186.3 416.42 185.36 415.75 183.85 414.7 182.52 413.89 181.99 
M 411.59 144.11 412.3 143.54 413.22 142.08 
M 414.21 157.82 414.89 157.27 415.77 155.85 416.33 154.24 416.33 153.25 415.77 151.64 414.89 150.22 414.21 149.67 
M 415.73 170.67 416.5 170.13 417.49 168.77 418.13 167.22 418.13 166.26 417.49 164.71 416.5 163.34 415.73 162.81 
M 417.07 183.64 417.99 183.11 419.18 181.75 419.94 180.21 419.94 179.25 419.18 177.72 417.99 176.36 417.07 175.83 
M 415.48 149.98 416.06 149.42 416.79 147.98 417.26 146.35 417.26 145.34 416.76 143.66 
M 417.46 163.31 418.04 162.75 418.79 161.31 419.27 159.69 419.27 158.68 418.79 157.05 418.04 155.62 417.46 155.06 
M 419.68 177.23 420.41 176.66 421.34 175.2 421.95 173.55 421.95 172.52 421.34 170.87 420.41 169.4 419.68 168.83 
M 419.06 155.81 419.79 155.25 420.71 153.79 421.31 152.14 421.31 151.12 420.71 149.47 419.79 148.01 419.06 147.44 
M 420.56 148.01 421.17 147.46 421.98 145.98 
M 422.76 161.96 423.39 161.36 424.28 159.54 
M 424.28 155.53 423.39 153.71 422.76 153.1 
M 240.34 113.75 266.6 69.69 267.57 70.24 244.39 114.62 
M 256.86 112.61 274.19 79.99 275.19 80.47 260.96 113.2 
M 273.45 111.27 285.83 89.95 286.82 90.45 277.36 112.26 
M 290.07 112.48 298.44 100.73 299.4 101.28 293.86 113.73 
M 306.51 114.85 310.68 110.11 311.66 110.63 310.2 116.07 
M 314.84 116.15 316.65 116.99 
M 265.2 74.78 265.73 77.59 266.16 78.85 266.77 79.97 267.57 80.91 268.58 81.68 269.76 82.29 272.46 83.25 
M 273.72 83.86 275.27 86.82 276.19 88.13 277.23 89.25 278.44 90.17 279.81 90.87 281.32 91.39 284.6 92.09 
M 285.84 92.72 287.58 95.88 288.58 97.29 289.72 98.52 291.03 99.54 292.5 100.36 294.11 100.99 297.6 101.91 
M 298.82 102.6 300.55 105.54 301.53 106.84 302.66 107.94 303.93 108.82 305.35 109.5 306.91 109.98 310.26 110.58 
M 311.5 111.24 311.4 113.36 311.52 114.28 311.82 115.06 312.33 115.66 313.03 116.1 313.91 116.39 316.02 116.69 
M 265.43 76.22 266.16 78.85 266.77 79.97 267.57 80.91 268.58 81.68 271.08 82.8 
M 261.91 85.06 262.48 87.08 262.94 87.93 263.56 88.65 264.33 89.24 266.25 90.11 
M 258.4 93.9 258.79 95.3 259.55 96.4 260.08 96.81 261.41 97.41 
M 274.47 85.37 276.19 88.13 277.23 89.25 278.44 90.17 279.81 90.87 282.93 91.78 
M 271.83 94.98 272.95 96.77 274.42 98.1 275.31 98.56 277.33 99.14 
M 286.68 94.33 288.58 97.29 289.72 98.52 291.03 99.54 292.5 100.36 295.83 101.48 
M 178.17 161.47 182.03 161.72 185.81 161.7 192.28 160.98 198.96 160.81 213.07 160.07 216.69 160.19 220.39 160.07 226.47 159.65 243.65 160.03 246.51 159.7 249.45 159.64 252.94 159.95 256.23 159.84 259.07 160.11 265.99 161.82 272.83 162.92 276.68 164.26 280.44 163.53 284.14 163.55 290.4 164.47 294.16 165.61 297.88 165.17 301.59 165.57 303.23 166.15 284.73 173.77 281.34 174.86 278.12 176.12 275.36 177.85 272.28 179.21 268.74 179.47 265.79 180.31 262.58 180.9 259.13 181.25 252.37 181.58 246.21 182.25 242.96 182.41 239.54 182.86 236.64 183.99 229.91 185.31 226.24 184.88 220.31 184.91 213.75 184.32 210.82 184.36 201.16 183.17 186.46 179.96 183.43 177.32 178.17 174.25 
M 182 163.57 185.76 163.71 192.1 163.21 209.39 163.54 213.25 163.43 216.91 163.56 220.86 164.05 226.74 164.41 229.9 164.35 243.85 165.58 253.44 165.67 256.55 166.3 
M 185.69 165.65 192.41 165.47 195.64 165.77 199.29 165.77 202.72 166.39 217.03 167.44 221.16 168.37 224.69 168.85 227.33 168.9 230.12 169.54 240.29 170.63 246.54 171.64 249.93 172.4 
M 178.17 166.45 181.95 167.17 185.65 167.63 192.63 167.77 199.17 168.32 202.6 169.27 206.05 169.97 209.45 170.26 213.01 170.99 220.32 172.15 223.61 172.89 226.67 174.07 
M 178.17 168.12 185.71 169.61 192.82 170.21 196.07 170.73 202.96 172.2 206.04 173.36 212.71 175.22 216.38 175.87 219.44 176.16 222.54 177.31 
M 178.17 169.78 181.94 170.88 185.82 171.76 189.26 172.33 192.83 173.25 196.44 173.71 199.99 174.55 209.91 177.99 215.93 179.57 218.38 180.61 221.32 181.58 
M 185.92 174.08 189.45 175.08 192.93 176.28 196.72 177.1 200.31 178.21 
M 182.55 174.95 189.8 178.42 
M 243.6 215.23 246.82 221.26 245.97 221.97 240.56 217.81 
M 227.17 214.28 241.84 239.66 240.91 240.27 223.82 216.44 
M 210.92 211.66 222.3 238.92 221.3 239.4 207.32 213.37 
M 201.33 210.13 202.38 216.88 201.35 217.28 197.61 211.56 
M 245.43 221.56 242.95 224.58 241.92 226.15 241.11 227.8 240.54 229.53 240.23 231.34 240.14 233.23 240.37 237.13 
M 239.2 237.88 235.32 236.09 233.36 235.41 231.39 234.96 229.38 234.77 227.35 234.85 225.3 235.15 221.16 236.2 
M 219.9 236.8 217.07 231.29 215.48 228.69 213.73 226.23 211.77 223.94 209.61 221.82 207.28 219.86 202.28 216.21 
M 237.26 236.94 233.36 235.41 231.39 234.96 229.38 234.77 227.35 234.85 223.24 235.63 
M 230.28 228.89 227.75 227.89 225.16 227.48 223.84 227.53 221.16 228.04 
M 403.6 192.58 405.47 198.7 404.51 199.26 400.14 194.58 
M 387.07 194.47 389.3 201 388.35 201.57 383.65 196.53 
M 370.57 196.8 373.98 204.47 373.06 205.09 367.25 199.02 
M 354.25 200.2 359.58 209.73 358.69 210.4 351.06 202.59 
M 338.1 204.17 345.74 216.44 344.86 217.11 334.94 206.6 
M 321.95 208.09 332.21 224.11 331.33 224.78 318.77 210.49 
M 305.73 211.66 318.95 232.42 318.05 233.07 302.5 213.99 
M 296.97 213.38 313.84 239.65 312.93 240.3 293.72 215.69 
M 404.07 198.79 400.59 197.72 398.88 197.4 397.18 197.31 395.52 197.48 393.88 197.92 392.27 198.58 389.08 200.35 
M 387.88 201.07 384.46 200.25 382.79 200.06 381.15 200.09 379.57 200.38 378.04 200.94 376.54 201.71 373.64 203.7 
M 372.48 204.48 369.06 204.08 367.41 204.08 365.84 204.31 364.35 204.79 362.94 205.52 361.59 206.47 359.04 208.78 
M 357.93 209.61 354.48 209.55 352.85 209.72 351.31 210.1 349.87 210.72 348.53 211.58 347.29 212.66 344.98 215.21 
M 343.87 216.06 340.41 216.22 338.77 216.5 337.24 216.98 335.83 217.7 334.54 218.65 333.36 219.81 331.19 222.51 
M 330.07 223.35 326.61 223.66 324.98 224.01 323.47 224.56 322.09 225.33 320.83 226.34 319.69 227.55 317.63 230.34 
M 316.49 231.16 314.38 231.62 313.5 231.97 312.81 232.47 312.33 233.12 312.06 233.93 311.97 234.88 312.15 237.03 
M 342.12 216.1 338.77 216.5 337.24 216.98 335.83 217.7 334.54 218.65 332.25 221.12 
M 328.32 223.47 324.98 224.01 323.47 224.56 322.09 225.33 320.83 226.34 318.64 228.91 
M 315.4 231.36 313.5 231.97 312.81 232.47 312.33 233.12 312.06 233.93 312.02 235.92 
M 309.92 225.17 308.68 225.57 308.23 225.89 307.74 226.84 307.72 228.14 
M 423.17 146.52 427.22 145.93 430.07 144.56 432.78 142.73 442.58 139.64 446.68 137.85 449.09 136.03 451.62 134.83 455.63 132.48 459.71 134.95 463.22 135.9 465.85 136.17 469.1 137.16 474.56 141.29 477.17 143.38 480.23 146.12 483.15 148.36 486.01 150.97 487.86 154.17 488.77 157.36 488.59 160.6 488.82 164.13 488.68 167.23 488.16 170.11 488.66 174 488.49 177.21 487.23 179.26 490 185.25 488.74 188.5 487.72 192.16 486.18 195.22 482.64 196.27 477.81 200.69 474.14 201.51 470.94 202.6 468.25 203.91 466.04 206.22 463.55 208.42 457.65 210.09 454.49 213.4 451.55 211.18 448.6 209.56 445.18 206.67 440.65 204.62 437.6 201.62 434.13 199.35 430.87 196.93 423.17 189.37 
M 426.87 148.12 429.86 146.36 433.07 145.14 436.38 143.32 441.48 142.24 446.02 141 
M 429.96 148.55 433.72 147.72 437.23 145.94 448.57 142.53 
M 423.17 152.94 427.3 152.38 433.94 149.94 438.17 148.96 447.05 145.5 450.57 144.75 455.65 143.41 
M 423.17 155.09 427.33 154.61 430.91 153.87 434.17 152.63 437.28 152.34 444.23 149.74 446.68 149.52 450.24 149.74 455 148.59 457.76 146.95 461.61 145.75 465.46 145.59 468.82 144.43 
M 431.36 156.31 437.16 154.46 440.5 154.56 447.09 153.33 454.28 153.37 
M 434.45 157.98 437.07 157.67 440.64 157.82 451.75 157.18 455.31 157.49 459.38 155.78 463.25 155.22 
M 431.36 160.99 434.5 160.72 437.58 160.72 440.53 160.31 444.36 160.56 448.74 160.28 452.73 161.87 456.12 161.5 459.56 159.58 463.32 158.02 466.61 157.11 470.28 156.86 474.54 157.65 478.49 155.56 482.2 154.7 
M 423.17 163.66 427.83 164.3 431.64 164.17 438.08 163.58 441.26 163.91 444.85 163.77 448.88 164.71 452.81 165.39 456.61 165.61 460.04 164.05 463.49 161.88 
M 427.8 166.59 431.46 167.09 438.29 166.31 442.29 167.29 449.63 168.29 452.82 169.66 456.24 168.85 461.91 166.9 
M 434.84 169.61 442.56 169.92 446.1 170.41 453.44 172.3 459.93 173.5 462.62 172.4 466.19 172.05 469.73 173.5 478.77 172.59 
M 423.17 170.08 431.37 172.46 434.7 172.7 438.72 172.73 442.88 173.22 446.41 173.84 449.84 174.84 453.27 175.49 456.46 176.36 459.95 177.06 462.68 177.45 469.05 177.17 473.58 177.3 
M 427.73 173.66 431.58 175.05 439.08 175.98 446.52 177.48 452.06 178.34 455.48 178.64 458.82 180.26 462.31 182.33 466.23 183.3 469.97 182.69 
M 427.75 175.99 431.3 177.39 435.63 178.45 439.13 179.03 446.7 180.95 449.37 180.75 452.08 181.64 455.73 181.44 458.96 183.11 
M 435.74 180.71 438.86 181.67 443.73 182.45 448.81 184.6 454.63 185.72 459.05 187.07 
M 423.17 178.65 428.09 180.32 442.98 186.29 449.46 188.38 451.56 189.74 454.14 190.68 
M 428.04 182.73 432.18 184.56 435.42 186.29 438.75 188.72 442.13 190.13 445.61 192.01 448.5 193.25 450.49 193.84 454.76 193.39 462.42 198.69 465.62 200.58 468.47 201.62 471.73 202.4 
M 435.01 189.52 438.5 192.41 441.95 193.96 447.09 197.02 449.96 198.1 454.14 198.7 457.85 201.82 462.03 203.51 464.78 204.34 
M 435.03 193.46 439.16 195.36 441.23 197.08 444.18 199.06 447.01 201.81 450.29 203.57 454.95 205.07 
M 423.17 187.22 427.68 190.9 430.91 193.99 434.27 196.32 438.59 198.2 440.46 200.78 444.42 203.7 
M 348.61 124.35 353.43 128.99 362.49 121.21 368.91 119.79 371.11 117.99 374.21 117.08 378.22 118.2 382.04 119.92 384.84 121.25 387.57 123.44 390.12 123.43 392.46 122.76 395.31 123.57 398.25 125.32 401.34 128.76 404.81 133.65 405.16 143.85 401.87 138.18 
M 353.95 125.81 358.19 125.94 
M 359.3 127.26 362.41 127.55 
M 364.65 128.71 367.78 129.14 370.62 127.23 372 123.5 374.17 120.26 
M 370 130.16 373.88 130.66 376.6 128.8 378 126.59 380.16 122.66 
M 375.38 131.48 378.61 131.52 381.85 129.69 
M 380.76 132.8 384.21 131.59 387.61 129.92 
M 386.15 134.09 389.64 132.69 391.98 130.4 
M 391.53 135.4 394.78 134.24 398.8 130.81 
M 396.88 136.84 399.72 136.64 402.71 135.31 
M 45.57 160.85 49.48 158.61 53.59 155.95 65.54 146.82 72.8 142.37 81.02 138.02 89.7 134.23 106.78 126.05 116.31 122.52 125.8 119.85 135.12 117.48 143.47 115.68 151.4 114.48 158.47 113.61 164.17 113.21 167.46 113.27 171.6 118.54 173.21 123.46 173.95 128.27 173.79 132.97 175.17 142.58 175.59 147.35 175.18 152.03 173.72 161.3 172.57 165.88 171 170.41 171.51 175.2 171.11 179.87 169.93 184.45 167.99 188.94 165.59 193.38 162.66 197.75 156.82 201.87 140.51 202.02 128.25 201.69 117.51 200.86 107.32 199.81 97.79 198.44 89.69 196.14 81.83 193.61 74.79 190.88 68.45 187.9 62.35 184.51 61.67 184 
M 58.27 181.44 56.85 180.2 
M 144.11 144.41 143.5 148.45 142.07 152.37 140.43 156.13 138.23 159.53 135.9 162.4 135.34 169.73 135.13 177.62 132.99 180.91 113.87 182.24 98.03 182.85 90.14 182.58 83.26 181.18 76.54 179.18 
M 60.22 183.08 45.41 170.28 41.51 166.41 40.03 164.14 40.62 161.22 43.03 159.76 45.48 160.71 51.58 169.47 62.28 183.45 
M 61.85 184.35 48.26 186 40.1 186.25 34.67 186.62 31.79 186.32 30 184.13 30.4 181.41 32.8 180.04 35.68 180.3 43.74 181.73 61.91 183.28 
M 96.4 170.54 92.46 165.03 90.53 158.54 90.81 151.77 93.27 145.46 97.65 140.29 103.47 136.82 110.1 135.44 116.82 136.27 122.9 139.25 127.69 144.04 130.66 150.12 131.5 156.84 130.11 163.47 126.65 169.29 121.48 173.66 115.17 176.13 108.4 176.41 101.91 174.47 96.4 170.54 
M 124.34 146.43 126.72 151.29 127.39 156.67 126.28 161.97 123.51 166.63 119.37 170.13 114.32 172.1 108.91 172.32 103.72 170.78 99.31 167.63 
M 104.3 160.98 102.72 158.77 101.95 156.18 102.06 153.47 103.05 150.95 104.8 148.88 107.12 147.49 109.77 146.94 112.46 147.27 114.9 148.46 116.81 150.38 118 152.81 118.34 155.5 117.78 158.15 116.39 160.48 114.33 162.23 111.8 163.21 109.1 163.33 106.5 162.55 104.3 160.98 
M 103.06 158.45 107.44 162.83 
M 103.96 156.36 110.85 163.25 
M 104.05 153.45 113.24 162.65 
M 108.3 154.71 115.13 161.55 
M 109.5 152.92 116.64 160.06 
M 110.69 151.12 117.76 158.19 
M 110.29 147.73 118.29 155.73 
M 114.39 148.84 117.65 152.1 
M 47.28 159.85 53.76 166.33 
M 51.42 157.35 57.18 163.11 
M 55.33 154.6 60.57 159.85 
M 59.08 151.7 64.72 157.35 
M 62.86 148.84 68.76 154.74 
M 66.75 146.08 71.15 150.48 
M 70.87 143.55 76.72 149.4 
M 75.11 141.14 79.04 145.07 
M 79.47 138.84 83.9 143.28 
M 83.99 136.72 89.57 142.3 
M 88.62 134.7 93.29 139.37 
M 93.12 132.55 99.66 139.09 
M 97.59 130.37 102.82 135.6 
M 102.11 128.24 107.2 133.34 
M 106.63 126.12 111.81 131.29 
M 111.48 124.31 118.1 130.94 
M 116.33 122.52 120.85 127.04 
M 121.52 121.06 126.5 126.04 
M 126.73 119.62 130.08 122.96 
M 132.03 118.26 136.76 122.99 
M 137.4 116.99 141.19 120.77 
M 142.87 115.81 149.37 122.3 
M 148.62 114.9 153.27 119.55 
M 154.47 114.1 158.86 118.5 
M 160.48 113.47 163.93 116.92 
M 166.92 113.26 168.94 115.27 
M 163.21 193.34 163.85 191.58 165.27 188.69 
M 59.31 153.77 60.58 153.76 62.13 154.42 64.77 156.49 67.16 157.64 67.6 158.03 68 158.74 
M 120.54 199.46 123.65 201.33 
M 126.36 201.54 126.78 200.9 127.04 199.67 
M 157.38 125.76 155.69 124.74 153.68 123.15 151.12 121.85 149.48 121.39 
M 89.93 181.26 88.99 182.46 87.1 182.65 
M 75.29 187.06 75.48 187.5 75.35 187.92 74.92 188.41 74.08 188.93 72.59 189.12 71 188.79 
M 169.04 157.24 169.57 157.61 170.18 157.75 174.25 157.6 
M 90.8 152.08 89.49 150.53 89.07 149.78 88.88 148.94 89.35 144.45 
M 128.47 177.04 128.41 178.41 127.1 181.68 126.62 182.51 
M 129.73 180.9 128.78 180.8 128.35 180.98 126.83 183.28 
M 164.44 131.92 164.62 132.47 165.13 133.09 165.69 133.3 166.08 133 
M 118.44 195.77 119.3 197.32 120.37 198.44 121.33 199.18 124.29 200.72 
M 125.55 197.65 126.7 195.91 128.26 194.83 129.01 193.82 
M 150.22 126.72 149.21 126.39 147.74 126.56 146.94 127.01 145.54 128.26 144.4 128.78 143.07 128.73 140.02 128.12 
M 84.76 193.05 87.23 191.29 91.31 189.26 92.14 189.01 92.98 188.92 94.99 189.16 95.91 189.74 
M 105.64 176.17 105.8 175.63 
M 168.55 187.65 168.05 186.41 167.97 185.51 168.35 185.11 169.28 185.25 
M 166.26 189.39 166.49 188.96 166.2 188.35 
M 159.04 185.44 159.03 186.35 158.43 187.74 158.51 187.91 
M 85.56 194.81 88.21 192.68 91.79 191.69 
M 78.33 153.67 77.4 158.35 77.28 160.03 76.72 160.93 
M 83.25 147.11 83.79 146.33 83.88 145.23 83.82 144.3 83.36 143.58 82.53 143.19 81.5 143.13 80.56 143.59 80.27 144.09 
M 62.51 151.15 62.29 152.07 62.49 152.97 63.37 154.64 64.58 155.94 66.88 157.06 67.48 157.51 67.96 158.34 68.14 159.43 
M 154.98 161.31 154.75 160.32 154.78 159.41 155.73 158.04 155.85 157.52 155.52 155.78 
M 114.84 189.63 114.62 190.43 114.68 190.95 116.18 193 117.02 195.1 
M 127.8 125.87 126.69 126.27 124.86 127.55 124.4 128.56 123.77 131.67 123.72 133.71 123.36 134.2 
M 55.49 172.06 59.18 167.77 59.87 167.18 61.37 166.82 
M 146.56 154.42 146.53 152.54 146 151.26 144.93 149.81 142.93 146.38 139.72 142.49 138.56 140.85 
M 108.71 125.33 109.84 126.74 110.39 127.18 111.31 127.57 112.02 127.65 
M 114.34 126.5 114.42 127 114.29 127.36 
M 49.18 166.09 50.5 163.74 52.32 161.27 54.02 158.56 55.73 156.31 
M 65.13 175.45 67.47 174.98 68.46 174.63 69.14 174.14 69.6 173.54 69.99 172.62 69.94 172.08 69.3 171.42 
M 165.4 184.4 165.32 185.08 164.38 185.65 163.61 186.34 162.63 186.83 
M 58.71 178.75 60.06 177.63 60.65 177.37 62.85 177.19 66.23 177.32 67.21 177.22 68.18 176.97 69.78 176.03 
M 169.32 148.31 170.98 149.71 173.54 150.71 175.22 151.58 
M 61.79 183.9 63.09 185.33 
M 58.61 181.72 58.63 182.6 59.39 182.36 
M 55.38 178.86 55.03 179.54 54.91 180.69 55.47 180.04 56.31 179.7 
M 52.22 176.08 51.48 177.18 51.2 178.78 51.93 177.67 53.22 176.98 
M 49.03 173.37 47.93 174.82 47.48 176.87 48.38 175.31 50.09 174.26 
M 45.85 170.66 44.39 172.46 43.77 174.97 44.83 172.95 46.91 171.56 
M 42.84 167.77 40.84 170.09 40.05 173.06 41.29 170.59 43.85 168.78 
M 40.22 164.44 37.29 167.73 36.34 171.15 37.74 168.22 41.09 165.78 
M 61.24 184.46 63.45 184.57 
M 58.38 182.92 58.5 182.93 
M 53.58 182.52 53.8 182.02 54.61 181.2 54.46 182.05 54.64 182.6 
M 49.25 182.24 49.69 180.78 50.75 179.54 50.35 180.81 50.65 182.32 
M 45.04 181.83 45.58 179.54 46.88 177.88 46.24 179.57 46.57 181.94 
M 40.87 181.3 41.47 178.3 43.02 176.23 42.14 178.33 42.46 181.54 
M 36.76 180.51 37.36 177.06 39.15 174.57 38.03 177.09 38.31 180.81 
M 32.58 180.17 33.25 175.82 35.28 172.91 33.92 175.85 34.17 180.16 
M 40.83 186.22 48.32 188.77 53.54 190.23 58.96 191.41 64.6 192.26 70.38 192.84 81.83 193.61 
M 57.66 189.46 56.54 189.93 55.78 190.71 
M 167.84 113.26 177 122.43 
M 175.34 111.9 184.61 121.17 
M 183.08 110.77 190.1 117.79 
M 191.12 109.94 201.78 120.61 
M 199.6 109.56 212.16 122.12 
M 209.05 110.15 220.09 121.19 
M 219.49 111.72 226.73 118.96 
M 230.21 113.57 240.92 124.29 
M 240.05 114.55 250.5 125 
M 248.77 114.4 258.61 124.24 
M 256.93 113.69 266.08 122.85 
M 264.88 112.78 271.69 119.59 
M 273.15 112.18 284.02 123.06 
M 282.31 112.48 293.46 123.63 
M 292.23 113.53 299.14 120.44 
M 302.53 114.96 309.4 121.84 
M 312.88 116.45 323.05 126.62 
M 323.72 118.42 330.68 125.38 
M 335.21 121.05 347.65 133.49 
M 346.98 123.95 356.94 133.91 
M 359.1 127.2 369.16 137.27 
M 371.21 130.45 383.23 142.47 
M 382.95 133.33 395.92 146.3 
M 394.76 136.27 406.58 148.09 
M 407.4 140.04 416.96 149.6 
M 422.39 146.17 425.37 149.15 
M 242.81 113.46 243.4 114.63 
M 245.49 108.84 248.2 114.27 
M 248.16 104.21 253.01 113.9 
M 250.84 99.59 253.32 104.55 
M 275.91 109.84 277.15 112.32 
M 274.62 97.29 282.34 112.73 
M 274.12 86.31 287.54 113.14 
M 281.69 91.48 292.76 113.61 
M 290.51 99.13 298.12 114.36 
M 296.78 101.71 299.26 106.67 
M 217.13 291.39 215.23 297.7 
M 217.13 291.39 219.83 291.39 220.64 291.7 220.85 292 220.97 292.6 220.79 293.2 220.31 293.8 219.92 294.1 218.93 294.39 
M 216.23 294.39 218.93 294.39 219.74 294.7 220.07 295.6 219.8 296.5 218.93 297.39 217.94 297.7 215.23 297.7 
M 222.8 293.5 221.54 297.7 
M 222.26 295.3 222.83 294.39 223.61 293.8 224.3 293.5 225.2 293.5 
M 230 293.5 228.74 297.7 
M 229.73 294.39 229.31 293.8 228.8 293.5 227.9 293.5 227.21 293.8 226.43 294.39 225.86 295.3 225.68 295.89 225.71 296.8 226.13 297.39 226.64 297.7 227.54 297.7 228.23 297.39 229.01 296.8 
M 236.33 291.39 234.44 297.7 
M 235.43 294.39 235.01 293.8 234.5 293.5 233.6 293.5 232.91 293.8 232.13 294.39 231.56 295.3 231.38 295.89 231.41 296.8 231.83 297.39 232.34 297.7 233.24 297.7 233.93 297.39 234.71 296.8 
M 239.3 293.5 238.61 293.8 237.83 294.39 237.26 295.3 237.08 295.89 237.11 296.8 237.53 297.39 238.04 297.7 238.94 297.7 239.63 297.39 240.41 296.8 240.98 295.89 241.16 295.3 241.13 294.39 240.71 293.8 240.2 293.5 239.3 293.5 
M 243.8 293.5 242.54 297.7 
M 243.44 294.7 244.61 293.8 245.3 293.5 246.2 293.5 246.71 293.8 246.74 294.7 245.84 297.7 
M 255.8 293.5 254.36 298.3 253.79 299.2 252.71 299.8 251.81 299.8 251.3 299.5 
M 255.53 294.39 255.11 293.8 254.6 293.5 253.7 293.5 253.01 293.8 252.23 294.39 251.66 295.3 251.48 295.89 251.51 296.8 251.93 297.39 252.44 297.7 253.34 297.7 254.03 297.39 254.81 296.8 
M 258.83 291.39 256.94 297.7 
M 263.89 293.5 262.64 297.7 
M 263.63 294.39 263.21 293.8 262.7 293.5 261.8 293.5 261.11 293.8 260.33 294.39 259.76 295.3 259.58 295.89 259.61 296.8 260.02 297.39 260.53 297.7 261.44 297.7 262.13 297.39 262.9 296.8 
M 265.7 293.5 266.24 297.7 
M 269.3 293.5 266.24 297.7 
M 274.39 293.5 273.14 297.7 
M 274.13 294.39 273.7 293.8 273.2 293.5 272.3 293.5 271.61 293.8 270.83 294.39 270.26 295.3 270.08 295.89 270.11 296.8 270.52 297.39 271.04 297.7 271.94 297.7 272.63 297.39 273.4 296.8 
M 280.73 291.39 278.83 297.7 
M 279.83 294.39 279.4 293.8 278.89 293.5 278 293.5 277.31 293.8 276.52 294.39 275.95 295.3 275.77 295.89 275.81 296.8 276.23 297.39 276.74 297.7 277.64 297.7 278.33 297.39 279.11 296.8 
M 282.83 291.39 283.03 291.7 283.43 291.39 283.22 291.1 282.83 291.39 
M 282.5 293.5 281.24 297.7 
M 288.2 293.5 286.94 297.7 
M 287.93 294.39 287.51 293.8 287 293.5 286.1 293.5 285.4 293.8 284.63 294.39 284.06 295.3 283.88 295.89 283.9 296.8 284.33 297.39 284.83 297.7 285.74 297.7 286.43 297.39 287.2 296.8 
M 291.23 291.39 289.33 297.7 
M 293 293.5 292.1 296.5 292.13 297.39 292.64 297.7 293.53 297.7 294.23 297.39 295.39 296.5 
M 296.3 293.5 295.03 297.7 
M 301.43 294.39 301.31 293.8 300.5 293.5 299.6 293.5 298.61 293.8 298.13 294.39 298.25 295 298.76 295.3 300.16 295.6 300.68 295.89 300.7 296.8 300.23 297.39 299.24 297.7 298.33 297.7 297.52 297.39 297.4 296.8 
M 303.02 297.1 302.63 297.39 302.83 297.7 303.23 297.39 303.02 297.1 
"/></svg>
