<svg xmlns="http://www.w3.org/2000/svg" width="520" height="320"><rect x="0" y="0" width="520" height="320" fill="floralwhite"/><rect x="10" y="10" width="500" height="300" stroke="black" stroke-width="1" fill="none"/><path stroke="black" stroke-width="1" fill="none" stroke-linecap="round" stroke-linejoin="round" d="
M 133.02 141.41 146.5 139.39 157.42 138.11 190.27 134.87 234.16 131.69 245.15 131.1 267.14 130.24 278.14 130.15 289.13 130.55 300.1 131.39 311.04 132.61 321.93 134.13 354.57 139.03 376.22 143 386.93 145.52 397.46 151.95 
M 397.46 198.13 383.56 205.31 372.79 207.54 361.91 209.15 340.07 211.87 318.34 215.32 307.41 216.59 296.44 217.44 274.47 218.66 252.54 220.51 241.56 221.12 230.56 220.84 219.58 220.2 208.57 220.13 186.59 221.13 175.6 220.64 153.65 219.1 143.3 218.58 
M 206.67 167.42 208.19 167.16 212.36 165.9 
M 218.89 165.17 220.78 165.24 227.08 166.07 
M 235.99 167.69 240.43 168.45 
M 244.66 168.98 250.88 169.61 256.68 169.72 
M 260.33 169.55 265.65 169.13 270.58 168.3 
M 273.79 167.68 278.7 166.94 286.04 165.03 
M 288.97 164.34 293.36 163.35 296.37 162.85 299.84 162.82 307.4 163.46 315.58 163.23 
M 318.88 163.24 324.13 163.66 327.82 164.16 339.2 166.21 342.7 166.66 348.66 166.64 351.99 167.01 369.54 169.68 372.55 169.62 377.8 168.64 380.6 168.31 383.68 168.2 386.97 168.4 392.02 168.99 
M 137.23 147.6 136.09 148.24 
M 147.43 205.07 149.32 208.32 
M 151.18 211.46 152.95 214.42 
M 152.18 155.44 149.2 157.67 
M 146.16 159.94 143.26 162.42 
M 150.47 190.2 155.98 200.29 
M 157.72 203.38 159.58 206.52 
M 164.32 214.73 165.95 217.45 
M 174.72 143.76 172.48 146.05 
M 170.04 148.21 167.57 150.41 
M 162.74 155.21 157.65 160.13 
M 154.93 162.57 151.97 165.24 
M 166.77 198.86 168.27 201.63 
M 174.73 212.72 176.44 215.48 
M 186.99 142.09 185.83 143.14 183.07 147.01 
M 181.11 149.51 178.9 151.8 
M 176.53 153.99 168.98 160.6 
M 180.7 202.71 184.22 208.47 
M 185.86 211.23 188.99 216.26 
M 192.27 151.07 191.37 152.38 189.3 154.72 185.43 157.56 
M 182.85 159.51 182.3 159.95 
M 192.39 201.21 193.12 202.33 
M 195.19 205.47 197.48 208.84 
M 202.24 215.99 203.45 217.87 
M 197.89 155.64 195.69 157.84 
M 205.97 202.63 208.39 206.09 
M 210.96 209.76 213.57 213.56 
M 215.96 217.22 217.05 219 
M 217.85 146.82 215.3 148.96 
M 212.77 151.05 203.81 159.96 
M 201.39 161.95 199.38 163.57 
M 207.91 188.85 210.18 192.02 
M 215.55 199.3 218.34 203.13 
M 220.96 206.87 223.21 210.3 
M 226.74 216.66 227.72 218.51 
M 225.67 147.65 224.52 148.91 221.82 150.96 218.91 152.73 216.31 154.73 215.18 155.86 
M 213.07 158.27 211.23 160.88 
M 206.66 166.22 204.88 167.71 
M 216.28 184.87 223.22 194.15 226.97 199.51 
M 229.36 203.07 232.62 208.24 235 212.77 
M 242.33 142.09 239.65 144.5 
M 226.19 155.32 223.53 157.28 
M 220.85 159.16 216.92 162 213.75 165.47 
M 220.21 174.91 222.35 177.91 
M 227.33 184.75 234.51 194.59 236.9 198.18 240.93 204.88 243.36 209.57 
M 244.9 212.72 247.07 217.45 247.9 219.71 
M 251.63 143.89 246.11 148.63 
M 243.39 150.91 234.23 158.64 229.01 162.63 225.27 165.78 
M 236.01 180.6 238.35 183.95 
M 243.11 190.96 245.93 195.65 248.28 200.09 
M 249.64 202.95 251.48 207.17 252.84 211.1 
M 253.63 213.68 254.89 217.16 
M 260.68 145.33 259.47 146.75 256.83 149.3 252.78 152.89 
M 248 158.05 245.75 160.64 
M 243.53 163.18 239 168.27 
M 249.21 183.08 252.22 188.52 
M 253.56 191.19 254.79 193.84 
M 255.86 196.39 256.81 198.91 
M 258.52 203.96 259.97 208.06 262.2 213.03 
M 263.34 215.56 263.7 216.39 
M 269.32 146.75 264.79 152.72 
M 262.5 155.6 259.07 159.79 256 164.14 
M 253.97 166.96 252.41 169.01 
M 258.81 180.68 260.74 185.3 
M 261.67 187.69 263.94 193.88 265.83 200.08 
M 266.59 202.65 267.55 205.42 
M 268.78 208.49 271.31 214.48 
M 281.52 141.72 280.88 143.76 279.97 145.55 
M 277.92 148.84 275.56 151.82 
M 273.24 154.79 269.03 160.99 
M 267.06 164.14 266.08 165.69 263.32 169.35 
M 269.3 181.68 270.85 185.63 271.64 188.1 275.25 202.61 276.75 207.78 278.17 211.68 
M 294.18 132.63 293.15 134.25 292.28 136.03 
M 289.2 143.67 287 149.54 285 152.93 277.88 161.78 273.5 167.7 
M 279.06 180.53 280.84 185.9 
M 281.35 188.26 281.69 190.48 
M 282.12 192.81 283.96 199.36 288.16 211.33 
M 300.56 139.45 298.48 142.69 
M 294.41 149.36 291.53 154.57 289.28 157.71 286.81 160.61 284.53 163.66 283.15 165.77 
M 288.09 178.68 289.66 183.08 290.42 186.71 
M 290.8 189.01 291.76 192.8 293.53 197.33 
M 294.52 200.11 295.57 203.73 296.76 206.55 297.89 208.65 
M 318.08 133.59 315.16 137.02 310.01 142.17 305.09 147.81 295.19 159.44 292.13 163.6 
M 298.47 180.1 300.61 186.9 305.73 199.88 
M 307.09 202.89 310.6 210.18 
M 325.59 136.68 321.05 142.07 
M 318.79 144.88 316.52 147.75 
M 314.18 150.61 308.28 157.96 305.58 160.64 302.39 163.04 
M 307.07 174.03 309.31 180.8 311.97 187.91 
M 315.82 196.85 320.38 205.37 323.5 210.6 
M 335.41 138.66 330.41 143.33 
M 325.63 148.46 317.65 158.42 313.19 163.33 
M 317.39 173.71 325.96 193.35 331.05 203.05 334.62 209.33 
M 344.34 144.84 338.74 148.81 
M 336.15 151.08 327.58 159.95 323.52 163.58 
M 330.95 178.67 332.62 182.01 
M 334.19 185.21 342.56 201.88 346.45 209.11 
M 354.85 148.15 349.16 154.26 345.27 157.57 
M 342.77 159.93 341.54 161.13 336.9 164.32 
M 342.33 179.87 344.16 183.24 
M 345.91 186.49 357.52 208.22 
M 361.97 152.82 361.01 154.2 358.7 156.6 356.12 158.75 350.5 162.66 347.79 164.77 345.69 166.63 
M 351.31 177.34 358.83 189.56 364.88 200.44 369.71 207.99 
M 372.54 151.66 371.21 152.7 369.05 155.27 367.12 158.05 364.91 160.56 359.69 164.79 355.72 167.54 
M 360.99 175.9 363.25 179.34 
M 365.53 182.76 368.5 187.38 370.67 191.12 
M 372.01 193.47 374.35 197.28 380.48 205.95 
M 384.04 154.56 382.81 155.7 377.33 159.6 374.95 161.86 370.46 166.59 366.66 169.35 
M 370.69 173.88 374.95 178.68 
M 376.71 180.65 378.36 182.48 
M 380.14 184.41 393.63 198.3 
M 208 171.7 206.82 171.32 204.42 169.81 203.16 169.38 
M 350.13 154.82 349.43 154.72 347.41 153.97 347.07 154.02 
M 243.48 197.62 242.18 197.79 240.5 198.55 240.37 198.25 
M 181.96 142.16 182.4 139.93 183.56 137 184.24 136.15 184.49 135.47 
M 208.61 171.07 207.47 170.68 204.49 168.84 202.59 168.82 202.05 169.1 
M 271.03 207.32 268.39 207.15 267.84 206.93 
M 203.68 166.24 201.12 167.99 
M 304.4 132.74 302.29 132.81 301.61 132.98 300.97 133.35 300.49 133.87 300.23 134.88 300.43 136.83 300.35 137.62 
M 159.61 199.17 158.58 198.41 156.8 197.76 155.65 196.98 154.24 195.07 153.48 193.32 
M 153.43 193.22 153.29 192.96 
M 139.28 143.6 139.56 142.96 139.58 142.02 140.1 140.94 
M 172.19 153.45 170.92 153.39 170 153.63 167.5 155.17 165.27 156.31 
M 187.3 140.8 185.82 138.45 185.57 137.63 185.69 135.8 185.51 135.36 
M 202.6 209.87 202.98 208.89 204.17 206.75 205.43 205.79 205.57 205.37 
M 259.05 189.65 258.43 189.07 258.11 188.28 257.59 185.7 257.28 184.98 256.86 184.5 255.52 184 253.69 183.84 
M 192.37 158.84 188.88 156.61 186.32 154.08 186.05 152.99 186.12 150.7 185.93 148.99 
M 343.39 152.85 342.93 153.52 341.62 154.4 340.81 155.46 
M 302.63 160 301.43 160.24 301.06 160.07 
M 269.51 164.1 269.59 162.18 270.07 160.34 272.81 154.64 
M 269.69 164.61 269.68 162.17 270.12 160.29 272.62 155.04 
M 320.19 134.84 320.67 134.41 320.78 133.97 
M 349.41 147.65 350.31 147.54 352.64 148.25 354.41 148.03 354.88 147.87 355.51 147.34 356.13 146.03 
M 251.15 162.41 248.79 159.98 247.66 159.31 246.03 157.1 
M 390.36 192.07 387.91 194.26 386.18 195.22 383.5 195.09 381.89 195.52 
M 224.77 144.73 227.31 147.48 228.84 148.89 229.23 149.5 229.59 150.63 
M 265.5 140.64 266.12 140.1 268.27 138.79 271.58 135.76 275.06 133.24 
M 245.48 151 243.53 150.46 242.32 150.83 
M 276.76 196.51 276.41 197.02 276.35 197.41 276.49 199.21 276.99 200.24 278.05 201.06 281.95 202.82 
M 332.43 160.92 332.45 161.72 332.93 162.39 
M 250.19 151.85 249.51 152.37 249.03 152.53 247.47 152.63 246.79 152.43 245.96 151.79 244.57 151.03 
M 342.55 154.51 341.68 154.77 340.05 156.31 339.65 156.88 339.31 157.9 
M 245.13 190.57 245.99 190.01 246.93 189.77 247.25 189.42 247.06 188.8 246.05 188.46 
M 207.5 134.62 205.91 136.22 204.87 137.97 
M 267.07 188.54 266.93 186.52 267.63 184.89 
M 315.06 145.08 313.8 144.77 312.84 144.9 307.9 147.5 
M 148.86 212.01 150.86 211.84 152.2 211.5 153.53 210.51 155.07 208.93 157.8 206.89 
M 192.72 133.69 247.07 43.25 247.84 43.7 196.03 134.36 
M 206.03 132.81 244.64 62.06 245.43 62.47 209.31 133.44 
M 219.34 131.97 245.26 79.38 246.07 79.76 222.61 132.53 
M 232.67 131.06 249.15 95.08 249.97 95.42 235.91 131.59 
M 246.01 130.42 255.56 108.98 256.39 109.3 249.22 130.94 
M 259.36 129.93 263.84 120.63 264.69 120.92 262.53 130.39 
M 273.91 129.62 275.45 130.09 
M 242.6 52.86 241.06 56.35 240.05 59.9 239.85 61.71 239.85 63.54 240.05 65.39 240.78 69.13 
M 241.78 69.66 240.83 73.06 240.53 74.75 240.42 76.42 240.52 78.09 241.33 81.38 242.67 84.64 
M 243.69 85.12 243.43 88.44 243.69 91.62 244.11 93.13 244.74 94.57 245.55 95.97 247.5 98.67 
M 248.54 99.11 248.86 102.3 249.67 105.24 250.34 106.58 251.2 107.82 252.24 108.97 254.61 111.12 
M 255.66 111.53 256.47 114.46 257.7 117.06 258.56 118.17 259.59 119.16 260.77 120.03 263.4 121.56 
M 264.46 121.93 266.08 124.62 268.03 126.88 269.19 127.76 270.48 128.48 271.89 129.06 274.91 129.92 
M 241.8 54.6 240.46 58.11 240.05 59.9 239.85 61.71 239.85 63.54 240.38 67.26 
M 238.6 60.78 237.37 64.02 236.81 67.33 236.81 69.02 237.3 72.45 
M 235.41 66.96 234.29 69.92 233.77 72.96 233.78 74.5 234.22 77.65 
M 232.22 73.14 231.2 75.83 230.88 77.2 230.74 79.99 231.14 82.84 
M 229.03 79.31 228.11 81.73 227.83 82.96 227.7 85.47 228.06 88.03 
M 225.84 85.49 225.03 87.64 224.78 88.73 224.66 90.95 224.98 93.23 
M 222.65 91.67 221.94 93.54 221.61 95.46 221.9 98.42 
M 219.46 97.85 218.67 100.26 218.58 101.92 218.82 103.61 
M 216.27 104.03 215.61 106.03 215.54 107.4 215.74 108.81 
M 241.27 71.36 240.53 74.75 240.42 76.42 240.52 78.09 240.83 79.74 241.96 83.01 
M 238.1 78.56 237.45 81.55 237.44 84.51 237.71 85.97 238.71 88.86 
M 234.93 85.77 234.37 88.36 234.36 90.93 234.6 92.19 235.47 94.7 
M 231.77 92.97 231.29 95.17 231.28 97.34 231.48 98.42 232.22 100.55 
M 228.6 100.18 228.21 101.98 228.2 103.76 228.97 106.39 
M 225.43 107.38 225.08 109.49 225.25 110.87 225.72 112.24 
M 243.53 86.79 243.47 90.06 243.69 91.62 244.11 93.13 244.74 94.57 246.49 97.33 
M 240.72 94.73 240.67 97.43 240.85 98.72 241.72 101.15 243.16 103.43 
M 237.91 102.67 237.87 104.8 238.29 106.79 238.7 107.73 239.83 109.53 
M 235.1 110.62 235.07 112.17 235.38 113.63 236.51 115.62 
M 248.67 100.72 249.18 103.81 249.67 105.24 250.34 106.58 251.2 107.82 253.39 110.06 
M 245.92 111.44 246.26 113.45 246.57 114.38 247.57 116.05 248.99 117.51 
M 256.03 113.02 257.01 115.82 257.7 117.06 258.56 118.17 259.59 119.16 262.05 120.82 
M 152.81 167.92 181.37 157.22 181.71 158.04 154.05 170.88 
M 152.97 171.43 206.35 156.74 206.61 157.6 153.89 174.51 
M 153.14 174.96 206.29 166.35 206.45 167.22 153.72 178.12 
M 153.31 178.51 212.18 175.25 212.24 176.14 153.55 181.71 
M 153.48 182.07 214.17 185.19 214.14 186.08 153.38 185.28 
M 153.65 185.65 211.19 194.91 211.07 195.79 153.21 188.84 
M 153.82 189.26 205.7 203.52 205.48 204.39 153.04 192.37 
M 158.3 193.58 182.17 203.45 181.86 204.28 152.87 194.8 
M 178.94 159.32 183.91 160.22 188.84 160.58 191.29 160.46 193.73 160.13 196.17 159.61 201.01 158.21 
M 201.33 159.29 200.11 161 199.67 161.86 199.42 162.73 199.38 163.61 199.91 165.4 200.97 167.21 
M 201.18 168.31 201.38 170.59 201.62 171.62 202.01 172.55 202.58 173.36 204.22 174.62 206.29 175.58 
M 206.37 176.7 205.64 178.75 205.42 180.7 205.62 181.61 206.02 182.47 206.6 183.3 208.1 184.88 
M 208.07 186 206.39 187.42 205.23 189 204.94 189.89 204.85 190.84 204.93 191.85 205.44 193.98 
M 205.28 195.1 203.28 196.01 201.71 197.22 201.18 198 200.82 198.89 200.62 199.89 200.51 202.1 
M 200.23 203.19 195.64 201.84 191.03 201.03 188.71 200.93 186.38 201.04 184.04 201.34 179.35 202.28 
M 181.43 159.81 186.38 160.5 188.84 160.58 191.29 160.46 193.73 160.13 198.59 158.95 
M 200.68 160.14 199.67 161.86 199.42 162.73 199.38 163.61 199.55 164.5 200.41 166.3 
M 201.25 169.47 201.62 171.62 202.01 172.55 202.58 173.36 203.32 174.04 205.22 175.12 
M 205.97 177.73 205.44 179.74 205.42 180.7 205.62 181.61 206.02 182.47 207.31 184.1 
M 207.2 186.7 205.72 188.18 205.23 189 204.94 189.89 204.85 190.84 205.15 192.91 
M 204.25 195.53 202.42 196.56 201.71 197.22 201.18 198 200.82 198.89 200.54 200.97 
M 197.94 202.48 193.34 201.34 191.03 201.03 188.71 200.93 186.38 201.04 181.7 201.77 
M 205.28 219.01 210.74 224.95 210.17 225.64 203.25 221.5 
M 192.11 219.97 209.52 241.09 208.85 241.69 189.72 222.11 
M 178.9 219.93 193.29 245.67 192.53 246.13 176.16 221.61 
M 165.07 219.11 167.16 226.89 166.34 227.25 162.12 220.37 
M 209.48 225.23 207.97 228.14 206.98 231.12 206.79 232.65 206.81 234.21 207.02 235.78 207.78 238.98 
M 206.94 239.73 203.34 239.36 201.58 239.34 199.85 239.51 198.18 239.88 194.96 241.23 191.85 243.09 
M 190.9 243.68 186.25 238.85 181.29 234.46 178.63 232.5 175.85 230.72 172.95 229.09 166.95 226.11 
M 205.13 239.51 201.58 239.34 199.85 239.51 198.18 239.88 196.55 240.46 193.4 242.12 
M 200.25 235.17 197.53 235.04 194.92 235.46 193.67 235.9 191.26 237.17 
M 195.37 230.83 193.48 230.74 191.66 231.03 189.12 232.22 
M 358.21 209.05 362.35 219.38 361.56 219.8 355.37 210.55 
M 344.9 210.61 350.23 222.36 349.45 222.8 342.11 212.2 
M 331.64 212.56 340.15 228.64 339.39 229.11 328.9 214.24 
M 318.43 214.69 331.38 238.43 330.62 238.89 315.68 216.35 
M 305.15 216.12 323.36 251.1 322.58 251.53 302.35 217.69 
M 287.02 217.28 312.74 266.31 311.96 266.74 284.21 218.83 
M 360.94 218.88 358.21 218.26 356.88 218.13 355.59 218.18 354.34 218.43 351.96 219.55 349.69 221.18 
M 348.72 221.74 346.06 221.91 343.67 222.56 342.62 223.15 341.68 223.92 340.83 224.86 339.3 227.04 
M 338.34 227.62 335.69 228.7 334.49 229.35 333.42 230.14 332.5 231.08 331.1 233.38 330.09 236.06 
M 329.13 236.64 326.5 238.42 324.31 240.51 323.46 241.73 322.8 243.07 322.28 244.51 321.54 247.6 
M 320.56 248.15 317.34 250.39 315.88 251.62 314.56 252.96 313.4 254.43 311.57 257.75 310.17 261.4 
M 359.57 218.53 356.88 218.13 355.59 218.18 354.34 218.43 353.13 218.9 350.82 220.33 
M 347.37 221.79 344.82 222.16 343.67 222.56 342.62 223.15 341.68 223.92 340.05 225.92 
M 336.99 228.13 334.49 229.35 333.42 230.14 332.5 231.08 331.73 232.17 330.57 234.69 
M 332.32 223.35 330.7 224.14 329.41 225.26 328.91 225.97 328.15 227.61 
M 327.78 237.51 325.33 239.41 324.31 240.51 323.46 241.73 322.8 243.07 321.88 246.04 
M 323.73 232.54 321.84 234 320.42 235.78 319.9 236.8 319.2 239.08 
M 319.67 227.57 317.82 229.17 317.01 230.54 316.52 232.12 
M 318.92 249.25 315.88 251.62 314.56 252.96 313.4 254.43 312.41 256.03 310.84 259.56 
M 314.68 243.69 312.17 245.64 310.13 247.96 309.31 249.29 308.01 252.19 
M 310.44 238.13 308.46 239.67 307.6 240.54 306.21 242.54 305.18 244.83 
M 306.19 232.57 304.75 233.69 303.57 235.03 302.36 237.47 
M 397.46 151.95 400.12 151.51 407.35 147.97 411.78 144.97 414.72 143.69 419.33 140.92 421.61 139.31 424.71 137.96 426.87 136.41 428.64 135.49 430.38 133.78 435.4 130.34 438.5 128.91 440.56 127.6 441.97 127.25 443.79 126.31 445.86 124.8 448.6 123.7 453.29 120.95 456.71 117.72 459.22 115.61 461.77 113.79 464.85 112.53 468.45 110.28 480.34 113.09 487.48 120.52 488.34 122.72 489.71 128.23 489.57 130.24 488.97 132.68 488.95 135.69 488.61 138.38 487.61 140.66 486.32 143.02 485.33 145.68 483.79 147.8 483.02 150.68 481.92 153.25 480.4 155.4 478.1 156.77 476.53 158.88 475.16 164.88 473.27 166.74 471.56 168.79 469.66 170.56 469.9 173.52 469.76 178.83 469.85 180.73 471.86 186.1 471.95 187.92 473.98 195.39 475.28 197.53 480.32 204.34 482.24 207.18 487.06 216.36 488.39 219.03 489.01 224.2 490 227.46 487.86 231.93 486.3 233.89 484.69 239.35 480.1 242.27 478.42 242.73 467.35 247.27 464.96 246.4 460.34 244.1 458.15 242 455.58 239.91 453.53 238.68 451.55 238.02 449.56 235.6 446.72 232.57 441.75 228.24 439.07 227.53 437.55 226.04 436.24 224.46 434.41 223.33 432.1 222.18 429.59 221.34 427.31 219.05 424.9 216.97 422.77 214.53 419.94 212.92 417.29 211.64 412.85 208.78 407.97 206.37 405.43 204.68 397.46 198.13 
M 397.46 154.89 400.45 154.51 402.92 153.6 407.88 151.07 413.08 148.12 418.05 145.76 420.28 145.32 422.96 143.9 425.98 143.82 430.97 140.15 432.59 137.71 434.25 136.55 437.15 135.9 442.37 135.08 444.63 133.84 447.23 131.3 449.48 129.77 451.31 129.53 452.8 129.06 
M 397.46 157.83 400.81 157.36 409.15 155.07 411.49 154.04 413.72 152.3 415.87 151.27 419.06 150.07 422.05 149.37 424.38 148.16 427.39 147.16 429.62 147.44 434.36 143.38 437.21 142.39 439.96 142.04 442.92 140.2 445.12 139.48 448.65 137.13 451.12 136.19 456.39 134.68 458.52 133.54 460.92 131.95 462.79 131.3 466.05 129.71 467.65 128.63 469.8 126.57 472.85 125.75 476.36 124.53 
M 403.76 159.79 406.48 159.26 414.78 157.11 422.51 153.35 427.46 151.88 429.69 151.39 432.42 151.52 434.65 151.31 438.17 149.56 444.46 147.34 446.52 146.23 448.67 144.13 449.59 142.98 454.47 142.28 
M 400.84 163.41 404.07 163.01 407.11 162.84 409.83 162.18 415.25 161.45 417.95 160.58 420.08 159.45 421.79 158.28 424.44 157.26 427.43 156.94 430.22 156.93 432.82 156.37 435.68 156.02 438.34 155.23 444.65 154.07 447.07 152.76 449.36 151.83 452.57 150.92 454.68 150.09 456.93 150.37 
M 404.04 165.91 407.13 165.51 409.92 165.55 415.23 165.32 418.11 164.93 420.51 163.99 422.47 162.58 427.79 161.65 430.62 162.07 434.25 161.91 439.21 159.58 442.06 158.44 445.04 158.13 447.29 158.39 449.37 157.63 451.3 156.62 455.47 156.18 459.21 156.21 461.21 157.39 463.82 157.07 465.92 155.3 468.38 154.46 471.55 154.46 
M 407.15 168.92 415.63 169.49 418.32 169.45 420.33 169.16 425.75 168.9 427.92 168.28 441.58 166.72 
M 397.46 172.54 400.92 173.09 406.99 172.52 412.2 172.38 414.67 172.86 417.95 172.79 426.22 173.73 429.87 173.55 435.42 172.5 
M 401.13 176.19 407.04 176.44 409.59 176.18 414.57 176.16 417.5 177.2 421.34 178.17 425.15 179.82 427.48 179.68 429.69 178.79 432.17 179.35 435.01 179.14 438.96 178.07 441.6 177.53 444.52 177.96 447.6 177.55 451.6 177.99 454.56 179 458.24 179.93 460.66 181.03 
M 401.14 179.46 412.31 180.92 426.58 183.67 430 183.06 435.68 184.04 438.58 183.92 441.29 183.56 445.05 183.48 448.38 184.13 452.63 185.63 454.83 186.13 457.33 186.95 459.86 188.48 463.38 188.82 
M 404.3 183.56 410.23 184.92 412.63 185.13 417.33 186.47 420.85 186.94 422.93 187.57 435.88 189.12 440.89 189.96 444.31 191.09 447.32 191.35 449.21 191.25 450.96 191.81 452.64 193.37 455.69 194.3 458.23 194.12 460.88 194.28 463.41 194.71 469.18 194.44 471.81 195.08 
M 397.46 184.31 403.93 186.99 406.94 187.86 411.93 188.9 417.23 190.49 420.47 190.69 422.64 191.55 425.39 192.07 428.63 191.92 430.79 192.85 435.47 193.92 439.09 195.6 441.92 197.79 450.61 199.7 452.9 199.59 459.35 200.46 461.94 199.92 463.92 200.16 466.21 201.86 467.88 203.83 
M 397.46 187.25 403.35 190.05 406.03 190.96 416.95 194.18 419.62 194.52 422.02 195.32 424.61 196.59 427.02 197.22 429.54 198.74 433.01 199.79 436.06 201.36 439.24 202.24 447.81 204.12 450.09 205.23 452.88 206.3 455.35 207.75 458.37 207.86 460.16 207.31 462.13 207.61 
M 400.64 192 403.29 193.41 408.63 195.72 411.5 196.76 416.72 198.19 419.2 199.21 421.48 200.43 423.69 201.89 431.7 206 440.48 209.23 442.51 210.46 451.09 214.08 454.61 214.75 456.78 215.7 459.37 215.72 461.59 217.19 464.53 218.36 466 220.6 471.53 223.03 473.97 223 481.63 226.46 483.64 227.87 
M 400.5 194.99 402.94 196.69 405.44 197.97 411.14 200.63 416.7 202.74 420.99 204.86 423.31 206.32 425.81 207.6 436.75 212.87 438.89 214.47 443.12 216.62 448.98 219.02 450.01 219.99 
M 405.55 202.1 408.28 203.67 411.44 205.08 413.62 205.7 418.25 208.66 421.2 209.3 423.96 210.95 428.5 213.74 430.49 216.01 435.91 218.47 437.62 219.85 441.96 222.24 446.49 225.06 449.12 227.15 451.33 229.42 454.2 231.75 
M 305.95 131.96 308.76 138.09 320.56 115.48 322.64 114.01 324.9 112.73 327.4 111.68 335.73 115.42 338.26 116.14 340.08 115.15 342.16 113.63 343.62 111.32 346.14 110.27 349.43 111.64 352.13 112.31 355.63 112.76 358.59 113.38 360.26 115.93 365.4 115.66 368.44 117.13 370.9 118.09 371.34 120.03 373.39 125.18 373.67 127.07 374.68 130.44 373.38 143.58 366.95 141.2 
M 310.37 132.52 312.6 132.38 315.05 128.62 315.36 125.93 316.56 123.52 318.44 120.74 
M 314.8 133.08 316.43 132.21 317.92 130.67 319.59 128.56 320.37 125.73 325.42 118.65 
M 319.21 133.72 321.06 132.7 328.39 122.95 329.83 120.02 330.74 117.59 
M 323.62 134.39 325.5 132.84 330.56 125.72 
M 328.03 135.06 330.5 133.89 332.22 131.49 333.45 129.27 334.4 126.81 334.89 124.42 
M 332.44 135.74 334.88 134.72 336.99 132.49 338.54 130.27 339.36 127.93 339.35 125.87 
M 336.85 136.42 339.18 135.25 341.34 133 344.14 129.07 346.53 123.47 
M 341.26 137.04 343.59 135.63 346.73 131.47 347.84 129.76 348.66 127.88 351.24 123.8 352.77 121.92 
M 345.68 137.66 347.81 136.66 351.74 133.12 353.29 129.65 356.3 125.4 357.77 119.48 359.24 117.69 
M 350.09 138.33 352.33 137.36 354.27 135.83 356.59 133.02 357.81 131.12 358.76 128.47 359.99 127.35 360.27 126.61 
M 354.5 139.02 357.36 137.8 359.03 135.87 360.58 133.51 362.65 129.54 
M 358.9 139.76 361.64 138.35 363.83 136.81 365.38 134.37 367.43 131.59 369.16 125.99 
M 363.29 140.54 366.89 139.18 369.36 137.51 371.23 135.71 373.63 132.64 
M 47.98 174.95 51.49 172.33 54.84 169.51 58.77 165.78 63.24 162.17 68.44 159.31 80.86 155.49 98.69 149.29 122.43 143.05 127.07 142.13 133.02 141.41 135.31 145.26 136.36 149.25 137.79 153.2 139.87 157.06 142.2 160.88 145.54 168.71 146.99 172.65 147.71 176.69 148.58 188.97 148.4 197.26 148.01 201.44 145.83 214.13 143.3 218.55 131.66 218.04 123.2 217.23 115.53 216.19 108.02 214.67 94.38 211.23 88.09 209 81.96 206.39 75.95 203.56 
M 73.61 202.31 71.02 200.93 66.58 197.95 56 188.08 
M 122.27 165.32 123.37 168.71 123.42 172.06 122.92 175.26 120.98 182.92 120.73 185.22 121.37 190.35 122.11 193.21 123.15 196.39 122.83 200.13 104.4 200.55 98.71 200.15 93.05 199.41 87.48 198.38 82.11 196.58 
M 73.2 201.99 65.03 195.76 60.03 191.34 54.93 187.2 46.47 179.93 44.94 178.21 44.97 176.04 46.89 174.7 49.07 175.19 52.21 178.38 65.75 192.99 76.22 203.27 
M 75.77 204.02 69.26 202.07 58.54 199.14 43.71 194.28 39.44 192.63 33.16 191.02 31.08 190.25 30 188.39 30.89 186.28 32.87 185.35 34.91 185.98 38.97 187.74 43.06 189.3 49 192.05 61.16 197.35 65.47 199.1 71.64 201.33 76.07 203.18 
M 87.07 180.53 85.77 175.63 86.14 170.58 88.13 165.92 91.52 162.16 95.96 159.71 100.94 158.82 105.95 159.61 110.43 161.97 113.9 165.67 115.98 170.29 116.44 175.33 115.25 180.25 112.52 184.52 108.55 187.67 103.78 189.36 98.71 189.41 93.91 187.82 89.88 184.75 87.07 180.53 
M 86.88 180.1 86.26 178.3 85.87 176.43 85.71 174.53 85.79 172.62 86.1 170.74 86.65 168.92 87.41 167.17 88.39 165.53 89.56 164.03 90.91 162.68 92.42 161.51 94.05 160.53 95.8 159.76 97.63 159.22 99.51 158.91 101.41 158.83 103.32 158.98 105.18 159.38 106.99 159.99 
M 88.53 179.42 87.98 177.82 87.63 176.17 87.5 174.49 87.56 172.81 87.98 170.68 
M 91.45 164.66 93.42 162.98 94.87 162.12 96.41 161.44 98.03 160.96 99.69 160.68 101.38 160.61 103.06 160.75 104.71 161.1 106.3 161.64 
M 90.18 178.73 89.7 177.35 89.28 174.46 89.34 172.99 89.69 171.19 
M 92.72 165.91 94.43 164.45 95.69 163.7 98.43 162.7 99.88 162.45 102.8 162.51 105.62 163.29 
M 91.82 178.05 91.42 176.88 91.06 174.42 91.39 171.71 
M 93.91 167.23 95.43 165.92 96.5 165.29 98.83 164.43 101.3 164.18 103.76 164.54 104.94 164.94 
M 93.47 177.37 93.14 176.4 92.85 174.38 93.09 172.23 
M 95.12 168.55 96.44 167.4 97.32 166.87 99.24 166.17 101.27 165.96 102.29 166.05 104.25 166.59 
M 95.48 176.74 94.97 174.78 95.1 172.9 
M 96.61 170.12 97.27 169.39 99.04 168.41 101.04 168.06 103.04 168.37 104.83 169.32 106.22 170.79 107.05 172.64 107.24 174.66 106.76 176.63 105.67 178.34 104.08 179.6 102.17 180.27 100.14 180.29 98.22 179.65 96.61 178.43 95.48 176.74 
M 97.79 169.1 97.03 170.61 
M 95.74 173.2 94.97 174.74 
M 99.52 168.33 97.88 171.61 
M 96.83 173.71 95.42 176.51 
M 100.98 168.07 98.75 172.53 
M 98.13 173.78 96.15 177.74 
M 102.23 168.24 99.65 173.4 
M 99.53 173.66 97 178.72 
M 103.41 168.57 97.96 179.46 
M 104.47 169.13 99.06 179.93 
M 105.4 169.93 100.22 180.29 
M 106.26 170.89 101.57 180.28 
M 106.9 172.3 103.07 179.95 
M 107.21 174.35 104.92 178.93 
M 49.64 173.66 54.02 178.04 
M 52.67 171.34 57.25 175.92 
M 55.53 168.85 59.04 172.35 
M 58.28 166.24 63.63 171.59 
M 61.2 163.81 66.18 168.79 
M 64.32 161.58 67.65 164.91 
M 67.77 159.68 71.22 163.13 
M 71.74 158.29 74.96 161.51 
M 75.83 157.03 79.96 161.16 
M 79.93 155.77 82.95 158.79 
M 83.95 154.44 88.46 158.96 
M 87.94 153.08 91.05 156.19 
M 91.92 151.71 97 156.79 
M 95.87 150.3 99.24 153.68 
M 99.88 148.96 103.83 152.91 
M 104.07 147.81 107.67 151.41 
M 108.3 146.68 112.21 150.59 
M 112.53 145.56 116.09 149.12 
M 116.77 144.45 122.11 149.78 
M 121.07 143.39 124.77 147.09 
M 125.47 142.44 128.4 145.37 
M 130.07 141.69 132.96 144.57 
M 125.73 161.96 124.57 161.22 122.62 159.5 121.93 159.39 120.53 159.5 
M 125.56 187.43 125.07 185.66 125.23 184.6 
M 79.41 200.44 79.67 199.53 80.85 197.48 80.55 195.55 79.95 194.09 77.82 191.07 
M 112.1 205.6 111.54 205.42 110.41 204.68 109.97 204.21 109.39 202.94 109.06 201.21 109.25 197.75 
M 93.21 161.23 90.68 159.51 89.24 158.94 88.69 158.92 88.29 159.11 87.55 160.28 
M 136.94 161.77 136.83 160.68 136.51 160.14 134.02 157.09 132.27 155.67 131.5 155.56 130.95 155.94 
M 127.87 177.19 127.77 175.5 127.31 173.17 127.32 171.19 
M 72.06 179.87 70.78 179.38 66.89 179.44 64.77 178.64 63.28 177.66 
M 77.7 181.67 75.88 180.81 74.67 179.55 73.49 176.77 73.32 175.83 
M 94.21 157.67 93.36 155.83 92.28 154.39 92.05 153.75 92.03 153.12 92.92 151.36 
M 124.13 148.26 125.61 147.33 128.86 144.39 130.26 143.33 133.11 141.55 
M 89.58 164.31 89.27 164.23 
M 144.27 209.85 144.31 208.96 144.72 208.15 145.33 207.51 146.16 207.21 
M 128.77 175.6 128.62 173.07 128.16 169.36 128.4 168.57 129.29 166.81 
M 123.12 214.48 124.72 212.39 125.19 210.22 125.63 209.32 
M 110.76 192.07 108.8 191.08 107.98 189.88 107.79 188.83 
M 118.04 207.01 118.17 206.33 117.86 204.88 117.37 204.39 115.9 203.98 113.84 202.97 113.03 202.06 111.91 199.77 
M 102.23 202.79 105.55 200.33 105.75 199.27 105.05 197.68 
M 70.96 200.89 69.89 199.48 
M 67.36 197.55 66.59 197.12 65.39 196.1 
M 129.68 184.31 127.46 185.76 127.05 185.88 126.67 185.87 125.7 185.37 125.34 185.03 125.27 184.7 
M 130.99 158.59 130.39 158.96 130.21 160.31 129.83 161.46 
M 98.94 207.46 97.75 207.79 97.64 207.15 
M 54.82 181.3 55.24 181.18 
M 112.5 152.56 113.98 151.74 117.03 149.18 117.91 146.1 
M 57.01 180.33 61.6 185.65 61.79 186.11 61.87 187.05 
M 129.7 215.25 128.95 214.97 127.19 215.65 126.63 215.52 126.49 215.23 
M 136.34 198.47 135.2 199.63 133.17 200.97 132.25 202.68 131.5 203.44 
M 93.31 189.11 94.73 188.59 95.61 188.58 95.74 188.84 
M 127.95 185.46 127.47 185.76 126.67 185.88 125.46 185.2 125.24 184.63 
M 129.73 161.95 129.4 161.84 128.33 162.43 127.46 162.59 
M 98.38 189.3 96.59 189.44 96.01 189.28 95.76 188.91 
M 79.87 168.6 81.9 167.57 83.28 166.65 86.2 163.93 87.65 163 
M 60.83 182.59 61.51 183.34 62.12 185.32 62.2 186.88 61.77 188.6 
M 63.44 173.85 61.69 174.42 58.85 175.93 57.32 176.98 56.34 177.4 
M 117.51 209.12 118.83 207.52 119.42 205.92 119.59 204.55 119.3 204.06 118.28 203.38 113.98 202.12 
M 76.38 188.36 73.49 187.24 71 185.97 70.13 185.72 66.09 185.31 64.25 185.57 
M 113.2 207.45 110.97 207.89 107.48 209.21 105.51 210.52 103.63 212.12 102.87 212.58 101.52 213.09 
M 108.61 154.09 110.16 153.12 111.54 152.6 
M 130.54 174.27 131.46 171.9 134.16 169.24 
M 133.24 163.2 134.09 161.52 134.22 160.64 134.07 159.86 133.72 159.18 132.83 158.02 131.85 157.14 130.91 156.86 130.35 156.99 129.78 157.33 128.94 158.69 
M 90.96 162.79 90.01 162.32 89.32 161.76 88.41 160.3 
M 110.34 196.54 110.27 195.71 109.85 195.13 107.78 194.12 106.45 193.21 
M 117.41 211.31 120.05 209.8 122.2 207.71 122.84 206.58 122.96 205.35 
M 136.35 170.33 135.6 166.21 135.32 162.06 134.8 160.34 
M 116.38 187.89 124.3 184.63 
M 111.24 188.8 112.41 185.76 112.96 184.91 117.09 182.9 
M 83.19 196.88 82.06 196.76 81.25 196.39 79.94 193.84 77.75 190.8 77.19 189.8 76.61 189.12 75.83 188.63 
M 61.78 172.76 60.48 173.15 58.36 174.6 57.78 174.76 55.58 174.76 54.43 175.39 
M 108.91 159.27 109.69 159.05 109.98 159.13 110.56 160.14 111.6 160.93 
M 121.45 176.64 120.42 177.46 118.64 177.67 
M 133.79 169.12 134.65 166.74 135.05 164.42 135.03 162.47 134.39 159.86 132.98 157.87 
M 139.94 218.24 140.11 218.41 
M 91.06 198.62 89.89 198.77 89.14 198.47 88.57 197.9 87.75 196.62 
M 121.67 210.77 122.56 208.58 123.41 207.25 124.56 206.87 125.61 206.97 
M 42.96 193.99 52.36 198.95 59.21 201.99 66.02 204.6 72.93 206.75 80.01 208.55 94.38 211.23 
M 135.5 145.97 136.71 147.19 
M 137.4 140.74 143.55 146.89 
M 143.57 139.77 153.38 149.59 
M 149.88 138.95 160.49 149.56 
M 156.28 138.21 165.75 147.68 
M 162.81 137.6 172.95 147.75 
M 169.36 137.02 179.28 146.93 
M 175.87 136.39 184.7 145.22 
M 182.28 135.67 190.52 143.9 
M 188.77 135.02 194.25 140.5 
M 195.3 134.42 201.76 140.88 
M 201.96 133.93 209.49 141.46 
M 208.65 133.48 214.48 139.32 
M 215.34 133.04 221.07 138.77 
M 222 132.57 229.36 139.92 
M 228.66 132.09 235.4 138.83 
M 235.32 131.62 241.25 137.55 
M 242.1 131.26 252.4 141.55 
M 248.93 130.95 259.62 141.64 
M 255.79 130.67 263.48 138.37 
M 262.64 130.38 268.61 136.35 
M 269.58 130.19 279.59 140.2 
M 276.64 130.11 286.4 139.88 
M 283.95 130.29 293.55 139.89 
M 291.5 130.7 300.96 140.16 
M 299.24 131.3 306.76 138.82 
M 307.19 132.12 313.28 138.2 
M 315.37 133.16 321.34 139.13 
M 323.76 134.41 329.45 140.1 
M 332.19 135.7 340.55 144.06 
M 340.56 136.94 348.44 144.82 
M 348.9 138.15 355.1 144.34 
M 357.38 139.48 368.03 150.14 
M 366.07 141.04 372.79 147.76 
M 374.92 142.75 381.04 148.87 
M 384.16 144.86 390.55 151.25 
M 144.18 217.02 145.01 218.68 
M 145.84 214.1 148.21 218.84 
M 146.96 210.1 148.56 213.29 
M 149.35 214.89 151.41 218.99 
M 153.12 216.17 154.06 218.06 
M 157.45 212.34 158.25 213.94 
M 156.37 203.94 159.56 210.33 
M 160.36 211.92 161.16 213.52 
M 148.11 181.18 151.3 187.56 
M 157.68 200.33 160.08 205.11 
M 160.88 206.71 164.87 214.69 
M 147.01 172.73 153.43 185.57 
M 158.2 195.11 168.57 215.86 
M 170.28 219.27 170.79 220.29 
M 134.37 141.22 135.57 143.61 
M 136.37 145.21 137.96 148.4 
M 147.54 167.55 153.43 179.33 
M 161.88 196.23 170.68 213.82 
M 171.48 215.42 174.04 220.54 
M 137.27 140.76 139.26 144.75 
M 144.05 154.32 144.85 155.92 
M 147.24 160.71 148.84 163.9 
M 151.23 168.69 153.43 173.08 
M 165.66 197.53 173.57 213.37 
M 174.37 214.96 177.26 220.75 
M 140.16 140.3 140.56 141.1 
M 144.55 149.08 146.15 152.27 
M 147.74 155.46 148.54 157.06 
M 150.13 160.25 154.5 168.98 
M 169.43 198.84 175.67 211.31 
M 176.47 212.91 177.26 214.51 
M 178.06 216.1 180.49 220.96 
M 143.05 139.85 143.45 140.64 
M 146.65 147.03 147.44 148.62 
M 148.24 150.22 153.83 161.39 
M 154.62 162.98 156.22 166.18 
M 157.02 167.77 157.11 167.95 
M 173.21 200.15 176.97 207.67 
M 177.76 209.26 178.56 210.86 
M 182.55 218.84 183.72 221.18 
M 148.78 145.04 149.57 146.64 
M 150.37 148.23 159.71 166.92 
M 176.99 201.46 178.3 204.09 
M 183.08 213.66 183.88 215.26 
M 184.68 216.85 186.82 221.13 
M 150.91 143.06 162.08 165.4 
M 186.02 213.28 186.81 214.87 
M 187.61 216.47 189.36 219.96 
M 152.24 139.49 153.04 141.08 
M 153.84 142.68 164.21 163.42 
M 190.54 216.09 193 221 
M 155.99 140.75 156.79 142.34 
M 157.59 143.94 167.17 163.09 
M 158.98 140.47 159.77 142.06 
M 160.57 143.66 166.96 156.42 
M 167.75 158.02 168.55 159.62 
M 163.55 143.38 169.14 154.55 
M 168.13 146.29 170.53 151.08 
M 171.32 152.67 172.12 154.27 
M 169.53 142.83 170.33 144.43 
M 171.12 146.03 172.72 149.22 
M 206.83 211.19 207.63 212.79 
M 176.31 143.9 177.1 145.5 
M 177.9 147.1 179.5 150.29 
M 205.83 202.95 208.22 207.74 
M 209.82 210.93 211.41 214.12 
M 176.08 137.21 180.87 146.79 
M 181.67 148.38 182.47 149.98 
M 207.2 199.45 208 201.04 
M 209.59 204.24 215.18 215.41 
M 178.64 136.08 179.84 138.47 
M 180.63 140.07 185.42 149.64 
M 205.18 189.16 205.37 189.54 
M 207.76 194.33 217.34 213.48 
M 218.13 215.07 218.93 216.67 
M 181.59 135.75 189.17 150.91 
M 209.92 192.4 219.49 211.55 
M 220.29 213.14 222.69 217.93 
M 184.55 135.42 191.34 148.99 
M 212.88 192.07 214.48 195.26 
M 215.27 196.86 220.86 208.03 
M 221.66 209.63 223.25 212.82 
M 224.85 216.01 225.65 217.6 
M 187.53 135.14 195.11 150.3 
M 214.26 188.59 215.06 190.19 
M 215.86 191.79 222.24 204.55 
M 223.04 206.15 227.03 214.13 
M 190.51 134.85 195.7 145.22 
M 218.04 189.9 220.43 194.69 
M 221.23 196.29 227.61 209.05 
M 228.41 210.65 229.21 212.24 
M 193.49 134.56 197.88 143.34 
M 223.41 194.4 229.8 207.17 
M 231.39 210.36 232.19 211.96 
M 226.1 193.53 230.09 201.51 
M 230.88 203.1 232.48 206.29 
M 227.79 190.67 228.59 192.27 
M 229.39 193.87 230.98 197.06 
M 221.61 165.82 222.41 167.41 
M 202.96 122.27 204.15 124.67 
M 205.75 127.86 206.55 129.45 
M 222.51 161.37 223.3 162.96 
M 224.1 164.56 227.29 170.94 
M 248.84 214.03 249.63 215.62 
M 250.43 217.22 251.23 218.82 
M 251.86 220.08 252.1 220.55 
M 204.65 119.42 209.04 128.19 
M 225 160.11 229.79 169.69 
M 230.58 171.28 231.38 172.88 
M 249.73 209.58 251.33 212.77 
M 252.13 214.37 255.1 220.31 
M 206.35 116.56 209.94 123.75 
M 211.53 126.94 212.33 128.53 
M 225.1 154.07 233.08 170.02 
M 253.02 209.92 258.08 220.04 
M 208.04 113.71 214.03 125.68 
M 226.79 151.21 236.37 170.36 
M 253.92 205.47 261.07 219.76 
M 209.74 110.86 215.72 122.83 
M 229.29 149.95 238.86 169.1 
M 255.62 202.61 256.42 204.21 
M 257.21 205.81 264.05 219.49 
M 211.43 108 211.83 108.8 
M 212.63 110.4 216.62 118.38 
M 232.58 150.29 240.56 166.25 
M 258.11 201.36 267.05 219.24 
M 215.12 109.14 216.72 112.33 
M 217.52 113.93 218.32 115.52 
M 227.09 133.08 228.69 136.27 
M 235.07 149.03 237.47 153.82 
M 238.26 155.42 242.25 163.4 
M 250.23 179.35 251.03 180.95 
M 261.4 201.69 262.2 203.29 
M 263 204.89 270.06 219 
M 225.6 123.84 226.39 125.43 
M 227.19 127.03 228.79 130.22 
M 230.38 133.41 231.18 135.01 
M 239.96 152.56 241.55 155.75 
M 243.15 158.95 243.95 160.54 
M 250.33 173.31 252.73 178.1 
M 255.12 182.88 256.71 186.07 
M 267.09 206.82 272.67 217.98 
M 227.29 120.99 228.09 122.58 
M 229.69 125.77 232.08 130.56 
M 232.88 132.16 235.27 136.94 
M 236.87 140.13 237.66 141.73 
M 243.25 152.9 244.05 154.5 
M 251.23 168.86 258.41 183.22 
M 267.19 200.77 270.38 207.16 
M 271.18 208.75 274.37 215.14 
M 228.99 118.13 229.79 119.73 
M 231.38 122.92 239.36 138.88 
M 254.52 169.2 263.3 186.75 
M 273.67 207.5 274.47 209.09 
M 275.27 210.69 276.06 212.28 
M 219.91 93.73 221.11 96.13 
M 230.68 115.28 231.48 116.87 
M 232.28 118.47 233.08 120.07 
M 233.87 121.66 242.65 139.21 
M 256.22 166.34 265.79 185.49 
M 276.16 206.24 276.96 207.83 
M 221.61 90.88 222.01 91.68 
M 222.8 93.27 223.6 94.87 
M 232.38 112.42 244.35 136.36 
M 257.91 163.49 258.71 165.09 
M 259.51 166.68 269.08 185.83 
M 276.26 200.19 277.06 201.79 
M 277.86 203.38 279.45 206.58 
M 223.3 88.03 226.09 93.61 
M 236.47 114.36 248.44 138.29 
M 261.2 163.83 262 165.42 
M 263.6 168.61 271.57 184.57 
M 277.96 197.34 279.55 200.53 
M 280.35 202.13 284.34 210.11 
M 285.14 211.7 285.94 213.3 
M 225 85.17 226.99 89.16 
M 227.79 90.76 229.39 93.95 
M 238.96 113.1 245.34 125.87 
M 246.14 127.46 250.13 135.44 
M 264.49 164.17 265.29 165.76 
M 266.09 167.36 271.67 178.53 
M 278.86 192.89 288.43 212.04 
M 226.69 82.32 231.88 92.69 
M 243.05 115.03 243.85 116.63 
M 244.65 118.23 245.44 119.82 
M 246.24 121.42 248.64 126.2 
M 249.43 127.8 251.03 130.99 
M 267.78 164.5 271.77 172.48 
M 280.55 190.04 290.92 210.78 
M 291.72 212.38 293.32 215.57 
M 228.79 80.26 231.18 85.05 
M 245.54 113.78 247.94 118.56 
M 248.73 120.16 251.13 124.95 
M 272.67 168.03 274.27 171.22 
M 283.04 188.78 283.84 190.37 
M 284.64 191.97 294.21 211.12 
M 231.28 79.01 232.88 82.2 
M 252.03 120.5 252.82 122.09 
M 254.42 125.28 255.22 126.88 
M 287.13 190.71 294.31 205.07 
M 295.11 206.67 296.71 209.86 
M 291.22 192.65 299.2 208.6 
M 255 113.95 256.04 116.03 
M 258.63 121.21 259.43 122.81 
M 284.16 172.28 284.96 173.87 
M 287.35 178.66 288.15 180.26 
M 292.14 188.24 298.52 201 
M 299.32 202.6 302.51 208.98 
M 304.91 213.77 306.37 216.7 
M 263.21 124.13 263.61 124.93 
M 269.99 137.69 270.79 139.29 
M 271.59 140.89 272.39 142.48 
M 286.75 171.21 289.94 177.59 
M 294.73 187.16 295.52 188.76 
M 297.92 193.55 302.71 203.12 
M 305.1 207.91 305.9 209.51 
M 306.69 211.1 309.34 216.39 
M 272.16 135.78 274.55 140.57 
M 275.35 142.16 277.74 146.95 
M 287.32 166.1 288.12 167.7 
M 289.71 170.89 296.09 183.66 
M 303.28 198.02 304.07 199.61 
M 306.47 204.4 308.06 207.59 
M 308.86 209.19 311.98 215.42 
M 272.86 130.94 273.66 132.53 
M 274.45 134.13 275.25 135.73 
M 276.05 137.32 280.84 146.9 
M 288.02 161.26 299.19 183.6 
M 309.56 204.34 315.27 215.76 
M 275.56 130.09 286.33 151.63 
M 290.32 159.61 301.49 181.95 
M 312.66 204.29 318.18 215.35 
M 278.72 130.16 285.5 143.73 
M 286.3 145.32 287.09 146.92 
M 292.68 158.09 294.27 161.28 
M 295.07 162.88 296.67 166.07 
M 297.47 167.66 305.44 183.62 
M 313.42 199.58 314.22 201.18 
M 315.02 202.77 321.08 214.89 
M 281.87 130.24 291.05 148.59 
M 296.64 159.76 297.43 161.36 
M 299.03 164.55 305.41 177.31 
M 306.21 178.91 307.01 180.51 
M 315.79 198.06 323.97 214.44 
M 285.03 130.31 291.02 142.28 
M 292.61 145.47 293.41 147.07 
M 299 158.24 309.37 178.99 
M 318.95 198.13 319.74 199.73 
M 320.54 201.33 321.34 202.92 
M 322.93 206.11 326.87 213.98 
M 288.25 130.49 291.84 137.67 
M 292.63 139.27 295.03 144.06 
M 303.01 160.01 303.8 161.61 
M 304.6 163.21 305.4 164.8 
M 306.2 166.4 308.59 171.18 
M 309.39 172.78 310.19 174.38 
M 324.55 203.1 329.75 213.49 
M 291.47 130.69 292.67 133.09 
M 293.46 134.68 295.86 139.47 
M 299.05 145.85 300.64 149.05 
M 303.84 155.43 304.63 157.02 
M 308.62 165 311.02 169.79 
M 326.18 200.11 327.77 203.3 
M 328.57 204.9 330.96 209.68 
M 294.69 130.89 296.69 134.88 
M 301.47 144.46 302.27 146.05 
M 303.87 149.25 307.86 157.23 
M 300.75 136.76 305.53 146.34 
M 306.33 147.93 312.72 160.7 
M 302.43 133.89 311.21 151.44 
M 312.01 153.04 313.61 156.23 
M 339.94 208.89 340.84 210.69 
M 306.52 135.81 316.09 154.96 
M 316.89 156.55 317.69 158.15 
M 322.47 167.72 323.27 169.32 
M 342.42 207.62 344.26 211.3 
M 307.83 132.2 319.4 155.34 
M 320.2 156.93 321 158.53 
M 324.99 166.51 327.38 171.3 
M 328.18 172.89 328.98 174.49 
M 344.14 204.81 347.19 210.91 
M 311.17 132.62 317.95 146.19 
M 318.75 147.78 322.74 155.76 
M 325.13 160.55 327.52 165.34 
M 328.32 166.93 333.11 176.51 
M 345.88 202.04 350.14 210.57 
M 314.5 133.05 323.68 151.4 
M 326.07 156.19 326.87 157.78 
M 327.67 159.38 337.24 178.53 
M 347.61 199.27 348.41 200.87 
M 349.21 202.46 353.09 210.23 
M 317.86 133.52 326.24 150.27 
M 330.23 158.25 340.6 179 
M 350.17 198.15 356.04 209.89 
M 321.24 134.03 323.23 138.02 
M 325.63 142.81 328.02 147.59 
M 332.81 157.17 343.18 177.91 
M 353.55 198.66 354.35 200.25 
M 355.15 201.85 358.98 209.52 
M 325.01 135.34 325.81 136.93 
M 335.39 156.08 342.57 170.45 
M 343.37 172.04 345.76 176.83 
M 357.73 200.77 361.62 208.55 
M 337.97 155 340.36 159.79 
M 341.16 161.39 346.75 172.56 
M 362.7 204.47 363.5 206.07 
M 364.38 207.82 364.86 208.78 
M 341.35 155.53 342.15 157.12 
M 342.95 158.72 343.75 160.31 
M 344.54 161.91 346.94 166.7 
M 345.53 157.64 346.33 159.24 
M 347.13 160.84 347.93 162.43 
M 369.18 186.21 369.98 187.81 
M 371.58 191 372.38 192.6 
M 373.97 195.79 374.77 197.38 
M 370.96 183.52 371.76 185.12 
M 372.56 186.71 373.35 188.31 
M 374.95 191.5 377.34 196.29 
M 371.95 179.26 379.93 195.22 
M 373.74 176.6 374.54 178.2 
M 375.34 179.79 383.32 195.75 
M 358.4 139.67 358.8 140.47 
M 361.19 145.25 361.99 146.85 
M 376.35 175.57 387.52 197.91 
M 361.83 140.28 364.62 145.87 
M 365.42 147.46 366.22 149.06 
M 377.39 171.4 380.58 177.78 
M 381.38 179.38 389.36 195.34 
M 390.15 196.93 390.95 198.53 
M 365.26 140.89 368.05 146.48 
M 380.82 172.01 391.99 194.35 
M 368.7 141.54 369.9 143.93 
M 370.7 145.53 371.5 147.12 
M 383.46 171.06 393.04 190.21 
M 372.16 142.21 374.16 146.2 
M 386.13 170.14 387.72 173.33 
M 388.52 174.93 392.51 182.91 
M 393.31 184.5 395.7 189.29 
M 392.78 177.2 395.97 183.58 
M 393.09 171.59 394.69 174.78 
M 395.49 176.37 396.29 177.97 
M 397.07 179.54 397.46 180.32 
M 397.15 160.97 397.46 161.58 
M 396.19 152.81 397.02 154.47 
M 219.83 291.39 217.94 297.7 
M 219.83 291.39 220.34 297.7 
M 224.63 291.39 220.34 297.7 
M 224.63 291.39 222.74 297.7 
M 225.8 293.5 226.34 297.7 
M 229.4 293.5 225.38 298.89 224.6 299.5 223.61 299.8 
M 231.2 293.5 229.94 297.7 
M 230.84 294.7 232.01 293.8 232.7 293.5 233.6 293.5 234.11 293.8 234.14 294.7 233.24 297.7 
M 234.14 294.7 235.31 293.8 236 293.5 236.9 293.5 237.41 293.8 237.44 294.7 236.54 297.7 
M 240.53 291.39 240.74 291.7 241.13 291.39 240.92 291.1 240.53 291.39 
M 240.2 293.5 238.94 297.7 
M 243.23 291.39 241.34 297.7 
M 242.33 294.39 243.11 293.8 243.8 293.5 244.7 293.5 245.21 293.8 245.63 294.39 245.66 295.3 245.48 295.89 244.91 296.8 244.13 297.39 243.44 297.7 242.54 297.7 242.03 297.39 241.61 296.8 
M 248.63 291.39 248.84 291.7 249.23 291.39 249.02 291.1 248.63 291.39 
M 248.3 293.5 247.04 297.7 
M 251.63 291.39 250.1 296.5 250.13 297.39 250.64 297.7 251.24 297.7 
M 250.1 293.5 252.2 293.5 
M 254.93 291.39 253.04 297.7 
M 253.94 294.7 255.11 293.8 255.8 293.5 256.7 293.5 257.21 293.8 257.24 294.7 256.34 297.7 
M 260 293.5 259.1 296.5 259.13 297.39 259.64 297.7 260.53 297.7 261.23 297.39 262.39 296.5 
M 263.3 293.5 262.03 297.7 
M 268.43 294.39 268.31 293.8 267.5 293.5 266.6 293.5 265.61 293.8 265.13 294.39 265.25 295 265.76 295.3 267.17 295.6 267.68 295.89 267.7 296.8 267.23 297.39 266.24 297.7 265.34 297.7 264.52 297.39 264.4 296.8 
M 274.13 291.39 274.33 291.7 274.73 291.39 274.52 291.1 274.13 291.39 
M 273.8 293.5 272.54 297.7 
M 276.2 293.5 274.94 297.7 
M 275.83 294.7 277.01 293.8 277.7 293.5 278.6 293.5 279.11 293.8 279.14 294.7 278.24 297.7 
M 279.14 294.7 280.31 293.8 281 293.5 281.89 293.5 282.41 293.8 282.44 294.7 281.54 297.7 
M 287.93 294.39 287.81 293.8 287 293.5 286.1 293.5 285.11 293.8 284.63 294.39 284.75 295 285.26 295.3 286.67 295.6 287.18 295.89 287.2 296.8 286.73 297.39 285.74 297.7 284.83 297.7 284.02 297.39 283.91 296.8 
M 290.3 293.5 289.39 296.5 289.43 297.39 289.94 297.7 290.83 297.7 291.52 297.39 292.7 296.5 
M 293.6 293.5 292.33 297.7 
M 298.73 294.39 298.61 293.8 297.8 293.5 296.89 293.5 295.91 293.8 295.43 294.39 295.55 295 296.06 295.3 297.47 295.6 297.98 295.89 298.01 296.8 297.52 297.39 296.54 297.7 295.64 297.7 294.83 297.39 294.7 296.8 
M 300.32 297.1 299.93 297.39 300.14 297.7 300.52 297.39 300.32 297.1 
"/></svg>
