<svg xmlns="http://www.w3.org/2000/svg" width="520" height="320"><rect x="0" y="0" width="520" height="320" fill="floralwhite"/><rect x="10" y="10" width="500" height="300" stroke="black" stroke-width="1" fill="none"/><path stroke="black" stroke-width="1" fill="none" stroke-linecap="round" stroke-linejoin="round" d="
M 121.1 95.96 143.52 87.11 154.77 83.54 166.01 81.54 177.25 79.88 188.49 78.54 199.73 77.83 210.97 76.8 222.21 76.83 233.45 77.48 244.69 77.77 255.93 79.05 267.17 81.52 278.41 84.5 323.37 91.78 334.61 95.21 345.85 99.06 357.09 102.32 368.33 105.86 379.57 110.05 390.81 114.54 403.05 119.92 
M 403.05 153.73 383.29 162.79 
M 284.63 199.56 267.17 203.75 255.93 206.07 244.69 206.98 233.45 206.85 222.21 205.48 199.73 201.67 188.49 199.2 166.01 193.9 154.77 191 143.52 186.87 132.34 182.03 
M 122.9 96.93 124.36 94.66 
M 131.7 108.19 133.95 104.56 133.95 102.2 131.59 98.39 127.92 95.02 125.84 94.07 
M 128.73 100.81 129.36 100.77 
M 133.14 130.11 134.27 127.77 134.27 124.81 133.02 122.24 
M 134.53 153.73 134.78 153.27 134.78 150.2 133.87 148.51 
M 133.38 101.93 135.88 100.89 139.08 98.23 141.15 95.21 141.15 93.35 139.08 90.33 137.87 89.32 
M 133.44 122.9 134.32 122.32 137.3 118.4 139.23 113.96 139.23 111.21 137.3 106.77 134.32 102.84 133.1 102.05 
M 134.27 151.99 135.87 150.72 138.78 146.11 140.66 140.88 140.66 137.64 138.78 132.42 135.87 127.8 133.6 126 
M 137.71 157.52 135.05 153.98 134.52 153.62 
M 141.4 94.36 144.32 93.55 148.05 91.48 150.45 89.13 150.45 87.68 148.31 85.59 
M 140.59 113.19 143.5 111.91 147.23 108.64 149.63 104.94 149.63 102.64 147.23 98.94 143.5 95.67 140.59 94.39 
M 140.37 138.16 143.17 136.5 146.75 132.24 149.06 127.42 149.06 124.43 146.75 119.61 143.17 115.35 140.37 113.69 
M 148.7 156.82 149.82 154.32 149.82 151.01 147.42 145.67 143.69 140.94 140.78 139.1 
M 149.22 86.57 149.59 86.48 
M 149.59 86.48 151.59 86 154.63 84.51 156.02 83.32 
M 149.18 102.75 151.59 101.69 154.67 98.99 156.65 95.93 156.65 94.04 154.67 90.98 151.59 88.27 149.59 87.4 
M 149.59 87.4 149.18 87.22 
M 147.81 124.21 150.28 122.73 153.44 118.94 155.48 114.64 155.48 111.98 153.44 107.69 150.28 103.89 147.81 102.41 
M 148.07 152.04 150.33 150.21 153.22 145.51 155.09 140.18 155.09 136.89 153.22 131.56 150.33 126.86 148.07 125.02 
M 152.48 156.56 151.57 155.13 149.13 153.22 
M 156.77 94.71 159.61 93.88 163.25 91.78 165.6 89.39 165.6 87.91 163.25 85.52 159.61 83.41 158.06 82.96 
M 156.26 113.69 159.16 112.42 162.88 109.17 165.27 105.49 165.27 103.21 162.88 99.53 159.16 96.28 156.26 95.01 
M 155.57 138.05 158.4 136.41 162.02 132.21 164.36 127.45 164.36 124.5 162.02 119.75 158.4 115.54 155.57 113.9 
M 163.61 155.89 164.27 154.28 164.27 150.93 162.04 145.52 158.58 140.75 155.87 138.88 
M 164.61 86.52 166.72 86 169.73 84.51 171.68 82.83 171.68 81.79 170.6 80.86 
M 162.53 82.18 168.4 82.74 
M 161.69 82.72 167.92 83.55 
M 164.33 102.93 166.67 101.85 169.66 99.08 171.59 95.95 171.59 94.01 169.66 90.87 166.67 88.1 164.76 87.22 
M 162.18 93.71 167.76 92.49 
M 162.39 94.65 167.62 95.33 
M 162.19 96.93 168.47 97.5 
M 163.72 124.87 166.18 123.41 169.33 119.67 171.36 115.44 171.36 112.81 169.33 108.58 166.18 104.84 163.72 103.38 
M 162.66 151.07 164.91 149.29 167.78 144.72 169.64 139.54 169.64 136.34 167.78 131.16 164.91 126.58 162.66 124.8 
M 166.39 155.71 165.7 154.41 163.63 152.49 
M 171.87 94.73 174.67 93.89 178.25 91.76 180.56 89.34 180.56 87.84 178.25 85.42 174.67 83.29 171.87 82.45 
M 169.32 87.65 176.42 87.24 
M 168.79 88.21 176.42 88.69 
M 169.41 90.29 176.14 90.48 
M 171.7 114.01 174.55 112.74 178.21 109.48 180.56 105.8 180.56 103.52 178.21 99.83 174.55 96.58 171.7 95.31 
M 168.51 102.72 176.29 102.24 
M 168.59 104.55 176.04 104.9 
M 169.4 106.67 176.25 107.15 
M 170.69 137.56 173.52 135.99 177.14 131.94 179.48 127.36 179.48 124.53 177.14 119.95 173.52 115.91 170.69 114.33 
M 168.25 123.31 175.1 122.15 
M 168.41 125.51 175.45 125.81 
M 167.78 128.03 175.53 129.03 
M 176.59 155.05 177.58 152.64 177.58 149.4 175.44 144.16 172.13 139.54 169.54 137.74 
M 167.27 148.14 173.57 146.71 
M 166.7 151.33 173.63 150.83 
M 166.56 153.99 172.86 155.23 
M 179.65 86.47 181.82 85.93 184.79 84.46 186.7 82.8 186.7 81.77 184.79 80.11 182.94 79.2 
M 177.42 81.23 182.87 81.22 
M 177.73 82.44 183.37 82.49 
M 177.57 82.86 183.56 83.81 
M 179.3 102.9 181.61 101.8 184.58 98.97 186.49 95.78 186.49 93.8 184.58 90.6 181.61 87.78 179.74 86.88 
M 177.28 93.02 182.94 92.03 
M 177.47 94.63 182.87 94.91 
M 177.34 96.76 183.13 97.28 
M 179.44 125.32 181.84 123.88 184.92 120.2 186.91 116.02 186.91 113.44 184.92 109.27 181.84 105.59 179.44 104.15 
M 177.23 112.38 183 111.57 
M 177.1 114.59 182.94 115.15 
M 177.26 116.52 183.33 117.69 
M 176.93 148.99 179.26 147.36 182.24 143.18 184.17 138.45 184.17 135.52 182.24 130.79 179.26 126.61 176.93 124.98 
M 174.2 135.07 180.56 133.83 
M 174.95 136.91 180.7 137 
M 175.05 138.93 180.77 140.38 
M 179.23 154.93 176.94 150.55 174.96 148.67 
M 186.79 94.54 189.57 93.7 193.13 91.54 195.42 89.1 195.42 87.58 193.13 85.14 189.57 82.98 186.79 82.14 
M 183.77 87.11 191.66 86.18 
M 184.45 88.2 191.19 88.3 
M 183.68 89.32 191.2 90.48 
M 186.88 114.13 189.71 112.85 193.33 109.57 195.66 105.85 195.66 103.54 193.33 99.82 189.71 96.54 186.88 95.26 
M 184.62 102.98 191.75 101.91 
M 183.82 104.73 191 104.38 
M 184.15 106.88 190.94 107.57 
M 185.92 137.27 188.81 135.74 192.51 131.83 194.89 127.4 194.89 124.66 192.51 120.23 188.81 116.32 186.2 114.94 
M 182.88 124.25 190.52 122.33 
M 183.38 126.49 190.75 126.07 
M 182.78 128.27 190.38 129.32 
M 190.09 154.18 191.52 150.95 191.52 147.86 189.31 142.86 185.87 138.45 183.19 136.73 
M 180.95 146.7 187.4 146.05 
M 180.52 149.62 187.28 149.67 
M 180.62 151.95 187.56 153.37 
M 194.24 86.09 196.51 85.51 199.41 84.04 201.29 82.37 201.29 81.34 199.41 79.67 196.01 78.07 
M 192.1 80.62 197.52 80.47 
M 192.36 81.96 197.47 81.53 
M 191.7 82.23 198.09 83.07 
M 194.83 102.35 196.48 101.56 199.5 98.69 201.45 95.44 201.45 93.43 199.5 90.18 196.48 87.31 194.12 86.19 
M 192.12 93.28 197.68 92.18 
M 191.35 94.09 197.89 94.01 
M 191.48 96.35 197.55 96.62 
M 194.67 125.64 197.02 124.17 200.02 120.41 201.95 116.14 201.95 113.51 200.02 109.24 197.02 105.48 194.83 104.11 
M 192.85 112.53 198.29 111.76 
M 192.55 114.89 198.62 115.28 
M 192.24 116.96 197.96 118.22 
M 192.64 149.14 195.19 147.57 198.46 143.55 200.57 139 200.57 136.18 198.46 131.63 195.19 127.61 192.64 126.04 
M 190.14 135.68 197.16 134.37 
M 190.39 137.98 196.93 138.03 
M 190.26 140.36 196.9 141.13 
M 193.12 154.07 190.31 149.02 188.23 147.21 
M 201.67 94.42 204.48 93.55 208.08 91.34 210.4 88.83 210.4 87.28 208.08 84.77 204.48 82.55 201.67 81.69 
M 202.02 114.34 204.83 113.03 208.44 109.66 210.76 105.86 210.76 103.5 208.44 99.69 204.83 96.33 202.02 95.02 
M 201.65 137.89 204.56 136.36 208.3 132.45 210.71 128.02 210.71 125.28 208.3 120.86 204.56 116.95 201.65 115.42 
M 198.9 123.95 206.33 122.86 
M 198.89 126.98 206.53 126.71 
M 198.9 128.66 205.96 130.38 
M 205.41 153.24 206.73 150.51 206.73 147.56 204.41 142.78 200.81 138.57 199.81 137.99 
M 195.78 146.36 202.56 145.83 
M 195.23 148.92 202.7 149.01 
M 195.11 151.95 202.59 152.63 
M 208.67 85.66 211.04 85.04 214.07 83.44 216.02 81.64 216.02 80.52 214.07 78.71 211.04 77.11 210.15 76.88 
M 209.93 103.11 212.03 102.1 215.08 99.18 217.04 95.87 217.04 93.83 215.08 90.52 212.03 87.6 209.66 86.46 
M 209.61 125.79 211.92 124.27 214.88 120.38 216.78 115.97 216.78 113.24 214.88 108.83 211.92 104.93 209.93 103.62 
M 209.66 150.99 212.18 149.44 215.4 145.48 217.48 140.99 217.48 138.21 215.4 133.72 212.18 129.76 209.66 128.21 
M 206.89 153.11 206.52 152.14 205.9 151.22 
M 216.93 94.49 219.78 93.63 223.44 91.43 225.79 88.94 225.79 87.39 223.44 84.9 219.78 82.69 216.93 81.83 
M 217.09 114.32 219.89 113 223.48 109.61 225.79 105.78 225.79 103.41 223.48 99.58 219.89 96.2 217.09 94.88 
M 217.14 138.36 220 136.82 223.65 132.88 226 128.41 226 125.65 223.65 121.18 220 117.23 217.14 115.69 
M 220.94 152.69 222.05 150.5 222.05 147.65 219.7 143.04 216.04 138.97 213.18 137.38 
M 224.95 86.2 227.11 85.69 230.24 84.2 232.25 82.51 232.25 81.46 230.24 79.77 227.11 78.28 224.66 77.69 
M 224.96 102.68 227.04 101.71 230.03 98.9 231.95 95.73 231.95 93.76 230.03 90.59 227.04 87.79 224.95 86.81 
M 224.38 125.44 226.7 123.91 229.67 120 231.58 115.56 231.58 112.82 229.67 108.39 226.7 104.47 224.38 102.95 
M 224.92 151.24 227.28 149.67 230.3 145.67 232.25 141.12 232.25 138.31 230.3 133.77 227.28 129.76 224.92 128.2 
M 222.14 152.42 219.13 148.45 216.71 146.87 
M 232.29 94.5 235.14 93.67 238.79 91.55 241.14 89.14 241.14 87.64 238.79 85.24 235.14 83.11 232.29 82.28 
M 232.05 114.03 234.87 112.72 238.48 109.37 240.81 105.57 240.81 103.22 238.48 99.42 234.87 96.07 232.05 94.76 
M 232.19 138.34 235.01 136.79 238.63 132.82 240.96 128.31 240.96 125.53 238.63 121.02 235.01 117.05 232.19 115.5 
M 236.98 151.75 237.52 150.72 237.52 147.9 235.14 143.35 231.44 139.34 228.55 137.77 
M 240.1 86.45 242.45 85.88 245.47 84.43 247.41 82.8 247.41 81.78 245.47 80.14 242.45 78.7 240.1 78.13 
M 239.98 102.36 242.05 101.42 245.09 98.65 247.05 95.51 247.05 93.57 245.09 90.44 242.05 87.67 239.67 86.59 
M 237.86 93.25 243.22 91.94 
M 237.67 94.65 243.33 94.13 
M 237.04 96.25 243.23 97.2 
M 239.45 125.38 241.82 123.85 244.86 119.92 246.82 115.48 246.82 112.72 244.86 108.27 241.82 104.35 239.98 103.16 
M 240.03 151.31 242.38 149.73 245.39 145.68 247.34 141.09 247.34 138.25 245.39 133.66 242.38 129.61 240.03 128.02 
M 236.86 151.75 236.67 151.52 
M 247.5 94.61 250.34 93.78 253.97 91.64 256.31 89.21 256.31 87.71 253.97 85.29 250.34 83.15 247.5 82.31 
M 244.44 87.72 251.72 87.01 
M 244.51 88.13 251.91 88.95 
M 244.77 89.6 251.85 90.64 
M 247.33 114.17 250.19 112.86 253.85 109.5 256.21 105.71 256.21 103.36 253.85 99.56 250.19 96.21 247.33 94.9 
M 244.33 102.83 251.51 101.31 
M 244.31 104.71 252.12 104.05 
M 244.17 106.1 252.09 107.92 
M 247.41 138.45 250.25 136.9 253.9 132.91 256.24 128.39 256.24 125.59 253.9 121.08 250.25 117.09 247.41 115.53 
M 244.76 125.03 251.78 123.56 
M 244.36 127.13 251.64 127.27 
M 245.03 129.09 251.81 130.64 
M 252.77 152.18 253.31 151.18 253.31 148.37 250.87 143.84 247.09 139.83 244.14 138.27 
M 241.49 147.6 248.72 146.23 
M 241.06 149.81 249.07 150.18 
M 254.97 86.36 257.3 85.77 260.29 84.25 262.22 82.52 262.22 81.46 260.69 80.1 
M 252.52 81 258.28 80.95 
M 252.76 81.63 258.59 82.35 
M 252.52 82.96 258.38 82.88 
M 255.27 103.15 257.66 102.04 260.71 99.22 262.68 96.02 262.68 94.04 260.71 90.84 257.66 88.01 255.27 86.91 
M 252.63 93.55 259.03 92.17 
M 253.34 95.13 259.58 94.74 
M 253.01 96.73 258.91 97.6 
M 255.4 125.34 257.33 124.12 260.39 120.23 262.37 115.83 262.37 113.1 260.39 108.69 257.33 104.8 254.93 103.28 
M 252.23 112.12 258.95 110.79 
M 252.38 114.43 258.37 114.57 
M 252.23 116.91 258.38 117.78 
M 255.24 151.47 257.59 149.88 260.61 145.79 262.56 141.17 262.56 138.3 260.61 133.68 257.59 129.59 255.4 128.11 
M 253.26 137.06 258.71 136.6 
M 252.99 140.08 259.29 139.45 
M 252.94 141.82 259.31 143.25 
M 252.71 152.17 251.37 150.6 248.74 149.06 
M 262.69 94.75 265.52 93.9 269.15 91.72 271.49 89.26 271.49 87.74 269.15 85.27 265.52 83.1 262.69 82.25 
M 259.97 87.04 267 86.78 
M 259.6 88.64 266.97 88.02 
M 260.1 89.64 267.48 90.46 
M 262.71 114.44 265.56 113.13 269.21 109.77 271.56 105.96 271.56 103.6 269.21 99.79 265.56 96.43 262.71 95.12 
M 260.19 102.65 267.37 102.29 
M 259.46 104.39 267.08 104.57 
M 260.34 106.6 267.12 107.33 
M 262.7 138.71 265.54 137.14 269.18 133.11 271.52 128.55 271.52 125.73 269.18 121.17 265.54 117.15 262.7 115.58 
M 260.04 124.39 267.68 123.46 
M 260.22 127.27 267.71 127.24 
M 260.16 129.58 267.19 130.62 
M 269.25 152.61 269.51 152.12 269.51 149.28 267.02 144.69 263.16 140.64 260.14 139.06 
M 257.56 148.5 265.19 147.34 
M 257.52 150.83 265.21 150.84 
M 270.44 86.26 272.5 85.75 275.54 84.24 275.98 83.86 
M 268.21 82.02 269.24 82.07 
M 267.49 82.92 273 83.07 
M 270.72 102.99 272.74 102.04 275.75 99.2 277.69 95.98 277.69 93.99 275.75 90.77 272.74 87.93 270.65 86.95 
M 268.56 93.75 273.69 92.93 
M 267.97 94.96 273.86 95.01 
M 268.49 96.66 274.45 97.57 
M 270.25 125.83 272.62 124.31 275.65 120.41 277.61 116 277.61 113.27 275.65 108.87 272.62 104.97 270.25 103.45 
M 267.76 112.7 274.14 111.64 
M 267.76 114.89 274.47 114.26 
M 268.07 117.32 273.93 118.3 
M 270.38 151.89 272.73 150.24 275.74 146.01 277.68 141.22 277.68 138.25 275.74 133.46 272.73 129.22 270.38 127.57 
M 268.39 136.99 274 135.84 
M 268.13 139.27 274.19 139.93 
M 268.41 142.59 273.72 143.76 
M 277.9 94.79 280.74 93.94 284.37 91.78 286.71 89.33 286.71 87.81 284.53 85.53 
M 274.9 86.84 282.21 86.81 
M 275.16 88.28 282.15 88.49 
M 275.21 89.49 282.83 90.08 
M 277.9 114.48 280.73 113.17 284.36 109.81 286.7 106 286.7 103.65 284.36 99.84 280.73 96.48 277.9 95.17 
M 277.88 138.96 280.71 137.36 284.33 133.26 286.66 128.61 286.66 125.74 284.33 121.09 280.71 116.99 277.88 115.39 
M 285.32 153.75 285.56 153.3 285.56 150.4 283.12 145.73 279.33 141.6 276.37 139.99 
M 273.19 149.48 281.28 148.61 
M 273.85 151.98 281.43 151.51 
M 285.55 86.56 287.63 86.05 
M 285.86 102.95 287.9 102 290.92 99.18 292.87 95.99 292.87 94.01 290.92 90.82 287.9 88 285.55 86.9 
M 285.43 125.84 287.79 124.32 290.82 120.43 292.77 116.03 292.77 113.31 290.82 108.91 287.79 105.02 285.86 103.78 
M 285.47 152.29 287.8 150.57 290.8 146.18 292.73 141.2 292.73 138.12 290.8 133.14 287.8 128.75 285.47 127.03 
M 283.41 153.74 283.4 153.74 
M 293.1 94.83 295.93 93.99 299.54 91.83 301.87 89.38 301.87 88.31 
M 293.09 114.5 295.92 113.19 299.54 109.84 301.88 106.04 301.88 103.69 299.54 99.9 295.92 96.54 293.09 95.24 
M 293.01 138.98 295.81 137.37 299.4 133.26 301.71 128.6 301.71 125.71 299.4 121.05 295.81 116.93 293.01 115.33 
M 300.5 153.72 300.57 150.66 298.23 145.95 294.6 141.79 292.04 140.32 
M 301.04 103.03 303.08 102.07 306.1 99.23 308.04 96.02 308.04 94.03 306.1 90.82 303.73 88.59 
M 300.68 125.9 303.03 124.39 306.04 120.52 307.98 116.13 307.98 113.42 306.04 109.04 303.03 105.17 301.04 103.89 
M 300.47 151.9 302.76 150.22 305.68 145.91 307.56 141.02 307.56 137.99 305.68 133.11 302.76 128.79 300.47 127.11 
M 308.17 94.79 310.98 93.94 314.59 91.76 315.78 90.5 
M 308.24 114.46 311.02 113.15 314.59 109.81 316.89 106.03 316.89 103.69 314.59 99.91 311.02 96.58 308.24 95.27 
M 307.91 138.66 310.6 137.06 314.04 132.96 316.25 128.32 316.25 125.45 314.04 120.81 310.6 116.71 307.91 115.12 
M 314.2 155.87 315.39 153.39 315.39 150.41 313.08 145.59 309.51 141.34 306.71 139.68 
M 316.07 103.13 318.23 102.11 321.25 99.26 323.19 96.03 323.19 94.04 321.66 91.49 
M 315.68 125.52 317.9 124.04 320.74 120.25 322.58 115.95 322.58 113.29 320.74 108.99 317.9 105.19 316.07 103.97 
M 314.82 151.3 316.92 149.58 319.6 145.18 321.34 140.19 321.34 137.1 319.6 132.11 316.92 127.7 315.46 126.51 
M 312.87 136.49 317.89 135.17 
M 312.38 138.49 317.94 138.34 
M 313.14 140.95 318.53 142.46 
M 317.71 156.26 316.38 154.51 314.56 153.32 
M 323.34 94.69 326.15 93.86 327.51 93.04 
M 322.93 113.6 325.63 112.35 329.09 109.14 331.32 105.5 331.32 103.25 329.09 99.61 325.63 96.4 322.93 95.14 
M 320.16 102.99 327.36 101.46 
M 319.92 104.04 327.51 104.63 
M 320.56 106.28 327.49 107.06 
M 321.67 137.23 324.25 135.63 327.56 131.51 329.69 126.84 329.69 123.95 327.56 119.28 324.25 115.16 321.92 113.71 
M 319.23 123.04 325.73 121.51 
M 319.54 125.15 325.5 125.83 
M 319.14 127.71 326.21 129.09 
M 328.58 157.01 330.26 153.21 330.26 149.98 327.95 144.75 324.38 140.14 321.58 138.33 
M 319.03 149.31 326.5 147.36 
M 319.22 151.59 326.52 151.29 
M 319.17 153.94 326.47 155.9 
M 331.03 102.69 333.33 101.65 336.27 98.99 337.93 96.35 
M 328.75 95.08 333.4 94.84 
M 328.48 97.06 334.67 97.52 
M 329.14 122.97 331.28 121.59 334.01 118.05 335.77 114.05 335.77 111.57 334.01 107.56 331.28 104.02 330.53 103.53 
M 330.53 103.53 329.14 102.64 
M 327.31 110.68 332.72 109.68 
M 326.75 112.44 332.87 112.32 
M 327.52 115.27 332.25 115.98 
M 327.06 149.14 329.36 147.02 
M 329.36 147.02 331.96 142.54 333.73 137.17 333.73 133.85 331.96 128.48 329.2 123.74 327.06 121.89 
M 324.81 132.68 330.47 131.15 
M 325.1 135.73 330.04 135.16 
M 325.17 138.66 330.9 139.31 
M 334.52 156.76 333.13 154.59 330.63 152.64 
M 337.14 112.26 339.78 111.05 343.18 107.95 345.36 104.44 345.36 102.27 343.18 98.76 342.1 97.77 
M 334.93 101.74 341.72 100.81 
M 335.06 103.43 340.98 103.2 
M 334.85 105.12 341.87 105.8 
M 335.31 135.8 338.04 134.17 341.53 129.98 343.78 125.23 343.78 122.3 341.53 117.55 338.04 113.37 335.31 111.73 
M 332.3 121.67 339.22 119.86 
M 332.93 124.22 339.27 123.59 
M 332.25 126.52 339.26 127.07 
M 343.31 157.6 345.26 152.99 345.26 149.54 342.91 143.98 339.27 139.06 336.43 137.15 
M 333.53 148.79 341.05 146.94 
M 334.14 151.35 341.28 151.01 
M 333.9 154.09 340.64 155.5 
M 345.42 101.66 347.53 100.65 348.42 99.8 
M 342.98 121.68 345.23 120.29 348.17 116.69 350.06 112.62 350.06 110.1 348.17 106.02 345.23 102.42 344.58 102.02 
M 341.91 108.76 347.01 107.87 
M 341.1 111.7 346.41 111.1 
M 340.49 113 346.6 114.27 
M 342.09 149.4 344.62 147.5 347.85 142.62 349.93 137.1 349.93 133.68 347.85 128.16 344.62 123.28 342.09 121.38 
M 339.86 132.75 346.28 131.41 
M 339.9 135.01 346.62 135.8 
M 339.55 138.29 345.91 139.18 
M 350.94 159.29 348.22 154.64 345.92 152.67 
M 351.19 111.57 353.78 110.3 357.1 107.03 359.24 103.32 359.24 103 
M 348.87 100.5 350.32 100.35 
M 348.63 102 355.26 101.82 
M 348.5 103.6 355.54 105.46 
M 350.74 136.46 353.65 134.78 357.39 130.46 359.79 125.58 359.79 122.55 357.39 117.67 353.65 113.36 350.74 111.67 
M 357.14 160.55 358.5 158.78 360.89 153.32 360.89 149.94 358.5 144.48 354.8 139.66 351.91 137.78 
M 358.54 123.44 360.84 121.86 363.79 117.82 365.69 113.25 365.69 110.42 363.79 105.84 362.45 104.01 
M 360.03 150.84 361.98 149.46 365.32 144.72 367.47 139.35 367.47 136.02 365.32 130.66 361.98 125.92 359.38 124.07 
M 365.62 160.41 365.27 159.42 362.46 154.8 360.26 152.99 
M 365.01 110.49 367.09 109.31 369.68 106.36 
M 366.7 137.48 369.3 135.87 372.93 131.36 375.27 126.27 375.27 123.11 372.93 118.02 369.3 113.51 366.47 111.76 
M 374 158.18 376.07 153.51 376.07 150.26 373.74 145 370.12 140.36 367.3 138.55 
M 372.53 123.46 374.66 121.71 377.39 117.23 379.15 112.16 379.15 109.9 
M 375.43 152.28 377.84 150.43 380.91 145.69 382.89 140.32 382.89 136.99 380.91 131.62 377.84 126.88 375.43 125.03 
M 378.2 156.79 376.34 153.85 375.24 152.99 
M 381 137.57 383.71 135.73 387.17 131.02 389.41 125.68 389.41 122.38 387.17 117.04 383.71 112.33 381.48 110.82 
M 390.69 152.64 390.69 149.89 388.41 144.64 384.87 140.01 382.11 138.2 
M 388.57 119.41 390.86 115.6 391.17 114.69 
M 390.27 152.32 392.53 150.42 395.42 145.54 397.29 140.02 397.29 136.61 395.42 131.09 392.53 126.21 390.27 124.31 
M 388.41 135.66 393.6 133.75 
M 388.25 138.73 393.72 138.1 
M 387.79 141.54 393.55 142.15 
M 390.45 152.73 389.87 152.3 
M 396.62 136.2 398 135.21 401.34 130.38 403.05 126.04 
M 403.05 120.39 402.82 119.82 
M 393.21 120.16 399.78 119.39 
M 392.55 123.14 399.12 122.98 
M 392.85 126.1 399.55 127.8 
M 403.05 144.03 399.63 139.41 396.91 137.57 
M 394.3 148.01 400.94 147.22 
M 394.57 151.24 395.13 151.21 
M 401.02 122.43 403.05 120.62 
M 402.06 134.47 403.05 134.23 
M 401.99 136.89 403.05 136.88 
M 402.02 139.78 403.05 140.14 
M 133.98 177.83 135.05 177.12 135.74 176.19 
M 152.09 184.74 151.6 184.07 149.87 182.88 
M 158.06 82.96 158.06 82.96 
M 162.83 187.53 163.03 187.06 
M 183.36 192.03 183.36 191.38 
M 195.7 194.65 195.88 194.02 
M 204.28 196.21 203.3 194.75 
M 216.81 198.2 217.67 197.18 
M 233.6 200.38 233.6 198.5 233.06 197.1 
M 247.37 200.33 246.96 199.98 
M 273 83.07 273 83.07 
M 287.63 86.05 287.63 86.05 
M 315.78 90.5 315.78 90.5 
M 327.51 93.04 327.51 93.04 
M 342.1 97.77 342.1 97.77 
M 348.42 99.8 348.42 99.8 
M 371.91 161.12 373.74 158.77 374 158.18 
M 388.57 158.02 390.69 153.14 390.69 152.64 
M 402.82 119.82 402.82 119.82 
M 395.13 151.21 401.67 150.89 
M 177.25 79.88 177.25 79.88 
M 186.47 78.78 190.05 70.93 191.15 67.88 193.78 66.36 196.09 64.51 197.32 61.59 198.74 58.85 201.04 57.41 204.03 57.23 206.36 55.63 208.08 53.15 210.52 51.37 216.87 50.84 220.06 50 222.62 48.45 224.6 46.77 229.79 45.4 235.43 43.61 242.76 43.79 246.35 44.47 249.02 44.35 251.35 43.52 253.41 42.25 257.04 42.55 260.03 42.48 263.69 43.11 266.3 42.99 270.4 45.91 275.44 47.9 280.99 52.07 288.38 56.53 292 59.09 295.26 59.61 297.47 60.37 299.68 59.76 301.78 58.48 304.82 58.31 311.31 61.36 313.69 62.27 323.21 64.88 332.79 71.47 338.88 75.18 341.77 77.56 344.49 80.37 346.21 82.92 348.44 88.37 350.6 95.84 350.55 100.42 
M 345.85 99.06 345.85 99.06 
M 182.18 79.29 182.18 79.29 
M 186.31 78.8 186.88 76.97 
M 187.11 78.7 187.28 78.68 
M 188.63 78.53 190.07 78.37 191.07 75.86 193.4 70.93 193.79 68.45 
M 192.06 78.31 193.94 77.37 195.06 74.58 197.01 71.41 198.47 68.49 197.86 63.19 197.2 59.52 
M 197.01 78 198.59 76.73 200.84 71.37 201.38 68.92 201.97 67.14 
M 201.96 77.63 203.89 75.84 204.75 73.39 206.21 65.64 207.34 64.26 
M 206.91 77.17 208.71 75.53 209 73.3 209.9 71.16 211.89 65.1 213.39 63.35 214.33 60.94 
M 211.86 76.8 213.3 75.32 213.71 72.68 214.75 70.42 215.21 68.24 216.36 65.2 219.7 59.75 220.25 57.2 
M 216.83 76.82 218.5 75.43 221.16 70.36 222.11 67.67 223.68 64.75 224.08 62.45 
M 221.79 76.83 223.99 75.23 225.27 72.32 228.04 66.75 229.02 65.2 228.7 63.63 229.09 60.69 
M 226.75 77.09 229.11 75.77 230.38 73.31 232.24 70.23 234.03 66.23 235.16 65.01 
M 231.71 77.38 234.19 75.85 237.39 70.63 238.41 68.18 238.71 66.55 239.63 64.63 240.33 62.67 242.12 58.91 242.97 55.42 243.71 53.45 245.22 50.84 
M 236.67 77.56 239.2 75.96 240.64 73.7 240.87 71.57 241.33 69.42 245.14 61.71 246 59.3 247.48 56.03 248.9 53.57 
M 241.63 77.69 243.92 75.97 244.64 74 244.84 72.64 245.68 69.88 247.34 66.47 248.93 63.83 250.9 61.41 252.07 58.15 252.5 55.16 253.72 52.97 254.65 50.53 254.98 48.11 254.95 45.62 255.5 43.19 
M 246.59 77.98 248.85 75.71 250.62 71.83 251.72 69.99 253.57 67.43 255.85 65.28 256.87 62.45 258.84 60.37 259.54 57.53 259.19 54.59 261.96 46.39 
M 251.52 78.55 253.69 76.58 254.84 74.93 255.7 72.84 260.52 65.81 262.02 62.51 
M 256.45 79.17 258.85 77.2 260.28 75.38 261.38 73.5 262.44 71.02 263.89 68.4 264.85 65.6 267.79 60.13 268.79 56.53 270.48 54.41 
M 261.3 80.23 264.39 78.21 266.13 75.82 267.51 74.63 268.06 72.22 269.23 70.36 271.69 68.12 273.58 65.29 275.99 63.81 276.75 61.19 277.01 58.37 280.8 53.67 
M 266.15 81.29 268.84 79.82 270.59 77.85 272.23 76.5 273.47 74.69 274.29 72.38 276.74 69.57 
M 270.96 82.52 273.63 81.87 274.93 80.07 276.85 78.29 278.46 76.21 279.94 73.9 
M 275.76 83.8 278.55 83.14 279.94 80.74 281.63 78.43 283.5 77.05 285.62 74.27 287.66 72.04 289.03 69.97 290.8 68.58 
M 280.61 84.87 282.99 83.8 284.58 81.78 286.34 80.07 288.02 77.42 290 75.13 290.99 73.4 292.83 71.71 294.8 68.44 295.95 65.04 
M 285.5 85.69 287.68 84.28 289.68 82.4 291.89 80.02 294.54 75.25 295.49 74.07 
M 290.4 86.51 292.68 84.99 299.13 75.86 300.79 73.86 302.19 71.55 304.97 68.61 308.22 63.14 
M 295.31 87.28 297.49 86.14 301.27 81.19 302.25 78.21 304.58 75.55 306.62 72.86 307.28 69.34 309.53 67.07 
M 300.21 88.05 303.13 86.42 306.19 81.24 307.22 78.86 311.68 72.66 
M 305.12 88.81 308.08 87.27 309.81 85.08 310.92 82.37 311.59 80.11 313.2 77.51 316.7 73.99 
M 310.03 89.56 312.53 89.08 317.79 77.88 319.86 76.53 321.35 75.19 
M 314.93 90.35 317.42 89.97 321.29 84.51 322.09 82.17 323.77 79.85 324.78 78.07 326.01 75.29 
M 319.82 91.18 322.98 90.66 325.14 89.08 326.7 87.05 327.9 84.11 329.71 81.44 
M 324.69 92.18 328.11 92.33 331.08 90.97 332.44 88.31 
M 329.44 93.63 333.1 93.76 336.08 91.95 338.64 90 
M 334.18 95.08 337.83 95.11 341.08 93.88 343.03 91.91 345.76 89.6 
M 338.89 96.67 343.1 97.87 346.87 97.14 
M 134.5 157.72 144.55 157.19 150.78 156.62 175.46 155.07 183.56 154.71 202.31 153.33 208.51 152.97 214.07 153.36 217.09 153.31 220.37 152.81 223.33 152.16 226.19 152.06 229.24 152.37 232.23 152.32 235.62 151.8 238.58 151.69 247.42 151.7 256.03 152.44 259.1 152.49 262.38 152.8 265.74 152.5 271.3 152.56 283.47 153.75 286.37 153.74 289.13 154.19 292.2 153.8 298.54 153.86 301.28 153.66 303.77 154.37 306.61 154.59 313.1 155.75 319.1 156.41 325.1 156.5 327.6 156.96 330.82 157.12 334.19 156.74 339.88 156.93 342.81 157.57 346.04 157.81 348.88 158.83 354.49 160.14 357.76 160.65 362.48 160.29 369.45 160.62 373.16 161.37 376.55 161.77 379.29 162.64 381.89 162.86 385.06 162.69 392.63 165.93 395.6 166.71 401.82 166.18 404.16 166.58 410.6 167.08 417.34 169.05 419.08 169.89 394.21 179.57 391.14 180.14 385.72 182.02 379.93 183.53 375.09 186 369.02 187.21 365.49 187.26 362.4 187.74 356.81 189.31 354.45 190.52 345.2 192.01 342.44 192.69 339.9 193.53 336.97 193.98 333.7 194.1 330.81 194.59 327.24 194.41 324.2 194.75 315.49 196.06 312.35 196.2 306.88 197.28 303.6 197.28 295.36 198.87 289.16 198.95 283.75 199.7 277.64 199.75 274.9 200.09 271.25 199.52 264.73 198.85 259.13 198.97 256.19 198.88 252.99 198.53 247.14 198.41 244.4 198.53 241.05 197.95 234.73 197.18 231.81 197.04 229.41 197.41 223.1 196.64 220.71 197.03 215.64 197.23 202.65 194.64 199.66 194.25 194.13 193.92 187.63 192.09 184.76 191.55 177.08 190.85 171.27 189.68 147.55 182.14 139.79 177.97 134.48 175.64 
M 135.49 159.33 150.74 158.81 163.24 158.17 181.11 157.76 193.71 157.89 196.84 157.79 202.34 157.28 208.3 157.15 211.22 157.63 214.46 157.83 217.47 157.71 220.41 157.08 222.94 156.92 229.06 156.88 232.11 157.07 235.18 157.64 238.05 157.69 241.21 157.33 247.29 157.39 249.89 158.57 252.61 158.8 255.19 158.78 262.43 159.35 266.52 159.96 273.87 160.39 276.93 160.78 280.07 160.95 283.16 161.67 286.12 161.83 292.47 161.26 295.57 161.47 298.67 162 301.34 162.99 303.85 162.91 307.01 163.53 309.96 164.4 313.34 165.02 316.66 165.42 319.54 166.08 322.1 166.03 327.31 166.87 330.4 166.67 339.4 168.34 342.24 168.4 348.21 169.25 351.23 170.46 354.39 172.08 357.27 172.68 360.31 172.91 362.62 173.77 365.55 174.13 368.79 175.02 371.77 175.46 375.01 175.29 377.42 175.9 383.75 176.2 386.73 176.61 389.64 178.38 
M 141.67 160.86 150.73 160.86 156.84 160.59 166.42 160.51 180.75 160.96 186.8 160.97 196.95 161.72 199.82 161.8 202.8 161.38 205.55 161.21 211.31 161.88 217.69 162.15 223.38 161.53 226.21 161.8 228.97 161.72 234.44 162.63 237.78 162.96 247.38 163.43 252.84 164.52 256.12 164.75 259.3 165.17 262.59 165.9 
M 134.67 162.52 150.77 163.01 153.89 162.74 156.88 162.69 166.8 163.32 169.35 163.27 174.97 163.94 183.87 164.34 187.01 164.34 196.79 165.76 205.55 165.35 211.48 165.63 217.79 166.42 226.53 166.44 234.47 168.98 237.69 169.47 243.74 169.27 252.58 170.21 259.1 171.89 262.1 173.14 265.47 173.71 
M 134.78 164.18 138.67 164.52 144.99 164.67 148.11 164.95 156.97 165.05 166.61 165.9 172.01 166.63 180.9 166.92 187.23 167.71 196.42 169.33 199.52 169.56 204.49 169.36 211.06 169.76 214.65 170.46 217.91 170.82 220.69 171.61 226.17 172.05 229.03 172.46 234.59 174.4 237.67 175.22 243.59 175.91 246.76 175.88 252.7 178.17 256.09 178.52 258.92 179.11 261.22 180.23 267.19 181.58 269.57 182.46 272.28 183.2 274.9 184.35 278.17 184.93 282.23 184.96 285.79 185.58 288.77 186.35 291.25 187.42 
M 138.64 166.21 144.98 166.57 163.36 168.5 166.43 168.58 169.18 169.35 172.08 169.78 175.16 169.47 181.11 169.96 184.21 170.59 187.36 170.86 193.04 172.56 195.89 172.85 198.97 173.56 204.37 173.83 210.43 175.24 213.66 175.78 
M 135.45 167.53 138.69 167.97 144.91 168.52 151.01 169.4 157.15 170.81 166.21 171.78 168.89 172.36 175.5 172.67 184.01 173.91 187.28 174.67 189.77 175.61 195.89 177.29 201.59 178.47 204.15 179.71 209.94 181.32 
M 141.85 170.04 144.88 170.73 147.88 171.14 154.05 172.64 157.08 173.14 162.73 174.38 168.92 175.45 171.83 175.55 175.27 176.13 178.4 176.76 180.92 177.59 186.64 178.94 189.47 179.41 192.28 180.66 195.3 182.37 198.12 183.46 201.07 184.14 203.68 185.27 206.66 186.13 212.77 188.33 215.55 188.58 
M 135 170.61 141.83 171.89 144.75 172.73 147.66 173.25 153.74 175.06 165.33 178.11 168.38 178.71 171.3 178.89 177.76 180.83 180.23 181.77 185.64 182.86 188.33 183.6 191.08 185.66 197.19 188.86 
M 138.95 173.08 141.91 173.78 144.76 174.77 150.74 176.5 153.65 177.7 160.08 179.87 162.89 180.6 167.96 182.43 
M 141.95 176 147.63 178.23 153.91 181.27 157.34 182.44 160.23 183.8 162.8 184.66 
M 154.77 191 160.24 198.12 162.46 201.53 163.99 204.54 168.2 209.61 168.8 211.86 170.54 214.46 172.33 217.73 174.08 220.22 177.45 224.43 178.44 227 179 229.36 173.74 237.07 172.89 240.31 170.88 242.27 170.05 245.17 167.29 250.07 165.4 252.31 160.83 256.02 158.89 258.27 157.52 261.11 154.61 262.85 144.44 267.74 145.38 264.18 145.22 260.88 144.86 258.45 144.58 254.28 144.02 251.69 144.17 243.47 144.49 240.27 144.43 237.23 145.08 231 144.97 228.4 145.37 224.91 146.26 221.51 146.5 215.72 146.19 213.68 145.39 211.21 145.43 208.05 144.96 204.28 145 194.31 144.66 191.09 143.52 186.87 
M 152.9 190.32 156.02 194.84 161.92 204.1 162.76 206.9 163.85 209.08 166.09 211.55 166.22 214.1 167.79 216.82 169.07 219.94 
M 151.04 189.63 153.81 193.91 155.24 197.41 159.57 206.37 160.5 208.93 163.44 214.18 163.57 217.96 164.92 220.5 166.85 223.01 167.59 225.29 170 230.67 171.1 234.07 
M 149.17 188.95 151.41 193.36 153.88 200.21 155.48 203.22 156.55 206.03 157.7 211.87 158.55 214.41 158.56 217.45 159.95 220.72 161.72 223.83 162.22 227.37 
M 147.31 188.26 149.18 192.42 150.67 198.94 154.83 211.94 155.32 214.9 154.69 217.69 154.95 220.45 156.02 222.96 157.14 227.17 157.58 231.15 157.56 233.62 159.52 238.04 160.09 241.08 160.42 244.07 159.32 247.35 159.47 250.78 160.23 254.11 
M 145.44 187.58 147.01 191.82 147.63 194.72 148.7 205.52 149.66 208.83 149.75 212.08 150.96 216.02 151.9 225.88 150.99 229.04 151.03 232.1 150.5 234.9 151.46 237.69 152.08 240.68 151.58 244.31 152.37 252.01 152.36 254.45 154.09 256.76 
M 341.94 192.86 344.42 195.39 347.85 197.83 351.04 210.1 351.49 212.82 351.74 215.34 350.72 218.33 349.87 221.62 345.96 225.14 342.8 225.21 338.96 224.61 335.79 223.78 333.27 222.92 330.92 222.66 325 224.05 321.87 224.55 319.16 224.12 316.13 222.68 314.17 222.31 311.15 220.77 300.56 211.05 297 208.82 296.09 205.81 294.1 203.06 290.15 198.92 
M 337.13 193.96 340.29 197.35 
M 331.98 194.39 334.81 199.27 342.57 206.54 345.27 207.29 
M 326.15 194.53 328.67 197.21 330.91 200.15 333.44 202.95 339.15 207.78 341.99 209.29 345.3 213.98 348.21 215.11 349.92 217.41 
M 321.05 195.23 328.33 203.49 330.49 206.35 333.12 209.16 336.57 212.04 
M 315.72 196.02 319.82 200.49 322.41 202.89 323.72 205.36 
M 309.95 196.74 313.32 200.03 315.01 202.52 316.97 204.87 318.35 207.3 
M 303.86 197.28 308.01 202.3 311.09 204.53 313.11 207.24 314.01 209.87 315.6 211.39 318.28 214.51 322.53 220.47 324.12 221.45 
M 298.62 198.24 300.35 200.58 303.54 203.32 308.43 206.77 310.23 210.22 312.43 213.14 314.07 216.28 316.2 219.79 317.65 223.34 
M 293.47 198.86 298.47 204.59 300.73 207.6 303.82 209.74 
M 402.05 119.46 405.56 118.85 408.45 117.81 411.42 117.05 417.71 114.44 421.16 112.36 424.02 110.09 429.2 108.15 431.4 106.87 433.59 105.16 436.42 102.14 439.4 100.1 442.17 100.03 449.33 102.47 452.36 101.84 455.19 101.02 457.6 101.83 459.39 102.03 461.81 103.37 467.17 106.84 472.42 112.05 474.79 114.05 478.35 116.47 482.85 121.8 484.16 124.69 484.63 126.78 487.91 132.76 488.96 135.19 489.8 141.16 490 144.44 489.38 147.46 488.44 150.11 488.18 153.42 483.47 156.95 481.69 159.31 480.59 162.28 480.33 165.78 479.19 168.64 476.7 170.19 472.44 174.33 470.2 176.28 467.89 177.91 465.15 178.9 461.86 179.35 459.3 180.57 453.99 182.45 450.3 181.56 438.36 182.98 435.83 182.2 432.17 176.74 429.96 174.82 428.38 173.56 426.46 172.65 422.56 170.14 416.94 165.11 413.7 163.61 410.67 161.84 408.16 159.68 405.57 156.64 402.05 154.18 
M 411.31 118.89 421.19 115.69 423.97 113.45 426.37 111.77 428.91 111.19 431.07 109.93 433.18 106.98 435.13 106.04 438.25 103.8 442.79 102.98 447.26 102.73 
M 411.73 121.27 413.75 120.47 417.19 119.77 421.34 119.2 424.58 116.94 426.61 115.2 429.58 114.05 430.91 111.81 436.01 109.37 438.77 107.32 
M 402.05 124.67 405.47 124.57 408.81 123.63 411.72 123.35 414.04 122.76 422.01 121.64 427.31 118.8 429.46 117.43 433.53 113 436.77 112.65 439.33 111.88 442.4 109.95 445.14 108.59 449.02 108.26 452.34 107.75 
M 411.67 125.09 414.64 124.81 417.81 124.14 424.9 123.21 427.87 121.81 429.94 120.41 431.73 118.17 434.51 117.02 439.93 115.34 443.7 114.88 446.58 113.5 452.81 112.08 454.35 112.33 457.3 110.39 
M 402.05 128.14 405.6 128.22 408.7 127.72 411.82 126.98 417.83 126.24 420.96 126.09 427.76 124.9 430.04 123.46 432.54 121.37 438.06 120.09 440.84 120.15 443.97 121.32 447.8 119.76 450.5 118.34 453.52 117.52 455.02 117.31 458.17 116.1 
M 405.77 130.32 415.34 128.39 421.45 128.51 424.43 128.16 427.12 127.36 430.45 126.12 433.61 124.48 437.06 123.93 439.29 124.57 442.12 124.84 445.36 124.63 
M 402.05 131.61 405.85 132.21 409.05 132 411.9 131.53 415.26 130.69 418.46 131.16 421.64 131.18 427.78 130.74 430.52 129.62 434.6 128.23 437.84 127.51 440.71 127.57 442.93 128.35 449.13 127.54 452.75 127.32 456.28 128.21 458.69 127.25 
M 409.07 134.06 412.09 133.63 415.2 133.59 421.91 133.82 425.09 134.21 430.75 132.29 434.68 131.51 437.5 131.66 440.19 131.25 442.77 132.17 449.99 132.16 453.87 132.59 457.65 132.79 460.48 131.92 462.8 131.58 463.59 130.18 466.29 129.75 473.32 128.2 477.27 127.58 480.46 128.12 484.08 129.1 
M 402.05 135.08 405.97 135.77 409.1 135.94 412.4 135.64 415.75 135.56 421.82 136.81 425.1 137.32 427.73 136.93 430.61 136.25 440.01 135.36 446.88 135.42 448.84 135.6 452.91 135.18 457.84 135.1 459.08 134.88 460.45 135.34 463.91 135.51 466.94 135.08 471.24 134.7 
M 412.69 137.63 415.88 137.7 421.69 139.93 424.85 140.62 428.46 140.85 431.6 140.4 434.2 139.26 437.44 139.24 440.25 138.21 446.93 138.05 449.98 139.34 455.77 138.9 459.4 139.09 461.25 139.73 463.81 141.39 467.46 140.92 471.71 138.84 477.74 141.09 
M 412.7 140.01 415.94 140.37 418.81 141.43 425.4 142.97 428.18 143.08 430.85 142.72 437.82 142.81 440.95 143.78 444.49 144.25 447.88 144.26 450.53 143.75 453.23 144.3 455.67 145.38 458.32 145.3 461.94 144.69 465.48 145.49 468.75 145.54 470.4 146.14 
M 406.06 141.53 409.4 141.68 412.9 142.3 416.04 143.2 418.95 143.6 422.32 144.48 425.88 144.67 428.37 145.03 430.94 145.6 433.86 146.57 436.85 146.93 443.84 148.8 447.35 149.47 450.24 149.8 452.23 150.93 454.3 151.52 458.15 151.53 465.89 150.42 469.02 151.36 
M 402.05 142.03 406.1 143.39 409.41 143.75 422.44 146.51 428.94 148.21 431.37 149.19 434.01 149.71 439.79 151.47 443.02 152.79 449.15 154.84 451.7 155.91 455.81 156.31 458.85 156.02 461.71 155.15 464 156.82 466.72 157.65 470.54 158.45 
M 406.07 145 419.32 148.51 422.47 149.16 425 150.54 428.99 151.81 431.11 152.32 433.34 153.54 443.47 157.49 446.55 158.19 449.25 159.24 456.26 158.39 461.5 160.04 463.33 161.87 466.01 162.3 
M 402.05 145.5 406.16 146.7 409.47 148.1 415.52 149.97 421.76 153.08 425.2 153.96 428.69 155.42 430.93 156.62 435.54 159.6 439.05 160.58 446.06 163.31 449.03 163.7 451.76 162.91 455.04 163.81 458.16 165.07 460.47 167.77 463.27 168.87 
M 411.97 151.76 417.9 155.01 428.65 159.67 431 161.44 432.47 162.14 441.3 165.69 443.68 166.88 449.85 169.11 451.83 170.63 455.13 171.8 461.5 175.45 
M 402.05 148.97 405.94 150.68 414.21 156.27 417.06 158.01 420.83 159.3 428.41 162.89 430.71 164.49 432.47 165.47 435.04 165.88 438.75 167.9 
M 411.04 157.23 413.01 158.8 416.39 160.64 420.17 162 424.6 164.35 428.04 165.58 430.13 167.78 433.24 168.43 436.12 169.39 439.3 170.96 441.52 172.89 443.34 175.02 446.31 176.19 449.41 177.14 
M 402.05 152.44 405.8 154.71 408.22 157.45 410.73 159.69 413.34 161.43 420.56 164.8 429.88 170.7 432.53 171.67 434.9 172.9 438.9 177.1 441.89 178.45 
M 38.94 131.86 39.84 130.65 41.88 128.47 44.38 126.09 47.28 123.61 51.15 120.83 56.25 117.66 61.98 114.48 68.18 111.92 81.37 107.75 87.67 105.24 94.06 102.99 111.68 97.71 116.09 96.73 121.1 95.97 128.07 99.67 130.55 103.95 131.75 108.39 132.12 117.56 133.03 122.04 132.82 126.68 133.25 131.23 133.9 149.56 134.58 154.08 134.48 158.7 135.07 167.83 134.95 172.45 134.25 177.15 132.34 182.01 119.61 181.79 110.33 180.99 102.22 179.46 94.77 177.59 87.66 175.02 80.77 171.52 74.32 167.97 68.6 164.29 63.73 160.43 58.8 156.87 
M 55.52 154.44 51 150.65 46.51 145.87 
M 108.46 122.06 108.63 125.95 107.53 133.27 105.82 139.62 105.53 144.91 106.15 147.41 108.76 153.32 109.94 156.88 110.24 160.94 95.6 161.65 89.87 161.39 84.18 160.77 78.37 159.38 72.52 156.85 66.94 153.91 
M 57.34 156.14 52.91 152.04 47.51 146.67 43.82 143.57 38.51 138.62 36.9 136.85 35.61 134.85 36.12 132.63 38.38 131.62 40.67 132.57 51.08 145.66 59.16 156.55 
M 56.38 157.47 46.18 157.86 36.65 158.77 
M 34.53 158.88 31.82 158.77 30.8 157.71 
M 30.76 157.67 30.01 156.9 30 154.42 31.82 152.96 34.34 153.1 46.38 154.45 57.68 156.2 
M 58.26 156.29 58.83 156.38 
M 71.19 133.74 69.95 129.04 70.3 124.19 72.21 119.72 75.47 116.11 79.72 113.75 84.5 112.91 89.31 113.66 93.6 115.93 96.93 119.47 98.93 123.9 99.38 128.74 98.23 133.47 95.61 137.56 91.81 140.59 87.23 142.21 82.37 142.26 77.75 140.73 73.89 137.78 71.19 133.74 
M 71.01 133.32 70.42 131.59 70.04 129.8 69.89 127.98 69.96 126.15 70.27 124.34 70.79 122.59 71.52 120.91 72.46 119.34 73.58 117.9 74.88 116.6 76.32 115.48 77.89 114.54 79.57 113.81 81.32 113.29 83.13 112.98 84.96 112.91 86.78 113.06 88.57 113.43 90.3 114.03 
M 72.84 132.56 72.01 129.51 71.87 127.93 72.19 124.86 
M 72.92 122.67 74.1 120.46 76.19 118.09 77.44 117.12 80.25 115.67 81.77 115.22 84.92 114.89 86.49 115.02 89.54 115.86 
M 74.68 131.8 73.97 129.23 73.86 127.89 74.06 125.68 
M 77.09 119.99 78.56 118.76 79.71 118.07 82.22 117.16 84.87 116.88 86.21 116.99 88.78 117.7 
M 76.51 131.04 75.94 128.94 75.85 127.85 75.98 126.23 
M 78.44 121.45 79.68 120.4 80.62 119.84 82.67 119.09 83.74 118.91 85.92 118.96 88.02 119.53 
M 79.27 130.1 78.77 128.22 78.87 126.85 
M 80.44 123.64 80.98 123.05 82.68 122.1 84.59 121.76 86.51 122.07 88.23 122.97 89.56 124.39 90.36 126.16 90.54 128.1 90.08 129.99 89.04 131.63 87.51 132.84 85.68 133.49 83.74 133.51 81.89 132.89 80.35 131.71 79.27 130.1 
M 82.19 122.37 81.29 124.16 
M 79.87 127.01 78.94 128.87 
M 83.92 121.88 82.36 125.02 
M 81.31 127.11 79.58 130.57 
M 85.41 121.89 83.31 126.09 
M 82.95 126.82 80.46 131.8 
M 86.75 122.19 81.54 132.62 
M 87.93 122.81 82.75 133.18 
M 88.95 123.74 84.07 133.5 
M 89.83 124.98 85.57 133.49 
M 90.42 126.77 87.36 132.89 
M 40.12 130.36 43.23 133.47 
M 43.06 127.34 48.61 132.89 
M 46.21 124.53 51.26 129.58 
M 49.59 121.95 53.97 126.33 
M 53.17 119.57 56.35 122.76 
M 56.87 117.32 61.57 122.02 
M 60.7 115.19 63.96 118.45 
M 64.79 113.32 68.86 117.39 
M 69.08 111.65 72.79 115.37 
M 73.65 110.27 77.41 114.03 
M 78.15 108.81 81.32 111.98 
M 82.57 107.27 88.31 113.01 
M 86.84 105.58 91.33 110.07 
M 91.21 103.99 95.74 108.53 
M 95.67 102.49 101.14 107.96 
M 100.21 101.08 104.4 105.27 
M 104.8 99.7 108.24 103.15 
M 109.41 98.36 114.95 103.9 
M 114.17 97.16 118.34 101.33 
M 119.17 96.2 122.95 99.98 
M 128.93 107.91 128.38 106.26 127.5 104.65 126.87 102.93 125.63 100.68 124.09 99 121.72 97.6 121.03 96.21 
M 92.68 176.83 93.62 174.17 94.21 173.11 95.69 171.64 96.44 171.11 97.26 170.7 98.08 170.57 98.67 170.73 99.98 172.1 
M 110.72 176.96 110.31 174.78 109.65 173.13 109.18 172.67 108.66 172.46 107.08 172.22 
M 128.02 181.72 127.43 180.16 127.28 177.4 126.21 174.57 126 173.48 126.06 172.51 126.35 171.71 126.9 171.12 128.06 170.3 
M 66.15 153.07 67.68 152.61 69.46 151.21 70.26 150.05 70.89 148.3 72.56 145.9 
M 123.18 139 121.05 138.5 118.99 137.81 116.66 136.28 115.25 134.84 113.34 134.1 112.01 133.96 
M 115.03 99.9 115.12 102.02 115.99 103.67 117.4 104.53 119.17 104.63 
M 120.11 163.81 119.67 165.26 118.23 167.83 
M 94.62 177.54 95.06 174.33 95.46 173.12 96.93 171.56 97.64 171.16 98.3 171.01 98.81 171.1 99.52 171.61 100.56 172.75 
M 88.41 175.29 89.17 174.04 90.62 170.86 91.09 170.23 91.65 169.86 
M 102.72 170.61 101.94 172.58 102.06 173 102.53 173.09 
M 115.09 122.47 115.08 123.28 115.58 124.31 118.4 125.2 
M 111.38 129.81 110.6 128.98 110.03 128.03 108.82 122.29 108.45 121.74 107.31 120.88 
M 103.75 124.99 101.5 123.11 100.75 122.27 99.95 120.62 99.3 120.34 98.44 120.27 97.51 120.75 
M 69.17 164.66 68.8 163.84 67.84 162.44 67.31 160.66 67.47 158.89 69.02 154.85 
M 68.05 129.85 66.73 130.32 64.68 130.31 
M 63.97 126.31 63.37 126.27 62.88 126.44 62.46 126.79 60.69 129.14 60.19 131.08 60.28 133.34 
M 42.36 134.29 41.91 134.08 
M 46.24 133.15 44.01 132.01 41.1 131.05 39.75 130.77 
M 123.16 125.74 124.04 124.84 
M 126.98 135.79 122.86 135.16 121.14 134.57 119.81 133.9 119.51 133.59 119.22 132.64 119.21 132.06 119.51 130.92 
M 61.89 118.05 61.3 114.85 
M 108.74 143.91 109.08 144.47 109.37 144.63 110.01 144.58 111.17 143.8 111.29 143.52 111.11 143.27 
M 112.98 111.4 113.3 112.99 113.25 113.76 112.99 114.52 111.78 116.09 109.9 117.79 108.32 118.72 107.72 118.88 106.62 118.79 105.06 118.2 
M 84.37 157.99 86.35 158.95 86.99 159.98 87.02 161.19 86.23 162.93 85.07 164.2 84.32 164.84 82.2 165.67 
M 123.01 130.28 123.8 129.75 124.44 129.91 
M 101.37 127.54 99.12 125.98 
M 60.37 147.81 61.85 146.93 62.7 146.76 63.87 147.07 66.45 147.13 67.12 146.71 67.47 146.22 
M 103.2 101.38 104.26 101.3 105.53 100.94 106.11 100.63 106.39 100.08 
M 48.71 130.31 46.63 129.41 44.55 127.62 43.47 126.95 
M 111.82 181.12 111.87 180.07 111.62 178.11 110.79 174.81 110.03 173.08 109.54 172.59 108.99 172.33 
M 110.36 165.11 106.55 168.87 104.67 170.14 103.95 170.82 103.14 172.6 103.27 173.01 103.62 173.15 
M 115.15 141.48 113.86 139.13 112.83 138.21 111.03 136.92 110.58 136.95 110.31 137.75 
M 69.67 161.59 69.11 160.92 68.8 160.25 68.77 159.52 70.15 152.33 
M 63.6 147.48 66.63 147.94 67.26 147.88 67.73 147.45 68.15 146.09 
M 73.98 137.85 73.48 138.29 72.78 138.11 
M 66.82 157.27 68.15 153.39 70.24 150.83 71.13 148.74 
M 131.79 121.26 131.07 118.96 130.01 116.91 129.56 116.42 128.97 116.26 
M 88.64 104.9 90.49 106.62 92.04 107.84 93.8 108.93 94.76 109.76 95.26 110.8 95.4 113.17 
M 81.7 158.32 82.3 158.34 82.93 159 83.22 159.69 83.38 160.82 
M 100.49 125.49 98.97 124.36 
M 103.62 156.36 105.36 158.41 108.62 160.53 109.17 161.39 109.38 162.08 109.14 163.55 
M 130.91 113.52 129.81 111.57 125.68 105.22 123.89 103.06 122.43 100.54 120.8 99.17 
M 63.55 157.3 64.62 156.09 65.57 154.61 67.03 153.66 68.98 151.91 69.94 150.86 70.43 150.07 
M 46.92 133.31 43.76 131.61 40.15 130.32 
M 91.39 160.33 91.36 160.97 91.82 161.41 93.19 161.65 93.82 161.49 94.43 161.05 95.43 159.89 95.92 158.52 
M 129.96 164.76 129.56 165.13 129.47 165.44 130.06 166.96 
M 115.06 124.67 117.89 125.19 119.71 125.88 
M 127.29 147.53 127.31 145.41 126.97 144.42 126.64 144 125.36 143.44 123.71 143.49 122.87 143.16 
M 129.85 123.02 128.32 122.93 127.52 123.17 126.96 123.87 126.69 124.77 
M 53.17 120.56 52.77 121.48 52.52 122.78 51.36 124.3 50.64 124.78 50.25 124.86 48.76 124.51 
M 65.98 117.96 64.59 115.79 63.67 113.78 
M 81.6 163.89 80.32 164.01 79.92 163.67 79.36 160.87 78.8 159.15 
M 98.39 159.8 98.99 159.54 99.21 159.82 
M 76.31 154.59 74.17 152.75 73.46 151.77 72.99 150.87 72.81 150.03 72.87 149.08 73.15 148.02 73.58 147.14 75.01 144.74 77.6 143.18 
M 127.8 135.31 122.97 134.57 121.03 133.74 120.34 132.91 120.22 132.35 120.31 131.07 120.53 130.58 
M 61.03 158.48 63.11 157.64 63.63 157.22 65.67 154.53 67.13 153.58 69.37 151.52 
M 102.02 162.96 101.1 164.43 100.71 165.51 100.18 170.56 100.18 171.23 100.7 172.54 
M 70.67 138.95 71.34 141.97 71.77 142.58 
M 73.52 115.04 73.21 115.9 72.38 117.23 71.67 118.03 70.96 118.5 70.39 118.56 69.86 118.34 69.18 117.35 
M 112.59 112.58 112.47 113.37 111.58 114.89 109.99 116.43 108.35 117.58 107.23 117.86 106.76 117.8 103.49 116.48 
M 78.39 170.21 78.87 169.92 
M 107.39 109.57 103.72 107.82 102.51 107.65 101.17 107.82 
M 125.51 167.94 126.37 168.47 126.96 168.48 129.17 167.37 
M 60.02 158.05 58.82 159.12 57.36 160.07 55.73 160.7 54.06 161.01 52.43 161.05 47.9 160.53 41.95 160.13 37.51 159.44 33.11 158.51 30.29 157.54 33.15 158.36 36.09 158.74 42.02 159.03 47.98 158.8 52.37 158.86 54.94 158.32 56.04 157.75 57 156.97 57.91 155.94 
M 58.83 156.85 59.63 157.73 
M 53.91 152.96 53.94 153.58 54.34 153.36 
M 49.38 148.46 49.04 149.08 48.92 150.17 49.45 149.52 50.14 149.22 
M 44.76 144.4 44.18 145.23 43.9 146.76 44.58 145.67 45.57 145.11 
M 40.23 140.21 39.32 141.38 38.88 143.35 39.72 141.82 41.06 140.97 
M 36.08 135.59 34.46 137.53 33.85 139.94 34.86 137.97 36.78 136.66 
M 58.78 156.98 59.96 157.04 
M 52.2 155.37 52.72 154.93 52.73 155.45 
M 45.44 154.34 45.6 153.86 46.48 152.86 46.19 153.88 46.32 154.44 
M 38.75 153.62 39.06 152.29 40.24 150.79 39.66 152.32 39.85 153.72 
M 32.11 152.98 32.53 150.73 33.99 148.73 33.12 150.76 33.33 153.05 
M 38.14 158.62 38.64 158.87 
M 40.91 159.97 46.02 162.08 50.6 163.49 59.97 165.54 74.32 167.97 
M 43.02 158.81 42.76 159.03 
M 41.66 160.08 41.5 160.26 
M 126.47 93.82 138.01 105.36 
M 132.15 91.56 138.31 97.72 
M 137.86 89.33 149.24 100.71 
M 143.58 87.1 151.42 94.94 
M 149.61 85.18 160.1 95.68 
M 155.74 83.37 166.5 94.13 
M 162.48 82.17 172.84 92.52 
M 169.31 81.05 180.46 92.21 
M 176.23 80.03 182.33 86.13 
M 183.3 79.16 193.1 88.96 
M 190.5 78.41 197.47 85.38 
M 197.98 77.94 209.15 89.11 
M 205.3 77.32 215.26 87.28 
M 212.73 76.81 221.91 85.99 
M 220.7 76.83 227.14 83.27 
M 229.04 77.23 240.55 88.74 
M 237.34 77.58 245.43 85.68 
M 245.57 77.87 252.76 85.06 
M 254.54 78.89 264.94 89.29 
M 264.53 80.94 274.51 90.92 
M 275.18 83.65 286.2 94.66 
M 285.11 85.63 296.47 96.99 
M 294.59 87.17 301.02 93.6 
M 304 88.64 311.73 96.36 
M 313.41 90.1 325.26 101.95 
M 322.97 91.71 332.4 101.14 
M 334.33 95.12 341.42 102.22 
M 346.35 99.2 354.44 107.29 
M 357.56 102.46 368.84 113.75 
M 369.23 106.19 375.48 112.44 
M 382 111.02 390.41 119.43 
M 395.53 116.6 407.26 128.33 
M 410.03 123.16 412.71 125.84 
M 192.46 68.27 197.32 77.98 
M 195.35 65.1 201.62 77.65 
M 197.7 60.86 205.9 77.27 
M 200.58 57.69 210.2 76.93 
M 204.62 56.83 214.61 76.81 
M 207.6 53.85 219.08 76.82 
M 210.82 51.35 223.6 76.93 
M 215.13 51.04 228.2 77.18 
M 219.19 50.23 228.52 68.88 
M 222.73 48.36 228.5 59.91 
M 226.19 46.36 228.41 50.8 
M 262.22 73.73 265.99 81.26 
M 264.41 69.17 271.11 82.56 
M 265.72 62.85 276.25 83.91 
M 267.56 57.58 281.26 84.98 
M 268.76 51.05 286.13 85.8 
M 270.73 46.04 291 86.6 
M 276.55 48.75 295.86 87.37 
M 283.48 53.67 300.7 88.13 
M 289.92 57.62 300.13 78.05 
M 295.41 59.66 300.29 69.43 
M 299.87 59.65 300.31 60.53 
M 336.77 88.76 341.11 97.43 
M 337.38 81.04 347.28 100.84 
M 338.95 75.23 350.57 98.49 
M 215.96 292.3 215.54 291.7 214.73 291.39 213.53 291.39 212.54 291.7 211.76 292.3 211.58 292.89 211.91 293.8 214.55 295 214.88 295.89 214.61 296.8 213.83 297.39 212.84 297.7 211.64 297.7 210.83 297.39 210.41 296.8 
M 218.03 291.39 218.24 291.7 218.63 291.39 218.42 291.1 218.03 291.39 
M 217.7 293.5 216.44 297.7 
M 221.03 291.39 219.5 296.5 219.53 297.39 220.04 297.7 220.64 297.7 
M 219.5 293.5 221.6 293.5 
M 222.86 295.3 226.46 295.3 226.64 294.7 226.52 294.1 225.8 293.5 224.9 293.5 224.21 293.8 223.43 294.39 222.86 295.3 222.68 295.89 222.71 296.8 223.13 297.39 223.64 297.7 224.54 297.7 225.23 297.39 226.01 296.8 
M 229.1 293.5 227.84 297.7 
M 228.56 295.3 229.13 294.39 229.91 293.8 230.6 293.5 231.5 293.5 
M 234.2 293.5 233.51 293.8 232.73 294.39 232.16 295.3 231.98 295.89 232.01 296.8 232.43 297.39 232.94 297.7 233.84 297.7 234.53 297.39 235.31 296.8 235.88 295.89 236.06 295.3 236.03 294.39 235.61 293.8 235.1 293.5 234.2 293.5 
M 238.7 293.5 236.81 299.8 
M 238.43 294.39 239.21 293.8 239.9 293.5 240.8 293.5 241.31 293.8 241.73 294.39 241.76 295.3 241.58 295.89 241.01 296.8 240.23 297.39 239.54 297.7 238.64 297.7 238.13 297.39 237.71 296.8 
M 244.4 293.5 243.14 297.7 
M 244.04 294.7 245.21 293.8 245.9 293.5 246.8 293.5 247.31 293.8 247.34 294.7 246.44 297.7 
M 247.34 294.7 248.51 293.8 249.2 293.5 250.1 293.5 250.61 293.8 250.64 294.7 249.74 297.7 
M 253.73 291.39 253.94 291.7 254.33 291.39 254.12 291.1 253.73 291.39 
M 253.4 293.5 252.14 297.7 
M 258.52 294.39 258.4 293.8 257.6 293.5 256.7 293.5 255.71 293.8 255.23 294.39 255.35 295 255.86 295.3 257.27 295.6 257.77 295.89 257.89 296.5 257.33 297.39 256.34 297.7 255.44 297.7 254.63 297.39 254.51 296.8 
M 264.83 291.39 263.3 296.5 263.33 297.39 263.84 297.7 264.44 297.7 
M 263.3 293.5 265.39 293.5 
M 270.8 293.5 269.54 297.7 
M 270.52 294.39 270.11 293.8 269.6 293.5 268.7 293.5 268.01 293.8 267.23 294.39 266.66 295.3 266.48 295.89 266.51 296.8 266.93 297.39 267.44 297.7 268.33 297.7 269.02 297.39 269.81 296.8 
M 273.2 293.5 272.3 296.5 272.33 297.39 272.83 297.7 273.74 297.7 274.43 297.39 275.6 296.5 
M 276.5 293.5 275.24 297.7 
M 281.33 291.39 280.73 291.39 280.04 291.7 279.47 292.6 277.94 297.7 
M 278.3 293.5 280.39 293.5 
M 283.7 293.5 283.01 293.8 282.23 294.39 281.66 295.3 281.48 295.89 281.51 296.8 281.93 297.39 282.44 297.7 283.33 297.7 284.02 297.39 284.81 296.8 285.38 295.89 285.56 295.3 285.52 294.39 285.11 293.8 284.6 293.5 283.7 293.5 
M 288.2 293.5 286.94 297.7 
M 287.66 295.3 288.23 294.39 289.01 293.8 289.7 293.5 290.6 293.5 
M 293.02 291.39 291.5 296.5 291.52 297.39 292.04 297.7 292.64 297.7 
M 291.5 293.5 293.6 293.5 
M 294.86 295.3 298.45 295.3 298.64 294.7 298.52 294.1 297.8 293.5 296.89 293.5 296.2 293.8 295.43 294.39 294.86 295.3 294.68 295.89 294.7 296.8 295.13 297.39 295.64 297.7 296.54 297.7 297.23 297.39 298.01 296.8 
M 303.83 294.39 303.7 293.8 302.89 293.5 302 293.5 301.01 293.8 300.52 294.39 300.64 295 301.16 295.3 302.57 295.6 303.08 295.89 303.11 296.8 302.63 297.39 301.64 297.7 300.74 297.7 299.93 297.39 299.81 296.8 
M 306.52 291.39 306.74 291.7 307.13 291.39 306.92 291.1 306.52 291.39 
M 306.2 293.5 304.94 297.7 
M 307.82 297.1 307.43 297.39 307.64 297.7 308.02 297.39 307.82 297.1 
"/></svg>
