<svg xmlns="http://www.w3.org/2000/svg" width="520" height="320"><rect x="0" y="0" width="520" height="320" fill="floralwhite"/><rect x="10" y="10" width="500" height="300" stroke="black" stroke-width="1" fill="none"/><path stroke="black" stroke-width="1" fill="none" stroke-linecap="round" stroke-linejoin="round" d="
M 170.75 134.18 180.47 129.53 190.17 125.18 199.87 121.07 209.57 117.59 219.27 113.84 228.97 110.95 238.67 108.69 248.37 107.27 258.07 107.92 267.76 107.83 277.46 106.45 287.16 106.93 296.86 108.98 306.56 111.59 316.26 115.21 325.96 120 345.36 130.72 355.06 136.58 374.46 148.92 384.16 154.78 393.86 160.17 404.54 165.85 
M 404.54 189.31 384.16 201.75 364.76 212.89 355.06 218.01 335.66 226.22 325.96 229.48 296.86 237.08 277.46 239.61 267.76 241.82 258.07 242.19 238.67 241.84 228.97 240.67 219.27 238.09 209.57 234.99 199.87 230.91 170.77 216.84 161.1 211.79 
M 171.4 134.41 172.17 134.01 173.11 133.05 
M 175.19 139.92 176.15 139.49 177.37 138.39 178.16 137.13 178.16 136.36 177.37 135.11 176.15 134 175.19 133.57 
M 177.23 150.78 178.24 149.76 179.04 148.36 179.04 147.49 178.24 146.08 177.01 144.84 176.04 144.36 
M 179.21 162.98 179.81 162.3 180.56 160.83 180.56 159.91 179.81 158.44 178.32 156.95 
M 177.09 208.37 177.89 207.94 178.92 206.83 179.59 205.57 179.59 204.79 178.92 203.54 177.89 202.43 177.09 202 
M 178.58 134.58 179.35 134.16 180.34 133.1 180.98 131.89 180.98 131.14 180.12 129.7 
M 179.26 145.66 180.07 145.21 181.11 144.03 181.78 142.7 181.78 141.87 181.11 140.54 180.07 139.36 179.26 138.9 
M 180.4 157.66 181.19 157.16 182.2 155.88 182.85 154.43 182.85 153.53 182.2 152.08 181.19 150.8 180.4 150.3 
M 183.24 164.01 182.86 163.5 182.12 163 
M 181.79 192.26 182.51 191.81 183.44 190.68 184.04 189.39 184.04 188.6 183.44 187.31 182.48 186.16 
M 181.13 202.96 181.84 202.54 182.75 201.46 183.33 200.25 183.33 199.5 182.75 198.28 181.84 197.21 181.13 196.79 
M 182 129.45 182.89 129.07 184.16 127.88 
M 182.46 140.09 183.37 139.65 184.54 138.52 185.29 137.25 185.29 136.46 184.54 135.18 183.37 134.06 182.46 133.62 
M 183.39 151.63 184.3 151.15 185.48 149.92 186.23 148.54 186.23 147.68 185.48 146.29 184.3 145.06 183.39 144.59 
M 183.24 207.23 184.05 206.82 185.09 205.75 185.76 204.54 185.76 203.8 185.09 202.59 184.05 201.53 183.24 201.11 
M 187.46 157.51 188.18 157.01 189.12 155.75 189.72 154.32 189.72 153.44 189.12 152.01 188.18 150.74 187.46 150.25 
M 188.7 128.98 189.56 128.6 190.67 127.6 191.38 126.48 191.38 125.78 190.82 124.9 
M 194.04 158.96 193.54 157.95 192.41 156.67 191.54 156.17 
M 191.08 196.39 191.88 195.97 192.9 194.9 193.56 193.69 193.56 192.95 192.9 191.74 191.88 190.67 191.08 190.25 
M 187.99 216.72 188.83 216.25 189.9 215.04 190.6 213.68 190.6 212.83 189.9 211.47 188.83 210.26 187.99 209.79 
M 191.98 133.65 192.68 133.24 193.57 132.17 194.15 130.97 194.15 130.22 193.57 129.02 192.68 127.96 191.98 127.54 
M 192.63 144.7 193.3 144.25 194.15 143.07 194.7 141.74 194.7 140.92 194.15 139.59 193.3 138.42 192.63 137.96 
M 195.35 138.59 196.19 138.16 197.28 137.06 197.97 135.82 197.97 135.04 197.28 133.8 196.19 132.7 195.35 132.27 
M 196.11 150.12 196.92 149.63 197.97 148.38 198.64 146.95 198.64 146.07 197.97 144.65 196.92 143.4 196.11 142.9 
M 200.41 157.92 200.11 157.28 198.99 155.93 198.12 155.4 
M 196.66 194.71 197.42 194.31 198.4 193.28 198.73 192.65 
M 194.57 216.32 195.47 215.83 196.62 214.56 197.36 213.13 197.36 212.24 196.62 210.8 195.47 209.54 194.57 209.04 
M 198.51 122.98 199.3 122.63 200.3 121.75 200.95 120.68 
M 198.32 132.72 199.08 132.32 200.04 131.3 200.66 130.14 200.66 129.42 200.04 128.27 199.08 127.24 198.32 126.85 
M 199.6 155.71 200.28 155.17 201.15 153.77 201.71 152.2 201.71 151.22 201.15 149.64 200.28 148.25 199.6 147.7 
M 202.22 128.02 203.25 127.66 204.56 126.72 205.41 125.67 205.41 125.01 204.56 123.95 203.25 123.02 202.22 122.65 
M 201.97 137.93 202.92 137.52 204.15 136.46 204.94 135.26 204.94 134.52 204.15 133.32 202.92 132.26 201.97 131.85 
M 202.35 149.22 203.23 148.73 204.37 147.47 205.1 146.04 205.1 145.15 204.37 143.72 203.23 142.46 202.35 141.97 
M 201.07 203.93 201.94 203.47 203.06 202.28 203.79 200.95 203.79 200.12 203.06 198.78 201.94 197.59 201.07 197.13 
M 201.66 216.48 202.63 215.95 203.88 214.6 204.68 213.08 204.68 212.14 203.88 210.61 202.63 209.27 201.66 208.74 
M 206.27 123.51 207.23 123.18 208.46 122.31 209.26 121.34 209.26 120.73 208.46 119.76 207.23 118.9 206.57 118.67 
M 205.79 132.89 206.71 132.51 207.89 131.53 208.65 130.43 208.65 129.75 207.89 128.64 206.71 127.67 205.79 127.29 
M 205.29 142.81 206.11 142.39 207.16 141.29 207.84 140.06 207.84 139.29 207.16 138.05 206.11 136.96 205.29 136.53 
M 211.78 120.82 213 120.51 214.57 119.71 215.59 118.8 215.59 118.24 214.57 117.34 212.57 116.43 
M 210.74 129.28 211.97 128.93 213.54 128.03 214.55 127 214.55 126.37 213.54 125.35 211.97 124.45 210.74 124.1 
M 209.89 138.52 211.01 138.13 212.44 137.13 213.36 136 213.36 135.31 212.44 134.18 211.01 133.19 209.89 132.8 
M 209.57 149.15 210.56 148.67 211.82 147.46 212.64 146.09 212.64 145.24 211.82 143.86 210.56 142.65 209.57 142.18 
M 212.95 155.45 212.66 155.11 211.74 154.56 
M 208.27 204.13 209.29 203.65 210.6 202.41 211.45 201.01 211.45 200.14 210.64 198.8 
M 209.33 197.53 208.27 197.01 
M 209.44 217.18 210.51 216.64 211.87 215.27 212.75 213.71 212.75 212.75 211.87 211.19 210.51 209.82 209.44 209.28 
M 217.06 117.95 218.1 117.66 219.43 116.9 220.29 116.04 220.29 115.51 219.43 114.65 218.51 114.13 
M 215.9 125.98 217.04 125.64 218.5 124.78 219.44 123.8 219.44 123.2 218.5 122.23 217.04 121.37 215.9 121.03 
M 214.99 134.74 216.07 134.38 217.44 133.48 218.33 132.45 218.33 131.81 217.44 130.78 216.07 129.87 214.99 129.52 
M 213.51 143.62 214.41 143.23 215.58 142.22 216.32 141.09 216.32 140.38 215.58 139.24 214.41 138.24 213.51 137.85 
M 222.26 115.54 223.39 115.24 224.84 114.46 225.78 113.58 225.78 113.04 224.86 112.17 
M 220.56 131.85 221.87 131.51 223.54 130.64 224.62 129.65 224.62 129.05 223.54 128.06 221.87 127.19 220.56 126.85 
M 218.82 140.03 219.99 139.67 221.5 138.76 222.47 137.73 222.47 137.09 221.5 136.06 219.99 135.15 218.82 134.8 
M 217.41 149.56 218.42 149.12 219.73 148 220.57 146.73 220.57 145.94 219.73 144.67 218.42 143.54 217.41 143.1 
M 219.51 231.45 220.55 230.91 221.89 229.52 222.75 227.96 222.75 226.99 221.89 225.42 220.55 224.04 219.51 223.5 
M 226.68 112.32 227.52 112.02 228.78 111.01 
M 226.57 120.64 227.56 120.3 228.83 119.42 229.65 118.43 229.65 117.81 228.83 116.82 227.56 115.94 226.57 115.6 
M 226.41 129.39 227.5 129.05 228.89 128.16 229.78 127.16 229.78 126.54 228.89 125.54 227.5 124.66 226.41 124.31 
M 224.95 137.29 226 136.97 227.35 136.14 228.22 135.21 228.22 134.63 227.35 133.69 226 132.87 224.95 132.54 
M 230.6 116.97 231.65 116.64 232.99 115.77 233.86 114.79 233.86 114.18 232.99 113.2 231.65 112.34 230.6 112 
M 230.09 134.17 231.26 133.84 232.77 132.98 233.74 132.01 233.74 131.41 232.77 130.44 231.26 129.58 230.09 129.25 
M 227.57 141.44 228.67 141.11 230.07 140.26 230.98 139.3 230.98 138.71 230.07 137.75 228.67 136.9 227.57 136.57 
M 228.12 147.33 228.18 146.52 227.37 145.33 226.1 144.28 225.11 143.87 
M 234.2 112.89 235 112.55 236.02 111.7 236.69 110.73 236.69 110.13 236.11 109.28 
M 234.95 122.05 235.81 121.68 236.91 120.74 237.62 119.67 237.62 119.01 236.91 117.94 235.81 117 234.95 116.63 
M 235.17 131.06 236.06 130.7 237.19 129.8 237.92 128.77 237.92 128.13 237.19 127.1 236.06 126.2 235.17 125.84 
M 233.81 138.95 234.71 138.63 235.86 137.82 236.6 136.9 236.6 136.33 235.86 135.42 234.71 134.6 233.81 134.29 
M 229.7 145.06 230.53 144.73 231.59 143.87 232.27 142.9 232.27 142.3 231.59 141.34 230.53 140.48 229.7 140.15 
M 237.74 108.94 238.17 108.8 
M 238.21 117.54 239.18 117.19 240.43 116.28 241.23 115.26 241.23 114.62 240.43 113.6 239.18 112.69 238.21 112.34 
M 238.73 126.65 239.73 126.29 241 125.36 241.82 124.31 241.82 123.66 241 122.61 239.73 121.68 238.73 121.32 
M 238.19 135.13 239.2 134.79 240.49 133.93 241.33 132.96 241.33 132.35 240.49 131.38 239.2 130.51 238.19 130.18 
M 235.44 142.11 236.45 141.78 237.75 140.95 238.58 140.01 238.58 139.43 237.75 138.49 236.45 137.65 235.44 137.33 
M 234.95 145.9 233.49 144.6 232.5 144.21 
M 232.9 207.41 233.86 206.91 235.21 205.41 
M 241.41 112.98 242.2 112.64 243.22 111.77 243.88 110.78 243.88 110.17 243.22 109.19 241.93 108.21 
M 242.28 122.25 243.07 121.88 244.08 120.93 244.73 119.85 244.73 119.18 244.08 118.11 243.07 117.16 242.28 116.78 
M 242.52 131.26 243.31 130.91 244.31 129.99 244.96 128.96 244.96 128.32 244.31 127.29 243.31 126.37 242.52 126.02 
M 245.05 109.09 246.02 108.79 247.26 108.01 247.87 107.34 
M 245.48 117.63 246.43 117.28 247.64 116.38 248.43 115.36 248.43 114.73 247.64 113.71 246.43 112.81 245.48 112.46 
M 245.47 135.27 246.42 134.93 247.62 134.06 248.4 133.08 248.4 132.47 247.62 131.48 246.42 130.61 245.47 130.27 
M 242.97 142.49 243.97 142.16 245.26 141.33 246.09 140.38 246.09 139.79 245.26 138.84 243.97 138.01 242.97 137.68 
M 240.24 144.79 240.12 144.75 
M 248.79 113.13 249.61 112.8 250.64 111.96 251.32 111 251.32 110.41 250.64 109.45 249.61 108.6 248.79 108.27 
M 249.42 122.17 250.19 121.81 251.19 120.87 251.83 119.82 251.83 119.16 251.19 118.11 250.19 117.17 249.42 116.81 
M 249.6 131.19 250.37 130.83 251.35 129.92 251.98 128.88 251.98 128.23 251.35 127.19 250.37 126.28 249.6 125.92 
M 247.79 143.2 247.19 142.43 246.02 141.58 245.11 141.24 
M 252.6 109.44 253.58 109.14 254.85 108.37 255.44 107.74 
M 252.78 117.71 253.74 117.37 254.96 116.49 255.75 115.5 255.75 114.88 254.96 113.89 253.74 113.02 252.78 112.68 
M 253.06 126.64 253.99 126.28 255.19 125.36 255.95 124.32 255.95 123.68 255.19 122.63 253.99 121.71 253.06 121.35 
M 252.65 135.35 253.59 135 254.79 134.11 255.56 133.1 255.56 132.48 254.79 131.47 253.59 130.58 252.65 130.23 
M 256.32 113.42 257.14 113.1 258.19 112.28 258.86 111.36 258.86 110.79 258.19 109.86 257.14 109.05 256.32 108.73 
M 255.84 139.7 256.63 139.36 257.66 138.47 258.31 137.47 258.31 136.85 257.66 135.85 256.63 134.97 255.84 134.63 
M 260.16 109.81 261.14 109.51 262.39 108.76 263.21 107.87 
M 260.14 117.84 261.1 117.51 262.34 116.66 263.13 115.69 263.13 115.09 262.34 114.12 261.1 113.27 260.14 112.93 
M 260.23 126.62 261.17 126.27 262.37 125.35 263.15 124.32 263.15 123.68 262.37 122.65 261.17 121.74 260.23 121.38 
M 261.1 140.41 260.75 139.97 259.49 139.08 258.5 138.73 
M 263.79 113.69 264.61 113.38 265.65 112.57 266.33 111.66 266.33 111.1 265.65 110.19 264.61 109.39 263.79 109.08 
M 263.85 122.16 264.64 121.82 265.66 120.92 266.32 119.91 266.32 119.29 265.66 118.28 264.64 117.39 263.85 117.04 
M 263.82 131.12 264.61 130.76 265.61 129.83 266.27 128.78 266.27 128.13 265.61 127.08 264.61 126.16 263.82 125.79 
M 263.17 139.95 263.96 139.59 264.98 138.68 265.64 137.65 265.64 137.02 264.98 135.99 263.96 135.08 263.17 134.72 
M 267.63 110.13 268.59 109.83 269.81 109.07 270.6 108.21 270.6 107.68 270.39 107.45 
M 267.54 118.06 268.5 117.73 269.74 116.88 270.53 115.93 270.53 115.34 269.74 114.38 268.5 113.53 267.54 113.21 
M 267.51 126.72 268.46 126.37 269.68 125.47 270.47 124.44 270.47 123.81 269.68 122.78 268.46 121.87 267.51 121.52 
M 271.29 114.03 272.09 113.71 273.12 112.91 273.78 112 273.78 111.44 273.12 110.53 272.09 109.73 271.29 109.42 
M 271.22 122.35 272.02 122.01 273.05 121.13 273.71 120.13 273.71 119.51 273.05 118.51 272.02 117.63 271.22 117.29 
M 271.13 131.26 271.93 130.9 272.95 129.98 273.61 128.93 273.61 128.29 272.95 127.24 271.93 126.32 271.13 125.96 
M 272.23 138.8 272.91 137.77 272.91 137.14 272.25 136.13 271.24 135.23 270.45 134.88 
M 274.83 110.24 275.72 109.93 276.87 109.15 277.61 108.26 277.61 107.71 276.52 106.59 
M 274.9 118.28 275.83 117.94 277.03 117.09 277.81 116.13 277.81 115.53 277.03 114.56 275.83 113.71 274.9 113.38 
M 274.85 126.9 275.8 126.55 277.02 125.64 277.81 124.62 277.81 123.99 277.02 122.97 275.8 122.06 274.85 121.71 
M 274.45 135.7 275.4 135.35 276.63 134.45 277.42 133.43 277.42 132.8 276.63 131.77 275.4 130.87 274.45 130.52 
M 274.33 139.58 273.83 139.21 272.9 138.87 
M 264.86 203.58 265.81 203.07 267.02 201.79 267.8 200.34 267.8 199.92 
M 265.91 216.37 266.63 215.84 267.56 214.46 268.15 212.91 268.15 211.94 267.56 210.39 266.63 209.02 265.91 208.48 
M 278.57 122.55 279.35 122.21 280.35 121.32 280.99 120.31 280.99 119.69 280.35 118.68 279.35 117.79 278.57 117.45 
M 278.47 131.43 279.27 131.07 280.28 130.15 280.94 129.11 280.94 128.47 280.28 127.43 279.27 126.51 278.47 126.15 
M 281.3 109.74 282.13 109.41 283.19 108.56 283.87 107.6 283.87 107.01 283.69 106.76 
M 281.9 118.24 282.78 117.89 283.92 116.99 284.66 115.98 284.66 115.35 283.92 114.34 282.78 113.45 281.9 113.1 
M 282.09 127.04 283.02 126.68 284.22 125.76 284.98 124.71 284.98 124.07 284.22 123.02 283.02 122.1 282.09 121.74 
M 281.79 135.88 282.75 135.53 283.97 134.63 284.76 133.61 284.76 132.98 283.97 131.96 282.75 131.06 281.79 130.7 
M 282.59 142.23 283.06 141.67 283.06 141.07 282.26 140.09 281.02 139.23 280.05 138.9 
M 275.94 192.1 276.55 191.69 277.55 190.48 277.55 189.73 276.81 188.83 
M 270.56 213.51 271.37 213.02 272.41 211.77 273.07 210.36 273.07 209.48 272.41 208.07 271.37 206.82 270.56 206.34 
M 284.91 113.65 285.6 113.3 286.49 112.38 287.06 111.34 287.06 110.7 286.49 109.66 285.6 108.75 284.91 108.39 
M 285.61 122.57 286.36 122.2 287.31 121.27 287.93 120.21 287.93 119.55 287.31 118.5 286.36 117.56 285.61 117.2 
M 285.73 131.6 286.51 131.23 287.5 130.29 288.14 129.22 288.14 128.56 287.5 127.49 286.51 126.55 285.73 126.19 
M 285.22 140.41 286.03 140.07 287.08 139.2 287.76 138.21 287.76 137.6 287.08 136.61 286.03 135.73 285.22 135.39 
M 280.67 179.4 281.67 178.97 282.95 177.86 283.77 176.6 283.77 175.82 282.95 174.56 282.36 174.05 
M 287.28 108.75 288.11 108.39 289.24 107.37 
M 288.49 117.84 289.36 117.46 290.47 116.51 291.19 115.43 291.19 114.77 290.47 113.69 289.36 112.74 288.49 112.37 
M 289.1 127 290.02 126.63 291.18 125.67 291.93 124.58 291.93 123.91 291.18 122.82 290.02 121.86 289.1 121.48 
M 288.55 144.1 290.03 143.16 290.87 142.16 290.87 141.54 290.03 140.54 288.72 139.66 287.7 139.32 
M 291.11 112.86 291.82 112.48 292.74 111.51 293.34 110.4 293.34 109.72 292.74 108.61 292.15 107.99 
M 291.95 148.07 292.71 147.51 293.48 146.51 293.48 145.89 292.71 144.89 291.52 144.01 290.58 143.67 
M 289.45 181.03 290.44 180.59 291.71 179.48 292.53 178.22 292.53 177.44 291.71 176.18 290.44 175.06 289.45 174.63 
M 287.87 190.73 288.85 190.32 290.1 189.26 290.9 188.06 290.9 187.32 290.1 186.12 288.85 185.06 287.87 184.65 
M 295.19 117.46 296.1 117.08 297.26 116.1 298.01 114.99 298.01 114.31 297.26 113.2 296.1 112.22 295.19 111.83 
M 296.05 126.86 296.96 126.48 298.14 125.49 298.9 124.37 298.9 123.68 298.14 122.56 296.96 121.57 296.05 121.18 
M 295.64 145.35 296.67 144.98 297.98 144.03 298.83 142.96 298.83 142.3 297.98 141.23 296.67 140.28 295.64 139.91 
M 295.59 153.66 296.73 152.89 297.7 151.75 297.7 151.04 296.73 149.9 295.24 148.89 294.07 148.5 
M 294.9 164.47 296.37 163.39 297.37 162.09 297.37 161.29 296.37 160 295.04 159.02 
M 293.97 176.45 295.15 176 296.67 174.85 297.65 173.55 297.65 172.74 296.67 171.44 295.15 170.29 293.97 169.84 
M 293.13 186.73 294.3 186.31 295.81 185.24 296.78 184.02 296.78 183.27 295.81 182.06 294.3 180.99 293.13 180.57 
M 285.66 213.99 286.84 213.54 288.35 212.4 289.33 211.1 289.33 210.3 288.35 209 286.84 207.85 285.66 207.41 
M 286.71 227.64 287.81 227.02 289.21 225.44 290.11 223.65 290.11 222.54 289.21 220.75 287.81 219.17 286.71 218.55 
M 298.05 112.65 298.83 112.27 299.84 111.29 300.48 110.19 300.48 109.96 
M 299.81 131.53 300.58 131.13 301.57 130.13 302.21 129 302.21 128.3 301.57 127.16 300.58 126.16 299.81 125.77 
M 300.04 141.26 300.83 140.88 301.83 139.88 302.48 138.76 302.48 138.06 301.83 136.94 300.83 135.95 300.04 135.56 
M 299.16 150.44 300.07 150.05 301.23 149.07 301.97 147.96 301.97 147.27 301.23 146.16 300.07 145.18 299.16 144.8 
M 298.56 171.93 299.54 171.47 300.8 170.29 301.61 168.95 301.61 168.12 300.8 166.78 299.54 165.6 298.56 165.14 
M 303.17 126.83 304.1 126.44 305.3 125.45 306.07 124.33 306.07 123.64 305.3 122.52 304.1 121.53 303.17 121.15 
M 303.52 136.43 304.45 136.03 305.65 135.03 306.42 133.89 306.42 133.19 305.65 132.05 304.45 131.05 303.52 130.65 
M 303.38 146.13 304.36 145.73 305.63 144.72 306.45 143.56 306.45 142.85 305.63 141.7 304.36 140.69 303.38 140.29 
M 302.81 156.03 303.9 155.61 305.31 154.55 306.21 153.34 306.21 152.59 305.31 151.39 303.9 150.32 302.81 149.91 
M 301.94 188.33 303.07 187.92 304.51 186.86 305.44 185.66 305.44 184.92 304.51 183.72 303.07 182.67 301.94 182.25 
M 305.52 112.89 306.32 112.52 307.11 111.79 
M 306.56 122.15 307.35 121.77 308.35 120.8 309 119.7 309 119.02 308.35 117.92 307.35 116.94 306.56 116.57 
M 307.01 131.55 307.79 131.16 308.8 130.17 309.44 129.04 309.44 128.34 308.8 127.22 307.79 126.22 307.01 125.83 
M 307.1 151.45 307.93 151.03 308.99 149.97 309.67 148.77 309.67 148.02 308.99 146.82 307.93 145.76 307.1 145.34 
M 307.08 173.25 307.93 172.79 309.02 171.62 309.72 170.3 309.72 169.49 309.02 168.17 307.93 167 307.08 166.54 
M 302.88 202.72 303.81 202.34 305 201.36 305.77 200.26 305.77 199.57 305 198.46 303.81 197.49 302.88 197.11 
M 309.67 117.56 310.62 117.19 311.83 116.23 312.62 115.15 312.62 114.48 312 113.61 
M 310.39 126.87 311.33 126.48 312.53 125.5 313.31 124.39 313.31 123.71 312.53 122.6 311.33 121.62 310.39 121.23 
M 310.69 136.46 311.62 136.06 312.82 135.05 313.59 133.91 313.59 133.2 312.82 132.05 311.62 131.04 310.69 130.65 
M 310.75 146.44 311.7 146.03 312.91 144.98 313.69 143.79 313.69 143.05 312.91 141.86 311.7 140.81 310.75 140.4 
M 313.78 122.19 314.56 121.81 315.57 120.85 316.21 119.76 316.21 119.08 315.57 117.99 314.56 117.03 313.78 116.65 
M 314.33 141.35 315.11 140.94 316.1 139.91 316.75 138.74 316.75 138.02 316.1 136.85 315.11 135.82 314.33 135.42 
M 314.36 151.59 315.14 151.17 316.14 150.09 316.78 148.87 316.78 148.12 316.14 146.9 315.14 145.82 314.36 145.4 
M 314.33 162.22 315.11 161.79 316.1 160.68 316.74 159.43 316.74 158.65 316.1 157.39 315.11 156.28 314.33 155.85 
M 314.01 195.45 314.88 195.03 316.01 193.95 316.73 192.72 316.73 191.96 316.01 190.73 314.88 189.65 314.01 189.22 
M 316.87 117.6 317.8 117.23 318.77 116.45 
M 317.86 136.46 318.8 136.07 320 135.06 320.77 133.92 320.77 133.21 320 132.07 318.8 131.06 317.86 130.66 
M 317.81 156.74 318.73 156.32 319.91 155.25 320.67 154.03 320.67 153.27 319.91 152.06 318.73 150.98 317.81 150.56 
M 317.13 178.2 317.98 177.74 319.05 176.57 319.75 175.24 319.75 174.41 319.05 173.08 317.98 171.91 317.13 171.45 
M 316.8 200.39 317.85 199.97 319.2 198.9 320.07 197.69 320.07 196.94 319.2 195.73 317.85 194.66 316.8 194.24 
M 320.96 122.23 321.74 121.85 322.74 120.88 323.39 119.78 323.39 119.1 323.08 118.58 
M 321.49 141.33 322.27 140.93 323.27 139.9 323.91 138.74 323.91 138.02 323.27 136.86 322.27 135.83 321.49 135.43 
M 321.44 151.46 322.22 151.05 323.21 149.99 323.85 148.79 323.85 148.05 323.21 146.85 322.22 145.79 321.44 145.38 
M 320.16 171.85 320.84 171.41 321.73 170.3 322.3 169.04 322.3 168.26 321.73 167 320.84 165.89 320.16 165.45 
M 324.79 126.96 325.73 126.58 326.94 125.59 327.71 124.48 327.71 123.79 326.94 122.67 325.73 121.69 324.79 121.3 
M 325.05 136.49 325.99 136.1 327.19 135.09 327.97 133.95 327.97 133.24 327.19 132.1 325.99 131.1 325.05 130.7 
M 325.06 146.39 325.99 145.99 327.19 144.95 327.96 143.77 327.96 143.05 327.19 141.87 325.99 140.83 325.06 140.43 
M 324.79 156.48 325.71 156.07 326.88 155.02 327.64 153.84 327.64 153.1 326.88 151.92 325.71 150.87 324.79 150.46 
M 323.38 177.33 324.23 176.87 325.32 175.68 326.02 174.33 326.02 173.5 325.32 172.16 324.23 170.97 323.38 170.51 
M 328.17 122.33 329.14 121.77 
M 328.63 131.67 329.41 131.28 330.41 130.3 331.06 129.18 331.06 128.48 330.41 127.36 329.41 126.38 328.63 125.99 
M 328.68 141.35 329.46 140.95 330.46 139.93 331.1 138.77 331.1 138.05 330.46 136.89 329.46 135.87 328.68 135.47 
M 328.61 151.43 329.39 151.02 330.39 149.98 331.03 148.79 331.03 148.06 330.39 146.88 329.39 145.84 328.61 145.43 
M 328 161.33 328.76 160.93 329.73 159.9 330.36 158.74 330.36 158.02 329.73 156.86 328.76 155.84 328 155.44 
M 327.93 206.53 328.76 206.12 329.82 205.05 330.51 203.85 330.51 203.1 329.82 201.9 328.76 200.83 327.93 200.42 
M 325.44 215.37 326.3 214.99 327.41 214 328.12 212.88 328.12 212.18 327.41 211.06 326.3 210.07 325.44 209.69 
M 332 127.03 332.94 126.64 334.14 125.65 334.68 124.86 
M 332.24 136.52 333.18 136.13 334.38 135.12 335.15 133.98 335.15 133.28 334.38 132.14 333.18 131.13 332.24 130.74 
M 331.87 156.36 332.8 155.96 333.99 154.93 334.76 153.76 334.76 153.03 333.99 151.87 332.8 150.84 331.87 150.43 
M 330.82 166.13 331.73 165.72 332.9 164.66 333.65 163.47 333.65 162.73 332.9 161.54 331.73 160.49 330.82 160.08 
M 335.82 131.7 336.6 131.31 337.6 130.32 338.24 129.21 338.24 128.52 337.6 127.4 336.6 126.41 335.82 126.03 
M 335.8 151.45 336.58 151.04 337.58 150 338.22 148.82 338.22 148.09 337.58 146.91 336.58 145.87 335.8 145.47 
M 335.09 161.23 335.87 160.84 336.86 159.82 337.5 158.67 337.5 157.96 336.86 156.81 335.87 155.8 335.09 155.4 
M 335.44 196.03 336.2 195.52 337.19 194.22 337.82 192.75 337.82 191.83 337.19 190.36 336.2 189.06 335.44 188.55 
M 339.4 146.4 340.33 146 341.53 144.97 342.3 143.8 342.3 143.07 341.53 141.91 340.33 140.88 339.4 140.47 
M 339.02 156.34 339.95 155.93 341.14 154.91 341.91 153.74 341.91 153.02 341.14 151.86 339.95 150.83 339.02 150.43 
M 337.92 166.06 338.85 165.65 340.05 164.6 340.82 163.41 340.82 162.67 340.05 161.48 338.85 160.43 337.92 160.03 
M 337.88 211.5 338.86 211.08 340.11 210.03 340.92 208.83 340.92 208.09 340.11 206.89 338.86 205.83 337.88 205.42 
M 335.86 220.93 336.88 220.53 338.18 219.48 339.02 218.3 339.02 217.57 338.18 216.39 336.88 215.34 335.86 214.93 
M 342.98 131.7 343.76 131.31 344.71 130.37 
M 343.01 141.36 343.78 140.96 344.78 139.93 345.42 138.78 345.42 138.06 344.78 136.9 343.78 135.88 343.01 135.48 
M 342.95 151.44 343.73 151.03 344.72 149.99 345.36 148.82 345.36 148.09 344.72 146.91 343.73 145.87 342.95 145.47 
M 340.7 182.65 341.5 182.15 342.51 180.87 343.17 179.41 343.17 178.51 342.51 177.06 341.5 175.77 340.7 175.27 
M 342.57 206.99 343.37 206.56 344.39 205.45 345.04 204.19 345.04 203.42 344.39 202.16 343.37 201.05 342.57 200.62 
M 346.54 146.38 347.47 145.97 348.66 144.95 349.43 143.78 349.43 143.06 348.66 141.89 347.47 140.86 346.54 140.46 
M 346.14 156.3 347.07 155.9 348.25 154.87 349.02 153.7 349.02 152.98 348.25 151.82 347.07 150.79 346.14 150.38 
M 344.43 176.89 345.39 176.43 346.62 175.24 347.41 173.9 347.41 173.07 346.62 171.73 345.39 170.55 344.43 170.09 
M 346.18 201.56 347.12 201.09 348.33 199.87 349.11 198.49 349.11 197.64 348.33 196.26 347.12 195.04 346.18 194.57 
M 350.16 141.34 350.94 140.95 351.93 139.93 352.57 138.77 352.57 138.06 351.93 136.9 350.94 135.88 350.16 135.48 
M 350.05 151.37 350.82 150.96 351.8 149.93 352.44 148.76 352.44 148.03 351.8 146.86 350.82 145.82 350.05 145.42 
M 349.95 207.34 350.75 206.89 351.78 205.74 352.44 204.43 352.44 203.62 351.78 202.31 350.75 201.15 349.95 200.7 
M 353.7 136.49 354.42 136.19 
M 353.21 156.23 354.13 155.82 355.31 154.79 356.07 153.62 356.07 152.89 355.31 151.72 354.13 150.68 353.21 150.28 
M 352.51 189.42 353.46 188.92 354.67 187.64 355.45 186.2 355.45 185.3 354.67 183.86 353.46 182.58 352.51 182.08 
M 357.08 151.23 357.84 150.83 358.82 149.8 359.45 148.63 359.45 147.9 358.82 146.73 357.84 145.7 357.08 145.3 
M 356.38 161.13 357.15 160.72 358.13 159.68 358.76 158.49 358.76 157.76 358.13 156.57 357.15 155.53 356.38 155.12 
M 357.29 207.66 358.08 207.19 359.09 205.98 359.74 204.62 359.74 203.77 359.09 202.41 358.08 201.2 357.29 200.73 
M 360.68 146.19 361.59 145.79 362.74 144.76 363.49 143.6 363.49 142.88 362.74 141.72 361.79 140.87 
M 361.33 140.58 360.68 140.29 
M 360.24 156.13 361.15 155.72 362.31 154.67 363.06 153.49 363.06 152.76 362.31 151.58 361.15 150.53 360.24 150.13 
M 364.06 151.05 364.8 150.65 365.75 149.61 366.36 148.44 366.36 147.72 365.75 146.55 364.8 145.51 364.06 145.11 
M 362.86 171.66 363.63 171.21 364.62 170.08 365.26 168.8 365.26 168 364.62 166.72 363.63 165.58 362.86 165.14 
M 363.79 195.69 364.57 195.19 365.56 193.91 366.19 192.46 366.19 191.56 365.56 190.11 364.57 188.83 363.79 188.33 
M 364.48 207.77 365.26 207.29 366.26 206.06 366.91 204.67 366.91 203.8 366.26 202.41 365.26 201.17 364.48 200.69 
M 367.48 145.85 368.6 145.2 
M 367.11 155.86 367.98 155.45 369.1 154.4 369.82 153.2 369.82 152.46 369.1 151.27 367.98 150.22 367.11 149.8 
M 366.57 166.22 367.46 165.79 368.6 164.69 369.34 163.44 369.34 162.66 368.6 161.41 367.46 160.31 366.57 159.88 
M 366.9 189.44 367.82 188.95 368.99 187.69 369.75 186.26 369.75 185.37 368.99 183.94 367.82 182.68 366.9 182.19 
M 370.72 150.59 371.43 150.18 372.33 149.14 372.91 147.93 
M 373.11 177.01 373.98 176.53 375.1 175.33 375.81 173.96 375.81 173.11 375.1 171.75 373.98 170.54 373.11 170.07 
M 374.83 201.73 375.76 201.23 376.94 199.96 377.71 198.52 377.71 197.62 376.94 196.18 375.76 194.91 374.83 194.41 
M 376.54 182.68 377.26 182.18 378.18 180.9 378.78 179.45 378.78 178.55 378.18 177.1 377.26 175.82 376.54 175.32 
M 378 195.69 378.77 195.18 379.75 193.86 380.38 192.36 380.38 191.43 379.75 189.94 378.77 188.62 378 188.1 
M 379.88 154.43 380.72 154.01 381.53 153.19 
M 379.6 165.01 380.45 164.57 381.54 163.44 382.24 162.16 382.24 161.37 381.54 160.09 380.45 158.96 379.6 158.52 
M 379.65 176.45 380.51 175.97 381.62 174.74 382.33 173.34 382.33 172.48 381.62 171.09 380.51 169.86 379.65 169.38 
M 382.69 170.12 383.42 169.66 384.34 168.49 384.94 167.17 384.94 166.35 384.34 165.02 383.42 163.85 382.69 163.4 
M 383.13 182.21 383.86 181.7 384.79 180.38 385.4 178.9 385.4 177.97 384.79 176.49 383.86 175.17 383.13 174.66 
M 386.16 164.45 387.04 164 388.15 162.86 388.87 161.57 388.87 160.78 388.15 159.49 387.04 158.35 386.16 157.9 
M 386.3 175.98 387.18 175.49 388.3 174.25 389.03 172.84 389.03 171.97 388.3 170.56 387.18 169.32 386.3 168.83 
M 387.48 188.77 388.37 188.25 389.49 186.91 390.22 185.39 390.22 184.46 389.49 182.94 388.37 181.6 387.48 181.08 
M 390.79 195.7 389.84 194.62 388.95 194.11 
M 389.45 169.74 390.19 169.28 391.14 168.1 391.75 166.77 391.75 165.95 391.14 164.61 390.19 163.44 389.45 162.98 
M 393.09 175.6 393.97 175.11 395.1 173.87 395.83 172.47 395.83 171.6 395.1 170.2 393.97 168.96 393.09 168.48 
M 396.71 181.39 397.44 180.89 398.38 179.6 398.98 178.15 398.98 177.25 398.38 175.79 397.44 174.5 396.71 174 
M 400.26 190.47 400.26 190.08 399.69 188.54 398.82 187.17 398.14 186.64 
M 399.55 163.6 399.92 163.4 
M 400.6 187.51 401.44 186.99 402.52 185.68 403.22 184.19 403.22 183.27 402.52 181.78 401.44 180.46 400.6 179.95 
M 238.67 108.69 242.34 98.36 242.95 95.38 245.13 89.32 246.47 84.45 247.92 82.16 248.34 79.18 249.77 73.75 250.65 67.78 252.67 65.94 254.6 63.12 257.59 60.27 260.66 58.95 263.06 52.85 266.06 50.36 270.18 46.33 271.21 45.11 272.1 43.25 274.65 41.59 276.78 38.98 280.2 35.31 282.85 34.05 286.31 32.8 288.97 30 288.76 36.93 294.6 41.72 295.63 44.07 297.61 47.48 299.62 52.37 300.96 55.16 299.62 57.92 296.66 59.09 295.22 61.81 294.48 64.97 295.31 68.42 296.51 71.66 298.99 73.35 300.57 74.14 302.57 76.25 305.34 82.19 307.06 85.13 307.65 86.9 310.65 91.03 312.47 94.46 313.05 96.44 316.9 99.91 318.15 102.06 320.44 108.06 321.29 111.08 324.64 115.48 326.25 118.88 326.55 120.33 
M 325.96 120 325.96 120 
M 243.52 107.98 244.88 105.54 246.65 97.95 248.25 91.98 248.55 89.49 249.76 87.06 250.9 84.23 252.36 77.56 253.65 75.61 254.41 72.45 254.53 70.71 257.4 65.73 
M 248.37 107.27 250.1 104.82 252 100.52 252.9 97.87 253.55 94.38 254.3 91.57 257.28 86.38 258.17 83.86 262.29 75.52 263.57 73.48 264.12 71.34 268.71 66.63 271.55 64.94 274.26 63.04 277.21 61.51 278.42 59.71 281.3 57.07 283.54 54.5 286.12 50.47 288.17 49 
M 253.26 107.6 254.98 105.67 256.34 103.17 257.83 101.09 258.75 98.26 260.34 95.55 261.34 92.72 264.45 86.84 267.77 82.68 268.85 80.34 269.95 76.99 271.22 74.54 273.64 73.75 
M 258.15 107.92 259.47 106.03 261.99 100.96 263.17 98.2 263.92 95.04 267.98 88.4 271 82.77 271.37 79 272.83 76.44 275.24 75.27 278.44 72.9 280.64 72.77 
M 263.05 107.87 264.43 105.84 265.51 103.27 266.89 97.4 269.26 92.84 270.6 90.96 271.27 88.02 273.33 85.03 273.96 81.85 275.25 78.89 
M 267.95 107.8 269.35 105.62 269.91 103.08 270.88 96.99 272.01 95.15 273.08 92.73 273.06 90.93 274.61 87.94 275.74 84.53 277.31 81.35 279.38 78.83 
M 272.81 107.11 273.95 105.13 273.99 102.04 274.56 96.51 275.8 94.72 276.11 92.47 277.32 89.67 277.99 87.03 279.69 83.84 281.95 81.5 283.78 80.02 285.75 77.99 
M 277.66 106.46 278.69 103.98 279.53 98.88 281.39 93.52 281.57 91.03 282.55 88.39 284.9 86.26 287.99 84.61 
M 282.56 106.7 283.65 104.76 286.28 96.32 287.27 93.6 289.34 90.88 291.71 88.77 293.65 86.32 
M 287.45 106.99 288.73 104.89 289.39 102.33 290.85 100.41 292.41 97.71 293.92 94.59 295.87 91.42 298.71 88.86 301.52 87.96 304.62 87.37 
M 292.25 108.01 293.47 106.49 294.71 104.19 296.49 101.45 298.97 99.34 
M 297.04 109.03 298.63 107.52 299.78 105.53 302.61 102.71 305.44 100.7 308.37 99.66 
M 301.78 110.3 304.11 108.33 306.11 106.12 311.36 102.33 
M 306.51 111.58 309.07 109.82 310.97 108.02 314.34 106.84 
M 311.11 113.28 317.19 111.86 
M 315.7 115 320.21 116.28 
M 320.12 117.11 320.15 117.13 
M 179.27 165.29 183.7 163.86 186.02 162.88 188.28 161.5 190.73 159.58 193.89 158.97 198.09 158.43 201.39 157.71 203.65 155.61 209.21 155.87 213.16 155.43 215.57 154.32 216.85 152 219.51 149.94 222.89 148.31 225.5 147.88 270.98 138.33 274.57 139.67 277.67 140.51 281.28 141.86 284.43 142.75 287.05 143.12 289.52 144.74 293.55 150.22 295.86 154.14 295.07 156.72 295 163.39 294.72 166.49 292.79 168.65 289.42 169.3 286.34 170.23 284 171.91 282.26 174.18 280.2 176.13 278.68 178.63 276.08 180.04 275.48 182.93 275.68 184.97 276.65 187.79 276.98 189.98 275.63 192.72 273.88 195.12 271.97 197.38 269.84 199.4 266.56 200.24 263.83 201.56 261.34 203.12 259.18 205 256.97 206.51 225.38 204.91 218.91 204.46 216.42 203.04 212.04 199.94 209.59 197.93 208.51 196.25 205.02 194.96 201.48 193.88 198.54 192.57 191.9 190.42 186.4 187.62 179.99 185.18 176.67 182.94 
M 179.24 166.66 183.24 165.78 191.32 163.23 194.36 162.1 198.01 161.17 201.61 160.79 204.55 159.82 206.34 157.71 212.6 156.83 215.81 157.15 217.92 156.39 219.89 154.13 222.93 153.26 225.7 153.31 229.84 152.66 233.38 151.41 236.47 150.93 238.95 149.59 244.37 147.68 248.27 147.12 
M 179.13 168.63 183.12 167.73 188.94 166.8 192.16 166.11 195.15 165.09 201.84 163.42 204.86 163.04 207.27 162.36 209.85 161.28 212.46 160.97 214.89 160.88 217.46 161.5 220.85 161.55 224.4 160.04 234.1 157.92 241.24 155.83 243.35 154.41 245.85 153.76 249.78 153.19 252.48 152.55 255.52 152.11 258.59 150.48 261.86 149.43 264.87 148.96 266.55 147.98 268.16 148.46 271.75 148.93 278.7 148.97 281.66 147.74 284.45 146.89 
M 178.46 170.97 183.01 170.3 192.47 169.51 198.97 167.75 202.14 167.33 207.38 167.59 213.07 166.96 222.2 167.14 225.6 166.87 229.07 165.17 231.84 164.08 235.91 163.74 239.52 163.09 242.61 162.19 253.34 160.68 256.32 161.47 264.08 159.4 266.12 159.19 267.47 159.74 269.44 160.25 
M 177.88 173.21 186.14 173.39 189.98 172.95 196.07 172.87 202.56 171.83 208.02 172.49 210.65 172.28 213.67 172.45 219.65 171.98 222.96 171.42 234.04 170.21 236.8 170.61 240.15 170.64 242.42 169.88 245.27 170.1 246.93 169.31 252.5 169.89 255.39 171.5 258.14 170.96 260.9 171.18 
M 177.46 175.32 183.23 176.17 186.73 176.48 190.33 176.39 193.23 176.53 196.81 177.05 199.9 177.03 202.74 177.22 205.94 177.78 208.68 178.88 211.32 179.02 214.75 178.59 218.83 178.33 222.61 179.65 225.03 180.06 227.68 179.46 229.56 178.36 232.4 178.65 
M 177.22 177.3 180.05 178.07 183.26 178.6 186.73 178.89 189.65 179.61 192.9 180.14 196.46 180.27 199.39 181.02 202.73 181.61 205.83 182.52 208.35 183.76 211.38 184.32 214.54 184.42 218.16 184.17 224.98 185.2 227.81 184.57 230.53 185.36 233.27 185.09 235.72 186.31 237.97 186.56 240.47 185.34 243.9 186.81 246.89 187.88 257.24 188.46 259.5 189.83 262.53 190.69 266.14 189.77 268.21 189.58 269.69 191.78 272.05 191.35 
M 177.05 179.31 183.1 181.4 189.75 182.72 192.89 183.53 196.64 183.62 199.62 184.61 202.64 185.17 205.86 186.05 208.54 187.29 211.27 187.76 213.97 188.59 217.23 188.7 224.39 190.83 227.63 191.41 230.78 193.06 233.49 194.8 235.5 193.59 237.97 193.26 241.53 193.66 244.21 194.13 246.72 196.45 249.66 196.75 256.03 198.88 260.08 199.24 
M 179.92 182.7 183.32 184.15 186.8 185.3 195.67 187.4 198.71 188.29 201.83 189.87 204.5 190.32 207.28 191.03 210.56 193.16 216.29 195.71 219.44 196.32 222.02 196.48 224.87 198 228.95 197.74 232.12 198.34 236.03 199.94 
M 228.97 240.67 236.33 249.04 238.79 252.3 243.34 276.56 241.82 279.18 238.68 280 234.03 276.02 232.02 274.52 229.29 274.18 225.54 272.81 222.13 271.77 215.1 267.05 205.06 245.39 205.07 240.41 203.49 236.75 199.87 230.91 
M 224.23 239.41 226.92 243.16 230.22 248.51 236.76 258.23 
M 219.49 238.15 222.09 241.89 226.29 250.35 228.38 253.19 230.19 256.11 232.42 258.57 234 262.25 234.37 265.38 234.34 269.08 235.66 271.26 238.01 274.21 238.01 276.98 
M 214.82 236.67 217.28 240.31 220.44 246.88 221.36 250.02 222.23 254 222.71 257.18 224.54 259.55 
M 210.15 235.18 212.04 239.81 212.86 242.93 214.21 246.24 215.82 248.98 217.02 252.77 217.89 256.56 219.01 262.68 220.1 265.39 
M 205.61 233.33 207.12 237.85 208.16 242.05 209.3 245.85 210.54 249.47 211.19 252.62 212.29 254.77 212.86 261.37 213.41 264.26 
M 364.76 212.89 369.12 217.54 375.61 224.94 380.9 229.25 378.97 231.49 377.35 234.02 375.47 236.24 373.16 237.82 371.21 239.81 368.34 241.04 366.38 243.19 364.09 245.03 361.52 246.35 358.91 247.33 356 247.54 353.56 248.19 347.72 247.65 341.83 247.8 338.41 247.5 335.62 248.8 333.34 250.11 330.36 250.71 326.82 250.96 323.54 251.42 321.32 252.62 318.5 253.23 315.79 253.35 310.4 252.34 303.86 247.57 303.18 245.37 301.33 241.82 296.86 237.08 
M 360.43 215.18 366.71 221.66 370.17 224.24 372.99 227.32 
M 356.09 217.47 359.99 220.94 362.98 223.12 365.25 226.26 
M 351.63 219.5 355.08 223.06 359.02 226.28 361.02 228.22 362.37 230.81 364.8 234.46 370.53 239.8 
M 347.13 221.45 353.55 227.86 356.62 230.25 358.79 233.15 
M 342.62 223.35 349.29 229.28 351.63 233.02 354.44 236.08 356.18 238.96 361.23 244.34 
M 338.09 225.22 341.78 228.75 344.8 232.27 346.93 235.6 348.47 238.89 351.52 241.8 356.81 245.45 
M 333.5 226.95 337.39 230.6 339.66 233.79 342.74 237.11 344.94 240.4 
M 328.85 228.51 332.77 232.95 335.97 236 339.25 238.58 341.7 241.78 343.04 244.44 
M 324.17 229.96 327.46 233.87 330.98 236.48 
M 319.43 231.21 322.99 235.34 326.24 237.93 328.88 240.63 330.88 243.39 333.78 246.47 
M 314.69 232.47 323.13 243.28 326.05 245.56 
M 309.95 233.72 313.89 238.78 316.45 242.47 317.43 245.29 321.72 251.54 
M 305.21 234.96 308.84 239.54 311.59 243.49 
M 300.46 236.17 304.7 241.39 
M 403.56 165.34 406.8 164.88 409.72 163.84 412.58 163.38 414.42 162.23 417.08 161.17 419.39 159.29 422.39 157.51 425.23 156.78 432.75 152.62 439.79 150.79 445.3 151.67 448.92 153.01 451.64 154.22 457.04 157.36 459.27 161.58 463.17 166.48 465.39 167.97 468.28 170.34 469.63 173.46 469.79 175.39 469.54 177.98 470.88 184.86 470.96 187.44 470.62 190.07 469.64 192.83 469.23 196.16 466.17 197.27 463.69 198.95 462.02 201.43 460.02 203.57 454.68 206.44 452.3 208.16 450.03 208.82 448.01 210.61 442.95 214.11 435.49 214.09 430.78 209.84 423.86 205.12 420.23 201.89 416.92 200.25 414.07 198.58 412.28 196.63 406.91 192.94 403.56 189.88 
M 412.75 164.66 419.67 162.67 422.96 160.61 425.99 159.03 
M 403.56 168.41 406.83 168.16 409.99 167.28 415.55 166.05 421.54 164.26 424.27 162.76 
M 403.56 169.94 406.83 169.81 409.99 169.24 413.11 168.41 418.69 167.54 422.17 166.12 424.31 164.8 430.82 163.46 
M 410.15 171.06 413.37 170.49 419.77 170.02 422.78 169.16 425.15 167.89 431.16 166.58 434.01 166.58 437.47 166.31 445.48 164.56 448.37 163.18 
M 407.4 173.36 413.64 172.65 416.57 172.79 420.06 171.92 423.08 171.55 425.68 170.58 428.62 170.29 432.14 169.45 434.31 169.97 445.6 170.11 449.43 169.19 452.94 167.59 455.33 166.2 457.85 167.39 461.06 168.26 
M 410.95 175.03 417.02 175.19 423 174.1 425.77 173.9 428.78 173.46 431.8 173.34 434.25 173.99 437.51 173.69 441.76 173.83 446.45 174.45 453.98 172.28 456.82 172.02 463.98 169.95 467.23 169.68 
M 407.88 177.01 417.19 178.03 423.35 177.11 425.42 177.58 428.37 177.62 431.53 176.98 434.56 177 437.55 177.33 441.01 176.1 445.32 176.93 
M 414.57 180.16 417.25 180.59 423.32 180.32 425.88 181.46 428.51 181.08 431.48 180.92 438.06 180 442.97 179.8 446.24 180.81 448.85 181.28 
M 414.61 182.18 423.12 183.34 425.87 184.1 428.96 184.12 431.91 183.04 435.8 183.7 438.83 183.66 441.69 182.88 445.33 184 448.51 184.27 450.29 185.75 455.65 188.31 459.72 188.33 
M 411.21 183.64 422.95 185.79 425.54 186.74 432.43 185.99 436.34 186.95 439.62 187 442.06 187.32 
M 403.56 182.21 407.2 184.17 410.95 185.55 414.47 186.32 417.24 186.71 420.49 187.97 422.7 189.08 427.9 189.31 432.59 189.99 439.27 190.46 443.57 193.54 
M 403.56 183.75 406.9 186.23 410.68 187.71 414.18 188.48 417.19 189.33 422.52 192.03 424.73 192.34 427.89 193.47 435.88 194.33 438.55 195.23 441.81 197.71 443.33 199.84 445.42 202.03 448.14 202.56 
M 403.56 185.28 406.85 188.11 410.44 189.58 413.91 190.75 422.59 194.66 427.57 198.05 431.09 198.7 434.71 198.73 438.39 199.71 441.11 201.15 444 203.15 445.07 204.59 447.88 205.25 451.73 207.42 
M 413.65 192.96 416.16 194.35 418.67 195.49 421.33 197 423.96 199.91 427.11 202.17 430.63 203.03 433.49 202.91 436.65 204.08 440.18 206.14 
M 403.56 188.35 406.91 191.38 413.06 194.81 414.82 196.39 420.57 199.6 423.72 202.66 427.25 205.37 429.93 205.93 432.15 207.67 436.54 210.35 
M 355.06 136.58 357.56 141.78 382.28 125.69 385 125.09 388.61 125.38 396.28 127.81 396.36 130.41 395.58 133.01 394.42 135.22 394.55 137.79 396.87 138.23 397.45 140.28 397.68 142.13 390.15 157.41 384.16 154.78 
M 359.2 139.22 363 139.38 366.07 137.61 368.39 135.16 370.83 133.13 
M 363.33 141.86 367.34 141.98 369.98 140.82 372.05 138.79 374.38 137.48 383.26 131.92 
M 367.47 144.48 371.21 144.23 375.17 140.05 378.11 138.43 384.81 135.51 386.84 135.67 389.34 134.27 
M 371.61 147.11 375.1 147.36 377.64 145.54 382.28 142.6 385.76 141.38 389.17 140.84 
M 375.77 149.7 379.01 149.81 381.84 148.41 387.78 145.92 
M 379.96 152.24 383.92 152.1 387.34 151.3 393.02 147.67 396.7 146.07 
M 53.52 192.69 54.91 191.49 58.31 188.99 62.15 186.67 74.54 179.86 82.35 176.45 90.81 171.58 99.85 165.86 118.37 156.16 127.39 151.82 135.77 147.21 143.86 143.38 151.1 140.38 157.72 138.04 163.56 136.17 170.75 134.23 174.36 138.77 175.58 143.07 176.58 147.34 178.08 155.83 179.02 160.09 179.29 164.28 179.19 168.41 178.04 172.42 177.23 176.46 176.97 180.58 176.44 184.66 175.2 188.65 173.07 192.54 169.53 200.39 164.57 208.07 161.1 211.66 147.67 211.05 128.92 209.64 105.62 207.53 98.6 206.74 85.88 204.72 79.93 203.31 74.13 201.67 
M 150.15 168.5 149.86 172.08 146.64 178.51 
M 111.39 199.39 99.5 199.2 93.47 198.63 
M 72.36 202.01 66.72 201.14 52.32 198.38 50.01 197.35 49.03 195.04 50.3 192.95 52.68 192.4 57.3 194.08 70.81 200.12 74.23 201.24 
M 74.37 202.13 64.41 209.53 56.23 214.94 53.63 215.2 51.87 213.36 52.3 210.9 54.36 209.48 61.36 206.98 73.86 201.32 
M 112.11 200.4 108.09 194.77 106.11 188.14 106.4 181.22 108.92 174.77 113.39 169.49 119.34 165.94 126.11 164.52 132.98 165.38 139.2 168.42 144.1 173.31 147.14 179.53 147.99 186.4 146.57 193.18 143.03 199.13 137.75 203.6 131.3 206.12 124.38 206.4 117.75 204.43 112.11 200.4 
M 140.67 175.76 143.11 180.73 143.79 186.23 142.65 191.65 139.82 196.41 135.59 199.99 130.43 202 124.9 202.23 119.59 200.65 115.09 197.43 
M 120.3 190.75 118.69 188.49 117.9 185.84 118.01 183.07 119.02 180.49 120.81 178.38 123.19 176.96 125.9 176.39 128.65 176.74 131.13 177.95 133.09 179.91 134.31 182.4 134.65 185.15 134.08 187.86 132.67 190.24 130.55 192.02 127.97 193.03 125.21 193.15 122.55 192.36 120.3 190.75 
M 119.23 189.18 122.03 191.98 
M 118.37 185.67 125.82 193.12 
M 118.97 183.63 128.26 192.92 
M 120.96 182.97 130.17 192.18 
M 125.64 185 131.69 191.06 
M 127.04 183.76 132.98 189.7 
M 125.94 180.01 133.97 188.04 
M 126.94 178.36 134.49 185.91 
M 129.21 177.98 134.41 183.18 
M 54.82 191.56 57.38 194.12 
M 58.21 189.06 63.28 194.13 
M 61.87 186.84 65.05 190.02 
M 65.64 184.73 70.08 189.17 
M 69.44 182.64 72.93 186.14 
M 73.24 180.57 77.54 184.86 
M 77.24 178.68 82.91 184.36 
M 81.34 176.9 86.35 181.91 
M 85.16 174.84 90.69 180.37 
M 88.89 172.68 92.57 176.37 
M 92.56 170.47 96.31 174.22 
M 96.16 168.19 101.14 173.17 
M 99.76 165.91 102.83 168.97 
M 103.62 163.89 109.17 169.43 
M 107.48 161.87 110.82 165.2 
M 111.34 159.84 117.09 165.59 
M 115.2 157.82 120 162.62 
M 119.08 155.82 123.55 160.28 
M 123.05 153.91 128.93 159.79 
M 127.03 152 130.15 155.12 
M 130.84 149.93 136.03 155.11 
M 134.63 147.84 139.23 152.44 
M 138.56 145.89 142.29 149.61 
M 142.56 144 147.15 148.6 
M 146.66 142.22 149.63 145.19 
M 150.82 140.5 155.94 145.62 
M 155.15 138.95 158.33 142.13 
M 159.54 137.45 165.02 142.93 
M 164.01 136.04 169.76 141.78 
M 168.61 134.76 172.93 139.08 
M 160.46 142.34 160.24 141.67 159.05 139.46 
M 106.38 181.63 105.25 180.57 104.22 180.47 103.08 180.78 
M 92.11 190.29 92.85 189.13 93.42 185.8 
M 146.19 162.12 145.36 162.09 144.4 162.41 144.03 162.17 143.62 161.59 
M 169.6 195.8 170.51 195.28 171.59 193.86 172.17 193.66 
M 153.01 175.97 153.31 173.21 153.24 171.46 153.63 168.83 153.58 167.28 153.77 165.03 
M 73.24 195.95 72.18 196.15 70.79 196.01 70.3 196.11 69.4 196.89 67.96 198.85 
M 104.1 195.47 103.66 195.18 103.33 194.32 102.72 193.47 
M 74.43 196.33 73.17 197.22 72.42 197.38 70.3 197.41 69.78 197.72 68.47 199.09 
M 175.36 150.11 174.53 149.85 173.8 150.02 173.06 150.54 172.01 151.68 
M 173.32 140.52 171.52 143.19 170.97 145.03 169.3 149.08 168.35 151.81 
M 98.88 181.5 98.11 181.51 96.64 181.09 93.93 180.61 92.2 180.9 91.29 181.36 
M 84.24 204.33 87.12 202.85 89.48 202.04 90.22 202 93.28 202.7 94.28 202.77 
M 124.57 157.37 126.43 157.52 128.81 158.06 129.64 159.25 130.09 160.91 
M 103.89 195.15 103.34 194.09 102.52 193.05 101.41 192.07 99.92 191.11 
M 164.54 192.46 164.67 193.89 164.87 194.35 165.38 194.88 165.82 194.91 166.68 194.31 167.8 193.89 
M 171.36 176.8 171.66 179.16 172.02 179.98 172.86 181.22 
M 102.83 173.23 102.13 172.3 101.78 171.45 101.26 168.23 100.53 165.5 
M 173.37 172.3 173.76 173.25 174.37 173.97 175.15 174.38 175.76 174.19 
M 159.99 146.79 161.26 147.32 162.84 148.82 165.54 150.17 166.34 150.93 
M 156.6 198.06 156.08 198.78 155.37 199.38 153.6 199.95 152.43 201.2 151.87 201.97 150.21 205.05 149.86 206.83 
M 158.3 192.62 156.24 195.28 154.31 198.26 152.69 200.28 151.68 201.81 150.52 204.06 
M 100.18 198 100.75 197.35 101.21 196.2 101.35 194.83 99.67 192.41 99.17 192.11 98.62 192.03 
M 112.7 200.82 112.18 200.95 
M 145.51 142.7 146.62 143.75 146.98 144.54 146.97 144.98 146.57 145.7 145.23 146.37 
M 83.42 192.48 84.62 192.64 85.83 192.1 88.11 189.56 89.29 188.71 
M 122.92 208.84 123.97 206.95 124.17 206.34 
M 149.34 152.65 149.03 155.78 148.57 156.6 148.11 156.92 147.49 157.14 146.69 157.15 145.97 156.82 144.91 155.4 
M 75.54 201.21 75.18 201.97 
M 167.07 162.08 165.81 161.89 161.67 161.95 161.08 161.79 
M 105.32 199.85 105.69 199.46 106.49 199.85 
M 172.26 187.2 174.76 189.46 
M 102.54 175.44 100.42 175.36 98.67 174.26 
M 87.13 185.66 86.75 185.19 85.46 184.69 85.16 184.29 
M 166.3 195.7 166.91 194.76 168.83 193.18 169.44 192.85 
M 139.91 203 139.11 203.99 138.95 204.84 139.19 205.88 139.72 206.49 
M 92.81 199.58 95.7 200.39 99.49 200.63 
M 165.9 153.38 165.69 154.56 165.82 155.87 164.61 159.21 
M 107.72 196.63 107.56 198.87 107.64 200.21 107.56 200.43 107.29 200.37 
M 148.95 155.9 148.4 156.65 147.24 157.06 146.48 156.97 145.86 156.53 144.87 155.11 144.67 154.4 144.62 151.41 
M 94.13 198.45 95.07 198.66 96.25 198.49 99.03 196.95 99.45 196.63 100.14 195.47 100.11 194.58 
M 147.05 179.35 147.8 178.67 149.35 177.85 151.91 177.53 
M 113.07 201.09 113.06 201.09 
M 167.77 161 165.52 160.76 163.02 161.63 161.29 161.8 
M 144.86 145.63 144.09 147.26 143.93 148.43 
M 167.55 140.52 166.62 141.08 165.88 141.83 165.3 143.06 164.81 145.07 167.09 148.84 
M 171.12 148.62 170.82 149.74 169.36 153.39 168.94 154.13 168.39 154.69 166.59 155.45 166.12 156.13 
M 94.54 177.45 94.13 178.6 93.68 178.96 92.86 179.18 90.96 179.36 
M 130.69 164.93 130.57 165.08 
M 102.97 185.3 102.03 185.43 99.25 186.9 98.27 187.21 97.33 187.28 96.36 187.22 94.8 186.54 94.25 185.85 93.87 184.96 
M 108.59 175.61 107.61 175.95 103.96 177.82 103.12 177.98 
M 135.09 157.86 133.95 154.68 134.12 153.76 
M 70.55 182.03 73.03 182.91 76.51 183.79 
M 62.86 190.39 63.39 190.68 64.98 190.85 66.51 189.77 69.63 188.55 
M 100.07 171.44 100.19 167.98 99.99 165.78 
M 94.27 184.55 93.5 184.01 92.97 183.93 92.31 184.16 91.99 184.72 
M 79.35 184.88 80.51 183.68 82.13 182.39 82.62 181.69 82.77 180.96 82.62 180.19 82.18 179.34 80.52 177.25 
M 104.92 175.67 103.02 176.13 100.95 175.6 
M 128.71 164.03 127.17 164.65 
M 123.93 164.98 123.26 165 118.95 165.91 116.41 166.61 115.9 166.52 
M 144.95 164.38 144.88 164.59 145.17 164.87 
M 151.03 153.64 151.12 155.24 150.44 160.64 
M 113.52 201.59 111.74 201.4 110.06 200.86 108.97 200.97 108.2 200.79 
M 103.38 191.69 102.68 191.21 101.01 190.59 100.13 190.41 98.52 190.42 97.53 190.68 97.14 191.22 97.33 191.84 97.78 192.49 
M 84.62 192.33 86 191.63 88.44 188.73 90.07 187.85 
M 154.24 200.09 153.47 200.48 152.23 201.81 150.44 204.92 150.03 206.64 150.05 208.02 150.32 208.98 
M 102.55 183.46 99.79 185.65 98.82 186.17 97.89 186.4 96.88 186.43 95.85 186.24 95.01 185.91 93.77 184.55 
M 176.16 176.16 175.05 174.85 175.05 174.66 175.31 174.47 
M 147.58 193.84 146.26 195.22 144.91 195.97 
M 118.43 156.13 119 156.16 
M 92.34 205.79 94.09 204.9 94.66 204.76 96.71 204.91 97.37 205.03 98.5 205.65 99.36 206.83 
M 77.92 187.51 80.66 186.99 83.94 185.98 85.27 185.11 85.21 184.58 
M 102.65 177.85 102.28 177.48 101.65 176.19 101.28 175.89 100.64 175.68 
M 110.72 199.33 108.96 200.81 108.12 200.75 
M 116.24 159.37 116.46 160.37 116.04 161.37 113.93 162.83 112.7 163.95 
M 148.92 186.41 148.6 186.97 147.93 189.35 147.05 190.91 
M 94.08 192.35 95.22 192.54 97.37 193.49 97.7 193.4 
M 86.25 197.7 86.63 198.51 87.21 199.13 87.81 199.44 90.87 199.93 93.57 201.51 
M 74.13 201.67 75.17 201.98 
M 65.86 200.98 65.81 202.03 66.33 203.38 66.37 202.2 66.98 201.19 
M 58.18 199.49 57.67 202.45 58.42 205.06 58.24 202.62 59.51 199.74 
M 50.66 197.64 49.53 202.87 50.52 206.74 50.1 203.04 52 198.23 
M 74.13 201.75 75.09 201.24 
M 66.65 204.5 66.23 202.85 66.48 201.43 66.75 202.57 67.96 203.9 
M 59.91 207.53 58.5 203.86 58.72 201.16 59.02 203.58 61.4 206.96 
M 53.13 210.33 50.76 204.87 50.97 200.89 51.28 204.6 54.43 209.46 
M 60.73 212 67.28 211.66 71.48 211.06 75.67 210.22 83.96 208.21 92.04 205.75 
M 72.45 209.71 72.02 209.14 
M 174.56 139.48 176.81 141.72 
M 175.05 132.12 182.69 139.76 
M 180.36 129.59 190.27 139.5 
M 185.77 127.15 196.67 138.05 
M 191.2 124.74 199.59 133.13 
M 196.71 122.41 205.64 131.34 
M 202.33 120.18 208.43 126.29 
M 208.1 118.12 217.21 127.23 
M 213.79 115.96 220.49 122.66 
M 219.46 113.78 227.44 121.76 
M 225.5 111.98 233.55 120.03 
M 231.68 110.32 240.25 118.89 
M 238.04 108.83 248.18 118.98 
M 244.83 107.78 254.49 117.44 
M 252.43 107.54 258.47 113.58 
M 260.63 107.9 272.21 119.48 
M 268.32 107.75 276.41 115.83 
M 275.19 106.77 281.31 112.89 
M 282.99 106.72 291.36 115.1 
M 292.08 107.97 301.01 116.9 
M 302.43 110.48 308.71 116.76 
M 314.25 114.45 321.92 122.12 
M 329.75 122.11 337.12 129.48 
M 347.48 132.01 357.56 142.08 
M 368.39 145.07 378.26 154.94 
M 388.17 157.01 397.62 166.46 
M 405.22 166.21 410.21 171.21 
M 235.43 292.89 235.31 292.3 234.89 291.7 234.38 291.39 233.18 291.39 232.49 291.7 231.71 292.3 231.23 292.89 230.66 293.8 230.21 295.3 230.36 296.8 230.78 297.39 231.29 297.7 232.49 297.7 233.18 297.39 233.96 296.8 234.44 296.2 
M 240.65 293.5 239.39 297.7 
M 240.38 294.39 239.96 293.8 239.45 293.5 238.55 293.5 237.86 293.8 237.08 294.39 236.51 295.3 236.33 295.89 236.36 296.8 236.78 297.39 237.29 297.7 238.19 297.7 238.88 297.39 239.66 296.8 
M 243.05 293.5 241.79 297.7 
M 242.51 295.3 243.08 294.39 243.86 293.8 244.55 293.5 245.45 293.5 
M 247.28 291.39 247.49 291.7 247.88 291.39 247.67 291.1 247.28 291.39 
M 246.95 293.5 245.69 297.7 
M 252.65 293.5 251.39 297.7 
M 252.38 294.39 251.96 293.8 251.45 293.5 250.55 293.5 249.86 293.8 249.08 294.39 248.51 295.3 248.33 295.89 248.36 296.8 248.78 297.39 249.29 297.7 250.19 297.7 250.88 297.39 251.66 296.8 
M 261.35 293.5 260.09 297.7 
M 261.08 294.39 260.65 293.8 260.14 293.5 259.25 293.5 258.56 293.8 257.77 294.39 257.21 295.3 257.02 295.89 257.06 296.8 257.48 297.39 257.99 297.7 258.89 297.7 259.58 297.39 260.36 296.8 
M 264.38 291.39 262.49 297.7 
M 265.31 295.3 268.91 295.3 269.08 294.7 268.97 294.1 268.25 293.5 267.35 293.5 266.66 293.8 265.88 294.39 265.31 295.3 265.13 295.89 265.15 296.8 265.58 297.39 266.08 297.7 266.99 297.7 267.68 297.39 268.45 296.8 
M 271.55 293.5 270.29 297.7 
M 271.01 295.3 271.58 294.39 272.36 293.8 273.05 293.5 273.95 293.5 
M 275.77 291.39 275.99 291.7 276.38 291.39 276.17 291.1 275.77 291.39 
M 275.45 293.5 274.19 297.7 
M 277.85 293.5 276.58 297.7 
M 277.49 294.7 278.66 293.8 279.35 293.5 280.25 293.5 280.76 293.8 280.79 294.7 279.89 297.7 
M 286.85 293.5 285.58 297.7 
M 286.58 294.39 286.16 293.8 285.64 293.5 284.75 293.5 284.06 293.8 283.27 294.39 282.7 295.3 282.52 295.89 282.56 296.8 282.98 297.39 283.49 297.7 284.39 297.7 285.08 297.39 285.86 296.8 
M 288.47 297.1 288.08 297.39 288.29 297.7 288.68 297.39 288.47 297.1 
"/></svg>
