<svg xmlns="http://www.w3.org/2000/svg" width="520" height="320"><rect x="0" y="0" width="520" height="320" fill="floralwhite"/><rect x="10" y="10" width="500" height="300" stroke="black" stroke-width="1" fill="none"/><path stroke="black" stroke-width="1" fill="none" stroke-linecap="round" stroke-linejoin="round" d="
M 127.81 126.15 138.87 124.52 182.03 119.2 214.44 115.58 225.28 114.78 247.02 114.74 257.89 114.95 268.74 115.61 301.23 118.46 312.02 119.8 333.53 122.91 365.86 127.18 376.58 129.03 387.18 131.41 422.42 141.71 
M 422.42 169.86 397.77 177.76 387.35 180.88 376.79 183.43 366.13 185.55 355.42 187.44 333.96 190.9 323.18 192.34 301.53 194.35 290.68 194.88 268.94 194.69 260.89 194.91 
M 159.73 189.45 139.06 186.27 128.35 184.41 115.83 181.99 
M 165.93 142.58 172.84 141.88 
M 179.81 141.14 183.28 140.73 
M 203.05 140.24 208.75 139.54 212.73 139.38 
M 225.12 139.56 227.31 139.51 
M 231.16 139.42 237.12 139.51 243.32 139.9 
M 247.51 140.23 254.08 141.07 267.65 143.83 272.3 144.92 285.27 148.86 
M 290.37 150.28 292.84 150.91 297.47 151.78 301.89 152.4 306.07 152.77 326.34 153.32 339.68 154.01 362.01 153.88 376.37 154.53 388.99 153.6 397.85 153.59 407.05 154.1 416.6 155.16 422.42 155.23 
M 126.64 167.32 130.72 173.24 
M 133.97 177.96 134.55 178.79 
M 138.45 129.9 137.12 131.53 135.53 132.9 
M 140.2 138.04 138.57 139.38 136.77 140.56 
M 156.51 125.72 154.35 129.32 
M 144.48 148.07 146.46 151.59 
M 148.25 154.92 149.43 157.33 
M 165.81 124.09 163.32 127.35 
M 156.44 137.84 155.28 139.6 152.22 143.49 
M 179.56 119.51 178.67 120.37 
M 172.98 126.18 171.65 127.73 169.23 131.08 161.33 142.77 
M 183.57 125.89 176.73 133.57 174.06 136.72 172.91 138.47 
M 171.2 141.18 170.66 142.12 
M 198.48 117.39 198.3 117.61 
M 195.81 120.99 193.43 124.48 
M 188.2 130.97 185.38 134.01 
M 180.58 139.97 179.77 141.15 
M 208.46 116.4 206.77 117.7 205.37 119.28 
M 200.62 126.43 197.41 132.13 196.04 133.73 
M 219.43 116.58 217.6 117.7 214.45 120.51 213.07 122.14 
M 210.43 125.51 209.16 127.26 205.65 132.8 
M 203.24 136.4 200.17 140.58 
M 230.53 117.41 227.21 119.88 
M 218.72 129.13 216.05 132.46 
M 232.83 127.21 231.18 128.46 229.71 129.92 
M 226.86 132.97 224.1 136.15 
M 251.63 119.83 249.87 120.85 247 123.59 244.48 126.72 241.74 129.68 235.51 135 233.54 137.2 
M 237.34 149.25 239.77 153.27 
M 242.23 157.31 246.25 163.64 250.71 170.2 
M 265.61 190.81 268.5 194.71 
M 266.91 121.05 263.62 123.24 
M 260.31 125.44 256.94 127.61 
M 253.67 129.92 252.08 131.14 242.21 139.83 
M 247.71 149.32 250.3 153.47 
M 256.46 162.63 263.6 172.63 
M 267.14 177.56 270.48 182.25 
M 273.81 186.91 279.53 194.81 
M 282.15 122.27 280.43 123.27 278.52 124.09 
M 271.57 128.07 262.19 135.22 
M 255.28 139.74 253.42 140.93 
M 259.59 150.95 262.31 155.15 
M 268.28 163.97 290.73 194.88 
M 288.18 130.56 282.41 132.99 280.58 133.9 
M 270.24 140.06 266.95 142.25 
M 288.76 176.6 301.71 194.34 
M 303.22 131.5 300.29 134.1 
M 297.25 136.56 295.69 137.74 292.28 139.82 286.79 142.56 
M 283 144.26 277.88 146.56 
M 288.59 161.43 292.06 166.01 
M 301.75 178.88 307.89 187.08 
M 310.87 191.08 312.52 193.36 
M 315.21 134.57 309.82 137.58 306.7 140.02 302.27 143.88 
M 299.13 146.26 297.52 147.4 294.04 149.43 291.53 150.61 
M 297.99 159.61 309.18 174.06 323.04 192.35 
M 326.43 136.65 324.9 137.99 323.21 139.14 
M 319.71 141.3 317.9 142.31 314.53 144.55 311.45 147.05 308.24 149.39 303.39 152.56 
M 312.11 164.09 315.04 167.79 
M 320.87 175.12 324.1 179.1 
M 327.28 183.03 333.48 190.97 
M 336.79 137.23 331.81 140.94 328.33 143.2 321.1 147.34 317.84 149.7 313.91 152.94 
M 320.37 160.93 323.12 164.26 
M 329.34 171.58 344.24 189.31 
M 348.09 138.39 346.35 139.59 342.58 141.66 335.59 146.3 328.42 150.62 324.66 153.27 
M 331.6 161.12 334.81 164.65 
M 337.95 168.08 355.42 186.94 
M 363.68 131.88 361.07 135.2 
M 358.28 138.32 356.82 139.81 353.29 142.18 349.37 144.14 345.78 146.4 341 150.37 
M 337.78 152.78 336.16 153.87 
M 343.84 161.76 349.27 167.21 
M 351.81 169.71 367.11 184.5 
M 368.28 138.21 364.05 142.83 361.04 145.72 357.51 148.08 355.53 149.05 
M 351.75 151.15 349.95 152.28 347.87 154.02 
M 355.33 160.98 365.85 170.48 374.69 178.1 
M 376.85 179.97 377.7 180.72 
M 383.12 137.55 381.33 138.68 378.08 141.28 371.77 146.72 368.41 149.24 364.69 151.41 359.6 153.86 
M 373.69 165.53 388.22 176.69 
M 387.95 144.94 386.02 145.9 380.76 149.34 
M 377.25 151.66 375.46 152.8 372.17 154.44 
M 380.23 160.33 390.45 167.38 395.41 170.55 399.88 173.78 
M 403.19 145.55 401.1 146.26 389.06 151.18 383.64 153.97 
M 388.37 156.84 391.59 158.81 
M 394.77 160.73 401.88 164.75 410.43 170.08 
M 414.78 148.35 405.87 150.25 
M 401.56 151.42 394.92 153.54 
M 403.89 158.4 413.74 163.48 
M 416.69 164.93 421.38 167.27 
M 422.42 152.11 419.69 152.76 415.34 153.4 406.9 154.09 
M 417.52 158.22 422.42 159.67 
M 326.95 180.65 326.08 180.03 325.13 178.47 324.88 177.75 324.6 174.31 324 172.17 323.9 171.3 324.98 168.42 
M 279.12 153.97 278.23 154.69 276.45 156.71 275.35 157.5 274.92 157.5 
M 277.26 124.03 273.41 123.51 272.58 123.32 271.44 122.82 271.07 122.39 270.95 121.71 271.09 120.99 271.44 120.47 
M 299.83 118.33 300.26 118.97 300.32 119.33 300.13 119.6 299.67 119.71 
M 273.76 116.68 274.79 116.56 275.68 116.2 
M 348.97 187.85 348.7 188.57 
M 396.27 147.23 397.1 147.87 399.13 150.09 400.26 151.03 400.32 151.55 399.95 152.46 399.54 152.95 397.09 155.1 
M 365.05 158.32 361.2 159.02 359.51 158.66 357.9 157.92 357.08 157.42 356 155.71 355.45 153.85 355.4 152.74 
M 263.14 148.23 262.54 147.97 261.22 146.9 260.67 146.22 259.13 143.51 255.86 140.24 
M 323.46 132.05 323.53 131.76 323.34 131.44 323.05 131.3 322.67 131.37 
M 289.06 148.61 286.25 144.1 285.27 141.58 285.36 140.95 286.04 139.65 
M 322 121.54 320.72 122.62 320.22 122.79 318.75 122.73 317.98 122.35 317.65 122 317.2 121.26 317.13 120.5 
M 335.44 181.43 332.48 179.59 331.81 178.94 330.39 177.1 329.29 174.89 328.7 174.09 326.19 171.88 325.92 171.37 
M 319.24 187.84 319.45 183.61 321.22 178.87 321.83 176.77 
M 418.29 167.24 420.93 168.62 421.65 168.82 422.2 168.74 422.42 168.56 
M 209.89 133.8 211.49 134.04 212.46 133.89 217.52 131.96 220.2 131.47 221.95 130.45 
M 353.29 148.78 352.86 148.51 351.04 148.16 348.23 147.18 347.08 147.08 345.57 147.42 
M 277.48 181.56 277.08 180.04 277.31 178.79 279.36 174.19 279.83 173.59 280.74 173.19 
M 285.54 143.33 284.91 141.74 285.06 140.62 285.51 139.84 286.93 138.98 287.42 138.3 
M 333.46 169.47 334.24 170.27 334.82 170.58 335.49 170.64 335.91 170.39 
M 353.06 181.07 353.74 180.35 354.86 179.63 354.99 179.11 354.84 178.25 
M 146.86 158.33 146.41 157.74 
M 390.48 155.21 390.01 156.69 389.66 156.98 389.04 157.1 388.26 156.88 386.72 155.06 
M 376.38 170.84 376.08 170.25 376.06 169.79 376.39 169.39 377.13 169 378.37 168.79 380.43 169.13 
M 135.11 133.36 133.64 132.78 
M 131.93 129.51 132.26 128.91 132.67 128.79 
M 154.39 133.39 152.71 133.02 151.97 132.43 151.38 131.33 151.42 130.74 151.8 130.29 
M 337.27 145.38 338.43 145.64 339.57 146.15 343.6 149.31 343.93 149.99 343.99 150.61 343.75 151.86 343.16 153.03 
M 324.52 184.16 323.76 183.16 323.62 182.13 324.15 174.65 
M 403.49 170.71 402.35 171.74 399.78 172.63 396.44 172.33 395.68 172.51 
M 299.69 165.77 297.39 164.89 296.73 164.39 296.33 163.85 296.19 163.32 296.38 162.31 296.92 161.27 297.94 160.36 299.33 159.47 
M 211.92 114.62 266.63 34.57 267.49 35.14 215.8 115.48 
M 227.4 113.76 267.51 51.49 268.39 52.04 231.15 114.73 
M 242.91 113.79 271.39 68.05 272.29 68.58 246.64 114.74 
M 258.42 114.1 277.34 83.03 278.25 83.53 262.11 115.07 
M 273.89 115.33 285.07 96.87 285.99 97.35 277.5 116.36 
M 289.32 116.72 294.45 108.7 295.4 109.13 292.9 117.66 
M 297.34 117.52 299.09 118.19 
M 262.24 43.3 261.2 46.62 260.88 48.26 260.77 49.89 260.91 51.49 261.3 53.07 261.9 54.63 263.5 57.72 
M 264.61 58.41 264.2 61.92 264.19 63.63 264.39 65.27 264.83 66.85 265.51 68.36 266.39 69.82 268.55 72.63 
M 269.67 73.29 269.74 76.69 269.96 78.31 270.38 79.83 271.02 81.26 271.89 82.59 272.95 83.83 275.45 86.13 
M 276.59 86.77 277.09 90.12 277.52 91.69 278.13 93.15 278.95 94.48 279.97 95.67 281.19 96.76 283.96 98.71 
M 285.11 99.32 286.07 102.45 286.7 103.89 287.49 105.18 288.47 106.31 289.64 107.28 290.97 108.11 293.94 109.5 
M 295.13 110.04 294.65 112.32 294.59 113.38 294.74 114.35 295.11 115.23 295.71 116.02 296.5 116.72 298.47 117.96 
M 261.68 44.96 260.88 48.26 260.77 49.89 260.91 51.49 261.3 53.07 262.66 56.18 
M 257.63 51.99 256.91 54.96 256.82 56.42 256.94 57.86 257.29 59.28 258.51 62.08 
M 253.59 59.01 252.95 61.65 252.97 64.23 253.28 65.49 254.37 67.98 
M 249.54 66.03 248.98 68.34 249.01 70.6 249.28 71.71 250.23 73.88 
M 245.5 73.06 245.02 75.04 245.04 76.97 245.27 77.92 246.09 79.79 
M 241.45 80.08 241 82.54 241.26 84.13 241.94 85.69 
M 237.41 87.1 237.09 88.42 237.1 89.71 237.8 91.59 
M 264.37 60.18 264.19 63.63 264.39 65.27 264.83 66.85 265.51 68.36 267.43 71.24 
M 260.5 67.81 260.35 70.78 260.52 72.2 260.9 73.55 261.48 74.86 263.13 77.33 
M 256.63 75.45 256.51 77.94 256.97 80.26 257.45 81.35 258.84 83.42 
M 252.77 83.09 252.67 85.09 253.04 86.96 253.43 87.84 254.54 89.51 
M 248.9 90.73 248.91 92.97 249.4 94.33 250.25 95.6 
M 269.67 75.01 269.96 78.31 270.38 79.83 271.02 81.26 271.89 82.59 274.16 85 
M 265.61 84.31 265.84 86.84 266.16 88.01 267.31 90.12 269.06 91.97 
M 261.55 93.61 261.71 95.37 262.28 96.95 262.74 97.65 263.95 98.94 
M 276.81 88.47 277.52 91.69 278.13 93.15 278.95 94.48 279.97 95.67 282.53 97.76 
M 273.65 97.97 274.11 100.06 274.51 101.01 275.71 102.65 277.38 104 
M 131.03 161.19 134.48 161.73 137.46 161.17 146.16 158.6 149.51 157.3 154.98 156.89 161.65 154.9 164.56 152.98 167.79 152.34 170.17 150.81 173.3 149.23 175.54 149.42 180.91 149.06 184.23 147.41 223.3 136.4 225.47 140.18 228.35 147.85 236.5 154.3 238.64 156.73 241.04 160.14 243.38 164.35 244.68 165.21 249.3 168.96 255.39 174.18 261.79 182.54 260.14 184.59 260.78 189.01 261.08 193.11 260.72 196.54 257.93 198.01 254.06 198.35 251.25 199.75 248.22 200.92 245.62 202.48 242.35 203.26 239.7 204.64 236.6 205.58 235.02 208.03 232.4 209.45 228.14 210.57 183.66 201.99 181.07 202.45 178.02 199.33 176.94 196.29 173.81 194.69 170.04 193.46 166.87 191.61 163.75 190.1 160.6 189.88 157.15 188.16 154.24 187.25 151.13 186.62 147.6 184.86 141.46 182.46 139.07 180.51 135.45 178.77 131.03 176.36 
M 141.51 161.48 145.15 160.27 148.61 159.34 154.19 159.11 160.73 157.8 167.37 155.83 170.82 154.57 177.31 153.56 
M 134.31 164.58 137.44 164.26 141.44 163.55 144.78 162.67 148.03 162.26 158.49 161.4 161.58 160.97 164.49 160.29 167.66 160.39 170.79 159.93 174.07 159.66 176.14 158.74 179.11 156.9 181.73 157.23 191.04 155.51 194.21 155.27 
M 141.19 165.64 144.57 165.42 147.97 164.92 151.63 164.77 158.42 163.68 162.07 163.36 165.49 163.29 168.07 163.66 170.98 163.66 174.76 163.41 179.96 162.21 182.75 162.24 191.25 160.61 193.95 161.09 197.87 160.61 201.38 159.73 205.49 158.07 208.11 158.46 213.36 158.15 216.56 156.92 222.45 156.2 228.26 154.25 
M 134.3 168.01 144.57 167.64 148.31 167.86 154.83 166.49 158.05 166.26 161.58 166.71 164.9 167.65 167.96 168.93 171.58 168.69 175.33 167.55 178.05 166.17 180.63 165.68 191.42 167.68 195.05 167.34 197.76 165.96 203.36 165.34 205.47 163.83 207.23 164.72 209.96 165.14 217.15 164.8 218.76 164.01 
M 141.25 170.23 144.89 170.17 148.3 170.53 154.95 169.74 158.2 169.84 161.52 170.28 164.79 171.46 167.97 172.29 174.3 171.87 177.59 170.48 180.62 170.37 188.66 172.58 191.64 172.95 194.9 172.19 197.67 171.07 201.2 171 203.87 171.39 205.97 172.2 207.7 172.66 211.03 172.73 217.93 173.22 224.22 172.21 227.36 172.86 230.43 173.13 233.5 172.7 236.54 172.89 239.69 174 243.7 174.94 247.43 174.3 250.94 174.86 
M 131.03 170.51 138.19 172.05 145.02 172.89 148.28 173.02 151.21 172.88 157.89 173.2 160.97 173.79 167.65 175.58 170.47 175.89 173.92 176.67 180.49 177.8 184.05 177.33 187.02 177.61 190.2 178.52 196.73 178.76 204.23 179.65 210.9 179.9 213.35 180.78 216.3 181.25 218.46 181.9 220.71 182.32 223.73 181.87 227.19 181.78 232.56 180.07 236.67 180.57 239.77 181.36 
M 138.47 173.92 141.6 174.74 144.93 175.33 147.85 175.74 151.15 175.75 153.97 176.45 156.65 177.88 160.28 178.18 164.27 179.32 167.37 179.84 170.12 179.93 173.83 180.9 177.11 182.45 179.98 183.11 183.57 183.05 186.42 183.48 190.06 183.38 193.29 184.52 199.18 186.07 202.38 186.47 205.92 186.14 208.8 187.34 211.16 187.96 214.44 188.53 218.53 190.07 222.08 191.1 225.23 192.8 227.91 191.79 231.74 190.65 235.45 190.28 237.02 193.01 239.53 194.16 242.83 195.02 
M 138.67 176.1 141.71 176.79 147.78 178.67 150.98 179.12 156.48 180.85 159.84 181.52 163.42 182.6 166.5 183.31 170.16 183.88 173.56 185.2 177.13 185.81 185.97 188.54 188.8 189.85 192.05 190.24 195.4 191.41 201.58 193.06 203.76 193.12 206.45 193.82 209.14 195.79 216.11 196.67 220.9 199.57 225.19 201.36 227.99 200.93 229.82 199.88 232.1 200.19 240.54 201.85 
M 131.03 175.17 135.19 177.09 138.67 178.21 144.52 180.43 147.64 181.32 154.13 183.66 156.44 183.77 159.51 185.23 162.89 186.08 169.38 188.91 172.77 189.26 176.57 190.48 179.43 191.73 
M 228.4 210.5 228.78 210.78 248.1 240.66 245.82 242.65 242.71 248.19 240.75 250.57 239.61 253.69 237.66 255.99 236.99 259.56 235.15 264.77 234.67 268.01 233.6 270.77 232.7 273.69 230.69 275.42 217.42 266.42 215.34 265.41 213.31 264.16 209.15 258.17 203.18 250.97 173.27 206.93 172.93 204.64 170.84 199.09 168.14 194.98 164.89 190.65 
M 222.36 209.45 223.71 210.62 225.78 213.58 228.2 216.12 
M 215.33 208.1 217.12 211.16 219.76 214.09 222.09 216.38 223.86 217.81 225.92 220.24 228.25 224.3 233.69 232.22 
M 209.65 207 210.23 207.41 212.66 210.4 215.56 216.86 217.82 218.8 218.99 221.46 221.84 225.03 223.79 228.21 225.84 230.69 227.69 233.62 231.45 238.23 
M 201.03 205.34 206.02 211.06 208.12 213.76 210.31 217.2 212.63 220.06 214 222.64 214.72 226.53 219.1 231.05 220.93 233.99 222.27 238.05 
M 194.93 204.16 199.18 211.69 201.25 214.77 204.86 219.14 206.62 222.81 209.01 229.11 211.11 230.95 212.37 234.98 214.41 239.02 215.83 240.84 217.04 243.2 218.03 246.3 219.95 249.6 
M 190.42 203.29 193.9 210.68 194.61 213.05 196.24 216.57 198.59 220.24 201.3 225.34 202.49 228.72 203.04 232.23 205.59 235.21 
M 182.83 202.14 184.66 204.46 187.03 206.79 188.59 209.68 189.95 212.56 190.35 215.75 191 219.17 192.85 222.54 194.3 225.78 195.67 228.15 198.58 234.73 
M 174.24 194.91 177.38 202.39 180.21 206.71 182.33 208.93 184.52 216.91 186.13 219.78 186.72 222.29 188.74 225.41 189.45 227.8 191.88 231.18 192.45 233.17 194.29 236.31 196.73 239.92 
M 384.69 181.67 393.17 191.55 394.88 194.88 395.41 203.03 392.77 204.44 389.41 205.16 385.79 205.65 382.33 206.35 380.62 208.8 378.38 210.71 372.25 212.3 368.67 212.7 362.83 214.63 359.73 215.31 356.85 216.42 355.4 218.83 348.63 220.07 346.3 222.06 344.6 224.63 341.13 224.67 337.44 224.02 332.06 221.39 329.46 220.7 326.1 220.1 322.92 220.02 319.59 219.58 316.85 218.94 312.4 216.6 309.29 216.15 305.96 216.79 294.73 206.43 292.64 204.27 290.04 200.81 286.85 195.02 
M 379.64 182.79 384.09 188.51 386.91 192.52 
M 374.58 183.92 377.74 188.11 381.2 191.47 383.63 194.11 384.84 197.63 387.64 200.11 
M 369.5 184.93 372.11 189.09 374.47 192.31 377.86 195.36 
M 364.41 185.86 367.36 190.43 369.85 193.49 372.78 195.82 
M 359.31 186.78 364.85 194.72 366.73 198.16 
M 354.21 187.65 357.92 191.41 359.67 194.92 362.17 198.43 363.96 201.61 365.62 205.39 368.24 208.37 
M 349.1 188.52 355.99 195.16 357.46 198.51 
M 343.99 189.35 346.62 193.75 349.83 195.75 352.59 198.32 354.21 201.41 
M 338.88 190.16 345.4 199.42 347.66 203.04 350 207.29 
M 333.76 190.93 336.37 194.63 338.07 197.45 339.65 200.48 342.1 204.34 345.93 208.28 348.84 212.31 350.49 215.22 351.37 216.24 
M 328.63 191.62 331.33 195.36 333.73 197.8 334.98 201.28 337.9 204.74 341.42 208.52 344.24 212.46 345.53 216.04 
M 323.49 192.31 326.75 196.51 330.21 202.21 332.86 205.37 
M 318.34 192.8 321.48 196.83 323.75 200.28 325.78 202.97 327.45 205.61 328.98 209.17 335.44 218.8 
M 313.18 193.29 315.62 197.5 322.17 206.27 
M 308.03 193.77 312.25 201.84 314.93 204.98 318.27 207.55 320.6 210.75 321.68 213.5 324.44 215.46 326.65 218.56 
M 302.87 194.23 307.85 201.87 310.96 204.99 313.71 208.77 
M 297.71 194.63 300.82 198.55 303.21 202.8 306.17 206.52 310.16 213.29 311.3 214.88 
M 292.53 194.81 297.69 203.32 299.53 207.2 
M 421.38 141.42 425.06 140.68 427.87 139.42 430.18 138 435.9 133.84 438.6 132.63 442.56 132.14 445.99 130.62 453.8 125.7 456.15 123.62 458.76 120.87 461.46 118.49 463.14 117.69 465.16 117.38 467.4 117.27 470.93 114.25 473.18 111.36 475.82 108.69 479.48 107.02 482.26 105.38 485.32 104.97 488.83 103.88 469.88 121.58 470.12 128.33 469.77 131.91 468.88 135.08 467.46 137.66 466.28 140.44 463.8 142.17 462.06 144.76 459.43 146.5 457.13 148.59 457.06 152.26 456.56 155.05 456.78 158.7 458.06 161.61 460.94 166.95 461.57 170.42 460.74 173.25 460.62 176.24 461.88 180.18 466.23 184.66 467.41 186.64 468.53 190.05 469.98 193.55 474.1 199.49 476.33 203.32 490 216.56 486.45 214.3 483.29 211.65 477.34 209.09 471.97 205.82 470.63 205.3 467.27 203.05 464.48 200.58 462.23 198.15 458.56 196.02 456.01 194.29 454.11 192.05 451.64 189.67 449.05 187.79 445.12 186.19 442.27 184.01 438.86 182.79 433.13 179.49 428.14 175.05 425.25 172.81 421.38 170.18 
M 421.38 143.01 425.38 142.74 430.92 140.43 437.18 136.57 439.78 135.49 443.18 134.3 447.67 133.47 451.09 132.18 
M 425.35 144.74 428.41 143.87 434.71 141.4 440.6 138.15 443.52 136.73 447.57 136.87 451.59 136.5 
M 428.44 146.24 432.02 145.67 435.39 144.07 439.1 142.76 444.51 141.31 447.86 140.44 451.58 140.09 
M 425.45 148.57 432.71 147.73 439.39 146.35 441.76 145.7 443.99 144.77 
M 425.61 150.24 436.02 149.95 442.24 148.95 444.45 147.56 447.09 146.25 451.76 145.26 455.99 144.61 459.01 145.45 
M 425.84 151.8 429.48 152.18 433.53 152.37 436.34 152.03 439.74 152.23 442.88 151.26 
M 421.38 152.6 429.54 154.39 433.59 154.43 436.94 154.2 440.25 154.52 443.46 153.58 
M 429.54 156.08 433.61 155.86 439.63 155.78 442.81 155.02 446.02 155.56 449.58 155.37 
M 425.46 157.59 441.88 157.83 444.55 158.25 448.25 159.38 
M 429.45 160.02 433.34 159.88 439.74 161.15 442.17 161.3 445.09 162.13 447.85 163.46 452.11 162.67 456.33 162.97 
M 421.38 158.99 425.76 161.32 429.61 162.37 436.51 163.24 439.39 164.03 441.83 164.9 445.23 165.68 447.8 166.52 452.25 166.09 
M 432.92 164.93 436.01 165.31 439.52 166.28 
M 429.58 165.66 433.12 167.25 435.94 167.74 439.65 169.02 
M 421.38 163.79 429.4 167.49 432.96 169.36 438.63 171.77 444.73 173.69 446.97 173.85 
M 421.38 165.39 432.62 171.17 435.24 172.45 438 173.52 444.29 176.78 451.74 179.86 454.65 182.54 457.98 184.4 461.36 185.26 
M 425.71 169.39 429.08 171.46 432.01 172.98 438.17 176.83 443.42 179.23 446.01 180.17 449.57 181.85 452.31 184.44 
M 428.73 173.3 431.51 175.04 434 177.22 440.47 180.82 443.2 181.53 446.53 182.73 452.78 186.69 454.93 189.39 456.31 191.58 459.53 193.29 469.56 199.89 
M 384.69 130.71 391.12 129.81 397.76 129.12 412.14 128.84 415.25 128.29 420.81 126.51 423.55 125.93 425.72 126.47 426.8 128.09 426.6 130.49 425.07 132.95 422.57 134.83 419.76 135.8 416.93 136.51 413.98 137.11 409.15 137.81 
M 399.51 133.18 408.64 133.15 412.14 132.99 415.25 132.43 420.81 130.66 423.55 130.07 424.64 130.34 
M 38.72 172.28 41.23 168.9 44.1 165.6 47.92 161.81 52.98 157.65 58.88 153.18 64.69 149.16 70.24 146.43 76.35 143.87 90.09 137.64 96.13 135.07 102.55 132.82 120.9 127.35 125.23 126.44 127.79 126.14 132.93 130.32 133.89 133.62 133.53 136.62 132.92 139.57 132.2 142.49 131 145.31 130.03 148.18 129.27 151.09 129.07 154.13 128.37 157.06 127.47 159.94 127.19 162.96 125.02 168.64 125.13 171.75 124.7 174.74 123.33 177.52 121.28 180.15 115.55 182.09 104.24 182.39 95.79 182.41 69.55 181.97 59.62 181.12 55.36 180.55 
M 107.96 151.86 106.39 156.87 105.01 159.2 103.38 161.28 102.46 163.21 101.28 164.7 100.6 165.94 101.82 168.98 102.26 172.14 99.43 173.48 80.67 174.55 70.27 175.44 65.45 175.61 61.03 175.36 
M 53.36 180.93 47.4 180.07 37.29 178.1 35.06 176.84 34.44 174.35 35.87 172.28 38.4 172.13 47.8 176.64 55.48 180.1 
M 49.08 185.74 34.33 195.4 31.67 195.45 29.99 193.54 30.33 190.92 32.45 189.31 34.71 188.23 44.09 184.69 46.58 183.91 52.57 181.29 
M 54.96 180.2 55.08 180.15 
M 79.6 166.44 77.82 163.94 76.94 160.99 77.07 157.91 78.18 155.05 80.17 152.7 82.82 151.12 85.83 150.49 88.88 150.87 91.65 152.22 93.82 154.4 95.17 157.17 95.55 160.22 94.92 163.23 93.35 165.87 91 167.86 88.13 168.98 85.06 169.11 82.11 168.23 79.6 166.44 
M 92.3 155.49 93.38 157.7 93.69 160.14 93.18 162.55 91.92 164.67 90.04 166.26 87.75 167.15 85.29 167.25 82.93 166.55 80.93 165.12 
M 82.79 161.7 82.08 160.7 81.73 159.52 81.78 158.29 82.23 157.14 83.02 156.2 84.08 155.57 85.28 155.32 86.5 155.47 87.61 156.01 88.48 156.88 89.02 157.99 89.17 159.21 88.92 160.41 88.29 161.47 87.35 162.27 86.2 162.72 84.98 162.77 83.8 162.41 82.79 161.7 
M 82.32 160.56 84.33 162.57 
M 83.05 158.49 86.97 162.42 
M 83.62 156.27 88.49 161.14 
M 87.14 156.99 89.15 159 
M 39.03 171.76 40.28 173.01 
M 41.77 168.29 45.23 171.74 
M 44.7 165 50.46 170.77 
M 47.82 161.91 51.64 165.73 
M 51.22 159.1 55.42 163.3 
M 54.69 156.35 58.94 160.6 
M 58.23 153.67 63.24 158.69 
M 61.88 151.11 67.38 156.61 
M 65.66 148.68 70.19 153.2 
M 69.83 146.63 73.1 149.91 
M 74.19 144.78 78.63 149.22 
M 78.51 142.89 83.9 148.27 
M 82.78 140.94 87.15 145.31 
M 87.06 139.01 93.1 145.05 
M 91.37 137.1 97.1 142.83 
M 95.73 135.24 100.47 139.99 
M 100.3 133.61 104.54 137.84 
M 104.98 132.07 109.96 137.05 
M 109.73 130.61 113.84 134.72 
M 114.5 129.16 119.38 134.04 
M 119.34 127.79 124.05 132.49 
M 124.39 126.62 129.46 131.69 
M 116.37 134.23 115.19 133.92 106.53 133.04 105.71 132.62 105.55 131.89 
M 84.51 150.42 86.79 149.49 87.34 149.44 87.49 149.71 
M 120.63 157.65 119.88 155.62 119.38 153.44 118.87 152.05 118.85 151.56 119.05 150.75 119.42 150.2 120.6 149.64 
M 67.79 168.25 69.12 171.01 69.06 172.22 68.27 173.56 67.14 174.41 65.44 176.1 
M 111.14 138.51 106.47 135.9 105.02 134.81 104.65 134.09 
M 114.86 155.48 114.82 153.55 115.05 152.55 115.77 150.99 116.82 149.7 118.14 148.84 118.79 148.76 120.44 148.95 121.21 148.72 
M 126.38 136.95 128.54 135.96 130.36 134.56 130.79 133.37 131.05 131.1 
M 128.43 156.8 125.33 154.33 124.27 153.02 
M 103.26 172.77 103.24 172 103.65 171.41 104.39 171.02 106.23 170.59 107.15 170.2 
M 96.89 140.09 98.41 138.81 99.28 137.78 99.65 136.57 99.81 135.15 100.19 133.65 
M 91.97 144.24 92.03 143.05 92.84 141.15 93.33 140.57 93.77 140.32 95.19 139.85 96.18 139.29 97.92 136.78 
M 86.55 150.58 86.93 150.17 87.38 150.2 
M 121.45 131.07 123.15 131.63 127.71 131.56 129.66 130.9 130.58 129.68 
M 98.33 157.36 97.31 157.31 96.77 157.02 96.32 156.46 94.97 154.27 93.04 151.85 92.76 151 92.84 149.86 
M 103.97 132.47 103.96 132.39 
M 58.7 177.43 58.37 177.76 57.79 177.93 56.98 177.82 56.57 177.54 53.99 173.99 52.78 171.71 
M 72.79 161.36 72.76 162.58 73.12 165.74 71.97 169.41 71.57 170.19 69.03 173.08 
M 78.13 144.33 78.46 143.83 79.17 143.46 80.45 143.58 81.42 143.99 83.18 146.05 84.5 148.35 
M 106.9 141.16 106.04 140.18 105.62 139.45 105.24 138.38 104.95 136.67 104.57 136.05 
M 107.01 132.91 105.96 132.67 105.68 132.26 105.64 131.87 
M 79.12 165.76 77.62 166.18 76.73 166.62 74.99 168.75 73.22 170.57 71.28 171.69 69.4 173.11 
M 86.94 174.12 85.82 174.74 85.43 175.39 85.38 175.83 85.79 177.75 85.43 180.09 
M 133.2 137.7 131.79 134.28 131.21 130.45 
M 105.9 146.59 105.01 143.12 104.16 141.09 103.23 139.53 103.35 138.65 
M 48.27 165.17 46.04 163.67 
M 105.29 147.24 104.84 146.15 104.43 143.65 103.85 141.38 102.73 139.55 102.87 138.68 
M 42.47 168.22 42.06 167.95 
M 89.45 172.84 88.05 173.16 86.01 173.97 85.48 174.38 85.05 175.54 85.63 177.52 
M 44.69 166.23 44.08 165.62 
M 100.59 171.15 99.3 171.03 97.3 171.22 96.15 171.09 94.1 170.18 92.22 169.85 90.42 169.98 89.46 170.21 88.65 170.6 87.43 171.67 
M 116.29 177.58 117.97 177.94 120.65 177.46 121.55 176.99 122.25 176.33 124.9 173.34 
M 128.4 156.93 126.4 155.41 124.41 153.44 123.05 150.51 123.08 149.12 
M 99.95 159.87 97.42 159.36 95.32 158.32 
M 123.06 171.44 123.73 168.67 123.79 165.96 124.14 163.76 123.15 160.59 121.58 158.07 121.16 157.08 
M 101.5 162.84 101.65 163.78 102.99 164.54 
M 69.65 150.35 70.53 151.14 70.83 151.76 71.16 153.74 70.63 156.23 69.96 158.4 69.92 159.02 
M 90.64 147.69 91.43 146.13 91.81 142.98 92.67 141.04 93.21 140.44 95.7 139.48 96.5 138.79 
M 110.53 133.18 106.45 132.92 105.72 132.49 105.6 131.88 
M 65.74 157.05 66.01 156.65 66.09 156.1 65.97 154.77 66.14 153.76 66.61 152.58 66.96 152.26 67.59 152.04 
M 95.28 142.18 95.82 140.77 98.71 137.7 99.2 136.43 99.75 133.8 
M 124.68 161.76 124.18 160.28 123.34 158.66 120.52 154.32 119.59 151.89 120.02 150.47 
M 114.48 148.63 115.62 148.26 119.52 147.49 120.46 147.06 120.94 146.02 121.38 143.77 122.3 142.42 
M 110.45 162.8 109.7 162.95 109.5 162.69 
M 85.24 150.62 86.8 149.63 
M 100.75 152.49 99.38 145.42 99.38 141.95 99.75 140.67 
M 122.08 127.1 127.93 130.35 128.42 130.5 129.37 130.38 130.44 129.38 
M 101.63 176.91 98.83 175.09 96.24 174.08 92.03 170.99 91.08 170.58 90.05 170.47 89.06 170.68 87.2 172.2 
M 60.6 156.28 60.93 154.76 61.87 152.1 61.79 151.17 
M 106.27 175.69 105.59 175.01 105.11 174.23 104.77 173.58 104.58 172.54 104.84 171.58 106.85 170.45 
M 62.81 177.22 61.7 179.95 61.47 181.29 
M 116.96 160.72 116.21 160.26 115.14 160.21 114.82 160.64 114.07 162.53 113.47 163.19 111.29 164.52 
M 68.01 176.03 66.45 176.62 65.63 177.47 64.35 179.86 63.98 181.53 
M 58.95 179.54 58.28 180.94 
M 51.15 178.17 50.48 174.89 50.09 173.85 49.34 172.68 46.25 168.82 43.32 166.49 
M 110.83 154.31 111.49 152.41 111.93 151.71 113.06 150.62 113.78 150.19 117.76 148.52 120.31 148.23 
M 125.82 140.66 126.77 140.55 128.63 141.08 130.74 141.43 131.74 142.05 132.12 142.68 
M 128.47 156.63 125.53 154.37 124.42 153.09 123.11 150.21 123.37 148.27 
M 113.89 156.25 114.01 153.24 115.09 150.85 117.65 148.89 119.02 148.61 120.65 148.72 
M 87.32 146.26 88.05 146.43 88.68 146.38 89.63 145.89 90.3 145.04 91.66 141.66 92.24 140.77 92.84 140.16 94.43 139.4 
M 120.56 140.5 121.13 140.8 121.95 140.85 124.37 140.52 126.24 140 127.28 140.2 
M 86.36 150.56 86.91 150.02 87.23 149.94 87.43 150.19 87.36 150.68 
M 87.72 143.53 88.43 143.3 89.09 142.78 90.7 140.18 92.23 138.75 93.62 137.87 94.92 136.77 96.05 135.62 96.49 134.95 
M 114.45 159.11 114.06 158.39 113.71 156.63 113.76 153.59 114.81 151.08 115.92 150.1 
M 100.73 163.62 99.48 164.07 96.16 164.67 95.12 165.09 94.35 165.9 93.22 167.68 91.82 168.78 
M 115.29 164.3 113.52 165.94 112.18 167.73 111.43 168.38 110.2 169.21 109.48 169.26 109.36 168.92 
M 93.17 172.73 91.26 171.22 90.16 170.92 89.14 170.95 87.23 172.41 85.58 173.27 85.09 173.75 84.84 174.35 
M 96.05 141.65 97.32 140.22 99.53 138.46 100.19 136.76 100.34 135.05 100.67 133.86 
M 111.59 132.07 110.85 131.9 108.49 131.78 106.48 132.08 106.02 131.75 
M 80.16 166.84 76.89 167.74 76.09 168.19 73.7 170.4 70.87 172.04 69.23 173.27 
M 86.1 175.38 85.91 176.15 85.97 177.96 85.45 179.89 85.52 180.84 86.07 182.13 
M 102.57 182.19 101.52 181.47 99.7 180.69 98 179.69 94.46 178.16 89.85 175.16 
M 127.42 148.2 127.86 147.36 128.89 146.28 130.94 145.48 
M 43.35 167.38 42.9 166.99 
M 124.38 170.97 124.64 167.11 125.34 164.12 125.23 163.26 124.46 160.92 123.72 159.24 121.86 156.19 
M 130.8 141.9 131.31 142.26 131.91 143.16 
M 91.14 176.68 89.45 175.9 88.58 176.11 86.03 179.74 85.73 180.76 
M 84.28 170.01 82.4 170.82 80.68 171.26 77.46 171.6 73.42 172.25 
M 106.76 167.94 107.63 167.99 108.54 167.83 
M 45.02 174.88 44.12 172.9 43.57 172.18 42.92 171.57 40.39 170 
M 77.72 166.73 76.83 167.11 73.14 170.7 71.17 171.8 67.76 174.24 
M 58.49 177.86 57.95 178.1 57.11 178.09 56.26 177.5 54.21 174.47 52.36 171.2 51.51 170.31 
M 78.58 149.85 80.57 148.21 81.72 147.96 82.39 148.12 84.21 149.31 84.94 149.46 86.59 149.3 
M 63.85 158.99 66.55 157.93 67.14 157.36 67.33 156.43 67.15 154.74 67.28 153.66 
M 123.38 126.83 125.3 127.78 
M 72.95 181.86 72.02 182.05 
M 53.45 170.51 52.19 169.15 50.46 168.5 48.84 167.37 
M 98.3 177.3 95.75 176.06 94.46 175.24 91.23 172.27 90.39 171.79 89.4 171.64 85.6 173.5 
M 89.7 142.64 91.39 140.09 92.16 139.43 93.49 138.64 94.63 137.59 96.26 135.79 96.84 134.82 
M 85.17 169.3 81.5 170.54 76.46 171.19 74.49 171.89 73.47 172.06 
M 96.81 177.13 94.24 175.68 92.75 174.56 91.7 173.49 90.09 172.49 89.2 172.47 88.42 172.67 85.8 173.74 85.31 174.17 
M 101.29 150.35 100.19 147.53 99.6 145.49 99.49 142.05 99.6 141.37 99.79 140.78 100.59 139.69 
M 97.67 152.96 97.31 152.1 97.12 150.74 97.33 146.35 97.16 143.92 97.28 142.94 97.78 141.28 98.09 140.65 98.58 140.16 
M 79.97 142.22 81.74 143.22 82.67 144.85 
M 97.49 172.46 95.08 171.65 94.1 170.88 93.18 170.44 92.23 170.15 90.38 170.09 89.39 170.31 88.61 170.71 86.93 172.15 85.8 172.79 
M 73.64 150.61 74.32 151.29 74.58 152.19 74.4 153.42 72.73 159.51 72.5 162.02 72.66 164.38 
M 67.04 170.75 68.31 171.72 68.65 172.21 68.63 172.72 67.98 173.72 65.94 175.49 64.9 176.7 64.16 178.03 
M 106.14 155.71 107.76 154.94 108.26 154.41 109.3 152.15 110.02 151.33 113.88 149.38 
M 56.41 181.64 51.99 185.86 50.16 188.09 49.5 189.34 48.61 192.14 48 196.64 48.02 199.68 48.52 202.7 50.14 208.7 48.05 202.84 47.21 199.79 46.86 196.64 47 191.86 47.67 188.65 48.3 187.07 50.12 184.28 54.21 179.45 
M 55.36 180.56 56.31 180.83 
M 45.4 179.69 45.91 181.07 46.01 180.16 46.22 179.84 
M 36.06 177.41 35.81 179.51 36.51 181.6 36.41 179.68 37.19 178.04 
M 55.3 180.55 56.22 180.04 
M 48.89 182.96 49.15 182.17 49.63 182.63 
M 42.8 185.19 43 183.8 43.3 184.67 43.54 184.9 
M 36.72 187.47 36.61 187.11 36.84 185.43 37.16 186.81 37.48 187.18 
M 30.91 190.48 30.47 189.25 30.69 187.06 31.02 188.95 31.73 189.86 
M 39.39 192.05 47.21 190.56 
M 49.23 190.08 53.75 188.8 57.73 187.4 61.68 185.74 69.55 181.97 
M 44.65 191.12 44.59 190.41 45 189.99 46.25 189.49 47.45 189.48 
M 56.28 185.95 57.41 187.51 
M 133.84 134.06 137.66 137.89 
M 133.39 125.32 141.31 133.25 
M 140.63 124.28 152.88 136.53 
M 148.02 123.39 159.81 135.17 
M 155.43 122.51 167.22 134.3 
M 162.84 121.63 169.99 128.79 
M 170.19 120.7 178.03 128.54 
M 177.53 119.75 185.59 127.82 
M 184.91 118.85 196.27 130.21 
M 192.36 118.02 204.39 130.04 
M 199.91 117.28 209.01 126.38 
M 207.32 116.4 219.26 128.35 
M 214.76 115.56 225.65 126.45 
M 222.48 114.99 233.95 126.46 
M 230.51 114.74 240.77 124.99 
M 238.77 114.71 246.14 122.08 
M 247.08 114.74 254.74 122.39 
M 255.52 114.89 263.16 122.53 
M 264.14 115.22 274.61 125.7 
M 273.19 115.99 285.34 128.14 
M 282.23 116.75 291.33 125.85 
M 291.29 117.52 299.27 125.5 
M 300.41 118.36 310.19 128.13 
M 309.87 119.53 320.67 130.33 
M 319.44 120.81 326.7 128.08 
M 329.15 122.23 341.31 134.39 
M 338.83 123.63 349.01 133.81 
M 348.28 124.8 355.15 131.67 
M 357.79 126.02 364.71 132.94 
M 367.48 127.43 377.16 137.11 
M 377.58 129.24 386.64 138.3 
M 388.37 131.75 396.81 140.19 
M 399.99 135.08 411.33 146.42 
M 411.79 138.59 418.68 145.48 
M 423.52 142.04 430.59 149.11 
M 121.12 180.2 122 181.98 
M 123.37 177.45 126.69 184.1 
M 124.91 173.29 129.19 181.84 
M 125.54 167.3 130.61 177.45 
M 127.11 163.18 131.03 171.04 
M 128.1 157.92 128.84 159.4 
M 129.76 161.25 131.03 163.79 
M 131.21 156.88 133.06 160.59 
M 145.1 184.67 146.47 187.41 
M 136.38 159.98 137.02 161.25 
M 149.22 185.67 150.39 188 
M 153.57 187.11 154.31 188.6 
M 157.91 188.54 158.25 189.22 
M 131.55 128.58 132.08 129.64 
M 133.63 132.74 139.89 145.25 
M 134.93 128.08 139.56 137.35 
M 140.49 139.2 143.27 144.76 
M 144.19 146.61 145.12 148.46 
M 136.92 124.81 148.5 147.97 
M 140.3 124.32 150.02 143.77 
M 150.95 145.62 151.88 147.47 
M 143.72 123.91 154.37 145.21 
M 147.14 123.5 155.94 141.1 
M 156.86 142.95 157.79 144.8 
M 150.56 123.09 158.43 138.84 
M 159.36 140.69 160.28 142.54 
M 153.98 122.68 156.29 127.31 
M 157.22 129.16 159.07 132.87 
M 157.86 123.2 160.64 128.76 
M 181.08 147.89 181.52 148.76 
M 182.67 122.07 183.6 123.93 
M 184.7 118.88 188.87 127.21 
M 188.11 118.46 192.28 126.79 
M 191.56 118.1 193.88 122.73 
M 195.02 117.76 199.18 126.1 
M 198.47 117.42 201.71 123.9 
M 201.92 117.06 204.23 121.7 
M 205.33 116.65 206.72 119.43 
M 213.21 132.4 215.06 136.1 
M 210.14 119.01 211.07 120.86 
M 212.92 124.57 219.39 137.51 
M 213.56 118.59 214.48 120.44 
M 215.41 122.3 222.57 136.61 
M 216.1 116.42 227.21 138.65 
M 230.92 146.06 234.07 152.37 
M 219.12 115.22 230.24 137.45 
M 234.87 146.72 237.65 152.28 
M 238.57 154.13 243.21 163.39 
M 221.2 112.13 233.24 136.22 
M 240.65 151.04 241.58 152.89 
M 242.51 154.75 245.29 160.3 
M 226.06 114.6 228.84 120.16 
M 229.77 122.02 234.4 131.28 
M 245.52 153.51 246.44 155.36 
M 230 115.22 234.63 124.49 
M 235.55 126.34 236.48 128.19 
M 234.86 117.69 235.78 119.55 
M 255.24 158.45 258.94 165.86 
M 230.45 101.64 231.38 103.49 
M 232.31 105.34 234.16 109.05 
M 256.39 153.51 257.32 155.36 
M 258.24 157.22 261.02 162.78 
M 261.95 164.63 263.8 168.33 
M 230.22 93.92 231.61 96.7 
M 232.53 98.55 239.02 111.52 
M 259.4 152.28 267.73 168.95 
M 277.92 189.33 278.85 191.18 
M 232.76 91.76 242.03 110.28 
M 242.95 112.14 243.88 113.99 
M 259.63 145.48 261.48 149.19 
M 262.4 151.04 269.82 165.86 
M 270.74 167.72 272.59 171.42 
M 278.15 182.54 284.36 194.94 
M 234.84 88.67 239.48 97.93 
M 240.4 99.79 245.96 110.9 
M 263.56 146.1 274.68 168.33 
M 278.38 175.74 282.09 183.16 
M 283.01 185.01 288 194.97 
M 237.85 87.43 243.41 98.55 
M 244.34 100.4 247.11 105.96 
M 248.04 107.81 248.97 109.67 
M 249.89 111.52 251.75 115.22 
M 265.64 143.01 273.98 159.69 
M 274.9 161.54 275.83 163.39 
M 276.76 165.25 277.68 167.1 
M 281.39 174.51 291.56 194.85 
M 239.01 82.49 239.93 84.35 
M 240.86 86.2 244.56 93.61 
M 245.49 95.46 252.9 110.28 
M 268.65 141.78 277.91 160.31 
M 278.84 162.16 280.69 165.86 
M 284.4 173.28 295.12 194.72 
M 242.94 83.11 247.57 92.38 
M 248.5 94.23 251.28 99.79 
M 252.2 101.64 255.91 109.05 
M 272.58 142.4 282.77 162.78 
M 286.48 170.19 287.4 172.04 
M 288.33 173.89 298.68 194.59 
M 246.87 83.73 257.06 104.11 
M 257.99 105.96 258.92 107.81 
M 276.52 143.02 277.44 144.87 
M 280.22 150.43 283.93 157.84 
M 288.56 167.1 289.48 168.95 
M 290.41 170.81 291.34 172.66 
M 292.26 174.51 302.16 194.3 
M 249.88 82.5 258.22 99.17 
M 260.07 102.87 261 104.73 
M 292.49 167.72 303.61 189.95 
M 304.53 191.8 305.31 193.36 
M 246.87 69.22 249.18 73.85 
M 257.52 90.52 259.37 94.23 
M 260.3 96.08 261.23 97.93 
M 296.43 168.34 297.35 170.19 
M 298.28 172.04 307.54 190.57 
M 248.95 66.13 250.34 68.91 
M 252.19 72.61 253.12 74.47 
M 273.5 115.23 274.42 117.08 
M 302.21 172.66 307.77 183.78 
M 308.7 185.63 309.62 187.48 
M 251.03 63.04 257.98 76.94 
M 272.8 106.58 273.72 108.43 
M 275.58 112.14 278.36 117.7 
M 308.93 178.84 309.85 180.69 
M 315.48 191.95 316.02 193.02 
M 253.11 59.96 260.98 75.7 
M 273.03 99.79 275.81 105.35 
M 276.73 107.2 278.58 110.9 
M 279.51 112.76 283.22 120.17 
M 294.33 142.4 295.26 144.25 
M 296.18 146.1 297.11 147.96 
M 319.18 192.09 319.48 192.69 
M 255.19 56.87 262.14 70.76 
M 263.07 72.62 263.99 74.47 
M 276.96 100.41 285.3 117.08 
M 294.56 135.61 302.9 152.28 
M 321.42 189.33 322.94 192.36 
M 257.27 53.78 264.34 67.91 
M 279.96 99.15 291.07 121.38 
M 295.7 130.64 298.48 136.2 
M 299.41 138.05 304.97 149.17 
M 323.49 186.22 324.42 188.07 
M 325.35 189.93 326.35 191.93 
M 259.35 50.69 260.83 53.64 
M 288.89 109.76 292.13 116.25 
M 298.61 129.21 299.54 131.07 
M 300.47 132.92 308.8 149.59 
M 317.14 166.27 319.92 171.83 
M 320.85 173.68 322.7 177.38 
M 261.43 47.61 261.67 48.08 
M 293.93 112.61 294.38 113.5 
M 300.79 126.32 310.98 146.7 
M 311.91 148.55 312.83 150.4 
M 318.39 161.52 325.8 176.34 
M 305.53 128.55 316.65 150.78 
M 319.43 156.34 320.35 158.19 
M 321.28 160.05 325.91 169.31 
M 326.84 171.16 330.54 178.57 
M 307.54 125.32 318.66 147.56 
M 322.36 154.97 323.29 156.82 
M 324.22 158.67 332.55 175.35 
M 312.33 127.65 316.97 136.92 
M 317.89 138.77 320.67 144.33 
M 325.3 153.59 336.42 175.82 
M 317.13 129.99 318.98 133.7 
M 321.76 139.26 322.69 141.11 
M 329.17 154.08 334.73 165.2 
M 335.66 167.05 336.58 168.9 
M 332.13 152.75 333.99 156.46 
M 334.91 158.31 336.77 162.02 
M 337.69 163.87 338.62 165.72 
M 347.77 155.03 351.48 162.44 
M 347.99 148.22 353.55 159.34 
M 354.48 161.19 355.4 163.05 
M 347.23 139.45 349.08 143.15 
M 350.01 145 357.42 159.83 
M 358.34 161.68 360.2 165.38 
M 369.47 183.92 369.93 184.85 
M 351.09 139.92 352.02 141.78 
M 352.94 143.63 364.06 165.86 
M 372.59 182.91 373.24 184.22 
M 347.08 124.65 347.54 125.58 
M 355.88 142.25 367 164.48 
M 375.33 181.16 376.5 183.49 
M 350.95 125.14 351.41 126.07 
M 356.97 137.19 369.94 163.12 
M 354.82 125.64 355.29 126.57 
M 360.85 137.68 370.11 156.21 
M 371.04 158.06 372.89 161.77 
M 363.79 136.33 374.91 158.56 
M 362.6 126.69 363.06 127.62 
M 368.62 138.73 371.4 144.29 
M 372.33 146.14 373.25 148 
M 374.18 149.85 376.03 153.55 
M 371.62 137.47 372.54 139.33 
M 375.32 144.88 377.17 148.59 
M 378.1 150.44 379.03 152.3 
M 387.92 148.33 389.77 152.04 
M 389.93 145.1 393.63 152.51 
M 394.56 154.36 397.34 159.92 
M 390.8 139.59 392.65 143.3 
M 393.58 145.15 401.92 161.83 
M 393.17 137.08 395.02 140.79 
M 395.95 142.64 403.36 157.46 
M 404.28 159.31 405.21 161.16 
M 409.84 170.43 411.34 173.42 
M 395.54 134.57 409.43 162.36 
M 412.21 167.91 414.46 172.41 
M 399.78 135.8 408.12 152.48 
M 409.04 154.33 411.82 159.89 
M 414.6 165.45 416.45 169.15 
M 417.25 170.74 417.58 171.4 
M 401.82 132.64 402.97 134.93 
M 403.58 136.15 415.16 159.31 
M 417.01 163.01 420.7 170.4 
M 406.55 134.85 407.23 136.2 
M 407.84 137.42 416.64 155.02 
M 418.49 158.73 423.83 169.4 
M 409.97 134.43 411.01 136.52 
M 412.09 138.68 417.19 148.87 
M 424.6 163.69 426.96 168.41 
M 416.81 140.86 418.66 144.56 
M 427 161.24 430.08 167.41 
M 413.76 127.52 414.23 128.44 
M 431.25 162.49 433.21 166.42 
M 416.99 126.72 417.45 127.65 
M 420.11 125.71 420.57 126.64 
M 431.4 148.29 433.2 151.89 
M 233.33 291.39 229.04 297.7 
M 233.33 291.39 233.84 297.7 
M 230.57 295.6 233.57 295.6 
M 237.23 291.39 235.34 297.7 
M 242.3 293.5 241.04 297.7 
M 242.03 294.39 241.61 293.8 241.1 293.5 240.2 293.5 239.51 293.8 238.73 294.39 238.16 295.3 237.98 295.89 238.01 296.8 238.43 297.39 238.94 297.7 239.84 297.7 240.53 297.39 241.31 296.8 
M 250.73 294.39 250.31 293.8 249.8 293.5 248.9 293.5 248.21 293.8 247.43 294.39 246.86 295.3 246.68 295.89 246.71 296.8 247.13 297.39 247.64 297.7 248.54 297.7 249.23 297.39 250.01 296.8 
M 253.73 291.39 251.84 297.7 
M 252.74 294.7 253.91 293.8 254.6 293.5 255.5 293.5 256.01 293.8 256.03 294.7 255.14 297.7 
M 258.8 293.5 257.53 297.7 
M 258.26 295.3 258.83 294.39 259.61 293.8 260.3 293.5 261.2 293.5 
M 262.1 293.5 262.64 297.7 
M 265.7 293.5 261.68 298.89 260.89 299.5 259.9 299.8 
M 270.52 294.39 270.11 293.8 269.6 293.5 268.7 293.5 268.01 293.8 267.23 294.39 266.66 295.3 266.48 295.89 266.51 296.8 266.93 297.39 267.44 297.7 268.33 297.7 269.02 297.39 269.81 296.8 
M 272.06 295.3 275.66 295.3 275.83 294.7 275.72 294.1 275 293.5 274.1 293.5 273.41 293.8 272.63 294.39 272.06 295.3 271.88 295.89 271.91 296.8 272.33 297.39 272.83 297.7 273.74 297.7 274.43 297.39 275.2 296.8 
M 278.3 293.5 276.41 299.8 
M 278.02 294.39 278.81 293.8 279.5 293.5 280.39 293.5 280.91 293.8 281.33 294.39 281.36 295.3 281.18 295.89 280.61 296.8 279.83 297.39 279.14 297.7 278.24 297.7 277.73 297.39 277.31 296.8 
M 286.73 294.39 286.61 293.8 285.8 293.5 284.89 293.5 283.91 293.8 283.43 294.39 283.55 295 284.06 295.3 285.47 295.6 285.98 295.89 286.01 296.8 285.52 297.39 284.54 297.7 283.64 297.7 282.83 297.39 282.7 296.8 
M 288.32 297.1 287.93 297.39 288.14 297.7 288.52 297.39 288.32 297.1 
"/></svg>
