<svg xmlns="http://www.w3.org/2000/svg" width="520" height="320"><rect x="0" y="0" width="520" height="320" fill="floralwhite"/><rect x="10" y="10" width="500" height="300" stroke="black" stroke-width="1" fill="none"/><path stroke="black" stroke-width="1" fill="none" stroke-linecap="round" stroke-linejoin="round" d="
M 150.15 88.47 167.54 86.34 176.26 85.53 184.97 85.18 193.69 85.26 202.41 85.71 219.84 86.92 228.56 87.29 254.72 87.78 263.43 87.75 272.15 88.1 280.87 89.09 307.02 93.37 324.46 95.8 341.9 98.54 350.61 100.12 359.33 102.09 368.05 104.89 368.89 105.55 
M 368.89 195.25 368.05 195.71 359.33 197.34 350.61 198.49 307.02 202.83 298.31 203.82 280.87 206.46 272.15 207.25 263.43 207.53 246 207.64 228.56 208.1 211.13 207.83 193.69 208.32 184.97 208.34 176.26 207.89 167.54 206.96 158.85 205.63 
M 153.35 92.51 154.04 92.31 157.6 90.51 157.6 89.4 154.73 87.95 
M 156.91 93.52 159.8 93.04 163.5 91.81 165.88 90.42 165.88 89.56 163.5 88.17 160.69 87.24 
M 157.88 105.02 162.69 102.88 165.5 100.57 165.5 99.14 162.69 96.84 158.33 94.8 154.92 94 
M 159.49 111.49 159.49 110.35 159.09 109.84 
M 164.49 100.32 166.55 99.85 170.57 98.04 173.15 95.98 173.15 94.71 170.57 92.65 166.55 90.84 165.03 90.5 
M 160.46 94.69 168.67 93.97 
M 160.51 95.66 168.23 95.01 
M 161.34 96.43 168.79 96.91 
M 160.96 116.09 164.61 115 169.28 112.21 172.29 109.04 172.29 107.09 169.28 103.92 164.49 101.1 
M 158.25 106.45 166.83 105.55 
M 158.71 108.31 166.92 108.43 
M 159.06 109.73 166.85 110.25 
M 162.77 134.89 166.83 131.8 169.88 127.72 169.88 125.19 166.83 121.1 162.09 117.49 160.73 116.97 
M 164.72 153.22 166.32 150.36 166.32 147.36 164.45 144.03 
M 171.85 93.42 172.76 93.16 175.29 91.73 176.92 90.11 176.92 89.11 175.29 87.49 172.76 86.06 172.22 85.9 
M 168.78 88.8 173.91 88.56 
M 169.14 89.37 173.82 89.96 
M 168.99 90.07 173.97 90.79 
M 171.21 109.21 173.23 108.29 176.02 105.72 177.82 102.82 177.82 101.03 176.02 98.13 173.23 95.56 172.23 95.1 
M 169.06 100.42 174.83 99.78 
M 169.3 101.88 174.49 101.61 
M 168.57 103.66 174.84 104.32 
M 169.5 128.46 172.49 127.17 176.33 123.87 178.8 120.13 178.8 117.82 176.33 114.08 172.49 110.78 171.21 110.23 
M 166.6 116.88 174.27 116.39 
M 166.31 118.84 174.13 119.01 
M 166.39 121.15 174.56 122.2 
M 166.75 150.57 169.56 149.08 173.17 145.26 175.49 140.94 175.49 138.26 173.17 133.94 169.56 130.12 168.79 129.71 
M 163.83 137.09 171.06 136.04 
M 163.92 139.7 171.48 139.89 
M 164.15 141.85 170.94 142.73 
M 167.49 152.55 166.41 151.13 165.35 150.43 
M 165.81 188.68 167.21 188.44 
M 177.18 99.99 178.83 99.4 181.8 97.27 183.72 94.86 183.72 93.37 181.8 90.96 178.83 88.84 176.51 88.01 
M 174.25 92.7 180.16 92.14 
M 173.99 94.19 180.42 93.86 
M 174.38 94.97 179.93 96.22 
M 177.91 118.99 179.84 118.11 183.32 114.91 185.57 111.28 185.57 109.04 183.32 105.41 179.84 102.21 177.18 100.99 
M 174.37 108.08 181.75 107.66 
M 174.64 110.32 181.91 110.58 
M 174.59 112.32 181.53 112.9 
M 176.54 141.34 179.69 139.89 183.73 136.19 186.33 132 186.33 129.4 183.73 125.21 179.69 121.51 177.91 120.69 
M 173.72 128.94 181.8 127.28 
M 173.29 130.55 182.02 130.67 
M 173.55 132.61 181.73 134.16 
M 181.97 148.1 180.86 146.12 176.74 141.94 174.66 140.89 
M 170.45 150.3 173.88 149.66 
M 181.77 90.33 183.56 89.75 185.85 88.29 187.32 86.62 187.32 85.59 186.97 85.2 
M 179.82 85.54 180.69 85.35 
M 179.65 86.32 184.64 86.19 
M 179.85 87.35 185 87.06 
M 184.12 106.47 186.53 103.35 188.02 99.9 188.02 97.76 186.53 94.31 184.22 91.26 182.59 90.19 
M 182.27 96.72 185.05 96.03 
M 180.96 98.89 185.5 99.12 
M 180.38 100.3 185.31 101.52 
M 185.51 132.09 187.6 130.57 190.27 126.68 192 122.27 192 119.54 190.27 115.13 187.6 111.24 185.51 109.72 
M 190.67 148.32 192.51 144.65 192.51 141.98 190.36 137.68 187.01 133.88 185.4 132.97 
M 187.53 97.04 189.65 96.17 192.37 93.95 194.13 91.43 194.13 89.87 192.37 87.35 189.77 85.22 
M 185.41 89.38 190.83 89.06 
M 185.33 91.05 191.1 90.37 
M 185.31 91.97 190.65 92.48 
M 191.04 116.63 194.08 112.95 195.89 108.93 195.89 106.44 194.08 102.42 191.26 98.87 189.05 97.48 
M 191.74 142.76 193.78 141.47 197.06 137.33 199.18 132.64 199.18 129.73 197.06 125.04 193.78 120.9 191.38 119.39 
M 195.96 147.32 193.06 144.09 191.74 143.35 
M 192.65 86.71 194.36 86.13 195.52 85.35 
M 194.2 102.94 195.05 102.4 197.34 99.49 198.82 96.19 198.82 94.16 197.34 90.86 195.05 87.95 193.26 86.82 
M 197.17 125.62 198.8 122.27 200.17 117.34 200.17 114.29 198.8 109.36 196.68 105.01 195.03 103.31 
M 204.26 152.47 204.9 151.43 206.71 146.29 206.71 143.12 204.9 137.98 202.1 133.45 199.91 131.68 
M 198.29 92.77 199.95 92.07 202.63 89.8 204.36 87.23 204.36 85.85 
M 199.68 113.24 201.1 112.25 203.74 108.56 205.44 104.39 205.44 101.81 203.74 97.64 201.1 93.95 199.06 92.53 
M 205.4 139.25 207.9 135.22 209.78 129.89 209.78 126.6 207.9 121.28 204.99 116.58 202.72 114.74 
M 212.66 161.76 214.36 157.88 214.36 154.6 212.03 149.3 208.42 144.61 206.06 143.09 
M 205.48 153.15 209.87 152.09 
M 208.49 156.45 209.92 156.42 
M 204.83 99.84 206.04 99.03 208.24 96.1 209.65 92.78 209.65 90.73 208.24 87.41 207.22 86.06 
M 206.18 119.03 207.45 116.39 208.86 111.24 208.86 108.06 207.45 102.91 205.66 99.19 
M 213.52 157.07 214.41 156.15 217 150.78 218.67 144.7 218.67 140.93 217 134.85 214.41 129.48 212.39 127.38 
M 210.08 139.33 215.56 138.02 
M 210.8 142.4 215.4 142.42 
M 210.71 146.31 216.01 147.86 
M 221.24 171.65 221.24 168.64 219.19 163.6 216 159.14 213.52 157.41 
M 217.13 166.24 217.24 166.21 
M 217.38 189.77 216.51 187.57 216.2 187.13 
M 208.36 87.89 209.99 87.25 211.16 86.34 
M 208.66 109.16 210.83 107.66 213.61 103.82 215.4 99.46 215.4 96.77 213.61 92.42 210.83 88.57 209.3 87.51 
M 217.37 136.16 219.24 132.82 221.12 126.92 221.12 123.27 219.24 117.38 216.32 112.17 214.04 110.14 
M 212.01 122.39 217.29 120.28 
M 212.25 125.1 218.04 124.96 
M 211.68 128.06 212.74 128.36 
M 213.67 128.62 217.94 129.82 
M 220.5 170.67 222.58 169.07 225.88 163.99 228 158.22 228 154.65 225.88 148.89 222.58 143.8 220 141.82 
M 217.82 153.11 223.93 151.64 
M 217.17 156.68 224.17 156.68 
M 217.76 159.43 224.32 161.11 
M 226.06 189.94 226.58 189.3 228.92 184.3 228.92 181.21 226.58 176.22 226.25 175.82 
M 224.51 173.69 222.97 171.81 220.5 170.31 
M 220.52 179.72 224.55 179.28 
M 218.64 182.61 224.35 182.98 
M 217.56 185.42 224.87 186.14 
M 213.37 92.49 214.22 91.99 216.61 89.19 217.79 86.78 
M 210.62 86.5 215.17 87.43 
M 217.89 115.56 218.85 113.59 220.46 107.8 220.46 104.22 218.85 98.43 216.36 93.32 214.46 91.37 
M 214.09 102.77 217.77 101.85 
M 212.81 106.13 217.67 106.06 
M 212.68 109.32 217.24 110.36 
M 227.24 156.89 227.72 156.33 230.18 150.53 231.77 143.96 231.77 139.89 230.18 133.32 227.72 127.52 225.79 125.26 
M 223.63 138.84 228.48 136.87 
M 223.61 141.94 228.7 141.86 
M 223.88 145.21 228.97 146.61 
M 228.3 184.4 230.46 182.55 233.21 177.82 234.99 172.47 234.99 169.15 233.21 163.8 230.46 159.07 228.3 157.22 
M 225.81 167.8 231.54 166.91 
M 226.14 170.59 231.88 171.18 
M 226.23 173.38 232.1 175.22 
M 233.12 189.9 229.99 185.7 228.08 184.42 
M 220.17 106.33 222.66 104.82 225.85 100.93 227.91 96.54 227.91 93.81 225.85 89.42 223.95 87.09 
M 217.44 93.26 224.4 91.53 
M 217.71 95.25 224.45 95.3 
M 218.16 97.56 224.37 98.69 
M 229.98 133.46 231.48 130.77 233.4 124.72 233.4 120.97 231.48 114.92 228.5 109.57 226.18 107.48 
M 223.61 119.57 229.81 117.88 
M 223.67 122.71 230.23 122.61 
M 224.2 125.91 226.1 126.35 
M 226.99 126.55 229.55 127.13 
M 234.36 169.1 235.21 168.31 238.13 162.97 240.01 156.92 240.01 153.17 238.13 147.12 235.21 141.77 232.93 139.68 
M 241 189.74 242.98 184.94 242.98 181.71 240.83 176.49 237.49 171.89 234.89 170.09 
M 227.18 91.87 228.21 91.37 231.18 88.53 231.87 87.36 
M 231.34 115.24 232.98 112.42 234.78 107.01 234.78 103.65 232.98 98.23 230.19 93.45 228.01 91.58 
M 225.49 102.74 231.49 101.16 
M 226.24 105.25 231.73 105.3 
M 226.1 108.26 226.7 108.37 
M 227.56 108.54 231.78 109.38 
M 239.19 149.6 240.36 146.55 241.75 140.11 241.75 136.12 240.36 129.67 238.19 123.98 236.49 121.76 
M 242.21 182.96 242.96 182.13 245.29 176.97 246.79 171.13 246.79 167.51 245.29 161.67 242.96 156.51 241.15 154.49 
M 247.08 189.63 244.83 186.27 242.57 184.58 
M 234.6 105.78 237.31 104.37 240.79 100.75 243.03 96.66 243.03 94.13 240.79 90.03 238.35 87.5 
M 240.7 131.15 243.12 127.22 245.05 121.74 245.05 118.34 243.12 112.86 240.14 108.02 237.81 106.14 
M 245.43 162.51 247.56 158.26 249.32 152.14 249.32 148.34 247.56 142.21 244.84 136.8 242.72 134.69 
M 252.33 189.6 252.73 188.93 254.69 183.17 254.69 179.6 252.73 173.84 249.69 168.75 247.32 166.77 
M 242.23 94.68 244.42 93.63 247.49 90.71 249.28 87.7 
M 244.36 115.45 247.37 111.36 249.15 106.94 249.15 104.21 247.37 99.79 244.62 95.89 242.46 94.36 
M 246.91 141.5 248.24 138.52 249.67 132.89 249.67 129.4 248.24 123.76 246.01 118.78 244.36 116.93 
M 252.17 173.44 253.15 171.01 254.67 164.42 254.67 160.34 253.15 153.76 250.8 147.94 248.96 145.67 
M 261.23 189.57 258.6 184.3 256.6 182.33 
M 249.2 105.11 251.9 103.85 255.35 100.61 257.58 96.94 257.58 94.67 255.35 91 251.84 87.74 
M 249.57 129.93 252.05 128.22 255.22 123.85 257.26 118.9 257.26 115.84 255.22 110.89 252.05 106.52 249.57 104.82 
M 254.12 160.01 255.06 159.14 257.97 153.74 259.84 147.64 259.84 143.86 257.97 137.75 255.06 132.36 252.79 130.25 
M 262.54 189.57 264.1 186.63 265.99 180.44 265.99 176.6 264.1 170.41 261.18 164.94 258.9 162.8 
M 256.51 175.25 262.16 174.21 
M 256.85 178.14 262.19 178.68 
M 256.6 181.46 262.69 183.54 
M 256.78 93.93 258.8 93.02 261.59 90.5 263.33 87.75 
M 254.17 88.22 260.34 89.29 
M 256.53 114.37 257.96 113.48 260.85 109.86 262.72 105.77 262.72 103.24 260.85 99.15 257.96 95.54 256.78 94.8 
M 253.66 102.29 259.21 101.07 
M 253.27 104.79 258.94 104.73 
M 253.52 106.33 259.47 107.44 
M 258.59 139.45 260.64 135.66 262.38 130.01 262.38 126.52 260.64 120.87 257.94 115.89 256.53 114.58 
M 254.17 125.74 259.12 124.35 
M 253.52 127.93 258.91 128.46 
M 254.3 131.62 258.84 132.79 
M 265.12 172.85 266.39 169.78 267.95 163.23 267.95 159.17 266.39 152.61 263.98 146.82 262.09 144.57 
M 260.35 158.23 265 155.98 
M 260.3 161.04 265.01 161.53 
M 260.66 164.64 264.92 166.04 
M 273.13 189.32 272.24 185.93 269.82 180.69 267.94 178.64 
M 268.78 189.45 270.91 188.8 
M 263.45 105.01 266.12 103.76 269.54 100.57 271.74 96.95 271.74 94.71 269.54 91.09 266.03 87.85 
M 260.65 93.9 268.08 93.04 
M 261.15 95.68 267.93 95.63 
M 260.72 97.28 267.84 98.66 
M 263.49 129.1 266.27 127.46 269.83 123.26 272.13 118.51 272.13 115.57 269.83 110.82 266.27 106.62 263.49 104.98 
M 260.91 114.31 268.25 113.08 
M 260.53 117.35 267.71 117.24 
M 260.42 119.13 268.25 120.52 
M 267.39 157.06 267.79 156.74 270.98 151.57 273.04 145.7 273.04 142.08 270.98 136.22 267.79 131.04 265.3 129.02 
M 262.83 140.92 269.56 139.58 
M 262.95 143.81 269.5 144.15 
M 263.91 147.37 268.93 148.29 
M 273.24 189.09 275.9 184.08 277.8 177.79 277.8 173.9 275.9 167.62 272.95 162.07 270.65 159.91 
M 268.4 172.76 274.61 171.17 
M 268.09 175.94 274.51 175.79 
M 268.24 178.62 274.43 180.7 
M 270.95 93.67 272.11 93.04 274.77 90.16 275.65 88.5 
M 271.25 88.07 273.63 88.6 
M 271.43 116.99 273.82 115.52 276.87 111.74 278.84 107.47 278.84 104.82 276.87 100.54 273.82 96.76 271.43 95.29 
M 268.72 103.72 275.42 103.08 
M 268.86 105.97 275.36 106.47 
M 268.72 108.7 275.04 109.7 
M 272.31 141.02 273.5 140.21 276.74 135.79 278.83 130.79 278.83 127.7 276.74 122.7 273.5 118.28 271.31 116.79 
M 268.6 126.95 275.34 125.6 
M 268.61 129.43 275.09 129.2 
M 268.74 132.05 274.83 132.66 
M 275.42 167.32 276.38 165.03 277.85 158.78 277.85 154.92 276.38 148.68 274.09 143.17 272.41 141.14 
M 270.66 153.83 275.33 152.44 
M 270.42 156.56 275.52 157.04 
M 270.38 160.31 271.4 160.65 
M 271.92 160.83 275.07 161.89 
M 286.46 188.28 285.1 183.27 282.39 177.61 280.28 175.41 
M 278.14 105.85 280.4 104.67 283.76 101.15 285.93 97.17 285.93 94.71 283.76 90.73 282.43 89.34 
M 279.2 130.5 281.99 128.89 285.57 124.77 287.87 120.1 287.87 117.21 285.57 112.54 281.99 108.42 279.2 106.81 
M 278.81 157.07 281.45 155.18 284.84 150.32 287.02 144.81 287.02 141.41 284.84 135.9 281.45 131.04 279.57 129.69 
M 276.16 140.05 283.47 138.57 
M 276.51 143.21 283.34 143.07 
M 276.08 145.91 283.14 147.21 
M 286.22 186.17 288.65 181.98 290.75 175.62 290.75 171.68 288.65 165.31 285.39 159.7 282.84 157.5 
M 285.16 93.14 285.48 92.95 287.84 90.18 
M 287.04 118.24 288.44 117.17 291.17 113.01 292.93 108.31 292.93 105.39 291.17 100.68 288.44 96.53 286.31 94.9 
M 288.11 144.29 290.36 142.68 293.24 138.54 295.1 133.85 295.1 130.95 293.24 126.26 290.36 122.12 288.11 120.5 
M 287.7 164.3 288.98 161.92 290.83 155.83 290.83 152.07 288.98 145.98 287.29 142.83 
M 301.27 186.83 300.27 183.33 297.28 177.39 294.95 175.07 
M 292.3 105.17 294.16 104.19 297.53 100.66 299.7 96.67 299.7 94.2 298.48 91.97 
M 294.43 129.3 295.55 128.57 298.74 124.42 300.8 119.71 300.8 116.8 298.74 112.09 295.55 107.93 293.05 106.31 
M 292.94 157.19 295.66 155.27 299.16 150.33 301.41 144.74 301.41 141.28 299.16 135.69 295.66 130.75 294.43 129.88 
M 301.5 186.38 304.09 182.46 306.5 176.03 306.5 172.05 304.09 165.62 300.35 159.94 297.43 157.72 
M 298.92 92.96 300.33 92.27 
M 300.07 114.77 300.72 114.3 303.32 110.49 305 106.18 305 103.51 303.32 99.2 300.72 95.39 298.92 94.08 
M 297.04 102.95 302.26 101.15 
M 296.64 104.68 302.27 105.03 
M 296.48 107.12 301.98 107.91 
M 300.6 140.53 301.02 140.15 303.45 135.63 305.02 130.5 305.02 127.33 303.45 122.21 301.02 117.69 300.07 116.81 
M 305.22 167.9 306.82 165.24 309.04 158.77 309.04 154.77 306.82 148.3 303.37 142.59 300.68 140.36 
M 316.16 185.83 315.85 184.85 312.7 179.16 310.24 176.94 
M 305.83 104.5 308.76 103.28 312.52 100.15 314.94 96.61 314.94 94.5 
M 302.98 93.89 306.84 93.34 
M 303.28 95.43 310.65 95.91 
M 302.84 97.03 310.62 98.01 
M 305.52 128.34 308.13 126.71 311.47 122.54 313.63 117.81 313.63 114.89 311.47 110.16 308.13 105.98 305.52 104.36 
M 302.68 113.75 309.38 112.58 
M 302.86 116.4 309.5 116.04 
M 303.02 119.04 309.71 120.09 
M 308.25 157.93 310.29 156.46 313.96 151.16 316.32 145.16 316.32 141.44 313.96 135.44 310.29 130.14 307.43 128.07 
M 304.35 140.51 312.13 139.03 
M 304.34 143.13 311.83 143.58 
M 305.29 146.41 311.63 147.73 
M 320.39 185.57 320.89 184.85 323.45 178.4 323.45 174.41 320.89 167.96 316.93 162.27 313.84 160.05 
M 310.6 172.8 318.5 171.73 
M 310.72 176.37 318.65 176.16 
M 312.83 180.08 319.07 181.14 
M 314.47 94.59 314.82 94.48 
M 312.85 113.9 314.87 112.82 318.11 109.36 320.19 105.45 320.19 103.02 318.11 99.11 314.87 95.65 314.08 95.23 
M 310.08 101.82 316.49 101.02 
M 310.1 104.46 316.64 104.06 
M 310.13 106.64 316.75 107.55 
M 315.22 137.79 317.04 134.68 318.89 129.12 318.89 125.68 317.04 120.12 314.17 115.21 312.85 114.08 
M 309.64 124.84 315.76 123.4 
M 310.15 127.52 315.36 127.25 
M 309.81 130.09 315.23 131.52 
M 322.53 171.94 324.17 169.09 326.41 162.23 326.41 157.98 324.17 151.12 320.7 145.07 317.98 142.7 
M 314.95 156.54 321.99 154.55 
M 315.35 160.38 322.03 160.35 
M 317.98 164.44 322.32 165.6 
M 330.49 184.94 328.9 182.25 326.46 180.17 
M 322.59 106.37 325.86 105.27 330.04 102.45 332.73 99.25 332.73 97.28 332.52 97.03 
M 320.67 129.15 323.76 127.55 327.71 123.44 330.26 118.79 330.26 115.92 327.71 111.27 323.76 107.16 320.67 105.56 
M 317.47 115.31 325.98 114.09 
M 317.41 117.2 325.64 117 
M 317.33 119.49 325.64 120.49 
M 325.61 158.89 326.23 158.46 330.14 153.02 332.66 146.85 332.66 143.04 330.14 136.88 326.23 131.44 323.17 129.31 
M 337.92 184.5 339.37 180.73 339.37 176.82 336.94 170.49 333.18 164.91 330.25 162.74 
M 332.89 98.76 335.7 97.89 336.15 97.61 
M 330.67 117.95 333.43 116.69 336.96 113.46 339.24 109.81 339.24 107.54 336.96 103.88 333.43 100.65 331.77 99.89 
M 331.66 139.53 334.05 136.27 336.34 130.8 336.34 127.42 334.05 121.95 330.51 117.13 
M 338.5 176.11 340.65 172.03 342.69 165.27 342.69 161.08 340.65 154.32 337.5 148.34 335.04 146.01 
M 343.77 184.15 341.52 182.05 
M 340.14 109.84 343.48 108.76 347.75 105.98 350.5 102.84 350.5 100.89 349.68 99.95 
M 338.09 132.32 341.56 130.76 346.01 126.75 348.87 122.22 348.87 119.41 346.01 114.87 341.56 110.87 338.43 109.45 
M 341.96 160.94 342.99 160.3 347.15 155.14 349.83 149.29 349.83 145.68 347.15 139.83 342.99 134.67 339.74 132.66 
M 352.59 183.58 353.46 181.24 353.46 177.52 351.22 171.51 347.75 166.21 345.03 164.14 
M 342.83 176.23 349.33 175.21 
M 342.2 179.48 349.61 178.98 
M 342.75 182.95 348.25 183.88 
M 349.83 101.69 352.79 100.61 
M 347.85 120.66 350.07 119.63 353.78 116.22 356.17 112.35 356.17 109.95 353.78 106.09 350.07 102.67 349.51 102.41 
M 344.64 109.08 351.43 108.44 
M 344.4 111.53 351.61 111.33 
M 344.33 112.98 351.48 114.34 
M 348.87 146.21 349.92 145.62 353.95 141.07 356.54 135.91 356.54 132.72 353.95 127.57 349.92 123.02 347.85 121.84 
M 343.55 131.96 351.89 130.8 
M 343.83 134.26 351.65 134.7 
M 344.68 137.36 351.93 137.93 
M 352.66 175.13 355.01 171.18 357.03 165.19 357.03 161.48 355.01 155.49 351.86 150.2 349.41 148.13 
M 346.73 160.28 353.17 159.02 
M 346.69 162.95 353.55 162.93 
M 347.31 165.97 353.59 167.79 
M 356.62 183.26 356.13 182.29 354.17 180.35 
M 357.61 113.98 360.95 112.81 365.23 109.81 367.99 106.42 367.99 104.87 
M 354.58 103.4 361.39 102.75 
M 354.62 104.99 363.09 105.48 
M 354.46 107.06 362.78 107.91 
M 356.86 137.18 360.45 135.63 365.05 131.64 368.01 127.13 368.01 124.34 365.05 119.82 360.45 115.84 356.86 114.28 
M 353.35 123.33 362.5 122.16 
M 353.4 125.51 363.03 125.96 
M 353.78 127.86 362.4 129.09 
M 357.29 164.49 360.64 162.67 364.92 158.01 367.69 152.72 367.69 149.45 364.92 144.16 360.64 139.5 357.29 137.67 
M 353.81 148.63 362.44 146.99 
M 354.42 151.44 362.35 151.02 
M 353.81 153.46 362.87 154.86 
M 367.02 182.2 367.56 180.9 367.56 177.54 365.31 172.12 361.83 167.34 359.11 165.47 
M 356.83 176.49 363.49 175.39 
M 356.61 179.22 363.36 178.81 
M 356.73 181.67 362.34 182.72 
M 367 105.4 368.13 104.95 
M 366.95 127.64 368.89 126.7 
M 368.89 107.45 367 106.53 
M 366.7 152.65 368.89 151.41 
M 368.89 129.37 366.95 128.28 
M 366.75 179.08 368.89 177.61 
M 368.89 154.96 366.7 153.46 
M 364.05 163.54 368.89 162.57 
M 363.57 166.46 368.89 166.33 
M 363.64 169.1 368.89 170.28 
M 368.59 181.9 366.75 180.35 
M 169.15 201.09 167.75 198.09 163.89 193.38 161.33 191.82 
M 171.18 201.28 172.58 199.2 174.75 193.51 174.75 191.37 
M 164.44 188.91 165.81 188.68 
M 163.92 192.02 171.03 191.7 
M 164.78 195.01 170.88 196.16 
M 173.97 191.27 174.18 191.14 
M 188.55 202.17 188.97 201.55 190.99 196.21 190.9 192.68 
M 180.86 194.2 187.46 194.69 
M 181.45 197.65 187.29 198.27 
M 197.31 202.06 196.35 200.08 192.92 196.04 190.26 194.47 
M 195.52 85.35 195.52 85.35 
M 211.59 201.76 210.81 200.19 207.29 196.16 204.66 194.65 
M 215.33 201.85 216.51 200.16 218.42 195.36 218.42 192.38 217.38 189.77 
M 212.02 191 215.02 190.38 
M 211.07 193.89 214.72 193.97 
M 208.84 196.12 215.06 197.75 
M 211.16 86.34 211.16 86.34 
M 220.14 195.43 222.97 193.71 226.06 189.94 
M 226.43 202.03 225.96 201.12 222.37 197.15 219.56 195.6 
M 217.79 86.78 217.79 86.78 
M 225.19 198.28 231.48 200.14 
M 240.46 201.78 237.29 198.33 234.55 196.83 
M 238.35 87.5 238.35 87.5 
M 254.51 201.57 251.63 198.18 248.98 196.63 
M 249.28 87.7 249.28 87.7 
M 261.96 201.55 262.82 198.57 262.82 195.04 261.23 189.57 
M 255.03 194.18 259.54 192.2 
M 254.65 200.07 260.14 201.22 
M 282.22 200.41 281.91 199.62 278.65 194.89 276.11 193.04 
M 282.43 89.34 282.43 89.34 
M 301.12 197.95 302.19 194.22 302.19 190.06 301.27 186.83 
M 309.3 197.16 307.29 194.37 304.53 192.44 
M 307.68 190.23 314.03 188.35 
M 308.71 196.9 309.63 197.13 
M 317.16 190.22 320.39 185.57 
M 334.05 195.01 334.05 193.59 332.03 187.56 330.49 184.94 
M 333.33 192.42 336.94 187.05 337.92 184.5 
M 348.25 183.88 349.72 184.13 
M 352.79 100.61 352.79 100.61 
M 352.28 191.9 357.68 190.41 
M 359.81 192.5 361.83 191.11 365.31 186.32 367.02 182.2 
M 362.34 182.72 363.57 182.95 
M 368.89 182.39 368.59 181.9 
M 364.91 190.53 368.89 189 
M 209.93 85.4 251.85 33.21 252.52 33.73 212.94 86.46 
M 222.52 86.23 252.18 44.56 252.88 45.04 225.54 87.16 
M 235.14 86.69 254.85 55.14 255.57 55.56 238.16 87.5 
M 247.77 87.02 260.06 65.1 260.82 65.49 250.78 87.72 
M 260.42 87.12 267.67 74.08 268.44 74.44 263.42 87.75 
M 273.09 87.72 276.85 82.3 277.62 82.66 275.97 88.54 
M 279.48 88.47 280.87 89.1 
M 248.5 39.08 247.58 41.31 247.16 43.49 247.52 45.62 247.97 46.67 249.22 48.73 
M 250.1 49.33 249.68 51.64 249.63 52.75 250.05 54.8 251.22 56.62 252.87 58.29 
M 253.79 58.83 253.98 61.27 254.22 62.4 255.16 64.38 256.78 65.97 258.83 67.3 
M 259.78 67.78 260.58 70.21 261.11 71.31 261.76 72.3 262.55 73.14 264.56 74.44 266.95 75.38 
M 267.91 75.83 269.13 78.23 269.84 79.3 270.66 80.23 271.62 81.01 273.88 82.12 276.48 82.84 
M 277.44 83.29 277.13 85.84 277.6 87.17 278.77 88.14 280.38 88.88 
M 248 40.2 247.28 42.41 247.16 43.49 247.52 45.62 248.56 47.7 
M 244.44 45.63 243.8 47.58 243.69 48.54 244.01 50.42 244.93 52.25 
M 240.88 51.05 240.32 52.75 240.23 53.58 240.5 55.21 241.3 56.8 
M 237.31 56.48 236.84 57.91 236.81 59.32 237.67 61.36 
M 233.75 61.9 233.3 63.66 233.49 64.8 234.04 65.91 
M 230.18 67.33 229.83 68.7 229.98 69.59 230.42 70.46 
M 249.85 50.5 249.63 52.75 250.05 54.8 250.55 55.74 252.01 57.47 
M 246.4 56.93 246.21 58.79 246.31 59.66 246.97 61.26 248.18 62.68 
M 242.95 63.37 242.87 65.52 243.4 66.78 244.35 67.9 
M 239.49 69.8 239.44 71.38 239.82 72.29 240.52 73.12 
M 253.86 60.07 254.22 62.4 255.16 64.38 255.9 65.22 257.78 66.65 
M 249.98 69.7 250.47 71.89 251.31 73.05 252.53 73.98 
M 260.16 69.02 261.11 71.31 261.76 72.3 262.55 73.14 263.49 73.85 265.73 74.93 
M 164.73 152.38 180.88 145.37 181.24 146.13 164.7 154.72 
M 164.69 157.27 206.18 144.17 206.45 144.97 164.67 159.96 
M 164.62 162.22 213.9 152.81 214.08 153.64 164.35 164.95 
M 164.13 167.1 223.24 162.85 223.32 163.69 163.96 169.81 
M 163.86 171.82 234.71 175.02 234.68 175.87 163.71 174.56 
M 163.45 176.49 224.61 186.73 224.49 187.57 163.09 179.19 
M 162.83 181.03 217.25 197.04 217.03 197.86 162.38 183.71 
M 162.1 185.39 181.93 194.33 181.6 195.11 161.76 187.78 
M 178.44 147.59 183.48 148.29 188.49 148.49 190.97 148.3 193.44 147.91 195.89 147.34 200.77 145.88 
M 201.11 146.89 201.79 149.2 202.84 151.18 204.46 152.62 205.47 153.15 207.74 153.99 
M 207.96 155.03 209.01 157.64 210.42 159.9 211.33 160.82 212.38 161.61 213.56 162.27 216.16 163.36 
M 216.25 164.42 217.76 167.46 218.63 168.86 219.63 170.14 220.77 171.28 223.46 173.15 226.5 174.65 
M 226.47 175.72 223.66 177.16 221.23 178.95 220.22 180.04 219.37 181.27 218.64 182.61 217.43 185.53 
M 217.27 186.58 214.97 187.83 213.95 188.56 213.08 189.39 212.36 190.34 211.39 192.59 210.82 195.15 
M 210.54 196.18 203.65 194.4 196.71 193.12 193.21 192.77 189.69 192.62 186.15 192.65 179.05 193.03 
M 180.96 147.98 185.99 148.48 188.49 148.49 190.97 148.3 193.44 147.91 198.33 146.64 
M 201.43 148.07 202.25 150.25 202.84 151.18 204.46 152.62 206.58 153.59 
M 184.33 153.78 185.25 155.8 186.3 156.74 187.68 157.37 
M 208.46 156.36 209.65 158.83 210.42 159.9 211.33 160.82 212.38 161.61 214.84 162.84 
M 188.9 160.35 189.67 161.96 190.17 162.65 191.45 163.76 193.04 164.56 
M 216.98 165.96 218.63 168.86 219.63 170.14 220.77 171.28 222.05 172.28 224.95 173.92 
M 194.44 167.78 195.51 169.66 196.16 170.49 197.73 171.88 199.62 172.95 
M 225.04 176.41 222.38 178 221.23 178.95 220.22 180.04 219.37 181.27 218.01 184.05 
M 199.67 175.75 197.94 176.78 197.2 177.4 195.99 178.91 195.11 180.71 
M 216.09 187.19 213.95 188.56 213.08 189.39 212.36 190.34 211.8 191.41 211.08 193.85 
M 193.86 183.94 192.47 184.83 191.9 185.37 191.07 186.69 190.6 188.27 
M 207.1 195.25 200.19 193.67 196.71 193.12 193.21 192.77 189.69 192.62 182.6 192.81 
M 220.9 206.91 227.52 214.81 226.93 215.42 218.79 209.1 
M 208.33 206.93 234.28 238.99 233.64 239.54 206.01 208.91 
M 195.77 207.45 225.98 255.03 225.28 255.5 193.23 209.13 
M 177.63 207.24 181.06 216.96 180.29 217.32 174.88 208.55 
M 226.12 214.79 226.3 219.73 226.98 224.55 227.6 226.88 228.41 229.16 229.4 231.4 231.68 235.79 
M 230.87 236.48 228.17 239 226.97 240.35 225.91 241.78 225.03 243.32 223.78 246.67 222.96 250.28 
M 222.07 250.86 213.58 242.28 209.23 238.12 204.76 234.09 200.17 230.22 190.6 222.91 180.71 215.99 
M 226.18 217.27 226.56 222.16 226.98 224.55 227.6 226.88 228.41 229.16 230.51 233.6 
M 229.49 237.72 226.97 240.35 225.91 241.78 225.03 243.32 224.33 244.95 223.34 248.46 
M 224.48 232.54 222.39 234.71 220.8 237.15 220.22 238.5 219.4 241.39 
M 219.46 227.36 217.82 229.06 216.56 230.99 216.11 232.05 215.46 234.33 
M 214.45 222.18 213.25 223.42 212.33 224.83 211.52 227.27 
M 217.85 246.55 209.23 238.12 204.76 234.09 200.17 230.22 195.44 226.49 185.68 219.42 
M 351.93 197.73 356.13 207.23 355.4 207.65 349.29 199.25 
M 339.32 199.01 343.92 209.25 343.19 209.67 336.68 200.53 
M 326.71 200.26 332.54 212.71 331.81 213.12 324.07 201.77 
M 314.09 201.5 322.07 217.58 321.34 218 311.45 203.02 
M 301.47 202.82 312.88 223.76 312.16 224.19 298.87 204.4 
M 288.92 204.65 304.45 231.97 303.73 232.41 286.33 206.25 
M 276.38 206.26 294.99 242.44 294.24 242.85 273.71 207.72 
M 264.79 206.85 286.92 253.52 286.16 253.9 262.07 208.22 
M 354.79 206.81 352.14 206.05 349.55 205.79 348.29 205.95 347.06 206.3 345.85 206.84 343.46 208.23 
M 342.54 208.76 339.92 208.31 337.42 208.35 336.25 208.65 335.12 209.14 334.04 209.81 331.96 211.46 
M 331.03 211.99 328.45 211.87 326.07 212.22 324.98 212.66 323.97 213.29 323.03 214.08 321.27 215.97 
M 320.35 216.5 317.88 216.71 315.67 217.37 313.86 218.69 313.09 219.58 311.74 221.66 
M 310.83 222.21 308.34 222.96 307.21 223.46 306.2 224.09 305.32 224.87 303.94 226.86 302.9 229.24 
M 301.99 229.79 299.24 231.04 296.86 232.64 295.88 233.64 295.04 234.79 294.32 236.06 293.12 238.82 
M 292.19 239.34 289.67 240.78 288.55 241.6 287.56 242.54 286.73 243.59 285.52 246.06 284.71 248.85 
M 353.46 206.4 350.83 205.83 349.55 205.79 348.29 205.95 347.06 206.3 344.65 207.5 
M 341.22 208.5 338.65 208.24 337.42 208.35 336.25 208.65 335.12 209.14 332.99 210.6 
M 329.73 211.9 327.23 211.96 326.07 212.22 324.98 212.66 323.97 213.29 322.14 214.99 
M 319.1 216.58 316.73 216.96 315.67 217.37 313.86 218.69 312.4 220.59 
M 314.68 211.8 312.45 212.32 311.27 213.17 310.32 214.41 
M 309.56 222.56 307.21 223.46 306.2 224.09 305.32 224.87 304.57 225.8 303.39 228.02 
M 304.08 216.25 302.55 216.83 301.32 217.75 300.83 218.36 300.07 219.8 
M 300.59 230.39 297.99 231.78 296.86 232.64 295.88 233.64 295.04 234.79 293.7 237.41 
M 296.1 224.75 294.1 225.81 293.24 226.48 291.84 228.12 290.81 230.14 
M 291.61 219.11 289.62 220.31 288.64 221.46 287.93 222.86 
M 290.91 240.04 288.55 241.6 287.56 242.54 286.73 243.59 286.05 244.77 285.08 247.44 
M 287.11 234.3 285.17 235.59 284.35 236.36 283.11 238.21 282.31 240.41 
M 283.32 228.56 281.79 229.58 280.6 230.88 280.17 231.64 279.54 233.38 
M 279.53 222.83 277.94 224.02 277.22 225.08 276.77 226.34 
M 368.05 104.89 370.5 103.93 372.9 102.44 375.11 101.3 377.37 99.78 379.72 98.71 386.33 94.37 390.19 92.17 392.41 90.99 394.44 90.46 396.42 88.94 398.29 88.07 406.08 82.93 409.34 81.48 413.33 78.06 414.72 76.42 416.57 74.76 418.66 73.77 420.9 72.12 425.54 70.09 427.78 68.69 429.52 67.24 430.88 65.67 432.79 64.66 434.41 63.5 438.33 62.01 443.34 58.52 446.2 57.33 448.39 56.1 451.78 53.67 455.04 51.03 460.91 46.99 465.18 45.55 466.67 44.65 470.16 41.44 474.63 39.09 475.88 36.29 477.37 35.09 480.2 34.61 483.16 33.58 486.62 32.89 490 30.63 484.3 45.45 485.58 49.15 485.81 51.81 485.42 53.84 485.34 56.18 485.89 59.19 485.1 61.38 483.72 62.98 482.76 64.99 482.55 67.76 482.57 70.76 482.33 73.47 481.71 78.27 480.75 82.72 480.71 91.54 479.71 93.68 478.34 95.45 477.6 97.85 477.07 100.43 476.04 102.44 476.23 108.73 475.16 113.46 473.4 114.33 472.95 116.53 472.94 121.8 471.24 126.58 470.92 129.52 470.82 132.58 470.34 135.12 467.91 138.71 467.58 143.92 467.96 146.86 468.89 150.36 469.14 153.16 470.01 155.97 469.92 157.24 472.14 164.23 472.46 167.36 472.37 178.22 473.07 181.08 472.96 183.12 473.11 187.41 476.56 200.19 477 202.96 476.35 206.96 476.18 209.12 477.07 211.84 477.45 213.88 478.38 216.48 481.12 225.75 484.37 233.79 484.91 236.52 484.59 238.55 484.63 240.93 485.11 243.76 485.3 246.3 485.05 250.75 485.51 253.56 485.4 255.8 486.94 279.36 485.41 277.09 482.7 274.83 479.89 273.36 476.12 270.98 473.28 269.81 470.94 268.47 469.29 266.17 467.3 264.08 464.74 263.39 462.25 262.31 459.48 259.1 458.35 255.95 456.89 254.17 453.84 253.57 451.64 251.85 449.62 251.47 442.85 245.76 440.21 244.26 436.88 242.85 434.45 240.83 431.74 239.37 430.27 238.38 429.07 236.7 426.49 236.01 421.75 233.44 414.63 228.76 412.21 227.37 409.71 226.37 407.87 224.55 404.19 221.71 402.53 219.69 400.56 217.91 397.77 215.82 395.38 214.54 392.82 212.66 390.35 211.21 388.6 209.98 386.64 208.17 383.94 206.85 375.26 201.09 368.05 195.71 
M 370.79 108.72 373.03 107.31 377.59 105.05 382.49 101.95 387.28 100.83 389.67 99.55 391.42 98.23 396.02 95.64 398.19 94.76 400.52 93.4 402.99 92.32 405.13 90.62 407.35 89.23 409.97 88.23 412.6 86.43 416.17 83.22 418.55 82.01 420.73 81.56 423.18 80.64 427.19 78.29 430 77.92 436.32 72.57 443.78 68.25 446.09 67.63 447.92 66.63 449.04 65.75 451.06 64.51 454.02 63.89 456.42 63.01 460.81 58.97 463.37 58.15 465.95 56.75 468.54 54.97 470.54 54.24 472.66 53.85 474.7 51.66 
M 375.93 111.41 378.41 110.78 380.22 109.79 388.27 106.08 390.62 104.78 393.15 104.16 397.08 101.48 399.5 100.76 401.64 99.66 404.28 98.62 406.55 97.39 408.72 95.84 414.14 94.4 416.96 93.21 420.65 89.72 422.4 88.88 424.62 88.19 427.36 86.53 430.29 85.42 433.03 84.18 435.02 82.86 436.98 82.1 437.83 82.4 
M 376.35 116.65 378.56 115.65 381.19 114.97 383.39 114.19 385.76 112.79 393.53 109.66 395.7 108.93 398.3 108.47 400.83 107.66 403.11 106.09 405.39 105.13 407.82 104.45 410.49 103.4 412.91 102.95 415.88 101.35 418.17 99.74 420.82 99.46 423.05 99.75 423.57 98.48 424.99 96.96 428.23 96.27 433.49 92.79 435.68 91.7 439.45 91.75 441.25 91.28 444.46 90.07 449.4 87.87 452.32 85.83 455.18 85.26 457.34 84.24 460.4 81.8 464.54 79.5 469.71 78.09 471.63 76.43 
M 376.22 121.84 380.78 119.94 391.6 116.77 393.53 115.49 396.04 114.56 398.98 114.64 401.53 113.78 406.24 111.07 408.05 109.7 410.9 109.29 413.92 109.69 419.59 107.61 422.03 107.49 428.84 106.18 430.97 103.96 432.95 102.75 439.94 100.48 442.68 100.55 444.63 99.5 447.01 97.9 450.16 97.23 454.63 95.51 
M 371.01 127.64 373.91 127.36 376.31 126.72 378.59 126.01 380.99 124.82 383.38 124.25 386.17 123.84 389.13 122.65 391.7 121.9 393.87 121.52 399.05 119.65 404.15 119.02 412.34 117.32 414.88 117.36 422.53 115.19 424.91 113.3 427.18 112.6 433.22 112.59 435.44 112.97 437.34 111.77 438.97 110.05 441.85 109.92 444.52 109.5 449.45 107.26 450.2 106.06 453.18 105.1 461.2 101.75 463.93 102.71 466.56 102.68 469.64 103.18 473.5 101.19 
M 374.03 132.28 379.11 131.27 381.19 130.49 389.55 128.45 394.29 127.03 399.44 127.47 401.6 127.25 404.32 126.44 407.13 125.99 413.4 125.33 420.52 123.37 423.07 122.19 425.96 120.47 428.28 119.53 
M 376.89 136.56 379.36 136.3 384.37 135.23 386.73 135.33 392.63 135.02 397.44 133.62 402.29 132.97 404.28 132.85 407.87 133.25 410.59 132.86 412.82 132.11 416 131.76 418.59 131.27 424.21 129.72 425.7 128.99 428.1 128.16 430.69 127.98 433.97 128.55 436.05 128.01 438.34 127.75 441.29 127.72 449.34 127.18 451.14 125.54 453.8 125.59 457.4 124.53 459.46 124.54 461.34 124.24 464.06 124.22 467.24 124.9 470.74 125.24 
M 368.05 141.22 371.39 141.78 374.2 141.76 379.48 141.45 382.28 140.92 384.88 140.83 389.82 140.07 392.23 140.01 395.48 140.43 399.96 140.37 402.63 139.84 405.31 139.62 408.18 139.71 414.32 138.44 419.99 137.53 422.13 137.87 423.22 137.6 
M 371.17 146.38 374.11 146.72 379.51 146.35 384.64 146.51 389.81 145.42 392.25 145.37 395.16 145.67 397.95 146.25 400.5 146.3 403.11 146.66 405.35 147.36 407.56 147.44 410.69 146.7 414.81 145.07 421.62 143.35 
M 371.11 150.72 373.8 151.08 382.04 151.08 387.62 151.52 390.45 151.48 392.94 151.7 397.43 153.02 400.21 153.48 402.57 153.59 407.66 151.78 410.43 152.25 417.33 152.85 419.78 152.72 421.24 153.17 
M 370.93 155.62 373.67 156.28 381.76 156.16 384.58 156.26 393.33 157.37 400.55 159.26 403.16 159.08 405.75 159.29 407.75 158.96 410.25 159.91 413.5 160.34 416.98 160.31 419.56 160.47 421.6 161.22 423.06 161.21 425.61 161.5 427.98 162.47 430.95 162.88 434.62 162.49 436.5 162.56 438 161.57 440.1 161.47 442.71 161.85 446.91 163.32 448.97 163.4 451.91 164.22 455.41 163.41 458.84 163.14 
M 370.97 160.63 373.39 161.36 376.2 161.78 379.18 161.73 384.91 162.16 388.04 162.84 390.64 163.07 395.81 164.04 400.72 164.71 405.38 166.43 410.39 167.38 413.08 166.78 421.22 167.25 427.52 168.69 431.06 168.91 439.64 170.52 443.68 169.38 446.13 169.55 450.21 170.83 450.93 171.52 454.08 171.96 456.98 173.45 459.98 174.51 
M 368.05 163.92 373.29 165.75 376.26 166.5 382.05 167.43 384.74 168.14 387.11 168.53 389.61 169.71 392.24 170.52 399.31 171.2 402.28 171.93 405.59 173.18 408.15 173.44 412.94 175.06 415.61 174.62 417.84 175.13 421.39 175.43 423.59 176.13 425.45 177.34 427.82 177.9 430.82 178.05 433.49 176.93 439.27 177.56 442.22 178.37 
M 376.07 171.47 384.19 173.42 386.51 174.31 388.93 174.74 394.13 176.18 396.84 177.39 399.46 179.05 401.89 179.75 406.43 180.5 409.19 181.34 412.39 182.08 415.63 181.74 418.54 181.7 420.92 182.69 423.97 186.4 426.58 186.91 430.09 187.34 431.78 188.13 433.68 189.32 440.09 189.58 444.59 190.81 448.64 190.88 451.28 191.15 453.41 191.75 460.11 195 
M 368.05 173 371.03 174.44 373.77 175.3 376.56 176.53 381.67 177.75 386.21 179.43 388.98 180.31 391.87 181.02 397.32 183.17 402.38 184.72 403.8 186.15 405.88 187.4 411 189.17 416.95 189.14 419.96 190.34 422.55 192.6 424.4 193.7 
M 373.79 180.26 378.84 182.48 380.82 183.72 383.33 184.78 388.78 185.98 391.39 186.74 393.82 187.69 396.47 189.45 398.98 190.03 404.29 193.25 409.14 194.36 414.73 196.44 417.07 198.26 419.33 198.96 421.67 199.19 423.63 199.64 
M 375.93 186.61 380.67 189.14 383.2 190.12 387.97 191.57 390.27 192.54 395.54 195.99 401.18 198.78 405.58 199.93 410.1 202.78 414.61 203.76 426.08 209.68 429.31 210.87 432.02 211.65 435.93 213.95 
M 370.91 188.56 375.87 191.53 378.49 192.75 385.05 196.58 389.58 198.82 392 200.24 394.79 201.36 397.24 202.78 402.29 205.11 404 206.94 406.22 207.66 410.48 209.81 414.19 213.64 416.34 214.28 419.32 215.67 422.31 216.56 424.09 218.65 426.38 219.5 429.07 220.93 430.3 222.31 432.14 222.68 434.82 224.04 438.31 224.36 442.09 225.9 444.54 227.67 
M 373.22 194.91 378.13 197.51 380.12 198.98 384.29 201.32 389.39 204.6 391.73 206.52 393.51 207.42 395.9 208.15 398.09 209.87 400.05 210.72 402.42 212.34 404.71 213.65 407.16 215.74 411.4 218.73 413.09 220.16 416.96 222.16 419.47 223.68 422.18 225.85 425.7 227.33 428.13 229.05 430.01 230 433.25 232.26 435.69 233.35 438.5 233.89 441.21 235 442.52 236.52 444.92 237.4 447.04 238.68 
M 307.02 93.37 310.12 99.34 320.86 85.79 323.48 84.95 324.63 82.63 326.38 81.35 328.61 80.8 330.81 79.93 333.44 79.42 335.83 78.29 337.97 76.88 339.5 74.87 344.79 73.94 347.17 73.22 348.2 74.94 348.95 77.76 351.05 79.84 354.21 81.87 355.8 85.17 356.72 87.81 356.81 90.17 356.29 106.61 350.61 100.12 
M 311.21 93.97 313.37 93.54 316.95 90.38 318.89 88.27 
M 315.39 94.56 318.41 93.96 319.85 92.49 
M 319.58 95.13 322.79 94.56 324.7 92.79 327.02 84.97 328.08 84.11 
M 323.76 95.71 326.14 95.28 327.46 93.77 328.83 90.89 331.91 86.19 
M 327.94 96.33 329.57 96 332.29 92.26 335.99 86.36 336.72 84.3 337.42 82.98 
M 332.12 96.97 333.93 96.4 335.34 94.3 337.06 92.54 340.64 87.79 342.76 85.56 343.15 83.37 343.12 79.35 
M 336.29 97.63 338.48 96.73 340.05 94.95 341.68 93.1 343.22 90.98 345.33 88.81 346.8 86.87 347.54 84.86 
M 340.46 98.31 342.65 97.74 344.9 96.27 346.22 94.52 346.75 92.65 347.89 90.85 
M 344.62 99.04 347.27 98.99 348.87 97.33 349.94 95.47 351.3 93.82 352.97 92.1 
M 73.05 155.46 74.59 150.4 76.66 145.69 79.22 141.09 82.76 136.56 88.08 131.31 93.58 126.61 100.12 121.49 111.9 111.36 127.9 98.59 132.88 95.21 137.57 92.52 141.73 90.55 145.41 89.22 148.43 88.49 150.11 88.43 154.8 94.33 156.69 100.39 159.76 112.56 161.1 118.66 161.96 130.99 164.41 143.21 164.76 149.38 164.67 161.79 164.04 168.04 163.75 174.26 162.91 180.52 161.86 186.8 160.68 199.29 158.85 205.65 147.7 205.63 139.41 205.17 132.03 204.19 125.08 202.73 118.73 201.13 112.85 199.07 107.29 196.34 102.02 193.38 
M 99.66 191.95 97.11 190.39 92.9 187.17 89.41 183.6 86.23 179.64 83.22 175.32 78.01 166.72 
M 139.59 152.34 138.71 156.38 138.59 163.21 138.86 166.56 140.44 174.91 140.59 180.01 133.05 180.6 122.02 181.9 116.57 182.05 111.32 181.84 106.33 180.83 101.54 178.72 
M 100.65 193.08 86.16 175.97 70.92 158.77 70.81 156.75 72.4 155.37 74.73 155.71 76.17 157.34 78.68 160.77 81.23 163.84 90.81 177.83 102.02 193.39 
M 101.64 194.08 97.49 193.71 91.54 192.91 79.21 192 72.9 191.84 64.49 191.31 47.51 189.94 45.57 189.44 44.53 187.5 45.26 185.39 47.08 184.68 53.26 185.67 59.81 186.49 67.94 187.98 78.62 189.27 88.79 190.84 94.69 191.9 98.73 192.81 101.74 193.23 
M 112.88 151.95 109.17 146.74 107.34 140.61 107.61 134.22 109.93 128.26 114.06 123.38 119.56 120.11 125.82 118.8 132.17 119.59 137.91 122.4 142.44 126.92 145.24 132.67 146.04 139.01 144.72 145.27 141.45 150.77 136.57 154.9 130.61 157.23 124.22 157.49 118.09 155.67 112.88 151.95 
M 139.27 129.18 141.52 133.78 142.15 138.85 141.1 143.86 138.48 148.26 134.58 151.56 129.81 153.42 124.7 153.64 119.8 152.18 115.63 149.2 
M 120.49 143.07 119.01 140.99 118.28 138.54 118.38 135.98 119.31 133.6 120.97 131.65 123.16 130.34 125.67 129.81 128.21 130.13 130.5 131.25 132.31 133.06 133.44 135.36 133.75 137.9 133.23 140.4 131.92 142.6 129.97 144.25 127.58 145.18 125.03 145.29 122.58 144.56 120.49 143.07 
M 120.54 142.99 120.95 143.4 
M 121.23 141.4 125.12 145.29 
M 119.26 137.15 127.31 145.2 
M 120.7 136.3 129.02 144.62 
M 124.85 138.18 130.49 143.81 
M 123.9 134.94 131.72 142.77 
M 124.85 133.61 132.64 141.4 
M 125.06 131.54 133.35 139.83 
M 128.33 132.53 133.74 137.94 
M 129.07 130.98 133.43 135.35 
M 83.49 175.71 86.25 178.47 
M 73.12 155.2 73.44 155.52 
M 74.3 151.31 77.91 154.92 
M 75.77 147.71 78.91 150.85 
M 77.43 144.3 80.29 147.16 
M 79.25 141.05 82.98 144.78 
M 81.48 138.21 85.67 142.4 
M 83.84 135.5 88.07 139.73 
M 86.39 132.98 91.18 137.77 
M 89.01 130.52 93.83 135.35 
M 91.74 128.18 96.34 132.79 
M 94.5 125.88 97.73 129.11 
M 97.35 123.66 101.48 127.79 
M 100.19 121.43 105.01 126.25 
M 102.9 119.07 107.83 123.99 
M 105.62 116.72 110.03 121.12 
M 108.35 114.38 111.96 117.98 
M 111.09 112.05 114.84 115.79 
M 113.87 109.76 116.45 112.33 
M 116.66 107.48 120.82 111.63 
M 119.52 105.26 123.41 109.15 
M 122.38 103.05 125.89 106.56 
M 125.19 100.79 128.29 103.89 
M 127.99 98.52 132.87 103.41 
M 131.01 96.48 134.62 100.08 
M 134.11 94.5 136.95 97.35 
M 137.34 92.66 142.14 97.46 
M 140.76 91.01 144.07 94.32 
M 144.4 89.58 148.25 93.43 
M 148.39 88.5 151.51 91.62 
M 86.9 136.42 88.46 135.02 89 134.76 89.45 134.86 
M 104.72 117.57 104.62 117.58 
M 109.99 115.52 109.25 114.77 108.79 114.01 
M 88.45 169.73 87.74 170.15 85.78 170.58 
M 146.55 161.42 148.5 159.54 149.81 158.86 151.79 158.21 152.28 157.85 152.97 156.91 154.27 155.71 
M 134.65 111.79 134.36 111.25 134.35 110.13 134.75 109.35 135.44 108.67 135.71 108.11 135.84 106.87 135.67 105.81 
M 156.5 200.82 153.63 202.94 149.22 204.75 147.76 204.74 
M 146.75 158.04 148.51 157.33 150.65 156.95 151.85 156.52 154.18 154.94 154.75 154.09 
M 155.35 121.26 154.15 120.58 151.77 120.31 151.11 119.84 150.47 118.9 
M 150.61 113.79 150.33 113.25 150.45 112.7 152.44 110.42 
M 80.58 152.73 79.73 152.74 79.16 152.38 78.12 148.46 
M 143.96 178.13 142.52 173.38 140.22 170.39 139.5 168.99 
M 95.97 157.55 97.13 158.2 98.15 159.44 100.14 161.29 100.49 162.56 100.06 163.84 
M 147.26 167.44 146.45 166.3 146.23 164.33 146.32 163.05 146.75 161.82 147.44 160.81 148.39 159.94 149.68 159.24 
M 103.13 121.3 100.76 120.93 
M 118.79 173.97 119.05 173.86 119 173.49 118.18 172.28 115.77 170.54 
M 142.2 205.26 142.11 205.32 
M 88.26 153.9 88.13 153.73 87.85 153.78 
M 103.74 177.62 103.15 177.17 102.63 175.68 102.6 175.12 102.99 173.54 
M 120.28 119.96 119.99 119.58 
M 94.01 166 96.41 167.93 96.99 167.96 97.52 167.54 97.76 167.09 
M 152.88 124.1 153.49 123.35 154 122.37 153.81 121.27 153.27 120.8 151.45 120.21 150.82 119.51 
M 121.72 106.14 120.83 104.24 
M 159.92 201.05 160.17 201.06 
M 123.69 173.23 125.54 175.87 128.26 177.98 
M 121.21 196.52 121.91 195.62 122.09 195.05 122.15 193.19 121.86 190.77 122.1 189.7 122.73 188.47 122.71 187.96 
M 155.34 109.71 156.02 109.33 156.53 108.78 158.06 105.73 
M 117.06 186.74 113.06 185.52 107.21 182.88 106.42 181.83 106.36 180.79 
M 152.91 193.43 150.2 191.79 147.91 188.62 
M 113.23 195.92 112.54 195.16 109.96 193.21 108.16 192.18 106.56 191.74 105.81 191.71 102.47 191.94 
M 122.28 187.96 122.05 187.3 121.29 186.52 118.35 184.5 115.6 183.03 
M 142.14 102.42 140.94 103.87 140.14 105.39 
M 141.94 161.66 142.6 159.89 144.68 157.19 144.63 156.91 144.35 156.7 
M 89.1 130.44 90.2 130.56 
M 112.3 174.4 108.72 174.29 106.33 174.89 105.65 174.92 
M 128.32 181.53 130.39 183.99 132.36 185.92 133.03 187.24 
M 135.09 113.62 134.3 113.38 132.39 113.2 130.49 113.35 129.56 112.53 
M 111.08 150.04 111.24 149.65 
M 86.44 197.65 85.63 202.74 83.85 210.14 83.45 212.52 83.37 214.9 83.65 217.23 84.36 219.44 85.52 221.41 87.14 222.98 89.14 223.96 91.37 224.25 93.63 223.91 95.75 222.98 97.57 221.54 98.99 219.68 100 217.53 100.63 215.21 100.86 212.82 100.64 210.43 99.95 208.14 98.82 206.02 97.29 204.16 95.4 202.65 93.26 201.41 88.72 199.35 71.71 194.53 69.23 194.11 66.73 193.92 61.69 193.96 56.69 194.6 51.85 196.02 47.15 197.89 37.88 202.01 49.41 196.73 54.16 194.93 56.61 194.24 59.12 193.77 64.2 193.35 69.31 193.48 71.84 193.85 81.66 196.48 86.6 197.63 89.07 198.35 91.46 199.3 96.07 201.64 98.17 203.25 99.91 205.27 101.21 207.6 102.03 210.15 102.34 212.81 102.14 215.47 101.5 218.06 100.4 220.52 98.78 222.71 96.66 224.47 94.15 225.62 91.41 226.1 88.61 225.78 86.03 224.59 83.96 222.67 82.49 220.31 81.59 217.71 81.2 215.02 81.24 212.33 81.62 209.7 83.25 202.28 83.92 197.33 
M 87.02 197.49 86.98 197.74 
M 86.83 198.75 86.05 204.93 85.97 207.35 86.18 209.71 86.8 212 87.68 214.22 88.89 216.27 90.39 218.16 95.35 223.16 
M 96.69 224.44 99.4 226.7 101.5 227.95 106.02 230.05 108.33 230.91 110.7 231.49 115.64 231.96 118.13 232.03 120.56 231.83 122.91 231.23 125.11 230.22 127.08 228.81 128.7 227.02 129.93 224.91 133.89 215.6 135.03 213.31 138.76 206.66 142.77 200.19 145.23 195.78 147.29 191.16 149.1 186.43 152.2 176.78 150.04 184.07 148.42 188.88 145.56 195.94 143.18 200.44 139.31 206.98 135.74 213.67 134.66 215.95 130.87 225.38 129.6 227.67 127.86 229.67 125.73 231.26 123.35 232.42 120.79 233.12 118.18 233.41 115.6 233.39 110.44 233 107.88 232.43 105.42 231.57 100.69 229.5 98.4 228.2 96.3 226.61 94.85 225.3 
M 93.4 223.94 88.84 219.53 87.16 217.48 85.74 215.19 84.7 212.72 83.92 209.86 
M 84.39 198.12 84.48 197.4 
M 84.51 197.16 84.51 197.14 
M 83.15 202.74 81.71 204.18 79.67 205.87 77.45 207.36 75.05 208.54 72.54 209.42 69.96 210.03 67.35 210.36 64.75 210.46 59.62 210.42 57.02 210.24 49.55 208.59 47.14 208.31 44.75 208.42 42.44 208.99 40.26 210.02 36.24 212.86 34.49 214.56 33.05 216.51 31.94 218.68 31.24 220.99 31.1 223.41 31.27 225.89 32.66 235.93 34.74 256.11 35.04 261.18 34.94 271.33 35.03 273.86 35.54 278.9 34.83 271.33 34.72 261.19 34.32 256.15 31.82 236.03 30.22 226.01 30 223.43 30.09 220.79 30.81 218.24 31.96 215.86 33.48 213.7 35.33 211.83 37.37 210.21 39.52 208.74 41.91 207.55 44.51 206.86 47.18 206.67 49.81 206.92 54.81 208.01 57.23 208.4 59.68 208.52 67.16 208.31 69.57 207.96 71.91 207.35 74.17 206.5 76.3 205.4 78.26 204.03 80.09 202.44 81.76 200.7 83.18 198.81 83.65 197.94 
M 83.91 197.45 83.97 197.34 
M 84.11 197.07 84.33 196.66 
M 101.91 193.23 102.59 194.07 
M 92.36 183.41 92.32 183.9 92.59 183.69 
M 89.27 179.76 89.07 180.73 89.67 180.22 
M 86.3 176.14 86.03 176.55 85.83 177.56 86.35 176.94 86.79 176.76 
M 83.22 172.73 82.85 173.21 82.58 174.39 83.17 173.61 83.75 173.34 
M 80.21 169.22 79.68 169.88 79.33 171.22 80 170.27 80.78 169.89 
M 77.16 165.78 76.51 166.55 76.09 168.05 76.82 166.94 77.77 166.44 
M 74.08 162.37 73.33 163.21 72.84 164.88 73.65 163.61 74.67 163.04 
M 71.05 158.91 70.16 159.88 69.6 161.71 70.48 160.27 71.65 159.59 
M 101.73 193.37 102.9 193.5 
M 97.37 192.52 97.69 192.59 
M 92.94 191.58 93.07 191.6 
M 88.26 190.77 88.54 190.58 88.54 190.81 
M 83.47 190.09 84.04 189.63 83.97 190.18 
M 78.85 189.31 79.53 188.69 79.39 189.4 
M 74.17 188.72 75.03 187.75 74.79 188.52 74.84 188.8 
M 69.49 188.18 69.7 187.64 70.52 186.8 70.2 187.7 70.29 188.28 
M 64.88 187.47 65.11 186.82 66.02 185.86 65.61 186.88 65.7 187.64 
M 60.34 186.58 60.52 186 61.51 184.92 61.03 186.06 61.09 186.7 
M 55.7 185.97 55.94 185.18 57.01 183.97 56.44 185.24 56.5 186.06 
M 51.08 185.33 51.35 184.36 52.5 183.03 51.85 184.42 51.91 185.46 
M 46.39 184.95 46.76 183.54 48 182.08 47.27 183.6 47.32 184.72 
M 56.55 190.6 62.18 192.36 70.06 194.54 77.74 196.3 85.49 197.62 93.56 198.77 101.91 199.7 110.32 200.53 118.73 201.13 
M 73.53 192.74 73.48 192.51 
M 88.6 198.06 87.86 197.79 87.35 197.41 86.51 196.38 85.61 194.82 
M 154.82 94.39 155.16 94.73 
M 155.1 87.91 162.7 95.51 
M 161.13 87.18 169.36 95.41 
M 167.1 86.39 174.63 93.92 
M 173.27 85.81 179.21 91.74 
M 179.62 85.39 188.87 94.64 
M 186.18 85.19 195.8 94.81 
M 193 85.25 202.64 94.89 
M 200.1 85.59 209.66 95.15 
M 207.34 86.07 213.08 91.81 
M 214.6 86.57 221.08 93.05 
M 221.79 87 227.85 93.06 
M 228.85 87.3 238.61 97.06 
M 235.76 87.45 243.57 95.25 
M 242.67 87.59 248.75 93.67 
M 249.54 87.71 258.62 96.79 
M 256.37 87.77 265.3 96.7 
M 263.11 87.75 272.51 97.16 
M 270.14 88.02 277.12 95 
M 277.6 88.72 284.32 95.45 
M 285.44 89.8 293.43 97.79 
M 293.52 91.12 302.34 99.94 
M 301.65 92.49 307.01 97.85 
M 309.67 93.75 317.85 101.93 
M 317.54 94.86 325.51 102.83 
M 325.38 95.94 332.68 103.24 
M 333.36 97.16 340.87 104.66 
M 341.43 98.47 348.07 105.11 
M 349.67 99.95 359.47 109.75 
M 358.36 101.87 366.41 109.93 
M 368.43 105.18 375.09 111.85 
M 211.45 85.93 211.67 86.37 
M 213.78 82.99 215.58 86.6 
M 216.11 80.04 219.5 86.83 
M 218.44 77.09 218.81 77.85 
M 244.13 82.85 246.53 87.65 
M 243.44 73.86 250.36 87.71 
M 241.99 63.35 254.17 87.72 
M 242.05 55.87 257.98 87.74 
M 241.74 47.64 261.8 87.75 
M 244.07 44.69 265.69 87.94 
M 246.4 41.74 247.18 43.31 
M 259.28 67.52 260.48 69.9 
M 261.41 71.78 267.08 83.12 
M 242.03 292.89 241.91 292.3 241.49 291.7 240.98 291.39 239.78 291.39 239.09 291.7 238.31 292.3 237.83 292.89 237.26 293.8 236.81 295.3 236.96 296.8 237.38 297.39 237.89 297.7 239.09 297.7 239.78 297.39 240.56 296.8 241.04 296.2 
M 247.25 293.5 245.99 297.7 
M 246.98 294.39 246.56 293.8 246.05 293.5 245.15 293.5 244.46 293.8 243.68 294.39 243.11 295.3 242.93 295.89 242.96 296.8 243.38 297.39 243.89 297.7 244.79 297.7 245.48 297.39 246.26 296.8 
M 252.68 294.39 252.26 293.8 251.75 293.5 250.85 293.5 250.16 293.8 249.38 294.39 248.81 295.3 248.63 295.89 248.66 296.8 249.08 297.39 249.59 297.7 250.49 297.7 251.18 297.39 251.96 296.8 
M 258.35 293.5 257.09 297.7 
M 258.08 294.39 257.65 293.8 257.14 293.5 256.25 293.5 255.56 293.8 254.78 294.39 254.21 295.3 254.03 295.89 254.06 296.8 254.48 297.39 254.99 297.7 255.89 297.7 256.58 297.39 257.36 296.8 
M 267.05 293.5 265.78 297.7 
M 266.77 294.39 266.36 293.8 265.85 293.5 264.95 293.5 264.26 293.8 263.48 294.39 262.9 295.3 262.73 295.89 262.76 296.8 263.18 297.39 263.69 297.7 264.59 297.7 265.27 297.39 266.06 296.8 
M 270.08 291.39 268.19 297.7 
M 271.85 293.5 270.95 296.5 270.98 297.39 271.49 297.7 272.39 297.7 273.08 297.39 274.25 296.5 
M 275.14 293.5 273.89 297.7 
M 280.27 294.39 280.15 293.8 279.35 293.5 278.45 293.5 277.45 293.8 276.98 294.39 277.1 295 277.61 295.3 279.02 295.6 279.52 295.89 279.56 296.8 279.08 297.39 278.08 297.7 277.19 297.7 276.38 297.39 276.26 296.8 
M 281.87 297.1 281.48 297.39 281.69 297.7 282.08 297.39 281.87 297.1 
"/></svg>
