<svg xmlns="http://www.w3.org/2000/svg" width="520" height="320"><rect x="0" y="0" width="520" height="320" fill="floralwhite"/><rect x="10" y="10" width="500" height="300" stroke="black" stroke-width="1" fill="none"/><path stroke="black" stroke-width="1" fill="none" stroke-linecap="round" stroke-linejoin="round" d="
M 120.07 112.75 132.77 110.01 145.61 107.58 158.45 105.38 184.13 101.55 196.97 100.49 209.8 100.52 235.48 99.97 261.16 99.93 274 100.78 286.84 102.28 299.68 104.13 312.52 106.57 325.36 109.32 363.87 117.02 389.55 121.98 429.1 130.46 
M 429.1 165.85 402.39 172.99 376.71 179.61 363.87 183.13 351.04 186.34 325.36 192.07 312.52 194.06 286.84 197.29 274 198.53 261.16 199.2 235.48 198.77 207.2 197.68 
M 168.77 192.15 145.61 187.76 107.15 179.9 
M 123.31 172.48 123.72 171.74 
M 117.44 160.87 118.04 160.77 
M 114.12 166.48 118 166.52 
M 127.09 128.15 128.87 126.06 132.47 118.61 132.47 114.01 130.75 110.45 
M 123.83 116.36 125.67 116.34 
M 137.29 150.55 137.29 149.88 133.44 142.92 127.46 136.78 126.95 136.51 
M 124.16 147.6 130.5 146.9 
M 122.42 151.94 130.16 151.63 
M 131.18 114.21 137.22 109.49 137.5 109.11 
M 147.13 144.45 149.8 139.81 149.8 135.35 145.66 128.14 139.24 121.78 134.22 119.3 
M 129.29 133.81 142.49 132.23 
M 129.48 137.71 142.63 137.84 
M 131.7 141.81 142.3 143.41 
M 148.32 134.62 151.59 130.17 154.59 123.01 154.59 118.57 151.59 111.41 148.42 107.1 
M 152.27 143.01 151.86 142.76 
M 153.52 119.17 154.72 118.68 160.66 113.81 164.49 108.3 164.49 104.89 164.24 104.54 
M 151.01 106.66 157.46 106.71 
M 150.06 110.02 157.19 110.34 
M 170.25 135.93 168.51 132.46 162.88 126.08 158.48 123.59 
M 154.36 138.29 165.11 136.8 
M 154.5 141.52 156.58 141.69 
M 170.85 135.92 173.69 132.15 176.77 124.99 176.77 120.56 173.69 113.4 168.92 107.08 165.19 104.61 
M 161.43 119.02 170.88 116.87 
M 161.52 122.34 170.84 122.81 
M 162.75 126.71 171.25 127.84 
M 175.67 123.47 178.79 122.27 184.81 117.61 188.69 112.34 188.69 109.07 184.81 103.8 182.27 101.83 
M 188.23 133 184.86 129.09 180.73 126.71 
M 187.3 107.91 188.18 107.65 193.78 104.34 197.39 100.49 
M 202.08 130.2 202.08 126.3 199.03 119.95 194.3 114.33 190.6 112.14 
M 187.25 125.44 196.86 123.24 
M 187.36 128.68 196.81 127.89 
M 187.15 131.5 191.85 132.27 
M 200.99 127.42 203.96 126.37 209.77 122.24 213.51 117.57 213.51 114.68 209.77 110.01 203.96 105.88 199.43 104.27 
M 195.18 113.49 206.67 112.24 
M 195.09 115.94 206.93 115.87 
M 197.78 119.07 207.14 119.38 
M 202.7 130.07 202.42 129.92 
M 212.17 114.35 214.98 113.58 219.86 110.89 223 107.84 223 105.95 219.86 102.9 215.3 100.38 
M 221.27 126.32 219.5 122.64 215.36 117.75 212.17 115.87 
M 209.29 126.96 217.04 125.3 
M 227.98 126.27 230.76 124.19 234 119.93 234 117.3 230.76 113.04 225.74 109.28 221.88 107.84 
M 232.74 114.9 234.77 114.19 238.52 111.56 240.93 108.58 240.93 106.74 238.52 103.76 234.77 101.13 231.84 100.1 
M 229.35 105.65 236.99 104.96 
M 229.26 107.46 236.64 107.66 
M 228.83 109.35 236.41 110.04 
M 241.77 131.33 241.77 128.33 239.22 122.87 235.25 118.05 232.84 116.58 
M 230.96 126.84 237.15 125.66 
M 241.13 129.23 244.62 127.71 249.09 123.81 251.97 119.39 251.97 116.66 249.09 112.24 244.62 108.34 241.13 106.82 
M 237.26 116.25 246.68 114.3 
M 237.25 118.24 246.49 118.08 
M 238.19 120.23 246.64 121.45 
M 252.31 141.65 250.58 138.47 
M 248.97 136.64 246.26 133.58 242.67 131.55 
M 249.35 112.88 251.43 112.02 255.12 108.98 257.5 105.54 257.5 103.41 255.06 99.92 
M 253.59 143.47 254.71 142.65 258.21 137.53 260.46 131.74 260.46 128.16 258.21 122.36 254.71 117.25 251.99 115.26 
M 249.26 126.83 256.19 125.49 
M 249 130 256.32 129.47 
M 249.61 132.63 256.25 134.85 
M 261.48 167.84 262.72 164.87 262.72 161.11 260.18 155.04 256.25 149.68 255.1 148.89 
M 256.08 158.91 258.54 158.38 
M 259.65 126.71 262.34 125.54 266.82 121.63 269.7 117.2 269.7 114.46 266.82 110.04 262.34 106.13 258.84 104.61 
M 255.75 113.67 264.15 112.86 
M 255.57 115.67 264.35 115.72 
M 255.18 118.53 264.39 119.25 
M 261.81 159.81 264.56 158.18 269.05 152.87 271.94 146.86 271.94 143.14 269.05 137.12 264.56 131.81 261.06 129.74 
M 257.75 142.25 266.38 139.99 
M 257.96 144.99 267.2 145.15 
M 257.37 148.04 266.45 149.62 
M 264.52 184.2 265.56 182.97 268.41 177.06 268.41 173.41 265.56 167.5 261.81 163.08 
M 262.5 170.97 263.6 170.84 
M 262.96 175.42 263.25 175.43 
M 262.59 179.3 263.03 179.33 
M 268.63 111.42 271.85 110.51 275.97 108.15 278.63 105.48 278.63 103.83 275.65 100.98 
M 265.29 103.53 274.3 102.33 
M 265.5 104.7 273.91 104.48 
M 265.25 106.06 274.21 107.16 
M 268.66 137.23 269.02 136.97 272.64 131.85 274.98 126.05 274.98 122.46 272.64 116.66 269.02 111.54 267.79 110.67 
M 267.93 120.26 270.49 119.66 
M 263.47 124.48 271.23 124.65 
M 263.87 127.28 270.25 129.02 
M 272.88 179 275.93 176.8 279.84 171.16 282.36 164.77 282.36 160.82 279.84 154.43 275.93 148.79 272.88 146.58 
M 269.92 159.88 277.98 157.77 
M 269.5 162.4 277.88 162.77 
M 269.52 166.13 277.34 168.15 
M 268.21 184.07 268.21 182.92 267.22 180.49 
M 278.02 125.72 281.94 124.28 286.95 120.59 290.18 116.41 290.18 113.83 286.95 109.65 281.94 105.95 278.02 104.51 
M 274.1 113.2 284.74 112.42 
M 274.65 114.76 284.57 115.61 
M 274.65 117.71 283.93 118.48 
M 281.46 158.04 283.43 156.94 288.2 151.63 291.28 145.61 291.28 141.89 288.2 135.87 283.43 130.56 279.71 128.48 
M 276 140.59 285.88 139.11 
M 275.64 144.08 285.89 143.41 
M 276.25 146.79 285.8 147.98 
M 283.53 183.25 284.65 181.96 287.66 175.86 287.66 172.09 284.65 165.99 281.46 162.31 
M 289.96 112.79 293.35 111.88 297.69 109.55 300.49 106.9 300.49 105.27 299.22 104.07 
M 286.71 105.04 295.42 104.01 
M 286.36 106.12 295.28 106.35 
M 286.85 107.73 295.06 107.73 
M 289.92 138.31 290.91 137.78 295.53 132.82 298.5 127.22 298.5 123.74 295.53 118.14 290.91 113.18 289.02 112.17 
M 292.46 178.38 295.39 176.22 299.14 170.68 301.56 164.41 301.56 160.53 299.14 154.26 295.39 148.72 292.46 146.56 
M 290.35 182.75 288.19 178.13 286.58 176.17 
M 300.36 127.91 304.53 126.51 309.86 122.9 313.3 118.82 313.3 116.29 309.86 112.21 304.53 108.6 300.36 107.19 
M 300.69 159.16 304.49 157.24 309.48 152.2 312.7 146.49 312.7 142.96 309.48 137.25 304.49 132.2 300.59 130.24 
M 297.11 141.48 306.35 139.97 
M 296.86 144.73 306.87 145.15 
M 296.74 147.52 306.9 149.04 
M 305.54 181.51 308.32 176.14 308.32 172.39 305.18 166.33 300.69 161.39 
M 299.33 169.82 302.3 169.16 
M 296.41 174.07 303 174.02 
M 292.77 177.77 302.89 179.3 
M 312.1 115.74 315.44 114.73 319.71 112.15 322.46 109.22 322.46 108.7 
M 312.07 143.41 315.62 141.64 320.18 137.08 323.11 131.92 323.11 128.73 320.18 123.57 315.62 119.02 312.07 117.24 
M 309.06 127.64 317.84 126.79 
M 308.75 130.06 317.75 129.87 
M 308.97 133.16 318.17 134.43 
M 310.51 175.34 313.42 173.34 317.15 168.22 319.56 162.42 319.56 158.83 317.15 153.02 313.42 147.9 311.55 146.61 
M 307.96 157.43 314.94 156.24 
M 307.6 160.52 314.74 160.69 
M 307.66 164 314.94 164.7 
M 311.01 181.06 310.47 179.89 307.2 175.83 
M 322.39 129.86 326.28 128.47 331.26 124.93 334.47 120.92 334.47 118.43 331.26 114.42 326.28 110.88 322.39 109.49 
M 318.54 117.91 328.24 116.52 
M 318.47 119.98 328.88 119.44 
M 318.29 121.59 329.13 122.86 
M 321.26 159.4 325.08 157.51 329.96 152.68 333.1 147.2 333.1 143.8 329.96 138.33 325.08 133.49 322.06 131.99 
M 318.05 142.26 327.34 141.1 
M 317.29 145.67 327.47 145.54 
M 317.36 148.28 327.72 149.43 
M 327.84 179.27 329.21 176.7 329.21 172.93 325.96 166.85 320.91 161.48 318.7 160.3 
M 314.28 171.57 322.8 170.06 
M 313.15 174.74 323.35 174.72 
M 312.87 177.76 323.48 179.42 
M 333.32 116.36 335.86 115.52 339.8 112.93 340.37 112.28 
M 329.56 110.64 333.84 110.99 
M 332.61 143.75 335.6 142.01 339.43 137.56 341.9 132.52 341.9 129.41 339.43 124.37 335.6 119.92 333.32 118.6 
M 329.63 127.92 336.93 127.02 
M 329.23 130.82 337.58 131.46 
M 329.4 133.36 337.3 134.83 
M 329.87 175.1 333.11 173.07 337.27 167.84 339.94 161.92 339.94 158.26 337.27 152.34 333.11 147.11 331.98 146.39 
M 327.01 157.01 334.74 155.12 
M 326.87 159.65 334.65 160.48 
M 326.51 162.79 334.77 164.2 
M 330.33 178.88 328.44 176.52 328.05 176.28 
M 341.89 129.51 345.52 128.12 350.17 124.56 353.16 120.52 353.16 118.03 350.39 114.29 
M 338.22 117.1 347.81 116.08 
M 338.79 118.99 347.58 119.33 
M 338.38 120.99 347.54 122.36 
M 341.26 159.99 345.02 158.04 349.84 153.03 352.94 147.36 352.94 143.84 349.84 138.17 345.02 133.16 341.26 131.21 
M 337.92 142.79 347.64 141.03 
M 337.65 145.24 347.27 145.12 
M 337.27 148.47 346.88 149.82 
M 351.28 175.51 351.28 174.63 347.91 168.38 342.7 162.87 338.99 160.91 
M 351.7 115.23 352.98 114.82 
M 351.83 141.68 353.5 140.67 357.4 135.94 359.91 130.58 359.91 127.26 357.4 121.9 353.5 117.17 352.09 116.31 
M 347.76 126 355.37 125.3 
M 347.82 128.88 355.52 129.14 
M 347.22 132.11 355.17 132.9 
M 356.78 174.51 359.54 170.78 362.23 164.4 362.23 160.45 359.54 154.08 355.37 148.45 352.12 146.25 
M 348.96 158.85 357.31 157.82 
M 349.48 162.8 357.01 162.49 
M 348.62 165.3 357.07 167.38 
M 361.25 129.21 364.99 127.79 369.78 124.14 372.87 120.01 372.87 118.7 
M 357.86 116.18 359.53 116.14 
M 358.03 118.74 367.34 118.82 
M 357.87 120.59 367.23 121.85 
M 361.47 160.88 365.27 158.84 370.14 153.63 373.28 147.73 373.28 144.08 370.14 138.18 365.27 132.97 361.47 130.94 
M 370.49 171.86 369.58 170.11 364.46 164.46 361.27 162.7 
M 372.16 143.51 374.92 141.95 379.11 137.22 381.81 131.86 381.81 128.54 379.11 123.18 375.59 119.21 
M 368.23 127.16 376.65 125.73 
M 368.38 130.31 377.03 129.83 
M 368.21 132.98 377.33 134.71 
M 378.91 170.16 381.3 164.09 381.3 160.07 378.74 153.56 374.77 147.81 372.16 145.92 
M 368.36 158.65 377.11 157.34 
M 368.38 161.84 376.85 162.13 
M 368.76 165.55 376.38 166.61 
M 381.95 130.06 385.74 128.63 390.59 124.96 392.4 122.57 
M 381.97 161.51 385.77 159.47 390.65 154.25 393.79 148.33 393.79 144.67 390.65 138.76 385.77 133.54 381.97 131.5 
M 378.76 143.89 388.06 142.47 
M 378.19 146.2 387.89 147.02 
M 378.74 149.34 388.41 151.39 
M 387.9 168.45 385.29 165.49 381.4 163.28 
M 392.66 144.49 395.68 142.75 399.7 138.09 402.3 132.82 402.3 129.56 399.5 124.05 
M 389.39 128.47 397.18 126.88 
M 390.01 130.86 397.33 130.8 
M 389.73 133.5 398.03 135.17 
M 401.31 165.94 401.87 164.55 401.87 160.52 399.25 154 395.19 148.25 392.66 146.45 
M 388.61 158.97 397.64 157.1 
M 389.35 162.38 397.13 162.45 
M 388.84 166.02 395.88 166.95 
M 401.84 130.25 405.35 128.79 408.7 126.01 
M 402.27 162.11 405.99 160.04 410.75 154.75 413.82 148.76 413.82 145.05 410.75 139.06 405.99 133.77 402.27 131.7 
M 398.29 144.04 408.59 142.49 
M 398.58 146.9 408.6 147.04 
M 398.2 150.32 408.29 151.28 
M 404.18 165.39 402.08 164.19 
M 412.72 144.45 415.03 142.96 418.81 138.08 421.24 132.55 421.24 129.13 421.06 128.71 
M 409.13 127.75 413.56 127.07 
M 408.73 130.83 416.92 130.89 
M 409.41 133.16 416.54 134.64 
M 422.16 161.91 422.16 161 419.58 154.35 415.58 148.47 412.72 146.38 
M 423.05 161.74 425.41 160.31 429.1 155.88 
M 429.1 137.21 425.41 132.77 421.81 130.61 
M 418.54 143.31 427.72 141.84 
M 418.77 146.12 427.62 147.02 
M 418.8 150.11 428 151.31 
M 118.85 178.76 121.14 176.4 123.31 172.48 
M 111.83 171.46 117.6 172.22 
M 131.21 177.17 137.54 177.82 
M 148.42 107.1 148.42 107.1 
M 182.27 101.83 182.27 101.83 
M 235.84 193.84 235.84 191.64 
M 239.9 192.25 243.29 190.23 246.81 186.02 
M 237.63 193.86 237.08 193.2 235.08 192.02 
M 252.43 194.07 253.2 192.11 253.2 188.79 252.04 185.83 
M 245.4 187.12 249.55 186.39 
M 242.65 193.13 248.14 193.99 
M 258.38 194.19 254.44 189.91 252.44 188.83 
M 263.32 185.02 264.32 185.09 
M 276.32 189.45 279.97 187.34 283.53 183.25 
M 278.53 193.25 274.73 189.42 270.79 187.43 
M 299.22 104.07 299.22 104.07 
M 288.84 192.32 290.97 187.75 290.97 184.08 290.35 182.75 
M 313.34 189.58 313.34 186.12 311.01 181.06 
M 302.5 184.54 308.44 183.1 
M 299.61 191.12 299.71 191.15 
M 319.93 188.68 320.91 188.15 325.96 182.78 327.84 179.27 
M 321.12 187.32 330.29 185.75 
M 348.73 183.22 351.28 178.5 351.28 175.51 
M 352.98 114.82 352.98 114.82 
M 353.43 182.2 351.13 179.39 350.07 178.74 
M 372.89 177.56 372.89 176.51 370.49 171.86 
M 391.28 173.17 390.27 171.15 387.9 168.45 
M 408.7 126.01 408.7 126.01 
M 408.3 169.15 405.89 166.38 404.18 165.39 
M 423.88 165.37 422.2 164.36 
M 156.6 105.31 158.45 105.38 
M 171.87 103.03 175.17 68.96 176.2 69.02 175.57 102.86 
M 187.18 100.93 193.63 58.14 194.65 58.26 190.89 100.99 
M 202.61 100.17 213.12 51.29 214.13 51.48 206.31 100.51 
M 218.05 99.9 229.62 50.78 230.63 50.98 221.75 100.23 
M 233.48 99.57 245.43 52.15 246.43 52.37 237.18 99.96 
M 248.92 99.45 263.82 46.47 264.82 46.73 252.62 99.92 
M 264.38 99.71 280.03 54.63 281.01 54.94 268.03 100.39 
M 279.79 100.99 293.97 68.18 294.92 68.55 283.39 101.88 
M 295.12 102.96 304.98 84.35 305.92 84.78 298.68 103.99 
M 310.86 105.76 312.52 106.58 
M 159.19 105.27 163.79 98.63 165.95 95.16 167.92 91.59 169.67 87.92 171.2 84.15 172.54 80.28 174.84 72.37 
M 176.14 72.44 180.56 71.35 182.66 70.63 184.66 69.73 186.53 68.62 188.28 67.29 189.92 65.78 192.99 62.42 
M 194.27 62.57 198.67 62.4 200.81 62.12 202.87 61.64 204.84 60.93 206.74 59.99 208.56 58.85 212.07 56.18 
M 213.34 56.42 216.77 57.58 218.47 57.95 220.16 58.12 221.84 58.04 223.51 57.71 225.17 57.17 228.46 55.69 
M 229.73 55.95 232.87 57.48 234.45 58.04 236.05 58.39 237.66 58.49 239.29 58.35 240.93 58 244.23 56.89 
M 245.5 57.17 249.64 57.23 251.65 57.07 253.6 56.7 255.47 56.1 257.26 55.27 258.99 54.23 262.33 51.77 
M 263.59 52.09 266.33 54.85 267.78 56.05 269.33 57.05 270.98 57.84 272.74 58.4 274.59 58.77 278.46 59.14 
M 279.7 59.53 281.65 63.15 282.77 64.81 284.03 66.31 285.46 67.64 287.05 68.79 288.79 69.78 292.55 71.46 
M 293.76 71.93 294.96 75.87 295.72 77.73 296.66 79.46 297.8 81.04 299.13 82.49 300.64 83.81 303.99 86.21 
M 305.18 86.75 305.43 91.52 305.75 93.84 306.27 96.09 307.02 98.27 308 100.36 309.18 102.38 311.94 106.29 
M 178.37 71.93 182.66 70.63 184.66 69.73 186.53 68.62 188.28 67.29 191.47 64.14 
M 179.07 78.98 182.36 77.98 183.89 77.29 186.67 75.42 189.11 73.01 
M 179.77 86.03 182.06 85.34 184.12 84.26 185.05 83.56 186.76 81.87 
M 196.49 62.53 200.81 62.12 202.87 61.64 204.84 60.93 206.74 59.99 210.33 57.55 
M 196.53 69.23 200.09 68.89 201.79 68.5 203.42 67.91 204.99 67.14 207.95 65.13 
M 196.57 75.93 199.38 75.67 200.72 75.35 203.23 74.28 205.57 72.7 
M 196.61 82.63 199.64 82.21 201.48 81.43 203.19 80.27 
M 215.06 57.04 218.47 57.95 220.16 58.12 221.84 58.04 223.51 57.71 226.82 56.47 
M 214.55 64.63 217.36 65.38 218.76 65.52 220.14 65.45 221.52 65.18 224.25 64.16 
M 214.04 72.21 216.26 72.81 217.36 72.91 219.53 72.65 221.68 71.84 
M 213.53 79.8 215.95 80.31 217.54 80.12 219.12 79.53 
M 231.3 56.76 234.45 58.04 236.05 58.39 237.66 58.49 239.29 58.35 242.58 57.49 
M 230.65 64.35 233.25 65.41 234.56 65.69 235.89 65.78 237.24 65.66 239.95 64.95 
M 230 71.94 232.04 72.77 233.08 73 235.19 72.97 237.33 72.41 
M 229.34 79.52 230.84 80.13 232.36 80.35 234.7 79.87 
M 247.58 57.24 251.65 57.07 253.6 56.7 255.47 56.1 257.26 55.27 260.68 53.04 
M 246.78 64.71 250.14 64.57 251.74 64.27 253.29 63.77 254.77 63.08 257.58 61.25 
M 245.98 72.19 248.63 72.07 249.89 71.83 252.27 70.9 254.49 69.46 
M 245.18 79.66 248.04 79.4 249.78 78.72 251.4 77.66 
M 264.94 53.51 267.78 56.05 269.33 57.05 270.98 57.84 272.74 58.4 276.51 58.99 
M 263.8 61.66 266.15 63.76 267.42 64.58 268.79 65.23 270.24 65.69 273.34 66.18 
M 262.66 69.81 264.51 71.46 265.52 72.12 267.73 72.99 270.18 73.37 
M 261.52 77.96 263.61 79.65 265.23 80.28 267.02 80.57 
M 280.65 61.37 282.77 64.81 284.03 66.31 285.46 67.64 287.05 68.79 290.64 70.65 
M 279.05 70.61 280.68 73.24 281.65 74.4 283.97 76.29 286.72 77.72 
M 277.46 79.85 278.6 81.68 279.27 82.48 280.88 83.8 282.79 84.79 
M 294.32 73.92 295.72 77.73 296.66 79.46 297.8 81.04 299.13 82.49 302.28 85.04 
M 292.51 83.99 293.42 86.46 294.77 88.62 295.64 89.56 297.69 91.22 
M 121.54 153.43 123.32 153.39 126.19 152.49 129.7 151.7 137.53 150.52 140.83 148.58 142.95 147.05 148.4 143.67 151.65 143.01 154.12 143.04 156.59 141.68 159.54 141.04 162.88 140.83 166.27 137.94 169.3 135.95 174.13 135.85 224.3 125.71 230.05 126.5 234.07 128.03 236.89 128.37 240.06 129.96 243.43 132.66 245.13 133.68 247.75 135.62 250.14 137.62 251.7 140.8 255.09 145.8 255.09 148.8 255.69 152.88 255.51 156.18 256.13 159.19 262.21 168.97 262.71 172.41 263.02 176.15 262.63 179.19 261.78 181.76 259.57 183.92 256.71 185.08 253.37 185.76 245.6 186.05 243.18 187.56 241.26 189.46 239.08 191.09 235.81 191.64 233.1 192.75 226.38 193.66 222.75 193.75 213.67 195.68 210.32 196.01 207.82 197.18 204.84 199.57 176.09 195.38 173.01 193.48 169.23 192.47 165.8 190.13 157.84 187.31 155.46 185.64 152.18 185.25 148.29 184.35 145.62 183.07 142.62 181.28 140.02 179.28 137.14 177.59 134 176.12 130.05 174.68 124.36 172.08 119.93 169.77 
M 126.45 154.04 129.89 153.67 133.51 152.7 137.1 151.98 140.23 150.63 143.21 148.88 145.71 147.8 148.14 147.19 150.91 146.13 157.1 145.76 160.52 144.86 163.51 143.47 166.3 141.92 173.08 139.79 176.27 139.84 179.83 138.18 182.16 137.38 
M 120.16 156.57 123.46 156.82 126.69 156.4 130.15 155.74 133.95 155.36 140.02 153.95 142.67 152.36 145.55 151.05 148.63 150.58 151.39 150.94 154.29 149.81 157.69 149.29 164.18 147.51 166.03 146.55 169.23 146.47 173.02 145.78 176.48 145.98 180.15 145.17 183.84 143.61 189.28 140.13 193.36 138.79 195.74 138.4 196.86 139.02 203.54 137.72 206.03 137.42 
M 123.53 158.6 126.95 158.48 130.44 157.92 134.18 157.72 137.69 157.17 139.92 156.73 145.29 154.8 152.8 154.17 155.9 153.64 161.35 152.42 164.17 151.03 166.87 151.02 169.69 150.77 173.13 151.18 180.56 150.8 184.39 149.95 186.59 148.35 192.35 147.12 196.02 145.95 199.13 145.42 202.18 144.42 204.29 144.33 206.16 145.35 
M 127.09 160.38 137.87 160.01 142.29 158.76 148.81 158.56 159.93 157.74 162.67 157.36 166.26 155.98 171.92 155.64 174.63 156.7 178.59 156.93 181.17 156.85 184.07 156.09 188.03 154.54 190.89 154.13 194.29 153.25 201 152.56 205.58 151.16 208.02 151.24 211.15 150.47 214.7 151.8 221.3 151.19 
M 126.97 162.31 130.63 162.34 137.65 162.74 140.08 162.09 145.77 161.96 153.01 162.62 160.16 162.36 163.14 161.56 170.56 160.88 172.94 161.16 174.3 161.77 177.06 161.32 185.28 161.71 189.21 163 192.59 161.67 195.45 160.23 199.41 158.93 202.71 159.07 204.65 159.61 205.99 161.13 
M 127.03 164.24 130.56 164.31 134.13 164.73 137.6 164.88 140.23 164.28 143.27 164.35 149.28 164.93 152.27 165.64 159.53 166.19 166.92 165.52 170.02 165.94 175.42 165.92 178.13 165.55 182 165.72 188.93 167.03 192.26 167.23 194.81 166.4 197.98 165.6 200.89 166.29 203.59 168.05 
M 130.62 166.47 134.11 166.98 137.5 167.25 144.07 167.05 149.7 168.17 154.73 169.52 162.05 170.55 169.52 170.32 172.11 169.73 175.45 170.45 178.1 171.52 181.44 171.49 184.54 171.96 187.89 173.3 191.45 173.63 194.68 172.72 197.8 173.64 201.45 174.34 203.07 173.97 
M 119.93 165.81 123.96 167.15 130.76 168.42 133.99 169.29 137.23 169.86 141.17 170.03 144.21 170.46 149.72 172.01 152.22 172.5 154.41 173.56 157.89 174.26 161.62 174.27 168.35 176.27 171.41 176.47 174.54 176.22 177.48 175.31 185.25 178.67 191.92 179.28 198.24 180.58 200.39 180.51 204.19 181 207.57 181.88 211.53 182.15 214.53 182.55 216.47 184.33 222.86 186.25 224.77 187.16 
M 119.93 167.36 124.09 168.89 137.2 172.55 143.82 174.09 146.53 175.29 149.72 176.22 158.43 177.7 161.81 178.61 164.58 179.79 167.41 181.49 170.6 181.85 173.49 181.81 176.81 183.03 192.56 186.18 
M 119.93 168.9 124.2 170.79 127.64 171.91 130.22 172.97 134 174 137.16 175.13 145.48 179.52 148.92 180.63 155.95 181.55 158.69 182.23 162.29 183.57 168.15 187.31 171.75 187.51 174.25 189.05 177.41 189.76 180.32 191.17 185.24 192.24 189.07 192.48 
M 198.23 198.61 204.21 205.21 205.98 208.54 206.66 211.3 227.31 244.83 225.71 247.37 224.33 250.14 223.95 253.91 223.3 257.49 220.44 258.89 219.04 261.75 216 262.48 214.11 261.15 211.53 260.47 209.73 262.9 207.19 263.52 196.7 252.64 192.36 247.56 179.98 232.25 167.75 208.29 164.85 204.37 161.73 195.4 158.45 190.12 
M 192.92 197.83 194.57 199.96 198.85 206.21 203.17 210.85 204.7 213.85 206.61 216.72 211.84 223.07 213.75 224.78 214.54 227.3 218 232.59 219.8 234.97 225.01 240.26 
M 187.76 197.08 193.23 205.01 198.13 210.94 199.8 213.45 203.02 219.4 204.26 222.3 206.11 225.14 211.01 231.83 
M 182.81 196.36 184.13 198.25 185.77 201.31 187.39 203.85 191.34 209.3 193.25 212.34 195.22 216.09 197.1 221.63 198.92 224.41 202.08 227.23 204.93 231.48 206.18 234.27 207.8 238.49 211.01 241.88 213.6 245.63 
M 177.98 195.65 179.25 197.52 180.85 200.48 182.75 203.35 185.72 208.53 187.7 211.1 189.96 219.76 191.2 223.08 192.87 225.48 195.29 226.45 197.75 228.85 200.4 232.41 201.6 234.4 202.77 238.38 
M 171.94 193.2 178.89 205.48 181.64 211.39 186.65 224.92 188.56 227.32 190.54 228.32 193.75 233.97 196.94 236.95 197.58 241.96 201.14 248.22 201.67 250.72 203.7 256 
M 166.62 191.73 169.26 195.74 170.57 199.52 173.59 205.93 175.02 208.25 176.34 211.2 178.2 213.63 179.28 216.41 181.17 219.67 182.33 222.63 183.38 227.59 184.87 230.12 187.2 230.84 188.55 232.35 
M 161.57 190.74 164.56 195.19 169.32 206.22 171.22 209.53 171.79 211.56 174.26 216.66 
M 363.87 183.13 368.43 189 371.22 192.08 373.09 194.78 371.28 202.57 371.2 205.88 369.96 208.7 367.83 210.83 366.43 213.51 363.32 214.35 358.46 218.15 356.59 220.53 353.62 221.59 350.93 222.86 346.9 222.41 343.4 222.49 339.4 221.82 336.3 222.47 334.49 225.02 331.95 226.6 328.58 226.05 325.91 226.02 324.01 224.75 321.27 223.86 317.61 223.93 314.33 224.31 311.17 223.53 301.28 219.94 296.48 216.33 291.32 214.4 281.91 206.82 278.1 202.59 274 198.53 
M 358.88 184.38 362.77 189.07 365.17 191.46 367.41 194.66 
M 353.89 185.63 359.63 192.83 361.92 196.61 
M 348.89 186.83 356.42 196.46 359.22 198.75 362.33 202.76 363.99 205.67 
M 343.88 187.97 347.36 191.97 349.44 194.65 351.75 196.64 
M 338.86 189.11 342.13 193.18 344.81 195.63 347.07 198.83 348.29 201.32 351.05 204.46 352.76 209.18 353.74 213.22 
M 333.84 190.21 337.05 194.88 343.87 203.2 345.4 205.64 
M 328.81 191.32 334.83 199.27 336.89 201.56 338.53 203.99 340.9 206.52 343.96 209.09 346.12 211.97 347.51 215.13 
M 323.77 192.32 327.4 196.92 331.49 203.62 333.76 206.46 
M 318.69 193.11 326.37 203.53 327.97 206.93 330.13 209.05 
M 313.6 193.89 318.65 200.76 321.29 206.72 323.79 208.71 325.89 210.76 327.68 214.82 328.46 218.8 
M 308.51 194.58 311.52 198.77 315.41 205.13 317.37 207.82 318.2 209.81 320.65 211.79 324.25 217.78 
M 303.41 195.24 306.68 199.29 308.59 202.63 311.69 208.93 312.58 211.92 314.1 214.4 317.38 216.56 
M 298.3 195.9 301.44 200.09 304.2 203.12 305.14 207.16 306.59 210.13 308.66 212.47 
M 293.2 196.52 296.41 200.7 298.53 204.83 300.62 208.2 301.54 212.05 305.47 217.86 306.58 221.59 
M 288.09 197.14 290.25 202.64 292.52 206.14 295.19 209.45 298.01 212.16 
M 282.98 197.66 288.03 206.53 290.46 209.51 293.41 212.2 
M 277.86 198.16 281.46 202.62 284.92 205.78 
M 428.07 130.25 431.69 129.19 440.52 124.43 442.43 123.9 445.33 122.42 454.95 118.24 458.01 116.23 460.08 114.32 462.49 112.95 467.98 110.91 471.32 107.96 473.45 105.04 476.67 103.39 478.9 102.44 481.56 99.51 484.2 97.89 487.47 96.9 488.18 95.19 490 93.33 487.14 103.41 485.43 105.94 482.84 107.59 481.02 110.02 480.11 113.33 478.22 115.66 477.5 119.19 475.68 121.67 473.39 123.7 471.34 125.95 470.24 128.92 468.53 135.54 466.34 137.7 460.69 140.76 459.29 143.72 457.23 145.97 456.91 149.69 457.35 152.77 456.64 155.7 455.16 158.44 452.13 159.78 452.35 161.4 454.78 164.24 459.75 168.69 462.66 175.45 463.36 177.82 464.68 180.88 465.47 183.7 465.5 186.34 465.11 192.86 462.82 192.41 460.06 191.27 456.56 188.55 454.45 186.07 449.91 183.87 444.35 178.45 442.44 176.08 439.11 173.24 428.07 166.13 
M 428.07 132.04 431.88 131.14 442.27 126.43 445.54 125.36 448.7 123.66 452.41 122.36 456.23 121.79 458.9 120.15 462.96 117.23 467.27 115.93 
M 435.03 132.12 440.48 130.08 449.08 126.2 451.84 125.48 455.17 125.11 459.28 123.43 462.33 121.92 
M 428.07 135.63 432.11 135.03 438.56 133.2 441.04 132.96 443.11 131.8 446.45 130.48 448.85 128.91 451.62 128.42 454.56 127.58 
M 428.07 137.42 432.36 136.91 435.72 136.11 439 135.75 442.11 136 444.23 135.52 447.46 134.01 450.26 131.93 452.56 131.24 458.89 130.1 
M 428.07 139.22 432.52 138.96 439.68 137.93 442.69 138.49 446.06 138.31 453.55 135.84 456.39 134.71 
M 436.46 140.51 440.21 140.6 443.9 140.92 446.95 141.43 449.24 140.95 451.9 140.77 
M 432.49 143.7 436.24 143.21 439.93 143.42 443.69 143.9 
M 428.07 144.6 432.53 145.87 440.05 145.78 444.83 146.99 448.68 147.26 
M 432.71 147.58 436.35 148.07 440.32 148.31 444.63 149.33 449.1 149.74 
M 436.86 150.32 440.73 151.04 445.37 151.65 449.08 152.72 452.95 154.99 
M 441.55 153.41 445.49 154.86 
M 432.95 154.04 437.05 155.64 441.65 155.65 445.75 157.01 
M 428.07 153.57 433.12 156.35 437.31 157.92 441.51 157.63 445.31 158.24 449.53 159.59 450.73 159.19 451.6 160.12 
M 433.11 158.8 437.39 160.23 441.44 159.73 445.21 161.29 
M 428.07 157.16 432.91 160.62 437.02 162.03 440.71 162.36 444.9 163.44 447.62 164.74 
M 440.19 165.09 443.87 166.62 450.28 170.08 454.59 171.84 457.56 172.1 461 172.67 
M 439.69 167.18 443.29 169.03 446.08 171.04 449.77 172.96 454.19 175.52 457.18 175.51 
M 432.82 165.26 442.71 171.14 445.66 173.82 448.82 175.54 451.81 178.5 454.94 179.58 457.95 180.04 462.1 182.23 
M 435.89 169 442.34 173.63 444.78 176.08 447.91 178.13 450.58 180.92 453.98 182.48 
M 389.55 121.98 401.32 122.63 404.95 122.55 415.36 121.85 418.72 121.49 421.82 120.89 427.62 119.27 430.82 119.01 434.03 120.28 435.95 122.41 436.06 124.81 434.46 127.02 431.37 128.29 427.49 128.27 419.94 127.59 415.23 127.43 
M 413.62 126.07 418.72 125.61 421.82 125.01 427.62 123.39 429.22 123.26 
M 42.89 149.33 45.58 146.14 48.51 143.44 52.25 140.43 56.65 137.18 61.55 133.99 72.21 127.93 84.07 122.26 90.24 119.71 96.51 117.49 102.47 115.6 107.64 114.33 112.09 113.53 118.77 112.67 120.05 112.74 124.92 117.4 126.83 121.42 127.31 125.18 127.04 128.79 127.17 132.47 127.05 136.11 126.21 139.61 125.04 143.05 124.42 146.59 123.53 150.08 121.57 153.37 120.08 156.75 115.94 163.28 114.06 166.58 112.43 169.93 109.84 176.76 107.15 179.85 98.11 179.42 91.49 178.61 85.64 177.4 80.13 175.88 69.94 172.77 65.22 171.12 61.05 168.99 57.52 166.59 
M 54.4 164.57 51.24 162.7 48.58 160.74 45.17 157.51 
M 106.17 137.46 105.56 138.94 
M 71.85 162.93 66.03 161.81 61.9 160.54 
M 56.04 165.73 53.15 163.7 45.14 157.48 41.01 154.67 39.24 152.86 39.35 150.43 41.32 149 43.9 149.54 50.77 156.95 58.13 166 
M 57.78 166.85 47.41 168.37 39.85 169.72 34.8 170.35 32.17 170.44 30.15 168.98 30 166.4 31.93 164.57 34.53 164.41 39.54 164.88 47.13 165.18 57.76 165.85 
M 68.23 157.5 66.47 150.83 66.97 143.94 69.68 137.59 74.3 132.47 80.34 129.12 87.14 127.92 93.96 128.98 100.06 132.21 104.79 137.24 107.63 143.54 108.26 150.41 106.64 157.12 102.92 162.94 97.51 167.23 91 169.54 84.1 169.61 77.55 167.43 72.06 163.24 68.23 157.5 
M 67.97 156.91 67.13 154.45 66.59 151.91 66.38 149.32 66.49 146.72 66.91 144.16 67.66 141.67 68.7 139.29 70.03 137.06 71.63 135 73.47 133.17 75.52 131.57 77.75 130.24 80.13 129.2 82.62 128.45 85.18 128.03 87.78 127.92 90.37 128.13 92.91 128.67 95.37 129.51 
M 69.87 156.12 69.11 153.91 68.63 151.61 68.44 149.28 68.53 146.94 68.92 144.62 69.59 142.38 70.53 140.23 71.73 138.22 73.17 136.37 74.83 134.71 76.68 133.27 78.69 132.07 80.84 131.13 83.08 130.46 85.4 130.07 87.74 129.98 90.07 130.17 92.37 130.65 94.59 131.41 
M 71.77 155.34 71.09 153.36 70.67 151.32 70.49 149.24 70.58 147.15 70.94 145.04 
M 75.13 137.31 76.19 136.25 77.84 134.97 79.63 133.9 81.55 133.06 83.55 132.46 85.61 132.12 87.7 132.03 89.78 132.21 91.82 132.63 93.8 133.31 
M 73.67 154.55 73.08 152.82 72.7 151.02 72.55 149.19 72.63 147.36 72.89 145.78 
M 76.49 138.85 77.55 137.79 79 136.67 80.57 135.73 82.25 134.99 84.01 134.47 85.82 134.17 87.65 134.09 89.48 134.24 91.28 134.62 93.01 135.21 
M 75.57 153.76 74.74 150.72 74.61 149.15 74.87 146.36 
M 77.83 140.41 80.16 138.37 81.52 137.56 84.48 136.47 87.61 136.15 90.73 136.6 92.22 137.11 
M 77.48 152.98 76.77 150.43 76.66 149.11 76.88 146.84 
M 79.37 141.78 81.32 140.06 82.46 139.39 84.94 138.48 86.24 138.26 88.89 138.31 91.44 139.01 
M 79.7 152.33 78.99 149.66 79.17 147.22 
M 81.28 143.26 82.13 142.32 84.54 140.98 87.26 140.5 89.99 140.93 92.43 142.22 94.32 144.23 95.46 146.75 95.71 149.5 95.06 152.18 93.58 154.51 91.41 156.22 88.81 157.15 86.05 157.17 83.43 156.3 81.23 154.63 79.7 152.33 
M 81.71 142.78 81.42 143.36 
M 79.47 147.26 79.12 147.97 
M 84 141.28 82.55 144.19 
M 80.91 147.48 79.28 150.73 
M 85.81 140.76 83.6 145.18 
M 82.24 147.9 79.88 152.61 
M 87.47 140.53 84.65 146.16 
M 83.54 148.39 80.77 153.93 
M 88.9 140.75 85.68 147.19 
M 84.95 148.65 81.76 155.03 
M 90.28 141.08 86.69 148.26 
M 86.41 148.82 82.88 155.88 
M 91.5 141.72 84.1 156.53 
M 92.67 142.47 85.42 156.97 
M 93.68 143.54 86.86 157.17 
M 94.58 144.81 88.41 157.15 
M 95.32 146.43 90.21 156.65 
M 95.65 148.84 92.32 155.5 
M 45.3 146.46 49.77 150.93 
M 48.48 143.47 52.85 147.84 
M 51.9 140.71 55.7 144.52 
M 55.43 138.08 59.51 142.15 
M 59.11 135.58 65.24 141.71 
M 62.91 133.21 67.58 137.88 
M 66.83 130.95 71.47 135.6 
M 70.78 128.73 74.44 132.39 
M 74.84 126.63 78.41 130.19 
M 79 124.61 83.03 128.64 
M 83.22 122.66 87.58 127.02 
M 87.55 120.82 93.03 126.3 
M 91.99 119.09 97.86 124.95 
M 96.55 117.48 102.05 122.97 
M 101.24 115.99 106.77 121.52 
M 106.13 114.7 111.28 119.85 
M 111.27 113.68 115.66 118.07 
M 116.65 112.88 122.22 118.45 
M 64.28 159.7 64.06 160.81 63.7 161.33 63.33 161.43 62.67 161.02 
M 58.23 167.07 57.86 166.26 
M 57.47 165.2 56.65 162.13 55.05 160.3 
M 55.95 157.62 54.96 157.36 52.78 156.07 50.66 153.8 46.75 150.85 45.22 148.99 43.94 147.99 
M 54.55 161.67 53.82 160.18 51.46 157.77 
M 63.23 162.23 62.65 161.1 61.59 160.29 
M 96.21 118.54 97.65 118.01 98.81 117.95 99.12 118.14 99.54 118.86 99.56 120.01 99.75 120.65 
M 68.99 158.64 68.65 159.72 68.47 161.41 68.11 162.36 
M 114.24 147.87 115.13 148.31 115.7 148.79 115.85 149.27 115.68 150 115.23 150.59 114.27 151.13 112.5 151.54 
M 107.9 146.5 110.23 146.48 112.24 147.27 114.94 148.75 115.44 149.26 115.48 150.04 
M 94.96 124.64 95.65 124.62 96.52 124.21 
M 49.04 154.94 48.77 154.75 
M 93.98 176.12 93.59 174.79 92.12 173.78 
M 45.11 150.06 44.38 149.3 43.37 148.65 
M 95.49 117.87 98.02 117.22 99.02 117.34 99.66 118.66 99.65 120.25 
M 120.83 125.17 120.46 123.75 119.63 122.06 
M 90.07 125.56 90.56 125.75 91.03 126.22 92.02 127.72 92.48 128.75 
M 96.83 129.69 96.18 130.12 95.64 129.64 
M 113.06 168.62 111.65 167.35 111.06 167 
M 121.22 139.7 120.03 140.96 117.05 143.24 115.65 144.61 115.23 145.9 115.35 146.49 116.34 147.92 116.45 148.92 
M 115.33 113.09 115.37 113.04 
M 53.43 163.99 53.45 163.91 
M 118.56 131.74 119.21 131.76 119.31 132.01 
M 112.59 145.16 112.59 145.82 112.86 146.42 113.39 146.9 115.67 148.28 116.03 148.75 116.07 149.22 115.66 150.2 114.82 150.86 
M 64.24 160.06 63.94 160.99 63.61 161.37 63.26 161.41 62.62 160.98 
M 93.98 120.6 94.95 120.09 96.26 118.95 98.01 118.21 98.69 118.19 99 118.34 99.26 118.61 99.49 119.33 
M 104.61 130.62 105.34 134.73 105.25 136.1 104.73 137.18 
M 84.72 172.94 83.69 175.36 83.06 175.79 82.32 175.83 
M 56.22 149.34 53.49 147.95 51.77 145.9 50.79 145.22 48.09 143.84 
M 115.54 123.7 117.53 121 118.93 117.83 
M 66.58 139.3 64.6 140.15 61.9 141.91 60.23 142.71 59.88 142.75 57.86 142.24 
M 108.24 139.16 106.96 138.86 106.28 139.01 105.73 139.34 
M 61.16 166.57 58.51 163.31 57.36 161.66 55.56 160.37 
M 114.64 118.15 118.21 117.05 118.97 116.6 119.38 115.98 119.94 112.96 
M 106.61 132.52 106.57 134.33 106.4 134.97 105.74 136.39 104.9 137.48 
M 83.63 125.44 83.54 124.98 83.25 124.55 81.99 123.22 
M 106.38 124.06 106.82 125.75 108.43 129.91 108.38 130.9 107.64 132.71 
M 102.59 128.85 103.59 132.31 103.75 136.13 
M 92.42 178.72 92.32 175.87 92.02 174.83 91.44 173.9 
M 46.41 145.66 46.29 145.49 
M 114.31 166.14 113 165.14 112.03 164.72 
M 87.72 175.31 86.21 175.24 85.62 175.37 84.16 176.22 83.35 176.5 81.63 176.29 
M 88.01 124.59 87.36 124.81 86.88 124.75 83.23 122.65 
M 67.19 153.56 66.26 155.05 65.72 157.65 
M 79.51 124.45 79.48 124.39 
M 105.8 173.14 101.19 170.24 100.39 169.89 99.59 169.6 99.03 169.58 97.01 169.95 
M 123.96 123.93 123.29 125.14 
M 111.59 172.09 111.42 170.95 111.08 170.37 109.99 169.45 108.58 169.02 105.7 168.72 
M 54.81 152.5 47.84 146.57 46.73 145.09 
M 54.1 161.13 53.81 160.54 52.54 159.07 
M 95.77 129.94 95.73 129.86 
M 108.5 147.62 111.36 147.88 112.17 148.18 114.32 149.42 114.63 149.86 114.65 150.25 114.2 150.8 113.51 151.12 
M 53.25 150.59 51.32 148.81 49.94 147.19 47.29 144.57 
M 93.6 121.67 95.77 120.45 97.93 118.82 98.71 118.65 
M 108.02 147.73 109.01 147.55 111.61 147.91 
M 118.22 118.27 119.54 116.55 119.6 114.73 119.99 112.73 
M 121.77 125.81 122.45 125.37 
M 91.05 126.26 92.04 127.78 92.47 128.75 
M 75.45 131.83 75.45 131.83 
M 114.98 120.38 117.53 118.88 119.21 117.05 119.58 116.43 119.64 114.56 
M 72.48 164.69 72.89 163.88 
M 57.52 166.59 58.27 167.29 
M 51.13 162.17 51.06 163.4 51.47 162.96 51.94 162.78 
M 45.34 157.64 44.75 158.71 44.62 160.21 45.2 159.13 46.32 158.39 
M 39.58 153.21 38.48 154.87 38.17 157.03 38.93 155.29 40.46 154.11 
M 57.77 166.58 58.54 166.55 
M 51.25 165.46 51.45 165.28 51.49 165.48 
M 44.58 165.12 45.38 163.98 45.26 164.88 45.36 165.14 
M 38.25 164.74 38.37 164.06 39.32 162.68 38.99 164.04 39.2 164.84 
M 31.92 164.58 32.09 163.21 33.26 161.38 32.71 163.19 32.98 164.51 
M 39.97 169.71 44.55 170.83 48.69 171.62 56.98 172.7 61.23 172.9 69.94 172.77 
M 40.26 169.79 40.73 169.6 
M 120.86 112.58 133.01 124.73 
M 127.63 111.12 138.58 122.07 
M 134.43 109.69 145.62 120.88 
M 141.35 108.39 153.44 120.47 
M 148.32 107.12 157.37 116.17 
M 155.34 105.91 165.02 115.6 
M 162.45 104.8 171.09 113.43 
M 169.64 103.75 177.57 111.68 
M 176.79 102.67 184.3 110.18 
M 183.93 101.58 195 112.65 
M 191.52 100.94 202 111.42 
M 199.3 100.5 206.86 108.06 
M 207.55 100.51 218.42 111.38 
M 215.64 100.38 226.73 111.47 
M 223.68 100.19 230.08 106.58 
M 231.76 100.04 242.23 110.51 
M 239.9 99.95 249.15 109.2 
M 248.09 99.91 256.73 108.55 
M 256.33 99.92 264.39 107.97 
M 264.82 100.18 276.99 112.35 
M 273.63 100.76 285.86 112.99 
M 282.93 101.83 292.68 111.58 
M 292.42 103.09 303.04 113.71 
M 302.16 104.61 314.08 116.52 
M 312.33 106.54 321.23 115.45 
M 322.78 108.77 330.15 116.13 
M 333.09 110.84 339.96 117.71 
M 343.36 112.88 353 122.52 
M 353.66 114.95 363.14 124.43 
M 363.98 117.04 374.25 127.31 
M 374.09 118.93 383.05 127.89 
M 384.33 120.94 390.82 127.43 
M 394.66 123.04 403.47 131.85 
M 405.08 125.23 413.98 134.13 
M 415.59 127.5 427.53 139.44 
M 426.13 129.82 436.96 140.65 
M 436.55 132.01 439.75 135.21 
M 159.73 104.51 160.05 105.15 
M 162.43 100.64 164.36 104.51 
M 165.04 96.62 168.67 103.88 
M 167.98 93.24 172.98 103.25 
M 169.8 87.61 177.33 102.67 
M 171.81 82.38 181.67 102.1 
M 173.61 76.72 174.99 79.48 
M 176.83 83.16 182.35 94.2 
M 176.1 72.44 190.42 101.09 
M 184.37 79.72 194.49 99.97 
M 190.1 81.93 191.02 83.77 
M 193.78 89.29 198.38 98.49 
M 189.03 70.53 190.87 74.21 
M 197.31 87.09 201.91 96.29 
M 190.81 64.84 194.03 71.28 
M 196.79 76.8 198.63 80.48 
M 200.47 84.16 205.07 93.36 
M 194.31 62.57 197.53 69.01 
M 198.45 70.85 209.49 92.94 
M 212.96 99.88 213.21 100.37 
M 198.84 62.38 214.94 94.58 
M 217.52 99.74 217.81 100.31 
M 203.07 61.57 203.53 62.49 
M 206.29 68.01 222.39 100.22 
M 206.87 59.91 226.98 100.13 
M 210.32 57.56 224.58 86.08 
M 225.5 87.92 226.42 89.76 
M 227.34 91.6 231.56 100.04 
M 214.61 56.88 222.43 72.52 
M 223.35 74.36 227.95 83.56 
M 228.87 85.4 236.15 99.97 
M 219.84 58.09 226.74 71.89 
M 227.66 73.73 229.5 77.41 
M 230.42 79.25 240.77 99.95 
M 224.17 57.49 230.16 69.46 
M 234.76 78.66 243.04 95.22 
M 228.01 55.9 232.15 64.19 
M 235.83 71.55 246.87 93.63 
M 241.37 73.36 250.57 91.76 
M 251.49 93.6 254.69 100 
M 238.98 59.34 249.11 79.58 
M 250.95 83.26 251.87 85.1 
M 254.63 90.62 259.37 100.11 
M 242.67 57.45 252.33 76.77 
M 259.69 91.5 263.48 99.08 
M 247.19 57.23 255.01 72.87 
M 261.45 85.75 264.21 91.27 
M 251.73 57.05 259.55 72.69 
M 263.23 80.05 269.67 92.94 
M 255.8 55.94 263.62 71.59 
M 267.3 78.95 274.67 93.67 
M 259.42 53.93 267.24 69.57 
M 273.68 82.45 276.44 87.97 
M 281.97 99.01 282.92 100.92 
M 263.07 51.96 272.73 71.28 
M 278.25 82.32 288.38 102.59 
M 270.53 57.62 280.19 76.94 
M 281.11 78.78 293.35 103.25 
M 275.8 58.91 282.7 72.71 
M 286.38 80.07 298.35 104 
M 284.22 66.49 286.52 71.09 
M 291.12 80.29 303.44 104.93 
M 291.01 70.8 292.39 73.56 
M 294.23 77.24 305.27 99.33 
M 307.11 103.01 308.53 105.85 
M 303 85.53 305.34 90.2 
M 225.23 291.39 220.94 297.7 
M 225.23 291.39 225.74 297.7 
M 222.47 295.6 225.47 295.6 
M 228.5 293.5 226.61 299.8 
M 228.23 294.39 229.01 293.8 229.7 293.5 230.6 293.5 231.11 293.8 231.53 294.39 231.56 295.3 231.38 295.89 230.81 296.8 230.03 297.39 229.33 297.7 228.44 297.7 227.93 297.39 227.51 296.8 
M 233.36 295.3 236.96 295.3 237.14 294.7 237.02 294.1 236.3 293.5 235.4 293.5 234.71 293.8 233.93 294.39 233.36 295.3 233.18 295.89 233.21 296.8 233.63 297.39 234.14 297.7 235.04 297.7 235.73 297.39 236.51 296.8 
M 239.6 293.5 238.33 297.7 
M 239.24 294.7 240.41 293.8 241.1 293.5 242 293.5 242.51 293.8 242.54 294.7 241.64 297.7 
M 245.63 291.39 245.83 291.7 246.23 291.39 246.02 291.1 245.63 291.39 
M 245.3 293.5 244.04 297.7 
M 247.7 293.5 246.8 296.5 246.83 297.39 247.33 297.7 248.24 297.7 248.93 297.39 250.1 296.5 
M 251 293.5 249.74 297.7 
M 256.13 294.39 256.01 293.8 255.2 293.5 254.3 293.5 253.31 293.8 252.83 294.39 252.95 295 253.46 295.3 254.87 295.6 255.38 295.89 255.41 296.8 254.93 297.39 253.94 297.7 253.04 297.7 252.23 297.39 252.11 296.8 
M 262.43 291.39 260.89 296.5 260.93 297.39 261.44 297.7 262.03 297.7 
M 260.89 293.5 263 293.5 
M 265.1 293.5 263.83 297.7 
M 264.55 295.3 265.13 294.39 265.9 293.8 266.59 293.5 267.5 293.5 
M 269.33 291.39 269.53 291.7 269.93 291.39 269.71 291.1 269.33 291.39 
M 269 293.5 267.74 297.7 
M 273.83 291.39 273.22 291.39 272.53 291.7 271.96 292.6 270.44 297.7 
M 270.8 293.5 272.89 293.5 
M 276.2 293.5 275.51 293.8 274.72 294.39 274.15 295.3 273.97 295.89 274.01 296.8 274.43 297.39 274.94 297.7 275.83 297.7 276.52 297.39 277.31 296.8 277.88 295.89 278.06 295.3 278.02 294.39 277.61 293.8 277.09 293.5 276.2 293.5 
M 280.7 293.5 279.44 297.7 
M 280.15 295.3 280.72 294.39 281.51 293.8 282.2 293.5 283.09 293.5 
M 287.33 294.39 287.2 293.8 286.39 293.5 285.5 293.5 284.51 293.8 284.02 294.39 284.14 295 284.65 295.3 286.07 295.6 286.58 295.89 286.61 296.8 286.13 297.39 285.14 297.7 284.24 297.7 283.43 297.39 283.31 296.8 
M 290.02 291.39 290.24 291.7 290.63 291.39 290.41 291.1 290.02 291.39 
M 289.7 293.5 288.44 297.7 
M 294.83 294.39 294.7 293.8 293.89 293.5 293 293.5 292.01 293.8 291.52 294.39 291.64 295 292.15 295.3 293.57 295.6 294.08 295.89 294.11 296.8 293.63 297.39 292.64 297.7 291.74 297.7 290.92 297.39 290.81 296.8 
M 296.41 297.1 296.02 297.39 296.24 297.7 296.63 297.39 296.41 297.1 
"/></svg>
