<svg xmlns="http://www.w3.org/2000/svg" width="520" height="320"><rect x="0" y="0" width="520" height="320" fill="floralwhite"/><rect x="10" y="10" width="500" height="300" stroke="black" stroke-width="1" fill="none"/><path stroke="black" stroke-width="1" fill="none" stroke-linecap="round" stroke-linejoin="round" d="
M 145.19 131.07 150.93 128.69 159.93 125.63 169.09 123.11 178.36 121.05 187.76 119.65 206.47 116.32 225.34 114.11 234.78 113.01 244.27 113.35 263.01 116.49 291.2 120.68 300.55 122.34 309.81 124.49 318.98 126.99 328.02 129.88 336.86 133.38 345.44 137.46 353.77 142.02 367.58 150.51 
M 367.58 202.49 360.77 206.12 352.29 210.39 335.11 218.51 326.47 222.48 317.63 225.94 299.53 231.72 290.32 234.06 271.71 237.91 262.33 239.4 252.89 240.5 233.89 240.82 224.41 241.29 214.9 241.31 205.44 240.51 186.72 237.25 168.54 231.73 159.36 229.28 154.39 227.49 
M 186.77 168.3 190.01 168.66 
M 196.2 169.03 199.05 168.93 
M 205.16 169.11 210.35 169.84 213.6 170.1 216.42 169.92 217.71 169.65 
M 220.38 169.2 221.76 169.01 226.34 168.86 
M 234.09 167.11 236.27 166.31 
M 238.63 165.79 242.38 165.26 247.2 164.91 253.96 164.95 
M 259.75 165.21 265.82 165.66 
M 268.82 165.82 274.95 166.13 
M 278.06 166.32 282.58 166.5 287.86 166.02 292.06 165.86 
M 294.98 165.82 309.88 165.58 
M 312.93 165.56 336.33 165.8 344.61 165.56 347.66 165.9 357.34 167.91 362.66 168.44 367.58 169.3 
M 158.36 219.78 159.21 222.46 
M 159.87 224.93 160.75 229.65 
M 164.78 213.75 165.8 216.73 
M 166.69 219.56 167.41 222.22 
M 168.74 229.2 168.98 231.87 
M 163.65 131.78 162.09 134.05 
M 160.72 136.52 158.93 140.53 157.52 144.94 
M 155.88 151.08 155.18 154.28 
M 154.69 157.69 154.2 161.83 
M 169.12 203.42 171.15 208.56 173.72 216.28 
M 174.58 219.19 175.69 224.31 
M 179.83 125.95 177.63 129.35 176.78 130.38 
M 172.37 137.38 170.15 142.88 
M 168.42 148.9 167.68 152.06 
M 166.84 155.11 165.55 159.68 164.65 165.07 
M 167.84 173.68 167.86 173.76 
M 184.23 228.76 183.66 231.15 183.73 232.2 
M 184.18 234.58 184.82 236.69 
M 189.59 128.44 189.03 129.74 188.3 130.87 
M 182.23 139.93 181.16 142.69 
M 180.33 145.72 179.96 147.28 179.79 149.05 
M 178.58 159.52 177.52 162.37 
M 187.83 209.3 189.28 214.04 190.4 218.38 
M 191.18 223.38 191.57 227.85 
M 196.56 135.65 195.38 138.23 
M 194.04 140.66 191.87 144.22 190.65 146.84 190.27 148.4 
M 189.69 151.7 188.78 160.54 188.07 163.74 186.99 166.59 186.16 168.26 
M 197.08 216.9 198.55 224.65 
M 199.06 229.18 199.13 230.24 199.94 233.98 
M 200.65 236.61 201.29 239.27 
M 210.63 128.17 209.52 130.73 
M 206.84 135.46 206.16 136.64 204.65 140.78 
M 203.69 143.61 200.43 151.91 
M 199.31 154.7 198.78 156.12 198 159.26 196.43 169.06 
M 202.42 208.93 202.96 211.66 
M 203.89 216.86 204.37 219.42 
M 205.63 224.75 207.36 230.43 
M 208.77 235.69 210.06 240.7 
M 220.48 127.46 219.28 129.92 
M 216.72 134.73 215.36 137.1 
M 214.06 139.55 213.45 140.83 213.03 142.3 
M 211.71 148.64 210.2 154.91 
M 209.33 157.96 207.97 162.52 206.24 169.22 
M 210.22 205.66 210.25 207.26 
M 211.19 214.62 212.05 217.54 
M 213.91 223.43 214.75 226.24 
M 215.59 229.01 218.57 237.63 
M 219.23 239.77 219.44 240.54 
M 230.03 123.04 228.32 128.54 
M 227.3 131.15 226.05 133.56 
M 224.75 135.95 224.11 137.16 223.08 139.87 222.7 141.36 
M 222.01 144.46 220.93 151.06 
M 220.31 154.32 218.08 163.93 
M 219.54 206.88 219.38 208.58 
M 222.81 220.13 223.85 223.12 
M 224.57 225.75 225.68 229.68 229.69 239.68 
M 237.52 129.04 236.18 131.34 
M 233.51 135.99 232.26 138.45 
M 231.24 141.15 230.8 142.59 230.22 147.68 
M 229.91 151.2 229.45 156.54 228.97 159.97 228.18 163.13 227.65 164.59 
M 226.83 175.81 226.83 175.85 
M 228.76 206.98 228.8 208.04 229.07 209.33 
M 229.79 212.06 231.25 216.47 233.72 222.77 241.25 240.19 
M 248.86 122.28 247.96 125.06 
M 246.26 130.73 245.75 132.05 242.3 137.84 
M 240.1 143.07 239.64 144.49 238.47 150.86 237.4 155.53 
M 235.87 161.77 234.31 166.96 
M 234.87 175.58 234.91 176.13 
M 239.24 205.64 239.48 207.87 
M 240.06 210.42 241.79 216.03 
M 243.06 219.21 244.68 222.72 
M 248.18 229.96 249.81 233.44 
M 251.42 236.88 253.06 240.48 
M 255.53 125.46 254.73 128.39 
M 253.95 131.35 252.16 136.99 
M 251.19 139.73 249.13 145.1 
M 245.47 156.4 245.19 158.01 244.31 160.95 242.02 165.28 
M 249.86 206.59 250.46 209.13 
M 251.51 212.1 252.9 215.42 
M 254.45 218.87 260.39 232.33 
M 261.87 235.68 263.41 239.23 
M 261.72 135.7 260.53 140.12 257.63 146.47 
M 256.53 149.04 254.27 154.12 
M 252.21 159.43 251.22 162.14 
M 250.42 164.22 250.13 164.94 
M 260.09 202.47 262.24 209.81 
M 263.15 212.64 267.05 224.16 
M 269.59 230.51 271.5 234.92 
M 272.65 131.61 271.9 134.67 
M 270.99 137.56 269.97 140.31 
M 268.82 142.9 266.12 147.56 
M 264.85 149.92 261.18 158.82 259.83 163.37 
M 270.26 201.5 271.49 206.93 274.06 214.34 
M 275.06 217.28 279.16 229.16 
M 279.54 138.74 278.61 141.62 
M 277.38 144.14 275.24 147.53 274.05 149.96 272.81 154.07 
M 272.11 156.9 269.19 165.86 
M 272.76 175.1 273.67 177.51 
M 279.14 198.42 280.16 202.03 
M 280.94 204.73 282.37 209.11 285.01 215.72 289.13 227.08 
M 287.79 139.59 286.56 142.18 
M 285.19 144.59 283.26 148.21 280.97 154.86 
M 280.2 157.58 279.84 158.96 279.24 166.38 
M 289.17 197.23 290.13 202.72 290.87 205.46 294.02 213.69 
M 295.37 217.07 298.89 226.66 
M 299.24 135.73 297.05 139.54 293.24 147.33 289.41 157.98 288.75 160.8 288.22 165.99 
M 298.74 193.27 299.58 196.26 
M 300.32 198.79 301.9 204.16 
M 302.82 207.07 304.16 211.48 306.13 219.65 307.41 223.94 
M 309.48 134.19 307.25 138.11 304.86 143.81 302.79 149.57 301.74 154.2 
M 301.02 157.19 300.08 159.9 
M 307.74 190.51 308.37 192.42 
M 310.18 197.76 311.19 200.62 
M 312.21 203.55 313.19 206.51 
M 315.38 214.88 317.08 222.68 
M 323.46 128.42 320.36 133.22 
M 316.38 141.75 314.87 146.39 312.58 152.12 310.93 158.26 309.91 161.04 309.27 162.26 
M 316.21 188.23 318.16 193.34 
M 319.07 196.09 321.17 203 323.89 213.92 325.19 219.78 
M 328.18 138.23 327.61 139.78 325.84 146.43 321.97 154.97 318.48 163.43 317.39 165.66 
M 318.95 169.63 319.82 172.13 
M 320.74 174.7 321.73 177.39 
M 324.74 185.71 329.71 201.31 330.89 206.57 333.68 216.98 
M 337.68 141.77 336.36 144.73 
M 335.11 147.76 333.41 152.46 330.98 158.48 327.56 165.66 
M 331.85 178.07 332.32 179.58 
M 333.49 183.54 336.66 193.75 339.88 205.22 342.91 214.76 
M 351.04 141.75 347.87 145.02 345.95 147.43 344.17 149.99 342.63 152.8 341.32 155.84 337.57 165.77 
M 340.01 173.02 340.86 175.85 
M 341.71 178.72 343.67 184.81 
M 344.7 187.94 349.29 204.11 350.9 210.99 
M 360.9 147.94 359.04 150.38 
M 357.08 152.77 351.67 158.34 349.66 160.74 348.78 162.07 
M 347.28 164.56 346.64 165.71 
M 349.91 174.06 350.78 177.02 
M 351.7 180.04 354.41 188.08 356.89 196.92 357.45 199.57 358.41 206.11 
M 358.63 169.76 361.34 171.07 
M 312.16 172.72 311.96 171.97 312 170.73 311.75 169.38 
M 256.58 165.06 257.22 163.98 259.63 161.69 260.09 160.29 260.47 159.62 
M 233.97 174.35 234.84 172.6 235.09 171.64 235.12 167.75 
M 344.7 145.48 342.59 146.11 341.7 146.69 341.34 147.52 340.93 149.31 340.48 150.04 339.88 150.56 
M 193.04 210.1 194.65 212.36 196.18 213.17 
M 261.46 171.8 261.02 170.37 258.57 167.8 257.34 166.1 257.04 165.08 257.15 164.57 257.73 163.67 
M 335.25 187.31 337.39 185.95 338.34 184.95 340.72 183.07 
M 193.44 211.21 194.32 212.75 195.57 213.38 
M 365.92 194.73 367.58 193.61 
M 226.94 220.24 225.87 222.62 224.67 223.57 
M 184.5 209.48 185.43 212 186.06 212.77 186.92 213.2 189.56 213.73 190.81 214.32 
M 221.03 207.25 220.57 207.97 218.93 208.84 
M 264.89 141.74 263.41 141.09 262.57 140.96 
M 204.4 170.81 204.46 170.01 204.04 168.45 202.78 166.48 201.37 163.07 201.46 161.54 
M 169.05 225.46 168.57 223.48 169.08 222.36 170.31 221.38 172.39 220.17 172.86 220.13 
M 210.07 211.85 211.17 212.29 211.92 212.88 213.39 215.65 
M 219.63 130.06 222.06 129.26 222.4 129.34 
M 348.78 159.77 348.53 158.87 348.22 158.37 347.43 157.68 346.39 157.61 345.15 158.16 
M 324.85 197.32 323.33 198.24 320.45 199.35 319.5 200.02 319.38 200.46 319.47 200.92 319.9 202.65 320.28 203.16 
M 235.15 143.06 235.46 142.66 236.16 142.71 
M 357.99 207.52 357.1 207.33 
M 332.6 148.63 334.74 149.24 335.57 149.33 
M 365.77 156.39 366.57 155.05 367.21 153.53 367.58 153.15 
M 330.13 219.06 330.65 220.55 
M 247.75 116.23 246.3 115.61 244.69 115.52 243.81 115.23 241.76 113.26 
M 235.38 123.22 235.99 122.39 236.39 121.25 236.89 119.28 237.12 117.32 
M 158.07 126.62 159.03 127.33 159.57 128 159.98 128.89 159.66 129.57 
M 233.91 113 234.95 111.15 235.55 108.84 236.31 106.77 238.18 103.01 238.6 100.85 238.63 98.42 243.01 87.87 243.52 85.69 244.46 83.28 245.95 81.77 247.1 80 248.32 75.6 249.83 73.45 250.6 71.91 252.09 70.05 252.19 68.27 252.5 66.45 254.17 63.4 259.77 59.12 262.68 55.61 265.19 53.95 267.42 50.99 268.38 49.32 269.85 48.54 271.59 47.05 272.53 45.3 276.8 41.53 279.26 40.36 283.52 38.94 285.66 37.56 287.24 35.24 290.14 32.41 292.24 31.86 294.44 29.99 292.12 36.68 292.35 38.55 294.39 43.89 294.41 45.56 296.06 53.56 296.71 55.8 297.01 57.67 296.96 59.58 297.22 61.82 296.19 63.79 294.93 65.57 292.14 71 292.57 73.69 292.31 75.81 292.82 78.7 292.71 82.82 293.56 87.71 290.46 93.22 289.95 95.05 290.21 97.05 291.44 101.69 291.46 105.67 291.81 107.65 291.6 109.27 291.84 111.45 292.47 113.86 293.72 116.51 294.53 118.89 294.13 120.55 294.82 121.27 
M 295.95 121.45 295.95 121.45 
M 237.55 113.04 238.82 108.95 240.9 105.19 241.53 102.85 241.86 98.79 242.72 96.76 243.91 94.52 244.34 92.33 245.44 89.98 246.13 87.46 246.52 84.75 251.08 78.05 251.77 75.86 254.48 70.77 255.21 68.54 257.78 65.53 260.23 63.38 261.71 62.73 262.86 61.31 263.61 59.62 264.81 58.09 267.72 56.81 269.96 54.78 271.45 51.21 273.57 50.01 277.6 46.52 279.33 44.58 281.7 42.92 287.19 41.63 289.26 40.75 
M 241.2 113.07 242.12 111.23 244.33 104.9 244.58 102.76 245.93 98.51 246.92 96.88 248.4 95.23 249.22 93.09 250.12 87.72 250.85 85.59 251.65 83.94 252.96 82.53 253.99 80.28 254.87 77.68 256.01 75.37 257.12 73.89 258.95 73.22 259.95 72.64 261.3 71.3 
M 244.83 113.45 246.11 111.86 247.14 109.89 247.48 107.76 248.17 105.45 248.97 102.91 249.87 100.83 250.76 99.12 252.27 96.91 253.83 95.26 254.77 93.62 255.63 89.08 256.25 87.69 257.58 85.82 259.91 81.66 262.2 79.43 267.31 75.4 268.47 75.04 271.92 71.95 273.97 70.75 275.43 68.87 
M 248.42 114.08 249.85 112.63 250.7 110.47 251.13 108.27 251.76 106.12 252.74 103.95 253.54 101.37 255.63 97.78 257.22 93.86 259.29 90.29 260.76 88.77 262.77 87.54 264.32 85.96 266.17 84.43 267.73 82.24 269.12 79.82 
M 252.01 114.71 253.15 113.22 253.85 111.32 254.27 109.22 256.79 102.87 257.77 100.82 259 98.83 260.6 94.69 263.78 90.89 268.35 86.93 269.9 84.89 270.96 82.76 272.28 81.95 273.09 80.52 275.47 79.51 278.24 79.38 280.69 77.57 283.22 74.53 285.11 72.66 
M 255.61 115.28 256.45 113.74 258.11 109.67 258.83 107.38 259.35 105.09 261.42 101.39 263.04 97.52 264.99 95.44 266.99 93.72 268.17 91.6 269.26 90.24 270.48 89.07 
M 259.21 115.86 260.3 114.33 260.9 112.25 261.18 110.2 261.99 107.99 263.02 105.99 264.67 104.71 266 102.85 267.76 98.53 270.75 93.62 272.28 91.71 273.25 90.21 275.9 88.12 277.75 87.25 280 86.52 283.25 85.95 
M 262.81 116.45 264.11 114.84 264.36 112.91 266.88 106.66 268.41 104.69 270.32 103.09 271.22 101.15 271.65 99.58 273.22 96.86 275.34 94.6 277.08 93.12 278 91.71 280.67 89.78 285.63 88.35 288.79 87.74 
M 266.4 117.06 267.57 115.48 268.4 110.79 269.43 108.77 270.71 107.03 272.18 105.46 273.81 104.53 274.79 102.98 275.89 100.12 277.58 97.92 279.57 96.58 
M 270 117.64 271.45 113.71 272.44 111.5 275.38 106.19 277.57 104.72 280.41 101.1 284.1 98.56 
M 273.62 118.08 274.67 116.31 275.57 114.07 277.29 110.79 277.87 108.96 284.05 104.27 285.41 102.61 
M 277.24 118.52 278.83 116.82 279.65 114.9 279.93 113.53 279.91 111.83 281.6 110.09 
M 280.85 119.05 282.52 117.87 282.76 116.52 282.59 114.63 283.27 112.96 285.46 111.47 289.44 109.5 
M 284.45 119.61 285.29 119.6 285.81 117.8 287.71 116.45 
M 288.05 120.17 289.31 119.98 
M 291.65 120.76 294.7 121.13 
M 152.79 171.92 359.59 179.67 359.57 180.4 152.98 174.51 
M 153.02 175.03 334.12 190.15 334.07 190.87 153.2 177.63 
M 153.23 178.16 308.45 198.33 308.36 199.06 153.38 180.77 
M 153.41 181.31 282.73 204.24 282.61 204.96 153.49 183.92 
M 153.5 184.45 257.12 207.87 256.96 208.58 153.62 187.08 
M 153.7 187.64 231.76 209.24 231.58 209.95 154.1 190.35 
M 154.2 190.97 206.82 208.39 206.6 209.08 154.78 193.71 
M 154.97 194.5 182.43 205.34 182.18 206.02 155.59 197.13 
M 155.82 198.26 158.75 199.8 158.47 200.47 156.13 199.74 
M 338.5 179.8 333.07 180.88 327.81 182.37 322.79 184.49 315.61 188.6 
M 315.54 189.52 310.16 190.12 304.9 191.14 299.83 192.8 292.51 196.26 
M 292.4 197.17 287.09 197.3 281.88 197.85 276.79 199.07 269.37 201.87 
M 269.21 202.78 264.02 202.43 258.87 202.53 253.81 203.29 246.32 205.43 
M 246.13 206.33 238.55 205.28 233.52 205.24 228.51 205.88 223.51 206.96 
M 223.27 207.85 218.39 206.61 213.49 205.81 208.54 205.68 201.06 206.48 
M 200.79 207.36 196.11 205.69 191.38 204.46 186.53 203.89 179.12 204.03 
M 178.81 204.89 174.38 202.74 169.84 201.02 165.14 199.95 157.81 199.31 
M 335.78 180.31 330.41 181.56 327.81 182.37 322.79 184.49 317.97 187.16 
M 317.09 179.74 312.26 180.85 309.92 181.59 305.39 183.49 301.06 185.9 
M 298.4 179.16 294.11 180.15 289.99 181.59 288 182.5 284.15 184.63 
M 279.71 178.58 274.13 180.02 270.61 181.5 267.24 183.37 
M 261.02 178.01 256.24 179.24 253.22 180.51 250.34 182.11 
M 242.33 177.43 238.34 178.46 235.83 179.52 233.43 180.85 
M 223.64 176.85 220.45 177.67 218.44 178.52 216.52 179.59 
M 312.84 189.79 307.51 190.55 304.9 191.14 299.83 192.8 294.93 195.03 
M 293.71 188.35 289 189.03 286.7 189.54 282.22 191.01 277.89 192.98 
M 274.58 186.91 270.49 187.5 268.49 187.95 264.61 189.22 260.85 190.93 
M 255.45 185.47 251.99 185.97 248.63 186.84 243.81 188.88 
M 236.32 184.03 232.09 184.75 229.39 185.64 226.77 186.83 
M 217.19 182.6 213.89 183.16 211.77 183.85 209.73 184.78 
M 289.74 197.21 284.47 197.5 281.88 197.85 276.79 199.07 271.83 200.86 
M 270.02 194.85 265.49 195.1 263.26 195.41 258.88 196.45 254.61 197.99 
M 250.3 192.5 246.5 192.71 242.79 193.34 237.4 195.12 
M 230.58 190.14 226.02 190.51 223.07 191.22 220.19 192.26 
M 210.86 187.78 207.4 188.07 205.16 188.6 202.98 189.39 
M 266.61 202.58 261.44 202.41 258.87 202.53 253.81 203.29 248.81 204.64 
M 246.01 199.2 241.74 199.06 239.62 199.16 235.44 199.79 231.32 200.9 
M 225.41 195.83 220.38 195.8 217.08 196.29 213.83 197.17 
M 204.8 192.45 201.13 192.43 198.72 192.79 196.34 193.43 
M 243.6 205.9 238.55 205.28 233.52 205.24 231.01 205.49 226.01 206.39 
M 221.5 201.31 217.63 200.83 213.77 200.8 211.85 200.99 208.01 201.68 
M 199.4 196.71 196.7 196.38 194.02 196.36 190.01 196.97 
M 220.84 207.2 215.95 206.13 213.49 205.81 208.54 205.68 203.56 206.14 
M 195.65 200.87 190.88 199.97 187.66 199.88 184.42 200.18 
M 198.46 206.5 193.76 205 191.38 204.46 186.53 203.89 181.6 203.91 
M 207.32 240.83 212.78 247.14 215.12 250.43 220.18 260.74 218.86 261.75 218.49 266.42 217.17 268.14 216.2 270.15 215.61 272.28 213.85 273.57 213.32 279.12 211.17 280 207.03 276.38 198.98 269.86 191.95 264.72 190.31 266.11 189.33 268 187.17 267.84 183.35 266.05 176.51 243.87 175.28 238.45 174.18 235.57 171.86 232.56 
M 203.72 240.22 208.08 245.4 209.4 247.69 210.97 249.91 213.02 252.01 214.68 254.26 
M 200.13 239.61 202.48 242.33 210.24 253.57 211.16 256.14 
M 196.53 239.04 199.21 241.82 200.66 244.15 202.41 246.19 203.27 248.77 204.78 250.92 206.49 252.98 207.68 255 208.11 256.91 209.69 258.95 
M 192.92 238.51 197 243.63 199.92 247.88 202.56 252.3 203.92 256.12 205.17 258.47 206.44 260.42 207.44 263.47 208.93 265.36 
M 189.32 237.94 190.87 240.51 191.98 243.05 196.38 249.19 197.22 251.5 198.88 254.33 199.41 258.01 200.45 260.22 202.14 262.74 202.86 264.68 203.91 266.45 204.87 269.07 206.53 271.7 
M 185.79 237 187.67 240.11 188.67 242.75 190.57 246.73 191.96 248.86 193.55 250.8 194.83 252.89 
M 182.27 236.06 184.3 239.43 186.7 244.87 186.97 246.98 187.42 248.41 188.34 250.13 190.05 255.28 
M 178.79 234.97 180.21 237.95 181.63 243.84 183.27 247.73 183.31 249.16 183.8 251.92 184.67 254.15 185.1 256.29 184.84 257.37 185.84 259.95 186.98 263.63 
M 175.35 233.77 176.65 236.83 178.02 242.09 178.58 244.95 178.88 248.35 179.79 249.81 
M 349.13 211.95 351.84 214.87 354.33 218.29 354.48 222.04 353.94 224.45 352.81 226.36 351.09 227.72 350.51 229.8 348.92 231.23 347.15 232.34 344.17 232.11 342.35 233.05 341.29 235.06 339.6 236.41 338.54 238.39 335.87 241.88 334.23 242.95 331.73 242.54 329.62 242.58 327.02 242.29 321.96 242.41 319.96 243.34 317.54 243.78 312.91 243.83 307 245.23 304.05 246.66 301.97 247.01 293.14 241.37 291.1 238.97 287.09 234.77 
M 345.82 213.48 348.49 216.17 350.29 218.87 
M 342.51 215.01 345.38 217.56 347.29 219.94 349.73 221.3 351.93 223.69 
M 339.21 216.55 344.3 221.58 345.38 223.35 348.21 224.61 
M 335.91 218.12 339.34 221.16 342.18 223.05 343.58 224.53 
M 332.62 219.69 335.79 223.05 338.69 224.85 
M 329.31 221.21 331.82 224.51 334.33 225.93 
M 325.98 222.7 328.84 225.57 330.47 227.79 337.35 233.96 
M 322.65 224.19 325.49 227.11 329.43 231.56 
M 319.21 225.39 323.74 231.06 325.78 233.21 
M 315.76 226.59 318.84 229.89 320.71 232.34 322.31 233.8 324.3 236.09 
M 312.31 227.74 319.56 235.32 321.1 236.58 322.65 238.53 
M 308.83 228.83 313.43 233.69 316.8 236.52 
M 305.35 229.92 308.16 232.71 309.8 234.76 312.46 237.22 
M 301.86 231 304.96 234.16 306.48 236.38 308.02 238.18 
M 298.38 232.07 303.97 238.29 304.99 239.99 309.06 242.79 311.54 244.21 
M 294.87 233.06 297.53 237.02 299.75 239.6 301.38 240.66 302.11 242.14 304.02 244 
M 291.31 233.84 295.36 239.74 299 243.11 
M 366.85 149.99 368.98 149.47 377.12 145.48 379.03 144.01 380.76 142.28 382.62 140.81 387.2 139.09 389.01 138.12 391.03 137.52 392.46 136.41 396.72 134.26 398.79 132.7 401.45 128.92 404.52 126.7 409.76 124.66 411.08 123.97 412.82 122.31 416.8 120.07 417.88 118.39 419.23 117.33 420.97 117.05 423.2 115.88 425.55 114.07 427.35 112.46 429.07 112.06 430.47 110.41 433.02 110.04 436.63 108.13 439.99 105.08 440.82 103.82 443.89 103.11 445.54 101.85 445.89 99.74 447.59 97.77 442.89 113.01 441.38 114.31 438.96 117.49 437.82 124.89 435.82 125.97 434.18 127.41 432.89 129.2 432.8 132.2 427.25 138.84 425.75 140.37 424.46 142.12 422.89 143.58 421.57 145.34 419.96 146.82 417.47 150.51 415.36 151.5 414.28 153.25 413.63 155.43 413.25 157.89 412.41 160.12 408.53 162.24 406.44 163.14 404.69 164.48 404.17 166.79 404.2 169.65 401.84 172.99 400.9 177.61 399.16 180.84 401.88 189.13 401.88 191.05 403.85 196.62 404.04 198.53 404.62 200.8 404.86 202.68 406.77 206.46 407.71 209.8 407.5 211.37 407.83 213.49 410.34 218.67 411.62 222.45 412.14 224.83 412 226.55 413.24 230.47 412.72 234.91 410.54 234.09 409.72 233.43 408.65 232.12 408.13 230.54 405.54 228.75 400.94 225.99 398.5 224.99 396.81 223.58 394.52 222.59 392.22 222.5 390.59 221.7 389.25 219.65 388.33 217.62 386.2 215.9 383.64 214.21 379.38 211.83 371.95 206.19 369.72 204.89 366.85 202.94 
M 366.85 152.64 369.09 152.1 376.94 148.85 379.02 147.71 385.42 143.41 390.22 142.04 391.67 140.95 397.53 139.35 401.48 136.61 402.77 134.11 404.66 132.42 408.31 131.24 410.89 129.77 416.55 125.81 420.69 124.39 422.31 123.28 424.27 123.32 
M 369.05 154.85 371.17 153.88 375.48 152.31 377.66 151.78 383.07 149.19 385.01 147.98 387.72 147.13 390.16 145.79 392.78 144.7 394.51 144.11 396.99 144.02 399.16 143.03 402.26 139.77 403.5 138.78 408.69 136.32 411.42 136.13 415.39 133.55 418.44 132.1 420.39 130.72 422.9 130.41 425.09 130.78 
M 373.55 155.63 375.73 154.99 377.96 154.68 384.15 152.81 386.06 151.99 390.02 150.64 394.86 147.65 396.59 146.78 399.2 146.46 
M 373.53 159.1 375.8 158.43 381 157.52 383.62 156.78 384.98 156.58 386.79 155.72 391.04 154.3 393.23 153.37 396.25 152.46 397.64 151.43 401.61 150.93 405.88 149.97 407.37 149.07 411.53 147.43 414.45 146.96 
M 373.97 162.37 380.62 160.38 384.89 159.88 389.73 159.07 392.44 158.1 397.52 157.79 399.9 157.42 
M 374.58 165.68 376.7 164.65 382.79 162.94 387.33 163.06 389.49 162.9 395.64 162.14 398.21 161.21 400.14 161.73 
M 370.08 168.7 372.09 168.59 374.33 168.68 378.55 168.37 380.56 168.54 385.72 167.95 388.12 167.92 390.48 167.6 392.76 166.52 
M 370.19 171.45 372.33 171.44 376.88 171.81 379.01 172.12 380.61 172.96 383.23 172.81 386.22 172.86 
M 370.49 174.23 374.56 174.59 377.05 175.05 379.87 175.79 384.82 176.22 386.76 176.78 
M 372.85 177.6 375.65 177.28 378.16 177.59 380.52 178.17 382.7 179.1 384.93 178.87 387.03 179.19 390.05 179.93 392.65 179.97 
M 372.5 180.45 374.79 181.33 377.26 181.58 382.75 182.6 385.17 182.39 387.92 182.4 390.44 182.96 394.41 184.19 
M 366.85 181.76 372.59 183.82 374.67 184.71 380.02 185.5 382.57 185.25 384.93 185.52 388.07 186.14 
M 374.55 187.69 377.39 188.33 379.63 188.63 381.5 188.23 383.84 188.8 386.57 189.16 389.24 190.58 393.96 192.36 397.01 192.08 
M 366.85 187.06 372.12 189.41 374.62 190 377.08 190.93 380.8 191.29 382.86 191.93 387.59 195.07 389.77 196.23 392.43 196.19 
M 366.85 189.7 370.02 191.25 377.1 193.94 379.3 194.25 383.27 195.15 385.6 196.97 
M 372.19 195.17 374.38 196.26 376.89 197.14 381.5 197.97 386.25 200.48 388.76 201.38 
M 366.85 195 369.6 196.83 373.92 199.33 381.18 201.52 383.16 202.6 387.07 205.37 391.43 206.8 392.41 208.74 394.52 209.87 396.59 211.37 399.02 212.01 401.36 212.16 403.55 212.74 
M 371.53 200.77 373.72 202.09 378.09 204.19 380.22 205.49 382.54 207.21 384.44 208.16 386.67 208.82 388.92 209.91 391.15 210.33 393.27 212.35 395.96 214.21 
M 371.67 203.41 376.14 205.74 378.44 207.4 380 209.11 381.99 210.57 386.48 212.34 388.92 213.89 390.48 215.21 
M 303.44 121.79 306.01 122.29 307.44 122.06 310.1 120.77 311.46 120.66 313.63 124.19 316.53 125.07 317.99 124.9 320.53 123.6 322.04 124.02 323.9 126.84 324.89 127.86 327.52 128.68 328.97 128.43 331.63 127.49 332.7 128.5 334.02 130.86 335.26 131.64 338.5 133.07 341.62 132.93 342.99 133.42 344.31 135.8 345.35 136.78 347.8 137.92 349.09 137.77 351.81 137.99 353.23 140.43 354.31 141.59 356.31 142.77 357.99 144.46 
M 86.97 174.08 89.88 168.66 91.98 165.52 94.3 162.69 106.89 150.67 111.06 147.67 115.21 144.41 119.71 141.63 132.96 135.24 136.89 133.66 140.43 132.44 145.16 131.05 149.64 135.72 150.99 140.74 152.56 150.86 152.87 161.1 152.39 166.28 153.43 181.59 153.56 186.72 154.32 191.78 156.57 201.85 157.68 212.01 157.93 217.13 157.64 222.29 154.19 227.82 146.02 227.97 140.13 227.6 134.88 226.72 130.05 225.17 125.74 222.84 121.75 220.07 117.72 216.81 110.17 209.15 106.46 204.67 
M 97.41 192.62 96.28 191.02 
M 135.95 160.64 136.15 165 136.11 169.17 135.8 173.1 135.29 176.72 135.31 180.07 135.81 183.2 137.09 188.94 139.09 195.24 140 198.98 138.6 203.6 129.6 205.2 126.02 205.64 122.46 205.46 119.1 204.39 115.83 202.56 112.45 199.87 
M 104.72 202.98 99.72 196.24 96.77 191.61 93.17 187.44 85.46 177.29 85.07 175.5 86.24 174.11 88.14 174.04 89.49 175.34 94.89 184.37 98.95 190.63 103.32 198.68 106.82 204.43 
M 106.28 204.95 103.07 203.18 100.12 201.2 87.65 194.22 84.39 192.18 76.75 186.92 73.77 185.07 72.4 183.78 72.41 181.96 73.82 180.9 75.61 181.2 79.94 184.35 87.21 190.38 90.26 192.6 93.34 194.59 101.87 200.82 103.22 202.01 106.72 204.33 
M 113.5 173.61 111.32 170.57 110.26 166.99 110.41 163.25 111.77 159.77 114.19 156.92 117.4 155.01 121.06 154.24 124.77 154.7 128.12 156.34 130.77 158.99 132.41 162.35 132.87 166.05 132.1 169.71 130.19 172.92 127.34 175.34 123.86 176.7 120.12 176.85 116.54 175.79 113.5 173.61 
M 128.92 160.31 130.23 162.99 130.6 165.96 129.99 168.89 128.46 171.46 126.18 173.39 123.39 174.48 120.4 174.6 117.54 173.75 115.1 172.01 
M 117.77 168.25 116.9 167.03 116.47 165.6 116.53 164.11 117.08 162.71 118.04 161.57 119.33 160.81 120.79 160.5 122.27 160.69 123.62 161.34 124.67 162.4 125.33 163.74 125.52 165.23 125.21 166.69 124.44 167.97 123.3 168.94 121.91 169.48 120.42 169.55 118.98 169.12 117.77 168.25 
M 117.74 166.88 120.41 169.54 
M 119.19 166.35 122.2 169.37 
M 120.32 165.52 123.54 168.74 
M 119.83 163.06 124.56 167.79 
M 120.82 162.08 125.25 166.51 
M 122.9 162.2 125.46 164.75 
M 87.86 172.26 90.87 175.27 
M 89.42 169.45 91.96 171.99 
M 91.13 166.79 93.9 169.55 
M 93 164.28 95.46 166.74 
M 95.06 161.96 98.02 164.92 
M 97.29 159.81 99.57 162.1 
M 99.57 157.72 103.94 162.09 
M 101.77 155.55 104.2 157.98 
M 103.98 153.37 107 156.4 
M 106.25 151.27 108.81 153.83 
M 108.71 149.36 111.35 151.99 
M 111.25 147.52 115.5 151.77 
M 113.7 145.6 117.86 149.76 
M 116.25 143.77 119.83 147.35 
M 118.95 142.1 121.33 144.47 
M 121.83 140.6 124.68 143.45 
M 124.78 139.17 128.66 143.06 
M 127.7 137.72 130.28 140.3 
M 130.66 136.31 133.05 138.69 
M 133.68 134.95 137.86 139.13 
M 136.8 133.69 139.39 136.28 
M 140.05 132.57 143.54 136.05 
M 143.4 131.54 146.34 134.48 
M 122.41 148.68 122.85 148.66 124.53 148 127.9 147.36 129.54 146.66 
M 104.41 170.52 104.06 169.81 103.71 168.09 102.12 166.04 101.81 164.72 
M 153.54 202.58 153.68 204.07 154.66 208.24 
M 135.76 196.31 134.24 195.13 134.12 194.01 
M 146.69 176.98 145.22 174.39 144.57 173.9 142.27 173.02 141.6 172.6 141.28 171.86 141.62 170.95 
M 115.82 179.28 115.33 177.84 115.74 175.93 115.61 175.12 
M 128.48 144.38 128.27 144.78 128.8 145.81 
M 151.76 193.69 150.45 193.18 147.51 191.55 145.99 189.79 145.41 188.45 145.16 186.99 
M 133.52 188.64 133.9 188.12 134.28 188.19 134.25 188.46 
M 130.28 210.2 130.67 209.85 131.86 209.32 134.18 207.92 136.17 204.97 
M 138.04 184.53 135.31 184.68 134.92 184.99 134.83 185.65 
M 105.41 153.2 104.21 153.16 
M 144.97 136.31 143.63 138.06 140.99 139.29 
M 126.9 154.41 126.82 152.58 127.17 150.92 127.73 149.7 129.29 148.12 
M 111.55 170.89 109.42 171.39 106.6 172.68 106.01 172.62 105.38 172.29 
M 105.05 201.58 105.4 200.67 105.83 200.07 107.03 199.02 108.64 197.04 
M 119.89 152.31 120.38 150.67 120.93 150.34 122.33 150.24 124.18 148.61 
M 131.07 202.39 132.11 200.41 132.29 199.67 131.91 198.09 132.12 196.63 132.85 195.64 133.82 194.79 
M 104.2 197.05 106.12 196.08 107.37 194.31 
M 124.7 154.69 123.85 152.88 
M 107.22 168.83 106.23 168.3 104.92 166.52 103.89 165.58 103.03 165.3 
M 102.83 168.26 101.51 166.26 101.35 164.36 
M 93.65 176.72 93.12 177.16 92.55 177.02 91.99 176.42 91.71 175.54 
M 97.62 177.9 98 178.41 99.31 179.53 99.89 180.62 99.99 181.2 
M 153.54 185.92 153.01 186.99 
M 153.56 186.5 153.16 187.01 152.67 187.33 152.29 187.29 152.02 186.95 
M 110.68 168.39 109.03 169.08 108.58 169.12 106.74 168.58 105.77 167.74 
M 137.39 156.11 138.23 156.05 139.08 155.62 139.42 155.08 139.79 153.69 140.15 153.06 
M 153.77 198.04 153.18 197.47 152.24 197.03 151.47 196.83 150.6 196.97 
M 104.38 186.37 102.7 187.77 101.21 188.46 100.82 188.44 100.18 187.99 
M 137.26 139.25 136.82 139.04 
M 137.19 196.88 136.53 197 135.6 196.78 134.75 196.06 134.17 195.1 
M 156.68 206.21 156.76 207.45 157.3 208.29 
M 111.87 199.69 111.93 198.01 111.65 196 111.7 195.24 112.45 194.52 113.23 194.36 114.23 194.4 
M 150.29 166.16 149.57 165.8 149.27 165.43 148.41 163.23 147.93 160.43 146.06 157.66 
M 149.55 224.29 149.48 221.03 149.27 219.95 
M 79.78 188.95 82.77 191.84 87.3 195.81 92.04 199.68 96.9 203.35 107.22 210.37 117.72 216.81 
M 111.52 213.03 111.88 212.32 
M 147.27 130.18 154.38 137.3 
M 151.42 128.5 158.33 135.41 
M 155.68 126.92 160.16 131.41 
M 160.15 125.56 167.96 133.38 
M 164.67 124.25 170.14 129.72 
M 169.3 123.05 177.17 130.92 
M 174.03 121.94 180 127.91 
M 178.86 120.94 184.22 126.29 
M 183.9 120.15 192.04 128.28 
M 189.07 119.48 195.01 125.42 
M 193.96 118.54 201.71 126.29 
M 198.84 117.58 205.7 124.44 
M 203.85 116.75 211.89 124.8 
M 208.94 116.01 213.96 121.04 
M 214.21 115.45 222.85 124.09 
M 219.43 114.84 223.91 119.31 
M 224.63 114.2 233.05 122.62 
M 229.8 113.53 235.35 119.09 
M 235.11 113.01 242.58 120.48 
M 241 113.07 247.71 119.78 
M 247.72 113.96 256.37 122.61 
M 254.74 115.14 260.73 121.13 
M 261.7 116.26 266.35 120.92 
M 268.72 117.46 273.87 122.61 
M 275.4 118.3 283.9 126.8 
M 282.19 119.26 286.85 123.91 
M 289.11 120.34 296.36 127.59 
M 296.08 121.48 303.93 129.32 
M 303.31 122.88 309.92 129.48 
M 311.1 124.82 319.05 132.78 
M 319.14 127.03 324.23 132.12 
M 327.72 129.78 332.78 134.84 
M 337.38 133.6 343.38 139.61 
M 348.74 139.13 353.93 144.32 
M 363.07 147.63 367.89 152.45 
M 156.6 202.09 157.31 203.51 
M 168.4 225.68 169.7 228.29 
M 171.7 227.18 173.01 229.79 
M 160.39 199.45 161.35 201.38 
M 173.75 226.17 174.4 227.47 
M 175.05 228.78 175.7 230.08 
M 163.06 199.68 164.05 201.68 
M 175.79 225.16 177.75 229.07 
M 175.23 218.93 176.54 221.54 
M 183.06 234.58 183.71 235.88 
M 176.63 216.61 177.93 219.22 
M 156.68 166.51 157.33 167.81 
M 158.63 170.42 160.17 173.48 
M 179.51 212.16 180.16 213.47 
M 152.91 153.86 154.86 157.78 
M 157.47 162.99 162.77 173.58 
M 151.91 146.77 154.36 151.65 
M 155.01 152.96 156.31 155.57 
M 158.27 159.48 158.92 160.78 
M 161.53 166 165.36 173.67 
M 146.36 130.55 148.18 134.2 
M 150.45 138.74 156.47 150.77 
M 157.12 152.08 159.73 157.29 
M 160.38 158.6 161.69 161.21 
M 163.64 165.12 167.96 173.76 
M 148.48 129.69 159.24 151.21 
M 161.85 156.43 164.46 161.65 
M 165.11 162.96 170.56 173.85 
M 150.6 128.83 151.58 130.79 
M 153.54 134.7 160.71 149.05 
M 163.97 155.57 171.8 171.23 
M 190.06 207.75 191.37 210.36 
M 197.89 223.41 198.54 224.71 
M 152.72 127.97 154.35 131.23 
M 156.31 135.14 172.62 167.76 
M 190.93 204.39 192.18 206.89 
M 154.88 127.17 157.16 131.73 
M 158.46 134.34 159.77 136.95 
M 162.38 142.17 173.46 164.35 
M 157.09 126.49 162.63 137.58 
M 163.29 138.89 167.2 146.71 
M 168.5 149.32 173.72 159.76 
M 196.81 205.93 197.86 208.03 
M 159.3 125.82 169.41 146.04 
M 173.33 153.86 177.89 163 
M 180.5 168.21 183.11 173.43 
M 199.91 207.03 200.07 207.35 
M 209.85 226.92 210.51 228.22 
M 161.52 125.14 172.28 146.66 
M 174.89 151.88 178.15 158.41 
M 179.46 161.01 180.11 162.32 
M 182.06 166.23 185.98 174.06 
M 163.75 124.49 167.34 131.67 
M 168.64 134.28 173.86 144.71 
M 177.12 151.24 180.38 157.76 
M 184.29 165.59 188.75 174.5 
M 166.01 123.91 169.59 131.08 
M 170.9 133.69 176.77 145.43 
M 178.73 149.35 181.33 154.56 
M 182.64 157.17 183.29 158.48 
M 185.9 163.7 191.35 174.59 
M 206.95 205.79 208.08 208.05 
M 168.27 123.32 182.94 152.67 
M 186.86 160.5 193.95 174.68 
M 209.44 205.67 209.68 206.16 
M 218.16 223.12 218.82 224.42 
M 170.52 122.73 185.2 152.09 
M 188.46 158.61 196.29 174.26 
M 219.77 221.23 220.42 222.53 
M 172.81 122.19 187.48 151.54 
M 190.74 158.07 197.92 172.42 
M 219.44 215.47 220.75 218.07 
M 175.12 121.71 181.32 134.11 
M 181.97 135.41 191.1 153.68 
M 192.41 156.29 201.74 174.96 
M 220.45 212.38 221.76 214.99 
M 177.43 121.24 182.33 131.02 
M 184.94 136.24 186.89 140.15 
M 187.54 141.46 192.76 151.89 
M 194.07 154.5 201.24 168.85 
M 203.2 172.77 204.34 175.05 
M 220.36 207.08 220.81 207.99 
M 222.77 211.9 223.42 213.21 
M 179.75 120.76 184.64 130.55 
M 186.6 134.46 194.42 150.11 
M 199.64 160.55 203.56 168.38 
M 205.51 172.29 206.82 174.9 
M 182.11 120.38 186.35 128.86 
M 188.31 132.77 194.83 145.82 
M 202.66 161.47 205.27 166.69 
M 207.87 171.91 209.18 174.52 
M 184.51 120.07 188.75 128.55 
M 189.4 129.85 197.23 145.51 
M 205.05 161.16 207.66 166.38 
M 209.62 170.29 211.58 174.21 
M 191.14 128.24 200.28 146.5 
M 206.8 159.55 208.1 162.16 
M 209.41 164.76 213.32 172.59 
M 193.54 127.93 202.02 144.89 
M 208.54 157.93 209.85 160.54 
M 211.8 164.45 212.46 165.76 
M 213.11 167.06 215.72 172.28 
M 217.02 174.89 217.33 175.51 
M 193.26 122.26 194.57 124.87 
M 195.22 126.18 204.35 144.44 
M 208.92 153.57 212.18 160.1 
M 214.13 164.01 219.93 175.6 
M 194.28 119.19 203.41 137.46 
M 204.71 140.06 206.02 142.67 
M 207.32 145.28 207.98 146.59 
M 209.28 149.2 222.33 175.29 
M 237.33 205.29 237.98 206.6 
M 240.59 211.81 241.89 214.42 
M 243.2 217.03 245.81 222.25 
M 196.27 118.08 220.08 165.69 
M 220.73 167 222.04 169.61 
M 242.91 211.35 244.21 213.96 
M 245.52 216.57 246.17 217.87 
M 246.82 219.18 248.78 223.09 
M 198.6 117.62 218.49 157.41 
M 219.79 160.02 220.45 161.32 
M 221.1 162.62 221.75 163.93 
M 222.4 165.23 224.36 169.15 
M 249.15 218.72 251.1 222.63 
M 200.95 117.23 215.63 146.58 
M 216.93 149.19 217.59 150.5 
M 218.24 151.8 220.2 155.71 
M 222.8 160.93 226.07 167.45 
M 203.31 116.84 203.64 117.49 
M 204.29 118.8 205.6 121.41 
M 209.51 129.23 212.12 134.45 
M 212.77 135.76 217.99 146.19 
M 221.25 152.72 223.86 157.93 
M 224.51 159.24 228.42 167.07 
M 205.67 116.45 206 117.11 
M 213.17 131.45 219.04 143.2 
M 223.61 152.33 230.78 166.68 
M 234.04 173.2 234.7 174.5 
M 217.51 135.02 222.07 144.15 
M 224.68 149.37 232.51 165.02 
M 235.77 171.55 237.73 175.46 
M 210.47 115.85 210.8 116.5 
M 214.71 124.33 216.67 128.24 
M 217.32 129.54 218.63 132.15 
M 219.28 133.46 223.19 141.29 
M 225.15 145.2 225.8 146.5 
M 226.45 147.81 231.02 156.94 
M 232.32 159.55 233.63 162.16 
M 236.89 168.68 240.72 176.34 
M 212.9 115.59 215.18 120.16 
M 216.48 122.77 221.05 131.9 
M 222.35 134.51 224.31 138.42 
M 230.18 150.16 230.83 151.47 
M 236.05 161.9 236.7 163.21 
M 237.36 164.51 240.62 171.03 
M 242.57 174.95 243.32 176.43 
M 215.32 115.33 223.47 131.64 
M 229.34 143.38 230 144.69 
M 231.95 148.6 233.26 151.21 
M 241.74 168.17 245.91 176.52 
M 217.73 115.05 224.58 128.75 
M 231.1 141.79 235.67 150.93 
M 243.5 166.58 244.8 169.19 
M 246.1 171.8 248.51 176.61 
M 220.14 114.75 226.33 127.15 
M 228.29 131.06 241.33 157.15 
M 245.25 164.98 245.9 166.28 
M 249.81 174.11 251.11 176.71 
M 264.16 202.81 265.47 205.42 
M 266.12 206.72 266.77 208.03 
M 222.54 114.46 228.08 125.55 
M 230.04 129.46 243.74 156.86 
M 266.6 202.57 269.18 207.73 
M 224.94 114.16 229.84 123.95 
M 231.14 126.55 244.84 153.95 
M 246.14 156.56 249.4 163.08 
M 270.93 206.13 271.58 207.44 
M 284.63 233.53 285.4 235.08 
M 227.34 113.85 230.93 121.03 
M 233.54 126.24 234.19 127.55 
M 234.84 128.85 246.58 152.34 
M 247.89 154.94 250.5 160.16 
M 229.74 113.54 232.02 118.11 
M 235.28 124.63 252.89 159.85 
M 258.76 171.59 260.07 174.2 
M 232.14 113.23 233.77 116.49 
M 237.68 124.32 240.94 130.84 
M 242.25 133.45 245.51 139.97 
M 246.16 141.28 254.64 158.24 
M 259.86 168.67 261.81 172.59 
M 285.29 219.55 286.6 222.16 
M 234.58 113.01 236.21 116.27 
M 238.16 120.18 242.73 129.31 
M 243.38 130.62 245.34 134.53 
M 247.3 138.45 248.6 141.05 
M 249.25 142.36 255.12 154.1 
M 259.04 161.93 264.25 172.36 
M 287.74 219.33 289.04 221.94 
M 235.8 110.35 239.39 117.52 
M 240.69 120.13 245.26 129.26 
M 249.82 138.39 257 152.74 
M 260.91 160.57 266.13 171.01 
M 289.61 217.97 292.22 223.19 
M 236.98 107.6 249.04 131.73 
M 250.35 134.34 258.83 151.3 
M 262.09 157.82 267.96 169.56 
M 292.09 217.83 294.05 221.74 
M 238.22 104.99 243.77 116.08 
M 244.42 117.38 260.07 148.69 
M 264.64 157.82 267.9 164.34 
M 299.21 226.96 299.86 228.27 
M 240.26 103.95 245.48 114.39 
M 248.74 120.91 263.09 149.61 
M 268.3 160.05 268.96 161.35 
M 293.09 209.62 294.4 212.23 
M 239.77 97.86 240.74 99.82 
M 242.05 102.43 243.35 105.04 
M 245.31 108.95 247.27 112.87 
M 251.83 122 265.53 149.39 
M 274.66 167.66 275.31 168.96 
M 275.97 170.27 279.23 176.79 
M 240.92 95.07 243.21 99.64 
M 243.86 100.95 244.51 102.25 
M 247.77 108.77 248.43 110.08 
M 251.69 116.6 262.78 138.78 
M 264.73 142.69 266.04 145.3 
M 266.69 146.6 267.99 149.21 
M 273.21 159.65 273.86 160.95 
M 275.17 163.56 280.39 174 
M 296.04 205.31 296.69 206.61 
M 242.07 92.27 246.31 100.75 
M 248.92 105.97 250.23 108.58 
M 250.88 109.88 252.18 112.49 
M 253.49 115.1 265.23 138.58 
M 266.53 141.19 268.49 145.1 
M 269.14 146.41 271.1 150.32 
M 273.71 155.54 282.19 172.5 
M 243.17 89.36 246.11 95.23 
M 251.32 105.67 251.98 106.97 
M 252.63 108.28 253.93 110.88 
M 254.59 112.19 276.11 155.24 
M 276.76 156.54 284.59 172.2 
M 244.16 86.23 248.4 94.71 
M 254.92 107.75 255.57 109.06 
M 257.53 112.97 286.88 171.68 
M 245.7 84.21 253.2 99.21 
M 256.46 105.73 288.42 169.66 
M 247.15 82 257.26 102.22 
M 257.91 103.53 268.35 124.4 
M 269.65 127.01 278.13 143.97 
M 279.44 146.58 288.57 164.84 
M 306.83 201.37 307.48 202.67 
M 314.01 215.72 314.66 217.02 
M 248.06 78.72 248.39 79.38 
M 249.69 81.99 270.57 123.73 
M 272.52 127.64 289.48 161.56 
M 296.66 175.91 297.31 177.22 
M 305.79 194.18 306.44 195.48 
M 307.09 196.78 309.05 200.7 
M 249.39 76.27 254.93 87.36 
M 256.89 91.27 266.67 110.84 
M 268.63 114.75 273.2 123.88 
M 274.5 126.49 275.8 129.1 
M 279.07 135.62 290.81 159.11 
M 306.63 190.75 308.42 194.33 
M 309.07 195.63 310.37 198.24 
M 250.76 73.9 255.65 83.68 
M 260.21 92.82 263.48 99.34 
M 264.13 100.64 268.69 109.78 
M 270.65 113.69 279.13 130.65 
M 279.78 131.95 283.7 139.78 
M 284.35 141.08 292.18 156.74 
M 308.96 190.31 309.79 191.96 
M 312.4 197.18 314.35 201.09 
M 252.13 71.54 258.32 83.93 
M 262.89 93.06 268.76 104.8 
M 269.41 106.11 270.06 107.41 
M 272.67 112.63 285.72 138.72 
M 288.98 145.24 294.2 155.68 
M 296.81 160.9 299.42 166.11 
M 314.42 196.12 316.37 200.03 
M 326.16 219.6 326.94 221.16 
M 252.9 67.97 255.83 73.84 
M 256.48 75.15 262.36 86.89 
M 265.62 93.41 270.18 102.54 
M 273.44 109.07 288.45 139.07 
M 291.05 144.29 294.32 150.81 
M 294.97 152.12 296.93 156.03 
M 298.23 158.64 302.14 166.47 
M 254.23 65.54 257.82 72.72 
M 258.47 74.02 265.65 88.37 
M 267.61 92.28 273.48 104.03 
M 275.43 107.94 283.91 124.9 
M 285.22 127.51 290.43 137.94 
M 293.04 143.16 297.61 152.29 
M 300.22 157.51 306.74 170.56 
M 320.44 197.95 321.09 199.26 
M 256.08 64.12 275.32 102.6 
M 277.27 106.52 285.75 123.48 
M 287.06 126.08 292.93 137.83 
M 294.89 141.74 300.1 152.18 
M 302.06 156.09 309.89 171.74 
M 311.19 174.35 313.47 178.91 
M 321.63 195.23 322.28 196.53 
M 322.93 197.83 324.24 200.44 
M 257.96 62.79 265.46 77.79 
M 268.07 83.01 268.72 84.31 
M 269.38 85.61 275.9 98.66 
M 279.81 106.49 301.99 150.84 
M 302.64 152.15 310.47 167.8 
M 313.73 174.32 316.07 179.01 
M 320.25 187.37 320.9 188.67 
M 324.82 196.5 326.77 200.41 
M 333.95 214.76 335.31 217.48 
M 259.77 61.3 267.27 76.3 
M 272.49 86.74 275.75 93.26 
M 282.27 106.31 301.84 145.44 
M 305.1 151.97 312.93 167.62 
M 315.54 172.84 318.15 178.06 
M 321.66 185.08 323.37 188.49 
M 336.41 214.58 337.06 215.89 
M 261.36 59.38 270.17 76.99 
M 273.43 83.51 277.99 92.64 
M 281.91 100.47 282.56 101.78 
M 284.52 105.69 304.09 144.82 
M 306.69 150.04 314.52 165.7 
M 317.13 170.92 319.74 176.13 
M 323.71 184.07 324.96 186.57 
M 336.05 208.75 337.35 211.36 
M 263.01 57.58 263.34 58.23 
M 263.99 59.53 271.17 73.88 
M 274.43 80.4 281.6 94.75 
M 282.25 96.06 284.21 99.97 
M 286.82 105.19 294.03 119.61 
M 294.86 121.27 297.8 127.14 
M 298.45 128.45 321.28 174.11 
M 325.8 183.14 326.5 184.54 
M 332.37 196.28 333.02 197.59 
M 337.59 206.72 338.24 208.03 
M 265.91 58.27 270.48 67.4 
M 271.13 68.7 275.04 76.53 
M 275.7 77.84 284.83 96.1 
M 290.05 106.54 291.79 110.02 
M 297.67 121.78 299.3 125.04 
M 301.26 128.96 303.21 132.87 
M 303.87 134.18 309.74 145.92 
M 310.39 147.22 317.56 161.57 
M 319.52 165.49 321.48 169.4 
M 322.13 170.7 324.09 174.62 
M 325.39 177.23 326.47 179.37 
M 328 182.44 329.3 185.05 
M 333.87 194.18 337.13 200.71 
M 339.09 204.62 339.74 205.93 
M 268.8 58.94 290.33 101.99 
M 291.05 103.44 291.45 104.24 
M 300.5 122.33 300.82 122.98 
M 302.78 126.9 310.61 142.55 
M 312.56 146.46 313.21 147.77 
M 315.82 152.99 319.74 160.81 
M 321.69 164.73 323.65 168.64 
M 326.26 173.86 328.87 179.08 
M 334.74 190.82 339.3 199.95 
M 270.92 58.07 276.14 68.51 
M 276.79 69.81 287.22 90.68 
M 287.88 91.99 290.15 96.53 
M 304.3 124.83 311.47 139.18 
M 319.3 154.84 321.91 160.06 
M 323.87 163.97 325.82 167.88 
M 328.43 173.1 331.04 178.32 
M 334.96 186.15 335.61 187.45 
M 336.26 188.76 336.91 190.06 
M 338.22 192.67 340.17 196.58 
M 274.05 59.23 276.66 64.45 
M 279.27 69.67 287.75 86.63 
M 290.36 91.84 291.38 93.88 
M 306.2 123.53 313.7 138.53 
M 320.88 152.88 324.14 159.41 
M 326.1 163.32 328.05 167.23 
M 330.01 171.15 333.27 177.67 
M 336.53 184.19 337.18 185.5 
M 337.84 186.8 338.49 188.11 
M 339.14 189.41 339.79 190.72 
M 273.23 52.48 277.14 60.31 
M 277.79 61.61 279.1 64.22 
M 283.01 72.05 290.84 87.7 
M 309.14 124.31 315.99 138.01 
M 323.17 152.36 324.47 154.97 
M 325.12 156.27 329.69 165.4 
M 332.95 171.92 334.25 174.53 
M 273.05 47.02 281.21 63.33 
M 285.12 71.16 290.34 81.59 
M 290.99 82.9 292.29 85.51 
M 312.08 125.09 318.93 138.78 
M 324.8 150.52 332.63 166.18 
M 333.28 167.48 336.54 174.01 
M 274.82 45.46 283.63 63.07 
M 286.89 69.59 291.45 78.72 
M 292.62 81.06 292.81 81.44 
M 315.03 125.89 320.58 136.97 
M 325.14 146.11 329.06 153.93 
M 330.36 156.54 338.84 173.5 
M 276.59 43.9 287.36 65.43 
M 289.31 69.34 292.57 75.85 
M 318 126.72 322.24 135.2 
M 323.55 137.8 324.2 139.11 
M 325.5 141.72 339.2 169.11 
M 353.55 197.81 354.2 199.12 
M 356.81 204.34 358.07 206.84 
M 278.62 42.85 290.04 65.68 
M 291.34 68.29 293.01 71.63 
M 320.97 127.55 338.91 163.42 
M 339.56 164.72 340.21 166.03 
M 358.47 202.56 360.36 206.33 
M 280.76 42.03 294.25 69.01 
M 323.99 128.49 334.76 150.01 
M 336.06 152.62 341.93 164.36 
M 282.96 41.31 295.66 66.72 
M 327.08 129.56 332.62 140.64 
M 333.28 141.95 337.19 149.78 
M 338.49 152.39 343.06 161.52 
M 353.5 182.39 355.45 186.3 
M 284.96 40.2 287.24 44.77 
M 288.54 47.38 291.81 53.9 
M 293.11 56.51 297.03 64.36 
M 330.17 130.62 334.41 139.1 
M 337.02 144.32 344.84 159.98 
M 355.93 182.15 357.89 186.07 
M 286.92 39.03 288.23 41.64 
M 292.14 49.47 294.75 54.68 
M 296.05 57.29 296.86 58.91 
M 333.35 131.88 335.63 136.45 
M 339.54 144.28 347.37 159.93 
M 358.46 182.11 360.42 186.02 
M 364.33 193.85 365.64 196.46 
M 288.18 36.44 291.11 42.31 
M 294.5 49.08 294.95 49.98 
M 336.59 133.27 338.88 137.84 
M 340.83 141.75 349.31 158.71 
M 351.92 163.93 354.53 169.14 
M 361.05 182.19 362.36 184.8 
M 366.27 192.63 367.58 195.24 
M 289.91 34.8 292.18 39.33 
M 342.77 140.53 347.34 149.66 
M 348.64 152.27 351.25 157.48 
M 353.21 161.4 357.78 170.53 
M 292.11 34.09 292.43 34.74 
M 346.17 142.21 348.13 146.13 
M 351.39 152.65 357.91 165.69 
M 358.56 167 362.48 174.83 
M 363.13 176.13 363.78 177.44 
M 293.93 32.62 294.14 33.05 
M 348.28 141.34 349.59 143.95 
M 352.85 150.47 354.15 153.08 
M 357.42 159.6 367.2 179.17 
M 350.12 139.9 353.05 145.77 
M 355.01 149.69 356.32 152.3 
M 360.23 160.12 361.53 162.73 
M 362.84 165.34 368.71 177.08 
M 371.32 182.3 373.28 186.21 
M 353.71 141.98 357.3 149.16 
M 361.21 156.98 363.17 160.9 
M 365.13 164.81 375.72 185.99 
M 357.3 144.06 362.19 153.84 
M 369.37 168.19 370.02 169.5 
M 370.67 170.8 375.32 180.08 
M 360.99 146.33 365.88 156.11 
M 373.06 170.46 375.72 175.78 
M 364.7 148.65 367.64 154.52 
M 369.59 158.43 371.55 162.35 
M 368.45 151.03 369.43 152.99 
M 372.03 158.21 372.69 159.51 
M 374.64 163.43 375.72 165.57 
M 221.33 291.39 219.44 297.7 
M 221.33 291.39 224.03 291.39 224.84 291.7 225.17 292.6 224.9 293.5 224.03 294.39 223.04 294.7 220.34 294.7 
M 227.33 291.39 227.54 291.7 227.93 291.39 227.72 291.1 227.33 291.39 
M 227 293.5 225.74 297.7 
M 229.1 293.5 231.14 297.7 
M 232.4 293.5 227.84 297.7 
M 234.83 291.39 235.04 291.7 235.43 291.39 235.22 291.1 234.83 291.39 
M 234.5 293.5 233.24 297.7 
M 236.9 293.5 235.64 297.7 
M 236.54 294.7 237.71 293.8 238.4 293.5 239.3 293.5 239.81 293.8 239.84 294.7 238.94 297.7 
M 245.9 293.5 244.64 297.7 
M 245.63 294.39 245.21 293.8 244.7 293.5 243.8 293.5 243.11 293.8 242.33 294.39 241.76 295.3 241.58 295.89 241.61 296.8 242.03 297.39 242.54 297.7 243.44 297.7 244.13 297.39 244.91 296.8 
M 251.3 293.5 250.04 297.7 
M 250.94 294.7 252.11 293.8 252.8 293.5 253.7 293.5 254.21 293.8 254.24 294.7 253.34 297.7 
M 260.3 293.5 259.03 297.7 
M 260.02 294.39 259.61 293.8 259.1 293.5 258.2 293.5 257.51 293.8 256.73 294.39 256.15 295.3 255.98 295.89 256.01 296.8 256.43 297.39 256.94 297.7 257.84 297.7 258.52 297.39 259.31 296.8 
M 265.7 293.5 261.14 297.7 
M 262.39 293.5 265.7 293.5 
M 261.14 297.7 264.44 297.7 
M 269 293.5 268.31 293.8 267.52 294.39 266.95 295.3 266.77 295.89 266.81 296.8 267.23 297.39 267.74 297.7 268.64 297.7 269.33 297.39 270.11 296.8 270.68 295.89 270.86 295.3 270.83 294.39 270.41 293.8 269.89 293.5 269 293.5 
M 274.43 291.39 272.89 296.5 272.93 297.39 273.44 297.7 274.04 297.7 
M 272.89 293.5 275 293.5 
M 276.26 295.3 279.86 295.3 280.04 294.7 279.92 294.1 279.2 293.5 278.3 293.5 277.61 293.8 276.83 294.39 276.26 295.3 276.08 295.89 276.11 296.8 276.52 297.39 277.04 297.7 277.94 297.7 278.63 297.39 279.41 296.8 
M 282.5 293.5 281.24 297.7 
M 281.95 295.3 282.52 294.39 283.31 293.8 284 293.5 284.89 293.5 
M 287.02 291.39 285.14 297.7 
M 288.8 293.5 287.89 296.5 287.93 297.39 288.44 297.7 289.33 297.7 290.02 297.39 291.2 296.5 
M 292.1 293.5 290.83 297.7 
M 297.23 294.39 297.11 293.8 296.3 293.5 295.39 293.5 294.41 293.8 293.93 294.39 294.05 295 294.56 295.3 295.97 295.6 296.48 295.89 296.51 296.8 296.02 297.39 295.04 297.7 294.14 297.7 293.33 297.39 293.2 296.8 
M 298.82 297.1 298.43 297.39 298.64 297.7 299.02 297.39 298.82 297.1 
"/></svg>
