<svg xmlns="http://www.w3.org/2000/svg" width="520" height="320"><rect x="0" y="0" width="520" height="320" fill="floralwhite"/><rect x="10" y="10" width="500" height="300" stroke="black" stroke-width="1" fill="none"/><path stroke="black" stroke-width="1" fill="none" stroke-linecap="round" stroke-linejoin="round" d="
M 185.96 88.72 192.62 83.2 211.59 68.96 218.3 64.77 225.46 61.4 232.86 58.62 240.44 56.35 248.14 54.56 256.02 53.92 271.84 53.88 279.7 54.77 287.16 57.41 294.32 60.75 301.76 63.44 309.3 65.82 316.25 69.6 336.19 82.47 342.73 86.91 349.04 91.68 367.54 106.54 373.55 111.67 383.18 120.54 
M 383.18 159.5 368.17 172.27 355.99 182.35 337.3 196.97 324.56 206.35 317.87 210.57 304.27 218.64 297.22 222.23 289.66 224.55 266.02 226.5 258.12 226.15 250.38 224.51 242.83 222.16 228.64 215.16 221.71 211.36 215.02 207.14 202.19 197.89 195.47 193.72 188.55 189.89 181.84 185.71 177.86 182.94 
M 192.79 127.39 194.94 126.65 
M 222.74 119.26 229.1 119.18 
M 232.07 118.93 235.11 118.77 
M 246.09 119.92 250.13 120.59 
M 254.19 121.26 260.12 121.98 261.87 121.86 
M 265.14 121.37 269.7 120.2 271.43 120 
M 275.09 119.88 277.01 119.95 282.9 120.8 
M 286.69 121.4 292.14 122.32 295.75 122.56 306.4 122.07 310.19 122.04 317.74 122.93 326.94 123.27 330.39 123.83 336.2 125.37 
M 342.79 126.42 347.04 126.79 349.56 126.83 353.65 126.23 355.99 126.27 361.25 126.95 364.08 127.53 370.13 129.14 383.18 133.23 
M 182.77 179.96 183.58 183.2 
M 184.57 186.62 184.88 187.61 
M 186.86 164.6 186.86 164.62 
M 190.97 179.34 193.3 189.32 
M 196.05 93.29 195.12 99.77 
M 194.35 106.45 193.68 111.43 192 118.41 
M 198.98 180.89 200.17 187.39 
M 201.82 197.17 201.88 197.69 
M 201.68 84.3 201.6 87.87 
M 200.87 94.41 200.34 97.49 
M 198.01 120.78 197.45 125.74 
M 202.85 167.6 205.09 176.84 205.96 181.87 
M 206.42 185.11 206.75 188.24 
M 206.96 194.16 207.01 197.13 
M 206.94 85.84 206.71 89.17 
M 206.41 92.4 205.77 98.82 
M 205.49 105.58 205.34 108.96 
M 204.5 118.74 204.22 121.91 
M 208.2 158.74 211.63 175.98 
M 212.31 179.52 212.75 182.83 
M 212.68 185.66 212.47 186.9 211.79 189.18 211.64 190.53 
M 211.42 193.35 211.32 196.33 
M 211.24 199.38 211.21 202.52 
M 212.87 84.51 211.91 90.5 
M 211.24 96.75 210.96 103.37 
M 210.9 106.73 210.83 113.5 
M 210.76 116.84 210.58 119.87 
M 215.76 162.66 216.65 167.88 217.29 172.89 
M 217.83 179.29 217.98 182.39 
M 217.88 188.38 217.79 189.85 216.94 193.75 
M 216.35 196.39 216.12 197.78 215.99 206.26 
M 220.01 67.57 219.98 70.98 
M 218.13 89.74 217.77 92.8 
M 217.53 95.98 217.33 105.94 
M 217.3 109.25 216.71 119.28 
M 222.02 159.42 222.67 163.88 
M 223.37 170.43 223.87 179.9 
M 223.7 189.13 222.97 194.98 
M 222.83 198.2 222.59 206.56 222.86 211.99 
M 226.27 80.98 225.98 87.48 
M 226.07 90.98 226.34 94.63 
M 226.4 98.08 226.33 99.71 226.04 101.09 
M 225.41 103.81 225.08 105.15 224.77 108.14 224.83 114.71 224.7 119.31 
M 225.67 133.1 226.06 136.32 
M 229.35 157.84 229.39 159.52 
M 229.49 168.42 230.26 176.73 230.37 179.92 230.23 187.82 
M 230.63 194.92 230.69 198.41 
M 230.51 201.72 230.3 205.04 
M 230.25 208.55 230.52 215.38 
M 232.59 63.99 232.7 67.47 
M 232.99 74.52 233.56 81.85 
M 234.97 93.39 235.44 97.24 
M 234.77 103.28 233.74 105.56 
M 232.91 108 232.45 110.79 
M 232.24 113.78 232.06 118.92 
M 233.01 132.67 233.28 135.75 
M 236.38 157.15 236.32 160.18 236.07 162.87 236.09 165.87 236.61 170.92 
M 236.94 174.32 237.23 177.71 
M 237.64 181.29 238.25 186.78 238.24 193.51 237.91 203.71 237.93 212.8 
M 237.9 216.43 237.88 219.78 
M 240.49 65.65 240.53 69.07 
M 240.51 72.42 240.6 75.89 
M 240.93 79.59 242 87.4 
M 242.63 91.39 243.65 97.46 243.75 100.93 243.39 102.24 
M 239.91 117.78 239.88 118.94 
M 241.13 135.84 241.48 139.01 
M 243.62 158.35 243.62 161.29 
M 243.68 164.33 245.51 183.21 245.75 188.42 
M 245.59 195.1 245.33 200.1 244.64 206.6 244.62 208.39 
M 244.72 212.15 245 216.1 
M 245.14 220.56 245.12 222.87 
M 248.99 65.08 249.13 66.91 249.04 68.51 
M 248.91 78.52 250.14 88.19 251.87 96.67 252.22 100.38 251.72 103.23 250.73 105.55 249.91 108.01 249.62 110.97 249.7 117.45 249.5 120.46 
M 250.48 137.15 250.63 138.72 250.56 140.08 
M 250.74 154.6 251.16 160.92 
M 251.39 164.14 251.65 167.41 
M 252.02 170.84 252.37 174.28 
M 252.58 177.62 253.01 184.51 
M 253.56 195.22 253.46 200.39 253.25 201.97 
M 252.47 208.42 252.36 211.96 
M 252.41 215.67 252.44 219.39 
M 252.46 222.7 252.48 224.17 
M 258.06 72.05 258.45 75.83 
M 258.72 79.5 259.13 84.99 259.83 90.76 
M 260.2 94.51 260.35 98.04 
M 260.33 101.38 259.96 110.94 
M 259.77 114 259.39 120.27 
M 259.22 123.39 259.14 126.2 
M 259.64 161.4 259.65 170.5 
M 259.69 173.64 259.83 176.91 
M 260.05 180.33 260.37 183.92 
M 262.22 199.44 262.11 204.66 260.91 216.18 
M 260.77 219.7 260.97 224.49 
M 267.98 79.49 267.75 84.36 267.95 87.95 268.86 95.63 268.91 97.38 
M 268.97 100.8 268.95 109.11 268.55 111.99 267.42 117.35 267.22 120.83 
M 266.94 136.5 267.29 139.74 
M 268.62 155.68 268.66 157.19 268.48 158.5 
M 268.04 161.06 267.63 163.66 
M 267.46 166.53 267.62 172.85 
M 268.33 183.14 269.04 190.56 
M 269.33 194.29 269.5 201.48 
M 269.39 204.93 268.79 215.2 
M 268.65 218.71 268.69 222.68 
M 277.68 77.26 277.79 80.79 
M 277.65 84.06 277.49 97.48 
M 277.43 100.79 277.37 105.75 277.17 108.87 275.87 115.76 
M 275.57 118.44 275.5 119.74 
M 276.1 127.7 276.01 130.55 
M 276.71 142.97 277.7 151.34 277.96 156.07 
M 276.32 166.53 276.08 169.36 
M 276.08 172.45 276.12 178.81 
M 276.14 182.08 276.19 183.77 276.63 187.56 277.82 195.59 278.29 203.1 278.51 210.49 278.14 219.96 
M 287.1 80.21 287.45 89.07 285.73 107.46 284.98 121.09 
M 286.68 151.07 286.89 155.78 286.83 158.74 286.56 161.5 285.73 165.25 
M 285.19 167.78 284.97 169.11 284.85 173.64 
M 285.13 183.52 285.25 185.29 286.6 195.12 
M 286.86 198.86 287 202.51 
M 287.08 206.14 287 213.23 
M 286.83 216.67 286.55 221.27 
M 293.6 64.24 294 68.07 
M 294.86 75.75 295.23 79.51 
M 295.85 86.89 296.14 98.91 295.89 100.33 
M 295.21 102.96 294.13 106.84 293.95 109.95 293.94 114.85 
M 293.83 118 293.78 122.58 
M 294.17 127.5 294.22 130.56 
M 296.07 159.63 295.87 160.96 293.98 168.29 293.49 170.89 293.4 173.91 294.19 181.04 294.8 189.92 
M 295.06 193.58 295.27 197.24 
M 295.36 200.81 295.32 209.63 294.98 217.51 
M 303.9 81.98 303.75 85.19 
M 303.86 91.98 304.07 95.51 
M 304.01 98.75 303.86 100.26 302.87 104.2 
M 302.44 107.05 302.31 108.56 302.34 122.35 
M 305.36 151.59 304.88 158.85 304.59 160.12 
M 303.93 162.57 302.96 166.28 302.93 167.81 
M 303.06 171.07 303.45 176.17 303.42 180.93 
M 303.33 184.11 303.08 188.85 302.68 191.86 302.55 195.18 302.67 197.04 
M 302.93 200.81 303.22 206.43 303.12 212.37 
M 312.21 77.26 312.02 83.79 
M 311.86 86.96 311.72 93.45 
M 311.26 102.83 310.73 110.49 310.74 113.75 311.12 119.62 
M 313.56 154.27 313.12 157 
M 312.71 159.75 311.54 166.51 311.25 169.4 311.22 174.13 
M 311.27 177.38 311.3 180.65 
M 311.3 183.95 311.13 194 
M 311.4 201.31 311.51 206.79 311.38 208.9 
M 319.65 84.02 319.77 85.79 319.41 96.8 
M 319.5 100.11 319.54 104.99 319.42 106.48 
M 319.12 109.4 318.84 113.95 319.22 117.56 320.19 123.09 
M 321.48 135.65 321.67 145.5 
M 321.1 151.37 320.46 153.95 
M 319.91 156.62 319.69 158.01 319.45 162.6 
M 319.36 165.74 319.1 173.54 319.34 185.27 
M 319.34 188.68 319.46 199.31 
M 319.53 202.97 319.5 207.56 
M 326.35 78.06 326.4 81.33 
M 326.81 88.17 327.29 96.58 327.31 99.75 326.67 111.72 327.26 118.62 327.4 123.33 
M 328.69 139.34 328.96 144.52 328.88 147.72 328.69 149.17 
M 327.8 154.81 326.56 161.76 326.34 164.81 326.82 186.82 
M 326.32 193.31 326.16 196.71 
M 326.25 200.68 326.34 202.86 
M 332.61 80.14 332.73 82.02 
M 333.43 88.95 333.87 92.48 
M 334.18 95.88 334.29 97.52 334.12 106.55 334.4 109.9 336.05 120.76 336.52 125.5 
M 334.7 148.69 334.36 153.35 333.71 157.7 
M 333.25 160.57 332.8 165.13 332.41 176.41 
M 332.48 179.85 332.6 186.9 
M 332.42 190.26 332.03 197.12 
M 340.73 93.81 342.17 108.63 343.7 117.6 
M 344.1 120.97 344.27 126.55 
M 341.55 142.56 340.99 152.22 
M 340.68 155.31 338.99 163.83 
M 338.14 169.79 337.69 176.16 
M 337.67 179.59 337.72 184.93 337.42 191.33 
M 348.38 102.19 349.54 107.65 350.81 120.39 350.84 123.28 350.46 126.73 
M 347.62 146.53 347.24 153.13 
M 346.86 156.23 346.27 159.12 
M 345.52 161.85 344.54 166.09 343.94 175.93 343.18 180.48 
M 342.8 183.85 342.68 185.69 
M 353.15 94.96 353.62 97.57 
M 355.03 107.1 356.34 117.92 356.25 120.55 355.59 126.24 
M 354 133.59 353.52 136.69 
M 352.82 143.14 352.73 144.84 353.09 152.34 352.97 155.79 352.39 158.79 350.81 164.34 350.18 167.27 349.08 176.88 348.19 180.57 
M 359.69 105.11 360.95 112.65 361.46 116.94 
M 361.58 119.58 361.61 122.13 
M 361.8 125.24 361.98 127.08 
M 359.13 144.48 359.11 153.66 358.76 156.99 358.02 159.93 356.16 165.4 355.09 169.84 
M 354.43 173.71 354.06 176.05 
M 234.37 163.09 233.35 163.96 231.58 167.47 230.49 168.25 
M 223.7 111.14 222.42 110.39 219.46 110.03 217.63 108.83 216.86 108.79 216.1 109.18 
M 266.79 201.64 267.39 200.25 267.28 199.54 266.84 198.73 264.78 196.71 264.25 195.34 263.8 194.77 263.34 194.38 262.08 194.05 261.74 193.81 
M 363.79 113.44 363.89 114.24 365.26 115.58 369.9 118.23 
M 256.64 78.99 258.24 79 258.96 78.63 260.52 76.49 261.86 74.12 
M 240.68 179.52 242.39 177.76 244.26 176.99 244.74 176.45 
M 254.2 67.42 253.61 68.1 
M 228.91 103.24 228.85 102.61 229.45 101.68 231.14 100.49 232.21 99.39 232.8 99.12 
M 282.89 175.93 281.9 175.57 280.76 175.73 280.34 176.2 280.24 177.78 280.04 178.03 
M 313.69 195.41 313.96 192.44 313.6 191.78 313.15 191.85 
M 349.66 184.8 349.42 183.54 349.62 182.44 352.22 179.43 352.81 177.94 
M 257.21 153.97 258.69 154.2 260.28 153.72 261.42 153.63 262.47 154.39 
M 237.49 97.2 237.31 96.31 236.63 95.39 236.55 94.87 
M 206.14 159.55 205.48 158.77 203.32 157.35 
M 247.37 204.3 248.31 204.64 250.09 205.81 251.36 207.24 253.05 208.65 255.7 211.26 
M 299.59 133.95 301.55 132.26 302.76 130.4 304.65 126.44 304.91 124.81 
M 245.55 127.74 244.17 127.77 242.07 128.28 241.27 128.74 239.67 130.27 
M 340.21 87 339.77 85.75 337.84 84.18 337.14 83.11 
M 323 111.13 321.98 110.44 320.22 109.68 318.8 109.46 317.77 109.58 
M 267.89 67.54 265.67 67.47 262.6 68.01 260.73 67.98 258.61 67.13 256.71 65.94 
M 198.08 187.34 196.08 183.58 195.95 183.04 195.87 181.39 196.21 179.62 196.55 179.14 
M 348.34 182.89 349.23 181.71 350.58 180.75 352.06 179.37 352.58 178.47 352.67 177.46 
M 339.12 101.52 340.75 102.88 344.06 103.52 
M 204.97 165.81 204.56 166.17 203.48 166.71 201.1 167.02 200.54 167.28 198.51 169.57 
M 187.28 162.63 188.14 162.03 189.99 160.3 190.57 159.99 
M 335.16 131.49 333.71 132.6 331.68 133.38 330.85 134.12 330.35 135.07 330 135.34 
M 295.59 182.48 295.32 181.16 294.44 178.89 293.73 178.44 292.53 178.48 
M 188.11 170.14 187.01 170.45 185.62 170.33 
M 265.14 133.54 265.53 134.98 266.56 137.47 267.49 139.06 268.86 140.52 
M 260.15 54.54 258.83 55.21 256.87 55.54 255.08 56.62 253.63 57.23 
M 201.01 76.45 202.33 75.81 
M 210.83 69.11 207.35 57.19 208.11 56.9 213.45 67.8 
M 221.45 62.92 218.83 46.95 219.63 46.77 224.22 61.97 
M 232.81 58.25 232.08 38.05 232.89 37.97 235.69 57.67 
M 244.63 54.88 247.12 34.35 247.93 34.4 247.57 54.68 
M 256.86 53.63 262.43 32.61 263.23 32.78 259.78 53.94 
M 269.14 53.42 278.38 30 279.15 30.26 272.07 53.88 
M 281.42 54.75 295.34 34.56 296.03 34.99 284.14 55.91 
M 292.67 59.65 306.62 43.79 307.26 44.29 295.24 61.1 
M 304.27 63.58 316.89 50.01 317.52 50.53 306.9 64.96 
M 315.48 68.64 327.72 58.83 328.27 59.43 317.75 70.51 
M 325.86 75.2 337.38 67.53 337.88 68.17 328.04 77.18 
M 332.37 79.37 333.27 80.54 
M 202.94 75.35 205.79 70.25 207.06 66.47 207.61 62.5 207.69 58.39 
M 208.65 58.01 211.68 56.69 214.37 55 216.56 52.75 217.48 51.43 219.09 48.55 
M 220.1 48.32 223.37 47.35 224.91 46.73 227.7 45.06 230.06 42.76 232.15 40.07 
M 233.18 39.97 236.48 40.2 238.1 40.15 241.19 39.54 244.09 38.21 246.87 36.4 
M 247.89 36.47 251.13 37.12 254.31 37.28 257.39 36.7 258.89 36.14 261.87 34.71 
M 262.88 34.93 266.3 35.38 267.98 35.46 271.26 35.07 274.4 33.95 277.46 32.34 
M 278.43 32.67 281.62 34.56 284.93 35.97 288.43 36.65 290.24 36.73 293.94 36.58 
M 294.81 37.12 296.48 39.78 297.41 40.98 299.6 42.97 302.26 44.36 305.22 45.37 
M 306.03 46.01 307.65 48.12 309.51 49.8 311.74 50.82 315.63 51.37 
M 316.42 52.02 318.02 54.58 318.92 55.74 321.04 57.62 323.61 58.91 326.49 59.81 
M 327.19 60.57 328.52 63.08 329.28 64.22 331.16 66.08 333.53 67.38 336.22 68.3 
M 336.86 69.1 335 71.2 333.61 73.47 332.92 75.98 332.83 77.33 332.95 80.13 
M 210.19 57.37 213.08 55.91 214.37 55 216.56 52.75 218.31 50.01 
M 221.75 47.86 224.91 46.73 226.36 45.98 228.93 43.98 231.13 41.44 
M 234.84 40.12 238.1 40.15 241.19 39.54 242.66 38.96 245.49 37.34 
M 236.71 45.87 239.85 45.75 241.79 45.12 243.63 44.06 
M 249.52 36.83 252.73 37.29 254.31 37.28 257.39 36.7 260.39 35.46 
M 250.45 43 253.57 43.29 255.57 42.92 257.52 42.11 
M 264.59 35.19 267.98 35.46 271.26 35.07 272.84 34.59 275.93 33.17 
M 264.53 41.74 267.81 41.85 269.89 41.35 271.9 40.43 
M 280.01 33.65 283.25 35.35 284.93 35.97 288.43 36.65 292.08 36.68 
M 279.22 38.56 281.7 39.86 282.99 40.34 285.67 40.86 288.47 40.89 
M 278.42 43.48 281.04 44.71 282.91 45.08 284.86 45.1 
M 295.62 38.48 297.41 40.98 299.6 42.97 300.88 43.73 303.72 44.89 
M 293.04 45.33 294.2 46.95 295.62 48.24 298.3 49.5 
M 306.82 47.09 308.54 49.03 310.58 50.39 311.74 50.82 314.29 51.26 
M 304.3 52.5 306.05 54.26 307.5 54.92 309.15 55.21 
M 317.2 53.33 318.92 55.74 321.04 57.62 322.27 58.33 325.03 59.39 
M 327.83 61.85 329.28 64.22 331.16 66.08 332.29 66.79 334.86 67.86 
M 191.69 141.71 201.45 140.85 211.96 140.4 216.53 139.97 218.64 139.36 221.04 139.36 223.56 139.85 228.85 140.31 233.31 139.76 238.48 139.93 241.03 140.61 246 140.91 248.83 141.41 251.46 141.37 254.04 141.8 256.44 141.58 261.52 141.47 263.92 141.61 271.2 142.61 273.26 143.86 276.1 144.24 265.34 149.2 263.03 150.08 260.34 150.58 258.03 151.47 256.32 152.94 253.92 153.69 243.78 155.4 241.28 155.64 234.95 157.52 232.2 157.56 229.56 157.8 224.57 158.59 222.58 159.48 219.81 159.2 217.39 159.18 212.96 159.56 210.61 159.38 201.49 156.94 191.74 155.67 189.58 153.74 
M 191.63 143.19 203.99 142.76 208.9 143.21 211.84 143.16 214.42 143.05 218.79 142.42 221.26 142.56 223.75 143.19 226.96 143.48 231.4 143.56 236.02 144.68 238.83 145.1 241.66 145.15 244.43 144.69 246.81 144.93 249.14 146.06 256.55 148.25 
M 191.53 144.67 194.14 144.62 201.64 145.03 204.11 144.94 206.38 145.55 208.84 145.87 214.14 146.04 218.67 145.7 221.2 145.88 227.33 146.48 229.8 147.5 231.86 147.71 
M 191.58 146.19 199.33 146.74 204.18 147.52 208.64 148.56 211.46 148.97 216.38 149.08 223.95 150.4 227.01 150.74 229.47 151.37 233.88 153.47 
M 194.24 148.3 199.31 148.88 201.75 149.4 204.25 150.21 208.69 151.06 
M 190.92 149.15 196.98 150.69 199.44 151.04 201.88 151.71 208.38 154 210.99 155.3 213.22 156.15 215.61 156.81 218.14 158.12 
M 194.47 151.69 197.01 152.39 
M 194.43 153.79 196.67 154.79 
M 218.7 209.66 220.75 212.68 223.31 217.73 224.16 220.58 226.19 226.07 228.78 231.72 229.57 233.75 230.15 237.01 231.44 240.07 232.87 241.95 233.96 244.48 233.77 246.11 234.33 247.07 236.7 249.54 230.62 255.34 229.08 257.25 227.96 259.58 225.65 260.72 223.98 262.52 220.19 265.64 217.52 269.89 215.57 271.38 213.92 273.19 211.8 274.31 209.22 274.97 204.92 278.46 193.69 279.92 194.47 280 196.42 276.91 197.47 272.15 197.3 269.23 197.93 265.01 198.68 263.32 198.7 260.91 200.49 258.74 200.81 255.13 201.23 253.7 200.88 251.16 202.27 248.2 202.78 244.08 202.86 240.96 203.3 238.33 203.13 236.4 204.77 231.73 206.19 229.12 206.99 226.59 206.8 223.98 207.5 221.51 208.66 219 209.71 214.33 209.83 212.17 210.34 210.02 210.51 204.06 
M 217.35 208.74 219.09 211.87 221.2 216.78 223.56 225 224.17 228.03 225.09 231.08 225.6 234.24 227.09 236.84 227.62 239.33 
M 216.01 207.82 217.48 210.96 219.25 215.98 220.04 221.73 220.69 224.28 221.96 230.69 222.88 233.44 222.97 235.82 222.32 236.72 
M 214.66 206.89 215.82 209.97 216.95 214.93 217.05 218.03 216.9 220.82 216.43 223.23 218.2 229.38 218.96 234.8 218.57 238.33 218.76 241.05 218.35 243.53 218.87 246.14 219.84 248.4 219.15 251.61 217.66 256.87 217.55 259.2 218.2 261.3 217.95 263.76 
M 213.31 205.97 214.07 209.33 214.86 214.15 214.82 216.76 213.67 222.22 213.38 224.98 214.82 231.12 214.95 234.17 213.6 238.21 214.24 243.07 214.49 247.94 214.09 250.47 213.99 253.37 
M 211.97 205.05 212.29 208.55 212.53 215.48 210.45 223.56 210.46 226.51 210.91 229.2 210.95 231.65 210.33 233.81 208.78 235.72 207.72 237.75 207.32 240.45 208.06 244.09 208.45 247.21 208.28 250.75 208.49 252.75 207.42 254.84 206.89 257.44 
M 358.54 179.63 366.66 185.46 366.26 186.17 357.09 182.18 
M 348.95 187.23 358.03 193.6 357.63 194.31 347.5 189.78 
M 339.28 194.73 351.2 202.82 350.79 203.53 337.82 197.28 
M 329.53 202.1 345.89 213.45 345.47 214.14 327.99 204.6 
M 319.4 208.92 341.61 225.36 341.15 226.03 317.74 211.34 
M 308.97 215.26 338.12 238.97 337.62 239.61 307.18 217.59 
M 293.28 223.14 331.05 255.48 330.53 256.12 291.42 225.41 
M 365.34 185.77 361.67 187.11 359.72 188.56 358.26 190.58 357.12 192.96 
M 356.62 193.86 353.31 195.69 351.69 197.38 350.66 199.54 350 202.01 
M 349.49 202.9 347.41 204.49 345.76 206.3 344.77 208.49 344.26 212.31 
M 343.72 213.19 341.79 215.13 340.97 216.16 339.83 218.43 339.38 220.98 339.39 223.72 
M 338.81 224.57 337 226.94 336.25 228.17 335.27 230.79 335 233.62 335.2 236.6 
M 334.57 237.41 332.01 240.25 329.89 243.3 328.44 246.68 327.95 248.49 327.27 252.25 
M 364.06 186.15 361.67 187.11 359.72 188.56 358.93 189.5 357.67 191.74 
M 355.45 194.41 353.31 195.69 352.43 196.47 351.11 198.4 350.31 200.76 
M 348.42 203.68 346.51 205.35 345.76 206.3 344.77 208.49 344.35 211 
M 342.72 214.15 340.97 216.16 339.83 218.43 339.53 219.67 339.35 222.33 
M 336.05 211.55 334.48 213.58 333.97 215.14 333.86 216.88 
M 337.88 225.74 336.25 228.17 335.27 230.79 335.05 232.18 335.07 235.1 
M 332.15 222.83 330.9 224.69 330.45 225.68 329.98 227.77 329.99 230.01 
M 326.42 219.92 325.24 221.9 324.91 223.36 324.92 224.91 
M 333.26 238.81 330.87 241.73 329.89 243.3 328.44 246.68 327.58 250.35 
M 327.48 235.58 325.51 237.99 324.02 240.64 323.5 242.07 322.79 245.1 
M 321.69 232.35 320.14 234.25 318.97 236.34 318 239.85 
M 315.91 229.12 314.77 230.51 313.92 232.03 313.21 234.6 
M 382.37 119.77 385.09 119.05 391.51 115.5 393.86 114.54 396.17 113.03 400.66 109.5 404.35 107.76 408.11 105.33 410.96 104.6 412.55 103.01 414.65 101.94 416.51 100.71 419.12 99.61 422.32 97.84 425.57 93.84 427.75 92.98 431.05 90.03 437.65 85.03 439.36 84.28 443.79 82.93 445.37 81.47 449.51 79.4 452.34 77.29 454.34 76.27 455.69 74.9 456.83 74.04 458.59 73.48 459.76 71.45 462.11 69.7 455.19 83.18 453.83 88.12 453.7 91.14 452.65 93.23 451.12 95 448.88 96.21 445.88 100.12 443.91 101.6 442.2 103.34 440.66 108.73 438.5 110.04 435.9 110.89 434.08 112.48 431.32 116.45 430.48 118.99 429.35 121.25 427.84 123.14 426.86 125.55 425.61 127.73 424.2 129.76 423 131.99 421.38 133.83 418.75 134.65 416.62 135.94 415.07 137.76 414.34 140.08 414.16 142.77 415.09 149.2 413.82 150.8 413.57 152.18 414.72 154.36 416.54 158.62 418.61 161.9 421.99 168.18 422.95 170.34 423.1 172.22 424.17 174.73 426.03 177.74 427.02 179.9 427.64 182.19 427.32 185.34 430.25 193.4 427.26 191.83 424.77 190.17 422.03 187.85 418.45 185.92 413.81 182.84 409.02 180.5 400.33 173.08 396.25 171.37 394.88 169.75 392.3 168.22 387.73 164.39 385.14 162.64 382.37 160.13 
M 387.63 120.04 389.72 119.16 391.85 117.75 396.42 116.29 401.29 113.25 403.56 112.09 407.12 110.81 411.17 107.8 413.52 106.57 415.39 105.06 417.56 104.06 421.07 103.94 423.77 102.94 425.92 101.54 428.39 99.65 
M 385.64 123.01 390.25 121.47 392.29 120.55 394.43 119.81 396.85 119.19 399.08 117.77 401.72 116.91 404.46 115.33 406.89 114.18 408.64 113.89 410.64 112.3 412.11 110.71 417.26 108.32 419.26 108.13 422.52 108.2 425.15 107.58 427.5 106.49 
M 388.61 124.65 397.49 121.41 400.05 121.22 402.47 119.9 410.87 116.06 412.11 115.99 413.15 115.14 414.98 115.26 417.53 113.71 420.86 112.08 423.91 112.26 425.78 113.05 428.2 111.42 429.75 110.09 431.82 107.16 434.13 105.82 435.95 104.95 441.11 104.89 
M 385.84 127.61 391.27 126.36 393.74 125.43 396.61 124.79 399.07 123.77 400.99 123.31 403.49 123.31 406.14 122 409.26 121.81 411.77 120.53 413.22 120.23 414.19 120.31 414.91 120 417.81 119.7 429.17 116.06 
M 385.87 130.08 388.91 129.63 394.47 128.07 396.96 127.7 399.72 126.69 402.27 126.08 407.34 126.35 412.21 125.13 413.49 123.96 420.27 123.59 
M 389.01 132.07 391.84 131.24 394.55 130.92 397.04 130.96 399.6 130.71 402.41 130.04 407.42 130.14 410.2 129.78 412.31 129.24 416.39 127.33 
M 385.92 134.73 389.09 134.41 391.85 133.84 394.66 133.48 397.1 133.73 399.77 133.1 402.11 133.04 404.49 133.75 
M 388.89 137.42 391.7 137.23 397.37 136.27 399.84 136.48 402.46 136.03 404.41 137.28 407.48 137.5 413.64 136.48 
M 388.83 140.04 391.6 140.43 394.47 140.33 396.89 139.68 402.2 139.69 404.23 140.45 
M 388.92 142.56 391.71 142.38 394.57 143.24 397.14 142.83 399.38 143 401.71 143.58 404.02 143.09 408.02 143.4 411.69 144.12 
M 388.83 144.62 394.12 145.56 396.58 145.37 399.46 145.54 402.12 145.34 404.47 146.34 407.93 146.94 411.01 147.91 
M 390.96 147.65 396.44 147.81 400.36 148.43 403.05 148.95 404.85 150.23 
M 386.18 147.77 389 148.97 394.23 150.04 397.03 150.35 400.12 151.8 
M 388.91 151.04 394.19 152.78 397.33 153.64 399.61 154.06 
M 391 154.64 393.8 155.85 397.08 156.32 399.52 156.28 401.42 156.87 404.05 158.53 406.12 160.51 408.58 161.94 
M 385.47 154.29 388.1 155.56 393.12 157.58 395.78 158.37 398.82 158.67 401.17 159.24 
M 385.19 156.32 387.67 157.61 392.97 159.99 395.61 161.61 399.66 162.72 402.1 164.24 405.39 165.91 408.98 166.95 411.98 168.21 413.88 169.22 
M 390.51 161.48 392.96 163.18 398.82 166.08 404.45 169.39 406.89 170.38 
M 382.37 158.11 385.11 160.63 402.7 172.07 405.39 174.28 406.86 176.21 409.44 178.1 412.52 178.54 
M 372.69 165.62 371.49 166.71 370.05 167.58 369.18 168.95 368.17 171.97 366.66 172.57 364.38 172.51 366 174.14 
M 92.68 108.03 94.2 107.06 96.58 106.11 99.63 105.37 113.35 102.86 120.26 101.37 127.17 99.77 141.91 95.87 149.33 94.2 174.95 89.97 179.85 89.27 185.96 88.72 188.02 93.88 189.36 98.99 190.42 104.08 192.71 124.28 192.83 129.29 191.8 139.19 191.59 144.17 190.94 149.11 188.17 158.87 187.01 163.77 186.12 168.69 184.64 173.56 182.36 178.36 177.8 183 166.65 182.73 158.53 181.68 151.48 179.75 145.11 176.95 139.59 173.47 134.16 169.26 128.46 164.5 122.99 159.59 118.27 154.72 
M 116.84 153.36 113.43 150.1 109.77 143.89 105.82 138.45 102.07 134.48 98.68 130.08 96.05 125.1 94.42 119.37 93.91 115.94 
M 168.48 112.15 168.38 116.43 167.34 120.46 164.92 127.82 163.45 131.15 161.7 134.25 160.75 137.22 160.56 140.18 161.47 146.71 161.54 150.48 159.83 154.66 147.25 155.82 142.15 155.5 137.2 154.31 132.68 152.25 128.08 149.16 123.19 145.17 
M 117.25 154.02 113.61 147.94 106.92 137.92 99.93 125.74 93.4 115.12 90.82 111.69 90.27 109.83 91.45 108.12 93.61 107.97 95.2 109.38 96.33 111.16 100.29 118.35 103.69 125.89 109.12 136.8 114.96 147.36 118.5 154.6 
M 116.76 154.74 112.09 153.41 108.23 152.75 104.19 151.69 96.17 149.99 92.25 148.97 88.61 147.69 82.83 146.57 72.54 144.12 60.64 141.59 58.66 140.88 57.88 139.13 58.92 137.35 61.08 136.82 63.14 137.27 66.9 138.49 80.82 142.32 88.18 144.73 95.78 147.44 101.66 149 109.52 151.51 113.33 152.53 117.36 154.06 
M 117.77 154.21 118.25 154.39 
M 135.58 116.07 133.99 113.85 133.21 111.24 133.33 108.52 134.32 105.98 136.08 103.9 138.42 102.51 141.09 101.95 143.79 102.28 146.24 103.48 148.17 105.41 149.36 107.86 149.7 110.56 149.14 113.23 147.75 115.57 145.67 117.33 143.13 118.32 140.41 118.43 137.79 117.66 135.58 116.07 
M 146.82 106.37 147.78 108.33 148.05 110.49 147.6 112.63 146.48 114.5 144.82 115.91 142.79 116.7 140.61 116.79 138.52 116.17 136.75 114.9 
M 138.48 111.95 137.84 111.06 137.53 110.02 137.58 108.93 137.97 107.91 138.68 107.08 139.61 106.52 140.68 106.3 141.76 106.43 142.74 106.91 143.51 107.68 143.99 108.66 144.13 109.74 143.9 110.81 143.35 111.75 142.51 112.45 141.5 112.85 140.41 112.89 139.36 112.58 138.48 111.95 
M 138.29 111.45 139.45 112.61 
M 137.86 108.82 141.78 112.74 
M 139.75 108.5 143.16 111.91 
M 140.36 106.91 143.97 110.51 
M 142.45 106.8 143.68 108.03 
M 100.81 132.84 105 137.03 
M 95.29 122.42 99.82 126.96 
M 93.94 116.18 94.25 116.49 
M 94.49 106.94 98.2 110.64 
M 98.17 105.72 101.92 109.47 
M 102.23 104.88 107 109.65 
M 106.38 104.14 111.14 108.9 
M 110.52 103.39 113.21 106.08 
M 114.62 102.59 119.27 107.24 
M 118.65 101.72 122.18 105.26 
M 122.64 100.82 125.69 103.86 
M 126.62 99.9 129.47 102.75 
M 130.5 98.89 133.74 102.13 
M 134.36 97.85 137.18 100.68 
M 138.24 96.84 140.89 99.49 
M 142.13 95.83 144.87 98.57 
M 146.12 94.92 148.6 97.41 
M 150.15 94.06 154.37 98.27 
M 154.33 93.34 157.79 96.8 
M 158.55 92.66 161.99 96.11 
M 162.82 92.04 167.37 96.59 
M 167.01 91.34 171.02 95.35 
M 171.19 90.62 174.87 94.3 
M 175.37 89.91 179.47 94 
M 179.66 89.3 183.88 93.52 
M 184.12 88.86 186.92 91.66 
M 138.55 150.08 140.17 151.19 140.49 151.12 141.04 150.65 
M 187.32 145.73 187.22 145.11 186.42 144.01 186.11 143.23 185.98 142.33 186.08 141.55 
M 173.92 105.97 173.73 104.67 173.97 102.78 
M 142.6 128.86 141.13 128.39 140.06 127.82 139.83 127.95 
M 143.8 161.93 144.21 161.79 144.69 161.37 145.36 160.19 145.56 159.35 145.43 157.76 
M 143.67 173.41 144.34 172.54 144.95 170.93 145.34 170.42 145.76 170.17 146.66 170.05 147.49 170.13 148.09 170.34 148.45 170.79 
M 170.26 157.54 170.24 155.04 170.02 154.52 168.58 152.58 167.56 150.25 
M 144.47 167.14 144.84 167.74 146.17 168.48 146.94 169.12 148.32 169.82 148.72 170.47 
M 152.28 170.92 152.72 171.69 153.98 174.92 154.63 175.97 154.54 177 154.28 177.29 153.83 177.42 
M 99.89 125.68 98.94 125.71 97.91 125.96 96.81 126.54 
M 153.54 143.78 153.25 144.28 153.43 145.14 154.32 146.11 155.22 146.77 156.43 146.99 156.9 146.87 157.66 146.22 
M 142.8 120.26 142.79 118.33 
M 142.23 175.13 143.97 173.41 144.64 171.83 
M 145.59 163.4 144.92 164.59 143.9 165.62 143.88 166.78 
M 123.43 156.55 121.1 154.42 119.38 153.71 118.82 153.62 118.07 153.76 
M 186.79 94.09 185.64 95.56 182.21 97.87 
M 175.88 154.32 174.87 152.83 174.62 151.83 
M 157.08 106.7 155.84 104.63 154.98 103.74 154.28 103.47 152.94 103.8 152.44 103.7 
M 104.34 111.83 103.59 110.29 103.04 107.98 
M 153.89 146.05 155.27 147.03 156.44 147.12 157.29 146.64 158.69 145.05 159.17 144.8 
M 158.38 139.22 156.88 139.84 151.72 140.23 150.66 140.68 150.19 141.06 
M 180.73 98.69 180.52 101.26 
M 171.01 142.68 172.2 141.55 174.37 135.96 174.83 133.88 174.75 132.31 
M 143.73 171.05 144.3 170.53 145.09 170.14 146.83 170.01 147.95 170.22 148.37 170.6 148.67 171.2 
M 136.93 124.19 137.93 124.9 138.59 125.78 139.05 127.99 
M 119.92 102.77 118.69 102.25 117.35 102 
M 149.78 123.28 146.74 120.87 145.29 118.49 
M 138.24 144.01 139.35 145.93 140.12 146.46 140.89 146.35 141.71 145.77 142.09 145.69 
M 139.29 132.81 139.41 134.81 140.21 137.74 140.62 138.54 142.35 140.5 142.83 141.32 
M 175.08 94.19 174.46 91.21 174.02 90.13 
M 180.33 170.7 179.24 169.73 178.58 168.68 178.49 168.22 
M 159.35 145.89 159.47 145 
M 181.05 171.11 179.46 169.89 178.68 168.83 178.5 168.23 
M 155.2 160.42 154.55 161.55 152.43 163.06 151.58 164.3 151.12 165.67 150.99 168.13 
M 190.84 146.94 191.24 146.81 
M 123.78 126.12 121.89 127.95 120.59 128.88 118.18 129.91 
M 151.46 179.74 150.63 179.13 150.14 179.16 
M 138.21 140.13 140.31 145.7 140.93 146.02 141.71 145.73 
M 173.4 162.42 174.07 163.65 175.05 164.75 176.04 166.65 177.08 167.73 177.25 168.14 
M 131.91 159.95 132.42 162.73 132.18 164.16 131.71 165.63 
M 156.33 114.88 157.45 114.87 160.46 113.77 162.72 112.2 163.43 111.49 
M 153.71 111.21 153.8 110.71 153.66 109.79 151.35 106.79 148.97 105.51 
M 168.85 156.55 168.57 155.12 167.64 153.58 167.25 152.5 167.15 151.1 
M 128.35 114.06 127.94 114.71 127.95 116.11 
M 147.5 116.59 147.22 116.01 
M 159.39 121.33 160.62 119.51 161.08 118.39 161.6 117.6 162.44 116.6 164 115.31 
M 137.27 137.69 138.96 141.88 140.05 145.2 140.62 145.94 141.34 145.89 
M 142.52 159.33 142.47 160.6 141.73 163.38 
M 187.9 101.07 186.41 101 185.09 101.2 181.91 100.45 181.03 100.62 180.66 101.09 
M 169.57 99.91 169.07 100.47 168.39 100.83 166.87 101.25 166.36 101.15 165.59 100.63 164.59 99.31 164.24 98.32 164.4 97.43 
M 104.37 106.62 103.71 105.56 103.59 104.64 
M 168.43 180.58 168.63 179.61 169.69 178.61 
M 109.39 141.55 108.5 142.14 
M 119.21 155.66 117.49 157.25 114.49 160.94 113.3 162.98 111.22 167.44 107.79 172.54 110.68 167.16 112.17 162.51 113.17 160.18 115.84 155.89 117.48 153.93 
M 92.42 155.71 90.61 162.92 87.18 172.08 86.66 174.37 86.4 176.69 86.41 179.05 86.66 181.38 87.22 183.65 88.08 185.84 89.2 187.93 90.54 189.89 95.35 195.33 100.79 200.23 102.49 202.04 104.09 203.92 108.41 209.86 109.97 211.73 111.68 213.45 113.56 214.99 115.6 216.3 117.78 217.39 122.41 218.94 127.16 220.12 120.02 218.39 117.7 217.59 115.46 216.55 113.35 215.28 111.39 213.78 109.6 212.07 107.97 210.23 103.48 204.42 101.85 202.62 100.15 200.91 94.54 196.15 89.46 190.73 87.98 188.69 86.72 186.49 85.72 184.16 85.03 181.69 84.69 179.17 84.6 176.63 84.81 174.08 85.31 171.58 88.46 162.3 90.02 155.22 
M 92.79 155.37 90.87 162.58 88.36 169.46 87.71 171.73 87.36 174.01 87.43 176.27 88 178.44 89.06 180.4 90.62 181.98 92.57 183.08 94.75 183.61 97.01 183.54 99.19 182.88 101.14 181.69 102.71 180.02 103.78 177.98 104.33 175.72 104.4 173.37 104.03 171.03 103.3 168.75 102.26 166.59 99.58 162.55 94.98 156.84 91.77 153.16 84.8 146.28 90.18 151.29 93.61 154.79 100.04 162.2 102.88 166.23 104.03 168.45 104.87 170.81 105.33 173.3 105.33 175.84 104.8 178.35 103.65 180.68 101.92 182.62 99.74 184.06 97.25 184.89 94.62 185.04 92.03 184.49 89.68 183.25 87.74 181.41 86.42 179.12 
M 90.31 155.28 90.39 154.87 
M 91.87 159.18 91.84 160.23 92.28 162.39 93.19 164.44 94.44 166.42 98.82 172.3 100.19 174.4 101.4 176.6 102.78 179.88 
M 103.22 181.17 103.87 183.71 105.12 190.95 105.75 193.25 106.61 195.45 107.82 197.44 109.48 199.05 111.53 200.13 113.8 200.65 116.15 200.61 118.45 200.05 120.59 199.02 122.47 197.55 124.05 195.75 125.25 193.66 126.11 191.4 127.07 186.63 127.67 181.77 127.8 176.88 127.74 181.78 126.96 189.09 126.45 191.5 125.64 193.84 124.46 196.03 122.88 197.97 120.94 199.57 118.71 200.73 116.27 201.4 113.73 201.51 111.21 201.01 108.9 199.88 106.99 198.13 105.59 195.98 104.59 193.65 103.86 191.25 101.97 182.57 
M 101.55 181.24 100.91 179.53 99.87 177.4 98.66 175.35 97.29 173.38 92.73 167.61 91.3 165.49 90.46 163.72 
M 118.29 154.7 118.75 155.5 
M 112.5 146.27 112.48 146.5 112.64 146.47 
M 110.58 143.42 110.52 143.74 110.74 143.65 
M 108.69 140.49 108.57 140.98 108.9 140.79 
M 106.77 137.66 106.61 138.22 106.96 137.98 
M 105 134.55 104.65 135.46 105.27 135.03 
M 103.27 131.52 102.7 132.69 103.28 132.2 103.63 132.12 
M 101.49 128.56 101.13 128.92 100.74 129.93 101.38 129.35 101.87 129.22 
M 99.8 125.53 99.23 126.07 98.79 127.17 99.48 126.5 100.22 126.29 
M 98.03 122.58 97.34 123.22 96.83 124.41 97.58 123.65 98.51 123.36 
M 96.21 119.68 95.44 120.37 94.88 121.65 95.68 120.8 96.71 120.46 
M 94.42 116.76 93.54 117.52 92.92 118.88 93.78 117.95 94.9 117.56 
M 92.52 113.93 91.64 114.67 90.96 116.12 91.88 115.1 93.07 114.67 
M 90.64 111.08 89.74 111.82 89.01 113.36 89.98 112.24 90.96 111.88 
M 118.17 154.74 119.13 155 
M 102.6 149.29 102.78 149.2 102.76 149.34 
M 99.21 148.34 99.67 148.09 99.58 148.43 
M 95.83 147.45 96.56 146.97 96.4 147.61 
M 92.69 146.37 93.45 145.85 93.22 146.57 
M 89.59 145.24 90.33 144.74 90.04 145.4 
M 86.4 144.2 87.22 143.62 86.87 144.34 
M 83.22 143.15 84.11 142.5 83.7 143.33 
M 80.04 142.11 81 141.38 80.52 142.24 
M 76.79 141.2 77.89 140.27 77.35 141.36 
M 73.52 140.35 73.71 139.99 74.77 139.15 74.18 140.12 74.16 140.51 
M 70.29 139.43 70.54 138.94 71.66 138.03 71.01 139.07 70.97 139.63 
M 67.05 138.53 67.37 137.89 68.55 136.92 67.84 138.01 67.78 138.74 
M 63.88 137.49 64.19 136.83 65.44 135.8 64.67 136.96 64.6 137.71 
M 60.48 136.97 61.02 135.78 62.33 134.68 61.5 135.91 61.4 136.89 
M 66.96 143.03 75.56 147.94 83.42 151.94 91.44 155.5 99.72 158.73 112.02 163 
M 113.13 163.35 125.35 166.95 134.16 169.26 
M 188.38 95.27 188.95 95.83 
M 187.27 87.62 196.39 96.75 
M 190.84 84.67 197.11 90.94 
M 194.43 81.73 200.27 87.57 
M 198.16 78.93 203.59 84.37 
M 201.9 76.14 209.47 83.72 
M 205.62 73.33 213.94 81.66 
M 209.33 70.52 214.25 75.44 
M 213.26 67.92 221.54 76.2 
M 217.28 65.41 226.77 74.9 
M 221.58 63.19 227.64 69.25 
M 226.05 61.13 231.25 66.33 
M 230.8 59.35 236.37 64.92 
M 235.65 57.67 241.99 64.02 
M 240.76 56.26 247.8 63.3 
M 246.03 55 253.61 62.58 
M 251.45 53.89 256.58 59.03 
M 258.02 53.93 266.55 62.46 
M 264.55 53.94 272.07 61.46 
M 271.03 53.89 277.04 59.9 
M 278.01 54.34 285.94 62.27 
M 288.06 57.87 295.88 65.68 
M 299.36 62.64 308.12 71.4 
M 308.79 65.54 314.08 70.83 
M 325.01 75.23 330.08 80.3 
M 344.73 88.42 350.04 93.74 
M 385.81 122.98 390.19 127.36 
M 221.93 291.39 220.04 297.7 
M 226.13 291.39 224.24 297.7 
M 221.03 294.39 225.23 294.39 
M 227.06 295.3 230.66 295.3 230.84 294.7 230.72 294.1 230 293.5 229.1 293.5 228.41 293.8 227.63 294.39 227.06 295.3 226.88 295.89 226.91 296.8 227.33 297.39 227.84 297.7 228.74 297.7 229.43 297.39 230.21 296.8 
M 236.03 294.39 235.91 293.8 235.1 293.5 234.2 293.5 233.21 293.8 232.73 294.39 232.85 295 233.36 295.3 234.77 295.6 235.28 295.89 235.31 296.8 234.83 297.39 233.84 297.7 232.94 297.7 232.13 297.39 232.01 296.8 
M 238.4 293.5 237.5 296.5 237.53 297.39 238.04 297.7 238.94 297.7 239.63 297.39 240.8 296.5 
M 241.7 293.5 240.44 297.7 
M 246.83 294.39 246.71 293.8 245.9 293.5 245 293.5 244.01 293.8 243.53 294.39 243.65 295 244.16 295.3 245.57 295.6 246.08 295.89 246.11 296.8 245.63 297.39 244.64 297.7 243.74 297.7 242.93 297.39 242.81 296.8 
M 254.63 291.39 254.03 291.39 253.34 291.7 252.77 292.6 251.24 297.7 
M 251.6 293.5 253.7 293.5 
M 259.1 293.5 257.84 297.7 
M 258.83 294.39 258.4 293.8 257.89 293.5 257 293.5 256.31 293.8 255.53 294.39 254.96 295.3 254.78 295.89 254.81 296.8 255.23 297.39 255.74 297.7 256.64 297.7 257.33 297.39 258.11 296.8 
M 264.23 294.39 264.11 293.8 263.3 293.5 262.39 293.5 261.4 293.8 260.93 294.39 261.05 295 261.56 295.3 262.97 295.6 263.48 295.89 263.51 296.8 263.02 297.39 262.03 297.7 261.14 297.7 260.33 297.39 260.21 296.8 
M 266.93 291.39 267.14 291.7 267.52 291.39 267.32 291.1 266.93 291.39 
M 266.6 293.5 265.34 297.7 
M 269 293.5 267.74 297.7 
M 268.45 295.3 269.02 294.39 269.81 293.8 270.5 293.5 271.39 293.5 
M 274.1 293.5 273.41 293.8 272.63 294.39 272.06 295.3 271.88 295.89 271.91 296.8 272.33 297.39 272.83 297.7 273.74 297.7 274.43 297.39 275.2 296.8 275.77 295.89 275.95 295.3 275.93 294.39 275.51 293.8 275 293.5 274.1 293.5 
M 278.6 293.5 277.33 297.7 
M 278.06 295.3 278.63 294.39 279.4 293.8 280.1 293.5 281 293.5 
M 283.7 293.5 283.01 293.8 282.23 294.39 281.65 295.3 281.48 295.89 281.51 296.8 281.93 297.39 282.44 297.7 283.33 297.7 284.02 297.39 284.81 296.8 285.38 295.89 285.56 295.3 285.52 294.39 285.11 293.8 284.6 293.5 283.7 293.5 
M 288.2 293.5 286.94 297.7 
M 287.83 294.7 289.01 293.8 289.7 293.5 290.6 293.5 291.11 293.8 291.14 294.7 290.24 297.7 
M 296.63 294.39 296.51 293.8 295.7 293.5 294.8 293.5 293.81 293.8 293.33 294.39 293.45 295 293.95 295.3 295.37 295.6 295.88 295.89 295.9 296.8 295.43 297.39 294.44 297.7 293.54 297.7 292.73 297.39 292.61 296.8 
M 298.22 297.1 297.83 297.39 298.04 297.7 298.43 297.39 298.22 297.1 
"/></svg>
