<svg xmlns="http://www.w3.org/2000/svg" width="520" height="320"><rect x="0" y="0" width="520" height="320" fill="floralwhite"/><rect x="10" y="10" width="500" height="300" stroke="black" stroke-width="1" fill="none"/><path stroke="black" stroke-width="1" fill="none" stroke-linecap="round" stroke-linejoin="round" d="
M 94.44 131.61 105.22 131.3 116.05 131.3 137.69 132.15 148.51 132.32 191.8 131.48 213.44 130.78 224.27 130.67 245.91 130.78 267.55 130.15 278.38 130.02 289.2 130.51 300.02 131.4 332.49 134.53 354.13 137.12 364.95 138.84 365.78 139.2 
M 365.78 164.22 364.95 164.56 354.13 166.15 321.66 169.98 310.84 170.73 289.2 171.21 278.38 171.84 256.73 174.09 224.27 176.76 202.62 178.96 180.98 180.42 167.57 181.76 
M 133.36 183.76 126.87 183.65 116.05 182.99 105.25 181.68 
M 365.78 152.46 355.45 151.86 345.15 151.75 338.58 151.45 320.47 149.26 302.95 146.31 299.98 146.05 295.44 146 
M 289.37 146.05 281.85 145.6 272.81 144.54 262.01 143.6 
M 258.78 143.45 255.47 143.33 
M 252.09 143.17 243.5 142.59 234.47 141.72 
M 230.83 141.39 223.75 140.91 
M 216.84 140.88 201.32 141.94 193.36 142.33 
M 190.31 142.45 187.25 142.59 
M 174.1 143.27 170.63 143.44 
M 163.47 143.82 156.98 144.31 
M 155.25 144.47 152.04 144.75 
M 148.12 145.05 140.5 145.48 
M 136.91 145.44 133.45 145.16 
M 130.04 144.69 126.7 144 
M 117.04 141.56 110.95 140.35 
M 110.91 179.25 112.62 179.93 
M 109.03 174.39 110.58 175.84 113.04 177.69 114.3 178.4 
M 96.25 131.56 100.11 137.24 104.3 144.21 109.25 153.65 
M 101.78 131.4 103.43 133.94 107.39 140.71 109.38 144.31 113.83 153.1 
M 106.82 131.3 112.43 140.99 118.15 151.81 
M 111.61 131.3 115.64 138.11 122.63 150.81 
M 116.4 131.31 119.04 135.59 126.62 149.01 
M 121.45 131.49 131 147.8 
M 126.6 131.68 132.13 141.03 135.78 146.78 
M 131.94 131.9 137.93 141.46 141.25 146.13 
M 137.54 132.14 141.65 138.19 147.2 145.42 
M 143.34 132.23 147.91 138.18 153.37 144.69 
M 178.99 174.22 180.63 175.87 
M 149.38 132.3 160.23 145.01 
M 180.78 169.8 184.09 173.52 
M 155.38 132.22 163.5 141.41 167.21 146.02 
M 181.55 163.97 185.02 168.05 
M 161.29 132.12 169.6 141.5 176.65 150.7 
M 179.54 154.44 182.43 158.08 
M 167.08 131.97 172.7 138.21 176.87 143.39 
M 185.19 154.46 196.07 168.21 
M 172.82 131.85 175.73 135.04 181.2 141.65 190.54 154.55 
M 201.58 168.43 204.08 171.57 
M 178.48 131.76 184.08 138.25 186.7 141.69 192.98 150.98 
M 195.72 154.71 207.22 168.71 
M 209.75 171.88 211.9 174.52 
M 184.01 131.65 186.99 135.06 190.73 140.1 
M 193.11 143.7 196.77 149.32 199.54 153.05 204.16 158.51 
M 189.56 131.53 192.56 135.16 194.92 138.51 199.58 145.75 202.21 149.48 205.17 153.17 209.89 158.56 
M 195.12 131.37 198.19 135.28 199.33 136.97 
M 201.64 140.44 205.3 145.86 208.01 149.52 210.97 153.14 218.72 161.96 
M 200.7 131.17 205.1 137.06 
M 207.45 140.5 211.18 145.84 215.35 151.27 
M 218.35 154.88 221.41 158.47 
M 224.41 162.07 227.23 165.66 
M 206.28 131 209.72 135.41 213.31 140.5 
M 215.81 144.04 221.18 151.37 
M 224.1 155.09 230.06 162.57 
M 211.82 130.83 215.5 135.47 225.54 149.9 234.35 161.51 238.41 167.31 
M 217.35 130.74 221.31 135.73 230.18 148.68 
M 232.94 152.63 238.69 160.56 
M 241.43 164.48 243.98 168.29 
M 222.8 130.68 227.24 136.26 229.78 139.82 236.3 149.63 
M 228.38 130.7 230.75 133.43 233.37 136.82 235.96 140.56 242.39 150.64 
M 244.98 154.59 250.16 162.31 
M 234.24 130.75 236.93 133.9 239.55 137.46 243.34 143.44 
M 250.85 155.32 255.83 162.88 
M 258.05 166.65 259.94 170.01 
M 239.96 130.77 243 134.5 245.53 138.23 251.75 148.24 
M 254.33 152.04 256.88 155.77 
M 259.27 159.56 261.43 163.43 
M 245.27 130.78 248.75 135.34 255.11 144.95 
M 257.8 148.72 261.69 154.27 262.83 156.19 
M 266.9 164.13 268.8 168.1 
M 249.92 130.7 251.66 132.94 256.7 140.11 265.04 151.06 267.38 154.88 268.39 156.88 
M 270.32 160.91 273.13 166.87 274.04 168.47 
M 253.96 130.61 259.28 137.62 267.87 148.13 270.38 151.87 272.42 155.77 275.22 161.69 
M 257.7 130.52 263.11 137.05 
M 265.94 140.31 270.3 145.41 271.59 147.22 
M 273.94 150.9 277.8 158.53 
M 279.89 162.23 282.24 165.74 
M 261.51 130.37 272.76 142.79 275.32 146.24 278.38 151.68 
M 284.71 162.39 287.24 165.66 
M 265.64 130.22 272.8 137.18 275.59 140.26 278.12 143.5 280.23 146.88 283.9 153.81 286.06 157.24 289.76 162.08 
M 270.18 130.12 273.2 132.55 276.01 135.12 278.77 137.91 281.27 140.88 283.4 143.99 286.13 148.77 
M 288.03 151.96 289.02 153.55 292.5 158.3 
M 274.82 130.06 279.3 133.43 282 135.88 284.48 138.52 286.64 141.31 291.31 148.47 
M 295.47 154.46 300.02 161.01 
M 279.41 130.07 282.52 132.14 286.27 135.39 
M 290.78 140.18 292.77 142.7 
M 294.65 145.29 298.56 150.86 
M 300.75 154.04 303 157.5 
M 305.17 161.16 307.28 164.91 
M 283.85 130.27 285.59 131.28 290.39 134.87 294.9 139.07 296.93 141.36 300.74 146.37 308.2 158.03 
M 287.77 130.45 290.93 132.06 293.27 133.55 296.71 136.17 
M 298.9 138.15 300.96 140.33 
M 304.83 145.35 311.23 155.11 
M 291.72 130.72 293.84 131.51 296.1 132.61 298.38 133.96 300.64 135.55 303.87 138.52 
M 305.89 140.79 308.72 144.56 314.2 152.41 
M 316.71 156.04 319.14 159.81 
M 295.02 130.99 297.81 131.72 
M 300 132.61 303.35 134.45 305.55 136.1 307.6 138.01 309.48 140.13 312.31 143.81 
M 319.48 153.27 322 156.84 
M 299.59 131.54 301.68 131.96 303.81 132.7 305.97 133.74 308.04 135.01 309.98 136.54 312.69 139.41 
M 314.58 141.67 316.72 144.27 
M 321.86 150.46 324.49 153.88 
M 326.92 157.39 331.43 164.5 
M 304.48 132.19 306.48 132.58 308.47 133.21 310.4 134.1 312.25 135.26 314.04 136.72 322.69 146.06 326.76 150.96 
M 331.65 157.94 333.96 161.42 
M 309.09 132.62 310.95 132.85 312.8 133.35 314.63 134.15 316.46 135.27 318.34 136.74 322.65 140.83 327.89 146.48 330.52 149.77 334.14 154.95 
M 338.97 161.74 341.4 164.68 
M 313.49 132.69 313.54 132.69 
M 315.69 132.89 317.24 133.25 319.18 134.04 321.2 135.19 323.37 136.74 328.23 141.11 330.84 143.87 334.6 148.58 
M 339.27 155.28 341.76 158.6 
M 323.64 133.64 326.69 135.19 329.13 136.88 331.67 138.98 334.23 141.45 336.71 144.23 339.04 147.25 344.84 155.29 
M 350.21 161.66 352.22 164.05 
M 331.03 134.38 332.7 135.3 335.25 137.09 337.77 139.22 340.18 141.66 342.45 144.37 346.91 150.38 350.67 155.02 
M 338.36 135.2 341.2 137.21 343.54 139.3 345.77 141.71 351.43 148.71 
M 356.67 154.63 360.88 159.35 362.2 161.13 
M 345.09 135.98 346.71 137.26 348.91 139.38 355.84 147.12 362.78 154.27 
M 351.16 136.74 365.78 150.78 
M 357.42 137.64 365.78 144.82 
M 364.99 138.86 365.78 139.48 
M 95.37 131.58 94.94 132.1 
M 101.27 131.41 98.21 135.33 
M 107.04 131.3 104.75 134 100.7 139.65 
M 112.94 131.3 109.9 134.38 107.54 137.35 102.79 144.47 
M 118.9 131.4 115.05 135 112.6 137.72 110.3 140.82 105.16 148.85 
M 124.93 131.62 120.37 135.82 117.83 138.46 115.42 141.37 113.16 144.64 107.34 153.86 
M 130.96 131.86 127.18 135.46 
M 124.53 138.14 120.78 142.37 119.62 143.93 
M 117.32 147.2 113.49 153.16 
M 136.8 132.11 128.79 140.55 123.96 146.63 120.94 151.01 
M 142.63 132.22 137.18 138.09 134.51 141.28 130.81 146.12 
M 108.33 174.6 107.33 175.35 
M 148.56 132.32 143.18 138.2 140.43 141.52 136.67 146.67 
M 112.86 176.07 111.7 176.76 
M 154.7 132.23 149.5 138.16 143.51 145.86 
M 116.24 177.97 113.95 179.02 112.74 179.39 
M 160.86 132.13 155.91 138.09 150.65 145.01 
M 118.77 179.68 116.62 180.23 
M 166.92 131.98 162.18 138.12 157.63 144.46 
M 172.76 131.85 168.26 138.18 163.53 145.27 
M 178.48 131.76 174.14 138.22 168.86 146.75 
M 184.2 131.65 179.87 138.24 173.44 149.3 
M 190.04 131.52 187.45 135.07 185.45 138.26 177.45 152.79 
M 196.01 131.33 193.02 135.17 190.86 138.38 188.88 141.75 184.2 150.77 
M 182.35 154.46 180.25 158.52 
M 202.02 131.13 198.66 135.29 196.27 138.55 194.09 141.94 192.15 145.45 185.23 159.86 182.32 164.94 
M 207.95 130.95 201.9 138.69 199.47 142.13 197.3 145.67 195.44 149.26 193.07 154.63 
M 191.5 158.16 188.92 163.31 186.96 166.54 184.82 169.56 181.19 173.55 
M 213.83 130.78 207.71 138.75 202.86 145.83 200.77 149.45 195.2 161.7 
M 193.42 164.99 190.39 169.6 188.07 172.3 186.82 173.52 
M 219.82 130.72 213.54 138.76 208.7 145.86 206.52 149.52 204.65 153.17 201.46 160.18 198.88 165.13 
M 196.91 168.23 195.88 169.73 193.61 172.44 192.4 173.64 
M 226.19 130.68 221.8 135.77 219.39 138.91 215.79 144.05 
M 213.49 147.65 210.45 153.14 205.4 163.73 202.44 168.46 
M 232.65 130.74 225.25 139.35 222.83 142.56 219.37 147.71 
M 215.41 154.88 211.11 163.82 209.17 167.18 208.1 168.73 
M 239.16 130.77 231.31 140 226.32 146.41 224.07 149.77 222.09 153.2 219.46 158.44 
M 217.72 161.97 215.85 165.45 
M 211.57 171.91 209.26 174.66 
M 245.66 130.78 242.5 134.44 232.37 147.22 228.91 152.06 
M 226.95 155.33 225.17 158.66 
M 223.42 162.03 221.54 165.42 
M 252.13 130.65 248.28 135.26 241.07 144.96 236.08 151.37 233.83 154.53 230.91 159.27 
M 229.07 162.45 227.17 165.66 
M 222.87 172.08 221.25 174.24 
M 258.61 130.48 257.21 131.84 255.48 133.9 247 145.86 241.01 153.96 
M 265.4 130.23 264.1 131.18 262.2 133.05 260.48 135.17 251.71 148.26 
M 246.9 154.87 242.54 161.22 
M 236.23 170.21 234.27 172.69 
M 273.04 130.08 272 130.55 269.72 132.04 267.58 133.95 265.68 136.16 263.27 139.87 
M 261.68 142.56 259.89 145.53 
M 257.75 148.75 255.33 152.11 
M 252.84 155.49 248.25 162.07 
M 243.94 168.28 241.74 171.19 
M 281.36 130.16 280.42 130.42 278.1 131.47 275.78 132.93 273.49 134.78 271.33 136.99 269.45 139.43 263.65 149.25 
M 258.88 155.89 256.35 159.32 
M 289.75 130.56 288.2 130.74 286.08 131.36 283.96 132.37 281.79 133.78 279.56 135.57 276.21 138.97 
M 270.79 147.06 268.22 151.5 267.1 153.09 
M 264.72 156.38 262.15 159.79 
M 259.58 163.22 257.14 166.54 
M 254.84 169.7 253.34 171.74 
M 297.57 131.28 295.5 131.19 293.45 131.46 291.4 132.12 289.36 133.15 287.32 134.55 283.11 138.38 280.81 140.84 278.56 143.55 276.54 146.43 271.2 155.53 267.66 160.49 
M 302.5 131.92 300.49 131.81 298.52 132.05 297.54 132.35 
M 295.57 133.16 294.59 133.66 291.58 135.92 
M 289.51 137.83 285.02 142.65 
M 278.41 151.67 276.62 154.84 
M 274.79 158.05 272.73 161.33 
M 267.84 167.96 266 170.28 
M 307.26 132.5 305.35 132.45 303.44 132.65 301.55 133.18 299.66 134.07 297.73 135.35 295.73 137.02 292.51 140.24 
M 290.19 142.79 286.5 147.18 284.06 150.42 280.98 155.42 
M 311.7 132.7 309.9 132.82 308.13 133.19 304.59 134.62 302.73 135.75 298.71 139.14 296.51 141.36 292.91 145.44 
M 290.42 148.58 286.83 153.73 285.8 155.5 
M 314.65 132.79 312.48 133.35 310.78 134.11 307.49 136.32 303.69 139.46 301.56 141.44 298.07 145.14 
M 295.65 148.08 292.07 153.18 291 155.04 
M 287.2 162.3 285.53 165.73 
M 317.57 133.06 315.02 134.14 313.3 135.28 311.7 136.65 307.44 140.98 
M 300.83 147.82 298.53 150.88 
M 296.33 154.36 292.32 161.78 
M 290.55 165.39 289.15 168.18 
M 321.09 133.39 319.62 134.02 317.6 135.25 315.78 136.74 314.13 138.47 310.96 142.45 305.88 148.17 
M 325.19 133.79 322.54 135.18 320.35 136.74 318.4 138.57 316.72 140.62 313.68 145.19 310.9 148.87 
M 308.82 151.52 305.71 155.98 302.56 160.99 
M 330.01 134.28 328.19 135.21 325.72 136.78 323.4 138.65 321.38 140.79 319.7 143.16 316.82 148.33 314.14 152.39 
M 312.1 155.26 307.75 161.46 
M 335.18 134.84 331.69 136.97 329.15 138.87 327.97 139.95 
M 325.77 142.24 324.76 143.45 323.11 146.09 320.29 151.8 317.57 156.19 
M 340.27 135.41 335.26 139.14 332.73 141.37 330.36 143.84 328.33 146.52 327.51 147.95 
M 325.96 150.86 323.72 155.4 320.87 160.06 
M 345.15 135.99 341.21 139.29 338.73 141.63 336.23 144.21 333.86 146.98 331.81 149.89 327.69 157.48 
M 323.96 163.91 322.02 166.88 
M 349.83 136.58 346.72 139.34 343.2 143.03 
M 340.75 145.82 337.14 150.3 336.09 151.85 
M 330.72 161.14 327.48 166.81 
M 354.38 137.16 349.79 141.77 346.31 145.84 
M 343.89 148.87 340.31 153.67 338.22 156.88 335.55 161.57 
M 358.82 137.86 357.22 139.46 352.93 144.41 347.13 151.98 
M 344.81 155.29 341.64 160.23 338.9 164.9 
M 363.35 138.59 358.47 144.31 354.08 150.11 349.49 156.73 344.57 164.61 
M 365.78 141.99 361.07 148.32 
M 358.88 151.38 354.38 158.06 
M 365.78 149.81 360.47 157.67 
M 358.14 161.26 356.53 163.76 
M 364.2 161.05 362.75 163.26 
M 168.88 131.13 195.01 89.53 195.72 89.96 171.89 131.87 
M 181.26 130.96 202.1 95.36 202.83 95.76 184.26 131.64 
M 193.65 130.7 209.81 100.82 210.55 101.19 196.64 131.31 
M 206.03 130.34 218.51 106.04 219.26 106.39 209.02 130.92 
M 218.44 130.11 228.08 111.17 228.84 111.51 221.4 130.7 
M 230.84 130.15 237.98 116.06 238.74 116.38 233.78 130.75 
M 243.23 130.26 248.07 120.41 248.84 120.71 246.16 130.78 
M 255.61 130.09 258.66 124.06 259.45 124.31 258.53 130.49 
M 268.01 129.71 269.88 127.1 270.68 127.32 270.85 130.11 
M 276.94 129.64 278.38 130.02 
M 193.3 94.23 194.18 96.14 195.35 97.65 196.96 98.53 200.02 98.92 
M 200.93 99.43 201.99 101.31 203.32 102.77 205.03 103.57 208.19 103.81 
M 209.12 104.27 210.45 106.15 211.99 107.59 213.89 108.35 217.26 108.47 
M 218.21 108.91 219.74 110.8 221.48 112.24 223.54 112.98 227.12 113.06 
M 228.07 113.49 229.69 115.35 231.51 116.75 233.63 117.46 237.26 117.47 
M 238.22 117.87 239.93 119.65 241.81 120.96 243.96 121.56 247.58 121.4 
M 248.56 121.76 251.42 124.11 253.54 124.94 255.88 125.04 258.36 124.66 
M 259.35 124.98 261.41 126.55 262.48 127.17 264.73 127.89 267.16 127.87 269.69 127.36 
M 270.7 127.65 271.97 129.16 273.2 130.08 
M 277.39 130.03 277.87 129.89 
M 193.72 95.21 194.72 96.97 195.35 97.65 196.96 98.53 198.95 98.87 
M 190.68 101.61 191.5 103.06 192.64 104.05 193.35 104.35 194.99 104.63 
M 187.64 108.01 188.29 109.15 189.19 109.94 191.04 110.39 
M 184.61 114.41 185.38 115.57 186.14 115.99 187.09 116.15 
M 201.44 100.4 202.61 102.11 203.32 102.77 205.03 103.57 207.09 103.81 
M 199.23 105.85 200.19 107.26 200.77 107.8 202.19 108.47 203.89 108.66 
M 197.01 111.29 198.23 112.83 199.34 113.36 200.68 113.51 
M 194.79 116.74 195.68 117.87 196.5 118.25 197.48 118.36 
M 209.77 105.24 211.18 106.95 211.99 107.59 213.89 108.35 216.1 108.51 
M 207.77 111.29 208.85 112.6 209.47 113.09 210.93 113.67 212.62 113.8 
M 205.76 117.34 206.51 118.25 207.43 118.84 209.14 119.08 
M 218.96 109.89 220.57 111.6 221.48 112.24 223.54 112.98 225.89 113.12 
M 217.08 117.22 218.72 118.75 220.06 119.23 221.58 119.32 
M 228.86 114.45 230.56 116.13 232.53 117.19 233.63 117.46 236.02 117.54 
M 239.06 118.79 240.84 120.39 242.85 121.36 243.96 121.56 246.34 121.54 
M 106.67 154.06 107.45 153.83 113.12 153.22 115.58 152.8 120.47 151.06 123.59 150.69 125.74 150.67 129.23 148.88 131.9 147.25 156.84 144.28 159.59 144.92 162.03 145.26 164.14 145.27 166.82 145.84 169.09 146.85 175.55 150.47 177.33 152.58 179.83 157.24 180.16 158.36 181.09 160.05 181.65 162.93 181.2 168.59 180.41 170.84 180.1 173.13 178.79 174.41 178.44 176.66 176.45 177.73 174.28 178.58 171.91 179.23 167.88 181.44 166.22 183.18 164.26 184.61 162.14 185.97 159.87 187.19 158.47 189.05 134.37 184.38 128.12 180.72 124.57 179.33 122.93 179.45 119.96 179.1 117.13 178.35 114.42 177.18 112.49 175.81 107.27 173.61 
M 106.99 155.67 109.61 155.13 112.67 154.89 115.72 154.4 118.22 153.58 120.79 152.97 125.91 152.44 129.44 150.55 
M 107.24 157.34 109.5 156.74 112.66 156.53 115.81 156.09 118.51 155.29 120.81 155.07 122.99 155.43 125.53 154.84 128.12 154.5 133.58 152.41 136.23 151.79 139.42 150.32 144.47 149.09 150.58 148.5 152.78 149.05 154.48 149.72 156.54 149.57 158.59 148.79 161.69 148.14 
M 107.63 159.05 109.49 158.56 120.93 156.96 125.54 156.86 127.4 157.4 129.79 157.41 132.05 156.62 133.99 155.38 136.56 155.13 139.53 155.45 142.63 154.76 
M 107.75 160.7 112.45 159.76 118.01 159.44 120.68 159 123.33 159.11 125.65 159.54 128.06 160.29 131.01 160.35 133.34 159.81 143.32 158.3 146.23 157.35 148.64 157.22 156.22 158.18 158.84 158.14 161.14 157.08 
M 107.78 162.48 112.55 161.9 114.96 161.97 120.49 161.66 123.14 161.89 126.03 162.35 128.62 163.18 130.83 163.01 133.59 163.11 135.92 162.99 137.98 162.67 143.27 162.81 145.38 162.17 154.2 162.33 156.03 163.19 
M 107.65 164.29 109.63 164.32 112.16 164.11 120.36 164.62 122.84 164.33 125.87 164.78 128.47 166.07 131.11 166.75 135.72 166.81 138.12 166.99 140.43 168.23 145.21 167.88 
M 107.46 165.78 109.27 166.03 114.68 166.16 120.1 167.04 122.44 167.12 125.18 167.68 127.79 169.39 131.02 170.04 133.58 170.83 135.73 170.8 137.44 171.55 140.4 172.24 142.26 172.86 145.65 172.52 148.28 172.01 
M 107.21 167.67 111.53 167.91 119.72 169.66 122.06 169.95 124.75 170.69 130.75 173.57 135.62 174.71 138.18 175.81 140.77 176.56 146.15 176.74 150.52 177.21 152.94 178.04 154.82 179.05 155.7 178.84 159.47 180.25 162.49 181.16 
M 107.03 169.43 111.63 169.9 113.83 170.79 119.61 172.28 122.22 172.54 125.17 173.63 128.43 174.49 133.69 176.72 139.06 178.28 140.97 179.72 143.38 180.79 146 181.25 
M 107.08 171.4 111.72 172.67 113.56 173.58 116.01 174.49 121.9 175.42 127.3 177.74 133.96 179.21 136.12 180.01 137.83 181.81 139.97 182.59 
M 171.03 180.25 177.91 186.59 177.42 187.26 169.28 182.66 
M 162.76 185.57 188.68 210.58 188.13 211.19 160.27 186.97 
M 150.25 187.45 175.33 219.58 174.69 220.1 145.98 186.62 
M 135.17 184.53 150.99 212.75 150.28 213.18 131.75 184.52 
M 117.4 182.37 120.3 191.26 119.55 191.6 114.69 183.61 
M 176.61 186.8 177.65 191.87 179.15 196.74 181.35 201.31 182.7 203.48 185.7 207.7 
M 184.99 208.47 181.67 209.21 178.59 210.37 175.91 212.19 174.7 213.33 172.46 215.89 
M 171.65 216.56 167 214.03 164.63 212.92 159.72 211.23 154.6 210.26 149.32 209.78 
M 148.43 210.31 142.73 205.01 136.74 200.12 130.31 195.84 126.94 193.93 120.01 190.37 
M 177.1 189.35 178.32 194.34 180.16 199.06 181.35 201.31 184.17 205.61 
M 183.31 208.81 180.09 209.71 178.59 210.37 175.91 212.19 173.56 214.58 
M 178.88 205.24 176.1 206.01 173.62 207.29 172.51 208.14 170.49 210.2 
M 174.44 201.67 172.12 202.32 171.04 202.79 169.11 204.1 167.42 205.82 
M 170.01 198.09 168.14 198.62 166.46 199.48 164.35 201.44 
M 165.57 194.52 163.5 195.21 162.31 196.01 161.28 197.06 
M 169.34 215.26 164.63 212.92 159.72 211.23 157.18 210.66 151.97 209.99 
M 164.07 209.74 160.18 207.82 158.18 207.04 154.04 205.95 149.74 205.39 
M 158.8 204.23 155.74 202.71 154.16 202.1 150.9 201.24 147.51 200.8 
M 153.53 198.71 150.14 197.15 147.76 196.53 145.28 196.2 
M 145.6 207.64 139.78 202.49 136.74 200.12 130.31 195.84 123.5 192.12 
M 332.49 168.81 335.55 173.85 340.26 179.49 341.64 181.67 338.24 182.65 333.12 183.83 330.64 184.21 328.38 184.47 325.9 184.05 324.32 185.15 321.51 185.48 319.37 184.78 316.23 184.33 313.2 184.33 308.32 186.25 302.56 189.35 300.23 189.23 295.19 189.94 293.13 191.02 291.58 192.72 290.36 194.86 289.46 197.47 286.91 197.61 284.52 198.69 283.08 200.73 282.4 203.3 277.65 204.53 275.69 205.93 272.89 206.49 270.65 207.65 268.55 209.07 266.91 210.94 265.55 213.01 263.5 214.39 260.21 217.39 259.6 220.46 258.16 219.2 257.27 216.49 255.39 212.13 251.93 208.42 250.39 206.28 249.95 203.3 248.76 200.12 246.96 194.44 245.67 192.06 243.99 190.48 242.3 188.27 240.4 186.12 239.5 183.95 238.85 181.19 236.95 178.69 235.09 175.86 
M 328.37 169.25 332.1 173.79 
M 324.26 169.7 329.54 177.82 330.79 181.96 
M 320.14 170.09 323.2 174.79 
M 316.01 170.37 318.8 174.88 321.31 177.33 
M 311.88 170.66 315.53 175.4 
M 307.75 170.8 310.91 175.14 315.2 179.37 317.26 181.74 
M 303.61 170.9 308.21 177.74 
M 299.48 171 302.27 174.69 303.79 177.59 305.9 180.52 306.28 184.42 
M 295.34 171.08 297.79 174.48 298.82 177.51 300.22 180.62 
M 291.2 171.17 293.29 174.67 294.67 177.33 296.38 182.65 
M 287.07 171.33 292.49 180.6 292.8 182.41 293.61 185.24 296.41 187.18 
M 282.94 171.57 286.85 177.75 287.85 180.24 
M 278.81 171.82 281.18 175.56 284.45 181.56 285.35 184.38 286.59 185.72 
M 274.69 172.2 277.12 175.84 282.58 184.7 285.52 188.4 286.2 191.03 
M 270.57 172.61 274.35 178.28 276.23 181.42 281.26 188.59 282.82 191.14 
M 266.45 173.02 269.87 178.35 272.54 183.3 274.64 186.67 276.34 189.29 277.81 191.1 279.33 193.51 
M 262.34 173.48 264.62 176.76 266.17 179.3 267.86 181.6 270.6 186.9 271.95 189.05 
M 258.22 173.93 261.98 179.9 263.57 182.98 265.42 185.37 266.59 187.82 267.58 190.41 268.93 192.25 
M 254.11 174.33 256.42 177.23 261.06 185.72 262.01 188.3 264.15 191.03 265.9 195.56 266.94 197.56 269.24 200.02 271.45 201.62 272.7 202.96 
M 249.98 174.69 254.03 179.83 256.51 185.52 258.09 187.94 260.01 193.6 261.57 196.68 
M 245.86 175.05 249.37 180.52 252.14 186.17 253.41 188.42 254.04 190.73 255.69 193.22 257.22 196.04 258.15 198.81 259.94 200.93 261.78 202.32 
M 241.74 175.36 244.96 180.6 248.27 185.36 249.33 188.09 249.91 190.64 251.58 193.11 253.31 196.46 254.73 198.43 
M 237.61 175.67 239.49 178.58 240.89 181.29 241.73 183.74 245.21 187.91 247.72 192.22 249.15 194.27 250.67 197.38 251.77 200.19 252.58 203.6 253.79 206.43 254.91 208.3 
M 364.95 138.84 367.81 138.26 377.55 133.43 381.52 130.58 388.08 128.01 389.98 126.28 392.16 124.67 398.28 121.35 400.28 120.04 401.35 118.55 403.04 117.88 406.5 117.01 409.12 115.54 410.59 112.78 412.86 111.08 417.75 110.27 428.02 108.2 430.51 108.32 432.66 108.11 436.5 107.22 438.85 107.36 443.58 109.35 449.94 112.78 452.05 112.6 454.91 113.16 459.24 113.34 465.52 117.83 479.53 130.23 482.07 133 485.34 137.58 486.53 141.07 488.71 146.04 488.42 148.02 486.55 152.68 486.68 154.81 489.87 161.16 490 162.86 488.85 164.95 487.22 166.8 485.96 169.01 484.35 170.88 483.16 173.16 481.21 174.67 479.63 176.54 478.42 178.8 477.55 181.32 476.91 184.06 475.9 186.44 473.54 187.55 470.53 187.95 466.58 190.83 461.66 192.7 459.66 194.08 457.32 195.12 454.82 195.93 453.44 197.84 451.67 199.36 449.19 200.17 443.69 200.32 438.38 199.76 436.43 200.41 433.97 200.73 431.71 201.25 428.05 201.38 419.89 203.41 417.5 200.38 415.37 199.24 413.37 197.86 410.81 195.21 407.87 193.8 406.12 192.63 403.48 191.71 399.99 190.76 397.51 189.48 395.95 188.07 393.17 186.97 391.26 184.7 388.98 182.47 383.04 178.56 381.19 176.16 378.73 174.09 376.22 172.96 374.27 171.65 367.91 166.51 364.95 164.56 
M 367.75 139.63 370.28 138.73 372.82 137.49 377.86 135.56 382.03 132.86 384.37 131.79 386.84 130.97 388.32 130.83 390.53 129.47 394.71 126.29 397.47 124.57 402.29 122 404.11 121.58 406.15 120.4 408.63 119.37 411.47 118.78 412.6 116.58 415.12 114.61 
M 370.23 140.49 372.73 139.27 375.31 138.38 378.15 137.62 380.63 136.58 385.32 134.27 387.62 133.76 391.61 131.56 395.68 128.92 398.26 128.18 400.47 126.5 402.84 125.22 407.11 124.25 410.66 122.28 413.11 121.8 415.79 120.37 418.96 119.4 422.89 117.71 425.24 116.57 428.3 112.5 431.49 111.34 
M 370.47 142.04 372.62 140.9 375.47 139.98 378.49 139.33 381.16 138.53 383.49 137.47 390.59 135.24 392.46 133.9 396.09 131.84 398.91 131.42 401.6 129.97 403.67 128.46 405.88 127.4 410.99 126.18 417.03 124.2 419.41 122.04 424.61 119.5 427.54 119.36 431.68 117.06 433.85 116.91 437.03 115.77 442.31 114.37 443.17 112.93 446.1 113.06 
M 372.94 142.73 375.41 141.63 378.63 140.82 383.78 139.12 388.09 138.55 392.99 136.96 394.27 136.35 396.1 135.04 398.76 134.22 401.39 133.13 404.12 131.41 410.28 130.26 413.06 128.78 415.28 128.03 417.14 128.45 420.29 127.93 423.09 126.54 426.65 125.77 431.94 123.61 433.64 122.13 436.27 121.72 
M 367.94 145.39 373.21 144.26 378.32 142.5 381.18 141.92 383.66 141.07 386.32 140.39 388.58 140.08 390.82 139.99 394.94 139.25 397.01 138.28 398.8 136.66 401.87 136.45 404.8 135.41 407.3 134.29 410.17 133.37 415.62 132.72 417.91 132.93 421.45 132.17 423.77 131.2 426.47 130.38 428.48 128.97 
M 367.91 146.74 370.55 146.51 373.29 145.93 378.39 144.45 381.1 143.98 383.63 143.2 386.42 142.72 388.96 142.34 390.85 142.64 393.42 142.55 396.02 141.81 400.05 140.26 402.91 139.57 405.19 139.34 408.37 138.12 411.27 137.66 413.75 136.84 416.27 136.25 418.26 136.44 422.97 135.61 425.95 135.57 427.78 134.7 429.52 133.32 432.9 133.34 435.77 132.86 438.72 132.14 440.71 131.41 443.17 130.88 449.51 128.49 453.54 127.4 456.24 127.79 457.76 127.68 460.42 127.93 465.39 126.4 467.98 126.38 470.76 124.78 
M 370.43 147.86 373.14 147.63 375.78 146.97 383.91 145.42 389.21 145 391.71 145.22 393.92 145.21 396.72 144.51 398.66 144.49 403.81 142.95 406.38 142.57 411.6 140.94 414.1 140.62 416.79 140.94 421.21 140.66 426.22 139.33 428.09 139.05 430.1 138.08 436.15 138.98 438.82 139.93 441.17 138.37 444.38 137.64 448.04 137.18 450.5 136.16 
M 373.02 149.21 389.14 147.3 391.73 147.89 394.31 148.27 396.76 147.8 399.4 147.54 403.69 146.55 409.14 145.9 411.06 145.43 413.69 145.15 417.14 145.09 421.42 145.43 426.17 143.64 428.82 143.83 431.3 143.82 
M 364.95 150.42 367.92 150.9 370.34 151.06 378.39 150.35 383.76 150.41 386.34 150.05 388.96 149.91 391.67 150.73 394.5 151.16 397.16 151.06 399.44 150.71 401.57 150.77 404.01 151.48 406.31 151.3 408.66 150.67 415.07 149.97 416.45 150.27 422.04 150.14 425.05 149.68 427.44 149.6 429.95 149.19 432.45 149.06 434.72 149.52 439.17 149.43 442.42 148.68 445.71 148.25 449.32 148.03 451.58 148.28 452.94 148.92 456.88 148.82 459.13 149.27 464.2 148.07 467.04 147.71 471.06 148.27 473.69 149.01 475.42 148.75 477.54 149.12 
M 367.95 152.42 370.39 152.63 375.61 152.24 388.6 152.67 391.36 153.67 394.5 153.87 397.35 154.47 401.38 154.56 404.15 154.96 406.15 155.47 411.93 154.38 414.78 154.58 417.25 155.48 419.88 155.45 421.95 155.73 425.08 154.48 430.43 155.86 433.1 155.25 441.05 157.1 444.36 156.89 446.99 157.22 448.26 156.65 450.85 156.12 455.24 155.93 458.84 156.86 461.73 155.58 463.67 155.59 467.78 156 470.12 155.78 472.6 155.91 475.64 155.66 479.52 156.81 484.24 157.1 
M 373.03 154.35 375.75 154.31 383.69 154.99 388.9 155.18 391.83 155.93 394.63 157.06 397.2 157.51 399.5 157.67 402.01 158.3 404.59 158.71 407.17 158.81 409.83 158.58 412.19 158.72 414.58 158.62 416.87 159.37 418.77 159.17 420.81 159.34 424.42 160.35 427.73 160.41 432.35 160.18 434.71 160.04 437.64 159.55 440.28 160.2 442.94 161.52 445.53 162.54 450.77 163.14 455.15 163.42 458.31 162.88 460.72 163.17 465.5 162.94 467.26 163.47 469.46 163.31 471.38 163.64 474.22 163.71 477.17 162.53 480.02 160.53 483 160.68 486.07 161.68 
M 367.92 155.15 370.61 155.82 377.89 156.97 380.46 157.27 386.3 157.45 394.73 159.13 397.49 159.87 399.97 160.17 402.67 160.77 404.92 161.76 407.22 162.27 409.9 162.42 412.23 161.91 414.52 161.91 417.19 162.74 418.29 163.64 420 164.43 423.62 164.56 426.26 165.16 429.3 165.17 431.84 164.74 434.36 164.9 437.09 164.58 439.1 164.78 441.83 166.54 445.1 167.75 448.55 168.41 449.81 168.44 
M 364.95 155.56 368.06 156.67 375.96 158.8 380.92 159.97 383.57 160.26 386.12 160.18 388.57 160.54 391.37 161.31 394.54 161.95 399.98 162.81 402.02 163.98 404.2 164.65 409.2 165.97 411.28 166.34 413.84 166.25 416.11 166.92 421.08 168.91 423.57 168.95 427.62 168.46 430.18 169.15 432.9 170.5 439.71 170.93 441.19 172.06 444.09 172.26 447.54 171.74 450.48 173.12 452.06 174.85 454.36 174.99 458.97 176.02 462.87 179 466.35 178.97 469.07 178.54 471.57 177.5 474.38 177.58 
M 370.73 158.83 375.81 160.82 380.83 162.43 386.02 162.85 391.53 164 393.77 164.92 395.86 165.25 398.1 165.93 400.43 167.23 405.26 167.91 407.64 169.18 415.39 172.3 418.18 172.48 419.9 172.23 422.07 172.64 
M 370.8 160.26 375.66 162.67 378.22 163.65 380.65 164.36 386.35 164.99 388.71 166.23 390.95 166.86 392.77 167.99 394.98 168.66 397.76 169.84 399.55 170.38 404.45 171.19 407.14 172.86 410.09 174.43 415.55 176.92 416.59 177.63 418.83 177.08 420.63 177.71 425.67 179.04 429.19 179.38 431.36 180.54 433.67 181.16 438.66 185.16 442.06 185.42 
M 368.03 160.74 370.79 161.87 373.27 163.23 377.84 165.36 380.4 166.22 382.83 166.75 387.9 168.53 390.14 169.6 391.93 170.97 394.65 172.17 397.14 173.53 399.8 173.82 403.25 175.24 409.52 178.31 414.45 179.8 417.1 180.8 418.67 181.85 420.83 182.31 424.3 183.45 427.84 184.38 430.39 184.85 431.85 186.12 435.09 187.21 439.12 188.28 441.65 189.22 444.74 193.28 446.82 194.33 448.54 195.65 453.48 195.34 
M 373.03 164.69 375.41 165.64 377.48 167.1 379.99 168.13 381.89 169.14 387.69 170.96 389.75 172.04 394.05 175.42 396.49 177.05 399.27 177.75 403.14 179.61 405.46 180.95 407.87 181.92 
M 368.02 163.73 381.75 171.48 386.93 173.53 391.29 177.13 393.59 178.65 395.5 180.19 398.15 181.59 399.7 182.79 406.02 182.81 407.77 184.15 409.65 186.53 412.34 187.63 414.88 189.11 
M 372.36 168.12 374.41 169.91 379.23 172.27 383.61 175.65 386.02 177 387.93 178.55 390.57 179.81 392.76 181.2 397.58 185.69 398.82 186.34 405.28 186.83 407.39 187.7 409.64 190.08 412.55 192.11 414.25 195.01 
M 352.49 164.51 350.93 164.79 349.16 164.86 345.16 167.73 343.52 167.35 341.69 165.86 343.31 167.47 
M 36.47 145.17 40.26 144.18 49.7 142.27 62.84 139.17 72.36 136.44 76.99 135.45 85.11 134.08 91.21 132.65 94.44 131.68 96.98 133.81 98.89 136.16 100.23 138.63 102.57 143.64 103.26 146.25 105.05 148.62 106.18 151.13 107.04 156.46 107.64 159.09 107.82 161.81 106.95 170.27 107.25 172.97 107.34 175.71 106.93 178.55 105.25 181.63 96.39 181.18 89.74 180.32 78.15 178.02 73.15 176.57 68.75 174.7 60.41 170.37 56.46 167.79 52.68 164.96 
M 49.04 162.47 45.39 160.12 42.53 157.62 40.45 154.94 
M 87.65 143.42 88.51 145.58 88.49 147.79 88.07 151.86 86.55 157.44 86.65 159.18 88.64 162.81 89.57 164.95 89.6 167.54 79.32 167.51 70.67 166.76 66.56 165.96 62.82 164.59 59.28 162.79 
M 51.28 164.5 46.1 159.79 41.28 155.76 38.47 152.97 33.76 149.16 32.59 147.5 33.05 145.41 34.88 144.53 36.88 145.34 39.53 148.32 52.8 164.86 
M 50.83 165.52 44.35 165.94 34.1 166.97 32.15 167.03 30.43 165.95 30 163.91 31.23 162.3 33.16 162.24 45.67 163.61 51.6 164.56 
M 52.49 164.71 52.49 164.71 
M 59.42 151.16 58.59 148.02 58.82 144.77 60.1 141.79 62.51 139.24 
M 69.17 137.36 71.53 137.73 74.4 139.25 76.63 141.62 77.96 144.58 78.26 147.82 77.5 150.98 75.75 153.72 73.2 155.74 70.14 156.82 66.89 156.86 63.81 155.83 61.22 153.86 59.42 151.16 
M 59.3 150.88 58.65 148.53 58.55 147.31 58.8 144.88 59.15 143.7 60.27 141.53 61.02 140.57 62.45 139.26 
M 69.4 137.3 71.04 137.58 72.2 137.98 
M 60.83 150.25 60.29 148.29 60.24 146.25 60.7 144.27 61.11 143.34 62.09 141.87 
M 62.71 141.21 64.66 139.8 66.57 139.1 67.57 138.93 69.6 138.97 71.56 139.51 
M 62.35 149.61 61.92 148.05 61.86 147.24 62.11 145.32 
M 63.91 142.35 65.41 141.27 66.94 140.71 68.55 140.54 69.36 140.61 70.93 141.04 
M 64.82 148.72 64.49 147.47 64.72 145.84 
M 66.01 143.98 67.1 143.38 68.38 143.15 69.66 143.35 70.81 143.96 71.7 144.91 72.24 146.1 72.36 147.39 72.05 148.65 71.35 149.75 70.33 150.56 69.11 150.99 67.81 151 66.57 150.59 65.54 149.81 64.82 148.72 
M 64.97 145.9 64.54 146.78 
M 67.51 143.31 66.79 144.74 
M 66.04 146.26 64.81 148.71 
M 68.8 143.22 67.62 145.58 
M 67.09 146.63 65.52 149.78 
M 69.91 143.48 68.33 146.64 
M 68.05 147.19 66.41 150.47 
M 70.88 144.03 69.04 147.69 
M 69.02 147.75 67.45 150.88 
M 71.69 144.89 68.63 151 
M 72.25 146.24 70.04 150.66 
M 37.5 144.89 42.07 149.46 
M 41.5 143.92 44.62 147.04 
M 45.68 143.13 50.11 147.57 
M 49.77 142.26 53.31 145.8 
M 53.74 141.26 57.94 145.46 
M 57.79 140.35 59.84 142.4 
M 61.81 139.41 62.04 139.63 
M 69.58 137.24 69.8 137.46 
M 73.5 136.19 76.51 139.21 
M 77.62 135.35 80.74 138.48 
M 81.9 134.66 85.08 137.84 
M 86.06 133.86 89.67 137.47 
M 90.09 132.92 93.96 136.79 
M 93.98 131.85 96.65 134.52 
M 48.67 162.23 48.65 162.1 
M 88.6 153.7 84.77 151.21 82.76 149.27 81.86 147.67 
M 47.2 157.84 46.38 155.01 46.34 154.47 46.72 153.63 
M 80.5 156.65 81.03 153.75 80.82 146.66 
M 45.31 149.04 46.02 148.4 46.21 147.86 46.09 147.55 45.4 146.97 43.86 146.34 
M 78.8 146.68 78.93 145.67 78.59 145.01 77.81 144.23 
M 87.82 135.17 86.3 133.81 
M 48.79 143.51 47.27 143.8 45.64 143.63 44.43 143.73 43.77 143.56 
M 100.81 164.84 101.1 165 
M 65.57 172.31 65.3 172 65.8 171.67 
M 84.69 163.96 85.97 163.55 87.42 164.01 
M 83.23 160.2 83.95 159.94 84.58 160.25 84.87 160.7 85.42 162.45 
M 38.25 144.68 37.86 145.54 37.47 145.96 
M 38.45 145.34 37.76 146.27 
M 100.4 144.95 100.64 141.72 101 140.31 
M 96.27 168.29 96.67 166.12 96.6 165.49 96.15 165.14 94.74 165 
M 61.17 140.15 61.3 140.45 
M 43.35 148.2 43.88 147.28 43.16 146.15 
M 82.13 160.59 83.45 159.6 84 159.42 84.74 159.89 85.1 160.66 
M 83.2 175.61 83.36 173.61 84.04 171.03 84 170.38 83.59 169 
M 80.3 165.55 81.57 162.35 82.33 160.95 83.61 160.03 84.32 160.1 
M 82.61 166.13 83.62 165.89 84.56 164.78 86.11 163.97 
M 90.57 157.47 89.62 158.95 88.82 160.98 88.52 162.36 88.53 163.7 89.33 164.23 
M 38.47 145.7 37.88 146.4 
M 73.93 164.77 75.99 165.34 76.6 165.39 77.61 165.07 78.23 164.5 78.47 164.04 79.31 162.25 79.66 161.09 
M 102.95 145.05 102.05 143.88 101.59 141.58 
M 85.47 159.39 85.69 160.78 85.47 161.99 85.54 162.85 
M 57.98 161.05 57.29 161.1 56.54 160.58 55.81 159.41 55.3 157.91 55.28 156.44 55.56 155.11 56.29 153.89 57.25 152.78 
M 99.07 176.65 98.37 176.08 97.38 175.66 96.21 174.58 
M 95.1 167.67 95.45 165.91 95.35 165.25 95.09 165.07 93.89 164.96 
M 95.82 154.18 96.74 155.03 96.65 155.64 95.17 156.98 93.43 157.89 
M 73.66 176.7 73.66 176.72 
M 50.42 147.12 50.05 146.37 49.21 145.88 45.23 145.9 43.49 145.25 
M 53.19 147.13 53.34 147.4 53.65 147.54 55.65 147.71 56.17 147.92 
M 81.62 134.71 82.32 134.97 82.73 135.52 
M 101.93 152.96 102.31 151.35 102.26 150.58 
M 88.6 165.87 89.16 164.95 89.5 164.78 90.84 164.63 
M 89.35 138.32 85.42 134.01 
M 105.02 173.64 103.5 172.61 102.16 170.84 98.67 168.37 98.25 167.62 97.93 165.96 
M 55 143.31 54.9 146.34 55.06 146.8 55.84 147.43 
M 54.22 160.54 53.41 157.19 53.77 155.42 54.04 154.79 55.76 152.45 56.86 151.25 57.27 151.04 
M 77.31 158.93 77.59 158.22 78.62 157 79.03 156.18 79.63 153.05 79.5 148.77 80.18 147.41 
M 58.21 168.08 59.36 169.68 
M 62.42 171.42 64.11 171.54 
M 58.78 148.76 58.56 149.68 59.08 151.38 
M 64.75 156.15 63.79 156.8 62.41 156.72 61.65 156.87 
M 104.23 165.22 104.11 164.62 104.36 163.97 106.26 162.47 
M 96.82 177.62 96.26 178.69 95.07 179.37 94.25 179.35 93.4 178.64 
M 59.92 155.47 59.76 155.46 59.78 155.27 
M 79.11 149.61 79.19 148.49 80.12 146.84 80.2 146.14 79.81 145.18 78.86 144.28 
M 89.81 178.62 89.31 178.78 87.69 179.93 
M 41.03 148.06 40.06 148.98 
M 106.78 162.59 106.99 161.34 106.47 160.13 106.31 159.31 
M 80.65 178.54 81.98 175.71 82.28 173.97 82.88 172.56 
M 70.29 137.54 70.48 136.98 
M 40.99 155.64 41.08 155.56 
M 98.92 138.46 99.12 136.59 
M 78.05 169.47 78.82 169.12 82.9 167.94 
M 104.18 171.31 102.65 170.23 98.88 168.5 98.38 167.86 98.09 167.08 97.83 165.53 
M 51.29 146.5 50.22 145.7 49.69 145.55 45.57 145.86 43.67 145.25 
M 73.86 176.34 73.87 176.78 
M 55.61 156.41 56.13 154.59 56.95 153.44 58.11 152.55 59.14 152.49 
M 75.45 163.2 76.96 162.66 78.12 161.82 78.59 161.27 79.2 159.24 80.41 157.04 81.05 154.13 81 153.21 
M 93.95 169.61 94.64 165.46 94.46 165.23 92.94 164.66 
M 88.6 178.68 87.34 179.43 87.04 179.81 
M 75.53 168.73 76.59 169.07 77.27 168.94 80.54 166.97 
M 72.76 167.64 71.99 169.59 71.88 170.95 72.04 171.58 73.13 173.48 73.82 175.69 
M 58.83 148.96 58.69 149.39 58.74 150.11 59.06 151.33 59.47 151.73 
M 46.44 160.79 46.03 159.73 
M 44.75 154.81 45.32 153.96 46.15 153.2 
M 55.53 143.14 55.2 144.6 55.1 145.94 55.33 146.82 56.19 147.7 
M 53.96 148.59 54.96 148.13 55.93 148.02 57.31 149.12 
M 100.58 145.28 100.57 143.21 101.03 140.38 
M 100.78 180.02 99.27 180.09 97.31 179.77 94.65 180.59 93.89 180.45 92.01 179.58 
M 83.81 154.94 82.92 153.19 82.55 150.32 81.54 148.09 
M 63.17 171.81 64.85 172.06 65.13 171.93 
M 93.1 147.4 94.44 145.6 95.7 144.41 97.56 143.66 98.16 143.17 99.87 140.08 
M 78.36 147 78.64 145.78 78.37 145.09 77.97 144.61 
M 90.51 139.42 88.02 136.45 85.54 133.98 
M 106.5 176.88 103.43 175.92 102.16 175.12 101.68 174.61 100.16 172.2 99.02 169.36 
M 70.35 165.47 69.6 167.59 70.18 170.16 70.89 171.62 
M 98.89 168.43 98.39 167.8 97.76 165.36 97.39 165.14 96.33 165.03 
M 82.42 155.75 82.49 154.34 82.16 152.08 82.13 150.57 81.26 147.86 
M 53.71 165.93 52.91 166.66 52.4 167.47 51.93 169.43 52 170.46 52.28 171.48 52.72 172.44 53.35 173.25 54.17 173.89 55.16 174.36 57.4 175 59.75 175.2 62.15 175.07 63.3 174.85 65.44 173.94 66.35 173.21 67.09 172.32 67.59 171.26 67.89 170.1 68.01 168.9 67.75 166.48 67.06 164.11 66.07 161.83 67.61 165.23 68.29 167.64 68.4 170.18 68.16 171.44 67.68 172.66 66.91 173.74 65.94 174.64 64.81 175.33 62.33 176.16 59.79 176.48 57.18 176.44 54.61 175.89 53.32 175.38 52.13 174.57 51.15 173.48 50.46 172.23 49.99 170.88 49.79 169.44 49.89 167.99 50.28 166.56 51 165.21 51.95 164.18 
M 52.71 164.93 53.41 165.65 
M 48.4 161.87 48.41 162.53 48.81 162.25 
M 44.42 158.41 44.12 158.94 43.99 160 44.46 159.3 45.1 158.96 
M 40.52 155.01 39.84 155.98 39.58 157.48 40.19 156.33 41.2 155.67 
M 36.74 151.5 35.57 153.01 35.16 154.95 35.92 153.37 37.55 152.18 
M 32.96 148.02 31.3 150.04 30.74 152.42 31.65 150.4 33.59 148.91 
M 52.51 165.05 53.66 165.07 
M 47.43 163.89 48.03 163.22 48.12 163.99 
M 42.23 163.24 42.43 162.4 43.23 161.38 42.93 162.41 43.13 163.32 
M 37.07 162.76 37.36 161.07 38.43 159.54 37.86 161.08 38.11 162.87 
M 31.95 162.28 32.29 159.75 33.63 157.71 32.78 159.76 33.03 162.25 
M 37.07 166.71 42.47 168.75 46.01 169.82 49.97 170.77 
M 52.2 171.19 57.13 171.94 64.65 172.58 
M 64.65 172.58 64.65 172.58 
M 45.93 168.06 45.65 167.96 
M 38.29 166.61 37.9 167.05 
M 99.29 136.91 102.84 140.46 
M 100.44 131.44 109.5 140.49 
M 106.93 131.3 115.88 140.25 
M 113.55 131.3 123.03 140.78 
M 120.32 131.45 125.47 136.6 
M 127.19 131.7 132.38 136.89 
M 134.1 131.99 139.46 137.35 
M 140.93 132.2 147.69 138.96 
M 147.65 132.3 153.13 137.78 
M 154.21 132.24 159.89 137.92 
M 160.73 132.14 167.7 139.11 
M 167.18 131.97 175.86 140.65 
M 173.67 131.84 183.08 141.24 
M 180.18 131.73 186.77 138.31 
M 186.66 131.59 195.95 140.88 
M 193.13 131.43 201.21 139.52 
M 199.53 131.21 207.33 139.01 
M 205.94 131.01 211.79 136.86 
M 212.37 130.81 221.97 140.41 
M 218.9 130.72 226.38 138.21 
M 225.47 130.68 232.4 137.61 
M 232.15 130.73 240.47 139.06 
M 238.8 130.77 246.86 138.82 
M 245.44 130.78 254.25 139.6 
M 251.93 130.66 259.38 138.1 
M 258.39 130.49 265.22 137.32 
M 264.77 130.25 270.31 135.79 
M 271.24 130.1 278.59 137.45 
M 277.79 130.03 284.89 137.13 
M 284.69 130.31 290.31 135.93 
M 291.72 130.72 297.66 136.66 
M 298.94 131.32 308.47 140.85 
M 306.24 132 315.44 141.19 
M 313.55 132.69 320.93 140.06 
M 320.85 133.36 327.92 140.44 
M 328.2 134.1 333.61 139.5 
M 335.61 134.89 342.86 142.14 
M 343.08 135.73 352.84 145.5 
M 350.64 136.68 358.2 144.24 
M 358.38 137.79 366.4 145.82 
M 366.89 139.69 374.55 147.34 
M 207.26 141.4 207.52 140.91 208.29 140.62 208.81 140.8 208.55 141.29 207.78 141.58 207.26 141.4 
M 208.42 140.6 208.23 141.12 207.51 141.51 206.97 141.4 207.16 140.89 207.89 140.49 208.42 140.6 
M 212.8 134.08 212.9 134.62 212.48 135.33 211.96 135.51 211.86 134.97 212.28 134.26 212.8 134.08 
M 212.06 134.25 212.47 134.61 212.57 135.44 212.27 135.89 211.86 135.53 211.76 134.71 212.06 134.25 
M 213.05 143.82 213.24 143.31 213.97 142.91 214.5 143.03 214.31 143.54 213.58 143.94 213.05 143.82 
M 214.26 143.02 213.96 143.48 213.17 143.72 212.67 143.49 212.97 143.03 213.76 142.8 214.26 143.02 
M 207.14 145.53 206.96 146.05 206.25 146.46 205.71 146.36 205.89 145.84 206.61 145.43 207.14 145.53 
M 205.82 145.76 206.37 145.75 207 146.29 207.08 146.83 206.54 146.84 205.91 146.3 205.82 145.76 
M 200.87 145.01 200.43 144.68 200.25 143.87 200.51 143.39 200.95 143.72 201.13 144.53 200.87 145.01 
M 200.56 144.82 200.51 144.27 200.99 143.6 201.52 143.47 201.57 144.01 201.09 144.69 200.56 144.82 
M 217.34 138.36 217.83 138.59 218.16 139.35 218 139.87 217.51 139.64 217.18 138.88 217.34 138.36 
M 217.39 138.55 217.77 138.95 217.81 139.77 217.48 140.2 217.1 139.81 217.06 138.98 217.39 138.55 
M 213.38 149.9 212.85 150.03 212.11 149.65 211.91 149.14 212.44 149.01 213.18 149.39 213.38 149.9 
M 212.59 148.89 212.8 149.4 212.54 150.18 212.07 150.46 211.86 149.95 212.12 149.17 212.59 148.89 
M 193.68 151.44 193.57 150.9 193.98 150.18 194.49 150 194.6 150.53 194.19 151.25 193.68 151.44 
M 194.71 150.64 194.21 150.87 193.42 150.64 193.12 150.18 193.62 149.95 194.41 150.18 194.71 150.64 
M 205.55 150.09 206 150.39 206.22 151.18 205.99 151.68 205.53 151.38 205.31 150.58 205.55 150.09 
M 206.33 151.17 205.79 151.08 205.26 150.45 205.27 149.9 205.81 149.99 206.34 150.62 206.33 151.17 
M 202.67 132.21 203.2 132.34 203.68 133.02 203.63 133.56 203.1 133.43 202.62 132.76 202.67 132.21 
M 203.74 133.11 203.19 133.08 202.6 132.51 202.55 131.96 203.1 131.99 203.69 132.57 203.74 133.11 
M 209.01 127.06 208.84 127.58 208.14 128.01 207.6 127.93 207.76 127.4 208.47 126.97 209.01 127.06 
M 208.92 127.64 208.37 127.68 207.71 127.19 207.59 126.65 208.13 126.61 208.8 127.1 208.92 127.64 
M 212.82 128.56 212.72 128.02 213.14 127.31 213.66 127.13 213.76 127.67 213.34 128.38 212.82 128.56 
M 212.81 128.3 213.05 127.81 213.81 127.48 214.33 127.65 214.09 128.14 213.33 128.47 212.81 128.3 
M 226.25 142.61 226.42 143.14 226.08 143.9 225.59 144.13 225.43 143.61 225.76 142.85 226.25 142.61 
M 225.4 143.01 225.93 143.17 226.37 143.88 226.28 144.42 225.76 144.26 225.32 143.55 225.4 143.01 
M 186.3 154.75 185.89 154.38 185.79 153.56 186.09 153.1 186.5 153.47 186.61 154.29 186.3 154.75 
M 185.57 153.9 186.09 153.75 186.84 154.11 187.07 154.61 186.54 154.75 185.79 154.4 185.57 153.9 
M 188.42 143.63 187.91 143.84 187.13 143.58 186.85 143.11 187.35 142.9 188.14 143.16 188.42 143.63 
M 187.84 142.77 187.83 143.32 187.27 143.93 186.73 143.99 186.74 143.45 187.3 142.84 187.84 142.77 
M 187.79 148.89 187.36 148.54 187.23 147.73 187.51 147.26 187.93 147.61 188.07 148.42 187.79 148.89 
M 188.2 148.38 187.66 148.27 187.16 147.62 187.19 147.07 187.72 147.18 188.23 147.83 188.2 148.38 
M 219.53 123.86 220.01 124.12 220.29 124.9 220.1 125.41 219.62 125.15 219.33 124.37 219.53 123.86 
M 219.18 124.68 219.69 124.48 220.47 124.75 220.74 125.23 220.23 125.43 219.46 125.15 219.18 124.68 
M 205.04 121.95 205.43 121.56 206.25 121.51 206.69 121.85 206.3 122.23 205.47 122.28 205.04 121.95 
M 206.38 122.26 205.86 122.09 205.42 121.39 205.51 120.85 206.03 121.01 206.47 121.72 206.38 122.26 
M 211.69 122.96 212 122.51 212.8 122.3 213.29 122.55 212.98 123 212.18 123.21 211.69 122.96 
M 212.36 123.37 212.3 122.83 212.78 122.15 213.31 122.01 213.36 122.56 212.89 123.24 212.36 123.37 
M 215.58 119.51 215.93 119.09 216.74 118.94 217.21 119.22 216.87 119.65 216.05 119.79 215.58 119.51 
M 217.02 119.47 216.48 119.55 215.78 119.1 215.62 118.58 216.17 118.5 216.86 118.94 217.02 119.47 
M 203.32 156.14 202.77 156.07 202.23 155.44 202.22 154.9 202.76 154.97 203.31 155.59 203.32 156.14 
M 202.19 155.27 202.74 155.32 203.3 155.92 203.33 156.47 202.78 156.42 202.22 155.82 202.19 155.27 
M 189.51 136.46 188.96 136.42 188.38 135.83 188.35 135.28 188.9 135.32 189.48 135.91 189.51 136.46 
M 189.4 136.29 188.9 136.07 188.55 135.32 188.7 134.79 189.2 135.01 189.55 135.76 189.4 136.29 
M 196.75 160.43 196.55 160.94 195.82 161.33 195.29 161.21 195.48 160.7 196.21 160.31 196.75 160.43 
M 196.52 161.2 196 161.02 195.6 160.3 195.7 159.76 196.22 159.95 196.63 160.67 196.52 161.2 
M 208.09 115.47 208.49 115.84 208.58 116.66 208.27 117.11 207.87 116.74 207.78 115.92 208.09 115.47 
M 208.62 116.74 208.14 116.48 207.85 115.71 208.04 115.19 208.52 115.46 208.81 116.23 208.62 116.74 
M 217.04 114.92 216.49 114.95 215.83 114.45 215.72 113.91 216.27 113.88 216.93 114.38 217.04 114.92 
M 216.04 114.95 216.18 114.42 216.87 113.95 217.41 114.02 217.27 114.55 216.58 115.01 216.04 114.95 
M 175.8 141.31 175.55 140.83 175.74 140.02 176.18 139.7 176.44 140.19 176.25 140.99 175.8 141.31 
M 175.36 140.49 175.89 140.34 176.64 140.69 176.87 141.18 176.34 141.34 175.59 140.99 175.36 140.49 
M 179.15 132.01 178.82 132.44 178.01 132.61 177.53 132.35 177.86 131.91 178.67 131.74 179.15 132.01 
M 178.52 131.57 178.53 132.12 178.01 132.76 177.47 132.85 177.45 132.3 177.98 131.66 178.52 131.57 
M 181.81 143.41 181.63 143.93 180.91 144.34 180.37 144.24 180.55 143.72 181.27 143.3 181.81 143.41 
M 180.68 144.3 180.89 143.8 181.63 143.43 182.16 143.56 181.95 144.07 181.21 144.44 180.68 144.3 
M 227.06 122.09 227.41 122.51 227.41 123.33 227.04 123.74 226.69 123.33 226.7 122.5 227.06 122.09 
M 226.66 123.41 226.85 122.9 227.58 122.51 228.12 122.63 227.92 123.14 227.19 123.53 226.66 123.41 
M 222.08 116.79 222.1 116.66 
M 222.41 116.81 222.08 116.79 
M 222.86 116.94 222.52 117.36 222.15 116.97 222.13 116.68 
M 181.88 160.61 182.38 160.84 182.72 161.6 182.56 162.12 182.06 161.89 181.72 161.13 181.88 160.61 
M 182.77 161.07 182.39 161.46 181.57 161.54 181.35 161.38 
M 181.28 161.05 181.51 160.82 182.33 160.75 182.77 161.07 
M 228.6 118.74 228.35 118.25 228.41 118.04 
M 228.85 118.57 228.6 118.74 
M 228.65 118.55 228.63 118.31 
M 228.8 118.51 228.65 118.55 
M 202.97 117.23 203.17 116.72 203.9 116.33 204.43 116.46 204.23 116.97 203.5 117.35 202.97 117.23 
M 203.48 116.25 203.82 116.68 203.79 117.51 203.41 117.91 203.07 117.48 203.1 116.65 203.48 116.25 
M 198.38 121.92 198.86 121.65 199.67 121.81 200.01 122.24 199.53 122.51 198.72 122.35 198.38 121.92 
M 199.78 122.33 199.23 122.27 198.66 121.67 198.64 121.13 199.18 121.18 199.75 121.78 199.78 122.33 
M 199.51 116.88 199.03 117.15 198.22 116.99 197.89 116.56 198.36 116.29 199.17 116.45 199.51 116.88 
M 199.09 117.21 198.64 116.91 198.41 116.11 198.65 115.62 199.1 115.92 199.33 116.72 199.09 117.21 
M 216.53 163.37 216.42 162.83 216.84 162.11 217.35 161.93 217.46 162.47 217.04 163.19 216.53 163.37 
M 216.52 162.18 216.99 162.46 217.26 163.24 217.05 163.75 216.58 163.47 216.31 162.68 216.52 162.18 
M 179.71 173.76 180.19 174.02 180.48 174.8 180.3 175.31 179.81 175.05 179.52 174.28 179.71 173.76 
M 179.92 175.16 179.82 174.63 180.24 173.91 180.76 173.73 180.86 174.27 180.44 174.99 179.92 175.16 
M 188.82 174.97 188.53 175.43 187.74 175.67 187.24 175.45 187.53 174.99 188.32 174.75 188.82 174.97 
M 188.5 175.63 188 175.41 187.65 174.66 187.79 174.13 188.29 174.35 188.65 175.1 188.5 175.63 
M 229.92 138.21 230.07 138.74 229.71 139.48 229.2 139.7 229.06 139.17 229.42 138.43 229.92 138.21 
M 229.88 138.41 229.76 138.94 229.1 139.44 228.55 139.41 228.67 138.87 229.33 138.37 229.88 138.41 
M 208.06 112.32 208.26 111.81 209 111.44 209.53 111.57 209.33 112.07 208.59 112.45 208.06 112.32 
M 209.42 111.9 208.91 112.1 208.13 111.82 207.87 111.34 208.38 111.15 209.15 111.43 209.42 111.9 
M 196.17 110.99 196.72 110.92 197.41 111.38 197.55 111.91 197.01 111.98 196.32 111.52 196.17 110.99 
M 196.24 111.38 196.77 111.27 197.49 111.68 197.68 112.19 197.14 112.3 196.42 111.9 196.24 111.38 
M 203.51 110.58 203.48 111.12 202.9 111.72 202.36 111.76 202.39 111.22 202.97 110.62 203.51 110.58 
M 202.96 110.54 203.1 111.07 202.75 111.82 202.25 112.03 202.1 111.51 202.46 110.76 202.96 110.54 
M 185.72 121.75 185.82 121.21 186.46 120.69 187.01 120.71 186.91 121.25 186.27 121.77 185.72 121.75 
M 185.73 121.27 186.25 121.07 187.02 121.35 187.29 121.83 186.78 122.02 186 121.75 185.73 121.27 
M 182.25 123.77 182.23 124.32 181.66 124.92 181.12 124.97 181.14 124.43 181.71 123.82 182.25 123.77 
M 181.26 123.9 181.74 124.18 182 124.96 181.79 125.47 181.32 125.19 181.06 124.41 181.26 123.9 
M 184.1 131.89 183.96 132.42 183.28 132.89 182.74 132.83 182.87 132.3 183.55 131.83 184.1 131.89 
M 183.99 132.11 183.58 132.47 182.76 132.48 182.34 132.12 182.75 131.76 183.58 131.75 183.99 132.11 
M 191.78 122.06 192.13 121.64 192.94 121.5 193.41 121.78 193.06 122.21 192.25 122.35 191.78 122.06 
M 192.51 122.55 192.42 122.01 192.85 121.3 193.37 121.13 193.46 121.67 193.03 122.38 192.51 122.55 
M 239.43 123.94 239.25 124.46 238.53 124.87 238 124.76 238.18 124.25 238.9 123.84 239.43 123.94 
M 238.51 123.76 238.84 124.2 238.77 125.02 238.39 125.41 238.06 124.97 238.12 124.14 238.51 123.76 
M 230.86 133.44 230.57 133.91 229.77 134.14 229.28 133.92 229.57 133.46 230.36 133.22 230.86 133.44 
M 229.46 133.53 230 133.49 230.66 133.99 230.77 134.53 230.23 134.56 229.57 134.06 229.46 133.53 
M 235.34 136.99 234.85 136.75 234.52 136 234.68 135.47 235.18 135.71 235.51 136.47 235.34 136.99 
M 234.77 135.65 235.13 136.07 235.11 136.9 234.75 137.3 234.4 136.88 234.41 136.06 234.77 135.65 
M 191.33 115.82 191.75 116.17 191.89 116.98 191.61 117.45 191.19 117.1 191.04 116.29 191.33 115.82 
M 191.39 117.26 191.29 116.72 191.71 116.01 192.23 115.84 192.33 116.37 191.91 117.09 191.39 117.26 
M 209.63 156.11 209.09 156.23 208.36 155.84 208.16 155.33 208.7 155.21 209.43 155.6 209.63 156.11 
M 208.99 155.1 209.08 155.64 208.64 156.34 208.12 156.51 208.03 155.97 208.47 155.26 208.99 155.1 
M 206.14 107.89 206.07 107.89 
M 199.28 104 199.83 103.93 200.51 104.39 200.66 104.92 200.11 104.99 199.43 104.52 199.28 104 
M 199.36 104.3 199.91 104.27 200.56 104.78 200.67 105.32 200.12 105.34 199.47 104.84 199.36 104.3 
M 214.66 168 214.13 167.86 213.67 167.18 213.74 166.63 214.26 166.77 214.73 167.46 214.66 168 
M 214.72 167.67 214.19 167.52 213.75 166.82 213.83 166.28 214.35 166.43 214.8 167.13 214.72 167.67 
M 223.18 168.41 222.89 168.87 222.1 169.12 221.6 168.9 221.88 168.43 222.68 168.19 223.18 168.41 
M 222.28 168.03 222.53 168.52 222.34 169.32 221.89 169.64 221.64 169.15 221.83 168.35 222.28 168.03 
M 209.53 162.33 209.08 162.02 208.86 161.23 209.1 160.73 209.55 161.04 209.77 161.84 209.53 162.33 
M 208.87 161.09 209.35 161.34 209.66 162.1 209.48 162.62 209 162.37 208.69 161.6 208.87 161.09 
M 192.81 101.75 192.6 102.25 191.86 102.62 191.33 102.49 191.54 101.98 192.28 101.61 192.81 101.75 
M 192.68 101.93 192.23 102.25 191.4 102.16 191.14 101.87 
M 191.35 101.54 192.3 101.53 192.68 101.93 
M 194.94 107.71 194.4 107.77 193.72 107.3 193.58 106.77 194.12 106.71 194.8 107.18 194.94 107.71 
M 194.82 107.52 194.28 107.44 193.75 106.81 193.75 106.26 194.29 106.34 194.83 106.97 194.82 107.52 
M 186.82 108.91 186.8 109.81 186.4 110.19 186.2 109.91 
M 186.65 109.18 187.05 109.02 187.57 109.19 187.32 109.68 186.55 109.99 186.22 109.88 
M 190.11 110.39 190.65 110.47 191.19 111.1 191.18 111.64 190.64 111.56 190.1 110.93 190.11 110.39 
M 190.62 111.65 190.47 111.12 190.83 110.37 191.33 110.15 191.48 110.67 191.12 111.42 190.62 111.65 
M 176.35 126.66 176.12 126.33 
M 176.74 125.32 176.84 125.47 176.75 126.29 176.35 126.66 
M 176.25 126.44 176.25 126.12 
M 176.72 125.35 177.33 125.19 177.33 125.74 176.79 126.36 176.25 126.44 
M 170.82 137.34 170.82 137.88 170.29 138.52 169.75 138.6 169.74 138.05 170.27 137.42 170.82 137.34 
M 169.66 138.05 170.15 137.82 170.95 138.04 171.25 138.5 170.75 138.73 169.96 138.51 169.66 138.05 
M 246.78 125.63 246.77 126.31 246.41 126.72 246.05 126.3 246.06 125.69 
M 246.57 125.65 246.15 126.5 245.62 126.66 245.54 126.11 245.81 125.71 
M 202.02 164.26 202.07 163.72 202.67 163.15 203.22 163.12 203.16 163.67 202.56 164.24 202.02 164.26 
M 203.25 163.69 202.73 163.86 201.97 163.53 201.73 163.04 202.25 162.87 203.01 163.2 203.25 163.69 
M 160.53 140.37 160.85 139.92 161.65 139.72 162.14 139.97 161.82 140.42 161.02 140.62 160.53 140.37 
M 161.96 140.28 161.41 140.35 160.72 139.9 160.58 139.37 161.12 139.3 161.81 139.76 161.96 140.28 
M 185.32 114.8 185.69 114.4 186.51 114.31 186.96 114.62 186.59 115.02 185.77 115.11 185.32 114.8 
M 185.96 115.32 185.95 114.77 186.48 114.13 187.02 114.04 187.03 114.59 186.5 115.22 185.96 115.32 
M 219.2 171.78 219.15 172.32 218.56 172.9 218.01 172.93 218.06 172.38 218.66 171.81 219.2 171.78 
M 218.47 172.97 218.42 172.42 218.9 171.75 219.43 171.62 219.49 172.17 219 172.84 218.47 172.97 
M 213.59 172.6 213.3 172.13 213.43 171.32 213.85 170.96 214.14 171.43 214.01 172.24 213.59 172.6 
M 214.2 171.37 213.91 171.84 213.12 172.08 212.62 171.86 212.91 171.4 213.7 171.15 214.2 171.37 
M 155.31 132.99 155.83 133.17 156.24 133.88 156.14 134.42 155.62 134.24 155.21 133.52 155.31 132.99 
M 156.36 133.67 155.84 133.86 155.07 133.58 154.8 133.1 155.31 132.91 156.09 133.19 156.36 133.67 
M 232.79 145.62 232.9 146.16 232.5 146.88 231.99 147.07 231.87 146.54 232.28 145.81 232.79 145.62 
M 231.76 146.31 232.29 146.17 233.03 146.55 233.24 147.05 232.71 147.19 231.97 146.81 231.76 146.31 
M 237.41 140.61 236.92 140.84 236.12 140.62 235.82 140.16 236.32 139.93 237.11 140.15 237.41 140.61 
M 236.97 139.87 236.82 140.39 236.11 140.83 235.57 140.75 235.73 140.23 236.43 139.79 236.97 139.87 
M 175.72 137.22 175.36 136.8 175.37 135.98 175.73 135.56 176.08 135.98 176.08 136.81 175.72 137.22 
M 175.3 136.86 175.53 136.36 176.28 136.02 176.81 136.18 176.58 136.67 175.82 137.01 175.3 136.86 
M 240.49 145.42 239.96 145.56 239.21 145.2 239 144.69 239.53 144.55 240.27 144.92 240.49 145.42 
M 239.87 145.68 239.6 145.2 239.77 144.39 240.21 144.06 240.47 144.53 240.3 145.34 239.87 145.68 
M 146.91 133.47 146.91 132.93 147.43 132.3 
M 147.98 132.31 147.99 132.76 147.45 133.39 146.91 133.47 
M 146.82 132.78 147.35 132.66 148.08 133.07 148.26 133.58 147.73 133.69 147.01 133.29 146.82 132.78 
M 228.29 166.7 228.68 167.08 228.75 167.91 228.42 168.35 228.03 167.96 227.97 167.14 228.29 166.7 
M 228.98 167.62 228.44 167.7 227.74 167.26 227.58 166.74 228.12 166.65 228.82 167.1 228.98 167.62 
M 142.9 145.93 142.92 145.79 143.25 145.89 
M 132.62 146.26 132.97 146.68 132.96 147.12 
M 132.24 147.21 132.25 146.66 132.62 146.26 
M 133.1 146.7 132.8 147.14 
M 131.85 147.28 131.5 147.11 131.81 146.66 132.61 146.46 133.1 146.7 
M 137.64 143.01 137.94 143.47 137.84 144.29 137.43 144.65 137.12 144.2 137.23 143.38 137.64 143.01 
M 138.15 143.68 137.68 143.97 136.86 143.83 136.51 143.41 136.98 143.12 137.8 143.26 138.15 143.68 
M 238.74 156.84 239.27 156.96 239.76 157.63 239.72 158.17 239.18 158.05 238.69 157.39 238.74 156.84 
M 239.23 158.14 239.06 157.62 239.39 156.86 239.88 156.62 240.04 157.14 239.72 157.9 239.23 158.14 
M 243.24 148.94 243.5 148.45 244.27 148.15 244.79 148.34 244.53 148.82 243.76 149.12 243.24 148.94 
M 244.32 148.09 244.21 148.62 243.56 149.13 243.01 149.1 243.12 148.56 243.77 148.06 244.32 148.09 
M 235.59 158.71 235.09 158.93 234.3 158.69 234.01 158.22 234.51 158 235.3 158.25 235.59 158.71 
M 234.7 159.09 234.62 158.55 235.07 157.85 235.59 157.7 235.67 158.24 235.22 158.93 234.7 159.09 
M 259.1 129.04 258.59 129.22 258.01 128.86 
M 258.69 129.26 258.31 128.81 
M 258.92 128.98 258.69 129.26 
M 248.58 134.93 249.09 135.12 249.49 135.84 249.38 136.38 248.87 136.19 248.47 135.47 248.58 134.93 
M 248.67 136.21 248.78 135.67 249.43 135.16 249.98 135.19 249.87 135.73 249.22 136.24 248.67 136.21 
M 250.87 154.94 250.33 154.86 249.78 154.24 249.78 153.69 250.32 153.77 250.87 154.39 250.87 154.94 
M 250.44 153.7 250.51 154.24 250.05 154.93 249.52 155.07 249.45 154.53 249.91 153.84 250.44 153.7 
M 250.65 147.43 250.73 147.97 250.28 148.66 249.75 148.82 249.67 148.27 250.13 147.58 250.65 147.43 
M 250.78 148.36 250.24 148.32 249.66 147.73 249.62 147.18 250.16 147.23 250.75 147.81 250.78 148.36 
M 234.69 162.93 235.19 163.15 235.53 163.91 235.38 164.43 234.88 164.2 234.53 163.45 234.69 162.93 
M 235 163.05 235.19 163.56 234.91 164.34 234.43 164.61 234.24 164.09 234.52 163.32 235 163.05 
M 150.35 138.34 149.98 138.74 149.16 138.84 148.7 138.54 149.07 138.13 149.89 138.03 150.35 138.34 
M 149.96 138.89 149.48 138.63 149.18 137.86 149.37 137.34 149.85 137.6 150.15 138.37 149.96 138.89 
M 253.76 130.44 253.22 130.33 252.72 129.67 252.75 129.12 253.29 129.23 253.79 129.89 253.76 130.44 
M 252.76 130.17 253.06 129.72 253.86 129.49 254.36 129.73 254.05 130.18 253.26 130.41 252.76 130.17 
M 141.3 137.57 141.55 138.06 141.35 138.87 140.9 139.18 140.65 138.69 140.85 137.89 141.3 137.57 
M 141.44 138.91 141.02 138.56 140.88 137.74 141.17 137.28 141.59 137.63 141.72 138.44 141.44 138.91 
M 145.47 142.48 145.03 142.15 144.86 141.34 145.12 140.86 145.56 141.19 145.73 142 145.47 142.48 
M 145.85 141.38 145.47 141.77 144.64 141.83 144.2 141.51 144.59 141.12 145.41 141.05 145.85 141.38 
M 136.7 133.87 136.43 134.35 135.65 134.62 135.14 134.43 135.41 133.95 136.19 133.67 136.7 133.87 
M 135.31 134 135.86 133.96 136.52 134.46 136.63 134.99 136.09 135.03 135.43 134.53 135.31 134 
M 127.98 141.17 128.48 141.39 128.83 142.14 128.69 142.67 128.19 142.45 127.83 141.7 127.98 141.17 
M 127.73 141.72 128.28 141.73 128.9 142.27 128.98 142.81 128.43 142.81 127.81 142.27 127.73 141.72 
M 237.9 168.34 237.54 168.76 236.73 168.89 236.26 168.6 236.61 168.18 237.43 168.05 237.9 168.34 
M 237.53 168.03 237.27 168.51 236.5 168.82 235.99 168.64 236.24 168.15 237.01 167.85 237.53 168.03 
M 192.35 176.42 192.62 175.94 193.4 175.66 193.91 175.85 193.64 176.33 192.87 176.61 192.35 176.42 
M 193.48 176.66 193.05 176.32 192.91 175.5 193.19 175.03 193.61 175.38 193.76 176.19 193.48 176.66 
M 204.97 178.74 204.75 178.46 204.8 177.64 205.18 177.24 205.52 177.68 205.47 178.5 205.27 178.71 
M 204.55 177.84 205.09 177.88 205.68 178.46 205.7 178.67 
M 204.95 178.74 204.59 178.39 204.55 177.84 
M 255.14 137.09 255.68 137.09 256.31 137.63 256.38 138.17 255.84 138.17 255.21 137.63 255.14 137.09 
M 255.2 137.33 255.74 137.43 256.26 138.08 256.24 138.62 255.7 138.53 255.18 137.88 255.2 137.33 
M 248.25 165.4 247.73 165.56 246.97 165.23 246.74 164.73 247.26 164.57 248.02 164.9 248.25 165.4 
M 247.57 165.69 247.34 165.19 247.57 164.4 248.03 164.1 248.26 164.59 248.03 165.39 247.57 165.69 
M 243.74 172.83 243.65 173.37 243.01 173.9 242.47 173.89 242.56 173.35 243.2 172.82 243.74 172.83 
M 242.52 173.13 243.07 173.17 243.65 173.75 243.7 174.29 243.15 174.26 242.56 173.68 242.52 173.13 
M 249.79 159.93 249.75 160.47 249.16 161.06 248.62 161.1 248.66 160.55 249.24 159.97 249.79 159.93 
M 249.52 161.06 249.11 160.69 249.01 159.87 249.32 159.41 249.72 159.78 249.83 160.6 249.52 161.06 
M 257.31 168.51 256.76 168.51 256.13 167.98 256.05 167.44 256.6 167.43 257.23 167.97 257.31 168.51 
M 257.31 168.04 256.77 168.15 256.05 167.74 255.87 167.23 256.4 167.12 257.12 167.52 257.31 168.04 
M 250.38 170.08 249.85 170.23 249.1 169.87 248.88 169.37 249.41 169.22 250.16 169.58 250.38 170.08 
M 250.21 169.47 249.8 169.83 248.97 169.84 248.55 169.48 248.96 169.12 249.79 169.12 250.21 169.47 
M 193.26 125.78 193.7 126.1 193.9 126.91 193.65 127.39 193.2 127.08 193.01 126.27 193.26 125.78 
M 192.9 126.29 193.44 126.39 193.95 127.04 193.93 127.59 193.39 127.48 192.87 126.84 192.9 126.29 
M 259.23 161.49 258.96 161.02 259.11 160.2 259.54 159.87 259.82 160.34 259.66 161.15 259.23 161.49 
M 259.96 160.42 259.55 160.79 258.73 160.8 258.31 160.45 258.72 160.08 259.54 160.07 259.96 160.42 
M 255.13 155.74 255.53 155.36 256.35 155.32 256.79 155.66 256.39 156.04 255.57 156.08 255.13 155.74 
M 256.36 156.19 255.9 155.89 255.67 155.09 255.9 154.6 256.36 154.9 256.59 155.69 256.36 156.19 
M 127.29 133.79 127.44 133.27 128.14 132.82 128.68 132.9 128.53 133.43 127.83 133.87 127.29 133.79 
M 128.12 133.96 127.84 133.49 128.01 132.68 128.44 132.34 128.71 132.82 128.55 133.63 128.12 133.96 
M 120.18 144.4 120.28 143.86 120.93 143.34 121.47 143.37 121.37 143.9 120.73 144.42 120.18 144.4 
M 121.37 144.21 120.83 144.08 120.35 143.41 120.4 142.86 120.93 142.99 121.42 143.66 121.37 144.21 
M 118.37 147.57 118.51 148.1 118.14 148.84 117.64 149.05 117.5 148.52 117.87 147.78 118.37 147.57 
M 117.49 148.68 117.82 148.24 118.63 148.06 119.11 148.32 118.78 148.76 117.97 148.94 117.49 148.68 
M 124.34 148.9 123.8 148.85 123.22 148.26 123.19 147.71 123.74 147.76 124.31 148.35 124.34 148.9 
M 124.36 148.5 123.82 148.5 123.2 147.95 123.13 147.41 123.67 147.41 124.29 147.96 124.36 148.5 
M 116.25 140.08 116.75 140.29 117.13 141.03 116.99 141.56 116.49 141.35 116.11 140.61 116.25 140.08 
M 117.11 141.22 116.6 141.02 116.22 140.28 116.35 139.75 116.85 139.96 117.23 140.69 117.11 141.22 
M 254.33 146.38 254.51 145.86 255.22 145.45 255.76 145.55 255.59 146.07 254.87 146.48 254.33 146.38 
M 254.43 146.07 254.91 145.82 255.72 146.01 256.04 146.46 255.55 146.71 254.74 146.52 254.43 146.07 
M 115.23 178.49 114.71 178.33 114.26 177.64 114.34 177.12 
M 114.98 177.42 115.31 177.95 115.23 178.49 
M 114.21 178.05 114.62 177.68 115.45 177.68 115.87 178.03 115.46 178.39 114.63 178.4 114.21 178.05 
M 112.02 148.05 111.72 147.59 111.83 146.77 112.24 146.41 112.54 146.86 112.43 147.68 112.02 148.05 
M 111.64 146.84 112.15 147.03 112.55 147.76 112.43 148.29 111.92 148.1 111.52 147.37 111.64 146.84 
M 272.81 130.13 272.81 130.08 
M 273.11 130.08 272.81 130.13 
M 176.04 147.66 175.68 147.26 175.66 146.43 176.01 146.01 176.38 146.42 176.39 147.24 176.04 147.66 
M 176.65 146.91 176.11 147.02 175.4 146.6 175.22 146.08 175.76 145.98 176.47 146.4 176.65 146.91 
M 279.24 135.83 278.78 136.12 277.96 136.01 277.6 135.59 278.06 135.3 278.88 135.41 279.24 135.83 
M 277.84 135.95 278.25 135.6 279.08 135.6 279.49 135.96 279.08 136.32 278.25 136.31 277.84 135.95 
M 104.54 142.59 104.97 142.25 105.8 142.29 106.2 142.67 105.76 143.01 104.94 142.97 104.54 142.59 
M 104.88 143.02 105.18 142.57 105.98 142.35 106.47 142.59 106.17 143.04 105.37 143.26 104.88 143.02 
M 104.2 147.49 104.78 147.22 105.31 147.37 105.08 147.87 104.64 148.07 
M 105 148.17 104.52 147.91 
M 104.51 147.9 104.22 147.14 104.41 146.62 104.89 146.88 105.18 147.65 105 148.17 
M 288.87 132.06 288.8 132.61 288.18 133.15 287.63 133.16 287.7 132.62 288.32 132.07 288.87 132.06 
M 287.75 133 288.06 132.55 288.86 132.33 289.35 132.57 289.05 133.03 288.25 133.24 287.75 133 
M 103.92 137.2 103.64 137.67 102.86 137.94 102.35 137.73 102.63 137.26 103.41 136.99 103.92 137.2 
M 102.92 138.06 102.94 137.51 103.5 136.9 104.05 136.84 104.03 137.39 103.47 138 102.92 138.06 
M 263.27 143.89 263.42 144.41 263.06 145.16 262.56 145.38 262.41 144.85 262.77 144.11 263.27 143.89 
M 262.38 144.3 262.91 144.44 263.38 145.12 263.32 145.66 262.79 145.52 262.32 144.84 262.38 144.3 
M 297.57 133.46 297.75 133.97 297.46 134.75 296.98 135.01 296.79 134.49 297.08 133.72 297.57 133.46 
M 297.07 134.83 297.08 134.28 297.63 133.66 298.17 133.59 298.17 134.14 297.62 134.76 297.07 134.83 
M 271.5 133.32 272.04 133.41 272.56 134.06 272.54 134.61 272 134.51 271.48 133.86 271.5 133.32 
M 272.62 133.78 272.17 134.09 271.35 134 270.98 133.6 271.43 133.29 272.25 133.38 272.62 133.78 
M 301.23 141.55 301.58 141.13 302.4 141 302.86 141.29 302.51 141.71 301.69 141.84 301.23 141.55 
M 301.43 141.29 301.97 141.23 302.65 141.71 302.78 142.24 302.24 142.3 301.56 141.82 301.43 141.29 
M 294.15 144.07 293.9 143.58 294.11 142.78 294.56 142.47 294.8 142.96 294.6 143.76 294.15 144.07 
M 294.11 142.69 294.46 143.1 294.46 143.93 294.1 144.34 293.74 143.93 293.75 143.1 294.11 142.69 
M 291.78 137.55 292.08 138 291.98 138.82 291.57 139.19 291.27 138.73 291.37 137.91 291.78 137.55 
M 292.31 138.31 291.8 138.53 291.01 138.27 290.73 137.8 291.24 137.59 292.02 137.84 292.31 138.31 
M 267.31 148.16 266.76 148.16 266.14 147.62 266.07 147.07 266.61 147.08 267.24 147.62 267.31 148.16 
M 267.02 148.15 266.61 147.8 266.48 146.98 266.77 146.52 267.19 146.87 267.31 147.69 267.02 148.15 
M 272.85 157 273.35 157.23 273.68 157.99 273.53 158.51 273.03 158.28 272.69 157.53 272.85 157 
M 273.78 157.53 273.35 157.87 272.52 157.84 272.12 157.47 272.55 157.13 273.37 157.16 273.78 157.53 
M 276.29 162.31 276.57 162.78 276.44 163.6 276.03 163.95 275.74 163.48 275.87 162.66 276.29 162.31 
M 276.31 163.74 276.02 163.28 276.16 162.46 276.58 162.11 276.86 162.58 276.73 163.39 276.31 163.74 
M 308.03 136.47 307.49 136.47 306.86 135.93 306.79 135.38 307.33 135.39 307.96 135.93 308.03 136.47 
M 307.74 136.46 307.33 136.11 307.2 135.29 307.49 134.83 307.91 135.18 308.03 136 307.74 136.46 
M 279.14 152.88 278.59 152.82 278.04 152.21 278.02 151.66 278.57 151.72 279.12 152.34 279.14 152.88 
M 279.12 151.94 278.76 152.36 277.94 152.48 277.48 152.19 277.83 151.77 278.65 151.65 279.12 151.94 
M 142.22 133.49 141.71 133.69 140.93 133.41 140.66 132.94 141.17 132.74 141.95 133.01 142.22 133.49 
M 141.57 132.6 141.62 133.14 141.15 133.82 140.62 133.95 140.56 133.4 141.04 132.73 141.57 132.6 
M 279.51 167.92 278.96 167.86 278.4 167.24 278.39 166.7 278.93 166.76 279.49 167.37 279.51 167.92 
M 279.57 167.23 279.08 167.46 278.28 167.23 277.99 166.77 278.48 166.54 279.28 166.77 279.57 167.23 
M 283.17 158.05 283.38 157.55 284.12 157.18 284.65 157.31 284.44 157.82 283.7 158.19 283.17 158.05 
M 283.89 158.31 283.74 157.79 284.08 157.03 284.58 156.8 284.73 157.33 284.39 158.08 283.89 158.31 
M 278.83 171.81 278.82 171.61 279.15 171.17 279.53 171.56 279.55 171.77 
M 279.52 171.77 279.95 171.75 
M 267.49 137.08 267.18 136.62 267.29 135.8 267.69 135.43 268 135.89 267.9 136.71 267.49 137.08 
M 268.19 136.45 267.64 136.45 267.02 135.9 266.95 135.36 267.49 135.36 268.12 135.91 268.19 136.45 
M 284.12 151.73 283.8 151.29 283.87 150.46 284.26 150.08 284.58 150.53 284.51 151.35 284.12 151.73 
M 284.66 151.32 284.16 151.1 283.81 150.36 283.95 149.83 284.45 150.05 284.81 150.79 284.66 151.32 
M 279.9 146.09 279.38 146.28 278.61 145.99 278.35 145.5 278.86 145.32 279.64 145.61 279.9 146.09 
M 279.26 145.18 279.31 145.73 278.83 146.4 278.29 146.53 278.24 145.98 278.73 145.31 279.26 145.18 
M 293.43 157.12 292.89 157.22 292.18 156.79 292.01 156.26 292.55 156.17 293.26 156.6 293.43 157.12 
M 292.61 156.07 292.86 156.56 292.68 157.36 292.23 157.69 291.98 157.2 292.17 156.4 292.61 156.07 
M 290.96 162.8 290.94 163.35 290.37 163.95 289.82 164.01 289.85 163.46 290.42 162.86 290.96 162.8 
M 290.31 162.78 290.54 163.28 290.32 164.07 289.87 164.38 289.63 163.88 289.85 163.08 290.31 162.78 
M 310.76 139.12 311.1 139.55 311.06 140.38 310.68 140.77 310.34 140.34 310.38 139.51 310.76 139.12 
M 310.7 139.32 310.88 139.83 310.58 140.6 310.1 140.86 309.91 140.34 310.21 139.57 310.7 139.32 
M 307.62 145.27 307.21 144.92 307.08 144.1 307.37 143.64 307.79 143.99 307.91 144.81 307.62 145.27 
M 306.87 144.38 307.41 144.28 308.13 144.68 308.31 145.2 307.77 145.31 307.05 144.9 306.87 144.38 
M 315.14 150.09 315.29 149.56 315.98 149.11 316.53 149.18 316.38 149.71 315.69 150.16 315.14 150.09 
M 315.3 149.97 315.65 149.55 316.47 149.42 316.94 149.71 316.58 150.13 315.77 150.26 315.3 149.97 
M 304.33 159.16 304.33 158.61 304.88 157.99 305.42 157.92 305.42 158.46 304.87 159.09 304.33 159.16 
M 305.5 158.49 305 158.7 304.21 158.43 303.93 157.96 304.44 157.75 305.23 158.02 305.5 158.49 
M 298.55 154.61 298.76 154.11 299.51 153.74 300.04 153.88 299.82 154.38 299.08 154.75 298.55 154.61 
M 298.74 153.94 299.28 154.05 299.78 154.7 299.75 155.25 299.22 155.14 298.71 154.48 298.74 153.94 
M 331.41 135.29 330.98 135.63 330.15 135.61 329.75 135.23 330.18 134.89 331 134.92 331.41 135.29 
M 331.21 135.3 330.68 135.44 329.94 135.06 329.73 134.56 330.26 134.42 331 134.79 331.21 135.3 
M 324.82 142.15 324.27 142.2 323.6 141.71 323.48 141.17 324.03 141.13 324.69 141.62 324.82 142.15 
M 324.78 141.63 324.27 141.82 323.49 141.54 323.23 141.06 323.74 140.86 324.52 141.15 324.78 141.63 
M 343.69 145.4 344.23 145.49 344.76 146.13 344.75 146.68 344.21 146.59 343.68 145.95 343.69 145.4 
M 344.64 146.51 344.17 146.23 343.91 145.45 344.11 144.94 344.59 145.22 344.85 146 344.64 146.51 
M 343.52 141.04 343.9 140.65 344.73 140.58 345.17 140.9 344.79 141.29 343.96 141.36 343.52 141.04 
M 343.8 141.29 344.17 140.88 344.99 140.78 345.44 141.08 345.08 141.49 344.26 141.59 343.8 141.29 
M 320.19 154.51 320.1 153.97 320.53 153.26 321.05 153.1 321.14 153.64 320.71 154.34 320.19 154.51 
M 320.31 153.25 320.71 153.63 320.8 154.45 320.48 154.9 320.08 154.52 320 153.7 320.31 153.25 
M 341.11 152.34 340.71 151.97 340.62 151.15 340.93 150.7 341.33 151.07 341.42 151.89 341.11 152.34 
M 341.22 150.92 341.21 151.47 340.67 152.09 340.12 152.16 340.13 151.62 340.67 150.99 341.22 150.92 
M 326.56 151.97 326.07 152.21 325.27 151.98 324.97 151.53 325.46 151.29 326.26 151.52 326.56 151.97 
M 326.19 152.22 325.71 151.94 325.44 151.16 325.65 150.65 326.12 150.93 326.39 151.71 326.19 152.22 
M 299.2 160.99 299.39 160.48 300.12 160.08 300.66 160.2 300.46 160.71 299.74 161.11 299.2 160.99 
M 300.39 161.02 299.89 160.79 299.56 160.03 299.72 159.51 300.22 159.74 300.55 160.5 300.39 161.02 
M 306.28 168.5 306.03 168.01 306.23 167.21 306.68 166.9 306.93 167.39 306.73 168.19 306.28 168.5 
M 306.51 167.07 306.65 167.6 306.29 168.34 305.79 168.56 305.65 168.03 306.01 167.29 306.51 167.07 
M 342.95 156.59 343.12 156.07 343.84 155.65 344.37 155.75 344.2 156.27 343.48 156.69 342.95 156.59 
M 344.29 156.15 343.77 156.34 343 156.04 342.75 155.55 343.26 155.37 344.03 155.67 344.29 156.15 
M 347.14 149.36 347.53 149.75 347.59 150.57 347.26 151.01 346.87 150.62 346.81 149.8 347.14 149.36 
M 346.63 149.91 347.17 149.99 347.72 150.61 347.72 151.16 347.17 151.08 346.63 150.46 346.63 149.91 
M 350.26 155.2 350.13 155.73 349.44 156.2 348.9 156.14 349.04 155.61 349.72 155.14 350.26 155.2 
M 349.5 155.04 349.73 155.54 349.51 156.34 349.05 156.64 348.82 156.14 349.04 155.35 349.5 155.04 
M 297.53 166.04 298.04 165.85 298.82 166.14 299.08 166.63 298.56 166.81 297.79 166.52 297.53 166.04 
M 298.11 166.93 298.11 166.38 298.66 165.76 299.2 165.69 299.19 166.23 298.65 166.86 298.11 166.93 
M 338.45 161.45 338.08 161.04 338.07 160.22 338.43 159.8 338.79 160.21 338.8 161.04 338.45 161.45 
M 337.86 160.87 338.27 160.52 339.1 160.52 339.51 160.88 339.1 161.23 338.27 161.23 337.86 160.87 
M 351.94 140.13 352 140.68 351.52 141.36 350.99 141.5 350.93 140.95 351.41 140.27 351.94 140.13 
M 351.68 141.41 351.35 140.97 351.39 140.15 351.78 139.76 352.11 140.19 352.06 141.02 351.68 141.41 
M 359.92 164.97 359.38 164.87 358.87 164.22 358.89 163.68 359.43 163.78 359.94 164.42 359.92 164.97 
M 359.26 164.94 359.22 164.39 359.71 163.72 360.24 163.6 360.28 164.15 359.79 164.82 359.26 164.94 
M 326.92 163.95 326.49 164.29 325.67 164.28 325.26 163.91 325.68 163.56 326.51 163.58 326.92 163.95 
M 325.5 164.14 325.93 163.81 326.76 163.85 327.15 164.24 326.71 164.57 325.89 164.52 325.5 164.14 
M 312.47 168.28 312.33 168.8 311.65 169.27 311.11 169.21 311.25 168.68 311.93 168.21 312.47 168.28 
M 312.13 168.21 311.99 168.74 311.31 169.21 310.76 169.15 310.9 168.62 311.58 168.15 312.13 168.21 
M 106.69 131.8 107.08 132.18 107.16 133.01 106.84 133.45 106.45 133.07 106.37 132.25 106.69 131.8 
M 107.29 132.97 106.77 132.83 106.31 132.14 106.37 131.6 106.9 131.74 107.36 132.43 107.29 132.97 
M 370.36 160.62 369.83 160.48 369.36 159.8 369.42 159.26 369.95 159.39 370.42 160.08 370.36 160.62 
M 369.28 159.78 369.83 159.75 370.48 160.26 370.59 160.8 370.04 160.82 369.39 160.31 369.28 159.78 
M 368.16 141.5 367.94 142 367.19 142.36 366.66 142.22 366.88 141.71 367.63 141.36 368.16 141.5 
M 367.75 142.39 367.33 142.04 367.19 141.22 367.48 140.76 367.9 141.11 368.04 141.92 367.75 142.39 
M 301.38 169.62 301.88 169.84 302.24 170.58 302.14 170.94 
M 301.72 170.95 301.23 170.15 301.38 169.62 
M 301.31 170.83 301.54 170.33 302.3 170 302.82 170.16 302.59 170.65 301.93 170.94 
M 301.7 170.95 301.31 170.83 
M 369.28 153.99 368.79 153.75 368.47 152.98 368.65 152.46 369.14 152.71 369.45 153.48 369.28 153.99 
M 369.01 153.86 368.8 153.35 369.07 152.57 369.54 152.29 369.75 152.8 369.48 153.58 369.01 153.86 
M 364.36 151.99 364.27 152.53 363.64 153.06 363.09 153.05 363.18 152.51 363.81 151.98 364.36 151.99 
M 364.3 152.77 363.76 152.72 363.19 152.11 363.17 151.57 363.71 151.62 364.28 152.22 364.3 152.77 
M 365.1 160.78 365.36 161.27 365.17 162.07 364.72 162.39 364.47 161.91 364.66 161.1 365.1 160.78 
M 364.7 160.99 365.03 161.43 364.98 162.26 364.59 162.64 364.26 162.21 364.32 161.38 364.7 160.99 
M 366.13 147.71 365.88 147.22 366.07 146.42 366.52 146.1 366.77 146.59 366.57 147.39 366.13 147.71 
M 366.15 147.51 366.13 146.96 366.66 146.32 367.2 146.23 367.21 146.78 366.69 147.42 366.15 147.51 
M 287.51 158.17 287.31 157.66 287.58 156.88 288.06 156.61 288.26 157.12 287.98 157.9 287.51 158.17 
M 287.93 158.01 287.65 157.54 287.78 156.72 288.2 156.37 288.49 156.84 288.35 157.66 287.93 158.01 
M 223.88 292.89 223.76 292.3 223.34 291.7 222.83 291.39 221.63 291.39 220.94 291.7 220.16 292.3 219.1 293.8 218.66 295.3 218.81 296.8 219.23 297.39 219.74 297.7 220.94 297.7 221.63 297.39 222.41 296.8 222.89 296.2 223.16 295.3 
M 221.66 295.3 223.16 295.3 
M 225.8 293.5 224.54 297.7 
M 225.44 294.7 226.61 293.8 227.3 293.5 228.2 293.5 228.71 293.8 228.74 294.7 227.84 297.7 
M 234.8 293.5 233.54 297.7 
M 234.53 294.39 234.11 293.8 233.6 293.5 232.7 293.5 232.01 293.8 231.23 294.39 230.66 295.3 230.48 295.89 230.51 296.8 230.93 297.39 231.44 297.7 232.34 297.7 233.03 297.39 233.81 296.8 
M 240.5 293.5 239.06 298.3 238.49 299.2 237.41 299.8 236.51 299.8 236 299.5 
M 240.23 294.39 239.81 293.8 239.3 293.5 238.4 293.5 237.71 293.8 236.93 294.39 236.36 295.3 236.18 295.89 236.21 296.8 236.63 297.39 237.14 297.7 238.04 297.7 238.73 297.39 239.51 296.8 
M 244.1 293.5 243.41 293.8 242.63 294.39 242.06 295.3 241.88 295.89 241.91 296.8 242.33 297.39 242.84 297.7 243.74 297.7 244.43 297.39 245.21 296.8 245.78 295.89 245.96 295.3 245.93 294.39 245.51 293.8 245 293.5 244.1 293.5 
M 248.6 293.5 247.34 297.7 
M 248.06 295.3 248.63 294.39 249.41 293.8 250.1 293.5 251 293.5 
M 252.5 293.5 251.6 296.5 251.63 297.39 252.14 297.7 253.04 297.7 253.73 297.39 254.9 296.5 
M 255.8 293.5 254.54 297.7 
M 260.93 294.39 260.81 293.8 260 293.5 259.1 293.5 258.11 293.8 257.63 294.39 257.75 295 258.26 295.3 259.66 295.6 260.18 295.89 260.21 296.8 259.73 297.39 258.74 297.7 257.84 297.7 257.02 297.39 256.9 296.8 
M 266.3 293.5 265.03 297.7 
M 265.94 294.7 267.11 293.8 267.8 293.5 268.7 293.5 269.2 293.8 269.24 294.7 268.33 297.7 
M 269.24 294.7 270.4 293.8 271.1 293.5 272 293.5 272.51 293.8 272.54 294.7 271.64 297.7 
M 274.45 295.3 278.06 295.3 278.24 294.7 278.12 294.1 277.39 293.5 276.5 293.5 275.81 293.8 275.02 294.39 274.45 295.3 274.27 295.89 274.31 296.8 274.73 297.39 275.24 297.7 276.14 297.7 276.83 297.39 277.61 296.8 
M 283.43 294.39 283.31 293.8 282.5 293.5 281.6 293.5 280.61 293.8 280.13 294.39 280.25 295 280.76 295.3 282.16 295.6 282.68 295.89 282.7 296.8 282.23 297.39 281.24 297.7 280.33 297.7 279.52 297.39 279.4 296.8 
M 285.8 293.5 284.89 296.5 284.93 297.39 285.44 297.7 286.33 297.7 287.02 297.39 288.2 296.5 
M 289.1 293.5 287.83 297.7 
M 292.43 291.39 290.89 296.5 290.93 297.39 291.44 297.7 292.03 297.7 
M 290.89 293.5 293 293.5 
M 298.39 293.5 297.14 297.7 
M 298.13 294.39 297.7 293.8 297.2 293.5 296.3 293.5 295.61 293.8 294.83 294.39 294.26 295.3 294.08 295.89 294.11 296.8 294.52 297.39 295.03 297.7 295.94 297.7 296.63 297.39 297.4 296.8 
M 300.02 297.1 299.63 297.39 299.83 297.7 300.23 297.39 300.02 297.1 
"/></svg>
