<svg xmlns="http://www.w3.org/2000/svg" width="520" height="320"><rect x="0" y="0" width="520" height="320" fill="floralwhite"/><rect x="10" y="10" width="500" height="300" stroke="black" stroke-width="1" fill="none"/><path stroke="black" stroke-width="1" fill="none" stroke-linecap="round" stroke-linejoin="round" d="
M 169.5 115.22 186.38 108.43 200.91 102.16 208.44 99.72 216.22 98.26 223.92 96.46 231.46 94.06 239.09 91.94 246.86 90.46 254.75 89.73 262.66 89.65 270.57 89.96 278.36 91.36 286.03 93.32 293.62 95.53 301.16 97.97 308.58 100.72 323.24 106.68 330.71 109.31 345.8 114.08 353.12 117.09 374.63 127.13 381.76 130.59 392.25 136.08 
M 392.25 176.7 382.83 182.25 368.95 189.86 361.84 193.35 354.53 196.39 324.72 207.03 309.98 212.79 302.49 215.37 294.85 217.42 287.06 218.84 279.18 219.56 271.27 219.24 263.4 218.44 255.49 218.05 231.85 215.89 223.98 215.03 208.43 212.09 200.75 210.15 193.17 207.89 185.68 205.32 178.3 202.46 171.03 199.35 160.35 194.21 
M 193.31 144.13 197.01 143.45 
M 212.28 141.74 215.7 141.17 
M 219.45 141 227.66 141.39 
M 234.63 140.37 239.19 139.09 240.87 138.89 
M 244.33 138.68 247.86 138.72 
M 257.42 138.82 260.48 139.02 
M 263.44 139.25 267.81 139.72 269.35 140.07 
M 272.43 140.77 278.4 142.38 
M 281.33 143.19 284.12 143.83 
M 289.13 144.41 303.44 145.04 306.24 145.06 311.57 144.54 314.78 144.69 324.58 146.58 
M 328.28 146.99 334.97 147.04 
M 338.33 147.11 349.25 146.98 355.77 147.32 373.1 148.91 379.64 149.21 392.25 149.24 
M 165.37 192.93 165.99 195.5 
M 169.18 180.62 170.22 183.86 
M 172.73 194.79 173.7 197.78 
M 174.67 200.39 174.89 201 
M 174.61 123.9 172.99 126.5 
M 178.29 185.7 179.55 191.34 
M 180.42 194.34 181.99 200.11 
M 182.4 202.13 182.56 202.87 
M 188.27 111.76 187.03 115.06 
M 185.84 118.45 183.28 125.1 
M 177.68 138.18 175.36 144.47 
M 186.57 189.51 187.8 195.15 
M 198.45 105.82 197.06 108.83 
M 195.86 112.08 192.78 122.49 
M 189.73 133.14 186.32 141.29 184.74 145.58 
M 185.9 150.51 186.74 153.87 
M 194.44 190.42 195.13 193.39 
M 197.07 199.86 199.17 205.94 
M 202.61 116.38 201.59 119.81 
M 199.57 126.75 198.7 130.39 
M 197.68 133.9 197.1 135.59 194.16 141.8 193.82 142.94 
M 202.94 189.12 203.21 190.71 205.58 200.14 208.12 207.67 
M 213.27 112.26 207.64 126.5 205.89 131.46 
M 204.93 135 204.02 138.61 
M 205.73 154.92 206.08 156.92 
M 212.2 191.25 214.03 197.8 
M 216.08 204.83 217 208.05 
M 225.71 101.69 224.87 104.93 
M 223.02 111.52 221.91 114.72 
M 220.66 117.81 219.32 120.82 
M 217.84 123.71 215.35 127.8 214.67 129.32 
M 220.88 192.53 221.9 196.52 
M 222.86 200.03 223.8 203.57 
M 233.31 102.93 232.37 106 
M 229.51 115.7 228.52 121.09 227.9 122.61 
M 226.47 125.46 223.97 129.42 223.28 130.88 
M 222.02 133.95 220.95 137.22 
M 229.7 193.29 232.13 203.39 
M 232.88 206.86 233.91 211.37 
M 240.76 104.41 240.39 108.02 
M 238.68 114.53 237.18 119.3 236.34 122.66 235.23 125.75 234.53 127.16 
M 233.12 129.97 232.42 131.38 231.28 134.48 229.54 141.47 
M 238.55 194.14 239.88 202.85 
M 240.49 206.23 241.51 211.83 
M 248.38 99.29 248.04 100.81 247.9 102.59 
M 247.73 106.27 247.33 111.86 246.89 113.47 
M 245.87 116.56 243.58 122.54 
M 242.51 125.64 237.11 139.59 
M 237.92 147.03 238.5 150.27 
M 245.61 194.51 245.65 194.69 
M 246.32 198.07 247.33 203.21 247.66 207.79 
M 255.63 98.8 254.9 101.8 
M 253.78 112.37 253 115.63 
M 252.11 118.8 248.9 129.92 247.8 132.94 245.73 137.19 
M 246.3 149.42 246.69 152.11 
M 251.74 194.05 252.01 195.74 
M 252.99 202.31 253.25 203.99 255.22 212.23 
M 260.66 108.49 259.69 113.45 259.2 114.95 
M 258.19 117.94 256.82 122.6 256.5 124.29 
M 255.89 127.72 255.25 131.12 
M 253.42 137.3 252.87 138.66 
M 258.6 194.85 259.1 198.24 
M 268.77 103 266.77 108.66 
M 265.21 114.96 262.62 124.24 
M 260.88 134.45 260.15 138.97 
M 266.24 194.58 266.6 200.42 266.84 202.08 
M 267.32 205.39 268.51 212.87 
M 274.12 107.67 272.79 112.17 272.47 113.81 
M 271.93 117.2 271.18 122.32 270.75 123.85 
M 268.8 129.74 268.33 131.23 267.69 134.52 267.05 139.58 
M 274.19 200.16 274.6 201.97 275.3 206.86 
M 275.71 210.07 276.33 214.19 
M 282.06 104.11 281.44 107.38 
M 280.68 110.52 279.39 115.11 278.36 121.88 277.64 125.05 275.74 130.92 275.08 134.15 274.45 139.39 
M 279.63 193.85 281.5 202.59 282.3 207.51 
M 282.91 211.37 283.29 213.63 
M 288.43 114.86 287.57 117.93 
M 286.58 120.86 283.16 131.02 282.33 134.04 281.22 143.19 
M 286.07 191.65 287.05 196.72 288.42 202.13 
M 289.52 205.92 292.3 214.44 
M 296.3 115.39 295.86 116.96 294.73 119.79 293.41 122.42 292.29 125.21 289.43 133.96 288.72 137.09 287.46 144.33 
M 293.23 190.48 294.39 196.51 
M 294.99 199.76 295.34 201.43 296.58 205.3 297.44 207.46 
M 298.98 211.29 299.65 212.96 
M 304.97 116.69 303.31 121.11 302.53 122.33 
M 298.03 129.68 296.77 134.25 295.28 138.55 
M 294.27 141.38 293.23 144.64 
M 300.6 188.25 302.09 195.01 
M 302.74 198.27 304.1 204.79 
M 304.96 207.9 305.39 209.29 
M 314.24 118.34 313.01 121.24 
M 311.82 124.14 310.57 126.95 
M 309.05 129.44 308.19 130.58 304.2 134.49 303.46 135.7 
M 302.12 138.26 299.3 144.84 
M 308.62 186.71 309.39 190.23 
M 310.03 193.43 311.34 199.89 
M 311.99 203.07 312.54 206.52 
M 322.49 122.46 321.89 123.97 320.94 125.09 
M 318.95 127.25 317.93 128.28 315.36 131.82 
M 311.73 136.21 309.12 139.53 305.89 145.07 
M 316.64 187.7 318.14 195.49 320.39 204.33 
M 329.15 124.1 328.52 125.59 326.86 128.13 321.49 135.14 318.62 138.34 
M 314.45 142.18 312.25 144.53 
M 323.09 182.31 324.02 185.35 
M 324.71 188.53 325.02 191.37 
M 325.42 194.32 325.7 195.89 327.43 201.72 
M 333.64 131.34 331.43 135.42 329.74 137.89 328.75 138.95 
M 326.66 140.96 320.92 145.92 
M 329.97 180.88 334.3 199.29 
M 342.4 129.97 339.15 137.47 337.27 139.84 332.69 143.63 329.82 147.09 
M 336.47 177.54 337.65 184.04 339.46 191.03 340.43 196.42 
M 350.1 132.46 347.55 136.55 345.72 139.12 343.47 141.22 341.04 143.11 338.96 145.31 337.66 147.08 
M 343.1 174.48 345.81 185.62 346.27 188.74 346.54 193.77 
M 358.15 131.19 353.54 137.95 351.31 140.24 348.83 142.24 346.64 144.5 345.15 147.06 
M 349.7 171.54 350.84 176.41 351.65 181.3 
M 352.76 187.82 353.55 191.8 
M 366.51 130.21 365.55 131.58 361.18 136.57 357.11 141.84 355.98 143.03 
M 353.65 145.66 352.46 147.11 
M 356.24 168.51 358.11 174.81 358.85 178.38 360.78 189.67 
M 371.7 135.71 370.66 137.09 363.44 144.33 360.37 147.74 
M 363.59 164.55 366.69 177.21 368.2 187.3 
M 379.23 134.43 376.3 138.94 368.7 148.6 
M 370.61 161.05 373.81 177.81 375.3 184.14 
M 366.77 131.54 367.33 129.58 366.53 128.22 
M 313.04 129.99 312.61 130.3 312.81 130.56 
M 226.17 148.64 225.36 149.99 224.41 150.8 223.68 150.84 222.57 150.58 220.34 150.39 
M 357.31 195.23 356.38 193.83 
M 221.7 127.48 219.05 126.17 218.27 125.32 218.09 124.82 218.02 124.15 218.18 123.37 220.2 118.93 
M 275.15 106.8 276.08 104.64 276.53 102.94 276.44 99.52 276.68 97.6 276.98 96.75 
M 268.13 101.67 268.49 101.07 271.27 97.86 272.53 95.58 272.79 94.72 272.81 93.28 272.28 92.41 271.38 91.77 
M 379.12 179.85 379.13 180.46 378.62 180.75 
M 298.03 102.91 297.25 101.84 296.49 101.45 295.85 101.43 294.46 101.8 293.07 101.77 
M 251.66 138.25 251.75 139.57 252.33 141.95 252.82 142.45 253.59 142.65 
M 261.16 108.86 260.37 108.24 259.61 107.94 257.37 107.88 256.58 108.25 255.13 109.56 254.23 110.64 
M 210.23 135.57 208.91 135.16 208.88 134.32 
M 228.96 209.88 228.8 208.89 227.6 207.38 226.17 204.8 225.43 202.18 
M 294.2 143.11 292.25 143.59 288.86 144.1 285.86 143.93 284.63 143.65 
M 344.43 173.85 346.4 175.53 347.99 176.46 348.31 177 
M 272.57 135.67 272.35 136.92 272.07 137.67 271.55 138.41 268.05 140.52 267.26 141.93 267.22 142.84 
M 287.34 202.7 285.97 200.82 
M 238.08 140.28 236.89 141.13 235.98 143.07 234.23 145.21 
M 257 93.44 254.52 93.99 253.61 94.35 252.92 94.39 
M 235.58 117.44 237.03 116.78 238.01 115.93 238.98 114.8 240.34 112.66 241.11 112 
M 197.27 103.51 197.27 103.51 
M 201.85 101.81 202.08 93.5 203.57 91.51 205.23 89.69 206.1 87.07 207.41 84.83 209.86 83.72 211.65 81.96 214.42 81.17 216.75 79.95 218.08 77.72 219.88 75.96 220.33 73.17 220.96 70.56 222.32 68.36 224.4 66.92 226.09 65.06 226.83 62.26 228.85 60.72 230.71 59.02 233.06 57.82 235.1 56.38 236.35 54.16 236.78 51.11 238.32 49.1 240.59 47.83 243.44 47.17 246.1 46.82 249.09 46.8 251.27 45.7 252.41 43.33 254.34 41.74 256.97 41.11 261.86 40.7 264.7 41.08 267.77 41.87 270.34 41.97 275.09 40.08 277.03 38.71 279.53 37.89 280.88 36.18 282.61 34.86 285.2 34.03 286.97 32.23 291.85 30 295.09 31.98 297.2 33.02 301.04 34.56 303.98 35.2 305.75 34.68 307.12 33.75 311.15 33.19 314.46 34.23 317.7 35.64 323.27 41.02 323.99 42.39 325.78 44.96 327.74 46.57 336.81 52.29 338.61 53.16 344.35 59.38 343.83 61.9 343.55 64.71 344.02 66.91 344.17 70.36 346.21 75.64 345.49 79.33 346.87 85.41 347.51 92.89 346.97 95.64 339.8 112.15 
M 335.94 110.94 335.94 110.94 
M 201.21 102.05 203.18 100.96 203.79 98.56 203.7 96.42 
M 205.14 100.58 206.77 99.16 207.11 97.14 206.72 90.03 
M 209.22 99.57 211.22 98.45 211.52 94.29 211.31 92.19 211.61 90.17 212.59 87.76 
M 213.35 98.81 214.95 97.65 215.52 95.73 215.6 93.48 217.9 87.14 217.4 84.99 218.06 82.25 217.46 79.02 
M 217.47 97.97 218.93 96.28 219.73 94.39 220.71 89.82 220.82 87.57 221.31 86.05 220.99 83.56 222.07 81.53 223.8 74.46 
M 221.56 97.01 222.86 95.23 224.16 91.13 224.5 88.86 224.25 86.81 224.38 85.02 224.92 83.24 225.49 79.58 225.8 73.19 
M 225.64 96 226.52 94.41 226.64 92.37 227.12 90.21 227.04 87.92 228.34 84.25 228.48 81.33 227.86 77.83 
M 229.62 94.67 230.29 93.41 230.88 87.24 232.01 84.61 232.38 82.2 231.36 79.62 230.4 74.32 230.66 66.07 230.84 64.81 231.09 64.18 
M 233.61 93.34 234.51 91.99 234.64 89.84 236.43 83.23 236.64 80.83 236.03 77.7 236.57 75.02 236.63 72.15 236.02 70.17 236.48 68.49 236.52 66.82 237.2 64.14 237.4 61.81 237.93 60.02 238.19 57.49 
M 237.67 92.29 238.65 90.61 239.73 86.4 241.05 82.72 241.39 79.8 241.74 73.12 241.98 71.44 241.64 69.79 241.52 67.46 242.06 65.23 241.78 63.03 242.82 57.43 242.62 55.08 243.37 53.28 
M 241.75 91.28 242.83 89.68 245.04 81.43 246.19 75.81 246.33 73.14 246.87 71.1 247.18 68.3 
M 245.89 90.57 247.14 88.64 248.46 85.12 249.12 82.81 249.36 80.4 250.11 78.09 250.59 75.26 251.66 73.21 252.15 71.09 251.96 69.05 252.13 66.55 
M 250.07 90.08 251.38 88.23 252.12 86.36 253.68 81.67 254.09 79.56 254.84 77.95 256.2 76.3 256.54 73.37 257.09 70.99 256.87 69.07 258.15 64.52 258.42 61.74 259.13 59.11 261.01 54.79 262.14 50.89 262.12 49.1 261.53 46.97 262.26 44.17 
M 254.25 89.74 255.82 87.91 256.86 86.07 258.91 79.56 259.99 77.74 261.48 75.96 261.75 73.46 261.39 71 261.55 67.78 262.18 65.35 263.44 63.85 265.56 62.1 267.8 59.28 267.66 56.39 267.09 54.18 267.03 51.94 267.8 49.25 267.99 47.64 268.12 43.34 
M 258.45 89.67 260.18 87.97 261.73 83.4 263.35 79.29 266.16 75.71 266.69 73.25 266.77 68.43 267.46 65.44 270.14 63.84 271.89 61.56 272.66 58.83 273.05 56.64 272.36 54.25 272.64 52.67 
M 262.65 89.64 264.26 87.93 265.45 85.83 267.17 81.22 269.07 78.97 270.09 76.7 270.95 74.55 272.02 69.51 272.59 68.07 273.15 65.9 274.5 63.66 276.22 61.48 278.15 59.57 278.97 57.28 278.76 53.25 
M 266.85 89.81 268.23 88.46 269.72 86.11 272.62 80.91 274.49 76.79 275.05 74.62 276.11 72.52 276.76 70.7 277.69 66.29 279.27 63.87 280.75 61.11 281.89 59.75 
M 271.05 89.98 272.68 88.64 275.64 84.23 277.66 82.15 279.78 78.19 280.96 76.56 281.91 74.6 282.41 72.29 283.4 69.41 283.57 67.03 284.9 64.97 287.34 63.92 288.94 61.86 291.91 57.22 293.14 54.4 294.45 52.22 
M 275.18 90.75 277.24 89.05 280.26 85.49 282.02 84.02 283.58 82.04 285.22 78.08 285.9 75.79 287.11 74.18 291.17 66.68 292.61 64.64 294.39 63.36 296.46 61.15 297.46 59.04 299.48 56.23 300.48 54.07 
M 279.3 91.55 281.49 89.95 284.66 86.74 285.94 85 287.16 82.69 288.65 80.9 289.68 78.66 290.83 76.95 291.93 74.08 293.82 71.99 294.97 69.72 296.51 67.95 297.54 65.53 299.52 63.39 301.65 61.98 304.68 58.64 305.98 54.87 307.17 52.41 308.73 50.16 309.94 47.37 
M 283.38 92.58 285.4 91.11 288.84 87.32 290.43 85.86 291.61 83.89 293.32 81.85 295.18 80.27 297.21 77.93 299.31 73.87 301.14 71.9 303.94 67.52 305.47 65.74 306.94 63.59 309.33 60.79 310.62 58.62 312.61 56.11 314.32 54.28 315.67 51.83 317.7 49.23 319.1 48.21 
M 287.42 93.71 289.63 92.31 291.24 90.32 293.14 88.3 295.23 86.49 296.59 84.79 299.92 81.74 301.28 78.72 302.58 76.82 303.41 74.57 305.26 72.81 306.76 70.82 310.9 68.5 312.07 66.75 
M 291.46 94.88 293.85 93.57 295.81 91.66 297.48 89.67 299.48 88.06 300.71 86.52 302.63 85.14 304.29 82.53 306.07 80.73 308.6 76.52 310.15 74.73 312.01 73.61 313.62 71.68 315.28 70.46 
M 295.48 96.1 297.63 94.84 303.65 89.88 305.33 88.17 311.18 80.69 316.63 74.66 317.51 73.02 318.57 70.54 320.09 69.3 
M 299.49 97.35 301.78 95.99 305.88 92.91 307.68 91.25 309.23 89.43 310.52 88.31 312.05 85.91 315.37 82.7 319.25 78.17 320.78 75.56 322.59 73.09 324.25 71.74 
M 303.43 98.81 307.8 95.93 309.74 94.9 311.9 92.9 313.74 91.72 315.44 89.67 316.47 87.72 318.23 86.34 320.18 84.23 324.32 79.17 325.57 77 329.27 72.48 330.5 70.5 331.49 69.65 
M 307.37 100.26 310.08 99.25 314.01 96.24 316.07 94.4 317.57 92.52 318.47 90.42 320.05 89.24 322.17 86.96 324.7 85.84 326.54 84.55 327.85 82.75 
M 311.27 101.83 313.97 101.09 316.18 99.44 318.31 97.58 319.91 95.78 320.82 94.51 322.02 92.37 323.85 90.3 326.44 88.83 328.23 87.46 
M 315.16 103.42 317.75 102.9 319.81 101.18 323.57 97.18 325.68 95.75 327.66 93.86 328.88 92.32 332.54 89.24 
M 319.05 105 321.71 104.32 323.67 102.77 325.65 100.47 327.67 98.76 331.47 96.04 332.81 94.2 335.28 91.92 337.23 89.74 339.49 85.57 
M 322.95 106.56 325.66 105.92 330.54 102.58 335.87 97.28 339.53 93.33 341.38 90.5 342.79 90.02 345.42 87.98 346.34 86.96 
M 326.85 108.11 329.73 107.64 331.97 106.17 333.79 104.04 335.08 102.15 336.97 100.5 338.22 98.75 340.81 96.92 343.22 94.57 345.16 93.58 
M 330.86 109.36 334.08 108.9 340.07 103.59 340.47 102.13 342.11 101.26 
M 172.91 161.31 175.85 160.79 183.44 159.84 203.67 156.92 206.2 156.92 211.55 156.41 213.92 155.99 216.33 155.29 218.91 155.34 223.96 154.24 233.72 153.58 238.9 152.88 246.57 152.12 254.51 151.95 259.84 151.08 262.63 150.93 264.74 150.55 272.15 149.96 277.3 150.96 279.76 151.16 284.53 150.42 286.87 150.54 294.61 149.84 297.06 149.89 300.05 150.43 302.9 150.58 305.57 150.63 308.29 150.43 312.63 150.76 315.38 150.77 317.82 150.97 322.21 151.73 328.34 151.09 332.99 151.41 337.31 152.57 340.25 152.6 343.39 152.97 345.98 153.54 348.48 153.74 356.24 154.01 358.88 154.38 361.55 153.81 363.91 153.51 366.5 153.78 370.16 154.95 372.57 154.95 378.35 155.4 381.98 155.37 358.66 167.01 354.54 169.59 352.35 170.74 347.24 172.31 342.84 174.61 340.82 175.93 335.94 177.74 333.71 178.78 331.74 180.03 329.56 181.08 327.19 181.93 324.18 182.13 318.76 183.16 314.5 185.34 312.26 186.32 309.46 186.49 307.13 187.1 301.9 187.75 299.78 188.56 297.89 189.61 295.83 190.49 292.88 190.48 290.25 190.79 288.02 191.48 285.36 191.72 280.48 192.62 277.78 192.82 275.54 193.47 269.92 193.63 267.69 194.29 263.03 195.11 257.78 194.78 254.78 194.24 252.1 194.01 247.76 194.59 242.68 194.44 240.3 194.51 237.4 193.89 232.17 193.22 227.59 193.21 224.74 192.64 220.09 192.55 215.17 192.02 212.43 191.29 204.88 189.77 201.87 188.77 197.93 188.85 194.28 188.3 173.03 181.89 167.73 179.12 
M 172.35 163.26 183.55 162.25 188.63 161.97 198.76 160.69 201.1 160.88 209.35 160.43 211.89 160.53 217.22 160.32 219.72 159.83 224.67 159.77 227.36 159.05 230.01 158.7 236.56 159 242.09 158.62 255.13 159.29 260.32 158.11 262.79 157.89 
M 171.67 165.18 181.23 164.9 186.34 164.99 194.12 164.19 196.65 164.15 201.61 164.39 207.11 164.34 217.6 164.83 224.91 164.21 227.44 163.79 230.02 163.65 234.82 164.95 239.83 165.25 242.57 164.8 248 164.75 249.83 165.15 252.24 166.06 254.63 166.69 260.31 166.01 262.79 166.04 268.42 166.82 270.61 167.68 272.74 168.02 274.9 167.99 277.05 167.67 279.8 168.26 
M 171.12 167.01 173.7 167.07 178.67 167.56 186.57 167.79 189.17 167.74 194.22 167.27 199.41 167.45 207.07 168.02 209.7 168.37 212.26 169.09 215.19 169.03 217.65 168.71 222.29 169.22 229.46 169.06 232.01 169.81 239.99 171.41 244.97 171.54 247.6 171.94 250.09 172.85 252.47 173.5 260.38 174.4 262.59 173.8 265.19 174.2 267.68 175.48 273.23 176.61 
M 170.67 168.84 173.68 169.08 178.72 169.81 189.32 170.66 194.22 170.6 202.14 171.21 217.27 173.43 222.08 174.53 229.94 175.36 232.43 176.12 237.37 178.31 239.99 179 242.13 179.3 244.71 179.9 249.85 181.36 257.5 182.65 269.19 185.62 271.67 185.89 274.09 186.99 279.44 188.38 281.86 189.18 
M 170.19 170.67 173.64 171.27 178.59 172.42 183.83 172.81 191.82 173.81 196.64 174.7 202.01 175.37 208.77 176.91 213.64 177.64 216.11 178.27 221.8 180.3 224.29 180.92 226.52 181.7 229.09 182.27 236.7 184.6 243.25 187.6 248.16 189.26 250.49 190.3 253.27 190.58 256.38 191.58 261.16 193.75 
M 169.65 172.52 178.41 174.65 189.17 176.41 191.67 177.03 194.04 177.95 206.32 181.2 208.41 181.89 210.79 182.22 212.95 182.75 215.71 183.81 
M 169.13 174.32 183.56 178.55 186.57 178.83 189.07 179.29 193.77 182.19 198.49 183.88 200.38 184.89 
M 168.58 176.23 178.45 180.12 
M 206.51 211.71 210.43 217.31 212.62 220 216.47 225.68 218.23 227.07 219.45 228.95 220.68 230.3 224.18 233.33 226.59 241.82 227.97 243.59 227.78 250.23 226.22 255.55 225.04 257.92 223.42 259.85 221.58 261.58 218.74 265.86 216.46 267.15 214.53 268.74 211.93 269.66 209.93 271.17 208.62 273.85 203.17 280 203.21 276.38 203.8 271.54 203.52 268.14 204.25 265.67 202.96 263.33 202.07 260.73 202.54 258.21 202.32 255 200.92 249.46 200.59 247.2 200.43 245.37 200.67 239.3 199.28 231.64 199.45 229.44 199.38 223.8 199.14 220.83 198.1 212.47 197.27 209.21 
M 204.89 211.27 208.58 216.94 209.88 219.87 211.79 222.81 213.47 226.23 214.77 228.46 216.23 229.6 217.77 231.43 219.81 235.1 
M 203.27 210.83 206.17 216.39 211.62 228.15 214.2 232.14 215.1 234.39 217.66 239.49 220.25 242.64 221.98 245.86 221.81 247.03 
M 201.65 210.4 204.12 215.91 205.82 221.97 207.93 226.82 208.79 229.77 210.18 232.27 211.43 235.26 212.77 237.16 213.89 239.56 
M 200.02 209.96 202.79 218.45 203.15 221.31 204.33 226.92 207.42 237.4 208.33 239.48 
M 198.4 209.52 200.02 215.57 201.01 221.03 201.11 223.81 201.42 226.57 202.05 229.39 202.45 234.51 204.17 238.94 204.64 241.23 205.24 246.46 204.94 249.62 205.53 252.51 
M 372.92 187.81 376.97 192.11 378.77 193.8 375.5 195.71 372.68 196.22 371.26 198.13 366.78 200.1 364.24 200.94 362.37 202.46 359.6 203.11 358.36 205.4 356.83 207.43 354.21 207.79 349.82 209.69 346.76 209.97 342.67 212.77 340.23 213.77 338.03 215 336.67 217.2 336.23 220.29 334.2 221.79 331.53 222.61 329.5 223.76 326.56 223.85 325.02 225.88 323.79 228.21 322.06 230.03 320.71 232.24 317.36 235.55 314.23 233.09 312.99 231 310.82 229.58 308.88 228.06 306.55 225.83 304.92 222.97 302.44 219.78 298.96 216.53 
M 369.19 189.74 373.81 194.27 
M 365.46 191.66 369.52 196.42 
M 361.64 193.43 365.38 197.84 
M 357.77 195.04 361.24 199.58 
M 353.87 196.63 356.7 202.02 
M 349.91 198.01 353.27 203.15 
M 345.94 199.4 349.76 204.47 
M 341.99 200.81 345.2 204.95 347.37 208 
M 338.03 202.24 340.85 205.54 
M 334.08 203.66 337.1 207.1 339.98 209.56 
M 330.12 205.06 335.58 210.84 337.8 213.98 
M 326.17 206.48 335.07 216.03 
M 322.24 207.97 328.59 214.7 
M 318.31 209.46 321.35 213.48 324.49 216.05 327.54 218.22 
M 314.41 211.01 318.07 214.7 320.77 217.14 322.6 219.48 326.51 223.3 
M 310.51 212.58 319.52 221.11 321.5 223.32 322.75 225.02 
M 306.57 214.04 310.32 217.25 314.36 221.32 
M 302.58 215.35 308.72 220.86 310.56 223.57 
M 391.41 135.61 394.45 135.12 401.27 132.2 405.97 128.58 408.18 127.38 412.54 124.55 415.51 123.88 417.81 122.43 422.76 120.31 425.14 118.05 426.85 116.98 428.75 116.69 430.28 115.33 431.71 112.98 434.39 111.22 437.06 110.81 440.4 109.42 443.28 106.68 429.88 120.22 428.62 122.29 428.23 125.23 427.14 127.51 426.25 130.12 424.94 132.29 424.85 135.27 424.34 137.81 424.49 140.34 423.94 142.19 422.76 144.18 421.22 145.95 420.27 148.49 421.12 154.34 421.37 156.8 421.4 159.23 421.79 162.36 420.4 164.34 420.23 166.81 419.87 168.55 420.01 170.24 422.42 174.7 423.96 178.17 424.68 180.75 428.21 187.86 429.16 190.73 428.53 192.58 428.84 194.71 430.63 199.69 442.94 212.08 435.45 206.1 432.65 205.08 431.29 204.82 428.76 202.7 427.19 201.81 425.63 200.23 420.12 196.94 414.82 192.94 408.24 189.38 405.82 187.2 403.98 186.41 401.39 184.71 399.44 183.88 391.41 177.2 
M 394.57 137.29 402.2 135.32 404.43 134.29 406.88 132.65 409.03 131.61 410.84 130.27 414.15 128.68 417.08 128.17 418.62 126.98 420.6 126.42 
M 394.32 139.47 397.08 138.93 399.98 138.09 402.96 137.84 409.69 134.77 414.04 132.2 416.77 131.01 424.18 129.84 
M 391.41 141.85 394.32 141.88 397.07 141.43 399.74 140.74 402.5 140.84 405.76 139.99 408.08 138.98 410.4 137.71 412.26 136.45 414.74 136.01 417.43 134.41 420.56 132.29 
M 394.87 144.23 397.55 143.97 399.7 143.37 402.81 143.45 406.22 142.55 408.82 141.68 
M 391.41 146.01 395.24 146.36 397.97 146.32 400.3 145.56 402.72 145.13 405.93 144.63 409.11 144.38 411.6 143.75 413.53 142.5 415.89 142.07 421.86 142.03 
M 398.71 148.39 400.8 147.7 403.34 147.17 405.93 146.28 412.77 147.41 414.85 147.37 416.64 146.86 
M 391.41 150.17 395.41 150.68 398.8 150.71 400.82 150.06 403.16 149.77 406.29 149.11 409.01 149.53 411.73 150.65 414.99 151.32 417.43 150.92 
M 401.42 152.42 403.46 152.13 406.42 152.34 409.77 152.02 413.01 153.1 
M 391.41 154.33 395.54 154.97 401.63 155.13 406.79 156.01 409.97 155.7 
M 401.52 157.99 404.33 158.67 407.24 158.72 
M 391.41 158.48 395.51 159.36 398.61 159.56 401.64 160.23 407.22 162.13 409.35 162.61 411.8 162.31 
M 401.55 162.89 404.29 163.9 406.77 165.2 408.92 165.78 410.94 165.43 416.07 165.85 
M 395.11 163.85 397.98 164.69 401.35 165.42 404.41 166.53 406.51 168.14 408.39 168.68 416.33 168.89 
M 391.41 164.72 394.96 166.29 397.82 166.84 400.99 168 409.44 171.96 411.51 172.54 
M 394.96 168.23 397.88 168.76 400.94 170.12 403.72 171.67 406.72 172.93 
M 391.41 168.88 394.97 170.45 397.77 171.1 400.68 172.65 403.19 174.48 406.38 175.22 408.89 176.43 411.65 177.3 417.01 179.83 422.5 182.87 
M 394.78 172.77 397.98 173.71 403.1 176.85 405.36 178.03 407.86 179.06 412.93 182.02 415.53 183.2 418.26 183.49 420.9 185.21 424.52 186.14 
M 397.31 176.69 400.03 178.47 402.44 179.37 407.56 181.97 410.09 183.85 414.39 186.11 416.53 187.53 
M 397.2 179.46 399.58 181.28 401.71 182.42 404.31 183.1 407.35 184.61 409.31 186 411.83 188.25 413.76 189.57 415.81 190.21 420.91 193.38 423.3 195.54 425.76 196.67 427.7 198.61 
M 343.64 112.28 346.71 113.52 348.36 113.5 351.71 112.56 353.36 112.88 354.6 115.8 355.43 117.26 358.42 118.64 360.06 118.61 363.38 117.97 364.75 119.03 366.17 121.84 367.45 122.77 370.68 124.11 374.19 123.96 375.77 124.54 377.42 127.16 378.71 128.19 380.53 129.14 382.16 130.78 
M 90.37 156.01 91.59 154.44 93.74 152.13 96.56 149.48 100.1 146.57 104.43 143.33 119.16 132.92 124.33 128.92 129.85 125.69 135.67 123.3 141.64 121.37 147.87 119.66 153.64 118.13 163.39 115.92 167.21 115.32 169.47 115.17 171.62 119.64 172.57 123.97 174.04 132.57 174.55 136.85 174.65 141.08 174.12 145.23 174.45 149.48 172.83 161.94 171.37 165.99 170.36 170.09 168.01 178.24 163.98 190.42 160.31 194.26 150.68 194.25 143.75 193.75 137.61 192.84 132.06 191.43 126.78 189.75 121.79 187.9 117.46 185.79 113.35 183.39 109.26 180.57 
M 106.31 178.34 102.62 175.24 98.87 171.81 95.85 168.6 94.29 166.61 
M 153.55 141.99 153.67 145.62 152.74 149.06 150.36 155.29 148.52 157.92 146.48 162.51 146.02 164.62 145.85 166.79 146.24 171.88 144.85 175.1 134.03 176.16 129.7 176.37 125.43 176.11 121.12 175.43 116.93 174.3 113.26 172.63 
M 108.06 179.98 101.75 173.75 92.77 165.2 88.31 160.48 87.15 158.59 87.62 156.54 89.65 155.69 91.66 156.57 95.54 161.99 98.21 165.14 109.6 180.29 
M 109.25 180.96 102.86 181.21 92.36 180.7 79.76 180.87 77.82 180.67 76.71 179.08 77.16 177.02 79.01 176.19 91.34 177.45 93.41 177.73 99.74 179.07 109.31 180.14 
M 123.9 149.09 122.97 145.56 123.24 141.92 124.67 138.56 127.12 135.84 130.31 134.07 133.91 133.44 137.52 134 140.75 135.71 143.25 138.37 144.75 141.7 145.09 145.34 144.23 148.89 142.26 151.97 139.4 154.24 135.96 155.46 132.3 155.5 128.84 154.35 125.93 152.13 123.9 149.09 
M 123.77 148.78 123.04 146.13 122.98 143.39 123.6 140.71 124.86 138.27 125.7 137.19 127.76 135.37 128.94 134.67 131.52 133.72 134.25 133.44 135.62 133.55 138.27 134.28 
M 125.32 148.14 124.94 147.03 124.61 144.73 124.65 143.56 124.96 142.03 
M 127.13 138.13 128.71 136.76 129.71 136.16 131.9 135.36 134.22 135.12 136.52 135.45 137.63 135.83 
M 126.87 147.49 126.56 146.59 126.29 144.69 126.6 142.41 
M 128.37 139.27 129.66 138.15 130.48 137.66 132.28 137 133.22 136.84 135.14 136.88 136.98 137.39 
M 129.97 146.36 129.6 144.94 129.82 143.23 
M 130.91 141.44 131.26 141.06 132.54 140.35 133.98 140.1 135.42 140.32 136.71 141 137.71 142.07 138.31 143.4 138.45 144.86 138.1 146.28 137.32 147.51 136.17 148.42 134.8 148.9 133.33 148.92 131.95 148.46 130.79 147.57 129.97 146.36 
M 129.91 143.26 129.69 143.69 
M 132.63 140.33 131.79 142.01 
M 130.95 143.7 129.85 145.9 
M 134.01 140.1 132.75 142.62 
M 131.99 144.13 130.49 147.13 
M 135.18 140.28 133.72 143.21 
M 133.33 143.99 131.33 147.99 
M 136.21 140.74 134.69 143.79 
M 134.66 143.84 132.29 148.57 
M 137.12 141.44 133.38 148.92 
M 137.88 142.44 134.65 148.91 
M 138.37 143.99 136.15 148.42 
M 90.99 155.2 95.04 159.25 
M 93.37 152.54 97.44 156.61 
M 95.94 150.07 100.63 154.76 
M 98.66 147.75 103.29 152.38 
M 101.49 145.53 106.34 150.39 
M 104.37 143.37 108.99 148 
M 107.31 141.27 111.42 145.38 
M 110.25 139.17 113.24 142.16 
M 113.19 137.07 117.3 141.18 
M 116.16 135 121.09 139.93 
M 119.14 132.93 123.88 137.68 
M 121.98 130.74 125.65 134.41 
M 124.88 128.6 127.63 131.34 
M 128.06 126.73 132 130.68 
M 131.41 125.05 135.62 129.25 
M 134.99 123.58 138.15 126.75 
M 138.75 122.3 142.7 126.25 
M 142.6 121.11 145.51 124.02 
M 146.55 120.02 150.63 124.1 
M 150.53 118.95 154.21 122.64 
M 154.53 117.92 157.67 121.05 
M 158.6 116.94 162.58 120.92 
M 162.75 116.06 167.32 120.62 
M 167.08 115.34 170.77 119.03 
M 172.79 136.04 171.46 135.79 171.06 135.46 170.59 134.64 169.73 134.16 
M 104.53 146.91 102.66 147.52 100.99 147.23 99.83 147.3 
M 149.6 151.6 148.05 150.87 146.63 150.6 146.25 150.9 146.26 151.63 
M 157.63 121.94 156.18 123.49 154.63 125.78 154.26 125.79 
M 151.72 169.2 151.12 168.75 148.97 165.92 148.2 165.54 
M 166.97 115.69 166.75 115.39 
M 119.88 162.71 121.56 162.46 121.98 162.08 122.12 161.15 121.71 160.12 
M 144.75 140.84 144.62 141.42 
M 144.9 143.35 145.4 144.61 145.46 145.3 145.09 146.56 144.56 147.53 
M 151.02 151.03 148.46 150.32 146.63 150.31 146.38 150.43 146.17 150.87 
M 128.84 154.93 126.38 154.21 124.33 153.17 122.96 153.34 
M 97.15 161.34 95.86 162.36 
M 160.77 193.78 158.52 193.63 158.1 193.32 157.85 192.82 
M 156.02 141.63 153.19 142.48 150.63 144.15 147.5 145.5 
M 146.33 182.86 147.53 180.39 147.8 178.13 147.43 176.62 
M 110.04 146.83 108.5 145.77 107.58 145.7 106.24 145.32 
M 125.5 158.95 123.71 158.85 123.19 158.64 122.22 157.5 121.17 155.48 121.01 154.81 121.23 153.45 121.69 152.62 
M 129.58 190.64 130.94 188.28 130.83 187.28 
M 152.67 154.86 151.72 156.11 151.12 156.51 150.24 156.66 148.62 156.31 
M 172.87 158.64 173.29 158.61 
M 109.19 146.52 108.3 145.96 106.42 145.46 105.43 145.43 
M 150.58 151.49 148.94 150.78 147.87 150.52 146.58 150.42 146.29 150.63 146.16 151.03 
M 150.96 193.38 150.94 192.75 151.26 192.06 154.51 189.24 155.79 188.72 156.43 189.05 
M 160.32 137.84 159.87 137.25 158.97 134.8 157.92 132.61 157.01 131.19 156.45 129.3 155.92 128.48 
M 110.01 178.88 110.06 178.38 110.3 178.06 111.7 177.18 112.41 176.24 112.57 174.52 112.35 173.64 111.84 172.63 
M 132.56 185.04 132.05 183.06 131.39 181.59 131.37 179.89 
M 120.17 181.98 121.75 179.35 122.26 178.75 124.06 177.44 124.05 176.8 123.76 176.36 
M 150.8 118.88 149.83 119.69 148.04 120.17 
M 147.94 121.13 146.87 121.02 145.05 120.43 
M 151.45 131.07 151.63 128.77 151.84 128.2 152.85 126.89 153.32 125.87 
M 126.51 166.29 125.23 165.44 124.75 164.72 124.33 163.48 123.61 162.71 122.42 161.84 122.18 161.26 
M 163.51 135.53 162.88 134.14 161.19 132.22 155.96 127.62 
M 148.14 184.45 150.94 182.38 151.59 181.71 152.35 180.53 
M 138.22 126.51 137.64 126.2 136.97 125.38 136.27 123.99 136.15 123.15 
M 126.33 184.59 126.06 183.87 126.23 183.57 126.71 183.37 127.72 183.53 
M 164.56 168.09 164.97 167.8 165.61 166.94 166.54 164.85 167.46 163.43 168.14 162.85 170.59 161.4 172.23 160.69 172.96 160.69 
M 160.15 158.05 159.25 157.42 156.99 156.46 155.99 155.8 155.29 155.68 154.03 155.9 
M 121.55 187.78 122.45 185.81 124.05 183.33 125.42 181.58 126.37 181.1 
M 148.35 149.59 146.43 150.15 146.17 150.72 146.16 151.44 
M 151.45 170.17 150.41 169.66 149.92 169.21 149.15 167.91 148.4 166.07 147.35 165.11 
M 169.96 130.07 169.44 131.3 169.19 132.39 169.3 133.73 
M 170.62 131.26 170.21 131.8 169.54 133.54 169.31 133.78 
M 169.14 143.26 168.69 142.04 168.52 141 168.58 139.95 169.18 138.07 168.67 136.4 168.65 135.87 
M 146.28 149.36 146.09 149.97 146.08 151.2 146.49 152.24 
M 114.6 154.62 112.85 152.27 111.83 149.05 109.56 147.54 
M 166.98 167.59 168.22 166.32 169.08 165.74 171.09 164.89 171.99 164.27 
M 121.03 187.53 122.14 184.84 123.02 183.54 124.62 180.34 125.07 179.86 
M 154.38 191.92 156.88 191.1 157.72 191.1 158.21 191.35 
M 150.65 130.95 151.23 128.27 152.08 127.03 152.38 126.09 152.72 125.84 
M 160.28 164.54 161.36 163.66 162.62 160.75 
M 98.72 155.28 96.35 157.37 95.46 159.4 94.97 159.94 94.31 160.36 
M 121.43 157.11 120.84 155.14 121.05 153.71 121.5 152.6 121.98 152.38 122.52 152.51 
M 144.04 186.78 145.04 188.42 147.5 191.2 147.53 191.66 147.27 192.22 
M 120.4 143.18 119.09 143.52 117.29 143.2 116.71 143.36 116.22 143.75 
M 145.61 121.49 144.17 121.25 142.39 121.46 141.77 121.34 
M 164.44 167.86 164.81 167.53 165.34 166.61 166.02 164.31 167.13 162.06 169.02 159.93 170.79 158.65 
M 158.52 187.09 157.1 188.43 156.98 189.26 
M 166.47 172.08 167.31 170.49 168.46 169.13 171.02 167.43 
M 141.77 155.58 143.62 154.29 144.44 154.05 145.01 154.11 
M 124.69 183.49 125.42 182.52 126.16 181.9 128.15 181.5 129.4 181.5 
M 154.8 163.77 153.3 162.52 150.74 161.34 149.71 161.11 
M 131.57 166.14 131 164.75 129.78 162.75 128.81 161.75 127.2 161.13 125.34 160.85 124 160.91 
M 110.57 177.94 111.98 177.03 112.33 176.57 112.59 175.42 112.46 173.9 111.51 171.89 111.37 170.92 
M 120.47 182.94 121.58 181.49 122.35 179.74 122.82 179.14 124.55 177.97 124.63 177.64 124.34 177.12 
M 110.93 150.33 110.56 149.71 109.49 148.56 108.5 147.81 107.3 146.44 106.72 146.11 
M 140.89 183.83 141.48 181.85 141.33 179.76 141.85 178.06 140.96 174.87 
M 159.36 155.72 155.85 154.26 154.63 154.17 152.99 154.91 152.05 156.13 
M 155.02 193.97 157.35 191.98 158.07 191.79 158.24 192.15 
M 125.26 137.91 124.9 137.25 123.99 136.24 123.36 136.08 122.8 136.29 
M 166.29 161.32 166.9 160.39 169.11 158.22 170.04 156.81 171.26 155.56 171.81 155.19 172.38 155.08 172.73 155.38 172.88 155.8 
M 147.23 173.5 147.05 171.81 146.44 169.14 146.08 165.89 145.93 165.13 144.99 162.73 144.88 161.2 
M 148.52 144.31 146.87 145.59 144.89 149.12 144.87 149.68 
M 154.48 168.8 151.81 168.64 151.27 168.24 149.51 166.36 
M 119.09 186.58 119.73 184.33 120.1 183.52 121.07 182.19 
M 158.26 149.52 157.05 150.15 155.93 150.27 154.61 150.14 152.57 149.2 150.74 147.88 150.25 147.75 149.86 147.86 
M 138.13 176.03 137.11 175.96 134.03 176.65 131.82 176.37 130.25 175.83 
M 152.44 193.83 152.55 193.16 153.02 192.76 156.01 191.82 157.11 191.2 
M 156.52 172.41 157.72 171.52 159.84 171.02 160.33 170.66 161.35 169.2 161.87 168.81 
M 122.31 149.3 122.49 151.12 122.76 151.63 123.56 152.34 123.69 152.69 
M 129.69 162.93 128.67 161.89 127.91 161.5 125.28 160.92 123.56 160.91 122.81 160.65 122.46 160.29 
M 122.6 188.2 122.99 186.92 124.1 185.22 125.07 183.19 
M 94.99 167.27 94.83 167.3 
M 161.09 169.43 162.37 168.47 163.6 168.16 164.43 167.77 165.04 167 165.51 165.84 
M 134.15 175.12 133.26 175.36 129.38 175.02 126.87 173.26 
M 146.41 159.94 147.04 159.3 147.29 158.52 146.84 157.08 146.31 156.44 
M 131.5 191.25 132.33 190.75 134.31 190.39 136.56 190.76 137.21 191.22 
M 168.96 137.93 168.58 136.71 168.49 135.14 168.21 134.41 167.55 133.92 166.26 134.18 
M 128.5 185.75 128.09 183.98 127.87 183.63 
M 116.59 171.32 116.23 170.55 116.13 169.81 116.57 168.76 117.29 168.42 118.01 168.38 119.49 168.94 
M 150.15 165.37 149.2 164.6 147.92 164.99 147.5 164.91 147.07 164.57 
M 153.04 177.14 154.41 175.55 154.64 175.46 
M 169.32 172.59 170.34 170.16 
M 116.27 182.07 117.58 181.04 118.07 180.46 118.83 178.85 118.94 178.11 118.87 177.46 118.59 176.87 115.63 172.84 
M 109.31 180.52 110.08 181.41 
M 104.22 176.31 104.22 176.83 104.52 176.62 
M 101.78 173.78 101.56 174.86 102.28 174.29 
M 99.33 171.44 99.08 171.83 98.9 172.89 99.41 172.21 99.9 171.99 
M 96.87 169.14 96.51 169.64 96.25 170.92 96.84 170.02 97.45 169.7 
M 94.47 166.78 93.94 167.45 93.59 168.94 94.27 167.83 95.09 167.36 
M 92.04 164.45 91.37 165.26 90.93 166.97 91.7 165.64 92.64 165.07 
M 89.72 162.01 88.8 163.07 88.28 165 89.13 163.45 90.35 162.67 
M 87.61 159.33 86.23 160.88 85.62 163.03 86.56 161.26 88.15 160.21 
M 109.27 180.76 110.37 180.84 
M 102.53 179.42 103.12 178.9 103.22 179.51 
M 99.1 178.94 99.29 178.54 99.91 177.96 99.8 178.58 99.96 179.1 
M 95.8 178.26 95.96 177.81 96.7 177.02 96.47 177.84 96.59 178.43 
M 92.47 177.6 92.63 177.07 93.5 176.08 93.14 177.1 93.23 177.7 
M 89.05 177.27 89.31 176.33 90.29 175.15 89.81 176.36 89.93 177.34 
M 85.65 176.94 85.98 175.59 87.08 174.21 86.48 175.62 86.62 177.05 
M 82.27 176.59 82.65 174.85 83.87 173.27 83.15 174.89 83.29 176.69 
M 78.89 176.24 79.32 174.11 80.67 172.33 79.82 174.15 79.95 176.31 
M 84.88 180.82 93.26 183.66 98.05 184.95 102.8 186 107.47 186.79 112.18 187.33 121.79 187.9 
M 106.19 184.51 105.2 186.41 
M 112.61 186.77 113.12 186.01 
M 108.69 186.1 108.99 185.11 
M 172.45 123.39 174.45 125.39 
M 170.54 114.77 178.66 122.88 
M 175.31 112.81 180.89 118.39 
M 180.1 110.88 186.23 117 
M 184.94 108.99 192.72 116.77 
M 189.69 107.02 195.02 112.36 
M 194.28 104.89 200.07 110.68 
M 198.98 102.87 205.25 109.14 
M 203.88 101.05 210.43 107.6 
M 209.14 99.59 215.4 105.85 
M 214.81 98.54 223.29 107.02 
M 220.3 97.31 227.45 104.45 
M 225.7 95.98 232.16 102.44 
M 230.74 94.3 236.84 100.4 
M 235.89 92.73 242.29 99.13 
M 241.28 91.4 249.3 99.42 
M 247.04 90.44 253.56 96.96 
M 253.08 89.75 260.93 97.61 
M 259.7 89.65 265.55 95.5 
M 266.57 89.8 271.96 95.19 
M 274.02 90.53 281.38 97.89 
M 282.57 92.36 291.95 101.74 
M 291.96 95.03 300.39 103.45 
M 301.9 98.24 310.25 106.59 
M 312.85 102.47 320.92 110.54 
M 324.13 107.04 331.69 114.59 
M 334.23 110.41 344.02 120.2 
M 343.99 113.45 350.7 120.16 
M 355.3 118.04 363.12 125.85 
M 367.98 123.99 375.44 131.46 
M 380.86 130.15 386.07 135.36 
M 394.92 137.49 400.29 142.86 
M 227.78 292.89 227.66 292.3 227.24 291.7 226.73 291.39 225.53 291.39 224.84 291.7 224.06 292.3 223.58 292.89 223.01 293.8 222.56 295.3 222.71 296.8 223.13 297.39 223.64 297.7 224.84 297.7 225.53 297.39 226.31 296.8 226.79 296.2 
M 233 293.5 231.74 297.7 
M 232.73 294.39 232.31 293.8 231.8 293.5 230.9 293.5 230.21 293.8 229.43 294.39 228.86 295.3 228.68 295.89 228.71 296.8 229.13 297.39 229.64 297.7 230.54 297.7 231.23 297.39 232.01 296.8 
M 235.4 293.5 234.14 297.7 
M 235.04 294.7 236.21 293.8 236.9 293.5 237.8 293.5 238.31 293.8 238.34 294.7 237.44 297.7 
M 241.43 291.39 241.64 291.7 242.03 291.39 241.82 291.1 241.43 291.39 
M 241.1 293.5 239.84 297.7 
M 243.5 293.5 242.24 297.7 
M 242.96 295.3 243.53 294.39 244.31 293.8 245 293.5 245.9 293.5 
M 247.73 291.39 247.94 291.7 248.33 291.39 248.12 291.1 247.73 291.39 
M 247.4 293.5 246.14 297.7 
M 253.1 293.5 251.84 297.7 
M 252.83 294.39 252.41 293.8 251.9 293.5 251 293.5 250.31 293.8 249.53 294.39 248.96 295.3 248.78 295.89 248.81 296.8 249.23 297.39 249.74 297.7 250.64 297.7 251.33 297.39 252.11 296.8 
M 258.5 293.5 256.61 299.8 
M 258.23 294.39 259.01 293.8 259.7 293.5 260.6 293.5 261.11 293.8 261.52 294.39 261.56 295.3 261.38 295.89 260.81 296.8 260.02 297.39 259.34 297.7 258.44 297.7 257.93 297.39 257.51 296.8 
M 263.36 295.3 266.95 295.3 267.14 294.7 267.02 294.1 266.3 293.5 265.39 293.5 264.71 293.8 263.93 294.39 263.36 295.3 263.18 295.89 263.21 296.8 263.63 297.39 264.14 297.7 265.03 297.7 265.73 297.39 266.51 296.8 
M 269.6 293.5 268.33 297.7 
M 269.06 295.3 269.63 294.39 270.4 293.8 271.1 293.5 272 293.5 
M 274.7 293.5 274.01 293.8 273.23 294.39 272.65 295.3 272.48 295.89 272.51 296.8 272.93 297.39 273.44 297.7 274.33 297.7 275.02 297.39 275.81 296.8 276.38 295.89 276.56 295.3 276.52 294.39 276.11 293.8 275.6 293.5 274.7 293.5 
M 279.2 293.5 277.94 297.7 
M 278.65 295.3 279.23 294.39 280.01 293.8 280.7 293.5 281.6 293.5 
M 283.43 291.39 283.64 291.7 284.02 291.39 283.82 291.1 283.43 291.39 
M 283.1 293.5 281.83 297.7 
M 285.5 293.5 284.24 297.7 
M 285.14 294.7 286.31 293.8 287 293.5 287.89 293.5 288.4 293.8 288.44 294.7 287.54 297.7 
M 294.5 293.5 293.24 297.7 
M 294.23 294.39 293.81 293.8 293.3 293.5 292.39 293.5 291.7 293.8 290.93 294.39 290.36 295.3 290.18 295.89 290.2 296.8 290.63 297.39 291.14 297.7 292.04 297.7 292.73 297.39 293.51 296.8 
M 296.12 297.1 295.73 297.39 295.94 297.7 296.33 297.39 296.12 297.1 
"/></svg>
