<svg xmlns="http://www.w3.org/2000/svg" width="520" height="320"><rect x="0" y="0" width="520" height="320" fill="floralwhite"/><rect x="10" y="10" width="500" height="300" stroke="black" stroke-width="1" fill="none"/><path stroke="black" stroke-width="1" fill="none" stroke-linecap="round" stroke-linejoin="round" d="
M 206.13 94.53 212.45 93.77 218.81 92.72 225.18 91.91 231.55 92.22 237.92 93.79 244.28 95.86 250.65 97.46 257.02 98.53 288.85 103.05 301.59 104.09 307.96 104.79 327.06 107.33 333.43 108.84 339.79 110.92 346.16 113.29 352.53 115.77 358.9 118.92 359.79 120.05 
M 359.79 214.7 358.9 215.45 352.53 217.5 346.16 218.91 327.06 222.24 320.69 223.54 301.59 228.29 295.22 229.57 288.85 230.33 282.49 230.28 269.75 228.91 263.39 228.41 257.02 228.21 244.28 228.26 237.92 227.74 231.55 226.86 206.08 222.35 199.72 221.43 
M 359.79 164.68 356.37 163.07 334.48 158.36 330.95 157.67 323.77 156.63 316.55 155.91 306.2 155.31 291.58 155.63 277.92 154.91 272.86 154.79 
M 220.55 147.52 214.16 147.37 
M 206.63 205.05 211.41 209.95 
M 214.15 212.58 216.88 215.12 
M 208.93 200.69 211.61 203.66 
M 219.61 211.92 222.23 214.58 
M 224.84 217.2 226.62 218.95 
M 208.7 193.16 209.32 193.93 
M 211.93 197.06 217.19 203.08 
M 229.97 217.1 232.22 219.41 
M 209.54 186.79 214.87 193.44 
M 217.48 196.6 224.97 205.55 
M 210.27 180.33 214.87 186.43 
M 217.56 189.73 225.17 199.29 
M 230.04 205.3 235.05 211.5 
M 216.31 181.46 222.62 189.33 
M 225.24 192.65 227.71 195.82 
M 230.15 198.87 235.08 205.13 
M 223.96 184.66 230.11 192.19 
M 235.11 198.4 237.6 201.64 
M 240.12 205.03 242.65 208.45 
M 229.49 185.16 232.31 188.46 
M 234.98 191.61 237.54 194.73 
M 247.68 208.44 250.21 211.64 
M 255.27 217.08 257.8 219.49 
M 234.4 184.75 237.21 187.95 
M 250.18 204.93 252.7 208.26 
M 260.33 216.62 262.87 219.15 
M 212.53 147.08 214.36 149.76 
M 239.55 184.58 242.17 187.6 
M 244.88 190.86 247.51 194.25 
M 257.72 207.97 260.29 210.87 
M 212.61 140.27 213.58 141.68 
M 215.96 145.15 218.15 148.39 
M 247.19 187.53 251.2 192.62 255.05 197.96 
M 257.62 201.44 260.19 204.7 
M 265.42 210.65 268.05 213.55 
M 212.65 133.06 213.88 134.9 
M 216.19 138.33 222.05 146.98 
M 252.14 187.64 254.8 191.13 
M 257.41 194.68 260.01 198.19 
M 265.28 204.69 273.32 213.9 
M 212.4 125.63 214.17 128.11 
M 216.57 131.55 226.06 145.54 
M 254.64 184.76 262.36 194.94 
M 265.04 198.38 267.74 201.65 
M 270.46 204.84 273.18 208.04 
M 275.92 211.3 278.63 214.57 
M 212.3 118.84 214.36 121.5 
M 216.91 124.91 222.84 133.35 231.52 146.17 
M 257.84 182.72 264.66 191.54 
M 275.62 205.22 278.4 208.62 
M 211.68 111.9 215.92 116.96 221.03 123.55 228.1 133.56 236.8 146.56 
M 264.03 184.34 266.87 187.92 
M 275.14 198.67 277.88 202.22 
M 210.73 105.4 216.25 111.3 220.22 115.92 
M 222.76 119.07 225.19 122.25 
M 227.55 125.47 229.86 128.74 
M 232.15 132.1 241.38 145.91 
M 265.76 180.1 266.16 180.59 
M 271.84 187.82 274.58 191.54 
M 282.74 202.68 285.56 206.32 
M 208.92 99.45 214.05 103.85 219.3 109.07 224.52 114.89 228.17 119.43 
M 230.51 122.53 233.92 127.32 239.52 135.7 
M 241.8 139.13 246.49 146.03 
M 270.58 179.66 276.67 187.88 
M 284.63 199.33 287.43 203.08 
M 206.6 95.36 209.64 96.91 214.52 100.16 217.04 102.18 222.29 106.96 227.47 112.39 232.28 118.17 236.81 124.31 240.13 129.14 
M 242.34 132.45 250.96 145.22 
M 269.5 171.62 276.22 180.49 
M 297.32 210.15 299.68 213.18 
M 207.67 94.35 212.44 96.13 214.9 97.38 219.93 100.66 225.18 104.98 227.8 107.43 231.56 111.35 
M 233.96 114.08 238.55 119.87 
M 240.77 122.91 255.34 144.24 
M 271.3 167.27 273.45 169.99 
M 276.05 173.42 280.01 178.9 283.66 184.51 
M 288.45 192.12 291.05 195.99 
M 296.53 203.45 299.16 206.85 
M 209.58 94.12 212.65 94.76 215.14 95.53 217.63 96.52 220.15 97.78 225.35 101.1 230.59 105.36 235.58 110.27 240.24 115.64 243.6 119.98 
M 245.81 123 254.67 135.77 
M 263.29 148.85 264.48 150.81 
M 270.6 159.81 271.42 160.81 
M 273.74 163.68 277.46 168.43 281.32 173.76 
M 283.8 177.39 288.33 184.72 
M 293.06 192.32 295.7 196.2 
M 298.4 199.95 301.04 203.48 
M 212.7 94.3 215.25 94.6 217.77 95.11 220.29 95.86 222.85 96.87 225.46 98.16 228.1 99.71 230.74 101.49 235.88 105.68 240.69 110.46 243 113.03 247.51 118.56 251.94 124.52 261.93 138.76 
M 264.04 141.95 269.96 151.37 
M 274.24 157.35 278.97 163.48 
M 288.62 177.62 290.73 181.2 
M 295.21 188.67 297.76 192.56 
M 305.54 203.44 307.92 206.58 
M 217.79 94.63 220.35 94.9 222.92 95.41 225.52 96.18 228.17 97.23 230.84 98.54 233.49 100.09 238.63 103.81 243.43 108.17 248.02 113.09 252.53 118.55 258.02 125.88 
M 260.25 128.94 265.75 136.68 270.72 144.38 
M 272.72 147.47 282.91 161.59 290.99 174.18 
M 293.03 177.69 296.12 183.12 299.83 188.9 
M 305.11 196.57 307.62 200.11 
M 314.6 209.45 316.81 212.41 
M 222.92 94.92 225.54 95.2 228.2 95.75 230.89 96.57 233.58 97.64 237.55 99.71 
M 240.12 101.32 243.83 104.05 246.19 106.07 250.76 110.6 255.25 115.67 261.79 124.01 268.4 132.97 275.39 143.55 
M 284.4 156.14 288.93 163.33 
M 293.16 170.65 295.11 174.15 
M 297.07 177.68 301.74 185.2 
M 312.15 200.11 314.48 203.34 
M 228.19 95.26 230.91 95.58 233.63 96.17 236.34 97 239.01 98.06 241.63 99.33 246.6 102.4 248.95 104.18 253.5 108.26 257.89 112.9 263.25 119.32 
M 265.44 122.07 269.83 127.79 
M 271.94 130.68 280.06 142.81 
M 284.75 149.07 288.13 154.05 291.3 159.55 
M 295.23 166.97 297.99 172.31 301.02 177.69 
M 306.24 185.42 309.1 189.35 
M 311.8 193.15 314.28 196.75 
M 233.62 95.68 236.37 96.03 239.1 96.62 241.78 97.42 246.92 99.61 251.7 102.49 253.98 104.2 258.35 108.13 264.66 114.93 273.31 125.55 277.4 131.39 281.32 137.55 289.48 148.72 
M 293.6 155.79 299.07 166.88 
M 305.21 177.82 313.76 189.58 
M 316.38 193.29 318.81 196.81 
M 239.1 96.14 241.84 96.47 244.52 97.01 247.12 97.74 252.06 99.72 254.4 101 256.66 102.49 258.84 104.16 261.98 106.93 
M 264.03 108.91 269.18 114.38 275.71 122.02 279.86 127.77 282.72 132.4 
M 284.73 135.55 292.87 146.89 294.94 150.35 301.16 163.2 
M 303 166.89 306.04 172.41 307.26 174.3 
M 312.77 182.12 321 193.42 
M 244.53 96.54 247.2 96.81 252.28 97.88 254.69 98.69 258.15 100.39 
M 260.35 101.75 263.52 104.05 265.54 105.75 269.52 109.49 278.2 118.69 281.4 122.83 
M 285.21 128.87 288.12 133.67 294.94 143.43 297.99 148.59 
M 299.81 152.18 303.4 159.58 
M 305.32 163.33 308.49 168.99 312.17 174.76 
M 325.75 193.52 328.24 196.93 
M 259.92 98.93 261.82 99.83 266.04 102.4 270 105.45 272.96 108.1 
M 275.07 110.04 280.81 115.59 283.05 118.15 285.09 120.92 290.64 130.23 297.04 139.96 300.12 145.08 
M 302.01 148.66 307.83 159.83 
M 310 163.66 313.51 169.49 317.42 175.38 
M 322.93 183.07 330.71 193.59 
M 333.33 197 338.74 203.67 
M 266.27 99.79 268.5 100.99 272.44 103.59 278.75 108.58 283.5 112.75 285.78 115.14 287.86 117.76 289.75 120.6 294.24 128.4 
M 296.19 131.6 298.26 134.82 
M 300.35 138.12 304.33 145.16 
M 306.27 148.87 313.83 162.2 317.52 168.13 
M 322.8 175.99 325.47 179.76 
M 272.65 100.68 276.93 103.27 283.76 108.19 286.16 110.18 288.48 112.38 290.6 114.83 292.52 117.52 304.83 138.07 
M 306.84 141.69 313.15 153.06 
M 315.41 156.9 317.76 160.81 
M 320.24 164.76 328.1 176.38 
M 335.87 186.89 338.64 190.36 
M 279.61 101.76 283.98 104.42 288.73 107.87 291.05 109.89 293.2 112.15 295.16 114.67 296.99 117.4 306.39 132.87 313.7 145.88 
M 315.88 149.75 318.13 153.6 
M 320.47 157.44 326.79 167.18 331.96 174.68 335.84 179.97 
M 286.63 102.76 291.2 105.8 293.46 107.65 295.62 109.73 297.65 112.06 299.55 114.63 309 129.6 318.71 146.4 
M 320.92 150.28 323.2 154.1 
M 325.58 157.88 328.06 161.66 
M 333.22 169.16 338.5 176.34 
M 349.89 190.82 352.86 194.61 
M 292.65 103.35 295.78 105.62 297.94 107.53 300.01 109.69 303.89 114.69 310.68 124.94 
M 312.75 128.28 318.31 137.25 326.01 150.7 
M 328.28 154.42 330.65 158.07 
M 333.13 161.74 338.42 169.06 
M 346.66 179.75 349.53 183.47 
M 298.08 103.79 300.2 105.51 302.31 107.5 306.39 112.2 312.44 120.54 320.02 132.16 
M 324.58 139.48 332.17 152.72 336.9 159.94 339.52 163.59 347.96 174.2 352.11 179.79 
M 303.22 104.27 306.76 107.51 308.9 109.81 313.18 114.98 317.44 120.87 322.91 129 
M 327.51 136 336.07 150.93 
M 343.32 161.81 346.15 165.33 
M 349.08 168.82 351.96 172.39 
M 308.63 104.89 311.49 107.5 313.77 109.85 318.26 115.19 322.63 121.19 328.1 129.21 
M 330.36 132.59 333.7 137.87 336.84 143.49 
M 338.91 147.29 343.29 154.72 
M 351.43 165.34 354.42 168.86 
M 314.65 105.71 318.94 109.92 321.26 112.6 325.72 118.4 331.04 126.09 
M 333.19 129.29 335.39 132.63 
M 337.6 136.15 341.78 143.61 
M 346 151.15 348.31 154.81 
M 350.88 158.39 353.72 161.9 
M 320.71 106.42 324.28 110.07 328.81 115.66 333 121.55 338.17 129.35 
M 340.36 132.75 342.54 136.31 
M 346.73 143.73 351.03 151.17 
M 326.97 107.32 329.63 110.22 331.86 112.96 336 118.63 339 123.06 
M 341.02 126.19 345.29 132.92 
M 347.48 136.45 349.61 140.07 
M 351.72 143.74 354.99 149.23 357.36 152.79 359.79 156.04 
M 333.62 108.9 336.93 112.98 341.97 120.03 
M 343.95 123.06 345.96 126.27 
M 348.05 129.61 350.23 133.01 
M 352.45 136.46 356.8 143.53 
M 340.59 111.22 343.94 115.56 346.93 119.92 
M 350.91 126.27 354.09 131.25 359.79 139.68 
M 347.9 113.96 350.9 118.21 355.9 126.12 
M 358.05 129.36 359.79 131.81 
M 355.3 117.14 359.79 124.06 
M 215.09 94.47 209.83 94.51 206.35 94.92 
M 220.19 94.77 217.61 94.74 214.99 94.93 212.3 95.31 207.22 96.45 
M 225.37 95.07 222.73 95.03 220.11 95.24 217.46 95.68 211.94 97.13 208.32 98.39 
M 230.73 95.45 228 95.37 225.31 95.55 222.63 96 217.19 97.56 212.88 99.24 
M 209.9 100.55 209.62 100.68 
M 236.19 95.89 233.43 95.79 230.67 95.94 227.92 96.35 225.19 97.03 222.46 97.94 218.24 99.73 
M 215.32 101.11 210.43 103.68 
M 241.66 96.34 238.9 96.24 236.12 96.38 233.34 96.76 230.56 97.41 227.8 98.32 225.03 99.48 219.33 102.41 211.07 107.38 
M 247.04 96.68 241.58 96.81 238.79 97.2 235.99 97.83 233.2 98.72 230.42 99.87 227.63 101.28 221.93 104.68 217.39 107.64 
M 214.31 109.77 211.66 111.77 
M 248.76 96.98 244.2 97.59 241.41 98.24 238.6 99.12 235.8 100.26 233.02 101.65 227.42 105.15 216.95 112.76 
M 213.93 115.28 212.18 116.85 
M 251.01 97.52 246.73 98.55 243.95 99.47 241.15 100.61 238.35 102 235.56 103.63 229.97 107.57 224.13 112.14 221.09 114.58 216.56 118.57 
M 213.67 121.47 212.46 122.78 
M 254.05 98.03 249.18 99.68 246.4 100.88 243.61 102.28 240.81 103.92 235.24 107.86 228.09 113.78 
M 225.11 116.35 220.57 120.41 217.62 123.34 213.46 128.11 
M 257.36 98.58 254.24 99.73 251.54 100.99 245.97 104.12 240.4 108.08 233.38 114.06 
M 230.47 116.67 222.98 123.66 220.03 126.69 217.19 129.89 213.1 134.89 
M 261 99.08 256.51 101.01 253.82 102.49 248.27 106.11 245.47 108.21 239.92 112.96 229.82 122.5 
M 226.81 125.43 222.34 130.02 219.48 133.27 212.56 141.85 
M 264.6 99.57 261.31 101.04 256.03 104.19 250.52 108.27 244.96 113.06 233.55 124.18 224.64 133.41 219.01 140.07 212.54 148.34 
M 268.05 100.02 263.4 102.45 258.17 106.05 252.75 110.59 248.59 114.43 
M 245.79 117.14 240.1 122.89 
M 237.21 125.88 234.29 128.94 
M 231.36 132.06 226.99 136.89 222.75 141.91 
M 220.05 145.29 217.42 148.65 
M 271.3 100.48 267.94 102.34 265.42 103.99 262.86 105.89 257.62 110.45 246.57 121.49 236.5 132.27 
M 233.63 135.49 224.7 146.03 
M 274.37 100.93 269.88 103.76 267.38 105.64 262.3 110.16 248.74 124.54 238.72 135.68 
M 233.09 142.3 230 146.01 
M 277.52 101.42 274.28 103.46 271.8 105.31 266.83 109.76 264.35 112.38 245.18 134.15 234.86 146.45 
M 280.8 101.96 276.3 104.95 273.74 107 271.27 109.31 268.84 111.89 258.7 124.26 247.39 137.52 239.92 146.58 
M 213.09 180.11 211.05 183.34 
M 284.31 102.46 281.08 104.61 278.44 106.6 275.83 108.85 273.31 111.36 270.89 114.15 264.8 122.15 
M 262.21 125.55 245.37 146.16 
M 216.52 181.55 213.49 186.56 
M 288 102.94 283.39 106.24 280.72 108.42 278.07 110.86 275.49 113.57 273.01 116.55 263.1 130.34 251.2 145.16 
M 216.12 189.84 214.82 191.73 210.36 197.22 
M 291.91 103.29 285.75 108.05 281.74 111.72 
M 276.48 117.51 275.21 119.09 271.59 124.28 
M 269.15 127.91 265.28 133.42 261.12 138.82 
M 258.32 142.38 256.66 144.48 
M 223.42 185.63 221.28 189.42 
M 218.78 193.12 212.98 200.29 
M 209.97 203.86 207.02 207.45 
M 295.79 103.6 293.08 105.72 288.1 110.05 282.69 115.41 279.99 118.47 277.4 121.78 274.93 125.28 268.68 134.57 
M 265.99 138.32 259.2 147.25 
M 228.4 185 228.24 185.29 
M 226.18 189.07 223.9 192.75 
M 209.71 210.21 206.85 213.67 
M 299.6 103.92 295.26 107.59 290.33 112.28 284.84 117.99 282.1 121.2 279.48 124.61 269.34 139.49 265.22 145.23 
M 233.35 184.53 233.15 184.89 
M 231.03 188.62 228.78 192.33 
M 221 202.75 218.17 206.1 
M 303.4 104.29 299.67 107.51 294.93 112.1 289.61 117.65 284.04 124.11 281.41 127.59 271.25 142.56 265.1 151.11 
M 238.14 184.48 238.12 184.51 
M 235.92 188.1 231.25 195.43 
M 228.73 198.98 223.45 205.64 
M 307.29 104.72 304.05 107.5 299.32 112.06 294.19 117.47 288.6 123.78 283.26 130.68 277.1 139.84 
M 274.52 143.71 271.81 147.63 
M 269.04 151.5 268.51 152.21 
M 242.68 184.95 238.56 191.23 
M 233.69 198.5 231.14 202.01 
M 228.53 205.33 225.89 208.51 
M 311.27 105.25 308.6 107.51 303.66 112.13 297.27 118.88 
M 294.53 121.98 287.67 130.35 285.17 133.85 277.94 144.85 272.24 152.95 
M 245.87 187.52 243.52 190.89 
M 241.12 194.41 238.66 198.06 
M 236.14 201.68 230.98 208.35 
M 315.53 105.82 308.13 112.24 302.99 117.38 298.99 121.83 
M 296.26 125.06 290.93 131.88 
M 288.46 135.32 280.19 147.93 276.04 153.74 
M 243.65 197.8 241.15 201.45 
M 238.62 205.02 236.05 208.35 
M 320.12 106.35 315.76 109.86 310.16 114.88 307.47 117.48 303.45 121.74 
M 300.76 124.85 296.75 129.89 294.2 133.39 285.08 147.29 279.72 154.9 276.87 158.63 271.24 165.22 
M 259.36 181.96 257.89 184.36 
M 255.73 187.75 251.11 194.34 
M 238.55 211.59 235.99 214.49 
M 324.75 107 321.02 109.97 315.07 115.05 309.4 120.37 306.66 123.21 303.96 126.29 298.74 133.1 296.32 136.61 290.88 145.24 
M 288.59 148.75 286.07 152.42 
M 283.38 156.2 277.82 163.44 
M 272.23 169.96 269.59 173.32 
M 265.17 180.2 262.76 184.34 
M 260.6 187.9 256.04 194.6 
M 251.19 201.41 248.69 204.97 
M 243.61 211.72 241.06 214.7 
M 329.19 107.84 317.2 117.94 311.37 123.44 308.61 126.35 305.92 129.5 300.8 136.37 295.25 145.13 
M 293.1 148.62 284.34 161.54 281.65 165.14 274.81 173.36 
M 272.25 176.79 270.78 178.96 
M 270.35 179.67 267.71 184.19 
M 263.3 191.5 256.16 201.47 
M 333.35 108.82 319.31 120.99 313.4 126.71 310.64 129.72 305.34 136.3 302.82 139.79 299.39 145.06 
M 297.24 148.58 289.16 161.44 286.67 165.19 282.76 170.39 
M 280.09 173.67 277.46 176.98 
M 270.54 187.82 265.99 195.04 
M 337.06 110.03 321.44 124.15 315.53 130.14 311.39 134.92 
M 308.68 138.22 304.76 143.37 302.37 146.87 297.93 153.94 291.28 165.19 288.94 168.88 286.49 172.35 282.6 177.32 
M 277.65 184.22 275.43 187.85 
M 273.28 191.5 269.89 196.81 267.48 200.07 261.24 207.82 
M 340.63 111.23 326.65 124.41 320.63 130.5 312.09 140.29 309.33 143.65 305.43 148.81 
M 303.04 152.29 299.66 157.64 292.2 170.66 
M 289.93 174.17 284.95 180.99 
M 282.48 184.46 280.18 188.02 
M 278.04 191.63 275.92 195.19 
M 273.72 198.58 271.38 201.75 
M 268.91 204.76 266.38 207.72 
M 263.82 210.7 261.25 213.73 
M 344.07 112.51 331.8 124.55 324.39 132.4 
M 321.48 135.7 311.39 147.47 306.11 154.26 301.39 161.36 293.12 175.92 284.82 188.23 
M 278.58 198.86 277.54 200.53 274.08 205.06 
M 266.4 213.53 263.79 216.4 
M 347.47 113.8 333.86 127.68 314.93 149.64 
M 312.17 152.96 308.14 158.02 304.38 163.29 
M 302.1 166.88 298.02 174.07 
M 293.96 181.25 289.39 188.42 
M 285.22 195.7 283.29 199.22 
M 350.86 115.12 341.77 124.6 335.99 130.93 327.36 141.45 317.14 153.49 
M 314.38 156.79 311.64 160.15 
M 306.36 167.03 302.88 172.28 300.9 175.83 297.18 183.15 293.96 188.6 
M 291.8 192.26 287.91 199.53 
M 354.19 116.59 340.95 131.06 329.46 145.28 319.42 157.34 
M 316.66 160.68 309.82 169.11 307.27 172.49 305.04 175.95 301.47 183.29 298.57 188.82 
M 296.47 192.49 292.49 199.76 
M 288.86 206.6 287.93 208.21 285.83 211.17 283.48 213.86 282.2 215.1 
M 357.44 118.2 345.88 131.23 330.1 150.86 
M 327.27 154.38 316.31 167.99 
M 313.57 171.31 309.74 176.3 307.68 179.83 303.21 189.06 
M 299.11 196.36 292.53 208.5 290.6 211.64 289.52 213.07 
M 359.79 120.81 353.68 127.89 348.07 134.7 339.44 145.43 329.61 158.05 
M 326.97 161.61 321.63 168.59 
M 316.16 175.23 313.69 178.56 
M 307.88 189.31 303.83 196.55 
M 297.88 206.89 296.02 210.18 
M 359.79 126.35 341.49 149.22 335.96 156.32 332.05 161.74 
M 329.5 165.41 326.92 169.02 
M 324.25 172.51 317.66 180.81 314.49 185.98 
M 312.55 189.54 310.57 193.13 
M 308.48 196.68 304.27 203.48 
M 296.35 216.28 294.14 219.09 
M 359.79 132.32 340.95 156.45 330.8 171.02 326.86 176.32 
M 324.21 179.68 320.47 184.65 310.88 200.13 
M 304.59 209.84 302.58 213.01 
M 300.56 216.09 298.43 219.02 
M 359.79 138.54 345.96 156.57 339.75 165.42 
M 337.22 169.11 330.71 178.25 324.34 186.65 
M 322 190 319.77 193.41 
M 315.37 200.13 308.89 209.61 
M 302.59 218.75 300.61 221.32 
M 359.79 144.84 351.05 156.63 341.24 170.8 334.55 179.97 
M 331.92 183.45 324.46 193.51 
M 322.14 196.87 317.64 203.35 
M 313.28 209.46 311.1 212.46 
M 359.79 151.44 355.01 158.34 
M 352.59 161.89 345.3 172.47 
M 342.6 176.18 326.89 196.92 
M 319.87 206.49 317.65 209.47 
M 359.79 158.74 354.41 167.1 348.03 176.04 
M 345.31 179.74 341.26 185.17 334.5 193.65 
M 329.33 200.26 326.84 203.48 
M 324.42 206.59 322.09 209.59 
M 359.79 166.89 354.79 174.25 345.46 187 
M 342.74 190.46 331.82 203.54 
M 322.04 215.47 320.51 217.33 
M 359.79 174.74 352.33 185.42 347.04 192.43 344.26 195.74 337.15 203.64 
M 331.71 209.82 329.13 212.8 
M 359.79 182.54 355.25 189.34 352.68 192.81 349.98 196.13 345.68 200.81 
M 342.75 203.82 339.83 206.83 
M 359.79 190.77 355.58 196.62 352.85 199.76 348.46 204.14 
M 342.54 209.91 339.68 212.84 
M 359.79 198.51 357 201.78 
M 354.15 204.64 348.22 210.12 
M 359.79 205.13 353.9 210.59 
M 237.92 93.79 237.92 93.79 
M 244.6 95.94 260.3 73.6 262.84 72.34 264.81 70.5 266.6 68.49 268.67 66.75 273.13 63.61 273.96 60.75 274.94 58.19 275.64 55.35 275.88 52.04 276.74 49.36 278.08 47.16 281.52 43.11 282.79 40.59 284.67 38.66 287.46 37.65 289.58 35.97 292.04 34.66 293.89 32.73 295.22 30.28 297.7 30 300.93 31.63 304.01 32.9 307.27 33 309.73 32.31 311.3 34.24 312.57 37.05 314.76 38.48 316.32 36.45 318.91 35.44 321.73 36.47 321.22 38.63 321.07 44.5 320.38 46.83 319.2 48.67 318.9 51.16 320.53 57.3 322 61.03 321.82 63.42 321.4 65.57 320.24 66.98 320.16 69.48 320.55 72.77 320.22 75.36 320.84 79.55 314.75 105.73 
M 307.96 104.79 307.96 104.79 
M 242.18 95.17 244.8 94.64 247.11 93.29 252.53 87.1 253.63 83.58 254.43 81.76 
M 246.49 96.41 248.62 95.17 251.49 91.06 252.59 88.95 254.32 86.3 257.95 81.86 259.56 79.29 261.82 77.35 262.83 75.33 
M 250.84 97.49 252.87 96.02 254.26 94.09 255.23 91.76 256.41 89.64 260 85.34 261.56 82.24 266.08 75.94 268.33 71.21 271.49 67.34 
M 255.26 98.24 257.2 96.63 258.89 94.17 259.82 92.25 260.95 90.73 264.08 85.6 268.92 76.08 269.43 74.15 270.26 71.92 272.41 70.19 274.5 68.1 275.74 66.13 276.27 62.72 277.3 60.51 277.06 58.74 277.56 56.71 279.3 53.07 279.7 49.94 280.87 47.19 282.3 44.67 285.5 40.34 
M 259.69 98.9 261.84 97.11 263.46 94.73 266.5 88.37 267.61 85.32 269 82.95 270.75 80.49 271.17 78.38 271.9 76.57 273.51 74.96 274.67 72.66 276.35 70.59 277.82 67.89 280.11 65.4 
M 264.14 99.51 266.11 97.42 268.61 93.21 269.53 90.77 270.91 88.37 271.61 85.69 272.72 83.12 276.34 77.59 280.77 68.98 282.35 67.18 284.4 62.94 
M 268.58 100.09 270.18 98.18 271.6 95.97 276.73 86.63 278.34 84.68 280.86 80.53 281.31 77.75 284.81 71.1 286.25 69.36 286.39 67.9 287.45 66.2 288.45 63.58 289.89 61.61 291.35 58.98 291.91 56.48 292.96 54.14 294.84 52.14 296.78 48.58 296.89 45.85 298.98 43.25 301.66 41.84 303.39 39.79 303.61 36.82 
M 273.02 100.73 274.99 98.83 276.72 96.6 282.88 85.66 284.15 83.83 286.82 78.51 287.77 75.58 289.16 73.45 289.98 71.52 290.7 68.52 291.53 66.27 292.84 64.56 295.06 62.22 297.4 61.08 297.93 55.63 298.95 53.03 301.09 49.41 301.86 47.23 
M 277.45 101.41 279.71 99.88 281.33 98.13 289.48 84.05 290.29 81.46 291.55 79.16 293.62 76.51 294.16 74.51 295.73 71.98 296.53 70.35 298.23 68.34 299.89 65.36 301.93 63.06 302.28 58.49 
M 281.88 102.13 284.09 100.77 285.72 98.79 288.23 94.65 291.54 90.91 294.11 84.75 294.69 82.3 295.65 80.36 297.43 77.71 300.14 72.47 302.06 70.38 303.42 68.53 305.02 66.02 306.5 63.2 307.25 61.54 306.67 59.39 307.48 56.73 
M 286.32 102.72 288.27 101.27 289.99 99.46 292.5 95.43 294.45 93.02 295.75 90.54 297.4 88.2 298.22 85.7 298.73 83.29 300.24 81.17 300.93 78.75 302.49 76.08 305.09 70.94 
M 290.78 103.2 292.68 101.86 295.42 97.86 297.26 95.58 300.2 90.76 301.77 86.05 303.23 83.9 303.51 82.05 305.88 79.48 306.45 77.13 306.94 73.65 307.86 71.13 314.84 62.88 315.77 60.48 315.6 60.31 315.41 57.68 316.69 55.42 
M 295.25 103.55 297.25 102.5 298.58 100.52 299.78 98.33 301.76 96.06 303.22 93.91 304.31 91.08 306.82 86.43 308.34 84.21 309.45 81.84 310.45 79.1 310.65 76.25 311.05 74.62 
M 299.71 103.93 301.94 103.02 303.59 101.22 305.51 98.39 307.92 94.32 308.63 92.83 310.16 90.9 311.81 87.98 313.07 85.45 314.35 81.59 
M 304.18 104.38 306.7 102.78 308.65 100.55 310.85 98.89 315.19 92.1 317.25 89.47 
M 212.54 148.93 228.34 143.57 228.66 144.41 212.66 151.37 
M 212.77 153.68 262.57 142.62 262.79 143.49 212.81 156.58 
M 212.77 158.63 280.99 152.37 281.08 153.26 212.72 161.58 
M 212.59 163.56 279.1 166.23 279.08 167.13 212.4 166.48 
M 212.27 168.4 278.41 179.84 278.27 180.73 211.94 171.32 
M 211.73 173.17 258.22 187.93 257.96 188.79 211.3 176.02 
M 210.83 178.01 228.15 186.6 227.78 187.42 210.24 180.48 
M 226.11 145.52 232.93 146.33 239.72 146.59 243.1 146.42 246.47 146.03 249.83 145.46 256.53 143.96 
M 256.8 145.05 259.92 147.88 263.28 150.21 265.09 151.1 267 151.81 268.99 152.34 273.13 153.09 
M 273.25 154.22 271.71 156.64 270.7 159.15 270.5 160.45 270.51 161.79 270.71 163.15 271.45 165.93 
M 271.42 167.06 270.14 169.55 269.68 170.81 269.4 172.07 269.34 173.35 269.82 175.93 270.85 178.54 
M 270.67 179.65 266.28 180.02 262.08 180.89 260.08 181.62 258.16 182.54 256.3 183.64 252.7 186.17 
M 252.38 187.26 246.52 185.69 240.62 184.65 237.65 184.44 234.67 184.45 231.67 184.64 225.65 185.36 
M 258.34 146.5 261.56 149.13 263.28 150.21 265.09 151.1 267 151.81 271.04 152.75 
M 238.82 151.01 240.9 152.72 242.02 153.43 244.44 154.46 247.07 155.08 
M 272.44 155.42 271.11 157.88 270.7 159.15 270.5 160.45 270.51 161.79 271.04 164.53 
M 247.98 158.07 247.12 159.67 246.85 160.49 246.73 162.21 247.07 163.99 
M 270.75 168.3 269.68 170.81 269.4 172.07 269.34 173.35 269.49 174.63 270.3 177.23 
M 246.88 167.69 246.18 169.32 246 170.14 246.06 171.81 246.59 173.5 
M 268.46 179.8 264.15 180.37 262.08 180.89 260.08 181.62 258.16 182.54 254.48 184.87 
M 231.55 226.86 234.68 229.68 237.33 231.66 241.97 236.8 244.32 238.94 246.45 240.38 248.19 241.91 250.53 244.92 252.66 247.16 254.06 248.05 253.62 258.22 252.39 260.42 249.6 264.5 245.99 268.25 243.7 269.76 241.62 271.48 234.42 280 234.52 276.96 234.15 274.01 233.71 272.63 231.31 266.83 230.23 262.13 232.2 255.11 232.61 252.44 231.64 249.19 230.19 246.21 228.48 237.85 227.33 234.91 225.18 225.79 
M 229.78 226.56 236.84 234.91 239.5 237.25 242.6 242.16 244.45 244.25 245.46 246.62 247.41 249.48 249.87 252.37 250.8 254.3 
M 228.01 226.26 229.79 229.16 231.32 232.11 233.18 235.27 234.97 237.91 236.93 240.3 238.21 242.49 239.29 246.08 239.54 249.3 239.45 251.73 240.87 254.22 
M 226.24 225.97 228.3 232.15 231.07 238.16 232.95 240.81 233.87 243.07 234.17 246 234.9 248.86 234.73 252.65 235.4 254.86 236.64 257.08 237.41 259.04 
M 339.79 220.07 342.56 224.45 344.99 227.18 347.09 230.3 348.32 240.52 349.59 244.03 350.09 246.92 349.59 252.74 348 254.8 345.96 256.44 340.57 255.52 336.07 255.76 333.63 255.33 324.92 255.95 322.16 255.5 319.68 255.34 318.28 255.08 313.77 252.74 310.68 251.35 305.57 250.19 298.39 241 296.44 238.8 294.04 235.01 288.85 230.33 
M 335.37 220.81 341.94 229.53 
M 330.95 221.56 338.27 230.81 341.5 236.15 342.74 237.74 345.76 240.09 
M 326.54 222.35 331.95 228.68 333.37 231.95 335.68 234.86 337.71 236.79 
M 322.14 223.24 324.78 226.77 326.41 229.73 330.17 235.5 332.91 237.4 335.71 240 339.62 244.35 341.11 247.33 341.49 248.65 343.54 252.13 345.59 256.19 
M 317.77 224.23 324.27 233.47 326.05 236.38 327.93 238.89 331.1 241.34 333.89 243.93 335.39 245.81 336.28 248.36 337.58 250.69 
M 313.42 225.29 316.33 228.81 319.24 231.18 321.13 234.09 322.49 237.01 323.98 239.19 
M 309.08 226.42 312.3 230.09 318.86 236.34 320.29 238.77 322.2 241.14 
M 304.73 227.51 310.42 234.31 312.19 236.69 313.65 239.05 315.27 240.03 319.57 244.58 321.87 247.78 323.71 250.87 
M 300.36 228.54 303.24 232.96 307.4 238.18 308.6 240.85 310.41 243.17 
M 295.97 229.42 298.93 233.37 300.94 236.42 304.98 240.44 306.09 243.35 
M 291.52 230.01 294.86 234.11 296.71 237.44 299.02 239.9 300.66 241.9 
M 358.9 118.92 362.12 118.56 364.8 117.28 369.51 114.1 372.59 112.68 374.97 111.19 376.76 109.75 378.46 108.61 380.76 107.74 384.05 107.32 386 105.53 388.95 104.65 395.35 101.87 397.99 99.4 402.19 96.79 409.91 99.71 413.19 101.28 417.83 104.63 424.91 111.74 427.82 113.5 429.96 115.33 438.17 124.26 444.87 131.21 446.56 133.51 452.85 142.66 453.47 144.57 453.78 146.19 456.41 152.16 455.2 153.46 455.01 155.78 455.47 158.76 454.99 160.85 455.14 163.59 455.9 166.94 455.84 169.46 456.15 172.38 455.4 174.47 454.88 176.79 455.94 180.68 455.54 183.42 454.89 186.11 452.41 190.33 450 198.02 447.49 202.54 446.37 205.09 444.71 210.8 442.56 216.07 440.91 218.13 438.61 219.55 435.86 224.39 433.68 226 431.86 227.98 430.66 230.58 427.09 234.61 424.31 235.42 421.99 236.62 420.14 238.3 417.11 238.82 411.88 240.91 409.54 242.41 402.46 244.46 399.76 242.13 397.54 239.73 394.85 239.08 389.9 234.9 387.8 234.38 382.81 230.69 380.59 229.68 377.19 228.79 374.23 226.47 371.41 224.81 368.88 222.9 366.87 221.03 364.97 219.53 362.42 218.14 358.9 215.45 
M 364.74 122.75 367.4 121.75 369.79 120.17 377.59 115.88 381.03 114.62 383.45 113.4 384.28 112.72 387.41 112.5 390.03 111.07 392.19 110.21 394.6 108.89 396.29 106.53 397.93 104.9 
M 367.5 126.84 370.35 125.56 372.95 124.65 375.31 123.3 377.86 122.14 380.28 120.32 383.68 118.95 386.41 118.79 387.96 118.2 
M 358.9 133.4 362.25 133.05 365 132.51 367.45 131.7 372.7 130.62 377.52 127.36 379.84 126.36 383.35 125.65 386.51 125.44 391.83 123.92 394.22 123.65 395.75 122.98 397.59 121.9 403.95 119.6 406.94 117.82 411.6 115.54 414.12 115.06 
M 364.77 137.26 370.01 136.49 372.15 135.42 375.19 134.26 378.59 133.2 381.58 132.72 386.83 130.53 391.26 130.1 394.39 128.51 397.12 127.65 
M 362.1 142.73 371 141.5 373.57 141.39 376.29 140.89 381.34 138.75 391.4 135.61 393.99 135.41 396.45 135.75 399.24 134.88 
M 358.9 147.88 362.03 148.15 364.9 147.48 367.79 147.09 376.73 146.43 384.04 144.69 388.7 141.91 391.85 142.04 394.74 142.7 397.53 142.69 400.61 142.01 402.55 140.61 405.86 139.75 408.46 139.57 410.91 138.9 
M 358.9 152.71 361.95 153.07 364.87 152.89 370.89 152.06 373.32 152.01 375.91 152.39 381.5 151.28 387.23 149.36 390.67 148.58 392.86 148.83 395.66 148.73 399.07 147.82 401.35 147.75 404.17 148.32 407.02 146.76 410.15 146.13 412.23 145.88 416.04 146.51 419.8 146.62 421.7 145.53 
M 368.42 158.09 377.05 157.55 379.31 156.95 385.77 157.18 388.3 156.06 390.92 155.51 394.06 155.37 397.04 154.99 399.6 154.01 402.82 154.21 405.37 155.73 407.51 156.66 410.47 156.3 412.77 155.35 415.6 154.96 419.21 155.57 420.64 153.66 422.93 153.11 425.06 153.71 427.74 153.06 430.54 152.97 
M 358.9 162.36 362.33 163.17 365.5 163.38 371.41 164.2 377.27 163.73 380.7 163.19 385.89 163.59 388.31 163.47 393.29 162.71 395.14 162.09 398 161.99 400.22 161.7 406.92 162.71 410.13 162.29 412.61 162.3 
M 367.86 168.78 370.27 168.95 376.43 168.83 379.2 169.17 382.11 169.06 385.7 168.6 391.44 168.98 394.42 169.5 399.3 169.61 402.9 169.55 409.16 169.03 
M 365.06 173.53 370.65 174.19 373.49 174.26 376.18 174.77 378.92 174.76 381.77 175.5 384.7 176.04 387.82 176.34 390.07 176.87 392.8 176.47 395.76 176.34 401.22 176.79 407.14 177.71 409.76 178.53 412.3 179.1 415.1 178.95 418.03 179.36 420.71 180.43 423.33 180.39 426.28 179.97 428.66 180.27 
M 365.12 178.22 367.59 178.59 373.18 179.79 378.86 181.83 381.8 182.38 384.55 182.28 387.65 183.25 390.27 183.79 392.28 183.63 394.54 183.19 397.44 183.34 404.06 184.38 406.88 185.58 
M 362.25 183.12 370.91 184.94 376.27 186.43 378.73 187.37 381.88 187.99 385.58 187.67 388.98 188.42 391.57 189.45 393.5 189.18 400.78 191.76 403.78 192.18 406.65 193.27 409.19 193.76 412.3 194.88 415.85 195.22 421.4 196.91 
M 367.97 189.79 371.08 190.78 373.78 192.02 375.93 192.81 378.96 193.17 381.42 194.14 383.89 194.79 393.09 197.69 395.63 198.14 397.7 199.29 400.06 200.25 402.47 200.56 
M 364.91 194.27 368.12 195.34 373.74 197.52 376.47 198.28 378.43 199.35 380.75 200.3 383.55 200.88 386.02 202.06 388.36 202.77 391.44 203.94 393.79 204.94 399.04 208.02 401.86 208.92 407.99 209.96 410.56 211.39 414.34 212.22 416.86 211.22 419.12 211.41 422.19 212.76 424.98 213.73 426.79 215.68 429.58 215.65 433.96 217.8 
M 364.79 199.27 370.62 202.22 373.44 203.29 376.51 203.76 381.82 205.22 385.6 207.65 390.12 209.61 394.23 211.64 396.71 213.11 399.14 213.89 401.62 215.31 403.49 216.96 406.29 217.24 408.94 217.98 413.89 218.69 415.98 220.3 419.18 220.95 
M 358.9 200.97 361.71 203.01 364.78 204.4 367.99 205.47 373.15 208.26 375.9 209.2 378.2 210.32 381.53 211.62 385.02 214.62 387.31 215.5 392.74 218.24 395.94 220.13 398.3 222.39 401.29 223.54 408.15 224.39 412.89 226.44 414.11 228.45 415.75 229.78 
M 364.58 209.54 367.04 210.66 369.67 212.19 375.57 214.58 380.09 217.9 382.55 218.89 385.12 220.64 388.23 222.87 391.11 225.31 397.88 229.18 401.43 229.49 404.68 232.95 406.93 234.7 
M 358.9 210.62 362.17 213.43 364.65 214.95 369.24 216.99 383.3 224.6 
M 327.06 107.33 330.35 111.27 355.07 71.37 357.83 71.48 360.94 71.95 363.31 71.68 364.21 74.35 363.45 76.18 364.2 82.15 364.05 84.1 350.22 116.87 346.16 113.29 
M 331.42 108.37 333.43 106.79 336.24 103.29 337.92 101.95 339.24 100.25 341.08 96.8 341.68 93.96 344.97 88.42 347.12 86.65 350.09 82.31 352.08 80.17 355.7 74.74 
M 335.73 109.59 337.97 108.05 339.72 106.3 345.59 101.18 347.11 98.75 348.38 96.07 350.09 93.54 351.15 92.38 352.76 91.24 354.63 88.63 356.14 85.6 357.36 82.59 358.84 81.1 360.06 78.36 361.45 76.54 
M 339.99 111 342.92 110.05 347.13 106.83 350.73 102.61 352.52 101.1 354.67 98.93 
M 82.51 164.57 83.04 163.54 85.74 159.74 89.32 155.12 93.77 150.52 101.43 146.08 108.98 139.81 116.69 134.38 124.29 129.3 131.09 123.95 139.19 119.75 147.91 115.59 157.7 110.52 175.33 101.87 183.76 98.64 191.48 96.58 198.11 95.19 203.26 94.45 206.09 94.46 210.04 101.43 211.21 108.19 212.05 114.92 212.48 121.64 212.34 128.33 212.77 135.05 212.52 148.43 212.83 155.14 212.71 161.83 212.26 168.5 211.5 175.16 209.93 181.77 209.42 188.44 207.28 201.73 205.99 208.36 204.3 214.97 199.72 221.34 184.25 220.65 172.89 219.35 162.89 217.49 153.75 215.2 138.19 210.27 131.45 207.07 124.6 202.83 117.97 199.04 
M 115.19 197.47 111.51 195.38 105.51 191.07 96.16 183.54 92.57 179.91 89.13 175.93 
M 180.13 139.17 179.48 150.32 178.35 155.45 175.58 164.68 173.98 168.38 173.65 175.59 173.81 179.25 175.48 188.29 174.4 193.33 156.56 193.48 149.42 193.33 142.37 192.87 135.8 191.98 129.41 190.64 123.64 188.14 
M 115.37 197.62 105.66 189.22 100.3 184.91 98.72 183.45 93.33 179.38 81.15 169.41 79.76 167.65 80.11 165.47 82.12 164.42 84.25 165.22 100.52 180.76 105.15 185.59 108.44 188.75 118.1 198.9 
M 117.63 199.62 107.14 195.95 100.76 194.2 92.35 191.52 87.8 190.33 79.18 187.73 66.57 183.3 64.52 182.42 63.58 180.28 64.43 177.95 66.58 177.22 68.73 178.05 72.68 180.1 80.77 183.82 93.57 188.58 101.7 192 107.89 194.33 117.96 198.81 
M 138.14 153.16 136.64 147.49 137.07 141.64 139.37 136.25 143.3 131.89 148.43 129.05 154.2 128.03 160 128.94 165.18 131.68 169.2 135.95 171.61 141.3 172.15 147.14 170.77 152.84 167.61 157.78 163.02 161.42 157.49 163.38 151.62 163.44 146.06 161.59 141.4 158.04 138.14 153.16 
M 137.92 152.66 137.21 150.57 136.75 148.41 136.57 146.21 136.66 144 137.02 141.83 137.65 139.71 138.54 137.69 139.67 135.79 141.03 134.05 142.59 132.49 144.33 131.13 146.23 130 148.25 129.12 150.37 128.49 152.54 128.12 154.75 128.03 156.95 128.21 159.11 128.67 161.2 129.38 
M 139.58 151.97 138.93 150.09 138.53 148.15 138.36 146.17 138.45 144.19 138.77 142.23 139.34 140.33 140.14 138.51 141.15 136.8 143.17 134.44 
M 143.26 134.35 145.34 132.61 147.05 131.6 148.87 130.8 150.77 130.23 152.73 129.91 154.71 129.82 156.69 129.99 158.63 130.39 160.51 131.04 
M 141.24 151.29 140.66 149.62 140.3 147.89 140.16 146.14 140.23 144.37 140.72 141.94 
M 144.31 135.83 146.35 134.09 147.87 133.19 149.48 132.48 151.17 131.98 152.91 131.69 154.68 131.62 156.43 131.76 158.16 132.12 159.83 132.7 
M 142.89 150.6 142.39 149.14 141.95 146.1 142.01 144.56 142.52 142.18 
M 145.55 137.13 147.37 135.57 148.69 134.79 151.58 133.73 153.1 133.47 156.17 133.54 159.14 134.35 
M 144.55 149.91 144.12 148.67 143.74 146.06 143.8 144.74 144.26 142.61 
M 146.91 138.3 148.38 137.06 149.51 136.38 151.98 135.47 153.28 135.26 155.92 135.31 158.45 136.01 
M 147.88 148.77 147.29 146.5 147.55 143.94 
M 149.44 140.82 149.95 140.26 152 139.13 154.31 138.72 156.63 139.08 158.7 140.18 160.31 141.88 161.27 144.02 161.49 146.36 160.94 148.64 159.67 150.62 157.84 152.07 155.62 152.86 153.28 152.88 151.05 152.14 149.19 150.72 147.88 148.77 
M 149.78 140.44 149.54 140.94 
M 147.97 144.07 147.38 145.26 
M 151.71 139.29 150.35 142.01 
M 149.12 144.47 147.57 147.57 
M 153.24 138.9 151.14 143.11 
M 150.15 145.08 148.13 149.14 
M 154.66 138.77 151.95 144.19 
M 151.19 145.7 148.9 150.29 
M 155.9 138.97 152.78 145.21 
M 152.37 146.03 149.79 151.18 
M 157.07 139.31 153.61 146.23 
M 153.57 146.32 150.77 151.93 
M 158.14 139.88 151.87 152.41 
M 159.11 140.61 153.02 152.8 
M 159.99 141.55 154.33 152.87 
M 160.72 142.79 155.69 152.83 
M 161.3 144.32 157.33 152.25 
M 161.36 146.88 159.38 150.85 
M 83.19 163.33 86.6 166.74 
M 85.42 160.18 89.87 164.63 
M 87.76 157.14 92.33 161.71 
M 90.2 154.2 93.73 157.73 
M 92.85 151.47 97.09 155.71 
M 95.99 149.23 98.98 152.22 
M 99.4 147.26 103.43 151.29 
M 102.62 145.1 106.9 149.38 
M 105.56 142.65 110.39 147.49 
M 108.49 140.21 112.7 144.42 
M 111.62 137.95 115.35 141.69 
M 114.77 135.73 119.15 140.11 
M 117.96 133.54 121.24 136.82 
M 121.18 131.38 126.07 136.27 
M 124.39 129.21 127.59 132.41 
M 127.41 126.85 131.37 130.81 
M 130.42 124.48 135.66 129.72 
M 133.84 122.52 138.59 127.27 
M 137.39 120.69 142.7 126 
M 140.98 118.9 143.98 121.9 
M 144.62 117.16 149.02 121.56 
M 148.26 115.42 152.6 119.76 
M 151.8 113.58 156.56 118.34 
M 155.34 111.74 159.17 115.57 
M 158.91 109.93 162.68 113.7 
M 162.53 108.17 166.6 112.24 
M 166.14 106.4 169.97 110.23 
M 169.75 104.63 173.6 108.48 
M 173.35 102.85 177.54 107.04 
M 177.08 101.2 180.89 105.01 
M 180.97 99.71 183.81 102.55 
M 184.96 98.32 189.44 102.8 
M 189.21 97.19 192.33 100.31 
M 193.55 96.15 196.91 99.51 
M 198 95.22 201.57 98.79 
M 202.69 94.53 206.85 98.69 
M 126.14 169.35 127.72 168.18 128.7 167.7 132.27 163.98 132.52 163.41 
M 206.66 95.48 205.78 95.71 205.38 96.04 204.28 98.42 
M 155.82 213.9 155.58 214.62 154.95 215.5 
M 156.91 210.69 156.05 210.92 155.22 211.59 153.94 214.21 153.34 215.08 
M 137.85 120.45 137.88 120.58 
M 196.7 213.3 196.97 213.14 197.12 212.59 
M 115.07 186.35 114.3 185.88 113.78 185.11 113.35 184.08 113.02 182.12 112.72 181.52 112.23 181.07 
M 153.38 170.25 152.44 171.86 149.28 173.47 148.17 173.33 147.66 172.95 146.92 171.71 
M 173.75 147.35 174.22 147.95 175.53 150.75 175.89 152.91 175.82 153.39 
M 175.11 113.27 167.09 112.55 166.41 112.74 164.94 113.62 
M 132.94 132.95 131.4 133.53 130.57 133.63 124.84 132.86 122.59 133.45 
M 195.67 188.2 195.09 187.49 195.29 185.81 194.74 183.34 
M 210.3 161.98 209.64 161.44 209.23 161.3 206.52 160.84 205.82 161.1 
M 191.02 157.41 192.32 158.97 193.58 160.99 194.15 163.35 193.99 164.84 192.92 167.49 
M 128.68 174.83 128.6 173.47 129.98 170.99 131.07 168.62 131.44 166.54 
M 110.18 144.07 112.82 145.83 113.34 145.94 115.24 145.87 116.31 146.3 117.21 147.01 
M 208.97 191.41 208.36 191.95 207.29 192.11 
M 194.17 167.43 192.82 170.04 192.54 170.4 191.12 171.38 
M 125.38 147.67 123.46 145.16 121.69 145.03 
M 184.02 141.83 183.64 143.29 183.25 143.84 181.45 145.13 180.06 145.59 175.34 145.77 
M 187.54 113.28 185.41 113.28 184.31 113.05 180.5 111.03 179.04 110.53 177.23 110.18 175.68 110.4 
M 119.75 141.33 117.52 141.47 115.57 141.25 114.78 141.74 114.15 142.85 
M 193.04 203.56 194.59 207.68 196.44 210.72 196.79 211.8 
M 138.31 159.68 136.09 158.24 133.72 156.12 132.89 155.63 130.2 155.17 127.85 154.39 125.78 153.92 
M 119.92 191.89 119.98 191.17 119.72 190.38 118.85 189.27 117.93 188.76 116.26 188.24 113.38 186.84 
M 109.93 194.25 110.42 193.41 
M 111.12 191.64 111.08 190.01 110.76 188.81 110.54 188.37 109.83 187.7 
M 125.62 184.12 127.23 189.14 127.97 190.23 129.94 192.17 
M 111.74 154.36 111.7 153.07 111.01 147.91 111.15 147.54 111.42 147.35 112.37 146.98 
M 183.81 133.69 182.7 133.7 179.77 132.66 176.04 132.45 175.14 131.86 
M 124.49 177.97 125.64 176.79 
M 136.72 147.78 135.53 147.81 133.83 147.6 
M 182.13 141.07 181.98 142.89 181.65 143.83 181.12 144.58 180.52 145.08 179.77 145.42 175.12 145.73 
M 199.39 205.27 200.67 204.78 202.56 204.43 204.27 203.31 204.72 202.86 
M 208.74 179.29 206.93 178.64 205.05 178.66 203.25 178.32 201.73 178.47 
M 127.13 173.16 128.14 172.09 129.95 169.27 132.08 164.43 
M 156.6 199.75 156.03 198.19 154.01 195.36 152.13 193.78 150.91 192.23 150.4 191.96 
M 116.65 160.57 118.03 162.44 118.75 162.97 120.31 163.7 121.84 165.14 122.34 165.21 
M 126.52 191.73 128.29 194.11 129.52 196.35 129.89 197.58 131.21 199.59 
M 95.53 162.69 94.55 163.33 93.03 165.03 91.76 166.05 89.66 167.36 89 167.47 
M 136.39 184.66 131.5 181.97 129.73 181.54 128.86 181.79 
M 205.2 122.84 204.48 125.33 203.47 126.01 202.57 125.94 200.16 124.54 
M 89.36 158.6 86.38 160.98 84.01 162.17 
M 174.13 176.69 174.31 176.09 
M 104.67 190 104.69 189.11 104.49 188.32 
M 104.08 184.42 104.72 182.58 
M 144.37 204.59 143.75 204.99 139.57 206.29 138.74 206.7 135.73 209.11 
M 197.41 150.25 196.5 151.06 196.67 151.97 
M 190.36 121.23 188.6 121.12 187.08 120.69 185.13 119.26 181.97 116.56 179.81 115.17 178.66 114.67 
M 204.92 155.69 204.79 156.34 203.74 158.12 203.7 159.05 
M 188.41 206.14 191.68 208.83 194.31 212.37 196.25 213.85 196.74 213.94 
M 149.07 172.85 148.01 172.46 147.62 171.99 146.87 169.93 146.92 167.04 146.8 165.86 146.88 165.36 147.42 164.63 
M 197.43 166.22 195.43 167.8 193.87 170.36 192.71 171.12 191.56 171.33 
M 158.39 127.35 157.9 125.89 157.58 125.56 
M 200.59 117.12 200.57 115.47 201.35 112.43 201.64 111.81 202.35 111.45 
M 193.98 136.43 193.47 134.18 193.36 133.33 193.46 131.59 193.27 130.83 192.92 130.18 191.79 128.84 191.04 128.23 190.15 127.78 
M 188.83 159.89 190.41 161.73 190.95 162.73 191.01 163.5 190.46 165.14 190.35 166.01 190.46 166.83 191.07 168.04 
M 187.12 182.07 186.42 181.12 185.66 179.44 184.96 176.63 184.41 175.09 183.98 174.45 181.29 173.07 
M 169.26 180.46 169.02 180.2 168.59 180.09 167.08 180.53 164.67 180.51 
M 155.12 115.82 156.77 115.75 157.41 115.79 157.73 115.96 157.97 117.1 157.84 117.96 157.63 118.28 
M 198.48 95.66 197.88 96.45 196.19 97.05 194.19 98.53 193.69 98.64 192.54 98.51 
M 141.44 171.83 141.49 170.46 140.94 168.98 138.82 165.6 137.63 164.42 
M 179.8 200.26 179.67 200.63 179.2 200.89 
M 128.75 141.25 128.1 142.79 128.04 143.59 
M 187.02 166.84 186.93 166.68 
M 144.63 174.4 143.76 172.99 143.24 170.35 142.8 169.13 142.22 168.02 141.21 166.73 
M 166.07 216.89 162.45 213.97 161.49 213.45 160.55 213.19 159.51 213.13 158.92 213.35 158.4 213.77 
M 177.58 210.34 175.21 210.14 173.32 210.6 170.35 211.6 168.43 211.68 166.83 211.36 
M 116.33 157.43 117.12 157.85 120.29 160.31 122.19 161.46 123.31 162.58 
M 208.13 132.49 209.06 130.8 209.95 130.04 211.33 129.45 212.43 129.75 
M 141.96 183.88 141.37 184.31 139.87 184.95 137.99 185.07 133.01 182.49 130.66 180.94 
M 135.55 173.77 134.27 172.2 133.57 170.6 133.39 169 133.5 165.14 133.24 164.29 
M 78.44 187.48 88.85 192.79 96.7 196.46 104.7 199.97 112.87 203.09 121.17 205.86 129.6 208.32 138.19 210.27 
M 208.61 98.91 213.5 103.8 
M 210.84 93.97 221.53 104.65 
M 217.06 93.01 222.86 98.81 
M 223.36 92.14 230.85 99.62 
M 230.57 92.18 240.12 101.73 
M 240.05 94.48 250.45 104.88 
M 250.05 97.31 259.98 107.24 
M 258.68 98.76 264.99 105.08 
M 266.97 99.88 277.18 110.1 
M 275.34 101.08 283.57 109.31 
M 283.84 102.4 289.88 108.44 
M 291.9 103.29 299.39 110.79 
M 299.71 103.93 309.33 113.55 
M 307.72 104.77 314.38 111.43 
M 316 105.87 323.09 112.96 
M 324.23 106.93 331.72 114.42 
M 333.28 108.8 341.1 116.63 
M 344.21 112.56 350.75 119.11 
M 356.61 117.79 363.07 124.25 
M 215.64 222.29 216.63 224.27 
M 209.02 202.78 209.82 204.39 
M 218.64 222.03 220.07 224.89 
M 208.38 195.23 209.62 197.71 
M 216.64 205.48 217.45 207.08 
M 218.85 203.61 219.65 205.22 
M 222.25 204.14 223.05 205.74 
M 216.42 186.2 217.22 187.8 
M 225.24 203.84 226.04 205.45 
M 218.61 184.3 221.82 190.72 
M 221.73 184.27 224.14 189.08 
M 231.36 203.52 232.16 205.12 
M 225.36 185.24 225.75 186.02 
M 232.16 198.85 234.57 203.67 
M 232.17 192.59 236.98 202.21 
M 239.39 207.02 240.19 208.63 
M 213.02 148.02 213.96 149.9 
M 235.48 192.93 237.89 197.75 
M 212.59 140.87 216.34 148.38 
M 239.6 194.9 241.2 198.1 
M 250.02 215.75 250.83 217.35 
M 212.77 134.96 219.28 147.98 
M 239.75 188.92 242.16 193.73 
M 250.98 211.38 253.38 216.19 
M 212.35 127.85 221.94 147.02 
M 240.76 184.67 241.56 186.27 
M 242.37 187.88 245.57 194.29 
M 253.59 210.34 256 215.15 
M 212.48 121.82 224.6 146.07 
M 244.98 186.84 247.39 191.65 
M 212.02 114.62 222.9 136.38 
M 223.7 137.99 224.5 139.59 
M 226.91 144.4 227.56 145.71 
M 211.24 106.79 224.07 132.45 
M 230.49 145.29 230.9 146.11 
M 251.32 186.96 251.34 186.99 
M 208.13 94.29 225.37 128.78 
M 233.39 144.82 234.18 146.41 
M 258.25 194.54 259.86 197.75 
M 270.28 218.6 271.89 221.81 
M 211.09 93.94 229.13 130.03 
M 231.54 134.84 232.34 136.44 
M 236.35 144.46 237.4 146.56 
M 259.61 190.98 262.82 197.4 
M 214.01 93.51 235.27 136.02 
M 240.08 145.64 240.53 146.55 
M 262.54 190.56 264.14 193.76 
M 271.36 208.2 272.16 209.8 
M 216.91 93.03 238.16 135.54 
M 273.45 206.11 274.25 207.72 
M 219.83 92.59 241.88 136.7 
M 269.15 191.23 270.75 194.44 
M 273.16 199.25 277.97 208.88 
M 222.78 92.21 232.8 112.26 
M 236.01 118.68 244.83 136.32 
M 268.89 184.44 272.1 190.86 
M 275.31 197.28 280.92 208.5 
M 225.78 91.94 235.81 111.99 
M 238.21 116.8 250.24 140.86 
M 251.04 142.47 252.28 144.94 
M 271.9 184.17 273.5 187.38 
M 279.11 198.61 282.32 205.02 
M 288.74 217.85 289.54 219.46 
M 229 92.1 231 96.11 
M 231.81 97.71 255.1 144.29 
M 270.3 174.7 272.71 179.52 
M 282.33 198.76 283.13 200.37 
M 232.29 92.41 232.69 93.21 
M 236.7 101.23 251.94 131.71 
M 252.74 133.31 260.09 148.01 
M 238.68 98.9 242.69 106.92 
M 243.49 108.52 254.72 130.98 
M 257.12 135.79 264.68 150.9 
M 241.52 98.32 243.93 103.13 
M 245.53 106.34 249.54 114.36 
M 250.35 115.96 251.15 117.57 
M 252.75 120.78 257.56 130.4 
M 260.77 136.82 265.58 146.44 
M 290.45 196.16 291.25 197.77 
M 243.27 95.53 246.88 102.75 
M 254.9 118.79 260.51 130.01 
M 263.72 136.43 268.53 146.05 
M 304.62 218.23 306.22 221.44 
M 246.56 95.84 250.17 103.06 
M 254.98 112.68 263.8 130.33 
M 266.21 135.14 271.02 144.76 
M 300.7 204.11 301.5 205.71 
M 303.9 210.53 304.71 212.13 
M 306.31 215.34 310.32 223.36 
M 248.39 93.23 252.81 102.05 
M 255.21 106.86 265.64 127.72 
M 268.04 132.53 273.66 143.76 
M 288.9 174.23 289.7 175.84 
M 302.53 201.5 304.13 204.71 
M 306.54 209.52 309.75 215.94 
M 250.23 90.62 268.27 126.71 
M 269.08 128.32 269.88 129.92 
M 272.28 134.73 276.29 142.75 
M 291.53 173.23 292.33 174.83 
M 304.36 198.89 305.97 202.1 
M 309.98 210.12 312.38 214.93 
M 252.06 88.01 277.33 138.54 
M 286.95 157.79 288.55 161 
M 306.2 196.28 307 197.89 
M 314.22 212.32 315.02 213.93 
M 253.9 85.4 273.55 124.7 
M 275.95 129.52 279.16 135.93 
M 289.59 156.78 290.39 158.39 
M 304.82 187.26 308.03 193.68 
M 317.66 212.92 318.46 214.53 
M 255.73 82.8 276.98 125.3 
M 278.59 128.51 283.4 138.13 
M 297.84 167.01 298.64 168.61 
M 306.66 184.65 309.06 189.46 
M 319.49 210.31 321.9 215.13 
M 257.56 80.19 279.62 124.3 
M 282.03 129.11 286.84 138.73 
M 309.29 183.65 311.7 188.46 
M 322.93 210.91 323.73 212.52 
M 324.53 214.12 325.33 215.73 
M 259.4 77.58 278.25 115.27 
M 280.65 120.09 289.47 137.73 
M 311.93 182.64 314.34 187.45 
M 324.76 208.31 325.56 209.91 
M 261.58 75.66 267.59 87.69 
M 268.39 89.29 280.42 113.35 
M 282.03 116.56 294.06 140.62 
M 294.86 142.22 296.46 145.43 
M 297.26 147.04 298.07 148.64 
M 263.9 74.04 269.12 84.46 
M 272.32 90.88 300.39 147.02 
M 311.62 169.47 314.03 174.29 
M 331.67 209.57 333.28 212.78 
M 267.17 74.3 271.99 83.92 
M 273.59 87.13 276 91.94 
M 276.8 93.55 278.4 96.75 
M 279.2 98.36 303.26 146.48 
M 312.09 164.12 312.89 165.73 
M 314.49 168.94 317.7 175.35 
M 336.15 212.24 336.95 213.85 
M 339.49 218.94 340.04 220.02 
M 268.12 69.91 274.13 81.94 
M 274.93 83.54 280.55 94.77 
M 282.15 97.98 285.36 104.39 
M 286.96 107.6 298.99 131.66 
M 302.2 138.08 306.21 146.1 
M 315.03 163.74 319.04 171.76 
M 319.84 173.36 322.25 178.18 
M 323.05 179.78 323.85 181.38 
M 329.47 192.61 330.27 194.22 
M 331.07 195.82 332.68 199.03 
M 270.4 68.19 287.64 102.68 
M 290.85 109.09 292.45 112.3 
M 294.05 115.51 304.48 136.36 
M 305.28 137.96 308.49 144.38 
M 317.31 162.02 326.94 181.27 
M 330.95 189.29 333.35 194.1 
M 334.15 195.71 334.96 197.31 
M 345.39 218.17 345.79 218.98 
M 275.53 72.19 279.54 80.21 
M 280.34 81.81 290.77 102.66 
M 291.57 104.27 296.38 113.89 
M 297.19 115.49 297.99 117.1 
M 298.79 118.7 306.01 133.14 
M 308.41 137.95 312.42 145.97 
M 318.84 158.8 319.64 160.41 
M 320.44 162.01 330.07 181.26 
M 331.67 184.47 334.08 189.28 
M 341.3 203.71 342.1 205.32 
M 342.9 206.92 343.7 208.53 
M 347.71 216.55 348.62 218.37 
M 277.71 70.28 279.32 73.48 
M 280.12 75.09 308.19 131.23 
M 312.2 139.25 314.61 144.06 
M 317.01 148.87 317.81 150.48 
M 319.42 153.68 332.25 179.35 
M 335.46 185.76 336.26 187.37 
M 278.95 66.47 311.03 130.63 
M 314.24 137.05 319.85 148.28 
M 323.06 154.69 329.48 167.53 
M 339.9 188.38 340.71 189.98 
M 353.67 215.9 354.2 216.96 
M 276.01 54.32 278.82 59.93 
M 280.42 63.14 284.43 71.16 
M 285.24 72.76 313.31 128.9 
M 318.12 138.53 322.93 148.15 
M 325.34 152.96 330.95 164.19 
M 337.37 177.02 338.17 178.63 
M 339.77 181.84 343.78 189.86 
M 356.56 215.4 356.9 216.09 
M 277.44 50.9 287.47 70.95 
M 289.87 75.76 294.68 85.38 
M 297.89 91.8 316.34 128.69 
M 319.55 135.11 326.76 149.54 
M 328.37 152.75 333.18 162.37 
M 339.6 175.21 340.4 176.81 
M 341.2 178.41 344.41 184.83 
M 346.01 188.04 346.81 189.64 
M 358.96 213.93 359.47 214.97 
M 279.34 48.42 297.38 84.51 
M 300.59 90.92 312.62 114.98 
M 313.42 116.59 319.04 127.81 
M 320.64 131.02 321.44 132.63 
M 324.65 139.04 329.46 148.67 
M 333.47 156.69 335.88 161.5 
M 339.09 167.91 343.1 175.93 
M 343.9 177.54 347.11 183.95 
M 348.71 187.16 350.32 190.37 
M 351.92 193.58 353.52 196.79 
M 361.42 212.57 361.69 213.12 
M 281.3 46.06 300.15 83.76 
M 301.75 86.97 314.58 112.63 
M 317.79 119.05 320.2 123.86 
M 324.21 131.88 325.81 135.09 
M 327.42 138.29 330.62 144.71 
M 343.46 170.37 345.86 175.19 
M 349.87 183.21 353.08 189.62 
M 282.96 43.11 293.79 64.76 
M 294.59 66.36 313.03 103.26 
M 319.45 116.09 321.86 120.9 
M 326.67 130.52 328.27 133.73 
M 345.11 167.42 347.52 172.23 
M 353.13 183.46 355.54 188.27 
M 359.55 196.29 360.35 197.89 
M 285.14 41.18 292.76 56.42 
M 293.56 58.03 313.61 98.13 
M 321.18 113.27 322.79 116.48 
M 329.2 129.31 331.61 134.12 
M 338.02 146.96 341.23 153.37 
M 361.28 193.47 362.89 196.68 
M 287.74 40.11 296.96 58.56 
M 298.57 61.77 311.4 87.43 
M 321.31 107.25 324.52 113.67 
M 325.32 115.27 336.55 137.73 
M 340.56 145.75 344.57 153.77 
M 364.74 194.11 365.26 195.16 
M 290.03 38.42 300.06 58.47 
M 304.07 66.49 312.89 84.14 
M 325.49 109.34 339.93 138.21 
M 343.94 146.23 352.76 163.88 
M 359.18 176.71 360.78 179.92 
M 292.43 36.94 303.26 58.6 
M 307.27 66.62 315.29 82.66 
M 327.7 107.49 340.94 133.95 
M 348.15 148.39 355.37 162.82 
M 361.79 175.66 364.93 181.94 
M 294.37 34.54 306.8 59.4 
M 309.2 64.21 318.83 83.46 
M 319.62 85.04 320.01 85.82 
M 331.26 108.33 341.29 128.38 
M 350.91 147.63 351.71 149.23 
M 352.52 150.83 356.53 158.85 
M 364.7 175.21 365.26 176.33 
M 296.64 32.81 309.87 59.27 
M 312.28 64.09 320.62 80.77 
M 334.9 109.32 346.53 132.58 
M 347.33 134.18 348.93 137.39 
M 352.94 145.41 356.95 153.43 
M 300.4 34.05 301.6 36.46 
M 302.41 38.06 312.03 57.31 
M 316.04 65.33 320.38 74.01 
M 339.05 111.35 339.85 112.95 
M 341.46 116.16 350.28 133.81 
M 353.49 140.22 360.7 154.66 
M 305.52 38.01 315.14 57.25 
M 319.15 65.27 320.93 68.83 
M 345.28 117.53 354.9 136.78 
M 355.71 138.38 362.92 152.82 
M 310.28 41.25 319.1 58.89 
M 321.52 63.73 321.94 64.57 
M 347.53 115.76 365.26 151.22 
M 313.91 42.23 319.06 52.53 
M 350.23 114.87 364.96 144.34 
M 315.82 39.78 320.49 49.13 
M 354.24 116.61 365.26 138.67 
M 318.26 38.38 320.26 42.39 
M 358.41 118.68 365.26 132.39 
M 225.98 291.39 224.08 297.7 
M 225.98 291.39 229.88 291.39 
M 225.08 294.39 227.48 294.39 
M 224.08 297.7 227.99 297.7 
M 234.08 294.39 233.66 293.8 233.15 293.5 232.25 293.5 231.56 293.8 230.78 294.39 230.21 295.3 230.03 295.89 230.06 296.8 230.48 297.39 230.99 297.7 231.89 297.7 232.58 297.39 233.36 296.8 
M 235.61 295.3 239.21 295.3 239.39 294.7 239.27 294.1 238.55 293.5 237.65 293.5 236.96 293.8 236.18 294.39 235.61 295.3 235.43 295.89 235.46 296.8 235.88 297.39 236.39 297.7 237.29 297.7 237.98 297.39 238.76 296.8 
M 242.77 291.39 241.25 296.5 241.27 297.39 241.79 297.7 242.39 297.7 
M 241.25 293.5 243.35 293.5 
M 245.77 291.39 245.99 291.7 246.38 291.39 246.17 291.1 245.77 291.39 
M 245.45 293.5 244.19 297.7 
M 251.15 293.5 249.89 297.7 
M 250.88 294.39 250.46 293.8 249.95 293.5 249.05 293.5 248.36 293.8 247.58 294.39 247.01 295.3 246.83 295.89 246.86 296.8 247.27 297.39 247.79 297.7 248.69 297.7 249.38 297.39 250.16 296.8 
M 259.85 293.5 258.58 297.7 
M 259.58 294.39 259.15 293.8 258.64 293.5 257.75 293.5 257.06 293.8 256.27 294.39 255.71 295.3 255.52 295.89 255.56 296.8 255.98 297.39 256.49 297.7 257.39 297.7 258.08 297.39 258.86 296.8 
M 262.88 291.39 260.99 297.7 
M 264.64 293.5 263.39 297.7 
M 264.28 294.7 265.46 293.8 266.14 293.5 267.05 293.5 267.56 293.8 267.58 294.7 266.69 297.7 
M 267.58 294.7 268.76 293.8 269.45 293.5 270.34 293.5 270.86 293.8 270.89 294.7 269.99 297.7 
M 272.81 295.3 276.4 295.3 276.58 294.7 276.46 294.1 275.75 293.5 274.84 293.5 274.15 293.8 273.38 294.39 272.81 295.3 272.63 295.89 272.65 296.8 273.08 297.39 273.58 297.7 274.49 297.7 275.18 297.39 275.95 296.8 
M 279.97 291.39 278.45 296.5 278.47 297.39 278.99 297.7 279.58 297.7 
M 278.45 293.5 280.55 293.5 
M 282.97 291.39 283.19 291.7 283.58 291.39 283.37 291.1 282.97 291.39 
M 282.64 293.5 281.39 297.7 
M 285.68 291.39 283.78 297.7 
M 287.77 291.39 287.99 291.7 288.38 291.39 288.16 291.1 287.77 291.39 
M 287.45 293.5 286.19 297.7 
M 292.58 294.39 292.45 293.8 291.64 293.5 290.75 293.5 289.76 293.8 289.27 294.39 289.39 295 289.9 295.3 291.32 295.6 291.83 295.89 291.86 296.8 291.38 297.39 290.39 297.7 289.49 297.7 288.67 297.39 288.56 296.8 
M 294.16 297.1 293.77 297.39 293.99 297.7 294.38 297.39 294.16 297.1 
"/></svg>
