<svg xmlns="http://www.w3.org/2000/svg" width="520" height="320"><rect x="0" y="0" width="520" height="320" fill="floralwhite"/><rect x="10" y="10" width="500" height="300" stroke="black" stroke-width="1" fill="none"/><path stroke="black" stroke-width="1" fill="none" stroke-linecap="round" stroke-linejoin="round" d="
M 211.38 108.76 218.57 108.05 225.75 107.09 247.31 102.82 254.49 101.86 261.68 101.13 268.86 101.38 276.05 102.41 283.23 102.82 290.42 101.71 297.61 99.57 304.79 98.06 311.98 98.27 326.35 101.37 333.53 102.35 340.72 102.88 347.9 103.81 355.09 105.92 362.27 109.46 376.64 117.97 383.83 122.48 384.74 123.73 
M 384.74 195.58 383.83 196.55 376.64 200.27 369.46 203.45 362.27 206.3 355.09 208.64 347.9 210.32 333.53 212.56 311.98 216.89 283.23 220.31 276.05 220.78 268.86 220.99 261.68 221.77 247.31 225.01 240.12 226.27 225.75 227.82 218.57 228.35 211.38 228 204.25 226.45 
M 213.91 118.98 214.88 118.56 218.02 115.83 220.05 112.74 220.05 110.82 218.25 108.08 
M 211.68 109.65 216.74 108.99 
M 212.41 111.79 216.42 111.56 
M 212.94 113.32 216.03 113.74 
M 215.23 137.57 216.29 137.09 219.72 133.96 221.93 130.41 221.93 128.21 219.72 124.66 216.29 121.53 214.05 120.51 
M 214.5 126.96 218.32 126.2 
M 214.66 129.16 217.72 129.31 
M 214.83 131.66 218.24 132.35 
M 217.77 154.31 219.8 152.48 222.1 148.84 222.1 146.59 219.8 142.95 216.24 139.73 215.34 139.33 
M 216.03 145.01 218.23 144.63 
M 216.56 147.92 218.11 147.93 
M 217.17 150.59 217.91 150.71 
M 213.61 210.18 216.37 207.49 218.35 204.11 218.35 202.01 216.37 198.63 214.81 197.12 
M 214.02 200.59 214.53 200.56 
M 213.39 203.01 214.36 202.92 
M 212.56 205.49 214.33 206.01 
M 219.33 110.06 219.76 109.86 222.1 107.58 
M 221.14 129.63 222.21 129 224.89 125.82 226.63 122.22 226.63 119.99 224.89 116.39 222.21 113.21 220.11 111.97 
M 218.29 119.63 223.25 118.26 
M 218.05 121.51 223.54 121.19 
M 218.34 122.88 223.86 123.99 
M 221.46 149.56 223.71 148.29 226.6 145.02 228.46 141.32 228.46 139.02 226.6 135.32 223.71 132.05 221.46 130.78 
M 219.41 138.25 224.8 137.58 
M 219.09 139.73 225.26 140.26 
M 219.37 142.36 225.39 143.06 
M 227.31 156.86 225.74 153.85 222.79 150.65 221.28 149.82 
M 217.92 156.35 223.81 155.86 
M 218.09 158.66 223.27 158.41 
M 218.16 160.02 218.78 160.14 
M 217.96 204.14 220.2 202.96 223.08 199.93 223.31 199.51 
M 216.1 197.26 218.74 197.5 
M 222.34 209.99 221.04 207.56 218.47 204.82 217.64 204.38 
M 215.84 210.24 219.72 209.49 
M 226.01 120.89 227.82 120.06 230.91 117.24 232.91 114.04 232.91 112.06 230.91 108.86 228.42 106.59 
M 223.08 111.66 229.54 110.89 
M 223.38 113.41 229.15 112.76 
M 223.5 115.1 229.57 115.61 
M 227.79 140.64 229.95 139.54 233.18 136.28 235.26 132.58 235.26 130.29 233.18 126.6 229.95 123.33 227.44 122.06 
M 224.95 129.87 231.22 128.22 
M 224.86 131.8 231.54 131.72 
M 224.86 133.13 231.22 134.61 
M 234.61 154.05 236.07 151.56 236.07 149.26 233.89 145.54 230.5 142.26 227.85 140.98 
M 225.49 148.58 232.43 147.98 
M 225.31 150.53 232.45 150.47 
M 225.64 152.46 232.11 153.66 
M 230.66 209.07 232.91 205.88 232.91 203.9 232.74 203.66 
M 221.49 203.21 228.96 202.51 
M 221.92 205.13 228.68 205.12 
M 221.7 206.62 228.51 207.15 
M 232.2 111.02 232.56 110.85 235.15 108.43 236.81 105.68 236.81 104.89 
M 228.52 106.57 234.2 106.97 
M 234.51 130.94 235.14 130.54 237.68 127.28 239.32 123.59 239.32 121.3 237.68 117.61 235.14 114.35 233.16 113.07 
M 231.56 120.99 235.98 119.36 
M 231.21 122.09 235.96 122.1 
M 231.08 124.64 236.33 125.13 
M 235.29 151.48 237.08 150.34 239.71 147 241.41 143.2 241.41 140.86 239.71 137.06 237.08 133.72 235.02 132.41 
M 232.99 139.9 238.58 139.59 
M 233.2 142.31 238.53 142.04 
M 233.35 143.76 238.78 144.94 
M 237.06 153.1 236.64 152.61 235.29 151.83 
M 233.05 207.32 235.56 206.17 236.49 205.31 
M 234.12 208.64 232.57 207.32 232.1 207.11 
M 238.1 106.2 240.61 105.48 244.03 103.43 
M 238.73 121.98 240.62 121.11 243.67 118.32 245.64 115.16 245.64 113.2 243.67 110.04 240.62 107.24 238.24 106.15 
M 236.05 112.24 241.87 111.33 
M 235.62 114.37 242.32 114.38 
M 236.35 116.11 242.05 116.84 
M 240.8 142.01 242.72 140.95 245.72 137.61 247.65 133.84 247.65 131.5 245.72 127.72 242.72 124.39 240.38 123.09 
M 238.47 130.52 244.49 129.88 
M 238.47 132.76 243.76 132.89 
M 238.13 134.34 244.6 135.49 
M 248.3 149.47 247.11 147.22 243.94 143.79 241.45 142.45 
M 239 150.07 245.88 148.95 
M 237.05 206.44 238.7 206.28 
M 244.94 112.29 245.76 111.94 248.4 109.67 250.1 107.09 250.1 105.5 248.15 102.71 
M 241.81 105.01 247.09 104.11 
M 241.81 106.42 247.15 105.9 
M 241.42 107.64 247.47 108.51 
M 246.96 131.46 247.45 131.13 249.85 127.92 251.4 124.27 251.4 122.02 249.85 118.37 247.45 115.15 245.57 113.9 
M 243.48 121.22 248.55 120.45 
M 243.96 123.07 248.86 122.71 
M 243.64 125.13 248.37 126.18 
M 251 149.8 252.06 148.26 253.61 144.28 253.61 141.83 252.06 137.85 249.65 134.35 247.76 132.98 
M 245.8 141.28 250.92 140.35 
M 245.58 142.68 250.63 143.18 
M 246.02 144.95 250.84 145.68 
M 251.47 107.64 253.91 106.95 257.04 105.17 259.06 103.16 259.06 101.92 258.58 101.44 
M 250.9 102.34 255.42 102.29 
M 249.23 103.43 255.74 104.14 
M 250.86 122.78 253.2 121.73 256.2 119.06 258.13 116.02 258.13 114.15 256.2 111.12 253.2 108.44 250.86 107.4 
M 248.49 113.11 254.8 113.23 
M 248.89 114.84 254.2 115.3 
M 248.89 116.39 254.98 117.75 
M 253.06 142.31 254.7 141.35 257.56 138 259.41 134.21 259.41 131.86 257.56 128.07 254.7 124.72 252.47 123.42 
M 250.73 130.94 256.22 129.83 
M 249.99 133.48 256.51 133.29 
M 250.03 134.98 256.11 136.14 
M 260.69 150.32 259.6 147.99 256.61 144.35 254.26 142.92 
M 256.18 150.25 257.77 149.9 
M 259.08 102.53 261.03 102 262.57 101.16 
M 257.44 113.72 258.89 113.12 261.46 110.96 263.11 108.52 263.11 107.01 261.46 104.56 258.89 102.41 258.33 102.18 
M 254.51 106.7 260.06 105.91 
M 255.02 108.21 260.37 107.64 
M 254.51 109.03 260.35 109.99 
M 258.75 131 259.15 130.74 261.53 127.68 263.06 124.22 263.06 122.07 261.53 118.61 259.15 115.55 257.44 114.45 
M 255.28 121.01 260.05 120.88 
M 255.39 122.91 260.42 122.83 
M 255.92 125.19 259.88 125.77 
M 262.07 150.24 263.41 148.16 264.92 144.07 264.92 141.54 263.41 137.45 261.07 133.84 259.24 132.43 
M 257.34 140.91 262.11 140.03 
M 257.61 143.23 261.78 142.7 
M 257.51 145.1 262.24 146.17 
M 264.16 108.6 266.54 107.91 269.57 106.14 271.53 104.14 271.53 102.9 270.24 101.58 
M 262.12 102.09 267.94 102.27 
M 262.25 103.49 268.32 103.77 
M 262 104.22 267.81 104.87 
M 263.26 123.22 265.6 122.21 268.59 119.62 270.51 116.68 270.51 114.86 268.59 111.93 265.6 109.33 263.26 108.32 
M 260.84 113.87 267.17 113.91 
M 261.06 115.51 267 115.52 
M 261.04 116.89 267.31 118.1 
M 264.38 142.71 266.61 141.44 269.53 138.11 271.41 134.34 271.41 132 269.53 128.23 266.61 124.9 264.32 123.6 
M 262.28 131.35 267.97 130.17 
M 262.38 133.11 267.62 133.44 
M 261.94 135.54 267.68 135.72 
M 271.96 148.79 271.73 148.26 268.78 144.46 266.47 142.98 
M 271.26 103.13 273.26 102.58 274.09 102.13 
M 269.82 114.6 271.39 113.93 273.89 111.79 275.51 109.36 275.51 107.85 273.89 105.42 271.39 103.28 270.83 103.04 
M 267.22 107.76 272.14 106.75 
M 267.66 108.44 272.83 108.66 
M 267.77 109.56 272.66 110.89 
M 270.74 131.46 271.41 131.06 273.92 128.04 275.54 124.63 275.54 122.52 273.92 119.1 271.41 116.09 269.82 115.14 
M 267.77 121.42 272.54 120.81 
M 267.97 123.78 272.73 123.31 
M 267.45 125.37 272.42 126.41 
M 276.07 147.82 277.4 144.44 277.4 141.88 275.78 137.76 273.27 134.12 271.31 132.7 
M 269.1 141.09 274.17 139.58 
M 269.45 143.51 274.44 143.49 
M 269.29 145.41 274.8 146.27 
M 276.84 109.52 279.27 108.83 282.37 107.08 284.37 105.1 284.37 103.88 283.29 102.81 
M 274.28 103.2 280.56 102.66 
M 274.72 104.38 280.76 104.17 
M 274.29 105.14 280.75 106.27 
M 275.84 124.07 278.22 123.06 281.27 120.47 283.24 117.54 283.24 115.72 281.27 112.79 278.22 110.2 275.84 109.19 
M 273.34 114.87 279.88 114.33 
M 273.71 116.37 280.07 116.24 
M 273.97 117.91 280 118.99 
M 276.91 143.59 279.28 142.29 282.33 138.97 284.29 135.21 284.29 132.88 282.33 129.12 279.28 125.79 276.91 124.5 
M 274.71 132.32 280.6 131.29 
M 274.24 133.92 280.58 133.83 
M 274.97 135.57 280.3 136.89 
M 286.22 154.04 286.22 153.35 284.29 149.08 281.3 145.32 278.96 143.85 
M 280.95 151.42 282.38 151.15 
M 284.7 104.61 286.82 104.09 289.53 102.78 290.97 101.55 
M 282.53 115.33 283.98 114.73 286.56 112.59 288.21 110.18 288.21 108.68 286.56 106.27 284.02 104.16 
M 280.04 108.29 284.79 107.5 
M 279.83 109.82 285.19 109 
M 279.91 110.42 285.38 110.9 
M 283.58 133.06 284.51 132.52 287.09 129.45 288.76 125.99 288.76 123.84 287.09 120.37 284.51 117.31 282.53 116.14 
M 280.32 122.86 285.89 121.86 
M 280.83 125.35 285.53 124.8 
M 280.65 126.4 286.02 127.33 
M 285.72 153.85 286.36 153.4 288.9 149.82 290.53 145.77 290.53 143.27 288.9 139.22 286.36 135.65 284.38 134.25 
M 282.34 142.8 287.19 141.03 
M 282.47 144.46 287.99 144.33 
M 282.05 146.71 287.17 147.2 
M 292.05 101.71 294.58 101.31 297.82 100.3 299.91 99.09 
M 295.96 100.06 296.41 100.11 
M 290.04 110.87 292.56 110.2 295.8 108.5 297.88 106.57 297.88 105.38 295.8 103.45 292.56 101.75 291.37 101.43 
M 287.99 104.79 294.29 104.77 
M 287.55 105.85 293.99 105.65 
M 287.28 106.96 294.44 107.09 
M 288.73 125.18 291.18 124.18 294.3 121.62 296.32 118.71 296.32 116.92 294.3 114.01 291.18 111.45 288.73 110.45 
M 286.14 116.09 292.49 115.2 
M 286.74 117.88 292.8 117.82 
M 286.46 119.24 292.9 120.3 
M 289.95 144.47 292.04 143.31 295.01 140.02 296.92 136.29 296.92 133.99 295.01 130.26 292.04 126.98 289.72 125.69 
M 287.45 133.36 293.72 132.63 
M 287.33 134.82 293.78 134.94 
M 287.18 137.21 293.79 137.68 
M 297.3 159.83 298.69 156.79 298.69 154.21 296.78 150.03 293.82 146.35 291.5 144.91 
M 289.03 153.14 294.92 151.92 
M 295.04 155.73 295.38 155.77 
M 298.3 106.42 300.4 105.92 303.09 104.63 304.82 103.17 304.82 102.27 303.09 100.81 300.4 99.52 299.21 99.24 
M 296.26 101.58 301.31 101.38 
M 296.42 102.54 301.91 102.81 
M 296.4 103.18 302.04 104.24 
M 295.6 116.73 297.37 116.07 300.18 114 301.99 111.65 301.99 110.19 300.18 107.84 297.67 105.99 
M 293.56 109.48 298.92 109.52 
M 293.09 110.64 298.54 110.94 
M 293.09 112.26 298.85 112.55 
M 296.24 133.99 297.21 133.4 299.68 130.42 301.27 127.04 301.27 124.95 299.68 121.57 297.21 118.59 295.6 117.62 
M 293.27 124.39 298.4 122.99 
M 293.55 126.18 298.21 126.1 
M 293.61 127.93 298.8 128.7 
M 298.01 154.31 298.52 153.92 300.83 150.38 302.32 146.38 302.32 143.9 300.83 139.89 298.52 136.36 296.72 134.98 
M 295.25 143.23 299.8 141.91 
M 294.54 145.44 299.21 145.46 
M 294.92 147.1 299.72 148.46 
M 304.88 165.88 304.88 165.17 303.22 160.87 300.66 157.08 298.66 155.59 
M 300.7 163.43 301.82 163.16 
M 305.29 103.37 307.76 102.96 310.92 101.9 312.96 100.69 312.96 99.95 310.92 98.75 309.26 98.19 
M 302.84 99.32 308.82 99.1 
M 303.31 100.07 309.16 99.95 
M 303.68 101.22 309.03 101.2 
M 303.71 112.79 306.29 112.13 309.61 110.44 311.75 108.53 311.75 107.35 309.61 105.44 306.29 103.75 304.2 103.22 
M 301.18 106.65 308.26 106.14 
M 301.3 107.88 307.65 107.59 
M 301.3 108.68 308.12 109.62 
M 301.89 126.21 304.38 125.26 307.57 122.84 309.63 120.11 309.63 118.41 307.57 115.67 304.38 113.25 301.89 112.31 
M 299.57 117.5 305.82 117.35 
M 299.49 118.87 305.51 119.69 
M 299.43 120.9 306.08 120.93 
M 301.79 144.6 303.94 143.39 306.79 140.17 308.64 136.53 308.64 134.28 306.79 130.64 303.94 127.42 301.71 126.17 
M 299.39 133.35 305.23 132.51 
M 299.79 135.15 305.5 135.81 
M 299.89 137.31 305.69 138.44 
M 305.08 165.97 305.98 165.38 308.88 161.6 310.75 157.32 310.75 154.67 308.88 150.39 305.98 146.61 303.72 145.13 
M 301.49 154.23 307.12 152.49 
M 301.2 155.73 307.76 155.55 
M 301.13 157.97 307.44 158.99 
M 313.14 181.8 314.03 179.86 314.03 177.19 312.04 172.88 308.94 169.06 308.1 168.55 
M 309.03 175.52 310.46 175.16 
M 315.39 198.63 315.39 198.33 313.13 194.15 
M 312.23 99.76 313.9 99.5 315.53 98.99 
M 311.52 108.36 313.61 107.8 316.27 106.37 317.99 104.74 317.99 103.73 316.27 102.11 313.61 100.67 312.23 100.3 
M 309.22 103.35 314.56 102.99 
M 309.71 104.66 314.92 104 
M 309.79 104.83 314.62 105.28 
M 309.83 119.48 312.08 118.72 314.97 116.77 316.83 114.56 316.83 113.2 314.97 110.99 312.08 109.04 310.98 108.67 
M 307.47 112.82 313.83 112.41 
M 307.36 114.09 313.08 113.5 
M 308.01 115.39 313.81 115.76 
M 307.98 133.51 309.19 132.86 311.67 130.19 313.27 127.17 313.27 125.3 311.67 122.28 308.89 119.46 
M 305.61 124.34 310.54 123.61 
M 305.2 126.44 310.24 126.43 
M 305.24 128.16 310.31 128.61 
M 310.03 152.26 311.61 149.71 313.07 145.55 313.07 142.97 311.61 138.81 309.34 135.13 307.98 134.03 
M 305.82 142.34 310.66 141.29 
M 305.57 143.82 310.55 144.06 
M 306.14 146.58 310.87 146.99 
M 313.32 178.75 313.9 178.28 316.42 174.17 318.05 169.51 318.05 166.63 316.42 161.97 313.9 157.86 311.93 156.25 
M 310.33 165.85 314.76 164.95 
M 309.91 168.35 314.99 168.35 
M 310.05 170.87 314.95 171.22 
M 318.13 198.26 319.44 196.42 321.12 192.24 321.12 189.65 319.44 185.47 316.82 181.77 314.78 180.33 
M 312.43 188.81 317.96 187.94 
M 313.06 191.22 318.1 191.15 
M 312.79 193.36 317.75 194.29 
M 318.35 104.93 320.77 104.49 323.87 103.35 325.87 102.07 325.84 101.26 
M 316.29 100.64 322.45 100.85 
M 316.27 101.23 322.54 101.94 
M 316.46 102.36 322.33 102.27 
M 317.5 114.92 320.02 114.25 323.25 112.55 325.34 110.63 325.34 109.43 323.25 107.51 320.02 105.81 317.5 105.14 
M 315.18 109.16 321.25 108.29 
M 315.35 109.99 321.18 110.33 
M 315.2 111.34 321.53 111.8 
M 315.24 127.42 317.74 126.53 320.95 124.27 323.02 121.7 323.02 120.12 320.95 117.55 317.74 115.29 316.16 114.73 
M 313.25 119.24 319.45 118.68 
M 312.74 120.66 319.46 121.12 
M 313.26 122 318.93 122.97 
M 313.61 144.54 315.93 143.32 318.91 140.21 320.82 136.68 320.82 134.5 318.91 130.98 315.93 127.86 313.61 126.65 
M 311.23 133.79 317.31 132.51 
M 311.6 135.61 317.03 135.32 
M 311.42 137.43 316.97 137.94 
M 317.46 166.24 317.97 165.9 320.84 162.02 322.7 157.63 322.7 154.92 320.84 150.53 317.97 146.65 315.72 145.14 
M 313.21 153.74 319.34 152.5 
M 313.57 156.55 319.74 155.83 
M 313.94 158.42 319.05 160 
M 320.52 190.1 321.63 189.35 324.54 185.44 326.42 181.02 326.42 178.28 324.54 173.85 321.63 169.94 319.36 168.42 
M 316.95 177.33 323.29 176.29 
M 316.86 179.59 323.17 179.79 
M 317.51 181.6 322.61 182.66 
M 326.65 196.99 326.03 195.69 323.1 192.24 320.81 190.89 
M 325.15 101.3 325.68 101.22 
M 324.92 110.22 326.93 109.64 329.49 108.15 331.15 106.45 331.15 105.41 329.49 103.72 326.93 102.22 325.15 101.71 
M 322.84 105.33 328.3 104.73 
M 322.86 105.68 327.78 105.49 
M 323.38 106.5 327.89 107.58 
M 323.72 121.61 325.79 120.85 328.45 118.93 330.16 116.75 330.16 115.4 328.45 113.22 325.79 111.29 324.59 110.86 
M 321.5 114.78 326.96 114.74 
M 321.81 115.92 327.1 115.8 
M 321.84 116.9 327.26 118.08 
M 320.17 134.67 322.25 133.69 324.91 131.17 326.63 128.33 326.63 126.56 324.91 123.71 322.28 121.22 
M 318.4 126.42 323.85 125.05 
M 318.4 127.56 323.66 127.2 
M 317.79 128.87 323.71 129.49 
M 322.02 152.49 323.91 149.76 325.52 145.69 325.52 143.17 323.91 139.1 321.41 135.5 320.14 134.58 
M 317.78 142.45 322.43 141.27 
M 317.47 144.06 322.24 144.04 
M 317.57 146.6 322.31 147.44 
M 325.75 178.54 328.02 174.46 329.51 169.79 329.51 166.9 328.02 162.23 325.72 158.1 323.92 156.49 
M 321.82 166.32 326.54 164.63 
M 322.32 168.79 327.07 168.27 
M 322.16 171.12 326.42 171.85 
M 330.95 196.39 332.29 192.54 332.29 189.94 330.83 185.75 328.57 182.04 326.8 180.6 
M 325.2 188.94 329.38 187.78 
M 325.21 191.2 330.06 191.34 
M 325.55 193.1 329.48 194.04 
M 331.12 106.07 333.43 105.62 336.39 104.45 338.3 103.14 338.3 102.7 
M 329.31 102.49 331.41 102.06 
M 329.34 102.3 335.19 103.18 
M 329.18 103.22 334.44 103.53 
M 330.54 116.36 332.9 115.68 335.91 113.94 337.86 111.97 337.86 110.75 335.91 108.78 332.9 107.04 330.56 106.37 
M 328.36 110.41 333.93 109.8 
M 328.43 111.43 334.32 111.14 
M 328.09 112.6 334.62 112.87 
M 328.5 128.93 330.94 128.05 334.06 125.8 336.07 123.25 336.07 121.67 334.06 119.13 330.94 116.88 329.54 116.37 
M 325.87 120.92 332.05 120.07 
M 326.33 122.65 332.86 122.04 
M 326.35 123.69 332.78 124.37 
M 326.52 145.41 328.93 144.24 332.02 141.24 334.01 137.84 334.01 135.73 332.02 132.33 328.93 129.33 326.52 128.16 
M 323.76 135.4 330.27 134.46 
M 323.79 136.46 330.61 136.37 
M 324.56 138.35 330.55 139.38 
M 328.98 166.54 329.99 165.88 332.84 162.14 334.68 157.91 334.68 155.28 332.84 151.05 329.99 147.31 327.76 145.85 
M 325.39 154.21 331.46 153.74 
M 325.93 156.84 331.72 156.14 
M 325.91 158.43 331.26 159.89 
M 331.77 189.75 332.9 188.93 335.57 185.09 337.29 180.73 337.29 178.03 335.57 173.67 332.9 169.83 330.82 168.32 
M 328.39 176.73 334.59 175.77 
M 328.47 179.1 334.33 179.82 
M 328.55 181.69 333.8 182.78 
M 337.09 195.62 334.32 191.88 332.25 190.52 
M 337.22 110.88 339.09 110.29 341.47 108.77 343.01 107.05 343.01 105.98 341.47 104.26 339.12 102.76 
M 335.14 105.28 340.35 105.15 
M 335.34 106.25 339.93 106.11 
M 335.52 107.79 340.13 107.59 
M 336.29 122.72 338.21 121.93 340.66 119.92 342.24 117.64 342.24 116.22 340.66 113.94 338.21 111.92 337.16 111.49 
M 334.61 116.22 339.77 114.78 
M 334.46 116.77 339.03 116.61 
M 334.43 117.73 339.48 118.54 
M 333.83 136.71 335.88 135.72 338.51 133.18 340.21 130.3 340.21 128.51 338.51 125.63 335.88 123.09 335.35 122.83 
M 331.54 128.22 337.36 127.28 
M 331.45 129.53 336.83 129.72 
M 332.11 130.67 337.46 131.48 
M 334.02 154.55 334.57 154.18 337.08 150.83 338.7 147.04 338.7 144.69 337.08 140.89 334.57 137.54 333.3 136.69 
M 331.11 143.8 335.77 142.67 
M 330.37 145.5 336.01 145.77 
M 330.56 147.42 335.31 148.34 
M 336.67 177.47 338.96 173.5 340.38 169.11 340.38 166.39 338.96 161.99 336.77 158.11 335.05 156.6 
M 333.69 165.94 338.16 164.56 
M 333.12 167.93 338.19 167.42 
M 333.56 170.32 337.59 171.28 
M 341.46 195.12 342.65 191.48 342.65 188.9 341.28 184.73 339.15 181.04 337.49 179.61 
M 335.87 187.89 340.58 186.7 
M 336.33 190.52 339.86 190.03 
M 335.72 192.4 339.73 193.76 
M 343.08 106.36 345.33 105.9 348.22 104.72 349.02 104.14 
M 340.71 103.17 342.14 103.07 
M 341 103.45 346.94 103.89 
M 342.69 116.94 344.97 116.24 347.89 114.45 349.78 112.42 349.78 111.16 347.89 109.13 344.97 107.34 342.69 106.64 
M 340.1 110.84 346.48 110.4 
M 340.81 111.73 346.07 111.94 
M 340.19 112.63 346.55 113.1 
M 341.22 130.06 343.55 129.16 346.55 126.87 348.48 124.27 348.48 122.66 346.55 120.06 343.55 117.76 341.67 117.04 
M 338.85 121.74 344.6 121.89 
M 338.91 123.64 344.93 123.41 
M 339.12 124.59 344.82 125.15 
M 339.37 146.29 341.67 145.15 344.61 142.24 346.51 138.95 346.51 136.91 344.61 133.62 341.67 130.71 339.6 129.69 
M 337.38 135.91 343.31 135.84 
M 337.27 137.59 343.34 137.76 
M 336.97 139.39 343.01 140.33 
M 339.87 166.65 341.69 165.47 344.41 161.93 346.16 157.92 346.16 155.43 344.41 151.42 341.69 147.87 339.56 146.49 
M 337.07 154.29 342.66 153.57 
M 337.17 156.67 342.56 156.61 
M 337.68 158.97 342.81 160.03 
M 342.16 188.86 343.66 187.77 346.22 184.03 347.88 179.79 347.88 177.17 346.22 172.93 343.66 169.19 341.65 167.73 
M 340.09 176.27 344.98 174.91 
M 339.38 178.47 344.57 178.3 
M 339.53 180.2 344.58 181.69 
M 347.49 194.4 344.93 190.79 342.96 189.43 
M 349.1 110.88 350.8 110.34 353.23 108.78 354.8 107.02 354.8 105.93 354.68 105.8 
M 347.01 105.57 351.88 105.26 
M 347.48 106.92 351.8 106.43 
M 346.94 107.43 351.73 107.98 
M 348.33 123.23 350.26 122.42 352.74 120.33 354.33 117.97 354.33 116.51 352.74 114.15 350.26 112.07 349.1 111.58 
M 346.57 116.2 351.18 115.26 
M 346.21 116.82 351.2 116.87 
M 346.89 118.13 351.69 119.22 
M 346.41 137.57 348.31 136.57 350.73 134.04 352.29 131.16 352.29 129.38 350.73 126.51 348.31 123.97 347.79 123.69 
M 344.63 128.39 349.06 128.02 
M 345.01 130.32 349.49 130.14 
M 344.63 132.08 349.9 132.73 
M 345.53 154.74 346.39 154.13 348.63 150.93 350.07 147.31 350.07 145.06 348.63 141.44 346.39 138.24 345.83 137.84 
M 343.24 144.63 347.73 143.73 
M 343.19 146.08 347.25 146.09 
M 343.37 148.01 347.87 149.39 
M 347.29 176.48 347.6 176.2 349.72 172.46 351.09 168.22 351.09 165.59 349.72 161.35 347.6 157.6 345.94 156.14 
M 344.55 165.15 348.58 163.26 
M 344.16 166.58 348.2 166.45 
M 343.94 169.16 348.59 169.99 
M 352.16 193.68 353.25 190.37 353.25 187.81 351.89 183.67 349.77 180.01 348.12 178.59 
M 346.35 186.95 350.75 186.29 
M 346.08 188.79 351.12 188.89 
M 346.57 191.27 351 191.93 
M 355.27 106.86 356.49 106.61 
M 354.99 117.56 357.29 116.86 360.24 115.06 362.14 113.01 362.14 111.75 360.24 109.7 357.29 107.9 354.99 107.19 
M 352.41 110.98 358.38 111.27 
M 353.03 112.07 358.98 112.76 
M 352.85 113.61 358.38 114.38 
M 353.51 130.51 355.79 129.63 358.7 127.38 360.58 124.83 360.58 123.25 358.7 120.7 355.79 118.45 353.76 117.67 
M 351.49 122.71 357.33 121.68 
M 351.25 124.15 357.36 123.9 
M 351.64 125.42 357.16 126.41 
M 351.06 145.93 353.22 144.84 355.98 142.04 357.77 138.87 357.77 136.91 355.98 133.74 353.22 130.94 351.73 130.19 
M 349.23 135.92 354.88 135.05 
M 349.27 137.9 354.98 137.57 
M 349.25 139.22 354.2 140.56 
M 350.6 165.66 352.51 164.4 355.15 160.95 356.84 157.05 356.84 154.63 355.15 150.72 352.51 147.27 350.46 145.93 
M 348.5 153.67 354.05 152.99 
M 348.09 155.76 354.17 155.66 
M 348.14 157.45 353.39 159.06 
M 352.76 187.53 354.26 186.47 356.86 182.79 358.53 178.62 358.53 176.04 356.86 171.87 354.26 168.19 352.23 166.75 
M 350.21 174.98 355.37 174.15 
M 350.07 177.26 355.9 177.05 
M 350.52 179.7 355.71 180.22 
M 357.6 192.72 355.18 189.41 353.2 188.06 
M 361.6 111.94 363.52 111.33 364.43 110.75 
M 359.59 108.63 360.75 108.71 
M 361.14 124.15 363.06 123.36 365.53 121.34 367.12 119.05 367.12 117.63 365.53 115.35 363.06 113.32 361.46 112.67 
M 359.15 117.33 363.85 116.42 
M 359.63 118.56 363.8 118.7 
M 359.39 119.13 363.93 120.11 
M 358.18 137.1 360.01 136.18 362.36 133.82 363.88 131.14 363.88 129.48 362.36 126.81 359.91 124.39 
M 356.19 129.06 361.58 128.22 
M 356.68 130.62 361.01 129.97 
M 355.96 132.12 361.43 132.39 
M 356.24 152.82 356.72 152.48 358.93 149.39 360.36 145.88 360.36 143.72 358.93 140.22 357.13 137.69 
M 354.94 142.79 358.02 142.45 
M 353.69 145.06 357.76 144.74 
M 353.41 146.85 357.83 147.56 
M 357.93 174.83 360.18 171.04 361.6 166.78 361.6 164.15 360.18 159.89 357.97 156.13 356.25 154.66 
M 354.6 163.08 359.4 161.91 
M 354.23 165.56 359.04 165.22 
M 355 167.7 358.95 168.39 
M 363.12 191.56 363.99 189.11 363.99 186.61 362.56 182.57 360.35 179 358.62 177.61 
M 357.17 185.37 361.69 184.79 
M 356.84 187.57 361.11 187.73 
M 356.65 189.64 360.99 191.19 
M 367.34 118.14 369.6 117.44 372.56 115.58 
M 365.33 111.74 366.05 111.72 
M 365.1 112.6 367.66 112.69 
M 365.36 113.85 370.47 114.35 
M 365.6 130.7 367.86 129.85 370.74 127.66 372.6 125.18 372.6 123.65 370.74 121.17 367.86 118.98 366.55 118.48 
M 363.71 123.52 369.13 122.11 
M 363.38 124.49 369.16 124.48 
M 363.7 125.39 369.35 126.51 
M 362.49 145.43 364.73 144.36 367.59 141.64 369.44 138.56 369.44 136.65 367.59 133.56 364.73 130.84 363.34 130.17 
M 360.11 135.8 366.36 135.37 
M 359.9 137.98 366.46 137.48 
M 360.36 139.46 365.75 139.99 
M 361.51 164.99 363.74 163.66 366.59 160.23 368.43 156.36 368.43 153.96 366.59 150.08 363.74 146.66 361.51 145.32 
M 359.74 153.08 364.81 152.5 
M 359.39 154.71 364.73 155.36 
M 359.81 157.5 364.65 158.12 
M 363.48 187.05 365.51 185.74 368.33 182.09 370.15 177.94 370.15 175.38 368.33 171.24 365.51 167.59 363.3 166.16 
M 361.36 174.8 367.07 173.68 
M 361.41 176.68 367.06 176.33 
M 361.14 178.93 366.51 180.25 
M 367.66 190.44 366.14 188.59 363.96 187.26 
M 373.06 124.33 374.89 123.54 377.25 121.53 378.74 119.28 
M 370.99 117.43 374.44 116.68 
M 371.11 118.54 376.17 118.79 
M 370.88 119.36 375.98 120.35 
M 370.05 137.22 371.96 136.3 374.4 133.95 375.98 131.28 375.98 129.64 374.4 126.97 371.93 124.61 
M 368.02 129.47 372.74 128.64 
M 367.94 130.16 372.71 130.51 
M 368.41 131.56 372.94 132.43 
M 367.77 153.08 368.74 152.5 371.28 149.41 372.92 145.91 372.92 143.75 371.28 140.25 368.78 137.21 
M 365.97 142.87 369.75 141.79 
M 365.18 144.74 369.81 145.18 
M 364.76 146.82 369.84 147.88 
M 369.5 175.24 370.03 174.85 372.59 171.1 374.24 166.85 374.24 164.22 372.59 159.97 370.03 156.22 368.04 154.76 
M 366.01 163.83 371.23 162.74 
M 366.37 165.18 371.35 165.83 
M 366.4 167.32 371.3 169.1 
M 376.22 188.05 376.22 186.55 374.64 182.54 372.2 178.99 370.29 177.61 
M 368.78 185.77 372.97 184.57 
M 368.06 187.71 373.4 188.14 
M 368.77 189.72 369.8 189.9 
M 377.65 131.14 379.9 130.27 382.79 128.04 384.65 125.52 384.65 123.96 383.32 122.16 
M 375.24 123 381.59 122.63 
M 375.19 124.3 381.32 124.38 
M 375.05 125.79 381.18 126.97 
M 374.98 146.34 377.33 145.26 380.33 142.49 382.26 139.35 382.26 137.4 380.33 134.26 377.33 131.49 375.41 130.6 
M 372.35 136.33 378.89 136.17 
M 372.69 138.57 378.95 138.71 
M 372.44 139.99 379.04 141.01 
M 374.25 166.01 376.66 164.68 379.75 161.26 381.74 157.38 381.74 154.99 379.75 151.11 376.66 147.69 374.25 146.36 
M 371.89 153.93 377.99 153.56 
M 372.07 156.07 377.87 156.35 
M 371.75 158.22 378.22 158.83 
M 375.81 187.9 378.19 186.49 381.22 182.85 383.18 178.74 383.18 176.19 381.22 172.08 378.19 168.44 375.81 167.02 
M 373.8 175.16 379.94 174.19 
M 373.66 177.71 380.02 177.16 
M 373.83 179.35 379.7 180.86 
M 382.71 138.56 384.74 137.47 
M 384.74 125.35 383.98 124.91 
M 381.19 129.84 384.74 129.74 
M 380.55 131.27 384.74 131.61 
M 381.02 132.39 384.74 133.61 
M 381.02 155.52 382.43 154.66 384.74 151.81 
M 384.74 141.79 382.43 138.94 381.57 138.41 
M 378.27 145.36 383.81 143.99 
M 378.08 146.83 383.47 146.93 
M 378.15 148.68 383.76 149.65 
M 382.48 177.65 383.83 176.7 384.74 175.44 
M 384.74 159.72 383.83 158.45 381.78 157.02 
M 379.76 165.09 384.74 164.85 
M 379.77 167.18 384.74 167.47 
M 380.23 169.28 384.67 170.52 
M 384.74 179.85 383.15 178.72 
M 207.15 221.2 207.03 221.12 
M 218.25 108.08 218.25 108.08 
M 216.42 222.25 217.61 220.27 217.61 218.41 215.81 215.42 213.02 212.78 210.84 211.75 
M 208.72 218.26 214.14 217.39 
M 209.09 219.14 214.29 219.73 
M 209.16 220.89 214.79 221.29 
M 216.97 219.22 218.47 218.42 221.04 215.68 222.69 212.58 222.69 210.66 222.34 209.99 
M 214.16 211.2 219.66 211.85 
M 230.93 221.14 231.1 220.92 231.1 219.17 229.01 216.36 225.78 213.87 223.26 212.9 
M 221.09 218.43 227.21 218.27 
M 220.38 221.48 224.7 221.86 
M 236.81 104.89 236.81 104.89 
M 228.38 212.5 233.81 211.45 
M 228.23 214.86 233.61 215.59 
M 243.02 216.17 250.16 215.26 
M 242.96 217.87 250.76 218.1 
M 244.35 219.41 244.39 219.41 
M 258.58 101.44 258.58 101.44 
M 253 211.8 259.73 210.94 
M 252.82 213.2 260.84 212.64 
M 253.42 215.12 260.7 215.63 
M 262.57 101.16 262.57 101.16 
M 290.97 101.55 290.97 101.55 
M 300.01 212.29 299.59 211.85 
M 308.1 209.28 310.26 208.09 313.38 204.64 315.39 200.74 315.39 198.63 
M 310.78 199.77 311.66 199.76 
M 309.35 202.04 312.08 202.12 
M 310.73 211.09 310.19 210.56 308.05 209.5 
M 315.53 98.99 315.53 98.99 
M 314.78 201.55 316.82 200.11 318.13 198.26 
M 321.05 209.33 319.38 205.6 316.79 202.41 314.77 201.16 
M 313.01 208.28 318.22 208.03 
M 312.44 210.56 315.48 210.34 
M 318.83 198.64 324.1 197.43 
M 327.24 201.53 328.57 200.44 330.95 196.39 
M 331.56 207.39 330.98 205.95 328.68 202.72 327.24 201.71 
M 325.1 208.51 325.35 208.48 
M 338.3 102.7 338.3 102.7 
M 331.41 102.06 331.41 102.06 
M 330.35 200.48 335.19 200.9 
M 341.98 205.88 341.66 205.02 339.51 201.69 338.07 200.58 
M 341.48 197.56 346.53 196.5 
M 340.62 201.41 345.77 202.39 
M 348.5 199.26 349.77 198.16 351.89 194.51 352.16 193.68 
M 357.9 202.7 359.35 199.22 359.35 196.79 357.6 192.72 
M 351.29 195.8 356.41 195.25 
M 351.01 197.9 356.83 197.8 
M 364.43 110.75 364.43 110.75 
M 358.76 197.99 360.35 196.71 362.56 193.14 363.12 191.56 
M 366.05 111.72 366.05 111.72 
M 367.66 112.69 367.66 112.69 
M 370.6 198.52 370.74 198.22 370.74 195.83 368.94 191.99 367.66 190.44 
M 362 194.7 367.16 194.07 
M 361.42 198.72 367 199.82 
M 370.29 197.99 372.2 196.6 374.64 193.06 376.22 189.04 376.22 188.05 
M 369.8 189.9 373.39 190.51 
M 374.24 195.82 379.93 194.51 
M 381.05 189.21 384.74 189.01 
M 381.42 190.6 384.74 191.68 
M 247.31 102.82 248.26 100.5 248.6 97.73 249.66 92.33 251.06 88.06 251.77 84.84 253.5 81.6 254.56 78.37 255.41 73.98 255.65 71.56 255.47 68.71 256.81 65.9 259.18 62.82 261.64 61.37 263.53 59.89 264.72 57.32 264.73 55.16 266.39 53.75 267.83 52.15 271.36 47.42 273.17 45.57 277.34 40.89 279.66 37.97 281.57 36.02 283.31 33.38 290.55 30 288.4 34.26 288.47 36.62 289.22 39.65 290.75 41.63 297.04 48.7 298.84 52.91 300.09 55.37 306.06 62.4 306.3 64.13 305.67 66.5 305.31 69.49 304.72 72.49 303.36 74.92 303.28 77.97 304.91 80.08 309.88 83.1 312.11 85.49 314.34 87.09 319.24 89.13 321.54 91.96 323.12 94.96 323.85 97.07 327.65 101.55 
M 326.35 101.37 326.35 101.37 
M 251.82 102.22 253.44 97.12 253.86 94.52 254.72 92.11 255.13 86.76 257.41 81.54 257.68 78.5 258.17 76.16 258.15 73.47 258.8 70.52 260.25 67.75 262.12 65.32 264.07 63.7 266.53 59.85 
M 256.34 101.67 257.36 99.44 258.11 93.66 258.02 90.95 259.13 85.42 260.07 82.7 260.33 80.63 261.85 78.62 262.45 75.71 265.07 71.12 266.32 68.08 269.74 62.27 273.66 57.34 277.47 54.94 279.59 53.03 281.63 50.02 283.2 46.58 286.35 44.6 288.34 42.6 
M 260.87 101.21 262.02 98.78 262.66 96.07 263 93.59 263.8 90.55 264.22 87.49 265.61 84.91 266.35 82.58 267.52 80.04 269.26 77.78 271.99 72.88 272.19 70.63 275.45 66.33 277.5 64.63 279.39 62.08 281.39 60.35 
M 265.42 101.26 266.66 99.08 267.32 96.84 267.58 94.03 268.77 91.36 270.48 89.03 271.94 86.36 272.86 83.57 274.47 80.9 275.03 77.64 275.1 75.26 277.92 70.87 280.27 69.7 282.5 68.11 285.64 66.17 288.57 63.94 
M 269.96 101.54 271.35 99.71 272.33 97.75 273.49 95.16 274.25 92.42 275.54 90.05 278.52 85.63 279.68 82.84 280.16 79.65 280.85 77.49 283.64 75.35 
M 274.47 102.18 276.06 100.38 276.9 95.94 278.27 92.98 282.29 89.11 283.73 86.83 283.87 83.12 285.27 79.8 287.6 78.31 292.46 75.67 296.1 73.81 298.73 72.81 
M 279 102.58 279.9 100.63 280.15 98.66 280.94 96.02 282.53 93.56 284.49 91.23 287.37 82.63 
M 283.55 102.77 284.05 98.62 284.82 95.82 287.34 88.24 288.59 85.14 289.86 83.05 292.04 81.82 294.22 79.56 297.78 77.44 300.97 76.23 
M 288.05 102.08 289.07 97.61 289.41 94.75 289.24 89.3 290.65 84.56 292.35 83.22 
M 292.49 101.1 293.26 99.37 293.46 97.08 293.56 93.62 293.36 88.13 294.01 86.03 295.83 84.59 
M 296.85 99.8 297.28 98.16 296.92 95.35 297.07 92.69 297.96 89.7 
M 301.29 98.8 301.97 94.28 303.52 89.57 
M 305.79 98.09 306.41 96.37 306.88 94.12 309.84 89.07 
M 310.34 98.22 310.36 98.23 
M 314.85 98.85 314.85 98.86 
M 319.31 99.77 322.83 100.37 
M 323.74 100.78 323.75 100.78 
M 218.1 158.8 250.97 146.57 251.31 147.42 218.24 161.63 
M 218.34 163.53 284.72 145.49 284.97 146.37 218.33 166.59 
M 218.21 168.39 304.78 153.8 304.95 154.7 217.97 171.49 
M 217.6 173.21 319.24 166.37 319.31 167.28 216.91 176.33 
M 216.58 177.87 324.93 181.5 324.91 182.41 215.98 180.95 
M 215.71 182.35 325.67 197.23 325.56 198.13 215.55 185.46 
M 215.61 186.83 319.33 211.78 319.12 212.67 215.72 190.04 
M 215.57 191.36 299.58 220.98 299.29 221.85 215.23 194.48 
M 215.23 194.51 250.45 211.65 250.07 212.48 214.75 197.42 
M 246.95 149.29 253.67 150.09 260.37 150.34 263.7 150.15 267.01 149.75 270.32 149.15 276.91 147.61 
M 277.23 148.71 280.76 151.31 282.59 152.43 284.49 153.38 286.46 154.13 290.63 155.05 294.99 155.45 
M 295.19 156.58 297.3 159.83 299.75 162.65 301.18 163.82 302.74 164.83 304.42 165.69 308.01 167.13 
M 308.1 168.27 308.14 171.55 308.68 174.63 309.24 176.06 310 177.41 310.94 178.69 313.16 181.11 
M 313.13 182.26 312.12 185.29 311.65 188.29 311.73 189.78 312.03 191.25 312.51 192.72 313.84 195.62 
M 313.7 196.76 311.39 199.02 309.59 201.5 308.98 202.87 308.56 204.33 308.31 205.87 308.14 209.09 
M 307.89 210.21 303.54 210.81 301.43 211.27 299.4 211.91 297.46 212.75 293.81 214.99 290.39 217.74 
M 290.02 218.83 280.52 215.63 275.73 214.2 270.91 212.96 266.04 211.94 256.17 210.49 246.19 209.58 
M 250.31 149.73 257.03 150.31 260.37 150.34 263.7 150.15 267.01 149.75 273.62 148.42 
M 278.98 150.04 282.59 152.43 284.49 153.38 286.46 154.13 288.51 154.68 292.79 155.28 
M 253.83 157.06 256.18 158.61 257.41 159.23 260.02 160.07 262.81 160.47 
M 296.22 158.23 298.46 161.31 299.75 162.65 301.18 163.82 302.74 164.83 306.19 166.44 
M 275.43 161.85 277.15 164.21 279.23 166.14 280.43 166.91 283.08 168.14 
M 254.64 165.47 256.52 167.82 258.12 168.98 259.96 169.84 
M 308.09 169.92 308.32 173.13 308.68 174.63 309.24 176.06 310 177.41 312.01 179.91 
M 284.53 171.66 284.71 174.12 284.98 175.27 286 177.4 287.54 179.32 
M 260.97 173.4 261.29 175.91 261.99 177.39 263.07 178.73 
M 312.59 183.78 311.79 186.8 311.65 188.29 311.73 189.78 312.03 191.25 313.14 194.17 
M 287.98 183.13 287.37 185.45 287.26 186.6 287.55 188.86 288.4 191.1 
M 263.37 182.49 262.87 184.9 263.07 186.48 263.66 188.03 
M 312.51 197.88 310.41 200.22 309.59 201.5 308.98 202.87 308.56 204.33 308.19 207.46 
M 287.92 194.79 286.31 196.59 285.68 197.57 284.89 199.74 284.61 202.14 
M 263.33 191.71 262.21 192.96 261.44 194.37 261.03 196.82 
M 305.7 210.47 301.43 211.27 299.4 211.91 297.46 212.75 295.6 213.78 292.08 216.33 
M 282.7 205.3 279.42 205.91 277.87 206.4 274.95 207.84 272.26 209.79 
M 259.7 200.12 257.42 200.55 255.3 201.34 252.44 203.25 
M 285.28 217.19 275.73 214.2 270.91 212.96 266.04 211.94 261.12 211.12 251.19 210 
M 247.31 225.01 250.72 227.09 256.32 231.54 259.56 233.8 262.56 235.15 264.45 236.83 265.79 237.58 268.27 238.63 271.74 241.02 274.84 242.39 278.1 249.97 277.95 253.17 276.59 255.17 274.99 256.92 273.71 258.97 273.72 262.27 272.95 266.74 266.37 280 263.47 271.58 260.29 267.44 258.82 264.56 256.8 260.17 255.96 255.63 253.61 252.22 251.71 248.31 248.9 242.25 245.79 234.66 243.61 232.31 241.69 229.66 240.12 226.27 
M 245.51 225.33 251.84 229.71 259.84 237.52 261.58 239.55 265.14 242.35 268.29 245.43 271.42 247.16 
M 243.72 225.64 246.42 228.22 249.42 230.35 252.07 232.5 254.84 235.31 256.34 237.98 257.5 240.61 259.52 242.15 260.85 243.46 
M 241.93 225.95 244.03 229.15 248.99 233.18 250.75 235.53 252.01 238.31 252.82 240.93 254.44 243.95 256.32 245.85 
M 362.27 206.3 367.76 212.74 371.03 215.62 369.32 219.84 364.18 226.27 362.04 227.98 359.29 228.99 354.05 229.05 348.24 230.58 345.54 230.95 343.61 232.04 341.17 232.59 338.38 231.88 334.4 229.86 326.97 223.82 324.4 220.56 319.16 215.49 
M 357.95 207.7 362.3 212.7 365.42 215.39 367.6 217.98 
M 353.58 208.99 361.51 218.65 364.47 221.58 
M 349.15 210.03 351.94 213.96 354.36 216.77 356.35 219.89 
M 344.67 210.85 349.68 216.86 
M 340.18 211.58 342.97 215.14 345.15 217.53 347.42 220.99 349.82 223.8 351.57 226.18 
M 335.68 212.25 340.34 218.8 341.75 222.75 343.61 225.86 
M 331.19 213 336.77 219.71 339.12 226.33 340.81 229.36 
M 326.72 213.84 330.09 217.77 332.85 220.67 334.63 223.89 337.46 227 339.21 230.35 
M 322.27 214.81 326.34 218.77 328.91 222.64 331.39 225.81 
M 383.83 122.48 387.18 121.44 392.27 119.07 395.11 117.28 399.4 115.05 402.26 113.78 407.45 110.55 410.66 109.18 416.09 105.42 419.6 103.84 424.88 99.93 427.46 98.86 429.42 96.24 430.76 95.21 436.72 92.45 440.61 89.95 443.87 88.65 445.93 86.15 449.41 82.93 447.53 92.33 447.77 95.53 447.63 98.33 445.92 102.53 446.22 105.3 446.25 107.74 445.99 110.6 445.6 113.62 444.44 115.87 443.81 125.33 443.2 128.06 443.23 130.42 443.74 132.54 444.09 135.47 442.58 137.68 441.53 140.36 440.28 142.63 439.99 145.66 438.98 147.98 439.37 151.04 440.01 153.19 441.18 155.86 441.39 159 440.51 164.22 440.68 169.92 441.16 173.16 441.31 175.94 440.82 183.04 441.45 185.96 441.28 188 442.31 193.62 442.45 196.12 443.63 201.87 445.41 208.01 445.79 210.69 445.35 217.36 447.19 224.1 447.47 226.98 447.05 234.84 448.21 242.31 445 241.58 443.76 240.96 441.86 239.42 438.45 237.15 437.05 235.27 435.69 233.82 434.43 231.51 432.14 228.93 429.56 226.73 422.73 223.34 419.85 222.73 417.77 222 416.21 221.02 408.78 215.08 406.16 213.55 404.28 211.75 402.73 209.79 400.61 208.14 394.99 204.49 391.69 202.78 389.19 201.09 383.83 196.55 
M 383.83 126.18 387.32 125.32 390.18 124.31 392.47 123.77 395.26 122.36 397.68 120.79 400.23 119.5 402.66 118.88 405.78 117.69 408.5 115.95 410.88 113.99 414.36 112.2 416.96 111.7 420.73 109.65 426.43 107.46 428.83 105.37 431.25 104.35 432.11 102.95 434.09 102.31 436.2 100.56 439.04 99.42 442.05 97.79 
M 390.17 128.32 392.66 127.94 394.98 127.91 397.77 126.27 400.46 124.37 403.69 123.15 408.63 120.89 414.43 117.45 418.9 115.09 423.31 114.06 426.58 112.65 430 111.7 432.56 110.24 435.28 109.71 
M 390.09 132.3 392.49 131.33 395.26 130.63 398.52 130.15 404.2 127.78 406.33 127.2 409.02 126.15 412.14 125.78 414.85 124.95 416.91 123.6 419.56 121.19 421.33 120.85 423.24 120.81 425.47 119.56 429.71 118.47 434.95 116.64 
M 392.36 135.73 394.89 135.02 398.65 133.67 401.79 132.93 407.72 131.67 409.98 131.37 412.33 131.37 420.73 128.29 426.61 127.29 428.49 125.81 430.65 124.76 
M 392.53 139.92 398.44 138.24 405.53 137.4 407.99 136.53 410.25 136.11 411.9 136.5 414.58 136.18 417.97 135.23 420.12 133.96 
M 392.62 144.01 402.61 143.05 405.63 142.16 408 142.06 411.04 142.2 413.65 141.96 416.14 141.22 421.74 139.01 424.23 138.85 427.22 137.64 429.13 137.28 430.97 136.4 
M 387.26 149.02 390.19 149.04 393.11 148.39 405.61 146.96 408.31 147.01 411.28 147.74 414.95 148.38 417.84 148.01 420.72 147.41 
M 387.28 153.25 390.41 153.51 399.52 152.29 402.09 151.74 404.56 151.59 408.57 152.14 418.38 152.68 420.58 152.27 423.17 152.71 425.8 152.92 
M 383.83 155.81 387.68 156.79 390.86 157.28 393.79 156.72 400.13 156.8 406.24 156.37 411.84 157.72 414.77 158.11 
M 390.61 160.47 399.96 161.01 406.23 162.08 409.8 161.47 412.68 160.73 414.9 160.86 417.8 161.41 
M 387.41 164.18 390.62 164.77 393.46 164.97 396.44 165.46 403.65 166.86 410.03 167.15 412.45 166.95 414.78 165.77 418.04 166.76 
M 390.57 169.01 393.02 169.89 399.63 171.06 406.39 173.04 411.49 172.37 420.3 174.41 423.45 174.74 
M 383.83 170.63 387.24 172.29 390.36 173.32 399.66 175.65 402.93 176.41 405.54 176.84 412.46 177.48 
M 390.5 177.16 396.72 178.88 399.46 179.32 401.83 180.25 405.06 181.26 406.99 182.37 412.53 183.05 418.93 185.61 
M 387.25 180.08 399.41 184.09 401.8 185.13 404.26 185.79 407.08 186.88 410.31 188.78 417.03 191.39 419.93 191.94 422.13 192.13 424.38 192.75 427 193.24 433.59 195.75 435.98 196.98 437.56 196.44 439.71 197.69 
M 383.83 181.74 387.07 183.66 396.29 187.62 399.43 188.59 407.09 192.07 409.84 193.89 412.59 195.39 415.03 196.94 417.52 197.58 420.25 197.64 
M 383.83 185.44 389.53 188.85 392.79 190.51 395.82 191.59 398.23 193.22 400.78 194.44 404.34 195.99 407.38 196.66 409.94 197.88 412.71 199.82 416.46 202.79 419.08 203.77 421.89 203.66 425.23 204.71 427.42 207.15 429.19 208.71 431.31 210.95 434.48 212.22 
M 392.24 194.79 394.37 196.24 397.29 197.93 400.48 199.27 403.91 199.83 409.49 202.83 411.53 204.82 412.08 206.7 414.27 208.44 417.46 210 423.43 211.69 425.12 213.01 427.47 213.97 429.71 215.6 435.2 217.08 437.69 219.39 
M 383.83 192.85 386.92 195.06 391.75 198.92 393.85 200.79 397.27 201.95 403.4 204.98 409.92 210.72 411.82 212.21 414.12 213.17 417.23 213.85 419.78 215.2 421.18 217.09 423.4 218.7 
M 95.07 141.79 97.47 138.49 100.08 135.74 103.55 133.38 108.22 130.84 113.99 127.4 127.62 122.28 143.97 118.93 153.09 116.73 162.09 115.14 171.31 112.71 180.73 110.96 189.4 110.12 203.51 109.43 211.38 108.78 213.56 115.11 214.13 121.36 215.39 140.09 216.2 146.35 217.65 152.66 218.42 165.14 218.01 171.33 215.47 183.61 215.74 189.84 215.06 196.02 213.67 202.15 209.61 214.34 207.4 220.42 204.23 226.48 189.56 226.34 178.59 225.64 169.09 224.37 160.24 222.04 152.15 218.72 144.96 214.79 137.85 210.39 130.49 205.24 123.11 199.57 116.87 192.99 112.02 186.05 
M 109.64 182.57 107.39 179.26 100.65 166.14 98.16 159.26 96.56 153.58 96.37 152.32 
M 95.1 142.05 95.07 141.79 
M 187.62 141.06 187.76 146.38 187.31 151.37 185.86 155.96 181.47 164.13 181.07 167.68 179.93 174.77 179.58 178.73 179.89 183.12 180.45 187.94 180.32 193.49 156.97 196.06 150.15 195.73 143.53 194.16 137.44 191.52 131.35 187.9 
M 110.81 185.17 102.84 167.36 97.45 154.53 93.53 146.42 93.02 144.14 93.96 142.22 96.13 141.89 97.88 143.29 100.42 149.45 101.93 153.85 105.15 164.85 112.15 186 
M 109.75 185.96 98.54 181.38 85.82 176.8 79.55 174.22 73.15 171.81 71.13 170.67 70.58 168.48 72.05 166.69 74.48 166.55 82.39 170.51 92.24 175.83 100.62 179.7 110.59 185.06 
M 111.67 185.61 111.92 185.73 
M 149.19 150.56 147.53 148.24 146.72 145.51 146.84 142.67 147.87 140.02 149.71 137.84 152.16 136.39 154.95 135.8 157.77 136.15 160.33 137.4 162.34 139.42 163.59 141.98 163.95 144.8 163.36 147.59 161.9 150.03 159.73 151.87 157.08 152.91 154.23 153.03 151.51 152.21 149.19 150.56 
M 160.93 140.42 161.94 142.47 162.22 144.73 161.75 146.96 160.58 148.92 158.85 150.39 156.72 151.22 154.45 151.31 152.26 150.66 150.41 149.34 
M 152.17 146.21 151.51 145.28 151.19 144.19 151.24 143.05 151.65 141.99 152.39 141.12 153.36 140.54 154.48 140.3 155.61 140.45 156.63 140.95 157.44 141.75 157.94 142.77 158.08 143.9 157.84 145.02 157.26 146 156.39 146.73 155.33 147.15 154.19 147.19 153.1 146.87 152.17 146.21 
M 151.9 145.45 153.41 146.96 
M 151.89 142.99 155.85 146.94 
M 153.31 141.95 157.3 145.93 
M 154.36 140.54 158.02 144.19 
M 106.81 178.14 108.22 179.55 
M 110.95 182.28 111.9 183.23 
M 101.05 166.91 104.03 169.89 
M 97.88 158.29 99.88 160.28 
M 96.16 140.18 98.97 142.99 
M 98.67 137.22 102.32 140.88 
M 101.61 134.7 104.73 137.83 
M 104.98 132.61 109.64 137.28 
M 108.5 130.68 111.94 134.12 
M 111.92 128.63 114.81 131.52 
M 115.58 126.83 118.48 129.73 
M 119.58 125.37 124.87 130.66 
M 123.54 123.86 128.85 129.18 
M 127.47 122.34 130.68 125.55 
M 131.95 121.35 136.56 125.97 
M 136.46 120.4 141.77 125.72 
M 141.03 119.51 144.19 122.67 
M 145.54 118.55 148.88 121.9 
M 149.94 117.49 153.1 120.66 
M 154.41 116.5 159.21 121.31 
M 159.04 115.68 163.74 120.37 
M 163.57 114.75 167.34 118.52 
M 167.9 113.61 173.35 119.06 
M 172.28 112.53 176.32 116.56 
M 176.88 111.67 180.54 115.33 
M 181.55 110.88 184.93 114.26 
M 186.53 110.4 190.03 113.9 
M 191.61 110.01 195.71 114.11 
M 196.82 109.76 202.11 115.05 
M 202.02 109.5 206.99 114.47 
M 207.15 109.16 212.31 114.33 
M 143.26 120.31 144.84 120.5 145.72 120.98 149.44 123.76 151.11 124.64 151.97 125.51 153.09 125.9 
M 165.78 212.6 164.03 213.06 162.3 212.86 
M 194.49 210.86 194.02 211.14 191.93 211.63 190.21 212.34 188.4 212.58 186.99 212.29 186.21 211.85 185.03 210.81 
M 167.28 162.25 169.7 160.42 170.26 160.28 172.27 160.49 172.81 160.24 173.29 159.53 
M 144.13 183.99 144.1 184.68 143.44 185.45 139.6 187.8 137.35 188.76 136.01 189.6 
M 146.44 138.87 145.99 138.62 146.15 136.99 
M 123.87 176.47 125.64 175.92 126.09 175.5 126.89 174.18 128.05 173.29 
M 120.78 159.09 119.25 157.19 116.53 155.43 115.55 154.14 114.39 153.21 
M 198.54 144.62 198.38 144.13 197.82 143.74 194.09 143.33 192.16 142.28 
M 181.41 188.01 182.41 189.22 182.86 190.65 182.87 191.22 182.31 192.62 180.55 195.52 
M 103.64 148.32 101.99 145.25 101.34 144.64 98.26 143.01 97.05 142.63 
M 95.31 142.02 95.08 141.91 
M 199.06 180.58 198.54 181.1 
M 195.62 144.04 193.98 143.51 192.14 142.42 190.16 141.6 189.84 141.6 189.64 141.8 
M 193.53 177.21 193.6 175.43 191.37 169.81 191.05 168.49 190.73 165.79 189.98 164.88 
M 150.12 174.19 150.03 174.65 150.85 176.57 
M 184.07 137.63 184.34 138.28 185 138.57 185.84 138.55 186.71 138.27 
M 167.62 114.67 168.53 114.36 169.23 114.31 169.61 114.5 170.04 115.06 170.25 116 170.26 117.23 169.7 118.37 
M 154.09 219.52 153.9 217.52 154.14 215.37 154.95 213.18 155.84 211.89 155.98 209.99 
M 212.67 156.02 210.8 156.55 
M 190.36 163.96 189.2 163.42 188.2 161.96 185.03 159.5 
M 146.94 175.37 149.1 177.23 150.35 178.82 151.04 181.06 151.01 183.34 
M 123.23 182.48 123.16 184.17 122.86 184.45 121.78 184.89 
M 122.84 183.41 122.98 183.83 122.9 184.33 121.46 185.11 
M 184.83 161.74 182.14 160.18 180.02 158.34 179.55 158.16 
M 177.43 198.58 177.62 199.08 178.45 199.91 178.57 200.22 178.46 200.45 
M 104.77 172.8 104.01 172.69 
M 190.39 214.12 189.6 214.16 187.67 213.63 184.55 211.88 183.66 211.03 182.67 209.08 
M 194.28 205.51 194.12 206.1 194.32 207.12 
M 155.57 135.14 155.43 132.46 155.62 131.27 155.89 130.63 156.39 130.02 158.51 128.48 159.55 128.05 
M 211.06 195.64 210.63 195.28 209.05 193.03 206.77 191.63 204.81 189.93 203.76 188.71 203.25 187.49 
M 201.16 179.79 203 179.78 203.81 180.01 204.73 180.69 205.29 181.93 
M 128.88 161.01 127.71 158.62 126.39 157.31 126.04 156.38 125.82 154.95 
M 210.58 153.25 211.71 154.31 212.3 155.27 212.36 155.68 211.91 156.15 
M 206.95 144.33 207.93 143.57 210.43 140.89 212.26 139.96 214.39 139.51 
M 137.71 161.85 137.41 159.59 137.69 158.6 138.2 158.17 139.23 158.07 140.29 157.76 
M 138.24 161.68 138.07 159.68 138.16 158.92 138.57 158.56 140.31 157.81 
M 158.74 192.49 159.65 194.49 160.85 195.93 161.87 196.48 164.3 196.84 
M 173.33 203.13 173.63 202.23 174.34 201.52 174.89 201.21 176.12 200.97 177.82 201.2 178.24 200.98 
M 197.93 209.9 198.37 210.15 198.73 210.11 199.6 209.22 
M 183.9 142.99 184.97 143.79 186.46 144.61 188.71 145.05 189.15 144.98 189.51 144.66 
M 154.1 182.55 154.08 182 153.54 181.67 152.89 181.85 152.38 182.37 
M 197.26 153.01 197.96 150.9 200.91 145.46 201.91 142.6 203.61 139.16 
M 191.63 144.97 189.93 143.36 189.69 143.39 189.67 143.67 
M 211.06 190.14 207.85 189.46 206.76 188.89 205.95 188.1 204.27 185.83 
M 117.96 141.25 121.17 141.65 122.34 142.31 122.84 143.12 
M 158.2 181.06 156.95 174.75 157.66 172.53 157.79 171.19 
M 118.37 170.57 116.21 171.97 115.72 172.71 115.76 173.68 116.79 174.93 
M 161.76 210.1 162.19 211.26 162.17 212.63 
M 132.94 166.52 133.31 166.04 133.38 165.68 133.28 164.42 133.02 163.82 131.43 161.24 129.76 159.24 129.33 158.31 
M 140.79 175.44 144.94 177.94 146.41 179.24 148.02 180.9 148.52 181.62 149.15 182.78 149.18 183.59 
M 144.42 127.37 145.11 127.14 146.28 127.32 146.72 127.74 146.37 128.3 
M 182.9 130.34 182.09 130.98 180.68 131.35 180.44 131.81 
M 173.82 160.67 173.95 159.86 173.82 157.64 174.5 156.5 175.17 155.88 
M 189.18 206.1 189.12 208.03 188.62 209.34 188.17 209.76 187.7 209.9 186.57 209.72 
M 113.53 154.53 111.82 155.83 111.24 155.78 
M 191.05 114.34 187.9 112.15 
M 216.33 174.84 217.09 174.31 217.13 173.11 216.93 172.28 215.99 170.47 
M 165.36 153.65 166.49 153.22 167.14 153.2 167.78 153.45 168.19 154.1 
M 199.61 198.28 199.29 196.76 198.81 191.84 197.74 185.94 
M 186.62 157.38 182.17 158.38 180.29 158.02 179.39 158.06 
M 115.87 171.99 115.38 172.64 115.23 173.14 115.47 174.04 116.27 174.92 118.94 176.81 
M 191.04 111.05 190.27 110.08 
M 184.41 125.44 182.33 123.7 181.53 123.38 179.75 123.39 177.98 123.67 175.52 124.66 
M 152.23 189.06 152.4 189.35 155.38 191.44 156.56 192.68 157.99 193.69 159.72 195.77 
M 187.15 134.4 189.86 135.37 193.84 138.14 
M 187.7 206.65 187.86 207.84 187.52 209.16 187.26 209.39 186.69 209.53 185.59 209.36 
M 182.53 122.92 182.07 122.71 180.88 122.56 178.48 122.79 177.61 123.02 175.37 124.05 174.05 125.35 173.23 125.92 
M 160.49 157.88 159.38 157.86 158.86 158.03 157.95 158.78 157.67 159.33 157.24 162.66 157.64 163.85 158.42 164.55 
M 141.97 189.11 140.44 189.9 137.72 190.77 136.95 190.81 135.22 190.44 
M 210.91 116.21 208.71 113.59 206.52 109.21 
M 212.44 188.22 209.19 188.37 207.86 188.01 206.97 187.57 205.24 185.73 
M 181.6 136.79 183.39 137.69 184.13 138.4 184.72 138.59 
M 211.42 154.06 211.86 154.64 212.23 155.53 211.94 156.03 211.29 156.43 
M 137.76 130.67 138.51 129.46 138.89 128.23 140.31 127.42 
M 112.77 186.71 110.65 188.59 106.1 191.73 104.09 193.33 103.3 194.24 102.74 195.27 102.45 196.42 102.42 197.61 102.71 198.77 103.32 199.83 104.18 200.75 108.58 203.88 109.66 204.79 110.54 205.88 111.66 208.4 112.39 211.04 111.55 208.44 110.26 206.08 109.34 205.12 108.26 204.35 104.68 202.33 102.43 200.54 101.58 199.29 101.08 197.83 100.98 196.29 101.23 194.76 101.85 193.34 102.74 192.1 104.84 190.11 109.02 186.69 110.84 184.78 
M 111.95 186.09 112.15 186.59 
M 108.74 180.65 108.43 181.38 109.05 181.29 
M 106.39 175.39 105.6 176.02 105.05 177.02 105.8 176.52 106.84 176.43 
M 104.17 170.22 102.55 171.28 101.68 172.66 102.75 171.78 104.68 171.42 
M 101.9 165.13 99.49 166.54 98.3 168.29 99.7 167.04 102.43 166.39 
M 99.75 159.99 96.44 161.8 94.92 163.93 96.64 162.3 100.3 161.32 
M 97.59 154.86 93.39 157.06 91.54 159.57 93.59 157.56 98.19 156.23 
M 95.14 149.9 90.33 152.32 88.16 155.2 90.54 152.82 95.79 151.22 
M 93.14 144.7 87.28 147.58 84.79 150.84 87.48 148.08 93.48 146.18 
M 111.9 185.79 112.65 186.11 
M 106.64 182.98 107.17 182.6 107.8 182.39 107.67 182.82 107.77 183.6 
M 102.04 180.45 102.78 179.56 103.79 179.04 103.28 179.78 103.13 181.04 
M 97.28 178.14 98.38 176.52 99.78 175.68 98.89 176.74 98.47 178.7 
M 92.48 175.94 93.99 173.48 95.78 172.33 94.49 173.7 93.75 176.54 
M 87.85 173.48 89.6 170.45 91.77 168.97 90.1 170.66 89.08 174.14 
M 83.25 170.97 85.21 167.41 87.76 165.62 85.71 167.62 84.45 171.63 
M 78.56 168.61 80.82 164.37 83.75 162.26 81.32 164.58 79.78 169.24 
M 73.7 166.6 76.43 161.33 79.74 158.91 76.93 161.54 75.11 166.85 
M 79.18 174.08 91.21 183.84 97.28 188.21 103.02 191.82 
M 104.7 192.8 110.07 195.8 116.77 199.14 130.49 205.24 
M 212.68 112.55 214.99 114.87 
M 215.74 108.33 225.84 118.43 
M 222.25 107.56 232.26 117.57 
M 228.54 106.57 238.55 116.58 
M 234.63 105.37 245.07 115.81 
M 240.6 104.07 250.9 114.37 
M 246.74 102.93 252.5 108.68 
M 253.14 102.04 260.5 109.4 
M 259.71 101.33 266.72 108.34 
M 266.98 101.31 274.95 109.29 
M 275.24 102.29 283.92 110.98 
M 283.03 102.8 289.04 108.82 
M 289.38 101.87 296.36 108.84 
M 295.11 100.32 302.82 108.03 
M 300.95 98.87 306.73 104.65 
M 307.5 98.14 317.29 107.93 
M 315.66 99.02 321.86 105.22 
M 324.98 101.06 332.87 108.95 
M 333.55 102.35 341.53 110.33 
M 341.46 102.98 349.16 110.67 
M 350.28 104.51 356.58 110.81 
M 362.88 109.83 371.1 118.05 
M 381.09 120.76 385.45 125.11 
M 278.94 130.87 279.54 130.86 280.24 131.44 280.34 132.03 279.74 132.04 279.04 131.46 278.94 130.87 
M 279.71 132.14 279.47 131.59 279.74 130.72 280.26 130.4 280.5 130.96 280.22 131.82 279.71 132.14 
M 276.44 126.73 275.86 126.56 275.36 125.79 275.45 125.2 276.02 125.37 276.52 126.13 276.44 126.73 
M 276.57 126.26 275.97 126.18 275.37 125.5 275.36 124.89 275.96 124.97 276.56 125.66 276.57 126.26 
M 287.03 134.77 286.5 135.05 285.61 134.84 285.26 134.35 285.8 134.07 286.68 134.28 287.03 134.77 
M 286.84 134.54 286.27 134.74 285.42 134.41 285.14 133.87 285.71 133.67 286.56 134.01 286.84 134.54 
M 287.57 122.7 287.12 122.3 287 121.4 287.33 120.89 287.78 121.29 287.9 122.19 287.57 122.7 
M 288.12 121.6 287.62 121.94 286.71 121.83 286.31 121.38 286.81 121.05 287.71 121.16 288.12 121.6 
M 271.13 132.75 271.5 132.27 272.39 132.09 272.92 132.38 272.55 132.86 271.66 133.04 271.13 132.75 
M 271.77 131.92 272.15 132.38 272.12 133.29 271.71 133.74 271.34 133.27 271.36 132.36 271.77 131.92 
M 292.28 137.95 292.81 138.23 293.14 139.08 292.94 139.64 292.41 139.36 292.08 138.52 292.28 137.95 
M 292.88 139.43 292.49 138.98 292.49 138.07 292.88 137.61 293.28 138.07 293.28 138.98 292.88 139.43 
M 286.7 146.52 286.11 146.46 285.48 145.8 285.45 145.2 286.05 145.26 286.68 145.92 286.7 146.52 
M 285.67 146.42 285.86 145.85 286.64 145.38 287.23 145.49 287.04 146.06 286.26 146.53 285.67 146.42 
M 296.45 144.89 297.01 145.1 297.45 145.9 297.32 146.49 296.76 146.28 296.32 145.48 296.45 144.89 
M 296.22 145.5 296.82 145.48 297.53 146.05 297.64 146.64 297.04 146.66 296.33 146.09 296.22 145.5 
M 293.7 153.53 294.03 154.03 293.89 154.93 293.44 155.33 293.11 154.82 293.25 153.92 293.7 153.53 
M 294.21 154.68 293.61 154.64 292.97 154 292.92 153.4 293.52 153.44 294.17 154.08 294.21 154.68 
M 266.36 120.98 266.56 121.55 266.22 122.4 265.69 122.67 265.49 122.11 265.82 121.26 266.36 120.98 
M 266.7 121.68 266.18 121.98 265.29 121.81 264.91 121.33 265.44 121.03 266.33 121.21 266.7 121.68 
M 259.39 132.18 259.11 131.65 259.31 130.76 259.79 130.4 260.08 130.93 259.88 131.82 259.39 132.18 
M 259.52 131.98 259.4 131.39 259.84 130.6 260.41 130.4 260.53 130.99 260.08 131.78 259.52 131.98 
M 265.79 129.22 266.21 128.8 267.12 128.73 267.6 129.09 267.18 129.51 266.27 129.58 265.79 129.22 
M 267.3 128.81 266.89 129.25 265.99 129.36 265.49 129.02 265.9 128.57 266.8 128.47 267.3 128.81 
M 266.62 137.92 266.02 137.83 265.43 137.14 265.44 136.54 266.03 136.63 266.62 137.32 266.62 137.92 
M 265.54 137.72 265.82 137.19 266.66 136.84 267.23 137.04 266.96 137.57 266.11 137.92 265.54 137.72 
M 299.5 138.06 299.14 137.58 299.21 136.67 299.63 136.24 299.99 136.73 299.93 137.63 299.5 138.06 
M 299.65 136.46 299.76 137.05 299.31 137.84 298.74 138.04 298.62 137.44 299.08 136.66 299.65 136.46 
M 303.16 145.3 303.73 145.51 304.17 146.3 304.05 146.89 303.48 146.68 303.04 145.89 303.16 145.3 
M 303.45 146.77 303.4 146.17 303.94 145.44 304.53 145.3 304.57 145.9 304.03 146.64 303.45 146.77 
M 283.64 152.76 283.36 152.22 283.57 151.34 284.05 150.98 284.34 151.52 284.13 152.4 283.64 152.76 
M 284.2 151.28 284.07 151.86 283.33 152.4 282.73 152.34 282.87 151.76 283.6 151.22 284.2 151.28 
M 258.51 145.66 258.52 145.06 259.12 144.38 259.71 144.29 259.71 144.9 259.11 145.58 258.51 145.66 
M 259.8 145.09 259.2 145.18 258.43 144.69 258.26 144.11 258.86 144.02 259.62 144.51 259.8 145.09 
M 246.85 132.33 246.64 131.77 246.96 130.92 247.49 130.63 247.7 131.2 247.38 132.05 246.85 132.33 
M 247.1 132.17 246.97 131.58 247.42 130.79 247.99 130.58 248.11 131.17 247.66 131.97 247.1 132.17 
M 256.09 122.99 256.43 123.49 256.31 124.4 255.86 124.8 255.53 124.3 255.65 123.39 256.09 122.99 
M 256.66 124 256.07 124.09 255.3 123.61 255.12 123.04 255.71 122.94 256.48 123.42 256.66 124 
M 253.68 134.15 254.27 134.26 254.84 134.98 254.81 135.58 254.22 135.46 253.65 134.75 253.68 134.15 
M 253.76 135.36 254.03 134.82 254.87 134.47 255.44 134.65 255.17 135.19 254.34 135.55 253.76 135.36 
M 251.85 141.31 252.2 140.81 253.08 140.59 253.62 140.86 253.27 141.36 252.39 141.58 251.85 141.31 
M 252.31 140.54 252.81 140.88 253.04 141.76 252.77 142.3 252.28 141.96 252.04 141.08 252.31 140.54 
M 248.5 125.14 248.25 124.6 248.49 123.72 249 123.39 249.25 123.94 249.01 124.81 248.5 125.14 
M 248.53 124.92 248.54 124.32 249.14 123.64 249.74 123.57 249.73 124.17 249.13 124.85 248.53 124.92 
M 243.67 139.52 244.26 139.62 244.84 140.33 244.82 140.93 244.23 140.83 243.65 140.12 243.67 139.52 
M 243.71 139.79 244.27 140.01 244.69 140.81 244.56 141.4 243.99 141.18 243.57 140.38 243.71 139.79 
M 261.09 118.39 260.67 118.83 259.77 118.91 259.28 118.55 259.7 118.12 260.6 118.04 261.09 118.39 
M 260.87 118.41 260.32 118.65 259.45 118.36 259.15 117.84 259.7 117.61 260.57 117.9 260.87 118.41 
M 270.37 119.59 270.73 119.11 271.62 118.92 272.15 119.2 271.79 119.69 270.9 119.88 270.37 119.59 
M 270.92 118.79 271.36 119.2 271.46 120.11 271.12 120.6 270.67 120.19 270.58 119.29 270.92 118.79 
M 267.21 111.19 266.65 111 266.19 110.21 266.3 109.62 266.87 109.81 267.33 110.6 267.21 111.19 
M 266.53 109.75 266.89 110.23 266.83 111.14 266.41 111.57 266.04 111.09 266.1 110.18 266.53 109.75 
M 260.7 111.41 260.53 111.98 259.76 112.47 259.17 112.38 259.34 111.8 260.11 111.32 260.7 111.41 
M 260.63 111.91 260.05 112.08 259.22 111.7 258.97 111.15 259.55 110.98 260.38 111.36 260.63 111.91 
M 252.55 113.18 252.05 112.83 251.84 111.95 252.11 111.41 252.6 111.76 252.82 112.64 252.55 113.18 
M 252.55 111.64 252.54 112.24 251.93 112.91 251.33 112.98 251.34 112.38 251.96 111.71 252.55 111.64 
M 248.96 118.33 248.4 118.54 247.54 118.23 247.25 117.7 247.82 117.49 248.67 117.81 248.96 118.33 
M 247.46 118.28 247.93 117.89 248.84 117.91 249.28 118.31 248.82 118.7 247.91 118.68 247.46 118.28 
M 314.5 139.14 314.68 139.72 314.31 140.55 313.76 140.8 313.59 140.23 313.96 139.4 314.5 139.14 
M 313.69 140.51 313.91 139.95 314.72 139.53 315.31 139.67 315.09 140.23 314.28 140.65 313.69 140.51 
M 309.69 157.33 309.71 156.73 310.32 156.06 310.92 155.99 310.9 156.59 310.29 157.26 309.69 157.33 
M 310.05 157.31 310.09 156.71 310.73 156.06 311.33 156.01 311.29 156.61 310.65 157.26 310.05 157.31 
M 312.5 149.75 313.02 150.04 313.33 150.9 313.12 151.46 312.59 151.17 312.28 150.31 312.5 149.75 
M 312.23 151 312.61 150.52 313.5 150.35 314.02 150.65 313.65 151.12 312.76 151.3 312.23 151 
M 289.06 127.37 289.66 127.34 290.38 127.89 290.5 128.48 289.9 128.52 289.18 127.96 289.06 127.37 
M 289.94 127.25 289.99 127.85 289.45 128.59 288.86 128.72 288.81 128.12 289.35 127.39 289.94 127.25 
M 305.99 138.18 306.56 137.97 307.41 138.29 307.69 138.82 307.13 139.03 306.28 138.7 305.99 138.18 
M 306.96 137.81 307.04 138.41 306.55 139.18 305.97 139.35 305.89 138.75 306.38 137.98 306.96 137.81 
M 318.09 156.79 317.49 156.69 316.91 156 316.91 155.4 317.51 155.49 318.1 156.19 318.09 156.79 
M 317 155.61 317.54 155.88 317.89 156.72 317.7 157.29 317.17 157.02 316.82 156.18 317 155.61 
M 324.47 148.39 325 148.68 325.33 149.53 325.12 150.09 324.59 149.81 324.27 148.96 324.47 148.39 
M 324.79 148.55 324.98 149.12 324.63 149.96 324.09 150.22 323.9 149.65 324.25 148.81 324.79 148.55 
M 317.43 145.87 318.01 145.71 318.83 146.1 319.08 146.65 318.5 146.81 317.68 146.42 317.43 145.87 
M 318.77 146.72 318.22 146.48 317.84 145.65 318 145.07 318.55 145.32 318.94 146.14 318.77 146.72 
M 241.92 123.09 241.59 122.59 241.72 121.69 242.17 121.29 242.5 121.8 242.37 122.7 241.92 123.09 
M 242.73 122.28 242.14 122.39 241.35 121.93 241.16 121.36 241.75 121.25 242.54 121.71 242.73 122.28 
M 238.98 130.49 238.69 129.96 238.9 129.07 239.38 128.72 239.67 129.25 239.46 130.14 238.98 130.49 
M 239.02 128.93 239.33 129.45 239.17 130.34 238.71 130.72 238.4 130.21 238.55 129.31 239.02 128.93 
M 242.22 113.69 242.83 113.68 243.53 114.26 243.63 114.85 243.02 114.87 242.32 114.29 242.22 113.69 
M 242.43 114.75 242.71 114.22 243.56 113.9 244.13 114.11 243.84 114.64 242.99 114.96 242.43 114.75 
M 249.04 107.46 248.44 107.46 247.75 106.85 247.67 106.26 248.28 106.26 248.96 106.86 249.04 107.46 
M 247.89 106.35 248.41 106.65 248.71 107.51 248.49 108.07 247.97 107.77 247.67 106.91 247.89 106.35 
M 234.72 106.23 234.71 106.83 234.09 107.51 233.5 107.58 233.51 106.97 234.13 106.3 234.72 106.23 
M 234.73 106.6 234.3 107.01 233.39 107.07 232.91 106.7 233.34 106.28 234.25 106.23 234.73 106.6 
M 232.23 118.71 232.14 119.31 231.45 119.9 230.84 119.9 230.93 119.3 231.63 118.71 232.23 118.71 
M 231.99 119.83 231.48 119.51 231.2 118.65 231.44 118.09 231.95 118.41 232.23 119.27 231.99 119.83 
M 240.86 106.2 240.61 105.65 240.87 104.78 241.38 104.45 241.63 105 241.37 105.87 240.86 106.2 
M 241.37 104.68 241.33 105.28 240.7 105.93 240.1 105.98 240.13 105.38 240.77 104.73 241.37 104.68 
M 234.54 112.99 235.1 113.21 235.52 114.02 235.38 114.6 234.82 114.38 234.4 113.57 234.54 112.99 
M 235.64 113.66 235.11 113.95 234.22 113.77 233.86 113.29 234.38 112.99 235.27 113.18 235.64 113.66 
M 253.79 103.91 253.19 103.86 252.56 103.21 252.52 102.61 253.12 102.66 253.76 103.31 253.79 103.91 
M 253.79 102.98 253.34 103.38 252.43 103.39 251.97 103 252.42 102.6 253.33 102.59 253.79 102.98 
M 259.32 105.15 259.05 104.62 259.26 103.73 259.76 103.39 260.03 103.92 259.81 104.81 259.32 105.15 
M 259.52 104.96 259.35 104.39 259.73 103.56 260.28 103.31 260.45 103.89 260.07 104.71 259.52 104.96 
M 311.8 128.49 312.4 128.44 313.14 128.97 313.28 129.56 312.68 129.61 311.94 129.07 311.8 128.49 
M 313.2 129.23 312.6 129.23 311.91 128.64 311.83 128.04 312.43 128.04 313.12 128.64 313.2 129.23 
M 305.6 131.4 305.65 130.8 306.3 130.17 306.9 130.13 306.85 130.73 306.2 131.37 305.6 131.4 
M 305.74 130.29 306.29 130.55 306.65 131.38 306.48 131.96 305.93 131.7 305.57 130.87 305.74 130.29 
M 321.9 131.24 322.2 131.76 322.03 132.66 321.56 133.03 321.26 132.51 321.43 131.61 321.9 131.24 
M 321.41 132.75 321.51 132.16 322.22 131.58 322.82 131.6 322.71 132.19 322.01 132.77 321.41 132.75 
M 324.67 158.84 324.55 159.43 323.83 159.99 323.23 159.96 323.35 159.37 324.07 158.81 324.67 158.84 
M 323.76 160.07 323.74 159.46 324.32 158.76 324.91 158.66 324.93 159.26 324.35 159.96 323.76 160.07 
M 329.55 159.73 329.01 159.47 328.65 158.63 328.83 158.06 329.37 158.32 329.73 159.16 329.55 159.73 
M 328.87 159.51 328.97 158.92 329.67 158.34 330.27 158.35 330.18 158.94 329.47 159.52 328.87 159.51 
M 298.93 130.93 299.29 130.45 300.18 130.26 300.71 130.55 300.35 131.03 299.46 131.22 298.93 130.93 
M 299.19 130.45 299.78 130.52 300.4 131.2 300.41 131.8 299.82 131.73 299.2 131.06 299.19 130.45 
M 230.83 125.77 230.26 125.96 229.42 125.61 229.15 125.07 229.72 124.88 230.56 125.23 230.83 125.77 
M 230.29 124.79 230.21 125.39 229.53 125.99 228.92 126 229 125.4 229.68 124.8 230.29 124.79 
M 314.61 122.57 315.14 122.28 316.03 122.48 316.38 122.97 315.85 123.25 314.97 123.05 314.61 122.57 
M 316.02 122.31 315.71 122.83 314.84 123.1 314.29 122.86 314.6 122.35 315.47 122.08 316.02 122.31 
M 306.67 124.55 307.05 124.08 307.95 123.92 308.46 124.23 308.08 124.7 307.19 124.86 306.67 124.55 
M 306.92 124.62 307.39 124.26 308.3 124.31 308.73 124.73 308.25 125.1 307.35 125.04 306.92 124.62 
M 294.3 121.17 294.9 121.1 295.65 121.62 295.81 122.2 295.21 122.27 294.46 121.75 294.3 121.17 
M 294.4 121.46 295 121.47 295.68 122.08 295.75 122.68 295.15 122.67 294.47 122.06 294.4 121.46 
M 303.05 119.95 302.45 119.88 301.84 119.21 301.82 118.6 302.42 118.67 303.03 119.35 303.05 119.95 
M 302.65 118.62 302.65 119.22 302.05 119.91 301.45 119.99 301.45 119.39 302.05 118.7 302.65 118.62 
M 335.61 147.83 335.25 148.32 334.37 148.52 333.84 148.25 334.19 147.76 335.07 147.55 335.61 147.83 
M 334.31 147.48 334.8 147.83 335.01 148.72 334.73 149.25 334.24 148.9 334.03 148.02 334.31 147.48 
M 331.2 137.77 331.7 138.1 331.96 138.97 331.71 139.52 331.2 139.19 330.95 138.32 331.2 137.77 
M 330.87 139.02 331.25 138.56 332.15 138.41 332.66 138.73 332.28 139.19 331.38 139.33 330.87 139.02 
M 338.45 131.67 339.03 131.52 339.85 131.92 340.08 132.47 339.5 132.63 338.68 132.23 338.45 131.67 
M 339.8 132.51 339.24 132.29 338.82 131.48 338.95 130.9 339.52 131.12 339.94 131.92 339.8 132.51 
M 338.94 139.05 339.29 139.54 339.21 140.44 338.77 140.86 338.42 140.37 338.51 139.47 338.94 139.05 
M 338.54 139.34 338.96 139.76 339.03 140.67 338.67 141.15 338.24 140.73 338.18 139.82 338.54 139.34 
M 331.11 128.93 330.51 128.88 329.88 128.22 329.85 127.62 330.45 127.67 331.08 128.33 331.11 128.93 
M 330.27 128.93 330.27 128.33 330.87 127.65 331.47 127.56 331.46 128.16 330.87 128.85 330.27 128.93 
M 328.76 133.82 328.16 133.77 327.53 133.11 327.5 132.51 328.1 132.56 328.73 133.22 328.76 133.82 
M 327.57 133.57 327.93 133.09 328.82 132.89 329.35 133.18 328.99 133.66 328.1 133.86 327.57 133.57 
M 253.92 118.65 253.9 119.25 253.28 119.92 252.69 119.99 252.7 119.38 253.32 118.71 253.92 118.65 
M 253.96 119.53 253.36 119.53 252.67 118.93 252.59 118.33 253.19 118.33 253.88 118.93 253.96 119.53 
M 344.54 129.5 344.95 129.05 345.85 128.94 346.35 129.28 345.94 129.73 345.04 129.83 344.54 129.5 
M 344.93 129.85 345.23 129.33 346.1 129.04 346.65 129.27 346.35 129.79 345.49 130.08 344.93 129.85 
M 346.86 142.36 346.29 142.55 345.45 142.21 345.17 141.67 345.74 141.48 346.59 141.82 346.86 142.36 
M 345.5 141.55 346.05 141.8 346.43 142.63 346.26 143.21 345.71 142.95 345.33 142.13 345.5 141.55 
M 344.34 149.58 344.93 149.71 345.46 150.45 345.41 151.05 344.83 150.91 344.29 150.18 344.34 149.58 
M 344.79 149.63 345.05 150.17 344.79 151.05 344.29 151.37 344.03 150.83 344.29 149.95 344.79 149.63 
M 316.2 175.8 316.45 175.25 317.28 174.87 317.86 175.04 317.61 175.59 316.78 175.96 316.2 175.8 
M 317.71 175.29 317.18 175.57 316.29 175.38 315.93 174.89 316.46 174.61 317.35 174.8 317.71 175.29 
M 274.23 113.51 274.7 113.13 275.61 113.16 276.05 113.57 275.59 113.95 274.68 113.92 274.23 113.51 
M 275.09 114.23 274.95 113.65 275.37 112.84 275.93 112.62 276.07 113.2 275.65 114.01 275.09 114.23 
M 242.11 146.6 242.47 146.12 243.36 145.92 243.89 146.21 243.53 146.69 242.64 146.89 242.11 146.6 
M 243.62 146.72 243.02 146.62 242.44 145.92 242.46 145.32 243.05 145.42 243.63 146.12 243.62 146.72 
M 296.08 213.51 295.96 213.76 295.39 213.92 
M 296.42 213.32 296.78 213.91 296.2 214.09 295.56 213.8 
M 324.32 172.95 323.8 173.24 322.91 173.05 322.55 172.57 323.07 172.28 323.96 172.47 324.32 172.95 
M 322.82 172.44 323.41 172.54 323.99 173.25 323.97 173.85 323.38 173.75 322.8 173.04 322.82 172.44 
M 350.68 136.09 350.14 135.81 349.82 134.96 350.02 134.4 350.55 134.68 350.88 135.53 350.68 136.09 
M 350.17 135.92 350.14 135.32 350.7 134.6 351.29 134.48 351.32 135.08 350.76 135.8 350.17 135.92 
M 352.5 153.66 352.03 153.29 351.84 152.4 352.14 151.87 352.62 152.24 352.8 153.13 352.5 153.66 
M 352.41 152.08 352.52 152.67 352.06 153.45 351.48 153.64 351.38 153.05 351.84 152.27 352.41 152.08 
M 328.49 163.66 329.09 163.7 329.74 164.34 329.78 164.94 329.18 164.9 328.53 164.26 328.49 163.66 
M 329.61 163.8 329.35 164.34 328.51 164.7 327.94 164.52 328.2 163.98 329.04 163.61 329.61 163.8 
M 330.45 171.82 329.96 171.46 329.77 170.57 330.06 170.04 330.54 170.4 330.73 171.29 330.45 171.82 
M 330.22 171.62 330.06 171.04 330.46 170.22 331.02 169.98 331.17 170.57 330.77 171.38 330.22 171.62 
M 237.39 138.14 237.97 138.32 238.45 139.1 238.35 139.69 237.78 139.51 237.3 138.74 237.39 138.14 
M 237.18 139 237.73 138.75 238.61 139 238.93 139.51 238.39 139.76 237.51 139.51 237.18 139 
M 254.83 97.71 254.32 97.39 254.06 96.52 254.3 95.97 254.81 96.29 255.08 97.16 254.83 97.71 
M 254.93 97.43 254.47 97.04 254.34 96.14 254.66 95.63 255.12 96.02 255.25 96.92 254.93 97.43 
M 256.3 91.56 255.97 91.05 256.11 90.15 256.56 89.76 256.89 90.27 256.75 91.17 256.3 91.56 
M 256.23 91.33 256.22 90.72 256.8 90.02 257.4 89.92 257.41 90.53 256.83 91.23 256.23 91.33 
M 352.32 146.94 351.72 146.85 351.14 146.15 351.14 145.55 351.74 145.65 352.33 146.34 352.32 146.94 
M 351.26 145.74 351.78 146.04 352.09 146.89 351.87 147.45 351.34 147.16 351.04 146.3 351.26 145.74 
M 357.5 128.53 357.05 128.13 356.95 127.22 357.29 126.72 357.73 127.13 357.84 128.04 357.5 128.53 
M 356.75 127.37 357.35 127.41 357.99 128.06 358.03 128.66 357.43 128.62 356.79 127.97 356.75 127.37 
M 358.38 132.09 358.92 132.35 359.27 133.19 359.09 133.77 358.55 133.5 358.19 132.66 358.38 132.09 
M 358.87 133.61 358.58 133.08 358.77 132.19 359.25 131.83 359.54 132.35 359.35 133.24 358.87 133.61 
M 279.52 121.54 279.28 120.98 279.56 120.12 280.07 119.8 280.31 120.35 280.03 121.22 279.52 121.54 
M 279.86 119.98 279.99 120.57 279.55 121.37 278.98 121.57 278.86 120.98 279.3 120.19 279.86 119.98 
M 285.94 110.61 286.4 111 286.53 111.9 286.21 112.41 285.75 112.02 285.62 111.12 285.94 110.61 
M 286.23 112.18 285.92 111.67 286.08 110.77 286.54 110.39 286.85 110.9 286.7 111.8 286.23 112.18 
M 346.25 162.89 345.73 163.18 344.84 162.99 344.47 162.51 345 162.22 345.89 162.41 346.25 162.89 
M 345.74 162.12 345.58 162.7 344.83 163.21 344.23 163.14 344.39 162.55 345.14 162.05 345.74 162.12 
M 340.74 157.11 340.57 157.69 339.81 158.19 339.21 158.11 339.38 157.53 340.14 157.03 340.74 157.11 
M 339.37 157.27 339.96 157.39 340.51 158.12 340.48 158.72 339.89 158.6 339.33 157.87 339.37 157.27 
M 230.38 144.36 230.54 143.78 231.3 143.28 231.9 143.36 231.74 143.94 230.97 144.44 230.38 144.36 
M 230.83 143.24 231.25 143.67 231.29 144.58 230.92 145.06 230.51 144.62 230.46 143.71 230.83 143.24 
M 315.17 114.76 314.57 114.68 313.97 114 313.96 113.4 314.56 113.48 315.16 114.16 315.17 114.76 
M 314.09 114.59 314.35 114.04 315.18 113.68 315.76 113.85 315.5 114.4 314.67 114.76 314.09 114.59 
M 281.96 103.24 281.36 103.24 280.67 102.64 280.59 102.04 281.19 102.04 281.87 102.64 281.96 103.24 
M 281.66 103.22 281.19 102.84 281.02 101.95 281.32 101.43 281.79 101.8 281.96 102.7 281.66 103.22 
M 276.06 107.31 275.62 106.9 275.52 105.99 275.86 105.5 276.3 105.91 276.4 106.81 276.06 107.31 
M 275.27 106.47 275.83 106.23 276.69 106.51 277 107.02 276.45 107.26 275.58 106.98 275.27 106.47 
M 221.66 136.21 221.08 136.05 220.57 135.29 220.65 134.7 221.23 134.85 221.74 135.61 221.66 136.21 
M 221.05 136.14 220.96 135.54 221.44 134.77 222.02 134.6 222.11 135.19 221.62 135.96 221.05 136.14 
M 227.08 141.29 226.7 141.77 225.81 141.94 225.29 141.63 225.66 141.16 226.56 140.99 227.08 141.29 
M 225.49 141.45 226.07 141.28 226.89 141.66 227.14 142.21 226.57 142.37 225.74 141.99 225.49 141.45 
M 319.31 124.52 319.64 124.02 320.52 123.77 321.06 124.03 320.73 124.53 319.86 124.78 319.31 124.52 
M 319.56 124.57 320 124.16 320.91 124.14 321.38 124.52 320.93 124.93 320.02 124.95 319.56 124.57 
M 305.69 113.35 305.25 113.77 304.34 113.8 303.87 113.43 304.31 113.02 305.22 112.98 305.69 113.35 
M 305.44 113.6 304.84 113.6 304.15 113.01 304.06 112.41 304.67 112.41 305.36 113 305.44 113.6 
M 313.81 203.76 314.35 203.49 315.23 203.71 315.57 204.21 315.03 204.48 314.15 204.25 313.81 203.76 
M 315.17 204.48 314.64 204.2 314.31 203.35 314.52 202.78 315.05 203.06 315.38 203.91 315.17 204.48 
M 214.89 132.42 215.45 132.23 215.57 132.82 214.98 133.66 
M 215.18 133.69 214.95 133.33 
M 214.91 132.75 214.98 132.28 215.43 131.88 215.76 132.39 215.64 133.29 215.18 133.69 
M 215.36 139.67 216.11 139.77 215.86 140.31 215.44 140.51 
M 215.38 139.93 215.4 140.16 
M 223.54 147.34 223.18 147.82 222.3 148.03 221.76 147.74 222.12 147.26 223.01 147.05 223.54 147.34 
M 222.01 147.26 222.61 147.32 223.24 147.99 223.27 148.59 222.67 148.53 222.04 147.87 222.01 147.26 
M 226.03 130.25 225.53 130.58 224.63 130.45 224.23 130 224.73 129.67 225.63 129.79 226.03 130.25 
M 225.73 129.78 225.32 130.22 224.42 130.33 223.92 129.99 224.33 129.55 225.23 129.44 225.73 129.78 
M 366.38 131.78 365.9 132.14 364.99 132.08 364.57 131.65 365.05 131.29 365.96 131.36 366.38 131.78 
M 365.57 131.03 365.67 131.63 365.2 132.4 364.62 132.58 364.52 131.99 365 131.21 365.57 131.03 
M 364.44 124.83 364.93 124.48 365.84 124.57 366.25 125.01 365.76 125.35 364.85 125.26 364.44 124.83 
M 365.48 125.6 365.19 125.07 365.38 124.18 365.86 123.81 366.15 124.34 365.96 125.23 365.48 125.6 
M 352.09 126.28 351.57 126.58 350.67 126.4 350.3 125.93 350.83 125.63 351.72 125.81 352.09 126.28 
M 350.51 126.2 351.05 125.94 351.93 126.18 352.27 126.68 351.73 126.94 350.85 126.7 350.51 126.2 
M 267.45 102.12 268.05 102.2 268.66 102.87 268.67 103.48 268.07 103.4 267.46 102.73 267.45 102.12 
M 268.65 102.44 268.26 102.89 267.36 103.02 266.85 102.7 267.25 102.24 268.15 102.11 268.65 102.44 
M 264.49 94.71 263.89 94.68 263.23 94.05 263.17 93.45 263.77 93.48 264.43 94.11 264.49 94.71 
M 264.08 94.73 263.7 94.26 263.74 93.35 264.15 92.91 264.53 93.38 264.49 94.29 264.08 94.73 
M 228.9 153.47 229.08 152.89 229.86 152.41 230.45 152.51 230.27 153.09 229.5 153.56 228.9 153.47 
M 229.4 152.35 229.8 152.81 229.81 153.72 229.42 154.17 229.02 153.72 229.01 152.81 229.4 152.35 
M 228.54 111.57 228.29 112.11 227.45 112.48 226.88 112.31 227.13 111.76 227.96 111.39 228.54 111.57 
M 228.23 111.47 227.92 111.99 227.06 112.28 226.5 112.05 226.81 111.54 227.67 111.25 228.23 111.47 
M 311.05 216.04 310.69 215.56 310.76 214.65 311.19 214.23 311.55 214.71 311.48 215.62 311.05 216.04 
M 310.45 215.3 310.96 214.99 311.86 215.13 312.24 215.6 311.73 215.91 310.83 215.76 310.45 215.3 
M 255.65 76 255.89 76.16 255.62 76.47 
M 255.6 75.27 255.83 75.76 255.61 76.55 
M 311.95 109.2 311.42 108.92 311.09 108.07 311.3 107.5 311.83 107.79 312.16 108.64 311.95 109.2 
M 312.09 108.87 311.57 108.56 311.28 107.7 311.51 107.14 312.03 107.45 312.32 108.31 312.09 108.87 
M 321.92 110.01 321.46 110.4 320.55 110.39 320.1 109.99 320.56 109.6 321.47 109.61 321.92 110.01 
M 321.51 109.52 321.23 110.05 320.37 110.37 319.81 110.16 320.1 109.63 320.95 109.31 321.51 109.52 
M 316.98 101.63 317.44 102.02 317.58 102.92 317.26 103.43 316.8 103.04 316.66 102.14 316.98 101.63 
M 316.45 102.69 316.96 102.38 317.86 102.54 318.24 103.01 317.72 103.31 316.83 103.16 316.45 102.69 
M 376.43 133.39 375.85 133.54 375.03 133.15 374.79 132.59 375.38 132.44 376.2 132.84 376.43 133.39 
M 375.99 132.41 375.83 132.99 375.08 133.5 374.48 133.43 374.64 132.85 375.39 132.34 375.99 132.41 
M 373.88 138.86 374.23 139.35 374.16 140.26 373.73 140.68 373.37 140.19 373.45 139.28 373.88 138.86 
M 373.71 140.46 373.6 139.86 374.08 139.08 374.65 138.9 374.75 139.49 374.28 140.27 373.71 140.46 
M 346.45 168.21 346.79 168.71 346.7 169.61 346.26 170.02 345.91 169.53 346.01 168.62 346.45 168.21 
M 346.94 169.49 346.35 169.33 345.84 168.58 345.91 167.98 346.49 168.14 347.01 168.89 346.94 169.49 
M 358.9 168.33 358.9 168.93 358.31 169.62 357.71 169.71 357.71 169.1 358.31 168.41 358.9 168.33 
M 357.61 169.03 358.18 168.84 359.03 169.18 359.3 169.72 358.73 169.91 357.89 169.57 357.61 169.03 
M 358.81 161.72 358.33 161.35 358.15 160.46 358.44 159.93 358.92 160.3 359.1 161.19 358.81 161.72 
M 358.29 160.22 358.73 160.63 358.82 161.54 358.48 162.03 358.04 161.62 357.94 160.71 358.29 160.22 
M 352.15 168.54 352.29 169.13 351.87 169.93 351.31 170.15 351.17 169.57 351.59 168.76 352.15 168.54 
M 352.18 169.87 351.67 169.56 351.39 168.69 351.63 168.14 352.14 168.45 352.42 169.32 352.18 169.87 
M 262.83 70.82 262.76 70.22 263.27 69.46 263.85 69.31 263.92 69.9 263.41 70.66 262.83 70.82 
M 262.82 69.6 263.37 69.85 263.76 70.67 263.59 71.25 263.04 71 262.66 70.18 262.82 69.6 
M 294.3 112.27 293.78 111.95 293.5 111.09 293.74 110.53 294.25 110.84 294.53 111.71 294.3 112.27 
M 294.3 110.77 294.23 111.36 293.56 111.98 292.96 112 293.03 111.4 293.7 110.79 294.3 110.77 
M 300.6 109.33 300.03 109.11 299.61 108.31 299.74 107.72 300.3 107.94 300.73 108.74 300.6 109.33 
M 300.69 108.99 300.14 108.74 299.75 107.92 299.92 107.34 300.47 107.59 300.85 108.41 300.69 108.99 
M 308.93 101.7 309.51 101.53 310.33 101.91 310.58 102.46 310.01 102.63 309.18 102.25 308.93 101.7 
M 309.73 101.39 309.93 101.96 309.61 102.8 309.07 103.09 308.87 102.52 309.2 101.67 309.73 101.39 
M 293.37 103.72 292.77 103.63 292.18 102.95 292.17 102.34 292.77 102.43 293.37 103.12 293.37 103.72 
M 293.27 102.55 292.98 103.08 292.13 103.4 291.57 103.19 291.86 102.66 292.71 102.34 293.27 102.55 
M 299.29 103.02 298.98 102.51 299.13 101.61 299.6 101.23 299.91 101.75 299.75 102.65 299.29 103.02 
M 298.96 102.63 299.23 102.09 300.07 101.74 300.64 101.93 300.37 102.46 299.53 102.81 298.96 102.63 
M 341.23 119.72 341.83 119.75 342.49 120.38 342.54 120.98 341.94 120.95 341.28 120.32 341.23 119.72 
M 342.46 119.96 342.09 120.43 341.19 120.6 340.67 120.29 341.05 119.82 341.94 119.66 342.46 119.96 
M 351.81 114.64 351.32 114.29 351.11 113.4 351.39 112.87 351.88 113.22 352.09 114.1 351.81 114.64 
M 351.41 114.42 351.39 113.82 351.97 113.11 352.56 113.01 352.58 113.61 352 114.31 351.41 114.42 
M 359.21 119.14 359.43 119.7 359.13 120.56 358.6 120.86 358.38 120.3 358.69 119.44 359.21 119.14 
M 359.33 120.55 358.83 120.21 358.61 119.33 358.88 118.79 359.37 119.13 359.6 120.01 359.33 120.55 
M 214.53 109.65 214.17 110.13 213.28 110.34 212.75 110.05 213.11 109.57 214 109.36 214.53 109.65 
M 212.98 109.65 213.58 109.64 214.27 110.23 214.37 110.82 213.76 110.83 213.07 110.24 212.98 109.65 
M 219.58 113.53 220.19 113.57 220.83 114.21 220.88 114.81 220.28 114.77 219.63 114.13 219.58 113.53 
M 220.21 114.87 220.05 114.29 220.43 113.46 220.98 113.22 221.14 113.79 220.76 114.62 220.21 114.87 
M 265.39 62.06 265.83 61.65 266.74 61.6 267.21 61.98 266.77 62.39 265.86 62.43 265.39 62.06 
M 265.63 62.21 266.14 61.88 267.04 61.99 267.44 62.44 266.94 62.77 266.03 62.66 265.63 62.21 
M 264.7 78.02 265.21 77.69 266.11 77.81 266.51 78.26 266 78.59 265.1 78.47 264.7 78.02 
M 265.33 77.5 265.73 77.95 265.73 78.87 265.33 79.32 264.94 78.86 264.94 77.95 265.33 77.5 
M 271.84 74.6 271.75 75.2 271.07 75.79 270.46 75.79 270.55 75.2 271.24 74.6 271.84 74.6 
M 271.36 75.86 271.01 75.36 271.11 74.46 271.55 74.05 271.89 74.54 271.8 75.45 271.36 75.86 
M 259.81 80.66 259.7 81.25 259 81.83 258.39 81.81 258.5 81.21 259.21 80.64 259.81 80.66 
M 259.79 81.26 259.21 81.42 258.39 81.03 258.15 80.48 258.72 80.32 259.55 80.71 259.79 81.26 
M 270.67 69.49 270.32 69 270.42 68.09 270.86 67.68 271.2 68.18 271.11 69.08 270.67 69.49 
M 270.18 68.97 270.56 68.5 271.46 68.34 271.98 68.65 271.6 69.11 270.7 69.28 270.18 68.97 
M 298.76 97.18 298.2 96.98 297.76 96.18 297.88 95.59 298.45 95.8 298.89 96.6 298.76 97.18 
M 298.42 97.07 298.16 96.53 298.39 95.65 298.89 95.32 299.15 95.86 298.92 96.74 298.42 97.07 
M 372.38 126.59 372.77 126.14 373.67 126 374.18 126.32 373.79 126.78 372.89 126.92 372.38 126.59 
M 373.59 125.84 373.5 126.43 372.8 127.02 372.2 127.02 372.29 126.42 372.98 125.83 373.59 125.84 
M 372.27 118.54 371.97 119.07 371.11 119.37 370.55 119.16 370.85 118.63 371.7 118.32 372.27 118.54 
M 372 118.49 371.61 118.94 370.7 119.07 370.2 118.74 370.59 118.29 371.5 118.16 372 118.49 
M 368.67 113.29 367.92 113.64 367.34 113.47 367.59 112.92 367.85 112.8 
M 367.69 113.59 367.96 113.05 368.14 112.97 
M 368.97 113.47 368.26 113.78 367.69 113.59 
M 349.96 119.2 350.53 119 351.38 119.32 351.67 119.85 351.1 120.06 350.25 119.74 349.96 119.2 
M 350.7 118.85 350.98 119.38 350.76 120.27 350.27 120.62 350 120.08 350.21 119.2 350.7 118.85 
M 274.56 99.83 275.09 100.12 275.42 100.97 275.21 101.54 274.68 101.25 274.36 100.4 274.56 99.83 
M 275.02 101.36 274.73 100.84 274.92 99.95 275.39 99.58 275.69 100.11 275.5 101 275.02 101.36 
M 272.8 92.59 272.92 92 273.64 91.45 274.24 91.49 274.12 92.08 273.4 92.63 272.8 92.59 
M 272.98 91.61 273.54 91.82 273.97 92.62 273.84 93.21 273.28 93 272.85 92.19 272.98 91.61 
M 317.16 190.07 317.52 189.59 318.41 189.39 318.94 189.67 318.58 190.16 317.69 190.36 317.16 190.07 
M 318.12 190.56 317.88 190.01 318.16 189.14 318.68 188.83 318.91 189.39 318.63 190.25 318.12 190.56 
M 323.13 118.54 322.57 118.75 321.71 118.44 321.42 117.91 321.99 117.7 322.84 118.01 323.13 118.54 
M 321.59 118.13 322.18 118.03 322.97 118.49 323.16 119.06 322.56 119.17 321.78 118.7 321.59 118.13 
M 366.22 162.07 366.3 161.47 366.99 160.87 367.59 160.87 367.51 161.47 366.82 162.06 366.22 162.07 
M 366.42 161.97 366.69 161.43 367.53 161.08 368.1 161.26 367.84 161.8 367 162.15 366.42 161.97 
M 280.09 91.36 279.79 90.83 279.96 89.94 280.43 89.57 280.73 90.09 280.56 90.98 280.09 91.36 
M 279.93 89.85 280.36 90.27 280.45 91.18 280.1 91.67 279.66 91.25 279.58 90.34 279.93 89.85 
M 283.52 95.71 284.12 95.77 284.75 96.43 284.78 97.03 284.18 96.97 283.55 96.31 283.52 95.71 
M 284.84 96.36 284.27 96.55 283.43 96.21 283.16 95.68 283.73 95.48 284.57 95.82 284.84 96.36 
M 336.91 178.28 337.51 178.26 338.22 178.83 338.32 179.43 337.72 179.45 337.01 178.88 336.91 178.28 
M 338.15 178.41 337.83 178.92 336.95 179.18 336.4 178.93 336.73 178.43 337.6 178.16 338.15 178.41 
M 272.57 63.31 272.28 62.78 272.47 61.89 272.95 61.53 273.24 62.05 273.05 62.94 272.57 63.31 
M 272.49 61.78 272.88 62.24 272.87 63.15 272.47 63.6 272.08 63.14 272.09 62.23 272.49 61.78 
M 328.58 111.67 329.08 111.33 329.98 111.44 330.39 111.88 329.89 112.22 328.99 112.11 328.58 111.67 
M 329.19 112.4 329.27 111.8 329.95 111.2 330.55 111.19 330.47 111.79 329.79 112.39 329.19 112.4 
M 333.17 105.04 333.05 105.63 332.33 106.19 331.73 106.16 331.85 105.57 332.57 105.01 333.17 105.04 
M 332.15 104.97 332.56 105.41 332.59 106.32 332.22 106.79 331.81 106.35 331.78 105.44 332.15 104.97 
M 323.3 102.15 323.87 101.95 324.72 102.3 324.99 102.83 324.42 103.03 323.58 102.68 323.3 102.15 
M 324.7 102.92 324.13 102.71 323.69 101.91 323.81 101.32 324.38 101.53 324.82 102.33 324.7 102.92 
M 231.28 211.99 230.71 212.21 229.86 211.9 229.56 211.37 230.13 211.16 230.98 211.47 231.28 211.99 
M 230.04 212.26 230.2 211.68 230.96 211.18 231.56 211.26 231.4 211.84 230.64 212.34 230.04 212.26 
M 337.73 123.98 337.76 124.59 337.21 125.31 336.62 125.43 336.58 124.83 337.14 124.1 337.73 123.98 
M 337.63 124.19 337.39 124.74 336.56 125.13 335.99 124.96 336.23 124.41 337.05 124.02 337.63 124.19 
M 328.15 119.01 328.72 118.81 329.56 119.15 329.84 119.69 329.27 119.88 328.42 119.54 328.15 119.01 
M 328.64 118.75 329.09 119.15 329.21 120.05 328.88 120.56 328.43 120.16 328.31 119.25 328.64 118.75 
M 380.02 144.93 379.42 144.98 378.68 144.45 378.55 143.86 379.15 143.81 379.88 144.34 380.02 144.93 
M 379.7 143.84 379.5 144.41 378.71 144.86 378.12 144.75 378.32 144.18 379.11 143.73 379.7 143.84 
M 381.07 126.86 381.66 126.73 382.46 127.16 382.67 127.72 382.09 127.85 381.29 127.42 381.07 126.86 
M 381.5 126.71 381.96 127.09 382.12 127.99 381.81 128.5 381.34 128.12 381.19 127.23 381.5 126.71 
M 373.77 171.98 373.2 171.78 372.76 170.98 372.88 170.39 373.45 170.6 373.89 171.4 373.77 171.98 
M 373.54 171.85 373.19 171.36 373.26 170.45 373.69 170.03 374.04 170.52 373.97 171.42 373.54 171.85 
M 365.79 170.99 366.39 170.96 367.11 171.52 367.22 172.11 366.62 172.14 365.91 171.58 365.79 170.99 
M 366.08 171 366.58 171.34 366.81 172.22 366.54 172.76 366.05 172.42 365.82 171.54 366.08 171 
M 226.62 205.93 226.8 206.5 226.44 207.34 225.9 207.6 225.72 207.03 226.08 206.19 226.62 205.93 
M 225.57 206.71 226.15 206.57 226.96 207 227.18 207.56 226.59 207.69 225.79 207.27 225.57 206.71 
M 341.29 110.43 340.73 110.65 339.87 110.35 339.57 109.83 340.13 109.61 340.99 109.91 341.29 110.43 
M 339.78 110.38 340.25 110 341.16 110.04 341.6 110.45 341.13 110.82 340.22 110.79 339.78 110.38 
M 361.51 109.09 360.95 109 361 108.84 
M 349.47 104.27 348.54 104 
M 349.19 104.19 349.16 104.52 348.72 104.93 348.37 104.44 348.42 103.97 
M 221.48 122.91 222.08 122.94 222.73 123.57 222.78 124.17 222.18 124.14 221.53 123.5 221.48 122.91 
M 222.82 123.51 222.26 123.72 221.41 123.4 221.12 122.87 221.68 122.66 222.53 122.98 222.82 123.51 
M 215.51 122.58 215.3 123.14 214.51 123.59 214.28 123.54 
M 214.23 122.84 214.92 122.45 215.51 122.58 
M 214.53 123.69 214.51 123.09 215.07 122.37 215.66 122.26 215.69 122.86 215.12 123.58 214.53 123.69 
M 309.29 96.5 309.07 95.94 309.38 95.08 309.91 94.79 310.12 95.35 309.81 96.21 309.29 96.5 
M 308.93 95.45 309.54 95.44 310.23 96.02 310.33 96.61 309.73 96.62 309.03 96.04 308.93 95.45 
M 291.87 96.47 291.72 95.89 292.12 95.07 292.68 94.84 292.83 95.42 292.42 96.24 291.87 96.47 
M 291.69 96.04 292.07 95.57 292.97 95.41 293.49 95.72 293.11 96.19 292.21 96.35 291.69 96.04 
M 298.62 89.66 299.17 89.42 300.04 89.69 300.35 90.2 299.8 90.44 298.93 90.17 298.62 89.66 
M 298.84 90.18 299.31 89.8 300.22 89.84 300.66 90.25 300.19 90.63 299.28 90.59 298.84 90.18 
M 263.22 87.31 262.86 87.79 261.96 87.97 261.44 87.68 261.81 87.2 262.7 87.02 263.22 87.31 
M 262.98 87.75 262.37 87.71 261.73 87.06 261.69 86.46 262.29 86.51 262.93 87.15 262.98 87.75 
M 347.62 112.19 347.06 112.43 346.2 112.16 345.88 111.65 346.43 111.41 347.3 111.68 347.62 112.19 
M 346.68 111.23 346.92 111.78 346.65 112.65 346.13 112.97 345.89 112.42 346.17 111.55 346.68 111.23 
M 290.06 88.5 290.66 88.44 291.4 88.98 291.54 89.56 290.94 89.61 290.2 89.08 290.06 88.5 
M 290.63 89.7 290.59 89.1 291.14 88.37 291.73 88.25 291.77 88.85 291.22 89.58 290.63 89.7 
M 298.7 78.74 298.09 78.77 297.38 78.2 297.27 77.6 297.88 77.58 298.59 78.15 298.7 78.74 
M 297.46 77.72 298.01 77.96 298.41 78.77 298.26 79.36 297.71 79.12 297.31 78.3 297.46 77.72 
M 304.34 85.54 304.91 85.74 305.36 86.53 305.24 87.12 304.67 86.92 304.22 86.13 304.34 85.54 
M 305.33 85.89 305 86.39 304.12 86.64 303.58 86.38 303.91 85.88 304.79 85.64 305.33 85.89 
M 291.71 82.48 291.68 83.08 291.05 83.74 290.45 83.8 290.48 83.2 291.11 82.54 291.71 82.48 
M 291.57 83.63 291.03 83.35 290.7 82.51 290.9 81.94 291.43 82.22 291.77 83.06 291.57 83.63 
M 378.65 122.71 378.09 122.51 377.64 121.71 377.76 121.12 378.33 121.33 378.78 122.12 378.65 122.71 
M 378.03 122.59 378 121.99 378.56 121.27 379.15 121.16 379.18 121.76 378.62 122.47 378.03 122.59 
M 381.42 153.94 381.06 153.46 381.12 152.55 381.54 152.12 381.91 152.6 381.84 153.51 381.42 153.94 
M 382.09 152.7 381.67 153.13 380.77 153.22 380.28 152.87 380.69 152.43 381.6 152.35 382.09 152.7 
M 276.9 85.09 276.3 85.1 275.6 84.51 275.51 83.92 276.11 83.91 276.81 84.5 276.9 85.09 
M 275.65 84.92 276 84.43 276.89 84.21 277.42 84.49 277.07 84.98 276.19 85.19 275.65 84.92 
M 280.48 68.88 280.87 69.33 280.88 70.24 280.48 70.7 280.09 70.24 280.09 69.33 280.48 68.88 
M 279.98 69.31 280.52 69.57 280.88 70.41 280.7 70.98 280.16 70.72 279.8 69.89 279.98 69.31 
M 280.13 77.45 280.66 77.14 281.55 77.32 281.92 77.79 281.4 78.09 280.51 77.92 280.13 77.45 
M 281.45 78.17 280.96 77.82 280.73 76.94 281 76.4 281.49 76.75 281.72 77.63 281.45 78.17 
M 269.43 84.65 268.9 84.94 268.01 84.73 267.65 84.25 268.18 83.97 269.07 84.17 269.43 84.65 
M 267.98 84.86 268.34 84.37 269.22 84.17 269.75 84.45 269.4 84.94 268.51 85.14 267.98 84.86 
M 380.85 136.18 381.11 135.63 381.94 135.26 382.52 135.44 382.26 135.98 381.43 136.35 380.85 136.18 
M 382.2 135.35 381.89 135.87 381.03 136.15 380.47 135.92 380.78 135.4 381.65 135.12 382.2 135.35 
M 268.19 56.2 268.19 56.65 267.9 56.61 
M 361.35 184.49 360.95 184.94 360.05 185.07 359.55 184.74 359.94 184.29 360.85 184.16 361.35 184.49 
M 360.02 185.16 360.23 184.6 361.03 184.16 361.62 184.29 361.41 184.85 360.61 185.29 360.02 185.16 
M 345.61 192.47 345.02 192.6 344.22 192.17 344.01 191.6 344.59 191.47 345.39 191.9 345.61 192.47 
M 345.17 192.63 344.71 192.23 344.58 191.33 344.9 190.82 345.36 191.22 345.49 192.12 345.17 192.63 
M 355.33 189.95 355.68 190.44 355.61 191.34 355.18 191.77 354.83 191.28 354.9 190.37 355.33 189.95 
M 355.67 190.31 355.47 190.87 354.68 191.33 354.09 191.21 354.29 190.64 355.08 190.19 355.67 190.31 
M 218.48 206 219.02 206.27 219.37 207.11 219.18 207.68 218.64 207.41 218.29 206.57 218.48 206 
M 218.17 206.62 218.77 206.63 219.46 207.23 219.54 207.82 218.94 207.82 218.25 207.22 218.17 206.62 
M 288.83 67.03 288.26 67.22 287.42 66.87 287.15 66.33 287.72 66.14 288.56 66.49 288.83 67.03 
M 288.56 67.07 287.99 66.9 287.49 66.13 287.58 65.53 288.16 65.7 288.65 66.47 288.56 67.07 
M 279.69 57.07 280.28 57.17 280.87 57.87 280.86 58.47 280.26 58.37 279.68 57.68 279.69 57.07 
M 280.96 57.65 280.42 57.93 279.54 57.73 279.18 57.24 279.71 56.96 280.6 57.16 280.96 57.65 
M 292.79 74.93 292.44 75.42 291.56 75.64 291.02 75.37 291.37 74.87 292.25 74.66 292.79 74.93 
M 292.05 74.47 292.11 75.07 291.59 75.81 291 75.96 290.94 75.36 291.46 74.62 292.05 74.47 
M 336.43 116.31 336.16 116.85 335.32 117.21 334.75 117.02 335.02 116.48 335.86 116.13 336.43 116.31 
M 335 116.31 335.58 116.45 336.11 117.19 336.06 117.79 335.47 117.65 334.94 116.91 335 116.31 
M 284.09 83.27 284.48 83.73 284.46 84.64 284.06 85.09 283.67 84.62 283.69 83.71 284.09 83.27 
M 284.74 83.97 284.24 84.32 283.34 84.22 282.93 83.78 283.42 83.43 284.33 83.53 284.74 83.97 
M 287.66 106.2 287.06 106.18 286.38 105.57 286.31 104.98 286.91 104.99 287.59 105.6 287.66 106.2 
M 286.37 105.26 286.96 105.37 287.54 106.08 287.52 106.68 286.92 106.57 286.35 105.87 286.37 105.26 
M 367.42 187.59 366.86 187.79 366.01 187.46 365.73 186.93 366.29 186.73 367.14 187.05 367.42 187.59 
M 366.25 187.87 366.36 187.28 367.07 186.71 367.67 186.73 367.56 187.32 366.85 187.89 366.25 187.87 
M 350.21 195.57 350.81 195.62 351.43 196.28 351.46 196.88 350.86 196.83 350.24 196.17 350.21 195.57 
M 350.2 196.51 350.65 196.11 351.56 196.09 352.02 196.48 351.57 196.88 350.66 196.89 350.2 196.51 
M 295.43 64.47 294.97 64.07 294.85 63.17 295.17 62.66 295.63 63.06 295.75 63.96 295.43 64.47 
M 295.98 63.4 295.46 63.71 294.56 63.56 294.18 63.09 294.7 62.78 295.59 62.94 295.98 63.4 
M 298.47 70.22 298.08 70.68 297.18 70.82 296.67 70.5 297.06 70.04 297.96 69.9 298.47 70.22 
M 298.11 70.79 297.55 70.58 297.12 69.77 297.26 69.19 297.82 69.4 298.25 70.21 298.11 70.79 
M 305.61 71.52 305.27 70.7 305.46 70.13 305.86 70.33 
M 305.67 71.06 305.08 70.9 304.74 70.4 305.28 70.14 305.87 70.29 
M 303.92 65.13 303.59 65.63 302.71 65.88 302.16 65.62 302.5 65.11 303.38 64.87 303.92 65.13 
M 302.9 66.05 302.84 65.46 303.36 64.71 303.94 64.56 304.01 65.16 303.49 65.9 302.9 66.05 
M 291.4 57.4 291.94 57.66 292.31 58.49 292.14 59.07 291.59 58.81 291.22 57.98 291.4 57.4 
M 292.12 57.64 291.99 58.23 291.25 58.76 290.65 58.7 290.79 58.12 291.52 57.59 292.12 57.64 
M 274.78 55.05 274.22 55.27 273.36 54.96 273.06 54.44 273.62 54.22 274.48 54.52 274.78 55.05 
M 273.58 54.14 274.02 54.55 274.12 55.46 273.77 55.95 273.33 55.54 273.24 54.63 273.58 54.14 
M 281.66 51.56 281.05 51.53 280.4 50.89 280.35 50.29 280.95 50.33 281.6 50.96 281.66 51.56 
M 281.67 51.12 281.06 51.13 280.36 50.56 280.26 49.97 280.86 49.95 281.56 50.52 281.67 51.12 
M 278.38 44.14 278.63 44.63 278.41 45.52 277.91 45.86 277.64 45.32 277.74 44.95 
M 277.88 44.76 278.08 44.77 278.76 45.37 278.84 45.97 278.23 45.96 277.54 45.2 
M 334.87 201.05 335.47 200.98 336.22 201.5 336.37 202.09 335.77 202.15 335.02 201.63 334.87 201.05 
M 335.58 200.88 335.8 201.44 335.48 202.29 334.96 202.58 334.74 202.02 335.06 201.17 335.58 200.88 
M 330.1 183.84 330.02 184.44 329.34 185.05 328.74 185.06 328.82 184.46 329.49 183.85 330.1 183.84 
M 330.03 184.14 329.61 184.56 328.7 184.62 328.22 184.26 328.65 183.83 329.55 183.77 330.03 184.14 
M 328.39 176.8 328.71 177.31 328.57 178.21 328.12 178.6 327.79 178.09 327.93 177.19 328.39 176.8 
M 328.21 178.39 328.06 177.81 328.47 177 329.03 176.77 329.18 177.35 328.77 178.16 328.21 178.39 
M 381.64 165.03 381.87 164.48 382.69 164.08 383.27 164.23 383.04 164.79 382.22 165.18 381.64 165.03 
M 382.55 163.94 382.65 164.54 382.18 165.32 381.61 165.5 381.51 164.91 381.98 164.13 382.55 163.94 
M 342.25 197.33 342.7 197.72 342.83 198.63 342.5 199.13 342.05 198.74 341.92 197.83 342.25 197.33 
M 341.7 198.4 342.21 198.08 343.11 198.22 343.5 198.68 342.99 199 342.09 198.86 341.7 198.4 
M 372.19 186.86 372.27 186.26 372.94 185.65 373.55 185.64 373.47 186.23 372.8 186.84 372.19 186.86 
M 372.27 186.59 372.67 186.15 373.58 186.05 374.08 186.39 373.67 186.83 372.76 186.93 372.27 186.59 
M 379.22 190.82 379.8 191 380.27 191.78 380.17 192.37 379.6 192.19 379.12 191.41 379.22 190.82 
M 380.33 191.32 379.88 191.72 378.97 191.72 378.51 191.33 378.96 190.93 379.87 190.93 380.33 191.32 
M 377.46 178.93 378.04 179.07 378.58 179.8 378.53 180.4 377.95 180.27 377.41 179.53 377.46 178.93 
M 377.99 180.36 377.81 179.78 378.18 178.95 378.72 178.7 378.9 179.27 378.53 180.1 377.99 180.36 
M 380.85 173.39 380.32 173.11 380 172.26 380.21 171.69 380.74 171.98 381.06 172.83 380.85 173.39 
M 381.05 172.08 380.74 172.6 379.88 172.89 379.32 172.65 379.63 172.14 380.49 171.85 381.05 172.08 
M 293.37 50.64 293.72 50.15 294.18 50.04 
M 294.78 50.71 293.9 50.92 293.37 50.64 
M 294.29 51.12 294.08 50.56 294.24 50.11 
M 294.84 50.77 294.29 51.12 
M 289.3 51.8 288.75 52.05 287.88 51.8 287.55 51.3 288.09 51.04 288.97 51.3 289.3 51.8 
M 289.08 51.34 288.59 51.69 287.69 51.6 287.27 51.16 287.76 50.81 288.67 50.9 289.08 51.34 
M 284.47 40.37 283.89 40.23 283.35 39.5 283.4 38.9 283.99 39.03 284.52 39.77 284.47 40.37 
M 283.58 39.03 284.03 39.43 284.15 40.34 283.81 40.84 283.37 40.44 283.25 39.53 283.58 39.03 
M 358.09 207.66 358.18 207.5 359.03 207.18 359.27 207.27 
M 358.56 207.04 358.81 207.42 
M 358.07 207.66 358.11 207.44 358.56 207.04 
M 288.88 45.15 289.08 44.58 289.38 44.4 
M 289.86 45.03 289.47 45.26 288.88 45.15 
M 289.86 45.03 289.93 45.38 289.64 45.9 289.16 45.54 288.98 44.65 289.23 44.2 
M 213.61 115.71 214.09 116.04 213.68 116.47 
M 213.78 116.48 213.68 116.46 
M 213.6 115.58 213.83 115.88 213.78 116.48 
M 210 216.76 209.81 216.19 210.16 215.35 210.69 215.07 210.89 215.65 210.54 216.49 210 216.76 
M 210.63 215.28 210.56 215.88 209.89 216.5 209.29 216.52 209.36 215.92 210.03 215.3 210.63 215.28 
M 360.58 176.3 361 175.87 361.91 175.79 362.4 176.14 361.98 176.58 361.07 176.66 360.58 176.3 
M 360.83 176.03 361.43 176.01 362.13 176.59 362.23 177.18 361.63 177.2 360.93 176.62 360.83 176.03 
M 238.28 291.39 237.59 291.7 236.81 292.3 235.76 293.8 235.31 295.3 235.34 296.2 235.46 296.8 235.88 297.39 236.39 297.7 237.59 297.7 238.28 297.39 239.06 296.8 240.11 295.3 240.56 293.8 240.41 292.3 239.99 291.7 239.48 291.39 238.28 291.39 
M 242.75 293.5 241.49 297.7 
M 242.39 294.7 243.56 293.8 244.25 293.5 245.15 293.5 245.66 293.8 245.69 294.7 244.79 297.7 
M 245.69 294.7 246.86 293.8 247.55 293.5 248.45 293.5 248.96 293.8 248.99 294.7 248.09 297.7 
M 251.75 293.5 250.85 296.5 250.88 297.39 251.39 297.7 252.29 297.7 252.98 297.39 254.15 296.5 
M 255.05 293.5 253.79 297.7 
M 260.18 294.39 260.06 293.8 259.25 293.5 258.35 293.5 257.36 293.8 256.88 294.39 257 295 257.51 295.3 258.91 295.6 259.43 295.89 259.46 296.8 258.98 297.39 257.99 297.7 257.09 297.7 256.27 297.39 256.15 296.8 
M 266.18 291.39 264.28 297.7 
M 267.95 293.5 267.05 296.5 267.08 297.39 267.58 297.7 268.49 297.7 269.18 297.39 270.35 296.5 
M 271.25 293.5 269.99 297.7 
M 273.64 293.5 272.39 297.7 
M 273.29 294.7 274.45 293.8 275.14 293.5 276.05 293.5 276.56 293.8 276.58 294.7 275.69 297.7 
M 279.68 291.39 279.89 291.7 280.27 291.39 280.07 291.1 279.68 291.39 
M 279.35 293.5 278.08 297.7 
M 282.08 291.39 282.29 291.7 282.68 291.39 282.47 291.1 282.08 291.39 
M 281.75 293.5 280.49 297.7 
M 283.37 297.1 282.98 297.39 283.19 297.7 283.58 297.39 283.37 297.1 
"/></svg>
