<svg xmlns="http://www.w3.org/2000/svg" width="520" height="320"><rect x="0" y="0" width="520" height="320" fill="floralwhite"/><rect x="10" y="10" width="500" height="300" stroke="black" stroke-width="1" fill="none"/><path stroke="black" stroke-width="1" fill="none" stroke-linecap="round" stroke-linejoin="round" d="
M 177.48 78.28 184.52 78.53 191.55 79.22 205.61 81.16 226.7 83.35 247.8 86.32 261.86 87.53 268.89 88.4 275.92 89.77 289.98 93.18 297.02 94.53 304.05 95.43 318.11 96.9 325.14 97.87 339.2 100 346.23 101.37 347.03 101.84 
M 347.03 177.42 346.23 177.86 339.2 179.39 332.17 180.54 311.08 182.91 289.98 184.46 268.89 187.67 254.83 189.32 226.7 193.83 212.64 195.83 205.61 196.48 198.58 196.6 184.52 195.55 170.43 194.94 
M 178.91 140.57 179.96 136.55 179.96 133.61 179.7 132.59 
M 178.78 161.19 179.59 160.32 
M 182.11 155.83 182.11 154.1 180.33 150.74 179.05 149.38 
M 180.49 155.63 182.55 154.12 185.18 150.25 186.88 145.87 186.88 143.16 185.18 138.78 182.55 134.91 180.49 133.4 
M 178.62 170.94 181.43 169.79 183.86 167.8 
M 182.2 155.83 181.46 155.23 
M 181.04 155.04 178.95 154.19 
M 178.77 160.38 179.59 160.28 
M 178.81 162.52 179.59 162.48 
M 178.84 164.64 179.6 164.66 
M 182.78 177.94 183.66 177.04 183.66 175.29 180.89 172.46 177.71 170.61 
M 186.22 140.69 186.9 138.92 188.07 133.59 188.07 130.28 186.9 124.95 185.09 120.24 183.68 118.4 
M 193.06 154.48 191.66 150.58 189.4 146.98 187.63 145.58 
M 188.61 178.33 190.47 176.78 192.6 173.66 192.6 171.73 191.54 170.18 
M 177.98 78.96 178.46 78.32 
M 183.51 129.7 185.26 127.91 187.51 123.35 188.95 118.18 188.95 114.97 187.51 109.8 185.26 105.24 183.74 103.69 
M 183.22 113.5 186.16 112.42 
M 182.95 116.47 186.29 116.58 
M 182.48 119.62 186.64 120.6 
M 191.1 154.74 192.33 153.64 194.72 149.34 196.26 144.47 196.26 141.46 194.72 136.6 192.33 132.3 190.46 130.62 
M 192.23 174.48 194.62 173.15 196.42 171.15 
M 197.94 179.08 196.65 177.46 192.85 174.74 189.88 173.68 
M 182.75 87.23 183.54 86.08 184.89 82.71 184.89 80.61 184.05 78.51 
M 183.68 113.87 185.26 112.2 187.28 107.92 188.58 103.06 188.58 100.06 187.28 95.21 185.26 90.92 183.68 89.25 
M 192.47 142.99 193.91 141.11 195.76 136.3 196.96 130.86 196.96 127.49 195.76 122.04 193.91 117.24 192.47 115.36 
M 190.99 126.02 194.92 125.12 
M 190.88 129.09 194.59 129.06 
M 190.87 131.85 194.78 133.54 
M 203.04 153.61 201.72 148.82 199.67 144.75 198.07 143.16 
M 203.67 179.17 204.95 176.43 204.95 174.19 204.26 172.71 
M 184.46 81.28 186.52 80.35 188.13 78.89 
M 188.11 100.59 188.99 99.98 191.53 96.4 193.17 92.35 193.17 89.85 191.53 85.8 188.99 82.22 187 80.83 
M 185.47 88.85 189.92 87.94 
M 185.24 91.33 190.22 90.96 
M 186.25 93.51 190.09 94.43 
M 196.06 123.31 197.2 121.16 198.73 116.07 198.73 112.92 197.2 107.84 194.82 103.35 192.97 101.59 
M 200.03 153.92 201.81 152.16 204.09 147.67 205.56 142.58 205.56 139.43 204.09 134.33 201.81 129.84 200.03 128.08 
M 197.94 138.77 202.66 137.03 
M 198.41 141.18 203.2 141.32 
M 198.08 143.46 203.22 144.65 
M 203.84 175.75 205.88 174.27 206.62 173.18 
M 208.8 178.99 206.37 176.63 203.92 175.45 
M 192.32 87.26 194.11 84.87 195.51 81.58 195.51 79.75 
M 194.24 112.48 195.96 110.87 198.17 106.74 199.6 102.06 199.6 99.17 198.17 94.49 195.96 90.36 194.24 88.75 
M 204.22 135.07 204.76 133.68 205.95 128.31 205.95 124.98 204.76 119.61 202.93 114.87 201.49 113.01 
M 200.28 124.3 203.75 122.25 
M 199.9 126.91 203.46 126.58 
M 201.63 130.03 204.01 130.44 
M 212.6 152.31 212.6 151.81 211.4 146.87 209.53 142.5 208.07 140.8 
M 215.36 178.47 215.83 177.11 215.8 174.53 
M 195.62 80.83 197.5 80.01 
M 199.09 99.8 200.09 99.16 202.78 95.71 204.52 91.81 204.52 89.39 202.78 85.49 200.09 82.04 197.98 80.69 
M 195.91 88.7 201.22 87.25 
M 195.96 90.26 201.71 90.71 
M 196.81 92.42 201.3 93.3 
M 202.93 125.17 204.86 123.51 207.33 119.25 208.93 114.43 208.93 111.44 207.33 106.62 204.86 102.36 202.93 100.7 
M 211.49 147.53 212.77 144.91 214.18 139.85 214.18 136.72 212.77 131.67 210.58 127.2 208.87 125.46 
M 207.13 135.45 211.67 134.6 
M 207.41 138.36 211.66 138.2 
M 207.43 140.96 208.72 141.22 
M 208.75 141.23 211.85 141.86 
M 213.6 174.76 214.03 174.37 
M 214.21 151.93 213.6 151.38 
M 219.25 178.07 217.68 176.05 215.65 174.73 
M 201.6 88.84 203.36 87.7 205.62 84.78 207.07 81.32 
M 208.36 109.21 210.04 106.46 211.55 102.12 211.55 99.43 210.04 95.08 207.69 91.25 205.86 89.75 
M 204.12 98.22 208.59 97.15 
M 204.47 101.01 208.7 100.68 
M 205.17 103.41 208.7 104.11 
M 212.65 131.9 213.42 130.12 214.61 125.22 214.61 122.19 213.42 117.29 211.56 112.97 210.11 111.28 
M 208.81 121.45 212.74 119.79 
M 209.06 123.66 212.72 123.32 
M 208.76 126.24 209.05 126.37 
M 210.13 126.83 212.4 127.82 
M 219.94 151.44 220.03 147.91 218.9 142.9 217.16 138.47 215.79 136.75 
M 223.63 177.59 224.07 175.91 
M 209.55 100.29 211.01 99.4 
M 211.01 99.4 211.68 98.99 214.41 95.65 216.17 91.86 216.17 89.52 214.41 85.74 211.68 82.4 210.54 81.7 
M 213.29 123.11 215.25 121.57 217.76 117.63 219.38 113.17 219.38 110.41 217.76 105.95 215.25 102.01 213.29 100.48 
M 211.2 109.82 216.38 108.48 
M 211.09 111.77 216.76 111.88 
M 211.54 114.38 216.24 115.21 
M 217.35 147.41 219.14 145.75 219.56 144.99 
M 219.56 144.99 221.44 141.51 222.91 136.7 222.91 133.72 221.44 128.91 219.14 124.66 217.35 123.01 
M 224.63 151.16 223.69 149.43 221.9 147.8 
M 229.52 176.94 229.18 176.43 
M 212.93 88.84 214.72 87.68 217.02 84.71 218.03 82.42 
M 217.8 111.69 219.51 110.27 221.71 106.64 223.13 102.52 223.13 99.98 221.71 95.86 219.51 92.23 217.8 90.81 
M 216.11 99.02 220.66 98.34 
M 216.1 101.07 220.77 101.18 
M 216.2 103.23 220.62 104.22 
M 219.39 132.81 220.93 131.27 222.89 127.31 224.16 122.83 224.16 120.06 222.89 115.57 220.93 111.62 219.39 110.07 
M 228.29 150.81 229.15 147.72 229.15 144.72 227.81 139.87 225.73 135.59 224.11 133.92 
M 222.47 144.15 226.84 142.29 
M 222.58 146.09 226.44 146.05 
M 222.2 148.72 227.02 149.71 
M 230.91 176.78 231 176.6 
M 220.82 99.74 222.88 98.48 225.52 95.26 227.22 91.62 227.22 89.36 225.52 85.71 223.27 82.97 
M 223.64 121.55 225.56 120.07 228.02 116.27 229.61 111.96 229.61 109.3 228.02 104.99 225.56 101.19 223.64 99.71 
M 227.26 145.67 229.23 144.03 231.76 139.83 233.38 135.07 233.38 132.12 231.76 127.36 229.23 123.16 227.26 121.52 
M 225.69 131.32 230.29 129.84 
M 225.4 133.7 230.23 133.94 
M 225.66 135.76 230.18 137.39 
M 235.65 150.69 233.82 147.73 231.78 146.09 
M 226.61 87.44 228.78 84.78 229.28 83.72 
M 227.86 109.73 229.42 108.38 231.43 104.92 232.73 101 232.73 98.58 231.43 94.66 229.42 91.2 227.86 89.85 
M 229.5 131.97 231.09 130.35 233.13 126.2 234.44 121.49 234.44 118.58 233.13 113.88 231.09 109.72 229.5 108.1 
M 227.59 117.4 232.22 116.14 
M 227.92 119.67 231.93 120 
M 228.07 122.77 231.82 123.28 
M 241.06 150.38 241.71 148.22 241.71 145.12 240.2 140.11 237.86 135.69 236.03 133.96 
M 234.09 144.3 239.2 143.13 
M 234.42 146.34 239.26 147.04 
M 233.98 149 238.94 150.43 
M 232.27 98.16 233.6 97.37 236.2 94.3 237.88 90.82 237.88 88.67 236.2 85.19 235.76 84.67 
M 233.97 119.97 235.68 118.68 238.21 114.85 239.84 110.52 239.84 107.84 238.21 103.51 235.68 99.68 233.7 98.19 
M 231.84 107.11 236.61 105.76 
M 231.42 108.9 236.54 109.44 
M 231.47 111.55 237.12 112.71 
M 238.22 145.61 240.3 143.9 242.97 139.54 244.69 134.59 244.69 131.53 242.97 126.59 240.3 122.22 238.22 120.52 
M 236.47 130.78 241.58 129.36 
M 236.34 133.02 241.64 132.87 
M 236.07 135.2 241.4 136.69 
M 246.88 149.82 245.52 147.74 243.36 146.08 
M 237.28 87.26 237.71 87 239.22 85.2 
M 237.76 107.8 239.44 106.49 241.58 103.14 242.96 99.35 242.96 97.01 241.58 93.21 239.44 89.86 237.76 88.56 
M 242.71 127.05 243.7 125.14 245.15 120.23 245.15 117.19 243.7 112.28 241.45 107.94 239.69 106.25 
M 238.01 116.07 242.23 114.95 
M 237.75 119.02 242.9 118.97 
M 237.82 121.02 238.13 121.12 
M 238.63 121.28 242.52 122.53 
M 252.8 149.71 253.16 148.42 253.16 145.23 251.7 140.08 249.42 135.53 247.65 133.75 
M 242.51 97.92 244.59 96.73 247.26 93.7 248.98 90.26 248.98 88.13 248.09 86.35 
M 240.19 87.57 245.85 86.93 
M 240.53 89.15 246.06 89.27 
M 240.21 90.65 246.19 92.11 
M 244.68 119.77 246.81 118.26 249.53 114.4 251.29 110.02 251.29 107.31 249.53 102.94 246.81 99.07 244.68 97.56 
M 249.56 145.66 251.7 143.93 252.64 142.42 
M 252.64 142.42 254.45 139.5 256.22 134.48 256.22 131.37 254.45 126.35 251.7 121.92 249.56 120.19 
M 258.2 149.61 257.13 147.96 254.99 146.32 
M 247.05 87.67 248.97 86.43 
M 250.66 107.09 251.02 106.81 253.3 103.34 254.76 99.41 254.76 96.98 253.3 93.05 251.02 89.58 249.25 88.22 
M 252.01 131.94 253.9 130.26 256.33 125.96 257.9 121.09 257.9 118.08 256.33 113.21 253.9 108.91 252.01 107.23 
M 249.87 116.81 254.73 115.84 
M 250.26 119.83 254.79 119.6 
M 250.45 121.7 254.68 123.53 
M 263.78 149.75 264.22 148.17 264.22 144.99 262.8 139.84 260.6 135.3 258.88 133.53 
M 257.06 143.96 261.62 142.6 
M 257.21 146.63 261.7 146.21 
M 257.6 149.48 258 149.62 
M 254.24 97.72 255.98 96.73 258.68 93.65 260.42 90.16 260.42 88 260.11 87.39 
M 252.12 86.95 253.35 86.83 
M 251.82 88.76 257.07 88.72 
M 252.16 91.22 257.38 91.59 
M 256.48 120.18 258.68 118.66 261.48 114.77 263.3 110.37 263.3 107.65 261.48 103.25 258.68 99.37 256.48 97.85 
M 263.71 143.36 266.13 139.56 267.92 134.61 267.92 131.54 266.13 126.59 263.35 122.22 261.17 120.52 
M 269.51 149.85 268.33 147.98 266.27 146.37 
M 260.61 108.21 262.32 106.83 264.51 103.31 265.92 99.31 265.92 96.84 264.51 92.84 262.32 89.32 260.61 87.94 
M 267.19 128.69 268.47 126.49 270.06 121.68 270.06 118.71 268.47 113.91 266 109.66 264.07 108.01 
M 262.41 117.48 266.84 116.81 
M 261.91 119.97 267.23 120.06 
M 263.46 122.93 267.47 123.7 
M 274.28 150.1 275.02 147.49 275.02 144.4 273.61 139.42 271.44 135.02 269.74 133.3 
M 267.86 143.1 272.08 141.82 
M 267.8 146.32 272.5 145.58 
M 268.49 148.56 272.34 149.42 
M 265.41 97.61 267.25 96.56 269.97 93.46 271.72 89.94 271.72 88.95 
M 263.44 88.64 268.83 88.91 
M 263.36 90.52 268.6 91.59 
M 268.17 120.51 270.34 118.98 273.11 115.05 274.91 110.61 274.91 107.86 273.11 103.41 270.34 99.48 268.17 97.95 
M 274.51 144.24 275.04 143.85 277.87 139.58 279.7 134.76 279.7 131.77 277.87 126.94 275.04 122.68 272.82 121.01 
M 280.97 150.35 279.03 147.45 276.94 145.88 
M 271.24 107.71 272.99 106.29 275.23 102.63 276.67 98.49 276.67 95.93 275.23 91.79 273.72 89.34 
M 269.51 94.93 273.75 93.7 
M 269.35 97.52 274.35 97.35 
M 269.16 99.38 274.39 100.03 
M 279.04 131.27 280.96 127.79 282.48 122.95 282.48 119.95 280.96 115.1 278.6 110.82 276.75 109.15 
M 285.41 150.58 286.65 146.9 286.65 144.01 285.08 139.33 282.64 135.2 280.74 133.59 
M 276.61 97.75 278.8 96.55 281.59 93.46 282.65 91.41 
M 274.46 90.37 279.84 91.56 
M 279.69 120.73 281.82 119.18 284.55 115.19 286.31 110.68 286.31 107.89 284.55 103.38 281.82 99.4 279.69 97.85 
M 286.08 145.17 287.05 144.44 289.89 140.16 291.73 135.31 291.73 132.3 289.89 127.45 287.05 123.17 284.82 121.5 
M 293.02 150.88 290.91 148.08 288.64 146.57 
M 291.97 170.69 291.62 170.26 
M 283.06 107.78 284.9 106.39 287.25 102.84 288.77 98.82 288.77 96.33 287.34 92.54 
M 290.74 129.16 291.53 127.51 292.91 122.48 292.91 119.37 291.53 114.34 289.39 109.9 287.72 108.17 
M 299.43 151.37 300.27 148.9 300.27 145.89 298.63 141.04 296.08 136.75 294.09 135.08 
M 302.01 170.31 302.01 168.21 301.74 167.57 
M 294.84 169.28 299.13 169.61 
M 288.54 98.06 290.76 96.88 293.57 93.86 
M 290.97 120.48 293.11 118.93 295.85 114.97 297.62 110.48 297.62 107.7 295.85 103.21 293.11 99.25 290.97 97.7 
M 299.68 143.61 301.58 140.63 303.4 135.62 303.4 132.53 301.58 127.52 298.76 123.11 296.56 121.38 
M 294.71 131.43 299.79 129.95 
M 294.21 134.43 299.97 133.98 
M 295.96 137.08 300.34 137.78 
M 301.15 169.55 303.39 168.08 304.44 166.71 
M 305.24 151.77 303.39 149.34 301.15 147.87 
M 302.53 170.29 301.6 169.27 299.68 168.22 
M 294.9 107.68 296.75 106.36 299.11 102.97 300.64 99.13 300.64 96.76 299.9 94.9 
M 301.55 127.94 302.25 126.56 303.71 121.49 303.71 118.35 302.25 113.27 299.98 108.79 298.21 107.05 
M 311.04 153.19 312.15 149.63 312.15 146.5 310.57 141.44 308.12 136.98 306.21 135.23 
M 313.44 169.73 313.44 168.96 311.88 165.22 
M 300.36 98.39 302.6 97.21 304.27 95.45 
M 302.6 120.65 304.83 119.1 307.69 115.13 309.54 110.64 309.54 107.86 307.69 103.36 304.83 99.4 302.6 97.85 
M 300.71 106.68 306.43 106.01 
M 300.64 109.47 306.5 109.27 
M 300.61 111.18 306.32 112.46 
M 311.58 143.85 313.42 140.99 315.24 135.98 315.24 132.89 313.42 127.88 310.59 123.47 308.38 121.74 
M 312.94 169.1 314.68 167.88 317.32 164.19 317.85 162.88 
M 317.47 153.62 314.68 149.55 312.62 148.11 
M 313.47 169.73 312.94 169.15 
M 308.88 106.9 311.25 103.58 312.84 99.65 312.84 97.22 312.46 96.28 
M 310.44 133.72 312.34 131.95 314.77 127.42 316.34 122.29 316.34 119.11 314.77 113.98 312.34 109.44 310.44 107.67 
M 323.09 154.05 324.18 150.54 324.18 147.6 322.71 142.85 320.43 138.65 318.65 137.02 
M 321.91 169.13 322.05 168.75 322.05 166.63 320.82 163.21 319.99 161.9 
M 312.55 99.21 314.88 98.02 316.18 96.69 
M 314.89 121.37 317.14 119.84 320.03 115.91 321.89 111.47 321.89 108.72 320.03 104.28 317.14 100.35 314.89 98.82 
M 323.09 143.97 324.92 141.05 326.64 136.26 326.64 133.29 324.92 128.5 322.26 124.27 320.18 122.62 
M 318.14 132.47 323.26 131.48 
M 318.55 134.97 323.24 134.86 
M 318.34 137.43 319.23 137.58 
M 319.59 137.64 323.42 138.29 
M 323 167.81 324.89 166.42 327.3 162.87 328.85 158.84 328.85 157.86 
M 328.1 154.39 327.3 152.32 324.89 148.76 323.65 147.85 
M 323.46 160.32 325.66 160.87 
M 324.27 168.95 323.22 167.72 321.27 166.57 
M 319.68 109.68 321.58 108.35 324.01 104.92 325.58 101.04 325.58 98.64 325.27 97.89 
M 325.52 129.88 326.66 127.74 328.12 122.91 328.12 119.91 326.66 115.08 324.38 110.81 322.61 109.15 
M 329.02 159.22 330.49 157.68 330.85 156.95 
M 331.86 154.83 332.38 153.76 333.6 149.31 333.6 146.55 332.38 142.1 330.49 138.17 329.02 136.64 
M 327.28 145.97 331.74 144.6 
M 327.88 147.82 331.36 147.53 
M 327.4 150.5 331.67 150.92 
M 331.1 168.39 331.69 166.76 331.69 164.6 330.43 161.1 328.48 158.03 
M 325.25 100.11 327.56 98.97 328.2 98.33 
M 326.69 120.96 328.81 119.53 331.52 115.86 333.27 111.71 333.27 109.14 331.52 104.99 328.81 101.32 326.69 99.89 
M 324.97 108.21 330.31 106.97 
M 324.39 110.29 329.79 110.81 
M 324.84 112.26 329.9 113.84 
M 330.34 144.81 332.24 143.26 334.67 139.3 336.24 134.82 336.24 132.04 334.67 127.55 332.24 123.59 330.34 122.04 
M 328.73 131.3 333.18 130.33 
M 328.19 133.4 333.55 133.75 
M 328.19 135.58 333.4 137.2 
M 332.31 165.39 334.11 164.03 336.43 160.54 337.92 156.58 337.92 154.13 336.43 150.18 334.11 146.69 332.31 145.33 
M 330.23 153.14 334.96 152.6 
M 333.67 155.66 335.12 155.63 
M 330.43 157.41 334.95 158.34 
M 334.73 168 332.82 165.54 330.95 164.34 
M 332.65 107.87 332.96 107.65 335.21 104.53 336.67 100.99 336.67 99.61 
M 333.26 131.62 334.89 130.12 336.98 126.27 338.33 121.91 338.33 119.21 336.98 114.85 334.89 111 333.26 109.5 
M 336.49 154.73 337.94 153.24 339.78 149.44 340.97 145.14 340.97 142.47 339.78 138.17 337.94 134.37 336.49 132.88 
M 335.46 141.78 338.83 140.91 
M 334.88 143.87 338.64 143.9 
M 334.74 145.69 338.73 147.28 
M 340.91 167.22 341.67 165.12 341.67 162.92 340.37 159.35 338.36 156.2 336.79 154.97 
M 337.58 117.8 339.67 116.72 342.34 113.95 344.07 110.81 344.07 108.86 342.34 105.72 339.67 102.95 337.58 101.87 
M 335.77 107.85 340.75 107.31 
M 335.42 109.77 340.98 110.13 
M 335.3 111.81 340.68 112.54 
M 339.92 139.92 341.91 138.77 344.46 135.83 346.11 132.5 346.11 130.44 344.46 127.11 341.91 124.16 339.92 123.02 
M 341.64 161.1 343.61 160.02 346.14 157.25 347.03 155.54 
M 347.03 150.76 346.14 149.05 343.61 146.28 341.64 145.2 
M 339.74 151.29 345.11 151.01 
M 339.45 152.8 344.72 153.11 
M 339.43 154.61 344.75 155.83 
M 344.4 166.67 342.8 165.06 340.79 164.04 
M 175.69 182.63 176.59 182.37 180.89 179.87 182.78 177.94 
M 186.77 189.88 188.97 187.39 188.97 185.73 186.6 183.05 182.93 180.68 180.43 179.87 
M 178.46 78.32 178.46 78.32 
M 189.88 189.32 192.85 188.26 196.65 185.54 199.11 182.45 199.11 180.54 197.94 179.08 
M 184.05 78.51 184.05 78.51 
M 198.61 184.5 200.65 183.25 203.26 180.05 203.67 179.17 
M 188.13 78.89 188.13 78.89 
M 210.79 185.93 212.3 184.69 214.44 181.13 215.36 178.47 
M 214.81 189.87 212.23 187.05 210.79 186.26 
M 213.7 184.04 219.3 184.21 
M 221.36 183.29 223.14 179.44 223.63 177.59 
M 225.07 188.52 223.54 186.23 221.86 184.97 
M 210.54 81.7 210.54 81.7 
M 229.63 187.88 231.17 183.8 231.17 181.22 229.52 176.94 
M 227.77 181.58 229.33 179.99 230.91 176.78 
M 233.38 178.94 238.74 177.85 
M 233.26 181.27 238.45 181.47 
M 233.34 183.57 238.54 184.21 
M 229.28 83.72 229.28 83.72 
M 245.87 185.45 244.88 183.93 243.13 182.59 
M 235.76 84.67 235.76 84.67 
M 252.3 184.54 253.24 182.28 253.24 179.69 251.84 176.32 
M 239.22 85.2 239.22 85.2 
M 250.54 181.1 252.38 179.55 254.76 175.52 
M 255.6 178.57 261.25 177.76 
M 255.52 180.42 260.85 180.73 
M 248.97 86.43 248.97 86.43 
M 260.11 87.39 260.11 87.39 
M 276.05 181.77 275.82 181.44 274.21 180.29 
M 271.72 88.95 271.72 88.95 
M 285.02 180.51 285.21 180.05 285.21 177.7 283.59 173.89 282.97 173.06 
M 284.63 178.37 285.43 177.7 287.68 173.95 288.54 171.45 
M 285.58 180.44 284.99 180 
M 294.1 171.1 299.2 172.41 
M 299.9 94.9 299.9 94.9 
M 308.43 178.75 309.89 177.7 312.05 174.61 313.44 171.12 313.44 169.73 
M 304.27 95.45 304.27 95.45 
M 316.09 178.12 316.85 176.7 316.85 174.72 315.15 171.52 313.47 169.73 
M 325.27 97.89 325.27 97.89 
M 326.75 175.31 325.99 174.75 
M 328.96 171.29 333.81 170.3 
M 329.31 173.03 333.94 173.11 
M 336.79 173.07 338.36 171.84 340.37 168.69 340.91 167.22 
M 346.1 174.06 347.03 172.42 
M 347.03 170.59 345.37 167.65 344.4 166.67 
M 205.61 81.16 205.61 81.17 
M 211.79 81.84 215.8 73.92 219.86 71.24 221.11 69.12 222.83 67.97 225.29 67.55 229.47 65.33 234.32 63.84 236.86 63.37 241.23 61.54 243.26 60.4 246.06 60.51 249.23 61.57 250.79 59.96 253.19 55.63 255.22 54.9 257.7 55.19 260.38 56.77 263.12 58.05 265.2 57.5 266.99 56.31 268.78 56.47 273.68 58.46 275.69 58.83 278.78 59.73 283.62 60.25 286.33 60.89 287.98 61.88 289.56 63.65 292.16 68.29 292.89 70.53 292.97 77.34 293.28 79.89 293.27 81.2 287.71 92.63 
M 282.96 91.48 282.95 91.48 
M 209.57 81.6 212.1 80.44 213.31 78.87 
M 213.52 82.01 215.51 80.77 216.58 79.77 218.23 76.77 218.77 74.36 219.64 71.65 
M 217.49 82.37 219.17 81.29 221.27 77.25 
M 221.44 82.76 223.33 81.24 224.51 79.13 225.36 76.66 226.74 75.01 227.97 73.16 
M 225.4 83.2 227.23 81.96 228.46 79.81 229.95 77.85 231.78 73.78 233.55 72.55 234.49 70.87 
M 229.34 83.73 230.87 82.7 235.38 75.9 236.42 74.68 237.3 73.2 238.43 71.95 239.81 69.39 242.18 64.14 
M 233.28 84.3 234.87 83.04 236.29 81.49 238.19 78.93 239.5 76.63 240.23 75 241.41 73.43 241.62 72.49 245.15 67.3 
M 237.21 84.89 238.84 83.65 240.31 81.74 242.42 77.31 245.1 74.23 246.36 70.78 247.35 68.93 248.82 66.9 250.1 65.74 251.3 63.45 251.73 60.47 
M 241.15 85.48 242.81 84.29 244.07 82.32 245.2 80.16 246.42 78.34 250.75 69.42 252.05 67.09 253.9 65.99 254.76 63.9 255.49 60.9 
M 245.1 85.98 247.12 85.25 248.36 83.26 248.91 81.26 249.3 78.65 250.32 77.02 252.68 74.27 253.39 71.8 255.8 66.91 256.83 66.09 257.28 64.31 258.87 62.06 
M 249.05 86.44 251.13 85.5 252.29 83.64 252.78 81.43 254.16 78.9 255.42 75.64 256.26 74.23 
M 253.01 86.8 254.6 85.68 255.77 83.9 257.9 79.56 258.78 77.19 261.18 74.09 
M 256.98 87.13 258.52 85.93 259.8 84.03 261.92 79.45 264.62 75.08 265.67 74.06 268.19 67.8 268.42 64.47 268.96 62.49 
M 260.94 87.45 262.94 85.75 264.43 83.6 266.04 82.01 269.26 75.51 270.11 74.16 270.19 72.59 
M 264.9 87.9 266.94 86.23 268.36 84.29 269.76 82.85 271.01 80.66 272.04 78.42 272.89 76.27 273.27 74.27 274.63 73.58 275.26 72.23 276.75 69.8 278.37 65.97 279.95 63.44 
M 268.84 88.39 270.98 87.46 272.47 85.86 273.64 84.08 275.83 78.86 277.41 76.64 278.83 76.02 
M 272.75 89.15 274.81 88.21 276.69 86.63 279.68 82.87 281.6 80.78 282.79 79.06 
M 276.65 89.95 279.04 89.01 282.23 85.84 285.6 82 286.75 80.39 288.59 78.78 290.23 76.73 
M 280.51 90.89 283.59 89.8 286.53 87.99 
M 179.59 156.01 184.67 155.64 194.69 154.21 199.54 154.1 202.12 153.81 204.28 153.35 209.12 153.16 214.24 151.93 218.88 151.48 223.89 151.27 226.44 150.88 228.61 150.79 232.88 150.96 237.84 150.47 240.7 150.43 244.99 149.84 249.84 149.91 252.3 149.69 255.14 149.81 260.34 149.56 262.64 149.61 267.11 150.02 269.36 149.83 271.51 150.07 279.41 150.37 284.14 150.38 286.47 150.74 289.16 150.74 291.33 150.95 293.01 150.88 306.37 151.85 310.08 152.83 312.26 153.64 314.48 154.12 317.04 153.63 319.26 153.59 327.33 154.41 329.89 154.33 332.02 154.87 334.62 155.23 314.79 164.28 312.58 165.09 310.05 165.57 307.24 165.78 300.44 168.04 293.09 169.74 284.78 172.72 282.42 173.17 279.87 173.42 272.86 174.82 263.56 175.73 260.76 175.44 255.68 175.38 253.51 175.72 251.66 176.38 249.37 176.6 244.71 176.82 239.76 176.74 237.04 176.46 232.4 176.7 229.79 176.52 227.14 176.11 222.85 175.81 215.54 174.49 211.09 174.04 188.1 169.49 185.34 168.71 182.69 167.07 179.59 164.65 
M 187.17 156.95 194.79 156.33 209.17 155.95 214.37 155.44 216.66 154.88 218.96 154.75 230.72 155.63 235.48 155.82 241.33 155.48 243.65 155.51 245.48 155.87 249.78 156.22 252.61 156.07 257.44 156.14 262.37 156.93 264.29 156.48 266.77 156.73 269.11 157.45 273.73 157.71 278.74 158.46 281.09 159.34 283.52 159.16 286.77 159.47 291.3 160.52 
M 187.16 158.7 197.3 158.48 209.14 158.84 216.57 158.49 223.89 159.27 230.82 160.46 235.56 160.87 
M 187.17 160.42 194.5 160.66 197.19 161.01 199.77 160.9 202.26 161.01 206.73 161.49 208.98 161.41 214.07 161.86 221.75 162.94 225.81 164.4 230.82 165.14 233.09 165.86 238.9 166.91 
M 187.17 162.25 191.86 162.43 197.16 163.36 202.38 163.75 206.69 164.48 211.1 165.53 213.59 165.95 223.18 169 
M 179.59 161.98 184.74 163.63 187.28 164.15 191.97 164.67 194.51 165.32 199.49 166.15 206.34 167.85 211.07 169.31 213.18 170.28 215.19 171.78 217.65 173.05 222.25 174.78 225.04 175.6 227.37 176.48 
M 182.33 164.45 184.83 165.47 187.25 166.19 189.79 166.57 192.26 167.28 199.25 169.6 
M 205.61 196.48 208.79 199.39 211.13 201.15 212.98 203.15 217.57 206.03 219.65 207.7 221.22 209.23 222.52 211.61 224.77 214.21 227.79 216.21 230.1 216.86 231.92 217.83 231.98 224.9 231.09 226.92 230.57 229.31 229.91 234.59 229.05 236.8 227.85 238.67 218.98 255.09 218.17 253.38 218.49 250.97 218.28 248.29 217.22 243.5 215.44 241.34 214.06 240.05 214.36 236.88 214.14 234.13 213.25 231.45 212.14 229.09 210.19 227.55 208.6 225.33 207.75 222.57 206.44 219.51 205.49 216.8 205.3 214.1 204.65 211.67 203.23 209.51 202.3 207.31 199.7 199.44 198.58 196.6 
M 204.02 196.51 208.68 201.51 210.3 203.49 211.84 205.72 214.08 207.16 217.2 210.59 218.81 211.73 219.87 213.96 222.92 216.44 224.54 218.42 225.86 219.03 229.95 223.58 
M 202.43 196.53 204.38 199.11 208.9 206.08 210.53 207.9 212.78 212.2 215.96 216.21 220.01 222.01 
M 200.84 196.56 202.37 199.21 204.56 204.34 207.45 208.98 208.86 213.16 211.42 218.56 214.49 223.56 215.95 225.56 217.37 228.51 219.63 235.12 221.44 237.13 
M 332.17 180.54 338.46 188.59 333.06 187.1 331.39 187.99 329.06 188.67 326.71 189.61 325.03 190.96 322.32 191.08 320.01 190.96 317.45 189.92 312.57 190.86 310.53 191.88 308.29 192.61 305.77 193.05 304.1 194.31 299.56 195.91 297.57 197.23 295.32 198.19 292.48 198.24 290.53 199.36 288.95 201.1 287.16 202.68 285.72 204.6 283.2 205.11 280.53 205.26 275.31 207 274.23 209.25 272.04 206.89 270.7 204.28 269.38 199.39 267.99 196.78 266.01 194.23 263.96 191.95 261.86 188.5 
M 328.22 181.04 332.61 185.39 
M 324.27 181.52 327.82 186.03 
M 320.32 181.96 324.6 187.49 
M 316.36 182.38 320.53 187.06 
M 312.4 182.78 316.26 186.63 
M 308.44 183.11 311.94 186.93 
M 304.47 183.4 307.66 187.44 308.97 190.13 
M 300.5 183.66 303.27 187.35 304.64 190.04 
M 296.53 183.92 299.05 187.56 300.19 189.79 
M 292.57 184.25 294.77 187.73 
M 288.61 184.66 291.3 188.42 292.54 191.35 
M 284.67 185.21 287.66 189.02 289.22 195.52 291.03 197.63 
M 280.74 185.83 284.19 189.57 285.79 192.72 
M 276.81 186.49 280.07 189.8 283.72 195.37 285.58 198.44 286.28 201.43 
M 272.88 187.08 276.13 190.23 278.41 193.54 279.96 196.64 281.14 199.43 282.61 201.91 
M 268.94 187.66 274.05 193.69 275.72 196.64 277.52 198.64 278.23 202.22 279.58 204.41 
M 264.99 188.13 266.97 191.46 271.06 196.21 272.65 198.99 273.9 204.01 275.07 205.66 
M 346.23 101.37 349.11 100.49 351.25 99.36 353.56 98.58 357.57 96.35 360.44 95.31 366.59 91.92 368.25 90.3 372.71 87.15 374.74 85.98 380.06 84.3 381.55 82.83 382.52 81.32 385.42 79 388.4 77.49 390.43 74.75 395.88 72.88 398.22 70.88 399.76 69.93 401.25 68.72 402.01 67.37 404.58 66.7 406.44 65.65 419.45 66.31 421.25 66.78 423.33 67.54 425.79 68.67 429.82 70.05 435.56 72.91 444.55 76.16 445.48 75.96 449.71 78.37 452.19 79.93 463.5 89.08 473.27 98.95 480.06 107.46 480.6 108.43 481.88 112.72 483 115.47 484.63 120.36 485.13 122.29 486.23 124.83 486.83 126.85 486.87 129.99 487.34 132.68 488.34 135.91 489.58 141.61 490 144.29 489.56 146.38 489.53 148.88 489.02 150.9 488.01 152.42 487.64 154.59 487.04 156.72 487.15 159.83 487.01 162.69 485.31 167 483.85 168.53 483 170.68 482.54 173.22 481.8 175.48 481.77 178.46 480.95 180.89 477.69 184.38 476.3 186.35 474.47 187.9 471.2 191.38 469.26 192.8 467.09 194 465.68 195.97 463.91 197.56 461.88 198.9 460.12 200.5 457.9 201.63 456.54 203.63 452.32 206.07 447.21 207.42 444.84 208.28 442.77 212.66 440.75 213.78 437.42 213.6 432.66 215.12 430.69 216.29 428.22 216.75 424.98 216.45 419.93 217.28 417.22 218.47 408.57 221.41 405.57 219.88 400.43 217.93 398.17 216.9 397.16 215.57 390.72 209.6 388.82 207.56 386.89 206.66 383.08 203.71 378.59 200.93 376.26 199.06 374.1 198.08 371.57 197.24 367.68 194.62 364.38 191.68 362.35 189.61 359.93 188.33 355.99 184.52 351.45 181.65 346.23 177.86 
M 349.03 104.56 351.34 103.69 360.31 99.22 369.63 95.17 371.54 94.03 373.11 92.85 375.01 92.11 379.74 89.23 384.73 87.51 386.12 86.03 388.39 84.66 392.35 81.54 394.64 79.14 396.69 78.35 399 77.99 400.73 78.47 402.32 76.56 404.57 74.66 406.97 73.09 411.85 71.73 413.63 70.7 415.61 69.13 
M 346.23 109.02 348.99 108.91 353.79 107.23 358.47 104.65 360.68 103.87 362.91 102.52 365.02 101.81 369.84 101 371.94 99.81 377.14 96.16 379.4 95.47 382.16 94.24 385.24 93.79 387.41 92.66 389.11 91.34 391.18 90.42 392.55 89.04 394.92 88.03 397.38 86.05 400.12 85.26 401.91 84.04 403.63 83.51 
M 353.86 111.3 360.72 108.18 364.69 106.83 367.04 106.32 369.78 105.2 371.81 104.08 373.59 102.53 375.77 101.5 378.13 100.58 380.9 100.11 382.98 99.16 388.37 98.25 390.57 97.08 396 94.63 401.38 92.79 403.23 91.64 
M 349.13 116.39 351.69 115.95 356.58 114.74 361.07 112.86 365.01 111.99 367.2 110.56 369.51 109.62 378.09 108.05 381.52 106.55 386.11 103.92 388.16 102.91 390.6 102.02 393.37 102.22 395.56 101.19 398.02 101.41 400.67 101.02 402.8 100.45 404.68 98.57 406.64 97.79 408.69 97.71 410.77 96.19 412.74 95.35 415.88 94.92 420.22 93.74 
M 351.55 120.08 356.35 119.09 358.59 118.41 361.01 118 363.47 117.22 366.39 116.68 368.96 115.85 371.15 115.34 375.11 113.64 377.91 112.9 385.36 111.6 387.47 111.08 389.76 110.24 391.75 109.91 396.69 108.25 399.07 107.65 403.39 106.85 408.84 104.94 410.37 104.96 412.8 103.61 415.33 103.59 417.47 104.39 422.57 101.78 
M 349.12 124.38 351.47 124.27 361.61 122.27 363.82 122.19 366.39 121.7 369.39 121.57 371.9 120.8 375.46 119.27 380.01 117.81 384.97 117.89 387.69 117.32 390.28 117.22 396.83 115.55 398.96 114.28 402.38 113.71 408.76 111.24 411.34 110.75 414.42 111.12 416.12 111.06 418.01 110.32 
M 349.04 128.31 354.03 127.92 356.82 127.4 361.85 126.86 366.26 126.73 368.72 126.25 372.7 125.78 375.31 124.82 380.67 124.38 385.88 124.35 388.43 123.44 390.81 122.86 392.75 122.09 397.2 121.99 399.74 121.14 401.98 120.71 407.22 119.34 410.19 119.17 412.27 118.48 416.13 118.62 425.58 117.1 428.16 116.9 430.56 117.04 435.37 115.76 437.66 114.75 444.26 112.4 447.07 112.73 449.43 112.48 451.98 112 455.5 111.72 459.5 111.02 461.27 111.29 461.55 111.75 
M 354.64 131.92 356.89 131.45 364.52 131.26 368.24 130.93 370.84 130.46 376.78 130.43 379.16 130.31 380.83 129.91 383.83 129.61 386.03 129.69 393.15 128.26 395.31 128.1 397.43 127.67 402.53 128.14 407.54 127.3 409.93 126.51 413.77 126.9 415.55 126.55 421.84 126.19 424.48 126.98 426.5 126.63 428.67 126.7 431.34 125.3 433.61 124.77 
M 346.23 135.79 349.09 136.18 351.65 135.93 356.64 135.84 359.28 136.16 366.39 135.85 371.2 135.98 377.3 136.92 379.7 136.41 382.44 136.15 384.41 134.68 387.11 134.36 389.07 134.58 391.19 135.14 396.03 135.18 399.4 134.86 402.09 133.78 404.49 133.96 405.97 134.91 408.19 135.39 410.4 135.14 412.18 135.56 414.07 135.06 416.8 133.89 419.31 134.01 422.08 133.25 424.99 133.67 427.4 133.26 430.57 133.54 432.78 133.05 435.19 133.38 437.33 132.91 442.84 133.56 
M 351.38 140.26 361.27 141.14 363.88 140.98 369.32 141.87 374.22 142.25 379.89 142.22 382.27 141.2 384.49 140.88 387.12 141.18 389.33 140.74 391.97 141.17 394.37 142.15 398.77 141.61 401.03 141.58 403.72 141.05 406.34 141.71 408.68 141.71 411.2 141.38 416.23 142.49 418.65 142.74 421.05 142.52 423.96 142.02 426 141.2 428.23 141.11 
M 351.76 144.23 359.38 145.59 361.66 145.8 364.26 145.79 369.05 146.29 373.91 146.16 376.72 146.8 381.67 146.72 384.76 146.99 387.19 146.89 394.19 148.27 403.16 148.77 406.56 149.4 409.06 149.11 416.4 149.71 418.46 150.54 420.79 150.19 421.64 150.78 423.94 150.29 426.13 150.76 429.66 151.23 433.88 150.89 436.49 151.06 437.65 152.41 439.18 153.29 441.52 154.3 443.86 153.68 446.1 152.66 450.88 152.96 462.75 152.84 467.39 153.69 470.19 153.38 472.77 154.04 478.34 154.94 481.55 157.14 
M 346.23 147.26 349.18 147.88 354.59 148.6 356.82 149.04 361.4 150.37 369.72 151.26 373.63 151.84 378.3 152.8 383.8 152.9 385.96 153.37 388.8 154.27 390.7 154.44 392.77 154.04 399.63 155.62 406.85 156.73 409.2 157.28 412.23 157.3 414.75 157.63 
M 349.12 151.83 351.61 152.65 354.11 153.19 356.33 154.16 363.8 155.92 369.82 156.39 373.49 157.97 380.43 159.67 382.98 159.58 393.09 161.4 395.23 161.62 397.23 162.09 399.51 163.4 402.32 163.47 404.26 163.72 406.47 164.68 408.23 165.76 411.25 166.01 417.8 167.17 420.14 167.2 422.39 166.6 425.14 167.45 429.79 169.41 431.55 169.77 433.35 169.73 435.95 169.95 437.98 169.57 440.28 170.99 442.83 171.62 445.44 171.78 448.61 172.52 451.6 173.6 454.26 173.17 456.78 174.01 458.89 174.29 461.55 175.36 
M 349.12 155.87 351.62 156.9 360.92 160.12 364.09 160.87 369.42 161.81 371.59 162.51 377.9 163.71 382.6 165.16 385.26 165.59 392.48 168.51 395.04 169.34 397.76 169.73 399.97 169.61 401.65 170.23 406.96 170.95 409.73 172.43 411.82 173.11 413.43 173.83 417.39 174.76 420.58 175.26 428.44 177.31 430.81 177.64 
M 346.23 158.74 351.17 161.26 353.53 162.26 356.2 162.89 364 165.92 372.8 168.65 377.22 169.72 379.89 171.11 382.64 172.21 387.66 173.63 392.09 175.26 396.79 176.64 399.51 176.76 402 176.29 404.29 177.45 406.48 178.28 408.71 179.62 411.49 180.75 413.44 181.31 415.46 182.33 417.06 182.53 421.13 184.4 423.28 184.78 426.2 184.72 428.91 186.4 433.91 187.59 436.18 187.8 439.67 189.38 442.72 190.03 445.41 190.9 446.86 190.49 447.75 191.79 449.1 193.2 451.24 194.24 452.7 195.26 455.68 195.36 458.03 195.67 461.11 196.62 
M 348.76 164.3 353.75 166.58 356.02 167.32 358.8 167.94 363.78 170.28 365.66 171.48 367.44 172.15 369.47 173.18 372.02 173.66 377.65 175.67 379.78 176.24 382.15 177.17 384.98 177.97 387.51 179.03 390.45 180.92 392.4 181.36 394.64 182.81 397.23 183.5 400.48 183.89 403.74 185.38 408.07 187.8 409.98 188.32 412.31 189.49 413.77 191.35 417.34 191.93 419.82 193.36 422.62 194.05 424.47 195.28 426.72 196.38 432.7 196.65 435.32 197.06 437.07 198.15 
M 346.23 166.39 348.72 168.18 351.27 169.58 355.95 171.51 360.55 173.73 362.74 174.51 367.04 176.66 369.29 177.49 371.84 178.82 375.03 179.45 382.33 182.01 384.23 183.52 385.6 185.21 388.36 186.04 391.21 187.35 392.78 188.37 397.28 189.99 401.77 192.53 403.28 194.21 405.95 195.49 410.24 196.97 412.58 197.22 414.58 197.88 
M 351.44 173.43 353.8 174.73 358.65 177.03 360.43 177.69 362.64 179 368.76 183.13 371.46 184.71 374.22 185.65 376.65 186.8 381.08 188.22 383.35 189.54 385.93 190.14 387.94 191.29 389.19 193.35 392.36 196.82 393.95 198.32 396.7 199.52 399.03 200.18 401.36 200.15 403.43 202.05 406.42 203.32 
M 346.23 174.04 348.89 176.05 351.45 177.45 355.98 180.28 358.19 181.34 360.11 182.49 362.42 184.04 366.6 187.27 371.35 190.43 373.68 191.44 375.93 192.62 378.03 193.98 380 194.82 383.03 197.38 387.26 200.41 388.62 202.08 390.97 202.81 394.83 203.7 397.62 206.13 401.12 207.87 403.46 209.74 405.15 210.73 406.35 211.96 407.49 212.63 410.44 212.89 
M 288.42 91.61 291.36 92.02 292.8 91.56 295.42 89.78 297.01 89.79 299.4 92.61 300.72 93.74 303.86 94.09 305.3 93.43 306.56 92.48 308.02 91.74 309.54 92.38 311.68 94.48 312.99 94.8 315.84 94.64 317.18 93.85 318.72 93.26 320.5 93.32 322.93 95.47 324.37 96.27 327.65 96.87 330.57 95.76 332.16 95.4 337.53 98.33 339.2 100 
M 85.58 107.53 86.02 106.62 87.32 104.96 89.24 102.81 91.76 100.35 95.71 98 105.46 93.7 110.91 91.54 123.84 87.53 131.16 85.07 137.99 83.09 145.33 81.59 152.56 80.69 159.1 79.4 165.2 78.55 175.02 78.11 177.44 78.23 182.17 84.73 183.61 90.97 183.98 97.16 183.76 103.31 183.08 115.59 182.17 121.7 180.9 127.78 179.38 133.85 178.89 139.99 179.06 146.16 179.05 152.32 178.74 158.46 178.84 164.63 176.57 176.82 175.65 182.93 174.15 189 170.43 194.89 158.64 194.02 149.66 192.2 141.5 189.6 134.11 185.91 127.66 181.56 121.93 176.59 116.52 171.19 111.59 165.75 103.59 153.37 99.92 146.88 
M 85.65 107.88 85.58 107.53 
M 159.24 109.3 157.92 114.49 156.03 119.39 154.76 123.99 152.52 135.88 152.54 139.48 152.06 143.08 152.18 147 153.61 156.06 152.48 161.4 144.77 161.95 138.83 162.08 132.94 161.53 127.21 159.9 121.95 157.37 117.11 153.81 112.49 149.34 
M 99.24 145.97 96.28 139.98 93.74 134.38 86.21 116.05 83.77 110.7 84.1 108.79 85.79 107.8 87.65 108.48 88.61 110.18 89.32 112.01 93.03 123.81 95.04 131.33 98.25 140.8 100.5 146.62 
M 99.94 147.17 82.76 140.85 68.11 134.72 66.23 133.79 65.4 131.89 66.25 130.11 68.3 129.75 70.26 130.56 74.02 132.48 79.03 135.56 87.76 140.26 96.73 144.79 100.28 146.42 
M 120.8 114.7 119.67 110.45 119.99 106.05 121.72 102 124.67 98.73 128.52 96.6 132.86 95.83 137.21 96.51 141.11 98.57 144.12 101.78 145.93 105.79 146.34 110.18 145.3 114.46 142.93 118.17 139.48 120.91 135.33 122.38 130.92 122.43 126.74 121.04 123.24 118.37 120.8 114.7 
M 120.63 114.33 120.1 112.76 119.75 111.14 119.62 109.48 119.69 107.83 119.96 106.19 120.43 104.6 121.1 103.08 121.95 101.66 122.97 100.35 124.14 99.18 125.45 98.16 126.87 97.31 128.39 96.65 129.98 96.17 131.61 95.9 133.27 95.83 134.92 95.97 136.55 96.31 138.11 96.85 
M 122.1 113.72 121.33 110.91 121.21 109.45 121.27 107.99 121.68 105.99 
M 124.78 100.79 126.34 99.48 127.6 98.73 130.34 97.72 133.24 97.42 134.69 97.54 137.51 98.32 
M 123.57 113.11 123.16 111.91 122.8 109.42 122.85 108.16 123.23 106.34 
M 125.97 101.84 127.24 100.79 128.33 100.14 130.7 99.27 133.2 99.01 134.46 99.12 136.9 99.79 
M 125.04 112.5 124.7 111.49 124.39 109.39 124.44 108.32 124.74 106.83 
M 127.09 102.97 129.06 101.56 131.05 100.82 132.11 100.65 134.23 100.69 136.29 101.26 
M 126.51 111.89 126.23 111.07 125.98 109.35 126.31 107.13 
M 128.2 104.1 129.78 102.97 131.41 102.38 133.14 102.2 134.01 102.27 135.68 102.73 
M 128.11 111.41 127.67 109.7 127.79 107.95 128.04 107.37 
M 129.54 105.16 131.21 104.16 132.94 103.86 134.68 104.13 136.24 104.95 137.45 106.24 138.17 107.84 138.33 109.6 137.92 111.31 136.97 112.79 135.59 113.89 133.93 114.48 132.17 114.5 130.49 113.94 129.09 112.87 128.11 111.41 
M 130.22 104.71 129.84 105.47 
M 128.77 107.61 127.69 109.78 
M 131.74 104.07 130.63 106.28 
M 129.8 107.94 128.1 111.35 
M 133.03 103.87 131.41 107.11 
M 130.88 108.17 128.77 112.39 
M 134.14 104.04 132.18 107.96 
M 132 108.31 129.55 113.22 
M 135.16 104.38 130.41 113.88 
M 136.11 104.88 131.42 114.25 
M 136.91 105.66 132.49 114.49 
M 137.62 106.63 133.69 114.48 
M 138.17 107.9 135.09 114.06 
M 138.15 110.34 136.9 112.85 
M 107.99 160.01 112.12 164.14 
M 100.3 147.54 104.98 152.22 
M 98.21 140.68 100.19 142.67 
M 95.73 133.43 98.93 136.62 
M 93.76 126.69 95.07 127.99 
M 91.77 119.92 93.12 121.27 
M 89.66 113.03 90 113.38 
M 86.9 105.5 90.36 108.96 
M 89.12 102.94 91.87 105.69 
M 91.53 100.58 94.64 103.7 
M 94.46 98.74 97.24 101.51 
M 97.66 97.16 101.38 100.88 
M 100.99 95.71 105.33 100.06 
M 104.28 94.23 106.74 96.69 
M 107.65 92.83 110.3 95.48 
M 111.08 91.49 113.53 93.93 
M 114.73 90.36 119.25 94.88 
M 118.38 89.23 121.2 92.06 
M 122.02 88.1 126.01 92.09 
M 125.63 86.93 130.3 91.6 
M 129.2 85.73 132.31 88.84 
M 132.83 84.58 136.44 88.2 
M 136.53 83.51 140.91 87.89 
M 140.39 82.6 143.52 85.72 
M 144.35 81.79 148.37 85.81 
M 148.53 81.19 151.77 84.42 
M 152.76 80.65 156.44 84.32 
M 156.76 79.86 160.67 83.77 
M 160.83 79.16 164.38 82.72 
M 165.02 78.58 168.38 81.94 
M 169.51 78.3 172.3 81.09 
M 174.13 78.14 176.81 80.82 
M 148.99 189.85 147.83 188.91 146.58 187.4 146.01 186.52 145.58 185.04 145.14 184.31 144.25 183.69 143.36 183.41 
M 126.86 153.9 125.52 154.21 122.76 154.02 122.13 153.84 119.65 152.03 115.64 150.94 
M 142.5 143.12 141.04 143.49 135.75 146.18 134.24 147.2 132.77 149.03 
M 126.37 128.87 126.62 128.57 126.59 128.27 
M 141.19 128.07 141.16 125.91 140.43 122.36 140.15 121.56 139.6 120.82 
M 90.05 103.83 89.69 102.98 89.9 102.17 
M 173.38 116.54 171.91 117.03 170.82 117.1 170.01 116.69 168.78 115.65 
M 153.54 136.26 152.53 136.71 149.29 137.4 145.94 136.93 
M 161.38 94.65 160.85 90.73 160.9 88.91 161.21 88.36 161.97 87.7 162.96 87.4 163.46 87.67 
M 156.21 122.58 158.9 123.76 164.75 124.97 
M 180.19 129.29 180.42 128.6 180.85 128 
M 159.26 134.51 159.27 133.63 161.04 130.57 161.75 128.91 161.78 127.05 162.23 126.35 162.67 126.11 
M 94.02 117.58 94.31 119 94.62 119.51 95.78 121.12 96.47 121.13 
M 129.27 92.51 127.41 95.07 127.07 95.86 126.7 97.61 
M 127.63 162.51 125.67 164.49 124.57 165.33 121.33 166.64 118.55 168.67 
M 105.95 145.96 107.68 146.03 108.82 146.7 109.4 147.89 109.95 149.56 
M 97.47 97.47 97.31 97.31 
M 179.08 125.49 180.31 124.53 181.97 122.66 
M 182.29 120.87 181.86 120.1 181.01 119.7 
M 133.73 135.6 133.23 135.48 132.43 135.57 130.54 136.31 128.25 136.39 
M 95.5 104.01 94.99 103.3 93.56 102.65 93.21 102.16 93.22 101.27 93.8 100 94.02 99.01 
M 94.03 101.78 94.6 98.66 
M 104 125.6 103.34 124.85 101.78 123.55 100.59 121.59 100.1 121.2 
M 146.29 110.38 146.61 110.9 
M 162.25 100.58 161.71 100.28 160.51 98.85 158.54 97.72 158.04 97.22 
M 171.07 123.77 172.9 121.65 173 120.98 
M 98.07 126.37 98.5 125.95 98.91 125.04 99.74 123.89 100.28 122.61 100.28 121.96 
M 172.48 178.37 171.77 178.37 171.03 177.95 168.46 174.64 167.1 172 
M 132.82 161.98 132.16 162.47 131.12 164.12 129.76 165.8 128.29 166.82 126.1 167.57 
M 91.31 109.59 89.96 108.94 85.62 107.44 
M 134 138.59 133.36 138.44 131.63 138.59 127.3 137.79 125.46 137.97 
M 157.09 151.09 162.02 146.05 162.46 145.27 162.5 144.81 162.02 144.13 
M 176.4 143.93 176.34 141.5 176.59 139.98 177.48 137.28 178.25 135.55 
M 169.97 110.64 165.85 111.4 163.9 111.01 163.37 110.74 163.07 110.35 
M 103.39 153.02 103.82 152.63 105.36 151.91 106.19 151.7 
M 107.05 154.15 107.54 153.85 107.85 153.99 107.88 154.68 107.54 155.07 
M 165.89 148.71 165.54 147.14 164.08 145.27 
M 172.15 127.28 171.71 127.71 171.08 127.99 170.45 127.84 170.11 127.33 170.22 126.6 170.43 126.24 171.75 125.47 
M 112.31 142.65 111.26 142.38 110.14 141.76 109.61 142.09 109.22 142.85 
M 112.11 94.36 109.74 92 
M 143.95 170.37 144.7 172.63 145.32 175.6 145.26 176.32 144.84 177.69 144.53 178.3 144 178.65 
M 116.3 135.53 115.84 134.33 115.78 133.67 116 132.59 116.52 131.24 117.27 130.3 117.94 129.96 
M 131.36 139.88 128.36 139.69 124.22 139.76 120.58 138.96 
M 146.88 190.98 145.92 190.5 145.12 189.78 144.69 188.44 144.35 186.21 143.94 184.79 143.6 184.24 142.93 183.68 
M 166.65 186.64 165.84 186.86 165.1 186.48 164.72 185.82 164.26 184.16 
M 177.07 101.67 178.49 102.2 179.35 102.86 179.8 102.88 
M 158.95 151.06 160.89 148.36 162.69 146.54 163.15 145.69 163.16 144.84 161.88 143.94 
M 103.94 153.89 104.12 153.15 105.05 152.25 107.45 151.32 
M 127.71 147.09 130.22 148.64 131.33 149.59 131.55 151.11 130.94 152.43 130.39 153.14 
M 149.75 122.26 149.37 122.42 149.08 122.36 
M 162.85 100.93 162.12 100.97 161.78 100.75 160.46 98.94 158.48 97.89 
M 163.66 164.2 163.96 163.63 164.06 162.29 
M 143.02 97.63 143.42 96.97 143.53 96.25 142.79 94.19 141.76 93.37 141.43 93.32 140.91 93.64 
M 183.05 89.61 181.89 91.51 180.01 94.09 179.48 94.39 
M 173.7 160.4 173.17 160.54 172.52 160.47 169.94 159.61 168.56 158.91 166.77 157.72 164.88 156.84 
M 112.72 126.13 112.1 124.77 111.26 121.6 110.26 119.8 107.54 117.3 105.87 116.24 
M 135.89 143.86 133.04 144.19 131.63 144.13 130.95 144.31 130.44 144.65 130.17 145.03 130.12 145.38 131.34 147.39 
M 143.7 185.13 143.41 184.49 142.82 183.82 141.74 183.42 141.24 183.44 139.77 184.05 137.87 184.27 
M 92.2 153.73 91.68 155.95 91.57 158.16 92.4 165.21 92.44 167.73 92.1 170.24 91.36 172.67 90.26 174.93 88.95 177.01 84.9 182.91 81.01 188.96 77.91 192.69 74.46 196.07 72.6 197.62 66.69 201.67 64.88 203.18 61.63 206.61 58.68 210.36 55.47 213.92 51.77 216.97 43.88 222.34 51.65 216.81 55.23 213.68 58.32 210.07 61.17 206.23 64.38 202.64 66.2 201.05 71.99 196.84 73.75 195.28 77.03 191.89 79.93 188.2 83.61 182.09 87.51 176.07 88.69 174.08 89.62 172.01 90.22 169.86 90.45 167.64 90.35 165.38 89.32 158.23 89.38 155.67 89.87 153.23 
M 89.41 159.04 88.38 165.2 87.73 167.62 86.73 169.95 85.39 172.09 83.78 174.01 76.65 180.45 71.5 185.44 67.75 188.48 63.79 191.23 61.73 192.48 55.31 195.67 53.29 196.9 49.59 199.83 44.36 204.72 40.51 207.58 36.35 209.95 30 213.25 36.29 209.83 40.36 207.35 44.1 204.42 49.18 199.39 52.88 196.3 54.91 194.98 61.23 191.62 67.02 187.53 70.6 184.46 75.6 179.35 82.46 172.8 83.88 171.02 85.02 169.08 85.84 167 86.37 164.79 86.95 160.09 87.41 157.63 88.22 155.2 89.39 153 
M 92.18 153.63 92.16 153.72 
M 91.83 155.34 91.66 156.42 
M 84.66 180.43 82.44 182.07 80.24 183.22 77.92 184.07 75.5 184.66 72.15 184.82 
M 70.31 184.72 68.13 184.35 65.8 183.48 63.68 182.21 61.77 180.66 60.11 178.86 58.7 176.87 57.54 174.73 56.71 172.43 56.26 170.04 56.16 167.61 56.36 165.21 56.8 162.84 58.16 158.25 60.52 151.48 61.68 146.86 60.58 151.5 58.41 158.33 57.19 162.92 56.82 165.26 56.69 167.62 56.85 169.96 57.34 172.25 58.2 174.42 59.37 176.44 60.78 178.31 62.4 179.98 64.24 181.39 66.24 182.52 68.41 183.25 71.47 183.58 
M 73.49 183.53 75.28 183.35 77.49 182.75 79.63 181.89 81.63 180.78 83.44 179.39 85.08 177.79 86.51 176.01 87.71 174.08 88.61 172.01 89.21 169.85 89.45 167.61 89.47 165.29 89.25 159.76 
M 89.82 153.24 89.83 153.18 
M 99.89 146.89 100.11 147.47 
M 97.42 142.25 97.35 142.54 97.55 142.55 
M 95.22 137.65 94.86 138.36 95.47 138.17 
M 93.19 133.07 92.86 133.32 92.37 134.18 93.03 133.77 93.47 133.74 
M 91.35 128.41 90.57 128.92 89.88 129.99 90.73 129.37 91.67 129.24 
M 89.38 123.87 88.27 124.53 87.4 125.81 88.44 124.98 89.77 124.74 
M 87.52 119.28 85.98 120.14 84.91 121.63 86.14 120.58 87.89 120.21 
M 85.63 114.71 83.68 115.74 82.42 117.45 83.85 116.19 86.05 115.68 
M 83.88 110.08 81.38 111.35 79.93 113.26 81.55 111.79 83.99 111.19 
M 100.09 146.84 100.56 147.05 
M 95.15 144.01 95.83 143.8 95.85 144.35 
M 90.59 141.67 91.09 141.19 91.82 140.88 91.53 141.39 91.49 142.1 
M 86.09 139.37 86.83 138.47 87.82 137.96 87.26 138.67 87.05 139.88 
M 81.68 136.99 82.57 135.75 83.81 135.04 83 135.95 82.63 137.5 
M 77.33 134.49 78.3 133.03 79.81 132.12 78.74 133.23 78.23 135.05 
M 73.02 131.94 74.04 130.31 75.8 129.2 74.48 130.51 73.9 132.41 
M 68.45 129.81 69.78 127.59 71.8 126.28 70.21 127.79 69.42 130.21 
M 71.61 136.09 76.71 141.37 81.21 145.72 85.9 149.67 90.67 153.31 95.69 156.68 100.96 159.89 111.59 165.75 
M 181.08 83.22 183.79 85.93 
M 182.68 78.47 189.59 85.37 
M 189.62 79.03 195.16 84.57 
M 196.88 79.93 206.43 89.48 
M 204.29 80.98 211.14 87.82 
M 211.49 81.81 220.07 90.39 
M 218.51 82.46 223.7 87.65 
M 225.65 83.23 232.61 90.2 
M 233.05 84.27 239.07 90.29 
M 240.54 85.4 249.42 94.27 
M 247.84 86.33 252.77 91.26 
M 254.84 86.96 261.59 93.71 
M 261.76 87.52 270.7 96.45 
M 269.04 88.42 273.99 93.38 
M 277.01 90.03 284.53 97.55 
M 285.42 92.08 291.4 98.06 
M 293.57 93.86 300.57 100.86 
M 301.13 95.06 309.73 103.66 
M 308.29 95.85 316.13 103.69 
M 315.41 96.61 324.41 105.6 
M 322.71 97.54 330.71 105.54 
M 330.17 98.63 337.68 106.14 
M 337.67 99.76 345.9 107.99 
M 345.5 101.23 349.76 105.49 
M 219.49 81.99 219.79 82.6 
M 223.04 81.93 223.57 83 
M 225.68 72.89 226.39 74.31 
M 226.68 67.72 229.53 73.42 
M 230.24 74.84 230.95 76.26 
M 229.15 65.5 233.78 74.76 
M 232.24 64.52 236.15 72.35 
M 236.86 73.77 237.58 75.2 
M 235.38 63.64 237.16 67.2 
M 246.35 85.58 246.64 86.16 
M 248.1 81.92 250.42 86.56 
M 253.85 86.26 254.17 86.89 
M 249.15 69.7 253.42 78.24 
M 256.27 83.93 257.62 86.64 
M 251.76 67.75 258.16 80.56 
M 252.92 62.92 260.75 78.58 
M 261.46 80 262.18 81.42 
M 255.51 60.93 256.22 62.36 
M 256.93 63.78 264.05 78.02 
M 256.13 55.01 256.48 55.72 
M 258.62 59.99 260.75 64.26 
M 261.47 65.68 262.18 67.11 
M 262.89 68.53 265.02 72.8 
M 265.74 74.22 267.16 77.07 
M 270.01 82.76 270.72 84.19 
M 263.86 63.31 265.28 66.16 
M 266.71 69 267.42 70.43 
M 271.69 78.97 275.25 86.09 
M 275.96 87.51 277.25 90.09 
M 272.8 74.03 280.8 90.03 
M 278.58 78.43 283.56 88.39 
M 280.66 75.42 284.93 83.96 
M 284.88 76.71 287.73 82.4 
M 284.2 61.01 284.91 62.44 
M 288.51 62.47 288.86 63.18 
M 213.68 291.39 211.79 297.7 
M 211.79 297.7 215.39 297.7 
M 218.15 293.5 217.25 296.5 217.28 297.39 217.79 297.7 218.69 297.7 219.38 297.39 220.55 296.5 
M 221.45 293.5 220.19 297.7 
M 223.85 293.5 221.96 299.8 
M 223.58 294.39 224.36 293.8 225.05 293.5 225.95 293.5 226.46 293.8 226.88 294.39 226.91 295.3 226.73 295.89 226.16 296.8 225.38 297.39 224.69 297.7 223.79 297.7 223.28 297.39 222.86 296.8 
M 232.85 293.5 231.59 297.7 
M 232.58 294.39 232.16 293.8 231.65 293.5 230.75 293.5 230.06 293.8 229.28 294.39 228.71 295.3 228.53 295.89 228.56 296.8 228.98 297.39 229.49 297.7 230.39 297.7 231.08 297.39 231.86 296.8 
M 238.28 294.39 237.86 293.8 237.35 293.5 236.45 293.5 235.76 293.8 234.98 294.39 234.41 295.3 234.23 295.89 234.26 296.8 234.68 297.39 235.19 297.7 236.09 297.7 236.78 297.39 237.56 296.8 
M 241.85 293.5 241.16 293.8 240.38 294.39 239.81 295.3 239.63 295.89 239.66 296.8 240.08 297.39 240.59 297.7 241.49 297.7 242.18 297.39 242.96 296.8 243.53 295.89 243.71 295.3 243.68 294.39 243.26 293.8 242.75 293.5 241.85 293.5 
M 249.38 294.39 248.96 293.8 248.45 293.5 247.55 293.5 246.86 293.8 246.08 294.39 245.51 295.3 245.33 295.89 245.36 296.8 245.78 297.39 246.29 297.7 247.19 297.7 247.88 297.39 248.66 296.8 
M 252.08 291.39 252.29 291.7 252.68 291.39 252.47 291.1 252.08 291.39 
M 251.75 293.5 250.49 297.7 
M 255.35 293.5 254.66 293.8 253.88 294.39 253.31 295.3 253.13 295.89 253.16 296.8 253.58 297.39 254.09 297.7 254.99 297.7 255.68 297.39 256.46 296.8 257.02 295.89 257.21 295.3 257.18 294.39 256.76 293.8 256.25 293.5 255.35 293.5 
M 259.85 293.5 258.59 297.7 
M 259.49 294.7 260.65 293.8 261.35 293.5 262.25 293.5 262.76 293.8 262.78 294.7 261.89 297.7 
M 269.18 291.39 267.29 297.7 
M 268.19 294.7 269.36 293.8 270.05 293.5 270.95 293.5 271.45 293.8 271.49 294.7 270.58 297.7 
M 273.4 295.3 277.01 295.3 277.19 294.7 277.07 294.1 276.35 293.5 275.45 293.5 274.76 293.8 273.98 294.39 273.4 295.3 273.23 295.89 273.26 296.8 273.68 297.39 274.19 297.7 275.08 297.7 275.77 297.39 276.56 296.8 
M 280.58 291.39 279.05 296.5 279.08 297.39 279.58 297.7 280.19 297.7 
M 279.05 293.5 281.14 293.5 
M 284.45 293.5 283.76 293.8 282.98 294.39 282.4 295.3 282.23 295.89 282.26 296.8 282.68 297.39 283.19 297.7 284.08 297.7 284.77 297.39 285.56 296.8 286.13 295.89 286.31 295.3 286.27 294.39 285.86 293.8 285.35 293.5 284.45 293.5 
M 289.88 291.39 288.35 296.5 288.38 297.39 288.89 297.7 289.49 297.7 
M 288.35 293.5 290.45 293.5 
M 292.55 293.5 291.64 296.5 291.68 297.39 292.19 297.7 293.08 297.7 293.77 297.39 294.95 296.5 
M 295.85 293.5 294.58 297.7 
M 298.25 293.5 296.99 297.7 
M 297.89 294.7 299.06 293.8 299.75 293.5 300.64 293.5 301.15 293.8 301.19 294.7 300.29 297.7 
M 301.19 294.7 302.36 293.8 303.05 293.5 303.95 293.5 304.45 293.8 304.49 294.7 303.58 297.7 
M 306.47 297.1 306.08 297.39 306.29 297.7 306.68 297.39 306.47 297.1 
"/></svg>
