<svg xmlns="http://www.w3.org/2000/svg" width="520" height="320"><rect x="0" y="0" width="520" height="320" fill="floralwhite"/><rect x="10" y="10" width="500" height="300" stroke="black" stroke-width="1" fill="none"/><path stroke="black" stroke-width="1" fill="none" stroke-linecap="round" stroke-linejoin="round" d="
M 125.33 122.41 131.24 119.3 140.75 114.64 150.42 110.31 160.3 106.48 180.5 100.04 190.73 97.28 201.13 95.27 211.65 93.98 222.24 94.2 232.83 94.76 253.96 93.18 264.55 93.65 274.95 95.69 284.99 99.08 294.93 102.74 304.96 106.18 314.85 109.97 334.07 118.91 353.5 127.36 392.35 146.79 
M 392.35 171.75 373.01 180.02 353.94 189.27 344.27 193.61 314.76 205.44 305.03 209.62 295.17 213.5 284.89 216.11 274.46 217.97 243.51 225.24 232.98 226.42 222.4 225.84 211.87 224.62 201.38 223.17 191.02 220.94 180.94 217.67 171.15 213.6 161.49 209.26 151.72 205.14 135.61 199.18 
M 164.45 146.86 169.66 146.5 171.6 146.58 
M 180.54 148.05 185.25 148.97 
M 201.02 149.4 205 149.51 
M 208.9 149.53 212.75 149.49 
M 220.4 149.59 224.33 149.72 
M 228.43 149.96 232.67 150.29 
M 240.94 150.05 242.89 149.72 248.41 148.27 
M 256.07 146.23 258.04 145.77 266.26 144.59 270.55 144.28 272.72 144.3 
M 277.03 144.32 286.96 144.36 290.33 144.06 291.79 143.69 
M 294.62 142.89 298.93 141.86 302.23 141.38 305.83 141.26 309.65 141.46 313.72 142.08 317.9 142.94 331.79 146.6 
M 335.17 147.21 339.85 147.85 344.33 148.25 
M 347.07 148.3 351.32 148.56 361.58 150.84 370.25 151.27 373.42 151.56 386.19 154.06 
M 141.73 119.53 139.04 122.09 
M 139.04 194.86 142.68 201.71 
M 152.85 117.28 150.74 120.28 
M 145.61 125.49 141.35 129.09 138.8 131.83 136.77 135.15 135.06 138.87 
M 144.19 188.61 146.13 193.4 148.71 198.73 
M 150.95 203.18 151.99 205.25 
M 159.64 121.28 158.69 122.86 157.53 124.24 
M 147.64 134.99 146.45 136.41 144.28 139.52 143.35 141.26 
M 141.65 144.89 140.37 148.44 
M 147.8 175.6 150.61 182.82 
M 156.16 196.79 158.16 200.83 
M 160.01 204.7 161.37 207.86 
M 166.25 125.38 165.1 126.74 159.79 131.55 158.65 132.96 
M 156.54 135.97 154.63 139.23 
M 157.31 176.97 159.79 184.08 
M 162.42 191.27 166.03 199.37 
M 167.72 203.29 169.08 206.88 
M 170.19 210.29 170.69 212 
M 179.45 111.14 178.14 114.78 
M 175.41 121.95 174.65 123.68 172.88 126.87 171.85 128.33 
M 169.66 131.13 166.14 135.12 165.11 136.6 
M 163.18 139.73 161.43 143.06 
M 167.22 177.22 169.16 183.23 
M 170.47 186.95 171.9 190.78 
M 173.36 194.63 174.79 198.46 
M 176.18 202.23 177.43 205.88 
M 178.52 209.34 179.63 213.08 
M 188.41 107.82 186.95 111.27 
M 185.73 114.97 185.21 116.92 184.88 119.06 
M 182.87 126.88 181.25 130.17 
M 170.46 144.68 169.21 146.52 
M 184.21 198.03 187.13 205.95 
M 188.15 209.44 188.96 212.67 
M 189.74 215.92 190.15 217.59 
M 196.54 113.86 195.06 117.32 
M 193.94 121.12 192.81 127.34 192.25 129.22 
M 190.86 132.71 189.08 135.8 
M 187.28 138.87 184.84 143.74 182.84 146.62 181.22 148.22 
M 189.94 180.88 190.73 184.16 
M 191.27 187.2 192.38 192.07 193.05 194 
M 194.53 198.03 196.81 204.14 197.8 207.7 198.03 209.2 
M 199.46 217.51 199.66 218.5 
M 208.95 109.77 207.65 113.41 
M 204.5 120.18 203.69 121.84 202.34 125.41 200.61 131 
M 198.61 176.92 200.22 184.14 201.96 189.69 
M 203.4 193.69 205.27 199.44 206.61 204.72 
M 207.53 208.24 209.05 214.78 
M 220.7 101.03 219.67 104.96 
M 217.61 112.93 216.43 116.79 
M 213.56 123.94 212.78 125.64 211.56 129.37 210.61 133.33 209.46 137.06 208.66 138.69 
M 205.56 145.29 203.69 149.5 
M 208.23 177.73 208.58 179.33 210.69 185.26 
M 212.28 189.42 213.7 193.42 
M 214.86 197.19 216.94 204.55 
M 219.19 211.97 222.15 222.22 
M 232.82 102.15 232.01 103.86 231 105.39 
M 226.3 116.07 225.91 118.25 225.53 122.98 224.83 127.35 223.56 131.12 220.53 138.07 216.14 145.98 
M 214.84 148.5 214.39 149.44 
M 219.11 175.23 221.27 183.69 225.33 196.79 
M 227.66 204.38 229.38 211.3 
M 242.65 104.28 240.67 107.42 
M 238.65 110.57 237.69 112.21 237.12 114.24 
M 236.35 118.65 235.69 125.73 235.21 127.81 
M 234.06 131.76 232.68 135.45 
M 231.27 139.09 230.58 140.91 228.89 144.21 225.08 149.73 
M 229.91 172.86 232.67 183.09 
M 233.64 186.59 235.69 193.76 
M 236.78 197.43 238.89 204.74 
M 239.86 208.29 242.54 217.27 244.07 221.84 
M 251.47 110.19 249.73 113.66 
M 247.92 117.07 246.99 118.75 245.56 122.5 245.13 124.67 
M 244.33 129.03 243.95 131.23 242.86 135.27 238.86 146.48 236.72 150.56 
M 240.22 164.89 240.71 167.8 
M 242.15 176.62 242.87 181.07 243.82 184.54 250.95 205.68 
M 252.19 209.47 253.28 213.09 
M 254.42 217.32 255.06 219.8 
M 264.51 106.1 263.26 110.06 
M 257.39 119.97 256.3 121.51 255.43 123.27 
M 253.89 126.98 253.22 128.93 251.59 135.13 
M 250.47 139.19 248 146.86 
M 252.51 164.69 253.44 170.55 
M 253.89 176 254.04 177.41 254.73 180.63 255.72 184.15 258.98 193.79 
M 260.57 197.94 262.19 202.12 
M 263.54 206.02 265.48 213.05 
M 266.28 216.4 266.66 218.08 
M 274.03 110.87 273.19 112.67 272.13 114.28 
M 269.94 117.42 266.7 122.19 264.07 127.57 
M 261.05 135.21 260.34 137.16 257.97 145.78 
M 264.81 168.85 265.28 171.87 
M 266.72 178.46 268.55 185.45 
M 269.42 188.91 270.45 192.52 
M 273.14 200.37 274.46 204.26 
M 275.63 207.98 278.15 216.37 
M 289.67 100.8 289.05 102.13 
M 287.34 105.6 284.81 111.01 284.12 112.99 
M 278.79 123.78 277.8 125.49 274.47 132.99 270.96 140.3 269.43 144.27 
M 274.95 161.25 275.65 164.55 
M 276.22 167.73 276.85 170.98 
M 277.58 174.33 278.92 180.94 
M 279.64 184.3 280.52 187.81 
M 281.53 191.44 285.38 203.08 
M 287.6 210.44 288.69 214.17 
M 296.05 112.31 295.19 114.1 292.37 121.99 290.61 125.63 287.34 130.5 
M 282.16 142.05 281.25 144.23 
M 285.85 160.56 286.74 164.1 
M 288.41 173.77 288.88 178.24 289.79 181.82 293.06 193.01 295.81 203.51 297.79 210.08 
M 301.11 120.85 298.01 125.79 296.1 129.28 294.54 133.15 291.15 143.9 
M 297.16 167.07 298.91 174.16 
M 299.63 177.55 300.43 181 
M 301.35 184.55 303.21 191.64 
M 303.89 194.89 304.77 199.59 306.4 204.81 
M 313.81 116.95 310.42 121.4 307.16 126.09 
M 305.06 129.35 303.11 132.78 
M 301.36 136.43 299.79 140.08 
M 302.47 154.48 303.65 158.32 
M 305.07 162.4 307.28 168.6 309.69 177.61 
M 310.77 181.31 313.35 189.07 
M 314.46 192.73 317.29 201.91 
M 323.2 122.08 315.08 132.1 308.86 141.38 
M 315.53 162.61 316.63 166.35 
M 317.8 170.16 320.52 179.41 324.98 192.78 
M 326.23 196.35 326.84 198.05 
M 336.56 122.17 331.7 129.64 324.97 138.18 320.25 143.45 
M 325.43 160.41 326.38 163.96 
M 327.42 167.57 329.62 174.88 
M 330.8 178.58 334.32 189.53 
M 335.49 192.73 336 194.05 
M 347.93 125.56 347.14 127.13 345.24 130.01 344.14 131.31 
M 339.46 136.34 338.29 137.62 334.16 143.47 331.22 146.52 
M 333.05 154.63 335.64 162.17 
M 337.01 166 338.73 171.35 340.44 177.81 345.32 190.37 
M 353.62 133.16 352.72 134.61 350.59 137.2 343.58 144.6 340.12 147.88 
M 345.45 163.61 348.18 169.69 350.75 176.63 355.22 187.26 
M 359.69 136.85 358.88 138.36 356.62 140.77 353.81 142.66 351.18 144.75 348 148.27 
M 350.87 156.39 356.47 167.01 364.19 183.21 
M 365.6 139.99 362.65 144.02 360.45 146.5 356.88 149.83 
M 359.49 155.09 364.17 163.99 372.06 178.23 
M 272.82 213.29 272.46 211.4 272.07 210.89 271.14 210.5 269.28 210.44 
M 330.96 132.04 331.81 132.75 336.5 138.45 337.3 141.77 
M 375.59 140.38 375.25 142.6 374.84 143.97 374.46 144.53 373.64 145.01 
M 210.49 122.94 209.92 124.49 209.31 125.35 208.69 125.66 
M 320.11 171.13 317.55 172.99 316.38 173.38 315.85 173.04 314.69 171.59 
M 271.76 176.53 270.88 177.68 270.43 178.7 269.54 181.95 267.77 184.52 266.97 185.14 
M 149.82 122.96 148.11 122.27 146.21 122.66 145.61 123.01 
M 263.79 180.46 263.27 181.32 262.8 181.7 262.2 181.85 261.61 181.7 
M 351.9 148.12 350.73 150.47 349.94 151.2 349.09 151.5 348.62 151.5 347.49 151.08 
M 140.08 186.16 140.66 185.4 140.58 184.6 140.23 183.77 
M 244.42 101.72 243.63 102.02 242.95 102.61 241.46 104.28 241.18 105.02 241.31 105.44 241.49 105.55 241.63 105.43 
M 247.12 211.11 248.98 210.72 249.38 210.41 249.63 209.85 
M 272.97 193.41 270.15 192.95 269.09 193.09 268.2 193.53 267.66 194.16 267.34 194.84 267.32 195.59 267.56 197.29 268.15 198.67 
M 273.21 172.82 273.67 172.31 274.15 172.19 275.6 173.2 
M 204.5 181.16 203.39 179.23 
M 156.43 126.04 155.7 126.37 155.29 126.34 152.45 125.03 150.04 124.52 147.63 123.15 
M 220.13 200.45 220.21 199.65 221.42 195.35 221.49 193.88 221.96 191.31 222.24 190.4 222.68 189.65 
M 149.81 120.83 148.88 120.28 147.65 120.03 146.8 120.09 146.36 120.54 
M 235.95 192.76 235.87 193.28 235.58 193.55 232.3 193.99 230.99 193.8 
M 261.11 104.76 258.05 106.53 255.4 107.16 252.75 106.76 249.32 105.69 
M 355.73 142.07 356.18 147.08 355.71 149.58 
M 300.55 191.45 300.3 192.29 299.55 193.66 299.18 194.99 298.71 199.05 298.71 199.6 298.97 200.47 
M 269.85 206.86 269.5 207.3 268.79 208.91 267.23 210.02 
M 365.43 160.29 365.48 157.29 365.28 156.63 363.58 153.53 361.78 151.55 360.89 150.9 359.5 150.41 358.44 150.52 
M 325.88 173.9 323.86 173.43 322.93 173.38 319.81 173.53 317.25 174.26 316.66 174.19 316.19 173.89 
M 196.07 127.64 193.49 125.08 192.81 124.18 192.57 123.14 192.69 121.96 
M 386.38 166.57 384.85 167.41 382.21 168.38 378.44 168.93 375.18 169.16 373.23 169.07 
M 156.1 107.86 156.1 107.86 
M 162.84 105.64 164.06 98.36 165.51 96.21 166.36 93.45 167.85 91.06 170.14 89.29 172.6 87.68 174.63 85.65 177 83.97 178.42 81.4 180.46 79.43 181.31 76.23 183.4 74.31 186.3 73.52 192.29 73.14 194.61 71.79 197.54 71.12 200.97 71.45 204.07 71.45 206.66 70.05 216.74 65.25 222.85 65.14 225.6 64.14 228.35 62.87 232.74 60.03 235.01 58.95 237.65 59.17 240.2 60.61 242.51 62.3 245.88 61.73 248.64 60.51 250.84 58.69 253.36 57.62 256.43 57.33 259.18 57.82 261.66 58.04 265.02 58.84 270.47 59.5 272.68 60.18 275.36 61.34 278.8 63.1 281.44 63.99 284.91 65.45 287.59 64.46 289.73 63.14 293.02 65.67 295.74 67.45 304.15 71.34 306.94 72.4 312.38 75.13 313.62 77.32 313.01 79.64 313.12 81.91 315.87 87.43 316.3 89.99 319.99 99.24 316.93 110.87 
M 310.18 107.96 310.18 107.96 
M 160.65 106.36 162.99 104.92 163.86 101.01 164.36 100.04 
M 165.2 104.87 167.15 103.5 167.2 101.16 167.74 99.77 168.6 98.44 168.66 96.4 
M 169.77 103.41 170.22 101.74 170.39 99.04 170.92 97.4 170.89 95.14 171.44 93.11 
M 174.34 101.96 175.19 100.49 175 98.52 175.49 93.54 175.67 89.04 
M 178.91 100.53 179.85 99.13 180.07 94.03 179.83 91.72 180.09 89.72 179.31 87.31 179.25 85.14 180.69 82.24 
M 183.49 99.11 184.57 97.54 185.07 92.65 184.76 90.61 
M 188.1 97.81 189.64 96.32 190.09 93.86 190.12 88.26 190.43 84.99 
M 192.8 96.86 194.3 95.42 194.85 92.86 194.88 90.28 195.54 87.24 195.65 84.22 197.27 79.67 196.99 77.16 197.34 74.8 
M 197.5 95.92 198.27 94.19 198.78 91.8 199.48 89.88 200.57 84.88 201.55 81.66 200.72 78.84 199.68 76.55 199.93 74.25 202.23 72.92 
M 202.22 95.08 203.25 93.32 203.8 91.06 204.62 89.15 204.65 87.08 205.11 84.25 204.88 81.63 204.88 78.65 205.67 76.09 208.58 71.46 
M 206.94 94.24 207.95 92.4 208.88 89.69 210.36 86.23 210.75 82.98 
M 211.72 93.98 212.9 91.95 215.73 88.41 217.12 86.05 217.65 83.61 217.45 79.95 218.77 76.53 219.24 74.03 
M 216.51 93.79 218.59 92.31 219.48 90.82 221.16 88.59 223.69 86.23 222.99 83.32 222.99 80.28 
M 221.29 94.1 223.71 92.75 225.01 90.67 225.91 88.69 226.46 86.35 227.62 84.05 228.56 80.22 230.77 77.59 232.9 70.98 234.06 69.21 234.5 66.56 
M 226.06 94.59 228.39 92.53 229.51 90.56 230.13 88.61 230.38 87.17 231.35 84.94 233.44 81.24 236.9 75.73 237.41 73.28 238.09 70.95 
M 230.85 94.77 232.96 92.87 234.31 88.97 234.38 87.38 235.53 84.52 237.15 81.71 238.24 78.7 239.06 76.91 
M 235.64 94.74 237.62 93.33 238.73 91.27 238.77 89.11 238.45 86.83 239.43 84.39 240.32 80.94 241.47 79.12 242.34 76.36 244.01 73.3 244.85 71.1 246.38 68.39 
M 240.43 94.43 242.05 92.81 242.78 90.41 243.17 88.17 243.32 85.85 244.37 83.38 245.18 79.71 245.17 77.37 245.69 74.41 246.49 72.36 249.28 68.66 
M 245.17 93.77 246.38 91.59 248.46 87.07 249.1 84.64 249.08 82.29 248.43 78.63 248.84 74.98 250.16 72.49 
M 249.94 93.27 252.71 89.29 253.85 87.17 255.12 84.16 255.86 78.35 257.5 75.99 258.07 73.48 257.79 70.64 257.05 68.79 
M 254.73 93.17 256.69 91.4 258.32 89.16 260.54 84.53 262.08 78.76 263.97 75.42 265.04 71.2 264.75 69.59 266.09 67.3 
M 259.52 93.15 261.88 91.6 263.32 89.17 264.52 86.66 266.04 84.64 267.51 81.6 268.64 78.49 270.42 75.2 271.92 70.46 
M 264.29 93.63 266.98 91.89 268.23 89.84 270.37 85.71 272.44 82.83 273.48 79.46 276.59 74.71 
M 269.06 94.1 271.55 92.22 273.17 90.5 275.29 86.46 276.29 83.98 279.57 78.62 
M 273.69 95.35 275.92 93.8 277.51 91.97 279.75 90.5 288.17 79.05 289.16 76.04 291.4 74.5 292.73 70.82 
M 278.32 96.6 281.13 95.44 283.56 94.05 285.91 91.86 289.5 86.64 291.35 84.76 294.42 80.59 294.58 77.49 295.05 75.01 296.69 73.21 298.67 71.5 
M 282.82 98.23 285.74 97.35 288.67 95.66 290.98 93.79 294.26 89.38 295.42 87.11 299.64 82.24 300.93 79.77 
M 287.29 99.98 290.23 99.12 295.56 96.04 297.26 94.79 300.89 89 302.72 86.8 304.57 83.98 
M 291.78 101.64 295.23 101.04 297.73 100.03 299.89 98.38 305.26 90.29 308.01 87.38 310.07 84.57 311.26 83.33 
M 296.31 103.21 299.88 102.69 302.08 100.84 303.84 98.3 306.51 93.27 308.82 91.19 311.91 89.56 313.79 88.36 
M 300.84 104.78 304.82 104.14 307.16 102.31 308.59 99.22 
M 305.37 106.32 309.53 105.85 312.27 104.72 314.64 102.72 
M 138.84 153.8 143.28 153.33 146.45 153.22 149.46 152.73 158.15 151.98 161.04 152.34 169.46 151.53 172.09 151.66 175.37 151.38 181.69 151.4 184.59 151.8 189.86 151.69 192.73 151.9 195.7 151.76 198.3 152.26 203.87 152.65 211.01 152.42 213.74 152.56 216.32 152.04 221.38 152.69 224.99 152.86 230.56 154.19 234.2 154.09 237.61 154.29 239.92 154.98 245.58 155.59 248.63 156.63 251.53 157.09 254.71 157.46 257.04 157.36 243.79 163.97 241.02 164.8 237.76 165.14 235.32 166.29 229.3 167.48 226.43 168.3 223.84 169.45 221.43 170.78 218.56 171.65 216.18 173.02 213.39 173.79 210.4 174.16 205.18 175.64 199.73 176.8 196.92 177.09 190.78 177.17 185.08 177.54 182.6 177.9 179.76 177.9 176.12 177.1 173.02 176.83 170.09 176.78 165.07 177.6 159.4 177.62 156.1 176.59 147.28 174.61 140.31 173.71 
M 139.03 155.95 140.5 156.02 146.6 155.65 149.43 155.22 152.14 155.33 158.49 155.13 161.22 155.54 166.94 155.47 172.61 155.9 178.35 156.08 180.41 156.45 183.83 156.19 187.15 156.33 
M 139.21 157.95 143.57 158.13 146.7 158.09 149.59 157.85 158.66 158.24 164.25 159.05 167.05 159.15 172.9 159.76 178.31 160.74 181.15 160.62 187.33 161.18 190.58 161.71 193.78 162.46 196.06 163.23 201.23 164.55 210.83 165.46 213.52 166.18 218.96 167.01 
M 139.46 160.06 143.4 160.78 149.66 160.58 155.24 161.11 158.48 161.76 164.39 162.51 166.82 162.62 170.1 163.41 
M 139.69 162.3 143.77 163.17 149.76 163.22 158.37 165.09 164.3 165.64 170.02 167.28 175.34 169.08 181.33 169.71 184.25 170.29 187.2 171.75 190.17 173.47 193.67 174.43 196.43 174.94 
M 139.83 164.55 143.61 165.32 152.48 166.59 155.25 167.25 157.9 168.51 164.08 169.46 
M 139.9 166.9 143.73 167.5 146.78 168.37 149.5 169.41 152.37 169.82 155.2 170.69 157.77 172 
M 139.91 169.55 143.57 170.43 146.85 171.64 151.66 173.76 
M 197.19 222.51 201.34 226.52 204.24 229.66 205.88 233.69 209.11 245.82 206.25 246.55 203.08 246.92 199.24 246.33 196.41 246.75 193.17 251.61 190.93 252.66 184.98 252.15 180.2 248.34 177.68 248.94 175.43 250.23 171.76 247.46 169.62 244.63 168.84 243.16 166.48 239.66 160.76 219.62 159.1 216.75 157.7 213.34 156.1 206.85 
M 192.54 221.33 195.14 225.3 196.86 228.47 199.14 230.83 200.91 234.58 203.72 237.99 
M 187.9 220.14 190.54 224.27 191.81 227.43 193.77 230.65 195.08 234.07 
M 183.37 218.57 186.23 223.24 187.09 226.58 188.74 229.71 189.65 233.1 189.84 235.64 190.7 238 
M 178.88 216.91 181.48 221.37 182.29 225.17 182.7 228.9 184.85 235.04 186.42 237.55 187.18 240.79 188.14 243.08 
M 174.44 215.09 175.95 219.08 178.78 229.99 182.81 239.11 183.67 241.78 184.36 244.94 
M 170.07 213.12 171.31 217.58 172.14 221.3 173.71 224.79 175.22 231.91 176.39 234.8 
M 165.7 211.15 167.62 218.44 168.65 221.79 169.65 225.92 170.94 233.27 
M 161.33 209.19 162.16 213.68 163.61 216.15 164.9 219.36 165.52 223.76 
M 320.45 203.13 323.97 208.82 326.16 211.66 321.65 210.88 319.79 213.09 316.99 214.32 314.61 215.94 312.04 217.15 309.18 217.86 307.34 219.9 302.68 223.16 300.83 225.38 295.65 228.22 293.59 230.14 289.44 233.42 287.49 235.49 284.89 236.68 282.68 239.3 276.16 244.39 270.42 237.73 268.19 234.87 265.04 232.1 262.95 228.95 261.68 225.55 258.82 221.72 
M 316.01 204.93 320.39 209.27 
M 311.57 206.74 317.09 210.93 
M 307.18 208.65 312.23 214.06 
M 302.81 210.63 307.06 215.59 
M 298.37 212.44 303.29 217.7 
M 293.82 213.95 298.29 218.48 300.58 221.89 
M 289.25 215.4 293.54 219.44 295.48 223.48 
M 284.52 216.17 290.21 223.02 
M 279.79 216.94 286.24 224.11 288.68 227.98 
M 275.09 217.85 279.43 222.4 281.44 225.11 
M 270.38 218.77 273.4 223.23 275.79 225.67 277.4 228.58 279.73 231.52 
M 265.73 219.9 268.43 223.61 270.74 227.52 272.94 230.44 276.9 234.68 
M 392.35 146.79 395.7 145.83 400.32 143.67 402.59 142.46 408.91 138.59 412.31 136.19 414.91 134.63 417.19 133.83 419.75 132.41 423.99 128.93 432.23 124.13 435.09 121.86 436.95 121.51 439.06 120.13 439.83 118.75 442 116.84 445.65 115.51 448.08 114.12 451.09 113.94 455.02 111.66 455.91 109.15 459.27 106.03 462.15 103.6 466.1 103.42 467.98 104 481.1 109.36 486.4 113.89 487.13 117.02 487.3 122.46 486.64 124.91 485.41 127.23 484.4 129.78 484.02 132.97 483 135.89 481.71 138.54 480.12 140.89 478.35 146.99 476.35 149.02 473.84 150.54 471.89 152.62 470.74 155.4 469.61 161.14 468.66 163.64 470.33 169.93 470.81 172.53 471.7 174.16 478.11 182.03 480.49 186.13 483.07 189.29 487.41 197.52 490 202.88 488.86 208.79 487.79 211.24 487.48 214.44 486.17 217.21 483.31 218.37 480.94 220.02 479.81 221.79 466.57 224.66 465.35 223.72 461.96 223.63 459.56 221.23 453.03 215.38 450.26 212.54 448.88 209.85 445.58 207.39 442.51 205.81 440.06 205.78 437.71 205.01 436.02 203.45 434.22 201.1 425.63 196.15 421.54 193.02 415.65 188.12 413.03 186.49 407.42 184.25 405.27 182.67 402.54 180.53 400.4 178.47 392.35 171.75 
M 395.84 147.63 398.66 146.61 401.22 145.92 403.54 144.97 406.28 143 412.39 139.41 414.87 138.45 416.61 137 419.58 135.96 422.67 134.06 425.4 133.18 430.8 130.11 434.07 129.36 435.92 127.92 443.02 125.82 444.24 124.32 446.66 123.33 449.46 121.93 452.26 121.28 456.22 119.05 458.68 116.84 461.15 114.18 464.01 113.38 
M 398.89 148.61 401.8 147.93 407.49 145.85 410.04 144.22 413.02 142.66 415.68 142.16 419.76 139.56 422.42 138.41 429.03 136.87 432.63 135.58 435.34 134.03 438.2 133.87 440.89 132.26 443.34 130.13 445.76 129.85 449.96 127.94 452.29 127.4 
M 395.92 151.46 399.14 150.81 402.32 149.72 408.06 148.85 410.57 147.54 416.25 145.45 418.7 144.79 420.55 143.62 423.16 143.02 426.64 141.78 429.65 141.25 435.79 139.69 438.55 138.82 442.16 138.21 447.27 136.09 451.59 133.33 455.86 132.13 459.46 131.3 
M 396.07 153.59 405.53 151.93 408.12 151.91 411.23 150.82 414.38 150.33 417.43 149.24 422.55 148.51 430.53 145.81 433.49 145.52 436.08 145.65 440.18 145.2 449.21 142.78 451.61 142.83 454.82 142.34 459.99 139.26 462.24 139.16 466.22 137.6 468.62 137.79 472.07 137.77 473.96 136.95 476.29 135.03 
M 399.41 155.44 408.27 154.77 417.96 153.22 421.16 152.38 424.68 152.22 431.46 153.43 434.17 152.66 436.9 152.17 440.9 151.96 443.74 150.69 449.05 149.62 453.03 150.34 456.44 148.87 459.23 147.36 460.27 147.32 
M 399.51 158.02 405.57 158.1 408.4 157.76 421.66 156.84 424.69 156.95 427.05 157.57 429.28 157.49 431.8 156.45 434.81 157.18 437.7 156.88 441.45 156.74 444.27 156.88 447.58 156.69 450.78 156.17 
M 396.17 160.4 399.77 160.55 402.89 160.44 405.87 161.1 408.51 161.09 411.53 160.18 414.59 160.9 421.87 161.99 425.69 162 430.49 161.42 433.01 160.78 436.39 161.42 440.34 162.49 443.55 164.48 446.08 164.22 448.63 163.25 450.02 161.08 452.32 160.11 454.7 161.76 
M 399.65 162.67 405.59 163.48 412.01 163.91 418.25 164.84 421.96 165.63 427.94 166.35 430.16 166.24 433.14 165.28 435.49 166.61 438.91 168.18 
M 399.68 164.84 402.89 165.55 405.54 166.41 412.38 167.61 415.2 168.39 418.21 168.19 421.49 169.31 427.09 170.16 429.8 171.01 433.18 171.83 435.77 172.14 437.7 172.55 441.08 174.36 446.24 175.97 448.34 175.89 451.38 177.11 
M 402.36 167.97 408.71 169.79 411.48 170.88 414.45 171.74 417.5 172.03 426.5 174.6 434.37 177.57 436.46 177.38 438.92 178.06 444.4 178.99 452.68 181.05 456.07 181.59 457.75 182.23 
M 395.92 167.72 399.04 169.26 402.01 170.47 410.72 173.64 416.41 176.56 419.57 177.06 425.52 179.33 427.61 179.65 429.83 181.41 432.37 182.96 434.9 183.24 437.27 183.22 439.96 184.72 446.64 187.4 453.7 189.14 456.45 190.79 459.03 192.09 461.4 193.15 463.63 193.9 465.09 196.27 468.07 197.15 473 197.63 475.44 198.46 478.66 200.9 481.5 201.58 
M 398.87 171.34 406.87 175.83 409.31 176.89 414.7 180.29 418.46 180.72 426.31 184.31 429.43 186.26 432.52 187.6 434.74 188.19 437.42 190.52 440.05 191.81 441.53 192.78 447.62 194.23 450.91 195.89 453.72 196.88 460.86 198.89 464.04 200.71 465.5 202.04 
M 401.11 175.41 406.09 178.74 408.76 180.94 411.41 182.58 414.21 183.67 417.23 184.17 420.28 185.73 423.15 188.17 426.07 189.31 431.2 191.86 434.48 193.08 438.33 196.39 439.59 198.29 441.65 200.38 448.33 201.8 452.86 204.03 455.63 205.69 457.14 207.11 458.73 208.04 459.58 208.93 
M 351.26 126.25 353.14 124.9 355.36 123.9 358.04 123.35 361.17 123.26 368.11 123.76 374.72 123.92 378.51 124.49 382.94 125.69 387.77 127.31 392.42 129.51 395.39 131.91 395.76 133.72 393.91 134.98 390.8 135.86 387.28 136.21 376.76 136.08 371.81 136.51 
M 359.6 127.14 361.17 127.1 366.39 127.48 
M 369.75 127.61 374.72 127.75 378.51 128.32 380.73 128.92 
M 385.36 130.33 387.77 131.14 392.42 133.34 393.31 134.06 
M 37.54 166.95 41.39 165.14 45.13 162.63 53.72 155.17 58.93 151.71 64.42 148.48 70.09 144.21 75.69 139.48 81.87 135.49 88.81 131.92 95.38 128.71 102.06 126.11 108.22 124.24 113.92 123 118.99 122.23 122.98 122.01 125.25 122.3 127.99 126.15 131.96 133.84 136.63 141.44 137.28 145.46 138.45 149.41 139.64 161.58 139.9 165.66 139.91 169.77 140.61 177.89 140.48 182.02 139.15 190.42 138.66 194.59 135.61 198.96 122.83 198.09 113.46 197.05 105.24 195.72 97.24 194.11 82.04 190.65 75.03 188.73 62.28 184.03 
M 58.66 182.79 53.08 180.56 48.83 178.54 45.71 176.7 
M 113.28 150.28 113.46 153.86 113.27 157.45 
M 112.8 178.49 113.8 180.6 113.36 183.94 108.72 183.73 
M 75.92 181.1 74.36 180.88 68.34 179.41 
M 60.8 183.72 47.12 177.29 40.75 174.6 34.28 171.47 32.54 169.84 32.71 167.49 34.48 166.01 36.79 166.44 46.37 173.15 54.3 177.98 58.33 180.8 62.6 183.46 
M 62.48 184.33 51.25 188.36 44.58 191.04 40.08 192.57 35.64 194.31 33.42 194.97 31.16 194.35 30 192.21 30.81 190.02 32.91 189.14 42.29 187.46 51.72 185.4 62.25 183.43 
M 77.59 183.44 73.29 177.42 71.18 170.32 71.48 162.92 74.18 156.02 78.96 150.37 85.32 146.58 92.57 145.06 99.92 145.98 106.57 149.23 111.81 154.47 115.06 161.12 115.98 168.47 114.46 175.72 110.67 182.08 105.02 186.86 98.12 189.55 90.72 189.86 83.62 187.75 77.59 183.44 
M 108.15 157.08 110.75 162.4 111.48 168.28 110.27 174.08 107.23 179.17 102.71 183 97.19 185.15 91.28 185.4 85.6 183.71 80.78 180.26 
M 86.42 173.18 84.7 170.77 83.85 167.93 83.98 164.97 85.05 162.21 86.97 159.95 89.51 158.44 92.41 157.83 95.35 158.19 98.01 159.5 100.11 161.59 101.41 164.25 101.77 167.19 101.17 170.09 99.65 172.63 97.39 174.55 94.63 175.63 91.67 175.75 88.83 174.9 86.42 173.18 
M 86.4 173.12 86.57 173.29 
M 87.09 171.23 91.6 175.73 
M 86.82 168.36 94.1 175.65 
M 89.19 168.15 96.1 175.05 
M 92.76 169.13 97.82 174.18 
M 90.39 164.17 99.22 173 
M 93.61 164.8 100.32 171.51 
M 93.31 161.91 101.22 169.82 
M 95.17 161.18 101.67 167.68 
M 97.33 160.75 101.49 164.92 
M 41.17 165.24 46.9 170.97 
M 44.64 162.96 49.81 168.13 
M 47.75 160.32 52.45 165.02 
M 50.83 157.65 54.31 161.13 
M 53.95 155.02 57.53 158.6 
M 57.41 152.72 62.69 158 
M 60.96 150.52 64.93 154.49 
M 64.56 148.37 70.3 154.11 
M 67.84 145.9 73.05 151.11 
M 71.07 143.38 74.95 147.26 
M 74.19 140.75 79.19 145.75 
M 77.5 138.31 82.11 142.92 
M 81 136.05 85.18 140.24 
M 84.72 134.03 88.83 138.13 
M 88.52 132.07 91.71 135.26 
M 92.38 130.18 98.01 135.81 
M 96.3 128.35 100.61 132.66 
M 100.44 126.74 104.16 130.46 
M 104.75 125.29 108.31 128.86 
M 109.22 124.02 114.16 128.96 
M 113.95 123 117.3 126.34 
M 118.94 122.24 123.8 127.1 
M 124.69 122.23 125.97 123.51 
M 103.29 142.62 104.08 144.93 104.14 148.04 
M 71.64 171.88 71.04 171.61 66.25 170.44 64.47 170.75 
M 131.69 136.04 132.2 136.73 132.85 137.19 134.28 137.77 134.57 138.15 134.9 139.18 
M 133.43 170.15 129.91 166.9 128.66 165.22 128.02 164.71 127.21 164.37 
M 130.22 171.5 129.4 169.93 128.04 168.16 127.17 165.87 127.05 164.86 
M 121.03 176.54 120.43 176.95 
M 136.75 142.19 136.43 142.2 
M 137.64 189.61 139.36 189.19 
M 68.02 150.63 67.21 149.41 66.51 147.64 66.14 147.19 
M 136.75 143.13 136.48 142.36 
M 73.09 176.73 71.79 176.36 69.4 175.36 67.65 174.99 
M 128.48 188.1 128.04 189.49 127.13 190.9 125.66 191.8 123.47 192.26 
M 69.88 145.75 70.48 143.88 
M 78.12 137.91 78.85 137.69 79.43 137.74 
M 113.21 155.9 112.84 154.58 112.72 152.78 111.83 150.27 111.19 149.07 110.49 148.22 109.49 147.57 
M 128.11 126.98 127.28 127.18 126.8 126.81 126.78 126.03 127.21 125.06 
M 81.2 135.92 81.56 138.73 
M 68.39 164.69 65.97 164.94 64.41 165.41 
M 127.63 176.74 128.82 176.98 129.94 177.46 132.16 179.28 134.21 180.1 135.95 181.17 
M 66.82 158.26 66.66 158.84 66.13 159.47 65.65 159.67 64.66 159.76 64.23 160.09 63.63 160.95 
M 71.22 169.37 69.77 169.17 67.32 169.14 66.02 169.43 63.82 170.39 61.72 170.35 
M 71.57 171.65 66.8 170.37 63.19 170.81 
M 48.6 170.57 48.29 171.91 47.78 172.91 47.47 173.17 47.03 173.06 
M 131.63 177.23 135.36 179.13 136.28 179.94 137.1 181.3 
M 106.91 195.12 106.57 195.93 
M 49.81 167.34 48.93 169.65 48.38 171.9 47.82 172.92 
M 50.99 168.41 49.03 171.13 48.52 172.25 47.84 173.18 
M 129.39 128.98 128.89 129.72 128.23 130.03 127.19 129.35 
M 115.54 129.38 115.43 129.83 115.57 130.88 
M 54.16 181.01 54.08 180.63 
M 54.11 177.86 54.03 175.31 53.22 173.58 52.39 172.83 50.75 172.62 
M 69.24 178.94 67.6 178.37 64.06 176.01 61.81 174.29 60.93 174.19 60.17 174.45 
M 108.44 140.01 108.87 139.22 108.76 137.35 108.89 136.23 109.22 135.76 109.98 135.19 110.38 135.06 110.66 135.24 
M 44.66 166.41 44.29 167.49 43.37 168.45 42.79 168.65 41.53 168.45 
M 130.25 176.13 131.62 176.27 134.42 176.14 136.27 176.34 136.82 176.74 137.05 177.39 
M 94.16 137.76 94.05 136.92 93.57 135.52 93.09 135.02 92.2 134.89 91.69 134.99 90.65 135.56 
M 59.55 153.32 58.2 152.2 
M 124.87 185.15 124.72 186.24 124.25 187.04 120.43 190.31 118.93 191.83 
M 114.44 124.59 115.51 125.24 116.34 125.29 117.53 125.06 118.14 124.56 120.07 122.35 
M 128.04 173.32 127.86 171.85 128 169.45 127.77 168.24 
M 132.59 165.72 128.96 163.19 127.98 162.06 127.7 161.45 127.4 160.02 127.6 157.46 127.46 156.9 
M 71.34 166.45 69.44 165.84 66.31 165.84 64.43 166.17 62.07 165.77 
M 107.63 132.89 109.45 132.91 110.64 132.14 111.76 131.97 
M 124.72 143.39 126.64 141.94 130.12 138.26 131.26 138 133.91 138.04 
M 62.3 184 63.33 184.58 
M 54.62 180.89 54.53 181.54 54.75 182.47 55.03 181.83 55.6 181.37 
M 47.38 177.41 46.82 179.12 47.01 180.83 47.32 179.4 48.57 177.95 
M 40.07 174.28 39.1 176.7 39.27 179.19 39.6 176.98 41.23 174.82 
M 33.11 170.38 31.39 174.27 31.52 177.55 31.89 174.56 34.15 171.35 
M 62.43 184.13 63.42 183.85 
M 54.3 184.95 54.77 183.78 54.88 184.47 55.13 184.8 
M 46.55 186.53 46.44 185.07 47.04 183.46 47 184.92 47.69 186.28 
M 38.91 188.05 38.56 185.51 39.31 183.14 39.11 185.36 40.16 187.83 
M 31.34 189.8 30.67 185.95 31.59 182.81 31.22 185.8 32.57 189.28 
M 39.86 192.66 48.54 192.79 59.48 192.45 70.83 191.84 76.5 191.35 82.04 190.65 
M 65.73 192.11 66.63 191.61 66.78 191.18 
M 61.84 192.16 59.56 191.86 
M 129.01 128.2 132.36 131.56 
M 128.96 120.49 138.76 130.29 
M 134 117.86 143.55 127.41 
M 139.18 115.37 147 123.19 
M 144.42 112.95 153.65 122.17 
M 149.75 110.6 157.26 118.12 
M 155.1 108.29 162.02 115.21 
M 160.8 106.32 167.24 112.76 
M 166.57 104.42 177.43 115.28 
M 172.4 102.58 178.95 109.14 
M 178.23 100.74 184.67 107.19 
M 184.08 98.93 192.2 107.04 
M 190.21 97.39 197.36 104.54 
M 196.59 96.1 202.52 102.02 
M 203.09 94.93 213.76 105.6 
M 209.88 94.05 220.16 104.34 
M 217.26 93.76 223.87 100.37 
M 225.72 94.55 237.09 105.93 
M 233.59 94.75 243.55 104.72 
M 240.87 94.37 250.25 103.75 
M 247.6 93.43 257.43 103.26 
M 255 93.16 264.93 103.09 
M 263 93.5 269.7 100.19 
M 272.09 94.92 280.35 103.18 
M 283.24 98.39 291.63 106.79 
M 295.41 102.9 303.93 111.42 
M 307.08 106.9 313.25 113.08 
M 320.08 112.23 331.35 123.5 
M 334.68 119.17 344.31 128.79 
M 348.05 124.87 354.23 131.05 
M 362.9 132.05 371.85 141 
M 378.18 139.66 388.53 150.01 
M 220.73 291.39 218.83 297.7 
M 224.93 291.39 223.04 297.7 
M 219.83 294.39 224.03 294.39 
M 225.86 295.3 229.46 295.3 229.64 294.7 229.52 294.1 228.8 293.5 227.9 293.5 227.21 293.8 226.43 294.39 225.86 295.3 225.68 295.89 225.71 296.8 226.13 297.39 226.64 297.7 227.54 297.7 228.23 297.39 229.01 296.8 
M 233.03 291.39 231.5 296.5 231.53 297.39 232.04 297.7 232.64 297.7 
M 231.5 293.5 233.6 293.5 
M 236.33 291.39 234.44 297.7 
M 235.33 294.7 236.51 293.8 237.2 293.5 238.1 293.5 238.61 293.8 238.64 294.7 237.74 297.7 
M 241.4 293.5 240.5 296.5 240.52 297.39 241.04 297.7 241.94 297.7 242.63 297.39 243.8 296.5 
M 244.7 293.5 243.44 297.7 
M 249.83 294.39 249.71 293.8 248.9 293.5 248 293.5 247.01 293.8 246.52 294.39 246.65 295 247.16 295.3 248.57 295.6 249.08 295.89 249.11 296.8 248.63 297.39 247.64 297.7 246.74 297.7 245.93 297.39 245.81 296.8 
M 254.9 293.5 254.83 297.7 
M 257.3 293.5 254.83 297.7 
M 257.3 293.5 257.24 297.7 
M 259.7 293.5 257.24 297.7 
M 265.1 293.5 263.83 297.7 
M 264.83 294.39 264.4 293.8 263.89 293.5 263 293.5 262.3 293.8 261.52 294.39 260.96 295.3 260.77 295.89 260.8 296.8 261.23 297.39 261.74 297.7 262.64 297.7 263.33 297.39 264.11 296.8 
M 268.13 291.39 266.24 297.7 
M 269.89 293.5 268.64 297.7 
M 269.36 295.3 269.93 294.39 270.7 293.8 271.39 293.5 272.3 293.5 
M 274.13 291.39 274.33 291.7 274.72 291.39 274.52 291.1 274.13 291.39 
M 273.8 293.5 272.53 297.7 
M 279.22 294.39 278.81 293.8 278.29 293.5 277.39 293.5 276.7 293.8 275.93 294.39 275.36 295.3 275.18 295.89 275.2 296.8 275.63 297.39 276.14 297.7 277.03 297.7 277.72 297.39 278.51 296.8 
M 281.59 293.5 280.7 296.5 280.72 297.39 281.24 297.7 282.14 297.7 282.83 297.39 284 296.5 
M 284.89 293.5 283.64 297.7 
M 289.73 291.39 289.13 291.39 288.44 291.7 287.87 292.6 286.33 297.7 
M 286.7 293.5 288.79 293.5 
M 290.06 295.3 293.65 295.3 293.83 294.7 293.71 294.1 293 293.5 292.09 293.5 291.4 293.8 290.63 294.39 290.06 295.3 289.88 295.89 289.9 296.8 290.33 297.39 290.83 297.7 291.74 297.7 292.42 297.39 293.2 296.8 
M 296.29 293.5 295.03 297.7 
M 295.76 295.3 296.33 294.39 297.11 293.8 297.79 293.5 298.7 293.5 
M 299.41 297.1 299.02 297.39 299.24 297.7 299.63 297.39 299.41 297.1 
"/></svg>
