<svg xmlns="http://www.w3.org/2000/svg" width="520" height="320"><rect x="0" y="0" width="520" height="320" fill="floralwhite"/><rect x="10" y="10" width="500" height="300" stroke="black" stroke-width="1" fill="none"/><path stroke="black" stroke-width="1" fill="none" stroke-linecap="round" stroke-linejoin="round" d="
M 171.35 115.76 188.64 106.38 197.3 102.19 205.96 99.03 214.61 96.87 223.27 95.83 240.59 94.49 249.25 94.54 266.56 95.17 275.22 96.37 283.88 96.86 292.54 96.83 301.2 98.04 318.51 102.75 327.17 105.68 335.83 109.16 344.49 112.88 353.15 117.35 370.46 127.01 379.12 132.05 388.58 138.11 
M 388.58 173.54 344.49 195.7 327.17 204.88 318.51 208.64 301.2 216.68 292.54 219.89 283.88 222.27 266.56 225.92 257.91 225.93 249.25 224.18 240.59 222.13 231.93 219.58 223.27 217.77 214.61 216.42 205.96 213.54 197.3 209.81 188.64 205.71 179.99 201.09 
M 178.47 122.72 180.78 120.17 180.78 118.3 178.05 115.28 175.37 113.6 
M 181.27 120.92 183.59 119.83 186.58 117.04 188.5 113.88 188.5 111.92 186.58 108.76 185.73 107.97 
M 183.28 135.23 185.25 133.78 187.83 130.45 187.83 128.38 185.25 125.05 181.24 122.1 178.11 120.95 
M 187.81 111.28 189.55 110.63 192.83 108.19 194.94 105.43 194.94 103.72 194.72 103.43 
M 188.68 106.36 191.45 106.86 
M 187.7 130.56 190.75 129.36 194.65 126.3 197.17 122.84 197.17 120.69 194.65 117.23 190.75 114.17 187.7 112.98 
M 185 120.25 192.93 119.1 
M 185.14 121.41 192.33 121.86 
M 184.92 123.62 192.33 124.66 
M 183.73 144.46 184.31 144.27 189.03 141.16 192.07 137.65 192.07 135.47 189.03 131.96 184.31 128.85 180.62 127.64 
M 196.26 121.28 197.79 120.39 200.57 117.12 202.37 113.43 202.37 111.14 200.57 107.44 197.79 104.18 195.71 102.96 
M 193.38 110.52 199.32 109.68 
M 193.5 112.25 198.77 112.21 
M 193.8 114.25 198.84 115.25 
M 195.8 141.77 198.33 140.5 201.57 137.27 203.66 133.6 203.66 131.34 201.57 127.67 198.33 124.44 196.26 123.41 
M 192.96 130.72 199.65 129.8 
M 193.57 132.7 199.75 132.78 
M 193.6 134.39 199.62 135.05 
M 184.27 153.91 187.64 152.69 191.97 149.58 194.75 146.05 194.75 143.86 191.97 140.34 187.64 137.22 184.27 136 
M 183.76 142.95 189.44 142.62 
M 183.72 145.06 189.56 145.18 
M 183.7 146.93 189.79 147.94 
M 200.19 110.47 202.75 109.42 206.03 106.71 208.14 103.64 208.14 101.74 206.23 98.97 
M 201.83 100.54 204.43 100.2 
M 197.82 102.75 204.02 102.78 
M 197.54 104.29 203.99 105.34 
M 202.74 131.75 205.51 130.41 209.05 126.99 211.34 123.11 211.34 120.72 209.05 116.84 205.51 113.42 202.74 112.08 
M 200.01 119.97 207.44 119.32 
M 200.07 121.73 207.1 121.58 
M 200 123.58 207.02 124.61 
M 199.08 150.35 202.5 149.01 206.88 145.57 209.71 141.67 209.71 139.26 206.88 135.36 202.5 131.92 199.08 130.58 
M 195.6 138.29 204.57 137.66 
M 195.93 140.29 204.57 140.64 
M 196.06 142.75 204.96 143.35 
M 203.52 155.28 200.69 152.29 194.91 148.8 190.4 147.44 
M 186.1 155.34 197.85 154.62 
M 186.58 183.28 190.19 181.22 
M 210.52 120.01 211.33 119.5 214.13 115.98 215.94 111.98 215.94 109.51 214.13 105.52 211.33 102 209.14 100.62 
M 210.43 142.68 212.76 141.25 215.74 137.59 217.66 133.44 217.66 130.88 215.74 126.73 212.76 123.07 210.52 121.7 
M 214.82 154.95 215.66 153.59 215.66 150.96 213.05 146.7 208.69 142.82 
M 202.96 150.29 211.14 149.34 
M 203.1 152.66 211.02 152.32 
M 203.09 154.15 209.08 155.12 
M 200.27 184.65 204.63 183.22 205.46 182.67 
M 199.57 194.37 201.11 192.38 201.11 190.13 198.29 186.5 193.93 183.3 190.51 182.05 
M 187.45 189.09 195.61 188.57 
M 189.12 190.97 196.02 191 
M 214.16 109.62 216.77 108.54 220.11 105.77 222.26 102.63 222.26 100.68 220.11 97.54 218.71 96.38 
M 217.27 131.98 219.97 130.56 223.43 126.91 225.66 122.77 225.66 120.21 223.43 116.07 219.97 112.42 217.27 110.99 
M 216.41 154.36 219.55 152.83 223.59 148.92 226.19 144.5 226.19 141.76 223.59 137.33 219.55 133.42 216.41 131.9 
M 203.89 194.03 207.81 192.64 212.81 189.09 216.04 185.07 216.04 182.86 
M 199.77 183.65 209.15 183.59 
M 199.78 185.69 210.04 186.65 
M 201.17 194.87 200.1 193.59 
M 198.49 191.64 196.11 189.99 
M 220.8 98.4 221.9 98.01 224.72 96.04 225 95.69 
M 224.86 119.68 225.84 119.05 228.54 115.56 230.29 111.61 230.29 109.17 228.54 105.22 225.84 101.73 223.72 100.37 
M 225.79 143.96 228.15 142.43 231.18 138.49 233.14 134.03 233.14 131.27 231.18 126.82 228.15 122.88 225.79 121.35 
M 231.75 154.46 231.75 153.93 229.58 149.08 226.22 144.8 223.59 143.13 
M 222.1 193.4 225.04 191.81 228.81 187.74 231.24 183.13 231.24 181.55 
M 205.21 196.13 208 193.08 209.92 189.39 209.92 187.11 207.77 183.17 
M 200.42 186.31 206.33 185.15 
M 200.22 188.32 206.19 187.9 
M 200.52 190 206.41 190.97 
M 227.89 108.37 230.33 107.28 233.47 104.49 235.49 101.33 235.49 99.37 233.47 96.2 232.22 95.09 
M 231.6 131.98 234.2 130.47 237.54 126.59 239.69 122.21 239.69 119.49 237.54 115.1 234.2 111.23 231.6 109.72 
M 229.21 118.95 235.42 117.31 
M 228.78 120.8 235.47 120.68 
M 229.37 122.76 235.86 124.19 
M 235.64 154.34 239.01 150.54 241.4 145.79 241.4 142.86 239.01 138.11 235.3 133.92 232.4 132.28 
M 229.77 141.83 237.29 140.7 
M 229.26 144.26 237.03 144.03 
M 229.3 146.44 237.13 147.83 
M 220.4 195.93 223.48 194.52 227.42 190.92 229.97 186.84 229.97 184.32 229.11 182.94 
M 215.26 198.56 216.53 197.08 216.53 195.01 213.68 191.67 209.25 188.71 205.79 187.56 
M 202.62 194.62 211.63 193.16 
M 205.9 196.35 211.75 196.39 
M 232.65 95.78 234.07 95.22 234.43 94.93 
M 238.18 116.42 240.35 113.08 241.93 108.8 241.93 106.16 240.35 101.88 237.91 98.11 235.99 96.64 
M 234.05 105.71 239.3 103.97 
M 234.52 107.13 238.73 107.36 
M 234.24 109.56 239.39 110.51 
M 240.89 145.21 243.18 143.54 246.12 139.24 248.01 134.37 248.01 131.36 246.12 126.49 243.18 122.2 240.89 120.52 
M 238.45 130.72 244.96 128.92 
M 238.9 133.05 244.5 132.56 
M 238.92 135.25 244.21 136.8 
M 246.36 154.03 244.75 150.04 241.71 145.79 239.34 144.13 
M 237.29 154.19 243.08 152.34 
M 236.89 192.74 238.98 191.23 241.66 187.34 243.38 182.94 243.38 180.22 242.78 178.69 
M 234.56 181.84 240.45 181.73 
M 235.17 183.82 240.09 184.99 
M 221.51 199.28 222.82 198.71 226.54 195.52 228.95 191.9 228.95 189.66 226.54 186.04 222.82 182.85 220.74 181.96 
M 239.76 105.44 242.08 104.29 245.05 101.35 246.96 98.03 246.96 95.97 246.13 94.52 
M 237.72 95.56 243.47 94.69 
M 237.9 96.84 243.57 97.11 
M 237.5 98.96 243.41 99.26 
M 247.33 129.55 250.66 125.29 252.75 120.52 252.75 117.57 250.66 112.8 247.41 108.58 244.87 106.94 
M 242.3 116.63 249.02 115.2 
M 242.19 119.16 248.69 118.99 
M 242.54 121.3 248.86 122.63 
M 251.21 153.89 253.77 150.8 256.08 145.92 256.08 142.9 253.77 138.01 250.19 133.7 247.39 132.02 
M 245.02 141.77 251.79 140.84 
M 244.47 144.21 251.82 144.03 
M 244.98 146.71 251.8 148.33 
M 244.67 179.36 245.58 178.84 
M 236.13 196.85 239.17 195.44 243.07 191.83 245.58 187.75 245.58 185.22 243.07 181.14 240.51 178.76 
M 233.38 184.78 240.86 183.43 
M 233.49 186.27 240.75 186.27 
M 233.54 188.23 241.25 189.52 
M 239.2 202.65 239.2 201.13 235.78 197.54 230.48 194.37 226.33 193.13 
M 247.33 115.35 249.33 113.74 251.87 109.64 253.52 104.99 253.52 102.11 251.87 97.46 250.08 94.57 
M 245.09 101.37 250.92 100.07 
M 245.69 103.72 250.3 103.7 
M 245.21 105.79 250.73 107.31 
M 255.27 145.71 257.53 143.88 260.43 139.21 262.29 133.92 262.29 130.65 260.43 125.35 257.53 120.68 255.27 118.86 
M 261.02 153.6 259.53 150.17 256.46 146.14 255.25 145.35 
M 248.37 188.42 250.52 186.98 253.26 183.28 255.03 179.09 255.03 176.49 254.14 174.39 
M 248.32 177.54 251.54 177.61 
M 245.98 179.85 251.77 180.89 
M 243.65 203.6 246.19 201.19 248.67 197.06 248.67 194.51 246.19 190.38 244.68 188.95 
M 241.55 192.84 244.29 192.27 
M 238.24 195.86 244.35 195.74 
M 236.43 197.81 244.15 198.74 
M 252.93 102.4 254.6 101.67 258.16 98.52 260.46 94.96 
M 250.68 96 256.24 96.55 
M 261.63 128.1 264.66 124.21 266.95 119.07 266.95 115.89 264.66 110.75 261.13 106.21 258.36 104.44 
M 266.81 153.43 268.71 151.06 271 146.04 271 142.92 268.71 137.9 265.15 133.46 262.37 131.73 
M 259.12 178.7 261.83 177.18 265.3 173.26 266.86 170.17 
M 252.28 198.88 255.37 197.38 259.33 193.54 261.88 189.19 261.88 186.5 259.33 182.15 255.37 178.31 254.4 177.84 
M 251.47 185.26 257.57 184.73 
M 248.95 188.06 249.29 188.04 
M 249.38 188.04 257.55 187.68 
M 249 190.07 257.02 191.34 
M 259.15 206.27 257.3 203.93 252.02 200.12 247.89 198.64 
M 260.87 114.76 263.57 113.03 267.03 108.6 269.27 103.58 269.27 100.48 266.84 95.21 
M 270.18 146.07 272.23 144.32 275.12 139.38 276.99 133.78 276.99 130.32 275.12 124.73 272.23 119.79 269.97 117.86 
M 270.16 169.28 272.51 167.67 273.8 165.92 
M 276.28 153.16 275.52 151.34 272.51 147.22 270.18 145.63 
M 263.89 189.41 266.03 187.92 268.78 184.11 270.55 179.8 270.55 177.13 268.78 172.81 266.87 170.17 
M 263.74 206.29 264.38 205.59 266.87 200.83 266.87 197.88 264.38 193.11 260.96 189.39 
M 268.55 104.66 272 103.46 276.42 100.4 279.28 96.93 279.28 96.6 
M 274.09 130.78 277.17 129.1 281.11 124.78 283.65 119.89 283.65 116.86 281.11 111.97 277.17 107.66 274.09 105.97 
M 281.57 153 283.39 150.75 285.65 145.87 285.65 142.85 283.39 137.97 279.9 133.66 277.17 131.98 
M 274.72 142.01 281.52 140.63 
M 274.4 144.54 281.57 144.53 
M 274.72 147.18 281.52 147.69 
M 273.4 178.42 275.98 176.83 279.29 172.78 281.42 168.18 281.42 165.34 280.8 163.99 
M 268.46 201.79 271.41 200.09 275.19 195.72 277.63 190.77 277.63 187.71 275.19 182.77 271.41 178.4 268.46 176.69 
M 272.94 205.33 272.12 204.58 268.34 202.83 
M 282.74 117.77 284.16 117.09 287.96 113.43 290.41 109.28 290.41 106.71 287.96 102.57 284.16 98.91 281.2 97.48 
M 278.24 106.26 285.88 104.88 
M 277.97 108.2 286.25 107.72 
M 278.82 109.95 285.58 111.19 
M 284.84 143.25 286.66 141.96 289.65 137.72 291.58 132.92 291.58 129.95 289.65 125.15 286.66 120.91 284.32 119.25 
M 281.93 128.97 288.16 127.48 
M 282.31 131.68 287.98 131.42 
M 281.84 133.53 288.26 135.34 
M 284.22 167.83 286.38 166.29 289.13 162.35 290.91 157.89 290.91 155.85 
M 289.96 152.76 289.13 150.67 286.38 146.73 284.22 145.2 
M 287.35 152.83 287.64 152.74 
M 285.78 159.58 287.98 160.24 
M 275.31 187.16 277.28 185.45 279.8 181.09 281.43 176.15 281.43 173.09 279.8 168.15 277.77 164.63 
M 285.57 203.06 285.57 202.75 283.32 196.99 279.84 191.9 277.12 189.91 
M 287.65 108.37 290.99 107.29 295.26 104.55 298.02 101.44 298.02 99.51 296.08 97.32 
M 284.4 98.9 293.28 97.72 
M 284.21 100.5 292.85 100.46 
M 284.77 102.24 293.03 102.81 
M 290.89 131.39 293.94 129.91 297.83 126.1 300.34 121.8 300.34 119.13 297.83 114.82 293.94 111.01 290.89 109.53 
M 288.28 118.22 295.82 117.22 
M 287.86 120.11 296.16 120.38 
M 287.6 122.98 295.5 123.82 
M 295.17 152.6 297.74 149.67 299.98 145.19 299.98 142.41 297.74 137.93 294.28 133.98 291.57 132.44 
M 288.63 141.42 296.25 140.48 
M 289.13 144.14 295.56 143.56 
M 289.23 145.8 296.31 146.85 
M 286.44 176.57 288.97 174.96 292.21 170.83 294.3 166.15 294.3 163.25 292.21 158.57 290.34 156.19 
M 289.84 160.94 290.54 160.82 
M 287.2 164.65 290.68 164.31 
M 283.93 167.38 290.41 168.28 
M 284.77 202.05 285.92 201.24 289.43 196.33 291.69 190.76 291.69 187.31 289.43 181.74 285.92 176.82 283.18 174.9 
M 280.5 186.16 287.73 184.87 
M 280.26 188.65 287.66 189.41 
M 280.29 192.21 287.75 192.94 
M 297.03 98.37 298.39 97.65 
M 299.44 119.17 300.51 118.59 303.64 115.19 305.66 111.34 305.66 108.96 303.64 105.11 300.51 101.71 298.06 100.38 
M 295.81 108.21 302.37 107.15 
M 295.95 109.88 302.11 110.07 
M 295.76 111.79 301.72 113.02 
M 299.99 143.52 302.38 141.99 305.45 138.08 307.42 133.64 307.42 130.89 305.45 126.45 302.38 122.54 299.99 121.01 
M 297.75 165.69 299.89 164.24 302.63 160.51 304.4 156.3 304.4 153.68 302.63 149.47 299.89 145.74 297.75 144.29 
M 295.57 152.5 300.88 151.87 
M 295.63 155.14 301.56 155.27 
M 295.65 157.42 301.06 157.84 
M 288.45 185.62 290.63 183.86 293.43 179.35 295.23 174.24 295.23 171.09 293.43 165.98 290.63 161.47 288.45 159.71 
M 286.09 170.07 291.78 168.92 
M 286.02 172.96 292.31 172.29 
M 286.34 175.08 292.09 176.79 
M 298.13 199.79 296.99 195.85 294.1 190.15 291.83 187.92 
M 289.38 201.15 295.78 199.53 
M 304.94 108.81 306.37 108.26 309.87 105.61 312.12 102.6 312.12 101.04 
M 306.42 131.67 309.14 130.24 312.63 126.57 314.88 122.42 314.88 119.86 312.63 115.71 309.14 112.04 306.42 110.61 
M 306.12 154.31 308.84 152.83 312.31 149.03 314.56 144.73 314.56 142.07 312.31 137.77 308.84 133.97 306.12 132.49 
M 300.28 175.3 303.03 173.7 306.56 169.6 308.84 164.95 308.84 162.08 306.56 157.43 303.03 153.33 300.28 151.73 
M 301.85 198.65 303.72 195.93 305.99 190.11 305.99 186.52 303.72 180.7 300.19 175.57 297.44 173.56 
M 294.45 185.73 301.75 184.02 
M 294.84 188.57 301.56 187.94 
M 294.55 191.03 301.76 192.55 
M 314.07 118.57 314.57 118.24 317.18 114.79 318.86 110.88 318.86 108.46 317.18 104.55 315.14 101.84 
M 315.1 143.63 317.3 142.12 320.11 138.23 321.93 133.84 321.93 131.12 320.11 126.72 317.3 122.84 315.1 121.32 
M 311.65 164.4 313.96 162.97 316.93 159.3 318.85 155.15 318.85 152.58 316.93 148.43 313.75 144.63 
M 305.17 184.16 305.8 183.73 309.07 179.22 311.17 174.12 311.17 170.96 309.07 165.85 308.02 164.41 
M 311.26 195.34 308.41 189.3 306.23 187.03 
M 316.36 107.04 318.81 105.99 321.41 103.73 
M 319.78 130.48 322.24 128.98 325.4 125.13 327.43 120.78 327.43 118.08 325.4 113.73 322.24 109.88 319.78 108.38 
M 320.61 154.39 323.35 152.83 326.86 148.84 329.12 144.33 329.12 141.53 326.86 137.02 323.35 133.03 320.61 131.48 
M 315.86 176.04 318.86 174.44 322.69 170.34 325.17 165.69 325.17 162.82 322.69 158.17 318.86 154.07 315.86 152.47 
M 320.54 192.11 321.27 190.31 321.27 186.81 318.96 181.17 315.38 176.18 312.57 174.24 
M 325.24 114.28 327.79 110.58 329.35 106.56 
M 328.31 142.91 330.19 141.31 332.77 136.94 334.43 131.99 334.43 128.92 332.77 123.97 330.19 119.59 328.17 117.89 
M 326.4 128.11 331.33 126.6 
M 326.24 130.43 331.46 130.76 
M 326.12 132.62 331.12 134.28 
M 327.52 166.49 330.12 164.92 333.44 160.89 335.59 156.34 335.59 153.52 333.44 148.96 330.12 144.94 328.31 143.84 
M 325.28 152.63 331.91 151.75 
M 325.36 155.22 331.98 155.27 
M 324.69 157.06 331.99 158 
M 321.02 187.78 323.55 186.14 326.78 181.93 328.87 177.17 328.87 174.22 326.78 169.45 324.28 166.2 
M 323.09 191.3 321.88 188.84 319.8 186.73 
M 332.2 128.3 334.73 126.72 337.97 122.68 340.05 118.1 340.05 115.26 337.97 110.68 337.23 109.76 
M 329.45 114.57 336.53 113.45 
M 329.9 117.02 336.61 117.05 
M 329.96 119.07 336.62 119.87 
M 335.28 155.25 338.11 153.54 341.73 149.16 344.07 144.2 344.07 141.13 341.73 136.17 338.11 131.79 335.28 130.08 
M 332.72 139.85 339.52 138.99 
M 332.78 142.36 340.02 142.92 
M 332.92 145.35 339.99 146.13 
M 332.21 177.7 335.27 176.09 339.18 171.96 341.7 167.29 341.7 164.4 339.18 159.72 335.27 155.6 334.82 155.36 
M 330.9 163.49 337.3 162.37 
M 329.49 165.52 337.4 166.21 
M 329.26 168.54 337.22 169.5 
M 335.96 186.64 333.65 181.29 330.06 176.55 327.26 174.7 
M 324.54 185.65 331.39 184.01 
M 324.49 188.63 331.78 188.02 
M 324.3 190.83 324.47 190.86 
M 336.71 113.11 338.89 111.79 339.7 110.82 
M 340.58 141.39 342.85 139.53 345.76 134.76 347.64 129.37 347.64 126.03 345.76 120.63 342.85 115.87 340.58 114.01 
M 338.55 125.18 344.15 123.33 
M 338.58 127.62 343.9 128.06 
M 338.6 130.49 344.07 132 
M 344.84 170.11 347.39 168.41 350.66 164.05 352.77 159.11 352.77 156.05 350.66 151.11 347.39 146.75 344.84 145.05 
M 342.72 155.45 348.6 153.52 
M 342.47 157.83 349.22 157.67 
M 342.72 160.17 349.03 160.95 
M 335.47 186.44 337.97 184.91 341.18 180.99 343.25 176.55 343.25 173.81 341.18 169.37 337.97 165.45 335.47 163.92 
M 332.94 173.07 339.65 171.94 
M 333.41 175.41 339.49 175.22 
M 333.02 177.61 339.2 178.77 
M 335.15 186.95 334.99 186.65 332.76 184.53 
M 346.97 127.53 349.19 126.22 352.72 122.08 354.61 118.18 
M 343.99 113.92 345.69 113.5 
M 343.98 115.82 350.24 115.85 
M 344.09 118.56 350.54 119.4 
M 350.65 156.34 353.56 154.55 357.29 149.97 359.69 144.78 359.69 141.57 357.29 136.38 353.56 131.8 350.65 130.01 
M 348.2 140.54 354.96 139.26 
M 347.76 143.22 355.07 143.39 
M 348.07 145.83 355.22 147.42 
M 348.37 179.08 351.42 177.47 355.32 173.34 357.83 168.67 357.83 165.77 355.32 161.1 351.42 156.97 348.37 155.36 
M 345.29 165.18 353.03 163.94 
M 345.71 166.84 353.49 167.22 
M 345.36 169.84 353.11 170.54 
M 349.24 181.64 345.46 177.3 342.38 175.53 
M 358.83 141.94 359.55 141.4 362.78 136.56 364.87 131.08 364.87 127.69 363.06 122.94 
M 360.17 170.56 362.52 168.86 365.53 164.5 367.47 159.57 367.47 156.51 365.53 151.57 362.52 147.21 360.17 145.51 
M 361.55 177.34 361.55 176.73 359.28 172.35 356.93 169.77 
M 361.64 128.77 364.44 127.07 366.35 124.75 
M 366.32 157.37 369.16 155.55 372.81 150.9 375.16 145.63 375.16 142.37 372.81 137.11 369.16 132.45 366.32 130.64 
M 372.09 173.7 373.87 170.22 373.87 167.26 371.43 162.48 367.63 158.27 364.66 156.62 
M 374.32 143.68 375.26 142.89 378.2 137.9 379.98 132.6 
M 375.11 170.78 377.43 169.06 380.39 164.63 382.31 159.63 382.31 156.53 380.39 151.52 377.43 147.1 375.11 145.37 
M 374.73 172.82 372.83 170.28 370.36 168.63 
M 381.62 157.07 383.91 155.56 387.47 150.87 388.58 148.29 
M 388.58 139.51 387.74 137.56 
M 378.25 141.26 385.7 139.77 
M 378.11 143.67 385.54 144.22 
M 378.51 146.76 385.4 147.97 
M 388.42 168.27 388.42 167.71 386.18 162.82 382.72 158.5 380.01 156.81 
M 377.34 166.48 384.44 165.37 
M 377.51 169.56 384.04 168.83 
M 377.21 171.36 378.31 171.61 
M 386.47 142.96 388.58 141.38 
M 387.79 155.1 388.58 155 
M 388.17 157.99 388.58 158 
M 387.94 160.37 388.58 160.54 
M 185.73 107.97 185.73 107.97 
M 190.51 200.47 193.93 199.21 198.29 196.01 199.57 194.37 
M 187.59 190.96 189.12 190.97 
M 186.99 193.23 195.64 193.63 
M 218.71 96.38 218.71 96.38 
M 194.8 198.19 196.26 198.34 
M 202.7 197.61 205.21 196.13 
M 196.2 203.96 198.24 200.96 198.24 200.16 
M 188.31 199.81 194.7 200.32 
M 190.21 201.41 194.83 201.94 
M 205.79 204.53 209.25 203.38 213.68 200.42 215.26 198.56 
M 202.39 196.33 205.9 196.35 
M 200.65 205.74 202.43 205.62 
M 234.43 94.93 234.43 94.93 
M 219.91 199.96 221.51 199.28 
M 226.33 211.36 230.48 210.12 235.78 206.95 239.2 203.36 239.2 202.65 
M 239.36 206.26 242.36 204.84 243.65 203.6 
M 248.77 217.59 248.77 216.18 245.38 212.61 240.12 209.45 236.01 208.22 
M 237.36 214.86 242.55 214.2 
M 252.87 218.4 257.3 215.21 260.7 210.9 260.7 208.23 259.15 206.27 
M 244.21 209.74 254.58 209.33 
M 243.77 211.41 254.53 212.68 
M 266.84 95.21 266.84 95.21 
M 257.51 211.44 260.52 209.8 263.74 206.29 
M 266.69 219.36 262.32 215.4 258.69 213.75 
M 296.08 97.32 296.08 97.32 
M 298.39 97.65 298.39 97.65 
M 297.44 203.07 300.19 201.06 301.85 198.65 
M 306.3 208.57 305.75 207.76 302.91 205.69 
M 315.14 101.84 315.14 101.84 
M 313 205.71 313 201.7 311.26 195.34 
M 304 200.66 309.85 198.87 
M 303.78 203.62 309.5 204.14 
M 303.93 206.8 307.33 208.13 
M 324.47 190.86 332.16 192.45 
M 339.7 110.82 339.7 110.82 
M 338.56 194.48 337.84 192.08 335.15 186.95 
M 339.28 185.98 347.7 184.84 
M 339.56 191.1 343.86 191.87 
M 351.06 188.62 351.03 188.6 
M 366.35 124.75 366.35 124.75 
M 364.66 180.86 367.63 179.21 371.43 175 372.09 173.7 
M 364.74 182.39 363.08 180.63 359.89 178.93 
M 388.12 171.96 387.62 171.19 
M 256.76 94.02 305.92 30 306.55 30.47 259.63 94.93 
M 268.61 94.84 293.9 57.8 294.57 58.24 271.36 95.84 
M 280.4 96.09 289.42 80.55 290.13 80.91 283.2 96.82 
M 291.19 96.35 292.54 96.83 
M 301.8 37 298.55 42.04 295.73 47.28 293.58 52.8 292.75 55.66 291.37 61.51 
M 292.21 62.05 290.39 66.32 289.03 70.68 288.39 75.17 288.33 77.46 288.52 82.1 
M 289.41 82.55 289 85.88 289.05 89.11 289.83 92.21 292.07 96.66 
M 300.14 39.51 297.06 44.63 295.73 47.28 293.58 52.8 292.03 58.57 
M 295.06 47.31 292.41 51.71 290.27 56.33 289.42 58.74 288.09 63.7 
M 289.98 55.11 287.76 58.8 285.97 62.67 285.26 64.68 284.14 68.84 
M 284.9 62.92 282.34 67.42 281.1 70.63 280.2 73.97 
M 279.82 70.72 277.88 74.14 276.94 76.57 276.25 79.11 
M 291.27 64.18 289.63 68.49 289.03 70.68 288.39 75.17 288.39 79.77 
M 285.83 75.38 284.38 79.6 283.97 82.52 283.96 85.51 
M 184.07 154.45 313.45 151.12 313.48 151.91 184.34 157.16 
M 184.47 158.33 294.58 163.22 294.56 164.01 184.92 161.03 
M 185.22 162.31 275.24 172.7 275.16 173.49 185.93 165.03 
M 186.4 166.49 255.69 179.55 255.55 180.33 187.08 169.2 
M 187.08 170.75 236.2 183.76 236.01 184.53 187.08 173.26 
M 186.89 174.89 217.04 185.37 216.79 186.13 186.62 177.18 
M 186.55 179.12 198.47 184.45 198.18 185.19 186.54 181.06 
M 299.57 152.48 295.26 153.87 291.2 155.67 287.52 158.1 285.82 159.54 282.56 162.69 
M 282.53 163.69 278.25 164.5 274.16 165.75 270.38 167.67 268.6 168.86 265.16 171.54 
M 265.06 172.53 260.87 172.78 258.82 173.05 254.88 174.09 251.15 175.82 247.57 178.02 
M 247.4 179 243.36 178.69 241.37 178.69 237.48 179.2 233.72 180.43 230.04 182.13 
M 229.8 183.1 225.98 182.26 224.07 181.99 220.29 181.98 216.54 182.7 212.81 183.9 
M 212.5 184.86 208.95 183.51 207.16 183 203.54 182.48 199.85 182.7 196.11 183.39 
M 195.74 184.32 192.56 182.35 190.93 181.52 189.26 180.84 186.55 180.17 
M 297.4 153.14 293.19 154.7 289.31 156.81 287.52 158.1 284.17 161.08 
M 275.86 153.95 272.39 155.23 269.19 156.97 267.71 158.04 264.95 160.5 
M 254.32 154.75 250.3 156.39 247.9 157.97 245.73 159.91 
M 232.78 155.55 229.84 156.75 228.09 157.9 226.5 159.32 
M 280.37 164.06 276.17 165.05 274.16 165.75 270.38 167.67 266.87 170.17 
M 255.63 163.33 252.41 164.08 249.39 165.29 247.97 166.09 245.27 168.01 
M 230.88 162.59 227.57 163.49 225.55 164.51 223.68 165.85 
M 262.95 172.62 258.82 173.05 254.88 174.09 252.99 174.88 249.35 176.89 
M 242.27 170.63 239.1 170.96 236.08 171.75 234.63 172.36 231.85 173.9 
M 221.59 168.64 219.39 168.86 217.28 169.42 214.34 170.91 
M 245.38 178.82 241.37 178.69 239.41 178.85 235.59 179.73 231.88 181.25 
M 220.51 174.77 216.63 174.8 214.14 175.37 211.73 176.35 
M 227.89 182.65 224.07 181.99 222.18 181.89 218.41 182.26 214.67 183.27 
M 240.59 222.13 244.05 225.81 246.42 228.07 248.11 230.92 249.65 233.98 250.38 235.74 258.77 262.22 259.29 265.08 259.25 269.75 257.76 271.08 255.31 274.68 254.54 280 251.81 279.88 247.9 278.93 245.23 273.77 241.65 267.72 238.3 262.79 220.55 231.01 219.48 226.52 219.02 223.85 217.23 220.34 214.61 216.42 
M 236.78 221.01 238.63 224.15 243.36 231.15 244.63 233.92 244.98 236.34 245.98 239.04 247.52 241 248.54 243.13 249.51 244.48 250.47 247.12 251.59 249.35 
M 232.96 219.88 236.04 225.25 237.4 228.28 239.84 232.59 240.64 234.98 241.31 237.98 242.69 240.16 244.23 241.45 244.87 243.37 245.77 245.36 247.59 248.31 248.5 251.76 253.55 256.85 
M 229.09 218.99 231.74 224.74 235.86 232.39 237.33 236.78 238.5 239.25 241.64 242.3 243.39 246.68 244.98 249.42 
M 225.2 218.17 227.19 221.39 228.93 226.29 231.35 231.23 232.73 233.65 234.05 237.99 235.16 240.09 237.22 242.16 239.18 243.81 240.26 245.94 240.88 248.56 243.75 254.64 244.44 257 
M 221.29 217.46 223.2 220.59 224.36 223.2 225.88 227.59 227.05 229.73 227.73 232.28 230.05 237.67 231.24 239.81 233.02 241.31 234.68 243.8 237.23 248.81 238.35 251.63 238.78 254.14 239.93 256.68 
M 217.36 216.85 219.44 220.35 220.57 222.89 221.84 227.71 222.9 229.65 223.62 232.09 224.76 235.13 225.83 237.27 226.27 239.6 227.31 241.87 228.35 243.38 229.14 244.97 230.38 247.99 
M 370.46 182.59 374.44 185.71 377.26 187.66 380.35 189.42 382.93 190.6 386.49 201.78 383.77 205.23 383.29 207.39 381.74 209.19 379.03 209.4 375.71 209.03 374.49 211.18 374.2 213.96 372.68 215.81 370.43 216.67 367.85 217.32 365.26 221.19 363.62 222.87 361.62 224.24 360.34 226.04 359.87 228.29 357.41 229.06 354.76 229.49 352.68 230.54 350.1 230.93 343.55 229.29 340.5 228.75 338.57 229.37 336.88 230.89 334.4 231.08 327.9 230.85 326.07 231.02 322.67 230.14 311.57 226.77 310.15 225.55 307.53 223.81 304.55 220.74 301.2 216.68 
M 366.91 184.37 372.32 188.23 374.79 190.58 377.27 192.58 
M 363.37 186.16 366.03 188.44 371.13 192 373.92 194.34 375.58 196.5 
M 359.82 187.97 362.7 190.49 365.28 192.47 370.46 196.02 371.96 197.44 
M 356.29 189.78 359.25 192.12 364.37 196.83 369.56 200.58 371.17 202.18 372.39 204.08 374.53 206.24 
M 352.75 191.59 355.87 194.33 360.22 198.97 365.3 201.98 367.45 203.99 369.84 205.77 371.49 207.58 375.19 210.36 
M 349.19 193.36 352.27 196.51 356.81 200.25 362.92 205.78 365.1 207.15 367.33 209.54 368.99 210.59 
M 345.63 195.14 348.38 198.08 351.15 200.37 358.36 204.56 360.13 206.92 362.28 210.56 364.05 212.22 
M 342.11 196.99 347.13 202.44 349.44 203.78 354.55 206.29 356.55 208.65 359.58 213.13 
M 338.62 198.87 345.83 205.88 350.27 209.42 352.57 210.18 354.98 212.92 357.34 215.27 358.87 217.27 359.34 218.69 361.15 220.4 
M 335.11 200.75 342.41 208.08 344.85 209.61 347.47 211.62 
M 331.59 202.59 334.64 204.73 339.02 209.19 340.89 210.7 342.83 211.85 345.17 214.06 
M 328.06 204.42 330.74 206.45 334.84 210.34 339.44 213.36 341.07 215.28 342.85 218.19 345.89 221.83 347.61 223.38 
M 324.44 206.06 327.38 208.67 332.02 212.17 333.6 213.98 335.15 215.43 336.72 217.66 338.38 220.55 340.49 222.07 341.88 223.94 
M 320.79 207.65 323.29 210.95 325.45 212.91 327.98 214.45 330.21 216.13 333.19 217.36 334.48 219.62 335.46 222.55 336.89 224.76 340.37 227.81 
M 317.16 209.27 319.81 212.56 322.03 215.02 324.02 216.93 328.37 220.33 331.19 222.08 
M 313.56 210.94 318.33 216.61 320.3 218.32 322.35 219.51 324.17 220.99 
M 309.96 212.62 312.71 215.74 314.84 217.61 320.04 221.37 
M 306.35 214.29 309.25 217.51 314.98 221.75 318.12 223.71 
M 387.78 137.59 393.32 136.37 395.97 135.45 399.71 132.62 402.15 131.43 404.1 129.93 406.71 129.18 409.41 127.25 411.9 126.15 413.95 124.78 415.54 122.86 418.37 120.96 419 119.47 422.16 119.26 425.56 117.46 428.21 115.73 429.45 114.13 432.9 112.37 433.69 119.71 432.17 124.21 432.95 126.5 431.03 130.86 430.23 133.24 430.13 136.06 429.06 140.39 428.59 149.41 430.13 152.42 427.23 155.91 426.86 158.11 427.21 160.92 426.27 164.86 426.8 169.93 427.45 172.47 427.25 173.81 428.46 175.61 429.77 178.43 430.3 180.87 430.53 183.16 430.52 185.46 430.14 190.14 430.38 192.25 431.58 197.09 432.89 200.89 433.41 206.97 431.06 205.23 428.97 202.83 423.21 199.26 421.55 197.72 420.09 196.1 418.29 195.68 416.57 194.81 413.8 190.76 411.16 189.69 408.42 188.1 406.14 187.04 402.46 184.76 400.64 183.11 397.6 181.6 395.18 179.57 387.78 173.93 
M 387.78 139.41 390.76 139.17 396.03 137.71 400.57 134.94 402.83 134.41 406.99 131.67 408.88 130.81 410.48 130.37 411.95 129.54 414.32 129.14 419.62 125.76 421.83 123.61 
M 390.79 141.45 396.29 139.96 398.89 138.9 401.35 138.21 405.36 136.13 407.39 134.3 409.01 133.31 410.89 132.58 412.82 132.11 415.36 130.6 418.16 130.65 421.24 129.97 424.11 128.78 426.52 126.29 428.6 124.65 
M 396.72 142 403.62 140.09 406.05 138.84 407.91 137.33 409.6 136.44 413.77 135.05 415.73 133.95 418.03 133.24 
M 387.78 144.86 391.12 144.93 396.62 144.11 398.76 143.96 400.99 143.33 403.34 142.19 406.07 141.71 408.34 140.61 410.11 139.92 412.35 139.32 414.88 138.15 416.9 137.79 418.7 136.67 420.6 135.22 423.39 134.12 425.51 134.3 
M 387.78 146.67 398.4 146.05 400.71 145.6 403.53 144.56 406.13 144.5 410.92 142.62 415.21 141.64 417.18 141.96 418.73 141.99 421.68 140.85 424.72 139.39 
M 387.78 148.49 390.84 148.39 393.4 147.82 395.83 147.61 398.51 148.12 400.98 147.68 403.46 146.92 405.8 146.98 413.5 145.74 
M 387.78 150.31 390.87 150.32 393.47 149.76 395.94 149.76 398.41 150.33 401.39 150.39 406.49 149.87 
M 393.56 152.2 396.45 152.28 398.88 152.69 402.05 152.59 404.6 152.73 406.49 152.42 411.5 153.11 416.14 152.26 
M 396.64 154.76 399.59 155.33 402.41 154.82 405.33 154.72 407.22 154.43 409.3 154.49 411.68 154.96 
M 391.14 156.69 394.15 157.27 400.17 157.7 405.57 157.74 407.25 156.89 410.92 156.85 
M 394.11 159.46 397.04 159.88 400.04 159.99 405.84 160.08 407.4 159.88 408.95 160 411.34 160.58 
M 391.02 160.75 393.49 161.48 396.03 161.9 402.71 162.39 405.85 162.38 407.58 162.58 409.35 163.21 
M 387.78 161.21 393.12 163.57 395.95 164.47 398.86 164.22 402.13 164.77 405.15 164.97 408.28 166.66 419.37 168.83 
M 395.73 166.68 402.04 166.93 406.81 168.27 408.84 169.22 410.99 169.59 413.69 170.4 418.7 172.61 421.28 173.13 424.14 174.87 
M 387.78 164.84 393.17 167.54 395.77 168.35 398.76 169.22 401.19 169.7 403.62 169.69 408.73 172.21 410.78 172.58 416.34 175.27 418.23 176.58 420.39 176.81 422.33 178.04 
M 395.73 170.14 398.49 171.31 403.63 172.44 406.11 174.14 408.49 175.18 410.71 175.98 412.84 176.42 416.96 177.95 
M 395.46 172.39 398.28 173.15 400.91 174.2 403.5 175.67 406.09 177.69 412.41 179.63 416.42 181.48 417.7 183.43 419.53 184.62 422.28 185.58 425.13 187.68 428.26 189.12 
M 387.78 170.29 392.95 173.09 395.37 174.68 400.81 177.3 403.38 179.43 405.85 180.97 407.93 181.75 409.83 181.84 412.26 182.72 
M 390.32 173.81 397.85 178.5 400.66 180.46 402.69 182.38 404.82 183.86 409.53 185.01 411.31 186.19 414.08 187.71 
M 318.51 102.75 321.12 106.33 335.19 97.35 337.03 95.9 339.04 94.63 341.21 93.53 343.86 93.28 345.64 92.72 347.72 92.42 349.21 91.12 351.35 90.54 356.85 91.56 361.89 91.87 363.81 92.85 365.76 94.47 368.04 96.05 372.07 96.57 374.04 96.49 375.94 97.22 376.12 98.69 378.64 103.98 380.58 108.77 381.03 111.02 380.83 113.72 380.02 119.48 374.72 130.98 370.46 127.01 
M 322.28 104.02 324.38 103.13 325.78 101.34 328 100.09 330.97 99.04 332.89 97.68 
M 326.04 105.3 328.54 104.61 329.74 103.62 334.63 100.69 
M 329.75 106.72 332.75 105.87 335.48 102.93 337.33 101.23 
M 333.44 108.2 336.06 107.57 337.87 105.93 339.24 103.95 344.67 99.18 346.3 97.09 347.37 94.68 
M 337.12 109.72 339.77 109.26 343.35 106.06 345.06 103.55 347.49 102.05 349.34 100.62 350.53 99.01 351.18 96.61 353.04 94.37 355.94 92.72 
M 340.77 111.28 343.43 110.55 346.87 106.91 348.94 105.13 351.22 104.15 354.1 99.8 
M 344.43 112.85 347.1 111.76 349.06 109.93 351.13 108.34 353.46 107.17 355.26 105.19 356.81 102.67 
M 347.96 114.67 350.77 113.4 352.89 111.76 356.61 108.48 358.84 107.52 360.66 106.53 361.7 104.4 363.31 101.82 365.29 100.58 
M 351.49 116.49 353.92 115.88 358.22 112.46 360.29 111.37 362.36 110.97 364.18 109.28 365.55 106.93 367.74 104.87 371.2 101.16 372.17 101.45 372.98 100.58 374.86 99.19 
M 354.98 118.39 357.97 117.64 360.36 116.29 362.34 115.39 364.01 114.97 368.53 111.31 369.89 109.42 
M 358.44 120.35 361.63 119.9 366.24 118.12 368.65 116.75 370.66 114.71 374 110.69 376.84 109.6 
M 361.9 122.3 365.18 122.33 368.04 121.15 370.65 120.58 374.88 117.66 377.28 115.28 
M 365.39 124.22 369.45 124.13 374.92 122.2 
M 106.29 150.81 107.04 149.54 108.5 147.67 110.7 145.5 113.71 143.03 117.09 140.59 124.97 135.5 129.8 132.17 139.7 126.02 144.61 123.36 149.25 121.18 154.06 119.29 158.9 117.79 166.81 116.04 169.67 115.7 171.31 115.74 177.14 119.72 179.07 124.06 182.48 132.79 183.92 137.18 183.73 150.81 184.15 155.3 184.62 159.79 185.67 164.22 187.08 168.62 187.09 173.15 186.55 177.74 186.72 186.8 186.08 191.4 184.55 196.09 179.96 201.12 169.72 201 162.2 200.44 155.27 199.11 148.75 197.22 137.22 192.32 132.38 189.52 128.38 186.4 124.91 182.95 
M 164.76 140.57 164.48 148.16 164.17 151.67 164.25 154.88 164.7 157.77 163.53 163.32 163.77 165.88 164.64 168.43 165.22 171.35 165.36 174.71 163.16 178.88 151.19 179.92 146.25 179.9 141.22 179.35 136.39 178.11 131.61 176.52 127.45 174.28 
M 123.93 182.3 117.2 173.65 112.8 166.89 108.11 160.55 104.9 155.75 104 153.97 104.13 151.95 105.54 150.68 107.51 151.03 108.57 152.67 111.01 157.73 115.03 164.61 117.64 169.89 119.64 173.5 125.33 182.67 
M 123.08 183.16 120.34 182.83 
M 118.09 182.55 112.76 181.73 103.19 179.37 97.18 178.38 93.24 177.91 87.64 176.72 86.3 175.3 86.47 173.25 87.96 172.06 89.82 172.37 107.14 177.49 112.65 179.54 117.65 180.96 
M 119.09 181.3 124.02 182.32 
M 124.32 182.38 125.06 182.52 
M 133.57 151.8 131.52 148.93 130.51 145.54 130.66 142.02 131.94 138.73 134.22 136.04 137.25 134.23 140.7 133.51 144.2 133.95 147.37 135.5 149.87 137.99 151.42 141.16 151.86 144.66 151.13 148.11 149.33 151.15 146.63 153.43 143.35 154.71 139.82 154.85 136.44 153.85 133.57 151.8 
M 148.12 139.24 149.36 141.77 149.71 144.57 149.13 147.34 147.69 149.76 145.54 151.58 142.91 152.61 140.09 152.73 137.38 151.92 135.08 150.28 
M 137.52 146.65 136.7 145.51 136.3 144.15 136.35 142.74 136.87 141.43 137.78 140.35 138.99 139.63 140.37 139.34 141.77 139.51 143.04 140.13 144.04 141.13 144.66 142.4 144.83 143.8 144.54 145.18 143.82 146.39 142.74 147.31 141.43 147.82 140.02 147.88 138.67 147.47 137.52 146.65 
M 136.97 144.26 140.57 147.85 
M 139.08 144.22 142.33 147.47 
M 138.16 141.16 143.59 146.59 
M 140.21 141.06 144.47 145.31 
M 142.18 140.88 144.8 143.5 
M 124.93 182.03 125.07 182.17 
M 106.93 149.72 110.38 153.17 
M 109.08 147.1 113.74 151.76 
M 111.55 144.8 115.58 148.83 
M 114.2 142.68 118.55 147.04 
M 116.97 140.68 119.86 143.57 
M 119.88 138.83 123.12 142.06 
M 122.77 136.95 126.67 140.84 
M 125.64 135.04 130.39 139.8 
M 128.46 133.09 132.72 137.36 
M 131.34 131.21 134.68 134.54 
M 134.28 129.37 138.17 133.27 
M 137.23 127.55 140.74 131.06 
M 140.2 125.75 143.46 129.01 
M 143.29 124.07 146.39 127.17 
M 146.47 122.48 151.23 127.24 
M 149.75 120.99 153.22 124.46 
M 153.17 119.64 155.92 122.4 
M 156.75 118.46 159.34 121.04 
M 160.48 117.41 164.3 121.24 
M 164.36 116.52 167.13 119.29 
M 168.45 115.84 171.13 118.52 
M 177.01 119.63 177.17 119.79 
M 180.03 183.48 178.85 182.3 177.47 181.93 
M 181.5 178.65 181.03 178.84 180.52 179.92 
M 132.22 160.33 134.47 156.95 134.94 155.47 
M 181.68 142.72 176.13 143.69 174.91 144.13 173.42 144.28 
M 156.55 143.9 155.66 141.75 153.16 137.96 149.43 136.49 
M 165.9 173.76 164.02 169.44 163.97 168.94 164.28 168.23 164.79 167.85 165.43 167.68 166.02 167.84 
M 124.79 152.48 125.13 153.61 125.8 154.05 126.67 154.31 128.01 154.37 129.61 153.5 
M 129.64 155.53 130.85 154.65 131.73 152.85 133.13 151.19 
M 173.91 124.83 175.29 126.89 175.79 127.08 176.11 126.76 
M 149.48 121.09 149.11 121.58 148.11 122.28 146.65 122.94 144.89 123.44 
M 183.9 137.66 182.65 137.38 181.82 137.59 181.3 138.46 181.31 139.34 
M 175.99 121.92 178.02 121.71 
M 166.42 157.23 164.56 156.22 162.27 154.12 159.78 152.37 158.74 151.14 158.56 150.63 
M 127.38 158.65 128.02 158.58 129.14 158.08 131.14 156.63 132.39 155.4 133.97 153.02 134.53 152.49 
M 166.76 146.74 166.49 145.13 166.57 143.34 165.05 140.75 164.27 138.29 
M 175.33 170.15 174.61 169.37 174.25 167.63 173.97 167.25 
M 171.83 175.91 169.51 175.56 167.77 175.72 
M 152.66 172.06 151.26 171.59 150.73 171.71 149.83 172.2 148.37 173.26 148.03 173.68 147.47 174.74 147.14 175.8 
M 168.77 164.2 169.09 165.61 168.95 167.67 169.19 168.14 169.66 168.19 
M 178.64 143.38 176.39 143.68 174.5 144.23 172.99 144.22 171.73 143.18 169.33 140.35 
M 152.46 195.38 149.95 194.38 149.19 194.43 147.58 194.91 
M 176.63 151.71 175.78 151.04 175.39 150.51 173.38 146.07 172.25 144.81 171.2 143.25 
M 156.58 197.29 154.1 195.15 153.35 194.7 150.07 193.66 148.73 193.99 
M 153.38 155.95 153.54 155.26 154.31 154.12 154.74 153.75 156.3 153.01 157.34 152.1 157.73 150.82 158.12 150.27 
M 154.28 136.91 153.44 135.84 152.92 135.47 151.84 135.06 149.98 134.87 148.67 134.48 148.03 133.92 147.39 132.65 
M 148.48 155.98 147.07 158.48 146.68 158.9 145.75 159.08 144.1 158.98 
M 156.78 120.22 155.66 120.99 153.59 121.31 152.91 121.6 151.36 122.5 150.26 123.4 148.96 123.63 
M 143.81 191.35 141.8 194.32 
M 124.49 150.9 124.92 151.85 125.13 153.16 125.51 153.76 127.15 154.32 128 154.3 128.6 154.03 
M 166.46 158.69 164.15 156.93 161.94 154.38 159.56 152.3 158.54 150.81 
M 128.88 172.02 129.76 171.63 131.04 170.6 132.33 169.02 132.76 168.18 133.04 167.28 133.09 166.56 132.58 163.46 
M 131.95 159.15 133.68 157.79 134.54 156.6 134.88 155.62 134.9 154.01 
M 125.85 183.37 124.95 183 
M 174.53 152.06 173.28 150.75 172.54 149.52 172.1 148.05 171.96 145.88 171.51 144.58 
M 146.83 169.08 147.37 167.28 147.51 164.76 147.83 163.38 147.92 162.15 147.71 161.18 146.79 159.94 
M 138.73 165.18 137.7 164.27 137.26 164.07 135.71 163.88 134.21 163.26 133.23 162.49 132.94 161.9 
M 172.75 144.55 169.21 140.41 166 137.21 165.67 136.93 164.93 136.83 
M 113.31 161.71 113.8 162.14 
M 139.22 157.9 137.16 157.03 135.46 156.07 135.16 154.71 
M 155.87 194.21 154.74 193.54 152.85 192.8 151.22 192.33 150.11 192.37 
M 163.47 145.03 162.85 144.34 162.79 144 163.51 142.1 163.69 140.57 
M 139.88 180.87 137.35 180.89 135.47 181.61 133.76 181.99 132.29 181.76 
M 161.32 182.4 162.78 181.67 163.58 181.61 164.75 181.81 167.17 182.65 
M 155.99 139.13 154.79 136.57 153.78 134.86 150.58 132.33 
M 162.63 181.14 163.26 181.49 166.59 182.35 167.81 182.95 
M 174.88 160.84 175.36 159.02 175.2 157.36 175.43 155.66 174.78 154.07 
M 145.05 188.17 145.85 186.49 145.91 185.82 145.73 185.34 144.64 184.13 143.03 183.05 142.1 182.66 
M 185.79 186.84 185.3 183.05 185 182.66 183.46 181.83 
M 173.4 177.29 169.13 177.79 168.59 177.97 168.14 178.51 
M 161.54 155.19 158.61 151.18 158.47 150.63 158.83 149.77 
M 161.41 123.44 159.23 124.36 158.25 124.42 157.25 124.7 155.43 124.37 154.63 123.94 
M 156.94 156.7 157.76 153.89 157.91 150.82 158.59 149.88 
M 144.52 132.43 143.88 131.79 143.56 131.05 143.57 130.12 144.18 129.15 144.03 128.51 
M 153.36 144.88 152.88 143.53 152.53 141.72 151.12 139.66 150.4 139.08 
M 152.1 141.06 151.2 139.73 150.39 139.07 
M 183.75 143.31 181.94 142.77 179.74 143.13 
M 153.67 133.05 152.64 132 149.11 129.48 147.56 127.9 146.11 127.58 
M 129.06 164.29 129.84 162.05 130.48 160.98 132.15 160.24 133.32 158.58 
M 177.41 198.69 177.23 199.24 176.84 199.73 174.82 200.7 
M 126.49 161.55 126.35 160.84 127 159.86 127.7 159.28 129.84 158.01 
M 111.56 144.8 112.19 145.19 112.42 145.52 
M 148.5 191.04 148.9 191.57 149.01 192.32 148.78 193.06 148.29 193.67 
M 174.2 190.4 175.29 188.92 175.89 187.64 176.03 187.01 176.3 183.19 176.03 181.74 
M 176.02 174.69 175.81 175.39 174.78 175.6 
M 176.89 133.3 179.34 135.28 179.79 135.84 180.33 136.95 180.71 138.86 181.12 139.73 
M 167.77 198.03 168.62 198.29 170.06 199.22 
M 146.42 134.25 145.98 133.07 144.83 131.22 144.58 129.4 144.06 128.39 
M 120.14 174.35 120.02 173.78 119.63 173.5 
M 162.56 137.27 162.31 136.29 162.14 136.15 162.05 136.27 
M 158.92 189.71 157.87 189.02 157.29 188.88 155.13 189.45 152.82 189.6 
M 144.47 187.15 143.88 185.92 143 185.09 142.33 184.63 140.79 184.15 139.44 184.28 137.3 185.19 135.91 185.52 
M 150.7 120.61 149.74 121.89 
M 162.15 118.69 162.95 118.93 163.19 119.22 163.19 119.5 162.11 120.15 161.56 120.69 
M 178.5 153.01 177.93 152.58 176.05 151.7 175.2 150.82 174.36 149.23 
M 162.9 149.24 159.86 147.74 158.54 146.18 158.45 145.83 
M 125.81 183.87 124.76 184.8 123.26 185.37 121.72 185.35 120.32 184.88 119.14 184.05 118.26 182.94 117.71 181.64 117.58 180.25 117.87 178.91 118.52 177.73 119.49 176.8 120.7 176.27 121.96 176.11 123.2 176.25 124.37 176.59 127.74 177.82 124.3 176.86 122 176.67 120.92 176.94 119.99 177.48 119.32 178.29 118.94 179.25 118.84 180.26 119.05 181.23 119.54 182.09 120.23 182.77 121.07 183.22 121.96 183.4 122.8 183.31 123.5 182.94 124.13 182.19 
M 124.92 182.95 125.39 183.7 
M 121.12 178.82 121.05 179.27 121.36 179.12 
M 119.36 176.54 119.09 177.39 119.72 177 
M 117.67 174.3 117.44 174.57 117.13 175.51 117.7 174.97 118.09 174.86 
M 116.07 172.01 115.59 172.5 115.17 173.64 115.85 172.91 116.52 172.68 
M 114.57 169.65 113.74 170.44 113.21 171.76 114 170.84 115.05 170.44 
M 113.08 167.31 111.89 168.37 111.25 169.88 112.15 168.78 113.65 168.15 
M 111.48 165.07 110.04 166.31 109.29 168 110.3 166.71 112.1 165.92 
M 109.87 162.85 108.19 164.24 107.33 166.12 108.45 164.65 110.49 163.71 
M 108.2 160.67 106.34 162.18 105.37 164.24 106.6 162.58 108.86 161.51 
M 106.63 158.41 104.49 160.11 103.41 162.36 104.75 160.52 107.25 159.3 
M 105.13 156.11 102.64 158.05 101.45 160.49 102.89 158.45 105.71 157.05 
M 104.03 153.5 100.79 155.98 99.49 158.61 101.04 156.38 104.37 154.69 
M 124.94 183.02 125.75 183.21 
M 122.22 181.97 122.59 181.86 122.69 182.06 
M 119.31 181.35 120.21 180.69 120.38 181.59 
M 116.65 180.71 117.21 179.94 117.83 179.53 117.68 180.04 117.85 181.01 
M 114.07 179.98 114.7 178.92 115.45 178.36 115.17 179.03 115.28 180.34 
M 111.57 179.11 112.19 177.91 113.07 177.19 112.66 178.01 112.7 179.56 
M 109.09 178.18 109.68 176.89 110.69 176.03 110.15 177 110.13 178.56 
M 106.56 177.32 107.17 175.88 108.31 174.86 107.64 175.99 107.57 177.64 
M 103.99 176.55 104.66 174.87 105.93 173.69 105.13 174.97 105.01 176.87 
M 101.4 175.83 102.16 173.85 103.55 172.52 102.62 173.96 102.44 176.11 
M 98.84 175.05 99.65 172.84 101.17 171.36 100.11 172.94 99.88 175.35 
M 96.24 174.36 97.14 171.83 98.79 170.19 97.6 171.93 97.31 174.66 
M 93.67 173.61 94.63 170.81 96.41 169.02 95.09 170.92 94.74 173.92 
M 91.13 172.77 92.12 169.8 94.03 167.86 92.58 169.9 92.18 173.11 
M 88.51 172.15 89.61 168.78 91.65 166.69 90.07 168.89 89.62 172.33 
M 94.99 178.18 103.88 182.37 109.13 184.64 114.54 186.69 120.14 188.49 125.79 189.96 137.22 192.32 
M 124 187.99 123.84 187.49 
M 118.01 187.8 118.43 186.98 118.72 185.64 
M 174.94 113.83 180.7 119.6 
M 179.07 111.61 187.49 120.03 
M 183.19 109.37 192.3 118.47 
M 187.3 107.11 195.53 115.35 
M 191.52 104.98 197.85 111.31 
M 195.81 102.91 203.77 110.87 
M 200.34 101.08 209.54 110.28 
M 205 99.38 212.9 107.28 
M 210 98.02 217.34 105.36 
M 215.15 96.81 224.32 105.98 
M 220.83 96.13 225.92 101.22 
M 226.61 95.55 233.88 102.82 
M 232.49 95.07 241.65 104.23 
M 238.43 94.65 247.2 103.43 
M 244.65 94.51 251.65 101.51 
M 251.11 94.61 256.69 100.2 
M 257.73 94.87 267.23 104.37 
M 264.31 95.09 273.71 104.49 
M 271.42 95.84 276.76 101.18 
M 278.49 96.55 287.44 105.5 
M 285.15 96.85 293.84 105.54 
M 291.49 96.83 298.82 104.17 
M 298.71 97.69 307.3 106.28 
M 307.03 99.65 314.53 107.15 
M 315.74 102 321.04 107.3 
M 325.07 104.97 333.17 113.08 
M 335.48 109.02 342.8 116.34 
M 346.98 114.16 354.98 122.16 
M 360.93 121.75 368.24 129.07 
M 375.44 129.91 381.67 136.14 
M 392.77 140.88 395.75 143.85 
M 282.38 92.11 284.7 96.76 
M 283.11 86.42 288.29 96.79 
M 284.55 82.16 291.89 96.82 
M 285.29 76.47 289.17 84.23 
M 285.31 69.36 288.38 75.51 
M 285.33 62.25 289.21 70.01 
M 286.42 57.27 290.64 65.71 
M 288.58 54.43 291.6 60.48 
M 290.74 51.59 292.76 55.63 
M 292.89 48.75 294.13 51.23 
M 295.05 45.9 295.73 47.27 
M 297.2 43.06 297.56 43.76 
M 299.36 40.22 299.51 40.52 
M 301.52 37.38 301.53 37.41 
M 222.53 291.39 220.64 297.7 
M 226.73 291.39 224.84 297.7 
M 221.63 294.39 225.83 294.39 
M 227.66 295.3 231.26 295.3 231.44 294.7 231.32 294.1 230.6 293.5 229.7 293.5 229.01 293.8 228.23 294.39 227.66 295.3 227.48 295.89 227.51 296.8 227.93 297.39 228.44 297.7 229.34 297.7 230.03 297.39 230.81 296.8 
M 234.83 291.39 233.3 296.5 233.33 297.39 233.84 297.7 234.44 297.7 
M 233.3 293.5 235.4 293.5 
M 236.66 295.3 240.26 295.3 240.44 294.7 240.32 294.1 239.6 293.5 238.7 293.5 238.01 293.8 237.23 294.39 236.66 295.3 236.48 295.89 236.51 296.8 236.93 297.39 237.44 297.7 238.34 297.7 239.03 297.39 239.81 296.8 
M 245.63 294.39 245.51 293.8 244.7 293.5 243.8 293.5 242.81 293.8 242.33 294.39 242.45 295 242.96 295.3 244.37 295.6 244.88 295.89 244.91 296.8 244.43 297.39 243.44 297.7 242.54 297.7 241.73 297.39 241.61 296.8 
M 254.3 293.5 253.04 297.7 
M 254.03 294.39 253.61 293.8 253.1 293.5 252.2 293.5 251.51 293.8 250.73 294.39 250.16 295.3 249.98 295.89 250.01 296.8 250.43 297.39 250.94 297.7 251.84 297.7 252.53 297.39 253.31 296.8 
M 256.7 293.5 255.44 297.7 
M 256.34 294.7 257.51 293.8 258.2 293.5 259.1 293.5 259.61 293.8 259.64 294.7 258.74 297.7 
M 262.39 293.5 261.14 297.7 
M 262.03 294.7 263.21 293.8 263.89 293.5 264.8 293.5 265.31 293.8 265.34 294.7 264.44 297.7 
M 269.3 293.5 268.61 293.8 267.83 294.39 267.26 295.3 267.08 295.89 267.11 296.8 267.52 297.39 268.04 297.7 268.94 297.7 269.63 297.39 270.4 296.8 270.98 295.89 271.15 295.3 271.13 294.39 270.7 293.8 270.2 293.5 269.3 293.5 
M 273.8 293.5 272.54 297.7 
M 273.44 294.7 274.61 293.8 275.3 293.5 276.2 293.5 276.7 293.8 276.74 294.7 275.83 297.7 
M 276.74 294.7 277.9 293.8 278.6 293.5 279.5 293.5 280.01 293.8 280.04 294.7 279.14 297.7 
M 284 293.5 283.31 293.8 282.52 294.39 281.95 295.3 281.77 295.89 281.81 296.8 282.23 297.39 282.74 297.7 283.64 297.7 284.33 297.39 285.11 296.8 285.68 295.89 285.86 295.3 285.83 294.39 285.4 293.8 284.89 293.5 284 293.5 
M 289.13 291.39 287.24 297.7 
M 291.23 291.39 291.44 291.7 291.83 291.39 291.62 291.1 291.23 291.39 
M 290.89 293.5 289.64 297.7 
M 296.02 294.39 295.9 293.8 295.1 293.5 294.2 293.5 293.2 293.8 292.73 294.39 292.85 295 293.36 295.3 294.77 295.6 295.27 295.89 295.31 296.8 294.83 297.39 293.83 297.7 292.94 297.7 292.13 297.39 292.01 296.8 
M 297.62 297.1 297.23 297.39 297.44 297.7 297.83 297.39 297.62 297.1 
"/></svg>
