<svg xmlns="http://www.w3.org/2000/svg" width="520" height="320"><rect x="0" y="0" width="520" height="320" fill="floralwhite"/><rect x="10" y="10" width="500" height="300" stroke="black" stroke-width="1" fill="none"/><path stroke="black" stroke-width="1" fill="none" stroke-linecap="round" stroke-linejoin="round" d="
M 173.4 118.21 181.92 112.27 190.41 106.82 198.9 102.48 207.39 99.87 215.88 98.32 224.37 97.08 232.86 96.67 241.35 97.6 249.83 98.26 258.32 97.54 266.81 97.41 275.3 97.62 283.79 97.47 292.28 97.96 300.77 98.87 317.74 102.5 326.23 104.64 334.72 108.83 343.21 113.38 351.7 118.2 360.19 123.51 368.68 129.28 386.46 142 
M 386.46 176.99 377.17 182.27 360.19 191.41 351.7 197.15 343.21 203.14 326.23 213.08 317.74 218.27 309.26 222.83 300.77 227.12 292.28 231.15 283.79 234.95 275.3 237.92 266.81 239.93 258.32 239.78 249.83 237.14 232.86 232.58 224.37 228.07 215.88 222.11 207.39 217.55 198.9 213.47 181.97 204.4 
M 183.24 164.13 183.29 160.54 182.7 159.17 
M 177.61 124.71 178.04 123.99 179.71 119.09 179.71 116.06 179.09 114.25 
M 182.79 160.1 185.39 155.37 
M 186.78 151 187.32 149.26 187.32 145.52 185.43 139.48 182.49 134.14 180.2 132.06 
M 182.4 142.9 183.57 142.47 
M 183.07 147.74 183.65 147.76 
M 183.08 151.54 184.08 151.76 
M 185.38 191.22 186.92 190.03 190.06 185.12 192.09 179.57 192.09 176.64 
M 185.39 164.5 184.46 163.77 
M 180.47 117.47 183.46 116.18 187.29 112.86 189.76 109.11 189.76 107.24 
M 184.53 110.6 184.95 110.63 
M 186.64 143.65 190.07 138.91 192.3 133.48 192.3 130.12 190.07 124.69 186.6 119.9 183.9 118.03 
M 181.04 129.28 188.62 127.44 
M 181.5 131.49 188.07 131.65 
M 182.51 134.82 188.25 135.9 
M 193.14 150.8 192.16 149.33 189.5 147.33 
M 197.27 196.19 199.18 191.59 199.18 188.24 196.93 182.82 193.44 178.03 191.37 176.62 
M 190.37 125.61 193.22 122.06 195.35 117.38 195.35 114.49 193.22 109.81 190.7 106.67 
M 186.16 113.48 191.55 112.41 
M 184.53 116.2 191.16 116.23 
M 184.58 118.07 191.56 119.59 
M 200.54 150.57 201.22 148.2 201.22 144.43 199.47 138.33 196.75 132.95 194.63 130.85 
M 192.39 143.19 198.14 141.91 
M 192.22 146.2 197.78 146.54 
M 192.57 149.52 196.58 150.69 
M 198.74 190.58 200.72 188.68 203.26 183.83 204.89 178.32 204.89 174.92 204.13 172.35 
M 197.04 176.94 201.8 176.59 
M 196.5 179.6 202.27 180.88 
M 203.83 198.6 202.37 194.68 199.24 189.88 198.38 189.23 
M 197.73 118.64 201.04 117.43 205.28 114.35 208.02 110.85 208.02 108.69 205.28 105.2 201.04 102.11 200.61 101.96 
M 194.28 107.69 203.19 107.12 
M 194.48 109.76 202.77 109.87 
M 194.6 111.19 203.41 112.72 
M 200.59 142.53 201.66 141.9 205.27 137.61 207.6 132.75 207.6 129.74 205.27 124.88 201.66 120.59 198.83 118.91 
M 195.72 129.02 203.47 127.92 
M 196.28 131.53 203.15 131.02 
M 196.84 133.77 203.09 135.04 
M 206.39 150.39 203.88 146.22 201.55 144.29 
M 206.85 199.7 209.75 195.17 211.89 189.32 211.89 185.71 209.75 179.86 206.44 174.7 204.31 173.04 
M 208.36 111.03 211.2 110.06 214.82 107.55 217.16 104.72 217.16 102.97 214.82 100.13 212.97 98.85 
M 205.28 102.78 212.77 101.47 
M 205.65 103.96 213.17 103.78 
M 205.31 104.94 212.8 106.26 
M 206.77 129.12 209.03 128.03 212.59 124.59 214.88 120.69 214.88 118.28 212.59 114.38 209.03 110.94 207.51 110.2 
M 211.08 150.24 211.52 149.49 213.11 144.72 213.11 141.76 211.52 136.99 209.05 132.77 207.12 131.12 
M 205.1 140.92 209.9 139.78 
M 204.9 143.3 210.6 143.09 
M 205.3 145.96 209.91 146.89 
M 208.55 178.55 209.67 175.83 211.1 169.49 
M 206.06 172 208.33 172.67 
M 221.48 206.76 221.81 205.72 221.81 201.77 219.78 195.39 216.62 189.75 214.16 187.55 
M 216.4 103.95 219.67 103.21 223.85 101.31 226.55 99.17 226.55 97.84 225.52 97.02 
M 215.67 98.36 222.06 98.62 
M 214.14 99.94 221.56 99.95 
M 215.58 120.29 218.81 119.19 222.94 116.38 225.6 113.2 225.6 111.23 222.94 108.05 218.81 105.24 216.33 104.39 
M 212.3 110.43 220.97 109.97 
M 212.39 112.22 220.78 112.46 
M 212.47 113.7 221.17 114.41 
M 213.58 140.68 216.41 139.29 220.03 135.75 222.37 131.73 222.37 129.25 220.03 125.23 216.41 121.69 214.06 120.54 
M 211.08 128.34 218.41 127.28 
M 210.76 130.44 218.03 130.47 
M 210.81 132.24 217.96 133.25 
M 218.28 150.01 216.6 145.46 213.54 140.74 212.54 139.97 
M 219.47 195.44 221.31 192.17 223.44 185.56 223.44 181.46 221.31 174.84 218.01 169 215.44 166.72 
M 229.76 210.81 229.33 209.73 225.63 204.39 222.74 202.3 
M 225.59 97.83 228.2 97.36 229.69 96.82 
M 225 111.67 227.54 110.77 230.78 108.46 232.88 105.85 232.88 104.23 230.78 101.62 227.54 99.32 225.59 98.62 
M 222.66 103.69 229.3 102.82 
M 222.79 105.35 228.78 104.66 
M 222.26 106.05 229.21 107.22 
M 222.72 129.09 225.32 127.92 228.66 124.93 230.82 121.54 230.82 119.44 228.66 116.05 225.32 113.05 224.65 112.75 
M 219.81 118.72 226.78 117.69 
M 220.31 120.19 226.59 120.69 
M 220.47 121.93 227.29 123.35 
M 218.23 148.89 220.35 147.51 223.06 143.98 224.81 139.98 224.81 137.51 223.06 133.51 221.53 131.53 
M 219.45 135.94 221.67 135.36 
M 216.66 138.62 221.64 138.37 
M 216.24 140.83 222.01 141.64 
M 218 169.68 218.52 168.6 220.27 162.25 
M 233.29 212.29 235.17 204.7 235.17 200.09 233.35 192.63 230.53 186.05 228.32 183.48 
M 226.03 198.65 231.89 196.64 
M 226.2 202.11 231.72 202.66 
M 226.56 206.36 231.54 208.07 
M 233.43 105.19 236.5 104.5 240.43 102.73 242.96 100.72 242.96 99.48 240.46 97.5 
M 230.65 99.06 238.59 98.2 
M 230.76 99.73 238.77 100.1 
M 230.15 101.3 238.52 101.47 
M 232.1 120.88 235.2 119.85 239.18 117.2 241.75 114.2 241.75 112.35 239.18 109.35 235.2 106.71 232.13 105.68 
M 228.55 139.34 231.62 138.06 235.57 134.8 238.11 131.11 238.11 128.82 235.57 125.12 231.62 121.86 230.05 121.21 
M 223.95 162.99 226.95 161.18 230.79 156.56 231.22 155.64 
M 231.37 155.33 233.26 151.33 233.26 150.96 
M 233.26 149.55 233.26 148.09 230.79 142.86 226.95 138.24 226.16 137.77 
M 220.79 147.2 228.79 145.99 
M 221.26 149.42 229.12 149.58 
M 233.37 193.36 235.26 190.24 237.63 183.36 237.63 179.1 235.26 172.21 231.57 166.13 228.7 163.76 
M 246.06 215.36 243.83 208.86 240.38 203.31 237.68 201.14 
M 242.38 99.11 244.87 98.65 246.6 98.01 
M 240.93 112.13 243.34 111.23 246.42 108.93 248.41 106.31 248.41 104.7 246.42 102.08 243.34 99.78 242.05 99.29 
M 238.41 103.95 244.44 103.43 
M 238.48 105.19 244.57 105.29 
M 238.81 106.9 244.44 107.43 
M 239.73 130.62 242.54 129.46 246.13 126.48 248.45 123.11 248.45 121.02 246.13 117.65 242.54 114.68 240.83 113.97 
M 237.29 120.38 244.12 119.44 
M 237 122.19 244.09 122.14 
M 237.05 123.63 244.51 124.49 
M 233.51 148.75 236.24 147.36 239.73 143.81 241.99 139.79 241.99 137.3 239.73 133.28 237.2 130.7 
M 235.25 172.85 237.28 169.86 239.72 163.51 239.72 159.59 237.28 153.24 235.04 149.94 
M 234.74 149.5 233.72 147.99 
M 229.11 158.07 234.93 156.63 
M 227.53 161.18 235 161.52 
M 227.7 164.52 229.18 164.88 
M 230.55 165.21 235.36 166.37 
M 245.33 215.18 247.5 210.36 249.34 203.19 249.34 198.75 247.5 191.58 244.65 185.24 242.42 182.77 
M 240.23 197.05 245.91 195.73 
M 240.48 201.19 246.01 201 
M 240.72 204.53 246.07 206.75 
M 249.18 105.64 252.11 104.93 255.86 103.1 258.27 101.02 258.27 99.74 255.94 97.74 
M 246.75 99.65 253.88 99.2 
M 246 100.59 253.87 100.19 
M 246.11 101.76 254.01 102.16 
M 248.78 122.63 251.9 121.53 255.9 118.7 258.47 115.51 258.47 113.53 255.9 110.33 251.9 107.51 248.78 106.41 
M 245.6 113.11 253.94 111.95 
M 245.85 114.19 253.83 114.35 
M 245.96 116.16 253.71 116.95 
M 246.16 141.89 249.55 140.57 253.88 137.18 256.68 133.35 256.68 130.97 253.88 127.13 249.55 123.75 247.62 122.99 
M 243 130.52 251.94 129.11 
M 242.85 132.49 251.21 132.34 
M 242.6 134.06 251.32 135.1 
M 241.98 165.17 245.47 163.43 249.94 158.96 252.82 153.9 252.82 150.77 249.94 145.71 245.47 141.25 243.44 140.23 
M 238.31 149.44 247.5 148.32 
M 238.87 152.34 247.99 152.49 
M 238.26 155.17 247.9 156.46 
M 248.68 195.7 252.34 190.59 254.92 184.25 254.92 180.32 252.34 173.98 248.33 168.39 245.21 166.2 
M 258.82 218.45 259.29 217.14 259.29 213.55 257.21 207.75 253.98 202.62 251.46 200.62 
M 257.43 98.65 259.89 98.19 261.78 97.48 
M 257.55 111.99 258.37 111.64 261.43 108.99 263.4 105.99 263.4 104.13 261.43 101.14 258.41 98.52 
M 254.31 103.65 259.6 102.74 
M 253.75 104.72 259.89 105.1 
M 254.08 106.62 260.18 107.04 
M 258.48 135.07 261.28 133.77 264.86 130.41 267.17 126.61 267.17 124.26 264.86 120.46 261.28 117.11 258.48 115.8 
M 255.59 123.49 262.65 122.4 
M 255.63 125.55 262.83 125.19 
M 255.78 127 263.03 128.36 
M 252.92 153.13 255.87 151.7 259.65 148.03 262.08 143.87 262.08 141.3 259.65 137.14 255.68 133.38 
M 250.15 140.67 258.07 139.14 
M 250.48 142.55 257.4 142.25 
M 250.07 144.6 257.49 145.53 
M 254 179.14 257.79 174.15 260.26 168.44 260.26 164.9 257.79 159.19 253.96 154.14 251.79 152.71 
M 248.27 163.67 255.52 162.61 
M 247.75 166.42 255.64 166.96 
M 248.52 169.32 256.08 171.04 
M 258.55 213.97 259.16 213.39 262.04 207.98 263.9 201.85 263.9 198.06 262.04 191.92 259.16 186.51 256.91 184.4 
M 261.15 218.48 260.91 218.05 259.09 216.44 
M 264.79 106 267.8 105.26 271.66 103.35 274.15 101.18 274.15 99.84 271.34 97.52 
M 261.86 99.09 269.24 99.04 
M 261.99 100.25 269.54 100.4 
M 261.94 101.72 269.55 102.24 
M 266.35 124.1 268.53 123.27 272.58 120.21 275.18 116.74 275.18 114.59 272.58 111.12 268.53 108.06 265.38 106.86 
M 262.53 113.58 270.44 112.78 
M 262.48 115.67 270.37 115.68 
M 262.25 117.45 270.32 118.43 
M 264.42 145.25 267.7 143.86 271.91 140.3 274.62 136.26 274.62 133.77 271.91 129.73 267.7 126.17 266.35 125.59 
M 261.37 133.28 270.03 132.29 
M 261.25 135.27 269.56 135.37 
M 261.31 137.37 269.57 138.39 
M 260.76 168.01 264.15 166.34 268.48 162.07 271.28 157.23 271.28 154.23 268.48 149.39 264.15 145.12 261.21 143.67 
M 257.58 153.17 265.85 151.87 
M 257.86 155.91 266.01 155.54 
M 257.29 158.5 266.07 159.25 
M 263.23 196.8 264.86 195.76 268.69 190.82 271.16 185.23 271.16 181.77 268.69 176.18 264.86 171.24 261.86 169.31 
M 269.16 218.09 270.93 213.52 270.93 210.42 268.99 205.4 265.99 200.98 263.65 199.25 
M 274.09 99.65 276.52 99.22 279.63 98.11 280.57 97.53 
M 273.67 112.26 274.42 111.98 277.94 109.27 280.22 106.21 280.22 104.32 277.94 101.26 275.55 99.42 
M 270.63 103.65 276.09 102.74 
M 269.2 105.37 275.89 105.54 
M 268.84 106.45 276.05 107.57 
M 275.38 137.08 277.97 135.7 281.27 132.15 283.41 128.14 283.41 125.65 281.27 121.64 277.97 118.09 275.38 116.71 
M 273.08 125.23 279.81 123.79 
M 273.26 126.51 279.37 126.68 
M 272.84 128.58 279.22 129.93 
M 270.89 155.73 273.51 154.29 276.86 150.61 279.02 146.44 279.02 143.85 276.86 139.68 273.65 136.16 
M 268.77 142.55 275.02 141.8 
M 268.53 145.49 275.29 145.39 
M 268.52 147.58 275.49 147.96 
M 270.28 180.68 271 180.2 274.49 175.5 276.74 170.18 276.74 166.89 274.49 161.57 271 156.87 270.28 156.38 
M 265.74 165.75 272.31 164.17 
M 265.27 168.84 273.03 168.75 
M 265.65 171.49 272.99 172.64 
M 271.3 212.03 273.32 210.24 275.89 205.65 277.56 200.45 277.56 197.23 275.89 192.03 273.32 187.44 271.3 185.64 
M 271.96 217.54 271.24 215.49 270.23 213.87 
M 269.11 217.89 270.08 217.75 
M 281.36 107.53 284.53 106.73 288.58 104.68 291.2 102.35 291.2 100.92 288.58 98.59 286.69 97.64 
M 278.54 100.5 286.83 100.04 
M 278 101.54 286.5 101.97 
M 279.4 103.05 286.59 103.22 
M 282.64 126.02 285.6 124.9 289.66 121.83 292.27 118.36 292.27 116.21 289.66 112.74 285.6 109.68 282.44 108.48 
M 279.78 115.93 287.72 114.51 
M 279.19 117.05 287.49 117.4 
M 279.57 119.05 287.77 119.84 
M 281.09 146.46 284.07 145.07 287.89 141.52 290.35 137.49 290.35 134.99 287.89 130.97 284.07 127.41 282.64 126.74 
M 279.42 133.74 286.12 132.88 
M 278.61 135.96 285.65 136.12 
M 278.37 137.89 285.98 139.62 
M 277.86 169.18 280.94 167.58 284.88 163.48 287.42 158.84 287.42 155.96 284.88 151.32 280.94 147.22 278.25 145.82 
M 275.24 155.05 282.49 153.98 
M 275.19 157.38 282.87 157.61 
M 274.67 160.04 283.11 160.7 
M 276.96 195.11 279.43 193.59 282.96 189.25 285.23 184.33 285.23 181.29 282.96 176.38 279.43 172.04 276.68 170.34 
M 275.27 216.88 276.2 216.25 279.04 212.39 280.87 208.03 280.87 205.33 279.04 200.96 276.96 198.14 
M 290.26 99.66 291.17 99.44 293.85 98.13 
M 291.34 117.27 293.89 116.29 297.54 113.47 299.89 110.27 299.89 108.3 297.54 105.1 293.89 102.29 291.05 101.18 
M 288.6 107.74 295.68 106.98 
M 288.56 109.59 295.69 109.24 
M 287.9 110.72 296.01 112.1 
M 291.65 136.88 294.02 135.63 297.06 132.44 299.02 128.82 299.02 126.58 297.06 122.97 294.02 119.77 291.65 118.53 
M 289.07 125.91 295.38 125.29 
M 289.3 127.95 295.27 127.66 
M 289.44 129.42 295.08 130.5 
M 286.51 156.12 288.8 154.67 291.83 150.86 293.78 146.55 293.78 143.88 291.83 139.57 289.47 136.6 
M 286.32 142.58 289.86 142.33 
M 284.22 145.13 290.2 145.4 
M 284.45 147.62 290.07 148.59 
M 285.86 182.81 288.4 181.16 291.66 176.95 293.76 172.18 293.76 169.22 291.66 164.45 288.4 160.24 286.51 159.02 
M 281.27 204.25 283.17 202.74 285.6 198.89 287.17 194.52 287.17 191.82 285.6 187.45 284.42 185.58 
M 281.51 215.01 281.51 212.71 280.22 209.28 
M 299.05 109.19 301.64 108.52 305.69 106.43 308.29 104.06 308.29 102.59 305.69 100.22 304.63 99.68 
M 295.25 102.01 303.42 101.14 
M 295.44 103.31 303.19 103.61 
M 296.63 104.71 303.32 105.19 
M 299.09 126.78 302.1 125.65 305.95 122.77 308.43 119.51 308.43 117.49 305.95 114.23 302.1 111.34 299.09 110.22 
M 296.41 116.88 303.67 116.3 
M 296.45 118.76 303.99 118.4 
M 295.96 119.77 304.2 121.29 
M 296.31 145.94 299.16 144.58 302.82 141.11 305.18 137.18 305.18 134.75 302.82 130.82 299.16 127.35 298.31 126.95 
M 295.7 133.51 300.95 133.24 
M 293.86 135.83 300.56 136.01 
M 293.77 137.79 300.67 139.34 
M 293.62 169.15 296.54 167.59 300.28 163.6 302.7 159.08 302.7 156.28 300.28 151.76 296.54 147.77 293.62 146.21 
M 290.77 155.63 297.96 154.08 
M 290.58 157.49 297.93 157.95 
M 290.75 159.66 298.11 161.48 
M 290.48 192.36 293.19 190.83 296.66 186.91 298.89 182.47 298.89 179.72 296.66 175.27 293.01 171.25 
M 284.28 211.65 286.69 210.25 289.78 206.66 291.78 202.6 291.78 200.09 289.78 196.03 286.61 192.39 
M 283.83 214.31 281.5 211.76 280.99 211.49 
M 307.36 101.89 309.08 101.52 310.49 100.91 
M 307.83 117.81 310.31 116.83 313.49 114.33 315.54 111.5 315.54 109.75 313.49 106.92 310.31 104.42 307.83 103.45 
M 305.84 135.04 308.16 133.86 311.14 130.85 313.06 127.44 313.06 125.32 311.14 121.91 308.16 118.9 307.54 118.58 
M 303.69 125.01 309.65 123.59 
M 303.76 126.25 309.52 126.15 
M 303.6 127.75 309.56 128.74 
M 301.83 155.35 303.76 154.17 306.91 150.3 308.95 145.93 308.95 143.22 306.91 138.84 304.33 135.68 
M 300.88 181.95 303.25 180.35 306.29 176.28 308.25 171.66 308.25 168.8 306.29 164.18 303.25 160.1 301.83 159.15 
M 298.56 168.13 304.37 166.84 
M 298.76 170.5 304.5 170.1 
M 298.28 172.29 304.9 173.78 
M 293.92 200.45 296.13 199.06 298.96 195.52 300.78 191.5 300.78 189.02 298.96 185.01 298.09 183.92 
M 295.9 187.34 297.62 186.82 
M 293.37 190.15 297.12 190.33 
M 291.41 192.22 297.27 193.02 
M 291.71 211.38 292.65 209.29 292.65 206.8 291.06 203.27 
M 288.51 207.74 289.5 207.73 
M 285.99 210.62 288.99 211.25 
M 315.02 109.95 318.08 109.2 321.98 107.27 324.5 105.09 324.5 104.21 
M 312.29 103.27 319.33 102.9 
M 312.19 104.51 319.54 104.81 
M 312.03 105.18 320.32 106.36 
M 314.53 126.4 317.43 125.32 321.15 122.55 323.55 119.42 323.55 117.48 321.15 114.35 317.43 111.59 314.81 110.61 
M 311.58 116.66 319.17 116 
M 311.66 118.17 319.05 118.6 
M 312.01 120.38 319.38 120.46 
M 311.68 145.81 314.69 144.46 318.54 141 321.02 137.08 321.02 134.65 318.54 130.73 314.69 127.26 312.37 126.22 
M 308.42 133.56 316.78 133.1 
M 308.38 135.75 316.66 136.13 
M 308.5 137.99 316.38 138.64 
M 309.17 169.07 312.24 167.53 316.16 163.6 318.69 159.14 318.69 156.38 316.16 151.92 312.24 147.99 309.17 146.45 
M 306.08 155.85 314.48 154.22 
M 306.61 157.66 314.39 157.6 
M 306.08 159.81 314.14 161.32 
M 305.15 191.16 308.06 189.68 311.79 185.88 314.19 181.58 314.19 178.92 311.79 174.62 308.06 170.83 307.55 170.57 
M 301.67 207.52 304.58 204.75 306.98 200.71 306.98 198.22 304.58 194.18 300.84 190.62 300.13 190.28 
M 297.32 197.16 302.78 196.04 
M 295.6 199.28 302.34 199.17 
M 295.25 201.51 302.94 202.53 
M 295.29 210 293.2 209.05 
M 322.94 117.17 325.34 116.23 328.42 113.82 330.4 111.09 330.4 109.4 328.42 106.67 325.64 104.49 
M 320.72 108.62 326.64 108.24 
M 320.68 109.96 326.54 110.07 
M 320.56 111.49 326.64 112.16 
M 321.49 135.57 323.97 134.34 327.15 131.21 329.2 127.65 329.2 125.45 327.15 121.9 323.97 118.76 322.7 118.13 
M 319.47 124.86 325.19 124.02 
M 318.79 126.78 325.51 126.16 
M 318.87 128.42 325.75 129.27 
M 318.1 156.97 320.85 155.47 324.37 151.63 326.63 147.29 326.63 144.6 324.37 140.25 320.85 136.42 320.13 136.02 
M 315.2 143.85 322.43 142.91 
M 315.08 145.62 322.31 146.19 
M 315.14 147.75 322.58 149.05 
M 316.42 181.68 319.04 180.14 322.4 176.17 324.57 171.68 324.57 168.91 322.4 164.42 319.04 160.45 317.78 159.71 
M 309.37 200.58 311.87 199.17 315.06 195.57 317.12 191.49 317.12 188.96 315.06 184.88 313.33 182.93 
M 309.26 204.5 309.01 204.06 306.12 201.23 
M 331.14 110.3 334.2 109.59 335.24 109.11 
M 327.97 106.4 329.9 106.45 
M 330.24 126.75 333.24 125.66 337.08 122.85 339.55 119.67 339.55 117.71 337.08 114.53 333.24 111.72 330.24 110.63 
M 328.44 147.43 331.6 146.04 335.64 142.47 338.25 138.43 338.25 135.92 335.64 131.88 331.6 128.31 328.47 126.93 
M 325.5 135.4 333.5 133.74 
M 325.07 136.79 333.21 137.51 
M 325.36 139.32 333.67 140.41 
M 326.34 170.73 329.67 169.2 333.94 165.29 336.69 160.86 336.69 158.12 333.94 153.69 329.67 149.78 326.34 148.25 
M 322.76 157.61 331.3 156.12 
M 323.44 159.53 331.31 159.54 
M 322.74 161.93 331.92 162.5 
M 321.57 192.09 324.85 190.62 329.06 186.83 331.78 182.55 331.78 179.89 329.06 175.61 324.85 171.82 323.79 171.35 
M 323.95 197.91 322.46 195.67 318.23 192.06 316.39 191.27 
M 338.72 117.29 341.3 116.37 344.49 114.1 
M 337.8 136.99 340.33 135.68 343.57 132.35 345.66 128.57 345.66 126.24 343.57 122.46 340.33 119.12 338.66 118.27 
M 335.4 125.79 342.05 124.77 
M 335.71 127.21 341.87 127.4 
M 335.38 129.02 342.16 130.44 
M 336.36 160.21 339.13 158.66 342.67 154.69 344.96 150.19 344.96 147.41 342.67 142.91 339.13 138.94 337.32 137.93 
M 333.42 146.63 341.05 145.12 
M 333.79 148.5 340.49 148.74 
M 333.46 150.93 341.03 152.29 
M 334.45 184.05 337.43 182.54 341.24 178.66 343.69 174.28 343.69 171.56 341.24 167.17 337.43 163.3 335.7 162.42 
M 331.78 170.76 339.45 169.28 
M 331.77 173.15 339.26 172.8 
M 331.61 175.24 339.08 176.36 
M 334.56 193.36 334.91 192.73 334.91 190.14 332.55 185.95 330.8 184.2 
M 346.65 127.81 349.63 126.7 353.44 123.86 355.8 120.76 
M 344 117.79 350.13 117.31 
M 343.44 119.27 351.62 119.31 
M 343.47 121.09 351.17 122.45 
M 345.41 149.4 348.48 147.95 352.4 144.23 354.93 140.01 354.93 137.41 352.4 133.19 348.48 129.47 345.41 128.02 
M 342.23 136.52 350.59 135.22 
M 342.38 138.37 350.28 138.31 
M 342.6 141.07 350.51 141.72 
M 344.58 173.98 347.94 172.4 352.24 168.35 355.01 163.76 355.01 160.91 352.24 156.33 347.94 152.27 344.58 150.69 
M 341.27 159.93 349.78 158.95 
M 341.5 162.54 349.63 162.38 
M 341.42 164.37 349.95 165.94 
M 351.09 185.62 351.09 182.99 348.16 178.69 343.61 174.9 342.82 174.57 
M 354.05 137.73 356.44 136.44 359.48 133.12 361.45 129.37 361.45 127.04 359.48 123.29 359.01 122.77 
M 354.02 162.29 355.96 161.01 359.21 156.75 361.3 151.92 361.3 148.93 359.21 144.11 355.96 139.84 354.02 138.57 
M 351.07 148.38 357.64 147.12 
M 350.65 150.53 357.45 150.62 
M 351.06 153.23 357.12 154.47 
M 362.17 180.5 363.14 178.63 363.14 175.76 360.73 171.11 357 167.01 354.09 165.41 
M 362.03 127.77 364.82 126.66 
M 361.2 150.23 364.09 148.71 367.8 144.81 370.19 140.39 370.19 137.66 367.8 133.24 364.09 129.34 361.2 127.82 
M 362.28 176.53 365.13 175.01 369.2 170.69 371.82 165.8 371.82 162.77 369.2 157.88 365.13 153.57 361.96 151.88 
M 358.56 162.08 367.21 160.95 
M 358.7 164.52 367.05 164.1 
M 359.01 166.76 366.98 167.7 
M 364.3 179.72 362.28 178.02 
M 369.34 136.43 370.59 135.66 373.17 132.5 
M 370.88 162.13 371.46 161.72 374.69 157.19 376.78 152.05 376.78 148.86 374.69 143.72 371.46 139.18 369.34 137.7 
M 378.29 174.81 377.33 172.59 374 168.23 371.39 166.52 
M 376.4 150.51 379.34 148.91 383.09 144.81 385.08 141.01 
M 373.22 136.69 377.72 135.76 
M 373.45 138.37 380.96 138.7 
M 373.43 141.39 381.4 141.9 
M 385.2 172.23 386.46 169.85 
M 386.46 160.75 385.39 158.59 381.48 154.06 378.42 152.3 
M 383.16 149.44 386.46 148.72 
M 383.58 152.21 386.46 152.16 
M 383.58 154.74 386.46 155.31 
M 189.71 203.41 189.71 201.78 187.89 196.59 185.25 192.31 
M 193.22 205.12 190.94 203.75 
M 202.1 209.33 204.39 203.48 204.39 200.12 203.83 198.6 
M 203.85 202.35 206.44 200.33 206.85 199.7 
M 210.1 213.02 211.6 212.74 
M 229.85 224.27 231.71 219.53 231.71 215.78 229.76 210.81 
M 230.86 217.96 233.29 212.29 
M 238.66 227.23 238.15 225.91 235.02 221.24 232.56 219.42 
M 253.97 231.4 253.97 230.57 252.23 225.32 249.52 220.68 247.41 218.87 
M 253.35 228.58 253.98 228.07 257.21 222.95 258.82 218.45 
M 254.96 231.69 254.15 230.6 253.35 230.07 
M 263.76 232.76 264.74 229.72 264.74 226.83 263.24 222.17 261.15 218.48 
M 257.36 228.01 261.94 228.28 
M 257.43 230.89 261.69 232.22 
M 264.2 224.28 265.99 222.96 269.16 218.09 
M 267.52 232.65 265.79 228.4 264.2 226.28 
M 280.57 97.53 280.57 97.53 
M 267.07 220.86 269.73 220.95 
M 273.98 217.75 275.27 216.88 
M 273.87 231.22 275.72 227.24 275.72 224.83 273.93 220.93 272.16 218.71 
M 276.07 223.65 277.82 222.33 280.06 218.93 281.51 215.01 
M 281.78 228.75 284.68 225.57 286.73 221.63 286.73 219.19 284.68 215.25 283.83 214.31 
M 286 218.16 288.04 216.87 290.84 213.32 291.71 211.38 
M 290.22 225.36 289.63 224.17 286.62 220.72 286 220.37 
M 319.33 102.9 319.33 102.9 
M 302.52 219.88 302.52 217.85 300.04 213.9 296.2 210.41 295.29 210 
M 302.57 219.51 305.39 218.12 309.01 214.58 311.34 210.56 311.34 208.08 309.26 204.5 
M 329.9 106.45 329.9 106.45 
M 314.93 211.42 318.23 210.01 322.46 206.4 325.18 202.3 325.18 199.77 323.95 197.91 
M 344.49 114.1 344.49 114.1 
M 350.13 117.31 350.13 117.31 
M 341.84 199.39 341.05 198.28 336.51 194.67 334.06 193.69 
M 359.01 122.77 359.01 122.77 
M 354.09 188.98 357 187.38 360.73 183.27 362.17 180.5 
M 353.65 192 352.72 190.54 349.95 188.08 
M 373.17 132.5 373.17 132.5 
M 378.71 178.14 381.48 176.54 385.2 172.23 
M 207.39 99.87 207.39 99.87 
M 211.21 99.18 214.96 82.6 217.06 81.51 218.38 79.64 219.37 74.25 219.71 71.32 220.76 69 222.37 67.25 224.77 66.24 226.85 64.91 228.41 63.06 230.21 61.45 232.33 60.16 234.11 58.53 236.59 57.61 238.3 55.92 241.44 52.34 243.66 51.24 245.72 49.98 248.08 50.06 250.75 50.56 253.29 50.64 257.62 48.5 259.64 47.29 262.91 44.3 265.48 43.51 266.87 38.95 266.56 36.48 268.14 32.16 269.35 30 275.87 30.53 281.59 31.19 284.24 31.79 286.39 32.8 288.56 33.22 290.69 33.03 293.3 33.54 295.23 34.51 298.18 34.75 307.27 32.84 311.44 34.25 314.02 35.55 316.08 36.36 318.1 37.37 322.97 40.62 327.11 41.97 329.84 43.28 331.38 45.29 333.62 49.1 338.85 60.29 339.13 62.48 338.93 64.51 339.13 66.93 339.02 69.04 338.75 71.25 338.02 73.17 337.58 78.01 337.55 80.55 338.95 87.08 339.14 91.05 331.34 107.16 
M 326.23 104.65 326.23 104.64 
M 211.35 99.15 213.22 97.52 213.97 95.66 214.38 93.11 214.25 90.9 214.38 88.49 215.58 84.79 
M 215.3 98.43 216.54 97.28 217.01 95.33 217.23 93.58 216.74 91.83 218.15 87.32 217.9 84.65 218.02 81.96 218.63 79.43 
M 219.28 97.82 220.32 96.62 220.45 94.75 221.08 91.14 221.06 89.08 222.25 80.3 223.09 78.91 223.06 76.04 
M 223.26 97.24 224.4 96.11 225.17 86.97 227.09 83.05 227.54 80.69 227.32 78.33 228.1 75.17 228.15 72.88 227.55 70.07 227.59 68.52 227.16 67.46 229.16 64.44 230.98 62.7 
M 227.27 96.94 228.42 95.63 229.11 93.47 229.34 88.61 230.57 86.96 231.3 85.09 231.81 82.56 231.91 80.1 232.64 77.76 232.93 74.9 233.66 72.74 233.95 69.82 
M 231.28 96.75 232.58 95.43 233.97 91.04 236.15 86.74 236.56 84.93 236.58 82.49 237.46 80.34 238.83 78.05 238.9 75.2 239.55 73.18 
M 235.3 96.94 236.67 95.55 237.56 93.47 238.83 91.34 241.34 85.04 242.41 83.31 243.12 81.32 243.36 78.27 243.78 76.18 245.17 73.98 245.4 72.2 246.63 70.39 248.23 68.79 249.19 66.13 249.71 64.16 251.34 59.91 251.02 57.26 251.08 55.67 
M 239.3 97.37 240.5 95.94 242.43 91.67 243.04 89.58 245.26 85.42 246.85 83.27 248.98 79.36 249.7 77.22 249.97 74.08 250.55 71.99 251.88 70.02 
M 243.3 97.75 244.59 96.01 247.5 90.25 248.39 87.86 249.51 85.62 250.53 84.04 251.37 82.13 252.52 79.11 253 75.88 252.93 74.04 254.26 72.07 255.71 70.62 
M 247.31 98.06 248.85 96.35 251.51 90.39 252.29 88.29 252.81 86.1 254.93 81.83 254.99 79.19 256.66 75.39 257.33 72.96 258.52 71.6 260.57 68.06 260.87 64.62 261.3 61.81 261.31 59.95 262.33 54.02 264.44 51.63 265.51 49.46 265.59 46.56 266.32 45.34 267.59 44.46 
M 251.33 98.13 252.66 96.18 253.42 94.17 253.88 92.05 254.9 90.3 255.51 85.31 256.43 80.33 257.36 77.3 258.49 75.46 261.03 69.34 261.82 67.04 262.43 63.36 261.89 58.95 261.98 55.78 263.13 53.25 264.89 50.9 265.33 45.89 266.17 45.21 267.16 43.29 
M 255.34 97.79 256.3 96.15 256.93 94.07 258.55 86.99 258.67 84.41 259.31 79.45 261.07 77.05 261.37 75.16 261.96 73.27 263.31 70.86 263.9 68.36 264.01 65.86 
M 259.35 97.52 260.44 95.75 261.76 91.44 262.08 89.32 263.21 85.23 263.34 82.93 265.15 78.98 265.84 76.72 266.8 72.56 268.57 68.75 269.28 66.13 269.63 62.8 271.06 59.25 271.57 56.13 271.11 54.44 270.32 52.42 270.53 50.8 
M 263.37 97.46 264.91 95.58 266.05 91.57 267.89 86.11 267.98 84.01 268.57 81.85 269.83 79.56 270.41 77.24 272.92 70.93 274.5 68.18 275.4 66.07 275.84 63.14 
M 267.39 97.42 268.87 95.36 270.49 91.9 271.62 90.03 272.44 85.13 272.56 82.76 273.33 80.31 277.02 74.18 277.93 71.66 278.29 70.01 279.81 68.37 280.58 66.09 280.36 60.63 282.85 53.46 
M 271.41 97.52 273.92 94.14 275.19 92.12 276.14 90.01 277.28 82.5 282.56 72.04 283.61 70.42 284.17 68.27 284.48 66.24 284.49 64.23 285.06 60.83 286.14 56.23 288 52.34 290.22 46.1 290.26 43.91 289.99 42.13 
M 275.43 97.62 276.7 96.02 279.01 92.19 279.79 90.14 280.2 88.15 280.44 85.53 282.2 83.55 283.05 81.49 283.48 79.3 284.31 76.97 285.26 74.98 285.49 73.14 286.39 70.78 286.86 68.53 
M 279.45 97.55 280.92 95.59 281.82 93.59 282.46 91.61 283.53 87.15 284.99 85.34 285.88 83.38 286.95 80.93 287.49 78.34 288.37 76.5 289.53 72.42 289.86 69.21 289.29 66.94 289.84 64.83 
M 283.47 97.47 285.03 95.53 286.01 93.57 286.84 91.64 287.33 89.43 293.5 76.13 294.22 73.8 294.69 71.08 294.47 69.17 294.9 66.28 295.66 63.72 295.62 62.48 296.52 60.93 297.38 58.56 301.92 51.49 302.52 48.6 301.96 46.72 301.92 44.14 
M 287.49 97.68 289.08 96.23 292.98 89.52 293.85 87.37 294.08 85.1 295.29 83.02 296.09 81.23 297.57 75.57 298.53 74.2 301.31 66.62 303.21 64.18 
M 291.5 97.92 292.95 96.51 295.71 92.44 296.89 89.97 298.56 85.43 299.99 80.76 300.22 78.53 301.44 76.45 303.3 74.99 304.49 72.78 305.47 69.02 306.7 67.75 307.3 65.7 
M 295.5 98.31 297.34 96.99 300.08 92.99 300.83 90.57 301.75 88.25 303.07 86.09 304.34 81.51 305.53 79.45 306.5 78.34 307.54 76.02 308.24 73.63 309.72 71.88 310.76 70.16 311.02 68.26 311.72 66.34 313.21 64.29 314.71 61.04 
M 299.5 98.73 301.34 97.62 305.46 91.85 306.27 89.69 307.27 87.64 308.02 85.17 309.36 82.78 310.27 80.41 311.8 78.78 313.17 76.88 314.77 75.31 315.57 73.08 315.27 70.73 315.97 69.16 318.38 65.02 320.03 62.68 321.86 58.39 
M 303.46 99.43 305.57 98.07 308.6 94.23 309.63 92.26 313.41 87.41 314.61 85.22 315.36 83.26 316.37 81.41 317.79 79.42 318.89 76.19 320.18 74.75 323.51 69.36 324.67 67.33 325.38 65.4 328.66 59.4 
M 307.4 100.25 309.8 99 312.63 95.43 314.39 93.69 316.92 90 319.37 86.98 320.11 84.48 321.32 82.13 323.69 78.19 326.05 75.11 327.4 72.81 330.02 64.37 331.63 62.3 333.73 60.34 334.86 58.2 
M 311.33 101.09 313.69 99.64 316.84 95.73 319.56 92.77 321.13 89.13 322.59 86.95 324.57 84.58 326.34 83.07 327.53 81.42 328.13 79.46 329.72 77.01 330.98 74.56 332.84 69.27 
M 315.26 101.95 317.76 100.51 322.2 95.25 323.21 93.32 323.58 90.88 324.87 88.64 327.62 86.09 
M 319.17 102.86 321.63 101.63 325.17 98.4 329.41 91.37 330.79 89.66 332.65 88.62 
M 323.07 103.84 325.8 103.16 327.38 101.74 329.8 98.19 331.34 96.37 331.8 94.34 334 92.51 
M 185.33 149.59 243.32 148.27 243.35 149.07 185.45 152.49 
M 185.42 152.81 236.49 154.82 236.48 155.63 185.37 155.71 
M 185.51 156.03 229.5 160.55 229.44 161.35 185.28 158.92 
M 185.59 159.26 222.42 165.45 222.31 166.25 185.19 162.13 
M 185.68 162.49 215.32 169.51 215.16 170.3 185.11 165.33 
M 185.76 165.73 208.27 172.75 208.07 173.53 185.02 168.52 
M 185.85 168.97 201.35 175.17 201.1 175.94 184.94 171.72 
M 185.93 172.21 194.64 176.8 194.34 177.54 185.14 174.98 
M 186.01 176.67 188.19 178.85 187.85 179.57 185.88 179.39 
M 237.56 149.41 235.52 149.78 233.79 150.52 232.54 151.82 231.39 154.62 
M 231.37 155.63 228.47 155.99 226.97 156.83 225.89 158.27 225.1 160.1 
M 225.02 161.11 222.22 161.15 220.72 161.81 219.61 163.11 218.74 164.83 
M 218.6 165.83 215.92 165.57 214.45 166.06 213.3 167.22 212.35 168.81 
M 212.15 169.8 209.63 169.24 208.2 169.56 207.03 170.58 206.02 172.05 
M 205.76 173.03 204.18 172.37 202.72 172.17 201.44 172.69 199.8 174.55 
M 199.49 175.51 198.07 174.67 196.72 174.31 195.47 174.68 193.77 176.34 
M 193.39 177.28 191.94 176.58 190.6 176.34 189.44 176.83 187.97 178.63 
M 236.52 149.57 234.6 150.08 233.79 150.52 232.54 151.82 231.72 153.62 
M 230.35 155.68 228.47 155.99 226.97 156.83 226.38 157.48 225.48 159.16 
M 224.04 161.05 222.22 161.15 220.72 161.81 220.12 162.39 219.16 163.94 
M 217.67 165.67 215.92 165.57 214.45 166.06 213.84 166.56 212.81 167.98 
M 198.9 213.47 201.32 216.41 202.78 218.95 203.98 221.78 204.61 224.34 205.68 227.14 206.24 229.92 207.62 234.17 208.62 236.63 210.61 239.66 212.64 241.31 213.25 244.03 215.15 246.87 215.49 248.17 212.35 255.61 211 257.66 206.31 259.75 204.59 261.41 203.23 263.43 202.05 265.62 200.55 267.53 199.28 269.66 198.54 272.32 196.56 273.74 193.85 274.36 186.89 278.46 177.76 280 178.33 278.62 179.7 276.59 179.03 271.98 179.14 269.3 180.51 263.56 182.78 261.17 183.63 258.66 184.08 255.98 184.94 254.24 185.36 252.73 185.19 250.1 184.67 247.55 184.86 245.27 185.46 242.86 185.91 240.04 186.34 233.94 188.73 227.56 190.25 222.6 190.12 220.1 190.69 211.86 190.41 208.84 
M 197.49 212.7 199.5 215.78 200.75 218.37 204.29 231.28 204.68 233.6 205.58 236.5 207.32 239.96 
M 196.08 211.93 197.73 215.15 198.63 217.99 199.12 220.47 199.87 226.12 200.54 229.02 201.35 232.07 201.98 233.73 203.41 239.39 204.72 242.57 205.23 244.94 205.19 246.85 204.47 248.49 
M 194.66 211.16 195.8 214.61 196.3 217.33 197.04 228.55 197.44 231.2 198.2 233.33 198.77 235.96 198.67 238.71 199.45 240.79 199.86 242.92 200.27 248.21 199.58 253.06 200.49 257.92 199.74 260.25 
M 193.25 210.39 194.07 213.79 194.36 216.66 194.49 222.27 194.18 227.31 194.41 230.02 194.42 232.5 194.99 234.96 194.23 239.86 195.06 242.46 
M 191.84 209.62 192.36 212.84 192.45 218.72 192.76 221.15 192.24 226.22 192.17 229.08 191.55 231.55 190.59 233.12 190.05 235.74 189.94 239.17 190.3 242.08 190.82 244.43 190.9 248.18 191.39 250.74 190.81 253.51 189.35 255.42 189.03 257.07 188.65 263.51 
M 351.7 197.15 359.93 202.43 362.32 205.53 359.7 207.6 356.71 207.28 354.43 208.39 354.14 211.14 352.6 212.86 351.54 217.97 351.48 220.78 351.96 226.5 351.28 230.09 350.55 232.01 352.4 242.66 350.68 241.1 346.48 237.88 343.32 236 341.29 234.55 339.27 233.54 337.16 232.88 329.9 226.98 327.85 225.93 322.77 222.69 317.74 218.27 
M 348.41 199.46 352.18 203.14 
M 345.13 201.78 354.14 207.77 
M 341.77 204 346.11 207.5 349.91 208.82 352.85 210.64 
M 338.32 206.05 341.17 209.59 344.7 210.85 348.39 211.64 350.77 212.92 
M 334.86 208.11 337.64 211.17 339.58 213.56 342.28 214.97 346 216.13 
M 331.38 210.12 334.99 212.76 337.32 215.1 340.96 219.84 343 220.5 
M 327.89 212.12 331.53 214.72 336.53 219.1 339.65 222.98 341.61 224.31 
M 324.43 214.18 327.48 216.95 332.26 220.15 334.4 222.11 336.3 224.37 340 227.73 348.12 232.01 
M 321 216.27 326.1 221.18 328.87 223.01 332.71 224.9 336.85 228.21 
M 385.65 141.42 393.01 138.56 395.02 137.05 397.71 136.01 402.39 133.75 405.85 131.32 408.49 130.18 411.13 129.4 413.35 127.9 414.98 126.23 418.5 123.8 420.33 121.75 422.9 120.63 424.8 120.03 426.98 118.98 430.45 117.89 432.96 116.33 434.96 114.32 423.41 125.43 422.61 127.72 421.22 129.42 420.25 131.54 419.93 134.17 419.34 136.35 418.88 139.18 414.19 150.29 413.98 152.89 413.51 155.26 412.62 157.25 412.23 159.38 413.23 161.4 413.34 163.54 412.54 165.4 412.99 167.76 413.92 170.64 414.19 172.97 415.5 178.23 416.38 180.95 418.07 185.18 417.73 186.57 418.59 190.84 419.54 193.45 423.04 200.68 434.41 211.26 429.96 211.01 427.79 209.38 425.39 208.27 424.08 206.93 422.74 206.29 420.12 204.41 416 200.1 413.04 196.48 410.57 194.86 407.89 194.11 405.81 193.01 404.66 191.43 402.9 189.46 398.69 185.2 393.14 182.57 390.82 180.75 385.65 177.47 
M 385.65 143.23 388.79 142.56 400.61 137.57 403.25 137.27 404.93 136.46 406.8 135.24 
M 389 144.63 391.62 143.76 396.4 141.56 400.89 140.14 406.33 140.71 408.63 139.51 
M 385.65 146.83 389 146.6 391.77 145.86 394.29 144.98 396.33 143.56 398.74 143.08 401.44 143.08 404.06 143.34 406.18 142.98 
M 385.65 148.63 388.94 148.6 391.42 147.66 393.94 147.24 396.27 146.12 399.1 145.29 401.44 145.96 403.84 145.5 406.44 145.71 410.82 143.34 414 143.26 416.05 142.53 
M 393.97 149.75 396.8 149.76 399.42 148.83 401.99 148.2 
M 385.65 152.24 389.3 152.41 393.93 152.91 396.43 152.77 399.47 152.38 402.84 151.43 405.16 152.61 407.08 152.22 
M 391.67 154.83 393.8 155.33 396.41 155.49 405.46 154.25 407.87 154.44 
M 389.37 156.43 394.44 157.57 403.38 157.91 408.3 157.6 411.37 157.1 
M 392.12 158.93 394.79 159.6 400.08 160.23 403.27 159.75 405.48 158.99 
M 385.65 159.45 388.99 159.89 392.45 160.98 395.41 161.58 400.25 161.84 
M 385.65 161.25 389.01 161.88 397.27 164.36 400.08 164.87 402.28 164.51 
M 388.93 164.2 391.58 165 394.4 166.19 397.63 167.81 400.26 167.73 402.75 167.03 405.78 167.16 
M 394.06 168.86 397.54 169.85 402.49 170.16 406.35 169.88 408.78 170.45 
M 385.65 166.66 391.55 169.96 394.21 171.13 397.12 172.05 399.51 173.12 402.56 172.89 405.13 173.27 
M 385.65 168.46 388.7 170.31 394.14 172.78 396.08 174.06 402.4 176.12 
M 393.89 174.88 398.33 177.47 401.42 178.78 403.93 179.41 
M 393.17 177.29 395.12 178.62 401.36 180.94 408.96 184.43 412.25 185.29 416.74 188.64 
M 388.79 175.51 392.93 179.27 401.52 183.29 404.09 184.8 409.24 186.95 411.51 188.2 
M 385.65 175.67 388.82 177.47 390.94 179.29 393.15 180.76 398.92 183.74 401.54 185.27 405.78 188.9 417.04 195.29 
M 375.63 180.74 372.68 182.13 371.81 183.53 370.46 186.41 369.11 187.23 366.01 186.72 364.29 186.83 361.37 188.28 359.31 191.32 360.19 191.41 
M 94.24 154.3 98.19 150.85 105.05 145.53 108.86 142.72 113.01 140.41 128.65 134.53 153.33 123.54 163.89 120.27 168.09 119.16 173.4 118.21 176.82 122.44 178.37 126.86 179.71 131.31 182.8 144.75 183.21 149.29 182.64 158.5 183.05 163.04 184.78 172.03 185.33 176.56 186.19 181.05 186.1 185.64 184.31 199.56 181.97 204.39 171.12 204.45 163.17 204.18 156.36 203.18 149.95 201.65 143.75 199.75 132.29 193.8 126.93 190.82 121.93 187.71 117.4 184.16 113.34 179.74 109.66 175.3 
M 160.99 144.93 160.6 148.89 159.84 152.71 159.5 156.23 159.35 165.05 159.83 167.69 160.33 173.44 161.15 176.6 162.33 179.96 162.26 183.9 150.01 185.06 145.33 185.26 140.5 184.97 135.48 184.16 130.54 182.1 125.78 179.65 
M 108.47 174.77 99.9 165.75 92.51 158.5 91.55 156.72 92.27 154.85 94.17 154.26 95.87 155.17 99.38 160.17 103.21 165.24 109.92 175.05 
M 107.89 175.85 91.86 176.02 87.76 175.89 85.77 174.99 85.03 173 86.05 171.31 88.06 171.16 102.05 173.76 108.8 174.81 
M 109.2 174.86 109.66 174.92 
M 130.41 156.35 129.27 152 129.59 147.51 131.36 143.37 134.37 140.03 138.31 137.85 142.74 137.07 147.18 137.76 151.16 139.87 154.24 143.14 156.09 147.25 156.5 151.72 155.44 156.1 153.02 159.89 149.5 162.69 145.26 164.19 140.76 164.23 136.49 162.81 132.91 160.09 130.41 156.35 
M 130.25 155.96 129.7 154.36 129.35 152.7 129.21 151.01 129.28 149.32 129.56 147.65 130.04 146.03 130.72 144.48 131.59 143.02 132.63 141.69 133.83 140.49 135.16 139.45 136.62 138.58 138.17 137.9 139.79 137.42 141.46 137.14 143.15 137.07 144.84 137.21 146.5 137.56 148.1 138.11 
M 131.73 155.35 130.94 152.47 130.88 149.49 131.55 146.58 132.15 145.21 133.63 143.02 
M 134.46 142.12 136.07 140.78 137.35 140.01 140.15 138.99 143.12 138.68 146.07 139.11 147.49 139.59 
M 133.22 154.73 132.8 153.51 132.43 150.95 132.73 148.25 
M 135.65 143.21 136.98 142.1 138.09 141.44 140.52 140.55 141.79 140.34 144.38 140.39 146.87 141.08 
M 134.7 154.11 134.12 152.01 134.03 150.91 134.23 148.92 
M 136.64 144.49 137.88 143.43 138.83 142.87 140.88 142.12 143.05 141.89 144.15 141.98 146.25 142.56 
M 136.19 153.5 135.72 151.77 135.64 150.88 135.79 149.32 
M 137.68 145.71 139.56 144.3 141.24 143.69 143.02 143.5 143.91 143.58 145.64 144.05 
M 137.89 152.98 137.43 151.24 137.53 149.83 
M 139.09 146.88 139.47 146.45 141.05 145.58 142.82 145.27 144.6 145.54 146.19 146.39 147.42 147.7 148.16 149.34 148.32 151.13 147.9 152.88 146.93 154.39 145.52 155.51 143.83 156.11 142.03 156.13 140.32 155.56 138.89 154.47 137.89 152.98 
M 140 146.16 139.48 147.2 
M 138.08 150 137.44 151.28 
M 141.54 145.49 140.33 147.91 
M 139.21 150.16 137.86 152.86 
M 142.85 145.27 141.19 148.61 
M 140.36 150.27 138.53 153.93 
M 143.97 145.45 141.97 149.45 
M 141.56 150.27 139.3 154.79 
M 145.02 145.77 140.18 155.46 
M 145.97 146.27 141.18 155.85 
M 146.8 147.04 142.25 156.13 
M 147.54 147.97 143.46 156.12 
M 148.11 149.24 144.85 155.75 
M 148.28 151.31 146.61 154.65 
M 95.31 153.28 99.15 157.12 
M 97.93 151.07 102.18 155.33 
M 100.63 148.94 103.6 151.92 
M 103.35 146.84 107.24 150.74 
M 106.09 144.76 108.92 147.59 
M 108.87 142.72 112.97 146.81 
M 111.97 140.99 115.86 144.88 
M 115.37 139.56 118.73 142.92 
M 118.89 138.25 123.43 142.8 
M 122.34 136.88 126.54 141.08 
M 125.85 135.57 130.24 139.96 
M 129.33 134.23 132.59 137.48 
M 132.68 132.75 136.89 136.95 
M 136.01 131.26 140.44 135.68 
M 139.31 129.73 142.08 132.5 
M 142.62 128.21 145.4 130.99 
M 145.96 126.73 149.13 129.89 
M 149.32 125.26 152.43 128.37 
M 152.69 123.81 156.91 128.03 
M 156.3 122.59 160.16 126.45 
M 159.97 121.44 163.16 124.63 
M 163.69 120.33 168.24 124.88 
M 167.5 119.32 170.33 122.14 
M 171.49 118.48 174.66 121.65 
M 165.25 182.46 164.24 183.19 162.86 183.59 159.68 183.45 157.47 183.58 156.35 183.89 155.64 184.37 
M 178.62 188.04 175.83 188.85 175.11 188.89 174.25 188.32 173.41 187.1 
M 156.47 201.66 156.45 200.86 
M 173.18 186.81 173.25 186.72 
M 113.04 142.02 112.89 141.45 112.4 140.75 
M 162.5 166.26 160.43 167.58 159.57 169.41 
M 103.02 150.16 104.45 146.93 104.58 146.51 104.49 145.96 
M 136.76 184.45 136.2 182.54 135.24 181 134.13 180.16 132.71 179.46 130.83 177.89 
M 159.74 160.74 158.86 159.38 158.11 158.58 154.92 156.91 
M 176.39 141.61 174.92 142.32 173.54 142.19 173.08 141.91 172.44 140.96 172.24 139.64 172.33 138.97 
M 141.74 137.24 140.34 136.31 
M 158.79 171.9 159.93 171.66 161.5 170.88 161.75 170.35 161.52 170.01 161.18 169.85 
M 168.33 122.32 168.67 122.02 169.11 121.97 170.36 122.52 
M 174.17 202.05 174.76 201.9 175.41 201.99 176.47 202.78 
M 142.58 179.28 142.84 179.64 143.5 181.66 
M 111.45 141.28 111.59 141.21 
M 108.66 152.7 107.42 151.81 105.72 149.49 105.21 148.17 105.22 146.45 104.79 145.75 
M 130.91 182.67 130.86 180.96 130.56 179.46 129.82 178.21 129.37 177.79 128.87 177.55 127.83 177.56 124.68 178.86 
M 146.61 165.92 147.61 165.08 147.78 164.34 147.73 163.31 
M 165.11 190.15 166.36 186.98 166.19 186.61 165.55 186.47 
M 101.31 156.74 100.17 156.74 99.47 156.31 99.26 155.67 99.56 154.92 
M 129.83 176.17 128.37 176.43 126.99 176.89 123.1 178.85 119.27 178.54 
M 128.59 179.06 128.27 178.63 127.85 178.47 126.76 178.6 123.45 179.42 122.61 179.43 119.31 178.95 117.74 179.11 
M 107.93 156.88 105.77 156.02 103.28 154.63 102.3 153.43 102.27 153 102.49 152.56 
M 110.67 176.33 108.26 178.79 106.96 180.63 106.18 182.63 106.07 184.84 106.49 187.08 106.89 188.16 110.39 194.45 111.95 197.72 110.84 195.58 106.03 188.58 105.47 187.45 104.76 185.01 104.63 182.4 104.87 181.08 105.34 179.83 106.6 177.59 108.97 174.63 
M 109.67 175.3 110.34 176.1 
M 106.6 172.92 106.67 172.99 
M 103.56 169.62 103.4 170.54 104.03 170.12 
M 100.69 166.58 100.36 167.09 100.19 168.07 100.67 167.46 101.28 167.2 
M 97.72 163.74 97.25 164.36 96.97 165.59 97.56 164.73 98.33 164.34 
M 94.81 160.82 94.15 161.63 93.76 163.12 94.46 162 95.44 161.44 
M 92.08 157.71 91.05 158.89 90.55 160.65 91.36 159.26 92.54 158.54 
M 109.63 175.46 110.62 175.55 
M 105.27 174.3 105.61 174.08 105.67 174.38 
M 100.69 173.46 101.41 172.68 101.28 173.28 101.38 173.61 
M 96.24 172.62 96.41 172.13 97.2 171.28 96.89 172.17 96.99 172.76 
M 91.77 171.92 92.02 171.01 92.99 169.88 92.5 171.06 92.61 172.07 
M 87.31 171.22 87.63 169.9 88.78 168.48 88.11 169.94 88.2 171.19 
M 91.98 176.02 98.53 179.33 104.7 182.02 
M 106.18 182.63 113.92 185.44 121.93 187.71 
M 103 180.46 102.08 180.17 100.56 180.15 99.76 179.89 
M 100.96 179.09 98.15 179.14 
M 112.35 183.77 110.76 184.35 
M 104.76 181.68 104.67 181.6 
M 178.16 126.26 180.67 128.77 
M 175.25 116.92 182.97 124.64 
M 179.05 114.28 187.16 122.4 
M 182.87 111.67 190.66 119.46 
M 186.79 109.15 191.96 114.32 
M 190.73 106.66 199.47 115.41 
M 194.99 104.49 204.31 113.81 
M 199.3 102.36 205.81 108.87 
M 204.22 100.85 209.77 106.4 
M 209.32 99.52 218.29 108.49 
M 214.76 98.53 220.04 103.81 
M 220.34 97.67 228.73 106.06 
M 226.1 96.99 234.18 105.08 
M 232.24 96.7 239.68 104.15 
M 239.35 97.38 246.8 104.83 
M 246.4 97.99 252.95 104.55 
M 252.84 98 262.16 107.32 
M 258.8 97.53 267.39 106.12 
M 265.14 97.43 271.22 103.51 
M 271.67 97.53 278.09 103.95 
M 278.14 97.57 283.49 102.91 
M 284.52 97.51 290.26 103.25 
M 291.35 97.91 297.24 103.8 
M 298.5 98.63 303.98 104.11 
M 306.34 100.03 315.6 109.29 
M 314.54 101.8 319.93 107.19 
M 323 103.83 330.47 111.29 
M 334.16 108.55 341.28 115.68 
M 348.32 116.28 355.97 123.93 
M 365.8 127.32 371.61 133.13 
M 388.08 143.17 391.5 146.59 
M 212.7 94.87 214.17 97.8 
M 213.47 89.17 215.27 92.77 
M 214.6 84.19 218.56 92.1 
M 220.81 96.61 221.27 97.53 
M 216.92 81.58 224.69 97.13 
M 219.77 80.04 228.19 96.89 
M 219.58 72.43 225.69 84.66 
M 228.57 90.42 231.75 96.77 
M 221.23 68.49 235.46 96.95 
M 223.9 66.6 239.29 97.37 
M 226.72 64.99 232.11 75.78 
M 232.83 77.22 243.09 97.73 
M 229.07 62.47 233.03 70.38 
M 238.78 81.89 246.85 98.03 
M 231.72 60.53 238.56 74.2 
M 239.28 75.63 250.52 98.12 
M 234.31 58.46 254.03 97.9 
M 237.56 57.73 247.63 77.87 
M 249.79 82.19 257.52 97.64 
M 239.91 55.18 251.41 78.2 
M 253.57 82.51 261.06 97.49 
M 241.97 52.08 253.84 75.81 
M 255.28 78.69 256 80.13 
M 256.72 81.57 264.66 97.45 
M 244.82 50.53 257.4 75.7 
M 261 82.9 268.28 97.44 
M 248.21 50.08 259.36 72.38 
M 264.4 82.45 271.59 96.83 
M 252.45 51.32 263.96 74.34 
M 269 84.41 273.31 93.04 
M 256.34 51.86 267.85 74.88 
M 269.29 77.76 279.19 97.55 
M 258.48 48.91 272.15 76.24 
M 272.87 77.68 282.77 97.49 
M 260.76 46.22 261.84 48.38 
M 262.56 49.82 279.82 84.34 
M 282.7 90.1 286.46 97.63 
M 263.35 44.17 281.69 80.85 
M 286.01 89.48 290.19 97.84 
M 265.9 42.04 282.81 75.85 
M 286.41 83.04 293.96 98.16 
M 266.64 36.27 287.14 77.27 
M 290.02 83.03 297.78 98.55 
M 268.17 32.1 289.39 74.54 
M 292.99 81.73 301.68 99.12 
M 270.83 30.17 282.7 53.91 
M 283.41 55.34 292.77 74.05 
M 293.48 75.48 302.84 94.19 
M 274.59 30.46 304.44 90.17 
M 278.4 30.83 296.74 67.51 
M 298.18 70.39 305.37 84.78 
M 306.09 86.22 307.53 89.09 
M 311.84 97.73 313.8 101.63 
M 282.27 31.34 301.33 69.46 
M 303.49 73.78 308.52 83.85 
M 315 96.8 315.72 98.24 
M 317.16 101.11 317.88 102.56 
M 286.64 32.84 289.16 37.88 
M 290.6 40.76 304.98 69.53 
M 306.42 72.41 312.18 83.92 
M 317.21 93.99 322.01 103.57 
M 290.37 33.06 292.17 36.66 
M 292.88 38.09 308.71 69.74 
M 310.15 72.62 315.9 84.13 
M 320.22 92.76 326.15 104.62 
M 294.54 34.16 303.53 52.15 
M 304.25 53.59 306.41 57.9 
M 307.85 60.78 311.44 67.97 
M 315.76 76.6 317.92 80.92 
M 322.23 89.55 331.19 107.47 
M 298.42 34.7 306.7 51.24 
M 307.42 52.68 308.14 54.12 
M 309.57 57 313.89 65.63 
M 318.21 74.26 322.52 82.89 
M 325.4 88.65 326.84 91.52 
M 327.56 92.96 332.97 103.8 
M 301.7 34.02 304.22 39.05 
M 306.38 43.37 319.33 69.26 
M 320.05 70.7 328.68 87.97 
M 329.4 89.4 334.75 100.12 
M 304.97 33.32 306.05 35.48 
M 307.49 38.36 308.21 39.8 
M 309.65 42.67 329.79 82.95 
M 332.67 88.71 334.11 91.59 
M 334.83 93.02 336.53 96.44 
M 308.58 33.29 311.1 38.33 
M 311.81 39.76 322.6 61.34 
M 323.32 62.78 335.55 87.24 
M 313.09 35.08 324.24 57.38 
M 324.96 58.82 337.91 84.71 
M 317.77 37.2 326.04 53.75 
M 328.92 59.5 337.69 77.05 
M 323.12 40.66 326.36 47.14 
M 327.8 50.01 328.52 51.45 
M 332.11 58.65 338.6 71.63 
M 327.48 42.15 329.28 45.74 
M 330 47.18 330.72 48.62 
M 332.16 51.5 338.98 65.15 
M 217.73 292.89 217.6 292.3 217.19 291.7 216.67 291.39 215.48 291.39 214.79 291.7 214.01 292.3 213.53 292.89 212.95 293.8 212.51 295.3 212.66 296.8 213.07 297.39 213.58 297.7 214.79 297.7 215.48 297.39 216.26 296.8 216.73 296.2 
M 220.85 293.5 220.16 293.8 219.38 294.39 218.81 295.3 218.63 295.89 218.66 296.8 219.07 297.39 219.58 297.7 220.49 297.7 221.18 297.39 221.96 296.8 222.53 295.89 222.71 295.3 222.68 294.39 222.26 293.8 221.75 293.5 220.85 293.5 
M 225.35 293.5 224.08 297.7 
M 224.81 295.3 225.38 294.39 226.16 293.8 226.85 293.5 227.75 293.5 
M 230.45 293.5 229.76 293.8 228.98 294.39 228.41 295.3 228.23 295.89 228.26 296.8 228.68 297.39 229.19 297.7 230.08 297.7 230.77 297.39 231.56 296.8 232.13 295.89 232.31 295.3 232.27 294.39 231.86 293.8 231.35 293.5 230.45 293.5 
M 235.27 291.39 235.49 291.7 235.88 291.39 235.67 291.1 235.27 291.39 
M 234.95 293.5 233.69 297.7 
M 241.27 291.39 239.39 297.7 
M 240.38 294.39 239.96 293.8 239.45 293.5 238.55 293.5 237.86 293.8 237.08 294.39 236.51 295.3 236.33 295.89 236.36 296.8 236.77 297.39 237.29 297.7 238.19 297.7 238.88 297.39 239.66 296.8 
M 242.21 295.3 245.81 295.3 245.99 294.7 245.87 294.1 245.15 293.5 244.25 293.5 243.56 293.8 242.77 294.39 242.21 295.3 242.02 295.89 242.06 296.8 242.48 297.39 242.99 297.7 243.89 297.7 244.58 297.39 245.36 296.8 
M 251.18 294.39 251.05 293.8 250.25 293.5 249.35 293.5 248.36 293.8 247.88 294.39 248 295 248.51 295.3 249.92 295.6 250.43 295.89 250.46 296.8 249.98 297.39 248.99 297.7 248.08 297.7 247.27 297.39 247.16 296.8 
M 259.85 293.5 258.58 297.7 
M 259.58 294.39 259.15 293.8 258.64 293.5 257.75 293.5 257.05 293.8 256.27 294.39 255.71 295.3 255.52 295.89 255.55 296.8 255.98 297.39 256.49 297.7 257.39 297.7 258.08 297.39 258.86 296.8 
M 262.25 293.5 260.99 297.7 
M 261.71 295.3 262.27 294.39 263.05 293.8 263.75 293.5 264.64 293.5 
M 266.14 293.5 264.89 297.7 
M 265.78 294.7 266.95 293.8 267.64 293.5 268.55 293.5 269.06 293.8 269.08 294.7 268.19 297.7 
M 269.08 294.7 270.26 293.8 270.95 293.5 271.84 293.5 272.36 293.8 272.39 294.7 271.49 297.7 
M 278.45 293.5 277.19 297.7 
M 278.17 294.39 277.76 293.8 277.25 293.5 276.34 293.5 275.65 293.8 274.88 294.39 274.31 295.3 274.13 295.89 274.15 296.8 274.58 297.39 275.08 297.7 275.99 297.7 276.67 297.39 277.45 296.8 
M 283.88 294.39 283.45 293.8 282.95 293.5 282.04 293.5 281.36 293.8 280.58 294.39 280.01 295.3 279.83 295.89 279.86 296.8 280.27 297.39 280.78 297.7 281.69 297.7 282.38 297.39 283.15 296.8 
M 289.54 293.5 288.28 297.7 
M 289.27 294.39 288.86 293.8 288.34 293.5 287.45 293.5 286.76 293.8 285.98 294.39 285.4 295.3 285.23 295.89 285.26 296.8 285.67 297.39 286.19 297.7 287.08 297.7 287.77 297.39 288.56 296.8 
M 291.95 293.5 290.69 297.7 
M 291.58 294.7 292.76 293.8 293.45 293.5 294.34 293.5 294.86 293.8 294.89 294.7 293.99 297.7 
M 298.58 291.39 297.04 296.5 297.08 297.39 297.58 297.7 298.19 297.7 
M 297.04 293.5 299.14 293.5 
M 304.54 293.5 303.28 297.7 
M 304.27 294.39 303.86 293.8 303.34 293.5 302.45 293.5 301.76 293.8 300.98 294.39 300.4 295.3 300.23 295.89 300.26 296.8 300.68 297.39 301.19 297.7 302.08 297.7 302.77 297.39 303.56 296.8 
M 306.16 297.1 305.77 297.39 305.99 297.7 306.38 297.39 306.16 297.1 
"/></svg>
