<svg xmlns="http://www.w3.org/2000/svg" width="520" height="320"><rect x="0" y="0" width="520" height="320" fill="floralwhite"/><rect x="10" y="10" width="500" height="300" stroke="black" stroke-width="1" fill="none"/><path stroke="black" stroke-width="1" fill="none" stroke-linecap="round" stroke-linejoin="round" d="
M 172.91 80.56 175.41 80.13 184.74 80.51 202.99 84.5 212.26 85.65 221.56 86.48 230.77 88.07 248.77 93.04 257.95 94.78 267.21 96.03 276.52 96.75 285.86 96.77 295.19 96.32 304.53 96.5 313.79 97.71 332.15 101.17 341.3 103.06 350.35 105.36 359.24 108.23 370.12 115.34 
M 370.12 158.31 359.78 163.74 350.76 166.17 341.6 167.99 313.88 172.09 304.58 172.98 295.24 173.01 285.91 172.68 276.59 173.32 267.42 175.09 249.38 179.95 240.42 182.6 231.29 184.59 221.95 184.69 212.78 182.94 203.66 180.91 194.36 180.04 185.02 179.91 175.71 179.13 164.74 176.87 
M 192.08 117.84 195.45 117.44 
M 198.81 117.12 202.27 116.99 
M 205.87 117.07 209.56 117.29 
M 213.26 117.54 216.92 117.8 
M 224.28 118.42 231.76 119.28 
M 239.86 120.89 244.18 122 
M 170.71 165.13 172.19 168.34 
M 180.68 164.06 182.61 168.69 184.44 174.34 
M 179.58 102.44 179.53 102.61 
M 188.6 158.83 190.39 162.68 
M 191.84 165.98 192.87 168.85 
M 193.47 87.09 192.25 91.04 
M 188.73 103.11 187.4 107 
M 186.56 129.53 187.11 130.95 
M 199.81 162.49 200.62 165.58 201.26 167.18 
M 201.6 86.81 200.7 91.07 
M 199.75 95.29 199.21 97.34 194.58 110.97 
M 192.7 115.37 191.51 117.85 
M 209.63 164.29 210.62 166.95 211.81 171.16 
M 212.5 173.7 212.89 174.93 
M 209.59 90.75 206.64 100.62 199.84 117.02 
M 219.36 166.6 220.73 171.03 223.54 177.83 
M 221.16 88.14 219.21 91.2 
M 217.35 94.38 216.5 96.05 215.87 97.96 
M 213.49 105.76 212.13 109.53 
M 210.65 113.18 208.76 117.24 
M 229.02 168.52 229.76 170.46 
M 231.08 173.86 232.06 176.41 
M 231.57 88.29 228.61 95.32 225.8 99.99 
M 223.99 103.2 222.46 106.7 
M 221.04 110.34 217.88 117.88 
M 238.06 169.05 239.87 173.89 
M 235.44 98.48 234.07 102.04 
M 231.22 109.12 227.04 118.73 
M 247.28 169.85 247.44 170.22 
M 244.58 101.91 244.07 103.83 241.82 108.91 
M 238.69 115.64 236.54 120.11 
M 255.66 97.23 255.03 98.97 253.49 106.97 252.93 108.81 
M 251.65 112.35 247.2 122.81 
M 265.67 96.14 264.13 99.28 
M 261.26 105.82 260.64 107.56 260.28 109.57 
M 259.06 117.86 258.67 119.87 257.76 122.4 
M 269.75 107.38 269.12 109.09 268.15 112.79 266.88 121.78 
M 285.67 101.7 283.69 104.38 
M 281.77 107.1 279.19 111.47 277.7 114.63 277.13 116.38 
M 276.11 120 275.89 120.93 
M 291.86 108.93 289.7 113.72 287.31 118.25 
M 305.22 168.33 306.41 170.38 
M 301.7 110.86 300.03 113.85 
M 298.36 116.83 296.82 119.34 
M 314.27 166.81 316.43 170.43 
M 315.76 108.07 314.89 109.62 311.88 116.17 309.87 119.49 
M 323.15 165.02 325.89 169.41 
M 323.96 113.88 321.3 118.97 
M 331.94 163.24 334.32 167.05 
M 332.79 110.44 331.22 116.18 330.26 118.9 
M 340.15 161.19 343.5 166.81 
M 341.47 112.16 338.32 119.89 
M 348.9 159.46 350.71 162.25 
M 352.9 165.57 352.91 165.59 
M 348.49 117.71 347.49 120.86 
M 357.33 157.08 361.35 162.91 
M 355.94 119.67 355.55 121.16 
M 366.47 153.25 370.12 157.61 
M 202.5 128.12 201.44 129.13 
M 270.24 99.82 269.66 101.29 268.91 102.27 268.06 102.55 265.96 102.8 262.45 103.7 
M 319.78 111.58 320.45 111.92 321.02 112.02 321.61 111.72 322.35 111.03 
M 175.36 166.42 176.55 166.91 177.85 167.05 179.55 166.97 181.35 166.52 182.52 165.61 183.5 163.34 184.59 161.93 
M 214.02 126.17 215.13 127.44 
M 339.06 102.6 338.14 103.87 337.02 104.86 334.22 106.08 333.51 106.13 332.94 105.86 332.27 104.95 
M 204.39 90.68 207.22 89.89 207.97 88.9 208.35 87.73 
M 180.95 114.15 180.03 113.05 179.21 112.39 
M 243.42 105.54 245.54 109.51 245.37 110.54 244.66 111.74 
M 285.39 172.71 284.51 171.57 284.15 171.41 283.92 171.71 
M 238.86 90.3 239.53 91.92 239.52 92.52 239.11 93.76 238.09 94.96 
M 214.75 110.78 215.6 111.29 217.78 112.02 218.25 112.41 219.29 113.68 219.62 114.36 219.6 114.95 219.14 115.61 
M 221.42 107.57 220.69 108.29 220.44 110.24 220.57 111.9 220.34 113.16 
M 207.71 165.01 208.03 164.11 
M 253.1 108.05 251.05 107.45 250.35 107.08 249.62 106.47 248.29 104.94 247.34 104.41 
M 246.04 96.13 244.99 97.98 243.33 102.55 243.5 103.88 244.09 105.46 
M 188.95 175.21 190.92 175.59 192.1 176.04 197.31 179.69 197.77 180.33 
M 218.85 85.09 273.99 30 274.66 30.65 222.12 86.56 
M 232.72 87.71 271.88 47.5 272.57 48.14 235.81 89.33 
M 246.24 91.67 270.79 63.41 271.52 64.01 249.34 93.18 
M 259.99 94.43 272.07 76.21 272.88 76.69 263.24 95.52 
M 273.94 96.09 278.59 87.88 279.46 88.24 277.24 96.77 
M 281.61 96.45 283.25 96.92 
M 269.33 36.33 267.82 39.6 266.87 42.92 266.72 44.61 266.79 46.31 267.06 48.04 267.96 51.52 
M 268.83 52.33 267.51 55.38 266.76 58.45 266.7 59.99 266.87 61.55 267.24 63.11 268.34 66.24 
M 269.26 66.99 268.42 69.62 268.18 70.91 268.13 72.16 268.31 73.39 269.31 75.75 270.86 78.03 
M 271.89 78.63 272.24 81.51 272.58 82.85 273.08 84.09 273.77 85.21 275.71 87.1 278.12 88.7 
M 279.22 89.15 278.89 91.34 278.89 92.36 279.07 93.3 279.45 94.14 280.8 95.56 282.67 96.75 
M 268.53 37.96 267.25 41.25 266.87 42.92 266.72 44.61 266.79 46.31 267.47 49.78 
M 262.72 44.91 261.61 47.73 261.16 50.62 261.22 52.09 261.81 55.07 
M 256.91 51.85 255.98 54.22 255.71 55.42 255.65 57.87 256.14 60.36 
M 251.09 58.8 250.35 60.7 250.04 62.65 250.08 63.64 250.48 65.65 
M 245.28 65.74 244.71 67.19 244.48 68.67 244.81 70.94 
M 268.13 53.86 267.04 56.91 266.76 58.45 266.7 59.99 266.87 61.55 267.75 64.67 
M 261.74 62.48 260.9 64.82 260.65 67.18 260.78 68.37 261.45 70.77 
M 255.36 71.1 254.62 73.55 254.68 75.2 255.15 76.87 
M 268.8 68.31 268.18 70.91 268.13 72.16 268.31 73.39 268.71 74.59 270.05 76.9 
M 263.79 77.3 263.39 78.99 263.36 79.81 263.74 81.39 264.61 82.89 
M 272.03 80.09 272.58 82.85 273.08 84.09 273.77 85.21 274.66 86.21 276.88 87.93 
M 176.47 132.35 188.02 130.82 196.5 129.46 202.18 129.08 210.64 128.23 222.47 125.97 224.98 125.78 230.59 124.6 233.16 124.88 238.72 124.36 247.99 122.95 253.65 122.3 259.12 122.43 262.23 122.31 267.46 121.7 272.6 121.61 275.92 120.92 281.93 120.2 293.01 119.6 295.97 119.3 300.99 119.6 304.43 118.95 307.64 119.08 310.68 119.64 313.19 119.46 315.57 119.75 318.84 119.19 321.69 118.93 327.42 118.79 330.19 118.88 335.94 119.7 344.36 120.38 347.25 120.88 350.42 120.62 352.99 120.72 355.43 121.15 364.3 121.56 367.65 122.13 370.41 122.13 373.23 121.6 375.91 121.36 378.71 121.54 381.28 121.36 383.61 122.25 392.67 123.62 402.07 123.53 404.7 123.74 407.23 124.08 409.97 124.72 415.97 125.2 420.55 126.58 423.49 127.26 425.76 126.74 401.54 139.15 396 141.05 393.67 142.44 385.17 145.1 380.27 147.63 376.1 150.9 373.31 151.71 364.54 153.72 359.33 155.7 357.2 157.17 351.96 159.13 345.7 159.78 343.08 160.58 340.23 161.16 337.66 162.02 332.01 163.23 326.07 164.15 321.03 165.68 312.65 167.08 309.56 167.25 301.76 169.23 299.08 169.67 296.02 169.68 290.41 170.22 287.4 170.28 284.71 170.66 273.5 171.61 268.07 171.5 256.75 170.82 253.56 170.29 245.13 169.67 239.39 169.04 234.35 169.1 228.64 168.49 226.04 168.45 211.5 164.62 208.93 164.17 206.68 164.04 201.55 163.05 179.4 155.83 177.42 154.54 172.75 152.23 
M 176.19 134.24 196.87 132.76 199.84 132.29 205.1 132.09 210.81 131.59 217.03 131.37 222.66 130.36 228.29 129.64 230.89 129.47 233.8 129.62 236.61 129.35 242.77 129.63 248.74 129.28 254.19 128.71 262.62 128.71 265.35 128.36 268.2 128.43 270.75 128.88 276.25 128.86 284.86 128.39 287.9 128.5 291.2 127.98 293.91 127.93 296.26 128.02 299.15 128.93 
M 175.9 136.21 191.15 135.79 197.04 135.82 199.86 135.41 202.51 135.41 205.36 135.62 214.37 135.39 217.3 135.24 220.1 134.81 225.97 134.69 228.66 134.21 231.06 134.24 233.62 134.43 239.74 134.46 242.55 134.88 245.48 135.06 251.67 134.96 254.73 135.21 259.94 135.04 262.76 135.36 268.61 135.15 273.77 135.39 277.19 135.96 288.38 136.17 294.04 137.12 296.55 137.81 301.49 137.85 304.7 138.08 307.28 138.37 310.22 139.06 
M 175.44 138.19 179.55 138.19 185.52 138.51 191.3 138.43 196.98 138.57 202.48 138.98 208.47 138.99 211.32 139.38 214.35 139.33 217.39 139.54 223.21 139.26 228.98 139.26 233.64 139.69 245.13 140.08 257.61 141.91 260.5 142.13 263.06 142.56 265.84 142.71 271.25 142.36 277.08 143.1 280.11 143.67 283.05 144.55 285.76 144.55 294.08 146.39 298.95 148.05 301.37 148.59 304.49 149.04 310.45 149.46 315.47 150.24 318.29 150.92 329.41 154.33 332.5 154.85 334.57 155.74 
M 174.9 140.15 179.61 140.34 185.42 141.08 188.28 141.31 191.16 141.34 199.71 142.09 208.76 142.43 220.32 143.99 228.79 143.91 236.75 145.4 239.41 145.39 245.98 146.67 248.87 146.64 257 148.33 262.18 150.03 265.19 150.62 268.24 150.74 270.66 151.09 272.66 151.89 279.04 152.79 282.81 153.77 
M 174.41 142.02 182.42 142.87 188.08 144.06 190.97 144.18 193.7 144.66 202.88 145.8 205.72 145.76 208.62 146.06 214.06 147.03 220.08 148.33 225.1 148.56 227.9 148.94 230.9 149.85 233.37 150.91 
M 174.21 143.93 176.79 144.23 182.4 145.25 185.25 146.16 188.12 146.84 205.4 149.52 208.22 150.35 213.66 151.27 222.42 153.71 227.11 154.83 235.79 158 238.48 158.51 241.41 158.81 247.04 160.37 249.55 161.64 255.61 164.3 260.34 165.55 
M 174.03 145.67 179.65 146.89 188.2 149.84 193.59 150.92 196.42 151.13 199.27 151.89 204.94 153.75 207.47 155.08 210.35 155.48 216.16 157.36 
M 173.74 147.65 179.72 149.19 188.63 152.97 191.48 153.53 193.71 154.18 201.21 156.8 207.29 159.99 
M 173.36 149.41 176.88 150.76 183.18 153.57 189 156.9 193.72 158.65 
M 197.49 178.78 236.51 214.38 235.89 215.09 195.26 181.34 
M 195.76 178.92 196.55 179.85 
M 203.99 188.6 238.55 229.19 237.84 229.81 193.22 181.17 
M 194.01 179.08 194.58 179.96 
M 200.65 189.27 237.26 245.44 236.48 245.97 191.2 180.97 
M 192.24 179.25 192.61 180.02 
M 197.26 189.68 232.35 262.5 231.51 262.92 189.2 180.76 
M 190.08 179.44 190.33 180.2 
M 192.9 187.94 223.3 279.69 222.41 280 186.87 180.54 
M 231.82 211.71 231.18 214.71 231.09 217.6 231.36 218.99 231.85 220.33 232.54 221.63 234.27 224.16 
M 233.38 224.95 232.07 227.99 231.33 231.05 231.28 232.59 231.45 234.13 231.82 235.69 232.93 238.81 
M 231.95 239.47 229.97 242.45 228.54 245.57 228.14 247.2 227.96 248.89 227.97 250.62 228.34 254.18 
M 227.28 254.71 224.57 257.5 222.36 260.54 221.55 262.2 220.94 263.96 220.51 265.81 219.97 269.66 
M 231.46 213.22 231.04 216.18 231.09 217.6 231.36 218.99 231.85 220.33 233.36 222.9 
M 226.42 208.58 226.05 211.12 226.1 212.35 226.75 214.69 228.05 216.9 
M 221.37 203.93 221.07 206.06 221.1 207.09 221.65 209.05 222.74 210.9 
M 216.33 199.29 216.08 201 216.11 201.83 216.55 203.41 217.43 204.91 
M 211.28 194.65 211.12 196.57 211.46 197.77 212.12 198.91 
M 232.69 226.47 231.6 229.52 231.33 231.05 231.28 232.59 231.45 234.13 232.34 237.25 
M 228.77 221.82 227.79 224.57 227.55 225.95 227.5 227.33 227.66 228.72 228.46 231.52 
M 224.86 217.18 223.99 219.62 223.77 220.85 223.87 223.31 224.58 225.8 
M 220.94 212.54 220.18 214.67 219.99 215.74 220.08 217.9 220.7 220.08 
M 217.03 207.89 216.38 209.72 216.21 210.64 216.29 212.49 216.82 214.36 
M 213.12 203.25 212.44 205.54 212.5 207.08 212.94 208.64 
M 209.2 198.61 208.66 200.44 208.71 201.67 209.06 202.92 
M 230.92 240.95 229.16 243.98 228.54 245.57 228.14 247.2 227.96 248.89 228.12 252.39 
M 227.49 235.62 225.88 238.39 225.32 239.83 224.95 241.32 224.78 242.86 224.93 246.06 
M 224.05 230.29 222.6 232.79 221.76 235.44 221.61 236.83 221.74 239.73 
M 220.62 224.96 219.32 227.19 218.86 228.36 218.43 230.81 218.55 233.39 
M 217.18 219.62 216.04 221.6 215.63 222.62 215.25 224.78 215.36 227.06 
M 213.75 214.29 212.41 216.89 212.08 218.76 212.17 220.73 
M 210.31 208.96 209.18 211.15 208.9 212.73 208.98 214.39 
M 206.87 203.63 206.19 204.8 205.8 206.05 205.79 208.06 
M 225.89 256.09 223.38 258.98 222.36 260.54 221.55 262.2 220.94 263.96 220.21 267.72 
M 223.07 250.17 220.75 252.83 219.82 254.28 219.07 255.81 218.5 257.43 217.83 260.9 
M 220.24 244.25 218.12 246.69 217.27 248.01 216.07 250.9 215.45 254.07 
M 217.42 238.33 215.5 240.55 214.72 241.75 213.63 244.37 213.06 247.25 
M 214.6 232.41 212.87 234.41 212.17 235.48 211.19 237.84 210.68 240.43 
M 211.77 226.5 210.24 228.26 209.62 229.22 208.75 231.31 208.3 233.6 
M 208.95 220.58 207.61 222.12 206.64 223.84 205.92 226.78 
M 206.13 214.66 204.52 216.69 203.88 218.25 203.54 219.96 
M 203.31 208.74 201.98 210.43 201.44 211.72 201.16 213.14 
M 340 167.69 344.43 178.04 343.61 178.5 337.05 169.36 
M 326 169.67 339.64 195.51 338.82 195.99 323.07 171.38 
M 312.03 171.67 325.41 199.16 324.58 199.6 309.04 173.28 
M 297.94 172.33 309 198.09 308.15 198.5 294.89 173.8 
M 276.87 172.71 280.67 183.31 279.82 183.72 273.82 174.2 
M 342.96 177.59 340.76 180.64 339.1 183.86 338.58 185.57 338.27 187.34 338.16 189.17 338.27 192.93 
M 337.25 193.53 334.06 192.98 332.51 192.89 331 192.99 329.53 193.31 326.74 194.58 324.08 196.41 
M 323.03 196.97 319.78 195.44 316.48 194.47 314.8 194.31 313.1 194.37 311.37 194.63 307.89 195.51 
M 306.83 196.03 301.49 191.89 298.73 189.99 295.89 188.26 292.94 186.73 286.75 184.24 280.29 182.25 
M 341.82 179.1 339.84 182.22 339.1 183.86 338.58 185.57 338.27 187.34 338.18 191.04 
M 335.65 193.22 332.51 192.89 331 192.99 329.53 193.31 328.12 193.85 325.4 195.46 
M 331.42 188.15 329.01 187.9 327.86 187.98 325.65 188.64 323.57 189.87 
M 327.2 183.08 325.52 182.91 323.94 183.13 321.73 184.28 
M 321.41 196.17 318.14 194.86 316.48 194.47 314.8 194.31 313.1 194.37 309.64 195.03 
M 315.13 187.98 313.01 187.13 310.84 186.77 309.73 186.81 307.48 187.24 
M 304.17 193.92 298.73 189.99 295.89 188.26 292.94 186.73 289.89 185.39 283.54 183.21 
M 370.12 115.34 373.24 114.48 377.83 111.92 380.68 110.67 386.33 107.69 388.7 106.75 391.08 105.03 393.69 103.74 395.74 101.86 398.45 100.88 404.28 97.45 406.91 97.24 411.9 94.22 414.07 92.32 416.36 89.41 421.47 86.43 422.88 85.83 426.38 83.48 428.74 80.97 432.11 80.64 434.69 78.99 437.88 77.86 444.09 72.21 448.84 69.59 460.74 74.95 463.27 77.07 466.35 79.34 467.37 81.41 470.09 88.95 471.23 99.62 470.97 102.54 468.98 104.18 466.27 105.33 464.48 107.41 462.42 113.07 460.55 115.18 458.9 117.53 456.98 119.61 454.91 121.54 453.19 123.8 451.96 126.47 450.38 128.79 448.59 130.89 447.39 132.79 446.95 135.44 446.81 138.38 447.32 141.44 448.01 144.22 449.01 147.32 450.16 149.69 455.16 156.11 456.87 158.98 460.46 165.85 461.34 168.36 461.39 169.94 462.57 172.2 464.47 175.18 467.28 180.16 468.13 182.72 468.24 185.21 467.96 187.3 468.7 190.43 468.51 193.75 467.1 196.02 465.21 197.81 464.27 200.56 463.77 203.95 459.22 207.34 457.47 208.36 447.07 212.26 445.18 210.58 442.51 208.99 440.05 206.87 437.51 203.74 434.94 202.79 432.25 201.15 426.6 198.24 424.61 195.91 420.93 193.78 418.16 191.23 414.73 189.74 411.84 188.89 408.94 186.91 403.03 182.28 401 180.35 398.61 177.31 396.66 175.24 394.04 174.25 388.24 171.18 385.5 168.77 377.81 164.97 372.86 160.87 370.12 158.31 
M 373.3 117.38 380.88 113.9 383.83 112.82 386.53 111.45 392.21 108.2 400.45 105.18 405.31 102.9 410.96 100.52 414.91 98.48 420.75 94.49 424.08 92.62 426.3 90.21 428.47 89.38 432.65 86.96 434.98 86.18 437.34 84.04 439.02 83.27 441.83 83.27 444.43 82.53 448.09 79.6 452.36 77.25 454.03 76.79 
M 373.45 120.09 381.67 117.22 386.85 115 389.86 114.22 395.93 111.17 398.49 110.23 401.27 109.81 404.1 108.87 406.42 107.7 409.05 106.09 412.01 105.24 414.04 105.1 416.98 104.53 419.56 103.11 422.58 100.94 425.74 99.46 
M 379.06 121.51 382.13 120.54 384.5 120.13 389.96 117.63 393.72 116.89 396.98 115.56 398.99 114.22 401.52 113.67 405.27 113.52 408.11 112.5 410 110.86 413.24 109.41 418.77 108.26 422.11 107.85 424.54 107.11 427.05 106.65 
M 387.92 122.91 390.49 122.03 397.29 120.73 402.5 118.3 405.69 118.18 408.35 117.43 411.1 117.06 413.81 116.25 416.93 114.94 420.25 114.86 
M 403.87 123.68 406.71 123.03 412.05 123.22 414.81 122.59 417.77 122.39 421.09 121.01 421.78 121.08 424.59 120.31 432.15 119.13 434.4 117.87 437.35 117.99 445.66 115.43 447.67 116 
M 421.11 129.13 423.07 129.51 426.2 128.81 429.55 126.71 435.9 124.99 
M 411.03 134.29 415.91 134.3 419.19 133.72 427.28 134.58 429.98 134.67 432.67 133.98 439.13 132.87 
M 401.74 139.05 404.37 139.56 411.36 140.45 
M 392.38 142.86 395.25 143.69 402.17 143.42 404.45 144.19 407.34 144.46 410.43 145.12 412.86 146.14 416.25 147.08 418.9 146.15 421.47 145.9 423.27 146.3 429.37 146.31 434.45 147.84 437.52 148.5 440.48 148.29 443.73 147.19 447.45 147.79 
M 383.55 145.89 388.37 146.93 391.67 147.01 396.12 147.49 399.18 148.21 401.14 149.33 403.8 149.1 406.73 149.68 409.38 149.99 411.9 151.27 414.99 152.54 418.05 153.37 
M 379.65 148.14 382.18 149.27 385.33 150.33 388.33 150.83 391.43 150.8 394.96 151.13 397.68 151.8 400.53 152.63 403.25 154.03 405.9 155.17 410.89 155.83 414.45 157.37 
M 376.64 150.49 381.75 152.39 384.94 153.78 387.73 154.68 393.34 155.92 399.1 157.88 407.87 161.41 413.76 162.11 416.79 163.26 419.73 164.63 423.88 167.66 426.71 168.18 430.85 167.63 433.68 167.94 436.64 169.09 439.57 171.28 442.26 173.54 444.57 174.26 
M 376.35 153.64 378.95 154.82 381.75 156.47 384.72 157.5 387.07 158.62 389.49 159.1 395.7 160.8 400.74 163.46 403.69 165.55 405.92 167.46 409.58 167.8 412.57 168.37 415.77 169.06 418.56 170.06 420.17 172.09 422.82 173.04 425.96 173.32 428.71 174.57 430.12 176.97 432.08 178.55 435.07 179.41 438.68 179.71 441.73 181.09 443.67 183.34 447.08 184.51 450.65 184.74 454 185.81 460.44 187.36 463.07 188.35 
M 375.84 156.47 381.61 159.77 386.16 161.91 389.17 163.2 397.44 166.33 402.75 170.57 405.59 171.83 410.55 174.9 413.43 176.21 418.63 179.25 421.72 179.81 425.11 180.85 428.08 182 430.78 183.67 432.93 185.48 435.44 186.65 438.55 188.38 439.73 189.68 441.59 190.79 443.97 191.36 447.31 191.88 
M 375.8 159.63 378.41 161.29 381.29 162.73 383.09 163.93 385.67 164.7 388.41 166.69 391.4 168.55 397.39 171.34 402.49 175.52 404.49 177.68 409.49 180.88 414.26 184.22 419.27 187.02 423 188.47 425.64 188.82 428.45 190.36 429.64 192 431.68 193.12 434.07 194.03 435.35 195.93 437.55 197.12 441.65 198.63 446.6 201.19 
M 63.96 119.41 65.64 117.92 73.63 112.38 78.43 108.81 83.36 105.84 88.97 102.58 95.67 99.29 103.56 95.69 111.26 93.47 119 92.24 126.55 89.86 143.69 85.32 158.69 81.83 164.96 80.69 169.88 80.24 172.66 80.25 177.05 85.76 178.71 91.02 179.51 96.2 179.59 101.33 179.33 111.55 178.58 116.61 178.35 121.71 177.2 126.74 175.8 136.87 174.43 141.87 173.89 146.95 171.68 157.01 170.03 162 168.7 167.01 167.75 172.05 164.74 176.88 150.13 176.49 139.34 175.81 129.64 174.51 120.9 172.26 112.71 169.71 104.86 166.93 97.94 163.78 92.2 160.03 82.08 152.63 
M 81.55 152.19 77.73 149.04 73.98 144.54 70.37 139.87 67.22 135.28 65.41 129.89 
M 150.4 109.06 149.96 113.4 146.9 121.43 145.37 124.94 143.39 128.06 141.39 133.85 141.09 136.6 141.13 139.39 141.78 142.82 143 146.92 142.63 151.08 125.78 151.99 118.77 152.09 111.98 151.3 105.21 150.03 98.52 148.24 92.58 145.69 
M 81.11 151.55 76.61 144.91 73.6 141.24 68.16 133.57 61.11 124.18 60 122.04 60.78 119.83 63.04 118.94 65.12 120 68.63 126.04 74.03 136.37 78.85 144.64 82.71 152.22 
M 82.2 152.94 77.47 152.05 68.38 150.73 58.92 149.65 51.93 148.46 49.82 147.57 48.76 145.5 49.67 143.36 51.74 142.72 76.51 150.01 82.42 152.01 
M 108.33 126.53 104.93 121.76 103.26 116.15 103.5 110.3 105.63 104.84 109.42 100.37 114.45 97.37 120.18 96.17 125.99 96.89 131.25 99.47 135.39 103.61 137.97 108.87 138.69 114.68 137.49 120.41 134.49 125.45 130.02 129.23 124.57 131.36 118.71 131.6 113.1 129.93 108.33 126.53 
M 132.5 105.68 134.56 109.89 135.14 114.53 134.17 119.12 131.78 123.15 128.2 126.17 123.84 127.88 119.15 128.07 114.66 126.73 110.85 124.01 
M 115.18 118.27 113.81 116.37 113.15 114.12 113.24 111.78 114.09 109.6 115.61 107.81 117.62 106.61 119.91 106.13 122.24 106.42 124.34 107.45 126 109.1 127.03 111.21 127.32 113.53 126.84 115.83 125.64 117.84 123.85 119.35 121.67 120.2 119.33 120.3 117.08 119.63 115.18 118.27 
M 115.32 117.39 117.77 119.84 
M 113.84 113.37 120.72 120.24 
M 115.67 112.65 122.79 119.77 
M 119.33 113.76 124.43 118.86 
M 119.18 111.08 125.75 117.65 
M 119.19 108.54 126.7 116.05 
M 121.87 108.68 127.22 114.02 
M 122.38 106.63 127.04 111.3 
M 68.58 137.26 72.29 140.97 
M 65.98 117.69 70.92 122.64 
M 69.34 115.4 74.71 120.77 
M 72.66 113.07 77.38 117.79 
M 75.92 110.68 80.44 115.2 
M 79.23 108.33 83.7 112.8 
M 82.75 106.2 86.1 109.55 
M 86.32 104.12 90.9 108.69 
M 89.95 102.1 93.5 105.64 
M 93.75 100.23 98.89 105.38 
M 97.58 98.42 102.11 102.95 
M 101.46 96.65 105.09 100.28 
M 105.58 95.11 109.34 98.87 
M 109.96 93.84 113.85 97.73 
M 114.7 92.92 117.54 95.77 
M 119.51 92.08 124.09 96.66 
M 123.81 90.72 128.05 94.96 
M 128.17 89.43 131.39 92.65 
M 132.64 88.25 137.15 92.76 
M 137.11 87.06 140.92 90.87 
M 141.58 85.88 146.84 91.14 
M 146.1 84.75 149.83 88.48 
M 150.67 83.66 155.62 88.62 
M 155.27 82.61 158.6 85.94 
M 159.92 81.61 162.87 84.55 
M 164.7 80.74 168.13 84.16 
M 169.86 80.24 173.9 84.28 
M 142.38 106.26 140.76 106.28 140.07 106.55 139.79 106.82 139.5 107.57 139.24 109.9 
M 105.14 99.41 104.91 100.29 104.45 100.92 
M 133.62 175.04 135.46 174.04 136.13 173.96 136.51 174.26 
M 133.37 149.98 133.53 148.78 134.08 147.09 133.89 144.28 134.59 141.24 
M 137.91 129.43 136.61 129.52 135.98 129.36 134.44 128.47 132.54 127.1 
M 69.32 115.42 68.97 116.32 69.48 117.34 
M 166.23 84.11 166.34 83.27 166.71 82.49 166.99 82.31 167.24 82.6 
M 78.38 119.61 76.04 119.76 75.16 119.97 74.33 120.31 72.7 121.59 71.11 124.04 70.41 126 70.19 127.19 
M 160.24 159.11 159.9 157.84 160.01 156.24 161.18 152.59 161.87 151.77 164.36 150.25 
M 146.19 128.83 147.45 129.19 147.97 129.16 148.52 128.8 148.73 128.03 
M 122.03 163.92 121.72 165.55 120.72 167.8 120.1 170.01 
M 117.98 151.91 116.69 151.53 114.85 150.62 112.13 148.6 110.3 147.59 
M 79.16 121.05 76.86 120.81 75.97 120.92 75.2 121.21 74.58 121.76 71.57 126.62 70.74 128.8 
M 127.56 134.06 127.46 133.61 126.24 132.24 124.59 131.35 
M 150.8 156.22 149.53 156.61 147.17 156.98 144.98 157.84 143.56 158.81 
M 167.47 165.39 163.52 167.48 162.64 167.66 161.49 167.44 
M 163.9 176.4 162.74 176.82 
M 161.21 176.78 161.19 176.14 161.87 175.23 
M 156.41 159.66 155.51 158.52 155.05 157.16 155.66 153.77 155.45 152.29 154.95 151.05 
M 134.68 154.65 135.37 147.36 134.28 144.6 
M 155.75 129.15 157.81 126.82 158.52 125.22 158.49 123.83 158.22 123.21 156.52 121.54 
M 175.58 132.1 175.69 134.56 176 135.54 
M 166.52 104.63 165.18 104.53 163.44 103.55 162.73 102.67 161.95 100.59 
M 88.15 103.05 87.4 104.04 86.56 104.62 85.23 105.24 84.3 105.29 
M 162.75 96.72 163.39 96.07 163.75 95.17 163.56 93.53 
M 110.97 168.08 110.27 167.73 108.73 166.18 108.21 165.88 107.62 166 107.07 166.97 
M 113.1 150.89 112.78 150.32 111.91 149.49 109.55 148.22 108.91 147.96 106.39 147.5 
M 131.46 167.31 130.52 168.63 130.57 170.09 130.91 170.74 131.87 171.22 132.76 172.12 
M 110.63 141.46 108.77 141.04 107.98 141.21 107.3 141.58 106.25 142.6 103.73 143.95 102.32 144.42 100.59 144.73 
M 166.31 102.09 164.65 101.84 163.16 100.69 162.79 100.04 162.31 97.68 
M 144.79 173.46 145.58 173.77 145.97 173.74 147.61 172.79 148.62 172.5 151.86 172.51 
M 67.14 123.57 67.8 124.23 68.02 124.86 
M 154.98 142.84 154.85 142.13 154.13 141.7 
M 139.01 170.13 137.82 170.35 137.03 170.93 136.71 171.97 136.53 174.21 
M 155.06 108.35 150.96 105.57 147.07 104.93 
M 173.51 148.74 172.4 147.99 170.98 147.77 170.19 147.83 168.36 148.34 
M 139.64 105.72 138.99 106.31 138.57 107.01 138.48 108.22 138.04 109.47 
M 134.3 132.89 132.91 130.21 132.2 129.62 131.28 129.26 
M 146.64 158.1 145.36 158.75 144.73 159.28 144.51 161.11 144.24 161.76 143.66 162.04 142.91 162.08 
M 147.37 117.98 148.34 118.52 151.14 119.42 151.56 119.37 151.81 119 
M 146.96 89.54 145.37 90.9 143.63 92 141.57 92.49 140.67 92.45 140.24 92.2 
M 151.41 137.53 152.01 138.19 152.46 139.03 152.6 140.14 152.35 140.45 151.05 141.13 149.41 141.74 
M 165.85 175.09 164.4 175.4 163.07 175.43 
M 90.51 101.82 89.83 104.22 
M 167.97 119.18 168.97 119.51 170.53 120.79 171.16 120.82 
M 134.77 138.51 134.03 140.58 133.77 140.8 133.22 140.77 
M 88.31 156.25 88.55 157.38 
M 91.83 113.51 92.55 115.16 94.67 118.78 94.7 119.62 94.08 120.87 
M 82.16 152.58 82.81 153.62 
M 78.78 148.13 78.42 148.79 78.3 149.5 78.72 149.27 79.52 149.24 
M 75.73 143.83 74.68 145 74.28 146.17 74.98 145.48 76.67 144.99 
M 72.54 139.72 70.93 141.21 70.26 142.84 71.23 141.69 73.34 140.87 
M 69.51 135.46 67.19 137.42 66.25 139.51 67.49 137.9 70.34 136.63 
M 66.44 131.24 63.45 133.63 62.23 136.18 63.75 134.11 67.31 132.4 
M 63.25 127.12 59.7 129.84 58.21 132.86 60 130.32 64.1 128.26 
M 60.37 122.75 55.96 126.05 54.2 129.53 56.26 126.53 61.04 124.04 
M 82.23 152.81 83.23 153.04 
M 77.22 150.24 77.86 149.85 77.74 150.42 
M 71.88 148.67 72.33 147.77 73.42 146.87 72.88 147.89 72.9 148.98 
M 66.7 147.17 67.48 145.27 68.97 143.9 68.03 145.4 67.9 147.47 
M 61.59 145.62 62.62 142.77 64.52 140.92 63.17 142.9 62.85 146.06 
M 56.49 144.09 57.77 140.27 60.07 137.94 58.32 140.4 57.8 144.46 
M 51.31 142.86 52.92 137.78 55.62 134.97 53.47 137.9 52.73 143.01 
M 57.43 149.38 60.88 151.35 65.87 153.89 71.04 156.03 81.65 159.5 86.99 161.03 97.94 163.78 
M 80.71 157.1 78.8 157.08 
M 177.2 86.22 181.51 90.53 
M 178.47 79.96 187.68 89.16 
M 186.91 80.85 194.42 88.37 
M 196.83 83.24 207.78 94.19 
M 206.1 84.97 213.25 92.12 
M 214.5 85.83 220.43 91.76 
M 222.86 86.66 232.55 96.34 
M 232.16 88.42 238.56 94.81 
M 242.76 91.48 248.72 97.44 
M 252.76 93.94 263.67 104.86 
M 261.67 95.31 271.97 105.61 
M 270.18 96.29 278.48 104.58 
M 278.23 96.79 288.89 107.45 
M 285.75 96.78 294.13 105.16 
M 292.92 96.41 300.07 103.56 
M 300.29 96.25 309.3 105.26 
M 308.47 96.89 316.23 104.64 
M 317.51 98.39 325.93 106.81 
M 326.83 100.17 334.29 107.63 
M 336.15 101.95 345.72 111.52 
M 345.86 104.13 354.95 113.21 
M 356.54 107.27 366.89 117.61 
M 173.79 173.24 176.81 179.28 
M 175.31 169.69 178.69 176.43 
M 171.86 156.19 174.31 161.08 
M 173.31 152.49 176.82 159.5 
M 179.34 164.56 181.87 169.62 
M 177.74 154.75 180.26 159.79 
M 181.94 163.16 184.47 168.22 
M 182 156.68 182.86 158.39 
M 184.54 161.76 187.91 168.5 
M 193.97 174.02 196.55 179.18 
M 195.87 171.22 198.4 176.28 
M 177.14 127.17 178.39 129.67 
M 178.15 122.6 179.5 125.31 
M 179.31 111.72 180.11 113.32 
M 179.41 105.33 183.06 112.63 
M 190.64 127.8 191.49 129.48 
M 179.55 99.02 186.87 113.65 
M 192.77 125.45 194.45 128.82 
M 173.46 80.24 174.82 82.96 
M 178.94 91.2 189.89 113.11 
M 195.79 124.91 198.02 129.35 
M 176.67 80.06 193.1 112.93 
M 179.88 79.88 197.15 114.43 
M 183.38 80.29 199.81 113.16 
M 204.03 121.58 204.87 123.27 
M 186.96 80.86 204.24 115.42 
M 207.61 122.16 209.3 125.53 
M 190.66 81.67 207.1 114.54 
M 209.63 119.59 213.69 127.72 
M 194.87 83.49 209.2 112.14 
M 210.89 115.51 216.7 127.14 
M 198.18 83.51 209.56 106.27 
M 212.93 113.01 219.7 126.56 
M 201.86 84.27 212.39 105.34 
M 216.61 113.76 222.7 125.96 
M 205.89 85.74 214.32 102.59 
M 219.38 112.71 225.82 125.6 
M 208.96 85.29 218.65 104.67 
M 222.03 111.41 228.8 124.97 
M 212.45 85.67 231.99 124.75 
M 215.89 85.94 235.23 124.63 
M 219.32 86.21 238.4 124.38 
M 222.72 86.41 241.46 123.91 
M 224.9 84.19 231.22 96.83 
M 233.75 101.89 244.54 123.45 
M 227.09 81.97 235.1 97.99 
M 235.94 99.67 247.61 123.01 
M 229.28 79.75 237.29 95.77 
M 238.13 97.45 238.97 99.14 
M 240.66 102.51 247.4 115.99 
M 231.47 77.54 240.32 95.23 
M 244.53 103.66 249.59 113.77 
M 233.66 75.32 243.35 94.7 
M 245.88 99.76 251.78 111.56 
M 235.85 73.1 256.49 114.39 
M 258.18 117.77 259.02 119.45 
M 238.04 70.88 262.9 120.6 
M 240.22 68.66 266.79 121.79 
M 242.41 66.44 248.73 79.08 
M 249.58 80.77 251.26 84.14 
M 252.1 85.83 258.85 99.31 
M 259.69 101 265.59 112.79 
M 244.6 64.22 256.82 88.66 
M 257.66 90.35 260.19 95.41 
M 263.56 102.15 268.62 112.26 
M 246.79 62.01 248.05 64.53 
M 248.9 66.22 251.42 71.28 
M 252.27 72.96 262.38 93.19 
M 268.28 104.99 270.81 110.04 
M 248.98 59.79 249.4 60.63 
M 253.61 69.06 267.1 96.03 
M 270.47 102.77 271.31 104.45 
M 273 107.82 273.84 109.51 
M 275.53 112.88 276.37 114.57 
M 252.43 60.1 253.27 61.78 
M 254.12 63.47 262.54 80.32 
M 263.39 82.01 268.44 92.12 
M 270.13 95.49 271.81 98.86 
M 281.08 117.4 281.93 119.09 
M 256.3 61.25 264.73 78.1 
M 266.42 81.47 280.74 110.13 
M 284.12 116.87 285.67 119.98 
M 309.4 167.44 310.24 169.12 
M 255.54 53.13 255.96 53.97 
M 256.81 55.66 282.09 106.22 
M 286.3 114.65 288.88 119.8 
M 257.73 50.91 258.15 51.75 
M 260.68 56.81 268.45 72.34 
M 278 91.46 278.98 93.41 
M 280.7 96.85 283.65 102.75 
M 288.71 112.87 292.08 119.61 
M 262.87 54.59 266.72 62.29 
M 284.01 96.87 286.96 102.77 
M 291.17 111.2 295.26 119.37 
M 262.11 46.47 262.53 47.32 
M 264.22 50.69 267.72 57.7 
M 287.22 96.7 291.01 104.28 
M 293.54 109.34 298.58 119.43 
M 264.3 44.26 266.82 49.29 
M 290.43 96.52 293.38 102.42 
M 299.28 114.22 301.88 119.43 
M 324.56 164.78 327.24 170.14 
M 266.49 42.04 267.35 43.77 
M 293.66 96.38 296.61 102.28 
M 301.66 112.39 304.95 118.97 
M 327.44 163.95 330.31 169.69 
M 268.67 39.82 268.84 40.15 
M 296.89 96.26 300.69 103.84 
M 304.06 110.58 308.37 119.21 
M 300.18 96.24 303.13 102.14 
M 305.66 107.2 311.84 119.56 
M 304.01 97.29 304.85 98.97 
M 307.38 104.03 315.22 119.71 
M 315.84 114.35 318.3 119.29 
M 312.67 101.42 313.51 103.11 
M 319.41 114.91 321.43 118.96 
M 344.69 165.47 345.36 166.81 
M 314.13 97.76 317.08 103.66 
M 322.98 115.46 324.73 118.95 
M 345.74 160.97 348.59 166.67 
M 317.77 98.44 320.72 104.34 
M 322.41 107.71 323.25 109.4 
M 325.78 114.45 327.96 118.81 
M 321.43 99.15 326.06 108.42 
M 326.91 110.11 330.28 116.85 
M 325.07 99.84 328.86 107.43 
M 329.7 109.11 330.55 110.8 
M 328.7 100.51 332.49 108.1 
M 332.35 101.21 333.61 103.73 
M 341.2 118.9 341.85 120.2 
M 336 101.92 337.27 104.45 
M 342.32 114.57 344.85 119.62 
M 339.68 102.69 340.95 105.22 
M 345.16 113.65 348.72 120.76 
M 343.42 103.56 344.68 106.09 
M 347.17 104.47 347.59 105.31 
M 353.95 111.44 355.64 114.81 
M 357.81 112.57 359.5 115.94 
M 360.34 117.62 361.19 119.31 
M 362.03 121 362.27 121.48 
M 359.3 108.95 365.73 121.8 
M 363.12 109.99 369.19 122.13 
M 368.46 114.07 370.12 117.39 
M 220.43 291.39 216.14 297.7 
M 220.43 291.39 220.94 297.7 
M 217.67 295.6 220.67 295.6 
M 226.73 294.39 226.31 293.8 225.8 293.5 224.9 293.5 224.21 293.8 223.43 294.39 222.86 295.3 222.68 295.89 222.71 296.8 223.13 297.39 223.64 297.7 224.54 297.7 225.23 297.39 226.01 296.8 
M 232.4 293.5 231.14 297.7 
M 232.13 294.39 231.71 293.8 231.2 293.5 230.3 293.5 229.61 293.8 228.83 294.39 228.26 295.3 228.08 295.89 228.11 296.8 228.53 297.39 229.04 297.7 229.94 297.7 230.63 297.39 231.41 296.8 
M 234.8 293.5 233.54 297.7 
M 234.44 294.7 235.61 293.8 236.3 293.5 237.2 293.5 237.71 293.8 237.74 294.7 236.84 297.7 
M 243.53 294.39 243.11 293.8 242.6 293.5 241.7 293.5 241.01 293.8 240.23 294.39 239.66 295.3 239.48 295.89 239.51 296.8 239.93 297.39 240.44 297.7 241.34 297.7 242.03 297.39 242.81 296.8 
M 246.53 291.39 244.64 297.7 
M 245.54 294.7 246.71 293.8 247.4 293.5 248.3 293.5 248.81 293.8 248.84 294.7 247.94 297.7 
M 251.6 293.5 250.7 296.5 250.73 297.39 251.24 297.7 252.14 297.7 252.83 297.39 254 296.5 
M 254.9 293.5 253.64 297.7 
M 260.02 294.39 259.9 293.8 259.1 293.5 258.2 293.5 257.21 293.8 256.73 294.39 256.85 295 257.36 295.3 258.77 295.6 259.27 295.89 259.39 296.5 258.83 297.39 257.84 297.7 256.94 297.7 256.13 297.39 256.01 296.8 
M 266.6 293.5 265.9 293.8 265.13 294.39 264.56 295.3 264.38 295.89 264.4 296.8 264.83 297.39 265.34 297.7 266.24 297.7 266.93 297.39 267.7 296.8 268.27 295.89 268.45 295.3 268.43 294.39 268.01 293.8 267.5 293.5 266.6 293.5 
M 272.02 291.39 270.5 296.5 270.52 297.39 271.04 297.7 271.64 297.7 
M 270.5 293.5 272.6 293.5 
M 273.86 295.3 277.45 295.3 277.64 294.7 277.52 294.1 276.8 293.5 275.89 293.5 275.2 293.8 274.43 294.39 273.86 295.3 273.68 295.89 273.7 296.8 274.13 297.39 274.64 297.7 275.54 297.7 276.23 297.39 277.01 296.8 
M 283.13 294.39 282.7 293.8 282.2 293.5 281.3 293.5 280.61 293.8 279.83 294.39 279.26 295.3 279.08 295.89 279.11 296.8 279.52 297.39 280.04 297.7 280.94 297.7 281.63 297.39 282.4 296.8 
M 286.13 291.39 284.24 297.7 
M 285.14 294.7 286.31 293.8 287 293.5 287.89 293.5 288.4 293.8 288.44 294.7 287.54 297.7 
M 291.2 293.5 290.3 296.5 290.33 297.39 290.83 297.7 291.74 297.7 292.43 297.39 293.6 296.5 
M 294.5 293.5 293.24 297.7 
M 299.63 294.39 299.51 293.8 298.7 293.5 297.8 293.5 296.81 293.8 296.33 294.39 296.45 295 296.95 295.3 298.37 295.6 298.88 295.89 298.9 296.8 298.43 297.39 297.44 297.7 296.54 297.7 295.73 297.39 295.61 296.8 
M 301.22 297.1 300.83 297.39 301.04 297.7 301.43 297.39 301.22 297.1 
"/></svg>
