<svg xmlns="http://www.w3.org/2000/svg" width="520" height="320"><rect x="0" y="0" width="520" height="320" fill="floralwhite"/><rect x="10" y="10" width="500" height="300" stroke="black" stroke-width="1" fill="none"/><path stroke="black" stroke-width="1" fill="none" stroke-linecap="round" stroke-linejoin="round" d="
M 142.8 66.14 153.57 65.22 164.45 65.11 175.33 65.54 186.2 66.41 197.08 67.51 207.96 68.84 218.84 70.46 240.6 74.32 262.35 77.65 284.11 82.3 305.87 85.87 316.75 87.85 338.51 92.85 349.38 95.12 382.02 100.15 392.9 102.39 403.78 105.54 404.76 106.26 
M 404.76 148.92 403.78 150.12 392.9 155.42 382.02 159.49 371.14 162.93 360.26 165.95 338.51 171.45 327.63 173.93 305.87 178.03 284.11 181.63 273.23 182.56 262.35 183.09 251.48 184.05 240.6 185.8 229.72 187.82 218.84 189.16 207.96 188.53 186.2 182.71 164.45 178.65 153.57 176.39 142.69 173.81 131.83 170.59 
M 403.18 105.36 387.25 107.36 378.91 108.67 366.93 110.89 348.46 114.81 341.24 115.99 337.39 116.32 329.33 116.62 317.04 116.75 293.82 118.34 280.48 118.56 272.43 117.65 258.73 115.56 
M 220.77 111.31 211.19 110.1 206.05 108.71 
M 192.83 103.41 189.33 102.2 
M 182.18 99.96 178.53 99.07 
M 163.46 96.09 151.67 95.35 
M 139.81 153.93 143.13 160.75 
M 145.3 132.53 146.94 135.51 
M 160.81 164.18 163.11 168.84 
M 144.22 120.32 148.38 128.39 
M 151.18 133.65 151.26 133.79 
M 146.03 113.2 155.42 131.91 
M 171.87 164.8 172.51 166.15 
M 147.84 106.19 152.24 114.6 
M 147.64 95.84 151.93 102.9 154.47 107.58 156.88 112.6 160.4 120.53 
M 162.88 125.86 163.84 127.81 
M 148.76 87.78 155.58 98.36 158.12 102.87 159.32 105.32 
M 161.64 110.4 163.9 115.73 
M 166.23 121.13 168.49 125.85 
M 148.34 77.78 158 91.71 
M 160.61 95.88 161.9 98.04 164.32 102.79 165.44 105.38 
M 167.66 110.69 171.08 118.89 174.43 125.66 
M 145.01 65.96 147.82 68.85 152.79 74.81 160.38 85.24 165.65 93.34 168.14 97.91 170.46 102.93 174.98 113.71 177.5 119.17 179.73 123.51 
M 151.37 65.41 154.08 68.21 158.95 74.13 164.03 80.98 169.29 88.9 171.84 93.35 174.25 98.07 180.12 111.15 
M 182.69 116.58 185.04 121.32 
M 212.77 174.12 212.93 174.31 
M 158.1 65.17 162.64 70.4 167.63 77.01 170.24 80.73 175.44 88.99 179.08 95.81 
M 181.43 100.69 190.58 120.14 
M 164.81 65.12 168.79 69.99 173.88 76.97 179.12 84.84 181.55 89.04 186.15 98.17 193.45 113.88 195.59 118.84 
M 171.51 65.39 175.11 69.96 180.44 77.14 183 80.97 185.37 84.92 189.72 93.39 194.26 103.13 200.26 117.63 
M 231.93 174.97 234.68 178.63 
M 178.29 65.78 181.89 70.18 187.11 77.36 189.41 81.08 191.49 84.9 195.5 93.31 197.62 98.18 204.87 116.43 
M 185.43 66.34 188.79 70.47 191.29 73.92 193.52 77.43 196.44 82.91 
M 198.29 86.92 206.2 106.53 
M 208.23 111.55 209.75 115.17 
M 192.65 67.06 195.32 70.56 197.49 73.87 199.45 77.31 201.27 80.99 210.86 104.49 215.12 113.77 
M 199.45 67.8 201.24 70.37 203.26 73.68 205.13 77.25 206.9 81.18 210.52 90.25 213.65 97.53 
M 215.88 102.28 220.39 111.8 
M 205.9 68.59 208.89 73.5 210.78 77.26 216.58 90.55 226.06 110.93 
M 212.34 69.5 214.66 73.38 216.7 77.29 221.78 88.28 
M 223.83 92.94 231.39 109.55 
M 219.02 70.5 220.8 73.36 222.93 77.34 224.95 81.61 230.91 95.47 236.7 108.17 
M 277.43 169.69 280.39 172.42 
M 225.91 71.7 229.08 77.58 232.04 84.1 
M 233.99 88.65 238.19 98.3 
M 240.52 103.36 242.32 107.01 
M 268.54 151.98 270.35 154.18 275.3 159.37 
M 278.45 162.53 281.43 165.5 
M 284.28 168.33 287.08 171.04 
M 232.52 72.87 235.23 77.97 237.25 82.23 243.54 96.22 246.06 101.11 250.17 108.45 
M 268.96 141.45 271.15 144.99 272.77 147.11 
M 276.11 151.12 285.58 161.16 
M 239.17 74.06 241.55 78.42 248.19 91.61 256.23 105.77 263.53 119.17 
M 272.73 135.49 273.81 137.23 
M 276.9 141.79 278.54 144.01 282.04 148.06 286.93 153.42 
M 289.8 156.7 292.38 159.79 
M 294.81 162.72 297.24 165.49 
M 246.03 75.14 258.35 95.97 261 100.68 264.78 108.06 
M 267.21 113.05 270.92 120.39 273.51 125.04 279.16 134.2 282.49 138.68 287.84 144.89 
M 296.5 155.41 298.8 158.46 
M 253.42 76.26 260.45 86.99 263.12 91.3 265.68 95.86 275.01 115.45 278.71 122.37 
M 281.45 126.8 282.9 129 286.23 133.4 288.05 135.55 
M 291.69 139.77 296.73 145.71 298.07 147.51 
M 300.57 150.97 302.81 154.2 
M 307.26 160.04 312.33 165.52 
M 261.21 77.48 264.97 82.94 267.6 87.07 270.08 91.47 281.64 115.27 284.1 119.74 286.87 124.04 290.08 128.27 295.48 134.61 
M 298.94 138.75 302 142.72 
M 269.1 79.1 271.79 83.29 276.71 91.88 286.22 110.51 288.64 114.93 291.31 119.19 296.04 125.36 
M 299.46 129.47 304.48 135.7 307.35 139.8 311.94 147.34 315.21 152.25 
M 317.53 155.3 319.99 158.26 
M 328.3 167.38 329.97 169.07 
M 276.33 80.64 283.3 92.29 293.46 110.17 296.1 114.38 300.54 120.46 
M 303.75 124.44 308.57 130.55 311.41 134.76 315 140.91 
M 326.52 157.57 332.11 164.01 
M 283.26 82.12 300.82 109.61 303.59 113.67 312.79 125.48 314.19 127.57 
M 316.83 131.81 322.52 142.08 324.64 145.54 326.85 148.74 330.49 153.56 
M 290.2 83.34 299.71 96.58 307.92 108.97 315.42 118.73 
M 318.29 122.69 319.67 124.7 322.17 128.95 327.69 138.99 
M 334.43 149.17 337.06 152.71 
M 297.75 84.59 303.5 92.16 311.81 104.37 320.72 116.09 324.84 122.04 
M 333.77 137.58 335.89 141.03 
M 338.27 144.54 343.74 152.07 
M 305.59 85.83 309.89 91.79 315.39 99.83 319.81 105.78 
M 322.8 109.69 325.75 113.57 
M 328.63 117.46 332.65 123.37 333.79 125.31 
M 335.91 129.11 339.78 136.27 
M 344.6 143.68 347.38 147.57 
M 353.52 155.29 356.76 158.93 
M 313.46 87.25 318.9 95.34 321.8 99.35 336.5 118.7 339.96 124.36 
M 345.75 135.26 349.34 140.93 353.65 146.84 
M 356.78 150.81 360.04 154.67 
M 321.23 88.86 325.34 94.96 331.15 102.97 340.03 114.1 342.62 117.76 345.76 123.25 
M 359.69 146.09 369.2 157.65 
M 328.97 90.62 334.57 98.75 337.45 102.55 345.94 113.02 348.32 116.56 350.43 120.22 356.11 131.33 359.67 137.2 
M 336.7 92.43 340.87 98.36 343.63 101.88 349.14 108.43 351.69 111.76 354.01 115.32 356.11 119.03 358.94 124.63 
M 360.86 128.44 364.14 134.34 366.85 138.45 374.6 149.1 
M 344.53 94.11 347.14 97.65 355.16 107.15 357.57 110.52 361.95 117.92 367.8 129.59 371.64 136.06 
M 377.62 144.98 380.51 149.09 
M 353.06 95.72 358.97 102.66 361.36 105.89 363.62 109.36 366.92 115.02 
M 368.97 118.92 370.94 122.92 
M 383.81 145.23 386.41 149.12 
M 362.27 97.18 365.48 101.39 367.67 104.75 373.15 114.15 
M 375.26 118.21 379.61 127.06 
M 384.74 136.63 387.39 141.15 
M 370.67 98.37 376.22 107.43 380.64 115.43 387.49 129.46 391.13 136.56 
M 378.68 99.62 383.86 108.58 
M 386.12 112.7 389.52 119.4 392.91 126.68 
M 397.43 136.09 399.72 140.45 
M 386.85 101.14 394.08 114.26 396.32 118.89 399.54 126.11 
M 395.21 103.06 401.01 113.66 404.76 122.05 
M 404.03 105.73 404.76 107.01 
M 144.59 65.99 143.47 67.15 
M 150.85 65.46 145.98 70.65 
M 156.7 65.19 153.87 68.24 147.77 75.26 
M 162.32 65.13 158.52 69.26 
M 155.5 72.84 148.8 81.35 
M 167.91 65.25 166.17 66.96 163.14 70.35 160.16 74 148.53 89.81 
M 173.75 65.48 172.37 66.72 169.29 69.97 166.3 73.49 163.37 77.27 157.48 85.53 147.53 100.07 
M 180.03 65.92 175.64 69.97 172.51 73.34 169.56 76.95 163.78 84.95 156.35 96.12 
M 153.39 100.65 146.93 110.69 
M 186.63 66.45 182.45 70.21 179.08 73.49 175.88 77.01 174.38 78.88 
M 171.45 82.73 167.14 88.93 158.12 102.87 152.35 112.19 143.75 126.57 
M 192.88 67.08 182.51 77.21 179.27 80.88 176.23 84.8 170.42 93.31 164.31 102.79 158.22 112.7 151.58 124.15 
M 146.75 132.79 144.95 136.01 
M 198.44 67.68 185.75 81.03 182.51 84.89 179.45 89.03 176.51 93.43 165.69 110.56 
M 162.66 115.59 159.84 120.43 
M 154.88 129.55 153.16 132.84 
M 142.85 150.49 142.39 151.22 
M 203.47 68.29 188.7 84.92 185.51 89.04 182.5 93.46 170.16 113.49 162.98 125.85 
M 142.71 160.68 139.84 164.6 
M 208.36 68.9 194.69 84.84 191.45 88.97 188.38 93.41 169.27 125.79 
M 152.42 156.3 148.71 161.71 
M 213.24 69.63 200.44 84.9 197.25 88.92 194.18 93.31 191.28 98.11 182.82 113.88 178.2 121.8 
M 218.44 70.4 212.58 77.27 206.06 85.32 202.88 89.36 199.84 93.57 198.41 95.86 
M 195.61 100.63 187.6 116.61 
M 223.88 71.35 218.63 77.29 215.19 81.48 208.52 90.04 205.42 94.31 202.51 98.7 199.76 103.39 197.19 108.48 193.46 116.6 
M 168.03 162.9 166.29 165.21 
M 229.41 72.32 224.85 77.39 221.4 81.53 214.44 90.5 211.18 95.01 205.19 103.98 202.47 108.76 198.77 116.59 
M 169.26 169.85 167.11 172.49 
M 235.03 73.32 230.98 77.69 227.55 81.7 220.66 90.56 210.86 104.49 207.84 109.11 205.08 113.97 203.75 116.72 
M 240.78 74.35 233.68 82.01 230.19 86.2 226.77 90.65 213.69 109.3 209.94 115.12 
M 246.82 75.26 239.95 82.41 236.35 86.52 232.85 90.86 229.52 95.42 224.75 102.41 
M 221.56 107.06 217.3 113.21 
M 252.97 76.19 246.53 82.8 242.73 86.94 239.09 91.23 235.63 95.71 232.38 100.33 225.11 111.18 
M 259.17 77.16 253.59 82.9 245.72 91.59 241.99 96.15 238.58 100.75 232.94 109.15 
M 265.27 78.28 260.87 82.88 253.04 91.53 249.04 96.26 243.48 103.5 
M 271.2 79.55 264.37 86.99 254.6 98.5 
M 250.68 103.49 246.57 109.04 
M 207.73 174.61 205.1 178.32 
M 277 80.79 271.23 87.27 264.05 95.85 256.23 105.77 251.72 111.9 
M 282.64 81.99 270.9 96.03 263.55 105.56 256.95 114.63 
M 288.36 83.02 272.15 103.27 
M 268.55 108.1 265 113.09 
M 223.83 178.07 221.06 181.14 
M 294.15 84.01 273.42 110.6 265.96 121.51 
M 300.03 84.95 291.17 96.86 280.11 110.61 274.83 117.87 
M 271.58 122.77 269.93 125.35 
M 305.84 85.87 296.42 98.93 
M 292.82 103.52 288.98 108.16 
M 285.11 112.85 279.67 120.01 274.95 127.34 
M 311.36 86.87 307.7 91.93 301.68 100.83 298.18 105.44 288.41 117.2 
M 281.54 126.82 278.51 131.85 
M 275.44 137.08 272.21 142.4 
M 316.74 87.84 314.03 91.52 305.14 104.93 301.64 109.54 292.08 121.35 
M 288.59 126.16 286.94 128.59 282.51 136.26 
M 321.98 89.03 317.44 95.44 311.81 104.37 308.71 108.89 303.44 115.84 
M 299.75 120.56 294.44 127.79 291.31 132.8 285.47 143.01 282.29 148.03 274.01 159.6 
M 269.86 165.2 267.81 167.94 
M 264.84 171.83 261.92 175.6 
M 327.31 90.23 323.86 95.02 315.51 108.25 312.48 112.73 302.13 126.85 298.86 131.85 294.37 139.42 
M 291.37 144.37 289.84 146.82 286.51 151.54 281.37 158.3 
M 332.75 91.5 330.3 94.81 327.47 99.04 319.29 112.06 314.71 118.81 
M 311.39 123.49 306.3 130.86 296.96 145.68 295.33 147.98 
M 292 152.53 278.58 169.47 
M 338.17 92.77 333.84 98.79 322.94 115.89 303.61 144.62 297.04 153.51 288.64 164.04 
M 285.41 168.1 282.29 172.04 
M 343.47 93.89 340.15 98.42 327.98 117.53 
M 324.94 122.04 316.78 134.1 309.98 143.68 303.35 152.35 295.13 162.67 
M 291.96 166.7 288.9 170.65 
M 348.58 94.95 346.4 97.75 343.62 101.88 335.93 114.65 328.25 126.06 
M 318.07 140.56 314.59 145.05 
M 311.17 149.27 298.26 165.26 
M 353.74 95.83 349.82 100.87 347.09 105.07 340.74 116.04 
M 337.83 120.61 331.27 129.97 
M 324.44 139.67 319.24 146.45 314.06 152.4 
M 307.55 160 301.51 167.71 
M 358.86 96.67 356.4 99.61 353.28 103.84 350.5 108.14 345.27 117.23 342.36 121.93 325.56 145.35 320.47 151.57 
M 317.1 155.35 310.73 162.62 
M 363.91 97.42 359.71 102.51 356.57 106.86 353.69 111.33 348.03 120.74 343.29 127.71 
M 339.96 132.31 328.5 148.4 325.2 152.58 320.3 158.2 
M 368.91 98.12 366.22 101.26 362.8 105.61 359.63 110.11 350.57 124.24 342.59 135.75 
M 339.46 140.29 336.37 144.84 
M 333.23 149.31 331.64 151.51 326.83 157.49 
M 373.82 98.86 369.12 104.52 365.74 108.99 353.05 127.78 342.69 143.88 
M 339.69 148.35 336.59 152.72 
M 330.32 160.66 327.23 164.19 
M 378.74 99.63 372.02 108.03 358.73 126.71 355.64 131.41 352.81 136.12 348.9 143.11 
M 343.26 152.09 340.2 156.31 
M 337.1 160.27 334 163.92 
M 330.96 167.29 329.21 169.2 
M 383.75 100.5 378.44 107.13 369.79 118.8 
M 366.3 123.44 361.37 130.45 359.95 132.81 
M 357.3 137.55 352.48 146.96 
M 349.87 151.49 347.03 155.81 
M 388.84 101.55 385.03 106.3 370.68 125.05 367.29 129.63 365.81 131.98 
M 363.09 136.7 360.75 141.47 
M 358.57 146.21 355.13 153.11 352.45 157.39 350.98 159.37 
M 394.13 102.75 388.06 110.28 373.61 129.32 370.42 133.82 369.08 136.1 
M 366.62 140.74 364.51 145.47 
M 399.34 104.25 391.14 114.49 378.59 131.68 
M 375.47 136.15 374.01 138.33 371.5 142.71 368.39 149.49 
M 366.42 153.96 365.42 156.16 364.26 158.21 
M 404.39 105.99 398.05 113.93 392.33 121.69 
M 388.71 126.89 382.08 136.5 
M 379.16 140.82 375.34 147.06 374.27 149.17 
M 404.76 113.58 397.16 123.82 388.58 136.64 
M 385.57 141.13 380.18 149.14 
M 404.76 121.98 400.05 128.58 391.76 141.02 
M 383.49 152.83 381.56 155.76 
M 404.76 130.55 397.91 140.58 
M 394.82 145.02 391.9 149 
M 404.14 140.05 397.82 148.85 
M 240.6 74.32 246.1 67.86 248.4 65.48 250.6 62.39 252.79 60.62 254.22 59.2 256.08 56.92 258.64 54.92 262.06 52.63 264.76 51.29 266.31 51.29 268.8 51.8 271.75 49.81 274.19 47.45 271.75 53.27 271.34 56.08 271.26 59.07 272.42 63.31 273.06 67.3 272.56 70.22 271.48 71.9 271.64 74.09 273.06 78.2 274.58 80.27 
M 273.23 79.99 273.23 79.99 
M 245.47 75.06 247.35 73.01 249.12 70.45 251.27 68.57 254.33 63.82 257.08 62.29 259.87 59.38 261.52 57.07 267.89 54.7 
M 250.34 75.79 252.42 73.96 253.77 71.1 255.48 68.85 256.95 67.23 263.23 62.4 266.16 60.36 
M 255.21 76.54 257.37 75.12 258.36 72.85 260.55 70.56 263.22 68.18 265.85 66.79 
M 260.08 77.3 262.39 75.92 263.51 74.35 265.59 73.18 
M 264.92 78.2 266.75 76.9 268.91 76.03 
M 269.73 79.24 273.88 79.02 
M 142.9 136.5 149.17 134.94 152.13 133.31 154.92 132.02 157.82 131.37 162.92 128.19 168.71 125.76 173.57 126.07 176.56 124.63 180.84 123.12 183.98 121.45 186.88 121.1 241.91 106.82 247.06 109.29 253.14 112.68 260.88 116.61 275.87 131.08 275.49 133.52 272.92 135.1 270.13 140.63 267.69 142.34 266.66 145.14 267.67 148.1 268.35 150.72 268.7 153.03 269.91 156.18 270.76 158.98 272.31 162.48 270.51 164.85 265 167.7 262.62 169.49 258.55 173.76 255.52 173.78 250.43 174.79 244.49 174.94 242.4 175.91 238.84 175.39 234.88 174.48 232.32 174.97 229.31 175.01 225.6 174.35 221.55 174.58 188.44 172.86 184.94 170.8 181.58 169.81 177.06 167.61 173.77 165.27 171.65 164.74 169.14 163.66 166.94 162.16 163.54 161.04 159.99 160.58 157.2 159.03 154.68 157.35 149.62 154.96 146.97 152.88 143.41 150.86 140.93 149.24 
M 142.88 137.75 148.9 136.74 151.87 135.86 166.68 131.24 169.17 129.9 172.33 129.58 175.24 128.8 177.85 127.84 184.02 127.44 187.31 126.81 190.51 125.8 193.22 124.35 197 123.1 202.16 120.11 205.15 117.66 207.95 117.3 210.33 117.54 212.93 118.62 219.36 117.58 222.23 115.56 
M 142.69 139.39 149.13 138.6 158.17 137.8 164.86 135.38 168.4 135 170.96 134.38 176.76 133.38 182.24 133.68 185.2 133.63 188.3 132.62 193.88 132.08 200.29 130.74 203.73 129.75 206.96 129.23 209.38 128.07 213.33 126.85 216.64 125.09 221.95 126.51 224.43 125.74 227.67 125.39 230.3 123.6 235.75 123.16 240.46 122.12 243.43 121.73 248.52 120.7 
M 143.36 141.04 149.16 140.76 158.55 140.77 162.23 140.28 165.18 139.58 168.65 139.19 171.72 138.47 174.22 138.58 177.63 137.95 181.01 137.58 183.22 138.76 189.61 138.76 192.45 139.04 195.14 138.86 198.12 137.87 205.84 136.65 208.56 135.99 210.35 134.89 212.14 134.18 215.29 134.57 217.78 134.5 
M 146.52 143.07 155.6 143.96 171.38 143.15 174.43 143.31 177.17 143.01 187.22 143.86 189.79 144.73 192 144.31 195.16 144.82 198.64 144.8 202.19 145.68 205.03 146.97 210.76 145.24 213.46 144.78 217.02 144.85 
M 141.81 144.2 143.22 144.61 149.49 145.69 152.26 146.52 155.46 147.18 158.78 146.94 161.57 147.16 164.44 147.69 170.89 147.95 173.64 148.48 177.28 148.48 180.63 148.83 183.46 150.2 186.68 150.5 188.94 150.38 191.63 151.04 193.94 151.3 197.68 152.65 201.59 153.24 204.26 153.36 207.72 154.02 210.18 154.29 216.09 154.09 218.76 154.37 222.42 154.37 225.27 155.32 228.27 155.53 232.25 156.87 235.5 156.78 239.15 157.08 242.39 158.1 245.21 157.08 
M 146.47 147.36 149.64 148.15 152.42 149.35 155.16 150.16 163.85 152.05 170.4 153.86 173.56 153.92 176.46 154.49 179.05 155.53 184.37 157.26 186.77 157.27 196.4 158.6 200.11 160.06 203.32 160.65 205.61 161.47 207.9 162.07 211.24 164.21 214.7 165.6 218.27 166.44 222.01 166.27 225.44 166.37 227.81 167.33 230.26 168.99 234.64 169.16 238.18 170.08 240.21 170.4 244.36 170.67 247.47 171.52 251.79 173.24 256.58 174.02 
M 149.75 151.12 152.06 152.46 157.21 154.9 160.14 155.63 165.56 157.89 168.73 159.62 172.34 159.51 175.57 160.11 181.63 161.88 184.45 163.02 187.4 164.45 189.58 165.09 191.38 165.91 194.42 166.78 197.67 168.93 
M 197.08 185.71 200.52 189.11 203.25 191.25 205.32 193.74 207.01 197.1 208.25 200.1 210.47 203.05 213.58 205.24 215.79 207.57 218.37 209.3 223.09 215.57 226.72 219.87 222.65 226.6 220.36 228.33 218.62 230.61 217.67 233.6 216.98 236.61 216.7 240.03 215.58 242.78 213.23 244.59 210.65 246.16 208.47 248.14 205.63 253.57 201.98 255.75 192.63 262.54 192.51 257.07 191.95 254.84 191.81 252.44 190.8 250 191.26 247.04 190.68 244.72 191.03 241.42 191.77 237.65 190.15 235.16 189.89 226.91 189.16 219.91 189.72 217.2 189.67 213.98 189.95 210.76 188.65 208.69 188.63 205.83 187.76 202.78 188.27 196.35 187.22 189.93 187.02 186.31 186.2 182.71 
M 195.18 185.18 198.14 188.75 200.18 191.61 202.38 193.95 204.29 196.41 205.18 199.49 206.27 202.54 212.83 210.37 214.17 213.15 
M 193.28 184.66 195.96 188.3 197.27 191.78 198.94 194.19 200.37 197.03 202.67 202.46 203.36 205.32 204.89 207.75 206.95 211.81 211.53 217.54 212.86 220.4 
M 191.38 184.14 193.65 187.99 195.75 194.77 199.52 205.43 201.15 208.02 201.51 211.52 203.09 215.24 204.06 218.66 
M 189.48 183.62 191.29 187.41 192.27 191.02 192.67 194.73 193.62 198.14 194.78 200.9 195.69 203.79 196.03 206.54 196.78 209.4 199.39 215.1 202.63 225 202.29 228.11 
M 187.58 183.09 188.84 186.79 189.96 193.82 190.67 197.27 190.87 200.43 191.77 203.43 192.52 209.85 192.93 212.01 194.92 219.09 195.08 222.59 
M 360.26 165.95 368.18 174.42 370.54 179.13 369.74 187.63 370.26 191.16 369.77 193.69 368.53 196.62 365.87 198.11 364.39 200.79 362.38 202.96 356.1 209.12 354.23 211.33 351.27 211.47 348.4 209.75 345.33 208.45 342.88 209.13 339.93 209.42 337.2 209.98 332.4 213.07 329 213.24 326.53 214.84 323.31 215.33 320.57 215.29 317.56 214.99 312.6 215.5 309.96 215.52 307.38 214.87 305.26 214.68 302.55 213.89 299.95 212.58 292.86 208.07 290.53 207.09 287.68 206.67 281.47 203.51 279.35 202.32 271.22 196.84 268.83 193 265.87 189.47 262.35 183.09 
M 355.49 167.17 361.75 173.62 364.7 176.85 367.08 179.76 367.6 182.14 369.03 185.68 
M 350.72 168.39 357.12 174.89 361.95 180.39 363.97 182.15 
M 345.94 169.6 349.16 173.07 354.22 178.94 355.53 182.58 357.65 184.67 359.79 186.37 361.86 188.57 362.85 191.19 
M 341.16 170.79 346.19 176.77 348.68 180.34 350.52 183.71 351.86 187.12 353.62 189.8 355.94 191.82 
M 336.37 171.94 345.6 183.67 347.99 187.23 349.08 190.33 351.59 193.45 
M 331.57 173.03 334.3 177.47 338.67 181.86 342.19 187.56 344.35 189.6 345.77 193.22 347.88 196.58 351.3 201.54 352.96 203.22 
M 326.76 174.1 329.85 178.52 333.57 184.72 336 186.78 339.69 190.77 344.81 199.19 347.59 200.78 
M 321.92 175.04 325.15 178.91 327.47 182.36 331.13 188.9 333.51 190.99 335.69 192.39 337.39 195.05 338.45 198.22 342.58 202.75 344.37 204.28 346.14 206.82 
M 317.09 175.98 320.18 179.37 322.27 182.37 326.4 188.98 328.04 192.35 330.36 194.4 332.28 196.39 
M 312.24 176.86 315.75 180.39 319.65 186.25 323.15 192.01 324.81 195.78 327.19 197.35 328.95 200.45 331.5 202.14 
M 307.4 177.75 314.37 186.46 316.24 190.06 320.74 197.04 
M 302.54 178.6 305.48 182.31 309.12 187.6 311.64 190.43 313.57 194.25 315.82 197.77 317.97 200.69 318.74 203.31 319.11 205.35 
M 297.69 179.45 300.8 183.3 304.95 189.25 307.4 192.33 309.17 195.34 310.95 197.82 
M 292.83 180.26 295.23 184 300.61 189.96 302.65 192.77 304.11 195.42 306.07 198.16 306.92 201.29 308.1 204.7 309.91 207.69 
M 287.97 181.02 292.27 187.63 294.71 190.47 300.75 199.18 301.99 201.29 302.73 204.6 304.56 208.19 306.86 211.19 308.33 214.01 
M 283.09 181.72 286.23 185.59 292.01 195.63 294.48 198.11 295 202.17 
M 278.18 182.14 282.18 186.02 284.51 189.42 286.03 193.47 287.05 197.61 
M 273.27 182.56 276.05 186.93 278.64 189.97 280.71 194.05 282.29 198.05 283.87 201.27 
M 268.35 182.8 270.95 187.12 274.79 194.51 277.12 198.14 
M 403.78 105.54 406.75 104.71 409.14 103.16 411.92 101.74 414.35 100.16 419.97 97.98 424.7 94.33 430.23 91.1 432.46 89.49 435.74 88.27 438.65 86.78 441.33 84.89 444.09 84.35 445.8 82.88 447.22 80.21 450.42 77.56 452.89 76.57 456.49 75.56 458.67 74.14 460.87 72.4 466.45 70.56 472.95 65.42 475.46 62.55 477.67 62.51 479.56 60.86 486.18 57.33 490 53.48 489.57 64.35 489.1 67.19 489.01 70.39 486.83 74.82 486.24 77.53 486.34 80.94 486.9 85.04 485.81 87.62 484.97 90.36 485.12 96.47 482.92 102.15 481.04 104.14 480.41 107.18 479.15 109.6 477.19 111.19 476.72 113.89 476.93 117.27 477.6 121.16 478.04 124.98 478.18 128.49 478.02 131.58 475.79 136.47 475.15 139.48 476.71 142.32 478.77 145.3 479.4 147.94 479.01 150.24 480.66 157.49 481.54 162.19 482.88 165.16 483.63 167.7 484.08 170.11 484.94 172.92 485.26 175.49 485.44 181 485.69 183.91 486.17 186.63 487.43 190.07 487.78 192.91 487.59 195.71 487.72 210.06 485.82 207.27 485.1 205.64 481.39 205.77 477.62 203.65 474.34 202.65 471.67 201.47 468.76 199.33 467.52 197.33 464.7 194.89 462.85 192.19 460.85 190 459.15 189.06 456.41 188.05 450.68 183.51 446.31 180.76 444.79 178.23 442.59 176.04 438.52 174.96 435.03 173 432.21 172.08 429.39 170.55 427.01 168.57 425.78 165.88 423.52 164.4 420.34 162.99 415.53 158.49 407.36 152.46 403.78 150.12 
M 403.78 107.76 406.75 107.17 409.53 106.17 415.06 103.06 417.51 102.22 422.9 99.74 425.64 98.24 428.79 95.69 433.9 93.39 436.42 92 439.48 90.57 444.93 87.52 446.87 87.06 448.43 86.26 454.53 82.24 
M 403.78 109.99 407.14 109.68 416.14 106.09 418.59 104.68 421.09 103.94 426.58 101.36 435.31 96.1 437.79 95.65 440.94 94.8 444.03 93.42 445.76 92.87 450.86 91.91 453.2 90.17 457.83 88.64 460.61 88.16 462.95 86.37 465.07 83.65 472.71 82.39 475.39 81.3 477.21 80.15 479.34 77.74 
M 413.26 110.1 416.39 109.02 419.43 107.55 422.23 106.65 425.05 106.33 428.09 105.46 430.69 104.33 433.58 102.69 436.1 100.82 439.43 99.55 442.31 98.68 445.01 98.15 451.07 97.66 453.23 96.17 457.17 94.19 459.53 93.37 462.92 93.89 465.91 92.23 467.19 90.08 468.91 88.3 471.72 87.09 474.6 86.08 
M 403.78 114.45 407.65 114.38 410.7 113.72 413.81 112.8 416.61 111.76 419.94 111.23 423.15 110.46 426.13 110.14 432.05 108.74 434.1 107.99 439.79 104.26 443.12 103.13 446.69 102.37 452.84 101.41 455.92 101.47 456.8 99.74 459.1 98.15 464.68 96.69 
M 403.78 116.68 407.73 116.82 413.94 115.96 417.08 115.68 420.41 115.04 423.5 114.17 429.47 113.74 432.29 112.87 437.15 110.49 440.32 109.39 444.02 108.38 448.17 106.88 450.94 105.51 453.68 105.04 
M 411.07 119.02 414.1 118.55 417.04 118.69 420.15 118.62 423.62 117.46 426.74 117.06 430.07 117.27 432.88 116.64 441.07 113.56 444.06 113.34 452.34 111.13 454.82 110.16 457.4 110.24 459.08 108.34 461.2 107.85 464.4 107.44 
M 411.23 121.75 414.61 120.98 417.37 120.92 419.88 121.29 423.71 120.77 430.18 121 432.69 120.88 434.74 119.63 441.01 117.68 447.25 117.2 451.48 117.38 454.34 116.55 456.12 116.73 459.4 116.42 462.63 115.55 465.74 115.03 471.65 113.29 474.4 113.48 
M 408.04 124.02 411.21 124.04 414.6 123.5 417.43 123.4 419.93 124.34 423.67 123.99 430.85 124.58 433.63 124.21 435.7 122.95 438.67 123.12 441.6 122.53 445.09 122.09 448.01 121.31 
M 411.69 126.44 420.5 126.05 423.75 127.02 427.77 127.88 431.19 127.64 437.02 127.58 439.49 128.52 441.72 128.42 
M 403.78 127.83 408.1 128.8 411.5 129.23 417.3 129.26 423.58 129.8 430.94 131.54 434.17 131.77 437.41 131.01 439.78 132.26 442.77 132.37 447.94 130.44 450.71 130.06 455.18 130.57 458.94 131.54 462.14 132.16 465.22 132.34 468.71 132.15 470.33 133.26 
M 413.91 132.14 416.95 132.35 420.31 132.86 423.77 132.72 427.18 133.14 429.65 134.56 432.88 134.34 436.82 134.42 440.7 134.98 443.34 134.78 445.66 135.15 447.59 134.83 450.77 133.79 453.76 134.89 457.56 137.11 461.97 139.19 465.13 140.21 
M 410.74 134.77 414.01 134.93 423.01 136.05 429.23 136.5 432.14 137.38 436.49 138.2 439.88 138.33 442.85 139.15 447.52 139.51 449.83 139.24 453.31 140.65 460.55 144.62 463 145.22 465.82 145.05 468.79 145.22 472.5 145.08 
M 410.8 137.29 413.79 138.03 416.79 138.11 419.72 138.63 422.61 139.49 432.32 141.36 440.22 143.89 443.76 144.67 447.19 145.7 449.63 146.84 452.64 147.38 456.3 148.44 460.82 150.19 463.87 150.87 467.42 150.27 470.81 151.52 473.48 152.91 475.67 152.36 
M 403.78 136.74 407.62 138.69 410.68 139.68 413.73 140.26 416.91 140.59 419.37 141.55 422.28 142.29 429.21 145.49 432.6 146.38 436.27 147.98 439.58 148.84 442.07 149.81 444.6 149.93 446.12 150.29 448.32 151.61 456.04 154.14 459.92 154.12 462.67 154.63 465.42 156 467.76 156.3 471.54 156.1 473.66 156.36 
M 410.85 141.94 416.65 143.38 425.92 147.48 428.96 149.43 431.94 150.34 435.26 151.84 440.97 153.49 443.47 154.92 449.17 156.99 
M 403.78 141.2 407.41 142.88 416.5 146.04 419.07 147.37 422.01 149.15 424.98 151.21 431.55 153.17 434.7 154.5 437.03 156.54 441.94 159.25 444.96 161.21 448.8 162.36 458.36 164.01 466.92 169.24 470.51 169.69 474.57 169.36 476.48 171.19 478.92 171.94 
M 403.78 143.43 413.52 147.93 416.66 149.69 421.56 153.25 424.62 154.6 428.09 155.04 431.58 156.14 436.54 160 438.36 161.95 441.33 164.22 446.74 167.32 452.15 169.18 457.95 172.03 461.47 172.54 464.73 173.54 467.9 174.19 
M 407.31 147.53 410.37 148.98 422.13 156.99 424.58 158.08 427.37 158.87 429.77 160.29 432.04 162.5 437.05 165.93 438.84 167.51 441.82 168.97 447.99 172.64 452.63 175.12 456.2 175.72 460.32 176.84 
M 410.21 151.75 415.72 155.59 421.46 160.08 424.03 161.26 426.25 163.07 428.05 164.88 429.9 167.07 432.92 168.45 435.8 170.19 438.48 171.21 445.1 174.32 447.45 175.18 451.33 178.33 455.3 179.95 464.48 185.26 469.24 188.78 470.84 191.5 473.74 193.3 
M 390.7 153.22 387.12 154.72 385.45 155.82 383.38 159.17 381.45 159.79 377.73 158.45 375.75 158.3 373.87 158.9 372.22 159.72 370.15 163.55 371.14 162.93 
M 40.96 119.55 45.81 116.74 49.56 114.31 60.59 109.01 66.94 105.12 73.79 100.08 80.54 96 87.82 92.51 96.55 88.77 113.41 80.21 120.56 76.2 126.93 72.85 132.56 70.32 142.8 66.22 147.06 72.16 148.36 77.86 149.06 83.49 148.67 89 147.68 94.45 147.53 99.99 147.97 105.6 146.86 111.04 144.81 116.38 143.99 121.85 143.71 127.38 142.97 132.86 142.87 138.4 140.92 149.31 139.62 154.73 137.51 160.07 135.14 165.38 131.83 170.59 119.73 170.42 110.64 169.79 102.39 168.62 94.63 166.93 86.94 164.75 79.96 162.23 73.9 159.57 68.48 156.34 63.42 152.66 
M 59.87 149.66 53.93 144.27 50.07 140.25 46.94 136.42 44.46 132.89 42.7 130.05 
M 122.76 103.59 121.62 108.33 120.05 111.42 
M 115.44 125.66 115.13 128.98 114.49 132.12 114.51 141.42 114.78 145.15 114.32 149.18 100.26 149.66 94.16 149.68 87.94 149.31 81.42 148.33 75.34 146.7 70.06 144.53 
M 60.4 150.31 51.63 139.72 46.69 134.58 36.83 123.31 36.46 120.92 38.07 119.06 40.47 119.04 42.2 120.82 43.76 122.79 45.34 124.86 48.06 129.24 53.79 137.28 59.17 145.62 61.79 149.98 63.65 152.48 
M 63.04 153.2 60.79 152.2 51.88 147.69 44.93 144.71 33.94 139.52 31.71 138.32 30 136.69 30.07 134.25 31.88 132.65 34.27 133.12 50.95 143.66 61.11 150.85 63.5 152.36 
M 89 126.27 85.48 121.34 83.75 115.54 84 109.49 86.21 103.85 90.12 99.23 95.32 96.13 101.24 94.89 107.25 95.64 112.69 98.3 116.97 102.58 119.63 108.02 120.38 114.03 119.14 119.95 116.04 125.15 111.42 129.06 105.78 131.27 99.73 131.52 93.93 129.79 89 126.27 
M 113.98 104.72 116.1 109.07 116.7 113.87 115.71 118.61 113.23 122.78 109.53 125.91 105.02 127.67 100.18 127.87 95.54 126.48 91.6 123.67 
M 96.06 117.73 94.66 115.76 93.97 113.44 94.07 111.02 94.95 108.76 96.51 106.91 98.59 105.67 100.96 105.18 103.36 105.48 105.54 106.54 107.25 108.25 108.32 110.43 108.61 112.83 108.12 115.2 106.88 117.28 105.03 118.85 102.77 119.73 100.36 119.83 98.03 119.14 96.06 117.73 
M 94.73 115.27 98.83 119.37 
M 97.24 115.12 101.88 119.76 
M 98.59 113.82 104.02 119.24 
M 99.22 111.78 105.71 118.27 
M 99.23 109.13 107.07 116.97 
M 101.09 108.33 108.06 115.3 
M 103.79 108.38 108.55 113.13 
M 104.86 106.78 108.13 110.05 
M 42.31 120.96 45.22 123.87 
M 44.66 117.4 48.09 120.83 
M 48.3 115.13 51.65 118.48 
M 52.11 113.03 55.11 116.03 
M 56.09 111.1 60.18 115.19 
M 60.13 109.23 63.27 112.36 
M 63.84 107.02 67.43 110.62 
M 67.46 104.74 70.87 108.14 
M 70.87 102.23 76.67 108.03 
M 74.31 99.76 77.55 103 
M 78 97.54 81.74 101.28 
M 81.78 95.4 86.37 100 
M 85.77 93.49 90.93 98.65 
M 89.84 91.65 94.7 96.5 
M 93.98 89.87 98.38 94.27 
M 98.04 88.03 101.96 91.94 
M 101.99 86.06 107.15 91.23 
M 105.92 84.08 111.59 89.75 
M 109.82 82.07 113.65 85.9 
M 113.71 80.05 118.18 84.52 
M 117.49 77.92 122.41 82.83 
M 121.3 75.81 125.71 80.23 
M 125.17 73.78 130.8 79.4 
M 129.16 71.85 133.46 76.16 
M 133.25 70.03 137.91 74.69 
M 137.44 68.31 142.04 72.91 
M 141.69 66.65 145.39 70.35 
M 107.38 157.66 108.39 155.71 111.17 151.63 111.63 151.25 112.28 151.06 
M 128.49 137.72 127.43 137.14 126.11 136.9 125.92 136.59 
M 109.44 158.4 109.77 156.12 110.08 155.2 111.2 153.25 111.52 151.56 112.26 151.12 
M 60.37 147.06 61.08 142.92 60.89 142.26 60.55 141.81 59.6 141.77 
M 137.4 100.02 138.87 98.19 139.49 96.3 140.23 92.39 
M 74.47 143.52 72.55 141.99 71.16 140.63 68.53 139.04 67.66 138.41 67.5 138.12 
M 85.28 95.9 83.86 97.56 82.75 98.55 81.72 99.28 80.93 99.51 79.85 99.35 78.9 98.93 78.03 98.25 77.72 97.7 
M 46.38 126.54 47.05 122.29 46.7 119.95 
M 146.26 99.35 147.14 98.87 147.56 98.85 
M 65.51 143.12 66.45 141.76 66.37 138.32 
M 139.9 153.54 139.69 152.35 
M 49.04 130.42 48.97 130.52 
M 118.98 151.76 119.75 151.45 120.56 151.36 122.8 151.89 123.76 151.94 124.35 151.8 
M 70.02 115.31 70.95 117.63 71.43 118.45 71.96 119.32 73.68 121.33 74.4 121.83 77.09 122.79 77.95 122.87 79 122.42 
M 103.12 168.17 102.28 168.6 
M 84.86 119.27 84.79 119.29 
M 102.93 145.13 101.07 143.03 99.03 141.34 96.12 141.72 92.97 141.14 
M 134.42 81.24 131.64 79.92 129.42 79.67 128.08 79.24 126.85 77.94 126.78 77.39 
M 77.2 113.33 77.83 114.18 78.23 115.14 78.93 116.22 79.12 117.43 
M 101.95 136.36 102.76 136.66 104.76 136.72 107.05 137.37 107.78 137.14 108.43 136.6 
M 119.01 129.93 119.57 129.84 120.35 129.25 121.33 129.15 
M 43.98 132.12 44.11 131.65 
M 89.64 141.62 89.1 141.6 88.79 141.82 87.68 144.81 86.5 146.5 
M 80.32 118.34 79.19 119.08 78.67 119.95 78.49 121.34 78.63 121.62 78.98 121.71 
M 124.42 134.13 125.61 134.26 
M 116.29 154.05 116.56 153.39 117.65 151.9 119.18 150.83 119.9 150.52 124.08 149.97 
M 96.68 167.22 96.68 167.37 
M 136.24 88.49 136.15 87.44 135.31 86.15 135.13 84.99 134.69 83.98 134.42 82.8 133.83 81.99 
M 101.97 161.22 100.58 163.4 99.5 166.28 98.72 167.82 
M 78.7 159.27 77.89 157.99 77.25 156.5 78.47 153.35 78.1 151.66 
M 101.25 157.82 102.33 157.82 105.06 157.42 106.3 157.08 108.2 155.25 110.3 152.41 
M 141.77 73.24 139.32 70.59 138.79 70.52 138.26 70.93 
M 123.69 155.68 124.15 156.94 124.38 158.27 124.79 158.77 125.39 158.93 126.24 158.88 128.01 158.04 
M 135.94 83.73 134.68 81.77 132.46 80.37 130.99 79.87 128.91 79.61 
M 134.96 160.92 136.36 159.02 137.39 157.04 137.68 156.17 137.63 153.1 138.66 150.43 138.94 148.94 
M 128.42 121.89 128.73 123.12 128.89 128.87 129.08 129.71 129.86 131.55 131.1 132.86 
M 64.33 107.19 64.14 106.84 
M 71.94 110.66 71.16 111.94 70.75 112.98 70.64 114.07 70.76 114.96 71.73 116.86 74.43 120.94 75.14 121.5 76.75 122.38 
M 122.04 130.32 122.54 130.06 123.83 129.79 124.96 129.95 126.01 130.45 126.74 131.26 126.91 131.82 126.79 132.88 126.3 133.88 
M 87.84 136.1 88.92 136.02 89.63 135.67 
M 50.43 131.65 50.61 132.88 
M 51.78 134.48 53 135.59 53.92 137.05 55.16 138.34 55.42 139.39 
M 85.03 147.36 84.11 147.69 83.3 148.24 82.57 148.36 81.71 148.18 79.81 147.38 
M 96.82 156.84 97.76 157.43 98.48 157.6 101.81 157.93 103.62 157.71 
M 82.61 122.19 82.75 121.66 82.7 120.84 82.57 120.34 82.28 120.14 
M 120.69 144.67 121.94 143.37 121.93 143.04 121.4 141.93 121.59 141.33 
M 143.93 123.03 143.85 122.18 144.04 121.53 
M 100.7 138.8 101.37 139.19 101.38 139.43 
M 107.43 90.54 108.08 89.86 109.53 88.9 109.53 88.57 
M 114.86 138.45 116.6 135.25 118.42 130.77 
M 145.88 84.88 143.88 86.85 141.97 87.98 139.73 88.85 138.39 88.37 
M 122.07 155.15 122.99 158.23 123.05 159.57 122.85 160.05 
M 70.25 109.21 69.55 110.13 69.23 111.05 69.14 113.84 69.25 114.77 70.31 118.09 70.76 119.03 71.89 120.51 73.12 121.6 
M 131.04 152.47 130.6 151.54 128.75 148.73 127.57 147.86 126.34 147.38 
M 77.91 139.03 77.99 138.55 78.31 138.07 79.12 137.98 80.69 138.66 81.32 139.53 
M 128.55 114.97 127.72 111.76 127.89 109.49 
M 119.85 143.15 120.69 142.48 121.72 140.99 121.88 140.23 
M 128.57 168.76 129.7 168.51 130.81 167.98 133.98 165.37 135.41 163.97 135.96 163.22 
M 86.51 158.15 86.52 156.57 84.48 154.71 82.63 152.01 
M 96.1 146.31 91.58 145.01 90.57 144.98 89.75 145.23 87.57 147.58 87.03 147.75 85.78 147.68 
M 99.6 89.56 99.54 90.75 99.35 91.36 98.84 91.71 98.02 91.91 
M 99.99 158 102.45 158.64 102.86 158.62 106.08 157.56 107.03 156.77 
M 120.8 131.28 120.89 130.61 121.41 129.99 122.25 129.59 122.82 129.55 124.12 129.63 125.27 129.95 126.28 130.56 126.89 131.49 
M 47.56 127.22 48.15 124.36 46.88 120.66 
M 141.33 146.97 139.78 145.67 138.85 144.64 
M 137.88 155.63 137.67 153.57 137.86 152.56 138.78 150.17 138.94 148.75 138.44 147.84 137.5 147.15 
M 68.62 156.11 68.47 156.33 
M 102.03 160.75 100.41 163.67 99.37 166.5 98.69 167.81 
M 41.8 143.17 46.77 146.75 51.86 149.96 57.22 152.92 62.74 155.59 68.41 157.98 79.96 162.23 
M 62.99 154.29 61.84 154.26 61.42 154.45 61.14 154.82 
M 143.51 66.08 154.48 77.06 
M 150.77 65.46 159.04 73.74 
M 158.36 65.17 164.27 71.08 
M 166.24 65.18 175.16 74.09 
M 174.46 65.51 180.9 71.95 
M 182.98 66.15 190.77 73.94 
M 191.67 66.96 197.71 73 
M 200.53 67.93 210.66 78.07 
M 209.56 69.08 216.45 75.97 
M 218.82 70.46 224.82 76.47 
M 228.37 72.13 235.35 79.11 
M 237.97 73.85 247.62 83.5 
M 247.34 75.34 258.78 86.78 
M 256.65 76.77 265.89 86 
M 266.25 78.49 275.7 87.94 
M 276.28 80.63 285.94 90.29 
M 286.18 82.65 295.56 92.03 
M 295.68 84.27 304.19 92.78 
M 305.03 85.74 314.38 95.08 
M 314.64 87.46 321.8 94.63 
M 324.69 89.64 330.95 95.89 
M 334.96 92.02 342.24 99.31 
M 345.03 94.21 352.16 101.34 
M 354.69 95.99 364.84 106.14 
M 364.01 97.43 374.34 107.75 
M 373.23 98.77 380.96 106.5 
M 382.62 100.27 393.14 110.8 
M 392.54 102.32 400.99 110.76 
M 403.59 105.48 411.91 113.8 
M 271.21 125.27 270.92 124.69 271.18 123.73 271.71 123.37 272 123.95 271.75 124.91 271.21 125.27 
M 270.98 124.9 271.23 124.29 272.1 123.84 272.73 124 272.49 124.6 271.62 125.05 270.98 124.9 
M 263.76 106.07 263.19 105.74 262.88 104.81 263.12 104.21 263.68 104.54 264 105.47 263.76 106.07 
M 264.15 105.36 263.5 105.37 262.76 104.73 262.66 104.08 263.31 104.08 264.06 104.72 264.15 105.36 
M 253.37 96.32 253.76 95.8 254.72 95.58 255.3 95.89 254.91 96.41 253.95 96.63 253.37 96.32 
M 253.59 96.2 254.18 95.92 255.13 96.2 255.49 96.74 254.89 97.02 253.95 96.74 253.59 96.2 
M 254.01 102.76 254.39 103.29 254.3 104.28 253.82 104.72 253.45 104.19 253.54 103.21 254.01 102.76 
M 253.61 104.43 253.69 103.78 254.41 103.12 255.06 103.1 254.99 103.75 254.26 104.41 253.61 104.43 
M 284 131.71 283.36 131.86 282.49 131.4 282.25 130.8 282.89 130.65 283.76 131.1 284 131.71 
M 283.87 131.36 283.23 131.47 282.38 130.96 282.18 130.34 282.83 130.23 283.67 130.74 283.87 131.36 
M 232.22 108.87 231.82 109.38 230.86 109.58 230.29 109.26 230.69 108.74 231.65 108.55 232.22 108.87 
M 231.97 108.82 231.44 109.21 230.46 109.13 230 108.66 230.53 108.28 231.51 108.36 231.97 108.82 
M 241.21 95.57 241.85 95.5 242.67 96.04 242.84 96.67 242.19 96.75 241.38 96.2 241.21 95.57 
M 242.2 96.85 241.86 96.3 242.03 95.32 242.53 94.91 242.87 95.47 242.7 96.44 242.2 96.85 
M 230.47 94.94 230.45 95.59 229.78 96.31 229.13 96.38 229.15 95.73 229.82 95.01 230.47 94.94 
M 230.55 95.68 229.92 95.86 229.03 95.45 228.76 94.86 229.39 94.68 230.28 95.09 230.55 95.68 
M 222.71 101.09 223.14 100.6 224.12 100.47 224.66 100.82 224.23 101.31 223.26 101.45 222.71 101.09 
M 222.96 100.78 223.61 100.73 224.4 101.32 224.53 101.96 223.88 102.01 223.1 101.42 222.96 100.78 
M 224.32 107.72 224.97 107.68 225.76 108.27 225.9 108.91 225.25 108.95 224.46 108.36 224.32 107.72 
M 224.36 108.35 224.97 108.13 225.89 108.47 226.2 109.04 225.59 109.27 224.67 108.92 224.36 108.35 
M 284.13 109.07 284.23 108.43 284.97 107.78 285.62 107.78 285.53 108.43 284.78 109.07 284.13 109.07 
M 284.62 107.72 285.02 108.24 284.96 109.22 284.51 109.69 284.11 109.18 284.17 108.19 284.62 107.72 
M 287.3 118.39 286.84 118.84 285.85 118.9 285.34 118.5 285.8 118.05 286.79 117.99 287.3 118.39 
M 286.42 119.19 286.14 118.6 286.41 117.65 286.95 117.29 287.23 117.88 286.96 118.83 286.42 119.19 
M 222.23 85.18 222.88 85.14 223.66 85.74 223.79 86.38 223.14 86.42 222.36 85.82 222.23 85.18 
M 222.76 85.08 223.15 85.59 223.1 86.58 222.64 87.04 222.25 86.53 222.3 85.54 222.76 85.08 
M 234.03 86.4 233.58 86.88 232.6 86.97 232.07 86.59 232.52 86.12 233.5 86.03 234.03 86.4 
M 233.78 86.69 233.13 86.72 232.35 86.12 232.22 85.48 232.87 85.44 233.65 86.05 233.78 86.69 
M 295.37 140.28 294.72 140.22 294.04 139.51 294 138.86 294.65 138.92 295.34 139.63 295.37 140.28 
M 295.17 139 294.92 139.6 294.04 140.05 293.41 139.89 293.66 139.28 294.54 138.84 295.17 139 
M 294.69 113.33 294.07 113.55 293.16 113.18 292.86 112.6 293.47 112.39 294.39 112.75 294.69 113.33 
M 293.77 112.22 293.97 112.84 293.59 113.74 293.01 114.03 292.8 113.41 293.18 112.51 293.77 112.22 
M 269.19 93.03 268.61 92.75 268.21 91.85 268.41 91.23 269 91.51 269.39 92.41 269.19 93.03 
M 268.79 91.38 269 92 268.62 92.91 268.04 93.2 267.83 92.58 268.21 91.67 268.79 91.38 
M 275.56 94.21 275.9 93.65 276.83 93.34 277.43 93.59 277.1 94.15 276.17 94.46 275.56 94.21 
M 276.58 93.16 276.71 93.8 276.22 94.65 275.61 94.87 275.48 94.23 275.97 93.38 276.58 93.16 
M 275.94 108.31 275.88 108.96 275.18 109.64 274.53 109.68 274.58 109.03 275.29 108.34 275.94 108.31 
M 275.9 108.65 275.44 109.11 274.46 109.18 273.93 108.8 274.39 108.33 275.37 108.26 275.9 108.65 
M 284.01 93.71 284.64 93.55 285.52 93.98 285.78 94.58 285.15 94.75 284.26 94.31 284.01 93.71 
M 285.44 94.67 284.85 94.38 284.46 93.48 284.66 92.86 285.24 93.14 285.63 94.04 285.44 94.67 
M 251.98 85.93 252.61 86.09 253.18 86.89 253.12 87.54 252.49 87.38 251.92 86.58 251.98 85.93 
M 253.3 86.66 252.7 86.92 251.76 86.62 251.41 86.07 252.01 85.81 252.95 86.1 253.3 86.66 
M 242.2 84.1 241.58 83.89 241.09 83.04 241.21 82.4 241.82 82.61 242.32 83.46 242.2 84.1 
M 241.21 82.69 241.77 83.02 242.07 83.96 241.82 84.56 241.26 84.22 240.96 83.29 241.21 82.69 
M 281.07 137.87 281.51 138.36 281.53 139.34 281.11 139.84 280.67 139.36 280.65 138.37 281.07 137.87 
M 280.34 138.89 280.95 138.66 281.87 139.01 282.18 139.59 281.57 139.81 280.65 139.46 280.34 138.89 
M 295.03 149.44 295.21 148.81 296.03 148.28 296.68 148.36 296.5 148.99 295.67 149.53 295.03 149.44 
M 296.49 148.5 296.07 149 295.1 149.16 294.54 148.82 294.96 148.32 295.93 148.16 296.49 148.5 
M 290 160.83 290.35 161.37 290.21 162.35 289.72 162.78 289.37 162.23 289.51 161.25 290 160.83 
M 289.57 161.11 289.99 161.61 289.98 162.59 289.55 163.08 289.13 162.58 289.14 161.6 289.57 161.11 
M 276.17 82.55 275.84 83.11 274.91 83.42 274.3 83.17 274.64 82.61 275.57 82.3 276.17 82.55 
M 274.52 83.07 275.06 82.71 276.04 82.83 276.47 83.32 275.93 83.68 274.95 83.55 274.52 83.07 
M 269.18 80.74 269.59 81.25 269.56 82.23 269.11 82.71 268.7 82.2 268.74 81.22 269.18 80.74 
M 268.65 81.16 269.21 81.5 269.51 82.44 269.25 83.04 268.7 82.7 268.4 81.76 268.65 81.16 
M 263.44 87.8 262.86 88.1 261.9 87.86 261.53 87.33 262.1 87.04 263.06 87.27 263.44 87.8 
M 261.98 87.01 262.54 87.34 262.87 88.27 262.63 88.87 262.06 88.55 261.74 87.62 261.98 87.01 
M 279.39 102.71 279.33 102.06 279.9 101.26 280.54 101.11 280.6 101.76 280.02 102.56 279.39 102.71 
M 279.61 101.25 280.08 101.7 280.16 102.68 279.77 103.21 279.31 102.75 279.23 101.77 279.61 101.25 
M 300.63 157.34 300.05 157.63 299.1 157.39 298.73 156.85 299.31 156.56 300.26 156.81 300.63 157.34 
M 300.43 157.18 299.79 157.31 298.93 156.82 298.71 156.21 299.35 156.08 300.21 156.57 300.43 157.18 
M 317.09 138.4 317.1 139.06 316.46 139.81 315.82 139.91 315.81 139.26 316.44 138.51 317.09 138.4 
M 316.59 139.89 316.28 139.32 316.49 138.36 317.01 137.97 317.33 138.54 317.12 139.5 316.59 139.89 
M 260.91 78.95 260.5 78.44 260.54 77.46 260.98 76.98 261.39 77.49 261.35 78.47 260.91 78.95 
M 261.67 77.78 261.12 78.13 260.15 77.97 259.73 77.48 260.28 77.13 261.25 77.28 261.67 77.78 
M 286.24 83.04 286.37 82.68 
M 287.42 82.86 286.88 83.17 286.24 83.04 
M 286.49 83 286.68 82.74 
M 288.1 82.98 287.06 83.3 286.49 83 
M 269.26 71.3 269.9 71.4 270.53 72.16 270.52 72.81 269.88 72.71 269.25 71.95 269.26 71.3 
M 270.51 72.48 269.88 72.29 269.36 71.46 269.46 70.81 270.08 71 270.61 71.84 270.51 72.48 
M 312.52 121.44 313.16 121.57 313.77 122.35 313.73 123 313.09 122.87 312.49 122.09 312.52 121.44 
M 313.5 122.87 313.02 122.43 312.91 121.45 313.28 120.91 313.75 121.35 313.87 122.33 313.5 122.87 
M 286.45 168.61 287.1 168.63 287.82 169.3 287.9 169.94 287.25 169.93 286.52 169.26 286.45 168.61 
M 287.68 169.83 287.12 169.51 286.79 168.58 287.02 167.97 287.59 168.29 287.92 169.22 287.68 169.83 
M 326.24 155.94 326.36 156.58 325.87 157.44 325.25 157.65 325.13 157.01 325.62 156.15 326.24 155.94 
M 326.08 157.47 325.62 157 325.57 156.01 325.97 155.5 326.43 155.97 326.48 156.95 326.08 157.47 
M 324.84 138.59 324.2 138.52 323.53 137.79 323.52 137.13 324.17 137.21 324.83 137.94 324.84 138.59 
M 323.44 137.77 324.08 137.65 324.93 138.15 325.14 138.77 324.49 138.89 323.64 138.39 323.44 137.77 
M 327.98 113.67 328.56 113.96 328.94 114.87 328.73 115.49 328.15 115.19 327.77 114.28 327.98 113.67 
M 328.44 113.83 328.57 114.47 328.08 115.33 327.46 115.54 327.34 114.9 327.83 114.05 328.44 113.83 
M 335.11 129.22 335.63 128.82 336.61 128.88 337.08 129.34 336.56 129.73 335.58 129.67 335.11 129.22 
M 336.28 128.55 336.32 129.2 335.72 129.98 335.08 130.11 335.04 129.46 335.64 128.68 336.28 128.55 
M 321.34 119.33 320.77 119.01 320.43 118.09 320.66 117.48 321.23 117.79 321.57 118.72 321.34 119.33 
M 320.9 119.15 320.79 118.5 321.29 117.66 321.91 117.46 322.02 118.1 321.52 118.94 320.9 119.15 
M 249.94 78.91 250.05 78.27 250.81 77.65 251.46 77.66 251.35 78.31 250.59 78.93 249.94 78.91 
M 250.89 79.01 250.54 78.46 250.69 77.49 251.19 77.07 251.54 77.62 251.39 78.59 250.89 79.01 
M 293.04 96.78 293.07 97.43 292.47 98.21 291.83 98.33 291.79 97.68 292.4 96.91 293.04 96.78 
M 292.32 98.3 292.22 97.66 292.74 96.82 293.37 96.63 293.46 97.28 292.94 98.11 292.32 98.3 
M 305.4 119.68 305.85 119.2 306.82 119.09 307.36 119.46 306.92 119.94 305.94 120.05 305.4 119.68 
M 305.82 119.07 306.42 119.33 306.84 120.22 306.67 120.85 306.07 120.59 305.65 119.7 305.82 119.07 
M 276.78 165.81 276.9 165.17 277.66 164.55 278.31 164.57 278.2 165.21 277.43 165.83 276.78 165.81 
M 277.65 165.93 277.37 165.35 277.63 164.39 278.17 164.03 278.45 164.62 278.19 165.57 277.65 165.93 
M 236.21 77.28 236.33 77.93 235.82 78.77 235.2 78.97 235.09 78.33 235.59 77.49 236.21 77.28 
M 236 77.44 235.94 78.09 235.23 78.77 234.58 78.81 234.64 78.16 235.35 77.47 236 77.44 
M 294.69 89.66 294.04 89.69 293.26 89.09 293.13 88.45 293.78 88.42 294.56 89.02 294.69 89.66 
M 294.59 88.75 294.11 89.18 293.13 89.2 292.62 88.79 293.11 88.35 294.09 88.33 294.59 88.75 
M 301.71 178.75 301.43 178.27 301.62 177.3 302.13 176.9 302.46 177.46 302.27 178.43 301.91 178.71 
M 302.7 177.84 302.08 178.06 301.16 177.7 300.86 177.12 301.48 176.9 302.39 177.27 302.7 177.84 
M 226.46 78.77 227.03 79.09 227.36 80.02 227.12 80.63 226.56 80.3 226.23 79.38 226.46 78.77 
M 227.54 79.61 226.95 79.88 226 79.6 225.65 79.05 226.24 78.78 227.19 79.06 227.54 79.61 
M 346.66 126.97 346.03 126.79 345.5 125.96 345.59 125.32 346.22 125.5 346.75 126.33 346.66 126.97 
M 346.01 125.4 346.3 125.99 346.06 126.94 345.52 127.31 345.23 126.73 345.47 125.77 346.01 125.4 
M 345.26 133.76 345.12 134.39 344.33 134.98 343.68 134.93 343.82 134.29 344.61 133.71 345.26 133.76 
M 344 133.76 344.54 134.12 344.81 135.07 344.53 135.66 343.99 135.3 343.72 134.35 344 133.76 
M 218.91 74.77 219.03 74.13 219.8 73.52 220.45 73.55 220.33 74.19 219.56 74.8 218.91 74.77 
M 220.25 74.65 219.65 74.4 219.21 73.51 219.37 72.88 219.97 73.13 220.41 74.02 220.25 74.65 
M 210.84 81.35 210.99 80.72 211.78 80.14 212.43 80.19 212.29 80.83 211.49 81.41 210.84 81.35 
M 212.3 80.42 211.85 80.89 210.86 80.97 210.34 80.59 210.79 80.12 211.77 80.04 212.3 80.42 
M 262.02 68.42 262.53 68.81 262.74 69.78 262.42 70.35 261.9 69.95 261.7 68.99 262.02 68.42 
M 262.19 70.13 262.01 69.5 262.44 68.62 263.04 68.35 263.21 68.98 262.78 69.87 262.19 70.13 
M 253.92 69.47 254.35 69.96 254.36 70.95 253.94 71.44 253.51 70.95 253.5 69.97 253.92 69.47 
M 253.32 70.02 253.94 70.22 254.45 71.06 254.34 71.71 253.72 71.5 253.21 70.66 253.32 70.02 
M 305.96 94.92 306.58 94.7 307.49 95.07 307.79 95.65 307.17 95.86 306.26 95.5 305.96 94.92 
M 307.41 95.81 306.83 95.52 306.46 94.6 306.66 93.99 307.25 94.28 307.62 95.19 307.41 95.81 
M 309.32 110.2 309.1 110.82 308.25 111.31 307.61 111.18 307.82 110.57 308.68 110.08 309.32 110.2 
M 308.53 109.94 308.67 110.58 308.2 111.45 307.6 111.68 307.45 111.05 307.92 110.18 308.53 109.94 
M 301.62 101.31 302.27 101.27 303.05 101.88 303.18 102.51 302.53 102.55 301.75 101.95 301.62 101.31 
M 302.3 102.65 302.19 102.01 302.7 101.17 303.32 100.97 303.43 101.61 302.92 102.45 302.3 102.65 
M 331.55 124.12 330.96 123.84 330.56 122.94 330.75 122.32 331.34 122.6 331.74 123.5 331.55 124.12 
M 330.69 122.62 331.23 123 331.47 123.95 331.17 124.53 330.64 124.16 330.4 123.2 330.69 122.62 
M 316.71 109.81 317.36 109.81 318.1 110.46 318.19 111.11 317.54 111.11 316.8 110.46 316.71 109.81 
M 316.7 110.44 317.33 110.26 318.22 110.67 318.49 111.27 317.86 111.45 316.97 111.03 316.7 110.44 
M 350.35 117.76 349.7 117.69 349.04 116.96 349.02 116.31 349.67 116.39 350.33 117.11 350.35 117.76 
M 350.35 116.68 349.89 117.15 348.91 117.24 348.38 116.86 348.84 116.39 349.82 116.3 350.35 116.68 
M 349.94 105.75 350.29 106.3 350.16 107.27 349.68 107.71 349.32 107.16 349.45 106.19 349.94 105.75 
M 349.31 107.29 349.57 106.69 350.47 106.28 351.09 106.46 350.83 107.05 349.93 107.47 349.31 107.29 
M 270.78 62.84 270.6 63.46 269.77 64 269.13 63.91 269.31 63.29 270.13 62.75 270.78 62.84 
M 269.39 62.88 269.99 63.14 270.4 64.03 270.23 64.66 269.63 64.4 269.21 63.5 269.39 62.88 
M 308.65 177.52 308.93 177.26 309.97 177.28 
M 309.64 176.95 309.65 177.34 
M 308.62 177.52 309 177.06 309.64 176.95 
M 317.32 92.03 317.65 91.47 318.58 91.16 319.18 91.4 318.85 91.97 317.92 92.28 317.32 92.03 
M 317.55 91.45 318.2 91.49 318.91 92.17 318.97 92.82 318.31 92.79 317.61 92.1 317.55 91.45 
M 313.48 104.35 312.84 104.49 311.98 104.01 311.75 103.4 312.39 103.27 313.25 103.74 313.48 104.35 
M 312.01 104.33 312.39 103.8 313.35 103.57 313.93 103.86 313.55 104.39 312.59 104.63 312.01 104.33 
M 305.19 162.93 305.48 163.51 305.25 164.47 304.71 164.85 304.42 164.27 304.65 163.31 305.19 162.93 
M 304.36 164.36 304.73 163.82 305.67 163.55 306.26 163.83 305.9 164.38 304.95 164.64 304.36 164.36 
M 326.72 97.19 326.31 96.68 326.34 95.69 326.79 95.22 327.2 95.72 327.16 96.71 326.72 97.19 
M 326.11 96.58 326.54 96.1 327.52 95.97 328.06 96.33 327.63 96.82 326.65 96.94 326.11 96.58 
M 206.44 73.94 206.17 74.53 205.27 74.94 204.64 74.75 204.92 74.16 205.82 73.76 206.44 73.94 
M 205.03 74.89 205.31 74.3 206.21 73.91 206.84 74.11 206.55 74.7 205.65 75.09 205.03 74.89 
M 330.05 163.39 330.7 163.4 331.43 164.07 331.51 164.71 330.85 164.7 330.12 164.03 330.05 163.39 
M 330.57 164.77 330.55 164.12 331.18 163.36 331.82 163.25 331.83 163.9 331.21 164.66 330.57 164.77 
M 260.04 63.19 259.44 63.45 258.5 63.15 258.16 62.6 258.76 62.34 259.7 62.64 260.04 63.19 
M 259.81 63.14 259.16 63.12 258.43 62.46 258.35 61.82 259 61.83 259.73 62.49 259.81 63.14 
M 207.15 93.85 206.76 94.37 205.79 94.57 205.23 94.25 205.62 93.73 206.59 93.53 207.15 93.85 
M 206.13 93.3 206.38 93.9 206.07 94.84 205.5 95.17 205.26 94.57 205.57 93.63 206.13 93.3 
M 203.25 83.65 202.94 83.08 203.14 82.12 203.66 81.73 203.97 82.3 203.77 83.26 203.25 83.65 
M 202.85 82.25 203.47 82.45 203.97 83.3 203.86 83.94 203.24 83.74 202.73 82.89 202.85 82.25 
M 214.6 90.17 214.67 89.52 215.4 88.85 216.05 88.83 215.98 89.48 215.26 90.15 214.6 90.17 
M 214.98 88.83 215.44 89.29 215.51 90.28 215.12 90.8 214.66 90.33 214.59 89.35 214.98 88.83 
M 193.67 98.09 194 98.65 193.84 99.62 193.34 100.04 193 99.48 193.16 98.51 193.67 98.09 
M 194.23 99.25 193.58 99.29 192.8 98.69 192.66 98.05 193.31 98.01 194.1 98.61 194.23 99.25 
M 192.66 88.68 193.1 89.15 193.15 90.13 192.75 90.64 192.3 90.17 192.25 89.19 192.66 88.68 
M 192.4 90.35 192.47 89.7 193.19 89.03 193.84 89 193.77 89.65 193.05 90.32 192.4 90.35 
M 215.39 101.35 214.95 100.87 214.92 99.88 215.33 99.38 215.77 99.86 215.8 100.85 215.39 101.35 
M 215.71 99.7 215.6 100.34 214.83 100.96 214.18 100.94 214.29 100.3 215.06 99.68 215.71 99.7 
M 205.63 105.33 205.5 104.69 205.98 103.83 206.6 103.61 206.73 104.25 206.25 105.11 205.63 105.33 
M 206.68 103.98 206.34 104.53 205.41 104.84 204.81 104.58 205.14 104.02 206.08 103.72 206.68 103.98 
M 346.08 141.3 345.68 140.78 345.74 139.8 346.19 139.33 346.59 139.85 346.53 140.83 346.08 141.3 
M 346.78 140.7 346.14 140.55 345.57 139.75 345.63 139.1 346.26 139.25 346.84 140.06 346.78 140.7 
M 181.8 87.44 181.58 88.05 180.72 88.53 180.08 88.4 180.3 87.78 181.16 87.3 181.8 87.44 
M 180.28 88.27 180.73 87.8 181.71 87.72 182.24 88.11 181.78 88.57 180.8 88.65 180.28 88.27 
M 189.28 77.28 188.89 76.75 188.97 75.77 189.43 75.31 189.82 75.84 189.74 76.82 189.28 77.28 
M 189.59 77.01 189.21 76.48 189.29 75.5 189.75 75.04 190.14 75.57 190.06 76.55 189.59 77.01 
M 365.24 129.09 365.42 129.72 365 130.61 364.4 130.87 364.23 130.24 364.65 129.35 365.24 129.09 
M 364.11 129.74 364.76 129.75 365.49 130.41 365.57 131.06 364.92 131.04 364.19 130.38 364.11 129.74 
M 361.37 151.7 361.84 152.15 361.93 153.13 361.55 153.66 361.08 153.21 360.99 152.23 361.37 151.7 
M 361.28 151.95 361.62 152.51 361.46 153.48 360.96 153.9 360.62 153.34 360.78 152.37 361.28 151.95 
M 215.55 106.86 216.14 107.13 216.53 108.03 216.34 108.66 215.75 108.38 215.36 107.48 215.55 106.86 
M 215.29 107.38 215.93 107.52 216.52 108.31 216.48 108.96 215.84 108.82 215.25 108.03 215.29 107.38 
M 196.3 77.18 196.74 76.7 197.71 76.58 198.25 76.95 197.82 77.43 196.84 77.55 196.3 77.18 
M 196.56 76.84 197.21 76.84 197.96 77.47 198.06 78.12 197.41 78.13 196.66 77.49 196.56 76.84 
M 200.31 177.56 200.4 176.91 201.14 176.26 201.79 176.26 201.7 176.91 200.96 177.55 200.31 177.56 
M 200.41 176.52 201.04 176.67 201.62 177.47 201.56 178.12 200.93 177.97 200.35 177.17 200.41 176.52 
M 188.41 115.27 189.02 115.03 189.95 115.35 190.28 115.91 189.67 116.15 188.74 115.83 188.41 115.27 
M 188.7 115.98 189.13 115.49 190.11 115.35 190.65 115.71 190.22 116.2 189.25 116.33 188.7 115.98 
M 199.42 67.8 199.41 67.9 198.75 67.72 
M 199.18 67.77 198.8 67.85 198.48 67.68 
M 302.11 110.47 302.26 111.11 301.8 111.98 301.2 112.22 301.05 111.59 301.5 110.71 302.11 110.47 
M 301.98 112.02 301.53 111.55 301.48 110.56 301.89 110.05 302.34 110.52 302.38 111.51 301.98 112.02 
M 369.06 147.02 368.58 146.58 368.47 145.6 368.84 145.07 369.32 145.51 369.43 146.49 369.06 147.02 
M 368.31 146.43 368.74 145.94 369.72 145.81 370.26 146.17 369.83 146.66 368.85 146.79 368.31 146.43 
M 180.46 72.18 180.04 71.68 180.05 70.7 180.48 70.21 180.9 70.71 180.89 71.69 180.46 72.18 
M 180.14 71.87 180.24 71.22 180.98 70.58 181.64 70.59 181.54 71.23 180.79 71.87 180.14 71.87 
M 175.35 77.15 174.84 77.55 173.85 77.51 173.38 77.06 173.89 76.66 174.87 76.7 175.35 77.15 
M 174.26 77.85 174.15 77.2 174.66 76.36 175.28 76.16 175.39 76.81 174.88 77.65 174.26 77.85 
M 160.38 78.3 159.92 78.77 158.94 78.85 158.41 78.46 158.87 78 159.85 77.92 160.38 78.3 
M 158.81 77.91 159.42 78.15 159.88 79.02 159.73 79.65 159.13 79.42 158.66 78.55 158.81 77.91 
M 162.38 69.21 162.26 68.57 162.76 67.72 163.38 67.51 163.49 68.16 162.99 69 162.38 69.21 
M 162.64 69.08 162.65 68.42 163.3 67.69 163.95 67.6 163.94 68.25 163.29 68.99 162.64 69.08 
M 166.31 80.66 165.9 80.15 165.95 79.17 166.4 78.7 166.8 79.21 166.76 80.19 166.31 80.66 
M 166.56 80.4 166.2 79.86 166.32 78.88 166.8 78.44 167.17 78.98 167.05 79.96 166.56 80.4 
M 168.87 86.91 169.25 87.44 169.15 88.42 168.68 88.87 168.3 88.34 168.4 87.36 168.87 86.91 
M 168.66 88.63 168.56 87.99 169.08 87.16 169.71 86.96 169.81 87.61 169.28 88.44 168.66 88.63 
M 171.52 68.37 171.05 67.92 170.95 66.94 171.32 66.41 171.8 66.85 171.9 67.83 171.52 68.37 
M 172.14 67.17 171.6 67.54 170.62 67.43 170.18 66.95 170.72 66.58 171.7 66.69 172.14 67.17 
M 152.83 131.23 152.93 130.58 153.68 129.94 154.34 129.95 154.24 130.59 153.49 131.23 152.83 131.23 
M 154.02 129.98 153.82 130.6 152.98 131.11 152.34 131 152.54 130.38 153.38 129.87 154.02 129.98 
M 159.79 87.73 159.89 88.38 159.37 89.21 158.75 89.41 158.64 88.76 159.16 87.93 159.79 87.73 
M 159.45 87.84 159.49 88.49 158.89 89.27 158.25 89.41 158.21 88.76 158.81 87.97 159.45 87.84 
M 240.96 177.61 240.42 177.98 239.44 177.88 239 177.4 239.53 177.03 240.51 177.13 240.96 177.61 
M 240.4 178.13 239.89 177.73 239.7 176.76 240.02 176.19 240.54 176.6 240.72 177.56 240.4 178.13 
M 229.96 176.96 230.19 177.57 229.84 178.49 229.27 178.8 229.04 178.19 229.39 177.27 229.96 176.96 
M 229.17 178.48 229.38 177.87 230.23 177.37 230.87 177.49 230.66 178.11 229.81 178.61 229.17 178.48 
M 221.17 174.56 220.86 174.95 220.21 175.06 220.2 174.51 
M 220.83 174.54 220.5 175.02 219.87 175.18 219.83 174.49 
M 148.17 123.5 147.54 123.36 146.96 122.56 147.01 121.91 147.65 122.06 148.23 122.85 148.17 123.5 
M 147.36 123.42 147.36 122.77 148.01 122.02 148.65 121.93 148.65 122.58 148.01 123.33 147.36 123.42 
M 166.42 121.62 166.15 122.21 165.26 122.63 164.63 122.44 164.9 121.85 165.8 121.44 166.42 121.62 
M 165.84 121.35 165.76 122 165.03 122.66 164.38 122.67 164.46 122.02 165.19 121.36 165.84 121.35 
M 162.32 113.09 161.7 112.88 161.19 112.04 161.31 111.4 161.93 111.6 162.43 112.45 162.32 113.09 
M 161.59 112.96 161.59 112.31 162.23 111.56 162.87 111.46 162.87 112.11 162.23 112.86 161.59 112.96 
M 172.65 113.1 172.55 113.75 171.8 114.38 171.15 114.37 171.25 113.73 172 113.09 172.65 113.1 
M 171.31 113.27 171.92 113.5 172.39 114.36 172.26 115 171.65 114.78 171.17 113.91 171.31 113.27 
M 178.67 119.77 178.6 120.42 177.88 121.09 177.23 121.11 177.3 120.46 178.02 119.8 178.67 119.77 
M 178.35 121.08 177.85 120.66 177.7 119.68 178.04 119.13 178.54 119.55 178.69 120.53 178.35 121.08 
M 173.87 95.4 173.33 95.02 173.09 94.07 173.39 93.49 173.92 93.86 174.16 94.82 173.87 95.4 
M 173.16 93.86 173.7 94.22 173.97 95.17 173.69 95.76 173.14 95.4 172.88 94.45 173.16 93.86 
M 150.78 113.96 150.13 113.96 149.38 113.33 149.28 112.68 149.93 112.67 150.68 113.31 150.78 113.96 
M 149.86 114.05 149.81 113.4 150.39 112.6 151.02 112.46 151.08 113.11 150.5 113.9 149.86 114.05 
M 147.93 93.12 148.22 93.05 149.08 93.53 149.3 94.15 148.66 94.28 147.8 93.8 
M 149.18 93.52 148.61 93.84 147.83 93.67 
M 147.98 92.83 148.79 93 149.18 93.52 
M 150.04 70.48 149.56 70.04 149.46 69.06 149.83 68.53 150.31 68.97 150.41 69.95 150.04 70.48 
M 150.68 69.45 150.08 69.69 149.15 69.37 148.82 68.81 149.43 68.57 150.36 68.89 150.68 69.45 
M 149.27 83.53 149.05 83.69 
M 149.03 83.27 149.27 83.53 
M 148.99 84.52 148.99 84.53 
M 382.65 152.01 382.2 151.54 382.15 150.55 382.55 150.04 383 150.51 383.05 151.49 382.65 152.01 
M 383.35 151.1 382.71 151.23 381.85 150.75 381.63 150.14 382.27 150.01 383.13 150.49 383.35 151.1 
M 389.09 142.81 388.76 143.37 387.83 143.69 387.22 143.44 387.55 142.88 388.49 142.56 389.09 142.81 
M 388.64 143.7 388.09 143.35 387.81 142.4 388.08 141.81 388.63 142.16 388.91 143.11 388.64 143.7 
M 385.91 133.67 386.21 133.09 387.13 132.73 387.74 132.94 387.44 133.52 386.53 133.88 385.91 133.67 
M 386.43 132.67 386.93 133.09 387.07 134.07 386.72 134.62 386.23 134.19 386.08 133.22 386.43 132.67 
M 383.38 111 383.99 110.76 384.92 111.08 385.25 111.64 384.64 111.88 383.71 111.56 383.38 111 
M 383.58 111.19 384.22 111.1 385.05 111.64 385.23 112.27 384.58 112.35 383.76 111.82 383.58 111.19 
M 380.76 119.83 380.6 119.2 381.05 118.32 381.65 118.07 381.81 118.7 381.37 119.58 380.76 119.83 
M 381.31 118.21 381.42 118.85 380.91 119.7 380.29 119.9 380.18 119.26 380.69 118.41 381.31 118.21 
M 400.44 108.55 401.02 108.25 401.98 108.49 402.36 109.02 401.78 109.32 400.82 109.08 400.44 108.55 
M 401.45 109.53 401.21 108.92 401.54 108 402.11 107.68 402.35 108.28 402.01 109.21 401.45 109.53 
M 390.1 119.24 390 118.59 390.53 117.76 391.16 117.58 391.25 118.22 390.72 119.05 390.1 119.24 
M 391.27 118.79 390.64 118.64 390.06 117.85 390.12 117.2 390.75 117.35 391.33 118.14 391.27 118.79 
M 368.77 122.77 369.4 122.6 370.29 123.03 370.54 123.63 369.91 123.8 369.03 123.37 368.77 122.77 
M 369.84 123.93 369.5 123.37 369.65 122.4 370.15 121.98 370.49 122.53 370.34 123.51 369.84 123.93 
M 397.52 117.37 397.69 116.74 398.5 116.18 399.15 116.25 398.98 116.88 398.17 117.44 397.52 117.37 
M 397.95 116.17 398.44 116.6 398.57 117.58 398.21 118.12 397.72 117.69 397.59 116.71 397.95 116.17 
M 217.13 291.39 215.23 297.7 
M 217.13 291.39 219.83 291.39 220.64 291.7 220.97 292.6 220.7 293.5 219.83 294.39 218.84 294.7 216.13 294.7 
M 226.1 293.5 224.84 297.7 
M 225.83 294.39 225.41 293.8 224.9 293.5 224 293.5 223.31 293.8 222.53 294.39 221.96 295.3 221.78 295.89 221.81 296.8 222.23 297.39 222.74 297.7 223.64 297.7 224.33 297.39 225.11 296.8 
M 229.13 291.39 227.24 297.7 
M 232.1 293.5 231.41 293.8 230.63 294.39 230.06 295.3 229.88 295.89 229.91 296.8 230.33 297.39 230.84 297.7 231.74 297.7 232.43 297.39 233.21 296.8 233.78 295.89 233.96 295.3 233.93 294.39 233.51 293.8 233 293.5 232.1 293.5 
M 239.33 294.39 239.21 293.8 238.4 293.5 237.5 293.5 236.51 293.8 236.03 294.39 236.15 295 236.66 295.3 238.07 295.6 238.58 295.89 238.61 296.8 238.13 297.39 237.14 297.7 236.24 297.7 235.43 297.39 235.31 296.8 
M 241.7 293.5 239.81 299.8 
M 241.43 294.39 242.21 293.8 242.9 293.5 243.8 293.5 244.31 293.8 244.73 294.39 244.76 295.3 244.58 295.89 244.01 296.8 243.23 297.39 242.54 297.7 241.64 297.7 241.13 297.39 240.71 296.8 
M 250.7 293.5 249.44 297.7 
M 250.43 294.39 250.01 293.8 249.5 293.5 248.6 293.5 247.91 293.8 247.13 294.39 246.56 295.3 246.38 295.89 246.41 296.8 246.83 297.39 247.33 297.7 248.24 297.7 248.93 297.39 249.71 296.8 
M 253.1 293.5 251.83 297.7 
M 252.74 294.7 253.91 293.8 254.6 293.5 255.5 293.5 256.01 293.8 256.03 294.7 255.14 297.7 
M 258.8 293.5 257.89 296.5 257.93 297.39 258.44 297.7 259.34 297.7 260.02 297.39 261.2 296.5 
M 262.1 293.5 260.84 297.7 
M 267.23 294.39 267.11 293.8 266.3 293.5 265.39 293.5 264.4 293.8 263.93 294.39 264.05 295 264.56 295.3 265.97 295.6 266.48 295.89 266.51 296.8 266.02 297.39 265.03 297.7 264.14 297.7 263.33 297.39 263.21 296.8 
M 275.63 294.39 275.2 293.8 274.7 293.5 273.8 293.5 273.11 293.8 272.33 294.39 271.76 295.3 271.58 295.89 271.61 296.8 272.02 297.39 272.53 297.7 273.44 297.7 274.13 297.39 274.9 296.8 
M 278.63 291.39 276.74 297.7 
M 277.64 294.7 278.81 293.8 279.5 293.5 280.39 293.5 280.9 293.8 280.94 294.7 280.03 297.7 
M 283.7 293.5 282.44 297.7 
M 283.15 295.3 283.73 294.39 284.51 293.8 285.2 293.5 286.1 293.5 
M 287 293.5 287.53 297.7 
M 290.6 293.5 286.58 298.89 285.8 299.5 284.81 299.8 
M 292.39 293.5 291.14 297.7 
M 292.03 294.7 293.2 293.8 293.89 293.5 294.8 293.5 295.31 293.8 295.33 294.7 294.44 297.7 
M 301.39 293.5 300.14 297.7 
M 301.13 294.39 300.7 293.8 300.2 293.5 299.3 293.5 298.61 293.8 297.83 294.39 297.26 295.3 297.08 295.89 297.11 296.8 297.52 297.39 298.03 297.7 298.94 297.7 299.63 297.39 300.4 296.8 
M 303.02 297.1 302.63 297.39 302.83 297.7 303.23 297.39 303.02 297.1 
"/></svg>
