<svg xmlns="http://www.w3.org/2000/svg" width="520" height="320"><rect x="0" y="0" width="520" height="320" fill="floralwhite"/><rect x="10" y="10" width="500" height="300" stroke="black" stroke-width="1" fill="none"/><path stroke="black" stroke-width="1" fill="none" stroke-linecap="round" stroke-linejoin="round" d="
M 127 151.22 137.88 152.09 148.85 151.74 159.81 150.57 170.78 149.16 181.74 148.05 236.57 143.46 247.53 142.33 269.46 139.3 280.43 138.26 291.39 138.06 302.36 138.49 313.32 139.5 324.29 141 335.25 142.71 357.19 146.51 368.15 148.99 390.08 154.87 401.05 158.47 402.03 159.29 
M 402.03 181.58 401.05 182.12 390.08 184.56 368.15 188.07 357.19 189.53 346.22 190.59 324.29 191.67 313.32 192.78 289.98 196.48 
M 162.11 211.78 159.81 212.47 148.85 214.78 137.88 215.3 
M 130.91 155.37 134.3 153.61 136.11 151.95 
M 127.83 151.95 131.94 152 
M 136.99 166.28 140.02 163.62 142.32 160.07 142.32 157.88 140.02 154.33 137.43 152.06 
M 131.73 157.27 138.02 156.28 
M 132.7 159.2 138.05 159.43 
M 133.72 161.05 138.51 161.25 
M 142.77 160.24 145.6 159.2 149.24 156.54 151.58 153.53 151.58 151.67 151.42 151.46 
M 140.24 152.29 146.89 152.39 
M 139.92 154.28 147.37 155.08 
M 144.15 180.87 144.57 180.7 148.93 177.12 151.74 173.07 151.74 170.56 148.93 166.51 144.57 162.93 141.5 161.67 
M 139.12 170.04 146.87 168.58 
M 139.72 171.55 146.21 172.16 
M 140.75 174.05 146.22 174.98 
M 140.79 201.39 144.81 198.26 147.82 194.13 147.82 191.57 144.62 187.3 
M 141.88 196.2 142.38 196.28 
M 150.73 172.49 153.1 171.08 156.13 167.48 158.09 163.4 158.09 160.87 156.13 156.79 153.1 153.19 150.74 151.79 
M 148.18 159.66 154.91 159.16 
M 148.89 162.32 154.33 162.4 
M 148.12 164.25 154.24 165.38 
M 150.58 196 152.12 195.13 155.55 191.26 157.76 186.87 157.76 184.15 155.55 179.76 152.12 175.89 150.73 175.11 
M 146.97 183.18 154.03 182.53 
M 146.57 185.91 154.08 185.32 
M 147.08 187.66 153.64 188.93 
M 148.85 199.73 145.92 197.02 
M 140.7 202.87 147.31 201.94 
M 140.45 205.48 142.63 205.61 
M 157.39 160.07 158.63 159.45 161.66 156.4 163.61 152.95 163.61 150.81 163.23 150.13 
M 154.34 152.31 160.38 152.34 
M 154.1 153.14 159.92 154.75 
M 157.15 185.15 159.93 183.61 163.5 179.66 165.79 175.19 165.79 172.42 163.5 167.95 159.93 164 157.39 162.59 
M 154.73 171.23 162.07 170.55 
M 154.55 173.93 161.4 173.64 
M 154.94 176.25 161.24 176.75 
M 163.91 194.69 161.65 190.9 157.49 186.93 156.97 186.68 
M 152.67 194.05 159.19 193.48 
M 164.97 171.67 165.73 171.04 168.18 166.98 169.76 162.39 169.76 159.54 168.18 154.95 165.73 150.89 164.6 149.95 
M 161.9 158.89 167.24 157.15 
M 161.5 161.34 167.06 160.68 
M 162.15 163.56 167.07 164.56 
M 169.12 194.04 169.9 192.93 171.81 188.1 171.81 185.12 169.9 180.3 166.93 176.04 164.97 174.63 
M 162.64 183.91 168.14 182.63 
M 162.53 186.61 168.28 186.42 
M 162.62 189.17 168.31 189.88 
M 169.04 156.78 171.76 153.28 173.48 149.35 173.48 148.88 
M 165.1 149.91 170.25 151.33 
M 171.13 185.54 173.06 184.16 176.2 179.68 178.23 174.6 178.23 171.45 176.2 166.37 173.06 161.89 170.6 160.14 
M 168.18 170.24 174.51 169.46 
M 168.28 172.71 174.65 173.1 
M 167.91 175.66 174.44 176.65 
M 177.77 193.23 177.44 192.56 173.6 188.11 171.13 186.68 
M 177.01 167.99 178.68 164.43 180.1 159.09 180.1 155.78 178.68 150.43 177.75 148.45 
M 173.15 155.04 177.84 153.27 
M 173.04 157.54 177.38 157.79 
M 173.46 160.46 177.18 161.78 
M 185.07 192.09 186.16 188.81 186.16 185.37 184.32 179.81 181.45 174.91 179.22 172.99 
M 177.47 184.55 182.87 182.93 
M 177.21 186.68 182.34 186.99 
M 177.48 190.16 182.76 191.07 
M 178.92 151.44 181.01 148.12 
M 185.5 183.19 188.17 178.58 190.09 172.76 190.09 169.16 188.17 163.35 185.2 158.21 182.87 156.2 
M 180.52 168.42 186.69 167 
M 180.51 170.96 186.35 170.81 
M 180.44 173.42 186.69 175.65 
M 190.75 191.17 188.81 188.49 186.07 186.59 
M 187.22 162.27 188.06 160.21 189.49 154.11 189.49 150.34 188.8 147.42 
M 182.73 149.26 186.43 147.63 
M 182.13 151.76 186.6 152.67 
M 182.07 155.04 186.93 157.12 
M 199.31 190.83 199.79 189.05 199.79 185.16 198.09 178.89 195.45 173.35 193.39 171.19 
M 191.36 184.1 196.98 182.01 
M 190.94 186.67 196.96 186.93 
M 191.55 190.65 192.89 190.94 
M 198.05 179.39 199.52 176.48 201.33 170.17 201.33 166.26 199.52 159.95 196.71 154.37 194.52 152.19 
M 192.49 165.11 198.28 163.01 
M 192.13 167.98 198.02 168.58 
M 192.09 171.23 194.23 171.79 
M 194.4 171.83 197.77 172.71 
M 204.07 190.23 202.34 187.4 199.89 185.39 
M 198.39 158.33 198.98 156.86 200.43 150.57 200.37 146.42 
M 193.33 148.88 197.89 148.44 
M 193.66 151.85 197.64 153.23 
M 210.5 189.54 211.08 186.95 211.08 182.86 209.61 176.25 207.32 170.41 205.54 168.13 
M 203.76 181.21 208.08 180.31 
M 203.98 184.75 207.93 184.8 
M 203.96 188.52 207.88 189.62 
M 208.84 174.93 209.9 172.71 211.65 166.27 211.65 162.28 209.9 155.84 207.19 150.15 205.06 147.93 
M 203.24 161.44 208.5 159.32 
M 202.81 164.12 208.94 164.49 
M 203.45 167.56 208.56 168.98 
M 216.84 189.34 214.15 184.26 211.89 182.13 
M 208.56 153.67 209.3 152 210.81 146.08 210.81 145.54 
M 203.09 147.65 205.97 148.52 
M 206.07 148.55 207.73 149.04 
M 218.18 189.26 218.49 188.41 219.91 181.46 219.91 177.16 218.49 170.21 216.29 164.07 214.58 161.68 
M 212.97 175.76 217.57 174.1 
M 212.51 179.58 217.53 179.05 
M 212.97 182.74 216.91 184.89 
M 218.98 172.21 220.61 168.86 222.41 162.37 222.41 158.36 220.61 151.87 217.82 146.15 216.75 145.05 
M 213.35 156.62 218.75 155.21 
M 213.87 160.28 218.86 160.38 
M 213.52 163.78 213.9 163.89 
M 216.21 164.58 218.88 165.38 
M 229.34 189.53 228.33 186.08 225.38 180.33 223.08 178.09 
M 226.49 189.53 226.93 189.35 
M 220.59 152.43 221.52 150.25 222.89 144.57 
M 217.63 146.46 219.87 147.14 
M 228.74 187.47 229.83 184.76 231.41 177.88 231.41 173.63 229.83 166.76 227.39 160.69 225.48 158.32 
M 223.44 172.73 228.42 170.16 
M 223.25 175.6 228.71 175.4 
M 224.81 179.93 228.07 181.26 
M 230.73 169.59 232.26 166.38 234.1 159.6 234.1 155.4 232.26 148.62 230.06 143.99 
M 225.46 153.81 231.17 152.29 
M 224.58 157.94 231.11 157.64 
M 227.5 161.7 231.14 162.58 
M 242.94 188.54 241.55 184.05 238.28 178.04 235.73 175.7 
M 233.28 189.15 240.08 188.09 
M 231 146.64 231.66 143.86 
M 242.4 186.22 243.12 184.36 244.8 176.85 244.8 172.19 243.12 164.68 240.53 158.04 238.51 155.45 
M 236.15 170.39 241.49 168.82 
M 236.7 174.28 241.65 174.13 
M 238.61 179.35 241.85 180.59 
M 242.57 163.98 242.91 163.22 244.78 155.87 244.78 151.32 242.91 143.96 242.42 142.86 
M 235.1 149.8 241.5 148.16 
M 235.85 153.46 241.24 153.38 
M 235.36 157.07 237.79 157.77 
M 240.41 158.54 241.71 158.92 
M 258 189.83 256.14 183.52 252.76 176.99 250.12 174.44 
M 249.59 188.76 254.13 187.61 
M 255.94 183.82 257.36 175.88 257.36 170.39 255.78 161.53 253.32 153.7 251.41 150.64 
M 249.45 169.05 254.05 166.64 
M 249.56 173.54 254.68 173.09 
M 253.8 179.76 254.31 180.05 
M 254.67 158.88 256.28 152.64 256.28 147.95 254.59 141.39 
M 246.2 146.14 252.39 144.99 
M 246.51 150.57 252.45 150.49 
M 246.93 154.15 249.41 155.08 
M 271.2 189.18 269.43 182.36 266.27 175.41 263.8 172.69 
M 261.04 188.5 268.24 186.93 
M 267.33 178.55 268.32 172.73 268.32 167.25 266.82 158.4 264.5 150.59 262.68 147.53 
M 260.76 165.07 266.02 163.53 
M 260.72 169.88 265.55 170.04 
M 261.4 174.49 262.8 175.23 
M 267.04 159.96 267.78 158.53 269.93 151.22 269.93 146.7 267.83 139.54 
M 259.17 145.04 266.23 143.14 
M 258.93 148.64 262.91 149.08 
M 263.79 149.17 266.18 149.43 
M 259.77 152.45 260.32 152.61 
M 265.26 154.05 265.97 154.26 
M 283.74 188.3 281.74 180.29 278.63 173.23 276.2 170.47 
M 274.33 186.81 279.91 184.88 
M 267.61 139.73 267.72 139.55 
M 279.02 174.97 280.11 169.36 280.11 164.05 278.45 155.48 275.86 147.9 273.84 144.95 
M 271.92 162.75 276.88 160.54 
M 272.12 166.29 277.12 166.78 
M 271.5 171.02 275.72 172.59 
M 279.52 164.38 283.18 158.48 285.64 151.53 285.64 147.23 283.18 140.27 281.91 138.23 
M 273.59 146.34 274.4 146.08 
M 274.86 145.93 281.39 143.85 
M 276.11 149.53 281.21 149.57 
M 277.56 153.71 281.47 154.87 
M 297.54 186.77 295.51 179.43 292.12 172.45 289.48 169.72 
M 286.69 185.87 293.4 183.45 
M 284.76 143.48 286.93 140.66 288.05 138.12 
M 294 177.09 295.89 169.48 295.89 164.41 293.85 156.23 290.69 149 288.22 146.18 
M 285.7 163.12 292.11 160.95 
M 285.56 166.92 291.81 167.28 
M 285.8 170.92 288.93 171.84 
M 291.83 172.69 292.46 172.88 
M 295.16 167.64 296.51 166.7 300.7 160.91 303.4 154.35 303.4 150.28 300.7 143.72 296.76 138.27 
M 290.15 148.66 298.8 147.23 
M 291.72 152.19 298.36 152.29 
M 293.59 156.41 298.77 157.26 
M 312.54 184.89 311.19 180.74 307.38 174.08 304.4 171.48 
M 305.1 185.79 309.23 184.62 
M 302.43 148.5 304.74 145.24 306.8 140.11 306.8 138.9 
M 297.1 138.48 299.05 138.36 
M 298.61 141.49 303.44 142.01 
M 311.35 181.71 312.31 180.07 314.84 172.5 314.84 167.81 312.31 160.25 308.39 153.56 305.33 150.96 
M 302.65 165.95 309.81 164.07 
M 302.69 170.46 310.62 169.9 
M 301.93 173.76 303.02 174.03 
M 307.52 175.12 309.95 175.72 
M 306.06 138.87 306.14 138.84 
M 313.93 169.99 318.07 164.32 320.78 157.8 320.78 153.76 318.07 147.23 313.87 141.47 310.62 139.25 
M 307.53 152.48 315.41 150.51 
M 309.23 155.79 315.56 155.42 
M 311.62 159.8 315.78 160.74 
M 328.09 184 324.07 177.57 320.96 175.11 
M 316.6 145.85 317.52 144.41 319.03 140.28 
M 309.88 139.46 311.8 139.92 
M 312.29 140.04 316.11 140.96 
M 333.84 183.89 335.1 179.79 335.1 174.98 332.71 167.19 329.01 160.32 326.12 157.64 
M 323.05 173.54 331.17 171.17 
M 323.69 177.76 331.25 177.79 
M 326.5 182.13 330.72 183.14 
M 322.43 141.66 324.23 140.99 
M 333.44 169.25 335.03 167.13 337.79 160.68 337.79 156.68 335.03 150.23 330.75 144.53 327.41 142.3 
M 324.22 155.83 332.6 154.13 
M 323.98 158.21 327.25 158.42 
M 327.52 158.44 332.4 158.75 
M 329.93 162.83 332.93 163.47 
M 342.04 183.75 339.96 180.41 337.04 178.07 
M 335.47 151.4 338.08 148.63 340.75 143.62 
M 327.19 141.63 328.27 141.62 
M 330.34 144.67 335.76 145.51 
M 347.91 183.59 348.69 180.73 348.69 176.28 346.73 169.09 343.68 162.74 341.31 160.27 
M 339.27 174.46 345.19 173.39 
M 338.53 178.43 345.33 178.53 
M 340.88 182.58 344.96 183.7 
M 341.32 146.96 344.7 145.67 346.2 144.53 
M 347.99 176.17 348.68 175.75 352.96 170.53 355.71 164.62 355.71 160.96 352.96 155.04 348.68 149.82 345.34 147.79 
M 341.9 159.97 350.78 158.28 
M 343.23 162.58 351.2 163.16 
M 345.21 166.65 350.72 167.66 
M 355.33 183.18 354.74 182.27 351.95 180.09 
M 354.73 162.79 356.03 162.04 359.84 157.63 362.29 152.64 362.29 149.56 361.24 147.43 
M 350.1 148.15 357.41 147.71 
M 350.63 150.82 358.04 150.87 
M 351.82 154.23 357.96 155.35 
M 363.81 182.55 364.08 181.7 364.08 177.84 362.1 171.6 359.03 166.09 356.63 163.94 
M 354.18 176.61 360.01 175.05 
M 354.32 179.41 360.67 179.84 
M 363.37 179.42 365.05 178.28 368.79 173.19 371.2 167.43 371.2 163.87 368.79 158.11 365.05 153.02 362.13 151.04 
M 359.03 162.26 367.19 161.16 
M 359.63 166.02 366.87 165.66 
M 360.04 168.55 366.84 170.09 
M 367.57 182.26 366.98 181.81 
M 370.05 160.33 371.41 157.79 373.11 152.28 373.11 150.29 
M 364.99 150.5 369.66 150.62 
M 365.21 153.85 369.75 155.22 
M 379.29 181.21 379.29 179.21 377.37 172.91 374.39 167.35 372.07 165.17 
M 370.22 178.05 375.44 176.42 
M 369.82 181.56 376 180.71 
M 378.6 178.98 378.85 178.79 382.31 173.44 384.54 167.37 384.54 163.62 382.31 157.55 378.85 152.2 378.07 151.6 
M 373.72 162.33 380.56 161.32 
M 373.32 165.53 380.14 165.72 
M 374.71 168.6 380.2 169.85 
M 383.05 159.24 384.51 156.61 385.46 153.61 
M 378.58 152.44 382.66 152.88 
M 393.79 179.59 391.84 172.89 388.82 167.15 386.46 164.91 
M 384.25 178.13 390.02 176.32 
M 393.6 179.61 397.38 174.14 399.7 168.08 399.7 164.34 397.38 158.28 396.5 156.98 
M 388.23 163.57 395.43 161.17 
M 388.67 166.23 395.98 166.21 
M 389.68 169.45 395.2 170.89 
M 398.87 162.41 401.31 158.69 
M 141.69 211.97 141.69 210.69 139.93 208.5 
M 140.11 207.7 146.98 208.18 
M 163.23 150.13 163.23 150.13 
M 155.15 210.33 153.94 209.45 150.93 208.35 
M 177.75 148.45 177.75 148.45 
M 230.06 143.99 230.06 143.99 
M 271.47 191.32 271.47 190.24 271.2 189.18 
M 275.42 191.07 279.95 190.68 
M 267.72 139.55 267.72 139.55 
M 287.05 189.55 293.83 189.53 
M 288.05 138.12 288.05 138.12 
M 301.65 186.78 305.1 185.79 
M 301.93 190.76 307.58 190.96 
M 319.5 189.57 325.54 187.92 
M 324.23 140.99 324.23 140.99 
M 344.39 188.36 343.7 186.42 342.04 183.75 
M 328.27 141.62 328.27 141.62 
M 346.56 188.26 347.91 183.59 
M 344.96 183.7 345.41 183.82 
M 361.24 147.43 361.24 147.43 
M 362.47 186.77 363.81 182.55 
M 355.07 183.44 360.58 184.35 
M 370.98 185.75 369.75 183.89 367.57 182.26 
M 378.8 184.72 379.29 183.11 379.29 181.21 
M 369.68 184.43 374.28 185.31 
M 383.94 183.98 381.54 182.14 
M 393.79 182.35 393.79 179.59 
M 393.09 179.99 393.6 179.61 
M 400.4 179.85 402.03 179.44 
M 203.67 146.14 204.38 143.8 206.32 135.31 206.52 132.65 208.65 126.31 209.11 123.33 210.15 120.65 210.74 117.87 211.76 114.79 212.89 108.48 214.95 105.78 220.19 96.42 221.39 93.12 225.54 85.91 226.77 82.96 227.4 80.45 229.92 77.84 234.99 73.4 236.3 70.76 239 68.51 241.16 65.44 247.08 61.68 248.52 59.61 250.96 58.35 254.37 57.52 257.12 55.95 258.24 54.35 262.2 51.32 265.54 49.61 263.78 55.4 264.28 59.37 264.06 65.5 263.64 67.72 262.74 70.3 261.96 73.36 260.81 75.81 262.08 82.08 261.6 87.62 262.66 93.35 263.83 96.01 265.97 99.63 270.88 108.84 271.82 113.22 272.75 115.89 273.17 120.58 274.7 123.41 280.33 129.27 285.19 133.81 289.8 135.58 292.16 138.09 
M 291.39 138.06 291.39 138.06 
M 208.59 145.72 209.46 143.55 210.33 140.77 211.67 131.26 213.4 125.96 214.09 122.91 215.06 120 215.68 117.14 217.7 110.28 219.93 104.96 220.83 103.66 221.84 100.84 223.43 97.78 226.04 93.25 226.54 91.67 228.41 89.39 230.52 85.86 231.63 83.11 237.4 75.02 242.6 71.47 244.37 68.19 
M 213.51 145.31 214.73 143.14 215.42 140.33 216.03 134.16 216.71 131.07 217.12 125.14 219.2 117.92 220.36 115.71 221.47 113.04 221.88 109.89 222.63 107.44 223.96 105.67 225.12 102.59 226.86 99.36 230.53 94.93 231.06 93.44 232.78 91.96 235.89 85.97 237.34 82.24 239.26 79.48 241.91 77.37 244.41 75.87 247.46 73.67 
M 218.44 144.92 219.73 142.67 220.42 139.76 220.45 136.72 221.39 130.73 221.65 124.54 222.54 120.9 224.52 115.44 224.92 112.26 226.47 106.83 228.25 103.4 233.89 97.55 234.93 95.96 237.16 94.59 238.65 91.95 
M 223.36 144.53 224.9 142.04 225.82 136.51 225.67 133.39 225.9 127.77 226.57 124.96 228.29 119.27 228.53 116.04 229.28 112.83 229.72 109.57 231.95 106.78 234.37 104.85 235.52 102.8 236.55 100.29 238.71 98.68 240.49 96.3 242.91 94.37 244.94 91.96 246.8 89.51 248.45 85.56 
M 228.28 144.14 229.64 141.54 229.95 139.1 230.06 136.25 229.78 133.18 229.97 130.09 229.87 127.52 232.05 121.67 233.22 116.04 235.92 110.05 238.04 107.81 239.55 105.29 240.53 102.63 242.39 100.23 244.07 98.53 
M 233.21 143.74 233.91 141.75 234.19 138.75 234.21 135.73 234.87 132.67 234.87 126.54 235.86 123.74 236.91 117.81 238.42 115.14 242.39 109.47 243.52 107.28 
M 238.13 143.3 238.61 141.52 238.73 135.38 239.03 132.66 239.37 125.64 240.19 122.6 242.2 117.69 244.17 114.83 247.18 111.24 247.95 108.53 248.68 106.63 
M 243.04 142.79 243.42 140.73 243.71 137.89 243.85 134.78 243.81 128.56 245.63 122.82 247.03 120.54 248.05 117.97 250.59 114.53 253.71 111.43 254.37 108.74 255.57 106.86 
M 247.95 142.27 248.41 140.09 248.77 134.62 249.27 131.6 250.4 128.87 251.3 123.74 253.4 121.29 254.29 117.86 258.73 111.81 
M 252.85 141.62 253.62 139.31 254.09 136.65 254.92 133.97 255.22 130.91 256.02 129.42 256.56 126.27 258.56 121.32 
M 257.74 140.97 258.81 138.73 258.96 136.13 259.52 133.73 259.55 130.89 258.51 128.08 260.42 126.18 261.92 124.12 263.31 121.44 
M 262.63 140.28 263.26 138.45 263.21 136.11 263.85 134.24 263.81 131.05 264.27 128.35 265.61 126.51 267.77 124.72 
M 267.52 139.58 268.33 137.72 268.64 134.18 
M 272.43 139.02 273.18 137.83 272.88 135.68 273.68 133.85 276.18 131.61 
M 277.34 138.55 277.88 137.91 278.73 136.2 
M 282.27 138.23 282.28 138.23 
M 287.21 138.14 287.21 138.14 
M 148.85 196.03 155.17 195.8 158.16 195.51 167.73 194.17 173.7 193.73 176.22 193.31 179.26 193.15 187.96 191.51 191.15 191.12 194.38 190.79 197.47 191.05 203.09 190.41 208.33 189.56 214.56 189.48 223.63 188.96 226.8 189.59 229.93 189.51 232.76 189.39 235.37 188.99 241.5 188.56 247.57 188.48 251 188.95 254.62 190.55 257.69 191.35 260.76 191.79 263.38 191.64 269.1 191.93 272.49 191.05 275.31 191.06 284.32 192.09 287.06 191.85 289.9 192.03 293.79 192.65 296.18 193.39 276.17 203.38 273.27 204.41 270.64 205.71 268.24 207.24 262.6 209.46 259.58 210.38 256.93 211.66 253.95 212.29 251.24 213.19 248.28 213.84 245.56 214.73 242.53 215.3 237.1 217.09 231.11 217.9 225.05 218.5 221.85 218.63 215.94 219.37 210.84 220.21 207.65 219.98 205.01 220.29 202 220.23 195.69 219.85 192.46 219.16 186.68 218.42 183.96 218.23 180.87 217.66 176.62 217.14 158.7 210.52 153.46 208.96 148.85 205.74 
M 148.85 197.52 155.24 197.74 161.53 197.48 170.87 196.8 173.91 196.87 179.61 196.52 189.12 196.34 192.44 196.05 195.4 196.33 198.52 196.26 204.48 196.51 210.38 196.12 213.58 196.51 219.31 196.05 224.7 196.65 231.18 196.99 233.69 197.33 239.73 197.78 242.4 198.28 249.3 200.32 270.58 202.79 
M 152.24 199.41 164.55 200.06 173.82 200.12 180.24 199.9 192.86 201.22 195.86 201.72 198.57 201.58 204.38 202.45 216.45 203.27 219.53 203.9 224.65 204.47 230.3 205.86 233.52 206.25 242.6 208.49 245.1 208.69 
M 152.29 201.16 170.84 203.27 180.2 203.72 192.54 206.42 
M 148.85 201.96 152.3 202.97 164.61 205.08 170.75 206.41 177 207.23 183.21 208.61 
M 148.85 203.44 152.41 204.78 155.63 205.63 161.96 206.91 164.79 207.65 167.63 208.75 176.51 211.31 179.99 212.58 182.89 213.43 185.25 215.32 
M 159.45 208.57 162.64 209.26 165.15 210.46 
M 233.92 217.61 248.35 234.93 261.06 248.58 260.87 250.27 261.59 253.22 262.92 256.76 262.29 258.35 260.06 260.07 257.41 260.38 254.4 259.92 251.25 258.86 242.43 253.43 236.71 251.15 234.22 250.59 232.14 250.45 230.34 250.57 227.93 250.09 214.72 242.69 212.51 241.88 210.12 241.37 185.4 222.75 182.47 219.55 180.42 217.6 
M 230.09 217.98 233.27 220.8 
M 224.96 218.5 225.83 219.65 228.32 221.46 229.97 224.63 232.78 225.59 
M 219.82 218.91 223.78 223.12 226.33 224.56 228.21 226.2 229.38 227.78 231.43 229.62 
M 214.04 219.66 216.37 221.34 218.7 224.73 220.36 226.69 223.1 228.59 224.84 229.51 226.25 230.67 227.07 231.76 236.78 239.41 239.25 242.28 241.4 244.21 
M 207.58 219.98 208.52 220.9 210.21 222.96 212.81 225.58 216.33 227.43 220.13 230.87 222.38 232.13 225.85 236.56 228.99 238.2 231.52 241.41 
M 202.67 220.25 206.83 224.87 210.07 228.83 215.32 231.54 223.03 238.06 224.61 240.07 226.68 242.15 
M 193.84 219.45 196.61 221.19 199.63 223.34 205.19 227.81 206.81 230.48 207.81 231.49 209.72 232.45 212.18 234.39 217.43 239.5 219.82 241.22 
M 186.44 218.41 188.87 221.44 191.71 223.74 193.87 225.94 197.07 227.96 200.42 230.55 203.9 231.41 
M 357.19 189.53 362.97 195.86 364.64 199.56 365.97 201.42 364.35 212.3 365.17 216.34 363.92 219.15 362.03 221.37 359.49 222.98 356.23 223.77 350.87 226.14 347.36 226.18 344.54 225.78 339.63 227.49 337.27 227.68 333.6 225.1 329.98 223.61 326.4 222.69 323.74 222.97 321.34 223.56 319.66 223.66 316.88 221.79 314.11 221.6 310.71 221.69 300.92 218.13 298.61 217.59 296 216.63 293.52 216.01 287.2 210.53 283.27 203.34 281.9 200.52 
M 352.27 190.01 356.67 195.02 358.41 198.48 360.02 201.04 
M 347.35 190.48 351.49 195.55 353.77 198.64 355.2 201.3 355.96 203.52 358.4 206.85 
M 342.42 190.78 345.9 195.36 347.98 198.9 349.33 202.93 352.37 208.86 353.34 211.65 
M 337.49 191.02 340.69 195.09 344.06 201.45 345.5 205.09 346.4 208.46 
M 332.56 191.26 339.56 201.45 342.54 207.24 343.65 211.08 345.01 214.29 
M 327.63 191.51 332.41 198.99 335.51 204.63 337.98 208.11 341.68 215.28 
M 322.7 191.83 328.67 202.02 330.32 205.16 332.57 208.58 
M 317.78 192.33 322.58 199.22 324.67 201.65 325.88 205.21 326.52 208.53 
M 312.87 192.86 316.07 197.09 318.86 199.59 321.37 201.6 323.79 208.03 324.48 211.83 326.15 216.54 327.17 218.6 329.24 220.53 
M 308 193.63 313.51 200.94 315.71 203.13 317.4 205.41 
M 303.12 194.41 306.19 198.98 310.04 206.15 312.22 208.1 314.07 210.14 317.62 215 
M 298.25 195.21 300.97 199.95 302.61 203.47 304.91 206.8 307.72 209.08 309.99 211.52 
M 293.37 196.01 296.24 200.85 298.23 204.72 300.09 207.22 302.08 208.65 303.37 212.07 
M 288.73 197.11 293.2 205.31 294.24 207.8 296.08 209.67 297.79 213.06 
M 284.57 199.18 286.3 202.64 289.05 209.05 291 211.44 292.39 214.26 
M 401.05 158.47 404.74 157.4 412.6 153.63 417.97 150.55 420 148.64 426.32 145.37 429.6 143.32 431.12 141.75 433.83 140.32 436.4 139.81 439.31 138.37 440.8 136.71 442.75 135.11 444.74 133.83 450.66 131.12 454.48 129.65 456.99 128.3 459.01 126.75 462.03 125.42 464.93 123.3 466.24 120.22 468.02 118.51 470.63 117.65 474.14 116.18 477.05 112.72 480.08 110.75 481.86 108.27 484.36 107.31 487.41 104.89 490 104.26 483.64 119.89 481.93 122.32 477.11 129.91 475.04 131.98 473.57 134.65 471.19 136.46 468.32 137.78 466.22 139.86 463.72 141.55 461.45 143.46 459.82 146.02 457.74 148.14 454.68 149.26 452.36 151.13 451.5 154.46 449.98 157.08 447.85 159.1 444.13 163.66 442.74 166.4 442.13 169.79 440.31 176.03 437.25 177.11 438.66 179.3 439.42 181.66 441.21 185.55 442.47 188.74 443.36 191.55 443.37 196.43 444.5 199.65 446.95 205.72 448.02 209.04 448.73 212.37 451.35 220.28 447.14 218.59 445.43 216.75 444.45 214.64 442.12 212.25 437.26 208.94 434.47 206.48 427.11 200.64 422.54 196.59 417.14 193.15 413.75 191.28 410.29 189.12 404.29 184.33 401.05 182.12 
M 407.97 158.06 416.57 154.47 419.35 153.5 421.42 152.3 423.63 150.52 427.23 149.02 430.23 147.27 432.91 145.45 438.12 143.97 440.67 142.62 441.89 140.76 444.25 139.77 446.97 139.34 450.02 137.2 452.68 136.57 455.18 135.18 457.49 134.35 461.55 132.51 
M 411.01 159.42 417.36 157.23 422.11 155.9 424.27 154.39 426.7 153.22 430.62 151.85 434.02 149.96 438 148.99 440.75 147.89 442.41 146.81 443.84 146.58 445.18 145.7 449.08 144.04 452.56 143.32 454.72 140.99 
M 401.05 163.2 405.27 163.2 408.83 162.55 414.37 160.9 417.7 159.53 421.01 159.07 425.02 158.05 427.4 156.81 431.65 155.17 435.86 153.85 439.42 153.53 441.87 152.26 444.81 151.08 
M 401.05 164.78 405.57 165.12 408.99 164.76 412.12 164.1 414.7 163.84 417.84 162.89 421.46 162.61 424.45 161.7 427.39 161.94 432.87 159.46 436.61 159.58 
M 409.06 166.95 418.33 165.9 422.32 165.77 426.28 165.18 429.84 164.28 434.18 164.56 437.65 163.26 440.97 162.46 
M 405.66 168.94 411.9 169.55 414.98 168.96 418.58 169.15 422.81 169.68 426.06 169.72 429.33 169.2 
M 409.56 171.55 412.34 172.11 415.42 171.9 418.43 172.51 422.32 173.01 
M 405.75 172.7 409.17 173.56 412.61 174.09 415.28 174.84 417.9 175.06 421.04 175.83 424.28 176.27 
M 405.75 174.61 412.62 176.37 415.73 176.98 418.43 178.04 421.77 179.59 
M 411.68 178.22 419.51 180.98 422.24 182.7 425.2 184.07 427.1 184.75 
M 401.05 175.81 405.15 177.82 411.45 180.28 415.23 182.22 419.09 184.82 421.85 186.05 
M 411.62 182.92 415.26 185.6 418.01 187.25 421.71 188.36 424.76 188.89 427.07 189.7 
M 404.53 180.73 407.51 182.21 414.59 187.1 418.62 188.37 421.66 189.59 426.89 192.4 433.18 194.78 
M 410.77 186.66 414.26 188.9 418.03 190.71 421.01 192.38 423.2 193.85 426.26 195.29 429 197.42 433.97 200.12 436.75 202.64 440.34 205.03 
M 324.29 141 329.19 145.56 342.85 119.25 352.01 111.67 352.91 108.39 353.58 104.87 355.79 102.9 358.21 101.13 364.08 98.9 367.27 98.41 369.56 97.45 372.03 97.55 375.06 98.27 378.41 99.5 382.12 101.11 386.14 106.79 389.79 111.46 390.54 113.83 389.47 115.89 389.35 118.91 390.16 122.85 390.22 125.31 390.84 127.98 392.27 131.46 392.86 134.71 383.98 158.31 379.12 151.87 
M 329.17 141.76 331.59 140.7 333.87 138.49 335.42 136.41 337.76 134.06 339.75 131.11 340.55 126.88 341.95 125.26 
M 334.05 142.52 336.27 140.81 340.18 136.6 341.78 134.38 343.02 131.41 343.83 128.07 343.48 124.61 345.34 122.42 347.78 121.2 349.78 119.16 350.92 117.35 
M 338.92 143.32 341.14 141.44 343.47 139.83 345.42 134.12 346.6 131.79 348.19 129.73 348.75 126.59 350 123.65 353 120.19 356.39 112.52 
M 343.79 144.13 346.2 142.71 347.96 140.05 350.5 134.76 351.86 132.68 352.61 130.36 353.86 127.64 354.7 124.7 356.05 122.3 358.21 119.62 
M 348.66 144.97 351.22 143.22 354.47 138.89 355.26 136.19 357.41 130.82 360.71 125.93 361.82 123.44 
M 353.52 145.85 356.05 144.31 358.04 141.99 359.27 139.62 360.11 137.13 363.08 132.64 364.83 130.67 365.44 128.45 365.72 125.8 367.89 123.03 370.87 119.92 373.06 116.72 
M 358.37 146.78 360.78 145.24 362.3 142.75 365.82 138.38 366.43 136.53 367.89 134.19 370.15 131.85 371.42 129.56 372.52 127.1 374.74 124.38 377.57 119.85 379.81 117.59 381.46 114.6 
M 363.19 147.87 365.68 146.32 367.82 144.24 369.33 141.89 371.3 139.48 375.38 136.09 376.91 133.82 378.06 130.54 378.78 127.47 380.61 124.93 382.03 123.69 383.24 120.74 385.75 117.18 387.28 113.39 
M 368.01 148.96 370.88 147.79 373 145.86 374.66 143.04 376.88 140.94 379.57 139.58 383.38 135.11 
M 372.78 150.21 376.08 149.56 380.49 144.93 382.56 143.55 384.09 141.38 387.39 138.88 
M 47.28 180.5 48.21 179.63 50.56 178.1 53.93 176.51 58.36 175.02 69.65 171.73 81.46 166.71 87.54 163.62 93.83 160.68 112.88 154.92 117.86 153.51 127 151.25 130.35 154.09 131.75 157.33 133.37 160.52 135.42 163.64 139.09 169.96 141.77 176.45 143.73 179.58 144.79 182.87 144.89 186.33 143.85 189.98 143.12 193.58 141.34 197.35 140.82 200.91 140.6 204.42 140.07 207.99 137.88 215.33 124.89 215.43 115.42 215.26 99.14 213.84 92.07 212.67 86.16 210.61 65.35 201.46 
M 63.7 200.65 61.35 199.51 57.4 196.9 54 193.89 50.68 190.34 
M 115.59 172.23 117.59 177.69 117.53 180.33 116.53 182.95 114.71 185.56 113.52 187.97 112.04 190.43 112.11 192.59 113.73 196.86 115.41 202.11 100.48 202.99 88.32 203.16 82.51 202.73 77.49 201.29 72.81 199.4 
M 63.87 200.79 43.94 184.92 43.08 182.62 44.36 180.51 46.9 180.21 48.94 181.77 55.54 189.41 61.95 196.53 65.75 201.06 
M 65.42 201.89 62.94 202.06 50.92 203.52 38.87 205.2 33.97 205.5 31.41 205.23 30 203.15 30.75 200.72 32.99 199.66 37.95 200.02 62.03 200.65 65.39 200.91 
M 77.33 189.47 76.17 185.04 76.5 180.48 78.29 176.27 81.36 172.87 85.36 170.65 89.87 169.85 94.39 170.56 98.44 172.7 101.57 176.04 103.45 180.21 103.87 184.77 102.79 189.21 100.33 193.07 96.75 195.92 92.43 197.44 87.86 197.49 83.51 196.05 79.87 193.27 77.33 189.47 
M 77.16 189.07 76.6 187.45 76.25 185.76 76.11 184.04 76.18 182.32 76.46 180.62 76.96 178.97 77.65 177.39 78.53 175.91 79.59 174.55 80.81 173.33 82.17 172.28 83.65 171.39 85.22 170.7 86.87 170.21 88.57 169.93 90.3 169.86 92.01 170 93.7 170.35 95.33 170.91 
M 78.99 188.32 78.21 185.47 78.08 184 78.35 181.3 
M 80.98 175.97 82.11 174.82 83.28 173.91 84.55 173.15 87.32 172.14 90.25 171.83 93.17 172.26 94.57 172.74 
M 80.81 187.56 80.16 185.19 80.06 183.96 80.26 181.81 
M 82.35 177.42 83.42 176.3 84.39 175.54 85.45 174.91 87.77 174.06 88.98 173.86 91.44 173.91 93.82 174.56 
M 82.64 186.81 82.12 184.9 82.14 182.53 
M 83.89 178.66 85.51 177.17 86.36 176.66 88.21 175.98 90.17 175.78 91.16 175.86 93.06 176.39 
M 84.94 186.04 84.47 184.27 84.54 183.29 
M 85.89 180.13 86.55 179.4 88.15 178.51 89.95 178.19 91.76 178.48 93.38 179.33 94.63 180.67 95.39 182.34 95.55 184.16 95.12 185.94 94.14 187.48 92.7 188.62 90.98 189.23 89.15 189.25 87.41 188.67 85.95 187.56 84.94 186.04 
M 87.96 178.62 86.83 180.88 
M 85.51 183.53 84.7 185.14 
M 89.63 178.25 87.86 181.78 
M 86.85 183.8 85.39 186.72 
M 91.05 178.37 88.81 182.85 
M 88.38 183.72 86.32 187.84 
M 92.33 178.78 87.39 188.66 
M 93.48 179.44 88.66 189.09 
M 94.45 180.47 90.06 189.24 
M 95.2 181.92 91.67 188.99 
M 95.55 184.2 93.75 187.79 
M 50.96 190.68 54.45 194.17 
M 50.36 178.23 53.43 181.3 
M 54.41 176.35 59.09 181.03 
M 58.87 174.88 62.62 178.63 
M 63.53 173.61 68.5 178.58 
M 68.06 172.22 71.89 176.05 
M 72.37 170.6 76.13 174.36 
M 76.54 168.85 79.64 171.94 
M 80.68 167.05 84.66 171.04 
M 84.64 165.1 88.64 169.09 
M 88.6 163.13 94.29 168.81 
M 92.64 161.24 96.12 164.72 
M 97.01 159.68 100.16 162.83 
M 101.55 158.29 106.03 162.78 
M 106.17 156.99 111.71 162.53 
M 110.71 155.6 116.3 161.19 
M 115.27 154.24 119.36 158.32 
M 119.93 152.97 124.25 157.29 
M 124.69 151.8 128.59 155.7 
M 110.19 161.81 111.01 160.69 111.78 159.06 113.7 156.13 115.55 154.16 
M 128.25 161.89 126.75 162.41 124.1 162.9 123.03 164.19 
M 83.92 204.13 82.7 203.8 81.9 203.84 79.39 204.63 76.06 204.84 75.08 205.23 74.7 205.61 
M 99.2 167.03 95.25 169.28 91.6 170.12 
M 115.52 171.63 116.61 171.03 117.37 170.16 
M 84.93 204.13 82.68 203.39 81.94 203.31 81.35 203.45 79.55 204.39 76.21 204.76 74.81 205.39 
M 136.64 206.3 136.03 204.48 134.46 201.99 133.79 198.63 133.56 195.92 133.33 195.33 132.94 194.97 
M 105.8 187.97 104.42 184.6 104.47 183.9 105.45 182.29 105.66 181.51 
M 59.79 177.4 59.07 176.32 59.11 175.46 59.46 174.72 
M 62.73 200.18 62.87 199.99 
M 63.3 198.17 63.64 196.72 63.56 195.13 
M 122.24 194.27 121.57 194.4 120.18 195.04 118.86 195.09 117.73 195.43 
M 62.98 200.3 63.02 200.11 
M 63.31 198.18 63.64 196.59 63.54 194.13 
M 86.73 209.24 86.88 208.07 86.62 207 86.1 205.92 85.4 205.06 84.58 204.48 82.36 203.88 80.97 204.14 79.74 204.61 77.13 204.69 
M 128.14 215.28 127.69 214.27 126.94 213.67 125.94 213.15 123.8 212.65 120.56 212.45 
M 102.66 195.35 101.06 191.92 
M 103.88 198.17 103.97 197.73 103.84 196.91 102.94 195.45 101.14 191.8 
M 81.34 167.7 81.12 166.86 
M 63.03 200.33 63.06 200.14 
M 129.46 198.46 129.32 197.46 128.96 196.41 128.14 195.43 126.76 193.31 
M 105.09 213.08 103.26 212.94 101.27 212.31 99.2 212.23 
M 116.43 198.42 114.26 200.17 113.89 200.11 113.9 199.36 
M 118.94 210.04 117.66 209.2 114.98 208.63 114.24 208.76 113.62 209.02 112.69 209.76 112.12 210.52 111.47 212.01 
M 125.61 210.43 124.16 210.01 122.46 210.18 120.65 209.93 118.14 208.98 115.33 208.43 114.51 208.47 113.23 208.97 
M 118.84 162.71 119.65 162.59 120.88 162.01 122.32 161.74 
M 104 189.96 103.76 188.07 103.31 187.1 
M 103.78 183.76 104.24 183.32 
M 128.65 214.42 128.23 214 126.72 213.13 124.97 212.47 123.59 212.29 121.1 212.37 120.29 212.24 119.71 211.93 
M 85.52 168.66 83.4 167.54 82.33 166.27 
M 65.44 201.37 66.44 202.31 
M 61.5 198.9 61.48 199.99 61.85 199.66 62.28 199.53 
M 57.87 196.01 57.33 197.07 57.25 198.34 57.76 197.48 58.86 196.83 
M 54.28 193.24 53.25 194.89 53.02 196.69 53.68 195.3 55.36 194.07 
M 50.76 190.41 49.16 192.71 48.78 195.05 49.59 193.12 51.83 191.32 
M 47.26 187.57 45.08 190.53 44.55 193.4 45.51 190.94 48.4 188.48 
M 43.84 184.64 40.99 188.35 40.31 191.75 41.42 188.76 44.9 185.69 
M 65.41 201.65 66.71 201.6 
M 61.59 200.65 61.75 200.51 61.8 200.65 
M 57.01 200.5 57.14 200.15 57.79 199.39 57.73 200.13 57.91 200.55 
M 52.77 200.44 53 199.4 53.82 198.27 53.59 199.38 53.9 200.45 
M 48.6 200.26 48.85 198.65 49.86 197.14 49.45 198.63 49.82 200.28 
M 44.43 200.23 44.71 197.9 45.9 196.02 45.3 197.88 45.76 200.25 
M 40.29 200.1 40.57 197.16 41.93 194.9 41.16 197.13 41.66 200.14 
M 36.16 199.93 36.43 196.41 37.97 193.77 37.02 196.39 37.55 200 
M 32.01 200.12 32.28 195.66 34 192.65 32.88 195.64 33.41 199.7 
M 41.34 204.91 47.93 206.32 53.17 207.21 58.58 207.76 69.63 208.19 80.75 208.33 
M 65.37 207.82 66.25 206.65 
M 73.79 207.53 74.52 207.61 
M 131.08 155.76 133.84 158.53 
M 135.08 151.87 143.87 160.65 
M 143.04 151.93 151.08 159.96 
M 150.57 151.55 158.77 159.75 
M 157.72 150.8 169.23 162.31 
M 164.76 149.93 175.71 160.89 
M 171.78 149.05 180.06 157.33 
M 178.95 148.33 189.3 158.68 
M 186.18 147.65 196.42 157.89 
M 193.44 147.01 205.13 158.7 
M 200.72 146.39 212.42 158.09 
M 208.01 145.77 218.81 156.58 
M 215.3 145.16 225.03 154.89 
M 222.63 144.59 229.16 151.12 
M 229.94 144 239.64 153.7 
M 237.24 143.39 243.68 149.84 
M 244.4 142.65 253.31 151.56 
M 251.45 141.81 259.98 150.34 
M 258.42 140.87 264.45 146.91 
M 265.34 139.89 271.34 145.89 
M 272.38 139.03 282.88 149.53 
M 279.59 138.34 288.84 147.59 
M 287.29 138.14 297.15 147.99 
M 295.27 138.21 306.99 149.93 
M 303.56 138.6 310.38 145.42 
M 312.26 139.4 320.98 148.12 
M 321.36 140.6 328.53 147.77 
M 330.66 141.99 338 149.33 
M 340.08 143.51 351.2 154.63 
M 349.61 145.14 357.23 152.76 
M 359.37 147 369.63 157.26 
M 369.66 149.39 380.02 159.75 
M 380.4 152.22 391.68 163.51 
M 391.37 155.3 402.38 166.31 
M 409 165.02 410.95 166.97 
M 242.88 135.45 242.24 135.55 241.4 135.02 241.22 134.4 241.86 134.3 242.7 134.83 242.88 135.45 
M 242.51 134.33 242.29 134.94 241.42 135.42 240.78 135.29 241.01 134.67 241.87 134.2 242.51 134.33 
M 243.9 124.79 244.41 124.38 245.4 124.43 245.87 124.88 245.36 125.28 244.37 125.24 243.9 124.79 
M 245.47 124.35 245.11 124.9 244.17 125.19 243.57 124.92 243.92 124.37 244.87 124.08 245.47 124.35 
M 235.94 128.69 236.56 128.51 237.46 128.92 237.73 129.51 237.11 129.69 236.21 129.29 235.94 128.69 
M 236.08 129.11 236.7 128.9 237.62 129.28 237.91 129.86 237.29 130.07 236.38 129.7 236.08 129.11 
M 246.92 131.18 247.48 130.84 248.45 130.99 248.88 131.49 248.32 131.84 247.34 131.68 246.92 131.18 
M 247.32 130.86 247.93 131.1 248.38 131.98 248.22 132.61 247.62 132.37 247.17 131.49 247.32 130.86 
M 232.12 138.5 232.72 138.76 233.15 139.65 232.97 140.28 232.37 140.02 231.95 139.13 232.12 138.5 
M 232.22 138.72 232.67 139.19 232.72 140.18 232.31 140.69 231.86 140.22 231.81 139.23 232.22 138.72 
M 246.37 151.05 245.72 150.97 245.06 150.24 245.04 149.59 245.69 149.66 246.36 150.39 246.37 151.05 
M 245.54 151.05 245.49 150.4 246.07 149.6 246.7 149.45 246.76 150.1 246.18 150.9 245.54 151.05 
M 248.34 137.11 248.88 136.74 249.86 136.87 250.3 137.35 249.75 137.71 248.77 137.59 248.34 137.11 
M 249.64 136.55 249.55 137.2 248.81 137.85 248.16 137.86 248.24 137.21 248.98 136.56 249.64 136.55 
M 256.75 129.86 256.35 129.35 256.39 128.36 256.84 127.89 257.25 128.4 257.2 129.38 256.75 129.86 
M 256.31 129.44 256.56 128.84 257.45 128.41 258.08 128.58 257.82 129.18 256.94 129.61 256.31 129.44 
M 253.55 123.08 252.91 123.23 252.04 122.77 251.8 122.17 252.43 122.02 253.31 122.47 253.55 123.08 
M 252.56 121.88 252.85 122.47 252.6 123.42 252.06 123.79 251.77 123.2 252.02 122.25 252.56 121.88 
M 241.78 162.5 241.15 162.67 240.26 162.25 239.99 161.65 240.62 161.48 241.52 161.9 241.78 162.5 
M 240.35 161.55 240.93 161.84 241.31 162.76 241.1 163.38 240.51 163.08 240.14 162.17 240.35 161.55 
M 247.76 156.37 247.72 157.02 247.04 157.73 246.39 157.79 246.42 157.14 247.11 156.43 247.76 156.37 
M 247.22 157.82 246.9 157.24 247.11 156.28 247.63 155.89 247.95 156.46 247.74 157.42 247.22 157.82 
M 255.88 140.79 255.75 141.43 254.96 142.02 254.31 141.98 254.44 141.34 255.23 140.74 255.88 140.79 
M 254.38 141.61 254.91 141.23 255.89 141.33 256.34 141.81 255.81 142.18 254.82 142.08 254.38 141.61 
M 255.65 146.43 256.29 146.3 257.15 146.78 257.37 147.4 256.73 147.53 255.87 147.04 255.65 146.43 
M 256.27 146.2 256.66 146.73 256.58 147.71 256.11 148.17 255.73 147.64 255.81 146.66 256.27 146.2 
M 253.06 153.38 253.2 152.74 253.98 152.14 254.63 152.18 254.5 152.82 253.71 153.42 253.06 153.38 
M 253.51 152.11 253.97 152.57 254.03 153.56 253.64 154.08 253.18 153.62 253.11 152.63 253.51 152.11 
M 234.33 166.6 233.88 167.07 232.9 167.16 232.36 166.78 232.82 166.31 233.8 166.22 234.33 166.6 
M 232.6 166.7 233.22 166.5 234.13 166.87 234.42 167.45 233.81 167.66 232.89 167.29 232.6 166.7 
M 227.87 158.86 228.31 159.35 228.32 160.34 227.91 160.84 227.47 160.35 227.45 159.37 227.87 158.86 
M 227.81 159.1 228.07 159.7 227.79 160.65 227.23 160.99 226.97 160.4 227.25 159.45 227.81 159.1 
M 219.58 146.18 219.8 146.8 219.43 147.72 218.85 148.02 218.63 147.4 219 146.48 219.58 146.18 
M 218.87 146.43 219.33 146.89 219.41 147.88 219.02 148.4 218.55 147.94 218.48 146.96 218.87 146.43 
M 222.62 143.45 223.01 142.93 223.98 142.73 224.55 143.04 224.16 143.56 223.19 143.77 222.62 143.45 
M 224.1 143.8 223.53 143.48 223.19 142.55 223.42 141.94 224 142.26 224.33 143.19 224.1 143.8 
M 224.05 155.96 223.55 155.55 223.38 154.57 223.72 154.01 224.22 154.43 224.39 155.4 224.05 155.96 
M 223.95 155.74 223.7 155.13 224.01 154.2 224.57 153.86 224.82 154.47 224.51 155.4 223.95 155.74 
M 261.77 138.32 261.94 138.95 261.52 139.85 260.93 140.11 260.75 139.48 261.17 138.59 261.77 138.32 
M 261.53 139.95 261.19 139.39 261.34 138.42 261.84 137.99 262.18 138.55 262.03 139.52 261.53 139.95 
M 256.91 134.01 256.57 134.57 255.63 134.87 255.02 134.61 255.37 134.05 256.31 133.75 256.91 134.01 
M 255.84 135.05 255.75 134.4 256.29 133.58 256.91 133.39 257 134.04 256.47 134.87 255.84 135.05 
M 263.01 135.39 262.4 135.16 261.94 134.29 262.08 133.65 262.69 133.88 263.16 134.76 263.01 135.39 
M 263.27 134.31 262.73 134.68 261.75 134.55 261.31 134.07 261.85 133.71 262.83 133.83 263.27 134.31 
M 270.28 125.97 270.34 126.62 269.77 127.43 269.13 127.58 269.07 126.93 269.65 126.13 270.28 125.97 
M 270.46 126.73 269.85 126.97 268.92 126.63 268.6 126.06 269.21 125.83 270.14 126.16 270.46 126.73 
M 271.44 133.6 271.35 132.95 271.89 132.12 272.51 131.94 272.6 132.59 272.07 133.42 271.44 133.6 
M 272.58 133.22 271.96 133.01 271.47 132.15 271.59 131.51 272.21 131.72 272.7 132.58 272.58 133.22 
M 263.24 129.66 263.5 129.06 264.39 128.64 265.02 128.81 264.76 129.41 263.87 129.83 263.24 129.66 
M 263.43 129.5 263.94 129.09 264.93 129.14 265.4 129.59 264.89 130 263.9 129.95 263.43 129.5 
M 267.06 137.55 267.3 136.94 268.17 136.47 268.81 136.61 268.57 137.22 267.7 137.69 267.06 137.55 
M 267.49 137.69 267.7 137.07 268.55 136.57 269.19 136.68 268.98 137.3 268.13 137.8 267.49 137.69 
M 231.08 133.14 231.73 133.05 232.56 133.59 232.74 134.22 232.09 134.3 231.26 133.77 231.08 133.14 
M 231.6 132.99 232.04 133.48 232.06 134.46 231.65 134.97 231.21 134.48 231.18 133.5 231.6 132.99 
M 225.97 137.37 226.18 137.99 225.81 138.91 225.22 139.21 225.01 138.59 225.39 137.67 225.97 137.37 
M 226.15 137.78 225.83 138.35 224.89 138.68 224.29 138.44 224.61 137.87 225.54 137.54 226.15 137.78 
M 227.48 166.49 227.65 165.86 228.47 165.3 229.11 165.38 228.95 166.01 228.13 166.56 227.48 166.49 
M 228.59 165.24 228.53 165.89 227.82 166.57 227.17 166.61 227.23 165.96 227.94 165.27 228.59 165.24 
M 219.89 165.35 220.17 165.94 219.89 166.89 219.35 167.25 219.07 166.65 219.34 165.7 219.89 165.35 
M 219.86 167.01 219.47 166.48 219.55 165.5 220.02 165.04 220.4 165.57 220.32 166.55 219.86 167.01 
M 216.7 157.82 217.33 157.99 217.87 158.82 217.78 159.47 217.16 159.29 216.61 158.46 216.7 157.82 
M 216.54 158.92 217.05 158.5 218.04 158.53 218.52 158.97 218.01 159.39 217.02 159.36 216.54 158.92 
M 260.92 154.24 261.13 153.62 261.98 153.12 262.62 153.23 262.42 153.85 261.57 154.36 260.92 154.24 
M 261.9 153 261.99 153.64 261.46 154.47 260.83 154.66 260.74 154.01 261.27 153.18 261.9 153 
M 208.14 167.8 208.68 167.43 209.66 167.54 210.1 168.02 209.56 168.39 208.58 168.28 208.14 167.8 
M 209.57 167.31 209.36 167.92 208.5 168.42 207.86 168.3 208.07 167.68 208.93 167.19 209.57 167.31 
M 216.29 169.27 216.01 169.86 215.1 170.26 214.48 170.06 214.76 169.47 215.67 169.08 216.29 169.27 
M 214.78 169.22 215.4 169.43 215.89 170.28 215.77 170.93 215.15 170.71 214.66 169.86 214.78 169.22 
M 259.22 117.78 258.92 118.36 258.01 118.74 257.39 118.53 257.68 117.95 258.6 117.57 259.22 117.78 
M 259.02 118.37 258.37 118.38 257.61 117.75 257.51 117.1 258.16 117.09 258.92 117.73 259.02 118.37 
M 254.04 115.7 253.39 115.63 252.73 114.9 252.71 114.25 253.36 114.32 254.02 115.05 254.04 115.7 
M 252.73 115.35 253.16 114.87 254.14 114.74 254.69 115.11 254.25 115.59 253.27 115.72 252.73 115.35 
M 244.12 118.1 243.82 117.51 244.07 116.56 244.61 116.18 244.9 116.77 244.65 117.73 244.12 118.1 
M 243.88 116.57 244.43 116.91 244.72 117.86 244.45 118.46 243.9 118.11 243.61 117.16 243.88 116.57 
M 210.2 173 210.46 173.6 210.18 174.54 209.63 174.9 209.36 174.3 209.64 173.35 210.2 173 
M 209.24 174.28 209.71 173.83 210.69 173.78 211.21 174.18 210.74 174.63 209.75 174.68 209.24 174.28 
M 209.26 155.79 209.3 156.44 208.69 157.22 208.05 157.35 208.02 156.7 208.62 155.92 209.26 155.79 
M 209.21 157.08 208.62 156.8 208.21 155.9 208.4 155.28 208.99 155.55 209.4 156.45 209.21 157.08 
M 203.72 161.17 204.37 161.22 205.06 161.92 205.1 162.57 204.45 162.52 203.76 161.82 203.72 161.17 
M 204.44 161.12 204.61 161.75 204.18 162.64 203.58 162.89 203.41 162.26 203.84 161.37 204.44 161.12 
M 211.11 144.69 210.71 145.21 209.74 145.4 209.17 145.08 209.57 144.56 210.54 144.37 211.11 144.69 
M 209.4 145.01 209.98 144.71 210.94 144.95 211.31 145.48 210.73 145.78 209.77 145.54 209.4 145.01 
M 217.35 140.7 216.86 140.26 216.74 139.28 217.11 138.74 217.59 139.18 217.71 140.16 217.35 140.7 
M 217.06 140.45 217.01 139.8 217.58 139 218.22 138.85 218.28 139.5 217.7 140.3 217.06 140.45 
M 214.34 151.96 213.72 151.75 213.22 150.9 213.33 150.26 213.95 150.47 214.46 151.32 214.34 151.96 
M 214.44 150.66 214.06 151.19 213.1 151.42 212.52 151.11 212.9 150.58 213.87 150.36 214.44 150.66 
M 201.98 168.48 202.23 167.88 203.11 167.43 203.75 167.59 203.5 168.2 202.62 168.64 201.98 168.48 
M 203.61 168.1 202.98 168.25 202.1 167.78 201.87 167.17 202.51 167.03 203.38 167.49 203.61 168.1 
M 202.87 156.62 202.46 157.13 201.49 157.31 200.93 156.97 201.34 156.47 202.31 156.29 202.87 156.62 
M 202.52 157.22 201.89 157.04 201.36 156.21 201.45 155.56 202.08 155.74 202.61 156.57 202.52 157.22 
M 257.88 162.64 257.29 162.93 256.34 162.68 255.97 162.14 256.56 161.85 257.51 162.1 257.88 162.64 
M 257.54 162.83 256.91 162.63 256.4 161.78 256.51 161.14 257.13 161.34 257.64 162.18 257.54 162.83 
M 251.51 158.08 252.13 158.27 252.67 159.1 252.57 159.74 251.95 159.56 251.41 158.73 251.51 158.08 
M 251.85 159.64 251.81 158.99 252.42 158.21 253.07 158.09 253.1 158.74 252.49 159.52 251.85 159.64 
M 243.3 130.28 242.66 130.42 241.8 129.95 241.57 129.34 242.2 129.2 243.07 129.67 243.3 130.28 
M 243.16 129.63 242.61 129.97 241.63 129.81 241.22 129.3 241.77 128.96 242.75 129.13 243.16 129.63 
M 239.71 156 240.3 156.3 240.67 157.21 240.46 157.83 239.88 157.54 239.51 156.62 239.71 156 
M 240.12 156.17 240.29 156.8 239.86 157.69 239.26 157.94 239.09 157.31 239.52 156.43 240.12 156.17 
M 270.52 143.34 271 142.9 271.99 142.87 272.5 143.28 272.02 143.72 271.03 143.76 270.52 143.34 
M 272.26 143.23 271.66 143.49 270.72 143.21 270.37 142.66 270.96 142.39 271.91 142.68 272.26 143.23 
M 265.5 149.19 266.08 149.49 266.44 150.41 266.23 151.03 265.65 150.73 265.29 149.81 265.5 149.19 
M 265.26 149.66 265.88 149.87 266.38 150.73 266.26 151.37 265.64 151.16 265.14 150.3 265.26 149.66 
M 202.87 147.96 202.34 148.35 201.36 148.27 200.9 147.81 201.42 147.42 202.41 147.5 202.87 147.96 
M 201.25 148.29 201.67 147.79 202.64 147.62 203.2 147.96 202.79 148.46 201.81 148.63 201.25 148.29 
M 196.01 163.24 195.37 163.12 194.74 162.36 194.76 161.7 195.41 161.82 196.03 162.58 196.01 163.24 
M 196.12 162.3 195.56 162.63 194.58 162.46 194.18 161.95 194.74 161.61 195.71 161.79 196.12 162.3 
M 196.56 147.87 196.85 147.29 197.76 146.91 198.38 147.12 198.09 147.7 197.18 148.08 196.56 147.87 
M 197.09 148.14 197.23 147.51 198.03 146.92 198.68 146.97 198.54 147.61 197.74 148.19 197.09 148.14 
M 193.88 154.17 193.75 153.53 194.24 152.67 194.86 152.46 194.98 153.1 194.5 153.96 193.88 154.17 
M 194.05 152.63 194.49 153.11 194.52 154.1 194.11 154.61 193.67 154.12 193.64 153.14 194.05 152.63 
M 259.56 112.14 259.15 112.65 258.18 112.82 257.62 112.49 258.03 111.98 259 111.81 259.56 112.14 
M 259.34 112.33 258.71 112.52 257.82 112.1 257.55 111.51 258.18 111.32 259.07 111.74 259.34 112.33 
M 251.56 108.14 251.29 108.74 250.4 109.17 249.77 108.99 250.03 108.39 250.93 107.97 251.56 108.14 
M 251.14 107.98 250.9 108.59 250.03 109.05 249.39 108.91 249.63 108.3 250.5 107.83 251.14 107.98 
M 260.95 108.78 260.36 108.49 259.97 107.59 260.16 106.97 260.75 107.25 261.15 108.15 260.95 108.78 
M 260.91 108.54 260.44 108.08 260.36 107.09 260.75 106.57 261.22 107.02 261.3 108.01 260.91 108.54 
M 277.82 135.55 277.42 136.06 276.45 136.24 275.88 135.92 276.29 135.4 277.26 135.22 277.82 135.55 
M 276.13 135.93 276.68 135.57 277.65 135.72 278.08 136.21 277.53 136.56 276.55 136.42 276.13 135.93 
M 187.65 156.16 188.1 156.63 188.14 157.62 187.74 158.13 187.29 157.66 187.25 156.67 187.65 156.16 
M 188.07 157.79 187.59 157.36 187.47 156.38 187.83 155.83 188.31 156.27 188.44 157.25 188.07 157.79 
M 184.36 151.38 184.72 150.83 185.67 150.57 186.27 150.85 185.91 151.39 184.95 151.66 184.36 151.38 
M 185.09 150.39 185.47 150.93 185.36 151.91 184.88 152.36 184.51 151.82 184.62 150.84 185.09 150.39 
M 259.96 124.42 259.31 124.31 258.68 123.55 258.69 122.9 259.33 123 259.97 123.76 259.96 124.42 
M 259.31 124.41 259.12 123.78 259.53 122.88 260.12 122.61 260.31 123.23 259.9 124.13 259.31 124.41 
M 252.47 127.01 252.02 127.49 251.04 127.6 250.5 127.23 250.95 126.75 251.93 126.64 252.47 127.01 
M 250.78 126.86 251.43 126.89 252.15 127.56 252.22 128.21 251.57 128.19 250.85 127.51 250.78 126.86 
M 239.28 169.57 239.85 169.88 240.2 170.8 239.97 171.42 239.4 171.1 239.05 170.18 239.28 169.57 
M 239.24 171.14 239.39 170.5 240.18 169.92 240.83 169.97 240.69 170.61 239.89 171.19 239.24 171.14 
M 246.62 178.31 246.23 177.79 246.28 176.81 246.74 176.34 247.14 176.86 247.08 177.84 246.62 178.31 
M 245.97 177.58 246.49 177.18 247.48 177.24 247.95 177.7 247.43 178.1 246.44 178.03 245.97 177.58 
M 247.07 172.69 246.76 172.11 246.97 171.15 247.49 170.76 247.8 171.33 247.59 172.3 247.07 172.69 
M 246.7 172.2 247.05 171.65 248 171.38 248.6 171.65 248.24 172.2 247.29 172.47 246.7 172.2 
M 273.83 155.84 274.45 156.04 274.97 156.88 274.86 157.52 274.24 157.33 273.72 156.49 273.83 155.84 
M 274.67 157.36 274.22 156.89 274.18 155.9 274.58 155.39 275.03 155.86 275.08 156.85 274.67 157.36 
M 267.05 159.73 266.68 159.19 266.79 158.21 267.27 157.77 267.64 158.31 267.53 159.29 267.05 159.73 
M 266.71 159.35 266.92 158.74 267.78 158.24 268.42 158.36 268.21 158.98 267.35 159.48 266.71 159.35 
M 244.53 109.4 245.19 109.35 245.98 109.93 246.13 110.57 245.48 110.62 244.68 110.04 244.53 109.4 
M 245.14 109.26 245.49 109.81 245.34 110.79 244.84 111.21 244.49 110.66 244.65 109.68 245.14 109.26 
M 264.01 111.65 263.86 112.29 263.06 112.87 262.41 112.81 262.56 112.17 263.36 111.59 264.01 111.65 
M 262.95 111.52 263.35 112.04 263.3 113.03 262.85 113.5 262.45 112.98 262.5 111.99 262.95 111.52 
M 224.65 131.57 224.77 130.93 225.54 130.31 226.19 130.34 226.08 130.98 225.3 131.6 224.65 131.57 
M 224.82 131.41 225.2 130.87 226.16 130.64 226.74 130.94 226.36 131.47 225.4 131.7 224.82 131.41 
M 219.61 130.5 219.29 131.07 218.36 131.4 217.75 131.16 218.07 130.59 219.01 130.26 219.61 130.5 
M 218.43 130.12 218.83 130.64 218.76 131.63 218.3 132.09 217.91 131.57 217.97 130.58 218.43 130.12 
M 280.47 151.39 280.25 150.78 280.6 149.86 281.17 149.54 281.4 150.16 281.05 151.08 280.47 151.39 
M 280.34 149.89 280.89 150.24 281.18 151.19 280.92 151.78 280.36 151.44 280.07 150.49 280.34 149.89 
M 278.99 143.54 278.34 143.61 277.53 143.05 277.37 142.42 278.02 142.35 278.83 142.91 278.99 143.54 
M 278.64 143.57 278.1 143.2 277.85 142.25 278.13 141.66 278.68 142.03 278.93 142.98 278.64 143.57 
M 282.78 145.02 282.84 145.67 282.26 146.47 281.62 146.62 281.57 145.97 282.14 145.17 282.78 145.02 
M 281.46 145.7 282.11 145.61 282.94 146.14 283.13 146.76 282.48 146.86 281.65 146.33 281.46 145.7 
M 190.02 171.68 189.69 171.12 189.87 170.14 190.38 169.74 190.71 170.3 190.53 171.27 190.02 171.68 
M 189.53 170.36 190.17 170.47 190.8 171.23 190.78 171.89 190.14 171.78 189.51 171.02 189.53 170.36 
M 182.72 157.46 182.37 158.02 181.43 158.31 180.83 158.04 181.18 157.49 182.12 157.2 182.72 157.46 
M 182.14 158.41 181.66 157.96 181.56 156.98 181.93 156.44 182.41 156.89 182.52 157.87 182.14 158.41 
M 195.11 169.77 195.59 169.32 196.57 169.27 197.09 169.67 196.62 170.13 195.63 170.18 195.11 169.77 
M 196.59 170.3 196.03 169.95 195.74 169.01 196 168.41 196.56 168.75 196.85 169.7 196.59 170.3 
M 178.06 161.49 177.41 161.48 176.67 160.83 176.58 160.18 177.23 160.19 177.97 160.84 178.06 161.49 
M 176.61 161.09 177.13 160.69 178.12 160.75 178.59 161.2 178.07 161.6 177.08 161.55 176.61 161.09 
M 176.28 167.49 175.64 167.35 175.05 166.56 175.09 165.91 175.73 166.05 176.33 166.84 176.28 167.49 
M 176.43 166.83 175.78 166.92 174.96 166.37 174.78 165.75 175.43 165.66 176.25 166.2 176.43 166.83 
M 184.58 173.03 185.11 173.4 185.36 174.36 185.07 174.95 184.53 174.57 184.28 173.62 184.58 173.03 
M 185.27 173.38 185.06 174 184.21 174.5 183.56 174.39 183.77 173.77 184.62 173.26 185.27 173.38 
M 228.21 179.87 227.65 179.54 227.34 178.6 227.59 178 228.15 178.33 228.46 179.27 228.21 179.87 
M 227.52 179.58 227.67 178.95 228.46 178.36 229.11 178.42 228.97 179.05 228.17 179.64 227.52 179.58 
M 207.13 141.02 206.49 140.9 206.24 140.58 
M 206.37 139.56 206.55 139.59 207.16 140.36 207.13 141.02 
M 206.67 140.98 206.35 140.41 206.54 139.44 207.06 139.04 207.38 139.61 207.19 140.58 206.67 140.98 
M 177.73 152.17 178.15 152.66 178.14 153.65 177.71 154.14 177.29 153.64 177.3 152.66 177.73 152.17 
M 178.38 153.52 177.74 153.39 177.14 152.61 177.18 151.95 177.82 152.09 178.42 152.87 178.38 153.52 
M 169.29 166 169.04 165.39 169.37 164.46 169.93 164.13 170.18 164.74 169.85 165.67 169.29 166 
M 170.27 165.43 169.63 165.3 169.02 164.53 169.05 163.87 169.69 164 170.3 164.78 170.27 165.43 
M 221.72 135.79 221.14 136.08 220.18 135.83 219.81 135.3 220.4 135 221.35 135.25 221.72 135.79 
M 220.04 135.34 220.69 135.32 221.47 135.93 221.59 136.57 220.94 136.6 220.16 135.99 220.04 135.34 
M 259.58 96.72 259.7 97.36 259.2 98.22 258.59 98.43 258.46 97.79 258.96 96.93 259.58 96.72 
M 259.67 97.1 259.31 97.65 258.36 97.92 257.77 97.64 258.12 97.1 259.07 96.82 259.67 97.1 
M 254.78 101.47 255.41 101.61 256.01 102.4 255.96 103.05 255.32 102.91 254.73 102.12 254.78 101.47 
M 255.16 101.54 255.52 102.08 255.4 103.06 254.91 103.5 254.55 102.95 254.68 101.97 255.16 101.54 
M 268.38 117.78 268.91 118.18 269.11 119.14 268.8 119.71 268.28 119.32 268.07 118.35 268.38 117.78 
M 268.65 119.5 268.4 118.89 268.72 117.96 269.29 117.63 269.53 118.23 269.21 119.17 268.65 119.5 
M 282.78 136.51 282.4 136.64 281.48 136.27 281.18 135.69 281.71 135.51 
M 282.23 135.99 282.28 136.84 281.88 137.36 281.42 136.89 281.37 135.9 281.69 135.48 
M 237.58 114.95 237.02 114.62 236.71 113.68 236.96 113.07 237.52 113.41 237.83 114.35 237.58 114.95 
M 238 113.8 237.45 114.17 236.47 114.04 236.04 113.56 236.58 113.2 237.56 113.32 238 113.8 
M 240.56 123.11 239.91 123.16 239.12 122.57 238.97 121.93 239.63 121.88 240.42 122.47 240.56 123.11 
M 240.17 121.88 240 122.52 239.19 123.07 238.54 122.99 238.71 122.36 239.53 121.81 240.17 121.88 
M 207.88 133.65 208.79 134.21 208.94 134.84 208.29 134.91 207.63 134.44 
M 207.95 133.54 208.3 134.1 208.14 135.07 207.64 135.49 207.4 135.1 
M 207.9 133.58 207.95 133.54 
M 224.68 121.52 224.26 121.01 224.3 120.03 224.74 119.55 225.15 120.05 225.12 121.04 224.68 121.52 
M 224.64 119.79 224.89 120.39 224.59 121.33 224.03 121.66 223.78 121.06 224.08 120.12 224.64 119.79 
M 166.35 153.37 166.68 152.81 167.62 152.5 168.23 152.75 167.89 153.31 166.95 153.62 166.35 153.37 
M 167.29 152.31 167.49 152.93 167.1 153.84 166.51 154.12 166.31 153.5 166.7 152.59 167.29 152.31 
M 253.46 171.45 253.1 170.9 253.23 169.92 253.72 169.49 254.08 170.04 253.95 171.02 253.46 171.45 
M 254.2 170.9 253.58 170.71 253.06 169.86 253.17 169.22 253.79 169.42 254.31 170.26 254.2 170.9 
M 154.65 153.17 155.28 152.97 156.18 153.36 156.47 153.95 155.84 154.14 154.94 153.75 154.65 153.17 
M 155.02 154.08 155.33 153.51 156.25 153.15 156.86 153.37 156.56 153.95 155.64 154.3 155.02 154.08 
M 269.37 184.23 268.74 184.07 268.17 183.26 268.23 182.61 268.86 182.77 269.43 183.58 269.37 184.23 
M 269.24 182.81 269.04 183.43 268.19 183.94 267.55 183.83 267.75 183.21 268.6 182.7 269.24 182.81 
M 268.77 178.34 268.69 177.69 269.24 176.87 269.87 176.7 269.95 177.35 269.4 178.17 268.77 178.34 
M 269.87 177.01 269.55 177.58 268.62 177.91 268.01 177.68 268.33 177.11 269.26 176.77 269.87 177.01 
M 260.85 186.93 260.9 187.58 260.3 188.37 259.66 188.51 259.62 187.85 260.21 187.07 260.85 186.93 
M 261 187.61 260.42 187.89 259.46 187.64 259.09 187.1 259.68 186.82 260.63 187.07 261 187.61 
M 213.47 124.46 213.56 125.11 213.01 125.94 212.39 126.12 212.3 125.47 212.84 124.64 213.47 124.46 
M 213.17 126 212.78 125.48 212.86 124.49 213.33 124.03 213.71 124.56 213.63 125.55 213.17 126 
M 212.7 132.58 212.7 131.92 213.35 131.18 214 131.09 214 131.74 213.35 132.49 212.7 132.58 
M 212.8 132.34 213.12 131.77 214.05 131.45 214.66 131.69 214.33 132.26 213.4 132.58 212.8 132.34 
M 241.12 175.43 241.61 175.85 241.76 176.83 241.41 177.38 240.92 176.96 240.77 175.98 241.12 175.43 
M 241.77 175.84 241.5 176.44 240.61 176.86 239.98 176.68 240.24 176.08 241.14 175.66 241.77 175.84 
M 245.6 104.85 244.94 104.88 244.17 104.27 244.05 103.63 244.7 103.6 245.47 104.21 245.6 104.85 
M 244.15 104.58 244.62 104.12 245.6 104.06 246.12 104.46 245.66 104.91 244.67 104.98 244.15 104.58 
M 239.79 105.93 239.15 105.79 238.56 105.01 238.6 104.36 239.24 104.49 239.83 105.28 239.79 105.93 
M 239.01 104.41 239.36 104.97 239.2 105.94 238.7 106.36 238.36 105.81 238.51 104.83 239.01 104.41 
M 250.38 103.01 250.92 102.65 251.9 102.78 252.33 103.27 251.79 103.63 250.81 103.5 250.38 103.01 
M 250.95 103.77 251.12 103.14 251.93 102.59 252.58 102.66 252.42 103.29 251.6 103.85 250.95 103.77 
M 242.43 100.23 242.66 99.62 243.52 99.14 244.16 99.27 243.94 99.89 243.07 100.37 242.43 100.23 
M 243.74 99.14 243.54 99.76 242.69 100.27 242.05 100.16 242.25 99.54 243.09 99.03 243.74 99.14 
M 287.42 153.05 287.7 152.46 288.61 152.07 289.23 152.26 288.95 152.85 288.04 153.25 287.42 153.05 
M 288.97 152.28 288.54 152.77 287.56 152.89 287.01 152.52 287.45 152.04 288.43 151.92 288.97 152.28 
M 292.14 158.03 291.56 158.32 290.6 158.09 290.22 157.56 290.8 157.26 291.76 157.49 292.14 158.03 
M 290.59 157.32 291.2 157.56 291.67 158.43 291.52 159.06 290.91 158.83 290.45 157.96 290.59 157.32 
M 248.19 94.63 247.9 95.22 246.99 95.6 246.36 95.4 246.65 94.81 247.56 94.43 248.19 94.63 
M 246.52 95.02 247.14 94.82 248.05 95.2 248.35 95.78 247.73 95.99 246.81 95.61 246.52 95.02 
M 254.31 95.25 253.9 95.75 252.93 95.93 252.37 95.59 252.78 95.09 253.75 94.91 254.31 95.25 
M 252.6 95.57 253.17 95.25 254.14 95.45 254.54 95.97 253.97 96.29 253 96.09 252.6 95.57 
M 241.89 87.25 242.54 87.16 243.37 87.69 243.56 88.31 242.91 88.41 242.08 87.88 241.89 87.25 
M 242.96 88.5 242.58 87.97 242.66 86.98 243.13 86.53 243.51 87.06 243.43 88.04 242.96 88.5 
M 251.34 88.14 251.96 87.94 252.87 88.32 253.16 88.91 252.54 89.11 251.63 88.73 251.34 88.14 
M 251.69 88.02 252.29 88.29 252.69 89.19 252.5 89.82 251.91 89.54 251.5 88.64 251.69 88.02 
M 236.36 97.75 236.87 97.34 237.86 97.38 238.33 97.83 237.82 98.24 236.83 98.2 236.36 97.75 
M 236.99 98.45 237.11 97.81 237.88 97.2 238.54 97.23 238.41 97.87 237.64 98.48 236.99 98.45 
M 237.61 91.65 238.05 91.16 239.03 91.04 239.57 91.41 239.14 91.89 238.16 92.01 237.61 91.65 
M 238.74 90.79 238.81 91.44 238.26 92.26 237.63 92.42 237.55 91.77 238.11 90.96 238.74 90.79 
M 209.68 180.57 210.34 180.53 211.12 181.12 211.26 181.76 210.61 181.81 209.82 181.21 209.68 180.57 
M 209.88 181.64 210.25 181.09 211.2 180.83 211.79 181.12 211.43 181.66 210.47 181.92 209.88 181.64 
M 228.08 123.31 228.36 122.72 229.27 122.33 229.89 122.52 229.61 123.11 228.71 123.51 228.08 123.31 
M 228.54 122.31 229.07 122.69 229.3 123.66 229 124.24 228.47 123.85 228.24 122.89 228.54 122.31 
M 233.7 119.4 233.2 118.97 233.06 118 233.41 117.45 233.91 117.87 234.05 118.85 233.7 119.4 
M 233.2 117.76 233.67 118.22 233.75 119.2 233.37 119.73 232.9 119.27 232.82 118.29 233.2 117.76 
M 273.77 170.9 273.2 170.59 272.85 169.66 273.08 169.05 273.65 169.36 274 170.29 273.77 170.9 
M 273.07 170.64 273.19 170 273.96 169.38 274.62 169.41 274.5 170.05 273.72 170.67 273.07 170.64 
M 212.7 140.25 212.47 139.64 212.81 138.71 213.38 138.39 213.61 139 213.28 139.93 212.7 140.25 
M 213.5 139.92 212.97 139.54 212.72 138.59 213.01 138 213.55 138.37 213.79 139.33 213.5 139.92 
M 220.21 126.56 219.98 125.95 220.33 125.02 220.91 124.71 221.13 125.33 220.78 126.25 220.21 126.56 
M 221.25 125.94 220.6 125.87 219.92 125.15 219.9 124.5 220.55 124.57 221.22 125.29 221.25 125.94 
M 225.04 187.54 225.38 188.09 225.23 189.07 225.03 189.24 
M 224.51 189.14 224.39 188.93 224.54 187.96 225.04 187.54 
M 225.12 189.23 224.74 188.7 224.82 187.71 225.29 187.26 225.67 187.79 225.59 188.77 225.12 189.23 
M 219.13 188.92 218.52 189.15 217.59 188.81 217.28 188.24 217.89 188.01 218.82 188.35 219.13 188.92 
M 218.65 189.18 218.12 188.8 217.9 187.84 218.2 187.26 218.73 187.64 218.96 188.61 218.65 189.18 
M 273.01 123.01 272.82 122.52 272.95 122.49 
M 273.06 123.51 272.46 123.42 272.64 122.8 272.96 122.59 
M 228.17 113.58 227.7 114.02 226.71 114.07 226.2 113.66 226.68 113.21 227.66 113.17 228.17 113.58 
M 227.78 113.15 227.41 113.69 226.46 113.95 225.87 113.67 226.23 113.13 227.19 112.87 227.78 113.15 
M 219.51 113.06 220.07 113.4 220.37 114.34 220.12 114.94 219.56 114.6 219.25 113.66 219.51 113.06 
M 220.57 113.96 219.95 114.19 219.03 113.85 218.71 113.27 219.33 113.05 220.25 113.39 220.57 113.96 
M 215.55 119.55 215.07 120 214.08 120.04 213.57 119.63 214.05 119.18 215.04 119.14 215.55 119.55 
M 213.82 119.47 214.46 119.38 215.3 119.9 215.49 120.53 214.84 120.63 214.01 120.1 213.82 119.47 
M 231.08 127.97 231.65 127.66 232.62 127.86 233.01 128.38 232.44 128.7 231.48 128.49 231.08 127.97 
M 232.75 127.91 232.24 128.32 231.25 128.28 230.78 127.83 231.29 127.42 232.27 127.46 232.75 127.91 
M 161.1 158.24 161.36 158.84 161.06 159.78 160.5 160.12 160.24 159.52 160.54 158.58 161.1 158.24 
M 160.06 159.02 160.71 158.96 161.52 159.53 161.67 160.17 161.02 160.23 160.22 159.66 160.06 159.02 
M 257.6 92.53 257.44 91.9 257.88 91.01 258.48 90.76 258.65 91.39 258.21 92.28 257.6 92.53 
M 257.29 91.67 257.91 91.45 258.83 91.81 259.13 92.39 258.52 92.61 257.6 92.25 257.29 91.67 
M 250.33 82.85 249.68 82.77 249.02 82.04 249 81.39 249.65 81.47 250.31 82.2 250.33 82.85 
M 250.37 81.86 249.86 82.26 248.87 82.21 248.4 81.76 248.91 81.36 249.9 81.41 250.37 81.86 
M 262.06 86.92 261.61 86.42 261.91 86.23 
M 257.56 84.66 256.98 84.97 256.02 84.75 255.63 84.23 256.21 83.92 257.17 84.14 257.56 84.66 
M 255.96 84.85 256.38 84.35 257.36 84.19 257.91 84.53 257.49 85.03 256.52 85.19 255.96 84.85 
M 225.84 105.43 226.45 105.2 227.38 105.54 227.69 106.12 227.08 106.35 226.15 106.01 225.84 105.43 
M 226.15 106.21 226.55 105.69 227.51 105.49 228.08 105.8 227.69 106.32 226.72 106.52 226.15 106.21 
M 219.02 108.56 219.37 108.01 220.32 107.74 220.91 108.01 220.56 108.56 219.61 108.83 219.02 108.56 
M 219.26 108.56 219.77 108.15 220.76 108.18 221.24 108.62 220.73 109.03 219.74 109 219.26 108.56 
M 219.24 102.94 219.53 102.91 220.07 103.28 219.63 103.76 218.72 103.86 
M 219.24 102.94 219.31 103.29 218.8 104.13 218.53 104.22 
M 157.58 165.18 157.65 164.53 158.37 163.85 159.02 163.82 158.95 164.47 158.23 165.15 157.58 165.18 
M 158.98 164.83 158.33 164.74 157.68 163.99 157.68 163.34 158.32 163.43 158.97 164.17 158.98 164.83 
M 151.02 158.21 150.81 157.59 151.19 156.67 151.77 156.38 151.98 157 151.6 157.91 151.02 158.21 
M 151.06 156.62 151.52 157.09 151.58 158.08 151.18 158.59 150.72 158.13 150.66 157.14 151.06 156.62 
M 232.09 110.64 232.04 109.99 232.64 109.2 233.28 109.06 233.32 109.71 232.73 110.5 232.09 110.64 
M 233.42 110.02 232.76 110.07 231.97 109.49 231.82 108.85 232.47 108.8 233.27 109.38 233.42 110.02 
M 258.04 74.41 257.74 74.98 256.82 75.34 256.2 75.13 256.51 74.55 257.43 74.19 258.04 74.41 
M 257.81 74.45 257.32 74.89 256.34 74.92 255.83 74.5 256.31 74.06 257.3 74.04 257.81 74.45 
M 261.62 77.71 262.07 77.87 
M 261.73 78.79 261.49 78.35 261.62 77.71 
M 261.35 78.5 261.93 78.38 
M 261.58 79.11 261.35 78.5 
M 251.69 77.03 251.12 77.34 250.15 77.12 249.77 76.59 250.34 76.28 251.31 76.51 251.69 77.03 
M 250.22 76.26 250.79 76.58 251.12 77.51 250.88 78.12 250.31 77.8 249.98 76.87 250.22 76.26 
M 268.38 191.9 268.49 191.27 268.99 190.85 269.33 191.41 269.25 191.89 
M 268.72 191.91 268.13 191.44 268.01 190.79 268.66 190.77 269.43 191.39 269.51 191.82 
M 198.96 178.23 198.37 178.5 197.42 178.23 197.06 177.68 197.65 177.41 198.6 177.68 198.96 178.23 
M 197.4 178.39 197.79 177.87 198.75 177.66 199.33 177.97 198.94 178.49 197.97 178.71 197.4 178.39 
M 230.43 95.86 229.96 95.41 229.87 94.43 230.25 93.9 230.72 94.35 230.81 95.33 230.43 95.86 
M 230.51 95.61 230.18 95.05 230.35 94.08 230.86 93.67 231.19 94.23 231.02 95.2 230.51 95.61 
M 231.86 87.8 231.58 88.39 230.67 88.79 230.05 88.59 230.33 88 231.24 87.61 231.86 87.8 
M 230.4 87.69 230.99 87.96 231.4 88.86 231.21 89.49 230.62 89.21 230.21 88.31 230.4 87.69 
M 238.25 84.32 238.39 84.96 237.92 85.83 237.31 86.06 237.17 85.42 237.64 84.55 238.25 84.32 
M 237.06 85.42 237.6 85.04 238.58 85.14 239.03 85.62 238.49 85.99 237.51 85.89 237.06 85.42 
M 237.69 80.63 237.47 81.24 236.61 81.73 235.97 81.61 236.19 80.99 237.05 80.5 237.69 80.63 
M 237.47 80.73 237.04 81.22 236.07 81.36 235.52 81.01 235.94 80.51 236.92 80.37 237.47 80.73 
M 257.3 158.01 256.92 157.48 257.01 156.5 257.48 156.05 257.86 156.57 257.77 157.56 257.3 158.01 
M 256.65 156.89 257.3 156.81 258.12 157.36 258.29 158 257.64 158.07 256.82 157.52 256.65 156.89 
M 279.13 175.36 279.78 175.33 280.57 175.93 280.7 176.57 280.04 176.61 279.26 176 279.13 175.36 
M 279.82 175.22 280.09 175.81 279.81 176.76 279.26 177.11 278.99 176.52 279.27 175.57 279.82 175.22 
M 200.63 190.67 200.43 190.43 200.45 189.77 201.09 189.88 201.65 190.56 
M 200.92 190.64 201.12 189.74 201.64 189.34 201.95 189.92 201.81 190.55 
M 259.89 67.51 260.3 68.02 260.26 69.01 259.81 69.48 259.4 68.97 259.44 67.99 259.89 67.51 
M 260.54 68.2 260.05 68.63 259.06 68.62 258.57 68.19 259.06 67.77 260.05 67.77 260.54 68.2 
M 249.64 148.07 249.92 147.48 250.83 147.09 251.45 147.28 251.17 147.87 250.26 148.26 249.64 148.07 
M 250.09 148.27 250.31 147.66 251.17 147.17 251.81 147.3 251.59 147.92 250.73 148.4 250.09 148.27 
M 288.96 178.15 288.31 178.17 287.54 177.55 287.42 176.91 288.07 176.88 288.84 177.5 288.96 178.15 
M 288.66 176.94 288.43 177.55 287.55 178.01 286.92 177.87 287.15 177.26 288.03 176.79 288.66 176.94 
M 228.96 100.04 228.72 100.65 227.84 101.1 227.21 100.95 227.45 100.35 228.32 99.89 228.96 100.04 
M 227.6 101.08 227.85 100.47 228.73 100.02 229.36 100.17 229.12 100.78 228.24 101.23 227.6 101.08 
M 234.25 103.85 233.59 103.85 232.85 103.2 232.76 102.55 233.41 102.55 234.16 103.2 234.25 103.85 
M 234.08 102.72 233.73 103.27 232.78 103.55 232.19 103.28 232.54 102.73 233.49 102.45 234.08 102.72 
M 279.36 160.34 279.79 160.83 279.8 161.82 279.37 162.32 278.94 161.83 278.94 160.84 279.36 160.34 
M 279.42 162.08 279.18 161.47 279.51 160.54 280.07 160.22 280.31 160.83 279.98 161.76 279.42 162.08 
M 280.5 184.34 280.87 183.8 281.82 183.55 282.41 183.84 282.04 184.38 281.08 184.63 280.5 184.34 
M 281 183.49 281.53 183.87 281.77 184.82 281.47 185.41 280.94 185.03 280.7 184.07 281 183.49 
M 269.76 111.83 269.75 112.48 269.09 113.22 268.44 113.3 268.45 112.64 269.11 111.91 269.76 111.83 
M 269.1 111.81 269.3 112.44 268.9 113.34 268.31 113.62 268.12 113 268.51 112.09 269.1 111.81 
M 196.46 182.44 196.82 182.98 196.69 183.96 196.2 184.4 195.84 183.85 195.97 182.87 196.46 182.44 
M 195.61 183.64 196.14 183.27 197.13 183.36 197.58 183.84 197.04 184.22 196.06 184.12 195.61 183.64 
M 290.59 141.69 289.94 141.78 289.11 141.24 288.93 140.61 289.57 140.52 290.4 141.06 290.59 141.69 
M 289.12 141.56 289.54 141.05 290.51 140.89 291.07 141.23 290.65 141.74 289.68 141.9 289.12 141.56 
M 170.53 172.84 170.26 173.44 169.37 173.85 168.74 173.68 169 173.08 169.9 172.66 170.53 172.84 
M 170.23 173.72 169.61 173.49 169.13 172.63 169.26 171.99 169.88 172.21 170.36 173.08 170.23 173.72 
M 223.91 93.8 224.09 93.99 224.16 94.97 223.77 95.49 223.31 95.03 223.29 94.81 
M 224.42 94.71 223.77 94.73 223.48 94.5 
M 223.93 93.76 224.31 94.07 224.42 94.71 
M 289.16 187.16 289.81 187.19 290.52 187.88 290.58 188.53 289.92 188.49 289.21 187.81 289.16 187.16 
M 289.14 187.63 289.8 187.61 290.56 188.25 290.66 188.89 290.01 188.9 289.25 188.27 289.14 187.63 
M 238.35 74 238.15 74.16 
M 238.64 73.75 238.99 73.95 238.59 74.47 237.58 74.63 
M 151.11 151.5 150.99 151.51 
M 244.31 71 244.43 70.36 245.19 69.73 245.84 69.75 245.73 70.4 244.97 71.02 244.31 71 
M 245.82 70.23 245.24 70.55 244.28 70.34 243.89 69.81 244.46 69.5 245.43 69.71 245.82 70.23 
M 244.32 78.81 244.06 78.22 244.34 77.27 244.89 76.92 245.16 77.52 244.88 78.46 244.32 78.81 
M 245.34 77.69 244.78 78.03 243.81 77.87 243.39 77.37 243.95 77.02 244.92 77.19 245.34 77.69 
M 156.02 169.18 156.54 168.79 157.53 168.85 157.99 169.3 157.48 169.7 156.49 169.64 156.02 169.18 
M 156.41 168.79 157.02 169.01 157.52 169.86 157.39 170.5 156.78 170.29 156.28 169.43 156.41 168.79 
M 175.57 188.01 175.68 187.37 176.44 186.74 177.09 186.75 176.98 187.39 176.22 188.02 175.57 188.01 
M 176.87 186.85 176.56 187.43 175.64 187.79 175.03 187.57 175.33 186.99 176.25 186.63 176.87 186.85 
M 184.33 181.67 184.97 181.52 185.84 181.98 186.08 182.58 185.45 182.73 184.57 182.27 184.33 181.67 
M 184.5 181.86 185.16 181.89 185.87 182.58 185.93 183.23 185.27 183.19 184.56 182.51 184.5 181.86 
M 254.7 189.68 254.53 190.32 254.36 190.44 
M 253.44 190.03 254.05 189.61 254.7 189.68 
M 253.77 190.17 254.35 189.59 255 189.54 254.96 190.2 254.6 190.55 
M 149.3 172.37 149.74 172.85 149.78 173.84 149.37 174.35 148.92 173.87 148.89 172.88 149.3 172.37 
M 149.8 173.95 149.26 173.58 149 172.63 149.29 172.04 149.83 172.41 150.08 173.37 149.8 173.95 
M 136.52 165.18 136.43 165.34 
M 136.28 165.08 136.52 165.18 
M 132.85 157.64 133.18 157.08 134.12 156.76 134.72 157 134.39 157.57 133.46 157.89 132.85 157.64 
M 133.05 157.17 133.7 157.1 134.51 157.67 134.67 158.3 134.02 158.37 133.21 157.8 133.05 157.17 
M 263.87 123.94 264.26 123.41 265.22 123.2 265.8 123.51 265.41 124.04 264.44 124.25 263.87 123.94 
M 265.38 124.24 264.79 123.96 264.4 123.05 264.6 122.43 265.19 122.71 265.58 123.62 265.38 124.24 
M 302.34 167.32 302.74 167.83 302.69 168.82 302.24 169.29 301.84 168.78 301.89 167.79 302.34 167.32 
M 302.72 168.92 302.2 168.53 302 167.56 302.32 166.99 302.84 167.38 303.04 168.35 302.72 168.92 
M 252.89 70.69 252.56 70.13 252.75 69.16 253.27 68.76 253.59 69.32 253.4 70.29 252.89 70.69 
M 252.41 69.37 253.05 69.49 253.67 70.26 253.65 70.91 253.01 70.8 252.39 70.03 252.41 69.37 
M 183.19 190.77 182.54 190.87 181.7 190.35 181.51 189.72 182.16 189.62 183 190.15 183.19 190.77 
M 181.96 189.61 182.45 190.03 182.59 191.01 182.24 191.56 181.75 191.13 181.61 190.16 181.96 189.61 
M 190.73 179.53 190.08 179.42 189.45 178.66 189.46 178.01 190.11 178.12 190.74 178.88 190.73 179.53 
M 190.84 178.9 190.19 178.99 189.36 178.45 189.18 177.82 189.83 177.73 190.66 178.27 190.84 178.9 
M 306.69 164.25 307.35 164.25 308.1 164.89 308.2 165.53 307.54 165.54 306.79 164.9 306.69 164.25 
M 306.82 164.47 307.45 164.65 307.98 165.49 307.89 166.13 307.26 165.95 306.73 165.12 306.82 164.47 
M 297.32 192.98 296.71 193.21 295.78 192.86 295.47 192.29 296.08 192.06 297.01 192.41 297.32 192.98 
M 296.06 191.96 296.51 192.43 296.57 193.42 296.17 193.93 295.82 193.57 
M 295.7 193.24 295.66 192.48 296.06 191.96 
M 306.73 149.18 307.18 149.65 307.24 150.63 306.84 151.15 306.39 150.68 306.33 149.7 306.73 149.18 
M 307.11 150.84 306.66 150.37 306.62 149.38 307.02 148.87 307.47 149.34 307.52 150.33 307.11 150.84 
M 309.39 157.31 308.86 157.69 307.87 157.6 307.42 157.13 307.95 156.75 308.94 156.84 309.39 157.31 
M 307.68 157.4 308.23 157.06 309.21 157.21 309.63 157.71 309.07 158.06 308.1 157.9 307.68 157.4 
M 306.47 144.66 306.41 145.31 305.7 145.99 305.05 146.03 305.11 145.37 305.82 144.69 306.47 144.66 
M 305.43 146.02 305.52 145.37 306.27 144.72 306.92 144.72 306.83 145.37 306.09 146.02 305.43 146.02 
M 310.8 144.14 310.78 143.49 311.41 142.72 312.05 142.61 312.07 143.27 311.44 144.03 310.8 144.14 
M 311.06 144.04 311.19 143.4 311.97 142.79 312.62 142.83 312.49 143.47 311.71 144.07 311.06 144.04 
M 313.3 150.67 313.12 150.05 313.54 149.15 314.13 148.88 314.31 149.51 313.9 150.4 313.3 150.67 
M 313.92 149.05 313.94 149.71 313.32 150.47 312.68 150.58 312.66 149.93 313.28 149.16 313.92 149.05 
M 301.41 178.33 301.09 177.76 301.3 176.79 301.82 176.4 302.13 176.97 301.93 177.94 301.41 178.33 
M 301.43 176.64 301.77 177.19 301.62 178.17 301.12 178.59 300.77 178.03 300.93 177.06 301.43 176.64 
M 305.81 173.03 306.31 172.61 307.29 172.63 307.78 173.06 307.28 173.48 306.29 173.46 305.81 173.03 
M 307.44 173.43 306.8 173.28 306.22 172.48 306.28 171.83 306.91 171.98 307.49 172.78 307.44 173.43 
M 316.52 143.31 316.93 143.82 316.9 144.8 316.45 145.28 316.04 144.77 316.08 143.78 316.52 143.31 
M 316.54 143.54 316.69 144.18 316.24 145.06 315.64 145.3 315.48 144.66 315.93 143.79 316.54 143.54 
M 322.09 147.7 322.57 147.25 323.55 147.22 324.06 147.63 323.59 148.07 322.6 148.11 322.09 147.7 
M 322.87 148.39 322.85 147.73 323.47 146.97 324.12 146.85 324.14 147.51 323.51 148.27 322.87 148.39 
M 319.54 155.77 319.78 155.17 320.66 154.71 321.3 154.86 321.06 155.47 320.18 155.93 319.54 155.77 
M 321.03 154.87 320.64 155.4 319.68 155.63 319.1 155.32 319.49 154.79 320.45 154.57 321.03 154.87 
M 313.4 160.01 312.75 160.03 311.98 159.42 311.86 158.77 312.51 158.75 313.28 159.37 313.4 160.01 
M 312.01 158.96 312.63 159.15 313.16 159.99 313.06 160.64 312.44 160.45 311.91 159.61 312.01 158.96 
M 256.84 61.04 257.34 62.01 257.14 62.63 256.55 62.34 256.17 61.43 
M 256.43 61.28 256.81 61.49 257.15 62.42 256.93 63.03 256.35 62.72 256.01 61.79 256.13 61.45 
M 302.08 184.92 302.73 184.92 303.48 185.56 303.57 186.21 302.92 186.21 302.17 185.57 302.08 184.92 
M 303.39 185.07 303.05 185.63 302.11 185.93 301.51 185.67 301.85 185.11 302.79 184.82 303.39 185.07 
M 236.5 174.47 235.98 174.87 234.99 174.81 234.52 174.35 235.04 173.95 236.03 174.01 236.5 174.47 
M 235.32 175.14 235.29 174.49 235.89 173.71 236.53 173.58 236.57 174.23 235.96 175.01 235.32 175.14 
M 316.38 162.81 316.86 163.26 316.95 164.24 316.57 164.78 316.1 164.33 316 163.34 316.38 162.81 
M 316.43 163.04 316.67 163.65 316.33 164.58 315.77 164.9 315.53 164.29 315.86 163.36 316.43 163.04 
M 311.87 168.71 312.46 169 312.84 169.91 312.64 170.53 312.05 170.25 311.67 169.34 311.87 168.71 
M 311.64 169.19 312.27 169.39 312.78 170.23 312.67 170.88 312.05 170.68 311.53 169.83 311.64 169.19 
M 310.22 176.15 310.86 176.3 311.43 177.11 311.37 177.76 310.74 177.6 310.16 176.8 310.22 176.15 
M 310.66 177.69 310.58 177.05 311.12 176.22 311.75 176.04 311.83 176.69 311.29 177.52 310.66 177.69 
M 308.98 182.1 308.36 182.3 307.45 181.91 307.16 181.32 307.79 181.12 308.69 181.51 308.98 182.1 
M 308.49 181.08 308.31 181.71 307.48 182.25 306.83 182.15 307.01 181.53 307.85 180.99 308.49 181.08 
M 262.31 74.18 262 73.6 262.23 72.64 262.76 72.25 263.06 72.83 262.84 73.79 262.31 74.18 
M 262.3 73.93 262.3 73.28 262.95 72.53 263.6 72.44 263.6 72.76 
M 263.41 73.32 262.95 73.84 262.3 73.93 
M 300.68 191.53 300.76 190.89 301.49 190.22 302.15 190.21 302.07 190.86 301.33 191.52 300.68 191.53 
M 300.89 191.41 301.18 190.83 302.09 190.45 302.71 190.65 302.42 191.24 301.51 191.62 300.89 191.41 
M 325.38 171.07 324.85 171.46 323.87 171.37 323.41 170.91 323.94 170.52 324.93 170.61 325.38 171.07 
M 324.03 171.65 324.16 171.01 324.94 170.4 325.59 170.44 325.46 171.08 324.68 171.68 324.03 171.65 
M 288.04 145.43 288.66 145.64 289.14 146.5 289.02 147.14 288.4 146.93 287.91 146.07 288.04 145.43 
M 289.28 146.36 288.64 146.5 287.77 146.02 287.54 145.41 288.18 145.27 289.05 145.74 289.28 146.36 
M 293.21 152.88 293.79 152.59 294.75 152.84 295.12 153.38 294.53 153.67 293.58 153.42 293.21 152.88 
M 293.65 152.58 294.22 152.9 294.56 153.82 294.33 154.44 293.76 154.12 293.42 153.19 293.65 152.58 
M 327.52 149.16 328.07 148.8 329.05 148.95 329.48 149.44 328.93 149.79 327.95 149.65 327.52 149.16 
M 328.59 150.05 328.32 149.45 328.6 148.5 329.15 148.15 329.42 148.75 329.14 149.69 328.59 150.05 
M 332.35 146.39 332.46 145.74 333.23 145.13 333.88 145.15 333.77 145.79 333 146.41 332.35 146.39 
M 332.36 145.83 332.97 145.58 333.91 145.9 334.24 146.46 333.63 146.71 332.7 146.39 332.36 145.83 
M 248.57 64.53 248.48 64.62 
M 317.12 155.23 316.49 155.39 315.61 154.94 315.37 154.33 316 154.17 316.88 154.63 317.12 155.23 
M 315.71 155.31 316.01 154.73 316.93 154.36 317.55 154.58 317.25 155.16 316.33 155.53 315.71 155.31 
M 321.05 184.26 321.62 183.94 322.59 184.12 322.99 184.63 322.43 184.96 321.46 184.78 321.05 184.26 
M 321.51 183.9 322.08 184.22 322.42 185.15 322.18 185.76 321.61 185.44 321.28 184.51 321.51 183.9 
M 344.33 147.94 344.13 148.56 343.3 149.09 342.65 148.98 342.84 148.36 343.68 147.84 344.33 147.94 
M 343.61 149.2 343.31 148.62 343.55 147.66 344.08 147.29 344.38 147.87 344.14 148.83 343.61 149.2 
M 338.15 149.83 338.53 150.36 338.45 151.34 337.98 151.8 337.6 151.27 337.68 150.29 338.15 149.83 
M 337.39 150.48 338.04 150.58 338.68 151.33 338.67 151.98 338.02 151.88 337.39 151.13 337.39 150.48 
M 341.85 156.27 342.31 156.73 342.39 157.72 342 158.24 341.53 157.78 341.46 156.8 341.85 156.27 
M 342.38 157.85 341.84 157.48 341.6 156.52 341.89 155.94 342.43 156.31 342.67 157.27 342.38 157.85 
M 353.63 150.36 353.4 149.75 353.75 148.82 354.32 148.51 354.55 149.12 354.2 150.05 353.63 150.36 
M 353.52 148.84 354.05 149.21 354.29 150.17 353.99 150.75 353.46 150.38 353.22 149.42 353.52 148.84 
M 296.24 141.06 296.17 140.41 296.73 139.6 297.36 139.44 297.43 140.09 296.87 140.9 296.24 141.06 
M 296.11 140.55 296.6 140.12 297.59 140.12 298.08 140.54 297.59 140.97 296.6 140.97 296.11 140.55 
M 154.06 210.29 154.47 209.79 155.45 209.61 156.01 209.94 155.6 210.45 154.63 210.63 154.06 210.29 
M 154.35 209.81 155 209.88 155.67 210.61 155.68 211.27 155.04 211.19 154.37 210.46 154.35 209.81 
M 333.67 182.46 333.02 182.38 332.36 181.65 332.34 181 332.99 181.08 333.65 181.81 333.67 182.46 
M 333.73 181.94 333.07 181.96 332.31 181.33 332.2 180.69 332.85 180.67 333.61 181.3 333.73 181.94 
M 327.47 177.67 327.21 177.08 327.49 176.13 328.05 175.78 328.31 176.38 328.03 177.33 327.47 177.67 
M 327.06 177.01 327.57 176.59 328.55 176.62 329.04 177.06 328.53 177.47 327.55 177.45 327.06 177.01 
M 331.59 175.62 332.04 176.08 332.1 177.07 331.71 177.59 331.25 177.12 331.19 176.14 331.59 175.62 
M 330.9 176.49 331.55 176.39 332.39 176.91 332.58 177.54 331.93 177.64 331.09 177.11 330.9 176.49 
M 336.4 166.22 337.02 165.99 337.94 166.33 338.26 166.9 337.65 167.13 336.72 166.79 336.4 166.22 
M 338.01 166.89 337.36 166.8 336.71 166.06 336.71 165.4 337.36 165.49 338.01 166.23 338.01 166.89 
M 361.95 150.63 362.32 150.1 363.28 149.86 363.86 150.15 363.49 150.69 362.53 150.93 361.95 150.63 
M 362.36 150.91 362.68 150.34 363.6 150 364.21 150.23 363.9 150.8 362.97 151.14 362.36 150.91 
M 353.26 164.45 352.95 165.03 352.03 165.38 351.42 165.16 351.72 164.59 352.65 164.23 353.26 164.45 
M 351.59 164.87 352.19 164.62 353.13 164.93 353.46 165.5 352.86 165.75 351.92 165.43 351.59 164.87 
M 364.89 156.15 364.36 156.52 363.37 156.41 362.93 155.93 363.47 155.56 364.45 155.67 364.89 156.15 
M 364.66 156 364.05 156.23 363.12 155.9 362.8 155.33 363.41 155.09 364.34 155.43 364.66 156 
M 346.15 170.88 346.4 170.27 347.28 169.83 347.92 169.99 347.67 170.6 346.78 171.04 346.15 170.88 
M 347.02 169.68 347.23 170.3 346.86 171.22 346.28 171.52 346.07 170.9 346.43 169.98 347.02 169.68 
M 337.8 174.26 337.53 173.66 337.81 172.72 338.36 172.37 338.63 172.96 338.35 173.91 337.8 174.26 
M 338.83 173.38 338.19 173.52 337.32 173.05 337.1 172.44 337.73 172.3 338.6 172.77 338.83 173.38 
M 349.04 175.56 348.77 176.15 347.87 176.56 347.24 176.37 347.52 175.78 348.42 175.37 349.04 175.56 
M 347.79 176.63 347.91 175.98 348.68 175.37 349.33 175.39 349.21 176.04 348.44 176.65 347.79 176.63 
M 343.37 179.09 342.84 178.71 342.62 177.75 342.92 177.17 343.45 177.55 343.67 178.52 343.37 179.09 
M 342.42 177.94 343.07 177.91 343.85 178.52 343.97 179.16 343.32 179.19 342.54 178.58 342.42 177.94 
M 341.11 183.66 340.66 184.13 339.67 184.23 339.14 183.85 339.59 183.38 340.58 183.28 341.11 183.66 
M 340.88 183.77 340.25 183.96 339.35 183.55 339.08 182.96 339.7 182.77 340.6 183.18 340.88 183.77 
M 343.04 166.82 342.5 166.46 342.24 165.5 342.53 164.92 343.07 165.28 343.32 166.23 343.04 166.82 
M 342.08 166.14 342.59 165.73 343.58 165.76 344.06 166.21 343.55 166.62 342.56 166.59 342.08 166.14 
M 229.58 83.13 229.85 83.42 229.31 83.79 228.97 83.76 
M 362.21 168.87 361.56 168.93 360.76 168.36 360.61 167.72 361.26 167.66 362.06 168.24 362.21 168.87 
M 362.01 168.76 361.39 168.53 360.91 167.67 361.05 167.03 361.66 167.26 362.14 168.12 362.01 168.76 
M 262.24 59.31 262.63 59.83 262.57 60.81 262.11 61.28 261.71 60.76 261.78 59.77 262.24 59.31 
M 261.78 60.94 261.93 60.3 262.74 59.73 263.39 59.79 263.24 60.42 262.43 61 261.78 60.94 
M 373.5 155.48 374.14 155.57 374.8 156.31 374.8 156.97 374.16 156.88 373.5 156.14 373.5 155.48 
M 374.8 156.61 374.16 156.46 373.58 155.66 373.64 155.01 374.28 155.16 374.85 155.96 374.8 156.61 
M 366.32 162.11 365.79 161.73 365.56 160.77 365.86 160.19 366.39 160.57 366.62 161.53 366.32 162.11 
M 366.28 160.43 366.32 161.08 365.71 161.86 365.07 161.99 365.03 161.33 365.64 160.55 366.28 160.43 
M 141.96 196.03 142.25 196.28 142.35 196.92 141.59 196.84 
M 142.33 196.46 141.74 196.5 
M 142.09 195.75 142.33 196.46 
M 378.09 161.66 377.82 162.26 376.92 162.67 376.3 162.49 376.57 161.89 377.46 161.48 378.09 161.66 
M 376.97 161.36 377.34 161.89 377.24 162.87 376.77 163.32 376.39 162.79 376.49 161.8 376.97 161.36 
M 381.31 152.47 381.5 152.61 381.66 153.25 381.01 153.31 380.2 152.73 380.06 152.13 
M 380.17 152.97 380.66 152.54 381.53 152.53 
M 381.7 152.58 382.14 152.95 381.65 153.39 380.66 153.4 380.17 152.97 
M 387.16 155.38 386.62 155.01 386.37 154.05 386.46 153.88 
M 387.27 154.1 387.45 154.8 387.16 155.38 
M 387.44 154.15 387.12 154.52 386.15 154.68 385.59 154.34 386.19 153.81 
M 285.06 142.05 284.55 141.64 284.38 140.67 284.71 140.11 285.22 140.52 285.4 141.49 285.06 142.05 
M 284.21 140.75 284.86 140.84 285.5 141.59 285.5 142.24 284.85 142.15 284.21 141.4 284.21 140.75 
M 348.65 185.56 349.18 185.17 350.16 185.26 350.62 185.73 350.09 186.11 349.11 186.03 348.65 185.56 
M 350.22 185.16 349.86 185.71 348.91 185.99 348.32 185.71 348.67 185.16 349.62 184.89 350.22 185.16 
M 362.65 172.56 362.94 173.14 362.68 174.1 362.14 174.46 361.86 173.88 362.11 172.92 362.65 172.56 
M 361.73 173.17 362.37 173.27 363.01 174.03 363 174.68 362.35 174.58 361.72 173.83 361.73 173.17 
M 363.64 183.51 363.19 183.04 363.14 182.06 363.54 181.54 363.99 182.01 364.04 183 363.64 183.51 
M 362.92 182.19 363.56 182.29 364.2 183.05 364.19 183.7 363.55 183.6 362.91 182.84 362.92 182.19 
M 403.04 160.12 403 160.39 402.37 160.21 401.84 159.37 401.87 159.15 
M 402.73 160.27 402.33 159.75 402.34 159.54 
M 402.95 160.04 402.73 160.27 
M 393.47 161.73 392.82 161.71 392.1 161.04 392.02 160.39 392.68 160.41 393.4 161.08 393.47 161.73 
M 392.09 160.69 392.73 160.82 393.33 161.61 393.29 162.26 392.65 162.13 392.05 161.34 392.09 160.69 
M 136.35 153.11 135.79 152.78 135.51 151.9 
M 136.43 151.98 136.61 152.51 136.35 153.11 
M 135.3 152.28 135.89 152 136.84 152.25 137.21 152.79 136.63 153.08 135.67 152.82 135.3 152.28 
M 408.07 175.87 407.49 176.17 406.53 175.94 406.15 175.41 406.73 175.11 407.69 175.34 408.07 175.87 
M 406.36 175.7 406.97 175.45 407.91 175.76 408.24 176.32 407.64 176.57 406.7 176.27 406.36 175.7 
M 367.45 187.67 367.69 187.07 368.58 186.62 369.21 186.78 368.96 187.39 368.08 187.83 367.45 187.67 
M 368.89 187.72 368.29 187.46 367.87 186.57 368.04 185.94 368.64 186.2 369.07 187.09 368.89 187.72 
M 373.86 184.42 373.21 184.33 372.55 183.6 372.54 182.94 373.19 183.03 373.85 183.76 373.86 184.42 
M 372.88 184.36 372.96 183.71 373.7 183.05 374.35 183.04 374.27 183.69 373.54 184.35 372.88 184.36 
M 383.81 182.74 383.54 182.15 383.82 181.2 384.37 180.85 384.64 181.44 384.36 182.39 383.81 182.74 
M 384.84 181.74 384.24 181.98 383.3 181.66 382.98 181.09 383.59 180.85 384.52 181.18 384.84 181.74 
M 372.99 176.41 372.69 175.83 372.94 174.87 373.47 174.5 373.76 175.08 373.52 176.04 372.99 176.41 
M 372.86 174.8 373.34 175.25 373.44 176.23 373.07 176.76 372.59 176.32 372.49 175.34 372.86 174.8 
M 380.11 176.68 380.76 176.62 381.56 177.2 381.71 177.83 381.06 177.89 380.26 177.32 380.11 176.68 
M 381.28 177.91 380.8 177.47 380.69 176.49 381.06 175.95 381.54 176.39 381.65 177.37 381.28 177.91 
M 384.68 176.91 385.02 176.35 385.96 176.05 386.56 176.3 386.22 176.86 385.29 177.17 384.68 176.91 
M 386.08 177.2 385.55 176.83 385.3 175.87 385.58 175.29 386.12 175.66 386.37 176.61 386.08 177.2 
M 393.49 179.73 393.93 179.25 394.91 179.14 395.45 179.51 395.01 179.99 394.03 180.1 393.49 179.73 
M 395.16 179.31 394.67 179.75 393.68 179.75 393.18 179.33 393.68 178.9 394.66 178.89 395.16 179.31 
M 400.03 182.15 400.02 182.35 
M 399.11 182.55 399.38 182.24 400.03 182.15 
M 398.89 182.6 398.72 182.43 398.68 181.78 399.33 181.83 399.88 182.38 
M 390.26 182.93 389.64 183.13 388.73 182.74 388.45 182.16 389.07 181.96 389.98 182.34 390.26 182.93 
M 389.25 183.29 389.14 182.64 389.65 181.8 390.27 181.59 390.38 182.24 389.87 183.08 389.25 183.29 
M 149.36 179.9 148.73 179.74 148.16 178.93 148.23 178.28 148.86 178.44 149.43 179.25 149.36 179.9 
M 148.13 179.44 148.59 178.98 149.57 178.9 150.1 179.28 149.64 179.75 148.66 179.83 148.13 179.44 
M 261.09 102.56 261.43 102 262.37 101.69 262.97 101.94 262.63 102.5 261.7 102.81 261.09 102.56 
M 262.31 102.95 261.89 102.45 261.92 101.46 262.35 100.97 262.77 101.48 262.75 102.47 262.31 102.95 
M 220.28 291.39 218.38 297.7 
M 220.28 291.39 222.98 291.39 223.79 291.7 224.12 292.6 223.85 293.5 222.98 294.39 221.99 294.7 219.29 294.7 
M 226.58 291.39 224.69 297.7 
M 227.51 295.3 231.11 295.3 231.29 294.7 231.17 294.1 230.45 293.5 229.55 293.5 228.86 293.8 228.08 294.39 227.51 295.3 227.33 295.89 227.36 296.8 227.78 297.39 228.29 297.7 229.19 297.7 229.88 297.39 230.66 296.8 
M 233.75 293.5 232.85 296.5 232.88 297.39 233.39 297.7 234.29 297.7 234.98 297.39 236.15 296.5 
M 237.05 293.5 235.79 297.7 
M 239.45 293.5 238.19 297.7 
M 239.09 294.7 240.26 293.8 240.95 293.5 241.85 293.5 242.36 293.8 242.39 294.7 241.49 297.7 
M 242.39 294.7 243.56 293.8 244.25 293.5 245.15 293.5 245.66 293.8 245.69 294.7 244.79 297.7 
M 251.75 293.5 250.49 297.7 
M 251.48 294.39 251.06 293.8 250.55 293.5 249.65 293.5 248.96 293.8 248.18 294.39 247.61 295.3 247.43 295.89 247.46 296.8 247.88 297.39 248.39 297.7 249.29 297.7 249.98 297.39 250.76 296.8 
M 254.15 293.5 252.26 299.8 
M 253.88 294.39 254.66 293.8 255.35 293.5 256.25 293.5 256.76 293.8 257.18 294.39 257.21 295.3 257.02 295.89 256.46 296.8 255.68 297.39 254.99 297.7 254.09 297.7 253.58 297.39 253.16 296.8 
M 260.18 291.39 260.39 291.7 260.77 291.39 260.57 291.1 260.18 291.39 
M 259.85 293.5 258.59 297.7 
M 263.18 291.39 261.64 296.5 261.68 297.39 262.19 297.7 262.78 297.7 
M 261.64 293.5 263.75 293.5 
M 266.18 291.39 266.39 291.7 266.77 291.39 266.57 291.1 266.18 291.39 
M 265.85 293.5 264.59 297.7 
M 270.98 294.39 270.86 293.8 270.05 293.5 269.14 293.5 268.15 293.8 267.68 294.39 267.8 295 268.31 295.3 269.72 295.6 270.23 295.89 270.26 296.8 269.77 297.39 268.79 297.7 267.89 297.7 267.08 297.39 266.95 296.8 
M 279.64 293.5 278.39 297.7 
M 279.38 294.39 278.95 293.8 278.45 293.5 277.55 293.5 276.86 293.8 276.08 294.39 275.51 295.3 275.33 295.89 275.36 296.8 275.77 297.39 276.29 297.7 277.19 297.7 277.88 297.39 278.65 296.8 
M 282.68 291.39 280.79 297.7 
M 285.08 291.39 283.19 297.7 
M 287.18 291.39 287.39 291.7 287.77 291.39 287.57 291.1 287.18 291.39 
M 286.85 293.5 285.58 297.7 
M 289.25 293.5 287.99 297.7 
M 288.7 295.3 289.27 294.39 290.06 293.8 290.75 293.5 291.64 293.5 
M 293.48 291.39 293.69 291.7 294.08 291.39 293.87 291.1 293.48 291.39 
M 293.14 293.5 291.89 297.7 
M 298.27 294.39 298.15 293.8 297.35 293.5 296.45 293.5 295.45 293.8 294.98 294.39 295.1 295 295.61 295.3 297.02 295.6 297.52 295.89 297.56 296.8 297.08 297.39 296.08 297.7 295.19 297.7 294.38 297.39 294.26 296.8 
M 299.87 297.1 299.48 297.39 299.69 297.7 300.08 297.39 299.87 297.1 
"/></svg>
