<svg xmlns="http://www.w3.org/2000/svg" width="520" height="320"><rect x="0" y="0" width="520" height="320" fill="floralwhite"/><rect x="10" y="10" width="500" height="300" stroke="black" stroke-width="1" fill="none"/><path stroke="black" stroke-width="1" fill="none" stroke-linecap="round" stroke-linejoin="round" d="
M 194.56 96.17 198.89 95.11 208.79 90.89 218.52 86.29 228.53 82.32 239 79.82 249.74 80.51 270.47 86.32 280.75 89.51 291.35 91.42 302.06 92.42 312.43 95.33 332.16 103.93 341.73 108.87 350.75 114.73 358.98 121.68 359.79 123.18 
M 359.79 170.07 353.65 177.21 345 183.63 335.66 188.97 325.88 193.47 315.62 196.74 305.05 198.74 294.58 201.23 283.9 202.63 273.34 200.57 262.86 198.09 252.26 196.24 241.53 195.4 230.82 196.54 220.22 198.4 209.53 199.67 198.79 199 188.37 196.28 187.81 196 
M 201.01 134.96 202.46 134.54 
M 217.05 128.19 219.53 126.48 
M 237.43 121.65 240.75 121.74 
M 244 122.07 251.71 123.35 256.56 124.43 
M 259.98 125.35 270.64 128.66 
M 274.12 129.71 277.64 130.54 
M 281.46 131.37 287.5 132.88 291.33 133.36 296.67 133.28 
M 300.38 133.46 302.32 133.65 312.08 135.53 
M 319.88 137.57 321.75 138.06 326.74 138.96 
M 330.08 139.5 335.02 140.22 338.02 140.42 346.66 140.68 351.89 140.6 354.73 140.81 359.79 142.16 
M 192.25 187.74 193.04 190.94 
M 193.91 194.15 194.83 197.33 
M 200.86 101.47 200.43 103.04 199.59 108.31 
M 200.63 178.2 201.12 181.24 
M 201.67 184.29 202.81 190.31 
M 203.67 195.81 204.36 198.68 
M 210.5 96.02 209.01 100.42 208.29 103.66 208.07 105.44 
M 207.22 112.67 205.84 119.51 
M 205.17 123 204.57 126.58 
M 203.93 130.15 203.36 133.18 
M 210.95 176.89 210.99 178.77 
M 211.59 184.41 212.5 188.98 214.63 197.05 
M 218.05 96.98 217.5 98.38 216.35 103.13 
M 221.93 181.23 222.44 184.24 
M 223.7 190.35 224.16 193.15 
M 224.49 195.29 224.62 196.07 
M 228.73 94.61 226.95 98.68 225.54 103.19 
M 224.65 106.3 222.79 114.63 222.23 118.23 221.84 123.52 
M 230.04 154.14 230.1 154.52 
M 234.01 181.51 235.46 188.76 
M 239.68 91.83 237.38 101.4 
M 235.52 107.59 232.09 118.68 231.67 121.53 
M 237.76 140.2 238.58 143.87 
M 239.84 150.82 240.28 153.2 
M 244.94 182.75 244.97 182.97 
M 246.48 191.73 246.81 194.65 
M 251.7 92.17 250.53 94.96 
M 249.5 97.91 248.54 100.97 
M 246.56 107.12 244.08 115.04 243.22 118.41 242.96 120.09 
M 255.41 183.94 256.34 188.12 
M 257.27 191.41 258.93 197.4 
M 266.06 85.06 265.6 86.38 
M 262.13 98.61 260.03 104.59 
M 258.84 107.5 256.29 113.27 
M 254.95 116.15 254.31 117.62 253.86 119.32 
M 258.24 146.74 259.68 151.49 
M 268.18 184.16 269.31 189.05 
M 270.05 192.16 270.64 195.09 
M 274.28 102.98 273.26 106.03 
M 272.2 109.08 271.09 112.1 
M 269.76 114.95 267.36 118.86 266.69 120.32 
M 265.25 124.21 264.48 126.64 
M 267.16 144.16 268.5 148.19 
M 280.79 186.01 282.15 190.94 282.51 195.99 282.88 198.69 283.86 202.62 
M 286.94 106.21 284.05 113.56 280.92 122.96 280.29 124.45 
M 277.04 129.35 276.22 130.3 
M 277.14 137.65 277.84 140.91 
M 291.56 183.09 292.77 188.87 294.33 193.88 
M 295.42 197.28 296.4 200.8 
M 301.8 106.63 301.22 108.07 297.54 114.55 
M 296.21 117.32 293.61 123 
M 292.45 126.01 291.29 129.05 
M 290 131.92 289.29 133.27 
M 289.71 139.87 290.22 142.85 
M 302.47 181.75 304.34 186.81 307.68 198.24 
M 313.98 107.02 312.37 113.5 
M 311.29 116.5 309.9 119.21 
M 305.31 127 303.83 129.69 
M 302.32 132.27 301.56 133.51 
M 304.35 147.24 304.48 147.68 
M 313.98 179.23 317.1 188.53 
M 317.94 191.7 318.78 194.9 
M 324.95 112.22 324.06 117.39 323.2 120.6 322.17 123.65 320.97 126.55 319.63 129.31 317.97 131.78 314.68 136.11 
M 315.88 140.9 316.79 144.22 
M 317.67 147.5 317.8 147.99 
M 325.11 176.33 329.34 191.88 
M 334.61 116.56 333.85 119.84 
M 333.12 123.16 331.82 127.95 330.69 130.91 327.88 136.29 326.7 138.96 
M 328.38 146.58 328.84 148.41 
M 334.33 173.94 335.22 176.92 
M 336.3 180.3 337.41 183.69 
M 338.28 186.84 338.41 187.4 
M 344.68 114.41 344.08 115.81 343.72 117.45 
M 342.63 124.39 342.34 126.11 341.37 129.18 339.23 135.16 337.56 140.41 
M 343.74 173.18 346.26 182.44 
M 304.74 126.4 303.85 126.36 302.3 125.92 301.88 125.27 301.39 123.8 
M 231.17 123.2 232.2 124.26 232.18 124.78 231.63 126.43 231.13 127.05 230.29 127.15 229.81 127 
M 218.42 86.71 218.17 86.46 
M 245.06 195.68 243.7 194.12 242.57 192.53 242.31 191.59 242.25 190.19 
M 226.98 128.04 225.48 126.41 223.61 125.09 
M 256.06 151.7 256.13 151 256.57 150.35 
M 205.6 151.49 205.97 151.08 206.65 150.95 
M 301.54 119.09 300.58 118.92 298.91 118.92 297.83 118.4 296.82 117.53 
M 339.05 148.06 338.34 147.84 337.62 147.33 336.77 145.62 
M 214.59 181.63 213.01 184.71 211.51 186.46 
M 273.97 190.16 273.77 189.76 273.8 189.19 274.31 187.25 275.51 183.81 
M 256.15 150.4 257.45 149.32 258.69 149.05 
M 212.71 155.05 212.23 154.11 212.04 153.3 211.82 148.14 
M 212.62 195.18 211.68 195.49 211.08 195.95 209.99 197.45 209.63 197.73 209.27 197.85 208.75 197.74 208.57 197.44 208.61 197.06 
M 228.6 102.32 227.38 101.01 226.54 98.95 225.21 97.88 
M 329.31 122.69 328.54 122.86 326.03 121.93 
M 229.32 133.43 228.33 132.29 227.25 131.35 225.84 130.71 224.24 130.32 219.7 129.86 217.89 130.25 
M 316.16 136.64 316.17 135.73 316.31 135.43 317.82 135.13 
M 342.36 110.89 341.57 109.59 339.7 108.29 339.19 108.11 336.93 108.26 336.05 108.1 
M 359.79 142.64 358.44 142.12 
M 259.9 90.09 258.89 88.95 257.7 87.14 256.7 84.64 254.72 82.89 
M 238.36 84.27 237.78 84.32 236.55 84.03 233.03 82.79 230.77 81.78 
M 246.4 195.78 244.33 194.01 242.79 192.38 
M 277.26 126.56 279.44 124.57 280.76 122.92 281.83 120.59 282.67 120.03 284.38 119.61 
M 237.51 120.17 236.55 120.23 235.93 120.82 235.54 123.82 235.04 124.72 234.03 125.94 
M 260.6 135.88 259.12 135.66 258.84 135.49 258.5 134.93 
M 285.77 97.61 286.25 96.9 288.35 95.42 289.08 94.68 289.74 93.66 290.28 91.78 
M 205.84 198.11 205.7 197.67 205.8 197.27 206.4 196.7 207.5 196.45 208.72 196.67 
M 232.62 99.73 231.79 99.52 228.7 99.45 226.77 98.63 225.86 98.01 
M 336.28 116.02 335.51 112.98 334.59 110.22 333.57 108.93 
M 248.47 79.29 310.5 30 311.01 30.62 251.08 80.87 
M 259.94 82.65 280.73 61.4 281.33 61.94 262.54 84.06 
M 275.58 87.6 276.78 88.41 
M 304.94 35.71 298.35 41.18 295.17 44.02 289.19 50.07 283.74 56.63 278.66 63.53 
M 279.4 64.21 277.7 69.39 276.48 74.64 275.99 79.98 276.01 82.68 276.36 88.13 
M 301.62 38.42 295.17 44.02 289.19 50.07 286.4 53.3 281.18 60.06 
M 290.79 48.59 285.84 52.89 283.49 55.16 279.12 60 275.11 65.18 
M 279.96 58.77 274.88 63.33 271.84 66.7 269.05 70.31 
M 199.74 159.22 207.45 158.09 214.46 156.7 219.27 156.04 221.77 156.1 224.16 155.86 229.16 154.58 231.61 154.43 238.66 153.48 243.48 152.58 248.69 151.92 253.2 151.87 260.77 151.47 263.24 151.12 265.5 151.15 267.84 150.73 272.97 149.47 277.19 148.8 281.85 148.5 284.36 148.82 286.96 149.49 289.28 149.36 292.04 148.8 294.74 148.45 297.31 148.88 301.76 148.03 306.98 147.53 313.4 147.68 318.23 148.02 320.57 147.78 323.76 148.27 329.46 148.43 334.02 149.26 338.8 148.92 340.85 149.07 345.44 149 347.77 149.17 352.78 150.74 355.48 150.66 358 150.14 360.38 149.93 362.89 150.48 364.54 150.46 366.87 150.99 374.48 151.1 377.23 151.27 379.56 151.56 382.09 152.36 384.72 152.91 387 152.83 364.44 163.61 359.75 165.16 355.52 167.17 353.07 167.84 348.96 169.98 346.64 170.77 343.84 171.09 339.41 172.81 336.76 173.14 334.54 173.9 332.01 174.35 327.61 175.91 325.06 176.34 322.71 176.97 320.64 177.88 318.41 178.63 313.42 179.29 308.8 180.31 304.49 181.65 299.3 182.1 294.93 183.3 292.2 183.07 287.55 183.41 285.01 183.38 280.73 184.1 275.34 183.7 273.15 184.01 268.5 184.17 263.88 184.2 258.82 183.79 254.37 183.98 246.92 183.36 243.9 182.43 241.29 181.9 227.96 181.09 225.1 180.61 203.27 174.87 198.18 172.72 195.82 171.27 
M 199.28 160.76 205.03 160.39 217.06 158.92 224.48 158.83 231.89 157.47 243.79 157.36 248.67 156.74 256.94 156.61 261.26 156.34 265.69 156.62 268.62 156.4 273.72 156.3 275.9 156.06 277.82 155.41 280.47 155.35 283.09 155.6 285.57 156.26 288.17 156.55 
M 198.69 162.32 205.16 162.25 207.52 162 212.27 161.95 214.65 161.65 217.24 161.57 219.75 161.73 224.85 161.62 229.68 161.18 234.47 161.04 241.57 161.3 243.83 161.27 246.57 160.96 248.91 160.97 251.3 161.39 253.88 161.49 256.85 161.19 264.01 162.3 268.69 162.12 271.39 162.21 275.78 162.82 
M 200.22 163.95 210.22 164.16 214.91 163.98 222.58 164.62 225.19 164.45 232.17 164.87 239.91 164.94 242.3 165.25 249.07 165.31 254.06 165.95 258.75 166.97 261.31 167.24 264.03 167.94 268.86 168.82 275.7 169.83 
M 197.65 165.4 200.11 165.76 205.45 165.95 210.26 166.36 214.96 166.46 219.97 167.02 225.35 167.26 227.43 167.88 229.59 168.25 234.41 168.72 237.25 169.31 239.98 169.46 242.16 169.83 244.67 169.9 248.73 170.51 255.61 172.65 260.85 173.4 266.06 175.02 268.61 175.16 271.41 175.66 273.91 175.89 276.31 176.45 278.45 177.63 280.96 177.79 
M 200.14 167.53 207.87 168.1 210.23 168.49 212.34 169.12 214.72 169.07 222.44 170.21 225.4 170.92 229.84 172.27 231.76 172.57 234.32 173.24 237.17 173.61 239.67 174.24 244.52 175.87 246.39 176.15 248.17 176.99 250.51 177.78 255.38 180.23 257.47 180.69 259.99 180.81 
M 196.6 168.34 200.26 169.43 207.99 170.3 210.24 170.93 212.41 171.87 219.86 173.09 222.05 173.76 224.91 174.99 227.23 175.74 229.38 176.72 234.28 178.03 
M 197.81 170.53 200.53 171.42 207.84 173.2 212.37 175.24 214.9 176.01 217.98 176.43 
M 215.13 199.19 217.55 201.58 224.58 206.65 226.98 208.06 229.8 209.47 231.81 211.01 233.33 212.49 235.52 214.31 241.03 217.68 243.38 217.91 245.08 220.05 247.97 220.55 249.96 222.16 253.09 223.74 255.75 235.54 255.39 240.58 255.63 243.51 255.62 246.2 254.72 247.99 253.55 249.55 253.41 252.43 253.47 258.54 252.61 260.7 250.91 262.03 250.33 264.3 241.25 280 239.76 277.22 238.12 275.83 237.64 273.7 237.89 270.58 237.2 269.37 236.4 267 235.13 264.4 233.34 261.97 233.27 260.33 230.75 252.18 228.23 247.07 228.24 244.2 227.35 240.4 225.34 237.87 224.23 235.15 223.99 232.74 220.8 227.07 217.86 219.2 216.18 216.85 214.3 211.73 211.5 207.27 208.28 199.78 
M 213.53 199.33 220.02 205.93 224.04 209.4 229.34 212.12 232.19 216.62 233.95 218.79 235.94 220.66 
M 211.92 199.46 213.93 202.27 217.59 206.48 221.29 209.98 223.68 211.69 225.4 214.21 227.02 216.23 228.45 218.67 230.52 221.12 231.18 223.4 231.92 225.01 233.43 226.87 235.13 228.29 236.68 230.52 238.13 231.75 239.75 232.82 242.53 234.19 244.27 235.96 245.75 238.61 247.9 240.57 249.97 242.92 
M 210.32 199.6 213.49 205.1 214.98 206.9 216.69 208.64 218.05 210.85 219.72 212.97 222.82 218.1 223.69 220.67 225.15 222.53 227.99 227.3 228.1 229.46 229.87 231.92 231.71 234.9 234.06 239.33 235.52 242.63 237.12 244.59 238.82 246.18 240 248.06 242.09 252.91 
M 346.12 182.28 351.71 187.5 351.25 188.16 344.45 184.65 
M 335.68 188.27 351.77 202.15 351.27 202.78 333.89 190.56 
M 324.77 193.26 341.91 211.79 341.34 212.36 322.73 195.32 
M 313.25 196.62 326.86 215.17 326.24 215.67 311 198.43 
M 301.45 199 313.46 217.32 312.81 217.8 299.11 200.7 
M 284.81 201.81 288.34 208.6 287.68 209.07 282.45 203.49 
M 350.57 187.81 349.44 190.65 348.8 193.52 348.9 196.4 349.22 197.85 350.16 200.76 
M 349.53 201.56 346.77 202.65 344.33 204.11 342.38 206.11 340.2 209.94 
M 339.48 210.66 336.18 210.23 332.97 210.28 329.9 211.06 328.42 211.71 325.5 213.31 
M 324.71 213.95 320.39 213.08 317.6 213.23 314.9 214.12 312.26 215.49 
M 311.44 216.09 306.57 213.3 301.54 210.96 296.26 209.33 293.54 208.76 287.99 207.93 
M 348.13 202.08 345.49 203.32 344.33 204.11 342.38 206.11 340.87 208.6 
M 341.53 198.5 339.06 199.82 337.79 201.12 336.81 202.74 
M 337.83 210.41 334.56 210.17 332.97 210.28 329.9 211.06 326.95 212.48 
M 330.86 205.34 328.74 205.18 326.7 205.44 323.8 206.68 
M 323.26 213.57 320.39 213.08 318.98 213.06 316.24 213.59 313.58 214.77 
M 317.29 208.36 314.51 208.03 312.73 208.38 311 209.14 
M 358.98 121.68 361.57 120.85 366.11 118.4 368.57 117.32 372.8 114.58 376.42 112.45 378.41 111.49 382.77 108.38 386.89 105.75 388.94 105.33 390.94 103.69 393.3 100.98 395.4 99.47 397.51 99.05 399.27 97.87 401.53 96.99 405.76 94.84 408.19 94.91 409.33 93.32 411.1 92.2 416.6 87.21 420.27 84.36 423.5 82.69 425.5 81.28 427.43 79.26 429.18 77.86 432.26 77.18 434.48 75.95 436.62 75.03 437.02 73.73 440.89 71.09 436.4 84.11 435.35 86.43 433.66 88.13 432.17 90.02 428.16 96.17 422.94 101.18 421.72 103.37 420.16 105.22 418.37 106.74 416.87 108.54 416.15 114.4 413 117.95 410.95 119.31 407.95 123.14 406.26 124.63 404.48 129.11 402.97 130.97 400.87 132.28 395.81 137.26 394.93 139.66 394.84 142.67 394.18 145.09 393.83 147.75 393.16 149.96 392.93 152.6 392.99 155.07 392.74 157.14 392.23 158.97 393.8 164.04 396.29 169.55 396.64 171.41 397.68 174.05 397.89 178.04 400.34 183.1 400.69 184.53 405.15 191.38 405.05 193.12 405.54 195.46 406.12 197.2 407.68 206.21 406.57 204.9 403.43 203.48 398.18 199.33 392.94 197.06 389.64 194.71 387.73 192.31 382.47 189.94 380.94 188.37 379.28 187.11 377.78 185.43 375.58 183.73 373.85 182.14 371.7 181.02 358.98 172.51 
M 366.54 121.15 369.07 120.39 371.13 119.44 373.02 117.98 375.05 116.83 377.41 115.78 379.71 114.53 383.88 112.75 391.73 107.77 396.04 104.37 398.2 103.54 401.06 102.72 403.04 101.78 406.02 101.85 409.38 99.66 411.48 98.74 413.29 97.52 416.11 96.33 417.82 94.88 420.32 93.89 422.77 91.36 
M 364.23 125.26 366.87 124.08 373.69 121.68 375.31 120.32 379.69 118.29 382.08 117.55 385.25 117.76 387.48 116.82 389.24 114.99 390.76 113.13 392.46 111.57 394.62 110.94 397.49 109.64 399.57 108.4 404.03 106.22 406.21 107.1 408.94 106.81 411.81 105.05 413.38 104.67 416.04 103.28 417.27 101.55 419.35 99.98 
M 361.95 129.18 364.61 128.24 367.05 127.06 372.75 125.41 374.49 125.09 378.18 123.94 380.22 122.79 385.32 121.21 387.88 120.64 390.45 119.12 392.48 118.15 
M 358.98 131.85 362.07 131.76 365.01 131.15 370.15 129.25 372.85 128.56 374.84 128.24 376.23 127.63 380.65 126.52 383.56 125.38 388.34 123.94 393.57 123.15 396.99 122.81 399.29 121.62 401.71 121.18 
M 364.75 133.78 367.56 133.11 370.1 132.11 372.9 131.61 376.56 131.38 379.13 130.66 381.43 129.93 386.6 127.47 389.27 127.41 394.41 127.87 398.57 126.49 401.18 124.84 
M 367.34 135.91 372.68 135.04 377.05 134.97 382.15 133.39 
M 358.98 139.47 362.31 139.76 364.71 139.36 370.63 139.53 372.91 139.1 378.02 139.75 
M 365.12 142.78 370.91 142.69 373.17 142.4 375.55 143.05 378.84 143.5 381.6 143.53 
M 365.64 145.42 368.12 146.01 370.89 146.31 376.35 146.01 
M 368.32 148.93 370.78 149.87 374.11 149.61 377.06 149.65 381.91 150.16 383.53 150.17 386.84 151 389.58 151.34 
M 383 154.74 383.86 155.2 386.98 155.66 
M 372.58 159.72 377.96 159.76 
M 369.7 161.1 375.23 162.41 377.73 162.69 380.5 163.41 383.38 164.48 387.77 166.61 
M 365.95 162.89 372.82 165.12 377.16 166.25 379.46 167.33 
M 362.42 164.24 365.03 165.48 370.64 167.54 373.12 168.74 375.33 169.32 376.5 170.43 378.61 171.8 
M 367.58 169.36 372.9 172.4 374.54 173.51 376.73 174.18 378.95 175.17 381.75 176.04 
M 364.7 171.05 367.3 172.87 374.81 176.59 383.36 179.65 384.4 181.17 386.05 182.36 391.75 185.49 395.52 188.29 
M 366.91 175.27 372.16 177.81 376.59 180.33 378.69 181.89 382.67 184.28 
M 297.33 91.82 301.19 95.86 309.7 82.99 311.6 81.58 313.14 79.8 315.11 78.45 317.66 77.87 320.33 77.64 322.4 76.82 324.78 76.3 330.02 77.59 331.69 76.81 333.58 76.25 335.98 76.2 339.18 78.39 344.54 83.49 346.12 87.71 347.68 89.06 349.16 89.99 351.15 90.41 353.6 92.62 355.32 95.47 356.15 97.65 357.22 104.59 346.36 114.71 345.28 110.93 
M 301.32 92.33 304.64 91.97 306.35 90.02 307.38 88.05 
M 305.28 93.02 308.31 92.46 309.84 90.83 311.08 88.91 313.91 86.15 
M 309.13 94.18 311.93 93.13 313.9 91.02 315.63 89.48 319.94 86.21 
M 312.92 95.53 315.83 94.33 317.84 92.79 321.54 89.29 323.38 88.62 
M 316.64 97.06 319.57 96.15 321.94 94.59 323.8 92.22 326.1 90.08 327.48 88.34 328.71 86.32 330.37 84.8 332.44 82.6 334.06 80.14 
M 320.33 98.67 323.28 98.01 326.05 95 327.7 93.6 329.14 92.11 332.75 87.54 
M 324 100.31 326.5 99.33 331.6 95.22 333.41 92.74 335.27 91 336.24 89.47 337.86 87.67 339.69 86.23 340.88 84.81 343.13 84.17 
M 327.68 101.94 330.25 100.99 332.01 99.11 336.18 96.48 337.21 94.53 339.32 93.2 340.88 91.51 341.53 89.51 
M 331.36 103.55 334.31 102.84 336.62 101.48 338.91 99.81 340.39 97.94 342.16 97.27 344.02 95.94 
M 334.99 105.3 337.55 104.57 340.19 103.59 342.55 101.8 344.11 100.84 
M 338.6 107.07 340.96 106.82 345.48 103.81 347.4 102.9 349.51 101.6 351.91 100.55 355.1 98.66 
M 342.08 109.08 344.67 108.72 346.54 107.27 
M 97.23 142.06 97.44 141.51 98.99 139.23 101.37 136.29 104.76 133.14 109.44 130.48 115.09 127.84 120.7 124.1 126.79 120.41 133.94 116.57 141.74 112.67 176.99 99.37 182.63 97.83 187.83 96.83 192.09 96.39 194.56 96.41 197.53 101.93 198.15 107.24 199.07 112.57 200.33 117.92 200.89 123.23 200.81 133.76 201.69 139.09 202.79 144.43 202.41 149.67 200.73 154.83 199.56 160.02 197.62 165.15 195.98 170.31 194.08 180.71 192.76 185.89 191.03 191.04 187.75 196.09 174.84 196.2 165.38 195.96 156.91 195.07 149.05 193.41 141.57 191.25 134.84 188.47 123.33 181.06 117.68 177.18 112.87 173.24 109.25 169.35 
M 108.84 168.85 102.92 161.62 100.19 157.78 98.61 153.74 98.16 151.57 
M 175.05 128.97 175.94 137.89 174.7 141.9 172.29 145.54 170.57 149.01 168.63 152.19 167.34 155.02 167.18 157.86 168.82 167.77 168.26 172.03 159.65 172.8 153.12 173.66 146.78 174.11 140.54 173.91 134.31 173.06 128.57 171.31 123.75 168.33 
M 108.5 168.32 95.3 146.95 94.36 145.18 94.4 143.13 95.89 141.8 97.94 142.2 99.09 143.84 105.06 158.31 106.89 162.06 108.46 165.94 109.91 169.02 
M 109.43 169.59 99.39 166.96 95.47 166.2 81.8 162.3 80.01 161.5 79.1 159.68 79.82 157.85 81.76 157.35 91 161.29 94.65 163.07 100.41 165.03 109.66 168.8 
M 137.12 142.45 134.94 139.4 133.87 135.8 134.02 132.06 135.39 128.57 137.81 125.71 141.03 123.79 144.7 123.02 148.42 123.48 151.78 125.13 154.44 127.78 156.08 131.15 156.54 134.86 155.78 138.53 153.86 141.75 151 144.18 147.5 145.54 143.76 145.69 140.17 144.62 137.12 142.45 
M 152.58 129.1 153.9 131.79 154.27 134.77 153.65 137.71 152.12 140.28 149.83 142.22 147.04 143.31 144.04 143.43 141.17 142.58 138.73 140.84 
M 141.34 137.01 140.47 135.79 140.04 134.35 140.11 132.86 140.65 131.46 141.62 130.32 142.91 129.55 144.38 129.24 145.86 129.43 147.21 130.08 148.27 131.14 148.93 132.49 149.12 133.98 148.81 135.45 148.04 136.73 146.9 137.7 145.5 138.25 144 138.31 142.56 137.88 141.34 137.01 
M 142 135.92 144.37 138.3 
M 142.01 133.76 146.22 137.97 
M 142.97 132.55 147.56 137.14 
M 143.55 130.95 148.52 135.93 
M 146.22 131.45 149.05 134.29 
M 147.12 130.18 148.45 131.51 
M 99.1 155 101.83 157.73 
M 98.51 139.93 101.68 143.1 
M 100.62 137.21 104.25 140.84 
M 103.01 134.77 106.77 138.53 
M 105.68 132.62 109.06 136 
M 108.76 130.87 113.34 135.45 
M 112 129.28 114.52 131.8 
M 115.26 127.72 119.28 131.74 
M 118.16 125.79 120.93 128.56 
M 121.07 123.88 125.87 128.68 
M 124.08 122.06 128.01 125.99 
M 127.1 120.25 130.17 123.32 
M 130.24 118.56 133.24 121.56 
M 133.38 116.88 137.67 121.17 
M 136.58 115.25 140.08 118.75 
M 139.79 113.64 142.8 116.64 
M 143.11 112.13 146.47 115.48 
M 146.59 110.78 150.28 114.48 
M 150.09 109.45 154.9 114.26 
M 153.63 108.17 156.38 110.92 
M 157.18 106.89 160.33 110.04 
M 160.67 105.56 163.3 108.18 
M 164.17 104.23 168.89 108.94 
M 167.68 102.91 170.47 105.7 
M 171.2 101.61 174.22 104.62 
M 174.69 100.26 177.67 103.24 
M 178.27 99.02 180.84 101.59 
M 182.06 97.98 185.41 101.34 
M 186.07 97.17 190.75 101.85 
M 190.3 96.57 194.33 100.61 
M 164.83 184.54 164.81 185.4 165.55 187.54 165.5 188.18 165.16 188.62 
M 147.51 186.18 149.82 188.15 150.48 189.42 150.32 190.43 149.78 191.16 149.18 191.53 148.4 191.53 
M 113.73 173.95 113.56 171.26 113.76 169.48 
M 121.1 153.32 120.93 155.09 120.66 155.73 119.47 156.21 118.59 156.21 
M 146.13 121.93 148.53 122.37 152.31 124.87 154.09 125.21 155.28 125.74 
M 160.86 133.81 159.81 134.02 158.14 134.88 157.55 134.97 156.54 134.8 
M 149.64 117.39 147.08 115.28 144.04 114.59 141.89 113.77 
M 178.33 103.87 178.3 101.47 177.05 99.36 
M 139.29 186.13 137.21 187.92 136.45 189.14 
M 164.8 110.62 162.42 109.61 161.84 108.93 161.75 107.72 162.56 104.84 
M 186.69 112.45 187.03 112.37 188.51 111.29 
M 193.16 184.31 192.11 184.02 191.28 183.33 190.87 182.68 191.04 182.04 
M 188.87 156.15 189.63 155.6 190.75 154.24 191.94 153.46 
M 165.48 154.47 165.62 152.94 165.3 151.93 163.79 151.29 163.18 151.42 
M 130.84 172.98 130.28 172.92 128.99 173.47 128.17 173.64 126.77 173.56 
M 187.41 170.75 187.69 169.93 187.74 168.56 187.49 167.62 186.62 165.69 186.48 164.96 186.55 164.28 
M 106.49 135.41 105.53 135.06 105.02 135.03 102.27 135.45 
M 125.67 180.95 125.68 181.67 125.15 182.22 
M 169.8 127.88 168.43 127.34 167.12 126.15 164.81 124.91 
M 174.97 156.82 174.5 157.13 173.28 156.65 
M 168.33 146.63 167.88 147.6 167.28 148.42 166.55 148.88 163.99 149.9 160.89 150.18 
M 124.46 173.99 122.42 172.14 121.05 171.14 119.95 169.68 119.28 168.25 118.46 167.04 
M 141.88 122.98 142.56 122.72 144.34 122.46 148.27 122.88 152.03 125.06 
M 133.02 158.99 132.55 158.56 131.32 156.33 130.93 155.95 
M 148.64 187.8 149.65 188.78 150.03 189.73 149.85 190.4 149.55 190.82 149.04 190.96 148.69 190.68 
M 147.69 172.42 146.16 172.79 144.53 173.73 143.88 174.64 143.73 175.91 
M 149.12 159.68 148.04 159.41 147.59 159.71 146.63 161.37 145.29 163.14 145.06 164.09 
M 132.89 143.9 130.51 143.68 130.18 143.51 129.85 143.02 
M 128.15 159 128.53 158.4 129.55 157.51 130.94 156.71 
M 180.42 129.01 180.63 127.35 180.39 126.7 179.35 125.38 178.06 124.78 176.14 124.43 
M 171.24 164.66 171.55 164.89 
M 136.33 151.43 135.1 150.57 132.51 149.45 130.62 148.23 
M 184.74 140.4 184.37 141.04 183.95 141.24 181.17 141.46 179.45 141.37 
M 184.73 145.23 184.72 144.75 184.07 143.05 183.59 142.42 181.64 141.8 180.19 141.58 
M 124.19 161.34 124.11 160 124.4 158.08 124.62 157.11 125.06 156.82 
M 116.18 164.35 113.21 162.63 112.21 162.28 111.16 162.05 108.22 161.82 106.86 162.01 
M 104.94 162.44 103.71 162.1 
M 136.91 125.12 134.13 123.6 133.53 123.08 131.91 120.34 131.38 119.86 129.62 118.89 
M 122.3 167.81 121.65 167.43 119.43 165.53 118.14 163.65 115.38 160.58 115.03 159.82 115.1 158.77 
M 159.37 193.93 159.03 195.29 
M 136.97 188.32 136.49 189.16 
M 124.16 136.06 123.88 136.3 123.72 136.77 123.68 139.02 123.82 140.43 
M 154 167.42 154.62 169 
M 145.27 191.34 145.32 188.33 145.18 188.08 144.75 187.9 
M 176.71 118.92 174.85 115.8 172.06 112.01 170.85 110.58 170.08 110.01 
M 185.57 98.96 183.44 100.09 181.95 100.34 179.96 100.19 179.36 99.99 178.1 99.07 
M 181.25 187.47 180.71 186.54 179.93 186.23 179.2 186.37 178.85 187.29 
M 149.82 178.19 148.85 177.61 147.38 177.28 
M 174.86 186.91 176.96 189.18 177.68 190.37 178.56 193.29 178.54 194.84 
M 137.1 174.52 135.98 173.79 135.49 173.14 135.38 172.74 135.82 170.75 136.93 167.67 
M 185.86 122.58 185.02 122.52 180.62 121.5 178.79 121.86 177.85 122.49 
M 128.59 123.13 128.26 122.42 127.74 119.9 
M 180.93 110.51 180.15 110.93 179.58 110.54 179.47 109.29 179.11 107.8 179.35 106.63 
M 153.59 126.03 155.13 126.56 156.62 127.81 156.82 128.31 
M 124.01 163.09 123.74 161.96 122.83 159.99 122.7 159.16 122.75 157.7 122.35 157.23 
M 201.18 153.43 199.61 152.65 198.51 152.48 197.55 152.06 196.13 151.77 
M 192.48 179.45 194.28 179.68 
M 164.96 193.7 164.4 193.45 163.04 192.39 162.13 192.02 161.14 192.25 160.72 192.93 
M 193.23 123.93 190.69 124.84 188 125.53 185.8 125.33 184.46 124.75 
M 169.12 129.99 166.65 129.06 165.87 128.51 164.2 126.58 163.2 125.99 161.87 125.48 
M 191.06 168.61 190.57 167.28 190.55 166.55 190.81 165.88 192.21 165.04 193.27 164.72 
M 161.26 129.66 159.32 129.32 158.63 129.36 155.57 130.1 
M 144.71 172.13 143.21 173.59 142.87 174.15 142.78 174.75 143.1 176.5 144.38 178.26 144.9 179.51 
M 110.3 170.48 110.65 169.82 
M 109.22 169.36 109.53 170 
M 106.42 164.92 106.09 165.78 106.88 165.72 
M 103.97 160.86 103.39 161.41 103.01 162.28 103.6 161.85 104.5 161.72 
M 101.41 156.92 100.55 157.59 99.93 158.79 100.76 158.02 101.95 157.73 
M 98.97 152.88 97.71 153.77 96.85 155.29 97.92 154.2 99.51 153.72 
M 96.52 148.86 94.87 149.95 93.76 151.79 95.08 150.38 97.04 149.72 
M 94.37 144.66 92.03 146.12 90.68 148.3 92.24 146.56 94.63 145.69 
M 109.49 169.38 109.94 169.53 
M 105.36 167.08 105.71 166.96 105.7 167.21 
M 101.24 165.39 101.52 165.05 102.25 164.65 101.98 165.21 101.99 165.72 
M 97.17 163.95 97.81 162.98 98.79 162.33 98.26 163.14 98.16 164.28 
M 93.24 162.4 94.09 160.91 95.33 160.02 94.55 161.06 94.28 162.89 
M 89.45 160.61 90.38 158.83 91.87 157.71 90.83 158.99 90.45 161.05 
M 85.6 158.94 86.66 156.76 88.4 155.4 87.12 156.92 86.6 159.39 
M 81.69 157.37 82.95 154.69 84.94 153.08 83.4 154.85 82.75 157.73 
M 86.82 163.67 94.74 168.97 99.27 171.54 103.81 173.78 108.47 175.76 113.31 177.58 123.33 181.06 
M 195.13 96.28 201.44 102.59 
M 200.04 94.76 208.87 103.59 
M 204.58 92.86 213.39 101.67 
M 208.96 90.81 214.77 96.61 
M 213.24 88.65 222.22 97.63 
M 217.67 86.64 226.22 95.2 
M 222.23 84.77 228.43 90.97 
M 226.86 82.97 232.35 88.46 
M 231.67 81.34 237.03 86.7 
M 236.79 80.02 244.19 87.42 
M 242.72 79.52 251.87 88.67 
M 250.3 80.66 259.23 89.59 
M 259.18 83.11 268.81 92.74 
M 268.14 85.63 274.81 92.31 
M 277.58 88.63 284.35 95.4 
M 286.06 90.68 295.37 99.99 
M 293.37 91.55 299.61 97.79 
M 300.47 92.22 306.19 97.94 
M 308.76 94.07 313.89 99.2 
M 319.35 98.23 327.92 106.8 
M 330.92 103.36 335.95 108.39 
M 344.43 110.43 350.72 116.73 
M 194.14 185.43 195.58 188.31 
M 196.48 184.48 197.2 185.92 
M 201.17 188.23 201.89 189.67 
M 198.66 177.58 199.38 179.02 
M 200.82 181.9 201.54 183.34 
M 204.42 189.09 205.14 190.53 
M 210.95 185.26 213.11 189.58 
M 202.09 150.65 202.24 150.94 
M 205.93 152.7 207.37 155.58 
M 202.88 124.07 205.04 128.39 
M 206.48 131.27 207.92 134.14 
M 233.82 185.95 235.26 188.83 
M 198.61 109.91 198.97 110.61 
M 204 120.68 205.44 123.56 
M 208.32 129.32 210.48 133.64 
M 211.92 136.51 213.36 139.39 
M 219.83 152.34 221.71 156.1 
M 235.66 184 238.54 189.76 
M 197.55 102.15 202.24 111.53 
M 206.56 120.17 209.44 125.92 
M 210.16 127.36 213.03 133.12 
M 216.63 140.31 220.95 148.95 
M 222.39 151.82 224.38 155.8 
M 238.94 184.92 241.1 189.24 
M 198.92 99.26 205.4 112.21 
M 209 119.41 216.91 135.24 
M 219.79 140.99 223.39 148.19 
M 224.82 151.07 226.26 153.94 
M 241.37 184.16 242.09 185.6 
M 199.56 94.91 199.92 95.62 
M 201.36 98.5 207.83 111.45 
M 210.71 117.21 222.22 140.23 
M 222.94 141.67 226.54 148.87 
M 243.26 182.3 243.81 183.41 
M 201.96 94.08 219.59 129.33 
M 223.91 137.97 228.94 148.04 
M 204.25 93.02 218.28 121.08 
M 225.47 135.47 228.35 141.23 
M 229.07 142.67 230.51 145.54 
M 206.53 91.96 220.56 120.02 
M 227.76 134.41 232.8 144.49 
M 233.52 145.92 234.96 148.8 
M 208.81 90.88 222.84 118.95 
M 226.44 126.14 227.16 127.58 
M 227.88 129.02 232.2 137.65 
M 232.92 139.09 235.07 143.41 
M 235.79 144.85 237.23 147.73 
M 211.06 89.75 225.09 117.81 
M 227.97 123.57 233.72 135.08 
M 234.44 136.52 240.92 149.47 
M 213.31 88.61 227.34 116.67 
M 228.78 119.55 234.53 131.06 
M 237.41 136.82 239.57 141.14 
M 241.01 144.01 242.45 146.89 
M 215.57 87.51 217.37 91.11 
M 218.09 92.55 227.44 111.25 
M 228.88 114.13 229.6 115.57 
M 231.76 119.89 233.92 124.2 
M 239.67 135.72 241.11 138.59 
M 246.15 148.67 246.87 150.11 
M 218.26 87.27 218.98 88.71 
M 219.7 90.14 228.34 107.41 
M 229.06 108.85 230.5 111.73 
M 234.09 118.92 236.97 124.68 
M 247.05 144.83 249.2 149.14 
M 249.92 150.58 250.57 151.87 
M 220.24 85.58 227.79 100.69 
M 232.83 110.77 240.03 125.16 
M 222.58 84.63 228.7 96.87 
M 234.45 108.38 243.81 127.09 
M 277.62 194.72 280.5 200.48 
M 224.94 83.72 230.33 94.51 
M 235.37 104.58 245.44 124.73 
M 279.26 192.36 282.14 198.12 
M 227.29 82.8 233.41 95.03 
M 236.29 100.79 244.2 116.62 
M 245.64 119.5 247.08 122.37 
M 250.68 129.57 254.28 136.76 
M 255.71 139.64 256.43 141.08 
M 260.75 149.72 261.47 151.15 
M 229.68 81.94 244.43 111.44 
M 249.47 121.52 264.28 151.13 
M 232.13 81.2 245.44 107.83 
M 250.47 117.9 251.19 119.34 
M 254.79 126.53 266.97 150.88 
M 234.57 80.46 245.72 102.77 
M 251.48 114.28 252.92 117.16 
M 257.96 127.23 260.11 131.55 
M 262.99 137.3 269.48 150.27 
M 237.51 80.71 238.95 83.59 
M 240.39 86.47 249.02 103.73 
M 251.18 108.05 251.9 109.49 
M 253.34 112.37 254.06 113.81 
M 254.78 115.25 255.5 116.68 
M 258.38 122.44 259.1 123.88 
M 265.57 136.83 272 149.68 
M 240.92 81.9 242.36 84.78 
M 244.52 89.09 254.59 109.24 
M 256.03 112.12 256.75 113.56 
M 258.19 116.44 263.95 127.95 
M 266.82 133.7 274.57 149.19 
M 243.61 81.65 245.05 84.53 
M 246.49 87.41 258 110.43 
M 258.72 111.87 265.92 126.26 
M 268.8 132.02 277.19 148.8 
M 245.55 79.9 246.63 82.06 
M 247.35 83.5 248.07 84.93 
M 248.79 86.37 267.5 123.79 
M 271.81 132.42 274.69 138.18 
M 278.29 145.37 279.01 146.81 
M 248.57 80.3 269.08 121.32 
M 272.67 128.51 273.39 129.95 
M 274.83 132.83 276.27 135.71 
M 280.59 144.34 282.72 148.61 
M 251.71 80.95 270.78 119.09 
M 274.37 126.28 275.81 129.16 
M 283.01 143.55 283.73 144.99 
M 253.72 79.34 273.5 118.91 
M 275.66 123.23 278.54 128.98 
M 282.86 137.62 285.74 143.37 
M 255.72 77.72 267.6 101.46 
M 269.04 104.34 270.47 107.22 
M 271.91 110.1 280.55 127.37 
M 284.87 136 288.46 143.2 
M 257.73 76.11 260.25 81.14 
M 260.97 82.58 268.89 98.41 
M 272.48 105.61 282.56 125.75 
M 287.59 135.82 291.19 143.02 
M 259.74 74.49 260.82 76.65 
M 265.86 86.72 268.73 92.48 
M 274.49 103.99 284.56 124.14 
M 289.6 134.21 293.2 141.4 
M 313.34 181.7 314.06 183.14 
M 319.1 193.21 320.22 195.45 
M 261.75 72.87 262.83 75.03 
M 270.02 89.42 270.74 90.86 
M 273.62 96.62 275.06 99.5 
M 276.5 102.37 285.13 119.64 
M 289.45 128.28 290.17 129.72 
M 290.89 131.16 295.93 141.23 
M 316.07 181.52 317.51 184.4 
M 263.76 71.26 268.43 80.61 
M 274.91 93.56 287.86 119.47 
M 290.74 125.22 299.37 142.49 
M 320.96 185.66 321.68 187.1 
M 266.12 70.36 273.32 84.75 
M 274.04 86.19 281.95 102.02 
M 282.67 103.46 300.66 139.44 
M 268.13 68.75 273.89 80.26 
M 275.49 83.46 276.01 84.5 
M 278.15 88.79 283.55 99.58 
M 284.99 102.46 299.38 131.24 
M 300.1 132.68 304.42 141.32 
M 322.32 177.13 323.84 180.17 
M 269.78 66.41 275.87 78.59 
M 281.42 89.7 283.22 93.29 
M 285.38 97.61 286.1 99.05 
M 287.54 101.93 300.49 127.83 
M 302.65 132.15 306.96 140.78 
M 324.95 176.76 326.39 179.63 
M 271.79 64.8 276.89 75 
M 284.62 90.46 284.98 91.18 
M 290.01 101.25 295.77 112.76 
M 297.21 115.64 300.09 121.4 
M 305.84 132.91 306.56 134.35 
M 328.87 178.96 330.31 181.84 
M 273.8 63.18 277.63 70.84 
M 292.35 100.28 300.98 117.55 
M 332.64 180.87 334.08 183.75 
M 275.8 61.57 278.47 66.89 
M 291.07 92.1 292.51 94.98 
M 293.95 97.85 304.74 119.44 
M 307.62 125.2 311.93 133.83 
M 332.18 174.32 332.8 175.56 
M 277.81 59.95 279.93 64.19 
M 293.62 91.57 315.57 135.46 
M 338.59 181.51 339.31 182.95 
M 279.82 58.34 281.6 61.9 
M 296.53 91.76 311.28 121.26 
M 312.72 124.14 317.76 134.22 
M 338.62 175.95 341.5 181.7 
M 299.51 92.1 320.02 133.11 
M 341.61 176.28 342.33 177.72 
M 302.52 92.48 324.47 136.37 
M 325.19 137.81 325.91 139.25 
M 305.67 93.14 307.47 96.74 
M 312.5 106.81 330.49 142.78 
M 347.04 175.88 347.76 177.32 
M 308.98 94.14 310.06 96.3 
M 315.82 107.81 323.01 122.2 
M 323.73 123.64 325.89 127.96 
M 328.05 132.27 330.21 136.59 
M 331.65 139.47 333.09 142.35 
M 334.53 145.22 335.96 148.1 
M 316.34 103.23 324.98 120.5 
M 328.57 127.69 329.29 129.13 
M 337.21 144.96 337.93 146.4 
M 291.87 48.64 292.2 49.31 
M 318.45 101.8 326.36 117.63 
M 293.87 47.03 294.1 47.47 
M 321.31 101.9 322.75 104.77 
M 324.91 109.09 328.5 116.29 
M 295.88 45.41 296.01 45.68 
M 323.14 99.92 324.94 103.52 
M 327.81 109.28 328.53 110.72 
M 330.69 115.03 333.57 120.79 
M 334.29 122.23 336.45 126.55 
M 297.89 43.8 297.96 43.94 
M 326.76 101.53 327.83 103.69 
M 332.15 112.32 338.63 125.27 
M 340.07 128.15 342.22 132.47 
M 347.98 143.98 350.86 149.74 
M 299.9 42.18 299.93 42.26 
M 330.36 103.12 330.72 103.83 
M 334.32 111.03 341.52 125.42 
M 342.24 126.86 350.15 142.69 
M 350.87 144.13 354.16 150.7 
M 301.9 40.56 301.92 40.59 
M 337.28 111.32 351.67 140.1 
M 353.11 142.98 355.27 147.3 
M 355.99 148.74 356.81 150.38 
M 303.91 38.95 303.92 38.96 
M 338.84 108.81 355.39 141.9 
M 341.68 108.84 347.79 121.08 
M 349.95 125.39 357.86 141.22 
M 345.67 111.19 349.62 119.11 
M 353.22 126.3 356.82 133.5 
M 357.54 134.94 358.98 137.81 
M 355.38 124.99 363.29 140.82 
M 354.64 117.89 363.64 135.88 
M 364.36 137.31 365.83 140.27 
M 364.56 132.09 365.83 134.63 
M 237.08 291.39 232.79 297.7 
M 237.08 291.39 237.59 297.7 
M 234.32 295.6 237.32 295.6 
M 240.35 293.5 239.09 297.7 
M 239.81 295.3 240.38 294.39 241.16 293.8 241.85 293.5 242.75 293.5 
M 244.25 293.5 243.35 296.5 243.38 297.39 243.89 297.7 244.79 297.7 245.48 297.39 246.65 296.5 
M 247.55 293.5 246.29 297.7 
M 252.68 294.39 252.56 293.8 251.75 293.5 250.85 293.5 249.86 293.8 249.38 294.39 249.5 295 250.01 295.3 251.42 295.6 251.93 295.89 251.96 296.8 251.48 297.39 250.49 297.7 249.59 297.7 248.78 297.39 248.66 296.8 
M 258.05 293.5 256.78 297.7 
M 257.69 294.7 258.86 293.8 259.55 293.5 260.45 293.5 260.96 293.8 260.99 294.7 260.09 297.7 
M 260.99 294.7 262.15 293.8 262.85 293.5 263.75 293.5 264.26 293.8 264.28 294.7 263.39 297.7 
M 268.25 293.5 267.56 293.8 266.77 294.39 266.2 295.3 266.02 295.89 266.06 296.8 266.48 297.39 266.99 297.7 267.89 297.7 268.58 297.39 269.36 296.8 269.93 295.89 270.11 295.3 270.08 294.39 269.66 293.8 269.14 293.5 268.25 293.5 
M 275.48 294.39 275.36 293.8 274.55 293.5 273.64 293.5 272.66 293.8 272.18 294.39 272.3 295 272.81 295.3 274.22 295.6 274.73 295.89 274.76 296.8 274.27 297.39 273.29 297.7 272.39 297.7 271.58 297.39 271.45 296.8 
M 278.18 291.39 278.39 291.7 278.77 291.39 278.57 291.1 278.18 291.39 
M 277.85 293.5 276.58 297.7 
M 282.98 294.39 282.86 293.8 282.05 293.5 281.14 293.5 280.16 293.8 279.68 294.39 279.8 295 280.31 295.3 281.72 295.6 282.23 295.89 282.26 296.8 281.77 297.39 280.79 297.7 279.89 297.7 279.08 297.39 278.95 296.8 
M 284.57 297.1 284.18 297.39 284.39 297.7 284.77 297.39 284.57 297.1 
"/></svg>
