<svg xmlns="http://www.w3.org/2000/svg" width="520" height="320"><rect x="0" y="0" width="520" height="320" fill="floralwhite"/><rect x="10" y="10" width="500" height="300" stroke="black" stroke-width="1" fill="none"/><path stroke="black" stroke-width="1" fill="none" stroke-linecap="round" stroke-linejoin="round" d="
M 184.61 99.48 191.88 94.65 199.13 90.39 206.39 87.3 213.65 84.75 220.9 82.42 228.16 81.12 242.68 80.28 249.93 79.45 257.19 79.46 264.45 80.61 271.71 82.42 278.96 84.77 293.48 88.44 300.74 90.51 307.99 92.99 322.51 99.74 329.77 103.85 344.28 112.98 351.54 118.03 359.66 124.18 
M 359.66 150 337.02 163.46 322.51 172.82 315.25 177.87 307.99 182.53 300.74 185.76 286.22 191.84 271.71 197.7 264.45 199.96 257.19 201.03 249.93 201.15 242.68 200.72 235.42 198.98 228.16 196.36 220.9 193.42 206.39 187.03 199.13 183.42 191.88 179.29 184.62 174.61 177.42 169.54 
M 193.6 167.28 193.6 165.99 191.57 157.61 188.42 150.21 188.18 149.93 
M 185.8 163.87 189.88 162.64 
M 190.84 112.28 194.08 105.7 194.08 101.4 191.03 95.21 
M 186.28 98.37 187.97 98.05 
M 187.85 103.6 188.14 103.61 
M 192.79 161.21 196.36 154.98 197.54 151.34 
M 196.07 133.03 192.31 126.45 
M 188.33 148.76 194.1 150.67 
M 198.02 169.03 197.81 168.67 194.67 166.06 
M 192.86 99.53 194.63 98.87 200.35 94.62 204.04 89.8 204.04 88.3 
M 195.94 92.27 197.09 92.4 
M 202.42 132.72 204.97 125.58 204.97 121.04 202.36 113.71 198.31 107.25 195.15 104.72 
M 192.17 119.78 200.64 118.08 
M 192.25 122.9 199.98 123.01 
M 192.4 127.04 200.43 129.09 
M 204.86 171.52 206.68 164.61 206.68 159.67 205.07 153.58 
M 196.52 157.86 202.93 155.82 
M 196.17 162.45 202.56 162.48 
M 195.92 166.02 203.17 168.18 
M 208.09 95.78 213.47 94.68 220.37 91.85 224.81 88.65 224.81 86.67 220.37 83.47 219.16 82.98 
M 211.09 85.65 217.17 85.56 
M 206.11 87.42 216.52 87.3 
M 202.72 89.43 216.67 89.82 
M 204.94 123.28 209.57 121.34 215.51 116.35 219.33 110.7 219.33 107.2 215.51 101.55 209.57 96.57 204.94 94.62 
M 200.9 106.47 212.51 104.7 
M 200.57 108.92 212.35 108.8 
M 200.78 111.8 212.09 113.23 
M 206.94 161.91 210.73 159.39 213.53 155.67 
M 214.24 132.05 210.73 127.39 206.94 124.87 
M 219.93 176.44 218.6 172.9 214.3 166.33 210.93 163.77 
M 225.53 91.49 229.19 90.82 233.88 89.07 236.9 87.1 236.9 85.88 233.88 83.91 229.19 82.17 225.81 81.54 
M 223.22 85.08 231.04 85.07 
M 223.22 86.42 231.08 86.35 
M 223.22 87.8 231.05 87.88 
M 217.96 108.44 222.2 107.05 227.79 103.39 231.39 99.24 231.39 96.67 227.79 92.52 225.61 91.09 
M 213.63 96.1 225.26 95.03 
M 214.01 98.19 224.86 97.75 
M 213.29 100.16 225.29 101.05 
M 225.63 131.96 227.34 128.18 227.34 124.28 224.48 117.98 220.06 112.42 217.96 111.1 
M 213.27 122.72 222 121.05 
M 213.35 126.65 222.36 126.42 
M 213.34 129.19 221.95 131.37 
M 221.7 177.03 225.16 171.81 228.01 164.23 227.92 159.29 
M 213.96 158.37 219.63 157.02 
M 213.55 161.53 222.65 161.78 
M 213.92 165.47 223.21 167.44 
M 232.9 102.5 237.23 101.37 242.78 98.49 246.36 95.23 246.36 93.21 242.78 89.95 237.23 87.07 235.82 86.7 
M 229.15 92.47 239.67 91.99 
M 230.1 94.42 239.75 94.51 
M 230.1 95.85 240.24 96.89 
M 229.29 128.36 233.78 126.55 239.53 121.9 243.24 116.64 243.24 113.38 239.53 108.12 233.78 103.47 229.65 101.8 
M 224.95 112.68 236.76 110.63 
M 225.21 115.31 236.11 114.81 
M 224.56 117.33 236.81 119.41 
M 228.83 163.83 233.03 161.51 234.6 159.79 
M 232.51 131.77 228.83 129.74 
M 240.87 182.3 240.87 180.72 237.93 174.11 233.37 168.26 229.81 165.98 
M 227.47 178.86 235.86 177.61 
M 245.08 93.34 247.34 92.59 250.82 90.28 253.06 87.67 253.06 86.06 250.82 83.44 247.34 81.14 244.62 80.24 
M 242.22 85.45 249.42 84.73 
M 242.15 87.16 249.2 87 
M 241.88 87.92 248.92 88.97 
M 243.62 116.53 247.31 115.04 252.05 111.23 255.1 106.91 255.1 104.23 252.05 99.91 247.31 96.09 245.08 95.19 
M 240.32 103.11 249.57 102.61 
M 240.48 105.56 249.6 105.49 
M 239.97 107.75 249.73 108.61 
M 249.84 131.56 249.84 128.33 246.98 122.05 242.55 116.5 241.92 116.11 
M 236.09 126.84 244.8 125.13 
M 235.58 130.28 244.25 130.59 
M 246.53 182.78 250.64 177.54 253.63 170.83 253.63 166.68 250.41 159.69 
M 239.26 165.69 248.07 163.86 
M 238.58 168.7 247.97 168.39 
M 238.53 171.9 248.63 173.45 
M 254.01 105.08 256.68 104.1 261.21 100.77 264.14 97 264.14 94.67 261.21 90.9 256.68 87.58 253.14 86.28 
M 249.92 94.1 258.71 92.8 
M 249.92 95.55 258.6 96.05 
M 249.73 97.75 258.86 98.37 
M 254.05 132 255.87 131.14 260.98 126.32 264.27 120.86 264.27 117.48 260.98 112.03 255.87 107.21 254.01 106.33 
M 248.34 116.31 258.23 115.05 
M 248.35 119.36 258.33 118.9 
M 248.17 121.98 258.23 123.54 
M 252.56 166.09 255.28 164.62 259.54 160.01 
M 258.26 182.69 258.26 179.8 255.39 174 252.56 170.74 
M 250 177.71 253.44 177.36 
M 246.78 181.76 252.64 181.81 
M 260.91 91.03 262.59 90.29 265.74 87.5 267.78 84.33 267.78 82.38 267.06 81.26 
M 257.89 81.8 263.8 80.99 
M 257.74 83.1 264.18 83.54 
M 257.35 85.07 264.3 85.51 
M 264.21 120.2 267.13 118.48 270.87 114.08 273.28 109.11 273.28 106.02 270.87 101.05 267.13 96.65 264.21 94.93 
M 261.7 104.64 269.3 103.7 
M 261.44 107.39 268.86 107.26 
M 261.49 109.71 268.88 111.59 
M 270.6 132.01 270.6 131.35 267.95 125.1 263.84 119.58 263.09 119.08 
M 257.59 130 265.93 128.96 
M 268.13 181.22 270.07 178.63 272.66 172.58 272.66 168.83 270.07 162.78 268.26 160.37 
M 259.48 168.02 267.99 166.02 
M 259.98 171.08 268.29 170.95 
M 259.79 173.38 267.56 175.21 
M 272.42 103.67 273.37 103.24 277.42 99.52 280.03 95.32 280.03 92.72 277.42 88.51 273.37 84.8 270.21 83.35 
M 267.23 92.27 275.5 90.52 
M 266.82 93.63 275.35 94.38 
M 267.43 95.75 274.98 96.88 
M 274.98 132.9 279.71 127.71 282.68 121.91 282.68 118.32 279.71 112.52 275.1 107.4 272.42 105.91 
M 267.98 116.97 277.07 115.8 
M 268.11 120.05 277.19 119.95 
M 268.26 123.32 277.4 124.24 
M 271.73 168.21 275.3 166.14 280.04 160.64 280.44 159.83 
M 276.83 178.86 276.83 178.63 273.72 172.79 271.73 170.67 
M 268.15 180.58 270.97 180.58 
M 276.12 87.73 277.93 86.88 279.92 85.01 
M 281.61 118.72 283.73 117.29 287.28 112.5 289.57 107.08 289.57 103.72 287.28 98.3 283.73 93.51 280.96 91.64 
M 278.34 102.41 285.46 100.98 
M 278 105.34 285.54 105.6 
M 278.44 108.5 285.19 109.2 
M 289.8 133.09 289.8 132.19 287.25 125.64 283.31 119.86 281.61 118.62 
M 277.24 131.04 285.57 129.16 
M 291.35 174.42 291.67 173.62 291.67 169.87 289.27 163.81 286.28 159.52 
M 279.39 168.5 287.57 167.05 
M 279.87 172.03 286.95 172.06 
M 279.42 174.96 286.44 175.98 
M 288.75 102.02 289.43 101.65 293.25 97.49 295.71 92.77 295.71 89.84 295.24 88.94 
M 283.89 88.74 290.81 87.75 
M 283.2 91.31 290.86 91.73 
M 283.73 94.09 290.82 94.51 
M 292.95 134.12 293.75 133.62 298.17 128.2 301.02 122.06 301.02 118.26 298.17 112.12 293.75 106.7 290.3 104.59 
M 286.88 116.89 295.57 115.49 
M 287.02 119.94 296.21 120.57 
M 286.64 123.14 295.52 124.85 
M 290.85 169.21 294.38 167.01 298.89 161.38 300.83 157.15 
M 294.96 158 296.25 158.3 
M 294.02 173.58 290.81 170.1 
M 300 120.91 302.29 118.99 305.54 113.54 307.63 107.37 307.63 103.55 305.54 97.38 302.29 91.93 300.53 90.45 
M 297.41 102.23 303.81 101.06 
M 297.71 105.59 303.72 105.36 
M 297.36 108.32 303.67 110.4 
M 309.95 136.21 309.95 133.6 307.37 127.18 303.36 121.51 301.27 120.03 
M 297.13 132.54 305.53 130.91 
M 301.54 135.39 304.87 135.52 
M 308.5 168.86 306.32 162.12 303.24 156.89 
M 297.71 167.6 304.76 165.95 
M 297.66 170.4 303.03 170.72 
M 303.6 94.74 305.6 92.17 
M 309.02 134.55 310.64 133.38 314.84 127.32 317.55 120.46 317.55 116.21 314.84 109.34 310.64 103.28 307.35 100.92 
M 304.5 114.68 312.53 113.41 
M 304.02 118.54 312.83 117.9 
M 304.05 122.11 312.43 123.26 
M 312.83 166.78 316.89 161.28 319.65 154.72 319.65 152.58 
M 309.46 136.15 309.28 136.03 
M 306.83 156.49 314.78 157.91 
M 307.78 169.17 307.72 169.13 
M 313.22 107.68 314.34 105.15 316.25 97.58 316.25 96.75 
M 307.07 95.47 312.52 95.28 
M 306.86 98.98 312.9 101.13 
M 320.35 155.57 323.32 153.06 324.35 151.32 
M 329.58 138.36 329.58 134.8 327.13 127.51 323.32 121.06 320.35 118.55 
M 317.84 133.29 325.16 131.09 
M 318.3 137.08 325.37 136.75 
M 322.44 161.89 321.68 159.55 318.66 154.29 
M 313.89 164.68 319.82 163.26 
M 327.66 129.08 330.45 124.7 333.11 117.37 333.11 112.84 330.45 105.52 329.18 103.52 
M 320.22 111.22 328.21 109.66 
M 320.24 115.53 327.98 115.35 
M 320.39 118.58 328.07 120.85 
M 335.19 156.01 336.42 152.87 336.42 148.57 335.96 147.4 
M 331.75 138.78 329.5 135.5 328.7 134.92 
M 325.75 150.61 331.62 150.33 
M 323.31 153.96 331.22 155.75 
M 329.05 104.03 329.28 103.58 
M 338.65 154.52 341.27 152.22 344.93 145.82 345.51 144.04 
M 346.48 141.06 347.3 138.56 347.3 134.07 344.93 126.81 341.27 120.41 338.41 117.91 
M 335.37 132.9 342.79 131.1 
M 335.85 136.07 342.98 136.64 
M 335.61 139.86 336.87 140.16 
M 336.91 155.24 336.09 152.63 335.45 151.48 
M 345.08 127.73 347.97 123.25 350.23 117.11 
M 337.47 109.45 338.47 109.25 
M 337.49 114.04 344.73 113.29 
M 337.2 117.7 346.06 118.91 
M 354.82 148.03 354.82 147.36 351.92 140.18 347.42 133.83 346.45 133.14 
M 344.88 145.24 349.97 144.14 
M 342.24 149.78 349.41 149.45 
M 340.48 152.82 341.85 153.19 
M 354.15 132.33 359.66 131.2 
M 354.3 136.55 359.66 136.6 
M 354.9 139.84 359.66 141.13 
M 192.57 175.42 193.6 171.17 193.6 167.28 
M 183.32 164.62 185.8 163.87 
M 203.71 180.83 201.84 175.38 198.02 169.03 
M 204.04 88.3 204.04 88.3 
M 202.47 177.12 204.57 172.59 204.86 171.52 
M 206.11 87.42 206.11 87.42 
M 220.39 178.76 220.73 178.51 221.7 177.03 
M 226.58 190 225.37 187.76 222.82 185.39 
M 226.59 178.99 227.47 178.86 
M 242.37 185.77 246 183.46 246.53 182.78 
M 239.56 194 240.01 193.89 
M 254.12 195 255.83 190.87 255.83 188.15 
M 269.53 192.55 273.72 188.07 276.83 182.24 276.83 178.86 
M 279.36 189.06 279.36 188.1 276.13 182 275.72 181.56 
M 290.81 87.75 290.81 87.75 
M 298.8 181.74 298.8 181.42 295.55 175.23 294.02 173.58 
M 289.12 179.33 293.09 178.59 
M 282.77 186.23 283.51 186.36 
M 284.07 186.46 285.74 186.76 
M 306.46 178.68 308.5 172.6 308.5 168.86 
M 297.5 174.27 304.27 175.58 
M 305.6 92.17 305.6 92.17 
M 309.28 169.34 312.62 167.08 312.83 166.78 
M 316.25 96.75 316.25 96.75 
M 330.55 164.4 333.71 159.81 335.19 156.01 
M 338.41 154.73 338.65 154.52 
M 331.71 162.02 334.46 162.17 
M 338.47 109.25 338.47 109.25 
M 344.73 113.29 344.73 113.29 
M 354.82 151.27 354.82 148.03 
M 220.9 82.42 221.91 80.21 222.25 77.6 224.9 69.05 224.88 66.06 225.26 62.98 227.3 57.97 227.74 55.91 231.02 50.05 232.02 47.36 233.17 45.11 234.64 43.6 236.09 41.66 237.47 40.14 238.06 38.81 239.35 38.21 241.41 35.62 244.36 32.85 247.59 30.74 250.58 30 251.17 38.44 252.58 41.17 254.07 46.52 255.31 49.72 255.95 52.32 256.52 58.88 257.39 61.73 258.96 64.35 259.43 65.72 264.54 71.69 267.74 74.89 270.1 76.38 272.64 78.88 273.52 82.2 274.18 83.22 
M 271.71 82.43 271.71 82.42 
M 225.18 81.66 226.36 79.49 228.28 70.36 228.72 67.72 228.8 65.96 230.08 62.9 231.03 59.39 232.16 56.8 
M 229.48 81.05 230.63 79.12 231.05 76.74 232.3 72.13 232.72 69.85 233.91 67.53 235.29 63.88 236.01 61.5 237.18 59.5 239.48 53.69 241.21 53.11 243.05 51.04 246.75 47.72 247.93 45.4 249.47 44 
M 233.82 80.83 235.05 78.81 235.28 76.2 236.27 73.4 238.3 68.51 239.55 66.15 239.97 63.66 240.95 61.62 244.12 58.05 246.93 55.94 250.04 54.25 250.84 51.07 
M 238.16 80.57 239.24 78.28 240.25 73.28 241.11 71.04 242.2 68.82 242.84 66.39 244.36 63.76 245.88 62.6 246.99 61.5 
M 242.49 80.29 243.56 78.31 244.15 73.81 245.13 71.56 246.29 69.61 246.86 67.77 248.09 65.84 
M 246.81 79.81 247.8 78.32 247.91 76.01 248.25 74.42 249.63 72.23 
M 251.14 79.45 252.47 77.99 252.64 75.94 253.43 74.02 256.43 70.36 258.53 69.1 
M 255.48 79.46 257.17 77.5 258.25 75.42 260.09 75.34 262.44 74.27 
M 259.8 79.87 262.95 77.76 265.08 75.47 
M 264.09 80.55 267.89 79.39 
M 268.31 81.57 273.44 82.12 
M 191.23 133.44 197.47 132.91 207.78 132.54 215.95 131.89 221.38 131.83 224 131.99 232.07 131.8 242.52 131.18 250.5 131.57 255.93 132.18 258.64 131.73 271.23 132.03 277.21 133.31 285.07 132.55 287.67 132.72 290.32 133.19 294.84 134.74 300.88 135.17 303.13 135.9 305.56 135.91 309.66 136.16 312.28 136.57 315.23 136.62 324.27 137.8 327.07 137.91 332.36 138.9 334.41 139.64 336.42 140.1 338.79 140.42 341.95 141.23 344.95 141.21 347.68 140.95 351.14 142.06 331.66 148.91 328.8 149.33 326.44 150.27 324.25 151.37 319.04 152.74 316.59 153.58 314.48 154.76 311.98 155.55 309.31 155.93 306.95 156.47 299.04 157.29 296.52 157.68 291.62 158.59 289.01 158.88 286.81 159.49 281.41 159.7 278.94 160.04 276 159.9 270.86 160.37 259.95 160.06 257.01 159.73 254.51 159.86 251.72 159.69 246.63 159.73 244.44 159.97 239.23 159.63 237.08 159.91 229.56 159.57 227.2 159.17 224.18 158.12 218.98 156.84 208.61 154.63 192.14 149.73 188.44 148.1 
M 190.99 135.11 200.12 135.15 205.15 135.44 207.82 135.44 210.59 135.05 216.28 135.02 218.9 135.33 224.6 135.52 230.02 135.49 232.52 135.65 237.62 135.43 240.07 135.77 242.8 135.92 245.16 135.75 250.07 136.65 258.4 137.19 263.62 138 266.44 138.19 268.52 138.61 274.44 139.15 276.94 139.18 279.3 139.59 284.33 140.99 291.56 142.13 296.67 143.32 299.09 143.22 
M 190.76 136.96 200.19 137.47 207.87 138.1 213.18 138 216.02 138.27 218.78 138.32 221.72 138.55 226.81 139.37 229.78 139.24 234.76 139.84 239.96 140.16 242.5 140.82 244.88 141.15 252.23 142.01 254.84 141.97 260.09 142.94 262.71 144.11 269.33 145.25 
M 190.53 138.68 202.74 139.94 205.45 140.42 215.71 141.1 221.06 141.97 223.98 142.76 231.97 143.73 234.59 143.81 239.65 145.11 242.01 145.92 244.73 146.43 247.06 147.22 249.9 147.33 255.09 148.44 257.51 149.37 259.98 149.81 267.3 151.92 275.74 154.85 280.71 156.35 
M 190.29 140.43 200 141.92 202.85 142.51 205.74 142.67 213.23 144.03 215.65 144.01 228.9 148.07 231.65 148.58 234.64 149.4 236.46 150.15 238.86 150.82 241.06 151.97 243.46 152.54 
M 189.91 142.08 202.91 145.04 205.87 145.38 212.7 147.28 
M 189.44 143.77 202.61 148.05 205.49 148.66 208.11 149 210.3 149.88 211.83 151.21 214.46 151.68 217.13 152.72 225.57 156.6 
M 188.98 145.63 199.74 150.26 202.65 151.87 204.93 152.56 
M 213.65 190.13 219.1 197.91 221.87 203.34 227.13 212.1 228.17 214.32 229.01 216.95 229.84 218.93 231.11 221.52 231.62 224.35 232.98 227.2 234.11 230.19 235.39 232.23 237.34 234.37 239.35 235.12 234.27 245.31 233.93 248.47 232.35 250.39 231.77 253.29 230.18 255.32 224.69 260.79 223.69 263.45 222.15 265.57 219.41 266.51 214.3 268.73 210.93 272.36 199.71 280 200.12 276.18 198.87 274.92 198.25 272.23 198.7 269.91 198.6 267.98 199.61 266.08 200.82 260.09 200.56 258.18 200.76 256.27 201.23 253.91 202.15 251.06 201.87 245.28 202.47 242.79 203.26 240.7 203.87 237.77 203.43 234.9 203.55 231.73 202.57 228.7 202.87 226.05 203.58 223.6 204.85 221.34 205.57 218.87 205.35 215.56 204.61 209.59 206.98 201.36 207 198.79 206.61 196.36 206.85 190.68 206.39 187.03 
M 212.05 189.45 216.54 197.31 217.76 199.96 218.75 203.08 219.97 206.2 221.59 209.09 223.69 214.47 224.31 219.97 228.11 226.08 229.18 229.03 
M 210.45 188.77 212.14 192.08 214.65 199.72 215.82 202.67 216.68 209.81 217.55 212.51 219.84 217.3 220.23 219.88 220.2 222.47 223.18 227.63 222.45 229.86 222.88 232.29 224.22 234.84 224.6 237.33 
M 208.85 188.08 210.15 191.62 211.14 197.09 211.45 199.77 212.31 202.62 213.5 211.84 213.56 214.11 215.7 219.7 215.75 227.63 216.23 230.54 217.37 234.09 219.46 237.39 219.75 243.39 
M 207.26 187.4 208.13 191.11 208.57 196.74 209.13 199.21 209.36 202.12 208.47 207.49 208.61 210.2 209.13 213.32 209.97 216.74 210.38 219.54 209.61 222.47 208.62 224.87 208.26 226.63 208.81 229.65 209.9 232.67 210.2 236.11 210 238.93 209.59 241.4 209.87 244.4 210.69 246.77 210.49 248.91 211.14 250.88 211.02 253.06 211.55 256.16 211.39 259.59 210.64 261.49 210.26 264 210.69 266.95 211.49 268.38 211.84 270.15 
M 322.51 172.82 328.57 177.69 331.73 181.06 333.05 186.38 331.29 188.1 329.88 190.29 328.87 192.95 326.28 194.03 322.94 194.13 318.25 195.29 312.7 196.32 307.54 197.66 300.43 196.13 298.18 193.1 293.48 188.8 
M 318.94 175.3 322.84 178.34 325.91 180.37 327.88 182.47 
M 315.37 177.78 318.91 181.02 321.35 183.58 324.49 184.8 327.26 186.43 
M 311.72 180.13 315.92 183.3 321.36 187.74 
M 308.07 182.48 312.21 185.53 315.15 187.29 317.81 189.46 321 191.51 
M 304.11 184.26 307.42 187.82 310.43 189.22 312.82 191.08 
M 300.13 186.01 303.57 189.12 308.66 193.02 312.25 194.79 
M 296.13 187.69 305.38 196.24 
M 358.8 123.52 361.31 122.87 363.29 121.62 369.06 119.89 371.1 118.68 376.72 116.12 381.55 112.95 383.86 111.03 389.19 108.21 395.66 105.1 398.14 103.32 400.76 102.24 405.25 99.95 419.96 106.17 424.93 107.46 433.51 111.52 436.39 113.26 438.24 114.64 445.42 120.54 447.47 123.33 447.74 125.32 448.45 127.75 448.91 130.19 448.57 132.52 450.09 141.67 449.18 145.18 449.46 147.67 448.86 150.15 447.22 155.1 446.07 157.51 444.32 159.32 440.93 163.29 437.08 166.72 432.14 168.8 428.49 172.4 427.04 174.59 424.91 175.48 421.96 175.45 418.38 175.16 416.4 176.48 413.94 177.32 411.25 177.34 405.74 176.99 399.73 177.55 398.38 176.42 395.08 175.68 391.94 174.57 390.14 173.01 388.72 171.05 386.54 170.46 384.41 169.3 382.19 167.24 379.08 165.17 376.29 163.06 370.95 159.8 366.08 157.27 358.8 150.54 
M 366.18 122.72 371.62 121.18 373.89 119.6 376.94 118.29 381.97 115.45 384.32 113.81 386.76 112.58 388.82 111.68 391.38 111.26 393.76 109.79 400.32 107.8 
M 366.71 124.38 372.34 123.25 374.5 122.39 376.74 121.2 379.06 119.4 381.99 118.25 384.39 116.42 386.59 115.49 389.66 115.12 391.97 113.97 394.06 113.75 
M 362.22 127.67 367.12 126.02 372.66 125.16 377.01 123.99 378.8 122.33 381.52 121.53 384.64 120.22 389.72 117.51 392.19 117.09 395.64 117.09 398.25 116.6 400.89 115.1 
M 362.42 129.27 365.32 128.7 367.81 127.97 373.09 127.16 379.48 124.77 385.31 123.23 387.96 121.93 390.57 120.21 393.1 119.8 395.93 119.67 402.2 117.97 404.08 117.68 405.28 115.87 407.32 113.89 
M 368.39 129.87 370.79 129.45 375.8 128.26 381.04 126.53 385.81 125.89 388.71 124.71 391.48 123.37 393.83 123.01 396.63 121.74 400.21 120.45 
M 358.8 131.62 362.33 132.01 371.17 131.35 373.8 130.64 378.95 129.75 381.64 129 384.32 128.74 386.25 128.86 392.44 126.78 395.09 126.92 398.07 125.62 400.98 123.48 403.14 123.81 404.67 124.41 408.15 124.13 410.69 123.46 415.05 121.22 
M 358.8 132.97 362.29 133.52 365.31 133.44 368.5 133.01 371.31 132.97 373.88 132.69 376.82 132.03 379.51 131.75 384.16 130.77 389.76 131.09 392.53 130.97 395.7 131.28 401.14 128.99 403.47 128.23 405.25 128.31 410.2 127.6 413.57 127.67 416.43 126.58 419.38 125.92 422.25 124.67 425.31 124.38 427.67 123.4 
M 362.25 135.01 365.12 135.16 368.29 134.74 371.21 134.87 373.81 134.75 381.95 134.03 384.4 133.37 386.88 133.49 389.79 133.89 395.73 134.12 398.8 133.38 411.03 131.77 417.62 133.01 420.3 132.5 423.27 130.84 425.22 129.2 431.4 129.47 436.29 131.39 439.29 130.52 442.25 130.61 444.58 130.2 
M 358.8 135.68 362.21 136.54 365.06 136.73 373.61 136.7 379.1 136.4 381.91 136.92 384.28 136.38 388.97 136.68 392.4 136.68 395.47 136.24 403.64 136.82 
M 362.19 137.88 365.07 138.21 373.66 138.41 381.21 138.87 384.28 139.29 387.08 139.47 389 139.23 391.61 139.16 394.14 138.6 397 138.71 399.97 139.03 402.46 140.01 406.52 140.31 410.43 140.32 413.39 140.99 
M 358.8 138.38 362.19 139.36 365.14 139.95 373.75 140.63 381.39 141.97 387.04 142.5 392.54 142.29 394.68 142.82 397.19 142.81 399.8 143.02 402.73 143.44 405.63 143.59 408.97 143.98 411.16 144.64 414.1 145.15 416.74 145.84 418.87 145.55 421.72 146.19 426.66 145.87 436.89 145.93 440.24 146.8 444.67 147.09 
M 367.87 142.25 370.81 142.68 373.8 143.37 375.92 143.58 378.35 144.04 381 145.16 386.62 145.3 392.48 145.16 397.49 146.29 400.64 146.59 405.3 148.23 407.25 147.97 410.44 148.45 414.7 149.8 418.82 150.6 422.04 150.7 425.17 150.34 427.77 150.88 428.93 151.37 430.99 151.49 433.74 150.7 436.05 152.24 438.87 152.83 
M 365.09 143.34 373.48 145.47 375.86 146.16 378.13 147.07 380.5 147.65 388.58 147.5 394.43 149.07 397.38 150.21 400.47 150.36 402.73 151.8 404.8 152.02 407.49 151.89 410.21 152.39 413.2 153.43 416.26 152.95 419.42 153.4 422.29 154.75 424.33 155.03 426.83 154.89 429.42 155.81 
M 362.25 143.93 365.17 144.98 368.23 145.79 375.9 148.9 380.06 149.79 382.71 150.64 385.73 151.32 389.09 150.91 391.84 151.59 394.19 152.52 397.3 154.1 400.39 154.95 403.14 156.1 405.22 156.18 406.79 157.02 409.75 157.73 
M 362.24 145.35 368.33 147.4 370.79 148.85 372.9 149.6 375.23 150.19 377.64 151.11 379.95 152.29 382.84 152.99 385.77 153.96 389.42 154.15 392.1 154.71 397.01 157.44 399.75 159.62 402.46 160.43 404.79 160.04 406.67 161.4 409.5 162.02 412.34 161.85 415.8 162.2 421.08 164.68 423.21 165.35 428.17 166.41 430.75 168.58 
M 362.18 146.71 365.24 147.92 370.27 150.7 374.65 151.96 379.2 154.41 381.96 155.69 385.79 156.63 388.76 157.54 391.77 157.73 399.64 162.31 402.49 163.32 404.44 164.4 405.83 165.23 407.51 166.92 410.94 167.07 414.24 166.99 417.38 169.03 419.89 169.39 423.92 172.47 425.43 173.37 
M 365.07 149.87 367.36 151.69 371.85 152.86 374.49 154.01 377.28 155.58 379.06 157.16 381.66 158.52 388.5 161.3 391.36 162.23 396.99 165.07 399.56 166.98 402.39 167.65 404.57 168.67 405.4 168.88 406.99 170.26 
M 364.85 151.68 366.92 153.59 371.52 154.59 374.18 156.18 381.71 161.68 384.68 163.48 390.52 165.97 
M 364.59 153.59 366.46 155.41 371.03 156.87 373.84 158.68 378.85 162.28 381.91 164.78 385.06 166.22 
M 76.13 138.74 80.64 136.76 84.78 134.11 90.07 131.35 95.61 128.94 109.7 122.34 125.31 115.27 133 112.25 140.64 108.69 149.06 106.05 157.21 104.04 164.47 101.86 171.33 100.67 177.29 99.91 181.93 99.49 184.59 99.45 187.82 103.53 189.44 107.43 190.69 111.28 191.26 115.07 192.07 122.6 192.31 126.35 192.04 130.05 191.17 133.68 190.21 141.03 189.19 144.65 188.4 148.29 187.91 151.97 185.98 159.22 184.56 162.79 182.2 166.28 177.42 169.52 154.75 169.4 146.64 169.16 138.53 168.37 130.79 167.25 123.35 165.82 116.43 163.75 104.44 159.29 
M 100.75 157.77 93.51 154.5 88.1 151.11 
M 163.88 125.43 163.44 128.66 160.78 134.77 159.35 137.44 157.7 139.83 156.53 142.11 156.14 144.18 156.13 145.97 157.33 149.87 157.44 152.21 155.69 154.61 147.08 154.91 135.22 156.05 128.97 156.21 122.63 155.96 116.31 155.18 110.38 153.53 
M 103.21 159.08 88.65 151.38 79.02 146.56 73.39 143.31 71.83 141.92 71.76 139.75 73.48 138.25 75.59 138.36 80.69 142.04 84.08 144.74 89.54 148.31 104.68 158.89 
M 101.52 160.72 91.77 163.58 
M 90.7 163.86 77.38 167.32 73.21 168.55 71.25 168.6 69.9 166.93 70.12 164.69 71.82 163.48 75.95 162.65 86.97 161.6 90.1 161.16 
M 90.9 161.05 102.78 159.18 
M 104.04 158.91 104.37 158.84 
M 124.69 137.07 123.71 133.36 123.99 129.53 125.5 126.01 128.07 123.16 131.42 121.3 135.2 120.63 138.99 121.22 142.38 123.02 145.01 125.81 146.58 129.31 146.94 133.13 146.03 136.86 143.97 140.09 140.96 142.48 137.35 143.76 133.51 143.8 129.87 142.59 126.82 140.26 124.69 137.07 
M 124.55 136.74 123.78 133.96 123.72 131.08 123.96 129.66 124.95 126.95 126.58 124.57 128.74 122.66 131.3 121.34 132.69 120.93 134.11 120.69 137 120.75 139.77 121.52 
M 126.15 136.08 125.75 134.92 125.4 132.49 125.67 129.98 
M 127.93 125.67 129.72 124.1 130.78 123.47 133.08 122.62 135.52 122.37 136.74 122.47 139.11 123.12 
M 127.76 135.41 127.22 133.46 127.14 132.45 127.31 130.64 
M 129.29 126.76 130.7 125.53 131.57 125.01 133.47 124.31 135.48 124.11 136.49 124.19 138.44 124.73 
M 129.36 134.75 128.94 133.21 129 131.04 
M 130.61 127.89 132.37 126.56 133.86 126.01 135.45 125.84 137.78 126.33 
M 131.06 134.2 130.67 132.71 130.78 131.31 
M 132.12 128.96 132.42 128.63 133.76 127.89 135.27 127.62 136.78 127.86 138.14 128.58 139.19 129.69 139.82 131.09 139.96 132.62 139.6 134.11 138.78 135.41 137.57 136.36 136.13 136.87 134.59 136.89 133.14 136.4 131.92 135.47 131.06 134.2 
M 130.79 131.31 130.77 131.33 
M 133.8 127.88 133 129.48 
M 132.06 131.36 130.92 133.65 
M 135.23 127.63 134 130.1 
M 133.34 131.4 131.57 134.95 
M 136.44 127.81 134.96 130.77 
M 134.67 131.35 132.42 135.86 
M 137.53 128.25 133.4 136.49 
M 138.48 128.94 134.52 136.86 
M 139.3 129.92 135.82 136.88 
M 139.85 131.42 137.34 136.44 
M 78.65 137.69 83.62 142.66 
M 82.04 135.87 86.45 140.28 
M 85.24 133.86 89.62 138.24 
M 88.67 132.08 93.87 137.28 
M 92.22 130.41 94.9 133.09 
M 95.85 128.83 98.47 131.45 
M 99.42 127.19 103.83 131.6 
M 102.98 125.54 107.97 130.53 
M 106.51 123.86 109.92 127.27 
M 110.05 122.18 114.15 126.29 
M 113.63 120.55 118.07 124.99 
M 117.21 118.92 121.09 122.79 
M 120.8 117.3 125.22 121.72 
M 124.4 115.68 128.64 119.93 
M 128.1 114.18 130.94 117.01 
M 131.85 112.71 134.76 115.62 
M 135.46 111.1 140.52 116.17 
M 139.01 109.45 143.39 113.82 
M 142.79 108.01 145.62 110.85 
M 146.76 106.77 150.64 110.65 
M 150.82 105.62 154.56 109.36 
M 155 104.58 158.96 108.54 
M 159.1 103.47 163.49 107.87 
M 163.11 102.27 167.14 106.3 
M 167.4 101.35 170.48 104.43 
M 171.86 100.6 176.88 105.62 
M 176.49 100.02 179.65 103.17 
M 181.24 99.55 185.61 103.92 
M 155.04 104.69 156.65 104.66 159.05 105.43 159.43 105.32 159.79 104.98 
M 175.69 147.5 177.63 146.67 178.22 146.65 178.98 146.88 
M 158.57 153.46 156.86 152.12 155.13 151.14 152.93 148.95 148.75 146.48 
M 169.34 144.84 169.68 143.82 170.33 142.81 170.82 142.46 172.82 141.81 174.61 140.27 
M 180.38 131.8 181.19 131.84 182.54 132.35 183.88 132.6 184.54 132.61 184.97 132.36 
M 152.23 110.3 151.41 109.25 150.58 108.59 149.66 108.62 148.73 109.16 
M 167.14 114.39 166.09 113.09 166.02 112.77 
M 89.25 139.13 89.94 139.8 92.11 141.03 93.77 142.46 95.46 143.22 96.78 144.04 
M 176.03 113.54 174.71 112.16 173.56 110.58 171.95 106.53 170.94 105.76 168.8 105.13 
M 138.53 159.95 137.22 158.42 136.54 157.04 
M 99.53 136.13 98.97 138.53 99.21 140.53 99.7 143.33 100.91 145.25 
M 113.25 136.01 112.83 135.81 110.91 135.62 109.12 135.14 108.11 135.08 104.86 135.37 104.22 135.67 103.93 136.17 
M 88 145.23 87.8 146.13 87.3 146.86 
M 176.24 139.39 176.65 139.48 176.8 139.26 
M 172.3 109.73 171.81 107.72 171.17 106.71 169.56 105.68 166.74 105 165.68 104.19 165.46 103.8 
M 99.31 153.38 102.47 154.39 104.06 155.1 105.23 156.11 105.49 157.04 
M 148.39 120.67 147.89 119.07 147.22 117.95 146.72 117.67 
M 181.49 99.97 179.85 101.65 177.26 103.35 175.84 104.72 175.03 105.28 
M 135.92 112.62 136.07 110.82 
M 102.99 150.48 104.75 152.11 106.05 154.13 106.13 154.79 
M 163.21 163.11 161.15 162.26 160.38 161.69 160 160.83 159.27 158.18 158.76 157.29 153.62 152.06 
M 121.46 125.63 117.89 125.98 115.62 125.77 
M 169.63 121.64 167.75 122.79 167.28 122.94 166.33 122.77 164.31 121.85 163.71 120.99 163.28 119.47 
M 172.47 117.65 171.84 117.58 171.37 117.79 170.74 118.69 168.46 121 167.49 121.64 166.97 121.79 
M 135.02 144.46 134.92 143.78 
M 151.99 166.5 152.75 165.67 153.2 165.51 155.79 165.79 
M 160.17 119.8 160.03 118.41 158.51 116.38 157.92 114.77 157.96 114.38 158.39 113.8 159.31 113.42 
M 99.39 129.03 100.22 129.33 102.49 130.73 103.06 131.84 
M 136.47 117.49 135.6 113.31 135.73 110.97 
M 119.22 145.69 120.36 147.98 121.55 151.28 122.04 152.04 122.67 152.58 124.11 153.27 124.7 154.27 124.84 155.32 
M 114.36 141.3 117.21 144.55 118.17 146.21 118.8 147.68 
M 148.35 165.22 146.63 164.31 143.14 163.21 141.51 161.57 141.06 160.31 
M 147 115.02 146.58 115.27 146.44 115.71 146.61 117.51 
M 178.5 108.06 177.17 108.33 176.05 108.24 175.57 108 172.64 104.69 171.76 104.1 
M 173.3 166.83 172.29 164.39 171.88 162.93 170.56 160.11 170.47 158.98 171.11 156.99 172.55 154.56 
M 175.93 116.42 176.14 115.34 175.89 114.21 173.29 110.36 172.58 108.32 
M 91.44 146.3 94.39 144.79 95.69 144.3 96.79 144.23 97.8 144.73 
M 111.38 161.91 111.75 160.61 111.72 158.67 
M 114.42 132.16 113.47 131.59 112.42 131.45 106.09 132.53 104.24 133.55 103.89 133.95 103.46 135.31 
M 183.43 131.66 184.97 132.28 
M 122.34 124.99 121.41 124.87 120.03 125.56 117.8 125.97 
M 179.95 133.91 181.32 133.32 183.81 133.13 184.66 132.78 184.98 132.41 
M 138.14 117.08 137.49 113.24 137.48 112.29 137.85 109.99 
M 152.88 121.46 151.06 120.46 150.56 120.02 148.14 116.96 147.6 116.62 
M 164.41 142.32 164.94 141.94 165.29 141.43 166 140.17 166.29 139.13 166.56 138.84 167.36 138.61 169.08 138.57 
M 168.08 104.93 166.7 104.58 165.84 103.97 164.64 101.83 
M 129.69 117.96 127.9 115.87 127.05 115.48 126.43 114.83 
M 124.02 156.23 124.89 157.43 124.92 158.15 124.63 158.96 
M 145.91 150.06 145.42 149.26 143.9 148.04 142.06 147.46 141.25 146.88 140.83 146.04 140.18 143.14 139.98 142.83 
M 127.55 123.73 125.13 121.27 124.22 120.75 123.09 120.59 122.37 121.05 
M 148.9 141.47 148.96 140.46 148.65 136.95 
M 173.66 128.6 171.61 129.08 170.19 128.97 169.52 129.07 166.58 130.19 166.01 130.01 
M 151.17 114.36 150.98 113.62 150.97 112.02 150.2 110.99 
M 99.46 148.78 103.84 152.16 105.64 154.7 
M 186.32 138.63 186.42 134.48 185 132.33 
M 158.83 137.92 159.56 136.62 161.25 134.49 161.85 133.22 162.23 131.9 162.15 130.29 161.29 126.14 
M 169.14 113.72 169.43 112.31 169.51 110.53 169.26 108.72 168.88 107.96 168.32 107.35 167.39 106.87 166.91 106.81 166.58 106.96 
M 150.83 146.42 146.91 144.31 145.99 144.05 144.23 144.1 141.6 143.67 140.62 142.6 
M 118.1 151.05 118.58 151.9 119.8 153.23 124.04 155.97 124.76 156.9 124.97 157.57 
M 121.34 163.82 119.72 164.73 
M 176.92 164.37 177.77 161.44 179.92 157.69 180.48 157.4 182.86 157.12 183.68 156.86 
M 128.48 164.41 127.91 164.1 126.92 163.97 126.35 163.61 125.97 163.02 125.49 161.49 
M 155.59 140.96 154.48 139.3 153.91 139.01 152.54 138.79 151.48 138.13 150.27 136.67 149.81 135.57 
M 99.93 152.2 101.33 153.05 102.93 153.56 103.86 154.09 104.72 154.77 105.61 156.04 
M 90.18 139.85 91.79 140.69 93.96 142.49 95.67 143.29 97.04 144.22 
M 147.28 120.72 145.29 119.02 
M 160.63 111.69 161.26 112.29 161.65 113.06 162.16 114.49 162.16 114.99 161.77 115.62 160.76 116.03 159.72 115.74 159.23 115.19 
M 110.9 161.74 111.36 160.56 111.57 158.82 
M 151.37 144.48 149.69 142.76 149.5 142.25 149.39 140.25 148.78 138.08 
M 105.35 160.21 101.61 163.89 99.22 165.47 97.87 165.98 96.46 166.26 95.04 166.34 93.57 166.16 92.2 165.55 91.09 164.55 90.37 163.27 90.07 161.87 90.13 160.48 90.78 157.88 91.31 156.67 93.86 152.1 91.65 156.82 90.99 159.28 90.88 160.54 90.93 161.76 91.28 162.88 91.93 163.81 92.83 164.48 93.89 164.83 95.02 164.86 97.31 164.33 98.35 163.82 100.18 162.34 103.51 158.37 
M 104.43 159.29 105.16 159.76 
M 100.31 157.53 100.42 157.59 
M 96.1 155.3 96.28 155.95 96.6 155.56 
M 92.08 153.21 92.2 154.29 92.68 153.52 
M 88.1 151.11 87.99 151.47 88.12 152.62 88.43 151.75 88.77 151.44 
M 84.09 149.12 83.93 149.55 84.05 150.95 84.37 149.83 84.76 149.45 
M 80.08 147.12 79.88 147.63 79.97 149.28 80.32 147.91 80.74 147.46 
M 76.17 144.91 75.82 145.71 75.89 147.61 76.26 145.99 76.85 145.33 
M 72.39 142.41 71.77 143.79 71.81 145.94 72.21 144.07 73.08 143.03 
M 104.46 159.28 105.28 159.1 
M 99.53 159.68 99.75 159.45 99.9 159.62 
M 94.61 160.5 95.08 159.6 95.4 160.37 
M 89.88 161.19 89.93 160.65 90.4 159.75 90.44 160.53 90.75 161.07 
M 85.17 161.76 85.18 161.08 85.72 159.91 85.69 160.97 86.04 161.68 
M 80.45 162.18 80.43 161.52 81.05 160.06 80.94 161.4 81.25 162.12 
M 75.72 162.69 75.68 161.95 76.37 160.22 76.19 161.83 76.49 162.59 
M 71.07 164.02 70.93 162.38 71.7 160.37 71.44 162.27 71.89 163.46 
M 77.54 167.28 89.12 168.28 94.84 168.43 100.56 168.28 106.34 167.87 112.08 167.27 123.35 165.82 
M 93.32 166.29 93.33 166.26 
M 96.79 166.74 96.74 166.21 
M 107.44 167.28 106.35 166.07 
M 185.05 99.19 190.59 104.72 
M 189.23 96.41 198.36 105.55 
M 193.48 93.71 198.7 98.94 
M 197.86 91.14 203.85 97.13 
M 202.59 88.92 207.91 94.25 
M 207.52 86.91 217.22 96.61 
M 212.66 85.1 218.91 91.35 
M 217.9 83.39 224.61 90.1 
M 223.43 81.97 232.98 91.52 
M 229.47 81.05 238.71 90.3 
M 236.06 80.7 242.8 87.44 
M 242.59 80.28 252.99 90.68 
M 248.84 79.58 254.19 84.93 
M 255.67 79.46 264.35 88.14 
M 263.64 80.48 273.92 90.77 
M 272.93 82.82 280.53 90.43 
M 282.77 85.72 291.49 94.43 
M 292.09 88.09 300.7 96.69 
M 301.84 90.88 311.8 100.84 
M 313.3 95.4 319.17 101.26 
M 327.33 102.47 336.38 111.52 
M 345.93 114.13 355.1 123.3 
M 224.63 291.39 222.74 297.7 
M 224.63 291.39 228.53 291.39 
M 223.73 294.39 226.13 294.39 
M 222.74 297.7 226.64 297.7 
M 230.33 291.39 228.44 297.7 
M 229.43 294.39 230.21 293.8 230.9 293.5 231.8 293.5 232.31 293.8 232.73 294.39 232.76 295.3 232.58 295.89 232.01 296.8 231.23 297.39 230.54 297.7 229.64 297.7 229.13 297.39 228.71 296.8 
M 235.4 293.5 234.5 296.5 234.53 297.39 235.04 297.7 235.94 297.7 236.63 297.39 237.8 296.5 
M 238.7 293.5 237.44 297.7 
M 241.1 293.5 239.84 297.7 
M 240.56 295.3 241.13 294.39 241.91 293.8 242.6 293.5 243.5 293.5 
M 246.2 293.5 245.51 293.8 244.73 294.39 244.16 295.3 243.98 295.89 244.01 296.8 244.43 297.39 244.94 297.7 245.84 297.7 246.53 297.39 247.31 296.8 247.88 295.89 248.06 295.3 248.03 294.39 247.61 293.8 247.1 293.5 246.2 293.5 
M 251.63 291.39 250.1 296.5 250.13 297.39 250.64 297.7 251.24 297.7 
M 250.1 293.5 252.2 293.5 
M 254.63 291.39 254.83 291.7 255.23 291.39 255.02 291.1 254.63 291.39 
M 254.3 293.5 253.04 297.7 
M 259.43 294.39 259.31 293.8 258.5 293.5 257.6 293.5 256.61 293.8 256.13 294.39 256.25 295 256.76 295.3 258.16 295.6 258.68 295.89 258.71 296.8 258.23 297.39 257.24 297.7 256.33 297.7 255.53 297.39 255.41 296.8 
M 266 293.5 265.31 293.8 264.52 294.39 263.96 295.3 263.77 295.89 263.81 296.8 264.23 297.39 264.74 297.7 265.64 297.7 266.33 297.39 267.11 296.8 267.68 295.89 267.86 295.3 267.83 294.39 267.4 293.8 266.89 293.5 266 293.5 
M 271.13 291.39 269.24 297.7 
M 270.23 294.39 271.01 293.8 271.7 293.5 272.6 293.5 273.11 293.8 273.52 294.39 273.56 295.3 273.38 295.89 272.81 296.8 272.02 297.39 271.33 297.7 270.44 297.7 269.93 297.39 269.51 296.8 
M 279.5 293.5 278.24 297.7 
M 279.23 294.39 278.81 293.8 278.3 293.5 277.39 293.5 276.7 293.8 275.93 294.39 275.36 295.3 275.18 295.89 275.2 296.8 275.63 297.39 276.14 297.7 277.04 297.7 277.73 297.39 278.51 296.8 
M 282.83 291.39 281.3 296.5 281.33 297.39 281.83 297.7 282.44 297.7 
M 281.3 293.5 283.39 293.5 
M 285.5 293.5 284.6 296.5 284.63 297.39 285.14 297.7 286.03 297.7 286.73 297.39 287.89 296.5 
M 288.8 293.5 287.53 297.7 
M 293.93 294.39 293.81 293.8 293 293.5 292.1 293.5 291.11 293.8 290.63 294.39 290.75 295 291.26 295.3 292.66 295.6 293.18 295.89 293.2 296.8 292.73 297.39 291.74 297.7 290.83 297.7 290.02 297.39 289.9 296.8 
M 295.52 297.1 295.13 297.39 295.33 297.7 295.73 297.39 295.52 297.1 
"/></svg>
