<svg xmlns="http://www.w3.org/2000/svg" width="520" height="320"><rect x="0" y="0" width="520" height="320" fill="floralwhite"/><rect x="10" y="10" width="500" height="300" stroke="black" stroke-width="1" fill="none"/><path stroke="black" stroke-width="1" fill="none" stroke-linecap="round" stroke-linejoin="round" d="
M 189.76 102.36 205.02 97.7 212.66 95.57 220.29 93.69 227.93 92.36 243.19 90.58 250.83 90.31 258.46 89.82 266.09 89.61 273.73 88.96 281.36 88.78 289 90.07 296.63 91.95 311.9 97.35 327.16 101.95 334.8 104.51 342.43 107.4 357.7 113.98 365.33 117.48 373.79 121.65 
M 373.79 154.25 365.33 158.63 350.07 166.21 342.43 170.28 334.8 174 327.16 176.97 311.9 182.62 304.26 184.98 289 187.48 281.36 188.99 273.73 189.55 266.09 188.87 258.46 188.88 250.83 189.64 243.19 189.18 235.56 187.84 227.93 187.47 220.29 187.82 212.66 186.71 205.02 184.15 197.39 180.93 189.76 177.19 182.16 173 
M 185.36 171.21 185.14 170.58 184.58 169.74 
M 189.6 139.63 189.76 139.41 
M 191.36 162.62 191.71 162.3 192.16 161.49 192.44 160.58 192.44 160.01 192.16 159.1 191.71 158.29 191.36 157.98 
M 190.71 103.69 191.17 103.08 191.17 102.68 190.7 102.06 
M 191.85 129.99 192.45 129 192.45 128.52 191.78 127.46 
M 191.78 102.05 192.85 101.39 
M 192.83 119.91 193.48 118.76 193.34 117.95 
M 192.77 127.47 193.2 127.2 193.74 126.5 194.09 125.7 194.09 125.21 193.74 124.42 193.2 123.72 192.77 123.45 
M 192.84 130.02 192.83 130.01 
M 194.62 161.89 194.98 161.57 195.45 160.77 195.75 159.87 195.75 159.31 195.45 158.4 194.98 157.6 194.62 157.29 
M 193.87 105.06 194.46 104.85 195.22 104.3 195.71 103.68 195.71 103.29 195.22 102.67 194.46 102.12 193.87 101.91 
M 194.05 110.7 194.98 109.99 195.45 109.29 195.45 108.86 194.98 108.16 194.25 107.54 193.68 107.29 
M 194.46 124.04 194.99 123.77 195.67 123.07 196.1 122.28 196.1 121.8 195.67 121.01 194.99 120.31 194.46 120.04 
M 195.45 130.09 196.31 128.87 196.31 128.4 195.89 127.65 195.25 126.98 194.74 126.72 
M 195.67 157.69 196.12 157.39 196.7 156.6 197.07 155.7 197.07 155.15 196.7 154.25 196.12 153.46 195.67 153.16 
M 197.66 172.4 198.08 172.1 198.63 171.32 198.98 170.45 198.98 169.91 198.63 169.03 198.08 168.26 197.66 167.96 
M 196.39 102.66 197.54 101.96 197.96 101.39 197.96 101.04 197.04 100.08 
M 195.85 107.98 196.33 107.76 196.94 107.18 197.34 106.53 197.34 106.13 196.94 105.47 196.33 104.9 195.85 104.67 
M 195.85 114.09 196.32 113.83 196.92 113.19 197.3 112.45 197.3 112 196.92 111.27 196.32 110.62 195.85 110.37 
M 196.24 120.71 196.7 120.44 197.29 119.75 197.67 118.97 197.67 118.48 197.29 117.7 196.7 117 196.24 116.73 
M 196.73 127.43 197.17 127.16 197.72 126.48 198.08 125.71 198.08 125.23 197.72 124.46 197.17 123.78 196.73 123.52 
M 197.03 130.14 196.63 129.9 
M 196.82 153.59 197.2 153.29 197.7 152.51 198.02 151.63 198.02 151.08 197.51 149.91 
M 197.93 161.2 198.3 160.89 198.78 160.11 199.08 159.22 199.08 158.67 198.78 157.79 198.3 157.01 197.93 156.7 
M 199.24 100.75 200.67 100.1 201.19 99.58 201.19 99.25 200.88 98.93 
M 198.36 105.58 198.95 105.37 199.71 104.84 200.21 104.23 200.21 103.86 199.71 103.26 198.95 102.73 198.36 102.52 
M 198.56 124.15 199.1 123.89 199.8 123.21 200.24 122.44 200.24 121.96 199.8 121.2 199.1 120.52 198.56 120.25 
M 199.23 130.2 199.85 129.59 200.28 128.85 200.28 128.39 199.85 127.65 199.19 127 198.67 126.75 
M 202.24 98.98 202.78 98.81 203.77 98.07 
M 200.97 103.26 202.13 102.59 202.55 102.04 202.55 101.7 202.13 101.15 200.97 100.48 
M 200.23 108.4 200.72 108.18 201.34 107.62 201.74 106.98 201.74 106.58 201.34 105.95 200.72 105.38 200.23 105.16 
M 200.16 114.44 200.64 114.19 201.25 113.55 201.64 112.83 201.64 112.38 201.25 111.66 200.64 111.02 200.16 110.77 
M 200.49 120.98 200.96 120.71 201.55 120.04 201.94 119.27 201.94 118.79 201.55 118.03 200.96 117.35 200.49 117.08 
M 200.78 127.48 201.22 127.22 201.79 126.56 202.16 125.81 202.16 125.35 201.79 124.6 201.22 123.94 200.78 123.68 
M 201.07 130.25 200.54 129.89 
M 200.42 153.17 200.81 152.88 201.32 152.12 201.64 151.27 201.64 150.74 201.39 150.07 
M 205.54 97.72 207.14 97.11 
M 204 101.53 205.46 100.91 205.99 100.41 205.99 100.09 205.46 99.59 204 98.97 
M 202.89 106.13 203.5 105.93 204.27 105.41 204.77 104.83 204.77 104.46 204.27 103.88 203.5 103.36 202.89 103.16 
M 202.51 117.91 203.08 117.65 203.81 117 204.28 116.26 204.28 115.8 203.81 115.06 203.08 114.41 202.51 114.16 
M 202.74 124.34 203.29 124.09 204 123.43 204.45 122.68 204.45 122.21 204 121.46 203.29 120.8 202.74 120.55 
M 203.33 163.72 203.77 163.43 204.34 162.69 204.71 161.86 204.71 161.34 204.34 160.51 203.77 159.77 203.33 159.48 
M 207.16 99.94 208.42 99.37 208.88 98.91 208.88 98.62 208.42 98.16 207.16 97.59 
M 205.64 103.95 206.84 103.3 207.27 102.77 207.27 102.44 206.84 101.92 205.64 101.27 
M 204.71 108.91 205.21 108.69 205.85 108.14 206.27 107.52 206.27 107.13 205.85 106.51 205.21 105.96 204.71 105.74 
M 204.56 114.89 205.05 114.64 205.68 114.01 206.08 113.29 206.08 112.85 205.68 112.14 205.05 111.5 204.56 111.26 
M 204.81 121.32 205.29 121.06 205.9 120.4 206.29 119.65 206.29 119.19 205.9 118.44 205.29 117.77 204.81 117.52 
M 204.89 127.6 205.34 127.35 205.92 126.7 206.29 125.98 206.29 125.53 205.92 124.8 205.34 124.16 204.89 123.91 
M 205.1 130.37 204.49 129.93 
M 204.06 152.79 204.45 152.5 204.96 151.78 205.29 150.77 
M 210.58 98.83 212.13 98.28 212.69 97.84 212.69 97.56 212.13 97.12 210.58 96.57 
M 208.87 102.45 210.38 101.84 210.93 101.35 210.93 101.05 210.38 100.56 208.87 99.95 
M 207.56 106.83 209 106.13 209.52 105.56 209.52 105.21 209 104.64 207.56 103.94 
M 206.94 112.21 207.54 111.98 208.32 111.4 208.82 110.74 208.82 110.33 208.32 109.67 207.54 109.08 206.94 108.85 
M 206.92 118.34 207.5 118.09 208.25 117.45 208.74 116.73 208.74 116.28 208.25 115.56 207.5 114.92 206.92 114.67 
M 206.99 124.6 207.55 124.34 208.26 123.7 208.72 122.98 208.72 122.53 208.26 121.8 207.55 121.16 206.99 120.91 
M 207.06 130.42 207.93 129.71 208.37 129.01 208.37 128.57 207.93 127.87 207.25 127.25 206.72 127 
M 214.04 97.75 215.33 97.22 215.8 96.8 215.8 96.53 215.33 96.11 214.04 95.58 
M 212.2 101.04 213.49 100.48 213.96 100.02 213.96 99.74 213.49 99.28 212.2 98.72 
M 210.5 104.85 211.76 104.22 212.22 103.7 212.22 103.39 211.76 102.87 210.5 102.24 
M 209.37 109.6 209.9 109.39 210.58 108.86 211.02 108.25 211.02 107.87 210.58 107.27 209.9 106.73 209.37 106.52 
M 209.2 121.71 209.68 121.46 210.3 120.82 210.7 120.09 210.7 119.64 210.3 118.92 209.68 118.28 209.2 118.02 
M 209.04 127.75 209.5 127.51 210.08 126.89 210.46 126.18 210.46 125.75 210.08 125.04 209.5 124.42 209.04 124.18 
M 207.68 152.41 208.29 151.82 
M 208.67 166.22 209.04 165.94 209.52 165.24 209.83 164.44 209.83 163.95 209.52 163.15 209.04 162.45 208.67 162.17 
M 217.33 96.71 218.86 96.19 219.42 95.77 219.42 95.5 218.86 95.08 217.33 94.56 
M 215.68 100 217.24 99.46 217.81 99.01 217.81 98.74 217.24 98.29 215.68 97.75 
M 213.91 103.55 215.47 102.95 216.04 102.47 216.04 102.17 215.47 101.69 213.91 101.09 
M 212.44 107.74 213.95 107.07 214.49 106.51 214.49 106.17 213.95 105.62 212.44 104.94 
M 211.43 118.86 212.04 118.62 212.81 118.01 213.31 117.31 213.31 116.87 212.81 116.18 212.04 115.56 211.43 115.32 
M 220.53 95.58 221.78 95.06 222.23 94.63 222.23 94.37 221.78 93.95 221.02 93.56 
M 219.11 98.92 220.42 98.39 220.89 97.95 220.89 97.68 220.42 97.25 219.11 96.72 
M 217.36 102.29 218.69 101.73 219.17 101.27 219.17 100.99 218.69 100.53 217.36 99.97 
M 215.59 106 216.9 105.38 217.38 104.88 217.38 104.57 216.9 104.06 215.59 103.44 
M 213.65 122.16 214.15 121.92 214.8 121.31 215.21 120.61 215.21 120.18 214.8 119.48 214.15 118.86 213.65 118.62 
M 213.24 127.94 213.72 127.71 214.32 127.11 214.71 126.43 214.71 126.02 214.32 125.34 213.72 124.74 213.24 124.51 
M 213.14 130.6 212.41 130.06 
M 212.12 165.7 212.49 165.43 212.97 164.73 213.28 163.94 213.28 163.44 212.97 162.65 212.49 161.95 212.12 161.68 
M 223.45 94.35 224.91 93.83 225.44 93.4 225.44 93.14 225.08 92.85 
M 222.36 97.85 223.9 97.31 224.46 96.88 224.46 96.61 223.9 96.17 222.36 95.64 
M 220.84 101.27 222.43 100.71 223.01 100.27 223.01 99.99 222.43 99.54 220.84 98.99 
M 219.09 104.8 220.68 104.21 221.26 103.73 221.26 103.43 220.68 102.95 219.09 102.37 
M 216.51 113.83 217.17 113.62 218.01 113.07 218.56 112.45 218.56 112.07 218.01 111.44 217.17 110.9 216.51 110.68 
M 215.74 125.35 216.34 125.11 217.12 124.52 217.62 123.85 217.62 123.43 217.12 122.76 216.34 122.16 215.74 121.93 
M 215.34 130.66 216.25 130.01 216.71 129.36 216.71 128.96 216.25 128.3 215.53 127.73 214.97 127.5 
M 226.25 93.01 227.49 92.43 
M 225.52 96.69 226.77 96.15 227.23 95.71 227.23 95.43 226.77 94.99 225.52 94.45 
M 224.29 100.21 225.61 99.67 226.09 99.22 226.09 98.95 225.61 98.51 224.29 97.96 
M 222.62 103.64 223.96 103.07 224.45 102.62 224.45 102.33 223.96 101.87 222.62 101.31 
M 220.79 107.26 222.11 106.65 222.59 106.15 222.59 105.85 222.11 105.35 220.79 104.74 
M 219.32 111.62 220.61 110.92 221.07 110.34 221.07 109.99 220.61 109.42 219.32 108.71 
M 218.36 122.89 218.89 122.65 219.57 122.06 220.01 121.38 220.01 120.96 219.57 120.29 218.89 119.69 218.36 119.46 
M 217.71 128.4 218.21 128.17 218.86 127.6 219.28 126.96 219.28 126.56 218.86 125.92 218.21 125.35 217.71 125.12 
M 217.16 130.71 216.51 130.31 
M 228.29 95.32 229.72 94.77 230.24 94.32 230.24 94.04 229.72 93.6 228.29 93.05 
M 227.43 99.03 228.94 98.48 229.49 98.03 229.49 97.75 228.94 97.3 227.43 96.75 
M 226.05 102.57 227.62 102.01 228.19 101.56 228.19 101.28 227.62 100.82 226.05 100.27 
M 224.3 106.09 225.89 105.5 226.46 105.03 226.46 104.73 225.89 104.26 224.3 103.67 
M 222.62 110.04 224.18 109.39 224.75 108.86 224.75 108.53 224.18 107.99 222.62 107.34 
M 221.52 114.89 222.19 114.68 223.05 114.15 223.6 113.54 223.6 113.16 223.05 112.55 222.19 112.01 221.52 111.8 
M 221 120.48 221.65 120.25 222.49 119.67 223.03 119.01 223.03 118.6 222.49 117.95 221.65 117.36 221 117.14 
M 220.44 126.05 221.07 125.83 221.88 125.26 222.4 124.61 222.4 124.21 221.88 123.56 221.07 122.99 220.44 122.77 
M 220.15 130.8 221.16 129.79 221.16 129.41 220.68 128.79 219.93 128.25 219.35 128.03 
M 216.89 161.37 217.34 161.1 217.9 160.39 218.27 159.59 218.27 159.09 217.9 158.29 217.34 157.58 216.89 157.3 
M 230.93 93.83 232.07 93.27 232.48 92.81 232.48 92.53 231.75 91.87 
M 230.45 97.75 231.65 97.19 232.09 96.72 232.09 96.44 231.65 95.98 230.45 95.41 
M 229.44 101.48 230.72 100.92 231.18 100.46 231.18 100.18 230.72 99.73 229.44 99.17 
M 227.85 104.95 229.16 104.39 229.63 103.93 229.63 103.65 229.16 103.19 227.85 102.62 
M 225.96 108.51 227.27 107.9 227.74 107.41 227.74 107.11 227.27 106.62 225.96 106.01 
M 223.68 118.12 224.24 117.9 224.95 117.33 225.41 116.69 225.41 116.29 224.95 115.65 224.24 115.08 223.68 114.86 
M 223.27 123.84 223.82 123.61 224.52 123.03 224.98 122.37 224.98 121.96 224.52 121.3 223.82 120.72 223.27 120.5 
M 222.42 129.1 222.94 128.89 223.61 128.34 224.04 127.73 224.04 127.35 223.61 126.73 222.94 126.19 222.42 125.98 
M 219.36 171.39 219.74 171.1 220.23 170.37 220.55 169.53 220.55 169.02 220.23 168.18 219.74 167.45 219.36 167.16 
M 233.19 92.1 234.5 91.52 
M 232.94 96.11 234.29 95.53 234.78 95.06 234.78 94.77 234.29 94.29 232.94 93.71 
M 232.33 100.06 233.76 99.48 234.28 99.02 234.28 98.72 233.76 98.26 232.33 97.68 
M 229.43 107.3 230.97 106.72 231.52 106.24 231.52 105.94 230.97 105.47 229.43 104.88 
M 227.71 111.2 229.24 110.55 229.79 110.02 229.79 109.7 229.24 109.17 227.71 108.52 
M 226.55 115.99 227.22 115.79 228.07 115.25 228.62 114.65 228.62 114.28 228.07 113.67 227.22 113.14 226.55 112.93 
M 225.97 121.5 226.63 121.28 227.47 120.71 228.01 120.06 228.01 119.66 227.47 119.01 226.63 118.44 225.97 118.22 
M 225.28 126.92 225.92 126.7 226.74 126.15 227.27 125.52 227.27 125.13 226.74 124.5 225.92 123.95 225.28 123.73 
M 225.24 130.94 225.72 130.37 225.72 130.01 225.23 129.42 224.46 128.9 223.86 128.7 
M 219.95 154 220.41 153.73 221.23 152.55 
M 235.32 94.34 236.36 93.75 236.74 93.27 236.74 92.97 236.36 92.49 235.32 91.9 
M 235.08 98.52 236.18 97.92 236.58 97.43 236.58 97.13 236.18 96.64 235.08 96.04 
M 234.34 102.5 235.53 101.92 235.96 101.44 235.96 101.15 235.53 100.68 234.34 100.1 
M 232.9 106.1 234.14 105.53 234.59 105.06 234.59 104.78 234.14 104.31 232.9 103.74 
M 231.02 109.64 232.28 109.04 232.73 108.55 232.73 108.25 232.28 107.76 231.02 107.15 
M 228.69 119.2 229.23 118.98 229.94 118.41 230.39 117.77 230.39 117.38 229.94 116.74 229.23 116.17 228.69 115.95 
M 228.23 124.84 228.77 124.62 229.46 124.05 229.91 123.4 229.91 123 229.46 122.35 228.77 121.78 228.23 121.56 
M 227.21 129.9 228.4 129.18 228.83 128.59 228.83 128.22 228.4 127.63 227.21 126.9 
M 237.34 92.35 238.54 91.77 238.97 91.3 238.97 91.02 
M 237.26 96.55 238.51 95.94 238.96 95.45 238.96 95.14 238.51 94.65 237.26 94.04 
M 236.9 100.77 238.23 100.16 238.71 99.67 238.71 99.36 238.23 98.87 236.9 98.27 
M 235.95 104.68 237.35 104.1 237.86 103.62 237.86 103.33 237.35 102.85 235.95 102.26 
M 234.37 108.33 235.82 107.73 236.35 107.25 236.35 106.96 235.82 106.48 234.37 105.88 
M 232.66 112.23 234.13 111.59 234.67 111.06 234.67 110.73 234.13 110.2 232.66 109.56 
M 230.88 122.47 231.52 122.25 232.33 121.68 232.86 121.04 232.86 120.65 232.33 120.01 231.52 119.44 230.88 119.22 
M 230.17 131.09 230.26 130.63 229.77 130.06 228.41 129.37 
M 239.34 94.46 240.31 93.85 240.66 93.35 240.66 93.05 240.31 92.55 239.34 91.94 
M 239.32 98.89 240.33 98.26 240.7 97.74 240.7 97.42 240.33 96.91 239.32 96.27 
M 235.88 110.59 237.07 109.98 237.51 109.49 237.51 109.18 237.07 108.69 235.88 108.08 
M 234.31 114.83 235.51 114.14 235.95 113.57 235.95 113.22 235.51 112.66 234.31 111.97 
M 233.55 120.13 234.07 119.91 234.74 119.35 235.17 118.71 235.17 118.32 234.74 117.68 234.07 117.12 233.55 116.9 
M 233.05 125.72 233.57 125.5 234.23 124.93 234.66 124.29 234.66 123.9 234.23 123.26 233.57 122.69 233.05 122.47 
M 241.23 92.31 242.37 91.73 242.78 91.25 242.78 90.96 242.52 90.65 
M 241.27 96.67 242.44 96.04 242.87 95.52 242.87 95.2 242.44 94.69 241.27 94.05 
M 241.15 101.14 242.39 100.51 242.83 99.99 242.83 99.67 242.39 99.15 241.15 98.51 
M 240.46 105.31 241.77 104.7 242.25 104.2 242.25 103.9 241.77 103.4 240.46 102.79 
M 239.05 109.11 240.44 108.51 240.94 108.02 240.94 107.71 240.44 107.22 239.05 106.62 
M 237.42 113.07 238.83 112.42 239.35 111.89 239.35 111.56 238.83 111.03 237.42 110.38 
M 236.26 117.84 236.87 117.63 237.67 117.1 238.18 116.5 238.18 116.13 237.67 115.53 236.87 115 236.26 114.8 
M 235.6 123.25 236.21 123.04 236.99 122.47 237.5 121.84 237.5 121.45 236.99 120.81 236.21 120.25 235.6 120.03 
M 234.7 131.22 234.22 130.62 232.89 129.94 
M 227.35 159.95 227.86 159.67 228.5 158.97 228.92 158.18 228.92 157.69 228.5 156.89 227.86 156.19 227.35 155.92 
M 243.14 94.35 244.08 93.72 244.42 93.21 244.42 92.9 244.08 92.39 243.14 91.76 
M 242.16 107.57 243.26 106.96 243.65 106.47 243.65 106.17 243.26 105.68 242.16 105.08 
M 240.51 111.31 241.66 110.69 242.08 110.19 242.08 109.88 241.66 109.39 240.51 108.77 
M 238.98 115.57 240.14 114.88 240.57 114.31 240.57 113.97 240.14 113.4 238.98 112.71 
M 238.18 120.82 238.69 120.61 239.33 120.05 239.74 119.42 239.74 119.02 239.33 118.39 238.69 117.83 238.18 117.62 
M 237.62 126.35 238.12 126.13 238.74 125.57 239.15 124.94 239.15 124.55 238.74 123.91 238.12 123.36 237.62 123.14 
M 236.4 131.19 237.5 130.49 237.89 129.92 237.89 129.56 237.5 128.99 236.4 128.29 
M 229.18 156.55 229.63 156.28 230.2 155.61 230.56 154.84 230.41 154.04 
M 244.99 92.14 246.11 91.55 246.52 91.07 246.52 90.77 246.27 90.47 
M 245.12 96.62 246.27 95.96 246.68 95.43 246.68 95.1 246.27 94.57 245.12 93.92 
M 245.19 101.3 246.38 100.63 246.81 100.09 246.81 99.75 246.38 99.21 245.19 98.54 
M 244.74 105.71 245.99 105.07 246.45 104.55 246.45 104.23 245.99 103.72 244.74 103.08 
M 243.55 109.71 244.89 109.09 245.37 108.59 245.37 108.28 244.89 107.78 243.55 107.16 
M 240.86 118.5 241.47 118.3 242.24 117.77 242.74 117.18 242.74 116.81 242.24 116.22 241.47 115.69 240.86 115.49 
M 239.18 128.96 239.75 128.76 240.48 128.23 240.95 127.63 240.95 127.26 240.48 126.66 239.75 126.13 239.18 125.92 
M 238.8 131.33 237.85 130.59 237.28 130.4 
M 246.9 94.18 247.84 93.55 248.18 93.03 248.18 92.71 247.84 92.19 246.9 91.55 
M 247.16 98.96 248.12 98.27 248.47 97.71 248.47 97.36 248.12 96.8 247.16 96.11 
M 247.19 103.72 248.19 103.05 248.55 102.5 248.55 102.16 248.19 101.62 247.19 100.95 
M 246.48 108.01 247.55 107.38 247.93 106.87 247.93 106.56 247.55 106.05 246.48 105.42 
M 245.06 111.95 246.19 111.32 246.6 110.81 246.6 110.5 246.19 109.99 245.06 109.37 
M 241.04 131.4 241.74 130.84 242.12 130.27 242.12 129.92 241.74 129.35 240.69 128.65 
M 233.56 163.43 234.05 163.16 234.67 162.46 235.07 161.66 235.07 161.17 234.67 160.37 234.05 159.67 233.56 159.39 
M 234.28 170.65 234.74 170.35 235.33 169.57 235.71 168.68 235.71 168.13 235.33 167.25 234.74 166.46 234.28 166.16 
M 248.74 91.96 249.87 91.36 250.27 90.87 250.27 90.57 250.08 90.34 
M 248.95 96.53 250.09 95.86 250.5 95.31 250.5 94.98 250.09 94.43 248.95 93.76 
M 249.14 101.35 250.31 100.66 250.73 100.1 250.73 99.75 250.31 99.19 249.14 98.5 
M 248.89 105.98 250.12 105.31 250.56 104.77 250.56 104.44 250.12 103.9 248.89 103.24 
M 243.45 129.27 244.7 128.55 245.16 127.95 245.16 127.59 244.7 127 243.45 126.27 
M 242.87 131.45 241.6 130.77 
M 250.7 94.06 251.65 93.41 251.99 92.88 251.99 92.56 251.65 92.03 250.7 91.38 
M 251.03 98.91 251.99 98.21 252.34 97.64 252.34 97.28 251.99 96.71 251.03 96.01 
M 251.18 103.81 252.16 103.12 252.52 102.55 252.52 102.2 252.16 101.64 251.18 100.94 
M 250.71 108.36 251.75 107.71 252.13 107.17 252.13 106.84 251.75 106.31 250.71 105.65 
M 248.17 116.89 249.31 116.2 249.73 115.65 249.73 115.3 249.31 114.74 248.17 114.06 
M 247.16 121.86 248.26 121.12 248.66 120.52 248.66 120.14 248.26 119.54 247.16 118.8 
M 246.26 127.04 247.31 126.3 247.69 125.69 247.69 125.32 247.31 124.71 246.26 123.97 
M 245.32 131.52 245.85 131.05 246.22 130.47 246.22 130.12 245.85 129.55 244.83 128.84 
M 252.52 91.81 253.64 91.2 254.05 90.7 254.05 90.4 253.83 90.12 
M 252.79 96.45 253.94 95.77 254.35 95.22 254.35 94.87 253.94 94.32 252.79 93.64 
M 253.06 101.36 254.22 100.66 254.65 100.08 254.65 99.73 254.22 99.15 253.06 98.45 
M 252.97 106.16 254.18 105.48 254.61 104.92 254.61 104.57 254.18 104.01 252.97 103.33 
M 249.9 119.63 251.24 118.93 251.72 118.35 251.72 117.99 251.24 117.42 249.9 116.71 
M 248.86 124.62 249.42 124.41 250.15 123.88 250.61 123.29 250.61 122.92 250.15 122.32 249.42 121.79 248.86 121.59 
M 247.61 129.49 248.85 128.76 249.3 128.18 249.3 127.81 248.85 127.23 247.61 126.51 
M 246.84 131.56 245.89 131.08 
M 254.54 93.97 255.48 93.31 255.83 92.77 255.83 92.44 255.48 91.9 254.54 91.24 
M 255.13 103.86 256.1 103.15 256.46 102.57 256.46 102.21 256.1 101.62 255.13 100.91 
M 254.86 108.62 255.88 107.94 256.25 107.39 256.25 107.04 255.88 106.49 254.86 105.8 
M 253.97 113.07 255.05 112.4 255.44 111.87 255.44 111.53 255.05 110.99 253.97 110.33 
M 252.7 117.48 253.82 116.8 254.22 116.24 254.22 115.89 253.82 115.34 252.7 114.65 
M 251.57 122.3 252.66 121.58 253.06 120.99 253.06 120.63 252.66 120.04 251.57 119.32 
M 250.45 127.26 251.49 126.53 251.87 125.94 251.87 125.58 251.49 124.98 250.45 124.26 
M 249.41 131.64 250.28 130.6 250.28 130.25 249.91 129.67 248.9 128.95 
M 256.29 91.66 257.4 91.04 257.8 90.53 257.8 90.21 257.54 89.88 
M 256.64 96.37 257.77 95.68 258.18 95.12 258.18 94.77 257.77 94.2 256.64 93.51 
M 256.96 101.35 258.12 100.63 258.54 100.05 258.54 99.68 258.12 99.1 256.96 98.38 
M 256.99 106.29 258.19 105.58 258.62 105.01 258.62 104.65 258.19 104.07 256.99 103.37 
M 256.51 110.99 257.76 110.31 258.21 109.75 258.21 109.41 257.76 108.85 256.51 108.17 
M 255.51 115.5 256.82 114.82 257.29 114.27 257.29 113.93 256.82 113.37 255.51 112.69 
M 254.33 120.12 255.65 119.42 256.13 118.85 256.13 118.5 255.65 117.92 254.33 117.22 
M 253.15 124.94 254.44 124.23 254.9 123.64 254.9 123.28 254.44 122.7 253.15 121.98 
M 251.75 129.68 252.99 128.96 253.44 128.38 253.44 128.02 252.99 127.43 251.75 126.72 
M 245.42 162.13 246.02 161.88 246.79 161.23 247.29 160.5 247.29 160.05 246.79 159.32 246.02 158.67 245.42 158.42 
M 258.34 93.85 259.26 93.17 259.6 92.63 259.6 92.29 259.26 91.74 258.34 91.07 
M 258.77 98.8 259.72 98.08 260.06 97.49 260.06 97.13 259.72 96.54 258.77 95.82 
M 259.05 103.88 260.02 103.15 260.37 102.55 260.37 102.18 260.02 101.59 259.05 100.86 
M 258.94 108.81 259.94 108.1 260.31 107.53 260.31 107.17 259.94 106.6 258.94 105.89 
M 255.94 122.72 257.03 122.01 257.42 121.43 257.42 121.07 257.03 120.49 255.94 119.78 
M 254.66 127.5 255.72 126.79 256.1 126.21 256.1 125.85 255.72 125.27 254.66 124.56 
M 253.56 131.76 254.39 130.76 254.39 130.4 254.02 129.81 252.99 129.09 
M 247.68 165.61 248.16 165.36 248.77 164.71 249.16 163.98 249.16 163.53 248.77 162.8 248.16 162.15 247.68 161.9 
M 259.97 91.43 261.07 90.79 261.46 90.27 261.31 89.74 
M 260.42 96.24 261.54 95.53 261.95 94.96 261.95 94.6 261.54 94.03 260.42 93.32 
M 260.83 101.3 261.98 100.57 262.39 99.97 262.39 99.6 261.98 99 260.83 98.27 
M 260.98 106.37 262.15 105.64 262.58 105.05 262.58 104.68 262.15 104.09 260.98 103.36 
M 259.82 115.9 261.1 115.21 261.56 114.64 261.56 114.29 261.1 113.73 259.82 113.04 
M 258.7 120.55 260 119.85 260.47 119.28 260.47 118.93 260 118.36 258.7 117.66 
M 257.46 125.29 258.74 124.58 259.2 124.01 259.2 123.65 258.74 123.07 257.46 122.37 
M 255.94 129.92 257.19 129.21 257.64 128.63 257.64 128.27 257.19 127.69 255.94 126.98 
M 254.86 131.79 254.34 131.59 
M 262.02 93.62 262.93 92.93 263.27 92.37 263.27 92.02 262.93 91.46 262.02 90.77 
M 262.56 98.68 263.5 97.94 263.84 97.34 263.84 96.97 263.5 96.37 262.56 95.63 
M 262.95 103.86 263.91 103.12 264.26 102.51 264.26 102.13 263.91 101.52 262.95 100.77 
M 262.96 108.93 263.96 108.21 264.32 107.61 264.32 107.25 263.96 106.66 262.96 105.93 
M 261.45 118.39 262.52 117.69 262.91 117.12 262.91 116.77 262.52 116.2 261.45 115.51 
M 260.29 123.12 261.36 122.42 261.75 121.84 261.75 121.48 261.36 120.91 260.29 120.2 
M 258.94 127.83 259.99 127.13 260.37 126.55 260.37 126.2 259.99 125.63 258.94 124.92 
M 257.88 131.88 258.57 131.01 258.57 130.65 258.2 130.06 257.18 129.35 
M 263.6 91.14 264.69 90.48 265.09 89.94 265.09 89.64 
M 264.15 96.05 265.27 95.33 265.67 94.74 265.67 94.37 265.27 93.79 264.15 93.06 
M 264.66 101.22 265.8 100.47 266.22 99.86 266.22 99.48 265.8 98.87 264.66 98.12 
M 264.92 106.41 266.09 105.66 266.51 105.05 266.51 104.68 266.09 104.07 264.92 103.32 
M 264.74 111.43 265.95 110.71 266.39 110.12 266.39 109.75 265.95 109.16 264.74 108.44 
M 264.06 116.23 265.33 115.53 265.79 114.95 265.79 114.6 265.33 114.02 264.06 113.32 
M 263.02 120.94 264.3 120.23 264.76 119.66 264.76 119.31 264.3 118.74 263.02 118.03 
M 261.72 125.6 262.97 124.9 263.42 124.33 263.42 123.98 262.97 123.41 261.72 122.71 
M 260.09 130.12 261.29 129.41 261.72 128.84 261.72 128.49 261.29 127.91 260.09 127.21 
M 265.68 93.37 266.61 92.66 266.95 92.08 266.95 91.73 266.61 91.15 265.68 90.45 
M 266.33 98.53 267.27 97.78 267.61 97.16 267.61 96.78 267.27 96.17 266.33 95.41 
M 266.81 103.81 267.77 103.05 268.11 102.43 268.11 102.04 267.77 101.42 266.81 100.66 
M 266.95 109.02 267.94 108.28 268.29 107.67 268.29 107.29 267.94 106.68 266.95 105.93 
M 266.61 114.01 267.64 113.29 268.01 112.71 268.01 112.34 267.64 111.76 266.61 111.03 
M 265.76 118.78 266.83 118.07 267.22 117.5 267.22 117.14 266.83 116.57 265.76 115.87 
M 264.57 123.45 265.63 122.75 266.01 122.18 266.01 121.83 265.63 121.26 264.57 120.56 
M 263.07 127.99 264.06 127.3 264.41 126.74 264.41 126.39 264.06 125.83 263.07 125.14 
M 261.75 131.99 262.47 131.06 262.47 130.7 262.12 130.13 261.18 129.43 
M 267.29 90.91 268.42 90.24 268.83 89.69 268.83 89.38 
M 267.92 95.89 269.05 95.16 269.47 94.56 269.47 94.19 269.05 93.59 267.92 92.86 
M 268.49 101.13 268.99 100.91 269.64 100.36 270.05 99.74 270.05 99.36 269.64 98.74 268.99 98.19 268.49 97.98 
M 268.83 106.41 269.34 106.2 269.99 105.65 270.41 105.03 270.41 104.64 269.99 104.02 269.34 103.47 268.83 103.25 
M 268.8 111.6 269.33 111.39 270.01 110.85 270.44 110.24 270.44 109.87 270.01 109.26 269.33 108.72 268.8 108.51 
M 268.3 116.57 269.57 115.85 270.02 115.26 270.02 114.9 269.57 114.31 268.3 113.59 
M 267.3 121.27 268.57 120.58 269.03 120.01 269.03 119.66 268.57 119.09 267.3 118.39 
M 265.83 125.73 267.03 125.05 267.46 124.49 267.46 124.15 267.03 123.59 265.83 122.91 
M 263.98 130.02 265.1 129.33 265.51 128.77 265.51 128.43 265.1 127.87 263.98 127.18 
M 262.94 132.02 262.12 131.53 
M 269.49 93.23 270.45 92.52 270.8 91.94 270.8 91.58 270.45 91 269.49 90.28 
M 270.16 98.43 271.13 97.67 271.47 97.05 271.47 96.67 271.13 96.05 270.16 95.29 
M 270.66 103.73 271.62 102.96 271.96 102.33 271.96 101.94 271.62 101.31 270.66 100.54 
M 270.9 109.07 271.87 108.3 272.22 107.67 272.22 107.28 271.87 106.66 270.9 105.89 
M 270.76 114.28 271.78 113.54 272.15 112.93 272.15 112.55 271.78 111.94 270.76 111.2 
M 270.1 119.19 271.17 118.48 271.56 117.91 271.56 117.55 271.17 116.97 270.1 116.26 
M 268.77 123.67 269.81 122.99 270.19 122.44 270.19 122.1 269.81 121.55 268.77 120.88 
M 266.89 127.81 267.82 127.14 268.15 126.6 268.15 126.27 267.82 125.72 266.89 125.06 
M 264.78 131.95 265.66 131.26 265.97 130.7 265.97 130.35 265.66 129.79 264.78 129.1 
M 259.47 152.73 260.31 151.84 260.62 151.12 260.62 150.68 260.31 149.95 259.47 149.07 
M 259.45 159.27 259.86 159.01 260.39 158.33 260.73 157.56 260.73 157.08 260.39 156.32 259.86 155.64 259.45 155.38 
M 259.43 171.65 259.87 171.41 260.42 170.81 260.78 170.13 260.78 169.71 260.42 169.04 259.87 168.44 259.43 168.2 
M 271.15 90.83 272.33 90.15 272.75 89.61 272.59 89.06 
M 271.79 95.82 272.96 95.09 273.39 94.49 273.39 94.12 272.96 93.52 271.79 92.79 
M 272.36 101.05 272.87 100.84 273.52 100.29 273.94 99.67 273.94 99.28 273.52 98.66 272.87 98.11 272.36 97.9 
M 272.72 106.37 273.22 106.16 273.87 105.6 274.29 104.97 274.29 104.58 273.87 103.95 273.22 103.39 272.72 103.17 
M 272.51 116.87 273.75 116.13 274.2 115.53 274.2 115.16 273.75 114.56 272.51 113.83 
M 271.54 121.56 272.79 120.87 273.25 120.31 273.25 119.96 272.79 119.4 271.54 118.71 
M 269.78 125.7 270.96 125.04 271.38 124.5 271.38 124.17 270.96 123.63 269.78 122.97 
M 267.61 129.66 268.69 128.99 269.08 128.45 269.08 128.11 268.69 127.57 267.61 126.9 
M 273.43 93.23 274.43 92.52 274.79 91.94 274.79 91.58 274.43 91 273.43 90.29 
M 274.09 98.39 275.07 97.64 275.42 97.03 275.42 96.65 275.07 96.04 274.09 95.29 
M 274.52 103.65 275.49 102.88 275.84 102.25 275.84 101.86 275.49 101.23 274.52 100.46 
M 274.79 109.04 275.75 108.26 276.1 107.62 276.1 107.22 275.75 106.59 274.79 105.8 
M 274.83 114.46 275.82 113.69 276.18 113.06 276.18 112.67 275.82 112.04 274.83 111.26 
M 274.37 119.54 275.42 118.83 275.8 118.24 275.8 117.88 275.42 117.3 274.37 116.58 
M 272.92 123.83 273.94 123.17 274.31 122.64 274.31 122.31 273.94 121.78 272.92 121.12 
M 270.56 127.49 271.48 126.84 271.82 126.32 271.82 125.99 271.48 125.47 270.56 124.82 
M 268.21 131.4 269.09 130.73 269.41 130.18 269.41 129.84 269.09 129.29 268.21 128.61 
M 262.78 152.19 263.64 151.25 263.95 150.48 263.95 150.01 263.64 149.24 262.87 148.37 
M 263.46 171.72 263.9 171.49 264.46 170.89 264.82 170.22 264.82 169.8 264.46 169.13 263.9 168.53 263.46 168.3 
M 275.17 90.89 276.38 90.22 276.82 89.68 276.82 89.34 276.46 88.9 
M 276.28 101.01 276.79 100.8 277.45 100.25 277.88 99.64 277.88 99.26 277.45 98.64 276.79 98.1 276.28 97.89 
M 276.6 106.31 277.11 106.1 277.76 105.54 278.18 104.91 278.18 104.51 277.76 103.88 277.11 103.32 276.6 103.11 
M 276.63 117.08 277.16 116.87 277.84 116.32 278.28 115.71 278.28 115.33 277.84 114.72 277.16 114.18 276.63 113.97 
M 275.71 121.78 276.94 121.1 277.39 120.54 277.39 120.19 276.94 119.63 275.71 118.95 
M 273.7 125.64 274.88 125 275.31 124.47 275.31 124.14 274.88 123.62 273.7 122.97 
M 271.22 129.29 272.33 128.64 272.73 128.1 272.73 127.77 272.33 127.24 271.22 126.58 
M 270.44 132.24 270.49 131.82 270.1 131.25 269.01 130.56 
M 264.86 155.64 265.35 155.36 265.98 154.64 266.38 153.83 266.38 153.33 265.98 152.53 265.35 151.81 264.86 151.53 
M 265.61 168.88 266.14 168.64 266.81 168 267.25 167.29 267.25 166.84 266.81 166.12 266.14 165.49 265.61 165.24 
M 277.5 93.34 278.51 92.63 278.88 92.06 278.88 91.71 278.51 91.13 277.5 90.43 
M 278.08 98.42 279.08 97.68 279.44 97.08 279.44 96.7 279.08 96.1 278.08 95.36 
M 278.43 103.59 279.4 102.83 279.76 102.21 279.76 101.82 279.4 101.2 278.43 100.44 
M 278.66 108.98 279.62 108.19 279.97 107.55 279.97 107.15 279.62 106.51 278.66 105.72 
M 278.79 114.53 279.77 113.73 280.12 113.08 280.12 112.68 279.77 112.04 278.79 111.24 
M 278.52 119.78 279.54 119.05 279.91 118.46 279.91 118.09 279.54 117.5 278.52 116.77 
M 277.03 123.98 278.05 123.33 278.41 122.81 278.41 122.48 278.05 121.96 277.03 121.31 
M 271.8 131.02 272.74 130.35 273.08 129.8 273.08 129.47 272.74 128.92 271.8 128.25 
M 266.29 151.84 266.69 151.56 267.21 150.85 267.55 150.05 267.55 149.55 266.82 148.22 
M 267.5 171.8 268.5 170.98 268.86 170.32 268.86 169.9 268.5 169.24 267.5 168.42 
M 279.29 91.05 280.52 90.39 280.97 89.86 280.97 89.52 280.26 88.8 
M 279.83 95.94 281.04 95.22 281.48 94.64 281.48 94.28 281.04 93.7 279.83 92.98 
M 280.26 101.02 281.45 100.28 281.88 99.67 281.88 99.3 281.45 98.69 280.26 97.95 
M 280.51 106.27 281.02 106.06 281.68 105.5 282.11 104.87 282.11 104.48 281.68 103.86 281.02 103.3 280.51 103.08 
M 280.65 117.18 281.17 116.97 281.84 116.42 282.27 115.79 282.27 115.41 281.84 114.78 281.17 114.23 280.65 114.02 
M 277.69 125.68 278.91 125.04 279.35 124.52 279.35 124.19 278.91 123.67 277.69 123.03 
M 275.05 129.17 276.25 128.52 276.69 127.99 276.69 127.66 276.25 127.13 275.05 126.48 
M 268.7 155.59 269.22 155.3 269.88 154.57 270.31 153.74 270.31 153.22 269.88 152.39 269.22 151.65 268.7 151.36 
M 281.11 88.81 281.18 88.78 
M 281.62 93.5 282.65 92.81 283.02 92.25 283.02 91.9 282.65 91.33 281.62 90.64 
M 282.13 98.49 283.13 97.77 283.49 97.18 283.49 96.81 283.13 96.22 282.13 95.49 
M 282.39 103.59 283.38 102.84 283.74 102.22 283.74 101.85 283.38 101.24 282.39 100.49 
M 282.57 108.94 283.55 108.16 283.9 107.52 283.9 107.12 283.55 106.48 282.57 105.69 
M 282.72 114.53 283.7 113.73 284.05 113.07 284.05 112.67 283.7 112.01 282.72 111.21 
M 278.32 127.33 279.36 126.7 279.74 126.19 279.74 125.87 279.36 125.35 278.32 124.72 
M 283.46 91.26 284.7 90.61 285.15 90.08 285.15 89.76 284.81 89.36 
M 283.92 96.06 285.14 95.36 285.58 94.79 285.58 94.43 285.14 93.86 283.92 93.16 
M 284.27 101.07 285.46 100.33 285.89 99.74 285.89 99.37 285.46 98.77 284.27 98.04 
M 284.47 106.27 284.98 106.06 285.64 105.51 286.07 104.88 286.07 104.5 285.64 103.87 284.98 103.32 284.47 103.11 
M 278.65 132.48 278.82 132.28 278.82 131.93 278.34 131.37 277.01 130.69 
M 272.48 148.7 273.03 148.45 273.74 147.8 274.2 147.06 274.2 146.61 273.99 146.28 
M 285.76 93.67 286.78 92.99 287.16 92.44 287.16 92.1 286.78 91.55 285.76 90.87 
M 286.17 98.57 287.17 97.86 287.53 97.28 287.53 96.92 287.17 96.34 286.17 95.63 
M 286.38 103.62 287.36 102.87 287.72 102.27 287.72 101.89 287.36 101.29 286.38 100.55 
M 286.55 119.97 287.54 119.22 287.9 118.61 287.9 118.23 287.54 117.62 286.55 116.87 
M 285.28 124.38 286.32 123.72 286.7 123.18 286.7 122.85 286.32 122.31 285.28 121.65 
M 282.67 127.76 283.79 127.12 284.19 126.6 284.19 126.28 283.79 125.76 282.67 125.12 
M 274.44 152.08 274.9 151.81 275.5 151.11 275.88 150.31 275.88 149.82 275.5 149.03 274.9 148.33 274.44 148.05 
M 274.43 176.77 275.35 176.02 275.69 175.41 275.69 175.03 275.35 174.42 274.43 173.67 
M 273.6 181.83 274.52 181.07 274.85 180.46 274.85 180.08 274.52 179.46 273.6 178.7 
M 287.61 91.45 288.84 90.82 289.29 90.14 
M 287.99 96.16 289.2 95.47 289.64 94.91 289.64 94.57 289.2 94 287.99 93.32 
M 288.26 101.1 289.45 100.38 289.87 99.79 289.87 99.42 289.45 98.83 288.26 98.11 
M 288.54 111.72 289.05 111.5 289.71 110.92 290.13 110.28 290.13 109.88 289.71 109.23 289.05 108.65 288.54 108.43 
M 288.58 117.27 289.1 117.05 289.76 116.49 290.19 115.85 290.19 115.45 289.76 114.81 289.1 114.25 288.58 114.03 
M 287.99 122.3 289.22 121.58 289.66 121 289.66 120.64 289.22 120.06 287.99 119.34 
M 286.19 126.34 287.52 125.68 287.99 125.15 287.99 124.82 287.52 124.28 286.19 123.63 
M 283.8 130.06 285.19 129.4 285.7 128.87 285.7 128.54 285.19 128 283.8 127.34 
M 276.88 155.79 277.41 155.51 278.09 154.81 278.53 154.01 278.53 153.52 278.09 152.73 277.41 152.02 276.88 151.75 
M 277.38 162.68 277.87 162.41 278.49 161.72 278.9 160.93 278.9 160.45 278.49 159.66 277.87 158.97 277.38 158.7 
M 275.24 184.33 276.33 183.57 276.73 182.95 276.73 182.57 276.33 181.95 275.24 181.19 
M 289.86 93.8 290.87 93.14 291.24 92.6 291.24 92.26 290.87 91.72 289.86 91.06 
M 290.17 98.61 291.16 97.91 291.52 97.33 291.52 96.98 291.16 96.41 290.17 95.71 
M 290.32 103.6 291.29 102.86 291.65 102.26 291.65 101.89 291.29 101.29 290.32 100.56 
M 290.57 114.51 291.54 113.7 291.89 113.04 291.89 112.63 291.54 111.97 290.57 111.15 
M 290.56 120.08 291.56 119.31 291.92 118.68 291.92 118.29 291.56 117.67 290.56 116.89 
M 289.56 124.76 290.63 124.09 291.02 123.53 291.02 123.19 290.63 122.63 289.56 121.95 
M 278.72 152.32 279.19 152.06 279.79 151.4 280.18 150.65 280.18 150.18 279.79 149.44 279.19 148.77 278.72 148.52 
M 278.05 176.45 278.95 175.7 279.27 175.08 279.27 174.7 278.95 174.09 278.05 173.33 
M 291.73 91.61 292.88 91.03 
M 292.03 96.23 293.22 95.55 293.66 95 293.66 94.66 293.22 94.11 292.03 93.43 
M 292.21 101.08 293.39 100.37 293.81 99.79 293.81 99.43 293.39 98.85 292.21 98.14 
M 292.31 106.21 293.47 105.45 293.88 104.84 293.88 104.46 293.47 103.84 292.31 103.09 
M 292.43 111.67 292.93 111.44 293.58 110.87 293.99 110.22 293.99 109.82 293.58 109.16 292.93 108.59 292.43 108.37 
M 292.53 117.31 293.05 117.09 293.7 116.51 294.12 115.86 294.12 115.45 293.7 114.8 293.05 114.22 292.53 114 
M 292.14 122.57 292.68 122.36 293.38 121.83 293.83 121.22 293.83 120.85 293.38 120.25 292.68 119.71 292.14 119.5 
M 290.68 126.93 292.02 126.25 292.51 125.7 292.51 125.36 292.02 124.81 290.68 124.13 
M 282.65 144.22 283.27 144.01 284.07 143.47 284.58 142.87 284.58 142.52 
M 281.32 149.52 281.91 149.29 282.66 148.69 283.15 148.02 283.15 147.6 282.66 146.92 281.91 146.33 281.32 146.09 
M 280.92 155.76 281.45 155.5 282.12 154.84 282.56 154.1 282.56 153.64 282.12 152.89 281.45 152.23 280.92 151.98 
M 293.93 93.9 294.94 93.25 295.3 92.72 295.3 92.39 294.94 91.86 294.38 91.4 
M 294.14 98.6 295.12 97.91 295.48 97.35 295.48 97.01 295.12 96.45 294.14 95.76 
M 294.22 103.53 295.18 102.81 295.53 102.21 295.53 101.85 295.18 101.26 294.22 100.53 
M 294.28 108.8 295.23 108.02 295.57 107.39 295.57 107 295.23 106.36 294.28 105.58 
M 294.44 114.46 295.39 113.63 295.74 112.96 295.74 112.55 295.39 111.88 294.44 111.05 
M 294.56 120.2 295.54 119.4 295.9 118.75 295.9 118.34 295.54 117.69 294.56 116.89 
M 293.89 125.22 294.96 124.51 295.34 123.93 295.34 123.57 294.96 122.99 293.89 122.28 
M 290.97 132.83 291.56 132.17 291.56 131.83 291.12 131.28 289.88 130.6 
M 284.1 146.96 284.62 146.75 285.28 146.2 285.7 145.58 285.7 145.2 285.28 144.58 284.62 144.04 284.1 143.82 
M 283.04 152.55 283.51 152.32 284.11 151.7 284.5 151.01 284.5 150.58 284.11 149.89 283.51 149.27 283.04 149.03 
M 296.03 96.27 297.23 95.6 297.66 95.06 297.66 94.73 297.23 94.19 296.03 93.53 
M 296.13 101.03 297.29 100.33 297.72 99.76 297.72 99.41 297.29 98.84 296.13 98.14 
M 296.16 106.1 297.3 105.35 297.72 104.74 297.72 104.36 297.3 103.75 296.16 103.01 
M 296.26 111.56 296.75 111.33 297.39 110.75 297.8 110.1 297.8 109.7 297.39 109.04 296.75 108.46 296.26 108.24 
M 296.43 117.31 296.94 117.08 297.58 116.49 298 115.82 298 115.4 297.58 114.73 296.94 114.14 296.43 113.91 
M 296.28 122.83 296.81 122.62 297.5 122.06 297.94 121.43 297.94 121.04 297.5 120.4 296.81 119.85 296.28 119.63 
M 293.32 131.78 294.75 131.1 295.27 130.55 295.27 130.2 294.75 129.65 293.32 128.97 
M 287.38 145 288 144.79 288.8 144.27 289.31 143.67 289.31 143.3 288.8 142.71 288.04 142.21 
M 285.83 150.01 286.42 149.79 287.17 149.22 287.66 148.58 287.66 148.19 287.17 147.55 286.42 146.98 285.83 146.76 
M 284.97 155.74 285.5 155.5 286.19 154.89 286.63 154.19 286.63 153.76 286.19 153.06 285.5 152.45 284.97 152.21 
M 297.98 93.98 298.99 93.35 299.31 92.89 
M 298.09 98.57 299.06 97.9 299.42 97.35 299.42 97.01 299.06 96.46 298.09 95.79 
M 298.08 103.42 299.03 102.71 299.38 102.13 299.38 101.76 299.03 101.18 298.08 100.47 
M 298.08 108.64 299.01 107.87 299.35 107.24 299.35 106.84 299.01 106.21 298.08 105.44 
M 298.24 114.33 299.17 113.49 299.5 112.81 299.5 112.39 299.17 111.71 298.24 110.88 
M 298.5 120.26 299.46 119.43 299.81 118.75 299.81 118.33 299.46 117.65 298.5 116.81 
M 298.16 125.65 299.21 124.9 299.59 124.28 299.59 123.9 299.21 123.29 298.16 122.54 
M 296.67 130.08 297.82 129.39 298.23 128.83 298.23 128.48 297.82 127.92 296.67 127.23 
M 290.71 143.09 291.89 142.38 292.32 141.81 292.32 141.45 291.78 140.79 
M 300.03 96.29 301.22 95.64 301.65 95.11 301.65 94.79 301.22 94.26 300.03 93.61 
M 300.03 100.95 301.18 100.27 301.6 99.71 301.6 99.36 301.18 98.8 300.03 98.11 
M 299.97 105.93 301.1 105.2 301.5 104.59 301.5 104.22 301.1 103.62 299.97 102.88 
M 300.01 111.37 300.5 111.14 301.12 110.56 301.52 109.91 301.52 109.5 301.12 108.85 300.5 108.27 300.01 108.04 
M 300.25 117.23 300.75 116.99 301.38 116.39 301.78 115.7 301.78 115.27 301.38 114.58 300.75 113.97 300.25 113.73 
M 300.33 123.03 300.86 122.8 301.53 122.21 301.96 121.55 301.96 121.14 301.53 120.48 300.86 119.9 300.33 119.67 
M 294.04 141.25 295.44 140.55 295.95 139.98 295.95 139.62 294.86 138.68 
M 289.11 155.85 289.66 155.63 290.36 155.04 290.82 154.38 290.82 153.97 290.36 153.31 289.66 152.73 289.11 152.5 
M 302.03 94.06 302.31 93.94 
M 302.03 98.54 303 97.88 303.36 97.34 303.36 97.01 303 96.48 302.03 95.82 
M 301.91 103.28 302.86 102.58 303.2 102.01 303.2 101.65 302.86 101.08 301.91 100.38 
M 301.8 108.4 302.72 107.63 303.06 107.01 303.06 106.63 302.72 106 301.8 105.24 
M 301.94 114.1 302.85 113.26 303.18 112.57 303.18 112.14 302.85 111.45 301.94 110.61 
M 302.34 120.23 302.75 119.99 303.28 119.36 303.62 118.65 303.62 118.22 303.28 117.51 302.75 116.88 302.34 116.64 
M 301.18 130.72 302.29 130 302.69 129.42 302.69 129.06 302.29 128.48 301.18 127.77 
M 295.33 143.78 296.47 143.07 296.88 142.5 296.88 142.15 296.47 141.57 295.33 140.87 
M 291.73 153.2 292.82 152.44 293.21 151.81 293.21 151.42 292.82 150.8 291.73 150.03 
M 304.02 96.3 305.21 95.67 305.64 95.12 
M 303.91 100.85 305.06 100.18 305.48 99.64 305.48 99.3 305.06 98.76 303.91 98.09 
M 303.73 105.72 304.85 104.99 305.25 104.4 305.25 104.04 304.85 103.45 303.73 102.73 
M 303.69 111.09 304.17 110.86 304.78 110.29 305.17 109.63 305.17 109.23 304.78 108.58 304.17 108 303.69 107.77 
M 303.98 117.05 304.46 116.81 305.08 116.18 305.47 115.48 305.47 115.04 305.08 114.33 304.46 113.71 303.98 113.47 
M 304.29 123.11 304.79 122.87 305.45 122.26 305.87 121.57 305.87 121.14 305.45 120.45 304.79 119.84 304.29 119.6 
M 303.85 128.5 304.4 128.28 305.1 127.73 305.56 127.1 305.56 126.71 305.1 126.09 304.4 125.53 303.85 125.32 
M 296.56 146.28 297.91 145.57 298.4 144.99 298.4 144.63 297.91 144.05 296.56 143.34 
M 293.38 156.16 293.95 155.94 294.67 155.36 295.14 154.72 295.14 154.31 294.67 153.67 293.95 153.09 293.38 152.87 
M 305.73 103.11 306.67 102.42 307.02 101.87 307.02 101.53 306.67 100.97 305.73 100.29 
M 305.47 108.09 306.38 107.34 306.71 106.73 306.71 106.35 306.38 105.74 305.47 104.99 
M 305.55 113.77 306.44 112.92 306.76 112.23 306.76 111.8 306.44 111.11 305.55 110.25 
M 306.09 120.1 306.49 119.85 307.01 119.2 307.34 118.46 307.34 118 307.01 117.27 306.49 116.62 306.09 116.36 
M 306.38 126.15 306.82 125.92 307.37 125.32 307.73 124.64 307.73 124.22 307.37 123.54 306.82 122.94 306.38 122.71 
M 305.51 131.15 306.57 130.42 306.95 129.82 306.95 129.45 306.57 128.85 305.51 128.11 
M 299.79 144.3 300.91 143.6 301.31 143.03 301.31 142.67 300.91 142.1 299.79 141.4 
M 308.01 96.32 308.52 96.15 
M 307.78 100.75 308.94 100.1 309.36 99.56 309.36 99.24 308.94 98.71 307.78 98.05 
M 307.46 105.46 308.57 104.75 308.97 104.18 308.97 103.82 308.57 103.25 307.46 102.54 
M 307.3 110.73 307.77 110.51 308.37 109.93 308.76 109.29 308.76 108.88 308.37 108.24 307.77 107.66 307.3 107.44 
M 307.61 116.77 308.08 116.52 308.69 115.89 309.08 115.16 309.08 114.72 308.69 114 308.08 113.36 307.61 113.11 
M 308.14 123.09 308.64 122.85 309.28 122.21 309.69 121.49 309.69 121.04 309.28 120.32 308.64 119.68 308.14 119.43 
M 305.02 138 306.3 137.29 306.77 136.72 306.77 136.37 306.3 135.8 305.02 135.1 
M 301.04 146.82 302.39 146.11 302.87 145.53 302.87 145.17 302.39 144.59 301.04 143.88 
M 296.92 162.25 297.48 162.01 298.19 161.4 298.65 160.72 298.65 160.29 298.19 159.61 297.48 159 296.92 158.77 
M 296.56 168.21 297.12 167.97 297.83 167.36 298.3 166.66 298.3 166.23 297.83 165.54 297.12 164.92 296.56 164.68 
M 309.91 98.47 310.89 97.84 311.24 97.12 
M 309.53 102.92 310.48 102.26 310.82 101.72 310.82 101.39 310.48 100.85 309.53 100.2 
M 309.09 107.71 309.99 106.99 310.32 106.39 310.32 106.02 309.99 105.43 309.09 104.7 
M 309.75 119.88 310.14 119.62 310.65 118.94 310.98 118.18 310.98 117.7 310.65 116.94 310.14 116.26 309.75 116 
M 310.34 126.25 310.77 126 311.32 125.38 311.67 124.67 311.67 124.23 311.32 123.52 310.77 122.89 310.34 122.65 
M 306.22 140.4 307.29 139.7 307.68 139.12 307.68 138.77 307.29 138.2 306.22 137.49 
M 299.32 159.44 299.78 159.21 300.38 158.63 300.77 157.96 300.77 157.55 300.38 156.89 299.78 156.31 299.32 156.08 
M 298.8 165.39 299.26 165.15 299.85 164.53 300.23 163.82 300.23 163.38 299.85 162.68 299.26 162.06 298.8 161.82 
M 311.66 100.64 312.82 100.01 313.23 99.49 313.23 99.17 312.82 98.66 311.66 98.02 
M 311.17 105.17 312.28 104.49 312.68 103.94 312.68 103.59 312.28 103.03 311.17 102.35 
M 310.86 110.32 311.93 109.53 312.32 108.89 312.32 108.5 311.93 107.86 310.86 107.07 
M 311.19 116.43 311.66 116.18 312.26 115.53 312.64 114.79 312.64 114.33 312.26 113.6 311.66 112.95 311.19 112.69 
M 311.93 123.01 312.42 122.75 313.05 122.09 313.46 121.34 313.46 120.87 313.05 120.12 312.42 119.46 311.93 119.2 
M 310.93 133.77 312.15 133.04 312.59 132.44 312.59 132.07 312.15 131.47 310.93 130.74 
M 305.55 147.41 306.9 146.7 307.38 146.12 307.38 145.75 306.9 145.17 305.55 144.45 
M 301.16 162.54 301.71 162.31 302.42 161.7 302.87 161.02 302.87 160.6 302.42 159.92 301.71 159.32 301.16 159.09 
M 313.86 98.44 314.49 98.11 
M 313.34 102.73 314.29 102.1 314.64 101.58 314.64 101.26 314.29 100.74 313.34 100.1 
M 312.71 107.33 313.61 106.62 313.94 106.05 313.94 105.69 313.61 105.11 312.71 104.41 
M 312.56 112.89 313.44 112.03 313.76 111.34 313.76 110.91 313.44 110.21 312.56 109.35 
M 313.37 119.62 313.76 119.35 314.27 118.65 314.6 117.85 314.6 117.36 314.27 116.57 313.76 115.87 313.37 115.6 
M 314.25 126.29 314.68 126.03 315.22 125.38 315.57 124.64 315.57 124.19 315.22 123.45 314.68 122.8 314.25 122.55 
M 313.75 131.57 314.75 130.81 315.12 130.19 315.12 129.8 314.75 129.18 313.75 128.42 
M 304.99 154.59 306.08 153.86 306.48 153.26 306.48 152.89 306.08 152.29 304.99 151.56 
M 303.56 159.71 304.61 158.92 304.99 158.27 304.99 157.87 304.61 157.22 303.56 156.42 
M 302.97 165.62 303.41 165.37 303.99 164.75 304.36 164.04 304.36 163.61 303.99 162.9 303.41 162.28 302.97 162.03 
M 315.55 100.55 316.71 99.93 317.13 99.43 317.13 99.12 316.85 98.79 
M 314.9 104.92 316.02 104.25 316.43 103.71 316.43 103.38 316.02 102.84 314.9 102.18 
M 314.44 109.93 315.53 109.15 315.92 108.52 315.92 108.13 315.53 107.5 314.44 106.72 
M 314.77 116.1 315.24 115.84 315.85 115.18 316.24 114.43 316.24 113.96 315.85 113.21 315.24 112.55 314.77 112.29 
M 315.7 122.9 316.2 122.63 316.83 121.94 317.24 121.17 317.24 120.69 316.83 119.91 316.2 119.23 315.7 118.96 
M 314.97 133.88 316.16 133.14 316.59 132.53 316.59 132.16 316.16 131.56 314.97 130.82 
M 305.32 162.75 305.86 162.52 306.55 161.92 306.99 161.24 306.99 160.83 306.55 160.15 305.86 159.56 305.32 159.32 
M 317.18 102.59 318.14 101.97 318.49 101.47 318.49 101.16 318.14 100.65 317.18 100.03 
M 316.37 107.01 317.3 106.32 317.63 105.76 317.63 105.41 317.3 104.85 316.37 104.16 
M 316.12 112.49 317.02 111.64 317.35 110.94 317.35 110.51 317.02 109.81 316.12 108.95 
M 317.02 119.39 317.43 119.1 317.95 118.38 318.28 117.57 318.28 117.06 317.95 116.25 317.43 115.53 317.02 115.25 
M 318.16 126.3 318.58 126.04 319.12 125.36 319.48 124.61 319.48 124.14 319.12 123.38 318.58 122.71 318.16 122.44 
M 317.75 131.64 318.74 130.87 319.1 130.25 319.1 129.86 318.74 129.23 317.75 128.46 
M 309.34 154.99 310.41 154.27 310.79 153.68 310.79 153.32 310.41 152.73 309.34 152.01 
M 319.45 100.49 320.59 99.9 
M 318.69 104.73 319.84 104.08 320.25 103.55 320.25 103.23 319.84 102.7 318.69 102.05 
M 318.12 109.64 318.61 109.43 319.24 108.87 319.65 108.25 319.65 107.86 319.24 107.23 318.61 106.68 318.12 106.46 
M 318.44 115.84 318.93 115.58 319.56 114.91 319.97 114.15 319.97 113.68 319.56 112.92 318.93 112.25 318.44 111.99 
M 319.51 122.81 320.01 122.53 320.66 121.83 321.07 121.04 321.07 120.55 320.66 119.75 320.01 119.05 319.51 118.78 
M 318.95 133.92 320.13 133.17 320.55 132.57 320.55 132.19 320.13 131.59 318.95 130.84 
M 312.46 152.9 313.71 152.18 314.17 151.6 314.17 151.24 313.71 150.65 312.46 149.94 
M 310.6 157.53 311.14 157.32 311.83 156.78 312.27 156.18 312.27 155.8 311.83 155.19 311.14 154.65 310.6 154.44 
M 309.4 162.87 309.93 162.64 310.6 162.05 311.04 161.38 311.04 160.96 310.6 160.29 309.93 159.7 309.4 159.47 
M 321.07 102.51 322.04 101.9 322.39 101.4 322.39 101.1 322.04 100.6 321.53 100.19 
M 320.15 106.82 321.11 106.14 321.46 105.59 321.46 105.25 321.11 104.69 320.15 104.01 
M 319.83 112.25 320.25 112.01 320.78 111.4 321.12 110.7 321.12 110.27 320.78 109.57 320.25 108.95 319.83 108.71 
M 320.79 119.24 321.21 118.96 321.75 118.22 322.1 117.39 322.1 116.88 321.75 116.05 321.21 115.32 320.79 115.03 
M 322.07 126.3 322.5 126.03 323.04 125.35 323.4 124.58 323.4 124.1 323.04 123.33 322.5 122.65 322.07 122.38 
M 321.72 131.67 322.7 130.9 323.06 130.27 323.06 129.88 322.7 129.25 321.72 128.48 
M 320.13 136.19 321.11 135.47 321.47 134.88 321.47 134.52 321.11 133.93 320.13 133.21 
M 311.79 160.01 312.79 159.24 313.15 158.61 313.15 158.22 312.79 157.59 311.79 156.82 
M 311.04 165.82 311.48 165.57 312.04 164.95 312.4 164.24 312.4 163.8 312.04 163.09 311.48 162.47 311.04 162.22 
M 321.97 109.54 322.49 109.32 323.16 108.77 323.59 108.15 323.59 107.76 323.16 107.14 322.49 106.58 321.97 106.37 
M 322.28 115.75 322.8 115.49 323.47 114.81 323.9 114.05 323.9 113.58 323.47 112.81 322.8 112.14 322.28 111.87 
M 323.4 122.77 323.92 122.49 324.58 121.79 325 120.99 325 120.49 324.58 119.69 323.92 118.98 323.4 118.71 
M 322.91 133.94 324.1 133.19 324.53 132.59 324.53 132.21 324.1 131.6 322.91 130.85 
M 321.35 138.64 322.56 137.9 322.99 137.3 322.99 136.93 322.56 136.33 321.35 135.6 
M 313.42 162.94 313.96 162.71 314.65 162.12 315.09 161.46 315.09 161.04 314.65 160.37 313.96 159.78 313.42 159.55 
M 313.19 175.33 313.72 175.08 314.41 174.44 314.85 173.72 314.85 173.27 314.41 172.54 313.72 171.91 313.19 171.66 
M 325.02 102.52 325.47 102.35 326.22 101.66 
M 324.11 106.83 325.13 106.15 325.5 105.6 325.5 105.26 325.13 104.7 324.11 104.03 
M 323.78 112.26 324.23 112.02 324.81 111.4 325.18 110.71 325.18 110.27 324.81 109.58 324.23 108.96 323.78 108.72 
M 324.74 119.24 325.18 118.95 325.75 118.22 326.11 117.39 326.11 116.88 325.75 116.05 325.18 115.32 324.74 115.03 
M 326.01 126.3 326.44 126.03 326.99 125.35 327.34 124.58 327.34 124.1 326.99 123.32 326.44 122.64 326.01 122.38 
M 325.68 131.69 326.67 130.91 327.03 130.28 327.03 129.89 326.67 129.26 325.68 128.49 
M 324.1 136.22 325.12 135.5 325.49 134.91 325.49 134.55 325.12 133.96 324.1 133.24 
M 326.68 104.83 327.93 104.18 328.38 103.65 328.38 103.32 327.93 102.79 326.68 102.15 
M 326.1 109.73 326.66 109.52 327.38 108.97 327.84 108.34 327.84 107.95 327.38 107.33 326.66 106.78 326.1 106.56 
M 326.39 115.89 326.95 115.63 327.66 114.97 328.12 114.21 328.12 113.75 327.66 112.99 326.95 112.32 326.39 112.06 
M 327.41 122.81 327.94 122.54 328.62 121.84 329.06 121.05 329.06 120.56 328.62 119.77 327.94 119.07 327.41 118.8 
M 327.84 129.02 328.36 128.78 329.03 128.16 329.46 127.46 329.46 127.02 329.03 126.32 328.36 125.7 327.84 125.46 
M 326.96 134.07 327.5 133.86 328.19 133.31 328.63 132.7 328.63 132.32 328.19 131.7 327.5 131.16 326.96 130.95 
M 325.47 138.82 326.02 138.61 326.73 138.08 327.18 137.48 327.18 137.11 326.73 136.5 326.02 135.97 325.47 135.77 
M 317.63 163.21 318.2 162.98 318.94 162.39 319.42 161.72 319.42 161.31 318.94 160.64 318.2 160.05 317.63 159.82 
M 329.18 102.77 329.38 102.69 
M 328.39 107.2 329.49 106.51 329.88 105.95 329.88 105.6 329.49 105.04 328.39 104.35 
M 328.12 112.65 328.61 112.41 329.23 111.8 329.64 111.11 329.64 110.68 329.23 109.99 328.61 109.38 328.12 109.14 
M 328.93 119.43 329.4 119.16 330 118.45 330.38 117.64 330.38 117.15 330 116.34 329.4 115.64 328.93 115.36 
M 329.97 126.28 330.4 126.02 330.95 125.35 331.3 124.58 331.3 124.11 330.95 123.35 330.4 122.68 329.97 122.42 
M 328.33 136.54 329.41 135.81 329.8 135.21 329.8 134.84 329.41 134.24 328.33 133.51 
M 326.84 141.42 327.93 140.67 328.33 140.06 328.33 139.68 327.93 139.07 326.84 138.32 
M 330.98 105.23 332.27 104.56 332.74 104.02 332.74 103.82 
M 330.52 110.23 331.11 110.01 331.86 109.46 332.34 108.83 332.34 108.44 331.86 107.81 331.11 107.26 330.52 107.04 
M 330.76 116.27 331.33 116.02 332.07 115.37 332.55 114.64 332.55 114.18 332.07 113.45 331.33 112.8 330.76 112.55 
M 331.53 122.93 332.07 122.66 332.76 121.99 333.21 121.22 333.21 120.74 332.76 119.98 332.07 119.3 331.53 119.03 
M 329.8 139.23 330.37 139.02 331.11 138.49 331.58 137.88 331.58 137.5 331.11 136.9 330.37 136.36 329.8 136.15 
M 328.38 144.19 328.95 143.98 329.69 143.44 330.16 142.83 330.16 142.46 329.69 141.85 328.95 141.31 328.38 141.1 
M 325.02 153.67 325.6 153.47 326.34 152.95 326.81 152.35 326.81 151.99 326.34 151.4 325.6 150.87 325.02 150.67 
M 322.21 163.87 322.82 163.64 323.62 163.05 324.13 162.38 324.13 161.96 323.62 161.29 322.82 160.7 322.21 160.47 
M 332.87 107.79 333.99 107.08 334.39 106.5 334.39 106.15 333.99 105.57 332.87 104.86 
M 332.69 113.27 333.19 113.03 333.83 112.43 334.25 111.75 334.25 111.33 333.83 110.65 333.19 110.05 332.69 109.81 
M 333.28 119.74 333.75 119.48 334.36 118.8 334.75 118.04 334.75 117.57 334.36 116.81 333.75 116.13 333.28 115.87 
M 333.93 126.26 334.37 126 334.92 125.35 335.28 124.6 335.28 124.14 334.92 123.4 334.37 122.75 333.93 122.49 
M 333.8 132.01 334.81 131.2 335.17 130.53 335.17 130.12 334.81 129.46 333.8 128.65 
M 332.72 137.03 333.8 136.28 334.2 135.66 334.2 135.28 333.8 134.67 332.72 133.92 
M 331.31 141.94 332.42 141.19 332.82 140.59 332.82 140.21 332.42 139.6 331.31 138.85 
M 329.87 146.91 330.96 146.17 331.36 145.56 331.36 145.19 330.96 144.59 329.87 143.84 
M 335.34 105.7 336.45 105.13 
M 335.03 110.81 335.62 110.6 336.37 110.04 336.85 109.41 336.85 109.02 336.37 108.39 335.62 107.83 335.03 107.61 
M 335.2 116.72 335.78 116.48 336.51 115.85 336.99 115.14 336.99 114.7 336.51 113.99 335.78 113.36 335.2 113.12 
M 335.68 123.07 336.22 122.81 336.91 122.16 337.36 121.42 337.36 120.96 336.91 120.23 336.22 119.57 335.68 119.32 
M 335.35 134.67 335.89 134.44 336.59 133.87 337.04 133.22 337.04 132.82 336.59 132.17 335.89 131.6 335.35 131.38 
M 334.2 139.72 334.77 139.51 335.5 138.97 335.97 138.35 335.97 137.97 335.5 137.35 334.77 136.81 334.2 136.59 
M 332.8 144.67 333.37 144.46 334.1 143.92 334.58 143.32 334.58 142.94 334.1 142.33 333.37 141.8 332.8 141.59 
M 331.21 149.49 331.78 149.29 332.51 148.76 332.98 148.16 332.98 147.79 332.51 147.19 331.78 146.66 331.21 146.45 
M 337.32 108.35 338.41 107.62 338.81 107.03 338.81 106.66 338.02 105.73 
M 337.23 113.85 337.72 113.62 338.34 113.03 338.74 112.36 338.74 111.94 338.34 111.27 337.72 110.68 337.23 110.45 
M 337.04 137.47 338.09 136.69 338.48 136.06 338.48 135.67 338.09 135.03 337.04 134.26 
M 335.75 142.46 336.83 141.71 337.22 141.09 337.22 140.72 336.83 140.1 335.75 139.35 
M 334.26 147.36 335.34 146.62 335.73 146.02 335.73 145.65 335.34 145.05 334.26 144.31 
M 339.43 111.29 340 111.07 340.72 110.51 341.19 109.88 341.19 109.49 340.72 108.85 340 108.29 339.43 108.07 
M 339.54 117.08 340.1 116.84 340.81 116.23 341.27 115.54 341.27 115.11 340.81 114.42 340.1 113.81 339.54 113.57 
M 339.79 123.18 340.32 122.94 341.01 122.3 341.45 121.59 341.45 121.14 341.01 120.43 340.32 119.79 339.79 119.55 
M 339.47 134.88 339.99 134.65 340.67 134.06 341.11 133.4 341.11 132.99 340.67 132.33 339.99 131.75 339.47 131.52 
M 338.49 140.1 339.03 139.88 339.73 139.33 340.18 138.7 340.18 138.31 339.73 137.69 339.03 137.13 338.49 136.92 
M 341.6 108.73 342.06 108.52 342.89 107.6 
M 341.57 114.24 342.03 114.01 342.62 113.42 343.01 112.76 343.01 112.35 342.62 111.68 342.03 111.09 341.57 110.87 
M 341.81 132.2 342.23 131.96 342.78 131.35 343.13 130.66 343.13 130.24 342.78 129.55 342.23 128.94 341.81 128.7 
M 341.17 137.69 342.17 136.9 342.53 136.25 342.53 135.85 342.17 135.21 341.17 134.41 
M 335.27 157.41 336.33 156.64 336.71 156.01 336.71 155.62 336.33 154.99 335.27 154.22 
M 333.63 168.67 334.1 168.44 334.7 167.84 335.08 167.16 335.08 166.74 334.7 166.07 334.1 165.47 333.63 165.23 
M 343.65 111.58 344.19 111.36 344.89 110.8 345.33 110.16 345.33 109.76 344.89 109.13 344.19 108.57 343.65 108.35 
M 343.72 117.29 344.25 117.05 344.94 116.45 345.39 115.77 345.39 115.35 344.94 114.67 344.25 114.07 343.72 113.84 
M 343.83 123.24 344.35 123 345.02 122.38 345.45 121.68 345.45 121.24 345.02 120.54 344.35 119.92 343.83 119.68 
M 342.54 140.23 343.05 140.01 343.7 139.45 344.13 138.81 344.13 138.42 343.7 137.79 343.05 137.23 342.54 137.01 
M 341.24 145.26 341.77 145.05 342.44 144.51 342.87 143.89 342.87 143.51 342.44 142.9 341.77 142.36 341.24 142.15 
M 345.72 108.92 345.83 108.86 
M 345.71 114.43 346.73 113.62 347.09 112.96 347.09 112.55 346.73 111.89 345.71 111.08 
M 345.82 120.28 346.25 120.04 346.81 119.43 347.17 118.74 347.17 118.31 346.81 117.62 346.25 117.01 345.82 116.77 
M 340.9 152.59 341.9 151.84 342.26 151.24 342.26 150.86 341.9 150.26 340.9 149.51 
M 339.38 157.57 340.37 156.8 340.73 156.17 340.73 155.79 340.37 155.16 339.38 154.39 
M 347.73 111.72 348.26 111.5 348.94 110.94 349.33 110.36 
M 347.77 117.38 348.29 117.15 348.96 116.55 349.39 115.88 349.39 115.46 348.96 114.79 348.29 114.2 347.77 113.97 
M 347.78 123.22 348.29 122.98 348.94 122.37 349.36 121.68 349.36 121.26 348.94 120.57 348.29 119.96 347.78 119.72 
M 346.32 140.07 346.8 139.85 347.41 139.28 347.8 138.65 347.8 138.25 347.41 137.61 346.8 137.05 346.32 136.83 
M 342.11 155.07 342.62 154.85 343.28 154.31 343.71 153.7 343.71 153.32 343.28 152.71 342.62 152.16 342.11 151.95 
M 349.76 114.53 350.76 113.72 351.11 113.06 351.11 112.66 350.76 112 349.76 111.2 
M 349.78 120.27 350.75 119.44 351.1 118.76 351.1 118.34 350.75 117.66 349.78 116.82 
M 349.7 126.1 350.64 125.26 350.98 124.57 350.98 124.15 350.64 123.46 349.7 122.62 
M 344.88 152.62 345.86 151.87 346.21 151.27 346.21 150.89 345.86 150.29 344.88 149.54 
M 343.27 157.48 344.22 156.73 344.56 156.12 344.56 155.74 344.22 155.12 343.27 154.37 
M 351.74 111.78 352.19 111.59 
M 351.72 117.37 352.24 117.14 352.89 116.55 353.31 115.89 353.31 115.48 352.89 114.82 352.24 114.23 351.72 114.01 
M 351.63 123.08 352.12 122.85 352.75 122.25 353.16 121.58 353.16 121.16 352.75 120.49 352.12 119.89 351.63 119.66 
M 351.36 128.79 351.83 128.56 352.44 127.96 352.83 127.3 352.83 126.88 352.44 126.21 351.83 125.62 351.36 125.39 
M 349.83 139.65 350.86 138.85 351.23 138.21 351.23 137.81 350.86 137.16 349.83 136.37 
M 345.99 154.98 347.14 154.24 347.55 153.63 347.55 153.26 347.14 152.65 345.99 151.91 
M 344.41 159.86 345.49 159.1 345.88 158.49 345.88 158.11 345.49 157.49 344.41 156.73 
M 353.72 114.53 354.7 113.73 355.05 112.83 
M 353.63 120.14 354.58 119.32 354.92 118.66 354.92 118.25 354.58 117.58 353.63 116.77 
M 352.92 131.36 353.77 130.56 354.08 129.91 354.08 129.51 353.77 128.86 352.92 128.06 
M 352 136.65 352.82 135.86 353.11 135.22 353.11 134.82 352.82 134.18 352 133.39 
M 348.8 152.6 349.76 151.85 350.11 151.24 350.11 150.87 349.76 150.26 348.8 149.51 
M 347.02 157.23 347.95 156.51 348.28 155.91 348.28 155.55 347.95 154.95 347.02 154.22 
M 345.36 162.04 346.21 161.29 346.51 160.67 346.51 160.29 346.21 159.68 345.36 158.92 
M 355.58 117.25 356.08 117.02 356.72 116.45 357.14 115.8 357.14 115.4 356.72 114.75 356.08 114.18 355.58 113.95 
M 355.34 122.79 355.82 122.57 356.44 121.99 356.84 121.34 356.84 120.93 356.44 120.28 355.82 119.7 355.34 119.47 
M 354.87 128.28 355.91 127.49 356.28 126.84 356.28 126.44 355.91 125.8 354.87 125 
M 353.14 139.02 354.13 138.22 354.49 137.56 354.49 137.15 354.13 136.49 353.14 135.69 
M 352.36 144.65 352.82 144.42 353.42 143.84 353.8 143.17 353.8 142.76 353.42 142.1 352.82 141.51 352.36 141.28 
M 357.59 114.42 358.06 114.15 
M 356.2 130.63 357.03 129.86 357.34 129.23 357.34 128.84 357.03 128.22 356.2 127.44 
M 354.38 141.53 355.22 140.69 355.52 140 355.52 139.58 355.22 138.89 354.38 138.05 
M 353.84 147.39 354.76 146.57 355.09 145.9 355.09 145.49 354.76 144.82 353.84 143.99 
M 352.66 152.52 353.61 151.77 353.96 151.16 353.96 150.78 353.61 150.18 352.66 149.43 
M 359.37 117.05 359.87 116.83 360.5 116.27 360.91 115.45 
M 358.28 127.68 359.32 126.91 359.69 126.29 359.69 125.9 359.32 125.28 358.28 124.51 
M 357.27 132.85 358.27 132.07 358.64 131.44 358.64 131.05 358.27 130.41 357.27 129.63 
M 353.55 154.61 354.67 153.89 355.08 153.3 355.08 152.93 354.67 152.34 353.55 151.62 
M 360.47 124.84 361.36 124.08 361.69 123.47 361.69 123.08 361.36 122.46 360.47 121.7 
M 359.49 129.91 360.34 129.16 360.65 128.55 360.65 128.17 360.34 127.56 359.49 126.81 
M 358.29 135.04 359.13 134.24 359.43 133.59 359.43 133.19 359.13 132.54 358.29 131.74 
M 354.38 156.61 355.3 155.92 355.64 155.36 355.64 155.01 355.3 154.45 354.38 153.76 
M 363.16 116.86 363.58 116.68 
M 362.64 122.1 363.75 121.34 364.15 120.72 364.15 120.34 363.75 119.72 362.64 118.96 
M 361.77 127.19 362.85 126.44 363.24 125.83 363.24 125.45 362.85 124.84 361.77 124.09 
M 360.64 132.24 361.69 131.47 362.07 130.84 362.07 130.45 361.69 129.82 360.64 129.05 
M 359.77 137.8 360.23 137.57 360.82 136.96 361.2 136.28 361.2 135.85 360.82 135.17 360.23 134.56 359.77 134.33 
M 364.87 119.41 365.81 118.65 366.15 117.88 
M 364.12 124.52 365.05 123.77 365.39 123.17 365.39 122.79 365.05 122.18 364.12 121.44 
M 363.01 129.47 363.93 128.73 364.26 128.12 364.26 127.75 363.93 127.15 363.01 126.41 
M 361.76 134.55 362.66 133.75 362.99 133.1 362.99 132.7 362.66 132.05 361.76 131.25 
M 366.41 121.91 367.55 121.15 367.96 120.54 367.96 120.16 367.55 119.55 366.41 118.8 
M 365.48 126.93 366.61 126.19 367.02 125.58 367.02 125.21 366.61 124.6 365.48 123.86 
M 364.3 131.94 364.79 131.73 365.43 131.18 365.84 130.55 365.84 130.16 365.43 129.54 364.79 128.98 364.3 128.77 
M 363.4 137.48 363.89 137.25 364.52 136.65 364.92 135.96 364.92 135.54 364.52 134.86 363.89 134.26 363.4 134.02 
M 360.96 154.12 362.03 153.4 362.41 152.81 362.41 152.44 362.03 151.85 360.96 151.13 
M 368.71 119.3 368.88 119.22 
M 367.94 124.39 368.9 123.65 369.25 123.04 369.25 122.66 368.9 122.06 367.94 121.32 
M 366.83 129.34 367.8 128.6 368.15 128 368.15 127.62 367.8 127.02 366.83 126.28 
M 364.99 140.34 365.4 140.1 365.92 139.47 366.26 138.76 366.26 138.33 365.92 137.62 365.4 136.99 364.99 136.75 
M 364.73 146.49 365.58 145.63 365.89 144.94 365.89 144.51 365.58 143.82 364.73 142.96 
M 370.28 121.83 370.79 121.62 371.75 120.62 
M 369.37 126.88 370.54 126.13 370.96 125.53 370.96 125.15 370.54 124.54 369.37 123.8 
M 368.23 131.93 368.75 131.71 369.42 131.16 369.85 130.54 369.85 130.15 369.42 129.53 368.75 128.98 368.23 128.76 
M 367.25 137.34 367.76 137.11 368.42 136.52 368.84 135.86 368.84 135.45 368.42 134.79 367.76 134.2 367.25 133.97 
M 366.62 143.15 367.09 142.91 367.69 142.31 368.07 141.63 368.07 141.21 367.69 140.53 367.09 139.93 366.62 139.69 
M 364.37 153.6 365.37 152.86 365.73 152.26 365.73 151.88 365.37 151.28 364.37 150.54 
M 371.86 124.38 372.83 123.63 373.19 123.01 373.19 122.64 372.83 122.02 371.86 121.27 
M 370.84 129.42 371.84 128.67 372.2 128.06 372.2 127.68 371.84 127.07 370.84 126.32 
M 369.66 134.53 370.69 133.75 371.06 133.12 371.06 132.72 370.69 132.09 369.66 131.31 
M 368.77 140.06 369.71 139.24 370.05 138.58 370.05 138.17 369.71 137.5 368.77 136.69 
M 368 145.7 368.82 144.89 369.12 144.24 369.12 143.83 368.82 143.17 368 142.37 
M 366.8 150.87 367.58 150.11 367.87 149.49 367.87 149.1 367.58 148.48 366.8 147.72 
M 365.18 155.65 366.03 154.91 366.34 154.31 366.34 153.94 366.03 153.34 365.18 152.6 
M 373.35 126.94 373.79 126.76 
M 373.79 123.99 373.35 123.81 
M 371.22 137.29 371.74 137.07 372.41 136.51 372.84 135.88 372.84 135.49 372.41 134.85 371.74 134.29 371.22 134.07 
M 372.6 139.83 373.02 139.62 373.79 138.67 
M 373.79 137.85 373.02 136.91 372.6 136.7 
M 372.95 149.14 373.79 148.4 
M 373.79 146.64 372.95 145.9 
M 241.96 89.76 282.77 30 283.46 30.45 244.98 90.52 
M 254.19 89.3 280.52 44.33 281.24 44.73 257.21 89.91 
M 266.42 88.85 281.86 57.72 282.61 58.06 269.42 89.33 
M 278.72 88.15 288.67 70.47 289.41 70.84 281.64 88.83 
M 290.92 90.07 296.45 83.29 297.15 83.73 293.62 91.21 
M 303.01 93.85 304.27 94.63 
M 279.55 36.54 278.14 39.13 277.21 41.78 277.04 44.54 277.21 45.95 277.89 48.82 
M 278.79 49.33 278.09 52.02 277.87 54.65 278.4 57.18 278.94 58.41 280.32 60.83 
M 281.26 61.26 281.78 64.23 282.72 66.96 284.31 69.3 285.34 70.33 287.68 72.24 
M 288.6 72.7 289.34 75.78 289.84 77.23 291.3 79.84 293.39 82.04 295.9 83.97 
M 296.77 84.52 297.48 87.32 298.6 89.83 300.32 91.9 301.4 92.78 303.82 94.35 
M 278.81 37.83 277.59 40.44 277.21 41.78 277.04 44.54 277.52 47.38 
M 275.37 43.95 274.29 46.26 273.96 47.44 273.8 49.88 274.23 52.39 
M 271.93 50.07 271 52.08 270.71 53.1 270.57 55.22 270.94 57.4 
M 268.5 56.19 267.7 57.89 267.34 59.65 267.65 62.4 
M 265.06 62.32 264.2 64.42 264.11 65.89 264.37 67.41 
M 261.62 68.44 260.95 70.08 260.88 71.23 261.08 72.42 
M 278.4 50.68 277.89 53.35 277.87 54.65 278.4 57.18 279.59 59.63 
M 275.47 57.51 275.05 59.72 275.03 60.79 275.47 62.88 276.45 64.9 
M 272.53 64.35 272.18 66.93 272.53 68.58 273.3 70.17 
M 269.59 71.19 269.35 72.46 269.42 73.68 270.16 75.44 
M 281.49 62.77 282.17 65.64 282.72 66.96 284.31 69.3 286.48 71.3 
M 278.83 72 279.28 73.86 280.1 75.51 282.08 77.55 
M 288.94 74.26 289.84 77.23 290.49 78.58 292.28 80.98 294.62 83.02 
M 191.53 128.51 324.29 132.8 324.27 133.62 190.95 131.42 
M 190.87 131.83 302.67 142.1 302.6 142.91 190.26 134.72 
M 190.19 135.06 280.87 148.91 280.75 149.72 189.77 137.98 
M 190.05 138.32 259.11 153.25 258.95 154.05 189.68 141.25 
M 190.13 141.62 237.6 155.13 237.39 155.92 189.9 144.6 
M 190.21 144.92 216.55 154.58 216.3 155.36 189.86 147.89 
M 194.18 149.11 196.18 150.27 195.88 151.04 189.56 149.66 
M 310.82 133.4 306.11 134.12 303.82 134.63 299.43 136.15 295.32 138.38 291.39 141.06 
M 291.3 142.09 286.68 142.28 282.19 142.95 277.91 144.34 275.83 145.3 271.78 147.52 
M 271.63 148.55 267.14 148.22 262.73 148.38 258.45 149.29 256.35 150 252.2 151.76 
M 252 152.77 247.69 151.94 243.4 151.6 239.16 152.02 237.05 152.5 232.85 153.77 
M 232.59 154.77 228.51 153.46 224.39 152.65 220.23 152.58 218.13 152.82 213.92 153.61 
M 213.6 154.6 209.86 152.54 207.95 151.67 204 150.44 199.85 149.95 195.59 149.93 
M 308.45 133.73 303.82 134.63 299.43 136.15 297.34 137.19 293.34 139.69 
M 287.68 133.35 283.86 134.09 282.02 134.65 278.52 136.2 275.21 138.27 
M 266.91 132.97 263.9 133.56 262.45 133.99 259.69 135.22 257.09 136.85 
M 246.14 132.59 243.94 133.02 241.85 133.75 238.96 135.42 
M 288.98 142.15 284.41 142.53 280.02 143.55 277.91 144.34 273.8 146.38 
M 265.83 140.45 262.33 140.74 260.62 141.06 257.34 142.13 254.19 143.69 
M 242.68 138.74 240.24 138.95 237.9 139.49 234.58 141 
M 269.38 148.35 264.92 148.22 262.73 148.38 258.45 149.29 254.27 150.85 
M 241.51 144.77 238.62 144.68 237.19 144.79 234.41 145.38 231.69 146.39 
M 249.84 152.32 245.54 151.69 241.28 151.71 239.16 152.02 234.95 153.1 
M 230.55 154.09 226.45 152.97 224.39 152.65 220.23 152.58 216.03 153.18 
M 220.29 187.82 222.93 190.3 227.05 194.71 229.14 196.33 231.16 198.34 232.56 200.81 234.56 203.11 236.56 204.81 237.98 206.74 240.01 208.13 242.85 209.35 244.83 209.93 246.13 211.98 246.88 214.62 251.03 219.17 253.32 220.53 255.58 222.87 256.42 234.95 255.6 237.14 254.59 239.14 253.87 241.43 252.71 243.31 252.83 246.58 252.42 249.32 252.23 252.28 251.34 254.54 247.52 257.01 246.19 259.16 243.87 263.79 242.32 265.71 240.06 267.68 229.12 280 227.68 276.69 226.89 274.37 226.33 264.97 226.32 258.26 226.05 256.21 224.81 253.97 224.13 248.39 223.32 245.95 222.63 240.91 220.62 233.45 219.36 225.65 219.19 222.49 218.75 220.06 217.81 209.99 216.99 207.76 216.45 205.45 216.25 202.75 215.39 200.25 214.73 197.61 213.81 192.38 213.68 189.93 212.66 186.71 
M 218.67 187.58 224.49 194.81 228.22 198.79 229.29 201.05 230.77 202.98 234.11 207.98 238.39 210.86 240.01 212.63 242.89 217.26 244.12 219.93 
M 217.05 187.35 221.6 195.1 224.85 199.84 226.25 201.53 230.37 208.65 232.08 210.98 233.83 212.2 235.55 214.2 237.21 216.46 
M 215.42 187.11 216.87 190.11 217.86 192.92 221.44 200.35 222.96 204.27 224.3 206.22 225.29 209.01 226.9 212.25 227.84 215.47 229.3 217.05 230.57 218.75 231.93 223.6 234.91 228.25 236.78 230.87 
M 213.8 186.88 214.96 189.93 216.44 195.22 218.45 201 218.98 202.91 219.23 204.87 220.05 207.46 221.5 210.17 222.85 211.82 223.64 214.59 224.18 217.58 225.25 219.56 225.3 221.52 226.66 227.54 226.6 230.97 
M 350.99 165.06 356.99 171.29 356.47 171.92 349.14 167.35 
M 340.12 170.76 356.88 186.69 356.34 187.31 338.19 172.99 
M 328.87 175.65 349.75 197.4 349.18 197.99 326.82 177.76 
M 317.38 179.97 338.25 203.3 337.66 203.87 315.25 182.01 
M 305.8 183.94 321.22 204.9 320.58 205.42 303.49 185.79 
M 293.73 186.09 303.62 202.19 302.94 202.65 291.31 187.77 
M 281.69 188.32 291.16 206.96 290.45 207.37 279.13 189.79 
M 267.43 188.25 270.06 196.49 269.32 196.83 264.75 189.49 
M 355.74 171.47 354.57 174.45 354.14 175.95 353.83 178.98 354.27 182.03 355.2 185.1 
M 354.52 185.88 352.15 187.33 350.17 189.08 348.8 191.27 348.34 192.53 347.66 195.23 
M 346.94 195.97 344.1 196.12 341.47 196.73 339.16 198.01 338.12 198.9 336.16 200.97 
M 335.42 201.68 331.85 200.88 328.31 200.57 324.82 201.02 323.1 201.51 319.68 202.81 
M 318.87 203.45 315.45 201.78 311.93 200.59 308.29 200.14 306.42 200.18 302.63 200.58 
M 301.78 201.17 298.87 201.04 296.12 201.38 293.61 202.44 292.44 203.23 290.21 205.1 
M 289.32 205.61 285.46 202.46 283.46 201.03 279.21 198.65 274.62 196.94 269.8 195.66 
M 355.12 172.96 354.14 175.95 353.83 178.98 353.96 180.5 354.7 183.56 
M 353.31 186.59 351.09 188.15 350.17 189.08 348.8 191.27 347.97 193.86 
M 346.38 182.28 344.34 183.9 343.45 185.33 342.91 187.01 
M 345.51 196.02 342.75 196.35 341.47 196.73 339.16 198.01 337.13 199.9 
M 340.04 192.01 337.93 192.26 336.95 192.55 335.17 193.54 333.62 194.99 
M 334.58 188 333.11 188.18 331.78 188.68 330.1 190.08 
M 333.63 201.25 330.07 200.64 326.56 200.7 324.82 201.02 321.39 202.12 
M 328.23 196.97 325.5 196.51 324.15 196.46 321.48 196.8 318.84 197.64 
M 322.83 192.7 319.99 192.34 318.13 192.57 316.3 193.17 
M 317.16 202.58 313.7 201.1 311.93 200.59 308.29 200.14 304.53 200.34 
M 310.66 196.74 308.41 195.78 306.09 195.24 302.45 195.29 
M 300.32 201.07 297.47 201.13 296.12 201.38 293.61 202.44 291.32 204.13 
M 295.47 196.49 292.74 196.7 291.11 197.39 289.62 198.48 
M 287.4 204.01 283.46 201.03 279.21 198.65 276.95 197.71 272.22 196.27 
M 372.97 121.22 375.63 120.73 378.16 119.72 380.51 118.45 383.03 117.79 385.73 116.7 389.26 113.77 393.79 111.64 398.99 105.85 403.78 104.08 405.34 103.2 407.81 102.91 410.11 101.56 410.86 101.29 413.88 98.95 415.63 96.38 418.75 94.7 421.48 94.98 424.23 94.88 426.99 92.69 426.15 97.44 425.07 101.87 424.27 104.23 422.92 106.03 421.99 108.27 421.88 111.05 421.54 113.57 421.66 116.41 421.3 121.49 420.93 123.91 420.03 125.86 419.52 128.18 419.21 130.7 419.45 133.76 420.38 139.05 418.97 140.69 418.57 142.84 418.38 145.1 418.5 147.61 419.21 150.33 420.25 152.97 422.29 160.6 422.72 162.88 422.59 164.6 423.74 167.6 424.4 170.61 423.28 174.91 425.32 182.66 426.88 187.13 428.02 192.12 426.77 191.98 420.45 188.15 419.09 185.55 417.31 184.56 415.39 182.93 412.3 181.32 411.07 180.29 408.23 179.08 405.99 177.88 404.95 176.18 401 172.76 397.98 171.4 391.19 167.6 388.96 166.99 386.29 165.76 383.9 164.31 378.56 159.03 372.97 154.68 
M 372.97 122.9 375.76 122.64 378.25 121.5 380.81 120.07 382.78 119.25 385.37 118.64 387.93 117.65 389.87 116.03 392.41 114.53 394.74 113.73 397.14 112.28 400.71 109.41 402.53 108.52 406.35 106.26 408.43 105.3 411.56 104.26 
M 378.3 123.29 380.88 121.85 383.43 120.79 387.52 119.85 390.1 118.83 395.22 116.53 398.39 114.86 401.08 113.87 402.91 112.74 406.07 110.34 408.06 109.06 
M 380.99 124.25 383.67 122.9 388.25 121.64 390.47 121.38 396.01 119.61 398.94 117.76 401.92 117.36 
M 376.36 127.97 378.86 127.6 381.3 126.38 386.06 124.84 391.1 124.09 393.87 122.95 399.71 120.95 402.04 119.94 408.5 118.19 410.33 117.26 
M 381.87 128.86 386.54 127.55 388.61 127.61 390.92 127.17 394.05 126.14 397.56 124.63 400.58 123.82 403.3 123.36 405.04 123.46 407.51 123.97 409.74 123.27 412.43 121.88 414.24 121.42 417.32 118.76 419.71 118.19 
M 376.7 131.42 384.84 130.86 394.37 129.54 400.17 128.06 402.62 126.97 405.22 126.73 408.33 127.69 
M 379.74 133.29 382.25 133 385.04 133.09 387.24 132.83 394.2 132.51 397.16 131.57 400.21 130.97 402.13 130.9 
M 372.97 134.61 376.69 135.3 382.11 135.44 392.39 135.39 397.56 134.73 
M 372.97 136.28 376.69 137.16 382.05 137.67 385.02 137.39 387.06 137.76 389.82 137.96 392.66 137.78 394.93 137.94 397.1 137.87 400.39 137.33 
M 382.34 139.68 385.11 140.06 387.17 139.9 395.11 140.75 397.8 140.6 400.39 141.12 402.8 141.82 
M 376.49 140.81 384.88 142.64 387.16 142.77 391.54 143.36 394.74 143.45 396.99 143.71 
M 381.94 144.48 384.75 145.17 387.3 145.58 391.24 146.61 394.26 146.34 
M 372.97 142.97 379.16 145.2 382.11 146.44 386.74 147.86 388.66 148.79 391.25 149 394.2 149.46 
M 382.06 148.48 384.66 149.24 389.1 151.02 391.35 151.52 393.42 151.72 396.27 152.4 
M 372.97 146.32 384.59 151.46 389.24 153.04 391.47 153.75 393.7 154.01 396.38 154.04 398.7 154.82 
M 381.58 152.38 386.86 154.42 389.15 154.84 393.98 156.4 395.8 157.3 400.96 159.06 404.01 159.83 405.96 161.52 407.61 164.06 410.39 165.35 413.38 165.23 416.26 167.6 419.84 168.52 
M 376.25 151.43 378.93 153.09 384.53 155.28 387.12 156.64 393.45 159.57 395.44 160.86 401.56 162.05 404.12 163.4 406.62 167.63 408.51 168.46 412.07 169.6 414.39 170.88 417.01 172.73 
M 381.5 156.38 384 157.73 385.74 159.29 390.4 161.62 392.94 163.59 396.08 163.97 398.72 163.89 401.01 164.98 403.06 166.42 404.09 168.63 405.49 170.62 407.9 171.8 410.54 173.57 413.73 174.84 419.17 177.53 420.82 177.83 422.24 179.13 
M 372.97 153.01 378.53 157.03 381.01 158.49 382.77 160.37 384.82 161.68 386.81 163.42 389.88 164.91 392.42 166.44 394.63 166.91 396.97 168.12 399.8 168.62 402.34 169.68 403.49 171.85 407.04 176.18 408.72 177.09 414.78 179.46 417.85 179.68 419.24 180.86 421.11 182.12 422.89 184.81 
M 96.64 159.29 97.96 156.88 100.4 153.38 104.48 148.97 109.97 144.65 116.07 141.22 122.27 137.41 126.88 132.5 132.03 127.73 138.76 123.69 145.89 120.02 152.46 116.26 159.1 112.79 166.08 109.83 172.47 107.47 183.45 103.8 187.53 102.73 189.76 102.36 192.68 106.43 194.04 110.34 194.24 114.12 192.43 121.45 192.3 125.2 189.95 136.22 189.57 139.94 189.9 143.74 189.92 147.5 188.72 154.89 187.9 158.56 184.76 169.5 182.16 172.93 170.71 172.48 141.88 169.65 126.06 168.37 121.59 167.76 
M 167.31 132.34 166.49 135.45 164.19 141.43 163.34 146.58 162.72 148.87 162.18 152.56 162.09 154.21 163.78 158.49 163.44 160.94 150.46 160.53 134.65 160.62 125.13 160.29 
M 120.38 167.95 107.84 166.06 97.81 164.28 95.8 163.76 94.3 162.35 94.38 160.31 95.91 159.18 97.92 159.47 121.71 167.32 
M 118.11 170.72 117.51 171.19 
M 114.92 173.14 103.18 180.86 96.81 185.41 94.97 186.43 92.99 185.95 92.1 184.19 92.99 182.25 96.63 180.08 112.63 172.27 115.73 170.59 
M 116.44 170.2 119.21 168.57 
M 121.36 167.41 121.4 167.39 
M 140.06 151.45 137.5 147.86 136.24 143.63 136.42 139.22 138.03 135.11 140.88 131.75 144.67 129.49 148.99 128.58 153.37 129.13 157.33 131.07 160.45 134.19 162.39 138.15 162.93 142.53 162.03 146.85 159.77 150.64 156.4 153.49 152.29 155.09 147.88 155.28 143.66 154.02 140.06 151.45 
M 158.27 135.74 159.82 138.92 160.26 142.42 159.53 145.87 157.72 148.91 155.03 151.19 151.74 152.47 148.22 152.62 144.83 151.61 141.96 149.56 
M 145.14 145.15 144.11 143.72 143.61 142.02 143.68 140.26 144.32 138.62 145.46 137.27 146.98 136.37 148.71 136 150.46 136.22 152.04 137 153.29 138.25 154.07 139.83 154.28 141.58 153.92 143.31 153.02 144.83 151.67 145.97 150.03 146.61 148.26 146.68 146.57 146.18 145.14 145.15 
M 145.35 144 147.94 146.58 
M 146.15 142.58 150.13 146.57 
M 146.52 140.74 151.71 145.93 
M 147.28 139.28 152.91 144.92 
M 149.46 139.25 153.77 143.56 
M 150.86 138.44 154.24 141.81 
M 151.58 136.94 153.68 139.05 
M 96.74 159.09 96.99 159.34 
M 98.57 156 103.4 160.83 
M 100.62 153.13 103.8 156.31 
M 102.99 150.58 107.77 155.36 
M 105.5 148.17 109.55 152.23 
M 108.25 146 111.95 149.71 
M 111.15 143.99 115.25 148.09 
M 114.3 142.22 118.7 146.61 
M 117.41 140.4 120.67 143.67 
M 120.45 138.53 124.1 142.17 
M 123.23 136.39 128.1 141.26 
M 125.61 133.85 129.8 138.04 
M 128.07 131.39 130.99 134.31 
M 130.63 129.03 135.1 133.5 
M 133.42 126.9 137.5 130.98 
M 136.49 125.05 140.02 128.58 
M 139.61 123.25 144.24 127.88 
M 142.86 121.58 146.71 125.43 
M 146.1 119.9 150.21 124.02 
M 149.22 118.11 153.64 122.52 
M 152.35 116.32 154.94 118.91 
M 155.58 114.63 158.47 117.52 
M 158.82 112.94 163.35 117.48 
M 162.25 111.46 166.47 115.68 
M 165.7 109.99 169.19 113.48 
M 169.28 108.65 172.82 112.19 
M 172.88 107.33 175.53 109.98 
M 176.57 106.1 181.13 110.66 
M 180.25 104.87 182.83 107.45 
M 183.97 103.67 186.47 106.16 
M 187.89 102.67 190.73 105.5 
M 131.36 145.17 130.84 140.35 130.3 139.77 128.51 139.27 
M 168.82 133.76 168 132.59 167.9 131.43 168.4 130.41 169.4 129.22 169.72 128.55 170.17 126.81 170.1 125.62 
M 153.44 163.12 153.04 162.41 150.16 160.99 
M 165.21 114.4 166.97 114.36 167.67 114.63 169.39 115.91 170.27 116.18 171 116.02 172.7 114.85 173.04 114.46 
M 138.82 134.18 137.66 132.66 136.36 131.88 
M 173.76 115.93 174.38 115.5 175.65 115.09 177.9 114.97 179.62 114.43 181.43 113.16 182.17 112.42 182.65 111.58 
M 186.87 134.02 189.59 133.32 190.11 133.31 190.53 133.49 
M 134.17 141.31 134.38 140.46 134.7 140.06 135.75 139.87 136.39 140.01 
M 101.71 154.56 100.07 156.13 98.09 157.6 
M 142.34 130.88 141.23 130.11 140.35 128.84 139.05 127.41 137.64 126.2 137.09 126.03 135 125.95 
M 166.02 164.64 165.17 164.4 164.5 163.87 164.17 163.05 164.35 162.25 
M 134.63 134.75 135.69 134.67 136.58 134.87 137.1 134.82 137.59 134.26 137.21 133.55 
M 111.54 163.92 111.74 163.14 112.13 162.63 113.38 162.11 
M 173.17 128.44 171.25 125.58 170.52 124.75 170.05 124.35 169.11 124.05 
M 181.16 113.18 181.93 112.46 183.27 109.95 186.14 106.85 186.81 106.43 187.1 106.41 187.83 106.92 
M 147.55 128.88 147.33 128.05 
M 182.15 140.61 181.59 138.66 181.72 135.97 181.46 134.63 181.24 134.12 180.48 133.86 
M 156.53 114.89 156.18 114.32 
M 159.03 152.14 158.27 151.91 
M 185.65 158.36 186.3 158.37 186.48 158.01 
M 179.36 114.93 181.93 112.96 182.59 112.19 183.2 110.47 185.63 107.66 186.82 106.68 187.39 106.68 
M 177.17 114.52 178.75 114.38 179.62 114.01 181.42 112.79 182.1 112.05 182.91 110.32 185.89 106.99 186.58 106.43 
M 183.62 106.81 184.69 105.54 186.44 104.53 
M 115.86 165.43 116.36 165.27 118.29 165.49 119.27 164.82 
M 161.96 128 162.79 128.95 163.33 130.44 164.06 131.12 
M 149.19 126.13 148.94 125.52 148.87 124.05 149.57 121.79 149.91 119.87 
M 135.8 155.17 130.68 155.73 127.91 155.36 
M 153.23 156.01 153.15 156.81 152.61 157.5 151.68 157.97 149.98 158.38 148.77 158.85 
M 119.07 161.18 120.26 163.24 122.23 165.26 
M 157.47 163.53 156.5 164.75 155.87 165.01 154.76 164.79 154.13 164.22 
M 183.91 140.86 184.03 138.69 184.24 138.1 185.37 136.56 186.42 134.16 187.25 133.7 
M 166.29 126.38 165.97 125.83 164.91 125.3 
M 188.6 112.72 191.43 110.71 193.49 108.75 
M 133.54 137.96 134.62 138.52 136.63 138.7 
M 172.01 134.96 170.25 131.21 170.42 126.03 
M 155.93 153.68 155.52 154.52 
M 157.48 113.77 158.2 113.8 159.74 114.21 161.63 114.95 163.94 116.64 164.17 117.48 
M 107.06 162.53 106.41 159.91 106.13 159.52 105.55 159.2 
M 164.34 112.56 165.98 112.37 166.77 112.59 169.52 114.51 170.53 114.92 171.28 114.88 171.63 114.7 172.53 113.56 
M 153.51 168.99 152.18 169.52 150.15 169.82 148.91 170.32 
M 164.14 156.96 162.72 154.14 
M 172.28 116.64 173.66 114.96 174.3 114.54 175.2 114.41 176.99 114.61 178.52 114.53 180.28 113.71 
M 111.77 148.79 110.27 148.04 109.55 147.96 108.63 148.49 107.46 150.05 
M 184.07 156.63 184.12 157.29 185.02 158.36 185.85 158.7 186.38 158.65 186.6 158.43 
M 186.98 104.25 187.28 104.51 188.54 107.87 
M 135.36 162.72 133.98 164.32 133.96 164.83 134.27 165.24 134.79 165.5 135.84 165.46 
M 182.64 148.56 180.12 147.74 178.35 146.78 176.84 145.61 175.53 144.53 174.01 142.82 173 141.38 172.6 140.54 
M 138.14 124.09 138.03 124.12 
M 141.41 162.26 140.49 165.51 140.48 167 140.66 167.77 141.11 168.5 142.92 169.74 
M 176.69 161 177.57 159.28 178.01 158.91 178.66 158.74 179.38 158.83 182.33 160.17 183.56 160.41 184.37 160.26 
M 174.18 133.45 171.99 130.5 171.36 128.85 171 126.94 
M 186.31 155.24 185.55 156.09 185.29 156.82 185.6 157.64 186.15 157.91 
M 170.08 133.77 169.11 132.6 168.77 131.75 168.78 131.29 169.86 129.08 170.3 127.18 170.28 125.85 
M 186.72 135.67 186.86 134.89 187.36 134.37 189.18 133.63 189.84 133.58 190.33 133.85 
M 188.97 144.21 187.64 141.53 186.93 138.85 
M 180.6 132.39 180.63 133.07 180.48 133.4 179.16 133.74 
M 185.02 127.75 186.72 129.75 187.49 130.21 188.2 129.84 189.31 128.31 
M 186.76 152.65 185.93 154.19 183.91 156.64 184.01 157.28 185.22 158.6 
M 139.06 152.98 136.41 152.38 135.93 152.39 134.06 153.42 131.55 153.98 
M 130.19 132.52 128.42 131.08 
M 109.44 151.11 110.2 150.66 110.06 150.44 109.71 150.39 
M 111.16 163.8 111.46 162.79 111.97 162.33 113.14 161.74 113.67 161.72 115.48 162.57 117.69 164.57 
M 107.76 155.61 109.97 155.7 111.73 156.01 113.91 155.74 
M 181.99 107.23 183.11 106.41 184.08 105.39 185.56 104.62 
M 187.08 146.86 184.17 143.96 182.96 142.46 182.22 140.75 181.62 138.82 
M 162.41 156.02 161.22 154.99 160.26 153.23 159.3 152.48 158.14 152.02 
M 128.44 162.2 128.13 161.32 128.11 159.56 127.93 159.2 124.52 156.68 
M 134.43 150.74 133.43 151.48 129.54 152.91 128.45 153.01 
M 160.63 115.27 161.71 116.19 162.15 116.81 162.23 117.28 161.33 118.87 160.14 120.14 
M 187.94 132.55 189.5 132.61 190.83 132.05 
M 158.26 166.84 157.94 167.45 157.5 167.7 153.89 168.71 151.99 169.45 150.01 169.78 
M 177.62 162.04 179.63 160.5 181.06 160.45 183.75 160.7 184.9 160.36 185.84 160.45 
M 160.17 130.95 160.27 134.01 
M 176.74 106.65 178.92 107.43 179.85 107.46 180.94 106.54 182.17 106.05 
M 108.57 146.65 107.84 146.97 107.62 147.28 107.4 149.18 106.05 152.78 
M 186.34 126.68 187.45 127.36 188.47 127.37 189.49 127.05 190.54 126.19 190.76 125.66 190.74 124.91 
M 171 146.18 168.74 144.97 165.97 141.34 165.14 140.55 163.57 139.62 162.6 139.84 
M 118.97 166.43 119.97 165.82 121.99 165.78 123.51 165.95 
M 139.43 133.46 137.58 131.1 137.01 130.69 135.52 130.22 132.93 130.22 130.53 129.12 
M 146.72 129.06 146.27 128.12 145.68 127.39 144.13 126.36 143.57 125.7 
M 128.29 132.79 127.38 132.04 
M 124.04 155.54 123.18 155.55 122.13 156.05 119.62 158.1 117.83 159.27 117.26 160.25 
M 170.72 116.97 171.5 116.48 172.83 115.28 173.43 114.52 174.14 114.16 175.16 114.09 177.93 114.46 
M 188.47 133.88 189.77 133.53 190.3 133.73 190.34 134.05 
M 122.61 168.66 120.68 170.36 117.81 172.52 117.09 173.28 116.57 174.15 116.27 175.1 116.23 176.09 116.45 177.04 116.93 177.87 117.67 178.47 118.61 178.82 119.63 178.92 120.6 178.71 121.39 178.15 121.9 177.3 122.05 176.29 121.86 175.23 121.39 174.22 120.72 173.3 118.89 171.87 116.72 170.87 114.37 170.32 111.95 170.19 105.81 170.46 111.93 169.89 114.42 169.88 116.89 170.3 119.25 171.21 120.36 171.85 121.37 172.69 122.21 173.7 122.84 174.89 123.16 176.24 123.03 177.67 122.34 178.98 121.19 179.91 119.77 180.32 118.33 180.29 116.94 179.85 115.72 178.98 114.88 177.73 114.45 176.31 114.43 174.84 114.77 173.42 115.44 172.13 116.33 171.04 119.21 168.57 120.87 166.92 
M 121.59 167.75 122.54 167.98 
M 117.13 167.5 117.38 167.8 117.52 167.55 
M 112.57 166.79 113.02 167.82 113.09 167.21 113.32 166.89 
M 108.16 166.12 108.17 166.78 108.66 167.83 108.65 166.9 108.99 166.26 
M 103.78 165.28 103.73 166.46 104.29 167.85 104.21 166.58 104.71 165.47 
M 99.41 164.59 99.28 166.15 99.93 167.87 99.76 166.26 100.39 164.75 
M 95.13 163.13 94.84 165.83 95.57 167.88 95.32 165.95 96.12 163.85 
M 121.67 167.83 122.44 167.36 
M 117.98 169.23 118.08 169.17 
M 114.16 171.43 114.31 170.5 114.85 171.06 
M 110.56 173.26 110.44 172.75 110.6 171.85 110.86 172.49 111.34 172.88 
M 106.93 174.97 106.75 174.36 106.89 173.2 107.17 174.1 107.71 174.62 
M 103.32 176.71 103.05 175.97 103.17 174.56 103.47 175.71 104.08 176.35 
M 99.74 178.55 99.36 177.58 99.46 175.91 99.78 177.32 100.51 178.15 
M 96.15 180.35 95.66 179.19 95.74 177.27 96.08 178.93 96.92 179.94 
M 92.8 182.66 91.97 180.8 92.03 178.62 92.39 180.54 93.5 181.93 
M 99.37 183.55 109.42 181.42 114.27 180.05 116.22 179.34 
M 118.13 178.64 121.94 176.99 
M 123.14 176.45 127.72 174.01 136.1 169.12 
M 111.89 180.72 113.49 177.44 
M 193.09 107.59 194.46 108.97 
M 193.3 101.25 199.13 107.08 
M 198.31 99.7 206.08 107.47 
M 203.36 98.19 209.47 104.3 
M 208.47 96.74 217.11 105.38 
M 213.62 95.34 219.93 101.64 
M 218.88 94.04 224.9 100.06 
M 224.38 92.98 231.87 100.47 
M 230.05 92.09 238.23 100.27 
M 235.87 91.35 245.11 100.59 
M 241.8 90.72 247.68 96.6 
M 248.05 90.41 255.88 98.25 
M 254.29 90.09 262.16 97.97 
M 260.52 89.77 267.68 96.92 
M 266.86 89.54 275.59 98.28 
M 272.91 89.03 278.42 94.54 
M 279.26 88.83 289.05 98.62 
M 286.67 89.68 296.49 99.5 
M 295.14 91.59 304.24 100.69 
M 305 94.89 314.36 104.25 
M 314.89 98.22 324.45 107.78 
M 324.27 101.05 330.16 106.93 
M 334.04 104.26 342.72 112.94 
M 344.73 108.39 354.23 117.89 
M 356.26 113.36 361.79 118.88 
M 368.49 119.03 377.94 128.48 
M 245.21 87.59 246.62 90.42 
M 247.32 84.44 248.42 86.64 
M 249.44 81.29 252.01 86.43 
M 251.56 78.15 256.32 87.68 
M 253.67 75 259.91 87.47 
M 255.79 71.86 263.49 87.26 
M 257.91 68.71 267.07 87.04 
M 267.85 88.61 268.27 89.44 
M 260.02 65.57 271.86 89.25 
M 262.14 62.42 272.04 82.22 
M 273.51 85.15 275.46 89.05 
M 264.26 59.28 272.69 76.14 
M 274.16 79.07 277.82 86.41 
M 266.37 56.13 275.54 74.46 
M 277.01 77.4 282.96 89.3 
M 268.49 52.98 276.92 69.85 
M 280.59 77.18 286.99 89.98 
M 270.61 49.84 280.51 69.64 
M 283.44 75.5 289.3 87.24 
M 290.71 90.05 291.02 90.66 
M 272.72 46.69 282.14 65.54 
M 283.52 68.29 294.9 91.06 
M 274.84 43.55 278.4 50.68 
M 294.54 82.96 294.91 83.69 
M 295.64 85.16 298.58 91.03 
M 277.16 40.82 277.37 41.23 
M 226.43 291.39 224.54 297.7 
M 224.33 291.39 228.53 291.39 
M 229.4 293.5 228.14 297.7 
M 228.86 295.3 229.43 294.39 230.21 293.8 230.9 293.5 231.8 293.5 
M 233.63 291.39 233.83 291.7 234.23 291.39 234.02 291.1 233.63 291.39 
M 233.3 293.5 232.04 297.7 
M 235.7 293.5 234.44 297.7 
M 235.33 294.7 236.51 293.8 237.2 293.5 238.1 293.5 238.61 293.8 238.64 294.7 237.74 297.7 
M 240.56 295.3 244.16 295.3 244.33 294.7 244.22 294.1 243.5 293.5 242.6 293.5 241.91 293.8 241.13 294.39 240.56 295.3 240.38 295.89 240.41 296.8 240.83 297.39 241.33 297.7 242.24 297.7 242.93 297.39 243.71 296.8 
M 246.8 293.5 245.54 297.7 
M 246.26 295.3 246.83 294.39 247.61 293.8 248.3 293.5 249.2 293.5 
M 250.7 293.5 249.8 296.5 249.83 297.39 250.33 297.7 251.24 297.7 251.93 297.39 253.1 296.5 
M 254 293.5 252.74 297.7 
M 259.13 294.39 259.01 293.8 258.2 293.5 257.3 293.5 256.31 293.8 255.83 294.39 255.95 295 256.46 295.3 257.87 295.6 258.38 295.89 258.4 296.8 257.93 297.39 256.94 297.7 256.03 297.7 255.23 297.39 255.11 296.8 
M 266.93 291.39 266.33 291.39 265.64 291.7 265.07 292.6 263.53 297.7 
M 263.89 293.5 266 293.5 
M 268.43 291.39 268.64 291.7 269.02 291.39 268.82 291.1 268.43 291.39 
M 268.09 293.5 266.83 297.7 
M 273.8 293.5 271.9 299.8 
M 273.52 294.39 273.11 293.8 272.59 293.5 271.7 293.5 271.01 293.8 270.22 294.39 269.65 295.3 269.47 295.89 269.51 296.8 269.93 297.39 270.44 297.7 271.33 297.7 272.02 297.39 272.81 296.8 
M 276.2 293.5 275.3 296.5 275.33 297.39 275.83 297.7 276.74 297.7 277.43 297.39 278.59 296.5 
M 279.5 293.5 278.24 297.7 
M 282.22 291.39 282.44 291.7 282.83 291.39 282.62 291.1 282.22 291.39 
M 281.89 293.5 280.64 297.7 
M 284.29 293.5 283.03 297.7 
M 283.94 294.7 285.11 293.8 285.79 293.5 286.7 293.5 287.2 293.8 287.24 294.7 286.33 297.7 
M 293.29 293.5 292.03 297.7 
M 293.02 294.39 292.61 293.8 292.09 293.5 291.2 293.5 290.51 293.8 289.73 294.39 289.15 295.3 288.98 295.89 289.01 296.8 289.42 297.39 289.94 297.7 290.83 297.7 291.52 297.39 292.31 296.8 
M 294.91 297.1 294.52 297.39 294.74 297.7 295.13 297.39 294.91 297.1 
"/></svg>
