<svg xmlns="http://www.w3.org/2000/svg" width="520" height="320"><rect x="0" y="0" width="520" height="320" fill="floralwhite"/><rect x="10" y="10" width="500" height="300" stroke="black" stroke-width="1" fill="none"/><path stroke="black" stroke-width="1" fill="none" stroke-linecap="round" stroke-linejoin="round" d="
M 130.84 131.91 151.63 126.25 162.04 124.03 172.45 122.94 182.86 122.81 193.27 123.07 203.68 123.07 214.09 122.18 224.5 120.61 234.91 119.34 245.32 119.13 255.73 120.02 276.56 122.53 286.97 124.05 297.38 125.96 328.61 132.71 359.84 138.79 370.25 141.52 380.66 145.53 391.07 155.71 
M 391.07 173.01 380.66 184.21 370.25 188.03 359.84 190.68 349.43 192.89 297.38 203.08 286.97 204.67 266.14 207.23 245.32 210.83 234.91 211.06 224.5 209.78 214.09 207.81 203.68 206.11 193.27 205.3 182.86 205.13 172.45 204.68 162.04 203.33 151.63 201.37 130.81 197.19 120.47 194.74 
M 380.87 161.78 370.1 159.04 359.21 157.12 352.21 156.52 334.98 155.58 321.11 153.98 308.7 152.12 
M 305.34 151.53 290.78 149.06 287.43 148.68 280.77 148.23 271.14 148.33 256.51 149.2 238.94 149.71 227.54 149.41 218.09 148.43 
M 210.52 147.61 206.8 147.32 
M 192.54 147.95 184.07 148.76 179.24 148.79 
M 176.16 148.63 173.11 148.36 
M 170.04 148.07 166.85 147.82 
M 153.02 147.57 149.51 147.61 
M 142.42 147.68 138.78 147.7 
M 130.11 182.35 132.97 187.05 
M 132.77 178.18 133.75 179.78 
M 136.31 183.8 139.09 187.82 
M 136.8 176.07 137.07 176.5 
M 139.7 180.51 142.56 184.52 
M 143.76 178.1 146.04 181.35 
M 149.09 185.46 152.3 189.49 
M 138.64 161.23 139.58 162.71 
M 150.32 179.46 155.63 186.53 
M 134.68 144.84 140.42 155.26 144.7 162.33 
M 158.83 183.45 161.96 187.34 
M 165.14 190.88 168.33 194.09 
M 132.2 131.54 136.29 137.73 140.04 144.46 
M 142.44 149.09 146.11 156 149.72 162.04 
M 163.34 182.02 164.9 183.98 
M 171.02 190.91 174.06 194.03 
M 136.99 130.23 139.49 134.08 142.05 138.44 151.6 156.6 154.77 161.88 
M 169.58 182.56 173.79 187.41 
M 179.57 193.81 182.16 196.88 
M 141.32 129.04 147.64 139.22 150.12 143.68 153.58 150.43 
M 155.87 154.88 157.04 157.09 159.94 161.79 
M 176.09 183.01 179.53 186.97 
M 182.31 190.26 184.91 193.5 
M 189.67 199.63 190.87 201.1 
M 145.44 127.93 150.59 135.63 154.48 142.11 
M 156.85 146.52 162.57 157.48 165.25 161.61 
M 185.06 186.46 187.67 189.85 
M 149.41 126.85 156.15 136.28 158.82 140.5 161.25 144.82 165.76 153.54 168.32 157.86 169.82 159.96 
M 187.6 182.41 187.71 182.55 
M 192.88 189.5 195.31 192.87 
M 200.07 198.98 201.98 201.13 
M 153.27 125.9 158.74 132.83 161.64 136.83 164.29 140.99 168.84 149.65 171.32 153.98 174.23 158.22 176.02 160.52 
M 192.83 181.94 192.94 182.1 
M 195.55 185.66 198.08 189.19 
M 200.55 192.58 203.01 195.77 
M 157.16 125.07 164.11 133.35 166.81 137.37 173.91 150.11 176.82 154.29 181.22 159.76 
M 198.25 181.81 204.7 190.73 208.53 195.63 
M 161.13 124.23 163.29 126.58 166.23 130.16 168.9 134.02 175.99 146.31 178.91 150.35 183.82 156.12 
M 204.03 182.15 206.26 185.24 
M 208.96 188.88 212.99 194.02 217.02 198.37 
M 219.69 200.86 222.37 203.03 
M 165.42 123.68 168.37 127.23 170.94 130.91 177.91 142.63 180.77 146.45 184.02 150.16 193.86 160.61 
M 214.83 188.86 217.64 192.22 
M 169.74 123.22 173.28 127.96 180.11 139.1 182.86 142.67 185.95 146.14 195.94 156.02 200.56 161.12 
M 215.04 181.41 221.01 188.84 
M 174.32 122.91 175.99 125.17 182.73 135.65 185.31 139.03 188.18 142.28 196.36 150.21 
M 199.7 153.44 204.54 158.61 206.08 160.54 
M 220.65 180.83 224.37 185.43 
M 227.3 188.87 230.08 191.96 
M 232.73 194.76 235.31 197.38 
M 237.86 199.93 240.39 202.46 
M 179.11 122.86 185.54 132.28 188.01 135.5 190.75 138.62 193.7 141.67 201.91 149.57 
M 205.29 153 210.28 158.64 211.89 160.72 
M 227.62 181.98 233.47 189 
M 183.81 122.84 188.34 129.04 190.79 132.08 196.36 138.13 209.37 151.32 212.86 155.18 218.65 162.43 
M 231.03 178.94 233.77 182.39 
M 236.69 185.93 244.46 195.17 
M 249.17 201.11 251.49 203.84 
M 188.59 122.95 193.5 128.85 197.64 133.29 
M 200.57 136.34 215.37 151.98 218.96 156.09 223.8 162.17 
M 235.9 178 242.59 186.06 
M 193.59 123.07 204.8 134.77 217.83 148.89 221.49 152.93 226.86 159.3 
M 242.64 179.37 245.55 182.81 
M 248.34 186.11 250.91 189.38 
M 253.3 192.7 255.57 196 
M 198.9 123.07 204.59 128.67 210.66 135.04 227.58 153.85 231.18 158.03 235.56 163.52 
M 245.1 175.63 245.41 176.01 
M 248.35 179.53 251.2 182.91 
M 253.92 186.25 256.42 189.64 
M 258.76 193.02 261.07 196.3 
M 204.54 123 210.44 128.8 213.49 132.04 231.73 152.45 
M 235.32 156.55 242.15 165.09 
M 249.63 174.53 258.07 184.83 261.83 189.86 
M 264.21 193.2 266.6 196.44 
M 209.9 122.54 216.34 128.97 227.24 141.27 
M 230.6 144.98 239.5 154.85 247.93 165.61 
M 256.45 176.41 259.28 179.89 
M 264.64 186.57 269.53 193.27 
M 215.25 122 219.21 125.89 226.82 134.27 
M 233.37 141.44 242.03 150.98 245.3 155 253.53 165.96 
M 258.22 172.12 258.8 172.85 
M 261.63 176.4 265.87 181.49 269.75 186.5 
M 220.36 121.23 225.01 125.88 241.37 143.23 244.71 147.05 247.87 151 255.24 161.16 
M 258.05 165.16 259.66 167.45 
M 262.27 170.98 263.62 172.65 
M 266.53 176.15 270.86 181.27 273.45 184.71 276.97 190.08 
M 225.45 120.49 237.53 132.46 244.19 139.42 247.39 143.13 251.88 148.99 
M 254.7 152.98 257.38 156.98 
M 259.97 160.95 262.56 164.86 
M 265.28 168.65 265.75 169.26 
M 266.21 169.87 268.2 172.28 
M 276.91 182.96 279.28 186.67 
M 230.69 119.85 237.25 125.97 243.66 132.33 246.83 135.71 249.9 139.28 255.62 146.89 258.23 150.79 264.3 160.51 
M 266.87 164.4 268.21 166.34 271.22 170.08 277.5 177.47 280.27 181.29 281.46 183.25 
M 283.73 187.17 285.8 191.04 
M 236.03 119.31 243.32 126 247.81 130.6 
M 253.65 137.36 257.79 142.85 260.35 146.63 266.24 156.14 
M 268.69 160.01 269.96 161.96 274.39 167.86 
M 280.61 175.72 284.77 181.76 288.23 187.77 
M 292.35 195.04 294.3 198.11 
M 241.77 119.2 246.14 123.14 248.9 125.89 254.51 132.01 257.23 135.37 262.47 142.57 274.75 161.62 283.85 174 286.74 178.15 290.65 184.28 
M 247.62 119.32 251.56 122.96 256.89 128.6 262.03 135.09 268.4 144.02 
M 270.85 147.69 275.73 155.36 
M 284.18 168 287.22 172.24 
M 290.19 176.43 293.04 180.52 
M 253.93 119.86 256.92 122.67 261.95 128.29 272.1 141.76 277.08 149.13 283.42 159.61 
M 286.29 163.95 295.35 176.59 
M 298.17 180.64 300.78 184.59 
M 303.23 188.4 305.64 192.05 
M 260.46 120.6 264.63 125.03 267.02 127.96 277.27 141.21 281.05 146.87 
M 283.48 151 287.23 157.6 291.51 164.14 
M 294.53 168.39 297.54 172.56 
M 300.43 176.68 305.73 184.7 
M 308.25 188.56 310.85 192.27 
M 266.82 121.38 269.78 124.73 282.6 140.71 285.15 144.57 288.76 151.03 
M 293.9 159.94 302.65 172.63 
M 313.47 188.82 316.24 192.6 
M 272.86 122.09 281.23 131.88 
M 283.94 135.13 286.65 138.66 
M 289.24 142.54 290.49 144.58 295.22 153.46 297.76 157.89 304.94 168.53 
M 307.79 172.76 310.59 176.97 
M 313.35 181.14 318.85 189.18 
M 278.73 122.85 285.25 130.13 287.98 133.34 290.7 136.86 293.27 140.73 300.38 153.72 303.02 158.04 318.68 181.48 
M 284.71 123.72 290.63 130.27 293.26 133.62 295.78 137.31 298.2 141.31 301.77 147.66 
M 304.29 151.93 309.8 160.44 
M 312.68 164.74 323.92 181.77 
M 290.85 124.76 293.27 127.48 295.79 130.68 298.2 134.2 308.18 150.3 323.63 173.5 
M 326.36 177.78 334.16 190.01 
M 296.85 125.86 298.45 127.86 300.78 131.23 305.48 138.76 315.1 152.81 
M 320.63 160.98 326.09 169.34 
M 328.78 173.64 331.42 177.98 
M 302.79 127.14 310.8 139.29 316.61 147.22 322.16 155.18 328.61 165.21 
M 331.24 169.48 333.84 173.84 
M 308.72 128.44 313.8 136.01 322.65 147.85 325.32 151.71 328.91 157.38 
M 331.29 161.3 333.79 165.43 
M 341.45 178.24 346.06 186.29 
M 314.74 129.77 316.95 132.95 325.89 144.6 328.62 148.45 331 152.15 334.25 157.7 
M 341.79 169.8 344.28 174.01 
M 346.58 178.18 348.74 182.25 
M 320.67 131.05 328.96 141.35 332.99 147.07 
M 335.28 150.71 337.43 154.27 
M 339.7 157.89 344.82 165.67 
M 349.64 173.92 351.72 178.07 
M 326.65 132.3 333.17 140.02 
M 335.87 143.7 341.59 152.53 345.27 157.9 
M 350.49 165.62 351.74 167.62 354.92 173.82 
M 332.8 133.54 337.13 138.5 339.72 141.97 344.36 148.92 353.5 161.59 
M 358.21 169.66 360.23 173.97 
M 339.12 134.77 342.13 138.43 348.16 146.95 
M 350.78 150.46 357.71 159.63 360.31 163.6 362.69 167.76 363.74 169.95 
M 365.7 174.39 369.21 183.36 
M 345.3 135.92 352.05 145.01 360.54 155.96 363.35 159.87 366 163.94 368.38 168.15 371.3 174.8 
M 351.62 137.13 359.01 146.83 
M 361.87 150.52 366.26 156.25 370.44 162.27 
M 372.94 166.38 375.12 170.6 
M 358.23 138.47 367.59 150.73 
M 370.55 154.59 376.19 162.47 
M 365.12 140.17 379.15 158.57 
M 381.78 162.47 384.14 166.43 
M 372.42 142.36 380.55 152.84 384.68 158.59 
M 380.57 145.49 386.36 153.03 390.02 158.4 
M 132.51 131.45 131.41 133.01 
M 140.18 129.36 133.77 138.65 
M 147.34 127.41 140.44 138.21 134.69 146.29 
M 154.11 125.72 150.54 131.84 146.03 139.01 136.36 153.11 
M 160.58 124.34 153.96 136.04 140.03 157.3 
M 166.78 123.53 164.72 126.75 159.48 136.63 155.98 142.27 
M 153.4 146.17 149.45 152.13 143.04 162.44 
M 173.13 122.93 171.69 124.62 169.74 127.43 163.8 138.99 
M 161.51 142.8 154.93 152.7 151.28 158.64 
M 178.99 122.86 176.86 125.27 174.64 128.15 172.71 131.2 167.85 141.39 165.7 145.2 157.86 157.16 155.17 161.87 
M 136.4 187.5 131.43 193.1 
M 184.44 122.85 179.61 128.74 177.37 131.87 175.43 135.13 171.44 143.89 
M 169.54 147.68 168.48 149.61 162.25 159.5 
M 150.23 179.44 145.57 184.93 
M 189.26 122.97 184.68 129.04 180.14 135.58 178.2 139.01 176.61 142.54 173.57 150.09 171.55 154 167.09 161.4 
M 194 123.07 187.55 132.23 183.22 139.11 181.38 142.7 177.04 154.3 175.11 158.25 173.54 161.02 
M 162.3 181.86 161.02 183.71 
M 199.2 123.07 197.05 125.82 192.86 131.96 188.57 138.81 187.6 140.61 
M 185.82 144.32 185.02 146.22 183.02 152.21 
M 181.63 156.27 180.13 159.84 
M 167.01 184.04 163.66 189.21 161.39 192.29 157.63 196.64 
M 205.01 122.96 202.64 125.78 198.34 131.71 194.12 138.31 192.1 141.85 190.37 145.6 188.91 149.56 186.24 157.9 185.4 160.07 
M 172.88 183.88 170.68 187.55 
M 211.33 122.41 208.45 125.81 204.03 131.67 198.76 139.62 
M 196.81 143.09 195.89 144.87 194.3 148.68 190.31 160.14 
M 179.44 182.05 178.67 183.43 
M 217.86 121.61 214.33 125.86 209.86 131.86 205.53 137.93 202.48 142.75 
M 200.68 146.18 198.27 151.76 194.87 160.78 
M 184.27 182.87 182.16 186.71 
M 180.01 190.41 177.9 193.86 
M 224.44 120.62 220.2 125.89 208.26 142.88 
M 206.4 146.09 203.83 151.21 201.32 157.04 
M 189.57 182.41 187.56 186.23 
M 231.38 119.77 228.34 122.89 226 125.87 219.54 135.69 215.2 141.87 213.21 144.94 210.49 149.7 
M 208.72 153.07 205.03 160.59 
M 238.39 119.27 234.52 123.01 232.07 125.91 229.74 129.12 219.25 145.67 212.79 157.03 
M 210.78 160.64 210.2 161.69 
M 199.92 181.9 198 185.52 
M 195.87 189.31 193.68 192.97 
M 244.56 119.14 240.68 123.14 238.3 125.99 233.67 132.51 230.33 137.82 
M 228.18 141.29 222.62 151.33 
M 220.81 154.61 216.06 162.52 
M 205.04 182.27 203.33 185.3 
M 201.13 189.05 198.89 192.67 
M 196.62 196.12 194.33 199.36 
M 249.6 119.49 246.47 123.14 244.3 125.99 239.94 132.42 236.6 137.79 
M 234.36 141.42 231.26 146.83 228.66 152.13 
M 225.04 158.99 223.04 162.25 
M 206.58 188.9 204.24 192.45 
M 254.4 119.9 251.88 122.95 249.81 125.86 245.91 132.28 240.68 141.37 
M 238.52 145.14 235.55 150.8 232.07 158.13 229.55 162.67 
M 217.53 181.12 217.27 181.52 
M 259.07 120.43 257.23 122.66 255.12 125.62 253.17 128.79 241.62 150.97 235.47 163.5 
M 223.56 181.78 221 185.37 
M 263.64 120.99 260.33 125.31 258.3 128.52 256.45 131.91 252.21 141.14 
M 250.4 145.04 244.59 156.98 
M 242.74 160.9 240.86 164.71 
M 232.23 178.76 227.32 185.56 
M 219.15 195.34 216.44 198.43 
M 268.15 121.54 265.5 124.98 262.37 129.91 
M 260.5 133.43 252.97 150.98 246.22 165.5 
M 239.77 176.88 237.1 180.88 233.49 185.82 
M 222.52 197.99 217.53 203.13 
M 272.66 122.07 268.44 127.87 266.33 131.3 264.41 134.93 262.71 138.73 253.71 161.16 
M 251.94 165.15 251.66 165.76 
M 246.66 175.29 240.69 184.42 238.24 187.62 234.25 192 
M 277.2 122.62 273.58 127.55 271.41 130.94 269.35 134.57 267.49 138.37 262.45 150.46 256.6 166.61 
M 253.32 173.5 249.74 179.57 
M 240.19 192.11 237.48 194.81 
M 234.73 197.38 231.96 199.91 
M 281.77 123.29 278.78 127.26 276.63 130.53 274.51 134.12 272.52 137.94 266.95 150.02 265.24 154.21 263.04 160.65 
M 261.74 164.93 260.84 167.8 
M 259.38 171.79 257.18 176.42 
M 255.25 179.77 253.19 182.98 
M 250.96 186.15 248.54 189.29 
M 245.96 192.29 243.3 195.06 
M 286.53 123.98 284.07 127.13 279.85 133.63 277.77 137.38 271.72 149.56 269.8 153.72 268.09 157.97 266.65 162.33 264.83 168.95 
M 264.45 170.37 263.72 172.63 
M 262.29 176.37 261.5 178.18 258.62 183.2 
M 256.47 186.37 251.56 192.57 
M 246.29 198.07 243.67 200.4 
M 291.37 124.86 287.33 130.14 285.25 133.34 281.06 140.83 275.7 151.24 
M 273.74 155.43 271.99 159.69 
M 270.52 164.01 267.79 174.22 267.15 176.09 
M 263.89 183.22 261.83 186.55 
M 259.53 189.79 254.44 195.9 
M 296.21 125.75 292.65 130.4 290.64 133.43 286.45 140.52 279.72 153.15 277.73 157.37 275.31 163.7 
M 274.03 167.86 271.34 177.66 269.9 181.31 268.99 183.06 
M 267.05 186.52 264.87 189.89 
M 262.48 193.15 261.23 194.75 257.29 199.11 
M 254.71 201.7 252.19 203.95 
M 300.92 126.74 297.73 130.88 293.81 137.09 287.2 148.79 283.86 155.3 
M 280.25 163.71 278.86 167.78 
M 276.63 175.58 274.73 181.15 273.88 182.93 
M 272.06 186.45 269.01 191.6 267.85 193.24 
M 305.64 127.77 302.72 131.45 300.61 134.55 298.69 137.73 290.18 153.27 287.07 159.74 
M 285.33 163.91 283.82 167.97 
M 282.49 171.92 281.29 175.73 
M 278.57 183 274.98 189.97 
M 310.46 128.83 307.9 131.98 305.57 135.22 303.51 138.48 295.43 153.47 293.29 157.78 290.53 164.12 
M 277.78 193.59 275.85 196.77 
M 315.59 129.96 310.92 135.72 308.64 139.11 302.64 149.77 298.55 157.91 296.65 162.14 290.91 176.46 
M 289.29 180.3 285.82 187.46 
M 283.98 190.8 282.16 194.04 
M 280.37 197.16 278.53 200.1 
M 321 131.12 316.73 136.35 314.29 139.63 312.02 143.04 307.82 150.27 303.82 158.07 301.93 162.21 297.72 172.57 
M 296.08 176.61 293.41 182.52 291.46 186.26 286.38 194.56 
M 326.51 132.27 320.4 140.33 315.56 147.11 311.18 154.48 309.16 158.34 306.33 164.41 
M 304.55 168.52 302.83 172.63 
M 299.43 180.66 297.57 184.53 
M 290.84 194.97 288.63 197.98 
M 331.88 133.35 326.59 141.08 319.06 151.2 316.74 154.87 314.61 158.72 309.8 168.71 
M 306.18 176.79 301.6 186.53 299.5 190.16 295.85 195.14 
M 336.9 134.34 332.44 141.69 330.14 145.06 324.93 151.68 322.39 155.19 320.09 158.96 318.03 162.95 313.23 173.04 
M 309.42 180.92 307.51 184.75 
M 305.54 188.46 302.32 193.68 301.09 195.26 
M 341.51 135.22 335.66 145.5 333.25 148.85 327.97 155.49 325.52 159.11 322.39 165.1 
M 318.55 173.32 315.67 179.31 310.63 188.66 
M 345.97 136.05 344.56 138.32 340.68 145.53 338.49 149.08 332.11 157.58 
M 329.75 161.23 327.65 165.19 
M 325.7 169.32 321.91 177.59 
M 315.98 188.99 312.02 195.46 
M 350.47 136.9 347.49 141.59 343.48 148.96 341.23 152.54 336.16 159.62 335 161.5 
M 332.83 165.39 325.21 181.83 
M 355.21 137.86 352.71 141.43 350.52 145.05 346.45 152.4 339.28 163.59 337.03 167.63 334.96 171.77 332.13 178.01 
M 360.16 138.88 356 145 349.69 155.95 341.4 169.81 
M 339.17 174.01 337.13 178.2 
M 333.4 186.19 331.56 189.9 
M 365.01 140.15 361.63 145.08 359.41 148.63 349.46 165.63 
M 336.42 190.09 335.3 192.29 
M 369.9 141.43 365.1 148.8 349.85 173.92 
M 347.35 178.17 345.08 182.34 
M 374.5 143.16 364.2 159.92 356.46 171.7 350.01 182.22 
M 347.79 186.25 346.09 189.51 
M 379.16 144.95 376.56 149.03 372.26 156.55 368.73 162.17 
M 366.13 165.97 360.43 173.97 
M 383.25 148.06 380.16 152.84 375.73 160.51 373.26 164.37 365.9 174.39 
M 362.85 178.45 360 182.41 
M 386.94 151.68 383.62 156.68 378.97 164.45 374.68 170.59 
M 371.5 174.8 368.27 178.96 
M 390.44 155.1 389.19 156.77 381.83 168.48 380.33 170.61 
M 377.18 174.93 370.6 183.45 
M 391.07 162.2 385.87 170.56 
M 382.92 174.89 379.65 179.27 
M 391.07 171.09 389.85 173.14 
M 202.28 122.26 246.77 48.1 247.55 48.55 205.64 122.9 
M 215.64 121.06 239.77 69.68 240.59 70.05 219 121.44 
M 228.99 119.32 241.25 89.28 242.1 89.59 232.28 119.66 
M 242.49 118.57 248.42 106.38 249.26 106.7 245.68 119.16 
M 254.21 119.48 255.74 120.02 
M 243.3 56.08 240.88 59.9 239.83 61.86 238.97 63.87 238.31 65.95 237.57 70.31 237.35 74.82 
M 238.39 75.28 237.6 79.17 237.35 83.01 237.53 84.89 237.93 86.76 238.51 88.61 240.02 92.28 
M 241.09 92.67 241.53 96.46 242.47 100.03 243.22 101.69 244.16 103.26 245.28 104.76 247.83 107.6 
M 248.89 108 249.27 111.18 250.13 114.09 250.83 115.41 251.72 116.62 252.78 117.75 255.2 119.83 
M 242.05 57.98 239.83 61.86 238.97 63.87 238.31 65.95 237.85 68.1 237.43 72.55 
M 238.36 65.49 236.4 68.92 235.63 70.7 234.65 74.44 234.27 78.37 
M 234.67 73.01 232.97 75.98 232.3 77.53 231.45 80.77 231.12 84.18 
M 230.98 80.52 229.53 83.04 228.97 84.36 228.24 87.1 227.97 90 
M 227.28 88.04 225.64 91.18 225.04 93.44 224.82 95.81 
M 223.59 95.55 222.31 98.01 221.84 99.77 221.66 101.63 
M 237.96 77.23 237.38 81.1 237.35 83.01 237.53 84.89 237.93 86.76 239.23 90.45 
M 234.66 87.39 234.22 90.36 234.19 91.82 234.63 94.7 235.63 97.53 
M 231.36 97.56 231.04 100.64 231.34 102.65 232.04 104.61 
M 241.28 94.58 241.91 98.29 242.47 100.03 243.22 101.69 244.16 103.26 246.52 106.19 
M 137.61 162.83 147.64 162.13 158.91 161.78 161.99 161.82 167.12 161.39 172.66 161.21 175.14 160.66 180.73 159.75 183.38 159.82 186.32 160.18 189.14 160.04 191.89 160.28 196.98 161.17 205.19 161.12 208.2 161.35 213.04 162.3 215.93 162.52 221.17 162.46 223.93 162.15 226.98 162.28 234.48 163.3 237.1 163.83 239.82 164.68 242.64 165.17 249.08 165.69 252.39 165.78 255.06 166.19 265.16 169.05 266.89 169.68 248.18 174.94 242.74 176.08 237.66 177.6 234.98 178.2 232.24 178.76 226.59 179.49 224.26 180.24 221.67 180.72 216.01 181.22 213.44 181.72 211.14 182.38 208.66 182.54 202.85 182.02 197.3 181.76 192.15 181.99 189.74 182.41 186.91 182.41 180.79 181.96 178.15 182.14 176.19 183.02 173.46 182.93 168.12 182.42 165.66 182.38 159.94 181.49 139.6 177.24 135.2 175.4 134.24 174.85 
M 137.37 164.53 153.21 164.27 156.08 164.52 159.08 164.47 161.87 164.73 167.06 164.56 170 164.23 172.63 164.36 178.18 164.16 183.67 164.31 186.28 164.98 189.3 164.96 
M 137.09 166.21 159.06 166.87 161.76 167.37 164.37 167.3 167.07 167.52 173.02 167.45 175.86 167.69 178.96 168.49 181.64 168.95 186.3 169.49 189.17 170.05 194.68 170.8 
M 136.79 167.82 142.17 168.47 145.05 168.49 153.59 169.17 159.26 169.94 163.65 170.11 167.06 170.79 173.06 171.48 186.6 175.15 194.66 176.41 197.57 177.18 200.54 178.24 
M 139.55 170.05 145.2 171.02 150.9 171.58 156.56 172.78 161.06 173.36 
M 139.83 171.88 145.51 173.41 150.93 174.43 153.77 175.41 
M 135.28 172.38 137.33 172.89 140 173.86 142.7 175.12 
M 163.31 202.32 181.47 226.89 180.77 227.45 160.78 204.34 
M 161.62 202.1 162.27 203.15 
M 168.57 213.35 180.35 232.43 179.6 232.93 158.92 203.89 
M 159.93 201.89 160.43 202.89 
M 165.89 213.68 178.31 238.24 177.52 238.67 157.08 203.44 
M 158.22 201.69 158.59 202.61 
M 163.1 213.82 175.32 244.19 174.49 244.55 155.24 202.97 
M 156.5 201.49 156.75 202.32 
M 160.26 213.8 171.35 250.18 170.5 250.46 153.42 202.5 
M 154.77 201.29 154.92 202.01 
M 157.4 213.67 166.4 256.07 165.52 256.27 151.61 202.03 
M 153.24 201.14 153.3 201.64 
M 154.93 214.98 160.67 261.77 159.77 261.89 150.03 201.6 
M 178.77 225.14 177.55 226.01 176.87 226.91 176.84 227.38 177.02 227.87 178.47 229.4 
M 177.53 230.02 175.66 231.2 175.33 231.66 175.21 232.17 175.58 233.32 176.47 234.6 
M 175.47 235.14 173.98 235.79 172.99 236.63 172.78 237.17 172.78 237.78 173.61 239.94 
M 172.57 240.39 170.95 240.93 169.81 241.72 169.51 242.27 169.4 242.92 169.87 245.31 
M 168.79 245.67 166.34 246.39 165.77 246.81 165.38 247.36 165.08 248.82 165.23 250.59 
M 164.13 250.85 162.32 251.17 160.92 251.85 160.45 252.39 160.15 253.06 159.92 255.71 
M 178.12 225.57 177.11 226.45 176.87 226.91 176.84 227.38 177.02 227.87 177.89 228.88 
M 174.16 220.34 173.39 221.02 173.2 221.37 173.32 222.11 173.99 222.88 
M 170.21 215.11 169.54 215.83 169.62 216.34 170.08 216.88 
M 176.81 230.39 175.66 231.2 175.33 231.66 175.21 232.17 175.3 232.73 175.99 233.95 
M 172.74 223.96 171.86 224.58 171.61 224.93 171.59 225.75 172.11 226.69 
M 168.68 217.53 168.06 217.96 167.83 218.48 168.24 219.43 
M 174.69 235.45 173.4 236.18 172.99 236.63 172.78 237.17 172.78 237.78 173.24 239.19 
M 171.7 229.69 170.64 230.28 170.3 230.66 170.12 231.6 170.51 232.77 
M 168.71 223.92 167.61 224.69 167.47 225.43 167.77 226.34 
M 165.73 218.15 164.92 218.71 164.82 219.25 165.04 219.92 
M 171.73 240.64 170.3 241.28 169.81 241.72 169.51 242.27 169.4 242.92 169.63 244.47 
M 169.5 235.26 168.28 235.8 167.6 236.66 167.5 237.21 167.7 238.54 
M 167.28 229.87 166.25 230.33 165.9 230.65 165.6 231.51 165.77 232.62 
M 165.06 224.48 164.23 224.85 163.77 225.42 163.84 226.7 
M 162.83 219.09 162.21 219.37 161.86 219.81 161.91 220.78 
M 167.89 245.85 166.34 246.39 165.77 246.81 165.38 247.36 165.15 248.03 165.13 249.68 
M 165.96 239.69 164.62 240.15 164.13 240.52 163.6 241.57 163.58 242.98 
M 164.03 233.52 162.91 233.91 162.21 234.61 162.05 235.1 162.03 236.28 
M 162.09 227.36 160.86 227.92 160.5 228.63 160.49 229.58 
M 160.16 221.2 159.22 221.62 158.95 222.16 158.94 222.88 
M 163.19 250.98 161.55 251.45 160.92 251.85 160.45 252.39 160.15 253.06 159.92 254.76 
M 161.94 245.21 160.48 245.62 159.93 245.97 159.24 247.05 159.05 248.55 
M 160.68 239.44 159.42 239.79 158.93 240.1 158.34 241.04 158.17 242.34 
M 159.42 233.67 157.94 234.23 157.44 235.02 157.3 236.13 
M 158.16 227.9 156.95 228.36 156.54 229.01 156.42 229.91 
M 156.9 222.13 155.96 222.49 155.63 222.99 155.54 223.7 
M 349.43 192.89 353.59 197.93 358.02 204.82 360.45 207.48 363.68 216.86 362.14 218.91 360.96 221.34 357.91 221.89 355.75 223.28 349.86 228.77 347.64 230.36 346.16 232.69 343.91 234.09 341.49 234.27 338.5 234.13 336.35 235.59 334.94 237.94 332.84 239.66 330.12 240.18 326.88 240.13 324.44 240.81 321.75 241.29 320.2 243.15 316.92 243.28 314.12 242.76 312.47 242.82 309.85 242.48 307.43 243.35 304.23 243.19 301.03 242.55 298.33 242.42 290.12 240.65 288.16 239.81 283.43 236.35 280.19 234.44 277.61 233.21 275.53 232.6 266.4 223.73 264.35 220.28 255.73 209.11 
M 345.01 193.78 347.51 197.54 350.08 200.66 353.68 207.32 355.19 209.25 357.88 209.57 
M 340.6 194.66 347 203.4 349.9 205.46 351.67 208.21 352.79 210.98 354.72 213.54 356.75 214.99 358.76 218.25 
M 336.18 195.54 338.42 198.67 340.69 201.07 342.21 203.76 344.1 206.68 346.62 209.57 349.3 211.98 353.24 217.87 353.7 221.08 356.16 223.2 
M 331.76 196.41 334.31 199.55 336.18 202.3 340.26 207.4 344.29 213.09 346.48 214.91 348.45 217.14 
M 327.34 197.27 329.86 200.41 331.73 203.15 333.48 205.86 335.19 209.12 337.4 212.41 338.46 214.28 342.97 218.31 345.68 219.48 346.8 222.21 
M 322.92 198.1 326.05 201.27 328.25 204.09 329.46 207.14 330.91 210.09 332.74 212.92 334.62 215.33 336.49 216.87 339.58 218.61 
M 318.49 198.93 321.51 202.02 323.62 204.72 325.14 207.96 326.89 210.51 328.43 213.45 332.74 217.94 334.97 219.46 339.08 223.62 340.4 226.34 
M 314.07 199.79 316.88 202.94 318.92 206.08 323.25 211.83 326.09 217.41 328.24 220.07 
M 309.65 200.65 314.52 207.08 316.51 209.89 318.16 212.55 320.41 214.75 322.39 217.03 323.72 220.2 325.66 222.65 327.38 225.33 329.44 226.93 330.23 228.1 332.26 229.41 333.55 233.25 335.06 234.92 
M 305.23 201.52 308.14 205.2 310.92 210.87 312.95 213.78 315.24 215.65 317.18 217 319 219.79 320.99 222.31 322.63 224.92 324.66 226.78 326.3 228.66 327.14 231.02 329.27 233.13 330.85 236.84 
M 300.81 202.4 303.74 206.19 306.18 211.88 307.68 214.61 309.75 217.06 314.65 221.27 316.08 222.91 318.76 224.64 
M 296.39 203.23 300.51 208.98 302.22 211.86 302.9 214.06 304.68 216.67 307 219.36 310.24 223.71 312.61 226.31 315.37 228.47 317.57 231.2 
M 291.94 203.91 294.46 207.07 297.39 212.12 298.74 213.85 301.43 219.15 305.76 224.14 308.02 231.49 309.07 233.06 311.24 234.98 
M 287.49 204.59 290.05 208.09 292.05 211.67 295.03 215.89 296.52 217.5 299.07 223.04 302.05 225.96 303.69 228.74 306.57 236.24 309.76 240.2 
M 283.02 205.15 285.81 208.59 287.63 211.42 289.31 214.49 293.29 218.69 294.88 221.36 296.68 223.44 298.29 226.43 299.45 229.76 300.49 231.95 301.34 238.49 
M 278.55 205.7 281.29 208.97 285 214.06 286.29 216.67 288.41 219.73 290.7 221.98 292.06 225.87 296.64 234.17 
M 274.08 206.24 277.23 208.95 278.98 211.8 281.83 217.09 283.64 219.65 285.4 222.6 286.96 225.66 289.11 228.48 291.07 231.57 291.59 234.35 292.48 237.06 294.08 239.94 
M 269.61 206.8 272.42 210.21 276.7 215.94 279.9 221.68 280.31 223.14 280.82 226.2 
M 265.15 207.41 268.23 210.87 270.35 213.81 272.01 217.16 274.29 220.1 276.3 223.09 277.06 224.85 276.57 226.49 277.77 228.4 280.08 230.87 
M 260.71 208.21 265.74 215.33 269.72 221.53 273.38 226.41 
M 391.07 155.71 393.53 153.76 399.33 147.09 405.85 138.96 407.58 136.28 410.13 134.25 411.57 132.08 418.35 125.86 420.86 123.92 422.43 122.91 423.68 121.08 425.54 119.78 427.78 117.92 430.89 116.64 433.76 115.22 434.8 113.75 436.26 112.36 439.59 111.13 443.03 110.24 450.61 105.65 454.29 104.33 456.95 104.24 461.85 102.9 464.1 102.86 466.12 101.58 468.42 101.08 471.17 101.96 474.28 101.54 477.38 101.96 480.7 101.51 484.71 99.07 488.31 96.51 489.28 107.9 488.54 113.48 488.4 119.67 488.04 125.98 487.26 128.9 485.51 130.85 483.31 132.34 479.13 135.59 476.78 137.04 475.34 139.41 473.36 141.24 470.95 142.63 468.03 143.51 465.82 145.11 464.67 147.76 462.51 149.36 459.35 149.96 456.98 151.35 455.15 153.27 453.84 155.72 453.16 158.79 451.44 160.84 447.93 160.89 444.17 160.48 441.25 160.91 438.9 161.9 437.3 163.64 435.55 165.24 427.33 167.06 427.56 169.77 429.42 171.98 437.67 174.22 441.05 176.1 448.73 179.34 453.76 182.81 456.85 184.35 462.48 188.42 467.01 191.46 478.23 201.77 487.05 211.85 488.36 214.13 489.25 224.93 490 229.05 485.99 240.05 483.24 237.24 479.78 236.15 473.67 236.13 467.65 234.59 465.49 234.79 463.01 233.16 460.43 232.16 454.85 228.91 446.11 226.94 441.68 223.86 438.3 222.38 436.05 220.13 434.39 218.99 431.3 218.6 428.97 217.25 425.1 212.66 422.7 210.57 420.38 208.13 418.01 206.37 416.03 204.16 413.77 202.33 412.6 200.13 408.3 196.29 404.24 190.45 400.84 186.16 398.79 183.9 397.14 181.17 395.15 179 391.07 173.01 
M 396.23 153.34 398.36 151.31 400.33 149.87 403.5 146.6 406.12 144.89 408.54 142.84 411.05 140.43 413.5 138.46 414.95 136.66 419.23 133.66 421.04 131.52 423.45 129.63 426.61 128.79 429.11 127.59 430.56 126.07 433.65 124.63 436.32 122.75 439.46 121.15 443.43 119.35 445.56 119.34 450.94 117.86 454.18 115.83 456.06 115.07 458.29 113.57 461.96 113.31 464.44 112.16 470.93 113.17 473.84 112.43 476.63 111.17 480.46 111.93 482.84 111.56 484.36 110.93 
M 399.22 153.75 405.06 149.59 408.04 148.4 411.03 146.65 413.6 144.33 417.63 141.75 419.11 140.97 421.5 140.57 424.47 138.61 427.67 136.97 433.28 134.61 435.64 132.86 437.82 132.11 440.18 131.55 442.53 130.64 
M 399.73 156.18 406.75 153 412.9 151.1 417.53 147.93 419.47 146.85 424.04 145.64 429.63 143.61 432.25 142.88 434.67 141.8 
M 391.07 161.13 394.55 160.63 397.16 159.7 402.1 157.51 407.99 156.5 410.78 156.18 414.39 155.06 417.27 153.9 419.8 153.84 422.61 152.79 424.69 151.39 427.38 150.77 429.19 151.67 431.89 151.19 434.56 149.98 436.76 149.41 440.09 148.86 443.48 148.65 446.23 149.85 449.56 149.84 453.12 150.7 455.93 150.36 457.76 149.88 459.88 150.14 
M 397.57 161.94 402.63 160.59 408.51 159.62 412.21 159.63 418.8 158.51 423.56 158.32 427.09 158.49 
M 400.81 164.82 403.38 164.7 406.03 163.99 413.59 163.87 417.44 164.18 
M 394.57 166.89 400.53 168.58 406.14 168.58 413.14 168.97 417.32 168.42 
M 400.09 171.01 403 171.92 408.95 172.39 411.41 173.09 415.53 173.88 418.31 175.04 420.62 175.72 423.04 176.68 425.53 176.75 431.58 178.76 434.37 178.46 438.02 178.36 
M 396.64 171.65 399.67 173.38 402.9 174.64 405.89 175.19 408.42 176.23 410.35 177.62 415.59 179.09 418.23 180.92 420.81 182.3 423.83 182.7 428.93 185.95 437.85 186.04 440.99 187.01 443.34 188.02 446.25 188.54 448.47 187.03 452.33 186.21 455.51 186.63 458.13 187.38 
M 396.41 173.76 399.18 175.66 404.78 178.23 411.91 182.44 414.54 183.62 419.18 187.07 422.73 188.01 425.58 189.08 427.19 190.63 429.62 191.35 432.4 191.79 440.72 196.25 446.48 197.78 449.94 197.88 452.77 199.25 456.36 200.41 
M 398.64 177.72 401.1 179.53 403.35 180.79 406.23 182.8 414.65 190.13 417.1 191.55 423.4 194.71 427.39 196.42 430.05 198.3 433.4 200.02 441.54 205.1 443.39 206.51 446.23 207.79 450.29 208.89 452.15 209.81 455.22 210.74 458.72 211.51 465.72 212.66 468.1 213.47 
M 391.07 171.96 393.32 174.71 395.41 177.63 397.92 179.6 399.77 181.98 402.02 183.64 406.37 187.43 412.57 194.45 417.35 198.26 420.03 199.7 422.01 201.22 426.67 204.03 428.92 206.14 431.4 207.8 436.95 212.13 439.5 213.69 441.76 214.79 444.19 216.6 447.36 218.13 453.15 220.22 456.63 220.09 459.24 221.5 462.34 221.66 465.17 223.59 468.66 223.92 473.41 223.61 476.51 224.06 479.58 225.51 
M 349.43 136.69 350.79 131.57 352.5 126.8 353.54 124.6 354.75 122.57 356.26 120.84 358.13 119.46 360.28 118.38 365.07 116.68 367.7 116.28 370.33 117.23 372.64 119.75 374.44 123.58 375.33 127.81 375.06 131.37 371.95 137.54 370.25 141.52 
M 350.56 136.03 351.59 132.73 353.02 129.3 
M 354.14 127.19 354.75 126.17 356.26 124.44 358.13 123.06 360.28 121.98 365.07 120.28 367.7 119.88 369.01 120.36 
M 371.48 122.1 372.64 123.35 373.54 125.27 
M 47.58 150.21 54 148.19 62.12 144.91 67.03 143.27 72.88 141.79 78.88 141.21 84.88 140.93 103.58 137.39 121.08 133.71 130.84 131.96 132.84 135.65 133.96 139.23 134.68 142.75 134.68 146.15 134.95 149.59 136.41 153.22 137.87 160.26 137.53 163.6 136.31 170.19 134.83 173.34 133.58 176.53 132.05 179.67 129.85 182.7 127.37 185.69 123.12 191.77 120.44 194.77 110.5 194.8 103.26 194.38 97.01 193.41 91.29 191.95 86.02 190.03 80.96 187.47 76.13 184.51 66.64 177.66 62.38 174.1 
M 62.16 173.9 58.6 170.67 55.17 167.18 52.4 163.8 51.33 162.23 
M 115.31 151.24 115.7 154.26 114.88 156.99 113.69 159.54 112.37 161.88 110.49 163.86 107.83 167.41 106.7 169.11 105.78 171.1 105.37 173.4 105.26 175.81 104.74 178.47 93.45 179.38 89.03 179.32 84.58 178.8 80.21 177.73 75.89 175.86 71.74 173.37 
M 60.08 171.5 53.38 164.31 50.13 161.05 43.93 153.94 43.07 151.96 43.96 149.9 46.13 149.27 48.08 150.54 52.89 158.23 60.48 169.41 63.04 173.63 
M 62.48 174.25 60.53 173.2 46.24 166.52 32.16 158.83 30.41 157.5 30 155.33 31.27 153.46 33.46 153.27 35.26 154.36 40.79 158.73 48.25 164.05 58 170.13 62.91 173.51 
M 81.76 157.04 80.9 153.79 81.15 150.44 82.47 147.35 84.72 144.85 87.66 143.23 90.97 142.64 94.29 143.16 97.26 144.73 99.56 147.18 100.94 150.24 101.25 153.59 100.46 156.86 98.65 159.69 96.02 161.78 92.85 162.9 89.49 162.94 86.3 161.88 83.63 159.84 81.76 157.04 
M 81.64 156.76 80.97 154.32 80.86 153.06 81.12 150.55 81.99 148.18 83.42 146.09 85.31 144.42 86.4 143.77 88.77 142.9 91.28 142.64 92.54 142.75 94.98 143.42 
M 83.3 156.07 82.75 154.06 82.66 153.02 83 150.54 
M 85.58 146.48 87.22 145.37 88.18 144.95 90.2 144.49 92.28 144.53 94.29 145.08 
M 84.97 155.38 84.7 154.6 84.46 152.99 84.69 151.17 
M 86.62 147.98 88.05 146.97 89.58 146.41 91.21 146.24 92.02 146.31 93.6 146.74 
M 87.35 154.53 87 153.23 87.08 152.2 
M 88.36 149.84 89.71 149 91.03 148.77 92.36 148.97 93.55 149.6 94.47 150.58 95.02 151.81 95.14 153.15 94.83 154.45 94.1 155.59 93.05 156.42 91.78 156.87 90.44 156.88 89.16 156.46 88.09 155.65 87.35 154.53 
M 88.61 149.61 88.45 149.93 
M 87.27 152.29 87.04 152.75 
M 90.32 148.89 89.34 150.85 
M 88.43 152.66 87.44 154.66 
M 91.68 148.87 90.24 151.74 
M 89.84 152.55 88.24 155.76 
M 92.85 149.23 89.23 156.48 
M 93.85 149.93 90.38 156.87 
M 94.66 151.01 91.73 156.87 
M 95.11 152.81 93.48 156.08 
M 51.69 162.76 54.5 165.58 
M 49.32 149.58 54.01 154.28 
M 53.48 148.34 56.33 151.19 
M 57.43 146.88 61.14 150.6 
M 61.23 145.29 65.16 149.21 
M 65.22 143.87 68.81 147.45 
M 69.42 142.66 74.64 147.89 
M 73.85 141.69 79.17 147.01 
M 78.78 141.22 83.57 146.01 
M 83.94 140.98 86.72 143.75 
M 88.59 140.22 91.02 142.65 
M 93.11 139.34 98.04 144.27 
M 97.64 138.46 101.86 142.68 
M 102.22 137.64 106.35 141.77 
M 106.69 136.7 111.02 141.03 
M 111.13 135.74 116.15 140.76 
M 115.59 134.8 118.79 138 
M 120.1 133.9 124.25 138.05 
M 124.63 133.03 129.52 137.92 
M 129.25 132.25 132.19 135.18 
M 52.78 151.43 52.87 151.9 53.32 152.67 53.75 152.91 54.93 153.07 55.75 153.69 
M 63.44 157.82 62.7 156.56 62.4 155.52 61.38 150.09 60.93 149.24 59.65 148.25 
M 102.69 157.43 103.97 157.11 106.47 155.97 107.21 155.8 109.83 155.68 110.55 155.26 
M 103.28 172.89 102.92 173.45 102.65 175.54 
M 92.21 164.71 92.19 162.91 
M 73.11 178.66 73.53 181.23 74.45 183.34 
M 127.97 165.56 125.39 167.93 124.36 168.36 123.09 168.46 
M 74.38 171.15 75.03 170.25 75.86 169.53 76.89 169.01 78.73 168.46 80.38 167.52 82.91 167.5 
M 69.62 165.41 70.21 165.11 70.59 164.58 70.9 162.23 
M 51.64 162.54 51.38 162.31 
M 120.4 153.32 119.99 152.52 118.98 151.77 
M 82.3 161.4 83.03 164.44 83.9 166.23 85.2 168.28 
M 126.95 147.03 127.75 145.43 127.81 143.95 127.34 142.21 126.45 140.83 
M 90.91 190.02 90.1 190.82 89.9 191.28 
M 123.21 142.71 122.9 142.49 121.89 142.28 119.71 142.36 117.08 144.14 
M 81.99 166.87 82.34 167.17 84.41 168.09 85.21 168.86 
M 69.15 143.56 68.71 143.15 68.24 142.96 
M 99.05 173.45 98.7 175.39 98.25 176.88 97.71 177.73 96.52 178.8 96.29 179.24 95.92 181.05 95.34 182.34 
M 101.85 151.8 101.09 151.81 
M 90.9 169.84 91.5 170.16 91.34 170.33 
M 88.81 188.77 88.25 189.44 88.01 190.75 
M 125.62 160.87 123.08 159.79 120.85 159.33 120.62 158.83 120.88 158.04 
M 109.59 183.74 106.24 183.85 105.33 183.71 101.83 182.51 101.19 182.5 100.23 182.98 99.47 183.98 
M 129.62 158.56 128.97 158.48 126.47 158.88 123.54 159.05 121.92 158.95 
M 114.3 144.44 112.97 146.19 111.61 147.27 105.5 150.76 
M 100.28 141.67 99.61 140.8 99.66 140.3 99.93 139.84 101.31 138.6 101.93 137.69 
M 117.31 192.63 119.91 193.31 120.42 193.56 121 194.15 
M 83.4 181.91 83.6 181.19 83.74 178.94 85.2 175.02 85.05 173.73 
M 90.08 141.24 89.95 142.23 89.66 142.87 
M 71.25 166.96 72.23 166.17 72.73 164.83 72.32 162.89 72.01 162.14 
M 110.43 141.32 108.67 141.68 107.72 143 105.89 144.06 
M 80.77 141.12 80.21 142.33 79.78 142.91 78.47 143.49 77.82 143.51 77.2 143.33 76.65 142.93 76.22 142.3 76.04 141.48 
M 93.21 169.61 92.45 170.28 91.53 170.52 
M 63.06 152.16 62.75 151.33 62.54 149.47 62.27 148.67 62 148.38 60.03 147.27 59.15 146.41 
M 56.69 168.49 55.28 167.18 54.08 165.43 52.67 164.13 
M 94.24 189.17 93.04 190.98 91.51 192.01 
M 126.48 143.76 126.27 142.81 125.23 140.87 125.22 140.14 
M 92.58 189.49 91.46 190.92 90.28 191.53 
M 81.06 151.69 80.33 151.57 
M 85.74 176.6 86.06 174.64 84.9 171.91 84.79 170.57 84.88 170.13 85.47 169.48 
M 103.15 169.66 102.25 170 101.9 170.45 101.89 172.39 102.18 173.94 
M 91.28 171.29 90.56 171.26 88.63 171.65 87.82 171.65 86.82 171.18 86.34 170.42 
M 117.78 150.73 118.02 150.24 117.64 148.96 
M 131.18 132.59 130.25 132.07 
M 129.7 132.17 129.08 132.69 128.81 133.44 
M 114.25 137.12 113.37 137.62 111.52 138.26 110.28 139.43 
M 54.63 166.51 54.28 165.9 53.16 164.73 
M 58.34 169.61 57.43 169.25 
M 79.32 167.37 80.3 167.28 81.68 167.52 82.81 167.49 84.42 168.11 
M 40.85 163.59 45.62 167.39 50.32 170.69 55.27 173.73 65.57 179.26 76.13 184.51 
M 68.49 180.33 68.54 180.74 
M 132.77 131.38 140.51 139.12 
M 138.43 129.84 144.72 136.13 
M 144.09 128.29 154.85 139.05 
M 149.76 126.76 158.86 135.86 
M 155.61 125.4 163.9 133.69 
M 161.55 124.14 170.9 133.49 
M 168.02 123.4 174.94 130.32 
M 174.74 122.91 184.97 133.15 
M 181.86 122.82 190.68 131.65 
M 189.21 122.97 199.58 133.34 
M 196.51 123.07 206.06 132.62 
M 203.72 123.07 210.72 130.07 
M 210.35 122.5 215.92 128.07 
M 216.82 121.77 223.55 128.5 
M 223.09 120.82 233.76 131.49 
M 229.47 120 236.15 126.68 
M 235.99 119.32 245.65 128.98 
M 243.05 119.17 249.03 125.15 
M 250.67 119.58 260.87 129.78 
M 258.67 120.38 266.17 127.88 
M 266.88 121.39 275.18 129.68 
M 275.05 122.35 280.46 127.76 
M 283.44 123.53 290.83 130.93 
M 292.1 124.99 300.64 133.53 
M 301.09 126.77 308.65 134.33 
M 310.31 128.79 320.43 138.91 
M 319.54 130.82 328.76 140.03 
M 328.65 132.72 339.05 143.12 
M 337.62 134.48 348.32 145.18 
M 346.49 136.14 354.53 144.19 
M 355.45 137.91 362.9 145.35 
M 364.86 140.11 373.35 148.6 
M 375.5 143.54 381.35 149.39 
M 121.23 193.89 121.23 193.89 
M 123.84 192.81 125.39 195.9 
M 125.82 190.46 128.97 196.75 
M 126.91 186.33 129.4 191.32 
M 130.21 192.93 131.96 196.43 
M 128.96 184.12 136 198.2 
M 130.93 181.76 139.49 198.89 
M 132.54 178.67 142.59 198.77 
M 134.04 175.37 134.91 177.12 
M 137.33 181.95 144.58 196.45 
M 139.33 179.65 140.13 181.26 
M 140.94 182.87 141.75 184.48 
M 142.55 186.09 144.16 189.31 
M 145.77 192.53 146.58 194.15 
M 149 198.98 150.02 201.04 
M 144.55 183.78 145.35 185.39 
M 146.16 187 146.97 188.62 
M 150.19 195.06 151.8 198.28 
M 152.6 199.89 153.52 201.72 
M 152.99 194.36 157 202.38 
M 155.79 193.65 160.48 203.04 
M 158.59 192.95 163.9 203.57 
M 131.18 131.82 135.61 140.68 
M 163 195.46 163.8 197.07 
M 164.61 198.68 167.27 204.01 
M 133.95 131.06 136.77 136.7 
M 137.58 138.31 138.38 139.92 
M 146.44 156.03 147.24 157.64 
M 148.05 159.26 149.44 162.05 
M 136.72 130.3 139.54 135.94 
M 149.21 155.28 152.54 161.93 
M 162.52 181.89 163.71 184.28 
M 139.5 129.54 141.51 133.57 
M 151.18 152.91 155.65 161.86 
M 165.92 182.38 166.48 183.52 
M 167.29 185.13 168.9 188.35 
M 155.56 155.37 158.77 161.78 
M 169.13 182.52 172.48 189.21 
M 179.86 203.96 180.39 205.02 
M 159.95 157.84 161.56 161.06 
M 172.44 182.83 175.26 188.45 
M 180.09 198.12 183.6 205.14 
M 175.68 183 177.23 186.09 
M 182.06 195.76 186.78 205.19 
M 178.4 182.13 179.2 183.73 
M 185.64 196.62 189.95 205.24 
M 153.42 125.87 154.63 128.29 
M 188.46 195.95 192.61 204.25 
M 156.27 125.26 158.28 129.29 
M 166.34 145.4 167.95 148.62 
M 191.31 195.35 192.92 198.57 
M 159.12 124.66 161.94 130.3 
M 162.74 131.91 163.55 133.52 
M 165.97 138.35 166.77 139.96 
M 167.58 141.57 169.19 144.8 
M 169.99 146.41 171.6 149.63 
M 172.41 151.24 174.02 154.46 
M 161.97 124.05 164.79 129.69 
M 168.01 136.13 176.06 152.24 
M 178.48 157.08 179.88 159.88 
M 196.2 192.52 197.01 194.13 
M 164.96 123.73 165.36 124.53 
M 166.17 126.14 167.78 129.36 
M 171 135.81 178.25 150.31 
M 179.05 151.92 179.86 153.53 
M 181.47 156.75 183 159.81 
M 197.58 188.98 203.22 200.25 
M 204.03 201.87 204.83 203.48 
M 167.95 123.41 169.97 127.44 
M 173.99 135.49 179.63 146.77 
M 180.44 148.38 182.05 151.61 
M 182.85 153.22 186.33 160.18 
M 198.97 185.44 207.02 201.55 
M 209.42 206.35 209.8 207.11 
M 176.99 135.18 182.63 146.46 
M 183.43 148.07 184.24 149.68 
M 185.04 151.29 188.27 157.73 
M 189.07 159.35 189.43 160.06 
M 201.96 185.12 210.02 201.23 
M 210.82 202.85 211.63 204.46 
M 212.63 206.47 213.24 207.67 
M 180.86 136.61 185.69 146.28 
M 188.11 151.11 189.72 154.33 
M 190.52 155.95 192.76 160.42 
M 204.22 183.33 205.02 184.95 
M 205.83 186.56 211.47 197.84 
M 212.27 199.45 213.08 201.06 
M 183.99 136.57 184.8 138.19 
M 185.6 139.8 186.41 141.41 
M 192.85 154.3 196.07 160.74 
M 208.16 184.91 214.6 197.8 
M 210.49 183.26 215.32 192.93 
M 223.32 208.93 223.67 209.63 
M 212.94 181.87 215.24 186.47 
M 216.05 188.08 217.66 191.3 
M 224.1 204.19 226.59 209.16 
M 215.79 181.26 217.63 184.93 
M 224.07 197.82 227.29 204.27 
M 228.1 205.88 230.42 210.51 
M 208.74 160.85 209.06 161.49 
M 218.83 181.03 220.01 183.4 
M 226.46 196.29 233.77 210.92 
M 211.93 160.93 212.56 162.19 
M 225.62 188.31 226.43 189.93 
M 227.23 191.54 228.04 193.15 
M 228.84 194.76 236.74 210.54 
M 196.15 123.07 196.56 123.88 
M 224.67 180.11 230.39 191.54 
M 232 194.77 232.81 196.38 
M 234.42 199.6 240.09 210.95 
M 199.31 123.07 199.71 123.88 
M 210.18 144.82 210.99 146.43 
M 227.46 179.39 230.32 185.1 
M 231.13 186.71 232.74 189.93 
M 234.35 193.16 235.96 196.38 
M 237.57 199.6 243.21 210.87 
M 202.46 123.07 203.67 125.49 
M 204.47 127.1 205.28 128.71 
M 210.92 139.99 215.75 149.66 
M 230.44 179.03 236.69 191.54 
M 239.11 196.38 240.72 199.6 
M 241.53 201.21 243.14 204.43 
M 243.94 206.04 244.75 207.66 
M 205.46 122.77 207.47 126.8 
M 212.31 136.47 220.36 152.58 
M 233.34 178.54 239.7 191.24 
M 243.72 199.3 245.33 202.52 
M 246.14 204.13 246.95 205.74 
M 207.17 119.88 209.99 125.52 
M 214.82 135.19 222.07 149.69 
M 236.19 177.93 241.4 188.36 
M 208.88 116.99 212.5 124.24 
M 218.14 135.52 224.58 148.41 
M 225.39 150.02 226.2 151.63 
M 238.96 177.16 243.92 187.08 
M 210.58 114.11 214.21 121.36 
M 220.65 134.24 227.9 148.75 
M 241.71 176.35 242.4 177.75 
M 243.21 179.36 244.82 182.58 
M 212.69 112.02 213.5 113.63 
M 214.31 115.25 215.11 116.86 
M 223.97 134.58 224.78 136.19 
M 225.58 137.8 228.81 144.25 
M 245.72 178.08 246.53 179.69 
M 247.33 181.3 248.14 182.91 
M 214 108.33 216.82 113.97 
M 257.1 194.52 257.9 196.14 
M 258.71 197.75 260.32 200.97 
M 215.71 105.44 216.11 106.25 
M 216.92 107.86 218.53 111.08 
M 219.33 112.69 223.36 120.75 
M 244.31 162.64 245.72 165.47 
M 256.39 186.8 257.19 188.41 
M 258 190.03 263.64 201.3 
M 217.82 103.36 225.07 117.86 
M 245.21 158.14 246.01 159.75 
M 246.82 161.36 248.98 165.68 
M 259.71 187.14 260.51 188.75 
M 262.13 191.97 267.76 203.25 
M 219.53 100.47 220.33 102.08 
M 221.14 103.69 228.39 118.19 
M 237.25 135.91 240.47 142.36 
M 248.53 158.47 252.18 165.78 
M 255.7 172.82 255.78 172.97 
M 260.61 182.64 263.03 187.47 
M 263.83 189.08 270.28 201.97 
M 222.04 99.19 227.68 110.47 
M 228.49 112.08 229.29 113.69 
M 238.15 131.42 242.99 141.08 
M 243.79 142.69 244.6 144.3 
M 250.24 155.58 255.62 166.34 
M 263.93 182.97 265.54 186.19 
M 266.35 187.81 272.79 200.69 
M 273.6 202.31 274.4 203.92 
M 226.17 101.14 228.58 105.97 
M 229.39 107.58 230.19 109.19 
M 231 110.8 232.61 114.03 
M 239.86 128.53 247.92 144.64 
M 253.56 155.92 255.17 159.14 
M 255.97 160.75 259.19 167.19 
M 268.06 184.92 275.31 199.42 
M 277.89 204.58 278.45 205.71 
M 231.1 104.69 231.9 106.31 
M 240.76 124.03 242.37 127.25 
M 243.99 130.47 250.43 143.36 
M 257.68 157.86 258.49 159.47 
M 259.29 161.08 261.71 165.92 
M 269.76 182.03 275.4 193.31 
M 276.21 194.92 277.01 196.53 
M 281.03 204.56 281.42 205.35 
M 244.08 124.36 252.94 142.08 
M 273.89 183.97 278.72 193.64 
M 281.94 200.09 282.75 201.7 
M 283.56 203.31 284.39 204.99 
M 247.4 124.7 249.82 129.53 
M 250.62 131.14 255.46 140.81 
M 282.04 193.97 285.26 200.42 
M 286.07 202.03 287.36 204.61 
M 253.14 129.86 256.36 136.31 
M 285.36 194.31 290.29 204.17 
M 231.08 79.45 231.48 80.25 
M 232.29 81.86 233.1 83.47 
M 256.39 130.06 257.19 131.67 
M 287.8 192.89 293.22 203.72 
M 232.79 76.56 233.19 77.36 
M 234 78.98 234.8 80.59 
M 279.03 169.05 282.26 175.49 
M 291.12 193.21 296.14 203.27 
M 234.5 73.67 237.39 79.46 
M 268.67 142.02 269.48 143.63 
M 270.28 145.24 271.9 148.47 
M 279.95 164.58 285.59 175.86 
M 292.84 190.36 293.65 191.97 
M 295.26 195.19 299.04 202.75 
M 236.21 70.78 237.28 72.92 
M 269.62 137.6 276.06 150.49 
M 282.51 163.38 289.76 177.88 
M 299.42 197.21 300.23 198.82 
M 237.91 67.89 238.3 68.67 
M 272.98 138.02 278.61 149.29 
M 279.42 150.9 280.23 152.52 
M 285.86 163.79 291.5 175.07 
M 239.62 65.01 239.63 65.02 
M 274.72 135.2 276.33 138.42 
M 277.14 140.03 281.97 149.7 
M 288.41 162.59 294.05 173.86 
M 277.26 133.98 284.51 148.48 
M 294.18 167.82 294.98 169.43 
M 243.03 59.2 243.04 59.23 
M 280.61 134.38 281.42 135.99 
M 282.22 137.6 283.03 139.21 
M 283.83 140.82 284.64 142.43 
M 285.45 144.04 287.06 147.27 
M 309.61 192.38 312.91 198.97 
M 284.79 136.42 285.59 138.03 
M 311.37 189.59 312.18 191.2 
M 312.98 192.81 315.4 197.65 
M 316.03 198.91 316.26 199.36 
M 311.55 183.64 312.36 185.25 
M 313.16 186.87 318.77 198.07 
M 314.95 184.14 321.5 197.25 
M 301.46 150.85 302.26 152.46 
M 317.57 183.07 324.01 195.96 
M 324.66 197.25 324.9 197.73 
M 301.71 145.05 302.51 146.66 
M 304.93 151.49 305.74 153.1 
M 306.54 154.71 308.15 157.93 
M 319.43 180.49 321.04 183.71 
M 321.85 185.32 326.68 194.99 
M 304.37 144.07 305.99 147.3 
M 306.79 148.91 311.62 158.57 
M 326.12 187.57 327.74 190.8 
M 305.45 139.92 307.06 143.15 
M 307.87 144.76 309.48 147.98 
M 310.29 149.59 314.31 157.65 
M 308.19 139.09 317.85 158.42 
M 310.11 136.64 319.78 155.97 
M 313.65 137.41 314.46 139.03 
M 315.27 140.64 320.9 151.91 
M 321.71 153.53 322.52 155.14 
M 318 139.81 323.64 151.09 
M 333.31 170.42 334.92 173.64 
M 335.73 175.25 337.34 178.48 
M 338.14 180.09 338.95 181.7 
M 320.74 138.98 322.35 142.2 
M 334.44 166.37 339.27 176.04 
M 341.69 180.87 343.3 184.09 
M 347.39 192.27 347.85 193.2 
M 337.16 165.52 337.97 167.13 
M 338.77 168.74 346.02 183.24 
M 350.18 191.55 350.71 192.61 
M 339.88 164.64 347.13 179.14 
M 347.93 180.76 348.74 182.37 
M 352.96 190.81 353.56 192.01 
M 342.59 163.77 349.04 176.66 
M 349.84 178.27 350.65 179.88 
M 354.68 187.94 355.48 189.55 
M 356.15 190.88 356.41 191.4 
M 346.1 164.48 350.13 172.53 
M 351.74 175.76 352.54 177.37 
M 358.18 188.65 359.26 190.8 
M 335.1 136.16 337.51 141 
M 338.32 142.61 339.93 145.83 
M 347.98 161.94 351.21 168.39 
M 352.01 170 353.62 173.22 
M 361.67 189.32 362.07 190.11 
M 337.79 135.24 338.59 136.85 
M 339.4 138.46 345.04 149.74 
M 340.78 134.93 341.19 135.74 
M 341.99 137.35 346.82 147.01 
M 344.1 135.26 348.53 144.12 
M 347.42 135.59 351.04 142.84 
M 372.75 186.26 373.11 186.98 
M 350.33 135.11 350.81 136.07 
M 372.66 179.77 373.46 181.38 
M 375.22 184.9 375.78 186 
M 360.86 149.86 361.66 151.47 
M 375.36 178.86 378.44 185.03 
M 362.75 147.35 363.56 148.96 
M 364.36 150.57 367.59 157.01 
M 379.67 181.18 381 183.84 
M 354.24 124.01 355.04 125.62 
M 355.85 127.23 358.26 132.06 
M 364.72 144.97 367.13 149.8 
M 367.94 151.41 371.16 157.86 
M 382.54 180.62 383.05 181.64 
M 356.09 121.41 362.53 134.3 
M 366.73 142.7 369.95 149.14 
M 370.76 150.75 374.79 158.81 
M 384.58 178.38 385.1 179.43 
M 358.3 119.53 364.75 132.42 
M 368.1 139.13 368.63 140.19 
M 369.55 142.03 370.36 143.65 
M 371.16 145.26 376 154.92 
M 361.61 119.85 368.86 134.35 
M 373.37 143.37 374.98 146.59 
M 375.79 148.2 380.62 157.87 
M 365.07 120.46 370.71 131.74 
M 376.88 144.07 378.08 146.49 
M 378.89 148.1 382.92 156.15 
M 368.64 121.3 371.87 127.75 
M 380.85 145.72 382.06 148.13 
M 386.09 156.19 386.89 157.8 
M 387.7 159.41 390.12 164.25 
M 387.43 152.56 391.07 159.85 
M 222.23 291.39 220.33 297.7 
M 222.23 291.39 224.54 297.7 
M 226.43 291.39 224.54 297.7 
M 231.5 293.5 230.24 297.7 
M 231.23 294.39 230.81 293.8 230.3 293.5 229.4 293.5 228.71 293.8 227.93 294.39 227.36 295.3 227.18 295.89 227.21 296.8 227.63 297.39 228.14 297.7 229.04 297.7 229.73 297.39 230.51 296.8 
M 233.9 293.5 232.64 297.7 
M 233.54 294.7 234.71 293.8 235.4 293.5 236.3 293.5 236.81 293.8 236.83 294.7 235.94 297.7 
M 240.23 291.39 238.33 297.7 
M 245.3 293.5 244.04 297.7 
M 245.02 294.39 244.61 293.8 244.1 293.5 243.2 293.5 242.51 293.8 241.73 294.39 241.16 295.3 240.98 295.89 241.01 296.8 241.43 297.39 241.94 297.7 242.83 297.7 243.52 297.39 244.31 296.8 
M 250.73 294.39 250.31 293.8 249.8 293.5 248.9 293.5 248.21 293.8 247.43 294.39 246.86 295.3 246.68 295.89 246.71 296.8 247.13 297.39 247.64 297.7 248.54 297.7 249.23 297.39 250.01 296.8 
M 253.73 291.39 251.83 297.7 
M 252.74 294.7 253.91 293.8 254.6 293.5 255.5 293.5 256.01 293.8 256.03 294.7 255.14 297.7 
M 258.8 293.5 257.89 296.5 257.93 297.39 258.44 297.7 259.33 297.7 260.02 297.39 261.2 296.5 
M 262.1 293.5 260.83 297.7 
M 267.22 294.39 267.11 293.8 266.3 293.5 265.39 293.5 264.4 293.8 263.93 294.39 264.05 295 264.55 295.3 265.97 295.6 266.47 295.89 266.51 296.8 266.02 297.39 265.03 297.7 264.14 297.7 263.33 297.39 263.21 296.8 
M 275.89 293.5 274.64 297.7 
M 275.63 294.39 275.2 293.8 274.7 293.5 273.8 293.5 273.11 293.8 272.33 294.39 271.76 295.3 271.58 295.89 271.61 296.8 272.02 297.39 272.53 297.7 273.44 297.7 274.13 297.39 274.9 296.8 
M 278.29 293.5 277.03 297.7 
M 277.94 294.7 279.11 293.8 279.79 293.5 280.7 293.5 281.2 293.8 281.24 294.7 280.33 297.7 
M 284 293.5 282.74 297.7 
M 283.45 295.3 284.02 294.39 284.81 293.8 285.5 293.5 286.39 293.5 
M 287.89 293.5 287 296.5 287.02 297.39 287.53 297.7 288.44 297.7 289.13 297.39 290.29 296.5 
M 291.2 293.5 289.94 297.7 
M 296.33 294.39 296.2 293.8 295.39 293.5 294.5 293.5 293.51 293.8 293.02 294.39 293.14 295 293.65 295.3 295.07 295.6 295.58 295.89 295.61 296.8 295.13 297.39 294.14 297.7 293.24 297.7 292.42 297.39 292.31 296.8 
M 297.91 297.1 297.52 297.39 297.74 297.7 298.13 297.39 297.91 297.1 
"/></svg>
