<svg xmlns="http://www.w3.org/2000/svg" width="520" height="320"><rect x="0" y="0" width="520" height="320" fill="floralwhite"/><rect x="10" y="10" width="500" height="300" stroke="black" stroke-width="1" fill="none"/><path stroke="black" stroke-width="1" fill="none" stroke-linecap="round" stroke-linejoin="round" d="
M 135.69 110.33 140.54 110.14 151.22 110.24 161.89 110.61 183.17 112.37 193.83 112.97 204.44 114.16 214.86 116.47 225.22 119.08 235.74 120.9 256.9 123.75 267.51 124.95 288.79 126.7 309.96 129.52 320.58 130.63 341.86 132.42 352.48 133.51 363.01 135.29 367.06 136.93 
M 367.06 180.44 363.58 182.48 353.35 185.54 343.01 188.2 332.57 190.43 322.05 192.25 311.48 193.81 300.89 195.12 290.26 196.21 279.7 197.74 269.18 199.55 258.6 201.05 247.97 202.04 237.32 202.8 226.66 203.35 215.98 203.46 205.31 203.77 194.66 204.54 184 205.04 151.97 205.5 141.29 205.33 130.65 204.52 126.18 203.94 
M 137.89 143.05 139.33 143.23 
M 147.03 144.18 150.77 144.56 
M 162.14 145.93 168.04 146.97 179.05 148.08 185.18 149.13 
M 189.26 149.77 193.26 150.32 
M 201 151.22 204.67 151.49 
M 262.83 153.98 270.14 155.09 274.38 155.52 277.95 155.2 279.47 154.78 
M 282.44 153.92 283.9 153.48 287.06 152.94 290.55 152.77 296 152.96 
M 299.61 153.21 304.98 153.56 308.22 153.44 312.63 152.84 
M 315.55 152.4 320.2 152.01 325.32 152.07 
M 332.04 152.04 336.95 151.84 340.49 151.97 367.06 153.97 
M 136.91 198.16 138.56 201.89 
M 143.36 110.17 142.79 111.13 
M 142.54 185.07 144.33 189.27 
M 148.89 200.06 150.22 203.36 
M 143.01 131.27 137.92 140.95 
M 155.24 188.1 156.85 191.73 
M 159.23 198.03 160.26 200.97 
M 161.56 204.2 162.05 205.33 
M 158.83 124.26 156.96 127.09 
M 151.96 136.51 150.41 139.88 
M 149.06 142.96 148.48 144.34 
M 166.29 187.04 169.53 195.05 171.81 200.17 
M 173.04 203.26 173.57 204.71 
M 168.39 129.97 166.5 132.75 
M 160.13 144.48 159.62 145.46 
M 178.98 191.45 180.27 195.57 181.95 200.02 
M 185.14 123.85 182.6 128.24 180.67 133.2 
M 175.13 141.49 171.76 146.52 
M 188.55 187.58 189.26 190.14 
M 190.42 193.18 193.09 199.95 
M 195.3 129.84 194.42 131.28 192.35 133.83 191.47 135.25 
M 189.86 138.23 188.32 141.26 
M 186.51 144.02 185.52 145.32 182.43 148.68 
M 197.23 181.44 198.87 186.68 
M 201.06 192.66 202.52 196.39 
M 208.82 125.75 204.24 135.51 
M 202.73 138.67 201.1 141.67 
M 199.35 144.51 198.44 145.9 196.39 148.44 194.52 150.47 
M 208.52 182 210.25 187.43 
M 211.17 190.27 212.36 194.45 213.12 196.42 
M 217.91 131.18 214.1 139.64 211.33 144.03 
M 207.14 149.89 205.75 151.52 
M 217.04 175.04 219.11 179.76 221.62 186.94 
M 222.54 189.82 224.26 194.56 227.4 201.93 
M 228.07 131.13 226.84 132.5 225.84 134.05 
M 224.07 137.36 221.27 144.5 
M 219.88 147.98 219.17 149.69 218.14 151.45 
M 226.37 170.91 226.72 171.68 
M 228 174.7 231.4 183.63 
M 236.31 198.64 237.51 202.03 
M 242.15 128.63 239.65 131.52 
M 237.42 134.64 236.41 136.28 234.06 141.76 
M 231.09 148.99 229.74 152.61 
M 234.71 167.28 235.42 169.19 
M 237.6 175.02 240.23 181.51 
M 241.51 184.78 248.53 201.99 
M 249.21 135.36 247.23 138.86 
M 245.38 142.42 240.28 152.99 
M 244.99 168.74 246.56 172.27 
M 248.89 178.64 251 183.88 254.52 191.62 258.27 201.08 
M 266.34 124.82 259.55 137.29 256.35 142.5 
M 254.06 145.76 252.89 147.35 251.89 149.08 
M 250.08 152.38 249.59 153.33 
M 257.69 173.28 260.54 181.52 268.42 199.65 
M 275.61 127.7 274.41 129.35 273.38 131.18 
M 271.46 134.99 267.05 144.92 264.87 148.43 260.06 153.71 
M 266.31 167.23 267.09 169.09 268.72 174.04 
M 270.08 177.62 273.02 185 
M 275.5 191.77 278.24 197.99 
M 288.2 129.58 282.05 137.75 279.96 141.46 279.06 143.46 
M 275.47 151.44 274.52 153.38 273.16 155.48 
M 276.34 164.15 277.18 167.25 
M 278.14 170.49 279.33 173.97 
M 280.7 177.62 285.22 189.77 287.95 196.54 
M 298.71 130.89 282.96 153.72 
M 288.86 172.43 290.12 175.97 
M 291.53 179.61 293.75 185.06 298.48 195.37 
M 307.72 131.42 305.12 136.99 302.95 140.42 296.48 148.27 
M 297.03 165.01 298.33 168.6 
M 301.16 175.83 303.07 180.84 303.95 182.68 
M 307.69 190.06 309.7 194.03 
M 316.99 130.25 315.24 133.53 311.97 140.86 310.13 144.5 309.05 146.22 
M 306.79 149.58 303.76 153.53 
M 305.76 158.87 307.09 162.39 
M 309.81 169.31 313.28 177.56 316.75 184.36 321.24 192.36 
M 326.26 131.13 325.05 133.17 
M 323.25 136.28 318.16 144 313 152.79 
M 316.25 160.95 318.61 166.04 321.33 171.23 
M 323.23 174.64 326.25 179.74 333.1 190.31 
M 332.5 137.83 329.97 142.47 327.95 145.4 322.25 152.02 
M 328.3 163.54 333.38 171.74 344.52 187.2 
M 344.06 137.5 342.95 138.6 340.94 141.07 339.03 143.74 332.36 152.04 
M 333.22 153.54 335.01 156.55 
M 341.17 165.71 346.89 173.24 354.92 182.98 
M 353.7 140.21 350.46 143.47 346.33 148.26 342.62 152.12 
M 350.25 162.15 359.55 172.87 
M 361.66 175.23 363.96 177.77 
M 304.99 132.19 306.48 131.63 307.16 131.61 310.58 132.37 311.15 132.69 311.51 133.11 311.75 135.1 
M 332.81 155.23 332.23 153.99 331.47 153.08 331.52 152.03 332.23 150.39 
M 168.72 129.43 169.64 128.26 170.96 125.09 172.01 123.36 172.7 121.72 
M 338.64 150.41 335.93 150.15 333.77 150.91 333.49 150.84 333.23 150.47 
M 292.04 139.78 291.36 139.8 290.35 139.57 289.43 138.82 288.8 137.24 288.28 134.43 
M 263.81 149.9 262.09 151.96 262 152.43 262.18 153.44 
M 256.46 179.38 256.33 179.86 256.81 180.64 256.92 181.21 
M 286.54 131.35 286.06 133.76 286.08 134.41 
M 185.06 194.4 187.75 195.54 189.9 196.08 191.01 196.6 194.47 199.42 
M 336.5 183.89 338.97 187.3 340.47 188.74 
M 360.01 151.79 357.56 149.77 355.75 147.27 353.94 145.32 
M 296.28 169.5 295.8 170.27 293.66 171.28 293.02 171.42 291.98 171.28 
M 133.05 194.55 131.74 196.48 131.15 198.03 131.21 198.66 131.42 198.95 132.41 198.93 
M 181.81 117.97 181.74 119.4 181.27 120.41 180.41 121.43 179.1 121.99 
M 194.97 191.14 196.72 193.71 197.67 196.01 198.84 197.59 199.16 197.76 
M 320.32 150.55 321.59 149.29 324.2 147.76 325.27 146.97 325.68 146.41 
M 295.79 148.28 294.88 148.08 294.29 148.33 293.85 149.82 
M 184.3 147.32 184.37 146.36 184.04 145.52 182.17 143.73 181.18 143.13 180.33 142.86 178.76 142.73 176.51 143.18 
M 290.44 149.4 289.55 147.62 289.07 146.15 289.04 145.27 289.53 142.78 289.1 140.27 
M 245.31 170.32 245.47 169.36 245.08 168.93 
M 332.07 174.94 331.78 173.94 
M 179.69 138.32 178.95 139.61 178.13 141.92 177.82 142.36 177.06 142.88 174.66 143.35 
M 231.99 125.98 232.26 123.47 232.04 120.26 
M 317.54 176.37 319.02 174.19 319.08 173.7 318.86 172.96 
M 272.68 163.42 271.04 161.67 270.06 161.08 268.39 160.55 266.92 160.39 
M 145.61 149.57 145.65 148.32 145.07 146.05 
M 242.09 126.96 241.94 126.62 241.98 126.1 242.16 125.83 242.35 125.91 
M 214.55 176.07 216.09 174.28 216.47 173.6 
M 225.04 129 223.6 128.99 221.85 129.59 220.83 129.78 217.36 129.62 
M 201.85 112.62 262.88 62.39 263.46 63.08 204.87 114.25 
M 214.87 115.62 259.28 74.71 259.9 75.35 217.78 117.27 
M 227.82 118.82 257.04 86.03 257.72 86.61 230.82 120.22 
M 241 120.85 258.41 96.84 259.16 97.34 244.08 121.99 
M 254.23 122.79 263.8 108.02 264.58 108.46 257.31 123.8 
M 267.49 124.46 271.63 117.88 272.45 118.24 270.58 125.26 
M 278.2 125.38 279.73 125.9 
M 257.5 68.28 255.8 70.33 255.11 71.4 254.61 72.52 254.32 73.69 254.32 76.18 254.84 78.8 
M 255.62 79.61 254.15 81.59 253.21 83.65 253.04 84.73 253.09 85.84 253.32 86.98 254.12 89.31 
M 254.98 90.04 254.22 92.29 254.02 93.39 254 94.45 254.19 95.47 255.16 97.41 256.67 99.24 
M 257.61 99.87 257.76 102.56 257.99 103.82 258.39 104.99 258.97 106.06 260.67 107.91 262.84 109.5 
M 263.83 110.05 264.6 112.69 265.78 114.98 266.6 115.92 267.58 116.73 268.71 117.41 271.22 118.54 
M 272.25 118.99 272.99 121.31 274.11 123.25 274.88 123.99 275.8 124.59 276.85 125.05 279.19 125.72 
M 256.61 69.29 255.11 71.4 254.61 72.52 254.32 73.69 254.23 74.91 254.54 77.48 
M 251.11 74.66 249.79 76.52 249.08 78.54 249 79.62 249.28 81.89 
M 245.61 80.03 244.46 81.65 244.07 82.5 243.78 84.34 244.02 86.31 
M 240.1 85.4 239.13 86.77 238.61 88.26 238.55 89.05 238.76 90.72 
M 234.6 90.77 233.53 92.49 233.33 93.76 233.49 95.13 
M 229.1 96.14 228.47 97.02 228.14 97.97 228.23 99.55 
M 254.85 80.59 253.59 82.61 253.21 83.65 253.04 84.73 253.09 85.84 253.68 88.14 
M 249.19 87.2 248.15 88.86 247.84 89.72 247.74 91.52 248.23 93.42 
M 243.53 93.8 242.71 95.11 242.36 96.49 242.39 97.21 242.77 98.7 
M 237.88 100.4 237.1 101.85 237.04 102.89 237.32 103.98 
M 254.57 91.17 254.02 93.39 254 94.45 254.19 95.47 254.58 96.46 255.88 98.33 
M 250.16 98.08 249.74 99.78 249.87 101.38 250.18 102.14 251.17 103.57 
M 245.76 105 245.47 106.18 245.56 107.29 246.46 108.82 
M 257.65 101.23 257.99 103.82 258.39 104.99 258.97 106.06 259.74 107.03 261.72 108.72 
M 137.73 147.71 279.42 153.33 279.39 154.23 137.51 150.8 
M 137.39 151.52 265.02 160.91 264.96 161.8 136.86 154.59 
M 136.74 155.28 250.53 167.55 250.44 168.44 136.26 158.34 
M 136.16 159.01 236 173.24 235.88 174.13 135.57 162.05 
M 135.43 162.67 221.48 177.99 221.33 178.87 134.81 165.7 
M 134.71 166.28 207.01 181.8 206.84 182.68 134.19 169.33 
M 134.1 169.88 192.64 184.68 192.44 185.55 134.08 173.02 
M 134.07 173.6 178.42 186.63 178.18 187.49 133.96 176.7 
M 133.92 177.3 164.38 187.66 164.12 188.51 133.7 180.32 
M 133.59 180.96 150.58 187.79 150.29 188.63 133.14 183.8 
M 133.34 183.86 137.06 185.96 136.75 186.8 132.83 185.98 
M 264.44 153.87 261.08 154.17 257.95 154.96 256.51 155.63 255.17 156.5 253.9 157.53 251.52 159.92 
M 251.44 161.04 248.13 161.13 245.03 161.72 243.59 162.3 242.23 163.07 240.93 164.02 238.48 166.25 
M 238.37 167.37 235.13 167.25 233.56 167.35 232.05 167.64 230.61 168.12 227.93 169.67 225.41 171.73 
M 225.26 172.85 222.09 172.52 219.06 172.71 217.63 173.1 216.25 173.7 214.92 174.47 212.35 176.36 
M 212.16 177.47 209.08 176.94 206.1 176.94 204.68 177.24 203.29 177.74 201.95 178.43 199.33 180.15 
M 199.11 181.26 196.12 180.53 193.21 180.33 191.8 180.54 190.42 180.95 189.06 181.55 186.4 183.1 
M 186.15 184.2 183.27 183.28 180.43 182.89 179.04 183 177.66 183.33 176.3 183.84 173.61 185.21 
M 173.32 186.3 170.56 185.2 169.18 184.82 167.81 184.63 166.43 184.65 163.7 185.31 160.98 186.5 
M 160.65 187.58 158.03 186.3 155.37 185.55 154.03 185.49 152.67 185.63 151.31 185.96 148.57 186.98 
M 148.2 188.04 145.82 186.37 143.32 185.23 142.01 184.96 140.65 184.89 139.26 185.01 136.4 185.59 
M 262.74 153.98 259.47 154.48 257.95 154.96 256.51 155.63 255.17 156.5 252.69 158.69 
M 239.5 153.43 236.8 153.84 235.54 154.23 233.25 155.5 231.21 157.31 
M 216.25 152.87 214.13 153.19 213.13 153.5 211.33 154.5 209.72 155.93 
M 193.01 152.31 190.73 152.77 189.41 153.5 188.23 154.55 
M 249.78 161.05 246.55 161.34 245.03 161.72 243.59 162.3 242.23 163.07 239.69 165.1 
M 228.8 159.88 226.13 160.12 224.88 160.44 222.57 161.55 220.48 163.22 
M 207.82 158.72 205.72 158.9 203.8 159.53 202.91 160.03 201.27 161.35 
M 186.85 157.55 184.59 157.86 183.26 158.51 182.06 159.47 
M 236.74 167.27 233.56 167.35 232.05 167.64 230.61 168.12 229.24 168.81 226.66 170.66 
M 211.81 165.1 209.37 165.16 207.11 165.75 206.06 166.27 204.08 167.7 
M 186.88 162.92 184.38 163.12 182.88 163.74 181.51 164.73 
M 223.67 172.65 220.55 172.52 219.06 172.71 217.63 173.1 216.25 173.7 213.62 175.38 
M 201.79 170.05 199.4 169.96 198.26 170.1 196.1 170.86 194.09 172.15 
M 179.91 167.46 177.46 167.49 175.96 168.02 174.56 168.92 
M 210.61 177.17 207.57 176.85 206.1 176.94 204.68 177.24 203.29 177.74 200.63 179.25 
M 182.37 172.95 180.39 172.74 179.43 172.8 177.61 173.32 175.88 174.3 
M 197.61 180.86 194.65 180.34 193.21 180.33 191.8 180.54 190.42 180.95 187.73 182.29 
M 173.92 176.6 171.99 176.26 170.14 176.39 169.24 176.66 167.49 177.53 
M 184.71 183.7 181.84 182.99 180.43 182.89 179.04 183 177.66 183.33 174.95 184.49 
M 171.93 185.71 169.18 184.82 167.81 184.63 166.43 184.65 165.07 184.89 162.34 185.87 
M 202.89 203.88 211.05 209.18 214.23 212.11 225.29 228.73 223.9 231.07 222.19 233.11 220.73 235.45 219.14 237.61 216.7 238.95 214.92 240.71 213.35 242.79 211.49 244.69 210.63 247.6 208.01 246.44 202.74 243.38 198.43 241.28 195.76 242.07 193.36 243.28 188.62 245.03 176.43 233.68 161.46 216.68 160.56 213.59 158 209.36 154.87 205.49 
M 198.43 204.24 202.17 206.99 207.52 210.02 209.96 212.09 212.61 214.85 216.83 221.47 
M 193.97 204.6 197.05 208.13 207.13 214.86 212.4 220.37 216.78 226.36 
M 189.5 204.81 192.69 207.86 195.5 211 197.91 213.37 200.13 215.27 201.77 217.26 203.09 219.48 
M 185.03 205 188.06 207.88 193.17 213.48 196.61 217.74 198.14 220.39 199.35 222.95 
M 180.56 205.1 185.71 210.73 188.22 212.73 190.26 214.93 191.94 217.73 192.8 220.16 194.67 223.12 196.13 225.88 
M 176.09 205.17 178.73 208.23 180.7 211.43 185.39 215.36 190.53 222.58 191.89 225.67 192.45 227.59 195.77 230.51 196.98 233.17 201.49 238.12 203.69 241.77 206.92 244.26 
M 171.62 205.22 174.68 208.32 178.03 214.26 179.89 216.62 181.85 217.95 183.52 220.12 184.67 222.23 186.89 228.92 189.41 230.84 191.34 233.25 
M 167.14 205.25 172.34 211.39 174.07 213.85 175.72 216.86 177.18 218.91 179.17 220.53 182.53 224.68 
M 162.67 205.32 164.94 208.83 167.22 211.23 169.68 214.29 171.24 216.95 172.61 219.72 176.27 223.66 177.89 225.68 
M 158.2 205.42 160.34 209.12 162.17 211.91 163.85 214.06 166.44 216.79 168 219.56 170.22 222.8 172.47 225.58 
M 337.35 189.52 341.64 195.87 345.54 200.48 348.64 207.93 345.51 208.53 342.17 208.91 340.23 209.86 335.35 211.37 331.05 213.42 328.3 214.06 325.86 215.27 320.3 216.96 318.19 218.43 314.14 220.59 312.09 221.46 309.35 221.28 306.66 220.27 303.54 218.84 296.77 217.85 293.76 217.86 291.04 218.11 288.75 218.75 282.69 218.09 278.69 218.71 275.86 218.06 267.39 211.19 264.04 205.19 260.52 200.85 
M 332.96 190.35 335.94 193.84 340.61 201.14 
M 328.56 191.19 336.33 200.27 338.96 204.22 341.48 206.9 342.61 209.48 
M 324.15 191.91 327.34 194.91 329.04 197.9 331.46 200.79 334.58 203.57 336.75 206.34 337.74 208.87 
M 319.73 192.61 323.02 196.2 324.87 199.23 326.73 202.68 329.55 205.05 
M 315.3 193.26 319.04 196.9 320.59 200.02 321.9 203.4 
M 310.88 193.9 314.26 198.31 318.66 203.08 321.56 208.9 322.97 210.45 
M 306.44 194.47 308.91 198.62 311.2 201.35 314.1 204.14 316.05 207.12 
M 302 194.99 304.23 199.13 306.05 201.83 310.32 206.84 
M 297.55 195.48 299.96 198.64 301.82 201.81 303.29 205.04 304.45 206.96 308.66 211.8 
M 293.1 195.93 295.92 199.18 299.3 204.82 300.58 207.65 
M 288.65 196.4 291.68 200.06 293.13 202.54 296.77 207.4 
M 284.23 197.06 287.27 200.82 288.77 204.2 290.53 206.25 293.11 208.21 
M 279.8 197.72 282.47 201.35 284.07 204.55 285.88 207.15 287.78 209.53 289.6 212.82 
M 275.39 198.49 278.45 201.48 280.35 203.85 282.41 207.02 284.21 210.5 286.86 216.89 
M 270.99 199.25 274.11 202.2 276.47 204.83 277.92 207.98 281.07 215.65 
M 266.56 199.94 268.87 203.78 274.19 210.55 275.4 214.18 
M 366.17 135.92 369.31 135.37 371.47 134.36 373.68 132.84 378.91 130.49 381.38 128.83 384.13 127.63 386.05 125.83 388.48 124.54 394.14 122.42 396.77 120.93 398.8 119.46 400.15 116.96 401.72 114.82 404.07 112.78 406.79 112.28 408.88 111.54 411.29 111.19 414.06 109.17 416.88 109.18 427.25 107.03 438.16 109.01 440.57 109.24 443.87 110.38 448.97 111.14 454.88 113.81 459.27 115.44 462.48 117.75 467.24 121.63 474.83 129.97 480.22 136.16 480.73 138.45 481.62 141.19 483.62 145.03 484.75 147.97 486.15 152.94 488.8 159.03 489.43 161.38 489.66 163.64 489.26 165.87 489.76 169.01 490 172.11 488.6 174.34 486.92 176.28 485.85 178.83 484.6 181.2 479.74 187.6 478.47 189.96 476.61 191.65 475.32 193.92 475.18 197.44 473.02 199.03 471.24 200.99 469.13 202.63 465.91 203.18 463.53 204.59 461.91 206.76 458.4 210.75 456.43 212.28 454.23 213.57 451.76 214.6 448.47 214.81 442.07 214.91 439.46 215.54 437.42 216.64 434.95 217.19 432.36 217.63 429.04 217.33 427.38 217.56 418.72 220.81 416.97 218.95 411.71 215.95 409.57 214.48 407.17 211.94 404.76 208.46 401.84 206.75 400.22 205.27 398.39 204.22 395.88 203.91 390.72 199.45 388.93 197.33 384.2 194.74 379.27 190.94 374.01 187.9 371.99 185.8 366.17 181.67 
M 371.74 136.85 373.91 135.42 376.18 134.25 379.66 132.99 382.61 131.59 385.31 130.95 398.03 124.25 400.14 122.96 402.94 118.87 405.29 117.53 408.42 116.89 412.01 116.88 
M 369.4 140.17 374.08 138 376.8 136.94 379.77 136.05 382.89 134.64 386.07 133.96 388.48 132.92 389.99 131.36 394.77 129.39 397.38 127.8 400.27 126.42 405.17 122.67 410.41 120.49 413.67 119.85 417.17 118.14 420.3 115.91 423.18 114.6 425.64 114.09 427.81 113.37 
M 366.17 142.78 369.41 142.45 371.96 141.64 376.67 139.7 379.79 139.19 382.85 138.32 388.2 135.73 390.63 134.89 392.76 133.06 395.16 131.86 397.77 131.59 400.71 130.5 403.93 129.81 406.5 128.26 
M 374.34 143.39 376.82 142.56 380 141.86 382.7 141.61 385.27 141.14 388.09 139.67 390.47 138.04 393 136.68 395.77 135.96 398.93 135.83 404.3 134.55 407.16 133.19 408.79 132.01 414.88 130.37 420.52 129.32 425.63 127.25 427.29 127.03 431.3 124.46 
M 366.17 147.36 369.63 147.2 372.38 146.34 382.94 144.76 385.7 144.55 387.79 143.35 390.91 142.15 396.83 140.56 401.79 139.81 407.33 137.76 418.32 134.2 
M 372.47 149.09 375.15 148.51 380.93 147.87 386.15 147.04 389.08 146.1 391.81 145.73 399.1 144.27 401.88 144.1 404.41 143.49 407.68 142.38 412.87 141.22 416.55 140.65 419.69 140.65 421.68 140.11 427.25 139.39 429.05 138.52 431.69 137.71 434.56 137.46 437.01 137.65 439.73 136.36 444.9 135.24 447.93 133.26 450.49 132.34 454.11 131.84 457.69 130.91 461.05 131.29 463.24 131.8 465.28 131.56 
M 366.17 151.93 369.62 152.07 378.11 150.78 386.7 149.71 389.2 149.79 398.75 148.59 401.67 148.64 404.44 148.37 407.03 147.53 410.03 147.29 413.22 147.38 416.16 147.11 419.7 146.44 423.21 145.57 425.53 144.89 428.11 143.82 433.09 142.67 435.36 142.37 438.78 142.79 441.56 143.74 444.56 142.41 448.99 140.81 454.89 139.48 457.98 139.9 460.25 139.97 461.88 138.74 465 139.03 474.7 138.58 480.23 137.75 
M 369.59 154.5 375.44 154.02 380.66 153.26 383.65 153.37 386.43 153.18 391.93 153.54 394.75 152.8 396.84 153.06 402.39 152.4 404.61 152.55 407.17 153.34 410.56 152.89 413.45 152.35 416.62 151.48 419.9 150.95 423.3 150.79 425.96 150.34 429.09 150.26 432.02 150.49 434.56 149.55 437.15 149.28 443.46 149.29 447.02 148.29 
M 366.17 156.51 369.45 156.8 372.41 156.74 375.03 157.01 377.76 156.74 380.45 156.73 386.52 157.11 394.81 157.03 403.88 156.53 409.08 157.1 411.04 157.56 413.38 157.61 419.76 155.04 425.37 155.62 428.42 156.28 431.45 157.24 433.89 156.64 437.22 156.12 439.69 154.77 442.17 154.5 445.29 154.9 448.02 154.78 450.22 155.59 452.85 154.31 455.79 153.38 459.5 153.8 466.94 153.48 470.32 152.75 
M 375.15 159.67 377.79 159.64 380.66 159.9 383.39 160.62 389.02 161.13 397.33 161.61 400.87 161.3 404.3 160.69 406.43 161.65 408.81 161.9 416.33 162.03 419.05 161.13 421.95 160.83 424.09 161.46 430.12 163.85 432.82 163.27 435.39 161.6 438.56 160.34 441.14 160.78 444.06 161.5 447.39 161.28 450.12 160.8 453.09 162.21 456.67 163.52 458.85 163.67 461.34 163.32 463.8 161.48 467.05 161.69 469.68 162.46 472.13 161.8 473.76 162.37 476.02 162.44 483.38 162.16 
M 369.55 161.82 372.41 162.23 375.33 162.18 380.67 163.17 383.17 163.17 385.5 163.49 388.36 163.64 394.6 165.24 402.98 165.17 406.03 165.53 414.51 167.08 417.2 167.24 420.42 166.31 422.91 165.36 425.36 166.7 427.4 168.28 430.31 168.89 435.66 169.41 441.12 170.78 444.62 169.9 452 168.73 453.5 169.2 456.12 169.13 
M 366.17 163.37 369.43 164.42 372.21 165.05 375.02 165.28 380.32 166.16 382.94 166.4 388.72 167.27 391.28 168.18 396.72 168.92 405.45 170.45 408.13 170.66 411.52 171.71 416.59 172.57 419.8 171.53 422.71 171.58 425.14 171.87 427.49 173.16 430.49 174.17 433.23 174.29 435.6 175.69 437.11 175.95 439.96 176.22 443.4 175.83 447.49 175.77 451.17 176.41 453.3 176.59 455.72 176.5 458.08 176.74 461.02 177.32 464.62 177.35 466.81 178.6 469.75 178.65 471.48 179.59 475.4 179.25 
M 371.79 167.72 377.29 169.02 383.03 169.58 385.61 170.1 388.62 170.92 393.66 172.95 396.83 173.07 399.86 173.85 403.38 174.02 406.32 174.74 409 174.36 411.06 174.68 413.21 175.43 416.13 175.93 418.88 176.37 421.61 176.53 424.46 178.19 427.31 179.57 429.38 179.08 432.09 179.41 
M 366.17 167.95 369.28 169.41 372.05 170.38 374.92 170.98 379.86 172.45 383.26 172.53 386.15 173.38 394.23 177.39 397.35 178.01 400.92 177.71 403.69 178.48 410.11 179.31 412.04 180.26 415.05 181.29 418.55 182.72 422.09 183.56 424.66 184.71 427.22 185.33 429.68 185.29 435.47 187.08 
M 372.1 172.93 374.92 173.81 377.39 174.99 380.22 175.52 382.93 176.22 386.01 177.36 389.01 178.11 394.13 181.24 399.51 182.8 402.29 182.58 407.2 183.79 409.24 184.57 414.25 187 417.95 188.48 421.81 189.68 426.61 190.74 428.78 191.9 434.18 193.48 438.67 193.93 441.71 194.92 444.44 195.88 446.77 197.28 448.03 198.45 450.98 198.47 455.61 200.11 458.38 201.5 460.65 202.87 463.44 203.32 
M 369.12 174.24 371.72 175.36 374.28 176.9 377.04 178.05 382.5 179.29 385.21 180.53 387.94 181.49 393.66 183.87 398.55 184.94 401.14 186.23 403.83 187.28 406.05 188.65 408.33 188.67 410.68 190.33 413.51 191.68 420.39 192.93 424.85 194.6 
M 371.62 177.97 376.98 180.77 384.82 183.7 387.13 185.1 389.78 186.36 393.25 187.01 396.12 188.05 398.26 189.45 400.87 190.49 402.83 192.27 407.06 194.05 409.63 195.95 411.85 197.33 415 197.76 420.97 200.55 426.16 203.35 428.46 204.82 430.59 206.84 433.27 208.09 436.47 208.53 
M 374.43 182.27 379.22 184.99 384.5 187.49 386.92 189.04 390.27 190.19 394.46 193.52 396.23 194.67 398.27 195.79 404.1 197.74 406.71 199.86 
M 374.02 185.21 376.28 186.92 381.92 189.87 387.11 192.87 389.8 193.67 392.74 197.86 395.16 199.8 398.49 200.14 400.65 200.7 
M 354.79 182.9 351.17 183.67 349.69 184.59 348.35 185.75 345.7 187.6 346.96 187.28 
M 45.51 145.94 46.05 145.28 48.11 143.45 51.27 140.93 59.1 132.96 63.82 129.43 68.92 126.93 74.71 124.74 87.31 120.63 93.98 118.14 100.98 115.94 108.19 114.07 115.35 112.65 121.91 111.62 132.63 110.24 135.54 110.12 139.4 115.51 140.31 120.59 139.91 125.55 138.51 130.4 137.91 135.33 137.85 145.32 137.6 150.29 135.99 160.11 134.93 165 134.09 169.9 134.07 174.9 133.77 179.86 132.34 189.7 131.08 194.57 129.3 199.38 126.13 204.02 114.86 203.65 106.65 202.65 99.31 201.04 92.59 198.98 86.48 196.15 75.39 189.6 70.8 185.76 66.13 181.31 61.52 176.45 58.19 171.57 
M 53.48 165.62 51.16 162.96 48.48 159.49 46.75 156.13 
M 107.07 167.22 107.61 171.7 107.85 175.41 107.1 179.39 94.45 180.11 89.37 179.98 84.3 179.4 79.41 177.88 74.61 175.6 70.13 172.94 
M 57.02 170.63 44.69 153.29 42.41 149.57 42.33 147.31 43.97 145.73 46.22 146.04 47.53 147.84 51.28 156.05 58.63 171.37 
M 56.01 171.52 48.95 170.05 44.41 168.8 31.57 166.58 30 165.19 30.12 162.95 31.8 161.58 33.87 161.82 46.19 166.19 50.58 168.18 56.86 170.57 
M 57.52 170.82 58.34 171.14 
M 80.24 163.78 76 157.85 73.92 150.86 74.22 143.57 76.88 136.78 81.59 131.22 87.85 127.48 94.99 125.99 102.23 126.89 108.78 130.09 113.94 135.25 117.14 141.8 118.04 149.04 116.54 156.17 112.81 162.44 107.25 167.15 100.45 169.8 93.17 170.1 86.18 168.02 80.24 163.78 
M 110.33 137.82 112.89 143.06 113.61 148.85 112.42 154.56 109.43 159.57 104.98 163.34 99.54 165.47 93.71 165.71 88.12 164.04 83.37 160.65 
M 88.97 153.72 87.27 151.34 86.44 148.55 86.56 145.63 87.62 142.91 89.51 140.69 92.01 139.19 94.87 138.6 97.76 138.96 100.38 140.24 102.45 142.3 103.73 144.92 104.09 147.82 103.49 150.67 102 153.18 99.77 155.06 97.05 156.12 94.14 156.24 91.34 155.41 88.97 153.72 
M 87.48 150.03 93.5 156.05 
M 87.86 148 96.03 156.16 
M 92.38 150.1 98.02 155.74 
M 93.55 148.86 99.76 155.07 
M 92.5 145.39 101.07 153.96 
M 94.84 145.32 102.26 152.73 
M 97.49 145.55 103.16 151.22 
M 97.23 142.87 103.76 149.4 
M 99.24 142.46 104.02 147.24 
M 100.31 141.12 103.36 144.17 
M 48.36 159.26 50.56 161.46 
M 45.63 145.8 45.82 145.98 
M 47.13 147.3 49.53 149.69 
M 48.41 143.21 52.25 147.04 
M 51.39 140.82 55.78 145.21 
M 54.1 138.16 58.44 142.5 
M 56.75 135.44 60.59 139.28 
M 59.41 132.73 63.42 136.74 
M 62.48 130.43 65.48 133.43 
M 65.85 128.43 69.11 131.69 
M 69.5 126.71 73.53 130.75 
M 73.39 125.24 76.55 128.4 
M 77.4 123.88 82.52 129 
M 81.45 122.57 85.55 126.66 
M 85.49 121.23 90.21 125.95 
M 89.45 119.83 93.82 124.2 
M 93.36 118.37 96.45 121.46 
M 97.42 117.06 101.63 121.26 
M 101.53 115.8 104.24 118.51 
M 105.79 114.69 109.18 118.08 
M 110.15 113.68 114.31 117.85 
M 114.63 112.79 117.92 116.08 
M 119.24 112.04 123.35 116.15 
M 123.9 111.33 126.72 114.15 
M 128.62 110.68 131.6 113.66 
M 133.51 110.2 136.61 113.3 
M 127.54 162.51 125.29 163.4 121.21 164.29 120.01 165.31 
M 103.36 118.28 102.46 117.34 100.58 116.06 
M 131.86 151.63 133.83 147.77 135.17 145.76 135.38 145.21 135.37 144.7 134.93 143.73 
M 133.62 180.81 130.27 181.86 128.43 183.27 127.98 183.95 
M 123.66 169.66 121.03 169.51 119.31 170.04 
M 77.23 159.57 77.25 159.79 
M 71.64 127.75 68.2 127.29 
M 119.75 179.93 118.27 180.11 118.08 180.64 
M 124.45 170.74 121.24 170.33 119.63 170.54 
M 131.34 140.34 131.17 141.48 131.29 142.03 132.59 144.17 132.96 145.13 133.19 145.34 133.74 145.42 134.45 145.07 
M 66.17 175.95 64.93 176.46 64.72 176.43 64.63 176.05 
M 116.03 159.24 115.87 158.14 116.02 157.05 
M 116.62 155.81 118.02 154.35 
M 83.86 177.8 84.24 177.97 84.75 177.87 86.39 176.14 88.2 174.61 
M 107.42 191.14 106.62 189.28 104.31 185.36 103.52 182.2 103.45 181.29 
M 75.64 157.63 75.89 157.47 
M 79.65 163.41 79.78 163.14 
M 134.45 116.14 128.62 110.68 
M 117.33 191.2 118.54 193.5 119.29 195.38 119.52 196.46 119.18 197.4 118.17 198.62 
M 111.09 125.81 110.96 126.97 110.37 127.88 109.22 128.8 107.65 129.54 
M 94.06 118.89 92.48 119.19 91.75 118.97 
M 72.26 151.27 74.08 151.37 
M 64.26 143.97 61.48 145.82 61.05 146.33 61.14 146.89 62.12 148.99 
M 106.63 175.07 106.87 172.74 107.43 170.83 
M 93.84 125.89 94.27 126.14 
M 80.6 122.84 82.29 123.51 83.21 124.57 84.07 125.1 
M 73.94 170.48 73.53 170.57 73.1 170.93 72.46 172.41 71.29 174.25 69.38 179.36 
M 69.26 169.46 67.11 169.9 66.13 169.85 65.96 170.08 
M 120.32 119.05 120.09 120.94 119.39 122.12 
M 80.15 176.06 80.77 177.22 82.3 178.77 83.87 179.23 84.42 179.11 
M 69.93 146.48 71.7 146.87 72.23 146.62 72.81 145.94 73.61 145.85 
M 117.47 165.89 117.63 165.43 118.63 164.56 
M 135.96 141.85 135.36 143.26 134.89 143.74 
M 127.94 122.18 125.99 120.47 
M 63.98 157.98 65.69 157.65 68.9 155.87 71.69 155.52 
M 73.75 147.74 74.06 147.66 
M 78.78 165 78.91 163.7 79.56 162.83 
M 126.7 199.37 124.28 203.96 
M 131.54 121.42 130.36 122.04 129.67 122.1 128.73 121.68 127.97 120.78 
M 82.73 194.01 82.03 192.05 80.98 189.99 79.24 188.76 77.46 188.1 
M 131.11 146.36 131.38 145.75 131.79 145.52 133.57 145.48 134.13 145.32 134.65 144.79 134.76 144.23 
M 110.34 183.85 110.54 183.19 110.96 182.78 112.46 182.92 
M 138.08 119.78 137.59 120 136.94 120.61 134.81 120.78 
M 68.84 171.75 68.05 173.5 67.04 175.18 65.63 176.11 64.91 176.37 64.66 176.27 
M 119.92 181.55 119.04 181.19 118.51 181.18 117.34 181.88 
M 108.04 171.89 108.28 170.4 109.75 169.34 110.61 168.22 112.21 166.88 
M 118.33 151.37 118.38 150.34 118.02 149.15 
M 117.75 146.68 117.81 145.82 
M 98.85 171.97 98.66 169.88 
M 91.1 181.28 86.94 180.99 85.72 180.54 
M 135.94 142.53 135.37 143.38 134.89 143.74 
M 81.89 193.52 80.92 190.98 80.4 190.13 79.45 189.21 
M 122.38 134.42 121.61 134.59 119.83 134.5 117.83 133.86 116.11 133.65 112.82 132.69 111.12 132.43 
M 103.89 178.21 103.5 178 102.34 178.06 
M 66.87 182.02 67.58 181.4 68.03 181.31 69.5 181.79 70.34 181.74 
M 121.46 188.77 120.96 189.68 120.01 190.51 119.84 190.88 120.4 194.36 120.38 195.51 
M 76.31 138.24 73.65 138.24 71.58 138.91 
M 126.63 123.42 125.91 123.57 124.4 124.42 122.07 125.25 120.82 125.08 119.93 124.54 
M 66.36 129.64 66.74 130.47 
M 78.05 187.69 76.74 188.1 75.21 187.1 
M 132.03 162.8 131.86 163.55 132 165.04 132.29 165.71 134.36 168.33 
M 83.04 130.35 82.9 130.11 
M 77.19 131.67 77.23 133.13 76.98 134.4 76.63 135.21 74.51 136.9 73.14 137.45 
M 110.18 202.45 109.66 203.02 
M 124.23 163.34 121.03 164.22 119.7 165.49 118.88 165.96 
M 61.45 162.28 64.03 160.02 
M 64.59 179.69 67.07 179.27 67.51 179.5 
M 52.09 140.14 51.18 141.88 50.09 143.3 50.21 143.83 50.64 144.08 
M 58.95 172.25 57.34 173.97 56.8 174.99 56.11 177.34 55.21 182.65 54.78 184.08 53.97 185.42 52.79 186.44 51.39 187.06 46.02 187.72 44.82 188.14 43.75 188.8 42.84 189.71 42.12 190.79 41.59 191.98 41.12 194.59 41.24 197.27 41.01 194.59 41.04 193.24 41.28 191.89 41.74 190.59 42.41 189.38 43.33 188.31 44.47 187.47 45.77 186.89 50.97 185.84 52 185.29 52.79 184.49 53.29 183.48 53.53 182.31 53.99 176.98 54.6 174.13 55.21 172.72 56.07 171.42 57.06 170.36 
M 58.17 171.58 58.45 172.08 
M 54.24 166.75 53.81 167.27 53.53 168.15 54.07 167.74 54.85 167.62 
M 51.17 162.26 49.74 163.47 49.05 164.99 50.01 163.94 51.9 163.29 
M 48.03 157.9 45.68 159.68 44.57 161.83 45.94 160.14 48.77 158.97 
M 44.89 153.57 41.61 155.88 40.09 158.67 41.88 156.34 45.65 154.64 
M 42.38 148.8 37.55 152.08 35.61 155.51 37.81 152.54 42.77 150.19 
M 58.28 171.38 58.87 171.54 
M 52.52 168.93 53.02 168.25 53.79 167.76 53.54 168.39 53.63 169.36 
M 47.55 166.78 48.29 165.26 49.58 164.21 48.81 165.4 48.66 167.28 
M 42.51 164.83 43.56 162.27 45.37 160.66 44.08 162.41 43.68 165.28 
M 37.4 163.1 38.84 159.28 41.16 157.11 39.36 159.43 38.65 163.51 
M 32.21 161.63 34.11 156.3 36.95 153.56 34.63 156.44 33.6 161.79 
M 35.85 167.38 39.78 170.54 43.73 173.35 47.92 175.88 53.81 179.05 
M 55.67 179.99 61.27 182.38 70.8 185.76 
M 139.64 116.81 142.75 119.93 
M 140.12 110.14 149.22 119.24 
M 147.32 110.18 157.02 119.88 
M 154.58 110.29 163.96 119.67 
M 162.07 110.62 171.15 119.7 
M 169.89 111.27 179.72 121.11 
M 177.74 111.97 185.38 119.61 
M 185.42 112.5 191.53 118.6 
M 192.99 112.9 203.72 123.64 
M 200.9 113.65 210.65 123.41 
M 209.64 115.24 219.7 125.3 
M 219.22 117.66 229.45 127.89 
M 228.45 119.74 234.8 126.09 
M 236.93 121.05 247.41 131.54 
M 245.18 122.14 253.03 130 
M 253.48 123.29 263.29 133.1 
M 261.7 124.35 268.79 131.44 
M 269.68 125.18 275.18 130.68 
M 277.4 125.73 287.33 135.66 
M 285.21 126.39 292.74 133.92 
M 293.29 127.31 298.94 132.96 
M 301.59 128.45 307.15 134.01 
M 309.79 129.5 316.87 136.58 
M 317.82 130.36 328.26 140.81 
M 325.72 131.11 333.5 138.89 
M 333.52 131.75 342.02 140.26 
M 341.3 132.37 350.74 141.82 
M 349.19 133.11 355.99 139.91 
M 357.41 134.17 367.05 143.81 
M 366.45 136.05 374.3 143.91 
M 234.23 291.39 229.94 297.7 
M 234.23 291.39 234.74 297.7 
M 231.47 295.6 234.47 295.6 
M 237.5 293.5 236.24 297.7 
M 236.96 295.3 237.53 294.39 238.31 293.8 239 293.5 239.9 293.5 
M 241.4 293.5 240.5 296.5 240.53 297.39 241.04 297.7 241.94 297.7 242.63 297.39 243.8 296.5 
M 244.7 293.5 243.44 297.7 
M 249.83 294.39 249.71 293.8 248.9 293.5 248 293.5 247.01 293.8 246.52 294.39 246.65 295 247.16 295.3 248.57 295.6 249.08 295.89 249.11 296.8 248.63 297.39 247.64 297.7 246.74 297.7 245.93 297.39 245.81 296.8 
M 258.5 293.5 257.24 297.7 
M 258.23 294.39 257.81 293.8 257.3 293.5 256.39 293.5 255.71 293.8 254.93 294.39 254.36 295.3 254.18 295.89 254.21 296.8 254.63 297.39 255.14 297.7 256.03 297.7 256.73 297.39 257.51 296.8 
M 261.52 291.39 259.64 297.7 
M 265.73 291.39 265.13 291.39 264.44 291.7 263.87 292.6 262.33 297.7 
M 262.7 293.5 264.8 293.5 
M 267.22 291.39 267.44 291.7 267.83 291.39 267.62 291.1 267.22 291.39 
M 266.89 293.5 265.64 297.7 
M 269.3 293.5 268.03 297.7 
M 268.76 295.3 269.33 294.39 270.11 293.8 270.8 293.5 271.7 293.5 
M 274.39 293.5 273.7 293.8 272.93 294.39 272.36 295.3 272.18 295.89 272.2 296.8 272.63 297.39 273.14 297.7 274.03 297.7 274.72 297.39 275.51 296.8 276.08 295.89 276.26 295.3 276.22 294.39 275.81 293.8 275.3 293.5 274.39 293.5 
M 279.83 291.39 278.3 296.5 278.33 297.39 278.83 297.7 279.44 297.7 
M 278.3 293.5 280.39 293.5 
M 285.8 293.5 284.53 297.7 
M 285.52 294.39 285.11 293.8 284.59 293.5 283.7 293.5 283.01 293.8 282.22 294.39 281.65 295.3 281.47 295.89 281.51 296.8 281.93 297.39 282.44 297.7 283.33 297.7 284.02 297.39 284.81 296.8 
M 287.41 297.1 287.02 297.39 287.24 297.7 287.63 297.39 287.41 297.1 
"/></svg>
