<svg xmlns="http://www.w3.org/2000/svg" width="520" height="320"><rect x="0" y="0" width="520" height="320" fill="floralwhite"/><rect x="10" y="10" width="500" height="300" stroke="black" stroke-width="1" fill="none"/><path stroke="black" stroke-width="1" fill="none" stroke-linecap="round" stroke-linejoin="round" d="
M 144.26 155.11 153.85 151.47 163.5 147.42 173.15 143.8 182.8 141.11 192.45 137.93 202.1 133.91 211.75 130.84 221.39 128.67 231.04 127.12 240.69 126.54 250.34 126.66 259.99 128.08 269.64 131.05 279.29 134.82 298.58 140.45 317.88 145.53 327.53 149.11 337.18 152.93 346.83 157.1 356.47 161.49 386.26 174.01 
M 386.26 204.51 375.77 210.46 366.12 215.67 346.83 225.28 337.18 229.59 327.53 233.27 317.88 236.39 308.23 238.66 298.58 239.77 288.93 239.85 279.29 240.35 259.99 242.64 250.34 243.34 240.69 243.37 231.04 242.62 221.39 240.73 211.75 238.63 202.1 237.27 192.45 235.59 182.8 233.59 173.15 231.28 153.83 225.75 
M 151.5 163.85 153.05 162.48 155.7 158.37 155.7 155.83 153.08 151.76 
M 144.31 155.1 150.55 153.81 
M 147.29 157.34 150.98 157.44 
M 149.72 160.15 150.54 160.21 
M 155.09 155.76 157.78 154.57 161.21 151.54 163.43 148.1 163.43 147.45 
M 157.45 175.91 159.2 173.69 161.34 168.91 161.34 165.95 159.2 161.17 155.88 156.95 154.75 156.23 
M 156.94 207.71 160.52 202.8 162.85 197.21 162.85 196.03 
M 158.55 215.46 157.17 213.65 
M 162.7 167.94 165.86 166.51 169.9 162.86 172.51 158.72 172.51 156.16 169.9 152.02 165.86 148.36 163.64 147.36 
M 170.24 176 169.74 175.02 165.6 170.44 162.37 168.65 
M 169.44 217.47 169.72 217.13 172.34 211.73 172.34 208.38 169.72 202.97 165.66 198.2 162.5 196.34 
M 171.85 156.04 174.36 154.84 177.58 151.75 179.65 148.26 179.65 146.09 177.55 142.57 
M 169.94 145 176.01 144.16 
M 169.19 147.2 175.49 146.97 
M 169.01 149.16 175.9 149.53 
M 175.53 176.03 176.82 174.44 179.08 169.6 179.08 166.61 176.82 161.76 173.32 157.49 171.58 156.43 
M 167.86 165.35 174.86 164.35 
M 168.01 167.89 174.71 168.32 
M 168.04 170.96 175.06 171.77 
M 171.5 210.31 174.13 208.4 177.5 203.51 179.67 197.97 179.67 194.54 177.8 189.76 
M 170.46 193.15 174.55 191.99 
M 168.83 196.31 175.33 196.12 
M 169.27 199.35 176.01 200.86 
M 176.53 218.7 176.02 217.33 172.95 212.63 171.4 211.44 
M 179.68 146.44 182.71 145.49 186.58 143.06 189.08 140.31 189.08 139.04 
M 179.58 168.46 182.67 167 186.63 163.25 189.18 159.01 189.18 156.38 186.63 152.14 182.67 148.4 179.58 146.93 
M 179.63 195.45 182.79 193.69 186.84 189.17 189.45 184.05 189.45 182.64 
M 187.01 176.1 182.79 171.25 179.63 169.48 
M 184.52 186.66 184.95 186.73 
M 182.95 219.74 185.46 216.63 187.95 211.21 187.95 207.86 185.46 202.45 181.61 197.67 178.89 195.98 
M 175.95 207.16 183.21 205.26 
M 175.85 209.85 183.49 209.79 
M 175.34 212.34 183.62 213.56 
M 188.27 155.06 189.87 154.23 193.02 150.96 195.06 147.26 195.06 144.97 193.02 141.27 190.44 138.59 
M 194.16 176.15 196.53 170.92 196.53 167.86 194.39 162.93 191.07 158.58 188.48 156.88 
M 187.98 209.21 190.55 207.43 193.85 202.88 195.97 197.72 195.97 194.53 193.85 189.37 190.55 184.81 188.52 183.41 
M 185.22 193.19 192.37 192.11 
M 185.5 195.92 191.83 195.84 
M 185.33 198.55 192.18 199.75 
M 191.92 220.87 191.92 219.73 189.91 214.09 187.06 209.53 
M 195.9 145.95 198.93 145.01 202.82 142.61 205.33 139.89 205.33 138.21 202.82 135.49 201 134.36 
M 195.81 168.17 198.84 166.69 202.71 162.92 205.21 158.63 205.21 155.99 202.71 151.7 198.84 147.93 195.81 146.45 
M 192.8 155 200.63 154.35 
M 193.14 157.66 200.47 157.67 
M 192.86 159.26 200.54 160.93 
M 196.23 195.39 199.3 193.63 203.24 189.13 205.77 184.03 205.77 180.87 203.24 175.77 199.3 171.27 196.23 169.51 
M 197 221.33 197.75 220.88 201.75 216.07 204.32 210.63 204.32 207.27 201.75 201.83 197.75 197.03 195.21 195.5 
M 205.03 137.14 207.56 136.53 210.81 134.96 212.9 133.18 212.9 132.09 211.52 130.92 
M 204.31 154.12 206.06 153.29 209.33 150.19 211.44 146.68 211.44 144.51 209.33 141 206.06 137.91 204.44 137.14 
M 201.16 144.1 207.32 142.96 
M 200.99 145.7 207.49 145.23 
M 201.11 147.69 207.61 147.86 
M 204.86 180.08 206.33 179.06 209.5 174.67 211.55 169.68 211.55 166.6 209.5 161.62 206.33 157.22 204.31 155.82 
M 201.3 165.76 208.01 163.93 
M 201.87 167.91 207.94 168.31 
M 201.83 170.91 207.54 171.57 
M 204.62 209.68 207.21 207.84 210.53 203.13 212.67 197.8 212.67 194.5 210.53 189.17 207.21 184.46 204.86 182.79 
M 202.41 193.42 208.94 192.12 
M 202.18 195.86 209.1 196.12 
M 201.89 198.73 208.9 200.06 
M 210.27 222.35 210.27 220.32 207.96 214.69 204.37 209.72 203.4 209.05 
M 198.93 219.27 206.44 218.09 
M 212.23 145.65 215.14 144.72 218.87 142.32 221.28 139.61 221.28 137.93 218.87 135.21 215.14 132.82 212.23 131.88 
M 211.99 167.72 214.94 166.25 218.73 162.47 221.17 158.19 221.17 155.54 218.73 151.27 214.94 147.49 211.99 146.02 
M 209.07 154.3 216.59 153.31 
M 208.9 157.07 217.04 156.84 
M 208.73 159.43 216.38 160.5 
M 212.54 195.35 215.57 193.56 219.45 188.96 221.95 183.75 221.95 180.53 219.45 175.32 215.57 170.72 212.54 168.93 
M 209.99 179.72 217.55 178.18 
M 209.7 182.28 217.33 181.93 
M 209.64 184.9 217.17 185.78 
M 213.54 222.73 215.2 221.76 219.34 216.89 222.01 211.37 222.01 207.95 219.34 202.43 215.2 197.56 211.96 195.66 
M 220.13 136.03 222.42 135.36 225.34 133.65 227.23 131.71 227.23 130.51 225.34 128.57 224.62 128.15 
M 220.29 154.93 222.59 153.7 225.58 150.49 227.51 146.85 227.51 144.6 225.58 140.96 222.59 137.75 220.41 136.59 
M 221.06 180.15 222.82 178.93 226 174.53 228.05 169.55 228.05 166.47 226 161.49 222.82 157.09 220.34 155.37 
M 217.74 165.6 224.45 164.09 
M 218.26 167.74 224.27 168.05 
M 217.69 170.21 224.28 172.09 
M 221.35 210.31 223.9 208.4 227.16 203.51 229.27 197.98 229.27 194.55 227.16 189.01 223.9 184.12 221.35 182.21 
M 229.14 225.02 229.14 222.44 226.79 216.86 223.14 211.94 221.06 210.53 
M 226.88 143.88 229.63 142.92 233.16 140.45 235.43 137.65 235.43 135.92 233.16 133.13 229.63 130.66 226.88 129.7 
M 227.34 166.85 230.16 165.32 233.76 161.41 236.09 156.97 236.09 154.23 233.76 149.79 230.16 145.88 227.34 144.35 
M 228.71 195.41 231.63 193.55 235.36 188.77 237.77 183.37 237.77 180.02 235.36 174.61 231.63 169.84 228.71 167.98 
M 225.57 178.62 233.18 177.55 
M 225.96 181.98 233.4 181.92 
M 225.84 184.58 233.45 185.51 
M 229.3 224.63 232.39 222.69 236.36 217.74 238.91 212.12 238.91 208.65 236.36 203.04 232.39 198.08 229.3 196.15 
M 234.11 133.04 236.44 132.42 239.42 130.82 241.34 129.02 241.34 127.9 239.94 126.58 
M 234.28 150.76 235.26 150.19 238.11 146.83 239.95 143.04 239.95 140.69 238.11 136.89 235.26 133.54 233.56 132.54 
M 233.85 139.71 236.75 139.23 
M 231.28 141.49 236.21 141.56 
M 230.55 143.42 237.03 144.45 
M 236.9 179.4 238.08 178.47 241.07 173.77 243 168.44 243 165.15 241.07 159.82 238.08 155.12 235.75 153.29 
M 233.42 164.44 239.65 162.73 
M 233.63 166.53 239.34 166.84 
M 233.78 169.43 239.79 171.24 
M 238 209.88 239.77 208.38 242.78 203.28 244.72 197.5 244.72 193.92 242.78 188.14 239.77 183.03 237.42 181.04 
M 235.15 192.83 240.8 191.28 
M 235.56 196.11 241.14 196.09 
M 234.98 198.56 241.56 200.12 
M 246.11 225.84 246.11 223.7 243.99 218.15 240.71 213.25 238.14 211.34 
M 241.33 141.61 244.36 140.66 248.25 138.22 250.75 135.46 250.75 133.76 248.25 131 244.36 128.56 241.33 127.61 
M 242.31 164.59 244.69 163.3 248.36 159.34 250.72 154.85 250.72 152.07 248.36 147.58 244.69 143.61 241.83 142.06 
M 238.67 150.77 246.57 150.28 
M 238.94 153.87 246.85 153.64 
M 239.25 155.83 246.62 157.1 
M 244.02 193.82 246.4 192.16 249.89 187.27 252.15 181.74 252.15 178.31 249.89 172.78 246.4 167.9 243.67 165.99 
M 240.81 176.97 248.3 175.56 
M 240.76 180.42 248.31 180 
M 241.41 182.42 248.38 184.1 
M 245.35 223.83 247.91 222.08 251.61 217.01 253.99 211.27 253.99 207.72 251.61 201.98 247.91 196.91 245.03 194.93 
M 242.36 206.47 249.29 205.24 
M 242.59 209.51 249.8 209.12 
M 242.27 212.51 249.76 213.98 
M 247.11 225.84 245.64 224.96 
M 249.83 132.04 252.53 131.43 255.98 129.87 258.21 128.11 258.21 127.82 
M 247.36 127.37 253.88 127.18 
M 247.05 128.19 254.24 129.04 
M 249.59 149.31 251.21 148.6 254.87 145.36 257.23 141.7 257.23 139.43 254.87 135.76 251.21 132.52 248.9 131.5 
M 251.34 176.77 252.31 175.96 255.02 171.39 256.77 166.21 256.77 163.01 255.02 157.83 252.31 153.26 250.19 151.48 
M 253.14 206.24 253.62 205.81 256.56 200.65 258.45 194.8 258.45 191.18 256.56 185.34 253.62 180.17 251.34 178.17 
M 249.35 189.65 255.4 188.35 
M 249.27 192.91 254.83 192.72 
M 249.36 196.18 254.61 197.64 
M 260.71 225.41 260.71 222.07 258.72 216.3 255.63 211.19 253.21 209.2 
M 259.04 142.42 262.46 141.51 266.84 139.17 269.66 136.53 269.66 134.89 266.84 132.25 262.46 129.92 259.04 129.01 
M 257.42 163.07 260.44 161.63 264.31 157.92 266.8 153.73 266.8 151.14 264.31 146.94 260.44 143.24 257.42 141.8 
M 257.77 191.05 260.16 189.35 263.58 184.46 265.78 178.93 265.78 175.5 263.58 169.97 260.16 165.08 257.49 163.17 
M 260.06 223.11 262.83 221.05 266.37 215.76 268.65 209.76 268.65 206.06 266.37 200.06 262.83 194.77 260.06 192.71 
M 263.4 225.25 261.87 224.3 
M 268.67 134.9 271.66 134.21 274.43 132.92 
M 269.32 152.85 272.17 151.78 275.82 149.02 278.17 145.91 278.17 143.98 275.82 140.86 272.17 138.1 269.32 137.03 
M 266.37 143.34 274.26 142.87 
M 266.5 144.54 274.12 145.11 
M 266.57 146.21 274.15 147.65 
M 263.61 170.52 264.08 170.17 266.94 165.92 268.79 161.11 268.79 158.13 266.94 153.32 265.91 151.79 
M 267.84 206.43 268.85 205.45 271.73 199.89 273.59 193.58 273.59 189.68 271.73 183.38 268.85 177.81 266.59 175.64 
M 276.14 224.63 276.14 221.28 274.27 215.24 271.38 209.91 269.12 207.83 
M 277.63 143.75 281.01 142.93 285.34 140.82 288.14 138.43 288.14 137.44 
M 274.01 136.54 282.04 135.63 
M 274.75 137.9 282.82 137.72 
M 274.33 138.75 283.35 139.79 
M 273.41 161.49 276.63 160.18 280.75 156.8 283.4 152.98 283.4 150.62 280.75 146.8 277.33 144 
M 272.93 187.52 274.6 186.49 278.47 181.73 280.97 176.34 280.97 173 278.47 167.61 274.6 162.84 271.57 160.99 
M 268.5 171.98 276.6 170.64 
M 268.57 174.76 276.33 174.99 
M 268.52 177.34 276.31 179.02 
M 275.47 220.19 277.19 218.93 280.89 213.53 283.28 207.41 283.28 203.62 280.89 197.5 277.19 192.1 274.3 189.99 
M 280.32 224.52 280.09 224.22 277.15 222.29 
M 284.49 150.6 287.14 149.63 290.52 147.16 292.71 144.35 292.71 142.62 290.52 139.82 287.14 137.34 
M 279.81 169.73 280.98 169.12 284.81 165.1 287.28 160.56 287.28 157.74 284.81 153.2 282.45 150.73 
M 281.26 156.03 282.77 155.86 
M 277.38 159.16 283.15 159.15 
M 275.45 161.16 282.97 162.25 
M 282.42 201.26 285.8 196.01 287.94 190.1 287.94 186.44 285.8 180.53 282.47 175.32 280.07 173.44 
M 288.25 224.52 289.45 220.94 289.45 217.08 287.37 210.86 284.14 205.36 282.42 203.9 
M 278.86 215.87 285.79 214.5 
M 279.3 219 285.56 218.93 
M 279.49 222.16 285.74 223.77 
M 295.02 144.44 298.08 143.63 302.16 141.4 
M 291.35 162.69 294.71 161.39 299.01 158.06 301.78 154.29 301.78 151.96 299.01 148.19 294.71 144.86 291.92 143.79 
M 289.26 188.83 292.71 187.05 297.14 182.5 300 177.34 300 174.15 297.14 168.99 292.71 164.43 289.26 162.66 
M 285.77 173.06 294.97 171.71 
M 286.16 175.45 295.11 175.69 
M 286.32 178.05 294.7 179.63 
M 290.42 220.06 293.69 218.02 297.88 212.78 300.58 206.85 300.58 203.18 297.88 197.26 293.69 192.02 290.42 189.98 
M 287.11 201.94 295.78 200.39 
M 286.96 205.14 295.84 204.64 
M 286.88 208.15 295.36 209.44 
M 297.41 224.83 296.2 223.35 293.02 221.4 
M 303.18 153.67 305.69 152.57 308.91 149.75 310.99 146.55 310.99 144.58 310.33 143.55 
M 300.67 143.87 307.03 142.79 
M 301.11 145.3 306.84 145.76 
M 300.46 147.39 307.34 147.81 
M 299.74 175.8 302.78 174.24 306.68 170.24 309.19 165.71 309.19 162.9 306.68 158.37 302.78 154.37 300.79 153.35 
M 296.84 162.15 304.78 161.02 
M 296.43 164.16 304.85 164.61 
M 296.8 166.47 304.3 167.57 
M 299.62 205.44 302.33 203.61 306.03 198.63 308.42 192.99 308.42 189.49 306.03 183.85 302.33 178.86 299.44 176.92 
M 309.46 224.12 309.75 223.39 309.75 219.72 307.36 213.79 303.66 208.55 300.77 206.5 
M 308.95 164.47 311.93 163.07 315.76 159.46 318.22 155.38 318.22 152.85 315.76 148.77 311.93 145.16 310.25 144.37 
M 308.15 191.25 311.38 189.46 315.52 184.85 318.19 179.64 318.19 176.42 315.52 171.2 311.38 166.6 308.29 164.88 
M 308.92 221.69 312.15 219.69 316.28 214.54 318.95 208.72 318.95 205.11 316.28 199.28 312.15 194.14 308.92 192.13 
M 305.69 204.13 313.78 202.71 
M 305.53 207.09 314.43 206.52 
M 305.8 209.59 314.33 211.1 
M 312.12 223.69 310.96 223 
M 317.34 150.75 318.33 150.13 321 146.69 
M 317.23 176.56 318.95 175.33 321.98 170.98 323.93 166.06 323.93 163.01 321.98 158.08 318.95 153.74 317.34 152.58 
M 318 205.7 319.31 204.64 322.47 199.56 324.51 193.81 324.51 190.26 322.47 184.51 319.31 179.43 317.23 177.76 
M 326.41 220.89 324.36 214.99 321.15 209.71 318.64 207.65 
M 322.54 162.36 325.13 160.83 328.45 156.9 330.59 152.45 330.59 150.32 
M 323.54 190.59 326.28 188.72 329.79 183.92 332.05 178.48 332.05 175.11 329.79 169.68 326.28 164.88 323.54 163 
M 324.84 221.23 327.6 219.21 331.17 213.96 333.47 208.03 333.47 204.35 331.17 198.41 327.6 193.17 324.82 191.12 
M 331.24 173.05 331.83 172.53 334.5 167.92 336.21 162.69 336.21 159.46 334.5 154.23 332.73 151.17 
M 332.65 202.87 333.2 202.37 336.03 197.2 337.86 191.35 337.86 187.73 336.03 181.88 333.2 176.72 331.24 174.94 
M 339.04 217.51 337.58 212.27 334.9 206.82 332.8 204.69 
M 331.01 217.5 336.15 216 
M 335.6 158.82 338.18 157.29 340.59 154.41 
M 336.97 187.49 339.52 185.6 342.78 180.76 344.89 175.29 344.89 171.9 342.78 166.42 339.52 161.58 336.97 159.69 
M 338.96 217.53 340.81 216.05 344.12 210.78 346.25 204.82 346.25 201.13 344.12 195.16 340.81 189.9 338.23 187.84 
M 343.84 168.47 344.29 168.08 346.91 163.59 348.6 158.51 348.6 157.91 
M 344.88 201.41 347.04 199.43 349.8 194.35 351.59 188.6 351.59 185.04 349.8 179.28 347.04 174.21 344.88 172.22 
M 350.89 213.63 349.13 207.21 346.4 201.84 344.3 199.77 
M 342.45 211.79 347.71 210.62 
M 342.28 215.11 345.95 215.33 
M 350.95 183.11 352.55 181.94 355.84 177.12 357.96 171.67 357.96 168.29 355.84 162.84 354.22 160.47 
M 354.19 212.47 357.56 207.32 359.73 201.47 359.73 197.85 357.56 192.01 354.19 186.85 351.55 184.83 
M 354.77 165.5 356.91 163.78 357.95 162.11 
M 358.05 198.52 360.26 196.46 363.08 191.18 364.9 185.2 364.9 181.5 363.08 175.53 360.26 170.25 358.05 168.19 
M 365.07 208.52 364.22 206.01 361.3 201.1 359.01 199.18 
M 356.69 210.88 362.65 208.87 
M 364.24 180.32 366.48 178.86 370.14 174.08 372.5 168.66 372.5 168.14 
M 370.81 206.28 371.76 204.83 373.93 199.05 373.93 195.46 371.76 189.68 368.4 184.57 365.77 182.57 
M 363.2 194.72 369.92 192.79 
M 363.04 197.24 370.3 197.33 
M 362.98 200.45 369.86 201.7 
M 372.66 196.54 374.82 194.47 377.59 189.18 379.37 183.19 379.37 179.48 377.59 173.48 375.43 169.36 
M 370.24 178.47 375.91 176.98 
M 370.23 181.55 376.36 181.22 
M 370.9 184.52 375.97 185.51 
M 378.01 203.38 375.48 198.73 373.37 196.79 
M 379.79 177.49 382.9 176 385.36 173.64 
M 384.69 200.59 385.43 199.78 386.26 198.15 
M 386.26 189.49 385.43 187.87 381.8 183.85 378.97 182.29 
M 376.4 191.47 383.54 190.76 
M 376 193.63 383.61 193.41 
M 376.41 195.82 383.9 197.18 
M 144.31 155.1 144.31 155.1 
M 163.43 147.45 163.43 147.45 
M 155.74 220.83 158.27 220.62 
M 162.5 223.77 165.66 221.91 169.44 217.47 
M 189.08 139.04 189.08 139.04 
M 178.6 223.27 181.61 221.41 182.95 219.74 
M 184.56 229.28 181.34 225.6 178.15 223.78 
M 189.13 230.11 189.91 228.85 191.92 223.22 191.92 220.87 
M 201 134.36 201 134.36 
M 194.63 222.75 197 221.33 
M 203.13 232.23 202.14 230.18 198.06 225.38 194.88 223.51 
M 211.52 130.92 211.52 130.92 
M 198.71 222.22 205.75 222.46 
M 211.96 223.66 213.54 222.73 
M 221.61 235.16 219.53 230.97 215.4 226.24 212.17 224.39 
M 216.02 234.07 217.4 233.86 
M 223.77 235.55 226.79 231.48 229.14 225.9 229.14 225.02 
M 239.12 237.41 239.12 236.98 236.54 231.74 232.53 227.11 229.41 225.31 
M 255.05 237.22 255.05 236.6 252.55 231.38 248.67 226.76 247.11 225.84 
M 254.78 237.23 255.63 236.53 258.72 231.43 260.71 225.41 
M 288.14 137.44 288.14 137.44 
M 286.29 234.83 283.86 229.16 280.32 224.52 
M 273.88 233.46 282.16 232.14 
M 285.02 231.17 287.37 227.16 288.25 224.52 
M 302.89 234.39 302.89 233.99 300.27 228.34 297.41 224.83 
M 303.84 234.3 307.36 229.33 309.46 224.12 
M 319.11 231.49 318.3 229.8 314.17 224.91 312.12 223.69 
M 324.62 229.9 326.43 224.67 326.41 220.89 
M 324.82 221.25 324.84 221.23 
M 332.73 151.17 332.73 151.17 
M 338.47 225.24 339.31 222.26 339.31 218.44 339.04 217.51 
M 331.07 220 335.76 220.36 
M 340.59 154.41 340.59 154.41 
M 338.69 217.75 338.96 217.53 
M 366.11 213.17 366.11 211.58 365.07 208.52 
M 356.81 213.68 362.36 212.94 
M 356.98 216.13 358.69 216.56 
M 365.77 211.94 368.4 209.94 370.81 206.28 
M 367.09 212.68 366.02 211.93 
M 371.35 207.9 377.03 206.37 
M 385.36 173.64 385.36 173.64 
M 378.97 205.36 381.8 203.79 384.69 200.59 
M 202.1 133.91 202.61 131.78 202.55 126.84 202.83 122.09 202.48 119.55 202.15 113.72 202.36 108.65 204.41 98.54 204.18 96.95 204.11 94.38 204.88 91.25 205.56 85.57 206.36 83.68 208.43 80.13 208.76 77.61 210 75.91 211.44 73.35 212.82 67.79 214.31 65.43 217.1 57.65 219.24 55.67 221.05 53.43 222.07 51.37 222.51 49.65 223.77 48.32 225.08 46.24 227.06 44.09 228.91 42.74 230.48 40.63 235.31 36.51 240.3 30 241.48 39.42 241.26 41.23 242.12 42.74 246.16 47.68 247.42 49.78 247.64 51.9 247.19 53.35 248.7 56.35 251.8 61.83 252.58 63.75 254.75 67.75 256.69 71.14 263.63 81.99 265.42 86.6 268.99 90.32 269.66 91.88 271.28 94.38 272.74 99.17 273.19 101.33 273.2 102.4 275.96 107.07 278.59 112.01 279.08 114.66 278.96 116.66 281.23 121.29 282.39 124.74 284.33 127.75 286.25 130.12 287.73 132.59 288.65 135.08 288.92 136.85 289.66 137.88 
M 288.94 137.67 288.93 137.67 
M 206.09 132.64 206.56 130.44 206.44 125.54 206.62 123.33 206.51 120.93 206.1 118.01 205.82 110.12 205.92 108.31 206.62 105.87 206.92 103.46 207.19 98.88 206.84 95.52 208.05 93.41 208.95 90.67 208.47 87.93 209.01 85.72 210.53 83.92 210.96 80.85 211.69 77.62 212.81 75.48 214.7 72.91 215.73 70.67 216.68 67.82 216.83 65.87 
M 210.08 131.37 210.55 129.28 210.47 124.09 210.85 118.99 210.63 114.15 210.81 111.71 210.34 109.25 210.36 106.99 211.48 100.33 212.97 95.04 212.68 92.72 212.05 90.59 212.47 88.11 213.69 85.48 214.71 82.07 215.28 78.74 216.39 76.45 218.46 74.72 219.98 72.54 222.05 70.49 222.73 67.75 223.4 66.28 224.58 65.14 228.3 60.43 
M 214.13 130.31 214.83 128.26 215.4 125.65 215.29 122.74 215.46 118.01 214.75 113.53 214.79 108.04 216.24 103.44 216.81 100.69 218.35 95.44 218.56 93.54 218.91 92.09 218.51 89.57 218.87 86.98 220.78 84.15 222.73 80.14 224.25 78.55 225.44 75.45 229.2 69.63 229.89 68.05 231.06 66.5 231.88 64.43 233.87 62.12 234.89 60.42 236.73 58.55 
M 218.22 129.39 219.05 127.3 219.17 124.75 219.68 122.62 219.7 120.26 218.84 115.49 219.2 110.63 220.2 107.75 220.64 102.02 221.24 99.6 222.96 95.36 224.14 93.65 224.52 90.82 225.1 88.39 226.05 86.17 227.39 84.69 228.21 82.19 229.29 79.75 231.35 78.3 232.44 75.42 
M 222.32 128.52 223.14 126.61 223.46 124.46 223.68 121.97 223.58 114.23 223.98 111.34 224.59 109.17 224.52 106.58 224.84 103.89 225.7 101.7 226.18 99.37 227.24 97.58 228.06 95.38 229.37 92.85 230.36 88.19 231.17 86.05 232.69 84.03 234.62 82.34 
M 226.45 127.86 227.23 126.12 227.74 123.48 228.4 112.92 228.66 110.46 229.4 107.8 229.38 106.01 229.71 103.46 231.13 98.82 231.57 96.64 232.45 94.51 233.34 91.74 235.06 89.43 236.51 87.1 
M 230.59 127.19 231.27 125.09 231.85 119.7 232.94 112.49 233.5 110.88 233.69 108.56 234.55 106.61 235.23 103.92 236.29 101.68 236.18 99.19 237.07 95.65 239.2 93.35 
M 234.77 126.9 235.62 124.82 236.95 119.61 236.6 117.49 236.57 115.78 236.15 113.77 238.96 108.67 239.92 105.92 241.26 103.51 242.02 100.58 244.95 95.26 
M 238.95 126.64 239.87 124.52 240.61 119.1 240.41 117.47 241.18 112.91 242.42 110.16 244.02 105.27 246.66 100.59 248.82 98.04 
M 243.14 126.57 244.15 124.69 244.79 119.8 245.27 117.8 248.89 107.94 249.05 105.74 249.79 104.36 252.17 102.39 252.7 99.85 254.64 97.05 256.8 95.39 
M 247.33 126.62 248.2 125.2 248.3 123.02 248.78 120.7 251.15 112.91 252.42 110.49 253.41 109.11 256.55 106.1 258.02 103.65 259.93 101.52 
M 251.51 126.83 252.63 125.49 253.79 120.95 254.05 118.65 254.91 115.4 258.72 110.52 260.63 109.46 263.64 106.23 
M 255.65 127.44 257 126.28 257.77 124.31 258.38 122.2 258.71 119.81 260.63 117.28 262.93 114.77 
M 259.8 128.05 261.02 126.67 262.36 122.43 264.04 119.96 266.04 117.68 268.28 115.77 
M 263.81 129.26 265.42 127.35 266.26 124.95 267.6 123.6 269.63 122.1 272.28 120.86 275.38 120.51 277.43 119.53 
M 267.81 130.49 269.98 128.7 271.29 126.54 273.06 124.88 274.69 123.9 
M 271.76 131.88 274.79 129.98 276.51 128.29 278.84 127.69 
M 275.66 133.41 279.18 131.83 281.25 130.31 
M 279.57 134.91 283.07 134.08 
M 283.59 136.09 289.2 137.13 
M 155.03 174.48 205.82 175.21 205.83 176.05 156.16 177.09 
M 156.74 178.67 197.39 181.92 197.34 182.76 157.65 181.21 
M 158.3 183.08 188.82 187.57 188.72 188.4 158.72 185.47 
M 159 187.56 180.19 192.17 180.04 192.99 159.28 189.76 
M 159.51 192.16 171.62 195.71 171.42 196.53 159.64 194.04 
M 159.56 196.83 163.2 198.22 162.94 199.02 159.48 198.12 
M 199.66 176.18 196.3 176.76 194.51 177.78 193.15 179.43 192.08 181.5 
M 192.02 182.55 189.79 182.59 187.8 183.06 186.2 184.2 184.38 186.92 
M 184.25 187.97 182.11 187.75 180.18 187.98 178.57 188.93 176.62 191.39 
M 176.43 192.43 174.42 191.96 172.57 191.97 170.97 192.71 168.92 194.92 
M 168.66 195.94 166.81 195.24 165.06 195.03 163.48 195.57 161.35 197.51 
M 161.02 198.52 159.51 197.67 
M 198.49 176.3 196.3 176.76 194.51 177.78 193.78 178.54 192.6 180.44 
M 190.89 182.54 188.75 182.75 186.95 183.54 186.2 184.2 184.94 185.94 
M 183.16 187.83 181.11 187.79 180.18 187.98 178.57 188.93 177.24 190.49 
M 175.42 192.16 173.47 191.88 172.57 191.97 170.97 192.71 169.57 194.1 
M 211.75 238.63 216.29 243.33 220.39 248.85 228.79 267.7 228.24 270.52 227.39 273.05 225.33 274.3 224.13 275.91 222.06 277.05 221.06 277.38 216.35 276.12 214.25 277.31 211.54 278.01 209.29 279.31 206.79 280 197.97 270.69 191.7 262.02 191.13 260.77 189.44 258.05 179.72 245.29 177.28 240.42 175.6 236.33 173.15 231.28 
M 207.6 238.05 209.55 241.34 211.83 243.79 213.74 246.5 214.89 248.63 216.96 251.08 219.83 256.29 221.73 258.35 
M 203.45 237.46 205.3 240.53 207.15 242.9 213.36 252.47 214.64 255.41 215.88 257.35 216.75 260.37 
M 199.32 236.79 201.82 239.84 208.54 251.81 210.98 254.86 212.39 257.27 213.92 261.43 215.36 263.59 217.31 265.69 218.15 268.38 219.62 271.09 221.29 273.32 
M 195.19 236.07 197.64 238.86 199.29 241.59 200.75 244.99 201.17 247.71 204.08 252.54 204.87 254.92 
M 191.07 235.3 194.5 240.57 195.81 243.07 197.73 248.93 200.79 254.68 201.34 256.96 202.26 258.81 204.46 260.78 206.03 263.54 206.56 266.67 207.56 268.92 
M 186.97 234.45 189.85 239.85 191.71 245.02 195.23 253.02 196.8 256.08 198.69 258.32 199.52 261.34 200.77 263.8 201.87 266.54 203.34 271.18 203.46 272.31 202.67 273.57 206.37 279.67 
M 182.87 233.6 184.45 237.14 185.44 240.34 186.58 242.95 188 246.92 190.98 251.88 192.64 255.21 194.22 259.36 195.34 261.55 
M 178.79 232.63 180.71 236.46 182.5 243.18 184.25 248.1 184.1 250.82 
M 356.47 220.53 360.83 225.82 365.04 228.48 364.81 234.23 364.89 237.27 364.3 239.64 362.24 241.12 359.8 242.06 357.15 242.63 355.28 244.1 352.82 244.99 348.07 247.08 347.48 249.45 345.68 250.83 341.22 252.18 338.43 252.28 335.63 252.8 333.05 253.78 327.89 254.93 323.48 256.42 320.99 257.02 319.1 258.47 317.14 259.49 311.8 259.4 309.73 260.1 307.69 261.28 305.36 262.16 302.05 258.99 299.68 257.75 297.2 256.83 292.26 256.08 289.61 255.4 286.21 253.75 283.61 252.88 281.19 252.43 276.11 250.53 274.29 246.53 269.64 241.43 
M 352.72 222.38 359.68 228.84 
M 348.96 224.23 358.66 232.69 
M 345.17 226.02 348.82 229.85 354.47 234.72 356.43 236.81 
M 341.35 227.73 344.03 231.28 347.22 233.65 350.74 235.96 352.45 237.5 
M 337.52 229.44 340.17 232.81 342.23 235.07 344.83 237.05 347.37 239.26 348.99 241.55 
M 333.62 230.95 337.15 233.97 341.02 238.29 342.49 239.66 
M 329.7 232.44 333.32 235.65 335.05 238.9 337.22 241.2 339.79 243.46 341.01 244.77 344.09 247.18 
M 325.76 233.84 328.62 236.38 332.49 242.04 335.12 244.6 
M 321.77 235.13 324.27 238.12 326.78 240.12 328.31 242.22 
M 317.78 236.41 320.15 239.5 324.98 243.85 327.07 246.93 
M 313.71 237.37 315.98 241.04 318.17 243.73 322.99 247.9 
M 309.63 238.33 312.02 241.68 313.59 244.21 316.12 247.2 318.81 248.88 
M 305.49 238.98 307.75 242.15 309.81 245.36 311.56 247.69 313.28 249.45 
M 301.33 239.46 303.61 242.99 304.85 245.45 306.99 247.87 308.53 250.31 309.57 252.74 
M 297.15 239.79 299.14 243.65 300.77 246.23 301.7 248.88 303.09 250.9 305.6 253.13 307.32 256.11 308.94 258.22 
M 292.96 239.82 294.92 243.51 297.9 250.21 299.51 252.16 302.96 258.05 
M 288.78 239.85 291.21 243.34 293 247.02 294.15 251.15 
M 284.59 240.07 287.62 243.64 288.63 247.19 
M 280.41 240.29 283.17 244.14 284.78 247.55 
M 276.24 240.69 279.25 244.57 281.13 247.66 282.58 251.58 
M 272.08 241.16 275.12 244.65 279.75 251.69 
M 385.42 173.66 388.75 173.6 392.96 171.93 397.63 169.38 400.65 168.67 406.03 165.94 407.73 164.69 411.92 161.03 415.13 159.28 417.73 160.57 423.46 161.36 428.51 162.86 430.94 163.78 434.46 165.57 438.8 168.49 440.72 170.32 441.32 172.25 442.65 174.68 444.22 176.91 446.46 181.02 448.45 184.01 449.98 189.43 450.02 191.76 449.56 193.88 451.02 197.02 450.79 199.33 449.6 201.56 448.1 203.45 446.87 205.6 445.86 207.98 443.42 209.02 441.42 210.49 440.12 212.74 438.44 214.62 436.48 216.2 435.79 219.06 434.52 221.29 431.95 222.17 429.76 223.39 427.87 224.75 425.74 225.87 422.99 226.37 420.69 227.12 415.96 225.49 413.1 223.48 411.03 222.4 407.54 221.43 404.39 219.85 401.56 218.14 399.51 216.22 395.12 212.87 393.3 210.96 390.87 209.53 388.29 207.77 385.42 204.98 
M 390.96 174.4 393.05 173.99 395.52 172.42 397.24 170.78 400.32 169.81 
M 388.7 176.83 393.26 175.8 395.41 174.48 397.42 172.82 400.88 170.99 403.5 170.06 406.39 170.47 408.29 169.9 
M 385.42 178.36 388.93 178.38 391.25 178.2 395.72 176.69 401.24 173.07 404.01 172 406.55 171.56 408.62 171.7 410.13 171.53 412.52 170.42 
M 391.71 179.81 393.93 179.47 398.68 177.73 401.47 176.04 406.64 174.27 409.35 174.19 410.87 173.83 414.08 172.88 416.42 171.6 421.02 170.51 
M 394.37 181.2 396.65 180.78 403.96 178.61 406.57 178.29 411.7 176.09 414.41 175.57 417.25 174.08 422.1 173.91 424.77 174.39 427.05 173.54 429.1 173.35 432.9 172.5 436.2 171.43 438.89 170.21 
M 394.42 182.99 399.12 182.77 401.75 182.15 404.39 182.06 406.35 181.81 409 180.53 411.6 179.94 413.79 179.72 416.89 178.66 420.34 176.82 427.2 178.27 429.73 177.34 432.76 176.56 
M 385.42 184.62 391.7 185.23 399.4 184.88 401.95 184.44 404.68 184.71 406.66 184.61 408.68 183.66 414.45 182.93 420.02 181.47 426.5 181.22 431.53 180.63 
M 391.76 187.1 394.47 187.15 397.36 186.61 400.15 186.4 403.03 186.9 404.61 186.52 406.89 186.3 409.26 185.69 411.8 185.83 414.73 185.77 417.72 185.47 419.81 184.79 422.81 185.45 425 185.52 427.05 184.64 431.47 185.83 434.64 185.3 437.52 185.17 
M 385.42 187.76 391.93 188.99 394.84 189.32 397.3 188.63 400.12 188.48 402.88 188.54 405.41 188.33 407.54 187.84 409.99 187.51 412.96 187.83 415.87 189.09 418.06 188.87 424.6 188.72 426.98 188.3 
M 385.42 189.32 394.81 191.41 397.45 190.76 399.81 190.65 402.62 191.02 405.36 190.51 407.67 190.42 410.64 190.48 413.32 190.77 416.71 191.91 419.23 192.22 424.4 191.5 427.72 191.35 
M 395.06 192.72 397.27 193.22 403.15 193.48 405.49 193.45 413.49 193.99 416.37 194.5 418.77 195.55 421.89 196 427.16 195.24 428.63 195.43 
M 394.89 194.49 397.2 195.44 407.91 197.26 410.58 197 413.13 197.19 416.11 198.03 420.83 199.76 424.74 199.84 
M 385.42 194.02 388.69 195.42 391.92 195.68 394.44 196.26 396.89 197.57 399.52 198.56 405.21 199.75 407.77 199.98 410.12 199.63 413.16 200.3 418.25 202.7 423.18 203.18 425.2 204.11 427.39 205.42 430.43 205.88 433.58 205.55 436.68 206.1 439.37 206.04 
M 394.2 198.09 399.19 200.91 401.77 201.38 404.62 202.27 407.22 202.77 409.45 202.84 411.8 203.3 414.74 204.36 417.32 205.78 420.52 206.34 423.04 207.46 425.8 208.1 427.19 209.81 432.25 211.19 
M 388.66 198.97 394.59 200.44 396.79 201.75 401.33 203.75 406.39 205.61 408.52 206.23 413.42 208.79 420.1 210.58 425.26 212.24 427.23 213.39 429.57 214.29 
M 385.42 198.72 388.47 200.84 394.75 202.74 398.99 205.53 401.21 206.45 406.36 208.15 408.06 209.65 410.57 211.19 413.05 211.78 
M 385.42 200.28 388.14 202.5 394.18 204.7 396.88 206.24 399.12 207.85 403.49 210.39 405.31 212.18 407.55 213.24 
M 388.42 204.29 393.94 206.83 396.76 208.36 398.92 210.49 402.9 213.47 404.66 215.1 407.07 216.82 
M 385.42 203.42 388.37 206.11 394.08 209.12 398.19 212.32 400.53 214.48 404.49 217.31 406.65 219.46 413.41 222.17 
M 374.13 208.82 371.1 210.33 370.02 211.62 368.66 214.79 366.98 215.01 364.63 214.18 366.12 215.67 
M 81.08 180.75 82.25 179.32 84.21 177.53 87.05 175.28 93.65 170.78 97.89 168.51 102.9 166.31 108.36 164.49 113.76 162.95 123.74 159.76 136.91 156.37 140.31 155.64 144.26 155.12 148.62 158.32 150.72 161.82 152.09 165.41 154.21 172.7 155.86 176.26 158.44 183.48 159.42 190.92 159.69 194.67 159.46 198.48 158.05 202.46 156.88 206.41 157.18 213.94 156.51 217.82 155.51 221.74 153.83 225.77 143.32 225.68 135.59 225.12 128.65 223.86 122.46 222.16 117.05 220.22 112.01 218.09 107.42 215.74 103.04 213.31 98.76 210.43 95.33 207.21 92.17 203.52 
M 137.55 175.57 138.46 178.7 138.36 181.8 137.97 184.72 137.34 187.42 136.41 189.9 134.72 192.33 133.55 194.61 133.96 196.72 134.83 198.96 136.14 204.62 136.25 208.08 123.91 208.99 118.89 208.83 114.08 208.23 109.65 207.25 105.36 205.83 101.4 203.92 
M 89.69 200.57 88.12 198.44 85.94 194.9 79.12 184.6 78.51 182.61 79.68 180.87 81.78 180.69 83.32 181.95 84.89 185.76 86.65 189.48 89.63 197.21 92.72 203.23 
M 92.11 203.73 86.68 200.32 81.69 196.47 69.76 188.52 68.97 186.51 70.04 184.63 72.14 184.24 73.91 185.46 84.36 195.36 88.74 199.79 92.61 203.1 
M 104.13 187.71 103.03 183.55 103.34 179.26 105.03 175.3 107.91 172.11 111.68 170.02 115.92 169.27 120.17 169.94 123.97 171.95 126.92 175.09 128.69 179.01 129.09 183.29 128.07 187.48 125.75 191.1 122.38 193.78 118.33 195.22 114.02 195.26 109.94 193.9 106.52 191.29 104.13 187.71 
M 103.97 187.35 103.44 185.81 103.11 184.23 102.97 182.61 103.04 181 103.31 179.4 103.77 177.84 104.42 176.36 105.25 174.97 106.25 173.69 107.39 172.54 108.67 171.55 110.06 170.72 111.55 170.07 113.1 169.61 114.7 169.34 116.32 169.27 117.93 169.41 119.52 169.74 121.05 170.27 
M 105.52 186.71 105.06 185.37 104.65 182.58 104.71 181.17 105.19 178.94 
M 108.36 173.94 109.62 172.93 110.83 172.21 113.48 171.24 116.28 170.95 119.07 171.35 120.41 171.81 
M 107.06 186.07 106.42 183.75 106.33 182.55 106.37 181.34 106.82 179.31 
M 109.51 175.15 111.6 173.7 113.85 172.87 116.25 172.62 117.45 172.72 119.77 173.36 
M 108.61 185.42 108.29 184.48 108 182.51 108.04 181.51 108.42 179.81 
M 110.62 176.41 112.36 175.19 114.23 174.5 116.21 174.3 117.21 174.38 119.13 174.91 
M 111.28 184.49 110.84 182.83 111.05 180.92 
M 112.52 178.55 112.79 178.25 114.3 177.42 115.99 177.11 117.69 177.38 119.22 178.19 120.4 179.44 121.1 181.01 121.26 182.72 120.86 184.4 119.93 185.85 118.58 186.92 116.96 187.49 115.24 187.51 113.6 186.97 112.23 185.92 111.28 184.49 
M 113.65 177.77 113 179.07 
M 111.89 181.29 110.94 183.2 
M 115.16 177.26 113.75 180.1 
M 112.92 181.75 111.43 184.72 
M 116.46 177.19 114.47 181.17 
M 113.94 182.21 112.15 185.8 
M 117.62 177.37 115.29 182.04 
M 115 182.62 113.04 186.54 
M 118.63 177.87 116.12 182.9 
M 116.05 183.04 114.01 187.1 
M 119.55 178.54 115.09 187.46 
M 120.37 179.41 116.33 187.5 
M 120.97 180.72 117.72 187.22 
M 121.26 182.67 119.49 186.19 
M 92.09 202.01 92.87 202.8 
M 84.17 184.05 85.39 185.27 
M 83.41 178.26 86.91 181.75 
M 86.16 175.98 89.63 179.45 
M 89.06 173.85 93.13 177.92 
M 92.06 171.83 96.28 176.04 
M 95.21 169.95 97.98 172.72 
M 98.52 168.24 102.77 172.49 
M 102.01 166.7 105.88 170.57 
M 105.71 165.37 108.4 168.06 
M 109.52 164.16 113.39 168.02 
M 113.44 163.04 116.84 166.45 
M 117.23 161.81 121.9 166.49 
M 121.04 160.6 125.39 164.95 
M 124.93 159.46 129.67 164.2 
M 128.95 158.45 131.55 161.05 
M 132.93 157.41 135.91 160.39 
M 136.92 156.37 139.94 159.39 
M 141.1 155.52 145.42 159.84 
M 103.1 182.55 101.29 181.99 97.75 180.02 94.74 177.94 
M 121.48 221.81 121.43 220.94 
M 152.94 179.96 152.03 178.56 152.05 177.76 
M 89.1 185.52 87.42 184.29 86.29 182.68 85.72 180.94 85.95 180.02 85.98 179.1 
M 90.17 184.81 87.24 182.21 86.07 180.78 85.97 178.9 
M 103.96 196.96 102.16 195.44 100.1 194.52 99.59 194.02 99.09 192.85 99.12 189.87 
M 108.21 201.96 106.66 202.65 106.27 203.02 105.6 204.1 104.51 206.63 103.81 207.2 102.86 207.52 
M 105.47 202.28 104.36 203.04 103.62 203.16 101.48 202 
M 119.78 199.9 118.29 200.5 117.28 200.66 114.56 199.92 
M 85.4 186.75 85.01 182.59 85.16 181.4 85.9 180.05 
M 154.95 174.78 155.11 174.64 
M 137.37 180.53 137.92 180.08 138.32 179.48 140.64 175.55 141.87 174.57 143.11 174.25 
M 141.62 181.61 142.5 178.01 143.61 175.63 143.95 175.23 144.95 174.86 146.31 174.75 146.85 174.83 147.27 175.1 
M 140.91 162.65 138.79 164.21 137.25 164.74 136.93 164.53 136.19 162.46 
M 126.13 192.15 124.71 191.93 
M 135.25 160.69 135.14 159.74 135.44 158.28 136.65 156.44 
M 117.73 164.49 115.33 162.44 
M 144.46 191.02 146.04 190.57 146.28 190.7 146.41 191.23 145.78 193.02 145.13 193.7 144.45 194.03 
M 114.51 169.4 113.94 168.33 112.09 165.76 111.42 165.24 110.56 164.84 108.78 164.37 
M 136.55 201.05 136.28 200.62 135.87 200.38 134.82 200.41 133.55 200.74 131.98 201.7 130.65 201.96 
M 147.68 208.57 146.39 208.56 144.69 209.03 
M 105.08 194.2 102.67 194.21 100.93 193.66 100.6 193.37 100.15 192.5 100.25 190.98 
M 142.89 207.15 142.89 207.92 
M 140.71 215.8 139.69 216.14 138.2 217.05 137.95 217.6 138.08 218.29 
M 134.21 167.63 134.97 166.96 136.24 164.53 136.4 163.95 136.19 162.64 
M 147.14 224.38 146.34 224.7 145.07 225.69 
M 125.64 173.2 124.66 172.68 
M 77.28 193.51 80.54 196.73 83.89 199.68 87.44 202.52 95 207.97 103.04 213.31 
M 80.54 196.05 80.27 196.46 
M 147.3 153.96 155.75 162.42 
M 152.15 152.12 157.42 157.38 
M 156.92 150.18 163.01 156.26 
M 161.64 148.2 168.1 154.66 
M 166.45 146.31 174.99 154.84 
M 171.33 144.48 179.66 152.81 
M 176.43 142.88 183.72 150.17 
M 181.67 141.42 189.84 149.59 
M 186.76 139.8 196.2 149.24 
M 191.8 138.14 201.8 148.14 
M 196.57 136.21 206.35 145.99 
M 201.3 134.24 211.16 144.1 
M 206.32 132.56 216.25 142.49 
M 211.41 130.95 219.32 138.86 
M 216.86 129.69 224.62 137.46 
M 222.38 128.51 231.35 137.48 
M 228.15 127.58 237.22 136.65 
M 234.2 126.93 241.17 133.9 
M 240.52 126.55 246.28 132.31 
M 247.29 126.62 256.75 136.07 
M 254.67 127.3 260.13 132.75 
M 263.12 129.05 270.46 136.38 
M 273.24 132.46 280.14 139.37 
M 283.57 136.09 290.09 142.61 
M 293.04 138.86 298.44 144.26 
M 302.33 141.44 308.57 147.68 
M 311.43 143.84 318.23 150.64 
M 320.96 146.67 327.23 152.94 
M 331.79 150.8 341.26 160.27 
M 343.25 155.55 349.56 161.87 
M 355.4 161.01 361.63 167.23 
M 366.9 165.8 372.11 171.01 
M 378.46 170.66 386.18 178.38 
M 390.07 175.57 393.07 178.57 
M 202.59 125.14 204.47 128.88 
M 204.3 121 205.05 122.5 
M 205.8 124 206.55 125.5 
M 202.7 110.27 205.7 116.26 
M 203.7 104.72 208.94 115.21 
M 207.77 105.33 210.77 111.33 
M 211.52 112.82 212.27 114.32 
M 212.62 107.49 213.37 108.99 
M 222.53 127.31 223.08 128.4 
M 205.54 85.79 208.16 91.03 
M 223.15 121 226.56 127.84 
M 207.37 81.9 212.24 91.65 
M 221.98 111.13 222.73 112.63 
M 226.47 120.12 230.05 127.28 
M 209.27 78.17 216.01 91.66 
M 222.01 103.65 228 115.64 
M 231.75 123.13 233.67 126.97 
M 212.89 77.86 215.88 83.86 
M 216.63 85.36 217.38 86.85 
M 218.13 88.35 218.88 89.85 
M 224.13 100.34 224.87 101.84 
M 225.62 103.34 230.12 112.33 
M 227.82 100.19 233.07 110.68 
M 237.56 119.67 238.31 121.17 
M 239.81 124.17 240.61 125.76 
M 231.11 99.24 235.61 108.23 
M 239.35 115.72 240.1 117.22 
M 240.85 118.72 244.79 126.59 
M 242.43 114.34 248.33 126.13 
M 237.47 96.88 241.22 104.37 
M 245.72 113.36 249.46 120.86 
M 250.21 122.36 250.96 123.85 
M 239.21 92.82 241.46 97.31 
M 242.21 98.81 246.7 107.8 
M 249.7 113.8 251.95 118.29 
M 233 72.85 237.49 81.84 
M 241.99 90.83 248.73 104.32 
M 259.97 126.8 260.54 127.94 
M 235.79 70.9 240.29 79.89 
M 244.78 88.88 247.78 94.87 
M 248.53 96.37 252.28 103.87 
M 253.77 106.86 257.52 114.36 
M 260.52 120.35 262.77 124.85 
M 263.52 126.35 265.18 129.68 
M 238.84 69.45 242.58 76.94 
M 250.08 91.93 250.83 93.43 
M 251.58 94.93 253.07 97.92 
M 255.32 102.42 261.32 114.41 
M 263.56 118.9 269.44 130.65 
M 248.97 82.18 253.47 91.17 
M 259.46 103.16 263.96 112.15 
M 266.96 118.15 272.2 128.64 
M 251.37 79.44 252.87 82.44 
M 253.62 83.94 257.37 91.43 
M 262.61 101.92 265.61 107.91 
M 271.6 119.9 273.1 122.9 
M 254.76 78.68 257.76 84.67 
M 258.51 86.17 259.26 87.67 
M 259.45 80.51 260.19 82 
M 270.68 102.99 272.93 107.48 
M 272.04 98.15 272.87 99.82 
M 227.78 292.89 227.66 292.3 227.24 291.7 226.73 291.39 225.53 291.39 224.84 291.7 224.06 292.3 223.58 292.89 223.01 293.8 222.56 295.3 222.71 296.8 223.13 297.39 223.64 297.7 224.84 297.7 225.53 297.39 226.31 296.8 226.79 296.2 
M 233 293.5 231.74 297.7 
M 232.73 294.39 232.31 293.8 231.8 293.5 230.9 293.5 230.21 293.8 229.43 294.39 228.86 295.3 228.68 295.89 228.71 296.8 229.13 297.39 229.64 297.7 230.54 297.7 231.23 297.39 232.01 296.8 
M 235.4 293.5 234.14 297.7 
M 234.86 295.3 235.43 294.39 236.21 293.8 236.9 293.5 237.8 293.5 
M 239.3 293.5 237.41 299.8 
M 239.03 294.39 239.81 293.8 240.5 293.5 241.4 293.5 241.91 293.8 242.33 294.39 242.36 295.3 242.18 295.89 241.61 296.8 240.83 297.39 240.14 297.7 239.24 297.7 238.73 297.39 238.31 296.8 
M 245.33 291.39 245.54 291.7 245.93 291.39 245.72 291.1 245.33 291.39 
M 245 293.5 243.74 297.7 
M 247.4 293.5 246.14 297.7 
M 247.04 294.7 248.21 293.8 248.9 293.5 249.8 293.5 250.31 293.8 250.34 294.7 249.44 297.7 
M 250.34 294.7 251.51 293.8 252.2 293.5 253.1 293.5 253.61 293.8 253.64 294.7 252.74 297.7 
M 256.73 291.39 256.94 291.7 257.33 291.39 257.12 291.1 256.73 291.39 
M 256.39 293.5 255.14 297.7 
M 261.52 294.39 261.4 293.8 260.6 293.5 259.7 293.5 258.71 293.8 258.23 294.39 258.35 295 258.86 295.3 260.27 295.6 260.77 295.89 260.81 296.8 260.33 297.39 259.34 297.7 258.44 297.7 257.63 297.39 257.51 296.8 
M 266.89 293.5 265.64 297.7 
M 266.36 295.3 266.93 294.39 267.7 293.8 268.39 293.5 269.3 293.5 
M 271.13 291.39 271.33 291.7 271.73 291.39 271.52 291.1 271.13 291.39 
M 270.8 293.5 269.54 297.7 
M 274.13 291.39 272.6 296.5 272.63 297.39 273.14 297.7 273.74 297.7 
M 272.6 293.5 274.7 293.5 
M 278 293.5 277.31 293.8 276.52 294.39 275.95 295.3 275.77 295.89 275.81 296.8 276.23 297.39 276.74 297.7 277.64 297.7 278.33 297.39 279.11 296.8 279.68 295.89 279.86 295.3 279.83 294.39 279.4 293.8 278.89 293.5 278 293.5 
M 283.43 291.39 281.89 296.5 281.93 297.39 282.44 297.7 283.04 297.7 
M 281.89 293.5 284 293.5 
M 286.1 293.5 285.2 296.5 285.23 297.39 285.74 297.7 286.64 297.7 287.33 297.39 288.5 296.5 
M 289.39 293.5 288.14 297.7 
M 294.52 294.39 294.4 293.8 293.6 293.5 292.7 293.5 291.7 293.8 291.23 294.39 291.35 295 291.86 295.3 293.27 295.6 293.77 295.89 293.81 296.8 293.33 297.39 292.33 297.7 291.44 297.7 290.63 297.39 290.51 296.8 
M 296.12 297.1 295.73 297.39 295.94 297.7 296.33 297.39 296.12 297.1 
"/></svg>
