<svg xmlns="http://www.w3.org/2000/svg" width="520" height="320"><rect x="0" y="0" width="520" height="320" fill="floralwhite"/><rect x="10" y="10" width="500" height="300" stroke="black" stroke-width="1" fill="none"/><path stroke="black" stroke-width="1" fill="none" stroke-linecap="round" stroke-linejoin="round" d="
M 179.54 115.52 200.81 99.51 207.91 94.86 215 90.63 222.09 87.49 229.18 84.96 236.27 82.03 250.45 77.02 257.55 76.83 264.64 78.6 271.73 81.55 278.82 85.19 285.91 88.06 300.1 94.56 307.19 98.5 314.28 103.99 321.37 110.36 328.46 116.4 356.83 139.63 363.92 145.64 
M 363.92 168.45 362.09 170.14 
M 361.5 170.69 356.83 175.03 349.74 181.2 335.55 193.02 328.46 198.1 321.37 202.82 307.19 212.88 293 221.08 285.91 225.84 278.82 229.06 271.73 231.37 264.64 233.15 250.45 233.48 243.36 234.29 236.27 233.09 229.18 230.56 222.09 228.73 215 226.68 207.91 223.89 200.81 220.02 193.72 213.87 186.64 206.92 
M 182.09 121.23 183.44 119.07 184.67 115.63 184.67 113.49 184.17 112.1 
M 180.87 114.54 182.36 114.7 
M 180.12 116.78 182.47 117.06 
M 186.58 134.63 187.78 132.01 187.78 130.08 186.35 126.95 184.13 124.19 182.88 123.41 
M 184.61 128.49 184.94 128.38 
M 187.27 129.54 188.66 126.83 189.65 123.41 189.65 121.3 188.66 117.88 187.11 114.86 185.91 113.69 
M 184.81 120.48 187.75 119.63 
M 184.56 122.22 188.01 122.34 
M 185.02 124.25 187.97 124.68 
M 189 146.1 191.12 143.15 192.35 139.99 192.35 138.03 191.12 134.87 189.23 132.08 187.74 130.99 
M 187.26 137.02 189.82 136.5 
M 187.89 139.32 190.29 139.31 
M 188.27 140.96 190.38 141.11 
M 190.96 158.41 192.66 155.21 192.66 153.42 191.24 150.54 189.07 148.03 
M 189.74 152.21 190.27 152.08 
M 190.72 187.16 191.65 185.45 191.65 183.47 191.4 183.01 
M 189.29 119.42 190.72 116.99 191.9 113.44 191.9 111.25 190.5 107.34 
M 186.13 110.76 189.7 109.52 
M 185.94 112.55 189.49 112.54 
M 186.29 113.82 189.98 114.89 
M 191.91 137.87 192.45 137.46 194.46 134.43 195.76 131 195.76 128.88 194.46 125.44 192.45 122.41 190.88 121.23 
M 189.55 128.33 193.3 127.52 
M 189.66 129.7 193.53 129.7 
M 189.57 131.88 193.49 132.43 
M 192.34 154.72 194.17 153.63 196.52 150.84 198.03 147.67 198.03 145.72 196.52 142.55 194.17 139.76 192.34 138.67 
M 194.87 167.25 196.35 165.79 198.1 162.77 198.1 160.89 196.35 157.87 193.63 155.2 192.15 154.47 
M 191.06 185.05 193.04 184.12 195.29 182.01 
M 195.07 198.36 196.03 197.46 197.88 194.39 197.88 192.49 196.03 189.43 193.16 186.72 191.02 185.72 
M 191.05 108.6 191.84 107.02 192.1 106.12 
M 194.76 126.2 195.54 124.49 196.5 120.84 196.5 118.58 195.54 114.92 194.06 111.7 192.9 110.44 
M 197.49 147.11 198.37 146.35 200.14 143.26 201.28 139.76 201.28 137.6 200.14 134.1 198.37 131.01 196.98 129.81 
M 197.48 162.54 198.84 161.58 200.79 158.84 202.04 155.73 202.04 153.81 200.79 150.71 198.84 147.97 197.68 147.15 
M 200.78 166.9 200.4 166.08 198.21 163.32 197.48 162.86 
M 197.21 194.01 198.21 193.37 200.36 190.57 201.74 187.41 201.74 185.45 200.94 183.61 
M 201.62 202.24 201.62 201.36 200.3 198.39 198.24 195.77 197.21 195.12 
M 196.16 117.74 198.19 114.57 199.47 111.03 199.47 108.84 198.19 105.3 196.57 102.73 
M 200.83 135.6 202.38 133.08 203.68 129.4 203.68 127.13 202.38 123.45 200.38 120.2 198.81 118.94 
M 201.67 155.14 203.37 153.96 205.54 150.94 206.95 147.52 206.95 145.4 205.54 141.99 203.37 138.97 201.67 137.79 
M 206.23 166.52 207.64 163.62 207.64 161.66 206.1 158.49 203.72 155.7 201.85 154.6 
M 201.56 186.51 203.5 185.43 204.36 184.48 
M 201.42 202.16 203.32 201.11 205.75 198.41 207.32 195.36 207.32 193.46 205.75 190.41 203.32 187.71 201.42 186.65 
M 198.87 106.68 200.06 104.8 201.24 101.55 201.15 99.29 
M 202.18 123.47 202.97 121.96 204.1 118.2 204.1 115.88 202.97 112.12 201.23 108.81 199.87 107.51 
M 206.44 146.33 206.82 145.95 208.5 142.6 209.58 138.8 209.58 136.45 208.5 132.65 206.82 129.3 205.51 127.99 
M 207.09 162.92 208.32 161.96 210.17 159.06 211.36 155.79 211.36 153.76 210.17 150.48 208.32 147.58 206.88 146.45 
M 209.68 165.93 208.25 163.91 207.09 163.09 
M 206.76 194.47 208.04 193.6 210.02 190.88 211.3 187.8 211.3 186.26 
M 209.86 205.01 210.68 203.02 210.68 201.16 209.44 198.14 207.51 195.48 206.76 194.96 
M 200.82 100.65 201.88 100.03 204.23 97.27 
M 203.7 117.65 205.22 116.64 207.47 113.62 208.93 110.2 208.93 108.08 207.47 104.67 205.22 101.65 203.46 100.47 
M 209.2 134.67 210.97 131.91 212.33 128.24 212.33 125.96 210.97 122.29 208.88 119.04 207.24 117.78 
M 210.94 154.34 212.09 153.46 214.15 150.33 215.48 146.79 215.48 144.6 214.15 141.05 212.09 137.93 210.48 136.7 
M 216.18 165.14 216.82 163.69 216.82 161.66 215.39 158.38 213.18 155.48 211.45 154.35 
M 211.49 186.95 212.23 186.5 
M 211.23 202.41 213.06 201.36 215.39 198.67 216.9 195.62 216.9 193.73 215.39 190.68 213.06 187.99 211.23 186.94 
M 215.52 206.37 213.02 203.5 211.18 202.49 
M 208.41 108.63 208.76 108.38 210.76 105.57 212.05 102.39 212.05 100.42 210.76 97.24 208.7 94.39 
M 211.84 124.62 213.42 122.14 214.68 118.65 214.68 116.5 213.42 113.01 211.47 109.94 209.94 108.74 
M 215 143.98 216.51 140.95 217.55 137.29 217.55 135.02 216.51 131.36 214.9 128.13 213.64 126.87 
M 216.31 162.57 217.24 161.75 218.97 158.72 220.08 155.28 220.08 153.15 218.97 149.72 217.24 146.69 215.9 145.5 
M 218.61 165.11 217.73 163.74 216.31 162.62 
M 216.43 195.16 217.91 194.08 219.8 191.32 220.93 188.45 
M 219.1 207.01 219.54 206.43 220.82 203.45 220.82 201.61 219.54 198.63 217.55 196 216.36 195.21 
M 210.18 101.72 211.93 100.65 214.16 97.89 215.6 94.76 215.6 92.82 214.68 90.82 
M 213.37 117.8 215.08 116.67 217.26 113.79 218.67 110.52 218.67 108.5 217.26 105.23 215.08 102.35 213.37 101.22 
M 216.11 135.21 217.77 134.01 219.89 130.94 221.26 127.46 221.26 125.31 219.89 121.84 217.77 118.77 216.11 117.57 
M 218.74 153.33 220.32 152.11 222.34 148.99 223.65 145.45 223.65 143.26 222.34 139.73 220.32 136.6 218.74 135.38 
M 217.23 142.3 221.14 141.38 
M 217.36 144.14 221.01 144.48 
M 216.91 146.37 221.27 147.12 
M 224.82 164.32 225.32 163.04 225.32 160.94 223.99 157.54 221.94 154.54 220.34 153.37 
M 218.63 160.36 223.23 159.23 
M 218.98 162.26 223.11 161.77 
M 218.64 163.58 223.07 164.47 
M 220.97 202.72 222.76 201.66 225.06 198.92 226.54 195.82 226.54 193.9 225.06 190.8 223.38 188.8 
M 219.23 193.31 223.86 192.35 
M 219.48 194.89 223.97 194.85 
M 219.31 196.28 223.68 197.21 
M 226.13 208.22 225.17 206.36 222.84 203.8 221.01 202.8 
M 215.09 92.4 216.55 89.94 
M 218.17 108.33 219.78 105.61 220.84 102.47 220.84 100.52 219.78 97.38 218.13 94.6 216.85 93.51 
M 220.77 124.75 222.5 121.84 223.58 118.58 223.58 116.56 222.5 113.3 220.81 110.43 219.5 109.3 
M 223.15 141.3 224.61 138.83 225.79 135.33 225.79 133.16 224.61 129.66 222.78 126.57 221.35 125.36 
M 219.89 132.74 223.33 131.58 
M 220.05 134.29 223.95 134 
M 219.76 136.04 223.95 136.68 
M 224.09 161.82 225.31 160.6 226.88 157.46 227.89 153.91 227.89 151.71 226.88 148.16 225.31 145.03 224.09 143.8 
M 222.85 150.9 226.06 150.23 
M 222.62 153.03 225.88 152.63 
M 222.69 154.46 225.81 155.64 
M 227.19 164.07 226.41 162.72 225.07 161.57 
M 225.48 194.94 226.9 193.82 228.73 190.96 229.17 189.75 
M 228.28 208.57 229.44 206.97 230.7 203.91 230.7 202.02 229.44 198.97 227.5 196.28 225.98 195.22 
M 224.26 201.62 228.68 200.81 
M 224.63 202.93 228.29 203.21 
M 224.24 204.72 228.56 205.55 
M 218.31 99.82 219.93 98.8 222.01 96.19 223.34 93.23 223.34 91.4 222.01 88.45 221.46 87.77 
M 223.11 114.64 224.81 112.14 226.1 108.81 226.1 106.75 224.81 103.43 222.81 100.49 221.25 99.34 
M 219.83 105.92 223.97 105.36 
M 219.63 107.81 223.58 107.53 
M 219.52 109.76 219.8 109.77 
M 220.23 109.8 223.78 110.01 
M 224.73 134.41 226.4 133.19 228.54 130.06 229.92 126.52 229.92 124.33 228.54 120.79 226.4 117.67 224.73 116.45 
M 222.91 123.76 227.43 122.6 
M 223.33 125.11 227.56 125.35 
M 223.41 127.54 227.73 127.91 
M 227.53 151.59 228.68 150.73 230.75 147.65 232.08 144.16 232.08 142.01 230.75 138.52 228.68 135.44 227.07 134.24 
M 225.24 141.54 229.8 140.67 
M 225.7 143.13 229.48 142.95 
M 225.24 145.05 229.94 145.45 
M 232.41 163.5 233.12 161.53 233.12 159.39 231.87 155.94 229.93 152.88 228.42 151.69 
M 226.83 158.58 230.89 157.9 
M 227.06 160.62 230.96 160.53 
M 226.86 162.51 230.62 163.04 
M 230.44 202.86 232.18 201.76 234.41 198.94 235.85 195.76 235.85 193.78 234.41 190.6 234.06 190.15 
M 228.94 192.84 233.33 192.63 
M 228.57 194.61 233.56 194.8 
M 228.66 196.62 233.2 197.19 
M 236.29 210.43 236.29 209.43 234.81 206.54 232.52 203.99 230.73 202.99 
M 229.2 208.54 233.94 208.35 
M 220.78 90.54 222.23 89.68 224.08 87.46 224.47 86.64 
M 224.29 102.99 225.3 101.33 226.37 98.27 226.37 96.37 225.3 93.31 223.65 90.6 222.35 89.54 
M 221.13 95.8 224.66 95.12 
M 221.41 97.32 224.16 97.27 
M 221.2 99.18 224.63 99.51 
M 226.31 124.5 227.62 123.17 229.29 119.78 230.37 115.94 230.37 113.56 229.29 109.72 227.62 106.33 226.31 105 
M 225.07 112.76 228.71 112.15 
M 225.14 114.81 228.49 114.68 
M 224.83 117 228.5 117.48 
M 231.78 144.18 233.29 142.95 235.22 139.81 236.47 136.25 236.47 134.04 235.22 130.49 233.29 127.34 231.78 126.12 
M 230.07 133.23 234.23 132.38 
M 230.38 135.15 234.39 135.14 
M 230.06 136.84 234.02 138.08 
M 232.43 157.14 233.82 154.5 234.83 151.17 234.83 149.1 233.82 145.76 232.66 143.57 
M 229.72 148.12 232.86 147.83 
M 230.11 150.1 232.9 150.04 
M 229.77 151.86 233.25 152.82 
M 236.21 163.89 234.72 160.97 233.46 159.73 
M 234.77 194.98 236.16 193.82 238.03 190.56 
M 236.09 210.39 237.01 209.72 238.89 207 240.11 203.92 240.11 202.01 238.89 198.93 237.01 196.21 235.54 195.15 
M 234.37 201.46 237.61 200.36 
M 234.28 202.66 237.87 203.28 
M 233.95 204.65 238.18 205.44 
M 226.69 97.84 228.6 96.93 231.03 94.58 232.6 91.93 232.6 90.29 231.03 87.63 228.45 85.22 
M 225.09 89.5 229.61 88.93 
M 224.59 90.94 229.86 90.8 
M 225.11 92.75 229.44 92.81 
M 229.13 114.66 230.97 113.49 233.32 110.5 234.84 107.1 234.84 105 233.32 101.61 230.97 98.62 229.13 97.45 
M 227.5 104.2 232.2 103.59 
M 227.46 105.83 231.88 106.37 
M 227.3 107.69 232.15 108.44 
M 233.64 134 235.4 132.74 237.66 129.53 239.11 125.89 239.11 123.63 237.66 119.99 235.4 116.78 233.64 115.52 
M 231.83 122.7 236.41 122.22 
M 231.8 125.03 236.49 124.44 
M 231.66 126.74 236.42 127.4 
M 235.67 150.67 237.33 149.5 239.46 146.52 240.84 143.15 240.84 141.06 239.46 137.68 237.33 134.7 235.67 133.53 
M 234.04 140.26 238.49 139.75 
M 234.28 142.26 238.64 141.88 
M 233.75 143.82 238.42 144.69 
M 239.24 163.68 239.63 163.08 240.89 159.64 240.89 157.51 239.63 154.07 237.67 151.03 236.58 150.18 
M 234.6 157.12 238.3 155.73 
M 234.68 158.5 238.77 158.62 
M 234.62 160.63 238.79 161.31 
M 239.63 202.76 241.32 201.63 243.47 198.71 244.87 195.41 244.87 193.37 243.93 191.15 
M 237.74 192.82 242.55 192.13 
M 237.98 194.2 242.65 194.33 
M 237.78 196.29 242.27 196.78 
M 245.68 210.73 245.68 209.34 244.23 206.42 241.97 203.84 240.21 202.84 
M 238.29 208.56 243.36 207.7 
M 238.82 210.31 243.15 210.31 
M 231.54 90.81 233.33 90.08 235.61 88.2 237.09 86.08 237.09 84.76 235.34 82.42 
M 231.48 84.01 234.1 83.68 
M 229.81 85.56 234.16 85.48 
M 230.12 86.25 234.58 87.26 
M 232.1 104.92 233.92 103.91 236.24 101.34 237.74 98.42 237.74 96.61 236.24 93.7 233.92 91.12 232.63 90.41 
M 230.32 96.18 235.23 95.38 
M 230.33 97.36 234.86 97.8 
M 230.09 98.83 235.3 99.76 
M 235.75 124.13 237.46 122.84 239.64 119.53 241.05 115.79 241.05 113.47 239.64 109.72 237.46 106.42 235.75 105.13 
M 233.95 112.82 238.28 111.58 
M 233.81 114.6 238.49 114.56 
M 234.32 116.8 238.44 117.24 
M 240.73 143.19 242.08 142.01 243.8 138.99 244.92 135.57 244.92 133.46 243.8 130.04 242.08 127.02 240.73 125.85 
M 239.55 132.62 243.07 131.78 
M 239.42 134.21 242.84 134.26 
M 239.46 136.42 243.04 137.41 
M 239.12 156.7 240.59 155.6 242.47 152.78 243.68 149.59 243.68 147.62 242.47 144.43 241.39 142.82 
M 237.83 147 241.27 146.06 
M 237.66 148.57 241.79 148.3 
M 237.63 150.54 241.62 151.04 
M 243.95 163.46 243.55 161.93 242.08 158.71 240.93 157.45 
M 243.29 194.45 244.58 193.21 245.49 191.46 
M 244.93 210.84 246.4 209.75 248.28 206.95 249.5 203.77 249.5 201.81 248.28 198.63 246.4 195.83 244.92 194.74 
M 243.63 201.5 247.56 200.24 
M 243.58 202.76 247.47 202.9 
M 243.63 204.49 247.14 205.12 
M 245.22 210.79 244.87 210.57 
M 237.53 86.64 239.67 86.01 242.42 84.39 244.18 82.56 244.18 81.42 242.61 79.79 
M 239.92 80.74 241.13 80.66 
M 236.02 82.14 241.09 81.86 
M 235.65 82.75 240.66 83.44 
M 238.08 99.47 240.26 98.59 243.04 96.33 244.84 93.78 244.84 92.2 243.04 89.65 240.26 87.39 238.08 86.51 
M 235.72 91.8 241.69 91 
M 235.91 93.22 241.9 93.1 
M 235.85 94.02 241.87 94.62 
M 240.26 115.79 242.47 114.69 245.3 111.86 247.12 108.67 247.12 106.69 245.3 103.49 242.47 100.67 240.26 99.56 
M 238.22 106.17 243.62 104.98 
M 238 107.84 243.77 107.92 
M 238.03 109.2 243.9 109.92 
M 243.37 133.52 245.32 132.36 247.81 129.37 249.42 125.98 249.42 123.89 247.81 120.5 245.32 117.52 243.37 116.35 
M 241.67 122.98 246.71 122.37 
M 241.22 125.13 246.52 124.66 
M 241.4 126.65 246.23 127.68 
M 244.66 149.62 246.47 148.51 248.8 145.7 250.3 142.5 250.3 140.53 248.8 137.34 246.47 134.52 244.66 133.42 
M 242.59 139.84 247.47 139.39 
M 243 141.28 247.29 141.71 
M 242.68 142.84 247.59 143.95 
M 246.67 163.25 248.11 161.34 249.53 158.04 249.53 156 248.11 152.7 245.91 149.78 244.6 148.92 
M 242.3 155.45 246.86 154.45 
M 242.51 157.29 247.14 156.95 
M 242.32 158.63 246.66 159.63 
M 248.44 202.56 250.1 201.35 252.23 198.23 253.6 194.71 253.6 192.53 253.43 192.07 
M 246.54 191.9 247.67 191.7 
M 246.9 193.4 251.22 193.88 
M 247.03 195.69 251.1 196.15 
M 255.08 209.9 255.08 209.19 253.64 206.17 251.4 203.51 249.65 202.47 
M 247.93 208.7 252.77 207.51 
M 248.23 209.8 252.58 209.83 
M 243.7 82.46 245.31 81.96 247.38 80.66 248.71 79.2 248.71 78.3 248.25 77.79 
M 246.39 78.46 246.4 78.46 
M 242.78 79.73 246.38 79.79 
M 244.2 93.13 245.14 92.7 247.31 90.74 248.72 88.51 248.72 87.14 247.31 84.91 245.14 82.95 243.44 82.18 
M 241.62 86.95 246.15 85.95 
M 241.87 88.04 246.26 87.78 
M 241.78 88.67 245.88 89.54 
M 246.47 108.03 247.19 107.66 249.69 105.06 251.31 102.11 251.31 100.29 249.69 97.34 247.19 94.74 245.24 93.73 
M 243.23 99.77 248.65 98.77 
M 243.62 101.48 248.54 101.47 
M 243.67 102.79 248.38 103.43 
M 247.97 125.44 249.85 124.34 252.26 121.53 253.82 118.35 253.82 116.38 252.26 113.19 249.85 110.38 247.97 109.29 
M 246 115.46 251.19 115 
M 246 117.66 250.73 117.31 
M 246.37 118.66 251.22 119.47 
M 249.04 141.34 250.59 140.24 252.58 137.42 253.86 134.23 253.86 132.25 252.58 129.06 250.59 126.24 249.04 125.14 
M 247.72 131.47 251.45 131.1 
M 247.46 133.48 251.83 133.51 
M 247.81 134.66 251.43 135.76 
M 249.75 157.24 251.43 156.22 253.58 153.59 254.97 150.62 254.97 148.79 253.58 145.82 251.43 143.19 249.75 142.17 
M 247.87 148.01 252.76 147.76 
M 248.04 149.77 252.64 149.45 
M 248.04 151.16 252.56 151.76 
M 251.41 162.76 251.41 162.02 250.23 158.62 248.69 156.1 
M 245.38 161.31 249.47 160.76 
M 245.39 162.92 249.24 163.06 
M 251.05 193.62 252.48 192.02 
M 256.14 209.87 257.83 207.2 259.03 203.84 259.03 201.75 257.83 198.39 255.95 195.41 254.49 194.25 
M 248.02 78.16 249.68 77.71 250.97 77 
M 248.02 88.05 249.81 87.35 252.11 85.58 253.6 83.57 253.6 82.32 252.11 80.31 249.81 78.54 248.26 77.94 
M 246.17 81.8 250.6 81.18 
M 246.36 83.21 250.72 83.07 
M 246.07 83.91 250.86 84.68 
M 249.61 101.95 251.71 101.01 254.4 98.6 256.14 95.87 256.14 94.18 254.4 91.45 251.71 89.04 249.61 88.1 
M 247.72 93.85 252.93 93.26 
M 247.58 94.98 253.15 94.92 
M 247.82 96.51 253.03 97.09 
M 253.26 117.73 254.59 117.1 257.49 114.34 259.36 111.23 259.36 109.29 257.49 106.18 254.59 103.42 252.33 102.35 
M 254.25 134.34 256.38 133.24 259.12 130.44 260.88 127.27 260.88 125.31 259.12 122.14 256.38 119.34 254.25 118.24 
M 254.97 150.04 257.01 148.99 259.63 146.29 261.32 143.23 261.32 141.34 259.63 138.28 257.01 135.58 254.97 134.53 
M 256.91 162.95 258.51 161.25 260.18 158.13 260.18 156.2 258.51 153.08 255.91 150.32 253.89 149.25 
M 257.34 202.13 259.01 200.88 261.16 197.68 262.55 194.06 262.55 192.45 
M 264.22 209.96 264.22 208.94 262.83 205.86 260.67 203.15 258.98 202.09 
M 252.87 81.08 254.42 79.5 255.39 77.74 255.39 76.88 
M 255.52 92.71 256.6 91.41 257.85 88.82 257.85 87.21 256.6 84.61 254.68 82.32 253.18 81.43 
M 256.6 111.07 258.45 109.98 260.81 107.2 262.34 104.04 262.34 102.08 260.81 98.93 258.45 96.14 256.6 95.05 
M 260.25 127.08 261.37 126.41 263.75 123.59 265.28 120.4 265.28 118.43 263.75 115.24 261.37 112.42 259.52 111.32 
M 260.45 143.06 262.28 141.99 264.63 139.23 266.14 136.11 266.14 134.18 264.63 131.06 262.28 128.3 260.45 127.23 
M 260.62 158.53 262.37 157.52 264.62 154.92 266.07 151.97 266.07 150.15 264.62 147.2 262.37 144.6 260.62 143.59 
M 263.48 162.62 262.52 160.68 260.11 157.88 259.58 157.57 
M 260.03 192.46 260.05 192.44 
M 265.18 209.88 266.93 206.94 268.07 203.56 268.07 201.47 266.93 198.09 265.16 195.1 263.77 193.94 
M 256.21 88.13 257.78 87.24 259.79 84.94 261.09 82.35 261.09 80.74 259.79 78.14 258.95 77.18 
M 260.29 104.17 261.79 103.33 
M 261.79 103.33 262.22 103.09 264.69 100.3 266.28 97.15 266.28 95.2 264.69 92.05 262.22 89.27 260.29 88.18 
M 264.03 120.68 264.73 120.32 
M 264.73 120.32 266.14 119.57 268.84 116.71 270.59 113.47 270.59 111.46 268.84 108.22 266.14 105.36 264.03 104.25 
M 265.91 136.42 268.01 135.33 270.71 132.56 272.45 129.42 272.45 127.48 270.71 124.34 268.01 121.57 265.91 120.49 
M 266.35 151.87 268.43 150.82 271.1 148.14 272.82 145.1 272.82 143.22 271.1 140.19 268.43 137.51 266.35 136.46 
M 270.45 163.04 272.2 160.12 272.2 158.26 270.39 155.24 267.6 152.58 265.41 151.54 
M 266.35 201.06 268.04 199.88 270.21 196.86 271.6 193.44 271.6 192.04 
M 272.52 208.74 272.52 208.04 271.23 204.99 269.22 202.31 267.65 201.26 
M 257.14 79.57 258.25 78.66 259.13 77.22 
M 265.58 93.33 266.07 92.52 267.27 89.11 267.27 87 266.07 83.59 264.22 80.57 262.78 79.4 
M 268.6 114.31 270.23 113.12 272.32 110.08 273.67 106.64 273.67 104.51 272.32 101.07 270.23 98.03 268.6 96.84 
M 271.83 129.57 273.11 128.75 275.28 125.96 276.69 122.79 276.69 120.83 275.28 117.67 273.11 114.87 271.41 113.78 
M 272.24 145.25 273.88 144.18 275.98 141.47 277.33 138.39 277.33 136.49 275.98 133.41 273.88 130.69 272.24 129.63 
M 272.08 160.63 273.79 159.6 275.99 156.95 277.41 153.94 277.41 152.08 275.99 149.08 273.79 146.43 272.08 145.39 
M 274.04 162.87 272.65 161.41 270.73 160.4 
M 273.28 208.59 275.05 205.59 276.07 202.37 276.07 200.37 275.05 197.15 273.46 194.31 272.22 193.2 
M 263.92 87.65 265.49 86.56 267.51 83.77 268.82 80.34 
M 273.09 102.49 274.14 101.05 275.59 97.54 275.59 95.37 274.14 91.85 271.88 88.75 270.12 87.54 
M 276.19 121.03 276.48 120.85 278.85 117.9 280.39 114.56 280.39 112.49 278.85 109.15 276.48 106.2 274.62 105.05 
M 276.54 137.56 278.41 136.47 280.8 133.69 282.35 130.54 282.35 128.58 280.8 125.43 278.41 122.65 276.54 121.56 
M 277.04 153.26 278.95 152.19 281.38 149.43 282.95 146.3 282.95 144.37 281.38 141.25 278.95 138.49 277.04 137.41 
M 282.9 163.01 283.37 162.17 283.37 160.28 281.66 157.23 279.02 154.54 276.95 153.49 
M 275.26 199.51 276.98 198.45 279.18 195.74 280.6 192.67 280.6 191.86 
M 280.29 207 280.29 206.28 279.02 203.32 277.03 200.7 275.49 199.68 
M 271.77 96.76 273.19 95.5 275 92.27 276.17 88.61 276.17 86.34 275.21 83.34 
M 279.76 110.58 280.47 109.33 281.61 105.8 281.61 103.61 280.47 100.08 278.7 96.96 277.32 95.75 
M 281.16 130.19 282.63 129.08 284.52 126.24 285.73 123.02 285.73 121.02 284.52 117.8 282.63 114.96 281.16 113.85 
M 282.39 144.15 282.76 143.87 284.59 141.09 285.76 137.94 285.76 135.99 284.59 132.84 282.76 130.06 282.09 129.55 
M 282.52 162.22 284.08 161.1 286.07 158.21 287.36 154.94 287.36 152.92 286.07 149.65 284.08 146.76 282.52 145.63 
M 280.72 152.26 285.25 151.71 
M 280.77 153.61 284.96 153.66 
M 280.72 155.69 285.04 156.59 
M 283.33 163.05 282.46 162.52 
M 279.84 205.55 280.44 205.07 282.07 202.5 283.12 199.59 283.12 197.79 282.07 194.88 280.44 192.31 280.1 192.03 
M 277.83 197.1 281.37 196.26 
M 277.78 198.58 281.06 198.4 
M 277.77 199.93 280.98 201.08 
M 280.42 206.96 279.29 206.14 
M 275.58 84.04 275.86 83.67 
M 279.11 104.98 280.83 103.74 283.04 100.57 284.46 96.98 284.46 94.76 283.04 91.17 280.83 88 279.11 86.76 
M 285.3 120.66 287.65 117.55 289.04 114.17 289.04 112.08 287.65 108.7 285.48 105.72 283.79 104.55 
M 282.04 111.16 286.36 110.81 
M 282.39 113.18 286.35 113.07 
M 282.32 114.84 286.64 115.43 
M 285.84 137.42 287.53 136.32 289.7 133.49 291.09 130.29 291.09 128.31 289.7 125.11 287.53 122.28 285.84 121.18 
M 284.16 127.57 288.24 126.63 
M 283.92 129.58 288.54 129.41 
M 284.06 130.66 288.84 131.96 
M 286.9 153.39 288.37 152.45 290.59 149.6 292.03 146.36 292.03 144.36 290.59 141.12 288.37 138.26 286.62 137.15 
M 285.22 143.63 289.55 142.59 
M 284.96 145.56 289.66 145.66 
M 285.08 147.19 289.59 148.12 
M 292.89 163.26 292.98 161.11 291.48 157.95 289.16 155.16 287.34 154.07 
M 285.37 160.23 290.22 159.42 
M 285.66 161.86 290.5 162.06 
M 284.48 198.58 286.34 197.6 288.72 195.09 290.25 192.24 290.25 191.29 
M 282.76 192.97 287.48 193.49 
M 288.78 203.73 287.97 202.15 285.67 199.57 283.86 198.56 
M 282.22 204.29 286.99 204.01 
M 282.13 205.72 283.96 205.81 
M 283.87 92.67 284.32 91.89 285.53 87.9 
M 279.64 85.59 279.73 85.56 
M 279.68 86.9 283.06 87 
M 281.43 89.23 283.13 89.6 
M 288.54 110.76 289.74 108.79 290.96 105.27 290.96 103.09 289.74 99.57 287.84 96.46 286.36 95.24 
M 284.88 102.16 288.44 101.58 
M 284.81 104.17 288.78 104.09 
M 285.33 105.87 288.54 106.91 
M 290.32 129.82 291.62 128.71 293.28 125.85 294.36 122.61 294.36 120.6 293.28 117.36 291.62 114.5 290.32 113.38 
M 288.92 120.11 292.33 119.45 
M 288.98 121.4 292.22 121.81 
M 289.25 123.3 292.29 124.39 
M 290.55 144.71 291.52 143.97 
M 291.52 143.97 291.99 143.61 293.84 140.79 295.03 137.6 295.03 135.62 293.84 132.43 291.99 129.61 290.55 128.51 
M 289.1 134.88 292.55 133.93 
M 289.12 136.52 292.65 136.84 
M 288.88 138.07 292.8 139.2 
M 292.08 162.39 293.47 161.24 295.24 158.3 296.38 154.96 296.38 152.9 295.24 149.57 293.47 146.62 292.08 145.47 
M 290.9 152.11 293.99 151.26 
M 290.9 153.67 294.53 154.1 
M 290.72 155.34 294.25 156.61 
M 293.14 163.28 292.28 162.65 
M 290.41 191.67 291.31 191.15 
M 291.23 202.5 291.82 201.78 293.18 198.9 293.18 197.12 291.82 194.24 289.72 191.7 289.23 191.41 
M 286.56 196.39 290.92 195.97 
M 286.51 198.06 290.74 197.76 
M 286.3 199.73 290.85 200.09 
M 282.46 86.78 282.6 86.72 
M 288.57 104.52 290.46 103.33 292.88 100.29 294.44 96.84 294.44 94.7 292.8 91.16 
M 286.63 94.12 291.81 93.22 
M 286.56 95.71 291.3 95.62 
M 286.99 97.68 291.88 98.58 
M 292.63 120.73 294.29 119.6 296.41 116.69 297.78 113.4 297.78 111.37 296.41 108.08 294.29 105.17 292.63 104.04 
M 291.23 110.67 295.61 109.68 
M 291.03 112.37 295.06 112.47 
M 291.18 114.34 295.54 114.6 
M 294.56 136.6 296.14 135.49 298.17 132.64 299.47 129.42 299.47 127.43 298.17 124.21 296.14 121.37 294.56 120.26 
M 292.87 126.96 297.22 126.01 
M 293 128.43 296.8 128.48 
M 293.19 129.95 297.26 131.17 
M 295.68 153.13 297.31 152 299.4 149.12 300.75 145.85 300.75 143.83 299.4 140.56 297.31 137.68 295.68 136.55 
M 294.16 143.02 298.01 142.58 
M 293.92 144.99 298.44 144.61 
M 294.3 146.2 298.23 147.36 
M 300.93 163.57 301.37 162.5 301.37 160.5 300.03 157.27 297.95 154.41 296.33 153.3 
M 294.93 160.17 298.72 158.94 
M 294.9 161.19 298.71 161.7 
M 294.71 163.36 296.14 163.65 
M 294.95 199.72 296.96 198.71 299.55 196.13 301.21 193.2 301.21 191.39 300.49 190.12 
M 293.28 190.84 297.07 190.21 
M 293.31 192.35 298.26 192.16 
M 293.2 193.68 298.03 194.82 
M 295.83 200.38 294.5 199.74 
M 293.83 92.76 294.47 91.94 
M 297.29 112.19 297.89 111.75 299.83 108.89 301.09 105.64 301.09 103.63 299.83 100.38 297.89 97.52 296.36 96.4 
M 294.93 103.31 298.51 101.89 
M 295.17 104.82 298.75 104.91 
M 294.8 106.16 298.92 107.32 
M 298.93 125.6 300.26 123.25 301.27 120.1 301.27 118.15 300.26 115 298.69 112.22 297.84 111.47 
M 296.4 117.63 299.76 116.49 
M 296.12 119.27 299.26 119.25 
M 296.21 120.65 299.41 121.62 
M 300.27 144.41 301.2 143.61 302.88 140.7 303.97 137.4 303.97 135.36 302.88 132.06 301.2 129.14 299.88 128.01 
M 298.37 134.56 301.92 133.98 
M 298.71 136.69 301.89 136.5 
M 298.36 138.15 301.69 139.04 
M 300.89 160.05 301.5 159.54 303.17 156.68 304.25 153.44 304.25 151.43 303.17 148.19 301.5 145.33 300.49 144.47 
M 299.1 150.89 302.34 149.79 
M 299.14 152.68 302.34 152.58 
M 298.73 154.1 302.42 154.89 
M 302.92 163.52 302.06 162 300.76 160.86 
M 301.25 193.82 302.84 192.76 304.87 190.03 305.27 189.1 
M 304.4 196.82 301.91 193.96 300.05 192.93 
M 298.21 198.81 299.74 198.68 
M 299.21 104.25 301.36 103.25 304.1 100.69 305.87 97.77 
M 297.43 95.56 300.97 95.04 
M 297.13 97.14 302.85 97.11 
M 296.83 98.62 302.63 99 
M 301.32 119.04 303.03 118.02 305.22 115.39 306.63 112.41 306.63 110.57 305.22 107.59 303.03 104.96 301.32 103.94 
M 299.97 109.93 303.75 109.2 
M 299.82 111.34 304.38 111.57 
M 299.47 113.06 304.28 114.08 
M 302.48 134.79 304.02 133.7 305.99 130.9 307.26 127.73 307.26 125.76 305.99 122.59 304.02 119.79 302.48 118.7 
M 301.01 124.98 305.12 124.08 
M 301.28 126.62 304.9 126.48 
M 301.26 128.32 304.9 129.13 
M 303.96 151.91 305.55 150.77 307.58 147.85 308.89 144.55 308.89 142.5 307.58 139.2 305.55 136.28 303.96 135.14 
M 302.55 142.09 306.32 141.26 
M 302.35 143.74 306.83 143.72 
M 302.12 144.95 306.76 146.29 
M 308.36 164.32 309.59 161.21 309.59 159.15 308.27 155.82 306.21 152.89 304.61 151.74 
M 303.11 158.33 307.43 157.91 
M 303.1 160.34 306.97 160.2 
M 302.93 161.56 307.03 162.52 
M 312.08 193.34 312.08 192.77 310.44 189.63 308.81 187.85 
M 304 192.37 308.87 191.61 
M 304.1 193.49 309.06 193.62 
M 304.1 195.2 307.16 195.73 
M 306.12 111.22 307.53 110.41 309.55 108.1 310.85 105.48 310.85 103.85 309.55 101.23 307.53 98.92 305.95 98.01 
M 304.53 103.18 308.46 102.57 
M 304.64 104.72 308.79 104.62 
M 304.37 106.12 308.76 106.86 
M 305.49 124.88 306.87 123.88 308.63 121.33 309.77 118.44 309.77 116.65 308.63 113.76 306.87 111.2 305.49 110.2 
M 304.04 116.33 307.95 115.57 
M 303.85 117.25 307.82 117.6 
M 304.33 119.09 307.56 119.8 
M 307.07 142.42 308.29 141.27 309.85 138.32 310.86 134.97 310.86 132.9 309.85 129.55 308.29 126.6 307.07 125.44 
M 306.09 131.99 309.03 131.41 
M 306.06 133.84 309.31 134.15 
M 305.64 135.47 309.28 136.42 
M 308.69 159.81 310.15 158.66 312.01 155.71 313.21 152.38 313.21 150.32 312.01 146.98 310.15 144.04 308.69 142.89 
M 306.99 149.83 311.03 148.85 
M 307.47 151.28 310.89 151.2 
M 307.46 152.78 311.25 153.96 
M 312.25 164.86 311.73 163.2 310.08 160.18 309.37 159.52 
M 312.6 193.09 314.21 190.52 315.44 187.08 315.44 186.46 
M 309.15 187.97 313.11 188.54 
M 311.09 104.99 313.34 104.21 313.99 103.77 
M 310.77 117.93 312.7 117.04 315.17 114.76 316.76 112.18 316.76 110.58 315.17 108 312.7 105.73 310.77 104.84 
M 310.66 133.12 312.43 132.06 314.7 129.35 316.16 126.28 316.16 124.38 314.7 121.3 312.43 118.59 310.66 117.53 
M 312.41 150.96 314.14 149.79 316.35 146.81 317.78 143.43 317.78 141.34 316.35 137.96 314.14 134.98 312.41 133.82 
M 316.42 165.02 317.34 163.78 318.78 160.39 318.78 158.3 317.34 154.91 315.1 151.92 313.35 150.75 
M 319.94 189.62 317.91 187.11 316.5 186.24 
M 316.6 111.33 318.31 110.57 319.98 109.11 
M 315.63 123.88 316.8 123.28 319.06 120.97 320.52 118.34 320.52 116.72 319.06 114.1 316.8 111.78 316.19 111.47 
M 316.99 139.18 318.55 136.79 319.82 133.36 319.82 131.24 318.55 127.81 316.58 124.79 315.63 124.06 
M 318.84 160.6 320.38 159.42 322.36 156.42 323.63 153.01 323.63 150.9 322.36 147.5 320.38 144.49 318.84 143.32 
M 321.86 166.08 321.86 165.34 320.59 161.95 319.5 160.29 
M 324.78 187.46 324.89 184.87 324.56 183.86 
M 321.8 119.12 323.96 118.27 326.72 116.11 327.25 115.37 
M 321.1 133.72 323.24 132.7 325.97 130.09 327.74 127.14 327.74 125.32 325.97 122.37 323.24 119.76 321.1 118.75 
M 323.18 150.54 324.21 149.94 326.74 147.01 328.37 143.69 328.37 141.63 326.74 138.31 324.21 135.38 322.24 134.24 
M 325.55 166.53 327.64 164.04 329.25 160.68 329.25 158.6 327.64 155.24 325.15 152.27 323.2 151.11 
M 324.46 184.89 325.73 184.09 326.54 183.06 
M 326.68 186.62 325.66 185.96 
M 327.78 127.52 329.72 126.61 332.22 124.27 333.83 121.62 333.83 120.8 
M 327.79 141.44 328.41 141.09 330.82 138.35 332.37 135.25 332.37 133.33 330.82 130.23 328.41 127.49 326.9 126.63 
M 328.53 160.58 330.16 159.43 332.24 156.47 333.58 153.13 333.58 151.06 332.24 147.71 330.16 144.76 328.53 143.61 
M 333.85 167 332.41 163.79 330.12 160.87 328.94 160.12 
M 333.76 183.27 332.92 181.02 
M 333.51 121.58 334.36 121.23 
M 333.15 136.11 335.37 135.11 338.22 132.57 340.06 129.69 340.06 127.9 338.22 125.02 335.37 122.48 333.25 121.53 
M 333.37 152.36 335.49 151.26 338.2 148.45 339.95 145.27 339.95 143.3 338.2 140.12 335.49 137.31 333.37 136.21 
M 336.75 167.52 338.76 165.3 340.45 162.02 340.45 159.99 338.76 156.72 336.13 153.82 334.09 152.69 
M 339.78 179.96 340.21 179.11 
M 339.5 130.02 341.24 129.07 342.34 127.88 
M 339.32 144.43 340.63 143.69 343 141.02 344.53 137.99 344.53 136.12 343 133.1 340.63 130.42 338.78 129.38 
M 339.65 161.97 341.35 160.84 343.52 157.97 344.93 154.71 344.93 152.69 343.52 149.43 341.35 146.55 339.65 145.42 
M 344.57 167.81 343.74 165.93 341.54 163.1 339.83 162 
M 341.27 179.11 340.96 178.88 
M 344.55 138.03 346.58 137.04 349.2 134.48 349.61 133.77 
M 342.74 129.47 344.03 129.26 
M 342.72 130.47 345.47 130.42 
M 342.64 132.27 348.05 132.65 
M 344.66 153.99 346.68 152.92 349.28 150.16 350.95 147.03 350.95 145.1 349.28 141.97 346.68 139.21 344.66 138.14 
M 342.77 144.49 347.75 143.88 
M 342.42 146.21 348.01 146.32 
M 342.94 147.79 347.67 148.17 
M 347.92 168.3 349.44 166.58 351.06 163.38 351.06 161.39 349.44 158.19 346.94 155.36 344.98 154.26 
M 343.38 160.67 348.01 159.93 
M 343.19 162.69 348.37 162.3 
M 343.15 163.85 348.24 164.56 
M 350.35 146.19 351.6 145.39 353.71 142.71 355.06 139.67 355.06 138.2 
M 348.51 137.49 352.36 136.65 
M 348.29 138.43 352.77 138.64 
M 348.38 140.38 352.39 140.81 
M 350.25 162.83 351.81 161.73 353.8 158.93 355.08 155.76 355.08 153.79 353.8 150.62 351.81 147.81 350.35 146.79 
M 348.87 153.07 352.51 152.36 
M 348.65 154.64 352.89 154.89 
M 348.81 156.55 352.48 157.1 
M 354.67 169.12 353.73 166.78 351.74 163.97 350.19 162.87 
M 351.34 168.97 352.88 168.71 
M 354.81 138.77 355.39 138.46 
M 354.9 154.62 356.73 153.56 359.06 150.82 360.57 147.73 360.57 145.82 359.06 142.72 356.73 139.99 354.9 138.92 
M 352.88 145.03 358.05 144.13 
M 352.87 146.88 358.02 147 
M 352.99 148.24 357.8 149.44 
M 357.19 169.24 359.02 166.98 360.49 163.8 360.49 161.83 359.02 158.65 356.74 155.84 354.96 154.75 
M 353.09 160.88 357.84 160.3 
M 353.02 162.59 357.83 162.54 
M 353.12 164.12 357.76 165.14 
M 360.03 146.49 361.27 145.62 362.26 144.23 
M 359.61 162.56 361.01 161.48 362.8 158.7 363.92 155.64 
M 363.92 153.5 363.92 153.5 
M 358.39 153.06 361.58 152.28 
M 358.05 154.67 361.73 154.67 
M 358.1 156.24 361.64 156.87 
M 362.52 165.95 361.21 163.92 359.78 162.81 
M 362.34 144.9 363.04 144.89 
M 362.68 146.38 363.92 146.4 
M 362.39 147.63 363.92 147.82 
M 362.55 161.11 363.92 160.83 
M 362.22 162.18 363.92 162.17 
M 362.65 163.61 363.92 163.76 
M 188.51 200.57 189.08 200.55 
M 191.24 201.06 193.16 200.16 195.07 198.36 
M 196.59 210.67 197.55 209.23 197.55 207.5 195.7 204.71 192.83 202.25 191.24 201.56 
M 196.88 209.64 198.24 208.78 200.3 206.16 201.62 203.19 201.62 202.24 
M 200.57 213.81 200.14 213.02 197.89 210.66 196.88 210.13 
M 206.76 209.22 207.51 208.7 209.44 206.04 209.86 205.01 
M 204.23 97.27 204.23 97.27 
M 214.65 219.75 213.29 218.43 211.44 217.52 
M 221.01 217.52 222.84 216.52 225.17 213.96 226.68 211.06 226.68 209.26 226.13 208.22 
M 219.25 208.61 223.89 207.86 
M 219.16 211.83 224.22 212.13 
M 225.98 210.71 227.5 209.66 228.28 208.57 
M 224.78 216.13 228.33 215.27 
M 224.57 217.99 228.58 217.51 
M 224.73 219.17 228.06 219.5 
M 230.73 217.66 232.52 216.67 234.81 214.11 236.29 211.22 236.29 210.43 
M 229.31 210.43 233.41 210.34 
M 229.15 212 233.57 212.84 
M 235.65 225.34 235.91 224.89 235.91 223.32 234.46 220.78 232.21 218.54 230.46 217.66 
M 228.83 222.63 233.25 221.94 
M 224.47 86.64 224.47 86.64 
M 235.5 224.49 236.97 223.57 238.85 221.2 240.07 218.52 240.07 216.87 238.85 214.19 236.97 211.82 235.5 210.9 
M 234.01 216.17 237.89 215.64 
M 233.87 218.95 238.11 220.05 
M 236.5 225.57 236.05 225.08 234.59 224.29 
M 228.45 85.22 228.45 85.22 
M 238.63 211.51 243.12 212.43 
M 237.9 224.08 242.77 223.8 
M 231.48 84.01 231.48 84.01 
M 244.92 210.84 244.93 210.84 
M 243.61 217.23 247.18 217.51 
M 243.2 218.66 247.03 219.46 
M 246.87 226.11 246.11 225.29 244.56 224.47 
M 254.73 225.55 255.1 224.9 255.1 223.29 253.63 220.7 251.35 218.4 249.57 217.51 
M 247.69 223.08 252.44 221.82 
M 247.66 223.92 252.28 224.28 
M 246.39 78.46 246.39 78.46 
M 242.78 79.73 242.78 79.73 
M 254.31 224.42 255.75 223.47 257.59 221.02 258.77 218.24 258.77 216.52 257.59 213.75 255.75 211.3 255.22 210.95 
M 256.03 225.52 254.53 224.66 
M 258.98 217.69 260.67 216.63 262.83 213.91 264.22 210.84 264.22 209.96 
M 263.93 225.43 264.27 224.78 264.27 223.15 262.87 220.51 260.7 218.18 259 217.27 
M 265.31 225.27 263.8 224.25 
M 258.95 77.18 258.95 77.18 
M 267.65 216.69 269.22 215.64 271.23 212.96 272.52 209.92 272.52 208.74 
M 272.64 223.62 272.64 222.24 271.32 219.56 269.28 217.19 267.69 216.26 
M 272.22 209.54 273.28 208.59 
M 271.26 222.24 272.53 221.27 274.14 218.81 275.19 216.02 275.19 214.29 274.14 211.5 272.59 209.13 
M 273.18 223.47 272.34 222.89 
M 275.49 214.72 277.03 213.7 279.02 211.08 280.29 208.12 280.29 207 
M 280.89 221.02 279.56 218.08 277.51 215.65 275.9 214.7 
M 283.86 213.41 285.67 212.4 287.97 209.82 289.46 206.89 289.46 205.08 288.78 203.73 
M 288.73 217.22 286.53 214.88 284.74 213.92 
M 282.73 219.31 285.54 219.11 
M 288.07 205.31 288.93 204.8 
M 294.22 213.93 294.22 212.74 292.81 209.76 290.63 207.13 288.93 206.11 
M 288.93 206.11 288.93 206.1 
M 287.11 212.02 291.35 211.42 
M 287.28 215.3 290.96 215.85 
M 298.55 211.59 299.27 210.9 301 208 301 206.2 299.27 203.3 296.6 200.74 295.83 200.38 
M 292.5 207.09 297.96 207.2 
M 300.05 208.08 301.91 207.05 304.28 204.41 305.81 201.43 305.81 199.58 304.4 196.82 
M 302.02 209.78 300.97 209.22 
M 300.97 95.04 300.97 95.04 
M 305.91 201.72 307.89 200.64 310.44 197.86 312.08 194.72 312.08 193.34 
M 307.16 195.73 309.25 196.09 
M 303.85 207.79 307.37 207.04 
M 316.6 201.19 315.36 198.46 313.2 195.75 311.52 194.69 
M 319.96 199.08 320.28 198.69 321.8 195.39 321.8 193.34 320.28 190.03 319.94 189.62 
M 319.98 109.11 319.98 109.11 
M 321.25 194.46 321.82 193.97 323.69 190.76 324.78 187.46 
M 330.83 192.5 329.73 190.04 327.44 187.11 326.68 186.62 
M 331.96 191.77 332.99 190.14 334.23 186.7 334.23 184.57 333.76 183.27 
M 334.35 185.88 336.32 184.74 338.86 181.83 339.78 179.96 
M 337.56 187.99 337.05 187.38 335.24 186.27 
M 338.37 186.34 340.08 186.12 
M 348.05 176.13 348.08 176.13 
M 343 178.3 348.13 178.42 
M 343.04 179.88 347.07 180.86 
M 363.92 153.5 362.8 150.45 361.01 147.66 360.03 146.9 
M 358.5 169.41 361.95 168.75 
M 363.92 146.4 363.92 146.4 
M 199.71 99.89 200.82 99.51 
M 207.87 94.55 200.94 68.58 201.56 68.39 210.02 93.6 
M 216.38 89.73 210.03 52.31 210.66 52.18 218.62 89.03 
M 225.41 86.03 221.23 45 221.87 44.93 227.69 85.49 
M 234.46 82.42 230.42 32.96 231.06 32.9 236.75 81.86 
M 243.63 79.03 243.81 30 244.45 30 245.96 78.61 
M 253.18 76.63 264.36 34.72 264.99 34.87 255.52 76.88 
M 262.94 77.81 286.68 40.9 287.24 41.24 265.08 78.79 
M 272.04 81.42 303.88 45.08 304.37 45.5 273.99 82.72 
M 280.84 85.6 311.75 51.11 312.24 51.53 282.86 86.83 
M 289.79 89.44 313.23 63.54 313.72 63.96 291.78 90.7 
M 298.69 93.48 315.75 77.19 316.22 77.64 300.6 94.84 
M 307.25 98.21 318.7 90.04 319.11 90.55 308.92 99.84 
M 313.61 103.03 314.28 104 
M 201.22 99.24 202.47 89.99 202.72 83.73 202.37 77.46 201.63 71.18 
M 202.41 70.94 204.98 68.04 207.2 64.94 208.9 61.56 210.66 56.05 
M 211.46 55.89 214.19 55.08 216.7 53.94 218.88 52.31 221.64 49.11 
M 222.46 49.01 224.98 47.04 227.2 44.84 228.93 42.28 230.82 37.9 
M 231.64 37.82 234.53 37.99 237.34 37.77 240 36.97 243.79 34.91 
M 244.61 34.9 250.58 37.33 254.69 38.37 258.92 38.83 263.24 38.91 
M 264.03 39.1 268.32 41.13 272.71 42.78 277.26 43.85 284.31 44.59 
M 285.01 45.02 288.3 46.65 291.69 47.91 295.21 48.58 300.69 48.71 
M 301.32 49.24 303.1 51.92 304.64 53.23 306.54 54.05 308.66 54.56 
M 309.28 55.09 308.81 57.67 308.73 60.18 309.24 62.61 310.89 66.13 
M 311.51 66.66 311.25 70.94 311.66 73.68 312.66 76.29 314.04 78.82 
M 314.63 79.39 314.47 82.14 314.69 84.8 315.49 87.31 317.56 90.86 
M 318.07 91.5 316.38 93.94 315.07 96.5 314.32 99.25 314.05 103.66 
M 203.72 69.5 206.15 66.52 207.2 64.94 208.9 61.56 210.13 57.92 
M 205.39 73.41 207.39 70.96 209.01 68.29 209.66 66.86 210.68 63.86 
M 207.06 77.33 209.32 74.36 210.42 72.16 211.23 69.8 
M 208.73 81.24 210.38 79.07 211.19 77.47 211.77 75.74 
M 212.84 55.51 215.48 54.57 216.7 53.94 218.88 52.31 220.76 50.23 
M 214.13 60.02 216.4 59.21 218.42 58.02 219.32 57.26 220.94 55.48 
M 215.42 64.52 217.32 63.84 219.01 62.85 221.12 60.72 
M 216.71 69.03 218.24 68.48 219.6 67.68 221.3 65.97 
M 218 73.54 219.16 73.12 220.19 72.52 221.48 71.21 
M 223.74 48.04 226.14 45.98 227.2 44.84 228.93 42.28 230.25 39.41 
M 224.6 52.25 226.72 50.43 227.65 49.42 229.19 47.16 230.35 44.62 
M 225.46 56.45 227.3 54.88 228.82 53.06 230.45 49.83 
M 226.32 60.66 228.56 58.58 229.69 56.92 230.55 55.05 
M 227.17 64.87 229.02 63.16 229.94 61.8 230.64 60.26 
M 228.03 69.07 229.03 68.22 229.86 67.23 230.74 65.48 
M 233.09 37.93 235.95 37.95 237.34 37.77 240 36.97 242.54 35.66 
M 233.8 42.2 236.38 42.22 237.62 42.06 240.02 41.34 242.31 40.16 
M 234.52 46.48 237.91 46.35 240.04 45.71 242.08 44.66 
M 235.23 50.75 238.2 50.64 240.06 50.08 241.84 49.16 
M 235.94 55.02 238.49 54.93 240.09 54.45 241.61 53.66 
M 236.65 59.3 238.77 59.22 240.11 58.82 241.38 58.16 
M 237.36 63.57 239.06 63.5 240.13 63.18 241.14 62.66 
M 246.58 35.78 250.58 37.33 254.69 38.37 256.79 38.67 261.08 38.9 
M 246.93 40.7 250.46 42.07 254.09 42.99 255.95 43.25 259.73 43.45 
M 247.28 45.62 250.34 46.81 253.49 47.61 258.39 48.01 
M 247.62 50.54 251.55 51.94 254.26 52.42 257.04 52.57 
M 247.97 55.46 251.19 56.61 253.42 57.01 255.7 57.13 
M 248.32 60.39 250.83 61.28 252.57 61.59 254.36 61.69 
M 266.17 40.14 270.5 42.02 272.71 42.78 277.26 43.85 281.94 44.41 
M 265.35 44.52 269.17 46.18 273.12 47.39 275.14 47.79 279.28 48.29 
M 264.53 48.9 269.54 50.92 273.03 51.74 276.62 52.17 
M 263.71 53.28 267.96 54.99 270.91 55.69 273.96 56.05 
M 262.88 57.65 266.37 59.06 268.8 59.63 271.29 59.93 
M 262.06 62.03 264.79 63.13 266.68 63.58 268.63 63.81 
M 286.65 45.86 289.98 47.35 293.43 48.32 295.21 48.58 298.85 48.73 
M 284.52 49.88 287.46 51.19 288.97 51.69 292.08 52.28 295.3 52.42 
M 282.4 53.9 284.95 55.04 287.6 55.78 291.75 56.1 
M 280.27 57.92 283.55 59.24 285.84 59.68 288.2 59.78 
M 278.15 61.93 279.92 62.72 281.76 63.24 284.65 63.46 
M 276.02 65.95 278.12 66.8 279.59 67.08 281.11 67.15 
M 301.87 50.19 303.1 51.92 304.64 53.23 305.55 53.7 307.58 54.33 
M 299.42 53.6 300.53 55.16 301.91 56.33 302.73 56.75 304.55 57.32 
M 296.96 57.01 298.53 58.97 299.91 59.81 301.53 60.32 
M 294.51 60.41 295.88 62.13 297.08 62.87 298.5 63.31 
M 292.05 63.82 292.79 64.86 293.72 65.65 295.48 66.3 
M 289.6 67.23 290.22 68.1 290.99 68.75 292.45 69.3 
M 287.15 70.64 287.64 71.33 288.25 71.85 289.43 72.29 
M 309.02 56.38 308.7 58.93 308.73 60.18 309.24 62.61 310.27 64.97 
M 305.82 60.85 305.55 63.04 305.57 64.12 306.01 66.21 306.9 68.23 
M 302.63 65.32 302.42 68.05 302.79 69.8 303.53 71.5 
M 299.43 69.78 299.27 71.99 299.56 73.4 300.16 74.76 
M 296.24 74.25 296.1 75.37 296.19 76.46 296.79 78.03 
M 311.35 68.1 311.25 70.94 311.66 73.68 312.1 75 313.33 77.56 
M 307.56 73.74 307.48 75.92 307.8 78.01 309.07 80.99 
M 303.77 79.37 303.71 80.89 303.93 82.34 304.82 84.41 
M 314.52 80.77 314.52 83.49 314.69 84.8 315.49 87.31 316.8 89.69 
M 310.76 86.35 310.86 88.97 311.38 90.6 312.23 92.15 
M 191.94 167.48 206.86 166.49 210.53 165.74 214.5 165.24 218.53 165.12 232.43 163.5 236.28 163.89 240.26 163.61 242.43 163.65 249.98 163 252.14 162.64 257.73 163.05 264.06 162.56 266.13 162.54 267.82 162.63 271.11 163.14 273.23 162.89 277.91 162.72 279.48 162.84 281.02 162.65 283.05 163.04 285.02 163.12 288.84 162.75 295.04 163.62 305.13 163.52 307 164.1 308.94 164.41 311.02 164.57 312.66 164.96 314.52 164.81 316.48 165.02 318.25 165.33 320.35 165.94 324.61 166.48 326.97 166.62 328.86 166.3 331.03 166.18 332.53 166.72 338.28 167.73 340.37 167.37 342.27 167.5 347.64 168.21 349.53 168.8 353.81 169.29 355.87 168.87 359.67 170.15 362.87 170.14 345.45 177.19 343.94 178.08 340.18 179.12 338.03 179.38 336.3 180.06 332.56 181.12 330.88 181.83 327.05 182.86 321.79 185 319.86 185.53 315.78 186.38 311.91 187.43 307.96 187.99 304.77 189.29 303.04 189.82 298.98 190.25 296.68 190.2 289.27 191.41 285.11 191.48 279.2 191.92 277.44 192.23 273.47 192.23 269.17 191.9 261.86 192.53 255.95 192.09 250.39 191.97 246.44 191.66 244.15 191.17 240.26 190.74 227.06 189.58 217.61 187.83 215.32 187.08 212.43 186.56 196.33 182.43 193.44 181.26 191.67 180.32 
M 192.01 168.7 204.89 168.41 206.86 168.29 210.7 167.62 214.73 167.17 218.65 167.32 230.69 166.39 234.73 166.3 238.39 166.89 240.56 166.81 242.67 167.01 252.27 166.41 256.16 166.96 260.05 167.18 264.43 167 271.34 167.89 275.93 167.95 278.09 167.7 281.46 168.02 285.23 168.64 287.17 168.64 289.25 169.09 290.82 169 292.73 169.37 294.71 169.42 297.1 169.98 301.29 170.29 303.07 170.02 304.92 170.19 307.06 171.08 309.36 171.64 311.36 171.93 315.05 172.01 317.08 172.23 320.85 173.23 323.12 173.24 325.01 173.59 
M 192.8 169.87 206.95 169.96 212.76 169.46 214.77 169.45 218.81 169.89 227.14 169.26 232.86 169.71 236.7 169.6 240.41 169.95 244.44 169.95 246.24 170.21 248.24 170.28 250.38 170.27 252.35 170.06 256.24 170.86 258.36 170.84 262.16 171.29 266.29 172.22 268.03 172.79 272.04 173.37 273.89 172.95 275.88 172.79 279.16 173.41 281.42 173.32 285.57 173.96 287.66 174.57 290.57 176.13 
M 192.1 171.14 196.69 171.37 202.87 171.41 207.03 171.74 210.75 171.54 214.75 171.77 216.81 172.11 220.87 172.42 223.13 172.48 225.05 172.21 227.1 172.23 232.85 173.05 238.55 172.96 242.07 173.21 247.94 174.16 251.77 174.53 
M 192.15 172.42 202.94 173.05 208.87 173.63 212.76 173.73 214.65 174.12 220.95 174.95 226.89 175.09 236.58 176.51 240.34 177.46 244.04 177.25 245.91 177.57 247.48 178.33 
M 192.1 173.69 201.05 174.4 203.1 174.9 205.11 175.17 212.73 175.85 218.88 177.14 222.97 177.27 226.14 178.26 228.04 178.72 230.07 178.9 239.99 181.37 243.9 181.51 245.66 181.92 247.35 182.53 249.17 182.9 
M 192.03 174.95 199.08 175.54 201.07 175.94 203.11 176.59 208.88 177.52 210.74 177.66 212.9 178.05 216.8 179.14 220.96 179.69 222.8 180.13 225.66 181.48 227.78 181.94 229.78 182.68 235.55 184.09 239.77 185.67 
M 191.97 176.11 197.03 176.97 199.13 177.1 201.07 177.47 202.97 178.36 209.01 179.69 212.94 180.37 217 181.65 219.04 181.74 221.05 182.27 224.02 184.02 227.18 185.4 
M 191.9 177.38 197.11 178.64 199.12 178.75 200.99 179.21 202.96 180.27 205.08 181.05 209.26 182.3 212.71 183.1 
M 191.79 178.73 195.11 179.88 198.91 180.78 
M 229.18 230.56 231.12 233.87 233.53 238.58 235.93 240.75 249.41 271.36 248.65 275.28 247.6 276.57 246.84 278.15 246.34 280 244.65 279.81 242 278.75 240.18 278.75 238.35 279.37 236.24 279.72 234.2 279.8 229.78 278.38 226.19 277.79 224.88 276.74 224.92 275.48 224.31 273.58 222.2 268.88 220.83 264.92 220.83 263.63 220.37 260.57 219.71 258.62 216.75 252.93 211.17 235.14 212.02 232.41 211.28 230.33 207.91 223.89 
M 226.04 229.75 231.66 239.82 235.14 244.87 236.33 247.22 236.99 249.44 240.04 253.14 
M 222.89 228.94 224.42 231.47 227.59 238.83 229.56 242.19 230.54 244.4 233.75 249.92 234.4 251.86 236.2 255.27 238.78 261.53 238.8 263.99 241.71 267.75 243.03 270.16 243.36 271.75 
M 219.76 228.06 221.25 230.29 222.9 234.13 223.65 236.06 223.98 238.42 224.58 240.33 225.79 242.56 227.4 246.91 228.76 248.79 229.46 250.3 229.8 252.33 230.89 253.84 231.36 255.84 232.2 258 232.48 260.25 232.99 261.98 234.53 265.46 236.09 267.86 236.91 270.03 
M 216.65 227.16 217.98 229.4 219.75 233.15 220.19 235.28 221.19 237.32 222.24 241.64 223.59 245.78 225.36 250.19 226.32 251.87 227.01 253.58 227.72 256.49 228.63 258.64 228.81 263.34 229.45 266.26 
M 213.57 226.12 214.88 228.76 216.8 236.74 217.52 238.89 219.49 246.89 220.77 250.6 220.94 252.37 222.06 254.09 222.44 255.99 222.22 258.74 
M 210.55 224.93 211.97 227.81 212.9 230.34 212.67 235.96 214.07 241.48 213.83 243.72 214.38 245.79 215.66 247.46 
M 329.09 197.12 335.7 202.37 335.35 202.91 327.83 199.08 
M 321 202.54 328.1 208.01 327.75 208.56 319.75 204.52 
M 313.06 208.18 321.43 214.57 321.08 215.11 311.79 210.15 
M 304.96 213.56 315.15 221.89 314.77 222.42 303.6 215.46 
M 296.54 218.45 309.62 229.02 309.24 229.54 295.16 220.34 
M 288.38 223.75 304.8 237.69 304.4 238.2 286.94 225.59 
M 279.78 228.2 298.11 248.45 297.64 248.9 278.09 229.82 
M 270.6 231.25 288.89 260.07 288.35 260.44 268.66 232.55 
M 258.58 232.76 277.74 270.14 277.17 270.45 256.52 233.86 
M 334.6 202.53 332.53 202.94 330.67 203.67 329.16 204.89 327.39 207.46 
M 326.95 208.16 324.08 209.25 322.56 210.41 321.45 212.03 320.6 213.93 
M 320.15 214.62 317.32 215.99 315.87 217.32 314.86 219.05 314.13 221.06 
M 313.65 221.72 311.02 223.07 309.71 224.36 308.86 226.03 308.31 227.96 
M 307.83 228.62 306.08 229.89 304.66 231.37 303.76 233.15 303.16 236.3 
M 302.66 236.94 299.6 239.47 298.05 241.5 297 243.85 296.27 246.42 
M 295.68 246.99 293.13 248.72 290.87 250.7 289.08 253.07 287.06 257.19 
M 286.38 257.65 283.5 258.95 280.87 260.55 278.62 262.62 275.82 266.4 
M 333.55 202.71 331.56 203.25 330.67 203.67 329.16 204.89 327.94 206.55 
M 325.95 208.47 324.08 209.25 322.56 210.41 321.96 211.17 321 212.96 
M 319.16 215.03 317.32 215.99 315.87 217.32 315.31 218.14 314.47 220.04 
M 312.72 222.13 311.02 223.07 309.71 224.36 309.24 225.15 308.57 226.98 
M 308.29 220.32 306.72 221.31 306.03 222.28 305.59 223.47 
M 306.93 229.24 305.31 230.6 304.66 231.37 303.76 233.15 303.3 235.21 
M 301.62 226.72 300.14 228.1 299.56 229.26 299.26 230.6 
M 301.58 237.75 299.6 239.47 298.05 241.5 297.47 242.64 296.62 245.12 
M 297.31 235.2 295.15 237.27 294.16 238.95 293.51 240.86 
M 293.05 232.66 291.99 233.58 291.17 234.66 290.4 236.59 
M 294.39 247.84 291.95 249.67 290.87 250.7 289.08 253.07 287.68 255.77 
M 290.87 244.8 288.86 246.3 287.18 248.09 286.49 249.11 285.33 251.34 
M 287.35 241.75 285.77 242.94 284.45 244.35 282.99 246.91 
M 283.83 238.71 282.16 240.07 281.31 241.19 280.65 242.48 
M 284.92 258.28 282.14 259.7 280.87 260.55 278.62 262.62 276.71 265.09 
M 281.94 254.68 279.55 255.91 278.45 256.64 276.52 258.42 274.88 260.54 
M 278.95 251.09 276.03 252.73 274.41 254.21 273.04 255.99 
M 275.96 247.49 273.61 248.81 272.31 250.01 271.2 251.44 
M 272.98 243.9 271.19 244.9 270.2 245.81 269.36 246.9 
M 363.92 145.64 365.72 144.24 368.28 141.12 369.69 140.13 372.11 137.41 373.25 135.73 376.33 132.6 380.89 128.5 383.3 126.69 384.85 125.15 386.18 124.48 387.68 122.89 389.81 121.34 391.62 120.25 393.42 120.01 397.62 118.65 399.79 118.18 401.22 118.11 404.79 114.89 410.08 114.69 412.84 114.24 415.18 114.23 417.57 113.93 419.17 114.43 420.29 117.53 419.35 122.85 419.35 125.11 419.75 127.74 419.82 130.06 419.45 132.08 416.22 134.32 414.97 135.81 413.16 139.26 412.46 141.15 411.49 142.76 408.79 145.47 407.75 147.08 405.94 147.92 403.93 148.55 400.22 150.26 397.13 152.66 395.55 153.71 393.8 154.55 391.54 154.87 389.9 155.81 388.57 157.07 386.77 157.84 385.4 159.03 381.41 160.14 383.56 161.84 385.37 161.94 387.71 162.59 388.85 162.5 390.09 163.04 400.98 169.66 403.41 170.7 413.87 182.41 414.61 184.02 415.53 187.64 416.19 189.36 419.42 195.38 421.19 202.63 419.26 207.8 418.3 208.19 412.69 206.48 410.77 206.14 409.5 205.62 407.62 204.34 404.75 203.73 402.63 203.09 400.63 202.27 398.53 200.63 394.09 198.38 391.74 198.2 387.99 196.01 383.26 192.08 379.59 187.44 378.53 185.63 375.26 183.15 373.48 182.12 372.12 180.37 371.18 178.47 368.51 174.85 367.27 172.85 363.92 168.45 
M 363.92 146.88 365.74 145.65 368.82 142.65 371.58 140.79 373 139.63 374.32 138.42 375.72 136.78 377.72 135.23 379.43 133.61 380.83 132.6 381.87 130.8 384.46 130.35 386.83 128.87 392 124.29 393.75 124.14 395.64 123.74 402.45 121.01 404.38 121.24 
M 367.67 145.82 370.71 143.32 373.88 141.76 379.05 137.27 383.63 134.52 385.08 134.32 389.57 131.43 
M 363.92 149.36 366 148.64 367.84 147.43 374.62 143.86 378.13 141.35 381.93 138.86 383.56 137.98 386.29 137.34 388.68 136.33 396.29 132.5 400.21 132.37 401.93 132.09 404.47 131.96 406.13 131.2 
M 363.92 150.59 366.17 150.17 370.02 148.16 371.8 147.06 375.19 146.01 383.42 141.52 385.08 141.15 386.5 141.33 387.98 140.65 390.56 139.89 395.63 138.02 397.91 137.86 399.71 137.2 401.46 137.42 
M 368.16 150.89 372.13 148.77 375.64 147.73 379.86 146.88 381.59 145.73 383.7 144.94 385.63 144.83 387.87 145.11 
M 368.4 152.35 370.55 151.82 372.54 150.96 376.35 149.93 377.86 149.77 382.9 149.91 384.37 149.29 
M 368.79 153.97 370.96 154.06 372.56 153.58 374.96 153.29 376.82 152.82 378.84 153.04 381.06 153.61 383.43 153.64 386.83 153.28 
M 371.6 156.12 373.33 156.17 377.66 156.78 380 156.85 
M 363.92 158.03 366.99 159.23 371.75 160.5 373.67 161.37 375.41 162.45 379.89 163.11 
M 363.92 159.27 369 161.56 371.46 162.09 373.34 163.19 374.79 164.41 376.59 165.07 378.7 165.63 385.37 165.88 387.01 166.23 
M 366.67 161.97 371.02 163.96 374.25 166.72 378.4 167.98 383.78 168.35 384.73 169.44 386.19 170.18 389.92 170.77 392.44 170.3 394.37 170.6 
M 366.54 163.39 370.79 165.55 372.18 167.18 373.77 168.48 375.55 169.46 378.26 170.42 382.75 171.14 385.68 172.48 389.93 173.28 392.18 174.13 393.49 175.81 395.36 177.21 400.11 175.73 
M 370.21 167.42 371.7 169.03 373.45 170.21 375.23 171.67 379.53 172.98 382.39 174.59 386.87 175.85 388.96 176.73 390.95 177.98 391.96 179.56 393.18 180.7 395.64 180.96 398.34 180.32 401.29 180.08 403.27 180.88 
M 363.92 164.22 368.3 167.53 372.99 172.34 375.03 173.81 378.66 175.2 379.57 176.24 381.37 177.42 384.12 178.4 385.86 179.6 389.69 181.29 
M 369.53 171.06 370.8 172.81 372.53 174.56 374.4 176.17 377.53 178.14 379.03 178.84 380.69 179.92 382.65 181.53 388.44 185.08 390.87 188.05 
M 367.6 170.71 370.4 174.76 373.69 177.71 374.85 179.32 376.48 180.46 378.16 181.11 379.6 181.88 381.41 184 382.76 185.15 387.02 189.89 388.64 191.19 390.49 192.39 
M 348.41 179.87 346.61 181.73 345.86 182.75 345.23 185.13 344.3 186.03 341.71 186.06 340.49 186.43 339.41 187.17 338.51 188.11 337.09 191.77 334.2 191.66 335.55 193.02 
M 113.26 154.67 116.26 150.88 118.35 149 121.13 147.13 124.54 145.24 128.65 142.39 133.19 139.55 137.97 136.17 143.14 132.84 153.76 126.53 158.9 123.84 172.19 118.16 175.5 116.82 179.54 115.55 181.71 120.19 183.42 124.9 186.5 134.34 187.84 139.07 188.92 143.82 189.09 148.65 190.94 158.18 191.97 167.78 192.16 172.61 191.51 182.33 188.3 201.94 186.64 206.87 177.59 206.38 170.98 205.36 165.15 204.08 159.83 202.5 154.86 200.45 149.97 198.2 140.98 192.81 136.78 189.58 132.62 185.6 128.84 181.34 
M 125.25 176.62 122.66 173.51 119.81 169.64 117.24 165.31 
M 170.65 144.01 171.28 148.12 171.67 152.08 171.03 159.43 169.77 165.95 169.07 171.65 169.11 174.48 170.47 181.08 170.61 185.1 160.43 185.42 156.34 185.41 152.27 185.08 148.23 184.14 144.1 182.72 140.11 180.52 
M 127.13 179.61 124.74 175.79 120.92 170.59 111.88 157.73 111.45 156.13 112.44 154.77 114.13 154.56 115.29 155.76 119.07 162.91 124.48 172.48 127.43 178.34 129.09 181.18 
M 128.66 181.63 120.46 175.84 110.99 170.18 106.98 167.59 104.26 165.6 100.18 163.02 98.94 161.97 98.8 160.36 99.93 159.17 101.52 159.34 117.83 172.09 123.11 175.95 126.74 179.29 128.99 181.09 
M 145.21 152.72 144.63 150.51 144.79 148.23 145.69 146.13 147.22 144.44 149.22 143.33 151.47 142.93 153.73 143.29 155.74 144.35 157.31 146.02 158.25 148.1 158.46 150.37 157.92 152.59 156.69 154.52 154.9 155.94 152.75 156.7 150.46 156.72 148.3 156 146.48 154.62 145.21 152.72 
M 145.13 152.53 144.67 150.87 144.64 149.15 144.78 148.31 145.37 146.69 146.34 145.28 147.62 144.14 149.15 143.36 149.97 143.11 150.82 142.97 152.54 143 154.19 143.46 
M 146.33 152.03 145.9 149.99 146.06 148.53 
M 147.24 146.22 148.36 145.21 150.27 144.38 151.65 144.23 153.7 144.66 
M 147.53 151.53 147.24 150.5 147.31 148.9 
M 148.22 147.07 149.09 146.29 150.56 145.64 151.63 145.53 153.2 145.86 
M 149.01 151.01 148.77 150.13 148.83 149.38 
M 149.57 147.97 150.61 147.25 151.51 147.09 152.41 147.24 153.22 147.66 153.85 148.33 154.22 149.16 154.31 150.07 154.09 150.96 153.6 151.73 152.88 152.3 152.02 152.6 151.11 152.61 150.24 152.32 149.51 151.77 149.01 151.01 
M 149.98 147.6 149.74 148.08 
M 149.06 149.45 148.78 150 
M 151.18 147.15 150.43 148.66 
M 149.95 149.62 149.15 151.22 
M 152.13 147.19 151.09 149.27 
M 150.95 149.57 149.75 151.95 
M 152.95 147.52 150.5 152.41 
M 153.63 148.1 151.38 152.61 
M 154.15 149.01 152.42 152.46 
M 122.98 173.89 124.41 175.32 
M 114.21 153.44 117.03 156.25 
M 115.94 151.27 118.21 153.54 
M 117.94 149.37 120.65 152.09 
M 120.21 147.75 122.5 150.04 
M 122.65 146.29 124.91 148.55 
M 125.11 144.85 128.3 148.04 
M 127.41 143.25 130.51 146.35 
M 129.76 141.7 131.84 143.78 
M 132.15 140.2 135.98 144.03 
M 134.48 138.63 137.94 142.09 
M 136.76 137.02 140.07 140.32 
M 139.09 135.44 142.01 138.36 
M 141.46 133.92 144.57 137.03 
M 143.85 132.41 146.6 135.16 
M 146.3 130.97 148.46 133.13 
M 148.75 129.52 152.39 133.16 
M 151.19 128.06 154.24 131.11 
M 153.63 126.6 156.32 129.29 
M 156.18 125.26 158.22 127.3 
M 158.74 123.92 162.53 127.71 
M 161.5 122.78 163.76 125.04 
M 164.27 121.65 168.13 125.52 
M 166.99 120.48 169.33 122.82 
M 169.7 119.29 171.75 121.34 
M 172.38 118.08 174.66 120.35 
M 175.16 116.95 178.58 120.38 
M 178.05 115.95 179.9 117.8 
M 170.21 128.87 169.29 128.75 168.66 129.1 168.43 129.65 168.49 130.55 168.37 131.02 
M 187.92 155.66 188.52 155.47 189.01 154.47 189.14 154.04 189.11 152.72 
M 162.07 122.72 162.02 122.57 
M 178.28 140.29 177.35 141.88 175.91 142.95 174.85 143.11 174.29 142.93 173.34 142.25 
M 173.61 189.96 172.1 189.04 170.54 187.69 169.53 185.94 169.17 184.94 
M 145.28 192.04 145.4 190.09 145.2 188.54 145.47 186.79 145.05 186.15 
M 156.84 165.02 155.88 164.2 153.77 162.95 152.23 161.63 151.39 161.26 
M 168.84 177.55 168.22 177.19 168.24 175.94 167.94 174.92 
M 132.39 180.3 130.14 178.17 127.78 176.43 127.11 175.68 
M 171.95 193.49 169.64 187.55 
M 134.28 153.42 134.82 152.03 134.8 150.84 134.45 150.08 134.4 149.32 
M 137.59 156.01 139.19 154.2 139.89 153.8 141.35 153.37 141.71 153.03 
M 160.18 136.82 160.4 135.35 161.07 135.16 161.74 135.45 
M 175.66 155.05 174.65 156.24 
M 170.65 168.94 170.04 169.47 170.14 169.87 
M 157.34 130.35 157.9 132.86 159.11 134.14 160.12 134.36 
M 137.78 184.25 136.04 184.6 134.66 184.24 132.81 184.12 
M 136.99 170.28 136.73 167.55 136.84 167.15 137.02 167.07 
M 153.81 139.88 155.94 137.41 156.58 137.1 157.32 137 
M 171.33 193.51 171.07 191.86 169.68 187.64 
M 122.81 157.92 123.93 158.84 
M 180.72 201.84 181.46 201.47 183.24 200.96 183.93 200.54 185.15 199.44 187.17 197.04 187.88 196.47 
M 185.66 189.52 184.68 186.97 184.37 186.65 183.81 186.56 
M 154.55 127.3 154.54 128.06 154.22 129.38 153.74 130.38 152 131.66 150.78 132.33 
M 173.8 117.63 174.11 118.49 175.02 119.94 174.88 120.38 
M 124.25 147.75 122.88 147.25 121.96 146.67 
M 152.76 173.43 153.37 172.77 153.36 172.57 
M 173.72 190.87 171.57 189.41 170.36 187.99 169.46 186.33 169.19 185.37 
M 136.28 163.04 134.69 163.97 131.81 164.27 130.46 165.26 
M 177.12 129.4 177.52 127.78 178.59 126.61 182.34 125.69 
M 120.24 170.22 121.78 172 
M 170.13 180.9 169.84 181.68 169.78 182.55 169.25 182.84 
M 148.16 143.92 148.5 142.92 148.42 141.64 
M 180.44 138.2 178.33 140.37 177.39 141.94 175.92 143.01 
M 131.17 177.9 129.57 176.78 128.16 176.28 125.99 174.46 
M 156.23 174.99 156.59 173.92 156.23 173.52 
M 151.13 196.08 151.42 196.64 153.02 197.43 153.86 198.1 154.63 199.59 
M 131.62 175.94 129.11 174.35 128.13 173.92 126.7 173.74 125.98 173.34 125.67 172.96 
M 188.64 183.18 188.46 183.77 188.56 184.31 188.84 184.72 189.25 184.91 
M 136.1 188.93 136.08 188.6 
M 174.7 194.75 174.29 193.14 173.74 191.87 173.33 191.34 171.4 189.77 169.99 187.63 
M 128.25 168.79 126.47 168.15 125.19 168.32 124.93 168.47 124.7 168.92 124.81 170.12 
M 163.88 181.87 168.43 181.14 168.96 181.39 169.41 182.23 
M 179.06 203.73 181.05 202.12 183.66 201.15 184.31 200.67 187.16 197.55 
M 183.03 186.47 181.94 186.11 179.9 186.02 177.74 186.56 176.95 186.59 175.32 185.75 
M 160.54 131.47 160.85 132.35 162.68 135.51 163.59 136.38 
M 150.27 134.27 150.35 133.41 149.19 132.02 148.41 129.72 
M 129.71 150.69 129.43 149.79 128.94 149.37 126.37 148.19 124.91 147.84 
M 147.95 189.35 148.15 187.65 148.08 186.95 147.7 186.17 146.33 185.23 145.22 185.12 
M 169.1 145.41 168.81 144.48 168.83 142.45 168.43 141.89 
M 134.08 157.01 134.04 154.9 134.9 152.6 134.93 151.14 
M 179.02 186.89 176.73 187.36 176.13 187.18 174.56 186.17 173.35 185.61 171.54 185.39 
M 136.28 150.91 135.93 150.9 135.15 150.48 
M 167.25 153.79 165.13 153.37 164.57 153.41 163.73 153.67 162.68 154.7 161.55 154.93 
M 140.3 186.54 138.8 185.73 137.37 185.52 135.45 185.6 134.47 184.65 
M 124.07 159.24 124.66 159.47 
M 171.87 118.3 172.23 118.95 172.28 120.07 172.09 120.47 171.02 121.18 
M 178.83 116.84 178.98 115.7 
M 157.28 183.19 157.65 181.69 158.25 180.85 158.47 180.16 158.25 178.91 157.75 178.27 
M 174.4 136.54 173.34 135.38 172.5 133.05 170.78 129.52 169.91 128.86 
M 123.35 170.45 123.83 170.99 123.99 171.6 
M 146.32 173.32 146.08 172.73 145.25 172.2 
M 183.5 172.77 181.56 172.16 181.25 171.66 181.08 170.65 
M 147.36 192.18 147.18 191.5 147.62 189.75 147.82 188.18 147.78 186.9 
M 177.05 119.07 178.87 118.62 179.26 117.83 179.5 116.32 
M 190.32 189.36 188.41 187.41 188.2 186.94 
M 176.4 119.19 178.62 118.53 179.07 117.8 179.26 116.67 
M 145.69 162.91 145.59 161.52 146.15 160.51 147.38 159.62 149.07 158.97 149.53 158.37 
M 173.75 130.57 172.88 129.05 172.29 128.36 171.41 127.65 170.56 127.3 169.42 127.34 168.3 127.99 167.74 128.65 167.86 129.68 
M 134.96 183.35 133.97 183.25 132.09 183.54 131.28 184.09 
M 175.24 183.36 174.66 183.59 173.75 184.33 172.27 185.06 170.92 185.33 170.12 185.13 
M 162.58 161.94 163.61 160.64 163.87 159.79 
M 160.9 157.18 160.26 155.88 160.08 153.9 
M 106.06 166.9 112.03 173.07 116.27 176.79 120.83 180.35 125.64 183.81 130.66 187.1 140.98 192.81 
M 120.93 176.95 121.72 178.69 122.02 180.41 121.74 181 
M 182.31 121.82 182.35 121.87 
M 180.49 114.82 187.04 121.37 
M 183.48 112.61 190.69 119.81 
M 186.47 110.4 192.12 116.05 
M 189.43 108.16 195.38 114.12 
M 192.37 105.91 198.67 112.21 
M 195.33 103.67 200.01 108.35 
M 198.28 101.43 203.8 106.95 
M 201.26 99.21 208 105.95 
M 204.4 97.16 208.82 101.57 
M 207.54 95.1 214.36 101.92 
M 210.78 93.14 215.49 97.85 
M 214.04 91.2 218.6 95.76 
M 217.54 89.5 223.12 95.09 
M 221.14 87.91 226.73 93.5 
M 224.91 86.48 230.03 91.61 
M 228.74 85.12 234.67 91.05 
M 232.43 83.62 238.37 89.55 
M 236.11 82.1 242.2 88.18 
M 239.94 80.74 245.5 86.29 
M 243.78 79.38 250.69 86.29 
M 247.62 78.02 251.62 82.02 
M 251.78 76.98 259.07 84.27 
M 256.84 76.85 260.97 80.98 
M 263.51 78.32 270.22 85.03 
M 272.16 81.78 279.91 89.52 
M 282.1 86.52 288.03 92.44 
M 291.23 90.46 298.96 98.18 
M 301.08 95.11 306.76 100.79 
M 322.46 111.29 328.42 117.25 
M 352.41 136.04 357.7 141.33 
M 201.6 96.81 202.43 98.46 
M 202.23 92.21 204.64 97.03 
M 202.65 87.2 206.85 95.6 
M 202.64 81.33 209.06 94.18 
M 202.02 74.25 211.35 92.91 
M 202.98 70.32 213.64 91.65 
M 204.84 68.2 213.84 86.21 
M 206.59 65.86 213.27 79.22 
M 208.17 63.17 213.11 73.04 
M 209.49 59.96 213.26 67.51 
M 210.59 56.31 213.78 62.7 
M 213.07 55.44 213.36 56.02 
M 241.94 78.1 242.76 79.75 
M 240.31 69 245.27 78.91 
M 240.15 62.83 247.9 78.33 
M 240.32 57.32 250.53 77.75 
M 240.24 51.31 253.16 77.17 
M 240.8 46.6 256.1 77.19 
M 241.69 42.53 259.27 77.69 
M 242.35 38 262.45 78.19 
M 243.74 34.94 265.89 79.24 
M 247.21 36.04 269.58 80.78 
M 250.82 37.4 273.29 82.34 
M 254.17 38.26 275.96 81.83 
M 257.32 38.71 276.2 76.47 
M 260.32 38.87 276.3 70.83 
M 263.27 38.91 276.34 65.06 
M 266.99 40.52 277.16 60.85 
M 270.7 42.09 276.22 53.12 
M 274.16 43.17 276.2 47.24 
M 306.99 97.14 307.98 99.11 
M 307.14 91.6 312.75 102.81 
M 307.42 86.3 314.24 99.94 
M 307.6 80.81 315.25 96.11 
M 307.41 74.59 316.78 93.34 
M 308.14 70.21 314.5 82.92 
M 308.74 65.56 311.25 70.59 
M 219.23 291.39 217.33 297.7 
M 223.43 291.39 221.54 297.7 
M 218.32 294.39 222.53 294.39 
M 225.53 291.39 225.74 291.7 226.13 291.39 225.92 291.1 225.53 291.39 
M 225.2 293.5 223.94 297.7 
M 227.6 293.5 225.71 299.8 
M 227.33 294.39 228.11 293.8 228.8 293.5 229.7 293.5 230.21 293.8 230.63 294.39 230.66 295.3 230.48 295.89 229.91 296.8 229.13 297.39 228.44 297.7 227.54 297.7 227.03 297.39 226.61 296.8 
M 234.23 291.39 232.7 296.5 232.73 297.39 233.24 297.7 233.83 297.7 
M 232.7 293.5 234.8 293.5 
M 238.1 293.5 237.41 293.8 236.63 294.39 236.06 295.3 235.88 295.89 235.91 296.8 236.33 297.39 236.83 297.7 237.74 297.7 238.43 297.39 239.21 296.8 239.77 295.89 239.96 295.3 239.93 294.39 239.51 293.8 239 293.5 238.1 293.5 
M 243.52 291.39 242 296.5 242.02 297.39 242.54 297.7 243.14 297.7 
M 242 293.5 244.1 293.5 
M 249.5 293.5 248.24 297.7 
M 249.23 294.39 248.81 293.8 248.3 293.5 247.4 293.5 246.71 293.8 245.93 294.39 245.36 295.3 245.18 295.89 245.21 296.8 245.63 297.39 246.14 297.7 247.04 297.7 247.73 297.39 248.51 296.8 
M 251.9 293.5 250.64 297.7 
M 251.36 295.3 251.93 294.39 252.71 293.8 253.4 293.5 254.3 293.5 
M 259.1 293.5 257.83 297.7 
M 258.83 294.39 258.4 293.8 257.89 293.5 257 293.5 256.3 293.8 255.52 294.39 254.96 295.3 254.77 295.89 254.81 296.8 255.23 297.39 255.74 297.7 256.64 297.7 257.33 297.39 258.11 296.8 
M 267.8 293.5 266.53 297.7 
M 267.52 294.39 267.11 293.8 266.59 293.5 265.7 293.5 265.01 293.8 264.23 294.39 263.65 295.3 263.48 295.89 263.51 296.8 263.93 297.39 264.44 297.7 265.33 297.7 266.02 297.39 266.81 296.8 
M 271.13 291.39 269.59 296.5 269.63 297.39 270.14 297.7 270.74 297.7 
M 269.59 293.5 271.7 293.5 
M 274.43 291.39 272.53 297.7 
M 273.44 294.7 274.61 293.8 275.29 293.5 276.2 293.5 276.7 293.8 276.74 294.7 275.83 297.7 
M 279.5 293.5 278.59 296.5 278.63 297.39 279.14 297.7 280.03 297.7 280.72 297.39 281.89 296.5 
M 282.79 293.5 281.53 297.7 
M 285.2 293.5 283.94 297.7 
M 284.83 294.7 286.01 293.8 286.7 293.5 287.59 293.5 288.11 293.8 288.14 294.7 287.24 297.7 
M 290.89 293.5 290 296.5 290.02 297.39 290.53 297.7 291.44 297.7 292.13 297.39 293.29 296.5 
M 294.2 293.5 292.94 297.7 
M 299.33 294.39 299.2 293.8 298.39 293.5 297.5 293.5 296.51 293.8 296.02 294.39 296.14 295 296.65 295.3 298.07 295.6 298.58 295.89 298.61 296.8 298.13 297.39 297.14 297.7 296.24 297.7 295.43 297.39 295.31 296.8 
M 300.91 297.1 300.52 297.39 300.74 297.7 301.13 297.39 300.91 297.1 
"/></svg>
