<svg xmlns="http://www.w3.org/2000/svg" width="520" height="320"><rect x="0" y="0" width="520" height="320" fill="floralwhite"/><rect x="10" y="10" width="500" height="300" stroke="black" stroke-width="1" fill="none"/><path stroke="black" stroke-width="1" fill="none" stroke-linecap="round" stroke-linejoin="round" d="
M 152.66 116.01 161.21 114.98 169.83 112.96 178.44 111.35 187.06 110.62 195.68 110.89 212.92 112.69 230.16 113.19 238.77 113.76 264.63 116.64 273.25 118.08 290.48 122.04 299.1 123.84 307.72 125.32 316.34 126.26 324.96 127.47 333.58 129.79 342.2 132.87 350.81 136.35 359.43 140.32 368.05 145.57 376.67 158.75 
M 376.67 183.17 368.05 189.87 359.43 192.88 350.81 194.81 333.58 197.05 324.96 198.6 316.34 200.74 299.1 205.45 289.46 208.81 
M 209.72 220.91 204.3 221.34 195.68 222.77 187.06 224.46 178.44 224.92 169.83 224.37 161.17 223.21 
M 156.74 121.97 157.38 121.58 160.32 118.37 160.32 116.39 159.25 115.22 
M 162.02 137 161.91 136.61 
M 157.86 117.05 160.94 116.31 164.88 114.41 165.36 114.01 
M 162.05 137.12 162.74 136.77 166.29 133.28 168.58 129.32 168.58 126.87 166.29 122.92 162.74 119.42 159.97 118.06 
M 167.05 158.61 167.36 158.18 169.46 153.13 169.46 150.01 167.36 144.97 164.11 140.51 162.65 139.52 
M 167.69 186.61 169.74 180.93 169.74 177.52 167.81 172.02 167.07 170.82 
M 169.34 207.62 169.34 205.7 168.96 204.62 
M 167.63 128.69 170.93 127.68 175.14 125.1 177.86 122.18 177.86 120.37 175.14 117.44 170.93 114.86 167.63 113.86 
M 164.14 119.94 172.68 118.94 
M 164.26 121.55 172.84 121.45 
M 164.8 122.63 173.23 123.74 
M 168.82 151.63 171.88 150.12 175.78 146.26 178.3 141.88 178.3 139.18 175.78 134.81 171.88 130.94 168.82 129.44 
M 165.48 138.59 174.03 136.98 
M 165.76 140.97 173.63 140.67 
M 165.72 142.73 173.51 144.17 
M 169.61 178.75 172.45 176.96 176.09 172.38 178.43 167.19 178.43 163.97 176.09 158.78 172.45 154.2 169.61 152.41 
M 167.07 163.2 174.24 162.07 
M 166.89 165.83 174.28 165.34 
M 166.91 168.5 173.82 169.27 
M 169.71 206.7 171.28 205.64 
M 176.69 188.2 175.86 186.22 172.41 181.52 169.71 179.69 
M 167.39 190.11 167.75 190.06 
M 169.37 207.62 168.66 207.15 
M 176.89 120.06 178.75 119.59 182.13 117.88 184.31 115.95 184.31 114.75 182.13 112.81 179.12 111.29 
M 174 114.6 180.07 113.93 
M 173.36 115.66 180.21 115.37 
M 173.56 116.62 180.69 117.23 
M 176.58 139.31 179.07 138.05 182.26 134.83 184.31 131.17 184.31 128.91 182.26 125.26 179.07 122.03 176.89 120.93 
M 174.58 128.45 180.16 127.39 
M 173.75 130.35 180.33 129.98 
M 173.92 131.74 180.21 133.08 
M 177.17 164.68 179.55 163.02 182.59 158.75 184.55 153.91 184.55 150.92 182.59 146.08 179.55 141.81 177.17 140.14 
M 175.23 149.83 180.56 148.51 
M 175.28 152.66 181.35 152.39 
M 174.46 154.85 180.64 156.39 
M 182.49 185.51 184.1 180.78 184.1 177.45 182.27 172.06 179.44 167.31 177.22 165.45 
M 174.9 176.25 180.72 174.92 
M 175.02 179.13 180.68 179.49 
M 175.46 181.43 181.13 183.62 
M 184.01 130.02 186.98 129.06 190.78 126.6 193.23 123.82 193.23 122.1 190.78 119.32 186.98 116.86 184.01 115.9 
M 181.28 121.18 188.91 120.64 
M 181.17 122.81 189.05 123.19 
M 180.71 124.39 188.86 124.97 
M 184.44 152.01 187.29 150.56 190.94 146.86 193.3 142.67 193.3 140.08 190.94 135.89 187.29 132.19 184.44 130.75 
M 181.51 139.33 188.59 138.12 
M 181.4 141.29 188.96 141.81 
M 181.33 143.8 189.1 144.35 
M 184.35 178.22 187.07 176.49 190.55 172.05 192.79 167.03 192.79 163.92 190.55 158.89 187.07 154.46 184.35 152.72 
M 181.47 162.61 188.91 162 
M 181.91 165.71 188.39 165.27 
M 181.44 168.4 188.91 168.95 
M 188.52 183.95 186.39 181.06 183.78 179.29 
M 191.46 120.81 193.87 120.14 196.94 118.44 198.93 116.5 198.93 115.31 196.94 113.38 193.87 111.67 191.46 111.01 
M 191.88 139.69 194.24 138.45 197.26 135.26 199.21 131.66 199.21 129.42 197.26 125.82 194.24 122.63 191.88 121.39 
M 192.11 164.35 194.39 162.74 197.32 158.62 199.21 153.96 199.21 151.07 197.32 146.41 194.39 142.29 192.11 140.68 
M 197.27 180.68 197.69 179.46 197.69 176.23 195.89 171.02 193.09 166.42 190.91 164.62 
M 199.33 130.41 202.12 129.47 205.68 127.06 207.98 124.33 207.98 122.65 205.68 119.92 202.12 117.51 199.33 116.57 
M 199.39 151.87 202.12 150.46 205.62 146.85 207.87 142.77 207.87 140.24 205.62 136.15 202.12 132.54 199.39 131.13 
M 198.72 177.39 201.4 175.7 204.84 171.37 207.05 166.46 207.05 163.43 204.84 158.53 201.4 154.2 198.72 152.51 
M 200.03 179.94 197.61 178.31 
M 207.01 121.45 209.29 120.8 212.19 119.14 214.07 117.26 214.07 116.1 212.19 114.22 209.29 112.56 207.92 112.17 
M 207.07 139.64 209.22 138.49 212.08 135.4 213.93 131.91 213.93 129.75 212.08 126.25 209.22 123.17 206.98 121.97 
M 206.6 163.75 208.81 162.17 211.65 158.13 213.49 153.54 213.49 150.71 211.65 146.12 208.81 142.07 207.07 140.83 
M 212.24 175.63 210.41 170.55 207.52 166 205.27 164.22 
M 213.81 129.93 216.45 129 219.82 126.62 222 123.92 222 122.25 219.82 119.55 216.45 117.17 213.81 116.24 
M 213.7 151.26 216.34 149.86 219.72 146.26 221.9 142.18 221.9 139.66 219.72 135.58 216.34 131.98 213.7 130.58 
M 210.73 139.22 218.12 138.1 
M 210.76 140.74 218.39 140.74 
M 211.54 143.24 218.22 144.26 
M 215.74 175.12 219.1 170.82 221.27 165.95 221.27 162.93 219.1 158.06 215.73 153.76 213.11 152.08 
M 210.61 161.79 217.45 161.1 
M 210.74 164.03 217.67 164.36 
M 210.72 167.32 217.03 168.58 
M 220.63 120.1 222.82 119.46 225.63 117.8 227.44 115.92 227.44 114.75 225.84 113.09 
M 218.75 114.46 224.29 113.94 
M 218.82 115.47 223.96 115.25 
M 218.18 115.95 224.55 116.96 
M 220.61 138.46 222.7 137.24 225.38 134.12 227.1 130.58 227.1 128.39 225.38 124.85 222.7 121.73 220.61 120.51 
M 218.7 127.91 223.57 126.59 
M 218.15 129.83 223.72 129.05 
M 218.91 131.27 224.04 132.23 
M 220.63 163.14 222.88 161.53 225.75 157.38 227.6 152.69 227.6 149.78 225.75 145.09 222.88 140.95 220.63 139.33 
M 218.79 148.79 223.94 147.22 
M 218.6 150.82 223.98 151.37 
M 218.28 153.98 223.97 154.7 
M 225.64 173.65 224.59 170.48 221.97 166.01 219.93 164.27 
M 217.91 174.23 223.29 172.83 
M 227.52 128.64 230.19 127.72 233.6 125.35 235.8 122.67 235.8 121.01 233.6 118.33 230.19 115.97 227.52 115.04 
M 224.6 120.64 231.61 120.03 
M 224.53 121.53 232.09 121.79 
M 224.54 123.09 232.19 123.67 
M 227.6 150.22 230.28 148.82 233.72 145.22 235.94 141.14 235.94 138.61 233.72 134.53 230.28 130.93 227.6 129.53 
M 224.86 137.98 232.25 137.19 
M 225.43 139.76 231.52 140.21 
M 224.62 142.02 231.54 143.05 
M 229.54 173.07 232.62 169.23 234.77 164.5 234.77 161.58 232.62 156.85 229.28 152.68 226.67 151.05 
M 223.84 160.5 231.17 159.08 
M 224.2 162.74 230.7 162.78 
M 224.35 165.2 230.73 166.79 
M 235.15 119.34 237.49 118.75 240.48 117.23 242.41 115.51 242.41 114.45 242 114.08 
M 233.06 114.08 238.91 113.77 
M 232.67 115.34 238.48 115.08 
M 233.09 116.13 239.33 116.07 
M 234.82 136.04 235.96 135.42 238.87 132.25 240.74 128.67 240.74 126.45 238.87 122.86 235.96 119.7 234.33 118.81 
M 231.87 125.95 237.1 125.11 
M 231.08 127.5 237.18 127.38 
M 231.19 129.44 237.06 130.13 
M 235.46 162.63 237.81 161.08 240.81 157.11 242.75 152.61 242.75 149.83 240.81 145.33 237.81 141.36 235.46 139.81 
M 233.35 148.82 239.02 147.57 
M 233.22 151.19 238.84 150.96 
M 233.62 153.69 238.9 154.71 
M 237.06 171.96 237.06 171.16 235.36 166.51 234 164.38 
M 231.82 169.77 234.39 168.9 
M 229.65 172.44 234.2 172.29 
M 242.29 128.49 245.09 127.58 248.68 125.23 250.99 122.58 250.99 120.93 248.68 118.28 245.09 115.93 242.29 115.02 
M 242.4 150 245.21 148.62 248.81 145.08 251.13 141.07 251.13 138.59 248.81 134.59 245.21 131.05 242.4 129.66 
M 244.28 170.89 246.86 167.96 249.12 163.44 249.12 160.65 246.86 156.13 243.35 152.15 240.61 150.59 
M 250.7 120.21 253.02 119.61 255.98 118.06 257.89 116.3 257.89 115.84 
M 249.6 137.77 252.02 136.54 255.12 133.39 257.12 129.83 257.12 127.62 255.12 124.06 252.02 120.91 249.6 119.69 
M 250.86 162.97 253.19 161.46 256.17 157.58 258.1 153.19 258.1 150.48 256.17 146.09 253.19 142.21 250.86 140.7 
M 252.28 169.71 250.92 166.61 247.85 162.62 245.46 161.07 
M 257.52 129.02 260.26 128.09 263.77 125.71 266.03 123.01 266.03 121.35 263.77 118.65 260.26 116.27 259.55 116.03 
M 257.68 150.44 260.42 149.07 263.92 145.54 266.18 141.54 266.18 139.07 263.92 135.07 260.42 131.55 257.68 130.17 
M 260.67 170.08 262.26 168.34 264.6 163.83 264.6 161.04 262.26 156.53 258.64 152.54 255.81 150.99 
M 264.95 119.84 267.02 119.2 269.72 117.49 
M 265.37 137.95 267.15 137.01 270.13 133.84 272.05 130.25 272.05 128.03 270.13 124.44 267.15 121.27 264.82 120.03 
M 262.43 127.18 268.72 126.32 
M 262.66 129.2 268.68 129.1 
M 262.69 131.36 268.37 132.11 
M 265.42 162.79 267.48 161.26 270.1 157.34 271.8 152.9 271.8 150.15 270.1 145.71 267.48 141.79 265.42 140.26 
M 269.4 171.67 267.54 167.69 264.14 163.55 263.76 163.32 
M 271.56 128.43 274.1 127.46 277.35 124.98 279.44 122.17 279.44 120.43 278.6 119.3 
M 269.32 120.09 275.56 119.49 
M 269.34 121.62 276 120.99 
M 269.54 122.31 275.55 123.67 
M 271.58 149.64 274.1 148.23 277.32 144.62 279.4 140.54 279.4 138.01 277.32 133.92 274.1 130.31 271.58 128.91 
M 268.91 137.4 275.2 135.96 
M 269.44 139.21 275.54 139.2 
M 268.84 141.33 275.34 142.8 
M 274.01 172.28 276.96 168.74 279.23 163.95 279.23 160.99 276.96 156.21 273.44 151.98 270.69 150.34 
M 267.91 159.67 275.08 158.43 
M 267.7 162.62 274.98 162.44 
M 268.21 165.28 275.03 166.18 
M 279.55 137.99 281.68 136.77 284.4 133.65 286.16 130.11 286.16 127.92 284.4 124.38 281.68 121.26 279.55 120.04 
M 277.7 127.41 282.78 126.28 
M 277.87 128.59 283.35 128.93 
M 277.37 130.38 283.25 131.41 
M 276.52 159.53 278.41 157.88 280.83 153.66 282.39 148.89 282.39 145.93 280.83 141.15 278.41 136.93 277.9 136.48 
M 275 144.88 279.5 143.95 
M 274.83 147.25 279.61 147.35 
M 274.89 149.96 279.19 151.03 
M 286.03 181.85 287.29 178.74 287.29 175.51 285.17 170.28 281.88 165.66 279.31 163.86 
M 280.27 173.92 283.67 173.46 
M 285.48 125.93 286.79 125.39 289.91 122.83 290.47 122.04 
M 281.8 120.38 284.15 120.58 
M 284.15 147.53 286.58 146.07 289.69 142.33 291.7 138.09 291.7 135.46 289.69 131.22 286.58 127.48 284.15 126.02 
M 282.19 134.66 288.27 133.69 
M 281.84 136.74 288.01 137.09 
M 281.79 138.76 288.35 140.18 
M 286.53 173.5 287.34 172.95 290.74 168.35 292.94 163.15 292.94 159.92 290.74 154.71 287.34 150.11 284.68 148.32 
M 282.38 158.48 288.54 157.68 
M 282.14 161.85 289.21 161.45 
M 282.03 163.99 289.03 165.25 
M 291.92 195.11 293.99 190.66 293.99 187.34 291.5 181.99 287.65 177.26 286.53 176.57 
M 287.68 185.33 289.64 184.89 
M 289.35 188.7 289.66 188.68 
M 291.9 135.29 293.84 134.06 296.31 130.93 297.91 127.37 297.91 125.18 297.12 123.43 
M 288.64 157.33 290.78 155.57 293.53 151.08 295.3 145.98 295.3 142.83 293.53 137.74 290.78 133.24 288.64 131.49 
M 290.83 140.59 292.01 140.23 
M 287.43 144.62 292.51 144.01 
M 286.77 147.08 291.8 148.62 
M 294.22 191.75 296.49 189.78 299.4 184.71 301.27 178.97 301.27 175.42 299.4 169.68 296.49 164.61 294.22 162.64 
M 296.25 193.96 293.59 190.24 290.95 188.4 
M 297.21 123.91 298.01 123.61 
M 296.99 145.64 299.58 144.14 302.9 140.28 305.03 135.92 305.03 133.22 302.9 128.86 299.58 125 296.99 123.5 
M 300.6 173.45 301.53 172.81 305.06 167.94 307.33 162.43 307.33 159.02 305.06 153.51 301.53 148.64 298.78 146.74 
M 309.37 191.07 309.37 188.22 306.97 182.61 303.26 177.65 300.6 175.88 
M 304.27 131.36 305.71 130.51 308.34 127.44 309.29 125.49 
M 303.76 158.23 306.26 156.39 309.46 151.69 311.53 146.36 311.53 143.07 309.46 137.74 306.26 133.04 304.27 131.57 
M 308.88 191.18 310.76 189.48 313.65 184.28 315.52 178.4 315.52 174.76 313.65 168.87 310.76 163.67 308.5 161.65 
M 308.99 191.15 307.73 190.2 
M 311.48 145.42 314.35 143.89 318.02 139.98 320.38 135.55 320.38 132.81 318.02 128.38 315.99 126.22 
M 314.85 174.8 316.93 173.41 320.62 168.49 323 162.92 323 159.47 320.62 153.89 316.93 148.97 314.05 147.05 
M 324.35 188.05 322.27 183.18 318.57 178.26 315.67 176.34 
M 312.87 187.41 320.51 186.23 
M 317.85 131.1 320.36 129.89 323.12 127.21 
M 320.66 160.63 323.15 158.78 326.33 154.02 328.39 148.64 328.39 145.31 326.33 139.93 323.15 135.18 320.66 133.32 
M 318.36 144.05 325.07 142.73 
M 318.6 147.16 324.92 146.58 
M 318.43 149.96 324.57 151.34 
M 326.38 187.77 328.66 183.97 330.6 178.27 330.6 174.74 328.66 169.03 325.64 164 323.28 162.03 
M 320.56 174.02 327.19 171.74 
M 321.22 176.51 327.47 176.45 
M 320.61 179.82 326.69 180.72 
M 327.65 146.32 330.55 144.92 334.54 141.09 337.11 136.75 337.11 134.07 334.84 130.24 
M 324.07 132.91 332.75 132.33 
M 324.06 135.38 332.59 135.41 
M 324.68 138 332.38 138.54 
M 329.91 175.81 332.54 174.1 336.3 169.21 338.72 163.69 338.72 160.26 336.3 154.73 332.54 149.85 329.61 147.95 
M 326.6 159.25 334.16 157.67 
M 327.03 162.01 334.11 162.32 
M 326.95 164.71 334.04 166.56 
M 339.14 186.68 338.03 184.18 334.25 179.36 331.3 177.48 
M 335.63 133.8 338.52 132.66 339.48 131.9 
M 335.63 160.14 338.11 158.37 341.29 153.84 343.34 148.71 343.34 145.53 341.29 140.4 338.11 135.87 335.63 134.1 
M 333.58 144.08 339.39 143.25 
M 332.96 147.32 339.24 146.84 
M 333.64 149.72 339.41 151.15 
M 343.59 186.44 344.45 185.02 346.47 179.13 346.47 175.47 344.45 169.58 341.3 164.37 338.85 162.34 
M 336.73 174.69 342.37 172.8 
M 336.47 177.27 343.01 177.5 
M 336.1 180.65 342.38 181.4 
M 344.52 148.44 347.76 147.01 351.9 143.33 354.58 139.16 354.58 138.09 
M 345.75 176.58 348.45 174.91 352.31 170.14 354.8 164.74 354.8 161.39 352.31 155.99 348.45 151.22 345.44 149.35 
M 354.01 185.66 350.17 180.62 347.24 178.75 
M 354.36 138.28 354.69 138.14 
M 352.45 161.56 355.14 159.89 358.58 155.62 360.8 150.79 360.8 147.8 358.58 142.96 355.14 138.69 353.62 137.75 
M 360.81 184.72 362.33 180.32 362.33 176.76 360.33 171.01 357.24 165.93 354.82 163.95 
M 361.74 150.93 364.84 149.51 368.46 146.2 
M 361.77 177.87 364.74 176.08 368.55 171.49 371.01 166.3 371.01 163.09 368.55 157.9 364.74 153.31 361.77 151.52 
M 367.02 183.44 365.37 181.22 362.58 179.36 
M 369.87 164.11 372.42 162.48 375.69 158.31 375.97 157.68 
M 367.81 149.6 370.34 149.07 
M 367.48 152.26 372.36 152.15 
M 367.74 154.5 373.74 155.91 
M 376.67 176.35 376.67 176.35 
M 367.54 176.34 373.57 174.66 
M 368.09 178.95 373.63 179.15 
M 367.38 181.43 370.79 182.05 
M 374.3 163.1 376.67 162.8 
M 374.06 165.63 376.67 165.68 
M 374.82 167.32 376.67 167.61 
M 165.1 218.26 167.46 214.4 169.34 209.03 169.34 207.62 
M 177.67 219.2 179.03 218.12 181.81 213.67 182.64 211.34 
M 174.52 209.75 180.16 211.14 
M 173.69 219 173.48 218.83 
M 179.16 215.36 185.7 214.23 
M 179.13 217.92 186.13 217.23 
M 278.6 119.3 278.6 119.3 
M 290.47 122.04 290.47 122.04 
M 284.15 120.58 284.15 120.58 
M 299.14 201.37 299.14 200.3 296.96 194.96 296.25 193.96 
M 305.03 199.88 306.97 197.3 309.37 191.69 309.37 191.07 
M 309.29 125.49 309.29 125.49 
M 313.75 197.67 313.46 196.92 310.24 192.09 308.99 191.15 
M 315.99 126.22 315.99 126.22 
M 323.27 195.43 324.66 192.2 324.66 188.75 324.35 188.05 
M 313.15 193.5 320.09 194.54 
M 326.72 194.77 325.69 193.29 323.18 191.49 
M 340.46 193 340.46 189.64 339.14 186.68 
M 339.48 131.9 339.48 131.9 
M 356.31 190.85 354.01 185.66 
M 354.69 138.14 354.69 138.14 
M 357.57 190.61 360.33 186.08 360.81 184.72 
M 369.29 186.84 368.93 186 367.02 183.44 
M 370.79 182.05 373.9 182.61 
M 376.67 162.8 376.67 162.8 
M 204.3 111.8 204.3 111.8 
M 210.81 112.48 217.73 97.61 218.42 94.84 219.64 92.6 220.6 90.1 222.17 88.21 224.18 86.77 226.85 85.69 229.37 84.46 231 82.35 231.73 79.39 232.71 76.67 233.95 74.22 234.98 71.58 236.54 69.49 238.83 68.13 244.5 66.71 246.99 65.81 249.12 64.47 251.11 62.95 254.47 59.3 257.01 58.34 259.83 57.66 262.29 56.58 264.61 55.3 266.47 53.57 269.29 52.79 272.33 52.3 274.77 51.31 277.25 51.7 279.39 52.27 281.57 52.17 283.84 52.35 286.1 53.17 288.98 54.59 291.52 55.48 294.49 56.79 299.29 59.43 301.31 60 309.83 59.47 312.81 59.52 314.61 58.38 317.15 58.56 320.12 59.87 322.81 61.41 324.57 65.06 326.25 69.44 327.14 77.64 332.37 82.78 335.38 87.12 336.06 89.95 336.59 94.66 341.07 101.64 341.24 103.09 342.05 105.91 342.81 110.87 342.4 112.97 342.49 115.56 342.87 118.8 339.65 131.96 
M 333.58 129.79 333.58 129.79 
M 208.69 112.25 210.7 111.68 212.06 109.8 214.57 103.52 215.12 101.04 216.67 99.22 
M 213.09 112.7 214.74 111.9 215.95 110.18 218.13 104.84 220.77 100.17 
M 217.5 112.85 219.42 111.89 220.91 109.83 222.84 104.97 223.98 102.71 224.05 100.19 224.6 97.38 
M 221.91 113 224 111.75 225.19 109.71 225.86 107.51 228.18 102.67 228.42 100.55 229 97.7 229.24 94.66 229.87 92.44 230.34 89.7 230.06 88.99 231.21 87.67 232.23 84.24 233.49 81.19 234.12 78.06 
M 226.33 113.1 228.21 111.39 229.44 108.97 230.96 104.71 232.03 102.51 232.97 97.27 233.3 94.01 234.3 91.67 234.33 89.39 234.07 88.26 
M 230.75 113.23 232.84 111.25 235.75 104.62 237.52 100 238.07 97.06 238.34 93.95 238.83 91.9 239.66 89.7 240.2 87.11 240.51 84.02 241.2 82.37 242.16 80.92 241.79 76.39 242.53 73.67 
M 235.15 113.52 237.11 111.82 238.4 109.68 239.32 107.49 240.07 105.28 240.7 102.7 241.91 99.88 245.09 90.38 
M 239.56 113.84 241.22 112.28 242.37 110.09 244.42 105.48 245.42 103.66 246.77 98.94 247.92 95.83 249.13 93.22 251.77 89.56 252.43 86.82 252.65 81.72 252.94 79.62 254.87 74.48 256.15 71.52 258.44 67.78 259.23 65.53 258.63 63.5 259.53 62.43 260.61 60.25 
M 243.95 114.28 245.5 112.71 246.24 110.22 247.29 108.3 248.56 103.93 250.97 99 253.77 93.79 255.48 89.34 256.33 86.51 257.3 77.79 258.02 75.56 259.7 72.74 263.13 69.16 263.77 66.67 263.2 64.21 265.37 63.14 266.95 61.68 
M 248.35 114.74 249.74 113.01 251.9 108.38 253.05 105.73 256.25 96.49 257.56 94.73 258.36 92.42 260.11 89.81 260.68 86.57 264.18 76.59 265.02 75.19 265.55 73.88 
M 252.73 115.24 254.46 113.22 258.1 106.24 258.42 104.01 260.04 99.66 261.23 97.65 261.64 94.9 262.67 92.43 265.88 88 266.74 85.27 268.41 83.48 268.83 80.9 269.4 78.76 270.71 76.14 271.65 73.51 
M 257.12 115.74 261.33 109.39 262.25 107.18 264.42 103.26 265.41 101.09 265.88 95.51 266.74 92.96 270.5 88.68 273.11 84.05 273.03 81.66 275.47 76.38 275.93 73.98 
M 261.51 116.27 263.35 114.31 266.32 107.76 267.74 106.2 269.33 104.12 270.08 101.71 271.26 96.66 271.73 93.21 273.24 91.64 274.6 89.79 276.63 84.75 279.14 80.04 279.34 77.37 281.08 74.53 281.26 71.66 
M 265.88 116.85 267.93 114.83 268.94 112.73 269.76 110.37 271.98 106.83 273.03 104.81 273.52 102.89 274.93 100.41 277.31 94.95 278.52 92.79 279.25 90.04 281.12 87.84 281.75 85.73 283.54 82.58 284.02 79.79 284.78 77.62 286.21 75.13 286.18 73.92 
M 270.24 117.58 272.36 115.88 275.9 108.89 276.45 107.13 279.99 100.61 282.74 96.21 283.64 93.48 285.38 90.68 
M 274.58 118.39 276.78 116.71 278.17 114.61 279.09 111.98 281.06 107.54 282.49 105.51 284.4 103.2 285.86 100.86 291.77 89.11 293.93 86.59 296 83.71 295.96 81.41 
M 278.89 119.37 280.69 117.56 282.05 115.34 284.6 110.5 285.79 108.67 287.43 107.01 292.04 100.09 293.33 97.67 293.51 94.68 294.24 91.85 298.29 88.43 299.83 85.97 300.89 83.76 302.01 82.59 302.72 80.61 
M 283.19 120.36 292.71 107.94 294.49 105.3 295.42 103.56 297.89 98.76 298.82 96.5 300.45 94.83 301.89 92.87 303.13 90.44 303.73 87.66 305.48 84.93 307.67 79.53 309.36 77.69 311.1 74.85 312.6 71.92 313.7 68.38 
M 287.5 121.35 289.1 119.66 290.67 117.6 292.52 115.72 295.98 111.3 297.11 109.6 299.38 102.03 301.08 99.36 303.25 97.37 305.27 95.81 306.97 93.86 310.2 86.98 312.18 84.97 312.89 82.49 313.08 81.16 315.19 79.18 315.08 75.76 316.18 71.76 316.29 69.71 
M 291.81 122.32 293.65 120.61 294.77 118.3 298.15 114.58 300.09 112.88 301.39 110.47 302.18 107.68 303.33 102.39 305.03 99.82 307.33 97.74 309.56 96.97 311.21 95.36 313.9 91.5 315.24 88.58 316.21 85.87 316.59 83.85 
M 296.13 123.22 298 121.66 299.18 119.43 300.7 117.39 302.69 115.57 306.17 111.4 307.09 108.57 307.58 105.79 307.82 103.06 308.76 101.12 310.22 98.92 315.1 96.07 316.68 93.88 317.95 91.34 318.18 89.24 319.12 86.72 319.46 83.52 321.4 80.26 321.78 77.89 322.91 75.25 324.14 73.6 325.11 71.95 
M 300.46 124.08 302.37 122.35 305.03 118.28 306.99 115.9 308.83 114.14 309.89 112.27 311.05 109.6 311.43 107.14 313.3 101.75 317.67 98.27 318.92 96.01 319.25 93.02 320.44 90.64 322.75 87.41 
M 304.81 124.82 306.92 123.03 308.06 121.06 310.96 117.12 315.14 110.66 316.48 104.68 
M 309.18 125.48 311.21 123.84 312.64 121.77 315.88 115.44 317.45 113.97 318.2 112.14 318.64 108.91 319.84 106.26 321.52 103.99 
M 313.57 125.96 315.69 124.15 318.45 120.07 319.7 117.85 320.31 116.23 321.5 114.61 322.14 112.25 324.5 106.28 328.57 100.67 328.92 98.46 328.18 96.03 
M 317.96 126.49 319.67 125.1 321.12 123.2 322.99 121.17 324.31 119.21 325.83 117.58 329.2 112.41 
M 322.33 127.1 324.4 125.72 330.46 120.55 330.97 118.57 332.78 116.61 
M 326.67 127.93 330.94 125.18 332.92 123.35 336.45 119.1 337.86 117.86 
M 330.93 129.08 334.12 128.93 336.6 127.22 338.08 125.58 
M 167.06 190.25 170.73 189.24 176.03 188.45 179.05 187.32 181.17 186.33 183.41 184.94 189.6 183.76 194.81 181.44 199.74 179.95 202.79 179.84 205.25 179.11 207.56 176.64 209.67 175.03 209.9 175.98 257.18 168.99 263.38 171 265.68 171.21 268.22 171.66 270.33 171.67 277.77 172.84 283.94 175.47 284.97 178.02 285.14 179.71 286.22 182.31 289.23 188.36 290.05 190.7 290.51 193.11 290.5 197.79 291.26 200.89 291.54 203.52 291.16 206.26 289.79 208.61 287.47 210 285.85 212.1 282.86 216.55 280.6 218.01 278.17 219.14 267.97 222.42 265.63 223.45 260.08 224.64 257.49 225.43 254.79 227.47 212.6 222.31 210.7 221.64 209.37 220.66 205.41 219.68 202.27 218.63 200.1 215.82 197.47 214.96 194.98 215.14 192.19 214.7 188.52 213.12 186.45 211.75 182.8 211.4 180.22 210.38 175.59 207.45 170.22 205.21 165.64 203.08 
M 166.74 191.84 170.4 191.07 175.6 190.64 178.45 189.65 181.27 189.45 185.96 187.47 192.22 185.93 195.17 185.45 197.22 184.9 200.3 184.33 202.65 184.4 210.28 181.63 218.62 179.82 221.73 179.81 224.37 178.57 226.73 178.26 228.24 177.27 230.9 176.26 232.98 175.11 236.1 174.48 238.23 174.61 239.63 174.21 
M 170.39 193.02 175.74 192.83 181.46 192.2 184.06 191.7 186.84 190.71 189.63 190.48 192.58 190.84 195.63 190.11 200.55 189.79 204.4 190 213.24 187.19 216.29 186.75 219.61 186.85 224.08 185.83 226.91 184.91 229.37 184.8 232.07 184.16 
M 170.42 195.26 175.68 195.28 178.27 195.51 184.43 195.12 189.69 195.13 192.54 195.59 195.8 194.97 198.62 194.82 200.49 195.4 202.94 195.17 208.19 194.3 211.26 194.15 214.55 194.36 219.24 194.28 221.98 194.58 224.67 194.43 226.42 194.59 232.33 193.41 238.9 193.7 245.05 193.1 248.28 193.63 250.83 193.46 253.54 193.8 255.92 192.77 256.87 192.15 258.31 191.69 264.17 192.46 267.5 190.83 269.97 191.29 272.55 192.32 276.44 192.04 281.56 191.22 
M 167.58 197.47 173 197.84 177.38 199 180.65 198.95 187.6 199.39 189.79 200 192.54 200.22 200.57 199.75 202.88 199.84 204.77 200.25 208.33 200.05 215.02 201.12 217.92 201.18 220.72 201.44 228.27 200.89 229.86 202.14 232.1 202.72 235.27 203.09 238.5 203.25 241.06 203.84 247.04 202.85 249.08 202.36 251.3 202.88 254.05 203.22 257.03 202.95 259.93 202.33 
M 165.96 199.16 173.03 200.31 175.03 201.1 177.6 201.76 180.79 202.12 184.14 202.71 187.21 203.62 190.03 204.01 192.28 203.69 198.02 204.45 200.87 205.48 211.31 208.53 214.16 208.54 216.9 209.26 218.9 209.38 222.04 208.01 224.03 207.94 228.98 209.77 230.97 211.15 233.36 211.26 236.88 212.29 240.34 213.62 243.19 213.96 246.96 213.45 251.13 213.41 254.42 215.12 256.71 215.44 257.14 216.21 
M 165.84 200.91 172.82 202.9 175.04 204.1 177.72 204.94 180.25 206.12 183.49 206.87 191.21 208.18 196.86 208.91 203.2 211.42 206.14 213.38 211.48 214.76 213.36 214.89 216.26 214.67 218.45 216.56 221.96 218.51 225.3 219.59 227.57 219.88 229.14 220.7 234.34 222.21 236.88 222.38 239.55 221.82 242.05 220.79 244.73 222.5 248.27 225.64 250.71 227.16 
M 214.64 222.56 218.86 227.46 221.54 229.63 240.18 248.89 241.73 251.68 243.75 256.15 241.57 257.69 239.32 257.69 236.69 257.31 233.99 258.32 231.22 258.68 226.52 256.65 218.19 252.75 194.32 235.64 192.74 231.46 190.44 228.24 187.06 224.46 
M 208.52 221.01 211.43 223.95 213.91 226.08 215.89 228.26 219.04 230.16 221.29 232.49 223.25 235.72 
M 204.11 221.37 209.48 226.76 211.71 228.57 214.42 230.26 217.08 231.5 219.28 233.64 222.52 239.28 224.55 240.56 227.34 241.95 229.54 243.77 231.65 244.98 233.04 247.9 234.73 250.56 239.29 252.76 
M 199.76 222.09 205.02 227.19 207.46 229.32 214.93 233.74 217.08 235.92 218.41 239.45 220.14 242.1 223 243 225.02 244.8 227.5 246.08 
M 195.4 222.82 197.87 225.49 205.35 232.84 207.98 235.23 210.27 236.81 212.29 238.55 213.15 240.65 214.28 242.6 216.76 245.14 
M 191.07 223.68 193.53 226.47 195.16 228.68 197.4 231.28 200.52 234.19 203.65 236.41 205.9 238.72 
M 350.81 194.81 354.63 199.75 356.96 203.06 359.4 205.98 360.48 207.76 360.62 218.85 360.94 220.89 360.38 222.15 359.23 228.43 357.47 230.33 355.98 232.51 354.8 234.94 352.14 235.83 346.4 232.96 343.64 233.93 339.73 234.8 335.4 236.69 333.11 236.74 330.89 235.77 327.99 234.13 325.52 232.95 322.78 232.1 319.31 230.29 316.62 228.45 314.95 227.64 314.02 227.36 301.8 219.88 290.48 208.45 
M 346.44 195.41 349.9 199.69 351.8 203.09 353.64 205.13 
M 342.06 196 345.45 199.61 349.16 205.47 350.94 207.47 352.33 209.66 353.91 212.58 354.67 215.1 356 217.61 
M 337.68 196.55 340.46 199.58 344.33 205.38 348.44 210.69 349.16 213.08 350.41 216.09 
M 333.3 197.1 335.88 199.89 337.81 202.62 339.88 205.09 341.33 208.01 342.93 210.64 344.42 213.72 347.71 217.83 348.96 221.05 351.25 223.6 
M 328.95 197.88 333.72 204.02 337.33 208.06 338.49 210.85 339.77 213.16 340.93 215.91 342.66 218.68 344.79 221.2 347.02 224.36 349.41 227.07 
M 324.61 198.69 327.15 201.91 329.24 204.9 333.33 209.93 334.13 211.99 335.36 213.62 336.86 216.04 
M 320.32 199.75 322.9 203.02 325.5 205.85 328.9 211.42 330.3 212.42 331.28 214.66 332.95 216.45 334.7 218.99 335.68 221.39 
M 316.03 200.82 318.24 204.49 322.56 209.84 324.67 211.63 326.26 213.48 327.15 215.11 329.34 217.37 332.7 222.79 334.01 226.61 335.86 229.65 336.72 231.55 
M 311.77 201.98 316.49 208.04 320.11 214.03 321.9 215.59 322.7 217.66 
M 307.51 203.15 311.91 208.84 314 211.26 317.57 217.1 320.99 221.94 322.56 223.86 325.48 225.72 327.13 228.17 
M 303.25 204.32 307.84 210.35 312.97 214.29 315.42 217.07 316.94 220.36 318.6 222.78 319.59 225.62 
M 299 205.49 301.3 209.35 303.9 211.9 306.45 214.05 309.04 216.01 311.74 217.55 313.47 219.99 
M 294.83 206.94 297.66 210.63 300.5 212.64 305.48 217.33 
M 376.67 158.75 379.59 158.02 382.17 156.87 388.2 152.89 390.69 151.49 393.42 150.59 395.54 149.44 398.26 148.32 403.02 145.26 407.17 141.59 412.45 137.96 414.97 136.88 417.4 134.74 419.92 133.98 421.48 132.91 422.44 131.83 424.07 131.21 430.04 127.79 433.33 126.66 434.39 125.71 435.76 123.45 438.65 122.13 443.59 117.7 447.94 115.41 450.06 114.02 454.92 112.1 458.94 109.05 480.2 112.04 489.59 123.11 490 124.74 488.3 126.47 487.24 128.82 486.35 131.34 484.99 133.4 484.24 136.06 483.03 138.39 481.97 140.99 481.08 143.76 479.41 145.75 474.76 152.08 473.51 154.49 469.8 158.22 465.66 161.58 463.78 167.19 460.96 168.12 460.29 170.67 460.58 176.64 460.43 179.33 461.73 181.84 473.98 197.28 476.29 200.52 482.87 208.51 484.19 210.79 484.58 212.75 485.83 215.59 486.7 219.63 488.65 224.73 488.37 226.83 486.7 228.9 482.83 232.52 482.16 235.6 480.37 238.87 461.48 241.97 459.51 239.41 454.6 238.13 451.27 235.93 449.08 234.16 446.59 233.5 441.49 228.38 438.37 226.18 435.15 224.53 433.23 223.35 431.78 221.6 429.74 220.45 427.31 220.3 425.1 218.39 423.9 216.24 421.68 214.6 419.7 212.19 417.08 210.97 414.38 210.07 410.13 206.32 408.3 204.41 405.87 203.42 399.39 199.45 395.56 196.36 393.32 195.22 391.16 193.25 386.62 190.16 384.54 188.52 382.33 187.27 379.72 185.51 376.67 183.17 
M 376.67 160.97 379.52 160.43 382.23 159.41 391.5 155.22 394.25 154.38 399.21 152.02 401.66 151.16 406.53 148.18 410.71 146.33 413.07 144.83 419.2 141.52 421.96 140.73 424.71 140.66 426.03 141.06 428.99 139.64 432.27 137.66 434.6 135.8 436.52 135.16 441.05 131.77 443.39 130.63 445.57 128.75 
M 376.67 163.18 379.47 162.82 385.08 161.4 387.51 160.55 389.77 160 395.05 158 400 157 404.98 155.51 407.63 154.26 413.03 152.48 415.25 151.27 417.48 150.68 423.96 148.24 426.46 146.28 429.41 145.8 432.36 145.53 437.64 144.02 439.22 143.2 440.45 141.66 442.86 140.29 445.46 139.44 
M 385.32 164.3 390.39 163.8 393.32 163.12 399.46 161.06 402.07 160.44 408.43 160.04 411.38 158.87 414.98 157.2 420.96 155.75 423.07 154.8 428.02 152.99 430.84 152.47 
M 376.67 167.61 383.04 167.74 390.8 167.26 393.93 166.83 397.45 165.85 402.74 165.1 404.44 165.02 406.65 165.71 409.51 165.43 413.48 165.37 417.13 164.32 425.66 161.21 429.14 160.81 439.06 161.03 441.69 160.64 445.71 160.92 448.72 159.86 451.48 160.14 
M 380.41 170 389.04 170.46 391.61 170.29 397.52 171.01 400.19 171.58 402.91 171.12 405.1 170.97 409.93 171.04 413.2 171.82 419.39 171.09 421.7 170.05 427.17 168.69 429.77 168.44 439.35 168.88 441.11 169.76 450.03 169.96 452.45 169.49 455.24 168.02 
M 376.67 172.04 380.37 172.49 386.31 173.54 391.93 173.87 396.97 175.86 400.14 176.29 403.02 176.23 405.2 176.42 406.64 176.01 409.53 176.19 412.69 176.92 415.24 178.25 417.99 178.77 421.31 178.15 424.63 177.19 427.62 177.05 430.79 177.6 433.47 177.66 435.82 176.76 438.54 177.95 440.33 179 444.46 180.49 447.33 180.59 449.98 179.78 455.49 178.51 
M 383.14 176.04 385.83 176.94 391.79 177.94 394.53 178.84 398.96 179.23 401.84 180.3 404.38 180.75 407.28 180.58 410 181.3 412.61 182.72 415.97 183.09 418.9 183.21 424.26 184.7 
M 376.67 176.47 382.91 178.97 388.78 180.78 391.63 181.86 396.03 182.92 398.5 183.73 403.84 185.88 415.03 188.62 417.12 188.89 419.91 189.77 422.42 191.33 425.24 191.2 427.81 191.61 431 193.38 434.34 193.46 436.94 193.19 439.19 194.27 440.61 196.78 442.52 199.39 444.45 200.3 447.38 199.89 453.27 200.35 458.89 202.61 461.08 204.04 464.24 205.61 467.03 204.94 469.88 205.43 472 204.85 473.33 205.88 
M 376.67 178.69 379.87 180.28 385.63 182.82 388.07 184.15 390.16 185.72 392.78 186.29 395.35 187.15 398.54 187.83 400.94 189.02 403.79 189.98 406.68 191.74 409.48 192.96 411.95 193.97 415.82 195.24 418.04 196.36 420.49 198.14 423.8 199.43 427.38 200.37 430.87 202.31 438.65 204.87 441.53 206.18 447.26 207.91 449.72 209.55 
M 379.93 182.86 385.09 185.77 387.17 187.2 389.43 188.43 391.92 189.34 394.79 190.7 397.14 192.1 399.38 193.09 401.61 194.74 404.18 196.3 407.95 197.62 412.21 200.25 413.64 201.7 416.13 203.12 419.14 204.43 421.28 206.07 428.56 209.26 430.69 211.58 432.72 213.2 435.12 214.73 437.26 214.94 439.65 215.48 442.38 216.64 444.99 218 448.01 219.79 450.44 222.78 453.96 223.75 457.28 225.72 458.89 227.32 460.14 227.3 460.49 228.25 462.76 229.91 466.8 231.6 
M 54.76 152.08 58.58 148.13 61.48 145.65 65.43 142.92 77.06 136.47 83.83 131.99 98.83 125.63 107 122.69 115.09 120.22 122.52 118.46 135.88 116.32 141.58 115.74 146.46 115.49 150.36 115.51 152.58 115.9 156.5 121.38 160.72 132.4 162.29 137.95 163.58 143.52 165.63 149.04 167.04 154.6 167.05 160.28 166.73 165.99 167.12 171.63 168.03 177.24 168.26 182.9 167.38 188.65 166.21 194.42 165.91 200.13 165.39 205.85 163.67 217.34 161.17 223.18 147.13 222.73 136.87 221.59 127.63 219.73 118.88 217.58 110.33 215.29 103.08 212.18 97.08 208.73 91.13 204.9 85.61 200.8 80.27 195.96 
M 78 193.89 74.79 190.94 69.45 184.58 65.78 177.96 61.77 169.84 
M 139.89 145.69 139.69 150.56 138.03 159.59 137.62 163.57 136.75 167.25 135.38 170.74 134.43 173.92 134.74 176.86 135.55 180.27 136.5 184.05 137.94 188.4 138.17 193.51 121.98 194.75 115.33 194.73 108.51 194.37 101.44 193.57 95.28 191.63 90.13 188.9 
M 78.99 195.35 71.2 183.38 64.97 174.24 57.17 163.27 52.06 156.45 51.34 154.32 52.51 152.33 54.69 152.02 56.44 153.36 59.75 158.74 64.06 166.48 69.74 176.14 74.88 185.96 80.4 195.89 
M 79.91 196.54 75.49 195.77 69.4 194.39 61.16 193 50.21 190.66 32.86 187.55 30.77 186.76 30 184.65 31.07 182.79 33.35 182.41 39.84 184.19 44.15 185.55 54.67 188.14 58.92 189.51 69.26 192.36 75.18 194.28 80.13 195.69 
M 101.04 158.3 98.85 155.24 97.78 151.62 97.94 147.86 99.3 144.35 101.74 141.48 104.98 139.55 108.66 138.77 112.4 139.24 115.79 140.9 118.45 143.56 120.1 146.94 120.57 150.68 119.8 154.37 117.87 157.61 114.99 160.04 111.48 161.41 107.72 161.57 104.11 160.49 101.04 158.3 
M 116.59 144.89 117.91 147.6 118.28 150.59 117.67 153.54 116.12 156.13 113.82 158.07 111.02 159.17 108 159.29 105.12 158.43 102.66 156.68 
M 105.24 152.78 104.36 151.56 103.93 150.11 103.99 148.61 104.54 147.2 105.52 146.05 106.81 145.28 108.28 144.97 109.78 145.16 111.13 145.82 112.2 146.89 112.86 148.24 113.05 149.74 112.74 151.21 111.97 152.51 110.82 153.48 109.41 154.03 107.91 154.09 106.46 153.66 105.24 152.78 
M 104.51 149.9 108.67 154.06 
M 105.1 148.11 110.57 153.58 
M 108.31 148.93 111.92 152.54 
M 108.64 146.87 112.78 151.01 
M 110.31 146.16 112.93 148.78 
M 73.75 189.7 75.48 191.44 
M 64.31 174.97 67.75 178.4 
M 55.99 150.75 61.02 155.77 
M 58.63 148.09 62.79 152.24 
M 61.49 145.64 66.25 150.41 
M 64.62 143.48 69.23 148.08 
M 67.98 141.53 71.13 144.68 
M 71.4 139.66 75.27 143.52 
M 74.79 137.75 77.45 140.41 
M 78.12 135.77 80.96 138.62 
M 81.3 133.66 84.54 136.9 
M 84.61 131.66 87.63 134.69 
M 88.34 130.09 92.63 134.39 
M 92.06 128.52 96.47 132.93 
M 95.78 126.93 100.6 131.76 
M 99.52 125.38 102.47 128.32 
M 103.42 123.98 108.5 129.05 
M 107.33 122.59 112.27 127.52 
M 111.39 121.35 116.62 126.58 
M 115.47 120.13 119.96 124.62 
M 119.76 119.11 123.31 122.66 
M 124.14 118.19 127.06 121.12 
M 128.69 117.45 131.37 120.13 
M 133.27 116.72 135.96 119.42 
M 137.95 116.1 141.58 119.74 
M 142.82 115.67 146.65 119.5 
M 147.94 115.5 152.24 119.8 
M 78.81 156.7 78.34 153.4 78.39 151.57 78.82 149.85 79.43 148.73 80.04 148.24 
M 108.75 189.99 111.08 190.25 112.27 190.8 112.85 191.6 114.87 193.47 115.46 194.57 
M 149.69 156.82 148.49 157.4 146.45 157.23 143.51 155.92 139.69 153.78 138.15 153.39 
M 152.23 132.71 153.17 133.47 154.32 135 155.89 137.95 156.02 138.61 155.89 139.83 156.16 140.5 
M 132.7 182.48 130.77 182.09 129.12 181.98 128.26 182.22 126.57 183.12 125.92 183.04 
M 165.09 186.43 162.87 184.41 162.67 183.92 162.89 183.44 
M 148.72 168.68 150.15 168.83 153.12 169.49 155.22 169.65 
M 129.65 133.49 130.48 133.86 132.33 135.35 135.91 139.64 136.08 140.32 
M 157.19 167.52 157.7 169.43 158.77 170.6 159.64 172.16 161.01 174.08 
M 121.45 212.85 119.81 211.1 119.43 210.07 119.45 209.88 119.69 209.81 
M 94.43 173.32 96.38 172.85 101.75 170.64 102.48 170.57 102.81 170.71 
M 99.39 126.55 100.64 125.13 101.14 124.85 101.98 124.86 103.07 125.36 104.09 126.26 104.46 126.79 105.04 128.25 
M 143.18 199.8 144.56 201.84 144.73 203.33 
M 110.55 196.98 111.29 197.31 111.53 198.35 
M 100.14 192.96 103.1 192.6 104.85 191.68 
M 126.16 196.9 124.74 195.56 120.73 193.01 119.58 192.12 119.28 191.48 119.48 190.86 
M 160.61 149.18 163.05 150.02 164.02 150.75 164.83 151.83 165.04 152.67 165.02 155.39 164.54 156.77 163.93 157.38 
M 134.15 169.99 133.54 169.28 
M 150.2 153.83 149.37 154.9 148.47 155.73 147.91 156.01 146.13 156.45 144.33 155.9 141.56 154.3 
M 113.08 137.71 114.47 136.6 116.47 134.36 118.31 130.78 118.47 130.17 118.43 129.45 117.33 127.28 
M 112.24 183.46 112.47 183.97 112.61 185.04 113.9 185.95 114.12 186.26 114.33 187.05 114.25 187.44 
M 134.65 219.91 134 220.13 133.27 220.87 
M 80.23 190.69 80.28 189.22 80.98 186.87 82.13 185.22 84.09 183.74 84.4 183.28 84.26 182.89 
M 83.57 194.84 83.83 193.37 84.12 192.84 85.91 190.4 88.06 186.73 
M 130.92 140.32 131.86 140.83 134.94 141.2 135.36 141.49 135.61 141.94 
M 115.8 122.12 113.61 120.67 
M 66.17 145.82 64.19 145.98 63.29 145.86 61.91 145.35 
M 79.77 194.69 80.45 191.25 
M 148.09 127.04 148.09 124.89 147.25 122.79 144.93 120.8 143.43 118.96 
M 71.76 157.92 70.96 159.43 71.04 161.35 70.25 163.76 70.03 165.62 
M 125.94 126.44 123.99 124.47 123.23 123.14 122.83 121.66 122.75 120.5 122.15 119.25 122.09 118.56 
M 155.76 208.72 154.78 208.54 153.72 207.66 153.37 207.14 150.2 200.73 150.04 199.68 
M 109.48 212.29 109.73 213.88 109.69 215.01 
M 120.78 199.97 119.32 199.63 117.46 199.83 115.44 200.98 112.29 203.89 
M 111.92 181.9 113.03 183.43 113.32 185.2 114.14 186.14 114.33 187.36 
M 148.53 167.04 149.5 167.81 151.81 168.83 
M 123.01 218.59 121.34 217.66 118.93 216.66 118.06 215.7 117.31 214.48 
M 74.21 164.5 73.72 164.32 73.37 164.53 73.12 165.09 73.17 165.86 
M 167.04 157.16 166.09 158.05 165.37 158.39 164.09 158.85 162.6 159.06 162.01 159.36 159.99 161.3 157.86 162.85 
M 66.61 176.67 65.08 176.52 
M 127.01 201.99 126.62 201.82 125.79 200.32 125.25 199.76 122.45 197.61 120 196.22 
M 139.31 169.93 139.41 170.7 140.28 172.58 140.82 173.13 141.94 173.77 
M 156.38 136.85 156.73 137.83 156.8 140.07 157.08 140.81 157.68 141.48 160.39 143.45 
M 64.64 152.65 64.06 151.27 63.25 150.42 62.72 150.09 60.24 149.32 58 149.42 
M 121.68 156.7 121.91 155.88 122.28 155.35 123.63 154.53 125.82 154.14 127.84 154.33 
M 120.05 202.75 117.43 205.04 117.11 205.8 117.14 207.05 117.01 207.61 
M 97.75 131.79 96.83 132.6 96.03 132.9 95.16 133.05 94.16 132.89 93.71 132.56 93.16 130.68 
M 150.05 213.58 148.84 213.04 147.69 212.96 147.1 213.17 146.6 213.67 145.8 215.04 145.6 215.9 144.71 217.85 144.61 218.45 144.82 219.5 
M 120.82 152.64 122.37 152.53 123.77 152.68 125.44 152.62 126.17 152.83 
M 115.74 125.88 114.72 123.91 112.18 121.1 
M 84.19 144.94 82.7 144.39 82.08 143.57 82.27 143.09 
M 83.26 198.67 83.48 197.69 83.63 195.07 
M 106.12 128.51 107.3 130.93 108.47 132.57 110.12 133.88 111.04 134.46 112.05 134.85 112.94 134.68 114.33 133.42 114.83 132.68 115.35 131.27 
M 138.46 135.35 139.39 135.33 139.71 135.16 139.99 133.32 140.41 132.46 
M 114.98 176.85 116.44 182.8 117.42 185.89 117.71 186.21 
M 80.91 142.76 81.3 142.64 82.13 143.11 
M 134.17 145.56 133.17 147.15 131.49 148.57 130.24 148.92 129.32 148.82 
M 137.25 128.55 139.85 131.53 140.32 131.79 141.29 131.73 
M 82.71 139.07 84.1 141.97 83.9 142.55 83.13 142.85 
M 98.37 180.25 98.72 180.74 98.71 181.33 98.14 182.86 97.21 184.57 
M 123.67 189.5 121.85 188.7 119.91 187.1 118.91 186.89 
M 143.06 182.65 139.45 183.08 134.03 184.43 
M 113.51 126.17 113.01 123.01 111.88 121.2 
M 161.66 144.98 164.67 146.46 
M 84.59 176.58 84.4 176.16 84.45 175.74 84.79 174.85 85.09 174.57 
M 161.77 214.82 162.24 213.38 161.89 211.76 161.55 211.05 161.08 210.52 160.43 210.3 158.9 210.5 
M 63.17 164.8 62.88 163.62 61.38 160.89 59.71 158.67 59.52 157.96 
M 68.62 166.06 68.2 166.15 
M 76.38 192.4 76.59 191.78 
M 159.13 151.18 160.13 151.97 161.84 153.7 162.46 154.43 162.74 155.1 162.73 155.61 162.24 156.61 161.58 157.32 160.35 158.21 
M 87.78 166.93 87.44 168.02 87.34 169.79 88.41 172.69 88.73 174.38 88.5 175 87.58 176.19 87.03 176.6 85.88 176.93 
M 140.35 120.42 136.61 118.26 135.74 117.6 134.74 116.49 
M 123.46 195.48 118.9 192.62 118.73 192.37 118.78 191.95 
M 129.72 160.76 129.92 160.38 129.79 159.68 129.36 159.41 128.73 159.54 
M 160.43 145.16 161.08 145.53 163.41 146.19 164.78 146.74 
M 69.34 141.13 68.83 141.07 
M 152.57 135.15 155.08 138.58 155.12 139.45 154.71 140.87 
M 163.04 192.11 162.98 191.59 162.3 190.77 161.23 190.19 160.43 190.1 
M 104.65 165.68 105.15 166.33 105.71 167.95 105.68 170.49 105.92 172.79 106.16 173.72 106.45 174.21 
M 124.13 128.74 123.44 127.83 121.82 126.2 121.33 125.42 118.58 119.39 
M 104.08 132.95 105.03 134.17 107.61 135.92 110 137.78 110.91 137.87 112.74 137.5 113.58 137.02 115.59 134.95 
M 152.34 176.28 151.95 174.69 152.48 173.45 153.22 172.81 153.98 172.41 156.18 172.04 
M 80.34 195.92 80.95 196.91 
M 75.74 190.48 75.56 191.25 76.08 191.02 
M 73.74 187.4 73.35 187.89 73.09 188.79 73.63 188.34 74.3 188.2 
M 71.8 184.37 71.02 185.21 70.63 186.33 71.3 185.66 72.38 185.34 
M 69.86 181.39 68.69 182.53 68.17 183.88 68.97 182.98 70.56 182.42 
M 67.84 178.51 66.36 179.85 65.71 181.42 66.64 180.3 68.56 179.55 
M 65.88 175.58 64.03 177.17 63.24 178.96 64.31 177.62 66.6 176.66 
M 63.87 172.69 61.7 174.49 60.78 176.51 61.98 174.94 64.63 173.76 
M 61.79 169.86 59.37 171.81 58.32 174.05 59.65 172.26 62.54 170.92 
M 59.78 166.98 57.04 169.13 55.85 171.6 57.32 169.58 60.53 168.04 
M 57.74 164.12 54.71 166.45 53.39 169.14 54.99 166.9 58.46 165.2 
M 55.69 161.26 52.38 163.77 50.93 166.68 52.67 164.22 56.47 162.31 
M 53.59 158.45 50.05 161.09 48.47 164.23 50.34 161.54 54.34 159.5 
M 51.72 155.46 47.73 158.41 46 161.77 48.01 158.86 52.23 156.67 
M 80.04 196.05 81.34 196.36 
M 76.94 194.75 77.35 194.62 77.45 194.89 
M 73.38 193.68 74.22 193.08 74.14 193.53 74.26 193.98 
M 69.98 192.58 70.32 192.07 71.08 191.53 70.83 192.19 70.92 192.85 
M 66.53 191.61 67.01 190.73 67.95 189.99 67.53 190.85 67.57 191.9 
M 63.11 190.65 63.71 189.38 64.81 188.45 64.23 189.5 64.21 190.96 
M 59.68 189.72 60.41 188.04 61.68 186.91 60.92 188.16 60.84 190.02 
M 56.31 188.67 57.11 186.7 58.55 185.37 57.62 186.82 57.46 189.05 
M 52.91 187.67 53.8 185.35 55.41 183.83 54.32 185.47 54.09 187.98 
M 49.48 186.79 50.5 184.01 52.28 182.29 51.02 184.13 50.7 187.11 
M 46.02 186 47.2 182.67 49.14 180.75 47.71 182.79 47.3 186.28 
M 42.61 185.09 43.89 181.32 46.01 179.2 44.41 181.44 43.89 185.47 
M 39.24 184.04 40.59 179.98 42.88 177.66 41.11 180.1 40.51 184.41 
M 35.83 183.14 37.29 178.64 39.74 176.12 37.8 178.76 37.12 183.5 
M 32.31 182.58 33.98 177.3 36.61 174.58 34.5 177.42 33.73 182.53 
M 38.82 188.61 52.13 195.74 59.03 198.89 66.29 201.69 73.86 203.98 81.67 205.8 97.08 208.73 
M 41.54 189.13 41.34 189.98 
M 50.6 192.01 50.19 192.46 50.04 192.99 50.29 194.77 
M 155.68 115.64 162.24 122.2 
M 161.92 114.82 170.29 123.18 
M 167.64 113.47 177.59 123.42 
M 173.51 112.27 179.5 118.26 
M 179.56 111.25 188.02 119.72 
M 186.07 110.7 194.96 119.59 
M 193.25 110.82 202.22 119.78 
M 200.95 111.45 210.62 121.12 
M 208.84 112.27 218.19 121.62 
M 216.45 112.82 222.85 119.21 
M 223.75 113.04 230.93 120.22 
M 231.02 113.25 240.35 122.58 
M 238.58 113.75 246.98 122.14 
M 246.43 114.53 253.44 121.54 
M 254.4 115.43 262.19 123.22 
M 262.41 116.37 272.26 126.22 
M 270.77 117.67 278.17 125.07 
M 279.73 119.56 287.12 126.95 
M 288.92 121.68 295.78 128.55 
M 297.89 123.59 306.28 131.97 
M 306.48 125.11 312.21 130.84 
M 314.5 126.06 320.48 132.05 
M 322.65 127.14 329.91 134.41 
M 331.91 129.34 340.57 138 
M 342.72 133.08 348.18 138.55 
M 354.97 138.27 362.86 146.16 
M 206.65 112.04 208.27 115.3 
M 210.83 112.45 210.84 112.47 
M 212.74 108.33 214.96 112.76 
M 214.66 104.21 219 112.9 
M 216.57 100.1 223.04 113.03 
M 218.25 95.51 224.18 107.36 
M 220.13 91.32 223.69 98.43 
M 222.45 88 222.85 88.79 
M 250.47 112.25 251.92 115.14 
M 247.64 98.63 256.14 115.63 
M 246.8 89.01 260.36 116.13 
M 246.87 81.18 264.61 116.68 
M 245.67 70.83 268.93 117.36 
M 247.1 65.74 273.3 118.15 
M 250.07 63.74 277.75 119.11 
M 252.79 61.23 277.68 111 
M 255.59 58.88 271.78 91.27 
M 259.05 57.85 272.08 83.92 
M 262.37 56.54 271.45 74.71 
M 265.37 54.6 272.09 68.03 
M 268.54 52.99 272.89 61.68 
M 302.91 121.73 304.43 124.76 
M 272.18 52.32 273.37 54.69 
M 302.6 113.16 308.73 125.41 
M 301.41 102.81 312.94 125.89 
M 301.03 94.11 317.17 126.39 
M 299.59 83.29 321.44 126.97 
M 299.15 74.44 325.31 126.78 
M 300.16 68.53 325.44 119.09 
M 301.61 63.47 324.52 109.3 
M 303.76 59.82 324.7 101.7 
M 307.61 59.57 324.59 93.54 
M 311.55 59.5 323 82.41 
M 314.98 58.41 324.06 76.58 
M 319.56 59.63 324.7 69.9 
M 236.18 291.39 234.29 297.7 
M 236.18 291.39 236.69 297.7 
M 240.98 291.39 236.69 297.7 
M 240.98 291.39 239.09 297.7 
M 242.15 293.5 242.69 297.7 
M 245.75 293.5 241.73 298.89 240.95 299.5 239.96 299.8 
M 247.55 293.5 246.29 297.7 
M 247.01 295.3 247.58 294.39 248.36 293.8 249.05 293.5 249.95 293.5 
M 251.45 293.5 250.55 296.5 250.58 297.39 251.09 297.7 251.99 297.7 252.68 297.39 253.85 296.5 
M 254.75 293.5 253.49 297.7 
M 259.88 294.39 259.76 293.8 258.95 293.5 258.05 293.5 257.06 293.8 256.58 294.39 256.7 295 257.21 295.3 258.62 295.6 259.13 295.89 259.15 296.8 258.68 297.39 257.69 297.7 256.78 297.7 255.98 297.39 255.86 296.8 
M 267.68 291.39 267.08 291.39 266.39 291.7 265.82 292.6 264.28 297.7 
M 264.64 293.5 266.75 293.5 
M 270.05 293.5 269.36 293.8 268.58 294.39 268.01 295.3 267.83 295.89 267.86 296.8 268.27 297.39 268.79 297.7 269.69 297.7 270.38 297.39 271.16 296.8 271.73 295.89 271.91 295.3 271.88 294.39 271.45 293.8 270.95 293.5 270.05 293.5 
M 274.55 293.5 273.29 297.7 
M 274.01 295.3 274.58 294.39 275.36 293.8 276.05 293.5 276.95 293.5 
M 278.45 293.5 277.19 297.7 
M 277.91 295.3 278.48 294.39 279.26 293.8 279.95 293.5 280.85 293.5 
M 282.68 291.39 282.89 291.7 283.27 291.39 283.07 291.1 282.68 291.39 
M 282.35 293.5 281.08 297.7 
M 283.97 297.1 283.58 297.39 283.79 297.7 284.18 297.39 283.97 297.1 
"/></svg>
