<svg xmlns="http://www.w3.org/2000/svg" width="520" height="320"><rect x="0" y="0" width="520" height="320" fill="floralwhite"/><rect x="10" y="10" width="500" height="300" stroke="black" stroke-width="1" fill="none"/><path stroke="black" stroke-width="1" fill="none" stroke-linecap="round" stroke-linejoin="round" d="
M 132.71 84.2 142.2 80.66 151.75 78.9 161.29 78.03 180.39 75.59 189.93 74.63 199.48 73.95 209.03 73.93 218.58 74.68 247.22 78.14 256.76 79.43 266.31 80.95 294.95 83.97 304.5 85.67 333.14 92.09 342.69 94.51 352.23 97.65 361.78 102.11 371.33 112.52 
M 371.33 169.99 361.78 182.48 352.23 188.1 342.69 192.17 333.14 195.19 323.59 197.8 304.5 203.47 294.95 206.12 285.4 208.09 256.76 211.81 228.12 217.25 218.58 218.34 209.03 218.46 199.48 217.57 189.93 215.92 180.39 213.71 170.84 210.7 161.29 206.68 142.2 196.75 132.65 192.85 123.1 189.7 
M 367.21 125.31 359.92 123.88 356.21 123.32 348.76 123.07 337.8 123.1 315.26 123.77 
M 312.15 123.83 304.09 124.23 285.62 125.87 
M 282.39 126.06 279.08 126.2 
M 275.62 126.31 270.27 126.4 265.02 126.2 
M 261.68 125.95 258.41 125.61 
M 255.15 125.23 248.58 124.71 
M 245.26 124.57 232.38 124.36 
M 229.34 124.19 226.26 124.02 
M 216.28 123.45 202 122.23 
M 198.52 122.01 184.95 121.83 
M 181.58 121.79 174.74 121.6 
M 171.22 121.61 164.09 121.54 
M 160.6 121.29 158.88 121.12 157.24 120.7 
M 151 118.77 145.07 117.03 
M 142.04 116.31 140.5 116 137.78 115.97 
M 128.71 172.25 133.13 178.06 
M 130.13 166.64 133.47 171.51 
M 136.41 168.18 138.9 171.66 
M 141.46 175.01 144.03 178.42 
M 148.93 185.57 151.28 189.07 
M 153.58 192.37 155.87 195.45 
M 133.66 154.33 134.9 156.57 
M 137.2 160.65 138.84 163.41 
M 142 168.18 147.17 175.2 
M 149.71 178.83 156.9 189.39 
M 135.41 147.91 138.04 152.53 
M 150.16 171.09 150.51 171.59 
M 153 175.31 156.61 180.93 160.13 186.03 
M 162.39 189.12 164.57 192.01 
M 166.78 194.74 169.08 197.35 
M 171.51 199.88 176.67 204.86 
M 136.66 140.89 142 149.69 
M 167.56 188.41 169.75 191.2 
M 174.52 196.57 177.1 199.23 
M 137.45 133.22 140.45 138.21 147.52 149.21 
M 166.24 178.32 169.39 183.13 172.72 187.46 
M 137.79 124.7 143.59 134.5 152.51 147.98 
M 183.62 192.34 186.34 195.37 
M 189.08 198.51 191.81 201.72 
M 194.53 204.87 197.2 207.85 
M 137.76 115.74 138.41 116.86 
M 140.77 121 144.16 126.99 147.92 132.92 
M 150.67 136.95 156.64 145.75 
M 185.93 187.26 187.05 188.53 
M 192.47 194.99 195.19 198.42 
M 136.17 104.84 140.01 111.1 146.91 123.46 149.3 127.38 157.74 139.24 161.47 144.8 
M 193.95 188.69 195.83 191.15 
M 203.67 201.84 206.16 204.99 
M 134.21 94.2 140.25 103.39 142.82 107.61 149.59 119.95 151.89 123.83 154.51 127.7 161.7 137.29 
M 164.32 141.06 165.61 142.99 
M 200.71 189.46 201.7 190.92 
M 209.23 201.68 211.62 204.71 
M 132.85 84.95 143.33 100.39 148.17 108.46 154.65 120.31 158.54 125.98 
M 161.37 129.67 165.58 135.13 169.35 140.59 
M 204.89 187.11 207.46 190.93 
M 216.98 204.38 219.35 207.12 
M 136.33 82.85 149.06 101.43 151.36 105.26 157.72 116.77 160.12 120.42 168.23 131.04 173.98 139.45 
M 209.01 184.61 210.81 187.25 
M 217.84 198.01 220.07 201.21 
M 140.07 81.45 152.36 98.66 154.64 102.18 161.05 113.04 163.4 116.55 167.26 121.7 
M 169.9 125.18 172.45 128.76 
M 174.9 132.46 179.35 139.21 
M 214.35 183.83 219.05 191.13 
M 223.34 198.01 224.43 199.65 226.81 202.68 228.09 204.04 
M 143.68 80.39 155.51 95.94 157.8 99.16 166.86 112.58 174.44 122.9 183.13 136.38 
M 216.14 178.3 217.88 180.62 
M 220.34 184.18 222.57 187.77 
M 224.66 191.31 227.83 196.42 229.01 197.96 
M 236.74 206.06 238.63 207.77 
M 147.27 79.73 160.89 96.14 168 105.44 177.68 118.96 185.03 130.53 189.43 136.97 
M 221.17 177.47 223.69 180.97 
M 225.95 184.48 228.05 188.03 
M 234.84 197.71 242.58 205.49 
M 150.81 79.08 166.52 95.9 171.44 101.78 177.39 109.83 
M 179.74 113.31 184.51 120.63 
M 186.97 124.49 189.58 128.55 
M 192.4 132.76 194.54 135.83 
M 222.26 171.91 224.08 174.21 
M 240.61 197.36 243.17 199.98 
M 154.87 78.62 164.56 87.55 169.78 92.71 174.79 98.27 177.23 101.29 179.61 104.47 184.25 111.23 193.96 126.38 199.56 134.71 
M 225.03 168.71 226.74 170.91 
M 229.44 174.59 237.38 187.13 238.57 188.69 
M 159.65 78.18 167.89 84.92 173.11 89.69 175.6 92.23 180.54 97.87 183.02 100.98 185.43 104.22 188.83 109.22 
M 191.02 112.65 195.69 120.1 
M 198.31 124.22 204.49 133.61 
M 227.2 164.68 230.82 169.48 233.43 173.25 236.94 178.85 
M 239.16 182.39 240.26 184.11 243.88 188.67 
M 251.24 196.66 253.43 199.22 
M 164.81 77.57 168.66 80.36 173.98 84.64 178.9 89.29 183.87 94.65 188.97 100.85 191.32 104.08 193.51 107.34 198.93 116.11 
M 204.07 124.24 206.85 128.55 
M 209.59 132.81 210.91 134.88 
M 229.73 160.75 233.68 166.15 237.47 171.78 
M 244.43 182.39 246.84 185.44 
M 170.16 76.88 174.86 80.2 179.8 84.34 184.68 89.05 189.87 94.59 194.92 100.85 197.17 104.03 202.42 112.44 
M 204.75 116.18 218.98 138.71 232.98 157.56 
M 235.5 161.02 240.48 168.24 
M 242.85 171.87 245.21 175.4 
M 254.85 187.55 263.12 198.04 
M 265.24 200.45 267.44 202.7 
M 175.48 76.21 178.23 78.12 183.06 82.01 187.97 86.47 193.2 91.7 198.39 97.73 200.73 100.86 203.92 105.62 
M 208.26 112.52 215.85 124.45 
M 220.83 132.69 224.67 138.66 228.71 144.26 
M 238.72 157.75 248.36 171.55 
M 255.74 181.04 259.25 185.34 264.22 192.21 
M 180.48 75.58 186.24 79.88 191.15 84.1 195.06 87.73 
M 197.72 90.37 201.63 94.65 204.07 97.68 208.47 103.86 211.74 108.94 
M 214.06 112.61 216.52 116.46 
M 219.05 120.43 223.98 128.6 
M 226.46 132.75 231.77 140.79 
M 237.03 148.01 239.5 151.32 
M 241.91 154.52 246.67 160.97 
M 254.02 170.99 258.96 177.17 
M 265.5 186 267.41 188.83 
M 185.39 75.08 189.35 77.94 196.82 84.1 202.11 89 207.16 94.45 211.72 100.42 216.13 107.08 223.26 118.44 229.36 128.78 
M 234.71 137.13 242.63 148.09 
M 249.82 157.52 259.61 170.33 
M 266.51 179.44 268.52 182.45 
M 270.44 185.38 272.42 188.24 
M 281.55 199.06 283.44 201.16 
M 190.15 74.61 194.84 77.94 199.89 81.89 205.05 86.37 210.07 91.34 212.47 94.07 216.98 100.14 221.45 107.03 227.13 116.61 
M 229.5 120.66 234.62 129.07 
M 237.44 133.28 244.39 142.98 250.48 151.06 
M 252.92 154.16 268.25 174.23 275.23 184.85 
M 279.75 190.7 284.49 196.29 
M 195.04 74.26 200.48 77.94 205.41 81.76 210.36 86.06 215.29 90.98 217.66 93.76 222.15 100.05 226.44 107.14 231.99 116.88 
M 239.99 129.26 242.94 133.37 
M 250.92 144.38 253.34 147.61 
M 255.82 150.77 262.03 158.62 265.45 163.18 
M 273.92 175.18 275.84 178.29 
M 277.87 181.4 280.08 184.49 
M 282.45 187.54 284.89 190.52 
M 200.11 73.94 203.59 76.13 208.27 79.56 213.06 83.52 218 88.15 220.46 90.8 222.79 93.7 224.96 96.84 228.09 101.96 
M 230.18 105.58 235.76 115.15 238.31 119.11 251.08 137.07 
M 253.61 140.62 258.5 147.28 
M 261.04 150.51 266.02 156.76 
M 268.35 159.75 270.61 162.67 
M 272.79 165.59 274.81 168.55 
M 276.7 171.6 280.58 177.94 
M 205.83 73.94 208.87 75.87 213.41 79.24 218.2 83.27 220.68 85.58 223.13 88.1 225.47 90.86 227.67 93.87 230.81 98.79 
M 232.93 102.26 238.63 111.47 245.26 121.25 
M 248.07 125.29 256.22 136.79 
M 258.69 140.3 262.36 145.43 266.22 150.34 
M 273.62 159.26 275.83 162.14 
M 277.87 165.08 283.55 174.51 
M 290.51 184.2 293.03 187.36 
M 211.94 74.16 216.22 77.17 220.94 81 225.75 85.58 228.08 88.21 232.51 94.16 243.02 109.76 
M 245.55 113.61 250.78 121.53 
M 258.81 133.05 266.34 143.69 
M 268.93 147.05 277.78 157.39 280.03 160.26 282.07 163.23 284.86 167.93 
M 288.85 174.37 291.11 177.62 
M 293.54 180.87 296.06 184.14 
M 218.26 74.66 221.42 76.98 226.1 80.92 230.79 85.69 233.09 88.42 240.12 97.58 245.09 104.48 254.95 119.97 258.86 125.75 
M 261.47 129.47 269.23 140.3 
M 271.8 143.8 276.99 150.11 
M 279.49 152.93 281.87 155.7 
M 284.13 158.58 286.24 161.61 
M 288.22 164.76 291.16 169.53 294.39 174.27 
M 296.74 177.52 299.23 180.85 
M 301.78 184.23 304.34 187.63 
M 224.89 75.47 228.98 78.75 233.68 83.26 238.44 88.6 243.44 94.59 248.58 101.32 251.07 104.97 259.22 118.52 
M 261.71 122.32 264.3 126.01 
M 266.96 129.61 276.06 142.27 279.85 147.11 
M 282.32 150.01 284.73 152.78 
M 289.36 158.67 291.54 161.84 
M 300.11 174.3 305.06 181.03 
M 231.47 76.29 236.75 80.94 241.68 85.97 246.85 91.81 252.16 98.38 254.69 101.94 257.04 105.66 263.6 117.15 266.09 120.79 274.05 131.42 281.49 142.32 283.9 145.55 292.37 155.89 
M 299.22 165.33 305.98 174.49 
M 313.77 184.82 316.26 188.28 
M 238.02 77.11 242.46 81.07 247.6 86.31 253 92.36 255.69 95.66 258.27 99.12 260.66 102.74 267.15 113.9 269.54 117.42 273.42 122.51 
M 276.01 125.95 280.88 133.22 
M 283.21 136.9 285.55 140.46 
M 287.95 143.82 292.86 150.04 
M 295.34 153.11 300.27 159.47 
M 302.65 162.59 304.95 165.56 
M 307.22 168.49 317.41 181.66 
M 244.42 77.83 248.35 81.42 253.66 86.87 259.08 93.11 262.9 98.24 
M 265.27 101.8 270.84 110.77 273.16 114.16 279.3 122.33 
M 281.65 125.78 283.92 129.39 
M 286.19 133.07 290.87 140.32 
M 295.79 146.96 303.4 156.46 
M 310.75 165.55 313.18 168.54 
M 321.02 178.49 323.51 181.94 
M 250.8 78.62 256.99 84.65 262.33 90.68 267.44 97.38 273.29 106.08 
M 277.87 112.62 282.48 118.89 
M 284.73 122.15 293.92 136.54 
M 296.31 140.14 301.29 146.86 
M 306.44 153.2 309.02 156.27 
M 319.14 168.52 321.8 171.85 
M 257.23 79.5 260.31 82.51 265.58 88.29 270.72 94.78 280.07 108.02 291.33 123.42 297.11 132.51 
M 301.86 139.88 308.09 148.16 314.54 155.75 
M 317.11 158.8 323.62 166.83 327.57 172.01 
M 263.86 80.56 268.97 85.91 271.57 88.95 276.45 95.39 285.43 107.9 291 115.14 
M 293.38 118.11 298.1 124.65 
M 300.41 128.31 302.72 132.11 
M 305.04 135.88 307.38 139.44 
M 309.74 142.77 313.42 147.51 317.37 152.1 
M 325.3 161.77 327.96 165.23 
M 340.31 183.14 342.27 186.01 
M 270.53 81.42 275.08 86.37 277.5 89.39 290.54 107.46 300.23 118.99 302.59 122.29 304.9 125.91 311.52 137.03 313.77 140.38 317.44 145.23 
M 320.11 148.43 324.29 153.31 328.35 158.45 
M 330.98 162 333.6 165.63 
M 336.18 169.3 338.68 172.96 
M 277.2 82.13 280.97 86.57 283.14 89.47 293.35 104.02 295.6 106.79 303.39 115.26 305.86 118.37 306.99 120.08 
M 309.2 123.63 314.54 132.78 317.89 137.92 
M 320.29 141.34 322.92 144.76 
M 328.59 151.68 331.39 155.23 
M 334.07 158.87 336.68 162.53 
M 283.53 82.71 286.4 86.4 296.15 100.48 298.38 103.25 300.88 106 306.32 111.63 308.86 114.69 312.24 119.75 
M 314.38 123.32 318.74 130.4 
M 321.03 133.87 323.43 137.42 
M 325.96 141.05 328.65 144.69 
M 331.48 148.33 337.16 155.74 
M 349.96 173.48 352.31 176.74 
M 289.5 83.35 299.15 96.87 301.37 99.66 309.08 108.02 311.64 111.06 314.05 114.34 317.42 119.54 
M 319.66 123.04 329.21 137.25 
M 334.41 144.83 340.15 152.48 
M 342.98 156.23 348.23 163.31 
M 350.73 166.67 353.12 169.94 
M 295.23 84.02 302.34 93.23 306.96 98.75 311.88 104.29 316.9 110.59 329.01 127.88 332.59 133.4 
M 343.12 148.98 353.98 163.13 
M 301.83 85.2 317.36 103.41 326.33 115.3 
M 328.84 118.73 332.52 123.96 336.08 129.5 
M 338.44 133.36 340.85 137.32 
M 343.4 141.3 346.17 145.26 
M 354.74 156.26 357.28 159.52 
M 361.87 165.8 365.74 171.7 
M 309.6 86.8 313.64 91.31 320.54 99.47 328.44 109.51 333.62 116.4 338.52 123.57 345.6 135.39 349.5 141.39 
M 352.35 145.29 355.24 149.03 
M 317.93 88.66 326.53 98.8 334.59 108.86 339.69 115.75 343.37 121.34 
M 345.75 125.26 351.87 135.4 354.56 139.41 358.76 145.18 
M 361.44 148.8 366.34 155.54 
M 326.18 90.53 335.61 101.58 340.81 108.16 343.3 111.56 348.28 119.02 355.75 131.24 365.06 145.05 
M 367.46 148.64 369.75 152.1 
M 334.73 92.5 342.07 101 347 107.45 351.91 114.71 355.64 120.74 
M 343.9 94.91 348.33 100.24 353.09 106.77 357.97 114.3 367.04 128.95 
M 353.43 98.21 359.08 106.2 365.15 116.12 
M 364.35 104.91 367.36 109.75 370.52 115.34 
M 137.5 82.41 133.08 86 
M 146.81 79.81 137.94 87.34 134.01 90.99 
M 153.39 78.75 145.88 86.14 139.58 91.86 
M 137.07 94.41 134.63 97.36 
M 159.63 78.18 157.21 80.32 148.93 89.34 141.53 96.74 139.17 99.61 136.08 104.45 
M 167.03 77.29 163.01 80.4 160.61 82.64 158.4 85.02 152.15 92.63 144.89 100.68 142.58 103.8 141.52 105.51 
M 139.46 109.05 137.45 112.71 
M 174.57 76.32 169.25 80.35 166.66 82.59 163.01 86.32 
M 160.75 88.97 156.46 94.52 
M 154.21 97.34 148.15 104.78 144.79 109.87 
M 142.74 113.46 137.86 121.92 
M 181.41 75.48 177.93 78.13 172.85 82.41 167.75 87.42 165.34 90.21 151.17 108.86 148.86 112.33 141.58 124.91 
M 187.8 74.84 183.57 77.99 178.76 82.16 173.75 87.07 171.24 89.83 168.78 92.79 163.98 99.13 156.49 109.36 152.87 114.63 
M 148.63 121.74 145.7 127.11 138.98 138.14 136.41 142.86 
M 194.11 74.33 191.35 76.18 186.76 79.87 182.01 84.25 177.08 89.41 172.16 95.43 167.2 102.15 159.42 113.09 155.81 118.53 
M 153.67 122.1 149.91 129.29 
M 147.96 132.92 145.83 136.6 
M 134.35 156.55 132.04 160.34 
M 200.38 73.94 196.88 76.2 192.27 79.84 187.68 84.12 182.83 89.1 177.92 94.95 170.44 105.21 163.86 114.68 
M 161.36 118.52 159.06 122.28 
M 155.25 129.61 152.6 135.14 150.56 138.88 144.44 149.12 
M 130.67 171.39 128.53 174.67 
M 205.6 73.94 200.18 77.94 195.59 81.89 191.06 86.46 184.98 93.19 
M 182.49 96.25 177.52 102.94 
M 174.97 106.51 169.77 114.07 
M 167.22 118 163.63 123.91 161.59 127.78 158.97 133.49 
M 157.21 137.29 154.18 143.06 150.82 148.63 
M 210.24 74.03 205.65 77.8 199.03 84.1 194.54 89 189.72 94.59 183.31 102.64 
M 180.73 106.14 175.65 113.52 
M 168.35 125.33 166.22 129.33 
M 164.34 133.3 160.75 141.23 
M 158.73 145.12 158.65 145.26 
M 214.49 74.36 210.85 77.5 208.76 79.53 202.49 86.45 187.88 104.15 185.2 107.64 181.36 113.23 
M 178.91 117.04 174.11 124.83 
M 171.78 128.81 168.65 134.84 165.91 140.94 
M 148.22 170.52 145.09 175.08 
M 218.86 74.72 215.95 77.19 213.89 79.21 209.91 83.72 199.1 97.73 190.99 107.41 188.29 111 185.73 114.8 176.16 130.48 173.9 134.42 170.98 140.36 
M 152.9 172.28 150.9 175.23 
M 148.48 178.69 146.13 181.9 
M 223.17 75.25 219.03 78.98 215.06 83.41 211.19 88.54 204.75 97.65 202.26 100.85 196.76 107.28 192.65 112.59 
M 190.1 116.42 176.56 139.34 
M 156.66 175.27 154.19 179.01 
M 151.77 182.45 149.36 185.61 
M 227.6 75.8 224.24 78.84 222.18 80.98 218.28 85.62 210.16 97.34 206.51 102.31 
M 203.85 105.61 199.66 110.63 196.95 114.22 194.46 118.1 187.66 130.57 184.1 136.41 
M 161.95 175.44 159.8 178.98 
M 232.16 76.38 229.48 78.75 227.35 80.91 223.42 85.56 219.57 90.81 210.75 103.77 202.69 114.22 201.41 116.12 
M 198.96 120.05 197.8 122.08 194.62 128.51 
M 192.48 132.73 190.18 136.8 
M 165.13 178.48 162.85 182.37 
M 236.93 76.98 232.61 80.9 228.44 85.63 224.63 90.83 213.75 107.11 209.89 112.52 
M 202.48 124.23 197.28 135.22 
M 169.71 178.61 167.98 181.63 
M 242.07 77.57 238.11 80.96 233.56 85.77 231.47 88.35 227.55 93.86 209.53 122.25 207.2 126.41 204.11 132.86 
M 173.2 180.59 173.16 180.67 
M 247.5 78.18 243.87 81.14 241.42 83.42 239.01 85.91 234.49 91.3 230.36 97.13 228.34 100.27 223.27 108.9 
M 221.14 112.63 211.92 128.6 
M 209.73 132.83 209.32 133.66 
M 176.27 183.51 173.92 187.23 
M 253.03 78.92 249.79 81.53 244.82 86.12 239.93 91.48 235.34 97.42 233.19 100.57 229.14 107.29 221.16 122.43 216.45 130.69 213.32 136.55 
M 172.65 196.81 170.47 199.98 
M 258.61 79.72 253.31 84.27 248.34 89.08 243.3 94.58 238.43 100.81 234 107.59 232 111.16 224.39 126.54 217.12 139.52 
M 264.1 80.6 256.9 87.24 251.95 92.25 248.07 96.45 
M 245.48 99.46 241.69 104.31 239.3 107.8 237.06 111.42 235.03 115.12 232.32 120.82 
M 230.55 124.75 227.63 130.76 222.09 140.54 
M 186.79 191.93 181.85 198.8 
M 269.93 81.35 265.26 85.54 262.83 87.96 252.92 98.46 247.57 104.65 243.83 109.8 
M 241.51 113.43 238.34 119.11 233.01 131.04 231.04 134.98 226.73 142.44 223.6 147.16 
M 275.8 82 268.78 88.66 263.94 93.82 253.57 105.24 250.87 108.5 248.34 111.93 246.02 115.51 243.9 119.24 241.95 123.14 236.61 135.28 234.63 139.09 232.49 142.68 230.22 146.07 226.61 150.88 
M 191.56 201.68 189.08 204.65 
M 281.36 82.51 272.21 91.94 256.72 109.17 254.06 112.49 251.63 115.95 249.46 119.54 246.58 125.28 
M 244.8 129.3 243.05 133.38 
M 241.22 137.36 238.19 142.94 235.96 146.33 227.96 156.68 
M 207.08 187.17 202.35 194.72 
M 286.25 82.97 270.56 100.97 262.45 109.92 259.74 113.16 256.1 118.24 
M 253.96 121.77 251.09 127.35 245.79 139.27 242.68 144.73 
M 238.11 151.3 235.69 154.42 
M 233.25 157.57 228.63 164.09 
M 224.76 170.79 221.88 175.82 220.75 177.44 
M 218.34 180.65 215.72 183.92 
M 290.41 83.45 285.99 89.35 276.2 101.61 265.44 113.77 262.79 117.08 260.46 120.45 257.41 125.7 
M 255.52 129.37 251.05 138.99 248.09 144.56 
M 243.69 151.31 241.36 154.53 
M 232.18 167.81 230.21 171.17 
M 228.31 174.48 225.29 179.37 218.98 187.62 
M 216.31 191.09 213.74 194.65 
M 294.26 83.89 288.69 92.14 281.7 101.86 276.81 107.93 268.67 117.4 266.12 120.79 263.83 124.23 261.76 127.71 257.08 136.77 
M 255.2 140.52 251.27 147.74 
M 249.13 151.11 246.86 154.39 
M 244.55 157.7 237.69 168.16 
M 229.44 181.39 227.13 184.57 
M 219.34 194.64 216.82 198.06 
M 298.05 84.52 289.15 98.31 284.69 104.88 272.14 120.82 268.49 126.07 
M 266.26 129.6 263.19 134.88 255.5 149.14 253.45 152.52 250.07 157.51 
M 245.44 164.52 240.9 171.89 
M 229.99 188.2 222.3 198.01 
M 302.25 85.27 298.43 90.68 287.58 107.75 278.11 120.66 273.19 127.8 266.53 138.47 258.8 152.26 255.63 157.3 
M 251 164.25 244.02 175.47 
M 230.45 194.8 227.89 198.02 
M 306.74 86.17 303.85 89.9 299.02 96.89 290.52 110.52 281.34 123.98 267.79 145.42 262.11 155.38 258.88 160.44 
M 256.6 163.9 247.19 178.79 
M 244.85 182.37 242.62 185.68 
M 238.36 191.72 233.7 197.81 
M 311.25 87.16 309.59 89.08 307.02 92.51 302.05 99.56 293.66 113.26 287.85 121.96 
M 285.52 125.63 277.63 138.77 271.23 148.69 262.03 163.49 
M 259.84 166.98 257.59 170.6 
M 252.87 178.12 250.45 181.82 
M 248.1 185.32 243.8 191.59 
M 315.55 88.12 312.67 91.49 307.65 98.62 303.2 105.67 296.96 116.05 289.76 127.21 280.89 142.33 269.37 159.67 
M 267.21 163.03 263.02 169.94 
M 260.84 173.54 258.56 177.24 
M 253.75 184.59 251.41 188.01 
M 319.78 89.08 318.41 90.49 315.69 93.87 313.18 97.49 310.86 101.18 302.59 115.36 295.31 126.78 286.13 142.22 283.07 147.07 
M 281.03 150.05 274.65 159.18 
M 266.08 172.87 263.97 176.45 
M 261.73 180.09 256.92 187.23 
M 248.29 199.65 246.19 202.52 
M 243.98 205.38 242.46 207.27 
M 324.01 90.04 321.44 92.9 318.82 96.42 316.38 100.14 306.99 116.56 
M 304.67 120.28 302.2 124.24 
M 299.69 128.35 297.22 132.49 
M 294.83 136.48 289.33 145.44 284.21 152.79 
M 282.12 155.7 277.64 161.99 
M 275.3 165.32 271.98 170.48 266.89 179.39 
M 264.66 182.95 262.26 186.44 
M 257.47 193.11 255.29 196.24 
M 328.65 91.08 327.51 92.25 324.72 95.63 322.12 99.26 319.71 103.08 313.32 114.38 298.04 140.06 
M 295.81 143.64 292.59 148.52 289.44 152.82 
M 285.14 158.56 276.78 169.96 274.61 173.44 271.62 178.77 
M 269.57 182.31 267.34 185.77 
M 256.02 201.68 254.13 204.45 
M 333.62 92.21 331.01 95.14 328.22 98.66 325.6 102.41 317.45 115.93 
M 315.22 119.63 304.77 137.86 299.12 146.89 
M 296.95 150.09 290.39 158.72 
M 288.03 161.66 284.25 166.32 280.52 171.33 
M 272.18 185.16 269.97 188.51 
M 265.21 194.96 262.91 198.07 
M 338.71 93.5 334.67 98.22 331.86 101.87 329.21 105.72 317.01 125.03 311.29 135.15 
M 306.85 143.1 301.39 151.73 295.79 159.15 
M 293.39 161.99 286.89 169.52 284.36 172.83 280.95 177.92 
M 278.92 181.33 274.95 187.99 
M 343.63 94.82 338.31 101.36 335.49 105.13 326.33 118.94 
M 323.76 122.77 318.84 130.42 
M 316.51 134.39 310.08 146.22 
M 305.88 153.22 301.35 159.51 
M 286.1 177.76 283.94 181.12 
M 279.98 187.64 277.97 190.79 
M 348.12 96.3 339.01 108.37 324.47 129.96 
M 321.97 133.79 318.43 139.7 313.39 149.2 
M 311.38 152.78 308.18 157.94 305.86 161.16 301.99 165.47 
M 296.59 171.16 293.99 174.29 
M 289.25 180.97 287.13 184.27 
M 281.14 193.57 278.98 196.49 
M 352.44 97.75 342.43 111.66 327.75 133.49 
M 325.24 137.33 321.73 143.04 316.81 152.15 
M 314.78 155.71 312.63 159.2 
M 307.76 165.56 302.35 171.29 
M 299.7 174.3 295.95 179.18 290.42 187.36 
M 286.33 193.44 282.1 199.04 
M 356.46 99.63 348.56 111.03 332.27 135.29 327.46 142.87 322.33 151.69 
M 320.3 155.18 317.09 160.45 313.55 165.42 
M 305.54 174.47 302.97 177.61 
M 298.16 184.14 295.9 187.35 
M 293.72 190.46 291.58 193.43 
M 360.57 101.55 349.2 118.97 335.54 139.18 327 153.32 320.48 163.52 318.18 166.88 315.69 170.09 311.66 174.73 
M 308.98 177.87 306.39 181.09 
M 301.56 187.49 296.97 193.56 
M 364.1 104.64 352.54 122.95 341.39 139.29 332.74 153.62 329.46 158.5 
M 327.24 161.8 322.84 168.5 
M 320.47 171.8 315.26 178.2 
M 367.45 108.29 358.74 122.72 354.54 129.17 
M 351.64 133.35 347.4 139.4 344.93 143.29 338.53 154.13 330.72 165.38 
M 328.55 168.65 326.33 171.96 
M 318.81 181.73 316.08 184.94 
M 313.38 188.13 310.78 191.25 
M 370.88 112.04 362.3 126.9 359.6 131.17 351.1 143.37 344.39 154.56 342.15 157.93 338.64 162.73 
M 336.37 165.91 334.15 169.09 
M 331.95 172.28 328.54 177.11 324.82 181.99 
M 371.33 121.26 365.93 131.08 363.29 135.27 354.95 147.19 348.02 158.21 337.48 172.83 
M 335.22 175.98 332.9 179.11 
M 330.47 182.26 327.89 185.46 
M 371.33 131.82 369.41 135.22 365.42 141.25 
M 362.65 145.11 347.8 166.71 
M 343.06 173.33 340.73 176.54 
M 336 182.75 333.49 185.83 
M 371.33 141.17 370.03 143.17 362.1 154.06 346.34 176.87 
M 371.33 149.22 365.36 157.26 357.81 167.85 349.6 180.21 
M 371.33 156.83 361.99 169.11 
M 359.51 172.67 354.96 179.86 
M 371.33 164.24 366.14 170.49 362.37 175.72 
M 180.39 75.59 181.62 73.64 182.97 69.19 184.39 65.41 187.46 61.17 190.54 56.34 192.37 54.75 193.51 52.38 197.59 46.05 199.97 45.63 201.48 44.13 207.47 37.22 208.52 36.43 215.37 44.55 216.38 47.05 220.17 52.28 221.33 53.57 223.12 55.04 225.16 55.82 229.29 58.95 232.17 61.52 236.46 66.04 241.34 70.73 243.32 72.14 245.57 74.76 247.17 76.29 250.82 77.89 252.85 78.56 253.51 78.99 
M 256.76 79.43 256.76 79.43 
M 184.67 75.16 185.79 73.39 186.59 70.93 187.15 68.56 188.27 66.97 189.78 65.45 190.91 63.13 192.48 60.99 193.99 56.06 199.97 49.76 202.35 47.85 204.64 46.49 206.96 44.09 
M 188.95 74.73 190.36 72.73 191.09 70.45 192.55 68.01 193.19 66.49 193.4 64.79 194.24 61.94 195.55 59.61 197.18 57.18 198.62 54.12 200.85 53.14 
M 193.24 74.39 194.48 72.5 195.41 70.12 196.03 68.02 196.29 65.32 197.03 62.3 198.58 59.66 200.79 57.78 202.08 55.9 203.74 55.27 204.69 53.66 207.19 52.21 210.66 49.86 
M 197.53 74.08 198.96 72.75 200.6 67.01 200.58 64.12 201.85 62.17 203.58 60.86 204.71 59.4 206 58.15 207.15 56.44 209.52 53.45 212.66 51.5 216.13 49.91 
M 201.83 73.94 203.63 72.47 204.59 69.93 204.88 67.22 205.69 65.56 207.43 64.08 208.08 62.05 209.29 60.02 
M 206.13 73.94 208.16 71.95 208.83 69.57 209.54 67.71 210.89 66.86 213.51 62.15 215.53 60.15 220.52 57.24 
M 210.43 74.04 212.8 71.77 213.37 67.92 214.4 65.71 216.13 63.16 218.45 61.5 
M 214.72 74.38 216.49 72.63 217.49 67.29 219.3 65.13 
M 219.01 74.74 220.8 72.84 221.85 70.67 223.44 69.81 
M 223.28 75.27 227.21 72.69 229.12 70.5 
M 227.55 75.79 230.19 75.28 231.73 73.23 
M 231.81 76.33 234.44 75.37 236.49 72.89 239.01 71.74 
M 236.08 76.87 239.03 75.2 241.96 74.6 
M 240.36 77.37 242.67 76.9 243.68 75.18 
M 244.63 77.85 246.31 77.83 
M 248.9 78.37 248.91 78.37 
M 253.17 78.94 253.17 78.94 
M 138.84 149.84 141.8 149.73 144.43 149.12 147.2 149.26 150.47 148.76 153.35 147.66 155.1 146.36 157.65 145.36 160.19 145.1 162.53 144.55 165.07 143.18 168.59 141.92 170.94 140.37 173.65 139.47 176.07 139.3 178.16 139.47 208.18 132.79 211.13 135.04 215.66 138.16 217.87 140.22 226.32 150.56 227.35 152.75 227.29 154.57 228.16 157.32 228.41 160.05 226.99 165.55 225.92 167.94 222.37 171.22 221.9 174.17 220.32 176.24 218.1 177.61 215.43 178.54 213.29 180 211.26 181.6 210.16 184.12 207.66 185.19 205.44 186.47 203.66 188.19 199.99 189.76 178.04 185.85 176.48 183.52 171.52 179.2 169.28 178.47 162.09 175.47 159.98 175.11 157.58 175.18 155.8 173.87 153.28 172.46 150.93 171.32 147.75 170.38 144.77 168.8 141.93 167.1 138.84 164.35 
M 141.77 150.92 144.33 150.53 150.02 150.22 152.99 149.44 154.97 148.13 160.87 146.46 165.69 145.48 168.2 144.24 170.98 143.47 175.98 143.02 178.98 143.34 182.06 142.12 
M 144.49 152.05 150.09 151.98 152.77 151.71 157.89 149.46 163.38 148.72 166.12 148.54 168.6 147.51 174.84 146.43 177.5 146.51 180.46 146.32 183.1 145.84 186 144.83 188.12 143.6 190.31 143.94 192.71 143.69 195.52 144.61 197.67 144.71 
M 147.36 153.79 150.46 154.27 153.08 154.06 157.87 152.08 160.74 151.74 164 151.67 168.84 150.94 172.01 150.01 175.39 149.95 178.33 150.36 183.85 149.8 186.3 148.4 189.09 147.37 
M 141.86 155.37 144.71 155.32 147.5 155.63 150.29 156.25 153.28 156.16 155.57 155.6 157.82 155.47 160.76 155.61 169.04 154.09 175.5 153.68 178.62 154.16 181.16 154.23 183.49 153.71 186.19 153.33 
M 138.84 156.3 147.54 157.27 150.64 157.92 153.34 158.14 155.74 157.98 160.74 159.11 163.23 159.02 165.74 157.9 168.49 157.21 171.1 157.24 174.51 158.71 177.57 159.48 180.67 159.49 183.28 157.95 186.14 157.35 189.64 157.28 
M 144.82 158.73 147.47 159.09 150.67 159.85 153.37 160.22 155.72 160.27 158.44 161.32 163.27 162.28 165.75 161.13 168.64 160.41 171.35 161.14 174.09 162.59 177.33 163.68 180.15 163.91 182.86 163.75 186.58 163.11 
M 147.51 161.01 150.67 162.06 158.53 163.62 160.69 164.23 163.83 164.69 168.99 164.57 171.67 164.8 173.92 165.56 177.74 166.19 180.79 166.33 183.28 167.7 186.28 167.86 189.12 168.88 194.96 170.66 199.59 171.6 201.18 171.37 202.5 171.81 204.73 172.99 
M 141.87 161.41 144.69 162.13 150.65 164.27 156.01 165.66 158.49 166.08 160.78 166.9 166.85 167.49 168.84 168.11 171.79 168.5 174.48 168.8 177.45 168.84 179.72 169.87 182.23 171.72 185.47 173.56 
M 144.74 164.12 147.63 165.35 150.74 166.4 153.63 167.1 155.91 168.06 158.26 168.68 160.38 169.72 163.03 170.47 166.04 170.83 169.15 171.44 171.96 172.43 174.9 172.25 181.02 175.23 184.6 176.62 187.95 177.52 
M 141.74 164.79 147.57 167.57 150.59 168.29 153.32 169.37 155.74 170.42 157.71 171.6 160.16 172.23 165.15 173.98 171.37 175.02 173.2 176.67 175.03 178.01 177.42 178.9 180.03 179.82 183.87 180.85 187.01 182.36 190.25 181.94 191.81 183.1 
M 151.75 201.66 154.34 205.05 156.3 208.02 159.12 213.39 159.6 215.9 161.45 220.9 163.25 223.1 166.68 228.25 168.38 229.77 169.27 232.29 171.84 238.16 167.6 243.57 165.54 245.16 163.8 247.07 162.72 249.63 161.4 251.93 155.5 256.9 153.96 259 152.77 261.44 150.65 262.95 148.72 264.62 146.43 265.92 144.86 267.95 143.63 270.32 142.05 271.11 130.71 273.56 132.68 267.68 133.19 264.53 132.77 259.87 133.46 257.3 133.51 252.89 133.92 249.61 134.95 247.9 137.08 242.27 137.48 234.37 136.72 231.86 137.9 229.36 138.6 226.62 138.88 224.02 139.39 222.08 139.46 219.02 140.14 216.19 141.12 213.38 142.18 207.81 142.45 205.71 142.77 200.35 142.2 196.75 
M 150.22 200.87 152.47 204.35 154.08 207.17 155.31 210.28 156.98 212.81 156.9 218.51 159.21 223.29 
M 148.69 200.09 150.62 203.45 151.86 206.46 152.68 209.63 154.53 215.47 155.31 221.14 156 223.66 157.4 225.75 158.13 227.57 158.6 230.35 159.54 232.23 158.76 235.36 159.33 237.94 160.23 240.62 160.59 243.5 162.48 244.92 164.05 246.77 
M 147.16 199.3 148.63 202.75 149.56 205.69 151.05 211.78 151.91 218 151.88 219.95 152.53 225.54 153.47 227.81 153.93 229.88 154.36 233.69 154.87 235.76 155.36 240.39 157.45 243.67 
M 145.63 198.51 147.54 205.2 147.75 207.58 148.87 213.01 149.08 215.83 148.37 218.7 148.25 222 147.81 224.78 148.65 227.37 150.13 229.96 149.69 233.11 149.65 235.92 148.28 238.5 149.52 243.48 150.69 245.82 151.36 249.13 151.14 251.1 
M 144.1 197.72 144.94 201.36 145.01 204.19 145.63 206.57 145.32 209.11 145.26 211.84 144.79 214.8 143.86 218.03 143.75 220.24 143.11 222.95 143.34 226.04 144.05 228.28 143.94 230.67 143.36 233.64 142.41 236.44 141.87 239.25 142.89 242.55 142.94 245.73 142.58 247.96 143.27 256.42 143.2 258.82 142.21 260.68 
M 323.59 197.8 334.41 209.07 336.28 211.79 342.77 223.47 342.06 226.17 341.04 228.55 337.56 231.96 335.86 233.91 333.84 235.46 331.44 236.39 329.53 238.08 327.35 239.53 322.17 239.33 320.06 240.15 318.19 241.22 315.42 241.93 313.58 243.68 310.76 243.76 305.36 240.56 300.02 238.96 297.36 238.77 293.18 240.15 290.47 239.91 287.8 239.42 284.82 238.53 282.52 238.24 266.22 226.99 264.74 224.79 263.56 222.28 261.21 219.36 256.76 211.81 
M 319.46 198.99 324.78 204.78 326.98 206.72 328.69 209.33 330.83 211.92 
M 315.33 200.19 317.92 203.17 322.61 207.86 324.32 210.3 326.39 212.58 328.38 215.29 336.46 223.01 338.14 225.47 
M 311.2 201.42 315.92 206.84 317.98 208.82 319.37 211.21 321.87 213.44 325.75 218.99 
M 307.09 202.68 313.73 209.77 315.62 211.51 317.69 214.57 318.71 216.6 320.67 219.26 323.41 222.27 
M 302.96 203.9 311.93 213.17 313.09 215.76 314.89 218.72 316.36 220.58 321.26 225.52 322.72 228.11 324.76 230.39 326.07 232.78 
M 298.82 205.05 306.08 212.36 309.53 216.63 310.74 219.16 311.69 221.84 313.73 223.84 318.8 227.8 321.48 230.22 322.45 232.93 323.98 236 
M 294.67 206.18 298.61 211.8 306.7 220.44 308.25 222.53 309.81 225.21 312.38 228.14 314.95 230.08 316.02 231.2 320.96 237.89 
M 290.46 207.05 292.69 210.71 294.39 212.92 298.78 217.67 301.1 219.59 305.39 226.39 308.95 231.54 312.84 236.06 
M 286.24 207.92 290.67 213.94 294.5 218.28 295.9 220.57 298.18 222.67 298.37 225.95 299.64 227.58 302.21 230.3 304.42 232.31 305.54 234.51 
M 281.99 208.56 286.12 214.86 287.98 217.25 289.96 219.27 291.48 221.84 294.49 226 294.92 228.82 296.39 230.83 
M 277.73 209.14 281.47 215.24 283.74 217.85 286.37 220.29 288.85 225.65 
M 273.46 209.67 275.7 213.02 277.71 215.6 279.28 218.06 281.43 220.23 282.91 222.6 284.48 226.22 
M 269.18 210.15 271.7 213.38 273.06 215.8 274.96 218.49 278.01 223.49 
M 264.91 210.67 266.75 214.45 268.41 217.29 270.65 219.25 271.71 221.5 273.99 224.58 275.93 226.1 
M 260.65 211.26 264.68 218.38 266.63 220.61 268.06 223.16 
M 371.33 112.52 373.17 110.67 378.47 104.29 380.09 102.03 381.9 100 383.82 97.93 387.85 94.7 389.26 92.63 390.44 90.28 392.23 88.3 394.26 86.73 396.51 84.46 400.36 79.58 402.04 78.1 403.93 76.73 406.63 72.57 407.97 70.09 410.18 68.41 413.23 67.36 416.42 66.72 426.12 61.09 427.84 60.71 431.49 56.54 434.5 55.91 436.92 54.54 440.46 53.74 443.33 52.14 445 50.44 448 49.19 453.23 47.91 455.56 48.11 458.1 47.17 464.42 47.49 467.78 47.45 470.27 46.51 471.99 45.04 478.25 41.42 480.77 40.3 483.26 41.64 484.58 42.02 489.34 53.11 489.34 55.51 490 58.57 488.98 65.85 488.52 71.43 488.04 73.97 487.09 76.21 486.87 79.36 485.9 81.77 484.36 83.61 482.62 85.25 482.32 88.37 481.01 90.67 479.04 92.31 477.22 94.1 472.34 100.05 470.87 102.22 467.16 105.81 464.97 107.27 463.83 109.79 461.48 111.09 458.76 111.98 456.66 113.49 454.08 114.52 452.27 116.32 450.01 117.67 448.42 119.69 447.42 122.26 445.3 123.71 442.73 124.71 439.29 128.42 437.36 130.06 435.79 132.05 432.55 132.23 430.5 133.58 427.84 134.32 426.06 135.94 422.97 136.26 419.64 136.32 416.8 136.88 414.75 138.32 413.71 140.82 409.41 143.6 404.74 146 406.43 146.86 408.26 147.21 410.48 147.95 414.47 148.97 420.35 152.13 424.02 154.5 426.3 155.48 429.07 156.95 431.01 157.6 435.33 159.41 437.44 160.49 438.98 161 443.2 163.16 445.94 164.87 455.04 171.13 463.72 178.12 474.5 188.25 476.52 190.37 479.49 194.93 481.65 198.68 484.91 207.34 486.31 210.27 487.28 212.76 489.14 219.06 489.08 221.28 488.51 222.99 488.37 225.13 488.57 227.76 489.32 230.94 489.55 233.6 489.41 235.89 489.8 238.03 487.64 249.94 484.87 248.99 483.27 247.76 476.59 247.55 470.93 244.15 468.32 243.4 462.57 244.54 460.62 244.23 457.9 243.2 454.79 241.16 451.33 239.45 448.6 238.49 445.99 237.01 442.05 236.47 438.61 235.6 436.48 234.01 434.07 232.9 431.01 230.64 428.45 230.13 427.41 228.39 422.51 226.3 420.43 224.93 417.73 223.63 412.86 220.12 410.79 217.85 404.7 212.44 402.57 211.06 400.23 208.98 399.25 206.39 397.93 203.99 396.5 202.32 392.85 198.77 388.62 193.93 386.91 191.35 385.44 189.56 384.23 187.37 380.12 182.53 371.33 169.99 
M 371.33 115.34 373.27 113.89 375.29 111.91 379.06 107.95 380.89 105.47 382.78 103.55 387.35 100.51 392.53 95.41 398.27 89.15 400.97 86.9 404.02 84.76 405.69 83.26 407.64 81.99 411.63 78.94 413.51 77.85 415.02 76.16 417.16 74.72 419.36 73.78 421.77 72.04 423.61 69.86 428.56 66.96 431.11 66.27 433.6 66.15 436.07 64.99 438.77 63.97 
M 375.47 115.48 377.59 113.87 381.88 109.8 386.34 105.89 388.7 104.99 392.93 101.78 396.04 98.48 398.03 96.86 399.98 94.41 403.23 92.32 410.25 88.72 411.98 87.46 417.82 83.78 418.98 82.55 420.97 81.49 424.88 80.05 428.09 78.45 430.49 76.23 432.8 74.84 434.74 74.86 436.61 74.64 438.14 73.53 441.14 72.66 444.37 72.2 446.64 70.26 
M 378.13 116.85 382.47 114.12 387 110.18 391.09 107.62 393.68 105.6 399.53 101.9 404.1 98.4 407.03 96.75 409.78 95.32 412.39 94.5 416.08 92.48 425.3 88.13 428.76 87.01 430.77 85.61 433.49 84.75 436.48 84.93 437.98 84.53 439.51 82.79 442.08 82.14 
M 376.62 121.16 381.34 118.69 389.78 113.02 394.44 110.58 397.27 108.54 399.95 107.3 402.13 106.57 403.98 105.12 408.31 103.03 410.79 101.42 413.35 100.73 415.86 99.49 420.26 98.3 425.74 97.63 427.36 96.2 431.19 94.53 433.27 93.32 436.07 92.85 439.18 93.11 443.28 93.77 445.56 92.77 447.22 92.74 448.54 92.12 450.81 91.86 453.86 90.64 456.89 90.33 459.67 91.31 461.15 90.99 464.37 89.46 
M 371.33 126.59 374.35 125.7 379.48 123.12 382.07 122.16 384.46 120.95 389.1 118.09 393.61 116.14 400.95 112.27 406.19 111.15 410.38 108.87 413.45 107.63 418.64 106.13 420.71 104.89 424.62 105.18 427.76 104.37 432.03 104.83 438.55 104.08 441.55 103.11 444.79 102.51 447.77 102.67 449.43 102.56 450.66 101.75 453.04 101.46 461.02 101.3 465.02 100.66 466.86 101.64 
M 376.96 127.98 385.53 125.08 387.79 123.53 392.66 121.33 397.66 120.32 402.73 118.56 405.64 117.73 408.55 116.51 410.48 115.88 412.45 114.33 415.29 113.61 417.95 113.78 420.49 112.57 422.76 112.1 424.46 112.48 426.88 111.75 430.36 112 434.03 111.87 436.99 110.97 439.77 110.52 443.07 111.04 444.63 111 
M 374.16 132.2 377.29 131.57 380.18 130.64 383.39 129.99 386.03 129.16 388.38 128.35 392.42 126.22 398.1 125.38 401.11 125.31 405.68 123.09 409.6 121.87 412.75 121.39 415.18 121.62 416.68 121.4 418.06 122.26 421.85 121.23 424.54 120.91 426.71 121.53 
M 380.83 134.35 383.84 134.11 386.62 133.7 388.91 132.95 390.47 131.76 393 130.68 395.14 131.02 398.2 130.35 400.98 130.12 404.02 129.47 406.37 129.33 408.17 128.94 411.4 128.95 414.33 130 416.96 130.06 419.7 130.49 425.4 132.51 429.32 132.33 
M 371.33 137.84 374.73 138.71 377.89 138.24 380.55 138.08 383.37 138.23 386.21 138.03 388.5 138.23 393.45 137.37 399.49 137.37 
M 378.54 142.41 380.9 142.7 383.26 143.4 386.08 143.43 388.64 143.08 394.93 144.36 398.17 144.71 
M 377.82 145.68 380.52 146.83 386.05 148.2 391.79 149.37 394.87 149.4 400.55 150.03 403.32 150.91 405.23 150.78 408.4 151 412.21 151.93 
M 380.22 150.31 386.39 152.59 388.67 153.88 391.68 154.65 394.41 154.76 395.95 156.23 400.51 156.98 402.96 156.52 407.41 156.98 410.95 157.16 414.2 157.75 
M 376.99 151.98 379.78 153.6 385.94 156.08 388.22 157.8 390.8 158.47 393.55 159.74 396.25 160.69 406.48 162.31 411.97 163.87 415.14 164.29 416.96 166.21 419.57 167.17 427.72 165.05 431.41 165.7 434.32 164.92 437.34 164.75 440.96 166.37 444.85 166.75 447.41 165.37 
M 376.72 155.19 381.92 157.55 386.85 161.07 390.06 163.03 393.44 163.79 395.85 165.04 397.63 165.37 399.39 164.93 401.71 165.68 408.49 168.76 410.82 169.3 413.6 170.78 417.84 174.31 420.36 174.19 426.17 174.7 428.63 175.07 430.29 175.86 432.55 176.03 435.68 176.6 437.63 177.47 441 177.4 443.75 178.38 447.18 179.15 450.52 178.73 452.74 178.86 
M 371.33 154.72 374.04 156.97 376.57 158.61 378.99 159.73 380.87 160.87 386.21 164.6 392.04 167.82 394.55 169.04 396.32 169.58 400.3 172.76 406.24 176.2 408.87 177.34 411.22 177.91 412.92 179.02 418.18 180.75 423.56 182.02 
M 371.33 157.53 373.93 160.04 380.61 164.81 385.75 168.02 393.02 173.18 394.93 174.75 396.48 176.92 398.74 178.7 400.94 180.11 406.53 181.43 409.69 182.65 412.76 184.09 415.24 186.26 419.55 188.12 423.2 189.08 426.04 190.02 428.15 191.1 430.53 192.8 435.58 195.08 438.6 195.44 441.31 195.24 446.05 196.49 447.75 197.58 450.3 198.22 452.78 198.41 
M 375.99 164.77 383.01 170.09 387.51 174.38 389.96 176.11 393.32 179.78 395.54 181.74 398.22 182.95 400.54 184.74 405.73 186.71 408.2 187.91 413.5 192.45 415.49 194.54 420.14 196.75 422.06 196.72 425.08 197.59 428.63 200.45 433.32 203.16 436.56 203.72 439.4 204.57 444.8 207.09 
M 371.33 163.16 378.4 169.64 380.32 171.85 384.61 175.95 386.59 178 388.16 180.52 390.25 182.41 396.57 187.46 398.41 189.51 401.04 191.36 405.22 193.05 412.37 199.8 414.76 200.94 417.66 202 421.93 205.48 423.7 207.66 426.7 208.17 428.3 209.56 431.55 211.58 437.45 212.49 442.68 214.25 444.82 215.16 447.07 216.6 
M 373.85 168.28 375.91 170.67 377.77 173.27 381.51 177.8 383.03 180.12 384.71 182.29 394.03 193.02 396.46 194.63 398.45 196.53 400.71 197.94 402.36 199.46 404.3 202.04 406.27 203.35 408.74 204.45 411.44 206.44 413.87 208.01 416.29 209.98 418.58 212.32 420.12 214.97 421.97 215.8 423.63 217.69 425.46 218.29 430.45 220.47 432.87 221.16 435.86 222.44 437.91 222.57 441.86 225.62 444.24 226.74 446.85 226.91 
M 38.47 127.38 40.24 125.67 43.03 123.85 47.63 121.84 53.13 120.12 58.78 118.56 65.12 116.25 72.51 113.09 79.65 109.77 86.65 105.85 93.28 101.85 99.8 98.29 111.67 92.21 122.76 87.59 127.42 85.91 132.71 84.27 133.94 89.93 134.3 95.56 135.33 101.25 136.66 106.97 137.45 112.64 138.02 118.29 137.77 123.86 137.94 129.48 136 146.09 134.24 151.53 133.1 157.02 129.75 167.92 127.23 178.88 125.62 184.33 123.1 189.66 112.44 189.19 104.51 188.2 97.35 186.65 90.82 184.65 84.69 182.44 79.33 179.71 74.54 176.18 69.98 171.96 65.61 167.23 57.07 156.48 
M 53.09 151.59 48.93 146.13 
M 114.78 118.12 114.75 122.97 113.53 127.57 111.04 136.05 109.09 139.84 106.84 146.83 106.48 149.97 106.72 153.22 107.31 156.65 107.68 160.47 107.33 164.82 94.74 165.27 89.46 165.16 84.35 164.59 79.25 163.62 74.64 161.85 70.5 158.93 
M 56.01 155.59 50.36 147.87 43.46 139.87 37.2 131.34 36.31 129.47 37.25 127.63 39.38 127.2 41.17 128.4 46.35 137.6 48.49 141.17 51.96 146.4 57.52 156.15 
M 57.08 156.86 46.62 155.3 37.94 154.92 33.51 154.51 31.36 154.11 30 152.4 30.4 150.27 32.53 149.38 47.54 152.65 51.4 154.11 57.24 155.96 
M 83.01 130.19 81.26 127.74 80.4 124.85 80.52 121.84 81.62 119.03 83.56 116.73 86.15 115.19 89.1 114.57 92.09 114.94 94.8 116.27 96.93 118.4 98.26 121.1 98.63 124.1 98.01 127.05 96.47 129.64 94.17 131.58 91.36 132.68 88.35 132.8 85.46 131.94 83.01 130.19 
M 95.44 119.46 96.5 121.63 96.8 124.02 96.31 126.38 95.07 128.45 93.23 130.01 90.98 130.89 88.58 130.99 86.26 130.3 84.3 128.9 
M 86.25 125.66 85.55 124.68 85.2 123.53 85.25 122.32 85.69 121.2 86.47 120.28 87.5 119.66 88.68 119.41 89.88 119.56 90.96 120.09 91.82 120.94 92.35 122.03 92.5 123.22 92.25 124.4 91.63 125.44 90.71 126.22 89.59 126.66 88.38 126.71 87.23 126.36 86.25 125.66 
M 85.72 124.91 87.06 126.25 
M 87.46 124.32 89.74 126.6 
M 86.91 121.45 91.24 125.77 
M 88.07 120.28 92.23 124.44 
M 89.96 119.85 92.38 122.27 
M 59.63 159.66 63.1 163.12 
M 40.78 125.32 44.31 128.85 
M 44.03 123.41 48.91 128.29 
M 47.63 121.84 50.59 124.81 
M 51.56 120.61 55.37 124.43 
M 55.56 119.45 58.56 122.45 
M 59.56 118.28 64.51 123.23 
M 63.34 116.9 66.02 119.58 
M 67.03 115.44 71.33 119.74 
M 70.65 113.89 75.69 118.93 
M 74.22 112.3 78.83 116.91 
M 77.74 110.66 81.21 114.12 
M 81.17 108.92 84.21 111.96 
M 84.48 107.07 87.54 110.14 
M 87.75 105.18 91.71 109.13 
M 90.98 103.24 95.15 107.42 
M 94.23 101.33 98.3 105.4 
M 97.57 99.51 102.51 104.45 
M 100.92 97.7 103.88 100.66 
M 104.31 95.92 108.96 100.58 
M 107.72 94.18 111.83 98.28 
M 111.17 92.46 114.43 95.72 
M 114.75 90.88 119.46 95.59 
M 118.39 89.35 121.45 92.41 
M 122.06 87.87 125.34 91.14 
M 125.84 86.48 129.01 89.65 
M 129.71 85.19 133.64 89.12 
M 121.58 116.62 121.62 117.7 121.31 119.87 120.58 121.73 120.28 122.97 
M 114.78 151.79 114.04 152.37 113.12 152.52 109.04 151.23 
M 96.91 141.58 99.77 143.28 100.52 143.46 101.42 143.43 102.23 143.89 
M 118.5 127.21 115.21 125.52 114.36 124.78 
M 94.48 158.84 93.71 158.68 93.2 158.16 91.52 153.63 90.99 152.62 
M 97.28 139.67 98.08 139.91 98.96 140.97 100.68 142.48 102.46 143.12 103.33 143.27 
M 90.63 156.46 91 154.44 90.62 153.09 89.84 151.83 89.14 151.03 87.73 148.55 87.18 147.97 85.76 146.92 
M 84.87 180.11 85.44 178.8 86 177.97 86.18 177.94 86.51 178.21 
M 123.79 121.01 122.26 125.03 121.57 126.01 121.1 126.21 
M 127.63 115.46 127.17 117.03 126.15 118.74 125.28 121.69 
M 131.23 115.55 129.64 119.24 128.36 121.64 128.06 122.71 127.97 124.07 127.62 125.81 
M 65.47 138.24 66.13 138.4 67.22 139.04 67.79 139.09 68.36 138.78 68.99 138.01 
M 60.04 158.66 60.35 157.25 60.69 156.43 62.13 154.11 62.66 152.24 62.63 151.78 62.2 150.84 61.1 149.56 
M 134.41 125.27 134.45 126.53 134.73 127.03 135.63 127.78 136 128.62 
M 128.42 173.47 125.45 175.87 123.79 178.27 
M 61.51 130.35 61.11 129.7 60.98 128.36 61.11 127.55 
M 54.57 125.77 59.22 120.05 59.79 119 59.92 118.15 
M 83.23 181.69 84.91 179.08 85.58 177.68 
M 89.7 114.64 90.19 112.64 91.38 110.44 
M 109.57 93.26 112.11 94.49 113.02 95.43 114.08 97.77 115.09 99.52 115.54 101.36 
M 48.5 125.87 49.67 124.93 51.09 122.09 52.46 120.33 
M 95.27 176.01 93.82 175.85 93.33 175.93 89.88 178.38 88.61 179.12 87.69 179.4 
M 102.54 123.21 101.7 124.34 100.83 126.33 100.79 126.81 101.49 128.03 101.83 128.98 
M 108.21 117 112.08 116.83 113.21 116.5 
M 104.09 161.15 103.03 160.66 100.43 159.06 99.58 158.85 96.67 158.84 93.55 157.87 
M 91.06 183.16 90.26 182.75 88.58 182.28 87.79 181.86 86.72 180.99 86.45 180.17 86.4 178.41 
M 57.92 145.63 64.04 143 
M 54.08 136.88 54.63 136.23 56.34 135.97 
M 108.32 102.2 108.94 101.97 109.61 102.12 112.45 103.81 113.33 104.12 113.89 104.15 
M 105.35 145.78 105.73 145.69 106.55 144.88 108.09 144 109.53 142.85 
M 117.3 151.7 115.92 152.85 114.99 153.06 113.85 153.05 112.45 152.47 
M 113.13 113.17 115.12 111.93 117.51 111.11 
M 130.57 100.06 130.84 99.3 131.46 99 134.91 98.91 
M 130.49 99.19 130.85 98.89 131.46 98.72 134.89 98.8 
M 98.71 154.5 96.64 154.38 95.78 154.1 93.85 152.27 92.39 151.19 90.64 149.03 90.09 148.05 89.28 147.17 88.27 146.6 87.33 146.3 
M 104.66 182.86 107.65 179.83 109.83 178.19 110.79 176.86 111.74 176.11 
M 83.19 181.67 84.64 179.45 85.56 177.57 
M 100.15 178.48 99.5 176.69 97.52 174.29 96.66 173.62 
M 78.42 113.01 80.14 112.45 81.9 112.7 
M 68.14 161.37 67.87 160.62 67.98 160.09 68.24 159.59 69.37 158.49 69.65 157.59 
M 73.16 135.78 74.49 135.61 76.36 134.83 79.42 133.06 80.89 131.88 
M 118.04 179.22 116.36 177.44 114.79 176.06 113.86 174.88 112 173.56 
M 104.69 188.22 106.3 184.85 108.41 181.15 109.12 180.11 110.18 179.08 110.76 177.47 
M 114.39 152.97 113 152.71 108.65 151.08 
M 120.43 96.21 119.51 98.35 118.72 101.2 117.75 103.11 117.24 103.72 116.74 103.76 116.23 103.54 
M 80.59 127.26 79.6 127.33 77.43 127.94 76.41 128.38 
M 111.36 92.36 111.74 92.61 
M 90.67 163.25 91.89 161.99 92.56 160.87 92.39 157.16 91.62 154.1 
M 131.41 142.94 131.35 139.81 130.89 137.88 130.89 136.67 131.22 135.36 131.79 135.13 
M 119.24 144.61 114.16 143.28 112.74 142.65 111.2 141.5 110.4 139.98 
M 115.67 90.49 113.16 92.02 112.78 92.3 112.52 92.78 113.66 96.31 114.44 98.01 
M 100.89 183.8 101.12 181.62 101.99 178.39 101.35 177.38 100.23 176.55 
M 82.94 143.7 82.91 144.94 83.37 145.5 
M 77.72 161.5 76.21 161.49 73.77 160.31 70.03 159.93 69.48 159.66 69.43 159.39 
M 127.63 158.14 125.77 159.16 122.67 163.33 122.05 163.78 121.54 163.74 
M 93.12 155.06 92.58 153.73 90.35 150.48 89.4 148.49 88.67 147.64 87.86 147.13 84.78 145.92 
M 63 139.7 63.89 139.99 64.37 139.96 
M 86.42 171.66 86.28 169.41 85.29 164.89 84.94 163.89 
M 56.99 135.7 58.07 135.07 58.76 134.33 58.94 133.35 58.76 132.3 58.83 131.63 
M 118.69 91.17 116.85 91.55 115.9 92.13 114.83 93.44 114.65 94.06 114.57 95.54 114.69 96.48 115.04 97.42 116.37 99.71 116.74 101.14 
M 111.48 163.55 109.66 162.84 107 160.88 103.29 158.88 100.72 156.7 99.25 155.94 
M 77.24 130.48 77.81 129.6 77.8 129.02 77.43 128.75 76.39 128.88 
M 81.45 109.23 79.78 110.58 77.57 111.19 76.72 111.7 
M 104.2 158.21 102.54 156.73 101.14 154.63 100.09 154.31 96.52 153.99 95.65 153.69 94.99 153.14 
M 68.91 148.22 67.75 147.78 67.15 146.99 67.3 146.19 68.19 145.87 
M 111.69 152.75 110.38 151.77 108.31 150.94 107.7 150.3 
M 123.37 171.17 122.32 173.16 121.51 174.07 120.96 174.31 120.37 174.3 119.81 174.21 119.37 173.88 
M 110.98 107.49 110.83 105.49 111.07 104.48 111.31 104.18 111.87 103.99 113.56 104.2 
M 115.55 168.94 114.1 169.05 113.49 168.92 111.68 168.09 109.97 167.75 108.53 167.11 
M 129.87 116.79 127.84 121.1 127.23 123.76 126.6 125.66 125.77 126.76 
M 103.91 147.34 103.23 146.74 101.11 146.71 
M 95.44 155.91 94.28 154.64 93.42 153.08 91.59 151.06 89.33 147.63 88.46 146.96 85.87 146 
M 70.81 172.73 70.75 171.96 
M 99.97 111.72 97.77 112.16 96.66 112.21 95.9 112.02 95.07 111.33 94.14 109.56 92.15 107.91 
M 52.39 127.6 53.75 127.23 54.4 126.89 54.91 126.35 55.99 124.61 59.27 120.42 59.66 119.86 59.97 118.89 
M 71.61 121.52 70.94 121.41 70.47 121.05 69.46 119.89 69.29 119.14 
M 83.15 113.12 83.61 112.43 83.6 111.4 82.77 110.81 82.39 110.82 82.23 111.05 
M 92.99 133.34 96.06 131.11 96.93 129.17 97.43 128.41 98.11 127.72 98.91 127.54 
M 57.07 156.48 57.62 157.27 
M 54.5 153.52 54.51 154.08 54.92 154.11 
M 52.24 150.41 51.98 150.94 51.88 151.6 52.27 151.37 52.88 151.31 
M 50.02 147.46 49.47 148.23 49.26 149.11 49.76 148.66 50.77 148.41 
M 47.65 144.72 46.97 145.53 46.64 146.63 47.26 145.96 48.42 145.56 
M 45.22 142.02 44.46 142.83 44.01 144.15 44.75 143.25 45.91 142.79 
M 42.92 139.17 41.96 140.12 41.39 141.66 42.25 140.55 43.54 139.98 
M 40.73 136.21 39.45 137.42 38.76 139.18 39.74 137.84 41.34 137.09 
M 38.65 133.16 36.95 134.71 36.14 136.7 37.24 135.14 39.33 134.1 
M 36.61 130.1 34.44 132.01 33.52 134.21 34.73 132.44 37.14 131.2 
M 57.14 156.56 57.98 156.72 
M 50.33 153.71 50.8 153.37 50.68 153.84 
M 46.8 152.48 47.64 151.78 47.29 152.59 
M 43.19 151.7 43.42 151.15 44.47 150.18 43.93 151.25 43.95 151.86 
M 39.64 150.93 40.06 149.81 41.31 148.59 40.57 149.91 40.55 151.12 
M 36.13 150.15 36.7 148.47 38.14 146.99 37.2 148.57 37.13 150.39 
M 32.61 149.4 33.33 147.13 34.98 145.4 33.84 147.23 33.69 149.61 
M 36.56 154.78 43.49 159.43 51.58 164.01 60.6 168.18 69.98 171.96 
M 52.82 164.6 53.06 162.89 
M 43.1 159.18 43.72 157.88 
M 134.03 91.27 134.2 91.44 
M 133.53 83.89 142.88 93.24 
M 138.55 82.02 148.84 92.32 
M 143.78 80.37 152.28 88.88 
M 149.59 79.3 155.82 85.53 
M 155.71 78.54 162.92 85.75 
M 161.99 77.94 170.81 86.76 
M 168.09 77.15 176.8 85.86 
M 174.19 76.37 181.79 83.96 
M 180.3 75.6 187.01 82.31 
M 186.56 74.97 196.32 84.73 
M 192.89 74.42 199.42 80.95 
M 199.31 73.96 207.41 82.05 
M 206.18 73.94 212.42 80.18 
M 213.4 74.28 219.14 80.02 
M 220.99 74.98 229.78 83.77 
M 228.85 75.96 238.42 85.53 
M 236.73 76.95 246.48 86.71 
M 244.49 77.84 252.52 85.86 
M 252.38 78.84 262.58 89.04 
M 260.44 80.01 268.45 88.03 
M 268.5 81.2 275.21 87.91 
M 276.23 82.04 281.64 87.44 
M 283.8 82.73 292.35 91.28 
M 291.54 83.58 300.07 92.11 
M 299.65 84.81 305.24 90.4 
M 308.21 86.49 317.78 96.06 
M 317.07 88.46 323.06 94.45 
M 325.97 90.48 335.01 99.52 
M 334.92 92.54 344.3 101.92 
M 344.3 95.04 351.63 102.37 
M 355.16 99.02 363.09 106.95 
M 134.43 164.92 135.97 168 
M 140.58 177.24 143.66 183.39 
M 145.2 186.47 146.74 189.55 
M 152.13 200.32 153.17 202.41 
M 137.69 165.43 141.54 173.13 
M 142.31 174.67 143.08 176.21 
M 147.7 185.44 149.24 188.52 
M 154.63 199.3 156.16 202.37 
M 141.23 166.48 143.97 171.96 
M 149.35 182.73 152.43 188.89 
M 157.82 199.66 159.36 202.74 
M 152.55 183.1 153.32 184.64 
M 161.78 201.57 162.55 203.11 
M 136.79 139.54 141.88 149.71 
M 137.28 134.49 140.54 141 
M 141.31 142.54 144.38 148.7 
M 137.91 129.73 142.92 139.75 
M 144.46 142.82 145.23 144.36 
M 164.47 182.84 165.24 184.38 
M 137.79 123.46 146.07 140.03 
M 137.97 117.8 139.22 120.31 
M 142.3 126.47 148.46 138.78 
M 168.05 177.97 168.47 178.8 
M 137.79 111.42 141.64 119.12 
M 146.26 128.35 151.64 139.13 
M 135.11 100.04 151.75 133.32 
M 134.07 91.94 152.63 129.05 
M 133.13 84.04 154.3 126.37 
M 135.67 83.09 157.61 126.96 
M 138.21 82.15 149.37 104.46 
M 150.91 107.54 160.91 127.55 
M 140.75 81.2 144.21 88.13 
M 151.91 103.52 156.53 112.75 
M 158.83 117.37 167.3 134.3 
M 143.38 80.44 146.84 87.37 
M 153.77 101.22 159.16 112 
M 163.01 119.69 166.85 127.39 
M 168.39 130.47 170.7 135.08 
M 146.14 79.94 148.83 85.32 
M 154.99 97.64 155.76 99.17 
M 156.53 100.71 161.92 111.49 
M 165.76 119.18 175.83 139.32 
M 148.9 79.43 150.05 81.74 
M 150.82 83.28 165.44 112.52 
M 169.29 120.22 178.84 139.32 
M 209.31 200.25 210.85 203.33 
M 151.65 78.92 152.04 79.69 
M 152.81 81.23 168.97 113.55 
M 175.13 125.86 181.55 138.72 
M 154.53 78.65 169.54 108.66 
M 178 125.59 184.26 138.11 
M 160.1 83.77 170.88 105.32 
M 181.65 126.87 186.97 137.51 
M 162.21 81.97 173.76 105.05 
M 178.37 114.29 180.68 118.91 
M 183.76 125.06 189.68 136.91 
M 163.52 78.56 170.45 92.41 
M 171.98 95.49 176.6 104.72 
M 180.45 112.42 183.53 118.58 
M 186.61 124.73 187.38 126.27 
M 188.92 129.35 192.39 136.31 
M 215.08 181.68 216.62 184.76 
M 165.96 77.42 169.43 84.35 
M 174.04 93.59 178.66 102.82 
M 182.51 110.52 186.36 118.21 
M 188.67 122.83 195.1 135.7 
M 217.91 181.32 218.68 182.86 
M 219.45 184.4 220.22 185.93 
M 231.76 209.02 232.53 210.56 
M 168.79 77.06 171.49 82.45 
M 176.1 91.68 181.49 102.46 
M 185.34 110.15 189.19 117.85 
M 190.73 120.93 192.26 124 
M 193.03 125.54 197.81 135.1 
M 221.51 182.49 222.28 184.03 
M 171.62 76.7 172.01 77.47 
M 178.16 89.78 185.09 103.63 
M 188.17 109.79 190.48 114.41 
M 192.02 117.48 200.52 134.5 
M 235.11 203.68 236.65 206.75 
M 178.69 84.8 188.69 104.81 
M 194.85 117.12 198.7 124.82 
M 201.01 129.44 203.23 133.89 
M 179.98 81.37 190.75 102.91 
M 195.37 112.15 199.99 121.38 
M 200.76 122.92 201.53 124.46 
M 203.84 129.08 205.94 133.29 
M 239.24 199.88 240.78 202.96 
M 182.04 79.47 192.82 101.02 
M 196.66 108.71 197.43 110.25 
M 198.2 111.79 199.74 114.87 
M 200.51 116.41 201.28 117.95 
M 203.59 122.56 205.13 125.64 
M 205.9 127.18 209.03 133.44 
M 242.07 199.52 243.61 202.6 
M 183.45 76.25 188.06 85.49 
M 188.83 87.03 190.37 90.11 
M 191.14 91.65 196.53 102.42 
M 198.07 105.5 201.92 113.19 
M 202.69 114.73 213.46 136.28 
M 245.01 199.39 246.55 202.46 
M 186.95 77.24 190.8 84.93 
M 191.57 86.47 192.34 88.01 
M 193.88 91.09 201.57 106.48 
M 203.11 109.56 216.19 135.72 
M 247.75 198.83 250.06 203.45 
M 184.96 67.23 186.11 69.54 
M 188.42 74.15 194.58 86.47 
M 196.89 91.08 197.66 92.62 
M 198.42 94.16 199.19 95.7 
M 199.96 97.24 203.81 104.94 
M 205.35 108.02 212.28 121.87 
M 214.59 126.48 219.97 137.26 
M 221.51 140.34 222.28 141.88 
M 187.12 65.54 192.51 76.31 
M 193.28 77.85 196.36 84.01 
M 200.98 93.24 201.75 94.78 
M 204.82 100.94 214.83 120.95 
M 217.91 127.11 224.06 139.42 
M 188.44 62.14 198.83 82.92 
M 203.44 92.16 204.98 95.23 
M 207.29 99.85 217.3 119.86 
M 190.14 59.52 204.37 87.99 
M 210.53 100.3 220.53 120.31 
M 239 157.25 239.77 158.79 
M 192.15 57.52 207.92 89.07 
M 208.69 90.61 211 95.23 
M 213.31 99.85 224.86 122.93 
M 225.63 124.47 227.16 127.55 
M 240.25 153.72 244.09 161.41 
M 193.72 54.65 231.82 130.84 
M 233.36 133.92 236.44 140.07 
M 242.59 152.38 248.75 164.7 
M 195.45 52.09 213.54 88.26 
M 214.31 89.8 238.17 137.51 
M 245.09 151.36 248.17 157.52 
M 249.71 160.6 251.25 163.67 
M 253.56 168.29 254.33 169.83 
M 260.48 182.14 262.02 185.22 
M 197.12 49.4 225.21 105.58 
M 227.52 110.19 239.06 133.28 
M 247.53 150.21 250.61 156.37 
M 199.58 48.28 205.35 59.83 
M 209.2 67.52 227.67 104.46 
M 230.74 110.62 239.98 129.09 
M 249.21 147.56 251.52 152.18 
M 253.06 155.26 254.6 158.33 
M 201.68 46.48 208.23 59.56 
M 212.84 68.79 234.39 111.89 
M 235.16 113.43 242.09 127.28 
M 203.59 44.27 210.91 58.89 
M 211.67 60.43 212.44 61.97 
M 216.29 69.67 237.84 112.76 
M 243.23 123.54 244.77 126.62 
M 205.52 42.1 214.37 59.8 
M 218.22 67.49 226.68 84.42 
M 228.99 89.04 239.76 110.59 
M 245.15 121.36 249 129.06 
M 207.8 40.64 213.19 51.41 
M 213.96 52.95 218.58 62.19 
M 220.11 65.27 229.35 83.74 
M 231.66 88.35 240.12 105.29 
M 247.82 120.68 250.9 126.83 
M 253.21 131.45 253.98 132.99 
M 257.05 139.15 258.59 142.22 
M 212.12 43.26 218.66 56.34 
M 219.43 57.88 225.59 70.19 
M 228.67 76.35 230.98 80.97 
M 233.28 85.58 241.75 102.52 
M 248.68 116.37 253.29 125.6 
M 286.38 191.79 287.15 193.32 
M 221.75 56.49 228.29 69.58 
M 235.22 83.43 245.22 103.44 
M 247.53 108.06 255.23 123.45 
M 271.39 155.77 273.7 160.39 
M 277.54 168.08 280.62 174.24 
M 282.93 178.86 283.7 180.4 
M 289.09 191.17 290.63 194.25 
M 226.04 59.05 231.04 69.05 
M 232.58 72.13 235.66 78.29 
M 238.74 84.44 239.51 85.98 
M 244.89 96.76 246.43 99.83 
M 247.2 101.37 257.21 121.38 
M 264.9 136.77 265.67 138.31 
M 274.14 155.24 278.75 164.48 
M 279.52 166.02 281.06 169.1 
M 284.91 176.79 286.45 179.87 
M 291.84 190.64 294.15 195.26 
M 231.1 63.14 232.25 65.45 
M 233.79 68.52 238.41 77.76 
M 247.64 96.23 259.18 119.32 
M 267.65 136.25 269.19 139.33 
M 276.88 154.72 281.5 163.95 
M 282.27 165.49 283.81 168.57 
M 286.12 173.19 289.2 179.34 
M 294.59 190.12 296.89 194.74 
M 237.21 69.35 241.45 77.82 
M 247.6 90.13 261.45 117.83 
M 269.15 133.22 269.92 134.76 
M 277.62 150.16 283 160.93 
M 289.93 174.78 291.47 177.86 
M 298.39 191.71 299.93 194.79 
M 242.68 74.27 243.84 76.58 
M 244.61 78.12 266.15 121.21 
M 269.23 127.37 272.31 133.52 
M 276.93 142.76 285.39 159.69 
M 247.66 78.2 258.82 100.52 
M 260.36 103.6 269.59 122.07 
M 271.9 126.68 281.91 146.69 
M 250.89 78.64 259.74 96.34 
M 263.59 104.03 272.82 122.5 
M 273.59 124.04 282.83 142.51 
M 254.12 79.07 261.43 93.69 
M 265.28 101.39 269.89 110.62 
M 270.66 112.16 280.67 132.17 
M 281.44 133.71 282.21 135.25 
M 302.22 175.27 302.99 176.81 
M 257.35 79.52 257.74 80.29 
M 258.51 81.83 265.44 95.68 
M 267.74 100.3 283.14 131.08 
M 303.91 172.64 304.68 174.18 
M 260.63 80.04 261.01 80.81 
M 261.78 82.35 269.48 97.74 
M 270.25 99.28 271.02 100.82 
M 272.56 103.9 277.17 113.14 
M 279.48 117.75 286.41 131.61 
M 304.88 168.54 306.42 171.62 
M 307.19 173.16 308.73 176.24 
M 264.29 81.34 269.67 92.11 
M 271.98 96.73 273.52 99.81 
M 274.29 101.35 279.68 112.12 
M 283.53 119.82 288.91 130.59 
M 305.84 164.45 306.61 165.99 
M 307.38 167.53 308.15 169.07 
M 267.15 81.05 289.85 126.45 
M 302.17 151.08 302.94 152.62 
M 270.34 81.4 290.73 122.19 
M 301.51 143.73 303.82 148.35 
M 273.53 81.75 291.61 117.92 
M 303.16 141.01 308.54 151.78 
M 276.71 82.09 294.79 118.26 
M 304.8 138.27 309.41 147.5 
M 310.18 149.04 310.95 150.58 
M 323.27 175.21 324.04 176.74 
M 279.86 82.37 287.17 97 
M 287.94 98.53 297.95 118.54 
M 300.26 123.16 301.02 124.7 
M 307.18 137.01 307.95 138.55 
M 288.79 94.2 304.18 124.99 
M 309.57 135.76 311.11 138.84 
M 330.35 177.32 331.11 178.86 
M 291.18 92.97 296.57 103.74 
M 298.88 108.36 304.27 119.14 
M 305.04 120.67 308.11 126.83 
M 311.19 132.99 312.73 136.07 
M 328.12 166.85 328.89 168.39 
M 293.61 91.8 299.76 104.11 
M 302.84 110.27 315.16 134.89 
M 318.23 141.05 319 142.59 
M 329.78 164.14 332.09 168.75 
M 292.57 83.7 302.96 104.48 
M 305.27 109.09 317.58 133.72 
M 319.89 138.34 322.2 142.95 
M 329.12 156.81 330.66 159.89 
M 331.43 161.42 334.51 167.58 
M 295.79 84.12 306.18 104.9 
M 309.26 111.06 311.57 115.67 
M 312.34 117.21 323.88 140.3 
M 331.58 155.69 337.73 168 
M 299.1 84.71 307.95 102.41 
M 314.88 116.26 325.65 137.81 
M 338.73 163.98 341.04 168.59 
M 302.4 85.3 308.18 96.84 
M 312.02 104.54 313.56 107.62 
M 315.1 110.7 315.87 112.23 
M 316.64 113.77 317.41 115.31 
M 318.18 116.85 327.42 135.32 
M 305.74 85.95 310.74 95.95 
M 315.36 105.19 318.44 111.34 
M 320.75 115.96 327.67 129.81 
M 345.37 165.21 348.45 171.37 
M 309.51 87.46 314.13 96.7 
M 317.2 102.85 321.05 110.55 
M 323.36 115.17 324.9 118.24 
M 325.67 119.78 330.29 129.02 
M 347.99 164.42 350.3 169.04 
M 352.6 173.65 354.14 176.73 
M 312.51 87.44 315.97 94.36 
M 319.82 102.06 323.67 109.75 
M 325.21 112.83 332.9 128.22 
M 334.44 131.3 335.98 134.38 
M 355.22 172.86 357.53 177.48 
M 315.9 88.2 318.59 93.58 
M 322.44 101.28 326.29 108.98 
M 327.83 112.05 337.83 132.06 
M 352.45 161.31 353.22 162.85 
M 358.61 173.62 360.15 176.7 
M 319.3 88.97 321.99 94.36 
M 325.07 100.51 340.46 131.3 
M 345.08 140.53 345.85 142.07 
M 322.7 89.74 325.39 95.13 
M 332.32 108.98 336.16 116.68 
M 336.93 118.22 343.09 130.53 
M 346.94 138.23 347.71 139.77 
M 351.55 147.46 357.71 159.77 
M 326.09 90.51 328.01 94.36 
M 332.63 103.59 338.79 115.91 
M 341.1 120.52 345.71 129.76 
M 348.79 135.91 350.33 138.99 
M 354.95 148.23 358.8 155.92 
M 329.48 91.27 329.87 92.04 
M 333.72 99.74 339.1 110.51 
M 340.64 113.59 347.57 127.44 
M 357.57 147.45 359.88 152.07 
M 332.88 92.03 333.26 92.8 
M 335.57 97.42 339.42 105.12 
M 340.19 106.66 350.96 128.2 
M 359.43 145.14 360.2 146.67 
M 336.32 92.9 339.01 98.29 
M 339.78 99.82 354.4 129.07 
M 339.77 93.77 340.92 96.08 
M 342.46 99.16 350.93 116.09 
M 351.7 117.63 357.85 129.94 
M 358.62 131.48 360.16 134.56 
M 343.24 94.69 352.09 112.39 
M 355.17 118.55 362.09 132.4 
M 346.84 95.88 354.15 110.5 
M 358 118.2 359.54 121.27 
M 350.45 97.07 357.76 111.69 
M 354.22 98.58 364.61 119.36 
M 358.15 100.41 369.3 122.73 
M 370.89 125.91 371.33 126.78 
M 362.28 102.65 371.33 120.76 
M 368.9 109.87 371.33 114.73 
M 224.18 291.39 222.29 297.7 
M 228.38 291.39 226.49 297.7 
M 223.28 294.39 227.48 294.39 
M 230.48 291.39 230.69 291.7 231.08 291.39 230.87 291.1 230.48 291.39 
M 230.15 293.5 228.89 297.7 
M 232.55 293.5 230.66 299.8 
M 232.28 294.39 233.06 293.8 233.75 293.5 234.65 293.5 235.16 293.8 235.58 294.39 235.61 295.3 235.43 295.89 234.86 296.8 234.08 297.39 233.39 297.7 232.49 297.7 231.98 297.39 231.56 296.8 
M 239.18 291.39 237.65 296.5 237.68 297.39 238.19 297.7 238.79 297.7 
M 237.65 293.5 239.75 293.5 
M 242.48 291.39 240.59 297.7 
M 241.49 294.7 242.66 293.8 243.35 293.5 244.25 293.5 244.76 293.8 244.79 294.7 243.89 297.7 
M 246.95 293.5 247.49 297.7 
M 250.55 293.5 246.53 298.89 245.75 299.5 244.76 299.8 
M 255.08 294.39 254.96 293.8 254.15 293.5 253.25 293.5 252.26 293.8 251.78 294.39 251.9 295 252.41 295.3 253.82 295.6 254.33 295.89 254.36 296.8 253.88 297.39 252.89 297.7 251.99 297.7 251.18 297.39 251.06 296.8 
M 260.45 293.5 258.56 299.8 
M 260.18 294.39 260.96 293.8 261.64 293.5 262.55 293.5 263.06 293.8 263.48 294.39 263.51 295.3 263.33 295.89 262.76 296.8 261.98 297.39 261.28 297.7 260.39 297.7 259.88 297.39 259.46 296.8 
M 265.31 295.3 268.91 295.3 269.08 294.7 268.97 294.1 268.25 293.5 267.35 293.5 266.66 293.8 265.88 294.39 265.31 295.3 265.13 295.89 265.15 296.8 265.58 297.39 266.08 297.7 266.99 297.7 267.68 297.39 268.45 296.8 
M 272.48 291.39 270.95 296.5 270.98 297.39 271.49 297.7 272.08 297.7 
M 270.95 293.5 273.05 293.5 
M 274.31 295.3 277.91 295.3 278.08 294.7 277.97 294.1 277.25 293.5 276.35 293.5 275.66 293.8 274.88 294.39 274.31 295.3 274.13 295.89 274.16 296.8 274.58 297.39 275.08 297.7 275.99 297.7 276.68 297.39 277.45 296.8 
M 281.18 291.39 279.29 297.7 
M 283.27 291.39 283.49 291.7 283.88 291.39 283.67 291.1 283.27 291.39 
M 282.95 293.5 281.69 297.7 
M 285.35 293.5 284.08 297.7 
M 284.99 294.7 286.15 293.8 286.85 293.5 287.75 293.5 288.26 293.8 288.29 294.7 287.39 297.7 
M 294.35 293.5 293.08 297.7 
M 294.08 294.39 293.65 293.8 293.14 293.5 292.25 293.5 291.56 293.8 290.77 294.39 290.2 295.3 290.02 295.89 290.06 296.8 290.48 297.39 290.99 297.7 291.89 297.7 292.58 297.39 293.36 296.8 
M 295.97 297.1 295.58 297.39 295.79 297.7 296.18 297.39 295.97 297.1 
"/></svg>
