<svg xmlns="http://www.w3.org/2000/svg" width="520" height="320"><rect x="0" y="0" width="520" height="320" fill="floralwhite"/><rect x="10" y="10" width="500" height="300" stroke="black" stroke-width="1" fill="none"/><path stroke="black" stroke-width="1" fill="none" stroke-linecap="round" stroke-linejoin="round" d="
M 131.29 106.52 141.82 103.82 163.01 99.72 173.6 96.65 184.2 94.07 194.8 92.51 205.39 91.51 226.58 91.7 237.18 91.18 258.37 90.98 268.97 91.3 279.56 92.28 300.75 93.63 311.35 94.84 321.95 96.63 332.54 98.86 343.14 101.35 353.73 104.48 374.93 111.44 397.07 119.31 
M 397.07 173.96 364.33 183.29 332.54 193.57 311.35 199.25 300.75 201.63 290.16 203.01 279.56 203.97 268.97 204.28 247.78 203.37 237.18 203.41 215.99 204.56 205.39 204.93 194.8 204.03 184.2 202.07 173.6 199.75 163.01 197.18 141.83 192.88 
M 143.59 145.59 144.57 142.16 144.57 136.54 141.96 127.47 139.14 121.88 
M 148.06 180.39 148.25 179.82 148.25 177.27 
M 141.88 132.73 145.64 127.83 149.16 119.75 149.16 114.74 145.64 106.66 143.26 103.56 
M 136.11 112.3 142.62 110.77 
M 138.29 117.42 142.42 117.61 
M 139.26 123.19 142.53 123.87 
M 156.09 153.94 154.38 149.39 150.02 142.76 146.61 140.18 
M 145.38 154.97 152.27 153.11 
M 151.11 180.82 149.28 178.44 148.18 177.72 
M 146.6 108.65 148.84 106.22 150.97 102.14 
M 161.58 152.86 163.85 145.06 163.85 140.01 161.48 131.86 157.81 124.65 154.95 121.84 
M 152.47 104.12 157.94 102.65 163.91 99.46 
M 158.11 139.64 162.3 137.34 167.66 131.42 171.12 124.72 171.12 120.58 167.66 113.88 162.3 107.96 158.11 105.65 
M 171.43 150.31 167.58 144.67 164.35 142.31 
M 167.16 121.96 171.31 120.23 176.61 115.8 180.04 110.79 180.04 107.68 176.61 102.67 171.31 98.24 169.99 97.7 
M 162.69 106.43 173.46 105.3 
M 163.18 109.15 173.42 109.08 
M 162.83 111.34 173.83 113.14 
M 177.32 150.48 179.5 143.67 179.5 139.48 177.34 132.71 173.98 126.73 171.36 124.4 
M 168.99 138.58 175.27 136.16 
M 168.63 141.81 175.5 141.67 
M 168.76 145.03 175.73 146.83 
M 178.24 111.8 182.75 110.55 188.51 107.37 192.23 103.77 192.23 101.54 188.51 97.93 182.75 94.75 182.11 94.58 
M 173.65 101.08 185.44 99.68 
M 173.55 102.26 185.09 102.25 
M 173.65 104.67 185.33 105.19 
M 179.11 140.91 182.96 138.99 187.89 134.05 191.07 128.46 191.07 125 187.89 119.41 182.96 114.48 179.11 112.55 
M 175.78 123.68 185.29 122.95 
M 175.74 127.18 185.38 126.74 
M 175.19 129.57 185.63 130.69 
M 187.09 149.12 184.33 145.3 181.16 143.11 
M 189.17 102.2 192.39 101.34 196.52 99.15 199.18 96.66 199.18 95.13 196.52 92.64 196.04 92.39 
M 189.93 125.62 192.48 124.39 196.61 120.41 199.27 115.91 199.27 113.12 196.61 108.62 192.48 104.64 189.25 103.09 
M 185.99 112.05 194.47 111.46 
M 186.24 114.73 194.67 114.64 
M 185.85 116.59 194.3 117.58 
M 195.77 147.91 197.48 143.48 197.48 139.72 195.14 133.65 191.51 128.29 189.93 127.13 
M 185.79 138.27 192.81 136.8 
M 185.82 141.42 193.1 141.3 
M 185.62 144.92 192.84 146.34 
M 198.67 114.94 202.32 113.74 207 110.66 210.02 107.17 210.02 105.02 207 101.53 202.32 98.46 198.67 97.25 
M 198.43 142.18 201.98 140.39 206.53 135.79 209.46 130.57 209.46 127.35 206.53 122.13 201.98 117.53 198.43 115.74 
M 202.36 146.99 201.51 145.93 198.24 143.88 
M 208.94 103.85 211.14 103.21 214.85 101.05 217.25 98.61 217.25 97.1 214.85 94.65 211.14 92.5 208.24 91.66 
M 208 127.56 210.84 126.01 214.47 122.02 216.81 117.52 216.81 114.73 214.47 110.22 210.84 106.24 208.94 105.2 
M 213.24 152.84 214.49 151.16 216.92 145.39 216.92 141.82 214.49 136.05 210.72 130.96 207.78 128.97 
M 211.09 184.05 212.24 182.29 213.82 178.02 
M 217.07 116.15 220.38 114.95 224.6 111.88 227.33 108.4 227.33 106.25 224.6 102.78 220.38 99.71 217.07 98.51 
M 213.78 105.41 222.53 105.12 
M 213.79 107.19 222.78 107.74 
M 213.85 109.37 222.14 109.55 
M 216.96 143.41 220.31 141.63 224.6 137.08 227.37 131.92 227.37 128.73 224.6 123.58 220.31 119.02 216.96 117.25 
M 213.68 127.3 222.65 126.03 
M 213.67 130.28 222.37 130 
M 213.74 133.42 222.19 134.1 
M 216.12 174.58 219.48 172.55 223.78 167.34 226.55 161.44 226.55 157.79 223.78 151.89 219.48 146.69 216.12 144.65 
M 215.08 156.01 221.17 154.7 
M 216.63 159.4 221.59 159.32 
M 217.2 163.25 221.58 163.81 
M 224.45 187.2 222.08 182.53 217.56 177.47 214.96 176.01 
M 210.95 187.52 219.64 185.32 
M 226.39 104.88 229.01 104.06 232.36 101.94 234.52 99.55 234.52 98.07 232.36 95.67 229.01 93.56 226.39 92.73 
M 223.81 97.72 230.63 96.92 
M 224.24 98.95 230.66 99.21 
M 223.52 99.55 230.43 100.65 
M 226.38 127.67 228.31 126.53 231.71 122.5 233.9 117.94 233.9 115.12 231.71 110.56 228.31 106.53 225.66 104.96 
M 223.24 113.97 229.57 112.64 
M 223.54 116.85 230.16 116.51 
M 222.89 118.57 229.92 119.57 
M 226.39 159.75 229.14 157.75 232.65 152.64 234.92 146.85 234.92 143.27 232.65 137.48 229.14 132.36 226.39 130.37 
M 223.94 142.32 230.93 141.05 
M 223.56 145.09 230.91 144.68 
M 224.22 148.2 231.18 149.18 
M 228.09 187.03 230.63 183.28 233.01 177.1 233.01 173.28 230.63 167.1 226.94 161.65 224.05 159.52 
M 221 172.37 228.75 170.38 
M 221.63 174.96 229.06 175.6 
M 221.16 178.12 228.6 180.2 
M 233.99 115.89 237.08 114.67 241.04 111.55 243.59 108.01 243.59 105.82 241.04 102.28 237.08 99.15 233.99 97.94 
M 234.31 143.79 237.47 141.97 241.52 137.31 244.14 132.03 244.14 128.76 241.52 123.48 237.47 118.81 234.31 116.99 
M 234.19 175.97 237.52 173.86 241.78 168.47 244.53 162.37 244.53 158.59 241.78 152.48 237.52 147.09 234.19 144.99 
M 242.42 186.55 241.46 184.62 236.93 179.45 233.38 177.43 
M 241.76 103.05 244.23 102.18 247.4 99.97 249.44 97.47 249.44 95.92 247.4 93.42 243.88 91.09 
M 242.12 127.54 243.2 126.86 
M 243.2 126.86 244.69 125.92 247.97 121.77 250.09 117.07 250.09 114.17 247.97 109.47 244.69 105.32 242.12 103.7 
M 243.05 159.78 245.64 157.69 248.95 152.32 251.09 146.24 251.09 142.48 248.95 136.4 245.64 131.03 243.05 128.94 
M 249.21 186.57 249.82 185.65 252.19 179.27 252.19 175.32 249.82 168.94 246.13 163.31 243.25 161.11 
M 250.13 114.84 253.22 113.59 257.16 110.4 259.71 106.78 259.71 104.54 257.16 100.93 253.22 97.73 250.13 96.48 
M 250.87 143.39 253.95 141.51 257.9 136.72 260.44 131.28 260.44 127.92 257.9 122.49 253.95 117.69 250.87 115.82 
M 251.74 176.77 254.95 174.59 259.06 169.03 261.7 162.72 261.7 158.82 259.06 152.52 254.95 146.95 251.74 144.78 
M 248.29 157.21 256.68 155.51 
M 248.31 161.03 256.91 160.47 
M 249.06 163.9 256.59 165.35 
M 260.02 186.92 259.5 185.81 255.18 180.59 251.81 178.56 
M 258.04 102 260.67 101.13 264.04 98.89 266.21 96.37 266.21 94.8 264.04 92.27 262.26 91.1 
M 255.45 94.6 261.88 93.67 
M 255.52 95.43 262.03 95.65 
M 255.88 97.32 262.27 97.79 
M 259.53 126.21 261.22 125.15 264.56 120.96 266.71 116.22 266.71 113.28 264.56 108.54 261.22 104.35 258.62 102.72 
M 255.81 112.7 263.17 110.7 
M 256.37 114.86 262.77 114.32 
M 256 117.19 262.45 117.99 
M 259.71 159.44 262.22 157.3 265.43 151.81 267.5 145.6 267.5 141.75 265.43 135.54 262.22 130.05 259.71 127.91 
M 257.25 140.37 263.57 139.38 
M 257.1 143.39 264.12 143.57 
M 257.68 147.27 263.81 148.01 
M 266.62 187.22 267.15 186.33 269.39 179.79 269.39 175.74 267.15 169.19 263.68 163.42 260.97 161.16 
M 258.7 174.55 265.54 173.25 
M 258.28 177.49 265.17 178.16 
M 258.82 180.81 264.97 182.34 
M 266.97 114.21 270.12 112.98 274.16 109.84 276.76 106.27 276.76 104.07 274.16 100.5 270.12 97.35 266.97 96.13 
M 264.31 103.05 272.25 102.57 
M 264.04 105.38 271.58 104.92 
M 263.98 106.62 272.17 107.49 
M 267.29 142.42 270.34 140.55 274.24 135.75 276.76 130.33 276.76 126.97 274.24 121.54 270.34 116.75 267.29 114.88 
M 264.22 125.92 272.67 124.87 
M 264.15 128.91 272.64 128.87 
M 263.88 130.98 271.84 132.8 
M 268.51 176.56 271.61 174.34 275.57 168.65 278.12 162.2 278.12 158.21 275.57 151.76 271.61 146.07 268.51 143.85 
M 277.5 187.24 276.94 185.98 272.76 180.58 269.49 178.47 
M 275.6 102.16 278.23 101.3 281.6 99.12 283.78 96.65 283.78 95.12 281.6 92.65 281.18 92.38 
M 273.01 94.98 280.08 93.7 
M 272.9 95.54 279.58 95.47 
M 273.12 96.85 279.5 97.57 
M 275.64 125.91 278.27 124.35 281.63 120.37 283.81 115.85 283.81 113.06 281.63 108.54 278.27 104.55 275.64 103 
M 272.84 112.6 279.67 111.12 
M 273.35 114.22 279.47 114.38 
M 272.63 116.51 279.58 118.21 
M 277.21 155.77 277.63 155.39 280.72 149.88 282.71 143.64 282.71 139.78 280.72 133.54 277.63 128.03 275.21 125.88 
M 284.07 186.91 286.48 179.77 286.48 175.57 284.27 168.78 280.84 162.79 278.17 160.45 
M 283.9 113.62 287.05 112.42 291.08 109.34 293.68 105.85 293.68 103.69 291.08 100.2 287.05 97.12 283.9 95.92 
M 283.46 141.05 286.62 139.2 290.66 134.45 293.26 129.08 293.26 125.76 290.66 120.39 286.62 115.64 283.46 113.79 
M 285.69 175.24 288.02 173.58 292.11 167.76 294.75 161.17 294.75 157.1 292.11 150.51 288.02 144.69 284.83 142.42 
M 294.25 186.08 290.03 180.23 286.83 178.06 
M 291.89 101.27 294.54 100.39 297.93 98.13 300.11 95.58 300.11 94 299.74 93.56 
M 292.47 125.16 295.06 123.64 298.38 119.74 300.52 115.32 300.52 112.58 298.38 108.16 295.06 104.26 292.47 102.74 
M 290.54 155.57 293.42 153.4 297.11 147.82 299.48 141.52 299.48 137.61 297.11 131.3 293.42 125.73 292.33 124.91 
M 301.99 185.21 303.7 179.76 303.7 175.42 301.49 168.41 298.06 162.21 295.39 159.79 
M 292.63 174.49 299.38 172.37 
M 292.82 177.21 299.68 177.92 
M 292.67 180.85 299.55 182.56 
M 300.74 113.25 303.95 112.03 308.06 108.91 310.71 105.38 310.71 103.19 308.06 99.65 303.95 96.53 300.74 95.31 
M 297.39 102.85 306.13 101.26 
M 298 104.22 306.08 104.29 
M 298.08 105.62 306.22 106.85 
M 300.92 141.48 304.32 139.6 308.67 134.77 311.48 129.3 311.48 125.91 308.67 120.44 304.32 115.61 300.92 113.72 
M 297.67 125.01 306.83 123.57 
M 297.67 127.23 306.1 127.62 
M 297.51 130.7 306.44 131.54 
M 302.91 175.96 305.97 173.94 310.33 168.17 313.15 161.64 313.15 157.6 310.33 151.07 305.97 145.31 302.56 143.06 
M 299.09 156.06 307.86 154.92 
M 299.38 159.76 308.01 159.8 
M 299.36 162.87 308.11 164.16 
M 309.73 183.87 306.91 180.02 303.77 177.88 
M 309.64 101.33 312.35 100.51 315.82 98.41 318.06 95.97 
M 307.07 95.68 314.28 95.33 
M 307.41 96.35 313.89 97.32 
M 310.47 124.35 311.73 123.6 315.25 119.37 317.52 114.58 317.52 111.61 315.25 106.82 311.73 102.58 308.97 100.93 
M 306.65 110.5 313.11 109.73 
M 306.13 113.38 313.1 113.37 
M 306.48 115.32 313.33 116.63 
M 311.69 159.95 314.8 157.76 318.79 152.14 321.36 145.78 321.36 141.84 318.79 135.47 314.8 129.86 311.69 127.66 
M 309.11 140.77 316.63 139.02 
M 308.45 144.13 316.35 143.71 
M 308.25 147.5 316.51 148.46 
M 320.19 181.83 320.99 179.52 320.99 175.54 318.76 169.11 315.31 163.43 312.62 161.21 
M 309.78 174.02 316.57 172.88 
M 309.99 177.52 316.86 177.66 
M 310.31 180.67 316.62 182.52 
M 318.3 113.88 321.54 112.62 325.7 109.38 328.38 105.71 328.38 103.44 325.7 99.77 321.6 96.57 
M 320.44 142.89 323.07 141.41 327.45 136.49 330.28 130.91 330.28 127.46 327.45 121.89 323.07 116.96 319.65 115.04 
M 321.13 177.01 324.47 174.84 328.74 169.28 331.5 162.98 331.5 159.08 328.74 152.78 324.47 147.21 321.13 145.04 
M 324.37 181 323.64 180.05 320.5 178 
M 327.42 101.43 329.34 100.77 332.21 98.79 
M 329.27 126.4 330.59 125.59 334.17 121.24 336.47 116.31 336.47 113.25 334.17 108.32 330.59 103.97 327.8 102.27 
M 330.13 160.82 332.88 158.68 336.41 153.2 338.68 146.99 338.68 143.14 336.41 136.93 332.88 131.45 330.13 129.31 
M 338.06 178.09 338.06 175.79 335.94 169.59 332.64 164.12 330.07 161.98 
M 335.52 114.2 338.5 112.88 342.33 109.51 344.8 105.68 344.8 103.32 343.62 101.49 
M 337.47 143.88 340.56 141.97 344.52 137.05 347.07 131.49 347.07 128.05 344.52 122.49 340.56 117.58 337.47 115.66 
M 338.23 176.54 341.26 174.4 345.16 168.93 347.67 162.74 347.67 158.9 345.16 152.71 341.26 147.23 338.23 145.1 
M 337.8 178.15 337.36 177.86 
M 346.15 126.38 347.17 125.62 350.14 121.15 352.06 116.09 352.06 112.96 350.14 107.9 347.17 103.43 345.22 101.97 
M 342.58 111.84 348.67 110.82 
M 342.85 114.32 349.01 114.64 
M 342.67 117.08 348.6 118.77 
M 347.09 160.06 349.53 157.97 352.65 152.63 354.66 146.58 354.66 142.84 352.65 136.79 349.53 131.45 347.09 129.36 
M 345.12 142 351.08 139.66 
M 344.56 145.07 350.56 145.16 
M 344.72 147.68 351.46 149.13 
M 352.97 174.55 352.97 173.84 351.01 167.51 347.98 161.92 346.77 160.8 
M 343.19 172.77 349.68 170.51 
M 343.5 175.86 346.86 176.02 
M 350.93 109.53 351.93 109.04 355.41 105.62 355.7 105.11 
M 346.84 102.47 346.96 102.48 
M 351.89 141.22 354.62 139.24 358.1 134.16 360.35 128.41 360.35 124.85 358.1 119.09 354.62 114.01 351.89 112.03 
M 348.96 124.13 356.39 122.66 
M 349.72 126.4 356.28 126.96 
M 349.33 129.34 355.91 131.36 
M 354.03 174.3 356.28 172.54 359.9 166.91 362.24 160.53 362.24 156.59 359.9 150.21 356.28 144.58 353.46 142.38 
M 350.85 154.86 358.42 154.07 
M 351.13 158.8 358.4 158.33 
M 351.09 161.71 358.24 163.28 
M 354.6 119.68 356.78 117.86 359.57 113.18 361.37 107.88 361.37 106.94 
M 354.15 106.48 358.5 106.44 
M 352.27 109.18 357.94 109.9 
M 361.4 157.39 363.17 155.51 365.91 149.68 367.68 143.07 367.68 138.98 365.91 132.37 363.17 126.54 361.03 124.26 
M 358.6 137.21 364.92 135.97 
M 358.92 140.68 364.71 141.4 
M 359.16 144.51 364.32 146.4 
M 367.78 171.31 367.78 170.69 365.74 164.16 362.57 158.4 361.4 157.34 
M 358.07 169.52 363.7 167.51 
M 357.72 173.05 360.76 172.79 
M 366.72 134.68 367.21 134.31 370.72 129.13 372.99 123.26 372.99 119.62 370.72 113.75 367.46 108.94 
M 369.42 171 370.63 170.03 374.36 164.07 376.77 157.32 376.77 153.14 374.36 146.39 370.63 140.43 367.71 138.1 
M 371.13 114.89 372.13 114.23 374.38 111.26 
M 372.58 152 374.92 149.66 377.91 143.64 379.84 136.83 379.84 132.62 377.91 125.81 374.92 119.79 372.58 117.45 
M 385.01 168.07 383.45 163.22 379.92 156.99 377.16 154.56 
M 379.57 133.89 382.67 131.87 386.63 126.71 389.19 120.86 389.19 117.24 388.79 116.32 
M 388.06 167.49 391.1 162.97 393.78 155.97 393.78 151.64 391.1 144.64 386.95 138.46 383.7 136.05 
M 380.72 149.8 388.47 148.48 
M 380.57 154.23 389.4 153.56 
M 380.68 156.91 388.59 159.33 
M 386.54 115.59 386.62 115.54 
M 389.53 152.09 392.5 149.68 396.31 143.51 397.07 141.33 
M 397.07 127.39 396.31 125.21 392.5 119.04 389.53 116.63 
M 386.52 131.16 394.16 128.84 
M 386.58 134.68 394.61 134.65 
M 386.99 138.01 394.42 139.67 
M 397.07 156.93 395.54 155.56 
M 394.01 118.92 396.18 118.97 
M 393.86 121.45 397.07 122.17 
M 147.87 180.98 148.06 180.39 
M 155.89 190.97 155.89 189.58 153.3 183.66 151.11 180.82 
M 146.4 187.71 151.04 186.73 
M 150.97 102.14 150.97 102.14 
M 172.66 194.39 173.24 193.11 173.24 190.04 
M 174.33 193.85 177.06 191.43 
M 182.11 94.58 182.11 94.58 
M 191.22 197.85 190.57 196.19 188.71 193.51 
M 201.07 198.93 203.15 196.41 205.79 190.81 205.79 190.43 
M 210.59 199.09 209.01 195.8 205.1 191.14 204.74 190.93 
M 221.1 198.63 222.08 197.54 224.99 191.81 224.99 188.26 224.45 187.2 
M 210.37 193.22 219.5 194.16 
M 224.05 190.86 226.94 188.73 228.09 187.03 
M 229.35 198.19 226.99 195.31 223.95 193.46 
M 243.25 193.48 246.13 191.28 249.21 186.57 
M 260.93 198.25 262.28 195.38 262.28 191.72 260.02 186.92 
M 248.37 196.08 255.9 198.04 
M 261.28 194.1 263.68 192.11 266.62 187.22 
M 263.56 198.37 260.6 196.25 
M 278.52 198.41 279.64 195.88 279.64 192.09 277.5 187.24 
M 266.65 190.59 274.68 189.41 
M 266.44 194.17 274.75 194.4 
M 281.14 198.26 278.24 196.03 
M 295.82 195.01 298.06 192.97 301.49 186.78 301.99 185.21 
M 300.69 193.38 308.65 193.9 
M 334.45 188.29 335.94 185.82 338.06 179.63 338.06 178.09 
M 344.55 185.37 340.44 179.86 337.8 178.15 
M 345.22 101.97 345.22 101.97 
M 346.86 176.02 349.75 176.16 
M 343.04 179.15 349.19 180.34 
M 355.7 105.11 355.7 105.11 
M 353.46 174.74 354.03 174.3 
M 366.45 178.98 367.78 174.73 367.78 171.31 
M 360.76 172.79 364.48 172.47 
M 358.06 176.42 363.96 177.68 
M 367.46 108.94 367.46 108.94 
M 367.71 172.36 369.42 171 
M 373.52 177.17 372.34 175.48 369.23 173.26 
M 388.79 116.32 388.79 116.32 
M 387.92 173.58 386.54 172.6 
M 393.01 170.42 397.07 169.27 
M 214.56 90.64 257.18 30 257.97 30.53 218.03 91.62 
M 228.82 90.66 256.28 44.9 257.11 45.37 232.32 91.42 
M 243.09 90.33 259.71 58.86 260.57 59.27 246.53 91.05 
M 257.4 90.29 267.08 71.89 267.95 72.28 260.79 91.05 
M 271.7 91.03 276.29 83.31 277.17 83.68 275 91.86 
M 288.54 92.36 290.16 92.94 
M 253.91 36.73 252.6 39.53 252.13 40.93 251.86 42.34 251.82 43.76 252.39 46.61 253.54 49.48 
M 254.58 50.07 254.18 53.07 254.32 55.9 254.7 57.23 255.31 58.49 256.1 59.69 258.05 62 
M 259.14 62.53 259.64 65.67 260.06 67.14 260.64 68.5 261.41 69.75 263.52 71.89 266.11 73.73 
M 267.21 74.23 268.2 77.23 269.62 79.85 270.58 80.94 271.71 81.89 272.99 82.7 275.83 84.09 
M 276.94 84.55 279.08 87.4 280.26 88.67 281.54 89.77 282.95 90.68 286.11 91.95 289.59 92.74 
M 253.22 38.13 252.13 40.93 251.86 42.34 251.82 43.76 252.01 45.18 252.93 48.04 
M 249.01 45.61 248.08 48.02 247.84 49.23 247.97 51.67 248.76 54.13 
M 244.8 53.09 244.02 55.11 243.8 57.14 243.93 58.17 244.59 60.23 
M 240.59 60.57 239.96 62.2 239.81 63.01 239.89 64.66 240.42 66.32 
M 236.38 68.05 235.79 69.9 235.85 71.15 236.25 72.41 
M 254.34 51.58 254.15 54.51 254.32 55.9 254.7 57.23 255.31 58.49 257.04 60.86 
M 250.41 60.85 250.26 63.09 250.39 64.16 251.15 66.14 252.48 67.96 
M 246.47 70.11 246.46 72.42 246.99 73.8 247.91 75.06 
M 259.36 64.12 260.06 67.14 260.64 68.5 261.41 69.75 262.38 70.87 264.78 72.83 
M 256.71 73.54 257.17 75.5 257.55 76.39 258.68 77.93 260.24 79.2 
M 146.27 157.4 152.31 155.24 153.95 154.2 157.75 153.74 160.88 153.09 167.65 150.71 171.41 150.31 173.17 150.7 174.67 150.85 208.25 146.17 213.09 152.59 214.81 155.44 216.72 159.59 217.04 162.46 217.7 165.76 217.38 168.76 216.59 171.58 215.49 174.21 214.59 177.25 212.61 179.23 211.55 181.99 210.13 187.91 207.73 189.49 202.59 191.93 199.74 192.88 196.22 193.73 174.45 191.12 168.62 185.68 166.34 183.83 163.69 183.6 161.16 183.02 157.85 181.8 154.81 180.19 148.18 177.24 
M 146.68 158.49 148.55 158.07 151.79 157.03 154.96 156.81 157.18 155.68 159.98 154.82 165.65 154.12 171.67 154.47 174.53 154.06 177.01 152.5 179.2 152.37 184.49 151.56 187.78 150.15 191.78 148.2 194.53 147.32 197.03 147.8 200.22 148.13 203.26 147.09 
M 147.25 160.43 151.9 159.72 155.01 159.53 157.19 158.6 159.98 157.8 166.64 157.53 169.55 158.37 171.96 158.73 174.86 158.18 178.21 157.31 180.71 155.98 183.68 155.9 186.27 156.3 188.98 155.85 191.76 154.88 194.93 154.69 197.28 155.47 203.35 154.1 208.88 153.73 
M 147.38 162.35 151.51 161.71 154.38 161.58 160.55 162.15 163.57 161.97 166.58 161.54 172.67 162.79 178.63 161.59 180.54 159.98 182.79 158.75 186.48 159.4 189.81 161.27 192.02 163.26 195.23 161.9 199.88 160.44 
M 147.56 164.8 151.3 164.47 154.41 164.45 157.52 165.13 160.95 166.17 163.76 166.37 166.72 166.04 169.46 165.23 172.93 165.63 176.09 164.97 178.49 164.79 183.9 164.8 186.8 166.03 190.51 166.86 193.06 167.76 196.42 167.01 198.39 165.97 201.2 165.62 204.74 166.02 207.79 166.7 212.87 165.73 216.21 167.13 
M 147.81 167.41 151.1 167.2 157.92 168.39 163.3 170.17 166.59 169.63 169.14 168.91 172.47 168.46 175.48 168.79 180.56 169.67 183.87 170.89 187.67 171.63 191.05 173.25 193.68 173.38 
M 147.99 169.55 150.99 169.74 153.81 170.49 157.68 171.04 163.95 173.06 166.9 173.39 169.7 174.07 172.66 174.28 175.35 174.67 178.82 175.82 182.58 175.57 188.14 176.21 191.15 177.88 193.67 178.99 196.84 179.49 199.77 179.2 203.22 179.63 
M 148.1 171.44 153.7 172.97 157.61 173.72 166.75 176.27 169.37 178.59 175.26 179.79 178.27 180.85 181.42 180.4 184.65 180.58 186.86 181.92 189.15 184.44 
M 148.22 173.84 154.38 176.03 163.28 178.25 166.61 179.51 168.6 182.07 170.77 183.69 176.13 185.19 178.56 185.13 181.62 185.91 184.49 187.43 
M 185.58 201.05 208.4 234.12 207.63 234.69 182.82 203.09 
M 183.81 200.78 184.44 201.89 
M 190.81 213.27 206.73 241.66 205.91 242.15 180.86 202.54 
M 182.02 200.52 182.49 201.57 
M 187.73 213.4 203.71 249.5 202.84 249.9 178.91 201.98 
M 180.22 200.27 180.54 201.22 
M 184.58 213.33 199.28 257.42 198.38 257.75 176.98 201.42 
M 178.4 200.02 178.59 200.85 
M 181.41 213.09 193.43 265.25 192.51 265.49 175.07 200.85 
M 176.57 199.77 176.66 200.45 
M 178.27 212.73 186.17 272.78 185.22 272.92 173.17 200.28 
M 175.32 199.67 175.33 199.96 
M 175.92 216.86 178.1 279.95 177.15 280 171.89 199.84 
M 205.15 231.53 203.27 233.35 202.97 233.99 202.89 234.67 203.38 236.09 204.44 237.58 
M 203.4 238.19 201.81 239.27 200.77 240.51 200.56 241.22 200.57 242 200.77 242.83 201.54 244.6 
M 200.45 245.11 198.65 246.06 197.38 247.25 197.04 247.98 196.9 248.81 196.94 249.72 197.38 251.71 
M 196.24 252.11 194.25 252.91 192.75 254.03 192.27 254.76 191.98 255.62 191.86 256.59 191.93 258.73 
M 190.76 259.02 188.6 259.66 186.87 260.67 186.25 261.38 185.8 262.25 185.51 263.25 185.21 265.48 
M 184.01 265.66 181.77 266.19 179.93 267.12 179.24 267.81 178.71 268.67 178.33 269.66 177.83 271.92 
M 204.42 232.12 203.27 233.35 202.97 233.99 202.89 234.67 203.03 235.36 203.87 236.83 
M 200.72 226.83 199.77 227.84 199.45 228.93 199.57 229.5 200.26 230.71 
M 197.02 221.53 196.27 222.33 196.07 222.75 196.11 223.64 196.66 224.59 
M 193.32 216.24 192.62 217.13 192.66 217.78 193.05 218.47 
M 202.57 238.72 201.19 239.86 200.77 240.51 200.56 241.22 200.57 242 201.12 243.7 
M 198.86 232.2 197.73 233.14 197.38 233.68 197.22 234.9 197.67 236.31 
M 195.16 225.68 194.27 226.42 193.99 226.84 193.86 227.81 194.22 228.92 
M 191.46 219.16 190.6 220.01 190.51 220.71 190.77 221.52 
M 199.51 245.57 197.92 246.61 197.38 247.25 197.04 247.98 196.9 248.81 197.12 250.7 
M 196.72 239.34 195.35 240.23 194.88 240.78 194.47 242.12 194.66 243.75 
M 193.92 233.1 192.77 233.85 192.13 234.84 192.04 235.44 192.2 236.8 
M 191.12 226.87 189.88 227.84 189.61 228.75 189.74 229.85 
M 188.33 220.64 187.38 221.38 187.17 222.06 187.27 222.89 
M 195.22 252.49 193.42 253.42 192.75 254.03 192.27 254.76 191.98 255.62 191.86 257.64 
M 193.17 246.44 191.58 247.26 190.99 247.8 190.31 249.21 190.21 250.99 
M 191.12 240.39 189.74 241.1 189.23 241.57 188.64 242.79 188.55 244.34 
M 189.07 234.34 187.91 234.94 187.47 235.34 186.97 236.38 186.89 237.69 
M 187.03 228.29 185.71 229.11 185.3 229.96 185.24 231.04 
M 184.98 222.24 183.95 222.88 183.63 223.55 183.58 224.39 
M 189.65 259.31 187.66 260.1 186.87 260.67 186.25 261.38 185.8 262.25 185.33 264.34 
M 188.27 253.41 186.47 254.11 185.76 254.62 185.2 255.27 184.8 256.05 184.37 257.93 
M 186.88 247.5 185.29 248.12 184.65 248.58 183.8 249.85 183.42 251.52 
M 185.5 241.59 184.1 242.14 183.55 242.54 182.8 243.64 182.47 245.11 
M 184.11 235.68 182.91 236.15 182.07 236.92 181.8 237.44 181.52 238.7 
M 182.73 229.77 181.33 230.45 180.8 231.24 180.56 232.29 
M 181.34 223.86 180.23 224.41 179.8 225.04 179.61 225.87 
M 182.86 265.9 180.78 266.58 179.93 267.12 179.24 267.81 178.71 268.67 178.05 270.76 
M 182 259.3 180.12 259.91 179.36 260.4 178.74 261.02 178.26 261.79 177.67 263.68 
M 181.14 252.69 179.47 253.24 178.79 253.67 177.82 254.91 177.29 256.59 
M 180.27 246.09 178.81 246.57 178.22 246.95 177.37 248.04 176.9 249.5 
M 179.41 239.49 178.16 239.91 177.65 240.23 176.92 241.16 176.52 242.41 
M 178.55 232.89 177.08 233.5 176.47 234.28 176.14 235.33 
M 177.69 226.29 176.51 226.78 176.03 227.4 175.76 228.24 
M 374.93 180.25 378.71 184.15 385.71 193.49 388.43 205 387.27 207.72 385.49 209.94 381.41 213.75 377.5 217.89 375.12 219.24 372.04 220.06 369.25 221.23 367.28 223.08 364.86 224.18 361.68 224.66 359.1 225.68 356.27 226.37 353.68 227.6 351.53 229.46 349.72 231.57 347.32 232.82 341.72 233.51 338.53 233.35 332.62 234.38 329.01 234.49 325.77 234.07 316.84 233.5 313.38 232.57 310.68 232.19 306.13 234.71 303.38 235.03 301.17 235.88 298.67 236.16 295.72 234.37 292.92 233.03 285.72 230.77 283.09 229.55 275.38 227.11 266.27 219.05 264.3 212.93 261.44 209.19 258.37 203.76 
M 370.33 181.57 374.32 185.13 380.11 193.83 381.1 196.66 383.14 199.15 
M 365.74 182.89 368.76 185.92 371.32 188.99 373.12 192.5 375.37 195.26 376.85 197.85 
M 361.18 184.3 363.96 187.54 368.32 193.31 370.6 196.02 373.09 198.66 375.38 200.72 377.35 203.84 
M 356.64 185.76 361.34 191.51 365.96 196.67 368.21 199.43 
M 352.09 187.25 354.64 190.93 359.38 195.34 363.05 200.57 364.67 203.17 367.3 205.22 373.18 210.85 374.76 213.33 376.97 216.02 
M 347.57 188.76 350.09 192.56 352.62 195.19 354.86 197.97 358.94 202.54 360.7 204.18 361.61 206.73 364.58 209.62 
M 343.04 190.28 346.51 193.88 348.54 196.83 350.43 199.12 353.06 201.25 355.85 202.77 358.41 204.92 359.67 207.8 
M 338.48 191.71 341.67 195.39 344.28 198.01 346.46 200.69 347.69 202.63 350.14 204.19 353.19 206.64 355.96 209.9 359.5 214.7 360.46 218.37 362.13 220.9 
M 333.92 193.14 341.14 202.4 344.21 205.93 348.99 212.39 351.92 214.71 354.59 216.42 357.05 222.24 
M 329.33 194.45 332.3 198.19 336.22 204.74 338.53 207.46 342.12 211.14 349.73 219.97 350.98 222.59 
M 324.72 195.7 327.93 199.06 330.17 202.19 331.87 205.81 333.84 208.96 336.08 212.16 
M 320.1 196.94 323.19 200.21 325.6 203.27 327.83 205.75 330.31 211.88 335.57 218.01 
M 315.49 198.16 319.09 201.21 322.65 206.78 324.94 209.76 327.25 212.06 327.8 214.44 332.59 220.61 335.06 224.12 338.55 226.66 
M 310.86 199.36 314.45 202.77 318.54 208.15 320.11 211.16 322.26 213.49 
M 306.2 200.4 311.47 206.06 313.99 209.15 317.41 215.02 321.49 219.65 323.26 221.36 323.45 224.59 
M 301.54 201.45 305.95 207.44 309.92 214.34 314.54 218.8 315.79 221.57 
M 296.81 202.14 299.82 206.36 301.51 209.12 302.6 212.14 304.28 215.74 306.22 218.5 310.53 222.56 312.02 224.26 313.3 227.22 
M 292.08 202.76 295.24 206.99 297.43 210.42 298.42 213.65 299.02 217.32 300.5 220.23 303.64 222.73 306.07 223.91 307.13 225.25 309.47 228.82 
M 287.33 203.27 290.71 206.93 292.49 210.06 293.64 213.75 294.27 217.36 297.43 223.29 
M 282.57 203.7 285.59 207.21 287.43 210 289.73 213.07 291.21 216.42 292.31 220.13 293.65 223.12 294.67 225.21 296.58 228.22 
M 277.81 204.02 280.74 207.79 282.5 210.64 286.87 216.02 
M 273.03 204.16 275.99 207.75 282.31 216.87 282.69 222.85 283.77 225.93 284.61 229.72 
M 268.26 204.24 271.32 208.45 273.41 211.68 274.78 215.73 276.02 218.46 
M 263.48 204.01 266.96 208.38 268.57 212.15 268.86 216.78 
M 396.12 118.95 399.36 117.78 402.14 116.41 404.85 115.5 407.28 114.21 409.39 112.12 414.78 109.15 419.87 106.9 423.6 103.94 429.32 102.55 431.6 100.64 433.1 98.49 439.55 93.5 442.32 91.62 445.18 90.54 447.67 88.08 449.72 87.94 451.74 86.55 453.64 84.85 455.99 83.51 462.19 81.51 464.85 79.97 465.76 77.52 467.86 75.51 470.43 74.44 472.96 72.91 475.54 71.7 475.99 81.33 474.9 83.33 474.16 85.69 474.2 88.84 473.84 91.6 474.23 95.11 474.1 98.11 473.67 100.82 473.45 104.01 472.38 106.34 472.15 109.53 469.95 110.95 468.75 113.36 468.28 116.52 466.1 121.59 466.8 124.89 466.95 127.37 465.34 132.63 464.98 135.73 464.85 138.84 464.99 145.12 464.74 147.65 465.25 153.49 465.4 158.75 467.49 165.96 467.33 168.7 467.45 171.74 467.1 173.84 467.48 176.42 469.69 182 470.74 186.17 472.31 189.16 473.29 191.55 473.52 194.64 473.44 197.54 472.93 200.02 473.9 205.55 474.79 208.67 475.55 214.98 475.53 218.9 476.24 231.3 473.9 228.89 471.05 226.95 467.58 222.66 464.88 220.44 463.11 219.54 460.04 216.95 458.06 215.64 455 214.65 451.32 214.8 448.96 213.11 445.41 208.55 443.69 205.3 437.48 202.16 432.67 198.49 430.33 197.31 427.45 195.46 425.4 194.59 423.01 192.67 420.02 191.48 417.74 189.39 412.49 185.89 409.71 184.28 407.27 181.92 401.82 177.99 396.12 174.24 
M 402.48 119.29 404.95 118.23 407.9 117.33 410.52 115.73 412.76 114.12 418.65 111.89 421 110.25 423.81 109.09 426.12 107.61 430.46 105.97 433.62 105.39 438.02 100.52 440.6 98.3 443.63 97.02 446.89 96.48 450.07 94.74 453.33 94.06 456.21 90.9 
M 402.86 122.46 405.6 121.37 408.33 120.64 411.46 120.17 413.86 118.69 418.97 116.15 422.23 114.88 427.49 111.77 429.85 111.3 432.04 110.08 435.48 109.28 438.06 108 439.91 105.89 442.28 104.28 448.71 102.59 451.67 101.22 454.1 99.88 456.86 98.92 459.25 97.19 461.88 95.61 463.89 95.58 466.86 93.63 469.3 93.45 
M 406.06 124.68 408.77 123.89 411.62 123.48 414.58 122.72 417.18 121.52 418.62 119.17 421.46 118.15 424.34 116.85 427.58 115.85 431.01 115.39 433.25 114.46 436.36 113.82 439.46 113.72 442.74 114.13 445.08 111.94 446.65 109.93 449.07 108.52 451.59 106.6 455.67 105.06 458.59 104.38 459.78 102.76 461.73 101.58 
M 403.24 129.13 411.22 126.45 414.91 125.71 417.49 124.76 422.15 122.05 429.7 120.15 433.56 118.3 439.69 118.33 442.23 117.85 445.5 116.57 448.02 114.98 450.04 114.04 452.87 113.12 455.51 113.17 458.63 112.3 461.48 109.98 
M 402.99 132.44 411.21 129.35 414.72 129.34 417.42 129.11 423.07 127.45 426.62 126.17 429.17 125 432.17 124.34 435.34 124.1 437.82 124.32 441.85 124.33 444.62 123.31 446.53 121.85 450.87 121.37 453.74 120.02 457.2 119.47 
M 405.98 134.63 412.02 132.84 417.57 133.13 423.12 132.34 426.37 132.15 429.01 130.6 431.92 129.74 435.19 129.52 438.25 130.13 442.67 129.68 444.92 128.87 447.62 128.75 450.25 128.91 453.06 127.91 456.57 126.13 460.31 124.56 
M 396.12 138.3 399.87 138.93 403.06 138.77 412.54 136.79 415.4 137.14 418.24 137.84 421.26 137.03 424.52 137.4 427.1 136.61 430.05 134.51 432.77 133.63 442.58 135.25 445.1 134.22 448.81 134.69 453.3 133.94 456.18 133.7 457.08 131.91 458.43 130.91 
M 403.21 141.88 406.54 141.71 409.52 141.02 412.56 140.8 418.72 141.5 421.3 141.95 424.21 141.49 427.55 140.54 431 139.07 434.36 138.44 437.66 138.19 440.49 138.34 443.78 138.01 446.35 138.57 455.98 138.97 
M 399.73 144.73 406.69 145.42 409.57 145.15 412.54 144.63 416.07 144.88 419.23 145.62 421.68 146.78 427.95 144.89 434.04 144.74 437.64 145.22 443.55 144.02 446.16 145.24 
M 399.97 147.79 403.2 148.37 406.71 148.46 413.24 149.53 418.78 149.63 427.01 149.27 430.08 149.53 433.17 149.97 435.76 150.97 
M 406.14 151.54 412.7 152.52 415.71 153.24 418.36 153.64 420.95 153.9 430.16 154.09 433.66 154.51 435.79 154.86 442.35 156.6 447.01 156.91 
M 402.54 154.18 405.79 154.63 409.01 154.84 412.34 155.76 415.39 156.21 417.9 157.18 420.01 157.68 433.19 158.75 
M 405.99 158.11 409.48 158.46 412.25 159.28 415.17 159.53 417.75 160.9 420.15 161.92 423.18 162.33 426.78 162.14 430.56 162.29 434.14 162.95 435.98 165.21 
M 399.38 159.4 405.67 161.4 408.73 161.64 411.64 162.54 414.12 163.09 420.3 165.41 423.52 165.65 427.67 167.14 431.3 167.25 436.27 168.95 437.64 170.55 439.72 171.87 443.69 171.85 
M 396.12 160.42 399.45 162.12 405.55 164.43 408.49 164.72 411.54 165.37 417.1 168.49 420.5 169.15 426.64 171.05 429.85 171.75 432.83 172.69 435.12 174.19 437.69 175.43 440.97 177.92 444.32 178.43 447.57 180.12 449.89 180.82 452.48 180.51 454.41 181.58 457.31 181.56 460.24 182.92 463.17 183.48 
M 402.07 166.38 408.05 168.02 411.49 168.69 413.78 170.31 416.51 172.62 422.2 174.19 425.43 175.4 428.83 176.93 432.95 177.81 437.92 180.47 443.16 184.27 445.28 183.65 
M 402.07 169.53 404.9 170.24 411.55 172.64 414.37 174.43 417.02 175.93 419.63 177.17 424.51 179.96 427.83 181.45 431 181.92 433.52 183.23 436.1 185.08 438 185.95 438.9 187.36 442.71 188.59 446.97 190.45 450.87 191.43 454.63 193.16 455.9 194.87 457.65 195.76 459.74 195.23 461.86 196.37 465.94 197.35 469.91 199.2 
M 402.17 172.3 404.9 173.3 408.13 174.99 410.72 175.77 419.01 181.27 426.6 187.15 429.31 187.63 432.08 188.59 435.54 190.12 
M 401.98 174.99 410.11 180.18 412.42 182.41 415.62 183.94 418.64 185.65 421.58 188.15 426.19 191.36 431.7 193.53 436.58 196.28 
M 321.95 96.63 326.81 100.52 339.86 86.17 342.5 84.76 344.91 83.2 350.53 82.35 355.89 83.25 361.38 82.83 364.13 85.24 366.42 86.87 372.18 89.4 374.56 91.18 376.79 93.79 378.84 94.78 380.35 96.19 382.29 99.79 383.59 102.67 383.18 103.67 384.44 106.63 378.66 116.91 374.93 111.44 
M 326.62 97.61 329.5 96.5 331.86 94.02 334.04 91.25 335.93 89.74 
M 331.3 98.59 333.49 98.1 338.42 93.18 339.58 90.67 340.98 88.98 343.86 84.21 
M 335.95 99.66 338.13 98.87 340.45 96.85 342.51 93.88 344.85 91.92 346.02 86.88 347.33 85.3 
M 340.6 100.75 343.33 99.55 345.71 97.75 351.04 90.71 352.93 89.02 353.75 87.45 
M 345.22 101.97 347.76 100.81 351.8 97.59 355.66 93.8 357.65 91.6 
M 349.8 103.32 352.72 103.01 354.87 101.2 356.41 99.71 358.39 96.87 360.73 95.47 362.64 94.02 363.89 91.47 
M 354.38 104.68 357.29 103.83 358.83 102.36 360.64 99.72 362.46 98.26 367.12 95.39 
M 358.93 106.15 361.69 105.2 363.42 103.01 367.08 99.7 
M 363.47 107.62 366.22 106.87 368.42 105.75 370.4 104.04 372.15 102.23 
M 368 109.12 371.02 109.18 373.45 108.47 375.68 106.71 
M 372.53 110.64 376.07 110.56 
M 47.66 163.18 48.76 161.64 51.64 158.52 58.14 152.57 71.46 140.9 77.66 135.97 84.82 131.09 91.48 126.93 98.59 122.97 105.18 118.78 117.53 111.76 122.47 109.34 126.57 107.75 129.7 106.82 131.29 106.53 135.25 110.66 137.52 114.99 138.92 119.43 139.33 123.99 140.1 128.51 141.95 132.9 143.57 137.31 143.78 141.9 143.54 146.54 144.01 151.09 147.21 159.93 148.23 173.64 148.17 178.26 147.65 182.94 146.41 187.7 141.79 192.93 128.93 192.9 103.35 192.15 96.47 191.41 90.23 189.92 84.77 188.01 74.85 183.63 
M 73.09 183.05 64.91 180.16 60.56 177.88 56.59 175.43 53.26 173.16 51.26 171.59 
M 119.28 139.11 119.28 143.07 118.53 146.97 118.19 150.61 119.07 157.1 118.63 160.07 118.7 162.67 119.16 165.09 121.23 170.02 122.02 173.15 120.34 177.12 111.78 177.26 105.43 177.56 93.44 178.79 87.76 178.94 82.44 178.18 77.72 176.69 
M 73.46 183.25 55.74 173.68 51.27 171.6 45.06 168.11 43.88 165.97 44.75 163.65 46.97 162.82 49.09 163.93 52.88 166.96 56.81 169.82 60.77 172.63 62.87 173.9 68.75 178.14 75.16 183.12 
M 75.03 184 68.39 186.26 61.68 188.22 55 190.78 50.49 192.14 48.17 191.28 47.29 189.02 48.47 186.93 50.69 186.31 57.99 184.97 64.94 184.46 74.8 183.06 
M 85.99 153.43 84.95 149.48 85.25 145.41 86.85 141.66 89.58 138.63 93.15 136.66 97.17 135.94 101.2 136.58 104.81 138.48 107.6 141.46 109.28 145.18 109.65 149.24 108.69 153.2 106.49 156.64 103.3 159.18 99.45 160.54 95.37 160.58 91.5 159.3 88.26 156.82 85.99 153.43 
M 85.84 153.08 85.03 150.12 84.97 147.06 85.22 145.54 86.27 142.67 87.06 141.35 89.09 139.05 91.62 137.32 93.03 136.7 96.01 136.01 99.08 136.07 102.04 136.89 
M 87.61 152.35 86.92 149.85 86.81 148.55 86.87 147.26 87.23 145.45 
M 90.18 140.66 91.38 139.68 92.49 139.02 94.93 138.12 97.51 137.86 98.8 137.96 101.3 138.65 
M 89.37 151.62 88.81 149.57 88.72 148.51 89.04 146.09 
M 91.55 141.98 93.37 140.72 95.36 139.99 96.41 139.81 98.53 139.85 100.57 140.42 
M 92.77 150.37 92.36 148.8 92.47 147.17 92.7 146.65 
M 94.37 144.37 95.64 143.66 97.24 143.38 98.86 143.63 100.3 144.4 101.42 145.58 102.09 147.07 102.24 148.7 101.85 150.28 100.97 151.66 99.7 152.67 98.16 153.22 96.53 153.24 94.98 152.72 93.68 151.73 92.77 150.37 
M 92.86 146.68 92.45 147.49 
M 95.81 143.63 95.1 145.06 
M 94.16 146.94 92.66 149.94 
M 97.36 143.4 96.05 146.02 
M 95.47 147.19 93.4 151.32 
M 98.69 143.61 97 146.99 
M 96.77 147.44 94.37 152.26 
M 99.85 144.16 95.48 152.89 
M 100.86 145 96.74 153.23 
M 101.69 146.2 98.19 153.21 
M 102.18 148.09 100.02 152.42 
M 49.15 161.22 54.37 166.45 
M 51.92 158.26 55.92 162.26 
M 54.91 155.51 60.11 160.72 
M 57.91 152.78 62.22 157.1 
M 61 150.14 63.96 153.1 
M 64.04 147.45 68.32 151.73 
M 67.07 144.75 71.64 149.32 
M 70.12 142.07 73.33 145.28 
M 73.26 139.47 76.59 142.8 
M 76.45 136.94 81.66 142.15 
M 79.78 134.53 83.32 138.07 
M 83.19 132.21 86.85 135.87 
M 86.66 129.95 91.24 134.53 
M 90.18 127.74 93.96 131.51 
M 93.81 125.63 99.4 131.22 
M 97.49 123.58 100.47 126.56 
M 101.04 121.41 104.91 125.27 
M 104.55 119.18 109.71 124.34 
M 108.15 117.04 113.39 122.29 
M 111.77 114.93 116.13 119.3 
M 115.46 112.9 120.22 117.65 
M 119.23 110.93 123.98 115.68 
M 123.12 109.09 126.93 112.9 
M 127.3 107.54 131.56 111.8 
M 59.28 152.25 58.78 152.85 57.59 153.07 
M 118.45 126.98 119.57 125.42 119.53 124.77 118.26 123.92 117.23 123.71 116.63 123.8 
M 104.69 173.9 101.23 175.65 99.17 177.93 98.47 178.5 96.93 179.18 96.28 179.71 94.74 181.8 
M 130.1 188.23 131.67 188.34 133.87 188.12 135.42 188.19 135.74 188.13 135.99 187.81 
M 109.59 149.51 110.97 148.16 
M 83.32 132.11 85.26 132.61 87.99 133.83 89.26 134.9 89.59 135.51 89.76 136.61 
M 83.42 146.14 83.99 145.15 84.72 144.34 86.14 143.32 
M 132.57 162.21 131.61 163.53 130.11 164.97 129.41 165.61 127.29 166.95 126.75 167.45 126.68 167.72 
M 138.39 117.74 135.7 117.91 133.96 117.49 131.84 117.25 
M 137.36 118.73 135.48 118.81 132.08 117.77 130.89 117.64 130.15 117.78 128.45 118.51 127.83 119.03 127.35 119.72 
M 88.13 129.03 91.53 131.5 91.98 132.27 92.24 133.12 92.26 134.55 91.49 135.9 
M 117.31 161.77 118.2 160.23 118.55 158.7 118.28 156.66 118.33 155.8 117.79 154.04 
M 106.81 125.93 107.11 125.68 107.34 125.17 107.25 122.48 106.75 121.66 105.03 120.14 
M 126.66 108.67 127.69 107.42 
M 82.51 149.91 83.28 147.57 83.79 146.63 84.35 145.71 85.72 144.32 
M 63.91 179.64 63.65 177.92 
M 62.49 173.66 61.89 171.53 
M 109.1 143.34 110.92 143.01 111.56 142.61 113.81 140.31 115.23 139.57 115.93 139.42 
M 127.5 138.17 128.27 136.73 129.28 135.35 130.85 131.82 
M 80.77 149.29 81 148.19 82.9 143.86 83.55 143.16 85.6 142.33 86.67 142.09 
M 98.37 187.78 96.84 189.36 95.83 191.25 
M 56.96 162.93 55.24 162.25 53.98 161.32 52.62 158.87 52.42 158.3 52.45 157.78 
M 117.66 140.01 117.97 140.4 118.02 141.22 118.22 141.46 
M 84.71 153.57 85.29 150.78 
M 137.03 177.92 138.2 178.57 138.59 178.97 139.14 180.86 139.2 182.24 139 182.73 138.27 183.51 136.24 184.85 
M 102.65 137.34 102.54 136.92 
M 85.96 136.14 88.51 139.82 
M 70.02 154.17 68.96 154.16 68.3 154.53 
M 95.74 160.58 95.48 162.08 95.32 162.43 95.09 162.45 
M 109.46 147.19 110.58 146.83 111 146.44 112.04 145.1 112.41 143.56 
M 70.49 182.18 69.18 180.89 
M 67.34 177.14 66.61 173.3 
M 136.1 172.57 137.89 176.38 138.96 177.56 139.5 178.49 
M 108.83 133.5 112.8 132.29 114.49 131.37 116.14 130.03 117.68 128.49 
M 134.34 114.69 133.98 113.97 135.23 112.23 135.54 111.22 
M 141.77 189.12 140.79 189.96 140.23 190.07 139.01 189.6 136.68 189.2 135.96 188.79 
M 127.71 190.38 130.41 189.29 132.33 188.77 135.33 188.3 
M 112.58 189.32 110.47 191.35 109.82 191.7 106.49 192.25 
M 112.6 132.03 114.63 131.04 116.33 129.73 117.83 128.15 119.62 125.67 
M 104.09 173.47 102.22 174.21 100.58 175.16 99.13 177.51 98.5 178.19 96.38 179.46 94.17 182.29 
M 143.33 173.16 145.04 173.13 146 172.47 
M 115.48 176.63 114.24 174.68 113.31 173.64 111.69 171.27 110.32 167.36 109.51 165.55 
M 136.4 112.96 136.41 112.88 
M 63.38 149.03 63.88 151.72 63.88 153.82 63.52 154.64 
M 131.1 183.54 132.38 184.24 134.41 185.99 136.03 187.03 
M 74.86 183.62 75.72 184.16 
M 70.22 181.48 70.46 182.12 70.93 181.87 
M 65.91 179.2 65.83 179.74 66.02 180.59 66.32 180.05 66.84 179.69 
M 61.7 176.83 61.42 177.86 61.57 179.05 61.9 178.17 62.76 177.41 
M 57.48 174.62 57 175.98 57.13 177.52 57.48 176.29 58.56 175.2 
M 53.2 172.56 52.58 174.11 52.68 175.99 53.07 174.41 54.3 173.05 
M 48.98 170.35 48.16 172.23 48.24 174.45 48.65 172.53 50.02 170.92 
M 44.91 167.83 43.75 170.35 43.79 172.92 44.23 170.65 45.92 168.58 
M 74.94 183.64 75.84 183.44 
M 69.38 183.9 69.79 183.32 70.03 183.8 
M 64.11 184.53 64.15 183.99 64.67 182.98 64.71 183.86 65.06 184.44 
M 58.93 184.91 58.92 184.12 59.56 182.64 59.48 183.99 59.88 184.86 
M 53.78 185.7 53.68 184.26 54.44 182.31 54.24 184.13 54.79 185.48 
M 48.69 186.87 48.44 184.39 49.32 181.97 49 184.26 49.84 186.55 
M 56.33 190.26 63.51 190.98 72.67 191.18 81.57 190.91 90.23 189.92 
M 77.94 190.96 77.52 190.89 76.51 191.12 
M 68.47 190.82 67.59 190.33 66.86 189.63 
M 84.5 190.38 84.2 189.85 
M 59.91 190.16 59.1 190.2 58.23 190.49 
M 132.4 106.24 139.26 113.1 
M 138.48 104.68 146.31 112.5 
M 144.73 103.29 152.94 111.49 
M 151.19 102.1 161.8 112.71 
M 157.56 100.83 163.6 106.87 
M 163.85 99.48 172.12 107.75 
M 169.78 97.76 177.84 105.83 
M 175.78 96.12 186.8 107.14 
M 181.93 94.62 191.73 104.43 
M 188.4 93.45 195.73 100.78 
M 195.07 92.48 202.72 100.13 
M 202.05 91.82 210.95 100.72 
M 209.42 91.54 219.7 101.83 
M 217.13 91.61 224.56 99.04 
M 224.84 91.68 233.06 99.9 
M 232.22 91.42 242.44 101.64 
M 239.59 91.14 250.3 101.86 
M 247.13 91.04 254.63 98.55 
M 254.73 91 261.07 97.34 
M 262.47 91.1 271.01 99.64 
M 270.45 91.44 276.23 97.22 
M 278.87 92.21 288 101.35 
M 287.04 92.74 296.28 101.99 
M 295.21 93.27 302.27 100.33 
M 303.53 93.94 314.15 104.56 
M 312.21 94.98 319.65 102.43 
M 321.41 96.54 328.28 103.41 
M 331.05 98.54 339.11 106.6 
M 341 100.85 349.51 109.35 
M 351.66 103.86 358.51 110.72 
M 362.85 107.42 372.01 116.58 
M 374.32 111.24 382.43 119.35 
M 386.06 115.34 393.88 123.16 
M 398.04 119.67 403.99 125.62 
M 216.85 90.36 217.46 91.59 
M 219.34 86.75 219.77 87.6 
M 240.79 86.65 243.02 91.13 
M 239.86 76.2 247.29 91.06 
M 240.65 69.18 251.58 91.04 
M 241.43 62.15 255.86 91.01 
M 243.07 56.83 260.18 91.06 
M 244.29 50.66 264.59 91.27 
M 246.78 47.05 266.01 85.5 
M 249.27 43.44 254.17 53.24 
M 258.72 62.32 259.26 63.41 
M 263.48 71.86 265.62 76.13 
M 251.77 39.83 252.21 40.71 
M 226.73 291.39 224.83 297.7 
M 226.73 291.39 229.43 291.39 230.24 291.7 230.57 292.6 230.3 293.5 229.43 294.39 228.44 294.7 225.74 294.7 
M 235.13 294.39 235.01 293.8 234.2 293.5 233.3 293.5 232.31 293.8 231.83 294.39 231.95 295 232.46 295.3 233.86 295.6 234.38 295.89 234.41 296.8 233.93 297.39 232.94 297.7 232.04 297.7 231.23 297.39 231.11 296.8 
M 236.66 295.3 240.26 295.3 240.44 294.7 240.32 294.1 239.6 293.5 238.7 293.5 238.01 293.8 237.23 294.39 236.66 295.3 236.48 295.89 236.51 296.8 236.93 297.39 237.44 297.7 238.33 297.7 239.03 297.39 239.81 296.8 
M 242.9 293.5 242 296.5 242.02 297.39 242.54 297.7 243.44 297.7 244.13 297.39 245.3 296.5 
M 246.2 293.5 244.94 297.7 
M 249.23 291.39 247.33 297.7 
M 248.33 294.39 249.11 293.8 249.8 293.5 250.7 293.5 251.21 293.8 251.63 294.39 251.66 295.3 251.48 295.89 250.91 296.8 250.13 297.39 249.44 297.7 248.54 297.7 248.02 297.39 247.61 296.8 
M 254.63 291.39 254.83 291.7 255.23 291.39 255.02 291.1 254.63 291.39 
M 254.3 293.5 253.04 297.7 
M 257.63 291.39 256.1 296.5 256.13 297.39 256.64 297.7 257.24 297.7 
M 256.1 293.5 258.2 293.5 
M 260.63 291.39 260.83 291.7 261.23 291.39 261.02 291.1 260.63 291.39 
M 260.3 293.5 259.03 297.7 
M 266 293.5 264.74 297.7 
M 265.73 294.39 265.3 293.8 264.8 293.5 263.89 293.5 263.21 293.8 262.43 294.39 261.86 295.3 261.68 295.89 261.71 296.8 262.13 297.39 262.64 297.7 263.53 297.7 264.23 297.39 265.01 296.8 
M 272.02 291.39 270.14 297.7 
M 275 293.5 274.31 293.8 273.52 294.39 272.95 295.3 272.77 295.89 272.81 296.8 273.22 297.39 273.74 297.7 274.64 297.7 275.33 297.39 276.11 296.8 276.68 295.89 276.86 295.3 276.83 294.39 276.4 293.8 275.89 293.5 275 293.5 
M 279.5 293.5 278.24 297.7 
M 279.14 294.7 280.31 293.8 281 293.5 281.89 293.5 282.4 293.8 282.44 294.7 281.53 297.7 
M 282.44 294.7 283.61 293.8 284.29 293.5 285.2 293.5 285.7 293.8 285.74 294.7 284.83 297.7 
M 291.79 293.5 290.53 297.7 
M 291.52 294.39 291.11 293.8 290.59 293.5 289.7 293.5 289.01 293.8 288.22 294.39 287.65 295.3 287.47 295.89 287.51 296.8 287.93 297.39 288.44 297.7 289.33 297.7 290.02 297.39 290.81 296.8 
M 293.41 297.1 293.02 297.39 293.24 297.7 293.63 297.39 293.41 297.1 
"/></svg>
