<svg xmlns="http://www.w3.org/2000/svg" width="520" height="320"><rect x="0" y="0" width="520" height="320" fill="floralwhite"/><rect x="10" y="10" width="500" height="300" stroke="black" stroke-width="1" fill="none"/><path stroke="black" stroke-width="1" fill="none" stroke-linecap="round" stroke-linejoin="round" d="
M 192.43 93.88 198.87 90.33 206.09 86.61 213.53 83.34 221.27 80.87 229.14 78.85 237.11 77.33 245.03 75.53 253.04 74.14 261.14 73.57 269.2 74.57 277.01 76.8 300.98 81.18 308.67 83.79 315.94 87.42 323.07 91.3 330.08 95.39 336.92 99.78 363.53 118.42 372.22 124.91 
M 372.22 172.21 361.15 181.45 341.94 196.44 335.39 201.25 314.62 213.98 293.59 226.29 286.09 229.4 278.28 231.64 270.41 233.64 262.35 234.68 254.24 235.14 246.12 235.01 238.21 233.18 230.42 230.87 222.76 228.18 215.75 224.08 202.45 214.75 195.97 209.84 189.77 204.61 184.91 200.12 
M 216.45 136.87 219.31 136.5 
M 228.11 135.44 231.26 135.32 
M 237.45 135.02 240.19 134.51 
M 243 134.07 249.5 133.86 
M 256.08 133.68 260.92 133.52 262.63 133.68 
M 269.45 134.46 276.27 135.53 
M 279.92 136.28 283.52 136.86 
M 286.77 137.01 288.27 136.96 296.66 135.51 302.09 134.05 303.54 133.89 
M 306.51 133.65 312.52 133.49 
M 315.41 133.48 318.27 133.45 
M 324.33 133.79 332.2 134.79 334.82 134.68 339.73 134.01 342.62 134.13 348.85 134.81 356.59 134.14 359.66 134.38 372.22 136.56 
M 190.27 184.72 192.07 203.5 
M 199.08 103.9 198.81 105.5 198.74 111.05 
M 196.85 127.88 196.56 131.33 
M 197.04 141.93 197.67 145.39 
M 197.17 179.71 197.57 185.21 
M 197.93 188.42 198.17 191.51 
M 198.34 197.38 198.8 203.56 
M 199.07 207.09 199.23 209.08 
M 209.8 95.18 209.03 98.02 
M 208.24 100.87 207.57 103.86 
M 205.43 127.66 205.14 134.84 
M 204.59 180.41 204.64 182.28 
M 217.16 101.93 215.74 109.6 214.59 117.65 
M 213.87 128.07 214.31 134.09 214.24 137.02 
M 212.92 183.43 213.09 186.6 
M 213.26 189.78 213.3 192.83 
M 213.38 195.93 213.66 199.24 
M 213.93 202.54 213.96 205.61 
M 213.83 208.54 213.87 211.62 
M 214.53 218.73 214.71 220.77 
M 228.91 82.23 228.76 85.4 
M 225.36 106.32 223.66 115.55 
M 223.04 118.6 222.47 121.73 
M 221.94 128.64 221.9 132.33 
M 221.81 135.16 221.74 136.15 
M 222.59 181.71 222.93 184.83 222.95 187.9 222.17 193.23 222.08 194.69 
M 222.28 201.04 222.41 204.27 
M 222.47 207.44 222.63 210.71 
M 223.49 220.93 223.6 226.92 
M 237.18 87.24 236.92 90.31 
M 236.54 93.3 235.99 96.16 
M 235.19 98.81 233.95 102.83 233.72 104.38 
M 233.27 107.5 232.77 110.61 
M 232.2 113.67 231.64 116.77 
M 230.26 126.48 230.01 129.97 
M 231.99 183.06 232.37 186.41 232.39 189.49 232.05 193.78 
M 231.86 196.67 231.73 199.65 
M 231.38 208.69 231.33 211.78 
M 231.33 214.93 231.54 223.03 231.37 229.87 
M 245.13 85.35 244.97 88.46 
M 244.7 91.49 244.05 95.87 243.13 100.09 
M 242.56 103 241.72 111.01 241.43 112.52 
M 240.75 115.45 239.64 119.81 238.69 124.39 
M 238.22 127.63 237.75 133.95 
M 240.24 182.34 240.38 184.94 
M 240.5 188.15 240.59 191.33 
M 240.73 194.57 240.9 197.85 
M 240.98 201.05 240.8 205.57 240.42 209.93 
M 239.68 215.53 238.93 221.14 
M 253.6 84.53 253.68 86.23 253.41 89.21 252.21 96.31 
M 251.76 99.26 249.64 112.91 248.54 117.21 
M 247.71 120.02 245.31 130.52 244.98 133.93 
M 248.62 182.42 248.63 192.69 248.95 197.68 
M 248.91 207.08 248.58 213.1 
M 248.21 215.91 247.05 221.14 
M 246.71 223.99 246.5 230.18 
M 260.81 76.83 261.04 80.23 
M 260.85 96.41 260.76 99.71 
M 260.6 102.97 259.96 107.56 258.4 111.3 
M 255.18 118.86 254.36 121.69 
M 253.89 124.89 253.71 133.8 
M 253.86 148.9 254.12 151.64 
M 255.84 181.32 255.82 186.35 
M 255.84 189.46 255.86 192.59 
M 255.95 195.8 256.04 199.03 
M 256.02 202.16 255.79 206.69 255.88 208.37 
M 256.18 211.87 256.54 217.03 256.14 219.85 255.47 222.39 255.05 225.2 255.08 226.83 
M 255.45 233.44 255.55 234.92 
M 269.51 91.5 269.35 94.66 
M 269.33 98.01 269.41 101.5 
M 269.38 104.91 269.3 106.56 268.68 109.45 267.58 111.88 265.06 116.51 263.9 118.96 262.96 121.67 262.38 124.74 262.08 133.53 
M 263.17 181.32 262.95 186.24 263.38 194.47 
M 263.39 207.23 263.41 210.47 
M 263.59 213.9 263.94 217.5 
M 264.28 221.1 264.44 224.54 
M 264.45 231.1 264.47 234.4 
M 278.37 84.98 278.41 86.63 278.08 89.58 277.76 90.91 
M 276.86 96.68 276.9 105.28 276.44 110.08 
M 275.5 116.22 274.11 122.01 
M 272.6 127.77 271.38 132.05 270.92 134.61 
M 271.28 179.03 270.64 182.85 270.61 184.36 
M 270.8 197.11 271.41 202.56 271.67 207.72 
M 271.91 214.56 272.24 218.22 
M 272.79 228.8 272.82 233.02 
M 285.47 92.27 284.93 95.08 
M 284.51 98.04 283.64 105.78 283.4 110.8 
M 283.48 114.41 283.61 118.1 
M 283.58 121.65 283.14 126.61 282.6 129.68 282.18 131.08 
M 281.21 133.76 280.05 136.36 
M 278.97 146.7 279.13 150.13 
M 279.5 178.35 279.37 179.27 
M 278.84 184.97 278.77 188.01 
M 278.65 191.05 278.6 195.8 278.74 197.57 
M 279.36 204.78 279.74 222.13 
M 279.75 229.02 279.82 231.19 
M 294.8 88.49 294.37 94.71 
M 293.93 97.63 293.34 100.45 
M 292.77 103.32 292.05 107.82 291.76 111.05 291.79 121.72 291.67 123.38 
M 289.21 135.52 288.65 136.92 
M 286.95 175.56 286.3 182.68 286.28 184.22 
M 286.25 187.32 286.19 193.68 
M 286.4 200.51 286.7 207.61 
M 286.72 211.09 286.73 214.58 
M 286.72 221.62 286.62 225.06 
M 286.58 228.46 286.6 229.19 
M 304.5 91.84 303.5 94.18 
M 301.92 99.37 299.96 113.08 299.61 118.04 
M 299.53 121.52 299.36 124.92 
M 298.93 128.07 298.62 129.56 297.6 132.13 295.9 135.68 
M 294.31 148.67 294.45 153.18 
M 292.61 175.37 292.26 180.17 292.25 183.29 293.1 193.87 293.62 204.65 293.65 208.2 293.49 218.82 292.99 225.95 
M 310.88 96.55 310.4 97.76 309.69 100.47 309.48 101.99 
M 309.09 105.08 308.35 109.59 306.81 115.11 306.65 116.72 
M 306.5 120.12 306.4 125.36 305.79 128.33 305.23 129.56 
M 303.84 132.33 303.02 133.86 
M 299.27 172.17 299.01 175.13 298.82 181.28 299.08 189.68 
M 299.21 193.2 299.14 203.66 
M 299.16 207.3 299.06 216.42 298.75 220.25 
M 319.09 97.61 318.17 101.8 317.23 107.78 316.57 110.62 314.78 115.86 314.54 117.39 
M 313.79 123.7 313.6 125.28 312.93 128.16 310.83 133.47 
M 308.43 152.38 308.31 153.7 
M 306.23 170.2 305.31 175.26 
M 305.01 178.18 304.86 186.21 305.16 195.17 
M 305.25 198.85 305.34 213.51 
M 324.9 110.29 324.03 114.65 323.28 117.39 321.37 122.48 320.27 126.64 
M 318.7 132.09 318.31 133.43 
M 317.05 143.78 316.91 145.3 316.92 150.28 
M 314.79 166.75 312.82 170.93 311.91 173.29 311.25 175.89 310.88 182.09 310.92 190.78 
M 311.09 194.55 311.32 202.17 
M 311.51 206.84 311.67 209.58 
M 331.74 110.47 331.09 114.98 330.45 117.8 328.6 122.89 327.69 127.19 
M 327.15 130.13 326.32 134.02 
M 324.96 151.22 324.99 154.34 
M 322.76 165.83 320.5 168.58 319.89 169.63 
M 318.77 171.84 318.26 173 317.91 174.31 
M 317.42 177.14 317.03 185.25 316.98 197.98 
M 317.04 201.47 317.14 203.11 
M 338.52 110.91 337.95 115.43 337.32 118.21 335.64 123.38 335.11 126.28 334.48 132.53 334.1 134.76 
M 333.23 142.53 332.8 145.56 
M 331.02 159.6 330.47 162.16 329.61 164.71 327.73 167.95 
M 326.67 170.29 325.5 174.2 325 177.07 324.22 192.18 
M 323.91 195.89 323.74 197.89 
M 346.01 109.07 345.77 112.14 
M 345.44 115.13 345.24 116.59 344.19 120.56 
M 343.47 123.2 341.15 131.02 
M 340.68 133.18 340.57 133.99 
M 337.89 150.89 337.67 154.22 
M 337.31 160.91 337.11 162.46 336.38 165.24 334.77 170.59 333.21 181.12 
M 332.74 184.16 331.45 193.98 
M 352.46 113.07 350.96 121.29 
M 350.47 124.06 349.59 131.43 348.57 134.8 
M 344.49 151.11 344.34 160.13 343.9 163.32 341.91 172.14 340.69 181.56 339.61 185.89 
M 338.93 188.45 338.65 189.6 
M 359.44 115.57 359.16 117.06 
M 358.67 119.69 357.15 127.65 
M 351.32 155.51 351.24 161.14 350.97 162.77 
M 350.39 165.96 348.65 173.56 346.93 179.19 345.92 183.67 
M 338.89 186.75 339.74 189.14 340.24 189.88 340.88 190.19 
M 237.92 194.9 236.43 195.48 233.68 197.38 233.15 197.91 232.84 198.99 
M 245.12 147.25 245.76 148.62 246.15 148.91 
M 197.13 209.27 197.51 208.7 197.93 207.48 197.96 205.84 198.34 203.81 198.44 200.92 
M 311.79 95.97 311.64 94.69 311.01 92.6 310.45 92.22 309.94 92.6 
M 339.73 136.33 336.65 131.71 334.68 127.89 334.37 126.86 
M 355.35 186.02 354.06 186.47 353.52 187.43 
M 311.47 188.34 311.87 189.6 312.16 190.02 312.71 190.32 314.63 190.58 316.29 190.01 
M 318.43 166.77 318.81 165.92 318.84 164.75 
M 304.55 205.22 305.07 203.76 305.62 202.73 306.43 201.66 307.96 200.36 309.24 198.02 
M 265.75 94.32 263.66 94.41 258.53 95.51 256.91 96.17 256.77 97.07 
M 228.31 193.25 227.6 196.13 227.02 196.98 226.14 197.7 
M 311.06 85.56 310.46 85.19 309.48 85.08 308.72 85.37 308.53 85.89 
M 282.82 105.3 285.57 105.45 286.73 106.74 286.88 107.41 286.64 107.96 
M 352.34 112.86 352.84 112.07 353.69 111.57 
M 276.41 203.76 277.16 205.5 278.27 206.3 
M 254 148.74 252.6 147.84 250.39 147.33 249.56 146.89 248.82 146.32 248.66 145.77 
M 248.48 119.87 248.47 119.42 248.1 118.99 245.36 118.03 243.18 117.76 241.81 117.94 
M 233.54 144.57 232.93 144.24 232.81 143.85 232.93 143.24 233.62 142.36 235.41 140.71 236.42 139.14 
M 369.72 174.34 369.89 172.82 370.59 171.36 370.76 170.59 
M 262.54 223.3 260.06 220.54 259.36 217.65 258.56 216.18 257.67 215.07 
M 269.5 189.08 268.5 189.45 265.6 188.37 264.81 187.79 264.53 186.51 
M 305.89 124.31 303.32 126.22 302.13 127.75 300.01 129.16 
M 248.59 206.3 248.34 204.7 
M 284.18 133.73 282.04 132.9 281.16 132.79 277.39 133.73 
M 247.51 85.84 246.57 85.76 245.47 86.36 244.14 88.02 243.66 88.23 
M 233.59 146.52 232.68 146.68 231.06 147.62 230.16 147.96 225.44 148.73 
M 326.17 192.53 327.36 189.92 327.52 187.56 328.31 185.07 328.31 184.52 
M 265.65 180.72 265.31 180.44 
M 195.23 130.64 196.69 131.51 
M 240.97 133.38 239.79 135.42 239.47 135.54 239.08 135.42 
M 228.3 78.75 229.71 78.71 
M 239.8 76.4 240.54 49.8 241.32 49.79 242.6 76.07 
M 251.33 74.06 255.38 36.29 256.16 36.35 254.15 74.03 
M 263.11 73.3 277.92 30 278.66 30.23 265.9 73.8 
M 274.55 75.98 295.71 31.96 296.42 32.28 277.24 76.85 
M 286.08 78.13 306.13 33.88 306.85 34.19 288.8 78.91 
M 297.67 80.12 319.6 40.38 320.29 40.75 300.35 81.05 
M 308.94 83.58 329.62 57.62 330.24 58.08 311.37 85.01 
M 318.18 88.23 319.22 89.18 
M 230.26 78.61 233.42 73.23 234.88 70.45 237.34 64.68 239.12 58.66 240.46 52.46 
M 241.45 52.45 246.87 49.32 250 46.71 252.65 43.56 254.98 40.07 
M 255.96 40.15 260.78 39.82 265.48 39.04 269.98 37.57 272.16 36.59 276.44 34.33 
M 277.38 34.62 280.87 36.01 284.42 36.93 288.04 37.13 293.59 36.36 
M 294.49 36.77 297.49 38.62 299.6 39.14 301.83 38.96 304.13 38.3 
M 305.03 38.69 307.36 40.87 309.89 42.61 312.72 43.7 317.4 44.36 
M 318.28 44.81 319.48 48.76 321.08 52.45 323.3 55.78 327.55 60.21 
M 328.34 60.8 325.28 66.71 322.66 72.77 320.73 79.06 320.01 82.29 318.86 88.84 
M 243.31 51.47 246.87 49.32 250 46.71 251.38 45.19 253.83 41.84 
M 244.17 57.02 246.89 55.38 248.14 54.43 250.35 52.21 252.23 49.64 
M 245.02 62.58 247.79 60.78 249.32 59.23 250.63 57.44 
M 258.38 40.01 263.15 39.51 265.48 39.04 269.98 37.57 274.31 35.49 
M 258.42 45.95 262.36 45.54 264.28 45.15 267.99 43.94 271.56 42.22 
M 258.45 51.89 263.07 51.26 265.99 50.3 268.81 48.95 
M 258.49 57.83 261.86 57.37 264 56.67 266.06 55.68 
M 279.12 35.35 282.64 36.55 284.42 36.93 288.04 37.13 291.73 36.7 
M 277.87 40.92 280.89 41.95 282.42 42.28 285.54 42.45 288.71 42.08 
M 276.61 46.49 279.14 47.36 280.42 47.63 283.03 47.77 285.69 47.46 
M 275.35 52.06 277.39 52.76 279.47 53.09 282.66 52.85 
M 274.09 57.64 276.42 58.33 278.02 58.42 279.64 58.23 
M 295.47 37.47 297.49 38.62 299.6 39.14 300.7 39.13 302.97 38.66 
M 293.86 42.15 295.63 43.17 296.55 43.48 298.47 43.62 300.48 43.21 
M 292.24 46.84 293.78 47.72 294.58 47.99 296.24 48.11 297.98 47.75 
M 290.62 51.52 291.93 52.27 293.3 52.61 295.49 52.3 
M 289 56.21 290.63 57.01 291.79 57.09 293 56.84 
M 287.38 60.89 288.66 61.52 289.56 61.58 290.51 61.39 
M 306.18 39.81 308.59 41.81 309.89 42.61 312.72 43.7 315.81 44.21 
M 304.36 45.4 306.43 47.12 307.54 47.81 309.98 48.74 312.63 49.19 
M 302.53 50.99 304.27 52.43 306.19 53.46 307.24 53.79 309.46 54.16 
M 300.71 56.57 302.1 57.74 303.65 58.56 306.29 59.13 
M 298.88 62.16 300.51 63.4 301.76 63.88 303.12 64.1 
M 318.85 46.8 320.21 50.65 321.08 52.45 323.3 55.78 326.06 58.78 
M 316.34 53.07 317.46 56.24 318.17 57.73 320.01 60.47 322.28 62.95 
M 313.82 59.33 315.27 63 316.71 65.16 318.51 67.11 
M 311.31 65.59 312.37 68.28 313.42 69.86 314.74 71.28 
M 194.24 147.96 360.52 154.75 360.5 155.53 194.07 150.76 
M 194.06 151.1 342.56 163.49 342.5 164.27 193.93 153.91 
M 193.91 154.23 324.45 170.74 324.36 171.52 193.77 157.04 
M 193.75 157.34 306.28 176.51 306.16 177.28 193.59 160.16 
M 193.73 160.47 288.16 180.79 288 181.56 193.25 163.24 
M 193.79 163.61 270.16 183.6 269.97 184.36 193.11 166.34 
M 193.84 166.75 252.38 184.95 252.16 185.7 193.05 169.46 
M 193.9 169.9 234.92 184.86 234.66 185.6 193 172.57 
M 193.95 173.05 217.85 183.36 217.57 184.08 192.94 175.67 
M 194.01 177.08 201.27 181.35 200.96 182.06 192.89 179.67 
M 343.79 155.05 339.79 155.73 335.99 156.84 332.48 158.61 327.66 162.25 
M 327.58 163.23 323.64 163.58 319.85 164.38 316.31 165.86 311.36 169.09 
M 311.25 170.07 307.37 170.1 303.62 170.59 300.07 171.78 295.02 174.59 
M 294.86 175.56 291.08 175.29 287.39 175.47 283.83 176.37 278.71 178.76 
M 278.52 179.72 274.84 179.14 271.23 179.03 267.69 179.63 262.52 181.6 
M 262.28 182.56 256.98 181.4 253.47 181.34 249.99 182 246.53 183.13 
M 246.25 184.08 241.17 182.49 237.75 182.14 234.29 182.52 230.81 183.37 
M 230.5 184.3 227.29 182.86 224.01 181.89 220.65 181.64 215.46 182.32 
M 215.1 183.24 212.03 181.73 208.88 180.69 205.61 180.36 200.54 180.92 
M 341.78 155.36 337.86 156.21 335.99 156.84 332.48 158.61 329.23 160.96 
M 321.01 154.74 317.64 155.47 316.04 156.01 313.02 157.53 310.22 159.55 
M 300.24 154.11 297.42 154.73 296.08 155.18 293.55 156.45 291.21 158.14 
M 279.48 153.49 276.12 154.35 274.09 155.37 272.2 156.73 
M 258.71 152.86 256.17 153.51 254.62 154.29 253.19 155.32 
M 325.6 163.38 321.72 163.91 319.85 164.38 316.31 165.86 312.99 167.93 
M 307.1 162.07 303.76 162.52 302.16 162.93 299.11 164.2 296.25 165.99 
M 288.6 160.76 285.8 161.14 283.16 161.95 281.91 162.55 279.51 164.04 
M 270.1 159.45 266.76 160.03 264.71 160.89 262.78 162.09 
M 251.59 158.14 249.07 158.58 247.51 159.23 246.04 160.15 
M 309.3 170.05 305.48 170.27 303.62 170.59 300.07 171.78 296.68 173.57 
M 289.03 167.8 285.87 167.97 284.34 168.24 281.41 169.22 278.62 170.7 
M 268.75 165.54 265.06 165.89 262.75 166.66 260.55 167.83 
M 248.48 163.28 245.78 163.54 244.09 164.1 242.48 164.95 
M 292.97 175.39 289.22 175.3 287.39 175.47 283.83 176.37 280.4 177.88 
M 269.75 171.87 266.87 171.8 265.47 171.93 262.74 172.61 260.11 173.77 
M 246.52 168.34 244.53 168.29 242.59 168.57 239.82 169.67 
M 276.68 179.4 273.03 179.01 271.23 179.03 267.69 179.63 264.24 180.86 
M 257.26 175.67 254.46 175.37 251.72 175.55 250.37 175.85 247.72 176.79 
M 237.84 171.94 234.93 171.74 233.05 172.06 231.2 172.72 
M 260.51 182.09 256.98 181.4 255.22 181.27 251.73 181.59 248.26 182.53 
M 237.04 176.65 234.75 176.2 232.47 176.16 229.07 176.94 
M 244.56 183.46 241.17 182.49 237.75 182.14 236.02 182.25 232.55 182.91 
M 208.67 217.77 218.78 251.96 218.03 252.2 205.99 218.64 
M 207.43 217.02 207.63 218.11 
M 209.53 228.49 214.9 257.93 214.13 258.09 204.68 217.59 
M 206.18 216.27 206.25 217.26 
M 207 227.53 209.62 263.67 208.84 263.74 203.38 216.53 
M 204.91 215.52 204.88 216.39 
M 204.52 226.37 202.97 268.94 202.19 268.93 202.09 215.47 
M 203.62 214.77 203.52 215.5 
M 202.11 225.08 195.01 273.54 194.24 273.44 200.83 214.41 
M 202.32 214.02 202.17 214.58 
M 199.79 223.71 185.84 277.25 185.08 277.06 199.58 213.35 
M 201.19 213.41 201.08 213.72 
M 197.17 223.95 175.77 280 175.03 279.73 198.55 212.44 
M 216.83 248.84 215.35 249.48 214.28 250.33 213.85 251.53 214.15 253.84 
M 213.18 254.04 211.53 254.49 210.24 255.25 209.52 256.45 209.27 258.93 
M 208.29 259.02 205.68 259.54 204.42 260.42 203.63 261.83 203.16 263.6 
M 202.18 263.59 199.34 263.81 197.84 264.56 196.73 265.91 195.87 267.67 
M 194.9 267.54 191.86 267.44 190.14 268.02 188.71 269.26 187.48 270.92 
M 186.53 270.69 184.39 270.32 182.4 270.4 180.64 271.16 178.31 273.34 
M 216.06 249.14 214.74 249.87 214.28 250.33 213.85 251.53 213.98 253.03 
M 214.42 243.65 213.33 244.25 212.95 244.63 212.6 245.62 212.7 246.85 
M 212.78 238.16 211.62 238.93 211.34 239.71 211.43 240.68 
M 211.14 232.66 210.52 233.01 210.16 233.49 210.15 234.51 
M 212.33 254.25 210.82 254.82 210.24 255.25 209.52 256.45 209.29 258.05 
M 211.36 249.01 210.07 249.5 209.57 249.87 208.95 250.91 208.75 252.28 
M 210.4 243.77 208.89 244.5 208.37 245.36 208.21 246.51 
M 209.43 238.54 208.55 238.87 207.96 239.44 207.66 240.75 
M 208.46 233.3 207.54 233.74 207.22 234.27 207.12 234.98 
M 207.37 259.13 205.68 259.54 204.99 259.91 203.97 261.06 203.38 262.69 
M 206.99 254.09 205.5 254.45 204.38 255.23 203.99 255.8 203.47 257.24 
M 206.61 249.05 205.32 249.37 204.35 250.04 204.01 250.54 203.56 251.79 
M 206.24 244.01 205.14 244.28 204.32 244.85 203.64 246.33 
M 205.86 238.98 204.59 239.39 204.05 240.01 203.73 240.88 
M 205.48 233.94 204.78 234.11 204.26 234.48 203.82 235.42 
M 201.19 263.59 199.34 263.81 198.54 264.11 197.24 265.17 196.28 266.76 
M 201.38 257.93 199.75 258.12 199.04 258.38 197.89 259.32 197.05 260.73 
M 201.58 252.26 200.16 252.43 199.55 252.66 198.55 253.47 197.82 254.7 
M 201.77 246.6 200.05 246.93 199.21 247.62 198.59 248.66 
M 201.97 240.93 200.56 241.21 199.86 241.78 199.35 242.63 
M 202.17 235.27 201.06 235.49 200.52 235.93 200.12 236.59 
M 193.85 267.43 191.86 267.44 190.14 268.02 189.39 268.56 188.09 270.06 
M 194.62 262.1 192.83 262.11 192.02 262.29 190.61 263.12 189.44 264.47 
M 195.4 256.77 193.81 256.78 192.43 257.24 191.83 257.68 190.79 258.88 
M 196.17 251.44 194.15 251.59 193.05 252.24 192.14 253.28 
M 196.94 246.11 195.21 246.24 194.27 246.79 193.49 247.69 
M 197.72 240.78 196.72 240.79 195.86 241.08 194.84 242.1 
M 198.49 235.46 197.7 235.46 197.01 235.69 196.19 236.51 
M 185.45 270.47 183.37 270.28 182.4 270.4 180.64 271.16 179.06 272.53 
M 186.76 265.47 184.86 265.3 183.98 265.4 182.37 266.1 180.93 267.35 
M 188.07 260.47 186.36 260.31 185.55 260.41 184.1 261.04 182.8 262.17 
M 189.38 255.47 187.85 255.33 187.13 255.41 185.83 255.98 184.66 256.99 
M 190.69 250.47 188.71 250.42 187.56 250.91 186.53 251.8 
M 192 245.46 190.28 245.42 189.29 245.85 188.4 246.62 
M 193.3 240.46 191.86 240.43 191.02 240.79 190.27 241.44 
M 194.61 235.46 193.43 235.43 192.75 235.73 192.14 236.26 
M 334.92 200.99 343.8 208.13 343.37 208.78 333.36 203.34 
M 324.83 206.98 336.14 215.61 335.71 216.27 323.29 209.34 
M 314.85 213.15 333.19 226.57 332.75 227.22 313.29 215.49 
M 304.73 219.05 334.43 240.94 333.98 241.58 303.12 221.36 
M 290.2 227.27 335.99 260.8 335.53 261.44 288.57 229.57 
M 342.37 208.23 339.02 209.39 337.26 210.7 335.98 212.55 335.01 214.75 
M 334.46 215.57 332.14 218.38 331.27 220.46 331.09 222.77 331.35 225.23 
M 330.81 226.05 329.67 230.35 329.63 233.18 330.31 235.98 331.46 238.75 
M 330.9 239.56 330.01 243.56 329.58 247.55 329.88 251.52 331.41 257.44 
M 341.2 208.56 339.02 209.39 337.26 210.7 336.56 211.56 335.47 213.63 
M 333.61 216.48 332.14 218.38 331.27 220.46 331.1 221.59 331.19 223.99 
M 330.34 227.49 329.67 230.35 329.56 231.77 329.89 234.58 330.85 237.36 
M 322.87 223.91 322.36 226.69 322.58 228.52 323.2 230.33 
M 330.42 241.56 329.71 245.56 329.58 247.55 329.88 251.52 330.82 255.47 
M 324.51 238.54 323.93 241.84 323.87 245.12 324.07 246.76 324.84 250.02 
M 318.6 235.52 318.14 238.12 318.1 240.71 318.86 244.57 
M 312.69 232.5 312.3 235.35 312.44 237.24 312.88 239.11 
M 371.44 124.26 374.26 123.47 379.88 120.12 390.85 114.63 392.62 112.43 394.36 111.41 396.51 109.86 399.07 108.96 400.52 107.7 402.32 107.01 405.45 106.27 407.25 106.29 411.92 103.29 416.79 100.97 418.33 99.19 421.26 96.42 423.01 95.55 423.39 94.88 411.41 109.27 410.63 111.74 409.29 113.66 408.27 115.72 407.86 118.09 407.27 120.29 405.1 124.36 404.16 126.65 402.76 131.24 402.53 133.5 402.51 135.97 401.99 137.96 401.79 140.27 401.29 142.36 401.07 144.78 401.68 147.96 401.52 150.09 400.93 151.64 400.09 152.83 400.19 154.8 402.12 160.54 403.11 162.77 403.71 164.76 403.87 167.31 404.41 170.23 404.72 172.9 403.89 174.4 404.14 176.57 404.26 183.29 405.97 186.97 407.31 189.21 411.92 193.84 422.8 209 421.68 206.95 419.62 204.61 413.18 202.45 411.46 200.39 408.31 197.99 405.94 196.49 403.9 196.26 401.89 195.06 400.28 193.49 394.74 190.14 393.14 188.94 391.84 187.14 382.71 181.29 371.44 172.91 
M 371.44 126.7 374.53 126.25 376.53 124.88 378.44 123.87 383.01 121.93 385.28 121.28 390 119.28 392.22 118.13 396.26 114.83 398.44 113.69 400.52 113.06 402.35 111.62 404.81 110.58 407.54 110.11 
M 374.29 128.87 379.03 126.62 381.9 125.78 386.47 124.79 388.71 123.88 390.5 122.11 392.92 121.25 395.13 120.83 
M 374.59 131.32 377.52 130.71 381.72 129.11 390.43 126.65 392.49 125.4 396.54 123.57 397.79 123.38 400.07 123.67 
M 371.44 133.99 374.79 133.84 378.01 133.39 380.44 132.68 381.79 131.97 386.44 130.59 390.02 130.05 392.98 129.37 395.35 128.65 397.26 127.83 
M 377.83 136.61 380.57 135.87 382.07 134.94 383.86 134.65 385.94 134.64 389.41 134.13 392.83 134 395.75 133.67 400 131.63 400.83 130.41 
M 380.33 139.76 382.63 138.67 384.46 138.46 386.53 137.47 
M 374.92 142.23 377.59 142.24 382.24 142.76 383.99 142.05 386.25 141.62 389.75 141.96 395.61 141.09 398.17 141.21 
M 377.98 145.19 380.33 145.51 384.26 145.06 390.58 145.84 393.2 145.56 395.51 145.93 398.01 145.77 
M 380.28 147.46 391.69 147.96 395.78 149.85 
M 380.12 149.99 383.19 150.18 386.47 150.86 
M 377.79 152.47 380.68 152.81 383.61 153.38 386.3 153.56 391.34 155 
M 380.78 156.35 382.87 157 385.13 156.52 387.46 156.27 392.05 157.52 395.4 158.21 397.28 159.14 
M 380.53 159.27 382.42 159.91 385.2 159.78 
M 375.16 160.4 380.5 162.49 382.9 162.62 388.21 164.01 393.66 166.26 395.99 166.6 398.21 167.81 401.38 168.06 
M 371.44 160.75 377.74 164.33 380.23 165.41 382.95 165.58 385.86 166.67 388.43 168.01 393.13 169.25 
M 374.85 165.23 377.36 167.05 379.98 167.92 382.8 168.6 384.91 169.6 387.55 169.96 389.54 171.09 392.11 171.93 394.29 172.38 396.11 173.6 397.81 175.81 400.34 177.7 
M 371.44 165.62 377.11 169.12 391.17 175.32 
M 377.02 171.35 379.32 172.41 381.38 173.87 383.99 174.82 386.43 175.95 388.97 176.8 390.72 178.57 392.77 179.99 394.49 180.79 396.89 182.35 401.57 186.79 403.89 188.43 406.21 189.12 
M 371.44 170.48 379.06 175.73 383.83 178.02 387.83 181.18 389.88 182.15 391.99 183.86 
M 349.06 108.37 353.91 108.18 361.63 108.35 363.96 108.16 365.97 107.65 369.74 106.38 373.82 105.51 375.61 105.9 376.91 107.44 377.39 109.73 376.91 112.19 375.8 114.39 374.35 115.92 372.61 117.04 370.47 117.78 368.14 118.31 365.66 118.7 363.98 118.74 
M 357.76 111.38 361.63 111.48 363.96 111.28 365.97 110.77 369.74 109.51 373.82 108.63 375.61 109.03 376.26 109.8 
M 104.02 156.64 106.09 154.76 108.9 151.22 112.01 146.69 115.77 142.02 119.83 137.48 123.17 132.72 134.9 121.87 147.85 111.64 154.45 107.59 161.07 103.91 168.19 100.64 174.74 98.03 180.67 95.94 185.83 94.56 189.96 93.82 192.36 93.75 195.56 99.65 196.47 105.34 196.99 111.01 197.01 116.64 196.61 122.23 195.83 127.81 194.65 133.35 194.44 144.59 193.51 161.41 192.73 166.98 192.78 172.61 191.79 178.17 190.24 183.69 188.92 189.23 187.88 194.78 184.87 200.18 173.26 199.85 164.56 199.24 156.88 198.27 149.79 197.07 143.3 195.37 137.23 193.45 132.06 191.18 127.61 188.37 123.13 185.23 
M 122.16 184.49 118.87 181.98 114.95 178.51 111.52 174.66 108.81 170.66 106.95 167.45 
M 172.87 132.53 172.67 137.42 172.16 142.17 170.19 150.61 169.23 154.28 168.12 157.62 167.5 163.61 167.36 166.38 167.75 169.56 168.56 173.24 167.92 177.55 160.19 177.86 148.95 178.71 143.44 178.89 138.11 178.46 132.95 177.48 128.55 175.73 
M 120.89 183.01 111.16 172.43 102.23 161.73 101.04 160.12 100.23 158.28 101.09 156.5 102.91 155.92 104.61 157.02 109.78 165.35 116.48 175.14 123.55 184.93 
M 123.01 185.5 117.54 182.7 98.17 173.85 96.95 172.33 97.37 170.38 99.19 169.48 101.14 170.14 109.1 175.64 120.61 182.82 123.44 184.83 
M 146.6 146.39 144.17 142.99 142.97 138.98 143.15 134.8 144.67 130.91 147.37 127.72 150.96 125.58 155.05 124.72 159.2 125.24 162.95 127.07 165.91 130.03 167.75 133.79 168.26 137.93 167.4 142.02 165.26 145.62 162.08 148.32 158.18 149.84 154 150.01 150 148.82 146.6 146.39 
M 163.84 131.51 165.31 134.51 165.73 137.83 165.04 141.1 163.33 143.97 160.78 146.14 157.66 147.35 154.32 147.49 151.11 146.54 148.39 144.59 
M 151.4 140.41 150.42 139.05 149.95 137.45 150.02 135.78 150.62 134.22 151.71 132.95 153.14 132.09 154.78 131.75 156.44 131.95 157.94 132.69 159.12 133.87 159.86 135.37 160.06 137.03 159.72 138.67 158.86 140.11 157.59 141.19 156.03 141.79 154.36 141.86 152.76 141.39 151.4 140.41 
M 150.94 138.63 154.09 141.78 
M 150.97 136.55 156.16 141.74 
M 152.63 136.1 157.66 141.13 
M 154.96 136.32 158.8 140.16 
M 153.15 132.4 159.61 138.85 
M 155.96 133.09 160.03 137.17 
M 158.38 133.4 159.38 134.41 
M 105.11 155.65 109.61 160.15 
M 107.34 153.19 110.03 155.87 
M 109.38 150.53 112.48 153.63 
M 111.29 147.75 114.18 150.64 
M 113.31 145.08 117.5 149.27 
M 115.4 142.48 119.11 146.19 
M 117.6 139.98 121.7 144.08 
M 119.81 137.5 124.34 142.03 
M 121.75 134.74 124.18 137.18 
M 123.81 132.11 126.34 134.65 
M 126.22 129.83 130.4 134.01 
M 128.63 127.55 132.63 131.55 
M 131.09 125.32 134.31 128.54 
M 133.56 123.09 136.8 126.34 
M 136.09 120.93 139.8 124.64 
M 138.7 118.85 141.69 121.84 
M 141.31 116.76 144.63 120.09 
M 143.94 114.7 146.98 117.75 
M 146.57 112.64 149.58 115.66 
M 149.35 110.73 153.48 114.87 
M 152.25 108.94 156.4 113.09 
M 155.19 107.18 157.56 109.56 
M 158.2 105.51 162.21 109.51 
M 161.22 103.84 163.93 106.54 
M 164.44 102.36 168.99 106.91 
M 167.66 100.88 170.86 104.08 
M 170.99 99.52 173.52 102.05 
M 174.34 98.18 178.26 102.1 
M 177.8 96.95 181.92 101.07 
M 181.31 95.77 184.25 98.71 
M 185.02 94.78 189.7 99.46 
M 188.94 94.01 192.08 97.15 
M 167.8 164.04 169.16 164.68 169.54 164.34 
M 132.92 170.47 131.99 170.48 131.38 170.18 131.33 169.53 131.73 168.81 
M 139.31 177.22 140.02 176.77 141.22 176.71 
M 185.75 186.45 185.3 187.67 
M 127.39 175.74 126.56 174.91 126.48 174.6 126.63 173.92 129.62 170.37 
M 187.6 134.06 188.7 133.19 191.68 131.91 192.34 131.82 193.03 131.96 194.76 132.83 
M 189.07 168.8 188.84 167.47 189.2 166.81 190.16 166.09 191.88 165.77 
M 121.67 140.65 121.28 141.47 119.73 142.95 118.62 143.34 116.17 143.79 
M 139.01 118.6 139.59 118.29 140.28 117.59 
M 126.88 149.46 124.94 151.37 123.51 151.85 
M 188.58 95.64 188 95.34 186 95.27 185.37 95.55 184.24 96.51 182.99 97.28 
M 151.03 168.38 150.1 165.64 150.11 164.4 151.27 162.27 152.16 161.16 
M 170.86 143.85 170.56 144.14 170.48 144.99 
M 180.02 158.48 179.21 157.91 178.09 156.69 177.27 155.29 176.16 153.98 175.32 152.7 174.72 152.46 
M 180.14 96.13 179.54 98.09 180.11 98.88 181.4 99.61 
M 155.5 157.12 155.3 157.83 154.88 158.4 
M 168.73 100.83 168.75 100.42 
M 141 185.57 141.52 184.42 143.06 182.88 143.9 181.67 144.74 179.81 145.1 177.84 
M 127.92 160.1 127.72 160.63 127.8 161.05 
M 124.04 176.09 124.21 174.9 124.61 173.98 126.41 172.55 127.93 170.98 129.1 170.24 
M 174.92 143.27 170.85 143.16 170.31 143.65 
M 142.24 152.17 141.95 151.44 141.82 150.3 141.82 143.79 141.64 143.16 141.27 142.68 140.25 141.85 
M 160.59 124.05 161.52 121.96 161.96 121.49 
M 179.31 122.4 178.9 120.36 177.97 117.41 177.64 116.74 177.14 116.19 
M 161.2 125.72 161.46 124.04 161.49 122.32 161.9 121.52 
M 158.59 107.99 159.28 107.32 160.35 107 160.82 106.63 160.98 103.96 
M 137.63 178.5 136.49 179.8 135.19 182.04 132.49 184.96 132.16 185.53 132.15 187.03 
M 167.54 174.35 166.96 173.41 164.78 171.02 162.57 168.28 162.15 166.95 162.11 165.65 
M 150.18 166.59 149.71 165.22 149.96 163.97 150.91 162.26 151.65 161.46 152.37 160.96 
M 145.85 176.67 144.69 175.1 143.9 174.78 143.56 174.78 143.01 175.18 142.69 175.73 142.69 176.33 
M 172.92 145.91 172.46 146.28 172.22 146.82 172.22 148.83 171.94 149.57 
M 191.53 141.91 193.53 141.86 194.5 142.18 
M 143.06 136.97 142.42 136.55 140.93 134.97 140.38 134.59 139.13 134.18 
M 163.63 164.32 165.67 165.43 166.34 165.63 168.19 165.97 168.74 165.95 168.99 165.69 
M 172.42 108.84 170.63 107.67 169.83 107.37 168.56 107.27 168.11 107.38 167.62 107.7 166.79 109.34 166.49 111.21 
M 163.91 161.1 164.12 161.63 166.57 163.87 169.04 165.22 
M 112.11 158.15 110.52 158.73 106.85 160.46 
M 106.54 158.48 105.84 158.85 
M 154.33 150 155.14 151.75 
M 157.02 186.6 155.25 186.49 153.51 187.24 153.02 187.16 152.31 186.69 
M 124.53 187.46 122.62 199.05 121.63 203.72 119.68 210.54 118.08 215.02 117.09 217.21 115.88 219.3 111.88 225.09 108.1 231.06 106.65 232.94 101.91 238.15 100.52 240.01 99.32 241.99 98.35 244.1 97.63 246.31 97.13 248.58 96.84 250.9 96.75 253.24 96.86 255.58 97.51 260.22 96.79 255.59 96.6 253.24 96.63 250.89 96.85 248.54 97.28 246.22 97.95 243.95 98.87 241.76 100.05 239.7 101.41 237.75 105.98 232.41 107.34 230.53 110.91 224.49 114.73 218.59 115.81 216.58 116.69 214.47 118.11 210.06 119.83 203.3 120.65 198.76 122.21 187.15 
M 124.66 188.13 124.3 189.06 
M 120.65 198.78 118.5 203.36 117.74 205.48 117.26 207.64 117.16 209.85 117.46 212.19 
M 118.25 214.56 119.08 216.06 120.59 217.65 122.41 218.93 124.42 219.9 126.58 220.48 128.81 220.63 131.02 220.29 133.12 219.47 135.1 218.33 136.96 216.97 138.68 215.42 140.26 213.72 143.14 210.05 148.07 202.09 152.54 193.84 148.26 202.2 143.55 210.33 140.75 214.13 139.18 215.92 137.46 217.57 135.58 219.04 133.53 220.3 131.29 221.25 128.87 221.7 126.41 221.6 124.02 221.04 121.78 220.05 119.72 218.69 117.95 216.91 117.53 216.22 
M 116.62 214.64 115.89 212.38 115.53 209.93 115.57 207.45 116.02 205.01 116.78 202.69 119.55 196.21 122.06 188.46 
M 119.33 196.73 117.72 197.86 109.19 201.85 105.41 204.42 103.64 205.86 102.06 207.47 100.75 209.29 99.73 211.29 98.39 215.67 98.01 217.91 98.01 220.17 98.45 222.39 99.23 224.54 100.26 226.6 104.68 233.95 
M 105.07 234.71 105.92 236.88 108.66 245.86 111.43 252.33 108.53 245.91 105.52 237.03 104.69 235.1 
M 104.32 234.37 103.48 232.86 99.58 226.99 98.45 224.88 97.57 222.65 97.02 220.28 96.94 217.84 97.28 215.45 98.55 210.81 99.58 208.6 100.96 206.57 102.61 204.78 104.43 203.2 108.33 200.38 116.67 196.17 118.41 194.87 119.82 193.28 120.86 191.41 121.58 189.38 121.94 187.16 
M 108.13 178.46 110.47 180.22 114.5 182.88 118.79 185.33 127.82 189.67 137.23 193.45 
M 117.77 184.75 119 183.41 
M 195.96 102.13 198.1 104.27 
M 193.37 93.29 199.51 99.43 
M 197.44 91.1 203.01 96.67 
M 201.54 88.94 206.93 94.33 
M 205.67 86.82 212.03 93.18 
M 209.96 84.85 217.68 92.57 
M 214.35 82.99 219.35 87.99 
M 219.13 81.51 225.5 87.88 
M 224.02 80.14 229.77 85.89 
M 229.02 78.88 235.76 85.62 
M 234.26 77.86 240.8 84.41 
M 239.44 76.8 245.23 82.59 
M 244.53 75.62 253.63 84.72 
M 249.81 74.65 254.54 79.37 
M 255.33 73.91 263.75 82.34 
M 261.25 73.57 266.52 78.84 
M 268.16 74.23 275.12 81.19 
M 276.99 76.8 285.66 85.47 
M 284.7 78.25 291.34 84.9 
M 292.23 79.52 299.19 86.49 
M 299.93 80.97 307.01 88.05 
M 309.28 84.07 318.01 92.8 
M 322.39 90.92 330.29 98.82 
M 338.73 101.01 347.31 109.58 
M 359.82 115.84 367.89 123.91 
M 208.36 217.08 209.61 219.57 
M 209.57 214.03 214.04 222.97 
M 203.09 195.58 203.78 196.98 
M 204.48 198.38 207.28 203.97 
M 211.48 212.37 212.18 213.77 
M 212.88 215.17 218.02 225.45 
M 192.75 169.43 193.45 170.83 
M 204.99 193.92 209.89 203.71 
M 214.78 213.5 220.38 224.7 
M 206.2 190.86 206.9 192.25 
M 207.6 193.65 212.49 203.45 
M 217.39 213.24 218.09 214.64 
M 219.49 217.44 222.29 223.03 
M 210.2 193.39 213.7 200.39 
M 214.4 201.78 215.8 204.58 
M 221.39 215.77 222.09 217.17 
M 222.79 218.57 223.49 219.97 
M 212.13 191.77 212.83 193.17 
M 213.53 194.57 215.63 198.76 
M 224.02 215.55 226.82 221.15 
M 227.52 222.55 228.22 223.95 
M 216.17 194.37 216.87 195.77 
M 225.26 212.56 227.36 216.75 
M 228.06 218.15 230.86 223.75 
M 226.5 209.56 230.7 217.95 
M 231.4 219.35 234.19 224.95 
M 229.14 209.36 236.13 223.35 
M 223.41 192.43 224.11 193.83 
M 224.81 195.23 225.51 196.63 
M 226.21 198.03 226.91 199.42 
M 232.5 210.62 239.5 224.61 
M 226.78 193.7 228.88 197.9 
M 229.58 199.29 230.28 200.69 
M 233.08 206.29 240.07 220.28 
M 203.57 141.81 207.07 148.8 
M 225.96 186.57 228.05 190.77 
M 228.75 192.17 230.15 194.97 
M 230.85 196.37 232.95 200.56 
M 237.85 210.36 241.34 217.35 
M 242.04 218.75 242.74 220.15 
M 248.34 231.34 249.04 232.74 
M 204.84 138.88 210.39 149.98 
M 228.63 186.44 235.62 200.43 
M 242.62 214.42 243.32 215.82 
M 249.61 228.41 253.01 235.22 
M 206.88 137.47 213.17 150.06 
M 230.23 184.17 236.26 196.23 
M 236.95 197.62 237.65 199.02 
M 251.64 227 254.44 232.6 
M 199.82 117.87 200.51 119.27 
M 201.91 122.07 202.61 123.47 
M 207.51 133.26 208.21 134.66 
M 210.31 138.86 215.2 148.65 
M 234.09 186.42 238.29 194.82 
M 238.99 196.22 239.69 197.61 
M 251.58 221.4 252.28 222.8 
M 252.98 224.2 258.33 234.89 
M 200.45 113.66 206.05 124.86 
M 210.24 133.25 217.24 147.24 
M 217.94 148.64 218.64 150.04 
M 235.42 183.62 241.02 194.81 
M 253.61 219.99 254.31 221.39 
M 255.01 222.79 260.99 234.74 
M 194.13 95.54 199.02 105.34 
M 199.72 106.74 200.42 108.14 
M 202.52 112.33 208.82 124.92 
M 213.71 134.72 219.31 145.91 
M 250.79 208.86 253.58 214.46 
M 255.68 218.66 257.08 221.46 
M 257.78 222.85 263.66 234.61 
M 196.28 94.38 202.58 106.98 
M 205.38 112.57 210.97 123.76 
M 215.87 133.56 216.57 134.96 
M 218.67 139.15 220.07 141.95 
M 245.25 192.32 246.65 195.11 
M 253.64 209.1 255.74 213.3 
M 256.44 214.7 257.84 217.5 
M 259.94 221.69 266.33 234.48 
M 197.74 91.82 199.84 96.02 
M 200.54 97.42 205.44 107.21 
M 207.53 111.41 213.13 122.6 
M 245.31 186.96 246.01 188.36 
M 247.41 191.15 250.9 198.15 
M 254.4 205.15 261.4 219.14 
M 262.8 221.93 266.99 230.33 
M 200.6 92.06 202.7 96.26 
M 203.4 97.66 206.19 103.26 
M 210.39 111.65 211.79 114.45 
M 212.49 115.85 213.89 118.64 
M 246.77 184.4 253.76 198.39 
M 255.16 201.19 263.55 217.97 
M 266.35 223.57 267.05 224.97 
M 203.47 92.34 205.57 96.54 
M 206.27 97.94 206.97 99.34 
M 207.67 100.73 208.37 102.13 
M 225.16 135.71 226.56 138.51 
M 227.26 139.91 227.96 141.31 
M 228.66 142.7 232.15 149.7 
M 248.53 182.45 248.94 183.28 
M 249.64 184.68 255.94 197.27 
M 257.34 200.06 265.03 215.45 
M 267.83 221.05 268.53 222.45 
M 207.05 94.02 209.15 98.22 
M 227.34 134.59 234.33 148.58 
M 235.03 149.98 235.51 150.93 
M 250.93 181.78 258.12 196.15 
M 260.21 200.35 267.91 215.74 
M 269.31 218.53 271.41 222.73 
M 273.51 226.93 274.9 229.73 
M 211.33 97.1 212.03 98.5 
M 212.73 99.9 213.43 101.3 
M 214.13 102.7 215.53 105.5 
M 216.23 106.9 216.93 108.3 
M 228.12 130.68 230.92 136.28 
M 231.62 137.68 236.51 147.47 
M 253.45 181.34 258.9 192.24 
M 259.6 193.64 260.3 195.04 
M 262.39 199.23 263.09 200.63 
M 263.79 202.03 268.69 211.82 
M 270.09 214.62 270.79 216.02 
M 271.49 217.42 277.08 228.61 
M 213.54 96.05 214.24 97.45 
M 214.94 98.85 220.54 110.04 
M 231.03 131.03 239.42 147.82 
M 256.19 181.34 256.21 181.39 
M 256.91 182.79 261.11 191.19 
M 261.81 192.59 262.51 193.99 
M 264.61 198.18 266.71 202.38 
M 267.4 203.78 268.1 205.18 
M 268.8 206.58 270.9 210.77 
M 273 214.97 280 228.96 
M 280.66 230.28 280.97 230.9 
M 215.1 93.7 222.79 109.08 
M 233.29 130.07 233.99 131.47 
M 234.69 132.87 241.68 146.86 
M 259.14 181.77 259.87 183.23 
M 260.57 184.63 261.97 187.43 
M 268.96 201.42 270.36 204.22 
M 274.56 212.61 275.26 214.01 
M 275.96 215.41 280.85 225.2 
M 281.55 226.6 282.98 229.46 
M 217.36 92.73 225.05 108.12 
M 236.24 130.51 241.84 141.7 
M 243.24 144.5 243.94 145.9 
M 262.27 182.55 262.83 183.67 
M 276.12 210.25 276.82 211.65 
M 277.51 213.05 281.01 220.05 
M 281.71 221.44 285.74 229.5 
M 218.93 90.41 226.62 105.8 
M 239.22 130.98 241.31 135.17 
M 242.71 137.97 244.11 140.77 
M 244.81 142.17 245.51 143.57 
M 267.9 188.34 268.6 189.74 
M 269.99 192.53 270.69 193.93 
M 271.39 195.33 272.09 196.73 
M 279.79 212.12 286.08 224.71 
M 286.78 226.11 287.63 227.8 
M 222.71 92.5 228.31 103.69 
M 229.01 105.09 229.71 106.49 
M 244.4 135.87 245.1 137.26 
M 268.88 184.83 269.58 186.23 
M 270.28 187.63 274.48 196.02 
M 280.77 208.61 281.47 210.01 
M 282.17 211.41 286.37 219.81 
M 287.07 221.21 288.47 224 
M 219.85 81.3 220.2 82 
M 224.4 90.39 225.1 91.79 
M 225.8 93.19 227.89 97.38 
M 228.59 98.78 229.29 100.18 
M 229.99 101.58 231.39 104.38 
M 235.59 112.77 236.29 114.17 
M 271.26 184.12 275.46 192.52 
M 276.16 193.92 277.56 196.71 
M 285.25 212.1 287.35 216.3 
M 288.75 219.1 289.45 220.5 
M 290.15 221.9 290.85 223.3 
M 228.18 92.48 228.88 93.88 
M 230.28 96.68 230.98 98.08 
M 231.68 99.47 232.38 100.87 
M 236.57 109.27 237.27 110.67 
M 240.07 116.26 240.77 117.66 
M 272.25 180.62 279.94 196.01 
M 289.74 215.59 290.43 216.99 
M 236.91 104.46 242.5 115.65 
M 252.99 136.64 253.69 138.04 
M 255.09 140.83 255.79 142.23 
M 276.08 182.8 280.98 192.6 
M 281.67 194 282.37 195.4 
M 293.57 217.78 294.27 219.18 
M 239.34 103.85 245.63 116.44 
M 252.63 130.43 253.33 131.83 
M 254.73 134.63 256.13 137.43 
M 257.53 140.22 258.92 143.02 
M 277.16 179.49 281.31 187.79 
M 282.01 189.19 284.11 193.39 
M 291.1 207.38 291.8 208.78 
M 293.2 211.57 297.4 219.97 
M 241.77 103.24 248.07 115.83 
M 254.36 128.42 256.46 132.62 
M 257.16 134.02 262.06 143.81 
M 280.24 180.19 280.94 181.58 
M 293.53 206.77 300.65 221 
M 244.19 102.61 249.09 112.41 
M 256.79 127.79 257.48 129.19 
M 258.18 130.59 263.08 140.39 
M 263.78 141.78 264.48 143.18 
M 294.56 203.34 302.91 220.04 
M 246.36 101.47 247.06 102.86 
M 247.76 104.26 249.86 108.46 
M 250.55 109.86 251.25 111.26 
M 257.55 123.85 265.94 140.64 
M 296.72 202.19 297.42 203.59 
M 298.82 206.39 304.42 217.58 
M 305.04 218.84 305.32 219.39 
M 250.56 104.39 251.26 105.79 
M 251.96 107.19 252.66 108.59 
M 253.36 109.99 254.06 111.39 
M 261.05 125.38 269.45 142.17 
M 289.03 181.34 289.73 182.74 
M 290.43 184.14 291.13 185.54 
M 291.83 186.93 293.23 189.73 
M 299.52 202.32 307.16 217.6 
M 251.88 101.55 255.37 108.55 
M 263.07 123.94 270.76 139.33 
M 277.06 151.92 277.36 152.53 
M 291.05 179.9 294.55 186.89 
M 295.25 188.29 295.95 189.69 
M 302.24 202.28 305.74 209.28 
M 308.54 214.87 309.24 216.27 
M 252.38 97.09 260.08 112.48 
M 265.67 123.67 266.37 125.07 
M 268.47 129.27 269.87 132.07 
M 270.57 133.47 273.37 139.06 
M 276.17 144.66 276.87 146.06 
M 277.56 147.46 280.15 152.63 
M 292.25 176.83 299.25 190.83 
M 305.55 203.42 306.24 204.82 
M 306.94 206.21 307.64 207.61 
M 309.04 210.41 309.74 211.81 
M 310.44 213.21 311.26 214.84 
M 238.41 63.66 238.76 64.36 
M 239.46 65.76 240.16 67.16 
M 250.65 88.15 252.05 90.95 
M 252.75 92.34 253.45 93.74 
M 254.15 95.14 259.04 104.94 
M 259.74 106.33 262.54 111.93 
M 268.84 124.52 269.53 125.92 
M 270.23 127.32 270.93 128.72 
M 272.33 131.52 273.03 132.92 
M 278.63 144.11 282.94 152.74 
M 294.72 176.29 300.31 187.48 
M 301.01 188.88 301.71 190.28 
M 239.34 60.05 243.18 67.74 
M 251.58 84.53 255.77 92.93 
M 256.47 94.33 257.17 95.72 
M 257.87 97.12 264.87 111.11 
M 280.26 141.89 285.73 152.84 
M 296.35 174.07 304.04 189.46 
M 240.17 56.24 246.11 68.13 
M 252.41 80.72 253.81 83.52 
M 254.51 84.92 260.8 97.51 
M 261.5 98.91 267.1 110.1 
M 282.49 140.88 288.08 152.07 
M 299.98 175.85 306.27 188.45 
M 242.03 54.49 247.98 66.38 
M 254.97 80.37 255.67 81.77 
M 256.37 83.17 265.46 101.36 
M 266.16 102.76 266.86 104.15 
M 267.56 105.55 268.26 106.95 
M 285.05 140.53 287.15 144.73 
M 288.55 147.52 289.95 150.32 
M 302.54 175.5 306.74 183.9 
M 307.43 185.3 308.13 186.7 
M 311.63 193.69 315.83 202.09 
M 244.18 53.32 248.73 62.42 
M 249.43 63.81 250.13 65.21 
M 254.33 73.61 255.03 75.01 
M 256.43 77.81 264.82 94.59 
M 265.52 95.99 266.22 97.39 
M 266.92 98.79 269.02 102.99 
M 289.3 143.56 290 144.96 
M 306.79 178.53 307.49 179.93 
M 312.39 189.73 313.09 191.13 
M 313.79 192.52 317.28 199.52 
M 317.98 200.92 318.68 202.32 
M 246.28 52.05 251.53 62.54 
M 252.93 65.34 253.63 66.74 
M 255.03 69.53 256.43 72.33 
M 259.22 77.93 259.92 79.33 
M 260.62 80.73 266.22 91.92 
M 266.92 93.32 268.32 96.12 
M 269.02 97.51 269.72 98.91 
M 296.3 152.08 296.89 153.27 
M 314.49 188.45 321.48 202.44 
M 248.64 51.29 250.74 55.48 
M 251.44 56.88 252.14 58.28 
M 252.84 59.68 253.54 61.08 
M 254.94 63.88 256.34 66.68 
M 257.04 68.08 260.53 75.07 
M 261.23 76.47 268.93 91.86 
M 278.72 111.45 279.42 112.84 
M 280.82 115.64 282.22 118.44 
M 296.91 147.82 299.69 153.38 
M 316.49 186.99 317.89 189.79 
M 318.59 191.19 324.19 202.38 
M 252.62 53.77 254.72 57.96 
M 256.82 62.16 263.11 74.75 
M 263.81 76.15 264.51 77.55 
M 266.61 81.75 270.81 90.14 
M 279.2 106.93 284.8 118.12 
M 298.79 146.1 302.28 153.1 
M 310.77 170.06 311.38 171.28 
M 316.97 182.48 318.37 185.27 
M 319.07 186.67 326.77 202.06 
M 257.85 58.76 266.94 76.94 
M 268.34 79.74 269.74 82.54 
M 280.93 104.92 281.63 106.32 
M 282.33 107.72 287.23 117.52 
M 292.83 128.71 293.53 130.11 
M 294.22 131.51 294.92 132.9 
M 295.62 134.3 296.32 135.7 
M 301.22 145.5 305.27 153.59 
M 313.11 169.28 313.81 170.68 
M 314.51 172.08 315.91 174.88 
M 318.71 180.47 320.11 183.27 
M 320.81 184.67 328.5 200.06 
M 260.17 57.92 260.87 59.32 
M 261.57 60.72 268.56 74.71 
M 282.55 102.69 283.25 104.09 
M 283.95 105.49 290.25 118.08 
M 293.75 125.08 296.55 130.67 
M 297.24 132.07 299.34 136.27 
M 302.14 141.86 302.84 143.26 
M 304.24 146.06 308.06 153.69 
M 314.63 166.84 314.73 167.05 
M 315.43 168.44 318.23 174.04 
M 318.93 175.44 319.63 176.84 
M 321.73 181.04 322.43 182.43 
M 323.13 183.83 330.12 197.82 
M 263.21 58.52 270.9 73.91 
M 273.7 79.5 276.5 85.1 
M 285.59 103.29 291.19 114.48 
M 295.38 122.87 297.48 127.07 
M 298.18 128.47 302.38 136.86 
M 305.18 142.46 305.88 143.86 
M 306.57 145.26 310.07 152.25 
M 316.77 165.64 319.87 171.84 
M 325.46 183.03 331.76 195.62 
M 265.22 57.08 269.42 65.47 
M 270.12 66.87 271.52 69.67 
M 274.32 75.26 280.61 87.86 
M 289.71 106.04 294.6 115.84 
M 298.1 122.83 304.4 135.42 
M 309.29 145.22 311.39 149.41 
M 312.09 150.81 312.79 152.21 
M 319.08 164.8 323.28 173.2 
M 329.58 185.79 330.28 187.19 
M 330.98 188.58 331.68 189.98 
M 269.26 59.68 271.36 63.87 
M 272.06 65.27 272.76 66.67 
M 276.25 73.67 276.95 75.06 
M 277.65 76.46 283.25 87.66 
M 290.94 103.05 291.64 104.44 
M 293.04 107.24 293.74 108.64 
M 294.44 110.04 295.84 112.84 
M 300.74 122.63 304.23 129.63 
M 321.41 163.98 325.22 171.6 
M 278.13 71.94 285.12 85.93 
M 285.82 87.33 286.52 88.73 
M 303.31 122.31 306.11 127.9 
M 323.93 163.55 325.7 167.08 
M 334.09 183.86 336.19 188.06 
M 271.52 53.25 272.22 54.65 
M 274.32 58.85 275.02 60.25 
M 279.92 70.04 280.62 71.44 
M 281.31 72.84 286.91 84.03 
M 298.1 106.41 299.5 109.21 
M 301.6 113.41 302.3 114.81 
M 313.49 137.19 314.89 139.99 
M 315.59 141.39 316.29 142.79 
M 333.78 177.76 337.28 184.76 
M 337.98 186.16 340.07 190.36 
M 272.51 49.76 273.21 51.16 
M 273.91 52.56 276.71 58.15 
M 277.41 59.55 278.11 60.95 
M 278.81 62.35 279.51 63.75 
M 284.4 73.54 286.5 77.74 
M 287.2 79.14 289.3 83.33 
M 300.49 105.72 302.59 109.91 
M 303.29 111.31 305.39 115.51 
M 314.48 133.7 320.08 144.89 
M 335.47 175.67 341.76 188.26 
M 274.11 47.48 281.11 61.47 
M 287.4 74.06 288.1 75.46 
M 289.5 78.26 290.2 79.66 
M 302.79 104.84 308.39 116.03 
M 316.08 131.42 321.68 142.62 
M 337.07 173.39 344.76 188.78 
M 277.04 47.86 277.74 49.26 
M 278.44 50.66 283.33 60.45 
M 284.03 61.85 284.73 63.25 
M 293.82 81.43 295.22 84.23 
M 302.22 98.22 302.92 99.62 
M 303.62 101.02 305.72 105.22 
M 306.42 106.62 310.61 115.01 
M 318.31 130.4 324.6 142.99 
M 339.99 173.77 345.59 184.96 
M 278.51 45.33 286.21 60.72 
M 293.9 76.11 296 80.31 
M 296.7 81.71 300.2 88.7 
M 305.09 98.5 312.79 113.89 
M 319.78 127.88 320.48 129.28 
M 321.18 130.67 324.68 137.67 
M 325.38 139.07 326.08 140.47 
M 336.57 161.45 337.27 162.85 
M 344.27 176.84 346.36 181.04 
M 347.06 182.44 347.76 183.84 
M 280.16 43.15 280.86 44.55 
M 282.25 47.35 288.55 59.94 
M 295.55 73.93 303.24 89.32 
M 306.74 96.31 313.73 110.3 
M 314.43 111.7 315.83 114.5 
M 324.92 132.69 326.32 135.48 
M 338.22 159.27 338.92 160.67 
M 339.61 162.06 341.01 164.86 
M 343.11 169.06 343.81 170.46 
M 282.86 43.08 287.75 52.87 
M 288.45 54.27 289.15 55.67 
M 298.25 73.86 305.94 89.24 
M 306.64 90.64 307.34 92.04 
M 310.14 97.64 317.83 113.03 
M 340.22 157.8 345.81 168.99 
M 346.51 170.39 347.21 171.79 
M 286.76 45.4 290.95 53.79 
M 299.35 70.58 308.44 88.77 
M 312.64 97.16 313.34 98.56 
M 314.04 99.96 316.83 105.55 
M 317.53 106.95 318.23 108.35 
M 333.62 139.13 334.32 140.53 
M 335.02 141.93 336.42 144.73 
M 337.12 146.13 337.82 147.53 
M 341.32 154.52 341.54 154.97 
M 341.74 155.37 347.61 167.11 
M 348.31 168.51 349.01 169.91 
M 301.57 69.55 302.27 70.95 
M 302.97 72.35 311.36 89.13 
M 312.06 90.53 314.86 96.13 
M 315.56 97.53 316.26 98.93 
M 318.36 103.12 319.06 104.52 
M 319.75 105.92 320.45 107.32 
M 334.44 135.3 335.14 136.7 
M 335.84 138.1 340.74 147.89 
M 344.24 154.89 350.53 167.48 
M 355.43 177.27 356.83 180.07 
M 304.26 69.46 304.96 70.85 
M 305.66 72.25 309.85 80.65 
M 310.55 82.05 312.65 86.24 
M 313.35 87.64 316.85 94.64 
M 317.55 96.04 318.25 97.44 
M 337.84 136.61 342.03 145 
M 342.73 146.4 344.13 149.2 
M 346.23 153.4 351.13 163.19 
M 351.83 164.59 353.22 167.39 
M 354.62 170.18 356.02 172.98 
M 356.72 174.38 358.12 177.18 
M 358.82 178.58 359.52 179.98 
M 308.23 71.91 308.92 73.31 
M 309.62 74.71 310.32 76.11 
M 311.02 77.51 313.12 81.71 
M 313.82 83.11 315.22 85.9 
M 315.92 87.3 320.12 95.7 
M 339 133.47 346 147.46 
M 349.5 154.46 354.39 164.25 
M 355.09 165.65 355.79 167.05 
M 356.49 168.45 362.47 180.4 
M 301.25 52.49 301.95 53.89 
M 302.65 55.29 305.45 60.88 
M 315.94 81.87 319.29 88.57 
M 319.73 89.46 321.48 92.95 
M 322.18 94.35 322.88 95.75 
M 341.07 132.13 346.66 143.32 
M 347.36 144.72 348.06 146.12 
M 355.06 160.11 355.76 161.51 
M 357.86 165.7 364.42 178.82 
M 302.22 48.96 308.52 61.55 
M 317.61 79.74 318.31 81.14 
M 319.01 82.54 320.03 84.57 
M 323.51 91.54 325.96 96.43 
M 335.75 116.02 336.45 117.42 
M 337.15 118.82 337.85 120.22 
M 338.55 121.62 339.25 123.02 
M 344.15 132.81 344.85 134.21 
M 345.55 135.61 349.04 142.6 
M 360.24 164.99 365.91 176.34 
M 303.63 46.3 309.23 57.49 
M 309.93 58.89 310.62 60.29 
M 311.32 61.69 312.02 63.09 
M 320.48 80 320.89 80.83 
M 327.32 93.68 327.67 94.38 
M 336.06 111.17 338.16 115.37 
M 338.86 116.76 342.36 123.76 
M 357.05 153.14 357.75 154.54 
M 358.45 155.94 359.15 157.34 
M 362.65 164.33 368.27 175.58 
M 304.67 42.91 313.06 59.69 
M 337.93 109.43 338.63 110.83 
M 339.33 112.23 345.63 124.82 
M 358.92 151.4 360.32 154.2 
M 364.51 162.59 365.91 165.39 
M 366.61 166.79 370.2 173.96 
M 307.68 43.46 308.03 44.16 
M 308.73 45.56 315.03 58.15 
M 315.73 59.55 316.43 60.95 
M 340.55 109.18 347.54 123.17 
M 357.33 142.76 358.03 144.16 
M 358.73 145.56 365.03 158.15 
M 370.62 169.34 371.32 170.74 
M 311.53 45.67 316.77 56.16 
M 343.28 109.17 348.17 118.96 
M 348.87 120.36 349.57 121.76 
M 360.06 142.75 367.06 156.74 
M 314.63 46.41 316.38 49.91 
M 317.08 51.31 318.48 54.11 
M 345.23 107.61 346.63 110.41 
M 347.33 111.81 348.03 113.21 
M 348.73 114.61 351.53 120.2 
M 362.72 142.59 364.12 145.38 
M 364.82 146.78 368.32 153.78 
M 375.45 168.04 375.93 169.01 
M 347.81 107.29 349.91 111.49 
M 350.61 112.88 352.01 115.68 
M 366 143.66 369.5 150.66 
M 352.16 110.51 352.51 111.21 
M 368.6 143.39 370 146.19 
M 370.7 147.59 372.1 150.39 
M 369.29 133.83 371.39 138.03 
M 358.87 107.51 359.92 109.61 
M 369.33 128.43 370.03 129.82 
M 371.43 132.62 374.92 139.62 
M 361.64 107.57 361.99 108.26 
M 371.58 127.45 377.87 140.04 
M 364.24 107.3 365.29 109.4 
M 373.89 126.6 374.59 128 
M 375.29 129.4 378.9 136.61 
M 366.64 106.62 366.99 107.32 
M 378.02 129.39 378.9 131.14 
M 213.98 291.39 212.08 297.7 
M 213.98 291.39 216.67 291.39 217.48 291.7 217.82 292.6 217.54 293.5 216.67 294.39 215.69 294.7 212.98 294.7 
M 222.95 293.5 221.69 297.7 
M 222.68 294.39 222.26 293.8 221.75 293.5 220.85 293.5 220.16 293.8 219.38 294.39 218.81 295.3 218.63 295.89 218.66 296.8 219.07 297.39 219.58 297.7 220.49 297.7 221.18 297.39 221.96 296.8 
M 225.35 293.5 224.08 297.7 
M 224.99 294.7 226.16 293.8 226.85 293.5 227.75 293.5 228.26 293.8 228.29 294.7 227.39 297.7 
M 228.29 294.7 229.46 293.8 230.15 293.5 231.05 293.5 231.56 293.8 231.58 294.7 230.69 297.7 
M 237.65 293.5 236.39 297.7 
M 237.38 294.39 236.96 293.8 236.45 293.5 235.55 293.5 234.86 293.8 234.08 294.39 233.51 295.3 233.33 295.89 233.36 296.8 233.77 297.39 234.29 297.7 235.19 297.7 235.88 297.39 236.66 296.8 
M 240.68 291.39 238.79 297.7 
M 242.45 293.5 241.55 296.5 241.58 297.39 242.08 297.7 242.99 297.7 243.68 297.39 244.85 296.5 
M 245.75 293.5 244.49 297.7 
M 250.88 294.39 250.76 293.8 249.95 293.5 249.05 293.5 248.06 293.8 247.58 294.39 247.7 295 248.21 295.3 249.62 295.6 250.13 295.89 250.15 296.8 249.68 297.39 248.69 297.7 247.79 297.7 246.98 297.39 246.86 296.8 
M 256.88 291.39 254.99 297.7 
M 261.95 293.5 260.69 297.7 
M 261.68 294.39 261.26 293.8 260.75 293.5 259.85 293.5 259.15 293.8 258.38 294.39 257.8 295.3 257.63 295.89 257.65 296.8 258.08 297.39 258.58 297.7 259.49 297.7 260.18 297.39 260.96 296.8 
M 264.35 293.5 263.08 297.7 
M 263.8 295.3 264.38 294.39 265.15 293.8 265.85 293.5 266.75 293.5 
M 267.64 293.5 268.19 297.7 
M 271.25 293.5 267.22 298.89 266.45 299.5 265.46 299.8 
M 273.97 291.39 272.45 296.5 272.47 297.39 272.99 297.7 273.58 297.7 
M 272.45 293.5 274.54 293.5 
M 277.27 291.39 275.39 297.7 
M 276.28 294.7 277.45 293.8 278.14 293.5 279.04 293.5 279.56 293.8 279.58 294.7 278.69 297.7 
M 281.75 293.5 282.28 297.7 
M 285.34 293.5 282.28 297.7 
M 286.31 295.3 289.9 295.3 290.08 294.7 289.96 294.1 289.25 293.5 288.34 293.5 287.65 293.8 286.88 294.39 286.31 295.3 286.13 295.89 286.15 296.8 286.58 297.39 287.08 297.7 287.99 297.7 288.68 297.39 289.45 296.8 
M 293.48 291.39 291.95 296.5 291.98 297.39 292.49 297.7 293.08 297.7 
M 291.95 293.5 294.04 293.5 
M 296.14 293.5 295.25 296.5 295.27 297.39 295.78 297.7 296.69 297.7 297.38 297.39 298.54 296.5 
M 299.45 293.5 298.19 297.7 
M 304.58 294.39 304.45 293.8 303.64 293.5 302.75 293.5 301.76 293.8 301.27 294.39 301.39 295 301.9 295.3 303.32 295.6 303.83 295.89 303.86 296.8 303.38 297.39 302.39 297.7 301.49 297.7 300.68 297.39 300.56 296.8 
M 306.16 297.1 305.77 297.39 305.99 297.7 306.38 297.39 306.16 297.1 
"/></svg>
