<svg xmlns="http://www.w3.org/2000/svg" width="520" height="320"><rect x="0" y="0" width="520" height="320" fill="floralwhite"/><rect x="10" y="10" width="500" height="300" stroke="black" stroke-width="1" fill="none"/><path stroke="black" stroke-width="1" fill="none" stroke-linecap="round" stroke-linejoin="round" d="
M 202.65 122.1 214.24 121.39 238.15 120.6 262.08 120.42 270.05 120.74 277.94 121.91 285.76 123.5 293.64 124.75 301.59 125.31 309.57 125.51 317.53 125.95 333.4 127.53 365.18 130.36 368.54 131.62 
M 368.54 178.81 363.57 181.18 355.77 182.86 339.95 184.89 332.02 185.74 292.18 187.67 276.3 189.2 260.39 190.54 
M 222.14 190.12 212.62 190.75 204.65 190.89 195.74 190.06 
M 206.7 152.54 211.17 151.5 
M 239.45 146.44 243.11 146.44 
M 246.81 146.48 250.49 146.47 
M 254.09 146.38 262.65 145.76 264.41 145.79 
M 267.98 145.96 284.42 148.03 295.21 149 302.39 149.32 320.74 152.1 
M 332.63 153.35 338.37 153.56 346.79 154.47 352.46 154.39 
M 356.07 154.1 361.23 153.29 367.43 151.42 368.54 151.22 
M 196.8 189.23 196.83 189.33 
M 202.7 184.99 203.81 188.16 
M 210.53 134.73 207.91 139.53 
M 210.56 185.69 211.04 187.57 
M 216.05 137.65 213.1 142.38 209.98 146.96 
M 207.31 150.59 206.79 151.28 
M 210.53 166.01 212.35 170.29 
M 227.67 131.17 225.41 134.05 
M 223.26 137.03 219.08 143.11 
M 216.76 145.92 213.83 149.29 
M 214.45 158.31 215.86 161.57 
M 234.75 130.22 231.27 134.49 228.02 138.96 
M 223.59 144.82 218.64 149.85 
M 224.45 165.91 224.99 167.51 
M 244.74 127.04 240.47 130.58 237.81 133.11 235.37 135.85 229.65 143.06 
M 226.75 146.35 225 148.23 
M 229.64 163.2 229.65 163.25 
M 246.76 131.58 243.95 133.99 
M 238.73 139.18 236.25 141.9 
M 233.29 145.08 231.57 146.91 
M 235.66 159.4 236.69 162.46 
M 254.14 131.11 250.17 134.84 242.73 142.99 238.89 146.43 
M 264.54 129.28 258.81 133.63 
M 256.1 136 254.81 137.25 251.23 141.37 
M 249.84 154.1 250.73 156.79 
M 271.53 130.28 265.95 134.64 
M 260.5 139.24 256.93 143.29 254.54 146.4 
M 259.31 159.2 259.74 160.41 
M 270.14 182.18 271.24 184.17 
M 280.71 129.21 277.98 131.35 
M 275.18 133.44 270.96 136.61 268.29 138.9 267.06 140.17 
M 264.61 142.73 262.61 144.9 
M 268.6 162.11 271.16 168.04 
M 272.62 171.18 279.12 183.34 
M 287.31 130.14 285.82 131.07 281.78 134.28 
M 279.09 136.44 275.12 139.8 269.4 146.04 
M 274.67 157.18 279.95 169.71 286.38 182 
M 288.97 134.98 287.69 136.1 284.13 139.77 
M 278.94 145.32 277.36 147.19 
M 284.24 161.14 286.98 167.64 288.4 170.55 295.61 182.96 
M 294.23 138.13 292.94 139.22 288.49 144.36 284.98 148.09 
M 287.3 152.66 290.66 158.91 
M 293.35 164.42 294.96 167.42 
M 296.98 170.83 299.14 174.38 
M 301.26 177.89 305.15 184.27 
M 305.27 137.68 302.42 139.58 
M 295.3 153.56 298.35 159.29 
M 300 162.24 301.98 165.51 
M 304.18 169 306.37 172.48 
M 308.43 175.84 314.14 184.96 
M 310.46 141.07 306.09 143.84 303.44 145.94 301.84 147.55 
M 306.88 160.2 313.33 170.28 
M 317.37 176.77 321.4 183.3 
M 326.67 136.13 325.65 137.56 323.21 139.97 321.79 140.96 
M 318.89 142.86 314.4 145.53 311.66 147.56 308.74 150.22 
M 312.14 155.39 314.11 158.52 
M 320.41 168.22 324.42 174.52 
M 327.88 180.36 329.47 183.09 
M 334.14 136.44 331.93 139.17 
M 329.61 141.74 327.11 144.1 
M 324.48 146.29 317.52 151.63 
M 327.46 166.26 332.33 173.73 337.89 183.33 
M 339.97 139.92 333.85 146.12 330.08 149.65 
M 327.5 151.85 326.21 152.93 
M 329.42 157.53 331.74 160.77 
M 334.22 164.16 338.42 170.21 
M 343.42 178.17 345.76 182.43 
M 345.56 142.99 339.3 149.13 334.39 153.41 
M 335.41 154.83 340.1 161.15 
M 342.57 164.43 349.59 174.47 351.31 177.14 353.85 181.67 
M 353 142.82 347.44 149.82 346.25 151.11 
M 344.06 153.25 343.06 154.11 
M 346.76 158.85 351.07 164.58 
M 353.15 167.4 356.05 171.46 361.34 179.87 
M 366.9 139.65 359.35 145.08 358.16 146.43 
M 355.89 149.25 353.17 152.6 
M 352.75 155.97 355.1 158.84 
M 359.46 164.28 362.41 168.11 367.95 176.16 
M 327.27 152.78 327.99 152.07 328.77 150.18 329.42 149.2 329.59 148.74 329.56 147.6 
M 229.05 138.19 229.79 138.45 230.4 138.31 231.42 137.37 231.6 136.72 
M 326.53 171.83 327.46 173.06 328.33 174.69 330.47 175.99 
M 267.14 149.81 266.39 150.52 265.1 151.24 263.73 151.54 261.98 151.58 261.05 151.48 259.44 150.76 258.1 149.9 257.14 148.79 
M 363.9 159.12 363.04 162.37 361.36 163.96 360.63 165.03 360.36 165.6 360.04 167.34 
M 302.29 147.25 302.27 145 302.67 142.26 303.22 140.76 304.07 139.42 305.49 136.6 
M 212.31 135.31 213.29 133.35 213.4 132.57 213.07 131.73 211.48 130.12 
M 291.12 165.4 292.99 165.78 294.54 165.86 295.42 165.34 296.4 164.1 
M 279.54 159.55 280.03 155.2 281.1 151.81 281.63 150.67 282.35 149.6 283.24 148.65 284.26 148.02 286.84 147.79 
M 310.58 161.46 312.01 159.57 312.29 158.68 312.45 156.86 312.19 155.96 308.43 150.65 307.9 150.09 306.92 149.51 
M 327.13 185.31 326.33 184.14 324.4 181.98 323.83 181.47 322.87 181.02 321.59 180.86 320.04 181.25 318.2 182.73 
M 288.91 175.82 288.25 176.41 287.63 176.62 287.11 176.58 284.5 175.5 283.95 174.94 283.84 174.59 284.1 172.4 
M 328.83 131.56 326.82 129.89 324.27 128.19 322.95 128.43 
M 335.21 129.78 330.29 127.21 
M 325.26 126.69 324.63 126.81 
M 333.77 173.82 333.28 174.95 331.93 175.85 
M 243.9 121.98 246.49 121.65 247.54 121.73 248.97 120.47 
M 254.34 157.18 254.55 155.09 255.45 151.1 255.43 149.98 255.19 146.2 254.61 144.88 253.84 143.65 
M 282.69 161.48 282.39 160.52 282.37 158.51 282.89 156.37 284.2 152.79 285.03 151.3 287.63 149.63 
M 291.8 165.98 293.34 166.78 293.74 167.15 293.82 169.01 293.57 169.67 291.97 171.03 291.53 171.69 
M 229.89 132.65 230.51 132.29 231.23 131.34 231.34 130.9 231.22 130.55 
M 311.92 179.72 314.5 178.92 315.3 179.12 
M 217.44 132.17 218.25 131.49 218.42 131.13 218.38 130.32 218.18 129.88 216.96 128.18 214.11 125.08 213.1 123.39 212.89 122.79 
M 261.47 141.69 261.18 142.2 261.1 143.09 262.43 145.78 262.96 147.81 
M 244.13 147.56 245.06 148.64 245.23 149.1 245.29 150.34 245.68 150.38 
M 234.37 157.36 234.53 156.2 234.29 153.4 232.18 149.6 
M 321.97 183.71 320.75 183.69 318.33 184.47 317.89 184.72 317.32 185.76 317.09 185.84 
M 207.25 146.93 208.15 148.35 208.84 151.64 
M 256.75 156.51 257.1 154.8 257.03 151.49 256.82 150.46 255.89 148.01 255.95 145.73 255.6 144.63 
M 251.56 155.11 251.97 152.8 251.8 148.36 250.29 144.46 
M 314.83 155.43 313.93 155.52 313.11 155.35 311.64 154.22 308.96 150.61 308.36 149.97 306.74 148.98 305.62 147.58 
M 257.62 120.48 259.01 118.07 261.14 112.53 263.01 103.89 265.02 99.38 265.53 96.11 266.73 93.39 268.27 91.34 269.61 88.5 271.63 85.6 272.46 83.1 273.6 80.34 274.74 78.35 276.36 76.06 278.8 73.72 282.8 68.54 285.22 63.75 286.79 61.79 292.6 57.32 294.12 55.39 295.82 52.51 297.55 50.29 299.34 48.41 301.7 47.72 304.75 47.38 307.25 46.34 311.99 42.02 313.63 39.67 317.26 37.91 320.15 35.1 322.84 33.23 325.01 32.73 327.15 30 315.92 48.87 314.43 51.16 311.18 55.47 310.42 58.49 309.15 61 308.35 63.98 307.13 66.47 305.66 68.63 304.58 71.19 304.04 74.28 303.17 80.68 302.92 83.54 302.5 85.89 302.62 94.32 301.37 95.86 300.05 98.14 299.08 104.37 298.34 107.24 297.54 109.96 296.57 112.5 295.35 114.79 295.06 118.51 297.1 125.08 
M 292 124.59 291.99 124.59 
M 262.29 120.42 263.84 117.82 264.71 115.26 265.93 109.55 266.31 106.46 266.99 103.64 268.87 98.84 273.64 91.24 274.79 88 275.3 85.73 280.05 79.34 282.31 77.2 288.14 69.9 
M 266.96 120.55 268.19 118.24 268.94 112.7 269.82 109.36 270.83 106.69 272.08 104.44 273.28 101.78 274.86 99.33 276.8 97.65 280.49 89.1 285.54 83.94 287.84 81.01 289.98 79.66 291.81 77.66 293.07 75.95 
M 271.62 120.87 272.69 118.8 274.41 113.26 275.7 110.13 277.18 107.72 278.48 104.92 280.12 102.69 282.1 100.52 283.54 98.52 284.7 95.92 
M 276.23 121.63 277.95 119.52 279.16 116.93 279.95 114.04 280.96 111.35 285.07 106.52 
M 280.82 122.49 282.72 120.65 283.91 118.23 284.85 115.32 289.63 111.21 292.56 109.72 295.85 107.63 
M 285.39 123.43 287.6 122.86 290.22 120.43 
M 205.33 171 207.85 170.99 210.71 170.64 217.46 169.37 221.1 168.35 224.18 167.96 226.98 166.41 228.66 163.81 229.99 163.06 263.47 160.08 269.47 165.54 271.3 168.83 271.74 172.71 270.7 175.12 269.5 177.37 267.67 179 266.42 181.55 264.43 183.48 263.55 186.53 262.46 189.4 259.91 190.8 255.7 194.51 253.05 195.93 230.07 195.67 229.1 194.52 225.19 192.46 222.92 190.39 220.3 189.47 217.35 187.18 214.3 186.17 211.31 186.12 208.18 184.32 205.17 181.73 203.19 180.43 
M 207.87 171.97 210.92 171.66 213.96 170.91 216.39 170.84 219.59 170.24 225.5 168.69 230.68 166.8 232.71 166.58 236.2 168.09 238.84 167.85 241.93 166.78 248.47 166.44 252.35 165.07 256.2 162.93 258.9 162.81 
M 211.15 173.35 213.63 173.4 216.36 172.87 219.06 172.9 221.4 172.52 224.82 172.63 228.05 172.38 230.57 171.86 233.65 172.41 237.95 173.49 
M 204.72 175.34 211.46 176.16 216.35 176.15 228.1 177.31 237.49 179.01 240.64 179.35 249.87 178.23 253.52 178.83 
M 204.28 177.05 208.41 178.56 214.01 179.55 217.23 179.83 220.12 180.49 225.58 182.18 227.95 183.26 235.19 183.62 237.63 182.69 240.75 182.76 244.27 184.19 249.69 187.58 253.05 187.19 255.66 186.69 258.68 187.75 
M 203.77 178.69 210.81 182.19 213.58 182.35 220.53 184.35 224.71 187.16 228.75 188.83 231.36 189.67 239.02 190.25 242.69 192.01 
M 228.81 194.36 229.17 194.59 
M 230.68 195.68 231.86 196.55 234.84 198.01 237.64 200.06 240.03 200.55 242.04 202.55 247.82 205.02 253.65 208 255.79 209.8 257.32 210.74 259.85 214.56 262.85 216.94 266.04 218.07 269.8 230.45 267.4 236.91 267.86 243.27 267.05 245.73 265.8 247.96 265.43 251.06 265.54 254.66 264.29 260.36 262 262.75 257.56 280 254.72 276.32 253.6 271.87 252.56 269.13 250.68 266.47 249.59 262.87 247.75 260.13 246.42 257.34 244.9 253.59 243.51 251.46 242.19 248.38 241.58 246.31 241.04 245.39 239.82 243.92 238.96 242 238.29 238.68 237.44 236 236.89 233.39 235.31 230.54 233.02 224.08 231.51 221.05 229.7 218.31 227.4 215.44 224.96 210.65 224.25 208.18 222.79 204.99 221.84 202.4 220.48 199.72 219.34 197 218.38 194.16 216.38 190.5 
M 221.39 190.11 227.04 195.48 231.52 199.32 236.39 202.63 238.8 204.65 241.37 207.36 243.74 209.28 
M 219.53 190.25 222.31 193.41 224.31 196.02 226.5 198.14 232.06 204.55 236.82 209.04 239.49 211.17 244.67 218.92 246.64 221.47 249.22 224.17 
M 217.67 190.4 220.06 193.83 223.02 199.12 226.62 203.49 227.69 206.08 231.22 212.19 233.38 214.73 235.87 216.53 237.12 218.94 237.95 222.13 239.62 224.86 241.43 226.91 
M 353.86 183.21 357.99 188.47 360.48 191.28 363.48 193.19 365.14 196.8 360.85 197.87 358.43 198.98 352.89 200.31 349.35 199.69 344.97 202.88 343.04 204.66 340.4 205.95 337.4 206.87 334.78 208.15 331.03 212.19 330.34 215.45 327.95 216.87 324.89 217.37 324.95 221.12 323 222.77 320.36 223.97 318.45 225.88 317.27 231.61 318.55 239.06 314.21 243.12 312.66 242.04 311.35 239.2 308.81 236.44 305.99 233.87 301.99 228.51 300.79 225.6 298.87 222.59 297.78 220.3 296.69 218.55 295.65 215.63 294.13 212.85 286.65 203.04 285.68 200.17 282.45 194.83 278.25 189.05 
M 349.23 183.78 355.36 192.57 358.19 194.57 
M 344.59 184.34 348.33 189.46 350.12 193.93 351.75 196.74 
M 339.95 184.89 343.46 190.07 345.87 194.09 
M 335.31 185.42 338.87 190.41 343.24 197.16 344.21 200.04 
M 330.66 185.82 334 190.44 335.97 193.93 338.15 196.91 339.68 199.48 341.76 202.2 
M 326 186.11 329.33 190.86 331.76 195.05 333.94 198.46 336.62 203.99 
M 321.33 186.31 324.8 190.86 329.12 198.38 
M 316.67 186.55 319.91 190.78 324.28 197.63 325.84 200.21 326.86 202.86 
M 312.01 186.81 315.22 190.87 318.91 197.29 320.58 199.75 
M 307.34 187.02 310.35 190.91 312.9 194.74 314.72 196.93 315.61 199.84 317.35 202.91 
M 302.68 187.21 306.97 194.9 311.02 199.77 311.69 202.11 
M 298.01 187.4 301.77 195.13 305.09 200.43 305.99 202.53 307.87 205.04 309.73 207.94 
M 293.35 187.61 295.51 191.58 296.95 194.97 300.39 200.12 301.42 202.46 302.94 204.98 308.9 214.19 310.62 218.97 314.24 224.54 317.11 227.87 
M 288.69 187.97 295.52 199.48 296.86 202.55 298.56 205.4 303.26 211.11 304.74 213.86 307.08 216.64 
M 284.04 188.41 286.38 191.7 288.02 194.85 289.82 197.22 290.95 199.37 292.72 201.15 296.02 207.72 298.09 211.21 300.69 213.93 303.51 218.93 303.53 219.78 304.79 222.26 306.93 225.76 
M 367.61 130.6 370.7 129.85 373.54 128.85 378.92 126.12 383.51 122.39 388.48 119.2 391.38 118.37 398.59 114.52 401.22 112.88 402.96 111.48 405.86 110.49 408.19 108.71 411.63 105.12 413.82 102.59 418.32 99.27 421.08 98.99 423.53 97.2 425.27 95.72 429.1 93.86 433.46 93.06 436.25 92.82 438.7 90.83 440.56 88.07 442.61 86.78 443.37 87.4 443.92 93.21 443.9 102.16 442.69 104.55 442.44 107.94 441.12 110.26 440.21 115.32 440.05 118.12 439.58 120.7 437.95 122.61 437.58 125.8 435.95 131.38 435.58 134.55 433.25 139.01 433.54 142.48 432.78 144.8 432.67 147.79 431.88 149.77 431.61 152.13 432.24 162.24 432.24 165.26 431.76 167.56 431.13 169.22 431.01 171.39 433.24 174.89 435.64 178.19 435.86 181.47 435.48 186.43 436.39 189.13 438.03 192.74 437.83 194.92 437.41 196.89 437.32 198.94 438.04 201.48 440.27 205.54 441.65 208.95 441.68 212.17 440.74 214.44 439.78 216.01 439.9 218.15 442.06 224.84 446.63 234.42 441.73 232.75 438.27 228.92 435.65 226.91 433.4 225.92 431.78 224.44 428.96 222.36 426.5 221.08 425.3 218.52 421.11 215.32 418.08 213.84 415.07 212.61 413.07 211.33 410.53 210.34 408.3 208.16 405.13 205.67 402.59 204.03 395.06 198.47 393.16 198.17 390.57 196.44 385.74 192.6 380.57 189.74 378.38 188.1 375.81 186.5 367.61 180.06 
M 376.8 130.53 381.48 128 383.95 126.84 389.36 123.77 391.58 121.96 394.57 121.09 399.31 118.51 401.53 117.09 407.26 115.57 409.38 113.56 411.7 111.05 
M 377.06 133.9 382.35 131.73 384.53 130.43 387.08 129.6 389.92 128.23 392.27 126.86 395.18 125.79 397.57 124.26 399.93 123.07 402.58 122.33 407.95 120.12 412.51 116.21 416.6 115.28 418.83 113.75 
M 367.61 138.02 370.92 137.85 376.99 136.72 380.1 135.75 383.03 134.6 385.51 133.16 387.96 132.09 390.09 131.48 394.99 128.89 397.6 128.22 403.31 125.47 408.98 124.18 410.74 123.47 412.48 122.48 414.77 121.93 
M 377.18 139.51 380.36 138.65 383.26 136.96 387.98 135.01 390.6 135.02 398.83 132.77 401.56 131.67 405.1 129.37 
M 370.99 142.89 378.15 141.95 383.15 139.85 385.85 138.9 388.52 138.36 391.36 138.13 394.41 139.39 397.6 138.75 399.78 137.49 404.53 134.01 407.49 132.79 
M 371.22 145.59 378.09 144.64 389.16 141.95 391.8 142.45 395.16 143.44 398.39 143.14 400.12 141.31 402.55 139.72 405.09 139.3 407.62 138.43 410.14 138 414.03 139.35 416.54 138.66 419.35 136.95 422.78 136.62 425.95 136.77 428.01 135.6 
M 367.61 147.91 371.29 148.36 374.65 147.88 378.17 147.71 383.85 146.9 386.04 146.14 389.22 146.14 396.59 146.88 399.92 146.82 403.89 144.56 407.11 144.34 408.85 143.6 411.29 143.73 413.87 144.53 416.53 144.44 
M 374.68 150.71 377.89 150.37 381.13 150.74 384.29 150.82 386.65 150.46 393.06 150.59 396.59 151.33 399.77 150.72 402.29 149.76 405.49 149.5 408.3 148.78 
M 371.66 153.85 374.67 153.56 380.51 153.68 386.36 155 392.6 155.29 395.73 155.72 399 155.56 402.83 154.54 405.77 154.11 409.11 154.55 412.22 152.87 414.55 152.1 414.88 153.22 
M 367.61 155.33 371.52 156.51 380.16 156.54 383.03 157.86 386.23 158.94 392.19 158.68 395.8 158.71 401.78 159.61 405.38 158.8 408.82 158.41 411.31 159.03 413.53 158.54 415.92 157.78 419.13 157.35 421.29 157.64 422.8 158.72 
M 371.29 158.79 379.96 159.92 386.93 162.07 390.04 162.39 392.62 161.68 395.03 161.77 398.09 162.19 401.77 163.38 405.88 163.07 409.26 163.23 
M 367.61 160.28 374.09 162.11 379.81 162.98 386.6 165.42 390.01 165.97 392.72 166.18 395.32 165.75 398.56 165.96 402.06 166.85 405.43 168.24 409 169.33 411.02 169.19 414.14 170.21 417.14 170.76 419.52 170.63 421.21 171.27 426.83 171.72 
M 367.61 162.75 370.56 163.93 379.96 166.36 383.27 167.73 389.09 169.21 392.37 169.3 395.53 169.74 398.57 170.82 400.86 170.78 407.36 172.51 412.55 173.35 418.16 174.78 
M 370.83 166.59 376.48 168.69 379.95 169.51 383.47 170.71 386.2 171.36 388.85 171.67 392.53 172.79 395.5 174.59 398.19 175.83 401.3 175.87 
M 371.15 169.4 376.71 172.11 383.19 173.86 385.69 173.6 388.94 174.47 392.32 176.12 395.49 178.17 397.07 179.78 403.19 181.24 405.5 181.11 407.88 181.91 409.73 183.57 411.85 185.88 414.75 187.55 
M 370.96 172.02 376.86 175.22 382.63 177.22 385.33 177.72 387.95 178.83 391.21 180.8 394.02 182 395.69 183.53 401.91 185.43 403.72 186.28 
M 376.92 178.17 382.14 180.88 387.12 182.48 395.3 186.96 398.41 188.11 401.26 189.71 404.33 189.98 407.47 191.5 410.41 192.11 413.18 193.32 418.28 195.99 420.74 198.64 
M 367.61 175.12 370.75 177.26 376.66 180.91 386.79 186.41 395.14 190.38 400.5 193.25 406.36 195.59 409.34 196.5 411.33 198.61 
M 367.61 177.59 370.75 179.96 373.78 181.93 376.34 184.04 378.93 185.48 381.07 186.92 383.82 188.24 386.6 190.22 388.98 190.81 390.91 192.55 393.77 193.92 396.57 195 399.12 196.5 402.17 197.94 404.5 199.61 406.2 200.61 408.58 203.81 411.35 206.13 416.54 208.3 419.76 209.92 423.5 211.09 428.87 214.39 430.84 215.06 431.86 216.67 434.16 218.55 436.29 219.97 438.67 221.94 
M 77.5 144.81 78.42 144.4 81.48 143.62 85.62 142.9 91.02 141.7 98.01 139.88 106.13 137.59 115.12 134.7 124.82 132.87 133.84 130.66 153.05 127.28 162.73 125.82 171.9 124.84 188.04 123.8 194.72 123.2 202.65 122.15 205.18 125.95 206.64 133.33 207.59 137.05 208.06 140.71 207.3 144.25 207.23 147.86 206.77 151.43 206.55 155.02 206.05 158.59 205.2 162.12 204.85 165.7 205.38 169.37 205.28 172.98 204.45 176.51 203.36 180.02 201.87 183.49 199.89 186.9 195.74 190.02 180.15 189.45 168.7 188.5 158.34 186.9 148.79 184.75 140.11 183.06 123.94 178.41 116.78 175.52 110.26 172.53 97.1 167.31 91.55 164.63 
M 89.53 163.15 86.93 161.25 83.11 158.04 80.35 155.42 79.7 154.44 
M 175.69 142.02 175.03 145.06 174.08 148.02 172.54 150.84 170.6 153.48 169.29 155.91 169.23 158.15 169.59 161.95 172.05 168.89 171.3 171.62 153.52 171.8 146.07 171.42 131.5 169.64 124.41 168.02 117.65 166.05 
M 87.07 160.9 79.42 154.19 76.08 151.07 74.45 149.27 73.57 147.13 74.52 145.03 76.74 144.27 78.7 145.67 81.37 149.58 85.49 154.96 91.99 164.23 
M 91.45 164.96 87.02 163.5 80.34 161.73 75.99 160.39 73.86 159.11 73.36 156.9 74.96 155.08 77.37 155.05 83.14 158.37 91.85 164.12 
M 134.62 155.57 132.05 151.97 130.78 147.73 130.97 143.31 132.57 139.19 135.43 135.82 139.23 133.55 143.56 132.65 147.95 133.19 151.92 135.13 155.05 138.26 156.99 142.23 157.54 146.62 156.63 150.95 154.37 154.75 150.99 157.61 146.87 159.22 142.45 159.4 138.22 158.14 134.62 155.57 
M 152.86 139.82 154.42 143 154.85 146.51 154.13 149.97 152.32 153.01 149.62 155.3 146.32 156.59 142.79 156.73 139.4 155.72 136.52 153.67 
M 139.62 149.17 138.59 147.73 138.08 146.03 138.16 144.26 138.8 142.62 139.94 141.27 141.46 140.36 143.19 140 144.95 140.22 146.54 140.99 147.79 142.24 148.56 143.83 148.78 145.59 148.42 147.32 147.52 148.84 146.17 149.98 144.52 150.63 142.75 150.7 141.05 150.19 139.62 149.17 
M 139.57 147.14 143.11 150.68 
M 141.37 146.42 145.28 150.33 
M 141.63 144.16 146.86 149.39 
M 143.53 143.54 148.01 148.02 
M 142.82 140.3 148.67 146.15 
M 146.25 141.21 148.27 143.24 
M 79.95 144.01 84.07 148.12 
M 84.62 143.07 88.62 147.06 
M 89.25 142.09 92.75 145.6 
M 93.75 140.99 97.4 144.64 
M 98.19 139.83 101.8 143.43 
M 102.56 138.59 106.34 142.38 
M 106.91 137.34 109.92 140.35 
M 111.15 135.97 115.18 140.01 
M 115.42 134.64 119.64 138.86 
M 120.13 133.75 123.4 137.02 
M 124.85 132.86 129 137.02 
M 129.35 131.76 133.78 136.19 
M 133.85 130.66 137.68 134.48 
M 138.59 129.79 141.81 133.01 
M 143.33 128.92 147.51 133.11 
M 148.12 128.11 151.08 131.07 
M 152.91 127.3 156.13 130.52 
M 157.78 126.57 163.14 131.93 
M 162.65 125.83 165.99 129.17 
M 167.71 125.29 172.24 129.82 
M 172.81 124.79 176.83 128.81 
M 178.1 124.47 182.02 128.39 
M 183.36 124.13 187.08 127.85 
M 188.59 123.75 191.63 126.8 
M 193.73 123.29 198.71 128.27 
M 198.78 122.73 203 126.95 
M 160.32 136.65 158.71 135.22 157.38 134.38 156.36 134.34 155.45 134.51 153.55 135.39 
M 120.74 167.96 121.53 166.62 123.27 162.9 123.66 162.41 
M 153.08 166.33 153.74 167.93 154.1 168.21 154.89 168.21 155.59 167.65 155.86 167.24 156.08 166.21 155.99 164.75 
M 91.6 143.39 91.53 141.57 
M 166.85 128.53 170.88 126.18 172.37 124.81 
M 175.07 139.87 174.29 137.93 173.82 137.73 173.48 137.88 
M 189.78 141.48 191.13 143.23 192.17 145.03 192.85 145.46 194.27 145.62 
M 198.58 133.86 195.19 129.36 195.02 128.98 195.07 128.67 
M 190.29 165.23 189.98 163.65 189.71 160.08 189.2 158.4 188.57 157.47 188.08 157.14 185.88 156.17 
M 193.4 189.04 192.36 189.9 
M 182.46 169.59 185.02 169.41 186.28 169.73 189.06 172.96 
M 181.74 181.61 181.47 183.61 181.63 185.53 181.48 185.73 181.25 185.72 
M 156.41 161.76 155.3 159.91 154.9 157.91 153.97 155.08 
M 173.33 161.05 172.6 161.9 171.86 163.78 170.09 167.2 
M 113.44 139.39 112.6 137.63 112.51 135.53 
M 195.45 167.61 193.59 167.01 192.9 166.49 192.59 166.05 191.63 164.09 190.98 160.61 
M 154.99 127.59 152.44 130.68 151.95 131.94 
M 142.26 178.94 141.37 180.09 139.98 183.03 
M 197.7 177.56 196.47 178.03 195.51 178.99 194.87 180.75 194.03 182.09 193.96 182.63 
M 114.65 145.12 114.16 145.19 112.92 144.87 112.02 144.9 108.93 145.51 
M 177.2 124.91 177.3 124.52 
M 114.56 157.36 113.93 158.35 113.39 158.73 111.9 159.3 110.82 159.27 108.66 158.02 108.22 157.54 107.98 156.16 
M 164.83 130.19 165.87 129.09 167.08 128.7 168.32 127.83 
M 163.01 143.34 163.41 143.73 164.31 143.67 169.01 140.67 
M 175.83 187.04 175.47 188.03 174.44 188.98 
M 162.91 152.26 161.51 151.7 159.46 150.18 158.82 148.66 157.51 146.84 
M 142.79 132.81 141.88 132.28 
M 151.83 181.78 151.1 179.54 150.83 179.01 150.12 178.32 149.51 178.14 149.02 178.21 147.57 179.09 
M 117.09 170.93 118.02 172.78 118.43 174.4 119.58 176.65 
M 112.4 167.94 112.01 168.2 111.97 168.51 112.63 169.98 113.27 172.5 
M 143.42 178.03 142.99 179.04 142.1 180.18 140.7 183.18 
M 171.71 169.17 169.22 170.5 168.44 170.67 166.82 170.38 165.67 169.74 165.26 169.31 164.07 167.81 163.4 166.52 
M 94.38 161.58 94.76 159.95 
M 132.06 138.89 133.42 138.19 
M 170.13 175.06 166.39 174.16 166.07 173.73 165.67 171.97 164.97 170.5 
M 163.06 152.77 161.57 152.37 160.56 151.89 158.95 150.79 158.54 150.19 157.45 147.03 
M 141.18 165.97 139.44 164.89 138.96 164.13 138.74 163.24 
M 182.6 183.56 182.39 185.18 182.22 185.43 
M 194.16 143.22 195.62 143.34 196.75 142.91 
M 194.96 136.79 192.89 135.49 189.77 134.02 188.42 132.69 188.3 132.22 188.41 131.78 189.07 130.71 189.89 130.1 190.58 129.9 
M 119.42 167.15 118.53 167.89 117.64 168.14 
M 131.41 159.1 133.06 157.54 133.97 157.17 136.65 157.02 
M 199.05 148.36 199.15 148.81 199.01 148.93 198.84 148.81 
M 189.65 158.78 188.79 157.48 187.72 156.85 184.5 155.58 180.11 154.52 
M 169.33 135.02 169.64 137.01 169.66 138.48 169.53 138.87 
M 162.47 160.9 159.75 158.21 158.08 157.43 156.52 156.2 155.03 153.64 
M 179.91 134.94 178.07 134.58 175.61 133.5 175.14 133.52 174.65 133.91 173.72 135.62 
M 158.39 178.98 158.21 179.62 157.43 180.3 156.86 180.42 156.3 180.22 
M 84.6 162.86 89.92 165.79 93.78 167.46 97.78 168.87 110.26 172.53 
M 206.23 131.34 207.87 132.98 
M 204.31 121.95 212.82 130.47 
M 211.32 121.5 217.1 127.28 
M 218.56 121.26 229.15 131.85 
M 225.84 121.07 233.97 129.2 
M 233.04 120.8 239.82 127.58 
M 240.25 120.54 249.8 130.08 
M 247.66 120.47 257.12 129.94 
M 255.15 120.49 264.9 130.25 
M 262.55 120.42 271.31 129.18 
M 270.37 120.76 281.4 131.8 
M 279.24 122.16 289.97 132.9 
M 288.53 123.98 297.45 132.91 
M 297.09 125.07 307.8 135.78 
M 304.89 125.4 311.52 132.03 
M 312.54 125.58 322.9 135.94 
M 320.65 126.21 331.77 137.34 
M 328.98 127.07 338.31 136.41 
M 337.24 127.87 347.28 137.9 
M 345.47 128.62 353.5 136.65 
M 353.71 129.39 363.18 138.86 
M 361.82 130.03 371.13 139.34 
M 371.87 132.61 373.83 134.57 
M 201.78 183.64 205.41 190.9 
M 203.78 181.1 208.71 190.95 
M 208.85 184.71 211.65 190.29 
M 212.84 186.15 213.15 186.77 
M 216.48 186.89 217.08 188.09 
M 207.42 155.7 209.09 159.04 
M 209.93 160.71 210.77 162.38 
M 207.2 148.72 213.89 162.09 
M 210.33 148.44 216.18 160.13 
M 217.01 161.8 217.85 163.47 
M 207.26 135.76 207.61 136.47 
M 212.63 146.49 214.3 149.83 
M 215.13 151.5 220.15 161.53 
M 222.65 166.54 223.41 168.06 
M 204.9 124.51 211.59 137.87 
M 216.6 147.9 221.61 157.92 
M 224.12 162.93 226.1 166.89 
M 207.22 122.6 213.9 135.97 
M 227.27 162.7 228.19 164.54 
M 211.22 124.05 215.39 132.41 
M 230.43 162.48 230.69 163 
M 215.26 125.61 216.1 127.28 
M 223.61 142.31 225.29 145.65 
M 226.12 147.33 228.63 152.34 
M 233.64 162.36 233.82 162.72 
M 225.99 140.52 232.67 153.89 
M 230.06 142.12 235.07 152.15 
M 230.79 137.04 235.8 147.07 
M 234 136.94 234.84 138.61 
M 235.67 140.28 239.01 146.96 
M 244.86 158.66 245.7 160.33 
M 237.22 136.83 238.05 138.5 
M 239.72 141.84 240.56 143.51 
M 248.08 158.55 249.47 161.33 
M 240.42 136.7 245.43 146.72 
M 248.77 153.4 252.6 161.05 
M 264.21 184.27 264.65 185.15 
M 265.48 186.82 266.47 188.8 
M 242.78 134.89 247.8 144.91 
M 251.97 153.27 255.72 160.77 
M 266.22 181.75 267.01 183.34 
M 267.85 185.01 268.68 186.68 
M 243.49 129.77 252.68 148.14 
M 256.02 154.83 258.53 159.84 
M 267.97 178.73 272.82 188.42 
M 245.88 128 255.07 146.38 
M 270.05 176.34 275.12 186.48 
M 249.13 127.97 258.32 146.35 
M 271.63 172.96 275.03 179.76 
M 251.58 126.33 259.1 141.37 
M 261.61 146.38 262.44 148.05 
M 263.28 149.72 266.62 156.4 
M 273.3 169.77 274.97 173.11 
M 275.81 174.78 277.48 178.12 
M 278.31 179.79 279.15 181.47 
M 255.69 128.02 257.36 131.36 
M 258.2 133.03 259.87 136.37 
M 264.05 144.73 269.06 154.75 
M 283.26 183.15 284.1 184.82 
M 266.48 143.04 272.32 154.74 
M 284.02 178.13 288.35 186.8 
M 259.71 122.98 263.05 129.66 
M 268.06 139.68 274.75 153.05 
M 284.77 173.1 290.62 184.79 
M 261.57 120.15 267.42 131.85 
M 271.59 140.2 275.77 148.56 
M 276.61 150.23 278.28 153.57 
M 287.47 171.95 289.97 176.96 
M 290.81 178.63 293.31 183.64 
M 264.48 119.45 271.17 132.81 
M 276.18 142.84 277.85 146.18 
M 278.69 147.85 280.36 151.19 
M 283.7 157.87 284.53 159.54 
M 285.37 161.22 286.2 162.89 
M 290.38 171.24 295.39 181.26 
M 266.22 116.38 273.74 131.42 
M 283.76 151.47 287.1 158.15 
M 287.94 159.82 288.77 161.49 
M 296.29 176.53 297.13 178.2 
M 263.79 104.98 264.2 105.81 
M 269.22 115.84 275.06 127.53 
M 285.92 149.25 290.94 159.28 
M 292.61 162.62 293.44 164.29 
M 300.96 179.33 304.86 187.13 
M 265.17 101.21 267.26 105.38 
M 272.27 115.41 276.45 123.76 
M 288.14 147.15 294.83 160.52 
M 302.34 175.55 308.06 186.99 
M 266.36 97.04 266.77 97.88 
M 267.61 99.55 268.45 101.22 
M 280.98 126.28 281.81 127.95 
M 291.84 148 297.68 159.69 
M 306.04 176.4 311.26 186.84 
M 282.83 123.46 286.18 130.14 
M 295.36 148.52 297.87 153.53 
M 308.73 175.25 311.24 180.26 
M 312.07 181.93 313.88 185.56 
M 286.14 123.53 290.32 131.89 
M 312.87 177 313.71 178.67 
M 271.72 88.15 274.64 94 
M 286.34 117.39 292.18 129.08 
M 273.1 84.37 279.36 96.9 
M 290.22 118.62 295.23 128.64 
M 274.75 81.14 282.69 97.01 
M 293.55 118.73 294.38 120.4 
M 295.11 121.85 295.41 122.47 
M 297.12 125.87 297.95 127.54 
M 312.15 155.95 316.33 164.3 
M 277.96 81.03 282.14 89.38 
M 282.98 91.05 285.48 96.06 
M 313.87 152.84 319.72 164.54 
M 281 80.56 286.01 90.59 
M 316.35 151.26 322.2 162.95 
M 325.54 169.64 326.37 171.31 
M 327.21 172.98 328.88 176.32 
M 285.52 83.06 287.19 86.41 
M 319.66 151.34 326.34 164.71 
M 328.01 168.05 331.35 174.73 
M 332.19 176.4 333.02 178.07 
M 336.29 184.6 336.62 185.27 
M 291.64 88.76 293.31 92.1 
M 323.8 153.09 324.64 154.76 
M 325.47 156.43 326.31 158.1 
M 329.65 164.79 335.5 176.48 
M 290.8 80.55 294.98 88.9 
M 295.81 90.57 296.65 92.24 
M 313.34 125.64 314.6 128.14 
M 331.3 161.56 337.15 173.25 
M 337.99 174.92 339.66 178.27 
M 292.62 77.66 300.14 92.7 
M 300.98 94.37 301.93 96.26 
M 316.74 125.89 319.66 131.74 
M 333.03 158.47 341.38 175.18 
M 342.22 176.85 343.05 178.52 
M 294.93 75.74 295.77 77.41 
M 296.6 79.08 302.52 90.91 
M 320.14 126.16 321.4 128.67 
M 322.23 130.34 323.07 132.01 
M 335.6 157.07 336.43 158.74 
M 337.27 160.41 343.12 172.11 
M 343.95 173.78 344.79 175.45 
M 291.01 61.35 291.42 62.18 
M 292.26 63.85 293.09 65.53 
M 299.78 78.89 303.01 85.35 
M 323.59 126.52 324.01 127.35 
M 324.84 129.02 325.68 130.69 
M 341.55 162.44 344.06 167.45 
M 344.89 169.12 345.73 170.79 
M 293.25 59.3 296.17 65.15 
M 301.19 75.17 303.63 80.07 
M 327.04 126.87 327.45 127.71 
M 336.64 146.08 339.98 152.77 
M 344.16 161.12 345 162.79 
M 349.17 171.15 350.01 172.82 
M 351.68 176.16 352.52 177.83 
M 295.12 56.5 298.88 64.02 
M 333.41 133.08 334.24 134.75 
M 335.92 138.09 336.75 139.76 
M 338.42 143.1 345.1 156.47 
M 350.95 168.16 355.96 178.19 
M 297.02 53.77 300.78 61.28 
M 333.93 127.58 334.35 128.41 
M 335.18 130.08 340.19 140.11 
M 341.03 141.78 341.86 143.45 
M 342.7 145.12 346.88 153.47 
M 352.72 165.17 359.41 178.54 
M 299.13 51.43 302.05 57.28 
M 337.35 127.88 339.44 132.05 
M 340.27 133.73 343.61 140.41 
M 344.45 142.08 350.3 153.77 
M 356.98 167.14 358.65 170.48 
M 359.48 172.15 361.15 175.49 
M 301.93 50.5 304.85 56.35 
M 306.52 59.69 307.36 61.36 
M 308.36 63.37 308.95 64.54 
M 340.77 128.18 346.2 139.04 
M 347.03 140.71 351.21 149.07 
M 357.89 162.43 362.91 172.46 
M 307.08 54.26 310.48 61.06 
M 344.2 128.5 349.63 139.36 
M 350.46 141.03 352.13 144.38 
M 352.97 146.05 354.64 149.39 
M 362.99 166.1 363.83 167.77 
M 308.88 51.32 309.71 53 
M 310.55 54.67 311.89 57.34 
M 347.63 128.83 350.55 134.67 
M 310.31 47.66 313.85 54.74 
M 351.47 129.98 352.31 131.65 
M 357.32 141.68 358.16 143.35 
M 359.83 146.69 360.66 148.36 
M 313.35 47.19 314.18 48.86 
M 315.17 50.83 315.73 51.96 
M 359.07 138.64 363.25 146.99 
M 364.09 148.67 365.76 152.01 
M 314.14 42.23 316.22 46.41 
M 359.96 133.89 369.15 152.26 
M 316.77 40.95 318.87 45.15 
M 362.53 132.49 371.72 150.86 
M 319.05 38.98 320.48 41.83 
M 365.97 132.82 366.81 134.49 
M 367.64 136.16 373.49 147.86 
M 321.36 37.07 322.85 40.04 
M 369.54 133.43 370.38 135.1 
M 371.21 136.77 372.05 138.44 
M 372.88 140.11 373.89 142.13 
M 323.98 35.77 324.3 36.41 
M 372.98 133.77 373.94 135.69 
M 237.68 291.39 233.39 297.7 
M 237.68 291.39 238.19 297.7 
M 234.92 295.6 237.92 295.6 
M 240.95 293.5 239.69 297.7 
M 240.41 295.3 240.98 294.39 241.76 293.8 242.45 293.5 243.35 293.5 
M 245.48 291.39 243.59 297.7 
M 246.65 293.5 247.19 297.7 
M 250.25 293.5 246.23 298.89 245.45 299.5 244.46 299.8 
M 252.05 293.5 250.79 297.7 
M 251.69 294.7 252.86 293.8 253.55 293.5 254.45 293.5 254.96 293.8 254.99 294.7 254.09 297.7 
M 254.99 294.7 256.15 293.8 256.85 293.5 257.75 293.5 258.26 293.8 258.28 294.7 257.39 297.7 
M 261.05 293.5 260.14 296.5 260.18 297.39 260.69 297.7 261.59 297.7 262.27 297.39 263.45 296.5 
M 264.35 293.5 263.09 297.7 
M 269.48 294.39 269.36 293.8 268.55 293.5 267.64 293.5 266.66 293.8 266.18 294.39 266.3 295 266.81 295.3 268.22 295.6 268.73 295.89 268.76 296.8 268.27 297.39 267.29 297.7 266.39 297.7 265.58 297.39 265.46 296.8 
M 275.18 291.39 275.39 291.7 275.77 291.39 275.57 291.1 275.18 291.39 
M 274.85 293.5 273.58 297.7 
M 279.98 294.39 279.86 293.8 279.05 293.5 278.14 293.5 277.16 293.8 276.68 294.39 276.8 295 277.31 295.3 278.72 295.6 279.23 295.89 279.26 296.8 278.77 297.39 277.79 297.7 276.89 297.7 276.08 297.39 275.95 296.8 
M 282.68 291.39 282.89 291.7 283.27 291.39 283.07 291.1 282.68 291.39 
M 282.35 293.5 281.08 297.7 
M 283.97 297.1 283.58 297.39 283.79 297.7 284.18 297.39 283.97 297.1 
"/></svg>
