<svg xmlns="http://www.w3.org/2000/svg" width="520" height="320"><rect x="0" y="0" width="520" height="320" fill="floralwhite"/><rect x="10" y="10" width="500" height="300" stroke="black" stroke-width="1" fill="none"/><path stroke="black" stroke-width="1" fill="none" stroke-linecap="round" stroke-linejoin="round" d="
M 150.62 91.79 160.89 89.54 171.1 87.65 181.31 86.63 222.13 85.37 232.34 84.56 242.55 82.44 252.75 79.38 262.96 77.17 273.17 76.85 283.37 78.04 293.58 79.61 324.2 83.17 344.62 86.31 354.82 88.13 365.03 90.63 375.24 93.78 385.44 97.47 395.65 101.78 405.86 107.13 406.84 108.32 
M 406.84 168.83 405.86 169.89 395.65 173.32 385.44 175.38 365.03 178.47 344.62 182.01 334.41 183.89 303.79 190.04 293.58 192.36 283.37 195.45 273.17 198.8 262.96 201.41 252.75 202.98 242.55 203.79 232.34 204.35 222.13 205.26 211.93 206.54 201.72 207.24 191.51 206.7 181.31 205.15 160.94 200.71 
M 157.01 103.88 158.06 102.37 160.56 96.05 160.56 92.14 159.64 89.81 
M 152.3 94.1 156.21 94.03 
M 155.15 98.78 156.1 99.02 
M 166.99 133.87 168.93 129.96 168.93 125.92 165.69 119.38 160.65 113.61 159.89 113.17 
M 168.65 163.68 170.08 161.26 170.08 161.02 
M 166.72 184.99 164.65 181.48 
M 167.77 130.87 168.26 130.35 171.43 123.59 173.48 115.94 173.48 111.2 171.43 103.55 168.26 96.79 165.79 94.15 
M 163.79 109.51 170.1 107.44 
M 163.19 114.02 169.84 113.65 
M 163.4 117.41 170.25 119.8 
M 169 163.66 171.97 161.85 
M 171.15 132.76 169 131.45 
M 174.23 186.22 175.2 185.16 178.13 179.52 178.13 176.02 175.2 170.38 170.65 165.4 168.82 164.39 
M 166.17 174.31 172.69 173.35 
M 165.57 177.62 172.76 178.22 
M 164.87 180.55 172.74 182.33 
M 170.75 102.83 171.97 100.74 174.25 93.86 174.25 89.59 173.53 87.41 
M 162.56 91.49 170.08 91.94 
M 163.11 95.57 165.53 95.97 
M 167.65 96.32 169.73 96.66 
M 185.31 126.68 183.12 120.67 178.89 114.1 175.6 111.53 
M 172.9 126.19 181.33 124.89 
M 172.1 130.65 175.83 130.75 
M 178.92 181.83 182.95 179.61 188.1 173.94 190.98 168.37 
M 174.83 165.57 180.85 165.71 
M 174.69 168.49 185.3 170.74 
M 187.69 188.16 187.33 187.57 181.76 182.43 177.41 180.42 
M 182.89 121.02 183.25 120.02 184.92 111.86 184.92 106.81 183.25 98.65 180.67 91.45 178.65 88.64 
M 176.6 105.37 182.37 103.48 
M 176.31 109.33 181.65 109.56 
M 178.35 114.06 182.24 115.11 
M 190.23 169.45 191.51 168.29 
M 200.37 188.99 201.1 187.38 201.1 183.61 198.32 177.51 194.02 172.13 190.65 170.03 
M 187.83 182.25 196.32 181.28 
M 186.93 185.78 195.92 185.07 
M 183.65 100.51 185.61 97.21 187.88 90.48 187.88 86.37 
M 177.17 88.21 183.74 88.2 
M 176.82 91.76 177.3 91.87 
M 180.82 92.74 183.92 93.51 
M 199.42 128.08 199.42 125.89 197.04 117.68 193.35 110.43 190.47 107.6 
M 187.48 124.03 195.54 122.62 
M 200.1 186.39 202.17 184.91 206.63 178.5 209.51 171.24 209.51 168.73 
M 195.69 168.58 204.36 169.14 
M 195.66 172.86 203.95 174.13 
M 203.82 188.92 202.95 187.98 200.41 186.61 
M 193.06 110.75 194.43 103.94 194.43 98.82 192.77 90.57 191.25 86.24 
M 186.65 97.44 191.71 95.27 
M 186.13 101.65 191.25 101.79 
M 185.94 105.78 191.68 107.19 
M 208.48 171.37 208.75 171.06 209.75 168.79 
M 209.56 134.33 208.75 132.49 206.08 129.46 
M 217.36 187.81 217.36 185.43 215.15 178.91 211.72 173.16 209.05 170.91 
M 206.39 184.06 212.87 182.22 
M 206.25 187.09 213.32 187.41 
M 193.84 101.23 196.21 99.41 199.89 93.78 202.26 87.41 202.26 85.96 
M 192 89.19 197.72 90.66 
M 211.78 135.07 213.65 128.31 213.65 122.95 211.25 114.27 207.52 106.62 204.61 103.63 
M 201.87 121.66 208.93 118.9 
M 201.95 125.96 208.96 125.42 
M 208.01 131.77 209.62 132.21 
M 217.48 187.79 218.98 186.52 222.97 179.7 225.54 171.97 225.54 167.19 223.27 160.37 
M 217.2 164.4 221.04 163.3 
M 215.01 169.38 221.07 169.5 
M 212.87 173.49 221.06 175.04 
M 217.85 187.75 217.78 187.71 
M 206.98 106.43 208.72 99.49 208.72 94.32 206.58 85.87 
M 200.84 91.76 204.81 90.16 
M 198.29 96.7 204.55 96.62 
M 198.33 100.93 205.28 103.55 
M 224.62 174.35 225.83 172.8 229.01 164.61 231.06 155.33 231.06 149.58 229.01 140.31 225.83 132.11 223.34 128.91 
M 220.53 147.34 227.46 145.68 
M 221.31 152.09 227.79 152.02 
M 223.17 157.94 227.23 159.75 
M 232.92 186.34 232.92 184.7 230.81 178.39 227.55 172.82 225.96 171.47 
M 222.42 183.78 228.85 182.32 
M 222.41 186.21 227.79 186.78 
M 208.87 100.4 211.89 98.19 215.77 92.55 218.26 86.15 218.26 85.52 
M 207.19 88 213.77 89.25 
M 227.19 136.55 229.85 127.46 229.85 122.04 227.36 113.29 223.5 105.56 220.48 102.55 
M 217.27 120.76 225.4 118.4 
M 217.5 124.86 225.11 125.18 
M 217.15 128.9 223.07 131.14 
M 234.87 186.18 238.79 179.21 241.24 171.44 241.24 166.63 238.79 158.85 234.99 151.99 232.03 149.31 
M 229.06 165.28 236.6 163.09 
M 229.02 168.71 236.65 168.86 
M 229.51 172.92 237.17 174.53 
M 225.95 111.33 226.32 110.58 228.66 102.15 228.66 96.93 226.32 88.51 224.69 85.17 
M 217.53 94.86 224.15 93.15 
M 217.02 99.72 224.22 99.14 
M 216.64 103.33 220.1 104.69 
M 223.2 105.91 224.04 106.24 
M 240.36 168.93 242.91 161.8 244.72 152.87 244.72 147.33 242.91 138.39 240.09 130.5 237.89 127.42 
M 235.33 145.77 241.49 143.34 
M 235.36 150.41 241.2 150.41 
M 235.89 154.41 241.63 156.49 
M 250.05 184.74 247.92 178.31 244.53 172.51 241.89 170.24 
M 239.78 183.76 246.19 182.13 
M 227.82 98.43 228.35 98.05 232.32 92.33 234.89 85.86 234.89 84.03 
M 225.74 88.12 230.52 88.9 
M 242.12 137.07 243.05 135.17 245.45 126.61 245.45 121.31 243.05 112.75 239.33 105.18 236.43 102.23 
M 233.15 119.17 241.21 117.23 
M 233.85 123.54 241.33 124.21 
M 233.49 128.08 237.93 129.24 
M 239.42 129.63 241.52 130.17 
M 250.29 184.71 253.86 177.89 256.19 170.04 256.19 165.18 253.86 157.34 250.24 150.41 247.41 147.71 
M 244.96 163.3 251.93 161.38 
M 244.92 167.32 252.38 167.95 
M 244.53 171.69 251.99 173.17 
M 242.36 112.15 243.04 110.71 245.18 102.69 245.18 97.73 243.04 89.72 239.88 83 
M 234.65 96.48 240.99 93.7 
M 234.7 99.79 241.7 100.57 
M 234.47 104.18 235.76 104.58 
M 239.09 105.6 241.08 106.22 
M 254.79 159.83 255.54 157.6 257.24 148.73 257.24 143.24 255.54 134.36 252.91 126.53 250.86 123.47 
M 248.82 140.99 253.88 139.55 
M 249.09 146.27 254.38 145.6 
M 249.89 150.59 254.62 152.92 
M 265.92 182.12 264.78 178.29 261.54 172.11 259.01 169.69 
M 256.5 183.68 263.03 181.93 
M 244.41 98.08 245.27 97.53 249.45 92.07 252.15 85.89 252.15 82.07 251.18 79.85 
M 240.07 84.24 246.86 84.43 
M 241.55 87.36 246.83 88.43 
M 255.67 135.57 257.33 132.25 259.67 124.04 259.67 118.96 257.33 110.75 253.71 103.5 250.88 100.67 
M 248.34 116.98 255.74 114.8 
M 247.96 121.85 255.52 121.87 
M 248 126.07 249.84 126.55 
M 252.86 127.33 255.75 128.08 
M 265.43 180.15 267.65 175.46 269.84 167.38 269.84 162.38 267.65 154.3 264.27 147.16 261.62 144.38 
M 258.79 161.23 265.39 158.35 
M 258.98 165.05 265.87 164.89 
M 259.42 169.24 265.4 170.84 
M 257.76 112.35 259.54 109.12 261.8 101.92 261.8 97.46 259.54 90.26 256.03 83.91 253.3 81.43 
M 250.74 96.51 257.92 93.97 
M 250.93 99.84 257.22 99.91 
M 253.61 104.19 257.65 105.01 
M 266.53 152.72 266.91 151.58 268.6 142.83 268.6 137.41 266.91 128.66 264.31 120.93 262.27 117.91 
M 260.4 135.32 266.01 133.22 
M 260.74 140.1 265.51 140.27 
M 260.6 144.22 262.56 145.27 
M 263.06 145.53 265.79 146.99 
M 280.02 178.72 279.36 175.88 276.54 169.08 274.34 166.43 
M 260.99 99.65 263.75 98.15 268.35 93.11 271.32 87.42 271.32 83.89 268.35 78.19 267.29 77.03 
M 256.79 82.61 266.22 80.85 
M 257.05 85.36 265.53 86.02 
M 258.57 89.21 265.79 90.04 
M 267.99 136.45 268.64 135.89 272.47 129.24 274.94 121.72 274.94 117.06 272.47 109.54 268.64 102.9 265.65 100.31 
M 262.54 115.42 270.95 113.77 
M 262.43 119.18 262.72 119.2 
M 263.41 119.26 270.41 119.88 
M 264.8 123.29 270.68 124.76 
M 278.51 174.57 280.09 171.07 282.16 163 282.16 158.01 280.09 149.94 276.87 142.82 274.36 140.03 
M 271.48 155.99 278.61 153.88 
M 271.77 160.33 278.32 160.24 
M 272 164.83 278.57 166.91 
M 270.26 82.61 270.77 82.36 274.93 78.27 275.59 77.13 
M 274.05 116.79 275.22 115.96 279.14 110.41 281.67 104.12 281.67 100.22 279.14 93.93 275.22 88.37 272.17 86.2 
M 269.56 99.12 276.84 97.2 
M 268.72 101.98 277.38 102.34 
M 269.61 105.35 276.96 106.68 
M 278.88 148.05 279.74 145.87 281.5 138.02 281.5 133.16 279.74 125.32 277.01 118.39 274.91 115.73 
M 273.18 131.58 277.83 129.96 
M 272.94 135.7 277.99 135.83 
M 272.38 139.79 275.46 140.74 
M 275.53 140.76 278.56 141.68 
M 291.76 175.87 290.52 169.9 287.96 162.86 285.96 160.11 
M 283.6 176.04 288.96 174.05 
M 280.76 102.33 283.82 100.85 288.59 96.21 291.66 90.97 291.66 87.72 288.59 82.47 284.15 78.15 
M 276.53 87.15 286.16 85.79 
M 276.23 89.73 286.29 89.76 
M 277.21 91.81 286.52 93.81 
M 281.94 135.8 285.08 133.51 289.09 127.66 291.68 121.04 291.68 116.94 289.09 110.31 285.08 104.46 281.94 102.18 
M 278.78 115.38 287.28 114.33 
M 279.03 118.77 287.41 118.77 
M 278.7 122.19 287.14 123.84 
M 290.43 170.37 292.62 165.84 294.76 158.09 294.76 153.29 292.62 145.54 289.3 138.69 286.71 136.02 
M 283.92 151.77 290.73 149.58 
M 284.6 156.09 290.46 155.77 
M 284.48 159.53 290.74 161.75 
M 290.56 87.68 291.7 87.11 295.74 83.08 297.46 80.07 
M 285.6 79.21 293.36 80.12 
M 292.17 119.83 295.12 117.94 298.88 113.1 301.32 107.62 301.32 104.22 298.88 98.74 295.12 93.9 292.17 92.01 
M 289.54 103.59 296.96 101.76 
M 289.17 105.44 297.32 105.92 
M 289.46 108.84 297.15 109.74 
M 292.01 145.02 293.84 141.28 295.75 134.39 295.75 130.14 293.84 123.25 291.41 118.29 
M 288.31 128.17 292.5 127.52 
M 286.29 132.3 292.19 131.81 
M 286.08 136.01 291.95 137.27 
M 304.23 173.59 304.23 172 302.43 163.68 299.64 156.34 297.46 153.47 
M 294.95 170.46 301.38 168.01 
M 294.9 174.47 300.91 174.11 
M 300.45 104.34 302.91 103.13 307.34 98.79 310.19 93.88 310.19 90.84 307.34 85.93 302.91 81.6 300.54 80.44 
M 296.48 89.75 305.44 88.14 
M 295.73 92.74 305.42 92.3 
M 296.36 94.48 304.96 95.96 
M 298.68 134.4 301.76 132.32 305.7 126.99 308.25 120.95 308.25 117.21 305.7 111.17 301.76 105.83 300.45 104.95 
M 296.61 115.46 303.5 114.85 
M 295.74 118.74 303.87 119.53 
M 295.87 122.01 304.08 123.58 
M 303.59 169.42 307.47 162.65 309.91 155.08 309.91 150.39 307.47 142.81 303.68 136.12 300.72 133.51 
M 297.63 149.36 305.53 146.97 
M 297.68 152.6 305.47 152.49 
M 299.65 157.24 305.78 158.88 
M 309.17 89.87 310.34 89.26 314.09 85.36 315.84 82.14 
M 304.13 82.07 311.75 82.53 
M 309.69 119.97 312.18 118.19 315.38 113.64 317.45 108.48 317.45 105.28 315.38 100.12 312.18 95.57 309.69 93.79 
M 307.65 103.91 313.24 103.17 
M 307.57 106.78 313.56 107.29 
M 307.23 109.19 314.08 110.75 
M 307.77 144.04 310.02 139.93 312.1 133.29 312.1 129.19 310.02 122.55 307.34 117.66 
M 304.9 127.49 308.58 126.58 
M 301.92 131.47 308.71 131.19 
M 302.74 135.3 308.13 136.64 
M 321.44 170.98 321.44 170.23 319.08 161.76 315.42 154.28 312.57 151.36 
M 309.34 168.13 316.7 166.56 
M 310.16 172.66 310.26 172.66 
M 316.78 104.94 319.84 103.34 323.74 99.22 326.26 94.56 326.26 91.67 323.74 87.01 319.84 82.9 319.18 82.55 
M 314.06 90.55 321.83 89.84 
M 313.66 92.96 321.82 92.98 
M 314.07 95.66 322.01 97.03 
M 314.74 133.71 317.77 131.64 321.65 126.31 324.15 120.28 324.15 116.55 321.65 110.52 317.77 105.2 316.71 104.47 
M 314.22 114.78 319.94 113.78 
M 312.16 118.83 319.85 118.01 
M 312.17 121.44 319.56 122.63 
M 320.59 170.94 321.3 170.39 325.76 163.48 328.63 155.66 328.63 150.82 325.76 143 321.3 136.09 317.83 133.4 
M 314.26 149.48 323.49 146.99 
M 314.89 153.52 323.66 153.48 
M 316.89 158.13 323.88 159.61 
M 325.93 92.18 328.53 90.75 331.85 87.09 333.15 84.57 
M 323.7 83.5 330.25 84.61 
M 324.1 116.82 326.25 115.13 329.02 110.8 330.8 105.89 330.8 102.86 329.02 97.95 326.25 93.62 325.36 92.92 
M 321.67 102.27 327.74 101.01 
M 322.36 104.48 327.5 104.12 
M 322.38 106.41 327.3 107.76 
M 325.85 143.86 327.56 140.88 329.97 133.47 329.97 128.88 327.56 121.47 324.43 116 
M 321.11 126.48 325.79 125.5 
M 317.81 131.1 325.79 130.79 
M 317.7 134.63 318.26 134.77 
M 320.21 135.26 325.16 136.49 
M 341.66 168.05 341.09 166.21 336.86 158.47 333.56 155.45 
M 331.69 102.59 334.47 101.04 338.03 97.06 340.32 92.55 340.32 89.77 338.05 85.32 
M 330.15 88.55 336.54 87.88 
M 329.43 91.24 336.05 91.3 
M 329.44 93.52 336.34 94.79 
M 330.67 134.29 333.85 132.02 337.93 126.22 340.56 119.64 340.56 115.57 337.93 109 333.85 103.19 331.65 101.63 
M 327.89 114.46 335.82 112.75 
M 327.15 117.63 335.81 117.65 
M 327.92 121.25 335.67 122.42 
M 346.01 167.49 349.21 159.16 349.21 154.08 346.1 145.87 341.27 138.62 337.5 135.79 
M 333.86 152.09 343.56 150.1 
M 333.57 156.61 334.43 156.64 
M 335.34 156.67 343.45 156.95 
M 338.15 161.74 344 163.25 
M 340.5 87.77 342.8 86.62 343.3 86.11 
M 338.85 110.9 341.28 106.67 343.11 101.04 343.11 97.56 341.28 91.93 339.5 88.83 
M 338.97 95.6 340.14 95.31 
M 335.58 99.33 339.3 99.73 
M 334 102.01 340.01 104.03 
M 347.65 148.92 349.03 146.51 351.77 138.16 351.77 132.99 349.03 124.64 344.79 117.26 341.47 114.38 
M 338.3 131.74 346.83 128.85 
M 337.79 135.73 346.44 135.7 
M 342.04 140.63 346.51 141.59 
M 358.29 166.06 357.1 163.82 354.07 160.96 
M 345.87 100.16 348.73 98.56 352.38 94.47 354.74 89.83 354.74 88.12 
M 343.5 86.15 343.53 86.15 
M 343.6 88.34 350.31 88.65 
M 342.89 90.37 350.19 91.84 
M 350.79 134.59 351.25 134.24 355.49 127.82 358.22 120.55 358.22 116.05 355.49 108.79 351.25 102.37 347.94 99.86 
M 344.33 114.51 353.75 112.81 
M 344.97 118.46 353.25 117.95 
M 347.25 122.37 353.42 123.78 
M 367.86 165.05 368.6 162.96 368.6 157.85 365.66 149.59 361.1 142.31 357.54 139.46 
M 354.52 156.57 363.16 154.4 
M 353.94 160.02 363.41 160.5 
M 357.62 165.66 358.86 166 
M 355.49 109.46 357.31 106.25 359.39 99.84 359.39 95.87 357.31 89.46 356.84 88.62 
M 352.75 93.63 355.5 92.54 
M 349.33 97.94 355.91 97.73 
M 349.94 101.19 355.68 102.97 
M 367.55 155.39 369.31 151.85 371.77 143.17 371.77 137.8 369.31 129.11 365.49 121.45 362.51 118.46 
M 359.39 136.01 367.27 134.28 
M 359.86 140.85 367.38 140.61 
M 362.83 145.9 367.75 147.06 
M 372.66 164.64 372.09 164.05 
M 361.9 99.98 365.12 98.32 369.24 94.04 370.23 92.24 
M 359.19 90.01 367.33 91.51 
M 370.73 132.74 373.15 129.05 375.93 121.59 375.93 116.97 373.15 109.51 368.84 102.93 365.47 100.36 
M 362.12 115.59 370.72 113.25 
M 361.94 118.83 371.12 119.5 
M 366.27 123.92 371.12 124.91 
M 385.1 163.72 385.1 158.94 382.45 150.85 378.34 143.71 375.13 140.92 
M 371.6 157.15 380.59 155.45 
M 371.94 161.54 380.59 161.73 
M 373 109.98 375.35 106.54 377.82 100.17 377.82 96.22 377.13 94.46 
M 368.26 94.6 373.36 93.41 
M 365.69 98.15 373.2 98.08 
M 366.05 101.13 366.52 101.27 
M 367.38 101.53 373.23 103.28 
M 384.13 154.48 385.52 151.56 387.78 143.18 387.78 138 385.52 129.62 382.01 122.23 379.26 119.34 
M 376.99 135.95 383.93 133.84 
M 376.22 140.81 383.79 140.62 
M 379.2 146.05 383.4 147.29 
M 388.1 163.41 386.64 161.83 
M 380.2 102.06 383.92 100.36 386.57 97.94 
M 386.97 137.23 387.41 136.93 392.09 130.56 395.1 123.34 395.1 118.87 392.09 111.65 387.41 105.27 383.75 102.78 
M 380.1 117.06 389.86 115.4 
M 381.14 121.32 389.63 121.04 
M 382.95 125.07 389.26 126.25 
M 401.64 161.35 401.64 158.98 399 151.24 394.9 144.41 391.71 141.74 
M 389.03 157.65 397.34 155.76 
M 389.07 161.61 397.08 161.67 
M 394.02 115.66 397.57 111.29 400.49 104.97 400.49 104.32 
M 385.89 99.73 389.64 99.24 
M 385.72 102.64 395.13 102.72 
M 387.99 106.82 395.47 108.05 
M 400.69 159.61 404.35 152.83 406.76 145.02 406.76 140.18 404.35 132.36 400.62 125.46 397.71 122.77 
M 394.59 138.57 402.53 136.87 
M 394.71 142.31 402.54 142.78 
M 395.64 146.44 402.29 148.64 
M 401.14 105.3 401.82 105.01 
M 405.89 137.82 406.84 137.32 
M 406.84 113.03 404.05 111.55 
M 400.22 122.38 406.84 121.7 
M 400.52 125.42 406.84 125.02 
M 401.77 128.39 406.84 128.93 
M 406.29 159.55 406.84 159.47 
M 164.06 195.8 167.51 189.96 167.51 186.32 166.72 184.99 
M 167.09 192.09 170.65 190.15 174.23 186.22 
M 188.88 200.3 190.92 197 190.92 193.39 187.69 188.16 
M 175.65 198.13 183.93 199.34 
M 191.19 200.63 194.02 198.86 198.32 193.48 200.37 188.99 
M 210.89 200.57 210.89 199.09 207.78 193.19 203.82 188.92 
M 206.64 190.29 213.46 192.21 
M 206.58 85.87 206.58 85.87 
M 228.6 198.69 230.81 194.91 232.92 188.6 232.92 186.34 
M 227.79 186.78 229.19 186.93 
M 222.09 190.33 229.12 191.88 
M 218.26 85.52 218.26 85.52 
M 241.81 197.76 240.17 194 236.22 188.84 233.84 187.29 
M 246.87 197.33 247.92 195.53 250.1 188.96 250.05 184.74 
M 238.9 190.43 246.06 191.54 
M 249.32 185.7 250.29 184.71 
M 256.26 190.96 262.64 192.61 
M 251.18 79.85 251.18 79.85 
M 271.99 185.74 278.16 185.51 
M 275.59 77.13 275.59 77.13 
M 291.23 187.38 292.18 182.8 292.18 177.87 291.76 175.87 
M 300.02 185.37 297.62 181.32 294.85 178.99 
M 295.05 179.24 296.06 179.58 
M 296.15 179.62 301.17 181.34 
M 300.54 80.44 300.54 80.44 
M 315.34 182.46 312.98 178.76 309.85 176.31 
M 311.72 177.58 317.21 179.25 
M 343.81 177.36 343.81 174.98 341.66 168.05 
M 338.05 85.32 338.05 85.32 
M 342.84 172.26 346.01 167.49 
M 362.01 174.55 360.99 171.14 358.29 166.06 
M 358.86 166 363.08 167.14 
M 370.23 92.24 370.23 92.24 
M 371.53 165.71 371.94 165.78 
M 373.95 166.12 380.61 167.23 
M 377.13 94.46 377.13 94.46 
M 391.82 170.4 389.08 164.46 388.1 163.41 
M 389.07 165.25 397.18 167.33 
M 406.25 166.37 405.79 165.49 403.22 163.03 
M 401.82 105.01 401.82 105.01 
M 222.13 85.37 223.54 83.07 224.42 80.11 224.76 77.61 225.43 75.39 226.92 72.5 228 69.73 228.87 66.38 229.36 62.9 230.26 59.58 232.09 57.2 232.71 54.94 234.18 53.45 236.74 49.75 239.47 42.72 241.67 40.3 244.28 38.55 246.07 36.9 249.78 35.61 252.35 35.69 257.74 30.65 261.1 30 260.74 32.97 260.58 36.45 259.5 39.13 258.98 41.99 264.03 44.48 269.65 47.95 280.42 55.66 285.45 60.24 288.1 62.36 290.83 63.98 292.68 64.68 294.59 66.38 296.34 68.91 298.5 71.35 303.02 75.68 309.09 80.33 310.96 81.59 
M 314 81.92 313.99 81.92 
M 227.03 84.98 228.16 82.76 228.45 79.79 230.7 74.59 231.25 72.17 232.38 69.59 233.43 66.33 233.99 62.65 236.34 59.57 238.44 54.71 240.11 52.98 242.54 49.64 244.2 45.32 
M 231.93 84.6 232.66 82.33 233.02 79.62 233.67 76.84 235.39 71.93 235.73 68.68 236.67 65.35 239.71 59.22 240.12 57.36 240.91 55.78 
M 236.75 83.65 237.19 78.86 237.74 76.37 238.09 73.05 238.18 69.5 238.98 66.99 240.15 64.13 241.82 61.3 243.29 57.14 243.77 54.99 244.67 52.41 247.37 48.73 249.08 45.81 249.98 43.47 251.74 41.46 255.33 39.82 
M 241.56 82.65 241.93 80.96 241.89 71.18 242.71 66.15 244.55 64.29 245.46 61.26 245.68 58.48 
M 246.29 81.32 246.57 79.54 245.73 76.71 245.79 69.82 245.99 67.85 246.49 65.39 247.99 63.66 248.56 60.41 248.38 57.62 249.58 54.82 251.16 51.8 254.12 50.03 255.28 46.66 
M 250.99 79.91 251.45 78.07 250.62 71.75 250.53 68.72 251.56 66.28 252.22 61.86 253.37 58.72 254.84 55.98 256.77 54.43 
M 255.76 78.73 256.27 76.68 256.15 73.81 255.57 71.43 255.41 68.18 257.34 62.41 259.26 59.77 261.3 58.11 263.01 56.3 
M 260.56 77.69 260.88 76.14 261.05 73.84 260.88 71.65 261.3 68.42 262.69 64.81 
M 265.44 77.09 266.69 75.75 267.05 73.14 267.96 70.25 273.77 61.82 276.17 59.71 
M 270.35 76.94 272.41 75.58 273.06 72.53 274.28 70.2 278.35 66.82 
M 275.26 77.09 277.23 75.64 279.33 71.14 281.66 69.3 
M 280.14 77.66 282.63 76.41 283.27 73.99 285.77 71.57 288.89 69.42 
M 285.01 78.29 287.9 77.37 289.64 75.26 292.58 73.4 295.88 71.63 
M 289.86 79.04 291.85 79.32 
M 294.73 79.75 297.97 79.61 
M 299.6 80.33 299.61 80.33 
M 304.48 80.9 304.49 80.9 
M 309.37 81.42 309.37 81.42 
M 166.71 132.79 190.17 123.31 190.58 124.2 167.59 136.12 
M 167.74 136.66 208.8 125.82 209.08 126.76 168.79 139.88 
M 169.08 140.77 218.97 134.85 219.11 135.82 169.79 144.07 
M 169.96 145.22 225.31 146.55 225.31 147.53 170.34 148.56 
M 170.32 149.79 230.75 159.95 230.6 160.93 170.29 153.18 
M 170.16 154.32 220.58 170.7 220.3 171.64 169.6 157.64 
M 169.36 159.04 190.53 170.15 190.11 171.04 168.86 162.32 
M 188.17 125.45 191.67 127.05 193.44 127.65 195.23 128.05 197.03 128.22 198.86 128.16 200.71 127.89 204.45 126.97 
M 204.8 128.16 205.95 130.76 207.48 132.9 208.47 133.72 209.6 134.35 210.86 134.83 213.62 135.48 
M 213.8 136.71 213.94 139.49 214.17 140.79 214.59 141.98 215.21 143.06 217.02 144.88 219.35 146.4 
M 219.35 147.64 219.29 150.64 219.76 153.41 220.31 154.65 221.07 155.81 222.02 156.88 224.27 158.86 
M 224.09 160.09 221.21 161.16 218.75 162.65 217.76 163.63 216.93 164.78 216.25 166.07 215.15 168.94 
M 214.79 170.12 208.92 168.58 205.98 168.01 203.03 167.64 200.06 167.5 197.09 167.6 194.11 167.9 188.12 168.88 
M 205.35 129.49 206.65 131.91 207.48 132.9 208.47 133.72 209.6 134.35 212.21 135.19 
M 213.83 138.12 214.17 140.79 214.59 141.98 215.21 143.06 216.03 144.02 218.15 145.66 
M 219.28 149.16 219.43 152.07 219.76 153.41 220.31 154.65 221.07 155.81 223.11 157.89 
M 222.62 160.59 219.91 161.83 218.75 162.65 217.76 163.63 216.93 164.78 215.67 167.47 
M 201.72 207.24 204.71 210.03 209.55 215.92 214.66 220.33 216.8 222.78 219.78 224.97 223.29 226.45 228.96 230.24 231.09 231.92 233.87 235.57 231.6 242.39 230.34 244.4 230.08 247.42 230.48 257.81 229.37 260.06 228.68 262.72 223.23 269.55 221.96 271.73 215.68 280 214.21 276.81 215.01 273.88 214.86 271.05 214 268.79 212.27 266.22 209.61 263.57 209.5 260.37 208.36 256.45 207.67 252.59 206.26 249.37 205.46 246.61 205.52 243.17 204.02 237.2 201.71 233.63 200.18 230.58 197.04 219.1 196.13 216.26 195.07 213.35 191.51 206.7 
M 199.76 207.13 204.43 212.57 209.06 218.33 210.7 221.01 213.53 223.85 215.1 226.55 217.79 229.53 
M 197.79 207.03 206.27 218.65 213.11 230.84 217.03 235.5 219.98 237.23 221.63 239.29 222.42 241.63 225.14 243.54 227.65 245.8 
M 195.83 206.93 198.34 210.68 200.42 213.3 204.78 221.82 206.88 224.6 208.02 228.48 210.35 233.99 213.57 236.24 219.04 242.28 219.55 245.9 222.4 249.44 224.53 251.68 225.23 255.63 
M 193.87 206.82 197.88 213.45 199.18 216.47 201.12 222.39 204.6 229.31 206.69 235.32 208.83 236.78 210.92 239.23 211.77 242.89 213.07 245.95 214.27 249.71 
M 385.44 175.38 392.59 183.16 393.43 187.3 390.78 189.68 388.19 191.26 382.41 191.89 373.1 193.58 369.57 193.85 367.4 195.48 365.77 197.46 362.63 198.09 358.39 202.1 355.47 203.29 346.36 205.79 339.53 211.14 337.37 213.14 335.02 218.89 333.08 220.84 330.9 222.53 324.61 228.69 325.06 232.37 323.63 235.36 318.08 239.55 313.27 230.49 310.91 228.05 308.06 226.74 303.77 223.39 302.34 219.62 300.43 216.81 298.53 214.42 297.08 211.68 295.02 209.32 290.82 203.74 286.08 198.29 283.37 195.45 
M 380.58 176.1 384.4 181.97 
M 375.72 176.81 379.49 182.15 382.67 185.72 
M 370.87 177.56 378.43 186.27 
M 366.01 178.32 370.21 183.74 373 186.99 
M 361.17 179.15 365.15 184.34 
M 356.34 180.01 359.8 185.4 362.94 188.44 365.44 191.87 367.05 195.28 
M 351.49 180.84 357.52 188.84 359.81 193.01 362.06 195.44 
M 346.65 181.67 350.19 186.47 353.19 189.34 358.01 196.08 
M 341.81 182.53 344.73 187.53 348.9 193.46 351.36 196.34 
M 336.98 183.41 340.13 188.16 342.04 192.31 344.28 195.27 
M 332.16 184.35 335.67 188.66 337.76 192.19 338.92 195.53 341.23 198.12 342.39 200.49 
M 327.35 185.35 333.15 192.67 340 202.81 342.82 205.87 
M 322.54 186.32 325.36 190.56 327.83 193.67 331.74 198.14 
M 317.72 187.27 320.63 191.87 322.42 195.29 324.1 197.86 326.02 199.7 
M 312.9 188.22 316.21 192.2 321.19 200.41 324.02 203.42 327.28 206.13 328.94 208.52 
M 308.08 189.18 311.31 192.74 312.84 196.35 314.45 199.3 316.52 202.47 318.32 204.85 320.27 206.76 325.33 210.88 
M 303.26 190.16 306.38 193.53 308.09 196.48 311.45 203.75 313.87 207.08 315.11 210.04 316.64 212.5 319.05 214.07 321.54 216.25 
M 298.47 191.25 301.35 194.4 303.24 197.04 304.7 199.89 309.85 206.26 312.97 215.34 315.64 218.44 318.23 220.43 
M 293.68 192.33 296.39 195.39 298.32 198.45 300.26 201.03 302.72 203.66 307.66 209.57 309.06 212.61 309.91 215.77 311.29 218.49 312.93 220.8 315.23 222.71 318.18 225.58 321.86 228.35 
M 288.98 193.75 291.7 196.9 293.55 199.68 295.9 202.56 298.35 204.7 300.84 207.5 305.04 212.91 306.67 215.54 309.4 221.83 310.93 224.1 313.65 224.93 316.37 226.98 319.12 229.64 
M 405.86 107.13 409.19 106.42 411.93 104.94 414.39 103.21 419.48 100.9 422.03 99.39 424.48 97.63 427.84 96.3 431.1 94.32 434.2 92.72 436.29 91.89 438.35 90.2 441.12 88.9 443.83 87.32 445.61 85.42 447.58 83.76 449.62 83.22 453.11 81.59 455.03 80.14 458.13 79.19 462.15 77.67 464.78 76.37 468.5 71.57 469.78 69.25 472.8 68 474.71 66.97 477.28 67.33 479.91 64.86 481.91 61.89 484.9 60.37 489.83 58.18 485.3 73.19 483.97 75.98 481.84 77.96 478.2 82.56 477.04 85.51 473.01 89.66 471.27 92 469.13 93.94 467.74 96.58 465.91 102.63 465.13 105.79 462.49 107.1 460.94 109.58 458.92 111.6 457.26 113.98 455.89 116.73 452.5 121.67 449.89 123.17 447.93 125.32 446.14 127.68 444.12 129.77 440.74 134.25 438.87 136.13 439.47 139.66 440.68 143.81 441.25 148.12 440.05 150.82 439.85 155.06 440.43 157.51 442.84 163.09 446.35 169.56 447.17 172.23 447.29 174.36 448.2 177.1 449.5 179.71 451.24 189.04 453.77 204.35 452 203.59 449.68 201.87 447.78 199.14 445.26 196.57 441.57 194.2 438.34 192.55 436.07 190.45 433.78 189.35 430.83 187.15 427.57 185.48 423.08 182.51 420.88 180.43 415.44 177.14 412.73 174.91 409.61 172.86 405.86 169.89 
M 405.86 110.26 409.6 109.69 412.74 108.84 417.45 105.58 420.32 104.2 422.92 103.43 425.76 101.69 432.03 99.28 434.89 97.78 439.52 96.15 445 93.75 
M 409.72 113.1 413.01 112.31 415.91 111.04 418.35 109.27 423.84 106.34 429.8 104.92 433.14 104.41 435.55 103.53 437.91 102.31 442.76 101.7 445.73 99.57 448.52 98.23 451.01 96.17 453.45 94.88 456.42 93.63 458.39 93.04 
M 412.94 115.77 419.13 113.18 421.55 111.76 426.55 109.53 429.62 108.98 433.44 108.58 436.14 107.72 438.81 107.27 453.65 101.55 456.19 100.27 
M 410.01 119.71 413.18 119.07 416.24 118 419.21 117.16 422.54 116.72 424.86 115.65 427.33 114.08 430.13 113.99 433.21 112.84 435.6 112.76 
M 413.55 122.53 416.68 121.91 419.31 121.59 422.53 120.89 425.27 120.72 428.13 119.78 431.18 120.01 434.27 119.54 437.74 117.4 439.9 117.12 442.03 117.63 
M 413.04 126.4 416.48 126.59 426.08 124.97 432.06 124.49 435.62 123.87 438.77 123.53 441.86 121.13 445.11 120.51 
M 412.9 130.17 416.46 130.28 419.45 129.55 423.09 128.97 426.53 128.05 429.5 127.97 431.14 128.46 434.66 128.45 439.19 127.45 441.84 125.51 445.16 124.79 
M 409.78 133.24 416.45 133.98 423.37 132.41 426.48 132.21 
M 405.86 135.37 409.91 136.39 413.33 136.8 416.36 137.51 419.65 137.32 423.12 136.47 426.24 137.63 
M 417.49 140.36 423.97 141.57 433.02 144.48 
M 416.72 143.58 423.41 146.57 426.64 146.91 432.95 148.67 436.11 148.89 
M 413.85 146.48 416.78 147.63 419.59 149.75 423.14 151.19 426.2 151.77 429.57 151.72 433.49 152.76 
M 405.86 147.92 413.44 150.38 419.52 153.98 422.43 155.13 425.57 155.75 
M 416.85 155.17 419.22 157.25 422.59 159.38 425.2 159.77 429.33 159.4 433.9 158.66 437.66 158.82 
M 410.61 155.96 414.39 157.36 419.09 160.91 422.12 161.52 425.37 163.25 429.76 163.51 
M 405.86 157.34 413.73 160.86 416.4 162.97 418.66 164.31 425.65 165.86 429.81 167.89 432.65 168.69 
M 410.26 162.55 418.66 166.79 421.46 167.59 428.34 171 430.95 172.47 
M 405.86 163.61 415.8 168.93 421.49 171.61 426.62 175.31 431.76 179.64 433.92 181.25 435.84 183.21 443.34 184.43 445.94 185.66 447.95 186.03 
M 415.66 172.78 420.89 176.74 426.62 180.4 428.52 182.6 430.95 183.66 433.78 185.22 436.41 187.36 439.47 187.8 442.78 189 
M 375.24 93.78 377.98 92.92 380.91 92.24 384.07 91.79 390.76 91.28 393.89 90.8 396.59 89.9 401.1 87.19 403.72 86.3 406.8 87.05 409.27 89.15 410.51 92.08 410.39 95.28 408.69 97.7 405.86 98.83 402.97 99.75 395.65 101.78 
M 382.83 95.9 389.08 95.33 
M 392.33 94.97 393.89 94.73 396.59 93.83 401.1 91.12 403.72 90.23 406.8 90.98 408.04 92.03 
M 56.08 125.35 58.63 123.46 61.82 121.39 76.14 113.22 88.99 107.14 95.53 104.7 108.49 99.43 115.26 96.96 122.54 95.16 129.83 93.83 136.67 92.8 142.83 92.08 147.71 91.72 150.58 91.74 154.55 97.19 156.64 102.78 158.51 108.39 160.14 114.02 162.24 119.61 164.65 125.17 167.68 136.45 169.5 142.06 170.34 147.77 170.29 153.55 168.4 165.3 166.7 171.24 165.7 177.12 164.27 183.03 163.16 188.92 162.71 194.75 160.94 200.68 146.9 199.92 136.53 198.42 127.34 196.09 118.94 193.22 103.02 186.34 95.56 182.38 88.85 177.6 83 172.39 78.23 167.08 
M 73.8 161.82 68.17 154.71 64.49 148.73 63.41 146.08 
M 138.74 121.99 140.71 131.48 140.42 135.91 139.19 140.09 137.26 144.04 134.25 151.02 133.95 154.38 133.77 158 134.34 162.06 135.69 166.53 136.26 171.65 120.1 172.05 113.75 171.57 107.48 170.51 101.09 168.67 94.51 166.34 88.17 163.11 
M 76.81 166.35 73.41 161.21 68.34 152.98 63.96 146.91 58.3 138.6 52.87 130.14 51.92 127.89 52.82 125.54 55.27 124.8 57.28 126.16 65.49 141.98 71.34 152.81 74.37 159.35 78.48 166.94 
M 75.61 167.28 67.64 165.73 
M 65.49 165.32 56.48 163.79 46.64 161.24 31.74 158.27 30.16 156.6 30.42 154.19 32.37 152.67 34.73 152.9 49.24 157.53 56.35 160.15 65.22 162.76 
M 66.93 163.27 76.63 166.31 
M 77.79 166.62 78.15 166.73 
M 93.49 134.43 92 128.78 92.42 122.96 94.71 117.59 98.62 113.26 103.73 110.43 109.48 109.41 115.24 110.32 120.4 113.04 124.4 117.3 126.8 122.62 127.34 128.43 125.96 134.1 122.82 139.02 118.25 142.65 112.74 144.6 106.91 144.66 101.37 142.82 96.73 139.28 93.49 134.43 
M 93.27 133.93 92.56 131.85 92.11 129.7 91.92 127.51 92.02 125.31 92.38 123.15 93 121.04 93.89 119.03 95.01 117.14 96.36 115.41 97.92 113.85 99.65 112.5 101.54 111.38 103.55 110.5 105.66 109.87 107.82 109.51 110.02 109.42 112.21 109.6 114.36 110.05 116.44 110.76 
M 95.09 133.18 94.45 131.33 94.05 129.42 93.89 127.47 93.97 125.52 94.51 122.86 
M 98.62 115.92 100.76 114.13 102.44 113.13 104.23 112.34 106.1 111.78 108.03 111.46 109.98 111.38 111.93 111.54 113.84 111.94 115.69 112.58 
M 96.9 132.43 96.35 130.81 95.99 129.13 95.85 127.43 95.92 125.72 96.42 123.33 
M 99.94 117.37 101.87 115.75 103.34 114.87 104.9 114.19 106.54 113.7 108.23 113.42 109.94 113.35 111.64 113.49 113.32 113.84 114.93 114.39 
M 98.72 131.67 97.94 128.85 97.82 127.39 97.88 125.92 98.3 123.86 
M 101.28 118.81 102.97 117.37 104.23 116.62 106.98 115.61 109.9 115.31 112.79 115.73 114.18 116.21 
M 100.53 130.92 100.13 129.76 99.78 127.35 99.83 126.13 100.17 124.46 
M 102.64 120.22 104.08 118.99 105.13 118.37 107.43 117.53 108.63 117.33 111.08 117.38 113.43 118.02 
M 103.19 130.06 102.59 127.8 102.72 126.05 
M 104.53 122.38 105.24 121.59 107.28 120.46 109.58 120.05 111.89 120.41 113.95 121.5 115.55 123.21 116.51 125.33 116.73 127.66 116.18 129.93 114.92 131.9 113.09 133.35 110.89 134.13 108.55 134.15 106.34 133.41 104.48 132 103.19 130.06 
M 105.61 121.39 104.89 122.81 
M 103.14 126.32 102.62 127.36 
M 107.57 120.41 105.78 123.99 
M 104.3 126.95 103.03 129.48 
M 109.19 120.12 106.68 125.14 
M 105.53 127.44 103.78 130.94 
M 110.61 120.21 107.64 126.17 
M 107.1 127.23 104.66 132.13 
M 111.97 120.45 105.72 132.94 
M 113.13 121.07 106.87 133.59 
M 114.24 121.81 108.14 134.01 
M 115.2 122.83 109.55 134.14 
M 115.99 124.19 111.06 134.07 
M 116.57 125.99 112.85 133.43 
M 116.27 129.53 115.71 130.66 
M 72.35 160.03 73.22 160.9 
M 77.51 165.19 77.6 165.28 
M 58.38 128.37 59.93 129.93 
M 59.07 123.17 62.84 126.94 
M 62.69 120.9 67.77 125.97 
M 66.45 118.76 70.13 122.44 
M 70.14 116.56 74.75 121.17 
M 73.93 114.45 77.86 118.38 
M 77.8 112.42 81.78 116.41 
M 81.79 110.52 85.03 113.76 
M 85.8 108.63 89.29 112.13 
M 89.87 106.81 93.92 110.86 
M 94.16 105.21 98.3 109.35 
M 98.36 103.52 103.46 108.61 
M 102.53 101.79 107.79 107.05 
M 106.75 100.12 110 103.36 
M 111.03 98.5 116.41 103.87 
M 115.37 96.94 119.75 101.32 
M 120.09 95.77 125.92 101.6 
M 124.94 94.72 128.94 98.72 
M 129.92 93.81 134.93 98.81 
M 135.05 93.04 139.14 97.13 
M 140.28 92.38 143.51 95.61 
M 145.67 91.87 150.67 96.87 
M 107.88 106.74 103.44 108.33 101.46 108.76 100.94 108.68 100.53 108.13 100.67 106.92 
M 79.01 150.58 79.63 150.88 80.07 150.79 80.26 150.53 79.96 150.18 
M 72.91 160.51 72.95 160.46 
M 74.02 158.6 75.03 156.02 75.88 154.68 77.63 153.34 78.94 153.01 
M 139.25 133.21 138.88 133.08 138.73 132.74 139.01 131.86 139.56 131.27 140.34 131.08 
M 127.75 179.98 128.52 180.13 129.13 180.49 129.11 181.11 128.44 181.86 
M 68.76 119.83 70.2 119.88 70.66 119.76 71.82 118.31 
M 152.45 178.6 153.9 176.53 154.87 175.52 159.35 172.84 160.36 171.69 
M 149.32 117.07 149.18 118.01 147.84 122.3 147.52 122.89 146.68 123.93 145.13 125.27 143.58 126 
M 120.36 170.36 118.92 169.64 118.26 169.02 116.37 166.07 114.38 162.54 113.81 161.92 113.12 161.71 
M 147.67 132.26 145.93 132.13 143.27 130.3 142.75 129.64 142.47 128.52 
M 71.54 117.32 72.18 116.34 72.35 116.3 
M 161.48 161.37 160.2 160.53 158.31 159.75 157.72 160.08 157.27 161.17 
M 74.46 157.58 75.35 155.46 75.79 154.84 77.86 153.25 79.12 152.97 79.59 152.71 
M 107.82 153.9 110.6 155.76 111.27 156.5 111.42 157.08 111.42 159.73 
M 135.15 117.7 132.98 117.23 128.4 114.82 127.54 114.2 126.96 113.45 125.74 110.67 124.48 108.94 123.12 107.43 
M 87.62 160.53 86.93 160.51 84.51 159.89 83.9 159.91 82.88 160.24 81.8 161.01 
M 80.09 166.22 81.21 162.04 81.62 161.48 
M 92.98 171.25 93.75 171.75 95.94 172.15 99.96 172.32 102.29 171.99 104.54 172.17 
M 151.3 101.76 153.55 102.76 156.76 103.13 
M 74.97 136 74.42 135.25 72.19 134.16 71.17 132.43 69.99 131.16 
M 107.55 188.34 107.17 187 106.36 185.82 
M 77.25 125.89 75.95 125.07 74.61 123.37 74.28 122.09 74.61 120.96 
M 154.19 104.01 155.36 103.48 156.85 103.4 
M 152.47 147.14 149.47 148.99 147.5 151.13 145.82 153.29 144.37 154.16 
M 72.1 132.76 69.92 130.72 69.31 130.54 68.94 130.63 68.74 131.27 68.84 132.27 69.79 133.93 
M 154.42 193.32 154.76 192.15 154.7 191.07 152.54 189.75 
M 146.18 165.79 144.02 164.57 141.36 163.44 139.84 162.37 
M 145.83 196.85 143.34 196.01 142.36 195.87 141.84 195.98 140.07 196.96 
M 74.61 136.16 74.2 135.46 72.97 134.88 72.03 134.23 71.44 132.85 70.4 131.59 
M 130.02 164.01 128.27 163.81 126.91 163.05 126.04 162.8 121.36 162.24 120.41 161.78 
M 163.29 123.64 162.25 124.14 159.54 126.52 158.3 126.72 157.52 126.56 
M 75.1 138.65 74.61 135.86 74.02 135.25 72.09 134.25 71.76 133.65 
M 162.89 166.76 164 166.36 167.07 165.66 168.26 165.77 
M 126.14 114.53 125.76 113.72 125.23 111.8 124.31 110.05 120.23 106.46 119.02 105.96 118.11 105.9 
M 95.12 113.95 95 113.15 95.1 112.54 96.57 107.86 97.29 106.83 98.07 106.05 99.35 103.95 
M 77.75 138.21 77.42 137 75.64 134.47 74.37 133.6 72.92 133.01 72.4 132.61 
M 78.73 150.21 79.67 150.82 80.22 150.57 79.98 150.19 
M 117.55 186.69 117.87 185.37 
M 92.95 121.71 92.03 120.72 91.39 117.99 
M 152.5 119.97 150.91 121.78 150.2 122.33 147.55 123.57 144.79 125.53 143.26 126.19 
M 64.26 136.63 67.2 138.04 69.46 140.4 
M 110.67 144.62 110.23 145.34 
M 153.87 150.85 152.74 151.12 150.72 151.14 149.94 151.3 145.22 153.92 
M 157.78 181.47 158.97 179.76 160.26 176.21 160.98 175.06 
M 166.3 133.49 164.99 133.82 162.95 134.85 160.58 135.15 159.4 134.71 157.92 133.22 
M 166.56 132.24 162.64 134.32 162.04 134.45 160.27 134.35 159.73 134.13 158.88 133.3 
M 79.46 133.06 76.36 131.31 69.9 128.34 69.01 128.36 68.23 129.24 
M 76.84 154.09 77.81 153.31 79.31 152.9 80.78 151.75 
M 148.13 178.28 149.02 176.09 150.41 173.99 152.36 171.98 153.55 171.04 154.64 170.45 161.86 166.85 
M 154.98 198.65 156.4 195.76 157.71 193.69 159.24 193.18 162.05 191.68 
M 94.33 136.9 92.58 135.96 91.18 134.02 
M 79.79 113.14 81.79 115.25 82.52 114.7 83.26 113.42 
M 133.85 182.25 133.02 182.93 131.06 184 130.23 184.06 127.24 182.87 126.02 183.2 
M 159.21 178.38 160.12 176.08 160.96 174.69 161.35 174.45 
M 165.46 178.09 164.82 177.21 164.02 177.01 
M 150.54 94.08 150.24 94.46 149.84 94.55 147.77 93.95 
M 132.98 133.03 133.07 132.59 133.77 131.88 136.24 130.8 138.92 130.42 140.83 130.76 
M 101.9 143 102.03 144.04 102.34 144.66 
M 113.21 158.34 113.83 159.02 115.09 159.58 115.87 160.26 116.39 160.5 
M 111.22 189.28 109.9 186.82 107.71 184.29 107.3 183.45 106.88 181.42 
M 76.2 133.44 73.48 131.78 71.76 130.53 69.69 129.52 68.95 129.4 68.26 129.7 68.01 130.44 68.28 132.02 
M 118.84 170.96 118.18 170.46 117.58 169.71 115.35 166.31 114.32 164.15 113.47 162.8 112.99 162.42 112.51 162.29 111.72 162.52 111.13 163.08 
M 98.72 150.34 99.71 151.49 101.31 152.24 104.7 152.17 108.27 152.33 
M 122.32 111.15 121.7 110.5 120.06 109.3 118.94 109 118.26 109.03 115.15 109.86 113.65 110.07 
M 94.78 149.71 95.6 152.35 96.61 153.87 97.31 154.49 
M 164.71 165.58 168.61 163.9 
M 169.06 160.98 167.47 158.67 
M 150.83 139.88 149.18 139.44 148.18 139.62 147.8 140.95 147.55 142.91 
M 75 114.22 75.21 115.62 74.84 117.25 
M 72.89 153.05 71.85 153.83 
M 69.81 155.29 68.98 155.74 
M 119.63 141.83 116.42 143.93 115.57 144.19 114.04 144.3 112.48 144.75 111.41 145.24 110.96 145.87 
M 168.03 157.71 167.42 156.67 165.64 154.85 163.91 151.61 162.74 148.14 161.7 145.95 161.22 145.46 160.51 145.06 
M 84.01 132.53 84.53 132.01 85.15 130.99 85.47 129.5 85.93 124.49 85.44 121.75 
M 117 164.49 115.47 161.51 115.37 160.87 
M 138.65 151.6 136.57 151.51 134.88 152.25 131.66 153.33 
M 157.61 148.59 155.56 149.01 150.01 150.64 146.03 153.47 
M 144.87 191.23 142.47 193.07 141.88 193.7 140.36 196.09 139.79 196.67 138.98 196.99 137.46 197.23 136.14 197.25 135.6 197.08 
M 127.48 110.63 124.86 106.37 123.88 102.99 121.16 96.19 
M 86.12 140.9 86.85 143.51 87.64 144.77 88.5 146.98 88.32 147.79 87.36 148.89 
M 79.12 167.95 77.95 169.03 76.54 170 74.94 170.69 73.23 171.04 71.48 171.01 69.77 170.57 68.23 169.71 66.98 168.49 66.09 167.05 65.52 165.49 65.24 163.89 65.21 162.29 65.4 160.71 65.84 159.18 66.55 157.74 67.52 156.48 68.68 155.43 69.95 154.56 72.65 153.21 76.94 151.92 79.86 151.45 84.26 151 78.46 151.98 74.29 153.31 71.7 154.6 70.49 155.38 68.43 157.26 67.69 158.4 67.18 159.64 66.91 160.97 66.97 163.67 67.3 164.95 67.83 166.13 68.56 167.15 69.48 167.92 70.55 168.42 71.73 168.62 72.92 168.55 74.08 168.22 75.14 167.65 77.03 165.87 
M 78.19 167.11 78.58 167.75 
M 74.46 162.86 74.34 163.56 74.82 163.41 
M 71.67 158.32 70.96 159.15 70.61 160.22 71.27 159.65 72.31 159.41 
M 68.97 153.97 67.48 155.39 66.88 156.87 67.79 155.89 69.77 155.22 
M 66.08 149.86 64 151.63 63.15 153.52 64.31 152.14 66.96 151.08 
M 63.19 145.74 60.53 147.88 59.42 150.17 60.83 148.38 64.01 146.99 
M 60.35 141.58 57.05 144.12 55.69 146.83 57.35 144.62 61.2 142.84 
M 57.55 137.41 53.57 140.36 51.96 143.48 53.87 140.87 58.37 138.7 
M 54.89 133.13 50.09 136.61 48.23 140.13 50.39 137.11 55.74 134.46 
M 52.3 128.8 46.61 132.85 44.5 136.79 46.91 133.35 52.97 130.28 
M 78.1 166.92 79.03 167.15 
M 72.56 165.05 73.64 164.32 73.61 164.75 73.88 165.49 
M 67.6 163.47 68.29 162.37 69.21 161.72 68.87 162.51 68.98 163.9 
M 62.62 162 63.55 160.14 64.78 159.13 64.12 160.28 64.07 162.42 
M 57.67 160.52 58.8 157.9 60.35 156.53 59.37 158.05 59.15 160.95 
M 52.8 158.86 54.05 155.67 55.92 153.94 54.62 155.81 54.23 159.37 
M 47.95 157.12 49.31 153.44 51.49 151.34 49.88 153.58 49.35 157.57 
M 43.03 155.59 44.56 151.2 47.06 148.74 45.13 151.34 44.44 156.03 
M 38.12 153.98 39.81 148.97 42.63 146.15 40.38 149.11 39.53 154.45 
M 33.1 152.74 35.06 146.73 38.2 143.55 35.64 146.88 34.62 152.89 
M 41.07 160.14 53.47 166.67 60.17 169.87 67.02 172.77 81.08 177.86 95.56 182.38 
M 154.24 96.77 156.18 98.7 
M 155.95 90.62 163.13 97.79 
M 162.45 89.25 170.1 96.91 
M 169.08 88.03 179.99 98.94 
M 176.07 87.16 186 97.09 
M 183.33 86.55 193.3 96.53 
M 190.89 86.26 201.93 97.3 
M 198.55 86.05 210.29 97.8 
M 206.23 85.88 214.77 94.42 
M 213.9 85.69 221.51 93.3 
M 221.47 85.4 233.1 97.03 
M 228.78 84.85 235.19 91.26 
M 235.67 83.87 245.42 93.62 
M 242.17 82.52 250.23 90.58 
M 248.25 80.73 258.64 91.13 
M 254.4 79.02 265.11 89.73 
M 260.86 77.62 267.46 84.22 
M 268.1 77.01 276.03 84.93 
M 276.15 77.2 285.08 86.12 
M 285.12 78.3 296.83 90.01 
M 294.38 79.71 300.91 86.24 
M 303.3 80.77 311.03 88.49 
M 312.11 81.72 321.2 90.81 
M 321.04 82.78 329.05 90.79 
M 330.22 84.11 337.22 91.11 
M 339.51 85.54 349.94 95.96 
M 348.91 87.08 359.93 98.1 
M 358.8 89.11 365.49 95.8 
M 369.59 92.04 375.67 98.11 
M 381.43 96.01 391.23 105.82 
M 394.62 101.35 401.05 107.78 
M 267.11 130.62 266.46 130.54 265.81 129.81 265.8 129.16 266.44 129.24 267.1 129.97 267.11 130.62 
M 267.03 129.41 266.68 129.96 265.74 130.24 265.14 129.97 265.49 129.42 266.44 129.14 267.03 129.41 
M 263.29 111 263.79 110.59 264.77 110.6 265.25 111.03 264.76 111.45 263.77 111.44 263.29 111 
M 264.99 110.79 264.45 111.17 263.48 111.07 263.03 110.6 263.56 110.22 264.54 110.32 264.99 110.79 
M 249.92 122.22 249.8 121.58 250.29 120.73 250.9 120.52 251.03 121.16 250.53 122.01 249.92 122.22 
M 250.39 120.62 250.6 121.23 250.25 122.15 249.68 122.45 249.46 121.84 249.81 120.93 250.39 120.62 
M 270.14 116.89 269.56 117.19 268.61 116.98 268.22 116.45 268.79 116.15 269.75 116.36 270.14 116.89 
M 269.7 116.14 269.41 116.72 268.5 117.09 267.89 116.88 268.18 116.3 269.09 115.93 269.7 116.14 
M 260.02 135.64 260.61 135.89 261.05 136.78 260.89 137.4 260.29 137.15 259.85 136.27 260.02 135.64 
M 260.78 137.19 260.33 136.73 260.28 135.75 260.68 135.23 261.13 135.7 261.18 136.68 260.78 137.19 
M 276.99 133.72 276.91 133.07 277.45 132.26 278.08 132.09 278.16 132.73 277.62 133.55 276.99 133.72 
M 278.26 132.71 277.71 133.06 276.74 132.92 276.31 132.43 276.86 132.08 277.83 132.22 278.26 132.71 
M 274.52 124.03 274.51 124.68 273.85 125.41 273.2 125.48 273.22 124.83 273.88 124.11 274.52 124.03 
M 274.61 124.84 273.97 124.97 273.12 124.48 272.9 123.87 273.54 123.74 274.39 124.23 274.61 124.84 
M 284.44 135.75 284.11 135.19 284.3 134.23 284.81 133.83 285.14 134.39 284.95 135.35 284.44 135.75 
M 284.64 135.54 284.43 134.92 284.8 134.01 285.37 133.71 285.59 134.33 285.22 135.24 284.64 135.54 
M 281.94 121.55 282.31 122.08 282.2 123.06 281.72 123.5 281.35 122.96 281.46 121.99 281.94 121.55 
M 282.24 123.15 281.74 122.74 281.57 121.77 281.9 121.21 282.4 121.63 282.57 122.59 282.24 123.15 
M 290.8 130.7 291.38 130.97 291.78 131.88 291.58 132.5 291 132.22 290.6 131.32 290.8 130.7 
M 291.82 131.99 291.2 131.83 290.63 131.03 290.7 130.38 291.33 130.54 291.89 131.35 291.82 131.99 
M 282.79 141.17 282.81 141.82 282.19 142.58 281.55 142.69 281.53 142.04 282.15 141.28 282.79 141.17 
M 282.92 142.02 282.28 142.14 281.43 141.66 281.21 141.05 281.85 140.92 282.7 141.4 282.92 142.02 
M 267.8 152.7 267.33 153.16 266.35 153.22 265.84 152.83 266.3 152.37 267.28 152.31 267.8 152.7 
M 266.53 153.46 266.58 152.81 267.29 152.12 267.94 152.09 267.88 152.73 267.18 153.42 266.53 153.46 
M 276.14 151.6 276.52 152.13 276.42 153.11 275.95 153.56 275.58 153.03 275.67 152.05 276.14 151.6 
M 276.41 151.93 276.28 152.56 275.5 153.16 274.85 153.13 274.98 152.49 275.76 151.89 276.41 151.93 
M 262.19 145.14 262.75 144.8 263.72 144.96 264.13 145.46 263.58 145.8 262.61 145.64 262.19 145.14 
M 262.42 145.35 263.02 145.11 263.95 145.44 264.27 146.01 263.66 146.24 262.74 145.91 262.42 145.35 
M 281.01 164.25 280.84 163.62 281.27 162.74 281.87 162.48 282.04 163.11 281.61 163.99 281.01 164.25 
M 281.18 164.07 281.21 163.42 281.89 162.71 282.53 162.64 282.5 163.29 281.83 164 281.18 164.07 
M 284.83 148.21 284.96 148.85 284.47 149.7 283.86 149.91 283.73 149.28 284.22 148.42 284.83 148.21 
M 284.4 149.81 284.16 149.2 284.48 148.28 285.04 147.95 285.29 148.55 284.96 149.48 284.4 149.81 
M 244.39 111.99 244.99 112.25 245.43 113.13 245.26 113.76 244.66 113.5 244.23 112.62 244.39 111.99 
M 244.23 112.42 244.85 112.64 245.32 113.5 245.19 114.13 244.58 113.91 244.1 113.05 244.23 112.42 
M 253.7 96.93 253.72 97.58 253.09 98.33 252.45 98.44 252.43 97.79 253.06 97.03 253.7 96.93 
M 253.56 97.11 253.31 97.71 252.43 98.15 251.8 97.99 252.05 97.39 252.93 96.95 253.56 97.11 
M 270.41 102.11 270.33 102.75 269.6 103.41 268.95 103.42 269.03 102.77 269.76 102.12 270.41 102.11 
M 269.07 103.19 269.46 102.67 270.43 102.48 270.99 102.8 270.59 103.31 269.63 103.51 269.07 103.19 
M 263.6 97.93 263.41 97.31 263.8 96.41 264.38 96.13 264.58 96.75 264.19 97.65 263.6 97.93 
M 263.96 96.28 264.19 96.89 263.84 97.81 263.27 98.12 263.04 97.51 263.39 96.59 263.96 96.28 
M 276.47 103.23 276.95 103.66 277.08 104.64 276.72 105.18 276.24 104.75 276.11 103.77 276.47 103.23 
M 276.11 103.64 276.66 103.98 276.95 104.92 276.7 105.51 276.14 105.17 275.85 104.23 276.11 103.64 
M 271 109.57 271.61 109.79 272.08 110.66 271.95 111.29 271.34 111.07 270.86 110.2 271 109.57 
M 271.52 111.18 271.28 110.57 271.62 109.65 272.19 109.33 272.42 109.94 272.08 110.86 271.52 111.18 
M 294.69 157.11 294.83 156.48 295.62 155.89 296.27 155.94 296.12 156.58 295.33 157.16 294.69 157.11 
M 296.1 156.95 295.47 156.76 294.94 155.94 295.03 155.29 295.66 155.48 296.19 156.3 296.1 156.95 
M 289.18 171.57 289.19 170.92 289.85 170.19 290.49 170.11 290.48 170.76 289.82 171.49 289.18 171.57 
M 290.39 171.35 289.8 171.07 289.39 170.18 289.58 169.56 290.17 169.83 290.57 170.72 290.39 171.35 
M 292.93 162.68 292.71 163.29 291.85 163.77 291.22 163.64 291.44 163.03 292.3 162.55 292.93 162.68 
M 292.82 163.25 292.18 163.37 291.33 162.87 291.12 162.26 291.76 162.14 292.61 162.64 292.82 163.25 
M 295.8 118.13 295.28 118.52 294.3 118.44 293.84 117.98 294.37 117.6 295.35 117.67 295.8 118.13 
M 294.21 117.62 294.83 117.82 295.35 118.66 295.24 119.3 294.62 119.1 294.11 118.26 294.21 117.62 
M 298.99 145.82 299.57 145.53 300.53 145.76 300.9 146.29 300.32 146.59 299.37 146.35 298.99 145.82 
M 300.17 145.34 300.17 145.99 299.53 146.74 298.89 146.83 298.89 146.18 299.53 145.44 300.17 145.34 
M 310.44 139.33 309.94 139.76 308.96 139.76 308.47 139.33 308.96 138.91 309.94 138.91 310.44 139.33 
M 309.66 138.61 309.68 139.26 309.06 140.03 308.42 140.14 308.4 139.49 309.02 138.73 309.66 138.61 
M 300.78 122.38 300.87 121.73 301.6 121.08 302.25 121.07 302.17 121.72 301.43 122.37 300.78 122.38 
M 301.59 122.47 301.33 121.87 301.63 120.94 302.18 120.6 302.44 121.19 302.14 122.13 301.59 122.47 
M 316.43 130.01 316.91 129.57 317.89 129.54 318.4 129.95 317.92 130.39 316.94 130.42 316.43 130.01 
M 316.89 130.51 317.18 129.93 318.09 129.56 318.71 129.76 318.42 130.34 317.51 130.72 316.89 130.51 
M 307.33 145.81 307.97 145.95 308.55 146.74 308.5 147.39 307.87 147.25 307.28 146.46 307.33 145.81 
M 308.66 146.55 308.06 146.79 307.13 146.46 306.81 145.9 307.41 145.66 308.34 145.99 308.66 146.55 
M 312.63 150.61 313.28 150.69 313.93 151.42 313.94 152.07 313.3 151.99 312.64 151.26 312.63 150.61 
M 314.03 151.38 313.41 151.54 312.52 151.12 312.26 150.52 312.89 150.35 313.78 150.78 314.03 151.38 
M 250.33 137.29 250.96 137.17 251.81 137.67 252.02 138.29 251.38 138.4 250.53 137.9 250.33 137.29 
M 250.57 138.23 250.95 137.7 251.91 137.48 252.48 137.79 252.1 138.31 251.14 138.53 250.57 138.23 
M 255.69 144.81 256.27 145.09 256.66 145.99 256.47 146.61 255.88 146.33 255.49 145.43 255.69 144.81 
M 256.8 145.52 256.25 145.87 255.28 145.72 254.86 145.23 255.41 144.88 256.38 145.03 256.8 145.52 
M 261.67 153.4 261.07 153.15 260.63 152.27 260.79 151.64 261.39 151.89 261.83 152.77 261.67 153.4 
M 261 151.81 261.38 152.33 261.29 153.31 260.83 153.76 260.44 153.24 260.53 152.26 261 151.81 
M 247.53 147.11 248.04 146.7 249.02 146.74 249.5 147.18 248.99 147.59 248.01 147.55 247.53 147.11 
M 248.06 147.74 248.28 147.13 249.14 146.65 249.77 146.77 249.56 147.39 248.7 147.87 248.06 147.74 
M 299.75 173.83 300.39 173.73 301.23 174.24 301.42 174.86 300.78 174.97 299.94 174.45 299.75 173.83 
M 299.9 174.05 300.54 174.12 301.22 174.83 301.25 175.48 300.6 175.41 299.93 174.7 299.9 174.05 
M 281.99 170.4 282.03 171.05 281.43 171.83 280.8 171.97 280.76 171.32 281.35 170.54 281.99 170.4 
M 281.52 171.92 281.22 171.35 281.44 170.39 281.97 170.01 282.27 170.58 282.05 171.54 281.52 171.92 
M 261.43 165.97 261.16 166.56 260.26 166.96 259.64 166.77 259.91 166.18 260.81 165.78 261.43 165.97 
M 261.02 166.94 260.47 166.59 260.18 165.65 260.44 165.06 260.99 165.4 261.28 166.34 261.02 166.94 
M 297.62 181.71 296.97 181.7 296.24 181.03 296.17 180.39 296.82 180.4 297.54 181.07 297.62 181.71 
M 296.15 181.09 296.75 180.86 297.67 181.2 297.99 181.77 297.38 182 296.46 181.66 296.15 181.09 
M 279.44 180.55 279.55 179.91 280.3 179.29 280.95 179.31 280.84 179.95 280.09 180.57 279.44 180.55 
M 279.5 179.66 280.15 179.7 280.85 180.38 280.9 181.03 280.26 180.99 279.55 180.31 279.5 179.66 
M 318.6 107.8 318.69 108.44 318.16 109.27 317.54 109.45 317.45 108.81 317.98 107.98 318.6 107.8 
M 317.36 108.38 318.01 108.39 318.74 109.05 318.82 109.7 318.17 109.68 317.44 109.02 317.36 108.38 
M 238.72 149.7 238.07 149.63 237.41 148.9 237.39 148.25 238.04 148.33 238.7 149.05 238.72 149.7 
M 238.59 149.5 238.01 149.21 237.63 148.31 237.83 147.69 238.41 147.97 238.79 148.88 238.59 149.5 
M 243.89 139.35 243.45 138.88 243.42 137.89 243.83 137.39 244.27 137.87 244.3 138.85 243.89 139.35 
M 244.56 138.62 243.91 138.6 243.2 137.93 243.13 137.28 243.78 137.31 244.5 137.98 244.56 138.62 
M 325.25 99.86 325.63 99.33 326.58 99.1 327.16 99.4 326.78 99.93 325.83 100.16 325.25 99.86 
M 326.17 100.38 326 99.75 326.43 98.87 327.02 98.61 327.19 99.24 326.77 100.12 326.17 100.38 
M 326.68 109.48 326.08 109.72 325.15 109.41 324.82 108.84 325.43 108.6 326.36 108.92 326.68 109.48 
M 325.19 108.68 325.78 108.93 326.22 109.81 326.06 110.44 325.46 110.19 325.02 109.31 325.19 108.68 
M 309.48 105.24 309.42 105.89 308.7 106.56 308.05 106.59 308.12 105.94 308.83 105.27 309.48 105.24 
M 309.48 106.13 308.83 106.14 308.08 105.51 307.98 104.87 308.63 104.86 309.38 105.49 309.48 106.13 
M 308.62 98.56 308.91 99.14 308.65 100.09 308.12 100.45 307.83 99.87 308.09 98.92 308.62 98.56 
M 308.63 98.8 308.6 99.45 307.92 100.16 307.27 100.23 307.31 99.58 307.98 98.87 308.63 98.8 
M 318.07 96.12 318.4 96.69 318.22 97.65 317.71 98.06 317.38 97.49 317.56 96.53 318.07 96.12 
M 317.44 97.69 317.65 97.07 318.51 96.59 319.14 96.71 318.93 97.32 318.08 97.81 317.44 97.69 
M 332.42 164.57 332.64 165.18 332.29 166.1 331.71 166.4 331.49 165.79 331.84 164.87 332.42 164.57 
M 332.43 164.83 332.3 165.47 331.52 166.07 330.87 166.03 331 165.39 331.78 164.79 332.43 164.83 
M 333.23 105.5 333.77 105.14 334.75 105.27 335.18 105.75 334.64 106.11 333.66 105.99 333.23 105.5 
M 333.64 105.13 334.24 105.4 334.66 106.28 334.49 106.91 333.89 106.65 333.47 105.76 333.64 105.13 
M 337.6 124.23 337.71 124.87 337.19 125.7 336.56 125.89 336.46 125.25 336.98 124.42 337.6 124.23 
M 336.89 125.78 336.86 125.13 337.47 124.36 338.11 124.24 338.14 124.89 337.53 125.66 336.89 125.78 
M 343.56 116.33 342.91 116.36 342.14 115.76 342.02 115.12 342.67 115.09 343.44 115.7 343.56 116.33 
M 342.29 116.28 342.56 115.69 343.45 115.28 344.07 115.46 343.81 116.05 342.91 116.46 342.29 116.28 
M 336.9 112.58 337.07 113.21 336.64 114.09 336.05 114.35 335.88 113.73 336.3 112.84 336.9 112.58 
M 337.2 113.28 336.65 113.63 335.68 113.47 335.26 112.97 335.81 112.63 336.78 112.79 337.2 113.28 
M 349.03 148.56 349.68 148.64 350.34 149.37 350.35 150.02 349.71 149.94 349.05 149.21 349.03 148.56 
M 350.2 149.84 349.64 149.52 349.3 148.59 349.54 147.99 350.11 148.31 350.44 149.23 350.2 149.84 
M 351.36 157.81 350.78 157.5 350.43 156.58 350.65 155.97 351.23 156.28 351.58 157.2 351.36 157.81 
M 351.15 156.15 351.22 156.8 350.67 157.61 350.05 157.78 349.97 157.14 350.52 156.32 351.15 156.15 
M 336.06 159.25 335.74 158.69 335.93 157.73 336.44 157.33 336.77 157.89 336.58 158.85 336.06 159.25 
M 336.93 157.96 336.46 158.41 335.48 158.46 334.96 158.06 335.44 157.61 336.42 157.56 336.93 157.96 
M 337.34 171.64 336.78 171.31 336.47 170.38 336.72 169.78 337.28 170.11 337.59 171.04 337.34 171.64 
M 337.77 170.58 337.19 170.88 336.24 170.65 335.86 170.13 336.43 169.83 337.39 170.05 337.77 170.58 
M 342.13 105.98 342.72 105.7 343.66 105.97 344.02 106.51 343.43 106.79 342.49 106.52 342.13 105.98 
M 343.55 106.82 343 106.47 342.72 105.53 342.99 104.93 343.54 105.28 343.82 106.22 343.55 106.82 
M 325.43 87.42 325.16 88.01 324.27 88.41 323.64 88.23 323.92 87.64 324.81 87.23 325.43 87.42 
M 323.82 88.02 324.36 87.67 325.33 87.8 325.76 88.29 325.22 88.64 324.24 88.51 323.82 88.02 
M 312.11 85.33 312.13 85.98 311.51 86.74 310.87 86.85 310.85 86.2 311.47 85.44 312.11 85.33 
M 311.47 86.84 311.29 86.21 311.7 85.32 312.29 85.05 312.47 85.68 312.06 86.57 311.47 86.84 
M 263.03 186.97 262.85 187.59 262.03 188.13 261.38 188.04 261.56 187.42 262.38 186.88 263.03 186.97 
M 261.46 187.45 262.09 187.3 262.96 187.75 263.2 188.36 262.57 188.51 261.7 188.06 261.46 187.45 
M 265.99 161.96 266.43 161.48 267.4 161.35 267.94 161.71 267.51 162.19 266.54 162.32 265.99 161.96 
M 267.7 161.66 267.14 162 266.17 161.83 265.76 161.32 266.32 160.99 267.28 161.16 267.7 161.66 
M 328.41 122.86 329.04 122.71 329.91 123.16 330.15 123.77 329.52 123.92 328.65 123.47 328.41 122.86 
M 328.79 122.75 329.35 123.09 329.64 124.02 329.38 124.62 328.83 124.28 328.54 123.34 328.79 122.75 
M 327.58 146.29 327.95 145.76 328.91 145.52 329.49 145.81 329.12 146.34 328.16 146.59 327.58 146.29 
M 327.92 145.63 328.54 145.82 329.07 146.64 328.98 147.29 328.35 147.1 327.82 146.28 327.92 145.63 
M 236.15 141.06 236.2 140.41 236.91 139.73 237.56 139.7 237.5 140.34 236.79 141.02 236.15 141.06 
M 236.75 139.64 237.03 140.22 236.78 141.17 236.24 141.53 235.95 140.95 236.21 140 236.75 139.64 
M 236.73 116.68 236.66 116.04 237.22 115.23 237.85 115.07 237.92 115.72 237.36 116.52 236.73 116.68 
M 237.9 115.45 237.51 115.96 236.55 116.17 235.98 115.85 236.37 115.34 237.33 115.13 237.9 115.45 
M 238.29 110.37 237.66 110.23 237.07 109.45 237.11 108.8 237.74 108.94 238.34 109.72 238.29 110.37 
M 237.13 110.06 237.48 109.52 238.42 109.24 239.01 109.5 238.66 110.05 237.72 110.33 237.13 110.06 
M 299.74 98.08 299.13 98.32 298.21 98 297.88 97.43 298.48 97.19 299.41 97.51 299.74 98.08 
M 299.49 98.06 298.85 97.99 298.18 97.26 298.16 96.61 298.81 96.69 299.47 97.41 299.49 98.06 
M 305.59 91.15 306.21 91.33 306.75 92.15 306.67 92.8 306.04 92.62 305.5 91.8 305.59 91.15 
M 305.49 91.58 306.12 91.74 306.68 92.55 306.61 93.19 305.98 93.03 305.42 92.22 305.49 91.58 
M 298.97 88.18 299.6 88.35 300.15 89.16 300.07 89.81 299.45 89.64 298.89 88.83 298.97 88.18 
M 300.27 89.06 299.63 89.21 298.77 88.74 298.54 88.13 299.17 87.99 300.04 88.46 300.27 89.06 
M 353.56 113.01 352.96 113.27 352.03 112.97 351.69 112.41 352.29 112.16 353.22 112.46 353.56 113.01 
M 352.19 113.32 352.39 112.7 353.23 112.2 353.87 112.31 353.67 112.93 352.83 113.43 352.19 113.32 
M 348.96 102.89 349.6 102.85 350.39 103.44 350.53 104.07 349.88 104.12 349.1 103.53 348.96 102.89 
M 349.01 103.35 349.65 103.27 350.47 103.81 350.65 104.43 350 104.52 349.18 103.97 349.01 103.35 
M 245.78 188.24 245.26 187.85 245.06 186.89 245.38 186.32 245.9 186.71 246.1 187.68 245.78 188.24 
M 246.16 186.81 245.8 187.35 244.86 187.62 244.27 187.35 244.63 186.8 245.57 186.54 246.16 186.81 
M 308.2 168.77 308.54 169.32 308.38 170.29 307.88 170.71 307.54 170.15 307.7 169.19 308.2 168.77 
M 307.75 169.05 308.17 169.54 308.16 170.53 307.73 171.01 307.31 170.52 307.32 169.54 307.75 169.05 
M 240.73 103.23 241.33 102.99 242.26 103.3 242.59 103.86 241.99 104.11 241.06 103.79 240.73 103.23 
M 242.15 102.98 241.89 103.58 241.01 104.01 240.38 103.84 240.64 103.24 241.52 102.81 242.15 102.98 
M 230.2 110.41 230.31 111.05 229.8 111.89 229.18 112.08 229.07 111.44 229.58 110.6 230.2 110.41 
M 229.52 111.97 229.47 111.33 230.05 110.53 230.68 110.38 230.74 111.03 230.16 111.83 229.52 111.97 
M 234.46 129.86 234.08 130.39 233.13 130.63 232.55 130.33 232.92 129.8 233.88 129.57 234.46 129.86 
M 233.79 129.4 233.73 130.05 233.03 130.74 232.38 130.78 232.44 130.13 233.14 129.44 233.79 129.4 
M 223.21 127.44 223.84 127.57 224.43 128.35 224.39 129 223.76 128.87 223.16 128.08 223.21 127.44 
M 223.89 127.48 224.01 128.11 223.52 128.96 222.9 129.18 222.78 128.54 223.27 127.69 223.89 127.48 
M 362.31 104.47 362.55 105.08 362.21 106 361.64 106.32 361.41 105.71 361.75 104.79 362.31 104.47 
M 362.55 105.88 361.95 105.63 361.51 104.75 361.68 104.12 362.28 104.37 362.71 105.25 362.55 105.88 
M 360.93 111.71 361.52 111.44 362.46 111.71 362.81 112.26 362.22 112.53 361.28 112.26 360.93 111.71 
M 361.57 111.3 362 111.79 362 112.77 361.58 113.26 361.15 112.77 361.15 111.79 361.57 111.3 
M 363.05 120.58 363.57 120.18 364.55 120.23 365.02 120.68 364.5 121.08 363.52 121.03 363.05 120.58 
M 363.4 121.02 363.82 120.53 364.79 120.38 365.34 120.73 364.92 121.22 363.95 121.37 363.4 121.02 
M 349.54 96.22 348.91 96.37 348.04 95.91 347.8 95.3 348.44 95.16 349.31 95.62 349.54 96.22 
M 348.45 95.05 348.82 95.58 348.72 96.56 348.24 97 347.87 96.47 347.98 95.49 348.45 95.05 
M 337.41 99.33 337.33 98.69 337.89 97.88 338.51 97.71 338.59 98.36 338.03 99.17 337.41 99.33 
M 338.68 98.71 338.03 98.74 337.26 98.14 337.13 97.5 337.78 97.47 338.56 98.07 338.68 98.71 
M 350.78 90.61 350.19 90.32 349.81 89.42 350.01 88.8 350.59 89.09 350.98 89.99 350.78 90.61 
M 349.87 89.16 350.45 89.47 350.79 90.39 350.57 91 350 90.69 349.65 89.77 349.87 89.16 
M 356.21 96.5 356.8 96.78 357.19 97.68 357 98.3 356.41 98.02 356.02 97.12 356.21 96.5 
M 355.97 97 356.6 97.16 357.16 97.97 357.09 98.62 356.46 98.45 355.9 97.64 355.97 97 
M 284.57 113.84 285.2 114.02 285.73 114.84 285.64 115.49 285.01 115.31 284.48 114.48 284.57 113.84 
M 284.36 114.65 284.98 114.46 285.88 114.86 286.15 115.45 285.53 115.64 284.63 115.24 284.36 114.65 
M 209.07 112.52 209.72 112.54 210.45 113.2 210.52 113.85 209.87 113.83 209.15 113.17 209.07 112.52 
M 210.36 113.68 209.76 113.42 209.34 112.53 209.52 111.9 210.11 112.17 210.53 113.05 210.36 113.68 
M 215.33 120.42 215.1 121.02 214.23 121.48 213.59 121.33 213.83 120.73 214.7 120.27 215.33 120.42 
M 215.14 120.57 214.66 121 213.68 121.02 213.18 120.61 213.66 120.17 214.64 120.15 215.14 120.57 
M 220.34 105.73 220.34 106.38 219.69 107.11 219.05 107.2 219.05 106.55 219.7 105.82 220.34 105.73 
M 218.96 106.35 219.6 106.25 220.43 106.77 220.62 107.4 219.98 107.49 219.14 106.97 218.96 106.35 
M 288.02 124.42 288.35 123.86 289.29 123.56 289.89 123.81 289.55 124.37 288.62 124.67 288.02 124.42 
M 288.75 123.39 289.11 123.94 288.98 124.91 288.49 125.34 288.14 124.8 288.27 123.83 288.75 123.39 
M 350.07 166.71 349.47 166.45 349.05 165.56 349.23 164.93 349.82 165.2 350.24 166.08 350.07 166.71 
M 349.07 165.35 349.67 165.59 350.12 166.46 349.97 167.09 349.37 166.85 348.92 165.98 349.07 165.35 
M 224.39 134.65 224.59 135.27 224.21 136.18 223.63 136.46 223.43 135.85 223.81 134.94 224.39 134.65 
M 223.3 135.78 223.83 135.41 224.81 135.51 225.25 135.98 224.72 136.36 223.74 136.26 223.3 135.78 
M 219.35 147.37 219.78 148.38 219.53 148.98 219.3 148.84 
M 219.34 147.96 219.98 148.28 220.22 148.89 219.59 149.04 219.29 148.89 
M 214.87 138.81 215.37 138.4 216.35 138.42 216.83 138.86 216.33 139.27 215.35 139.25 214.87 138.81 
M 215.29 139.33 215.62 138.77 216.56 138.46 217.16 138.71 216.82 139.27 215.89 139.58 215.29 139.33 
M 335.92 90.92 336.54 90.72 337.44 91.11 337.73 91.69 337.11 91.89 336.2 91.5 335.92 90.92 
M 336.09 91.14 336.74 91.08 337.54 91.66 337.68 92.29 337.04 92.35 336.24 91.77 336.09 91.14 
M 359.54 89.29 359.27 89.22 
M 371.5 133.43 370.89 133.19 370.45 132.31 370.61 131.68 371.21 131.93 371.65 132.8 371.5 133.43 
M 370.9 133.29 370.83 132.64 371.4 131.84 372.03 131.68 372.1 132.33 371.53 133.13 370.9 133.29 
M 371.03 114.77 371.65 114.97 372.17 115.8 372.07 116.44 371.45 116.25 370.93 115.41 371.03 114.77 
M 371.84 114.92 371.78 115.56 371.08 116.25 370.43 116.29 370.48 115.64 371.19 114.95 371.84 114.92 
M 311.91 178.29 312.1 177.67 312.93 177.14 313.57 177.23 313.38 177.86 312.56 178.39 311.91 178.29 
M 312.08 178.12 312.53 177.65 313.51 177.56 314.04 177.94 313.59 178.41 312.61 178.5 312.08 178.12 
M 350.31 136.38 350.01 135.81 350.23 134.85 350.75 134.47 351.06 135.04 350.83 136 350.31 136.38 
M 350.6 136.17 350.35 135.57 350.65 134.64 351.2 134.3 351.46 134.9 351.16 135.83 350.6 136.17 
M 225.5 98.64 226.03 98.25 227.01 98.33 227.46 98.8 226.94 99.18 225.96 99.1 225.5 98.64 
M 227.21 98.55 226.65 98.88 225.68 98.71 225.28 98.2 225.83 97.87 226.8 98.04 227.21 98.55 
M 209.78 99.81 210.42 99.76 211.22 100.34 211.36 100.98 210.71 101.03 209.92 100.45 209.78 99.81 
M 211.15 100.87 210.54 100.63 210.09 99.76 210.24 99.13 210.84 99.36 211.3 100.23 211.15 100.87 
M 219.76 99.92 219.42 99.36 219.57 98.39 220.07 97.97 220.41 98.53 220.26 99.5 219.76 99.92 
M 220.66 99.03 220.02 99.16 219.17 98.67 218.96 98.05 219.6 97.93 220.45 98.42 220.66 99.03 
M 294.86 188.47 294.43 188.95 293.45 189.07 292.91 188.7 293.35 188.22 294.33 188.11 294.86 188.47 
M 293.58 189.27 293.66 188.63 294.38 187.96 295.03 187.94 294.95 188.58 294.23 189.25 293.58 189.27 
M 357.21 138.76 356.89 138.19 357.09 137.23 357.61 136.84 357.92 137.41 357.72 138.37 357.21 138.76 
M 358.03 138.22 357.4 138.04 356.87 137.21 356.97 136.57 357.59 136.75 358.12 137.58 358.03 138.22 
M 375.24 103.99 375.42 104.62 375.01 105.51 374.41 105.78 374.23 105.15 374.64 104.26 375.24 103.99 
M 374.26 105.37 374.6 104.82 375.54 104.53 376.13 104.79 375.79 105.34 374.85 105.63 374.26 105.37 
M 300.16 190.86 300.16 190.42 300.8 190.51 300.96 190.68 
M 256.68 106.19 256.07 105.98 255.58 105.13 255.7 104.49 256.31 104.7 256.8 105.55 256.68 106.19 
M 255.45 105.25 256.08 105.13 256.94 105.62 257.15 106.23 256.51 106.36 255.66 105.87 255.45 105.25 
M 368.01 151.4 367.56 150.93 367.5 149.95 367.89 149.44 368.34 149.9 368.4 150.88 368.01 151.4 
M 368.69 150.33 368.1 150.6 367.16 150.32 366.81 149.77 367.4 149.5 368.34 149.78 368.69 150.33 
M 379.12 135.8 379.26 135.17 380.05 134.58 380.7 134.63 380.56 135.27 379.77 135.85 379.12 135.8 
M 379.63 135.91 379.68 135.26 380.38 134.57 381.03 134.53 380.98 135.18 380.28 135.87 379.63 135.91 
M 206.71 119.56 207.2 119.99 207.33 120.96 206.98 121.51 206.49 121.08 206.35 120.1 206.71 119.56 
M 206.39 121.13 206.61 120.52 207.46 120.03 208.1 120.15 207.88 120.77 207.03 121.26 206.39 121.13 
M 285.4 106.98 284.75 106.94 284.05 106.26 283.99 105.61 284.64 105.65 285.34 106.34 285.4 106.98 
M 285.28 105.83 284.92 106.37 283.97 106.63 283.39 106.34 283.75 105.8 284.7 105.55 285.28 105.83 
M 297.16 105.29 297.76 105.02 298.7 105.31 299.05 105.85 298.45 106.12 297.51 105.84 297.16 105.29 
M 298.46 106.23 297.99 105.78 297.9 104.8 298.28 104.27 298.75 104.72 298.84 105.7 298.46 106.23 
M 202.56 108.29 203.12 108.63 203.43 109.56 203.18 110.16 202.62 109.83 202.31 108.89 202.56 108.29 
M 202.46 108.6 202.96 109.01 203.12 109.98 202.78 110.53 202.28 110.12 202.12 109.15 202.46 108.6 
M 224.79 184.91 225.17 184.38 226.12 184.15 226.7 184.45 226.32 184.98 225.37 185.21 224.79 184.91 
M 225.07 184.35 225.72 184.45 226.35 185.2 226.35 185.85 225.71 185.75 225.07 185 225.07 184.35 
M 367.3 99.48 366.65 99.43 365.95 98.74 365.91 98.09 366.56 98.14 367.25 98.83 367.3 99.48 
M 366.68 98.04 366.81 98.68 366.34 99.54 365.73 99.76 365.59 99.12 366.07 98.26 366.68 98.04 
M 269.24 191.56 268.97 190.97 269.25 190.03 269.79 189.68 270.06 190.27 269.78 191.21 269.24 191.56 
M 269.98 190.03 269.75 190.64 268.89 191.11 268.25 190.97 268.48 190.36 269.34 189.89 269.98 190.03 
M 335.18 181.79 334.89 181.21 335.12 180.25 335.66 179.88 335.95 180.46 335.71 181.41 335.18 181.79 
M 334.9 181.38 335.19 180.79 336.09 180.4 336.71 180.6 336.43 181.19 335.52 181.57 334.9 181.38 
M 361.31 168.23 361.95 168.31 362.61 169.04 362.62 169.69 361.98 169.61 361.32 168.88 361.31 168.23 
M 362.71 169.05 362.07 169.17 361.22 168.68 361 168.07 361.64 167.94 362.49 168.43 362.71 169.05 
M 238.32 96.26 238.75 95.77 239.72 95.62 240.27 95.97 239.84 96.47 238.87 96.61 238.32 96.26 
M 238.75 96.63 239.07 96.06 239.99 95.73 240.6 95.96 240.28 96.53 239.36 96.86 238.75 96.63 
M 350.73 180.97 350.77 180.66 351.41 180.86 
M 289.92 100.78 290.54 100.98 291.05 101.81 290.95 102.45 290.33 102.26 289.81 101.42 289.92 100.78 
M 289.69 101.63 290.3 101.42 291.21 101.79 291.51 102.37 290.89 102.58 289.98 102.21 289.69 101.63 
M 376.01 162.55 375.4 162.35 374.89 161.51 375 160.87 375.62 161.07 376.13 161.91 376.01 162.55 
M 374.79 161.9 375.33 161.55 376.31 161.69 376.73 162.18 376.19 162.53 375.22 162.39 374.79 161.9 
M 318.03 82.87 318.09 82.42 
M 319.05 82.54 318.68 82.87 318.03 82.87 
M 261.48 129.56 261.19 130.14 260.29 130.53 259.67 130.33 259.95 129.74 260.86 129.36 261.48 129.56 
M 261.19 129.52 260.79 130.03 259.83 130.23 259.26 129.91 259.66 129.39 260.62 129.2 261.19 129.52 
M 228.69 92.11 229.23 91.75 230.21 91.89 230.63 92.38 230.09 92.73 229.12 92.6 228.69 92.11 
M 228.92 92.37 229.5 92.07 230.46 92.29 230.84 92.82 230.26 93.12 229.31 92.9 228.92 92.37 
M 372.04 93.96 371.7 93.4 371.87 92.43 372.2 92.15 
M 372.48 92.21 372.7 92.57 372.54 93.54 372.04 93.96 
M 371.5 92.74 372.15 92.76 372.87 93.42 372.94 94.07 372.29 94.05 371.57 93.38 371.5 92.74 
M 240.61 90.24 240.69 89.59 241.41 88.93 242.06 88.91 241.98 89.55 241.26 90.22 240.61 90.24 
M 242.06 89.75 241.41 89.8 240.63 89.21 240.49 88.57 241.14 88.53 241.92 89.11 242.06 89.75 
M 232.81 100.47 233.46 100.48 234.2 101.13 234.28 101.77 233.63 101.76 232.9 101.11 232.81 100.47 
M 234.26 100.88 233.73 101.27 232.75 101.18 232.3 100.72 232.82 100.34 233.8 100.42 234.26 100.88 
M 301.51 79.5 301.97 79.62 
M 302.36 79.98 302.7 80.47 302.63 81.12 302 80.96 301.44 80.15 301.51 79.5 
M 302.78 80.55 302.13 80.54 301.4 79.88 301.31 79.24 301.57 79.24 
M 302.75 80.34 302.78 80.55 
M 218.88 180.01 219.53 179.93 220.34 180.48 220.51 181.1 219.87 181.18 219.05 180.63 218.88 180.01 
M 220.14 179.95 219.93 180.57 219.08 181.06 218.45 180.95 218.65 180.33 219.5 179.83 220.14 179.95 
M 223.52 191.96 223.24 192.54 222.34 192.94 221.72 192.76 222 192.17 222.9 191.77 223.52 191.96 
M 222.5 191.62 222.79 192.2 222.56 193.15 222.03 193.53 221.73 192.95 221.97 191.99 222.5 191.62 
M 391.31 119.62 391.26 118.98 391.85 118.19 392.49 118.05 392.53 118.7 391.94 119.49 391.31 119.62 
M 391.51 118.2 392 118.63 392.13 119.6 391.78 120.14 391.29 119.71 391.16 118.74 391.51 118.2 
M 253.12 84.15 252.93 84.77 252.1 85.3 251.46 85.2 251.65 84.58 252.48 84.05 253.12 84.15 
M 253.01 84.46 252.47 84.83 251.49 84.71 251.05 84.23 251.59 83.87 252.57 83.98 253.01 84.46 
M 258.55 88.86 259.14 89.14 259.53 90.04 259.33 90.66 258.74 90.38 258.36 89.47 258.55 88.86 
M 258.53 89.13 259.04 89.54 259.2 90.51 258.87 91.07 258.37 90.66 258.2 89.69 258.53 89.13 
M 405.48 119.94 404.94 120.29 403.97 120.16 403.54 119.67 404.08 119.31 405.06 119.45 405.48 119.94 
M 403.93 119.34 404.53 119.57 405 120.43 404.85 121.07 404.25 120.84 403.78 119.97 403.93 119.34 
M 392.77 128.62 392.12 128.63 391.36 128.01 391.25 127.37 391.9 127.35 392.66 127.98 392.77 128.62 
M 391.29 127.82 391.93 127.77 392.72 128.35 392.86 128.99 392.22 129.04 391.43 128.45 391.29 127.82 
M 393.85 106.42 393.53 105.86 393.72 104.89 394.24 104.5 394.56 105.06 394.36 106.03 393.85 106.42 
M 393.67 104.81 394.15 105.25 394.26 106.23 393.89 106.76 393.41 106.32 393.3 105.34 393.67 104.81 
M 216.1 87.01 216.15 87.65 215.57 88.45 214.94 88.59 214.88 87.94 215.46 87.15 216.1 87.01 
M 215.55 88.55 215.32 87.94 215.67 87.02 216.24 86.71 216.47 87.32 216.12 88.24 215.55 88.55 
M 221.53 89.52 222 89.97 222.09 90.95 221.71 91.48 221.24 91.03 221.15 90.05 221.53 89.52 
M 222.01 91.14 221.52 90.71 221.39 89.74 221.74 89.19 222.23 89.62 222.36 90.6 222.01 91.14 
M 231.06 83.13 231.34 82.55 232.24 82.15 232.86 82.34 232.58 82.93 231.68 83.33 231.06 83.13 
M 231.22 82.86 231.8 82.56 232.75 82.8 233.12 83.34 232.54 83.63 231.59 83.39 231.22 82.86 
M 261.06 82.86 260.51 83.18 259.54 83.01 259.13 82.5 259.69 82.17 260.66 82.35 261.06 82.86 
M 259.35 82.69 259.97 82.48 260.87 82.86 261.17 83.44 260.55 83.64 259.64 83.27 259.35 82.69 
M 246.96 78.92 247.48 78.53 248.46 78.61 248.92 79.07 248.4 79.46 247.42 79.38 246.96 78.92 
M 247.3 79.39 247.72 78.89 248.7 78.75 249.25 79.09 248.82 79.59 247.85 79.74 247.3 79.39 
M 239.71 79.69 239.49 79.08 239.84 78.16 240.42 77.86 240.64 78.47 240.28 79.38 239.71 79.69 
M 239.69 78.12 240.17 78.56 240.29 79.54 239.92 80.08 239.44 79.64 239.33 78.66 239.69 78.12 
M 253.87 70.83 253.45 71.32 252.48 71.47 251.93 71.12 252.35 70.62 253.32 70.48 253.87 70.83 
M 252.15 70.97 252.77 70.77 253.67 71.17 253.95 71.75 253.33 71.95 252.43 71.55 252.15 70.97 
M 266.21 83.03 266.77 83.37 267.07 84.3 266.81 84.9 266.26 84.56 265.96 83.63 266.21 83.03 
M 265.76 83.92 266.39 83.76 267.27 84.2 267.53 84.79 266.9 84.96 266.02 84.52 265.76 83.92 
M 213.62 174.32 214.17 174.68 214.43 175.63 214.15 176.21 213.61 175.86 213.35 174.91 213.62 174.32 
M 214.1 174.55 214.11 175.2 213.49 175.96 212.85 176.07 212.83 175.42 213.45 174.66 214.1 174.55 
M 212.42 193.1 212.89 192.66 213.87 192.61 214.38 193.02 213.91 193.46 212.93 193.51 212.42 193.1 
M 212.94 192.47 213.48 192.84 213.73 193.79 213.44 194.37 212.91 194 212.66 193.05 212.94 192.47 
M 290.58 89.88 290.27 89.31 290.49 88.35 291.01 87.97 291.32 88.54 291.1 89.5 290.58 89.88 
M 291.23 89.53 290.71 89.15 290.5 88.19 290.81 87.61 291.33 88 291.54 88.96 291.23 89.53 
M 294.14 81.82 294.33 81.2 295.16 80.67 295.8 80.77 295.62 81.39 294.78 81.92 294.14 81.82 
M 294.23 81.4 294.82 81.12 295.77 81.37 296.13 81.9 295.55 82.19 294.6 81.94 294.23 81.4 
M 186.98 109.64 186.37 109.89 185.44 109.57 185.12 109 185.72 108.76 186.65 109.08 186.98 109.64 
M 185.97 108.58 186.23 109.18 185.94 110.11 185.39 110.46 185.13 109.86 185.42 108.92 185.97 108.58 
M 189.93 118.09 189.42 118.5 188.44 118.46 187.96 118.02 188.47 117.61 189.45 117.65 189.93 118.09 
M 188.33 117.62 188.95 117.82 189.46 118.66 189.36 119.3 188.74 119.1 188.23 118.26 188.33 117.62 
M 191.85 101.01 191.55 101.59 190.63 101.95 190.02 101.73 190.32 101.16 191.24 100.8 191.85 101.01 
M 191.12 102.1 190.77 101.55 190.93 100.58 191.42 100.16 191.77 100.71 191.61 101.68 191.12 102.1 
M 198.69 98.99 198.48 99.6 197.62 100.08 196.98 99.95 197.2 99.34 198.06 98.86 198.69 98.99 
M 197.44 100.1 197.6 99.47 198.41 98.92 199.06 98.99 198.9 99.62 198.09 100.17 197.44 100.1 
M 277.26 85.49 277.7 85.01 278.67 84.9 279.21 85.26 278.77 85.74 277.8 85.86 277.26 85.49 
M 278.47 84.67 278.47 85.32 277.81 86.05 277.17 86.13 277.18 85.48 277.83 84.75 278.47 84.67 
M 274.9 95.69 274.66 95.08 274.97 94.15 275.53 93.82 275.77 94.42 275.46 95.35 274.9 95.69 
M 274.5 94.98 275.03 94.6 276.01 94.7 276.46 95.17 275.93 95.55 274.95 95.45 274.5 94.98 
M 268.66 76.67 268.11 77.01 267.14 76.86 266.72 76.36 267.27 76.02 268.24 76.18 268.66 76.67 
M 267.92 77.23 267.54 76.7 267.63 75.72 268.1 75.27 268.48 75.8 268.39 76.78 267.92 77.23 
M 259.79 73.61 260.39 73.35 261.32 73.64 261.67 74.19 261.07 74.45 260.14 74.16 259.79 73.61 
M 260.96 74.61 260.58 74.08 260.68 73.11 261.15 72.66 261.52 73.19 261.43 74.17 260.96 74.61 
M 278.48 76.06 278.36 76.7 277.59 77.31 276.94 77.29 277.06 76.65 277.83 76.03 278.48 76.06 
M 277.86 75.94 277.93 76.59 277.37 77.39 276.74 77.56 276.67 76.91 277.23 76.1 277.86 75.94 
M 197.54 177.7 197.06 177.27 196.94 176.29 197.3 175.75 197.78 176.18 197.9 177.16 197.54 177.7 
M 197.28 177.46 197.2 176.81 197.75 176 198.38 175.83 198.46 176.48 197.91 177.29 197.28 177.46 
M 267.89 66.56 267.24 66.6 266.46 66 266.33 65.36 266.97 65.32 267.75 65.92 267.89 66.56 
M 266.43 65.64 267.07 65.73 267.73 66.46 267.74 67.11 267.1 67.03 266.44 66.29 266.43 65.64 
M 259.7 64 259.64 63.36 260.21 62.56 260.85 62.41 260.91 63.06 260.33 63.85 259.7 64 
M 260.66 62.57 260.51 63.2 259.71 63.77 259.06 63.71 259.21 63.08 260.01 62.51 260.66 62.57 
M 183.27 102.81 182.63 102.92 181.8 102.4 181.6 101.78 182.24 101.68 183.08 102.19 183.27 102.81 
M 183.16 102.1 182.62 102.45 181.64 102.32 181.21 101.83 181.76 101.48 182.73 101.61 183.16 102.1 
M 181.79 91.88 181.73 91.24 182.29 90.43 182.92 90.27 182.99 90.92 182.42 91.73 181.79 91.88 
M 182.81 91.68 182.28 91.3 182.04 90.35 182.34 89.77 182.87 90.14 183.1 91.1 182.81 91.68 
M 194.5 91.63 194.7 91.01 195.53 90.49 196.17 90.59 195.98 91.21 195.15 91.73 194.5 91.63 
M 195.97 90.71 195.55 91.21 194.58 91.36 194.03 91.01 194.45 90.52 195.42 90.37 195.97 90.71 
M 382.65 100.57 383.29 100.69 383.9 101.46 383.87 102.11 383.23 101.99 382.62 101.22 382.65 100.57 
M 383.86 100.89 383.48 101.42 382.53 101.65 381.95 101.35 382.33 100.82 383.28 100.6 383.86 100.89 
M 377.77 95.38 378.38 95.16 379.3 95.51 379.61 96.08 378.99 96.3 378.08 95.95 377.77 95.38 
M 379.31 96.15 378.69 95.97 378.15 95.14 378.19 94.85 
M 379.21 95.21 379.4 95.5 379.31 96.15 
M 367.7 169.33 368.31 169.13 369.22 169.51 369.5 170.1 368.88 170.3 367.98 169.91 367.7 169.33 
M 368.55 168.97 368.79 169.57 368.46 170.5 367.9 170.82 367.66 170.22 367.98 169.29 368.55 168.97 
M 296.94 74.5 295.89 74.75 295.33 74.41 295.75 73.91 296.33 73.82 
M 295.6 74 296.25 74.02 296.97 74.69 297.05 75.33 296.4 75.31 295.67 74.65 295.6 74 
M 389.43 99.37 389.58 99.22 
M 390.72 99.7 389.95 99.76 389.43 99.37 
M 390.01 98.42 390.11 98.02 390.71 98.27 390.99 98.83 
M 394.67 90.74 394.3 91.27 393.35 91.51 392.77 91.22 393.14 90.68 394.09 90.44 394.67 90.74 
M 393.59 91.71 393.5 91.07 394.04 90.25 394.67 90.07 394.75 90.72 394.21 91.54 393.59 91.71 
M 288.92 72.73 288.33 72.99 287.39 72.68 287.06 72.12 287.65 71.87 288.59 72.18 288.92 72.73 
M 287.42 72.91 287.76 72.36 288.7 72.08 289.3 72.34 288.95 72.89 288.01 73.17 287.42 72.91 
M 281.49 63.99 281.17 64.55 280.24 64.88 279.64 64.64 279.96 64.07 280.88 63.75 281.49 63.99 
M 280.47 63.57 280.74 64.16 280.47 65.1 279.93 65.46 279.65 64.87 279.92 63.93 280.47 63.57 
M 284.7 95.07 285.33 94.95 286.19 95.44 286.4 96.06 285.76 96.18 284.91 95.69 284.7 95.07 
M 285.6 94.82 285.75 95.45 285.3 96.32 284.7 96.56 284.55 95.93 285 95.06 285.6 94.82 
M 278.31 116 278.01 116.58 277.1 116.95 276.48 116.74 276.78 116.16 277.69 115.79 278.31 116 
M 277.34 115.62 277.58 116.23 277.26 117.16 276.7 117.48 276.46 116.88 276.78 115.95 277.34 115.62 
M 176.92 114.27 176.3 114.47 175.4 114.09 175.11 113.51 175.73 113.31 176.64 113.69 176.92 114.27 
M 175.28 114 175.86 113.71 176.81 113.97 177.18 114.5 176.59 114.79 175.64 114.54 175.28 114 
M 173.15 107.22 173.38 106.61 174.24 106.13 174.87 106.27 174.65 106.88 173.79 107.35 173.15 107.22 
M 174.63 107.17 174.01 106.98 173.48 106.15 173.58 105.51 174.2 105.69 174.73 106.52 174.63 107.17 
M 388.96 134.14 388.69 134.73 387.8 135.14 387.17 134.96 387.44 134.37 388.33 133.96 388.96 134.14 
M 387.65 135.18 387.83 134.55 388.65 134.01 389.29 134.09 389.12 134.72 388.3 135.26 387.65 135.18 
M 395.58 142.38 394.97 142.15 394.5 141.29 394.64 140.65 395.25 140.88 395.72 141.74 395.58 142.38 
M 394.4 141.28 395.05 141.29 395.79 141.94 395.88 142.58 395.23 142.58 394.49 141.93 394.4 141.28 
M 173.98 96.75 174.63 96.75 175.37 97.39 175.47 98.03 174.82 98.04 174.07 97.4 173.98 96.75 
M 174.73 98.14 174.53 97.52 174.9 96.62 175.48 96.33 175.69 96.94 175.31 97.85 174.73 98.14 
M 186.75 173.29 186.81 173.94 186.24 174.74 185.61 174.89 185.55 174.25 186.12 173.45 186.75 173.29 
M 186.32 174.83 186.01 174.26 186.22 173.3 186.75 172.91 187.05 173.48 186.84 174.44 186.32 174.83 
M 203.18 90.54 202.71 90.09 202.61 89.12 202.99 88.59 203.46 89.04 203.55 90.02 203.18 90.54 
M 203.53 90.17 203 89.79 202.78 88.83 203.08 88.26 203.6 88.64 203.83 89.59 203.53 90.17 
M 272.17 55.01 271.67 54.59 271.61 54.21 
M 272.35 54.72 272.17 55.01 
M 275.24 68.85 274.6 68.91 273.8 68.35 273.64 67.72 274.29 67.65 275.09 68.22 275.24 68.85 
M 274.69 67.58 274.67 68.23 274.01 68.95 273.36 69.03 273.38 68.38 274.04 67.65 274.69 67.58 
M 284.5 81.13 284.83 80.57 285.76 80.25 286.36 80.5 286.03 81.06 285.1 81.38 284.5 81.13 
M 285.23 81.53 285.2 80.89 285.82 80.12 286.46 80.01 286.48 80.66 285.87 81.42 285.23 81.53 
M 343.53 88.71 343.66 89.35 343.18 90.21 342.57 90.43 342.44 89.79 342.92 88.93 343.53 88.71 
M 342.54 90.11 342.82 89.53 343.72 89.14 344.34 89.34 344.06 89.92 343.16 90.31 342.54 90.11 
M 400.96 92.27 401.34 92.8 401.24 93.78 400.76 94.23 400.39 93.69 400.49 92.72 400.96 92.27 
M 401.61 93.21 401 93.44 400.08 93.1 399.77 92.53 400.37 92.3 401.3 92.64 401.61 93.21 
M 238.53 68.51 238.77 69.11 238.45 70.04 237.89 70.37 237.65 69.76 237.97 68.84 238.53 68.51 
M 238.64 70.05 238.12 69.66 237.93 68.69 238.25 68.13 238.76 68.52 238.96 69.49 238.64 70.05 
M 246.1 69.92 245.46 69.77 244.88 68.98 244.94 68.33 245.57 68.48 246.15 69.27 246.1 69.92 
M 244.83 68.84 245.47 68.89 246.16 69.6 246.2 70.25 245.55 70.19 244.87 69.49 244.83 68.84 
M 394.99 136.27 394.98 135.62 395.61 134.87 396.25 134.76 396.26 135.41 395.63 136.17 394.99 136.27 
M 395.79 134.79 395.84 135.44 395.26 136.23 394.63 136.37 394.58 135.72 395.16 134.93 395.79 134.79 
M 393.21 153.72 393.86 153.64 394.67 154.19 394.84 154.81 394.2 154.89 393.38 154.34 393.21 153.72 
M 393.69 154.93 393.79 154.29 394.55 153.66 395.2 153.68 395.09 154.32 394.34 154.94 393.69 154.93 
M 385.52 155.02 385.63 154.38 386.38 153.75 387.03 153.77 386.93 154.41 386.17 155.04 385.52 155.02 
M 385.53 154.45 386.13 154.21 387.06 154.53 387.39 155.09 386.78 155.33 385.86 155.01 385.53 154.45 
M 377.11 168.37 377.72 168.14 378.64 168.46 378.97 169.02 378.36 169.26 377.43 168.94 377.11 168.37 
M 377.49 168.19 378.08 168.47 378.48 169.37 378.28 169.99 377.7 169.71 377.3 168.81 377.49 168.19 
M 405.07 107.53 405.54 107.97 405.64 108.95 405.27 109.48 404.8 109.04 404.7 108.06 405.07 107.53 
M 404.49 108.82 404.97 108.38 405.95 108.35 406.46 108.77 405.98 109.2 404.99 109.23 404.49 108.82 
M 172.69 88.08 173.33 88.22 173.92 89.01 173.87 89.66 173.23 89.52 172.65 88.73 172.69 88.08 
M 173.62 88.2 173.52 88.85 172.76 89.48 172.11 89.46 172.22 88.82 172.97 88.19 173.62 88.2 
M 230.51 75.47 230.03 75.91 229.05 75.93 228.55 75.51 229.03 75.08 230.01 75.06 230.51 75.47 
M 229.81 76.18 229.4 75.69 229.41 74.7 229.84 74.22 230.26 74.72 230.25 75.7 229.81 76.18 
M 196.97 106.8 196.33 106.69 195.7 105.93 195.72 105.28 196.36 105.39 196.99 106.15 196.97 106.8 
M 195.61 105.92 196.25 105.83 197.08 106.35 197.27 106.97 196.63 107.07 195.79 106.55 195.61 105.92 
M 261.44 104.84 262.09 104.92 262.75 105.64 262.77 106.29 262.13 106.21 261.46 105.49 261.44 104.84 
M 261.61 106.13 261.87 105.53 262.76 105.11 263.39 105.28 263.13 105.88 262.24 106.3 261.61 106.13 
M 178.35 124.06 178.12 123.45 178.45 122.52 179.01 122.21 179.25 122.81 178.92 123.74 178.35 124.06 
M 179.39 123.37 178.74 123.36 178.01 122.71 177.92 122.06 178.57 122.07 179.31 122.72 179.39 123.37 
M 178.07 169 177.65 168.5 177.66 167.52 178.09 167.03 178.51 167.53 178.5 168.51 178.07 169 
M 178.6 168.55 178.03 168.25 177.68 167.33 177.9 166.72 178.47 167.02 178.82 167.94 178.6 168.55 
M 177.84 176.84 177.77 177.49 177.06 178.16 176.41 178.19 176.47 177.55 177.19 176.87 177.84 176.84 
M 177.17 178.26 176.93 177.66 177.26 176.73 177.82 176.41 178.06 177.01 177.74 177.94 177.17 178.26 
M 171.83 162.44 171.31 162.84 170.33 162.78 169.87 162.32 170.38 161.93 171.36 161.99 171.83 162.44 
M 170.28 162.87 170.62 162.32 171.56 162.02 172.15 162.28 171.81 162.83 170.88 163.13 170.28 162.87 
M 171.65 131.7 172.3 131.72 172.71 132.09 
M 171.85 132.46 171.65 131.7 
M 171.77 131.93 172.44 132.21 
M 171.67 132.54 171.77 131.93 
M 166.45 130.12 166.08 130.45 
M 165.88 129.71 166.45 130.12 
M 166.11 129.76 165.95 129.95 
M 165.85 129.59 166.11 129.76 
M 258.06 56.56 258.21 55.93 259 55.35 259.64 55.4 259.5 56.03 258.71 56.61 258.06 56.56 
M 258.73 56.72 258.64 56.08 259.16 55.25 259.79 55.06 259.88 55.7 259.36 56.53 258.73 56.72 
M 236.89 61.69 236.32 62.01 235.36 61.81 234.97 61.29 235.53 60.97 236.5 61.17 236.89 61.69 
M 235.83 60.75 236.11 61.34 235.85 62.28 235.31 62.64 235.03 62.06 235.29 61.11 235.83 60.75 
M 250.54 62.31 249.89 62.36 249.1 61.78 248.95 61.15 249.6 61.09 250.39 61.67 250.54 62.31 
M 249.42 62.4 249.51 61.76 250.26 61.12 250.91 61.12 250.81 61.76 250.06 62.4 249.42 62.4 
M 250.72 44.66 250.92 44.04 251.76 43.53 252.4 43.64 252.2 44.26 251.36 44.77 250.72 44.66 
M 250.85 44.39 251.37 44.01 252.35 44.08 252.81 44.54 252.29 44.93 251.31 44.85 250.85 44.39 
M 166.96 98.56 166.82 99.19 166.03 99.77 165.38 99.72 165.52 99.09 166.31 98.51 166.96 98.56 
M 166.9 99 166.33 99.31 165.37 99.1 164.98 98.58 165.56 98.27 166.51 98.48 166.9 99 
M 162.1 94.16 161.46 94.28 160.61 93.78 160.4 93.17 161.04 93.05 161.89 93.54 162.1 94.16 
M 161.93 93.97 161.28 93.9 160.62 93.17 160.61 92.52 161.25 92.6 161.91 93.32 161.93 93.97 
M 248.39 49.51 248.59 50.13 248.2 51.03 247.61 51.32 247.42 50.7 247.81 49.79 248.39 49.51 
M 248.73 50.24 248.17 50.58 247.21 50.41 246.79 49.91 247.35 49.57 248.32 49.74 248.73 50.24 
M 157.89 104.15 158.53 104.23 159.19 104.95 159.21 105.6 158.57 105.53 157.9 104.8 157.89 104.15 
M 158.75 104.16 158.77 104.81 158.16 105.57 157.6 105.67 
M 157.51 105.38 157.5 105.04 158.11 104.27 158.75 104.16 
M 170.17 190.28 169.53 190.23 168.84 189.53 168.79 188.88 169.44 188.94 170.13 189.64 170.17 190.28 
M 169.51 190.33 169.29 189.72 169.65 188.8 170.22 188.5 170.44 189.11 170.08 190.03 169.51 190.33 
M 390.57 161.48 391.04 161.92 391.15 162.9 390.78 163.44 390.31 162.99 390.2 162.02 390.57 161.48 
M 390.78 163.2 390.5 162.62 390.75 161.67 391.29 161.3 391.58 161.89 391.32 162.84 390.78 163.2 
M 403.07 152.63 402.61 152.17 402.55 151.19 402.94 150.67 403.4 151.14 403.46 152.12 403.07 152.63 
M 403.11 152.4 402.83 151.81 403.08 150.86 403.62 150.5 403.91 151.08 403.65 152.03 403.11 152.4 
M 243.66 56.82 243.93 57.42 243.65 58.36 243.1 58.71 242.83 58.11 243.12 57.17 243.66 56.82 
M 243.39 58.51 243.19 57.9 243.56 56.99 244.14 56.7 244.35 57.31 243.97 58.22 243.39 58.51 
M 273.65 61.22 273.03 61.42 272.13 61.04 271.84 60.46 272.46 60.25 273.36 60.63 273.65 61.22 
M 272.37 61.48 272.51 60.85 273.3 60.26 273.94 60.3 273.81 60.94 273.02 61.53 272.37 61.48 
M 258.82 49.87 258.2 50.05 257.3 49.64 257.04 49.04 257.66 48.86 258.55 49.28 258.82 49.87 
M 257.64 48.77 258.06 49.26 258.06 50.24 257.63 50.73 257.2 50.24 257.21 49.26 257.64 48.77 
M 265.43 53.71 266.08 53.62 266.9 54.17 267.07 54.79 266.43 54.88 265.61 54.33 265.43 53.71 
M 265.52 54.4 266.09 54.08 267.05 54.28 267.45 54.8 266.88 55.11 265.92 54.92 265.52 54.4 
M 406.55 97.57 406.36 97.11 406.99 96.95 407.48 97.2 
M 257.77 40.55 258.31 40.2 259.29 40.33 259.71 40.82 259.17 41.17 258.2 41.04 257.77 40.55 
M 259.47 40.87 258.82 40.91 258.04 40.31 257.91 39.67 258.56 39.63 259.34 40.23 259.47 40.87 
M 165.36 106.76 165.2 106.13 165.64 105.25 166.25 105.01 166.4 105.64 165.96 106.51 165.36 106.76 
M 165.13 105.54 165.78 105.65 166.4 106.4 166.39 107.05 165.75 106.95 165.12 106.19 165.13 105.54 
M 179.6 198.29 179.31 197.71 179.56 196.76 180.1 196.39 180.39 196.98 180.13 197.93 179.6 198.29 
M 179.32 196.81 179.9 197.11 180.26 198.02 180.05 198.64 179.47 198.34 179.11 197.43 179.32 196.81 
M 248.14 91.29 248.6 91.75 248.67 92.73 248.28 93.25 247.83 92.8 247.76 91.81 248.14 91.29 
M 247.59 92.68 248 92.18 248.97 92.01 249.52 92.35 249.11 92.85 248.14 93.02 247.59 92.68 
M 211.29 106.28 210.68 106.48 209.77 106.09 209.48 105.51 210.1 105.31 211.01 105.69 211.29 106.28 
M 209.86 105.37 210.44 105.66 210.81 106.57 210.6 107.19 210.02 106.89 209.65 105.98 209.86 105.37 
M 200.93 291.39 199.04 297.7 
M 200.93 291.39 203.63 291.39 204.44 291.7 204.77 292.6 204.5 293.5 203.63 294.39 202.64 294.7 199.94 294.7 
M 209.33 294.39 209.21 293.8 208.4 293.5 207.5 293.5 206.51 293.8 206.03 294.39 206.15 295 206.66 295.3 208.07 295.6 208.58 295.89 208.61 296.8 208.13 297.39 207.14 297.7 206.24 297.7 205.43 297.39 205.31 296.8 
M 210.86 295.3 214.46 295.3 214.64 294.7 214.52 294.1 213.8 293.5 212.9 293.5 212.21 293.8 211.43 294.39 210.86 295.3 210.68 295.89 210.71 296.8 211.13 297.39 211.64 297.7 212.54 297.7 213.23 297.39 214.01 296.8 
M 217.1 293.5 216.2 296.5 216.23 297.39 216.74 297.7 217.64 297.7 218.33 297.39 219.5 296.5 
M 220.4 293.5 219.14 297.7 
M 225.83 294.39 225.41 293.8 224.9 293.5 224 293.5 223.31 293.8 222.53 294.39 221.96 295.3 221.78 295.89 221.81 296.8 222.23 297.39 222.74 297.7 223.64 297.7 224.33 297.39 225.11 296.8 
M 228.83 291.39 226.94 297.7 
M 227.84 294.7 229.01 293.8 229.7 293.5 230.6 293.5 231.11 293.8 231.14 294.7 230.24 297.7 
M 233.3 293.5 233.84 297.7 
M 236.9 293.5 232.88 298.89 232.1 299.5 231.11 299.8 
M 238.7 293.5 237.44 297.7 
M 238.16 295.3 238.73 294.39 239.51 293.8 240.2 293.5 241.1 293.5 
M 243.8 293.5 243.11 293.8 242.33 294.39 241.76 295.3 241.58 295.89 241.61 296.8 242.03 297.39 242.54 297.7 243.44 297.7 244.13 297.39 244.91 296.8 245.48 295.89 245.66 295.3 245.63 294.39 245.21 293.8 244.7 293.5 243.8 293.5 
M 249.23 291.39 247.7 296.5 247.73 297.39 248.24 297.7 248.84 297.7 
M 247.7 293.5 249.8 293.5 
M 251.06 295.3 254.66 295.3 254.84 294.7 254.72 294.1 254 293.5 253.1 293.5 252.41 293.8 251.63 294.39 251.06 295.3 250.88 295.89 250.91 296.8 251.33 297.39 251.84 297.7 252.74 297.7 253.43 297.39 254.21 296.8 
M 260.02 294.39 259.9 293.8 259.1 293.5 258.2 293.5 257.21 293.8 256.73 294.39 256.85 295 257.36 295.3 258.77 295.6 259.27 295.89 259.31 296.8 258.83 297.39 257.84 297.7 256.94 297.7 256.13 297.39 256.01 296.8 
M 268.43 294.39 268.01 293.8 267.5 293.5 266.6 293.5 265.9 293.8 265.13 294.39 264.56 295.3 264.38 295.89 264.4 296.8 264.83 297.39 265.34 297.7 266.24 297.7 266.93 297.39 267.7 296.8 
M 271.43 291.39 269.54 297.7 
M 270.44 294.7 271.61 293.8 272.3 293.5 273.2 293.5 273.7 293.8 273.74 294.7 272.83 297.7 
M 276.5 293.5 275.24 297.7 
M 275.95 295.3 276.52 294.39 277.31 293.8 278 293.5 278.89 293.5 
M 279.8 293.5 280.33 297.7 
M 283.39 293.5 279.38 298.89 278.6 299.5 277.61 299.8 
M 286.13 291.39 284.6 296.5 284.63 297.39 285.14 297.7 285.74 297.7 
M 284.6 293.5 286.7 293.5 
M 289.43 291.39 287.54 297.7 
M 288.44 294.7 289.61 293.8 290.3 293.5 291.2 293.5 291.7 293.8 291.74 294.7 290.83 297.7 
M 294.5 293.5 293.6 296.5 293.63 297.39 294.14 297.7 295.04 297.7 295.73 297.39 296.89 296.5 
M 297.8 293.5 296.54 297.7 
M 300.83 291.39 298.94 297.7 
M 301.76 295.3 305.36 295.3 305.54 294.7 305.42 294.1 304.7 293.5 303.8 293.5 303.11 293.8 302.33 294.39 301.76 295.3 301.58 295.89 301.61 296.8 302.02 297.39 302.54 297.7 303.44 297.7 304.13 297.39 304.9 296.8 
M 308.63 291.39 306.74 297.7 
M 311.6 293.5 310.9 293.8 310.13 294.39 309.56 295.3 309.38 295.89 309.4 296.8 309.83 297.39 310.33 297.7 311.24 297.7 311.93 297.39 312.7 296.8 313.27 295.89 313.45 295.3 313.43 294.39 313.01 293.8 312.5 293.5 311.6 293.5 
M 316.1 293.5 314.83 297.7 
M 315.56 295.3 316.13 294.39 316.9 293.8 317.6 293.5 318.5 293.5 
M 319.22 297.1 318.83 297.39 319.04 297.7 319.43 297.39 319.22 297.1 
"/></svg>
