<svg xmlns="http://www.w3.org/2000/svg" width="520" height="320"><rect x="0" y="0" width="520" height="320" fill="floralwhite"/><rect x="10" y="10" width="500" height="300" stroke="black" stroke-width="1" fill="none"/><path stroke="black" stroke-width="1" fill="none" stroke-linecap="round" stroke-linejoin="round" d="
M 154.2 158.27 163.55 155.77 172.9 152.84 191.61 146.3 200.97 143.33 210.33 141.27 219.68 140.44 229.04 140.21 238.39 140.46 247.75 141.9 266.46 146.85 275.81 149 285.17 150.59 294.52 151.67 313.23 153.47 322.59 154.73 331.94 156.41 341.3 158.54 350.65 161.23 360.01 164.4 369.37 167.96 378.72 172.25 379.54 173.12 
M 379.54 204.58 378.72 205.61 369.37 210.41 360.01 214.17 350.65 217.51 341.3 220.42 331.94 222.48 322.59 223.32 313.23 223.65 303.88 224.24 294.52 225.27 285.17 225.95 275.81 225.45 247.75 222.32 238.39 220.87 229.04 219.14 219.68 217.74 210.33 217.29 209.22 217.37 
M 180.01 219.07 172.9 218.37 163.55 216.94 144.8 214.73 
M 160.71 203.57 159.17 200.07 155.46 195.3 155.18 195.12 
M 156.93 166.54 157.88 163.43 157.88 159.92 157.14 157.49 
M 160.7 205.01 160.71 204.99 
M 162.66 186.16 162.45 185.43 159.76 180.01 158.99 179.24 
M 157.26 160.98 158.72 160.04 161.65 156.28 
M 166.8 184.64 168.68 179.38 168.68 175.75 166.58 169.89 163.33 164.72 160.79 162.7 
M 158.9 174.44 165.16 173.39 
M 158.76 177.76 164.53 177.45 
M 159.75 180.66 165.14 181.87 
M 167.4 171.71 168.81 169.11 170.51 163.59 170.51 160.18 168.56 154.2 
M 162.03 159.13 167.08 157.94 
M 162.38 161.54 167.19 161.54 
M 162.96 164.76 167.42 166.44 
M 173.48 182.18 172.25 179.82 170.06 177.71 
M 169.9 162.73 172.43 161.15 175.75 156.97 177.9 152.24 177.9 151.14 
M 170.24 153.68 173.66 154.52 
M 182.58 178.83 182.58 176.84 180.4 170.96 177.01 165.76 174.37 163.73 
M 181.32 172.9 182.71 170.42 184.5 164.78 184.5 161.29 182.71 155.64 179.75 150.5 
M 175.66 159.95 180.88 158.35 
M 175.65 163.24 181.26 162.76 
M 176.88 166.18 181.12 167.03 
M 183.88 164.54 186.45 162.89 189.74 158.67 191.86 153.89 191.86 150.93 190.05 146.85 
M 183.18 149.31 188.42 148.37 
M 181.07 152.28 188.09 152.34 
M 181.87 154.69 187.76 156.23 
M 197 178.42 194.99 173 191.56 167.72 188.88 165.66 
M 190.32 176.93 192.95 176.38 
M 191.1 150.51 191.8 150.04 194.35 146.62 194.94 145.24 
M 195.72 174.65 196.95 172.41 198.75 166.66 198.75 163.09 196.95 157.34 194.15 152.26 191.98 150.27 
M 189.92 161.77 195.85 160.44 
M 189.72 165.14 195.28 165.19 
M 191.5 168.27 195.09 169.28 
M 198.1 164.98 199.71 163.9 202.88 159.61 204.93 154.75 204.93 151.75 202.88 146.89 200.38 143.52 
M 194.53 151.18 201.18 149.45 
M 194.53 153.48 200.88 152.99 
M 195.96 156.11 201.42 157.16 
M 210.65 181.88 210.65 180.5 208.58 174.49 205.36 169.19 202.85 167.13 
M 203.76 148.5 205.89 145.56 207.39 141.91 
M 202.09 143.08 204.33 143.85 
M 209.31 176.25 210.58 173.85 212.38 167.9 212.38 164.22 210.58 158.27 207.8 153.02 205.63 150.97 
M 203.94 162.96 208.94 161.28 
M 203.56 166.36 208.95 165.78 
M 204.89 169.08 209.49 170.72 
M 218.07 206.1 218.46 204.53 
M 218.79 203.23 219.22 201.49 219.22 197.9 
M 211.74 165.21 212.83 164.47 216 160.19 218.04 155.34 218.04 152.34 216 147.49 212.83 143.21 210.36 141.54 
M 208.32 151.56 214.08 150.26 
M 207.78 153.62 214.01 153.81 
M 209.51 156.82 214.6 157.3 
M 219.85 191.84 220.87 190.08 222.79 184.28 222.79 180.69 220.87 174.9 217.9 169.78 215.57 167.78 
M 213.14 179.73 219.15 177.98 
M 213.46 182.32 219.15 182.73 
M 217.6 186.3 219.7 186.64 
M 225.16 206.82 224.48 204.66 221.82 199.84 219.74 197.95 
M 216.98 149.25 219.12 146.28 220.79 142.23 220.79 140.41 
M 212.58 141.24 217.53 140.74 
M 212.62 143.3 217.93 143.89 
M 222.1 179.6 224.64 175.06 226.4 169.52 226.4 166.09 224.64 160.55 221.91 155.66 219.78 153.75 
M 217.8 164.79 222.82 163.96 
M 217.6 167.65 222.89 167.52 
M 218.24 170.99 223.44 172.39 
M 225.76 206.9 227.03 203.84 228.36 198.22 228.36 194.74 227.03 189.12 224.97 184.16 223.36 182.22 
M 222.24 193.58 226.21 191.97 
M 221.56 196.42 225.68 196.6 
M 222.22 199.52 226.03 201.07 
M 221.04 141.74 223.45 140.72 223.91 140.34 
M 225.77 165.21 226.11 164.98 229.22 160.81 231.24 156.1 231.24 153.18 229.22 148.46 226.11 144.3 223.67 142.67 
M 227.88 194.82 229.6 193.4 232.49 188.62 234.36 183.21 234.36 179.85 232.49 174.44 229.6 169.66 227.34 167.79 
M 225.52 179.04 231.26 177.4 
M 225.45 181.42 230.67 181.86 
M 224.92 184.63 231.05 186 
M 236.51 208.5 236.51 207.45 234.77 202.06 232.07 197.3 229.97 195.44 
M 229.91 149.8 232.18 146.71 233.89 142.61 233.89 140.34 
M 225.39 141.02 230.78 141.53 
M 225.69 143.75 230.66 144.07 
M 233.69 180.85 234.82 179.78 237.26 175.2 238.82 170.02 238.82 166.81 237.26 161.62 234.82 157.04 232.93 155.26 
M 235.67 204.12 237.61 200.38 239.18 195.07 239.18 191.78 237.61 186.46 235.18 181.77 234.04 180.68 
M 237.14 208.6 236.88 208.34 
M 234.13 142.24 236.61 141.23 237.58 140.43 
M 238.26 165.2 238.83 164.83 241.94 160.78 243.94 156.2 243.94 153.36 241.94 148.78 238.83 144.73 236.41 143.15 
M 234.37 152.31 239.92 151.55 
M 233.97 155.14 240.49 154.65 
M 234.64 157.26 240.6 157.89 
M 239.39 194.35 241.73 192.52 244.73 187.84 246.67 182.54 246.67 179.26 244.73 173.96 241.73 169.28 239.39 167.45 
M 237.07 177.8 242.95 176.85 
M 237.35 181.04 243.54 181.08 
M 237.5 183.48 242.97 184.78 
M 248.73 210.39 248.92 209.86 248.92 206.57 247.02 201.24 244.08 196.54 241.78 194.71 
M 243.22 151.07 245.99 147.63 247.74 143.78 247.74 141.9 
M 238.95 142.94 244.57 142.36 
M 239.28 144.75 244.74 145.7 
M 245.98 178.28 248.63 173.59 250.27 168.39 250.27 165.17 248.63 159.97 246.08 155.38 244.1 153.59 
M 248.24 208.02 249.28 207.04 251.88 202.18 253.55 196.68 253.55 193.28 251.88 187.77 249.28 182.92 247.26 181.02 
M 245.31 192.07 250.87 190.58 
M 245.48 195.36 250.19 195.12 
M 245.32 198.13 250.51 199.18 
M 250.97 210.7 249.68 209.53 
M 247.58 143.14 249.53 142.37 
M 249.69 166.72 252.09 165.25 255.35 161.28 257.45 156.78 257.45 153.99 255.35 149.49 252.09 145.52 249.55 143.97 
M 246.97 152.85 253.47 152.23 
M 246.75 155.51 253.89 155.25 
M 247.4 157.74 253.85 159.11 
M 252.95 193.88 254.65 192.62 257.75 188 259.75 182.77 259.75 179.53 257.75 174.3 254.65 169.68 252.22 167.87 
M 249.97 178.17 256.31 176.77 
M 249.86 181.4 255.92 181.29 
M 250.13 183.7 255.73 185.26 
M 260.62 212.03 261.39 209.86 261.39 206.6 259.53 201.35 256.65 196.7 254.4 194.89 
M 252.46 205.89 257.67 204.09 
M 251.96 208.13 257.83 208.45 
M 252.29 210.5 256 211.4 
M 256.7 152.23 259.39 148.74 260.86 145.36 
M 252.99 143.35 253.25 143.35 
M 252.71 145.85 257.69 146.69 
M 259.04 180.76 260.59 179.59 263.53 175.16 265.43 170.14 265.43 167.03 263.53 162.01 260.59 157.58 258.3 155.85 
M 255.74 166.04 262.02 164.37 
M 256.37 168.42 261.67 168.33 
M 256.1 170.96 262.16 172.64 
M 260.72 205.96 261 205.67 263.28 201.07 264.75 195.86 264.75 192.63 263.28 187.42 261 182.82 259.22 181.02 
M 257.49 191.91 262.46 190.4 
M 257.74 194.18 261.78 194.5 
M 257.78 196.57 261.81 198.51 
M 264.58 212.58 263.22 209.82 261.44 208 
M 264.75 167.47 266.08 166.68 269.35 162.75 271.47 158.3 271.47 155.55 269.35 151.1 266.08 147.17 264.82 146.42 
M 261.1 154.99 267.79 153.44 
M 261.27 156.56 267.79 157.27 
M 261.24 158.93 268.03 160.15 
M 265.18 194.12 267.61 192.41 270.72 188.04 272.73 183.08 272.73 180.02 270.72 175.06 267.61 170.69 265.18 168.98 
M 263.18 178.73 269.26 177.84 
M 263.07 181.35 269.08 181.84 
M 263.16 184.3 268.98 185.69 
M 270.89 213.38 272.61 208.43 272.61 205.18 270.78 199.94 267.96 195.31 265.75 193.5 
M 263.48 204.05 269.02 202.75 
M 263.87 207.1 269.16 207.01 
M 263.47 209.18 269.69 210.97 
M 270.29 152.61 272.59 149.54 273.08 148.37 
M 273.29 183.45 275.36 181.8 278.02 177.56 279.73 172.77 279.73 169.8 278.02 165 275.36 160.77 273.29 159.12 
M 271.24 168.91 276.8 167.89 
M 271.05 171.23 276.86 171.58 
M 271.2 173.53 276.55 175.17 
M 271.95 202.46 274.37 198.36 275.98 193.57 275.98 190.6 274.37 185.81 272.01 181.81 
M 269.35 189.48 273.31 188.18 
M 267.93 192.24 273.25 192.21 
M 268.4 194.14 273.29 195.33 
M 277.17 214.08 276.63 212.07 274.27 207.03 272.43 205.07 
M 279.12 167.46 282.19 163.51 284.13 159.08 284.13 156.33 282.19 151.9 280.58 149.81 
M 274.77 155.4 280.42 154.45 
M 274.56 157.86 280.79 157.5 
M 274.42 159.81 280.35 160.72 
M 277.97 193.97 280.28 192.31 283.24 188.06 285.15 183.24 285.15 180.26 283.24 175.45 280.28 171.19 279.12 170.36 
M 276.98 178.76 282.06 178.13 
M 275.77 181.55 282.03 181.56 
M 276.01 184.6 281.3 185.61 
M 282.25 214.44 283.13 213.08 285.04 207.84 285.04 204.59 283.13 199.35 280.16 194.72 277.84 192.92 
M 275.94 203.59 281.33 202.01 
M 275.29 206.61 281.37 206.02 
M 275.22 208.49 281.22 209.81 
M 283.43 154.42 286.09 150.7 
M 284.69 182.05 286.36 180.41 288.5 176.18 289.88 171.4 289.88 168.43 288.5 163.65 286.36 159.42 284.69 157.78 
M 283.06 167.65 287.3 166.47 
M 282.97 169.56 287.19 169.54 
M 283.27 171.94 287.24 173.66 
M 284.36 205.82 285.99 204.45 288.57 200.13 290.23 195.24 290.23 192.21 288.57 187.32 285.99 183 284.47 181.72 
M 281.85 191.38 287.27 190.37 
M 281.85 193.69 287.54 193.59 
M 282.29 196.07 286.91 197.14 
M 290.06 214.43 289.42 212.2 286.96 207.27 285.1 205.41 
M 289.38 166.94 290.58 166.1 293.29 162.28 295.04 157.95 295.04 155.27 293.53 151.55 
M 286.37 154.2 291.92 152.91 
M 286.42 156.8 291.83 156.5 
M 286.61 158.48 291.89 159.52 
M 289.63 192.99 291.63 191.35 294.27 187.03 295.98 182.12 295.98 179.09 294.27 174.19 291.63 169.86 289.57 168.17 
M 287.91 178.33 293.11 177.11 
M 287.78 180.39 293.09 180.86 
M 287.52 183 293.27 184.35 
M 295.04 214.19 295.61 213.25 297.47 207.9 297.47 204.59 295.61 199.24 292.73 194.51 290.47 192.67 
M 288.09 203.66 294.43 201.77 
M 288.45 206.34 293.71 206.62 
M 288.1 209.16 294.27 210.02 
M 294.41 153.96 295.56 153.16 296.51 151.85 
M 295.37 176.57 297.45 172.29 298.72 167.59 298.72 164.68 297.45 159.98 295.49 155.83 294.41 154.68 
M 292.41 163.71 296.8 162.47 
M 292.52 165.93 296.19 166.18 
M 292.87 168.85 296.73 169.55 
M 296.8 204.66 297.31 204.11 299.44 199.5 300.82 194.27 300.82 191.04 299.44 185.81 297.31 181.2 295.65 179.39 
M 302.14 213.62 301.58 211.61 299.14 206.59 297.24 204.62 
M 298.82 164.12 300.84 162.76 303.42 159.25 305.09 155.29 305.01 152.63 
M 296.9 152.22 297.91 151.97 
M 296.78 153.74 302.13 153.94 
M 297.18 155.68 302.05 156.69 
M 300.33 188.73 301.08 188.08 303.63 183.66 305.27 178.65 305.27 175.55 303.63 170.55 301.08 166.13 299.09 164.4 
M 297.22 174.86 301.98 173.1 
M 296.96 177.22 301.88 176.95 
M 296.98 179.39 302.05 181.08 
M 305.83 213.41 306.58 212.05 308.37 206.39 308.37 202.88 306.58 197.22 303.82 192.23 301.67 190.28 
M 299.27 201.84 305.52 200.08 
M 299.98 204.97 305 204.67 
M 299.44 207.8 304.75 208.8 
M 303.88 171.44 304.17 171.19 306.3 167.29 307.68 162.88 307.68 160.15 306.3 155.74 304.57 152.58 
M 306.98 198.45 308.29 195.56 309.75 189.87 309.75 186.35 308.29 180.67 306.02 175.65 304.68 174.17 
M 302.4 185.59 306.82 183.86 
M 302.26 188.06 307.28 188.2 
M 302.96 191.29 306.93 192.14 
M 314.33 213.11 313.75 210.81 311.38 205.48 309.53 203.4 
M 309.18 161.29 311.23 159.96 313.85 156.56 315.1 153.72 
M 309.58 187.7 311.8 185.94 314.66 181.41 316.49 176.29 316.49 173.11 314.66 167.99 311.8 163.46 309.58 161.69 
M 307.09 171.77 313.42 170.59 
M 307.44 174.56 313.07 174.5 
M 307.57 177.41 313.51 178.8 
M 316.84 213.09 318.2 210.71 320.08 204.98 320.08 201.43 318.2 195.7 315.29 190.64 313.01 188.66 
M 310.41 199.97 316.86 198.73 
M 310.67 202.96 316.61 203.09 
M 311.33 206.03 316.99 207.45 
M 315.84 171.24 316.11 171 318.48 166.79 320.01 162.02 320.01 159.07 318.4 154.17 
M 312.39 158.23 317.26 157.29 
M 312.49 160.39 317.57 160.6 
M 312.67 163.17 316.9 164.4 
M 319.41 201.01 322.16 196.01 323.92 190.37 323.92 186.88 322.16 181.24 319.44 176.26 317.31 174.31 
M 315.65 185.57 320.61 184.51 
M 314.85 188.91 320.57 188.42 
M 315.28 191.24 320.64 192.61 
M 325.92 212.87 325.16 210.09 322.81 205.16 320.97 203.24 
M 320.08 160.15 322.18 158.72 324.81 155.13 
M 322.35 188.42 324.68 186.59 327.66 181.87 329.58 176.54 329.58 173.24 327.66 167.9 324.68 163.19 322.35 161.35 
M 319.87 171.97 326.04 171.19 
M 319.99 175.2 325.92 175.24 
M 319.99 178 325.89 179.31 
M 329.68 212.68 331.16 210.38 333.13 204.99 333.13 201.66 331.16 196.27 328.11 191.51 325.73 189.66 
M 323.66 200.48 329.77 198.98 
M 323.47 203.03 329.53 203.17 
M 323.79 206.14 329.78 207.47 
M 328.79 170.17 330.44 166.84 331.93 161.57 331.93 158.3 331.37 156.31 
M 331.53 204.8 333.5 202.85 336.02 197.86 337.65 192.2 337.65 188.7 336.02 183.05 333.5 178.05 331.53 176.1 
M 329.52 187.8 334.84 186.5 
M 329.4 190.45 334.33 190.38 
M 329.76 193.41 334.73 194.95 
M 338 211.64 337.67 210.71 335.1 206.58 333.1 204.97 
M 331.39 159.05 333.59 157.56 334.07 156.9 
M 337.02 185.54 339.39 181.44 341.2 175.94 341.2 172.53 339.39 167.03 336.58 162.17 334.39 160.27 
M 332.47 171.18 338.29 170.22 
M 332.48 174.07 338.11 173.94 
M 332.17 177.25 338.28 178.73 
M 343.44 210.66 345.52 205.06 345.52 201.79 343.63 196.5 340.71 191.83 338.43 190.01 
M 336.63 200.84 342.24 199.58 
M 335.84 203.26 342.02 203.14 
M 336.33 205.8 342.31 207.51 
M 337.34 171.11 339.17 169.35 341.51 164.83 343.01 159.72 343.01 159.03 
M 335.85 158.33 339.71 158.18 
M 335.23 160.78 340.03 162.2 
M 344.84 199.66 346.26 196.24 347.68 190.27 347.68 186.58 346.26 180.61 344.07 175.34 342.35 173.28 
M 340.43 185.67 345.17 184.19 
M 340.34 188.69 344.84 188.78 
M 340.56 191.6 345.45 193.02 
M 349.74 209.27 348.64 207.36 346.73 205.69 
M 345.65 186.53 347.87 184.65 350.7 179.84 352.52 174.4 352.52 171.03 350.7 165.58 347.87 160.78 347.24 160.25 
M 343.41 169.62 348.97 168.83 
M 343.12 172.7 349.46 172.9 
M 343.7 175.63 348.97 177.03 
M 355.17 207.93 356.48 203.88 356.48 200.56 354.75 195.2 352.07 190.47 349.97 188.62 
M 347.58 199.82 353.2 197.92 
M 347.96 202.34 353.07 201.82 
M 348.31 204.55 353.38 206.38 
M 349.66 170.28 351.77 168.58 354.47 164.24 355.01 162.71 
M 347.96 160.66 349.06 160.77 
M 353.25 201.16 354.98 199.17 357.19 194.06 358.61 188.28 358.61 184.7 357.19 178.91 354.98 173.8 353.25 171.81 
M 351.67 183.77 356.27 182.46 
M 351.58 186.77 356.1 186.81 
M 351.31 189.24 355.66 190.71 
M 359.84 206.75 359.18 205.39 357.55 203.72 
M 358.1 185.05 360.21 183.46 363.2 178.95 365.13 173.85 365.13 170.69 363.22 165.62 
M 355.41 169.72 361.93 168.47 
M 355.42 172.43 361.77 171.99 
M 355.51 175.02 361.65 175.97 
M 365.53 205.13 366.8 201.34 366.8 198.18 365.1 193.07 362.47 188.56 360.41 186.8 
M 364.29 171.81 366.43 170.22 368.23 167.53 
M 366.19 195.69 368.43 191.37 369.94 186.25 369.94 183.09 368.43 177.97 366.09 173.46 364.26 171.7 
M 369.49 204 368.25 201.58 366.57 199.95 
M 370.54 182.09 372.91 180.76 375.94 177.37 377.89 173.53 377.89 171.87 
M 367.89 170.58 372.93 169.59 
M 368.32 172.48 374.38 172.09 
M 368.37 174.24 373.96 174.98 
M 377.4 201.09 378.33 199.13 378.33 196.74 376.49 192.88 373.64 189.47 371.41 188.13 
M 369.65 195.65 375.1 195.05 
M 369.22 197.86 374.84 198.19 
M 369.51 200.23 374.82 201.15 
M 159.49 213.47 160.71 210.71 
M 157.14 157.49 157.14 157.49 
M 165.17 214.09 164.41 212.92 
M 190.05 146.85 190.05 146.85 
M 200.38 143.52 200.38 143.52 
M 215.56 213.71 215.56 211.32 214.93 209.54 
M 214.86 213.5 215.36 212.93 217.7 207.57 218.07 206.1 
M 225.81 214.74 226.19 213.51 226.19 210.13 225.16 206.82 
M 233.89 140.34 233.89 140.34 
M 241.72 217.36 241.06 215.01 238.72 210.21 237.14 208.6 
M 237.58 140.43 237.58 140.43 
M 245.31 217.92 247.02 215.18 248.73 210.39 
M 247.74 141.9 247.74 141.9 
M 249.53 142.37 249.53 142.37 
M 256.86 219.42 259.53 215.11 260.62 212.03 
M 256 211.4 258 211.88 
M 260.86 145.36 260.86 145.36 
M 264.82 146.42 264.82 146.42 
M 266.45 219.54 267.96 218.3 270.89 213.38 
M 278.03 221.76 278.15 221.29 278.15 217.77 277.17 214.08 
M 280.58 149.81 280.58 149.81 
M 277.84 219.51 280.16 217.71 282.25 214.44 
M 293.53 151.55 293.53 151.55 
M 290.47 219.81 292.73 217.97 295.04 214.19 
M 295.39 221.5 295.18 221.34 
M 295.77 216.51 300.06 214.43 
M 295.26 219.24 300.33 219.1 
M 297.91 151.97 297.91 151.97 
M 315.27 220.08 315.27 216.84 314.33 213.11 
M 319.19 219.98 318.46 219.37 
M 318.4 154.17 318.4 154.17 
M 326.55 219.59 326.68 219.11 326.68 215.66 325.92 212.87 
M 318.87 214.15 323.71 213.42 
M 319.07 217.31 324.08 217.45 
M 325.73 216.99 328.11 215.13 329.68 212.68 
M 330.48 219.29 328.43 217.8 
M 331.43 214.34 336.65 212.93 
M 331.07 216.75 336.38 216.78 
M 334.07 156.9 334.07 156.9 
M 340.14 217.55 339.6 217.21 
M 351.96 214.28 351.1 211.64 349.74 209.27 
M 355.01 162.71 355.01 162.71 
M 361.66 211.09 361.26 209.65 359.84 206.75 
M 370.93 207.56 370.39 205.74 369.49 204 
M 373.79 206.23 376.49 203 377.4 201.09 
M 210.33 141.27 211.47 139.19 212.76 134.59 212.93 132.13 214.58 124.9 214.99 122.46 215.66 116.56 217.83 112.49 218.62 109.92 218.78 108.11 219.42 105.28 219.75 102.05 220.98 97.12 222.39 95.74 224.2 91.69 225.73 88.93 226.43 86.58 231.47 76.91 233.28 75.29 234.35 72.94 235.46 69.47 236.89 67.19 239.08 65.43 241.02 63.32 241.3 60.8 242.83 59.05 247.75 55.41 251.52 52.29 254.31 51.43 256.83 49.24 258.76 48.03 262.92 46.45 264 44.05 266.05 41.34 268.36 39.62 270.52 37.54 271.76 35.59 273.91 34.43 274.86 31.1 276.2 30 272.51 41.08 271.52 43.09 270.94 45.5 270.75 48.31 270.15 50.7 269.67 55.72 270.27 61.48 269.78 66.29 268.73 73.47 268.9 76.17 267.71 79.98 267.48 82.25 266.86 84.37 265.99 92.09 267.04 95.11 268.61 97.98 269.3 100.1 268.47 102.01 268.55 104.84 268.25 107.28 268.29 110.08 267.87 115.42 267.13 117.55 266.03 119.34 265.64 121.4 267.89 126.48 268.21 128.65 268.06 130.94 267.63 132.93 270.38 144.62 270.66 147.82 
M 266.46 146.86 266.46 146.85 
M 214.41 140.91 215.5 138.74 216.27 134.27 216.85 129.56 217.91 124.28 218.02 121.77 218.47 119.27 220.12 114.45 220.47 111.89 220.58 109.53 221.51 107.21 222.53 101.37 225.86 96.59 226.8 94.71 230.3 86.44 231.6 84.05 233.86 81.54 234.7 79.34 237.52 75.29 238.74 72 240.16 69.63 242.64 67.87 244.47 65.81 244.83 63.37 245.93 61.77 253.51 56.77 255.63 54.68 
M 218.49 140.55 219.32 138.74 220.66 128.84 221.49 126.56 221.87 123.92 221.74 121.45 222.41 118.96 222.92 114 224.55 109.44 224.83 106.52 226.64 103.78 227.49 100.99 228.55 99.52 230.18 97.93 230.32 96.86 231.72 94.41 232.45 91.44 234.06 88.26 237.88 84.19 238.86 83.44 239.99 82.09 241.14 80.27 244.83 75.56 245.93 72.96 247.86 70.87 
M 222.58 140.37 223.38 138.62 224.46 133.6 224.54 131.18 225.96 126.22 225.73 123.52 226.25 118.55 228.22 113.82 228.96 111.01 231.09 106.54 231.3 103.62 234.9 98.42 236.28 94.31 237.6 91.37 240.17 88.8 242.87 86.72 244.14 85.46 
M 226.68 140.27 227.43 138.32 228.36 133.45 229.01 131.66 229.31 128.88 229.12 125.84 229.36 122.94 229.93 120.4 230.51 118.38 231.63 116.03 232.55 113.34 233.13 110.52 233.91 108.23 234.43 106.84 238.14 103.64 239.17 101.86 240.77 97.43 242.27 94.78 243.77 92.81 
M 230.77 140.25 231.67 138.02 232.84 128.47 233.4 125.28 234.09 122.73 234.63 118.14 236.53 113.82 237.54 110.99 238.68 108.97 241.25 107.4 242.54 106.37 243.45 104.36 245.1 103.05 246.04 100.41 248.22 96.95 250.46 95.04 251.31 92.92 257.27 90.41 260.38 87.46 263.19 86.39 
M 234.87 140.36 235.44 138.37 235.81 136.04 236.22 131.24 237.4 126.24 238.18 120.38 240.41 115.88 240.82 114.07 242.29 112.85 
M 238.96 140.54 239.58 138.73 240.12 136.47 241.03 134.21 241.34 131.97 241.22 129.33 241.88 126.28 243.79 120.73 244.89 118.44 247.19 116.37 248.9 115.27 250.93 113.61 253.05 112.77 255.47 110.09 257.59 108.12 263.46 103.59 
M 243.01 141.17 244.31 139.82 245.25 137.51 245.05 135.45 245.32 132.74 247.45 125.27 249.36 123.3 251.18 121.75 251.84 120.28 
M 247.06 141.79 248.82 140.58 250.19 136.08 250.83 131.01 252 128.73 
M 251.04 142.76 252.71 141.23 253.34 138.9 253.63 136.41 254.96 134.43 256.28 132.72 259.66 131.43 
M 255 143.81 256.46 142.54 257.38 140.38 258.74 138.15 260.52 136.08 
M 258.96 144.86 260.66 143.44 262.34 141.4 264.8 139.98 
M 262.92 145.91 266.55 144.81 
M 160.18 185.5 191.71 174.43 192.01 175.19 161.25 188.25 
M 160.33 188.73 212.5 175.91 212.71 176.71 161.09 191.58 
M 160.49 191.97 223.74 183.38 223.87 184.19 160.94 194.89 
M 160.65 195.24 229.08 193.37 229.11 194.19 160.78 198.18 
M 160.81 198.51 225.24 203.85 225.19 204.66 160.62 201.46 
M 160.97 201.81 221.03 213.51 220.88 214.32 160.46 204.72 
M 161.13 205.13 213.62 221.56 213.39 222.34 160.3 207.96 
M 161.28 210.09 191.73 223.87 191.42 224.63 160.15 212.82 
M 188.93 176.5 192.97 177.7 197.03 178.42 201.11 178.38 203.17 178.09 207.28 177.2 
M 207.55 178.19 209.19 180.43 211.09 182.26 213.39 183.43 214.68 183.79 217.42 184.24 
M 217.57 185.26 217.69 187.62 218.24 189.74 219.45 191.48 222.24 193.56 
M 222.28 194.59 219.8 196.97 218.85 198.84 218.59 200.98 218.8 203.31 
M 218.73 204.34 216.95 205.68 215.62 207.22 214.97 209.08 215.02 212.34 
M 214.84 213.36 212.65 214.08 210.82 215.14 209.52 216.73 208.37 219.91 
M 208.08 220.9 203.68 220.21 199.33 220 195.03 220.55 192.91 221.09 188.69 222.49 
M 190.95 177.13 195 178.15 197.03 178.42 201.11 178.38 205.22 177.68 
M 208.35 179.34 210.1 181.42 211.09 182.26 213.39 183.43 216.03 184.04 
M 217.6 186.45 217.89 188.72 218.24 189.74 219.45 191.48 221.23 192.91 
M 197.69 189.47 198.11 191.6 198.89 192.74 200.05 193.66 
M 221.37 195.35 219.8 196.97 218.85 198.84 218.64 199.88 218.66 202.14 
M 200.14 196.4 199.12 197.45 198.5 198.67 198.38 200.81 
M 217.81 205 216.21 206.41 215.62 207.22 214.97 209.08 214.93 211.22 
M 197.83 203.82 196.4 205.26 195.98 206.47 195.95 207.86 
M 213.72 213.69 211.67 214.55 210.82 215.14 209.52 216.73 208.69 218.79 
M 195.17 210.62 193.84 211.17 192.81 212.03 191.9 213.93 
M 205.88 220.52 201.5 220.02 199.33 220 195.03 220.55 190.79 221.76 
M 210.33 217.29 215.84 221.88 223.67 226.88 225.4 228.62 227.73 229.46 229.16 230.81 231.6 232.29 232.98 234.34 235.85 235.39 238.89 237.22 240.25 239.24 241.36 247.04 241.23 249.56 240.24 251.21 238.56 252.52 238.1 255.1 239.15 266.51 237.88 268.56 235.1 269.25 232.74 270.35 231.7 271.06 228.27 280 228.23 278.18 227.96 276.28 226.64 271.82 225.15 269.4 224.5 266.62 223.58 263.82 221.92 262.13 220.46 260.32 218.83 256.45 217.1 253.14 215.73 251.16 214.37 247.8 213.97 245.63 212.52 242.91 210.63 241.2 209.58 239.26 208.99 236.31 207.59 233.87 205.97 231.69 205.71 228.73 203.85 223.43 202.22 220.08 
M 209.06 217.71 211.75 219.9 213.98 222.27 215.92 223.8 220.71 226.91 222.87 228.74 224.04 230.07 226.23 231.88 230.33 235.94 233.63 239.83 238.44 243.46 
M 208.66 218.89 217.47 227.31 221.3 232.04 223.31 233.69 225.52 236.91 
M 208.24 220.35 213.67 226.07 214.75 227.92 220.91 235.12 222.38 237.67 223.64 239.45 225.73 241.61 228.02 243.18 229.57 245.04 230.8 247.38 234.32 250.93 235.95 254.17 236.87 256.65 
M 206.35 220.6 207.88 222.38 212.39 229.36 219.05 239.01 219.63 241.68 221.14 243.97 223.24 245.59 225.16 247.53 226.27 249.43 
M 203.81 220.22 205.8 223.05 206.96 225.3 207.9 228.05 208.54 230.86 210.39 232.84 211.9 235.14 214.69 240.64 216.36 242.52 217.11 244.57 219.66 250.04 220.98 252.04 224.14 255.24 225.17 256.73 
M 341.3 220.42 344.38 223.7 351.42 232.96 347.71 239.78 345.69 241.23 344.15 243.16 342.39 244.87 340.84 246.78 338.48 247.88 336.16 248.5 333.38 248.76 331.24 249.88 329.76 251.8 327.98 253.24 326.02 253.88 323.24 253.38 320.52 252.46 318.35 251.29 315.46 250.15 310.52 250.9 308.34 251.73 305.65 251.74 302.93 251.5 301.25 252.64 298.39 252.53 295.89 252.66 293.71 253.1 290.41 252.44 287.32 250.52 284.02 250.08 281.71 249.05 280.15 248.6 277.96 247.27 272.87 243.74 266.15 240.49 262.95 235.92 261.66 233.74 260.88 230.88 259.5 227.86 257.1 223.41 
M 337.3 221.3 339.57 225.24 341.76 227.75 343.22 230.84 345.23 233.49 347.86 235.31 
M 333.3 222.18 335.88 225.81 337.64 229.09 338.45 232.33 
M 329.24 222.72 333.82 229.04 335.51 232.1 338.21 236.16 
M 325.16 223.09 327.94 226.63 331.36 232.09 333.14 234.46 334.88 236.45 
M 321.07 223.37 323.45 227.31 325.67 229.83 327.18 232.67 328.85 234.92 330.1 236.92 331.28 239.6 332.9 241.36 
M 316.97 223.52 321.18 230.11 323.2 232.98 325.16 238.03 325.62 240.5 326.97 242.75 329.08 244.36 331.01 246.73 
M 312.88 223.67 317.26 229.19 318.83 232.02 320.56 237.75 322.12 240.67 
M 308.79 223.93 311.23 227.22 313.07 229.05 314.41 231.58 314.95 234.31 317.05 240.42 
M 304.7 224.19 311.33 234.79 312.51 240.99 
M 300.63 224.6 302.92 227.68 306.57 235.01 309.31 239.95 310.27 242.68 311.97 245.06 314.07 246.38 
M 296.55 225.04 299.04 228.12 300.54 230.52 301.69 233.23 305.83 241.34 305.93 242.59 
M 292.47 225.42 294.73 228.64 299.94 237.66 301.72 239.93 302.96 242.56 303.61 244.76 304.38 246.46 305.96 248.74 
M 288.39 225.72 290 229.23 293.42 234.26 297.88 240.21 298.9 242.6 299.54 243.71 301.96 245.74 
M 284.3 225.91 286.15 229.54 286.99 232.16 288.23 234.31 289.82 236.87 292.1 239.38 
M 280.2 225.69 282.85 229.59 284.22 232.55 284.97 235.42 285.3 237.81 286.3 240.57 
M 276.11 225.47 278.57 229.36 280.18 232.52 282.64 238 282.73 239.66 283.75 243.2 284.82 245.96 286.22 248.47 
M 272.04 225.06 275.18 231.27 275.71 234.53 276.82 236.77 278.53 238.92 279.83 242.15 280.45 244.22 
M 267.96 224.64 269.87 228.38 271.31 230.85 272.88 236.88 274.54 239.63 275.26 242.32 
M 263.89 224.18 265.8 228.46 266.77 231.4 267.76 233.73 268.95 236.22 270.38 238.57 271.16 241.12 
M 259.82 223.72 261.84 227.81 263.1 231.1 263.68 234.24 264.54 235.81 
M 378.72 172.25 382.29 171.84 384.89 171.05 386.91 169.87 389.46 169.03 392.13 168.43 396.21 166.57 398.69 165.12 401.94 160.93 405.75 158.66 408.59 157.69 415.85 159.38 421.84 161.38 423.87 162.21 425.09 162.1 427.72 163.24 432.47 167.63 436.17 172.65 436.79 174.04 437.62 175.32 443.02 181.39 443.2 183.22 444.6 188.24 446.98 193.95 446.95 196.67 445.52 200.73 446.02 203.96 445.79 206.45 445.18 208.57 441.3 211.64 439.86 213.67 437.23 214.51 434.9 215.63 431.36 218.86 429.08 219.87 425.6 223.06 423.96 224.77 421.83 226.07 419.27 226.94 416.34 228.82 407.71 227.88 406.07 225.31 404.62 223.54 401.53 222.49 399.93 222.2 398.13 221.04 396.35 218.65 393.83 217.14 388.39 213.5 384.06 209.6 378.72 205.61 
M 384.88 172.81 387.17 172.2 389.45 171.28 392.15 170.58 394.42 169.62 396.51 168.48 401.35 166.45 402.83 164.53 
M 384.89 174.45 387.27 174.3 389.73 173.56 394.69 171.08 397.18 170.84 399.25 169.92 
M 378.72 177.25 381.94 176.96 384.75 176.17 387.42 175.89 389.88 175.38 395.28 172.98 397.72 172.69 399.38 171.71 401.45 170.79 404.06 169.24 406.31 168.41 408.89 168.41 416.59 165.75 
M 387.08 177.45 395.44 175.72 398.14 175.32 400.41 173.69 401.78 171.95 403.48 172.03 406.21 171.12 409.2 170.49 415.59 169.58 
M 387.04 179.09 389.8 178.66 392.33 178.76 395.31 178.47 398.22 178.41 401.94 175.84 404.21 175.14 406.97 174.55 410.58 174.56 413.52 175.07 416.2 174.75 
M 378.72 182.26 381.67 182.48 384.39 181.75 389.85 180.9 392.58 181.39 395.38 181.43 398.29 181.11 400.1 180.36 402.18 178.83 404.6 177.9 410.52 177.79 413.19 178.81 416.04 178.3 418.07 176.75 420.22 176 422.48 174.48 
M 387.35 183.29 389.63 183.19 395.55 183.6 398.33 183.53 400.19 183.02 402.25 181.9 405.34 181.11 408.33 180.93 411.51 181.29 413.87 182.5 
M 384.33 185.73 389.7 185.33 398.8 186.03 399.98 185.36 402.4 184.86 404.68 184.11 407.76 184.26 414.49 185.42 416.61 185.29 418.08 184.61 
M 378.72 187.26 381.64 187.84 387.1 187.29 395.87 187.81 398.24 187.81 400.3 188.36 401.8 187.54 404.83 187.01 407.71 187.38 410.83 188.2 414.76 187.77 416.82 187.98 
M 381.68 189.62 387.06 189.55 389.65 189.94 395.91 190.23 400.07 190.69 402.24 190.29 405.21 190.13 408.28 191 411.28 191.6 414.18 191.13 416.75 191.49 418.84 190.57 421.11 190.1 424.32 190.44 
M 384.27 191.64 389.87 192.36 392.82 192.33 395.27 192.91 398.09 193.13 402.9 192.6 410.46 194.43 413.36 195.38 415.27 194.96 417.41 195.36 419.89 195.55 426.16 196.45 
M 381.76 193.42 389.75 194.52 392.37 194.7 395.45 195.46 398.04 195.78 401.24 195.93 404 196.49 407.74 196.78 411.73 198.76 414.24 199.65 417.16 199.77 422.99 201.36 
M 378.72 193.93 381.79 195.1 384.36 195.83 387.04 196.06 398.07 198.43 403.79 199.31 409.52 201.27 411.83 202.61 414.24 203.11 418.13 202.98 419.19 204.6 421.43 205.82 425.56 205.9 428.75 206.38 430.77 207.64 437.41 207.3 442.16 208 
M 381.74 196.96 389.45 198.83 392.1 200.02 399.99 201.36 402.4 202.65 404.7 204.4 409.8 205.7 415.18 206.25 417.07 207.29 418.79 208.87 
M 386.54 200.32 389.02 201.36 392.34 201.93 395.15 203.01 397.91 203.56 399.97 204.53 401.98 206.43 404.09 209.02 406.59 209.88 409.67 209.67 416.72 211.73 420.53 214.67 423.24 215.23 426.7 215.17 429.82 216.02 432.48 216.98 
M 384.43 201.77 391.56 204.18 394.67 204.88 397.37 206.03 399.86 207.27 401.89 209.64 403.5 211.14 406.12 212.33 409.19 213.1 411.96 214.18 414.11 214.69 418.77 217.36 420.29 218.94 
M 378.72 200.6 382.03 202.51 386.17 204.24 388.35 205.46 391.06 206.48 394.72 207.54 397.92 208.89 400.32 210.66 401.5 212.76 403.85 214.08 
M 378.72 202.27 384.57 205.48 385.94 206.58 391.24 209.43 394.47 210.99 397.73 212.2 399.76 213.84 400.83 215.79 403.08 217.01 405.44 217.88 407.7 219.22 411.18 220.65 
M 384.36 207.61 391.04 212.72 394.02 214.18 397.27 215.01 399.45 216.83 403.89 221.45 406.49 222.17 409.94 223.7 
M 367.66 208.71 366.16 209.34 364.49 209.8 363.21 210.83 361.73 213.83 360.35 214.58 357.07 213.42 355.53 213.48 352.38 214.53 349.95 216.72 349.36 217.46 350.65 217.51 
M 76.15 198.4 76.75 196.74 78.16 193.81 80.34 190.32 83.54 185.89 87.16 181.54 90.95 178.23 96.17 175.35 101.87 172.84 108.26 170.46 114.7 168.33 133.24 161.62 138.83 160 144.03 158.97 148.56 158.35 152.13 158.08 154.17 158.21 156.05 161.64 157.24 167.94 158.91 174.32 158.69 177.34 159.18 180.47 158.95 183.49 157.3 189.32 156.31 192.21 152.87 200.8 149.05 206.27 147.22 212.07 144.8 214.7 135.05 214.4 121.42 213.11 105.08 210.78 89.66 207.66 
M 139.51 181.77 139.11 184.3 137.25 187.49 
M 109.31 203.54 101.21 203.2 97.18 202.57 
M 88.08 207.46 81.53 205.36 76 203.26 74.2 202.37 73.45 200.47 74.49 198.65 76.45 198.35 78.13 199.39 81.42 201.88 84.79 204.14 89.85 207.23 
M 89.86 207.93 82.36 211.24 77.06 213.98 75.03 214.38 73.43 213.09 73.31 211.01 74.73 209.68 82.52 208.24 89.53 207.22 
M 106.78 199.75 105.4 194.5 105.79 189.07 107.93 184.07 111.57 180.03 116.32 177.4 121.68 176.45 127.05 177.29 131.86 179.83 135.58 183.8 137.81 188.75 138.32 194.17 137.04 199.45 134.11 204.03 129.85 207.42 124.72 209.23 119.29 209.29 114.13 207.57 109.8 204.28 106.78 199.75 
M 106.58 199.29 105.92 197.35 105.5 195.35 105.33 193.31 105.41 191.26 105.75 189.25 106.33 187.28 107.16 185.41 108.2 183.65 109.46 182.03 110.91 180.59 112.52 179.33 114.28 178.28 116.16 177.46 118.12 176.88 120.14 176.54 122.18 176.45 124.22 176.62 126.23 177.04 128.16 177.71 
M 108.1 198.66 107.5 196.92 107.12 195.11 106.97 193.28 107.04 191.43 107.62 188.69 
M 107.7 188.42 108.61 186.16 109.56 184.57 110.69 183.12 111.99 181.82 113.45 180.68 115.03 179.74 116.72 179 118.49 178.47 120.31 178.17 122.15 178.09 123.99 178.24 125.79 178.62 127.54 179.22 
M 109.61 198.04 109.08 196.48 108.74 194.88 108.6 193.24 108.67 191.6 109.17 189.22 
M 112.56 183.56 114.37 182.04 115.78 181.2 117.29 180.54 118.86 180.07 120.48 179.8 122.12 179.73 123.75 179.87 125.36 180.2 126.91 180.74 
M 111.12 197.41 110.66 196.05 110.24 193.21 110.3 191.77 110.69 189.84 
M 113.52 184.92 115.3 183.39 116.53 182.65 119.23 181.67 120.65 181.43 123.52 181.49 126.28 182.25 
M 112.64 196.78 111.98 194.41 111.88 193.17 112.16 190.63 
M 114.39 186.36 116.22 184.74 117.28 184.11 119.6 183.26 122.05 183.01 124.49 183.36 125.66 183.76 
M 114.15 196.15 113.61 194.17 113.52 193.14 113.69 191.33 
M 115.44 187.67 117.15 186.1 118.03 185.57 119.97 184.86 122.01 184.65 123.04 184.73 125.03 185.28 
M 115.82 195.68 115.26 193.58 115.39 191.88 
M 116.6 189.05 117.73 187.8 119.64 186.74 121.78 186.36 123.93 186.7 125.85 187.71 127.34 189.3 128.23 191.28 128.43 193.45 127.92 195.56 126.75 197.4 125.05 198.75 123 199.47 120.82 199.5 118.76 198.81 117.03 197.49 115.82 195.68 
M 117.48 188.08 116.85 189.34 
M 115.56 191.92 115.36 192.32 
M 119.28 186.94 117.7 190.09 
M 116.65 192.19 115.5 194.49 
M 120.7 186.55 118.64 190.68 
M 117.74 192.47 116 195.95 
M 122.01 186.4 119.56 191.29 
M 118.83 192.75 116.7 197.01 
M 123.15 186.58 120.42 192.02 
M 120.08 192.71 117.51 197.86 
M 124.23 186.86 118.4 198.54 
M 125.2 187.37 119.38 199.02 
M 126.12 188 120.44 199.37 
M 126.92 188.86 121.61 199.49 
M 127.62 189.92 122.84 199.48 
M 128.2 191.21 124.3 199.01 
M 128.41 193.25 126.07 197.93 
M 76.93 196.36 80.41 199.83 
M 78.6 193.11 82.58 197.09 
M 80.5 190.09 85.16 194.76 
M 82.57 187.24 87.22 191.9 
M 84.72 184.48 88.64 188.4 
M 86.95 181.79 91.71 186.56 
M 89.54 179.46 94.43 184.35 
M 92.41 177.42 97.01 182.02 
M 95.58 175.67 99.17 179.26 
M 98.95 174.13 102.39 177.57 
M 102.39 172.65 106.73 176.99 
M 105.97 171.32 108.5 173.84 
M 109.59 170.02 112.55 172.98 
M 113.28 168.8 117.2 172.72 
M 116.9 167.5 121.48 172.08 
M 120.47 166.15 123.52 169.2 
M 124.07 164.84 127.83 168.59 
M 127.69 163.53 131.85 167.69 
M 131.34 162.27 134.9 165.83 
M 135.08 161.09 138.6 164.61 
M 138.89 159.99 141.75 162.85 
M 142.99 159.17 146.01 162.19 
M 147.26 158.53 151.75 163.02 
M 151.76 158.1 154.11 160.46 
M 133.71 179.87 134.81 180.89 135.69 182.97 136.02 183.43 137.02 184.22 138.02 184.48 139.83 183.87 
M 103.4 208.76 104.33 210.44 105.75 210.64 
M 114.1 208.7 112.38 209.67 112.02 210.28 111.57 211.7 
M 150.28 200.21 150.03 199.16 150.11 198.29 150.61 196.91 151.41 195.8 151.74 193.78 
M 102.41 210.12 102.31 210.25 
M 100.8 190.49 101.93 191.64 102.15 192.57 101.97 193.44 100.8 196.33 100.57 197.63 
M 101.35 189.52 102.36 190.3 102.74 191.01 102.04 193.37 101.21 195.14 
M 146.21 208.93 145.24 207.65 144.78 205.39 144.17 203.88 
M 88.21 205.97 87.81 205.4 87.2 205 83.92 203.22 82.94 202.87 
M 138.22 179.51 137.8 179.06 136.83 178.63 135.57 177.7 
M 105.5 193.09 104.47 193.1 
M 98.08 189.11 99.96 190.36 101.22 191.61 101.6 192.21 101.78 192.71 101.78 193.67 100.83 196.19 
M 156.06 167.92 156.07 166.91 156.69 165.45 
M 95.14 181.82 94.52 180.99 93.59 180.12 90.93 178.25 
M 134.18 214.33 133.5 211.48 133.56 209.94 134.28 208.87 135.22 208.56 
M 141.72 194.45 138.21 194.59 
M 143.09 195.08 138.05 195.29 
M 125.71 169.66 126.52 170.46 127.89 172.31 128.63 173.48 129.21 174.77 
M 153.78 198.63 153.04 198.28 152.41 197.59 
M 103.42 183.27 102.9 184.85 102.92 185.32 104.04 186.79 104.06 187.08 103.71 187.45 
M 89.02 188.65 89.54 186.35 89.44 185.11 88.91 183.05 87.69 181.07 
M 109.75 175.21 112.87 176.29 113.91 177.46 114.33 177.66 
M 138.14 212.83 137.27 212.68 136.42 211.77 135.91 210.79 135.39 208.51 
M 126.39 165.05 125.69 165.78 125.52 167.1 126.73 169.63 
M 146.41 181.63 147.85 181.76 150 182.82 152.03 183.01 
M 141.18 185.16 142.17 183.95 143.26 183.12 145.6 181.81 146.78 181.7 
M 130.82 172.84 132.39 174.59 134.15 175.58 
M 148.19 184.17 149.3 184.87 
M 88.61 201.63 88.26 201.98 87.64 202.17 82.25 200.81 79.76 200.64 
M 130.93 206.56 132.51 207.33 133.81 207.6 135.33 208.29 
M 105.51 192.93 103.38 193.17 
M 104.82 175.21 107.38 174.6 108.2 174.1 108.66 173.68 109.99 171.67 110.78 169.71 
M 95.2 188.29 97.93 189.21 99.79 190.36 101.03 191.65 101.42 192.29 101.69 193.36 
M 125.28 175.75 125.32 175.42 125.56 175.44 
M 148.57 207.64 147.08 206.82 146.27 206.17 145.72 205.6 144.16 203.16 143.85 202.99 
M 152.38 192.88 151.65 190.29 150.33 188.24 
M 148.72 179.92 149.74 179.74 150.61 178.69 151.86 178.61 
M 101.86 175.85 100.05 176 97.9 175.75 95.52 175.7 
M 150.68 165.83 147.79 167.08 147.27 167.1 146.79 166.79 
M 100.17 199.7 101.49 200.2 102.19 201.03 102.38 201.48 
M 140.13 169.22 142.17 169.3 143.04 169.61 143.96 170.25 144.48 170.32 
M 90.88 185.19 90.69 183.03 90.39 181.86 88.92 180 
M 81.98 191.54 80.81 193.39 
M 141.14 183.23 141.72 182.2 141.9 181.41 141.72 180.57 141.12 179.16 141.05 178.26 141.61 177.53 142.45 177.07 
M 104.76 206.6 105.11 209.66 105.69 210.33 106.56 210.45 
M 89.65 207.67 90.34 208.01 
M 85.33 206.6 85.29 207.11 85.52 207.88 85.73 207.33 86.23 206.88 
M 81.54 205.37 81.2 206.68 81.44 208.11 81.64 206.9 82.58 205.68 
M 77.87 203.97 77.1 206.25 77.36 208.34 77.54 206.47 78.95 204.38 
M 74.28 202.41 73.01 205.82 73.28 208.57 73.45 206.04 75.38 202.95 
M 89.71 207.61 90.38 207.39 
M 85.34 207.88 85.69 206.85 85.82 207.43 86.12 207.77 
M 81.48 208.46 81.34 207.45 81.77 206.06 81.81 207.29 82.38 208.27 
M 77.68 209.11 77.33 207.31 77.86 205.27 77.8 207.15 78.7 208.97 
M 74.04 210.32 73.32 207.17 73.94 204.47 73.78 207.01 74.97 209.62 
M 79.27 212.82 83.47 212.96 88.96 212.51 91.75 212 100.36 209.88 
M 87.29 212.71 87.02 212.62 
M 87.72 211.62 87.17 211.25 
M 90.83 211.5 89.34 211.03 
M 154.78 158.12 160.12 163.47 
M 159.94 156.73 165.63 162.42 
M 165.06 155.29 174.62 164.85 
M 170.06 153.73 178.92 162.6 
M 175 152.13 181.18 158.31 
M 179.89 150.46 187.76 158.33 
M 184.74 148.76 191.16 155.18 
M 189.57 147.03 196.19 153.65 
M 194.48 145.39 201.81 152.71 
M 199.46 143.81 205.06 149.41 
M 204.71 142.5 209.99 147.78 
M 210.08 141.32 216.31 147.54 
M 216.08 140.76 221.45 146.13 
M 222.25 140.38 228.37 146.49 
M 228.65 140.22 238.23 149.8 
M 235.36 140.38 244.24 149.25 
M 242.65 141.11 247.84 146.3 
M 250.79 142.7 258.69 150.59 
M 259.7 145.05 266.63 151.99 
M 268.53 147.33 274.51 153.31 
M 276.95 149.19 285.2 157.44 
M 284.85 150.54 293.6 159.28 
M 292.28 151.41 300.49 159.62 
M 299.55 152.12 305.73 158.31 
M 306.79 152.81 311.86 157.88 
M 314.12 153.59 321.37 160.84 
M 321.7 154.61 327.94 160.85 
M 329.65 156 336.4 162.75 
M 337.99 157.79 345.88 165.68 
M 346.91 160.15 355.54 168.78 
M 356.53 163.22 363.44 170.13 
M 366.88 167.01 373.84 173.97 
M 378.63 172.2 379.14 172.72 
M 210.78 140.45 211.15 141.19 
M 212.33 136.17 214.68 140.88 
M 213.26 130.66 218.22 140.57 
M 214.42 125.6 216.98 130.73 
M 220.65 138.06 221.82 140.4 
M 215.34 120.08 218.64 126.67 
M 224.5 138.4 225.45 140.3 
M 216.47 114.95 225.63 133.27 
M 226.36 134.74 229.12 140.26 
M 218.25 111.14 232.83 140.31 
M 219.29 105.85 220.39 108.05 
M 224.79 116.84 236.59 140.44 
M 220.22 100.33 224.25 108.39 
M 225.72 111.32 234.51 128.91 
M 235.98 131.84 240.44 140.77 
M 221.87 96.25 225.9 104.31 
M 228.83 110.18 237.62 127.77 
M 238.36 129.23 244.43 141.39 
M 223.75 92.64 228.51 102.16 
M 229.98 105.1 242.44 130.01 
M 243.9 132.95 248.5 142.14 
M 227.48 92.74 231.88 101.53 
M 234.81 107.39 241.41 120.59 
M 242.14 122.05 245.07 127.91 
M 248.74 135.24 250.2 138.18 
M 251.67 141.11 252.72 143.21 
M 230.59 91.58 234.26 98.91 
M 235.72 101.84 244.52 119.43 
M 245.25 120.89 248.91 128.22 
M 249.65 129.69 251.85 134.09 
M 252.58 135.55 253.31 137.02 
M 254.78 139.95 256.97 144.33 
M 232.47 87.96 236.87 96.75 
M 238.33 99.68 257.39 137.8 
M 258.12 139.26 258.85 140.73 
M 259.59 142.19 261.22 145.46 
M 231.03 77.71 238.73 93.1 
M 239.46 94.57 259.25 134.15 
M 259.98 135.61 265.47 146.59 
M 233.39 75.05 254.27 116.82 
M 255.01 118.29 266.73 141.74 
M 235 70.9 244.9 90.69 
M 245.63 92.16 253.69 108.28 
M 255.16 111.21 256.62 114.14 
M 258.09 117.07 268.97 138.84 
M 236.86 67.24 246.02 85.56 
M 247.49 88.49 254.08 101.68 
M 255.55 104.62 257.75 109.01 
M 261.41 116.34 268.14 129.8 
M 239.44 65.03 260.33 106.81 
M 263.26 112.67 266.08 118.31 
M 241.25 61.27 259.21 97.18 
M 259.94 98.65 260.67 100.12 
M 243.56 58.51 263.71 98.82 
M 268 107.4 268.26 107.91 
M 246.25 56.52 253.95 71.91 
M 255.41 74.85 268.71 101.45 
M 248.9 54.45 257.33 71.31 
M 258.06 72.77 261.73 80.1 
M 263.19 83.03 266.33 89.31 
M 251.51 52.3 252.61 54.5 
M 254.81 58.9 260.67 70.62 
M 262.87 75.02 267.12 83.5 
M 254.63 51.16 256.46 54.82 
M 258.66 59.22 262.32 66.55 
M 265.26 72.41 266.72 75.34 
M 267.63 77.16 268.18 78.25 
M 257.23 48.99 260.53 55.58 
M 264.93 64.38 268.87 72.26 
M 260.2 47.56 260.57 48.29 
M 262.04 51.22 269.74 66.62 
M 263.12 46.01 264.22 48.21 
M 264.95 49.68 267.15 54.07 
M 267.88 55.54 270.11 59.99 
M 265.1 42.6 269.98 52.36 
M 267.59 40.2 270.86 46.74 
M 270.13 37.91 272.11 41.88 
M 272.47 35.21 273.67 37.61 
M 274.58 32.07 275.14 33.18 
M 212.33 291.39 210.44 297.7 
M 212.33 291.39 215.03 291.39 215.84 291.7 216.17 292.6 215.9 293.5 215.03 294.39 214.04 294.7 211.34 294.7 
M 221.3 293.5 220.04 297.7 
M 221.03 294.39 220.61 293.8 220.1 293.5 219.2 293.5 218.51 293.8 217.73 294.39 217.16 295.3 216.98 295.89 217.01 296.8 217.43 297.39 217.94 297.7 218.84 297.7 219.53 297.39 220.31 296.8 
M 223.7 293.5 221.81 299.8 
M 223.43 294.39 224.21 293.8 224.9 293.5 225.8 293.5 226.31 293.8 226.73 294.39 226.76 295.3 226.58 295.89 226.01 296.8 225.23 297.39 224.54 297.7 223.64 297.7 223.13 297.39 222.71 296.8 
M 229.73 291.39 229.94 291.7 230.33 291.39 230.12 291.1 229.73 291.39 
M 229.4 293.5 228.14 297.7 
M 232.43 291.39 230.54 297.7 
M 233.36 295.3 236.96 295.3 237.14 294.7 237.02 294.1 236.3 293.5 235.4 293.5 234.71 293.8 233.93 294.39 233.36 295.3 233.18 295.89 233.21 296.8 233.63 297.39 234.14 297.7 235.04 297.7 235.73 297.39 236.51 296.8 
M 240.8 293.5 240.11 293.8 239.33 294.39 238.76 295.3 238.58 295.89 238.61 296.8 239.03 297.39 239.54 297.7 240.44 297.7 241.13 297.39 241.91 296.8 242.48 295.89 242.66 295.3 242.63 294.39 242.21 293.8 241.7 293.5 240.8 293.5 
M 246.23 291.39 244.7 296.5 244.73 297.39 245.24 297.7 245.84 297.7 
M 244.7 293.5 246.8 293.5 
M 251.93 294.39 251.51 293.8 251 293.5 250.1 293.5 249.41 293.8 248.63 294.39 248.06 295.3 247.88 295.89 247.91 296.8 248.33 297.39 248.84 297.7 249.74 297.7 250.43 297.39 251.21 296.8 
M 254.93 291.39 253.04 297.7 
M 253.94 294.7 255.11 293.8 255.8 293.5 256.7 293.5 257.21 293.8 257.24 294.7 256.34 297.7 
M 260 293.5 259.1 296.5 259.13 297.39 259.64 297.7 260.53 297.7 261.23 297.39 262.39 296.5 
M 263.3 293.5 262.03 297.7 
M 268.43 294.39 268.31 293.8 267.5 293.5 266.6 293.5 265.61 293.8 265.13 294.39 265.25 295 265.76 295.3 267.17 295.6 267.68 295.89 267.7 296.8 267.23 297.39 266.24 297.7 265.34 297.7 264.52 297.39 264.4 296.8 
M 274.43 291.39 272.54 297.7 
M 276.2 293.5 275.3 296.5 275.33 297.39 275.83 297.7 276.74 297.7 277.43 297.39 278.6 296.5 
M 279.5 293.5 278.24 297.7 
M 282.52 291.39 280.64 297.7 
M 283.45 295.3 287.06 295.3 287.24 294.7 287.12 294.1 286.39 293.5 285.5 293.5 284.81 293.8 284.02 294.39 283.45 295.3 283.27 295.89 283.31 296.8 283.73 297.39 284.24 297.7 285.14 297.7 285.83 297.39 286.61 296.8 
M 293 293.5 291.56 298.3 290.99 299.2 289.91 299.8 289.01 299.8 288.5 299.5 
M 292.73 294.39 292.31 293.8 291.8 293.5 290.89 293.5 290.2 293.8 289.43 294.39 288.86 295.3 288.68 295.89 288.7 296.8 289.13 297.39 289.64 297.7 290.54 297.7 291.23 297.39 292.01 296.8 
M 298.7 293.5 297.44 297.7 
M 298.43 294.39 298.01 293.8 297.5 293.5 296.6 293.5 295.91 293.8 295.13 294.39 294.56 295.3 294.38 295.89 294.41 296.8 294.83 297.39 295.33 297.7 296.24 297.7 296.93 297.39 297.7 296.8 
M 303.83 294.39 303.7 293.8 302.89 293.5 302 293.5 301.01 293.8 300.52 294.39 300.64 295 301.16 295.3 302.57 295.6 303.08 295.89 303.11 296.8 302.63 297.39 301.64 297.7 300.74 297.7 299.93 297.39 299.81 296.8 
M 306.52 291.39 306.74 291.7 307.13 291.39 306.92 291.1 306.52 291.39 
M 306.2 293.5 304.94 297.7 
M 307.82 297.1 307.43 297.39 307.64 297.7 308.02 297.39 307.82 297.1 
"/></svg>
