<svg xmlns="http://www.w3.org/2000/svg" width="520" height="320"><rect x="0" y="0" width="520" height="320" fill="floralwhite"/><rect x="10" y="10" width="500" height="300" stroke="black" stroke-width="1" fill="none"/><path stroke="black" stroke-width="1" fill="none" stroke-linecap="round" stroke-linejoin="round" d="
M 191.4 105 195.08 103.71 202.33 101.58 209.7 99.88 217.19 98.84 224.75 98.71 232.25 99.59 239.72 100.78 247.23 101.62 254.79 101.94 269.9 102.2 277.43 102.91 284.87 104.25 299.54 107.88 306.93 109.51 344.13 116.17 351.56 117.57 358.93 119.26 366.18 121.39 373.32 123.88 380.37 126.61 387.34 129.54 394.15 132.81 394.75 133.41 
M 394.75 207.44 393.21 208.99 386.27 211.97 379.06 214.26 364.4 217.96 342.26 222.84 334.92 224.69 313.32 231.58 306.02 233.54 298.63 235.12 291.19 236.5 283.71 237.57 276.17 238.04 261.05 238.09 253.5 237.7 245.98 236.92 238.51 235.74 223.71 232.64 209.03 229.06 194.5 224.88 182.83 220.73 
M 209.18 154.99 212.72 154.91 
M 216.28 154.94 221.81 155.31 227.53 156.16 
M 231.31 156.77 234.98 157.33 
M 245.8 158.78 249.29 159.01 
M 252.74 159.11 263.09 158.67 
M 266.92 158.75 270.79 158.85 
M 274.3 158.6 280.61 157.48 
M 283.97 157.13 301.81 156.33 
M 305.19 155.9 311.59 154.59 
M 314.84 153.93 321.23 152.5 
M 324.48 151.9 326.16 151.66 333.29 151.34 340.57 151.48 363.25 153.97 370.86 155.42 374.32 155.88 380.51 156.19 386.11 157.4 
M 390.01 158.4 394.75 159.62 
M 186.86 215.64 188.6 221.08 
M 189.83 203.41 192.38 210.79 195.17 220.38 
M 194.16 194.77 194.77 196.59 
M 196.05 200.22 199.49 209.73 201.45 216.79 203.06 224.21 
M 207.63 210.95 209.74 220.97 
M 206.92 107.39 206.62 111.5 
M 206.34 115.61 206.15 119.75 
M 206.06 128.21 205.96 130.22 205.2 133.66 203.87 138.48 
M 202.28 144.89 200.48 150.89 
M 200.53 161.72 201.3 164.68 
M 202.16 167.71 203.17 170.86 
M 204.35 174.18 205.49 177.46 
M 213.48 205.99 215.46 214.52 217.28 220.45 
M 219.09 227.29 219.35 228.38 
M 214.63 110.89 214.9 115.58 
M 214.98 120.03 214.93 122.15 214.39 128.03 
M 213.78 131.65 213.42 133.38 211.95 138.06 
M 211.02 141.15 207.87 153.54 
M 210.08 167.59 210.97 170.6 
M 212.92 176.76 213.13 177.47 
M 222.61 212.24 223.73 216.11 
M 226.95 228.15 227.38 230.24 
M 222.31 119.71 222.37 124.12 
M 222.17 128.21 221.69 131.96 
M 220.93 135.35 218.92 141.43 
M 218.41 170.23 219.84 174.67 
M 230.98 212.84 231.91 216.57 
M 232.91 220.46 234.26 226.27 234.92 231.69 
M 230.11 120.99 229.83 127.22 229.57 129.09 
M 228.93 132.67 227.13 139.06 
M 224.4 148.01 222.95 153.92 
M 239.37 216.77 240.86 222.7 241.33 226.24 241.38 232.04 
M 236.49 134.02 235.34 139 234 143.58 
M 233.21 146.63 232.51 149.7 
M 231.05 155.39 230.71 156.66 
M 246.4 214.63 247.09 217.75 
M 247.73 221.39 248.09 224.84 
M 248.22 228.14 248.2 232.58 
M 247.07 116.29 246.49 120.17 
M 245.8 123.89 242.76 137.71 
M 242.16 141.1 240.76 151.13 
M 240.02 154.05 238.98 156.62 
M 254.21 215.5 254.21 215.54 
M 255.33 225.79 255.34 231.85 
M 253.01 123.85 252.51 127.69 
M 250.17 137.85 249.65 139.34 249.38 141.03 
M 249.12 144.65 249.25 150.45 248.9 153.77 247.84 156.31 245.99 158.84 
M 261.22 212.47 262.3 220.11 
M 262.53 223.41 262.46 226.49 
M 262.21 229.46 262.05 232.71 
M 261.28 110.9 260.92 115.07 
M 258.42 130.1 258.01 133.89 
M 257.79 137.76 257.52 141.49 
M 257.14 145.01 256.77 148.44 
M 256.41 151.81 256.22 153.46 255.35 156.19 254.33 157.68 
M 267.34 203.17 267.95 208.76 269.02 215.46 269.32 223.3 
M 269.54 226.67 269.85 230.82 
M 267.64 118.38 267.02 122.18 
M 265.65 129.47 265.17 133.2 
M 264.99 137.14 264.77 142.94 264.15 146.2 263.26 149.11 261.81 155.01 260.48 158.75 
M 272.96 195.05 273.32 196.58 273.93 200.86 
M 274.31 203.78 275.83 212.04 275.89 216.44 
M 276.15 222.78 276.72 226.51 
M 273.9 121.49 272.64 128.89 
M 272.09 132.57 271.62 136.24 
M 270.77 143.4 270.18 146.68 
M 269.58 149.88 268.47 158.83 
M 278.42 188.6 279.12 191.28 
M 279.89 194.37 280.52 197.4 
M 281 200.36 281.9 209.19 
M 283.82 222.91 284.72 226.98 
M 285.62 231.34 286 233.58 
M 280.33 120.88 279.63 124.52 
M 278.98 128.18 277.84 135.41 
M 277.61 139.24 277.53 143.14 
M 277.34 146.85 276.21 155.16 275.93 158.35 
M 283.22 182.49 283.71 183.81 
M 284.89 187.23 285.78 190.41 
M 286.53 193.51 288.52 201.7 289.16 207.66 292.43 222.55 293.91 230.36 294.3 233.23 
M 286.39 124.64 285.38 130.04 284.9 133.74 284.77 137.7 284.89 139.83 
M 285.18 144.12 285.35 146.26 285.23 150.04 284.42 153.05 283.83 154.34 
M 282.91 156.4 282.59 157.19 
M 287.69 175.95 288.56 179.01 
M 289.63 182.3 290.68 185.63 
M 291.57 188.87 293.87 196.03 
M 295.99 203.28 296.52 206.47 
M 297.13 209.81 299.18 217.58 
M 300.48 224.96 301.16 231.16 
M 294.34 121.61 293.38 127.11 292.98 130.94 292.84 139.07 291.68 149.84 291.14 153.15 290.11 156.9 
M 294.47 175.26 296.54 181.86 
M 299.71 192.19 301.71 197.95 302.77 201.6 304.83 210.37 
M 305.24 213.59 305.54 218.28 307.37 228.24 
M 303.63 111.1 302.46 114.22 
M 301.51 117.57 300.46 122.99 300.26 124.92 
M 299.97 128.88 299.98 137.21 
M 299.99 141.31 299.95 143.29 299.58 146.93 298.72 151.97 
M 298 155.07 297.61 156.54 
M 299.89 166.49 300.92 169.73 
M 304.06 182.02 304.95 186.49 305.51 188.27 
M 306.69 191.93 307.77 195.54 
M 308.62 198.96 310.45 207.43 311.2 213.8 311.83 217.38 314.2 225.6 
M 306.77 124.37 306.61 132.63 
M 306.58 136.74 306.63 140.89 
M 306.52 144.84 305.72 152.01 
M 305.25 154.86 305.05 156 
M 309.51 172.92 310.31 176.04 
M 311.01 179.1 313.14 188.51 
M 313.48 191.36 313.93 195.64 314.63 198.95 316.36 206.01 317.71 212.97 319.52 219.45 
M 313.39 119.74 313.53 124.13 
M 313.71 128.54 313.74 130.66 312.96 142.26 311.77 154.57 
M 314.82 165.72 315.64 168.88 
M 317.14 175.12 317.98 178.36 
M 318.85 181.66 319.88 186.4 320.44 190.73 
M 321.57 197.03 324.36 209.19 326.95 218.84 
M 320.61 124.44 320.48 128.52 
M 320.05 132.27 319.29 137.72 319.17 139.66 
M 318.87 147.52 318.71 151.3 
M 322.67 167.88 325.06 177.54 
M 325.96 180.9 329.84 197.48 
M 331.28 204.2 333.96 216.24 
M 330.28 114.94 327.96 123.22 326.34 132.07 
M 325.66 135.52 325.34 137.27 325.11 141.15 325.16 143.24 
M 325.38 150.65 325.39 151.73 
M 330.47 167.67 331.35 170.99 
M 333.28 177.83 334.87 183.14 338.19 196.63 339.56 205.9 341.27 214.32 
M 338.03 116.51 337.67 118.28 337.03 119.76 
M 335.63 122.6 334.89 123.96 334.35 125.51 
M 333.45 128.78 332.79 132.28 
M 332.29 135.9 332.07 139.78 
M 332.25 144.06 332.89 151.34 
M 336.22 160.76 337.2 164.18 
M 340.12 174.45 341.09 177.89 
M 342.87 184.69 344.26 192.5 345.81 204.76 346.65 208.38 347.81 212.33 
M 342.65 123.47 342.06 125 341.47 128.63 341.17 136.69 340.66 140.31 340.36 144.13 340.4 146.21 
M 345.88 167.84 347.06 172.76 348.82 182.19 350 191.3 350.86 196.23 
M 351.61 199.72 354.32 210.91 
M 350.1 124.96 349.87 126.87 349.84 131.1 350.09 135.59 350.09 139.81 349.4 145.39 
M 348.93 149.75 348.72 152.28 
M 352.55 164.9 354.04 171.53 
M 354.61 177.34 354.6 181.35 354.77 182.88 
M 355.15 185.99 355.63 189.23 
M 357.27 196.45 360.55 206.8 361.35 210.47 
M 359.11 119.31 359.03 119.67 
M 358.11 127.45 357.71 137.87 357.2 143.79 
M 357.04 147.88 356.72 153.16 
M 361.01 169.24 361.86 174.16 361.84 176.9 361.54 179.38 361.41 182.07 361.82 185.32 362.91 190.71 
M 363.87 194.55 364.4 196.52 367.29 205.17 368.83 210.79 
M 367.49 121.84 366.62 124.26 366.11 128.17 365.88 136.78 365.11 144.82 364.98 149.06 364.53 154.18 
M 368.43 176.19 368.27 180.42 368.39 183.49 369.02 187.08 370.63 193.15 
M 371.88 197.37 373.91 203.82 375.78 210.66 
M 375.26 125.82 374.15 131.46 373.12 139.49 372.76 143.66 372.74 152.67 372.48 155.68 
M 375.67 174.91 375.72 179.52 376.09 182.97 377.38 190.41 382.1 209.71 
M 383.2 129.25 382.76 131.11 380.55 138.17 379.87 142.16 379.44 146.4 379.06 156.04 
M 382.48 166.96 382.87 168.89 382.98 172.11 382.68 178.13 382.93 181.57 385.21 196.52 385.93 200.32 387.74 207.41 
M 383.8 196.61 385.11 194.57 386.52 189.8 388.57 185.01 
M 232.8 162.28 235.07 161.21 235.42 161.26 235.75 161.92 
M 286.45 211.46 285.8 211.98 281.78 213.91 281.07 214.15 278.53 214.3 
M 350.95 153.6 351.7 153.95 352.63 153.7 353.13 153.17 353.59 151.78 
M 300.31 189.21 299.94 188.54 299.35 188.02 296.28 186.87 
M 378.06 156.06 380.93 155.9 382.23 156.27 384.72 156.43 386.15 156.75 
M 377.4 125.46 377.66 126.96 377.6 127.8 377.35 128.55 376.76 129.14 
M 204.99 163.04 207.3 169.2 208.59 170.83 209.55 171.56 
M 328.1 155.02 329.08 156.15 329.27 157.34 328.85 157.75 327.49 157.71 
M 295.78 190.99 293.9 191.78 291.42 192.13 290.32 192.92 
M 391.54 184.54 391.43 185.44 392.07 187.11 391.37 188.24 
M 249 234.8 248.21 234.28 247.81 233.66 246.69 229.5 
M 256.06 143.21 256.77 145.84 256.81 148.83 257.31 150.22 258.34 152.12 
M 213.83 149.93 214.59 147.9 214.87 145.89 214.47 144.44 213.22 142.31 212.85 140.6 212.89 139.55 213.17 138.36 214.15 136.11 
M 211.28 157.56 211.64 157.01 212.6 154.38 213 152.81 213.25 150.5 213.89 148.49 
M 333.38 213.15 334.18 213.51 335.2 213.44 336.68 212.57 337.09 212.14 337.24 211.68 
M 330.31 132.51 330.82 136.19 331.51 137.29 332.03 137.76 333.31 138.42 335.4 138.66 336.22 138.96 337 139.47 
M 322.92 207.69 321.54 208.38 319.76 208.84 317.21 208.92 315.76 208.58 313.34 207.72 312.72 207.3 
M 378.96 208.92 378.71 209.49 377.91 210.16 377.78 210.48 
M 305.1 140.6 303.93 139.77 303 138.52 301.9 135.92 301.49 133.15 301.93 129.98 
M 248.4 140.18 248.13 138.88 247.74 138.1 246.75 137.7 244.63 137.9 242.98 138.31 241.32 138.94 
M 368.87 145.98 368 144.75 366.25 141.62 365.39 139.71 364.24 138.1 363.66 137.54 363.07 137.23 362.53 137.1 361.5 137.2 
M 244.38 153 243 152.59 242.3 152.16 241.66 151.5 240.57 149.42 238.68 147.09 238.44 146.51 
M 330.23 200.48 329.79 202.16 329.4 202.84 328.48 203.48 325.93 204.64 
M 334.13 217.91 335.66 216.94 336.05 216.48 337.28 213.26 337.39 211.81 
M 373.89 132.37 371.44 130.77 371.18 130.72 370.85 130.95 
M 278.72 142.88 280.13 144.75 280.76 145.19 282.44 145.17 283.43 144.89 
M 224.83 149.69 223.18 147.12 221.36 145.79 220.35 145.49 219.43 145.42 217.98 145.79 217.27 145.8 
M 325.24 126.47 323.66 124.54 323.13 123.34 323.41 121.18 323.91 120.11 324.79 119.41 325.63 119.28 
M 249.06 100.96 301.41 30 302.14 30.52 252.32 101.92 
M 262.45 101.11 298.15 48.6 298.9 49.09 265.69 102 
M 275.87 101.95 300.89 67.79 301.63 68.3 278.92 103.17 
M 289.03 104.65 304.3 85.22 305.03 85.74 291.99 105.99 
M 302.01 107.93 308.45 99.45 309.21 99.91 304.99 109.1 
M 316.44 110.88 317.89 111.58 
M 297.09 37.75 295.4 41.15 294.23 44.64 293.95 46.42 293.89 48.25 294 50.1 294.58 53.85 
M 295.52 54.47 295.03 58.39 295.06 62.21 295.38 64.07 295.9 65.89 296.62 67.68 298.39 71.21 
M 299.32 71.85 298.96 75.51 299.13 79.04 299.51 80.74 300.11 82.4 300.88 84.01 302.77 87.16 
M 303.69 87.82 303.51 90.95 303.59 92.46 303.84 93.91 304.3 95.3 305.8 97.88 307.8 100.3 
M 308.77 100.88 309.8 103.93 311.24 106.65 312.19 107.81 313.31 108.83 314.58 109.74 317.38 111.33 
M 296.21 39.44 294.72 42.88 294.23 44.64 293.95 46.42 293.89 48.25 294.25 51.97 
M 292.3 45.69 290.96 48.79 290.52 50.37 290.21 53.62 290.54 56.97 
M 288.38 51.94 287.2 54.69 286.8 56.1 286.52 58.99 286.82 61.97 
M 284.47 58.19 283.43 60.6 283.09 61.83 282.84 64.36 283.1 66.96 
M 280.56 64.44 279.67 66.51 279.37 67.56 279.16 69.73 279.39 71.96 
M 276.65 70.69 275.9 72.41 275.52 74.19 275.67 76.96 
M 272.73 76.94 271.94 79.02 271.8 80.47 271.95 81.96 
M 295.24 56.43 294.95 60.31 295.06 62.21 295.38 64.07 295.9 65.89 297.47 69.45 
M 290.91 64.48 290.67 67.68 290.76 69.25 291.46 72.29 292.75 75.22 
M 286.58 72.53 286.39 75.05 286.67 77.5 287.01 78.68 288.03 81 
M 282.25 80.58 282.11 82.42 282.31 84.21 283.31 86.77 
M 299.1 73.69 298.95 77.3 299.13 79.04 299.51 80.74 300.11 82.4 301.79 85.59 
M 293.73 84.38 293.64 86.72 293.75 87.86 294.39 90.04 295.48 92.12 
M 303.56 89.39 303.59 92.46 303.84 93.91 304.3 95.3 304.96 96.62 306.76 99.1 
M 195.56 180.93 200.94 179.39 204.1 179.43 206.77 179.94 209.38 178.77 214.47 176.98 218.5 175.01 221.27 174.31 227.59 171.74 257.92 167.59 260.6 167.92 262.88 167.85 265.64 168.25 268.03 168.28 270.95 168.85 273.25 168.8 275.48 169.62 282.72 175.91 284.2 178.42 283.99 180.93 283.09 182.76 282.6 185 280.94 187.13 276.27 189.69 274.08 191.12 272.61 193.26 270.83 195.28 268.84 196.8 268.45 199.93 267.8 202.79 265.89 204.35 264.37 209.65 260.55 213.08 258.4 214.42 253.51 215.65 227.85 211.96 224.83 209.87 221.49 208.12 218.93 206.12 216.21 205.05 213.96 204.8 212.33 203.16 209.59 201.22 204.45 198.86 200.83 197.68 194.68 195.14 191.88 193.17 
M 195.13 182.32 200.82 181.17 207.14 181.4 209.16 180.77 213.5 179 219.1 176.98 221.83 176.27 224.75 175.73 
M 200.69 183.43 203.83 183.26 206.85 183.56 209.22 183.09 211.13 182.66 213.37 181.54 216.11 180.65 218.34 179.48 224.61 177.85 227.72 177.64 231.07 176.93 234.32 176.81 236.76 177.09 239.16 176.58 244.15 174.64 246.6 173.99 249.04 173.92 252.09 172.99 254.71 172.58 257 172.44 263.34 170.95 266.27 170.53 
M 194.13 185.5 198.02 185.54 200.86 185.9 203.74 185.85 206.29 185.47 211.24 185.1 213.69 185.08 216.14 184.1 219.35 183.24 221.89 182.59 225.19 182.04 227.94 182.64 231.35 182.13 234.39 181.25 241.45 180.82 243.14 180.19 246 180 248.88 180.45 251.33 180.57 253.7 180.04 256.42 180.67 263.88 180.66 
M 200.79 187.73 208.52 188.15 216.48 187.5 219.79 187.54 223.18 187.35 226.23 186.97 229.31 186.87 232.18 186.33 234.58 186.27 239.92 187.51 244.1 187.78 249.24 187.59 
M 194.86 189.07 198.02 189.67 203.59 190.27 206.14 190.78 208.67 190.69 211.02 190.95 213.59 190.41 216.79 190.99 220.55 191.45 224.12 192.28 227.35 192.16 229.77 192.5 231.93 192.18 234.55 191.38 
M 194.89 190.61 197.9 191.42 203.41 192.46 206.46 193.22 209.13 193.52 211.9 194.09 217.15 194.16 228.82 196.53 230.54 196.6 232.88 196.22 236.1 197.78 240.34 199.23 243.11 201.31 245.78 201.28 
M 194.8 192.24 200.43 194.04 209.45 196.06 212.03 196.4 214.76 197.12 217.3 198.01 219.9 198.62 223.63 199.92 226.89 200.23 228.12 200.95 229.99 201.46 232.71 201.21 236.04 202.88 239.27 205.39 244.34 207.66 246.94 208.75 249.54 208.73 
M 197.46 194.93 203.73 196.94 206.49 197.54 209.23 198.55 212.17 199.31 214.41 200.78 216.39 201.53 219.09 202.19 222.26 203.2 225.71 204.64 228.05 205.88 
M 234.7 233.73 249.44 252.21 248.76 252.8 232.28 235.86 
M 233.07 233.5 233.74 234.57 
M 238.53 242.28 248.05 257.58 247.31 258.09 230.41 235.32 
M 231.42 233.3 231.9 234.3 
M 235.71 242.46 245.43 263.26 244.64 263.67 228.56 234.76 
M 229.76 233.1 230.05 234 
M 232.81 242.4 241.53 269.02 240.69 269.32 226.73 234.2 
M 228.06 232.91 228.21 233.66 
M 229.89 242.16 236.32 274.62 235.44 274.82 224.92 233.62 
M 226.65 232.79 226.68 233.22 
M 227.43 243.46 230.1 279.91 229.21 280 223.44 233.11 
M 247.12 251.11 245.39 252.25 245.12 252.67 245.06 253.13 245.54 254.11 246.55 255.18 
M 245.62 255.81 243.63 256.77 243.25 257.2 243.08 257.69 243.3 258.89 244.03 260.26 
M 243.03 260.78 240.79 261.55 240.31 261.96 240.02 262.48 239.95 263.82 240.35 265.42 
M 239.29 265.81 237.56 266.11 236.24 266.75 235.82 267.27 235.56 267.92 235.49 270.45 
M 234.39 270.7 232.56 270.87 231.1 271.43 230.59 271.93 230.22 272.58 229.76 275.2 
M 246.45 251.48 245.39 252.25 245.12 252.67 245.06 253.13 245.2 253.61 246.01 254.64 
M 241.61 245.57 240.92 246.07 240.7 246.64 241.32 247.63 
M 244.87 256.1 243.63 256.77 243.25 257.2 243.08 257.69 243.1 258.26 243.63 259.56 
M 241.6 250.99 240.65 251.51 240.36 251.84 240.25 252.65 240.65 253.65 
M 238.33 245.89 237.47 246.47 237.39 247.04 237.67 247.74 
M 242.2 260.99 240.79 261.55 240.31 261.96 240.02 262.48 239.9 263.1 240.12 264.6 
M 239.15 254.65 238.07 255.09 237.7 255.4 237.39 256.27 237.55 257.42 
M 236.09 248.32 235.09 248.84 234.87 249.45 234.99 250.25 
M 238.4 265.94 236.83 266.37 236.24 266.75 235.82 267.27 235.56 267.92 235.44 269.55 
M 236.47 260.25 235.17 260.61 234.69 260.93 234.13 261.89 234.03 263.23 
M 234.54 254.57 233.13 255.1 232.69 255.86 232.61 256.91 
M 232.61 248.88 231.58 249.27 231.26 249.83 231.2 250.6 
M 233.45 270.76 231.77 271.09 231.1 271.43 230.59 271.93 230.22 272.58 229.85 274.26 
M 232.11 264.17 230.72 264.44 230.17 264.73 229.44 265.68 229.13 267.06 
M 230.76 257.58 229.24 258.02 228.66 258.77 228.42 259.86 
M 229.42 250.99 228.62 251.15 228.06 251.55 227.71 252.65 
M 378.26 213.93 382.75 221.85 382.03 222.39 375.68 215.87 
M 365.22 217.11 370.51 226.23 369.79 226.76 362.63 219.03 
M 352.11 220 359.95 232.61 359.22 233.14 349.51 221.91 
M 338.99 222.97 351.84 240.9 351.14 241.46 336.47 224.99 
M 326.07 226.75 346.39 251.67 345.72 252.27 323.65 228.87 
M 310.64 231.69 340.04 265.96 339.38 266.56 308.25 233.85 
M 381.39 221.74 378.51 221.43 375.79 221.65 374.52 222.04 373.32 222.64 372.17 223.42 369.98 225.32 
M 369.07 225.99 366.32 226.17 365.03 226.41 363.83 226.82 362.73 227.42 360.82 229.15 359.16 231.35 
M 358.25 232.02 355.76 232.75 353.64 233.87 352.78 234.66 352.07 235.61 351.48 236.69 350.55 239.11 
M 349.67 239.82 347.49 241.33 345.78 243.11 345.19 244.15 344.78 245.3 344.54 246.53 344.36 249.18 
M 343.51 249.93 341.06 252.21 340 253.43 339.09 254.73 338.38 256.13 337.5 259.21 337.1 262.53 
M 379.94 221.55 377.13 221.45 375.79 221.65 374.52 222.04 373.32 222.64 371.06 224.34 
M 367.68 226.04 365.03 226.41 363.83 226.82 362.73 227.42 361.73 228.2 359.97 230.22 
M 356.98 232.36 354.64 233.24 353.64 233.87 352.78 234.66 352.07 235.61 350.99 237.87 
M 348.55 240.55 346.55 242.17 345.78 243.11 345.19 244.15 344.78 245.3 344.42 247.84 
M 342.51 235.42 341.21 236.48 340.33 237.76 340.06 238.51 339.83 240.16 
M 342.26 251.05 340 253.43 339.09 254.73 338.38 256.13 337.86 257.63 337.27 260.86 
M 336.4 246.21 334.67 248.03 333.97 249.03 333.03 251.25 332.58 253.72 
M 330.54 241.36 329.34 242.63 328.48 244.07 327.88 246.59 
M 393.85 132.52 396.93 131.64 404.62 127.62 407.57 126.8 409.82 125.63 412.21 124.12 417.96 119.93 419.77 118.81 430.6 112.88 433.06 111.98 435.18 110.23 436.77 108.24 440.1 107.24 444.17 104.3 446.37 104.11 449.37 103.54 452.23 102.01 453.37 99.86 454.05 98.17 450.01 112.31 447.37 117.05 445.79 119.16 443.21 123.56 441.86 125.56 440.82 127.86 440 130.5 438.13 132.38 436.81 134.8 436.69 138.21 435.46 140.49 435.16 143.71 431.82 147.6 429.62 149.17 427.77 151.1 426.58 153.65 424.78 155.55 423.22 157.69 423.13 160.74 423.54 163.72 422.92 166.54 421.76 168.78 421.29 171.67 420.01 173.75 419.39 176.57 418.18 178.94 417.47 181.13 417.4 183.83 417.92 186.13 420.03 191.88 420.23 193.94 420.97 196.31 423.09 201.23 423.32 206.41 423.84 208.87 424.65 211.55 425.12 214.63 424.86 220.09 425.35 222.18 429.15 228.36 427.65 234.59 426.53 233.28 424.97 230.11 422.34 228.02 418.98 226.83 415.76 225.97 412.19 221.55 407.58 219.18 404.25 218.31 401.97 216.19 397.37 211.44 393.85 208.71 
M 399.33 134.7 407.72 131.54 410.48 130.66 412.72 128.93 415.55 128.22 417.59 127.14 418.8 125.65 421.33 124.11 423.81 123.34 426.67 122.19 428.39 119.84 
M 402.36 138.36 405.01 137.34 408.25 136.37 410.88 135.96 413.17 135.12 415.43 133.14 417.69 131.93 419.86 131.65 425.01 129.46 428.9 128.76 431.43 127.05 433.11 125.58 435.49 124.21 437.5 123.43 
M 403.85 142.84 406.63 141.6 409.28 140.95 411.31 140.9 414.14 140.55 423.22 135.4 
M 393.85 147.76 404.03 147.53 407.03 146.85 409.3 146.53 412.23 144.78 417.64 143.86 423.01 141.47 425.9 139.75 428.59 139.22 
M 403.89 150.76 409.72 150.18 413.54 150.46 419.2 148.9 421.92 147.62 424.36 146.09 427.69 147.11 429.96 147.31 
M 401.05 155.59 404.35 154.53 411.43 155.97 414.27 155.85 
M 401.01 159.66 410.77 159.7 413.16 159.16 415.92 159.4 418.61 159.02 421.58 159.33 
M 404.46 163.96 407.27 163.64 409.4 163.91 411.85 163.78 419.78 162.2 
M 397.94 168.07 401.45 168.86 405.05 169.12 406.98 169.77 
M 404.96 174.05 409.41 174.25 413.26 175.01 
M 398.22 176.27 402.03 177.04 405.5 176.96 407.58 177.51 
M 405.69 181.25 408.07 181.77 409.36 182.42 411.47 182.45 
M 393.85 182.04 398.29 184.1 405.7 187.12 409.88 186.76 413.2 187 
M 404.63 190.67 407.84 191.29 410.39 191.22 416.01 193.13 
M 397.57 192.18 404.74 194.59 407.54 194.74 410.17 195.64 413.08 197.28 420.36 199.68 422.72 202.08 
M 393.85 193.47 397.62 196.04 401.18 196.89 407.79 199.92 411.29 200.99 413.43 202.06 416.04 202.59 418.55 204.01 420.91 206.06 
M 397.63 199.54 401.03 201.31 407.04 204.77 410.54 206.14 412.83 207.33 415.77 208.21 419.78 211.99 422.08 212.38 
M 397.62 203.46 400.41 205.67 403.05 208.03 406.15 210.05 408.63 210.87 412.12 211.73 413.78 213.1 417.24 214.59 419.48 215.82 420.29 216.93 
M 399.85 209.59 402.32 211.63 405.25 213.17 413.03 216 415.34 217.91 417.42 220.47 
M 343.21 116 349.3 119.13 361.28 101.93 365.22 98.31 368.25 93.77 370.85 92.58 376.65 91.74 379.38 91.7 381.22 94.34 381.33 96.89 381.11 99.84 380.71 102.6 381.93 105.76 385.79 108.91 389.5 113.3 383.36 130.37 376.97 125.23 
M 347.61 116.83 351.08 115.22 352.6 113.82 354.62 113.21 356.15 111.68 356.64 108.5 357.94 106.6 
M 352 117.67 354.78 116.58 356.21 114.88 357.81 113.3 358.85 111.51 360.76 109.1 362.14 106.45 
M 356.37 118.67 358.93 117.55 360.54 115.88 362.19 113.58 362.86 111.06 364.07 108.69 368.02 103.84 
M 360.72 119.71 363.67 118.56 365.81 116.68 367.18 114.83 367.93 112.81 368.4 110.35 369.87 108.74 
M 365 121.02 368.48 120.23 371.71 116.24 376.3 111.51 
M 369.26 122.38 372.06 121.95 374.9 118.45 381.99 114.24 383.71 112.79 385.42 110.53 
M 373.46 123.93 376.78 123.71 378.54 122.99 379.23 122.03 383.77 117.8 385.68 116.74 
M 85.11 151.55 85.43 150.76 86.84 148.62 89.49 146.31 93.31 143.88 98.22 141.18 113.12 135.27 135.17 122.69 143.21 118.8 151.2 115.53 158.99 112.68 173.19 108.38 179.56 106.56 184.92 105.44 189.12 104.85 191.33 104.86 194.57 111.29 196.88 123.71 198.48 129.96 199.41 136.15 199.55 142.29 198.35 148.33 198.14 154.45 198.8 160.62 198.57 166.74 197.53 172.79 196.21 178.82 192.4 190.8 191.07 196.83 188.88 208.93 187.41 214.95 182.83 220.68 169.94 219.89 160.52 218.34 152.11 216.35 144.55 214.3 137.29 212.06 130.34 209.21 123.38 205.57 117.51 201.05 106.78 191.1 
M 105.07 189.27 102.12 186.14 97.96 180.9 94.42 175.79 92.1 170.81 90.94 167.25 
M 171.78 142.09 171.35 147.33 171.22 152.39 170.05 157.16 168.13 161.57 164.43 169.34 163.27 172.82 162.99 176.11 163.24 179.59 164.99 187.72 163.42 192.58 148.54 192.88 136.58 192.26 130.55 191.47 124.59 189.74 118.58 186.82 
M 105.64 190.26 102.81 185.51 95.24 174.3 90.93 167.22 87.17 161.67 83.61 155.56 83.28 153.26 84.72 151.55 86.95 151.55 88.45 153.21 92.4 161.45 94.46 165.26 97.06 171.08 105.23 186.89 107.12 190.91 
M 106.55 191.6 89.41 187.68 78.5 185.35 71.89 184.3 67.52 183.23 65.94 181.64 66.15 179.4 68.05 178.12 70.33 178.57 97.65 187.35 106.84 190.69 
M 135.23 163.61 131.48 158.37 129.65 152.19 129.91 145.76 132.25 139.76 136.42 134.85 141.95 131.55 148.25 130.23 154.64 131.03 160.43 133.85 164.98 138.41 167.81 144.19 168.6 150.58 167.28 156.88 163.99 162.42 159.07 166.58 153.07 168.92 146.64 169.18 140.47 167.35 135.23 163.61 
M 161.79 140.68 164.06 145.31 164.69 150.42 163.64 155.46 161 159.89 157.07 163.22 152.27 165.09 147.12 165.3 142.19 163.83 137.99 160.84 
M 142.85 154.64 141.36 152.54 140.62 150.07 140.73 147.5 141.67 145.1 143.33 143.13 145.54 141.81 148.06 141.28 150.62 141.6 152.93 142.73 154.76 144.56 155.89 146.87 156.21 149.43 155.68 151.95 154.36 154.16 152.39 155.82 149.99 156.76 147.42 156.87 144.95 156.13 142.85 154.64 
M 142.3 153.71 144.15 155.56 
M 140.68 149.68 147.85 156.85 
M 141.77 148.35 150.13 156.71 
M 146.55 150.71 151.87 156.03 
M 148.79 150.54 153.31 155.05 
M 147.38 146.7 154.54 153.86 
M 150.68 147.59 155.44 152.35 
M 147.34 141.83 155.98 150.48 
M 150.39 142.46 156.04 148.12 
M 95.85 177.85 100.94 182.94 
M 91.1 167.73 91.38 168.01 
M 85.27 151.16 85.66 151.55 
M 87.51 148.03 92.11 152.63 
M 90.51 145.66 95.72 150.87 
M 93.82 143.6 98.71 148.49 
M 97.29 141.7 101.42 145.83 
M 101.04 140.08 104.02 143.06 
M 104.91 138.58 109.09 142.76 
M 108.74 137.04 112.72 141.02 
M 112.57 135.49 117.79 140.71 
M 116.05 133.61 119.49 137.05 
M 119.49 131.67 124.18 136.37 
M 122.89 129.71 127.69 134.51 
M 126.29 127.74 129.87 131.32 
M 129.71 125.78 134.46 130.53 
M 133.14 123.84 137.37 128.08 
M 136.64 121.97 139.58 124.91 
M 140.26 120.23 143.36 123.32 
M 143.92 118.51 146.71 121.3 
M 147.73 116.95 151.53 120.75 
M 151.55 115.4 154.44 118.29 
M 155.48 113.96 160.18 118.66 
M 159.43 112.54 164.08 117.19 
M 163.52 111.26 167.1 114.83 
M 167.63 110 171.26 113.63 
M 171.79 108.79 175.61 112.61 
M 175.96 107.59 180.22 111.84 
M 180.18 106.43 183.54 109.8 
M 184.62 105.51 188.12 109.01 
M 189.34 104.86 192.95 108.47 
M 189.2 192.29 190.29 191.03 191.55 188.56 194.12 184.99 
M 113.23 184.81 113.03 185.97 113.52 187.01 114.58 187.98 115.75 188.63 117.3 189.87 
M 116.65 185.68 116.94 187.14 118.15 188.71 118.59 190.18 
M 127.82 127.46 127.84 126.84 
M 140.48 169.54 142.02 171.5 143.64 172.81 145.16 175.04 145.51 175.79 
M 183.28 163.5 184.89 164.63 185.62 165.6 185.76 166.36 185.5 166.62 185.11 166.7 
M 181.93 182.47 181.89 181.86 180.66 180.72 179.97 180.44 179.42 180.44 
M 148.1 183.38 147.5 183.13 146.07 181.88 144.66 180.06 
M 127.9 202.22 127.46 206.57 127.6 207.78 
M 183.54 214.79 181.38 215.58 178.6 217.25 176.21 217.82 174.3 217.9 173.6 217.79 
M 189.09 138.93 188.24 140.87 188.28 143.44 
M 198.3 135.85 193.52 136.63 192.3 136.66 191.57 137.01 
M 115.84 198.6 117.98 195.17 118.49 193.11 119.46 191.43 
M 176.81 214.38 174.21 214.89 172.64 215.56 171.85 215.71 171.26 215.54 170.33 214.72 168.38 211.19 
M 181.3 158.86 185.5 159.9 188.85 160.23 190.06 160.21 
M 164.55 137.05 165.27 136.86 167.02 136.01 171.24 135.61 171.53 135 171.57 133.37 
M 110.72 139.04 109.86 137.63 109.52 136.72 
M 196.26 126.96 196.97 128.43 197.02 129.11 196.61 130.22 196.22 130.61 195.62 130.89 193.2 131.55 191.83 132.12 191.25 132.52 190.58 133.32 
M 119.44 189.94 119 189.85 118.81 189.97 118.82 190.54 
M 142.6 209.24 140.35 211.02 139.83 212.13 139.76 212.82 
M 160.88 134.31 163.28 132.94 163.72 132.52 164.24 131.49 164.39 130.77 
M 180.38 181.33 180.4 181.01 180.1 180.73 178.61 180.7 
M 98.82 174.53 100.71 174.76 
M 194.99 160.57 193.4 161.03 191.86 161.16 191.63 161.31 191.56 161.66 
M 181.34 113.68 180.63 113.28 180.03 112.69 178.05 110.16 175.45 107.73 
M 181.47 185.59 183.48 183.07 183.8 182.14 183.5 181.85 
M 189.61 109.76 187.48 107.98 187.24 106.09 
M 184.06 108.64 183.22 105.8 
M 189.37 171.3 186.94 168.15 186.4 167.13 186.07 166.85 185.28 166.8 
M 121.44 131.65 122.07 130.76 122.38 130.01 
M 110.17 175.92 109.42 175.64 108.71 175.58 108.07 175.7 107.59 176.03 107.16 176.51 105.18 180.03 104.76 180.46 103.02 181.58 
M 173.91 213.3 171.67 214.15 171.04 213.98 169.6 212.5 168.54 211.13 166.66 210.12 
M 94 153.72 92.99 151.34 92.68 149.43 92 148.32 
M 179.49 179.71 178.16 179.94 176.82 180.7 175.93 181.51 
M 173.53 138.25 173.29 138.57 172.9 139.9 172.47 140.5 169.92 142.64 169.19 143.47 
M 191.85 190.88 192.29 189.53 193.5 187.43 
M 171.31 190.64 171.46 189.4 172.12 187.42 173.77 184.8 174.79 183.68 
M 135.84 171.64 135.3 173.33 135.25 174.02 136.3 175.15 
M 198.68 159.48 198.23 159.51 196.73 160.18 193.69 161.02 192.1 161.16 
M 182.54 109.07 182.33 105.99 
M 153.25 194.68 152.74 194.51 152.13 194.61 151.26 195.41 
M 136.32 168.45 135.4 171.1 134.14 173.22 133.58 174.92 
M 182.7 179.79 179.54 179.08 178.08 179.38 177.36 180.15 
M 131.43 158.19 130.84 158.16 130.12 158.36 
M 147.46 206.68 146.4 207.44 145.98 208 145.25 209.4 143.37 213.93 
M 119.43 195.21 119.33 193.58 119.61 191 
M 166.93 218.9 166.48 218.29 165.78 216.31 165.63 213.53 165.77 211.53 164.95 209.58 
M 156.98 185.37 157.7 181.49 158.42 180.18 159.36 177.87 159.6 176.4 159.29 175.38 
M 110.95 149.09 110.89 150.52 111.75 155.1 111.95 158.02 
M 176.66 195.32 178.6 194.46 179.39 193.74 179.9 193.01 180.77 191.04 181.13 190.57 184.77 188.16 185.47 187.49 
M 185.99 216.73 184.87 217.07 183.11 218.79 181.77 219.32 
M 164.87 169.6 167.38 169.57 169.68 169.28 172.83 169.18 174.04 169.46 
M 103.29 187.38 103.8 187.12 
M 105.06 186.58 108.4 185.48 108.81 185.28 109.18 184.8 
M 176.25 168.79 175.93 169.36 175.86 169.86 176.22 172.47 
M 148.13 174.27 147.68 174.25 147.38 174.57 147.09 175.17 146.85 176.34 
M 170.54 115.82 172.18 119.57 173.1 120.95 174.14 121.79 174.95 122.1 175.79 122.01 176.39 121.49 
M 138.67 130.54 136.29 124.64 135.25 122.64 
M 124.67 203.28 125.34 203.11 125.93 203.56 
M 168.58 180.22 169.8 179.43 170.64 177.93 171.68 177.48 
M 184.15 217.99 183.83 218.81 183.93 219.31 
M 187.83 190.19 191 186.62 191.16 186.22 191.16 185.42 190.83 184.84 190.19 184.2 
M 141.28 167.59 141.46 168.38 141.85 168.97 143.49 170.91 144.63 171.91 145.62 173.31 
M 118.15 137.62 117.71 136.96 114.66 134.4 
M 131.97 127.13 130.42 125.38 
M 186.97 199.71 186.8 200.67 186.21 201.57 184.25 202.63 
M 198.29 129.23 197.69 130.29 196.82 131.16 195.45 131.59 192.17 132.15 191.07 132.86 190.38 133.84 
M 170.14 192.91 169.29 191.67 167.8 190.34 166.61 188.26 165.62 186.95 165.35 186.2 165.18 184.3 
M 164 175.72 164.79 174.62 166.9 172.96 168.25 172.77 169.68 172.98 173.19 172.09 
M 183.61 126.72 184.43 127.58 185.06 128.76 
M 168.5 137.79 170 138.1 170.41 138.62 170.54 139.52 170.15 140.82 168.29 143.44 
M 116.47 200.1 118.03 198.42 118.64 195.64 118.79 193.65 
M 109.74 143.03 108.36 140.72 108.06 139.19 107.62 138.18 
M 123.24 134.9 123.16 133.23 124.08 130.45 124.18 128.96 
M 106.79 191.09 107.26 191.91 
M 104.17 187.73 104.23 187.84 
M 101.69 183.8 101.53 184.52 102.09 184.41 
M 99.3 180.18 98.89 181.22 99.37 180.91 99.74 180.87 
M 96.87 176.63 96.58 176.96 96.24 177.92 96.84 177.43 97.37 177.32 
M 94.5 173.03 94.05 173.48 93.6 174.61 94.32 173.94 94.94 173.78 
M 92.18 169.39 91.53 169.99 90.96 171.31 91.79 170.46 92.66 170.19 
M 89.9 165.74 89 166.51 88.32 168.01 89.27 166.97 90.47 166.56 
M 87.52 162.17 86.48 163.02 85.67 164.71 86.74 163.49 88.09 163 
M 85.29 158.48 83.95 159.54 83.03 161.4 84.22 160.01 85.84 159.38 
M 83.46 154.5 81.42 156.06 80.39 158.1 81.69 156.52 83.69 155.71 
M 106.71 191.1 107.68 191.36 
M 98.47 187.62 98.84 187.45 98.8 187.73 
M 93.97 186.24 94.85 185.6 94.65 186.43 
M 89.7 184.81 89.96 184.4 90.87 183.76 90.48 184.54 90.49 185.1 
M 85.47 183.35 85.81 182.73 86.88 181.92 86.33 182.87 86.31 183.64 
M 81.18 182.03 81.66 181.07 82.89 180.08 82.18 181.21 82.11 182.29 
M 76.88 180.76 77.51 179.4 78.91 178.24 78.03 179.54 77.89 181.06 
M 72.67 179.31 73.37 177.74 74.92 176.4 73.88 177.88 73.68 179.66 
M 68.33 178.18 69.22 176.07 70.93 174.56 69.73 176.21 69.45 178.4 
M 75.81 184.91 85.52 190.41 97.5 196.45 103.85 199.12 110.29 201.51 116.8 203.65 123.38 205.57 
M 105.22 197.35 101.87 197.82 100.51 197.44 
M 194.95 113.47 195.18 113.7 
M 193.02 104.37 199.91 111.26 
M 198.45 102.64 207.99 112.18 
M 204.1 101.13 213.91 110.94 
M 209.97 99.84 218.03 107.9 
M 216.2 98.91 223.88 106.59 
M 223.19 98.74 233.92 109.47 
M 231.05 99.44 241.55 109.93 
M 239.52 100.74 247.78 109 
M 247.58 101.65 253.98 108.05 
M 255.03 101.94 265.12 112.03 
M 262.24 101.99 268.39 108.13 
M 269.59 102.17 279.74 112.32 
M 277.5 102.92 285.88 111.3 
M 286.35 104.61 293.7 111.96 
M 295.85 106.96 302.54 113.64 
M 305.2 109.14 312.4 116.34 
M 314.11 110.89 320.38 117.16 
M 322.8 112.42 328.96 118.58 
M 331.48 113.94 341.43 123.89 
M 340.17 115.47 349.44 124.74 
M 348.94 117.08 355.52 123.66 
M 358.09 119.06 365.09 126.07 
M 368.18 122 377.74 131.55 
M 379.67 126.33 389.55 136.2 
M 392.32 131.82 401.88 141.38 
M 224.63 291.39 220.34 297.7 
M 224.63 291.39 225.14 297.7 
M 221.87 295.6 224.87 295.6 
M 230.93 294.39 230.51 293.8 230 293.5 229.1 293.5 228.41 293.8 227.63 294.39 227.06 295.3 226.88 295.89 226.91 296.8 227.33 297.39 227.84 297.7 228.74 297.7 229.43 297.39 230.21 296.8 
M 233.93 291.39 232.04 297.7 
M 232.94 294.7 234.11 293.8 234.8 293.5 235.7 293.5 236.21 293.8 236.24 294.7 235.34 297.7 
M 239.33 291.39 239.54 291.7 239.93 291.39 239.72 291.1 239.33 291.39 
M 239 293.5 237.74 297.7 
M 241.4 293.5 240.14 297.7 
M 240.86 295.3 241.43 294.39 242.21 293.8 242.9 293.5 243.8 293.5 
M 245.3 293.5 244.4 296.5 244.43 297.39 244.94 297.7 245.84 297.7 246.53 297.39 247.7 296.5 
M 248.6 293.5 247.34 297.7 
M 253.73 294.39 253.61 293.8 252.8 293.5 251.9 293.5 250.91 293.8 250.43 294.39 250.55 295 251.06 295.3 252.47 295.6 252.98 295.89 253.1 296.5 252.53 297.39 251.54 297.7 250.64 297.7 249.83 297.39 249.71 296.8 
M 261.83 294.39 261.71 293.8 260.89 293.5 260 293.5 259.01 293.8 258.52 294.39 258.64 295 259.15 295.3 260.57 295.6 261.08 295.89 261.11 296.8 260.63 297.39 259.64 297.7 258.74 297.7 257.93 297.39 257.81 296.8 
M 267.5 293.5 266.24 297.7 
M 267.23 294.39 266.81 293.8 266.3 293.5 265.39 293.5 264.71 293.8 263.93 294.39 263.36 295.3 263.18 295.89 263.21 296.8 263.63 297.39 264.14 297.7 265.03 297.7 265.73 297.39 266.51 296.8 
M 270.52 291.39 268.64 297.7 
M 272.93 291.39 271.04 297.7 
M 275.89 293.5 275.2 293.8 274.43 294.39 273.86 295.3 273.68 295.89 273.7 296.8 274.13 297.39 274.64 297.7 275.54 297.7 276.23 297.39 277.01 296.8 277.58 295.89 277.76 295.3 277.73 294.39 277.31 293.8 276.8 293.5 275.89 293.5 
M 280.39 293.5 279.14 297.7 
M 279.86 295.3 280.43 294.39 281.2 293.8 281.89 293.5 282.8 293.5 
M 284.63 291.39 284.83 291.7 285.23 291.39 285.02 291.1 284.63 291.39 
M 284.3 293.5 283.03 297.7 
M 290 293.5 288.74 297.7 
M 289.73 294.39 289.31 293.8 288.8 293.5 287.89 293.5 287.2 293.8 286.43 294.39 285.86 295.3 285.68 295.89 285.7 296.8 286.13 297.39 286.64 297.7 287.53 297.7 288.23 297.39 289.01 296.8 
M 291.56 295.3 295.15 295.3 295.33 294.7 295.22 294.1 294.5 293.5 293.6 293.5 292.9 293.8 292.13 294.39 291.56 295.3 291.38 295.89 291.4 296.8 291.83 297.39 292.33 297.7 293.24 297.7 293.93 297.39 294.7 296.8 
M 297.02 297.1 296.63 297.39 296.83 297.7 297.23 297.39 297.02 297.1 
"/></svg>
