<svg xmlns="http://www.w3.org/2000/svg" width="520" height="320"><rect x="0" y="0" width="520" height="320" fill="floralwhite"/><rect x="10" y="10" width="500" height="300" stroke="black" stroke-width="1" fill="none"/><path stroke="black" stroke-width="1" fill="none" stroke-linecap="round" stroke-linejoin="round" d="
M 122.45 121.33 143.6 114.94 164.75 107.06 175.32 103.53 185.89 100.88 196.46 99.8 207.04 99.12 217.61 98.82 228.18 98.91 238.75 99.77 249.32 101.07 259.89 102.88 270.47 104.95 281.04 106.46 291.61 109.02 312.75 116.27 333.9 124.74 344.47 128.68 355.04 132.88 365.61 137.24 376.18 141.91 386.75 146.83 
M 386.75 185.07 365.61 193.62 344.47 201.6 323.32 210.29 312.75 213.44 291.61 218.42 281.04 219.98 270.47 221.2 259.89 221.7 249.32 221.16 238.75 220.07 228.18 218.26 217.61 217.93 185.89 218.18 164.75 216.38 154.18 214.64 133.03 209.43 111.98 204.01 
M 386.75 161.12 383.13 160.36 375.87 159.17 368.35 158.17 337.51 155.87 330.18 155.04 326.62 154.57 312.62 151.74 294.93 149.03 284.37 147.76 273.92 147.33 270.54 146.96 265.56 146.13 
M 262.2 145.49 247.62 141.96 242.01 140.15 236.64 138.14 233.78 137.36 227.48 136.34 222.45 135.88 
M 219.02 135.71 212.04 135.72 
M 208.53 135.91 203.2 136.48 199.61 137.12 195.98 137.85 190.52 139.22 
M 183.21 141.26 179.58 142.47 
M 175.98 143.76 170.6 145.64 165.26 147.29 
M 147.18 151.11 136.75 153.29 
M 129.95 154.59 128.07 154.92 
M 128.13 158.21 128.62 159.23 
M 127.93 145.55 133.53 157.12 
M 127.54 134.48 129.92 138.28 131.88 141.84 138.54 154.97 
M 123.63 120.97 131.54 131.4 133.78 134.78 143.64 152.79 
M 128.48 119.48 135.41 128.15 137.7 131.42 139.69 134.68 142.36 139.6 
M 144.23 142.98 148.71 150.61 
M 196.26 207.47 197.51 208.58 
M 133.34 117.99 139.13 124.98 141.48 128.13 143.5 131.27 149.14 141.1 153.72 148.47 
M 203.26 208.1 205.72 210.45 
M 138.08 116.58 142.51 121.84 147.05 127.95 156.41 142.97 
M 158.7 146.46 159.63 147.86 
M 142.59 115.24 148.02 121.71 152.64 127.78 161.4 141.17 165.67 147.34 
M 210.96 203.62 212.87 205.76 
M 146.81 113.73 153.61 121.55 158.37 127.59 167.45 140.75 171.74 146.51 
M 151.09 112.12 156.78 118.37 164.23 127.32 171.12 136.81 177.29 144.74 
M 217.72 198.4 220.2 201.48 
M 155.51 110.47 159.98 115.18 165.19 121.08 171.1 128.29 
M 173.4 131.3 183.45 143.65 
M 215.87 188.29 219.21 192.96 
M 160.02 108.8 165.87 114.9 174.25 124.62 
M 179.1 130.39 188.98 141.84 
M 217.85 182.53 223.22 190.57 
M 225.43 193.91 230.04 200.41 
M 237.7 209.22 240.3 211.72 
M 164.49 107.15 171.64 114.5 178.51 122.36 189.57 134.3 192.47 137.6 200.51 147.66 
M 213.75 166.82 220.46 177.52 
M 222.77 181.08 227.19 188.08 
M 229.32 191.51 233.84 198.18 
M 169.04 105.63 175.04 111.44 181.87 118.91 193.15 130.29 196.07 133.53 200.14 138.61 
M 202.78 142.06 206.66 147.27 211.61 154.31 213.95 157.9 219.48 167.06 
M 221.76 170.75 228.8 181.81 
M 233.08 188.98 236.39 194.2 238.83 197.49 242.73 202.11 
M 252.42 212.44 254.64 214.47 
M 173.59 104.11 178.72 108.69 188.15 118.13 197 126.4 201.21 131.24 
M 206.34 138.2 215.14 150.85 225 167.44 
M 234.4 182.64 236.55 186.37 
M 243.64 196.64 246.24 199.68 
M 255.72 210.28 257.92 212.47 
M 178.27 102.79 182.56 106.2 192.27 114.93 198.11 119.94 201.09 122.76 203.88 125.83 205.15 127.48 
M 207.6 130.89 218.69 147.43 220.9 151.08 226.95 162.18 234.11 173.8 237.56 179.73 
M 239.72 183.61 243.06 189.15 244.29 190.84 
M 246.82 194.07 254.42 202.67 
M 256.79 205.31 261.35 210.15 
M 183.08 101.58 188.85 105.77 202.21 116.72 205.12 119.43 207.81 122.4 211.38 127.38 
M 213.67 130.95 222.27 144.04 224.48 147.77 230.19 158.89 236.03 168.6 
M 240.71 176.65 244.99 184.42 
M 255.01 197.15 257.6 199.88 
M 260.12 202.52 262.57 205.08 
M 188.28 100.63 192.55 103.43 201.66 110.29 
M 204.54 112.6 208.81 116.44 211.41 119.33 213.81 122.51 226.88 142.61 
M 229.02 146.4 232.76 153.88 
M 237.07 161.49 239.51 165.39 
M 241.89 169.37 249.27 183.02 251.59 186.53 255.38 191.29 
M 263.4 199.63 266.02 202.22 
M 194 100.05 198.52 102.95 206.56 108.85 209.39 111.2 212.13 113.8 214.69 116.66 217.07 119.8 229 137.52 231.34 141.32 237.15 152.73 238.27 154.62 
M 240.62 158.42 244.35 164.15 247.68 169.96 
M 249.67 173.82 253.72 181.29 
M 274.67 204.46 277 207 
M 199.75 99.59 204.47 102.61 209.86 106.59 212.63 108.89 215.31 111.44 217.82 114.28 220.16 117.39 232.08 134.59 234.34 138.27 237.3 144.01 
M 239.22 147.83 240.2 149.73 243.8 155.35 
M 246.42 159.08 250.11 164.62 251.16 166.49 
M 253.2 170.25 255.17 174.03 
M 257.17 177.71 259.29 181.24 
M 261.62 184.62 264.18 187.82 
M 272.73 196.36 275.5 199.03 
M 205.45 99.22 210.53 102.56 213.25 104.55 215.96 106.76 218.58 109.25 221.02 112.04 223.3 115.1 229 123.32 
M 231.43 126.66 235.03 131.73 237.2 135.3 242.92 146.67 245.21 150.38 246.54 152.22 
M 249.25 155.85 251.93 159.47 
M 256.63 166.83 260.73 174.19 
M 262.8 177.71 266.19 182.76 268.77 186.03 271.58 189.11 275.99 193.4 
M 283.63 201.75 285.88 204.5 
M 211.2 99 216.8 102.65 219.47 104.76 222.02 107.15 224.41 109.85 238.04 128.75 240.15 132.2 242.97 137.82 
M 244.81 141.63 245.75 143.53 247.94 147.18 251.92 152.6 
M 254.71 156.22 258.71 161.71 262.19 167.21 
M 264.34 170.79 268.64 177.64 
M 271.01 180.94 272.26 182.59 276.52 187.35 
M 282.2 193.27 284.7 196.17 
M 287 199.06 291.57 204.69 
M 217.14 98.83 220.45 100.9 223.07 102.88 225.56 105.16 227.89 107.73 230.09 110.56 234.39 116.59 241.19 125.61 243.31 128.93 248.97 140.21 251.06 143.92 253.45 147.53 257.54 152.97 
M 260.33 156.62 263.02 160.28 
M 270.18 170.88 272.43 174.22 
M 277.41 180.76 283.15 187.16 
M 285.89 190.24 288.36 193.27 
M 292.86 199.22 295.16 202.06 
M 297.56 204.78 300.01 207.35 
M 223.25 98.87 226.61 101.2 229.03 103.33 231.3 105.74 244.36 122.52 246.55 125.67 248.58 129.16 254.48 140.59 256.74 144.28 260.58 149.68 
M 263.32 153.3 270.12 162.27 278.71 173.99 
M 284.05 180.58 289.66 187.1 
M 294.41 193.39 296.6 196.42 
M 228.85 98.96 232.3 101.71 234.53 103.91 236.67 106.31 247.46 119.67 249.72 122.7 252.87 127.82 
M 256.9 135.33 260.19 140.99 262.57 144.6 266.43 149.92 
M 269.15 153.47 278.75 165.44 287.78 177.13 
M 290.49 180.54 293.19 183.92 
M 300.24 193.6 302.44 196.54 
M 304.7 199.32 307.02 202 
M 234.28 99.4 237.57 102.26 239.7 104.44 246.11 111.72 250.55 117.1 254.92 123.23 263.53 137.67 267.12 143.05 
M 269.59 146.54 273.61 151.71 282.25 161.74 286.19 166.73 
M 291.34 173.65 296.47 180.73 
M 301.38 187.62 303.63 190.84 
M 312.53 202.06 314.69 204.77 
M 239.38 99.84 242.65 102.76 244.8 104.9 249.21 109.55 252.49 113.43 
M 254.64 116.22 256.78 119.2 
M 258.93 122.34 261.08 125.65 
M 265.53 132.61 269.08 137.94 274.07 144.85 276.75 148.2 281.11 153.19 
M 286.97 159.78 289.69 163.15 
M 294.76 170.21 299.66 177.5 
M 311.28 194.12 313.49 196.85 
M 244.73 100.51 250.08 105.29 254.41 110.02 260.77 118.36 268.6 129.47 
M 270.98 132.88 273.46 136.34 
M 276.02 139.76 282.78 148.06 287.2 153.01 
M 290.16 156.34 293 159.74 
M 302.76 174.15 309.99 185.27 
M 312.27 188.55 314.52 191.55 
M 250.47 101.27 253.11 103.62 257.32 108.14 267.09 120.33 
M 269.38 123.31 277.87 134.85 290.28 149.67 
M 293.21 153.03 297.46 158.1 299.97 161.55 308.3 174.53 
M 310.84 178.42 317.94 188.82 
M 320.11 191.76 322.24 194.57 
M 256.1 102.23 260.21 106.38 269.03 116.31 273.69 122.11 281.02 131.85 296.3 149.71 
M 299.12 153.07 301.77 156.46 
M 304.21 159.91 306.56 163.45 
M 314.21 174.92 316.81 178.79 
M 323.77 188.96 325.91 191.92 
M 328.04 194.8 330.22 197.67 
M 261.5 103.2 267.54 109.02 272.13 113.83 276.86 119.47 284.23 128.97 286.88 132.09 295.34 141.36 299.59 146.32 
M 302.38 149.7 306.32 154.81 312.43 163.72 
M 315.06 167.47 320.36 175.21 
M 329.83 189.11 332 192.15 
M 267.74 104.42 272.91 109.04 277.61 113.93 288.88 127.57 
M 291.55 130.56 301.51 141.17 305.78 146.22 
M 308.51 149.68 318.66 164.01 
M 323.92 171.53 329.12 179.14 
M 333.89 186.17 336.14 189.4 
M 340.82 195.49 342.68 197.7 
M 274.56 105.53 278.35 108.89 280.76 111.3 293.67 125.89 301.96 134.56 306.24 139.28 
M 309.11 142.64 313.33 147.92 315.97 151.54 330.16 171.67 
M 337.94 183 342.71 189.56 
M 345.17 192.68 347.45 195.43 
M 281.67 106.62 286.55 111.23 306.71 132.53 
M 309.49 135.66 316.57 144.31 323.29 153.59 
M 328.47 160.67 333.78 167.99 
M 336.5 171.85 341.92 179.48 
M 289.91 108.61 306.11 124.58 311.35 130.46 315.43 135.34 
M 318.22 138.85 323.88 146.4 
M 326.66 150.18 332.07 157.29 
M 337.48 164.4 340.28 168.19 
M 343.13 172.04 345.93 175.8 
M 348.62 179.37 356.37 189.6 
M 299.32 111.62 307.04 118.68 312.09 123.99 319.91 133.41 326.96 142.72 
M 332.8 150.36 335.66 153.92 
M 338.48 157.39 341.33 160.92 
M 347.14 168.39 349.99 172.12 
M 352.72 175.7 360.51 186.21 
M 309.98 115.3 313.01 118.15 317.96 123.52 323.12 129.8 327.24 135.15 
M 333.11 142.8 336.18 146.65 
M 339.24 150.34 348.22 161.03 
M 354.03 168.41 356.77 171.99 
M 320.49 119.38 326.49 126.29 338.01 140.76 342.8 146.46 
M 345.96 150.12 349.07 153.7 
M 360.63 168.12 365.78 175.39 
M 330.36 123.33 336.99 131.25 
M 339.99 134.86 343.13 138.6 
M 346.35 142.39 354.31 151.58 361.6 160.53 
M 340.38 127.16 356.3 145.78 
M 359.35 149.4 365.22 156.57 
M 368.11 160.26 372.35 165.97 374.91 169.86 378.16 175.86 
M 351 131.27 368.71 152.6 
M 371.67 156.34 374.62 160.22 
M 361.09 135.38 373.49 150.4 380.94 160.24 
M 371.15 139.69 379.64 150.2 384.12 156.24 
M 381.01 144.16 386.23 151.05 
M 126.37 120.13 123.81 123.2 
M 134.97 117.51 126.41 127.87 
M 142.47 115.28 137.78 121.85 131.32 129.74 
M 128.65 133.06 127.54 134.48 
M 149.62 112.67 141.41 124.97 133.38 134.78 127.96 141.76 
M 157.19 109.85 144.66 128.04 133.59 141.79 127.73 149.76 
M 165.23 106.9 161.15 112.15 150.2 127.85 139.27 141.53 135.07 147.3 
M 132.25 151.33 128.17 157.19 
M 174.62 103.77 171.68 106.41 169.3 109.01 167.05 111.88 158.22 124.46 152.01 132.64 
M 149.26 135.99 144.99 141.16 142.19 144.88 138.03 150.95 
M 184.34 101.27 177.99 106.34 175.4 108.82 172.95 111.57 170.68 114.58 166.36 121.01 159.18 130.83 148.13 144.64 143.93 150.43 
M 191.38 100.32 187 103.85 181.62 108.53 178.93 111.17 176.4 114.05 174.07 117.16 167.54 127.08 162.51 134.11 150.17 149.99 
M 197.55 99.73 193.14 103.38 185.09 110.65 182.31 113.42 179.69 116.41 177.32 119.6 170.84 129.97 164.55 139.24 
M 161.9 142.9 159.17 146.47 
M 203.53 99.34 201.41 100.94 196.73 105.08 188.6 112.75 185.74 115.66 183.06 118.74 180.67 122.01 177.44 127.29 
M 175.29 131 170.54 138.64 
M 167.96 142.44 164.32 147.48 
M 209.92 99.04 207.37 100.76 205.05 102.6 199.21 108.14 
M 196.61 110.71 189.49 117.97 186.8 121.19 184.37 124.59 182.15 128.19 176.58 137.79 
M 174.1 141.68 170.6 146.69 
M 216.61 98.84 213.55 100.78 208.83 104.5 204.37 108.93 193.66 120.39 190.94 123.79 188.44 127.38 181.61 138.86 177.28 145.34 
M 223.14 98.86 219.91 100.89 217.42 102.66 212.7 106.64 210.51 108.83 198.01 123.03 195.26 126.59 192.7 130.34 189.15 136.16 
M 229.45 99.01 223.67 102.92 218.79 106.92 216.5 109.09 212.22 113.8 204.98 122.51 200.81 127.78 
M 198.14 131.53 192.16 140.93 
M 235 99.46 231.83 101.67 227.22 105.3 222.37 109.62 220.07 111.92 217.91 114.3 213.64 119.45 204.64 131.01 
M 202 134.79 197 142.55 
M 240.17 99.94 235.05 103.96 230.53 108.04 225.7 112.69 221.22 117.58 216.98 122.83 209.5 132.64 206.91 136.33 200.78 145.79 
M 245.07 100.55 242.22 102.72 238.13 106.45 233.68 110.96 226.6 118.53 222.38 123.67 214.26 134.58 
M 211.77 138.16 203.95 149.89 
M 250 101.19 247.39 103.15 245.31 104.94 241.17 109.02 234.47 116.59 226.76 125.98 
M 224.69 128.76 219.06 136.6 206.76 154.49 
M 254.72 102 252.67 103.58 248.48 107.27 244.26 111.63 241.02 115.44 
M 238.81 118.19 231.28 128.17 223.85 138.76 
M 216.58 149.12 211.67 156.09 
M 259.42 102.8 257.7 104.15 253.71 107.72 249.56 111.93 246.36 115.56 
M 244.23 118.22 242.08 121.07 
M 239.92 124.06 231.68 136.21 
M 229.58 139.36 227.32 142.66 
M 224.89 146.02 218.62 154.49 211.29 165.03 
M 263.94 103.67 258.72 108.31 254.75 112.43 250.63 117.11 245.32 124.08 
M 243.11 127.26 236.8 136.94 
M 234.84 140.09 230.44 146.57 
M 227.92 149.84 224.09 154.81 217.08 165.16 213.23 170.19 
M 268.39 104.54 265.81 106.83 261.76 110.91 257.79 115.32 253.77 120.18 249.57 125.83 244.89 132.53 239.59 140.88 
M 237.64 144.08 234.48 148.85 228.22 156.94 
M 223.67 163.73 220.32 168.88 216.45 173.82 
M 272.83 105.29 269.05 109.05 264.88 113.58 257.87 122.19 
M 255.84 124.93 245.34 139.91 239.47 149.61 237.34 152.76 231.23 160.79 
M 226.93 167.59 223.72 172.68 221.25 175.91 219.87 177.46 
M 277.34 105.93 274.43 109.01 268.12 116.28 261.96 124.21 248.26 143.73 246.21 147.04 242.69 153.51 239.45 158.27 
M 237.02 161.49 233.45 166.44 232.41 168.13 
M 228.28 174.87 227.2 176.52 224.73 179.65 220.5 184.02 
M 217.57 186.79 215.88 188.35 
M 199.44 205.82 199.4 205.88 
M 281.91 106.67 277.78 111.34 271.43 119.11 267.19 124.68 264.08 129.18 
M 261.97 132.33 254.98 142.41 
M 252.68 145.76 250.65 149.08 
M 247.2 155.7 246.33 157.35 244.27 160.61 238.17 168.87 
M 235.93 172.23 232.79 177.19 230.58 180.36 229.33 181.87 
M 218.14 192.8 215.39 195.31 
M 212.75 197.8 211.53 198.97 
M 286.52 107.79 283.42 111.26 273.71 123.6 
M 271.57 126.46 263.05 139.4 
M 260.74 142.77 257.29 147.77 255.28 151.1 249.98 161.09 248.88 162.78 
M 246.55 166.18 240.37 174.75 236.04 181.22 232.52 185.65 
M 291.44 108.98 289.35 111.21 287.06 113.99 276.03 128.35 273.92 131.37 267.6 141.35 263.15 148.07 261.06 151.44 256.37 159.79 
M 254.36 163.13 252.12 166.54 
M 249.69 170.09 238.02 186.65 
M 235.68 189.44 231.81 193.44 227.76 197.21 
M 225.12 199.59 222.55 201.87 
M 217.46 206.27 212.45 210.64 
M 296.29 110.6 293.17 113.94 290.83 116.88 281.71 128.82 278.53 133.29 
M 276.44 136.46 268.95 148.24 261.95 160.21 
M 259.86 163.55 257.6 166.91 
M 252.66 173.96 243.39 187.57 
M 228.68 202.9 226.15 205.08 
M 301.1 112.22 297.06 116.67 294.66 119.73 287.58 129.08 283.3 135.05 274.77 148.24 267.68 160.48 
M 265.51 163.9 254.41 179.52 246.81 191.1 
M 244.78 193.9 242.58 196.54 
M 240.17 199.08 237.59 201.53 
M 232.31 206.07 229.68 208.13 
M 305.66 113.8 300.94 119.25 291.39 132.09 282.92 144.7 277.72 153.33 
M 275.69 156.89 272.51 162.25 268.95 167.46 
M 266.42 170.87 262.51 175.99 258.79 181.27 
M 256.5 184.78 254.37 188.16 
M 248.44 197.04 245.18 200.98 241.4 204.66 
M 310.02 115.32 304.74 121.74 299.89 128.4 295.34 135.01 286.82 148 279.67 160.17 
M 274.94 167.36 272.34 170.85 
M 269.66 174.27 264.5 181.13 
M 260 188 256.01 194.26 
M 314.21 116.85 310.77 121.11 308.43 124.33 303.79 131.16 296.09 143 
M 293.92 146.35 284.73 161.59 278.5 170.6 
M 273.07 177.55 270.46 180.96 
M 268.04 184.38 261.73 194.05 
M 318.33 118.52 314.33 123.8 312.07 127.14 296.84 151.39 290.82 161.41 287.27 166.68 
M 284.77 170.27 274.26 184.19 
M 271.9 187.51 269.73 190.69 
M 267.66 193.75 263.47 199.62 
M 252.04 212.43 249.82 214.27 
M 322.58 120.23 320.21 123.38 315.76 130.15 306.25 146.2 
M 301.78 153.08 297.68 159.81 
M 295.58 163.21 289.76 171.88 283.44 180.59 
M 280.88 183.98 271.68 196.4 
M 327.05 122.01 323.86 126.39 321.63 129.86 313.48 144.31 311.3 147.92 305.39 156.5 
M 303.19 159.89 297.92 168.51 293.45 175.44 288.74 182.21 285.01 187.12 
M 270.89 204.63 265.71 209.96 
M 331.72 123.87 327.64 129.67 325.43 133.3 317.37 147.99 315.06 151.52 307.63 161.73 304.39 166.92 
M 300.24 173.97 297.05 179.06 292.65 185.54 290.17 188.69 286.24 193.24 
M 274.43 207.07 271.75 209.68 
M 336.56 125.73 331.58 133.22 329.37 137 323.31 148.23 321.11 151.74 311.16 165.41 308.89 168.94 302.65 179.5 299.53 184.27 
M 297.33 187.34 294.91 190.36 
M 287.1 199.05 282.48 204.41 
M 341.54 127.59 335.69 136.93 329.31 148.49 327.13 152 314.96 169.31 306.08 183.28 303.98 186.32 300.64 190.66 
M 298.18 193.54 295.58 196.4 
M 292.94 199.22 287.99 204.57 
M 283.35 209.5 280.89 211.84 
M 346.64 129.54 342.32 136.67 335.57 148.57 333.3 152.17 323.59 165.93 317.57 175.1 
M 312.83 182.14 310.54 185.32 
M 308.32 188.27 303.85 193.79 
M 301.43 196.54 296.34 202.08 
M 351.9 131.63 342.15 148.42 339.76 152.16 332.31 162.47 328.6 167.87 
M 326.16 171.58 323.72 175.31 
M 321.25 178.95 317.51 184.12 311.57 191.41 
M 304.76 199.34 302.32 202.06 
M 357.26 133.8 348.93 148.09 346.51 151.96 343.98 155.64 336.15 166.17 332.43 171.72 
M 319.57 188.86 317.11 191.66 
M 314.8 194.28 310.39 199.38 
M 362.55 135.98 353.31 151.63 349.54 157.34 
M 346.9 160.99 340.15 170.06 333.7 179.28 
M 320.29 194.49 317.95 197.04 
M 309.14 207.24 307.32 209.2 
M 367.62 138.13 359.89 151.26 355.09 159.05 352.49 162.85 342.87 175.82 
M 334.49 186.19 328.7 192 
M 325.97 194.7 323.42 197.29 
M 372.4 140.24 364 154.74 356.59 166.5 351.07 173.95 343.91 183 
M 340.95 186.37 334.92 192.3 
M 326.6 200.16 321.94 205.18 
M 377.08 142.32 374.64 146.53 370.41 154.42 366.86 160.27 
M 364.34 164.16 360.47 169.98 356.38 175.59 
M 353.52 179.22 347.61 186.26 
M 381.8 144.53 380.73 146.35 374.57 158.24 372.19 162.14 369.62 165.96 364.24 173.51 358.76 180.83 351.39 189.51 
M 386.7 146.8 384.8 150.26 380.86 158.24 378.65 162.21 376.17 166.03 372.02 171.71 
M 366.52 179.11 363.86 182.69 
M 386.75 158.57 384.79 162.25 382.46 166.1 379.77 169.96 369.96 183.15 
M 386.75 168.69 375.83 183.67 
M 386.75 177.04 381.99 183.6 
M 152.61 111.12 154.18 110.96 
M 164.94 106.59 163.4 70.61 164.27 70.54 168.04 105.96 
M 177.48 102.58 179.12 55.44 180 55.45 180.63 102.2 
M 190.42 100.06 198.02 47.41 198.89 47.52 193.58 100.09 
M 203.52 98.94 216.08 41.41 216.94 41.58 206.69 99.14 
M 216.66 98.43 232.64 39.81 233.48 40.02 219.81 98.84 
M 229.82 98.68 249.86 40.48 250.69 40.75 232.92 99.29 
M 242.92 99.88 267.24 41.39 268.06 41.71 245.99 100.66 
M 255.92 101.8 282.02 46.31 282.82 46.66 258.96 102.72 
M 268.82 104.26 293.61 52.23 294.4 52.59 271.87 105.15 
M 281.81 106.28 304.31 63.92 305.1 64.32 284.78 107.37 
M 294.54 109.64 313.58 80.77 314.33 81.23 297.4 110.98 
M 307 113.83 323.33 92.03 324.05 92.53 309.83 115.25 
M 322.04 119.61 323.33 120.53 
M 154.79 110.73 157.78 103.01 159.14 99.03 160.32 95 161.31 90.92 162.68 82.62 163.55 74.21 
M 164.65 74.12 168.62 71.82 172.22 69.15 173.81 67.59 175.25 65.89 176.57 64.06 178.96 60.15 
M 180.06 60.16 184.33 59.53 188.39 58.42 190.3 57.59 192.13 56.56 193.89 55.37 197.26 52.68 
M 198.35 52.81 202.38 52.62 204.34 52.36 206.23 51.93 208.06 51.31 211.53 49.48 214.82 47.16 
M 215.9 47.38 219.39 48.12 222.82 48.33 224.51 48.14 226.16 47.75 227.8 47.17 231.04 45.67 
M 232.11 45.94 235.58 47.14 239.07 47.82 240.82 47.86 242.57 47.69 244.33 47.34 247.86 46.3 
M 248.9 46.64 252.4 47.9 255.91 48.63 257.68 48.7 259.45 48.56 261.23 48.23 264.81 47.24 
M 265.84 47.65 268.52 49.66 271.36 51.16 272.87 51.63 274.43 51.9 276.06 52 279.41 51.86 
M 280.41 52.31 282.31 54.46 283.33 55.38 284.43 56.14 285.62 56.71 288.26 57.31 291.13 57.44 
M 292.13 57.89 293.53 60.96 294.35 62.37 295.31 63.65 296.41 64.79 299.05 66.66 302.06 68.16 
M 303.05 68.66 303.99 72.55 304.61 74.41 305.39 76.18 306.35 77.85 308.79 80.88 311.68 83.66 
M 312.62 84.23 313.8 87.21 314.52 88.58 315.38 89.83 316.39 90.94 318.85 92.75 321.7 94.21 
M 322.61 94.84 321.54 100.49 321 106.13 321.03 108.95 321.27 111.77 321.69 114.58 322.88 120.21 
M 166.66 73 170.48 70.55 172.22 69.15 173.81 67.59 175.25 65.89 177.79 62.13 
M 167.73 78.52 170.88 76.5 172.32 75.34 174.82 72.65 176.91 69.55 
M 168.8 84.04 171.29 82.44 172.42 81.53 174.39 79.42 176.04 76.97 
M 169.88 89.55 172.52 87.72 173.96 86.18 175.16 84.39 
M 182.21 59.88 186.4 59.06 188.39 58.42 190.3 57.59 192.13 56.56 195.59 54.06 
M 182.68 65.7 186.28 64.99 187.99 64.44 191.21 62.84 194.18 60.69 
M 183.14 71.51 186.15 70.92 187.59 70.46 190.28 69.12 192.77 67.32 
M 183.6 77.33 187.19 76.48 189.35 75.41 191.36 73.95 
M 184.06 83.15 186.78 82.5 188.43 81.69 189.95 80.58 
M 200.38 52.75 204.34 52.36 206.23 51.93 208.06 51.31 209.82 50.48 213.19 48.36 
M 200.16 58.23 203.66 57.89 205.33 57.51 208.51 56.23 211.48 54.35 
M 199.95 63.72 202.98 63.42 205.84 62.61 207.19 61.98 209.77 60.35 
M 199.73 69.2 202.3 68.95 204.72 68.26 205.87 67.73 208.05 66.35 
M 199.51 74.68 202.64 74.25 204.55 73.47 206.34 72.34 
M 199.3 80.17 201.74 79.83 203.23 79.22 204.63 78.34 
M 217.65 47.78 221.12 48.32 222.82 48.33 224.51 48.14 226.16 47.75 229.42 46.45 
M 216.95 53.76 220.01 54.23 223 54.08 224.47 53.73 227.35 52.59 
M 216.25 59.74 218.9 60.15 220.21 60.16 222.77 59.71 225.27 58.72 
M 215.55 65.72 217.8 66.07 218.91 66.08 221.08 65.7 223.2 64.86 
M 214.84 71.7 216.69 71.98 218.5 71.89 221.12 70.99 
M 214.14 77.68 216.29 77.91 217.69 77.66 219.04 77.13 
M 233.84 46.58 237.32 47.57 239.07 47.82 240.82 47.86 242.57 47.69 246.09 46.86 
M 232.78 52.69 235.86 53.57 237.4 53.79 240.49 53.68 243.6 52.94 
M 231.72 58.81 234.39 59.57 237.07 59.79 238.41 59.66 241.11 59.02 
M 230.66 64.92 232.92 65.57 234.06 65.73 236.34 65.65 238.62 65.1 
M 229.6 71.04 232.39 71.7 234.26 71.63 236.13 71.19 
M 228.54 77.15 229.99 77.57 231.45 77.69 233.65 77.27 
M 250.65 47.3 254.15 48.35 255.91 48.63 257.68 48.7 259.45 48.56 263.02 47.77 
M 249.37 52.56 252.52 53.5 254.1 53.75 257.29 53.68 260.5 52.98 
M 248.09 57.81 250.89 58.65 252.3 58.87 255.13 58.81 257.99 58.18 
M 246.81 63.06 249.26 63.79 250.49 63.98 252.97 63.93 255.47 63.38 
M 245.53 68.31 248.69 69.1 250.81 69.06 252.95 68.59 
M 244.25 73.56 246 74.08 247.76 74.25 250.44 73.79 
M 242.97 78.81 244.37 79.23 245.78 79.37 247.92 79 
M 267.17 48.69 269.91 50.5 271.36 51.16 272.87 51.63 274.43 51.9 277.72 51.96 
M 265.54 53.96 268.01 55.59 269.31 56.19 272.08 56.86 275.04 56.91 
M 263.91 59.24 266.1 60.69 267.26 61.22 269.72 61.81 272.35 61.86 
M 262.28 64.52 264.2 65.79 265.21 66.25 267.37 66.77 269.67 66.81 
M 260.65 69.79 263.16 71.28 265.01 71.72 266.98 71.76 
M 259.02 75.07 261.11 76.31 262.65 76.68 264.3 76.71 
M 257.39 80.35 259.07 81.34 260.3 81.63 261.61 81.66 
M 281.35 53.42 283.33 55.38 284.43 56.14 285.62 56.71 286.9 57.09 289.68 57.41 
M 279.3 59.28 281.05 61.02 283.08 62.19 284.21 62.53 286.66 62.8 
M 277.25 65.14 278.78 66.65 280.53 67.67 281.51 67.96 283.64 68.2 
M 275.21 71.01 276.5 72.29 277.99 73.15 278.82 73.4 280.62 73.6 
M 273.16 76.87 274.81 78.33 276.13 78.83 277.61 79 
M 271.12 82.74 272.4 83.87 273.43 84.27 274.59 84.4 
M 292.81 59.45 294.35 62.37 295.31 63.65 296.41 64.79 297.66 65.79 300.53 67.44 
M 290.56 65.96 291.89 68.47 292.71 69.58 294.73 71.41 297.2 72.83 
M 288.31 72.47 289.42 74.57 290.11 75.5 291.81 77.04 293.87 78.22 
M 286.06 78.98 287.51 81.42 288.88 82.66 290.54 83.61 
M 283.81 85.49 284.49 86.77 285.4 87.84 287.21 89 
M 303.49 70.62 304.61 74.41 305.39 76.18 306.35 77.85 307.49 79.41 310.2 82.29 
M 300.24 79.51 301.1 82.42 302.43 85.05 303.3 86.25 305.38 88.46 
M 296.99 88.4 297.58 90.42 298.51 92.26 300.57 94.63 
M 313.19 85.74 314.52 88.58 315.38 89.83 316.39 90.94 317.55 91.91 320.24 93.51 
M 310.6 92.01 311.62 94.18 313.05 95.99 313.94 96.73 316.01 97.96 
M 308.01 98.27 309.18 100.45 310.34 101.56 311.77 102.41 
M 128.15 157.85 157.94 145.51 158.29 146.31 127.92 160.84 
M 127.81 162.23 200.26 138.03 200.55 138.86 127.49 165.43 
M 127.39 166.64 212.76 145.75 212.98 146.6 127.22 169.74 
M 127.08 170.93 222.68 155.78 222.83 156.64 126.19 174.11 
M 125.84 175.21 223.57 168.02 223.64 168.9 124.65 178.34 
M 124.33 179.25 229.89 180.29 229.89 181.16 123.58 182.31 
M 123.39 183.09 227.39 192.88 227.32 193.75 122.54 186.1 
M 122.36 186.75 221.29 204.56 221.15 205.42 121.03 189.67 
M 120.81 190.09 201.11 211.83 200.9 212.68 119.43 192.96 
M 119.7 193.29 189.09 218.63 188.8 219.46 118.66 196.27 
M 119.82 197.9 158.31 216.27 157.95 217.07 118.54 200.78 
M 154.45 148.15 163.03 147.61 171.51 146.56 175.7 145.74 179.84 144.71 183.95 143.51 192.1 140.76 
M 192.46 141.8 194.32 144.16 196.45 146.07 197.66 146.77 198.98 147.28 200.38 147.64 203.36 148.05 
M 203.64 149.12 204.79 151.77 206.3 154.05 207.26 154.97 208.37 155.75 209.6 156.39 212.31 157.42 
M 212.49 158.51 211.51 160.86 211.19 162.03 211.05 163.18 211.12 164.33 211.86 166.57 213.12 168.79 
M 213.21 169.89 213.47 172.72 213.75 174.05 214.19 175.29 214.81 176.43 216.59 178.43 218.82 180.18 
M 218.82 181.28 217.22 183.4 216.59 184.5 216.14 185.63 215.89 186.8 215.98 189.28 216.58 191.86 
M 216.49 192.96 214.31 194.59 212.59 196.47 211.99 197.55 211.57 198.74 211.32 200.01 211.11 202.73 
M 210.92 203.81 206.59 204.03 202.41 204.75 200.41 205.4 198.48 206.24 196.61 207.26 192.96 209.62 
M 192.69 210.69 189.83 210.89 188.48 211.14 187.22 211.56 186.05 212.16 183.98 213.89 182.15 216.1 
M 181.79 217.14 175.83 215.42 169.81 214.22 166.78 213.92 163.72 213.82 160.64 213.91 154.46 214.43 
M 158.75 147.92 167.29 147.18 171.51 146.56 175.7 145.74 179.84 144.71 188.03 142.17 
M 193.37 143.01 195.34 145.2 196.45 146.07 197.66 146.77 198.98 147.28 201.85 147.87 
M 167.41 151.94 168.68 153.36 169.4 153.93 171.05 154.72 172.92 155.1 
M 204.19 150.47 205.48 152.98 206.3 154.05 207.26 154.97 208.37 155.75 210.93 156.93 
M 184.35 155.5 185.34 157.42 185.97 158.25 187.56 159.55 189.52 160.45 
M 164.52 160.53 165.64 162.44 166.75 163.34 168.11 163.97 
M 211.96 159.69 211.19 162.03 211.05 163.18 211.12 164.33 211.4 165.46 212.45 167.69 
M 190.31 163.38 189.72 165.18 189.67 166.94 189.88 167.81 190.69 169.51 
M 168.66 167.08 168.18 168.94 168.36 170.16 168.92 171.34 
M 213.31 171.32 213.75 174.05 214.19 175.29 214.81 176.43 215.62 177.48 217.67 179.32 
M 191.34 173.12 191.68 175.21 192.02 176.16 193.12 177.84 194.69 179.25 
M 169.38 174.92 169.85 177.03 170.61 178.2 171.71 179.19 
M 217.99 182.33 216.59 184.5 216.14 185.63 215.89 186.8 215.85 188.02 216.25 190.56 
M 194.93 182.38 193.86 184.04 193.52 184.9 193.29 186.74 193.6 188.69 
M 171.88 182.43 170.89 184.18 170.73 185.46 170.95 186.81 
M 215.37 193.76 213.37 195.48 212.59 196.47 211.99 197.55 211.57 198.74 211.18 201.35 
M 192.92 191.95 191.39 193.28 190.33 194.86 190.02 195.77 189.71 197.78 
M 170.48 190.15 169.41 191.07 168.68 192.18 168.25 194.2 
M 208.74 203.89 204.47 204.31 202.41 204.75 200.41 205.4 198.48 206.24 194.77 208.41 
M 177.4 198.86 174.62 199.14 173.28 199.43 170.73 200.39 168.31 201.8 
M 191.24 210.76 188.48 211.14 187.22 211.56 186.05 212.16 184.97 212.94 183.05 214.96 
M 166.02 204.55 164.23 204.8 163.4 205.07 161.94 205.98 160.69 207.29 
M 178.81 216.24 172.83 214.73 169.81 214.22 166.78 213.92 163.72 213.82 157.56 214.13 
M 185.89 218.18 192.06 224.87 195.64 229.97 213.25 257.25 212.08 259.78 209.41 260.82 206.9 265.71 205.3 267.82 203.98 270.18 202.09 268.53 201.19 267.26 187.97 251.69 173.29 228.56 170.83 226.02 168.49 222.77 164.75 216.38 
M 181.53 217.82 184.01 220.76 186.13 223.75 188.13 225.85 189.85 228.65 193.43 232.75 197.95 240.43 202.48 244.85 203.73 247.9 205.07 250.12 207.32 251.03 209.6 252.95 
M 177.17 217.46 179.45 220.93 183.51 226.08 186.6 230.75 188.79 232.86 190.08 235.4 190.49 237.73 193.94 243.48 196.18 245.94 198.81 248.39 199.59 250.39 201.19 252.53 202.98 253.31 
M 172.81 217.09 174.84 220.75 176.67 223.24 178.29 225.86 185.15 235.17 186.44 238.23 191.98 249.16 193.49 250.87 193.59 253.18 194.7 254.16 196.61 256.34 198.66 258.19 
M 168.45 216.7 176.56 231.5 178.66 234.04 179.68 236.8 180.91 239.33 183.15 242.62 183.83 245.29 184.78 247.15 
M 345.63 200.53 351.9 209.04 351.26 209.63 343.31 202.67 
M 333.5 205.56 355.47 231.16 354.83 231.76 331.18 207.69 
M 321.26 210.26 345.35 240.88 344.68 241.44 318.85 212.28 
M 308.65 213.79 332.28 247.04 331.58 247.56 306.13 215.68 
M 295.9 216.83 316.95 248.95 316.23 249.45 293.32 218.63 
M 282.99 219.04 296.59 242.44 295.85 242.91 280.33 220.73 
M 271.8 220.37 276.42 229.87 275.68 230.34 269.13 222.04 
M 350.46 208.93 349.97 213.46 349.9 215.71 350.01 217.92 350.32 220.11 351.54 224.39 353.27 228.6 
M 352.46 229.35 349.6 230.39 347.09 231.82 346.03 232.76 345.11 233.86 344.31 235.09 342.94 237.81 
M 342.1 238.52 338.95 238.64 337.44 238.86 336.01 239.24 334.65 239.82 332.18 241.52 329.91 243.71 
M 329.03 244.38 325.77 243.56 324.16 243.32 322.56 243.26 320.98 243.42 317.89 244.31 314.84 245.74 
M 313.94 246.37 310.14 243.91 306.17 241.95 304.09 241.25 301.95 240.75 299.75 240.43 295.23 240.1 
M 294.3 240.69 290.83 237.13 287.08 234.01 285.04 232.7 282.89 231.57 280.64 230.59 275.96 228.92 
M 350.18 211.2 349.9 215.71 350.01 217.92 350.32 220.11 350.84 222.26 352.37 226.5 
M 351.01 229.84 348.28 231.04 347.09 231.82 346.03 232.76 345.11 233.86 343.6 236.43 
M 345.22 224.97 343.13 225.88 342.21 226.49 340.7 228.05 339.54 230.01 
M 339.43 220.09 337.34 221.15 336.28 222.23 335.48 223.6 
M 340.51 238.55 337.44 238.86 336.01 239.24 334.65 239.82 333.38 240.59 331.03 242.58 
M 335.82 234.08 333.29 234.33 332.11 234.65 329.94 235.76 328 237.41 
M 331.13 229.61 329.14 229.81 328.21 230.06 326.5 230.93 324.97 232.23 
M 326.45 225.14 324.31 225.47 323.06 226.1 321.95 227.05 
M 327.4 243.93 324.16 243.32 322.56 243.26 320.98 243.42 319.43 243.77 316.36 244.99 
M 322.78 239.08 320.11 238.58 318.79 238.53 316.2 238.95 313.67 239.96 
M 318.16 234.24 316.05 233.84 315.02 233.8 312.98 234.13 310.99 234.92 
M 313.54 229.39 311.24 229.07 309.75 229.32 308.3 229.89 
M 312.05 245.1 308.18 242.84 306.17 241.95 304.09 241.25 301.95 240.75 297.5 240.23 
M 306.47 238.97 303.51 237.23 300.37 236.01 298.73 235.63 295.31 235.23 
M 300.89 232.83 297.75 231.15 295.5 230.51 293.13 230.23 
M 292.59 238.88 289.01 235.49 287.08 234.01 285.04 232.7 282.89 231.57 278.32 229.72 
M 386.75 146.83 389.78 145.67 391.81 144.42 394.23 143.23 396.57 141.72 399.3 140.41 402.35 139.39 404.96 138.11 409.68 135.31 411.74 134.34 413.8 132.8 415.8 131.74 417.38 129.87 419.58 128.95 425.3 126.09 428.09 124.23 429.7 122.31 432.17 119.94 438.59 118.16 443.14 115.16 445.05 113.59 446.3 112.1 448.33 110.71 452.8 108.81 458.18 104.89 462.53 101.2 463.9 101.05 481.7 106.44 484.58 107.66 486.37 107.8 488.1 109.7 489.28 112.86 489.94 115.49 490 117.52 487.47 120.3 488.28 124.03 488.66 127.32 489.42 131 488.08 133.01 485.48 134.07 483.67 135.94 483.12 139.05 481.78 141.38 475.16 149.31 473.39 151.18 471.9 153.31 469.46 154.54 468.11 156.84 464.68 160.75 458.97 169.39 459.44 171.74 461 176.29 462.89 178.33 467.56 181.25 471.21 184.03 473.75 185.69 474.42 186.6 476.09 190.26 477.25 192.42 480.07 197.23 482.07 200.22 484.05 204.13 485.48 206.53 486.34 208.65 486.32 211.04 487.68 217.23 488.02 219.97 488.11 223.23 486.65 225.13 485.9 227.73 484.51 229.71 480.31 232.87 477.91 234.12 475.28 235.14 473.44 235.65 463.37 237.1 461.81 236.84 459.49 235.05 456.67 232.55 455.18 230.58 451.95 229.03 446.92 227.14 443.82 225.64 440.81 222.75 438.05 220.76 436.04 219.82 434.63 218.76 431.64 218.55 429.49 217.27 428.33 214.64 427.2 212.79 423.14 209.13 420.45 208.84 418.12 207.25 414.85 205.41 412.66 203.11 410.58 202.15 408.45 200.47 406.29 199.34 403.84 197.39 399.18 194.23 397.15 192.34 394.73 190.58 389.59 187.48 386.75 185.07 
M 389.86 148.23 396.62 144.66 399.37 143.53 405.95 141.56 407.72 140.72 410.03 139.16 415.13 136.65 418.19 134.07 419.88 131.84 422.52 130.95 428.95 128.3 431.84 126.62 433.49 125.36 435.44 124.62 441.35 122.93 443.75 122 446.38 119.24 
M 386.75 151.57 389.82 150.86 392.43 149.71 394.7 148.43 397.22 147.87 399.56 146.98 404.92 145.47 410.39 143.39 415.67 141.08 420.67 137.27 427.13 135.06 429.94 133.12 435.35 130.94 441.51 128.7 444.3 129.05 447.28 127.75 448.53 125.85 451.36 124.6 453.76 123.75 457.28 122.08 459.51 120.37 464.22 118.8 467.4 117.45 470.07 116.71 472.11 115.42 
M 392.52 152.86 395.31 151.79 397.61 151.16 400.14 150.59 402.49 150.47 410.68 146.86 415.71 145.86 418 144.81 420.17 143.28 422.36 142.08 425.75 140.47 428.6 139.54 431.02 138.43 434.21 137.94 437.01 137.99 439.22 136.82 441.25 135.49 443.49 135.16 446.34 134.13 
M 386.75 156.32 389.57 156.23 392.4 155.89 397.75 154.58 403.15 154.01 405.64 153.3 411.21 150.95 413.96 150.12 418.66 150.27 421.73 149.65 432.33 144.84 440.89 144.49 444.05 144.58 447.33 143.5 448.98 142.65 451.37 141.84 455.39 139.83 457.66 139 
M 395.11 158.13 397.87 158.32 403.84 158.02 412.21 155.7 414.91 155.22 417.46 155.03 423.1 154.25 427.89 152.1 433.84 151.79 435.64 151.12 441.16 150.69 443.73 150.72 446.52 151.06 450.09 150.92 452.41 149.73 453.66 147.6 456.53 146.87 459.53 146.33 462.91 146.05 465.73 146.29 468.19 146.84 472.9 144.32 475.28 143.77 477.94 143.66 
M 395.48 161.32 401.01 161.37 403.8 161.79 406.68 161.17 415.16 160.37 417.88 159.5 421.22 157.92 424.29 157.27 426.97 157.23 430.6 156.16 433.87 156.66 436.58 156.82 441.9 156.64 444.11 157.08 448.06 157.08 451.07 157.69 452.7 156.04 455.13 154.49 
M 392.64 164.32 398.48 164.4 401.38 164.75 403.99 165.3 409.91 164.13 413.45 164.83 416.31 164.42 418.46 163.58 421.38 163.77 424.42 163.45 429 162.6 431.26 162.47 433.53 161.56 
M 390.06 166.55 392.83 167.3 395.55 167.79 398.69 167.78 407.28 168.92 413.6 168.15 416.22 168.11 418.02 168.61 423.53 169.08 425.47 168.52 431.13 167.56 434.48 168.46 437.96 170.1 441.82 169.63 444.83 168.92 454.97 169.83 
M 390.05 169.07 395.53 170.3 398.21 171.11 401.18 171.52 403.82 172.35 406.9 172.02 413.89 171.82 416.37 172.31 417.6 173.01 420.8 173.67 423.45 173.8 425.46 174.58 428.9 174.82 432.02 175.29 436.61 174.32 438.01 174.55 441.35 174.45 444.6 174.71 448.77 176.24 
M 386.75 170.55 392.97 172.32 395.61 172.86 401.19 174.54 403.95 175.75 413.14 175.69 419.03 177.2 421.26 178.82 426.63 179.75 431.28 180.98 434.32 181 438.28 179.18 440.92 179.72 444.63 180.96 448.85 185.07 452.49 185.15 456.2 184.58 
M 390.16 174.11 398.74 176.52 401.17 177.85 403.44 178.82 406.29 179.31 409.77 179.33 415.92 179.99 417.83 181.17 420.25 181.79 422.57 182.76 425.7 183.64 430.01 186.17 433.08 186.66 436.1 186.31 438.67 186.44 
M 392.65 177.51 400.79 180.82 405.53 182.17 408.98 182.92 413.91 184.82 422.11 187.02 424.85 188.01 429.4 191.12 431.79 192.29 433.87 192.14 436.24 192.41 439.4 192.42 441.71 193.39 443.15 194.68 446.5 195.36 449.62 196.32 453.65 198.48 456.94 198.98 459.09 200.86 461.8 202.13 
M 386.75 177.67 389.81 179.43 395.04 181.54 397.35 182.74 402.35 184.64 405.01 185.85 411.22 188.13 414.3 188.87 416.34 189.54 418.9 191.23 421.3 193.17 424.17 194.79 425.98 196.36 431.09 198.07 433.1 198.43 434.84 198.41 437.3 200.15 440.13 201.84 442.79 202.95 446.57 204.15 449.27 206.02 451.41 207 453.49 206.9 455.37 208.49 458.91 208.53 461.15 209.97 469.15 212.66 471.91 213.91 473.8 215.45 475.82 215.76 479.07 216.76 482.11 218.55 484.49 219.06 486.68 220.54 
M 386.75 180.04 389.63 181.93 394.51 184.36 399.87 186.77 402.61 188.7 405.42 190.18 408.26 190.96 410.93 191.99 413.41 193.59 416.06 194.87 417.97 196.29 420.78 198.07 425.47 199.76 427.81 201.03 432.92 201.91 434.93 204.2 436.68 206.76 438.86 208.36 444.14 209.33 447.29 210.32 450.68 211.69 452.5 212.64 454.54 213.99 456.4 216.06 459.98 217.39 
M 386.75 182.41 389.63 184.5 394.49 187.48 397.39 188.77 399.96 190.29 402.47 192.16 404.91 193.01 407.48 194.62 409.66 196.21 412 197.25 414.24 198.69 416.19 201.04 419.24 202.46 424.97 205.49 428.74 207.01 430.13 208.36 432.07 211.13 434.51 212.61 437.63 213.16 
M 344.47 128.68 349.25 124.42 351.23 123.39 353.75 122.89 356.79 122.92 363.36 123.47 366.29 123.38 368.87 122.95 371.26 122.32 373.82 122.35 376.63 124.21 378.79 127.3 379.54 130.61 378.91 133.52 376.86 135.11 368.43 136.51 365.61 137.24 
M 347.39 129.53 348.44 128.62 
M 350.24 127.41 351.23 126.89 353.75 126.39 356.79 126.42 363.36 126.97 366.29 126.88 368.87 126.45 371.26 125.82 372.54 125.84 
M 42.62 149.32 46.47 146.99 49.69 144.83 53.28 142.11 57.66 139.33 69.36 133.86 74.6 130.86 79.24 127.83 84.54 126.15 90.02 124.99 100.76 122.37 106.26 121.44 111.58 120.92 116.28 120.74 120.06 120.83 122.38 121.23 125.99 126.2 127.14 130.77 127.62 135.25 128.07 144.15 127.63 148.52 128.19 157.43 127.18 170.57 125.98 174.84 124.38 179.06 122.11 187.61 119.93 191.75 116.5 200.16 111.98 203.92 103.07 203.26 96.47 202.16 90.5 200.49 85.04 198.11 79.9 195.23 74.87 191.92 69.89 187.98 65.49 183.9 61.57 180.03 57.35 176.31 53.45 172.09 50.02 167.54 
M 107.71 146.57 107.76 150.4 107.04 154 105.13 160.41 101.87 165.41 101.25 167.73 100.99 170.01 100.16 172.3 99.83 174.91 99.84 178.22 97.67 181.73 87.39 182.17 83.15 181.93 79 181 74.82 179.41 70.59 177.1 66.36 173.87 
M 48.74 166.54 43.16 159.21 39.64 153.64 38.58 151.54 39.05 149.34 41.05 148.52 43.01 149.53 44.07 151.54 46.33 157.88 50.36 167.37 
M 48.18 167.61 41.01 166.49 36.83 165.49 32.6 164.83 30.62 164.04 30 162.04 31.27 160.11 33.5 159.82 43.03 164.33 49.04 166.67 
M 49.22 166.75 50.11 167.13 
M 76.18 150.32 75.52 147.82 75.71 145.25 76.72 142.87 78.45 140.95 80.71 139.7 83.26 139.25 85.81 139.65 88.09 140.86 89.86 142.74 90.92 145.1 91.16 147.67 90.55 150.18 89.16 152.35 87.14 153.96 84.7 154.82 82.12 154.85 79.67 154.03 77.62 152.47 76.18 150.32 
M 76.09 150.1 75.57 148.23 75.53 146.29 75.97 144.4 76.36 143.51 77.45 141.9 78.91 140.62 79.74 140.12 81.57 139.45 83.5 139.25 85.42 139.53 86.34 139.85 
M 77.7 149.43 77.24 147.22 77.47 145.46 
M 79.36 142.48 81.24 141.37 82.71 141.04 84.21 141.07 85.67 141.47 
M 80.47 148.39 80.21 147.39 80.25 146.87 
M 81.07 144.99 81.38 144.64 82.29 144.14 83.3 143.96 84.32 144.12 85.24 144.6 85.94 145.35 86.37 146.3 86.46 147.33 86.22 148.33 85.66 149.2 84.86 149.84 83.88 150.19 82.85 150.2 81.87 149.87 81.05 149.25 80.47 148.39 
M 82.01 144.29 81.42 145.48 
M 80.62 147.08 80.3 147.72 
M 83.48 143.99 82.19 146.56 
M 81.73 147.49 80.93 149.08 
M 84.64 144.29 82.97 147.62 
M 82.88 147.81 81.85 149.86 
M 85.6 144.99 83 150.2 
M 86.32 146.18 84.41 150 
M 45.69 156.05 45.91 156.27 
M 43.62 148.73 46.35 151.46 
M 46.87 146.72 49.68 149.53 
M 49.99 144.6 54.13 148.74 
M 52.99 142.34 57.56 146.91 
M 56.17 140.27 59.48 143.58 
M 59.56 138.41 63.99 142.84 
M 63.11 136.7 67.51 141.1 
M 66.71 135.06 69.71 138.05 
M 70.25 133.34 74.31 137.41 
M 73.59 131.43 78.12 135.96 
M 76.82 129.41 81.45 134.04 
M 80.19 127.52 84.3 131.64 
M 84.18 126.26 87.31 129.39 
M 88.48 125.31 93.14 129.97 
M 92.75 124.33 97.2 128.78 
M 96.98 123.3 100.15 126.48 
M 101.21 122.29 106.09 127.17 
M 105.71 121.53 110 125.83 
M 110.46 121.03 113.97 124.54 
M 115.45 120.77 120.04 125.36 
M 120.91 120.98 125.47 125.53 
M 82.25 162.68 82.49 162.07 82.29 161.81 81.63 161.72 81 161.83 
M 103.24 147.99 103.64 146.77 103.6 146.04 102.7 143.08 101.9 141.61 101.14 139.17 
M 102.99 139.95 102.63 138.2 102.03 136.46 101.18 135.54 100.71 135.34 100.19 135.33 99.23 135.67 98.26 136.38 98.2 137.07 
M 90.85 179.69 91.51 182.16 91.74 182.56 92.4 183.11 93.3 183.51 
M 58.23 139.78 57.72 140.7 55.7 141.9 55.33 142.57 
M 100.16 145.89 100.81 145.66 101.13 145.2 101.56 143.59 101.57 143.13 101.21 142.29 
M 81.91 157.82 80.39 158.84 78.44 160.7 77.59 161.74 76.94 162.08 76.06 162.09 
M 126.88 138.71 125.85 137.61 124.89 135.01 123.91 133.72 122.39 132.65 120.41 131.79 118.99 130.95 
M 98.11 145.98 97.4 146.96 96.12 148.05 94.78 149.64 93.99 150.24 93.14 150.61 92.4 150.69 91.15 150.47 90.55 150.18 
M 86.56 188.99 85.25 189.37 84.55 189.21 83.2 187.5 82.95 186.85 83.06 186.55 
M 77.17 139.99 78.34 141.08 
M 63.96 168.45 58.34 166.26 57.36 165.7 56.94 165.2 
M 95.1 178.67 95.67 177.11 96.17 176.48 98.83 174.69 100.92 172.93 101.91 172.28 102.32 171.52 
M 86.26 139.89 87.67 137.86 88.48 137.33 89.3 137.23 
M 88.89 194.07 88.74 193.01 87.78 191.67 86.45 191.06 84.46 190.41 82.85 189.13 
M 70.96 175.98 70.27 174.85 68.45 172.8 67.69 171.62 
M 119.71 156.03 119.08 158.6 118.52 159.62 117.19 160.76 115.99 161.5 115.71 161.9 
M 80.76 159.12 79.84 160.4 78.15 162.14 77.54 162.39 76.7 162.37 
M 88.59 198.05 90.1 197.96 91.27 197.42 92.86 195.48 93.75 193.97 95.31 190.6 97.27 187.72 
M 116.45 168.45 116.26 169.31 116.46 171.25 116.97 172.87 
M 91.94 133.86 92.57 136.14 94.4 139.21 94.73 140.54 94.62 141.52 
M 49.79 165.9 52.81 167.79 
M 74.82 136.46 74.5 137.09 74.93 138.25 76.55 140.71 77.68 141.81 
M 68.96 167.54 68.95 167.13 69.74 164.56 69.9 163.43 69.75 163.07 69.44 162.85 67.51 162.53 
M 76.86 157.14 75.1 158.24 73.39 159.64 70.52 160.74 68.32 161.86 67.7 162.03 66.03 162.03 
M 58.45 163.03 57.41 163.33 57.17 163.7 
M 90.83 158.98 90.66 158.28 88.28 155.89 87.17 153.93 
M 94.55 192.04 95.66 189.74 98.51 185.93 98.51 185.03 97.87 184.36 
M 85.41 182.13 85.4 182.96 85.79 185.38 85.57 186.12 85.27 186.71 84.62 187.18 83.89 187.17 83.61 186.84 
M 92.43 154.79 91.51 153.14 89.9 151.19 
M 112.42 127.41 111.16 127.8 110.27 127.61 106.53 124.68 
M 117.46 153.24 114.86 151.99 113.73 151.85 
M 99.01 198.11 99.85 199.52 
M 98.45 173.33 101.2 171.26 102.07 170.35 102.86 170.58 
M 70.24 147.98 70.07 147.48 69.11 147.11 68.63 146.5 
M 75.61 166.84 75.74 165.27 75.59 164.15 75.08 162.84 74.2 161.73 72.95 160.93 72.36 160.76 70.4 161.13 
M 124 149.73 125.2 148.84 125.9 148.62 126.57 148.7 127.15 149.09 127.73 149.83 
M 127.81 150.84 127.61 151.16 126.95 151.16 
M 114.17 147.73 112.02 151.57 111.83 152.3 
M 105.6 195.66 105.12 199.65 104.27 200.95 
M 67.9 150.11 68.22 148.93 68.39 147.33 68.36 146.52 68.1 145.9 
M 122.3 128.63 121.36 127.69 120.45 125.64 119.65 124.36 119.16 124.02 117.55 123.85 
M 58.55 156.79 57.86 157.45 55.58 158.57 55.14 159.08 55.27 161.33 56.59 163.11 
M 103.35 142.57 102.67 141.55 102.09 140.2 101.65 138.01 101.19 136.82 100.86 136.49 99.95 136.26 99.49 136.32 98.79 136.69 
M 102.8 189.64 102.21 189.42 101.34 188.6 100.51 186.79 100.11 186.27 98.86 185.44 98.58 185.06 
M 95.04 165.25 97.54 165.63 98.32 165.94 99.51 166.85 100.19 168.02 100.88 168.5 
M 117.47 123.67 115.12 124.21 111.27 125.8 110.06 125.87 
M 103.19 173.86 105.39 172.24 106 171.37 
M 103.61 124.14 103.03 123.31 102.8 122.6 102.82 122.02 
M 71.5 168.74 70.84 167.63 70.75 167.06 70.86 166.45 71.58 165.04 71.75 164.28 71.61 163.58 71.26 163.03 70.33 162.47 68.42 162.52 
M 98 138.18 98.55 139.31 98.19 140.11 
M 60.7 179.27 61.44 179.14 62.95 178.48 63.82 178.48 
M 50.95 168.48 43.81 174.27 43.01 175.13 42.44 176.07 42.17 177.11 42.24 178.17 42.68 179.16 43.44 179.99 44.43 180.58 45.56 180.89 46.75 180.89 47.91 180.56 48.98 179.94 50.72 178.09 52.82 174.79 53.89 172.39 52.36 176.03 51.08 178.34 50.32 179.45 49.39 180.45 48.24 181.25 46.91 181.75 45.48 181.88 44.05 181.61 42.73 180.96 41.62 179.94 40.87 178.58 40.64 177.04 40.9 175.51 41.57 174.14 42.46 172.99 49.09 166.62 
M 50.02 167.54 50.44 168.32 
M 46.53 163.56 46.06 164.07 45.72 165 46.31 164.53 47.18 164.38 
M 43.57 159.77 42.23 160.82 41.41 162.45 42.48 161.28 44.24 160.68 
M 41.03 155.73 38.4 157.57 37.11 159.9 38.65 158.03 41.66 156.81 
M 38.63 151.65 34.57 154.32 32.8 157.35 34.82 154.79 39.24 152.84 
M 50 167.54 50.86 167.8 
M 45.37 165.18 45.89 164.44 46.73 163.91 46.4 164.59 46.44 165.58 
M 41.04 163.41 42.02 161.4 43.44 160.26 42.52 161.55 42.23 163.96 
M 36.88 161.35 38.14 158.37 40.14 156.62 38.64 158.52 38.05 161.89 
M 32.47 159.95 34.26 155.33 36.85 152.98 34.77 155.48 33.85 159.97 
M 35.49 165.26 38.13 167.62 41.11 169.93 43.77 171.67 
M 45.62 172.76 52.06 176.09 
M 52.28 176.19 61.57 180.03 
M 58.38 178.77 59.41 178.72 
M 126.46 128.08 130.57 132.19 
M 125.72 120.33 133.26 127.87 
M 131.08 118.69 136.53 124.14 
M 136.46 117.07 143.66 124.27 
M 141.86 115.46 147.19 120.79 
M 147.04 113.64 156.34 122.94 
M 152.13 111.73 160.27 119.86 
M 157.24 109.83 167.26 119.86 
M 162.35 107.94 171.7 117.29 
M 167.54 106.13 173.72 112.31 
M 172.79 104.38 179.5 111.09 
M 178.22 102.81 188.06 112.64 
M 183.82 101.4 189.52 107.1 
M 189.89 100.47 197.32 107.9 
M 196.24 99.82 202.43 106 
M 202.82 99.39 209.23 105.81 
M 209.48 99.05 218.7 108.27 
M 216.28 98.85 221.94 104.51 
M 223.3 98.87 233.15 108.71 
M 230.53 99.1 239.06 107.62 
M 238.15 99.72 246.85 108.41 
M 246.12 100.68 255.65 110.21 
M 254.38 101.94 260.56 108.12 
M 262.92 103.47 270.85 111.41 
M 271.55 105.1 279.82 113.37 
M 279.72 106.27 289.83 116.38 
M 288.79 108.34 295.41 114.96 
M 298.95 111.5 309.14 121.68 
M 309.64 115.19 316.02 121.56 
M 321.08 119.62 327.86 126.4 
M 332.75 124.29 342.79 134.33 
M 343.95 128.48 349.91 134.44 
M 355.56 133.09 362.59 140.12 
M 367.58 138.11 378.06 148.59 
M 380.29 143.82 385.15 148.67 
M 112.66 203.35 113.14 204.31 
M 114.82 201.55 116.65 205.21 
M 116.81 199.4 120.17 206.11 
M 118.18 196.01 119.18 198.01 
M 120.03 199.71 123.68 207.01 
M 123.93 201.37 127.2 207.92 
M 127.82 203.04 130.72 208.83 
M 131.72 204.71 134.23 209.73 
M 128.04 154.47 130.1 158.59 
M 127.72 147.69 130.17 152.59 
M 161.46 215.17 161.82 215.9 
M 163.85 213.83 165.14 216.41 
M 166.97 213.94 168.35 216.7 
M 123.56 120.99 127.87 129.6 
M 170.21 214.29 171.55 216.98 
M 126.22 120.18 128.17 124.09 
M 173.58 214.9 174.76 217.26 
M 177.07 215.76 177.96 217.53 
M 180.65 216.8 181.15 217.79 
M 182.9 215.15 184.35 218.06 
M 184.89 213.02 187.46 218.16 
M 187.22 211.56 190.51 218.12 
M 189.95 210.88 191.9 214.79 
M 158.52 141.88 161.44 147.73 
M 158.75 136.22 164.38 147.48 
M 158.19 128.98 167.29 147.18 
M 158.42 123.31 170.14 146.76 
M 157.87 116.09 172.96 146.27 
M 158.06 110.35 175.75 145.72 
M 158.58 105.24 178.48 145.05 
M 159.4 100.77 181.18 144.32 
M 160.51 96.85 183.85 143.53 
M 161.47 92.66 186.48 142.67 
M 222.93 215.57 224.21 218.13 
M 162.27 88.12 188.5 140.58 
M 222.95 209.47 227.32 218.23 
M 162.91 83.27 187.57 132.59 
M 221.23 199.92 230.61 218.67 
M 163.43 78.18 187.3 125.93 
M 218.62 188.57 233.96 219.25 
M 165.53 76.26 187.84 120.88 
M 218.38 181.95 237.31 219.82 
M 167.9 74.88 187.87 114.81 
M 218.4 175.87 240.59 220.26 
M 170.21 73.36 187.04 107.03 
M 217.57 168.09 243.82 220.59 
M 172.39 71.6 186.87 100.57 
M 217.41 161.63 247.06 220.93 
M 174.41 69.51 187.33 95.34 
M 217.08 154.84 250.26 221.21 
M 176.27 67.1 187.62 89.8 
M 218.15 150.87 252.6 219.77 
M 177.99 64.42 188.56 85.55 
M 218.31 145.05 253.54 215.52 
M 180.23 62.77 189.23 80.77 
M 218.2 138.71 254.21 210.73 
M 183.09 62.36 188.96 74.1 
M 217.15 130.47 253.16 202.5 
M 185.87 61.8 188.61 67.28 
M 217.58 125.22 252.81 195.68 
M 217.1 118.14 253.12 190.16 
M 215.67 109.14 253.25 184.3 
M 215.66 102.99 250.89 173.45 
M 216.32 98.19 251.55 168.65 
M 217.17 93.76 250.83 161.09 
M 217.07 87.43 250.74 154.76 
M 281.27 215.83 283.18 219.66 
M 216.07 79.31 248.96 145.08 
M 281.05 209.27 286.04 219.24 
M 216.47 73.98 249.35 139.74 
M 281.45 203.94 288.89 218.82 
M 217.46 69.82 250.34 135.59 
M 282.44 199.78 291.74 218.39 
M 217.5 63.78 251.17 131.11 
M 282.48 193.75 294.49 217.76 
M 217.43 57.51 251.87 126.4 
M 282.41 187.47 297.24 217.13 
M 217.24 51.01 251.69 119.9 
M 282.22 180.97 299.98 216.5 
M 220.22 50.84 250.36 111.12 
M 282.46 175.32 302.73 215.86 
M 223.31 50.9 248.76 101.79 
M 282.42 169.12 305.46 215.2 
M 226.12 50.38 249.21 96.57 
M 282.09 162.34 308.2 214.54 
M 228.69 49.4 250.22 92.46 
M 282.32 156.66 310.93 213.88 
M 231.22 48.34 250.41 86.7 
M 282.5 150.9 313.64 213.18 
M 234.89 49.54 250.94 81.64 
M 283.82 147.41 313.57 206.91 
M 238.35 50.35 250.49 74.62 
M 284.15 141.95 310.77 195.18 
M 241.46 50.43 250.46 68.43 
M 284.13 135.76 309.96 187.43 
M 244.3 49.98 248.6 58.59 
M 284.62 130.62 310.45 182.29 
M 246.97 49.2 248.93 53.12 
M 284.16 123.58 311.56 178.38 
M 284.4 117.92 311.8 172.73 
M 284.89 112.78 312.29 167.58 
M 285.79 108.46 312.41 161.69 
M 286.38 103.51 313 156.75 
M 286 96.62 313.4 151.42 
M 285.1 88.7 314.07 146.64 
M 340.69 199.87 342.05 202.6 
M 285.78 83.94 314.75 141.87 
M 341.37 195.11 344.59 201.55 
M 286.25 78.74 315.22 136.68 
M 341.84 189.91 347.18 200.6 
M 282.33 64.77 315.21 130.54 
M 341.05 182.21 349.76 199.64 
M 280.56 55.11 315.4 124.78 
M 338.89 171.76 352.35 198.68 
M 285.76 59.38 315.12 118.1 
M 338.61 165.07 354.93 197.72 
M 289.13 60 315.36 112.45 
M 338.85 159.42 357.5 196.74 
M 295.37 66.34 314.55 104.71 
M 338.82 153.25 360.07 195.75 
M 300.21 69.89 313.13 95.73 
M 339.77 149.02 362.64 194.76 
M 311.28 85.91 311.67 86.7 
M 340.47 144.29 365.21 193.77 
M 341.16 139.55 367.19 191.59 
M 341.63 134.35 366.68 184.45 
M 342.08 129.12 366.35 177.66 
M 344.48 127.79 344.48 127.81 
M 345.03 128.9 364.99 168.83 
M 346.59 125.9 348.31 129.33 
M 348.85 130.42 364.9 162.52 
M 348.71 124.01 352.13 130.85 
M 352.68 131.94 364.81 156.21 
M 351.07 122.6 355.97 132.39 
M 356.51 133.49 365.52 151.49 
M 353.84 122.02 359.82 133.98 
M 360.37 135.08 366.25 146.82 
M 356.93 122.06 363.68 135.57 
M 364.23 136.68 366.97 142.16 
M 360.14 122.37 366.97 136.02 
M 363.32 122.59 367.62 131.2 
M 366.34 122.5 368.29 126.41 
M 222.68 291.39 220.79 297.7 
M 220.79 297.7 224.39 297.7 
M 230.45 293.5 229.19 297.7 
M 230.18 294.39 229.76 293.8 229.25 293.5 228.35 293.5 227.66 293.8 226.88 294.39 226.31 295.3 226.13 295.89 226.16 296.8 226.58 297.39 227.09 297.7 227.99 297.7 228.68 297.39 229.46 296.8 
M 236.78 291.39 234.89 297.7 
M 235.88 294.39 235.46 293.8 234.95 293.5 234.05 293.5 233.36 293.8 232.58 294.39 232.01 295.3 231.83 295.89 231.86 296.8 232.28 297.39 232.79 297.7 233.69 297.7 234.38 297.39 235.16 296.8 
M 239.75 293.5 239.06 293.8 238.28 294.39 237.71 295.3 237.53 295.89 237.56 296.8 237.98 297.39 238.49 297.7 239.39 297.7 240.08 297.39 240.86 296.8 241.43 295.89 241.61 295.3 241.58 294.39 241.16 293.8 240.65 293.5 239.75 293.5 
M 245.18 291.39 243.65 296.5 243.68 297.39 244.19 297.7 244.79 297.7 
M 243.65 293.5 245.75 293.5 
M 247.01 295.3 250.61 295.3 250.79 294.7 250.67 294.1 249.95 293.5 249.05 293.5 248.36 293.8 247.58 294.39 247.01 295.3 246.83 295.89 246.86 296.8 247.28 297.39 247.79 297.7 248.69 297.7 249.38 297.39 250.16 296.8 
M 254.18 291.39 252.65 296.5 252.68 297.39 253.19 297.7 253.79 297.7 
M 252.65 293.5 254.75 293.5 
M 257.48 291.39 255.59 297.7 
M 256.49 294.7 257.65 293.8 258.35 293.5 259.25 293.5 259.76 293.8 259.78 294.7 258.89 297.7 
M 261.95 293.5 262.49 297.7 
M 265.55 293.5 261.52 298.89 260.75 299.5 259.76 299.8 
M 270.08 294.39 269.95 293.8 269.14 293.5 268.25 293.5 267.26 293.8 266.77 294.39 266.89 295 267.41 295.3 268.82 295.6 269.33 295.89 269.36 296.8 268.88 297.39 267.89 297.7 266.99 297.7 266.18 297.39 266.06 296.8 
M 278.18 294.39 278.06 293.8 277.25 293.5 276.35 293.5 275.36 293.8 274.88 294.39 275 295 275.51 295.3 276.92 295.6 277.43 295.89 277.45 296.8 276.98 297.39 275.99 297.7 275.08 297.7 274.27 297.39 274.16 296.8 
M 283.85 293.5 282.58 297.7 
M 283.58 294.39 283.15 293.8 282.64 293.5 281.75 293.5 281.06 293.8 280.27 294.39 279.7 295.3 279.52 295.89 279.56 296.8 279.98 297.39 280.49 297.7 281.39 297.7 282.08 297.39 282.86 296.8 
M 286.25 293.5 284.99 297.7 
M 285.7 295.3 286.27 294.39 287.06 293.8 287.75 293.5 288.64 293.5 
M 290.48 291.39 290.69 291.7 291.08 291.39 290.87 291.1 290.48 291.39 
M 290.14 293.5 288.89 297.7 
M 293.75 293.5 293.06 293.8 292.27 294.39 291.7 295.3 291.52 295.89 291.56 296.8 291.98 297.39 292.49 297.7 293.39 297.7 294.08 297.39 294.86 296.8 295.43 295.89 295.61 295.3 295.58 294.39 295.15 293.8 294.64 293.5 293.75 293.5 
M 297.47 297.1 297.08 297.39 297.29 297.7 297.68 297.39 297.47 297.1 
"/></svg>
