<svg xmlns="http://www.w3.org/2000/svg" width="520" height="320"><rect x="0" y="0" width="520" height="320" fill="floralwhite"/><rect x="10" y="10" width="500" height="300" stroke="black" stroke-width="1" fill="none"/><path stroke="black" stroke-width="1" fill="none" stroke-linecap="round" stroke-linejoin="round" d="
M 179.69 132.99 186.13 129.17 205.59 119.54 212.08 117.65 218.56 117.4 225.05 116.57 231.54 115.11 238.02 114.26 257.48 114.06 270.45 114.76 276.94 115.94 289.91 120.36 296.39 122.73 302.88 125.89 309.37 129.36 315.85 133.09 335.31 145.22 342.39 149.45 
M 342.39 176.7 335.31 180.34 322.34 187.45 315.85 190.44 296.39 198.81 289.91 202.37 283.42 206.41 276.94 209.87 270.45 212.66 263.97 214.38 257.48 215.09 250.99 215.51 244.51 215.5 225.05 214.19 218.56 212.46 212.08 210.06 199.11 204.25 192.62 200.98 186.09 197.3 
M 179.97 133.47 180.68 132.95 181.47 131.93 
M 183.38 140.74 184.82 139.39 186.26 137.02 186.26 135.55 184.82 133.18 182.71 131.2 
M 180.8 134.9 183.61 134.42 
M 181.6 136.3 183.94 136.17 
M 182.2 137.78 183.69 137.87 
M 187.03 152.67 187.62 151.32 187.62 149.59 186.41 146.8 185.07 145.04 
M 188.41 164.46 188.32 163.32 
M 188.97 181.66 189.79 179.6 189.79 177.83 188.45 174.69 
M 189.52 188.46 188.85 187.6 
M 188.11 128.17 189.7 127.75 192.33 126.37 193.15 125.62 
M 186.95 138.39 189.07 137.69 191.78 135.91 193.52 133.9 193.52 132.65 191.78 130.63 189.07 128.85 187.66 128.39 
M 187.19 150.78 189.05 149.98 191.53 147.84 193.12 145.42 193.12 143.93 191.53 141.51 189.05 139.37 187.11 138.54 
M 188.38 164.15 189.43 163.56 191.51 161.2 192.85 158.54 192.85 156.88 191.51 154.22 189.43 151.86 187.8 150.94 
M 189.38 178.44 190.36 177.83 192.35 175.34 193.03 173.85 
M 188.98 164.57 188.81 164.46 
M 193.95 190.19 195.51 187.11 195.51 185.38 194.18 182.58 192.11 180.1 190.5 179.13 
M 188.94 184.63 193.35 183.88 
M 188.95 186.27 193.23 186.06 
M 188.83 187.73 193.13 188.09 
M 192.9 134.37 194.34 133.84 196.55 132.22 197.98 130.38 197.98 129.24 196.55 127.4 194.34 125.77 193.48 125.46 
M 190.97 128.93 195.36 128.59 
M 191.09 129.69 195.64 129.6 
M 192.1 131.03 195.69 131.02 
M 192.63 145.83 194.47 145.09 196.83 143.19 198.34 141.05 198.34 139.72 196.83 137.57 194.47 135.67 192.86 135.02 
M 190.89 139.12 195.63 138.66 
M 191.14 140.25 195.43 140.43 
M 191.47 141.69 195.68 142.2 
M 192.37 157.32 193.31 156.77 195.11 154.68 196.27 152.31 196.27 150.84 195.11 148.47 193.31 146.38 192.55 145.94 
M 190.31 150.6 193.89 149.9 
M 190.67 151.87 193.89 151.41 
M 190.82 152.53 194.31 153.33 
M 195.74 163.75 194.74 160.86 193.19 158.46 192.37 157.83 
M 195.03 185.03 196.36 182.87 197.39 179.93 197.39 178.1 196.36 175.16 195.9 174.41 
M 199.4 192.11 198.74 190.44 197.06 188.03 195.75 187.08 
M 198.62 122.97 200.54 122.57 203 121.52 204.59 120.33 204.59 120.03 
M 198.1 131.23 200.08 130.66 202.61 129.22 204.24 127.58 204.24 126.56 202.61 124.93 200.08 123.48 198.49 123.03 
M 197.94 141.58 199.96 140.9 202.55 139.15 204.22 137.17 204.22 135.95 202.55 133.97 199.96 132.22 197.94 131.54 
M 196.04 135.65 201.14 134.92 
M 195.82 136.29 201.32 136.83 
M 196.86 137.8 201.28 138 
M 197.22 152.57 199.11 151.82 201.52 149.91 203.07 147.74 203.07 146.4 201.52 144.24 199.11 142.32 197.8 141.81 
M 198.13 163.4 199.9 161.57 201.25 159.12 201.25 157.6 199.9 155.14 197.81 152.98 196.17 152.13 
M 194.49 157.27 198.85 156.36 
M 194.8 158.3 198.63 158.55 
M 194.57 159.61 198.52 160.45 
M 197.02 178.76 198.25 177.98 200.35 175.19 
M 200.66 192.5 202.25 190.48 203.53 187.62 203.53 185.85 202.25 182.99 200.26 180.46 198.71 179.48 
M 204.02 120.55 205.42 120.25 207.4 119.38 208.17 118.79 
M 203.66 127.67 204.98 127.27 207.03 126 208.35 124.57 208.35 123.68 207.03 122.25 204.98 120.99 204.02 120.69 
M 203.62 137.25 204.76 136.79 206.85 135.11 208.19 133.2 208.19 132.02 206.85 130.12 204.76 128.44 203.66 128 
M 203.39 148.58 204.93 147.89 206.9 146.09 208.17 144.06 208.17 142.81 206.9 140.78 204.93 138.99 203.5 138.34 
M 200.95 158.26 202.45 157.53 204.37 155.66 205.62 153.55 205.62 152.24 204.37 150.12 202.52 148.32 
M 199.33 152.04 203.53 151.13 
M 199.48 152.99 203.1 153.11 
M 199.28 153.96 203.37 154.24 
M 203.53 162.67 202.88 161.13 201.18 158.82 200.76 158.54 
M 203.07 185.47 204.53 183.19 205.63 180.2 205.63 178.35 204.75 175.96 
M 200.17 177.75 203.91 176.83 
M 200.16 179.38 203.72 179.23 
M 200.52 180.96 203.69 181.64 
M 208.07 194.85 208.07 193.76 207 190.99 205.35 188.55 204.06 187.59 
M 203.05 193.24 206.09 192.4 
M 208.69 118.99 210.4 118.72 212.6 118.05 213.42 117.6 
M 208.51 125.26 210.27 124.83 212.52 123.75 213.97 122.53 213.97 121.77 212.52 120.54 210.27 119.46 208.51 119.03 
M 208.22 133.64 210.03 133.08 212.35 131.63 213.85 129.99 213.85 128.97 212.35 127.33 210.03 125.88 208.22 125.32 
M 206.4 128.56 211.31 128.41 
M 206.52 129.35 211.38 129.5 
M 206.82 130.27 211.28 130.66 
M 207.87 143.67 209.65 143 211.93 141.3 213.4 139.37 213.4 138.18 211.93 136.25 209.65 134.54 207.87 133.88 
M 206.8 154.21 208.57 153.5 210.84 151.66 212.3 149.58 212.3 148.29 210.84 146.21 208.57 144.38 207.72 144.03 
M 209.68 161.81 210.56 160.36 210.56 158.9 209.13 156.55 206.9 154.47 205.17 153.66 
M 205.23 179.55 206.85 178.62 208.58 176.63 
M 207.68 194.19 208.68 193.58 210.71 191.09 212.02 188.26 212.02 186.52 210.71 183.69 208.68 181.2 207.09 180.23 
M 209.26 195.25 208.36 194.75 
M 213.45 122.56 214.76 122.21 216.46 121.3 217.56 120.26 217.56 119.62 216.46 118.59 214.36 117.57 
M 211.95 119.71 215.56 119.09 
M 211.97 120.02 215.42 119.67 
M 212.32 120.34 215.76 120.48 
M 213.37 130.12 214.75 129.62 216.52 128.33 217.66 126.86 217.66 125.96 216.52 124.5 214.75 123.21 213.45 122.73 
M 213 139.25 214.42 138.64 216.25 137.08 217.42 135.31 217.42 134.22 216.25 132.45 214.42 130.89 213.31 130.42 
M 211.96 149.4 213.31 148.7 215.03 146.92 216.14 144.9 216.14 143.65 215.03 141.64 213.31 139.85 212.88 139.63 
M 210.91 160.61 212.43 159.87 214.37 157.97 215.62 155.81 215.62 154.47 214.37 152.32 212.43 150.41 211.78 150.1 
M 211.4 161.6 210.4 160.4 210.05 160.18 
M 211.55 187.12 211.88 186.88 213.67 184.33 214.82 181.43 214.82 179.64 213.98 177.53 
M 215.73 197.33 216.29 195.95 216.29 194.32 215.23 191.68 213.59 189.36 212.31 188.45 
M 211.32 193.58 214.41 193.1 
M 211.26 195.25 214.12 195.13 
M 217.17 119.74 218.58 119.47 220.46 118.78 221.66 117.99 221.66 117.51 221.02 117.09 
M 215.51 117.58 216.81 117.47 
M 215.99 117.6 219.68 117.92 
M 215.7 117.96 219.3 118.28 
M 217.25 126.22 218.61 125.82 220.51 124.7 221.74 123.43 221.74 122.64 220.51 121.37 218.61 120.24 217.17 119.82 
M 217.12 134.88 218.66 134.3 220.64 132.83 221.92 131.17 221.92 130.14 220.64 128.48 218.66 127.01 217.25 126.49 
M 216.7 144.81 218.29 144.14 220.33 142.42 221.65 140.48 221.65 139.28 220.33 137.34 218.29 135.62 217 135.08 
M 215.89 155.69 217.55 154.96 219.68 153.09 221.05 150.96 221.05 149.65 219.68 147.53 217.55 145.65 215.89 144.92 
M 219.73 160.26 218.48 158.22 216.27 156.15 215.17 155.63 
M 214.4 180.57 215.92 179.74 217.67 177.82 
M 215.91 194.95 217.21 194.17 219.2 191.77 220.49 189.06 220.49 187.38 219.2 184.66 217.21 182.26 215.65 181.33 
M 213.88 186.85 217.92 186.33 
M 214.12 188.25 218.22 188.25 
M 213.9 189.74 218.19 190.01 
M 219.95 198.49 217.9 196.06 216.41 195.23 
M 221.3 122.09 221.93 121.89 223.36 120.96 224.28 119.91 224.28 119.26 223.36 118.22 221.93 117.29 221.23 117.06 
M 221.46 129.84 222.02 129.58 223.46 128.21 224.39 126.67 224.39 125.71 223.46 124.17 222.02 122.8 221.3 122.47 
M 221.22 140.02 222.44 139.37 223.99 137.72 225 135.84 225 134.68 223.99 132.8 222.44 131.15 221.46 130.63 
M 220.62 150.55 221.94 149.83 223.64 147.97 224.73 145.86 224.73 144.56 223.64 142.46 221.94 140.6 221.18 140.18 
M 222.76 159.94 223.15 159.49 224.26 157.28 224.26 155.91 223.15 153.7 221.43 151.75 220.56 151.25 
M 218.84 155.33 222.44 155.12 
M 219.02 156.66 222.32 156.86 
M 218.55 157.65 222.32 158.41 
M 220.03 188.11 220.59 187.7 222.26 185.24 223.34 182.46 223.34 180.74 222.4 178.33 
M 223.14 199.15 224.3 196.39 224.3 194.81 223.29 192.26 221.73 190.01 220.5 189.13 
M 224.27 119.17 225.61 118.9 227.33 118.2 228.43 117.41 228.43 116.92 227.22 116.08 
M 224.32 125.82 225.67 125.37 227.39 124.21 228.5 122.9 228.5 122.09 227.39 120.78 225.67 119.62 224.32 119.17 
M 224.65 134.91 226.04 134.3 227.82 132.75 228.96 130.99 228.96 129.91 227.82 128.15 226.04 126.6 224.65 125.99 
M 224.85 145.47 226.33 144.77 228.23 142.97 229.46 140.93 229.46 139.66 228.23 137.62 226.33 135.82 224.85 135.12 
M 224.43 156.69 225.99 155.93 227.98 153.99 229.26 151.8 229.26 150.44 227.98 148.25 225.99 146.31 224.43 145.55 
M 222.82 150.19 226.78 149.3 
M 223.16 150.94 226.94 151.27 
M 222.78 152.21 226.84 153.08 
M 227.55 159.95 227.23 159.4 225.12 157.31 223.87 156.7 
M 223.05 181.52 224.69 180.63 226.26 178.94 
M 223.94 195.13 225.25 194.33 227.17 192.02 228.4 189.41 228.4 187.79 227.17 185.18 225.25 182.87 223.76 181.97 
M 222.16 187.28 226.01 186.64 
M 222.37 188.86 226.28 188.34 
M 222.17 190.22 226.38 190.45 
M 228.16 199.65 227.52 198.37 225.69 196.28 224.27 195.47 
M 227.73 116.08 228.85 115.9 230.39 115.37 
M 228.05 121.34 228.85 121.08 230.28 120.15 231.2 119.09 231.2 118.44 230.28 117.39 228.85 116.46 227.73 116.1 
M 226.9 118.29 229.28 117.8 
M 226.74 118.54 229.32 119.04 
M 226.84 119.38 229.28 119.44 
M 228.55 129.13 228.99 128.92 230.43 127.51 231.35 125.92 231.35 124.93 230.43 123.34 228.99 121.93 228.11 121.5 
M 229.02 139.79 229.79 139.33 231.28 137.56 232.24 135.55 232.24 134.31 231.28 132.3 229.79 130.52 228.62 129.83 
M 228.92 151.28 230.17 150.53 231.77 148.62 232.8 146.45 232.8 145.11 231.77 142.94 230.17 141.03 229.02 140.34 
M 227.8 144.88 230.91 144.4 
M 227.51 145.73 230.75 145.69 
M 227.54 146.77 230.95 147.5 
M 231.16 159.52 232.03 157.6 232.03 156.18 230.99 153.88 229.37 151.86 228.8 151.5 
M 227.96 187.89 228.51 187.51 230.16 185.21 231.23 182.61 231.23 181 230.36 178.88 
M 230.01 199.71 230.68 198.7 231.64 196.17 231.64 194.61 230.68 192.09 229.19 189.86 228.03 188.99 
M 231.44 118.61 232.82 118.33 234.59 117.63 235.73 116.84 235.73 116.35 234.59 115.55 232.99 114.92 
M 230.24 116.27 233.42 116.26 
M 230.2 116.62 233.69 116.62 
M 230.27 117.01 233.75 116.99 
M 231.51 125.32 232.9 124.86 234.67 123.69 235.82 122.36 235.82 121.54 234.67 120.21 232.9 119.03 231.51 118.57 
M 230.41 121.21 233.6 120.7 
M 230.29 121.98 233.51 121.76 
M 230.08 122.63 233.48 123.03 
M 232 134.67 233.4 134.04 235.19 132.44 236.35 130.62 236.35 129.5 235.19 127.69 233.4 126.08 232 125.46 
M 232.61 145.68 234.05 144.95 235.89 143.09 237.09 140.98 237.09 139.67 235.89 137.56 234.05 135.69 232.61 134.96 
M 231.03 138.96 234.83 138.45 
M 231.43 140.25 234.7 140.36 
M 231.5 141.68 235.15 141.81 
M 232.51 157.24 234.01 156.46 235.92 154.45 237.16 152.17 237.16 150.77 235.92 148.49 234.01 146.48 232.51 145.7 
M 234.66 159.13 233.68 158.09 232.09 157.26 
M 231.75 182.3 233.36 181.43 235.43 179.22 235.69 178.74 
M 231.64 195.05 233.12 194.2 235.01 192 236.22 189.52 236.22 187.98 235.01 185.49 233.12 183.3 231.64 182.44 
M 235.6 199.87 234.77 198.16 233.04 196.15 231.69 195.36 
M 231.22 199.75 233.79 199.35 
M 235.15 115.76 236.33 115.58 237.85 115.11 238.83 114.58 238.81 114.24 
M 235.64 114.57 237.08 114.73 
M 235.41 121.06 236.34 120.77 237.85 119.84 238.83 118.78 238.83 118.12 237.85 117.07 236.34 116.13 235.15 115.77 
M 233.95 117.92 237.28 117.66 
M 234.25 118.53 236.88 118.68 
M 234.22 119.19 237.32 119.18 
M 235.93 128.94 236.5 128.67 238.03 127.25 239.01 125.64 239.01 124.64 238.03 123.03 236.5 121.61 235.41 121.1 
M 236.66 139.66 237.38 139.23 238.9 137.43 239.88 135.39 239.88 134.12 238.9 132.08 237.38 130.28 236.19 129.57 
M 236.72 151.47 237.9 150.72 239.44 148.74 240.43 146.51 240.43 145.13 239.44 142.9 237.9 140.93 236.69 140.16 
M 240.23 158.23 240.28 156.64 239.23 154.23 237.6 152.1 236.72 151.52 
M 235.85 188.92 237.18 188.08 238.89 185.92 239.99 183.47 239.99 181.96 238.89 179.51 238.43 178.93 
M 234.5 181.72 237.72 180.79 
M 234.76 182.85 238.26 182.95 
M 234.75 183.97 237.95 184.86 
M 236.84 199.9 238.05 198.17 238.99 195.81 238.99 194.34 238.05 191.98 236.59 189.89 235.79 189.31 
M 239.07 118.5 240.49 118.23 242.32 117.53 243.5 116.73 243.5 116.24 242.32 115.44 240.49 114.74 239.07 114.47 
M 239.15 125.23 240.58 124.77 242.41 123.6 243.59 122.27 243.59 121.44 242.41 120.11 240.58 118.93 239.15 118.47 
M 239.65 134.61 241.08 133.98 242.9 132.37 244.08 130.55 244.08 129.42 242.9 127.6 241.08 125.99 239.65 125.36 
M 238.22 129.15 241.91 128.4 
M 238.39 129.8 242.04 129.77 
M 238.25 131.14 241.84 131.15 
M 240.31 145.73 241.74 144.99 243.57 143.1 244.75 140.96 244.75 139.63 243.57 137.49 241.74 135.6 240.31 134.86 
M 240.47 157.61 241.93 156.81 243.81 154.75 245.02 152.41 245.02 150.97 243.81 148.64 241.93 146.58 240.47 145.77 
M 241.49 158.33 240.41 157.72 
M 240.25 182.97 241.79 182.12 243.76 179.95 244.68 178.18 
M 241.8 178.56 242.82 178.7 
M 239.56 194.87 241.03 194.06 242.92 192 244.14 189.66 244.14 188.21 242.92 185.87 241.03 183.81 239.59 183.02 
M 242.78 200.19 242.78 199.69 241.68 197.5 239.98 195.57 238.65 194.81 
M 237.31 198.99 240.62 198.82 
M 243.08 115.85 245.7 115.21 246.68 114.68 246.68 114.35 246.21 114.1 
M 243.17 121.19 244.18 120.88 245.71 119.95 246.69 118.89 246.69 118.23 245.71 117.17 244.18 116.24 243.08 115.9 
M 243.66 129.09 244.35 128.77 245.88 127.36 246.86 125.75 246.86 124.76 245.88 123.16 244.35 121.75 243.17 121.19 
M 242.04 124.61 244.82 124.04 
M 242.05 125.15 245.17 125 
M 241.84 126.33 245.01 126.4 
M 244.33 139.71 245.13 139.23 246.64 137.44 247.61 135.41 247.61 134.15 246.64 132.12 245.13 130.33 243.95 129.63 
M 242.76 133.79 245.85 133.41 
M 242.66 134.84 245.77 134.85 
M 242.77 135.65 245.69 136.58 
M 244.59 151.46 245.62 150.78 247.14 148.79 248.13 146.52 248.13 145.12 247.14 142.86 245.62 140.86 244.42 140.08 
M 248.22 158.25 248.22 156.99 247.21 154.55 245.64 152.41 244.59 151.68 
M 244.27 189.44 245.54 188.62 247.16 186.52 248.21 184.14 248.21 182.67 247.16 180.29 245.45 178.13 
M 242.66 200.03 243.84 199.28 245.35 197.38 246.33 195.22 246.33 193.88 245.35 191.72 243.7 189.73 
M 246.74 118.44 248.16 118.16 249.98 117.46 251.15 116.67 251.15 116.17 249.98 115.38 248.16 114.68 246.74 114.4 
M 246.82 125.15 248.24 124.69 250.05 123.52 251.22 122.19 251.22 121.37 250.05 120.04 248.24 118.87 246.82 118.41 
M 247.28 134.49 248.68 133.86 250.46 132.26 251.62 130.44 251.62 129.32 250.46 127.5 248.68 125.89 247.28 125.27 
M 246.19 129.01 249.28 128.65 
M 245.96 129.99 249.54 130.09 
M 246.16 130.73 249.46 131.03 
M 247.94 145.66 249.32 144.92 251.07 143.02 252.21 140.86 252.21 139.53 251.07 137.37 249.32 135.47 247.94 134.72 
M 248.24 157.7 249.63 156.89 251.42 154.81 252.58 152.46 252.58 151 251.42 148.65 249.63 146.57 248.24 145.75 
M 249.31 158.41 248.25 157.77 
M 248.23 183.23 249.69 182.38 251.56 180.2 252.77 177.73 252.77 176.8 
M 247.42 194.82 248.92 194.04 250.83 192.04 252.06 189.77 252.06 188.37 250.83 186.1 248.92 184.1 247.83 183.53 
M 246.11 187.65 249.64 187.47 
M 245.96 189.3 249.76 189.16 
M 246.13 190.51 249.54 190.72 
M 250.34 200.29 250.34 199.15 249.15 197.03 247.29 195.15 245.98 194.49 
M 250.48 115.63 251.66 115.45 253.17 114.98 254.14 114.45 254.06 114.07 
M 250.8 120.9 251.66 120.63 253.17 119.7 254.14 118.65 254.14 117.99 253.17 116.94 251.66 116 250.49 115.64 
M 251.2 128.78 251.8 128.5 253.3 127.09 254.26 125.49 254.26 124.5 253.3 122.91 251.8 121.5 250.8 121.03 
M 249.31 123.92 252.44 123.61 
M 249.66 125 252.26 124.71 
M 249.27 125.93 252.73 126.01 
M 251.8 139.39 252.49 138.96 253.92 137.15 254.84 135.11 254.84 133.84 253.92 131.8 252.49 130 251.38 129.29 
M 252.17 151.39 253.11 150.7 254.51 148.69 255.4 146.4 255.4 144.98 254.51 142.7 253.11 140.68 252.03 139.89 
M 255.65 158.49 255.67 156.91 254.72 154.47 253.23 152.32 252.17 151.55 
M 252.14 189.66 253.36 188.83 254.91 186.7 255.91 184.29 255.91 182.8 254.91 180.39 253.36 178.26 252.34 177.57 
M 250.62 200.16 251.93 199.43 253.61 197.55 254.7 195.43 254.7 194.12 253.61 192 251.93 190.13 251.62 189.95 
M 250.05 200.29 249.91 200.2 
M 254.31 118.26 255.67 117.99 257.42 117.29 258.55 116.5 258.55 116.01 257.42 115.22 255.67 114.53 254.31 114.25 
M 254.35 124.89 255.71 124.44 257.45 123.29 258.57 121.99 258.57 121.18 257.45 119.88 255.71 118.73 254.35 118.28 
M 254.61 133.95 255.92 133.34 257.61 131.78 258.69 130.02 258.69 128.92 257.61 127.16 255.92 125.6 254.61 124.99 
M 255.08 144.85 256.23 144.17 257.84 142.28 258.87 140.14 258.87 138.82 257.84 136.68 256.23 134.79 254.97 134.05 
M 253.76 138.49 257.13 137.73 
M 253.66 139.71 257.25 139.62 
M 253.9 140.33 256.85 140.96 
M 255.41 157.27 256.71 156.44 258.38 154.31 259.46 151.91 259.46 150.42 258.38 148.01 256.71 145.89 255.41 145.06 
M 257.42 158.6 257.18 158.31 255.78 157.43 
M 255.94 183.34 257.38 182.48 259.22 180.25 260.41 177.73 260.41 176.17 260.2 175.72 
M 255.53 195.33 257.04 194.53 258.97 192.48 260.22 190.16 260.22 188.72 258.97 186.4 257.04 184.35 255.55 183.56 
M 259.02 199.8 257.72 197.68 255.7 195.86 254.31 195.23 
M 258.14 115.55 260.66 114.9 261.56 114.26 
M 257.07 114.47 259.78 114.27 
M 256.88 114.35 260.03 114.42 
M 258.16 120.85 259.22 120.5 260.62 119.58 261.53 118.54 261.53 117.9 260.62 116.85 259.22 115.93 258.14 115.58 
M 257.29 117.74 260.02 117.66 
M 256.84 118.48 260.01 118.5 
M 257.31 118.75 260.17 119.06 
M 258.31 128.58 259.25 128.12 260.64 126.78 261.53 125.26 261.53 124.33 260.64 122.81 259.25 121.47 258.17 120.95 
M 258.5 138.29 259.27 137.79 260.58 136.11 261.42 134.2 261.42 133.02 260.58 131.11 259.27 129.43 258.31 128.81 
M 259.07 149.35 260.43 147.19 261.23 144.87 261.23 143.43 260.43 141.11 259.2 139.06 258.5 138.48 
M 257.34 142.9 259.94 142.64 
M 257.32 143.98 259.77 144.23 
M 257.03 145.51 259.49 145.76 
M 262.64 158.47 262.83 157.95 262.83 156.35 261.89 153.77 260.43 151.49 259.3 150.6 
M 258.5 156.1 260.99 155.03 
M 258.36 156.94 260.99 157.18 
M 259.99 176.65 261.07 175.71 
M 259.86 189.94 261.06 189.07 262.6 186.84 263.59 184.31 263.59 182.75 262.6 180.23 261.06 178 259.99 177.22 
M 261.84 199.56 262.46 198.83 263.54 196.6 263.54 195.22 262.46 192.99 260.79 191.02 259.77 190.42 
M 261.31 117.5 262.57 117.23 264.19 116.54 265.24 115.76 265.24 115.27 263.92 114.38 
M 259.81 115.33 263.48 114.98 
M 259.82 115.41 263.55 115.26 
M 259.98 115.82 263.14 116 
M 261.28 123.98 262.54 123.55 264.16 122.43 265.2 121.16 265.2 120.38 264.16 119.11 262.54 118 261.28 117.56 
M 261.24 132.64 262.48 132.06 264.07 130.57 265.09 128.88 265.09 127.84 264.07 126.15 262.48 124.66 261.24 124.08 
M 261.12 143.32 262.34 142.58 263.9 140.69 264.91 138.55 264.91 137.22 263.9 135.08 262.34 133.19 261.12 132.45 
M 259.74 137.07 263.2 136.43 
M 260.11 137.65 263.35 138.08 
M 260.18 139.05 262.98 139.71 
M 262.49 156.19 263.32 155.63 265 153.37 266.08 150.81 266.08 149.23 265 146.67 263.32 144.41 262.01 143.53 
M 265.08 158.28 264.74 157.84 263.31 156.92 
M 263.69 183.49 265.12 182.61 266.95 180.33 268.13 177.76 268.13 176.17 267.42 174.62 
M 263.59 195.84 265.05 195.02 266.92 192.91 268.13 190.51 268.13 189.03 266.92 186.64 265.05 184.53 263.59 183.7 
M 266.42 198.85 264.22 196.71 263.16 196.23 
M 264.45 119.41 265.46 119.06 266.76 118.15 267.6 117.12 267.6 116.48 266.76 115.46 265.18 114.45 
M 264.87 115.87 265.96 115.77 
M 263.71 116.67 266.2 116.63 
M 263.22 117.32 266.15 117.73 
M 264.67 126.87 265.4 126.5 266.7 125.2 267.54 123.73 267.54 122.81 266.7 121.34 265.4 120.04 264.83 119.75 
M 264.55 136.2 265.17 135.81 266.47 134.18 267.31 132.33 267.31 131.19 266.47 129.34 265.17 127.71 264.73 127.43 
M 265.14 147.11 266.28 145.28 267.16 142.78 267.16 141.24 266.28 138.75 264.91 136.55 264.57 136.28 
M 263.87 140.53 265.34 140.19 
M 262.78 141.9 265.29 142.07 
M 262.8 143.4 265.44 144.13 
M 270.3 157.89 270.39 155.9 269.4 153.06 267.86 150.56 266.66 149.58 
M 265.25 155.32 268.57 154.47 
M 265.39 156.93 268.65 156.55 
M 267.71 177.13 268.82 176.29 270.36 173.97 
M 267.69 189.88 268.76 189.08 270.24 186.85 271.19 184.32 271.19 182.76 270.24 180.24 268.76 178.01 267.71 177.22 
M 270.69 197.89 271.15 196.82 271.15 195.4 270.16 193.11 268.61 191.08 267.69 190.48 
M 266.03 195.23 269.57 194.47 
M 265.98 196.34 269.28 195.92 
M 266.54 197.55 269.64 197.58 
M 267.68 116.13 268.92 115.86 270.94 114.85 
M 267.66 122.62 268.91 122.18 270.51 121.07 271.54 119.8 271.54 119.02 270.51 117.75 268.91 116.63 267.66 116.2 
M 267.62 131.3 268.88 130.72 270.49 129.22 271.53 127.52 271.53 126.46 270.49 124.76 268.88 123.26 267.62 122.68 
M 266.41 126.29 269.46 125.89 
M 266.18 127 269.46 126.84 
M 266.52 128.11 269.74 128.22 
M 267.64 142.31 268.94 141.55 270.61 139.58 271.68 137.35 271.68 135.97 270.61 133.74 268.94 131.77 267.64 131 
M 269.19 156.3 270.59 155.37 272.38 152.99 273.53 150.3 273.53 148.63 272.38 145.94 270.59 143.56 269.19 142.63 
M 272.85 158.2 272.49 157.73 271.04 156.8 
M 271.28 183.31 272.69 182.43 274.5 180.17 275.67 177.61 275.67 176.03 274.5 173.47 273.95 172.78 
M 270.2 175.77 273.65 175.16 
M 269.64 176.72 273.69 176.68 
M 269.93 178.31 273.48 178.71 
M 271.17 195.81 272.59 194.97 274.4 192.82 275.57 190.38 275.57 188.87 274.4 186.43 272.59 184.28 271.17 183.44 
M 272.62 197.24 272.24 196.87 270.75 196.14 
M 270.9 118.14 271.95 117.78 273.31 116.86 274.19 115.81 274.19 115.44 
M 271.16 125.8 272.01 125.39 273.38 124.05 274.26 122.54 274.26 121.6 273.38 120.08 272.01 118.75 271.17 118.34 
M 271.3 135.66 272.09 135.17 273.49 133.43 274.39 131.47 274.39 130.25 273.49 128.29 272.09 126.56 271.16 125.98 
M 270.02 129.96 272.64 129.24 
M 270.23 130.99 272.85 130.82 
M 270.09 131.95 272.92 132.42 
M 271.55 148.63 272.72 147.72 274.21 145.41 275.17 142.79 275.17 141.17 274.21 138.56 272.72 136.24 271.55 135.34 
M 278.19 158.87 278.51 157.97 278.51 156.22 277.5 153.39 275.93 150.89 274.71 149.92 
M 275.19 176.79 276.38 175.92 277.9 173.67 278.88 171.12 
M 275.67 172.14 277.35 172.53 
M 274.7 189.3 275.86 188.43 277.35 186.2 278.31 183.68 278.31 182.11 277.35 179.59 275.86 177.36 274.7 176.49 
M 273.32 181.4 276.7 180.8 
M 273.47 183.06 276.4 183 
M 273.71 184.45 276.82 184.56 
M 278.64 195.09 277.7 192.79 276.18 190.66 274.99 189.83 
M 273.57 194.6 276.75 194.04 
M 274.01 196.01 276.12 196.05 
M 274.47 121.72 275.75 121.28 277.4 120.15 278.47 118.86 278.47 118.07 277.4 116.79 275.89 115.75 
M 274.53 130.59 275.82 129.99 277.48 128.45 278.55 126.7 278.55 125.62 277.48 123.88 275.82 122.34 274.53 121.74 
M 273.28 125.23 276.64 125.08 
M 273.4 126.2 276.68 126.12 
M 273.21 127.18 276.77 127.44 
M 274.88 142.02 276.2 141.22 277.9 139.18 278.99 136.87 278.99 135.44 277.9 133.13 276.2 131.09 275.12 130.44 
M 273.84 134.75 276.87 134.49 
M 273.74 136.09 277.15 135.87 
M 273.74 137.23 277.25 137.97 
M 278.15 155.53 280.06 153.02 281.21 150.26 281.21 148.56 280.06 145.81 278.27 143.38 276.87 142.43 
M 281.48 159.37 280.25 157.78 278.81 156.85 
M 278.84 183.09 280.28 182.22 282.13 179.97 283.32 177.43 283.32 175.86 282.13 173.32 280.28 171.08 279.85 170.82 
M 277.28 175.59 280.91 174.48 
M 277.29 176.51 281.41 176.47 
M 277.42 178 281.13 178.58 
M 280.7 194.27 282.03 192.69 283.22 190.23 283.22 188.7 282.03 186.23 280.19 184.05 278.75 183.2 
M 277.99 117.52 279.07 117.16 279.55 116.84 
M 278.17 125.24 279.13 124.78 280.51 123.44 281.4 121.92 281.4 120.98 280.51 119.46 279.13 118.12 278.05 117.6 
M 278.6 135 279.21 134.61 280.59 132.86 281.47 130.88 281.47 129.66 280.59 127.68 279.21 125.93 278.17 125.26 
M 277.09 129.36 279.76 128.72 
M 276.91 130.25 280.13 130.54 
M 276.92 131.23 279.9 131.84 
M 278.82 148.32 279.9 147.4 281.29 145.03 282.18 142.35 282.18 140.69 281.29 138.01 279.9 135.64 278.82 134.71 
M 285.75 158.99 286.1 157.95 286.1 156.17 285.12 153.29 283.6 150.74 282.41 149.75 
M 282.92 176.84 284.13 175.96 285.68 173.7 286.68 171.14 286.68 169.55 286.45 168.95 
M 282.8 189.26 283.8 188.56 285.39 186.33 286.42 183.8 286.42 182.24 285.39 179.71 283.8 177.48 282.55 176.61 
M 285.14 192.35 283.95 190.72 282.75 189.89 
M 281.35 120.85 282.75 120.41 284.54 119.28 285.05 118.72 
M 280.01 117.05 280.11 117.03 
M 279.76 117.74 281.61 117.55 
M 280.29 118.34 283.71 118.7 
M 281.38 129.7 282.76 129.1 284.51 127.56 285.65 125.81 285.65 124.74 284.51 122.99 282.76 121.45 281.38 120.85 
M 281.75 141.27 283.12 140.46 284.87 138.38 286 136.02 286 134.55 284.87 132.19 283.12 130.11 282.08 129.49 
M 284.15 156.19 285.56 155.21 287.36 152.69 288.52 149.83 288.52 148.07 287.36 145.21 285.56 142.7 284.15 141.71 
M 282.9 147.62 286.68 146.67 
M 282.89 149.02 286.62 148.95 
M 282.62 150.44 286.14 151.19 
M 286.53 170.73 287.97 169.78 289.81 167.34 
M 289.08 159.07 287.97 157.62 286.53 156.66 
M 286.74 183.3 288.2 182.42 290.08 180.16 291.28 177.61 291.28 176.03 290.08 173.47 288.2 171.22 286.74 170.34 
M 291.08 189.59 291.08 188.85 289.9 186.41 288.06 184.26 286.62 183.42 
M 285.24 123.9 285.89 123.62 287.45 122.29 288.46 120.79 288.46 119.87 
M 284.07 119.45 286.18 119.1 
M 283.28 120.47 286.72 120.43 
M 283.67 121.33 286.7 121.61 
M 285.6 133.53 287.42 131.64 288.41 129.67 288.41 128.45 287.42 126.48 285.88 124.74 285.24 124.38 
M 285.35 147.43 286.55 146.46 288.1 143.98 289.1 141.17 289.1 139.42 288.1 136.61 286.55 134.13 285.35 133.16 
M 283.97 138.98 287.5 138.11 
M 284.36 140.57 287.37 140.06 
M 283.91 141.75 287.06 142.51 
M 292.97 160.33 293.78 157.87 293.78 155.99 292.78 152.96 291.23 150.27 290.02 149.23 
M 290.76 177.09 291.97 176.18 293.52 173.88 294.52 171.26 294.52 169.64 293.52 167.03 292.78 165.93 
M 289.86 169.04 292.67 168.6 
M 289.7 170.47 292.61 170.21 
M 289.56 171.74 292.73 172.23 
M 291.03 189.61 291.93 188.97 293.48 186.75 294.48 184.23 294.48 182.67 293.48 180.16 291.93 177.94 290.72 177.07 
M 289.31 120.95 290.62 120.62 
M 289.1 129.61 290.67 129.02 292.68 127.5 293.98 125.79 293.98 124.72 292.68 123.01 290.67 121.49 289.1 120.9 
M 289.42 141.22 290.99 140.41 292.99 138.32 294.29 135.96 294.29 134.5 292.99 132.13 290.99 130.04 289.42 129.23 
M 293.42 155.22 295.35 152.7 296.61 149.84 296.61 148.06 295.35 145.2 293.41 142.67 291.88 141.68 
M 290.27 147.23 294.14 146.66 
M 290.58 149.19 294.59 149.19 
M 291.05 150.3 294.32 151.08 
M 294.31 170.8 295.77 169.84 297.63 167.39 298.83 164.61 298.83 163.04 
M 297.92 160.77 297.63 160.11 295.77 157.65 294.31 156.69 
M 294.52 183.28 295.93 182.41 297.73 180.18 298.89 177.65 298.89 176.08 297.73 173.56 295.93 171.33 294.52 170.46 
M 297.51 187.06 297.14 186.26 295.44 184.16 294.12 183.34 
M 292.88 188.04 296.51 187.32 
M 293.57 125.11 294.98 124.62 297.05 123.05 
M 293.82 134.95 294.87 134.44 296.66 132.71 297.81 130.74 297.81 129.53 296.66 127.56 294.87 125.83 293.47 125.15 
M 294.19 148.29 295.6 147.36 297.41 144.97 298.58 142.26 298.58 140.58 297.41 137.87 295.6 135.48 294.4 134.68 
M 298.4 164.19 299.22 163.53 299.82 162.57 
M 300.87 160.82 301.84 158.06 301.84 156.26 300.81 153.36 299.22 150.79 297.98 149.79 
M 298.49 176.93 299.68 176.05 301.2 173.79 302.18 171.23 302.18 169.65 301.2 167.09 299.68 164.83 298.68 164.09 
M 300.66 186.09 301.48 183.87 301.48 182.38 300.59 179.96 299.21 177.82 298.12 176.99 
M 298.06 130.74 299.81 130.16 302.05 128.69 303.49 127.01 303.49 126.22 
M 298.38 142.32 300.13 141.52 302.36 139.48 303.81 137.18 303.81 135.75 302.36 133.44 300.13 131.4 298.38 130.6 
M 301.47 156.03 302 155.72 304.08 153.3 305.41 150.57 305.41 148.88 304.08 146.14 302 143.73 300.38 142.79 
M 302.14 170.56 303.58 169.65 305.42 167.31 306.61 164.66 306.61 163.02 305.42 160.37 303.58 158.03 302.14 157.12 
M 301.79 182.5 303.12 181.67 304.83 179.55 305.93 177.14 305.93 175.65 304.83 173.25 303.12 171.12 301.79 170.29 
M 303.55 185.23 301.91 183.11 301.16 182.63 
M 302.98 126.2 303.28 126.11 
M 302.5 136.44 304.02 135.76 305.96 134.02 307.21 132.05 307.21 130.83 305.96 128.86 304.02 127.12 302.98 126.66 
M 304.93 148.42 306.77 146.24 308.01 143.65 308.01 142.05 306.77 139.46 304.84 137.17 303.34 136.28 
M 306.01 164.39 307.26 163.45 308.85 161.04 309.88 158.31 309.88 156.62 308.85 153.89 307.26 151.49 306.01 150.55 
M 306.07 176.39 307.2 175.56 308.64 173.44 309.57 171.04 309.57 169.55 308.64 167.15 307.2 165.03 306.07 164.2 
M 307.03 184.26 307.74 182.43 307.74 181.04 306.87 178.79 305.54 176.82 
M 307.61 132.57 309.42 131.99 311.56 130.63 
M 306.05 127.67 306.16 127.65 
M 306.02 128.5 307.52 128.38 
M 305.79 129.32 309.51 129.44 
M 307.91 143.9 309.7 143.14 312 141.18 313.49 138.96 313.49 137.59 312 135.37 309.7 133.41 307.91 132.65 
M 309.13 157.14 310.73 156.28 312.78 154.05 314.1 151.53 314.1 149.96 312.78 147.44 310.73 145.22 309.13 144.35 
M 307.43 149.18 311.74 148.75 
M 307.65 150.55 311.8 150.7 
M 307.43 151.99 311.82 152.62 
M 309.74 169.96 311.11 169.11 312.85 166.94 313.97 164.47 313.97 162.95 312.85 160.49 311.11 158.31 309.74 157.47 
M 308.72 181.46 310.02 180.66 311.67 178.62 312.74 176.3 312.74 174.87 311.67 172.56 310.02 170.52 309.24 170.04 
M 309.84 183.48 308.58 181.95 307.26 181.16 
M 312.61 138.8 314.13 138.12 316.07 136.4 317.33 134.44 317.33 134.02 
M 313.63 150.69 314.63 150.13 316.48 148.05 317.68 145.7 317.68 144.24 316.48 141.88 314.63 139.8 313.18 138.99 
M 311.52 143.55 315.68 143.31 
M 311.58 145.15 315.34 144.83 
M 311.67 145.97 315.74 146.79 
M 313.98 163.82 315.12 162.99 316.58 160.86 317.52 158.44 317.52 156.95 316.58 154.54 315.12 152.4 313.98 151.57 
M 312.92 175.24 313.94 174.44 315.26 172.41 316.11 170.11 316.11 168.68 315.26 166.38 313.94 164.34 312.92 163.55 
M 314.66 182.17 314.87 181.65 314.87 180.22 313.95 177.93 312.36 175.78 
M 317.15 134.45 317.71 134.26 
M 317.31 145.24 318.96 144.52 321.09 142.68 322.46 140.6 322.46 139.31 321.09 137.23 318.96 135.39 317.31 134.67 
M 317.38 157.02 318.84 156.24 320.71 154.24 321.92 151.97 321.92 150.57 320.71 148.3 318.84 146.3 317.38 145.52 
M 316.63 168.74 317.88 167.94 319.49 165.89 320.52 163.58 320.52 162.14 319.49 159.83 317.88 157.78 316.63 156.98 
M 315.52 180.63 316.78 179.82 318.4 177.74 319.44 175.38 319.44 173.92 318.4 171.56 316.78 169.48 315.8 168.84 
M 316.3 181.71 316.05 181.42 314.66 180.59 
M 321.68 140.04 322.99 139.38 324.1 138.27 
M 321.76 151.19 323 150.46 324.6 148.59 325.64 146.48 325.64 145.17 324.6 143.05 323 141.19 321.76 140.46 
M 320.61 162.12 321.64 161.36 322.95 159.44 323.8 157.26 323.8 155.91 322.95 153.74 321.48 151.7 
M 319.06 173.73 320 172.95 321.25 170.86 322.06 168.49 322.06 167.02 321.25 164.66 320 162.57 319.03 161.75 
M 322.1 179.98 321.21 177.27 319.81 175.09 319.06 174.51 
M 317.61 179.37 320.4 178.37 
M 317.74 180.59 320.26 180.49 
M 325.5 145.44 326.96 144.76 328.83 143.01 329.62 141.71 
M 324.64 156.09 325.97 155.37 327.68 153.52 328.78 151.43 328.78 150.14 327.68 148.05 325.97 146.21 325.27 145.83 
M 323.23 149.97 326.62 148.92 
M 323.63 150.76 326.57 150.99 
M 323.25 151.68 326.7 152.15 
M 322.9 167.09 324.1 166.31 325.64 164.33 326.63 162.08 326.63 160.68 325.64 158.43 324.1 156.45 322.9 155.67 
M 322.01 179.67 323.24 178.81 324.81 176.63 325.83 174.16 325.83 172.63 324.81 170.16 323.24 167.98 322.01 167.12 
M 322.19 179.95 322.09 179.89 
M 329.21 150.62 330.36 149.93 331.84 148.16 332.8 146.16 332.8 144.92 331.95 143.15 
M 326.97 160.42 327.99 159.71 329.29 157.89 330.13 155.84 330.13 154.56 329.29 152.51 328.39 151.25 
M 327.18 153.86 328.68 153.81 
M 326.28 155.35 328.35 155.21 
M 325.91 156.04 328.73 156.81 
M 325.46 171.67 325.98 171.23 327.23 169.12 328.04 166.72 328.04 165.24 327.23 162.84 325.98 160.72 325 159.9 
M 328.3 177.7 327.7 175.86 326.36 173.52 325.46 172.74 
M 332.93 145.04 334.09 144.47 
M 331.56 155.05 332.86 154.36 334.53 152.59 335.6 150.59 335.6 149.36 334.53 147.36 332.86 145.59 332.45 145.38 
M 331.32 148.59 333.88 148.31 
M 330.47 150.11 333.58 150.21 
M 330.2 150.96 333.45 151.22 
M 329.15 165.5 330.43 164.74 332.06 162.78 333.11 160.57 333.11 159.2 332.06 156.98 330.43 155.03 329.15 154.27 
M 328.01 158.66 331.13 158.29 
M 327.8 160.13 330.97 160.08 
M 328.01 161.11 331.33 161.8 
M 330.23 176.98 331.41 175.4 332.5 172.82 332.5 171.22 331.41 168.64 329.71 166.36 328.38 165.48 
M 336.61 150.19 337.7 149.51 339.2 147.56 
M 333.47 158.96 334.54 158.28 335.9 156.54 336.78 154.57 336.78 153.35 335.9 151.38 334.54 149.64 333.47 148.96 
M 331.16 170.57 332.35 169.73 333.88 167.58 334.86 165.15 334.86 163.64 333.88 161.21 332.74 159.6 
M 334.99 175.19 334.8 174.65 333.27 172.15 332.07 171.18 
M 338.43 154.2 339.71 153.51 341.36 151.73 342.39 149.78 
M 336.3 165.08 337.77 164.3 339.65 162.28 340.86 160 340.86 158.59 339.65 156.31 337.77 154.3 336.46 153.6 
M 340.65 173.23 340.92 172.69 340.92 171.06 339.61 168.44 337.57 166.12 335.97 165.22 
M 340.52 158.76 341.65 158.01 342.39 157.04 
M 342.39 149.49 342.35 149.43 
M 340.06 172.05 341.56 171.17 342.39 170.19 
M 342.39 160.95 341.56 159.97 340.43 159.3 
M 338.6 164.32 342.39 163.94 
M 338.85 165.37 342.36 165.62 
M 338.49 166.88 342.39 167.57 
M 341.47 172.95 340.6 172.39 
M 181.47 131.93 181.47 131.93 
M 190.72 196.25 191.69 194.06 191.69 192.4 190.5 189.72 189.52 188.46 
M 188.15 191.57 189.65 191.16 
M 188.11 128.17 188.11 128.17 
M 197.47 199.43 198.74 197.61 199.82 194.88 199.82 193.18 199.4 192.11 
M 198.49 123.03 198.49 123.03 
M 204.52 202.36 205.02 201.37 205.02 199.82 203.74 197.32 201.76 195.11 200.22 194.25 
M 208.17 118.79 208.17 118.79 
M 204.56 201.26 205.35 200.68 207 198.24 208.07 195.47 208.07 194.85 
M 202.6 193.37 203.05 193.24 
M 202.55 196.01 206.39 196.5 
M 206.74 203.26 205.9 202.21 204.65 201.44 
M 214.36 117.57 214.36 117.57 
M 216.23 206.89 216.23 206.48 215.21 204.25 213.65 202.28 212.61 201.63 
M 221.23 117.06 221.23 117.06 
M 220.58 202.01 221.73 201.19 223.14 199.15 
M 223.8 209 224.2 208.11 224.2 206.74 223.19 204.53 221.63 202.58 220.58 201.93 
M 224.27 207.44 225.69 206.63 227.52 204.55 228.7 202.19 228.7 200.73 228.16 199.65 
M 226.82 209.42 225.48 208.06 224.1 207.35 
M 232.99 114.92 232.99 114.92 
M 230.67 202.17 233.59 202.98 
M 234.51 209.86 234.17 209.23 232.48 207.47 231.35 206.87 
M 235.48 201.05 236.59 200.26 236.84 199.9 
M 233.92 205.58 236.89 205.03 
M 234.13 206.9 236.86 206.54 
M 234.07 207.9 236.94 208.11 
M 238.65 205.91 239.98 205.16 241.68 203.23 242.78 201.04 242.78 200.19 
M 237.18 200.08 240.98 200.1 
M 242.12 210.27 241.11 208.44 239.41 206.69 238.11 206.02 
M 246.21 114.1 246.21 114.1 
M 240.6 204.23 243.22 203.47 
M 240.37 206.06 243.3 206.59 
M 249.47 210.43 249.47 209.84 248.34 207.89 246.6 206.17 245.24 205.5 
M 256.95 210.07 256.95 209.43 255.77 207.61 253.94 206 252.52 205.37 
M 259.12 209.87 260.76 208.37 261.88 206.56 261.88 205.44 260.76 203.63 259.02 202.03 258.56 201.82 
M 263.92 114.38 263.92 114.38 
M 259.64 209.21 262.83 208.88 
M 267.41 201.92 268.61 201.13 270.16 199.11 270.69 197.89 
M 269.81 207.92 270.19 207.29 270.19 206.15 269.1 204.32 267.42 202.7 267.04 202.51 
M 270.75 206.95 272.24 206.22 274.15 204.33 275.38 202.2 275.38 200.88 274.15 198.75 272.62 197.24 
M 269.39 200.59 273.39 200.09 
M 271.05 207.52 270.54 207.15 268.94 206.55 
M 274.19 115.44 274.19 115.44 
M 276.12 196.05 277.06 196.07 
M 274.11 196.97 277 198.07 
M 283.1 202.15 283.1 200.99 281.91 198.79 280.06 196.85 278.61 196.09 
M 282.75 202.07 283.95 201.24 285.49 199.13 286.48 196.72 286.48 195.24 285.49 192.84 285.14 192.35 
M 282.49 202.45 282.22 202.29 
M 285.05 118.72 285.05 118.72 
M 288.46 119.87 288.46 119.87 
M 290.72 189.83 291.03 189.61 
M 292.98 189.13 296.37 189.16 
M 292.62 190.58 296.32 191.33 
M 297.05 123.05 297.05 123.05 
M 298.12 189.26 299.21 188.43 300.66 186.09 
M 300.02 193.56 299.44 191.97 298.17 189.98 297.84 189.73 
M 296.33 193.6 298.62 193.29 
M 302.39 192.62 303.51 191.18 304.55 188.88 304.55 187.45 303.55 185.23 
M 299.94 187.05 302.52 186.67 
M 303.28 126.11 303.28 126.11 
M 305.8 191.32 305.25 189.85 303.91 187.81 302.86 187.02 
M 306.16 127.65 306.16 127.65 
M 307.52 128.38 307.52 128.38 
M 309.51 129.44 309.51 129.44 
M 311.42 186.76 312.53 185.97 313.95 183.94 314.66 182.17 
M 312.56 188.8 311.47 187.3 310.27 186.47 
M 318.97 186.31 318.97 185.95 317.83 183.54 316.3 181.71 
M 319.67 186.03 321.21 183.73 322.1 181.27 322.1 179.98 
M 317.56 182 320.27 182.21 
M 318.3 186.58 318.24 186.54 
M 329.62 141.71 329.62 141.71 
M 320.52 184.87 322.68 184.77 
M 327.89 182.23 328.57 180.16 328.57 178.52 328.3 177.7 
M 331.25 180.58 330.74 179.9 329.35 178.96 
M 335.79 178.36 335.79 177.49 334.99 175.19 
M 225.05 116.57 226.11 109.67 226.29 106.12 227.03 102.77 227.41 97.4 228.16 93.18 230.49 83.39 232.19 77.38 232.95 73.86 234.06 73.05 235.23 71.8 236.05 70.4 235.92 66.02 236.64 63.98 238.87 61.14 240.75 59.47 240.96 57.77 242.5 55.95 244.17 54.37 245.32 52.91 246.53 51.84 249.02 48.63 249.95 46.43 250.92 45.63 251.24 44.48 255.21 42.4 257.52 40.56 260.46 37.62 263.4 36.13 264.74 35.06 266.3 33.74 267.52 32.45 269.07 30 268.59 36.87 268.71 38.46 269.35 41.98 269.31 43.21 270.03 46.47 269.86 49.38 270.07 51.13 270.57 52.79 272.17 55.31 272.82 56.85 272.92 57.86 273.97 61.43 273.65 62.87 273.95 66.85 273.86 68.76 273.52 70.43 273.77 72.43 274.23 74.49 273.59 77.55 273.5 79.41 272.95 82.57 273.16 84.47 273.68 86.13 273.67 87.36 275.5 93.34 276.49 95.36 276.81 96.7 279.17 100.11 280.14 102.09 281.86 107.1 282.05 108.34 282.76 110.08 282.99 111.34 283.56 112.53 284.92 114.47 285.31 116.93 285.94 119.02 
M 283.42 118.17 283.42 118.17 
M 227.95 115.92 228.83 109.3 229.01 105.82 229.6 102.04 229.51 100.54 229.73 98.5 230.19 96.3 230.41 94.19 232.16 87.26 232.29 84.22 232.97 82.21 232.89 80.14 233.71 78.2 233.69 76.55 234.66 75.3 235.95 74.56 237.18 72.85 237.77 71.35 237.89 69.56 238.88 64.9 239.96 63.51 240.3 62.29 241.6 61.77 242.76 60.57 243.2 59.04 244.88 57.04 248.14 54.63 249.22 52.95 250.22 50.85 251.62 49.67 252.75 47.6 254.08 45.96 255.67 44.86 260.01 42.3 261.42 40.34 262.64 39.06 265.87 37.31 
M 230.84 115.26 231.6 112.05 231.73 108.76 232.48 103.6 232.42 101.66 233.93 93.67 235.17 88.07 235.15 86.23 235.7 83.09 235.72 81 236.64 77.73 237.58 76.22 238.86 75.29 240.29 72.1 240.66 70.04 241.38 68.03 242.89 66.96 244.18 65.74 244.66 64.1 246.99 61.28 248.91 59.81 250.88 58.7 251.95 57.47 253.4 56.44 255.05 52.79 256.24 51.5 257.66 50.28 258.69 49.88 
M 233.78 114.82 234.27 113.24 234.75 107.69 234.96 102.6 235.53 100.82 235.96 98.82 236.6 97.12 236.66 95.31 237 93.18 237.59 91.34 238.68 89.6 239.03 87.78 238.6 86.48 239.3 82.69 240.23 81.36 240.78 79.28 242.63 76.58 243.11 74.4 243.78 72.98 
M 236.73 114.43 237.19 112.9 237.47 108.9 238.9 99.71 239.19 96.35 239.61 94.62 241.38 91.27 241.66 89.52 242.19 87.92 242.02 86.98 243.78 83.7 243.93 81.9 244.99 79.85 246.42 78.79 247.43 77.55 247.99 76.43 249.44 75.13 250.58 73.33 253.31 70.82 254.18 69.11 254.67 67.31 256.37 65.83 260.18 61.88 262.19 60.1 
M 239.69 114.22 240.17 112.79 240.51 111.03 241.01 107.48 241.11 105.32 242.52 98.26 242.95 96.54 244.18 93.78 244.57 91.83 245.31 89.84 246.41 88.22 248.2 84.76 250.38 81.71 250.94 80.31 251.57 79.63 252.4 78 
M 242.66 114.15 243.42 112.91 244.57 105.25 245.04 100.21 245.3 98.95 246.07 97.36 246.49 95.86 247.46 93.63 249.82 90.58 250.66 88.65 255.55 79.75 
M 245.63 114.1 246.37 112.82 246.86 110.94 247.36 107.23 247.37 103.58 248.31 98.58 249.44 96.92 250.94 93.32 252.2 92.14 253.16 90.66 253.91 89.09 
M 248.6 114.09 249.34 112.64 249.96 108.95 250.68 101.93 251.08 100.09 251.9 98.02 252.73 96.48 253.08 94.94 253.89 93.2 254.94 92.15 256.48 88.76 258.46 85.88 
M 251.57 114.08 252.27 112.68 253.05 107.36 252.94 105.52 252.64 103.99 253.01 102 255.54 96.79 256.84 93.39 
M 254.54 114.07 255.13 112.75 255.62 110.93 255.87 109.17 255.73 105.95 256.08 104.1 256.96 101.13 257.66 99.35 258.1 97.1 258.81 95.66 260.44 94.2 263.15 90.98 264.66 90.24 266.16 89.22 268 88.85 
M 257.51 114.07 258.24 112.7 258.66 110.86 259.42 104.26 259.82 102.95 261.36 99.67 262.78 97.86 
M 260.48 114.21 261.37 113 262.42 106.2 263.67 102.48 264.47 100.88 
M 263.44 114.35 264.13 113.32 265.15 106.11 266.26 103.83 267.34 102.28 268.07 100.9 269.35 99.96 272.94 98 
M 266.41 114.52 266.95 113.76 266.87 112.24 267.05 110.66 268.22 106.75 
M 269.37 114.7 269.69 114 269.96 110.15 270.66 108.49 
M 272.32 115.1 272.73 114.46 273.59 110.5 
M 275.24 115.63 275.99 115.12 276.64 113.12 278.21 112.15 
M 278.12 116.35 281.97 114.8 
M 280.93 117.32 285.45 117.07 
M 188.42 164.67 191.83 164.1 195.39 163.81 205.96 162.38 211.49 161.59 215.18 160.85 220.32 160.16 222.21 159.94 227.35 159.97 235.16 159.08 236.82 158.82 238.39 158.34 240.34 158.23 242.24 158.4 245.64 158.04 247.55 158.13 249.1 158.4 259.7 158.65 269.23 157.86 271.07 157.92 274.48 158.61 279.86 159.02 281.57 159.39 287.54 158.82 289.5 159.14 291.08 160.03 294.01 160.54 297.7 160.78 303.44 160.84 285.36 169.47 281.68 170.16 270.23 174.02 264.81 175.02 263.28 175.58 257.35 175.89 253.84 176.55 248.83 177.79 243.5 178.25 240.36 178.87 238.55 178.94 232.51 178.53 230.84 178.74 229.37 179.15 227.69 179.1 222.21 178.29 213.63 177.48 193.29 173.96 190.56 172.88 188.38 171.75 
M 188.5 165.73 191.95 165.35 195.53 165.4 199.11 165.23 206.11 164.52 209.87 164.41 215.33 163.78 218.96 163.75 224.41 164.06 228 163.57 229.6 163.8 236.83 163.76 240.4 164.02 
M 188.53 166.82 191.94 166.7 197.28 167.08 201.04 167 202.72 166.79 210.49 167.36 215.72 167.08 217.5 167.14 219.16 167.34 221.03 167.87 222.75 168.03 224.7 167.79 226.66 167.93 231.61 168.54 234.6 169.24 236.63 169.37 249.67 171.22 250.91 171.12 254.83 172.23 
M 188.5 167.9 191.97 168.13 197.31 168.77 204.47 169.13 210.49 169.91 214.13 170.1 217.47 170.7 219.37 170.69 223.15 171.46 226.38 172.6 230.86 173.88 
M 190.1 169.19 193.85 169.84 197.41 170.77 202.99 171.59 204.64 172.1 210.53 172.46 216.58 174.95 
M 192.19 171.07 199.65 173.62 
M 212.08 210.06 214.68 214.27 216.08 217.61 216.76 219.76 218.57 223.2 219.66 225.09 221.1 226.6 222.86 231.72 223.71 233 225.41 236.33 226.76 237.69 228.16 239.43 229.35 241.72 230.33 243.05 230.64 243.84 226.58 250.13 225.88 253.81 224.31 256.83 223.65 258.63 222.43 259.86 220.79 260.67 219.4 261.76 218.21 263.09 217.56 264.95 216.54 266.45 215.78 268.2 214.35 269.28 213.4 270.85 212.25 272.22 209.45 274.3 204 280 204.81 277.94 204.4 271.38 204.08 268.39 203.57 266.01 204.73 263.39 204.22 261.83 204.14 256.26 204.27 254.06 203.63 252.01 203.84 250 204.29 248.19 204.17 246.42 203.79 244.43 203.93 242.94 204.4 241.36 204.54 239.76 204.59 235.53 205.17 227.69 205.94 224.1 206.07 222.25 205.9 220.73 206.06 219.12 205.92 217.35 206.22 215.44 206.28 211.5 206.07 209.46 205.59 207.17 
M 210.99 209.57 213.24 213.76 213.93 215.66 214.23 217.45 215.65 221.3 216.17 223.4 217.54 226.76 219.56 230.24 220.02 231.87 221.54 234.6 222.91 238.96 223.19 240.43 223.76 241.92 224.72 243.56 225.2 244.8 225.2 246.97 
M 209.91 209.09 211.04 211.29 212.43 215.25 212.75 217.25 213.38 218.96 214.41 222.64 214.61 224.68 215.63 228.11 216.6 229.48 218.34 232.86 219.44 234.51 219.94 236.25 220.19 237.93 219.89 239.45 220.21 241.51 220.21 243.41 221.35 246.82 221.16 248.76 223.72 252.45 224.43 254.09 
M 208.82 208.61 209.82 210.74 210.39 212.75 211.88 220.67 212.61 222.03 213.2 223.78 213.02 226.01 213.09 228.09 213.43 229.96 213.94 231.64 215.1 233.11 216.49 236.38 216.78 237.92 216.6 240.84 216.92 243.15 218.2 247.02 218.61 248.84 219.05 255.74 218.99 259.02 220.14 260.67 
M 207.74 208.13 208.56 210.36 208.95 212.27 209.32 216.63 209.76 218.63 209.81 220.31 211.07 223.26 210.64 225.37 210.62 227.59 211.62 233.6 211.45 235.57 211.52 237.55 211.95 239.36 212.99 240.84 212.92 243.2 212.42 245.23 212.93 246.52 213.22 248.43 213.94 250.55 214.34 252.94 214.17 254.98 214.38 258.57 216.02 267.23 
M 206.65 207.64 207.3 209.89 207.82 213.85 208.08 217.81 208 219.8 208.4 224.89 208.43 226.77 208.07 228.88 208.02 230.78 208.19 234.49 208.54 239.66 209.17 240.85 209.16 242.8 208.49 244.65 208.17 247.79 209.44 257.99 210.4 259.41 209.85 263.05 210.95 267.66 209.8 269.02 
M 315.85 190.44 318.48 193.41 322.96 197.74 324.34 200.69 325.94 206.01 325.59 207.3 324.97 208.69 323.99 210.17 321.78 210.35 320.27 210.95 319.29 211.99 318.09 212.51 312.48 213.27 306.96 214.93 305.05 214.56 301.55 213.53 300.67 214.14 299.24 214.21 298.16 214.02 289.99 211.87 287.81 210.8 286.41 208.68 283.42 206.41 
M 313.11 191.6 317.02 196.03 318.77 197.64 321 199.06 322.51 199.73 
M 310.38 192.75 312.91 195.05 314.27 196.93 315.86 198.71 318.19 200.03 320.09 201.64 321.08 202.75 
M 307.64 193.91 309.85 196.06 313.32 198.63 316.75 202.27 319.34 204.44 
M 304.91 195.06 306.92 197.32 308.67 198.63 310.44 199.56 311.58 201.19 313.34 202.46 314.31 204.25 317.63 206.27 318.8 207.62 320.26 208.65 
M 302.18 196.23 305.61 200.55 307.24 201.43 309.2 202.79 312.3 206.17 
M 299.46 197.44 301.26 199.69 302.98 201.42 304.79 202.74 306.63 203.7 309.62 206.58 
M 296.75 198.65 298.64 200.93 300.38 202.59 302.46 203.63 306.07 206.1 
M 294.13 200.05 298.14 203.95 302.69 206.85 303.98 208.01 305.21 208.77 307.72 212.01 
M 291.53 201.48 295.91 205.08 300.05 208.1 305.76 213.58 
M 288.95 202.97 294.04 206.4 295.9 207.88 297.12 209.17 
M 286.43 204.54 289.53 206.72 293.02 209.77 
M 341.8 149.12 345.4 147.8 348.66 145.99 350.22 145.02 352.87 143 354.54 142.13 355.65 140.68 358.84 138.89 362.3 137.62 365.92 135.61 370.35 132.15 373.89 131.03 375.05 130.1 376.92 129.58 380.96 125.78 383.29 124.7 385.17 123.36 386.01 122.49 387.63 121.54 389.66 118.95 391.13 118.39 392.36 118.58 393.81 117.85 397.14 115.61 398.91 114.61 401.29 113.77 403.88 111.48 405.16 110.68 406.59 110.22 407.23 108.85 409.06 107.84 393.66 122.34 393.01 124 390.74 126.34 390.14 128.04 389.38 131.89 388.79 133.76 387.74 135.19 386.41 136.35 385.91 140.35 384.76 141.45 384.1 142.9 383.74 146.73 383.76 148.81 382.76 154.08 381.51 155.24 380.39 156.56 379.78 160.47 379.66 162.46 379.02 164.03 378.1 165.45 378.36 167.55 379.68 170.4 380.12 172.69 380.04 174.37 381.09 176.22 382.21 179.66 382.53 182.86 382.53 186.16 385.47 189.91 386.67 192.01 387.88 195.12 392.11 201.32 393.84 205.3 394.51 208.24 394.48 208.87 410.71 223.45 408.82 222.39 404.31 221.42 402.56 220.61 399.68 218.35 398.75 216.5 397.15 215.02 395.53 213.98 394.68 212.84 392.98 212.12 390.42 211.72 388.57 211.14 387.99 209.95 386.8 208.4 385.02 207.21 383.15 206.3 381.98 205.18 377.73 201.88 372.72 198.46 371.47 197.2 368.24 195.76 364.71 194.71 362.58 191.64 357.96 189.09 353.25 184.86 350.34 183.21 341.8 177.02 
M 341.8 150.51 343.73 150.09 347.28 148.74 352.18 146.23 355.38 144.51 356.84 143.18 358.23 142.22 361.36 140.39 364.76 139.45 366.33 138.53 368.01 137.99 371.7 135.2 374.8 133.4 378.55 133.09 381.16 131.46 383.1 129.61 
M 345.39 150.88 350.93 148.79 354.34 147.72 360.37 144.22 362.29 144.07 363.77 143.09 365.47 142.49 366.85 141.5 370.42 139.97 372.67 138.65 374.26 137.47 
M 347.09 151.77 354.79 149.54 356.22 148.66 357.62 148.34 361.46 146.81 365.36 146.18 
M 345.65 154.13 349.37 153.11 351.45 152.37 355.46 151.36 362.04 149.22 364.32 149.13 366.05 149.33 368.86 148.48 373.52 146.38 376.14 144.98 
M 345.77 155.93 349.38 155.43 353.72 154.36 357.63 153.08 359.32 152.35 362.9 151.36 364.19 151.58 366.15 151.02 367.53 150.95 370.01 151.49 
M 344.07 157.76 355.38 156.52 357.38 155.93 359.54 155.64 361.12 154.75 362.8 154.25 364.85 153.99 367.5 154.3 368.73 154.29 
M 347.67 159.15 350.99 158.83 354.73 158.84 358.5 157.77 360.82 157.5 362.9 156.96 365.27 155.97 367.26 155.59 368.58 156.01 
M 341.8 160.28 349.55 161.14 353.39 160.84 356.58 160.16 358.48 160.08 
M 344.16 162.17 350.05 162.5 352.34 162.4 354.37 162.54 355.79 162.14 357.5 162.37 363.08 161.72 364.95 162.37 366.8 161.64 368.83 161.14 371.21 161.34 373.43 161.12 376.1 162.67 
M 345.99 164.05 347.96 164.2 352.44 163.55 356.73 163.91 360.25 164.6 364.15 164.04 
M 346 165.43 347.76 165.74 352.7 165.69 354.67 165.96 359.79 167.46 363.3 167.09 365.66 167.42 
M 344.14 166.64 345.8 166.85 350.03 167.87 354.7 168.42 357.73 169.68 361.8 169.57 363.73 169.78 366.12 170.28 
M 341.8 167.25 343.99 168.17 345.91 168.47 350.33 169.53 354.25 170.62 355.78 171.27 357.66 171.7 359.38 171.69 361.29 172.5 363.42 172.33 367.64 172.88 370.08 174.48 
M 343.85 169.68 350.03 171.3 353.77 172.55 355.44 172.72 357.15 173.43 359.22 174.8 361.13 174.66 362.65 174.74 365.52 175.16 367.47 175.7 371.75 178.1 
M 347.76 172.28 349.56 173.28 354.94 174.65 356.71 175.68 358.73 176.58 360.56 177.12 364.71 177.82 368.49 179.49 
M 345.79 173.16 347.9 173.89 349.53 174.66 353.13 175.61 356.43 177.83 357.85 179.25 359.81 179.95 361.95 180.03 365.68 181.45 367.36 182.78 369.57 183.41 
M 347.87 175.66 350.91 177.15 352.77 178.33 355.82 179.93 359.04 182.43 361.01 182.77 362.91 183.37 364.64 184.24 366.13 185.3 368.18 186.26 371.55 186.74 373.48 187.57 
M 347.75 177.29 352.69 180.57 356.27 182.05 357.35 183.35 358.56 184.37 360.79 185.25 362.08 186.36 363.51 187.26 365.13 187.99 366.99 188.56 370.69 189.45 374.09 190.9 377.37 193.05 379.32 194.08 380.69 195.42 382.75 196.83 384.02 198.43 
M 347.38 179.04 350.69 181.53 352.5 182.21 355.36 183.98 356.64 185.3 358.6 186.93 361.94 189.13 364.27 191.04 365.74 191.73 367.83 192.28 369.47 192.99 371.13 193.74 372.3 194.59 376.06 196.3 378.25 196.6 379.3 198.04 381.31 198.94 
M 334.31 179.34 331.37 181.3 330.24 183.28 329.18 183.83 326.61 183.19 325.56 183.48 324.6 184.14 323.46 184.61 321.85 187.56 322.34 187.45 
M 123.48 159.43 124.58 157.96 125.94 156.68 127.94 155.24 137.4 149.72 141.05 147.25 145.42 145.09 150.13 143.22 159.3 138.85 163.45 137.07 167.19 135.69 173.74 133.69 176.47 133.16 178.58 132.93 179.68 132.98 181.58 136.24 185.49 146.1 187.06 152.78 187.31 156.18 187.92 159.53 188.29 162.92 188.55 166.31 188.34 173.17 189 179.94 188.95 186.78 188.51 190.25 187.57 193.76 186.09 197.28 177.79 196.84 171.63 196.06 161.4 193.81 156.94 192.45 152.42 190.81 148.29 188.89 141.67 185.1 138.53 182.88 
M 137.97 182.39 135.6 180.28 132.78 177.36 130.07 174.25 127.78 171.21 126.05 168.28 125.32 166.52 
M 171.85 152.83 172.26 155.7 172.19 158.49 171.84 161.15 170.56 165.95 170.48 168.04 170.91 171.85 172.31 176.15 172.76 178.71 172.85 181.59 163.08 181.76 155.38 181.45 151.71 180.93 147.85 179.92 144.28 178.39 
M 137.91 182.31 132.87 175.88 129.1 171.42 121.94 161.85 121.97 160.36 123.13 159.38 124.67 159.63 125.6 160.84 130.71 169.84 132.38 172.2 138.9 182.62 
M 138.61 183.06 125.19 180.97 119.01 180.24 110.18 178.92 109.28 177.83 109.56 176.44 110.88 175.75 125.45 178.99 138.71 182.51 
M 151 161.23 149.86 159.64 149.3 157.76 149.38 155.81 150.09 153.99 151.36 152.49 153.04 151.49 154.96 151.09 156.9 151.33 158.66 152.19 160.04 153.57 160.9 155.33 161.14 157.27 160.74 159.19 159.74 160.87 158.25 162.14 156.42 162.85 154.47 162.93 152.59 162.37 151 161.23 
M 159.07 154.26 159.76 155.67 159.95 157.23 159.63 158.76 158.83 160.1 157.64 161.11 156.18 161.68 154.61 161.75 153.11 161.3 151.84 160.39 
M 153.07 158.26 152.62 157.63 152.4 156.88 152.43 156.09 152.71 155.37 153.22 154.77 153.89 154.37 154.66 154.21 155.43 154.3 156.14 154.65 156.69 155.2 157.04 155.9 157.13 156.68 156.97 157.45 156.57 158.12 155.97 158.63 155.24 158.91 154.46 158.94 153.71 158.72 153.07 158.26 
M 153.01 157.95 153.8 158.75 
M 153.79 157.13 155.48 158.82 
M 154.07 155.8 156.47 158.21 
M 154.94 155.07 157.03 157.16 
M 156.35 154.87 156.71 155.24 
M 125.84 167.79 128.17 170.11 
M 123.95 158.77 126.96 161.78 
M 125.68 156.93 128.48 159.73 
M 127.72 155.4 130.78 158.47 
M 129.93 154.05 133.13 157.25 
M 132.19 152.75 135.28 155.84 
M 134.47 151.46 137.45 154.44 
M 136.7 150.13 139.96 153.39 
M 138.86 148.73 140.98 150.84 
M 140.99 147.29 142.88 149.18 
M 143.37 146.11 145.74 148.48 
M 145.78 144.95 149.23 148.4 
M 148.33 143.94 151.53 147.13 
M 150.85 142.89 152.77 144.82 
M 153.28 141.76 156.02 144.5 
M 155.7 140.61 157.96 142.87 
M 158.09 139.44 160.81 142.16 
M 160.53 138.32 162.6 140.38 
M 163.03 137.25 165.75 139.97 
M 165.61 136.27 167.64 138.29 
M 168.25 135.34 170.26 137.35 
M 170.94 134.46 173.91 137.43 
M 173.73 133.69 176.15 136.11 
M 176.73 133.13 179.92 136.32 
M 141.52 163.86 139.88 163.19 139.02 163.07 138.26 163.19 137.26 163.74 135.95 165.26 135.85 165.6 
M 173.18 146.5 173.03 145.39 172.31 144.34 171.53 144.18 170.8 144.63 
M 146.95 157.36 145.42 157.44 142.75 156.33 142.11 155.92 141.08 154.81 139.92 152.97 139.09 152.19 
M 169.06 151.89 168.3 152.05 167.61 152.5 165.48 153.24 164.73 153.1 164.35 152.85 164.06 152.42 163.98 151.85 
M 165.84 155.56 165.2 154.62 163.71 153.79 163.41 152.46 
M 174.16 189.23 173.85 187.63 173.89 184.5 174.03 184.04 174.31 183.62 174.79 183.31 175.44 183.57 175.86 183.94 
M 187.05 194.99 186.35 194.46 185.99 193.68 185.85 191.78 186.24 190.37 
M 184.43 165.94 183.12 166.06 182.02 166.58 181.04 166.7 
M 170.71 190.58 170.86 189.92 170.73 188.9 170.49 188.24 170.12 187.89 169.17 188.05 167.73 189.03 
M 165.21 149.1 164.56 149.36 163.98 149.1 163.74 148.5 163.93 147.77 
M 149.24 149.3 148.95 148.81 148.71 147.58 147.64 146.63 147.54 145.42 
M 166.23 150.51 165.37 151.16 164.81 151.19 163.89 150.1 163.5 148.95 
M 151.81 152.23 150.79 149.91 
M 162.71 179.84 161.6 180.79 159.63 183.57 
M 172.63 182.18 173.56 182.83 174.72 183.02 175.21 183.26 175.89 183.81 176.43 184.67 
M 169.79 149.43 168.69 149.75 165.71 152.18 165.35 152.32 164.57 152.13 164.12 151.44 
M 128.32 165.57 128.06 165.33 
M 183.17 142.82 182.43 143.98 
M 151.25 152.14 150.91 150.37 150.4 149.47 
M 164.47 161.2 164.11 160.7 163.1 160.04 
M 172.91 180.21 174.88 181.26 175.26 181.62 176.77 184.16 176.91 184.57 176.66 185.23 
M 160.38 178.71 159.83 179.12 158.49 179.33 157.95 179.15 157.58 178.65 
M 162.79 194.13 163.25 193.44 164.41 193.22 165.53 193.46 166.64 194.18 
M 181.59 152.67 181.76 151.73 182.74 149.15 182.7 147.13 182.44 146.01 
M 178.08 138.25 175.02 134.66 174.77 134.1 174.75 133.49 
M 145.51 185.9 146.5 184.79 146.83 183.41 146.58 182.6 145.6 181.65 
M 176.28 165.66 175.63 165.13 174.69 164.98 172.35 166.98 171.12 167.59 
M 166.23 181.7 164.53 180.27 163.8 179.94 163.01 180.08 161.85 180.79 
M 141.36 168.58 141.27 165.71 140.93 165.09 139.72 164.55 138.97 164.52 138.41 164.68 
M 184.29 192.46 184.07 191.56 184.26 189.66 184.41 189.41 184.92 189.21 
M 133.73 162.76 132.45 164.22 130.65 165.23 129.31 165.29 127.72 164.69 
M 172.56 135.33 173.03 133.89 
M 177.67 162.41 177.1 162.09 175.96 161.78 175.01 161.95 173.84 162.97 171.14 165.91 
M 158 180.9 158.95 181.45 159.69 182.43 159.7 183.19 159.09 184.06 
M 144.02 173.52 143.34 172.21 143.18 170.65 141.59 166.72 141.4 165.91 
M 168.5 178.33 167.14 178.41 166.41 178.25 164.74 176.53 
M 158.21 164.37 158.23 163.65 157.65 162.37 
M 171.78 177.55 168.59 176.17 166.78 174.05 
M 169.76 153.62 165.6 153.7 164.35 153.44 164.07 153.24 
M 179.85 147.92 181.01 147.22 181.48 146.65 181.74 145.74 181.68 144.44 181.85 144.01 
M 169.47 155.12 168.8 154.54 168.04 154.23 164.32 153.55 
M 161.95 191.66 161.97 190.95 161.68 190.39 160.33 189.73 159.08 188.62 
M 186.45 149.84 184.85 148.01 183.05 146.31 182.34 144.28 
M 150.93 161.13 150.48 161.33 
M 165.46 180.04 164.69 179.55 163.93 179.33 163.55 179.45 161.84 180.72 
M 144.97 187.08 145.86 186.68 146.17 186.22 
M 178.56 145.52 180.47 145.91 180.84 145.64 181.36 144.54 
M 144.03 167.26 142.83 166.09 140.37 164.53 139.04 164.32 138.2 164.53 
M 166.6 180.78 165.1 179.69 163.97 179.25 163.6 179.37 162.87 180 
M 179.96 137.74 178.4 137.35 177.16 136.61 175.56 135.19 174.96 134.28 
M 167.93 159.21 167.58 158.16 167.52 156.03 167.09 155.33 
M 159.15 177.71 155.69 176.8 152.21 176.36 151.55 176.11 
M 161.84 159.87 162.54 161.62 163.12 162.3 
M 142.12 170.89 141.26 165.57 140.82 164.98 139.56 164.51 
M 181.09 160.84 180.01 160.4 176.4 158.32 175.61 157.43 175.02 156.35 174.7 155 
M 131.45 174.17 130.46 174.69 
M 166.79 150.89 165.36 152.04 164.74 151.96 164.32 151.6 163.6 149.6 
M 152.9 188.87 151.46 188.12 148.13 185.88 147.17 184.87 147.12 183.85 
M 160.71 150.59 160.85 149.34 161.66 147.89 162.06 147.49 162.86 146.84 163.52 146.61 164.03 146.67 164.31 147.07 
M 174.87 175.59 173.9 174.85 171.31 173.64 170.55 173.43 169.72 173.45 
M 172.78 151.5 170 149.8 169.63 149.72 168.72 149.98 168.11 150.35 166.15 152.02 165.36 152.46 
M 128.56 155.23 128.74 155.98 128.29 156.33 
M 138.99 179.37 138.32 178.84 137.83 178.12 137.52 177.41 137.42 176 138.21 174.13 139.42 172.69 
M 183.16 162.42 184.6 164.04 184.69 164.53 
M 145.93 172.34 145.13 170.86 144.05 167.62 142.93 166.3 141.66 165.46 
M 167.09 168.11 166.4 168.02 165.53 168.27 163.21 170.38 
M 184.74 191.75 185.44 190.01 186.23 189.62 187.75 189.26 
M 183.06 166.82 182.4 166.98 181.08 166.95 
M 169.87 150.14 168.8 150.22 168.12 150.56 166.17 152.2 165.39 152.59 164.92 152.58 164.53 152.35 164.12 151.7 
M 177.62 164.83 176.56 163.73 175.56 163.34 174.98 163.32 173.91 163.91 172.17 165.96 171.24 166.8 
M 162.08 160.5 162.77 161.89 163.16 162.26 163.63 162.32 
M 159.86 171.45 159.28 171.41 158.58 171.04 
M 125.89 159.41 125.9 159.18 126.12 159.13 
M 173.16 186.71 173.21 184.44 173.62 183.58 174.2 183.17 174.7 183.08 175.62 183.59 176.06 184.07 
M 182.72 155.35 181.63 154.06 181.35 152.64 181.46 151.86 182.58 149.34 182.7 148.43 
M 166.66 150.63 165.3 151.68 164.72 151.6 164.35 151.11 163.55 149.36 
M 186.36 196.65 183.55 195.41 182.4 193.62 
M 160.69 149.86 160.81 149.28 161.6 147.87 162.41 147.11 163.17 146.66 163.78 146.56 164.18 146.75 164.32 147.19 
M 187.8 190.15 188.67 188.95 
M 187.85 171.93 188.35 172.73 
M 154.84 148.28 154.47 148.57 153.61 148.82 151.01 148.97 150.37 148.52 149.97 147.46 
M 186.59 150.53 185.6 149.07 183.13 146.54 182.77 145.86 182.4 144.52 
M 155.25 183.98 154.78 182.74 154.77 182.2 155.05 181.24 156.11 179.1 156.16 178.62 155.85 177.29 155.36 176.93 
M 150.51 167.85 151.12 166.73 151.32 165.53 149.85 164.14 
M 150.86 161.04 149.98 161.3 148.08 161.04 146.31 160.49 144.77 159.79 
M 176.87 145.06 176.8 144.43 176.27 143.77 175.47 143.42 174.23 143.29 173.7 142.9 
M 136.66 159.11 135.84 158.42 135.43 157.62 135.14 155.92 135.52 154.06 
M 179.21 194.56 177.38 194.91 176.75 194.63 176.56 194.04 177.29 191.94 
M 145.45 187.34 146.08 186.84 
M 175.26 162.98 174.67 163.1 174.14 163.41 171.51 166.44 169.28 167.62 
M 176.89 186.66 175.76 186.33 175.45 185.95 175.29 185.53 175.28 184.72 175.44 184.48 175.7 184.66 
M 149.83 159.55 148.39 160.22 147.49 160.33 146.1 160.03 143.01 158.63 
M 132.07 176.44 131.99 176.46 
M 150.61 186.09 150.12 185.8 148.04 183.83 147.75 182.97 147.85 181.64 
M 151.08 188.99 148.35 187.31 146.9 186.07 146.78 185.39 
M 160.33 153.57 160.2 151.49 160.44 149.16 161.1 147.52 162.23 146.51 
M 163.98 164.32 164.52 163.92 164.68 163.43 164.24 161.96 
M 173.11 157.24 173.73 154.37 173.53 153.79 172.63 153.01 
M 146.84 150.52 146.32 149.81 146.02 148.83 145.94 147.84 146.17 146.95 147.43 144.77 147.41 144.31 
M 178.78 166.34 177.84 164.69 176.74 163.52 175.8 163.01 175.23 162.93 174.12 163.38 
M 148.76 149.94 147.94 147.43 
M 148.66 158.86 147.35 159.06 146.27 159.02 145.01 158.79 143.55 158.27 142.87 157.98 141.74 157.02 140.4 155.37 
M 162.39 144.77 164.09 144 165.36 145.18 
M 138.5 182.89 138.79 183.31 
M 136.72 180.79 136.73 181.18 137.05 181.22 
M 135.19 178.84 135.01 179.54 135.61 179.37 
M 133.69 176.93 133.29 177.9 133.62 177.61 134.13 177.49 
M 132.18 175.03 131.78 175.53 131.56 176.26 131.98 175.82 132.65 175.61 
M 130.62 173.21 130.13 173.74 129.84 174.61 130.33 174.04 131.09 173.75 
M 129.07 171.37 128.49 171.96 128.12 172.97 128.69 172.25 129.51 171.9 
M 127.64 169.4 126.84 170.17 126.4 171.33 127.04 170.46 128.08 169.99 
M 126.12 167.54 125.2 168.38 124.67 169.69 125.4 168.68 126.58 168.1 
M 124.65 165.62 123.55 166.6 122.95 168.05 123.75 166.89 125.09 166.22 
M 123.25 163.65 121.91 164.81 121.23 166.4 122.11 165.1 123.69 164.28 
M 121.94 161.6 120.27 163.02 119.51 164.76 120.47 163.32 122.3 162.34 
M 138.65 182.86 139.04 182.93 
M 134 181.21 134.22 181.09 134.21 181.27 
M 131.62 180.58 132.1 180.22 132.01 180.67 
M 129.32 180.01 129.98 179.35 129.82 180.14 
M 127.06 179.39 127.22 179.04 127.86 178.48 127.57 179.11 127.6 179.54 
M 124.78 178.84 125.01 178.29 125.74 177.61 125.36 178.36 125.38 178.97 
M 122.51 178.3 122.8 177.54 123.63 176.74 123.15 177.61 123.15 178.45 
M 120.22 177.81 120.59 176.79 121.51 175.87 120.94 176.86 120.91 177.97 
M 117.96 177.28 118.38 176.04 119.39 175.01 118.73 176.11 118.67 177.45 
M 115.68 176.78 116.17 175.29 117.27 174.14 116.52 175.36 116.42 176.92 
M 113.4 176.31 113.96 174.54 115.15 173.27 114.31 174.61 114.17 176.48 
M 111.14 175.8 111.75 173.79 113.04 172.4 112.1 173.86 111.92 175.96 
M 115.08 179.58 123.47 183.32 127.58 184.8 131.7 185.97 139.97 187.61 148.29 188.89 
M 180.97 135.19 183.47 137.69 
M 182.09 131.57 187.73 137.2 
M 185.08 129.8 189.03 133.75 
M 188.17 128.14 195.05 135.01 
M 191.32 126.54 197.73 132.94 
M 194.5 124.96 199.45 129.91 
M 197.7 123.41 201.89 127.6 
M 200.89 121.85 206.36 127.32 
M 204.08 120.29 208.01 124.21 
M 207.53 118.98 213.33 124.78 
M 211.21 117.91 216.47 123.17 
M 215.57 117.52 220.69 122.64 
M 220.02 117.22 225.75 122.95 
M 224.24 116.68 228.7 121.14 
M 228.18 115.87 233.21 120.9 
M 232.1 115.03 236.29 119.23 
M 236.3 114.49 242.67 120.86 
M 240.76 114.19 247.88 121.31 
M 245.42 114.1 249.55 118.22 
M 250.16 114.08 255.83 119.76 
M 254.9 114.07 259.65 118.82 
M 259.75 114.17 266.72 121.14 
M 264.76 114.42 268.38 118.05 
M 269.81 114.72 276.03 120.95 
M 275.52 115.69 279.22 119.38 
M 282.41 117.83 286.06 121.47 
M 289.6 120.25 294.35 125.01 
M 297.23 123.14 301.17 127.08 
M 306.88 128.03 313.13 134.28 
M 318.11 134.51 322.62 139.02 
M 330.77 142.42 335.29 146.94 
M 342.78 149.68 347.63 154.52 
M 225.43 113.87 226.6 116.22 
M 226.08 109.83 228.87 115.41 
M 227.3 106.92 228.36 109.04 
M 228.89 110.1 231.43 115.18 
M 229.05 105.07 229.58 106.13 
M 230.11 107.19 233.91 114.8 
M 232.04 105.7 233.1 107.83 
M 233.63 108.89 234.69 111.02 
M 232.77 101.82 233.3 102.88 
M 233.83 103.94 234.36 105.01 
M 229.15 89.23 230.48 91.89 
M 233.14 97.21 238.45 107.83 
M 230.03 85.64 231.36 88.3 
M 234.54 94.68 240.92 107.43 
M 232.76 85.75 233.29 86.81 
M 236.47 93.19 242.85 105.94 
M 237.95 90.8 238.48 91.86 
M 239.54 93.98 244.33 103.55 
M 247.51 109.92 249.22 113.33 
M 240.9 91.34 241.96 93.47 
M 243.02 95.59 245.68 100.9 
M 250.46 110.47 250.99 111.53 
M 251.52 112.59 252.27 114.08 
M 245.19 94.58 246.25 96.71 
M 252.1 108.4 254.93 114.07 
M 245.2 89.25 245.73 90.32 
M 246.26 91.38 246.79 92.44 
M 247.33 93.51 247.86 94.57 
M 255.83 110.51 256.36 111.57 
M 257.38 113.62 257.61 114.07 
M 246.42 86.35 246.95 87.42 
M 247.49 88.48 250.67 94.86 
M 248.3 84.77 252.55 93.27 
M 253.08 94.33 253.62 95.39 
M 249.96 82.73 250.49 83.79 
M 251.02 84.86 255.27 93.36 
M 252.23 81.92 252.76 82.98 
M 253.82 85.11 256.48 90.42 
M 274.01 114.79 274.35 115.47 
M 266.6 94.63 267.13 95.69 
M 276.16 113.76 277.37 116.16 
M 267.26 90.61 267.8 91.67 
M 268.33 92.74 268.86 93.8 
M 269.92 95.93 271.52 99.11 
M 278.42 112.93 279.49 115.05 
M 280.02 116.12 280.55 117.19 
M 268.9 88.54 274.21 99.16 
M 281.12 112.98 281.65 114.04 
M 270.81 87.01 271.87 89.14 
M 272.4 90.2 276.12 97.64 
M 276.66 98.7 277.72 100.83 
M 211.13 291.39 209.23 297.7 
M 211.13 291.39 211.63 297.7 
M 215.93 291.39 211.63 297.7 
M 215.93 291.39 214.04 297.7 
M 221 293.5 219.74 297.7 
M 220.73 294.39 220.31 293.8 219.8 293.5 218.9 293.5 218.2 293.8 217.43 294.39 216.85 295.3 216.68 295.89 216.7 296.8 217.13 297.39 217.63 297.7 218.54 297.7 219.23 297.39 220.01 296.8 
M 226.43 294.39 226.01 293.8 225.5 293.5 224.6 293.5 223.91 293.8 223.13 294.39 222.56 295.3 222.38 295.89 222.41 296.8 222.83 297.39 223.34 297.7 224.24 297.7 224.93 297.39 225.71 296.8 
M 228.8 293.5 227.54 297.7 
M 228.44 294.7 229.61 293.8 230.3 293.5 231.2 293.5 231.71 293.8 231.74 294.7 230.84 297.7 
M 234.83 291.39 235.04 291.7 235.43 291.39 235.22 291.1 234.83 291.39 
M 234.5 293.5 233.24 297.7 
M 236.9 293.5 235.01 299.8 
M 236.63 294.39 237.41 293.8 238.1 293.5 239 293.5 239.51 293.8 239.93 294.39 239.96 295.3 239.78 295.89 239.21 296.8 238.43 297.39 237.74 297.7 236.84 297.7 236.33 297.39 235.91 296.8 
M 243.23 291.39 241.33 297.7 
M 242.24 294.7 243.41 293.8 244.1 293.5 245 293.5 245.51 293.8 245.54 294.7 244.64 297.7 
M 247.7 293.5 248.24 297.7 
M 251.3 293.5 247.28 298.89 246.5 299.5 245.51 299.8 
M 254.3 293.5 253.61 293.8 252.83 294.39 252.26 295.3 252.08 295.89 252.11 296.8 252.53 297.39 253.04 297.7 253.94 297.7 254.63 297.39 255.41 296.8 255.98 295.89 256.15 295.3 256.13 294.39 255.71 293.8 255.2 293.5 254.3 293.5 
M 259.73 291.39 258.2 296.5 258.23 297.39 258.74 297.7 259.34 297.7 
M 258.2 293.5 260.3 293.5 
M 262.39 293.5 261.5 296.5 261.52 297.39 262.03 297.7 262.94 297.7 263.63 297.39 264.8 296.5 
M 265.7 293.5 264.44 297.7 
M 270.83 294.39 270.7 293.8 269.89 293.5 269 293.5 268.01 293.8 267.52 294.39 267.64 295 268.15 295.3 269.57 295.6 270.08 295.89 270.11 296.8 269.63 297.39 268.64 297.7 267.74 297.7 266.93 297.39 266.81 296.8 
M 277.39 293.5 276.7 293.8 275.93 294.39 275.36 295.3 275.18 295.89 275.2 296.8 275.63 297.39 276.14 297.7 277.03 297.7 277.73 297.39 278.51 296.8 279.08 295.89 279.26 295.3 279.23 294.39 278.81 293.8 278.3 293.5 277.39 293.5 
M 282.83 291.39 281.3 296.5 281.33 297.39 281.83 297.7 282.44 297.7 
M 281.3 293.5 283.39 293.5 
M 288.8 293.5 287.53 297.7 
M 288.52 294.39 288.11 293.8 287.6 293.5 286.7 293.5 286.01 293.8 285.23 294.39 284.65 295.3 284.48 295.89 284.51 296.8 284.93 297.39 285.44 297.7 286.33 297.7 287.02 297.39 287.81 296.8 
M 290.6 293.5 291.14 297.7 
M 294.2 293.5 291.14 297.7 
M 296.33 291.39 296.53 291.7 296.93 291.39 296.71 291.1 296.33 291.39 
M 296 293.5 294.74 297.7 
M 298.39 293.5 297.14 297.7 
M 298.03 294.7 299.2 293.8 299.89 293.5 300.8 293.5 301.31 293.8 301.33 294.7 300.44 297.7 
M 307.39 293.5 306.14 297.7 
M 307.13 294.39 306.7 293.8 306.2 293.5 305.3 293.5 304.61 293.8 303.83 294.39 303.26 295.3 303.08 295.89 303.11 296.8 303.52 297.39 304.03 297.7 304.94 297.7 305.63 297.39 306.4 296.8 
M 309.02 297.1 308.63 297.39 308.83 297.7 309.23 297.39 309.02 297.1 
"/></svg>
