<svg xmlns="http://www.w3.org/2000/svg" width="520" height="320"><rect x="0" y="0" width="520" height="320" fill="floralwhite"/><rect x="10" y="10" width="500" height="300" stroke="black" stroke-width="1" fill="none"/><path stroke="black" stroke-width="1" fill="none" stroke-linecap="round" stroke-linejoin="round" d="
M 134.53 141 144.02 139.6 153.55 138.8 172.6 138.59 182.13 137.36 201.19 133.23 210.72 132.63 220.24 133 229.77 133.8 239.3 135.15 258.36 138.55 277.41 141.49 286.94 144.14 296.47 147.02 306 149.19 325.06 152.1 334.59 153.93 344.11 156.07 353.64 158.54 363.17 161.64 372.7 165.72 382.23 175.17 
M 382.23 184.05 372.7 191.42 363.17 194.7 353.64 197.23 344.11 199.46 334.59 201.38 325.06 202.78 315.53 203.4 306 203.41 296.47 203.04 277.41 201.8 267.89 201.6 258.36 201.73 248.83 202.33 239.3 203.54 220.24 206.69 210.72 207.89 191.66 209.69 182.13 210.34 172.6 210.5 163.07 210.01 144.11 208.28 
M 138.69 144.27 140.76 141.17 140.76 140.08 
M 147.26 163 150.06 160.34 153.01 155.41 153.01 152.37 150.06 147.44 145.48 143.09 141.91 141.39 
M 142.01 150.72 147.43 149.89 
M 143 153.71 147.87 153.91 
M 144.38 157.11 147.78 157.34 
M 147.1 198.16 151.02 193.12 153.85 186.72 153.85 186.25 
M 149.02 179.85 149.09 179.84 
M 148.68 184.41 149.08 184.41 
M 151.35 149.11 152.96 148.42 156.85 145.08 159.35 141.31 159.35 138.97 159.22 138.78 
M 146.71 139.78 155.1 139.92 
M 147.29 142.05 154.9 142.86 
M 161.01 171.62 161.72 169.85 161.72 166.1 159.31 160.05 155.58 154.7 152.67 152.62 
M 149.78 164.59 157.75 163.58 
M 150.19 167.72 157.51 167.59 
M 150.06 170.89 155.8 172.42 
M 160.62 199.15 158.4 192.67 154.85 186.78 154.54 186.52 
M 149.33 198.05 156.2 196.72 
M 161.03 166.71 164.57 165.07 169.1 160.85 172.03 156.07 172.03 153.11 169.1 148.33 164.57 144.11 161.03 142.46 
M 157.48 152.18 166.34 151.21 
M 157.78 154.6 167.09 154.87 
M 157.39 156.91 166.78 157.91 
M 163.11 199.33 164.88 198.21 169.24 192.72 170.01 191 
M 165.07 171.15 161.48 168.77 
M 157.89 188.11 160.27 188.38 
M 170.98 150.82 173.31 149.88 177.14 146.78 179.6 143.27 179.6 141.1 177.41 137.97 
M 167.75 140.42 174.97 139.33 
M 167.32 141.85 175.19 141.86 
M 167.36 143.66 174.89 144.63 
M 180.1 169.73 180.1 166.26 177.74 160.48 174.07 155.38 171.21 153.39 
M 168.7 164.93 176.17 163.44 
M 168.15 168.08 175.98 168.19 
M 178.64 199.51 178.64 198.83 176.19 192.21 
M 167.45 197.18 174.86 196.09 
M 179.84 166.74 183.29 165.14 187.71 161.03 190.56 156.39 190.56 153.51 187.71 148.87 183.29 144.77 179.84 143.16 
M 176.72 152.83 185.65 151.37 
M 176.23 155.17 185.61 154.59 
M 176.12 157.63 185.08 158.73 
M 179.71 199.47 183.08 197.42 186.2 193.64 
M 180.6 169.66 179.69 169.11 
M 188.8 150.29 191.07 149.31 194.65 146.23 196.95 142.73 196.95 140.57 194.65 137.07 192.33 135.07 
M 185.84 139.56 192.81 139.22 
M 185.37 142 192.9 141.64 
M 185.67 143.77 193.2 144.13 
M 198.45 167.78 198.45 166.12 196.08 160.33 192.41 155.21 189.54 153.21 
M 187.1 165.34 194.24 163.37 
M 186.84 168.16 194.21 167.61 
M 196.49 197.99 195.07 194.3 
M 185.23 197.71 192.28 196.22 
M 198.05 166.5 201.44 164.9 205.78 160.79 208.59 156.13 208.59 153.25 205.78 148.59 201.44 144.48 198.05 142.87 
M 194.71 152.39 203.09 151.44 
M 194.83 154.94 203.29 154.41 
M 194.65 156.83 203.47 157.98 
M 200.13 197.58 201.28 196.9 203.72 193.97 
M 206.75 149.92 209.2 148.91 212.97 145.78 215.41 142.23 215.41 140.03 212.97 136.49 209.2 133.36 207.88 132.81 
M 203.57 139.4 211.22 138.7 
M 203.04 141.32 211.16 141.39 
M 203.42 143.09 211.14 143.71 
M 216.51 166.79 216.51 166.26 214.28 160.47 210.83 155.36 208.13 153.36 
M 205.12 165.16 212.73 163.4 
M 214.26 196.24 212.8 192.67 
M 202.83 196.63 210.2 195.01 
M 216.15 165.98 219.6 164.39 224.02 160.33 226.86 155.73 226.86 152.88 224.02 148.29 219.6 144.23 216.15 142.64 
M 212.42 152.08 221.84 151.19 
M 213.22 153.89 221.65 153.97 
M 213.08 156.5 221.41 157.64 
M 220.25 195.64 223.34 191.85 
M 226.16 151.01 229.15 149.88 232.98 146.97 235.45 143.68 235.45 141.64 232.98 138.35 229.15 135.44 226.16 134.31 
M 222.87 141.07 230.72 139.91 
M 222.99 142.65 231.3 142.72 
M 223.2 143.93 230.8 144.88 
M 232.94 166.57 232.94 163.61 230.58 157.84 226.92 152.75 225.84 151.99 
M 221.05 162.59 228.35 160.99 
M 221.51 165.39 228.87 165.46 
M 232.65 194.08 232.03 192.28 230.8 190.27 
M 234.88 166.04 238.35 164.49 242.8 160.5 245.67 155.99 245.67 153.19 242.8 148.68 238.35 144.69 234.88 143.13 
M 231.68 152.4 240.53 151.19 
M 231.71 154.45 240.31 154.76 
M 231.4 156.93 240.25 157.8 
M 240.35 193.2 242.01 191.2 243.87 187.27 
M 238.48 187.37 240.07 187.68 
M 244.7 151.5 247.47 150.31 251.02 147.26 253.31 143.81 253.31 141.67 251.02 138.22 249.61 137.01 
M 241.62 140.87 248.81 140.28 
M 242.1 142.7 249.22 142.62 
M 242.41 144.74 248.92 145.01 
M 253.78 168.35 253.78 165.85 251.33 160.3 247.55 155.4 244.64 153.52 
M 241.42 164.98 249.75 163.04 
M 243.22 167.4 249.43 167.68 
M 249.51 192.5 248.81 190.71 246.39 187.17 
M 253.27 166.13 256.57 164.56 260.8 160.51 263.53 155.93 263.53 153.09 260.8 148.51 256.57 144.47 253.27 142.89 
M 249.74 151.77 258.96 151.16 
M 250.18 154.25 259.01 154.3 
M 249.92 156.45 258.6 158.1 
M 260.6 192.28 260.99 191.81 263.87 185.66 263.87 181.85 263.52 181.1 
M 253.22 168.26 253.02 168.14 
M 249.27 187.15 258.58 188.35 
M 261.79 149.76 264.48 148.61 267.91 145.67 270.13 142.33 270.13 140.34 
M 259.03 139.99 262.78 139.22 
M 259.16 141.49 265.98 140.99 
M 258.96 143.27 266.41 144.16 
M 269.87 168.87 270.07 168.3 270.07 164.59 267.92 158.6 264.59 153.31 262.56 151.69 
M 259.41 163.71 266.33 161.84 
M 259.63 166.57 265.99 166.8 
M 270.08 192.45 266.58 187.18 263.46 184.84 
M 270.19 164.7 273.39 163.1 277.48 158.99 280.12 154.33 280.12 151.45 277.48 146.79 273.39 142.68 270.19 141.08 
M 266.69 150.8 275.42 149.11 
M 267.13 153.32 275.22 152.79 
M 267.35 155.2 274.96 156.84 
M 278.41 192.85 279.01 192.06 281.8 185.56 281.8 181.54 279.01 175.05 278.12 173.88 
M 275.28 170.11 274.67 169.31 271.29 167.08 
M 268.36 180.25 276.61 178.57 
M 268.38 183.34 277.12 183.19 
M 267.99 187.15 277.05 188.57 
M 279.14 148.18 281.81 147.08 285.22 144.28 285.58 143.76 
M 276.98 141.9 280.1 142.24 
M 280.29 177.31 280.54 177.11 284 171.71 284.19 171.18 
M 284.55 170.2 286.23 165.59 286.23 161.8 284 155.67 280.54 150.27 279.17 149.2 
M 275.55 160.46 282.49 159.25 
M 275.21 163.3 282.31 163.96 
M 274.94 166.53 282 168.44 
M 288.77 193.84 288.41 192.74 284.74 186.5 281.87 184.06 
M 287.38 163.65 290.72 162.01 295 157.79 297.76 153.02 297.76 150.07 295.89 146.84 
M 283.98 148.83 292.86 147.82 
M 284.29 151.65 293.12 151.96 
M 284.48 153.92 292.63 154.87 
M 294.74 194.45 296.9 191.56 299.71 184.96 299.71 180.87 296.9 174.27 292.55 168.44 289.15 166.17 
M 285.52 179.23 294.43 177.74 
M 286.2 182.61 294.42 182.98 
M 286.02 186.17 295.04 187.63 
M 296.43 147.12 296.6 147.05 
M 298.7 178.41 299.72 177.72 303.82 172.16 306.46 165.88 306.46 161.98 303.82 155.7 299.72 150.14 296.77 148.14 
M 293.32 160.61 301.88 159.35 
M 293.59 163.55 301.57 163.64 
M 293.14 167.31 301.54 168.34 
M 306.92 195.3 306.21 192.98 302.93 186.86 300.36 184.47 
M 305.81 164.33 309.37 162.59 313.93 158.13 316.87 153.08 316.87 150.9 
M 302.24 149.24 304.74 148.91 
M 302.48 151.6 311.23 151.33 
M 302.44 154.44 311.26 155.15 
M 311.71 195.41 315.07 191.03 317.85 184.65 317.85 180.7 315.07 174.32 310.75 168.69 307.38 166.49 
M 304.08 179.06 313.13 177.74 
M 304.55 183.08 312.73 182.98 
M 304.43 185.74 312.53 187.8 
M 318.67 183.33 321.84 181.22 325.9 175.82 328.52 169.7 328.52 165.91 325.9 159.8 321.84 154.4 318.67 152.29 
M 315.89 164.99 324.08 163.12 
M 315.36 167.6 323.51 167.92 
M 315.3 170.95 323.95 172.06 
M 321.12 195.31 319.22 188.81 316.86 184.44 
M 313 193.09 318.02 191.87 
M 327.58 163.98 328.86 163.38 333.51 159.01 336.35 154.33 
M 321.87 152.82 328.35 152.73 
M 322.17 155.49 330.81 155.96 
M 327.01 194.99 327.95 194.42 332.31 189.14 335.12 183.16 335.12 179.46 332.31 173.48 327.95 168.2 327.58 167.98 
M 324.07 177.64 330.37 176.4 
M 321.48 181.3 330.04 181.72 
M 321.24 184.52 330.34 186.11 
M 337.03 181.65 339.88 179.76 343.52 174.91 345.87 169.41 345.87 166.01 343.52 160.51 339.88 155.66 338.64 154.84 
M 334.52 164.76 342.02 163.35 
M 334.38 167.57 341.65 167.51 
M 334.43 170.43 341.83 171.97 
M 337.92 193.8 337.92 190.92 335.42 184.8 334.11 182.97 
M 332.67 188.15 333.67 187.94 
M 328.67 192.93 333.77 192.73 
M 345.03 165.3 348.04 163.88 352.5 159.67 353.25 158.44 
M 340.99 155.67 344.6 156.19 
M 348.87 192.19 351.61 189.18 354.68 183.28 354.68 179.63 351.61 173.74 346.86 168.53 345.03 167.53 
M 340.74 178.04 348.71 176.94 
M 339.88 181.29 348.86 181.47 
M 339.19 184.12 348.97 186.13 
M 355.27 182.05 358.17 180.07 361.87 175 364.26 169.25 364.26 165.69 362.48 161.41 
M 352.38 164.87 360.11 163.21 
M 352.55 167.21 360 167.69 
M 352.4 170.49 359.57 171.45 
M 360.27 190.25 360 189.69 355.37 184.2 353.58 183.14 
M 363.41 165.39 365.86 164.11 366.75 163.17 
M 374.93 186.43 375.25 185.77 375.25 181.91 372.22 175.67 367.53 170.16 363.87 168.01 
M 360.49 180.9 369.49 178.85 
M 360.24 183.68 369.47 183.92 
M 359.91 187.17 368.01 188.64 
M 374.29 184.69 377.04 182.43 380.57 176.64 381.37 174.32 
M 371.55 168.15 375.18 168.18 
M 371.38 171.72 378.83 173.21 
M 375.08 186.36 374.17 185.67 
M 378.77 180.73 382.23 180.13 
M 378.71 183.29 381.05 183.31 
M 146.44 205.05 145.98 204.75 
M 149.12 204.75 155.01 205.78 
M 161.48 200.36 163.11 199.33 
M 167.55 201.07 174.64 200.88 
M 179.69 199.48 179.71 199.47 
M 183.14 206.61 180.09 202.73 177.82 201.28 
M 185.45 203.47 192.73 205.09 
M 200.4 205.1 197.33 201.73 195.89 200.95 
M 207.88 132.81 207.88 132.81 
M 202.93 200.02 210.75 199.74 
M 202.73 203.03 210.79 204 
M 234.36 200.87 234.36 198.98 232.65 194.08 
M 222.77 198.02 230.51 195.58 
M 234.07 198.66 237.55 196.56 240.35 193.2 
M 251.27 198.94 251.27 197 249.51 192.5 
M 253.96 198.8 256.51 197.25 260.6 192.28 
M 262.78 139.22 262.78 139.22 
M 272.63 198.65 270.56 193.18 270.08 192.45 
M 273.34 198.67 274.67 197.79 278.41 192.85 
M 285.58 143.76 285.58 143.76 
M 280.1 142.24 280.1 142.24 
M 290.76 199.78 288.77 193.84 
M 278.92 198.29 286.36 196.26 
M 289.93 199.15 292.55 197.39 294.74 194.45 
M 307.57 198.73 310.75 196.66 311.71 195.41 
M 320.61 200.49 321.12 198.83 321.12 195.31 
M 311.49 199.64 314.54 200.76 
M 324.55 196.48 327.01 194.99 
M 338.64 154.84 338.64 154.84 
M 343.15 196.42 346.86 194.38 348.87 192.19 
M 361.77 193.38 360.27 190.25 
M 368.01 188.64 369.52 188.91 
M 381.05 183.31 382.23 183.33 
M 199.92 132.36 272.26 30 272.96 30.48 203.13 133.11 
M 212.73 131.91 263.59 57.35 264.3 57.83 215.8 132.83 
M 225.55 132.68 260.42 83.65 261.12 84.13 228.56 133.7 
M 238.26 134.34 258.66 105.76 259.37 106.24 241.17 135.49 
M 250.85 136.68 259.47 124.3 260.2 124.74 253.75 137.74 
M 266.5 139.31 267.89 139.99 
M 265.91 40.85 263.22 45.85 261.01 51 260.19 53.66 259.56 56.38 259.1 59.16 258.5 64.81 
M 259.4 65.41 257.76 70.43 257.11 72.96 256.63 75.51 256.35 78.08 256.39 83.29 256.93 88.55 
M 257.82 89.16 256.46 93.41 255.61 97.7 255.47 99.87 255.54 102.04 255.79 104.23 256.62 108.62 
M 257.52 109.22 256.66 112.92 256.32 116.58 256.44 118.4 256.77 120.2 257.27 121.99 258.61 125.54 
M 259.53 126.09 260.33 129.67 261.57 133 262.44 134.52 263.5 135.94 264.7 137.26 267.4 139.75 
M 264.53 43.34 262.03 48.4 261.01 51 260.19 53.66 259.56 56.38 258.77 61.97 
M 260.55 49.61 258.22 54.32 257.27 56.74 255.92 61.75 255.19 66.95 
M 256.56 55.89 254.41 60.24 253.53 62.48 252.28 67.11 251.6 71.92 
M 252.57 62.16 250.6 66.16 249.79 68.22 248.65 72.47 248.02 76.89 
M 248.59 68.44 246.79 72.08 246.06 73.96 245.01 77.84 244.44 81.86 
M 244.6 74.72 242.98 78.01 242.32 79.7 241.37 83.2 240.86 86.83 
M 240.62 80.99 238.58 85.44 237.74 88.56 237.28 91.8 
M 236.63 87.27 234.84 91.18 234.1 93.92 233.7 96.78 
M 232.65 93.55 231.1 96.92 230.46 99.29 230.11 101.75 
M 228.66 99.82 227.36 102.66 226.82 104.65 226.53 106.72 
M 258.55 67.92 257.11 72.96 256.63 75.51 256.35 78.08 256.28 80.68 256.62 85.92 
M 254.73 74.44 253.44 78.98 253.01 81.28 252.69 85.93 253 90.64 
M 250.92 80.96 249.77 85 249.17 89.1 249.11 91.17 249.38 95.36 
M 247.11 87.49 246.1 91.02 245.76 92.81 245.52 96.42 245.76 100.09 
M 243.29 94.01 242.14 98.57 241.93 101.67 242.14 104.81 
M 239.48 100.54 238.52 104.33 238.35 106.92 238.52 109.54 
M 235.67 107.06 234.9 110.1 234.76 112.16 234.9 114.26 
M 257.1 91.28 255.94 95.55 255.61 97.7 255.47 99.87 255.54 102.04 256.17 106.42 
M 252.92 98.82 251.96 102.35 251.68 104.12 251.63 107.7 252.15 111.31 
M 248.73 106.37 247.98 109.14 247.76 110.54 247.72 113.36 248.13 116.2 
M 244.55 113.91 243.83 116.96 243.8 119.02 244.1 121.1 
M 257.06 111.07 256.4 114.76 256.32 116.58 256.44 118.4 256.77 120.2 257.9 123.77 
M 149.89 172.79 152.12 172.81 154.81 172.57 162.76 171.36 170.44 170.42 175.76 170.19 183.46 169.39 188.74 169.18 193.37 168.4 198.5 167.77 206.66 167.69 211.62 167.03 216.5 166.79 219.24 166.45 224.85 166.08 227.38 166.05 229.61 166.69 235.1 166.5 240.07 166.69 242.95 167.37 245.86 167.78 251.45 167.97 256.36 168.66 259.01 168.8 261.57 168.55 264.77 168.45 267.23 168.79 269.71 168.81 271.45 169.54 273.46 170.01 276.16 170.16 278.87 169.97 282.15 169.98 285.82 170.45 270.64 177.2 266.11 179.5 264.04 180.84 261.75 181.97 259.82 183.45 257.59 184.58 252.58 185.67 247.83 187.02 245.07 187.3 238.85 187.25 236.49 188.02 234.38 189.03 232.11 189.88 227.45 191.4 224.96 191.75 211.78 192.73 207.23 193.66 202.26 194.16 197.31 194.48 188.94 193.65 183.87 193.56 181.13 192.93 178.88 192.78 171.53 191.41 156.43 187.25 153.14 185.97 149.33 183.96 
M 157.59 173.77 162.74 173.41 170.38 172.43 178.57 172.72 194.1 171.49 196.87 171.65 199.39 171.6 201.98 171.97 204.48 172.07 206.84 172.01 209.57 171.69 212.54 171.77 215.15 172.12 217.56 171.86 227.96 172.53 233.23 173.4 235.79 173.41 238.73 173.1 241.58 173.41 246.67 174.47 251.79 175.76 
M 150.03 175.42 152.2 175.61 154.95 175.61 160.35 175.32 162.84 175.39 165.6 174.95 170.38 174.56 172.96 174.65 178.51 175.24 181.08 175.25 188.99 174.64 191.7 174.75 197.71 175.49 200.07 175.44 207.23 176.59 218.41 177.78 225.68 179.06 228.45 179.24 236.41 180.22 239.07 180.6 241.48 181.34 243.73 181.6 248.88 183.16 251.45 183.62 254.56 183.52 
M 157.61 177.12 163.13 177.29 170.69 176.77 173.17 176.86 181.11 178.15 183.88 178.34 186.65 178.06 188.89 178.12 200.08 179.74 202.13 180.13 204.78 180.89 
M 157.67 178.89 163.18 179.3 170.62 179.11 178.08 180.72 186.47 181.12 189.43 181.9 192.3 182.31 
M 152.14 179.93 154.77 180.4 160.48 181.01 168.36 181.54 173.4 182.41 180.66 184.43 186.54 184.81 188.94 185.12 191.21 186.24 194.35 187.51 196.62 188.91 199.36 189.85 
M 152.2 181.43 154.85 182.06 163.55 183.51 168.5 184.15 173.62 185.17 175.87 186.05 180.65 188.55 186.24 188.99 188.54 189.62 190.72 190.79 
M 152.34 182.88 166.21 186.46 
M 158.53 186.39 164.39 188.87 169.17 190.2 
M 201.19 208.8 207.51 212.67 211.85 216.8 213.77 217.79 216.15 219.39 223.05 222.9 225.36 223.89 227.47 226.47 230.13 229.14 233.48 230.39 235.53 231.38 234.63 241.13 235.21 244.12 234.55 245.87 234.31 250.24 235.25 253.48 235.14 256.78 233.65 258.85 232.43 261.18 232.13 264.36 231.13 266.76 229.26 268.29 227.78 270.21 226.32 272.84 220.84 280 220.92 278.22 219.81 276.47 219.52 275.24 218.33 272.6 216.72 270.85 216.5 267.38 215.05 263.77 213.83 261.13 211.87 258.88 209.89 256.24 208.59 250.7 207.89 249.1 206.61 244.05 205.64 241.67 204.83 239.06 201.82 234.24 200.37 231.55 199.2 228.18 197.93 225.66 196.34 220.42 195.16 218.12 193.25 212.61 191.66 209.69 
M 199.48 208.96 202.58 211.5 205.27 213.15 207.69 214.98 210.13 217.21 211.88 219.11 215.73 221.6 220.17 225.16 222.13 227.04 
M 197.78 209.12 200.53 211.92 207.55 217.64 209.52 219.81 212.16 223.5 214.4 225.49 217.03 227.44 218.56 229.3 220.09 231.77 221.77 233.78 
M 196.08 209.28 198.41 212.36 200.19 214.38 202.3 216.32 204.97 218.25 206.44 220.69 207.76 222.29 208.92 224.57 211.02 226.96 213.72 229.34 216.55 232.16 219.42 236.15 
M 194.37 209.44 198.13 215.11 201.38 219.2 202.81 221.39 204.67 223.41 206.21 225.64 207.83 228.89 210 231.3 210.97 234.61 213.24 236.72 216.69 239.56 
M 192.67 209.6 194.49 212.6 202.4 227.51 206.23 233.27 210.27 240.45 211.78 242.32 213.01 244.48 214.48 247.24 214.71 249.75 216.45 251.8 218.63 256.41 220.94 258.67 222.54 261.49 
M 345.37 198.57 350.4 207.56 349.7 208.06 342.86 200.35 
M 332.8 201 347.73 226.31 347.01 226.78 330.21 202.67 
M 320.11 202.48 334.34 232.28 333.58 232.67 317.38 203.9 
M 307.33 202.81 318.71 232.92 317.92 233.25 304.49 204 
M 294.54 202.28 302.46 227.35 301.66 227.64 291.65 203.33 
M 278.87 201.3 281.17 211.35 280.36 211.63 275.96 202.31 
M 349.02 207.29 347.32 210.77 346.12 214.34 345.81 216.17 345.7 218.04 345.77 219.93 346.24 223.78 
M 345.33 224.36 342.17 224.44 340.65 224.63 339.19 224.99 337.81 225.54 335.27 227.18 332.91 229.3 
M 331.96 229.79 328.75 228.72 325.55 228.16 323.95 228.17 322.35 228.39 320.76 228.78 317.57 229.91 
M 316.57 230.32 313.64 228.07 310.53 226.3 308.88 225.69 307.15 225.28 305.36 225.03 301.67 224.84 
M 300.66 225.21 296.94 221.03 294.98 219.07 292.91 217.26 290.72 215.6 285.98 212.77 280.94 210.34 
M 348.13 209.02 346.63 212.54 346.12 214.34 345.81 216.17 345.7 218.04 345.97 221.85 
M 343.74 224.37 340.65 224.63 339.19 224.99 337.81 225.54 336.51 226.28 334.08 228.21 
M 339.39 219.27 337.02 219.47 334.85 220.17 333.85 220.73 331.99 222.21 
M 335.05 214.17 332.63 214.5 331.19 215.19 329.9 216.22 
M 330.35 229.22 327.15 228.35 325.55 228.16 323.95 228.17 322.35 228.39 319.16 229.31 
M 326.15 223.17 323.69 222.5 322.46 222.36 320.01 222.53 317.57 223.24 
M 321.94 217.12 319.38 216.56 317.67 216.68 315.97 217.17 
M 315.12 229.16 312.12 227.1 310.53 226.3 308.88 225.69 307.15 225.28 303.53 224.9 
M 311.48 223.08 309.17 221.5 307.96 220.89 305.37 220.1 302.59 219.81 
M 307.83 217 305.39 215.48 303.58 214.93 301.65 214.73 
M 298.82 223.09 294.98 219.07 292.91 217.26 290.72 215.6 288.4 214.11 283.48 211.53 
M 382.23 175.17 385.34 175.01 389.97 172.32 392.82 171.52 399.38 166.93 402.32 165.3 405.2 164.08 406.93 162.6 408.72 161.66 412.25 158.32 414.93 156.71 417.86 155.4 421.06 153.63 422.81 152.99 424.42 151.19 427.76 150.21 430.28 148.65 432.26 148.03 435.24 146.04 437.53 145.2 438.71 144.97 454.92 146.16 454.11 148.53 452.07 156.07 451.17 158.36 450.11 160.48 449.41 163.01 448.12 165.28 444.65 172.45 442.93 174.29 442.64 177.55 441.38 179.84 440.57 182 439.69 183.6 439.29 185.67 439.69 188.43 447.69 197.87 451.26 202.52 453.29 207.75 454.76 211.03 457.2 218.91 456.32 220.07 437.12 223.1 436.27 222.7 434.91 220.39 432.32 218.05 429.44 215.85 426.61 214.94 424.59 214.6 419.53 211.18 418.77 209.76 417.8 209 417.12 208.09 414.13 206.09 410.39 204.4 407.29 202.57 404.89 202.59 402.07 201.04 400.36 198.74 397.3 195.62 394.94 193.6 389.81 190.09 382.23 184.05 
M 391.02 174.74 396.22 173.44 398.33 172.25 400.03 170.52 409.55 167.26 411.33 167.28 413.75 165.39 416.89 163.68 420.34 162.76 423.2 161.59 427.07 161.42 429.66 160.9 432.1 159.86 434.96 157.5 
M 385.76 178.36 391.72 177.45 393.73 176.93 396.29 176.65 399.09 175.95 400.72 174.67 402.81 173.99 405.86 173.44 409.01 174.27 412.39 174.94 414.95 173.56 416.3 172.26 418.64 171.83 424.65 170.33 427.91 170.1 429.78 169.81 432.14 169.8 435.15 169.12 440.8 167.07 
M 388.92 180.35 395.01 180.65 400.17 179.86 402.39 179.33 407.99 179.08 410.54 179.67 413.35 179.28 418.44 178.93 420.07 179.55 423.39 179.32 426.95 178.69 433.47 177.89 435.91 177.34 
M 382.23 180.31 385.95 181.91 394.74 183.87 397.72 183.99 400.39 183.5 403.17 183.45 406.28 183.78 408.29 184.72 410.82 184.84 
M 391.12 185.37 393.91 186.03 402.06 188.54 407.81 189.94 410.89 189.82 413.59 190.07 420.58 193.97 422.9 194.5 426.95 196.65 
M 385.48 184.74 395.43 190.5 400.39 193.15 402.85 194.2 405 195.5 410.55 196.7 413.43 196.97 420.35 201.55 422.73 202.22 427.43 205.73 
M 67.37 175.19 69.15 172 70.84 169.44 73.28 166.63 80.89 160.58 85.31 157.76 90.71 155.32 101.64 151.2 107.17 148.78 112.36 146.81 121.75 143.3 125.99 142.1 129.83 141.35 132.86 140.98 134.5 140.97 138.54 144.04 140.71 147.35 143.17 154.22 144.59 157.63 147.95 164.38 149.72 171.35 150.14 174.9 148.36 182.37 148.92 185.91 149.04 189.5 148.38 193.21 147.3 196.97 146.19 204.35 144.07 208.36 133.55 208.68 125.9 208.62 119.25 208.18 113.01 207.42 107.31 206.21 102.02 204.46 92.47 200.56 88.16 198.44 84.21 195.92 80.05 193.53 75.94 190.75 
M 73.58 188.65 71.06 185.85 
M 126.95 162.13 127.6 165.1 127.75 167.99 127.3 170.77 124 175.91 123.86 179.89 123.6 181.9 123.6 184.12 124.32 186.56 125.38 189.26 125.26 192.49 113.11 193.83 108.36 194.22 103.58 194.38 98.96 194.02 94.53 192.95 90.34 191.32 
M 69.91 184.68 65.67 180.26 64.27 178.52 64.48 176.35 66.27 174.94 68.39 175.42 69.57 177.25 76.29 190.5 
M 75.7 191.12 72 189.46 64.23 186.51 62.79 184.88 63.1 182.7 65.03 181.57 67.1 182.3 71.87 186.32 76.17 190.39 
M 96.32 176.93 94.14 173.88 93.07 170.29 93.23 166.55 94.59 163.06 97.01 160.2 100.22 158.29 103.89 157.52 107.61 157.98 110.97 159.63 113.62 162.27 115.26 165.64 115.72 169.35 114.96 173.02 113.04 176.24 110.18 178.66 106.69 180.02 102.95 180.17 99.36 179.1 96.32 176.93 
M 111.77 163.6 113.08 166.29 113.45 169.26 112.84 172.19 111.3 174.77 109.02 176.7 106.23 177.79 103.23 177.91 100.36 177.06 97.93 175.32 
M 100.5 171.46 99.63 170.24 99.2 168.81 99.26 167.31 99.81 165.91 100.78 164.77 102.06 164 103.53 163.7 105.02 163.88 106.36 164.54 107.42 165.6 108.08 166.94 108.26 168.43 107.96 169.9 107.19 171.18 106.05 172.15 104.65 172.7 103.16 172.76 101.72 172.33 100.5 171.46 
M 99.79 168.72 103.8 172.73 
M 100.51 167.14 105.67 172.3 
M 102.24 166.55 107.02 171.33 
M 102.89 164.89 107.93 169.94 
M 104.39 164.09 108.2 167.89 
M 68.04 173.85 72.66 178.47 
M 70.02 170.7 74.4 175.08 
M 72.26 167.81 76.66 172.2 
M 74.89 165.3 78.51 168.93 
M 77.72 163 81.23 166.51 
M 80.63 160.78 85.21 165.36 
M 83.74 158.76 87.66 162.68 
M 87.08 156.96 89.68 159.56 
M 90.62 155.37 94.23 158.98 
M 94.37 153.99 99.25 158.87 
M 98.1 152.58 102.07 156.55 
M 101.79 151.14 104.83 154.18 
M 105.36 149.57 110.08 154.3 
M 109 148.08 112.91 151.99 
M 112.72 146.67 117.02 150.98 
M 116.47 145.28 121.05 149.87 
M 120.2 143.88 124.91 148.6 
M 124.08 142.64 128.7 147.25 
M 128.24 141.66 132.98 146.4 
M 132.71 140.99 136.24 144.53 
M 119.35 150.06 117.9 150.53 115.16 151.9 112.98 155.09 111.87 156.17 
M 92.87 169.34 93.08 170.02 
M 93.37 171.3 93.53 173.64 93.37 175.63 92.98 176.37 92.15 176.72 
M 118 178.46 118.49 177.53 118.78 176.51 118.74 175.55 118.35 173.81 117.43 171.81 116.26 170.49 115.7 169.48 
M 110.66 159.45 110.67 159.48 
M 126.02 147.47 125.84 152.69 125.08 154.93 124.74 155.41 124.13 155.78 
M 95.23 187.08 94.16 186.92 90.79 185.9 89.87 185.94 87.8 186.53 85.88 186.56 82.53 186.96 
M 137.47 183.99 137.11 182.09 137.91 177.6 138.71 175.05 139.76 172.74 140.31 171.83 141.36 170.86 
M 72.92 179.43 73.46 178.93 73.96 178.72 74.47 178.73 77.78 180.54 78.84 180.65 79.71 180.32 
M 137.67 192.07 137.26 191.81 136.13 191.58 
M 100.32 158.27 99.88 157.74 98.77 157.36 
M 107.99 202.66 107 202.64 106.3 202.37 105.36 201.25 104.75 199.65 104.26 199.1 103.12 198.35 99.56 196.48 
M 103.54 204.96 103.39 203.56 102.9 202.14 
M 104.73 156.33 102.03 157.7 99.56 157.47 
M 99.03 155.25 96.93 155.68 96.6 155.99 
M 141.31 166.77 141.21 168.35 141.92 169.35 
M 79.2 188.1 79.27 189.27 78.96 191.55 78.83 192.1 78.52 192.52 
M 109.83 151.24 108.49 152.54 106.99 153.42 104.6 154.37 101.03 156.2 100.18 156.52 98.88 156.59 
M 133.83 197.99 134.25 197.36 137.14 194.65 138.2 192.6 138.44 192.41 138.78 192.4 
M 139.7 182.49 139.99 180.99 139.28 177.93 139.48 176.89 139.95 175.76 141.49 173.47 141.91 173.3 142.59 173.68 
M 120.32 191.56 119.41 189.12 118.98 188.78 117.64 188.25 117.19 187.87 
M 133.55 207.1 132.79 206.12 132.22 205.72 130.57 205.45 130.27 205.33 130.23 205.15 
M 96.96 202.34 96.69 201.61 95.76 200.42 95.27 199.9 94.24 199.23 92.16 198.59 90.41 198.45 87.98 197.96 
M 126.51 155.56 126.08 156.2 125.66 156.48 124.8 156.51 123.46 156.1 120.82 154.89 
M 126.14 160.28 124.6 159.32 120.94 156.54 118.22 154.9 116.76 154.4 116.14 154.43 115.15 154.99 
M 78.49 183.65 81.26 182.96 82.24 182.37 82.51 182.41 
M 100.49 186.37 99.56 186.79 98.77 187.41 96.95 189.76 96.35 190.12 94.64 190.1 91.23 188.73 89.91 188.36 86.84 188.18 
M 90.57 183.52 89.86 183.59 88.86 183.94 87.66 184.62 85.64 184.91 83.97 186.04 
M 127.46 205.49 128.3 206.01 129.67 206.53 129.97 207.98 
M 123.78 167.61 122.2 166.32 120.99 164.72 119.06 162.62 116.92 160.8 114.31 158.94 113.56 158.62 
M 136.88 208.58 136.63 207.07 136.64 203.43 136.39 201.94 136.47 200.61 136.94 199.05 137.39 198.14 138.73 196.59 
M 91.05 188.82 89.73 188.48 85.2 188.34 83.67 187.97 82.37 188.31 80.65 189.27 79.83 189.98 
M 125.92 156 125.51 156.27 125.07 156.32 123.74 156.09 120.46 154.69 
M 117.82 157.95 116.05 157.43 113.39 157.5 112.48 157.97 112.27 158.87 
M 122.35 159.18 120.38 157.72 117.24 155.95 116.59 155.95 112.38 157.49 
M 88.34 185.4 87.53 185.66 85.33 185.76 84.06 186.45 81.91 186.78 80.69 187.27 
M 116.91 165.45 115.75 163.44 114.51 160.46 114.11 159.83 113.3 159.08 112.93 159.04 112.57 159.27 
M 78.73 167.67 79.26 168.42 79.09 168.99 76.57 173.62 76.16 174.09 75.22 174.73 
M 91.96 191.29 89.02 190.14 85.17 189.87 81.56 190.37 80.79 190.74 80.32 191.15 80.15 191.57 
M 127.92 149.99 127.15 153.21 125.78 155.54 125.38 155.95 124.97 156.05 123.56 155.95 
M 105.42 150.65 104.25 151.43 102.17 152.42 99.49 154.3 97.78 154.97 96.86 155.07 96.53 155.37 
M 140.44 151.5 140.96 149.83 140.96 148.3 140.71 147.96 139.86 147.64 
M 81.71 173.6 81.97 174.36 83.24 174.4 84.26 175.13 
M 136.52 156.25 136.89 154.42 136.85 153.47 136.43 150.45 135.66 148.21 134.5 146.16 131.82 144.25 
M 92.49 200.56 92.47 200.51 
M 119.43 158.57 117.19 157.3 116.43 157.11 113.15 157.46 112.48 157.78 112.17 158.6 
M 100.31 196.84 98.8 196.16 96.17 193.59 93.96 192.06 89.87 190.16 87.84 189.86 
M 100.08 203.64 100.05 203.04 99.5 201.36 
M 146.08 190.46 147.51 191.04 148.76 191.04 
M 117.07 206.9 115.58 204.37 114.02 202.61 112.8 202.48 107.64 203.54 106.8 203.64 106.2 203.49 
M 128.3 143.69 128.46 145.1 129.55 146.79 
M 118.86 144.39 119.43 146.1 119.35 146.77 118.8 148.07 117.28 149.61 
M 107.52 182.82 108.89 180.7 109.68 178.85 
M 136.62 207.52 136.57 203.07 136.34 201.67 136.52 200.29 137.07 198.66 137.62 197.77 139.63 195.62 
M 112.41 161.07 112.93 160.32 
M 116.63 150.74 114.92 151.71 112.93 154.44 111.22 156.42 110.8 157.02 110.37 158.11 
M 110.52 186.86 111.53 185.71 112.36 183.96 112.69 181.58 112.7 179.3 112.91 177.02 
M 104.39 198.09 102.29 196.36 99.03 194.89 98.46 194.49 96.38 192.12 
M 121.68 184.14 121.22 183.08 121.01 181.03 121.12 180.3 122.21 178.75 122.52 177.18 
M 145.4 161.57 146.78 162.06 
M 104.63 157.55 104.58 157.61 
M 99.23 154.19 98.26 154.58 96.97 154.76 96.47 155.05 96.01 155.67 95.91 156.08 96.01 156.5 96.31 156.8 
M 125.91 166.23 123.19 161.73 121.54 159.93 118.09 157.57 117.12 157.11 115.76 157.01 
M 136.55 175.11 136.88 172.46 137.41 171.21 139.32 168.22 139.52 167.36 139.32 166.21 139.38 166.01 139.75 165.84 
M 105.37 153.32 100.63 155.85 99.71 156.13 97.11 156.03 
M 121.06 159.6 118.7 158 116.72 157.06 116.05 157.01 113.32 157.38 112.56 157.67 112.17 158.31 
M 140.9 192.38 141.12 192.83 141.66 192.93 145.86 192.31 148.37 191.58 
M 136.53 202.77 136.36 201.44 136.44 200.76 137.28 198.31 137.91 197.42 139.87 195.38 140.72 194.13 141.77 193.26 
M 127.4 145.78 127.31 146.45 127.71 148.99 126.98 152.7 
M 111.81 190.32 112.07 188.86 113.95 186.19 114.38 185.2 114.72 183.81 
M 87.25 164.76 87.38 163.98 86.88 161.23 
M 122.38 199.16 123.95 199.26 125.31 199.85 125.77 200.42 125.88 202.11 126.27 203.06 127.14 204.33 127.89 204.96 
M 100.45 203.8 99.76 201.53 
M 99.68 200.58 98.62 199.71 95.42 197.86 94.76 197.7 94.08 197.62 91.77 198.05 88.28 197.75 
M 132.08 144.5 131.05 144.03 130.46 144.21 130.29 144.83 130.75 145.73 
M 112.39 161.05 112.68 160.55 
M 131.54 143.61 130.64 143.48 130.24 143.58 129.66 143.96 129.55 144.19 129.63 144.66 130.62 145.94 
M 126.46 205.78 128.46 207.38 129.01 208.64 
M 125.39 160.81 120.76 157.19 117.94 155.54 117.31 155.3 115.97 155.38 114.35 156.32 
M 124.16 188.46 124.72 189.46 124.71 191.07 
M 145.41 181.76 146.67 177.18 148.23 174.42 
M 127.66 182.76 125.87 182.27 124.28 182.39 123.65 182.96 122.95 185.04 
M 142.09 181.67 142.61 178.99 143.35 176.69 143.8 176.43 145.67 176.57 146.93 175.88 
M 76.45 181.55 77.87 181.92 79.2 181.7 80.21 180.94 80.93 179.77 
M 122.33 169.94 122.01 168.66 121.29 167.2 119.36 164.52 115.83 160.67 113.88 158.89 
M 75.94 175.11 74.92 175.5 74.54 175.87 74.84 177.06 
M 126.45 170.49 127.25 170.98 128.26 172.15 128.73 172.44 129.73 172.56 130.74 172.27 132.04 171.6 133.51 170.54 134.33 169.72 
M 92.86 200.71 92.41 199.81 91.94 199.38 89.06 198.52 
M 90.25 156.55 90.39 157.27 90.83 157.81 92.67 158.52 94.82 159.88 95.44 160 
M 126.44 201.02 126.67 202.63 127.3 204 128.36 204.94 130.12 205.47 
M 139.93 157.53 141.72 154.39 142.51 152.21 
M 127.28 191.03 127.11 191.39 127.31 192.58 128.37 195.23 129.02 196.04 130.48 197.06 
M 121.24 165.13 119.57 163.11 116.42 160.35 113.74 158.63 113.1 158.66 112.66 158.91 
M 83.79 187.46 82.56 187.59 80.14 188.99 79.39 190.07 79.05 191.74 
M 127.9 203.53 128.74 204.41 129.88 204.72 130.17 204.72 130.19 204.59 
M 131.47 191.17 132.47 191.48 134.03 191.65 135.16 192.25 
M 117.63 186.31 117.49 183.66 117.77 181.18 118.15 180.21 119.83 177.17 120.07 176.13 119.92 175.24 
M 117.92 197.89 121.78 195.57 122.42 195.33 123.78 195.37 124.49 195.56 125.76 196.25 129.16 199.56 
M 146.35 203.16 144.45 204.36 142.33 205.41 141.41 205.67 140.55 205.61 139.76 205.25 138.61 204.24 138.03 202.99 137.78 201.67 
M 131.93 148.38 131.6 147.95 131.54 146.88 131.1 146.18 
M 99.04 188.83 97.29 190.68 96.84 190.85 94.69 190.59 90.13 188.93 86.26 188.72 
M 99.77 203.51 99.75 202.83 99.32 201.5 98.41 200.53 97.59 200.08 
M 139.79 163.37 142.14 164.04 142.69 164.34 143.57 165.29 143.87 165.96 143.82 167.66 142.76 170.86 
M 133.3 180.77 132.8 176.68 132.9 176.28 133.72 175.07 134.37 173.52 135.58 171.36 136.99 169.25 
M 113.87 200.28 112.6 199.86 109.44 199.43 108.24 199.07 107.16 198.43 104.01 195.4 101.74 194.55 
M 146.54 161.59 146.54 161.59 
M 137.57 149.67 137.33 148.44 136.89 147.39 135.52 145.54 132.11 142.9 130.35 142.42 129.54 142.82 
M 73.64 190.16 79.82 193.92 88.16 198.44 
M 79.7 193.3 78.5 193.16 
M 139.76 140.22 149.97 150.43 
M 145.83 139.44 152.89 146.51 
M 152.14 138.92 161.47 148.24 
M 158.85 138.78 168.29 148.22 
M 165.63 138.71 175.44 148.52 
M 172.35 138.59 179.17 145.41 
M 178.44 137.84 187.06 146.45 
M 184.31 136.87 190.56 143.11 
M 189.9 135.61 199.96 145.67 
M 195.54 134.41 201.24 140.11 
M 201.21 133.23 211.2 143.22 
M 207.65 132.82 213.57 138.75 
M 214.44 132.78 221.85 140.18 
M 221.63 133.12 228.84 140.33 
M 229.1 133.74 239.25 143.89 
M 237.03 134.83 242.45 140.25 
M 245.28 136.23 253 143.95 
M 253.6 137.72 260.6 144.71 
M 261.8 139.07 271.15 148.42 
M 269.88 140.3 279.09 149.51 
M 278.1 141.68 285.37 148.95 
M 287.61 144.34 293.2 149.94 
M 297.32 147.21 306.68 156.57 
M 306.17 149.22 311.59 154.63 
M 314.31 150.51 320.16 156.36 
M 322.34 151.7 330.25 159.61 
M 330.66 153.18 340.37 162.88 
M 339.32 154.99 349.35 165.02 
M 348.33 157.16 355.58 164.41 
M 357.96 159.94 367.53 169.51 
M 368.99 164.13 375.45 170.59 
M 216.53 291.39 218.84 297.7 
M 220.73 291.39 214.64 297.7 
M 222.53 291.39 222.74 291.7 223.13 291.39 222.92 291.1 222.53 291.39 
M 222.2 293.5 220.94 297.7 
M 224.6 293.5 222.71 299.8 
M 224.33 294.39 225.11 293.8 225.8 293.5 226.7 293.5 227.21 293.8 227.63 294.39 227.66 295.3 227.48 295.89 226.91 296.8 226.13 297.39 225.44 297.7 224.54 297.7 224.03 297.39 223.61 296.8 
M 229.46 295.3 233.06 295.3 233.24 294.7 233.12 294.1 232.4 293.5 231.5 293.5 230.81 293.8 230.03 294.39 229.46 295.3 229.28 295.89 229.31 296.8 229.73 297.39 230.24 297.7 231.14 297.7 231.83 297.39 232.61 296.8 
M 239 293.5 237.56 298.3 236.99 299.2 235.91 299.8 235.01 299.8 234.5 299.5 
M 238.73 294.39 238.31 293.8 237.8 293.5 236.9 293.5 236.21 293.8 235.43 294.39 234.86 295.3 234.68 295.89 234.71 296.8 235.13 297.39 235.64 297.7 236.54 297.7 237.23 297.39 238.01 296.8 
M 244.7 293.5 243.44 297.7 
M 244.43 294.39 244.01 293.8 243.5 293.5 242.6 293.5 241.91 293.8 241.13 294.39 240.56 295.3 240.38 295.89 240.41 296.8 240.83 297.39 241.34 297.7 242.24 297.7 242.93 297.39 243.71 296.8 
M 248.03 291.39 246.5 296.5 246.53 297.39 247.04 297.7 247.64 297.7 
M 246.5 293.5 248.6 293.5 
M 250.7 293.5 249.8 296.5 249.83 297.39 250.34 297.7 251.24 297.7 251.93 297.39 253.1 296.5 
M 254 293.5 252.74 297.7 
M 259.13 294.39 259.01 293.8 258.2 293.5 257.3 293.5 256.31 293.8 255.83 294.39 255.95 295 256.46 295.3 257.87 295.6 258.38 295.89 258.4 296.8 257.93 297.39 256.94 297.7 256.03 297.7 255.23 297.39 255.11 296.8 
M 265.13 291.39 263.24 297.7 
M 264.23 294.39 265.01 293.8 265.7 293.5 266.6 293.5 267.11 293.8 267.52 294.39 267.56 295.3 267.38 295.89 266.81 296.8 266.02 297.39 265.34 297.7 264.44 297.7 263.93 297.39 263.51 296.8 
M 271.39 293.5 270.7 293.8 269.93 294.39 269.36 295.3 269.18 295.89 269.2 296.8 269.63 297.39 270.14 297.7 271.04 297.7 271.73 297.39 272.51 296.8 273.08 295.89 273.26 295.3 273.23 294.39 272.81 293.8 272.3 293.5 271.39 293.5 
M 276.52 291.39 274.64 297.7 
M 281.6 293.5 280.33 297.7 
M 281.33 294.39 280.91 293.8 280.39 293.5 279.5 293.5 278.81 293.8 278.02 294.39 277.45 295.3 277.27 295.89 277.31 296.8 277.73 297.39 278.24 297.7 279.14 297.7 279.83 297.39 280.61 296.8 
M 284.93 291.39 283.39 296.5 283.43 297.39 283.94 297.7 284.54 297.7 
M 283.39 293.5 285.5 293.5 
M 288.23 291.39 286.33 297.7 
M 287.24 294.7 288.41 293.8 289.1 293.5 290 293.5 290.51 293.8 290.54 294.7 289.64 297.7 
M 293.3 293.5 292.39 296.5 292.43 297.39 292.94 297.7 293.83 297.7 294.52 297.39 295.7 296.5 
M 296.6 293.5 295.33 297.7 
M 301.73 294.39 301.61 293.8 300.8 293.5 299.89 293.5 298.91 293.8 298.43 294.39 298.55 295 299.06 295.3 300.47 295.6 300.98 295.89 301.01 296.8 300.52 297.39 299.54 297.7 298.64 297.7 297.83 297.39 297.7 296.8 
M 303.32 297.1 302.93 297.39 303.14 297.7 303.52 297.39 303.32 297.1 
"/></svg>
