<svg xmlns="http://www.w3.org/2000/svg" width="520" height="320"><rect x="0" y="0" width="520" height="320" fill="floralwhite"/><rect x="10" y="10" width="500" height="300" stroke="black" stroke-width="1" fill="none"/><path stroke="black" stroke-width="1" fill="none" stroke-linecap="round" stroke-linejoin="round" d="
M 140.19 106.96 149.09 102.27 158 98.1 166.91 94.66 175.82 92.43 184.74 91.66 193.65 89.77 211.47 84.2 220.39 81.91 229.3 81.64 238.21 82.38 247.13 83.94 256.04 86.24 264.95 88.04 273.86 90.14 282.78 93.91 291.69 98.35 300.6 103.65 309.52 109.67 336.25 126.55 345.17 131.84 354.9 137.17 
M 354.9 199.76 345.17 205.48 336.25 210.27 327.34 214.6 318.43 218.41 309.52 221.74 291.69 227.04 282.78 231.13 264.95 240.11 256.04 243.39 238.21 246.73 229.3 248.72 220.39 248.73 211.47 246.93 202.56 245.63 175.82 239.9 166.91 236.77 149.09 229.31 131.23 220.53 
M 145.66 209.12 143.45 202.81 139.86 196.95 
M 139.27 207 141.68 206.57 
M 145.17 135.11 147.6 131.24 147.6 127.26 144.91 122.98 
M 143.18 177.75 147.52 172.89 
M 149.67 157 148.41 154.54 145.77 151.58 
M 145.32 157.89 145.68 157.83 
M 146.53 209.41 151.09 203.74 154.04 197.27 154.04 193.27 151.09 186.81 146.5 181.1 143.1 178.98 
M 141.47 191.84 148.89 190.32 
M 140.41 195.2 148.44 194.89 
M 139.21 198.7 148.64 199.95 
M 145.31 104.26 148.39 103.58 154.67 100.78 158.21 98.02 
M 145.05 127.14 150.48 122.66 154.36 117.04 154.36 113.55 150.48 107.93 145.75 104.03 
M 142.94 111.7 147.64 111.28 
M 144.12 115.14 147.24 114.97 
M 144.67 118.94 147.53 119.18 
M 160.4 156.44 161.57 153.99 161.57 149.97 158.48 143.46 153.69 137.72 149.95 135.48 
M 145.96 148.46 155.94 146.79 
M 146.18 152.16 155.78 151.76 
M 146.14 154.9 155.71 157.16 
M 149.78 195.4 152.64 193.3 156.3 187.91 158.66 181.8 158.66 178.62 
M 146.95 177.14 152.78 175.75 
M 147.08 179.97 154.63 179.74 
M 146.69 182.76 154.07 184.48 
M 163.72 214.52 163.72 211.53 161.43 205.13 157.89 199.48 155.12 197.28 
M 152.18 210.37 159.46 208.86 
M 159.41 103.7 164.71 102.65 171.49 99.99 175.87 96.97 175.87 95.1 173.02 93.13 
M 163.92 95.82 167.57 95.66 
M 158.96 97.73 167.87 98.46 
M 155.96 123.27 161.36 121.79 168.28 117.99 172.74 113.69 172.74 111.03 168.28 106.72 161.36 102.93 155.96 101.44 
M 152.77 110.31 164.48 108.89 
M 152.97 112.34 164.64 112.2 
M 152.97 114.38 164.4 115.57 
M 160.46 151.79 162.59 150.91 168.61 145.99 172.49 140.42 172.49 136.97 168.61 131.39 162.59 126.47 157.89 124.55 
M 153.53 136.23 165.51 134.04 
M 153.69 138.41 165.56 138.7 
M 156.33 141.53 165.15 142.61 
M 159.72 182.61 162.75 180.98 
M 163.14 154.68 160.46 153.24 
M 162.9 211.39 164.27 210.52 168.57 205.1 171.34 198.96 171.34 195.16 168.57 189.02 164.27 183.6 160.91 181.48 
M 157.38 193.69 166.27 192.5 
M 157.53 197.38 166.39 196.74 
M 157.75 199.95 166.71 201.44 
M 167.96 215.73 165.73 214.3 
M 173.99 101.4 177.62 100.4 182.26 97.84 185.26 94.93 185.26 93.14 183.82 91.74 
M 170.35 94.14 179.87 93.77 
M 170.6 95.67 179.69 96.02 
M 171.62 117.6 175.76 116.41 181.06 113.37 184.48 109.93 184.48 107.8 181.06 104.35 175.76 101.31 173.91 100.78 
M 168.01 107.12 177.98 106.08 
M 167.9 108.95 178.14 108.83 
M 167.96 110.66 178.67 111.35 
M 168.97 141.24 173.24 139.52 178.7 135.14 182.23 130.17 182.23 127.09 178.7 122.12 173.24 117.73 168.97 116.02 
M 164.83 126.4 175.64 124.84 
M 164.58 128.57 175.99 128.76 
M 164.63 131.31 176.18 132.65 
M 177.78 149.81 175.85 147.46 172.9 145.67 
M 166.26 194.49 169.27 192.54 173.12 187.55 174.51 184.39 
M 163.2 183.05 171.23 184.8 
M 179.85 218.43 180.43 216.65 180.43 212.69 178.32 206.29 175.05 200.64 172.5 198.43 
M 170.04 211.21 176.24 209.62 
M 170.41 214.41 176.71 214.56 
M 184.19 94.72 186.72 94.22 191.81 92.22 195.08 89.96 195.08 89.31 
M 188.29 90.9 189.43 90.94 
M 183.1 111.84 187.15 110.73 192.35 107.89 195.69 104.67 195.69 102.68 192.35 99.46 187.15 96.61 183.1 95.5 
M 179.58 102.19 189.63 101.05 
M 179.43 103.67 189.77 103.44 
M 179.11 105.58 189.46 106.44 
M 181.27 132 185.65 130.59 191.27 127 194.89 122.93 194.89 120.41 191.27 116.34 185.65 112.74 181.27 111.34 
M 179.26 119.25 188.5 118.58 
M 180.11 121.8 188.33 121.4 
M 180.97 124.46 187.93 125.17 
M 190.7 148.22 192.11 146.1 192.11 143.1 188.86 138.25 183.83 133.96 180.97 132.75 
M 175.98 142.25 186.53 141.3 
M 175.93 144.23 186.62 144.62 
M 176.17 147.37 186.22 148.45 
M 179.68 212.93 182.12 211.51 186.58 206.3 189.46 200.39 189.46 196.74 186.58 190.84 182.12 185.63 181.38 185.19 
M 175.4 195.56 184.61 193.82 
M 174.96 198.3 184.35 198.91 
M 175.24 201.46 184.13 203.08 
M 187.77 219.72 185.46 216.87 182.26 214.89 
M 195.27 89.26 199.97 87.77 
M 194.49 103.95 196.09 103.39 199.65 100.89 201.95 98.06 201.95 96.31 199.65 93.48 196.09 90.98 193.31 90 
M 190.7 96.12 197.77 95.1 
M 190.23 97.53 198.14 97.51 
M 190.67 98.85 198.02 99.38 
M 193.47 124 196.44 122.72 200.24 119.45 202.69 115.75 202.69 113.46 200.24 109.77 196.44 106.5 194.49 105.67 
M 190.79 112.84 197.97 112.08 
M 190.44 114.21 198.59 114.6 
M 190.41 116.64 198.16 117.33 
M 191.01 145.15 194.25 143.71 198.4 140.03 201.07 135.86 201.07 133.28 198.4 129.12 194.25 125.43 191.01 124 
M 188.12 132.82 196.02 131.06 
M 187.65 134.71 196.08 134.34 
M 187.99 136.9 195.99 137.69 
M 191.56 148.13 189.35 145.22 186.7 143.47 
M 187.81 199.98 190.97 198.03 195.02 193.02 197.63 187.35 197.63 186.53 
M 184.42 188.5 193.01 190.26 
M 194.84 220.84 196.94 215.67 196.94 212.03 194.55 206.14 190.84 200.95 187.95 198.92 
M 185.36 211.18 192.24 209.74 
M 184.97 213.66 192.25 213.64 
M 184.81 217.03 192.6 218.16 
M 201.31 97.02 204.59 96.29 208.8 94.41 211.51 92.29 211.51 90.98 208.8 88.85 204.59 86.98 203.37 86.71 
M 198.21 90.55 206.98 90.36 
M 198.39 91.66 206.91 91.69 
M 198.45 92.62 206.78 93.27 
M 201.36 114.1 204.56 112.97 208.65 110.05 211.3 106.76 211.3 104.71 208.65 101.41 204.56 98.5 201.36 97.37 
M 198.48 104.09 206.2 103.58 
M 198.66 106.04 206.9 106.14 
M 198.04 107.18 206.77 107.93 
M 200.82 135.44 204.22 134.04 208.56 130.42 211.36 126.33 211.36 123.8 208.56 119.71 204.22 116.1 200.82 114.69 
M 197.33 122.73 206.06 122.19 
M 197.75 125.17 206.67 124.91 
M 197.89 127.42 206.37 128.04 
M 209.25 146.36 209.25 145.55 206.39 140.85 201.95 136.7 200.11 135.84 
M 195.5 144.32 204.19 143.15 
M 195.39 147.08 204.44 146.8 
M 197.76 216.18 201.34 214.19 205.92 209.09 208.88 203.31 208.88 199.74 205.92 193.96 201.34 188.86 197.76 186.87 
M 194.47 198.41 203.84 197.31 
M 194.23 201.57 203.36 201.21 
M 194.14 204.86 203.22 206.14 
M 205.96 222.09 203.16 218.87 199.88 216.99 
M 209.51 89.96 212.08 89.46 215.38 88.18 217.5 86.73 217.5 85.83 215.38 84.39 213.53 83.67 
M 207.38 85.59 213.54 85.48 
M 206.78 86.56 213.95 86.57 
M 207.33 86.84 213.29 87.11 
M 209.55 104.1 212.07 103.16 215.3 100.75 217.38 98.02 217.38 96.33 215.3 93.6 212.07 91.19 209.55 90.25 
M 206.89 95.73 213.39 94.82 
M 207.39 96.92 213.28 97.47 
M 207.1 98.28 213.62 99.12 
M 209.1 123.96 211.49 122.6 214.56 119.12 216.54 115.19 216.54 112.75 214.56 108.81 211.49 105.34 209.1 103.98 
M 206.4 112.15 212.88 110.83 
M 206.79 113.82 212.79 113.59 
M 207.04 115.85 213.13 117.22 
M 213.43 145.94 215.89 143.08 218.12 138.52 218.12 135.7 215.89 131.14 212.43 127.12 209.73 125.55 
M 207.24 134.61 213.92 133.74 
M 207.17 136.84 213.85 137.34 
M 206.86 139.47 214.19 140.51 
M 206.14 202.5 209.01 200.49 212.7 195.35 215.07 189.53 215.07 187.97 
M 202.96 188.13 210.04 187.55 
M 203.46 190.9 210.37 192.55 
M 217.34 223.3 218.46 220.71 218.46 217.16 215.98 211.44 212.15 206.38 209.15 204.41 
M 206.22 215.94 214.16 214.66 
M 206.01 218.79 213.6 219.32 
M 205.91 222.03 207.59 222.22 
M 217.7 96.96 220.7 96.26 224.56 94.45 227.04 92.4 227.04 91.14 224.56 89.09 220.7 87.28 217.7 86.57 
M 215.02 90.36 222.61 89.92 
M 214.74 91.53 222.2 91.47 
M 214.38 93.16 222.25 93.11 
M 217.16 113.64 220.07 112.5 223.8 109.59 226.2 106.3 226.2 104.26 223.8 100.96 220.07 98.05 217.16 96.91 
M 214.13 103.67 222.02 102.94 
M 214.49 105.1 221.77 105.13 
M 214.22 106.9 221.86 107.82 
M 217.32 136.01 220.11 134.6 223.88 130.8 226.31 126.5 226.31 123.83 223.88 119.53 220.11 115.72 217.17 114.24 
M 214.64 122.76 221.99 121.78 
M 214.17 125.07 221.85 125.54 
M 214.18 127.63 221.69 128.26 
M 226.11 151.33 226.63 150.38 226.63 147.34 223.95 142.44 219.79 138.1 217.32 136.81 
M 219.42 145.48 221.5 145.09 
M 215.39 188.65 216.43 188.08 
M 216.44 218.31 219.82 216.37 224.13 211.4 226.92 205.77 226.92 202.28 224.13 196.65 219.82 191.68 216.44 189.74 
M 213.03 201.53 221.65 200.04 
M 212.94 204.27 221.6 204.22 
M 213.22 207.07 222.19 208.71 
M 222.88 223.69 220.15 220.53 217.09 218.75 
M 225.98 90.08 228.45 89.6 231.61 88.35 233.64 86.94 233.64 86.07 231.61 84.66 228.45 83.41 225.98 82.93 
M 223.99 86.18 229.77 85.17 
M 223.23 86.7 230.2 86.89 
M 223.88 87.09 230.11 87.92 
M 225.74 103.72 228.21 102.82 231.37 100.52 233.41 97.92 233.41 96.31 231.37 93.7 228.21 91.4 225.74 90.51 
M 223.63 96.1 229.69 95.4 
M 223.72 96.71 229.71 97 
M 223.3 98.53 230.02 98.71 
M 224.26 122.78 226.58 121.43 229.55 117.97 231.46 114.06 231.46 111.64 229.55 107.72 226.58 104.27 224.26 102.92 
M 221.74 110.94 227.64 109.66 
M 221.93 112.58 227.62 112.89 
M 222.39 115.03 227.86 115.87 
M 225.61 148.93 227.99 147.28 231.05 143.03 233.02 138.22 233.02 135.24 231.05 130.43 227.99 126.18 225.61 124.52 
M 223.71 134.08 229.29 133.24 
M 223.69 137.02 229.31 136.38 
M 223.4 139.24 229.59 140.44 
M 231.85 157.41 230.68 154.73 227.11 150.09 224.33 148.28 
M 224.59 204.46 227.4 202.49 231 197.46 233.32 191.75 233.32 188.22 231 182.52 228.84 179.5 
M 222.94 186.65 228.8 185.83 
M 221.63 189.94 228.86 190.26 
M 221.93 192.52 228.73 194.28 
M 233.07 222.99 233.84 221.08 233.84 217.82 231.73 212.55 228.46 207.9 225.9 206.08 
M 223.24 216.53 229.72 215.31 
M 223.18 219.81 229.93 219.15 
M 223.66 222.43 229.18 223.66 
M 233.57 96.45 236.38 95.76 239.98 93.99 242.3 91.99 242.3 90.76 239.98 88.76 236.38 86.99 233.57 86.3 
M 230.5 90.2 238.05 89.71 
M 230.8 91.28 238.25 91.42 
M 230.54 92.55 237.89 93.22 
M 232.52 112.55 235.28 111.44 238.81 108.59 241.08 105.36 241.08 103.36 238.81 100.13 235.28 97.28 232.52 96.17 
M 229.75 103.03 237.22 102.31 
M 229.62 104.26 237.12 104.04 
M 230.2 105.63 236.99 106.67 
M 232.31 135.18 234.96 133.68 238.43 129.77 240.66 125.33 240.66 122.59 238.43 118.16 234.96 114.24 232.26 112.72 
M 229.39 122.1 236.57 120.87 
M 229.39 123.83 236.33 124.02 
M 229.85 126.45 236.62 127.66 
M 234.73 161.37 236.02 160.58 239.71 156 242.1 150.81 242.1 147.6 239.71 142.41 236.02 137.83 233.13 136.04 
M 229.98 146.49 237.48 145.16 
M 230.73 148.99 237.63 149.04 
M 230.48 151.98 237.66 153.07 
M 233.32 190.51 236.47 188.62 240.5 183.76 243.1 178.25 243.1 174.85 240.5 169.34 238.8 167.3 
M 233.9 173.23 238.46 172.11 
M 230.73 176.92 238.5 176.85 
M 230.03 179.64 238.6 181.11 
M 233.67 218.65 236.81 216.8 240.83 212.06 243.43 206.69 243.43 203.36 240.83 197.99 236.81 193.25 233.67 191.4 
M 230.36 201.94 238.5 200.76 
M 231.04 205.23 238.84 204.93 
M 230.37 207.85 238.49 209.46 
M 237.38 222.23 235.47 220.06 232.46 218.35 
M 241.24 89.15 243.47 88.65 246.33 87.37 248.18 85.93 248.18 85.04 246.67 83.86 
M 239.24 84.45 245.02 84.27 
M 238.96 85.2 245.07 85.73 
M 239.39 85.86 244.87 86.34 
M 241.31 102.85 243.51 101.98 246.32 99.73 248.14 97.19 248.14 95.62 246.32 93.07 243.51 90.83 241.31 89.95 
M 239.13 95.03 244.61 94.68 
M 238.89 96.32 245.18 96.77 
M 239.39 97.63 245.07 98.42 
M 238.79 120.84 240.99 119.51 243.81 116.12 245.62 112.27 245.62 109.89 243.81 106.04 240.99 102.64 240.27 102.2 
M 239.5 101.74 238.79 101.31 
M 238.46 108.57 241.94 107.78 
M 236.53 110.95 242.67 111.12 
M 236.67 113 241.95 113.87 
M 240.37 148.28 242.49 146.5 245.2 141.95 246.95 136.79 246.95 133.6 245.2 128.44 242.49 123.89 240.37 122.12 
M 238.06 132.45 243.8 131.36 
M 238.22 135.6 244.04 135.41 
M 238.41 138.02 243.93 139.41 
M 242.21 177.33 244.55 175.42 247.53 170.53 249.46 165 249.46 161.57 247.53 156.03 244.55 151.15 242.21 149.24 
M 239.84 160.75 246.08 158.66 
M 239.97 163.28 246.28 163.08 
M 240.33 165.79 245.77 167.52 
M 242.5 205.07 244.71 203.43 248.01 198.56 250.13 193.03 250.13 189.61 248.01 184.09 244.71 179.21 242.17 177.33 
M 239.78 188.13 246.6 187.48 
M 239.3 191.7 246.46 191.14 
M 239.29 194.03 246.3 195.46 
M 249.91 220.61 249.91 217.8 247.82 212.8 244.58 208.4 242.05 206.68 
M 239.86 217.2 246.31 215.73 
M 239.52 218.93 246.48 219.54 
M 247.53 94.02 250.22 93.34 253.67 91.6 255.9 89.63 255.9 88.41 253.67 86.44 250.37 84.78 
M 245.1 88.05 251.6 87.53 
M 245.21 89.06 251.52 88.67 
M 244.86 89.83 252.11 90.64 
M 246.38 109.96 249.02 108.86 252.4 106.06 254.57 102.88 254.57 100.91 252.4 97.73 249.02 94.92 246.38 93.83 
M 243.49 100.66 250.27 99.56 
M 243.92 102.2 250.81 101.74 
M 243.91 103.55 250.27 104.52 
M 246.32 131.98 248.32 130.8 251.6 126.91 253.71 122.5 253.71 119.77 251.6 115.36 248.32 111.47 245.76 109.95 
M 243.04 118.81 250.1 117.41 
M 242.9 120.99 249.64 120.85 
M 243.07 123.35 249.59 124.43 
M 246.77 160.19 249.29 158.33 252.52 153.58 254.6 148.19 254.6 144.86 252.52 139.47 249.29 134.71 246.77 132.86 
M 244.08 144.15 250.79 142.5 
M 244.12 146.8 250.74 146.87 
M 244.1 148.98 250.83 150.69 
M 248.7 190.37 251.49 188.37 255.07 183.25 257.37 177.45 257.37 173.86 255.07 168.06 251.49 162.94 248.7 160.94 
M 245.97 172.58 253.09 171.39 
M 245.9 175.47 253.18 175.54 
M 245.82 178.92 253.21 179.72 
M 250.08 219.17 253.12 217.27 257 212.41 259.51 206.89 259.51 203.48 257 197.97 253.12 193.1 250.08 191.2 
M 246.92 202.48 254.73 201.19 
M 247.33 205.34 255.31 205.25 
M 247.08 208.36 255.33 209.59 
M 252.07 220.33 249.19 218.76 
M 253.27 98.49 255.51 97.61 258.38 95.35 260.23 92.79 260.23 91.2 258.38 88.64 255.51 86.38 253.51 85.59 
M 251.15 90.41 256.97 90.44 
M 251.12 91.86 257.2 91.63 
M 251.46 93.43 256.87 93.58 
M 252.15 117.65 254.3 116.36 257.06 113.03 258.84 109.27 258.84 106.94 257.06 103.17 254.3 99.85 252.15 98.55 
M 250.23 106.05 255.42 104.92 
M 250.09 107.76 255.5 107.76 
M 250.36 110.19 255.81 111.04 
M 251.72 142.5 253.79 140.82 256.43 136.53 258.14 131.66 258.14 128.65 256.43 123.78 253.79 119.49 251.72 117.81 
M 249.4 127.61 255.03 126.54 
M 249.33 130.13 255.33 130.05 
M 249.35 132.36 254.64 133.78 
M 252.8 172.65 254.67 170.59 257.07 165.3 258.62 159.31 258.62 155.61 257.07 149.62 254.67 144.33 252.8 142.26 
M 251.36 154.29 256.12 152.65 
M 251.32 157.44 255.54 157.24 
M 250.93 160.23 255.52 161.82 
M 257.65 206.17 260.18 204.05 263.41 198.62 265.5 192.46 265.5 188.66 263.41 182.5 260.18 177.07 257.65 174.95 
M 255.02 187.25 261.77 185.73 
M 255.12 190.3 262.04 190.36 
M 255.26 193.46 261.51 195.26 
M 265.87 216.95 264.16 212.48 260.97 207.72 258.48 205.87 
M 255.9 216.65 262.82 215.48 
M 255.8 219.13 257.72 219.34 
M 261.87 91.85 264.75 91.2 268.43 89.53 269.08 89.01 
M 259.04 86.97 259.93 87.03 
M 259.46 87.85 265.47 88.16 
M 260.18 107.16 262.98 106.1 266.57 103.39 268.88 100.33 268.88 98.43 266.57 95.36 262.98 92.65 260.18 91.6 
M 257.35 98.22 264.8 96.86 
M 257.49 99.72 265.06 99.71 
M 257.38 101.07 264.33 101.98 
M 258.89 128.56 261.56 127.11 264.98 123.41 267.19 119.22 267.19 116.63 264.98 112.44 261.56 108.74 258.89 107.3 
M 256.67 115.79 263.15 114.37 
M 256.51 118.03 263.4 118.11 
M 256.29 119.73 263.27 120.8 
M 258.39 155.59 260.89 153.71 264.09 148.89 266.16 143.44 266.16 140.06 264.09 134.61 260.89 129.79 258.39 127.92 
M 256.28 139.03 262.06 137.22 
M 255.61 141.54 262.1 141.43 
M 255.95 144.89 262.76 146.18 
M 264.75 186.65 268.27 181.02 270.5 174.68 270.5 170.76 268.27 164.42 264.8 158.82 262.09 156.64 
M 259.85 169.53 266.55 167.65 
M 259.45 172.54 266.52 172.92 
M 259.56 175.53 266.62 177.28 
M 271.64 214.73 273.07 212.8 275.55 206.89 275.55 203.24 273.07 197.33 269.22 192.11 266.21 190.08 
M 263.38 202.23 271.14 200.76 
M 263.16 204.75 270.68 205.26 
M 263.69 208.03 271.07 209.25 
M 269.35 97.78 271.88 96.97 275.11 94.9 277.2 92.55 277.2 91.55 
M 267.18 90.99 273.12 90.08 
M 266.85 91.79 273.81 92.22 
M 267.28 92.87 273.27 94.01 
M 266.4 114.49 268.38 113.47 271.46 110.3 273.45 106.71 273.45 104.49 271.46 100.9 268.38 97.72 268.05 97.56 
M 265.78 103.7 269.99 103.11 
M 263.51 105.38 269.81 105.53 
M 263.97 107.62 269.93 108.06 
M 265.73 139.37 268.01 137.81 270.92 133.8 272.79 129.26 272.79 126.45 270.92 121.91 268.01 117.9 265.73 116.34 
M 263.68 125.33 269.28 124.57 
M 263.68 127.99 269.37 128.26 
M 263.65 130.51 268.99 131.11 
M 263.29 167.83 265.42 165.62 268.14 159.95 269.9 153.53 269.9 149.55 268.14 143.13 265.93 138.53 
M 261.53 148.45 266.94 146.89 
M 261.63 151.3 266.96 151.43 
M 261.43 154.45 266.69 156.05 
M 274.66 208.51 277.13 206.19 280.33 200.2 282.39 193.41 282.39 189.21 280.33 182.42 277.13 176.42 274.63 174.08 
M 272.4 188.05 278.35 185.95 
M 272.53 191.12 278.5 191.3 
M 272.55 194.7 278.6 196.76 
M 279.66 211.71 276.59 207.24 274.09 205.41 
M 276.01 106.43 279.12 105.41 283.1 102.81 285.66 99.85 285.66 98.02 283.1 95.07 279.12 92.46 276.01 91.44 
M 272.63 97.35 281.41 96.33 
M 273.41 98.86 281.25 99.04 
M 273.21 100.71 281.07 101.58 
M 273.84 126.7 276.75 125.33 280.47 121.81 282.87 117.82 282.87 115.35 280.47 111.36 276.75 107.84 273.84 106.46 
M 271.27 114.72 278.41 113.39 
M 271.27 116.36 278.67 116.94 
M 270.63 118.68 278.14 119.57 
M 272.09 152.93 274.86 151.06 278.4 146.25 280.69 140.81 280.69 137.44 278.4 132 274.86 127.2 272.09 125.32 
M 269.38 136.48 276.14 134.6 
M 269.42 139.24 276.16 139 
M 269.51 142.08 276.91 142.89 
M 276.56 187.73 279.36 185.44 282.95 179.58 285.26 172.94 285.26 168.83 282.95 162.19 279.36 156.33 276.56 154.04 
M 273.73 167.14 281.1 165.65 
M 273.56 170.98 281.32 170.49 
M 273.57 174.18 281.23 176.24 
M 290.93 207.97 291.4 206.78 291.4 203 288.98 196.89 285.23 191.49 282.3 189.39 
M 279.67 201.73 287.19 199.97 
M 279.67 205.05 287.28 204.54 
M 279.16 207.89 286.07 209.51 
M 285.78 98.18 288.55 97.34 289.05 97.03 
M 282.92 115.06 285.59 113.88 289 110.83 291.2 107.39 291.2 105.26 289 101.81 285.59 98.77 282.92 97.58 
M 280.62 104.87 286.97 104 
M 280.71 106.17 287.43 106.56 
M 280.54 108.03 287.61 109.07 
M 280.73 137.67 283.08 136.17 286.09 132.3 288.02 127.92 288.02 125.21 286.09 120.83 283.08 116.96 280.73 115.45 
M 278.27 124.54 284.76 122.87 
M 278.85 126.18 284.54 126.33 
M 278.27 128.96 284.1 129.74 
M 282.19 162.63 284.25 158.96 286.3 152.54 286.3 148.56 284.25 142.13 281.07 136.46 278.58 134.24 
M 277.46 147 282.94 145.74 
M 276.44 150.76 282.56 150.75 
M 276 153.62 282.71 155.53 
M 289.75 207.71 291.97 205.32 294.82 199.21 296.65 192.29 296.65 188 294.82 181.08 291.97 174.96 289.75 172.58 
M 287.83 186.36 293.67 184.71 
M 287.49 190.38 293.04 190.06 
M 287.34 193.95 293.33 195.22 
M 293.33 207.46 291.33 205.94 
M 293.42 107.29 296.76 106.32 300.94 103.88 
M 289.82 98.48 291.59 98.3 
M 290.44 100.19 295.1 100.38 
M 290.05 101.28 298.7 102.54 
M 289.93 126.14 293.01 124.82 296.95 121.44 299.5 117.61 299.5 115.24 296.95 111.41 293.01 108.03 290.41 106.91 
M 287.13 114.78 294.8 113.25 
M 286.76 116.65 294.89 116.41 
M 286.98 118.11 294.92 119.26 
M 287.61 151.87 290.57 150.04 294.36 145.34 296.81 140.02 296.81 136.73 294.36 131.41 290.57 126.71 287.61 124.88 
M 284.95 135.48 292.14 134.32 
M 284.79 138.44 292.63 138.51 
M 284.7 140.97 292.23 142.03 
M 295.28 182.7 298.1 178.23 300.46 171.65 300.46 167.58 298.1 161.01 294.44 155.21 291.59 152.94 
M 288.69 166.22 295.84 164.9 
M 288.65 169.69 295.94 169.98 
M 288.53 172.71 290.68 173.22 
M 290.81 173.25 296.41 174.57 
M 306.36 205.39 306.36 201.9 304.01 195.65 300.36 190.14 297.52 187.98 
M 295.07 200.44 301.84 198.69 
M 294.65 204.2 302.25 203.66 
M 294.63 206.8 295.78 207.04 
M 300.22 115.38 303.02 114.29 306.59 111.52 308.47 108.96 
M 297.55 105.41 302.86 105.18 
M 297.2 107.36 304.35 107.44 
M 297.71 108.59 304.34 109.44 
M 295.94 136.39 298.31 134.94 301.46 131.1 303.49 126.75 303.49 124.06 301.46 119.71 298.31 115.87 295.86 114.38 
M 293.46 122.88 299.96 122.26 
M 293.6 125.48 299.86 125.68 
M 293.89 127.51 299.83 129.03 
M 295.26 166.53 297.85 164.42 301.16 159.01 303.29 152.88 303.29 149.09 301.16 142.96 297.85 137.55 295.94 135.99 
M 293.14 148.15 299.27 146.24 
M 292.55 151.07 299.08 151.37 
M 292.57 153.73 299.03 155.84 
M 302.75 204.1 304.98 201.75 307.83 195.73 309.68 188.91 309.68 184.69 307.83 177.87 304.98 171.85 302.75 169.5 
M 300.55 183.66 306.18 181.64 
M 300.74 186.82 306.27 186.67 
M 300.7 190.28 306.38 191.88 
M 307.85 205.17 306.86 204.37 
M 306.78 126.38 310.13 125.11 314.42 121.86 317.19 118.17 317.19 115.89 315.27 113.33 
M 303.88 114.93 312.54 114.44 
M 303.82 117.42 312.49 117.15 
M 303.46 119.3 312.31 119.73 
M 303.83 151.46 307.11 149.68 311.32 145.11 314.04 139.94 314.04 136.74 311.32 131.57 307.11 127.01 303.83 125.22 
M 300.77 135.85 309.03 134.43 
M 300.77 138.72 309.35 138.08 
M 300.95 141.08 309.2 141.96 
M 306.97 184.99 310.11 182.78 314.13 177.12 316.73 170.71 316.73 166.74 314.13 160.33 310.11 154.66 306.97 152.45 
M 303.74 165.56 311.69 164.24 
M 304.22 168.37 311.85 168.78 
M 303.56 171.89 312.37 173.97 
M 321.85 202.03 321.85 200.66 319.39 194.33 315.57 188.75 312.59 186.57 
M 309.73 199.37 317 198.04 
M 309.72 202.6 317.27 202.85 
M 318.72 117.38 320.64 116.72 
M 312.31 136.34 315.23 134.88 318.97 131.15 321.37 126.92 321.37 124.3 318.97 120.08 315.23 116.34 312.31 114.89 
M 309.78 123.49 317.24 122.19 
M 309.53 125.94 317.1 125.95 
M 309.8 127.84 316.71 128.51 
M 315.79 163.21 318.71 159.19 321.18 153.21 321.18 149.51 318.71 143.53 314.87 138.25 311.88 136.19 
M 308.93 147.98 316.68 147.03 
M 308.72 151.49 317.03 151.24 
M 309.76 154.86 316.69 155.97 
M 317.98 202.82 320.64 200.5 324.05 194.56 326.25 187.83 326.25 183.67 324.05 176.94 320.64 170.99 317.98 168.68 
M 315.2 182.57 322.28 180.79 
M 315.65 185.78 322.15 185.92 
M 315.06 188.9 322.06 191.13 
M 325.6 129.15 329.21 127.86 333.5 124.8 
M 321.82 117.95 322.5 117.87 
M 321.83 119.81 325.65 119.83 
M 321.98 121.44 330 122.58 
M 322.58 153.8 326.15 152.05 330.71 147.57 333.66 142.49 333.66 139.34 330.71 134.26 326.15 129.77 322.58 128.02 
M 319.37 138.66 328.61 136.79 
M 319.16 141.31 328.67 140.88 
M 318.98 143.33 328.45 144.56 
M 324.97 186.19 328.34 184.06 332.67 178.61 335.46 172.43 335.46 168.61 332.67 162.43 328.34 156.98 324.97 154.85 
M 322.01 167.46 330.61 165.42 
M 321.79 170.29 330.57 170.56 
M 321.74 173.28 330.61 174.83 
M 337.5 197.25 336.58 195.11 332.5 189.72 329.32 187.62 
M 326.63 199.67 334.11 198.39 
M 332.94 141.15 336.13 139.65 340.21 135.81 342.84 131.46 342.84 130.46 
M 329.98 127.5 337.32 127.18 
M 329.47 130.28 338.02 129.9 
M 329.51 132.34 338.02 133.17 
M 333.2 171.2 335.98 169.21 339.55 164.12 341.84 158.36 341.84 154.79 339.55 149.02 335.98 143.93 333.2 141.95 
M 330.82 153.95 337.97 152.42 
M 330.85 156.44 337.97 156.6 
M 330.24 159.11 337.82 160.81 
M 343.85 194.92 345.56 190.33 345.56 186.47 343.23 180.23 339.63 174.73 336.81 172.58 
M 334.4 184.89 341.39 183.54 
M 333.78 188.08 341.48 188.01 
M 334.17 191.71 341.32 193.55 
M 344.99 132.57 345.87 132.23 
M 341.38 156.05 344.71 154.35 348.97 149.99 351.72 145.06 351.72 142 348.97 137.07 344.71 132.71 341.38 131.01 
M 338.15 140.98 347.03 139.83 
M 338.43 143.89 346.49 143.81 
M 338.57 145.99 347.08 146.88 
M 344.73 186.05 345.84 185.31 349.85 179.97 352.44 173.92 352.44 170.18 349.85 164.14 345.84 158.8 342.71 156.71 
M 339.48 169.05 347.71 167.83 
M 339.65 172.41 347.75 172.28 
M 339.7 175.14 347.41 176.36 
M 350.53 192.22 349.69 191.11 346.6 189.05 
M 352.56 143.66 354.9 142.46 
M 349.74 136 353.54 136.43 
M 346.82 168.19 349.27 166.25 352.4 161.26 354.42 155.61 354.42 152.12 352.4 146.47 349.27 141.48 346.82 139.53 
M 344.62 150.98 351.09 149.95 
M 344.56 153.82 350.98 154.12 
M 344.05 156.65 350.53 158.09 
M 354.9 173.64 354.01 172.8 
M 352.12 186.31 354.9 185.45 
M 351.67 189.76 354.9 189.64 
M 354.83 141.66 354.9 141.65 
M 354.42 143.77 354.9 143.77 
M 354.76 145.53 354.9 145.55 
M 138.02 218.15 134.4 213.47 
M 142.92 211.67 146.53 209.41 
M 151.24 223.78 153.75 223.11 
M 145.31 104.26 145.31 104.26 
M 145.75 104.03 145.75 104.03 
M 158.52 226.53 161.43 221.89 163.72 215.49 163.72 214.52 
M 152.27 213.38 159.79 213.9 
M 152.71 216.65 159.21 218.19 
M 174.98 232.26 175.56 230.98 175.56 227.35 172.94 221.49 168.89 216.32 167.96 215.73 
M 162.33 226.08 170.92 224.67 
M 183.82 91.74 183.82 91.74 
M 170.33 218.21 176.45 219.16 
M 195.08 89.31 195.08 89.31 
M 190.29 235.39 192.2 231.23 192.2 227.68 189.56 221.94 187.77 219.72 
M 178.96 226.2 187.04 225.26 
M 179.26 229.34 187.02 229.14 
M 178.92 232.4 187.45 233.41 
M 199.97 87.77 199.97 87.77 
M 207.14 238.26 210.07 232.54 210.07 229.16 207.36 223.7 205.96 222.09 
M 196.74 233.51 204.82 235 
M 209.15 233.46 212.15 231.49 215.98 226.43 217.34 223.3 
M 207.59 222.22 213.79 222.91 
M 215.25 239.47 212.1 235.04 209.68 233.37 
M 214.15 228.82 222.17 227.97 
M 213.79 231.62 222.26 231.62 
M 214.18 234.62 222.04 235.49 
M 225.9 232.81 228.46 230.99 231.73 226.34 233.07 222.99 
M 229.98 240.22 228.74 237.03 225.87 232.79 223.62 231.14 
M 238.4 238.49 239.32 237.43 241.81 232.47 241.81 229.4 239.32 224.44 237.38 222.23 
M 229.28 228.1 237.23 226.9 
M 246.67 83.86 246.67 83.86 
M 242.05 232 244.58 230.28 247.82 225.88 249.91 220.88 249.91 220.61 
M 235.47 238.83 242.98 237.61 
M 258.01 234.86 259 232.97 259 229.88 256.39 224.89 252.07 220.33 
M 246.37 229.04 253.94 227.92 
M 245.93 231.66 254.5 231.64 
M 257.72 219.34 262.85 219.92 
M 255.73 222.36 262.32 223.96 
M 259.98 234.2 257.95 233 
M 269.08 89.01 269.08 89.01 
M 265.47 88.16 265.47 88.16 
M 266.21 220.05 269.22 218.01 271.64 214.73 
M 277.2 91.55 277.2 91.55 
M 271.71 216.45 278.41 214.47 
M 271.53 221.8 278.18 222.49 
M 282.3 220.39 285.23 218.28 288.98 212.89 290.93 207.97 
M 286.07 209.51 287.19 209.77 
M 286.84 222.6 285.38 220.92 282.34 219.16 
M 288.5 216.32 294.57 215.34 
M 300.94 103.88 300.94 103.88 
M 298.69 218.79 300.36 217.52 304.01 212.01 306.36 205.76 306.36 205.39 
M 302.86 105.18 302.86 105.18 
M 304.65 216.47 310.73 214.88 
M 315.27 113.33 315.27 113.33 
M 309.53 206.13 317.74 207.83 
M 325.65 119.83 325.65 119.83 
M 326.47 202.71 334.3 203 
M 326.22 206.5 333.53 207.26 
M 342.84 130.46 342.84 130.46 
M 337.32 127.18 337.32 127.18 
M 336.81 204.22 339.63 202.07 343.23 196.57 343.85 194.92 
M 353.98 197.16 353.64 196.37 350.53 192.22 
M 353.54 136.43 353.54 136.43 
M 193.65 89.77 193.6 83.25 193.93 81.1 194.64 79.1 194.84 76.25 194.16 70.64 194.61 68.24 194.37 66.02 195.19 64.29 195.65 62.2 197 59.33 197.31 57.31 196.56 55.09 199 50.48 200.53 48.41 201.34 45.42 203.19 44.26 204.45 42.12 205.01 39.07 206.69 36.66 210 35.29 213.62 30 214.04 33.24 216.18 35.46 217.96 37.22 220.11 38.21 222.29 39.59 226.47 45.08 227.69 46.32 229.95 48.41 232.55 50.47 235.48 52.16 237.34 54.54 238.66 57.4 239.07 59.12 242.61 62.51 244.04 64.48 245.86 67.89 250.07 71.09 253 72.46 257.39 76.32 259.78 80.49 261.89 83.15 262.84 85.32 263.31 87.71 
M 264.95 88.04 264.95 88.04 
M 197.58 88.53 197.95 82.28 198.68 77.65 198.07 71.89 198.71 69.88 198.82 67.07 199.59 64.62 200.02 60.82 200.65 58.69 200.45 53.74 
M 201.52 87.29 201.91 85.82 201.86 83.53 202.15 78.44 202.09 71.22 202.42 68.87 202.36 66.5 202.96 62.42 204.11 60.15 204.69 57.06 204.72 54.39 207.15 50.89 208.66 48.18 210.5 46.32 211.64 44.1 213.03 41.94 215.75 40.12 
M 205.45 86.06 205.84 84.53 205.67 82.29 205.98 79.88 206.02 77.59 205.26 75.16 205.3 72.89 205.87 70.52 205.8 68.32 205.41 66.43 205.38 64.25 206.84 59.63 
M 209.39 84.84 209.95 80.79 210.13 78.14 209.83 75.68 210.19 73.68 209.69 69.43 209.23 67.59 209.62 63.02 211.17 60.45 213.13 58.2 215.2 55.26 
M 213.36 83.71 214.04 81.85 214.13 79.42 213.57 75.07 213.45 72.81 213.65 69.88 213.98 67.75 214.63 65.76 215.24 62.48 216.55 59.9 218.26 57.88 
M 217.35 82.69 218.01 80.73 216.61 72.03 217.15 69.97 219.46 64.16 
M 221.4 81.88 221.87 80.05 222.98 73.52 224.94 68.18 225.23 66.34 226.27 64.55 227.92 63.21 230.31 60.27 
M 225.52 81.75 226.72 79.98 227.85 75.91 228.94 72.98 230 70.9 231.37 68.69 231.72 67.52 231.8 66.16 233.45 64.61 
M 229.64 81.67 231.03 80.35 231.89 78.22 232.4 75.24 233.64 73.2 235.22 72.13 
M 233.75 82.01 235.55 80.19 236.09 78.05 237.58 75.78 239.13 74.64 240.03 73.19 243.48 69.66 245.37 69.19 
M 237.86 82.35 239.65 80.85 241.22 77.5 242.54 75.35 244.86 74.04 
M 241.93 83.03 243.78 82.29 243.86 80.78 
M 245.99 83.74 248.23 82.99 248.85 81.4 250.43 79.27 
M 250.01 84.68 252.41 83.35 253.81 81.14 257.06 79.94 
M 254 85.72 256.34 84.44 259.27 83.34 
M 258.02 86.64 260.04 86.71 
M 262.06 87.46 262.07 87.46 
M 145.25 158.25 148.91 156.93 152.19 157.23 155.51 157.2 161.13 156.35 163.92 154.03 165.22 151.89 167.53 151.09 171.95 150 175.39 150.75 178.81 149.41 219.28 145.36 229.49 154.24 231.14 156.3 238.88 167.17 237.63 169.13 235.87 170.83 232.78 174.67 231.06 176.42 229.68 178.5 228.1 180.38 226.78 182.52 221.18 188.47 176.44 184.79 173.72 184.23 172.69 183.74 171 183.65 168.06 182.96 162.02 180.69 159.42 179.02 156.49 177.47 151.92 175.32 149.18 173.67 143.65 171.14 
M 144.99 159.83 149.78 158.74 157.88 159.11 162.94 156.78 167.17 155.58 169.04 154.65 171.02 154.64 173.07 154.31 175.35 153.36 178.21 152.5 183.48 152.74 186.14 151.77 187.92 152.2 190.37 152.12 197.72 148.64 199.96 148.16 202.66 148.66 203.8 147.93 206.1 147.93 208.61 147.22 209.63 147.58 214.63 147.04 
M 144.63 162.06 150.07 161.37 155.16 161.38 157.88 161.6 163.02 160.98 165.45 161.42 167.57 161.08 174.33 159.35 176.96 159.98 179.11 160.69 181.92 160.98 184.93 159.1 187.71 158.51 190.9 158.61 192.37 158.15 194.95 158.69 198.28 157.83 206.74 157.02 208.8 157.03 211.59 156.21 214.74 157.18 217.7 156.48 
M 144.33 164.39 147.14 164.02 149.7 164.11 155.04 164.91 158.17 165.02 160.07 164.88 168.21 165.68 170.1 166.25 174.84 166.11 177.08 165.76 179.71 166.26 185.93 166.32 188.54 165.98 190.42 165.42 193.41 165.56 195.98 166.12 198.42 166.97 201.31 166.61 203.4 165.69 209.09 164.66 211.69 164.84 213.66 165.46 215.04 166.42 218.33 166.17 221.72 166.43 225.41 166.06 
M 144.34 166.5 149.53 167.25 152.3 168.18 159.81 169.14 162.2 169.22 167.03 170.15 171.77 171.9 174.31 172.35 181.92 172.53 187.38 173.02 189.56 174.01 192.37 174.77 195.14 175.18 201.01 174.05 205.21 175.32 208.33 175.85 210.9 175.75 212.72 175.48 215.28 175.8 
M 143.85 168.62 146.55 169.61 149.08 170.32 151.75 171.37 157.04 172.82 159.09 173.65 161.43 174.87 164.03 175.17 169.16 176.54 174.89 177.16 183 180.71 186.97 180.97 189.32 181.99 192.4 182.6 197.21 183.2 199.09 183.96 203.34 186.39 
M 202.56 245.63 206.45 250.39 208.22 253.11 211.65 264.36 210.42 265.52 207.94 266.36 206.58 268.5 200.41 266.86 197.22 265.67 194.87 264.05 191.13 261.9 186.43 258.89 179.82 249.18 178.88 246.15 175.82 239.9 
M 198.52 244.8 201.14 248.96 203.26 251.78 204.48 254.42 
M 194.48 243.97 196.64 248.08 200.53 253.95 202 256.44 
M 190.46 243.06 193.07 246.7 194.58 249.46 196.94 255.18 198.68 258.28 
M 186.44 242.13 188.76 246.22 190.2 248.32 192.78 252.95 194.98 259 197.16 262.12 
M 182.41 241.25 184.09 245.4 185.69 248.13 187.12 249.95 188.41 252.1 189.48 254.52 190.86 259.63 
M 178.37 240.43 179.97 244.29 181.66 247.39 183.67 250.37 184.99 252.85 185.9 255.44 187.33 257.83 
M 309.52 221.74 313.28 226.02 314.96 229.16 317.48 231.91 312.39 233.39 309.6 233.85 306.79 237.87 305.59 240.16 304.13 242.14 301.18 242.47 298.08 242.11 295.24 242.01 293.22 243.49 291.97 245.74 291.55 248.78 290.64 251.21 289.19 253.12 287.89 255.23 285.16 255.99 282.61 256.92 281.54 259.22 280.94 262.01 279.63 264.15 277.89 265.86 276.52 267.96 274.92 269.84 272.26 270.48 269.77 271.28 267.82 272.83 265.49 275.23 262.36 280 260.76 278.4 260.16 276.97 258.99 275.16 256.94 273.19 255.92 271.26 254.86 268.47 253.3 265.21 249.85 260.16 247.71 257.48 245.83 256.27 244.02 254.23 242.37 251.99 240.37 249.79 238.21 246.73 
M 305.55 222.89 309.58 227.52 311.6 230.92 
M 301.59 224.04 305.66 227.65 
M 297.64 225.23 301.93 228.69 304.94 232.19 
M 293.7 226.43 298.23 229.78 301.15 233.39 303.52 237 
M 289.84 227.88 294.2 231.44 
M 286.09 229.61 296.74 239.2 
M 282.35 231.35 286.15 234.65 291.47 238.32 293.9 240.25 
M 278.69 233.23 281.91 236.5 287.6 240.51 290.29 241.48 
M 275.02 235.12 278.28 238.19 283.53 242.39 286.3 243.44 289.17 244.85 
M 271.33 236.96 274.7 239.54 280.11 244.03 282.69 245.84 284.69 248.49 287.51 251.2 
M 267.63 238.79 272.93 243.11 275.63 246.04 278.32 248.64 281.55 249.84 284.74 253.66 
M 263.88 240.51 266.68 243.66 268.96 245.41 271.23 247.43 276.94 251.66 278.67 253.93 
M 260.01 241.93 262.62 245.17 268.19 249.53 273.36 252.65 
M 256.14 243.35 259.35 246.15 261.45 248.51 266.04 253.09 267.52 255.18 269.01 257.68 270 260.72 
M 252.1 244.17 255 246.96 256.98 249.24 258.63 251.75 260.77 254.12 262.81 256.82 
M 248.05 244.97 254.3 252.61 255.85 255.19 259.69 259.13 
M 243.99 245.71 248.66 250.93 250.24 253.36 252.19 254.95 253.74 257.11 256.11 259.14 258.01 261.44 258.79 264.74 259.86 267.27 
M 354.08 136.73 356.58 136.09 363.43 132.68 368.01 130.03 370.52 129.16 374.13 126.21 375.94 124.88 380.27 122.19 382.42 120.36 386.9 118.1 391.11 115.6 394.04 113.32 398.69 110.42 401.55 108.9 404.36 106.61 406.37 105.26 410.05 103.31 413.91 99.91 418.66 96.95 420.57 95.27 423.84 93.88 426.93 93.14 428.98 92.13 435.23 87.57 437.4 86.36 439.6 84.58 441.44 82.68 442.64 81.75 444.17 79.72 448.77 77.66 451.6 76.92 452.78 75.25 457.46 73.1 461.35 68.87 463.87 68.48 467.1 67.57 470.03 66.16 471.37 64.38 474.93 61.08 465.76 80.43 464.07 82.13 462.64 84.1 460.91 85.77 460.04 88.3 458.48 90.14 457.51 92.57 455.32 93.78 454.77 96.62 451.62 100.26 450.15 102.17 448.83 104.25 448.33 107.13 445.65 111.24 442.13 118.1 439.94 119.4 438.01 120.94 436.45 122.87 435.51 125.41 432.04 128.86 430.08 130.37 428.35 132.11 426.09 133.31 424.59 135.26 423.84 137.93 422.83 140.36 421.37 142.33 419.75 144.15 418.57 146.47 417.17 148.56 415.14 150.03 412.67 151.06 411.45 153.32 410.4 155.71 409.02 157.78 407.88 160.07 405.94 161.49 404.73 163.61 404.33 166.53 403.2 168.66 401.96 173.33 401.93 175.72 402.19 178.2 402.77 180.9 405.45 192.13 405.09 194.54 404.39 196.61 403.89 198.79 409.32 202.77 411.69 204.9 412.66 207.71 413.65 212.24 414.42 217.12 415.85 219.92 416.26 222.2 415.84 223.65 416.57 226.27 419.51 232.15 421.65 236.87 422.59 248.89 419.97 246.49 417.81 244.78 416.15 242.88 414.43 241.61 411.1 241.11 408.5 238.68 405.64 235.65 402.25 233.88 397.71 230.48 392.46 227.16 391.37 225.95 386.05 222.87 382.15 219.79 377.21 216.4 372.11 213.29 370.07 211.47 367.78 210.45 363.4 207.66 358.99 203.73 354.08 200.29 
M 359.26 138.29 363.76 136.31 373.04 131.47 377.29 129.65 379.33 128.11 381.89 127.17 383.75 125.97 388.76 123.7 390.26 121.78 391.91 120.27 396.36 117.96 404.58 114.52 408.86 111.67 411.67 110.84 
M 354.08 143.08 357.24 142.41 366.83 138.63 369.14 137.34 371.66 136.67 375.64 134.44 378.03 133.34 382.41 131.63 385.04 130.79 387.36 129.31 389.93 128.24 391.97 126.82 393.85 125.81 396.27 125 398.34 123.2 400.74 122.24 403.56 120.86 406.47 119.19 
M 359.86 144.77 362.21 143.98 366.72 141.79 369.16 141.13 373.86 139.32 376.27 138.76 378.48 137.92 382.89 136.71 387.42 135.07 390.22 133.62 392.65 132.85 395.33 131.24 397.31 130.32 398.98 130.34 
M 354.08 149.44 357.29 149.1 362.54 147.98 366.97 145.94 368.85 144.89 371.17 144.21 376.28 144.07 378.33 143.55 381.48 142.21 384.55 141.13 387.98 140.34 391.22 138.92 394.2 136.85 396.29 135.79 398.95 135.74 400.96 135.05 407.18 134.28 408.29 133.32 410.83 131.76 416.53 129.3 418.19 129.54 418.9 129.97 420.23 128.82 424.28 127.72 429.23 125.57 
M 360.2 152.17 365.69 151.57 367.78 150.54 372.41 149.02 374.94 148.6 376.96 148.67 379.04 148.96 381.65 147.41 384.3 146.32 387.11 145.97 389.26 145.26 391.27 144.04 397.06 141.97 402.82 141.23 404.94 141.22 407.03 140.82 408.89 139.87 410.67 140.11 
M 357.42 155.7 360.35 155.29 366.01 155.28 368.3 154.98 370.45 154.17 373.16 153.58 375.51 152.87 378.07 152.88 380.93 152.21 383.7 152.6 385.93 152.46 387.93 152.13 392.94 150.75 394.35 148.68 396.82 148.05 400.29 148.27 
M 357.48 159.18 360.44 158.93 363.3 158.35 371.55 158.56 375.53 157.97 383.9 157.56 386.96 157.61 388.94 157.05 391.36 156.99 393.34 156.49 397.64 156.09 399.74 155.3 
M 354.08 162.15 357.6 162.57 360.55 162.51 363.35 162.02 366.21 162.4 368.72 163.01 372.05 163.01 373.96 162.77 375.33 161.89 377.66 161.12 380.02 160.94 383.57 160.41 386.62 160.11 395.17 160.68 398.06 159.69 400.33 159.89 
M 357.29 165.88 363 166.2 366.05 166.22 369.23 166.48 371.5 166.26 374.2 166.27 378.91 166.92 381.61 166.94 383.83 165.77 386.64 165.66 389.45 166.24 392.86 166.3 399.13 165.08 400.87 165.68 402.28 166.51 
M 357.29 169.23 371.47 170.62 374.36 170.63 377.3 170.91 380.66 172.16 383.34 172.11 384.75 171.76 
M 354.08 171.68 357.11 172.61 359.85 172.78 368.89 173.84 371.67 173.95 374.06 174.68 376.85 175.99 379.6 176.61 382.4 177.02 384.14 177.61 
M 357.11 176.08 364.91 177.7 371.27 177.82 373.85 178.93 376.56 179.55 379.25 180.76 381.74 181.38 383.94 182.22 387.51 182.09 389.97 181.82 
M 354.08 178.04 356.88 179.6 359.68 180.53 362.41 180.97 364.96 181.82 367.8 182.37 374.3 183.23 377.02 184.04 382.75 186.38 384.68 187.47 387.15 187.37 389.79 186.82 392.26 188.06 394.29 187.92 396.27 189.03 399.08 189.16 
M 354.08 181.22 356.97 183.16 362.69 185.24 368.82 186.22 373.86 188 376.56 188.71 379.78 190.17 382.47 190.85 385.63 192.21 388.08 193.77 390.04 193.69 392.58 193.19 
M 356.92 186.39 359.82 187.45 362.47 188.66 365.53 189.23 368.46 190.26 370.95 190.73 373.67 191.7 375.82 193.37 378.25 194.28 381.14 195.86 382.64 195.99 
M 362.14 191.15 370.62 194.75 373.52 196.36 375.27 197.63 377.53 198.34 380.51 198.99 382.78 199.84 384.41 200.85 388.58 202.6 390.73 204.17 393.59 205.22 397.14 205.61 399.64 206.78 402.21 207.56 405.06 208.71 406.85 209.19 
M 356.94 192.63 359.3 193.55 362.01 194.27 364.59 195.84 366.74 197.55 372.01 200.21 377.45 202.28 380.13 203.61 382.5 204.49 385.57 206.37 
M 359.41 197.07 361.91 198.15 366.49 200.88 368.86 202.93 371.16 204.33 373.62 205.18 376.54 206.55 381.45 209.97 385.09 210.83 386.47 211.56 389.27 212.65 391.71 215.22 393.95 216.47 395.64 217.05 398.35 218.88 399.37 220.34 407.71 224.77 
M 359.4 200.31 362.08 201.82 366.36 204.59 370.69 208.16 375.16 210.91 377.28 212.75 380.53 213.85 382.39 215.31 387.61 218.02 390.14 220.58 391.81 221.26 393.29 222.09 396.31 224.3 399.43 225.92 402.26 226.99 404.65 227.52 407.09 228.71 408.33 230.61 410 232.1 412.21 233.48 
M 291.69 98.35 295.7 103.51 310.2 92.67 312.64 92.5 314.72 91.98 317.51 92.18 319.72 91.9 322.7 92.77 325.14 94.75 326.36 95.37 328.85 97.02 330.97 97.69 333.34 97.03 335.63 96.67 338.15 97.43 339.33 99.48 340.27 101.53 343.37 106.44 345.6 110.55 347.14 114.44 347.43 116.6 342.83 131.68 336.25 126.55 
M 295.23 100.46 298.35 100.79 300.85 99.7 303.34 97.99 305.45 96.3 
M 298.78 102.57 302.09 102.69 304.55 101.4 306.88 99.83 310.39 97.17 313.33 95.35 
M 302.26 104.77 305.7 104.69 308.3 103.39 312.99 99.72 315.84 97.83 
M 305.68 107.08 308.82 106.72 311.77 104.91 313.61 103.23 316.24 101.6 318.42 100.95 319.68 99.61 
M 309.1 109.39 312.11 109.26 314.26 107.73 316.38 105.64 318.96 104.37 320.75 103.73 321.78 102.04 323.54 99.8 325.65 99.22 328.2 98.91 
M 312.57 111.61 315.31 111.05 319.96 108.14 322.28 107.21 326.15 104.75 327.59 103.16 329.45 101.97 
M 316.05 113.83 319.05 113 321.28 111.78 326.97 108.21 329.82 106.01 331.98 104.81 333.71 104.05 335.95 99.35 
M 319.54 116.03 322.33 115.08 327.09 113.05 330.4 109.72 332.61 108.43 334.64 106.91 
M 323.04 118.21 325.88 117.78 328.12 116.68 332.23 114.03 335.31 113.1 340.45 108.23 341.52 106.81 
M 326.54 120.39 329.84 120.1 334.5 117.7 337.26 116.69 340.8 114.66 
M 330.03 122.59 333.64 122.6 336.68 121.56 341.85 119.44 343.52 117.2 344.7 117.28 
M 333.51 124.8 337.8 125.05 340.81 123.99 343.08 122.69 345.03 121.24 
M 56.78 157.68 58.15 154.02 60.08 150.44 62.89 146.36 66.12 142.35 70.13 138.56 81.36 130.44 92.54 121.28 99.01 117.63 105.54 115.15 118.32 111.13 129.85 107.9 134.51 106.99 138.11 106.68 140.15 106.88 143.85 113.27 144.73 119.35 145.03 125.39 145.22 137.44 145.81 143.5 145.72 155.52 144.71 161.46 143.94 167.41 142.71 185.36 141.65 191.29 139.8 197.16 137.48 202.99 135.6 208.86 134.07 214.75 131.23 220.54 121.23 220.11 113.9 219.11 107.55 217.42 101.85 214.94 96.31 211.94 91.06 208.49 85.63 204.23 80.58 199.29 
M 77.65 195.88 72.84 189.77 69.56 185.1 65.08 175.9 64.01 174.12 
M 125.36 143.38 125.1 148.49 119.95 165.74 118.51 172.51 116.58 178.94 116.42 182.46 116.84 186.79 116.26 191.87 104.94 193.12 100.46 193.2 96.12 192.49 91.56 191.05 87.1 188.81 82.44 185.36 
M 79.31 198.66 77.77 196.06 74.25 190.96 65.87 176.81 55.15 161.66 54.47 159.65 55.42 157.91 57.55 157.56 59.07 158.71 62.1 164.07 64.43 167.61 66.28 171.13 69.4 176.42 72.84 184.03 80.61 199.27 
M 80.16 199.85 76.37 198.87 64.27 196.6 55.82 194.68 47.91 193.58 45.96 192.94 45.06 191.06 45.92 189.24 47.92 188.71 49.82 189.07 55.64 190.57 69.52 195.41 77.41 197.86 80.35 199.08 
M 95.47 152.75 94.07 150.79 93.38 148.49 93.48 146.09 94.36 143.85 95.91 142.02 97.97 140.79 100.33 140.29 102.71 140.59 104.87 141.65 106.57 143.34 107.63 145.5 107.92 147.89 107.43 150.24 106.2 152.31 104.37 153.86 102.13 154.73 99.73 154.83 97.42 154.15 95.47 152.75 
M 105.38 144.19 106.23 145.92 106.46 147.83 106.07 149.71 105.08 151.36 103.62 152.6 101.83 153.3 99.91 153.38 98.06 152.83 96.5 151.72 
M 97.94 149.03 97.39 148.25 97.11 147.33 97.15 146.37 97.5 145.47 98.12 144.74 98.95 144.25 99.89 144.05 100.84 144.17 101.71 144.59 102.39 145.27 102.81 146.13 102.93 147.09 102.73 148.03 102.24 148.86 101.5 149.48 100.61 149.83 99.65 149.87 98.73 149.59 97.94 149.03 
M 97.85 148.38 99.21 149.73 
M 98.79 147.09 101.27 149.57 
M 98.54 144.61 102.44 148.51 
M 100.64 144.48 102.88 146.73 
M 68.56 183 70.78 185.22 
M 57.08 156.67 60.19 159.78 
M 58.58 153.23 62.61 157.26 
M 60.35 150.04 63.81 153.5 
M 62.37 147.11 66.28 151.02 
M 64.53 144.32 67.68 147.47 
M 66.83 141.68 70.55 145.39 
M 69.37 139.27 72.43 142.33 
M 72.16 137.11 75.71 140.65 
M 75.04 135.04 79.98 139.98 
M 77.91 132.96 81.9 136.95 
M 80.77 130.87 85.52 135.62 
M 83.5 128.65 87.48 132.63 
M 86.19 126.39 90.07 130.27 
M 88.93 124.18 92.63 127.88 
M 91.67 121.98 96.18 126.49 
M 94.7 120.06 97.89 123.25 
M 97.87 118.27 102.63 123.04 
M 101.3 116.76 105.34 120.8 
M 104.89 115.4 107.65 118.16 
M 108.6 114.16 112.76 118.32 
M 112.33 112.95 114.96 115.57 
M 116.13 111.79 118.62 114.29 
M 119.95 110.66 124.34 115.05 
M 123.8 109.57 128.43 114.19 
M 127.68 108.5 131.11 111.93 
M 131.68 107.54 135.62 111.48 
M 135.95 106.86 140.42 111.34 
M 122.23 197.55 122.88 195.83 123.17 194.12 123.1 193.24 122.53 191.77 122.16 189.98 122.16 188.97 122.71 184.97 
M 137.42 203.17 134.34 202.46 133.8 201.96 133.46 201.11 
M 73.3 155.24 73.86 154.72 74.26 153.94 74.85 151.37 74.9 150.41 74.61 146.55 74.35 146 72.96 144.68 
M 107.98 140.75 105.2 141.97 
M 129.53 192.78 128.96 191.73 127.48 190.09 126.26 189.61 
M 112.16 191.22 112.71 189.83 114.41 187.27 114.85 186.06 114.93 185.15 115.35 184.34 
M 144.22 142.17 145.63 141.67 
M 79.22 155.62 78.22 155.7 77.49 155.27 76.44 152.57 75.54 151.3 75.07 149.65 74.92 147.58 
M 112.74 217.78 111.67 217.43 110.08 215.53 109.56 215.5 
M 99.23 203.48 95.57 203.1 93.98 203.16 93.67 203.03 93.5 202.75 
M 86.07 191.44 87.31 190.66 87.65 190.21 87.82 189.61 
M 75.31 166.76 73.2 164.98 72.03 161.85 69.3 159.82 66.96 158.37 
M 108.25 212.43 108.02 213.02 107.91 214.38 108.23 216.92 
M 82.55 198.66 84.95 196.04 87.96 194.91 89.52 193.64 
M 122.01 176.64 118.42 177.47 115.54 177.29 113.96 176.72 112.16 175.82 111.58 175.34 
M 69.65 145.63 69.27 144.87 
M 125.21 215.09 126.16 215.59 127.72 215.93 129.24 215.64 130.78 214.81 132.98 214.56 134.11 214.59 
M 131.09 211.72 131.59 212.4 132.28 212.94 134.25 214.05 
M 118.07 193.74 119.25 192.71 119.52 192.16 119.82 190.69 119.78 189.25 119.62 188.74 119.03 187.88 117.47 186.79 
M 136.38 206.42 133.86 206.17 133.28 206.25 132.9 206.55 132.8 206.9 133.15 207.61 
M 136.22 206.92 134.86 206.56 133.75 206.53 133.36 206.69 133.21 206.94 133.51 207.67 
M 142.47 124.43 141.52 125.3 140.32 127.15 139.59 127.62 138.93 127.66 
M 116.28 130.53 115.93 130.16 114.07 129.57 
M 62.35 160.48 63.36 159.46 65.5 158.02 65.69 157.32 65.52 156.12 
M 98.25 131.73 97.61 131.39 95.83 131.4 95.14 131.66 94.87 132.23 
M 91.76 177.75 90.78 176.9 89.37 176.12 
M 118.56 159.84 118.34 159.14 118.46 158.43 120.34 155.84 122.08 153.04 
M 108.98 167.94 106.19 167.39 100.53 167.45 
M 97.88 169.68 95.41 166.83 93.67 164.43 93.1 164.3 92.19 165.01 
M 95.11 193.58 94.61 192.97 94.12 191.92 92.39 190.55 
M 117.82 189.56 116.57 188.46 115.36 186.94 115.05 185.07 
M 87.12 144.88 87.58 144.2 89.66 142.72 91.61 141.71 93.61 141.01 94.46 141.21 94.83 141.55 
M 139.64 178.34 137.83 177.18 135.91 176.41 133.76 175.95 132.87 176.05 130.21 178.94 129.85 179.56 
M 104.07 183.3 103.03 183.43 98.7 182.99 96.47 183.59 
M 66.62 171.71 67.27 170.61 67.72 169.36 68.05 167.23 
M 91.68 177.83 90.74 177.02 89.55 176.37 
M 127.69 131.54 127.81 133.64 127.6 134.14 126.53 135.47 126.01 137.08 126.12 138.37 126.7 139.33 
M 78.37 194.73 77.58 192.94 76.42 191.11 
M 90.26 150.03 91.34 148.78 93.45 146.96 
M 137.5 170.66 137.82 170.44 138.96 170.23 141.18 169.45 
M 79.73 139.37 81.04 140.32 81.43 140.9 80 145.59 
M 120.78 135.76 122.91 135.25 123.61 135.28 124.12 135.48 124.68 136.13 125.08 138.45 125.6 139.42 
M 128.72 153.19 129.58 151.75 130.63 150.67 132.14 148.24 132.3 147.54 
M 83.39 174.3 83.73 175.19 84.59 178.86 84.85 179.25 
M 79.77 197.6 81.03 196.71 82.66 195.85 
M 83.7 185.6 83.28 183.95 82.66 182.37 81.13 180.22 81.09 179.33 
M 125.61 124.75 124.84 126 124.76 128.38 124.02 131.61 
M 81.62 199.85 82.77 198.04 84.67 196.09 87.14 195.26 88.52 194.48 89.09 193.96 
M 59.31 155.96 58.39 153.59 
M 105.13 189.09 104.7 191.51 104.31 192.66 103.7 193.44 102.55 194.46 101.87 195.51 
M 120.61 130.55 121.39 131.47 122.7 131.88 124.14 132.63 124.56 133.04 124.85 133.62 
M 94.24 124.52 93.77 125.33 92.53 125.96 91.04 126.09 89.85 125.97 
M 120.56 110.9 121.23 111.4 122.13 112.61 
M 109.97 205.98 109.85 205.54 110.09 204.92 111.47 203.65 112.74 203.06 114.29 202.82 
M 78.08 177.61 77.7 176.97 75.4 175.51 73.03 173.28 70.73 171.63 70.04 170.99 69.63 170.21 
M 78.34 173.53 79.12 173.7 79.78 173.41 80.45 172.62 80.65 171.91 
M 118.81 127.21 117.98 128.02 116.56 128.27 114.91 129.46 
M 123.61 129.63 123.49 130.86 123.6 131.64 124.77 133.36 124.89 133.99 
M 140.42 140.45 145.42 139.43 
M 140.4 163.53 140.94 163 141.3 163.21 
M 100.08 163.93 99.75 161.35 99.28 161.08 99.01 161.22 
M 93.65 149.44 93.66 149.41 
M 100.45 210.4 100.8 210.84 100.87 211.48 100.31 214.1 
M 76.57 173.98 74.44 172.97 72.04 171.34 71.21 170.6 69.33 168.28 68.17 165.85 
M 100.7 213.32 100.5 214.21 
M 136.28 136.43 137.88 135.68 139.76 135.25 141.25 134.48 142.5 134.2 
M 81.11 199.81 81.87 198.41 
M 84.74 203.36 89.57 199.33 90.48 198.4 
M 115.49 142.49 115.42 141.63 114.7 139.83 113.07 137.73 112.5 137.03 109.31 134.27 108.42 133.25 107.77 132.83 
M 62.98 160.43 63.36 160.04 65.27 158.84 65.9 158.04 65.84 156.71 65.48 155.81 
M 80.59 199.28 81.06 200.06 
M 77.78 196.08 77.76 196.36 77.93 196.33 
M 75.21 192.47 74.89 193.38 75.61 193.03 
M 72.94 188.79 72.38 189.39 72.02 190.39 72.64 189.82 73.43 189.61 
M 70.74 185.15 69.68 186.14 69.15 187.41 69.93 186.57 71.31 186.11 
M 68.69 181.42 66.97 182.9 66.28 184.42 67.22 183.32 69.3 182.53 
M 66.52 177.82 64.26 179.65 63.41 181.43 64.51 180.07 67.23 178.95 
M 64.18 174.36 61.55 176.4 60.53 178.45 61.8 176.82 64.96 175.44 
M 61.69 171.01 58.84 173.15 57.66 175.46 59.1 173.58 62.44 172.04 
M 59.29 167.59 56.13 169.9 54.79 172.48 56.39 170.33 60.02 168.61 
M 56.86 164.18 53.43 166.65 51.92 169.49 53.68 167.08 57.56 165.2 
M 54.77 160.54 50.72 163.41 49.05 166.51 50.97 163.83 55.21 161.74 
M 80.31 199.27 81.43 199.55 
M 76.36 197.5 77.03 197.1 77.07 197.74 
M 72.12 196.23 72.62 195.43 73.42 194.85 73.1 195.55 73.16 196.56 
M 68.04 194.91 68.73 193.5 69.82 192.6 69.21 193.62 69.14 195.28 
M 64 193.53 64.84 191.57 66.21 190.36 65.32 191.69 65.12 193.9 
M 59.98 192.12 60.96 189.64 62.61 188.11 61.43 189.76 61.1 192.49 
M 55.97 190.69 57.07 187.71 59 185.86 57.55 187.83 57.07 191.09 
M 51.84 189.59 53.18 185.78 55.39 183.61 53.66 185.9 53.02 189.89 
M 47.61 188.79 49.29 183.85 51.79 181.36 49.77 183.97 48.93 188.9 
M 53.24 194.28 62.85 199.79 67.94 202.37 73.2 204.72 78.68 206.83 84.5 208.71 96.31 211.94 
M 92.27 210.47 92.46 210.93 
M 93.93 211.31 94.45 211.26 
M 144.07 114.74 146.83 117.51 
M 141.95 106.03 151.78 115.85 
M 146.28 103.75 152.33 109.8 
M 150.66 101.54 157.05 107.93 
M 155.15 99.43 161.74 106.01 
M 159.75 97.43 168.5 106.18 
M 164.51 95.59 173.92 105 
M 169.53 94.01 174.51 99 
M 174.8 92.69 179.81 97.69 
M 180.72 92.01 185.79 97.08 
M 186.58 91.27 192.7 97.39 
M 192.02 90.11 197.33 95.42 
M 197.17 88.66 202.79 94.28 
M 202.18 87.08 209.81 94.7 
M 207.22 85.51 213.43 91.73 
M 212.29 83.99 221.76 93.46 
M 217.54 82.64 224 89.09 
M 223.32 81.82 231.98 90.48 
M 229.78 81.68 238.83 90.72 
M 236.98 82.28 245.65 90.95 
M 244.84 83.54 250.46 89.16 
M 253.48 85.58 259.46 91.56 
M 261.93 87.43 267.22 92.73 
M 270.42 89.33 279.03 97.93 
M 280.75 93.06 286.05 98.36 
M 294.04 99.74 302.16 107.87 
M 312.39 111.5 320.03 119.13 
M 330.18 122.69 340.05 132.56 
M 346.86 132.77 355.79 141.7 
M 361.29 140.6 362.18 141.49 
M 216.08 291.39 214.19 297.7 
M 216.08 291.39 216.59 297.7 
M 220.88 291.39 216.59 297.7 
M 220.88 291.39 218.99 297.7 
M 222.98 291.39 223.19 291.7 223.58 291.39 223.37 291.1 222.98 291.39 
M 222.65 293.5 221.39 297.7 
M 228.08 294.39 227.66 293.8 227.15 293.5 226.25 293.5 225.56 293.8 224.78 294.39 224.21 295.3 224.03 295.89 224.06 296.8 224.48 297.39 224.99 297.7 225.89 297.7 226.58 297.39 227.36 296.8 
M 230.45 293.5 229.19 297.7 
M 229.91 295.3 230.48 294.39 231.26 293.8 231.95 293.5 232.85 293.5 
M 234.68 291.39 234.89 291.7 235.28 291.39 235.07 291.1 234.68 291.39 
M 234.35 293.5 233.09 297.7 
M 239.48 294.39 239.36 293.8 238.55 293.5 237.65 293.5 236.66 293.8 236.18 294.39 236.3 295 236.81 295.3 238.22 295.6 238.73 295.89 238.76 296.8 238.28 297.39 237.29 297.7 236.39 297.7 235.58 297.39 235.46 296.8 
M 241.85 293.5 240.59 297.7 
M 241.31 295.3 241.88 294.39 242.66 293.8 243.35 293.5 244.25 293.5 
M 245.15 293.5 245.69 297.7 
M 248.75 293.5 244.73 298.89 243.95 299.5 242.96 299.8 
M 250.55 293.5 249.29 297.7 
M 250.19 294.7 251.36 293.8 252.05 293.5 252.95 293.5 253.46 293.8 253.49 294.7 252.59 297.7 
M 256.25 293.5 254.99 297.7 
M 255.89 294.7 257.06 293.8 257.75 293.5 258.64 293.5 259.15 293.8 259.19 294.7 258.28 297.7 
M 259.19 294.7 260.36 293.8 261.05 293.5 261.95 293.5 262.46 293.8 262.49 294.7 261.59 297.7 
M 268.55 293.5 267.29 297.7 
M 268.27 294.39 267.86 293.8 267.35 293.5 266.45 293.5 265.76 293.8 264.98 294.39 264.4 295.3 264.23 295.89 264.26 296.8 264.68 297.39 265.19 297.7 266.08 297.7 266.77 297.39 267.56 296.8 
M 276.38 291.39 275.77 291.39 275.08 291.7 274.52 292.6 272.99 297.7 
M 273.35 293.5 275.45 293.5 
M 280.85 293.5 279.58 297.7 
M 280.58 294.39 280.16 293.8 279.64 293.5 278.75 293.5 278.06 293.8 277.27 294.39 276.7 295.3 276.52 295.89 276.56 296.8 276.98 297.39 277.49 297.7 278.39 297.7 279.08 297.39 279.86 296.8 
M 285.98 294.39 285.86 293.8 285.05 293.5 284.14 293.5 283.16 293.8 282.68 294.39 282.8 295 283.31 295.3 284.72 295.6 285.23 295.89 285.26 296.8 284.77 297.39 283.79 297.7 282.89 297.7 282.08 297.39 281.95 296.8 
M 288.35 293.5 287.08 297.7 
M 287.99 294.7 289.16 293.8 289.85 293.5 290.75 293.5 291.26 293.8 291.29 294.7 290.39 297.7 
M 291.29 294.7 292.45 293.8 293.14 293.5 294.05 293.5 294.56 293.8 294.58 294.7 293.69 297.7 
M 297.68 291.39 297.89 291.7 298.27 291.39 298.07 291.1 297.68 291.39 
M 297.35 293.5 296.08 297.7 
M 302.48 294.39 302.36 293.8 301.55 293.5 300.64 293.5 299.66 293.8 299.18 294.39 299.3 295 299.81 295.3 301.22 295.6 301.73 295.89 301.76 296.8 301.27 297.39 300.29 297.7 299.39 297.7 298.58 297.39 298.45 296.8 
M 304.07 297.1 303.68 297.39 303.89 297.7 304.27 297.39 304.07 297.1 
"/></svg>
