<svg xmlns="http://www.w3.org/2000/svg" width="520" height="320"><rect x="0" y="0" width="520" height="320" fill="floralwhite"/><rect x="10" y="10" width="500" height="300" stroke="black" stroke-width="1" fill="none"/><path stroke="black" stroke-width="1" fill="none" stroke-linecap="round" stroke-linejoin="round" d="
M 198.92 122.59 210.45 116.71 216.21 114.01 221.97 111.96 227.73 110.13 245 105.79 250.76 104.88 256.52 104.37 262.28 104.46 273.8 106.59 279.56 108.01 291.07 111.49 296.83 113.6 308.35 118.53 319.87 123.95 331.39 129.66 343.68 136.18 
M 343.68 182.91 325.63 192.34 319.87 194.84 314.11 197.03 302.59 201.22 291.07 205.08 279.56 207.97 273.8 209.85 268.04 211.04 262.28 211.5 256.52 211.46 250.76 210.77 239.24 208.5 233.48 207.08 227.73 205.21 216.21 202.41 210.45 199.89 204.65 196.85 
M 200.21 123.82 200.37 123.25 199.52 122.29 
M 202.25 124.55 203.19 123.92 203.53 123.41 203.53 123.09 203.19 122.58 202.25 121.95 
M 203.87 122.31 204.66 121.68 204.94 121.16 204.94 120.84 204.29 119.95 
M 205.4 120.05 206.36 119.43 206.71 118.93 206.71 118.69 
M 205.75 132.04 205.94 131.43 205.6 130.91 204.95 130.4 
M 207.05 122.16 207.84 121.54 208.12 121.03 208.12 120.72 207.84 120.21 207.05 119.59 
M 206.92 126.44 207.69 125.83 207.97 125.32 207.97 125.01 207.69 124.51 206.92 123.89 
M 208.56 124.21 209.5 123.6 209.84 123.1 209.84 122.79 209.5 122.29 208.56 121.67 
M 208.25 128.43 209.18 127.81 209.51 127.31 209.51 127 209.18 126.5 208.25 125.88 
M 207.78 132.7 208.71 132.07 209.05 131.55 209.05 131.23 208.71 130.71 207.78 130.07 
M 210.27 117.79 211.09 117.2 211.38 116.72 211.31 116.31 
M 210.23 122.01 211.02 121.4 211.31 120.9 211.31 120.6 211.02 120.1 210.23 119.49 
M 210.03 126.24 210.81 125.63 211.09 125.13 211.09 124.82 210.81 124.32 210.03 123.71 
M 209.11 134.81 209.88 134.15 210.17 133.62 210.17 133.29 209.88 132.75 209.11 132.1 
M 208.84 139.61 209.63 138.89 209.91 138.31 209.91 137.95 209.63 137.36 208.84 136.64 
M 209 144.99 209.79 144.2 210.08 143.56 210.08 143.16 209.79 142.52 209 141.73 
M 209.68 150.51 210.24 149.85 210.52 149.2 210.52 148.79 210.24 148.13 209.45 147.32 
M 211.87 119.86 212.84 119.26 213.19 118.78 213.19 118.48 212.84 118 211.87 117.41 
M 211.71 124.04 212.66 123.44 213 122.94 213 122.64 212.66 122.14 211.71 121.54 
M 211.36 128.23 212.3 127.61 212.63 127.11 212.63 126.8 212.3 126.31 211.36 125.69 
M 210.15 173.46 211.06 172.76 211.39 172.19 211.39 171.83 211.06 171.26 210.15 170.56 
M 213.56 117.75 214.38 117.17 214.67 116.71 214.67 116.42 214.38 115.95 213.56 115.38 
M 213.43 121.88 214.22 121.28 214.51 120.79 214.51 120.49 214.22 120 213.43 119.4 
M 213.16 126.05 213.94 125.44 214.23 124.95 214.23 124.64 213.94 124.15 213.16 123.55 
M 212.63 150.53 213.42 149.72 213.7 149.07 213.7 148.66 213.42 148 212.63 147.2 
M 212.82 155.92 213.6 155.15 213.89 154.51 213.89 154.12 213.6 153.49 212.82 152.71 
M 212 170.98 212.77 170.28 213.05 169.71 213.05 169.36 212.77 168.78 212 168.08 
M 211.37 175.69 212.13 174.99 212.4 174.43 212.4 174.08 212.13 173.51 211.37 172.81 
M 215.31 115.79 216.29 115.24 216.65 114.8 216.65 114.52 216.2 114.01 
M 215.12 119.77 216.09 119.19 216.44 118.72 216.44 118.42 216.09 117.95 215.12 117.37 
M 214.89 123.9 215.84 123.3 216.18 122.81 216.18 122.51 215.84 122.02 214.89 121.42 
M 214.04 132.35 214.98 131.71 215.32 131.19 215.32 130.87 214.98 130.35 214.04 129.71 
M 213.71 136.99 214.66 136.3 215 135.74 215 135.39 214.66 134.82 213.71 134.13 
M 213.69 142.12 214.64 141.36 214.98 140.74 214.98 140.36 214.64 139.74 213.69 138.99 
M 214 147.64 214.95 146.84 215.29 146.19 215.29 145.79 214.95 145.14 214 144.34 
M 217.08 113.86 217.76 113.46 
M 216.64 121.76 217.44 121.17 217.73 120.69 217.73 120.4 217.44 119.91 216.64 119.32 
M 216.33 125.89 217.12 125.29 217.41 124.8 217.41 124.5 217.12 124.01 216.33 123.41 
M 215.84 130.05 216.62 129.44 216.91 128.93 216.91 128.62 216.62 128.12 215.84 127.5 
M 215.4 134.49 216.19 133.83 216.47 133.29 216.47 132.96 216.19 132.42 215.4 131.76 
M 215.98 155.78 216.77 155 217.05 154.37 217.05 153.98 216.77 153.35 215.98 152.57 
M 215.62 165.98 216.4 165.26 216.69 164.67 216.69 164.31 216.4 163.72 215.62 162.99 
M 214.44 175.44 215.21 174.75 215.49 174.19 215.49 173.84 215.21 173.28 214.44 172.59 
M 218.59 115.76 219.58 115.22 219.94 114.78 219.94 114.51 219.58 114.07 218.59 113.53 
M 218.1 123.79 219.08 123.2 219.43 122.71 219.43 122.41 219.08 121.93 218.1 121.33 
M 217.69 127.93 218.66 127.32 219.02 126.82 219.02 126.52 218.66 126.02 217.69 125.41 
M 217.22 132.22 218.19 131.58 218.54 131.06 218.54 130.74 218.19 130.22 217.22 129.58 
M 216.89 136.87 217.85 136.17 218.2 135.61 218.2 135.26 217.85 134.7 216.89 134 
M 216.88 141.99 217.83 141.24 218.18 140.62 218.18 140.24 217.83 139.62 216.88 138.86 
M 217.52 158.29 218.47 157.53 218.81 156.91 218.81 156.53 218.47 155.91 217.52 155.15 
M 220.1 117.65 220.94 117.09 221.24 116.63 221.24 116.35 220.94 115.89 220.1 115.33 
M 219.88 121.7 220.72 121.11 221.02 120.63 221.02 120.33 220.72 119.85 219.88 119.27 
M 219.55 125.81 220.39 125.21 220.69 124.72 220.69 124.42 220.39 123.93 219.55 123.33 
M 219.05 129.95 219.88 129.34 220.18 128.84 220.18 128.52 219.88 128.02 219.05 127.4 
M 218.38 139.24 219.19 138.51 219.48 137.92 219.48 137.56 219.19 136.97 218.38 136.24 
M 222.24 112.16 223.41 111.51 
M 221.95 115.81 222.98 115.27 223.35 114.83 223.35 114.56 222.98 114.12 221.95 113.58 
M 221.04 127.97 222.08 127.36 222.46 126.87 222.46 126.56 222.08 126.07 221.04 125.46 
M 220.55 132.23 221.58 131.6 221.95 131.08 221.95 130.76 221.58 130.25 220.55 129.61 
M 220.18 136.83 221.18 136.15 221.55 135.59 221.55 135.24 221.18 134.68 220.18 133.99 
M 223.79 113.97 224.66 113.45 224.98 113.02 224.98 112.76 224.66 112.33 223.79 111.81 
M 223.56 117.81 224.45 117.25 224.77 116.79 224.77 116.5 224.45 116.04 223.56 115.48 
M 223.36 121.88 224.26 121.29 224.58 120.81 224.58 120.51 224.26 120.03 223.36 119.44 
M 222.53 130.12 223.43 129.51 223.75 129.01 223.75 128.7 223.43 128.21 222.53 127.59 
M 222.02 134.48 222.9 133.83 223.22 133.3 223.22 132.97 222.9 132.44 222.02 131.79 
M 221.71 139.24 222.56 138.53 222.86 137.94 222.86 137.58 222.56 137 221.71 136.29 
M 222.22 150.18 223.03 149.39 223.33 148.73 223.33 148.33 223.03 147.68 222.22 146.88 
M 222.37 155.54 223.18 154.77 223.47 154.14 223.47 153.75 223.18 153.12 222.37 152.35 
M 222.27 160.71 223.07 159.96 223.36 159.35 223.36 158.98 223.07 158.37 222.27 157.62 
M 221.99 199.31 221.73 198.73 220.89 197.89 
M 225.74 112.36 226.8 111.86 227.19 111.46 227.19 111.2 226.4 110.55 
M 225.49 116.06 226.56 115.51 226.95 115.07 226.95 114.79 226.56 114.35 225.49 113.8 
M 225.3 120.04 226.39 119.46 226.79 118.98 226.79 118.69 226.39 118.22 225.3 117.64 
M 225.06 124.15 226.17 123.55 226.57 123.07 226.57 122.77 226.17 122.28 225.06 121.69 
M 224.66 128.28 225.77 127.67 226.17 127.18 226.17 126.88 225.77 126.38 224.66 125.78 
M 224.12 132.48 225.21 131.86 225.61 131.35 225.61 131.03 225.21 130.52 224.12 129.9 
M 223.48 141.95 224.49 141.21 224.86 140.6 224.86 140.23 224.49 139.63 223.48 138.89 
M 223.41 168.2 224.4 167.47 224.75 166.87 224.75 166.51 224.4 165.91 223.41 165.19 
M 223.04 173.17 224.09 172.45 224.47 171.86 224.47 171.49 224.09 170.9 223.04 170.17 
M 227.68 110.73 228.57 110.25 228.89 109.84 
M 227.39 114.28 228.29 113.75 228.62 113.32 228.62 113.05 228.29 112.62 227.39 112.1 
M 227.21 118.18 228.13 117.6 228.47 117.14 228.47 116.85 228.13 116.38 227.21 115.81 
M 226.78 126.44 227.73 125.84 228.07 125.35 228.07 125.05 227.73 124.56 226.78 123.96 
M 226.27 130.55 227.22 129.94 227.56 129.45 227.56 129.14 227.22 128.65 226.27 128.04 
M 225.2 139.38 226.07 138.69 226.39 138.12 226.39 137.77 226.07 137.21 225.2 136.51 
M 225.54 150.18 226.36 149.39 226.66 148.74 226.66 148.34 226.36 147.69 225.54 146.9 
M 225.66 155.51 226.47 154.74 226.77 154.12 226.77 153.73 226.47 153.11 225.66 152.34 
M 225.53 160.66 226.34 159.91 226.63 159.31 226.63 158.93 226.34 158.32 225.53 157.58 
M 224.92 170.76 225.77 170.02 226.08 169.42 226.08 169.05 225.77 168.44 224.92 167.7 
M 229.35 112.68 230.43 112.17 230.82 111.76 230.82 111.5 230.43 111.09 229.35 110.59 
M 229.15 116.43 230.25 115.88 230.64 115.43 230.64 115.15 230.25 114.7 229.15 114.14 
M 229.02 120.47 230.13 119.88 230.54 119.4 230.54 119.11 230.13 118.63 229.02 118.04 
M 228.83 124.63 229.96 124.03 230.37 123.54 230.37 123.23 229.96 122.74 228.83 122.14 
M 227.86 132.9 228.99 132.29 229.4 131.79 229.4 131.48 228.99 130.98 227.86 130.36 
M 226.94 142.06 227.97 141.34 228.35 140.75 228.35 140.39 227.97 139.8 226.94 139.08 
M 227.05 147.42 228.06 146.64 228.42 146.01 228.42 145.62 228.06 144.99 227.05 144.21 
M 231.05 114.66 231.96 114.12 232.29 113.68 232.29 113.41 231.96 112.98 231.05 112.44 
M 230.94 118.62 231.87 118.04 232.2 117.57 232.2 117.27 231.87 116.8 230.94 116.22 
M 230.85 122.79 231.79 122.19 232.13 121.7 232.13 121.39 231.79 120.9 230.85 120.3 
M 230.62 126.99 231.57 126.38 231.92 125.89 231.92 125.58 231.57 125.09 230.62 124.49 
M 230.11 131.08 231.07 130.48 231.41 129.99 231.41 129.69 231.07 129.2 230.11 128.6 
M 229.41 135.19 230.34 134.57 230.67 134.07 230.67 133.76 230.34 133.26 229.41 132.65 
M 228.76 139.6 229.65 138.93 229.97 138.38 229.97 138.04 229.65 137.49 228.76 136.82 
M 228.6 144.68 229.45 143.92 229.76 143.31 229.76 142.93 229.45 142.31 228.6 141.56 
M 228.81 160.62 229.62 159.88 229.91 159.28 229.91 158.91 229.62 158.3 228.81 157.56 
M 228.49 165.67 229.3 164.93 229.59 164.32 229.59 163.94 229.3 163.33 228.49 162.59 
M 232.96 113.01 234.03 112.49 234.42 112.07 234.42 111.81 234.03 111.4 232.96 110.88 
M 232.82 116.82 233.91 116.26 234.3 115.8 234.3 115.52 233.91 115.06 232.82 114.5 
M 232.75 120.92 233.86 120.32 234.26 119.84 234.26 119.54 233.86 119.05 232.75 118.46 
M 232.62 125.12 233.74 124.52 234.14 124.02 234.14 123.72 233.74 123.22 232.62 122.62 
M 232.26 129.28 233.39 128.67 233.8 128.18 233.8 127.88 233.39 127.39 232.26 126.79 
M 230.91 137.55 231.99 136.91 232.38 136.4 232.38 136.07 231.99 135.56 230.91 134.92 
M 230.43 142.21 231.47 141.51 231.84 140.94 231.84 140.58 231.47 140.01 230.43 139.3 
M 230.44 147.47 231.44 146.71 231.81 146.09 231.81 145.7 231.44 145.08 230.44 144.32 
M 230.59 152.86 231.57 152.09 231.93 151.46 231.93 151.07 231.57 150.45 230.59 149.68 
M 230.28 163.12 231.24 162.38 231.59 161.77 231.59 161.4 231.24 160.79 230.28 160.04 
M 234.84 111.32 235.72 110.83 236.03 110.43 236.03 110.19 235.72 109.79 234.84 109.3 
M 234.59 123.25 235.51 122.63 235.84 122.14 235.84 121.83 235.51 121.33 234.59 120.72 
M 233.91 131.57 234.83 130.97 235.17 130.49 235.17 130.18 234.83 129.7 233.91 129.1 
M 233.13 135.58 234.04 134.98 234.37 134.49 234.37 134.19 234.04 133.7 233.13 133.09 
M 232.26 155.48 233.07 154.72 233.36 154.11 233.36 153.72 233.07 153.11 232.26 152.35 
M 232.07 160.57 232.87 159.83 233.16 159.23 233.16 158.86 232.87 158.26 232.07 157.52 
M 236.7 109.76 237.73 109.29 238.1 108.91 238.1 108.67 237.73 108.29 236.91 107.87 
M 236.5 113.26 237.54 112.74 237.92 112.31 237.92 112.05 237.54 111.63 236.5 111.1 
M 236.42 117.13 237.47 116.56 237.85 116.1 237.85 115.81 237.47 115.34 236.42 114.77 
M 236.4 121.28 237.46 120.67 237.85 120.18 237.85 119.88 237.46 119.39 236.4 118.78 
M 236.3 125.52 237.38 124.91 237.77 124.41 237.77 124.1 237.38 123.6 236.3 122.99 
M 235.97 129.69 237.05 129.09 237.45 128.59 237.45 128.29 237.05 127.8 235.97 127.2 
M 234.5 137.81 235.56 137.19 235.94 136.69 235.94 136.37 235.56 135.87 234.5 135.24 
M 233.9 142.35 234.92 141.66 235.29 141.1 235.29 140.75 234.92 140.19 233.9 139.5 
M 233.36 168.36 234.32 167.57 234.67 166.93 234.67 166.53 234.32 165.88 233.36 165.09 
M 238.54 108.17 239.38 107.72 239.68 107.19 
M 238.31 111.49 239.15 111 239.46 110.59 239.46 110.34 239.15 109.94 238.31 109.44 
M 238.18 115.22 239.04 114.66 239.35 114.22 239.35 113.94 239.04 113.49 238.18 112.94 
M 238.19 123.55 239.06 122.93 239.38 122.43 239.38 122.12 239.06 121.62 238.19 121 
M 238.03 127.81 238.91 127.19 239.23 126.7 239.23 126.39 238.91 125.89 238.03 125.28 
M 236.72 135.86 237.6 135.27 237.91 134.78 237.91 134.48 237.6 134 236.72 133.41 
M 235.54 150.21 236.35 149.45 236.65 148.83 236.65 148.44 236.35 147.82 235.54 147.05 
M 235.26 160.45 236.05 159.72 236.33 159.12 236.33 158.75 236.05 158.15 235.26 157.42 
M 234.92 165.51 235.7 164.75 235.98 164.13 235.98 163.75 235.7 163.12 234.92 162.36 
M 235.04 171.16 235.83 170.32 236.12 169.64 236.12 169.22 235.83 168.54 235.04 167.7 
M 240.1 109.86 241.11 109.38 241.47 108.99 241.47 108.75 241.11 108.37 240.1 107.89 
M 239.93 113.4 240.95 112.87 241.32 112.44 241.32 112.18 240.95 111.75 239.93 111.22 
M 239.89 117.31 240.91 116.73 241.29 116.26 241.29 115.97 240.91 115.51 239.89 114.93 
M 239.9 121.48 240.93 120.88 241.3 120.38 241.3 120.08 240.93 119.58 239.9 118.98 
M 239.83 125.75 240.86 125.13 241.23 124.63 241.23 124.32 240.86 123.82 239.83 123.21 
M 239.51 129.93 240.54 129.32 240.92 128.83 240.92 128.53 240.54 128.04 239.51 127.43 
M 238.86 133.95 239.88 133.35 240.26 132.87 240.26 132.57 239.88 132.09 238.86 131.5 
M 237.98 137.97 238.99 137.35 239.35 136.85 239.35 136.55 238.99 136.05 237.98 135.43 
M 237.29 142.41 238.27 141.73 238.63 141.18 238.63 140.84 238.27 140.29 237.29 139.61 
M 236.95 157.83 237.89 157.1 238.23 156.5 238.23 156.12 237.89 155.52 236.95 154.78 
M 236.65 162.88 237.58 162.13 237.92 161.53 237.92 161.15 237.58 160.54 236.65 159.79 
M 238.19 172.48 238.19 172.12 237.85 171.43 236.91 170.58 
M 241.87 108.2 242.71 107.75 243.01 107.38 243.01 107.15 242.3 106.5 
M 241.67 111.56 242.51 111.06 242.82 110.65 242.82 110.4 242.51 109.99 241.67 109.49 
M 241.58 115.32 242.43 114.76 242.74 114.31 242.74 114.03 242.43 113.58 241.58 113.02 
M 241.6 119.41 242.45 118.81 242.76 118.32 242.76 118.02 242.45 117.54 241.6 116.94 
M 241.62 123.69 242.47 123.07 242.77 122.56 242.77 122.25 242.47 121.75 241.62 121.13 
M 241.47 127.95 242.32 127.34 242.62 126.84 242.62 126.53 242.32 126.03 241.47 125.42 
M 241 132.05 241.84 131.45 242.14 130.97 242.14 130.67 241.84 130.19 241 129.59 
M 240.15 135.98 240.99 135.39 241.29 134.91 241.29 134.61 240.99 134.13 240.15 133.54 
M 239.2 140.04 240.02 139.41 240.31 138.9 240.31 138.58 240.02 138.07 239.2 137.44 
M 238.66 155.24 239.44 154.5 239.72 153.89 239.72 153.52 239.44 152.92 238.66 152.18 
M 243.68 106.73 244.69 106.29 245.06 105.78 
M 243.49 109.95 244.51 109.47 244.88 109.08 244.88 108.84 244.51 108.45 243.49 107.97 
M 243.35 113.51 244.38 112.99 244.75 112.55 244.75 112.29 244.38 111.86 243.35 111.33 
M 243.31 121.59 244.32 120.98 244.69 120.49 244.69 120.18 244.32 119.69 243.31 119.09 
M 243.22 125.83 244.22 125.22 244.58 124.72 244.58 124.41 244.22 123.91 243.22 123.3 
M 242.9 130 243.89 129.4 244.25 128.91 244.25 128.61 243.89 128.12 242.9 127.52 
M 241.29 137.96 242.26 137.36 242.6 136.86 242.6 136.56 242.26 136.06 241.29 135.46 
M 240.26 147.31 241.18 146.58 241.51 145.99 241.51 145.62 241.18 145.02 240.26 144.29 
M 240.23 152.54 241.14 151.79 241.47 151.18 241.47 150.8 241.14 150.19 240.23 149.45 
M 241.08 172.44 241.16 171.85 240.84 171.16 239.95 170.32 
M 245.29 108.32 246.15 107.86 246.46 107.49 246.46 107.26 246.15 106.89 245.29 106.43 
M 245.12 111.72 245.99 111.21 246.3 110.8 246.3 110.55 245.99 110.14 245.12 109.63 
M 245.04 115.46 245.9 114.91 246.21 114.46 246.21 114.18 245.9 113.73 245.04 113.18 
M 245.02 119.51 245.87 118.92 246.18 118.44 246.18 118.14 245.87 117.66 245.02 117.07 
M 244.99 123.73 245.82 123.12 246.12 122.62 246.12 122.32 245.82 121.82 244.99 121.21 
M 244.81 127.97 245.62 127.36 245.92 126.86 245.92 126.56 245.62 126.06 244.81 125.45 
M 244.31 132.05 245.12 131.46 245.42 130.98 245.42 130.68 245.12 130.2 244.31 129.61 
M 243.43 135.93 244.22 135.35 244.51 134.87 244.51 134.58 244.22 134.1 243.43 133.52 
M 241.8 149.82 242.54 149.07 242.8 148.46 242.54 147.47 241.8 146.72 
M 241.47 160.04 242.23 159.3 242.51 158.71 242.51 158.34 242.23 157.74 241.47 157.01 
M 241.11 165.08 241.88 164.32 242.16 163.71 242.16 163.32 241.88 162.71 241.11 161.95 
M 247.11 106.87 248.14 106.43 248.52 106.07 248.52 105.85 247.87 105.34 
M 246.96 110.13 248 109.64 248.38 109.25 248.38 109.01 248 108.61 246.96 108.13 
M 246.84 113.69 247.88 113.17 248.26 112.74 248.26 112.47 247.88 112.04 246.84 111.51 
M 246.69 121.64 247.7 121.05 248.06 120.56 248.06 120.26 247.7 119.78 246.69 119.18 
M 246.54 125.83 247.52 125.22 247.87 124.73 247.87 124.42 247.52 123.93 246.54 123.33 
M 246.18 129.97 247.14 129.37 247.49 128.88 247.49 128.58 247.14 128.1 246.18 127.5 
M 245.46 133.92 246.41 133.34 246.76 132.86 246.76 132.57 246.41 132.09 245.46 131.51 
M 244.45 137.79 245.37 137.19 245.71 136.71 245.71 136.41 245.37 135.92 244.45 135.33 
M 243.57 142.03 244.46 141.37 244.79 140.84 244.79 140.51 244.46 139.98 243.57 139.32 
M 243.21 152.21 244.09 151.46 244.41 150.85 244.41 150.47 244.09 149.85 243.21 149.1 
M 243.09 157.37 244 156.62 244.32 156.02 244.32 155.64 244 155.04 243.09 154.29 
M 248.92 105.39 249.64 105.06 
M 248.78 108.52 249.65 108.06 249.97 107.68 249.97 107.45 249.65 107.07 248.78 106.61 
M 248.65 111.94 249.53 111.44 249.85 111.03 249.85 110.77 249.53 110.36 248.65 109.86 
M 248.54 115.65 249.41 115.1 249.73 114.66 249.73 114.39 249.41 113.94 248.54 113.4 
M 248.45 119.6 249.29 119.02 249.6 118.55 249.6 118.26 249.29 117.79 248.45 117.21 
M 248.31 123.72 249.13 123.12 249.43 122.63 249.43 122.33 249.13 121.84 248.31 121.25 
M 248.05 127.89 248.85 127.29 249.14 126.8 249.14 126.5 248.85 126 248.05 125.4 
M 244.69 144.11 245.41 143.42 245.67 142.85 245.41 141.94 244.69 141.24 
M 244.66 154.65 245.4 153.89 245.66 153.27 245.4 152.27 244.66 151.52 
M 244.53 159.81 245.3 159.07 245.57 158.46 245.57 158.09 245.3 157.48 244.53 156.74 
M 244.21 164.85 244.98 164.1 245.26 163.49 245.26 163.12 244.98 162.51 244.21 161.76 
M 250.59 107.05 251.63 106.61 252 106.25 252 106.02 251.63 105.66 250.59 105.21 
M 250.48 110.34 251.52 109.86 251.9 109.46 251.9 109.22 251.52 108.82 250.48 108.34 
M 250.35 113.9 251.4 113.38 251.78 112.95 251.78 112.69 251.4 112.26 250.35 111.74 
M 250.05 121.67 251.05 121.09 251.41 120.61 251.41 120.32 251.05 119.85 250.05 119.27 
M 249.8 125.76 250.77 125.17 251.12 124.68 251.12 124.38 250.77 123.9 249.8 123.3 
M 249.38 129.85 250.33 129.26 250.67 128.78 250.67 128.48 250.33 128 249.38 127.41 
M 248.61 133.74 249.54 133.17 249.88 132.7 249.88 132.41 249.54 131.94 248.61 131.37 
M 246.49 141.62 247.36 140.97 247.68 140.45 247.68 140.12 247.36 139.6 246.49 138.95 
M 246.09 146.5 246.95 145.78 247.26 145.19 247.26 144.82 246.95 144.23 246.09 143.51 
M 246.1 151.81 246.97 151.05 247.28 150.42 247.28 150.04 246.97 149.42 246.1 148.65 
M 246.09 157.09 247 156.33 247.32 155.71 247.32 155.33 247 154.71 246.09 153.95 
M 245.92 162.23 246.84 161.48 247.18 160.87 247.18 160.49 246.84 159.89 245.92 159.14 
M 252.39 105.57 253.24 105.14 253.55 104.64 
M 252.29 108.73 253.15 108.27 253.46 107.89 253.46 107.65 253.15 107.27 252.29 106.8 
M 252.18 112.17 253.05 111.67 253.37 111.25 253.37 111 253.05 110.59 252.18 110.08 
M 252.04 115.83 252.91 115.29 253.22 114.86 253.22 114.59 252.91 114.15 252.04 113.61 
M 251.85 119.67 252.7 119.11 253 118.65 253 118.37 252.7 117.91 251.85 117.35 
M 251.6 123.67 252.41 123.09 252.7 122.61 252.7 122.32 252.41 121.84 251.6 121.26 
M 250.69 131.79 251.48 131.21 251.76 130.74 251.76 130.45 251.48 129.98 250.69 129.4 
M 249.64 135.48 250.41 134.92 250.68 134.47 250.41 133.73 249.64 133.16 
M 247.47 148.9 248.18 148.13 248.44 147.51 248.18 146.51 247.47 145.74 
M 247.6 159.6 248.37 158.84 248.65 158.23 248.65 157.84 248.37 157.23 247.6 156.47 
M 247.33 164.64 248.11 163.9 248.39 163.3 248.39 162.93 248.11 162.33 247.33 161.59 
M 247.06 169.77 247.8 169.02 248.07 168.4 247.8 167.41 247.06 166.65 
M 248.21 202.18 249.05 201.38 249.35 200.72 249.34 200.3 
M 249.76 205.29 249.23 204.62 248.87 204.41 
M 254.06 107.22 255.08 106.77 255.45 106.41 255.45 106.18 255.08 105.82 254.06 105.37 
M 253.97 110.53 255 110.05 255.37 109.65 255.37 109.41 255 109.01 253.97 108.52 
M 253.84 114.08 254.87 113.56 255.25 113.13 255.25 112.87 254.87 112.45 253.84 111.93 
M 253.66 117.8 254.67 117.25 255.04 116.81 255.04 116.53 254.67 116.09 253.66 115.54 
M 253.04 125.67 254 125.08 254.35 124.61 254.35 124.31 254 123.84 253.04 123.25 
M 251.73 133.53 252.66 132.97 253 132.51 253 132.22 252.66 131.76 251.73 131.19 
M 250.51 137.18 251.42 136.61 251.75 136.14 251.75 135.85 251.42 135.39 250.51 134.81 
M 249.39 141.18 250.27 140.55 250.59 140.03 250.59 139.71 250.27 139.2 249.39 138.56 
M 248.93 146.03 249.8 145.3 250.11 144.71 250.11 144.35 249.8 143.76 248.93 143.03 
M 249.11 156.83 250.02 156.06 250.35 155.43 250.35 155.03 250.02 154.4 249.11 153.63 
M 249.03 162.03 249.96 161.28 250.3 160.67 250.3 160.3 249.96 159.68 249.03 158.94 
M 248.73 167.07 249.65 166.33 249.98 165.73 249.98 165.36 249.65 164.76 248.73 164.02 
M 248.45 172.17 249.32 171.43 249.64 170.82 249.64 170.44 249.32 169.83 248.45 169.09 
M 255.82 105.7 256.66 105.27 256.97 104.92 256.97 104.7 256.68 104.38 
M 255.74 108.89 256.59 108.42 256.9 108.04 256.9 107.8 256.59 107.42 255.74 106.95 
M 255.66 112.34 256.51 111.84 256.81 111.42 256.81 111.17 256.51 110.76 255.66 110.25 
M 255.49 115.96 256.34 115.43 256.65 115 256.65 114.73 256.34 114.3 255.49 113.77 
M 255.23 119.72 256.06 119.17 256.36 118.72 256.36 118.44 256.06 117.99 255.23 117.44 
M 254.87 123.61 255.68 123.04 255.97 122.57 255.97 122.28 255.68 121.82 254.87 121.25 
M 254.44 127.63 255.23 127.04 255.52 126.56 255.52 126.27 255.23 125.79 254.44 125.2 
M 253.85 131.63 254.64 131.06 254.93 130.59 254.93 130.3 254.64 129.83 253.85 129.26 
M 252.72 135.24 253.5 134.69 253.78 134.24 253.78 133.96 253.5 133.51 252.72 132.95 
M 251.31 138.81 252.07 138.23 252.34 137.76 252.07 136.99 251.31 136.41 
M 250.33 148.46 251.07 147.69 251.34 147.06 251.07 146.05 250.33 145.28 
M 250.56 154 251.31 153.21 251.59 152.56 251.59 152.16 251.31 151.51 250.56 150.71 
M 250.48 164.47 251.26 163.74 251.55 163.14 251.55 162.77 251.26 162.17 250.48 161.44 
M 257.47 107.33 258.47 106.88 258.83 106.51 258.83 106.28 258.47 105.91 257.47 105.46 
M 257.39 110.65 258.39 110.17 258.75 109.77 258.75 109.52 258.39 109.12 257.39 108.64 
M 257.26 114.18 258.26 113.67 258.63 113.25 258.63 112.99 258.26 112.57 257.26 112.05 
M 257.04 117.86 258.03 117.32 258.39 116.88 258.39 116.61 258.03 116.17 257.04 115.63 
M 256.7 121.65 257.68 121.1 258.04 120.64 258.04 120.36 257.68 119.91 256.7 119.35 
M 256.28 125.58 257.24 125.01 257.6 124.54 257.6 124.25 257.24 123.78 256.28 123.2 
M 255.75 129.58 256.71 129 257.06 128.53 257.06 128.24 256.71 127.77 255.75 127.19 
M 254.88 133.37 255.83 132.81 256.18 132.35 256.18 132.07 255.83 131.61 254.88 131.05 
M 253.58 136.93 254.52 136.37 254.86 135.91 254.86 135.62 254.52 135.16 253.58 134.6 
M 251.88 145.67 252.79 144.94 253.12 144.35 253.12 143.99 252.79 143.4 251.88 142.67 
M 251.98 151.12 252.9 150.33 253.23 149.69 253.23 149.29 252.9 148.65 251.98 147.87 
M 251.39 171.74 252.3 171.02 252.63 170.44 252.63 170.07 252.3 169.49 251.39 168.77 
M 259.18 105.76 260 105.33 260.3 104.98 260.02 104.43 
M 259.12 108.96 259.94 108.49 260.24 108.11 260.24 107.87 259.94 107.48 259.12 107.01 
M 259.04 112.41 259.86 111.91 260.16 111.5 260.16 111.25 259.86 110.83 259.04 110.33 
M 258.86 116.02 259.68 115.49 259.98 115.06 259.98 114.8 259.68 114.37 258.86 113.84 
M 258.56 119.73 259.38 119.19 259.67 118.74 259.67 118.47 259.38 118.02 258.56 117.48 
M 258.14 123.56 258.95 123 259.25 122.54 259.25 122.25 258.95 121.79 258.14 121.23 
M 257.66 127.54 258.47 126.96 258.76 126.48 258.76 126.19 258.47 125.72 257.66 125.13 
M 257.06 131.52 257.86 130.95 258.16 130.49 258.16 130.2 257.86 129.74 257.06 129.17 
M 255.89 135.08 256.69 134.53 256.98 134.09 256.98 133.81 256.69 133.37 255.89 132.82 
M 254.41 138.59 255.2 138.01 255.49 137.54 255.49 137.25 255.2 136.78 254.41 136.21 
M 253.37 148.2 254.15 147.42 254.43 146.79 254.43 146.4 254.15 145.77 253.37 145 
M 253.65 153.81 254.44 153.01 254.73 152.35 254.73 151.94 254.44 151.29 253.65 150.48 
M 253.88 159.3 254.68 158.52 254.97 157.89 254.97 157.5 254.68 156.86 253.88 156.09 
M 253.66 164.34 254.47 163.61 254.76 163.02 254.76 162.65 254.47 162.06 253.66 161.33 
M 253.16 169.16 253.95 168.45 254.24 167.87 254.24 167.52 253.95 166.94 253.16 166.23 
M 256.56 206.1 256.56 205.77 256.27 205.17 255.46 204.43 
M 260.78 107.34 261.75 106.89 262.1 106.52 262.1 106.29 261.75 105.92 260.78 105.47 
M 260.7 110.66 261.67 110.18 262.02 109.78 262.02 109.53 261.67 109.13 260.7 108.65 
M 260.58 114.19 261.54 113.67 261.89 113.26 261.89 113 261.54 112.58 260.58 112.06 
M 259.99 121.63 260.96 121.08 261.31 120.62 261.31 120.34 260.96 119.89 259.99 119.34 
M 259.55 125.54 260.53 124.97 260.88 124.5 260.88 124.21 260.53 123.74 259.55 123.17 
M 259.01 129.53 259.99 128.95 260.35 128.48 260.35 128.19 259.99 127.72 259.01 127.14 
M 258.12 133.29 259.09 132.73 259.45 132.28 259.45 132 259.09 131.54 258.12 130.99 
M 256.78 136.82 257.76 136.26 258.11 135.8 258.11 135.52 257.76 135.06 256.78 134.5 
M 255.02 145.51 255.98 144.78 256.33 144.19 256.33 143.82 255.98 143.23 255.02 142.51 
M 255.14 150.98 256.11 150.19 256.46 149.55 256.46 149.15 256.11 148.5 255.14 147.71 
M 255.4 156.54 256.38 155.75 256.73 155.1 256.73 154.7 256.38 154.06 255.4 153.27 
M 254.56 171.59 255.56 170.87 255.92 170.29 255.92 169.93 255.56 169.35 254.56 168.64 
M 262.45 105.72 263.24 105.29 263.53 104.94 263.49 104.67 
M 262.38 108.91 263.16 108.44 263.45 108.06 263.16 107.44 262.38 106.96 
M 262.29 112.36 263.08 111.86 263.36 111.45 263.08 110.78 262.29 110.28 
M 262.12 115.97 262.91 115.44 263.19 115.01 263.19 114.75 262.91 114.32 262.12 113.79 
M 261.83 119.7 262.63 119.15 262.92 118.7 262.92 118.43 262.63 117.98 261.83 117.44 
M 260.96 127.53 261.79 126.95 262.09 126.47 262.09 126.18 261.79 125.7 260.96 125.12 
M 260.35 131.51 261.18 130.94 261.48 130.48 261.48 130.19 261.18 129.73 260.35 129.16 
M 259.17 135.05 260 134.51 260.29 134.06 260.29 133.79 260 133.34 259.17 132.8 
M 257.67 138.54 258.5 137.97 258.79 137.5 258.79 137.21 258.5 136.74 257.67 136.17 
M 256.67 142.81 257.49 142.14 257.79 141.59 257.79 141.25 257.49 140.7 256.67 140.02 
M 256.62 148.15 257.44 147.37 257.74 146.74 257.74 146.35 257.44 145.71 256.62 144.94 
M 256.45 169.15 257.31 168.44 257.62 167.86 257.62 167.5 257.31 166.92 256.45 166.21 
M 257.1 172.19 256.36 171.27 255.97 171.06 
M 263.96 107.21 264.89 106.76 265.23 106.39 265.23 106.17 264.89 105.8 263.96 105.35 
M 263.75 114.06 264.67 113.54 265 113.12 265 112.86 264.67 112.43 263.75 111.92 
M 263.54 117.76 264.48 117.22 264.82 116.78 264.82 116.5 264.48 116.06 263.54 115.52 
M 262.86 125.57 263.86 124.99 264.22 124.51 264.22 124.22 263.86 123.75 262.86 123.17 
M 262.35 129.57 263.36 128.99 263.73 128.52 263.73 128.23 263.36 127.76 262.35 127.18 
M 261.46 133.33 262.47 132.77 262.83 132.31 262.83 132.03 262.47 131.58 261.46 131.02 
M 258.85 140.7 259.85 140.08 260.21 139.57 260.21 139.25 259.85 138.74 258.85 138.12 
M 258.33 145.51 259.33 144.78 259.69 144.19 259.69 143.82 259.33 143.23 258.33 142.5 
M 258.47 151.02 259.48 150.22 259.85 149.57 259.85 149.17 259.48 148.52 258.47 147.73 
M 258.8 161.9 259.84 161.14 260.21 160.52 260.21 160.14 259.84 159.52 258.8 158.77 
M 258.08 171.84 259.2 171.11 259.6 170.52 259.6 170.15 259.2 169.56 258.08 168.83 
M 265.57 105.52 266.27 105.15 
M 265.46 108.68 266.21 108.21 266.48 107.83 266.21 107.22 265.46 106.75 
M 265.22 115.77 265.97 115.24 266.25 114.8 265.97 114.1 265.22 113.56 
M 265.01 119.6 265.79 119.04 266.08 118.58 266.08 118.3 265.79 117.84 265.01 117.28 
M 264.72 123.56 265.54 122.98 265.84 122.51 265.84 122.22 265.54 121.74 264.72 121.16 
M 264.35 127.63 265.2 127.04 265.5 126.56 265.5 126.26 265.2 125.78 264.35 125.19 
M 263.75 131.6 264.61 131.03 264.92 130.57 264.92 130.28 264.61 129.82 263.75 129.25 
M 260.02 142.86 260.87 142.18 261.17 141.63 261.17 141.29 260.87 140.74 260.02 140.06 
M 259.99 148.22 260.84 147.44 261.15 146.8 261.15 146.41 260.84 145.77 259.99 144.99 
M 260.35 153.92 261.22 153.1 261.53 152.43 261.53 152.02 261.22 151.36 260.35 150.54 
M 260.45 164.54 261.35 163.8 261.67 163.2 261.67 162.82 261.35 162.22 260.45 161.48 
M 267.01 106.93 267.91 106.49 268.24 106.13 268.24 105.91 267.65 105.38 
M 266.87 110.21 267.76 109.72 268.08 109.33 268.08 109.08 267.76 108.69 266.87 108.2 
M 266.76 113.77 267.65 113.25 267.97 112.82 267.97 112.56 267.65 112.13 266.76 111.61 
M 266.64 117.58 267.56 117.02 267.89 116.57 267.89 116.29 267.56 115.83 266.64 115.28 
M 266.23 125.66 267.24 125.06 267.61 124.58 267.61 124.28 267.24 123.8 266.23 123.2 
M 265.79 129.71 266.82 129.13 267.2 128.65 267.2 128.36 266.82 127.88 265.79 127.3 
M 264.9 133.47 265.94 132.91 266.32 132.46 266.32 132.17 265.94 131.72 264.9 131.16 
M 263.54 136.96 264.57 136.4 264.95 135.94 264.95 135.66 264.57 135.21 263.54 134.65 
M 262.26 140.81 263.29 140.18 263.67 139.67 263.67 139.36 263.29 138.85 262.26 138.22 
M 261.74 145.63 262.78 144.9 263.16 144.3 263.16 143.93 262.78 143.34 261.74 142.6 
M 261.94 151.2 262.4 150.97 263 150.4 263.38 149.74 263.38 149.33 263 148.68 262.4 148.1 261.94 147.87 
M 262.31 156.86 262.78 156.64 263.39 156.06 263.78 155.4 263.78 155 263.39 154.34 262.78 153.76 262.31 153.53 
M 268.4 108.3 269.14 107.84 269.4 107.46 269.14 106.86 268.4 106.4 
M 268.27 111.73 269 111.22 269.26 110.81 269 110.14 268.27 109.63 
M 268.19 115.47 268.94 114.92 269.2 114.47 268.94 113.75 268.19 113.2 
M 268.05 123.63 268.88 123.03 269.18 122.54 269.18 122.23 268.88 121.74 268.05 121.14 
M 267.81 127.81 268.68 127.21 268.99 126.72 268.99 126.42 268.68 125.93 267.81 125.33 
M 267.25 131.8 268.12 131.23 268.44 130.76 268.44 130.47 268.12 130.01 267.25 129.44 
M 264.5 138.76 265.38 138.19 265.7 137.72 265.7 137.43 265.38 136.97 264.5 136.4 
M 263.48 143.01 264.35 142.33 264.67 141.78 264.67 141.44 264.35 140.88 263.48 140.21 
M 263.49 148.44 264.37 147.64 264.69 147 264.69 146.6 264.37 145.95 263.49 145.16 
M 263.93 154.23 264.84 153.4 265.17 152.72 265.17 152.3 264.84 151.62 263.93 150.79 
M 264.82 196.93 265.54 196.26 265.79 195.79 
M 269.99 106.57 270.99 106.04 
M 269.79 109.81 270.67 109.32 270.99 108.93 270.99 108.69 270.67 108.3 269.79 107.82 
M 269.7 113.42 270.59 112.89 270.91 112.45 270.91 112.18 270.59 111.75 269.7 111.21 
M 269.7 117.38 270.62 116.8 270.96 116.32 270.96 116.03 270.62 115.56 269.7 114.98 
M 269.65 125.81 270.68 125.2 271.05 124.7 271.05 124.39 270.68 123.9 269.65 123.28 
M 269.3 129.93 270.35 129.34 270.73 128.86 270.73 128.56 270.35 128.08 269.3 127.49 
M 268.43 133.7 269.5 133.14 269.88 132.68 269.88 132.4 269.5 131.95 268.43 131.39 
M 265.78 141.02 266.85 140.4 267.23 139.89 267.23 139.57 266.85 139.06 265.78 138.44 
M 265.28 145.88 266.36 145.14 266.75 144.54 266.75 144.17 266.36 143.57 265.28 142.83 
M 266 157.29 266.5 157.06 267.13 156.47 267.54 155.8 267.54 155.39 267.13 154.72 266.5 154.14 266 153.91 
M 267.82 178.02 268.18 177.55 268.18 177.15 267.69 176.5 266.93 175.93 266.35 175.71 
M 271.33 107.89 272.08 107.44 272.35 107.07 272.08 106.48 271.67 106.17 
M 271.16 111.31 271.9 110.8 272.17 110.38 271.9 109.71 271.16 109.2 
M 271.16 115.17 271.92 114.6 272.2 114.14 271.92 113.38 271.16 112.81 
M 271.3 119.39 272.1 118.77 272.39 118.27 272.39 117.96 272.1 117.46 271.3 116.85 
M 271.33 128.06 272.21 127.44 272.53 126.94 272.53 126.63 272.21 126.13 271.33 125.52 
M 270.81 132.06 271.7 131.49 272.02 131.02 272.02 130.73 271.7 130.26 270.81 129.69 
M 269.63 135.6 270.53 135.06 270.85 134.61 270.85 134.34 270.53 133.9 269.63 133.35 
M 268.08 139.03 268.98 138.46 269.31 137.99 269.31 137.71 268.98 137.24 268.08 136.67 
M 267.05 143.3 267.96 142.61 268.29 142.06 268.29 141.71 267.96 141.16 267.05 140.47 
M 267.66 154.68 268.61 153.84 268.95 153.15 268.95 152.72 268.61 152.04 267.66 151.19 
M 268.12 160.38 269.09 159.58 269.44 158.93 269.44 158.52 269.09 157.87 268.12 157.07 
M 270.27 180.85 270.27 180.54 269.86 179.9 268.79 179.15 
M 272.78 109.48 273.7 109 274.04 108.61 274.04 108.37 273.7 107.98 272.78 107.5 
M 272.7 113.14 273.64 112.59 273.97 112.15 273.97 111.87 273.64 111.43 272.7 110.88 
M 272.83 117.25 273.79 116.64 274.14 116.15 274.14 115.85 273.79 115.36 272.83 114.75 
M 273.04 121.62 274.04 120.99 274.41 120.47 274.41 120.15 274.04 119.64 273.04 119 
M 273.12 126.02 274.16 125.39 274.54 124.87 274.54 124.56 274.16 124.04 273.12 123.41 
M 272.85 130.2 273.92 129.6 274.3 129.12 274.3 128.81 273.92 128.33 272.85 127.73 
M 272.03 133.99 273.1 133.43 273.5 132.97 273.5 132.69 273.1 132.23 272.03 131.67 
M 270.69 137.5 271.78 136.94 272.17 136.48 272.17 136.2 271.78 135.75 270.69 135.19 
M 268.96 146.27 270.08 145.52 270.48 144.92 270.48 144.54 270.08 143.93 268.96 143.18 
M 269.82 157.83 270.33 157.6 270.98 157 271.4 156.33 271.4 155.91 270.98 155.23 270.33 154.64 269.82 154.41 
M 274.41 107.65 275.4 106.99 
M 274.21 111.06 275.01 110.54 275.3 110.12 275.3 109.87 275.01 109.45 274.21 108.93 
M 274.28 115.02 275.09 114.43 275.39 113.95 275.39 113.66 275.09 113.18 274.28 112.59 
M 274.58 119.41 275.41 118.77 275.71 118.25 275.71 117.93 275.41 117.41 274.58 116.77 
M 274.86 123.93 275.72 123.28 276.04 122.75 276.04 122.42 275.72 121.89 274.86 121.24 
M 274.88 128.32 275.76 127.7 276.08 127.19 276.08 126.87 275.76 126.36 274.88 125.74 
M 274.4 132.36 275.29 131.78 275.62 131.31 275.62 131.02 275.29 130.55 274.4 129.97 
M 271.76 139.42 272.69 138.84 273.03 138.37 273.03 138.08 272.69 137.62 271.76 137.04 
M 270.77 143.72 271.71 143.03 272.06 142.47 272.06 142.13 271.71 141.56 270.77 140.88 
M 270.89 149.28 271.85 148.47 272.19 147.8 272.19 147.39 271.85 146.73 270.89 145.91 
M 271.5 155.25 271.93 155.01 272.47 154.39 272.82 153.69 272.82 153.26 272.47 152.57 271.93 151.95 271.5 151.71 
M 271.94 166.22 272.93 165.44 273.29 164.8 273.29 164.41 272.93 163.77 271.94 162.99 
M 273.04 183.39 274.09 182.6 274.46 181.96 274.46 181.57 274.09 180.93 273.04 180.14 
M 276.01 109.4 277.03 108.92 277.39 108.54 277.39 108.3 277.03 107.91 276.01 107.43 
M 275.94 113.09 276.96 112.54 277.33 112.09 277.33 111.81 276.96 111.36 275.94 110.81 
M 276.15 117.28 277.17 116.67 277.54 116.16 277.54 115.85 277.17 115.35 276.15 114.73 
M 276.46 121.76 277.49 121.12 277.87 120.59 277.87 120.26 277.49 119.73 276.46 119.08 
M 276.63 126.24 277.68 125.6 278.06 125.08 278.06 124.76 277.68 124.24 276.63 123.6 
M 276.42 130.48 277.48 129.88 277.87 129.38 277.87 129.08 277.48 128.59 276.42 127.98 
M 274.38 137.9 275.49 137.34 275.9 136.88 275.9 136.59 275.49 136.13 274.38 135.56 
M 273.17 141.83 274.32 141.19 274.74 140.68 274.74 140.36 274.32 139.84 273.17 139.2 
M 273.14 152.57 273.66 152.33 274.32 151.73 274.75 151.05 274.75 150.63 274.32 149.95 273.66 149.34 273.14 149.11 
M 273.72 158.44 274.24 158.2 274.9 157.6 275.33 156.92 275.33 156.5 274.9 155.82 274.24 155.22 273.72 154.99 
M 273.98 169.35 274.5 169.12 275.16 168.54 275.59 167.88 275.59 167.47 275.16 166.81 274.5 166.23 273.98 166 
M 274.34 175.14 274.86 174.91 275.53 174.3 275.97 173.62 275.97 173.19 275.53 172.51 274.86 171.9 274.34 171.66 
M 277.83 107.75 278.13 107.66 
M 277.6 111.14 278.49 110.63 278.81 110.21 278.81 109.95 278.49 109.53 277.6 109.02 
M 278.03 119.57 278.91 118.92 279.22 118.4 279.22 118.07 278.91 117.55 278.03 116.9 
M 278.37 124.15 279.24 123.49 279.55 122.95 279.55 122.62 279.24 122.09 278.37 121.43 
M 278 132.67 278.88 132.09 279.2 131.61 279.2 131.31 278.88 130.83 278 130.25 
M 276.95 136.34 277.87 135.78 278.2 135.33 278.2 135.05 277.87 134.6 276.95 134.04 
M 275.53 139.9 276.49 139.32 276.84 138.84 276.84 138.55 276.49 138.07 275.53 137.49 
M 274.61 144.28 275.61 143.58 275.97 143.01 275.97 142.66 275.61 142.1 274.61 141.4 
M 274.77 149.88 275.22 149.65 275.78 149.06 276.15 148.39 276.15 147.98 275.78 147.31 275.22 146.72 274.77 146.49 
M 276.02 172.48 276.45 172.25 277 171.65 277.35 170.97 277.35 170.55 277 169.87 276.45 169.27 276.02 169.03 
M 276.99 184.02 277.93 183.24 278.28 182.61 278.28 182.22 277.93 181.58 276.99 180.8 
M 276.75 188.9 277.68 188.19 278.02 187.62 278.02 187.26 277.68 186.69 276.75 185.98 
M 279.58 109.67 280.69 109.19 281.09 108.8 280.95 108.43 
M 279.5 113.33 280.6 112.79 281 112.34 281 112.06 280.6 111.61 279.5 111.06 
M 280.14 126.45 281.18 125.81 281.55 125.29 281.55 124.96 281.18 124.44 280.14 123.8 
M 279.28 134.68 280.35 134.1 280.74 133.63 280.74 133.33 280.35 132.86 279.28 132.28 
M 278.14 138.4 279.29 137.82 279.7 137.34 279.7 137.05 279.29 136.58 278.14 136 
M 277.13 153.24 277.67 153.01 278.36 152.41 278.81 151.73 278.81 151.31 278.36 150.63 277.67 150.04 277.13 149.8 
M 277.87 169.94 278.38 169.71 279.02 169.13 279.44 168.48 279.44 168.07 279.02 167.41 278.38 166.83 277.87 166.61 
M 278.21 175.71 278.71 175.47 279.35 174.87 279.76 174.19 279.76 173.77 279.35 173.09 278.71 172.49 278.21 172.25 
M 278.67 186.6 279.77 185.87 280.16 185.27 280.16 184.89 279.77 184.29 278.67 183.56 
M 281.34 111.57 282.29 111.06 282.64 110.65 282.64 110.39 282.29 109.98 281.34 109.47 
M 281.37 115.49 282.31 114.91 282.65 114.44 282.65 114.14 282.31 113.67 281.37 113.09 
M 281.62 119.83 282.52 119.2 282.84 118.68 282.84 118.36 282.52 117.85 281.62 117.21 
M 281.87 124.33 282.73 123.68 283.05 123.16 283.05 122.83 282.73 122.3 281.87 121.65 
M 281.9 128.76 282.75 128.12 283.06 127.61 283.06 127.29 282.75 126.77 281.9 126.14 
M 280.64 136.77 281.56 136.19 281.89 135.73 281.89 135.44 281.56 134.97 280.64 134.39 
M 279.46 140.58 280.48 139.97 280.85 139.48 280.85 139.18 280.48 138.68 279.46 138.08 
M 278.72 145.12 279.83 144.41 280.22 143.84 280.22 143.48 279.83 142.9 278.72 142.2 
M 278.89 150.68 279.37 150.46 279.99 149.87 280.38 149.21 280.38 148.8 279.99 148.14 279.37 147.56 278.89 147.33 
M 279.42 156.54 279.87 156.3 280.44 155.7 280.82 155.01 280.82 154.59 280.44 153.91 279.87 153.3 279.42 153.07 
M 279.74 167.42 280.68 166.64 281.02 166 281.02 165.61 280.68 164.97 279.74 164.19 
M 280.36 178.88 281.27 178.05 281.6 177.37 281.6 176.95 281.27 176.27 280.36 175.43 
M 280.63 184.34 281.52 183.57 281.84 182.95 281.84 182.56 281.52 181.94 280.63 181.17 
M 280.06 202.87 280.49 202.12 280.49 201.74 280.19 201.14 279.36 200.4 
M 283.39 110.18 284.71 109.56 
M 283.29 113.8 284.43 113.26 284.84 112.82 284.84 112.55 284.43 112.11 283.29 111.57 
M 283.35 117.84 284.46 117.25 284.86 116.76 284.86 116.46 284.46 115.98 283.35 115.38 
M 283.51 122.16 284.56 121.54 284.94 121.03 284.94 120.71 284.56 120.2 283.51 119.57 
M 283.4 130.88 284.4 130.26 284.77 129.76 284.77 129.44 284.4 128.94 283.4 128.32 
M 282.85 135 283.91 134.4 284.29 133.9 284.29 133.6 283.91 133.11 282.85 132.51 
M 282.01 139.03 283.18 138.42 283.61 137.92 283.61 137.61 283.18 137.11 282.01 136.5 
M 281.3 154.07 281.87 153.84 282.59 153.26 283.06 152.61 283.06 152.2 282.59 151.55 281.87 150.97 281.3 150.74 
M 281.6 159.64 282.12 159.42 282.78 158.84 283.21 158.19 283.21 157.79 282.78 157.14 282.12 156.57 281.6 156.35 
M 281.76 191.49 282.78 190.81 283.16 190.25 283.16 189.91 282.78 189.35 281.76 188.67 
M 285.25 112.17 286.22 111.67 286.57 111.26 286.57 111 286.22 110.59 285.25 110.09 
M 285.18 115.96 286.13 115.4 286.48 114.94 286.48 114.66 286.13 114.2 285.18 113.64 
M 285.24 120.08 286.13 119.48 286.46 118.99 286.46 118.68 286.13 118.19 285.24 117.59 
M 285.3 124.42 286.15 123.79 286.45 123.28 286.45 122.96 286.15 122.45 285.3 121.82 
M 285.24 128.78 286.06 128.15 286.35 127.64 286.35 127.32 286.06 126.81 285.24 126.18 
M 284.92 133.06 285.75 132.44 286.05 131.93 286.05 131.62 285.75 131.12 284.92 130.5 
M 283.62 141.55 284.68 140.9 285.06 140.36 285.06 140.03 284.68 139.5 283.62 138.85 
M 283.25 146.39 284.41 145.66 284.83 145.07 284.83 144.71 284.41 144.12 283.25 143.39 
M 283.36 151.79 283.86 151.57 284.5 151.01 284.92 150.38 284.92 149.99 284.5 149.35 283.86 148.79 283.36 148.57 
M 283.39 167.75 284.29 166.98 284.61 166.35 284.61 165.96 284.29 165.34 283.39 164.57 
M 283.94 179.15 284.82 178.32 285.14 177.65 285.14 177.23 284.82 176.56 283.94 175.73 
M 284.15 184.54 285.02 183.78 285.33 183.16 285.33 182.78 285.02 182.17 284.15 181.41 
M 287.26 110.76 287.92 110.53 
M 287.13 114.31 288.26 113.79 288.68 113.36 288.68 113.09 288.26 112.67 287.13 112.14 
M 287.05 118.19 288.15 117.62 288.55 117.15 288.55 116.87 288.15 116.4 287.05 115.83 
M 287.01 122.31 288.05 121.71 288.42 121.22 288.42 120.91 288.05 120.42 287.01 119.82 
M 286.92 126.58 287.91 125.96 288.27 125.45 288.27 125.14 287.91 124.63 286.92 124.01 
M 286.36 135.28 287.39 134.64 287.77 134.12 287.77 133.79 287.39 133.27 286.36 132.63 
M 285.93 139.76 287.1 139.1 287.52 138.56 287.52 138.22 287.1 137.68 285.93 137.01 
M 285.55 149.69 286.15 149.48 286.91 148.94 287.4 148.33 287.4 147.95 286.91 147.34 286.15 146.8 285.55 146.59 
M 285.19 170.63 286.24 169.83 286.62 169.19 286.62 168.79 286.24 168.14 285.19 167.35 
M 289.11 112.73 290.05 112.23 290.39 111.82 290.39 111.57 290.07 111.19 
M 288.97 116.4 289.89 115.86 290.23 115.42 290.23 115.15 289.89 114.71 288.97 114.17 
M 288.67 124.43 289.5 123.82 289.8 123.33 289.8 123.03 289.5 122.54 288.67 121.94 
M 288.47 128.7 289.27 128.07 289.56 127.57 289.56 127.25 289.27 126.74 288.47 126.12 
M 288.22 133.11 289.03 132.46 289.32 131.93 289.32 131.6 289.03 131.08 288.22 130.43 
M 287.97 137.71 288.87 137.03 289.19 136.48 289.19 136.14 288.87 135.59 287.97 134.91 
M 287.8 142.55 288.83 141.84 289.2 141.26 289.2 140.9 288.83 140.32 287.8 139.61 
M 287.78 147.67 288.9 146.93 289.3 146.32 289.3 145.95 288.9 145.34 287.78 144.59 
M 287.62 157.92 288.63 157.19 288.99 156.6 288.99 156.23 288.63 155.63 287.62 154.91 
M 287.27 162.87 288.17 162.15 288.5 161.56 288.5 161.19 288.17 160.6 287.27 159.88 
M 287.58 184.65 288.43 183.9 288.74 183.29 288.74 182.91 288.43 182.3 287.58 181.55 
M 290.87 114.74 291.96 114.22 292.36 113.8 292.36 113.54 291.96 113.11 290.87 112.59 
M 290.69 118.48 291.75 117.93 292.14 117.48 292.14 117.2 291.75 116.76 290.69 116.21 
M 290.46 122.4 291.48 121.83 291.85 121.36 291.85 121.07 291.48 120.6 290.46 120.02 
M 290.2 126.52 291.17 125.92 291.53 125.42 291.53 125.12 291.17 124.62 290.2 124.02 
M 289.96 130.87 290.92 130.23 291.27 129.7 291.27 129.38 290.92 128.86 289.96 128.22 
M 289.8 135.5 290.82 134.82 291.19 134.26 291.19 133.92 290.82 133.36 289.8 132.68 
M 289.74 155.75 290.96 155.02 291.4 154.44 291.4 154.07 290.96 153.48 289.74 152.76 
M 288.84 165.48 289.89 164.75 290.27 164.16 290.27 163.79 289.89 163.19 288.84 162.46 
M 288.91 176.46 289.36 176.23 289.94 175.65 290.31 174.98 290.31 174.57 289.94 173.9 289.36 173.31 288.91 173.08 
M 292.61 116.72 293.5 116.19 293.82 115.76 293.82 115.49 293.5 115.06 292.61 114.53 
M 292.34 120.48 293.21 119.93 293.52 119.48 293.52 119.2 293.21 118.75 292.34 118.2 
M 292 124.4 292.82 123.82 293.12 123.35 293.12 123.06 292.82 122.58 292 122.01 
M 291.66 128.57 292.45 127.95 292.74 127.44 292.74 127.13 292.45 126.63 291.66 126.01 
M 291.47 133.11 292.27 132.43 292.57 131.88 292.57 131.54 292.27 130.99 291.47 130.32 
M 291.79 143.34 292.75 142.58 293.1 141.96 293.1 141.58 292.75 140.96 291.79 140.2 
M 292 148.62 293.01 147.86 293.37 147.25 293.37 146.86 293.01 146.25 292 145.49 
M 290.85 163.08 291.73 162.39 292.05 161.83 292.05 161.48 291.73 160.92 290.85 160.22 
M 290.34 168.04 291.19 167.29 291.49 166.68 291.49 166.3 291.19 165.69 290.34 164.94 
M 290.42 173.63 291.26 172.81 291.57 172.15 291.57 171.74 291.26 171.07 290.42 170.26 
M 294.43 115 295.47 114.48 295.85 114.06 295.85 113.8 295.47 113.38 294.43 112.86 
M 294.21 118.67 295.24 118.13 295.61 117.69 295.61 117.42 295.24 116.99 294.21 116.45 
M 293.46 126.45 294.43 125.85 294.78 125.37 294.78 125.07 294.43 124.58 293.46 123.99 
M 293.18 130.81 294.14 130.15 294.49 129.62 294.49 129.3 294.14 128.76 293.18 128.11 
M 293.47 140.9 294.55 140.14 294.94 139.52 294.94 139.14 294.55 138.52 293.47 137.76 
M 293 160.91 294.08 160.23 294.48 159.67 294.48 159.33 294.08 158.77 293 158.09 
M 292.33 176.57 292.78 176.34 293.35 175.75 293.72 175.09 293.72 174.68 293.35 174.01 292.78 173.43 292.33 173.2 
M 292.6 182.11 293.61 181.33 293.98 180.69 293.98 180.3 293.61 179.66 292.6 178.89 
M 291.07 200.4 291.6 199.91 291.95 199.33 291.95 198.98 291.6 198.4 290.64 197.7 
M 296.1 116.89 296.94 116.37 297.25 115.94 297.25 115.67 296.94 115.24 296.1 114.72 
M 295.77 120.58 296.61 120.04 296.92 119.6 296.92 119.33 296.61 118.89 295.77 118.35 
M 295.3 124.37 296.12 123.8 296.42 123.34 296.42 123.06 296.12 122.6 295.3 122.04 
M 294.73 133.1 295.54 132.41 295.83 131.84 295.83 131.49 295.54 130.92 294.73 130.22 
M 295.04 138.36 295.9 137.59 296.2 136.97 296.2 136.58 295.9 135.95 295.04 135.19 
M 295.51 143.81 296.4 143.03 296.73 142.39 296.73 141.99 296.4 141.35 295.51 140.57 
M 295.8 149.14 296.71 148.38 297.04 147.75 297.04 147.37 296.71 146.75 295.8 145.98 
M 295.77 154.19 296.68 153.47 297 152.89 297 152.52 296.68 151.94 295.77 151.22 
M 294.37 163.26 295.24 162.59 295.55 162.04 295.55 161.7 295.24 161.15 294.37 160.48 
M 293.75 168.14 294.61 167.4 294.92 166.79 294.92 166.42 294.61 165.81 293.75 165.07 
M 294.35 184.79 295.19 184.05 295.5 183.45 295.5 183.07 295.19 182.47 294.35 181.73 
M 293.85 189.39 294.68 188.72 294.99 188.18 294.99 187.84 294.68 187.3 293.85 186.63 
M 293.04 193.69 293.86 193.05 294.16 192.53 294.16 192.21 293.86 191.68 293.04 191.04 
M 297.85 115.11 298.93 114.49 
M 297.61 118.75 298.61 118.22 298.97 117.79 298.97 117.52 298.61 117.09 297.61 116.55 
M 297.2 122.48 298.19 121.93 298.55 121.48 298.55 121.2 298.19 120.75 297.2 120.2 
M 296.73 126.4 297.7 125.81 298.06 125.33 298.06 125.03 297.7 124.55 296.73 123.96 
M 296.44 130.78 297.42 130.12 297.77 129.58 297.77 129.25 297.42 128.71 296.44 128.05 
M 296.56 135.77 297.56 135.03 297.92 134.43 297.92 134.06 297.56 133.46 296.56 132.72 
M 297.39 146.57 298.44 145.79 298.82 145.16 298.82 144.77 298.44 144.13 297.39 143.36 
M 297.53 151.76 298.58 151.01 298.96 150.41 298.96 150.04 298.58 149.43 297.53 148.69 
M 296.55 161.14 297.6 160.46 297.97 159.92 297.97 159.58 297.6 159.03 296.55 158.36 
M 295.75 176.68 296.2 176.46 296.78 175.87 297.15 175.21 297.15 174.8 296.78 174.13 296.2 173.55 295.75 173.32 
M 295.13 191.58 296.13 190.92 296.5 190.39 296.5 190.06 296.13 189.53 295.13 188.88 
M 299.44 116.94 300.27 116.41 300.56 115.98 300.56 115.72 300.27 115.29 299.44 114.76 
M 299.11 120.61 299.93 120.07 300.23 119.63 300.23 119.36 299.93 118.92 299.11 118.39 
M 298.61 124.35 299.42 123.79 299.72 123.34 299.72 123.06 299.42 122.6 298.61 122.04 
M 298.14 128.42 298.95 127.81 299.25 127.3 299.25 126.99 298.95 126.49 298.14 125.87 
M 298.04 133.13 298.86 132.42 299.16 131.84 299.16 131.49 298.86 130.91 298.04 130.2 
M 298.98 143.99 299.82 143.2 300.13 142.56 300.13 142.16 299.82 141.51 298.98 140.72 
M 299.28 149.32 300.13 148.55 300.43 147.93 300.43 147.55 300.13 146.92 299.28 146.16 
M 299.25 154.38 300.1 153.66 300.41 153.07 300.41 152.71 300.1 152.12 299.25 151.4 
M 298.75 159.03 299.6 158.36 299.91 157.81 299.91 157.47 299.6 156.92 298.75 156.25 
M 297.66 179.62 298.51 178.81 298.82 178.15 298.82 177.74 298.51 177.08 297.66 176.26 
M 295.66 198.12 296.48 197.45 296.78 196.91 296.78 196.58 296.48 196.04 295.66 195.38 
M 300.92 118.76 301.9 118.23 302.25 117.79 302.25 117.53 301.9 117.09 300.92 116.56 
M 300.5 122.47 301.48 121.92 301.84 121.48 301.84 121.2 301.48 120.75 300.5 120.2 
M 300.02 126.39 301 125.8 301.36 125.32 301.36 125.02 301 124.54 300.02 123.95 
M 299.75 130.79 300.73 130.12 301.09 129.58 301.09 129.25 300.73 128.71 299.75 128.05 
M 300.37 141.24 301.37 140.46 301.73 139.82 301.73 139.43 301.37 138.79 300.37 138 
M 300.79 146.66 301.78 145.88 302.14 145.25 302.14 144.86 301.78 144.22 300.79 143.45 
M 300.93 151.86 301.92 151.11 302.28 150.51 302.28 150.13 301.92 149.53 300.93 148.78 
M 300 161.29 301.02 160.61 301.39 160.06 301.39 159.72 301.02 159.17 300 158.5 
M 298.99 171.17 300.03 170.4 300.41 169.77 300.41 169.37 300.03 168.74 298.99 167.97 
M 298.51 191.65 299.52 191 299.88 190.47 299.88 190.14 299.52 189.61 298.51 188.96 
M 302.73 116.91 303.47 116.44 
M 301.9 124.34 302.71 123.78 303.01 123.32 303.01 123.04 302.71 122.58 301.9 122.02 
M 301.45 128.44 302.27 127.82 302.57 127.31 302.57 127 302.27 126.5 301.45 125.88 
M 301.37 133.16 302.19 132.45 302.49 131.87 302.49 131.51 302.19 130.94 301.37 130.23 
M 301.77 138.5 302.59 137.72 302.89 137.09 302.89 136.7 302.59 136.06 301.77 135.29 
M 302.3 144 303.11 143.21 303.41 142.57 303.41 142.17 303.11 141.53 302.3 140.74 
M 301.3 163.59 302.16 162.92 302.47 162.36 302.47 162.02 302.16 161.47 301.3 160.79 
M 304.19 118.73 305.17 118.2 305.52 117.76 305.52 117.5 305.3 117.23 
M 303.78 122.45 304.76 121.9 305.11 121.45 305.11 121.17 304.76 120.72 303.78 120.17 
M 303.32 126.39 304.3 125.8 304.66 125.31 304.66 125.01 304.3 124.53 303.32 123.94 
M 303.06 130.8 304.05 130.13 304.41 129.59 304.41 129.26 304.05 128.72 303.06 128.05 
M 303.67 141.23 304.65 140.45 305 139.81 305 139.42 304.65 138.78 303.67 138 
M 302.76 166.15 303.8 165.44 304.18 164.85 304.18 164.49 303.8 163.91 302.76 163.2 
M 305.66 120.55 306.47 120.01 306.77 119.57 306.77 119.3 306.47 118.86 305.66 118.32 
M 305.18 124.33 306 123.76 306.29 123.3 306.29 123.02 306 122.56 305.18 121.99 
M 304.76 128.44 305.58 127.82 305.88 127.31 305.88 127 305.58 126.49 304.76 125.87 
M 304.68 133.16 305.51 132.46 305.81 131.88 305.81 131.52 305.51 130.95 304.68 130.24 
M 305.06 138.47 305.87 137.7 306.17 137.07 306.17 136.68 305.87 136.05 305.06 135.28 
M 305.84 149.26 306.64 148.5 306.93 147.87 306.93 147.49 306.64 146.87 305.84 146.1 
M 305.83 154.36 306.63 153.63 306.92 153.03 306.92 152.66 306.63 152.07 305.83 151.34 
M 304.76 163.78 305.62 163.09 305.93 162.53 305.93 162.18 305.62 161.61 304.76 160.92 
M 304.54 179.86 305.4 179.06 305.7 178.42 305.7 178.02 305.4 177.37 304.54 176.57 
M 303.26 196.75 302.97 195.97 302.19 195.33 
M 307.46 118.69 308.08 118.41 
M 307.06 122.43 308.04 121.88 308.4 121.43 308.4 121.15 308.04 120.7 307.06 120.14 
M 306.62 126.39 307.61 125.79 307.97 125.31 307.97 125.01 307.61 124.53 306.62 123.93 
M 306.38 130.81 307.38 130.15 307.74 129.61 307.74 129.27 307.38 128.73 306.38 128.07 
M 306.52 135.81 307.51 135.07 307.87 134.47 307.87 134.1 307.51 133.5 306.52 132.76 
M 307.3 146.55 308.26 145.77 308.6 145.14 308.6 144.75 308.26 144.12 307.3 143.35 
M 307.43 151.75 308.39 151.01 308.73 150.4 308.73 150.02 308.39 149.41 307.43 148.66 
M 305.16 191.66 306.13 191.02 306.48 190.5 306.48 190.18 306.13 189.66 305.16 189.02 
M 308.94 120.52 309.75 119.98 310.05 119.32 
M 308.08 128.46 308.91 127.84 309.21 127.33 309.21 127.02 308.91 126.51 308.08 125.88 
M 308.01 133.18 308.84 132.48 309.15 131.9 309.15 131.55 308.84 130.98 308.01 130.27 
M 308.34 138.42 309.15 137.66 309.45 137.04 309.45 136.65 309.15 136.03 308.34 135.27 
M 308.77 143.84 309.57 143.06 309.86 142.43 309.86 142.03 309.57 141.4 308.77 140.62 
M 309.03 149.14 309.83 148.38 310.11 147.76 310.11 147.38 309.83 146.75 309.03 145.99 
M 309.02 154.26 309.82 153.52 310.1 152.92 310.1 152.55 309.82 151.95 309.02 151.22 
M 308.72 159.16 309.53 158.45 309.82 157.87 309.82 157.51 309.53 156.93 308.72 156.22 
M 307.78 174.42 308.64 173.63 308.96 172.99 308.96 172.59 308.64 171.94 307.78 171.15 
M 307.3 189.58 308.11 188.93 308.4 188.4 308.4 188.07 308.11 187.54 307.3 186.89 
M 310.37 122.43 311.36 121.88 311.72 121.42 311.72 121.14 311.36 120.69 310.37 120.14 
M 309.96 126.42 310.95 125.82 311.32 125.34 311.32 125.03 310.95 124.55 309.96 123.95 
M 309.73 130.85 310.74 130.19 311.1 129.65 311.1 129.32 310.74 128.78 309.73 128.11 
M 309.85 135.81 310.84 135.08 311.21 134.49 311.21 134.12 310.84 133.53 309.85 132.8 
M 310.19 141.11 311.17 140.34 311.52 139.71 311.52 139.33 311.17 138.7 310.19 137.94 
M 310.51 146.44 311.47 145.67 311.82 145.04 311.82 144.66 311.47 144.03 310.51 143.26 
M 310.62 151.64 311.58 150.89 311.92 150.28 311.92 149.9 311.58 149.29 310.62 148.54 
M 310.13 161.59 311.12 160.87 311.48 160.28 311.48 159.92 311.12 159.34 310.13 158.62 
M 309.52 171.78 310.55 171.01 310.93 170.39 310.93 170 310.55 169.37 309.52 168.61 
M 309.59 182.51 310.58 181.77 310.94 181.16 310.94 180.78 310.58 180.17 309.59 179.42 
M 312.24 120.53 312.47 120.43 
M 311.81 124.36 312.65 123.79 312.95 123.32 312.95 123.04 312.65 122.57 311.81 122 
M 311.45 128.53 312.3 127.91 312.6 127.4 312.6 127.08 312.3 126.57 311.45 125.94 
M 311.39 133.24 312.23 132.54 312.54 131.97 312.54 131.62 312.23 131.05 311.39 130.35 
M 311.65 138.41 312.48 137.66 312.78 137.04 312.78 136.66 312.48 136.05 311.65 135.29 
M 312.01 143.75 312.82 142.98 313.11 142.35 313.11 141.96 312.82 141.34 312.01 140.57 
M 312.21 154.14 313 153.4 313.29 152.8 313.29 152.43 313 151.82 312.21 151.08 
M 311.98 159.14 312.79 158.42 313.08 157.83 313.08 157.46 312.79 156.87 311.98 156.14 
M 311.61 164.09 312.45 163.37 312.75 162.77 312.75 162.41 312.45 161.82 311.61 161.09 
M 311.23 174.54 312.07 173.76 312.38 173.13 312.38 172.73 312.07 172.1 311.23 171.31 
M 313.72 122.49 314.16 122.33 314.98 121.61 
M 313.5 141.09 314.5 140.33 314.86 139.72 314.86 139.34 314.5 138.72 313.5 137.96 
M 313.76 146.36 314.73 145.6 315.09 144.98 315.09 144.6 314.73 143.98 313.76 143.22 
M 313.83 151.54 314.8 150.79 315.15 150.18 315.15 149.81 314.8 149.2 313.83 148.45 
M 313.45 161.62 314.43 160.89 314.79 160.3 314.79 159.93 314.43 159.34 313.45 158.61 
M 312.94 177.27 313.93 176.49 314.29 175.86 314.29 175.47 313.93 174.84 312.94 174.07 
M 315.21 124.47 316.07 123.89 316.37 123.42 316.37 123.13 316.07 122.66 315.21 122.08 
M 314.89 128.68 315.75 128.05 316.06 127.53 316.06 127.22 315.75 126.7 314.89 126.07 
M 315.04 138.47 315.89 137.73 316.2 137.12 316.2 136.75 315.89 136.14 315.04 135.4 
M 315.47 148.95 316.29 148.19 316.59 147.58 316.59 147.2 316.29 146.59 315.47 145.84 
M 315.43 154.06 316.24 153.32 316.53 152.71 316.53 152.34 316.24 151.74 315.43 151 
M 314.67 169.25 315.5 168.5 315.79 167.89 315.79 167.51 315.5 166.9 314.67 166.14 
M 316.79 126.67 317.83 126.06 318.2 125.57 318.2 125.26 317.83 124.77 316.79 124.16 
M 316.69 136.01 317.72 135.3 318.1 134.71 318.1 134.35 317.72 133.77 316.69 133.05 
M 316.9 141.16 317.92 140.42 318.29 139.81 318.29 139.43 317.92 138.82 316.9 138.08 
M 317.12 151.51 318.11 150.77 318.46 150.16 318.46 149.79 318.11 149.18 317.12 148.44 
M 316.45 166.68 317.44 165.94 317.8 165.33 317.8 164.96 317.44 164.36 316.45 163.61 
M 316.23 177.23 317.2 176.47 317.55 175.84 317.55 175.45 317.2 174.83 316.23 174.06 
M 315.65 187.08 316.59 186.41 316.93 185.87 316.93 185.53 316.59 184.99 315.65 184.32 
M 314.65 191.16 315.57 190.56 315.9 190.06 315.9 189.75 315.57 189.26 314.65 188.65 
M 314.31 193.17 313.37 192.5 
M 318.68 124.64 319.06 124.48 319.67 123.86 
M 318.73 143.82 319.58 143.07 319.89 142.46 319.89 142.08 319.58 141.47 318.73 140.72 
M 318.83 148.98 319.66 148.23 319.97 147.63 319.97 147.25 319.66 146.65 318.83 145.9 
M 318.74 154.05 319.57 153.32 319.87 152.72 319.87 152.35 319.57 151.75 318.74 151.01 
M 318.53 159.09 319.35 158.36 319.65 157.76 319.65 157.39 319.35 156.8 318.53 156.06 
M 318.23 164.11 319.05 163.38 319.35 162.78 319.35 162.41 319.05 161.82 318.23 161.08 
M 317.84 174.53 318.66 173.76 318.96 173.13 318.96 172.74 318.66 172.11 317.84 171.34 
M 320.28 126.86 321.32 126.25 321.7 125.76 321.7 125.45 321.32 124.95 320.28 124.34 
M 320.19 136.2 321.23 135.49 321.61 134.91 321.61 134.55 321.23 133.97 320.19 133.26 
M 320.49 146.46 321.51 145.71 321.88 145.11 321.88 144.73 321.51 144.12 320.49 143.38 
M 320.48 151.55 321.48 150.81 321.85 150.21 321.85 149.84 321.48 149.24 320.48 148.5 
M 318.77 186.86 319.69 186.21 320.02 185.67 320.02 185.34 319.69 184.8 318.77 184.15 
M 322.01 138.81 322.88 138.08 323.19 137.49 323.19 137.12 322.88 136.52 322.01 135.79 
M 322.11 154.11 322.95 153.38 323.25 152.78 323.25 152.41 322.95 151.81 322.11 151.08 
M 321.33 169.29 322.2 168.55 322.51 167.94 322.51 167.56 322.2 166.95 321.33 166.2 
M 323.63 131.53 324.66 130.87 325.04 130.33 325.04 129.99 324.66 129.45 323.63 128.79 
M 323.82 141.45 324.85 140.72 325.23 140.12 325.23 139.75 324.85 139.15 323.82 138.42 
M 323.92 146.57 324.94 145.83 325.31 145.23 325.31 144.85 324.94 144.25 323.92 143.51 
M 323.87 151.64 324.89 150.9 325.25 150.3 325.25 149.93 324.89 149.33 323.87 148.6 
M 323.02 172.02 324.07 171.27 324.45 170.66 324.45 170.28 324.07 169.67 323.02 168.93 
M 322.5 182.1 323.45 181.4 323.79 180.82 323.79 180.47 323.45 179.9 322.5 179.19 
M 320.67 190.53 321.56 189.94 321.88 189.46 321.88 189.16 321.56 188.67 320.67 188.08 
M 325.38 129.27 326.23 128.63 326.54 128.11 326.54 127.79 326.23 127.27 325.76 126.82 
M 325.67 126.77 325.38 126.63 
M 325.48 138.97 326.34 138.24 326.65 137.65 326.65 137.28 326.34 136.69 325.48 135.97 
M 325.64 149.17 326.49 148.43 326.8 147.83 326.8 147.46 326.49 146.86 325.64 146.13 
M 325.33 159.31 326.19 158.57 326.5 157.96 326.5 157.59 326.19 156.99 325.33 156.24 
M 324.91 169.56 325.8 168.82 326.13 168.21 326.13 167.83 325.8 167.23 324.91 166.48 
M 322.86 188.52 323.6 187.91 323.87 187.41 323.6 186.61 322.86 186 
M 327.28 151.74 328.29 151 328.66 150.4 328.66 150.03 328.29 149.43 327.28 148.7 
M 326.82 167.15 327.89 166.4 328.27 165.8 328.27 165.42 327.89 164.81 326.82 164.06 
M 328.81 129.4 329.64 128.78 
M 328.79 134.11 329.64 133.42 329.95 132.85 329.95 132.51 329.64 131.94 328.79 131.25 
M 328.92 139.1 329.76 138.37 330.07 137.78 330.07 137.41 329.76 136.82 328.92 136.1 
M 329.04 144.19 329.89 143.46 330.19 142.86 330.19 142.49 329.89 141.89 329.04 141.15 
M 329.05 149.26 329.89 148.53 330.19 147.93 330.19 147.56 329.89 146.96 329.05 146.23 
M 328.91 154.32 329.75 153.58 330.06 152.97 330.06 152.6 329.75 152 328.91 151.26 
M 328.81 159.5 329.66 158.75 329.97 158.13 329.97 157.75 329.66 157.14 328.81 156.39 
M 328.7 164.72 329.58 163.97 329.9 163.35 329.9 162.97 329.58 162.35 328.7 161.6 
M 328.54 169.89 329.44 169.15 329.76 168.54 329.76 168.17 329.44 167.56 328.54 166.82 
M 324.49 189.5 324.4 189.46 
M 330.55 136.65 331.56 135.94 331.93 135.36 331.93 135 331.56 134.43 330.55 133.72 
M 330.67 141.69 331.68 140.96 332.05 140.36 332.05 139.99 331.68 139.4 330.67 138.67 
M 330.74 146.77 331.74 146.03 332.11 145.43 332.11 145.06 331.74 144.46 330.74 143.73 
M 330.5 162.21 331.53 161.45 331.9 160.83 331.9 160.45 331.53 159.83 330.5 159.07 
M 330.16 172.51 331.21 171.78 331.6 171.19 331.6 170.82 331.21 170.23 330.16 169.5 
M 327.88 185.97 328.8 185.35 329.13 184.85 329.13 184.54 328.8 184.03 327.88 183.41 
M 332.31 139.18 333.15 138.46 333.45 137.87 333.45 137.5 333.15 136.91 332.31 136.19 
M 332.42 149.34 333.26 148.6 333.56 148 333.56 147.63 333.26 147.04 332.42 146.3 
M 332.25 159.66 333.1 158.89 333.4 158.27 333.4 157.89 333.1 157.27 332.25 156.5 
M 329.99 183.82 330.77 183.19 331.05 182.68 331.05 182.36 330.77 181.85 329.99 181.22 
M 333.92 136.71 334.92 136.01 335.28 135.43 335.28 135.07 334.92 134.5 333.92 133.79 
M 334.04 141.75 335.04 141.02 335.4 140.43 335.4 140.06 335.04 139.46 334.04 138.73 
M 334.1 146.83 335.1 146.09 335.46 145.49 335.46 145.12 335.1 144.52 334.1 143.79 
M 335.54 134.25 336.37 133.55 336.67 132.99 336.54 132.41 
M 335.66 139.23 336.49 138.51 336.79 137.92 336.79 137.55 336.49 136.96 335.66 136.24 
M 335.65 154.46 336.47 153.71 336.77 153.1 336.77 152.73 336.47 152.12 335.65 151.37 
M 335.63 159.75 336.46 158.98 336.77 158.36 336.77 157.97 336.46 157.34 335.63 156.57 
M 333.17 183.67 333.97 183.05 334.26 182.55 334.26 182.24 333.97 181.74 333.17 181.12 
M 337.26 136.74 338.25 136.03 338.61 135.46 338.61 135.1 338.25 134.53 337.26 133.82 
M 337.38 141.77 338.36 141.04 338.72 140.45 338.72 140.08 338.36 139.49 337.38 138.76 
M 337.3 157.11 338.28 156.35 338.63 155.73 338.63 155.35 338.28 154.73 337.3 153.97 
M 337.27 167.71 338.26 166.95 338.62 166.33 338.62 165.95 338.26 165.33 337.27 164.58 
M 336.43 177.41 337.41 176.74 337.77 176.19 337.77 175.86 337.41 175.31 336.43 174.64 
M 335.41 181.63 336.38 181 336.73 180.48 336.73 180.17 336.38 179.65 335.41 179.03 
M 338.86 134.26 339.37 133.9 
M 338.97 139.24 339.79 138.51 340.09 137.92 340.09 137.56 339.79 136.97 338.97 136.25 
M 338.89 170.33 339.7 169.59 339.99 168.98 339.99 168.6 339.7 168 338.89 167.25 
M 337.66 179.6 338.47 178.96 338.76 178.43 338.76 178.11 338.47 177.59 337.66 176.95 
M 340.57 136.74 341.56 136.04 341.92 135.25 
M 340.66 141.74 341.63 141.02 341.98 140.43 341.98 140.06 341.63 139.47 340.66 138.74 
M 338.64 181.55 339.59 180.92 339.93 180.41 339.93 180.09 339.59 179.58 338.64 178.95 
M 342.26 139.2 343.07 138.48 343.37 137.9 343.37 137.54 343.07 136.96 342.26 136.24 
M 342.31 144.22 343.1 143.49 343.38 142.9 343.38 142.53 343.1 141.94 342.31 141.21 
M 342.13 154.33 342.9 153.59 343.18 152.98 343.18 152.6 342.9 151.99 342.13 151.24 
M 341.69 175.08 342.47 174.39 342.74 173.82 342.74 173.48 342.47 172.91 341.69 172.22 
M 343.41 172.52 343.68 172.39 
M 343.68 169.68 343.41 169.55 
M 341.75 181.36 342.67 180.73 343.01 180.22 343.01 179.9 342.67 179.39 341.75 178.76 
M 250.76 104.88 251.69 102.92 253.67 96.16 254.06 93.86 255.15 89.94 255.54 87.69 256.65 85.26 257.49 83.12 258.05 81.02 259.03 78.78 260.37 76.89 263.69 66.94 266.94 63.58 269.11 59.7 270.19 58.6 271.25 57.17 273.14 55.33 274.93 53.2 277.13 51.19 278.48 49.41 280.26 47.49 282 46.8 283.46 44.51 285.24 42.73 287.91 41.05 293.23 38.68 295.75 36.35 298.65 34.51 299.66 32.63 301.75 30.85 303.25 30 298.45 42.77 298.3 45.37 297.41 49.96 296.68 51.97 296.27 54.3 294.3 57.27 294.96 60.37 295.56 65.88 295.36 68.31 294.51 70.19 294.76 73.16 294.75 75.88 294.14 80.61 293.31 84.72 292.03 85.91 290.95 87.56 290.35 89.9 289.53 92.02 289.42 94.93 288.01 99.59 287.29 103.37 287.34 105.24 288.51 108.11 289.37 110.97 
M 285.32 109.74 285.32 109.74 
M 254.6 104.54 255.54 102.88 256.07 100.44 256.36 97.8 257.21 93.32 258.61 89.15 259.06 87.1 264.37 75.91 265.55 72.28 269.05 68.13 271.4 63.69 272.88 61.37 275.72 59.36 276.81 57.56 279.27 55.89 281.47 53.9 283.53 52.79 285.52 50.62 287.4 49.5 
M 258.46 104.4 259.24 102.44 259.55 100.19 262.65 89.19 264.05 86.57 265.87 84.24 266.99 81.95 267.5 80 268.52 77.98 270.24 75.61 270.96 74.86 274.15 72.21 275.06 68.9 276.58 66.84 
M 262.31 104.47 263.4 102.72 264.56 98.31 265.4 96.3 266.48 94.32 267.29 92.06 270.3 87.08 270.83 85.41 273.86 80.92 
M 266.11 105.12 267.45 103.45 268.23 101.73 268.73 99.45 269.69 97.24 270.87 95.63 271.75 93.62 274.2 89.56 278.44 85.6 280.79 84.33 282.53 83.08 284.84 82.8 287.12 81.24 288.36 80.05 290.06 79.35 
M 269.91 105.82 271.16 104.91 271.63 102.68 272.44 100.67 273.71 98.94 274.49 96.7 275.81 94.39 277.18 92.75 284.34 88.28 
M 273.69 106.57 275.02 105.46 277.19 101.27 277.59 100.11 279.39 98.57 284.26 95.54 
M 277.44 107.49 279.47 106.76 281 104.67 282.71 103.52 
M 281.16 108.49 284.77 108.39 
M 209.23 178.32 217.64 176.25 219.78 176.18 221.97 175.22 223.7 174.91 231.73 172.58 262.71 172.11 270.51 181.14 271.37 183.45 270.37 185.27 269.05 189.59 267.48 193.76 264.5 197.3 261.13 200.44 259.83 201.01 231.56 199.1 229.21 198.29 226.11 196.78 223.02 194.92 220.09 193.65 218.01 192.53 216.58 190.48 209.41 186.66 208.52 186.36 
M 209.34 179.34 211.8 179.04 214.54 179.16 221.58 178.13 228.09 177.89 230.77 177.47 237.18 177.59 239.07 176.33 240.5 174.72 241.58 173.82 
M 212.12 181.27 219.5 181.64 221.84 181.26 228.71 181.61 234.88 182.33 237.35 182.39 239.08 182.02 241.33 181.82 243.37 182.04 247.38 183.04 249.67 182.77 252.55 182.81 254.74 183.43 258.36 182.84 260.56 182.68 
M 209.31 183.06 211.94 183.57 214.2 183.59 216.75 184.21 219.37 185.11 221.71 185.14 224.19 185.42 231.63 186.91 233.84 187.73 239.12 188.48 240.98 189 242.3 190.24 245.45 190.74 249.71 190.58 251.9 191.04 254.88 191.41 257.32 191.4 259.72 191.17 
M 211.54 185.56 214.28 186.35 218.38 188.42 220.61 189.22 222.89 190.6 225.48 191.76 230.75 193.69 233.16 194.18 237.49 195.68 240 196.11 241.36 197.64 243.42 198.44 247.25 199.18 
M 221.97 203.9 223.79 207.07 225.49 209.4 227.68 211.61 229.02 213.58 231.07 216.05 233.32 220.1 235.27 222.09 236.61 223.21 237.68 226.28 241.2 231.36 242.61 233.16 244.55 234.66 246.07 235.58 247.33 237.83 246.35 249.95 244.56 251.37 243.21 253.23 239.85 256.3 235.52 261.66 231.54 268.22 223 280 222.82 278.14 222.02 276.82 220.96 272.72 220.12 268.41 219.5 262.77 220.07 260.89 220.38 258.93 221.22 256.4 221.5 253.61 220.9 252.28 220.06 251.13 219.84 248.91 220.75 243.19 220.69 237.39 219.88 235.31 217.93 233.19 217.71 230.9 218.6 228.41 219.15 226.06 218.88 223.45 218.92 220.74 218.38 217.97 217.58 215.27 217.45 212.93 216.98 210.57 216.66 205.37 216.21 202.41 
M 220.47 203.52 222.22 206.61 223.52 209.3 224.92 211.63 226.52 213.66 229.11 218.27 230.02 220.25 231.35 221.83 232.82 224.42 233.59 227.26 
M 218.98 203.13 220.4 206.26 221.98 211.47 223.26 213.97 224.19 216.36 225.82 218.61 226.73 220.84 227.74 222.56 228.76 227.97 229.98 232.81 230.87 234.86 231.54 237.13 232 239.83 235.22 246.98 235.97 249.04 
M 217.49 202.74 218.31 205.75 219.4 210.87 220.34 213.55 220.92 215.91 223.66 223.1 223.56 228.73 225.1 235.66 225.08 237.37 226.47 241.51 227.35 247.12 228.01 249.7 
M 319.87 194.84 327.01 202.63 323.27 204.04 321.26 205.3 318.6 209.16 316.21 213.21 312.85 216.25 310.99 217.65 308.96 218.86 307.49 220.65 304.14 226.77 303.27 228.8 303.51 231.6 303.26 234.26 301.01 236.37 299.28 234.31 297.85 233.07 296.17 230.95 294.13 227.97 291.78 223.43 290 221.08 288.57 218.82 283.77 213.06 281.84 211.01 279.56 207.97 
M 316.26 196.21 320.54 199.06 
M 312.65 197.57 316.8 200.47 
M 309.04 198.9 315.06 205.22 
M 305.41 200.21 308.86 203.09 311.18 205.54 
M 301.77 201.5 304.87 204.57 306.48 207.32 
M 298.12 202.73 300.85 205.71 302.56 208.1 304.99 209.68 
M 294.46 203.96 297.44 207.86 301.47 210.88 305.63 214.91 307.75 217.73 
M 290.8 205.15 297.19 212.75 297.95 215.18 300.03 216.67 302.12 219.2 303.29 220.24 
M 287.07 206.15 289.96 209.35 291.73 211.65 293.77 215.85 295.8 218.16 
M 283.33 207.09 287.74 211.9 289.01 214 294.15 220.71 
M 342.9 135.77 349.67 133.04 353.54 130.43 355.79 129.4 357.71 128.22 359.79 126.44 361.86 125.49 366.37 123.92 368.13 122.95 371.7 119.79 375.22 116.19 377.04 114.7 382.45 112.28 384.37 110.87 385.82 108.84 387.72 107.44 389.99 106.49 392.49 104.97 394.24 104.57 395.8 104.41 398.19 102.77 400.93 101.77 405.78 97.77 407.73 97.22 412.44 93.35 416.69 90.96 418.27 89.58 419.7 87.38 424.39 84.61 425.29 84.72 427.02 83.55 428.9 81.41 431.11 80.25 434.29 78.86 436.79 78.52 438.66 77.05 439.21 75.73 437.91 87.62 438.4 90.34 439.02 95.43 437.18 101.88 435.88 103.62 434.87 105.6 434.67 108.28 433.05 112.43 432.6 114.87 433.45 120.27 433.63 122.62 433.15 124.3 431.93 125.67 430.27 127.07 429.48 129.34 429.22 132.14 428.7 134.59 428.49 137.14 427.7 139.09 427.55 141.69 428.05 144.94 425.88 150.7 426.16 152.71 427.07 155.36 426.9 157.34 427.05 159.83 426.69 161.81 426.66 164.08 427 166.58 427.1 168.83 426.21 170.58 425.03 174.97 424.68 177.09 425.9 184.34 426.91 186.5 429.97 191.19 430.85 193.67 429.61 197 429.31 199 429.89 201.44 434.85 210.65 435.09 212.73 435.67 215.28 436.2 219.75 436.13 221.95 437.16 227.83 436.93 230.02 436.51 231.98 437.24 236.71 437 238.47 437.34 241.3 439.71 250.39 439.71 249.44 438.72 248.13 435.4 246.77 432.67 246.57 427.84 241.54 424.05 239.87 421.51 238.95 419.52 237.89 418.82 236.33 414.25 232.11 412.08 230.65 410.51 230.06 408.09 229.86 406.14 228.81 405.1 226.79 398.59 221.7 391.1 218.19 388.87 216.85 384.46 213.32 383.61 211.91 381.77 210.52 380.87 208.99 378.28 207.12 371.02 204.01 367.46 201.09 363.24 198.43 361.35 196.58 357.19 194.01 353.45 191.37 349.86 188.24 345.31 185.18 342.9 183.33 
M 349.79 135.42 353.98 133.59 356.15 132.38 358.43 131.57 362.29 129.01 364.18 128.12 373.35 124.76 375.29 123.51 377 121.6 378.79 120.05 379.79 118.88 381.61 117.25 384.03 116 388.02 113.08 389.97 112.3 391.88 111.13 394.35 110.54 396.5 109.56 399.58 107.78 401.74 107.38 406.2 104.65 408.7 103.52 410.83 102.69 415.12 101.96 416.46 100.45 418.75 98.58 419.44 97.24 
M 347.78 138.94 349.86 137.99 354.42 136.68 358.42 134.43 360.77 133.29 364.86 132.27 367.17 131.54 369.28 130.53 371.2 130.04 375.87 127.64 379.64 125.24 381.68 124.61 384.07 123.46 389.92 119.48 395.1 118.05 398.01 117.55 401.41 115.15 403.67 113.96 405.9 111.57 409.25 109.55 411.37 108.75 415.15 106.85 417.86 106.31 420.43 105.08 422.98 104.35 424.45 104.4 427.19 103.37 428.84 103.39 430.73 101.22 435.55 98.38 
M 350.45 140.95 352.44 140.14 357.21 139.24 361.72 137 370.48 134.35 372.38 133.36 374.5 132.51 375.71 130.9 378.31 130.01 381.52 129.29 383.07 128.56 384.37 128.47 388.34 126.59 391.87 125.94 394.32 125.17 400.15 122.2 
M 348.09 144.36 350.45 143.76 352.75 142.89 355.28 142.17 357.81 141.83 359.66 140.86 362.17 140.02 365.02 139.56 367.46 138.89 371.71 137.31 373.95 136.91 375.42 135.69 379.45 133.9 381.9 133.62 383.44 133.06 385.78 132.67 391.28 130.5 394.07 129.59 396.64 129.12 398.85 127.87 401.27 127.08 404.41 126.69 408.81 124.66 414.53 123.56 417.11 122.2 
M 348.27 147 350.75 146.54 353.33 145.83 362.34 142.99 365.04 142.38 369.57 141.99 371.75 140.96 376.44 139.79 379.86 138.68 387.91 137.81 
M 346.01 150.18 348.65 149.82 355.77 148.49 364.82 145.87 367.36 145.56 369.77 145.79 371.41 145.14 373.88 144.72 376.38 144.59 381.51 143.9 385.96 142.82 388.43 142.72 390.75 142.17 393.21 141.94 395.69 140.51 398.54 140.19 403.74 140.46 406.3 139.67 409.43 138.36 412.18 138.45 414.09 137.7 419.1 136.27 422.31 136.17 423.65 135.13 424.91 134.64 
M 351.45 152.4 353.4 152.49 358.03 151.47 364.96 150.51 369.44 149.18 374.48 148.82 377.44 148.92 379.43 149.41 382.14 149.36 384.07 148.44 386.3 148.26 388.04 147.65 390.43 147.62 
M 342.9 154.8 345.92 155.29 355.61 155.15 357.96 154.89 359.92 154.94 367.62 153.8 370.5 153.6 372.85 153.05 377.73 153.16 379.27 152.09 383.57 151.84 385.84 153.01 388.87 153.67 391.5 152.81 393.71 152.5 395.86 153.09 398.71 152.6 401.28 152.4 403.82 151.59 408.48 151.46 411.45 150.9 414.55 150.79 416.68 150.9 417.94 150.36 420.06 148.97 422.01 148.68 423.83 149.15 
M 348.62 157.86 351.29 157.96 353.62 157.6 358.47 157.96 360.62 157.83 367.53 157.89 370.34 158.2 373.66 158.32 377.01 157.88 380 156.9 382.6 156.44 384.65 156.99 386.34 157.78 388.52 158.4 391.26 158.01 393.45 157.95 395.91 158.42 398.92 158.27 404.87 157.48 407.66 157.04 408.84 156.51 410.56 156.54 412.36 155.92 415.8 155.85 418.75 155.3 421.96 155.88 
M 351.2 160.44 353.46 160.42 355.91 160.82 358.18 160.97 362.57 160.68 365.16 160.84 372.66 162.47 375.06 162.62 378.01 162.49 380.07 161.96 384.59 161.99 386.83 162.42 388.5 163.11 391.12 162.85 396.18 163.34 402.56 163.09 406.55 162.38 408.53 161.82 410.31 161.66 
M 345.86 162.66 358.96 164.38 361.02 164.32 362.88 164.06 364.8 164.27 367.66 164.91 372.35 166.87 374.94 166.9 377.34 167.54 380.36 167.02 383.09 167.36 384.82 167.36 388.83 166.05 391.65 167.64 394.99 168.7 398.31 169.04 400.51 168.78 402.73 169.2 404.51 168.92 406.01 168.92 408.45 169.72 410.56 169.8 412.4 170.16 415.45 170.04 418.57 170.16 421.47 170.7 
M 348.39 165.71 359 168.28 361.18 168.13 363.1 168.24 365.25 168.72 367.51 168.78 370.06 169.49 371.95 170.46 374 170.61 376.68 171.55 384.69 171.96 386.55 171.29 389.01 171.19 391.72 171.76 396.48 174.43 398.65 174.81 400.56 174.18 403.98 175.15 406.73 176.44 408.48 175.71 411.95 176.71 414.59 176.85 416.91 176.78 419.13 177.32 
M 348.26 168.55 358.79 171.51 361.04 171.56 365.12 172.11 367.54 172.98 369.49 173.98 371.75 174.5 373.95 175.24 376.78 175.88 385.07 176.56 387.23 176.94 389.35 177.08 391.29 177.59 393.08 178.74 394.32 178.4 396.58 179.23 403.43 180.74 405.04 181.87 
M 347.96 170.97 356.09 173.34 360.82 174.55 365.34 176.57 367.39 177.13 371.23 178.99 373.5 179.71 376.37 179.63 379.01 180.37 386.34 181.76 388.33 182.87 390.29 183.43 392.65 184.41 394.69 184.95 397.12 185.28 401.48 186.4 403.86 186.62 405.69 187.63 408.16 188.33 
M 342.9 171.44 348.28 173.49 357.97 176.75 362.65 178.77 364.36 179.97 366.71 181.01 375.55 183.4 377.79 183.66 382.97 184.95 385.27 186.34 389.29 188.34 
M 345.75 174.94 352.97 178.06 357.4 180.48 359.91 181.32 368.16 185.18 373.12 187 374.85 187.94 376.89 188.47 379.8 188.85 385.25 190.61 388.88 192.44 391.61 193.45 393.66 194.77 395.36 196.19 397.59 197.22 398.86 196.86 401.54 197.49 405.89 200.5 408.67 202.07 412.21 203.28 415.33 203.36 420.1 205.43 424.36 205.93 
M 345.67 177.59 352.48 181.5 361.76 185.72 365.32 188.23 367.93 189.24 372.51 191.48 374.95 192.38 377.63 192.68 382.74 193.8 383.82 195.19 388.38 197.07 
M 350.06 183.08 354.63 185.61 358.61 188.24 360.58 189.02 369.86 193.8 373.43 196.9 378.68 197.55 383.21 199.45 385.6 200.19 388.94 203.72 390.86 204.8 392.56 205.15 394.27 206.51 396.05 208.5 414.14 215.96 416.12 217.23 419.99 221.3 422.26 222.15 423.97 223.44 427.28 224.27 430.59 224.74 431.62 225.92 
M 349.83 185.79 352.06 186.99 354.06 188.36 355.76 189.93 359.78 192.51 362.25 193.65 366.27 196.48 368.13 197.58 370.64 198.75 372.57 200.31 374.5 201.5 379.87 203.2 385.86 207.25 387.32 208.05 388.94 209.53 390.94 211.03 392.79 211.77 397.74 215.67 400.03 216.03 402.78 216.71 404.4 218.32 405.34 219.55 407.71 220.36 409.84 221.58 412.59 224.39 414.64 226.04 
M 302.59 116.07 306.6 120.31 322.95 100.13 329.74 97.48 332.06 96.66 334.21 96.09 335.68 95.17 338.08 95.19 340.22 95.49 342.02 96.07 343.92 97.04 346.46 99.14 347.3 101.28 348.06 104.07 348.4 106.44 347.43 108.32 345.08 111.8 344.9 114.54 344.25 116.59 333.98 134.91 331.39 129.66 
M 306.14 117.58 308.33 116.67 313.24 111.33 316.55 109.8 317.33 108.53 318.92 106.97 
M 309.67 119.14 311.65 118.04 313.67 116.21 315.21 114.31 317.26 113.22 318.33 112.34 319.33 111.19 323.43 108.56 326.63 104.8 
M 313.17 120.75 315.66 119.9 317.77 118.72 319.39 116.75 322.83 113.35 324.24 112.18 325.91 111.35 328.08 110.61 329.76 108.45 
M 316.65 122.41 319.24 121.91 323.28 118.57 324.42 117.08 325.35 114.91 326.65 113.43 329.02 112.75 331.05 111.21 333.5 107.02 335.61 106.21 337.01 104 338.02 101.78 339.74 100.07 
M 320.13 124.08 322.75 123.16 324.89 121.45 326.72 119.91 328.11 118.24 329.31 117.53 330.55 115.71 332.58 114.55 334.53 113.1 338.08 109.18 
M 323.6 125.76 326.33 124.66 331.5 120.97 334.86 119 336.83 117.22 341.79 115.05 344.06 113.45 345.08 111.77 
M 327.06 127.47 330.37 127.19 332.01 126.02 333.59 123.98 335.43 122.66 338.81 121.12 341.61 120.31 
M 95.01 147.69 99.4 145.79 103.38 144.67 108.33 143.91 114.21 142.8 119.79 140.51 133.99 135.35 142.12 133.33 158.89 129.88 173.8 126.29 180.5 124.93 186.64 123.91 198.92 122.59 202.71 126.22 206.6 133.79 208.02 137.61 208.82 141.48 209.34 149.31 211.33 157.02 211.46 160.95 210.67 164.94 209.59 172.89 208.7 184.76 208.25 188.73 207.5 192.72 204.63 196.89 189.97 196.83 179.37 196.47 169.91 196.01 161.19 194.92 153.02 192.95 138.57 187.97 132.23 184.72 126.45 180.73 
M 122.2 177.89 115.66 173.81 110.68 170.21 106.15 166.57 102.45 162.35 97.43 155.7 
M 181 143.98 181.75 147.31 181.89 150.51 181.04 153.57 179.31 156.53 177.98 159.35 177.03 161.96 176.64 164.23 176.98 166.46 177.88 168.71 180.91 174.43 180.87 178.01 171.09 178.54 157.15 179.59 150.39 179.58 143.68 178.64 137.42 176.94 131.38 174.91 
M 125.25 180.44 111.34 168.56 108.39 165.82 104.42 161.72 92.83 151.93 91.71 150.47 92.04 148.59 93.57 147.35 95.38 147.77 100.58 153.02 103.19 155.88 106.03 158.59 112.27 166.03 126.67 180.52 
M 126.37 181.17 112.85 182.18 109.11 182.61 82.35 184 80.54 183.03 80.28 181.15 81.62 179.74 83.57 179.49 100.9 179.86 110.3 180.3 114.07 180.2 126.38 180.43 
M 136.67 164.2 135.08 158.17 135.53 151.95 137.98 146.21 142.16 141.58 147.61 138.56 153.75 137.47 159.92 138.43 165.43 141.35 169.7 145.89 172.26 151.58 172.84 157.79 171.37 163.85 168.01 169.11 163.13 172.99 157.25 175.07 151.01 175.13 145.09 173.17 140.13 169.39 136.67 164.2 
M 136.44 163.67 135.68 161.44 135.19 159.15 135 156.81 135.1 154.46 135.48 152.14 136.15 149.89 137.1 147.74 138.3 145.73 139.74 143.87 141.4 142.21 143.25 140.77 145.27 139.57 147.42 138.63 149.67 137.96 151.99 137.57 154.33 137.47 156.67 137.67 158.97 138.15 161.19 138.91 
M 137.86 163.08 137.16 161.04 136.72 158.92 136.54 156.77 136.63 154.62 136.94 152.78 
M 137.06 152.25 137.6 150.42 138.47 148.45 139.57 146.6 140.9 144.89 142.42 143.37 144.12 142.04 145.98 140.94 147.95 140.07 150.02 139.46 152.15 139.1 154.3 139.01 156.45 139.19 158.56 139.63 160.6 140.34 
M 139.29 162.49 138.65 160.63 138.25 158.7 138.08 156.74 138.17 154.78 138.41 153.33 
M 142.76 145.21 144.99 143.32 146.68 142.31 148.48 141.52 150.37 140.96 152.31 140.64 154.27 140.56 156.23 140.72 158.15 141.12 160.01 141.76 
M 140.71 161.89 140.14 160.22 139.77 158.48 139.63 156.71 139.91 153.7 
M 143.72 146.43 145.86 144.59 147.39 143.68 149.01 142.97 150.72 142.46 152.47 142.17 154.24 142.1 156.01 142.25 157.74 142.61 159.42 143.19 
M 142.14 161.3 141.3 158.26 141.17 156.68 141.43 153.9 
M 144.93 147.4 146.73 145.87 148.1 145.05 151.06 143.97 154.21 143.64 155.78 143.77 158.83 144.61 
M 143.56 160.71 142.83 158.03 142.71 156.65 143 153.88 
M 146.27 148.23 147.61 147.14 148.8 146.43 151.41 145.47 154.17 145.18 155.56 145.3 158.24 146.04 
M 144.99 160.12 144.6 158.99 144.25 156.62 144.3 155.42 144.63 153.8 
M 147.54 149.14 149.51 147.8 150.61 147.32 152.94 146.78 155.34 146.82 157.65 147.46 
M 147.03 159.53 146.4 157.12 146.58 154.63 146.84 154.02 
M 149.12 150.61 151.41 149.27 153.87 148.84 156.33 149.22 158.54 150.39 160.25 152.21 161.27 154.48 161.5 156.97 160.91 159.39 159.57 161.49 157.62 163.04 155.26 163.88 152.77 163.9 150.4 163.12 148.42 161.6 147.03 159.53 
M 149.77 150.18 149.41 150.9 
M 147.7 154.33 146.41 156.9 
M 151.38 149.29 150.19 151.67 
M 148.68 154.69 146.76 158.51 
M 152.65 149.05 150.9 152.55 
M 149.63 155.09 147.25 159.85 
M 153.91 148.84 151.61 153.45 
M 150.58 155.5 147.91 160.85 
M 154.99 149.01 152.23 154.51 
M 151.69 155.6 148.61 161.75 
M 156.06 149.18 149.45 162.39 
M 157.01 149.58 150.29 163.03 
M 157.93 150.07 151.26 163.4 
M 158.79 150.66 152.25 163.73 
M 159.55 151.46 153.33 163.9 
M 160.29 152.3 154.49 163.89 
M 160.83 153.51 155.74 163.71 
M 161.31 154.88 157.14 163.21 
M 161.49 156.83 158.89 162.03 
M 95.09 147.65 95.16 147.72 
M 98.32 146.25 102.9 150.84 
M 101.8 145.11 104.55 147.86 
M 105.64 144.32 109.34 148.02 
M 109.62 143.67 113.18 147.23 
M 113.5 142.93 116.28 145.71 
M 116.9 141.69 120.61 145.41 
M 120.2 140.37 123.01 143.18 
M 123.62 139.16 127.08 142.62 
M 127.04 137.95 129.64 140.55 
M 130.4 136.69 134.92 141.21 
M 133.77 135.43 137.65 139.3 
M 137.46 134.49 140.19 137.21 
M 141.17 133.57 145.75 138.15 
M 144.98 132.76 149.31 137.08 
M 148.84 131.98 151.19 134.33 
M 152.67 131.19 156.79 135.31 
M 156.5 130.39 160.47 134.36 
M 160.29 129.55 164.22 133.49 
M 164.02 128.66 166.63 131.26 
M 167.76 127.76 170.1 130.11 
M 171.48 126.85 174.42 129.8 
M 175.24 125.99 179.83 130.58 
M 179.1 125.22 181.48 127.6 
M 183.02 124.51 186.91 128.4 
M 187 123.87 191.28 128.15 
M 191.11 123.35 194.33 126.57 
M 195.28 122.89 199.31 126.92 
M 148.76 133.42 149.27 131.89 
M 127.95 148.4 128.79 148.11 129.88 147.43 133.5 144.57 133.83 143.97 134.19 142.63 
M 186.39 194.07 185.72 196.01 185.12 196.66 
M 133.81 139.82 136.46 136.25 137.13 134.57 
M 164.54 171.86 166.07 174.2 167.4 175.25 
M 189.96 148.54 189.13 147.66 188.42 147.48 187.15 147.6 186.18 146.96 
M 195.02 172.41 194.03 171.25 192.2 170.53 188.83 168.58 
M 122.44 171.01 122.71 171.8 122.69 173.5 122.08 174.72 121.45 175.28 
M 120.67 176.5 120.55 176.82 
M 98.47 147.41 98.88 146.73 99.02 145.95 
M 186.99 129.21 185.03 130.14 182.56 130.35 181.7 130.25 181.18 130.02 
M 205.06 179.13 202.72 179.29 201.33 179.89 197.04 181.32 194.79 181.32 194.04 181.58 
M 183.02 182.08 182.51 181.97 181.02 181.17 179.75 180.93 178.81 181.01 174.32 182.04 173.16 182.56 172.77 182.89 
M 194.15 127.52 196.26 129.92 199.38 131.26 
M 197.84 192.43 196.97 193.04 195.39 193.81 194.32 193.84 192 193.29 191.11 193.38 
M 161.98 192.6 160.23 190.29 158.9 188.95 158.45 188.14 
M 166.11 171.5 165.87 172.29 165.89 173.4 166.24 174.14 167.55 175.27 167.56 175.73 
M 157.82 183.57 157.13 183.76 157.12 183.97 
M 117.77 174.04 117.35 174.85 
M 187.08 173.19 187.25 172.65 187.18 172.08 186.84 171.4 185.73 170.06 182.09 166.97 181.11 166.48 
M 206.26 151.77 206.49 151.22 206.74 151.03 208.55 151.01 
M 115.1 162.2 115.65 162.43 116.23 162.33 117.32 162.61 118.43 162.64 
M 149.56 138.13 150.54 136.61 151.11 135.19 151.12 132.39 
M 184.35 134.79 184.47 133.7 184.19 133.26 181.25 132.33 180.1 131.51 
M 147.07 138.86 147.1 137.74 
M 188.64 144.08 189.26 144.12 190.4 143.77 191.1 143.14 191.18 142.58 
M 169.54 167.73 170.28 167.95 173.32 168.19 174.41 168 
M 202.06 171.82 200.97 172.46 198.89 173.34 197.21 174.8 196.7 175.01 196.19 174.94 194.88 174.23 
M 160.28 182.65 157.26 183.87 157.55 184.73 
M 139.44 168.34 137.16 167.41 136.52 166.65 
M 175.98 156.92 176.97 156.89 178.2 156.57 179.36 156.63 
M 106.41 147.68 108.23 144.88 108.55 143.87 
M 194.15 181.36 191.88 182.52 191.24 182.39 189.51 181.65 188.47 181.42 
M 109.35 150.7 106.14 149.48 105.68 148.72 105.68 147.18 
M 182.96 134.97 182.44 134.26 180.07 133.06 179.49 132.58 177.58 130.41 177.25 129.08 
M 209.61 172.77 207.62 172.29 206.72 172.28 205.55 173.35 204.87 174.73 
M 166.84 131.11 164.31 130.49 162 129.14 
M 109.94 145.74 111.13 143.38 
M 201.4 135.84 200.37 135.25 198.83 133.86 198.67 133.31 198.93 132.37 199.42 131.91 199.97 131.73 
M 158.72 189.53 158.19 188.67 157.87 188.43 157.48 188.38 156.56 188.83 
M 172.37 128.11 172.19 129.38 171.01 131.23 
M 186.51 196.28 186.16 196.7 
M 182.71 196.58 182.43 196.04 
M 195.5 132.66 197.29 131.65 199.03 131.46 199.71 131.64 
M 192.71 168.57 190.1 168.77 188.16 168.22 187.46 167.88 186.86 167.37 185.85 165.93 183.98 164.41 
M 173.23 167.08 174.05 167.18 174.14 167.38 
M 163.93 173.15 167.36 175.55 167.39 176.1 166.81 178.32 
M 154.73 132.05 156.66 131.67 158.34 131.11 158.83 131.23 159.59 131.71 
M 208.61 146.7 208.41 147.32 208.48 147.9 208.8 148.57 209.32 149.01 
M 174.6 176.53 175.05 177.7 175.04 178.28 174.66 179.62 174.11 180.71 172.66 182.47 172.29 183.28 
M 181.71 151.84 182.79 152.29 183.32 152.22 184.89 151.6 185.22 151.29 186.02 149.03 185.98 148.3 185.77 147.94 
M 141.79 134.92 141.36 133.52 
M 176.74 142.38 176.44 140.69 175.74 138.93 175.48 137.62 175.02 136.64 174.66 135.3 
M 114.83 145.86 115.33 146.34 116.1 146.55 
M 204.92 145.89 204.5 146.57 204.13 146.84 203.66 146.98 203.19 146.91 202.12 146.34 199.97 144.59 198.97 144.2 198.48 144.24 
M 195.76 127.61 196.96 129.68 198.05 130.65 199.48 131.31 
M 123.21 162.97 122.94 163.99 123.08 170.49 
M 173.49 175.86 170.3 175.82 168.16 176.1 167.8 176.36 167.29 177.22 166.42 179.71 
M 173.13 129.94 172.09 131.07 171.88 131.54 171.99 131.88 
M 107.06 164.4 107.29 165.39 107.19 165.93 106.47 166.17 105.67 165.93 
M 171.57 163.01 174.41 162.63 175.3 162.08 175.88 161.28 176.74 158.75 
M 128.3 160.57 128.21 161.91 128.43 162.4 128.75 162.55 129.19 162.5 129.86 162 
M 130.06 138.68 134.09 135.95 135.14 135.06 
M 193.29 154.65 192.46 155.02 191.65 155 191.04 154.81 190.72 154.2 
M 163.8 131.28 162.53 130.11 161.29 129.31 
M 207.87 151.92 208.42 151.95 209.07 153.03 
M 185.53 148 185.27 147.75 184.8 147.62 184.07 147.94 182.61 149.59 
M 128.87 167.21 127.65 166.96 127.26 167.09 126.76 167.58 125.83 169.87 125.79 170.4 126.11 171.38 
M 203.24 145.3 202.34 145.09 199.57 143.77 198.74 143.64 197.91 143.99 
M 176.08 160.86 177.06 157.62 177.95 156.78 178.69 156.57 
M 154.11 180.92 156.28 175.98 
M 204.46 152.88 203.24 150.45 202 149.25 200.39 147.27 199 146.22 197.73 145.97 
M 183.92 126.49 182.89 126.42 181.87 126.08 181.09 125.46 181.08 124.84 
M 189.78 133.88 189.78 133.58 
M 204.2 170.49 203.5 170.96 201.9 170.99 199.61 171.68 
M 175.2 162.93 175.76 162.51 176.22 161.85 177.01 157.79 177.51 157.11 
M 123.53 154.58 123.61 156.41 123.42 157.22 122.97 157.77 121.07 158.97 120.92 159.58 120.91 161.03 
M 193.61 141.77 193.6 140.57 194.12 138.67 195.04 136.27 
M 188.73 127.39 186.96 126.67 185.38 125.15 184.17 124.32 
M 208.45 159.46 206.33 156.72 205.06 155.64 204.21 154.54 
M 102.89 148.47 102.99 147.37 103.56 145.45 104.27 144.53 
M 179.58 183.81 178.05 183.56 174.78 183.82 173.87 184.53 173.35 185.43 173.21 186.16 173.39 186.99 
M 173.12 169.02 175.24 169.09 175.89 169.84 
M 187.6 178.91 187.25 178.6 187.13 178.08 187.81 176.13 188.3 173.62 187.94 171.98 187.6 171.27 
M 185.96 153.79 186.02 153.12 187.2 149.25 187.01 148.33 185.87 147.17 
M 100.09 159.12 100.69 159.94 
M 198.97 177.87 197.08 178.59 195.01 178.91 193.15 178.6 191.08 177.83 190.55 177.43 189.57 176.11 188.72 174.13 188.54 173.2 
M 118.53 156.25 118.03 156.67 117.13 156.97 116.55 157.39 116.2 157.97 116.37 158.67 
M 121.7 168.71 122.38 171.68 122.43 172.65 122.18 173.92 121.24 175.07 
M 120.35 176.21 120.18 176.59 
M 107.33 154.12 105.76 153.54 105.46 153.72 104.46 155.12 
M 162.2 182.98 160.23 183.42 157.89 184.43 157.69 184.6 157.64 185.01 
M 130.01 141.43 130.18 140.88 130.53 140.47 134.12 137.83 135.31 136.71 136.2 135.63 136.64 134.69 
M 137.74 146.76 137.28 146.94 
M 206.76 165.91 205.71 165.68 204.64 165.88 204.44 166.13 
M 181.87 191.27 182.22 190.53 182.35 189.58 182.61 189 183.17 188.78 183.88 189.1 
M 157.55 179.76 157.03 178.88 156.83 178.14 156.79 177.3 157.07 176.11 156.87 175.64 
M 208.53 186.31 207.13 185.19 206.38 184.9 
M 126.46 180.72 127.09 181.32 
M 118.38 174.57 118.41 175.07 118.66 174.82 
M 114.47 171.17 114.35 172.2 114.93 171.57 
M 110.61 167.87 110.39 168.27 110.29 169.34 110.73 168.59 111.12 168.35 
M 106.95 164.29 106.4 165.18 106.23 166.48 106.73 165.5 107.56 164.93 
M 103.29 160.76 102.4 162.09 102.17 163.62 102.74 162.41 104.07 161.43 
M 99.49 157.45 98.41 159 98.11 160.76 98.74 159.32 100.28 158.13 
M 95.61 154.27 94.41 155.91 94.05 157.89 94.75 156.23 96.41 154.89 
M 91.95 150.78 90.42 152.82 89.99 155.03 90.76 153.14 92.59 151.62 
M 126.38 180.8 127.3 180.77 
M 121.39 180.42 121.73 180.19 121.9 180.43 
M 116.39 180.24 116.94 179.59 117.11 180.29 
M 111.39 180.27 111.6 179.64 112.14 179 112.06 179.63 112.29 180.25 
M 106.49 180.09 106.69 179.26 107.34 178.4 107.16 179.25 107.42 180.16 
M 101.6 179.88 101.79 178.87 102.54 177.8 102.25 178.86 102.51 179.92 
M 96.7 179.78 96.89 178.49 97.74 177.2 97.35 178.48 97.62 179.8 
M 91.79 179.7 91.99 178.1 92.94 176.6 92.45 178.09 92.74 179.71 
M 86.89 179.52 87.09 177.72 88.15 176 87.55 177.71 87.84 179.55 
M 81.97 179.69 82.18 177.33 83.35 175.41 82.65 177.32 82.97 179.56 
M 88.5 183.63 96.22 185.82 103.18 187.53 110.13 188.99 117.09 190.1 124.13 190.71 131.15 190.89 145.62 190.46 
M 145.62 190.46 145.62 190.46 
M 121.35 190.01 121.56 190.21 121.68 190.1 
M 203.43 127.56 206.99 131.11 
M 202.75 120.7 208.34 126.29 
M 206.84 118.62 215.93 127.71 
M 210.89 116.5 219.39 125 
M 215.09 114.53 221.6 121.04 
M 219.55 112.82 224.75 118.02 
M 224.16 111.26 229.8 116.9 
M 228.91 109.84 235.15 116.08 
M 233.85 108.61 238.83 113.59 
M 238.82 107.41 246.98 115.57 
M 243.71 106.13 251.28 113.7 
M 248.92 105.17 255.28 111.52 
M 254.48 104.55 262.33 112.41 
M 260.53 104.44 269.62 113.53 
M 267.65 105.38 273.4 111.14 
M 275.43 106.99 281.32 112.88 
M 283.93 109.33 292.58 117.97 
M 292.95 112.18 299.47 118.7 
M 303.33 116.38 311.58 124.63 
M 314.48 121.37 321.78 128.66 
M 326.46 127.17 333.52 134.24 
M 339.36 133.9 345.79 140.33 
M 227.48 291.39 225.58 297.7 
M 227.48 291.39 227.99 297.7 
M 232.28 291.39 227.99 297.7 
M 232.28 291.39 230.39 297.7 
M 233.45 293.5 233.99 297.7 
M 237.05 293.5 233.03 298.89 232.25 299.5 231.26 299.8 
M 238.85 293.5 237.58 297.7 
M 238.49 294.7 239.66 293.8 240.35 293.5 241.25 293.5 241.76 293.8 241.79 294.7 240.89 297.7 
M 244.88 291.39 245.08 291.7 245.48 291.39 245.27 291.1 244.88 291.39 
M 244.55 293.5 243.29 297.7 
M 248.15 293.5 247.46 293.8 246.68 294.39 246.11 295.3 245.93 295.89 245.96 296.8 246.38 297.39 246.89 297.7 247.79 297.7 248.48 297.39 249.26 296.8 249.83 295.89 250.01 295.3 249.98 294.39 249.56 293.8 249.05 293.5 248.15 293.5 
M 258.68 294.39 258.26 293.8 257.75 293.5 256.85 293.5 256.15 293.8 255.38 294.39 254.81 295.3 254.63 295.89 254.66 296.8 255.08 297.39 255.58 297.7 256.49 297.7 257.18 297.39 257.96 296.8 
M 260.45 293.5 260.99 297.7 
M 264.05 293.5 260.02 298.89 259.25 299.5 258.26 299.8 
M 269.14 293.5 267.89 297.7 
M 268.88 294.39 268.45 293.8 267.95 293.5 267.05 293.5 266.36 293.8 265.58 294.39 265.01 295.3 264.83 295.89 264.86 296.8 265.27 297.39 265.78 297.7 266.69 297.7 267.38 297.39 268.15 296.8 
M 271.55 293.5 270.28 297.7 
M 271.19 294.7 272.36 293.8 273.05 293.5 273.95 293.5 274.45 293.8 274.49 294.7 273.58 297.7 
M 276.4 295.3 280.01 295.3 280.19 294.7 280.07 294.1 279.34 293.5 278.45 293.5 277.76 293.8 276.97 294.39 276.4 295.3 276.22 295.89 276.26 296.8 276.68 297.39 277.19 297.7 278.08 297.7 278.77 297.39 279.56 296.8 
M 282.64 293.5 281.75 296.5 281.77 297.39 282.28 297.7 283.19 297.7 283.88 297.39 285.04 296.5 
M 285.95 293.5 284.69 297.7 
M 291.08 294.39 290.95 293.8 290.14 293.5 289.25 293.5 288.26 293.8 287.77 294.39 287.89 295 288.4 295.3 289.82 295.6 290.33 295.89 290.36 296.8 289.88 297.39 288.89 297.7 287.99 297.7 287.18 297.39 287.06 296.8 
M 292.66 297.1 292.27 297.39 292.49 297.7 292.88 297.39 292.66 297.1 
"/></svg>
