<svg xmlns="http://www.w3.org/2000/svg" width="520" height="320"><rect x="0" y="0" width="520" height="320" fill="floralwhite"/><rect x="10" y="10" width="500" height="300" stroke="black" stroke-width="1" fill="none"/><path stroke="black" stroke-width="1" fill="none" stroke-linecap="round" stroke-linejoin="round" d="
M 199.07 105.45 215.41 98.08 233.17 89.11 242.31 85.19 251.86 82.41 261.67 80.77 271.61 80.3 281.54 80.78 291.37 82.33 310.55 87.6 319.97 90.79 329 94.97 347.37 102.6 356.35 106.88 365.1 111.6 386.03 123.92 
M 334.29 188.49 331.63 189.7 322.16 192.74 312.44 194.83 302.59 196.22 292.67 196.96 282.72 196.87 272.78 196.59 252.96 194.86 243.04 194.19 233.26 192.35 223.57 190.12 213.97 187.52 204.86 183.52 191.38 176.79 
M 230.08 131.91 233.8 130.83 
M 248.71 127.42 250.65 127.16 254.78 127.15 265.01 127.56 
M 272.43 127.79 282.58 127.75 
M 289.6 128.5 293.3 129.16 
M 296.68 129.55 302.86 129.52 
M 306.17 129.67 314.73 130.29 325.71 131.94 342.5 132.66 
M 346.16 132.69 355.61 133.09 378.49 135.6 
M 382.83 136.19 386.03 136.65 
M 200.01 177.06 200.68 178.72 201.68 181.94 
M 210.72 103.01 208.35 106.36 
M 202.01 116.99 201.53 117.76 
M 205.61 173.8 206.52 176.95 
M 207.51 180.2 209.42 185.52 
M 217.87 105.78 216.73 107.44 214.82 111.13 213.99 113.09 
M 212.24 116.92 211.32 118.78 210.27 120.48 
M 208.12 123.83 205.96 127.12 
M 213.15 173.23 215.45 180.38 
M 216.86 184.19 218.58 188.77 
M 226.11 109.39 224.26 113.04 
M 220.61 120.39 218.6 123.87 
M 216.5 127.23 213.29 132.15 211.89 133.82 
M 223.01 176.91 224.99 182.7 228.16 191.18 
M 242.48 100.29 238.07 106.42 
M 236.02 109.74 234.11 113.25 
M 230.24 120.3 221.62 134.19 
M 234.77 184.07 237.85 192.14 
M 247.42 107.68 244.01 112.24 234.31 127.14 
M 234.61 147.41 234.65 147.61 
M 244.8 182.22 245.22 183.58 
M 262.3 95.8 259.64 103.13 
M 255.98 109.77 254.86 111.25 249.76 116.81 243.99 124.7 
M 242.12 127.61 241.36 128.87 
M 243.01 138.03 243.75 141.82 
M 256.85 189.17 257.78 191.35 259.2 195.42 
M 273.31 82.57 272.64 86.7 
M 269.54 98.18 267.66 103.76 266.23 107.41 265.3 109.05 
M 263.31 112.25 259.89 116.74 251.81 126.31 
M 253.55 140.24 254.2 143.99 
M 265.65 185.7 267 189.29 269.2 196.28 
M 277.65 97.82 273.39 108.51 
M 272 112.24 271.26 114.08 269.48 117.53 267.4 120.75 262.12 127.38 
M 276.29 188.42 278.25 195.55 
M 283.63 96.8 282.79 100.86 
M 281.9 104.91 280.89 108.89 
M 279.73 112.8 278.34 116.54 
M 276.68 120.06 275.77 121.76 272.87 126.41 
M 286.24 188.45 287.28 191.87 288.18 195.87 
M 292.58 95.39 290.05 102.6 
M 288.94 106.41 287.26 112.18 285.99 115.94 283.04 123.24 281.98 125.48 
M 284.13 140.88 284.88 144.41 
M 297.47 189.88 298.61 194.27 
M 299.66 96.9 298.37 102.89 296.85 108.68 
M 295.75 112.5 293.18 119.87 
M 291.9 123.62 289.97 128.53 
M 307.98 190.5 308.25 191.4 
M 308.75 96.12 307.87 100.11 
M 303.91 110.69 301.87 115.95 301.4 117.93 
M 300.57 122.02 298.9 129.63 
M 319.47 93.03 318.67 94.71 318.12 96.63 
M 317.16 100.58 316.27 104.56 
M 313.9 111.88 313.21 113.6 310.07 120.13 308.83 123.75 307.3 129.75 
M 311.4 139.34 312.87 142.94 
M 323.05 111.39 322.6 113.36 321.32 116.91 319.1 121.92 
M 316.69 128.79 316.31 130.46 
M 334.59 107.83 332.28 112.9 330.97 116.47 328.44 123.6 325.91 131.96 
M 328.51 137.21 330.11 140.55 
M 343.74 112.02 341.12 116.87 339.66 120.35 337.83 125.85 
M 336.39 130.03 335.56 132.37 
M 355.45 114.1 353.18 116.92 
M 350.94 119.74 349.83 121.15 347.94 124.26 346.54 127.85 345.95 130.25 
M 363.28 122.77 360.98 125.6 
M 358.57 128.3 357.35 129.63 355.2 133.05 
M 362.74 144.94 364.3 147.2 
M 330.87 128.35 330.3 129.24 330.16 129.9 330.27 131.33 331.05 134.79 330.83 135.74 330.32 136.86 
M 349.42 126.15 349.87 125.12 351.74 122.92 352.36 121.91 353.58 118.91 354.19 118.17 355.56 117.17 356.89 115.5 
M 286.8 121.73 288.95 123.84 289.1 124.34 288.91 124.8 
M 369.54 132.86 369.69 132.29 370.03 131.78 370.84 131.35 371.63 131.56 374.28 133.25 
M 244.79 85.1 244.78 84.48 
M 319.74 119.64 319.74 119.1 320.23 118.49 323.31 116.65 
M 266.06 136.41 266.17 135.95 266.74 135.46 
M 323.83 107.27 326.05 111.25 327.01 112.34 328.01 112.9 
M 227.75 184.69 226.8 183.57 223.9 181.24 221.91 178.91 
M 310.41 190.15 308.17 194.14 
M 353.94 134.18 355.14 135.54 356.04 136.27 356.46 136.42 357.32 136.48 358.55 136.09 358.9 135.47 358.69 134.84 
M 267.73 131.2 270.29 130.07 271.45 129.15 272.83 128.56 273.46 128.14 274.07 127.39 
M 252.49 86.74 252.28 84.78 252.8 82.25 
M 232.98 122.52 234.29 120.88 234.71 119.77 
M 317.19 191.58 318.24 192.51 318.97 192.86 321.88 192.8 
M 233.9 91.05 234.37 91.25 235.96 91.19 236.88 91.38 240.56 92.58 241.84 93.32 
M 284.66 92.76 282.79 92.71 282.01 92.84 280.81 93.36 278.47 96.1 278.13 96.79 278.19 97.3 
M 337.99 140.88 338.41 140.5 338.5 140.06 337.96 139.5 337.62 139.57 337.57 139.92 
M 217.39 105.72 216.74 105.26 216.33 105.22 215.54 105.64 215.21 106.19 
M 255.93 136.05 256.67 136.22 257.27 136.13 259.43 135.22 260.17 135.31 262.25 136.05 263.63 135.96 
M 322.93 116.43 323.71 116.5 325.67 117.51 326.3 117.44 327.04 116.95 
M 202.41 125.55 203.35 125.28 203.8 124.92 204.88 123.48 
M 217.66 96.94 217.64 97.68 217.31 98.48 216.8 98.91 216.14 98.95 
M 218.11 108.43 216.52 107.32 215.67 107.05 
M 294.85 95.61 294.91 96.79 295.15 97.19 296.9 98.19 297.71 98.42 300.08 98.33 
M 318.74 140.18 317.33 141.65 315.47 144.11 315.04 144.41 
M 313.26 144.57 310.14 143.5 309.05 142.66 
M 338.15 100.57 337.65 98.59 
M 331.31 111.21 331.35 110.71 331.84 110.32 332.91 110.28 335.21 110.55 
M 263.32 191.26 262.55 193.24 262.54 193.83 263.28 195.79 
M 212.92 99.03 214.56 98.51 
M 225.62 92.51 217.99 60.48 218.91 60.23 228.81 91.25 
M 238.49 86.26 232.97 44.37 233.91 44.22 241.81 85.38 
M 252.16 81.92 254.43 33.55 255.38 33.57 255.58 81.68 
M 266.37 80 277.67 30.87 278.6 31.06 269.79 80.3 
M 280.71 80.22 301.9 30 302.79 30.34 284.07 81.02 
M 294.8 82.83 319.64 41.16 320.46 41.63 297.98 84.15 
M 308.64 86.49 333.45 52.63 334.23 53.17 311.78 87.93 
M 322.2 91.13 341.64 70.71 342.35 71.33 325.06 93.03 
M 329.62 94.65 330.82 95.88 
M 215.16 98.21 217.14 90.76 217.97 86.96 218.6 83.13 219 79.28 219.16 71.51 218.75 63.69 
M 219.91 63.37 223.84 60.9 225.66 59.55 227.34 58.05 228.85 56.41 231.4 52.68 233.53 48.56 
M 234.71 48.37 239.6 47.24 241.96 46.51 244.23 45.6 246.39 44.49 250.43 41.7 254.21 38.39 
M 255.4 38.42 260.25 39.04 265.03 39.11 267.38 38.81 269.7 38.3 272 37.58 276.54 35.79 
M 277.72 36.03 282.68 37.02 287.61 37.45 290.06 37.34 292.5 37 294.93 36.46 299.78 35.02 
M 300.9 35.46 303.87 38.7 307.15 41.45 308.96 42.54 310.88 43.45 312.91 44.18 317.15 45.33 
M 318.2 45.91 320.28 49.12 321.43 50.57 322.71 51.87 324.13 52.99 327.37 54.73 330.97 56.01 
M 331.96 56.69 332.57 60.79 333.71 64.64 334.57 66.43 335.63 68.11 336.87 69.71 339.69 72.75 
M 340.6 73.54 337.22 77.89 334.37 82.48 333.23 84.92 332.3 87.45 331.56 90.06 330.4 95.45 
M 221.9 62.16 225.66 59.55 227.34 58.05 228.85 56.41 230.2 54.61 232.49 50.65 
M 224.66 68.43 227.54 66.42 228.83 65.28 231.02 62.64 232.78 59.6 
M 227.42 74.69 229.42 73.3 231.13 71.63 233.07 68.55 
M 237.17 47.84 241.96 46.51 244.23 45.6 246.39 44.49 248.46 43.18 252.34 40.08 
M 238.9 54.16 242.85 53.07 246.5 51.4 248.21 50.32 251.41 47.76 
M 240.62 60.49 243.73 59.62 245.21 59.03 247.96 57.46 250.48 55.44 
M 242.35 66.81 245.7 65.74 247.71 64.6 249.55 63.12 
M 257.83 38.77 262.65 39.17 265.03 39.11 267.38 38.81 269.7 38.3 274.27 36.72 
M 258.27 44.7 262.42 45.05 264.46 44.99 268.48 44.3 272.41 42.94 
M 258.71 50.63 262.18 50.93 263.89 50.88 267.25 50.29 270.55 49.16 
M 259.15 56.57 261.94 56.8 263.32 56.76 266.03 56.29 268.68 55.38 
M 259.58 62.5 262.75 62.65 264.8 62.29 266.82 61.6 
M 280.2 36.56 285.15 37.34 287.61 37.45 290.06 37.34 292.5 37 297.36 35.78 
M 279.49 42.73 283.75 43.39 285.87 43.49 290.08 43.1 294.25 42.05 
M 278.79 48.89 282.36 49.45 284.13 49.53 287.65 49.21 291.15 48.33 
M 278.09 55.06 280.96 55.51 282.39 55.57 285.23 55.31 288.04 54.6 
M 277.39 61.22 280.65 61.61 282.8 61.41 284.94 60.88 
M 302.37 37.11 305.46 40.16 307.15 41.45 308.96 42.54 310.88 43.45 315.01 44.79 
M 300.54 43.43 303.2 46.05 304.65 47.16 307.86 48.88 311.41 50.03 
M 298.71 49.75 300.94 51.95 302.15 52.87 304.84 54.31 307.81 55.28 
M 296.88 56.07 298.67 57.84 299.65 58.59 301.82 59.75 304.21 60.53 
M 295.05 62.39 297.15 64.3 298.79 65.18 300.61 65.77 
M 319.21 47.55 321.43 50.57 322.71 51.87 324.13 52.99 325.69 53.94 329.15 55.4 
M 316.41 54.2 318.24 56.7 319.29 57.77 321.75 59.47 324.6 60.68 
M 313.6 60.85 315.04 62.82 315.87 63.66 317.81 65.01 320.05 65.96 
M 310.79 67.51 311.84 68.94 313.13 70.09 315.51 71.24 
M 332.23 58.76 333.05 62.76 333.71 64.64 334.57 66.43 335.63 68.11 338.25 71.25 
M 326.82 69.64 327.35 72.24 328.34 74.63 329.03 75.72 330.73 77.76 
M 202.99 150.16 214.38 149.13 222.8 148.54 225.5 148.51 234.26 147.63 237.13 147.45 239.93 147.52 245.86 146.79 263.83 145.94 269.8 144.81 272.38 144.91 275.07 144.78 277.73 144.3 280.6 144.17 283.59 144.4 286.61 144.9 292.71 144.82 298.8 144.38 303.88 144.56 306.06 144.32 308.72 144.37 311.8 144.74 314.61 144.41 317.58 144.39 320.67 144.98 324.26 145.33 329.89 145.21 334.76 144.48 337.88 144.6 340.96 145 346.61 146.2 352.95 146.12 355.71 146.52 358.83 146.44 361.82 147.27 364.57 147.2 367.35 147.9 372.47 148.47 375.26 148.36 377.91 149.09 380.69 149.22 383.9 149.08 386.44 149.67 389.09 149.78 392.45 149.52 395.38 149.97 398.62 151.35 407.34 153.11 410.22 153.34 413.03 153.19 419.1 154.69 421.35 154.77 424.07 155.22 426.98 155.41 429.48 155.33 432.24 155.88 435.23 156.22 440.76 155.92 443.51 156.48 445.07 157.11 422.1 168.32 416.28 169.69 413.53 170.55 410.99 171.59 407.95 172.16 405.57 173.37 402.84 174.24 397.67 176.26 394.99 177.05 389.47 178.42 383.34 179.17 380.65 179.93 378.15 180.87 375.36 181.52 372.94 182.54 367.34 183.79 364.16 184.03 358.37 185.08 353.05 186.61 348.03 188.28 344.86 188.21 342.02 188.47 335.68 188.33 324.26 189.29 318.65 189.49 316.09 189.79 310.67 190.11 308.21 190.51 305.25 190.41 299.13 189.82 296.66 189.9 290.9 189.28 287.66 188.6 284.77 188.29 282.28 188.35 276.75 187.9 273.9 187.44 270.63 186.57 258.88 184.4 253.71 184.03 245.17 182.31 242.15 181.55 239.63 181.3 236.81 180.75 234.38 180.58 232.01 180.08 209.32 171.68 206.38 169.3 203.63 167.84 200.29 166.45 198.81 165.61 
M 205.53 151.73 220.12 151.21 225.77 151.17 231.37 150.87 234.52 150.95 240.16 150.4 249.38 150.68 252.32 150.51 261.11 150.68 267.12 150.24 269.98 150.6 277.87 150.16 283.52 150.49 286.37 149.95 289.32 149.81 295.45 151.2 298.74 151.18 301.17 151.5 303.78 151.62 306.72 151.42 311.74 151.7 317.62 151.58 324.03 152.25 326.76 152.33 329.87 152.86 332.85 153.61 335.99 153.65 341.7 154.92 343.89 154.77 346.21 155.4 355.31 155.73 358.18 156.41 360.55 157.36 366.19 157.83 369.94 158.63 376.02 159.2 381.36 160.54 384.42 160.82 393.19 162.69 396.25 163.12 398.15 163.96 
M 205.52 153.54 214.5 153.66 217.29 153.84 234.61 154.01 240.44 153.47 249.75 154.6 258.46 155.14 261.59 155.07 267.07 155.68 269.83 155.71 272.56 156.1 280.67 156.08 283.48 156.02 286.23 155.71 288.77 155.78 292.12 156.47 295.29 157.34 298.32 157.63 300.9 158.18 306.98 158.34 312.86 158.82 318.01 160.08 326.98 160.76 329.72 161.33 332.24 162.03 335.53 163.19 340.62 164.41 343.92 164.38 347.35 164.92 
M 201.34 155.08 214.69 156 217.38 156.32 220.2 156.38 226.04 156.96 228.93 156.89 234.58 157.19 240.01 156.97 243.17 157.11 246.45 158.05 252.61 158.93 258.47 159.47 261.21 159.45 267.05 160.43 272.24 160.96 281.02 161.54 283.8 162.12 286.5 162.49 289.69 162.52 294.75 163.84 299.87 164.43 303.17 165.48 306.71 165.9 309.89 166.59 312.31 166.86 314.52 167.5 317.76 168.16 
M 201.04 156.7 208.82 157.71 214.68 158.29 217.31 158.74 228.82 159.99 231.8 159.96 234.46 160.4 240.55 160.58 243.62 161.05 246.47 161.96 249.23 162.61 254.74 163.32 258.01 163.45 261.04 163.77 263.62 164.3 265.93 165.01 268.5 165.26 271.47 166 274.4 166.96 281.23 167.55 283.7 168.54 289.32 169.2 292.13 169.95 294.92 170.49 296.87 171.26 305.23 173.64 312.77 176.93 315.44 177.5 318.14 178.34 321.36 178.76 
M 200.74 158.33 208.84 159.81 211.96 160.03 217.43 161.15 220.11 161.54 223.04 161.73 225.87 162.32 228.71 162.65 232.03 162.84 240.73 164.22 243.79 165.07 248.57 166.9 251.74 167.54 257.5 168.02 263.31 169.38 265.32 170.49 274.74 172.42 282.78 174.62 291.04 178.02 293.47 178.75 296.25 179.08 301.37 180.82 303.96 181.95 309.48 183.91 
M 203.01 160.32 205.84 161.14 208.84 161.77 211.84 162.15 214.64 162.94 220.43 163.88 223.2 164.16 225.99 164.88 229.05 165.3 235.24 166.48 238.08 167.21 240.89 168.38 243.72 169.17 248.41 171.22 251.11 171.87 254.05 172.05 262.13 174.85 265.4 176.16 268.47 176.91 271.41 178.11 276.19 179.64 279.01 180.13 281.56 181.31 287.18 184.53 289.71 185.51 295.37 187.35 298.14 188.71 
M 205.89 162.86 214.43 165.19 223.45 166.81 228.81 168.55 231.87 169.22 237.17 171.41 243.15 173.39 245.36 174.69 
M 199.62 162.83 205.89 164.65 213.97 167.38 217.09 168.24 220.63 168.97 223.6 169.93 225.78 171.01 228.47 172.61 233.76 174.86 242.51 179.33 244.61 180.11 247.14 180.58 249.43 181.5 
M 199.19 164.31 205.92 166.65 208.43 168.07 213.6 170.23 
M 223.66 188.8 250.67 226.2 249.91 226.77 220.94 190.88 
M 221.98 188.54 222.54 189.66 
M 226.8 198.14 247.88 240.05 247.04 240.5 218.95 190.15 
M 220.25 188.31 220.56 189.3 
M 223.25 197.86 241.01 254.3 240.11 254.61 217 189.4 
M 218.48 188.09 218.59 188.87 
M 219.8 197.29 229.95 267.98 229.01 268.13 215.1 188.63 
M 216.26 187.78 216.25 188.45 
M 216.13 194.51 214.4 280 213.45 279.99 212.84 187.75 
M 247.02 223.18 245.42 225.61 244.4 228.12 244.21 229.42 244.24 230.76 244.47 232.12 245.29 234.9 
M 244.23 235.46 241.94 237.7 240.16 240.16 239.57 241.52 239.19 242.97 238.99 244.5 238.94 247.7 
M 237.8 248.09 234.83 249.99 232.31 252.25 231.31 253.57 230.49 255.03 229.83 256.61 228.8 259.99 
M 227.62 260.18 223.95 261.59 222.24 262.43 220.65 263.44 219.2 264.61 216.71 267.47 214.59 270.77 
M 246.18 224.39 244.81 226.85 244.4 228.12 244.21 229.42 244.24 230.76 244.84 233.5 
M 241.84 218.3 240.71 220.33 240.21 222.45 240.24 223.55 240.74 225.82 
M 237.5 212.21 236.61 213.81 236.22 215.48 236.24 216.35 236.63 218.13 
M 233.16 206.12 232.51 207.29 232.22 208.51 232.53 210.45 
M 243.05 236.56 240.96 238.89 240.16 240.16 239.57 241.52 239.19 242.97 238.93 246.09 
M 240.31 231.03 238.46 233.08 237.76 234.2 236.9 236.69 236.67 239.44 
M 237.56 225.49 235.96 227.27 235.35 228.25 234.61 230.4 234.41 232.79 
M 234.82 219.95 233.46 221.46 232.95 222.29 232.31 224.12 232.14 226.14 
M 232.08 214.41 230.54 216.33 230.02 217.83 229.88 219.49 
M 229.34 208.88 228.13 210.38 227.73 211.55 227.62 212.84 
M 236.28 249.02 233.49 251.06 232.31 252.25 231.31 253.57 230.49 255.03 229.29 258.28 
M 234.43 242.98 231.91 244.82 230.85 245.89 229.95 247.08 229.21 248.39 228.13 251.31 
M 232.57 236.93 230.33 238.57 229.39 239.52 227.93 241.75 226.97 244.35 
M 230.71 230.89 228.75 232.33 227.93 233.16 226.65 235.11 225.81 237.38 
M 228.85 224.85 227.18 226.08 226.47 226.79 225.38 228.46 224.65 230.41 
M 226.99 218.81 225.01 220.43 224.1 221.82 223.5 223.44 
M 225.14 212.77 223.55 214.07 222.82 215.18 222.34 216.48 
M 225.76 260.86 222.24 262.43 220.65 263.44 219.2 264.61 217.89 265.96 215.62 269.09 
M 224.88 254.49 221.66 255.93 220.21 256.84 218.89 257.91 217.7 259.15 215.63 262 
M 224 248.12 221.09 249.42 218.58 251.22 217.5 252.33 215.63 254.91 
M 223.11 241.75 220.51 242.91 218.27 244.52 217.31 245.52 215.64 247.82 
M 222.23 235.38 219.94 236.41 217.96 237.82 217.11 238.7 215.64 240.73 
M 221.35 229.01 218.47 230.46 216.92 231.88 215.64 233.64 
M 220.46 222.64 218.79 223.39 217.35 224.43 215.65 226.55 
M 219.58 216.27 217.6 217.27 216.53 218.25 215.65 219.46 
M 352.42 186.83 356.75 191.59 356.11 192.29 350.03 187.64 
M 335.33 188.37 366.96 223.11 366.28 223.76 332.25 190.07 
M 321.28 192.25 352.02 235.88 351.26 236.45 318.53 194.28 
M 307.36 195 330.69 237.45 329.87 237.93 304.4 196.73 
M 293.58 196.2 298.87 208.92 298.02 209.36 290.55 197.79 
M 355.02 191.45 355.79 198.06 357.1 204.5 358.07 207.63 359.26 210.68 360.63 213.68 363.74 219.57 
M 362.87 220.4 359.02 221.91 355.52 223.87 353.97 225.11 352.56 226.52 351.28 228.09 348.95 231.52 
M 347.98 232.23 343.56 231.23 339.17 230.79 336.99 230.9 334.82 231.24 332.66 231.77 328.36 233.21 
M 327.32 233.81 321.7 227.09 315.7 220.79 312.48 217.89 309.1 215.15 305.6 212.56 298.34 207.65 
M 355.36 194.77 356.35 201.31 357.1 204.5 358.07 207.63 359.26 210.68 362.15 216.63 
M 360.92 221.12 357.2 222.82 355.52 223.87 353.97 225.11 352.56 226.52 350.09 229.77 
M 356.13 216.92 352.93 218.37 351.48 219.28 348.94 221.56 346.81 224.36 
M 351.34 212.71 348.66 213.93 347.45 214.69 345.32 216.6 343.54 218.94 
M 346.55 208.5 344.39 209.49 343.41 210.1 341.7 211.64 340.26 213.52 
M 341.75 204.3 339.38 205.51 338.08 206.67 336.99 208.1 
M 345.77 231.69 341.36 230.91 339.17 230.79 336.99 230.9 334.82 231.24 330.51 232.45 
M 341.17 226.49 337.37 225.82 335.49 225.72 331.75 226.1 328.04 227.15 
M 336.56 221.29 333.39 220.73 331.81 220.65 328.68 220.97 325.57 221.84 
M 331.96 216.1 329.4 215.65 328.13 215.58 325.61 215.84 323.11 216.54 
M 327.36 210.9 324.45 210.51 322.54 210.7 320.64 211.23 
M 324.54 230.42 318.77 223.87 315.7 220.79 312.48 217.89 309.1 215.15 301.99 210.07 
M 385.08 123.32 388.23 122.54 393.93 120.3 396.58 118.96 398.97 117.45 401.32 115.59 406.91 112.27 409.5 110.47 411.18 108.67 413.71 107.22 416.05 106.36 417.78 106.24 420.38 105.6 423.17 103.54 426.31 102.34 428 100.59 430.27 98.91 433.5 97.01 434.85 94.79 437.86 94.16 440.68 93.96 441.21 91.85 442.78 89.57 446.94 98.7 445.35 103.92 444.88 106.96 443.56 109.14 443.08 112.11 442.22 114.7 442.75 118.29 442.38 120.75 441.91 126.17 440.27 131.28 439.72 134.27 438.99 137.09 437.53 139.29 436.35 141.76 436.27 145.05 436.57 148.4 436.56 154.45 436.77 156.1 
M 437.94 160.58 438.51 162.24 438.89 164.36 441.03 168.43 442.53 172.03 441.95 173.38 442.16 175.49 442.86 178.95 442.31 184.01 442.41 186.13 442.93 188.48 444.56 192.04 447.13 204.51 445.94 202.95 441.89 200.17 439.31 197.41 436.52 196.37 434.44 195.25 430.93 193 427.47 192.32 421.75 186.91 416.74 181.38 414.12 179.23 411.04 177.92 406.07 174.5 405.09 173.53 
M 391.02 123.16 399.48 119.74 408.05 114.91 411.12 113.43 415.24 110.52 417.77 109.37 
M 388.87 126.83 391.49 125.64 394.13 124.15 397.45 122.74 403.06 121.16 405.42 119.89 409 118.8 415.32 114.9 418.22 113.75 420.89 114.02 422.09 112.98 424.74 112.37 425.92 111.85 427.35 109.6 430.08 107.23 432.54 106.11 436.79 104.8 439.6 103.16 
M 389.12 128.94 392.16 128.17 394.87 126.95 397.79 125.26 401.46 124.34 404.7 124.12 409.78 122.05 413.03 121.14 415.52 119.55 418.61 119.1 421.6 118.28 423.54 117.94 425.85 117.05 
M 392.27 130.64 395.24 129.82 398.19 127.95 401.73 127.01 404.84 126.96 407.54 125.57 413.34 125.81 416.22 124.57 418.56 123.95 421.58 122.78 424.58 120.96 427.04 120.75 
M 392.06 132.84 395.47 132.16 398.69 130.89 401.84 129.98 405.12 129.39 408.39 129.25 411.27 129.41 416.17 128.57 420.81 126.04 423.74 126.17 427.83 124.26 
M 392.16 134.92 395.56 134.39 399.05 133.6 402.06 132.27 405.36 131.64 408.62 132.14 411.43 132.84 413.91 132.76 416.72 131.93 419.53 130.42 
M 385.08 136.1 388.94 137.03 392.37 137.08 399.32 136.37 402.28 135.28 405.11 134.65 408.49 134.22 411.08 134.89 413.54 136.06 416.61 136.28 420.04 135.85 425.88 134.52 
M 388.72 139.1 395.12 139.4 401.49 138.31 404.65 138.03 417.19 139.81 419.92 139.44 
M 385.08 139.75 388.54 141 391.66 141.51 394.53 141.75 398.49 141.76 400.97 141.12 411.93 142.64 414.78 142.06 417.81 142.45 421 142.35 424.13 141.63 426.9 140.68 429.27 140.57 432.28 140.73 435.54 141.32 
M 394.59 144.08 397.92 144.02 407.83 145.11 416.56 145.58 418.3 146.21 421.21 145.72 424.79 143.86 426.85 144.43 429.56 144.79 431.91 143.77 434.33 143.17 
M 385.08 143.4 388.64 144.89 398.44 146.79 404.75 147.68 407.76 148.48 411.49 148.91 414.89 149.54 418.39 149.19 
M 391.78 147.29 394.96 147.97 402.49 150.59 405.46 151 411.5 152.49 414.98 153.14 418.35 153.23 424.81 155.27 
M 431.36 155.71 433.4 155.65 
M 391.86 149.05 393.89 149.75 
M 385.08 148.87 386.76 149.68 
M 431.18 163.89 435.9 163.65 
M 421.01 168.59 423.86 169.35 427.14 169.95 429.76 171.17 432.13 171.51 
M 415.63 169.89 416.83 170.7 420.76 171.63 
M 411.78 171.27 416.17 173.53 419.57 175.7 425.16 177.92 426.82 179.39 429.87 180.51 433.12 180.29 435.67 181.57 
M 407.3 172.49 408.88 173.74 411.71 174.89 418.11 179.18 421.26 180.88 423.01 183.58 425.91 185.11 428.42 186 
M 354.07 105.71 357.96 111.55 378.38 89.91 381.14 90.38 384.75 91.7 387.93 94.4 390.69 97.89 372.47 119.82 369.58 114.22 
M 358.31 107.88 361.49 107.24 364.31 105.68 367.24 104.32 369.03 102.46 374.25 98.64 377.45 95.81 378.78 93.25 
M 362.52 110.08 365.94 109.49 368.51 107.5 370.43 105.63 372.45 103.32 378.34 99.9 
M 366.62 112.49 369.86 112.18 371.86 110.54 373.9 108.15 377.12 105.84 380.76 104.65 383.43 103.13 
M 89.52 123.65 90.31 123.08 93.05 121.94 96.9 121.03 101.81 119.6 107.97 117.42 114.78 115.6 121.15 114.32 128.25 114.28 136.26 113.43 144.56 111.7 153.52 110.52 169.97 107.74 177.88 106.86 185.05 105.82 191.37 105.3 196.35 105.28 199.07 105.43 200.81 109.47 201.74 120.96 202.2 124.81 203.33 128.73 205.41 132.76 205.52 140.37 205.09 144.12 203.74 147.77 201.33 155.11 200.64 158.83 198.63 166.21 195.28 173.45 191.3 176.86 176.02 176.8 164.71 176.12 154.88 174.84 145.8 173.06 137.18 170.91 129.11 168.33 122.42 165.37 116.3 161.4 110.93 157.11 102.11 149.04 
M 101 148.15 97.18 145.25 93.31 141.63 90.51 137.54 88.8 133.77 88.1 130.85 
M 175.88 124.65 175.57 127.88 174.97 130.96 173.59 133.8 171.37 136.4 168.07 140.79 167.63 142.86 167.39 145.06 167.68 147.67 168.91 153.08 168.08 156.18 157.83 156.79 150.11 157.06 143 156.96 135.88 156.32 128.74 155.18 121.85 153.44 116.1 151.02 
M 100.93 148.06 93.15 137.39 85.77 127.81 84.99 125.56 86.13 123.55 88.47 122.99 90.52 124.3 94.91 132.93 97.92 139.51 102.55 148.8 
M 102.04 149.43 97.42 148.56 87.89 147.31 75.74 145.36 73.6 144.17 72.86 141.98 74 139.99 76.21 139.63 85.74 142.59 102.27 148.59 
M 135.1 130.4 133.43 128.06 132.61 125.3 132.73 122.42 133.77 119.73 135.63 117.54 138.11 116.06 140.93 115.47 143.79 115.83 146.38 117.09 148.42 119.13 149.68 121.72 150.04 124.58 149.45 127.4 147.97 129.87 145.77 131.73 143.09 132.78 140.21 132.9 137.45 132.08 135.1 130.4 
M 146.99 120.15 148 122.22 148.29 124.5 147.82 126.76 146.64 128.74 144.88 130.23 142.73 131.07 140.43 131.16 138.22 130.51 136.34 129.17 
M 138.1 125.98 137.43 125.04 137.1 123.93 137.15 122.78 137.57 121.71 138.32 120.83 139.31 120.24 140.43 120 141.58 120.15 142.61 120.65 143.43 121.47 143.93 122.5 144.08 123.65 143.84 124.77 143.25 125.76 142.37 126.51 141.3 126.93 140.15 126.98 139.04 126.65 138.1 125.98 
M 137.39 124.69 139.47 126.78 
M 137.98 122.71 141.94 126.68 
M 140.89 123.06 143.38 125.55 
M 141 120.6 144.07 123.67 
M 88.29 131.64 89.75 133.1 
M 90.9 122.83 94.63 126.56 
M 95.21 121.43 99.05 125.27 
M 99.7 120.22 103.99 124.5 
M 104.01 118.82 109.22 124.03 
M 108.25 117.35 112.39 121.49 
M 112.75 116.14 117.31 120.71 
M 117.39 115.08 122.3 119.99 
M 122.34 114.32 127.9 119.88 
M 128.01 114.28 132.37 118.64 
M 133.19 113.75 136.47 117.04 
M 138.17 113.03 140.67 115.52 
M 142.89 112.04 148.1 117.25 
M 147.82 111.27 152.6 116.04 
M 152.87 110.61 156.09 113.83 
M 157.8 109.83 161.96 113.98 
M 162.71 109.03 166.25 112.58 
M 167.55 108.17 172.44 113.06 
M 172.55 107.45 177.1 112 
M 177.68 106.88 182.31 111.51 
M 182.67 106.17 188.02 111.52 
M 187.81 105.59 193.31 111.1 
M 193.21 105.29 197.97 110.05 
M 199.06 105.43 199.07 105.44 
M 145.21 140.48 146.57 139.09 150.42 137.07 151.85 136.83 152.43 137.15 152.69 137.56 
M 172.03 154.21 169.9 155.11 168.36 154.42 167.04 154.48 
M 131.66 139.46 132.85 138.78 133.92 137.88 134.92 137.85 
M 116.6 130.75 113.56 135.31 112.93 135.77 112.44 135.86 
M 178.78 133.32 181.65 132.36 183.86 131.94 188.33 129.7 
M 151.57 164.72 151.71 164.24 151.5 163.25 148.73 159.38 147.18 156.7 
M 199.05 150.75 202.56 151.52 
M 194.94 173.73 194.39 170.51 193.45 167.16 193.41 166.16 193.77 163.79 195.15 160.97 
M 179.31 169.81 177.67 167.62 177.15 167.11 176.9 167.07 
M 171.31 121.29 173.91 123.95 174.96 124.73 175.54 124.88 176.02 124.71 176.98 123.64 
M 137.98 171.11 137.2 168.81 136.39 167.22 135.94 166.74 134.19 166.21 
M 130.04 116.87 128.35 118.15 127.21 118.73 125.27 119.4 121.95 119.95 
M 166.26 169.29 165.01 172.27 164.13 176.05 
M 198.86 165.43 198.24 164.09 198.26 163.44 198.88 162.4 199.95 161.56 
M 121.98 129.91 122.22 130.23 122.47 130.25 124.67 128.71 
M 158.28 120.8 159.05 119.89 161.48 118.89 164.64 116.71 
M 127.2 122.61 125.76 122.91 124.16 122.93 123.09 123.21 122.71 123.76 122.33 125.44 122.3 126.69 
M 177.08 159.7 176.4 160.71 175.61 162.41 175.48 163.07 175.8 164.37 177.35 166.94 
M 157.63 114.67 161.95 115 164.72 114.08 167.34 112.84 168.32 112.15 
M 189.26 129.72 192.53 127.8 192.94 127.4 193.68 125.72 193.73 123.79 
M 120.65 127.29 120.92 129.15 121.35 130.15 122.04 130.86 122.36 130.78 122.62 130.47 
M 184.94 138.14 184.56 137.39 184.66 136.98 186.88 134.09 188.57 132.61 
M 189.18 126.69 189.52 125.36 189.09 121.63 188.59 120.1 187.62 118.41 
M 193.83 151.54 192.39 149.43 191.34 148.4 186.95 145.92 185.06 145.21 184.16 145.25 183.88 145.55 183.5 146.69 
M 150.12 119.37 150.78 118.27 151.71 117.31 154.26 116.38 
M 142.86 113.85 143 112.02 
M 132.75 125.78 131.76 124.83 130.89 124.26 130.08 123.96 125.32 123.27 123.86 123.33 123.3 123.5 122.98 123.76 
M 133.02 164.15 131.4 164.58 128.9 164.16 125.17 162.38 124.16 162.05 
M 186.13 135.03 186.9 134.07 189.21 132.14 192.56 131.04 
M 145.06 147.21 146.33 146.59 147.97 145.18 149.3 144.46 150 144.29 151.12 144.43 
M 109.64 155.82 110.56 154.6 110.59 154.25 109.93 153.19 107.58 150.91 
M 191.5 126.33 191.83 125.31 191.85 123.77 192.39 120.86 192.25 119.72 191.74 118.47 190.4 116.2 189.82 115.44 188.4 114.66 
M 163.42 117.78 168.74 114.15 169.37 113.08 
M 122.29 141.53 122.04 143.17 122.16 143.78 
M 146.81 155.44 146.87 153.89 147.42 151.88 147.02 148.62 147.27 147.63 
M 124.43 125.1 123.52 126.05 123.43 126.51 123.71 126.76 
M 171.05 159.92 170.49 163.21 170.86 164.51 171.42 165.23 171.81 165.46 174.68 166.18 
M 109.3 149.9 108.74 148.9 108.72 148.33 109.09 147.36 109.44 147.08 111.4 146.25 113.07 145.97 
M 176.19 151.99 175.46 151.01 173.85 149.91 171.07 149.03 
M 178.12 145.37 177.14 147.18 176.56 147.84 176.06 148.11 174.88 148.06 172.03 147.3 
M 142.42 142.57 143.34 141.97 145.69 139.24 146.42 138.65 150.62 136.5 151.16 136.36 152.08 136.44 
M 109.61 126.05 108.35 125.78 106.19 124.36 105.49 123.24 103.75 118.91 
M 175.63 165.39 176.86 166.84 176.85 167.08 
M 150.82 130.2 152.33 131.09 154.73 133.82 155.09 134.38 155.32 135.17 155.22 136.44 
M 163.39 138.71 163.26 137.55 163.49 135.7 
M 191.65 117.32 190.51 115.26 189.57 114.47 187.39 113.44 186.71 113.62 186.27 114.08 
M 197.44 144.77 198.6 144.61 199.53 144.97 200.46 145.58 202.27 147.5 203.54 148.4 
M 168.83 159.87 168.2 160.91 167.74 161.03 167.12 160.79 165.81 159.49 164.58 157.42 
M 99.58 127.75 95.2 125.24 94.14 124.43 93.15 123.43 92.47 122.18 
M 173.82 120.05 174.36 120.94 174.98 121.51 175.78 121.91 176.03 121.76 
M 197.84 168.01 197.13 166.61 196.8 165.57 
M 192.11 155.43 191.1 152.74 189.23 149.01 188.64 148.14 187.87 147.47 186.92 146.92 185.45 146.51 184.87 146.61 184.04 147.4 
M 181.8 166.41 181.51 164.74 180.84 163.9 180.55 163.79 180.04 164.02 179.69 164.43 179.46 165.1 
M 149.61 155.28 149.26 154.63 148.94 152.33 147.39 149.19 147.33 148.38 147.57 147.61 
M 128.42 120.88 125.96 120.43 123.04 120.48 122.1 120.74 122.09 121.14 
M 129.21 126.5 128.75 125.83 127.34 124.56 126.92 124.23 125.82 123.84 124.62 123.74 123.5 123.94 122.93 124.57 122.62 125.44 
M 144.1 162.12 143.53 159.34 143.55 158.62 144.66 153.95 145.24 150.6 
M 203.19 147 203.87 147.41 
M 151.76 172.49 153.11 170.41 155.15 167.86 155.69 166.8 156.14 164.92 155.9 163.89 154.76 162.56 153.89 161.87 151.89 160.83 
M 169.33 159.9 169.05 161.12 168.61 161.72 168.27 161.82 167.44 161.66 166.06 160.42 164.21 157.31 
M 147.92 134.62 148.06 133.29 147.02 131.94 146.69 130.95 
M 163.27 135.64 163.24 135.69 
M 141.44 171.97 140.27 170.87 139.05 168.89 138.24 167.23 137.48 166.27 136.57 165.83 135.29 165.71 133.99 165.8 
M 136.89 160.99 136.19 161.27 131.79 164.07 130.99 164.22 130.15 164.18 128.54 163.77 125.91 162.6 
M 131.77 126.16 130.32 124.99 126.32 123.57 124.89 123.42 123.56 123.56 123.13 123.79 122.75 124.52 
M 179.78 135.59 185.8 134.12 189 131.72 
M 194.74 131.49 195.2 130.85 195.82 130.32 198.57 128.75 200 127.59 200.68 127.17 202.68 126.46 
M 127.67 123.65 124.88 123.31 123.51 123.46 123.09 123.68 122.48 125.27 122.37 126.86 
M 169.42 107.84 169.89 108.24 170.25 109.27 170.18 109.54 169.65 109.74 
M 153.87 130.99 155.67 133.16 156.16 134.09 156.08 135.66 155.73 136.33 
M 126.59 117.51 125.65 117.75 123.53 118.78 121.54 119.36 121.18 119.69 
M 124.07 132.86 124.18 132.21 124.82 131.15 126.67 128.91 127.16 127.31 127.07 125.79 
M 156.09 167.66 156.4 166.83 156.6 165.12 156.35 164.12 156.01 163.59 154.6 162.22 153.67 161.56 151.58 160.58 150.67 159.99 149.59 158.77 
M 145.32 116.57 146.28 114.08 146.59 111.43 
M 157.83 125.8 160.43 124.87 161.92 124.06 164.09 123.72 165.33 123.15 
M 138.93 113.37 138.28 113.01 
M 193.43 135.12 194.39 133.53 196.76 131.15 198.53 129.7 200.38 127.58 201.78 126.95 
M 98.94 155.41 96.76 160.62 95.82 163.27 94.1 168.65 92.72 174.11 92.2 176.82 92.06 179.5 92.46 182.13 93.41 184.63 94.84 186.91 96.7 188.9 98.86 190.65 103.51 193.97 105.69 195.9 107.68 198.02 109.46 200.31 111 202.76 112.33 205.33 114.31 210.72 118.99 227.2 113.83 210.88 111.69 205.63 110.3 203.18 108.72 200.85 106.92 198.69 104.93 196.72 102.77 194.94 98.02 191.8 95.68 190.04 93.57 187.92 91.88 185.43 90.7 182.63 90.13 179.64 90.17 176.61 90.62 173.7 91.84 168.04 93.39 162.49 94.26 159.72 96.29 154.33 
M 99 155.37 98.62 156.16 
M 97.7 158.31 97.26 160.27 97.29 162.87 97.77 165.51 99.51 170.76 104 181.18 105.32 183.62 108.52 188.21 112.24 192.45 116.33 196.29 118.63 197.88 121.09 199.22 123.7 200.22 126.43 200.82 129.24 201.11 132.07 201.15 137.74 200.77 143.35 199.76 148.88 198.35 143.37 199.86 137.79 201.08 132.09 201.66 129.22 201.72 126.33 201.52 123.48 201.01 120.72 200.06 118.11 198.76 115.66 197.19 111.3 193.38 107.34 189.18 105.51 186.92 103.84 184.53 102.36 182 97.44 171.62 96.33 168.92 95.2 165.17 
M 95.11 157.41 95.94 155.25 
M 96.33 154.35 96.41 154.17 
M 99.01 155.04 98.92 155.33 
M 98.71 155.96 97.27 161.07 
M 96.18 168.48 96.16 171.35 96.52 174.03 97.29 176.63 98.36 179.16 99.68 181.55 101.35 183.72 103.29 185.67 106.74 188.44 
M 112.05 192.24 116.96 195.88 120.73 199.02 
M 122.83 200.78 132.56 208.36 136.57 212.44 140.27 216.78 136.49 212.51 132.36 208.59 120.6 200 
M 110.89 192.97 106.87 190.33 102.21 186.9 100.06 184.88 98.17 182.58 96.63 180.04 95.38 177.35 94.44 174.51 93.93 171.54 93.86 169.57 
M 96.12 154.79 96.29 154.2 
M 102.02 149.08 102.35 149.62 
M 98.69 145.04 98.53 145.83 99.21 145.73 
M 95.94 141.35 95.52 141.87 95.21 142.85 95.81 142.36 96.56 142.21 
M 93.33 137.63 92.42 138.52 91.88 139.88 92.71 139.01 94.03 138.59 
M 90.55 134.11 89.32 135.18 88.56 136.9 89.62 135.67 91.3 135.03 
M 87.86 130.51 86.23 131.83 85.23 133.92 86.52 132.32 88.55 131.47 
M 85.4 126.73 83.13 128.48 81.91 130.95 83.42 128.97 85.84 127.89 
M 102.19 148.89 102.78 149.04 
M 97.45 146.75 98.02 146.49 98.05 146.96 
M 93.07 145.15 93.34 144.75 94.19 144.17 93.89 144.89 93.95 145.48 
M 88.76 143.63 89.22 142.75 90.35 141.84 89.77 142.89 89.76 143.98 
M 84.46 142.17 85.09 140.76 86.52 139.52 85.65 140.9 85.53 142.52 
M 80.12 140.86 80.97 138.76 82.68 137.2 81.53 138.9 81.29 141.2 
M 75.73 139.7 76.85 136.77 78.85 134.88 77.4 136.91 77.02 139.9 
M 81.8 146.35 88.69 150.67 93.18 153 97.73 155.04 106.89 158.41 116.3 161.4 
M 199.92 107.4 208.77 116.24 
M 203.58 103.45 214.08 113.95 
M 208.83 101.09 218.42 110.68 
M 214.08 98.73 223.14 107.79 
M 219.15 96.2 227.67 104.71 
M 224.2 93.63 230.67 100.1 
M 229.22 91.04 238.98 100.8 
M 234.33 88.54 243.66 97.87 
M 239.6 86.2 249.71 96.31 
M 245.15 84.14 255.83 94.82 
M 251.19 82.57 262.23 93.61 
M 257.59 81.36 265.85 89.62 
M 264.42 80.59 275.3 91.46 
M 271.75 80.3 278.41 86.96 
M 279.67 80.61 288.75 89.69 
M 288.47 81.8 296.28 89.61 
M 298.6 84.33 306.99 92.71 
M 309.08 87.19 319.41 97.53 
M 320.49 91 328.55 99.06 
M 334.41 97.31 343.91 106.8 
M 347.26 102.54 354.07 109.35 
M 362.24 109.91 372.09 119.77 
M 380.73 120.8 386.96 127.02 
M 272.85 127.98 272.5 127.45 272.61 126.51 273.08 126.09 273.43 126.61 273.31 127.55 272.85 127.98 
M 273.17 126.34 273.18 126.97 272.57 127.7 271.95 127.8 271.94 127.17 272.55 126.44 273.17 126.34 
M 279.98 115.36 280.6 115.49 281.16 116.26 281.12 116.88 280.5 116.75 279.94 115.98 279.98 115.36 
M 280.41 115.41 280.71 115.96 280.52 116.89 280.02 117.27 279.71 116.72 279.91 115.79 280.41 115.41 
M 266.69 127.32 266.18 127.69 265.24 127.6 264.8 127.14 265.31 126.78 266.26 126.87 266.69 127.32 
M 266.25 126.71 265.97 127.27 265.1 127.65 264.5 127.45 264.77 126.89 265.65 126.52 266.25 126.71 
M 278.33 109.06 278.78 108.62 279.73 108.57 280.23 108.95 279.78 109.39 278.83 109.45 278.33 109.06 
M 279.23 109.73 279.08 109.12 279.51 108.27 280.1 108.04 280.24 108.65 279.81 109.5 279.23 109.73 
M 270.28 109.4 269.96 109.94 269.06 110.25 268.48 110.02 268.79 109.47 269.69 109.16 270.28 109.4 
M 269.54 109 269.59 109.63 269.02 110.39 268.41 110.53 268.36 109.9 268.93 109.14 269.54 109 
M 263.38 114.19 263.01 114.7 262.08 114.92 261.53 114.63 261.89 114.12 262.82 113.89 263.38 114.19 
M 261.74 114.27 262.36 114.19 263.15 114.72 263.32 115.33 262.7 115.41 261.91 114.88 261.74 114.27 
M 275.29 135.99 275.88 136.23 276.31 137.07 276.17 137.68 275.58 137.45 275.15 136.61 275.29 135.99 
M 276.17 137.41 275.66 137.05 275.42 136.13 275.7 135.57 276.21 135.93 276.45 136.85 276.17 137.41 
M 286.5 108.72 287.12 108.64 287.92 109.17 288.08 109.78 287.46 109.86 286.67 109.33 286.5 108.72 
M 287.35 108.53 287.49 109.14 287.05 109.98 286.46 110.21 286.32 109.59 286.77 108.76 287.35 108.53 
M 276.88 102.82 277.47 102.61 278.36 102.95 278.66 103.5 278.07 103.72 277.18 103.38 276.88 102.82 
M 277.26 102.65 277.82 102.94 278.17 103.82 277.97 104.42 277.41 104.13 277.05 103.25 277.26 102.65 
M 282.64 104.75 282.57 104.13 283.1 103.34 283.7 103.17 283.78 103.8 283.25 104.59 282.64 104.75 
M 283.77 103.55 283.38 104.05 282.45 104.24 281.9 103.94 282.29 103.44 283.22 103.24 283.77 103.55 
M 270.24 104.25 270.31 103.62 271.01 102.98 271.64 102.97 271.57 103.59 270.86 104.23 270.24 104.25 
M 270.22 103.48 270.85 103.4 271.64 103.92 271.82 104.52 271.19 104.61 270.4 104.09 270.22 103.48 
M 280.46 98.62 279.87 98.41 279.41 97.57 279.54 96.96 280.13 97.18 280.59 98.01 280.46 98.62 
M 280.72 97.91 280.09 98 279.29 97.48 279.12 96.88 279.74 96.79 280.54 97.31 280.72 97.91 
M 262.47 107.69 261.84 107.65 261.16 107 261.1 106.37 261.73 106.4 262.41 107.06 262.47 107.69 
M 261.25 107.52 261.56 106.97 262.46 106.66 263.05 106.89 262.73 107.43 261.84 107.75 261.25 107.52 
M 264.49 100.47 264.85 100.99 264.74 101.93 264.27 102.36 263.92 101.84 264.03 100.89 264.49 100.47 
M 265.03 101.09 264.58 101.53 263.63 101.58 263.13 101.2 263.58 100.76 264.53 100.71 265.03 101.09 
M 289.36 102.44 289.71 102.96 289.6 103.9 289.13 104.32 288.78 103.8 288.89 102.86 289.36 102.44 
M 288.54 103.2 289.17 103.16 289.92 103.75 290.05 104.36 289.42 104.4 288.67 103.81 288.54 103.2 
M 288.07 94.64 288.32 94.06 289.18 93.65 289.79 93.82 289.53 94.4 288.68 94.81 288.07 94.64 
M 288.35 94.67 288.71 94.15 289.63 93.92 290.2 94.2 289.84 94.72 288.92 94.95 288.35 94.67 
M 272.67 96.77 273.02 97.3 272.89 98.24 272.42 98.66 272.07 98.13 272.2 97.19 272.67 96.77 
M 273.23 97.48 272.72 97.86 271.78 97.78 271.33 97.33 271.84 96.96 272.79 97.03 273.23 97.48 
M 265.51 96.45 265.17 95.92 265.31 94.97 265.79 94.57 266.13 95.1 265.98 96.04 265.51 96.45 
M 264.97 95.76 265.46 95.37 266.41 95.41 266.87 95.84 266.38 96.23 265.43 96.2 264.97 95.76 
M 272.44 93.06 272.51 92.43 273.21 91.78 273.83 91.76 273.77 92.39 273.07 93.04 272.44 93.06 
M 273 91.7 273.3 92.25 273.1 93.18 272.59 93.56 272.29 93 272.5 92.08 273 91.7 
M 256.56 93.79 256.83 94.36 256.56 95.27 256.04 95.62 255.77 95.05 256.03 94.13 256.56 93.79 
M 256.96 94.41 256.49 94.83 255.54 94.84 255.06 94.43 255.53 94.02 256.48 94 256.96 94.41 
M 267.27 85.63 267.27 85 267.9 84.28 268.52 84.2 268.52 84.83 267.89 85.54 267.27 85.63 
M 267.81 85.63 267.69 85.01 268.17 84.19 268.76 83.99 268.88 84.6 268.4 85.43 267.81 85.63 
M 262.47 85.93 261.89 85.7 261.46 84.85 261.61 84.24 262.19 84.47 262.63 85.32 262.47 85.93 
M 262.63 85.5 262.03 85.31 261.54 84.5 261.64 83.88 262.24 84.07 262.74 84.88 262.63 85.5 
M 263.73 142.73 263.55 142.13 263.93 141.26 264.5 140.99 264.68 141.59 264.3 142.46 263.73 142.73 
M 264.8 141.62 264.3 142 263.35 141.93 262.9 141.49 263.4 141.11 264.35 141.17 264.8 141.62 
M 251.73 128.5 252.31 128.25 253.22 128.52 253.55 129.06 252.98 129.31 252.07 129.03 251.73 128.5 
M 253.05 128.18 252.87 128.78 252.07 129.29 251.45 129.2 251.63 128.6 252.43 128.09 253.05 128.18 
M 264.02 121.43 263.8 122.02 262.96 122.47 262.35 122.34 262.57 121.75 263.4 121.29 264.02 121.43 
M 262.46 121.89 263.06 121.69 263.93 122.06 264.21 122.62 263.62 122.82 262.74 122.45 262.46 121.89 
M 255.5 122.44 256.13 122.42 256.87 123.02 256.98 123.64 256.36 123.66 255.61 123.06 255.5 122.44 
M 256.09 123.75 256.03 123.12 256.58 122.35 257.19 122.19 257.25 122.82 256.7 123.6 256.09 123.75 
M 284.17 88.91 284.52 88.39 285.44 88.14 286.01 88.42 285.65 88.94 284.74 89.18 284.17 88.91 
M 285.71 89.04 285.1 88.89 284.54 88.11 284.61 87.49 285.22 87.64 285.77 88.41 285.71 89.04 
M 277.86 88.73 278.24 88.23 279.18 88.05 279.72 88.36 279.34 88.85 278.41 89.04 277.86 88.73 
M 279.48 88.75 278.85 88.76 278.13 88.15 278.03 87.53 278.66 87.52 279.38 88.13 279.48 88.75 
M 289.13 124.12 288.75 124.62 287.82 124.81 287.27 124.51 287.65 124.01 288.58 123.81 289.13 124.12 
M 288.91 124.47 288.28 124.52 287.51 123.97 287.37 123.35 288 123.3 288.77 123.86 288.91 124.47 
M 291.87 87.54 292.27 87.05 293.2 86.88 293.74 87.2 293.35 87.69 292.41 87.86 291.87 87.54 
M 292.49 88.02 292.58 87.4 293.3 86.78 293.93 86.78 293.84 87.41 293.12 88.02 292.49 88.02 
M 291.88 98.96 292.3 98.49 293.24 98.37 293.77 98.71 293.35 99.18 292.4 99.3 291.88 98.96 
M 292.94 99.55 292.65 98.99 292.88 98.07 293.4 97.7 293.68 98.26 293.45 99.19 292.94 99.55 
M 299.47 92.91 300.04 92.63 300.96 92.87 301.31 93.39 300.75 93.67 299.83 93.43 299.47 92.91 
M 300.94 93.62 300.36 93.38 299.94 92.53 300.1 91.92 300.68 92.16 301.1 93.01 300.94 93.62 
M 248.97 95.8 249.59 95.88 250.22 96.6 250.22 97.23 249.6 97.14 248.97 96.43 248.97 95.8 
M 249.28 95.86 249.71 96.32 249.75 97.27 249.36 97.76 248.93 97.3 248.89 96.35 249.28 95.86 
M 252.18 102.91 252.2 102.28 252.84 101.57 253.46 101.5 253.45 102.13 252.81 102.83 252.18 102.91 
M 252.77 101.48 253 102.06 252.7 102.96 252.15 103.28 251.92 102.7 252.22 101.8 252.77 101.48 
M 250.92 89.87 251.49 90.14 251.88 91.01 251.7 91.61 251.13 91.34 250.74 90.48 250.92 89.87 
M 251.13 91.44 251.1 90.81 251.68 90.06 252.3 89.94 252.33 90.57 251.74 91.32 251.13 91.44 
M 275.76 112.66 275.28 113.07 274.33 113.07 273.86 112.66 274.33 112.25 275.28 112.25 275.76 112.66 
M 275.53 112.71 274.92 112.86 274.07 112.43 273.83 111.85 274.44 111.69 275.29 112.12 275.53 112.71 
M 268.98 139.93 268.99 139.3 269.62 138.59 270.24 138.51 270.24 139.14 269.6 139.85 268.98 139.93 
M 268.89 139.3 269.47 139.04 270.38 139.32 270.71 139.86 270.13 140.11 269.22 139.83 268.89 139.3 
M 247.77 81.8 248.37 81.99 248.87 82.81 248.76 83.43 248.16 83.23 247.67 82.42 247.77 81.8 
M 248.23 81.89 248.45 82.48 248.12 83.37 247.57 83.68 247.35 83.09 247.68 82.2 248.23 81.89 
M 241.37 85.8 241.99 85.88 242.62 86.59 242.63 87.22 242.01 87.14 241.37 86.43 241.37 85.8 
M 242.51 86 242.22 86.56 241.34 86.91 240.74 86.7 241.03 86.14 241.92 85.79 242.51 86 
M 255.83 84.37 255.36 83.95 255.24 83.01 255.59 82.48 256.06 82.9 256.18 83.85 255.83 84.37 
M 255.08 83.07 255.7 83.2 256.27 83.96 256.22 84.59 255.61 84.45 255.04 83.69 255.08 83.07 
M 241.68 93.02 242.2 92.67 243.15 92.78 243.57 93.25 243.05 93.6 242.1 93.49 241.68 93.02 
M 242.02 93.54 242.42 93.04 243.35 92.87 243.89 93.19 243.5 93.68 242.56 93.85 242.02 93.54 
M 255.76 76.22 256.22 75.79 257.17 75.74 257.66 76.12 257.21 76.56 256.26 76.61 255.76 76.22 
M 256.63 76.89 256.51 76.27 256.99 75.45 257.58 75.24 257.7 75.86 257.22 76.69 256.63 76.89 
M 263.76 80.38 263.62 79.76 264.07 78.93 264.66 78.71 264.8 79.32 264.35 80.16 263.76 80.38 
M 264.81 79.14 264.42 79.63 263.48 79.8 262.94 79.49 263.33 78.99 264.27 78.82 264.81 79.14 
M 250.98 72.52 251.6 72.42 252.41 72.92 252.6 73.52 251.98 73.62 251.17 73.12 250.98 72.52 
M 251.93 72.31 252 72.93 251.47 73.72 250.86 73.88 250.79 73.26 251.32 72.47 251.93 72.31 
M 256.51 106.66 256.38 107.27 255.63 107.85 255 107.81 255.13 107.19 255.89 106.62 256.51 106.66 
M 255.66 106.51 255.93 107.08 255.68 108 255.16 108.35 254.88 107.78 255.13 106.87 255.66 106.51 
M 267.71 115.33 267.47 115.91 266.61 116.34 266.01 116.18 266.25 115.6 267.1 115.18 267.71 115.33 
M 267.44 116.18 266.85 115.98 266.36 115.16 266.48 114.55 267.07 114.75 267.56 115.57 267.44 116.18 
M 240.65 75.98 240.15 76.35 239.2 76.29 238.76 75.84 239.26 75.46 240.21 75.53 240.65 75.98 
M 239.53 75.21 239.86 75.74 239.71 76.68 239.23 77.08 238.9 76.55 239.05 75.61 239.53 75.21 
M 296.25 106.26 296.76 105.9 297.71 106.01 298.14 106.47 297.62 106.83 296.67 106.72 296.25 106.26 
M 297.84 106.05 297.39 106.48 296.44 106.53 295.94 106.14 296.4 105.7 297.35 105.66 297.84 106.05 
M 253.34 141.94 253.62 141.38 254.5 141.01 255.1 141.21 254.81 141.77 253.93 142.14 253.34 141.94 
M 254.56 142.21 254.11 141.77 254.03 140.83 254.4 140.32 254.85 140.76 254.93 141.71 254.56 142.21 
M 246.97 141.3 246.35 141.25 245.68 140.57 245.65 139.94 246.27 139.99 246.94 140.67 246.97 141.3 
M 245.73 141.05 246.1 140.54 247.02 140.32 247.58 140.61 247.21 141.12 246.29 141.34 245.73 141.05 
M 244.67 68.52 244.07 68.71 243.2 68.34 242.92 67.77 243.52 67.58 244.39 67.95 244.67 68.52 
M 244.38 68.57 243.78 68.37 243.3 67.55 243.41 66.94 244.01 67.13 244.49 67.95 244.38 68.57 
M 255.61 68.3 255.04 68.05 254.63 67.18 254.81 66.58 255.38 66.84 255.78 67.7 255.61 68.3 
M 254.57 67.1 255.19 67.21 255.78 67.95 255.76 68.58 255.14 68.47 254.55 67.73 254.57 67.1 
M 250.69 66.08 250.28 66.57 249.34 66.72 248.81 66.39 249.21 65.91 250.15 65.75 250.69 66.08 
M 249.3 65.67 249.82 66.02 250.07 66.94 249.79 67.51 249.27 67.15 249.02 66.23 249.3 65.67 
M 284.27 137.81 284.05 138.4 283.21 138.86 282.6 138.72 282.82 138.13 283.66 137.68 284.27 137.81 
M 282.71 138.33 283.29 138.09 284.2 138.39 284.52 138.93 283.94 139.17 283.04 138.87 282.71 138.33 
M 279.43 142.75 279.84 143.22 279.81 144.21 
M 279.07 144.24 279.02 143.22 279.43 142.75 
M 278.82 143.3 279.43 143.47 279.91 144.2 
M 278.95 144.24 278.74 143.92 278.82 143.3 
M 302.06 100.04 301.68 100.55 300.75 100.75 300.2 100.45 300.58 99.94 301.51 99.74 302.06 100.04 
M 301.66 100.73 301.09 100.47 300.7 99.61 300.87 99 301.44 99.26 301.84 100.13 301.66 100.73 
M 305.67 102.93 306.12 103.37 306.18 104.32 305.81 104.83 305.36 104.38 305.29 103.43 305.67 102.93 
M 306.46 103.96 305.84 104.08 305.02 103.61 304.81 103.01 305.43 102.89 306.25 103.37 306.46 103.96 
M 298.18 113.46 298.14 112.83 298.71 112.07 299.33 111.94 299.37 112.57 298.8 113.33 298.18 113.46 
M 298.04 112.57 298.67 112.49 299.46 113.01 299.63 113.62 299.01 113.7 298.21 113.18 298.04 112.57 
M 293.06 127.43 293.69 127.41 294.44 128 294.55 128.62 293.92 128.64 293.18 128.05 293.06 127.43 
M 293.87 128.75 293.63 128.17 293.92 127.26 294.46 126.94 294.7 127.51 294.41 128.42 293.87 128.75 
M 288.87 133.82 289.2 133.29 290.11 133.01 290.69 133.27 290.35 133.8 289.44 134.08 288.87 133.82 
M 289.48 132.88 289.9 133.35 289.91 134.31 289.51 134.79 289.09 134.32 289.08 133.36 289.48 132.88 
M 245.92 106.39 246.51 106.6 246.98 107.43 246.86 108.05 246.27 107.84 245.8 107.01 245.92 106.39 
M 247.05 107.51 246.43 107.45 245.78 106.75 245.76 106.12 246.38 106.19 247.03 106.88 247.05 107.51 
M 244.17 99.03 244.78 99.19 245.31 99.97 245.24 100.6 244.63 100.44 244.1 99.65 244.17 99.03 
M 244.01 99.61 244.64 99.59 245.37 100.2 245.48 100.82 244.85 100.83 244.12 100.23 244.01 99.61 
M 241.26 105.54 241.86 105.35 242.73 105.73 243.01 106.29 242.41 106.48 241.54 106.11 241.26 105.54 
M 242.86 105.98 242.24 106.12 241.41 105.66 241.18 105.08 241.8 104.94 242.63 105.39 242.86 105.98 
M 239.9 142.63 239.5 143.12 238.56 143.27 238.02 142.95 238.43 142.46 239.36 142.3 239.9 142.63 
M 238.63 143.43 238.74 142.81 239.47 142.21 240.1 142.23 239.99 142.85 239.26 143.45 238.63 143.43 
M 263.75 70.86 263.36 71.36 262.43 71.54 261.88 71.23 262.27 70.73 263.2 70.55 263.75 70.86 
M 262.29 71.54 262.59 70.99 263.48 70.66 264.07 70.88 263.77 71.43 262.88 71.76 262.29 71.54 
M 244.87 74.65 245.5 74.73 246.13 75.44 246.14 76.07 245.51 75.99 244.88 75.28 244.87 74.65 
M 245.18 74.71 245.62 75.16 245.68 76.11 245.3 76.61 244.86 76.16 244.8 75.22 245.18 74.71 
M 234.3 80.69 234.49 80.09 235.31 79.61 235.93 79.72 235.73 80.31 234.92 80.8 234.3 80.69 
M 235.84 80.13 235.26 80.38 234.35 80.09 234.02 79.56 234.6 79.31 235.51 79.6 235.84 80.13 
M 236.04 71.79 235.51 71.46 235.23 70.55 235.48 69.97 236.02 70.31 236.3 71.22 236.04 71.79 
M 235.39 70.26 235.86 70.68 235.99 71.62 235.65 72.15 235.17 71.73 235.05 70.79 235.39 70.26 
M 306.27 108.9 306.82 108.6 307.75 108.82 308.12 109.32 307.57 109.62 306.64 109.41 306.27 108.9 
M 307.32 109.82 307.03 109.27 307.24 108.34 307.75 107.97 308.05 108.53 307.83 109.45 307.32 109.82 
M 298.42 121.42 297.95 121 297.84 120.06 298.19 119.53 298.66 119.96 298.77 120.9 298.42 121.42 
M 297.98 119.83 298.42 120.28 298.47 121.23 298.09 121.73 297.65 121.28 297.6 120.33 297.98 119.83 
M 240 113.54 239.38 113.45 238.76 112.73 238.76 112.11 239.38 112.2 240 112.92 240 113.54 
M 239.08 112.17 239.5 112.63 239.52 113.58 239.12 114.07 238.7 113.6 238.68 112.65 239.08 112.17 
M 237.37 102.23 236.9 102.64 235.95 102.65 235.47 102.24 235.94 101.83 236.89 101.82 237.37 102.23 
M 236.47 102.96 236.24 102.37 236.55 101.48 237.1 101.16 237.33 101.75 237.01 102.65 236.47 102.96 
M 311.06 99.3 311.63 99.56 312.03 100.42 311.85 101.02 311.28 100.76 310.88 99.9 311.06 99.3 
M 311.1 100.79 311.23 100.17 311.99 99.6 312.62 99.65 312.48 100.26 311.72 100.83 311.1 100.79 
M 315.34 109.08 315.76 109.55 315.78 110.5 315.38 110.98 314.95 110.52 314.94 109.56 315.34 109.08 
M 314.65 109.88 315.28 109.82 316.05 110.37 316.2 110.98 315.57 111.04 314.8 110.49 314.65 109.88 
M 309.96 94.43 309.34 94.57 308.5 94.12 308.28 93.54 308.89 93.4 309.73 93.84 309.96 94.43 
M 308.55 94.43 308.9 93.91 309.82 93.66 310.39 93.94 310.03 94.46 309.12 94.71 308.55 94.43 
M 290.38 142.05 290.98 141.86 291.85 142.25 292.12 142.82 291.52 143 290.65 142.62 290.38 142.05 
M 290.88 143.06 291.02 142.44 291.79 141.88 292.42 141.93 292.27 142.55 291.5 143.11 290.88 143.06 
M 298.88 137.09 299.46 137.32 299.91 138.16 299.77 138.77 299.18 138.54 298.74 137.71 298.88 137.09 
M 299.95 138.29 299.34 138.16 298.77 137.4 298.81 136.77 299.43 136.9 300 137.67 299.95 138.29 
M 234.29 107.68 234.15 108.29 233.37 108.85 232.75 108.79 232.89 108.18 233.67 107.62 234.29 107.68 
M 233.74 107.54 233.74 108.17 233.12 108.9 232.5 108.99 232.5 108.36 233.11 107.64 233.74 107.54 
M 237.13 64.35 236.94 63.75 237.32 62.88 237.89 62.61 238.08 63.21 237.69 64.08 237.13 64.35 
M 237.3 64.18 237.29 63.55 237.9 62.82 238.52 62.72 238.53 63.35 237.92 64.08 237.3 64.18 
M 245.39 61.43 245.22 62.04 244.43 62.57 243.81 62.49 243.97 61.88 244.76 61.35 245.39 61.43 
M 244.79 62.66 244.45 62.13 244.57 61.19 245.04 60.77 245.39 61.3 245.26 62.24 244.79 62.66 
M 224.49 145.14 224.99 144.76 225.94 144.81 226.39 145.25 225.89 145.63 224.94 145.58 224.49 145.14 
M 225.03 145.79 225.21 145.19 226.02 144.69 226.64 144.78 226.45 145.38 225.65 145.89 225.03 145.79 
M 231.93 142.35 231.59 142.87 230.67 143.13 230.1 142.87 230.44 142.34 231.36 142.08 231.93 142.35 
M 231.62 142.2 231.23 142.7 230.29 142.87 229.75 142.56 230.14 142.06 231.07 141.89 231.62 142.2 
M 306.69 131.51 306.75 132.13 306.21 132.91 305.6 133.07 305.53 132.44 306.08 131.66 306.69 131.51 
M 306.86 132.21 306.29 132.46 305.38 132.19 305.04 131.65 305.62 131.4 306.53 131.68 306.86 132.21 
M 311.52 125.95 311.45 125.32 311.99 124.54 312.59 124.38 312.67 125 312.13 125.79 311.52 125.95 
M 312.77 125.03 312.21 125.33 311.29 125.11 310.92 124.6 311.47 124.31 312.4 124.53 312.77 125.03 
M 222.15 137.27 221.98 136.67 222.39 135.81 222.97 135.56 223.14 136.16 222.73 137.02 222.15 137.27 
M 221.84 136.54 222.4 136.25 223.33 136.47 223.69 136.98 223.13 137.27 222.21 137.05 221.84 136.54 
M 281.5 80.85 281.61 81.47 281.12 82.29 280.53 82.49 280.42 81.87 280.91 81.05 281.5 80.85 
M 281.73 81.78 281.11 81.88 280.3 81.37 280.12 80.77 280.74 80.68 281.55 81.18 281.73 81.78 
M 275.07 83.27 274.44 83.31 273.68 82.75 273.54 82.13 274.17 82.09 274.94 82.65 275.07 83.27 
M 273.78 83.2 274.09 82.65 274.98 82.32 275.57 82.54 275.26 83.09 274.37 83.42 273.78 83.2 
M 309.32 115.61 308.94 115.11 309 114.16 309.44 113.71 309.82 114.21 309.76 115.16 309.32 115.61 
M 309.48 115.38 309.21 114.81 309.46 113.89 309.98 113.54 310.25 114.11 310 115.03 309.48 115.38 
M 232.02 75.05 231.46 75.35 230.54 75.14 230.16 74.63 230.72 74.33 231.65 74.55 232.02 75.05 
M 230.37 74.88 230.95 74.66 231.85 74.98 232.16 75.53 231.57 75.75 230.68 75.43 230.37 74.88 
M 234.6 84.49 234.39 85.08 233.56 85.55 232.94 85.43 233.15 84.84 233.98 84.37 234.6 84.49 
M 233.51 84.28 233.91 84.78 233.87 85.73 233.43 86.18 233.04 85.69 233.08 84.74 233.51 84.28 
M 292.03 80.41 291.45 80.65 290.55 80.35 290.23 79.81 290.81 79.57 291.71 79.87 292.03 80.41 
M 291.82 80.33 291.19 80.33 290.47 79.71 290.38 79.08 291.01 79.08 291.73 79.71 291.82 80.33 
M 218.05 147.4 218.56 147.03 219.51 147.1 219.95 147.54 219.45 147.92 218.5 147.85 218.05 147.4 
M 218.99 146.75 219.19 147.34 218.83 148.22 218.27 148.51 218.07 147.91 218.43 147.03 218.99 146.75 
M 211.57 144.07 211.91 143.54 212.82 143.27 213.39 143.54 213.05 144.07 212.14 144.33 211.57 144.07 
M 212.37 143.09 212.65 143.65 212.41 144.57 211.9 144.93 211.61 144.37 211.85 143.45 212.37 143.09 
M 207.35 143.25 207.06 143.81 206.18 144.16 205.58 143.96 205.87 143.4 206.75 143.05 207.35 143.25 
M 206 144.16 206.24 143.58 207.09 143.15 207.7 143.31 207.46 143.89 206.6 144.31 206 144.16 
M 207.7 134.62 207.91 135.22 207.55 136.1 206.99 136.39 206.78 135.79 207.14 134.91 207.7 134.62 
M 206.88 134.95 207.41 135.29 207.68 136.2 207.42 136.77 206.89 136.43 206.62 135.52 206.88 134.95 
M 230.56 95.53 231.17 95.4 232 95.87 232.22 96.46 231.6 96.59 230.77 96.12 230.56 95.53 
M 230.73 96.3 231.19 95.87 232.14 95.85 232.63 96.25 232.17 96.67 231.22 96.7 230.73 96.3 
M 226.28 99.24 226.72 99.69 226.78 100.64 226.4 101.14 225.96 100.69 225.9 99.74 226.28 99.24 
M 225.83 99.67 226.39 99.96 226.73 100.85 226.52 101.44 225.97 101.15 225.62 100.26 225.83 99.67 
M 236.18 90.45 236.52 90.98 236.4 91.92 235.93 92.34 235.58 91.81 235.71 90.87 236.18 90.45 
M 236.72 91.1 236.24 91.52 235.29 91.53 234.81 91.12 235.29 90.7 236.24 90.7 236.72 91.1 
M 237.91 119.84 237.98 120.47 237.45 121.25 236.85 121.42 236.77 120.8 237.3 120.01 237.91 119.84 
M 236.72 120.33 237.34 120.4 237.98 121.11 237.99 121.74 237.37 121.66 236.73 120.96 236.72 120.33 
M 225.73 88.59 226.03 89.14 225.83 90.07 225.33 90.45 225.03 89.9 225.23 88.97 225.73 88.59 
M 225.35 90.22 225.32 89.6 225.89 88.84 226.51 88.71 226.55 89.34 225.97 90.1 225.35 90.22 
M 226.68 77.26 226.19 77.65 225.24 77.62 224.77 77.19 225.26 76.8 226.21 76.83 226.68 77.26 
M 226.44 77.32 225.82 77.43 225.01 76.94 224.81 76.35 225.43 76.24 226.25 76.72 226.44 77.32 
M 224.66 85.42 224.23 84.96 224.2 84.01 224.6 83.52 225.03 83.98 225.05 84.93 224.66 85.42 
M 224.86 85.16 224.49 84.65 224.57 83.7 225.02 83.26 225.39 83.77 225.31 84.72 224.86 85.16 
M 299.78 83.63 300.19 84.1 300.2 85.05 299.79 85.53 299.38 85.06 299.37 84.11 299.78 83.63 
M 300.38 84.17 300 84.67 299.07 84.86 298.52 84.55 298.9 84.05 299.83 83.86 300.38 84.17 
M 307.89 87.72 307.31 87.47 306.9 86.61 307.07 86 307.64 86.26 308.05 87.11 307.89 87.72 
M 308.19 86.97 307.57 87.07 306.76 86.57 306.58 85.97 307.2 85.87 308.01 86.37 308.19 86.97 
M 298.48 134.08 297.85 134.05 297.17 133.39 297.11 132.76 297.74 132.79 298.43 133.45 298.48 134.08 
M 298.2 132.82 298.03 133.42 297.23 133.94 296.6 133.85 296.78 133.25 297.58 132.73 298.2 132.82 
M 290.03 72.51 289.62 72.04 289.62 71.09 290.03 70.61 290.44 71.09 290.44 72.04 290.03 72.51 
M 289.36 71.28 289.99 71.34 290.65 72.02 290.69 72.65 290.06 72.59 289.4 71.91 289.36 71.28 
M 302.39 79.1 301.91 78.7 301.76 77.76 302.09 77.22 302.57 77.63 302.72 78.57 302.39 79.1 
M 302.25 77.44 302.43 78.04 302.04 78.91 301.47 79.17 301.29 78.57 301.68 77.7 302.25 77.44 
M 295.48 77.04 295.39 76.42 295.9 75.62 296.5 75.44 296.59 76.06 296.08 76.86 295.48 77.04 
M 296.52 76.74 295.95 76.47 295.57 75.59 295.76 74.99 296.32 75.26 296.71 76.14 296.52 76.74 
M 283.1 75.73 283.64 75.4 284.58 75.55 284.98 76.04 284.44 76.37 283.51 76.21 283.1 75.73 
M 284.37 76.53 283.93 76.08 283.86 75.13 284.24 74.63 284.68 75.07 284.75 76.02 284.37 76.53 
M 267.31 74.12 267.93 74.21 268.56 74.92 268.56 75.55 267.94 75.46 267.31 74.75 267.31 74.12 
M 267.54 75.44 267.71 74.83 268.5 74.31 269.12 74.39 268.95 74.99 268.16 75.52 267.54 75.44 
M 245.82 125.5 246.45 125.41 247.25 125.92 247.42 126.53 246.8 126.62 246 126.1 245.82 125.5 
M 246.38 126.7 246.4 126.07 247.04 125.37 247.67 125.29 247.65 125.92 247.01 126.62 246.38 126.7 
M 247.44 55.03 247.83 55.52 247.78 56.47 247.34 56.93 246.96 56.43 247.01 55.48 247.44 55.03 
M 246.8 56.39 247.18 55.89 248.11 55.7 248.66 56.01 248.28 56.51 247.34 56.7 246.8 56.39 
M 237.74 54.17 237.13 54.34 236.27 53.94 236.01 53.37 236.62 53.19 237.48 53.6 237.74 54.17 
M 236.38 53.24 236.93 53.55 237.25 54.44 237.02 55.03 236.48 54.72 236.15 53.83 236.38 53.24 
M 255.37 60.48 255.25 61.1 254.5 61.68 253.87 61.65 253.99 61.03 254.74 60.45 255.37 60.48 
M 255.18 61.53 254.59 61.29 254.17 60.44 254.32 59.83 254.9 60.07 255.33 60.92 255.18 61.53 
M 291.42 189.34 291.63 189.72 291.42 190.65 290.92 191.03 290.62 190.48 290.82 189.55 291.14 189.31 
M 290.45 190.36 290.94 189.97 291.89 190 292.35 190.42 291.86 190.82 290.91 190.79 290.45 190.36 
M 227.7 108.94 227.18 109.29 226.24 109.17 225.82 108.7 226.34 108.35 227.28 108.47 227.7 108.94 
M 227.11 108.19 226.99 108.8 226.24 109.39 225.61 109.36 225.73 108.75 226.48 108.16 227.11 108.19 
M 221.62 106.01 221.48 106.63 220.7 107.18 220.08 107.13 220.22 106.52 220.99 105.96 221.62 106.01 
M 220.52 105.92 220.96 106.37 221.03 107.32 220.65 107.82 220.2 107.38 220.14 106.43 220.52 105.92 
M 218.22 91.33 218.79 91.08 219.7 91.35 220.04 91.88 219.46 92.14 218.55 91.87 218.22 91.33 
M 218.55 91.18 219.14 91.38 219.62 92.2 219.5 92.82 218.91 92.62 218.43 91.8 218.55 91.18 
M 216.45 101.39 215.83 101.5 215.01 101 214.82 100.4 215.44 100.3 216.25 100.79 216.45 101.39 
M 215.93 100.23 215.86 100.86 215.16 101.51 214.53 101.53 214.6 100.9 215.3 100.26 215.93 100.23 
M 244.02 52.32 243.39 52.37 242.63 51.8 242.49 51.19 243.12 51.14 243.89 51.71 244.02 52.32 
M 242.7 52.21 243.04 51.69 243.95 51.43 244.53 51.69 244.18 52.22 243.27 52.48 242.7 52.21 
M 300.19 142.81 300.69 143.19 300.88 144.13 300.69 144.45 
M 300.26 144.44 300.07 144.29 299.88 143.36 300.19 142.81 
M 299.82 143.28 300.41 143.51 300.82 144.46 
M 299.95 144.42 299.67 143.89 299.82 143.28 
M 308.02 143.6 308.45 143.14 309.39 143.04 309.91 143.4 309.48 143.86 308.53 143.96 308.02 143.6 
M 309.62 143.81 308.99 143.73 308.36 143.02 308.35 142.39 308.97 142.47 309.61 143.18 309.62 143.81 
M 214.85 109.8 214.86 109.17 215.5 108.46 216.12 108.39 216.11 109.01 215.48 109.72 214.85 109.8 
M 216.11 109.46 215.5 109.32 214.94 108.55 214.99 107.93 215.6 108.07 216.16 108.84 216.11 109.46 
M 220.88 100.1 221.44 99.81 222.36 100.02 222.74 100.52 222.18 100.82 221.25 100.61 220.88 100.1 
M 221.81 101.04 221.62 100.44 221.99 99.56 222.55 99.29 222.75 99.88 222.38 100.76 221.81 101.04 
M 208.35 107.63 208.96 107.48 209.8 107.91 210.04 108.5 209.43 108.64 208.58 108.21 208.35 107.63 
M 209.26 108.78 209.02 108.2 209.3 107.3 209.84 106.97 210.09 107.55 209.8 108.45 209.26 108.78 
M 205.05 102.79 205.2 103.28 204.81 104.14 204.24 104.41 204.06 103.81 204.38 103.09 
M 204.89 104.22 204.5 103.73 204.52 103.03 
M 205.27 102.7 205.32 103.76 204.89 104.22 
M 262.79 62.46 262.48 63.01 261.58 63.33 260.99 63.1 261.3 62.55 262.2 62.23 262.79 62.46 
M 261.34 62.31 261.92 62.55 262.34 63.41 262.17 64.02 261.59 63.77 261.18 62.91 261.34 62.31 
M 204.32 113.73 204.83 114.09 205.07 115.01 204.79 115.58 204.27 115.22 204.04 114.3 204.32 113.73 
M 204.19 114.03 204.66 114.45 204.77 115.39 204.42 115.92 203.96 115.5 203.84 114.55 204.19 114.03 
M 219.91 125.39 219.29 125.49 218.48 125 218.28 124.4 218.91 124.29 219.72 124.79 219.91 125.39 
M 219.67 125.33 219.08 125.12 218.61 124.29 218.73 123.68 219.33 123.89 219.8 124.71 219.67 125.33 
M 224.1 116.9 223.73 117.4 222.81 117.62 222.25 117.32 222.62 116.82 223.55 116.6 224.1 116.9 
M 223.53 117.74 223.07 117.31 222.98 116.36 223.34 115.85 223.8 116.28 223.89 117.23 223.53 117.74 
M 218.86 70.03 218.85 70.02 
M 218.76 68.46 218.78 68.44 
M 219.23 68.31 219.46 68.67 219.33 69.61 218.86 70.03 
M 219.68 69.29 219.05 69.3 218.8 69.09 
M 219.17 68.33 219.58 68.66 219.68 69.29 
M 229.73 66.31 229.69 66.93 229.03 67.61 228.4 67.66 228.44 67.04 229.11 66.36 229.73 66.31 
M 229.53 66.43 229.29 67.01 228.45 67.44 227.84 67.29 228.07 66.71 228.92 66.28 229.53 66.43 
M 263.77 56.22 263.19 55.99 262.74 55.15 262.88 54.54 263.47 54.76 263.91 55.6 263.77 56.22 
M 263.77 54.8 263.55 55.39 262.73 55.86 262.11 55.74 262.32 55.15 263.15 54.68 263.77 54.8 
M 267.61 58.93 267.76 59.54 267.32 60.38 266.73 60.61 266.59 60 267.03 59.16 267.61 58.93 
M 267.88 59.6 267.34 59.93 266.4 59.76 266.01 59.27 266.55 58.95 267.48 59.12 267.88 59.6 
M 270.26 67 269.75 66.63 269.54 65.7 269.84 65.14 270.35 65.52 270.56 66.44 270.26 67 
M 269.35 65.88 269.98 65.85 270.73 66.44 270.85 67.06 270.22 67.09 269.47 66.5 269.35 65.88 
M 275.33 74.78 274.73 74.61 274.2 73.82 274.28 73.2 274.89 73.37 275.41 74.16 275.33 74.78 
M 275.35 74.47 274.77 74.22 274.37 73.35 274.54 72.75 275.12 73.01 275.52 73.87 275.35 74.47 
M 274.76 69 274.72 68.38 275.29 67.62 275.91 67.49 275.95 68.11 275.37 68.87 274.76 69 
M 275.95 67.87 275.54 68.35 274.59 68.47 274.07 68.13 274.49 67.65 275.43 67.53 275.95 67.87 
M 219.67 75.67 219.14 75.74 
M 219.1 74.79 219.5 75.06 219.67 75.67 
M 219.08 74.28 219.46 74.01 219.74 74.57 219.51 75.5 219.14 75.75 
M 231.44 60.56 231.41 61.19 230.74 61.87 230.12 61.92 230.15 61.3 230.82 60.61 231.44 60.56 
M 230.8 60.52 230.97 61.12 230.57 61.99 230 62.24 229.83 61.64 230.23 60.78 230.8 60.52 
M 209.35 129.32 208.72 129.27 208.05 128.6 208 127.97 208.63 128.02 209.3 128.69 209.35 129.32 
M 208.64 129.37 208.48 128.76 208.89 127.91 209.47 127.65 209.63 128.26 209.22 129.12 208.64 129.37 
M 250.88 191.46 250.3 191.23 249.86 190.39 250 189.78 250.58 190.01 251.03 190.85 250.88 191.46 
M 249.76 190.87 250.26 190.48 251.21 190.52 251.66 190.96 251.17 191.35 250.22 191.31 249.76 190.87 
M 241.59 181.92 241.64 182.55 241.07 183.31 240.46 183.45 240.41 182.82 240.98 182.06 241.59 181.92 
M 240.63 182.08 241.12 182.48 241.28 183.42 240.95 183.95 240.47 183.56 240.31 182.62 240.63 182.08 
M 320.33 107.53 320.42 106.91 321.13 106.28 321.76 106.28 321.68 106.9 320.96 107.53 320.33 107.53 
M 321.35 107.56 320.93 107.1 320.9 106.15 321.3 105.66 321.73 106.13 321.75 107.08 321.35 107.56 
M 323.59 124.03 324.15 124.32 324.49 125.21 324.28 125.8 323.72 125.51 323.38 124.62 323.59 124.03 
M 324.25 125.57 323.81 125.11 323.77 124.16 324.17 123.67 324.6 124.12 324.64 125.07 324.25 125.57 
M 317.7 122.36 317.84 121.74 318.61 121.18 319.24 121.24 319.1 121.85 318.33 122.41 317.7 122.36 
M 318.02 122.37 318.24 121.78 319.08 121.32 319.69 121.46 319.47 122.05 318.63 122.5 318.02 122.37 
M 256.8 49.76 256.48 50.3 255.57 50.6 254.99 50.36 255.31 49.81 256.22 49.51 256.8 49.76 
M 255.23 49.77 255.86 49.83 256.51 50.52 256.54 51.15 255.91 51.09 255.26 50.4 255.23 49.77 
M 251.71 47.19 251.21 46.81 251.05 45.93 
M 251.56 45.49 251.84 45.72 252.02 46.65 251.71 47.19 
M 252.24 46.38 251.62 46.47 250.93 46.03 
M 251.59 45.47 252.07 45.78 252.24 46.38 
M 234.4 180.86 234.68 180.61 
M 236.17 180.71 236.3 180.82 235.84 181.24 234.88 181.26 234.4 180.86 
M 235.29 181.56 235.15 180.95 235.31 180.65 
M 236.21 180.71 235.88 181.33 235.29 181.56 
M 238.42 125 238.92 125.39 239.11 126.32 238.8 126.87 238.3 126.48 238.11 125.55 238.42 125 
M 237.89 125.97 238.48 125.75 239.37 126.08 239.67 126.63 239.08 126.85 238.19 126.52 237.89 125.97 
M 255.69 55.12 256.02 55.66 255.86 56.6 255.38 57 255.05 56.46 255.2 55.52 255.69 55.12 
M 254.81 56.03 255.42 55.86 256.27 56.28 256.52 56.86 255.91 57.02 255.06 56.6 254.81 56.03 
M 219.16 182.11 219.78 181.98 220.61 182.44 220.83 183.03 220.22 183.16 219.38 182.7 219.16 182.11 
M 220.59 182.99 219.99 182.8 219.49 181.99 219.59 181.37 220.19 181.56 220.69 182.37 220.59 182.99 
M 315.87 104.1 315.71 103.49 316.13 102.63 316.71 102.39 316.87 103 316.45 103.85 315.87 104.1 
M 315.57 103.33 316.14 103.07 317.05 103.33 317.4 103.86 316.83 104.12 315.91 103.86 315.57 103.33 
M 316.66 141.12 316.05 140.96 315.52 140.17 315.59 139.54 316.2 139.71 316.74 140.49 316.66 141.12 
M 315.4 140.3 316.01 140.13 316.87 140.54 317.12 141.12 316.52 141.29 315.66 140.88 315.4 140.3 
M 263.29 48.57 263.64 49.1 263.52 50.04 263.05 50.46 262.7 49.94 262.82 48.99 263.29 48.57 
M 263.83 49.81 263.2 49.74 262.55 49.05 262.53 48.42 263.15 48.48 263.81 49.18 263.83 49.81 
M 258.29 45.82 257.96 45.28 258.13 44.34 258.62 43.94 258.94 44.49 258.78 45.42 258.29 45.82 
M 259.18 44.82 258.6 45.06 257.69 44.76 257.37 44.23 257.95 43.98 258.85 44.28 259.18 44.82 
M 315.18 133.57 315.47 134.12 315.26 135.05 314.76 135.42 314.46 134.87 314.67 133.94 315.18 133.57 
M 314.69 133.82 315.1 134.3 315.08 135.26 314.66 135.73 314.26 135.24 314.27 134.29 314.69 133.82 
M 203 170.91 202.42 171.16 201.52 170.87 201.19 170.33 201.77 170.08 202.68 170.38 203 170.91 
M 202.75 170.94 202.12 170.85 201.51 170.12 201.51 169.5 202.14 169.59 202.75 170.31 202.75 170.94 
M 319 129.11 318.78 128.52 319.12 127.63 319.67 127.33 319.89 127.92 319.55 128.81 319 129.11 
M 318.66 127.96 319.29 128 319.97 128.66 320.02 129.29 319.39 129.25 318.71 128.58 318.66 127.96 
M 274.57 60.77 274.68 60.15 275.42 59.55 276.05 59.57 275.94 60.19 275.2 60.79 274.57 60.77 
M 274.68 59.82 275.29 59.94 275.88 60.69 275.84 61.32 275.23 61.2 274.64 60.45 274.68 59.82 
M 257.71 102.26 258.14 101.81 259.09 101.73 259.6 102.1 259.16 102.55 258.22 102.63 257.71 102.26 
M 258.61 101.46 258.84 102.05 258.52 102.94 257.97 103.25 257.74 102.66 258.06 101.77 258.61 101.46 
M 274.6 54 274.1 53.62 273.9 52.69 274.2 52.14 274.71 52.51 274.91 53.44 274.6 54 
M 273.78 52.7 274.39 52.84 274.96 53.61 274.91 54.23 274.29 54.09 273.73 53.33 273.78 52.7 
M 271.14 46.53 271.26 45.91 272 45.31 272.62 45.33 272.51 45.95 271.77 46.55 271.14 46.53 
M 271.17 46.04 271.73 45.76 272.65 46 273.01 46.52 272.44 46.8 271.52 46.56 271.17 46.04 
M 283.77 47.13 284.36 47.34 284.82 48.18 284.69 48.79 284.1 48.58 283.64 47.74 283.77 47.13 
M 283.56 47.68 284.19 47.74 284.85 48.42 284.89 49.04 284.26 48.99 283.6 48.31 283.56 47.68 
M 283.7 60.07 283.09 60.22 282.25 59.78 282.01 59.2 282.62 59.05 283.47 59.49 283.7 60.07 
M 282.14 59.59 282.75 59.44 283.59 59.87 283.83 60.45 283.22 60.6 282.37 60.17 282.14 59.59 
M 277.11 45.17 276.9 44.58 277.25 43.69 277.81 43.4 278.01 44 277.66 44.88 277.11 45.17 
M 278.18 44.35 277.56 44.49 276.73 44.04 276.5 43.45 277.12 43.31 277.95 43.76 278.18 44.35 
M 280.94 54.65 280.33 54.81 279.48 54.39 279.23 53.81 279.84 53.65 280.69 54.07 280.94 54.65 
M 279.39 54.43 279.91 54.08 280.86 54.2 281.28 54.67 280.75 55.02 279.81 54.9 279.39 54.43 
M 299.14 66.25 298.77 66.77 297.85 66.99 297.29 66.7 297.66 66.18 298.58 65.96 299.14 66.25 
M 298.9 66.72 298.27 66.7 297.57 66.05 297.5 65.43 298.13 65.45 298.83 66.09 298.9 66.72 
M 306.46 71.16 305.89 71.41 304.98 71.12 304.65 70.58 305.23 70.33 306.14 70.62 306.46 71.16 
M 305.93 71.49 305.46 71.08 305.33 70.13 305.68 69.61 306.15 70.02 306.27 70.97 305.93 71.49 
M 328.49 109.06 327.9 108.85 327.43 108.02 327.56 107.41 328.15 107.62 328.62 108.45 328.49 109.06 
M 328.42 107.62 328.25 108.23 327.47 108.77 326.84 108.7 327 108.09 327.79 107.55 328.42 107.62 
M 322.51 96.51 322.35 97.12 321.58 97.66 320.95 97.6 321.1 96.99 321.88 96.44 322.51 96.51 
M 321.09 96.71 321.71 96.83 322.3 97.57 322.28 98.2 321.66 98.08 321.07 97.34 321.09 96.71 
M 330.64 103.33 331.18 103.01 332.11 103.18 332.51 103.67 331.96 103.99 331.03 103.82 330.64 103.33 
M 332.2 103.86 331.58 103.73 331.02 102.97 331.06 102.34 331.68 102.47 332.24 103.24 332.2 103.86 
M 327.83 145.24 328.75 144.76 329.35 144.95 329.22 145.22 
M 328.4 144.61 328.64 145.23 
M 327.77 145.24 327.87 144.94 328.4 144.61 
M 312.36 81.83 312.19 82.44 311.4 82.97 310.78 82.89 310.94 82.29 311.73 81.76 312.36 81.83 
M 310.96 81.97 311.57 82.14 312.1 82.93 312.02 83.55 311.41 83.38 310.88 82.59 310.96 81.97 
M 309.94 77.46 309.36 77.7 308.46 77.39 308.14 76.85 308.72 76.61 309.62 76.92 309.94 77.46 
M 308.84 76.46 309.19 76.98 309.07 77.92 308.6 78.34 308.25 77.82 308.37 76.87 308.84 76.46 
M 324.86 101.62 325.42 101.91 325.77 102.8 325.56 103.39 325 103.1 324.65 102.21 324.86 101.62 
M 324.73 103.05 324.98 102.47 325.85 102.07 326.45 102.24 326.2 102.81 325.33 103.22 324.73 103.05 
M 333.87 117.38 333.44 116.93 333.39 115.98 333.79 115.48 334.22 115.94 334.26 116.89 333.87 117.38 
M 333.12 116.59 333.66 116.27 334.6 116.45 334.99 116.94 334.45 117.26 333.51 117.08 333.12 116.59 
M 324.68 111.93 324.67 112.56 324.03 113.27 323.41 113.35 323.42 112.72 324.06 112.01 324.68 111.93 
M 323.76 111.97 324.17 112.45 324.17 113.4 323.76 113.87 323.35 113.4 323.35 112.45 323.76 111.97 
M 287.73 63.51 287.31 63.05 287.28 62.1 287.68 61.61 288.11 62.08 288.13 63.03 287.73 63.51 
M 288.16 62 287.93 62.58 287.1 63.03 286.48 62.9 286.71 62.31 287.54 61.86 288.16 62 
M 283.2 70.57 282.6 70.38 282.09 69.58 282.19 68.96 282.79 69.14 283.3 69.95 283.2 70.57 
M 282.25 70.34 282.47 69.74 283.3 69.28 283.91 69.41 283.7 70 282.87 70.46 282.25 70.34 
M 315.77 96.76 315.31 96.33 315.2 95.38 315.56 94.87 316.02 95.29 316.12 96.24 315.77 96.76 
M 315.14 96.32 315.44 95.76 316.33 95.42 316.92 95.64 316.62 96.19 315.73 96.53 315.14 96.32 
M 339.19 109.81 338.59 110.02 337.71 109.68 337.41 109.12 338.01 108.91 338.89 109.26 339.19 109.81 
M 338.15 108.76 338.46 109.3 338.28 110.24 337.79 110.63 337.47 110.08 337.65 109.15 338.15 108.76 
M 338.91 125.14 338.79 124.52 339.27 123.7 339.86 123.49 339.98 124.11 339.5 124.94 338.91 125.14 
M 338.96 124.9 339.16 124.31 339.98 123.82 340.6 123.94 340.4 124.53 339.58 125.02 338.96 124.9 
M 336.81 130.34 336.18 130.4 335.4 129.85 335.25 129.24 335.88 129.18 336.66 129.73 336.81 130.34 
M 335.83 130.49 335.81 129.86 336.41 129.12 337.03 129.02 337.05 129.64 336.45 130.38 335.83 130.49 
M 225.03 73.06 224.84 72.46 225.22 71.59 225.78 71.31 225.97 71.91 225.6 72.79 225.03 73.06 
M 225.55 71.47 225.62 72.1 225.09 72.89 224.48 73.05 224.4 72.42 224.94 71.64 225.55 71.47 
M 349.91 106.25 349.44 106.67 348.49 106.69 348.01 106.28 348.48 105.86 349.43 105.84 349.91 106.25 
M 349.47 106.78 348.91 106.49 348.57 105.6 348.78 105.01 349.33 105.3 349.68 106.19 349.47 106.78 
M 345.01 105.73 344.7 106.27 343.8 106.59 343.21 106.35 343.53 105.81 344.43 105.5 345.01 105.73 
M 344.83 106.12 344.22 106.25 343.39 105.78 343.18 105.18 343.79 105.06 344.62 105.53 344.83 106.12 
M 336.16 100.83 335.74 100.36 335.71 99.41 336.1 98.92 336.53 99.39 336.56 100.34 336.16 100.83 
M 336.03 100.59 335.93 99.97 336.42 99.16 337.01 98.96 337.12 99.58 336.63 100.4 336.03 100.59 
M 313.32 71.58 313.9 71.83 314.32 72.69 314.15 73.3 313.57 73.05 313.16 72.19 313.32 71.58 
M 314.24 71.92 313.96 72.48 313.08 72.85 312.49 72.65 312.77 72.08 313.65 71.72 314.24 71.92 
M 311.44 88.94 311.37 88.32 311.91 87.53 312.52 87.37 312.59 87.99 312.05 88.78 311.44 88.94 
M 311.82 87.45 312.14 87.99 311.96 88.93 311.46 89.31 311.15 88.77 311.33 87.84 311.82 87.45 
M 321.38 83.79 321.53 84.4 321.09 85.24 320.5 85.47 320.36 84.86 320.8 84.02 321.38 83.79 
M 321 83.91 321.14 84.52 320.7 85.36 320.11 85.59 319.97 84.98 320.41 84.14 321 83.91 
M 320.8 78.07 321.38 77.84 322.28 78.17 322.58 78.72 322 78.94 321.1 78.62 320.8 78.07 
M 321 78.18 321.63 78.17 322.35 78.79 322.45 79.41 321.82 79.42 321.1 78.8 321 78.18 
M 291.65 55.97 291.13 56.33 290.19 56.24 289.75 55.78 290.27 55.42 291.21 55.51 291.65 55.97 
M 291.42 55.85 290.83 56.06 289.95 55.72 289.65 55.16 290.24 54.95 291.13 55.29 291.42 55.85 
M 295.84 56.25 296.44 56.08 297.31 56.48 297.56 57.05 296.96 57.22 296.1 56.82 295.84 56.25 
M 296.3 57.25 296.47 56.65 297.27 56.13 297.89 56.21 297.72 56.82 296.92 57.34 296.3 57.25 
M 320.04 90.09 319.66 90.6 318.73 90.8 318.18 90.5 318.56 90 319.48 89.79 320.04 90.09 
M 318.52 89.88 319.12 90.07 319.61 90.88 319.51 91.5 318.91 91.31 318.41 90.5 318.52 89.88 
M 331.86 93.77 331.94 93.48 
M 331.66 94.44 331.82 93.9 
M 327.54 88.74 326.92 88.7 326.24 88.03 326.2 87.4 326.83 87.44 327.5 88.12 327.54 88.74 
M 326.65 87.38 327.02 87.89 326.92 88.84 326.47 89.27 326.1 88.76 326.2 87.81 326.65 87.38 
M 326.56 92.35 326.48 92.97 325.77 93.61 325.14 93.62 325.22 93 325.93 92.36 326.56 92.35 
M 325.24 93.38 325.64 92.89 326.58 92.74 327.12 93.06 326.72 93.55 325.78 93.71 325.24 93.38 
M 350.85 122.5 350.37 122.9 349.42 122.89 348.95 122.47 349.43 122.06 350.38 122.08 350.85 122.5 
M 350.1 121.79 350.12 122.41 349.52 123.15 348.9 123.27 348.88 122.64 349.48 121.9 350.1 121.79 
M 298.5 51.62 299.07 51.35 299.98 51.61 300.33 52.14 299.76 52.41 298.84 52.14 298.5 51.62 
M 299.07 51.24 299.52 51.68 299.6 52.63 299.23 53.13 298.78 52.7 298.7 51.75 299.07 51.24 
M 294.37 45.84 294.77 46.33 294.74 47.28 294.32 47.74 293.92 47.26 293.94 46.31 294.37 45.84 
M 293.65 46.57 294.28 46.57 295 47.2 295.09 47.82 294.46 47.82 293.74 47.19 293.65 46.57 
M 343.05 141.51 343.26 142.1 342.92 142.99 342.36 143.29 342.15 142.69 342.49 141.81 343.05 141.51 
M 343.32 142.02 342.91 142.5 341.97 142.63 341.44 142.29 341.85 141.81 342.8 141.68 343.32 142.02 
M 340.41 137.34 339.88 137.67 338.94 137.53 338.53 137.05 339.06 136.72 340 136.86 340.41 137.34 
M 340.15 137.45 339.52 137.42 338.83 136.76 338.78 136.13 339.4 136.17 340.09 136.83 340.15 137.45 
M 347.63 133.42 348.12 133.81 348.3 134.74 347.99 135.29 347.49 134.9 347.31 133.96 347.63 133.42 
M 347.34 134.91 347.58 134.32 348.43 133.9 349.04 134.05 348.8 134.63 347.95 135.06 347.34 134.91 
M 330.74 77.08 330.83 77.71 330.32 78.51 329.71 78.68 329.62 78.06 330.14 77.26 330.74 77.08 
M 330.2 77.16 330.41 77.75 330.08 78.64 329.52 78.94 329.31 78.35 329.64 77.46 330.2 77.16 
M 333.65 88.78 333.01 88.44 332.79 87.85 333.41 87.71 334 88.04 
M 333.83 88.4 332.9 88.56 332.36 88.24 332.75 87.75 333.69 87.58 334.09 87.82 
M 306.21 61.8 305.64 62.06 304.73 61.8 304.39 61.27 304.96 61.01 305.87 61.27 306.21 61.8 
M 305.22 62.26 305.1 61.64 305.56 60.81 306.16 60.6 306.28 61.22 305.81 62.04 305.22 62.26 
M 334.71 81.76 334.73 81.13 335.38 80.43 336 80.36 335.98 80.99 335.34 81.69 334.71 81.76 
M 335.8 80.48 335.59 81.08 334.76 81.55 334.14 81.43 334.35 80.83 335.18 80.36 335.8 80.48 
M 349.58 142.09 349.14 142.54 348.19 142.63 347.68 142.26 348.12 141.81 349.07 141.72 349.58 142.09 
M 348.49 142.89 348.42 142.26 348.95 141.48 349.56 141.32 349.63 141.94 349.1 142.73 348.49 142.89 
M 352.35 136.18 352.73 135.68 353.65 135.47 354.21 135.77 353.83 136.27 352.9 136.48 352.35 136.18 
M 352.76 135.47 353.32 135.75 353.69 136.63 353.5 137.22 352.93 136.95 352.56 136.07 352.76 135.47 
M 325.6 74.02 325.49 73.4 325.98 72.59 326.58 72.39 326.69 73.01 326.2 73.83 325.6 74.02 
M 325.46 72.84 326.08 72.98 326.64 73.74 326.6 74.37 325.98 74.23 325.42 73.47 325.46 72.84 
M 337.54 75.35 337.47 75.14 
M 337.63 75.31 337.54 75.35 
M 327.49 68.33 327.86 67.82 328.79 67.6 329.35 67.9 328.97 68.41 328.05 68.62 327.49 68.33 
M 328.46 67.39 328.62 68 328.19 68.85 327.61 69.09 327.46 68.48 327.88 67.63 328.46 67.39 
M 320.83 62.73 321.28 62.29 322.22 62.22 322.73 62.6 322.28 63.05 321.33 63.11 320.83 62.73 
M 321.68 63.39 321.57 62.77 322.06 61.95 322.66 61.76 322.77 62.38 322.28 63.19 321.68 63.39 
M 355.41 128.11 355.46 127.48 356.14 126.81 356.77 126.77 356.72 127.4 356.04 128.07 355.41 128.11 
M 356.46 126.82 356.32 127.43 355.55 127.99 354.92 127.93 355.06 127.32 355.83 126.76 356.46 126.82 
M 314.15 58.48 313.67 58.07 313.52 57.13 313.85 56.6 314.33 57 314.48 57.94 314.15 58.48 
M 314.33 58.18 313.89 57.74 313.82 56.79 314.2 56.29 314.65 56.73 314.71 57.68 314.33 58.18 
M 308.4 66.13 308.98 65.88 309.89 66.16 310.22 66.7 309.64 66.95 308.74 66.67 308.4 66.13 
M 308.72 66 309.32 66.19 309.82 66.99 309.73 67.61 309.12 67.43 308.62 66.62 308.72 66 
M 330.7 62.08 330.11 62.29 329.23 61.95 328.93 61.39 329.52 61.18 330.41 61.52 330.7 62.08 
M 330.19 62.36 329.72 61.94 329.59 61 329.94 60.47 330.41 60.89 330.53 61.84 330.19 62.36 
M 305.78 55.25 306.27 54.86 307.22 54.91 307.68 55.34 307.19 55.73 306.24 55.69 305.78 55.25 
M 306.09 54.97 306.71 55.07 307.31 55.8 307.3 56.43 306.68 56.33 306.07 55.6 306.09 54.97 
M 317.65 66.36 317.42 66.94 316.57 67.38 315.96 67.23 316.2 66.65 317.04 66.21 317.65 66.36 
M 316.69 66.08 316.98 66.64 316.75 67.56 316.24 67.93 315.95 67.37 316.18 66.44 316.69 66.08 
M 352.55 111.3 352.94 110.81 353.88 110.64 354.42 110.95 354.03 111.45 353.09 111.62 352.55 111.3 
M 352.78 111.29 353.32 110.97 354.26 111.13 354.65 111.62 354.11 111.95 353.17 111.78 352.78 111.29 
M 318 54.06 317.72 53.49 317.97 52.57 318.49 52.22 318.76 52.78 318.52 53.7 318 54.06 
M 317.79 53.7 318.02 53.11 318.86 52.67 319.47 52.81 319.24 53.4 318.4 53.84 317.79 53.7 
M 307.2 47.02 307 46.43 307.1 46.17 
M 307.82 46.61 307.2 47.02 
M 303.8 43.64 303.83 44.27 303.24 45.02 302.62 45.14 302.59 44.51 303.18 43.76 303.8 43.64 
M 303.8 44.81 303.2 44.62 302.7 43.8 302.81 43.18 303.41 43.38 303.9 44.19 303.8 44.81 
M 369.49 145.07 370.12 145.07 370.84 145.7 370.92 146.32 370.29 146.32 369.58 145.69 369.49 145.07 
M 369.76 145.12 370.28 145.48 370.52 146.4 370.24 146.96 369.72 146.61 369.48 145.69 369.76 145.12 
M 362.94 114.74 362.87 115.36 362.16 116 361.53 116.02 361.61 115.39 362.31 114.75 362.94 114.74 
M 361.52 115.49 362.08 115.21 363 115.44 363.36 115.96 362.8 116.24 361.88 116 361.52 115.49 
M 364.9 131.33 364.58 130.79 364.74 129.86 365.23 129.46 365.56 130 365.39 130.93 364.9 131.33 
M 365.29 131.09 364.92 130.57 365.01 129.63 365.47 129.19 365.83 129.7 365.74 130.65 365.29 131.09 
M 367.46 118 367.54 117.38 368.25 116.75 368.88 116.74 368.8 117.36 368.09 118 367.46 118 
M 367.45 117.41 368.04 117.19 368.93 117.51 369.24 118.06 368.65 118.29 367.76 117.96 367.45 117.41 
M 354.86 116.32 355.06 116.91 354.69 117.79 354.13 118.08 353.93 117.48 354.29 116.6 354.86 116.32 
M 353.91 116.77 354.51 116.97 354.99 117.79 354.87 118.41 354.27 118.21 353.8 117.38 353.91 116.77 
M 310.93 52.3 310.53 51.81 310.57 50.85 311 50.4 311.39 50.89 311.36 51.84 310.93 52.3 
M 311.38 50.75 311.19 51.35 310.38 51.85 309.76 51.75 309.95 51.15 310.76 50.65 311.38 50.75 
M 378.42 145.57 378.87 146.01 378.94 146.96 378.57 147.46 378.12 147.02 378.05 146.07 378.42 145.57 
M 377.77 146.45 378.39 146.31 379.22 146.77 379.44 147.36 378.83 147.49 377.99 147.04 377.77 146.45 
M 344.06 101.29 343.45 101.45 342.59 101.04 342.37 100.51 
M 344.01 101.17 344.06 101.29 
M 343.59 101.48 343.11 101.08 343.06 100.79 
M 343.82 101.1 343.59 101.48 
M 375.88 134.09 375.46 134.56 374.52 134.69 373.99 134.34 374.41 133.87 375.36 133.75 375.88 134.09 
M 374.84 133.5 375.11 134.07 374.86 134.98 374.33 135.33 374.06 134.76 374.32 133.85 374.84 133.5 
M 383.76 130.16 383.46 129.6 383.66 128.68 384.17 128.3 384.47 128.85 384.26 129.78 383.76 130.16 
M 384.49 128.74 384.18 129.28 383.29 129.6 382.7 129.38 383.01 128.83 383.91 128.51 384.49 128.74 
M 319.8 73.16 319.76 72.54 320.32 71.77 320.94 71.64 320.99 72.26 320.42 73.03 319.8 73.16 
M 320.93 72.86 320.35 72.63 319.91 71.78 320.05 71.17 320.64 71.4 321.08 72.25 320.93 72.86 
M 316.49 81.18 315.87 81.26 315.08 80.73 314.91 80.12 315.53 80.04 316.33 80.57 316.49 81.18 
M 315.01 80.45 315.63 80.43 316.37 81.03 316.48 81.65 315.85 81.67 315.11 81.07 315.01 80.45 
M 225.12 183.68 225.67 183.99 225.99 184.88 225.77 185.47 225.22 185.16 224.89 184.27 225.12 183.68 
M 226.13 184.35 225.62 184.72 224.67 184.63 224.24 184.18 224.75 183.81 225.7 183.9 226.13 184.35 
M 230.78 291.39 228.89 297.7 
M 228.89 297.7 232.49 297.7 
M 235.25 293.5 234.35 296.5 234.38 297.39 234.89 297.7 235.79 297.7 236.48 297.39 237.65 296.5 
M 238.55 293.5 237.29 297.7 
M 240.95 293.5 239.69 297.7 
M 240.41 295.3 240.98 294.39 241.76 293.8 242.45 293.5 243.35 293.5 
M 245.18 291.39 245.39 291.7 245.78 291.39 245.57 291.1 245.18 291.39 
M 244.85 293.5 243.59 297.7 
M 249.98 294.39 249.86 293.8 249.05 293.5 248.15 293.5 247.16 293.8 246.68 294.39 246.8 295 247.31 295.3 248.72 295.6 249.23 295.89 249.26 296.8 248.78 297.39 247.79 297.7 246.89 297.7 246.08 297.39 245.96 296.8 
M 255.35 293.5 253.46 299.8 
M 255.08 294.39 255.86 293.8 256.55 293.5 257.45 293.5 257.96 293.8 258.38 294.39 258.4 295.3 258.23 295.89 257.65 296.8 256.88 297.39 256.19 297.7 255.29 297.7 254.78 297.39 254.36 296.8 
M 264.35 293.5 263.09 297.7 
M 264.08 294.39 263.65 293.8 263.14 293.5 262.25 293.5 261.56 293.8 260.77 294.39 260.21 295.3 260.02 295.89 260.06 296.8 260.48 297.39 260.99 297.7 261.89 297.7 262.58 297.39 263.36 296.8 
M 267.38 291.39 265.49 297.7 
M 273.08 291.39 271.19 297.7 
M 272.18 294.39 271.76 293.8 271.25 293.5 270.35 293.5 269.65 293.8 268.88 294.39 268.31 295.3 268.13 295.89 268.15 296.8 268.58 297.39 269.08 297.7 269.99 297.7 270.68 297.39 271.45 296.8 
M 278.14 293.5 276.89 297.7 
M 277.88 294.39 277.45 293.8 276.95 293.5 276.05 293.5 275.36 293.8 274.58 294.39 274.01 295.3 273.83 295.89 273.86 296.8 274.27 297.39 274.79 297.7 275.69 297.7 276.38 297.39 277.15 296.8 
M 280.55 293.5 279.29 297.7 
M 280.01 295.3 280.58 294.39 281.36 293.8 282.05 293.5 282.95 293.5 
M 287.75 293.5 286.49 297.7 
M 287.48 294.39 287.06 293.8 286.55 293.5 285.64 293.5 284.95 293.8 284.18 294.39 283.61 295.3 283.43 295.89 283.45 296.8 283.88 297.39 284.39 297.7 285.29 297.7 285.98 297.39 286.76 296.8 
M 289.37 297.1 288.98 297.39 289.19 297.7 289.58 297.39 289.37 297.1 
"/></svg>
