<svg xmlns="http://www.w3.org/2000/svg" width="520" height="320"><rect x="0" y="0" width="520" height="320" fill="floralwhite"/><rect x="10" y="10" width="500" height="300" stroke="black" stroke-width="1" fill="none"/><path stroke="black" stroke-width="1" fill="none" stroke-linecap="round" stroke-linejoin="round" d="
M 148.29 124.69 171.05 111.05 186.52 102.92 193.99 98.39 216.17 84.4 223.89 80.31 232.01 77.08 240.75 76.82 249.4 78.07 258 79.63 266.36 82.15 274.36 85.68 282.1 89.74 289.41 94.53 296.6 99.5 303.66 104.65 317.35 115.52 331.22 126.15 338.02 131.64 344.74 137.24 358.43 149.07 
M 358.43 189.48 348.19 199.28 341.68 205.11 334.95 210.68 327.8 215.72 320.26 220.13 312.39 223.93 304.28 227.2 296.06 230.16 287.7 232.69 270.82 237.22 262.32 239.28 253.93 241.73 245.37 243.48 236.64 243.94 227.91 243.74 219.2 242.92 210.61 241.34 193.31 238.82 184.87 236.58 176.64 233.63 168.89 229.58 161.7 224.62 156.62 220.76 
M 185.25 158.08 188.45 157.09 
M 198.76 154.38 202.31 153.48 
M 208.45 150.8 211.36 149.33 
M 214.43 148.1 220.74 145.99 
M 223.64 144.78 227.83 142.92 229.32 142.54 
M 235.51 141.43 239.99 141.06 244.52 141.01 
M 250.8 141.34 259.66 141.43 
M 262.52 141.61 271.91 142.41 275 143.22 282.04 145.99 287.75 148.62 
M 295.33 152.03 297.05 152.69 304.18 154.58 
M 307.06 155.41 318.46 158.99 326.37 161.85 330.09 162.87 331.79 163.18 
M 335.16 163.76 340.51 164.8 355.88 168.28 358.43 168.73 
M 155.78 138 154.83 139.27 154.04 140.69 
M 159.04 145.65 157.74 148.72 
M 156.53 151.89 156.28 152.63 
M 161.12 214.26 161.56 217.37 
M 161.91 220.37 162.47 223.92 
M 171.55 127.72 170.3 134.86 
M 169.59 138.37 168.79 141.81 
M 167.2 148.73 166.71 150.37 166 151.8 
M 162.95 157.32 162.25 158.77 161.33 161.96 
M 163.83 180.68 164.18 185.47 
M 168.08 213.82 168.61 217.16 
M 169.78 223.91 170.11 227.03 
M 170.24 229.64 170.27 230.3 
M 180.82 120.27 179.92 123.37 
M 178.93 126.44 178.46 128.01 178.1 131.75 178.14 133.86 
M 178.13 137.98 178.08 139.99 177.73 141.73 
M 175.71 148.05 173.98 152.61 172.01 156.95 
M 175.54 214.43 176.86 219.98 
M 177.42 223.42 177.56 225.01 177.49 226.38 
M 177.57 232.37 177.78 234.04 
M 187.68 118.54 187.13 125.84 
M 185.83 132.57 185.23 136.02 
M 179.68 158.62 179.31 159.71 
M 184.26 223.92 186.17 236.9 
M 194.34 116.35 194.02 117.9 193.43 124.97 192.68 130.11 
M 192.15 133.52 191.84 137.19 
M 191.73 141.07 191.69 143.03 191.3 146.65 190.89 148.26 
M 187.94 156.58 187.62 157.4 
M 187.96 175.01 188.38 178.37 
M 191.5 221.11 191.53 221.34 
M 192.11 224.92 192.74 228.54 
M 193.29 232.09 194.25 238.49 
M 202.49 105.02 202.53 106.78 202.37 108.36 
M 200.61 117.37 198.8 132.69 198.7 136.49 198.86 138.61 
M 199.26 142.93 199.49 145.12 199.38 148.97 198.37 151.92 197.34 153.43 
M 199.1 222.6 199.36 224.5 
M 199.84 228 200.39 233.1 200.64 237.26 
M 208.37 99.12 208.7 102.77 
M 208.48 112.82 208.29 114.39 206.39 123.45 206.27 125.22 
M 206.19 128.93 206.32 136.71 
M 206.13 144.26 205.85 147.87 
M 205.49 151.05 205.31 152.46 
M 207.43 227.54 207.76 230.91 
M 215.24 94.42 215.69 98.06 
M 216.35 111.97 216.3 113.63 215.85 116.67 214.03 122.05 213.84 123.71 
M 213.48 130.83 213.25 138.15 
M 213.19 141.9 212.98 146.21 
M 214.37 177.27 213.88 178.98 
M 215.46 225.15 215.82 228.12 
M 216.13 231.49 216.28 234.71 
M 216.47 237.57 216.6 238.83 
M 221.05 85.87 221.44 89.37 
M 223.36 103.99 223.58 107.49 
M 223.7 110.95 223.66 114.31 
M 222.69 120.36 222.35 121.8 221.91 125.01 221.5 130.14 
M 221.24 133.6 221 138.98 220.99 145.9 
M 223.44 165.89 223.59 169.26 
M 221.49 207.56 222.94 217.26 223.77 227.29 224.07 229.13 
M 224.84 232.97 226.49 240.29 
M 228.94 92.28 229.6 96.11 
M 230.21 99.92 230.48 101.79 231.01 110.57 
M 231.21 114.17 231.35 119.52 231.05 124.59 
M 230.64 127.82 230.06 130.91 
M 229.39 133.94 228.59 138.73 228.27 142.74 
M 231.03 163.17 231.41 166.81 
M 230.34 178.77 229.58 181.26 
M 228.87 187.01 228.9 190.65 
M 229.41 203.6 230.23 211.88 231.66 220.97 
M 232.35 224.72 232.92 228.35 
M 233.3 231.78 233.62 235.15 
M 234.26 239.42 234.73 241.98 
M 237.35 95.2 238.16 99.27 
M 238.64 103.03 238.74 104.79 238.65 109.74 
M 238.77 113.29 239.99 123.3 239.91 126.85 239.4 130 239.01 131.46 
M 238.16 134.32 236.85 138.62 236.27 141.25 
M 238.93 165.14 239.07 166.93 239.04 170.22 238.12 174.29 
M 237.53 183.65 237.94 188.98 238.84 207.44 
M 240.59 218.43 240.9 220.27 241.23 225.17 
M 241.28 228.25 241.36 231.35 
M 241.5 234.5 242.12 240.55 
M 245.39 82.81 245.15 85.86 
M 245.13 89.14 245.22 90.88 245.58 92.9 
M 247.39 108.14 247.21 113.12 247.23 121.98 
M 245.9 131.62 244.77 136.11 243.95 140.96 
M 245.01 153.54 245.41 157.29 
M 245.34 163.97 245.27 169 246.09 181.71 
M 246.53 185.52 247.4 193.06 
M 248.67 207.3 249.09 210.86 
M 249.53 214.4 250.07 219.55 250.08 221.08 
M 249.13 229.18 248.97 230.5 249.02 232.03 
M 249.3 235.26 249.87 238.91 
M 254.98 102.29 255.21 105.97 
M 255.5 109.73 255.61 111.58 255.31 114.8 254.41 119.24 
M 253.12 128.87 252.41 133.77 252.3 135.56 
M 252.12 139.37 252.05 141.41 
M 251.52 162.96 251.66 166.57 
M 252.38 174.26 253.49 180.58 255.88 189.85 256.49 193.86 257.13 202.83 
M 257.45 206.4 258.29 215.16 258.28 218.23 256.76 228.73 256.64 231.54 256.83 234.63 257.42 238.96 
M 262.69 100.99 262.8 106.37 262.68 111.56 
M 261.93 117.94 261.07 124.31 
M 260.64 127.55 260.13 130.77 
M 259.75 134.17 259.61 135.95 259.62 141.33 
M 262.09 187.57 262.53 193.2 262.95 195.33 
M 264.57 203.66 264.81 205.55 264.72 211.88 264.82 216.65 
M 264.62 219.49 264.02 223.39 263.91 226.22 264.78 237.48 
M 269.31 96.24 269.44 99.93 
M 269.64 107.25 270.15 118.48 
M 270.12 122.05 270.05 123.77 269.62 126.97 267.77 134.51 
M 267.27 137.86 266.93 141.95 
M 266.97 157.73 267.28 161.63 
M 267.86 169.44 268.41 173.6 
M 269.04 177.84 269.69 183.87 270.03 191.28 271.23 202.72 271.86 211.45 
M 272.12 214.84 272.21 219.5 271.29 228.79 
M 271.75 234.37 271.94 235.49 
M 277.32 107.84 277.8 113.68 279.27 122.29 279.39 125.99 278.95 129.17 278.58 130.65 
M 277.76 133.56 277.31 134.99 276.14 137.66 274.78 140.2 273.87 142.84 
M 276.73 172.6 277.06 176.58 
M 277.36 180.51 277.82 191.68 
M 277.89 195.23 278.19 203.97 277.77 209.98 277.76 214.57 
M 278.11 223.74 278.31 225.37 280.75 234.57 
M 285.28 106.16 286.74 112.93 287.39 118.89 
M 287.56 122.59 287.52 126.08 
M 286.83 132.61 285.82 137.2 284.16 141.34 
M 283.25 144.54 282.9 146.35 
M 284.69 171.56 284.98 175.51 
M 285.41 190.31 284.96 201.78 284.08 207.33 283.99 208.78 
M 284.03 211.87 284.76 218.5 
M 285.53 222.12 286.03 224.02 289.01 232.3 
M 293.53 108.57 294.38 112.91 
M 295.02 117.03 295.49 120.98 
M 295.73 124.69 295.59 131.58 
M 295.36 134.97 294.74 139.92 292.92 151.06 
M 292.6 170.53 293.17 176.54 293.41 182.18 
M 293.09 188.94 292.9 192.21 
M 292.73 195.44 292.53 198.58 
M 292.26 201.57 291.96 206.04 292.08 209.22 293.03 217.49 
M 293.8 221.09 294.31 222.99 296.77 229.7 
M 301.93 114.85 302.56 118.87 
M 303.06 122.76 303.27 126.35 
M 303.21 129.72 302.34 145.21 302.02 148.71 301.14 153.8 
M 301.16 169.87 301.59 175.68 301.76 181.18 
M 301.64 184.58 300.97 192.5 301.05 199.17 300.76 205.18 300.86 208.31 301.69 214.98 302.36 218.48 303.38 222.26 304.59 225.84 
M 308.84 120.07 309.32 125.47 309.25 127.06 
M 308.89 133.49 308.87 135.2 309.54 143.02 309.69 146.84 309.42 150.29 308.49 155.86 
M 310.36 183.89 310.14 190.41 
M 310.2 193.75 310.38 197.15 
M 310.46 203.5 310.41 207.96 310.65 211.13 311.63 217.76 312.43 221.24 
M 314.33 120.95 314.56 125.9 317.36 145.43 317.57 149.14 316.97 155.67 316.87 158.5 
M 317.79 164.55 318.48 168.65 
M 318.92 172.5 319.4 179.75 
M 319.59 183.27 319.57 191.43 320.26 201.52 320.26 206.03 
M 320.32 209.03 320.64 212.23 
M 321.31 215.68 321.75 217.47 
M 320.25 119.25 320.42 122.42 
M 320.94 125.94 323.27 137.59 
M 323.74 141.25 324.33 146.71 326.49 158.75 326.92 162.04 
M 327.94 174.69 328.09 178.13 
M 328.27 181.57 328.46 189.78 328.68 193.15 329.6 200.24 330.53 210.12 330.99 213.16 
M 327.32 125.17 329.1 132.62 
M 329.68 136.09 329.94 139.26 
M 330.18 142.44 330.36 144.09 331.26 147.93 335.91 163.89 
M 337.77 177.17 337.88 180.51 
M 338.02 183.87 338.4 190.6 
M 338.56 193.9 338.6 195.51 338.28 201.37 338.69 204.83 339.23 207.14 
M 238.16 100.65 236.19 98.86 235.22 98.3 234.06 97.9 233.17 97.3 232.46 96.53 231.89 95.35 
M 212.75 101.14 211.59 102.64 211.24 102.9 210.41 103.05 208.43 102.39 203.69 99.76 
M 198.4 169.04 198.58 166.84 199.28 165.33 200 164.35 200.64 162.74 
M 194.24 230.58 192.44 229.41 190.8 226.99 190.56 226.3 190.85 224.06 
M 303.58 149.47 303.78 152.77 301.89 156.05 
M 319.4 195.04 321.37 196.08 321.85 196.53 322.15 197.25 322.39 198.68 
M 179.18 127.15 178.37 126.75 177.85 126.09 177.05 124.5 176.89 123.81 176.94 123.31 178.05 120.49 
M 247.36 187.06 250.84 185.47 251.49 185.26 252.13 185.28 252.74 185.55 254.49 187.37 256.17 188.55 
M 344.21 181.66 339.71 187.04 
M 319.45 117.28 317.58 116.5 313.72 115.32 313.33 114.98 313.03 114.26 313.24 112.68 
M 287.6 232.72 288.36 232.09 288.74 231.56 289.02 230.76 288.82 230.42 288.43 230.26 287.32 230.33 
M 237.46 131.16 237.64 129.18 237.14 126.83 236.3 124.75 234.45 121.54 
M 219.53 171.91 221.23 170.81 222.64 169.43 222.86 169.12 223.19 167.86 224.17 166.09 
M 258.69 230.33 257.67 230.84 255.46 231.44 251.27 231.78 249.83 232.12 
M 335.92 209.88 331.41 212.56 
M 225.61 177.13 223.68 176.92 220.76 177.28 220 177.73 218.87 179.07 
M 272.22 187.59 276.01 186.5 278.04 185.61 278.52 185.2 279.14 184.28 279.59 182 
M 264.8 188.34 263.08 189.23 261.13 189.44 
M 303.05 109.4 303.76 107.07 304.6 105.38 
M 228.29 134.5 230.06 133.81 230.8 133.9 231.48 134.36 232.31 135.58 232.87 135.9 
M 181.14 138.58 179.02 138.44 178.46 138.72 178.09 139.39 178.13 141.12 
M 272.75 180.74 273.89 179.46 274.25 177.98 274.42 176.17 274.37 173.47 274.84 171.62 274.85 170.74 274.7 169.95 274.17 168.83 
M 171.6 143.28 171.92 142.64 172.41 142.11 174.75 140.68 175.39 140.48 176.39 140.57 
M 231.11 208.07 229.64 207.04 228.32 205.85 228.02 205.06 228.17 204.13 
M 168.07 141.76 168.62 141.3 169.17 141.1 171.6 140.94 
M 311.6 115.36 313.28 112.23 
M 202.69 166.28 203.24 166.37 205.96 167.59 207.08 167.89 
M 234.33 150.62 232.95 152.1 231.97 153.89 231.11 154.96 230.62 155.32 230.31 155.28 
M 219.48 149.32 218.11 147.77 217.49 146.19 217.41 145.65 217.64 144.5 218.21 143.69 
M 241.77 203.19 241.61 203.82 240.83 204.8 239.93 204.88 239.25 204.68 
M 307.61 120.73 309.17 121.51 309.32 121.99 
M 357.2 148.39 357.78 148.5 
M 358.07 148.76 358.29 149.04 
M 205.32 90.26 207.01 30 207.85 30 208.36 89.31 
M 216.12 83.6 217.66 40.21 218.5 40.22 219.15 82.81 
M 227.63 77.94 233.91 49.68 234.74 49.83 230.76 77.57 
M 240.37 76.34 248.26 61.38 249.03 61.73 243.3 77.18 
M 252.99 78.12 257.65 72.47 258.37 72.91 255.82 79.16 
M 264.15 80.99 265.47 81.76 
M 207.91 36.03 209.32 38.74 211.06 41.06 212.13 42.01 213.33 42.81 214.65 43.47 217.5 44.55 
M 218.57 44.56 221.32 47.28 224.31 49.56 225.95 50.44 227.68 51.15 229.49 51.7 233.28 52.5 
M 234.33 52.7 236.58 55.82 237.81 57.25 239.15 58.54 240.61 59.67 243.88 61.48 247.47 62.88 
M 248.44 63.31 249.57 66.2 250.26 67.53 251.09 68.75 252.06 69.83 254.43 71.6 257.18 73.04 
M 258.1 73.58 258.81 76.06 259.91 78.19 260.68 79.07 261.6 79.82 262.65 80.45 265 81.49 
M 208.59 37.41 210.13 39.97 211.06 41.06 212.13 42.01 213.33 42.81 216.05 44.04 
M 209.1 44.35 210.43 46.54 211.23 47.49 213.18 48.99 215.52 50.04 
M 209.61 51.28 210.72 53.12 212.16 54.59 213.03 55.17 214.99 56.05 
M 210.12 58.22 211.02 59.7 212.18 60.88 214.45 62.06 
M 210.64 65.15 211.31 66.27 212.19 67.17 213.92 68.07 
M 219.93 45.95 222.78 48.5 224.31 49.56 225.95 50.44 227.68 51.15 231.37 52.13 
M 220.74 54.11 222.92 56.06 224.1 56.87 226.68 58.09 229.51 58.85 
M 221.54 62.27 223.88 64.19 225.68 65.04 227.64 65.56 
M 235.43 54.28 237.81 57.25 239.15 58.54 240.61 59.67 242.19 60.64 245.65 62.2 
M 162.17 186.57 164.63 185.23 167.01 184.71 169.71 184.57 173.18 185.06 175.49 184.71 178.42 184 180.08 182.84 181.61 181.16 182.87 178.85 204 177.01 206.59 177.54 208.39 177.29 210.88 177.73 214.39 179.19 216.83 179.58 218.34 179.03 220.53 179.17 221.58 181.38 222.76 184.59 222.72 186.58 225.39 188.65 231.55 192.24 233.75 193.17 235.55 193.68 235.35 196.04 234.68 198.87 232.98 200.67 230.73 201.91 229.19 203.88 226.41 204.57 224.7 206.23 222.44 207.33 219.74 207.99 217.32 208.94 216.22 211.28 219.35 217.28 220.18 219.54 218.92 221.79 217.28 223.65 214.81 225.68 186.14 220.06 180.07 217.92 178.01 215.51 175.57 214.43 172.98 214.39 170.47 213.99 165.09 211.6 160.77 209.29 
M 162.07 188.59 165.21 187.74 167.68 186.68 169.54 186.1 174.65 185.44 177.34 184.81 179.65 183.72 181.91 183.55 184.09 182.76 187.34 182.34 
M 161.97 191.14 164.65 190.36 167.5 189.76 172.51 189.23 177.07 187.71 179.88 187.41 183.2 187.72 188.4 186.97 191.11 187.01 194.3 185.78 197.41 182.78 203.02 182.28 207.66 183.94 
M 161.91 193.5 164.57 192.76 167.34 192.88 170.25 193.32 175.76 192.98 178 192.64 181.06 191.71 184.28 191.41 186.73 191.49 188.61 191.19 191.35 192.17 193.75 191.82 196.4 190.42 198.18 189.24 200.18 188.33 202.8 188.62 205.63 189.16 
M 161.79 195.6 164.93 195.29 167.68 195.27 173.35 196.55 176.32 196.85 178.67 196.44 184.54 194.63 188.46 196.43 189.97 195.86 195.6 196.45 
M 161.52 198.18 164.98 198.15 167.62 198.47 170.3 199.56 176.8 200.03 178.86 200.59 184.3 199.82 188.7 201.44 
M 161.3 200.66 164.75 201.05 167.14 201.57 170.22 202.79 173.43 202.84 179.01 203.73 180.97 204.36 183.75 204.6 185.58 205.45 189.3 206.34 192.53 207.61 195.06 207.96 198.58 207.98 201.11 207.64 206.16 208.67 208.47 209.89 212.16 210.49 214.31 210.67 
M 161.18 202.88 164.16 203.32 166.64 204.47 172.95 206.5 178.21 207.21 179.92 207.85 181.68 209.16 184.49 210.02 187.88 210.05 191.14 211.71 
M 161.01 205.72 163.98 206.91 166.64 208.22 170.44 208.7 175.64 210.47 179.96 211.51 181.52 212.61 183.92 213.63 186.97 215.5 189.89 216.88 193.61 218.3 198.78 219.94 203.1 219.38 205.46 221.55 207.68 222.95 
M 215.22 242.37 219.35 245.15 221.68 248.68 223.05 252 225.77 264.28 226.44 268.04 227.09 270.25 228.65 273.36 227.39 275.44 225.28 276.9 224.33 279.52 221.84 280 210.64 268.54 208.15 268.96 206.77 271.17 204.32 272.3 202.29 271.96 199.8 271.16 196.53 270.39 187.19 245.93 185.47 242.87 184.27 239.49 181.72 235.57 
M 211.09 241.45 215.63 246.81 217.34 249.88 219.01 255.3 221.33 257.92 223.3 259.42 
M 206.96 240.52 209.53 243.85 214.58 251.18 215.09 254.26 216.07 256.65 217.79 259.22 219.66 261.28 222.12 262.77 222.75 264.7 
M 202.75 240.12 205.3 243.39 207.58 245.64 209.55 248.34 210.61 250.91 211.91 252.71 212.86 256 214.23 257.87 215.72 260.45 217.89 263.4 220.19 265.99 221.14 266.78 221.44 268.75 224.36 270.77 
M 198.54 239.73 200.61 243.01 201.73 246.13 203.63 248.35 205.79 250.21 207.79 254.41 209.58 256.92 211.19 258.87 212.42 261.15 213.37 265.12 214.95 267.48 215.93 269.44 217.13 271.03 
M 194.37 239.01 196.46 242.83 197.78 245.63 198.64 248.39 199.82 251.17 204.09 256.04 205.41 258.12 
M 190.21 238.27 192.34 241.68 195.22 247.43 196.06 250.55 197.01 253.33 198.14 255.62 
M 186.17 237 189.64 243.24 192.88 252.02 193.59 255.12 194.34 257.44 
M 340.83 205.87 345.93 209.42 351.26 214.73 349.65 216.09 347.01 216.88 345.41 218.87 343.15 220.19 341.9 222.53 340.48 224.65 339.64 227.11 338.36 229.32 333.5 231.65 331.49 233.21 330.28 235.59 329.29 237.97 327.49 239.74 324.31 243.65 321.77 248.16 318.44 251.77 317.99 254.72 317.02 257.32 315.54 259.41 314.62 261.97 311.52 265.59 310.88 267.34 309.47 269.94 308.23 268.8 306.35 266.59 305.49 264.75 302.63 260.56 300.72 258.63 298.17 255.61 296.83 253.14 295.93 249.87 294.71 248.13 287.89 241.46 286.25 239.55 282.21 234.08 
M 337.56 208.55 342.72 211.84 
M 334.29 211.23 338.98 214.4 
M 330.88 213.74 335.58 216.67 341.99 218.72 
M 327.32 216.03 332.24 218.78 
M 323.75 218.29 328.05 220.64 331.26 223.12 334.19 224.75 
M 320.01 220.26 324.12 223.07 327.41 224.78 329.74 227.07 331.8 230.27 
M 316.27 222.24 321.63 227.1 324.11 229.73 327.67 232.28 
M 312.39 223.93 315.64 226.76 318.14 228.34 320.25 230.84 
M 308.49 225.56 310.91 229.22 315.82 232.8 318.32 235.23 320.9 237.25 323.17 238.45 
M 304.55 227.1 307.11 230.69 309.4 233.15 311.96 235.11 313.88 237.17 316.33 238.94 318.36 240.88 
M 300.59 228.59 305.91 234.62 307.82 236.52 309.28 239.22 311.5 241.07 313.78 243.4 316.07 245.84 317.75 248.11 
M 296.6 229.99 301.48 236.03 303.73 238.13 305.24 240.21 309.44 244.36 311.08 246.36 
M 292.58 231.31 294.98 234.42 299.46 239.17 301.16 241.36 305.01 244.52 307.73 250.23 310.2 252.76 312.09 255.11 312.94 258.14 
M 288.52 232.49 294.44 239.75 296.97 242.42 300.95 245.49 301.86 248.47 304.27 251.63 305.59 254.28 307.69 257.25 
M 284.42 233.52 288.44 238.82 291.92 242.62 294.72 245.1 296.69 247.33 298.25 249.54 
M 357.58 148.33 363.31 146.33 366.01 145.04 369.86 143.5 374.15 140.03 375.97 139.41 378.01 138.16 384.05 135.81 385.96 134.85 388.41 133.29 390.46 131.67 393.24 129.16 395.3 127.56 398.03 124.61 399.64 123.4 401.99 122.31 404.15 120.11 407.26 119.83 410.95 117.97 419.36 118.61 421.65 119.51 424.33 120.8 428.26 121.94 435.57 123.29 438.96 124.62 441.93 125.49 443.94 125.34 446.3 125.54 448.32 125.41 450.52 125.9 451.11 127.88 452.49 130.63 454.16 133.68 455.64 135.43 458.59 136.65 463.48 140.12 469.9 146.41 471.87 149.98 474.35 156.21 475.44 159.5 475.26 161.51 475.37 163.82 475.02 167.89 476.15 171.23 476.76 176.81 476.57 179.16 477.65 185.32 477.77 188.02 477.02 189.86 474.94 191.15 473.41 193.12 470.76 197.48 467.84 201.58 467.29 204.55 466.36 207.14 464.27 208.55 461.22 209.02 458.75 210.05 457.79 212.59 456.37 214.7 454.33 216.21 449.62 218.57 446.44 218.88 444.21 219.68 434.34 222.56 432.22 223.82 430.75 225.74 428.71 226.86 426.02 227.05 423.57 227.47 420.67 227.66 412.5 227.78 409.32 225.11 407.95 222.93 405.41 221.49 401.22 221.24 398.3 220.38 396.11 218.25 395.22 216.87 393.2 216.63 390.51 215.38 388.5 213.44 386.32 211.63 383.85 210.46 381.57 208.84 380.03 206.59 372.33 200.87 370.24 199.09 367.4 197.99 365.24 196.53 363.12 194.62 357.58 190.41 
M 360.27 149.68 368.17 146.92 372.65 144.84 374.38 143.02 378.79 141.22 381.33 140.42 386.02 138.59 388.33 136.79 392.62 133.05 395.07 131.67 398.53 130.51 400.95 130.64 403.12 129.57 404.34 128.82 406.14 126.44 408.87 123.68 411.86 122.95 415.59 120.43 
M 357.58 152.54 360.21 152.14 365.8 150.35 368.7 149.67 370.78 148.47 372.85 147.57 377.08 144.7 379.47 143.86 381.96 143.73 383.84 143.33 386.72 141.97 391.42 138.48 395.99 135.56 399.33 134.46 402.07 134.35 406.38 132.45 407.63 132.66 409.98 131.92 412.44 129.46 
M 365.87 152.76 368.62 152.2 371.02 151.28 373.09 149.98 375.79 149.25 380.09 147.03 382.44 146.7 386.95 145.32 389.37 144.21 393.39 141.29 396.69 140.04 400.49 138.22 403.12 138.07 405.61 137.39 
M 357.58 156.75 360.52 156.18 363.32 155.9 374.2 153.18 376.8 151.57 379.16 150.95 380.95 149.86 383.13 149.87 385.44 150.29 388.09 149.67 389.97 147.76 392.24 146.19 394.24 145.44 399.97 143.79 402.51 144.04 405.22 143.47 408.66 141.95 410.83 140.13 413.42 139.39 415.07 138.35 419.1 136.76 424.04 135.4 431.64 132.72 434.7 131.5 437.62 131.64 440.2 130.56 
M 360.58 158.55 365.94 157.9 377.15 154.51 379.68 153.59 386.8 152.45 389.16 152.85 390.85 152.54 393.05 151.89 398.42 149.29 400.68 148.56 403.1 148.2 405.47 146.88 408.55 145.64 414.42 144.69 416.11 143.86 418.54 143.45 420.94 142.56 422.6 142.8 424.72 142.41 
M 360.59 160.84 365.73 160.47 368.41 160 371.1 159.16 376.78 157.93 381.78 157.26 384.39 157.28 386.86 156.41 396.8 155.67 399.39 153.65 402.69 152.49 405.4 152.01 408.27 151.27 410.44 150.08 412.63 149.33 415.34 149.48 418.14 150.29 419.9 149.59 422 149.32 424.74 148.72 429.75 146.16 433.02 145.84 438.76 144.76 441.02 143.92 443.16 144.9 448.26 144.34 449.96 143.57 452.06 142.24 453.64 141.47 455.99 141.79 459.02 140.96 461.67 140.62 
M 357.58 163.06 363.28 162.81 365.85 163.08 368.63 162.83 371.09 161.99 374.13 161.47 379.76 160.83 384.29 160.91 392.08 159.53 394.47 159.38 400.66 157.42 406.27 156.83 408.83 156.77 413.15 155.63 416.39 155.27 418.86 155.66 420.89 155.69 427 154.47 429.17 152.84 431.62 152.53 433.61 152.99 435.34 151.76 437.17 151.17 440.63 151.52 444.29 152.9 447.39 151.66 
M 363.23 165.16 368.76 165.59 377.13 164.58 379.65 164.64 387.28 164.05 389.82 164.12 392.12 163.48 394.8 163.5 400.07 162.84 402.45 161.53 405.21 161.32 407.64 162.08 410.36 162.33 412.92 162.2 419.63 160.43 
M 363.4 167.48 368.65 167.76 371.23 168.13 379.79 167.57 382.46 167.9 385.12 167.6 387.72 167.56 389.8 168.24 391.68 168.29 396.72 167.54 399.35 166.89 403.03 166.33 405.01 166.95 407.32 166.88 410.78 167.9 413.71 167.66 416.74 166.81 419.78 166.22 422.5 165.15 424.76 165.58 428.67 164.99 431.79 165.09 434.56 164.94 438.83 166.54 441.64 167.42 445.2 167.72 448.46 167.35 451.72 166.14 453.72 164.13 456.8 164.89 460.32 164.92 463.44 164.18 
M 366.09 170.18 368.56 170.29 371.57 170.78 382.38 170.67 385.17 171.49 392.12 172.35 394.72 171.94 396.63 172.13 398.95 172 401.87 172.5 404.98 172.69 412.77 172.29 417.87 172.72 423.1 172.88 425.83 172.4 428.08 172.45 430.91 171.74 
M 360.35 172.21 368.6 173.47 371.23 173.52 380.05 174.21 385.02 175.47 387.33 175.83 391.61 175.49 394.21 176.18 396.75 176.05 410.41 177.62 412.53 178.05 419.89 177.23 422.2 177.4 424.35 178.27 
M 362.97 175.19 368.49 176.45 371.2 176.71 374.45 177.3 377.76 177.38 379.76 177.79 381.79 178.63 386.99 179.79 391.51 178.86 394.21 178.82 397.14 179.57 400.19 180.59 403.51 181.28 407.67 181.59 413.17 182.38 418.85 182.55 420.98 183.47 423.68 183.37 426.84 184 429.15 184.91 431.69 185.25 
M 362.91 177.81 365.55 178.64 371.1 179.9 374.21 180.44 377.29 180.74 381.67 181.96 387.07 182.44 389.41 183.56 391.61 184.1 393.83 184.35 396.81 185.61 399.98 186.64 408.28 187.29 409.96 186.99 412.7 187.61 414.17 187.56 417.09 188.41 419.99 188.82 422.4 189.75 425.12 190.27 427.51 191.44 432.55 192.13 437.93 193.53 
M 357.58 177.79 360.36 179.12 365.59 181 368.22 181.43 376.83 183.82 381.61 184.91 384.78 184.71 387.28 185.3 389.52 186.64 391.72 188.46 394.4 188.92 397.15 189.82 400.25 191.19 402.97 191.58 405.7 192.48 407.96 191.83 411.79 192.82 415.25 193.35 418.43 194.07 420.96 194.7 423.48 195.61 425.62 195.76 426.82 196.73 435.29 199.93 438.29 200.72 
M 363.45 182.26 368.32 183.72 373.82 186.08 376.58 186.77 379.28 187.71 381.52 188.34 386.81 189.13 394.02 193.63 396.6 194.39 399.8 195.1 401.89 195.96 403.93 197.25 406.03 196.88 409.19 197.35 412.68 197.4 414.92 198.38 417.46 200.03 422.81 201.24 424.6 202.39 426.24 202.67 432.2 204.75 434.25 207.65 435.91 208.93 439.43 209.99 445.84 209.37 449.09 210.04 
M 360.98 183.62 363.44 184.63 368.56 186.38 370.93 187.49 373.26 189.05 375.75 189.61 378.24 190.58 380.71 191.22 383.37 192.34 385.61 193.69 388.12 194.62 390.84 195.27 396.81 198.18 398.56 199.56 400.6 200.6 402.82 200.8 405.06 201.57 407.55 201.59 409.69 202.15 413.87 204.7 417.39 205.5 
M 363.3 187.14 365.71 187.93 368.16 189.15 370.31 190.7 372.65 191.88 379.5 194.35 381.88 195.47 384.29 197.66 389.92 200.3 392.33 201.93 394.61 203.08 396.52 204.73 402.75 205.29 
M 357.58 186.2 360.93 188.31 365.5 190.59 370.18 193.78 372.7 194.42 376.81 197.02 382.14 199.79 384.13 201.9 386.48 203.59 388.89 205.64 390.51 206.69 396.07 209.14 401.5 210.23 402.47 211.3 404.78 213.01 407.25 213.63 410.27 213.78 413.56 214.91 418.51 218 420.9 218.81 
M 357.58 188.31 360.69 190.64 363.16 191.94 365.38 193.61 367.28 195.41 369.55 196.8 371.99 197.5 374.47 198.98 379.58 202.63 382.1 205.28 386.57 208.22 388.45 208.77 390.8 210.46 393.36 211.85 396.79 212.61 399.13 214.05 
M 332.46 127.1 335.54 122.22 336.74 120.76 339.35 118.06 340.86 116.92 342.68 116.09 344.79 115.53 347.13 115.22 349.78 115.41 352.47 117.05 354.76 120.05 356.13 123.77 356.32 127.31 355.29 129.84 352.64 133.91 350.61 138.6 349.21 141.03 
M 336.14 124.88 339.35 121.45 340.86 120.3 342.68 119.47 344.79 118.92 347.13 118.6 349.78 118.8 352.47 120.43 354.76 123.43 355.45 125.29 
M 67.03 164.27 67.76 162.42 69.2 160.18 73.67 153.74 76.94 149.85 81.28 146.34 86.53 143.61 92.9 141.02 99.95 138.5 127.2 130.67 138.34 127.22 148.29 124.75 150.75 129.57 152.1 134.55 153.88 144.57 155.21 149.55 160.23 164.39 162.34 179.48 161.87 194.79 161.34 199.93 160.71 210.17 159.8 215.34 156.62 220.65 143.67 220.2 134.2 219.38 125.72 217.87 117.81 215.8 110.55 213.35 104.2 210.84 98.65 207.91 93.57 204.56 88.54 200.32 
M 84.97 196.93 83.88 195.89 79.75 190.96 76.12 185.83 73.31 181.54 71.45 178.32 69.55 174.37 
M 134.43 153.88 135.58 158.13 135.59 162.27 134.75 169.75 132.64 175.88 132.24 178.68 132.13 181.64 132.91 184.77 134.18 188.21 135.41 192.2 134.82 196.81 119.78 197.7 113.66 197.6 107.53 196.93 101.58 195.71 96.19 194.09 91.4 191.69 
M 86.29 198.76 78.15 187.35 73.74 180.44 70.2 175.26 64.93 168.18 64.4 166.08 65.63 164.38 67.81 164.21 69.29 165.75 71.29 169.38 75.97 176.88 80.49 186.2 88.66 200.51 
M 87.13 200.49 80.83 196.58 70.56 189.67 63.76 184.67 53.04 177.97 42.55 170.75 42.22 168.71 43.49 166.98 45.6 166.88 57.5 176.16 64.42 181.23 70.69 186.79 83.8 196.93 87.76 199.83 
M 101.34 165.59 99.58 163.12 98.71 160.21 98.84 157.18 99.94 154.36 101.9 152.05 104.51 150.49 107.47 149.87 110.48 150.25 113.21 151.58 115.35 153.72 116.68 156.45 117.06 159.46 116.43 162.42 114.88 165.03 112.57 166.99 109.74 168.09 106.71 168.21 103.81 167.35 101.34 165.59 
M 113.85 154.79 114.92 156.97 115.22 159.38 114.72 161.75 113.48 163.84 111.63 165.4 109.37 166.29 106.94 166.39 104.62 165.69 102.64 164.28 
M 104.61 161.05 103.91 160.06 103.56 158.9 103.61 157.68 104.05 156.55 104.84 155.63 105.88 155.01 107.07 154.76 108.27 154.91 109.36 155.44 110.22 156.3 110.75 157.39 110.9 158.59 110.65 159.78 110.03 160.82 109.11 161.6 107.98 162.05 106.76 162.1 105.6 161.75 104.61 161.05 
M 104.38 160.63 105.25 161.5 
M 104.86 158.82 108.05 162.02 
M 105.03 156.71 109.55 161.23 
M 107.11 156.51 110.55 159.95 
M 108.56 155.68 110.82 157.93 
M 72.9 180.84 75.87 183.81 
M 70.87 168.66 72.09 169.88 
M 68.52 161.23 72.24 164.95 
M 70.56 158.2 73.24 160.88 
M 72.65 155.21 75.88 158.44 
M 74.85 152.34 78.37 155.85 
M 77.21 149.62 81.58 153.99 
M 80.02 147.36 85.05 152.38 
M 83.12 145.38 86.19 148.45 
M 86.46 143.65 89.52 146.7 
M 90.07 142.17 93.4 145.5 
M 93.7 140.73 98.41 145.44 
M 97.44 139.39 101.16 143.12 
M 101.25 138.13 104.6 141.48 
M 105.21 137.02 110.17 141.98 
M 109.15 135.88 112.29 139.02 
M 113.06 134.71 117.26 138.92 
M 116.98 133.56 119.53 136.11 
M 120.91 132.42 125.59 137.09 
M 124.89 131.31 129.26 135.68 
M 128.82 130.17 132.29 133.63 
M 132.7 128.97 136.98 133.25 
M 136.57 127.77 140.87 132.07 
M 140.52 126.64 145.59 131.71 
M 144.58 125.63 148.26 129.3 
M 161.73 176.73 161.91 176.75 
M 78.94 160.8 77.75 160.52 76.83 160.6 
M 79.92 191.16 80.38 190.46 
M 136.24 210.31 135.33 210.71 132.22 211.43 129.02 212.47 125.62 215.76 
M 145.32 187.3 147.42 185.98 149.34 185.04 150.27 185.1 150.8 186 
M 156.54 174.16 154.47 174.67 153.92 174.66 151.68 173.9 
M 148.5 197.28 147.53 195.68 147.14 194.72 147.01 192.75 146.15 190.57 146.25 189.38 146.91 188.42 
M 114.32 182.08 112.03 182.72 110.89 184 110.56 184.79 
M 155.48 152.05 153.21 149.88 152.66 149.12 152.32 148.06 152.34 146.14 152.49 145.66 
M 83.57 180 85.48 179 86.09 178.45 86.7 177.48 87.26 175.72 88.3 173.99 
M 115.06 188.6 113.8 189.61 113.53 190.21 113.56 191.05 114.27 191.5 
M 153.17 188.26 151.13 188.33 150.55 187.87 150.4 187.09 
M 139.27 160.85 139.05 159.54 138.71 159.04 138.07 158.79 137.04 159.04 
M 129.49 213.6 128.74 214.56 126.97 216.31 126.7 216.87 126.57 218.02 
M 74.98 152.99 76.42 152.33 77.44 151.57 78.25 150.46 78.72 149.18 79.57 148.48 
M 88.21 178.02 89.09 176.29 90.65 174.08 90.62 173.27 90.1 171.76 
M 118.62 183 118.23 182.2 117.63 181.55 113.83 178.53 111.92 177.26 110.48 175.81 109.97 175.16 109.91 174.53 110.21 173.14 
M 139.22 162.71 139.05 162.04 138.33 160.94 138.01 159.63 137.69 159.36 
M 126.27 164.95 126.19 164.51 125.65 163.55 124.41 162.4 123.27 161.91 120.46 161.62 
M 138.44 159.46 138.17 159.16 137.54 159.04 134.63 159.65 
M 74.43 152.84 75.35 152.71 77.36 151.45 78.17 150.43 78.56 149.19 79.17 148.7 
M 116.37 176.62 114.98 174.96 112 172.28 110.94 170.21 110.19 169.14 110.13 168.79 
M 98.64 150.49 99.51 151.24 100 152.52 
M 84.13 196.13 83.42 194.62 
M 130.14 161.63 128.39 162.19 125.59 162.36 124.01 161.86 120.49 161.49 119.24 161.22 
M 96.14 192.57 100.22 193.12 102.37 192.52 103.87 192.53 106.32 191.75 
M 129.2 152.36 128 153.3 127.18 153.56 126.66 153.44 126.39 153.15 126.2 152.46 125.84 149.05 
M 90.97 148.52 92.48 149.15 
M 115.31 145.21 115.21 144.66 115.65 141.76 116.95 139.94 
M 146.48 141.72 146.06 141.1 145.07 138.56 144.55 137.62 143.75 136.9 142.27 136.12 141.11 135.89 140.53 136.11 
M 129.43 210.15 127.82 210.6 127.07 210.98 124.88 213.34 123.05 214.63 119 216.11 
M 111.22 210.5 115.17 213.19 115.56 213.62 115.78 214.2 115.42 215 
M 82.29 193.99 82.53 193.51 
M 110.91 201.45 109.88 201.74 108.58 202.41 106.63 204.83 106.24 205.64 
M 99.75 175.68 99.15 176.54 98.54 178.08 97.58 179.37 
M 77.05 169.75 75.95 169.89 75.29 169.58 72.51 166.46 71.24 164.42 70.7 161.39 
M 97.81 143.95 100.29 144.72 101.85 144.48 102.29 144.27 
M 118.75 142.14 117.76 141.81 117.47 141.58 117.23 140.97 117.28 140.36 118.29 138.22 
M 129.59 146.93 129.56 148.25 129.27 148.81 127.88 150.37 127.5 150.64 126.88 150.73 126.56 150.35 126.28 149.55 
M 134.04 186.88 133 184.65 131.63 183.58 131.29 183.04 131.1 182.24 
M 141.77 157.82 140.15 158.25 137.96 158.18 137.03 158.76 
M 82.48 194.22 82.65 193.57 
M 104.96 193.64 106.83 193.03 108.9 191.55 110.12 190.92 111.74 190.85 112.53 191.12 
M 109.33 169.86 109.74 169.15 109.96 168.01 
M 81.67 164.54 80.92 163.66 79.11 162.92 76.87 162.44 76.34 161.94 
M 134.66 148.75 132.93 149.61 131.88 150.35 128.53 153.45 127.56 153.85 126.84 153.84 126.42 153.59 126.09 152.45 
M 128.28 158.29 125.82 157.76 123.08 156.48 119.7 155.33 119.19 155.02 
M 109.7 196.71 111.42 196.24 115.8 194.28 116.46 194.12 117.08 194.21 118.25 195.24 
M 131.97 209.59 127.88 210.86 127.15 211.24 124.94 213.53 124.07 214.18 123.12 214.77 121.27 215.39 
M 123.54 161.94 120.01 161.55 118.46 161.01 118.14 160.72 117.46 159.22 116.99 158.93 
M 112.91 148.49 112.72 147.97 111.96 147.59 111.46 147.12 111.25 146.43 111.42 145.84 
M 80.9 155.11 82.03 149.98 82.02 149.39 81.76 149.03 
M 138.76 215.9 137.75 215.54 137.01 214.96 136.7 214.9 
M 99.26 162.63 98.62 163.8 98.07 164.36 97.62 164.53 97.03 164.5 
M 143.02 158.33 142.88 157.36 143.41 156.43 145.13 155.45 147.15 153.45 
M 86.21 190.57 85.52 189.95 84.7 189.59 83.95 189.88 82.98 190.57 
M 80.78 192.18 81.14 191.55 
M 96.41 149.8 98.7 150.85 99.56 151.55 
M 100.3 183.33 98.38 183.18 97.97 182.92 97.38 182.11 
M 101.29 201.71 101.32 203.33 101.06 205.1 100.65 205.7 99.91 205.88 97.97 205.67 96.13 205.81 
M 103.09 184.78 103.2 185.14 103.48 185.35 105.99 185.52 
M 146.94 147.52 146.47 145.32 145.45 143.58 144.54 142.69 144.06 141.97 
M 89.7 201.47 88.83 202.29 87.48 204.13 83.58 212.05 78.32 220.76 77.15 223.01 76.43 224.14 75.54 225.14 73.53 226.84 72.41 227.54 71.18 228.06 68.58 228.46 59.72 227.46 55.92 227.36 59.73 227.32 68.55 227.85 70.93 227.35 73.01 226.12 74.79 224.44 75.53 223.5 81.94 211.2 85.45 202.99 86.98 200.66 87.91 199.68 
M 54.6 178.97 62.31 185.76 68.55 190.7 75.27 195.38 82.3 199.64 86.17 201.75 
M 88.32 202.91 104.2 210.84 
M 151.9 133.83 154.93 136.86 
M 149.05 124.21 156.19 131.35 
M 153.31 121.7 162.78 131.18 
M 157.56 119.19 164.18 125.81 
M 161.8 116.66 167.78 122.64 
M 166.03 114.12 171.81 119.91 
M 170.23 111.56 177.25 118.57 
M 174.53 109.08 180.32 114.88 
M 179.1 106.89 185.97 113.76 
M 183.56 104.59 191.22 112.25 
M 187.89 102.15 196.05 110.3 
M 192.11 99.6 197.98 105.47 
M 196.22 96.94 205.71 106.43 
M 200.36 94.31 205.54 99.49 
M 204.53 91.72 211.98 99.17 
M 208.68 89.1 217.34 97.76 
M 212.81 86.46 218.63 92.28 
M 217.05 83.93 224.33 91.21 
M 221.46 81.57 230.02 90.14 
M 226.09 79.43 232.1 85.45 
M 230.92 77.5 240.79 87.36 
M 237.08 76.89 245.79 85.6 
M 244.28 77.32 252.89 85.93 
M 252.28 78.56 259.99 86.27 
M 260.97 80.48 267.36 86.87 
M 271.77 84.51 279.32 92.06 
M 286.93 92.9 294.16 100.13 
M 312.11 111.32 321.73 120.93 
M 345.14 137.58 354.03 146.47 
M 244.28 291.39 239.99 297.7 
M 244.28 291.39 244.79 297.7 
M 241.52 295.6 244.52 295.6 
M 248.18 291.39 246.29 297.7 
M 253.25 293.5 251.99 297.7 
M 252.98 294.39 252.56 293.8 252.05 293.5 251.15 293.5 250.46 293.8 249.68 294.39 249.11 295.3 248.93 295.89 248.96 296.8 249.38 297.39 249.89 297.7 250.79 297.7 251.48 297.39 252.26 296.8 
M 259.27 291.39 257.39 297.7 
M 258.38 294.39 259.15 293.8 259.85 293.5 260.75 293.5 261.26 293.8 261.68 294.39 261.71 295.3 261.52 295.89 260.96 296.8 260.18 297.39 259.49 297.7 258.59 297.7 258.08 297.39 257.65 296.8 
M 264.68 291.39 264.89 291.7 265.27 291.39 265.07 291.1 264.68 291.39 
M 264.35 293.5 263.09 297.7 
M 270.05 293.5 268.61 298.3 268.04 299.2 266.95 299.8 266.06 299.8 265.55 299.5 
M 269.77 294.39 269.36 293.8 268.85 293.5 267.95 293.5 267.26 293.8 266.48 294.39 265.9 295.3 265.73 295.89 265.76 296.8 266.18 297.39 266.69 297.7 267.58 297.7 268.27 297.39 269.06 296.8 
M 275.75 293.5 274.49 297.7 
M 275.48 294.39 275.06 293.8 274.55 293.5 273.64 293.5 272.95 293.8 272.18 294.39 271.61 295.3 271.43 295.89 271.45 296.8 271.88 297.39 272.39 297.7 273.29 297.7 273.98 297.39 274.76 296.8 
M 277.37 297.1 276.98 297.39 277.19 297.7 277.58 297.39 277.37 297.1 
"/></svg>
