<svg xmlns="http://www.w3.org/2000/svg" width="520" height="320"><rect x="0" y="0" width="520" height="320" fill="floralwhite"/><rect x="10" y="10" width="500" height="300" stroke="black" stroke-width="1" fill="none"/><path stroke="black" stroke-width="1" fill="none" stroke-linecap="round" stroke-linejoin="round" d="
M 205.35 127.4 223.62 121.33 232.78 117.42 241.94 114.1 251.1 111.15 260.27 109.24 269.43 108.9 278.59 108.82 287.75 108.96 306.07 108.81 315.23 109.47 324.39 110.85 333.55 113.69 342.71 117.31 361.03 124.98 379.35 132.16 388.51 136.23 426.1 153.84 
M 426.1 183.15 397.67 199.97 370.19 215.61 351.87 224.79 342.71 228.04 333.55 229.23 324.39 230.87 315.23 232.86 306.07 233.17 296.91 232.63 287.75 232.61 269.43 234.04 260.27 233.93 251.1 232.17 223.62 223.26 214.46 218.74 196.18 207.97 
M 426.1 172.36 408.57 169.45 396.36 167.08 392.57 166.49 368.8 164.32 357.15 162.99 351.58 162.08 
M 347.95 161.45 339.17 159.74 335.77 158.73 332.37 157.71 323.85 154.24 
M 316.8 152.37 315.01 151.98 309.48 151.62 
M 301.82 151.02 297.89 150.43 
M 293.91 149.76 289.91 149.08 
M 285.9 148.43 281.9 147.88 
M 277.91 147.41 265.99 146.4 
M 262.11 146.3 258.3 146.35 
M 247.53 147.05 244.15 147.61 
M 237.34 149.1 233.81 150.01 
M 215.73 155.94 213.95 156.48 207.7 156.67 
M 198.29 203.48 198.53 203.8 
M 201.08 200.75 203.82 204.55 
M 203.92 197.53 209.13 205.24 
M 204.03 190.11 206.98 194.13 
M 212.14 201.96 214.48 205.72 
M 211.85 193.25 212.7 194.57 
M 215.15 198.47 217.45 202.25 
M 218.58 195.61 220.38 198.49 
M 222.62 202.2 224.85 205.9 
M 206.28 170.12 207.99 172.75 
M 224.77 196.91 225.51 198.16 
M 230.01 205.79 233.53 211.38 234.8 213.08 
M 207.25 163.74 212.37 171.61 
M 232.98 201.75 236.49 207.76 237.75 209.6 
M 207.84 156.22 213.11 164.82 217.24 170.79 
M 238.4 201.73 240.87 205.82 
M 209.46 150.28 215.74 160.36 218.42 164.39 222.55 169.98 
M 236.35 188.95 238.98 193.2 
M 241.55 197.59 244.09 201.89 
M 246.66 205.89 250.65 211.26 254.81 216.03 
M 260.5 221.99 263.38 224.72 
M 208.9 141.56 213.06 147.49 221.09 159.62 227.88 168.86 
M 230.68 172.56 236.28 180.37 
M 241.91 188.96 249.94 202.14 
M 252.53 205.96 255.14 209.48 
M 260.48 215.98 263.28 219.01 
M 208.59 134.09 212.94 139.63 218.44 147.07 226.45 158.52 237.46 173.7 243.28 182.36 255.75 202.36 
M 258.27 206.01 262.09 211.12 263.44 212.71 
M 207.79 126.61 221.1 142.68 226.61 150.01 233.14 159.29 
M 235.83 163.11 240.02 169.03 245.93 177.82 253.52 189.9 
M 256.3 194.44 261.4 202.41 
M 272.08 215.43 274.86 218.36 
M 212.06 125.23 223.7 138.46 229.33 145.42 234.59 152.75 246.92 170.81 
M 256.3 185.43 259.22 190.17 
M 269.61 205.61 272.34 208.85 
M 216.33 123.81 229.06 137.64 234.65 144.57 239.83 151.97 252.42 170.65 
M 255.61 175.55 264.73 190.08 
M 272.57 201.76 278.1 208.36 
M 220.59 122.36 234.3 136.87 237.08 140.26 239.75 143.84 243.65 149.45 
M 246.33 153.35 257.96 170.6 
M 261.16 175.56 267.33 185.34 
M 270.1 189.8 274.03 195.89 275.37 197.72 
M 278.11 201.29 280.9 204.67 
M 283.64 207.91 286.23 211.08 
M 288.66 214.23 290.99 217.38 
M 224.78 120.84 236.56 133.02 239.31 136.2 244.64 143.26 253.04 155.06 260.39 165.89 
M 263.45 170.67 266.6 175.61 
M 269.71 180.5 272.68 185.15 
M 278.1 193.56 282.2 199.2 286.28 204.35 
M 288.82 207.69 291.22 211.01 
M 295.82 217.51 298.21 220.55 
M 228.79 119.13 238.84 129.38 241.53 132.39 249.6 142.88 258.55 155.01 261.51 159.34 270.4 173.35 278.1 185.07 
M 280.88 189.37 283.56 193.41 
M 288.8 200.74 291.28 204.24 
M 293.67 207.73 295.98 211.18 
M 232.79 117.42 241.29 125.85 243.92 128.74 257.98 146.72 264.08 155.24 272.7 168.93 280.64 180.74 
M 283.66 185.21 286.36 189.41 
M 296.06 204.28 300.8 211.4 
M 237.11 115.85 243.98 122.39 246.58 125.21 249.12 128.28 263.67 146.99 266.72 151.3 271.01 157.98 
M 273.82 162.53 279.89 171.88 
M 283.13 176.56 289.07 185.37 
M 291.51 189.34 293.8 193.12 
M 241.6 114.22 246.85 119.05 249.46 121.8 252 124.82 267.91 145.41 
M 270.95 149.73 280.97 165.52 285.71 172.54 
M 288.85 177.11 291.7 181.41 
M 294.2 185.41 299.82 194.84 306.01 204.44 
M 308.53 208.09 313.43 214.7 
M 246.24 112.72 249.8 115.91 252.43 118.6 255 121.57 273.81 146.07 
M 276.8 150.42 285.49 164.02 
M 288.57 168.72 294.5 177.66 
M 297.01 181.66 299.26 185.42 
M 301.45 189.13 303.74 192.92 
M 318.5 214.66 321.09 217.73 
M 250.76 111.26 255.39 115.67 258 118.61 268.71 132.55 278.22 144.61 284.19 153.36 296.22 171.98 309.14 193.07 
M 311.67 196.99 314.16 200.85 
M 321.15 211.47 322.35 213.12 326.3 217.85 
M 255.44 110.25 258.36 113.1 260.94 115.98 271.61 129.6 279.27 139.02 
M 285.65 147.5 297.89 166 
M 309.92 185.71 312.34 189.5 
M 314.85 193.38 317.32 197.26 
M 321.81 204.68 324.02 208.19 
M 326.36 211.6 328.93 214.88 
M 259.77 109.35 263.89 113.69 266.48 116.77 274.52 126.84 285.11 139.68 
M 291.56 148.36 302.43 164.46 311.01 178.64 
M 313.25 182.34 318.13 189.93 
M 320.59 193.78 322.87 197.57 
M 264.37 109.09 269.44 114.61 286.14 134.42 295.8 146.93 303.73 158.18 
M 306.67 162.61 311.89 171.15 
M 316.49 178.97 321.28 186.58 
M 323.73 190.4 328.14 197.88 
M 337.36 211.89 340.08 215.17 
M 268.75 108.92 272.44 112.68 277.72 118.45 288.83 131.35 295.04 139.08 301.58 147.57 309.34 158.47 
M 312.16 162.85 317.2 171.41 
M 319.51 175.46 324.19 183.25 
M 326.56 187.07 328.87 190.82 
M 331.1 194.53 335.48 201.76 
M 337.84 205.26 340.36 208.71 
M 273.23 108.87 278.09 113.4 282.08 117.44 
M 284.73 120.36 294.5 131.87 305.68 145.84 
M 308.84 150.03 313.36 156.48 316.18 160.89 318.81 165.31 326.84 179.88 
M 331.44 187.52 336.1 194.89 
M 345.91 209.04 348.5 212.54 
M 277.95 108.83 281.16 111.43 286.37 116.35 295.76 126.99 
M 298.71 130.5 309.74 143.98 312.81 148.05 317.21 154.48 
M 320.01 158.93 323.89 165.7 327.19 172.26 
M 329.34 176.43 331.55 180.42 
M 333.85 184.25 341.15 195.29 
M 343.64 198.89 346.18 202.45 
M 283.18 108.89 286.75 111.67 291.91 116.58 301.48 127.31 
M 304.51 130.83 312.24 140.11 318.14 148.12 323.76 156.97 326.37 161.62 329.77 168.48 
M 336.19 180.94 338.6 184.74 
M 343.73 192.14 348.95 199.41 
M 288.67 108.95 292.27 111.77 294.87 114.15 298.85 118.21 
M 301.58 121.15 311.97 132.74 317.81 140.09 323.38 148.26 326.11 152.75 329.98 159.83 
M 332.3 164.52 334.38 169.06 
M 336.38 173.39 338.54 177.51 
M 346.23 189 348.97 192.71 
M 351.7 196.42 354.37 200.13 
M 294.21 108.94 297.87 111.86 300.56 114.35 310.55 124.46 
M 313.55 127.66 317.94 132.71 320.68 136.3 324.65 142.16 
M 327.29 146.41 332.52 155.61 
M 341.03 173.92 342.12 176.03 344.58 180.06 348.74 185.84 
M 362.36 204.78 364.71 208.39 
M 299.74 108.89 306.51 114.63 315.4 122.96 318.37 126.03 321.21 129.27 323.87 132.7 326.39 136.37 334.11 149.02 336.65 153.7 339.92 160.88 
M 341.86 165.59 344.84 172.35 346.03 174.46 
M 360.17 194.42 362.93 198.36 
M 305.21 108.82 312.8 114.79 318.85 120.07 321.81 122.95 325.93 127.65 
M 328.47 131.05 334.66 140.59 339.89 149.43 342.21 154.16 345.13 161.39 
M 351.44 175.05 352.71 177.17 357.01 183.29 
M 360.03 187.32 363.06 191.37 
M 368.63 199.44 371.05 203.26 
M 373.3 206.96 374.46 208.92 
M 311.6 109.21 319.26 114.85 325.21 120.05 328.02 122.95 330.63 126.06 333.07 129.35 340.68 140.86 343.32 145.25 345.72 149.86 347.8 154.66 351.45 164.37 353.49 169.04 354.65 171.26 
M 359.89 179.81 362.85 183.95 
M 368.91 192.22 374.25 200.38 
M 319.01 110.04 322.66 112.56 325.63 114.86 328.51 117.36 332.57 121.5 
M 337.48 127.68 343.93 136.94 346.67 141.2 349.2 145.69 351.39 150.38 354.21 157.68 
M 358.14 167.25 360.45 171.77 
M 377.25 197.07 379.56 201.19 
M 328.06 111.99 331.71 114.88 334.35 117.33 336.85 119.97 339.24 122.82 344.17 129.38 349.71 137.29 352.39 141.68 353.57 143.97 
M 355.77 148.63 357.75 153.44 
M 361.72 163.09 363.98 167.72 
M 366.41 172.16 367.66 174.32 371.78 180.65 
M 374.67 184.86 377.48 189.09 
M 382.39 197.69 384.4 201.63 
M 337.97 115.44 342.07 119.84 349.66 129.63 352.5 133.59 355.28 137.85 357.82 142.33 358.93 144.65 
M 361.07 149.34 365.22 158.88 
M 346.34 118.81 349.74 122.95 355.25 130.18 359.41 136.45 
M 361.92 140.88 369.77 157.05 375.99 168.23 
M 378.4 172.47 380.78 176.64 
M 383.2 180.88 387.94 189.79 
M 354.21 122.08 358.2 127.11 361.04 131.02 363.75 135.17 366.22 139.5 372 150.67 
M 374.48 155.15 379.53 163.96 
M 381.89 168.24 384.13 172.43 
M 390.89 185.6 393.18 190.33 
M 362.22 125.43 366.99 131.99 369.52 136.09 378.04 151.07 
M 383.16 159.71 385.5 163.98 
M 387.64 168.23 398.71 191.08 
M 369.93 128.39 373.02 132.91 380.36 145.06 385.68 153.44 388.18 157.68 391.38 164.1 
M 377.58 131.45 392.03 153.67 394.32 157.93 397.19 164.51 
M 399.03 169.01 399.98 171.28 402.24 175.88 408.56 187.84 
M 385.32 134.81 394.4 147.82 
M 396.98 151.96 398.2 154.08 400.26 158.46 404.04 167.51 405.17 169.82 
M 407.58 174.46 410.14 179.14 
M 393.5 138.57 399.24 146.29 400.52 148.34 
M 402.93 152.57 407.09 161.45 
M 409.29 166.03 414.39 175.33 
M 416.92 179.95 418.85 183.76 
M 402.16 142.65 405.14 146.94 407.54 151.09 413.13 162.19 
M 415.71 166.8 418.45 171.45 
M 409.99 146.35 419.22 162.86 
M 417.18 149.74 421.11 156.71 425.32 163.4 
M 424.58 153.13 425.85 155.19 
M 207.8 126.61 206.19 128.68 
M 214.56 124.42 208.47 132.75 
M 221.11 122.19 216.12 128.96 208.82 140.26 
M 227.9 119.51 223.69 125.09 219.04 131.97 214.37 139.54 209.5 147.89 
M 234.73 116.72 231.13 121.26 226.56 127.82 222.06 135.06 216.18 145.26 
M 211.36 153.95 207.42 161.02 
M 241.45 114.28 236.26 120.57 233.9 123.84 229.55 130.62 222.82 142.44 211.84 162.65 
M 209.47 166.79 207.16 170.71 
M 248.61 111.95 244.25 116.54 241.61 119.76 236.81 126.48 232.62 133.55 222.1 152.95 
M 219.6 157.69 214.77 166.82 
M 212.46 170.97 212.06 171.68 
M 255.96 110.14 252.57 113.08 249.83 115.91 244.48 122.33 242.01 125.75 239.76 129.26 237.69 132.87 232.4 142.93 
M 230.02 147.36 223.72 159.11 217.36 171.52 
M 206.18 190.04 206 190.27 
M 200.53 197.16 199.12 198.99 
M 263.53 109.12 260.91 110.87 258.14 113.09 255.42 115.67 252.7 118.59 247.31 125.13 243.75 130.45 
M 241.63 134.15 236.51 144.29 232.89 150.97 
M 230.36 155.6 225.42 165.15 
M 223.1 169.87 222.04 172.03 
M 210.58 192.48 209.15 194.3 
M 206.36 197.75 203.69 201.04 
M 271.1 108.88 266.42 111.66 263.68 113.66 259.62 117.3 
M 256.9 120.09 252.76 124.79 250.09 128.23 247.64 131.81 245.47 135.54 239.33 147.93 231.96 161.61 228.42 168.73 
M 214.68 194.68 213.38 196.51 209.2 201.67 
M 278.22 108.82 274.75 110.82 269.22 114.57 266.51 116.77 261.09 121.88 255.55 128.1 252.89 131.59 250.49 135.25 249.43 137.16 
M 247.39 141.09 242.13 151.68 234.94 165.37 230.11 175.18 
M 219.23 195.75 217.31 198.52 
M 214.58 202.12 211.81 205.51 
M 284.29 108.91 280.43 111.38 274.82 115.46 269.38 120.11 263.94 125.37 261.18 128.37 258.47 131.64 255.89 135.17 252.5 140.85 
M 250.41 144.85 248.32 149.03 
M 246.13 153.36 241.48 162.35 
M 239.15 166.95 232.65 179.89 
M 214.41 209.19 212.37 211.64 
M 289.81 108.95 283.3 113.76 280.53 116.01 275 120.97 269.6 126.16 266.89 128.99 262.89 133.73 
M 260.37 137.18 258.01 140.84 
M 255.77 144.72 251.4 153.02 
M 249.15 157.38 239.92 175.68 
M 227.85 197.57 227.62 197.94 
M 295.32 108.94 291.56 111.76 286.15 116.34 280.71 121.51 272.65 129.73 267.44 135.9 264.97 139.34 262.58 142.97 259.12 148.8 
M 254.57 157.16 249.93 166.03 
M 245.45 175.46 243.1 180.07 
M 238.11 188.87 235.52 193.22 
M 232.84 197.58 230.11 201.81 
M 222.24 212.89 220.25 215.4 
M 301.26 108.87 297.14 111.84 291.69 116.57 286.33 121.87 278.43 130.38 273.36 136.54 270.91 139.94 265.99 147.19 262.43 153.07 
M 260.11 157.18 255.41 165.88 
M 253.21 170.61 251.05 175.47 
M 243.75 189.04 241.04 193.25 
M 307.64 108.92 302.92 112.06 297.29 116.78 291.87 122.14 287.99 126.47 
M 285.45 129.42 281.68 133.94 279.23 137.17 271.83 147.81 266.79 155.45 263.24 161.58 
M 258.76 170.6 254.5 180.48 
M 246.8 193.67 243.9 197.74 
M 313.64 109.36 309.01 112.32 303.07 117.06 297.47 122.39 294.85 125.32 289.86 131.44 285.05 137.81 280.33 144.85 273.69 154.13 
M 271.1 158 267.47 164.01 265.26 168.35 264.24 170.72 
M 255.37 190.02 252.64 194.2 
M 246.74 202.04 243.73 205.89 
M 319.15 110.06 315.39 112.48 309.18 117.29 303.26 122.69 300.54 125.62 297.98 128.73 293.16 135.23 286.21 145.57 279.48 154.83 
M 276.74 158.66 272.9 164.55 270.65 168.74 268.61 173.26 265.59 180.57 
M 255.55 198.52 249.59 205.97 
M 243.73 213.08 240.96 216.32 
M 324.41 110.86 318.72 114.84 315.57 117.36 309.35 122.9 306.45 125.91 303.77 129.07 301.27 132.38 296.6 139.26 292.07 146.41 288.23 151.91 
M 282.6 159.39 279.85 163.26 
M 273.01 175.87 268.82 185.32 
M 266.47 190.02 263.92 194.48 
M 261.19 198.61 258.34 202.42 
M 255.42 206.02 249.6 212.94 
M 246.79 216.21 244.04 219.24 
M 328.71 112.19 325.11 114.86 318.87 120.07 315.71 122.96 311.2 127.65 
M 308.44 130.96 304.68 136.18 301.24 141.63 
M 299 145.33 295.52 150.95 291.55 156.57 
M 288.7 160.31 285.84 164.07 
M 280.73 171.99 276.39 180.6 
M 271.82 189.73 268.05 196.36 263.92 202.34 
M 261.07 206 258.23 209.47 
M 332.93 113.5 328.27 117.36 322.11 122.95 315.9 129.3 313.05 132.74 310.48 136.34 308.12 140.06 301.37 151.66 297.64 157.5 
M 286.62 172.69 285.39 174.65 281.98 180.86 
M 274.67 193.79 272.14 198 
M 269.49 202 266.71 205.79 
M 336.72 114.94 325.19 126.01 320.53 130.99 
M 317.63 134.52 316.24 136.33 313.75 140.11 305.92 154.08 
M 300.99 162.17 299.66 164.14 291.22 175.35 287.6 181.24 
M 280.09 193.51 276.35 199.59 272.43 205.38 
M 340.39 116.39 328.06 129.3 323.45 134.5 
M 320.64 138.19 319.3 140.09 316.92 144.02 313.66 150.15 
M 311.47 154.3 305.5 164.69 302.82 168.71 301.37 170.58 
M 293.02 181.55 288.08 189.44 
M 285.56 193.41 283.07 197.3 
M 280.61 201.12 278.1 204.9 
M 344.02 117.85 342.09 119.84 330.75 132.83 327.67 136.41 324.82 140.15 322.29 144.07 320.02 148.15 316.82 154.45 
M 314.6 158.67 311.01 164.93 308.41 169.02 305.62 172.91 304.14 174.7 
M 301.17 178.23 296.92 183.56 293.13 189.33 
M 290.7 193.25 286.01 200.84 
M 283.63 204.5 278.51 211.66 
M 275.77 215.13 270.29 221.67 
M 347.79 119.4 344.68 122.76 333.44 136.6 330.4 140.4 327.66 144.31 325.25 148.35 318.75 161.02 316.38 165.17 313.81 169.24 311.05 173.11 302.09 183.65 299.33 187.27 296.78 191.1 287.69 206.02 285.32 209.49 281.45 214.64 
M 351.89 121.1 350 122.97 347.44 126.03 337.81 138.71 
M 334.77 142.66 330.54 148.76 328.16 152.94 323.85 161.37 321.56 165.5 319.05 169.52 316.39 173.36 313.54 176.97 307.42 183.79 304.47 187.3 303.11 189.15 
M 298.12 196.78 295.87 200.58 
M 293.68 204.22 291.48 207.67 
M 286.79 214.29 284.23 217.61 
M 356.32 122.98 352.94 126.45 350.42 129.69 345.25 137 336.15 149.17 333.4 153.43 326.51 165.97 324.07 169.91 321.56 173.7 318.91 177.31 314.53 182.42 
M 311.48 185.8 307.03 191.08 303.11 196.76 
M 300.73 200.59 296.25 207.8 
M 361.1 125 358.75 127.2 356.03 130.28 348.24 141.31 338.87 153.89 336.05 158.22 328.86 170.47 322.77 179.47 
M 317.19 186.23 312.69 191.37 309.78 195 305.86 200.66 
M 301.08 207.98 298.79 211.31 
M 366.23 126.97 361.85 131.15 359.1 134.43 350.98 145.85 341.27 158.71 338.4 163 334.65 169.09 
M 332.3 172.9 326.59 181.7 324.12 185.05 316.99 193.54 
M 311.23 200.79 308.64 204.48 
M 303.75 211.48 301.37 214.65 
M 294.49 223.33 292.5 225.57 
M 371.28 128.93 367.81 132.13 364.78 135.34 361.96 138.82 354.89 148.53 
M 351.69 152.73 343.4 163.52 340.54 167.66 331.33 182.22 327.92 187.21 
M 322.64 193.95 319.65 197.41 
M 316.69 200.95 308.89 211.51 
M 376.17 130.88 370.58 136.25 367.47 139.69 364.55 143.35 355.48 155.48 347.09 166.14 
M 344.12 170.16 339.2 177.59 
M 337.05 181.04 331.63 189.3 327.9 194.32 
M 325.08 197.72 317.79 206.38 309.23 217.8 
M 380.85 132.82 376.54 136.99 373.21 140.47 370.02 144.13 366.99 147.97 360.87 156.14 347.88 172.68 345.24 176.37 336.48 189.74 332.9 194.67 
M 330.22 198.02 327.35 201.4 
M 314.32 217.76 312.05 220.69 
M 385.44 134.87 379.23 141.05 375.86 144.73 372.61 148.59 361.5 163.09 
M 358.19 167.27 354.98 171.29 
M 352.01 175.1 349.34 178.7 
M 346.94 182.11 340.28 191.81 
M 337.91 195.04 332.56 201.64 
M 326.86 208.3 324.2 211.53 
M 390.04 136.95 382.05 145.16 375.37 153.05 365.67 165.67 356.26 177.53 347.7 189.16 
M 345.38 192.32 343.01 195.47 
M 340.52 198.65 335.07 205.18 
M 394.59 139.08 388.41 145.52 381.6 153.31 366.75 172.17 
M 363.62 176.12 358.1 183.39 
M 355.6 186.69 353.16 189.83 
M 350.72 192.91 348.27 196 
M 345.79 199.09 337.79 208.62 
M 335.03 211.83 327.61 220.77 
M 399.16 141.23 391.43 149.58 384.45 157.6 368.08 178.44 361.4 187.47 
M 353.72 196.71 346.03 205.76 
M 343.37 208.87 340.67 212 
M 333.03 220.93 331.14 223.12 
M 403.69 143.38 387.08 161.88 383.64 166.11 375.61 176.62 
M 372.66 180.66 369.92 184.55 
M 367.3 188.2 363.39 193.22 359.34 197.68 
M 356.65 200.52 351.44 206.33 
M 408.14 145.48 400.33 154.3 393.04 162.06 389.45 166.14 382.87 174.52 378.48 180.81 
M 375.78 184.88 371.86 190.64 369.21 194.13 366.46 197.33 358.07 205.64 351.65 212.89 
M 412.5 147.54 406.1 154.99 395.18 166.43 390.05 172.49 
M 386.92 176.63 382.63 182.99 376.23 192.98 
M 373.56 196.56 372.18 198.28 370.72 199.78 
M 364.87 205.27 362.07 207.92 
M 416.86 149.59 408.41 159.47 400.94 167.1 395.62 172.88 
M 389.42 181.04 381.52 193.47 
M 421.31 151.63 414.28 160.18 410.89 164.06 401.47 173.63 
M 398.01 177.49 396.37 179.45 391.93 185.68 
M 389.18 189.87 386.56 193.96 
M 425.9 153.74 423.23 156.91 417.15 164.79 413.71 168.74 407.96 174.5 
M 404.16 178.34 402.32 180.28 398.94 184.31 394.45 190.48 
M 391.64 194.56 388.95 198.49 
M 426.1 161.65 421.83 167.43 
M 418.5 171.45 414.78 175.37 
M 410.85 179.23 405.14 185.15 403.41 187.19 
M 397.02 195.31 395.05 197.95 
M 426.1 170.53 423.28 174.09 419.58 178.06 413.68 183.99 
M 258.82 108.36 308.41 30 309.21 30.49 262.28 109.17 
M 272.91 108.01 309.23 47.19 310.05 47.66 276.33 108.84 
M 287.01 108.17 312.06 63.14 312.89 63.57 290.4 108.95 
M 301.11 108.1 317.74 77.53 318.58 77.96 304.5 108.83 
M 315.26 108.84 326.71 91.66 327.52 92.14 318.49 109.96 
M 329.14 111.75 335.45 105.19 336.21 105.75 332.15 113.26 
M 341.36 116.28 342.71 117.31 
M 304.46 38.45 303.51 41.84 303.12 45.18 303.24 46.83 303.59 48.45 304.14 50.07 305.6 53.27 
M 306.63 53.86 306.09 57.17 306.01 58.79 306.11 60.37 306.44 61.9 307.72 64.83 309.55 67.64 
M 310.6 68.19 310.71 71.44 310.93 72.98 311.34 74.45 311.95 75.83 313.75 78.32 316.08 80.59 
M 317.14 81.12 318.01 84.53 319.35 87.62 320.29 88.98 321.41 90.22 322.69 91.34 325.56 93.38 
M 326.59 93.98 327.42 97.31 328.72 100.31 329.63 101.63 330.73 102.82 331.99 103.9 334.81 105.85 
M 335.77 106.55 336.18 109.5 337.07 112.15 337.79 113.3 338.7 114.34 339.77 115.28 342.24 116.95 
M 303.95 40.15 303.22 43.52 303.12 45.18 303.24 46.83 303.59 48.45 304.83 51.67 
M 300.29 47.04 299.63 50.07 299.54 51.57 299.65 53.05 299.97 54.51 301.08 57.41 
M 296.62 53.93 296.04 56.62 295.96 57.95 296.34 60.57 297.33 63.15 
M 292.96 60.82 292.45 63.18 292.38 64.34 292.71 66.63 293.58 68.89 
M 289.3 67.71 288.86 69.73 288.8 70.73 289.09 72.69 289.83 74.62 
M 285.64 74.6 285.22 77.11 285.46 78.75 286.08 80.36 
M 281.97 81.49 281.64 83.5 281.83 84.81 282.33 86.1 
M 306.32 55.52 306.01 58.79 306.11 60.37 306.44 61.9 306.98 63.38 308.6 66.24 
M 302.84 63 302.57 65.81 302.94 68.48 303.41 69.76 304.8 72.22 
M 299.36 70.47 299.13 72.82 299.21 73.96 299.83 76.13 300.99 78.19 
M 295.87 77.94 295.69 79.84 295.94 81.64 296.26 82.5 297.19 84.16 
M 292.39 85.42 292.3 87.55 292.68 88.88 293.39 90.13 
M 310.62 69.83 310.93 72.98 311.34 74.45 311.95 75.83 312.76 77.12 314.88 79.47 
M 307.11 78.95 307.35 81.37 308.12 83.55 308.75 84.53 310.37 86.34 
M 303.6 88.06 303.98 90.53 304.74 91.95 305.87 93.21 
M 317.54 82.85 318.6 86.13 319.35 87.62 320.29 88.98 321.41 90.22 324.1 92.38 
M 314.79 92.1 315.48 94.23 316.58 96.09 317.3 96.89 319.05 98.3 
M 205.44 173.07 207.27 173 209.41 172.26 212.6 171.56 216.36 171.42 228.35 172.71 229.28 174.55 230.42 175.41 232.52 177.83 232.74 181.14 236.82 186.19 235.89 188.86 235.6 192.3 235.06 195.49 232.73 197.09 230.53 198.13 215.58 194.98 213.24 194.18 211.19 192.81 204.7 189.18 201.78 187.83 
M 209.48 173.77 212.54 173.62 215.35 173.03 
M 206.24 176.05 209.52 176.01 212.61 174.97 215.57 174.65 218.49 174.76 
M 206.5 177.98 209.42 178.14 212.04 177.39 214.98 177.02 
M 203.64 179.83 206.9 180 212.3 179.38 215.21 179.39 220.86 178.3 
M 203.4 181.18 206.95 181.59 209.82 181.65 212.29 181.45 214.96 181.64 217.91 182.15 223.49 182.01 
M 203.2 182.35 209.67 183.35 212.39 183.37 215.33 183.63 218.05 184.87 221.81 185.81 
M 202.95 183.49 203.64 183.77 210.1 185.27 212.34 186.01 214.9 186.49 226.27 189.99 
M 202.61 184.71 203.7 185.13 207.19 185.87 210.19 186.77 211.42 188.29 214.16 189.45 217.67 190.05 226.07 193.63 
M 204.04 186.7 207.18 187.94 210.22 188.86 211.99 190.64 214.54 191.64 
M 260.27 233.93 265.39 238.79 267.95 241.45 268.22 244.13 279.19 268.23 276.68 269.57 274.55 271.28 272.73 273.35 269.63 278.18 267.27 279.03 263.86 277.9 260.92 278.8 258.28 280 255.68 278.14 251.09 273.99 248.11 271.59 240.74 265.16 229.12 231.94 227.6 228.04 223.62 223.26 
M 255.64 233.05 260.72 239.92 262.94 242.47 264.94 245.26 265.52 247.35 266.7 249.67 271.21 255.2 273.02 257.84 
M 251.02 232.15 256.63 241.39 259.15 244.36 261 247.57 262.41 252.39 265.09 257.92 265.65 260.67 266.91 264.35 268.29 266.87 269.75 270.26 
M 246.55 230.69 248.52 234.6 249.78 237.65 251.45 243.33 253.03 246.56 255.98 251.41 257.63 254.94 258.64 257.85 259.7 259.69 260.45 261.94 262.32 265.07 
M 242.07 229.23 245.2 235.73 246.74 238.23 247.9 241.17 248.87 245.09 249.22 247.97 253.16 257.37 255.93 261.38 
M 237.59 227.79 239.31 231.42 240.52 234.42 241.41 237.36 244.76 242.16 245.98 245.57 246.82 248.59 247.44 252.1 247.39 254.56 248.31 257.55 249.92 260.13 
M 233.11 226.35 235.05 230.26 236.24 233.16 238.25 239.65 239.6 242.14 240.27 244.23 242.07 246.91 242.83 250.1 243.66 259.67 244.49 261.8 244.95 264.45 
M 228.63 224.89 230.76 228.93 231.82 232.45 234.31 238.05 234.81 242.06 234.75 244.98 235.38 248.13 237.82 250.71 239.39 253.2 240.41 255.74 240.67 261.18 
M 398.65 198.58 408.98 207.35 408.44 208.12 396.7 201.36 
M 386.39 205.59 413.86 226.67 413.31 227.44 384.42 208.35 
M 374.16 212.61 404.46 237.12 403.89 237.87 372.11 215.31 
M 361.64 219.07 394.48 248.2 393.88 248.92 359.46 221.66 
M 348.97 225.12 378.97 260.07 378.27 260.7 346.46 227.4 
M 335.29 228.21 358.43 263.54 357.65 264.08 332.51 230.15 
M 321.47 230.94 340 263.7 339.2 264.19 318.58 232.7 
M 307.56 232.36 312.91 244.81 312.08 245.26 304.58 233.98 
M 407.26 207.45 406.94 211.52 407.16 215.46 407.59 217.36 408.24 219.22 409.07 221.03 411.11 224.57 
M 410.42 225.53 407.56 226.71 406.26 227.43 405.1 228.29 404.1 229.3 402.56 231.79 401.43 234.66 
M 400.71 235.61 397.73 236.91 395.16 238.61 394.1 239.69 393.2 240.92 392.45 242.29 391.2 245.29 
M 390.43 246.2 386.51 247.52 382.92 249.3 381.32 250.45 379.84 251.79 378.48 253.28 375.97 256.57 
M 375.09 257.37 370.71 256.76 368.54 256.63 366.4 256.71 364.29 257 360.16 258.22 356.11 260.01 
M 355.14 260.69 351.38 259.42 347.62 258.72 345.73 258.69 343.84 258.88 341.95 259.27 338.15 260.42 
M 337.14 261.04 332.33 256.17 329.82 253.88 327.2 251.76 324.45 249.82 318.57 246.46 312.37 243.57 
M 407.06 209.49 406.95 213.51 407.16 215.46 407.59 217.36 408.24 219.22 410.05 222.8 
M 408.96 226.09 406.26 227.43 405.1 228.29 404.1 229.3 403.26 230.48 401.97 233.2 
M 402.03 222.45 399.96 223.47 398.31 224.91 397.66 225.81 396.67 227.89 
M 395.11 218.8 393.05 219.97 392.07 221.14 391.37 222.59 
M 399.19 236.23 396.38 237.69 395.16 238.61 394.1 239.69 393.2 240.92 391.79 243.76 
M 393.53 232.9 391.21 234.1 389.33 235.74 388.59 236.76 387.43 239.11 
M 387.87 229.56 386.04 230.51 384.56 231.8 383.98 232.6 383.06 234.45 
M 382.21 226.22 380.29 227.35 379.36 228.45 378.69 229.8 
M 388.45 246.83 384.66 248.33 382.92 249.3 381.32 250.45 379.84 251.79 377.2 254.9 
M 382.45 242.71 379.32 243.95 377.89 244.75 375.34 246.81 373.17 249.37 
M 376.44 238.6 373.98 239.57 372.85 240.21 370.84 241.82 369.13 243.84 
M 370.43 234.48 368.63 235.2 367.05 236.21 365.09 238.32 
M 372.89 257.02 368.54 256.63 366.4 256.71 364.29 257 362.21 257.51 358.13 259.08 
M 367.28 251.9 363.69 251.57 361.92 251.63 358.47 252.3 355.1 253.59 
M 361.66 246.77 358.83 246.52 356.07 246.75 354.72 247.09 352.07 248.1 
M 356.05 241.64 353.98 241.46 351.96 241.63 349.04 242.62 
M 353.26 260.01 349.5 258.97 347.62 258.72 345.73 258.69 343.84 258.88 340.05 259.81 
M 347.13 253.13 344.24 252.33 342.8 252.13 339.9 252.26 337 252.97 
M 340.99 246.24 338.98 245.68 336.97 245.53 333.94 246.13 
M 334.76 258.57 329.82 253.88 327.2 251.76 324.45 249.82 321.57 248.06 315.49 244.98 
M 425.15 153.39 428.32 152.59 433.28 149.6 435.77 148.57 441.47 146.67 443.88 145.1 445.88 143.33 450.53 140.53 453.58 139.09 456.7 138.28 459.75 138.54 462.61 137.43 467.75 133.04 472.43 127.74 469.31 137.17 466.31 141.82 465.19 144.63 463.66 147.09 460.76 148.17 458.62 150.01 457.33 152.68 455.56 154.91 453.42 156.74 452.8 159.59 451.43 162.2 449.38 164.13 448.72 167.46 447.72 170.33 446.4 172.44 445.91 175.05 447.08 177.17 448.68 179.27 448.75 181.95 449.12 184.94 449.78 187.41 451.04 190.33 451.56 193.3 451.72 196.1 451.6 198.86 451.04 200.77 450.59 204.08 449.05 201.55 447.33 199.49 446.06 197.36 444.32 195.89 441.68 194.41 438.15 193.43 431.63 189.48 428.59 187.08 425.15 183.7 
M 431.37 153.14 433.74 151.6 436.42 150.2 439.03 149.55 441.93 148.48 445.06 147.69 449.11 144.9 451.8 143.67 454.63 142.12 459.91 140.64 
M 425.15 156.42 428.97 156.27 436.95 152.62 439.43 151.97 442.43 150.82 445.08 150.05 447.56 148.77 450.45 148.48 452.91 146.86 456.43 145.97 
M 434.48 156.45 437.13 155.42 440.59 154.72 445.9 152.53 447.87 151.48 450.86 150.55 454.21 149.7 456.8 149.59 
M 425.15 159.45 429.42 159.65 432.57 159.61 437.76 158.34 440.52 157.44 443.7 156.11 446.25 155.27 448.99 153.95 451.56 153.69 
M 435.96 161.72 438.45 160.54 441.05 160.47 444.43 158.8 447.8 158.38 
M 430.26 166.13 434.02 166.1 436.91 165.69 439.43 165.14 
M 434.2 168.1 437.42 168.08 440.27 167.71 443.25 167.78 
M 430.12 169.36 434.07 169.77 
M 430.18 170.86 433.71 171.52 437.59 172 440.75 171.75 444.17 171.87 
M 429.98 172.43 440.65 174.19 
M 433.18 174.93 437.39 174.99 440.08 175.91 443.76 176.23 
M 437.44 177.05 441.54 177.1 
M 428.98 177.21 432.3 178.9 436.94 178.81 
M 428.66 179.01 431.68 180.59 436.48 180.68 441.51 181.58 444.86 182.38 
M 436.44 182.95 444.52 185.69 446.72 187.47 
M 436.37 185.36 440.14 187 442.91 189.37 446.18 191.08 
M 428.5 183.91 431.74 185.98 435.91 187.61 439.42 189.77 
M 431.84 188.06 438.91 192.14 442.12 193.23 445.31 194.7 
M 96.93 179.42 98.73 177.32 101.89 174.15 105.89 170.47 122.21 157.58 129.07 153.21 138.04 148.52 146.42 143.58 154.59 139.49 163.09 137.09 171.6 134.2 179.41 131.8 186.31 130.02 192.63 128.79 198.3 127.9 202.84 127.34 205.32 127.36 208.41 132.06 208.8 136.4 208.82 140.7 209.67 149.38 208.71 153.56 207.36 157.7 207.44 162.01 206.97 166.25 206.22 170.46 203.83 178.77 203.09 182.98 199.85 195.49 198.21 203.89 196.17 207.98 182.79 207.94 164.46 207.03 156.35 206.45 148.43 205.4 133.67 201.97 127.41 200.18 112.99 193.82 
M 108.84 192.02 105.09 190.22 101.33 187.84 
M 180.25 156.65 180.12 160.3 179.12 163.81 177.62 167.1 173.9 172.76 171.97 177.23 171.85 179.29 172.57 181.31 175.16 186.23 175.71 189.65 160.35 190.4 147.81 191.49 141.22 191.4 128.55 189.13 
M 111.46 193.34 108.47 191.82 93.96 183.77 92.95 181.57 94 179.61 96.26 179.06 98.27 180.15 105.38 186.55 113.39 193.22 
M 113.23 194.06 113.21 194.07 
M 110.07 194.94 103.94 196.37 90.07 200.08 87.66 200.36 85.66 198.92 85.51 196.48 87.19 194.94 89.49 194.61 101.63 193.8 111.44 193.34 
M 112.37 193.23 113.02 193.15 
M 143.71 168.95 142.54 164.54 142.88 159.99 144.67 155.8 147.72 152.41 151.71 150.2 156.2 149.4 160.71 150.11 164.74 152.24 167.86 155.57 169.74 159.72 170.16 164.27 169.08 168.7 166.63 172.54 163.06 175.38 158.76 176.9 154.2 176.95 149.87 175.51 146.24 172.74 143.71 168.95 
M 143.54 168.56 142.98 166.94 142.63 165.26 142.49 163.54 142.56 161.83 142.84 160.14 143.33 158.49 144.02 156.92 144.9 155.44 145.95 154.09 147.17 152.87 148.52 151.82 150 150.94 151.57 150.25 153.22 149.76 154.91 149.48 156.63 149.41 158.34 149.55 160.02 149.9 161.64 150.46 
M 145.28 167.84 144.8 166.44 144.37 163.51 144.43 162.02 144.94 159.69 
M 148.06 154.64 149.59 153.37 150.86 152.61 153.64 151.59 156.59 151.29 159.52 151.72 160.92 152.2 
M 147.02 167.12 146.36 164.71 146.25 163.47 146.31 162.22 146.67 160.46 
M 149.47 155.89 150.65 154.93 151.72 154.29 154.07 153.43 156.55 153.17 159.02 153.53 160.2 153.94 
M 148.76 166.4 148.43 165.44 148.14 163.43 148.42 161.17 
M 150.63 157.39 152.58 155.96 154.49 155.26 156.51 155.05 157.52 155.14 159.48 155.68 
M 151.29 165.54 150.82 163.77 150.94 162.1 
M 152.33 159.55 152.89 158.92 154.49 158.04 156.29 157.72 158.09 158 159.7 158.85 160.95 160.18 161.7 161.84 161.87 163.66 161.44 165.43 160.45 166.97 159.03 168.11 157.31 168.72 155.48 168.73 153.75 168.16 152.3 167.05 151.29 165.54 
M 154.08 158.26 153.03 160.36 
M 151.98 162.47 151 164.43 
M 155.71 157.82 153.97 161.3 
M 153.28 162.69 151.61 166.02 
M 157.11 157.85 154.92 162.23 
M 154.89 162.3 152.45 167.17 
M 158.37 158.15 153.47 167.95 
M 159.49 158.74 154.63 168.45 
M 160.45 159.65 155.91 168.73 
M 161.25 160.86 157.33 168.71 
M 161.77 162.65 159.06 168.08 
M 98.88 177.17 103.09 181.37 
M 101.7 174.34 106.25 178.88 
M 104.64 171.62 109.52 176.5 
M 107.69 169.02 113.2 174.53 
M 110.81 166.5 115.84 171.53 
M 113.99 164.03 119 169.04 
M 117.16 161.55 122.56 166.95 
M 120.32 159.07 124.87 163.61 
M 123.6 156.69 127.44 160.53 
M 127.05 154.5 130.74 158.19 
M 130.61 152.41 134.14 155.93 
M 134.32 150.47 138.43 154.57 
M 138.03 148.53 141.07 151.56 
M 141.59 146.43 146.05 150.89 
M 145.14 144.34 150.12 149.32 
M 148.83 142.38 152.06 145.6 
M 152.59 140.49 157.04 144.94 
M 156.66 138.91 160.6 142.85 
M 161.06 137.66 164.38 140.98 
M 165.36 136.32 169.24 140.19 
M 169.58 134.89 175.16 140.46 
M 173.86 133.51 178.76 138.42 
M 178.18 132.18 182.54 136.54 
M 182.62 130.97 187.66 136.02 
M 187.15 129.86 191.89 134.6 
M 191.88 128.93 196.6 133.66 
M 196.73 128.14 200.07 131.48 
M 201.72 127.48 206.54 132.3 
M 190.54 134.92 191.78 133.13 193.66 131.56 194.17 131.4 195.66 131.41 
M 162.96 178.01 163.39 175.11 
M 121 168.55 120.57 168.39 119.71 168.73 118.72 170.19 117.88 170.75 115.02 171.77 114.18 171.89 
M 151.7 144.55 151.31 144.34 150.93 144.38 
M 151.8 200.99 152.19 200.24 152.6 196.69 152.34 195.33 151.49 193.5 
M 199.78 164.92 197.61 165.07 196.85 165.42 196.63 165.76 
M 180.76 154.24 179.3 155.23 178.33 155.5 177.88 155.37 176.6 154.19 173.95 152.51 
M 166.95 174.63 167.48 172.34 167.37 171.38 
M 160.59 150.09 160.69 147.79 160.3 146.07 159.97 145.43 159.51 145.03 158.36 144.67 157.81 144.68 
M 136.44 152.52 137.94 151.99 138.54 151.28 
M 165.21 143.47 166.58 140.7 167.21 140.13 169.61 138.52 170.07 138.06 170.7 136.84 
M 190.12 150.43 189.42 150.06 188.57 149.87 188.11 149.89 187.07 150.29 186.3 150.88 185.21 152.41 183.24 154.33 
M 117.72 171.54 116.31 171.65 114.93 172.15 114.12 172.25 112.61 171.87 111.48 171.78 
M 171.39 182.23 170.88 184.3 171.18 186.02 171.48 186.55 172.44 187.58 173.83 188.55 
M 106.24 190.78 106.21 190.54 
M 201.71 188.13 201.5 188.32 
M 135.26 200.52 135.79 200.56 137.58 201.34 138.6 201.53 140.52 200.81 
M 200.64 136.75 203.81 133.99 
M 201.82 187.65 201.36 188.11 
M 142.16 166.18 141.2 166.46 140.31 166.34 139.58 165.86 138.41 164.48 138.13 163.86 137.99 162.69 138.21 161.88 138.64 161.36 
M 142.02 178.1 142.3 178.04 142.54 177.75 142.59 176.91 
M 129.55 197.19 129.31 194.6 129.58 192.27 129.4 191.21 129.49 190.68 129.84 190.04 
M 198.79 161.61 196.37 161.53 195.08 161.96 194.48 162.75 194.28 163.47 194.2 164.38 194.36 165.18 
M 173.95 174.98 175.27 175.56 
M 102.33 174.86 100.34 176.7 98.66 177.39 
M 172.46 137.26 173.19 135.91 173.76 133.54 
M 169.61 175.81 171.69 174.42 172.05 173.57 
M 111.93 187.9 109.75 185.74 108.43 183.72 108.13 181.78 108.2 180.8 108.8 178.81 108.81 177.78 108.06 174.63 108.06 173.87 
M 143.31 171.72 142.16 171.84 141.31 171.46 140.34 170.54 139.11 168.99 137.79 165.76 137.33 163.67 
M 203.34 181.52 202.02 182.01 200.26 182.28 199.13 182.34 198.49 181.99 
M 125.74 199.47 125.54 198.61 
M 151.59 189.12 153.67 186.65 156.02 183.45 157.47 182.27 159.09 181.72 
M 180.54 131.51 180.46 132.16 180.16 132.62 
M 174.05 151.41 172.13 150.14 170.84 148.58 170.03 147.19 168.41 145.69 168.07 144.68 168.16 143.54 
M 136.47 163.3 136.51 162.01 136.83 161 137.64 159.82 138.56 159.42 
M 140.3 172.45 139.53 171.71 138.05 169.77 136.48 164.79 136.25 163.42 
M 141.8 202.63 141.24 201.25 140.84 200.83 140.44 200.71 
M 122.09 176.99 122.74 177.84 123.66 178.54 124.33 178.73 126.46 178.86 129.67 180.21 131.2 179.96 
M 123.72 158.66 123.35 158.17 122.89 157.88 122.02 157.73 
M 180.96 187.68 181.73 187.22 182.31 186.6 183.69 184.61 184.38 183.35 184.51 182.68 184.43 181.93 183.84 179.77 183.9 177.41 
M 157.08 144.71 155.2 143.8 154.16 143.88 
M 157.37 176.92 157.33 176.98 
M 178.22 177.56 176.34 176.32 175.72 175.25 
M 155.55 141.5 155.02 142.16 154.43 143.57 154.22 143.76 153.9 143.77 
M 182.86 153.34 180.45 155.43 178.9 156.05 177.85 155.95 177.4 155.69 176.22 154.14 
M 196.07 147.8 197.04 147.31 198.57 147.37 199.2 147.58 203.08 150.23 204.57 152.06 
M 170.45 156.39 165.91 152.67 165.42 152.06 164.18 149.67 162.7 148.47 
M 183.53 130.74 182.95 131.27 181.71 131.84 
M 194.98 189.09 195.44 187.68 196.33 186.04 196.62 185.16 196.81 183.55 196.53 182.71 
M 182.28 184.34 183.09 183.06 183.27 182.3 182.59 179.02 182.64 175.24 182.38 174.59 181.31 173.5 
M 159.93 203.92 162.07 201.57 162.89 201.06 166.89 200.14 169.1 200.3 169.91 200.53 
M 203.36 181.44 202.07 181.96 199.17 182.32 198.51 182 197.36 180.53 
M 113.93 194.79 111.04 197.65 109.55 199.74 109.09 200.87 108.87 202.05 108.94 203.24 109.31 204.38 109.99 205.37 110.95 206.11 112.11 206.56 113.36 206.64 114.63 206.37 115.82 205.8 116.85 204.94 117.65 203.85 118.17 202.58 118.45 201.21 118.43 198.4 118.59 201.22 118.44 202.65 118.03 204.04 117.28 205.31 116.23 206.37 114.95 207.16 113.49 207.62 111.92 207.67 110.39 207.25 109.02 206.39 107.96 205.15 107.3 203.66 107.03 202.05 107.16 200.43 107.61 198.88 108.31 197.48 110.02 195 111.93 192.79 
M 101.51 200.89 100.41 203.58 98.95 206.17 94.07 213.09 92.79 215.46 91.86 217.94 91.44 220.54 91.52 223.19 92.1 225.79 93.13 228.27 94.56 230.54 96.43 232.45 98.68 233.91 101.22 234.93 109.41 236.82 123.28 239.52 131.63 240.9 109.27 237.6 100.89 236.01 98.13 235.03 95.59 233.52 93.43 231.47 91.74 229.03 90.49 226.34 89.73 223.45 89.52 220.46 89.88 217.46 90.82 214.61 92.12 211.96 96.72 204.83 97.94 202.45 98.88 199.87 
M 101.73 201.23 100.86 204 99.66 206.73 98.14 209.3 96.28 211.64 93.44 214.26 
M 90.21 216.46 86.68 218.26 78.62 221.1 73.44 223.2 68.53 225.83 61.35 230.29 59.13 231.98 57.08 233.88 53.41 238.14 50.23 242.79 47.56 247.76 50.14 242.73 53.14 237.93 56.67 233.49 58.68 231.47 60.89 229.65 70.34 223.35 75.44 220.76 85.87 216.52 88.29 215.22 90.58 213.76 91.69 212.83 
M 101.56 201.17 101.56 201.18 
M 95.8 212.11 94.47 213.82 92.77 215.5 
M 89.82 218 85.76 221.24 77.35 228.68 75.54 230.76 73.96 233.03 72.58 235.44 71.47 237.98 70.63 240.64 69.52 246.13 69.25 248.92 69.22 251.73 69.42 254.53 69.87 257.32 71.4 262.75 69.76 257.34 69.2 254.56 68.88 251.75 68.8 248.9 68.96 246.06 69.86 240.44 70.61 237.68 71.66 235 72.99 232.45 74.55 230.02 76.35 227.76 78.36 225.71 86.16 218.46 
M 112.98 193.83 113.7 194.34 
M 107.85 191.47 108.01 192.15 108.4 191.78 
M 103.17 188.83 102.99 189.36 103.08 190.52 103.45 189.69 104 189.27 
M 98.54 186.33 98.14 187.23 98.16 188.88 98.6 187.56 99.41 186.8 
M 93.96 183.76 93.28 185.1 93.23 187.24 93.74 185.43 94.83 184.3 
M 113.16 193.75 113.86 193.64 
M 108.79 193.49 108.85 193.49 
M 104.32 193.69 104.73 193.12 104.8 193.69 
M 100.02 193.97 100.63 192.79 100.7 193.9 
M 95.81 194.23 95.84 193.77 96.52 192.45 96.4 193.67 96.61 194.19 
M 91.62 194.51 91.64 193.75 92.42 192.12 92.19 193.66 92.48 194.46 
M 87.45 194.9 87.43 193.73 88.32 191.78 87.99 193.64 88.36 194.77 
M 93.52 199.16 100.45 200.47 104.7 200.9 107.12 200.98 
M 109.05 201.05 118.45 200.81 
M 118.57 200.8 127.41 200.18 
M 113.14 199.96 113.18 199.36 
M 120.28 199.77 120.77 200.67 
M 119.83 199.74 120.43 200.69 
M 208.6 134.12 209.74 135.27 
M 208.41 126.41 214.97 132.97 
M 214.1 124.57 220.4 130.87 
M 219.73 122.66 225.41 128.34 
M 225.24 120.64 234.87 130.27 
M 230.52 118.39 240.87 128.73 
M 235.94 116.28 244.1 124.43 
M 241.47 114.27 250.21 123.01 
M 247.15 112.42 257.95 123.22 
M 253.01 110.75 264.31 122.04 
M 259.25 109.45 267.15 117.36 
M 266.34 109.01 272.68 115.35 
M 273.72 108.86 282.05 117.19 
M 281.25 108.86 290.27 117.88 
M 288.88 108.95 297.27 117.34 
M 296.39 108.93 307.51 120.05 
M 303.83 108.84 312.09 117.1 
M 311.74 109.22 322.28 119.77 
M 320.28 110.23 328.74 118.69 
M 330.26 112.67 337.7 120.12 
M 342.24 117.12 351.62 126.51 
M 355.11 122.47 362.26 129.62 
M 367.73 127.55 376.16 135.98 
M 380.28 132.57 386.47 138.76 
M 394.09 138.85 402.42 147.17 
M 408.36 145.58 414.15 151.37 
M 422.47 152.16 433.39 163.08 
M 199.51 197.27 200.35 198.96 
M 201.21 194.09 203.74 199.14 
M 204.6 194.27 206.28 197.64 
M 209.65 204.38 210.49 206.06 
M 206.34 191.16 208.02 194.53 
M 213.07 204.63 213.92 206.32 
M 218.97 216.42 220.65 219.79 
M 215.66 203.2 219.02 209.94 
M 219.87 211.62 222.39 216.68 
M 219.08 203.46 220.76 206.83 
M 222.52 203.76 224.21 207.13 
M 206.99 166.1 209.15 170.41 
M 236.09 224.31 237.88 227.88 
M 207.56 160.65 210.93 167.38 
M 208.16 155.26 211.87 162.68 
M 214.39 167.73 215.24 169.41 
M 209.31 150.96 219.61 171.56 
M 209.1 143.96 223.13 172.02 
M 208.8 136.77 208.97 137.12 
M 211.5 142.17 226.68 172.53 
M 207.12 126.83 210.91 134.4 
M 214.28 141.14 225.23 163.04 
M 226.07 164.72 226.91 166.4 
M 231.12 174.83 234.49 181.56 
M 209.96 125.91 223.86 153.7 
M 234.8 175.59 236.49 178.96 
M 212.8 124.99 225.85 151.1 
M 250.27 199.94 251.11 201.62 
M 252.8 204.99 253.64 206.68 
M 257.01 213.41 257.85 215.1 
M 215.62 124.06 225.31 143.42 
M 248.05 188.9 252.26 197.32 
M 254.78 202.37 258.15 209.11 
M 265.73 224.27 266.57 225.95 
M 218.86 123.94 227.28 140.78 
M 238.23 162.68 239.91 166.04 
M 258.44 203.1 260.13 206.47 
M 267.7 221.62 270.23 226.68 
M 221.68 122.98 229.26 138.14 
M 240.2 160.03 241.05 161.72 
M 241.89 163.4 242.73 165.09 
M 251.99 183.61 252.84 185.3 
M 261.26 202.14 262.1 203.82 
M 270.52 220.67 272.2 224.03 
M 224.48 121.99 226.16 125.36 
M 227 127.04 232.06 137.15 
M 241.32 155.67 242.16 157.36 
M 263.22 199.46 264.9 202.83 
M 279.22 231.46 280.06 233.16 
M 226.77 119.99 234.77 135.99 
M 244.04 154.51 246.56 159.57 
M 229.49 118.83 236.65 133.14 
M 246.75 153.36 248.44 156.72 
M 264.44 188.72 268.65 197.15 
M 232.2 117.67 237.68 128.62 
M 249.47 152.2 251.99 157.25 
M 266.31 185.88 272.2 197.67 
M 234.98 116.63 239.61 125.89 
M 241.29 129.26 242.14 130.94 
M 253.08 152.84 259.82 166.31 
M 263.19 173.05 271.61 189.89 
M 277.5 201.68 278.35 203.36 
M 237.77 115.61 242.4 124.88 
M 244.08 128.25 246.61 133.3 
M 255.03 150.14 262.61 165.3 
M 266.82 173.72 273.56 187.19 
M 280.29 200.67 281.14 202.35 
M 281.98 204.04 282.82 205.72 
M 240.56 114.6 245.19 123.87 
M 246.87 127.23 249.4 132.29 
M 253.61 140.71 255.29 144.08 
M 256.14 145.76 263.71 160.92 
M 270.45 174.39 275.5 184.5 
M 276.35 186.18 278.87 191.24 
M 283.08 199.66 283.93 201.34 
M 243.37 113.64 248 122.9 
M 248.84 124.59 252.21 131.32 
M 253.9 134.69 256.42 139.75 
M 259.79 146.48 262.32 151.53 
M 272.42 171.75 280.84 188.59 
M 285.9 198.69 287.58 202.06 
M 246.21 112.72 254.21 128.73 
M 263.47 147.25 266 152.3 
M 275.26 170.83 283.68 187.67 
M 288.74 197.78 290.42 201.15 
M 249.05 111.81 251.99 117.7 
M 255.36 124.44 257.05 127.81 
M 264.63 142.97 269.68 153.07 
M 278.1 169.92 284.84 183.39 
M 251.92 110.98 254.87 116.87 
M 261.61 130.34 263.29 133.71 
M 264.14 135.4 271.71 150.56 
M 275.08 157.29 277.61 162.35 
M 282.66 172.45 288.56 184.24 
M 254.91 110.36 257.86 116.25 
M 263.75 128.04 266.28 133.09 
M 267.96 136.46 273.02 146.57 
M 277.23 154.99 282.28 165.09 
M 287.33 175.2 289.86 180.25 
M 310.07 220.67 312.59 225.73 
M 257.89 109.74 261.68 117.31 
M 267.58 129.1 269.26 132.47 
M 281.05 156.05 283.58 161.1 
M 260.93 109.22 263.88 115.11 
M 263.26 107.28 264.52 109.8 
M 269.57 119.91 270.41 121.59 
M 277.99 136.75 280.52 141.8 
M 265.09 104.35 266.35 106.87 
M 272.24 118.66 274.77 123.72 
M 275.61 125.4 278.14 130.45 
M 281.51 137.19 284.88 143.93 
M 286.56 147.29 288.24 150.66 
M 305.93 186.03 306.77 187.72 
M 266.92 101.42 268.18 103.94 
M 274.92 117.42 275.76 119.1 
M 278.28 124.15 289.23 146.05 
M 268.75 98.48 273.38 107.75 
M 277.59 116.17 278.43 117.85 
M 284.33 129.64 285.17 131.33 
M 286.85 134.7 296.11 153.22 
M 310.43 181.85 311.27 183.54 
M 270.58 95.55 277.73 109.87 
M 279.42 113.24 281.1 116.61 
M 289.52 133.45 300.47 155.34 
M 315.63 185.66 317.31 189.03 
M 272.41 92.62 284.62 117.04 
M 287.14 122.1 287.98 123.78 
M 290.51 128.83 295.56 138.94 
M 297.25 142.31 300.62 149.05 
M 302.3 152.41 303.99 155.78 
M 304.83 157.47 306.51 160.83 
M 318.3 184.41 319.99 187.78 
M 323.35 194.52 325.88 199.57 
M 274.24 89.69 288.13 117.48 
M 288.97 119.17 290.66 122.53 
M 293.18 127.59 297.39 136.01 
M 300.76 142.75 303.29 147.8 
M 304.97 151.17 307.5 156.22 
M 308.34 157.9 310.03 161.27 
M 320.97 183.17 322.66 186.54 
M 326.87 194.96 327.71 196.64 
M 329.39 200.01 330.24 201.69 
M 276.07 86.76 279.85 94.34 
M 280.7 96.02 300.07 134.76 
M 304.28 143.18 306.8 148.24 
M 307.64 149.92 309.33 153.29 
M 277.9 83.83 281.68 91.41 
M 284.21 96.46 293.47 114.99 
M 295.16 118.36 301.9 131.83 
M 302.74 133.52 303.58 135.2 
M 306.95 141.94 311.16 150.36 
M 279.73 80.9 284.36 90.16 
M 286.88 95.22 293.62 108.69 
M 297.83 117.11 299.51 120.48 
M 301.2 123.85 307.94 137.32 
M 308.78 139.01 309.62 140.69 
M 310.46 142.37 312.15 145.74 
M 321.41 164.27 322.25 165.95 
M 327.3 176.06 328.99 179.43 
M 341.62 204.69 343.3 208.06 
M 281.56 77.97 283.66 82.18 
M 284.5 83.86 285.34 85.55 
M 290.4 95.65 296.29 107.44 
M 298.82 112.5 302.19 119.23 
M 303.87 122.6 311.45 137.76 
M 324.08 163.02 327.45 169.76 
M 343.45 201.76 345.98 206.81 
M 286.33 80.93 288.02 84.3 
M 290.54 89.35 304.86 117.99 
M 306.54 121.35 313.28 134.83 
M 316.65 141.57 318.33 144.93 
M 319.17 146.62 322.54 153.36 
M 326.75 161.78 328.44 165.14 
M 338.54 185.36 339.39 187.04 
M 285.21 72.11 285.64 72.95 
M 291.53 84.74 309.22 120.11 
M 310.06 121.79 319.32 140.32 
M 320.16 142 321 143.69 
M 322.69 147.06 324.37 150.42 
M 338.69 179.06 339.53 180.74 
M 340.37 182.42 344.58 190.85 
M 292.52 80.12 298.41 91.91 
M 300.94 96.97 311.89 118.86 
M 314.41 123.91 321.99 139.07 
M 325.36 145.81 328.73 152.55 
M 331.26 157.6 333.78 162.65 
M 339.68 174.44 345.57 186.23 
M 346.41 187.92 348.1 191.28 
M 288.87 66.25 291.82 72.14 
M 293.51 75.51 314.56 117.61 
M 317.93 124.35 323.82 136.14 
M 328.88 146.25 332.24 152.98 
M 333.09 154.67 337.3 163.09 
M 339.82 168.14 341.51 171.51 
M 342.35 173.19 347.4 183.3 
M 349.93 188.35 350.77 190.04 
M 290.7 63.31 295.34 72.58 
M 297.02 75.95 317.23 116.37 
M 320.6 123.11 329.86 141.63 
M 335.76 153.42 349.23 180.37 
M 350.92 183.74 354.28 190.47 
M 361.02 203.95 361.86 205.63 
M 292.53 60.38 298.01 71.33 
M 298.85 73.02 304.75 84.81 
M 307.27 89.86 331.69 138.7 
M 333.38 142.07 335.06 145.44 
M 337.59 150.49 349.38 174.07 
M 354.43 184.18 356.96 189.23 
M 360.32 195.96 361.17 197.65 
M 294.36 57.45 304.05 76.82 
M 308.26 85.24 332.68 134.09 
M 339.42 147.56 351.21 171.14 
M 357.1 182.93 358.79 186.3 
M 363 194.72 363.84 196.4 
M 368.89 206.51 371.42 211.56 
M 296.19 54.52 300.83 63.79 
M 301.67 65.47 305.04 72.21 
M 309.25 80.63 313.46 89.05 
M 316.83 95.79 331.98 126.1 
M 337.04 136.21 338.72 139.58 
M 341.25 144.63 355.56 173.26 
M 357.25 176.63 360.62 183.37 
M 365.67 193.47 369.04 200.21 
M 369.88 201.89 372.41 206.95 
M 374.09 210.31 374.91 211.95 
M 298.02 51.59 305.18 65.91 
M 306.02 67.59 308.55 72.64 
M 310.23 76.01 316.97 89.49 
M 325.39 106.33 336.34 128.22 
M 338.02 131.59 340.55 136.65 
M 342.24 140.01 348.13 151.8 
M 349.81 155.17 352.34 160.22 
M 353.18 161.91 357.39 170.33 
M 359.08 173.7 364.13 183.8 
M 369.18 193.91 371.71 198.96 
M 301.96 52.87 305.47 59.9 
M 328.01 104.98 332.22 113.4 
M 333.07 115.09 344.01 136.98 
M 346.54 142.03 347.38 143.72 
M 352.44 153.82 353.28 155.51 
M 354.12 157.19 356.65 162.25 
M 360.86 170.67 365.91 180.77 
M 372.65 194.25 374.33 197.61 
M 332.29 106.94 333.55 109.46 
M 335.24 112.83 347.03 136.41 
M 355.45 153.25 359.66 161.68 
M 364.71 171.78 365.55 173.47 
M 340.29 116.35 341.55 118.88 
M 344.08 123.93 349.13 134.04 
M 357.55 150.88 361.76 159.3 
M 344.42 118.01 344.84 118.85 
M 346.52 122.22 353.26 135.7 
M 356.63 142.43 363.36 155.91 
M 364.2 157.59 365.89 160.96 
M 348.57 119.73 370.04 162.67 
M 376.78 176.15 379.31 181.2 
M 352.73 121.45 373.36 162.72 
M 377.57 171.14 382.62 181.24 
M 356.91 123.23 360.7 130.81 
M 361.54 132.49 385.12 179.65 
M 361.09 125 362.35 127.53 
M 364.04 130.89 377.51 157.84 
M 380.88 164.58 386.77 176.37 
M 365.17 126.57 374.85 145.93 
M 375.7 147.62 376.54 149.3 
M 384.12 164.46 387.49 171.2 
M 369.25 128.13 376.41 142.45 
M 387.35 164.34 388.2 166.03 
M 395.77 181.19 396.62 182.87 
M 399.99 189.61 401.67 192.98 
M 403.2 196.04 403.47 196.58 
M 373.36 129.76 377.15 137.34 
M 398.2 179.45 402.41 187.87 
M 404.94 192.92 406.02 195.09 
M 377.47 131.41 377.9 132.25 
M 388 152.46 390.53 157.51 
M 399.79 176.04 401.47 179.41 
M 408.18 192.82 408.57 193.6 
M 381.66 133.18 382.08 134.02 
M 387.97 145.81 388.82 147.5 
M 390.5 150.87 391.34 152.55 
M 392.18 154.23 393.87 157.6 
M 402.29 174.45 403.13 176.13 
M 410.7 191.27 411.12 192.1 
M 391.37 146.02 393.05 149.38 
M 393.95 144.59 397.32 151.32 
M 395.73 141.55 399.1 148.29 
M 415.1 180.29 417.62 185.34 
M 418.39 186.88 418.74 187.57 
M 400.04 143.58 403.4 150.31 
M 415.19 173.89 421.27 186.04 
M 403.09 143.09 410.25 157.41 
M 413.62 164.14 422.04 180.99 
M 407.41 145.13 412.88 156.08 
M 417.09 164.5 424.67 179.66 
M 411.72 147.17 413.83 151.38 
M 420.56 164.86 428.89 181.52 
M 416.04 149.21 416.46 150.05 
M 423.19 163.53 431.45 180.04 
M 424.94 160.44 434 178.55 
M 428.38 160.71 434.31 172.59 
M 430.99 159.35 434.31 166 
M 235.43 291.39 233.54 297.7 
M 235.43 291.39 239.33 291.39 
M 234.53 294.39 236.93 294.39 
M 233.54 297.7 237.44 297.7 
M 240.5 293.5 239.6 296.5 239.63 297.39 240.14 297.7 241.04 297.7 241.73 297.39 242.9 296.5 
M 243.8 293.5 242.54 297.7 
M 246.2 293.5 244.94 297.7 
M 245.84 294.7 247.01 293.8 247.7 293.5 248.6 293.5 249.11 293.8 249.14 294.7 248.24 297.7 
M 249.14 294.7 250.31 293.8 251 293.5 251.9 293.5 252.41 293.8 252.44 294.7 251.54 297.7 
M 255.53 291.39 255.74 291.7 256.13 291.39 255.92 291.1 255.53 291.39 
M 255.2 293.5 253.94 297.7 
M 260.33 294.39 260.21 293.8 259.39 293.5 258.5 293.5 257.51 293.8 257.02 294.39 257.14 295 257.65 295.3 259.07 295.6 259.58 295.89 259.61 296.8 259.13 297.39 258.14 297.7 257.24 297.7 256.43 297.39 256.31 296.8 
M 265.7 293.5 264.8 296.5 264.83 297.39 265.34 297.7 266.24 297.7 266.93 297.39 268.1 296.5 
M 269 293.5 267.74 297.7 
M 272.33 291.39 270.8 296.5 270.83 297.39 271.33 297.7 271.94 297.7 
M 270.8 293.5 272.89 293.5 
M 275.33 291.39 275.54 291.7 275.93 291.39 275.72 291.1 275.33 291.39 
M 275 293.5 273.74 297.7 
M 277.39 293.5 276.14 297.7 
M 277.04 294.7 278.2 293.8 278.89 293.5 279.8 293.5 280.31 293.8 280.33 294.7 279.44 297.7 
M 283.43 291.39 283.64 291.7 284.02 291.39 283.82 291.1 283.43 291.39 
M 283.1 293.5 281.83 297.7 
M 284.72 297.1 284.33 297.39 284.54 297.7 284.93 297.39 284.72 297.1 
"/></svg>
