<svg xmlns="http://www.w3.org/2000/svg" width="520" height="320"><rect x="0" y="0" width="520" height="320" fill="floralwhite"/><rect x="10" y="10" width="500" height="300" stroke="black" stroke-width="1" fill="none"/><path stroke="black" stroke-width="1" fill="none" stroke-linecap="round" stroke-linejoin="round" d="
M 173.72 73.65 182.55 73.32 191.27 73.45 199.99 74.02 208.7 75 217.42 76.57 234.86 80.51 252.3 84.06 269.74 87.99 295.9 93.15 304.62 94.66 322.06 97.15 339.5 99.89 348.22 100.91 365.66 102.44 374.38 103.77 383.1 105.8 384.01 106.25 
M 384.01 212.61 383.1 213.5 374.38 216.73 356.94 221.83 348.22 224 339.5 225.7 322.06 228.56 295.9 233.46 287.18 234.44 278.46 234.37 269.74 233.85 261.02 233.96 243.58 235.75 234.86 236.31 217.42 236.25 208.7 236.52 199.99 237.55 191.27 239.3 182.55 240.38 173.83 239.58 165.09 237.07 
M 175.63 76.9 176.34 76.32 176.34 75.47 174.65 74.09 173.72 73.65 
M 177.72 138.48 178.53 137.83 180.99 134.35 180.99 132.19 179.18 129.62 
M 176.57 155.01 179.46 151.6 179.46 149.5 177.12 146.73 
M 178.57 81.87 179.63 81.04 181.05 79.08 181.05 77.87 179.63 75.92 177.42 74.19 175.84 73.57 
M 175.91 77.37 178.63 76.92 
M 176.55 78.45 178.34 78.61 
M 177.41 79.91 178.13 80.03 
M 181.2 94.53 182.94 91.6 182.94 89.91 181.42 87.19 179.61 85.35 
M 181.36 111.09 181.89 110.37 183.28 106.99 183.28 104.91 181.89 101.53 181.59 101.13 
M 179.6 134.54 181.4 133.23 183.71 129.87 185.2 126.07 185.2 123.72 183.71 119.91 181.4 116.55 181.1 116.33 
M 180.47 122.52 182.44 121.99 
M 180.22 124.82 182.16 124.96 
M 179.72 127.39 182.23 127.69 
M 179.57 153.92 182.1 152.64 185.34 149.36 187.43 145.64 187.43 143.34 185.34 139.62 182.1 136.34 179.57 135.06 
M 177.42 142.29 183.45 141.86 
M 177.27 144.41 183.19 144.28 
M 177.23 146.29 183.84 147.14 
M 176.38 170.8 179.22 169.65 182.87 166.7 185.23 163.36 185.23 161.3 182.87 157.96 179.22 155.01 176.64 153.97 
M 176.18 160.72 181.18 160.17 
M 176.06 162.22 180.5 162.64 
M 175.89 164.27 181.01 164.74 
M 174.41 181.75 176.77 180.27 179.76 177.01 179.76 174.99 176.77 171.72 175.39 170.86 
M 172.66 196.95 174.73 194.06 174.73 191.68 173.26 189.63 
M 176.2 214.86 176.2 213.14 173.29 208.79 
M 180.65 77.45 182.67 76.94 185.26 75.63 186.92 74.14 186.92 73.38 
M 178.47 73.99 183.56 73.34 
M 178.39 74.89 183.79 75.26 
M 181.97 89.63 184.04 88.83 186.68 86.76 188.38 84.42 188.38 82.97 186.68 80.63 184.04 78.56 181.97 77.75 
M 183.01 104.89 185.05 103.85 187.66 101.21 189.34 98.22 189.34 96.36 187.66 93.37 185.05 90.73 183.01 89.69 
M 181.33 96.16 185.91 94.8 
M 181.4 97.15 186.03 97.13 
M 181.56 99.22 185.85 99.67 
M 183.82 123.19 185.82 121.94 188.38 118.74 190.03 115.11 190.03 112.86 188.38 109.23 185.82 106.03 183.82 104.77 
M 182.23 112.16 187.45 110.96 
M 181.75 113.95 187.31 113.84 
M 181.58 115.43 187.35 116.66 
M 185.33 144.18 187.65 142.8 190.62 139.26 192.54 135.25 192.54 132.77 190.62 128.76 187.65 125.21 185.33 123.83 
M 183 132.21 189.04 131.28 
M 182.7 134.38 189.05 134.05 
M 183.28 136.14 189.01 137.02 
M 185.46 164.2 188.29 162.87 191.92 159.48 194.26 155.65 194.26 153.27 191.92 149.43 188.29 146.04 185.46 144.72 
M 183.12 152.08 189.68 151.79 
M 182.87 154.61 189.63 154.68 
M 182.77 156.23 190.33 157.5 
M 181.89 181.04 185.42 179.84 189.94 176.74 192.85 173.24 192.85 171.08 189.94 167.57 185.42 164.48 181.89 163.28 
M 178.29 170.57 187.38 169.66 
M 178.75 172.31 187.54 172.01 
M 178.43 174.25 187.45 175.05 
M 176.91 197.45 180.9 196.23 183.65 194.54 
M 183.54 182.27 180.9 180.65 176.91 179.42 
M 173.74 186.63 179.77 185.99 
M 173.51 188.05 179.77 188.53 
M 173.2 190.05 179.77 190.76 
M 179.44 215.1 183.86 212.04 187.01 208.21 187.01 205.84 183.86 202.02 178.98 198.64 175.17 197.32 
M 187.25 81.28 188.2 80.89 190.33 79.1 191.7 77.07 191.7 75.82 190.33 73.8 189.88 73.43 
M 188.74 95.69 190.09 94.94 192.21 92.58 193.57 89.92 193.57 88.27 192.21 85.6 190.09 83.25 188.44 82.33 
M 187.05 87.83 191.48 87.43 
M 186.78 89.03 191.29 89.4 
M 186.72 90.11 191.07 90.76 
M 188.32 111.53 189.94 110.42 192.01 107.58 193.35 104.36 193.35 102.36 192.01 99.15 189.94 96.3 188.32 95.19 
M 189.31 132.2 190.87 130.77 192.87 127.13 194.15 123.01 194.15 120.46 192.87 116.33 190.87 112.69 189.31 111.27 
M 192.86 156.07 194.7 154.56 197.05 150.67 198.56 146.28 198.56 143.55 197.05 139.16 194.7 135.27 192.86 133.76 
M 190.81 143.03 195.77 141.34 
M 191.07 144.46 195.68 145.32 
M 190.7 146.77 195.97 148.49 
M 193.02 176 195.25 174.65 198.12 171.2 199.96 167.3 199.96 164.88 198.12 160.98 195.25 157.53 193.02 156.19 
M 197.84 181.31 196.64 179.64 192.71 176.55 189.65 175.34 
M 185.06 209.8 188.35 208.56 192.57 205.38 195.29 201.78 195.29 199.55 192.57 195.94 192.04 195.54 
M 190.69 214.48 187.83 211.93 184.93 210.63 
M 191.15 75.01 193.14 74.51 194.77 73.68 
M 192.3 87 194.31 86.21 196.88 84.17 198.53 81.87 198.53 80.44 196.88 78.14 194.31 76.11 192.3 75.32 
M 193.14 101.99 195.19 100.98 197.82 98.39 199.51 95.46 199.51 93.64 197.82 90.71 195.19 88.13 193.14 87.12 
M 191.61 93.47 196.47 92.2 
M 191.14 94.38 196.76 94.8 
M 191.07 96.17 196.79 96.56 
M 193.69 120.06 195.58 118.89 198.2 115.65 199.89 111.98 199.89 109.7 198.2 106.03 195.58 102.79 193.6 101.56 
M 192 108.54 196.58 108.47 
M 191.74 110.55 197.08 110.98 
M 191.23 112.25 197.01 113.79 
M 195.84 142.64 197.89 141.15 200.51 137.32 202.2 132.99 202.2 130.31 200.51 125.97 197.89 122.15 195.84 120.65 
M 194.17 129.24 199.08 128.61 
M 193.69 131.2 198.99 131.79 
M 193.98 133.69 199.43 134.76 
M 198.33 165.55 200.54 164.05 203.37 160.18 205.2 155.81 205.2 153.1 203.37 148.73 200.54 144.87 198.33 143.36 
M 196.16 152.47 202.1 151.16 
M 195.82 154.31 201.72 154.91 
M 196.12 157.04 202.21 157.86 
M 204.39 181.23 206.86 176.99 206.86 174.5 204.6 170.47 201.09 166.92 198.36 165.53 
M 196.28 204.39 199.65 203.1 203.96 199.81 206.75 196.08 206.75 193.81 
M 204.92 212.61 204.92 211.99 202.05 208.38 197.6 205.19 194.13 203.95 
M 196.71 78.29 198.17 77.71 200.28 76.05 201.6 74.2 
M 194.52 74.92 199.41 75.05 
M 198.59 91.73 199.44 91.28 201.64 88.96 203.06 86.33 203.06 84.7 201.64 82.06 199.44 79.74 197.72 78.83 
M 196.7 84.09 200.16 83.87 
M 195.94 85.68 200.38 85.29 
M 195.83 87.15 200.95 87.07 
M 198.07 108.37 199.92 107.27 202.29 104.44 203.82 101.23 203.82 99.25 202.29 96.05 199.92 93.22 198.91 92.61 
M 197.57 98.35 200.98 98.06 
M 195.87 100 201.29 100.34 
M 196.32 101.59 201.26 102.43 
M 200.61 126.52 202.52 123.45 204 119.3 204 116.74 202.52 112.59 200.24 108.93 199.03 107.96 
M 196.7 116.13 201.06 114.98 
M 196.79 118.38 201.62 117.88 
M 196.84 119.84 201.65 120.83 
M 204.54 151.83 206.49 148.03 207.85 143.37 207.85 140.48 206.49 135.82 204.38 131.7 202.74 130.09 
M 201.01 139.94 205.68 138.03 
M 201.38 141.93 205.49 141.81 
M 201.53 144.6 204.94 145.69 
M 206.05 175.11 206.35 174.83 208.47 170.83 209.84 166.3 209.84 163.49 208.47 158.96 206.35 154.96 204.69 153.4 
M 206.08 198.34 208.24 196.91 210.79 193.53 
M 210.15 181.17 208.24 178.64 206.08 177.2 
M 210.01 212.3 210.52 211.82 212.76 208.18 212.76 205.92 210.52 202.28 207.04 199.06 205.47 198.33 
M 201.95 205.26 209.01 204.59 
M 201.8 207.34 208.42 207.29 
M 203.05 209.19 209 210.17 
M 202.8 84.89 204.93 84.06 207.66 81.93 209.42 79.53 209.42 78.04 207.66 75.63 206.54 74.76 
M 200.9 77.4 206.59 77.06 
M 201.14 78.51 206.66 78.9 
M 200.49 80.37 205.94 80.21 
M 204.34 100.56 206.65 99.52 209.62 96.85 211.53 93.82 211.53 91.95 209.62 88.92 206.65 86.25 204.34 85.2 
M 201.77 91.72 208.36 90.13 
M 201.78 92.47 208.22 92.87 
M 202.31 94.09 208.37 95.14 
M 204.93 118.54 207.27 117.29 210.28 114.09 212.22 110.48 212.22 108.24 210.28 104.62 207.27 101.42 204.93 100.18 
M 206.52 140.13 208.7 138.68 211.49 134.97 213.29 130.76 213.29 128.16 211.49 123.95 208.7 120.24 206.52 118.79 
M 204.54 127.46 210.24 126.31 
M 204.75 129.74 209.69 129.51 
M 204.09 131.32 210.45 133.1 
M 208.53 163.18 210.51 161.63 213.05 157.67 214.69 153.18 214.69 150.41 213.05 145.92 210.51 141.95 208.53 140.41 
M 206.28 149.46 211.67 148.72 
M 206.45 151.63 211.73 151.96 
M 206.97 153.98 212.05 155.62 
M 214.42 181.6 215.04 180.68 216.78 176.17 216.78 173.38 215.04 168.88 212.36 164.9 210.26 163.34 
M 208.41 172.27 213.19 171.47 
M 208.28 175.09 214 174.63 
M 208.1 176.98 213.78 178.61 
M 211.55 207.94 214.1 206.5 217.35 202.81 219.45 198.62 219.45 196.03 217.32 191.81 
M 217.61 212.31 213.84 208.94 210.95 207.66 
M 208.03 76.21 208.76 75.9 209.62 75.17 
M 209.91 92.36 211.91 91.34 214.48 88.72 216.14 85.75 216.14 83.91 214.48 80.94 211.91 78.32 209.91 77.3 
M 208.05 82.88 212.75 82.43 
M 207.87 84.61 213.5 84.72 
M 208.28 85.98 213.33 86.75 
M 211.65 109.32 213.8 108.18 216.54 105.27 218.31 101.97 218.31 99.93 216.54 96.63 213.8 93.72 211.65 92.58 
M 209.25 99.48 214.97 98.7 
M 209.87 100.88 215.03 100.61 
M 209.55 102.52 214.91 103.32 
M 212.65 127.2 213.57 126.6 216.2 123.22 217.89 119.4 217.89 117.03 216.2 113.21 213.57 109.83 211.53 108.51 
M 209.68 116.4 214.72 115.74 
M 209.35 117.82 214.79 118.6 
M 209.82 119.79 215.25 121.16 
M 214.11 149.72 215.15 148.87 217.44 145.17 218.92 140.98 218.92 138.38 217.44 134.19 215.15 130.49 213.36 129.05 
M 211.95 137.38 216.21 136.41 
M 211.23 140.02 216.66 139.86 
M 212.09 142.17 216.37 142.63 
M 213.34 172.26 214.85 170.69 216.8 166.66 218.05 162.09 218.05 159.26 216.8 154.7 214.85 150.66 213.34 149.09 
M 216.94 197.86 218.59 196.22 220.7 192.01 221.13 190.52 
M 221.41 182 220.7 179.53 218.59 175.32 216.94 173.68 
M 223.91 212.57 224.9 210 224.9 207.43 223.3 203.27 220.81 199.6 218.87 198.16 
M 217.12 206.29 221.98 205.14 
M 216.71 209.05 222.22 209.04 
M 217.32 210.63 222.06 212.03 
M 214.74 84.75 217.02 83.81 219.93 81.41 221.81 78.7 221.81 77.56 
M 212.9 76.15 214.96 76.13 
M 212.66 77.6 218.7 77.66 
M 212.16 79.57 218.49 79.66 
M 217.67 101.47 220.09 100.37 223.18 97.54 225.17 94.34 225.17 92.36 223.18 89.16 220.09 86.33 217.67 85.23 
M 215.44 92.07 221.24 90.86 
M 214.96 92.97 221.63 93.22 
M 215.11 94.68 221.33 95.68 
M 218.4 118.86 220.8 117.65 223.86 114.55 225.84 111.04 225.84 108.87 223.86 105.36 220.8 102.27 218.48 101.1 
M 215.78 107.89 222.2 107.63 
M 216.34 110.1 221.92 109.91 
M 215.92 111.63 222.12 112.89 
M 218.8 138.68 221.03 137.34 223.9 133.93 225.74 130.06 225.74 127.67 223.9 123.8 221.03 120.39 218.8 119.06 
M 217.05 126.51 222.31 125.59 
M 216.52 128.44 222.37 129.07 
M 216.73 131.1 222.67 131.61 
M 218.7 159.83 220.68 158.37 223.23 154.63 224.87 150.4 224.87 147.78 223.23 143.55 220.68 139.82 218.7 138.36 
M 221.38 182 221.76 181.68 224.18 177.59 225.74 172.96 225.74 170.09 224.18 165.45 221.76 161.36 219.87 159.77 
M 222.82 207.32 224.87 205.75 227.51 201.71 229.2 197.14 229.2 194.3 227.51 189.73 226.39 188.02 
M 229.99 212.79 229.78 212.35 226.77 208.78 224.43 207.38 
M 223.52 93.85 225.47 92.72 227.98 89.84 229.59 86.58 229.59 84.56 227.98 81.29 225.42 78.38 
M 221.48 83.9 227.03 83.51 
M 221.76 85.42 226.46 85.63 
M 222.08 87.11 226.62 88.38 
M 225.62 110.34 227.55 109.22 230.04 106.33 231.64 103.05 231.64 101.03 230.04 97.76 227.55 94.87 225.62 93.74 
M 223.86 100.4 228.88 99.25 
M 223.35 102.23 228.35 102.22 
M 223.44 103.56 229.18 104.92 
M 224.81 127.86 226.66 126.6 229.03 123.39 230.56 119.75 230.56 117.5 229.03 113.86 226.66 110.65 224.81 109.39 
M 225.49 148.61 227.26 147.3 229.52 143.93 230.98 140.12 230.98 137.76 229.52 133.95 227.26 130.58 225.49 129.27 
M 223.96 136.91 227.97 136.32 
M 223.85 139.36 227.89 138.77 
M 224.04 140.97 228.01 141.59 
M 224.33 166.25 226.13 162.77 227.41 158.42 227.41 155.72 226.13 151.37 224.14 147.53 222.72 146.15 
M 226.61 194.86 228.19 193.19 230.22 188.92 231.31 184.87 
M 231.53 182.45 231.53 181.07 230.22 176.22 228.19 171.94 226.61 170.27 
M 232.08 212.85 232.68 211.75 234.07 207.23 234.07 204.43 232.68 199.91 230.53 195.91 228.85 194.35 
M 227.05 84.32 229.31 83.36 232.22 80.92 232.8 80.05 
M 224.8 79.05 230.34 79.49 
M 230.12 100.99 232.3 99.89 235.11 97.08 236.91 93.9 236.91 91.94 235.11 88.75 232.3 85.95 230.12 84.85 
M 228.23 91.12 233.34 90.1 
M 228.4 92.77 233.9 93.21 
M 227.99 94.35 233.35 94.89 
M 230.45 117.8 232.56 116.62 235.26 113.61 237.01 110.2 237.01 108.08 235.26 104.67 232.56 101.65 230.45 100.48 
M 230.27 136.85 232.33 135.58 234.95 132.31 236.65 128.62 236.65 126.33 234.95 122.63 232.33 119.36 230.27 118.09 
M 228.35 125.44 233.17 124.22 
M 228.61 127.31 233.53 127.35 
M 228.56 129.51 233.29 129.85 
M 228.96 156.78 230.9 155.38 233.4 151.8 235.01 147.74 235.01 145.23 233.4 141.17 230.9 137.59 228.96 136.19 
M 226.76 144.27 232.03 143.41 
M 227.1 146.93 231.98 146.94 
M 227.05 148.09 231.97 149.94 
M 231.06 178.48 233.65 174.23 235.21 169.59 235.21 166.72 233.65 162.08 231.25 157.98 229.37 156.39 
M 227.42 165.93 232.51 164.57 
M 227.25 168.25 232.53 168.1 
M 227.75 170.53 232.85 172.08 
M 232.92 205.06 234.9 203.41 237.43 199.2 239.06 194.43 239.06 191.48 237.43 186.71 234.9 182.5 232.92 180.86 
M 241.45 212.78 240.53 210.5 237.85 206.71 235.76 205.23 
M 237.99 212.87 239.41 212.47 
M 236.27 91.1 236.73 90.82 238.98 88.14 240.43 85.1 240.43 83.21 239.61 81.49 
M 233.64 82.74 238.07 82.3 
M 233.45 84.38 237.63 84 
M 233.35 85.9 237.61 86.69 
M 236.36 107.9 238 106.82 240.1 104.04 241.46 100.89 241.46 98.94 240.1 95.8 238 93.02 236.36 91.93 
M 236.04 124.3 236.62 123.85 238.67 120.68 239.99 117.08 239.99 114.86 238.67 111.26 236.62 108.08 235.02 106.85 
M 235.77 145.85 237.39 144.56 239.47 141.25 240.81 137.51 240.81 135.19 239.47 131.44 237.39 128.13 236.04 127.06 
M 234.36 134.79 238.1 133.68 
M 234.44 136.2 238.31 136.63 
M 234.21 138.41 238.59 139.09 
M 231.97 164.54 233.53 163.05 235.52 159.24 236.8 154.92 236.8 152.25 235.52 147.93 233.53 144.12 231.97 142.63 
M 230.31 151.73 234.37 150.66 
M 230.15 153.13 234.28 153.97 
M 230.05 155.67 234.02 157.07 
M 238.48 189.1 239.9 185.98 241.2 180.95 241.2 177.83 239.9 172.8 237.87 168.35 236.29 166.62 
M 242.52 212.76 243.92 210.17 245.36 205.49 245.36 202.6 243.92 197.93 241.68 193.8 239.94 192.19 
M 238.49 202.1 242.64 200.06 
M 238.09 204.48 242.68 204.28 
M 238.68 206.8 243.06 207.97 
M 238.95 82.7 241.13 81.81 
M 240.81 98.29 242.78 97.27 245.31 94.64 246.95 91.66 246.95 89.82 245.31 86.85 242.78 84.22 240.81 83.19 
M 239.33 89.37 243.79 88.76 
M 239.27 90.7 244.18 90.73 
M 238.87 92.65 243.91 92.8 
M 240.47 114.77 242.39 113.61 244.86 110.66 246.44 107.32 246.44 105.26 244.86 101.92 242.39 98.97 240.47 97.81 
M 240.23 133.89 242.16 132.62 244.63 129.38 246.23 125.7 246.23 123.42 244.63 119.74 242.16 116.49 240.23 115.22 
M 238.68 153.57 240.61 152.18 243.07 148.62 244.66 144.59 244.66 142.09 243.07 138.06 240.61 134.5 238.68 133.11 
M 236.56 140.96 242.18 140.67 
M 236.8 143.68 242.21 143.51 
M 236.91 145.53 241.39 146.09 
M 238.88 176.78 240.77 175.15 243.18 170.98 244.74 166.26 244.74 163.33 243.18 158.61 240.77 154.44 238.97 152.9 
M 243.3 202.91 245.24 201.22 247.73 196.89 249.34 191.98 249.34 188.95 247.73 184.04 245.24 179.71 243.3 178.02 
M 241.62 187.57 246.11 187.13 
M 241.28 190.16 246.57 190.25 
M 241.69 192.73 246.33 193.91 
M 252.52 212.16 251.04 208.32 248.47 204.51 246.47 203.03 
M 245.88 89.08 247.51 88.14 249.6 85.75 250.6 83.72 
M 244.65 83.62 248.52 84.71 
M 246.01 104.32 247.57 103.28 249.57 100.63 250.86 97.63 250.86 95.78 249.57 92.78 247.57 90.13 246.01 89.09 
M 244.49 121.75 246.09 120.51 248.15 117.31 249.48 113.69 249.48 111.45 248.15 107.83 246.09 104.63 244.49 103.38 
M 245.63 142.87 247.24 141.57 249.3 138.26 250.62 134.51 250.62 132.18 249.3 128.43 247.24 125.12 245.63 123.82 
M 244 131.2 248.28 130.94 
M 244.5 133.23 248.01 133.1 
M 243.93 135.57 248.32 135.89 
M 241.34 161.01 242.98 159.53 245.08 155.73 246.43 151.42 246.43 148.75 245.08 144.45 242.98 140.64 241.34 139.16 
M 240 148.2 243.69 147.14 
M 239.6 149.92 244 150.18 
M 239.99 151.86 244.04 153.08 
M 245.89 189.4 247.42 187.59 249.37 182.97 250.63 177.74 250.63 174.5 249.37 169.26 247.42 164.64 245.89 162.84 
M 244.74 173.44 248.49 172.02 
M 244.21 175.99 247.93 176.56 
M 244.73 178.66 248.18 180.47 
M 252.91 212.14 254.79 208.43 256.13 203.75 256.13 200.85 254.79 196.17 252.69 192.03 251.06 190.42 
M 250.54 94.88 252.49 93.89 254.99 91.36 256.6 88.49 256.6 86.72 255.5 84.77 
M 248.72 86.49 253.86 85.19 
M 248.94 87.24 253.9 87.21 
M 249.06 89.06 253.97 89.76 
M 250.14 111.6 252.15 110.45 254.72 107.49 256.37 104.13 256.37 102.05 254.72 98.7 252.15 95.74 250.14 94.58 
M 250.14 131.02 252.21 129.74 254.86 126.46 256.57 122.75 256.57 120.45 254.86 116.74 252.21 113.46 250.14 112.18 
M 248.71 150.62 250.82 149.24 253.53 145.72 255.28 141.74 255.28 139.27 253.53 135.28 250.82 131.76 248.71 130.39 
M 246.91 138.36 252.44 137.76 
M 246.3 140.78 251.94 140.83 
M 246.65 142.88 252.31 143.76 
M 248.45 173.34 250.49 171.73 253.11 167.61 254.8 162.94 254.8 160.06 253.11 155.39 250.49 151.27 248.45 149.66 
M 252.81 199.73 254.77 198.02 257.27 193.63 258.89 188.66 258.89 185.58 257.27 180.6 254.77 176.21 252.81 174.5 
M 262.82 211.81 262.82 209.87 261.17 205.49 258.61 201.61 256.6 200.1 
M 255.03 85.16 255.66 84.8 
M 255.78 100.6 256.91 99.88 259.07 97.13 260.46 94.02 260.46 92.09 259.07 88.98 256.91 86.23 255.23 85.16 
M 255.96 118.61 256.67 118.12 259.02 114.87 260.54 111.18 260.54 108.9 259.02 105.22 256.67 101.96 255.78 101.35 
M 255.6 140.05 257.45 138.74 259.83 135.4 261.36 131.62 261.36 129.27 259.83 125.49 257.45 122.14 255.6 120.84 
M 253.79 128.75 258.41 127.63 
M 253.69 130.46 258.96 130.61 
M 254.13 132.58 258.94 133.36 
M 252.26 158.54 254.21 157.13 256.71 153.51 258.32 149.41 258.32 146.87 256.71 142.77 254.21 139.15 252.26 137.74 
M 250.5 146.48 255.51 144.8 
M 250.79 148.25 255.79 148.58 
M 250.76 149.81 255.39 150.82 
M 254.29 184.39 256 182.66 258.18 178.23 259.59 173.21 259.59 170.1 258.18 165.08 256 160.65 254.29 158.92 
M 252.52 169 257.37 168.21 
M 252.19 171.67 256.93 171.87 
M 252.67 174.32 256.59 175.43 
M 260.02 210.96 261.67 209.25 263.78 204.88 265.14 199.92 265.14 196.86 263.78 191.9 261.67 187.53 260.02 185.82 
M 264.31 211.84 263.11 210.89 
M 260.8 92.48 263.04 91.46 265.91 88.86 266.87 87.33 
M 261.21 110.17 263.65 108.96 266.77 105.88 268.78 102.38 268.78 100.22 266.77 96.72 263.65 93.64 261.21 92.43 
M 259.08 99.43 265.49 98.68 
M 259.05 101.43 265.3 100.9 
M 258.51 103.52 264.68 103.97 
M 261.83 130.07 264.39 128.76 267.65 125.41 269.76 121.61 269.76 119.25 267.65 115.45 264.39 112.09 261.83 110.78 
M 259 118.08 266.29 117.46 
M 258.95 120.15 265.64 120.42 
M 259.09 122.29 265.55 123.45 
M 260.79 149.69 263.41 148.34 266.76 144.86 268.92 140.93 268.92 138.49 266.76 134.56 263.41 131.08 260.79 129.73 
M 258.45 137.74 264.9 136.97 
M 257.99 139.82 264.97 139.63 
M 258.41 141.45 264.68 142.54 
M 259.87 171.37 262.45 169.84 265.75 165.9 267.87 161.44 267.87 158.68 265.75 154.21 262.45 150.28 259.87 148.74 
M 257.73 157.65 263.83 156.71 
M 257.25 159.83 264.19 159.62 
M 257.8 162.05 264.06 163.1 
M 263.11 196.93 265.47 195.25 268.5 190.94 270.46 186.05 270.46 183.03 268.5 178.15 265.47 173.84 263.11 172.15 
M 273.33 212.26 274.12 210.34 274.12 207.6 272.29 203.18 269.44 199.27 267.22 197.74 
M 268.06 99.76 269.15 99.2 271.94 96.26 273.75 92.94 273.75 90.89 272.47 88.54 
M 264.83 90.02 270.12 89.76 
M 265 91.94 270.13 92.08 
M 264.66 93.66 270.04 94.35 
M 267.84 119.98 270.25 118.65 273.33 115.24 275.32 111.38 275.32 108.99 273.33 105.13 270.25 101.72 268.06 100.51 
M 265.93 108.14 272.01 107.56 
M 265.71 109.92 271.51 110.24 
M 265.85 111.85 271.82 113.48 
M 269.07 140.87 271.47 139.53 274.55 136.11 276.54 132.24 276.54 129.84 274.55 125.97 271.47 122.55 269.07 121.22 
M 266.59 128.75 272.64 128.41 
M 266.78 131.16 273.15 131.25 
M 266.29 132.65 272.6 134.3 
M 266.22 159.32 268.74 157.95 271.98 154.43 274.06 150.45 274.06 147.99 271.98 144.01 268.74 140.49 266.22 139.12 
M 264.15 147.36 270.68 146.13 
M 264.12 149.2 270.22 149.5 
M 264.16 151.43 270.3 152.57 
M 266.72 183.24 269.13 181.61 272.21 177.42 274.19 172.68 274.19 169.74 272.21 165 269.13 160.81 266.72 159.18 
M 271.4 209.13 273.53 207.47 276.25 203.22 278 198.4 278 195.42 276.25 190.6 273.53 186.35 271.4 184.69 
M 277.41 212.59 276.23 210.9 274.34 209.55 
M 274.02 93.56 276.62 92.44 279.51 89.96 
M 275.76 112.36 278.67 111.09 282.4 107.82 284.81 104.12 284.81 101.82 282.4 98.12 278.67 94.85 275.76 93.58 
M 272.61 101.51 280 99.93 
M 272.99 103.16 280.46 103 
M 273.12 105.05 280 106.01 
M 277.05 132.66 280.1 131.32 284.01 127.87 286.53 123.97 286.53 121.56 284.01 117.66 280.1 114.22 277.05 112.87 
M 274.16 120.98 281.87 119.36 
M 274.07 122.9 282.17 123.07 
M 273.99 124.93 282 126.03 
M 276.35 152.42 279.45 151.06 283.41 147.57 285.97 143.62 285.97 141.17 283.41 137.22 279.45 133.73 276.35 132.37 
M 273.07 140.19 280.97 139.01 
M 273.56 142.81 280.92 142.19 
M 273.12 144.81 280.99 145.56 
M 275.4 173.66 278.51 172.17 282.49 168.36 285.06 164.04 285.06 161.37 282.49 157.05 278.51 153.23 275.4 151.75 
M 272.21 160.11 280.83 159.26 
M 272.37 163.01 280.43 162.29 
M 272.76 164.82 280.18 165.55 
M 277.44 197.63 280.34 196.05 284.05 192 286.44 187.42 286.44 184.58 284.05 179.99 280.34 175.94 277.44 174.36 
M 274.57 183.52 282.16 182.48 
M 274.3 186.18 282.5 186.42 
M 274.54 188.06 282.35 189.64 
M 286.51 212.97 287.93 210.18 287.93 207.64 285.83 203.52 282.57 199.88 280.03 198.46 
M 277.45 206.77 284.5 206.22 
M 277.6 209.05 283.77 208.55 
M 277.96 210.59 284.1 212 
M 283 104.39 285.43 103.12 288.53 99.88 290.53 96.22 290.53 93.95 289.41 91.88 
M 280.95 93.39 286.74 91.97 
M 280.57 95.51 286.62 95.45 
M 280.89 96.8 286.98 97.92 
M 285.63 124.55 287.93 123.38 291.37 119.89 293.6 115.92 293.6 113.47 291.37 109.51 287.93 106.01 285.24 104.65 
M 282.93 112.24 289.76 111.78 
M 282.34 114.61 289.33 114.31 
M 283.03 117.17 289.39 117.98 
M 286.05 145.04 288.72 143.7 292.14 140.25 294.34 136.35 294.34 133.94 292.14 130.03 288.72 126.59 286.05 125.24 
M 283.72 133.15 290.12 132.12 
M 283.83 135.24 290.41 135 
M 283.77 136.76 290.25 137.9 
M 284.14 164.43 286.79 163.07 290.28 159.49 292.53 155.43 292.53 152.92 290.28 148.87 286.79 145.29 284.06 143.89 
M 285.59 187.03 287.3 186.05 290.77 182.08 293 177.59 293 174.81 290.77 170.31 287.3 166.34 284.59 164.79 
M 281.79 173.65 289.3 172.73 
M 281.72 175.96 288.7 176.01 
M 282.3 178.05 289.34 179.56 
M 287.04 210.54 289.46 209.07 292.57 205.28 294.57 200.99 294.57 198.34 292.57 194.05 289.46 190.26 287.04 188.79 
M 284.39 197.77 290.84 196.64 
M 284.24 199.36 291.18 199.84 
M 285.09 202.02 291.12 203.19 
M 290.03 212.8 289.36 212.01 287.32 210.82 
M 288.39 96.07 290.92 94.82 293.14 92.61 
M 291.88 116.29 294.76 114.92 298.44 111.42 300.81 107.45 300.81 104.99 298.44 101.01 294.76 97.51 291.88 96.14 
M 289.23 104.23 296.44 103.04 
M 289.29 106.42 296.73 106.21 
M 289.11 107.82 296.26 109.5 
M 293.85 136.79 296.92 135.42 300.86 131.9 303.39 127.92 303.39 125.46 300.86 121.48 296.92 117.97 293.85 116.59 
M 291.07 124.39 298.41 123.22 
M 290.62 126.94 298.36 126.48 
M 291.17 128.66 298.94 130 
M 293.24 156.48 296.33 155.11 300.28 151.61 302.83 147.64 302.83 145.18 300.28 141.22 296.33 137.71 293.24 136.35 
M 290.01 144.35 297.82 143.58 
M 290.48 146.87 298.13 146.03 
M 290.07 148.33 298.48 149.86 
M 292.39 177.57 295.44 176.11 299.34 172.37 301.85 168.13 301.85 165.51 299.34 161.27 295.44 157.53 292.39 156.07 
M 293.61 200.19 296.53 198.71 300.26 194.92 302.66 190.62 302.66 187.97 300.26 183.67 296.53 179.88 293.61 178.4 
M 290.9 187.3 297.84 185.74 
M 291.15 189.52 298.42 189.35 
M 291.07 191.58 298.71 192.75 
M 302.28 211.61 302.37 209.14 300.22 205.42 296.89 202.13 294.28 200.84 
M 291.31 208.3 298.73 207.52 
M 291.38 210.64 298.87 210.55 
M 291.39 212.38 293.24 212.59 
M 299.96 105.73 302.5 102.31 304.22 98.21 304.22 95.67 303.73 94.5 
M 295.72 95.02 299.76 93.82 
M 295.86 96.71 300.92 96.83 
M 296.02 98.89 300.68 99.96 
M 302.49 128.14 303.94 127.27 306.99 123.59 308.95 119.43 308.95 116.86 306.99 112.7 303.94 109.03 301.56 107.59 
M 299.06 115.9 305.81 115.12 
M 299.56 118.59 305.41 118.21 
M 299.66 120.04 305.69 121.4 
M 302.56 148.67 305.06 147.33 308.26 143.88 310.32 139.99 310.32 137.57 308.26 133.68 305.06 130.24 302.56 128.89 
M 300.26 137.02 306.29 135.46 
M 299.71 138.63 306.19 138.46 
M 300.31 140.47 306.6 141.68 
M 300.3 167.72 302.69 166.34 305.75 162.79 307.73 158.78 307.73 156.3 305.75 152.29 302.69 148.75 300.3 147.36 
M 297.73 155.95 304 154.84 
M 297.88 157.9 304.07 157.56 
M 297.75 159.77 304.6 160.18 
M 300.62 190.47 302.94 188.96 305.92 185.09 307.84 180.71 307.84 178 305.92 173.61 302.94 169.74 300.62 168.23 
M 298.59 177.09 304.53 175.98 
M 297.95 179.19 304.6 179.41 
M 298.79 181.45 304.28 182.36 
M 303.31 211.48 304.47 210.77 307.35 207.22 309.21 203.21 309.21 200.73 307.35 196.71 304.47 193.17 302.21 191.79 
M 300.86 96.39 303.21 95.04 303.68 94.49 
M 306.13 118.54 308.67 117.05 311.91 113.24 314.01 108.92 314.01 106.25 311.91 101.94 308.67 98.13 306.13 96.64 
M 303.31 105.31 310.02 104.05 
M 303.62 107.21 310.17 107.7 
M 303.65 109.54 310.38 110.43 
M 309.31 139.75 312.01 138.32 315.47 134.68 317.7 130.55 317.7 128 315.47 123.87 312.01 120.23 309.31 118.81 
M 306.31 127.43 313.69 125.85 
M 307.12 129.01 313.85 129.06 
M 306.38 131.4 313.82 132.78 
M 308.74 159.02 311.45 157.66 314.9 154.19 317.13 150.25 317.13 147.82 314.9 143.89 311.45 140.42 308.74 139.06 
M 306.38 147.01 313.45 145.69 
M 306.44 148.62 312.7 149.06 
M 306.13 150.89 313.1 152.47 
M 307.39 179.47 310.04 178.04 313.42 174.38 315.61 170.23 315.61 167.66 313.42 163.51 310.04 159.84 307.39 158.41 
M 305 166.39 311.24 165.88 
M 304.79 168.67 312.06 168.75 
M 305.09 170.61 311.79 172.42 
M 308.22 201.56 310.84 200.13 314.19 196.46 316.36 192.31 316.36 189.74 314.19 185.58 310.84 181.92 308.22 180.48 
M 306 188.7 312.25 188.22 
M 305.86 191.22 312.77 190.86 
M 305.68 193.15 312.34 194.22 
M 315.35 209.76 313.39 206.37 310.26 203.28 307.81 202.07 
M 309.76 107.49 311.72 105.94 313.12 103.73 
M 313.12 103.73 314.23 101.98 315.86 97.48 315.86 96.3 
M 315.47 130.61 316.9 129.51 
M 316.9 129.51 317.49 129.06 320.08 125.08 321.75 120.57 321.75 117.79 320.08 113.28 317.49 109.3 315.47 107.75 
M 313.91 116.5 318.95 116.02 
M 313.57 119.23 318.47 118.99 
M 313.41 121.56 318.9 122.31 
M 317.65 151.01 319.75 149.65 322.44 146.16 324.17 142.22 324.17 139.77 322.44 135.83 319.75 132.34 317.65 130.98 
M 315.53 139.2 321.45 138.18 
M 315.69 141.08 321.25 141.4 
M 315.37 142.55 320.74 144.18 
M 314.46 168.67 316.48 167.33 319.05 163.91 320.71 160.03 320.71 157.63 319.05 153.76 316.48 150.33 314.46 149 
M 314.18 191.04 316.27 189.54 318.95 185.72 320.68 181.39 320.68 178.7 318.95 174.37 316.27 170.55 314.18 169.05 
M 312.34 177.53 317.53 176.71 
M 312.25 180.11 317.23 180.18 
M 312.06 181.87 317.2 183.51 
M 319.51 209.19 320.57 207.82 322.28 203.94 322.28 201.53 320.57 197.64 317.92 194.21 315.85 192.86 
M 313.37 96.03 313.46 95.98 
M 318.93 118.66 321.3 117.15 324.32 113.27 326.28 108.88 326.28 106.16 324.32 101.77 321.3 97.89 319.61 96.81 
M 316.57 105.65 322.81 104.41 
M 316.41 107.18 322.33 107.93 
M 316.51 109.98 323.01 111.15 
M 323.55 139.51 324.79 138.74 327.72 135.05 329.62 130.88 329.62 128.3 327.72 124.13 324.79 120.45 322.5 119.01 
M 320.06 127.88 326.62 126.06 
M 320.62 129.22 326.34 129.87 
M 320.7 131.85 325.93 132.8 
M 321.89 159.31 324.15 157.95 327.03 154.47 328.9 150.53 328.9 148.09 327.03 144.15 324.15 140.67 323.55 140.31 
M 321.14 147.45 325.82 146.71 
M 319.63 149.5 325.37 148.91 
M 319.68 150.98 325.8 152.34 
M 320.56 179.84 322.91 178.4 325.92 174.71 327.86 170.53 327.86 167.94 325.92 163.77 322.91 160.08 320.56 158.64 
M 318.68 166.9 324 166.3 
M 318.23 169.55 324.66 169.53 
M 318.04 171.57 324.62 172.5 
M 321.59 201.97 324.05 200.55 327.19 196.92 329.22 192.8 329.22 190.25 327.19 186.14 324.05 182.5 321.59 181.08 
M 326.88 208.3 325.75 206.31 322.78 203.32 320.47 202.16 
M 325.58 105.04 327.75 102 329.26 98.29 
M 321.76 98.95 326.18 99.29 
M 328.94 128.18 329.33 127.85 331.64 124.03 333.13 119.7 333.13 117.02 331.64 112.7 329.33 108.87 327.52 107.38 
M 325.66 116.56 330.43 115.33 
M 325.98 118.29 330.47 118.58 
M 325.45 120.35 330.79 121.86 
M 329.36 149.73 331.07 148.38 333.25 144.94 334.67 141.04 334.67 138.62 333.25 134.72 331.07 131.27 329.36 129.93 
M 327.79 137.9 332.16 136.44 
M 327.42 139.58 332.22 139.65 
M 327.76 141.89 331.68 142.87 
M 327.17 166.95 327.78 166.44 329.96 162.88 331.36 158.83 331.36 156.33 329.96 152.29 327.78 148.73 326.08 147.33 
M 324.44 155.86 328.81 154.6 
M 324.42 157.89 328.8 157.39 
M 324.63 159.25 329.11 160.41 
M 327.5 191.83 329.54 190.29 332.15 186.34 333.84 181.87 333.84 179.11 332.15 174.64 329.54 170.69 327.5 169.15 
M 325.6 178.65 330.85 177.51 
M 325.78 180.82 330.44 180.51 
M 325.92 182.61 331.1 184.23 
M 333.49 207.53 335.02 204.02 335.02 201.68 333.37 197.9 330.83 194.56 328.84 193.26 
M 331.42 117.34 333.78 115.96 336.81 112.4 338.77 108.38 338.77 105.88 336.81 101.86 334.46 99.1 
M 334.16 137.61 335.81 136.57 338.6 133.06 340.4 129.09 340.4 126.63 338.6 122.65 335.81 119.14 333.63 117.77 
M 331.8 125.63 337.44 124.91 
M 331.11 127.58 337.08 128.05 
M 331.21 129.8 336.88 130.79 
M 332.57 157.34 334.64 155.95 337.28 152.4 338.98 148.37 338.98 145.88 337.28 141.86 334.64 138.3 334.16 137.98 
M 333.43 144.3 335.68 143.67 
M 331.5 147.29 335.7 147.08 
M 330.94 149.46 335.53 150.45 
M 333.23 178.92 334.63 177.95 337.44 174.04 339.25 169.62 339.25 166.88 337.44 162.46 334.63 158.55 332.44 157.02 
M 330.61 165.71 335.67 164.74 
M 330.19 168.57 335.51 168.24 
M 330.29 170.39 335.99 171.38 
M 334.56 202.21 336.88 200.77 339.85 197.08 341.76 192.91 341.76 190.33 339.85 186.15 336.88 182.47 334.56 181.03 
M 338.39 206.96 337.67 205.67 334.82 202.75 332.6 201.61 
M 336.61 106.41 338.63 105.16 341.22 101.95 342.03 100.18 
M 338.54 126.42 340.51 125.07 343.04 121.62 344.67 117.72 344.67 115.3 343.04 111.4 340.51 107.95 338.54 106.61 
M 336.65 114.63 341.44 113.4 
M 336.93 116.61 341.37 116.7 
M 336.79 118.35 341.91 119.21 
M 339.11 146.26 340.89 144.97 343.16 141.64 344.63 137.88 344.63 135.55 343.16 131.79 340.89 128.47 339.11 127.17 
M 337.59 134.89 342.31 133.81 
M 337.05 137.13 342.07 136.67 
M 337.66 138.35 342.34 139.68 
M 335.74 165.51 337.43 164 339.6 160.12 341 155.73 341 153.01 339.6 148.62 337.43 144.75 335.74 143.23 
M 333.95 152.12 338.3 150.96 
M 334.15 154.57 338.17 154.23 
M 334.05 156.86 338.09 157.63 
M 340.42 192.71 342.31 191.06 344.71 186.82 346.27 182.03 346.27 179.06 344.71 174.26 342.31 170.03 340.42 168.38 
M 338.45 178.25 343.72 176.49 
M 338.53 180.66 343.25 180.9 
M 338.75 183.38 343.8 184.43 
M 346.26 205.83 347.12 203.73 347.12 201.47 345.62 197.82 343.28 194.6 341.46 193.34 
M 344.21 116.85 346.62 115.52 349.71 112.11 351.7 108.25 351.7 105.86 349.71 102 348.76 100.95 
M 341.67 105.33 348.08 103.78 
M 341.56 107.14 348.39 106.65 
M 341.58 109.33 347.83 109.66 
M 345.53 136.49 347.88 135.19 350.89 131.84 352.83 128.05 352.83 125.71 350.89 121.92 347.88 118.57 345.53 117.27 
M 343.12 125.02 349.32 124.14 
M 342.92 126.92 349.5 126.87 
M 343.37 128.59 349.26 129.41 
M 343.47 155.27 345.64 153.9 348.42 150.38 350.21 146.39 350.21 143.92 348.42 139.93 345.64 136.41 343.47 135.03 
M 341.57 142.72 347.38 142.06 
M 341.2 144.96 346.76 144.85 
M 341.76 147.2 347.18 148.16 
M 345.71 176.8 348.67 172.64 350.45 168.11 350.45 165.3 348.67 160.76 345.91 156.75 343.76 155.19 
M 346.39 201.25 348.55 199.8 351.32 196.09 353.1 191.88 353.1 189.28 351.32 185.08 348.55 181.37 346.39 179.92 
M 349.58 205.26 349.1 204.38 346.32 201.48 344.15 200.35 
M 348.98 106.71 350.87 105.35 353.3 101.86 353.5 101.34 
M 352.73 127.86 354.87 126.49 357.62 123 359.39 119.05 359.39 116.6 357.62 112.64 354.87 109.15 352.73 107.79 
M 350.21 116.21 356.43 115.14 
M 351.04 118.21 355.84 117.45 
M 350.93 120.02 356.36 120.86 
M 351.74 145.43 353.68 144.21 356.16 141.1 357.76 137.56 357.76 135.38 356.16 131.85 353.68 128.73 351.74 127.51 
M 349.81 134.23 354.84 133.4 
M 350.14 136.87 354.85 136.72 
M 350.03 138.54 354.44 139.35 
M 347.29 163.88 349.11 162.41 351.44 158.64 352.95 154.37 352.95 151.73 351.44 147.46 349.11 143.69 347.29 142.22 
M 345.73 151.26 350.38 150.26 
M 345.75 153.02 349.97 152.96 
M 345.39 155.64 350.3 156.76 
M 351.59 190.76 353.37 189.14 355.65 184.99 357.12 180.29 357.12 177.39 355.65 172.69 353.37 168.54 351.59 166.92 
M 356.49 203.89 357.42 201.49 357.42 199.21 356 195.54 353.8 192.3 352.08 191.03 
M 350.68 198.26 354.73 197.36 
M 350.84 200.81 354.93 200.72 
M 350.21 202.66 354.41 202.93 
M 358.75 116.45 359.49 116 362.45 112.44 364.35 108.41 364.35 105.91 362.58 102.15 
M 354.88 105.34 360.62 104.3 
M 354.74 106.73 361.06 107.14 
M 355.18 108.88 360.49 109.82 
M 358.65 136.58 360.95 135.3 363.9 132.01 365.8 128.28 365.8 125.97 363.9 122.24 360.95 118.95 358.65 117.67 
M 356.4 125.28 362.5 124.12 
M 356.76 127.07 362.39 127.03 
M 356.26 129.29 362.35 130 
M 355.54 154.13 357.72 152.8 360.52 149.4 362.33 145.54 362.33 143.16 360.52 139.31 357.72 135.91 355.54 134.58 
M 355.28 176.64 357.43 175.11 360.18 171.18 361.95 166.73 361.95 163.97 360.18 159.52 357.43 155.6 355.28 154.06 
M 353.58 163.24 358.6 162.04 
M 353.53 165.76 358.47 165.65 
M 353.42 167.77 359.01 168.99 
M 357.51 199.44 359.68 198 362.45 194.31 364.24 190.13 364.24 187.54 362.45 183.36 359.68 179.67 357.51 178.23 
M 360.84 202.92 357.98 200.06 355.68 198.91 
M 360.96 106.51 362.76 105.05 364.46 102.32 
M 366.08 128.5 367.92 127.12 370.28 123.57 371.8 119.55 371.8 117.06 370.28 113.04 367.92 109.49 366.08 108.11 
M 364.04 144.54 365.8 143.36 368.05 140.36 369.5 136.95 369.5 134.85 368.05 131.44 365.8 128.44 365.12 127.99 
M 362.17 133.93 367.21 133.13 
M 362.51 136.08 366.61 135.6 
M 362.2 137.44 366.44 138.92 
M 360.99 161 363.12 157.49 364.57 153.29 364.57 150.68 363.12 146.48 361.68 144.12 
M 363.6 188.87 364.94 187.67 367.24 183.59 368.72 178.96 368.72 176.1 367.24 171.47 364.94 167.39 363.15 165.79 
M 368.62 201.13 369.19 199.77 369.19 197.47 367.61 193.75 365.14 190.47 363.22 189.18 
M 371.01 114.49 373.52 111.14 375.23 107.13 375.23 104.65 374.91 103.89 
M 370.01 134.98 372.05 133.71 374.65 130.45 376.34 126.76 376.34 124.48 374.65 120.79 372.05 117.54 371.26 117.05 
M 370.39 123.04 373.45 122.47 
M 368.74 125.48 373.44 125.81 
M 368.19 127.26 373.07 128.35 
M 366.69 152.4 368.76 151.08 371.41 147.68 373.12 143.83 373.12 141.44 371.41 137.59 368.76 134.19 366.69 132.87 
M 366.62 175.3 368.76 173.74 371.51 169.75 373.28 165.22 373.28 162.42 371.51 157.89 368.76 153.9 366.62 152.34 
M 369.39 198.83 371.66 197.33 374.57 193.51 376.44 189.19 376.44 186.51 374.57 182.18 371.66 178.36 369.39 176.87 
M 371.68 200.41 371.05 199.81 368.59 198.62 
M 372.1 104.06 372.78 103.52 
M 376.01 125.2 377.58 123.86 379.6 120.44 380.89 116.57 380.89 114.17 379.6 110.3 377.58 106.88 376.01 105.54 
M 374.93 113.45 378.56 112.82 
M 374.77 114.99 378.79 115.04 
M 374.17 117.58 378.52 118 
M 373.92 141.67 375.53 140.48 377.6 137.43 378.93 133.98 378.93 131.84 377.6 128.39 375.73 125.65 
M 374.15 130.72 376.39 130.11 
M 372.05 133.31 376.5 132.51 
M 372.71 134.86 376.51 135.16 
M 371.79 158.72 373.73 155.43 375.18 151.09 375.18 148.4 373.73 144.06 371.48 140.22 369.72 138.73 
M 374.51 188.53 376.34 186.83 378.69 182.48 380.2 177.55 380.2 174.5 378.69 169.57 376.34 165.22 374.51 163.52 
M 382.73 197.45 381.28 193.94 378.71 190.38 376.69 189 
M 374.98 197.37 379.47 195.86 
M 374.86 199.5 375.83 199.38 
M 378.88 111.28 381.06 110.17 384.01 107.03 
M 377.11 105.02 382.1 106.01 
M 379.77 130.38 381.93 129.31 384.01 127.24 
M 384.01 117.79 381.93 115.73 379.77 114.66 
M 377.73 120.61 383.52 120.35 
M 377.25 122.43 382.91 122.24 
M 377.24 123.69 383.52 124.46 
M 377.27 148.5 379.49 147.4 382.32 144.56 384.01 141.57 
M 384.01 139.13 382.32 136.14 379.49 133.3 378.45 132.79 
M 376.62 138.53 380.82 138.11 
M 375.55 140.08 381.14 140.19 
M 375.37 141.55 380.51 142.53 
M 379.16 170.9 380.35 170.26 383.26 167.09 384.01 165.66 
M 384.01 159.14 383.26 157.71 380.35 154.54 378.07 153.31 
M 375.98 160.81 382.08 159.25 
M 375.82 162.59 381.7 162.5 
M 376.32 164.03 381.64 164.84 
M 381.72 196.2 384.01 195.02 
M 384.01 179.59 381.72 178.41 
M 175.84 73.57 175.84 73.57 
M 172.5 220.73 173.57 219.78 176.2 215.68 176.2 214.86 
M 177.06 231.56 175.83 229.98 171.87 227.08 171.08 226.79 
M 184.29 231.82 184.63 231.59 187.56 228.01 187.56 225.79 184.63 222.22 180.08 219.06 176.53 217.82 
M 173.52 224.66 181.93 223.88 
M 173.09 226.91 182.41 227.07 
M 172.76 228.27 181.87 229.75 
M 189.88 73.43 189.88 73.43 
M 184.93 229.7 187.83 228.4 191.54 225.08 193.94 221.33 193.94 219 191.54 215.24 190.69 214.48 
M 194.77 73.68 194.77 73.68 
M 194.13 222.28 197.6 221.03 202.05 217.84 204.92 214.23 204.92 212.61 
M 202.88 229.07 201.19 226.93 197.07 223.97 193.84 222.81 
M 208.7 228.45 210.5 225.63 210.5 223.5 208.3 220.06 204.88 217.02 203.57 216.43 
M 206.54 74.76 206.54 74.76 
M 218.87 219.26 220.81 217.83 223.3 214.16 223.91 212.57 
M 225.96 228.44 224.93 227.96 
M 228.85 217.3 230.53 215.74 232.08 212.85 
M 237.47 228.39 237.47 226.97 235.91 223.01 233.48 219.52 231.58 218.16 
M 230.34 79.49 230.34 79.49 
M 235.76 227 237.85 225.52 240.53 221.73 242.26 217.44 242.26 214.79 241.45 212.78 
M 234.04 213.96 237.99 212.87 
M 239.61 81.49 239.61 81.49 
M 241.13 81.81 241.13 81.81 
M 247.31 224.27 248.47 223.41 251.04 219.6 252.7 215.29 252.7 212.63 252.52 212.16 
M 250.6 83.72 250.6 83.72 
M 251.06 214.18 252.69 212.57 252.91 212.14 
M 256.42 226.92 257.34 224.3 257.34 221.9 255.98 218.03 253.87 214.61 252.23 213.28 
M 256.6 222.35 258.61 220.84 261.17 216.97 262.82 212.58 262.82 211.81 
M 255.66 84.8 255.66 84.8 
M 266.98 226.56 268.52 222.36 268.52 219.87 267.08 215.84 264.85 212.28 264.31 211.84 
M 260.99 219.38 265.72 218.3 
M 261.71 221.23 265.94 220.88 
M 261.09 223.54 266.3 224.17 
M 266.87 87.33 266.87 87.33 
M 274.74 226.89 273.52 224.4 270.84 221.28 268.75 220.07 
M 272.47 88.54 272.47 88.54 
M 276.94 227.04 278.65 224.6 280.21 220.69 280.21 218.27 278.65 214.36 277.41 212.59 
M 272.78 217.34 277.78 216.11 
M 272.37 219.76 277.39 219.51 
M 280.03 219.36 282.57 217.94 285.83 214.3 286.51 212.97 
M 286.97 227.29 286.97 226.48 285.14 223.2 282.31 220.3 280.1 219.17 
M 294.28 219.74 296.89 218.46 300.22 215.17 302.28 211.61 
M 293.24 212.59 298.53 213.19 
M 299.76 93.82 299.76 93.82 
M 302.21 212.15 303.31 211.48 
M 304.08 225.13 305.04 224.06 306.67 220.92 306.67 218.98 305.04 215.84 302.53 213.06 300.56 211.98 
M 307.81 219.82 310.26 218.61 313.39 215.53 315.41 212.03 315.35 209.76 
M 310.46 223.98 309.27 222.17 306.41 219.7 304.18 218.73 
M 315.85 212.6 317.92 211.26 319.51 209.19 
M 316.95 222.85 318.42 220.05 318.42 218.22 316.88 215.28 314.48 212.68 312.61 211.66 
M 319.61 96.81 319.61 96.81 
M 323.13 218.23 327.62 218.19 
M 332.6 218.38 334.82 217.25 337.67 214.33 339.51 211.02 339.51 208.97 338.39 206.96 
M 344.15 217 346.32 215.87 349.1 212.97 350.89 209.69 350.89 207.66 349.58 205.26 
M 342.28 207.28 347.35 206.47 
M 341.72 208.65 347.22 208.74 
M 344.22 218.56 341.81 216.42 339.61 215.43 
M 352.08 209.67 353.8 208.4 356 205.16 356.49 203.89 
M 353.22 216.69 353.41 216.33 353.41 214.53 351.84 211.61 349.41 209.04 347.52 208.04 
M 355.68 215.76 357.98 214.62 360.91 211.69 362.81 208.37 362.81 206.31 360.84 202.92 
M 363.22 208.06 365.14 206.78 367.61 203.49 368.62 201.13 
M 366.08 213.39 364.72 211.06 362.02 208.43 359.91 207.4 
M 375.83 199.38 380.13 198.84 
M 374.91 201.67 379.93 201.96 
M 226.14 78.54 226.15 78.55 
M 233.42 80.19 245.67 58.38 247.34 52.36 248.33 49.51 249.53 46.87 251.93 45.39 255.64 45.25 258.62 44.39 261.73 43.97 263.58 42.98 266.45 43.01 268.85 41.56 270.45 39.26 272.68 37.64 274.66 35.82 276.36 33.72 278.66 33.14 282.04 34.25 287.52 36.93 290.5 37.95 293.01 37.76 295.67 36.57 299.38 32.5 302.03 31.61 304.08 30.54 306.17 30 309.7 30.88 312.92 32.75 314.11 34.87 318.88 40.63 320.27 43.87 320.81 46.3 322.96 47.79 325.09 47.25 328.7 48.78 334.47 50.74 336.79 49.17 338.08 46.57 341.19 41.91 342.66 42.95 344.79 44.81 350.47 48.59 352.31 50.29 355.05 54.17 359.06 58.42 358.62 60.79 357.46 62.92 357.09 65.84 356.41 68.24 356.68 71.53 356.84 78.45 352.81 101.29 
M 348.22 100.91 348.22 100.91 
M 230.62 79.55 233.15 78.23 235.4 75.9 236.38 74.55 238.18 70.04 239.39 68.08 
M 235.09 80.56 237.55 79.25 239.13 76.51 240.87 74.39 242.59 73.01 243.61 70.9 245.52 68.57 248.59 61.44 249.67 59.42 
M 239.58 81.49 241.7 79.88 243.39 77.77 244.69 75.48 248.05 71.25 248.93 69.12 250.25 66.94 251.71 65.11 251.96 56.84 253.22 53.74 
M 244.08 82.41 249.56 76.41 250.69 74 252.4 71.47 252.88 69.55 254.12 66.9 254.97 62.79 257.03 58.27 257.67 54.99 257.99 52.03 259.09 49.74 
M 248.57 83.31 250.59 81.77 251.85 79.71 252.52 77.26 254.31 74.79 257.15 69.51 258.58 67.59 259.06 65.67 260.06 63.55 262.64 62.28 263.63 59.68 263.8 52.66 264.58 49.22 266.56 47.84 
M 253.07 84.23 254.93 82.66 256.36 80.44 257.62 78.06 258.75 75.47 259.6 72.52 260.71 69.91 261.42 67.27 262.71 64.92 264.64 63.38 266.51 62.6 267.6 59.87 269.35 56.35 270.42 53.03 272.09 50.84 273.13 49 273.56 46.4 
M 257.54 85.22 260.83 81.45 263.52 75.97 265.42 71.3 266.29 69.88 268.13 67.87 270.22 65 270.91 62.53 271.52 59.29 272.38 56.27 274.22 54.06 277.22 52.15 279.54 49.58 
M 262.02 86.22 263.75 84.34 265.32 82.28 269.34 75.66 274.45 68.92 275.37 66.42 
M 266.49 87.24 267.96 85.62 269.42 83.52 271.36 81.49 273.66 76.83 275.2 74.45 276.55 71.67 278.22 69.4 279.48 66.78 281.05 65.17 281.97 62.45 283.54 59.36 285.83 57.21 286.87 53.81 287.16 51.13 288.48 49.54 289.33 46.42 291.11 43.51 
M 270.97 88.23 272.6 86.58 273.85 84.25 278.36 77.96 279.13 75.42 280.32 72.29 281.91 69.88 285.73 63.43 286.25 61.59 287.47 58.89 288.7 56.46 291.93 50.84 292.67 47.23 294.92 44.74 296.19 42 297.79 39.28 
M 275.46 89.14 277.49 87.3 280.29 82.56 281.15 80.41 282.51 78.21 284.39 74.03 287.87 68.13 289.05 66.41 290.49 62.13 292.7 57.48 294.39 54.55 296.44 49.14 297.72 48.16 
M 279.96 90.04 282.19 88.2 283.56 85.92 284.62 83.79 285.97 81.99 287.15 79.87 288.1 77.98 289.18 75.18 292.16 70.16 293.52 67.57 295.21 63.13 295.73 61.15 298.65 55.74 300.03 52.63 301.38 49.02 303.1 47.43 304.5 45.51 
M 284.46 90.92 286.31 89.26 290.84 82.75 292.07 80.57 292.63 78.56 294.04 76.08 295.61 74.46 299.49 66.62 299.61 61.42 300.82 58.94 303.77 56.67 306.76 51.23 306.63 49.52 309.02 48.28 311.19 45.77 312.1 43.59 313.37 39.73 313.75 36.87 
M 288.96 91.8 290.82 90.22 292.38 88.13 293.61 86.23 294.7 83.56 296.18 81.35 299.76 77.75 300.75 75.45 301.84 72.25 303.7 69.71 304.34 65.88 305.48 63.01 
M 293.46 92.67 295.78 91.4 298.26 87.5 299.3 85.47 300.9 82.87 302.64 80.83 303.9 78.69 305 75.49 305.56 73.03 306.32 71.08 309.07 66.42 
M 297.97 93.51 300.55 92.27 301.83 90.07 302.8 87.91 304.35 85.49 305.59 82.62 306.95 80.33 308.43 78.82 309.52 76.04 310.94 73.31 310.49 72.14 311.67 69.57 315.33 64.24 316.89 61.11 319.3 53.59 
M 302.49 94.29 304.75 92.87 306.09 90.53 309.68 85.59 311.59 80.64 313.44 79.01 315 76.49 314.45 72.97 315.02 70.58 316.57 68.58 317.24 65.61 319.21 63.25 
M 307.02 95.02 309.12 93.61 310.75 91.3 315.27 84.07 317.89 78.98 318.94 74.1 318.96 71.59 320.45 68.32 321.81 66.65 322.77 64.64 325.3 60.42 326.14 56.58 326.96 54.3 327.09 52.74 328.25 49.93 
M 311.56 95.7 313.88 94.17 317.1 90.49 318.41 88.36 319.31 86.3 320.36 82.87 321.71 79.69 324.65 74.94 
M 316.1 96.34 318.21 94.73 319.82 92.67 321.88 88.12 322.63 85.78 324.47 82.47 328.18 79.48 328.69 77.49 329.12 74.24 330.72 71.13 
M 320.64 96.95 322.77 95.53 323.96 93.3 324.65 90.39 325.63 87.76 328.38 82.91 330.45 80.91 332.56 79.52 333.61 77.51 335.32 71.26 335.96 67.63 337.07 65.36 337.01 63.12 337.74 61.82 338.75 59.24 342.72 54.4 
M 325.18 97.64 326.82 96.14 328.22 94.17 330.54 89.01 333.42 85.02 334.65 81.79 336.8 79.81 338.61 78.49 340.37 69.48 
M 329.71 98.36 331.75 97.15 332.88 95.49 333.94 93.09 335.47 90.81 337.14 87.85 338.12 85.51 340.59 81.43 342.45 78.83 343 74.18 344.82 71.69 345.97 69.51 347.63 67.24 351.12 61.37 352.73 58.38 
M 334.24 99.07 336.2 98.17 339 93.99 340.4 91.17 341.83 89.49 343.23 87.2 344.4 84.91 344.7 82.97 345.78 80.59 347.7 75.46 349.78 72.34 
M 338.77 99.77 341.07 98.64 343.74 94.46 345.72 92.03 349.47 88.3 349.81 85.7 349.64 83.07 350.42 79.86 352.21 76.51 354.55 74.68 
M 343.32 100.33 345.57 99.08 347.05 97.5 349.73 92.91 351.6 90.61 
M 179.77 182.36 185.78 182.23 197.4 181.29 200.2 181.4 211.64 181.14 217.2 181.95 220.09 182.07 223.18 181.91 229.11 182.6 231.49 182.45 234.79 182.49 228.24 186.97 223.65 189.74 212.81 193.28 210.19 193.6 207.37 193.72 204.74 194.1 199.45 195.69 196.55 195.86 190.43 195.46 183.96 194.73 179.77 192.1 
M 188.84 184.03 203.15 183.79 
M 188.94 185.93 200.69 186.54 
M 183 187.12 188.87 188.06 198.14 188.95 201.08 189.78 203.38 190.69 206.39 190.95 
M 186.01 189.25 195.11 191.33 198.19 192.18 
M 179.77 189.24 183.05 190.11 186.02 191.1 189.03 192.37 191.93 193.15 195.06 194.3 
M 234.86 236.31 238.65 240.37 244.28 247.06 248.82 249.84 264.84 272.97 260.52 276.34 258.97 278.69 256.58 280 248.58 277.57 246.34 277.19 242.98 277.03 239.28 278.54 219.8 252.77 215.34 246.43 211.48 240.29 208.7 236.52 
M 230.28 236.32 235.4 241.45 239.74 246.41 242.33 248.4 245.16 249.98 248.75 254.78 251.65 256.72 252.92 258.41 254.91 259.74 260.38 264.08 
M 225.69 236.33 228.8 239.51 231.13 242.19 232.67 244.6 234.76 246.47 236.59 248.53 238.46 251.1 242.83 255.79 
M 221.11 236.28 224.09 239.38 226.18 242.3 228.27 244.54 231.04 248.89 232.12 251.24 234.49 254.09 236.13 257.01 238.42 259.34 241.5 261.83 244.12 266.81 246.73 270.26 248.78 271.96 
M 216.52 236.28 223.39 244.63 224.64 246.93 226.62 249.1 227.67 250.95 232.48 256.34 233.39 259.76 
M 211.94 236.42 216.04 241.94 217.76 244.81 222.06 250.35 223.2 252.39 224.8 254.35 226.23 256.74 227.04 259.15 229.08 262.21 231.91 264.32 
M 356.94 221.83 360.26 225.45 364.63 231.22 365.81 232.47 369.45 244.59 367.75 246.79 365.57 248.49 362.38 249.05 359.22 249.13 355.89 248.96 351.21 251.01 349.42 253.1 347.93 255.5 341.8 254.76 338.92 253.48 335.47 253.21 333.14 254.12 330.05 253.97 328.13 255.58 326.43 257.3 323.49 256.98 320.76 257.03 317.37 256.67 314.28 256.6 311.42 255.56 307.87 253.61 296.33 248 294.85 246.42 292.32 243.05 290.7 239.08 287.18 234.44 
M 352.49 222.94 357.25 228.97 359.08 231.91 
M 348.03 224.03 352.84 229.56 355.27 232.05 
M 343.53 224.92 347.02 228.46 350.7 232.91 352.18 236.43 355.14 241.1 
M 339.03 225.78 342.25 229.55 346.58 233.87 347.69 236.93 349.66 240.66 
M 334.5 226.53 341.83 235.81 343.21 238.52 345.31 241.82 347.68 247.43 
M 329.98 227.27 332.95 230.87 336.99 236.43 339.35 238.77 341.47 241.46 342.77 244.72 
M 325.45 228.01 327.51 231.72 329.68 234.4 331.79 237.58 334.33 240.06 337.5 241.48 339.41 243.97 
M 320.93 228.77 325.23 235.6 326.83 238.47 329.49 241.64 332.14 243.92 334.06 246.32 335.76 248.93 
M 316.42 229.6 320.15 233.95 323.14 239.71 327.84 245.7 328.82 248.25 
M 311.91 230.45 315.33 234.81 317.88 238.44 319.39 241.44 321.02 244.1 323.04 245.98 324.89 247.26 327.74 250.9 
M 307.42 231.35 309.96 235.44 314.68 241.68 316.57 244.66 320.47 248.51 
M 302.91 232.21 305.68 236.47 310.33 242.59 312.19 245.4 313.29 248.27 314.67 250.15 316.76 251.43 318.51 254.31 
M 298.4 233.01 303.91 240.78 307.43 246.63 307.88 249.36 309.77 252.5 
M 293.86 233.69 297.38 238.28 299.47 241.82 300.91 245.01 303.35 246.91 307.3 251.94 
M 383.1 105.8 385.86 104.93 388.22 103.8 390.62 102.39 396.17 100.09 398.93 98.23 401.33 96.09 404.39 94.57 409.38 92.9 411.68 92.6 414.13 90.7 415.97 88.62 417.97 86.79 419.97 85.83 421.99 84.3 424.81 82.49 430.16 78.41 432.91 77.31 433.94 76.41 437.51 76.04 439.92 74.06 440.92 72.62 443.01 71.14 446.64 70.83 450.18 69.98 451.13 67.55 452.69 65.27 454.25 64.02 456.03 63.82 461.42 59.03 463.91 56.47 446.82 82.32 445.24 84.35 444.55 87.26 443.18 89.49 441.2 94.74 441.19 98.35 438.77 103.18 437.99 105.7 437.39 108.2 437.28 111.19 436.39 113.39 435.98 115.81 434.68 117.17 435.02 122.91 434.15 125.78 434.04 129.42 433.03 132.16 431.03 133.73 431.01 136.92 430.41 142.3 430.8 147.27 429.35 155.03 427.2 159.93 426.75 162.44 428.84 171.05 429.24 174.55 428.93 177.3 429.53 179.81 431.24 185.35 432.67 192.64 433.43 195.4 433.82 198.34 433.89 201.63 432.52 206.67 434.45 208.96 436.53 212.09 437.95 216.04 439.84 222.97 439.67 225.32 438.85 226.83 439.31 229.21 440.3 232.11 440.53 234.24 441.25 236.8 442.41 239.46 444.14 244.19 444.6 246.06 463.52 271.38 461.7 268.73 459.1 266.85 457.11 265.74 455.04 265.1 453.41 263.43 451.47 261.93 445.12 257.49 442.47 254.91 441.1 254.71 439.21 253.44 436.57 250.52 431.86 247.6 426.9 244.06 424.28 242.66 418.83 238.47 417.19 237.79 415.24 236.22 414.27 234.56 411.75 233.45 409.14 231.52 406.79 229.38 401.13 226.98 395.5 223.23 392.96 220.87 388.58 217.3 383.1 213.5 
M 386.32 110.49 391.51 108.36 401.23 103.38 404.2 102.01 410.46 99.76 412.58 98.79 418.3 94.89 420.12 92.58 422.52 92.25 424.24 91.19 426.88 90.44 429.87 90.04 432.83 88.61 434.36 85.87 436.02 84.74 437.99 84.41 444.24 82.92 
M 392.38 113.56 394.49 112.69 396.59 112.29 401.77 110.19 404.43 109.84 407.73 108.62 411.5 107.89 414.04 107.07 415.06 104.78 
M 392.53 119.88 395.06 119.36 397.35 119.13 399.47 117.92 401.97 117.06 405.04 116.99 411.94 113.97 414.64 113.49 417.64 112.69 419.57 110.44 421.72 108.78 425.01 108.23 427.44 106.98 429.37 106.89 431.75 105.62 434.89 104.82 
M 383.1 127.34 389.98 126.8 393.04 126.33 395.47 125.5 401.15 124.73 404.07 123.64 406.45 122.16 412.05 120.02 415.37 119.18 418.65 118.63 423.53 118.12 
M 392.58 132.65 398.35 131.9 400.83 130.82 403.84 130.44 410.49 128.66 414.83 126.5 
M 389.79 138.11 395.68 137.42 399.12 138.11 401.58 137.52 405.09 137.57 410.13 136.43 413.23 136.03 417.06 133.56 420.03 132.37 422.84 131.84 424.68 132.47 427.23 133.73 
M 383.1 143.5 390.08 143.5 393.02 143.29 396.12 143.3 399.22 144.22 402.38 144.49 405.83 143.83 408.07 142.38 409.86 141.66 413.23 141.42 
M 393.42 149.35 395.8 149.08 401.51 149.07 405.15 149.34 409.04 149.26 411.86 148.48 414.27 149.14 416.09 149.06 419.16 149.51 
M 383.1 154.27 386.89 155.45 390.21 155.03 393.21 155.18 399.54 156.27 404.92 156.05 411.25 157.52 413.91 156.04 416.06 155.9 418.73 156.74 
M 386.94 160.87 399.92 161.4 403.05 161.95 405.76 162.76 407.83 163.93 410.2 164.78 
M 383.1 165.04 386.69 165.89 392.37 166.44 395.44 167.51 398.88 168.39 401.55 168.83 404.67 168.53 408.06 168.71 411.04 169.67 414.75 169.36 
M 389.77 172.41 395.81 173.91 398.8 174.99 405.64 176.15 409.24 177.11 
M 383.1 175.81 387.29 177.01 390.8 178.71 393.95 179.62 398.96 181.43 401.65 181.7 404.97 183.4 412.31 185.71 413.99 185.91 416.43 185.07 418.72 185.93 421.15 186.36 424.08 186.14 428.26 186.99 
M 386.69 183.03 396.27 185.96 398.91 187.5 404.42 189.58 406.82 191.08 
M 393.54 190.6 395.82 192.41 398.71 193.86 401.66 194.45 404.88 195.72 407.98 197.3 411.42 197.76 413.84 198.87 415.56 200.49 417.79 201.31 
M 389.8 195.58 392.7 196.99 398.73 199.38 404.21 200.94 406.54 202.9 410.3 205.67 414.26 207.49 418.04 208.83 420.79 210.2 
M 383.1 197.35 392.68 202.67 395.5 203.95 397.91 204.33 400.06 204.88 405.08 208.24 406.89 210.55 409.25 213.12 412.85 213.9 
M 386.73 205.04 389.52 206.66 391.9 208.28 394.66 209.78 397.09 210.62 402.39 213.4 407.28 216.68 409.79 218.68 412.49 220.17 414.87 220.86 
M 386.25 210.13 391.73 213.28 394.07 214.87 396.3 216.82 399.7 219.06 404.3 222.8 405.89 223.66 411.3 225.79 417.5 229.75 
M 73.57 111.75 73.7 110.88 74.59 109.28 76.47 107.52 79.75 105.68 99.1 96.58 105.81 94.25 113.56 91.25 121.38 88.79 129.12 86.83 159.72 76.66 165.75 75.08 170.71 74.09 173.72 73.68 178.97 82.55 180.96 91.28 181.61 99.94 181.48 108.56 181.06 117.16 180.12 125.74 178.05 134.26 175.01 177.22 173.87 185.79 172.51 194.34 173.43 211.64 172.61 220.23 170.62 228.75 165.09 237.08 151.73 236.39 141.86 234.3 133.21 230.93 125.53 226.22 118.33 220.29 111.29 213.24 104.64 204.51 98.87 195.63 93.57 186.47 
M 92.53 184.9 87.92 178 83.65 169.98 80.35 161.97 77.71 153.23 77.3 144.59 76.69 137 75.78 131.34 
M 73.53 112.77 73.57 111.75 
M 152.24 116.73 151.38 124.1 150.19 131.12 145.88 149.62 144.38 154.97 143.18 160.12 143.91 165.4 145.33 171.08 146.39 177.12 146.81 183.98 144.48 191.63 135.71 192.64 129.2 192.86 123.05 192.13 117.13 190.06 111.25 186.51 105.3 181.34 99.66 173.99 
M 92.26 183.92 91.25 180.13 89.12 173.67 87.27 166.81 79.93 144.93 76.49 134.03 72.57 120.7 71.06 116.55 70.96 114.33 72.61 112.76 74.91 112.79 76.33 114.57 80.45 132.4 84.16 145.54 87.94 161.12 89.24 165.8 90.73 172.72 91.98 177.21 93.96 186.35 
M 93.15 186.78 90.31 183.32 84.32 176.53 81.4 172.72 79.86 170.96 68.83 159.02 61.72 150.03 57.19 144.67 56.08 142.66 56.65 140.39 58.77 139.35 60.8 140.41 67.25 150.15 72.7 157.53 78.45 164.66 79.75 166.56 82.69 170.32 85.31 174.26 93.88 186.19 
M 109.35 123.62 108.13 119 108.48 114.24 110.35 109.85 113.55 106.31 117.73 103.99 122.43 103.16 127.15 103.9 131.37 106.13 134.64 109.61 136.6 113.96 137.04 118.72 135.92 123.36 133.34 127.38 129.61 130.35 125.1 131.95 120.33 131.99 115.8 130.49 112 127.59 109.35 123.62 
M 109.17 123.21 108.59 121.51 108.22 119.75 108.07 117.96 108.15 116.17 108.44 114.39 108.96 112.67 109.68 111.02 110.6 109.48 111.7 108.06 112.97 106.79 114.39 105.69 115.94 104.77 117.58 104.04 119.31 103.53 121.08 103.23 122.87 103.16 124.67 103.31 126.43 103.68 128.13 104.26 
M 110.87 122.51 110.36 121.03 109.91 117.93 109.97 116.36 110.36 114.37 
M 110.44 114.11 111.31 111.86 113.08 109.28 115.43 107.2 116.78 106.4 118.21 105.77 121.27 105.06 124.4 105.12 127.42 105.96 
M 112.56 121.81 112.13 120.54 111.74 117.89 112.04 115.15 
M 115.03 109.91 116.46 108.72 117.62 108.03 120.13 107.11 122.8 106.83 124.14 106.94 126.72 107.65 
M 114.26 121.11 113.67 118.96 113.57 117.85 113.81 115.6 
M 116.38 111.15 118.45 109.66 120.55 108.89 122.76 108.66 123.87 108.75 126.02 109.35 
M 117.28 120.05 116.8 118.2 116.93 116.32 
M 118.26 113.9 118.97 113.12 120.64 112.19 122.52 111.86 124.4 112.16 126.09 113.05 127.4 114.44 128.19 116.18 128.36 118.08 127.91 119.94 126.88 121.55 125.39 122.74 123.59 123.38 121.68 123.4 119.86 122.79 118.35 121.64 117.28 120.05 
M 119.85 112.63 118.9 114.55 
M 117.87 116.59 116.89 118.55 
M 121.53 112.04 119.89 115.31 
M 119.08 116.93 117.42 120.25 
M 122.95 111.93 120.84 116.15 
M 120.28 117.28 118.21 121.43 
M 124.23 112.13 121.74 117.11 
M 121.48 117.64 119.17 122.26 
M 125.34 112.65 120.22 122.91 
M 126.37 113.35 121.4 123.3 
M 127.27 114.3 122.73 123.39 
M 127.96 115.68 124.22 123.15 
M 128.33 117.7 126.08 122.19 
M 100.46 198.07 104.79 202.41 
M 92.02 184.13 92.42 184.53 
M 93.88 185.99 96.69 188.8 
M 83.98 170.59 88.2 174.81 
M 80.13 161.23 85.48 166.59 
M 77.75 153.35 82.06 157.66 
M 77.44 147.54 81.95 152.05 
M 77.06 141.66 79.76 144.35 
M 76.46 135.55 77.25 136.34 
M 77.67 120.26 78.35 120.93 
M 73.74 110.82 78.39 115.47 
M 76.2 107.78 80.4 111.97 
M 79.66 105.73 83.29 109.36 
M 83.45 104.02 86.5 107.06 
M 87.21 102.27 90.42 105.49 
M 90.93 100.5 94.2 103.77 
M 94.65 98.7 98.17 102.23 
M 98.37 96.92 102.98 101.53 
M 102.38 95.44 107.01 100.06 
M 106.45 94 111.26 98.81 
M 110.42 92.47 114.27 96.31 
M 114.43 90.98 119.79 96.33 
M 118.62 89.66 122.31 93.35 
M 122.87 88.41 127.46 92.99 
M 127.26 87.3 131.64 91.67 
M 131.52 86.05 136.4 90.93 
M 135.67 84.7 139.58 88.61 
M 139.8 83.32 144.72 88.24 
M 143.91 81.93 148.38 86.4 
M 148.02 80.54 152.15 84.67 
M 152.14 79.16 155.31 82.32 
M 156.28 77.79 160.87 82.38 
M 160.46 76.47 165.44 81.44 
M 164.82 75.32 169.36 79.86 
M 169.36 74.36 172.9 77.9 
M 168.81 122.05 166.28 120.7 166.14 120.21 166.46 119.35 
M 141.99 220.65 140.5 219.1 139.26 217.51 138.47 217.12 136.67 216.9 
M 126.45 138.72 127.83 138.96 128.88 139.52 129.65 140.63 129.87 141.42 
M 151.98 86.52 150.38 86.26 148.32 85.47 147.68 85.69 146.73 86.7 
M 171.23 165.15 170.98 164.26 170.62 163.88 170.2 163.88 169.5 164.22 
M 121.22 88.84 120.65 89.31 119.22 91.11 118.18 91.81 
M 169.37 92.67 167.63 90.16 166.79 89.32 165.98 88.68 165.12 88.28 163.62 88.11 163.11 87.91 162.55 87.47 162.17 86.93 
M 106.48 109.08 107.1 108.43 108.38 106.02 
M 153.76 110.99 150.41 113.38 148.13 116.08 146.48 117.4 
M 172.78 105.65 174.12 104.03 175.93 100.93 176.62 98.64 177.02 95.95 
M 170.98 86.43 169.73 86.74 168.09 86.78 166.49 86.3 164.97 86.82 
M 127.5 221.61 126.28 220.32 123.88 219.59 120.91 218.39 120.31 217.69 119.76 216.49 
M 138.35 104.49 138.16 103.27 137.35 102.14 137.49 100.58 
M 102.13 199.23 101.75 200.06 
M 177.2 145.49 176.4 145.94 174.46 147.78 174.1 148.34 173.86 149.17 173.26 149.96 
M 92.5 101.35 90.9 101.07 89.72 101.34 88.3 102.39 87.57 103.79 
M 136.35 146.06 136.34 144.95 136.58 144.22 138.21 143.32 138.28 143.09 
M 106.37 187.08 107.7 188.78 108.33 189.32 109.46 189.92 110 190.02 111.24 189.95 113.99 189.43 115.67 189.58 116.49 189.39 117.04 189.03 
M 117.98 152.71 119.42 150.94 120.58 149.03 120.96 148.92 121.3 149.04 121.77 149.62 
M 171.34 97.88 169.96 94.35 167.46 90.48 165.75 88.95 164.86 88.57 163.37 88.25 162.88 87.98 162.23 87.28 
M 101.39 144.77 98.41 145.31 97.04 144.94 94.96 143.54 
M 106.87 117.16 107.23 116.16 108.44 114.75 
M 105.38 172.1 101.68 173.29 99.84 173.7 98.08 173.31 97.61 173.06 
M 113.5 177.88 110.22 177.91 109.14 178.22 108.51 178.61 107.46 181 107.41 181.86 107.72 182.72 
M 142.9 86.83 140.25 87.59 139.04 87.7 136.94 86.51 
M 104.39 181.22 104.67 183.06 105.25 184.85 106.01 186.51 107.29 188.3 107.9 188.97 109.11 189.76 110.2 190.02 111.48 189.88 
M 110.44 178.72 109.65 179.04 109.16 179.55 108.64 181.01 108.58 181.61 108.66 182.23 108.93 182.75 110.48 183.87 
M 143.68 82 142.33 83.26 140.49 84.18 138.5 85.53 137.35 85.86 136.16 85.8 
M 124.87 225.68 125.01 224.81 124.23 223.45 122.78 222.6 120.65 222.2 
M 172.23 84.98 170.51 85.39 167.91 85.62 165.19 86.67 
M 109.65 211.09 110.77 209.72 
M 87.09 149.34 87.7 150.03 88.07 150.15 88.8 150.08 89.79 149.41 90.28 148.21 
M 163.88 124 164.55 123.28 165.01 122.36 166.03 121.55 
M 128.77 210.2 126.02 207.44 125.49 206.29 125.64 205.29 
M 86.72 143.14 87.34 143.48 88.99 143.67 90.42 144.48 
M 94.61 119.88 95.14 119.06 94.88 117.78 92.7 115.63 91.45 114.08 
M 112.69 201.93 112.82 200.95 113.11 200.22 113.74 199.63 116.21 197.74 120.92 195.06 122.25 193.94 122.54 193.35 
M 111.86 179.37 111.21 179.51 109.95 180.3 109.62 180.93 109.72 181.51 
M 83.51 143.22 84.91 145.59 85.73 146.26 86.59 146.52 87.98 146.19 
M 177.37 142.95 176.49 143.07 175.87 144.5 174.77 145.91 
M 168.89 190.48 171.17 190.93 
M 154.62 171.3 154.94 170.55 155.33 170.42 
M 155.13 83.97 153.2 83.78 152.42 83.51 151.31 82.55 150.2 81.15 149.05 80.2 
M 102.46 136.94 94.62 139.33 93.6 140.21 92.93 141.48 
M 97.46 138.95 94.78 139.7 93.69 140.45 92.92 141.67 92.52 144.53 
M 150.08 151.34 149.08 151.79 147.36 151.48 147.09 151.25 146.9 150.41 146.96 149.01 146.74 147.93 
M 177.9 110.44 175.79 107.57 175.16 106.1 175.28 104 176.5 101.26 
M 100.38 147.83 99.69 147.92 97.98 148.68 97.03 148.87 96.29 148.65 94.56 147.38 
M 165.81 75.53 165.95 76.41 165.41 76.9 
M 147.93 168.01 148.29 168.61 148.18 169.69 146.81 171.76 146.76 172.33 
M 167.7 157.02 166.22 157.68 163.54 158.18 161.31 158.91 157.26 161.25 155.53 162.43 154.05 163.7 
M 142.79 221.6 141.97 220.44 140.46 218.92 139.54 217.7 138.71 217.15 137.11 216.9 
M 123.87 178.79 122.39 178.76 120.73 178.17 120.01 178.38 119.44 178.79 
M 153.75 158.78 153.08 160.39 150.96 163.36 149.14 166.39 
M 110.89 131.56 108.43 128.15 107.72 127.59 104.16 125.78 103.24 124.25 
M 150.66 106.98 147.38 107.21 146.17 107.79 144.83 108.09 140.43 108.17 
M 162.05 140.32 164.31 141.1 164.8 141.48 
M 105.34 165.03 103.29 165.09 100.47 164.45 99.64 163.89 97.66 161.6 
M 144.82 104.83 143.46 104.33 142.77 103.88 140.14 101.3 139.08 99.91 138.43 98.75 137.9 96.45 
M 149.57 170.23 147.83 170.94 147.35 171.29 146.84 172.07 146.89 172.37 147.21 172.53 
M 90.47 101.2 89.17 101.82 88.38 102.47 87.45 104.06 86.66 104.23 
M 128.99 194.96 130.04 196.69 130.48 198.27 
M 126.71 226.94 127.23 227.26 
M 119.1 146.55 120.68 145.9 122.54 145.94 122.82 146.1 122.95 146.45 122.83 147.48 
M 92.83 178.51 92.58 177.6 91.79 176.48 
M 88.76 172.25 88.46 171.82 
M 129.13 165.51 128.25 165.55 127.49 165.25 125.98 163.95 125.47 163.05 124.74 161.48 123.21 157.13 122.59 154.87 122.56 154.15 122.73 153.51 
M 152.38 235.66 152.47 234.69 153.14 233.88 153.92 232.39 154.17 229.51 153.95 228.69 
M 157.83 77.28 158.73 78.04 162.54 79.8 162.71 80.09 162.56 80.6 
M 113.28 168.41 111.73 167.24 110.93 166.88 108 166.89 104.1 167.24 103.47 167.09 103.02 166.78 
M 115.23 217.18 116.14 214.86 117.17 212.77 
M 115.74 154.86 118.88 151.1 120.47 148.88 121.1 148.8 121.65 149.31 
M 130.35 172.22 129.73 172.41 129.87 172.97 
M 143.91 148.48 144.48 147.4 144.78 146.42 144.56 145.02 143.99 144.07 142.34 142.91 139.8 142.55 138.67 142.66 
M 123.93 169.51 124.34 168.7 124.72 167.23 124.83 165.15 124.71 163.33 123.94 160.62 
M 172.79 204.25 172.03 207.07 171.01 209.32 171.11 210.37 172.04 212.71 172.26 213.65 
M 148.78 161.64 148.48 161.74 148.18 161.27 
M 99.34 147.64 97.73 148.26 96.83 148.31 96.21 148.01 95.51 147.42 94.65 146.24 
M 95.49 165.67 94.02 164.21 93.02 162.82 92.18 161.21 91.42 158.65 90.24 157.01 
M 126.69 158.62 126.08 155.18 126.45 152.03 126.96 150.1 
M 161.12 84.13 159.65 85.05 158.98 85.82 157.99 85.72 
M 111.76 99.13 111.5 100.81 110.69 103.04 
M 163 143.01 163.64 141.58 164.22 141.33 164.67 141.56 
M 160.02 204.49 157.72 202.62 156.83 201.49 156.47 200.77 156.18 200.07 156.09 199.2 156.88 196.87 
M 139.54 95.01 138.89 93.82 138.11 91.47 135.88 88.89 133.5 86.62 
M 115.09 217.05 117.35 212.07 
M 154.26 184.71 153.27 183.55 151.6 182.52 147.45 181.45 145.92 181.44 145.51 181.53 144.96 181.98 
M 81.07 159.64 82.5 159.21 83 158.77 83.29 156.92 83.14 154.62 
M 102.18 186.93 104.23 189.1 104.7 189.76 104.95 190.43 104.91 191.71 104.55 192.39 103.86 192.66 102.95 192.75 
M 126.11 179.46 124.55 179.69 121.72 178.54 
M 115.11 217.07 116.97 212.87 
M 129.44 93.3 127.76 92.33 127.01 92.19 126.27 92.25 122.45 93.15 120.09 93.36 119.46 93.71 119.14 94.33 
M 179.76 86.02 177.86 84.41 176.01 83.15 173.97 82.21 171.36 82.15 170.1 82.4 168.53 82.97 
M 142.68 109.66 140.01 109.7 139.35 109.81 138.48 110.21 136.99 111.76 136.62 112.65 136.64 113.51 
M 145.53 91.34 144.92 91.06 144.1 91 142.39 91.49 141.09 92.12 140.42 92.21 139.89 92.02 
M 123.49 132.25 122.7 131.97 
M 144 99.54 143.47 98.96 142.47 95.84 142.09 95.47 
M 131.38 164.43 130.59 164.94 128.65 165.52 127.85 165.36 126.33 164.3 125.7 163.44 124.89 161.84 123.4 157.69 122.72 155.27 
M 83.7 160.19 83.88 159.76 83.91 158.48 83.4 155.31 
M 166.82 116.86 166.97 116 168.06 114.38 
M 88.69 130.93 88.13 130.46 87.33 130.13 85.32 129.75 81.5 129.6 80 130.32 
M 106.77 198 104.78 200.48 103.05 202.06 
M 130.41 156.21 131.51 158.97 131.71 160.34 131.58 161 131.28 161.57 130.71 162.12 129.29 163.2 128.1 163.82 127.55 163.82 
M 115.16 156.92 116.35 154.96 119.42 151.18 120.58 149.17 120.92 149 121.41 149.16 
M 89.1 141.63 90.68 143.21 91.25 144.25 91.25 145.51 90.85 146.25 90.44 146.51 
M 180.16 93.52 179.94 91.39 180.48 89.19 
M 178.94 106.95 178.32 104.03 178.35 102.03 178.68 100.19 179.56 98.22 
M 145.3 96.71 143.82 95.27 143.37 95.04 142.56 94.89 142.01 95.3 
M 151.12 82.89 149.29 81.07 148.32 80.44 
M 144.88 209.76 141.6 208.32 135.09 207.34 
M 144.39 216.57 144.07 215.47 142.05 214.2 138.19 211.26 135.98 210.01 132.97 209.1 
M 102.84 149.72 101.65 149.61 100.23 149.78 97.62 150.89 96.89 151.04 95.29 151.11 92.76 150.91 
M 168.51 86.51 167.62 86.6 166.95 86.28 166.52 86.25 164.15 87.12 163.51 87.17 
M 64.9 154.09 67.78 159.61 72.57 168.11 77.67 176.15 83.42 183.94 89.81 191.4 96.69 198.83 103.89 206.09 111.29 213.24 
M 66.06 155.9 65.91 156.03 
M 105.76 206.03 104.39 206.57 
M 174.87 73.61 184.04 82.78 
M 181.94 73.34 188.79 80.19 
M 189.36 73.42 199.04 83.1 
M 197.11 73.83 206.71 83.44 
M 205.22 74.61 211.92 81.31 
M 213.89 75.94 220.36 82.41 
M 223.16 77.87 228.85 83.56 
M 232.64 80.01 241.14 88.52 
M 241.94 81.97 247.89 87.93 
M 251.13 83.83 260.84 93.54 
M 260.52 85.88 267.74 93.1 
M 270.02 88.04 275.54 93.56 
M 279.22 89.9 284.95 95.63 
M 288.33 91.67 298.42 101.76 
M 297.4 93.41 307.1 103.11 
M 306.23 94.9 316.99 105.66 
M 314.83 96.17 320.52 101.85 
M 323.36 97.35 332.76 106.75 
M 332.08 98.73 339.55 106.21 
M 340.71 100.03 346.82 106.14 
M 348.99 100.97 357.05 109.03 
M 356.98 101.63 364.63 109.27 
M 365.07 102.38 375.23 112.54 
M 373.69 103.66 381.21 111.18 
M 383.24 105.87 388.99 111.62 
M 227.62 78.88 228.71 81.06 
M 232.27 79.93 232.88 81.15 
M 235.07 77.26 236.9 80.93 
M 237.25 73.37 241.5 81.88 
M 239.43 69.48 246.1 82.82 
M 242.85 68.06 248.59 79.54 
M 250.26 82.87 250.69 83.75 
M 247.49 69.09 249.95 74.01 
M 253.23 80.58 255.31 84.73 
M 245.87 57.59 247.1 60.05 
M 247.92 61.7 252.84 71.54 
M 256.13 78.1 259.95 85.76 
M 247.36 52.31 256.79 71.18 
M 261.71 81.02 264.61 86.81 
M 249.17 47.68 256.96 63.26 
M 259.42 68.19 261.06 71.47 
M 265.16 79.67 269.26 87.86 
M 252.15 45.38 259.12 59.33 
M 268.14 77.37 273.87 88.82 
M 256.14 45.11 262.29 57.41 
M 267.21 67.26 268.03 68.9 
M 268.85 70.54 277.96 88.75 
M 260.23 45.05 266.8 58.17 
M 267.62 59.81 272.54 69.66 
M 273.36 71.3 283.03 90.64 
M 263.38 43.09 275.28 66.88 
M 276.92 70.16 287.61 91.53 
M 267.23 42.54 275.03 58.12 
M 279.95 67.97 291.6 91.27 
M 270.03 39.87 277.82 55.46 
M 283.57 66.94 295.05 89.91 
M 295.87 91.55 296.73 93.28 
M 272.93 37.41 281.54 54.64 
M 282.36 56.28 295.49 82.53 
M 297.13 85.81 301.26 94.07 
M 275.65 34.6 293.29 69.88 
M 294.11 71.52 294.93 73.16 
M 299.85 83 305.75 94.81 
M 279.12 33.29 288.55 52.16 
M 290.2 55.44 291.84 58.72 
M 294.3 63.64 297.58 70.21 
M 302.5 80.05 310.22 95.5 
M 284.32 35.42 314.67 96.14 
M 289.54 37.62 317.03 92.59 
M 317.85 94.23 319.1 96.75 
M 293.61 37.5 303.04 56.36 
M 317.81 85.9 318.63 87.54 
M 319.45 89.18 323.56 97.4 
M 298.75 39.52 305.31 52.65 
M 320.08 82.18 328.03 98.09 
M 300.6 34.97 308.8 51.38 
M 322.75 79.27 331.94 97.65 
M 302.84 31.19 314.73 54.99 
M 327.04 79.6 336.06 97.65 
M 306.39 30.05 317.47 52.2 
M 328.13 73.53 332.24 81.74 
M 333.06 83.38 341.42 100.1 
M 311.44 31.89 311.85 32.71 
M 312.67 34.35 321.7 52.4 
M 328.26 65.53 329.08 67.17 
M 331.54 72.09 335.64 80.3 
M 336.46 81.94 345.81 100.63 
M 323.45 47.66 327.15 55.05 
M 332.07 64.89 333.71 68.17 
M 335.35 71.45 338.63 78.02 
M 339.45 79.66 351.88 104.51 
M 327.99 48.47 328.4 49.29 
M 329.22 50.94 335.78 64.06 
M 338.24 68.98 353.23 98.95 
M 333.44 51.12 354.3 92.85 
M 337.87 51.73 338.69 53.37 
M 339.51 55.01 340.33 56.65 
M 341.97 59.93 355.38 86.74 
M 339.26 46.25 342.54 52.81 
M 345 57.74 351.56 70.86 
M 354.85 77.42 356.45 80.64 
M 341.23 41.94 346.56 52.6 
M 349.02 57.52 356.69 72.86 
M 347.78 46.78 357.14 65.49 
M 356.22 55.41 358.7 60.37 
M 229.88 291.39 227.99 297.7 
M 229.88 291.39 230.39 297.7 
M 234.68 291.39 230.39 297.7 
M 234.68 291.39 232.79 297.7 
M 239.75 293.5 238.49 297.7 
M 239.48 294.39 239.06 293.8 238.55 293.5 237.65 293.5 236.96 293.8 236.18 294.39 235.61 295.3 235.43 295.89 235.46 296.8 235.88 297.39 236.39 297.7 237.29 297.7 237.98 297.39 238.76 296.8 
M 245.18 294.39 244.76 293.8 244.25 293.5 243.35 293.5 242.66 293.8 241.88 294.39 241.31 295.3 241.13 295.89 241.16 296.8 241.58 297.39 242.09 297.7 242.99 297.7 243.68 297.39 244.46 296.8 
M 247.55 293.5 246.29 297.7 
M 247.19 294.7 248.36 293.8 249.05 293.5 249.95 293.5 250.46 293.8 250.49 294.7 249.59 297.7 
M 250.49 294.7 251.66 293.8 252.35 293.5 253.25 293.5 253.76 293.8 253.79 294.7 252.89 297.7 
M 259.85 293.5 258.59 297.7 
M 259.58 294.39 259.15 293.8 258.64 293.5 257.75 293.5 257.06 293.8 256.27 294.39 255.71 295.3 255.53 295.89 255.56 296.8 255.98 297.39 256.49 297.7 257.39 297.7 258.08 297.39 258.86 296.8 
M 268.55 293.5 267.29 297.7 
M 268.27 294.39 267.86 293.8 267.35 293.5 266.45 293.5 265.76 293.8 264.98 294.39 264.4 295.3 264.23 295.89 264.26 296.8 264.68 297.39 265.19 297.7 266.08 297.7 266.77 297.39 267.56 296.8 
M 270.95 293.5 270.05 296.5 270.08 297.39 270.58 297.7 271.49 297.7 272.18 297.39 273.35 296.5 
M 274.25 293.5 272.99 297.7 
M 277.58 291.39 276.05 296.5 276.08 297.39 276.58 297.7 277.19 297.7 
M 276.05 293.5 278.14 293.5 
M 280.25 293.5 279.35 296.5 279.38 297.39 279.89 297.7 280.79 297.7 281.48 297.39 282.64 296.5 
M 283.55 293.5 282.29 297.7 
M 288.68 294.39 288.56 293.8 287.75 293.5 286.85 293.5 285.86 293.8 285.38 294.39 285.5 295 286.01 295.3 287.42 295.6 287.93 295.89 287.95 296.8 287.48 297.39 286.49 297.7 285.58 297.7 284.77 297.39 284.65 296.8 
M 290.27 297.1 289.88 297.39 290.08 297.7 290.48 297.39 290.27 297.1 
"/></svg>
