<svg xmlns="http://www.w3.org/2000/svg" width="520" height="320"><rect x="0" y="0" width="520" height="320" fill="floralwhite"/><rect x="10" y="10" width="500" height="300" stroke="black" stroke-width="1" fill="none"/><path stroke="black" stroke-width="1" fill="none" stroke-linecap="round" stroke-linejoin="round" d="
M 134.3 92.27 146 89.71 157.84 87.67 169.81 86.61 181.81 85.92 193.82 85.69 205.84 85.76 229.85 86.73 241.87 86.77 253.88 86.53 265.89 85.95 277.9 85.74 289.92 86.03 301.91 86.7 325.83 89.08 337.75 90.61 349.63 92.41 373.32 96.44 385.14 98.63 408.7 103.38 427.53 107.5 
M 427.53 139.88 382.68 148.51 359.27 153.92 312.19 163.64 300.47 166.29 288.65 168.44 276.77 170.29 264.85 171.81 252.86 172.49 240.84 172.53 228.84 171.88 216.92 170.34 193.21 166.44 169.59 161.99 122.47 153.77 
M 214.07 119.3 220.37 119.72 228.07 119.8 231.84 119.69 243.29 118.88 247.58 118.91 256.83 119.55 278.9 117.14 
M 283.17 116.97 287.63 117.02 
M 292.08 117.08 311.57 117.14 321.09 116.22 
M 325.04 116.08 331.02 115.99 334.69 115.69 337.91 114.97 340.87 114.02 344.04 113.34 354.4 112.24 358.09 112.14 372.08 112.92 
M 376.37 113.48 403.95 118.85 
M 408.4 119.58 418.82 120.64 427.53 121.16 
M 125.3 151.53 126.69 153.13 
M 147.03 95.99 139.87 100.41 
M 129.15 142.96 134.32 149.44 
M 148.09 100.98 144.54 103.26 
M 162.32 97.23 159.14 99.67 
M 156.05 102.28 154.86 103.31 
M 158.29 150.05 166.51 159.87 
M 173.04 96.27 172.63 96.52 
M 174.15 154.8 178.56 160.39 
M 189.59 159.62 191.41 162.18 
M 200.7 96.26 199.53 97.58 
M 198.96 156.21 205.18 165.22 
M 212.56 91.63 209.87 94.41 
M 204.77 100.16 201.45 104.04 
M 207.85 152.4 209.38 154.59 
M 213.23 160.54 216.54 166.15 
M 212.71 102.3 211.35 103.67 210.15 105.17 
M 213.26 143.54 220.29 154.38 
M 224.18 160.65 226.41 164.13 
M 228.49 167.26 229.36 168.56 
M 228.48 100.57 223.59 103.97 220.68 106.53 215.39 112.1 212.64 114.77 210.43 116.59 
M 226.69 146.19 228.9 149.47 
M 230.89 152.56 235.07 159.06 
M 240.7 167.14 243.98 171.86 
M 235.57 106.18 229.57 111.23 
M 226.58 113.71 219.61 119.68 
M 227.71 130.95 230.17 134.32 
M 239.43 147.45 243.77 153.9 
M 246.28 157.52 253.18 167.36 256.43 172.29 
M 259.31 93.78 256.48 96.76 
M 253.51 99.55 249.15 103.77 243.95 109.85 242.46 111.14 
M 239.35 113.59 236.11 115.88 
M 232.78 118.37 231.06 119.73 
M 244.5 137.79 253.52 150.12 259.18 158.41 
M 261.54 161.87 264.03 165.5 
M 266.45 169.13 267.62 170.94 
M 270.01 91.15 268.6 92.69 267.36 94.37 
M 264.99 97.84 263.87 99.62 261.41 102.94 259.95 104.36 
M 257.02 107.15 251.34 112.81 
M 244.45 117.64 242.42 118.93 
M 248.75 127.14 251.39 130.57 
M 256.68 137.51 265.61 149.14 
M 268.09 152.58 274.74 161.78 279.69 169.28 
M 287.1 85.96 285.41 87.83 
M 282.71 91.03 281.39 92.65 276.94 97.01 
M 274.04 99.97 272.68 101.53 271.47 103.22 
M 263.06 112.1 261.55 113.44 257.32 117.98 
M 264.2 130.5 267.21 134.3 
M 270.29 138.2 278.03 148.58 
M 289.11 163.55 292.08 167.74 
M 292.49 94.43 289.59 97.39 
M 280.4 105.76 278.9 107.17 273.32 113.17 267.84 118.35 
M 276.91 129.92 284.97 140.42 
M 287.67 143.99 293.1 151.22 
M 296.03 155.08 299.01 159.01 
M 301.93 162.89 303.89 165.52 
M 301.74 97.94 294.29 105.09 292.71 106.43 
M 289.48 109.03 286.21 111.57 
M 283.02 114.18 279.84 117.01 
M 289.61 129.22 292.3 132.67 
M 294.97 136.12 303.67 147.3 
M 307.07 151.56 315.88 162.88 
M 323.73 91.57 320.39 93.94 
M 313.83 98.88 312.33 100.26 309.72 103.43 306.95 106.45 303.72 109.03 300.29 111.4 293.08 117.09 
M 308.37 136.24 321.91 152.89 
M 324.83 156.61 327.76 160.47 
M 334.75 92.29 331.79 94.97 
M 325.63 100.12 320.75 103.77 317.88 106.62 315.33 109.8 312.5 112.71 309.19 115.17 306.12 117.18 
M 312.74 125.39 332.89 150.04 339.11 158.17 
M 341.46 94.73 337.59 99.24 334.86 102.1 331.89 104.75 325.38 109.51 322.26 112.04 318.01 116.45 
M 332.86 134.54 350.35 155.84 
M 348.59 97.8 347.01 98.98 344.1 101.58 333.19 112.86 329.77 116.02 
M 331.2 117.68 333.93 120.88 
M 336.34 123.78 347.52 137.01 
M 350.7 140.74 361.45 153.41 
M 359.05 98.8 353.87 101.79 352.32 102.96 
M 349.32 105.42 342.04 111.8 339.88 114.33 
M 345.72 121 351.74 127.74 
M 354.81 131.19 372.49 150.82 
M 373.5 98.6 360.88 104.79 357.48 106.76 354.32 108.98 349.76 112.74 
M 353.59 116.8 383.52 148.34 
M 390.21 100.87 382.19 103.49 
M 378.07 104.67 372.09 106.64 370.27 107.46 
M 366.71 109.19 360.59 112.23 
M 365.21 116.81 368.36 119.93 
M 375.25 126.8 394.67 146.14 
M 398.99 105.83 388.93 108.87 376.25 111.79 372.55 112.93 
M 385.17 124.69 405.94 144.01 
M 411.3 108.97 409.54 109.81 407.63 110.48 
M 403.64 111.65 393.19 114.02 386.06 115.34 
M 395.62 123.56 408.94 134.9 417.54 141.76 
M 392.99 108.92 393.67 108.15 394.49 106.84 394.62 106.01 394.43 105.26 
M 204.57 87.4 206.24 88.15 206.63 88.12 207.29 87.24 207.7 85.83 
M 241.53 122.97 241.48 124.54 241.16 126.01 241.24 126.59 241.76 127.64 243.45 129.65 
M 341.82 142.4 342.7 140.75 343.05 139.38 343.49 136.49 343.24 134.68 
M 231.26 130.64 230.69 132.34 228.83 135.23 227.4 136.09 226.87 136.15 225.93 135.76 
M 212.65 116.94 211.55 117.29 
M 134.19 126.26 133.49 126.64 132.92 127.41 132.5 129.28 132.2 129.75 
M 247.62 147.65 244.17 146.86 242.78 146.05 242.29 145.92 
M 372.77 148.72 367.31 152.02 
M 366.73 152.16 366.13 152.07 363.1 150.58 362.53 150.15 
M 390.53 130.16 390.1 128.26 389.75 127.62 387.96 126.92 386.56 125.9 
M 359.58 120.19 359.79 121.81 361.31 124.05 362.57 125.34 364.67 126.71 
M 210.98 91.94 208.35 88.65 207.93 87.24 208.03 85.84 
M 214.29 90.96 214.08 86.08 
M 270.42 161.09 271.5 159.95 273.16 158.92 276.19 155.72 
M 374.02 126.92 373.86 125.47 374 124.3 375.9 122.15 376.53 120.92 376.62 119.33 376.42 118.39 
M 291.67 163.74 290.56 163.16 286.88 161.85 286.38 161.51 285.83 160.61 285.44 158.77 
M 401.42 125.3 402.47 125.14 403.01 125.24 403.41 125.57 403.62 126.32 
M 304.81 138.23 304.97 137.38 304.8 135.91 
M 225.16 89.15 225.62 90.14 226.29 90.96 
M 194.18 157.5 193.73 157.2 192.42 155.01 
M 304.6 129.44 302.53 128.96 302.31 128.2 
M 209.6 152.91 207.7 153.21 
M 134.19 120.19 133.37 120.24 
M 305.66 139.89 306.3 138.97 309.6 137.45 310.93 136.43 312.29 135.09 
M 404.06 138.64 404.23 137.9 403.67 136.64 403.31 136.24 402.66 136.06 
M 414.11 142.43 411.91 140.76 410.62 138.99 409.03 138.39 
M 415.23 142.21 412.55 139.88 411.98 138.99 
M 321.09 105.22 322.31 106.62 323.18 107.02 325.45 107.49 325.97 107.9 326.27 108.37 
M 323.91 100.82 324.7 101.06 325.24 101.45 327.31 103.91 328.18 104.67 
M 314.42 114.78 313.97 115.42 313.66 116.27 312.84 120.18 311.45 123.43 309.71 126.38 309.14 126.93 308.29 127.39 
M 244.41 148.17 242.54 146.18 241.52 145.96 
M 380.48 119.8 381.29 119.28 383.9 118.34 385.85 117.23 386.19 116.8 386.34 116.25 386.12 114.93 385.61 113.89 384.84 113.16 
M 272.94 162.33 274.68 160.57 275.99 158.68 277.29 153.99 
M 390.89 125.85 389.51 126.99 388.71 127.09 388.04 126.93 387.02 126.28 386.31 125.57 385.76 123.82 
M 259.49 136.42 260.7 136.84 263.78 137.49 263.97 137.92 263.74 138.75 
M 294.74 158.41 293.89 159.29 292.8 159.81 290 160.53 288.82 160.67 286.6 160.15 285.88 159.26 
M 216.32 86.15 216.32 86.15 
M 223.88 86.52 231.62 77.23 233.79 75.13 234.38 71.46 236.2 69.18 239.87 68.92 242.57 67.82 245.66 67.5 248.83 66.95 251.35 65.85 254.41 65.52 256.97 64.46 258.89 62.75 261.89 61.9 265.5 61.61 269.3 62.06 272.37 61.91 275.59 62.29 278.86 62.21 282.15 61.44 284.96 60.1 287.62 54.39 290.67 54.05 293.81 54.49 297.2 55.8 300.42 55.73 307.3 55.21 310.49 54.55 312.9 53.11 316.53 53.72 319.43 54.85 321.08 55.75 323.02 57.73 324.61 58.65 327.04 59.28 331.57 61.69 334.7 62.58 338.44 62.53 340.97 60.98 344.52 61.4 353.19 68.01 354.68 68.67 355.94 69.61 357.93 71.31 358.94 74.42 359.51 77.65 360.89 81.21 363.96 86.86 363.63 94.75 
M 357.13 93.65 357.13 93.64 
M 221.35 86.39 223.98 85.29 225.35 83.53 
M 226.37 86.64 228.98 85.24 231.05 82.92 232.13 80.59 
M 231.41 86.74 234.54 85.09 237.3 80.84 
M 236.44 86.77 238.39 85.81 239.71 83.93 240.31 81.37 240.75 77.22 242.03 74.03 
M 241.47 86.77 243.31 86.08 244.5 84.13 245.39 80.73 245.29 76.83 
M 246.5 86.71 248.9 85.13 250.02 82.95 250.7 80.1 250.7 77.16 
M 251.53 86.65 254.11 85.12 255.25 83.02 256.32 76.82 257.78 73.71 259.13 71.34 259.89 69.43 
M 256.55 86.38 258.1 84.98 259.61 82.82 261.18 79.5 263.01 76.65 263.8 73.74 264.67 72.33 264.69 69.44 
M 261.58 86.11 263.37 84.91 267.67 76.04 267.99 74.01 270.03 69.89 270.59 66.86 272.26 63.45 
M 266.61 85.93 268.61 84.25 270.12 81.41 271.77 74.82 273.32 71.65 275.68 68.5 
M 271.64 85.79 273.96 83.47 275.08 79.64 277.7 73.62 278.42 70.41 279.35 67.73 280.57 65.01 282.41 62.39 
M 276.67 85.72 278.54 84 279.68 81.9 281.62 79.17 283.28 76.29 284.27 72.98 283.17 70.02 283.94 67.53 284.4 64.52 286.67 63.34 
M 281.7 85.81 287 79.37 289.5 75.29 290.54 72.55 290.2 69.17 
M 286.73 85.89 288.76 84.2 289.99 81.96 293.48 78.63 294.87 74.09 295.52 71.22 297 68.09 297.19 64.31 
M 291.76 86.11 293.7 84.47 295.23 82.54 297.2 80.73 298.45 78.52 299.45 76.01 300.68 73.66 301.03 70.65 302.92 64.86 304.12 62.33 304.02 59.61 
M 296.78 86.32 298.69 84.25 300.14 81.81 301.99 80.01 303.49 79.05 304.67 76.64 305.18 73.89 306.44 71.22 307.39 68.09 307.9 64.59 308.52 62.1 
M 301.8 86.69 308.02 78.84 311.12 74.23 312.05 70.06 313.4 66.26 314.33 62.91 314.6 60.63 315.54 57.9 
M 306.81 87.14 309.35 85.98 310.91 83.98 313.34 81.39 314.84 77.61 317.16 73.89 319.7 67.35 321.24 65.58 
M 311.82 87.61 314.65 86.65 316.6 84.51 317.76 81.11 319.52 78.83 321.41 75.97 322.57 73 324.51 70.75 325.96 70.02 327.5 68.42 326.73 65.56 327.35 63.33 
M 316.83 88.1 319.44 86.44 321.07 83.86 322.54 80.47 324.34 77.95 326.02 76.26 327.15 73.02 
M 321.84 88.6 324.4 86.64 325.8 84.06 329.4 79.19 331.42 77.34 332.7 75.68 333.21 72.79 
M 326.83 89.2 329.16 88.19 332.5 84.16 334.48 81.3 336.4 79.28 337.78 76.84 338.83 74.01 342.95 68.29 
M 331.83 89.8 334.18 88.94 335.94 86.82 337.49 84.23 338.94 81 340.98 79.7 342.51 76.76 344.13 74.87 346.79 72.32 348.8 69.22 
M 336.81 90.47 339.41 88.82 342.1 86.41 344.32 83.74 345.48 81.57 
M 341.79 91.19 344.66 89.97 347.21 87.75 349.05 85.45 350.76 84.05 
M 346.77 91.94 350.3 91.56 352.2 89.84 354.86 88.44 356.52 85.74 359.05 82.82 359.51 80.65 
M 351.73 92.75 355.38 92.77 360.19 89.68 
M 137.91 108.42 175.45 93.5 175.85 94.43 137.44 112.32 
M 137.35 113.1 206.44 93.7 206.73 94.66 135.19 117.45 
M 134.81 117.96 212.95 105.45 213.13 106.44 134.5 121.68 
M 134.08 122.11 222.9 118.16 222.96 119.17 134.29 125.73 
M 134.29 126.14 231.68 132.99 231.63 133.99 134.08 129.75 
M 134.5 130.18 221.56 146.71 221.39 147.7 133.88 133.75 
M 134.7 134.26 215.78 159.71 215.5 160.67 133.67 137.73 
M 135.9 138.35 175.89 156.88 175.49 157.8 133.47 141.22 
M 171.75 96.34 177.87 97.5 180.93 97.88 183.98 98.05 187.02 97.99 190.06 97.68 193.1 97.17 199.16 95.74 
M 199.52 96.95 199.62 99.76 199.85 101.07 200.25 102.27 200.87 103.35 201.69 104.32 202.69 105.18 205.05 106.71 
M 205.27 107.96 206.22 111.14 206.84 112.6 207.63 113.93 208.6 115.11 209.76 116.13 211.08 117.03 214.02 118.56 
M 214.1 119.82 214.75 123.28 215.24 124.91 215.91 126.42 216.78 127.81 217.85 129.07 219.11 130.22 221.95 132.3 
M 221.87 133.57 218.85 135.32 217.5 136.32 216.31 137.45 215.3 138.73 214.49 140.15 213.84 141.7 212.85 145.06 
M 212.64 146.3 210.36 148.18 209.4 149.2 208.63 150.31 208.08 151.51 207.74 152.82 207.6 154.21 207.68 157.16 
M 207.31 158.38 199.54 156.34 195.64 155.51 191.71 154.89 187.77 154.52 183.8 154.38 179.81 154.45 171.79 154.98 
M 174.81 96.96 180.93 97.88 183.98 98.05 187.02 97.99 190.06 97.68 196.13 96.49 
M 199.54 98.38 199.85 101.07 200.25 102.27 200.87 103.35 201.69 104.32 203.83 105.97 
M 176.66 105.2 176.87 106.95 177.13 107.73 178.06 109.07 179.46 110.14 
M 205.71 109.58 206.84 112.6 207.63 113.93 208.6 115.11 209.76 116.13 212.52 117.82 
M 180.68 113.89 181.41 115.86 181.93 116.72 183.31 118.15 185.1 119.25 
M 214.39 121.57 215.24 124.91 215.91 126.42 216.78 127.81 217.85 129.07 220.49 131.28 
M 186.32 123.1 186.87 125.27 187.31 126.25 188.57 127.97 190.28 129.41 
M 220.33 134.42 217.5 136.32 216.31 137.45 215.3 138.73 214.49 140.15 213.31 143.35 
M 190.18 132.86 188.34 134.09 187.56 134.83 186.38 136.58 185.62 138.66 
M 211.46 147.23 209.4 149.2 208.63 150.31 208.08 151.51 207.74 152.82 207.6 155.67 
M 184.41 142.59 183.07 143.87 182.22 145.38 182 146.23 181.91 148.08 
M 203.43 157.32 195.64 155.51 191.71 154.89 187.77 154.52 183.8 154.38 175.8 154.67 
M 181.12 164.16 184.41 167.99 186.45 170.86 194.89 180.3 197.78 183.91 199.95 187.14 202.72 190.55 205.93 193.53 208.77 195.86 209.78 197.5 210.98 200.24 213.96 205.27 216.44 216.23 214.01 218.01 212.25 220.46 210.07 222.46 208.18 224.72 206.03 226.73 204.24 229.1 202.91 232 201.11 234.43 199.98 237.54 198.31 240.1 195.73 241.79 192.69 243 190.41 244.99 188.94 246.49 180.01 256.88 179.07 252.16 180.56 249.01 180.3 245.8 179.48 242.62 179.24 237.46 178.13 232.4 178.94 229.38 178.39 226.5 178.76 223.97 177.43 220.8 177.56 217.64 176.29 211.48 176.83 207.99 175.62 205.09 174.6 201.44 173.86 197.77 173.58 194.82 174.45 188.49 174.1 185.17 173.95 181.54 173.06 178.12 172.59 174.68 171.34 171.87 170.39 169.09 170.09 165.71 169.39 161.95 
M 179.14 163.79 183.68 171 185.82 173.66 187.07 176.06 189.26 177.88 190.46 181.22 197.36 190.16 199.99 192.37 202.68 195.96 205.11 197.8 207.68 200.53 208.03 203.04 209.69 207.32 214.86 212.74 
M 177.17 163.42 181.33 170.66 183.86 177.05 186.19 179.09 188 181.87 191 188.57 191.67 191.43 192.71 193.62 194.82 195.51 196.54 198.91 200.06 202.47 201.23 204.91 
M 175.19 163.04 178.75 170.22 179.58 173.86 180.84 177.39 182.25 180.15 184.49 182.64 185.82 185.32 186.74 188.24 186.96 191.59 187.99 194.05 190.98 199.13 192.14 202.67 193.23 205.22 193.9 208.18 196.11 210.48 198.77 212.71 201.59 216.59 201.84 219.3 203.51 222 204.95 225.5 205.75 228.12 
M 173.21 162.67 174.63 166.41 176.31 169.63 177.33 173 177.93 176.44 180.46 182.71 181.84 185.74 182.51 188.7 182.97 192.43 186.61 204.82 186.48 207.4 
M 171.23 162.3 172.38 165.92 173.21 169.2 174.47 172.15 175.05 175.27 175.9 178.62 176.9 182.2 178.19 185.95 178.95 188.97 178.72 194.54 179.38 197.74 179.88 201.43 179.91 204.74 180.76 208.12 
M 368.86 151.65 372.32 156.38 374.36 160.3 376.37 162.05 371.93 161.93 370.06 164.32 367.65 166.06 364.64 166.9 361.36 166.46 358.59 166.56 352.97 168.8 350.98 171.01 348.77 173.05 346.92 175.46 340.47 177.16 335.45 180.51 333.4 182.58 330.81 184.1 328.68 185.88 319.2 188.36 317.04 190.38 314.52 192.06 312.18 193.98 310.22 196.28 307.99 198.3 306.66 201.24 305.71 203.83 299.85 205.82 299.07 203.32 297.05 201.07 294.97 199.33 292.84 196.69 291.78 193.3 289.76 191.37 285.54 185.84 284.42 183.03 282.58 180.32 280.2 177.54 278.38 174.51 274.99 170.56 
M 363.97 152.81 368.37 158.16 
M 359.07 153.97 363.4 159.69 
M 354.16 155.05 359.07 160.39 
M 349.23 156.08 352.97 160.16 355.34 163.67 
M 344.31 157.11 348.26 162.75 
M 339.38 158.12 342.62 163.79 344.76 168.07 347.14 170.36 
M 334.45 159.13 338.54 163.72 340.21 168.04 
M 329.52 160.12 334.21 163.5 337.02 166.67 
M 324.59 161.11 328.99 165.02 334.88 171.1 
M 319.65 162.11 326.87 169.22 
M 314.72 163.12 319.31 166.83 321.2 170.82 325.79 178.81 328.13 181.89 
M 309.8 164.14 314.27 168.17 316 171.36 320.66 177.9 
M 304.89 165.27 311.18 171.85 312.71 174.99 
M 299.99 166.4 303.31 171.05 306.07 173.97 308.42 177 
M 295.05 167.34 298.3 171.4 304.35 180.04 306.56 182.13 308.73 184.77 
M 290.09 168.19 293.42 171.86 297.71 178.42 300.59 181.6 302.04 183.71 303.79 185.18 
M 285.13 169.02 288.29 172.89 290.44 176.13 292.75 178.88 295.25 182.2 297.38 186.03 298.42 188.38 300.5 189.75 302.57 191.43 308.9 197.46 
M 280.15 169.77 283.21 173.74 285.79 176.52 287.77 179 289.62 182.14 291.43 186.07 293.41 189.34 294.98 191.45 296.8 192.8 
M 427.53 107.5 430 105.8 432.13 103.61 437.01 99.13 439.52 96.31 441.29 93.65 443.36 91 445.5 89.14 449.23 87.94 452.58 86.55 455.15 85.94 457.45 83.91 458.81 81.83 462.13 80.29 463.92 79.26 466.53 79.22 470.71 79.7 474.59 79.39 478.84 77.52 482.09 76.6 483.79 73.78 487.61 71.03 488.57 76.12 487.61 77.6 487.88 80.31 487.68 83.3 487.94 87.13 488.49 91.15 489.84 94.93 488.34 97.27 487.2 99.98 485.41 102.4 483.8 105.06 481.53 106.97 478.85 108.55 477.34 111.29 475.54 113.74 473.58 116.02 470.05 116.74 467.13 117.95 463.12 118.05 460.67 119.71 457.97 121.22 455.01 122.48 453.44 124.91 451.46 126.84 448.73 128.01 450.58 131.44 454.01 132.77 455.77 132.43 458.08 132.67 460.57 133.14 469.67 136.93 470.58 138.51 472.8 141.39 478.19 145.86 480.59 148.52 483.45 152.19 485.01 154.79 487.51 160.91 488.43 163.97 489.04 167 490 170.37 489.47 173.6 488.63 176.72 487.02 179.08 485.42 183.45 480.53 181.44 474.31 179.93 469.14 177.93 467.36 176.41 461.55 174.45 456.08 170.78 450.48 165.48 447.75 163.64 445.66 161.16 441.36 158.53 439.13 155.88 434.98 150.45 427.53 139.88 
M 430.18 107.43 438.02 100.71 440.6 98.32 444.94 93.87 451.02 91.11 453.66 89.2 456.25 88.12 458.5 86.52 460.09 83.71 463.03 83.38 465.91 83.32 468.65 81.98 472.45 82.45 475.73 81.93 
M 435.35 104.84 438.58 102.69 441.47 100.27 444.1 98.72 446.37 97.09 449.18 95.72 452.22 95.02 454.83 92.73 457.23 91.42 459.52 89.11 461.97 87.34 464.26 87.54 467.53 88.13 470.75 86.71 
M 430.69 110.75 438.83 104.87 441.93 102.34 445.17 100.92 447.45 100.52 449.91 99.38 452.9 98.26 456.53 96.54 459.21 94.33 461.28 93.11 463.65 92.4 
M 433.62 110.93 436.25 109.4 439.33 107.17 442.47 105.21 445.68 103.43 448.57 103.2 451.07 102.5 454.16 100.9 460.24 98.16 462.26 97 465.03 96.55 470.79 95.92 473.77 95.27 481.8 95.97 
M 427.53 114.01 431.18 113.75 436.87 111.62 439.89 109.78 443.1 108.16 446.19 106.31 449.38 105.93 452.09 105.16 457.82 103.12 460.68 102.48 
M 434.57 114.33 437.53 113.81 440.55 112.21 446.86 109.48 452.53 107.41 455.55 107.57 465.46 105.88 471.76 103.24 476.91 102.98 
M 434.8 116.15 438 115.84 441.65 114.75 450.18 110.8 452.92 109.8 
M 435.16 117.85 438.65 117.82 441.83 116.56 445.73 115.77 450 113.75 453.01 111.92 
M 427.53 119.21 431.82 119.87 438.99 119.21 448.35 118.06 
M 439.41 121.11 442.33 121.31 
M 432.6 123.15 436.61 123.58 439.64 123.35 442.32 124.18 446.29 123.93 
M 427.53 123.12 432.84 125.08 436.91 126.06 439.6 126.21 442.32 127 446.05 127.49 
M 436.34 129.38 439.11 131.05 441.95 131.94 444.93 132.53 
M 432.12 129.54 435.8 130.94 438.37 132.89 448.61 135.47 452.66 135.31 
M 427.53 128.33 431.99 130.92 435.34 132.53 438.1 134.46 441.08 135.3 448.51 136.83 452.94 136.98 456.91 137.87 460.41 136.97 463.45 137.02 
M 435.06 134.18 438.23 135.69 444.28 137.68 448.65 138.57 452.53 139.58 455.97 141.09 459.01 141.19 
M 431.7 133.74 438 137.32 440.85 138.66 447.71 141.35 450.75 143.12 457.04 144.52 460.67 144.34 463.77 145.27 467.28 145.34 470.45 145.99 472.72 145.53 475.81 145.44 
M 435.06 137.44 437.52 139.25 443.49 141.91 446.2 144.27 449.03 146.14 452.53 146.54 458.47 149.01 462.56 149.13 466.37 149.92 469.3 150.09 475.33 149.75 478.73 150.04 
M 436.9 140.97 439.57 142.84 443.05 144.48 445.11 146.62 447.57 148.55 451.02 149.75 453.92 151.26 457.01 152.35 465.04 153.42 467.35 154.23 470.32 154.91 474.3 155.53 
M 436.37 143.1 438.93 145.14 444.58 149.23 447.41 150.33 452.63 154.09 455.73 154.91 
M 433.76 142.4 438.42 147.54 440.86 149.58 443.79 151.89 446.92 153.05 448.62 155.19 450.52 156.28 454.01 157.8 457.11 159.58 459.56 161.23 461.87 162.46 467.3 164.23 474.2 164.85 476.51 165.65 479.26 167.84 
M 433.37 143.97 435.89 146.78 437.96 149.59 442.94 153.86 447.45 157.24 449.16 158.99 452.16 160.35 455.99 162.78 
M 427.53 138.75 439.38 153.93 441.93 156.67 445.06 158.39 446.63 159.53 448.37 161.3 454.57 165.76 457.61 167.72 460.61 170.16 464.09 171.24 466.67 172.35 
M 39.38 100.62 51.55 98.88 57.37 97.9 69.29 95.35 82.35 93.72 104.34 90.43 111.33 90 117.7 90.09 123.43 90.47 128.41 90.99 132.23 91.57 134.22 92.18 137.5 96.28 138.23 103.13 138.26 106.49 137.67 109.73 137.38 113.03 136.16 116.15 133.97 119.08 132.39 122.13 131.81 125.38 132.05 128.78 132.58 132.23 131.05 135.29 130.71 138.58 128.43 144.85 125.9 151.07 122.47 153.67 111.65 152.94 103.48 151.86 96.11 150.22 89.66 148.32 84.13 146.41 79.26 144.06 74.8 141.13 65.45 134.09 56 126.54 
M 112.48 107.82 108.5 112.79 107.45 114.91 
M 106.74 119.04 106.71 119.89 106.46 120.21 
M 105.22 122.82 104.96 125.27 105.12 127.28 105.59 129.54 106.38 132.04 105.52 134.45 93.08 134.56 87.76 134.2 82.72 133.54 78.16 132.64 74 131.09 70.17 128.72 
M 52.69 123.45 50.71 121.44 44.34 114.26 35.59 105.16 34.61 102.84 35.68 100.47 38.01 99.75 40.15 101.1 49.96 115.71 52.41 119.78 55.19 123.75 56.58 126.14 
M 55.87 126.87 48.89 124 37.62 118.87 32.91 117.08 30.66 115.91 30 113.52 31.42 111.38 34.08 110.99 36.36 112.22 42.67 116.5 50.54 122.12 54.68 124.7 56.43 126 
M 74.71 121.59 73.26 116.12 73.67 110.47 75.9 105.27 79.69 101.07 84.64 98.32 90.21 97.34 95.8 98.21 100.81 100.86 104.68 104.98 107.01 110.14 107.53 115.78 106.2 121.28 103.15 126.05 98.72 129.57 93.38 131.46 87.72 131.52 82.35 129.73 77.85 126.3 74.71 121.59 
M 74.5 121.11 73.81 119.09 73.37 117.01 73.19 114.88 73.28 112.76 73.63 110.65 74.24 108.61 75.1 106.66 76.19 104.83 77.5 103.15 79 101.64 80.68 100.33 82.51 99.24 84.47 98.38 86.51 97.78 88.61 97.43 90.74 97.34 92.86 97.51 94.95 97.95 96.96 98.64 
M 76.36 120.34 75.75 118.56 75.36 116.72 75.2 114.84 75.28 112.96 75.57 111.25 
M 76.34 108.81 77.85 105.96 79.26 104.22 
M 79.35 104.14 81.82 101.99 83.44 101.03 85.16 100.27 86.96 99.74 88.82 99.43 90.7 99.35 92.57 99.51 94.41 99.89 96.19 100.5 
M 78.22 119.57 77.69 118.03 77.35 116.43 77.22 114.8 77.51 111.79 
M 80.72 105.61 82.95 103.66 84.36 102.82 85.85 102.16 87.42 101.7 89.03 101.43 90.66 101.36 92.28 101.5 93.88 101.83 95.42 102.36 
M 80.08 118.8 79.34 116.14 79.23 114.76 79.49 112.18 
M 82.15 107.02 84.09 105.32 85.28 104.61 87.87 103.66 90.61 103.37 91.99 103.49 94.65 104.22 
M 81.94 118.03 81.33 115.85 81.24 114.72 81.47 112.49 
M 83.64 108.36 85.22 106.98 86.2 106.4 88.32 105.62 90.57 105.39 92.81 105.71 93.88 106.08 
M 84.11 117.35 83.54 115.17 83.69 112.97 
M 85.52 109.79 86.11 109.14 88.09 108.05 90.32 107.65 92.55 108 94.55 109.06 96.1 110.71 97.03 112.77 97.24 115.03 96.71 117.23 95.49 119.14 93.72 120.55 91.58 121.3 89.32 121.32 87.17 120.61 85.37 119.24 84.11 117.35 
M 86.74 108.79 86.06 110.14 
M 84.56 113.16 83.54 115.19 
M 88.67 107.94 87.21 110.87 
M 85.94 113.42 84.06 117.16 
M 90.33 107.65 88.33 111.65 
M 87.36 113.58 84.89 118.52 
M 91.73 107.87 89.41 112.51 
M 89.02 113.28 85.86 119.61 
M 93.04 108.26 86.95 120.44 
M 94.24 108.89 88.2 120.95 
M 95.28 109.83 89.53 121.32 
M 96.22 110.96 91.05 121.31 
M 96.93 112.55 92.77 120.88 
M 97.24 114.96 94.93 119.58 
M 43.47 99.94 49.1 105.57 
M 48.8 99.24 54.1 104.55 
M 54.06 98.46 59.5 103.9 
M 59.13 97.49 62.66 101.02 
M 64.06 96.38 67.2 99.53 
M 69.1 95.39 74.16 100.45 
M 74.43 94.68 78.51 98.77 
M 79.81 94.02 84.3 98.51 
M 85.13 93.3 89.32 97.49 
M 90.38 92.51 94.15 96.29 
M 95.58 91.68 99.47 95.57 
M 100.85 90.91 106.49 96.56 
M 106.28 90.31 110.88 94.9 
M 112.02 90.01 115.41 93.4 
M 118.17 90.12 122.45 94.4 
M 124.69 90.6 129.63 95.54 
M 131.6 91.48 136.74 96.61 
M 103.91 104.15 103.99 103.93 
M 116.68 107.57 114.92 107.7 112.72 107.06 111.28 106.07 109.84 104.45 106.34 98.6 
M 91.7 136.21 88.31 133.82 87.56 133.46 87.03 133.36 86.17 133.49 84.38 134.59 
M 136.98 110.99 135.28 109.14 134.77 108.89 134.25 108.91 132.06 109.56 130 110.41 
M 126.76 106.96 126.12 108.35 125.37 111.92 124.98 112.69 123.59 114.07 122.74 115.38 122.45 116.75 122.71 117.56 
M 63.22 96.55 63.53 98.69 
M 107.19 112.1 107.71 112.04 
M 84.52 139.86 84.23 139.72 83.97 139.81 83.48 140.55 
M 65.64 112.81 65.94 112.64 66.22 112.13 66.52 109.75 65.66 107.43 
M 126.07 147.11 125.14 147.14 124.66 146.86 122.36 142.53 
M 108.69 123.23 106.01 121.58 
M 121.74 121.76 123 120.2 123.66 119.79 123.96 119.95 124.47 120.95 
M 126.46 134.31 126.11 136.47 125.88 136.81 125.53 136.97 
M 132.48 95.11 128.77 93.67 127.62 93.32 126.8 93.26 126.24 93.35 125.88 93.59 124.8 95.23 123.87 96.19 
M 41.16 102.6 42.55 100.07 
M 63.21 129.19 61.26 128.88 60.36 128.41 59.96 127.98 59.48 126.49 59.6 122.35 
M 103.43 151.85 103.18 150.69 102.52 149.5 
M 39.88 100.93 40.2 100.47 
M 107.49 115.95 108.78 115.55 110.36 114.52 
M 99.63 92.98 99.26 91.13 
M 117.39 151.36 116.74 151.29 116.37 151 
M 126.04 97.47 125.12 98.07 124.59 98.88 124.32 99.93 124.23 102.42 123.91 103.24 
M 132.38 93.8 130.21 93.18 127.99 92.22 126.03 91.74 125.57 91.77 125.35 91.99 125.13 93.29 
M 69.29 126.38 70.95 125.61 71.66 124.55 
M 60.98 98.23 60.51 97.56 59.72 97.4 
M 121.86 135.07 121.96 135.77 122.75 137.03 122.76 137.23 122.6 137.24 
M 69.37 137.09 71.95 137.55 73.25 137.41 73.98 137.17 
M 132.22 129.9 131.48 130.19 
M 72.5 97.35 70.47 96.52 68.93 95.42 
M 73.01 99.36 71.93 99.83 70.57 101.47 69.68 102.24 67.26 103.37 66.36 103.58 65.63 103.47 65.02 103.14 64.12 102.14 
M 117.24 145.99 116.34 144.06 114.82 141.55 114.4 139.92 114.29 138.46 
M 41.61 120.64 48.51 125.57 52.69 128.3 61.43 133.2 70.13 137.67 
M 48.03 123.6 48.98 125.19 
M 136.07 91.88 146.01 101.82 
M 142.68 90.44 154.06 101.82 
M 149.41 89.12 157.68 97.39 
M 156.27 87.93 163.83 95.49 
M 163.55 87.16 169.7 93.31 
M 170.98 86.54 182.11 97.67 
M 178.57 86.08 188.46 95.97 
M 186.36 85.82 196.3 95.76 
M 194.28 85.69 206.06 97.47 
M 202.35 85.71 214.25 97.61 
M 210.63 85.94 217.62 92.93 
M 219.02 86.28 229.11 96.37 
M 227.48 86.69 238.86 98.07 
M 235.61 86.76 247.21 98.37 
M 243.64 86.75 250.34 93.45 
M 251.59 86.65 260.02 95.08 
M 259.23 86.24 266.54 93.55 
M 266.96 85.92 277.68 96.63 
M 274.79 85.7 281.03 91.94 
M 282.97 85.83 290.21 93.06 
M 291.28 86.09 302.83 97.63 
M 299.75 86.51 308.01 94.76 
M 308.6 87.31 315.81 94.51 
M 317.52 88.17 323.99 94.64 
M 326.56 89.16 335.98 98.59 
M 335.77 90.32 346.07 100.62 
M 345.18 91.68 356.01 102.51 
M 354.81 93.26 365.62 104.07 
M 364.49 94.89 372.12 102.52 
M 374.26 96.61 381.98 104.33 
M 384.14 98.44 395.94 110.25 
M 394.14 100.39 403.88 110.13 
M 404.22 102.42 411.09 109.29 
M 414.45 104.6 420.98 111.13 
M 424.78 106.88 427.01 109.12 
M 128.75 144 129.78 146.05 
M 130.24 139.94 132.98 145.41 
M 131.25 134.9 140.67 153.75 
M 132.2 129.77 133.95 133.26 
M 137.85 141.06 142.95 151.26 
M 132.26 122.84 134.19 126.69 
M 142.28 142.88 145.23 148.77 
M 133.94 119.15 134.19 119.65 
M 146.71 144.69 149.31 149.89 
M 151.14 146.51 151.58 147.4 
M 138.24 106.62 139.71 109.56 
M 134.56 92.22 135.08 93.25 
M 137.69 98.47 142.63 108.36 
M 137.73 91.52 143.58 103.22 
M 145.38 106.82 145.55 107.15 
M 169.69 155.42 170.59 157.22 
M 140.91 90.82 146.76 102.53 
M 172.94 154.89 173.76 156.53 
M 144.08 90.13 149.93 101.83 
M 176.34 154.64 176.93 155.83 
M 147.28 89.49 153.13 101.19 
M 154.03 102.99 154.31 103.54 
M 179.76 154.45 181.04 156.99 
M 150.52 88.93 155.47 98.83 
M 156.37 100.63 157.23 102.33 
M 186.98 161.83 188.88 165.63 
M 153.77 88.36 160.15 101.13 
M 189.32 159.47 192.77 166.37 
M 161.06 95.9 163.07 99.92 
M 193.46 160.71 196.15 166.1 
M 164.4 95.55 165.99 98.72 
M 196.8 160.35 199.5 165.75 
M 163.72 87.14 165.07 89.84 
M 168.67 97.04 168.91 97.51 
M 200.17 160.05 204.26 168.22 
M 167.09 86.84 168.44 89.54 
M 171.14 94.94 171.85 96.36 
M 204.44 161.54 207.14 166.94 
M 170.48 86.57 170.93 87.47 
M 175.43 96.47 175.76 97.12 
M 173.9 86.36 175.25 89.06 
M 178.67 88.86 180.47 92.46 
M 182.99 90.45 186.76 97.99 
M 184.21 85.87 184.66 86.77 
M 185.56 88.57 190.12 97.67 
M 187.7 85.79 193.36 97.11 
M 191.18 85.72 196.52 96.4 
M 194.69 85.69 206.84 109.99 
M 207.74 111.79 209.99 116.29 
M 219.35 135.01 219.44 135.19 
M 198.22 85.7 213.97 117.2 
M 221.17 131.6 221.29 131.84 
M 221.9 133.06 222.97 135.2 
M 239.17 167.6 240.07 169.4 
M 201.74 85.71 216.6 115.41 
M 226.5 135.21 227.4 137.01 
M 205.28 85.74 215.63 106.44 
M 227.33 129.84 230.93 137.04 
M 210.22 88.57 219.22 106.57 
M 231.82 131.77 233.62 135.37 
M 212.91 86.9 218.31 97.71 
M 220.11 101.31 221.91 104.91 
M 235.41 131.91 236.31 133.71 
M 251.61 164.31 254.31 169.71 
M 216.05 86.14 221.9 97.84 
M 254.3 162.64 257.9 169.84 
M 219.66 86.31 224.61 96.21 
M 256.11 159.21 258.81 164.61 
M 223.27 86.48 227.32 94.59 
M 237.22 114.39 239.02 117.99 
M 254.32 148.59 256.12 152.19 
M 257.92 155.79 261.52 162.99 
M 226.65 86.21 228 88.91 
M 235.2 103.31 237.9 108.71 
M 238.8 110.51 240.6 114.11 
M 259.5 151.91 264 160.91 
M 228.85 83.57 230.2 86.27 
M 235.6 97.07 241 107.87 
M 241.9 109.67 242.8 111.47 
M 244.6 115.07 245.5 116.87 
M 231.05 80.92 245 108.83 
M 245.9 110.63 246.8 112.43 
M 233.83 79.44 246.43 104.64 
M 249.13 110.04 250.03 111.84 
M 234.68 74.1 247.73 100.2 
M 254.04 112.8 254.94 114.6 
M 237.22 72.13 249.37 96.43 
M 270.07 137.83 271.87 141.43 
M 240.52 71.68 252.67 95.98 
M 256.27 103.18 257.17 104.98 
M 263.47 117.58 264.37 119.38 
M 270.67 131.98 271.57 133.78 
M 285.97 162.58 287.77 166.18 
M 243.57 70.74 260.22 104.04 
M 274.62 132.84 275.52 134.64 
M 289.02 161.64 292.12 167.85 
M 246.87 70.31 247.32 71.21 
M 250.02 76.61 262.63 101.81 
M 292.33 161.21 295.37 167.29 
M 253.13 75.77 257.63 84.77 
M 259.43 88.37 266.63 102.77 
M 295.43 160.37 298.61 166.72 
M 253.1 68.68 253.55 69.58 
M 256.25 74.98 258.95 80.38 
M 262.55 87.58 267.96 98.38 
M 298.56 159.58 301.28 165.04 
M 256.19 67.8 262.04 79.5 
M 265.64 86.7 270.14 95.7 
M 285.44 126.3 289.94 135.3 
M 258.76 65.89 276.31 100.99 
M 286.21 120.79 294.31 136.99 
M 261.8 64.94 264.05 69.44 
M 266.75 74.84 282.05 105.44 
M 287.45 116.24 300.95 143.24 
M 309.95 161.25 311.25 163.83 
M 265.18 64.66 267.43 69.16 
M 271.93 78.16 285.43 105.16 
M 286.33 106.96 287.23 108.76 
M 289.03 112.36 303.43 141.16 
M 309.73 153.76 310.63 155.56 
M 314.11 162.52 314.44 163.18 
M 268.89 65.03 270.24 67.73 
M 276.54 80.33 277.44 82.13 
M 281.04 89.33 289.14 105.53 
M 290.04 107.33 306.24 139.73 
M 310.74 148.74 311.64 150.54 
M 272.36 64.93 273.71 67.63 
M 276.41 73.03 277.31 74.83 
M 283.61 87.43 296.21 112.63 
M 297.11 114.43 300.71 121.63 
M 303.41 127.03 309.71 139.63 
M 276.07 65.3 276.52 66.2 
M 287.32 87.8 290.02 93.2 
M 290.92 95 299.02 111.2 
M 299.92 113 303.52 120.2 
M 308.02 129.2 309.82 132.8 
M 310.72 134.6 312.52 138.2 
M 279.93 65.98 282.63 71.39 
M 290.74 87.59 298.84 103.79 
M 302.44 110.99 305.14 116.39 
M 283.04 65.15 283.94 66.95 
M 286.64 72.35 288.44 75.95 
M 293.84 86.75 301.94 102.95 
M 314.54 128.15 316.34 131.75 
M 285.24 62.51 292.89 77.81 
M 294.69 81.41 308.19 108.41 
M 286.94 58.86 311.69 108.36 
M 326.09 137.16 327.89 140.76 
M 329.69 144.36 331.49 147.96 
M 289.62 57.18 314.37 106.69 
M 328.77 135.49 334.17 146.29 
M 293.27 57.43 299.12 69.13 
M 301.82 74.53 310.82 92.53 
M 311.72 94.33 317.12 105.13 
M 331.52 133.93 337.82 146.54 
M 297.48 58.81 298.83 61.51 
M 305.13 74.11 319.53 102.92 
M 339.33 142.52 342.03 147.92 
M 345.8 155.45 346.41 156.67 
M 300.95 58.71 301.4 59.61 
M 306.8 70.41 322.1 101.01 
M 341 138.81 343.7 144.21 
M 347.3 151.41 349.6 156.01 
M 308.39 66.53 325.49 100.74 
M 349.79 149.34 352.79 155.34 
M 311.76 66.25 318.06 78.85 
M 318.96 80.65 328.86 100.45 
M 338.76 120.25 342.36 127.45 
M 354.07 150.85 355.98 154.67 
M 312.19 60.06 320.29 76.26 
M 322.99 81.66 331.99 99.66 
M 342.79 121.26 343.69 123.06 
M 349.09 133.86 349.99 135.66 
M 358.09 151.86 359.14 153.95 
M 314.28 57.18 320.58 69.78 
M 321.48 71.58 323.28 75.18 
M 324.18 76.98 325.98 80.58 
M 328.68 85.98 335.88 100.39 
M 351.18 130.99 353.88 136.39 
M 361.08 150.79 362.29 153.21 
M 317.83 57.24 320.08 61.75 
M 321.88 65.35 322.78 67.15 
M 323.68 68.95 329.08 79.75 
M 331.78 85.15 338.98 99.55 
M 340.78 103.15 341.68 104.95 
M 345.28 112.15 347.98 117.55 
M 354.28 130.15 355.18 131.95 
M 365.03 151.66 365.44 152.46 
M 323.14 60.82 330.79 76.12 
M 336.19 86.92 337.99 90.52 
M 347.89 110.32 352.39 119.32 
M 327.51 62.52 336.06 79.62 
M 350.46 108.43 354.06 115.63 
M 332.22 64.89 337.17 74.79 
M 338.07 76.59 342.57 85.59 
M 336.09 65.58 338.34 70.08 
M 341.04 75.48 348.24 89.89 
M 339.32 65.01 341.57 69.51 
M 344.27 74.91 351.47 89.31 
M 342.42 64.17 344.67 68.67 
M 345.57 70.47 359.07 97.47 
M 351.08 74.45 361.88 96.05 
M 363.69 99.65 366.39 105.05 
M 376.29 124.85 377.19 126.65 
M 354.07 73.38 363.83 92.9 
M 364.86 94.96 371.61 108.46 
M 377.91 121.06 379.71 124.66 
M 368.71 95.61 374.56 107.31 
M 381.76 121.71 384.46 127.11 
M 372.58 96.31 377.53 106.21 
M 386.53 124.21 388.33 127.81 
M 376.45 97 376.9 97.91 
M 386.8 117.71 391.3 126.71 
M 392.47 122.01 394.27 125.61 
M 395.47 120.96 397.27 124.56 
M 394.87 112.71 395.77 114.51 
M 397.87 111.66 398.77 113.46 
M 408.67 133.26 409.57 135.06 
M 412.27 140.47 413.02 141.97 
M 398.18 105.25 399.08 107.05 
M 415.28 139.45 416.53 141.95 
M 399.85 101.54 402.1 106.04 
M 418.3 138.44 419.25 140.34 
M 403.77 102.33 406.02 106.83 
M 422.37 139.53 422.97 140.74 
M 407.71 103.16 408.16 104.06 
M 415.59 104.84 416.04 105.74 
M 423.96 107.5 424.86 109.3 
M 216.41 292.3 215.99 291.7 215.18 291.39 213.98 291.39 212.99 291.7 212.21 292.3 212.03 292.89 212.36 293.8 215 295 215.33 295.89 215.06 296.8 214.28 297.39 213.29 297.7 212.09 297.7 211.28 297.39 210.86 296.8 
M 219.08 291.39 217.55 296.5 217.58 297.39 218.09 297.7 218.69 297.7 
M 217.55 293.5 219.65 293.5 
M 220.91 295.3 224.51 295.3 224.69 294.7 224.57 294.1 223.85 293.5 222.95 293.5 222.26 293.8 221.48 294.39 220.91 295.3 220.73 295.89 220.76 296.8 221.18 297.39 221.69 297.7 222.59 297.7 223.28 297.39 224.06 296.8 
M 230.18 294.39 229.76 293.8 229.25 293.5 228.35 293.5 227.66 293.8 226.88 294.39 226.31 295.3 226.13 295.89 226.16 296.8 226.58 297.39 227.09 297.7 227.99 297.7 228.68 297.39 229.46 296.8 
M 231.71 295.3 235.31 295.3 235.49 294.7 235.37 294.1 234.65 293.5 233.75 293.5 233.06 293.8 232.28 294.39 231.71 295.3 231.53 295.89 231.56 296.8 231.98 297.39 232.49 297.7 233.39 297.7 234.08 297.39 234.86 296.8 
M 237.95 293.5 236.69 297.7 
M 237.59 294.7 238.76 293.8 239.45 293.5 240.35 293.5 240.86 293.8 240.89 294.7 239.99 297.7 
M 244.58 291.39 243.05 296.5 243.08 297.39 243.59 297.7 244.19 297.7 
M 243.05 293.5 245.15 293.5 
M 248.18 291.39 246.65 296.5 246.68 297.39 247.19 297.7 247.79 297.7 
M 246.65 293.5 248.75 293.5 
M 251.48 291.39 249.59 297.7 
M 250.49 294.7 251.66 293.8 252.35 293.5 253.25 293.5 253.76 293.8 253.79 294.7 252.89 297.7 
M 255.95 293.5 256.49 297.7 
M 259.55 293.5 255.53 298.89 254.75 299.5 253.76 299.8 
M 264.08 294.39 263.96 293.8 263.14 293.5 262.25 293.5 261.26 293.8 260.77 294.39 260.89 295 261.4 295.3 262.82 295.6 263.33 295.89 263.36 296.8 262.88 297.39 261.89 297.7 260.99 297.7 260.18 297.39 260.06 296.8 
M 269.14 293.5 269.08 297.7 
M 271.55 293.5 269.08 297.7 
M 271.55 293.5 271.49 297.7 
M 273.95 293.5 271.49 297.7 
M 279.35 293.5 278.08 297.7 
M 279.08 294.39 278.65 293.8 278.14 293.5 277.25 293.5 276.56 293.8 275.77 294.39 275.2 295.3 275.02 295.89 275.06 296.8 275.48 297.39 275.99 297.7 276.89 297.7 277.58 297.39 278.36 296.8 
M 282.38 291.39 280.49 297.7 
M 284.77 291.39 282.89 297.7 
M 285.7 295.3 289.31 295.3 289.49 294.7 289.37 294.1 288.64 293.5 287.75 293.5 287.06 293.8 286.27 294.39 285.7 295.3 285.52 295.89 285.56 296.8 285.98 297.39 286.49 297.7 287.39 297.7 288.08 297.39 288.86 296.8 
M 294.98 294.39 294.56 293.8 294.05 293.5 293.14 293.5 292.45 293.8 291.68 294.39 291.11 295.3 290.93 295.89 290.95 296.8 291.38 297.39 291.89 297.7 292.79 297.7 293.48 297.39 294.26 296.8 
M 297.35 293.5 296.45 296.5 296.48 297.39 296.99 297.7 297.89 297.7 298.58 297.39 299.75 296.5 
M 300.64 293.5 299.39 297.7 
M 305.77 294.39 305.65 293.8 304.85 293.5 303.95 293.5 302.95 293.8 302.48 294.39 302.6 295 303.11 295.3 304.52 295.6 305.02 295.89 305.06 296.8 304.58 297.39 303.58 297.7 302.69 297.7 301.88 297.39 301.76 296.8 
M 307.37 297.1 306.98 297.39 307.19 297.7 307.58 297.39 307.37 297.1 
"/></svg>
