<svg xmlns="http://www.w3.org/2000/svg" width="520" height="320"><rect x="0" y="0" width="520" height="320" fill="floralwhite"/><rect x="10" y="10" width="500" height="300" stroke="black" stroke-width="1" fill="none"/><path stroke="black" stroke-width="1" fill="none" stroke-linecap="round" stroke-linejoin="round" d="
M 188.65 122.07 203.13 117.01 219.12 112.53 229.54 108.77 234.86 107.23 251.25 104.56 256.78 104.28 262.31 104.6 273.27 106.14 284.12 108.37 289.5 109.69 294.8 111.29 310.53 116.62 320.89 120.53 355.25 134.78 
M 355.25 177.51 341.61 185.35 326.85 192.96 316.91 197.84 311.73 199.8 306.43 201.42 301 202.46 295.48 202.95 284.42 203.47 278.9 203.97 273.45 204.94 267.96 205.59 245.81 205.77 240.32 205.07 229.57 202.42 213.32 198.95 202.58 196.29 195.01 194.1 
M 194.5 147.95 194.53 147.95 
M 221.1 145.92 223.84 145.74 
M 226.48 145.44 229.1 145.13 
M 231.78 144.95 234.51 144.89 
M 239.87 145.02 242.4 144.99 
M 244.79 144.79 251.68 143.88 
M 256.5 143.75 259.8 143.61 261.78 143.36 263.91 143.37 271.5 144.54 274.92 144.73 
M 277.23 144.91 282.02 145.5 
M 284.3 145.74 286.56 145.98 
M 288.92 146.33 295.19 147.6 300.68 148.94 303.22 149.32 307.87 149.45 316.71 150.13 
M 321.58 150.2 325.32 150.35 330.62 150.92 334.24 151 
M 336.44 150.83 345.67 149.3 351.03 148.98 
M 196.24 186.36 196.33 186.81 
M 197.79 127.2 195.91 131.87 
M 195.02 134.2 193.93 136.31 
M 192.79 138.32 192.39 139.07 
M 197.15 172.36 199.72 179.78 
M 200.56 182.31 201.33 184.8 
M 202.49 189.48 203.52 193.37 
M 203.16 125.14 200.41 132.2 
M 196.12 143.63 194.46 147.79 
M 202.37 170.23 203.17 172.62 
M 203.92 175 204.66 177.4 
M 205.43 179.87 206.27 182.43 
M 208.55 190.05 209.96 194.99 
M 209.58 120.87 208.02 124.29 207.07 129.89 206.46 132.51 203.05 141.72 201.3 144.58 
M 200.23 146.31 199.79 147.12 
M 208.59 171.7 208.8 172.47 
M 209.4 174.74 210.05 177.08 
M 211.84 182.36 213.08 186.29 214.42 191.3 215.03 193.77 215.62 197.2 
M 212.28 129.21 211.7 131.84 
M 210.31 136.8 209.5 139.12 
M 208.78 141.5 208.09 143.9 
M 207.13 146.33 206.51 147.57 
M 214.11 171.04 215.7 177.05 
M 216.41 179.52 217.89 184.61 
M 219.59 191.9 220.03 195.19 220.07 197.39 
M 221.7 114.64 221.29 117.48 
M 216.29 131.8 214.95 136.74 
M 213.8 141.76 212.67 146.34 
M 220.06 172.61 220.49 174.37 
M 221.09 176.74 221.73 179.17 
M 223.56 186.53 224.09 189.89 224.4 195.02 
M 224.47 196.73 224.52 197.46 
M 226.02 117.85 225.67 122.3 225.03 124.87 223.37 127.96 
M 221.35 132.22 220.66 134.64 
M 218.1 144.7 217.68 146.17 
M 224.77 170.73 226.58 176.5 
M 227.55 181.13 228.54 186.84 229.12 194.21 
M 229.55 196.9 229.86 198.49 
M 231.96 113.43 231.24 115.86 
M 230.51 118.29 228.94 124.63 228.53 125.78 
M 227.66 128.05 226.83 130.33 
M 226.21 132.81 225.39 138.12 
M 224.92 140.7 223.72 145.79 
M 230.39 170.66 231.13 174.28 232.37 182.07 
M 232.8 184.42 233.18 186.74 
M 233.49 189 233.86 191.34 
M 234.36 193.83 236.14 200.69 
M 234.63 118.93 233.8 121.24 
M 233.13 123.71 232.47 126.17 
M 231.35 131.24 230.92 136.94 
M 230.57 139.63 229.48 145.05 
M 236.19 170.59 236.35 172.59 
M 236.47 174.58 237.6 182.39 238.32 186.05 
M 238.9 188.61 240.85 196.59 
M 242.19 201.89 242.48 203.06 
M 240.04 117.96 239.42 118.9 238.46 121.05 238.18 122.33 
M 237.7 124.96 236.82 131.77 236.62 137.66 236.03 141.6 
M 235.64 143.87 235.48 144.85 
M 241 168.07 241.38 171.72 
M 241.86 174.08 242.61 178.65 
M 242.83 180.81 243.61 185.53 
M 244.14 188.05 244.66 190.58 
M 247.44 201.94 247.84 203.73 
M 248.11 110.5 246.76 113.76 245.59 117.2 
M 244.86 119.55 243.09 125.49 242.52 129.49 
M 242.34 132.35 242.21 138.25 
M 241.94 140.97 241.53 143.66 
M 246.76 169.71 246.92 171.74 
M 246.94 173.66 247.07 176.65 247.81 180.31 
M 248.38 182.86 248.82 185.28 
M 249.14 187.61 249.9 191.42 252.84 200.57 253.59 204.08 
M 254.86 105.68 253.77 107.62 
M 252.81 109.71 251.93 111.88 
M 249.17 121.36 248.63 123.88 
M 247.69 129.02 247.42 131.77 
M 247.18 134.53 246.6 143.03 
M 251.75 167.28 252.05 170.4 251.98 174.13 252.41 177.46 
M 253.83 184.82 254.85 188.88 258.02 198.25 258.89 201.23 259.2 203 
M 257.08 112.26 256.03 114.25 
M 254.28 118.62 253.3 122.23 252.82 129.33 
M 252.72 132.23 252.62 135.13 
M 252.41 137.89 251.72 142.82 
M 256.84 166.71 257.56 171.2 
M 257.82 173.38 259.32 182.7 
M 259.87 185.27 260.63 188.05 
M 261.57 191.04 263.06 195.66 264.27 200.03 
M 265.05 204.68 265.15 205.42 
M 264.07 111.92 262.19 114.59 261.75 115.67 
M 260.97 117.93 258.68 124.8 
M 257.81 129.97 257.75 138.87 
M 257.31 142.01 256.91 143.73 
M 261.51 161.62 261.96 163.62 262.37 166.85 
M 262.61 168.97 263.35 172.56 264.81 177.89 266.26 186.29 
M 266.99 189.06 267.91 192.04 
M 268.8 195.01 269.76 199.15 269.9 200.36 
M 270.27 204.68 270.33 205.31 
M 271.74 109.51 270.46 111.24 
M 267.96 114.79 266.98 116.85 
M 265.51 121.48 265.2 122.7 263.16 128.24 
M 262.56 130.64 261.87 134.42 261.65 137.16 261.52 143.37 
M 266.66 158.72 267.66 163.42 
M 267.99 165.62 268.27 167.77 
M 268.72 170.09 269.34 172.61 
M 269.94 175.13 270.81 179.88 
M 271.54 184.56 272.36 188.41 274.47 194.64 275.13 197.4 275.48 204.58 
M 272.72 115.81 271.7 117.84 
M 270.86 120.05 269.82 123.6 267.5 130.33 267.34 131.67 
M 267.1 134.41 266.75 139.96 
M 266.61 142.55 266.57 143.76 
M 272.72 163.74 272.93 164.88 274.77 170.44 275.45 173 275.6 174.09 
M 276.14 178.46 277.49 185.69 
M 278.09 188.3 280.17 195.52 280.4 196.8 
M 280.75 199.28 281.02 203.78 
M 275.91 118.26 275.38 119.26 274.66 121.61 274.45 122.93 
M 274.04 125.57 272.99 130.56 
M 272.5 133.05 272.26 135.78 
M 272.19 138.67 272.15 143.81 
M 276.59 157.29 277.1 159.63 
M 277.56 161.92 278.1 164.29 
M 278.84 166.88 279.71 169.6 
M 280.51 172.26 283.01 181.41 283.99 187.29 
M 284.56 189.85 285.47 193.81 285.81 196.23 285.86 198.39 285.42 203.34 
M 282.35 114.99 281.47 117.17 
M 280.7 119.48 279.95 121.81 
M 279.31 124.25 278.89 126.88 
M 278.6 129.62 278.27 132.3 
M 277.85 134.87 277.47 137.46 
M 277.24 140.19 277.17 143.22 
M 279.6 151.86 280.98 156.88 
M 284.77 167.95 285.95 170.97 
M 287.73 176.47 288.9 182.38 290.56 188.91 
M 291.08 191.42 291.45 194.83 291.42 197.93 
M 291.24 199.87 291 203.18 
M 286.73 119.08 284.8 124.89 284.23 127.39 283.93 131.66 
M 283.9 134.64 283.75 138.97 283.07 142.74 
M 282.62 144.73 282.46 145.54 
M 288.47 163.27 292.64 173.79 293.43 176.43 294.35 181.09 295.35 184.94 
M 295.95 187.47 297.1 193.54 297.25 195.72 297.18 200.88 
M 291.49 123.69 289.86 126.72 289.49 127.89 
M 289.02 130.48 288.95 137.96 288.75 140.76 288.5 142 
M 287.85 144.65 287.45 146.06 
M 293.21 163.37 297.51 173.95 301.22 185.06 303.08 192.68 303.49 196.07 
M 303.41 198.03 302.85 201.64 
M 297.05 125.93 295.8 129.34 294.54 134.21 293.41 143.63 
M 293.04 146.01 292.86 147.09 
M 296.78 158.85 297.6 161.41 
M 298.43 163.99 300.48 169.55 
M 301.54 172.38 305.13 181.38 
M 306.42 184.52 308.01 188.9 308.72 191.51 309.23 193.94 309.49 196.17 309.42 197.11 
M 309.13 198.84 308.64 200.74 
M 303.97 123.05 303.21 125.46 
M 302.5 127.9 301.53 131.62 300 136.24 299.46 138.74 298.95 146.49 
M 302.59 160.03 303.3 162.44 
M 304.04 164.9 305.37 168.82 307.62 174.59 312.03 184.43 314.37 190.53 315.09 193.16 315.16 195.18 314.52 197.54 
M 309.72 125.36 307.66 131.22 305.77 135.57 305.09 137.96 304.93 139.33 
M 304.71 142.16 304.62 145.1 
M 304.5 148 304.41 149.43 
M 311.97 171.57 316.85 182.81 318.83 188.55 319.45 191.08 319.79 193.36 319.85 196.44 
M 316.62 125.52 314.72 128.45 313.61 130.54 311.19 137.6 310.56 140.08 310.12 142.73 309.6 149.57 
M 313.5 159.48 314.48 163.09 317.03 170.11 
M 318.09 173 321.91 183.35 322.64 186 323.76 191.96 
M 322.75 124.86 321.45 128.45 319.29 132.79 318.39 135.12 316.36 142.65 315.65 146.63 
M 315.36 149.05 315.24 150.09 
M 319.4 162.28 323.23 173.57 
M 324.2 176.45 326.48 183.56 327.08 186.13 328.17 192.29 
M 327.59 129.5 326.1 132.98 323.64 137.11 322.69 139.43 321.69 143.31 
M 321.18 146.02 320.63 150.18 
M 323.93 160 324.7 162.67 
M 326.3 168.13 330.31 182.05 
M 330.98 184.73 332.2 190.24 
M 332.78 131.33 331.96 133.88 
M 331.16 136.45 327.66 144.7 326.84 147.19 326.14 150.42 
M 329.01 160.14 329.59 162.72 
M 330.16 165.32 331.53 171.79 332.3 174.62 334.38 180.81 336.35 188.13 
M 337.63 132.81 336.55 136.91 333.32 147.46 332.63 149.24 
M 333.72 160 336.19 172.03 337.47 176.49 
M 338.41 179.54 339.26 182.47 
M 340.02 185.3 340.24 186.08 
M 342.17 134.2 339.8 140.67 338.35 146.31 336.91 150.79 
M 338.96 162.61 339.41 165.27 
M 339.84 167.91 340.68 172.05 342.96 179.74 
M 343.89 182.78 344.22 183.9 
M 285.63 196.99 286.53 197.84 287.66 198.14 288.33 197.92 288.77 197.51 288.86 197.2 288.67 196.95 
M 296.9 141.26 296.57 140.97 296.58 140.03 297.53 139.4 
M 220.23 181.75 219.21 182.03 218.41 182.96 218.35 183.38 218.58 184.25 
M 349.8 168.93 350.34 169.32 351.4 171.4 
M 271.65 149.38 272.06 149.04 272.23 148.67 272.23 145.78 272.19 145.16 271.54 143.62 
M 320.28 193.83 320.46 193.16 320.51 191.48 320.95 190.33 322.26 188.37 323.77 187.03 
M 319.69 185.4 320.08 184.19 320.15 182.86 319.65 181.53 318.91 180.47 
M 256.83 192.67 256.14 193.12 255.05 194.44 255.4 195.71 
M 290.12 135.06 290.23 135.77 291.04 136.07 
M 327.76 177.69 326.32 177.8 323.22 178.87 322.67 178.87 320.62 178.21 319.91 178.28 
M 285.04 113.99 284.14 113.15 284.05 112.86 284.22 112.68 
M 283.34 174.78 281.79 177.12 279.95 177.82 279.63 178.26 
M 214.01 133.97 214.55 135.42 216.27 136.57 
M 220.87 127.59 219.19 126.3 217.91 125.82 
M 279.1 158.26 276.48 156.92 275.18 157.07 274.57 157.45 
M 282.27 145.21 284.57 144.24 
M 304.77 156.93 303.67 156.18 301.66 155.14 300.2 154.88 299.13 154.34 
M 208.84 118.48 210.14 117.38 210.89 116.35 211.21 115.25 211.14 114.75 
M 211.31 137.73 212.67 138.3 212.88 138.55 212.78 138.79 
M 253.05 136.16 253.86 134.09 253.75 132.73 252.53 130.19 251.98 129.6 251.35 129.25 
M 197.92 185.75 199 185.45 199.2 185.09 199.15 184.72 
M 311.79 184.61 311.16 184.47 308.14 184.51 307.54 184.67 
M 290.25 122.91 289.32 122.01 288.25 120.52 287.75 120.05 287.13 119.75 285.14 119.49 281.67 120.39 
M 315.2 177.62 315.25 178.13 314.86 180.07 314.92 180.49 315.22 180.86 
M 219.83 182.34 219.28 182.45 218.43 182.98 218.37 183.4 218.61 184.57 
M 299.81 167.62 298.59 166.34 297.5 164.71 295.99 163.33 294.18 162.27 293.74 161.7 293.41 160.47 
M 283.47 198.91 283.35 199.92 282.71 201.27 282.41 202.37 281.9 203.27 
M 252.5 203.27 254.87 200.42 255.91 197.85 
M 254.88 148.45 256.64 147.42 259.25 146.93 
M 232.46 107.06 264.11 30 264.7 30.23 234.81 107.24 
M 241.72 105.49 262.59 49.25 263.19 49.46 244.05 105.68 
M 251.05 104 266.85 67.25 267.43 67.49 253.35 104.32 
M 260.52 104 272.01 83.68 272.56 83.97 262.71 104.65 
M 269.89 105.14 275.62 96.91 276.16 97.22 272.03 105.88 
M 277.38 106.65 278.36 107.21 
M 261.68 37.99 260.62 41.69 259.93 45.41 259.81 49.17 260.51 54.88 
M 261.25 55.14 261.36 58.85 261.84 62.46 262.88 65.93 265.27 70.93 
M 266.01 71.23 266.32 74.7 266.99 78.06 268.21 81.23 270.86 85.71 
M 271.56 86.08 271.56 88.9 271.92 91.61 272.84 94.16 275.04 97.73 
M 275.73 98.13 275.45 100.31 275.55 102.39 276.2 104.32 278.02 107.01 
M 261.12 39.84 260.21 43.55 259.93 45.41 259.81 49.17 260.21 52.97 
M 259.34 45.04 258.49 48.46 258.23 50.18 258.13 53.65 258.49 57.15 
M 257.55 50.24 256.77 53.37 256.43 56.52 256.44 58.12 256.78 61.32 
M 255.76 55.43 254.84 59.71 254.76 62.59 255.06 65.5 
M 253.98 60.63 253.15 64.47 253.07 67.06 253.35 69.68 
M 252.19 65.83 251.63 68.1 251.38 70.38 251.63 73.85 
M 250.4 71.03 249.76 74 249.7 76.01 249.91 78.03 
M 248.61 76.23 248.07 78.77 248.02 80.48 248.2 82.21 
M 246.83 81.43 246.37 83.53 246.48 86.39 
M 261.28 57 261.54 60.67 262.29 64.22 262.88 65.93 264.41 69.28 
M 259.67 62.62 259.89 65.86 260.16 67.44 261.08 70.51 262.43 73.46 
M 258.05 68.23 258.25 71.05 258.82 73.77 260.45 77.65 
M 256.44 73.85 256.8 77.4 257.48 79.66 258.47 81.83 
M 254.82 79.47 255.12 82.38 255.68 84.23 256.49 86.02 
M 253.21 85.09 253.44 87.36 253.87 88.81 254.51 90.2 
M 266.14 72.97 266.59 76.4 266.99 78.06 268.21 81.23 269.91 84.24 
M 263.96 80.32 264.61 84.22 265.55 86.65 266.85 88.96 
M 261.78 87.67 262.24 90.38 262.89 92.07 263.8 93.68 
M 271.53 87.49 271.68 90.27 271.92 91.61 272.84 94.16 274.24 96.56 
M 194.92 149.69 296.49 148.16 296.51 148.79 195.45 151.88 
M 195.63 152.46 282.21 156.84 282.19 157.47 196.34 154.67 
M 196.56 155.35 267.63 163.67 267.56 164.3 196.92 157.55 
M 197.02 158.28 252.93 168.65 252.82 169.27 197.13 160.44 
M 197.08 161.18 238.28 171.78 238.14 172.39 196.95 163.28 
M 196.91 164.05 223.87 173.08 223.69 173.68 196.79 166.1 
M 196.74 166.96 209.86 172.58 209.64 173.17 196.68 168.85 
M 286.01 149.11 281.19 150.59 278.26 152.07 275.61 154.06 273.15 156.38 
M 273.11 157.17 268.33 158.04 265.36 159.15 262.62 160.79 260.03 162.78 
M 259.95 163.57 256.8 163.67 253.75 164.14 250.88 165.16 246.81 167.51 
M 246.67 168.29 242.14 167.98 239.22 168.35 236.39 169.28 233.63 170.58 
M 233.45 171.35 230.57 170.69 227.71 170.41 224.87 170.7 220.67 172 
M 220.44 172.76 217.75 171.75 215.03 171.11 212.27 171.05 208.07 171.82 
M 207.79 172.56 205.32 171.24 202.78 170.31 200.13 169.93 196.63 170.15 
M 284.37 149.55 281.19 150.59 278.26 152.07 276.9 153.01 274.37 155.2 
M 268.12 150 265.5 150.86 263.08 152.08 259.87 154.66 
M 251.87 150.45 249.81 151.13 247.9 152.09 245.37 154.13 
M 235.63 150.9 233.4 151.72 232.08 152.55 230.87 153.59 
M 271.49 157.4 268.33 158.04 266.81 158.53 263.96 159.91 261.32 161.76 
M 252.83 156.76 249.25 157.62 247.06 158.68 245.03 160.1 
M 234.17 156.11 231.68 156.71 230.16 157.45 228.75 158.44 
M 258.36 163.6 255.26 163.84 253.75 164.14 250.88 165.16 248.14 166.66 
M 234.97 161.34 231.97 161.69 230.1 162.36 228.33 163.34 
M 245.15 168.12 242.14 167.98 239.22 168.35 237.79 168.75 235.01 169.9 
M 226.38 165.16 223.46 165.14 221.6 165.57 219.79 166.32 
M 232.01 170.99 229.13 170.48 227.71 170.41 224.87 170.7 222.07 171.5 
M 221.54 199.85 247.78 230.75 247.3 231.16 219.84 201.35 
M 220.4 199.69 220.88 200.43 
M 225.47 207.45 246.99 240.42 246.47 240.77 218.53 200.96 
M 219.25 199.54 219.59 200.24 
M 223.09 207.45 244.02 250.6 243.46 250.88 217.23 200.56 
M 218.08 199.4 218.29 200.02 
M 220.72 207.26 238.75 260.87 238.16 261.08 215.95 200.15 
M 216.89 199.27 216.99 199.78 
M 218.42 206.95 231.16 270.82 230.54 270.95 214.68 199.74 
M 215.41 199.08 215.44 199.58 
M 215.8 204.78 220.99 279.95 220.36 280 213.16 199.26 
M 244.56 228.18 243.7 229.97 243.22 231.78 243.32 233.59 244.33 236.35 
M 243.67 236.79 241.91 239.43 241.29 241.33 241.23 243.37 241.54 245.49 
M 240.83 245.85 239.18 247.48 237.87 249.27 237.08 251.3 236.68 254.72 
M 235.94 254.98 233.9 256.44 232.17 258.12 230.92 260.14 229.73 263.66 
M 228.96 263.82 226.51 265.02 224.32 266.49 222.53 268.39 220.43 271.86 
M 244.1 229.08 243.39 230.87 243.22 231.78 243.32 233.59 243.93 235.43 
M 241.3 225.74 240.67 227.32 240.52 228.12 240.61 229.73 241.14 231.35 
M 238.5 222.4 237.95 223.78 237.8 225.16 238.36 227.27 
M 235.69 219.06 235.12 220.82 235.18 222 235.58 223.19 
M 232.89 215.72 232.51 216.68 232.41 217.65 232.8 219.11 
M 230.09 212.38 229.72 213.51 229.76 214.27 230.01 215.03 
M 243.02 237.66 241.91 239.43 241.52 240.36 241.19 242.33 241.36 244.42 
M 240.6 233.91 239.6 235.51 239.26 236.35 238.96 238.12 239.11 240 
M 238.19 230.16 237.3 231.58 236.8 233.1 236.86 235.57 
M 235.77 226.41 234.72 228.31 234.49 229.69 234.61 231.15 
M 233.35 222.67 232.45 224.29 232.26 225.47 232.36 226.73 
M 230.94 218.92 230.19 220.27 230.02 221.26 230.11 222.3 
M 228.52 215.17 227.83 216.64 227.85 217.88 
M 239.98 246.65 238.46 248.34 237.87 249.27 237.08 251.3 236.76 253.55 
M 238.24 243.02 236.84 244.58 236.29 245.43 235.57 247.31 235.27 249.38 
M 236.5 239.38 234.72 241.59 234.06 243.31 233.78 245.21 
M 234.77 235.75 233.14 237.75 232.54 239.31 232.29 241.04 
M 233.03 232.11 231.57 233.91 231.03 235.32 230.8 236.87 
M 231.29 228.48 230 230.07 229.52 231.32 229.32 232.69 
M 229.55 224.84 228.42 226.24 228 227.32 227.83 228.52 
M 227.81 221.2 226.85 222.4 226.49 223.32 226.34 224.35 
M 226.07 217.57 225.27 218.56 224.85 220.18 
M 234.9 255.7 232.98 257.24 232.17 258.12 230.92 260.14 230.07 262.45 
M 233.6 251.77 231.82 253.21 231.07 254.03 229.9 255.9 229.11 258.05 
M 232.31 247.85 230.66 249.18 229.97 249.93 228.88 251.67 228.16 253.65 
M 231.01 243.93 228.86 245.84 227.87 247.43 227.2 249.26 
M 229.72 240 227.76 241.75 226.85 243.2 226.24 244.86 
M 228.42 236.08 226.65 237.65 225.83 238.96 225.29 240.46 
M 227.13 232.15 225.55 233.56 224.82 234.73 224.33 236.07 
M 225.83 228.23 224.44 229.46 223.8 230.49 223.37 231.67 
M 224.54 224.31 223.34 225.37 222.79 226.26 222.42 227.27 
M 223.24 220.38 221.98 221.63 221.46 222.88 
M 227.72 264.4 225.37 265.71 224.32 266.49 222.53 268.39 221.08 270.65 
M 226.91 260.26 224.71 261.49 223.73 262.22 222.05 263.99 220.7 266.11 
M 226.1 256.12 224.05 257.26 223.14 257.95 221.57 259.6 220.31 261.58 
M 225.29 251.98 223.4 253.04 221.78 254.4 219.93 257.04 
M 224.49 247.84 221.96 249.4 220.62 250.81 219.54 252.5 
M 223.68 243.7 221.37 245.13 220.14 246.42 219.16 247.96 
M 222.87 239.56 220.77 240.85 219.67 242.02 218.77 243.42 
M 222.07 235.42 220.77 236.14 219.66 237.07 218.39 238.88 
M 221.26 231.28 220.11 231.92 219.13 232.74 218 234.35 
M 220.45 227.14 219 228.03 218.24 228.84 217.62 229.81 
M 219.65 223 218.41 223.76 217.23 225.27 
M 336.78 187.46 341.15 192.4 340.73 192.87 335.28 189.16 
M 328.38 191.73 333.92 197.8 333.5 198.27 326.87 193.41 
M 319.98 195.95 328.71 205.74 328.27 206.18 318.39 197.56 
M 311.35 199.59 323.62 216.98 323.12 217.36 309.55 200.97 
M 298.54 202.25 315.06 230.5 314.53 230.83 296.62 203.44 
M 340.19 192.5 338.21 192.88 336.45 193.57 335.02 194.73 333.36 197.19 
M 332.83 197.78 330.28 199.47 329.05 200.94 328.29 202.74 327.83 204.76 
M 327.28 205.32 325.47 207.17 324 209.18 323.04 211.45 322.39 215.24 
M 321.76 215.72 319.24 217.92 317.04 220.33 315.3 223.07 313.41 227.68 
M 339.18 192.67 337.3 193.17 336.45 193.57 335.02 194.73 333.88 196.32 
M 331.93 198.31 330.28 199.47 329.05 200.94 328.62 201.8 328.04 203.73 
M 326.35 206.23 324.67 208.15 323.45 210.29 323.04 211.45 322.55 213.95 
M 322.31 203.53 320.78 205.45 320.16 206.93 319.84 208.55 
M 320.48 216.8 318.09 219.08 316.11 221.66 315.3 223.07 313.99 226.1 
M 316.64 213.25 314 215.95 312.67 218.05 311.66 220.38 
M 312.8 209.69 310.96 211.57 310.03 213.03 309.33 214.65 
M 355.25 134.78 357.16 133.62 360.24 130.34 362.25 127.49 364.81 124.72 365.97 123.98 368.3 121.73 371.92 118.93 373.53 117.03 374.61 117.14 375.47 116.19 377.34 115.17 379.33 113.2 384.11 111.49 386.25 110.94 387.77 109.84 389.96 109.64 391.64 109.11 393.76 107.94 395.54 108.19 397.66 108.83 399.4 108.85 401.56 108.16 402.78 107.38 404.14 112.26 404.3 117.01 404.76 118.88 404.7 121 404.27 122.96 403.39 124.47 401.79 128.03 401.26 130.11 400.44 131.83 398.39 134.87 396.97 136.04 395.95 137.61 395.35 139.6 392.61 144.66 391.17 145.88 389.24 146.48 387.48 147.25 384.87 147.18 383.27 148.23 382.44 150.07 380.97 151.25 379.32 152.21 378.56 154.04 377.32 155.41 375.11 155.64 372.6 155.57 371.34 156.97 372.56 159.46 375.46 161.76 379.85 164.5 382.45 165.84 387.78 169.31 396.02 178.08 396.94 180.05 397.42 181.84 397.46 183.2 397.72 184.54 400.93 187.83 402.12 189.39 404.96 195.38 405.33 199.24 405.03 207.5 402.67 211.33 402.26 209.59 397.98 208.33 392.3 207.16 389.93 206.34 387.68 205.96 386 204.95 382 203.58 378.24 202 373.34 198.98 368.85 195.31 366.99 191.93 365.36 190.21 364.16 188.31 361.01 184.94 358.13 181.46 355.25 177.51 
M 357.22 135.48 360.38 132.55 362.53 129.7 364.08 128.46 365.4 126.96 368.17 125.04 369.02 123.98 370.49 122.89 372.79 121.85 376.77 119.12 379.06 117.91 380.53 116.79 
M 355.25 138.22 357.36 137.37 358.9 136.38 360.49 134.94 361.71 133.14 363.03 131.74 364.65 130.39 366.1 129.46 370.01 126.06 371.49 125.22 378.64 121.86 380.37 121.36 384.22 119.29 385.83 118.71 
M 359.06 138.45 360.74 137.29 365.53 132.52 369.46 130.25 370.71 129.16 374.07 126.77 376.79 125.64 382.7 124.24 384.42 123.37 386.5 122.93 387.67 123.18 389.13 122.67 
M 355.25 141.66 357.44 141.14 358.92 140.17 360.71 139.27 362.87 137.88 366.71 134.66 368.08 133.97 369.29 134.06 370.49 133.31 371.82 132.07 375.07 129.99 377.51 129.28 381.61 127.68 385.17 126.67 386.62 126.79 388.62 127.32 390.88 127.53 392.45 127.25 396.58 125.67 
M 360.84 141.25 362.91 140.51 364.72 138.98 368.46 136.69 370.26 136.48 371.69 136.56 375.19 135 376.76 133.57 378.71 132.15 382.83 131.98 384.65 131.01 386.34 130.48 
M 361.08 143.39 365.21 142.07 366.97 140.79 368.77 140.08 372.38 138.86 374.19 138.64 376.09 138.06 377.82 137.28 381.65 135.97 
M 355.25 146.83 357.42 146.63 361.13 145.31 367.37 144.02 369.61 143.16 371.56 142.8 373.1 142.15 374.85 141.89 376.31 141.3 377.88 140.99 
M 361.33 147.02 363.32 146.38 365.65 146.23 373.69 145.18 375.61 145.19 376.98 145.38 377.83 144.58 
M 361.57 148.97 365.75 148.46 367.63 148.41 369.77 148.03 374.09 147.58 378.48 146.77 381.45 147.5 
M 361.98 151.35 364.4 151.21 368.01 151.27 370.35 150.8 372.65 150.99 
M 355.25 153.72 357.74 154.13 360.27 153.79 365.14 154.06 
M 358.22 156.09 363.3 157.04 365.5 157.26 
M 358.29 158.15 360.98 159.23 363.23 159.88 365.74 160.19 368.15 159.66 
M 355.25 158.88 360.14 161.43 362.43 162.25 367.68 162.49 370 162.91 
M 360.08 163.28 362.11 164.2 366.7 165.41 369.08 166.32 370.78 166 
M 357.94 163.77 363.86 166.93 366.05 167.84 372.35 168.97 373.78 168.89 377.8 169.88 
M 355.25 164.05 361.46 167.92 363.3 169.4 365.7 170.35 369.69 171.22 371.06 171.7 377.88 172.66 382.5 173.13 384.16 173.58 
M 357.31 167.39 361.02 170.04 363.1 171.15 365.38 172.02 368.85 173.9 370.68 174.29 373.99 175.66 376.59 175.81 
M 355.25 167.49 357.14 169.28 361.04 172.09 368.57 175.83 370.22 176.9 371.49 177.99 373.52 178.87 376.28 179.11 378.56 179.81 381.97 180.33 383.13 181.06 385.14 181.69 387.28 181.98 
M 355.25 169.22 357.1 171.15 359.01 172.72 360.83 173.91 362.93 174.9 366.22 177.3 367.96 178.32 369.95 179.15 371.22 180.7 372.79 181.59 375.6 182.09 
M 357.23 172.92 362.68 176.99 365.44 179.42 367.34 180.64 369.29 181.51 370.6 182.89 372.76 183.56 375.46 184.84 377.38 185.47 381.13 187.93 383.07 189.01 389.36 191.55 391.37 190.76 393.71 190.72 
M 355.25 172.66 357.28 174.61 361.03 177.71 362.27 179.06 365.31 181.56 366.91 182.73 372.51 186.11 373.57 187.08 374.31 188.34 376.53 189.19 378.61 190.24 380.32 191.34 381.64 193.12 385.67 195.08 387.65 195.68 389.71 194.97 391.3 194.84 
M 360.51 179.7 363.04 182.23 366.7 185.12 367.79 186.49 371.15 189.68 372 190.97 374.03 192.36 377.76 192.7 379.36 194.48 380.43 196.64 385.19 198.51 386.97 198.58 388.5 199.41 389.62 199.78 
M 355.25 176.1 359.89 181.55 361.41 183.06 364.84 186.05 366 187.81 367.54 189.5 369.64 193.01 371.25 194.47 373.19 195.37 375.01 195.81 376.23 196.53 379.32 199.19 382.11 199.67 384.68 200.98 386.43 201.63 387.35 202.78 
M 329.62 124.05 331.77 123.92 336.42 124 346.69 125.13 353.52 125.19 355.61 125.91 357 127.2 357.23 128.62 356.21 129.82 354.1 130.36 345.85 129.44 342.44 129.39 
M 335.89 126.49 340.25 126.91 
M 342.89 127.26 346.69 127.64 352.42 127.7 
M 121.99 134.66 126.83 131.88 130.01 130.57 134.07 129.31 138.16 128.39 152.62 126.12 163.36 125.4 184.47 122.4 188.65 122.09 190.57 125.74 191.46 129.48 191.96 133.26 192.57 140.84 193.71 144.56 195.49 152.04 196.69 155.76 197.19 159.53 196.6 171.04 196.98 178.65 195.96 190.2 195 194.13 185.35 193.99 178.11 193.34 171.74 192.2 165.94 190.3 160.43 187.46 155.49 184.11 150.67 180.35 146.64 176.97 142.43 173.13 139.21 168.83 133.11 158.87 
M 176.99 139.69 178.23 145.93 177.98 148.77 176.26 153.84 175.86 156.12 175.94 158.39 177.01 163.31 177.81 166.15 179.01 169.41 179.7 173.13 168.37 174.29 163.78 174.37 159.26 173.69 154.72 171.98 150.52 169.51 146.37 166.37 
M 131.78 156.86 127.6 149.53 124.94 145.38 120.53 137.41 120.45 135.78 121.5 134.6 123.11 134.77 123.99 135.96 126.68 143.25 129.49 149.02 132.52 156.04 133.5 158.69 
M 132.98 159.06 131.79 158.05 127.85 155.39 122.77 151.49 115.38 145.34 114.66 143.99 115.23 142.64 116.73 142.19 118.08 142.87 120.3 145.07 124.66 149.9 133.43 158.59 
M 154.11 146.24 152.59 144.12 151.85 141.62 151.96 139.01 152.91 136.58 154.59 134.59 156.83 133.26 159.39 132.72 161.98 133.04 164.32 134.19 166.16 136.03 167.31 138.38 167.63 140.97 167.1 143.52 165.76 145.76 163.77 147.45 161.34 148.39 158.73 148.5 156.23 147.76 154.11 146.24 
M 164.87 136.95 165.79 138.83 166.05 140.9 165.62 142.94 164.55 144.74 162.96 146.09 161.02 146.84 158.93 146.93 156.93 146.33 155.23 145.12 
M 157 142.41 156.4 141.56 156.1 140.56 156.14 139.52 156.52 138.55 157.19 137.75 158.09 137.21 159.11 137 160.15 137.13 161.09 137.59 161.82 138.33 162.28 139.26 162.41 140.3 162.2 141.32 161.66 142.22 160.87 142.89 159.89 143.27 158.85 143.31 157.85 143.02 157 142.41 
M 156.69 140.52 159.46 143.29 
M 158.42 140.55 160.79 142.92 
M 158.48 138.91 161.71 142.14 
M 159.29 138.03 162.26 141 
M 160.13 137.17 162.29 139.33 
M 135.52 162.67 138.38 165.53 
M 132.4 155.78 134.02 157.41 
M 129.54 149.16 129.91 149.53 
M 126.25 142.09 126.94 142.79 
M 122.38 134.46 122.65 134.73 
M 124.06 136.14 125.31 137.39 
M 124.73 133.04 127.36 135.67 
M 127.19 131.73 130.6 135.14 
M 129.86 130.63 133.2 133.97 
M 132.72 129.73 136.34 133.34 
M 135.71 128.94 138.81 132.04 
M 138.83 128.3 142.02 131.49 
M 142.15 127.85 144.91 130.61 
M 145.33 127.26 149.08 131.01 
M 148.55 126.71 152.09 130.25 
M 151.84 126.23 154.83 129.22 
M 155.29 125.91 158.72 129.34 
M 158.8 125.66 162.31 129.17 
M 162.37 125.46 164.69 127.77 
M 165.74 125.05 168.25 127.57 
M 169.03 124.58 172.34 127.89 
M 172.36 124.15 175.7 127.48 
M 175.71 123.72 177.96 125.98 
M 178.99 123.23 181.8 126.05 
M 182.24 122.72 185.69 126.17 
M 185.59 122.3 187.88 124.59 
M 184.53 149 186.43 150.23 187.54 151.71 
M 160.66 150.48 161.44 151.98 161.98 152.4 162.43 152.32 
M 179.03 169.91 178.4 169.9 176.84 169.29 174.82 168.15 
M 167.48 186.05 166.92 186.84 166.43 187.09 164.17 186.94 163.39 187.19 
M 190.78 126.65 190.26 125.66 190.1 124.85 
M 150.32 156.86 150.62 157.53 150.36 158.41 148.3 160.35 
M 166.3 129.39 166.84 128.41 168.24 127.26 168.6 126.75 
M 176.79 176.37 176.41 175.56 175.48 174.86 175.12 174.05 
M 174.03 168.23 172.7 168.34 171.99 168.97 171.9 169.48 
M 169.81 181.66 168.46 181.6 167.32 181.26 
M 166.78 136.36 167.83 136.97 168.78 136.99 
M 182.72 150.37 184.56 150.1 185.18 150.25 185.85 150.71 
M 182.1 146.62 183.1 147.74 184.75 148.41 186.71 149.79 
M 179.17 134.37 179.52 134.21 179.68 133.84 179.53 132.89 178.19 130.28 176.91 128.62 
M 160.42 167.22 159.07 167.05 158.45 167.31 
M 142.39 156.43 140.56 156.02 138.4 155.92 135.81 155.22 134.92 155.41 
M 164.99 154.05 165.26 154.25 
M 145.55 157.14 146.03 158.35 146.13 159.09 146 159.75 145.4 160.18 
M 187.01 186.87 184.63 186.72 183.2 186.34 180.73 185.25 180.05 185.14 179.57 185.28 
M 159.21 182.78 159.27 182.24 160.21 181.04 160.41 180.54 160.35 179.92 159.55 177.91 
M 156.67 183.89 156.17 184.57 
M 163.71 147.47 164.43 148.99 164.33 149.77 163.9 150.84 
M 159.78 154.98 160.71 154.2 161.78 152.67 162.4 152.35 
M 135.7 157.94 135.1 158.41 134.6 159.28 134.71 159.71 135.07 159.82 
M 156.01 156.63 156.44 155.24 157.06 154.5 158.78 153.67 161.14 153.06 
M 188.92 189.99 186.73 188.98 182.47 188.28 181.62 187.69 181.1 186.62 
M 168.82 172.41 167.71 171.5 166.96 171.14 165.3 170.81 163.8 170.21 
M 191.97 176.75 192.13 175.75 191.98 173.87 192.68 170.85 
M 134.01 152.92 130.83 152.24 
M 167.3 183.76 167.28 185.49 166.57 186.68 166 186.84 164.06 186.9 
M 182.62 155.91 184.32 154.98 185.34 154.07 
M 177.57 154.57 178.84 153.69 180.6 152.08 182.5 151.29 
M 181.08 123.18 180.31 123.53 179.8 124.06 179.45 125.1 179.48 126.52 179.22 127 178.87 127.22 
M 159.83 168.09 159.74 167.64 159.11 167.42 
M 144.72 168.1 145.3 169.65 145.14 170.18 
M 164.43 151.02 163.49 152.22 163.1 152.38 162.53 152.31 
M 154.62 160.68 153.11 161.13 150.74 161.54 149.77 162.15 149.67 162.45 
M 156.09 174.08 154.06 173.31 153.3 172.71 153.07 172.26 152.89 171.22 153.02 170.26 153.47 169.56 154.3 168.89 
M 153.41 131.09 152.83 131.35 151.8 131.19 151.42 131.3 150.72 132.43 
M 196.11 161.16 192.16 159.83 191.17 159.68 187.81 160.29 
M 187.36 136.7 190.42 139.44 190.61 140.16 190.29 141.31 
M 187.04 126.05 185.77 125.71 184.4 125.7 181.01 126.7 180.11 127.31 178.92 127.51 
M 164.56 129.73 165.44 128.51 167.76 127.29 168.34 126.64 
M 136.93 154.5 135.97 154.5 135.25 154.8 132.8 156.76 
M 138.7 163.04 140.07 165.65 141.26 169.61 141.27 170.52 
M 179.67 190.55 180.34 189.32 180.67 187.69 180.62 186.68 
M 167.55 140.29 169.26 141.15 
M 152.77 136.93 152.15 136.07 150.55 135.18 
M 184.62 181.53 183.47 182.66 182.38 183.42 181.38 183.88 179.46 184.36 179.25 184.58 
M 186.77 131.05 185.56 130.44 184.57 129.65 
M 187.91 181.78 186.59 181.57 185.08 181.82 183.55 182.94 181.53 183.87 
M 169.39 191.43 168.11 190.27 
M 180.87 182.49 180.53 183.23 179.26 184.13 179.05 185.05 
M 134.47 136.31 132.73 137.18 131.34 137.45 130.52 137.4 128.82 136.8 124.91 134.86 
M 183.64 138.51 186.98 137.35 187.63 137.52 188.5 138.24 
M 176.76 172.66 176.45 170.96 175.69 169.96 174.56 169.16 173.45 169.18 
M 150.23 153.77 150.2 154.69 150.46 155.27 151.97 156.6 153.48 157.37 
M 176.38 162.85 175.86 162.83 174.45 163.3 173.82 163.86 173.82 164.39 
M 164.75 176.33 163.57 175.35 161.81 172.66 160.41 170.91 159.95 170.07 159.83 169.07 
M 168.09 135.03 169 135.87 170.44 137.97 
M 140.76 128.27 141.37 127.95 
M 180.23 147.82 180.74 147.29 181.12 147.23 182.88 148.19 184.62 148.52 
M 194.99 152.56 193.29 153.83 192.76 154.44 192.86 155.62 193.59 156.97 
M 170.64 161.98 168.89 162.76 167.75 162.54 
M 188.71 167.55 189.4 166.71 189.87 165.56 189.29 164.7 
M 190.98 177.38 192 175.91 191.92 174.07 192.23 172.46 
M 170.22 144.06 171.06 144.33 173.71 145.96 174.89 146.12 176.19 145.8 
M 190.68 127.59 190.16 127.16 189.8 126.61 189.23 125.35 188.55 122.09 
M 176.17 180.01 175.98 182.41 175.56 184.26 175.89 185.42 176.16 185.79 176.94 186.24 177.32 186.26 
M 144.39 130.1 145.36 131.1 146.98 131.92 148.25 133.47 149.37 134.48 
M 170.05 130.43 168.19 129.52 167.48 128.91 167.32 128.28 167.97 127.68 
M 171.24 165.59 172.09 166.62 172.43 167.25 172.36 167.51 
M 193.08 162.76 189.4 162.72 188.09 162.47 187.56 162.18 186.99 161.5 186.33 159.96 
M 168.09 152.35 167.97 151.87 167.63 151.98 
M 120.17 149.28 123.9 154.59 126.51 157.94 129.34 161.19 135.61 167.32 142.43 173.13 
M 131.51 161.09 131.75 161.07 
M 129.28 158.28 128.97 158.66 127.73 159.35 
M 191.56 130.23 191.91 130.58 
M 188.88 122.53 195.7 129.34 
M 192.17 120.79 199.13 127.75 
M 195.85 119.45 203.25 126.85 
M 199.58 118.15 203.8 122.38 
M 203.38 116.93 210.31 123.86 
M 207.27 115.8 212.35 120.88 
M 211.23 114.73 217.47 120.97 
M 215.19 113.66 221.68 120.16 
M 219.09 112.54 224.64 118.09 
M 222.82 111.24 229.6 118.03 
M 226.43 109.83 232.5 115.9 
M 230.19 108.56 235.22 113.59 
M 234.03 107.38 240.97 114.33 
M 238.28 106.6 244.06 112.39 
M 242.6 105.9 247.04 110.34 
M 246.96 105.23 252.17 110.45 
M 251.3 104.55 257.57 110.82 
M 256.06 104.29 262.71 110.94 
M 261.29 104.49 265.38 108.59 
M 266.98 105.16 273.66 111.84 
M 272.91 106.07 277.86 111.01 
M 279.26 107.39 285.9 114.03 
M 285.61 108.71 290.74 113.85 
M 292.45 110.53 298.04 116.12 
M 299.94 112.99 306.22 119.28 
M 307.58 115.61 312.26 120.29 
M 315.46 118.47 322.34 125.35 
M 323.6 121.58 328.12 126.1 
M 332.17 125.13 337.77 130.72 
M 340.78 128.71 347.39 135.32 
M 349.46 132.36 355.19 138.09 
M 199.71 193.1 200.83 195.34 
M 200.4 190.09 200.96 191.21 
M 201.53 192.34 202.65 194.58 
M 202.25 189.39 203.37 191.63 
M 196.7 173.9 197.92 176.32 
M 201.85 184.19 202.41 185.31 
M 204.66 189.81 205.22 190.93 
M 197.52 171.13 199.2 174.5 
M 200.89 177.87 201.45 178.99 
M 203.13 182.36 204.82 185.73 
M 201.07 173.83 203.31 178.33 
M 205.56 182.82 206.68 185.07 
M 203.5 174.3 204.06 175.42 
M 207.43 182.16 209.12 185.54 
M 215.86 199.02 216.14 199.58 
M 209.86 182.63 210.99 184.88 
M 194.88 148.27 195.44 149.4 
M 210.61 179.73 211.74 181.98 
M 192.36 138.83 192.82 139.76 
M 220.35 194.82 222.04 198.19 
M 191.98 133.67 195.82 141.36 
M 221.1 191.92 223.35 196.41 
M 190.89 127.1 197.7 140.71 
M 222.98 191.27 224.66 194.64 
M 225.22 195.77 225.79 196.89 
M 190.28 121.49 198.99 138.9 
M 200.68 142.28 202.92 146.77 
M 225.4 191.71 226.52 193.96 
M 230.54 202 230.91 202.73 
M 192.14 120.8 192.42 121.36 
M 193.54 123.61 194.11 124.73 
M 195.23 126.98 204.22 144.96 
M 206.46 149.45 207.03 150.58 
M 220.51 177.54 221.07 178.67 
M 227.81 192.15 228.94 194.4 
M 231.75 200.01 233.4 203.32 
M 198.21 128.54 204.39 140.9 
M 208.88 149.89 209.21 150.54 
M 232.48 197.08 233.6 199.33 
M 234.72 201.57 235.29 202.7 
M 197.26 122.25 197.82 123.38 
M 199.51 126.75 205.69 139.11 
M 234.34 196.41 234.9 197.53 
M 198.01 119.36 200.26 123.85 
M 200.82 124.97 205.31 133.96 
M 211.49 146.32 212.62 148.57 
M 199.6 118.14 207.75 134.44 
M 212.81 144.55 214.49 147.92 
M 201.48 117.49 209.62 133.79 
M 213.56 141.65 216.93 148.39 
M 232.09 178.73 234.34 183.22 
M 203.39 116.93 212.1 134.35 
M 215.47 141.09 218.28 146.71 
M 231.76 173.67 235.7 181.54 
M 205.31 116.37 214.58 134.91 
M 217.95 141.65 219.08 143.9 
M 233.68 173.11 235.93 177.6 
M 207.23 115.81 216.5 134.35 
M 235.6 172.55 236.16 173.67 
M 209.16 115.28 217.87 132.69 
M 220.12 137.19 221.24 139.43 
M 239.22 175.39 240.34 177.64 
M 212.51 117.57 213.07 118.7 
M 214.19 120.94 218.69 129.93 
M 221.5 135.55 222.62 137.8 
M 223.74 140.04 224.31 141.17 
M 238.91 170.38 240.04 172.63 
M 240.6 173.75 241.16 174.88 
M 243.97 180.49 244.53 181.62 
M 247.34 187.23 247.9 188.36 
M 253.52 199.59 254.08 200.72 
M 213.05 114.25 213.89 115.94 
M 216.7 121.55 220.07 128.29 
M 227.37 142.9 227.93 144.02 
M 241.42 170.99 241.98 172.11 
M 249.28 186.72 250.4 188.97 
M 254.9 197.96 256.58 201.33 
M 214.98 113.72 215.82 115.41 
M 218.63 121.02 223.13 130.01 
M 242.11 167.99 243.91 171.59 
M 249.53 182.82 250.09 183.95 
M 257.39 198.55 258.52 200.8 
M 216.9 113.17 225.61 130.58 
M 227.29 133.95 227.86 135.08 
M 229.54 138.45 230.66 140.69 
M 244.35 168.06 245.27 169.91 
M 259.88 199.12 261 201.37 
M 218.82 112.61 219.1 113.17 
M 220.79 116.55 226.41 127.78 
M 230.34 135.65 233.15 141.26 
M 246.66 168.29 247.19 169.35 
M 252.81 180.59 253.93 182.84 
M 255.62 186.21 256.18 187.33 
M 222.71 115.99 226.08 122.73 
M 226.64 123.85 228.32 127.22 
M 230.01 130.59 230.57 131.72 
M 232.26 135.09 235.63 141.83 
M 254.73 180.03 256.41 183.4 
M 258.66 187.9 259.22 189.02 
M 223.42 113.02 231.29 128.75 
M 234.1 134.37 237.47 141.11 
M 239.15 144.48 239.71 145.61 
M 241.4 148.98 241.88 149.93 
M 250.95 168.08 252.07 170.32 
M 265 196.17 266.12 198.41 
M 224.42 110.62 233.69 129.16 
M 236.5 134.78 244.06 149.89 
M 251.55 164.88 251.67 165.11 
M 253.91 169.61 255.04 171.85 
M 259.53 180.84 260.09 181.97 
M 271.39 204.56 271.74 205.25 
M 226.26 109.9 236.09 129.56 
M 238.9 135.18 242.83 143.05 
M 243.39 144.17 246.24 149.85 
M 254.07 165.52 255.19 167.77 
M 256.31 170.01 257.44 172.26 
M 228.13 109.24 237.96 128.9 
M 238.52 130.02 239.08 131.15 
M 240.2 133.39 248.41 149.81 
M 256.5 165.98 259.31 171.6 
M 230.01 108.62 238.16 124.91 
M 238.72 126.03 240.41 129.41 
M 241.53 131.65 250.59 149.77 
M 259.51 167.61 261.76 172.1 
M 231.9 108 238.93 122.05 
M 240.05 124.29 243.98 132.16 
M 244.54 133.28 252.77 149.73 
M 260.84 165.87 263.65 171.48 
M 233.81 107.42 240.83 121.47 
M 242.52 124.84 243.08 125.96 
M 243.64 127.08 244.21 128.21 
M 247.01 133.82 248.14 136.07 
M 249.82 139.44 253.19 146.18 
M 253.76 147.31 254.95 149.69 
M 262.74 165.29 265.55 170.9 
M 235.06 105.52 246.58 128.56 
M 251.07 137.55 254.44 144.29 
M 255.57 146.53 256.13 147.66 
M 256.69 148.78 257.13 149.65 
M 265.68 166.76 266.24 167.88 
M 276.35 188.11 276.92 189.23 
M 281.97 199.34 284.05 203.51 
M 236.05 103.1 241.95 114.89 
M 244.75 120.51 249.81 130.62 
M 250.37 131.75 255.43 141.86 
M 258.24 147.48 259.3 149.61 
M 264.35 159.7 264.98 160.96 
M 275.09 181.18 275.65 182.31 
M 277.34 185.68 279.02 189.05 
M 284.08 199.16 285.84 202.68 
M 237.03 100.67 243.49 113.59 
M 246.86 120.33 255.85 138.31 
M 260.35 147.3 261.48 149.57 
M 266.11 158.83 269.33 165.27 
M 276.08 178.76 277.76 182.13 
M 279.45 185.5 280.01 186.62 
M 238.02 98.24 244.48 111.16 
M 246.16 114.53 246.72 115.66 
M 247.29 116.78 247.85 117.9 
M 248.41 119.03 248.97 120.15 
M 249.53 121.27 257.4 137 
M 262.45 147.12 263.66 149.53 
M 267.97 158.16 270.88 163.97 
M 277.62 177.45 281.55 185.32 
M 289.42 201.05 290.1 202.41 
M 239 95.81 246.02 109.86 
M 246.58 110.98 251.08 119.97 
M 252.2 122.22 257.82 133.45 
M 258.38 134.58 258.94 135.7 
M 262.31 142.44 262.88 143.56 
M 264 145.81 265.84 149.49 
M 271.86 161.54 272.99 163.79 
M 277.48 172.78 278.61 175.03 
M 279.73 177.27 281.42 180.64 
M 281.98 181.77 283.1 184.01 
M 239.98 93.38 243.07 99.56 
M 243.64 100.69 248.13 109.68 
M 249.25 111.92 253.75 120.91 
M 254.31 122.04 263.3 140.01 
M 263.86 141.14 268.02 149.45 
M 276.78 166.98 279.03 171.47 
M 279.59 172.6 280.15 173.72 
M 281.28 175.97 285.21 183.83 
M 240.97 90.96 244.06 97.14 
M 246.87 102.75 260.35 129.72 
M 260.91 130.84 267.09 143.2 
M 268.78 146.57 270.19 149.41 
M 281.14 171.29 286.76 182.53 
M 241.95 88.53 246.17 96.96 
M 248.98 102.57 261.34 127.29 
M 263.02 130.66 268.08 140.78 
M 271.45 147.52 272.37 149.37 
M 275.94 156.51 277.63 159.88 
M 283.81 172.24 288.86 182.35 
M 295.04 194.71 295.6 195.83 
M 242.94 86.1 248.28 96.78 
M 251.08 102.39 251.65 103.52 
M 253.33 106.89 265.13 130.48 
M 266.25 132.73 269.62 139.47 
M 273.56 147.34 274.12 148.46 
M 277.49 155.2 279.74 159.7 
M 296.03 192.28 297.71 195.65 
M 243.92 83.67 249.82 95.47 
M 256 107.83 267.24 130.3 
M 268.36 132.55 271.17 138.17 
M 274.54 144.91 275.66 147.16 
M 279.03 153.9 282.41 160.64 
M 289.15 174.12 290.27 176.37 
M 244.91 81.25 253.05 97.54 
M 253.61 98.66 269.35 130.12 
M 269.91 131.25 273.84 139.11 
M 275.52 142.48 276.65 144.73 
M 281.14 153.72 284.51 160.46 
M 291.25 173.94 291.82 175.07 
M 245.89 78.82 254.04 95.11 
M 255.16 97.36 275.95 138.93 
M 276.51 140.05 279.32 145.67 
M 282.69 152.41 286.06 159.15 
M 299.54 186.12 300.67 188.37 
M 246.88 76.39 262.33 107.29 
M 263.45 109.54 267.38 117.4 
M 268.51 119.65 276.93 136.5 
M 278.62 139.87 281.99 146.61 
M 284.8 152.23 287.61 157.85 
M 289.29 161.22 290.41 163.47 
M 300.53 183.69 302.77 188.19 
M 247.86 73.96 263.31 104.86 
M 265 108.23 269.49 117.22 
M 270.61 119.47 277.92 134.07 
M 292.52 163.29 295.89 170.03 
M 302.64 183.51 303.76 185.76 
M 248.85 71.54 264.29 102.43 
M 266.54 106.93 271.04 115.92 
M 272.72 119.29 281.15 136.14 
M 283.96 141.76 284.52 142.88 
M 292.95 159.74 294.63 163.11 
M 295.19 164.23 298 169.85 
M 301.37 176.59 301.93 177.71 
M 304.74 183.33 305.31 184.46 
M 249.83 69.11 261.91 93.26 
M 263.03 95.51 265.84 101.13 
M 272.58 114.61 273.71 116.86 
M 275.95 121.35 276.51 122.48 
M 277.08 123.6 277.64 124.73 
M 278.76 126.97 282.69 134.84 
M 297.86 165.17 299.55 168.54 
M 303.48 176.41 305.17 179.78 
M 314.25 197.95 314.63 198.71 
M 250.81 66.68 266.83 98.7 
M 268.51 102.07 269.07 103.2 
M 271.88 108.81 275.81 116.68 
M 280.87 126.79 284.8 134.66 
M 301.09 167.24 303.9 172.86 
M 305.59 176.23 307.27 179.6 
M 252.08 64.81 256.57 73.8 
M 257.7 76.05 263.88 88.41 
M 264.44 89.53 266.12 92.9 
M 266.69 94.03 267.25 95.15 
M 268.37 97.4 268.93 98.52 
M 272.3 105.26 273.43 107.51 
M 274.55 109.76 277.36 115.38 
M 283.54 127.73 287.47 135.6 
M 289.72 140.09 290.28 141.22 
M 303.2 167.06 304.89 170.43 
M 307.7 176.05 309.38 179.42 
M 316.12 192.9 318.27 197.19 
M 254.75 65.76 257 70.25 
M 259.81 75.87 262.05 80.36 
M 262.61 81.49 263.18 82.61 
M 268.23 92.72 268.79 93.85 
M 269.36 94.97 269.92 96.09 
M 272.73 101.71 282.28 120.81 
M 283.96 124.18 284.52 125.31 
M 285.65 127.55 291.27 138.79 
M 293.51 143.28 294.64 145.53 
M 309.81 175.87 310.93 178.12 
M 313.74 183.73 314.3 184.86 
M 257.42 66.7 260.79 73.44 
M 261.35 74.57 263.6 79.06 
M 266.97 85.8 268.66 89.17 
M 272.03 95.91 272.59 97.04 
M 273.15 98.16 275.45 102.75 
M 277.59 107.05 284.62 121.09 
M 285.74 123.34 291.92 135.7 
M 295.29 142.44 296.97 145.81 
M 311.02 173.9 312.14 176.15 
M 254.75 56.97 255.59 58.65 
M 259.53 66.52 260.09 67.64 
M 261.77 71.01 266.27 80 
M 269.08 85.62 270.76 88.99 
M 280.04 107.55 282.01 111.48 
M 282.57 112.6 293.81 135.08 
M 297.18 141.82 297.74 142.94 
M 299.42 146.31 299.98 147.43 
M 320.77 189.01 321.89 191.25 
M 255.74 54.54 257.14 57.35 
M 261.07 65.22 261.64 66.34 
M 263.32 69.71 266.2 75.47 
M 282.49 108.04 284.45 111.97 
M 285.01 113.1 296.25 135.57 
M 321.53 186.13 323.78 190.62 
M 257.56 53.8 259.25 57.17 
M 261.05 60.77 261.44 61.56 
M 284.94 108.54 286.9 112.48 
M 287.46 113.6 298.14 134.95 
M 300.39 139.44 301.51 141.69 
M 308.25 155.17 309.37 157.42 
M 323.42 185.51 325.1 188.88 
M 325.67 190 326.23 191.13 
M 259.11 52.5 259.79 53.85 
M 287.45 109.18 299.53 133.34 
M 301.78 137.83 303.46 141.2 
M 307.4 149.07 310.2 154.68 
M 313.58 161.43 314.14 162.55 
M 314.7 163.67 315.26 164.8 
M 325.37 185.02 327.06 188.39 
M 258.69 47.26 258.97 47.82 
M 289.97 109.81 293.06 115.99 
M 293.62 117.12 304.29 138.47 
M 306.54 142.96 311.6 153.07 
M 320.59 171.05 321.71 173.3 
M 327.89 185.66 329.01 187.9 
M 259.67 44.83 260.15 45.79 
M 297.88 121.23 305.18 135.84 
M 308.55 142.58 312.48 150.45 
M 314.73 154.94 315.85 157.19 
M 318.1 161.68 318.66 162.81 
M 260.66 42.4 260.84 42.76 
M 297.69 116.46 298.25 117.58 
M 299.94 120.96 306.11 133.31 
M 309.49 140.06 311.73 144.55 
M 313.42 147.92 313.98 149.04 
M 315.1 151.29 320.16 161.4 
M 321.28 163.65 322.41 165.9 
M 261.64 39.98 261.65 39.99 
M 298.06 112.82 300.31 117.31 
M 301.44 119.56 305.93 128.55 
M 311.55 139.78 313.23 143.15 
M 314.92 146.52 315.48 147.65 
M 318.29 153.27 319.41 155.51 
M 319.97 156.64 320.54 157.76 
M 300.44 113.16 308.02 128.33 
M 312.51 137.32 314.76 141.81 
M 315.32 142.94 317.57 147.43 
M 319.82 151.93 321.5 155.3 
M 303.09 114.07 310.11 128.12 
M 312.92 133.73 317.41 142.72 
M 320.78 149.46 323.03 153.96 
M 332.58 173.06 334.83 177.55 
M 305.74 114.98 312.2 127.9 
M 312.76 129.02 313.32 130.15 
M 315.57 134.64 318.94 141.38 
M 322.87 149.25 323.44 150.37 
M 332.43 168.35 336.92 177.34 
M 308.39 115.89 315.41 129.93 
M 317.66 134.42 319.91 138.92 
M 333.39 165.89 336.2 171.5 
M 311.06 116.82 316.96 128.62 
M 322.57 139.85 323.14 140.98 
M 330.44 155.58 331.56 157.83 
M 335.49 165.69 336.62 167.94 
M 313.76 117.83 317.97 126.26 
M 320.22 130.75 321.35 133 
M 332.02 154.35 333.7 157.72 
M 337.64 165.58 338.2 166.71 
M 339.32 168.95 340.45 171.2 
M 316.47 118.84 318.99 123.9 
M 321.24 128.39 324.61 135.13 
M 332.48 150.86 336.41 158.73 
M 339.22 164.35 342.03 169.97 
M 344.27 174.46 344.84 175.58 
M 347.08 180.08 347.95 181.81 
M 319.18 119.88 320.59 122.69 
M 322.83 127.18 326.21 133.92 
M 327.33 136.17 329.01 139.54 
M 332.95 147.41 336.88 155.27 
M 338 157.52 340.25 162.01 
M 341.37 164.26 342.5 166.51 
M 348.68 178.87 349.66 180.82 
M 321.9 120.92 323.31 123.73 
M 329.49 136.09 330.05 137.21 
M 335.1 147.33 339.04 155.19 
M 340.16 157.44 344.09 165.3 
M 349.71 176.54 350.27 177.66 
M 324.56 121.84 325.97 124.65 
M 327.09 126.9 328.21 129.15 
M 329.9 132.52 331.02 134.76 
M 336.64 146 337.76 148.25 
M 340.01 152.74 345.63 163.98 
M 350.68 174.09 351.25 175.21 
M 330.82 129.96 333.63 135.58 
M 342.05 152.43 344.86 158.05 
M 346.55 161.42 347.11 162.54 
M 352.73 173.78 354.44 177.2 
M 330.46 124.85 331.02 125.97 
M 332.14 128.22 336.08 136.08 
M 355.07 174.08 355.25 174.43 
M 333.81 127.15 338.87 137.26 
M 339.43 138.38 339.99 139.51 
M 341.67 142.88 342.8 145.13 
M 351.22 161.98 352.91 165.35 
M 336.04 127.2 346.15 147.43 
M 349.52 154.17 351.77 158.67 
M 352.33 159.79 355.25 165.64 
M 336.31 123.37 336.6 123.93 
M 338.8 128.35 351.73 154.19 
M 352.29 155.31 352.85 156.44 
M 353.97 158.68 355.25 161.24 
M 338.89 124.13 340.89 128.13 
M 341.29 128.92 352.81 151.95 
M 341.8 125.55 343.42 128.78 
M 344.07 130.08 354.46 150.87 
M 343.31 124.18 345.63 128.81 
M 346.86 131.27 354.99 147.52 
M 347.04 127.22 347.96 129.07 
M 349.65 132.44 355.25 143.66 
M 348.73 126.22 349.3 127.35 
M 352.42 133.6 355.25 139.26 
M 350.38 125.12 352.62 129.6 
M 355.2 134.76 355.25 134.86 
M 352.3 124.56 354.8 129.55 
M 354.7 124.97 356.59 128.75 
M 224.93 291.39 220.64 297.7 
M 224.93 291.39 225.44 297.7 
M 222.17 295.6 225.17 295.6 
M 228.83 291.39 226.94 297.7 
M 227.93 294.39 228.71 293.8 229.4 293.5 230.3 293.5 230.81 293.8 231.23 294.39 231.26 295.3 231.08 295.89 230.51 296.8 229.73 297.39 229.04 297.7 228.14 297.7 227.63 297.39 227.21 296.8 
M 233.06 295.3 236.66 295.3 236.84 294.7 236.72 294.1 236 293.5 235.1 293.5 234.41 293.8 233.63 294.39 233.06 295.3 232.88 295.89 232.91 296.8 233.33 297.39 233.84 297.7 234.74 297.7 235.43 297.39 236.21 296.8 
M 242.33 294.39 241.91 293.8 241.4 293.5 240.5 293.5 239.81 293.8 239.03 294.39 238.46 295.3 238.28 295.89 238.31 296.8 238.73 297.39 239.24 297.7 240.14 297.7 240.83 297.39 241.61 296.8 
M 245.33 291.39 243.44 297.7 
M 244.34 294.7 245.51 293.8 246.2 293.5 247.1 293.5 247.61 293.8 247.64 294.7 246.74 297.7 
M 250.4 293.5 249.5 296.5 249.53 297.39 250.04 297.7 250.94 297.7 251.63 297.39 252.8 296.5 
M 253.7 293.5 252.44 297.7 
M 258.83 294.39 258.71 293.8 257.89 293.5 257 293.5 256.01 293.8 255.53 294.39 255.65 295 256.15 295.3 257.57 295.6 258.08 295.89 258.11 296.8 257.63 297.39 256.64 297.7 255.74 297.7 254.93 297.39 254.81 296.8 
M 267.5 293.5 266.24 297.7 
M 267.23 294.39 266.81 293.8 266.3 293.5 265.39 293.5 264.71 293.8 263.93 294.39 263.36 295.3 263.18 295.89 263.21 296.8 263.63 297.39 264.14 297.7 265.03 297.7 265.73 297.39 266.51 296.8 
M 269.89 293.5 269 296.5 269.02 297.39 269.54 297.7 270.44 297.7 271.13 297.39 272.3 296.5 
M 273.2 293.5 271.94 297.7 
M 278.33 294.39 278.2 293.8 277.39 293.5 276.5 293.5 275.51 293.8 275.02 294.39 275.14 295 275.66 295.3 277.07 295.6 277.58 295.89 277.61 296.8 277.13 297.39 276.14 297.7 275.24 297.7 274.43 297.39 274.31 296.8 
M 281.63 291.39 280.1 296.5 280.13 297.39 280.64 297.7 281.24 297.7 
M 280.1 293.5 282.2 293.5 
M 284.3 293.5 283.04 297.7 
M 283.94 294.7 285.11 293.8 285.8 293.5 286.7 293.5 287.2 293.8 287.24 294.7 286.33 297.7 
M 290.33 291.39 290.54 291.7 290.93 291.39 290.72 291.1 290.33 291.39 
M 290 293.5 288.74 297.7 
M 295.13 294.39 295.01 293.8 294.2 293.5 293.3 293.5 292.31 293.8 291.83 294.39 291.95 295 292.45 295.3 293.87 295.6 294.38 295.89 294.4 296.8 293.93 297.39 292.94 297.7 292.04 297.7 291.23 297.39 291.11 296.8 
M 296.72 297.1 296.33 297.39 296.54 297.7 296.93 297.39 296.72 297.1 
"/></svg>
