<svg xmlns="http://www.w3.org/2000/svg" width="520" height="320"><rect x="0" y="0" width="520" height="320" fill="floralwhite"/><rect x="10" y="10" width="500" height="300" stroke="black" stroke-width="1" fill="none"/><path stroke="black" stroke-width="1" fill="none" stroke-linecap="round" stroke-linejoin="round" d="
M 197.07 122.78 204.38 119.57 217.48 114.89 224.23 113.23 244.81 109.73 251.73 108.99 265.63 109.51 279.51 110.49 286.46 110.63 293.28 112.03 306.59 116.06 319.73 120.65 326.22 123.15 332.48 126.19 344.79 132.67 351.05 135.7 357.22 138.91 363.65 142.56 
M 363.65 179.01 348.6 188.09 342.56 191.54 336.41 194.8 317.7 204.05 311.26 206.68 291.59 213.64 284.87 215.46 278.01 216.57 271.06 217.04 264.11 217.1 250.21 217.67 243.32 216.67 236.64 214.73 230.07 212.44 217 207.68 210.54 205.09 204.17 202.3 190.14 194.93 
M 215.46 149.39 217.82 149.14 
M 224.73 148.42 227.33 148.49 
M 239.08 149.72 242.02 149.88 
M 249.27 148.51 253.11 147.97 260.34 147.79 
M 266.32 147.86 270.73 147.78 273.45 147.45 277.85 147.18 
M 284.14 147.06 289.08 147.4 295.96 148.38 301.64 148.36 305.64 148.11 
M 308.18 147.91 311.97 147.72 314.75 147.87 323.88 149.1 325.16 149.1 
M 327.65 149.07 328.86 149.05 331.57 149.47 333.14 149.91 
M 336.37 150.86 341.08 152.12 343.82 152.53 356.74 153.4 363.65 154.78 
M 192.83 191.25 193.6 193.3 
M 194.36 195.34 194.66 196.14 
M 195.44 182.77 197.53 188.32 
M 198.36 190.92 199.07 193.38 
M 200.74 198.58 201.18 199.9 
M 202.21 125.09 201.32 127.72 
M 198.01 173.5 199.06 176.43 
M 202.67 186.87 202.99 187.87 
M 204.52 193.17 205.23 195.77 
M 206.84 201.48 207.33 203.19 
M 208.93 117.9 208.45 119.53 
M 203.77 135.66 201.44 140.4 
M 199.79 160.75 200.73 163.66 
M 201.73 166.61 202.79 169.63 
M 211.19 195.65 211.86 198.32 
M 212.48 200.97 213.32 204.28 
M 210.99 127.64 209.68 131.45 208.6 135.47 
M 207.94 138.21 207.6 139.56 206.09 143.14 
M 204.89 145.34 203.34 148.01 
M 205.33 159.58 206.11 162.35 
M 216.27 192.45 216.28 192.54 
M 216.74 195.05 217.99 200.46 
M 218.83 203.41 219.66 206.77 
M 216.4 128.64 214.67 133.66 
M 211.63 144.02 210.34 147.74 209.42 149.87 
M 212.63 164.22 213.7 167.3 
M 224.25 202.65 224.66 205.22 
M 223.95 121.9 223.28 124.64 
M 222.42 127.2 221.05 130.91 219.86 134.75 
M 218.95 137.17 217.98 139.52 
M 217.18 142.02 216.45 146.24 215.64 149.35 
M 228.79 194.82 229.16 196.87 
M 229.35 199.24 229.44 201.5 
M 229.66 203.9 230.6 210.73 
M 232.65 116.3 231.51 118.51 
M 228.02 128.64 225.68 136.34 
M 223.03 143.55 221.49 147.82 
M 223.48 157.85 224.19 160.58 
M 225.82 166.24 226.91 169.36 
M 235.13 196.63 236.03 201.93 
M 236.55 204.66 237.73 210.21 
M 235.36 124.67 233.84 131.63 232.79 135.58 
M 232 138.08 231.14 140.5 
M 229.06 144.91 227.55 148.49 
M 233.05 167.13 234.33 172.17 
M 241.18 195.68 241.4 196.72 
M 242.01 199.56 242.66 202.44 
M 243.27 205.26 243.71 207.9 
M 243.96 210.36 244.14 214.4 
M 243.33 121.54 241.99 125.37 241.01 129.5 
M 238.66 137.16 237.76 139.55 
M 236.98 142.02 235.2 147.39 
M 240.63 170.18 241.03 171.57 
M 248 195.79 249.78 204.16 250.68 210.58 
M 247.75 129.51 247.22 130.68 245.75 135.95 243.97 140.79 243.28 143.37 243.07 144.79 
M 246.63 167.16 247.61 170.63 
M 255.22 199.14 255.76 201.89 
M 256.19 204.53 256.98 210.85 257 214.62 
M 260.02 117.27 259.05 119.75 
M 258.18 122.36 257.26 124.95 
M 256.08 127.27 254.02 130.4 252.95 132.75 251 139.21 
M 250.21 141.74 248.98 145.45 248.66 147.08 
M 251.94 161.2 252.37 163.61 
M 253.07 166.31 253.98 169.22 
M 260.82 194.32 261.35 197.87 
M 261.64 200.38 262.07 207.46 
M 262.37 209.99 262.68 212.14 
M 266.24 119.76 265.52 122.55 
M 263.35 127.44 261.2 130.53 257.75 137.34 256.83 139.78 254.86 147.89 
M 257.71 157.65 258.54 160.46 
M 261.27 169.16 261.75 170.81 
M 266.97 193.33 267.47 196.61 
M 267.82 199.19 269.23 209.58 
M 269.55 211.75 269.66 212.59 
M 273.63 119.95 271.96 125.38 
M 270.9 127.86 269.05 131.27 268.02 133.71 266.27 138.83 264.51 142.15 
M 262.54 146.68 262.17 147.76 
M 263.81 154.34 264.57 157.07 
M 267.26 165.71 268.22 168.68 
M 273.69 195.39 274.09 198.02 
M 274.56 200.75 276.39 209.94 
M 283.24 111.33 281.9 116.99 
M 279.95 122.12 279.45 123.4 278.45 127.71 
M 277.76 130.55 275.98 135.74 
M 275.09 138.3 274.64 139.57 273.49 141.84 270.7 145.83 269.7 147.88 
M 274.92 166 275.81 168.9 
M 280.29 190.35 281.02 196.47 283.51 209.28 
M 286.22 129.31 285.92 130.78 284.99 133.36 281.82 140.62 280.45 142.7 279.62 143.57 
M 277.76 145.84 276.74 147.24 
M 283.92 171.48 284 171.81 
M 288.06 190.44 289.26 198.35 
M 289.74 201.13 290.23 203.95 
M 290.77 207.18 291.07 209.01 
M 296.12 119.85 295.45 120.97 294.52 123.61 293.46 129.66 292.77 132.51 291.79 135.05 288.29 142.02 285.28 145.91 284.61 147.02 
M 291.09 170.76 291.58 172.8 
M 295.43 187.82 296.58 193.38 
M 297.13 196.17 297.86 200.34 298.76 207.41 
M 305.07 120.01 302.8 124.86 
M 300.86 130.02 299.47 133.92 296.99 138.45 295.9 140.85 294.63 144.79 
M 293.68 147.06 293.18 148.04 
M 297.22 165.38 298.67 170.98 
M 301.76 182.28 303.79 188.92 
M 304.64 191.97 305.01 193.44 305.53 197.34 
M 305.95 202.41 306.35 204.85 
M 310.12 127.55 307.36 131.83 
M 306.03 134.01 304.08 137.3 303.02 139.72 301.75 145.4 300.71 148.4 
M 306.58 174.01 306.93 175.12 
M 308.38 179.63 313.32 192.63 314.02 195.54 314.16 199.08 
M 314.07 201.31 313.9 204.08 
M 317.98 127.67 316.8 130 
M 315.44 132.14 311.56 136.97 310.23 139.11 309.18 141.52 308.8 142.88 
M 307.9 146.1 307.37 147.96 
M 312.31 168.59 314.35 175.23 
M 314.63 176.1 316.89 182.8 319.85 190.12 321.01 193.49 321.53 196.24 321.56 199.69 
M 321.42 201.53 321.34 202.27 
M 325.07 123.94 323.67 129.54 
M 322.69 132.04 322.12 133.2 319.21 137.22 317.24 140.43 
M 316.05 142.69 314.95 145.03 
M 317.66 163.23 318.66 167.41 320.37 173.37 325.42 187.08 326.14 190 326.6 192.67 327.44 198.99 
M 330.3 126.32 328.7 133.38 327.78 135.91 321.5 148.82 
M 322.68 155.3 323.16 157.89 
M 323.49 160.33 324.29 164.31 327.87 175.36 
M 329.92 181.73 331.97 189.27 333.2 195.39 
M 336.58 130.22 333.2 138.85 328.1 149 
M 329.48 155.67 330.19 158.48 
M 331.7 164.22 334.76 174.72 339.27 192.25 
M 343.64 132.08 341.15 135.69 
M 339.91 137.85 339.36 138.99 338.64 141.66 338.15 144.55 337.37 147.14 335.38 150.56 
M 337.05 157.48 337.7 160.22 
M 338.31 162.92 340.06 169.92 341.37 174.4 
M 342.27 177.44 345.23 188.96 
M 347.25 139.04 346.16 141.32 
M 344.62 146.5 343.67 150.58 343.04 152.46 
M 343.9 156.46 345.01 161.71 
M 345.61 164.4 346.71 168.61 349.97 179.26 
M 350.68 182.12 351.57 186.03 
M 354.87 140.73 352.94 143.85 351.78 146.06 349.62 152.96 
M 350.38 156.84 352.5 166.22 354.79 174.81 356.36 181.56 
M 350.02 159.64 348.4 159.53 347.14 159.76 346.55 159.69 345.61 159.19 345.43 158.53 345.56 157.89 346.64 156.67 
M 292.94 208.97 291.28 210.14 290.68 211.16 290.66 212.12 291.12 213.31 
M 308.9 137.69 308.78 135.52 307.65 130.43 307.6 129.35 
M 278.15 132.27 276.34 131.7 275.08 131.64 274.48 132.13 274.02 133.15 
M 306.98 158.34 310.08 157.09 311.47 157.06 312.63 157.45 313.05 157.8 313.65 158.88 314.08 160.27 
M 305.86 175.05 305.71 174.5 
M 296.73 120.79 295.82 120.89 294.98 120.71 291.93 119.5 291.26 119.5 290.38 119.96 
M 347.29 149.82 347.07 149.38 
M 218.49 123.53 218.7 122.06 219.1 120.63 218.7 118.76 218.21 117.78 
M 323.9 193.59 323.34 192.57 322.93 192.3 321.42 191.8 320.41 191.28 320.03 190.67 319.78 189.43 319.23 188.78 
M 294.76 154.58 295.58 154.44 295.97 154.19 296.31 152.49 
M 309.31 165.29 310.31 164.35 311.24 162.8 
M 312.32 173.54 312.07 172.38 312.77 171.68 
M 260.45 147.95 258.29 147.36 257.75 147.12 257.38 146.64 256.71 144.99 256.34 141.51 
M 244.87 128.16 245.93 127.34 247.55 125.43 248.15 125.16 249.22 125.41 249.68 125.8 251.48 128.18 
M 311.74 192.88 313.85 196.28 314.97 197.76 315.45 198.14 
M 362.4 143.16 360.77 140.92 
M 214.18 191.66 213.4 192.98 212.82 193.36 
M 235.3 153.08 236.03 153.37 236.41 153.88 236.67 154.93 236.6 156.11 
M 223.59 168.17 222.97 168.33 222.13 168.25 220.75 167.48 
M 232.84 116.56 234.78 116.51 
M 294.67 167.28 296.74 168.48 297.55 168.61 298.16 168.12 298.74 166.78 
M 222.95 128.06 222.35 128.88 222.52 130.35 222.96 131.77 224.06 133.15 
M 286.56 213.01 288.14 211.75 288.88 211.42 289.77 211.68 290.6 212.94 
M 281.96 117.46 281.24 117.38 278.88 116.67 277.02 115.35 
M 212.77 197.27 211.7 196.57 211.47 196.2 211.47 195.78 
M 240.35 156.22 239.54 156.14 239.13 156.26 
M 209.62 117.32 210.86 117.19 
M 219.53 114.11 219.22 82.49 219.91 82.46 222.01 113.77 
M 229.74 112.03 232.7 63.4 233.39 63.43 232.25 111.88 
M 240.01 110.27 246.31 44.82 247 44.88 242.52 110.15 
M 250.34 108.77 265.05 38.62 265.73 38.75 252.84 108.96 
M 260.77 109.05 284.09 35.44 284.76 35.65 263.25 109.45 
M 271.17 109.54 298.2 30 298.86 30.21 273.63 110.02 
M 281.57 110.12 311.22 36.22 311.87 36.47 284.06 110.59 
M 291.94 111.38 327.55 47.96 328.16 48.29 294.28 112.3 
M 301.95 114.34 337.73 63.09 338.31 63.48 304.24 115.4 
M 311.89 117.46 345.66 72.73 346.22 73.14 314.12 118.62 
M 321.72 120.94 350.07 89.15 350.59 89.6 323.89 122.23 
M 334.4 126.83 335.3 127.69 
M 211.34 117.02 215.11 106.94 217.04 99.98 218.35 92.87 219.25 85.65 
M 220.13 85.62 223.58 82.28 226.7 78.69 229.29 74.74 232.4 68.26 
M 233.28 68.3 238.38 63.36 241.27 59.7 243.64 55.66 245.68 51.37 
M 246.55 51.44 250.62 50.99 254.56 50.15 258.29 48.7 263.58 45.63 
M 264.44 45.8 270.42 45.99 274.3 45.48 278.06 44.35 281.76 42.8 
M 282.6 43.06 285.79 42.75 288.83 42.06 291.64 40.77 295.5 37.95 
M 296.33 38.22 299.81 41.11 302.39 42.46 305.24 43.22 308.26 43.61 
M 309.07 43.92 311.88 46.96 314.92 49.66 318.33 51.83 323.99 54.3 
M 324.76 54.72 326.9 59.91 328.86 63 331.34 65.73 334.16 68.21 
M 334.88 68.7 336.44 72.33 337.96 74.32 339.97 75.9 342.28 77.2 
M 342.99 77.72 343.08 81.21 343.56 84.59 344.67 87.79 347.23 92.33 
M 347.9 92.89 342.47 103.97 339.44 111.58 337.02 119.41 334.99 127.39 
M 221.88 83.96 225.2 80.53 226.7 78.69 229.29 74.74 231.43 70.46 
M 222.58 89.06 225.32 86.22 226.56 84.71 228.7 81.45 230.46 77.92 
M 223.28 94.15 226.41 90.73 228.1 88.16 229.49 85.38 
M 223.98 99.25 226.27 96.74 227.5 94.86 228.52 92.83 
M 235.04 66.7 238.38 63.36 239.89 61.58 242.52 57.72 244.69 53.53 
M 235.15 71.15 238.15 68.15 239.51 66.55 241.88 63.07 243.83 59.3 
M 235.25 75.6 237.93 72.94 240.24 70 241.24 68.42 242.97 65.07 
M 235.36 80.06 238.76 76.47 240.6 73.77 242.12 70.84 
M 235.47 84.51 237.48 82.51 239.21 80.31 241.26 76.61 
M 235.58 88.96 238.01 86.4 239.32 84.47 240.4 82.38 
M 235.69 93.42 237.03 92.08 238.18 90.62 239.55 88.15 
M 248.6 51.24 252.62 50.64 254.56 50.15 258.29 48.7 261.84 46.73 
M 248.43 55.79 252.13 55.23 253.93 54.78 257.37 53.45 260.64 51.62 
M 248.26 60.33 251.65 59.83 253.29 59.41 256.44 58.19 259.44 56.52 
M 248.09 64.88 251.17 64.42 252.66 64.04 255.52 62.94 258.24 61.42 
M 247.92 69.43 252.03 68.67 254.6 67.68 257.04 66.32 
M 247.75 73.97 251.39 73.31 253.67 72.42 255.84 71.21 
M 247.58 78.52 250.76 77.94 252.75 77.17 254.64 76.11 
M 247.41 83.07 250.12 82.57 251.82 81.91 253.44 81.01 
M 247.24 87.61 248.75 87.38 250.2 86.96 252.24 85.91 
M 266.44 45.94 270.42 45.99 272.37 45.82 276.19 44.99 279.92 43.61 
M 265.77 50.36 269.46 50.41 271.28 50.25 274.83 49.48 278.3 48.2 
M 265.09 54.79 268.51 54.84 270.19 54.69 273.47 53.98 276.68 52.79 
M 264.41 59.22 267.55 59.26 270.61 58.87 272.11 58.47 275.06 57.38 
M 263.73 63.65 266.6 63.69 269.39 63.33 273.43 61.97 
M 263.06 68.08 266.91 68 269.39 67.47 271.81 66.57 
M 262.38 72.51 265.82 72.44 268.03 71.96 270.19 71.16 
M 261.7 76.94 264.72 76.88 266.67 76.46 268.57 75.75 
M 261.02 81.37 262.77 81.39 264.48 81.17 266.95 80.34 
M 260.35 85.8 262.54 85.75 263.95 85.45 265.33 84.94 
M 284.21 42.93 287.34 42.47 290.27 41.49 291.64 40.77 294.24 38.96 
M 283.12 47.18 286.05 46.75 288.8 45.83 290.08 45.15 292.51 43.46 
M 282.04 51.43 284.77 51.03 286.07 50.66 288.52 49.54 290.79 47.96 
M 280.95 55.67 283.49 55.3 285.85 54.51 286.96 53.92 289.07 52.46 
M 279.87 59.92 283.32 59.27 285.41 58.31 287.34 56.96 
M 278.78 64.17 281.94 63.57 283.85 62.69 285.62 61.46 
M 277.7 68.41 279.63 68.13 281.44 67.52 283.9 65.96 
M 276.61 72.66 278.35 72.41 279.97 71.86 282.17 70.46 
M 275.53 76.91 277.06 76.68 278.5 76.2 280.45 74.96 
M 274.44 81.16 276.42 80.78 277.62 80.23 278.73 79.46 
M 273.36 85.4 275.04 85.08 276.06 84.62 277 83.96 
M 297.46 39.25 299.81 41.11 302.39 42.46 303.79 42.91 306.74 43.44 
M 296.19 43.77 298.39 45.51 300.81 46.77 302.12 47.19 304.88 47.69 
M 294.92 48.29 296.98 49.91 299.23 51.09 300.45 51.48 303.02 51.94 
M 293.65 52.81 295.56 54.31 296.58 54.92 298.78 55.76 301.16 56.19 
M 292.39 57.32 294.14 58.71 296.07 59.71 299.31 60.45 
M 291.12 61.84 293.58 63.62 295.44 64.33 297.45 64.7 
M 289.85 66.36 292.09 67.97 293.77 68.62 295.59 68.95 
M 288.59 70.88 290.59 72.32 292.1 72.9 293.73 73.2 
M 287.32 75.4 289.09 76.68 290.43 77.19 291.88 77.45 
M 286.05 79.91 287.59 81.03 288.76 81.48 290.02 81.7 
M 284.78 84.43 285.64 85.11 286.58 85.6 288.16 85.96 
M 310.46 45.47 313.36 48.37 314.92 49.66 318.33 51.83 322.06 53.54 
M 308.88 50.07 311.58 52.77 313.03 53.97 316.2 55.99 319.67 57.58 
M 307.3 54.68 309.79 57.18 311.14 58.28 314.07 60.15 317.28 61.62 
M 305.72 59.29 308.01 61.58 309.25 62.6 311.94 64.31 314.89 65.66 
M 304.14 63.89 307.35 66.91 309.81 68.47 312.49 69.71 
M 302.56 68.5 305.46 71.22 307.68 72.64 310.1 73.75 
M 300.98 73.11 303.57 75.54 305.55 76.8 307.71 77.79 
M 299.4 77.71 301.68 79.85 303.41 80.96 305.32 81.83 
M 297.82 82.32 299.78 84.16 301.28 85.12 302.92 85.87 
M 296.24 86.93 297.89 88.48 299.15 89.28 300.53 89.91 
M 325.41 56.49 326.9 59.91 328.86 63 330.04 64.4 332.72 66.99 
M 323.28 60.93 324.66 64.08 326.46 66.93 327.55 68.22 330.02 70.61 
M 321.15 65.36 322.41 68.24 324.06 70.86 325.06 72.04 327.32 74.22 
M 319.02 69.8 320.16 72.41 321.66 74.79 322.56 75.86 324.62 77.84 
M 316.89 74.23 317.92 76.58 319.26 78.71 321.92 81.46 
M 314.76 78.67 316.22 81.73 317.58 83.5 319.22 85.08 
M 312.63 83.1 313.91 85.77 315.09 87.32 316.52 88.7 
M 310.49 87.54 311.17 89.09 312.06 90.5 313.82 92.32 
M 308.36 91.97 309.27 93.86 310.11 94.96 311.12 95.94 
M 335.34 69.96 336.44 72.33 337.96 74.32 338.91 75.16 341.1 76.57 
M 332.95 74.04 333.95 76.2 334.59 77.16 336.2 78.79 338.2 80.07 
M 330.55 78.13 331.45 80.08 332.71 81.72 333.49 82.41 335.3 83.58 
M 328.15 82.21 329.48 84.73 330.78 86.04 332.4 87.08 
M 325.75 86.29 326.47 87.83 327.46 89.13 329.5 90.59 
M 323.35 90.37 324.37 92.3 325.36 93.3 326.59 94.09 
M 320.96 94.46 321.48 95.58 322.2 96.53 323.69 97.59 
M 318.56 98.54 319.26 99.86 319.94 100.55 320.79 101.1 
M 343.01 79.47 343.25 82.92 344.04 86.21 344.67 87.79 346.31 90.83 
M 340.06 84.2 340.28 87.24 340.97 90.15 341.53 91.55 342.98 94.23 
M 337.12 88.92 337.31 91.57 337.91 94.09 339.65 97.63 
M 334.18 93.65 334.54 96.97 335.26 99.05 336.32 101.03 
M 331.24 98.37 331.53 101.1 332.12 102.81 333 104.43 
M 328.29 103.1 328.53 105.23 328.98 106.56 329.67 107.83 
M 199.91 175.13 202.27 175.04 213 173.9 215.2 173.82 219.28 173.3 221.46 172.77 225.49 172.54 227.57 172.19 229.63 172.13 231.7 172.32 236.16 172.06 244.46 171.19 248.33 170.51 250.53 170.4 252.99 170.77 255.18 170.66 259.13 170.9 261.05 170.92 263.55 170.53 265.63 170.51 269.95 170.53 274.28 171.02 278.3 170.89 289.18 172.69 293.11 172.78 295.54 172.57 297.62 173.06 301.4 174.48 305.06 175 309.06 175.45 313.93 175.16 315.72 175.48 304.7 181.71 300.18 182.6 298.53 183.66 293.18 186.41 289.27 187.74 287.51 188.6 283.63 189.95 279.12 190.51 277.28 191.19 273.28 192.24 270.91 192.37 267.01 193.32 262.59 193.74 260.76 194.34 256.63 194.73 252.75 195.36 248.75 195.78 242.23 195.65 238.09 195.75 235.81 195.31 232.19 195.36 230.14 195.13 223.23 193.49 216.79 192.65 204.44 188.01 199.91 185.03 
M 202.29 176.21 217.29 175.51 221.41 174.97 227.69 174.82 236.23 174.92 246.84 174.38 248.7 174.79 253.08 175.29 257.55 174.95 259.28 175.02 266.22 175.94 268.39 176.43 272.22 176.15 278.46 176.81 284.91 178.11 286.79 178.12 288.56 178.43 297.06 180.64 299.37 180.98 
M 199.91 177.21 204.48 177.47 215.29 177.28 217.18 177.42 221.42 177.29 225.72 177.56 230.04 177.49 234.33 177.7 241.03 178.43 243.15 178.36 244.94 177.81 246.87 177.69 251.26 178.95 
M 199.91 178.26 204.48 178.73 221.39 179.52 223.72 179.92 230.2 180.35 232.39 180.33 236.75 180.9 238.79 181.48 241 181.66 246.68 181.35 248.98 182.26 251.22 182.93 253.46 183.14 
M 199.91 179.3 202.3 179.73 211.36 180.85 217.27 181.31 229.91 182.79 236.47 184.1 240.51 185.25 242.3 185.15 
M 202.32 180.84 211.36 182.47 217.26 183.17 219.46 183.59 221.4 184.17 225.6 184.52 227.62 184.92 229.57 185.63 231.89 186.01 233.91 186.71 235.41 187.65 
M 206.76 183.03 215.08 184.55 221.61 186.51 223.2 186.71 225.14 187.25 231.71 189.31 233.6 190.02 235.34 190.91 241.43 192.98 243.79 193.62 246.26 193.97 
M 204.41 183.9 213.08 185.92 219.92 188.69 227.19 190.79 229.31 192.1 233.39 194.14 
M 202.4 184.46 204.43 185.3 210.83 186.91 212.64 187.55 217.66 190.32 223.14 192.81 225.03 193.27 
M 202.43 185.68 204.34 186.63 212.52 189.61 
M 225.72 209.82 245.33 240.15 244.76 240.54 223.65 211.23 
M 224.5 209.49 224.91 210.36 
M 228.52 217.99 243.04 248.66 242.42 248.97 222.26 210.6 
M 223.26 209.17 223.52 209.98 
M 225.97 217.66 238.64 257.33 237.98 257.55 220.9 209.97 
M 222 208.85 222.13 209.55 
M 223.47 217.12 232.07 265.75 231.39 265.88 219.55 209.33 
M 220.72 208.55 220.74 209.1 
M 221.04 216.46 223.38 273.49 222.68 273.53 218.23 208.68 
M 219.01 208.09 218.96 208.64 
M 218.54 213.18 212.25 280 211.56 279.94 216.53 207.89 
M 242.65 237.61 241.45 239.01 240.66 240.5 240.5 242.12 241.19 244.74 
M 240.41 245.13 238.86 246.41 237.69 247.85 237.11 249.56 237.1 252.51 
M 236.28 252.79 233.56 254.52 232.27 256.03 231.5 257.93 231.07 260.06 
M 230.21 260.22 227.01 261.61 225.32 263 224.07 264.85 223.11 267 
M 222.24 267.04 219.7 267.57 217.38 268.44 215.4 269.86 212.92 272.8 
M 242.02 238.3 240.99 239.74 240.66 240.5 240.5 242.12 240.89 243.85 
M 239.5 234.38 238.61 235.62 238.33 236.27 238.19 237.66 238.53 239.15 
M 236.98 230.46 236.24 231.49 235.89 232.61 236.17 234.45 
M 234.47 226.53 233.68 227.81 233.58 228.75 233.81 229.75 
M 231.95 222.61 231.49 223.25 231.28 223.93 231.45 225.05 
M 239.61 245.76 238.21 247.1 237.69 247.85 237.11 249.56 237.04 251.5 
M 237.64 241.56 236.4 242.75 235.95 243.41 235.43 244.92 235.37 246.64 
M 235.67 237.37 234.6 238.4 233.92 239.6 233.7 241.77 
M 233.7 233.17 232.46 234.54 232.08 235.65 232.03 236.91 
M 231.73 228.98 230.71 230.1 230.4 231.01 230.36 232.04 
M 229.76 224.79 228.96 225.66 228.72 226.37 228.69 227.18 
M 235.31 253.32 233.56 254.52 232.27 256.03 231.83 256.94 231.26 258.98 
M 233.92 248.93 232.35 250 231.19 251.36 230.79 252.18 230.28 254.01 
M 232.53 244.53 231.14 245.48 230.57 246.05 229.75 247.42 229.29 249.05 
M 231.15 240.13 229.92 240.96 229.02 242.02 228.31 244.08 
M 229.76 235.73 228.71 236.44 227.93 237.35 227.33 239.12 
M 228.37 231.33 227.5 231.92 226.85 232.68 226.34 234.15 
M 226.98 226.93 226.28 227.4 225.77 228.01 225.36 229.19 
M 229.09 260.63 227.01 261.61 225.32 263 224.65 263.87 223.57 265.9 
M 228.31 256.1 226.41 257 224.87 258.26 224.25 259.06 223.27 260.91 
M 227.52 251.57 225.81 252.38 225.06 252.9 223.86 254.24 222.97 255.92 
M 226.74 247.04 225.21 247.76 223.96 248.79 222.67 250.93 
M 225.95 242.51 224.6 243.15 223.5 244.05 222.37 245.93 
M 225.17 237.98 224 238.53 223.05 239.31 222.06 240.94 
M 224.39 233.45 223.4 233.91 222.59 234.57 221.76 235.95 
M 223.6 228.92 222.45 229.54 221.88 230.17 221.46 230.96 
M 220.95 267.28 218.5 267.94 216.35 269.08 215.4 269.86 213.71 271.76 
M 220.77 262.69 218.51 263.3 217.48 263.77 215.65 265.08 214.09 266.83 
M 220.59 258.11 218.52 258.67 216.7 259.63 215.9 260.29 214.47 261.89 
M 220.41 253.52 217.67 254.41 216.15 255.5 214.86 256.95 
M 220.23 248.93 218.54 249.39 217.05 250.17 215.24 252.02 
M 220.05 244.35 218.55 244.75 217.23 245.45 215.62 247.08 
M 219.87 239.76 217.96 240.38 216.9 241.14 216 242.15 
M 219.68 235.17 218.57 235.47 217.59 235.99 216.38 237.21 
M 219.5 230.58 218.58 230.83 217.76 231.26 216.77 232.28 
M 342.21 191.73 345.28 194.58 346.96 196.83 348.86 198.03 352.04 198.95 353.62 200.34 349.56 201.64 348.28 203.3 346.8 204.75 343.65 207.44 341.67 208.39 339.32 211.64 337.57 212.82 336.08 214.27 335.29 216.2 333.79 217.64 331.83 218.6 330.59 222.96 330.28 225.15 329.74 227.27 326.91 232.78 325.68 237.09 324.21 240.78 322.82 242.09 322.09 244.2 322.14 246.85 322.97 251.68 319.4 255.74 318.11 255.1 317.08 252.96 316.38 251.06 315.11 248.79 314.12 247.72 310.67 244.69 309.92 242.22 308.43 240.16 305.12 237.19 303.05 235.95 301.54 234.38 299.37 230.11 295.52 226.52 292.66 222.91 291.29 221.53 286.91 215.08 
M 339.15 193.35 343.44 198.04 
M 336.08 194.97 340.96 199.8 342.22 201.72 343.73 203.15 
M 332.97 196.5 338.44 201.4 339.87 202.26 341.05 203.63 
M 329.85 198.01 332.86 200.8 334.85 202.2 
M 326.74 199.56 330.77 204.26 335.21 207.53 
M 323.66 201.14 326.65 203.05 328.05 205.27 330.17 206.69 332.1 208.41 333.13 210.43 
M 320.56 202.7 323.34 204.98 326.57 208.78 
M 317.43 204.18 320.1 206.4 321.69 208.81 323.19 210.58 325.13 212.13 327.31 213.18 
M 314.28 205.63 316.81 207.98 318.47 209.88 319.98 212.16 324.37 216.19 325.8 217.69 329.47 220.57 
M 311 206.77 316.93 212.78 317.97 214.32 320.1 215.97 
M 307.73 207.91 309.68 210.44 312.76 213.42 315.81 216.89 317.8 218.45 321.21 222.48 
M 304.47 209.09 307.76 213.46 309.3 215.02 310.76 216.03 312.04 217.91 315.92 221.8 
M 301.21 210.27 303.2 212.84 305.2 214.49 306.5 216.16 309.21 219.18 310.51 221.86 312.03 223.87 313.24 225.41 316.44 228.69 
M 297.95 211.46 300.06 213.86 304.07 217.48 309.09 225.09 310.22 227.15 311.61 228.79 313.54 230.23 315.59 231.43 320.35 236.47 
M 294.69 212.64 296.59 214.99 300.36 218.55 301.86 220.17 303.81 223.88 305.6 225.48 307.16 227.96 310.49 231.02 
M 291.39 213.71 297.51 221.37 298.92 223.46 300.27 225.09 301.57 227.26 305.29 231.02 308.54 233.86 309.49 235.26 311.31 236.51 
M 362.96 142.16 367.36 140.96 371.78 139.27 374.73 136.9 376.73 135.88 378.58 134.04 380.55 132.89 382.46 132.19 386.47 129.47 390.39 127.23 392.19 125.66 393.96 124.67 395.59 124.34 397.22 123 399.34 122.24 401.41 121.25 402.9 119.15 405.12 117.65 408.53 116.17 406.06 122.02 406.44 126.15 406.11 130.2 405.14 131.81 404.8 134.01 404.65 136.31 405.48 139.51 405.55 141.77 405.04 143.45 403.48 144.75 402.43 146.57 401.7 150.53 401.58 152.83 400.81 154.52 400.44 156.6 400.85 158.67 400.77 159.75 403.36 166.06 402.98 168.07 403.03 170.42 402.58 172.23 401.61 173.84 401.62 176.27 402.64 181.14 403.57 183.36 404.09 185.13 405.08 186.78 406.14 190.02 406.25 192.28 407.17 195.36 407.04 198.9 406.23 199.91 405.91 201.7 406.58 204.58 406.76 207.45 406.72 211.33 404.26 210.59 402.81 209.66 401.57 208.01 399.88 206.58 396.42 202.95 394.24 202.48 392.7 200.67 390.31 198.32 388.67 197.28 386.95 195.54 384.17 193.76 382.01 192.15 378.58 190.68 376.81 189.07 371.3 184.82 369.53 183.65 367.44 182.57 362.96 179.42 
M 365.35 143.56 369.8 142.68 372.11 142.01 373.87 140.83 375.43 139.47 381.34 136.04 383.51 135.1 385.26 134.91 387.33 133.79 388.15 132.5 389.45 131.4 391.91 130.72 393.72 129.57 395.99 128.73 
M 369.67 144.84 372.23 144.31 375.98 142.83 379.48 140.66 382.09 139.96 384.21 138.88 385.68 137.85 389.28 136.08 
M 367.69 147.34 369.85 146.72 371.89 146.34 378.2 144.52 379.79 143.73 381.61 142.29 384.17 141.11 386.51 140.6 
M 362.96 149.61 365.7 149.63 369.9 149.13 374.18 147.94 379.57 146.1 381.6 145.62 382.88 145.02 385.08 144.84 387.48 144.17 389.87 142.02 391.4 141.16 
M 362.96 151.47 365.87 151.76 370.09 151.18 372.32 150.72 377.11 149.19 380.34 147.9 381.79 147.48 383.6 147.36 385.63 147.47 387.75 147.3 390.24 146.82 391.75 145.88 
M 370.72 152.94 375.23 152.17 377.47 151.39 380.1 150.81 384.22 150.86 386.39 150.71 391.3 149.84 395.62 149.51 397.24 148.91 397.99 147.72 399.15 146.95 
M 362.96 155.2 366.09 155.74 370.55 155.02 375.39 154.62 377.79 154.71 383.94 154.46 386.12 154.65 387.84 154.25 
M 370.77 157.3 373.08 157.2 375.58 157.58 377.58 157.67 379.84 157.54 381.88 157.18 
M 368.64 159.83 373.19 159.88 375.33 160.39 379.66 160.27 382.5 159.7 384.77 159.55 386.34 159.85 388.81 159.58 391.7 159.74 394.99 159.31 397.03 159.83 
M 368.35 161.88 370.99 162.36 373.34 162.48 375.24 162.85 380.05 162.15 382.42 162.72 384.88 162.97 
M 370.71 164.46 380.33 164.8 382.73 165.42 386.71 165.94 391.78 165.32 394.18 166.61 396.17 167.18 398.32 166.72 
M 362.96 164.51 368.28 166.15 372.55 166.68 375.42 166.73 377.47 167 379.65 167.76 382.28 167.64 384.71 168.35 
M 370.26 168.68 372.25 169.3 374.96 169.25 377.33 169.76 379.7 170.48 382.11 170.91 
M 370.1 170.74 377.61 173.2 379.95 174.45 381.91 174.73 383.48 174.64 385.95 174.88 388.01 175.46 390.02 176.46 395.23 177.23 396.45 177.72 
M 365.72 171.42 368.14 172.22 371.8 174.26 379.93 177.32 381.4 177.61 385.85 178.06 
M 367.98 174.71 369.88 175.76 371.65 176.96 383.08 180.9 386.72 181.6 388.88 182.5 391.19 183.97 393.24 184.53 395.12 186 
M 362.96 173.83 365.67 175.64 369.56 177.87 371.86 178.67 376.02 180.96 377.99 181.71 379.92 182.82 383.81 183.85 387.8 185.76 389.05 186.73 390.87 188.6 392.95 189.86 
M 369.75 179.29 371.65 180.66 373.88 181.47 379.62 185.72 381.73 185.98 383.77 186.62 387.29 188.49 389.39 189.42 390.46 191.02 392.33 192.78 394.51 194.11 398.23 195.25 399.2 196.39 401.34 197.52 
M 369.79 181.63 371.57 182.53 373.4 183.73 377.04 186.81 381.32 188.88 383.48 189.29 387.02 191.81 391.79 196.2 395.4 198.29 
M 354.63 182.18 352.4 183.77 350.27 185.54 348.66 187.9 349.13 187.78 
M 124 157.49 125.7 155.25 127.45 153.38 138.28 145.34 142.93 142.32 147.66 139.63 152.53 136.44 158.38 133.1 176.73 126.33 182.3 124.85 187.4 123.83 195.13 122.78 197.02 122.71 200 126.85 200.92 130.77 201.23 134.63 201.42 138.48 201.44 146.15 200.46 153.72 199.33 157.45 198.74 161.22 198.89 168.9 196.75 176.36 196.07 180.13 194.1 187.61 192.81 191.32 190.12 194.95 180.45 195.1 173.24 194.93 166.9 194.54 161.35 193.44 156.26 191.68 151.28 189.4 146.57 186.69 142.22 183.68 134.89 177.32 
M 133.6 176.1 130.22 172.83 128.42 170.55 125.71 165.88 
M 181.6 147.51 181.05 150.78 178.33 156.91 176.99 162.33 175.7 164.55 174.84 166.57 174.76 170.71 175.45 175.4 175.03 178.39 168.69 178.96 159.34 180.09 155.08 180.04 150.91 179.28 146.67 177.77 142.64 175.55 
M 133.01 175.32 127.58 168.09 121.94 161.22 121.26 159.59 122.03 157.89 123.76 157.35 125.12 158.19 129.42 165.94 135.24 177.1 
M 134.12 177.21 121.31 170.11 116.8 167.39 112.51 164.44 111.46 163.07 111.76 161.37 113.24 160.39 114.88 160.85 117.22 163.21 119.85 165.43 135.15 177 
M 153.74 157.41 152.3 155.39 151.59 153 151.69 150.52 152.59 148.2 154.2 146.3 156.34 145.03 158.77 144.52 161.24 144.82 163.48 145.92 165.24 147.68 166.33 149.91 166.64 152.38 166.13 154.81 164.85 156.95 162.95 158.56 160.64 159.46 158.15 159.57 155.77 158.86 153.74 157.41 
M 164.01 148.55 164.88 150.34 165.13 152.32 164.72 154.26 163.7 155.97 162.18 157.26 160.33 157.98 158.34 158.07 156.43 157.5 154.81 156.34 
M 156.43 153.68 155.85 152.87 155.57 151.92 155.61 150.93 155.97 150 156.61 149.24 157.47 148.73 158.44 148.53 159.43 148.65 160.32 149.09 161.03 149.79 161.46 150.68 161.59 151.67 161.38 152.65 160.87 153.5 160.11 154.14 159.19 154.5 158.19 154.55 157.24 154.26 156.43 153.68 
M 156.33 153.43 156.95 154.05 
M 156.21 151.44 159.25 154.48 
M 158.34 151.7 160.47 153.84 
M 157.88 149.37 161.3 152.79 
M 159.2 148.82 161.52 151.14 
M 129.57 172.01 132.9 175.34 
M 126.34 160.45 127.64 161.76 
M 125.52 155.47 128.21 158.16 
M 127.53 153.32 130.52 156.31 
M 129.88 151.52 133.82 155.45 
M 132.26 149.73 136.37 153.84 
M 134.66 147.97 137.62 150.93 
M 137.07 146.22 140.77 149.92 
M 139.54 144.52 142.27 147.26 
M 142.06 142.89 145.27 146.1 
M 144.67 141.33 147.16 143.82 
M 147.32 139.82 149.44 141.94 
M 149.85 138.19 153.87 142.21 
M 152.37 136.55 155.83 140.01 
M 155.01 135.03 158.47 138.49 
M 157.66 133.52 160.5 136.36 
M 160.61 132.31 164.24 135.94 
M 163.68 131.22 167.07 134.61 
M 166.71 130.09 169.12 132.49 
M 169.71 128.93 173.81 133.02 
M 172.74 127.79 176.5 131.56 
M 175.78 126.68 179.03 129.92 
M 179 125.73 183.02 129.75 
M 182.28 124.85 184.37 126.94 
M 185.75 124.16 188.09 126.5 
M 189.31 123.56 191.62 125.87 
M 192.97 123.06 196.55 126.64 
M 196.79 122.72 197.37 123.29 
M 157.84 185.79 156.56 186.81 153.66 190.49 
M 152.51 148.42 149.97 146.98 
M 175.2 186.76 176.44 187.24 177.63 187 
M 139.61 181.5 139.14 180.22 139.09 179.65 139.3 177.79 
M 174.76 136.06 174.41 135.69 173.11 134.99 172.64 134.58 172.43 134.01 172.74 133.64 
M 139.2 163.93 137.21 162.17 136.07 161.44 132.39 159.54 131.6 159.23 130.19 159.03 
M 164.71 147.14 164.45 144.98 164.25 144.41 163.93 144.08 
M 194.24 187.1 193.98 186.4 193.97 185.86 194.96 183.97 
M 179.71 187.58 180.82 189.11 181.96 190.36 
M 148.97 144.94 147.71 144.67 146.74 144.06 146.63 143.65 147.08 142.39 
M 164.34 146.78 164.51 146.16 164.42 144.9 164.21 144.36 163.88 144.05 
M 130.38 167.79 130.53 168.1 
M 188.43 147.23 181.35 141.05 
M 190.12 184.15 191.03 184.82 192.77 185.74 193.17 185.64 194.51 184.21 
M 145.92 154.17 145.33 152.26 145.2 148.74 144.28 147.09 144.09 146.4 
M 198.18 168.37 198.88 168.17 
M 180.1 189.28 181.08 189.98 181.87 190.33 
M 169.19 141.37 168.21 141.01 166.26 141.01 164.16 140 163.58 140.02 163.2 140.44 
M 148.28 187.68 149.09 186.13 149.86 185.52 
M 152.06 168.51 151.76 168.87 151.91 169.64 
M 191.82 173.84 192.28 171.96 192.06 171.18 191.37 170.32 189.9 169.02 188.02 168.04 
M 127.82 161.2 127.02 161.69 
M 169.34 191.19 167.85 193.39 166.59 194.48 
M 163.71 193.91 163.52 193.65 
M 127.62 162.14 127.47 162.48 
M 127.9 163.24 128.14 163.21 
M 185.63 152.91 186.47 152.99 186.82 152.83 188.19 150.84 188.54 149.77 
M 165.43 175.14 166.21 173.96 167.77 172.31 168.14 171.65 168.69 170.03 168.75 167.26 
M 193.54 186.19 193.74 185.53 194.64 184.34 195.23 182.91 195.24 182.55 194.85 181.49 
M 170.19 128.74 169.49 129.01 
M 162.67 139.41 162.45 140.74 162.09 141.53 161.75 141.76 161.1 141.7 
M 170.03 174.49 171.46 173.05 171.82 172.39 171.96 169.55 
M 151.31 164.43 151.4 162.68 151.11 162.03 150.22 161.15 150.04 160.12 
M 149.02 181.94 149.97 183.11 150.92 183.15 152.06 182.73 
M 126.54 167.44 126.92 167.31 
M 169.9 134.19 169.61 134.82 169.43 136.27 168.94 137.29 
M 173.65 157.07 172.88 155.81 171.88 153.1 171.26 152.03 
M 143.49 181.88 144.52 180.57 144.86 180.36 145.76 180.29 147.25 180.64 147.96 181.27 148.88 181.7 149.49 182.42 
M 172.81 138.93 169.49 137.6 
M 167.34 192.37 165.9 193.55 164.52 193.91 163.87 193.77 162.73 193.02 162.12 192.9 
M 193.22 137.04 192.42 136.83 191.99 136.16 
M 177.61 157.66 176.93 157.85 174.58 157.51 173.61 156.4 172.74 154.52 
M 148.18 159.96 148.76 158.35 148.93 156.54 
M 187.88 155.47 188.02 154.51 188.63 152.66 189.33 149.63 189.16 148.76 188.85 148.09 
M 166.56 159.84 167.49 154.1 
M 145.8 155.56 145.08 154.73 142.59 150.71 142.35 149.42 142.71 147.78 
M 158.76 183.6 156.35 185.14 153.64 185.98 
M 164.89 130.79 165.59 132.18 167.04 133.37 
M 141.6 169.14 144.04 166.33 144.24 165.7 144.06 165.29 
M 154.02 146.52 153.09 146.6 152.08 146.34 150.22 145.15 148.56 144.44 
M 180.33 171.96 179.96 172.18 179.34 172.1 177.77 171.63 176.44 171.42 175.39 170.86 
M 168.56 191.47 166.71 193.58 165.43 194.25 
M 163.76 193.92 162.71 193.03 
M 195.3 134.2 193.02 135.79 192.19 136.03 191.91 135.74 
M 153 147.72 151.83 147.4 150.58 146.71 
M 162.66 144.9 163.09 144.27 163.16 143.59 162.11 142.08 161.21 141.74 
M 174.96 130.04 174.01 130.2 173.3 130.66 172.96 131.16 172.9 131.96 
M 167.17 174.83 168.49 174.16 169.39 173.32 170.04 171.99 170.83 169.29 
M 171.01 162.16 169.67 159.26 169.33 158.04 169.46 157.23 170.47 154.69 
M 141.35 155.94 139.89 154.86 138.33 153.23 137.71 152.26 136.27 149.2 135.04 147.69 
M 160.89 132.49 161.21 132.67 161.62 133.47 161.83 134.27 161.77 134.88 
M 157.87 190.99 156.97 191.93 
M 149.59 170.63 146.62 168.13 146.12 167.18 145.88 165.15 145 164.08 
M 174.63 168.9 173.78 169.53 173.05 169.59 172.36 168.99 171.82 167.55 
M 142.06 157.95 138.6 153.94 137.91 152.94 136.34 149.67 134.83 147.84 
M 169.51 168.37 169.47 165.91 169.88 164.33 170.02 162.75 169.71 161.23 168.77 159.6 
M 164.28 143.46 163.85 143.46 163.23 143.16 161.99 141.94 161.06 141.72 
M 197.38 158.43 198.42 159.34 198.93 160.03 
M 159.84 139.51 160.06 141.33 159.67 142.41 
M 155.59 178.01 156.8 176.26 158.55 174.18 160.49 172.8 161.69 172.51 
M 149.02 145.17 147.7 144.85 146.62 144.17 146.49 143.74 147 142.45 
M 151.44 143.86 151.96 142.51 152.48 141.94 154.71 140.14 156.43 139.19 157.48 138.37 
M 194.81 157.23 194.14 156.37 193.49 154.96 193.36 154.04 193.58 152.54 193.13 150.54 
M 153.29 139.35 154.65 137.92 157.37 137.33 
M 185.69 180.13 186.16 179.68 187.86 179.03 189.61 177.06 
M 187 145.27 183.13 141.35 180.57 139.72 180.27 139.26 179.64 137.3 
M 161.78 174.7 163.04 174.49 165.35 173.22 166.58 171.81 167.01 171.08 167.45 169.56 
M 156.71 183.89 155.66 184.16 154.07 184.13 153.65 183.99 
M 154.22 163.28 153.71 163.34 152.8 163.07 150.59 161.2 150.24 160.56 
M 171.63 171.58 171.78 169.1 171.52 166.79 
M 179.85 154.76 180.03 153.29 179.84 151.25 180.15 150.48 
M 177.03 144.02 176.02 143.02 175.79 142.43 
M 193.73 148.12 193.88 146.58 193.74 145.29 192.41 142.98 
M 143.1 142.22 143.48 142.28 144.56 141.97 145.49 141.42 
M 193.92 123.65 192.58 123.74 191.72 124.05 191.23 124.44 191 124.96 
M 199.88 132.76 197.79 132.81 195.17 133.67 194.42 133.93 193.07 135.04 192.14 135.46 
M 195.86 140 195.88 136.75 195.69 136.47 194.93 136.27 
M 194.47 183.77 194.92 182.99 195.01 182.43 194.59 180.78 194.09 179.56 
M 153.3 157.68 153.09 156.5 
M 137.96 155.05 134.99 151.38 134.1 150.61 132.49 149.57 
M 185.59 141.23 184.78 139.64 183.32 137.56 183.21 136.63 183.45 135.56 183.46 134.42 
M 174.66 156.44 173.94 155.44 172.56 152.65 170.74 151.2 
M 171.53 173.05 171.89 172.09 171.99 169.84 171.79 168.35 
M 168 172.97 168.42 172.44 169.05 171.04 169.34 169.23 169.33 166.2 169.77 164.15 
M 196.12 139.2 195.97 137.6 196.05 136.53 195.87 136.36 195.28 136.26 
M 197.56 169.25 198.05 168.6 198.88 168.31 
M 187.9 153.57 189.2 149.55 188.86 148.41 187.94 147.58 
M 189.87 163.13 191.64 161.1 192.68 160.32 
M 196.62 131.11 195.16 131.43 194.15 131.89 193.71 132.27 192.7 133.79 192.17 134.12 191.53 134.2 
M 167.05 163.95 167.33 162.83 166.74 160.81 166.66 159.58 166.74 158.43 167.2 156.18 
M 157.75 166.25 157.15 165.55 156.17 165.15 155.19 165.55 152.91 167.27 
M 133.01 162.93 131.49 162.23 129.62 162.07 128.67 162.25 128.36 162.47 128.14 163.19 
M 132.76 152.78 132.02 152.39 131.3 152.24 130.59 152.29 129.9 152.51 128.26 153.57 126.73 154.15 
M 188.89 192.67 187.05 193.57 186.09 193.79 185.47 193.6 185.32 192.75 
M 135.9 178.31 134.06 179.69 132.98 180.16 130.75 180.58 128.61 180.62 126.47 180.45 125.42 180.2 123.44 179.45 120.63 178.06 122.55 178.86 124.54 179.43 126.55 179.71 127.55 179.69 131.49 179.01 133.13 178.17 134.43 176.84 
M 119.85 169.2 123.27 172.4 126.74 175.25 132.04 178.78 
M 133.76 179.82 138.26 182.36 146.57 186.69 
M 200.71 129.88 202.22 131.39 
M 198.48 122.1 206.23 129.85 
M 202.35 120.42 208.24 126.31 
M 206.33 118.85 210.86 123.39 
M 210.38 117.36 216.62 123.6 
M 214.5 115.92 221.26 122.69 
M 218.69 114.56 225.69 121.57 
M 223.16 113.49 227.93 118.26 
M 227.82 112.6 235.81 120.59 
M 232.59 111.82 239.22 118.46 
M 237.37 111.06 241.97 115.66 
M 242.09 110.23 248.87 117.01 
M 246.88 109.47 252.37 114.96 
M 251.93 108.97 258.13 115.17 
M 257.76 109.25 265.47 116.96 
M 263.51 109.45 268.26 114.21 
M 269.33 109.73 275.27 115.67 
M 275.3 110.15 282.1 116.95 
M 281.24 110.54 287.69 116.99 
M 286.88 110.64 291.6 115.35 
M 294.01 112.21 301.37 119.58 
M 302.15 114.81 307.8 120.46 
M 310.11 117.22 314.82 121.92 
M 318.72 120.28 324.75 126.31 
M 327.73 123.75 334.73 130.75 
M 339.52 129.98 346.44 136.9 
M 350.52 135.44 358.66 143.57 
M 362.58 141.95 367.47 146.84 
M 198.17 198.73 198.49 199.38 
M 198.17 193.89 201.76 201.07 
M 198.19 189.08 204.98 202.65 
M 198.21 184.26 208.09 204.01 
M 198.23 179.45 199.91 182.81 
M 201.58 186.15 211.19 205.36 
M 198.26 174.65 199.91 177.95 
M 205.06 188.24 214.22 206.57 
M 198.49 170.25 200.91 175.09 
M 208.04 189.35 217.26 207.79 
M 198.95 166.32 203.25 174.93 
M 211.03 190.48 218.8 206.02 
M 198.98 161.53 205.55 174.67 
M 214.02 191.61 218.83 201.23 
M 199.67 158.05 207.85 174.41 
M 216.98 192.68 219.52 197.75 
M 200.26 154.37 210.16 174.17 
M 200.79 150.59 212.48 173.95 
M 201.34 146.83 214.84 173.83 
M 201.46 142.2 217.16 173.61 
M 201.36 137.15 219.41 173.26 
M 238.47 211.38 240.77 215.98 
M 201.94 133.46 219.93 169.44 
M 239.16 207.9 243.58 216.73 
M 201.44 127.61 218.81 162.35 
M 239.9 204.53 246.29 217.31 
M 201.58 123.02 219.56 159 
M 240.65 201.18 248.84 217.55 
M 202.64 120.3 220.32 155.65 
M 240.79 196.59 251.38 217.78 
M 204.65 119.47 220.47 151.1 
M 242.75 195.67 253.79 217.73 
M 206.7 118.71 221.28 147.87 
M 245.23 195.76 256.1 217.51 
M 208.75 117.96 221.47 143.39 
M 247.67 195.8 258.42 217.29 
M 210.8 117.21 222.28 140.16 
M 250.02 195.63 260.79 217.17 
M 212.6 115.94 222.21 135.17 
M 252.33 195.4 261.29 213.32 
M 213.64 113.18 222.02 129.93 
M 241.25 168.39 242.76 171.4 
M 254.58 195.04 261.1 208.09 
M 214.65 110.34 221.79 124.61 
M 241.64 164.31 245.02 171.08 
M 256.84 194.72 261.49 204.01 
M 215.6 107.39 222.12 120.41 
M 242.59 161.35 247.25 170.69 
M 259.18 194.54 261.82 199.81 
M 216.48 104.28 222.37 116.07 
M 242.22 155.77 249.56 170.45 
M 261.4 194.13 262.07 195.46 
M 217.26 100.99 221.29 109.05 
M 243 152.47 252.08 170.63 
M 217.93 97.48 220.72 103.07 
M 243.06 147.73 254.54 170.69 
M 218.5 93.77 220.06 96.87 
M 243.01 142.77 256.98 170.72 
M 219 89.9 219.93 91.76 
M 242.88 137.67 259.5 170.9 
M 280.1 212.1 282.05 216 
M 241.66 130.37 261.87 170.79 
M 280.12 207.29 284.26 215.58 
M 241.45 125.09 261.92 166.03 
M 280.53 203.25 286.48 215.16 
M 241.83 121 261.68 160.7 
M 280.29 197.92 288.61 214.56 
M 242.17 116.82 262.02 156.52 
M 280 192.5 290.71 213.91 
M 242.44 112.51 262.91 153.45 
M 281.29 190.22 292.82 213.27 
M 242 106.78 263.09 148.96 
M 283.59 189.96 294.89 212.57 
M 241.47 100.86 263.18 144.28 
M 285.68 189.28 296.95 211.82 
M 240.84 94.75 263.17 139.41 
M 287.71 188.5 299 211.08 
M 240.15 88.51 264.34 136.89 
M 281.09 170.39 281.65 171.51 
M 289.69 187.61 301.06 210.33 
M 239.33 82.02 264.76 132.88 
M 281.51 166.38 284.24 171.84 
M 291.78 186.92 302.7 208.76 
M 239.76 78.02 265.19 128.88 
M 281.94 162.38 286.95 172.4 
M 293.8 186.1 301.79 202.08 
M 240.16 73.97 264.97 123.59 
M 281.72 157.09 289.53 172.71 
M 295.74 185.12 301.57 196.79 
M 239.89 68.59 262.85 114.49 
M 282.07 152.95 292 172.79 
M 297.66 184.12 301.3 191.4 
M 239.87 63.69 263.13 110.21 
M 282.98 149.91 294.36 172.67 
M 299.54 183.01 301.59 187.12 
M 241.31 61.71 261.47 102.03 
M 283.8 146.69 296.9 172.89 
M 242.66 59.54 260.95 96.14 
M 283.91 142.04 299.86 173.95 
M 243.91 57.2 259.73 88.83 
M 284.54 138.46 301.91 173.19 
M 245.1 54.72 259.05 82.63 
M 284.49 133.5 301.85 168.23 
M 246.91 53.48 259 77.68 
M 284.44 128.54 301.18 162.04 
M 249.22 53.25 258.83 72.48 
M 284.26 123.34 301.01 156.84 
M 322.1 199.02 323.27 201.35 
M 251.48 52.92 259.23 68.43 
M 284.05 118.05 301.41 152.79 
M 321.88 193.73 325.2 200.35 
M 253.67 52.45 260.19 65.48 
M 280.04 105.18 301.75 148.6 
M 322.22 189.54 327.13 199.36 
M 255.78 51.82 260.43 61.12 
M 279.66 99.58 301.99 144.24 
M 321.22 182.7 329.07 198.38 
M 257.8 51 260.59 56.58 
M 277.96 91.32 302.15 139.7 
M 320.76 176.92 331.02 197.44 
M 259.74 50.03 260.05 50.65 
M 278.04 86.62 301.61 133.77 
M 321.46 173.47 332.98 196.5 
M 278.68 83.05 301.63 128.95 
M 322.1 169.89 334.94 195.56 
M 279.91 80.66 301.62 124.08 
M 322.71 166.26 336.86 194.56 
M 280.58 77.14 301.05 118.08 
M 322.76 161.5 338.78 193.54 
M 281.2 73.53 301.05 113.23 
M 322.76 156.65 340.7 192.53 
M 281.11 68.5 300.34 106.95 
M 322.67 151.62 342.62 191.5 
M 280.31 62.02 298.91 99.24 
M 323.11 147.63 344.2 189.8 
M 280.01 56.59 299.24 95.05 
M 322.82 142.19 344.53 185.61 
M 280.26 52.22 299.49 90.68 
M 323.06 137.82 344.77 181.24 
M 280.43 47.71 299.04 84.93 
M 323.23 133.32 344.32 175.5 
M 281.5 45 299.18 80.36 
M 323.37 128.74 343.84 169.68 
M 283.95 45.03 299.76 76.67 
M 323.34 123.81 343.81 164.75 
M 286.23 44.75 300.19 72.67 
M 323.14 118.57 344.23 160.75 
M 288.41 44.26 300.51 68.45 
M 321.6 110.63 343.93 155.29 
M 290.45 43.47 300.06 62.7 
M 319.91 102.4 344.73 152.03 
M 292.34 42.4 299.47 56.66 
M 319.94 97.6 344.75 147.23 
M 294.13 41.12 300.02 52.91 
M 319.87 92.61 336.09 125.04 
M 338.2 129.27 344.71 142.29 
M 296.11 40.23 300.14 48.3 
M 320.61 89.24 336.92 121.86 
M 341.53 131.08 344.32 136.66 
M 364.17 176.36 365.07 178.16 
M 300.1 43.37 300.41 43.99 
M 320.88 84.93 337.81 118.78 
M 364.91 172.97 366.94 177.04 
M 320.93 80.17 338.74 115.79 
M 364.99 168.28 368.81 175.93 
M 321.18 75.81 339.73 112.9 
M 365.11 163.67 369.87 173.19 
M 321.33 71.26 340.77 110.13 
M 365.26 159.12 369.87 168.33 
M 321.1 65.95 341.87 107.48 
M 365.48 154.7 369.87 163.48 
M 320.59 60.06 343 104.89 
M 365.15 149.18 369.87 158.62 
M 320.45 54.93 343.79 101.6 
M 365.45 144.92 369.87 153.77 
M 323.51 56.19 343.67 96.51 
M 367.93 145.04 369.87 148.91 
M 332.08 68.49 344.18 92.68 
M 338.87 77.2 343.54 86.55 
M 342.36 79.34 343 80.61 
M 218.63 291.39 216.73 297.7 
M 218.63 291.39 221.33 291.39 222.14 291.7 222.35 292 222.47 292.6 222.29 293.2 221.81 293.8 221.42 294.1 220.43 294.39 
M 217.73 294.39 220.43 294.39 221.24 294.7 221.57 295.6 221.3 296.5 220.43 297.39 219.44 297.7 216.73 297.7 
M 227.6 293.5 226.34 297.7 
M 227.33 294.39 226.91 293.8 226.4 293.5 225.5 293.5 224.81 293.8 224.03 294.39 223.46 295.3 223.28 295.89 223.31 296.8 223.73 297.39 224.24 297.7 225.14 297.7 225.83 297.39 226.61 296.8 
M 230 293.5 228.74 297.7 
M 229.64 294.7 230.81 293.8 231.5 293.5 232.4 293.5 232.91 293.8 232.94 294.7 232.04 297.7 
M 236.03 291.39 236.24 291.7 236.63 291.39 236.42 291.1 236.03 291.39 
M 235.7 293.5 234.44 297.7 
M 238.1 293.5 237.2 296.5 237.23 297.39 237.74 297.7 238.64 297.7 239.33 297.39 240.5 296.5 
M 241.4 293.5 240.14 297.7 
M 246.53 294.39 246.41 293.8 245.6 293.5 244.7 293.5 243.71 293.8 243.23 294.39 243.35 295 243.86 295.3 245.27 295.6 245.78 295.89 245.81 296.8 245.33 297.39 244.34 297.7 243.44 297.7 242.63 297.39 242.51 296.8 
M 255.83 291.39 253.94 297.7 
M 254.93 294.39 254.51 293.8 254 293.5 253.1 293.5 252.41 293.8 251.63 294.39 251.06 295.3 250.88 295.89 250.91 296.8 251.33 297.39 251.83 297.7 252.74 297.7 253.43 297.39 254.21 296.8 
M 256.76 295.3 260.36 295.3 260.53 294.7 260.41 294.1 259.7 293.5 258.8 293.5 258.11 293.8 257.33 294.39 256.76 295.3 256.58 295.89 256.61 296.8 257.02 297.39 257.53 297.7 258.44 297.7 259.13 297.39 259.9 296.8 
M 263 293.5 261.11 299.8 
M 262.73 294.39 263.51 293.8 264.2 293.5 265.1 293.5 265.61 293.8 266.02 294.39 266.06 295.3 265.88 295.89 265.31 296.8 264.52 297.39 263.84 297.7 262.94 297.7 262.43 297.39 262.01 296.8 
M 269.02 291.39 269.24 291.7 269.63 291.39 269.42 291.1 269.02 291.39 
M 268.7 293.5 267.44 297.7 
M 272.02 291.39 270.5 296.5 270.52 297.39 271.04 297.7 271.64 297.7 
M 270.5 293.5 272.6 293.5 
M 278 293.5 276.74 297.7 
M 277.73 294.39 277.31 293.8 276.8 293.5 275.89 293.5 275.2 293.8 274.43 294.39 273.86 295.3 273.68 295.89 273.7 296.8 274.13 297.39 274.64 297.7 275.53 297.7 276.23 297.39 277.01 296.8 
M 281.02 291.39 279.14 297.7 
M 280.13 294.39 280.9 293.8 281.6 293.5 282.5 293.5 283.01 293.8 283.43 294.39 283.45 295.3 283.27 295.89 282.7 296.8 281.93 297.39 281.24 297.7 280.33 297.7 279.83 297.39 279.4 296.8 
M 285.26 295.3 288.86 295.3 289.03 294.7 288.91 294.1 288.2 293.5 287.3 293.5 286.61 293.8 285.83 294.39 285.26 295.3 285.08 295.89 285.11 296.8 285.52 297.39 286.03 297.7 286.94 297.7 287.63 297.39 288.4 296.8 
M 291.5 293.5 290.6 296.5 290.63 297.39 291.14 297.7 292.03 297.7 292.73 297.39 293.89 296.5 
M 294.8 293.5 293.53 297.7 
M 299.93 294.39 299.81 293.8 299 293.5 298.1 293.5 297.11 293.8 296.63 294.39 296.75 295 297.26 295.3 298.66 295.6 299.18 295.89 299.2 296.8 298.73 297.39 297.74 297.7 296.83 297.7 296.02 297.39 295.9 296.8 
M 301.52 297.1 301.13 297.39 301.33 297.7 301.73 297.39 301.52 297.1 
"/></svg>
