<svg xmlns="http://www.w3.org/2000/svg" width="520" height="320"><rect x="0" y="0" width="520" height="320" fill="floralwhite"/><rect x="10" y="10" width="500" height="300" stroke="black" stroke-width="1" fill="none"/><path stroke="black" stroke-width="1" fill="none" stroke-linecap="round" stroke-linejoin="round" d="
M 212.47 92.68 219.32 86.52 226.16 81.25 233 76.66 239.84 72.95 246.69 69.81 253.53 67.57 267.21 63.88 274.06 63.45 287.74 63.42 301.43 64.21 308.27 65.79 315.11 67.63 321.96 70.19 328.8 73.47 335.64 77.25 342.48 81.33 349.33 86.05 356.17 92.35 363.01 98.99 376.7 111.44 384.49 119.25 
M 384.49 166.46 363.01 188.47 356.17 195.26 349.33 201.43 335.64 211.82 328.8 217.24 315.11 227.07 308.27 230.59 301.43 233.34 294.59 235.4 287.74 236.33 280.9 236.4 274.06 235.94 267.21 234.08 260.37 230.33 246.69 223.39 239.84 217.56 233 210.72 219.35 198.07 
M 215.47 97.04 218.79 88.03 218.79 87 
M 234.19 128.94 233.94 127.89 230.09 118.86 227.08 115.34 
M 238.83 195.09 240.06 193.2 242.76 185.91 242.76 181.4 240.06 174.12 239.57 173.37 
M 217.4 93.73 224.41 91.18 234.06 84.15 240.28 76.19 240.28 72.75 
M 244.92 124.33 246.72 120.46 246.72 114.82 242.48 105.72 235.91 97.67 230.78 94.54 
M 241.79 182.45 244.4 180.59 247.48 176.17 
M 254.03 203.19 254.56 202.15 254.56 197.84 251.01 190.88 245.5 184.74 241.79 182.67 
M 240.35 196.2 248.28 195.16 
M 245.71 199.72 248.01 199.64 
M 238.06 78.1 239.42 77.73 248.76 72.73 254.54 67.28 
M 245.21 121.86 249.14 120.02 256.43 113.23 261.14 105.54 261.14 100.78 256.43 93.09 249.14 86.3 243.45 83.65 
M 237.48 98.99 252.21 97.21 
M 239.61 103.1 252.3 102.92 
M 243.47 107.74 252.69 108.98 
M 249.83 122.22 248.39 121.15 
M 253.57 202.82 256.88 200.19 261.11 193.43 263.85 185.78 263.85 181.04 262.22 176.49 
M 250.78 179.68 259.12 177.59 
M 249.98 183.44 258.98 183.66 
M 250.45 186.9 259.32 188.81 
M 256.3 204.06 255.9 203.57 253.29 201.94 
M 251.6 75.13 259.66 73.87 269.99 70.66 276.64 67.03 276.64 64.77 274.22 63.45 
M 260.11 65.74 264.17 65.69 
M 252.63 68.03 264.54 68.21 
M 259.45 104.59 261.65 103.93 270.3 98.66 275.88 92.7 275.88 89.01 270.3 83.05 261.65 77.79 254.89 75.74 
M 250.08 87.98 266.2 86.35 
M 253.14 90.78 265.81 90.84 
M 257.44 94.73 265.91 95.16 
M 273.79 119.83 271.5 115.96 264.85 109.57 259.65 107.07 
M 258.24 121.61 268.38 120.35 
M 262.89 182.82 267.05 180.23 269.89 176.67 
M 273.81 210.01 276.73 203.82 276.73 199.38 273.34 192.22 268.09 185.88 263.99 183.41 
M 271.62 72.7 277.06 71.93 284.03 69.96 288.52 67.73 288.52 66.35 284.03 64.12 281.34 63.36 
M 273.89 94.3 276.95 93.44 283.78 89.62 288.18 85.28 288.18 82.6 283.78 78.26 276.95 74.44 271.62 72.94 
M 283.16 116.96 285.44 112.93 285.44 109.12 281.96 102.98 276.58 97.55 273.68 96.09 
M 275.52 202.13 278.32 199.87 282.33 193.41 284.92 186.09 284.92 181.56 282.33 174.25 281.9 173.56 
M 282.09 210.43 278.53 205.55 275.52 203.48 
M 286.6 85.01 289.27 84.44 296.05 81.56 300.42 78.29 300.42 76.27 296.05 73 289.27 70.11 285.57 69.33 
M 284.19 112.12 289.08 110.36 295.35 105.82 299.4 100.68 299.4 97.5 295.35 92.37 289.08 87.83 286.6 86.94 
M 288.65 143.7 289.02 143.5 294.54 137.82 298.09 131.38 298.09 127.4 294.54 120.96 289.02 115.27 284.72 113.05 
M 284.64 125.36 292.11 124.36 
M 286.49 129.25 291.3 129.11 
M 288.02 133.78 291.8 134.26 
M 284.75 182.4 288.61 179.95 293.56 173.68 296.74 166.58 296.74 162.18 293.56 155.07 289.12 149.45 
M 289.13 164.4 291.42 164.37 
M 288.72 169.85 290.8 170.23 
M 294.17 209.7 296.85 203.62 296.85 199.21 293.7 192.09 288.83 185.79 285.02 183.34 
M 281.69 197.4 290.96 196.03 
M 281.3 201.41 291.22 201.21 
M 281.48 205.12 291.6 207.29 
M 298.86 75.72 299.75 75.52 304.13 73.54 306.95 71.3 306.95 69.91 304.13 67.67 299.75 65.69 296.32 64.92 
M 292.74 69.31 302.02 68.51 
M 293.03 70.2 302.19 71.08 
M 293.11 71.55 302.07 72.25 
M 297.95 97.66 299.79 96.87 304.21 93.11 307.06 88.84 307.06 86.2 304.21 81.94 299.79 78.17 298.86 77.77 
M 293.29 85.13 301.73 83.95 
M 293.04 87.59 301.84 87.33 
M 293.22 90.01 302.03 90.96 
M 296.82 128.35 299.73 126.6 304.01 121.48 306.77 115.68 306.77 112.09 304.01 106.29 299.73 101.17 297.95 100.1 
M 293.18 110.72 301.61 109.36 
M 292.73 113.74 301.94 113.53 
M 293.07 117.13 301.54 118.51 
M 295.73 163.19 298.82 160.91 302.77 155.06 305.32 148.44 305.32 144.34 302.77 137.71 298.82 131.86 296.82 130.38 
M 292.66 142.65 300.95 141.38 
M 292.54 146.09 300.81 146.08 
M 292.5 149.36 300.43 151.85 
M 295.72 197.8 296.61 197.04 300.39 190.6 302.82 183.3 302.82 178.78 300.39 171.48 296.61 165.04 295.6 164.18 
M 291.11 177.54 298.64 175.48 
M 291.14 180.71 298.76 181.14 
M 290.8 185.14 298.49 186.86 
M 301.39 207.98 299.31 204.81 296.12 202.37 
M 306.04 86.24 309.64 85.16 314.41 82.28 317.49 79.03 317.49 77.01 314.41 73.76 309.64 70.88 305.94 69.77 
M 302.14 76.68 311.94 75.46 
M 302.7 78.11 312.23 77.62 
M 302.11 79.2 311.87 80.16 
M 305.87 112.26 309.56 110.54 314.27 106.13 317.31 101.13 317.31 98.04 314.27 93.05 309.56 88.64 306.04 86.99 
M 302.77 97.1 311.95 95.34 
M 302.5 99.83 312.01 99.81 
M 302.29 102.44 311.73 103.78 
M 305.26 144.41 308.87 142.28 313.5 136.81 316.49 130.62 316.49 126.78 313.5 120.59 308.87 115.12 305.78 113.3 
M 301.88 125.45 310.78 124.36 
M 301.7 129.13 311.2 128.54 
M 301.64 131.98 311.21 133.02 
M 304.01 180.2 307.69 177.78 312.39 171.59 315.42 164.57 315.42 160.22 312.39 153.2 307.69 147 304.41 144.84 
M 300.91 158.67 309.71 156.91 
M 300.38 162.75 310.21 162.15 
M 300.92 165.5 310.06 167.66 
M 316.13 202.59 316.34 202.09 316.34 197.57 313.24 190.26 308.43 183.81 304.68 181.29 
M 315.29 74.1 318.02 73.32 321.51 71.3 322.4 70.4 
M 316.23 96.12 318.52 94.93 322.13 91.19 324.45 86.95 324.45 84.33 322.13 80.09 318.52 76.35 316.38 75.24 
M 315.42 125.45 317.73 123.75 321.14 118.74 323.34 113.06 323.34 109.55 321.14 103.87 317.73 98.86 316.23 97.75 
M 314.34 159.76 316.8 157.84 320.58 151.95 323.02 145.29 323.02 141.16 320.58 134.49 316.8 128.61 315.42 127.53 
M 315.23 196 316.06 195.34 320.24 188.73 322.92 181.24 322.92 176.61 320.24 169.12 316.06 162.51 314.34 161.14 
M 317.79 201.69 316.11 200.33 
M 323.62 82.01 326.22 81.08 330.23 78.18 332.39 75.45 
M 322.6 107.79 325.74 106.05 329.75 101.61 332.34 96.57 332.34 93.45 329.75 88.42 325.74 83.97 323.62 82.8 
M 322.59 141.32 325.96 139.07 330.28 133.3 333.06 126.77 333.06 122.73 330.28 116.19 325.96 110.42 322.59 108.17 
M 323.88 179.65 327.7 177.12 332.6 170.64 335.76 163.29 335.76 158.75 332.6 151.41 327.7 144.92 323.88 142.39 
M 335.16 191.92 334.07 189.41 329.07 182.87 325.17 180.32 
M 320.96 195.19 331.41 193.82 
M 321.16 198.74 322.98 198.86 
M 331.59 90.67 334.07 89.25 337.25 85.61 339.3 81.48 339.3 79.43 
M 330.14 116.62 330.52 116.29 333.71 110.9 335.77 104.79 335.77 101.01 333.71 94.9 331.41 91.01 
M 330.9 90.13 330.52 89.5 330.02 89.08 
M 334.63 160.02 336.55 158.39 340.54 151.62 343.12 143.94 343.12 139.19 340.54 131.51 336.55 124.73 333.43 122.09 
M 330.37 137.35 338.33 136.05 
M 330.41 141.72 338.7 141.12 
M 330.02 145.43 338.48 147.33 
M 344.54 186.75 346.05 182.71 346.05 178.04 343.23 170.5 338.86 163.84 335.44 161.24 
M 331.71 176.53 340.64 174.59 
M 332.34 180.54 340.77 179.94 
M 331.9 183.86 341.37 185.73 
M 336.55 101.51 339.85 99.62 344.08 94.78 346.81 89.3 346.81 85.91 345.6 83.48 
M 333.33 85.12 341.62 83.29 
M 333.21 87.48 342.17 87.25 
M 333.79 90.6 342 91.33 
M 339.74 139.13 343.3 136.61 347.86 130.17 350.8 122.86 350.8 118.35 347.86 111.04 343.3 104.6 339.74 102.08 
M 336.09 116.67 345.32 115.36 
M 336.29 121.07 345.76 121.07 
M 336.15 124.7 345.07 125.81 
M 344.88 180.57 348.75 177.88 353.7 171 356.89 163.21 356.89 158.39 353.7 150.6 348.75 143.72 344.88 141.04 
M 341.33 156.53 351.18 155.06 
M 341.56 160.36 350.76 161.28 
M 341.04 165.11 351.45 166.62 
M 350.54 183.36 346.48 180.6 
M 347.35 111.62 350.67 106.4 353.24 99.32 353.24 94.94 350.67 87.86 349.8 86.48 
M 345.84 92.19 349.01 91.32 
M 341.3 97.4 348.67 97.43 
M 340.14 100.36 348.22 102.76 
M 355.75 160.32 357.08 159.11 361.11 151.75 363.71 143.41 363.71 138.25 361.11 129.91 357.08 122.55 353.93 119.68 
M 365.09 173.5 364.04 170.48 359.93 163.76 356.72 161.14 
M 354.76 99.27 358.47 97.27 359.78 95.85 
M 359.59 138.32 363.37 135.72 368.21 129.07 371.34 121.54 371.34 116.88 368.21 109.35 363.37 102.69 359.59 100.1 
M 375.48 165.81 376.78 162.45 376.78 157.6 373.74 149.75 369.01 142.83 365.33 140.13 
M 370.22 113.96 373.8 108.78 
M 373.94 159.77 377.07 157.04 381.07 150.02 383.65 142.07 383.65 137.15 381.07 129.2 377.07 122.18 373.94 119.45 
M 379.56 162.88 376.73 160.24 
M 379.9 133.03 383.78 131.03 384.49 130.3 
M 376.22 115.7 380.21 114.96 
M 375.83 118.69 383.8 118.54 
M 376.44 121.44 384.49 122.63 
M 380.35 154.47 384.49 153.67 
M 380.09 157.09 384.49 157.26 
M 380.52 160.29 382.56 160.75 
M 218.79 87 218.79 87 
M 232.6 202.14 235.87 199.63 238.83 195.09 
M 235.55 206.36 230.49 201.04 227.55 199.5 
M 240.28 72.75 240.28 72.75 
M 237.37 196.59 240.35 196.2 
M 254.54 67.28 254.54 67.28 
M 260.11 65.74 260.11 65.74 
M 272.55 226.93 268.17 222.59 263.8 220.43 
M 281.34 63.36 281.34 63.36 
M 285.02 219.5 288.83 217.04 293.7 210.75 294.17 209.7 
M 293.16 227 289.24 222.64 285.27 220.44 
M 305.73 223.29 306.03 222.49 306.03 218.12 303.39 211.05 301.39 207.98 
M 293.48 216.44 301.35 215.13 
M 293.21 220.33 300.87 219.96 
M 305.08 218.1 308.43 215.86 313.24 209.4 316.13 202.59 
M 322.4 70.4 322.4 70.4 
M 324.48 212.93 323.24 209.39 319.24 202.87 317.79 201.69 
M 335.69 205.06 337.29 201.39 337.29 196.81 335.16 191.92 
M 322.98 198.86 331.55 199.41 
M 321.28 203.29 331.48 204.39 
M 339.3 79.43 339.3 79.43 
M 336.14 198.98 338.86 196.91 343.23 190.25 344.54 186.75 
M 345.6 83.48 345.6 83.48 
M 355.72 190.48 355.33 189.6 350.54 183.36 
M 342.39 195.5 350.92 194.36 
M 342.57 199.64 343.59 199.64 
M 366.69 180.55 366.69 178.09 365.09 173.5 
M 367.14 180.13 366.76 179.86 
M 373.8 108.78 373.8 108.78 
M 384.49 142.51 384 142.24 
M 382.56 160.75 384.49 161.18 
M 253.53 67.57 253.53 67.57 
M 257.37 66.5 259.73 45.62 261.93 43.78 263.59 41.42 266.43 40.23 269.72 39.63 274.05 36.18 276.34 34.58 278.54 34.17 284.04 36.31 286.7 35.45 291.22 32.19 294.5 31.58 297.81 31.78 300.45 31.51 305.05 30 307.99 30.85 312.08 34.4 315.15 34.81 318.29 34.47 320.65 33.34 325.75 34.29 328.06 34.07 330.06 32.99 332.72 33.71 335.52 38.95 338.01 42.35 343.88 48.31 345.63 50.41 347.52 53.5 347.71 55.46 348.84 58.53 348.35 61.63 348.3 65.42 347.17 69.37 341.41 80.69 
M 335.64 77.25 335.64 77.25 
M 258.11 66.3 259.41 64.96 260.14 62.35 260.43 59.18 260.33 56.54 259.69 54.62 259.42 48.9 260.7 47.57 
M 262.7 65.06 263.96 63.37 264.97 58.2 265.03 55.56 264.34 48.39 264.72 47.21 
M 267.3 63.88 268.45 62.09 269.77 56.73 273.88 46.6 
M 272.04 63.58 273.45 61.61 275.49 56.42 276.93 54.79 278.71 49.97 
M 276.79 63.42 278.52 61.74 279.96 59.03 280.8 57.08 281.94 53.54 
M 281.54 63.37 283.21 61.54 284.66 59.46 286.63 54.59 288.41 52.02 290.01 49.23 291.74 43.69 291.59 41.1 
M 286.29 63.41 288.35 61.91 291.35 56.76 292.6 53.82 295.27 49.18 295.37 47.57 296.91 43.19 297.73 39.95 299.62 35.75 
M 291.04 63.61 293.35 62 295.44 56.9 298.41 53.4 299.16 51.68 
M 295.79 63.87 297.83 62.45 299.18 60.13 301.2 55.71 303.68 52.55 305.5 49.89 306.72 46.68 
M 300.53 64.16 302.35 62.87 304 60.93 306.34 56.65 308.29 54.78 309.75 52.15 311.53 50.08 313.39 48.56 314.83 45.92 315.69 43.81 316.79 40.15 318.39 37.01 
M 305.19 65.08 307.12 64.32 308.53 62.62 309.85 60.06 313.89 55.61 316.62 53.29 318.53 50.18 319.79 47.43 
M 309.81 66.2 311.68 65.08 312.92 63.02 317.05 58.26 318.76 55.68 321.36 53.34 323.55 50.87 
M 314.4 67.43 316.84 66.02 318.71 63.34 320.75 61.88 321.93 60 324.09 58.48 326.06 56.16 328.06 52.81 
M 318.87 69.03 323.77 66.16 330.78 61.74 
M 323.27 70.82 325.89 70.43 327.76 69.36 329.83 67.41 332.2 66.13 335.86 65.03 338.45 62.98 
M 327.56 72.87 330.51 72.61 332.77 71.53 334.98 70.25 337.34 68.63 
M 331.76 75.1 335.1 75.23 337.01 74.84 339.09 73.34 
M 224.8 131.22 254.79 118.85 255.18 119.71 224.4 134.75 
M 224.29 135.75 290.74 114.54 291.04 115.44 224.1 139.25 
M 224.07 140.17 293.59 125.23 293.8 126.16 224.21 143.48 
M 224.34 144.43 300.29 135.66 300.41 136.6 224.82 147.66 
M 225.15 148.73 296.89 147.53 296.92 148.48 226.13 151.92 
M 226.5 153.2 301.78 159.23 301.72 160.18 227.01 156.44 
M 227.24 157.83 296.56 170.33 296.41 171.26 227.37 161.06 
M 227.37 162.46 286.56 179.35 286.32 180.27 227.38 165.7 
M 227.37 167.64 256.12 179.44 255.79 180.33 227.31 170.7 
M 251.66 121.43 258.92 121.62 266.1 121.24 269.64 120.73 273.15 120 276.63 119.07 283.54 116.84 
M 283.93 117.97 283.23 120.23 283.08 122.36 283.33 123.35 283.79 124.28 284.45 125.16 286.12 126.83 
M 286.39 128 286.66 130.59 287.41 132.86 288.05 133.82 288.88 134.65 289.87 135.37 292.17 136.59 
M 292.32 137.78 290.45 139.6 289.12 141.6 288.77 142.69 288.63 143.86 288.67 145.09 289.13 147.66 
M 289.17 148.86 289.03 151.52 289.13 152.77 289.41 153.94 289.89 155.02 291.46 156.91 293.55 158.57 
M 293.47 159.76 291.35 161.25 289.75 163 289.24 164.02 288.93 165.14 288.8 166.35 288.86 168.94 
M 288.67 170.12 285.93 170.81 283.57 171.94 282.59 172.75 281.76 173.74 281.05 174.88 279.88 177.44 
M 279.57 178.6 273.58 177.23 267.58 176.44 264.58 176.37 261.56 176.52 258.55 176.87 252.5 177.95 
M 255.3 121.56 262.52 121.53 266.1 121.24 269.64 120.73 273.15 120 280.09 117.99 
M 283.54 119.11 283.06 121.32 283.08 122.36 283.33 123.35 283.79 124.28 285.25 126.01 
M 261.06 126.78 260.75 128.22 260.92 129.54 261.23 130.14 262.17 131.27 
M 286.49 129.32 286.95 131.78 287.41 132.86 288.05 133.82 288.88 134.65 290.99 136 
M 262.98 134.75 263.28 136.35 263.99 137.68 264.53 138.21 265.9 139.09 
M 291.35 138.68 289.69 140.57 289.12 141.6 288.77 142.69 288.63 143.86 288.86 146.36 
M 266.14 142.16 265.06 143.39 264.69 144.06 264.37 145.53 264.52 147.16 
M 289.06 150.2 289.13 152.77 289.41 153.94 289.89 155.02 290.59 156.01 292.47 157.76 
M 264.65 150.99 264.69 152.66 264.87 153.42 265.64 154.76 266.86 155.9 
M 292.38 160.49 290.46 162.08 289.75 163 289.24 164.02 288.93 165.14 288.79 167.63 
M 266.8 159 265.56 160.04 265.1 160.64 264.56 162.03 264.48 163.64 
M 287.28 170.44 284.69 171.3 283.57 171.94 282.59 172.75 281.76 173.74 280.44 176.13 
M 263.49 166.8 261.81 167.36 261.08 167.77 259.9 168.94 259.05 170.5 
M 276.58 177.88 270.59 176.74 267.58 176.44 264.58 176.37 261.56 176.52 255.52 177.37 
M 267.21 234.08 269.86 239.89 271.26 243.57 273.19 247.11 276.12 251.64 280.97 276.16 278.33 277.36 275.36 278.32 272.89 279.83 270.25 280 264.9 278.11 262.73 277.86 260.17 277.22 256.86 275.82 250.96 273.86 248.2 274.67 245.89 275.93 244.31 277.92 242.08 279.27 239 272.93 237.33 269.17 236.29 266.06 235.16 263.41 233.6 260.34 233.01 258.24 231.85 255.56 231.39 253.69 234.9 221.28 234.54 215.11 233 210.72 
M 263.05 231.8 264.82 235.29 267.11 242.29 268.6 244.68 269.77 248.4 271.28 252.22 271.77 255.26 271.72 257.24 271.34 259.11 273.73 262.04 274.89 265.43 275.66 268.65 276.76 271.29 
M 258.85 229.57 260.79 233.02 261.72 235.96 262.85 238.86 263.65 241.94 264.1 245.17 266.01 251.48 267.56 259.05 268.49 261.53 269.51 263.25 270.33 265.97 270.72 269.09 271.53 271.98 
M 254.61 227.44 256.04 230.88 257.09 234.29 258.35 237.39 259.76 239.97 260.15 245.57 260.57 249.07 261.32 251.85 263.41 255.44 264.87 262.76 
M 250.37 225.28 252.61 232.05 253.15 235.22 254.98 242.01 256.14 244.3 256.43 249.78 257.28 253.36 
M 246.21 222.99 248.05 230.19 248.13 233.12 248.69 236.34 249.39 245.84 250.15 248.59 
M 242.59 219.9 243.21 223.66 243.39 230.87 244.07 238.41 243.92 241.79 242.77 244.97 242.74 248.25 241.42 257.09 242.16 259.81 241.49 263.58 241.51 266.28 242.72 269.32 242.08 271.82 240.87 274.85 
M 239.04 216.75 239.55 220.56 239.82 223.89 239.64 227.43 240.15 236.18 239.87 242.85 239.2 245.19 238.7 247.83 237.58 250.8 237.11 253.84 
M 235.68 213.39 236.12 217 236.15 220.06 235.65 223.11 235.67 225.94 235.93 229.47 235.47 232.79 234.47 236.9 234.56 239.33 235.14 242.29 234.13 244.82 
M 369.86 181.38 375.9 184.28 380.36 186.73 382.72 189.54 380.47 192.58 379.01 195.11 377.2 197.29 373.25 201.37 371.98 204.01 370.18 206.07 367.62 207.35 366.74 210.25 362.49 213.91 359.15 218.57 357.65 220.93 356.71 223.44 357.1 226.41 356.46 228.97 356.1 231.99 355.13 234.62 354.82 237.55 355.37 241.1 356.17 244.49 354.43 251.21 350.69 250.17 348.47 248.44 346.09 245.74 342.98 243.96 339.52 242.67 335.15 239.34 333.07 239.08 330.74 238.27 327.64 236.36 324.56 233.82 321.2 231.55 315.11 227.07 
M 366.56 184.8 371.75 188.06 376.54 190.54 
M 363.26 188.22 367.95 191.28 
M 359.89 191.57 364.42 194.77 367.7 196.24 
M 356.51 194.92 360.88 198.79 365.12 201.39 368.51 202.32 
M 353 198.12 357.58 202.2 361.2 204.25 365.03 206.69 
M 349.47 201.3 356.03 206.58 
M 345.71 204.2 356.17 209.98 
M 341.93 207.09 347.21 209.86 353.54 213.83 
M 338.14 209.95 343.05 212.58 346.21 214.93 349.08 215.55 351.11 217.57 354.18 218.78 
M 334.36 212.84 338.98 215.5 341.74 217.76 344.93 219.39 347.61 220.05 350.7 221.2 
M 330.64 215.78 335.41 218.56 344.13 223.98 347.26 225.24 350.94 226.18 353.47 228.79 
M 326.85 218.66 331.43 221.25 341.03 228.2 343.55 229.39 346.1 230.3 351.69 233.55 
M 323.01 221.45 330.78 226.34 336.18 231.07 338.66 232.82 
M 319.14 224.21 326.28 229.2 329.72 231.4 332.35 233.52 335.1 235.41 337.54 235.9 341.47 238.73 345.28 238.99 347.57 240.4 350.95 243.12 353.5 244.01 
M 383.54 118.28 387.07 117.25 394.78 112.38 399.16 110.37 403.91 106.88 412.38 103.17 415.56 101.18 418.32 100.07 419.96 97.85 421.35 96.42 422.94 95.18 426.34 94.67 430.55 93.63 432.39 91.76 434.64 88.21 438.98 86.18 441.72 84.35 447.64 79.85 449.87 79.1 451.57 79.83 435.43 95.17 434.52 97.81 433.3 100.15 430.34 104.28 430.04 107.48 430 110.96 428.26 113.15 426.8 115.63 425.66 118.43 426.45 122.23 428.22 126.18 427.13 128.32 426.48 131.15 425.19 133.09 425.57 136.61 425.56 139.57 424.69 145.8 423.65 147.94 424.06 150.99 425.01 153.81 425.25 155.51 424.72 157.76 422.95 159.18 423.59 162.19 424.8 165.58 423.88 170.53 424.54 173.26 426.42 176.07 429.17 184.23 433.13 190.66 433.82 192.53 437.92 198.67 451.15 214.96 448.42 213.92 445.81 213.52 444.19 211.17 439.05 206.15 435.8 203.68 433.2 202.1 431.09 200.31 425.69 198.76 422.87 197.09 418.13 194.61 416.68 192.37 415.07 190.4 412.49 188.28 406.44 184.38 401.85 180.87 399.25 179.36 397.18 177.87 395.19 175.62 392.88 173.35 390.13 171.37 383.54 167.42 
M 389.95 118.73 397.88 114.21 403.6 112.6 406.72 111.29 408.32 110.35 410.52 109.55 412.96 108.32 415.04 106.5 418.21 104.57 420.78 102.78 423.49 101.68 427.21 98.73 
M 387.47 122.99 394.96 119.31 404.11 115.84 407.33 115.16 412 113.11 414 113.44 
M 383.54 125.65 387.75 125.54 392.38 123.53 395.18 122.63 398.44 121.25 402.54 120.19 408.57 118.93 411.54 119.19 414.16 119.05 418.87 117.55 424.11 113.25 
M 387.47 128.4 390.44 127.76 392.61 126.57 395.2 125.93 398.98 124.64 403.04 123.88 406.54 122.98 
M 393.1 130.12 395.59 128.89 403.77 127.33 406.57 126.12 409.97 126.51 412.98 126.55 
M 387.05 134.02 389.96 133.42 393.1 133.44 399.63 132.4 403.35 132.41 407.29 132.12 410.25 130.45 412.69 130.79 
M 393.34 136.46 396.68 136.11 406.51 135.7 409.76 135.23 413.39 134.43 416.92 134.1 
M 383.54 137.94 387.4 139.12 397.18 139.65 409.95 139.14 413.36 138.29 
M 394.27 142.07 397.32 141.75 400.01 142.24 
M 383.54 142.85 387.67 144.48 390.77 144.94 393.97 144.42 399.88 144.71 402.53 145.95 405.31 146.28 413.18 147.77 417.4 148.19 419.95 148.01 
M 383.54 145.31 387.93 146.93 394.12 147.13 397.09 147.51 400.34 148.37 403.21 149.43 406.09 150.88 416.98 151.79 420.01 151.66 
M 390.83 149.55 393.65 149.81 403.99 153.37 411.39 154.51 415.32 154.53 
M 387.14 151.5 396.65 154.06 399.04 155.61 403.48 156.72 407.66 157 415.03 158.22 420.41 160.18 
M 387.21 154.25 393.13 156.59 396.4 157.6 399.41 159.37 403.5 160.34 407.93 160.19 410.74 161.54 
M 383.54 155.14 392.8 159.61 396.14 161.48 399.09 162.9 402.97 164.02 
M 386.98 159.62 392.96 163.26 395.89 164.82 399.07 166.12 402.47 167.23 408.73 168.95 411.87 169.4 414.89 171.51 
M 390.19 164.56 395.97 167.89 398.72 168.85 401.86 169.57 405.54 170.97 408.5 171.63 410.65 172.98 412.81 174.59 419.35 177.68 
M 389.88 166.87 393.02 168.8 396.27 170.39 399.51 171.6 404.62 173.86 407.46 174.94 412.71 179.02 
M 386.86 167.38 396.19 172.34 401.42 176.01 406.46 178.99 408.14 181.64 411.27 183.52 414.97 185.14 417.53 187.62 419.89 188.95 421.94 191.36 423.05 192.12 424.24 193.57 428.37 195.6 432.29 197.03 436.29 197.75 
M 340.32 79.16 343.4 81.27 345.23 81.73 349 81.44 350.89 82.21 351.58 87.89 354.17 90.37 356.06 91.35 360.18 92.18 361.54 93.57 362.01 97.16 362.97 98.77 365.95 101.32 369.28 101.68 370.77 102.36 372.1 106.24 373.11 107.98 376.7 111.44 
M 86.42 153.45 89.69 150.02 93.24 147.19 98.34 143.41 105.24 138.7 113.16 134.05 141.04 119.51 152.12 113.47 162.4 108.84 189.25 98.76 197.34 96.26 204.26 94.4 212.47 92.71 216.14 98.01 221.93 114.34 223.56 119.8 224.42 125.32 224.84 130.86 224.21 136.47 224 142.05 224.79 147.57 226.47 153.03 227.35 158.54 227.36 169.68 227.1 175.26 226.42 180.87 225.3 186.52 223.42 192.21 219.33 198.09 201.93 198.03 188.8 197.74 176.9 196.92 166.23 195.83 156.33 194.47 146.88 192.8 137.83 190.5 130.01 188.74 122.4 186 115.27 182.13 
M 113.69 181.21 109.27 178.63 104.05 174.87 99.6 170.9 94.05 165.39 
M 191.81 130.62 190.96 135.51 189.89 140.28 189.23 144.81 189.17 149 188.6 152.8 187.88 156.17 187.79 159.31 188.34 162.36 189.25 165.43 191.88 172.25 191.44 176.79 179.9 177.3 171.1 177.96 154.38 178.52 146.3 178.3 138.29 177.47 130.5 175.66 
M 114.09 181.55 104.16 173.32 94.64 165.83 88.98 161.51 85.14 158.84 83.47 157.19 83.52 154.82 85.33 153.24 87.61 153.67 94.46 159.97 99.47 165.12 108.08 173.47 115.65 181.66 
M 112.78 182.79 108.43 183.38 97.26 184.36 
M 96.5 184.43 77.13 186.67 72.32 187.36 69.97 187.25 68.42 185.4 68.86 183.12 70.96 181.94 80.66 181.55 96.65 181.48 
M 97.19 181.47 107.21 181.7 113.96 181.55 
M 114.71 181.54 115.32 181.53 
M 143.52 156.15 141.66 149.1 142.19 141.83 145.05 135.12 149.94 129.71 156.31 126.17 163.5 124.9 170.7 126.03 177.15 129.44 182.14 134.75 185.14 141.4 185.81 148.66 184.09 155.75 180.16 161.9 174.45 166.43 167.58 168.87 160.29 168.94 153.37 166.64 147.57 162.22 143.52 156.15 
M 143.25 155.53 142.36 152.93 141.79 150.25 141.57 147.51 141.68 144.77 142.13 142.06 142.91 139.43 144.02 136.91 145.42 134.56 147.11 132.39 149.05 130.45 151.22 128.76 153.58 127.36 156.09 126.25 158.72 125.47 161.43 125.02 164.17 124.9 166.91 125.13 169.6 125.69 172.19 126.59 
M 145 154.8 144.19 152.43 143.67 149.97 143.47 147.47 143.57 144.96 144.14 141.95 
M 144.53 140.64 145.71 137.78 146.99 135.63 147.99 134.35 
M 149.51 132.67 152.29 130.33 154.45 129.05 156.74 128.04 159.15 127.32 161.63 126.91 164.13 126.8 166.64 127.01 169.09 127.53 171.47 128.34 
M 146.76 154.08 146.02 151.93 145.55 149.7 145.37 147.43 145.46 145.16 145.97 142.47 
M 150.89 133.97 153.36 131.9 155.32 130.74 157.4 129.82 159.58 129.17 161.82 128.8 164.1 128.7 166.36 128.89 168.59 129.36 170.74 130.1 
M 148.52 153.35 147.85 151.42 147.44 149.43 147.27 147.39 147.35 145.36 147.72 143.24 
M 152.28 135.27 154.43 133.47 156.19 132.43 158.05 131.61 160.01 131.02 162.02 130.69 164.06 130.6 166.09 130.77 168.08 131.19 170.01 131.85 
M 150.27 152.62 149.69 150.92 149.32 149.15 149.17 147.35 149.46 144.23 
M 153.67 136.56 155.51 135.04 157.06 134.12 158.71 133.39 160.44 132.88 162.21 132.58 164.02 132.51 165.81 132.65 167.58 133.02 169.28 133.61 
M 152.03 151.89 151.2 148.88 151.07 147.31 151.33 144.54 
M 154.92 137.99 156.58 136.61 157.93 135.81 160.86 134.73 162.41 134.47 165.54 134.53 168.56 135.37 
M 155.64 150.69 154.89 147.87 155.11 144.95 
M 157.45 140.95 158.2 140.11 160.76 138.7 163.63 138.19 166.51 138.64 169.09 140.01 171.09 142.13 172.28 144.79 172.55 147.7 171.87 150.53 170.29 152.99 168.01 154.8 165.26 155.78 162.34 155.81 159.58 154.89 157.26 153.12 155.64 150.69 
M 159.19 139.57 158.07 141.81 
M 156.29 145.37 154.94 148.07 
M 161.08 138.64 158.92 142.96 
M 157.5 145.8 155.44 149.93 
M 162.65 138.37 159.86 143.93 
M 158.69 146.27 156.12 151.42 
M 164.12 138.27 160.85 144.81 
M 159.88 146.74 156.93 152.64 
M 165.44 138.48 161.85 145.65 
M 161.24 146.88 157.88 153.6 
M 166.73 138.76 162.88 146.45 
M 162.63 146.95 158.91 154.38 
M 167.85 139.35 160.01 155.03 
M 168.98 139.95 161.24 155.44 
M 169.93 140.9 162.48 155.81 
M 170.86 141.89 163.91 155.79 
M 171.6 143.27 165.36 155.74 
M 172.27 144.77 167.09 155.13 
M 172.5 147.16 169.12 153.92 
M 89.1 150.61 92.85 154.37 
M 92.2 148.02 97.04 152.85 
M 95.44 145.55 98.57 148.68 
M 98.73 143.14 102.77 147.18 
M 102.12 140.82 105.31 144.01 
M 105.53 138.53 109.78 142.78 
M 109.12 136.42 112.95 140.25 
M 112.71 134.31 118.25 139.85 
M 116.46 132.36 120.92 136.81 
M 120.23 130.43 125.77 135.97 
M 123.98 128.47 129.08 133.57 
M 127.69 126.48 132.36 131.15 
M 131.41 124.5 136.95 130.04 
M 135.17 122.55 139.25 126.63 
M 138.93 120.61 144.51 126.2 
M 142.65 118.63 146.91 122.89 
M 146.34 116.62 151.69 121.97 
M 150.03 114.61 152.91 117.49 
M 153.83 112.7 159.09 117.96 
M 157.76 110.93 163 116.17 
M 161.69 109.16 165.04 112.51 
M 165.79 107.55 169.57 111.34 
M 169.92 105.99 174.72 110.79 
M 174.07 104.43 179.33 109.69 
M 178.22 102.88 183.55 108.21 
M 182.37 101.33 185.88 104.84 
M 186.52 99.78 191.28 104.53 
M 190.75 98.3 194.86 102.41 
M 195.1 96.96 200.36 102.21 
M 199.53 95.68 204.38 100.53 
M 204.02 94.47 208.71 99.16 
M 208.67 93.42 213.8 98.55 
M 139.31 158.65 136.08 157.9 134.33 157.27 132.69 156.19 130.52 154.12 129.73 153.62 126.78 152.97 
M 200.78 162.04 202.05 161.37 202.56 160.93 203.22 160 203.26 159.48 202.57 157.6 
M 139.34 134.59 138.79 132.53 138.84 131.76 139.21 131.24 140.7 130.02 142.18 128 
M 154.27 190.16 153.45 188.36 153.33 187.52 153.44 186.08 154.21 184.66 
M 208.45 137.07 207.15 136.09 200.64 132.87 199.97 132.46 199.33 131.53 
M 200.18 116.37 199.64 117.15 198.14 117.93 
M 132.72 150.6 132.02 149.94 128.24 148.46 127.45 147.94 125.94 146.65 124.36 145.74 123.03 143.81 
M 181.81 101.77 181.71 101.58 
M 204.83 195.91 205.38 196.46 207.18 197.52 207.76 198.05 
M 122.32 159.81 121.16 159.98 120.16 160.54 118.34 163.58 116.89 164.57 
M 117.91 135.96 117.16 134.32 116.5 132.34 
M 93.39 147.15 95.1 146.59 96.64 145.24 99.58 143.26 101.51 142.48 102.82 142.47 
M 208.29 163.12 208.34 163.6 208.1 163.96 
M 120.97 133.87 120.72 131.58 120.24 130.42 
M 223.33 169.8 221.08 167.34 219.78 166.49 218.94 166.21 217.59 166.07 216.25 166.19 
M 213.93 156.68 210.66 156.21 209.07 155.57 207.21 153.34 206.32 151.66 
M 186.44 143.33 186.3 144.73 185.87 145.71 185.56 145.95 
M 105.49 174.42 102.24 173.25 
M 219.17 175.94 214.37 175.02 211.31 175.14 210.93 174.92 
M 176.29 120.44 174.28 120.15 172.88 119.41 
M 146.67 176.3 144.74 175.43 144 174.86 141.59 172.76 137.32 168.66 136.29 167.95 135.33 167.54 133.55 167.23 
M 197.16 138.27 196.93 137.09 196.99 136.6 198.68 133.04 198.85 132.58 198.81 131.75 
M 106.38 146.87 106.12 148.65 106.37 149.15 107.38 149.88 109.38 150.57 110.35 151.02 111.03 151.55 111.96 152.73 112.62 154.15 113.29 155.16 
M 135.11 151.1 134.08 149.5 133.13 148.64 131.47 148.03 129.74 147.69 128.39 147.13 126.95 146.09 125.18 145.18 
M 192.59 178.52 193.19 180.36 194.25 181.6 
M 109.44 151.39 110.36 151.76 111.07 152.23 111.59 152.81 112.38 154.17 114.47 157.03 114.93 158.1 115.19 159.21 
M 107.13 155.44 111.54 157.67 112.68 158.46 113.5 159.68 113.65 160.51 
M 176.58 113.18 176.22 113.33 175.8 113.82 175.39 114.98 
M 131.75 183.77 131 183.39 130.39 182.67 129.37 178.66 128.36 176.99 
M 121.49 137.98 121.84 137.01 121.67 136.09 
M 175.87 115.75 174.82 115.28 174.42 115.26 173.37 116.18 
M 223.58 149.41 223.22 147.66 223.24 146.83 223.48 146.08 224.44 145.1 
M 140.26 129.12 143.25 125.02 144.95 123.61 145.71 122.57 146.18 122.38 
M 140.14 190.03 142.72 188.68 143.54 187.58 143.6 185.9 143.32 185.07 142.53 184.64 141.76 184.54 
M 218.07 177.93 216.02 177.46 213.35 176.17 211.92 175.78 211.23 175.4 210.87 174.88 
M 117.98 168.29 117.19 167.51 114.42 165.62 113.14 165.18 111.52 165.05 
M 130.13 146.27 128.66 146.23 124.68 144.45 123.12 142.99 121.89 141.47 
M 182.8 105.6 180.41 102.8 179.6 102.37 
M 211.47 132.26 211.37 130.29 211.74 128.31 213.63 126.25 214.22 126.1 215.01 126.18 
M 217.79 119.82 219.53 118.63 220.13 117.36 220.99 116.71 
M 181.25 195.86 177.76 195.76 176.62 195.42 176.42 195.2 176.16 193.53 175.41 191.25 175.24 189.8 
M 101.92 149.23 101.44 148.67 100.97 147.61 101.05 146.38 101.64 145.5 102.15 145.17 102.85 144.92 103.15 145.13 
M 178.94 163.08 178.89 162.91 
M 122.65 182.05 121.39 181.28 120.97 180.76 119.96 178.64 118.5 174.83 117.48 173.03 
M 213.53 100.86 214.93 99.02 216.26 98.34 
M 173.06 193.88 172.89 193.21 172.86 191.88 173.63 188.75 173.11 185.92 173.11 184.47 
M 116.17 173.86 114.59 171.95 112.72 170.58 104.93 167.62 
M 218.75 142.91 224.03 141.32 
M 162.71 173.14 161.72 171.91 161.13 168.93 
M 185.63 157.84 182.49 158.25 
M 130.64 142.95 129.05 142.81 126.88 144.02 125.72 144 
M 183.06 123.81 183.68 123.54 185.39 123.24 186.16 122.9 187.44 121.03 187.83 119.24 
M 109.26 171.46 107.32 170.24 104.18 168.96 103.25 168.22 102.93 167.81 102.74 166.93 103.3 165.7 
M 138.39 149.3 136.85 146.91 135.74 145.63 134.75 145.09 133.79 144.84 
M 125.6 177.83 123.66 176.17 120.36 172.32 117.54 168.16 114.65 165.84 
M 201.42 106.94 202.64 107.33 205.09 107.27 206.64 107.49 207.36 107.24 
M 112.67 148.73 113.61 149.28 113.91 149.75 113.82 152.56 
M 118.01 140.3 118.72 138.83 119.21 136.92 118.97 135.25 117.82 131.66 
M 188.26 118.54 186.35 116.25 186.25 115.22 186.36 113.6 
M 108.74 149.38 110.5 150.55 111.6 151.79 112.92 154.47 114.49 156.66 115.02 157.73 
M 216.29 197.9 216.78 198.08 
M 213.64 95.53 213.88 94.75 
M 126.44 142.65 125.86 142.66 125.45 142.44 123.82 141.08 123.02 139.65 123.13 138.78 
M 210.6 122.75 210.92 123.35 211.29 124.75 211.56 125.01 212.63 125.39 
M 215.04 106.9 215.29 105.08 215.83 103.84 216.45 102.77 217.51 101.87 
M 184.8 189.05 181.17 188.62 180.28 188.15 179.18 187.14 178.94 186.46 179.04 184.69 179.63 182.65 180.33 179.03 
M 116.34 183.17 108.82 189.86 106.41 191.63 105 192.35 103.42 192.76 101.79 192.76 100.22 192.33 98.84 191.49 97.75 190.34 96.98 188.97 96.6 187.48 96.49 186 96.64 181.68 96.94 178.82 97.68 176.05 98.98 173.51 97.79 176.09 97.27 178.87 97.18 181.7 97.36 185.93 97.56 187.29 97.98 188.53 98.69 189.59 99.63 190.44 100.74 191 101.94 191.24 103.16 191.14 104.32 190.74 105.39 190.06 108.43 187.31 114.32 181.16 
M 115.28 182.12 116.04 182.8 
M 110.95 179.06 111.07 179.8 111.62 179.62 
M 107.06 175.72 106.78 176.56 106.82 177.44 107.21 176.94 108.05 176.55 
M 103.21 172.6 102.61 173.86 102.56 175.07 103.04 174.24 104.31 173.44 
M 99.34 169.56 98.44 171.15 98.3 172.71 98.87 171.53 100.42 170.41 
M 95.47 166.52 94.27 168.44 94.05 170.35 94.7 168.82 96.53 167.38 
M 91.59 163.49 90.1 165.74 89.79 167.98 90.53 166.12 92.65 164.34 
M 87.64 160.57 85.93 163.03 85.53 165.62 86.36 163.41 88.74 161.34 
M 83.78 157.5 81.77 160.33 81.27 163.25 82.19 160.71 84.72 158.43 
M 115.37 182.16 116.28 182.11 
M 110.35 181.63 110.57 181.47 110.66 181.62 
M 105.15 181.65 105.81 180.78 105.84 181.34 106.02 181.67 
M 100.24 181.5 100.38 180.97 101.05 180.09 100.95 180.94 101.18 181.53 
M 95.31 181.5 95.49 180.57 96.29 179.4 96.06 180.53 96.35 181.48 
M 90.41 181.53 90.6 180.16 91.52 178.71 91.17 180.13 91.52 181.52 
M 85.51 181.6 85.71 179.76 86.76 178.02 86.28 179.73 86.69 181.58 
M 80.63 181.55 80.82 179.35 82 177.33 81.39 179.32 81.83 181.56 
M 75.74 181.73 75.93 178.95 77.24 176.64 76.5 178.92 76.99 181.68 
M 70.85 182 71.04 178.55 72.48 175.95 71.61 178.51 72.17 181.88 
M 78.6 186.5 86.59 188.52 94.11 190.1 98.01 190.62 
M 100.69 190.98 102.82 191.17 
M 106.73 191.41 115.93 191.53 123.21 191.32 137.83 190.5 
M 89.79 188.81 90.9 186.32 
M 100.87 190.94 100.9 191 
M 102.26 191.13 105.43 189.01 
M 216.92 100.19 221.37 104.64 
M 214.86 90.53 224.19 99.86 
M 218.86 86.93 227.99 96.05 
M 223.12 83.59 231.95 92.41 
M 227.49 80.35 234.83 87.69 
M 232.04 77.3 240.94 86.2 
M 236.89 74.55 245.6 83.25 
M 241.94 71.99 249.94 79.99 
M 247.19 69.64 256.97 79.42 
M 252.92 67.77 262.55 77.4 
M 258.85 66.09 269.94 77.18 
M 264.86 64.5 275.28 74.92 
M 271.57 63.61 280.43 72.47 
M 278.95 63.39 288.44 72.88 
M 286.58 63.41 293.91 70.74 
M 294.57 63.8 305.95 75.19 
M 302.93 64.56 310.21 71.83 
M 313.05 67.07 323.94 77.97 
M 325.44 71.86 331.22 77.64 
M 342.57 81.39 352.24 91.06 
M 271.74 62.93 272.06 63.58 
M 273.04 56.99 276.26 63.43 
M 273.4 49.16 280.51 63.38 
M 274.14 42.07 284.8 63.4 
M 275.1 35.45 289.14 63.53 
M 278.79 34.27 293.53 63.75 
M 284.08 36.29 294.7 57.54 
M 287.6 34.79 294.83 49.24 
M 290.75 32.53 295.42 41.88 
M 294.55 31.58 294.98 32.43 
M 320.11 65.6 322.58 70.54 
M 318.32 53.47 328.2 73.21 
M 318.66 45.59 334.05 76.37 
M 318.7 37.11 340.95 81.61 
M 321.13 33.41 343.1 77.37 
M 325.84 34.28 345.26 73.13 
M 329.59 33.24 346.97 68 
M 338.85 43.21 346.93 59.36 
M 228.98 292.89 228.86 292.3 228.44 291.7 227.93 291.39 226.73 291.39 226.04 291.7 225.26 292.3 224.78 292.89 224.21 293.8 223.76 295.3 223.91 296.8 224.33 297.39 224.83 297.7 226.04 297.7 226.73 297.39 227.51 296.8 227.99 296.2 
M 231.83 291.39 230.3 296.5 230.33 297.39 230.83 297.7 231.44 297.7 
M 230.3 293.5 232.4 293.5 
M 233.66 295.3 237.26 295.3 237.44 294.7 237.32 294.1 236.6 293.5 235.7 293.5 235.01 293.8 234.23 294.39 233.66 295.3 233.48 295.89 233.51 296.8 233.93 297.39 234.44 297.7 235.33 297.7 236.03 297.39 236.81 296.8 
M 239.9 293.5 238.64 297.7 
M 239.54 294.7 240.71 293.8 241.4 293.5 242.3 293.5 242.81 293.8 242.83 294.7 241.94 297.7 
M 242.83 294.7 244.01 293.8 244.7 293.5 245.6 293.5 246.11 293.8 246.14 294.7 245.24 297.7 
M 252.2 293.5 250.94 297.7 
M 251.93 294.39 251.51 293.8 251 293.5 250.1 293.5 249.41 293.8 248.63 294.39 248.06 295.3 247.88 295.89 247.91 296.8 248.33 297.39 248.83 297.7 249.74 297.7 250.43 297.39 251.21 296.8 
M 254.6 293.5 253.33 297.7 
M 254.24 294.7 255.41 293.8 256.1 293.5 257 293.5 257.51 293.8 257.53 294.7 256.64 297.7 
M 260.63 291.39 260.83 291.7 261.23 291.39 261.02 291.1 260.63 291.39 
M 260.3 293.5 259.03 297.7 
M 266 293.5 264.74 297.7 
M 265.73 294.39 265.3 293.8 264.8 293.5 263.89 293.5 263.21 293.8 262.43 294.39 261.86 295.3 261.68 295.89 261.71 296.8 262.13 297.39 262.64 297.7 263.53 297.7 264.23 297.39 265.01 296.8 
M 271.39 293.5 270.14 297.7 
M 270.86 295.3 271.43 294.39 272.2 293.8 272.89 293.5 273.8 293.5 
M 275.3 293.5 274.39 296.5 274.43 297.39 274.94 297.7 275.83 297.7 276.52 297.39 277.7 296.5 
M 278.59 293.5 277.33 297.7 
M 281 293.5 279.74 297.7 
M 280.45 295.3 281.02 294.39 281.81 293.8 282.5 293.5 283.39 293.5 
M 284.89 293.5 284 296.5 284.02 297.39 284.53 297.7 285.44 297.7 286.13 297.39 287.29 296.5 
M 288.2 293.5 286.94 297.7 
M 293.33 294.39 293.2 293.8 292.39 293.5 291.5 293.5 290.51 293.8 290.02 294.39 290.14 295 290.65 295.3 292.07 295.6 292.58 295.89 292.61 296.8 292.13 297.39 291.14 297.7 290.24 297.7 289.42 297.39 289.31 296.8 
M 294.91 297.1 294.52 297.39 294.74 297.7 295.13 297.39 294.91 297.1 
"/></svg>
