<svg xmlns="http://www.w3.org/2000/svg" width="520" height="320"><rect x="0" y="0" width="520" height="320" fill="floralwhite"/><rect x="10" y="10" width="500" height="300" stroke="black" stroke-width="1" fill="none"/><path stroke="black" stroke-width="1" fill="none" stroke-linecap="round" stroke-linejoin="round" d="
M 121.56 94.34 132.17 94.98 164.11 95.94 217.34 99.13 249.28 100.67 302.51 101.98 313.16 102.6 366.39 107.28 377.04 108.41 387.68 109.87 388.59 110.22 
M 388.59 141.29 387.68 141.58 377.04 142.78 355.74 144.79 340.51 145.94 
M 144.32 158.8 142.81 158.94 132.14 158.88 
M 388.59 120.91 381 119.94 355.29 117.49 332.75 115.72 
M 329.25 115.41 324.04 114.79 314.02 113.24 307.35 112.55 297.12 112.22 280.9 112.15 
M 277.07 112.27 267.14 112.99 251.28 114.99 243.76 115.41 238.09 115.23 
M 234.33 115.06 230.62 114.89 
M 226.96 114.75 216.2 114.91 
M 212.65 115.03 209.11 115.11 
M 205.55 115.11 198.52 114.9 
M 195.13 114.87 188.58 114.98 
M 182.2 115.44 179.08 115.72 
M 169.87 116.3 163.23 116.45 
M 148.37 116.71 140.49 116.6 
M 136.52 116.38 132.57 116.05 
M 133.93 152.33 134.68 152.98 
M 134.29 139.49 136.6 142.37 
M 133.21 130.02 136.6 134.73 
M 134.83 123.86 136.6 126.47 
M 129.75 107.6 140.8 124.02 
M 124.11 94.5 127.69 97.86 130.03 100.51 132.38 103.49 137.39 110.5 146.79 124.14 
M 129.84 94.84 133.2 97.99 135.64 100.7 138.08 103.72 141.95 108.93 
M 144.66 112.74 147.45 116.7 
M 150.24 120.68 152.72 124.26 
M 135.44 95.06 138.74 98.14 141.26 100.89 143.78 103.94 149.11 111.03 158.48 124.37 
M 140.92 95.2 144.29 98.33 146.85 101.1 149.41 104.18 157.58 115.12 163.95 124.47 
M 146.35 95.34 149.82 98.56 152.37 101.32 157.6 107.83 161.68 113.4 
M 166.87 121.08 169.04 124.57 
M 151.7 95.48 155.3 98.83 157.81 101.57 162.99 108.07 168.18 115.47 173.79 124.66 
M 157.01 95.66 160.69 99.11 163.15 101.85 168.19 108.36 172.96 115.48 178.53 124.76 
M 162.25 95.87 165.97 99.45 170.82 105.36 175.5 112.04 183.6 124.85 
M 167.34 96.14 171.11 99.94 175.86 105.77 180.27 112.01 188.7 124.95 
M 172.17 96.42 176.17 100.47 178.51 103.17 183.04 108.91 187.12 114.77 193.73 125.05 
M 176.86 96.7 181.18 100.89 183.51 103.4 187.99 108.81 192.03 114.6 197.28 122.81 
M 181.64 96.98 186.24 101.12 188.57 103.53 193.07 108.78 195.13 111.58 202.54 122.8 
M 186.68 97.27 190.24 100.27 
M 192.59 102.51 196.09 106.17 198.3 108.79 200.37 111.57 205.62 119.32 
M 191.93 97.56 194.37 99.47 199.09 103.8 201.44 106.22 204.73 110.18 
M 208.89 115.94 216.44 125.49 
M 197.44 97.89 202.15 101.68 206.86 106.22 216.86 118.53 
M 219.52 121.77 222.43 125.61 
M 203.23 98.27 207.58 101.67 209.8 103.74 211.93 105.96 222.43 118.13 
M 225.06 121.51 227.95 125.72 
M 209.22 98.65 210.55 99.61 213.69 102.34 
M 215.73 104.39 223.83 113.21 227.87 118.01 
M 233.06 125.5 233.26 125.82 
M 215.32 99.01 219.58 102.72 226.62 110.09 230.69 114.73 
M 233.4 118.24 236.02 122.05 
M 221.5 99.32 224.78 102.16 227.13 104.48 232.26 109.94 234.98 113.14 237.71 116.72 243.9 126.02 
M 228.12 99.63 230.46 101.69 232.88 104.1 238.05 109.86 240.75 113.28 243.42 117.01 249.45 126.13 
M 234.92 99.97 238.8 103.74 243.89 109.76 246.5 113.29 255.43 126.23 
M 241.78 100.31 244.74 103.37 248.42 107.91 
M 250.94 111.29 261.36 125.59 
M 248.48 100.63 252.97 105.94 262.24 117.7 
M 264.9 121.21 266.2 123.01 268.34 126.5 
M 254.85 100.83 260.17 107.15 
M 262.84 110.34 267.01 115.26 269.74 118.73 271 120.62 
M 273.38 124.59 274.47 126.62 
M 261.3 101 273.09 114.76 275.73 118.41 278.1 122.41 280.2 126.73 
M 267.78 101.15 276.31 111.08 278.98 114.59 281.44 118.42 283.63 122.56 285.62 126.83 
M 274.28 101.32 279.51 107.55 282.13 110.95 284.61 114.64 285.74 116.63 
M 287.9 120.72 290.87 126.94 
M 280.67 101.48 285.32 107.43 287.75 110.99 290.02 114.8 292.14 118.83 296.12 127.04 
M 286.8 101.59 290.95 107.41 293.19 111.06 298.4 121 
M 292.65 101.69 296.37 107.41 301.6 116.97 
M 303.65 121.1 306.52 127.24 
M 298.21 101.85 301.59 107.38 305.76 115.02 309.86 123.41 311.58 127.34 
M 303.55 102.04 306.68 107.31 310.9 115.2 314.96 123.71 316.53 127.43 
M 308.86 102.35 311.7 107.33 315.96 115.51 321.51 127.53 
M 314.05 102.67 318.86 111.69 324.12 122.2 
M 326.04 126.24 326.68 127.63 
M 319.23 103.11 328.32 120.32 331.97 127.73 
M 324.54 103.56 330.46 114.47 
M 332.56 118.43 335.64 124.29 337.27 127.84 
M 330.07 104.07 333.75 110.83 
M 335.8 114.69 340.84 124.31 342.53 127.94 
M 335.62 104.57 346.03 124.39 347.78 128.04 
M 340.97 105.01 353.1 128.14 
M 346.27 105.45 354.52 121.06 357.62 126.58 
M 364.05 137.7 365.83 139.98 
M 351.75 105.92 359.99 121.36 364.14 128.36 
M 357.3 106.41 363.56 118.11 369 127.03 
M 362.83 106.94 369.19 118.5 374.78 127.2 
M 377.49 131.26 379.44 134.04 
M 368.2 107.47 372.75 115.52 380.47 127.3 
M 382.74 130.72 385.01 134.08 
M 373.4 108.02 376.2 112.75 381.55 120.65 
M 385.96 127.33 386.89 128.8 
M 387.03 129.01 388.14 130.77 
M 378.63 108.63 381.6 113.15 385.94 119.11 388.59 123.07 
M 384.23 109.4 388.59 115.36 
M 122.83 94.42 122.24 94.82 
M 127.9 94.72 125.25 96.72 
M 133.01 95 127.6 99.49 
M 138.4 95.14 134.95 98.04 129.39 103.24 
M 143.93 95.28 140.49 98.2 134.93 103.59 129.76 109.3 
M 149.65 95.43 146.03 98.4 140.64 103.82 137.81 106.96 131.19 115.04 
M 155.43 95.6 154.15 96.47 151.55 98.64 146.31 104.05 143.6 107.22 136.55 116.19 
M 133.63 119.92 132.39 121.49 
M 161.04 95.82 159.59 96.8 157.01 98.91 154.46 101.42 149.33 107.47 145.33 112.77 
M 139.7 120.27 136.79 123.95 
M 136.6 124.17 132.94 128.56 
M 166.46 96.08 164.9 97.13 162.37 99.21 159.86 101.68 156.17 106.12 
M 153.69 109.44 147.17 118.65 143.02 124.07 
M 136.6 131.68 134.13 134.46 
M 171.81 96.4 170.05 97.6 167.6 99.59 165.16 101.98 162.76 104.79 160.4 107.95 154.34 116.94 
M 136.6 138.6 134.42 140.99 
M 177.14 96.71 175.09 98.15 172.71 100.11 170.34 102.42 167.99 105.13 165.7 108.21 158.76 118.99 155.02 124.3 
M 182.39 97.02 180.09 98.64 177.75 100.62 175.41 102.91 173.09 105.55 170.81 108.53 168.59 111.84 164.2 119.16 160.68 124.41 
M 187.62 97.32 185.15 98.98 181.6 102.13 
M 179.26 104.6 175.77 108.81 172.4 113.75 
M 168.11 121.09 166.01 124.51 
M 193 97.62 190.36 99.27 187.85 101.19 185.43 103.45 180.67 108.94 178.28 112.05 175.97 115.42 170.69 124.6 
M 198.34 97.95 195.71 99.53 193.08 101.41 190.54 103.58 188.06 106.07 185.58 108.85 180.62 115.19 178.28 118.71 174.9 124.69 
M 203.49 98.29 198.44 101.6 195.79 103.73 191.89 107.46 
M 189.29 110.24 185.43 114.86 182.94 118.29 180.59 121.96 179.02 124.77 
M 208.35 98.6 203.87 101.7 201.15 103.84 195.75 108.78 193 111.59 190.3 114.64 187.74 117.93 185.35 121.48 183.34 124.85 
M 212.69 98.85 209.22 101.61 203.87 106.24 198.16 111.57 195.3 114.55 192.59 117.75 190.13 121.19 187.84 124.94 
M 216.65 99.09 211.7 103.6 200.5 114.53 197.62 117.69 195.01 121.07 193.86 122.85 
M 220.69 99.29 216.55 103.09 207.39 112.98 
M 204.41 116.09 200.13 121.04 197.34 125.12 
M 224.96 99.48 221.51 102.5 218.94 105.22 208.41 117.54 205.57 121 202.52 125.22 
M 229.64 99.71 226.92 101.98 224.07 104.71 221.49 107.59 217.84 112.17 
M 215.29 115.43 212.59 118.9 
M 209.89 122.54 207.9 125.33 
M 234.6 99.96 229.68 104.31 226.88 107.22 224.33 110.2 220.73 114.97 
M 218.23 118.41 213.28 125.43 
M 239.7 100.21 235.52 103.94 232.59 106.94 229.88 109.99 225.01 116.33 218.72 125.43 
M 244.85 100.46 241.47 103.57 235.62 109.89 230.48 116.34 224.3 125.19 
M 250.02 100.69 247.38 103.2 244.35 106.43 241.46 109.81 233.53 119.98 229.37 125.74 
M 255.29 100.84 253.19 102.82 250.16 106.11 247.27 109.65 235.07 125.85 
M 260.67 100.99 257.55 104.11 
M 254.51 107.55 250.21 113.16 246.14 118.95 
M 243.43 122.66 240.95 125.97 
M 266.12 101.12 261.97 105.38 258.96 108.92 256.04 112.75 246.67 126.08 
M 271.56 101.25 268 104.99 265 108.45 262.07 112.17 252.11 126.18 
M 276.94 101.38 272.54 106.29 
M 269.62 109.8 265.27 115.45 257.72 125.97 
M 282.45 101.51 277.04 107.65 274.23 111.17 262.9 126.39 
M 288.02 101.61 282.91 107.46 280.11 110.97 268.41 126.5 
M 293.47 101.72 285.8 110.96 274.07 126.61 
M 298.67 101.87 289.9 112.89 
M 287.11 116.66 281.28 124.61 
M 303.59 102.04 296.65 111.08 289.58 120.78 
M 286.68 124.83 285.25 126.83 
M 308.3 102.31 307.76 103.01 
M 305.89 105.52 291.95 125.05 
M 313.07 102.59 309.6 107.3 302.9 116.98 
M 300.07 121.02 295.91 127.03 
M 318 103.01 314.62 107.43 305.31 121.15 
M 323.28 103.45 319.7 107.82 315.82 113.47 
M 313.21 117.39 310.49 121.37 
M 307.64 125.4 306.33 127.24 
M 328.79 103.95 324.98 108.29 322.21 111.97 318.26 117.77 
M 312.75 125.64 311.51 127.34 
M 334.34 104.46 330.44 108.72 327.51 112.36 323.36 118.13 
M 320.61 122.05 317.78 125.95 
M 339.72 104.91 335.88 109.11 332.91 112.67 325.77 122.26 
M 344.94 105.34 341.15 109.43 336.77 114.75 
M 331.03 122.34 327 127.64 
M 350.43 105.81 346.44 109.79 343.43 113.18 340.55 116.74 332.16 127.74 
M 356.13 106.3 351.91 110.24 348.75 113.52 345.76 116.96 337.29 127.84 
M 361.82 106.84 354.19 113.93 351.04 117.26 343.73 126.26 
M 367.41 107.38 361.37 112.83 
M 358.07 115.99 353.36 120.99 347.52 128.04 
M 372.95 107.97 365.26 114.84 361.97 117.99 358.79 121.29 352.79 128.14 
M 378.33 108.58 369.2 116.87 
M 362.87 123.3 358.29 128.24 
M 383.36 109.28 374.79 117.27 
M 371.68 120.32 364.04 128.36 
M 388.06 110.02 378.86 119.01 371.2 127.11 
M 388.59 114.77 379.98 123.9 
M 376.97 127.25 375.77 128.58 
M 388.59 120.37 388.33 120.66 
M 385.49 123.93 382.6 127.32 
M 385.21 130.73 380.93 135.7 379.42 137.25 
M 388.59 133.16 385.02 137.3 
M 164.11 95.94 164.11 95.95 
M 169.73 96.28 174.7 89.41 176.81 87.7 179.66 82.92 185.6 77.38 187.94 75.88 189.96 74.34 192.73 73.57 195.06 72.36 197.64 71.26 200.92 70.74 202.62 68.64 203.97 66.16 207.1 61.64 208.79 59.5 213.79 57.13 216.5 56.26 218.89 55.1 221.92 54.63 223.84 53.06 226.33 51.72 228.96 50.53 232.9 47.07 238.61 45.83 240.36 43.91 242.82 42.65 245.58 42.37 247.79 41.92 250.68 43.27 253.14 45.08 255.28 45.99 257.48 46.4 260.55 47.27 266.77 48.42 269.72 49.77 271.92 50.54 273.79 50.99 276.58 51.48 279.15 51.55 282.04 52.88 284.61 52.11 286.62 50.54 288.88 49.51 292.06 49.42 294.2 49.17 295.72 49.54 297.99 50.42 299.65 51.42 309.07 59.49 314.52 64.39 316.82 66.67 318.69 68.78 319.61 71.34 321.54 73.17 327.84 76.64 330.28 77.56 331.98 78.61 333.35 80.74 334.84 83.96 336.12 87.11 337.93 92.49 338.35 94.66 338.18 95.76 338.49 104.8 
M 334.45 104.47 334.45 104.47 
M 168.61 96.21 170.82 95.12 
M 173.12 96.48 175.51 95.92 175.5 94.17 176.35 91.78 177.46 89.3 179.13 86.7 181.21 84.75 
M 177.62 96.74 179.37 95.87 180.63 93.29 182.15 90.87 182.94 88.18 185.06 86.2 185.81 83.54 
M 182.13 97 183.64 95.86 185.13 93.5 189.6 83.42 190.32 80.87 
M 186.63 97.26 188.06 95.87 189.06 93.28 190.5 90.89 191.48 88.4 193.1 86.44 193.71 83.35 194.61 81.05 
M 191.14 97.52 192.47 96.21 195.16 91.37 196.1 88.81 199.76 81.42 200.35 79.05 201.26 76.56 
M 195.64 97.77 197.57 96.39 199.55 91.99 201.16 89.64 203.39 82.22 206.21 75.36 207.22 72.1 
M 200.15 98.06 201.97 96.52 204.84 92.39 205.84 90.18 206.35 88.02 207.4 84.79 208.75 81.92 208.98 79.53 210.46 77.57 212.69 75.15 213.92 73.05 214.17 71.26 214.22 68.79 214.91 66.27 
M 204.65 98.36 206.32 96.62 208.7 92.8 209.69 90.51 210.49 87.21 212.13 82.64 213.4 79.68 216.31 75.22 
M 209.16 98.64 210.62 97.16 212.5 93.04 215.45 85.05 216.77 82.32 217.44 80.27 217.68 78.27 219.14 76.1 219.97 73.7 
M 213.66 98.91 215.12 97.23 216.45 95.17 218.57 90.75 219.61 87.59 221.16 84.17 221.44 81.1 222.05 78.69 223.31 76.29 
M 218.17 99.17 221.3 94.95 223.41 90.44 224.04 88.45 224.41 85.76 226.18 82.99 226.48 80.89 227.02 78.9 227.14 76.01 227.85 73.47 229.97 71.43 231.49 69.5 232.03 67.41 233.36 64.7 
M 222.67 99.38 224.41 97.38 225.68 95.09 226.82 93.55 227.55 91.47 228 88.53 229.31 85.58 230.9 83.31 231.72 78.52 231.72 75.92 233.39 70.91 
M 227.18 99.59 229.28 97.91 230.13 96.09 230.8 93.75 231.85 91.34 232.48 88.54 233.44 85.44 235.49 80.83 235.98 79.01 236.32 73.59 241.01 64.72 241.85 62.71 
M 231.69 99.81 233.58 97.96 234.67 95.7 236.79 88.34 237.74 86.04 238.81 81.29 239.19 78.75 240.31 76.84 243.16 70.93 246.42 66.11 247.02 63.33 246.97 61.36 248.99 56.62 
M 236.2 100.04 237.95 98.61 239.74 90.8 241.34 88.8 242.08 86.58 242.28 84.58 247.5 73.13 248.93 70.7 250.53 68.99 251.81 65.91 251.9 59.17 
M 240.7 100.26 242.3 98.58 244.54 93.55 246.03 91.03 246.82 89.17 246.8 87.44 247.03 85.34 247.89 82.99 250.2 79.68 250.69 75.89 252.09 73 
M 245.21 100.47 247.06 98.47 248.15 96.41 250.97 91.95 251.36 89.61 251.99 87.87 251.97 85.16 252.69 82.7 255.52 76.44 257.43 74.32 257.92 71.53 257.94 69.66 259.57 68.63 260.63 66.55 261.82 60.06 262.96 58.46 
M 249.72 100.68 252.85 96.81 254.05 94.46 254.51 92.37 255.79 89.96 256.31 87.81 256.33 84.73 256.62 82.1 257.96 79.08 262.62 71.76 263.53 69.39 263.37 67.71 263.53 65.06 265.47 61.97 266.79 60.62 267.72 59.36 
M 254.23 100.81 255.75 99.5 256.96 97.02 258.32 94.75 259.97 89.73 260.17 84.66 260.74 81.79 262.34 78.97 265.87 74.36 267.63 71.16 268.17 68.64 268.22 66.21 
M 258.74 100.94 260.2 99.74 261.24 97.61 261.79 94.86 262.74 92.12 263.34 89.67 265.41 84.28 266.54 82.06 267.59 79.18 271.23 73.9 271.96 71.53 271.89 68.73 271.32 66.59 271.95 64.72 273.1 62.8 
M 263.25 101.05 264.82 99.19 267.12 92.19 268.05 89.89 268.75 87.36 270.98 81.92 274.26 76.38 
M 267.77 101.15 271.68 95.01 272.91 92.65 273.81 90.05 274.4 87.31 275.96 82.17 277.42 79.79 278.49 76.93 279.9 72.11 280.72 71.09 280.83 68.04 281.72 65.56 281.94 62.9 283.59 60.02 286.24 54.5 
M 272.28 101.26 274.6 96.96 276.15 95.19 277.46 92.7 278.3 89.97 279.44 87.91 281.07 83.25 283.62 77.97 283.53 75.61 284.57 73.24 285.6 70.11 287.63 61.82 
M 276.79 101.38 279.26 97.12 282.05 92.9 284.03 88.45 284.66 85.78 285.6 83.05 285.93 81.62 287.39 79.16 287.85 75.58 288.98 72.74 289.35 70.62 290.07 68.32 291.42 65.49 291.54 63.46 293.35 58.97 
M 281.3 101.49 282.69 99.36 283.74 97.15 285.22 95.29 286.35 93.47 289.03 86.63 289.94 83.59 292.41 77.61 292.79 74.51 295.39 70.29 295.6 69.05 
M 285.81 101.57 287.34 99.89 288.31 97.71 289.88 95.23 291.88 90.39 294.56 86.25 295.87 83.6 297.44 78.33 297.67 74.24 299.47 70.1 
M 290.33 101.65 292.24 100.33 293.62 98.17 297.08 89.93 298.25 88.21 299.25 87.25 299.21 84.53 301.84 78.42 302.07 76.72 
M 294.84 101.76 296.6 100.24 297.74 98.03 299.13 95.93 299.98 92.45 300.94 90.25 303.46 86.54 303.46 83.68 305.47 82.02 308.35 70.88 309.63 67.87 310.23 65.3 
M 299.35 101.89 301.5 100.35 302.65 98.45 303.73 95.84 305.6 90.5 307.15 88.52 309.01 83.06 309.2 80.63 310.76 75.96 311.9 73.72 315.03 70.19 
M 303.86 102.06 305.98 100.34 307 98.06 307.62 95.91 309.31 93.59 310.03 91.75 310.48 89.01 311.28 86.05 312.98 83.06 
M 308.36 102.32 310.27 101.05 311.6 98.76 312.65 96.28 314.08 94.82 316.22 86.41 317.08 84.05 
M 312.87 102.58 314.93 101.08 317.5 96.44 320.42 92.89 321.56 90.67 321.93 88.89 320.63 86.2 322.06 83.66 
M 317.37 102.95 319.83 101.29 324.16 95.22 325.48 93.88 
M 321.86 103.33 324.56 101.76 326.51 98.95 327.26 97.2 328.3 95.84 329.59 94.67 330.42 92.66 330.53 89.13 331.98 85.99 
M 326.36 103.73 329.01 101.84 330.28 99.22 333.23 97.51 333.72 96.34 333.82 93.85 334.88 89.96 
M 330.85 104.14 333.74 103.06 334.79 101.21 336.5 100.03 
M 136.63 122.32 415.96 128.28 415.95 129.18 136.57 125.57 
M 136.69 125.93 386.14 141.04 386.09 141.94 136.51 129.17 
M 136.75 129.55 356.07 151.5 355.99 152.4 136.45 132.78 
M 136.82 133.16 325.89 159.67 325.77 160.56 136.39 136.38 
M 136.88 136.78 295.73 165.53 295.58 166.42 136.32 139.98 
M 136.94 140.41 265.72 169.11 265.53 170 136.26 143.58 
M 137 144.03 236 170.42 235.77 171.3 136.2 147.18 
M 137.06 147.66 206.68 169.49 206.43 170.35 136.14 150.77 
M 137.12 151.29 177.91 166.33 177.62 167.19 136.08 154.36 
M 137.18 154.72 149.81 160.81 149.49 161.65 136.02 157.76 
M 388.01 128.82 381.62 130.12 375.43 131.93 372.46 133.12 369.56 134.51 366.73 136.07 361.2 139.53 
M 361.13 140.66 354.78 141.48 351.66 142.06 348.6 142.81 345.6 143.77 339.79 146.28 334.14 149.31 
M 334.03 150.44 327.75 150.77 324.65 151.11 321.59 151.64 318.59 152.37 312.72 154.43 306.99 157.02 
M 306.83 158.14 300.65 158 294.55 158.4 291.55 158.9 288.58 159.61 285.65 160.51 279.85 162.66 
M 279.65 163.78 273.59 163.17 267.57 163.1 264.6 163.38 261.64 163.86 258.7 164.54 252.84 166.24 
M 252.61 167.35 246.7 166.29 243.74 165.93 240.8 165.77 237.85 165.82 231.97 166.53 226.1 167.78 
M 225.82 168.89 220.09 167.38 214.33 166.41 211.43 166.23 208.51 166.27 205.59 166.5 199.72 167.3 
M 199.4 168.39 193.88 166.45 188.28 165.05 185.44 164.65 182.57 164.47 179.68 164.47 173.83 164.83 
M 173.47 165.91 168.19 163.51 162.79 161.64 160.02 161 157.2 160.58 154.35 160.34 148.55 160.2 
M 384.8 129.44 378.49 130.94 375.43 131.93 372.46 133.12 369.56 134.51 363.95 137.77 
M 363.09 129.11 357.33 130.48 351.82 132.47 349.17 133.74 344.05 136.71 
M 341.37 128.79 336.16 130.03 331.18 131.83 328.79 132.98 324.16 135.66 
M 319.65 128.47 315 129.58 312.74 130.31 308.41 132.21 304.27 134.61 
M 297.93 128.15 293.83 129.12 289.91 130.54 288.02 131.44 284.38 133.56 
M 276.21 127.82 272.67 128.67 269.27 129.89 264.48 132.51 
M 254.5 127.5 251.5 128.21 248.63 129.25 244.59 131.46 
M 232.78 127.18 230.33 127.76 227.99 128.6 224.7 130.4 
M 357.95 141.04 351.66 142.06 348.6 142.81 345.6 143.77 342.66 144.94 336.95 147.76 
M 335.81 139.87 330.15 140.79 324.7 142.33 322.06 143.38 316.92 145.92 
M 313.68 138.7 308.65 139.52 306.2 140.12 301.45 141.82 296.88 144.08 
M 291.54 137.53 287.14 138.25 285 138.78 280.84 140.26 276.85 142.24 
M 269.41 136.37 265.64 136.98 262 138.01 260.24 138.71 256.81 140.4 
M 247.27 135.2 244.13 135.71 241.1 136.57 236.78 138.56 
M 225.14 134.03 222.62 134.44 220.2 135.12 216.74 136.72 
M 330.88 150.57 324.65 151.11 321.59 151.64 318.59 152.37 315.63 153.31 309.85 155.69 
M 308.22 148.52 302.71 149 297.36 150.1 294.75 150.93 289.63 153.04 
M 285.55 146.46 280.77 146.88 276.12 147.84 273.86 148.56 269.42 150.39 
M 262.88 144.41 258.83 144.76 254.89 145.58 252.97 146.19 249.21 147.73 
M 240.22 142.36 236.89 142.65 233.66 143.31 229 145.08 
M 217.55 140.3 214.95 140.53 212.43 141.05 208.79 142.43 
M 303.73 158.04 297.58 158.11 294.55 158.4 291.55 158.9 288.58 159.61 282.74 161.55 
M 280.34 155.03 275.04 155.09 269.86 155.77 267.31 156.39 262.28 158.05 
M 256.94 152.03 252.51 152.08 248.16 152.65 246.03 153.16 241.82 154.56 
M 233.54 149.02 228.21 149.23 224.75 149.94 221.36 151.06 
M 210.14 146.02 206.1 146.18 203.47 146.71 200.9 147.57 
M 276.62 163.44 270.57 163.04 267.57 163.1 264.6 163.38 261.64 163.86 255.77 165.35 
M 252.11 159.37 247.13 159.04 244.65 159.09 239.76 159.72 234.91 160.95 
M 227.61 155.3 223.68 155.04 221.73 155.08 217.87 155.58 214.06 156.55 
M 203.11 151.23 198.81 151.07 195.99 151.44 193.2 152.14 
M 249.65 166.79 243.74 165.93 240.8 165.77 237.85 165.82 234.91 166.08 229.03 167.12 
M 223.27 161.42 218.74 160.77 216.48 160.64 211.97 160.88 207.47 161.68 
M 196.89 156.06 192.17 155.52 189.03 155.68 185.9 156.24 
M 222.95 168.09 217.21 166.8 214.33 166.41 211.43 166.23 208.51 166.27 202.66 166.86 
M 192.73 160.85 189 160.01 187.12 159.76 183.34 159.67 179.54 160.05 
M 196.64 167.39 191.09 165.66 188.28 165.05 185.44 164.65 182.57 164.47 176.76 164.61 
M 174.6 164.77 176.33 165.92 181.71 168.7 184.33 170.39 186.98 171.17 192.81 174.22 195.93 176.1 200 179.75 202.15 181.09 205.98 183.22 210.16 184.69 213.43 186.63 215.36 188.76 217.94 191.2 220.39 200.91 219.54 202.53 220.19 205.65 220.16 208.09 220.92 213.97 220.53 216.2 221.62 219.92 221.86 222.79 221.7 225.26 221.3 227.63 220.58 229.73 220.98 232.95 220.7 235.5 219.04 240.1 217.65 242.31 215.84 244.1 214.32 246.19 214.02 249.49 212.98 252.05 212.87 254.16 209.12 268.07 208.25 266.21 205.85 263.58 204.38 261.39 202.09 255.61 200.2 253.41 200.22 249.24 199.36 246.24 198.14 245.5 196.32 243.85 194.47 240.28 192.32 237.19 190.59 235.17 188.42 229.89 187.32 227.89 187.5 225.99 185.56 222.54 183.19 220.33 181.89 217.49 180.74 211.68 178.34 203.51 176.93 201.31 175.7 198.7 173.54 196.35 172.13 194.47 170.84 191.91 169.84 189.2 169.03 186.42 167.56 183.5 165.79 180.82 164.97 178.54 163.59 176.43 160.62 170.87 158.43 165.62 155.38 160.42 
M 172.57 165.49 174.18 167.01 181.13 171.78 183.69 172.86 188.89 177.12 191.73 177.4 
M 166.9 163.01 171.85 168.12 174.04 169.75 176.28 172.25 180.24 175.46 182.4 177.75 185.35 180.03 187.63 182.06 189.78 183.56 192.3 184.48 193.96 186.03 195.13 188.79 197.64 191.46 200.07 192.26 205.01 195.66 207.03 197.51 209.97 199.4 212.43 201.7 212.96 204.62 215.81 205.81 
M 163.52 161.86 167.02 166.73 169.01 168.96 171.62 171.03 173.77 173.24 175.13 175.67 176.84 177.95 178.9 179.99 181.76 181.8 186.49 185.98 188.91 187.6 190.57 190.08 191.41 192.6 194.87 196.32 197.52 198.09 199.22 199.86 201.31 200.72 203.15 204.49 204.66 208.12 206.23 210.75 208.35 211.94 211.65 213.23 214.27 215.57 215.25 216.8 
M 160.69 161.16 163.37 164.7 164.85 167.38 166.36 169.68 172.3 176.8 173.94 179.23 175.18 181.99 180.92 187.95 182.48 190.49 184.9 193.31 187.68 197.76 189.22 199.5 
M 157.82 160.67 159.29 162.66 160.94 165.3 162.29 168.05 164.05 170.39 165.17 172.78 166.66 175.21 169.99 179.85 171.36 182.16 172.64 185.21 177.21 192.84 182.06 198.99 183.3 201.69 184.22 204.83 185.36 207.44 190.77 214.41 192.77 216.43 195.14 221.3 
M 336.42 148.06 339.5 150.85 344.66 159.53 341.64 170.72 340.45 176.46 338.78 181.79 337.01 183.61 334.44 184.81 331.22 189.05 328.34 188.59 326.42 187.94 323.94 187.43 320.56 187.12 317.74 186.01 314.53 184.12 309.15 183.84 307.19 184.66 301.63 184.4 296.88 183.78 294.21 182.79 288.67 176.58 282.86 173.3 278.28 170.93 270.75 163.05 
M 332.2 150.52 334.28 153.37 336.04 156.56 337.91 159.27 
M 327.31 150.82 328.24 153.45 329.64 156.26 333.14 161.38 
M 323.15 151.37 323.87 153.84 324.96 156.56 326.87 159.07 328.5 161.87 329.8 163.72 331.18 166.72 333.24 170 
M 318.86 152.3 319.18 153.73 320.34 156.73 322.27 159.23 323.84 161.91 324.85 164.16 326.38 166.95 
M 315.47 153.37 316.48 156.35 317.92 159.35 319.69 161.72 322.57 167.5 323.12 170.26 327.72 175.02 329.77 177.64 331.89 179.84 333 183.18 
M 311.59 154.92 312.17 156.49 313.53 159.12 317.42 164.11 318.47 167 320.12 169.66 321.01 173.08 322.6 175.92 325.81 180.17 326.29 182.98 327.64 186.23 
M 308.9 156.13 309.81 158.89 312.39 163.95 313.91 166.55 315.45 169.73 317.82 171.53 318.13 174.15 318.91 177.83 320.87 180.58 
M 305.78 158.11 307.1 161.48 310.15 166.23 310.95 169.22 312.73 170.97 315.43 176.55 
M 301.01 158.01 303.11 163.53 306.08 170.15 
M 295.97 158.26 299.9 167.74 
M 291.14 159 291.95 160.46 292.69 163.68 294.51 166.27 295.22 169.66 
M 287.39 159.98 289.27 163.13 289.84 165.6 291.92 172.59 293.58 175.18 294.66 177.63 296.52 179.48 
M 284.64 160.87 286.36 163.23 287.9 166.43 288.72 168.77 288.5 171.47 
M 281.03 162.2 282 163.31 283.37 165.74 
M 277.41 163.53 279.4 165.96 
M 271.54 163.08 272.5 164.34 
M 387.68 109.87 390.64 108.95 393.15 107.66 402.07 101.45 413.63 94.73 415.5 92.63 418.22 90.52 420.41 89.54 425.57 88.55 431.29 86 433.27 84.45 436.11 82.59 438.51 80.5 441.25 79.3 443.53 78.7 445.43 77.53 447.38 75.09 449.81 73.76 451.71 72.3 455.21 67.49 457.61 66.31 461.72 63.86 463.97 62.71 465.5 61.29 468.28 59.12 471.39 57.04 472.89 55.33 477.64 53.85 479.85 53.53 484.72 51.97 487.06 49.91 490 48.42 489.78 58.42 488.65 60.71 486.99 62.48 486.01 71.37 484.56 76.3 484.61 79.64 484.29 82.67 483.14 84.87 481.54 86.61 480.29 88.64 479.66 91.19 478.65 93.36 478.81 99.91 478.33 102.69 476.91 107.92 476.54 110.55 475.79 112.79 475.43 115.43 472.97 126.24 473.05 129.29 472.9 131.65 473.14 134.33 473.04 136.72 471.96 138.46 472.71 144.3 474.68 150.62 476.04 153.39 476.7 155.47 477.01 157.21 479.64 162.87 481.29 166.03 483.01 171.42 484.63 180.3 484.77 182.48 487.01 189.27 487.77 192.33 488.35 195.34 489.03 203.14 487.88 211.39 486.58 210.36 483.73 209.29 483.03 207.8 480.25 205.71 478.44 205.19 472.34 202.79 470.04 201.28 468.27 198.62 466.67 195.78 464.89 193.97 462.69 193.36 459.13 193.11 456.27 191.94 454.31 190.03 452.71 187.17 450.07 185.74 445.95 182.75 444.33 180.54 441.77 179.25 439.12 178.86 436.99 177.67 432.96 174.23 431.5 172.16 428.71 169.96 425.83 167.9 423.55 166.57 419.81 163.89 417.01 163.07 412.22 158.71 409.27 156.5 402.99 152.77 397.95 149.12 395.81 147.27 387.68 141.58 
M 387.68 111.46 390.74 110.64 393.35 109.59 395.68 108.38 400.11 105.24 414.7 97.86 417.03 96.21 422.08 93.29 424.43 91.47 427.19 90.79 429.2 89.5 431.97 88.92 435.11 87.86 437.96 85.98 440.57 83.85 445.36 81.43 447.1 80.99 449.28 79.6 452.12 78.52 453.63 76.73 456.09 74.61 457.98 73.26 461.45 71.51 469.82 68.12 
M 390.93 112.41 395.98 110.35 400.52 107.43 402.86 106.38 405.7 105.36 410.72 103.14 413.22 101.86 415.4 101.08 420.49 98.02 426.43 95.57 429.04 94.94 430.87 93.44 436.06 93.04 439.53 91.86 441.85 90.56 444.46 89.47 446.42 87.08 448.91 85.6 451.16 83.86 453.99 82.96 455.32 82.96 457.08 82.01 459.62 79.05 
M 393.92 113.2 398.36 111.22 400.88 109.84 405.54 107.79 411.42 106.4 416.99 103.98 419.8 102.95 424.5 100.12 431.45 98.77 433.65 97.44 438.16 97.29 440.71 96.4 442.99 95.18 445.6 93.27 448.61 92.51 450.87 91.14 452.61 89.6 454.45 88.51 460.6 87.68 463.02 86.46 466.51 86.11 469.16 85.16 471.45 84.21 476.95 80.08 
M 391.22 115.6 399.15 113.27 403.67 111.21 406.14 110.54 417.06 107.02 419.94 106.34 423.1 105.98 434.69 101.72 439.42 101.42 445.17 99.87 447.96 98.94 
M 397.17 116.1 399.84 115.53 406.78 113.41 409.79 113.03 412.16 111.78 414.54 111.02 420.5 109.66 425.74 109.99 428.19 109.29 438.09 107.15 440.17 105.96 443.02 105.72 446.31 105.01 450.26 104.78 452.94 104.01 454.04 103.07 455.2 102.78 457.07 101.96 459.9 101.37 463.06 100.21 466.4 99.52 469.26 97.96 472.92 97.23 475.02 94.8 
M 397.54 118.42 400.35 118.19 403.07 117.73 405.45 116.91 413.36 115.06 415.98 114.57 418.88 114.45 423.72 113.32 426.31 113.76 428.41 113.4 431.94 113.49 438.76 112.98 441.62 111.82 445.84 108.73 448.7 108.02 451.74 107.72 454.44 107.81 455.81 107.13 458.92 107.2 461.62 107.45 
M 397.43 120.59 400.44 120.62 403.03 120.34 414.11 117.66 417 118.04 419.16 118.09 422.2 117.53 424.42 117.71 426.34 118.07 429.14 118.15 436.17 117.09 440.1 116.82 442.54 116.09 444.34 115.17 445.7 114.12 
M 397.22 122.77 399.96 122.9 408.25 121.79 416.99 121.34 419.68 121.35 422.5 121.62 425.14 122.54 427.51 122.38 432.81 121.23 436.87 121.47 440.3 121.35 442.71 120.67 
M 391.31 124.38 394.44 124.32 396.8 124.73 402.28 125.05 407.99 125.06 411.15 125.3 413.97 125.1 416.48 125.24 422.64 124.97 425.28 125.8 427.56 125.92 430.16 125.68 433.88 125.93 436.64 125.84 438.6 126.13 445.48 124.79 
M 391.38 126.23 394.28 126.49 396.7 126.91 399.48 126.92 402.25 127.28 405.15 128 408.16 128.35 411.03 128.18 413.56 128.87 416.35 129.27 419.94 129.37 428.5 129.19 
M 396.72 128.9 399.46 129.48 402.18 129.74 404.85 130.35 408.02 130.75 410.96 131.47 416.92 132.02 420.31 132.83 423.18 133.01 427.56 132.96 430.22 133.83 433 134.14 437.32 135.56 441 134.58 444.8 134.75 447.46 135.18 449.93 135.36 453.93 133.17 457.13 133.53 460.07 133.6 
M 387.68 128.9 394.1 130.34 396.8 131.28 399.23 131.91 401.84 132.23 408.24 133.47 411.6 134.41 414.15 134.93 417.56 135.09 423.44 136.67 424.88 136.49 427.08 137.28 430.05 137.41 432.83 137.84 438.08 139.38 440.33 139.85 443.39 138.88 446.25 139.29 
M 396.8 133.51 401.62 135.11 408.43 136.77 411.21 136.9 414.33 137.61 417.9 138.18 423.45 139.89 424.94 140.66 427.23 140.64 430.13 141.55 432.28 141.73 435.53 142.77 438.81 144.08 442.26 143.59 
M 387.68 132.07 390.76 133.43 393.85 134.44 401.49 137.58 404.8 138.69 413.9 140.86 422.24 143.32 431.91 145.8 
M 390.91 135.18 393.78 136.31 396.35 137.59 398.94 138.56 401.53 139.28 407.04 141.17 410.26 142.05 415.44 144.11 423.31 147.66 428.73 149.46 432.02 149.89 434.73 151.45 437.52 151.84 442.51 153.43 447.63 153.17 453.16 154.43 455.8 156.29 458.19 157.37 461.48 159.22 463.97 160.13 465.9 161.72 467.73 162.56 471.32 162.7 474.83 163.66 
M 387.68 135.24 393.51 138.35 396.24 139.48 401.59 141.2 404.61 142 406.97 143.14 409.97 143.86 412.49 144.72 414.53 146.4 417.22 148.16 420.6 149.92 423.63 150.59 426.33 150.79 432.76 153.52 435.83 155.96 440.51 158.75 
M 396.37 141.44 399.3 142.38 404.33 144.3 406.86 145.85 409.31 146.71 411.82 147.98 414.12 149.43 420.41 152.46 422.92 153.26 429.09 155.69 433.07 158.63 434.03 160.4 436.58 162.54 439.04 163.44 444.26 164.59 446.73 166.06 452.73 167.13 459.39 169.34 460.22 170.64 462.78 172.73 
M 387.68 138.41 390.71 140.53 393.56 142.18 396.53 143.48 399.16 144.39 401.6 145.64 404.25 147.28 406.45 148.24 408.46 149.44 411.02 150.65 416.57 154.1 419.86 155.36 422.37 156.52 426.52 159.01 430.97 162.08 433.33 163.33 435.83 165.26 437.51 167.58 440.49 168.53 442.27 169.34 444.67 169.67 
M 390.82 142.17 396.24 145.15 403.57 150.14 407.55 152.41 409.58 153.2 415.28 156.95 418.8 158.92 421.47 160.13 423.24 162.1 429.43 165.26 432.1 167.6 433.89 169.77 436.95 172.12 
M 50.8 100.42 58.22 99.57 62.08 98.9 71.48 96.83 76.74 96.36 93.2 96.71 98.56 96.66 117.18 95.02 121.56 94.39 125.87 97.11 128.14 100.23 129.49 103.49 129.75 106.94 129.76 110.43 130.91 113.73 132.4 120.46 132.37 123.96 132.73 127.39 134.13 134.13 134.14 137.62 134.56 144.53 134.53 148.03 133.43 155.19 132.14 158.87 120.89 158.52 112.72 157.58 105.41 156.15 98.63 154.26 92.34 151.76 85.92 148.52 80.21 145.38 74.93 141.72 70.26 137.93 66.36 134.48 
M 64.05 132.3 62.26 130.61 59.07 125.85 51.83 111.22 
M 111.19 107.49 111.7 110.38 110.74 115.87 110.45 118.27 110.38 120.47 109.91 122.62 110.04 124.63 110.53 126.68 113.14 135 113.67 138.55 106.11 139.12 100.63 139.26 95.41 138.98 90.19 138.21 85.05 136.71 79.58 134.27 74.64 131.62 
M 64.02 132.25 61.03 127.21 57.83 120.97 55.5 117.03 46.91 103.8 46.26 101.57 47.44 99.63 49.63 99.37 51.31 100.88 53.29 105.01 56.4 110.85 60.25 119.13 62.7 125.8 66.41 134.59 
M 65.71 135.15 55.11 126.94 42.8 116.92 31.97 109.31 30.32 107.77 30 105.53 31.52 103.84 33.76 104.01 41.97 111.56 45.48 114.36 66.3 134.45 
M 76.19 114.2 75.2 110.46 75.49 106.61 77 103.06 79.59 100.19 82.97 98.32 86.77 97.64 90.59 98.24 94.01 100.04 96.65 102.86 98.24 106.38 98.6 110.23 97.68 113.98 95.6 117.24 92.58 119.64 88.94 120.93 85.07 120.97 81.41 119.75 78.34 117.41 76.19 114.2 
M 76.05 113.87 75.28 111.07 75.22 108.17 75.87 105.34 76.46 104.01 78.09 101.61 80.27 99.69 81.52 98.94 84.25 97.94 87.13 97.64 88.58 97.76 91.38 98.53 
M 77.72 113.18 77.32 112.01 76.96 109.58 77.01 108.35 77.39 106.54 
M 79.74 102.51 81.29 101.18 82.35 100.55 84.65 99.7 85.87 99.5 88.32 99.55 90.69 100.2 
M 79.38 112.49 79.06 111.53 78.77 109.55 79.05 107.27 
M 80.98 103.82 82.31 102.67 83.17 102.15 85.06 101.46 87.06 101.25 88.06 101.34 90 101.87 
M 82.61 111.31 82.22 109.81 82.3 108.7 
M 83.25 106.5 83.97 105.7 85.32 104.95 86.84 104.68 88.37 104.92 89.74 105.64 90.79 106.77 91.43 108.18 91.57 109.72 91.21 111.22 90.38 112.52 89.17 113.48 87.71 114 86.16 114.01 84.7 113.53 83.47 112.59 82.61 111.31 
M 83.45 106.28 83.31 106.56 
M 85.48 104.92 84.22 107.45 
M 83.35 109.18 82.5 110.89 
M 86.95 104.7 85.11 108.37 
M 84.52 109.54 83.2 112.19 
M 88.2 104.9 85.99 109.32 
M 85.77 109.76 84.11 113.08 
M 89.3 105.41 85.16 113.68 
M 90.26 106.2 86.35 114.01 
M 91.05 107.33 87.71 114 
M 91.52 109.1 89.43 113.27 
M 58.75 125.18 61.4 127.83 
M 53.4 114.42 54.6 115.61 
M 51.83 102.01 54.01 104.2 
M 55.17 99.94 58.81 103.58 
M 59.93 99.28 62.65 102 
M 64.45 98.38 68.82 102.76 
M 68.89 97.41 72.84 101.36 
M 73.54 96.65 78.4 101.51 
M 78.7 96.39 81.46 99.15 
M 84.22 96.49 85.58 97.85 
M 89.76 96.62 92.27 99.13 
M 95.25 96.69 98.31 99.75 
M 100.49 96.51 103.39 99.42 
M 105.48 96.09 109.95 100.56 
M 110.42 95.61 113.88 99.07 
M 115.39 95.17 118.57 98.35 
M 120.28 94.64 124.59 98.96 
M 91.51 126.47 90.41 124.27 90.17 123.22 90.15 122.22 90.68 120.32 
M 130.78 146.47 130.98 144.74 130.3 142.4 130.22 140.41 
M 81.58 136.56 81.88 138.02 81.84 138.39 81.48 138.87 80.87 138.96 79.59 138.83 77.91 138.09 
M 127.93 132.83 126.86 133.16 126.42 133.02 125.9 132.27 125.61 131.03 
M 74.68 141.51 76.43 137.95 
M 100.72 154.79 100.56 154.79 
M 98.95 154.35 98.9 154.25 
M 90.76 141.65 91.86 141.7 94.83 141.43 95.63 141.76 96.63 142.48 
M 78.84 101.02 78.11 99.92 77.41 97.51 76.86 96.36 
M 119.23 96.53 120.09 96.63 121.46 96.33 122.37 95.85 122.88 95.22 
M 73.86 108.54 73.32 109.5 72.76 109.78 
M 95.57 101.72 96.67 100.47 97.23 100.33 97.96 100.44 
M 117.96 135.04 118.73 135.19 120.26 135.12 122.28 134.34 124.93 130.88 
M 110.13 151.14 111.16 149.64 112.27 148.97 
M 86.03 97.77 85.75 97.48 
M 59.61 124.5 58.45 124.55 
M 93.68 128.73 92.74 125.75 92.15 123.22 92.12 121.94 93.1 119.23 
M 130.77 116.75 128.66 116.38 121.19 116.14 119.63 115.82 
M 65.98 113.49 68.1 109.75 69.51 108.3 70.36 108 71.16 108.07 72.53 108.92 72.82 109.32 
M 114 132.99 115.99 135.12 117.39 135.93 118.77 136.25 120.21 136 121.66 135.46 122.37 135.07 123.41 133.84 
M 75.43 107.32 74.18 108.84 73.62 109.87 73.02 110.03 
M 52.73 100.19 50.99 100.59 
M 122.08 158.02 121.92 158.55 
M 64.7 128.96 63.83 128.5 
M 60.39 126.02 59.08 125.86 
M 128.2 128.48 129.33 128.25 132.03 128.04 
M 109.4 130.58 110.44 132.37 111.01 133.93 111.07 139.53 
M 129.66 139.16 130.6 139.28 
M 70.28 118.43 73.32 117.61 76.77 117.8 78.48 117.52 
M 116.97 150.66 116.58 151.36 
M 111.38 122.14 113.32 122.59 114.26 123.03 115.64 124.72 
M 96.58 117.11 96.34 116.08 
M 69.06 128.03 68.3 126.76 68.19 124.59 68.41 123.1 69.01 121.09 69.55 120.15 
M 129.76 144.17 129.43 142.41 128.69 141.03 128.86 139.86 
M 129.05 115.5 123.94 115.5 121.22 115.79 119.79 115.59 
M 104.49 136.5 104.2 136.85 104 137.47 103.85 139.57 104.12 140.86 104.9 142.98 
M 127.24 104.49 127.3 103.75 128.25 100.49 
M 124.2 151.3 123.54 151.37 121.73 152.01 118.18 153.81 117.72 153.79 117.2 153.53 
M 75.43 107.33 74.23 108.78 73.64 109.86 73.25 110.06 72.9 109.98 
M 93.19 141.02 94.86 141.15 95.54 141.49 98.74 143.89 100.11 145.34 100.66 146.17 
M 78.15 120.08 78.23 120.39 77.79 122.23 77.25 122.93 76.22 123.53 
M 123.06 133.1 125.5 129.8 
M 96.03 121.6 95.54 120.88 95.31 120.02 95.14 117.6 
M 122.14 110.16 123.38 110.67 124.25 111.4 
M 120.35 152.72 117.98 153.82 117.11 153.43 116.48 152.36 
M 107.04 113.19 108.78 112.58 109.32 112.1 109.6 111.42 109.71 110.45 109.52 107.98 109.06 105.72 
M 59.13 116.74 60.42 118.06 61.68 118.92 62.95 119.28 63.96 119.13 
M 64.08 122.72 64.28 121.81 64.64 121.05 66.98 118.08 67.99 115.26 
M 129.75 143.78 129.42 142.17 128.77 141.1 128.93 139.8 
M 125.53 148.63 125.91 148.59 126.19 148.35 126.82 147.11 126.83 145.6 126.31 144.22 
M 94.36 144.96 95.49 145.19 98.31 146.24 99.39 146.99 99.85 147.58 99.99 148.06 
M 118.11 154.52 117.03 154.21 116.53 153.83 116.04 152.6 116.16 151.82 
M 118.49 97.08 120.05 97.33 121.87 97.04 123.06 96.54 123.67 95.72 
M 62.35 104.7 62.37 103.43 62.02 102.39 61.09 101.38 60.48 101.09 59.75 101.1 59.07 101.36 58.55 101.83 57.99 103.05 57.95 104.13 58.1 104.62 
M 104.43 118.71 103.74 118.13 102.18 117.51 99.5 117.09 98.83 116.65 97.56 114.53 
M 111.66 122.81 112.72 123.4 113.06 124.07 112.73 125.93 111.98 128.2 111.91 129.42 
M 117.99 108.11 118.44 109.89 119.01 110.6 119.73 110.73 121.29 110.32 121.99 110.29 
M 123.57 143.56 123.06 144.1 122.15 145.66 121.36 148.26 120.24 150.38 
M 122.49 108.45 122.76 109.79 124.26 110.99 
M 75.83 105.57 74.28 107.29 72.91 109.66 
M 54.89 117.34 56.18 119.09 56.2 119.89 
M 72.13 100.99 71.93 98.17 71.46 96.84 
M 82.95 142.02 81.94 142.45 80.36 142.65 80.04 142.33 79.39 140.97 78.4 140.06 
M 104.92 101.44 105.12 102.53 105.63 103.86 105.97 104.09 106.56 104.15 
M 120.07 133.24 122.08 132.38 124.32 130.93 125.19 129.99 
M 55.19 108.49 55.79 108.64 56.14 108.94 56.36 109.33 56.81 111.5 57.07 112.11 58.25 113.77 60.14 115.72 
M 125.76 135.16 126.27 134.21 126.39 133.68 125.75 131.93 
M 88.49 97.69 87.12 96.55 
M 114.64 157.31 114.94 156.06 115.97 154.3 115.93 153.05 
M 105.06 96.13 104.88 96.87 105.2 98.21 105.78 99.06 107.13 100.37 
M 114.24 115.27 115.4 115.69 117.14 117.15 117.47 117.55 117.94 118.69 
M 117.94 137.66 122.15 136.71 122.78 136.31 124.86 134.24 125.45 133.45 125.71 132.73 
M 64.61 104.93 65.34 103.58 65.22 102.06 64.95 101.3 63.92 99.68 63.04 98.69 
M 121.42 125.19 123.45 128.58 124.26 128.96 
M 112.82 143.14 109.12 142.32 108.38 142.33 107.62 143.03 107.43 144.45 
M 95.25 145.17 97.27 145.9 99 146.74 99.77 147.62 99.87 147.94 99.71 148.12 
M 56.38 109.84 57.02 112.11 58.21 113.77 60.79 116.33 62.05 117.24 63.18 117.83 
M 119.65 110.26 121.65 110.1 123.43 110.74 
M 41.23 115.74 46.59 120.84 51.67 125.29 57.04 129.64 62.65 133.76 68.35 137.67 80.21 145.38 
M 126.76 94.66 135.16 103.06 
M 134.36 95.04 141.24 101.92 
M 141.77 95.22 152.28 105.74 
M 149.18 95.41 154.62 100.85 
M 156.63 95.65 167.41 106.43 
M 164.15 95.95 172.24 104.03 
M 171.83 96.4 178.74 103.31 
M 179.5 96.85 187.35 104.71 
M 187.16 97.29 196.24 106.37 
M 194.81 97.72 202.42 105.33 
M 202.53 98.22 212.05 107.74 
M 210.24 98.71 219.44 107.91 
M 217.91 99.16 225.59 106.84 
M 225.48 99.51 231.3 105.33 
M 233.07 99.88 243.75 110.56 
M 240.67 100.26 249.07 108.66 
M 248.26 100.62 258.88 111.25 
M 255.71 100.85 264.27 109.41 
M 263.12 101.05 270.94 108.86 
M 270.52 101.22 277.72 108.42 
M 277.93 101.41 287.11 110.6 
M 285.3 101.56 292.98 109.25 
M 292.65 101.69 302.33 111.37 
M 300.09 101.91 308.07 109.89 
M 307.68 102.28 314.71 109.31 
M 315.41 102.79 322.7 110.08 
M 323.29 103.45 331.91 112.07 
M 331.24 104.18 339.87 112.81 
M 339.14 104.86 344.88 110.6 
M 347.02 105.51 352.63 111.13 
M 354.92 106.19 362.54 113.81 
M 362.89 106.94 373.42 117.48 
M 370.92 107.76 379.14 115.98 
M 379.07 108.69 385.84 115.46 
M 387.45 109.84 397.77 120.16 
M 233.55 101.82 233.81 102.36 233.56 103.22 233.06 103.55 232.81 103.01 233.06 102.14 233.55 101.82 
M 233.17 102.01 233.46 102.53 233.28 103.42 232.81 103.78 232.52 103.26 232.7 102.37 233.17 102.01 
M 224.04 105.3 224.45 104.86 225.35 104.77 225.84 105.11 225.43 105.54 224.53 105.64 224.04 105.3 
M 224.64 105.82 224.73 105.23 225.41 104.64 226 104.64 225.92 105.23 225.24 105.82 224.64 105.82 
M 238.81 101.71 238.54 101.19 238.74 100.31 239.23 99.96 239.5 100.49 239.3 101.36 238.81 101.71 
M 239.03 101.52 238.84 100.96 239.18 100.12 239.72 99.85 239.91 100.42 239.56 101.26 239.03 101.52 
M 233.38 96.56 233.84 96.93 234 97.82 233.7 98.33 233.24 97.96 233.07 97.07 233.38 96.56 
M 233.08 96.94 233.59 97.23 233.89 98.09 233.67 98.64 233.15 98.34 232.85 97.49 233.08 96.94 
M 232.42 111.38 232.91 111.04 233.81 111.13 234.22 111.57 233.73 111.91 232.83 111.81 232.42 111.38 
M 233.99 111.64 233.39 111.68 232.68 111.12 232.56 110.54 233.16 110.51 233.87 111.06 233.99 111.64 
M 225.53 99.83 225.44 99.24 225.92 98.48 226.49 98.3 226.58 98.89 226.1 99.66 225.53 99.83 
M 226.47 99.58 225.95 99.27 225.66 98.42 225.89 97.87 226.41 98.17 226.69 99.03 226.47 99.58 
M 237.14 105.14 237.66 105.45 237.94 106.3 237.71 106.85 237.2 106.55 236.91 105.69 237.14 105.14 
M 237.51 105.32 237.62 105.9 237.16 106.68 236.6 106.87 236.49 106.28 236.95 105.51 237.51 105.32 
M 243.75 95.68 243.72 96.27 243.1 96.93 242.51 96.98 242.53 96.39 243.16 95.74 243.75 95.68 
M 243.42 96.95 243.01 96.52 242.98 95.61 243.36 95.15 243.76 95.59 243.8 96.49 243.42 96.95 
M 228.97 89.76 229.25 90.29 229.04 91.17 228.56 91.52 228.28 90.99 228.48 90.11 228.97 89.76 
M 228.08 90.72 228.63 90.47 229.49 90.74 229.81 91.25 229.26 91.49 228.4 91.22 228.08 90.72 
M 235.09 89.89 234.99 89.3 235.46 88.53 236.03 88.35 236.13 88.94 235.66 89.71 235.09 89.89 
M 235.33 88.47 235.69 88.94 235.63 89.85 235.22 90.27 234.85 89.8 234.91 88.89 235.33 88.47 
M 239.21 93.27 239.17 92.67 239.71 91.95 240.29 91.82 240.33 92.42 239.79 93.14 239.21 93.27 
M 240.17 93.09 239.68 92.75 239.46 91.88 239.73 91.34 240.21 91.68 240.44 92.56 240.17 93.09 
M 236.34 112.75 236.93 112.83 237.53 113.51 237.53 114.11 236.94 114.03 236.34 113.34 236.34 112.75 
M 236.25 113.48 236.8 113.26 237.66 113.55 237.96 114.06 237.41 114.29 236.55 114 236.25 113.48 
M 231.01 106.64 230.71 107.16 229.86 107.46 229.31 107.25 229.6 106.73 230.45 106.42 231.01 106.64 
M 230.48 106.34 230.37 106.92 229.67 107.49 229.07 107.46 229.18 106.88 229.88 106.31 230.48 106.34 
M 223.49 93.77 223.31 93.2 223.67 92.37 224.2 92.11 224.38 92.68 224.03 93.51 223.49 93.77 
M 224.48 92.67 224.03 93.06 223.12 93.06 222.67 92.66 223.13 92.28 224.03 92.28 224.48 92.67 
M 228.79 82.07 228.42 82.54 227.53 82.72 227.01 82.42 227.38 81.95 228.27 81.78 228.79 82.07 
M 227.23 82.41 227.74 82.1 228.63 82.25 229.01 82.71 228.5 83.02 227.61 82.87 227.23 82.41 
M 219.24 86.25 219.84 86.32 220.44 87 220.45 87.59 219.86 87.52 219.25 86.85 219.24 86.25 
M 220.15 86.3 220.06 86.89 219.38 87.49 218.78 87.49 218.87 86.9 219.55 86.3 220.15 86.3 
M 219.61 94.34 219.12 93.99 218.91 93.12 219.18 92.58 219.67 92.93 219.88 93.81 219.61 94.34 
M 218.91 92.98 219.44 93.25 219.78 94.09 219.59 94.65 219.05 94.38 218.72 93.54 218.91 92.98 
M 220.93 99.06 220.37 98.86 219.92 98.08 220.04 97.49 220.6 97.69 221.05 98.47 220.93 99.06 
M 219.85 98.02 220.44 98.06 221.08 98.7 221.13 99.29 220.53 99.25 219.89 98.62 219.85 98.02 
M 230.64 117.1 230.11 116.82 229.8 115.97 230.01 115.41 230.53 115.7 230.85 116.54 230.64 117.1 
M 229.94 116.82 230.11 116.25 230.87 115.77 231.46 115.86 231.29 116.43 230.53 116.91 229.94 116.82 
M 235.78 118.71 236.01 119.26 235.72 120.12 235.2 120.42 234.98 119.86 235.27 119.01 235.78 118.71 
M 235.55 120.25 235.32 119.7 235.61 118.84 236.12 118.54 236.35 119.09 236.06 119.94 235.55 120.25 
M 239.96 82.01 240.55 81.89 241.33 82.35 241.53 82.91 240.94 83.02 240.16 82.57 239.96 82.01 
M 240.99 83.1 240.62 82.63 240.65 81.73 241.05 81.29 241.43 81.76 241.4 82.66 240.99 83.1 
M 243.11 90.61 243.6 90.28 244.5 90.39 244.9 90.83 244.4 91.16 243.51 91.05 243.11 90.61 
M 244.24 90.07 244.21 90.67 243.59 91.33 243 91.39 243.03 90.79 243.64 90.13 244.24 90.07 
M 237.24 81.5 236.95 82.02 236.1 82.33 235.55 82.11 235.84 81.59 236.69 81.29 237.24 81.5 
M 236.96 82.2 236.39 82.02 235.91 81.25 236.01 80.67 236.58 80.84 237.05 81.61 236.96 82.2 
M 221.79 118.85 222.36 118.66 223.19 119.02 223.45 119.55 222.88 119.74 222.05 119.38 221.79 118.85 
M 222.28 118.6 222.72 119.01 222.81 119.91 222.47 120.4 222.04 119.99 221.94 119.09 222.28 118.6 
M 230.4 125.76 230.44 125 230.86 124.58 231.22 125.05 231.18 125.78 
M 230.7 125.77 230.93 124.76 231.44 124.46 231.67 125.01 231.4 125.78 
M 247.72 118.23 248.24 118.52 248.55 119.37 248.33 119.93 247.81 119.64 247.5 118.79 247.72 118.23 
M 248.29 118.44 248.24 119.04 247.59 119.67 247 119.7 247.05 119.11 247.69 118.48 248.29 118.44 
M 213.3 81.2 212.8 80.87 212.55 80 212.8 79.46 213.3 79.79 213.55 80.65 213.3 81.2 
M 212.47 80.69 212.86 80.24 213.75 80.1 214.25 80.42 213.87 80.87 212.98 81.01 212.47 80.69 
M 212.29 90.53 212.57 90.01 213.42 89.69 213.98 89.89 213.69 90.42 212.85 90.74 212.29 90.53 
M 213.63 90.69 213.09 90.43 212.74 89.6 212.92 89.03 213.46 89.29 213.81 90.12 213.63 90.69 
M 217.01 81.86 217.4 81.41 218.3 81.28 218.8 81.6 218.41 82.05 217.52 82.18 217.01 81.86 
M 217.63 81.1 218.02 81.55 218.03 82.45 217.64 82.91 217.25 82.46 217.24 81.56 217.63 81.1 
M 249.9 93.36 249.93 93.95 249.37 94.67 248.79 94.78 248.76 94.19 249.31 93.47 249.9 93.36 
M 249.6 93.43 249.55 94.03 248.91 94.67 248.32 94.71 248.36 94.11 249 93.47 249.6 93.43 
M 248.32 103.8 248.42 104.38 247.97 105.16 247.4 105.35 247.29 104.76 247.75 103.99 248.32 103.8 
M 248.47 104.9 247.88 104.79 247.31 104.09 247.33 103.49 247.92 103.6 248.49 104.3 248.47 104.9 
M 248.78 98.91 249.17 98.45 250.06 98.31 250.57 98.63 250.18 99.08 249.29 99.22 248.78 98.91 
M 249 98.92 249.52 98.61 250.41 98.78 250.78 99.25 250.26 99.55 249.38 99.38 249 98.92 
M 218.02 125.52 218.97 125.35 219.26 125.55 
M 218.45 125.53 218.45 125.07 218.83 124.62 219.23 125.07 219.23 125.55 
M 222.9 81.31 223.35 81.71 223.47 82.6 223.14 83.1 222.69 82.71 222.57 81.81 222.9 81.31 
M 222.62 82.77 222.8 82.2 223.57 81.73 224.16 81.83 223.98 82.4 223.21 82.87 222.62 82.77 
M 213 85.45 212.97 84.86 213.53 84.15 214.12 84.03 214.15 84.63 213.59 85.34 213 85.45 
M 212.94 84.46 213.53 84.53 214.14 85.2 214.15 85.8 213.56 85.72 212.95 85.06 212.94 84.46 
M 242.39 74.59 241.99 75.04 241.09 75.14 240.6 74.81 241 74.37 241.9 74.26 242.39 74.59 
M 242.03 74.27 241.7 74.77 240.83 75.01 240.29 74.75 240.62 74.26 241.49 74.02 242.03 74.27 
M 233.55 75.32 233.81 75.85 233.58 76.73 233.09 77.06 232.83 76.53 233.05 75.65 233.55 75.32 
M 234 76.28 233.41 76.39 232.64 75.92 232.45 75.35 233.04 75.25 233.81 75.72 234 76.28 
M 247.15 78.7 246.56 78.62 245.95 77.95 245.94 77.35 246.53 77.43 247.14 78.1 247.15 78.7 
M 247.1 77.62 246.75 78.1 245.87 78.3 245.34 78.02 245.7 77.54 246.58 77.34 247.1 77.62 
M 247.28 83.5 247.34 82.91 248 82.29 248.59 82.26 248.53 82.85 247.88 83.47 247.28 83.5 
M 248.5 83.28 247.93 83.1 247.46 82.33 247.55 81.74 248.12 81.92 248.6 82.69 248.5 83.28 
M 230.76 85.78 231.19 85.37 232.09 85.34 232.56 85.71 232.12 86.12 231.22 86.15 230.76 85.78 
M 230.98 85.85 231.51 85.58 232.39 85.81 232.73 86.3 232.19 86.56 231.32 86.34 230.98 85.85 
M 227.17 76.58 227.43 77.12 227.21 77.99 226.71 78.33 226.45 77.79 226.68 76.92 227.17 76.58 
M 226.29 77.67 226.77 77.32 227.67 77.4 228.09 77.83 227.6 78.18 226.7 78.1 226.29 77.67 
M 224.9 87.16 225.16 86.62 226 86.27 226.56 86.46 226.3 86.99 225.47 87.34 224.9 87.16 
M 226.38 86.59 225.9 86.94 225 86.87 224.58 86.44 225.06 86.09 225.96 86.16 226.38 86.59 
M 222.45 74.78 222.38 75.37 221.72 75.98 221.12 76 221.19 75.4 221.86 74.8 222.45 74.78 
M 222.43 75.15 221.96 75.52 221.06 75.47 220.63 75.06 221.1 74.69 222 74.74 222.43 75.15 
M 216.85 75.38 216.46 74.92 216.47 74.02 216.87 73.57 217.25 74.03 217.24 74.93 216.85 75.38 
M 217.48 74.19 217.04 74.59 216.14 74.61 215.68 74.23 216.12 73.83 217.02 73.81 217.48 74.19 
M 212.36 102.71 211.9 103.09 211 103.07 210.56 102.67 211.02 102.29 211.92 102.31 212.36 102.71 
M 211.59 102.02 211.66 102.61 211.16 103.36 210.58 103.51 210.51 102.92 211.02 102.17 211.59 102.02 
M 216.55 96.41 216.5 97 215.86 97.63 215.26 97.67 215.31 97.07 215.96 96.44 216.55 96.41 
M 216.26 96.45 216.13 97.03 215.4 97.56 214.8 97.51 214.94 96.93 215.66 96.4 216.26 96.45 
M 253.24 82.43 253.83 82.54 254.4 83.24 254.38 83.83 253.79 83.73 253.22 83.03 253.24 82.43 
M 253.95 82.46 254.01 83.05 253.49 83.79 252.92 83.94 252.85 83.35 253.37 82.61 253.95 82.46 
M 257.69 80.88 257.99 81.4 257.81 82.28 257.34 82.65 257.04 82.13 257.22 81.25 257.69 80.88 
M 257.48 81.08 257.69 81.64 257.37 82.48 256.85 82.77 256.64 82.21 256.96 81.36 257.48 81.08 
M 253.81 77.49 253.33 77.85 252.43 77.78 252.01 77.36 252.49 77 253.39 77.07 253.81 77.49 
M 252.79 76.75 253.07 77.28 252.86 78.16 252.37 78.5 252.1 77.98 252.31 77.1 252.79 76.75 
M 252.45 87.82 251.96 88.17 251.06 88.09 250.65 87.66 251.13 87.31 252.03 87.39 252.45 87.82 
M 251.59 88.43 251.37 87.87 251.68 87.02 252.2 86.73 252.42 87.29 252.11 88.14 251.59 88.43 
M 232.11 69.85 232.11 70.45 231.51 71.12 230.92 71.2 230.93 70.61 231.52 69.93 232.11 69.85 
M 232.2 70.55 231.63 70.71 230.81 70.33 230.57 69.78 231.14 69.62 231.96 70 232.2 70.55 
M 236.93 68.58 236.46 68.94 235.56 68.88 235.13 68.46 235.61 68.1 236.51 68.16 236.93 68.58 
M 235.68 67.93 236.13 68.33 236.25 69.22 235.92 69.72 235.47 69.33 235.35 68.43 235.68 67.93 
M 246.71 69.55 246.54 68.97 246.92 68.15 247.47 67.91 247.63 68.48 247.25 69.3 246.71 69.55 
M 246.79 68.11 247.2 68.54 247.24 69.44 246.87 69.91 246.46 69.48 246.42 68.58 246.79 68.11 
M 242.41 70.28 241.83 70.13 241.31 69.39 241.37 68.8 241.95 68.94 242.47 69.68 242.41 70.28 
M 241.21 69.44 241.8 69.34 242.57 69.81 242.75 70.38 242.16 70.48 241.39 70.01 241.21 69.44 
M 253.51 72.94 253.32 72.37 253.66 71.54 254.2 71.27 254.39 71.84 254.04 72.67 253.51 72.94 
M 253.8 71.42 254.02 71.97 253.73 72.83 253.22 73.13 252.99 72.58 253.28 71.72 253.8 71.42 
M 217.97 122.26 217.75 121.7 218.04 120.85 218.55 120.55 218.78 121.1 218.49 121.96 217.97 122.26 
M 218.78 121.85 218.23 121.62 217.84 120.8 218 120.23 218.54 120.46 218.94 121.28 218.78 121.85 
M 259.57 88.96 259.12 88.57 258.99 87.68 259.31 87.17 259.76 87.56 259.89 88.45 259.57 88.96 
M 258.8 88.32 259.26 87.94 260.16 87.96 260.6 88.37 260.14 88.75 259.24 88.72 258.8 88.32 
M 259.84 75.45 259.33 75.76 258.44 75.61 258.07 75.15 258.58 74.84 259.47 74.99 259.84 75.45 
M 259.21 75.94 258.83 75.47 258.86 74.57 259.26 74.13 259.64 74.6 259.61 75.5 259.21 75.94 
M 262.01 83.14 262.52 83.45 262.79 84.32 262.56 84.86 262.05 84.55 261.78 83.69 262.01 83.14 
M 262.49 83.35 262.49 83.94 261.91 84.63 261.32 84.72 261.31 84.12 261.9 83.44 262.49 83.35 
M 265.72 80.28 266.12 79.85 267.02 79.75 267.51 80.09 267.11 80.53 266.21 80.62 265.72 80.28 
M 266.66 80.87 266.44 80.32 266.75 79.47 267.27 79.17 267.48 79.73 267.18 80.58 266.66 80.87 
M 253.06 114.86 253.55 114.52 254.45 114.61 254.86 115.05 254.37 115.39 253.47 115.3 253.06 114.86 
M 254.58 114.65 254.15 115.06 253.25 115.11 252.77 114.75 253.2 114.33 254.1 114.28 254.58 114.65 
M 258.41 119.45 258.28 120.03 257.56 120.58 256.97 120.54 257.09 119.95 257.81 119.41 258.41 119.45 
M 257.77 119.31 257.88 119.9 257.42 120.68 256.86 120.87 256.75 120.28 257.21 119.5 257.77 119.31 
M 254.3 122.66 253.72 122.81 252.91 122.41 252.67 121.86 253.25 121.71 254.06 122.11 254.3 122.66 
M 253.2 121.64 253.6 122.08 253.62 122.98 253.25 123.44 252.84 123 252.82 122.1 253.2 121.64 
M 263.14 70.8 263.06 71.4 262.38 71.99 261.78 71.99 261.86 71.4 262.54 70.81 263.14 70.8 
M 262.92 71.91 262.4 71.61 262.11 70.76 262.33 70.2 262.85 70.5 263.14 71.35 262.92 71.91 
M 267.64 73.76 267.54 74.34 266.83 74.91 266.24 74.89 266.34 74.3 267.05 73.73 267.64 73.76 
M 267.61 74.15 267.1 74.47 266.21 74.33 265.82 73.87 266.33 73.56 267.22 73.7 267.61 74.15 
M 258.86 68.66 258.63 69.21 257.82 69.61 257.24 69.46 257.47 68.91 258.28 68.51 258.86 68.66 
M 257.57 68.57 258.1 68.85 258.43 69.69 258.23 70.25 257.7 69.97 257.37 69.14 257.57 68.57 
M 250.48 110.5 249.95 110.22 249.62 109.38 249.83 108.82 250.35 109.1 250.68 109.94 250.48 110.5 
M 250.83 109.79 250.23 109.86 249.49 109.35 249.34 108.77 249.93 108.7 250.67 109.21 250.83 109.79 
M 243.18 105.98 242.59 106.09 241.81 105.63 241.62 105.06 242.21 104.96 242.99 105.42 243.18 105.98 
M 242.39 106.21 242.22 105.64 242.58 104.81 243.12 104.56 243.3 105.13 242.93 105.96 242.39 106.21 
M 229.38 95.38 228.8 95.24 228.28 94.5 228.34 93.91 228.92 94.05 229.44 94.79 229.38 95.38 
M 228.55 94.03 228.97 94.45 229.03 95.35 228.68 95.83 228.25 95.41 228.19 94.51 228.55 94.03 
M 265.72 119.16 266.28 118.96 267.12 119.29 267.4 119.82 266.84 120.02 266 119.69 265.72 119.16 
M 267.14 119.12 266.76 119.58 265.87 119.72 265.36 119.41 265.74 118.95 266.63 118.8 267.14 119.12 
M 258.88 111.88 258.98 112.47 258.52 113.25 257.95 113.43 257.85 112.85 258.31 112.07 258.88 111.88 
M 258.88 113.16 258.36 112.87 258.06 112.02 258.28 111.46 258.8 111.76 259.1 112.61 258.88 113.16 
M 239.95 61.27 239.45 61.59 238.56 61.47 238.16 61.03 238.66 60.7 239.56 60.82 239.95 61.27 
M 238.39 60.98 238.99 60.94 239.71 61.49 239.83 62.07 239.23 62.11 238.51 61.56 238.39 60.98 
M 225.53 68.36 225.9 68.83 225.85 69.73 225.43 70.16 225.07 69.69 225.12 68.79 225.53 68.36 
M 225.78 68.64 225.7 69.23 225.02 69.83 224.42 69.83 224.5 69.24 225.18 68.64 225.78 68.64 
M 232.95 60.35 233.48 60.63 233.82 61.47 233.62 62.03 233.09 61.76 232.76 60.92 232.95 60.35 
M 232.69 61.53 233.1 61.09 233.99 60.99 234.48 61.33 234.08 61.77 233.18 61.87 232.69 61.53 
M 265.38 87.18 265.87 87.52 266.08 88.4 265.81 88.93 265.32 88.58 265.11 87.71 265.38 87.18 
M 264.91 87.98 265.5 87.86 266.28 88.3 266.48 88.87 265.9 88.98 265.11 88.54 264.91 87.98 
M 256.14 92.33 255.61 92.04 255.3 91.19 255.51 90.63 256.03 90.92 256.35 91.77 256.14 92.33 
M 256.1 92.11 255.71 91.66 255.7 90.76 256.08 90.3 256.48 90.75 256.49 91.65 256.1 92.11 
M 262.28 97.1 262.34 96.5 262.99 95.88 263.59 95.85 263.53 96.45 262.88 97.07 262.28 97.1 
M 262.91 95.79 263.11 96.35 262.78 97.19 262.26 97.47 262.06 96.91 262.38 96.07 262.91 95.79 
M 208.93 77.36 208.62 76.85 208.76 75.96 209.22 75.58 209.54 76.09 209.39 76.98 208.93 77.36 
M 209.76 76.53 209.18 76.66 208.39 76.23 208.17 75.68 208.76 75.55 209.55 75.97 209.76 76.53 
M 208.4 81.36 208.13 81.89 207.3 82.25 206.73 82.07 207 81.53 207.83 81.18 208.4 81.36 
M 208.25 81.69 207.69 81.89 206.85 81.56 206.57 81.03 207.13 80.83 207.97 81.16 208.25 81.69 
M 204.18 76.32 204.5 76.83 204.37 77.72 203.92 78.11 203.6 77.61 203.73 76.71 204.18 76.32 
M 204.09 77.9 203.87 77.34 204.18 76.5 204.7 76.2 204.92 76.76 204.61 77.61 204.09 77.9 
M 209.77 70.88 210.32 70.64 211.18 70.92 211.49 71.43 210.94 71.66 210.08 71.39 209.77 70.88 
M 210.64 70.47 210.81 71.04 210.45 71.86 209.91 72.12 209.73 71.54 210.1 70.72 210.64 70.47 
M 208.22 88.81 207.78 88.4 207.68 87.51 208.01 87.01 208.45 87.42 208.55 88.32 208.22 88.81 
M 207.46 88.11 207.95 87.77 208.85 87.88 209.25 88.32 208.76 88.65 207.86 88.55 207.46 88.11 
M 268.28 95.43 267.92 94.96 267.98 94.06 268.4 93.63 268.76 94.11 268.7 95.01 268.28 95.43 
M 268.92 94.9 268.34 94.75 267.84 94 267.91 93.41 268.48 93.56 268.99 94.31 268.92 94.9 
M 264.75 103.61 265.22 103.24 266.12 103.27 266.56 103.67 266.09 104.05 265.19 104.02 264.75 103.61 
M 265.34 103.03 265.76 103.45 265.82 104.35 265.46 104.83 265.04 104.4 264.98 103.5 265.34 103.03 
M 253.09 104.82 252.6 104.47 252.39 103.59 252.67 103.06 253.15 103.41 253.36 104.29 253.09 104.82 
M 252.58 103.32 252.99 103.76 253.03 104.66 252.66 105.13 252.25 104.69 252.21 103.79 252.58 103.32 
M 209.2 122.86 209.27 123.45 208.76 124.2 208.18 124.35 208.11 123.75 208.63 123.01 209.2 122.86 
M 209.35 123.41 208.86 123.74 207.96 123.64 207.56 123.2 208.05 122.87 208.95 122.97 209.35 123.41 
M 210.29 95.31 210.1 94.74 210.44 93.91 210.97 93.64 211.16 94.2 210.82 95.04 210.29 95.31 
M 211.31 94.4 210.77 94.64 209.91 94.38 209.59 93.87 210.13 93.63 211 93.89 211.31 94.4 
M 273.62 80.2 273.24 79.74 273.25 78.84 273.65 78.39 274.03 78.85 274.02 79.75 273.62 80.2 
M 272.97 79.46 273.48 79.15 274.37 79.29 274.75 79.75 274.24 80.06 273.35 79.92 272.97 79.46 
M 272.74 72.95 272.18 73.17 271.33 72.87 271.03 72.36 271.59 72.14 272.44 72.43 272.74 72.95 
M 272.57 72.69 271.99 72.84 271.18 72.44 270.95 71.89 271.53 71.74 272.34 72.14 272.57 72.69 
M 272.96 85.74 272.64 86.25 271.78 86.52 271.24 86.28 271.55 85.77 272.41 85.5 272.96 85.74 
M 272.76 86.17 272.17 86.22 271.45 85.67 271.32 85.09 271.91 85.05 272.64 85.59 272.76 86.17 
M 210.47 114.88 210.11 115.35 209.22 115.52 208.7 115.23 209.07 114.76 209.96 114.58 210.47 114.88 
M 210.27 115.15 209.68 115.25 208.91 114.78 208.73 114.21 209.32 114.11 210.09 114.58 210.27 115.15 
M 204.03 113.12 203.74 112.59 203.93 111.71 204.4 111.35 204.69 111.87 204.51 112.76 204.03 113.12 
M 204.54 111.62 204.43 112.21 203.73 112.78 203.14 112.77 203.24 112.18 203.94 111.61 204.54 111.62 
M 208.01 119.07 207.52 119.41 206.62 119.31 206.22 118.87 206.71 118.53 207.61 118.63 208.01 119.07 
M 206.99 118.29 207.27 118.82 207.07 119.7 206.59 120.05 206.31 119.53 206.51 118.65 206.99 118.29 
M 262.3 108.74 262.74 109.15 262.82 110.05 262.47 110.53 262.04 110.12 261.96 109.22 262.3 108.74 
M 262.83 109.11 262.6 109.66 261.79 110.06 261.22 109.91 261.45 109.36 262.26 108.96 262.83 109.11 
M 220.38 70.01 219.79 70.11 219.02 69.63 218.84 69.06 219.43 68.97 220.2 69.44 220.38 70.01 
M 220.02 68.99 219.83 69.55 219.05 70.01 218.46 69.89 218.66 69.33 219.44 68.88 220.02 68.99 
M 212.02 62.97 212.05 62.43 
M 213.27 61.88 213.25 62.29 212.61 62.93 212.02 62.97 
M 212.4 62.97 212.44 62.38 212.66 62.15 
M 213.67 61.7 213.63 62.29 212.99 62.93 212.4 62.97 
M 216.91 68.72 216.42 69.05 215.52 68.95 215.12 68.51 215.61 68.17 216.51 68.28 216.91 68.72 
M 215.98 69.3 215.83 68.72 216.23 67.91 216.78 67.68 216.93 68.26 216.53 69.07 215.98 69.3 
M 262.05 63.29 261.54 63.6 260.65 63.43 260.28 62.97 260.79 62.67 261.68 62.83 262.05 63.29 
M 261.85 63.09 261.29 63.31 260.44 63 260.15 62.48 260.71 62.26 261.56 62.57 261.85 63.09 
M 256.87 59.52 257.29 59.1 258.19 59.04 258.67 59.39 258.25 59.82 257.35 59.88 256.87 59.52 
M 258.36 59.1 257.97 59.55 257.07 59.68 256.57 59.36 256.96 58.91 257.86 58.78 258.36 59.1 
M 254.07 64 254.49 64.42 254.56 65.32 254.21 65.8 253.78 65.39 253.71 64.49 254.07 64 
M 253.53 64.59 254.12 64.69 254.69 65.38 254.68 65.98 254.09 65.88 253.51 65.19 253.53 64.59 
M 235.77 56.92 235.78 56.32 236.38 55.65 236.97 55.58 236.96 56.17 236.36 56.84 235.77 56.92 
M 236.15 56.9 236.16 56.3 236.76 55.63 237.36 55.55 237.35 56.15 236.74 56.82 236.15 56.9 
M 239.83 54.93 240.42 54.86 241.17 55.36 241.33 55.93 240.74 56.01 239.99 55.51 239.83 54.93 
M 240.27 54.82 240.69 55.24 240.75 56.14 240.38 56.62 239.97 56.19 239.91 55.29 240.27 54.82 
M 243.69 58.87 243.97 58.34 244.82 58.02 245.38 58.22 245.1 58.75 244.25 59.07 243.69 58.87 
M 245.2 58.72 244.6 58.75 243.89 58.2 243.78 57.61 244.37 57.58 245.08 58.14 245.2 58.72 
M 242.54 63.68 242.98 64.08 243.09 64.98 242.75 65.47 242.31 65.06 242.21 64.17 242.54 63.68 
M 243.07 65.12 242.58 64.78 242.35 63.9 242.61 63.37 243.11 63.71 243.33 64.58 243.07 65.12 
M 270.29 124.92 270.63 124.43 271.51 124.2 272.04 124.47 271.7 124.96 270.83 125.18 270.29 124.92 
M 271.45 125.32 271.05 124.87 271.03 123.97 271.41 123.51 271.82 123.96 271.83 124.86 271.45 125.32 
M 249.22 57.39 249.77 57.63 250.16 58.44 250 59.02 249.45 58.78 249.06 57.96 249.22 57.39 
M 250.18 58.59 249.61 58.42 249.12 57.66 249.21 57.07 249.78 57.24 250.27 58 250.18 58.59 
M 204.43 93.71 205.02 93.67 205.75 94.2 205.88 94.79 205.28 94.83 204.56 94.29 204.43 93.71 
M 205.76 94.57 205.17 94.46 204.61 93.76 204.63 93.16 205.22 93.27 205.78 93.98 205.76 94.57 
M 265.71 66.66 266.17 66.27 267.07 66.28 267.52 66.68 267.06 67.06 266.16 67.05 265.71 66.66 
M 266.47 65.99 266.77 66.51 266.59 67.4 266.12 67.76 265.82 67.25 266 66.36 266.47 65.99 
M 244.55 49.49 244.54 50.09 243.94 50.76 243.35 50.83 243.36 50.24 243.96 49.56 244.55 49.49 
M 243.26 50.1 243.84 49.97 244.64 50.39 244.86 50.95 244.28 51.08 243.48 50.66 243.26 50.1 
M 237.88 50.98 237.18 50.71 
M 237.91 50.52 237.88 50.98 
M 237.92 50.61 237.73 50.56 
M 237.93 50.51 237.92 50.61 
M 233.56 51.98 232.97 51.94 232.74 51.72 
M 233.52 51.47 233.56 51.98 
M 233.12 51.55 233.27 51.99 233.06 52.54 232.54 52.25 232.44 51.97 
M 239.4 87.93 239.5 87.34 240.19 86.76 240.79 86.77 240.69 87.36 240 87.94 239.4 87.93 
M 239.66 86.82 240.16 87.14 240.41 88.01 240.16 88.55 239.66 88.23 239.41 87.36 239.66 86.82 
M 197.24 113.22 196.65 113.14 196.06 112.46 196.05 111.86 196.64 111.95 197.24 112.62 197.24 113.22 
M 196.88 113.19 196.52 112.72 196.57 111.82 196.98 111.39 197.35 111.86 197.3 112.76 196.88 113.19 
M 204.63 104.55 204.38 105.09 203.55 105.45 202.98 105.27 203.24 104.73 204.06 104.37 204.63 104.55 
M 203.2 105.23 203.62 104.81 204.52 104.73 205 105.08 204.58 105.51 203.68 105.58 203.2 105.23 
M 230.83 66.56 230.33 66.88 229.44 66.75 229.05 66.3 229.55 65.98 230.44 66.11 230.83 66.56 
M 230.13 67.09 229.8 66.59 229.92 65.7 230.36 65.3 230.69 65.8 230.57 66.69 230.13 67.09 
M 237.82 77.47 237.23 77.58 236.45 77.14 236.25 76.58 236.83 76.46 237.62 76.9 237.82 77.47 
M 236.76 76.39 237.15 76.84 237.16 77.74 236.77 78.2 236.37 77.75 236.37 76.85 236.76 76.39 
M 203.83 88.39 203.78 88.98 203.14 89.62 202.55 89.66 202.59 89.06 203.23 88.43 203.83 88.39 
M 203.86 89.17 203.26 89.23 202.53 88.7 202.39 88.12 202.98 88.06 203.72 88.59 203.86 89.17 
M 272.91 90.76 273.29 91.23 273.26 92.13 272.86 92.57 272.48 92.11 272.51 91.21 272.91 90.76 
M 272.34 91.25 272.9 91.45 273.34 92.24 273.22 92.82 272.66 92.62 272.22 91.83 272.34 91.25 
M 228.18 62.53 227.79 62.08 227.79 61.17 228.18 60.72 228.57 61.17 228.57 62.08 228.18 62.53 
M 227.54 61.85 228.01 61.49 228.91 61.55 229.34 61.97 228.86 62.33 227.96 62.27 227.54 61.85 
M 274.75 107.48 274.54 108.04 273.75 108.48 273.17 108.36 273.37 107.8 274.16 107.36 274.75 107.48 
M 273.54 108.46 273.74 107.9 274.53 107.47 275.12 107.59 274.91 108.15 274.12 108.59 273.54 108.46 
M 222.7 63.52 222.17 63.25 221.83 62.42 222.02 61.85 222.55 62.12 222.89 62.96 222.7 63.52 
M 222.62 63.33 222.24 62.87 222.26 61.96 222.65 61.52 223.04 61.98 223.02 62.88 222.62 63.33 
M 252.39 53.82 251.81 53.96 251.01 53.54 250.79 52.99 251.37 52.85 252.17 53.27 252.39 53.82 
M 251.27 52.8 251.69 53.22 251.76 54.12 251.41 54.6 250.98 54.18 250.91 53.28 251.27 52.8 
M 282.96 106.42 282.91 107.01 282.25 107.64 281.66 107.66 281.71 107.07 282.37 106.45 282.96 106.42 
M 281.72 107.39 282.12 106.95 283.01 106.84 283.51 107.17 283.11 107.61 282.21 107.72 281.72 107.39 
M 274.75 114.47 275.12 114.94 275.08 115.84 274.67 116.28 274.3 115.81 274.34 114.91 274.75 114.47 
M 274.12 115.02 274.7 115.16 275.23 115.89 275.17 116.49 274.59 116.35 274.06 115.61 274.12 115.02 
M 276.27 87.61 276.85 87.44 277.67 87.82 277.91 88.36 277.34 88.53 276.52 88.15 276.27 87.61 
M 276.41 87.94 276.99 87.8 277.79 88.21 278.01 88.76 277.44 88.9 276.63 88.49 276.41 87.94 
M 277.83 84.87 277.27 84.67 276.83 83.88 276.95 83.29 277.51 83.5 277.95 84.29 277.83 84.87 
M 278.06 84.25 277.46 84.29 276.74 83.74 276.62 83.16 277.22 83.12 277.93 83.67 278.06 84.25 
M 280.13 96.37 280.24 95.78 280.95 95.22 281.55 95.24 281.44 95.83 280.73 96.39 280.13 96.37 
M 281.28 95.28 281.05 95.83 280.25 96.24 279.67 96.1 279.89 95.55 280.7 95.13 281.28 95.28 
M 218.96 115.53 218.75 116.09 217.96 116.52 217.38 116.39 217.59 115.83 218.38 115.4 218.96 115.53 
M 218.04 116.63 217.97 116.04 218.48 115.29 219.05 115.14 219.12 115.73 218.62 116.48 218.04 116.63 
M 279.27 120.2 278.67 120.18 278.02 119.56 277.96 118.96 278.55 118.99 279.21 119.61 279.27 120.2 
M 278.9 120.21 278.5 119.77 278.47 118.86 278.85 118.4 279.25 118.84 279.28 119.74 278.9 120.21 
M 273.48 120.18 274 119.89 274.89 120.07 275.25 120.54 274.74 120.83 273.85 120.66 273.48 120.18 
M 274.5 119.69 274.57 120.28 274.06 121.03 273.49 121.18 273.42 120.59 273.92 119.84 274.5 119.69 
M 209.7 66.29 210.29 66.23 211.03 66.75 211.17 67.33 210.58 67.39 209.84 66.87 209.7 66.29 
M 210.7 67.45 210.31 66.99 210.32 66.09 210.72 65.64 211.11 66.1 211.09 67 210.7 67.45 
M 281.73 73.19 281.17 73.39 280.33 73.05 280.05 72.53 280.62 72.33 281.46 72.66 281.73 73.19 
M 281.55 73.07 280.95 73.07 280.27 72.47 280.19 71.88 280.79 71.88 281.47 72.48 281.55 73.07 
M 256.61 50.75 256.68 51.32 256.17 52.06 255.6 52.22 255.53 51.63 256.03 50.88 256.55 50.74 
M 255.45 51.67 255.94 51.33 256.83 51.43 257.24 51.87 256.75 52.21 255.85 52.11 255.45 51.67 
M 276.74 67.56 276.74 68.16 276.14 68.84 275.55 68.92 275.55 68.33 276.15 67.65 276.74 67.56 
M 276.21 68.93 275.98 68.38 276.25 67.52 276.76 67.21 277 67.76 276.72 68.62 276.21 68.93 
M 278.96 77.2 279.23 77.73 279.03 78.61 278.54 78.96 278.27 78.43 278.47 77.55 278.96 77.2 
M 279.39 78.34 278.79 78.29 278.15 77.66 278.11 77.06 278.71 77.1 279.35 77.74 279.39 78.34 
M 274.16 62.96 274.06 63.54 273.37 64.12 272.77 64.11 272.87 63.52 273.56 62.94 274.16 62.96 
M 273.72 62.9 273.68 63.49 273.04 64.13 272.44 64.17 272.49 63.57 273.13 62.94 273.72 62.9 
M 247.62 63.88 247.07 63.65 246.68 62.84 246.83 62.26 247.38 62.5 247.77 63.31 247.62 63.88 
M 246.54 62.99 247.13 62.88 247.91 63.33 248.1 63.9 247.51 64.01 246.73 63.55 246.54 62.99 
M 279.7 64.75 279.21 64.41 278.98 63.54 279.24 63 279.73 63.34 279.97 64.21 279.7 64.75 
M 280.14 64.03 279.54 64.08 278.82 63.54 278.69 62.96 279.29 62.91 280.01 63.45 280.14 64.03 
M 268.18 55.81 268.66 55.44 269.56 55.49 269.99 55.91 269.51 56.27 268.61 56.22 268.18 55.81 
M 269.02 56.54 268.89 55.96 269.33 55.17 269.89 54.96 270.01 55.55 269.58 56.34 269.02 56.54 
M 277.29 60.26 276.69 60.21 276.06 59.57 276.01 58.98 276.61 59.02 277.25 59.66 277.29 60.26 
M 276.81 60.29 276.5 59.77 276.66 58.89 277.12 58.51 277.43 59.02 277.27 59.91 276.81 60.29 
M 273.8 55.85 273.83 55.51 
M 274.57 55.64 274.4 55.81 273.8 55.85 
M 273.85 55.55 273.88 55.52 
M 275.26 55.76 274.34 55.89 273.85 55.55 
M 282.09 59.19 282.35 59.72 282.13 60.6 281.64 60.94 281.37 60.41 281.6 59.53 282.09 59.19 
M 282.11 59.42 282.07 60.02 281.45 60.67 280.85 60.72 280.88 60.13 281.51 59.48 282.11 59.42 
M 269.24 60.7 268.67 60.85 267.85 60.46 267.62 59.91 268.19 59.75 269.01 60.15 269.24 60.7 
M 269.12 60.29 268.55 60.48 267.72 60.14 267.44 59.61 268.01 59.42 268.85 59.76 269.12 60.29 
M 278.96 56.05 278.78 56.05 
M 199.15 78.97 198.81 78.48 198.91 77.58 199.34 77.17 199.68 77.66 199.59 78.56 199.15 78.97 
M 199.88 78.33 199.29 78.28 198.66 77.64 198.62 77.04 199.22 77.09 199.85 77.74 199.88 78.33 
M 200.55 82.82 201.14 82.86 201.78 83.5 201.82 84.1 201.22 84.06 200.59 83.42 200.55 82.82 
M 200.99 82.8 201.32 83.29 201.22 84.19 200.78 84.59 200.44 84.1 200.55 83.2 200.99 82.8 
M 192.88 78.89 193.34 78.51 194.24 78.53 194.68 78.94 194.22 79.31 193.32 79.29 192.88 78.89 
M 194.26 79.4 193.73 79.12 193.41 78.28 193.61 77.72 194.14 78 194.46 78.84 194.26 79.4 
M 197.65 89.81 198.04 89.35 198.93 89.22 199.43 89.54 199.05 89.99 198.15 90.13 197.65 89.81 
M 198.28 89.04 198.66 89.49 198.65 90.4 198.25 90.84 197.87 90.38 197.88 89.48 198.28 89.04 
M 194.64 91 194.23 91.44 193.34 91.53 192.85 91.19 193.25 90.76 194.15 90.66 194.64 91 
M 193.18 91.49 193.54 91.02 194.42 90.83 194.95 91.11 194.59 91.59 193.71 91.78 193.18 91.49 
M 197.89 123.58 197.31 123.68 196.53 123.22 196.34 122.65 196.93 122.55 197.7 123.01 197.89 123.58 
M 196.6 123.57 196.91 123.06 197.76 122.77 198.32 123 198.01 123.51 197.16 123.8 196.6 123.57 
M 194.65 117.65 194.09 117.86 193.25 117.54 192.97 117.01 193.53 116.81 194.37 117.13 194.65 117.65 
M 194.33 116.88 194.02 117.39 193.16 117.67 192.61 117.44 192.92 116.93 193.78 116.65 194.33 116.88 
M 193.09 123.62 192.61 123.98 191.71 123.91 191.29 123.49 191.77 123.13 192.67 123.2 193.09 123.62 
M 192.87 123.64 192.29 123.75 191.51 123.3 191.31 122.73 191.9 122.62 192.68 123.07 192.87 123.64 
M 190.75 84.81 190.54 85.38 189.75 85.81 189.17 85.69 189.37 85.13 190.16 84.69 190.75 84.81 
M 189.53 85.79 189.74 85.23 190.54 84.8 191.12 84.93 190.91 85.49 190.11 85.92 189.53 85.79 
M 290.83 97.61 290.61 98.16 289.8 98.56 289.22 98.42 289.45 97.87 290.25 97.46 290.83 97.61 
M 290.71 98.02 290.14 98.2 289.32 97.83 289.06 97.29 289.63 97.12 290.46 97.48 290.71 98.02 
M 281.61 89.28 281.6 88.68 282.17 87.98 282.76 87.88 282.77 88.48 282.2 89.17 281.61 89.28 
M 281.62 88.97 281.98 88.5 282.87 88.31 283.39 88.61 283.02 89.08 282.14 89.26 281.62 88.97 
M 276.31 96.68 275.76 96.46 275.33 95.67 275.47 95.09 276.02 95.3 276.45 96.1 276.31 96.68 
M 275.64 95.24 276.02 95.71 275.99 96.61 275.59 97.05 275.21 96.59 275.23 95.68 275.64 95.24 
M 285.33 101.78 285.03 101.26 285.22 100.38 285.69 100.01 285.98 100.54 285.8 101.42 285.33 101.78 
M 285.81 101.51 285.4 101.09 285.35 100.18 285.71 99.71 286.13 100.14 286.18 101.04 285.81 101.51 
M 286.18 92.82 286.19 93.41 285.6 94.1 285.01 94.19 285.01 93.59 285.59 92.91 286.18 92.82 
M 285.68 94.19 285.43 93.64 285.68 92.78 286.18 92.45 286.43 92.99 286.18 93.86 285.68 94.19 
M 192.66 100.09 193.09 100.5 193.18 101.4 192.84 101.89 192.4 101.48 192.31 100.58 192.66 100.09 
M 193.1 101.58 192.65 101.19 192.53 100.29 192.86 99.79 193.31 100.19 193.43 101.08 193.1 101.58 
M 189.38 110.12 189.72 109.63 190.6 109.41 191.13 109.68 190.79 110.17 189.91 110.39 189.38 110.12 
M 189.85 109.35 190.33 109.7 190.54 110.58 190.26 111.11 189.78 110.76 189.57 109.88 189.85 109.35 
M 193.62 105.07 193.16 105.45 192.25 105.41 191.82 105 192.28 104.63 193.19 104.66 193.62 105.07 
M 193.4 104.91 192.87 105.19 191.99 105 191.63 104.52 192.16 104.24 193.04 104.43 193.4 104.91 
M 289.21 65.35 288.62 65.38 287.91 64.82 287.79 64.23 288.39 64.2 289.1 64.76 289.21 65.35 
M 287.82 64.88 288.36 64.63 289.23 64.87 289.56 65.37 289.02 65.62 288.15 65.38 287.82 64.88 
M 289.56 58.7 289.25 58.19 289.42 57.3 289.88 56.92 290.18 57.44 290.02 58.33 289.56 58.7 
M 290.4 57.74 289.86 57.98 288.99 57.71 288.68 57.21 289.23 56.97 290.09 57.23 290.4 57.74 
M 287.87 105.18 288.18 105.69 288.04 106.58 287.58 106.97 287.27 106.46 287.41 105.57 287.87 105.18 
M 287.85 106.75 287.57 106.22 287.77 105.34 288.25 104.99 288.53 105.52 288.33 106.4 287.85 106.75 
M 289.07 86.9 289.12 87.49 288.58 88.22 287.99 88.35 287.95 87.75 288.49 87.03 289.07 86.9 
M 288.88 87.03 288.75 87.61 288.03 88.15 287.43 88.11 287.56 87.53 288.28 86.98 288.88 87.03 
M 293 92.24 292.9 92.83 292.21 93.41 291.61 93.4 291.71 92.81 292.4 92.23 293 92.24 
M 291.69 93.13 292.12 92.71 293.02 92.64 293.49 93 293.07 93.42 292.17 93.49 291.69 93.13 
M 282.57 83.34 283.04 83.7 283.24 84.58 282.95 85.1 282.47 84.74 282.28 83.86 282.57 83.34 
M 282.1 84.03 282.69 84.01 283.4 84.58 283.5 85.17 282.9 85.19 282.2 84.62 282.1 84.03 
M 284.73 78.81 284.26 79.17 283.36 79.1 282.93 78.68 283.41 78.32 284.31 78.39 284.73 78.81 
M 283.18 78.53 283.78 78.54 284.45 79.14 284.53 79.73 283.93 79.72 283.26 79.12 283.18 78.53 
M 196.2 83.48 196.4 84.04 196.07 84.88 195.54 85.16 195.34 84.59 195.67 83.75 196.2 83.48 
M 195.46 84.87 195.66 84.3 196.43 83.85 197.02 83.96 196.83 84.52 196.05 84.98 195.46 84.87 
M 189.05 79.54 189.17 79.87 188.85 80.71 188.33 81 188.12 80.44 188.22 80.18 
M 188.06 80.51 188.45 80.06 189.35 79.93 189.85 80.26 189.46 80.71 188.56 80.83 188.06 80.51 
M 269.99 117.25 270.31 116.75 271.17 116.48 271.72 116.73 271.4 117.23 270.54 117.5 269.99 117.25 
M 270.7 117.66 270.65 117.06 271.19 116.34 271.77 116.21 271.82 116.81 271.28 117.53 270.7 117.66 
M 202.14 99.49 201.87 98.95 202.1 98.08 202.59 97.74 202.86 98.27 202.63 99.15 202.14 99.49 
M 202.61 97.97 202.58 98.57 201.95 99.22 201.36 99.27 201.39 98.68 202.01 98.02 202.61 97.97 
M 249.31 74.67 248.84 74.29 248.69 73.4 249 72.89 249.46 73.27 249.61 74.16 249.31 74.67 
M 249.71 73.38 249.35 73.86 248.47 74.04 247.95 73.75 248.31 73.28 249.19 73.09 249.71 73.38 
M 198.9 94.01 199.45 94.25 199.82 95.07 199.66 95.65 199.11 95.4 198.74 94.58 198.9 94.01 
M 198.6 94.73 199.19 94.63 199.96 95.1 200.14 95.67 199.55 95.77 198.78 95.3 198.6 94.73 
M 290.8 53.97 290.79 53.97 
M 265.22 53.09 264.97 53.63 264.14 53.99 263.57 53.82 263.83 53.28 264.65 52.91 265.22 53.09 
M 264.83 53.98 264.33 53.66 264.08 52.79 264.26 52.4 
M 264.72 52.5 265.08 53.44 264.83 53.98 
M 286.12 118.56 285.54 118.44 285 117.71 285.05 117.12 285.63 117.25 286.17 117.97 286.12 118.56 
M 285.47 118.52 285.39 117.93 285.87 117.17 286.44 117 286.53 117.59 286.05 118.35 285.47 118.52 
M 296.55 96.14 296.65 96.72 296.19 97.5 295.62 97.69 295.52 97.1 295.98 96.32 296.55 96.14 
M 296.51 96.37 296.3 96.93 295.51 97.36 294.93 97.24 295.13 96.68 295.93 96.24 296.51 96.37 
M 298.18 102.37 298.51 102.87 298.4 103.77 297.95 104.16 297.62 103.67 297.74 102.77 298.18 102.37 
M 297.53 102.84 298.09 103.05 298.51 103.85 298.38 104.43 297.83 104.22 297.4 103.42 297.53 102.84 
M 297.99 88.86 297.48 89.18 296.59 89.04 296.2 88.59 296.71 88.27 297.6 88.41 297.99 88.86 
M 296.48 89.04 296.91 88.62 297.81 88.55 298.28 88.91 297.86 89.33 296.96 89.4 296.48 89.04 
M 302.12 91.36 301.54 91.23 301 90.51 301.04 89.91 301.62 90.04 302.17 90.76 302.12 91.36 
M 302.11 90.19 301.79 90.7 300.93 90.97 300.38 90.73 300.7 90.22 301.56 89.95 302.11 90.19 
M 305.92 103.15 305.84 102.56 306.34 101.8 306.92 101.64 306.99 102.23 306.5 102.99 305.92 103.15 
M 307.09 102.56 306.49 102.6 305.77 102.06 305.64 101.48 306.23 101.43 306.96 101.97 307.09 102.56 
M 301.61 96.44 301.57 97.03 300.94 97.68 300.34 97.73 300.38 97.13 301.01 96.49 301.61 96.44 
M 301.17 97.74 300.84 97.25 300.94 96.35 301.38 95.95 301.71 96.44 301.61 97.34 301.17 97.74 
M 285.35 64.3 284.83 64.6 283.95 64.43 283.58 63.97 284.09 63.66 284.98 63.83 285.35 64.3 
M 283.83 64.4 284.28 64.01 285.19 64.02 285.63 64.42 285.18 64.8 284.27 64.79 283.83 64.4 
M 183.37 109.76 183.83 109.39 184.74 109.43 185.17 109.84 184.7 110.21 183.8 110.17 183.37 109.76 
M 183.97 110.42 184.05 109.82 184.73 109.23 185.33 109.22 185.25 109.82 184.57 110.41 183.97 110.42 
M 188.44 96.11 189 95.88 189.85 96.17 190.15 96.69 189.6 96.91 188.75 96.63 188.44 96.11 
M 188.68 96.71 189.11 96.29 190.01 96.23 190.49 96.6 190.06 97.01 189.16 97.07 188.68 96.71 
M 295.13 83.37 295.67 83.61 296.05 84.43 295.89 85.01 295.35 84.76 294.97 83.94 295.13 83.37 
M 296.05 83.77 295.72 84.26 294.84 84.48 294.31 84.22 294.64 83.73 295.52 83.5 296.05 83.77 
M 188.81 115.47 188.28 115.19 187.96 114.34 188.16 113.78 188.69 114.06 189.01 114.91 188.81 115.47 
M 187.83 114.82 188.32 114.48 189.22 114.59 189.62 115.03 189.12 115.37 188.23 115.26 187.83 114.82 
M 181.76 94.26 181.2 94.49 180.35 94.19 180.05 93.68 180.6 93.45 181.46 93.75 181.76 94.26 
M 180.43 93.47 180.95 93.76 181.26 94.61 181.05 95.16 180.53 94.88 180.22 94.03 180.43 93.47 
M 185.28 89.6 184.75 89.32 184.42 88.48 184.62 87.92 185.15 88.19 185.48 89.03 185.28 89.6 
M 184.85 89.44 184.76 88.85 185.23 88.08 185.8 87.9 185.9 88.49 185.42 89.26 184.85 89.44 
M 183.11 97.96 183.69 98.12 184.2 98.87 184.12 99.46 183.55 99.31 183.04 98.56 183.11 97.96 
M 183.66 99.4 183.44 98.84 183.75 97.99 184.27 97.7 184.49 98.26 184.18 99.11 183.66 99.4 
M 307.38 93.16 306.79 93.25 306.03 92.77 305.86 92.19 306.45 92.11 307.21 92.59 307.38 93.16 
M 306.95 92.08 306.83 92.66 306.12 93.22 305.53 93.19 305.64 92.61 306.35 92.05 306.95 92.08 
M 310.02 97.8 309.54 97.44 309.36 96.56 309.65 96.04 310.12 96.4 310.31 97.28 310.02 97.8 
M 310.5 97.08 309.91 97.12 309.18 96.59 309.05 96.01 309.64 95.96 310.37 96.49 310.5 97.08 
M 286.19 73.09 286.32 73.67 285.91 74.47 285.35 74.69 285.21 74.11 285.63 73.31 286.19 73.09 
M 286.04 73.26 285.98 73.85 285.33 74.47 284.73 74.5 284.79 73.9 285.45 73.28 286.04 73.26 
M 293.7 121.44 294.19 121.78 294.42 122.65 294.15 123.19 293.66 122.85 293.43 121.97 293.7 121.44 
M 294.6 122.46 294 122.52 293.27 121.99 293.12 121.41 293.72 121.36 294.45 121.88 294.6 122.46 
M 295.71 127.03 296.59 126.68 297.15 126.9 297.06 127.06 
M 295.95 127.03 295.69 126.78 295.64 126.19 296.24 126.22 296.89 126.85 296.9 127.05 
M 302.63 84.83 302.85 84.28 303.66 83.86 304.24 84.01 304.01 84.56 303.21 84.97 302.63 84.83 
M 303.1 83.82 303.53 84.23 303.63 85.12 303.29 85.61 302.86 85.21 302.76 84.31 303.1 83.82 
M 308.7 87.15 308.34 87.64 307.46 87.84 306.94 87.56 307.29 87.08 308.17 86.88 308.7 87.15 
M 308.31 86.88 308.03 87.41 307.18 87.73 306.62 87.53 306.9 87 307.75 86.68 308.31 86.88 
M 286.21 111.59 286.77 111.4 287.61 111.75 287.87 112.29 287.31 112.47 286.47 112.13 286.21 111.59 
M 287.6 112.34 287.03 112.16 286.56 111.38 286.66 110.8 287.23 110.98 287.7 111.75 287.6 112.34 
M 181.87 86 181.49 85.79 
M 182.02 85.3 181.87 86 
M 181.77 85.54 181.85 85.82 181.58 86.36 181.17 86.08 
M 177.42 98.4 177.77 97.92 178.65 97.72 179.18 98 178.83 98.48 177.95 98.68 177.42 98.4 
M 178.85 98.61 178.29 98.42 177.83 97.64 177.94 97.05 178.51 97.24 178.96 98.02 178.85 98.61 
M 178.72 111.51 178.87 110.93 179.61 110.41 180.2 110.47 180.06 111.05 179.32 111.57 178.72 111.51 
M 178.78 110.92 179.36 110.8 180.15 111.23 180.36 111.8 179.77 111.92 178.98 111.48 178.78 110.92 
M 175.17 122.09 174.73 122.5 173.82 122.52 173.36 122.14 173.8 121.74 174.7 121.71 175.17 122.09 
M 174.4 122.79 174.11 122.27 174.3 121.39 174.77 121.03 175.06 121.55 174.87 122.43 174.4 122.79 
M 288.51 81.57 289.09 81.71 289.61 82.44 289.56 83.04 288.98 82.9 288.45 82.17 288.51 81.57 
M 289.72 82.31 289.15 82.49 288.33 82.12 288.07 81.58 288.64 81.41 289.47 81.77 289.72 82.31 
M 165.77 120.47 165.51 121 164.68 121.36 164.11 121.18 164.37 120.64 165.2 120.28 165.77 120.47 
M 164.87 121.5 164.75 120.92 165.19 120.13 165.75 119.93 165.87 120.51 165.43 121.3 164.87 121.5 
M 176.42 105.09 176.48 105.68 175.96 106.42 175.38 106.57 175.32 105.97 175.84 105.23 176.42 105.09 
M 175.3 105.5 175.88 105.61 176.44 106.32 176.41 106.92 175.82 106.8 175.27 106.09 175.3 105.5 
M 294.71 56.99 295.2 56.64 296.1 56.74 296.5 57.17 296.01 57.51 295.12 57.42 294.71 56.99 
M 294.96 57.31 295.43 56.95 296.33 57.01 296.76 57.42 296.28 57.79 295.38 57.73 294.96 57.31 
M 297.59 65.92 298.01 65.5 298.91 65.43 299.39 65.79 298.97 66.21 298.07 66.28 297.59 65.92 
M 298.97 65.36 298.71 65.9 297.87 66.24 297.31 66.05 297.57 65.52 298.41 65.18 298.97 65.36 
M 313.52 104.6 313.85 105.1 313.73 105.99 313.28 106.39 312.95 105.89 313.07 105 313.52 104.6 
M 312.75 105.72 313.23 105.36 314.13 105.42 314.55 105.84 314.08 106.2 313.18 106.14 312.75 105.72 
M 315.78 100.14 316.15 100.6 316.11 101.5 315.7 101.94 315.33 101.47 315.37 100.57 315.78 100.14 
M 316.21 100.53 315.95 101.07 315.13 101.44 314.56 101.27 314.81 100.73 315.63 100.36 316.21 100.53 
M 299.3 120.17 298.88 120.59 297.98 120.64 297.5 120.28 297.93 119.86 298.83 119.81 299.3 120.17 
M 297.76 120.48 298.22 120.1 299.13 120.12 299.57 120.52 299.11 120.9 298.21 120.88 297.76 120.48 
M 320.89 103.78 320.44 103.39 320.31 102.49 320.63 101.99 321.08 102.38 321.21 103.27 320.89 103.78 
M 320.65 102.21 320.92 102.74 320.7 103.61 320.21 103.96 319.94 103.43 320.16 102.55 320.65 102.21 
M 313.13 114.83 312.73 114.38 312.71 113.48 313.1 113.02 313.49 113.47 313.51 114.37 313.13 114.83 
M 313.69 114.29 313.12 114.14 312.6 113.4 312.67 112.81 313.24 112.96 313.76 113.7 313.69 114.29 
M 293.58 62 293.17 62.43 292.27 62.5 291.78 62.15 292.2 61.72 293.1 61.65 293.58 62 
M 293.09 62.63 292.61 62.28 292.4 61.4 292.67 60.87 293.16 61.22 293.37 62.1 293.09 62.63 
M 182.17 105.8 181.57 105.82 180.87 105.25 180.76 104.67 181.36 104.65 182.06 105.21 182.17 105.8 
M 182.15 105.14 181.61 105.4 180.74 105.16 180.41 104.66 180.94 104.41 181.82 104.64 182.15 105.14 
M 290.33 69.62 290.26 70.21 289.59 70.82 289 70.84 289.07 70.25 289.73 69.64 290.33 69.62 
M 289.24 69.69 289.73 70.02 289.96 70.9 289.7 71.43 289.21 71.1 288.98 70.22 289.24 69.69 
M 171.59 98.81 171.81 98.25 172.61 97.83 173.19 97.96 172.97 98.52 172.18 98.94 171.59 98.81 
M 172.63 99.03 172.26 98.56 172.3 97.66 172.71 97.22 173.08 97.69 173.04 98.59 172.63 99.03 
M 216.02 61.3 216.61 61.38 217.22 62.05 217.23 62.64 216.63 62.57 216.03 61.9 216.02 61.3 
M 216.87 61.33 216.84 61.93 216.21 62.57 215.61 62.62 215.65 62.03 216.28 61.38 216.87 61.33 
M 162.27 108.67 162.85 108.8 163.38 109.53 163.33 110.13 162.75 109.99 162.22 109.26 162.27 108.67 
M 162.23 109.79 162.6 109.32 163.48 109.14 164 109.43 163.64 109.9 162.75 110.08 162.23 109.79 
M 160.7 98.51 161.28 98.64 161.82 99.36 161.78 99.96 161.19 99.83 160.65 99.11 160.7 98.51 
M 160.86 99.81 161.02 99.23 161.77 98.73 162.36 98.81 162.21 99.38 161.46 99.88 160.86 99.81 
M 161.35 105.01 160.84 104.7 160.57 103.84 160.8 103.29 161.31 103.6 161.58 104.46 161.35 105.01 
M 161.67 103.8 161.27 104.24 160.37 104.36 159.88 104.03 160.27 103.58 161.17 103.47 161.67 103.8 
M 167.82 98.74 167.38 98.34 167.26 97.45 167.59 96.95 168.03 97.34 168.15 98.24 167.82 98.74 
M 167.05 98.05 167.54 97.7 168.43 97.79 168.85 98.22 168.36 98.57 167.46 98.48 167.05 98.05 
M 169.85 116.61 169.29 116.81 168.45 116.5 168.16 115.97 168.72 115.76 169.57 116.08 169.85 116.61 
M 168.57 116.82 168.79 116.27 169.59 115.85 170.17 115.99 169.96 116.54 169.16 116.96 168.57 116.82 
M 301.27 61.63 300.71 61.83 299.87 61.5 299.6 60.97 300.16 60.77 301 61.1 301.27 61.63 
M 300.76 60.7 300.65 61.28 299.95 61.85 299.35 61.82 299.46 61.24 300.16 60.67 300.76 60.7 
M 305.82 64.62 306.1 64.09 306.95 63.77 307.51 63.98 307.23 64.5 306.38 64.82 305.82 64.62 
M 306.71 63.61 306.85 64.19 306.44 64.99 305.89 65.21 305.75 64.63 306.16 63.83 306.71 63.61 
M 157.58 107.32 157 107.43 156.21 106.99 156.01 106.43 156.6 106.31 157.38 106.75 157.58 107.32 
M 157.2 107.43 156.72 107.07 156.53 106.19 156.81 105.67 157.29 106.03 157.48 106.91 157.2 107.43 
M 227 73.37 227.56 73.18 228.4 73.52 228.66 74.06 228.1 74.25 227.26 73.9 227 73.37 
M 227.93 73.03 228.03 73.62 227.55 74.39 226.98 74.56 226.89 73.97 227.36 73.21 227.93 73.03 
M 154.39 102.72 153.79 102.71 153.12 102.11 153.05 101.51 153.64 101.53 154.32 102.13 154.39 102.72 
M 153.03 102.12 153.6 101.94 154.43 102.29 154.7 102.82 154.13 103.01 153.3 102.66 153.03 102.12 
M 326.02 99.43 325.54 99.78 324.64 99.7 324.22 99.28 324.7 98.93 325.6 99 326.02 99.43 
M 325.51 99.92 325.04 99.55 324.85 98.67 325.14 98.15 325.62 98.51 325.8 99.39 325.51 99.92 
M 314.22 91.49 314.82 91.52 315.48 92.14 315.54 92.73 314.94 92.71 314.28 92.09 314.22 91.49 
M 314.48 92.67 314.66 92.1 315.44 91.64 316.03 91.75 315.84 92.31 315.06 92.77 314.48 92.67 
M 303.43 121.4 303.36 121.99 302.7 122.6 302.1 122.62 302.17 122.03 302.84 121.42 303.43 121.4 
M 302.71 121.33 302.94 121.88 302.65 122.73 302.14 123.04 301.91 122.48 302.2 121.63 302.71 121.33 
M 294.55 70.62 294.92 71.09 294.88 71.99 294.47 72.43 294.1 71.96 294.14 71.06 294.55 70.62 
M 295.19 71.65 294.59 71.72 293.84 71.23 293.68 70.65 294.27 70.57 295.03 71.07 295.19 71.65 
M 300.8 71.31 300.33 70.93 300.17 70.04 300.48 69.53 300.94 69.9 301.1 70.79 300.8 71.31 
M 301.28 70.17 300.81 70.54 299.91 70.51 299.47 70.11 299.94 69.73 300.84 69.76 301.28 70.17 
M 301.14 74.17 300.96 74.74 300.2 75.22 299.61 75.13 299.78 74.56 300.55 74.08 301.14 74.17 
M 301.02 74.9 300.42 74.86 299.77 74.23 299.72 73.64 300.32 73.67 300.96 74.3 301.02 74.9 
M 294.62 77.44 295.07 77.05 295.98 77.04 296.43 77.43 295.98 77.83 295.08 77.83 294.62 77.44 
M 295.78 76.8 295.74 77.4 295.1 78.04 294.51 78.08 294.55 77.48 295.18 76.84 295.78 76.8 
M 151.28 108.96 150.69 108.86 150.12 108.16 150.14 107.56 150.73 107.66 151.3 108.36 151.28 108.96 
M 151.25 107.83 150.92 108.33 150.05 108.57 149.51 108.32 149.84 107.82 150.71 107.58 151.25 107.83 
M 161.02 119.98 161.25 120.53 160.97 121.39 160.46 121.7 160.23 121.15 160.51 120.29 161.02 119.98 
M 160.13 120.51 160.72 120.62 161.28 121.33 161.26 121.93 160.67 121.82 160.11 121.11 160.13 120.51 
M 156.25 120.61 156.38 121.19 155.94 121.98 155.38 122.19 155.25 121.6 155.69 120.81 156.25 120.61 
M 155.2 121.1 155.79 121.18 156.38 121.87 156.38 122.46 155.79 122.38 155.2 121.69 155.2 121.1 
M 306.43 72.98 305.99 73.38 305.09 73.41 304.62 73.03 305.06 72.62 305.97 72.6 306.43 72.98 
M 304.94 73.36 305.33 72.91 306.22 72.78 306.73 73.11 306.33 73.56 305.44 73.68 304.94 73.36 
M 308.5 69.92 308.61 69.33 309.31 68.77 309.91 68.8 309.8 69.38 309.09 69.94 308.5 69.92 
M 309.85 69.13 309.37 69.49 308.47 69.42 308.05 69 308.53 68.64 309.43 68.71 309.85 69.13 
M 300.24 115.96 299.75 115.63 299.51 114.76 299.77 114.22 300.27 114.55 300.5 115.42 300.24 115.96 
M 300.61 114.76 300.2 115.19 299.3 115.28 298.82 114.93 299.23 114.5 300.13 114.41 300.61 114.76 
M 153.35 116.99 152.81 116.74 152.45 115.91 152.63 115.34 153.17 115.6 153.53 116.42 153.35 116.99 
M 152.74 115.53 153.12 115.99 153.1 116.89 152.69 117.33 152.31 116.87 152.33 115.97 152.74 115.53 
M 152.79 97.09 153.37 97.25 153.86 98.01 153.78 98.6 153.21 98.44 152.71 97.68 152.79 97.09 
M 153.61 98.45 153.18 98.03 153.11 97.13 153.46 96.65 153.89 97.07 153.96 97.97 153.61 98.45 
M 292.25 76.49 291.84 76.93 290.95 77.03 290.45 76.7 290.86 76.26 291.75 76.15 292.25 76.49 
M 292.04 76.62 291.46 76.78 290.65 76.39 290.41 75.84 290.99 75.68 291.8 76.08 292.04 76.62 
M 303.94 79.3 303.35 79.27 302.69 78.65 302.63 78.06 303.23 78.08 303.88 78.7 303.94 79.3 
M 302.62 78.82 303.13 78.52 304.02 78.7 304.39 79.17 303.87 79.47 302.98 79.29 302.62 78.82 
M 193.85 96.51 193.76 95.92 194.23 95.16 194.8 94.98 194.9 95.57 194.42 96.34 193.85 96.51 
M 194.65 95.14 194.54 95.73 193.84 96.29 193.24 96.27 193.35 95.68 194.06 95.12 194.65 95.14 
M 143.74 100.58 144.3 100.36 145.15 100.66 145.44 101.17 144.89 101.39 144.04 101.1 143.74 100.58 
M 145.27 100.77 144.74 101.04 143.86 100.81 143.52 100.32 144.06 100.05 144.93 100.28 145.27 100.77 
M 328.8 103.84 328.3 103.53 328.03 102.67 328.27 102.12 328.78 102.44 329.04 103.3 328.8 103.84 
M 328.23 103.6 328.32 103.01 329.01 102.42 329.6 102.42 329.52 103.01 328.83 103.6 328.23 103.6 
M 321.93 96.19 321.47 95.82 321.31 94.93 321.62 94.41 322.08 94.79 322.24 95.68 321.93 96.19 
M 321.13 95.07 321.72 95.09 322.39 95.7 322.45 96.3 321.85 96.28 321.19 95.67 321.13 95.07 
M 330.03 98.85 329.94 98.26 330.43 97.5 331 97.33 331.09 97.92 330.6 98.68 330.03 98.85 
M 330.5 98.78 330.33 98.21 330.71 97.39 331.25 97.14 331.42 97.71 331.04 98.53 330.5 98.78 
M 335.44 109.32 335.03 108.89 334.98 107.98 335.34 107.51 335.76 107.94 335.81 108.84 335.44 109.32 
M 336.08 108.42 335.51 108.6 334.68 108.23 334.43 107.69 335 107.52 335.83 107.88 336.08 108.42 
M 333.69 102.18 334.18 102.51 334.43 103.38 334.18 103.92 333.68 103.59 333.43 102.72 333.69 102.18 
M 333.58 103.64 333.72 103.06 334.44 102.53 335.04 102.57 334.91 103.16 334.18 103.69 333.58 103.64 
M 337.92 98.7 337.6 99.2 336.74 99.46 336.19 99.22 336.51 98.72 337.37 98.46 337.92 98.7 
M 337.74 99.06 337.15 99.16 336.37 98.69 336.19 98.12 336.78 98.02 337.55 98.49 337.74 99.06 
M 310.29 81.98 310.89 81.9 311.64 82.39 311.81 82.96 311.22 83.05 310.46 82.56 310.29 81.98 
M 310.42 82.19 311.02 82.26 311.63 82.92 311.65 83.52 311.05 83.45 310.44 82.79 310.42 82.19 
M 313.65 86.79 314.24 86.75 314.96 87.3 315.08 87.88 314.48 87.92 313.77 87.37 313.65 86.79 
M 314.63 87.97 314.24 87.51 314.25 86.61 314.65 86.16 315.03 86.62 315.02 87.52 314.63 87.97 
M 307.7 77.68 308 77.16 308.85 76.86 309.41 77.08 309.11 77.6 308.26 77.9 307.7 77.68 
M 308.95 77.94 308.47 77.58 308.29 76.7 308.58 76.18 309.06 76.54 309.24 77.42 308.95 77.94 
M 315.71 76.47 315.57 77.05 314.84 77.57 314.24 77.51 314.38 76.93 315.12 76.41 315.71 76.47 
M 314.31 77.15 314.82 76.84 315.71 76.99 316.09 77.45 315.58 77.76 314.69 77.61 314.31 77.15 
M 206.64 68.73 206.56 69.32 205.88 69.92 205.29 69.92 205.37 69.33 206.04 68.74 206.64 68.73 
M 206.47 68.86 206.17 69.38 205.32 69.68 204.85 69.49 
M 205.33 68.85 205.92 68.64 206.47 68.86 
M 142.51 106.06 143.03 105.77 143.91 105.96 144.27 106.44 143.75 106.73 142.86 106.53 142.51 106.06 
M 143.29 105.57 143.55 106.11 143.31 106.98 142.82 107.31 142.56 106.77 142.8 105.9 143.29 105.57 
M 317.23 82.19 317.46 82.74 317.18 83.6 316.66 83.9 316.43 83.35 316.71 82.5 317.23 82.19 
M 316.81 82.37 317.1 82.9 316.91 83.78 316.43 84.14 316.15 83.61 316.34 82.73 316.81 82.37 
M 320.69 89.77 320.69 89.17 321.28 88.49 321.87 88.4 321.87 89 321.28 89.68 320.69 89.77 
M 321.91 89.34 321.32 89.3 320.69 88.65 320.65 88.06 321.24 88.1 321.88 88.75 321.91 89.34 
M 313.9 122.65 314.05 123.22 313.66 124.03 313.11 124.27 312.95 123.69 313.35 122.88 313.9 122.65 
M 313.83 124.06 313.4 123.65 313.32 122.75 313.67 122.26 314.1 122.68 314.18 123.58 313.83 124.06 
M 337.41 117.32 337.33 116.73 337.82 115.97 338.4 115.81 338.48 116.4 337.98 117.16 337.41 117.32 
M 337.53 117.14 337.69 116.57 338.43 116.06 339.03 116.13 338.87 116.71 338.13 117.21 337.53 117.14 
M 323.21 117.93 323.32 118.51 322.85 119.29 322.29 119.48 322.18 118.89 322.65 118.11 323.21 117.93 
M 322.46 118.08 322.86 118.52 322.89 119.42 322.52 119.88 322.11 119.45 322.08 118.54 322.46 118.08 
M 321.74 82.58 322.18 82.18 323.08 82.16 323.54 82.54 323.1 82.94 322.2 82.96 321.74 82.58 
M 323.32 82.5 322.77 82.73 321.91 82.46 321.6 81.95 322.15 81.71 323.01 81.99 323.32 82.5 
M 139.4 99.53 139.92 99.24 140.81 99.41 141.17 99.89 140.65 100.18 139.77 100 139.4 99.53 
M 139.87 99.17 140.36 99.5 140.58 100.38 140.32 100.91 139.83 100.57 139.6 99.7 139.87 99.17 
M 130.32 96.94 130.54 96.38 131.35 95.97 131.93 96.11 131.7 96.67 130.9 97.08 130.32 96.94 
M 131.18 97.21 130.95 96.66 131.24 95.8 131.75 95.5 131.98 96.05 131.69 96.91 131.18 97.21 
M 338.18 124.75 337.62 124.54 337.18 123.75 337.31 123.17 337.87 123.37 338.3 124.17 338.18 124.75 
M 337.7 124.64 337.55 124.06 337.97 123.26 338.52 123.04 338.66 123.62 338.25 124.42 337.7 124.64 
M 327.37 83.2 327.87 82.87 328.77 82.99 329.16 83.43 328.67 83.76 327.77 83.65 327.37 83.2 
M 327.76 82.85 328.3 83.1 328.68 83.93 328.5 84.5 327.96 84.25 327.59 83.42 327.76 82.85 
M 134.66 131.32 134.48 131.89 133.72 132.35 
M 133.53 131.55 134.07 131.22 134.66 131.32 
M 133.53 131.55 133.85 131.58 134.48 132.22 134.51 132.82 133.78 132.63 
M 326.7 91.76 326.28 91.34 326.21 90.44 326.57 89.96 326.99 90.38 327.06 91.28 326.7 91.76 
M 327.32 90.93 326.74 91.05 325.95 90.61 325.74 90.05 326.33 89.93 327.11 90.36 327.32 90.93 
M 133.93 119.66 134.14 120.22 133.82 121.06 133.29 121.35 133.09 120.79 133.4 119.95 133.93 119.66 
M 133.54 121.19 133.42 120.6 133.86 119.82 134.42 119.61 134.54 120.2 134.1 120.98 133.54 121.19 
M 346.17 124.56 345.59 124.44 345.03 123.73 345.06 123.14 345.65 123.25 346.2 123.96 346.17 124.56 
M 344.94 123.99 345.46 123.69 346.35 123.88 346.71 124.35 346.19 124.64 345.31 124.46 344.94 123.99 
M 344.24 113.85 344.34 114.44 343.87 115.21 343.31 115.4 343.2 114.81 343.67 114.03 344.24 113.85 
M 343.39 115.19 343.56 114.62 344.31 114.13 344.9 114.21 344.74 114.78 343.98 115.28 343.39 115.19 
M 333.75 93.54 334.32 93.36 335.15 93.72 335.41 94.26 334.84 94.44 334.01 94.07 333.75 93.54 
M 335.17 93.56 334.77 94 333.87 94.1 333.38 93.76 333.79 93.32 334.68 93.22 335.17 93.56 
M 342.81 119.86 342.49 119.36 342.62 118.46 343.08 118.08 343.4 118.58 343.26 119.47 342.81 119.86 
M 342.26 119.07 342.8 118.81 343.67 119.03 344.01 119.52 343.48 119.79 342.6 119.56 342.26 119.07 
M 132.36 113.46 132.93 113.3 133.75 113.68 133.99 114.22 133.42 114.38 132.6 114 132.36 113.46 
M 133.31 113.17 133.38 113.76 132.86 114.5 132.29 114.65 132.22 114.06 132.73 113.32 133.31 113.17 
M 331.94 86.39 332.08 86.97 331.66 87.77 331.1 87.99 330.97 87.41 331.39 86.61 331.94 86.39 
M 332.19 87.34 331.6 87.39 330.87 86.86 330.74 86.28 331.33 86.23 332.06 86.76 332.19 87.34 
M 350.7 126.41 351.07 125.95 351.96 125.78 352.47 126.08 352.1 126.55 351.21 126.72 350.7 126.41 
M 350.97 125.93 351.56 126.03 352.13 126.73 352.12 127.33 351.53 127.23 350.96 126.53 350.97 125.93 
M 349.63 107.79 349.04 107.86 348.3 107.34 348.15 106.76 348.74 106.7 349.48 107.22 349.63 107.79 
M 349.57 107.36 348.98 107.47 348.2 107.02 348.01 106.46 348.6 106.34 349.38 106.8 349.57 107.36 
M 339.95 104.92 339.51 105.17 338.93 105.04 339 104.85 
M 339.33 105.17 339.42 104.88 
M 340.39 104.96 339.92 105.26 339.33 105.17 
M 346.62 119.2 347.13 118.89 348.02 119.04 348.4 119.5 347.89 119.81 347 119.66 346.62 119.2 
M 347.43 118.67 347.68 119.21 347.43 120.08 346.93 120.4 346.68 119.86 346.93 119 347.43 118.67 
M 284.32 68.23 284.86 68.47 285.24 69.29 285.07 69.87 284.53 69.62 284.15 68.8 284.32 68.23 
M 284.98 68.42 284.91 69.02 284.24 69.62 283.64 69.63 283.72 69.04 284.39 68.44 284.98 68.42 
M 347.79 112.91 348.14 112.43 349.02 112.22 349.55 112.5 349.2 112.98 348.32 113.19 347.79 112.91 
M 348.97 112.09 348.88 112.68 348.2 113.27 347.61 113.27 347.69 112.68 348.37 112.09 348.97 112.09 
M 358.15 126.84 358.72 127.01 359.21 127.77 359.14 128.26 
M 358.76 128.25 358.56 128.19 358.07 127.44 358.15 126.84 
M 358.84 126.94 358.85 127.54 358.21 128.24 
M 357.68 128.23 357.67 127.73 358.25 127.04 358.84 126.94 
M 364.3 109.82 364.25 110.42 363.6 111.04 363 111.08 363.06 110.48 363.7 109.85 364.3 109.82 
M 363.22 109.91 363.72 110.24 363.96 111.11 363.7 111.65 363.21 111.32 362.97 110.45 363.22 109.91 
M 362.37 116.92 362.97 116.89 363.67 117.45 363.78 118.04 363.19 118.07 362.48 117.5 362.37 116.92 
M 362.62 116.97 363.13 117.27 363.43 118.12 363.21 118.68 362.69 118.38 362.39 117.52 362.62 116.97 
M 367.47 128.33 367.57 128.42 
M 367.41 128.42 367.47 128.33 
M 369.03 119.28 368.6 118.87 368.51 117.97 368.85 117.48 369.28 117.89 369.37 118.79 369.03 119.28 
M 368.33 118.69 368.75 118.27 369.65 118.21 370.13 118.57 369.71 118.99 368.81 119.05 368.33 118.69 
M 369.56 122.41 369.97 122.83 370.03 123.73 369.67 124.21 369.25 123.78 369.19 122.88 369.56 122.41 
M 368.93 123.35 369.48 123.13 370.33 123.44 370.63 123.96 370.07 124.17 369.22 123.87 368.93 123.35 
M 370.14 140.95 369.54 140.91 368.91 140.27 368.86 139.67 369.46 139.71 370.1 140.35 370.14 140.95 
M 368.92 139.94 369.5 140.09 370 140.84 369.93 141.44 369.35 141.28 368.85 140.53 368.92 139.94 
M 374.31 140.97 374.49 140.4 375.26 139.92 375.85 140.02 375.67 140.59 374.9 141.06 374.31 140.97 
M 374.68 141.06 374.86 140.49 375.63 140.01 376.22 140.1 376.04 140.67 375.27 141.15 374.68 141.06 
M 376.04 136.21 376.09 135.62 376.74 134.99 377.34 134.96 377.29 135.56 376.63 136.18 376.04 136.21 
M 376.61 136.27 376.5 135.68 376.94 134.9 377.51 134.7 377.62 135.29 377.17 136.07 376.61 136.27 
M 382.47 134.93 382.02 135.33 381.12 135.35 380.66 134.97 381.11 134.57 382.01 134.55 382.47 134.93 
M 381.88 134.34 381.78 134.93 381.08 135.5 380.48 135.48 380.59 134.89 381.29 134.32 381.88 134.34 
M 384.49 140.86 384.54 140.27 385.19 139.64 385.79 139.61 385.74 140.2 385.09 140.83 384.49 140.86 
M 384.59 139.83 385.15 140.02 385.61 140.8 385.5 141.38 384.94 141.19 384.48 140.42 384.59 139.83 
M 381.34 127.15 381.94 127.17 382.6 127.78 382.67 128.37 382.08 128.36 381.41 127.75 381.34 127.15 
M 381.84 127.1 382.16 127.6 382.01 128.5 381.76 128.7 
M 381.44 128.69 381.24 128.37 381.38 127.48 381.84 127.1 
M 375.76 110.17 375.2 110.38 374.36 110.06 374.07 109.54 374.63 109.33 375.47 109.64 375.76 110.17 
M 375.06 109.18 375.12 109.77 374.6 110.51 374.02 110.66 373.96 110.06 374.48 109.32 375.06 109.18 
M 388.39 124.01 387.8 123.96 387.16 123.32 387.12 122.73 387.72 122.77 388.35 123.41 388.39 124.01 
M 387.13 123.1 387.72 123.15 388.35 123.81 388.37 124.4 387.78 124.35 387.16 123.69 387.13 123.1 
M 389.26 117.53 389.32 116.94 389.98 116.32 390.58 116.3 390.51 116.9 389.85 117.51 389.26 117.53 
M 389.68 116.27 390.04 116.74 390 117.65 389.59 118.08 389.22 117.61 389.26 116.7 389.68 116.27 
M 377.35 131.4 377.37 131.3 
M 378.69 130.89 377.94 131.45 377.35 131.4 
M 378.74 131.06 378.12 131.06 
M 378.71 130.88 378.74 131.06 
M 379.55 110.09 379.5 109.49 379.99 108.81 
M 380.63 108.9 380.66 109.22 380.13 109.95 379.55 110.09 
M 380.75 109.2 380.23 109.51 379.34 109.35 378.97 108.88 379.25 108.71 
M 380.49 108.88 380.75 109.2 
M 225.23 291.39 223.33 297.7 
M 225.23 291.39 229.13 291.39 
M 224.33 294.39 226.73 294.39 
M 223.33 297.7 227.24 297.7 
M 233.33 294.39 232.91 293.8 232.4 293.5 231.5 293.5 230.81 293.8 230.03 294.39 229.46 295.3 229.28 295.89 229.31 296.8 229.73 297.39 230.24 297.7 231.14 297.7 231.83 297.39 232.61 296.8 
M 236.03 291.39 236.24 291.7 236.63 291.39 236.42 291.1 236.03 291.39 
M 235.7 293.5 234.44 297.7 
M 239.3 293.5 238.61 293.8 237.83 294.39 237.26 295.3 237.08 295.89 237.11 296.8 237.53 297.39 238.04 297.7 238.94 297.7 239.63 297.39 240.41 296.8 240.98 295.89 241.16 295.3 241.13 294.39 240.71 293.8 240.2 293.5 239.3 293.5 
M 243.8 293.5 242.54 297.7 
M 243.44 294.7 244.61 293.8 245.3 293.5 246.2 293.5 246.71 293.8 246.74 294.7 245.83 297.7 
M 253.13 291.39 251.24 297.7 
M 252.23 294.39 253.01 293.8 253.7 293.5 254.6 293.5 255.11 293.8 255.52 294.39 255.56 295.3 255.38 295.89 254.81 296.8 254.02 297.39 253.33 297.7 252.44 297.7 251.93 297.39 251.51 296.8 
M 258.52 291.39 258.74 291.7 259.13 291.39 258.91 291.1 258.52 291.39 
M 258.2 293.5 256.94 297.7 
M 260.6 293.5 259.33 297.7 
M 260.06 295.3 260.63 294.39 261.4 293.8 262.1 293.5 263 293.5 
M 265.7 293.5 265.01 293.8 264.23 294.39 263.65 295.3 263.48 295.89 263.51 296.8 263.93 297.39 264.44 297.7 265.33 297.7 266.02 297.39 266.81 296.8 267.38 295.89 267.56 295.3 267.52 294.39 267.11 293.8 266.59 293.5 265.7 293.5 
M 272.93 294.39 272.81 293.8 272 293.5 271.09 293.5 270.11 293.8 269.63 294.39 269.75 295 270.26 295.3 271.66 295.6 272.18 295.89 272.2 296.8 271.72 297.39 270.74 297.7 269.83 297.7 269.02 297.39 268.9 296.8 
M 275.3 293.5 274.03 297.7 
M 274.76 295.3 275.33 294.39 276.11 293.8 276.8 293.5 277.7 293.5 
M 280.39 293.5 279.7 293.8 278.93 294.39 278.36 295.3 278.18 295.89 278.2 296.8 278.63 297.39 279.14 297.7 280.03 297.7 280.72 297.39 281.51 296.8 282.08 295.89 282.26 295.3 282.22 294.39 281.81 293.8 281.29 293.5 280.39 293.5 
M 284.89 293.5 283.64 297.7 
M 284.53 294.7 285.7 293.8 286.39 293.5 287.29 293.5 287.81 293.8 287.83 294.7 286.94 297.7 
M 293.33 294.39 293.2 293.8 292.39 293.5 291.5 293.5 290.51 293.8 290.02 294.39 290.14 295 290.65 295.3 292.07 295.6 292.58 295.89 292.61 296.8 292.13 297.39 291.14 297.7 290.24 297.7 289.42 297.39 289.31 296.8 
M 294.91 297.1 294.52 297.39 294.74 297.7 295.13 297.39 294.91 297.1 
"/></svg>
