<svg xmlns="http://www.w3.org/2000/svg" width="520" height="320"><rect x="0" y="0" width="520" height="320" fill="floralwhite"/><rect x="10" y="10" width="500" height="300" stroke="black" stroke-width="1" fill="none"/><path stroke="black" stroke-width="1" fill="none" stroke-linecap="round" stroke-linejoin="round" d="
M 160.08 72.7 165.19 71.4 176.86 69.13 188.74 68.58 200.33 71.27 211.77 74.53 223.59 75.87 235.46 76.69 259.22 77.83 270.91 80.03 282.04 84.24 303.48 94.53 314.47 99.09 325.79 102.75 337.42 105.26 348.98 108.06 359.82 112.96 361.71 115.69 
M 361.71 176.26 356.74 180.19 345.45 183.94 333.9 186.78 322.29 189.35 310.83 192.57 299.71 196.78 266.54 209.95 255.64 214.71 244.14 217.73 220.38 216.52 208.55 217.81 196.66 217.86 184.78 217.22 172.89 217.58 161.19 215.39 151.48 211.41 
M 177.82 125.11 182.98 125.24 184.75 125.5 
M 188.31 126.17 191.9 126.96 
M 195.53 127.67 199.18 128.25 
M 202.84 128.73 208.47 129.24 214.36 129.43 
M 218.28 129.55 224.12 129.78 234.56 130.61 
M 239.07 131.06 246.02 131.76 252.58 131.55 
M 261.05 131.06 263.08 130.92 270.49 129.7 274.3 129.74 278.52 130.22 284.92 131.21 
M 288.84 131.7 296.3 132.39 
M 299.9 132.58 305.27 132.9 311.02 133.57 
M 315.13 134.29 321.61 135.5 327.91 136.38 
M 331.9 136.64 337.9 136.88 342.19 137.29 348.63 138.24 
M 352.78 138.77 354.84 139 358.78 140.32 361.71 141.6 
M 159.8 182.63 160.45 186.4 
M 161.26 190.18 163.94 201.62 
M 165.02 205.86 165.64 208.18 
M 168.75 76.36 167.74 79.85 
M 165.29 86.29 165.18 86.54 
M 170.86 175.83 170.89 176.11 
M 173.18 190.23 174.62 196.11 176.7 202.61 
M 180.23 77.6 179.09 83.42 178.59 85.21 
M 175.27 99.63 175.27 103.97 
M 174.81 112.14 174.38 116 
M 173.83 123.37 173.77 124.79 
M 182.32 178.1 182.51 181.21 
M 185.49 193.12 187.2 197.83 
M 189.78 89.55 189.11 93.44 
M 187.9 101.14 187.44 105.06 
M 186.98 108.93 185.74 116.27 
M 194.17 178.84 195.29 184.91 
M 198.03 196.63 199.62 201.22 
M 200.3 93.09 199.56 96.9 
M 199.15 100.97 199.12 107.57 198.84 111.64 197.95 115.05 196.79 118.15 195.97 121.57 195.57 126.57 
M 205.99 178.98 206.08 179.47 
M 209.88 194.97 211.3 199.37 
M 212.99 204.04 215.13 210.01 
M 215.59 78.79 214.58 82.73 
M 212.95 90.74 212.15 94.62 
M 210.63 106.67 210.52 108.78 210.01 112.65 209.59 114.4 
M 208.71 117.84 208.26 119.53 207.3 124.92 
M 206.89 127.98 206.76 129.2 
M 218.2 184.4 218.3 185.98 218.76 187.94 
M 219.77 191.95 220.94 196.12 
M 222.19 200.38 224.35 207.82 
M 225.87 87.25 225.11 91.27 
M 224.52 95.37 223.84 99.31 
M 222.19 106.73 221.79 108.58 221.29 112.52 221.18 114.61 
M 220.94 118.74 220.81 120.78 220.49 122.61 
M 219.68 126.09 218.74 129.53 
M 229.59 182.53 229.7 184.14 230.67 189.67 
M 231.46 193.51 232.88 199.47 236.18 210.58 
M 238.23 91.78 237.26 95.51 
M 235.57 103.05 234.78 106.84 
M 233.05 114.16 232.12 117.71 
M 230.99 129 230.99 130.38 
M 242.02 185.38 242.24 187.13 243.09 191.04 247.26 204.28 248.44 209.29 
M 254.9 86.08 254.68 88.26 253.56 94.25 
M 252.65 98.03 249.79 109.14 
M 248.76 112.76 247.7 116.33 
M 246.72 119.98 245.57 125.71 244.84 131.76 
M 254.62 181.94 254.78 183.66 255.46 187.47 256.85 193.5 
M 257.68 197.38 259.6 207.73 
M 267.67 87.79 267.57 90.07 266.74 96.31 
M 265.89 100.17 265.4 102.03 263.1 106.85 
M 261.76 110.29 261.21 112.13 260.22 120.74 259.56 124.89 258.18 131.22 
M 266.17 176.8 266.4 181.03 267.39 191.61 267.88 195.19 270.57 205.33 
M 279.15 90.83 278.96 92.98 278.29 97 277.32 100.76 274.96 108.03 273.89 111.85 271.62 124.46 269.99 129.72 
M 276.93 175.66 277.17 181.05 277.7 184.88 278.26 187.07 
M 279.67 191.68 281.3 196.44 
M 282.76 201.67 283.15 203.39 
M 289.64 99.21 289 100.93 287.34 104.07 286 107.61 285.29 111.86 284.49 121.16 283.75 125.54 282.59 130.85 
M 288.06 173.55 288.77 179.44 290.44 186.14 
M 291.83 190.77 294.43 198.92 
M 298.74 106.71 296.76 114.71 
M 295.46 123.7 294.44 132.28 
M 299 171.12 300.03 177.35 301.97 185.92 304.84 194.83 
M 310.55 102.4 307.34 111.44 306.82 113.45 
M 306.01 117.75 305.72 120.05 305.54 129.05 
M 311.1 168.36 311.48 172.81 
M 313.25 181.18 316.47 190.98 
M 321.68 106.18 320.33 112.21 318.79 120.86 318.17 130.73 317.74 134.82 
M 323.38 164.92 324.35 172.43 325.23 176.51 325.87 178.71 
M 327.22 183.13 328.67 187.94 
M 333.92 109.64 333.74 116.89 333.28 121.5 330.63 136.63 
M 335.51 160.85 338.28 176.73 339.99 185.28 
M 249.86 104.77 249.33 104.29 248.79 104.15 248.08 104.25 247.52 104.59 
M 259.68 86.13 258.09 85.36 257.62 84.93 257.1 84.04 256.96 82 257.21 79.98 
M 347.17 143.26 345.4 145.14 
M 319.63 101.77 318.67 101.91 318.02 101.49 
M 189.52 122.3 192.01 120.4 193.51 118.56 194.68 114.89 194.73 113.23 
M 344.4 157.52 347.65 160.73 348.82 162.5 349.95 163.32 
M 234.17 195.49 238.3 196.19 238.85 196.5 239.51 197.16 240.11 198.31 
M 247.37 127.41 248.15 127.99 248.39 128.56 248.55 132.25 
M 192.22 134.53 193.88 134.48 194.4 134.16 195.19 133.33 196.03 133.02 
M 311.2 103.24 311.08 102.35 311.3 101.54 311.99 99.84 312.83 98.41 
M 351.35 181.98 350.97 181.18 350.06 180.73 
M 253.33 134.99 253.22 136.01 251.9 137.52 
M 167.25 187.61 167.95 187.66 169.91 188.32 170.64 189.26 
M 255.98 107.33 254.37 107.1 252.84 106.35 250.69 104.77 250.05 104.03 
M 176.22 123.72 174.3 124.69 172.17 124.89 171.3 124.83 167.75 123.75 167.04 123.42 165.65 122.39 
M 160.46 73.39 161.85 74.02 
M 230.26 140.63 230.92 138.89 231.16 137.44 
M 361.69 115.67 361.71 115.7 
M 292.5 97.28 292.48 96.05 293.39 94.35 293.48 93.62 
M 236.94 214.11 236.39 212.83 235.98 208.11 236.31 206.65 236.92 205.06 236.88 204.26 236.49 203.7 
M 233.57 202.87 232.46 202.78 231.12 202.16 
M 336.07 117.67 335.15 117.45 332.67 116.4 331.74 116.19 327.47 115.96 326.63 115.8 323.22 114.49 
M 166.8 174.78 165.94 175.32 164.32 176.75 162.28 180.36 
M 174.68 113.56 175.36 114.96 175.44 115.57 175.29 116.82 175.07 117.43 172.67 121.09 
M 286.31 136.65 285.02 136.55 281.31 135.56 280.6 135.67 275.19 138.65 
M 298.12 178.99 297.96 179.41 298.24 181.31 298.01 184.74 297.67 185.82 297.13 186.85 
M 339.45 159.04 342.63 162.3 
M 252.81 102.09 252.01 101.46 250.98 101.05 249.38 100.61 248.26 100.52 247.3 101.1 246.98 101.62 246.74 103.37 
M 189.68 128.59 189.07 129.69 188.22 130.15 187.65 130.23 184.8 129.6 181.81 128.38 179.68 127.78 
M 171.42 190.42 171.43 190.39 
M 208.79 73.11 248.96 30.52 249.68 31.18 212.14 74.59 
M 223.16 74.89 249.21 41.75 249.99 42.32 226.59 76.07 
M 237.58 75.99 252.77 52.33 253.61 52.81 241.02 76.96 
M 252.1 76.65 260.79 62.7 261.65 63.15 255.49 77.58 
M 266.63 78.29 271.47 73.04 272.29 73.57 269.78 79.68 
M 283.98 84.76 285.42 85.77 
M 245.85 35.6 244.77 37.8 244.42 38.89 244.28 39.96 244.36 41.01 245.19 43.06 246.6 45.06 
M 247.59 45.79 247.25 48.24 247.45 50.47 247.86 51.46 248.48 52.37 249.28 53.19 251.25 54.69 
M 252.31 55.31 253.06 58.08 254.25 60.46 255.09 61.44 256.11 62.27 257.29 62.96 259.92 64.1 
M 261.01 64.66 262.39 67.57 264.17 70.05 265.28 71.04 266.54 71.85 267.94 72.52 270.98 73.57 
M 272.02 74.23 274.06 77.66 276.49 80.64 277.93 81.89 281.18 83.85 
M 281.57 84.02 284.91 85.42 
M 245.27 36.71 244.42 38.89 244.28 39.96 244.36 41.01 244.67 42.04 245.86 44.06 
M 240.38 43.43 239.68 45.23 239.63 46.98 239.89 47.83 240.86 49.5 
M 235.49 50.15 234.94 51.57 234.84 52.26 235.1 53.62 235.87 54.93 
M 230.6 56.87 230.13 58.41 230.32 59.4 230.88 60.36 
M 247.38 47.03 247.25 49.4 247.45 50.47 247.86 51.46 248.48 52.37 250.23 53.96 
M 241.94 57.31 241.85 58.85 242.25 60.19 242.65 60.78 243.79 61.81 
M 252.66 56.72 253.58 59.34 254.25 60.46 255.09 61.44 256.11 62.27 258.58 63.55 
M 165.41 136.35 401.78 146.18 401.75 147.15 165.21 139.79 
M 165.14 140.42 375.84 156.89 375.77 157.86 164.78 143.83 
M 164.72 144.44 349.76 165.75 349.66 166.72 164.26 147.84 
M 164.17 148.41 323.63 172.77 323.49 173.73 163.62 151.8 
M 163.54 152.33 297.56 177.94 297.38 178.9 163.19 155.75 
M 163.15 156.25 271.63 181.28 271.42 182.23 162.9 159.7 
M 162.86 160.18 245.95 182.79 245.71 183.73 162.55 163.62 
M 162.51 164.06 220.62 182.51 220.35 183.44 162.18 167.5 
M 162.14 167.92 195.73 180.44 195.42 181.36 162.01 171.4 
M 161.99 171.72 171.38 176.41 171.04 177.32 161.87 174.93 
M 377.55 146.4 371.93 147.19 369.19 147.76 366.52 148.53 363.94 149.5 361.43 150.7 358.99 152.08 354.26 155.21 
M 354.17 156.43 348.61 156.82 345.89 157.2 343.22 157.77 340.62 158.57 338.09 159.58 335.62 160.79 330.79 163.57 
M 330.66 164.79 325.18 164.79 322.48 164.98 319.83 165.36 317.24 165.97 314.69 166.81 312.19 167.84 307.28 170.27 
M 307.11 171.48 301.73 171.1 299.07 171.1 296.45 171.3 293.86 171.72 291.31 172.38 288.79 173.23 283.82 175.32 
M 283.6 176.52 278.35 175.76 275.74 175.57 273.15 175.59 270.58 175.83 268.04 176.3 265.51 176.98 260.49 178.71 
M 260.23 179.9 255.13 178.78 252.58 178.41 250.03 178.24 247.5 178.3 244.96 178.6 242.44 179.09 237.39 180.46 
M 237.09 181.65 232.15 180.17 229.67 179.62 227.18 179.27 224.68 179.15 222.17 179.27 219.65 179.58 214.6 180.6 
M 214.25 181.77 209.5 179.94 207.1 179.22 204.68 178.7 202.23 178.4 199.75 178.34 197.25 178.48 192.2 179.13 
M 191.81 180.29 187.28 178.08 184.98 177.17 182.63 176.45 180.24 175.96 177.8 175.69 175.32 175.62 170.29 175.86 
M 374.73 146.76 369.19 147.76 366.52 148.53 363.94 149.5 361.43 150.7 356.61 153.61 
M 349.66 145.95 344.77 146.84 342.41 147.51 340.13 148.37 337.91 149.43 333.66 152 
M 324.6 145.14 320.35 145.91 318.31 146.49 314.4 148.16 310.71 150.39 
M 299.53 144.33 295.93 144.98 294.2 145.48 290.89 146.89 287.76 148.78 
M 274.46 143.52 271.51 144.05 268.71 144.98 264.8 147.17 
M 249.4 142.71 245.98 143.44 243.86 144.35 241.85 145.56 
M 351.38 156.58 345.89 157.2 343.22 157.77 340.62 158.57 338.09 159.58 333.2 162.14 
M 324.57 154.78 319.85 155.31 317.55 155.8 313.14 157.36 308.93 159.56 
M 297.76 152.98 293.8 153.42 291.89 153.83 288.19 155.13 284.67 156.98 
M 270.95 151.17 267.76 151.53 266.22 151.86 263.24 152.91 260.4 154.4 
M 244.14 149.37 240.55 149.89 238.29 150.69 236.14 151.81 
M 327.91 164.75 322.48 164.98 319.83 165.36 317.24 165.97 314.69 166.81 309.73 169.02 
M 304.39 162.35 299.72 162.54 297.44 162.87 293.02 164.11 288.75 166.01 
M 280.86 159.94 276.95 160.11 273.18 160.82 271.34 161.42 267.77 163.01 
M 257.34 157.54 254.19 157.67 251.14 158.25 249.67 158.73 246.79 160.01 
M 233.81 155.14 230.26 155.41 227.99 156.04 225.81 157.01 
M 304.41 171.25 299.07 171.1 296.45 171.3 293.86 171.72 291.31 172.38 286.3 174.23 
M 279.12 167.79 274.71 167.66 270.41 168.18 268.31 168.72 264.18 170.25 
M 253.82 164.33 250.35 164.23 246.97 164.63 245.31 165.06 242.05 166.27 
M 228.53 160.86 224.75 160.89 222.31 161.4 219.93 162.28 
M 280.97 176.1 275.74 175.57 273.15 175.59 270.58 175.83 268.04 176.3 263 177.8 
M 252.72 171.26 248.71 170.86 246.72 170.87 242.8 171.41 238.94 172.56 
M 224.46 166.42 220.29 166.14 217.56 166.53 214.87 167.33 
M 257.68 179.3 252.58 178.41 250.03 178.24 247.5 178.3 244.96 178.6 239.91 179.74 
M 223.45 172.28 220.13 171.7 216.83 171.63 215.18 171.82 211.9 172.56 
M 234.62 180.87 229.67 179.62 227.18 179.27 224.68 179.15 222.17 179.27 217.13 180.05 
M 211.88 180.82 207.1 179.22 204.68 178.7 202.23 178.4 199.75 178.34 194.73 178.76 
M 210.09 217.74 214.16 222.21 218.14 225.24 222.42 230.13 249.47 264.17 249.2 267.22 248.53 269.86 248.17 272.81 248.08 276.04 248.2 279.47 243.56 277.71 238.7 278.14 233.66 278 224.5 272.53 222.4 271.67 192.35 231.68 191.55 230.12 191.09 226.31 189.74 222.34 184.98 217.2 
M 205.24 217.95 210.15 223.62 215.08 228.75 217.2 231.18 219.27 233.93 223.37 237.4 229.01 241.67 231.33 244.34 232.15 247.05 234.07 250.23 236.12 252.53 238.39 254.52 240.64 256.01 
M 200.39 218.04 202.96 221.04 204.8 223.55 206.26 226.18 208.7 228.53 211.17 231.74 214.33 236.56 215.66 238.27 220.26 242.7 221.6 244.69 227.17 250.47 229.56 253.78 231.4 255.89 
M 195.54 217.81 198.18 221.36 205.12 231.81 207.59 234.87 209.08 238.57 210.85 241.44 212.41 242.64 213.87 244.27 215.16 246.21 215.92 248.44 218.08 252.13 220.08 254.89 222.02 257.1 223.91 260.98 226.93 265.52 230.19 268.35 232.3 269.85 233.06 272.82 
M 190.69 217.55 193.43 221.51 194.74 223.99 195.76 226.4 197.62 229.29 203.43 239.25 205.46 241.53 206.54 244.38 208.65 246.31 210.52 248.51 
M 335.63 186.41 339.15 191.21 344.24 199.76 347.22 203.62 351.01 217.51 350.26 220.73 349.21 223.65 349.28 226.47 347.23 228.52 344.7 230.11 343.45 232.26 341.31 234.1 338.75 235.35 333.66 233.09 331.02 234.42 328.6 236.04 326.22 237.32 323.52 238.13 321.86 240.59 319.83 242.64 316.51 243.11 312.97 241.78 310.39 239.84 308.1 238.99 305.33 238.56 303.1 238.67 300.53 238.44 295.32 236.28 274.22 224.68 270.79 221.91 268.59 218.55 265.36 216.1 260.31 212.79 
M 330.88 187.43 333.82 190.91 336.39 195.08 338.88 198.36 340.14 200.63 
M 326.14 188.47 329.06 191.97 335.72 201.5 337.28 203.24 338.64 205.85 341.95 208.59 345.03 211.96 346.17 214.77 346.69 217.92 
M 321.41 189.55 323.79 192.92 326.18 195.49 330.97 201.31 334.3 206.13 336.06 208.38 337.7 210.93 341.3 215.22 342.83 218.67 
M 316.71 190.79 319.4 194.17 321.22 195.99 325.33 201.89 332.07 209.72 333.13 211.92 335.16 215.14 339.02 219.39 342.22 224.82 
M 312.07 192.19 314.84 195.55 317.35 197.71 319.44 200.1 324.54 206.68 327.67 209.02 329.12 211.32 332.6 216.16 334.66 219.41 337.28 222.86 
M 307.48 193.79 310.3 197.35 312.83 200.07 315.61 202.4 318.05 204.78 319.94 207.68 322.59 210.54 325.51 213.05 327.64 215.9 330.19 221.07 332.51 223.4 335.63 225.16 
M 302.93 195.48 306.23 199.44 311.37 203.95 313.79 206.55 315.39 209.14 317.56 211.96 320.28 214.35 322.55 216.92 324.62 218.56 326.15 220.97 328.93 223.45 330.48 225.6 
M 298.43 197.3 301.84 201.05 309.41 208.43 314.03 213.73 318.82 218.46 321 220.97 
M 293.94 199.15 299.87 205.62 301.91 208.5 304.61 211.19 311.18 218.94 314.44 220.42 316.29 222.31 317.75 223.98 319.67 226.71 320.73 228.6 325.45 234.65 
M 289.43 200.95 292.37 203.98 294.33 206.42 296.97 209.25 304.33 217.77 306.61 220.62 309.04 222.71 311.06 223.9 312.47 225.37 313.81 227.59 317.95 233.41 320.54 236.69 
M 284.92 202.74 287.63 206.01 292.35 210.72 294.71 213.51 298.08 219.22 300.88 221.55 305.03 223.53 
M 280.39 204.48 283.06 207.96 287.44 212.46 291.4 218.11 293.68 220.69 295.89 223.55 
M 275.85 206.22 278.68 209.07 281.05 212.1 283.74 214.2 286.05 216.37 287.24 218.84 289.37 222.01 292.2 225.28 295.62 228.3 297.78 231.15 300.33 232.97 302.14 235.37 304.75 236.6 
M 271.32 207.96 274.57 210.84 277.19 213.8 280.22 215.89 282.24 217.98 284.12 220.43 286.02 223.85 289.75 227.04 292.75 230.85 296.41 235.12 
M 266.84 209.82 270.65 213.39 277 218.18 279.32 220.47 284.66 226.44 286.98 229.74 
M 360.74 113.43 364.3 112.64 367.77 111.46 370.87 110.84 373.61 109.58 375.52 107.54 379.05 105.33 381.52 104.72 384.28 102.85 388.33 101.28 391.02 99.05 393.43 96.75 395.61 94.38 397.63 93.13 399.56 91.43 401.19 90.31 404.06 88.91 406.38 88.03 409.44 86.49 412.41 83.58 415.87 82.93 425.19 84.14 427.1 84.15 436.44 87.65 439.39 88.5 441.39 88.41 443.96 88.88 447.08 90.33 449.68 91.87 451.72 92.84 455.42 95.47 461.3 100.1 464.44 102.19 470.29 107.6 472.15 109.52 473.55 111.99 477.75 118.33 480.46 123.68 482.2 128.58 484.67 133.92 486.34 136.91 487.35 139.24 488.3 142.47 488.96 145.51 490 148.94 489.7 153.61 489.68 159.22 489.94 162.32 488.47 164.64 487.39 167.36 485.83 169.6 483.16 174.57 482.63 177.86 482.5 181.56 481.48 184.56 479.72 186.92 475.08 190.51 473.47 192.91 471.41 194.82 469.91 197.28 467.18 198.6 464.86 200.24 462.97 202.33 460.64 203.96 458.99 206.27 455.25 206.34 451.84 206.67 449.69 208.24 443.14 209.21 440.22 210.13 437.67 211.4 432.23 212.98 430.64 214.9 426.19 215.68 414.76 219.97 412.2 217.44 410.51 215.38 409.75 214.15 408.06 213.29 405.48 211.25 401.04 208.59 397.77 205.96 395.24 204.29 391.19 200.31 388.05 197.75 385.15 196.83 379.86 192.8 375.55 188.86 372.65 187.41 369.85 185.16 367.26 183.25 364.3 181.38 360.74 178.61 
M 364.06 116.17 367.1 114.95 373.42 113.59 375.64 111.82 378.02 110.18 382.46 107.62 385.28 106.46 388.66 105.4 391.71 103.51 394.48 102.22 
M 369.79 117.05 372.74 115.99 376.24 115.12 384.41 111.74 386.65 110.37 388.88 108.55 391.39 106.99 394.65 106.19 397.6 105.08 402.33 103.12 410.45 99.25 416.9 97.35 419.59 96.22 422.36 96.6 424.51 95.56 426.28 93.79 428.46 91.98 
M 366.92 122.05 369.64 120.3 372.34 119.14 382.06 116.52 384.88 115.94 386.88 115.06 389.5 112.89 391.58 111.45 398.31 110.17 401.94 108.78 404.96 108.16 405.85 107.59 408.49 106.66 411.18 105.34 413.55 104.41 417.5 103.86 420.01 102.2 422.89 102.03 425.78 100.02 428.58 98.53 430.09 98.01 432.38 97.68 435.13 94.78 437.91 92.35 
M 367.17 125.64 370.23 123.97 373.06 122.81 379 121.4 382 120.36 384.84 120.03 390.39 119.06 393.12 117.71 396.22 117.05 399.8 115.91 402.94 114.28 405.71 113.19 408.36 111.61 411.25 111.55 413.52 110.67 417.82 110.4 422.4 108.49 425.51 106.4 430.32 101.98 433.98 101.11 437.77 100.54 440.85 100.31 443.59 98.59 
M 364.63 129.6 367.82 129.01 373.68 127.07 376.87 126.62 379.92 125.95 382.52 125.86 385.58 124.84 388.49 124.55 390.6 124.06 393.5 123.74 399.5 122.44 401.82 121.35 405.39 120.79 408.12 119.32 411.51 117.91 415.63 116.59 418.71 116.95 424.43 115.23 427.04 113.07 430.11 111.05 432.9 110.45 
M 370.66 131.67 373.71 131.09 377.13 131.37 380.2 131.23 382.63 130.81 385.73 129.9 388.49 129.3 391.14 127.88 394 127.48 397.53 127.55 403.2 127.07 408.25 124.59 411.39 123.4 415.01 122.31 417.62 121.98 423.33 120.77 425.7 121.53 428.31 120.57 432.19 119.92 435.14 119.15 438.52 117.92 
M 367.68 135.89 370.72 135.18 373.7 134.74 376.55 135.04 385.37 134.39 388.26 133.58 394.07 132.5 397.28 132.57 401.16 133.21 404.46 132.88 406.46 131.71 408.64 131.32 411.57 130.39 414.08 129.35 417.94 129.2 421.16 128.69 424.4 127.64 427.66 127.99 430.45 128.6 
M 367.62 139.24 377.08 139.44 385.52 138.24 388.45 137.6 394.85 137.27 397.43 137.96 400.81 138.14 403.83 138.02 406.69 137.66 409.14 136.33 412.04 135.6 421.3 134.71 424.05 134.79 431.3 135.94 434.89 135.45 437.27 134.79 439.74 132.76 441.88 131.74 444.98 132.31 447.66 132.31 
M 370.89 142.99 373.9 142.99 376.75 143.45 379.81 143.56 385.7 143.27 388.99 142.8 395.02 142.33 397.21 143.13 400.24 143.21 406.79 142.37 410.02 141.49 413.28 141.28 415.34 140.73 418.63 140.99 421.88 140.81 425.02 141.33 429.11 141.08 432.12 140.07 435.59 139.47 440.24 140.84 442.91 140.92 445.7 140.78 449.3 141.32 453.47 141.45 455.57 141.93 
M 373.58 146.94 376.43 147.99 379.46 148.39 389.43 147.6 392.14 146.98 395.4 147.4 398.43 148.63 401.72 149.04 404.42 148.71 406.85 147.7 412.34 147.61 416.1 149.09 422.09 150.8 424.62 149.88 428.4 149.2 432.4 147.73 435.2 147.71 437.72 149.09 443.91 148.3 447.09 149.73 450.27 150.69 452.26 151.81 455.59 151.58 457.77 150.26 460.17 149.14 463.35 148.9 465.98 149.06 
M 370.77 150.5 373.75 151.03 376.61 152.04 379.35 152.6 382.44 152.93 385.59 152.71 388.94 151.99 395.53 152.83 404.73 154.81 407.89 154.9 409.85 154.73 415.07 154.71 418.36 155.3 423.9 156.73 427.7 157.2 431.41 156.69 434.59 156.7 437.37 157.88 440.56 158.35 443.36 158.55 447.45 159.59 
M 360.74 152.54 364.57 153.42 370.42 154.29 373.54 154.94 382.79 157.16 388.79 156.72 391.96 156.97 394.73 157.38 398.2 158.73 401.6 159.47 404.57 159.86 408.17 159.88 410.67 159.46 413.62 160.26 416.16 161.38 417.97 161.73 420.64 161.05 423.52 162.34 437.32 165.72 439.9 165.86 442.94 166.91 445.58 167.43 448.43 167.33 454.49 168.55 456.78 167.27 463.36 166.95 465.51 168.32 468.09 168.68 471.47 167.83 478.6 170.22 
M 367.61 157.83 370.45 157.87 373.78 158.38 377.26 159.71 383.06 161.33 391.44 162.41 394.15 163.24 397.12 164.41 403.91 166.26 406.38 166.75 411.85 165.98 414.16 167.29 417.07 168.34 419.79 170.04 423.33 170.43 426.28 170.97 433.29 169.94 434.99 170.96 437.48 173.2 441.09 175.12 444.24 175.57 447.18 176.34 449.97 175.42 453.72 175.02 
M 367.55 161.49 370.59 161.61 373.62 162.42 376.32 163.51 380 165.31 383.77 166.05 385.8 166.98 390.48 166.9 393.26 168.01 395.68 169.33 401.84 171.51 405.28 171.47 408.07 172.13 410.45 173.63 416.55 175.43 
M 360.74 162.31 364.35 163.98 367.5 165.03 370.55 165.69 373.4 166.63 379.87 169.65 383.33 171.03 385.83 171.67 387.34 172.45 389.95 172.68 395.99 174.69 399.4 175.16 403.06 176.71 405.84 178.2 407.71 179.65 410.28 180.94 
M 367.18 168.55 370.35 169.58 376.15 172.11 378.86 173.92 383.93 176.81 386.49 177.53 391.59 179.65 398.64 181.42 402.62 182.68 405.49 183.88 407.94 185.62 410.4 186.8 412.84 187.66 415.95 189.17 419.48 191.31 422.13 192.26 426.31 193.28 
M 367.42 172.43 372.54 175.39 375.58 176.81 383.19 181.55 386.13 182.18 389.2 183.11 391.5 183.46 398.63 188.46 401.7 189.59 403.9 190.81 406.45 191.78 
M 369.6 178.11 372.48 179.45 375.38 181.2 377.78 182.83 380.07 184.78 382.68 186.11 386.18 186.63 388.47 187.51 394.32 190.94 397.87 192.28 402.32 194.72 405.09 195.63 408.88 197.8 412.3 200.19 417.92 202.97 420.74 203.84 423.67 205.18 431.61 209.63 434.75 210.42 437.01 211.68 
M 367.08 180.17 369.55 181.66 372.62 183.79 375.75 184.99 377.98 186.58 379.68 188.56 382.23 190.14 384.75 191.4 387.87 193.37 390.73 195.7 394.15 197.49 399.05 198.59 400.79 200.33 407.93 204.87 411.32 207.53 413.75 208.57 418.97 210.36 421.53 211.52 
M 335.63 104.91 337.65 103.29 339.82 101.81 342.09 100.44 344.52 99.22 349.96 97.38 352.93 96.7 356.12 96.25 359.57 96.05 363.3 96.18 367.16 97.33 370.33 99.62 372.07 102.55 371.81 105.25 369.84 107.26 366.94 108.35 357.28 108.34 354.31 108.55 352.37 109.09 
M 343.3 103.72 347.16 102.11 352.93 100.58 356.12 100.13 359.57 99.94 361.44 100 
M 48.38 154.48 50.25 152 53.67 147.97 63.02 134.53 68.28 127.67 73.53 120.26 80.2 113.23 88.01 107 96.53 100.69 103.66 93.63 112.21 88.11 121.06 84.16 138.41 77.89 145.73 75.45 151.82 73.64 156.85 72.51 159.82 72.25 164.11 79.89 165.31 87.32 165.71 94.7 165.31 116.74 165.59 131.47 165.31 138.81 164.54 146.12 163.37 153.4 162.13 168.04 161.86 175.37 157.84 189.84 154.74 204.37 151.4 211.59 136.59 211.52 125.59 210.88 107.31 208.8 99.15 207.2 91.48 204.83 84.8 202.04 78.93 198.38 73.35 193.66 68.98 189.62 
M 136.88 122.54 136.81 128.92 135.91 135.14 134.34 140.99 132.37 146.17 131.06 150.77 129.91 154.97 129.47 158.75 128.39 162.37 128.14 166.28 129.43 175.28 129.03 181.03 119.25 181.92 98.41 184.39 91.64 184.37 85.11 183.2 79.42 181.07 
M 66.41 187.14 64.22 183.92 58.2 176.07 52.39 168.02 47.85 162.17 45.14 158.27 45.31 155.81 47.15 154.27 49.46 154.66 50.82 156.55 59.66 171.81 61.88 176.12 69.31 189.41 
M 66.95 189.11 62.51 186.14 58.23 183.53 49.69 178.67 41.17 173.27 36.92 170.78 34.94 169.36 31.06 166.4 30 164.19 31.1 162.23 33.5 161.85 35.47 163.11 41.01 167.66 48.99 173.61 53.11 176.94 62.88 184.14 69.18 189.28 
M 91.35 140.51 90.14 135.93 90.48 131.21 92.34 126.85 95.51 123.34 99.65 121.04 104.32 120.22 108.99 120.95 113.18 123.16 116.42 126.61 118.37 130.93 118.8 135.65 117.69 140.25 115.14 144.24 111.43 147.18 106.97 148.76 102.23 148.81 97.74 147.32 93.97 144.45 91.35 140.51 
M 91.17 140.1 90.59 138.42 90.23 136.67 90.08 134.9 90.15 133.12 90.45 131.36 90.95 129.65 91.67 128.02 92.58 126.49 93.68 125.08 94.94 123.82 96.35 122.72 97.88 121.81 99.51 121.1 101.22 120.59 102.98 120.29 104.76 120.22 106.53 120.37 108.28 120.73 109.96 121.31 
M 92.96 139.36 92.15 136.39 92.02 134.86 92.08 133.32 92.54 131.12 
M 95.81 125.69 97.44 124.33 98.77 123.54 101.65 122.48 103.18 122.22 106.25 122.29 109.22 123.11 
M 94.76 138.62 94.34 137.39 93.96 134.82 94.02 133.52 94.31 131.97 
M 97.18 127.06 98.54 125.93 99.65 125.26 102.09 124.37 103.38 124.16 105.97 124.21 108.48 124.9 
M 96.55 137.88 95.99 135.83 95.9 134.78 96.11 132.74 
M 98.42 128.56 99.63 127.53 100.54 126.99 102.53 126.26 104.64 126.04 105.69 126.13 107.73 126.69 
M 99.21 136.96 98.73 135.13 98.83 133.74 
M 100.22 130.83 100.88 130.1 102.54 129.18 104.4 128.85 106.27 129.14 107.95 130.03 109.24 131.41 110.02 133.13 110.2 135.02 109.75 136.86 108.73 138.45 107.25 139.63 105.46 140.27 103.57 140.28 101.77 139.69 100.27 138.54 99.21 136.96 
M 102.08 129.43 100.95 131.69 
M 99.76 134.07 98.9 135.78 
M 103.77 128.96 101.94 132.61 
M 101.31 133.88 99.53 137.44 
M 105.22 128.98 100.39 138.63 
M 106.53 129.27 101.45 139.44 
M 107.68 129.88 102.63 139.97 
M 108.68 130.8 103.94 140.28 
M 109.52 132.02 105.4 140.27 
M 110.09 133.81 107.16 139.66 
M 65.86 183.09 67.62 184.84 
M 48.6 154.18 49.01 154.59 
M 50.42 156 53.7 159.27 
M 51.16 150.92 54.22 153.97 
M 53.82 147.75 58.99 152.91 
M 56.23 144.33 60.11 148.21 
M 58.63 140.91 62.66 144.94 
M 61.01 137.46 66.4 142.85 
M 63.4 134.03 67.17 137.8 
M 65.93 130.73 70.42 135.22 
M 68.45 127.43 73.62 132.59 
M 70.87 124.01 74.58 127.73 
M 73.28 120.6 78.18 125.5 
M 76.08 117.57 81.81 123.31 
M 78.92 114.58 82.56 118.23 
M 81.97 111.81 84.91 114.75 
M 85.21 109.23 90.22 114.24 
M 88.47 106.66 92.43 110.62 
M 91.82 104.18 96.52 108.89 
M 95.17 101.71 99.68 106.22 
M 98.26 98.98 102 102.71 
M 101.19 96.08 104.69 99.58 
M 104.21 93.28 109.27 98.33 
M 107.75 90.99 112.1 95.34 
M 111.29 88.7 116.5 93.91 
M 115.19 86.78 119.87 91.46 
M 119.22 84.98 122.33 88.09 
M 123.38 83.31 127.77 87.7 
M 127.65 81.76 133.16 87.26 
M 131.93 80.22 135.41 83.7 
M 136.22 78.68 141.42 83.87 
M 140.55 77.18 143.81 80.44 
M 144.91 75.72 148.45 79.26 
M 149.38 74.36 154.71 79.69 
M 153.99 73.15 158.31 77.47 
M 158.99 72.32 160.88 74.21 
M 140.54 81.38 139.55 81.56 138.41 81.2 136.97 79.5 135.87 78.8 
M 106.03 105.04 104.78 104.69 104.09 104.99 102.44 106.12 101.8 106.15 
M 124.89 110.73 123.97 110.16 123.39 108.74 
M 94.99 159.6 94.78 160.4 
M 120.56 102.92 119.52 101.48 118.29 98.72 114.74 95.12 
M 112.86 121.01 112.38 121.43 111.83 121.61 110.38 121.27 108.7 120.29 107.06 118.5 105.45 117.6 104.44 117.26 101.29 116.68 
M 111.35 95.81 109.39 94.63 108.22 94.29 103.44 93.85 
M 138.41 80.35 137.34 79.12 136.35 78.63 
M 164.55 103.57 165.52 104.11 
M 165.41 108.54 165.26 109.14 
M 107.04 100.4 105.79 99.11 104.46 98.1 103.43 97.54 102.09 96.12 101.79 95.49 
M 94.26 124.73 92.79 123.34 
M 79.35 161.97 78.77 158.77 78.54 155.86 77.05 151.05 
M 133.25 166.8 137.9 165.66 141.25 164.55 142.4 163.99 142.86 163.57 
M 127.3 119.61 128.65 117.83 128.83 117.46 128.91 116.46 128.63 115.45 125.96 110.86 
M 99.66 111.77 98.61 111.25 93.43 110.05 92.4 110.22 91.58 111.12 
M 129.76 134.53 131.3 134.32 134.17 132.31 136.31 132.67 
M 125.83 84.16 125.33 82.61 
M 80.48 113.37 80.2 113.23 
M 137.24 114.14 137.79 109.65 137.43 106.17 138.27 103.8 
M 86.68 173.44 86.48 172.3 86.21 171.7 84.58 169.69 82.4 167.85 80.75 164.92 
M 164.04 106.8 163.98 107.68 162.99 110.19 162.29 110.92 
M 133.24 143.89 135.61 146.14 138.53 147.12 139.27 147.58 140.04 148.27 140.61 149.12 
M 114.75 107.44 115.27 107.34 115.69 107.04 116.14 105.82 116.2 103.46 115.54 102.32 
M 145.89 178.42 146.17 175.97 144.79 173.6 144.24 173.1 
M 77.39 193.33 74.4 194.55 
M 97.14 177.66 96.78 174.7 95.7 171.38 93.5 169.62 92.2 169.02 
M 114.02 96.78 110.42 94.49 109.49 94.12 108.38 93.92 106.27 93.98 103.47 93.82 
M 108.58 120.89 107.11 119.8 105.21 118.91 101.17 117.53 98.59 117.24 96.72 116.73 
M 158.36 104.54 158.44 105.13 158.7 105.34 
M 123.48 86.88 123.12 86.59 122.17 84.94 121.41 84.03 
M 161.59 75.4 160.85 75.63 159.74 76.78 158.67 77.27 
M 159.61 79.35 158.25 79.94 156.19 81.79 154.73 82.53 153.53 83.37 152.76 84.25 152.68 84.55 152.82 84.85 
M 156.02 145.94 155.48 145.91 
M 130.76 137.35 131.62 137.16 133.21 136.27 135.55 135.91 
M 133.25 88.31 128.79 89 128.48 88.89 
M 84.19 148.11 83.45 146.84 83.56 146.57 84.06 146.19 
M 146.23 101.39 142.85 98.63 141.93 98.08 137.8 95.9 134.22 94.8 
M 78.66 130.26 75.99 128.04 73.61 125.36 73.43 124.99 73.53 124.39 74.05 124 74.92 123.67 
M 138.79 168.21 139.67 168.37 141.26 168.34 145.01 167.8 145.32 167.59 
M 136.79 81.68 134.75 80.12 133.66 79.6 
M 67.02 184.43 67.75 184.65 68.43 185.23 68.64 185.76 68.67 186.88 68.85 187.49 
M 89.08 133.87 90.23 134.71 
M 78.35 169.97 78.28 168.12 78.47 166.55 77.71 163.47 78.06 161.12 78.15 159.13 
M 148.91 91.92 147.86 91.12 146.32 90.56 145.5 90.57 142.05 91.15 
M 144.03 128.71 145.65 127.47 148.88 125.69 
M 133.75 205.33 134.68 205.82 135.97 206.85 137.26 208.69 137.93 210.19 138.75 211.53 
M 132.09 99.48 130.69 99.37 130.39 99.25 130.3 99 
M 65.56 182.51 65.87 182.4 66.09 182.49 
M 91.86 127.99 90.06 126.14 
M 69.69 190.36 65.29 194.12 63.42 196.15 62.7 197.34 61.55 199.96 61.08 201.34 60.46 204.18 61.33 198.37 62.27 195.49 63.91 192.88 67.63 188.3 
M 45.89 176.27 49.49 179.28 55.05 183.59 60.61 187.59 65.53 190.85 
M 67.58 192.13 78.48 198.58 84.8 202.04 
M 75.16 195.19 73.65 195.76 
M 162.15 76.4 167.25 81.5 
M 164.96 71.44 176.2 82.69 
M 171.5 70.22 178.47 77.19 
M 178.03 68.98 188.76 79.71 
M 184.93 68.11 194.95 78.13 
M 193.91 69.32 203.15 78.56 
M 205.09 72.74 212.19 79.84 
M 215.16 75.04 222.42 82.3 
M 223.77 75.88 234.52 86.63 
M 232.12 76.46 242.47 86.81 
M 240.35 76.93 246.93 83.51 
M 248.43 77.23 258.9 87.7 
M 256.61 77.65 267.68 88.72 
M 265.51 78.79 273.72 87 
M 276.19 81.7 285.45 90.96 
M 290.71 88.45 301.66 99.4 
M 305.4 95.37 313.83 103.8 
M 318.33 100.53 326.7 108.9 
M 329.13 103.57 340.12 114.55 
M 338.88 105.55 345.18 111.85 
M 349.24 108.14 358.66 117.56 
M 160.56 214.56 160.94 215.32 
M 163.73 214.09 164.54 215.72 
M 167.71 215.26 168.81 217.46 
M 170.82 214.68 171.76 216.55 
M 161.26 181.96 162.12 183.7 
M 161.68 176.01 166.02 184.69 
M 180.78 214.22 182.35 217.36 
M 164.02 173.91 168.17 182.21 
M 169.91 185.68 170.78 187.42 
M 180.33 206.52 182.07 210 
M 182.94 211.73 185.4 216.66 
M 168.05 175.17 172.08 183.21 
M 182.5 204.06 189.2 217.46 
M 171.75 175.77 177.06 186.39 
M 184.01 200.28 184.88 202.02 
M 185.75 203.76 186.62 205.5 
M 187.48 207.23 192.7 217.67 
M 175.08 175.63 178.58 182.62 
M 186.39 198.25 187.26 199.99 
M 188.13 201.72 196.19 217.84 
M 178.55 175.77 182.69 184.06 
M 189.64 197.95 199.67 218.01 
M 182.25 176.37 184.29 180.46 
M 185.16 182.2 186.03 183.93 
M 192.98 197.83 201.66 215.2 
M 166 137.07 166.53 138.13 
M 186.84 178.76 187.71 180.49 
M 194.66 194.39 195.52 196.13 
M 198.13 201.34 203.34 211.76 
M 204.21 213.5 205.08 215.23 
M 168.54 135.37 169.41 137.11 
M 200.68 199.63 203.28 204.85 
M 205.02 208.32 205.89 210.06 
M 165.41 108.71 166.98 111.85 
M 167.85 113.59 168.72 115.33 
M 169.59 117.06 170.45 118.8 
M 213.88 205.64 214.74 207.38 
M 167.98 107.05 175.79 122.68 
M 208.79 188.68 209.66 190.42 
M 210.53 192.15 216.61 204.31 
M 217.48 206.05 218.35 207.78 
M 168.29 100.87 170.02 104.35 
M 170.89 106.08 179.58 123.45 
M 211.71 187.72 212.58 189.45 
M 213.45 191.19 218.66 201.61 
M 219.53 203.35 223 210.3 
M 225.61 215.51 226.04 216.38 
M 172.07 101.65 181.63 120.75 
M 212.89 183.28 225.05 207.6 
M 160.72 72.14 161.15 73.01 
M 174.18 99.07 175.05 100.8 
M 175.92 102.54 183.73 118.17 
M 217.6 185.91 227.16 205.02 
M 163.86 71.62 164.29 72.49 
M 178.19 100.28 188.61 121.13 
M 219.87 183.65 231.16 206.23 
M 178.72 94.55 179.59 96.29 
M 180.46 98.03 188.27 113.66 
M 189.14 115.39 190.88 118.87 
M 221.27 179.66 233.43 203.98 
M 180.95 92.22 181.82 93.96 
M 182.69 95.7 183.56 97.43 
M 184.43 99.17 192.24 114.8 
M 226.11 182.54 233.93 198.17 
M 234.8 199.91 237.4 205.12 
M 187.51 98.53 193.59 110.69 
M 194.45 112.43 195.32 114.16 
M 227.93 179.37 228.32 180.16 
M 230.06 183.64 230.93 185.37 
M 231.8 187.11 239.61 202.74 
M 189.72 96.15 191.45 99.63 
M 194.93 106.57 195.8 108.31 
M 196.66 110.05 197.53 111.79 
M 232.27 181.26 235.74 188.21 
M 237.48 191.68 238.35 193.42 
M 240.09 196.89 240.95 198.63 
M 214.61 139.15 215.06 140.04 
M 236.32 182.57 237.19 184.31 
M 240.66 191.25 241.53 192.99 
M 251.09 212.1 251.95 213.83 
M 252.67 215.26 252.95 215.82 
M 216.94 137.01 218.52 140.17 
M 254.28 211.69 255.77 214.66 
M 220.25 136.83 221.99 140.31 
M 256.73 209.78 258.59 213.5 
M 212.59 114.71 213.46 116.45 
M 215.19 119.92 216.06 121.66 
M 216.93 123.39 217.8 125.13 
M 223.88 137.29 225.45 140.44 
M 258.61 206.76 261.38 212.3 
M 198.84 80.42 199.71 82.16 
M 203.19 89.11 204.05 90.85 
M 211.87 106.48 212.74 108.21 
M 214.48 111.69 215.34 113.43 
M 216.21 115.16 218.82 120.37 
M 219.69 122.11 220.55 123.85 
M 221.42 125.58 222.29 127.32 
M 223.16 129.06 224.03 130.79 
M 225.77 134.27 227.5 137.74 
M 228.37 139.48 228.92 140.58 
M 260.5 203.74 261.37 205.48 
M 262.24 207.22 264.15 211.04 
M 201.1 78.13 208.04 92.03 
M 214.99 105.93 216.73 109.4 
M 217.6 111.14 224.55 125.03 
M 225.41 126.77 226.28 128.5 
M 228.89 133.72 229.76 135.45 
M 230.62 137.19 231.49 138.93 
M 232.36 140.66 232.39 140.71 
M 254.94 185.82 255.81 187.56 
M 260.15 196.24 261.02 197.98 
M 263.63 203.19 266.92 209.78 
M 202.5 74.14 210.31 89.77 
M 211.18 91.51 212.92 94.98 
M 219 107.14 229.42 127.98 
M 231.16 131.46 232.03 133.19 
M 232.89 134.93 235.5 140.14 
M 255.47 180.09 257.21 183.56 
M 258.95 187.04 259.82 188.78 
M 260.68 190.51 261.55 192.25 
M 263.29 195.72 265.03 199.2 
M 267.63 204.41 269.72 208.58 
M 205.21 72.78 205.65 73.64 
M 206.52 75.38 215.2 92.75 
M 219.54 101.43 221.28 104.91 
M 222.15 106.65 231.7 125.75 
M 233.44 129.22 234.31 130.96 
M 258.58 179.51 267.31 196.96 
M 268.18 198.7 269.91 202.17 
M 270.78 203.91 272.57 207.48 
M 209.23 74.02 218.35 92.26 
M 222.7 100.94 235.72 127 
M 261.41 178.38 270.46 196.47 
M 272.2 199.94 273.07 201.68 
M 273.93 203.42 274.89 205.34 
M 212.77 74.3 214.94 78.64 
M 215.81 80.38 218.42 85.59 
M 219.29 87.32 221.02 90.8 
M 224.5 97.75 234.92 118.59 
M 235.79 120.33 239.26 127.27 
M 264.31 177.37 274 196.75 
M 277.65 204.06 278.27 205.29 
M 215.41 72.78 221.49 84.94 
M 222.36 86.68 224.1 90.15 
M 227.57 97.1 237.99 117.94 
M 238.86 119.68 241.46 124.89 
M 249.28 140.52 249.72 141.39 
M 267.28 176.51 276.2 194.36 
M 217.62 70.39 224.56 84.29 
M 231.51 98.19 242.8 120.76 
M 250.62 136.4 251.49 138.13 
M 252.35 139.87 253.18 141.53 
M 270.36 175.87 279.28 193.71 
M 234.59 97.54 237.19 102.75 
M 238.93 106.22 239.8 107.96 
M 240.67 109.69 244.14 116.64 
M 254.56 137.48 256.65 141.66 
M 273.61 175.59 281.48 191.33 
M 239.4 100.36 240.27 102.1 
M 241.13 103.84 242 105.57 
M 242.87 107.31 244.61 110.78 
M 255.03 131.63 257.63 136.84 
M 258.5 138.57 260.12 141.8 
M 277.05 175.67 283.69 188.94 
M 259.84 134.45 263.58 141.94 
M 280.64 176.06 281.55 177.87 
M 282.42 179.61 285.02 184.82 
M 262.05 132.06 267.05 142.07 
M 283.78 175.54 284.62 177.22 
M 285.49 178.96 286.36 180.7 
M 288.1 184.17 288.97 185.91 
M 265.12 131.42 265.99 133.15 
M 266.86 134.89 270.52 142.21 
M 286.83 174.84 287.7 176.57 
M 268.19 130.77 269.06 132.5 
M 271.67 137.71 273.98 142.34 
M 272.14 131.85 273.87 135.33 
M 274.74 137.07 277.35 142.28 
M 292.27 172.13 292.98 173.54 
M 278.68 138.15 279.55 139.89 
M 280.42 141.63 280.91 142.62 
M 296.92 174.63 297.79 176.37 
M 298.57 171.14 300.86 175.72 
M 301.73 177.45 302.6 179.19 
M 256.17 79.54 258.78 84.75 
M 259.65 86.49 260.51 88.22 
M 301.96 171.12 302.2 171.59 
M 303.07 173.33 305.67 178.54 
M 256.64 73.68 262.72 85.84 
M 263.59 87.57 265.33 91.05 
M 305.47 171.34 307.88 176.16 
M 308.75 177.89 309.62 179.63 
M 243.65 40.9 244.35 42.31 
M 258.61 70.82 259.48 72.55 
M 260.34 74.29 269.03 91.66 
M 270.77 95.13 271.63 96.87 
M 278.58 110.76 280.32 114.24 
M 283.79 121.19 286.4 126.4 
M 308.12 169.84 310.71 175.03 
M 262.34 71.48 271.89 90.58 
M 272.76 92.32 273.63 94.06 
M 283.18 113.16 285.78 118.37 
M 286.65 120.11 290.13 127.06 
M 310.84 168.48 315.31 177.43 
M 267.64 75.29 275.89 91.79 
M 284.58 109.16 293.26 126.53 
M 313.62 167.25 317.58 175.16 
M 318.45 176.9 319.32 178.64 
M 271.94 77.09 276.72 86.64 
M 277.58 88.38 278.45 90.12 
M 287.14 107.49 291.48 116.17 
M 292.35 117.91 297.56 128.33 
M 316.5 166.21 319.27 171.75 
M 320.14 173.49 321.01 175.22 
M 278.43 83.27 280.16 86.74 
M 288.85 104.11 301.01 128.42 
M 319.51 165.44 321.85 170.11 
M 292.38 104.37 297.59 114.79 
M 298.45 116.53 302.8 125.21 
M 322.67 164.96 324.51 168.63 
M 329.72 179.06 331.46 182.53 
M 295.95 104.72 296.82 106.46 
M 297.69 108.2 305.5 123.83 
M 325.98 164.78 326.35 165.52 
M 328.08 168.99 333.29 179.41 
M 334.16 181.15 336.07 184.95 
M 291.38 88.79 291.81 89.65 
M 297.89 101.81 300.5 107.02 
M 301.37 108.76 306.58 119.18 
M 329.37 164.77 339.42 184.86 
M 296.32 91.86 298.05 95.33 
M 303.26 105.75 306.74 112.7 
M 307.61 114.44 308.47 116.18 
M 331.92 163.07 338 175.23 
M 338.87 176.97 342.72 184.68 
M 300.33 93.09 300.76 93.96 
M 334.49 161.42 344.19 180.8 
M 304.72 95.07 305.15 95.94 
M 337.19 160.02 348.68 183 
M 339.99 158.82 351.65 182.13 
M 342.91 157.87 354.51 181.07 
M 321.39 108.03 322.26 109.77 
M 324 113.24 324.87 114.98 
M 325.73 116.71 326.6 118.45 
M 345.97 157.19 353.53 172.29 
M 354.39 174.03 356.13 177.51 
M 356.96 179.16 357.35 179.95 
M 321.97 102.38 328.04 114.54 
M 328.91 116.27 330.65 119.75 
M 349.16 156.77 357.57 173.59 
M 359.31 177.06 360.19 178.82 
M 325.51 102.67 325.94 103.54 
M 326.81 105.28 329.42 110.49 
M 330.29 112.22 332.02 115.7 
M 332.89 117.44 334.63 120.91 
M 352.44 156.52 353.73 159.12 
M 354.6 160.86 357.21 166.07 
M 358.08 167.8 359.81 171.28 
M 329.25 103.36 332.29 109.44 
M 334.03 112.92 338.37 121.6 
M 357.48 159.81 360.95 166.76 
M 361.82 168.5 362.69 170.23 
M 332.81 103.69 339.33 116.71 
M 340.2 118.45 341.06 120.19 
M 366.91 171.88 367.14 172.34 
M 336.14 103.53 336.42 104.1 
M 336.96 105.17 342.6 116.46 
M 353.02 137.31 354.76 140.78 
M 356.5 144.25 357.17 145.6 
M 368.66 168.59 369.11 169.47 
M 338.6 101.67 340.19 104.84 
M 340.72 105.91 345.5 115.47 
M 353.32 131.1 355.92 136.31 
M 356.79 138.05 357.66 139.78 
M 358.53 141.52 360.64 145.74 
M 341.18 100.02 344 105.68 
M 344.52 106.71 346.69 111.06 
M 347.56 112.79 350.17 118 
M 354.51 126.69 363.19 144.06 
M 364.06 145.79 364.1 145.87 
M 365.6 148.87 365.8 149.27 
M 343.86 98.58 346.89 104.66 
M 347.64 106.16 347.96 106.78 
M 348.53 107.93 351.57 114.01 
M 357.65 126.17 367.57 146.01 
M 368.8 148.48 369.11 149.08 
M 347.11 98.3 347.98 100.04 
M 349.72 103.51 351.96 108 
M 359.94 123.95 361.68 127.43 
M 362.54 129.16 369.11 142.29 
M 350.05 97.38 350.92 99.12 
M 352.66 102.59 353.52 104.33 
M 354.54 106.36 355.12 107.52 
M 361.92 121.12 366.27 129.81 
M 367.13 131.55 369.11 135.49 
M 364.47 119.41 365.33 121.15 
M 366.2 122.89 369.11 128.69 
M 362.15 101.19 363.02 102.93 
M 362.54 95.18 363.85 97.79 
M 366.45 103 368.37 106.84 
M 366.42 96.13 370.41 104.13 
M 224.63 291.39 222.74 297.7 
M 228.83 291.39 226.94 297.7 
M 223.73 294.39 227.93 294.39 
M 230 293.5 230.54 297.7 
M 233.6 293.5 229.58 298.89 228.8 299.5 227.81 299.8 
M 235.4 293.5 233.51 299.8 
M 235.13 294.39 235.91 293.8 236.6 293.5 237.5 293.5 238.01 293.8 238.43 294.39 238.46 295.3 238.28 295.89 237.71 296.8 236.93 297.39 236.24 297.7 235.34 297.7 234.83 297.39 234.41 296.8 
M 242.3 293.5 241.61 293.8 240.83 294.39 240.26 295.3 240.08 295.89 240.11 296.8 240.53 297.39 241.04 297.7 241.94 297.7 242.63 297.39 243.41 296.8 243.98 295.89 244.16 295.3 244.13 294.39 243.71 293.8 243.2 293.5 242.3 293.5 
M 246.8 293.5 244.91 299.8 
M 246.53 294.39 247.31 293.8 248 293.5 248.9 293.5 249.41 293.8 249.83 294.39 249.86 295.3 249.68 295.89 249.11 296.8 248.33 297.39 247.64 297.7 246.74 297.7 246.23 297.39 245.81 296.8 
M 253.7 293.5 253.01 293.8 252.23 294.39 251.66 295.3 251.48 295.89 251.51 296.8 251.93 297.39 252.44 297.7 253.34 297.7 254.03 297.39 254.81 296.8 255.38 295.89 255.56 295.3 255.53 294.39 255.11 293.8 254.6 293.5 253.7 293.5 
M 259.13 291.39 257.6 296.5 257.63 297.39 258.14 297.7 258.74 297.7 
M 257.6 293.5 259.7 293.5 
M 260.96 295.3 264.56 295.3 264.74 294.7 264.62 294.1 263.89 293.5 263 293.5 262.31 293.8 261.52 294.39 260.96 295.3 260.77 295.89 260.81 296.8 261.23 297.39 261.74 297.7 262.64 297.7 263.33 297.39 264.11 296.8 
M 269.93 294.39 269.81 293.8 269 293.5 268.1 293.5 267.11 293.8 266.63 294.39 266.75 295 267.26 295.3 268.67 295.6 269.18 295.89 269.2 296.8 268.73 297.39 267.74 297.7 266.83 297.7 266.02 297.39 265.9 296.8 
M 274.45 295.3 278.06 295.3 278.24 294.7 278.12 294.1 277.39 293.5 276.5 293.5 275.81 293.8 275.02 294.39 274.45 295.3 274.27 295.89 274.31 296.8 274.73 297.39 275.24 297.7 276.14 297.7 276.83 297.39 277.61 296.8 
M 280.7 293.5 279.44 297.7 
M 280.15 295.3 280.73 294.39 281.51 293.8 282.2 293.5 283.1 293.5 
M 284.93 291.39 285.14 291.7 285.52 291.39 285.32 291.1 284.93 291.39 
M 284.6 293.5 283.33 297.7 
M 287.93 291.39 286.39 296.5 286.43 297.39 286.94 297.7 287.53 297.7 
M 286.39 293.5 288.5 293.5 
M 293.89 293.5 292.64 297.7 
M 293.63 294.39 293.2 293.8 292.7 293.5 291.8 293.5 291.11 293.8 290.33 294.39 289.76 295.3 289.58 295.89 289.61 296.8 290.02 297.39 290.53 297.7 291.44 297.7 292.13 297.39 292.9 296.8 
M 295.52 297.1 295.13 297.39 295.33 297.7 295.73 297.39 295.52 297.1 
"/></svg>
