<svg xmlns="http://www.w3.org/2000/svg" width="520" height="320"><rect x="0" y="0" width="520" height="320" fill="floralwhite"/><rect x="10" y="10" width="500" height="300" stroke="black" stroke-width="1" fill="none"/><path stroke="black" stroke-width="1" fill="none" stroke-linecap="round" stroke-linejoin="round" d="
M 174.76 113.34 184.87 110.36 195.09 107.84 205.31 105.54 225.75 101.78 246.19 99.26 256.42 97.66 266.64 96.54 276.86 96.2 297.3 96.13 307.52 97.39 317.74 99.02 338.19 101.1 348.41 102.46 358.63 104.4 368.85 107.05 379.07 110.21 399.51 117.85 419.96 125.18 431.19 129.41 
M 431.19 201.34 419.96 205.52 409.74 209.05 399.51 212.26 389.29 215.31 379.07 217.93 368.85 220.19 358.63 222.29 327.97 227.85 307.52 230.22 287.08 231.88 276.86 231.93 266.64 231.32 246.19 230.42 235.97 229.34 205.31 222.99 195.09 220.54 184.76 217.67 
M 431.19 154.33 416.22 153.1 404.2 151.62 394.95 150.2 
M 390.98 149.56 371.77 146.16 365.84 145.28 
M 357.62 144.46 351.27 144 347.01 143.91 330.35 143.91 319.85 143.32 
M 315.65 142.89 309.43 142.17 303.3 141.84 
M 299.21 141.98 297.15 142.16 288.74 143.55 282.21 143.96 
M 273.2 144.24 264.13 144.62 
M 255.58 145.39 247.66 145.94 
M 243.82 145.91 240 145.71 
M 228.34 145.13 222.49 145.23 216.69 145.67 
M 212.79 146.01 202.8 146.79 193.18 147.1 
M 189.47 147.13 186.33 147.18 
M 191.41 204 194.43 207.72 
M 195.1 191.33 199.23 197.57 203.85 203.65 
M 207.08 207.67 210.33 211.7 
M 196.14 182.7 197.34 184.87 202.7 193.3 207.29 199.7 
M 186.09 146.19 187.36 149.08 
M 200.42 179.59 202.29 182.71 
M 205.01 186.97 207.91 191.26 
M 183.57 129.14 186.23 134.38 
M 188.44 138.95 192.95 149.09 
M 208.9 182.79 214.91 191.51 
M 179.06 112.07 181.72 115.77 184.28 119.69 186.66 123.74 192.22 134.58 
M 194.45 139.2 198.67 148.89 
M 217.91 186.01 225.12 196.44 
M 239.95 218.55 242.54 221.94 
M 184.2 110.56 187.88 115.79 192.6 123.83 199.45 137.02 201.71 141.71 204.92 149.12 
M 223.57 184.4 228.81 192.3 
M 237.85 206.41 240.67 210.84 
M 189.3 109.27 193.76 115.85 198.5 123.91 203.32 132.55 208.02 141.69 211.31 149.14 
M 232.44 188.22 246.83 211.08 
M 251.87 218.3 254.58 221.61 
M 194.22 108.05 199.55 115.9 209.64 132.48 214.21 141.47 217.68 149.15 
M 238.95 188.81 241.97 193.65 
M 245.01 198.47 247.9 203.08 
M 258.38 218.22 261.38 221.45 
M 199.09 106.94 202.94 112.12 208.2 119.81 213.38 127.98 218.05 136.6 224.01 149.17 
M 204.08 105.82 209.16 112.08 211.85 115.8 216.94 123.57 221.71 131.86 229.99 148.6 
M 254.94 194.59 257.91 199.09 
M 260.69 203.23 263.4 207.06 
M 209.38 104.76 212.73 108.47 215.37 111.89 217.9 115.52 222.82 123.21 227.65 131.58 230.04 136.12 236.22 148.89 
M 255.13 184.95 258.2 189.77 
M 264.12 198.68 266.93 202.68 
M 269.84 206.45 272.93 210.05 
M 214.85 103.7 218.81 108.19 221.29 111.56 226.21 118.96 232.48 129.34 
M 234.96 133.96 242.16 149.21 
M 261.41 184.76 264.45 189.46 
M 267.39 193.86 270.25 198.02 
M 273.16 201.98 276.23 205.78 
M 282.53 212.92 285.54 216.19 
M 220.46 102.7 222.3 104.72 224.72 107.83 229.62 114.91 233.46 120.82 
M 236.07 125.05 239.84 131.99 244.55 142.32 247.93 149.22 
M 267.69 184.53 270.7 189.03 
M 276.5 197.39 277.95 199.43 282.6 205.27 
M 285.74 208.96 288.84 212.4 
M 226.14 101.73 228.31 104.39 230.64 107.59 238.44 118.74 239.78 120.86 
M 242.37 125.31 243.62 127.63 250.65 143.02 253.99 149.24 
M 275.06 185.71 280.08 192.88 
M 289.01 205.12 290.56 207.01 295.26 212.02 
M 301.36 218.18 304.33 221.24 
M 231.91 101.05 242.31 114.7 245.07 118.74 247.63 123.19 249.96 128.05 254.45 138.27 255.73 140.73 
M 258.39 145.57 260.55 149.25 
M 280.59 183.92 283.8 188.56 
M 289.53 197.31 290.94 199.47 293.93 203.46 295.49 205.25 
M 301.81 211.8 304.96 214.89 
M 237.61 100.36 246.29 110.82 249.15 114.58 251.79 118.74 254.15 123.34 258.56 133.24 261.04 138.21 267.55 149.27 
M 286.32 182.33 293.34 193.44 
M 296.11 197.84 297.51 199.97 299.01 201.85 
M 243.57 99.6 250.29 107.17 253.13 110.69 255.86 114.51 258.31 118.75 265.32 133.08 274.73 149.29 
M 292.52 181.26 300.02 193.98 
M 305.68 202.03 314.81 211.86 
M 317.64 215.2 320.35 218.62 
M 249.58 98.73 254.21 103.74 256.97 107.08 259.67 110.65 262.22 114.49 269.54 127.94 278.27 142.55 279.61 145.03 
M 304.09 189.72 306.72 194.17 
M 309.43 198.23 310.82 200.16 315.19 205.33 
M 318.09 208.69 320.92 212.12 
M 255.43 97.82 258 100.54 260.68 103.7 265.82 110.6 268.3 114.39 274.96 125.31 
M 277.98 130.07 282.55 137.42 285.3 142.35 288.88 149.32 
M 308.23 185.07 312.04 191.9 315.96 197.94 
M 318.71 201.66 321.53 205.25 
M 261.19 97.14 264.26 100.54 269.3 106.98 283.47 127.35 289.47 137.01 295.85 149.2 
M 311.59 178.69 312.4 180.21 
M 317.38 189.38 319.84 193.55 
M 266.68 96.54 270.25 100.52 275.41 106.8 284.15 117.97 287.36 122.35 290.51 126.93 293.46 131.59 297.41 138.64 
M 302.5 148.71 302.83 149.35 
M 319.28 180.15 324.01 188.99 
M 326.43 193.16 331.95 201.43 
M 272.42 96.35 282.03 106.54 286.61 111.76 
M 289.74 115.62 294.44 121.93 297.41 126.36 300.15 130.89 302.7 135.56 309.09 148.58 
M 326.25 180.02 330.77 188.69 
M 333.24 192.98 336.07 197.32 
M 342.2 205.74 345.27 209.71 
M 278.49 96.19 286.04 103.09 289.17 106.24 292.28 109.66 295.38 113.37 299.92 119.47 
M 302.76 123.75 306.72 130.49 315.77 148.73 
M 330.2 174.2 337.76 188.53 
M 340.46 192.98 343.47 197.48 
M 285.41 96.13 290.06 99.91 293.26 102.84 296.41 106.05 299.48 109.53 302.49 113.27 305.37 117.26 309.4 123.68 
M 311.97 128.26 322.85 149.4 
M 337.17 174.01 340.07 179.47 
M 342.44 183.93 345.05 188.46 
M 347.95 193.07 350.99 197.64 
M 356.76 206.14 359.45 209.99 
M 292.91 96.12 297.33 99.71 300.47 102.71 303.5 106 306.43 109.56 309.26 113.35 311.97 117.39 317.26 126.25 323.67 138.4 
M 326.4 143.6 329.6 149.41 
M 344.37 174.51 349.52 183.71 
M 352.35 188.42 355.31 193.13 
M 301 96.58 304.45 99.65 307.41 102.75 310.23 106.13 315.8 113.72 318.59 117.93 322.59 124.58 
M 325.13 129.12 331.55 141.1 336.29 149.43 
M 348.21 169.33 350.91 174 
M 362.2 193.06 367.55 201.72 
M 370.09 205.67 372.61 209.45 
M 309.02 97.63 311.15 99.79 313.93 103.01 316.76 106.57 321.09 112.49 
M 323.91 116.67 327.91 123.1 338.01 141.18 343 149.45 
M 352.92 165.98 354.61 168.85 
M 366.05 188.16 374.03 201.26 
M 376.5 205.29 378.94 209.2 
M 316.22 98.78 320.49 103.71 323.44 107.46 329.18 115.53 334.25 123.75 341.7 136.55 349.75 149.46 
M 361.14 168.62 372.63 187.73 
M 322.63 99.52 327.07 104.7 332.85 112.38 335.47 116.32 342.65 128.08 356.45 149.48 
M 364.89 163.67 370.77 173.28 
M 373.65 178.03 376.44 182.71 
M 379.1 187.31 381.67 191.86 
M 388.8 205.27 390.55 208.58 
M 328.7 100.14 333.41 105.61 336.23 109.26 338.84 112.97 345.99 124.15 358.06 141.55 363.06 149.49 
M 369.91 160.86 376.02 170.65 380.25 177.75 
M 382.91 182.45 385.45 187.15 
M 387.9 191.87 390.24 196.57 
M 334.71 100.75 339.36 106.17 341.91 109.58 349.03 120.19 361.5 137.05 363.04 139.34 
M 374.67 157.84 375.11 158.52 
M 381.19 168.08 385.38 175.28 389.21 182.49 
M 391.6 187.32 393.88 192.14 
M 340.83 101.45 344.86 106.3 354.75 120.02 364.68 132.68 367.86 137.18 375.29 148.94 
M 379.45 155.25 384.73 163.22 
M 392.92 177.8 397.53 187.6 
M 347.01 102.28 350.25 106.18 357.91 116.18 367.78 128.48 371.01 132.85 375.47 139.64 
M 378.43 144.3 381.9 149.54 
M 384.36 153.13 388 158.47 
M 391.09 163.28 392.57 165.71 396.59 173.03 
M 353.69 103.46 367.77 120.4 374.27 128.69 377.28 132.95 384.69 144.28 
M 387.89 148.96 388.3 149.55 
M 389.64 151.48 395.92 160.9 400.18 168.2 
M 409.52 187.88 411.77 192.65 
M 361.18 105.06 368.26 113.08 377.8 124.7 383.64 132.81 394.92 149.57 
M 395.3 150.13 400.71 158.45 
M 403.64 163.32 407.75 170.6 408.98 173.06 
M 411.35 177.97 413.59 182.88 
M 369.66 107.3 378.45 117.13 384.42 124.51 390.17 132.37 400.98 148.6 
M 404.08 153.47 407.06 158.36 
M 412.67 168.07 415.22 172.88 
M 417.58 177.72 419.93 182.61 
M 379.11 110.23 382.2 113.54 388.09 120.32 393.9 127.64 399.88 136.3 407.51 148.38 
M 410.48 153.31 416.15 163.01 
M 423.72 177.26 426.29 182.23 
M 389.96 114.22 394.71 119.34 399.13 124.87 
M 402.08 129.04 405.05 133.58 
M 408.02 138.36 413.89 148.21 
M 416.75 153.1 423.41 164.79 427.2 171.82 
M 401.68 118.63 404.3 121.98 407.22 126.23 410.1 130.86 422.86 152.8 
M 425.48 157.39 428.02 161.89 
M 411.1 121.98 413.61 126 420.69 138.21 
M 423.53 143.13 428.93 152.5 
M 418.93 124.8 429.75 143.19 
M 426.31 127.57 431.19 135.3 
M 176.9 112.71 175.78 114.16 
M 184.99 110.33 179.66 117.31 
M 192.41 108.5 182.05 122.33 
M 199.61 106.82 194.31 113.96 
M 191.54 117.79 183.46 128.6 
M 207.09 105.2 204.21 108.58 201.47 112.12 185.34 134.34 
M 214.69 103.73 209.04 110.32 
M 206.13 114 189.74 136.71 185.42 142.99 
M 221.72 102.48 219.5 104.9 213.87 111.96 208.01 119.81 194.19 139.18 
M 191.04 143.7 187.45 149.08 
M 228.5 101.46 225.53 104.53 222.63 107.96 219.85 111.65 209.82 125.98 
M 206.73 130.34 197.03 143.98 
M 193.79 148.64 193.47 149.1 
M 235.3 100.65 231.55 104.28 228.53 107.66 225.68 111.31 211.48 132.43 199.6 149.11 
M 242.46 99.74 237.75 104.17 234.57 107.53 231.6 111.11 226.03 118.96 212.83 139.2 
M 209.48 144.04 205.83 149.12 
M 249.89 98.68 244.35 103.99 241.05 107.39 237.86 111.01 231.98 118.78 227.75 125.08 
M 224.89 129.5 221.95 134.11 
M 257.44 97.55 254.29 100.59 247.86 107.23 244.59 110.86 238.24 118.74 235.25 122.87 229.42 131.55 218.5 148.65 
M 198.03 179.27 195.7 182.74 
M 264.58 96.77 260.74 100.54 254.64 107.1 248.2 114.59 244.87 118.74 241.61 123 235.54 131.65 229.38 140.89 224.76 148.54 
M 201.83 182.72 198.85 186.98 
M 190.64 200.01 190.03 201.07 
M 270.97 96.4 266.84 100.53 261.09 107.07 254.95 114.51 249.86 120.97 
M 243.21 129.94 235.56 141.14 231.06 148.62 
M 205.26 186.97 200.79 193.31 196.74 199.7 
M 194.26 203.84 191.89 207.84 
M 277.22 96.2 272.82 100.49 270 103.62 264.33 110.62 258.12 118.75 251.14 128.11 244.61 137.41 241.6 141.89 237.16 149.2 
M 214.38 184.24 208.91 191.28 
M 205.87 195.46 203.06 199.6 
M 200.46 203.64 197.97 207.58 
M 283.64 96.15 279.1 100.34 276.12 103.48 270.34 110.5 254.02 133.23 246.19 145.01 
M 221.36 184.62 215.93 191.55 
M 209.78 199.78 206.96 203.73 
M 290.43 96.12 285.97 100.07 282.76 103.23 279.6 106.64 275.05 112.26 
M 272.09 116.38 257.04 138.27 250 149.23 
M 228.78 184.12 222.99 191.93 
M 213.85 204.19 211 207.94 
M 205.47 214.86 203.98 216.67 
M 297.41 96.14 293.18 99.81 289.9 102.94 284.95 108.17 
M 281.69 111.98 280.08 113.96 277.03 118.29 270.81 127.89 256.42 149.24 
M 232.67 188.21 229.76 192.35 
M 226.84 196.54 223.88 200.75 
M 303.55 96.9 297.15 102.75 293.84 106.1 290.49 109.71 287.16 113.65 283.93 117.98 274.48 132.7 263.08 149.26 
M 227.8 205.54 224.9 209.59 
M 309.55 97.71 304.25 102.71 301.02 106 297.72 109.55 292.74 115.52 
M 289.51 119.99 278.28 137.56 270.01 149.27 
M 245.63 189.39 241.53 195.84 237.26 201.98 
M 234.44 206.13 231.64 210.25 
M 315.35 98.64 310.94 102.85 303.14 111.41 
M 299.88 115.33 294.99 121.9 285.36 137.31 281.9 142.46 277.01 149.29 
M 254.54 185.04 252.06 189.77 
M 249.43 194.38 246.67 198.66 
M 243.79 202.72 240.9 206.73 
M 321.73 99.43 317.44 103.33 314.42 106.35 311.4 109.69 306.76 115.3 
M 303.54 119.41 298.67 126.26 288.79 142.12 283.88 149.31 
M 261.22 184.31 257.18 192.25 254.56 196.93 253.15 199.1 
M 247.24 207.2 244.27 211.05 
M 328.39 100.11 317.99 110.23 314.89 113.64 308.61 121.46 305.37 125.89 302.09 130.72 290.44 149.32 
M 267.36 184.49 264.7 189.49 
M 262.14 194.34 258.14 201.29 256.64 203.38 
M 253.57 207.41 250.45 211.19 
M 334.74 100.75 321.59 114.41 318.38 117.91 315.15 121.74 308.64 130.48 303.65 138.04 
M 300.32 143.47 296.8 149.34 
M 273.12 185.34 270.96 189.05 
M 268.31 193.8 265.67 198.53 
M 340.52 101.41 334.08 109.02 321.81 122.38 318.49 126.35 315.17 130.7 308.49 140.44 303.21 149.35 
M 280.53 183.94 280.34 184.24 
M 277.4 188.68 271.82 197.85 
M 263.36 210.87 260.17 214.68 
M 345.76 102.11 342.35 106.28 336.02 114.55 
M 333.12 117.93 325.1 126.94 321.76 131.1 318.42 135.68 315.07 140.61 309.78 149.37 
M 289.06 181.76 287.19 184.3 
M 281.06 192.87 275.42 201.75 
M 350.66 102.89 347.74 106.25 340.47 116.65 337.73 120.21 328.29 131.55 325.01 135.99 321.73 140.83 316.56 149.38 
M 294.12 184.61 287.69 193 
M 276.68 209.68 273.99 213.7 
M 355.58 103.82 353.26 106.13 350.65 109.32 343.39 120.36 333.06 134.08 
M 329.92 138.65 328.35 141.04 323.46 149.4 
M 303.7 181.27 301.01 184.95 
M 297.61 189.39 294.33 193.52 
M 291.2 197.46 288.3 201.31 
M 285.61 205.2 283.07 209.16 
M 360.76 104.95 356.39 109.19 353.68 112.59 351.21 116.3 346.43 124.14 337.84 136.44 336.34 138.79 
M 333.39 143.72 330.28 149.42 
M 311.2 180.23 307.76 185.08 
M 304.35 189.72 294.81 201.66 
M 292.05 205.22 289.43 208.85 
M 278.72 223.43 277.24 225.12 
M 366.07 106.33 362.81 109.4 359.81 112.61 357.04 116.17 354.57 120.02 349.84 128.17 341.37 141.23 338.5 146.25 336.89 149.43 
M 321.73 175.37 321.71 175.39 
M 318.08 180.2 307.69 194.16 
M 304.45 198.28 295.88 208.72 
M 293.23 212.17 290.57 215.74 
M 371.58 107.9 366.54 112.97 363.56 116.38 360.86 120.08 358.39 124.04 352.29 134.66 
M 349.51 139.1 345.17 146.23 343.48 149.45 
M 329.64 174.24 325.04 180.08 
M 321.26 184.76 317.66 189.39 
M 314.29 193.91 309.55 200.2 305.23 205.44 
M 299.74 211.89 297 215.23 
M 294.2 218.69 291.36 222.13 
M 377.09 109.6 370.48 116.8 367.57 120.39 364.92 124.23 356.19 139.25 
M 353.35 143.88 350.11 149.46 
M 336.52 174.02 333.92 177.52 328.06 184.45 
M 324.29 188.99 317.61 197.82 
M 314.63 201.8 311.83 205.35 
M 306.39 211.74 300.72 218.22 
M 382.31 111.4 374.47 120.74 371.61 124.53 368.99 128.52 364.09 137.09 356.72 149.48 
M 338.81 179.51 329.13 190.89 327.41 193.1 
M 324.12 197.44 321.06 201.53 
M 318.19 205.24 315.5 208.62 
M 387.16 113.18 378.32 124.7 375.48 128.72 372.85 132.9 363.3 149.49 
M 354 165.64 350.59 171.58 347.4 176.66 345.61 179.11 
M 341.88 183.91 338 188.5 
M 334.26 192.95 330.82 197.27 
M 324.57 205.2 321.72 208.72 
M 316.41 215.1 313.76 218.17 
M 391.78 114.92 381.97 128.66 379.14 132.94 376.49 137.36 369.73 149.51 
M 358.53 168.67 354 176.24 350.74 181.26 347.16 186.11 341.52 192.97 
M 396.37 116.66 385.54 132.7 380.06 141.97 376.34 148.97 
M 369.72 160.99 357.57 181.05 354.33 186 349.02 193.06 
M 345.39 197.51 341.8 201.68 
M 338.33 205.57 335.02 209.21 
M 401.05 118.4 389.18 136.98 386.39 141.85 382.34 149.54 
M 379.36 155.29 376.29 160.93 368.84 173.37 
M 365.79 178.4 361.2 185.92 356.33 193.12 
M 345.7 205.88 342.22 209.56 
M 405.96 120.14 395.85 136.56 392.96 141.56 388.69 149.55 
M 387.37 152.11 382.84 160.83 378.58 168.14 
M 375.55 173.1 372.48 178.11 
M 369.4 183.15 364.75 190.64 359.94 197.68 
M 356.55 202.05 353.03 206.1 
M 346.06 213.41 342.75 216.74 
M 410.99 121.94 402.57 136.13 395.12 149.57 
M 394.77 150.24 387.9 163.24 
M 382.15 172.9 379.09 177.8 
M 375.99 182.75 372.89 187.73 
M 369.77 192.66 366.61 197.44 
M 363.34 201.93 359.98 206.12 
M 356.57 210.01 353.17 213.66 
M 416.13 123.79 410.56 133.32 
M 407.73 138.37 399.46 153.55 
M 396.85 158.46 392.89 165.71 385.55 177.68 
M 382.47 182.47 373.12 196.95 
M 421.3 125.68 415.51 135.7 401.86 160.89 397.73 168.18 
M 394.83 173 388.79 182.48 
M 385.7 187.15 376.34 201.09 
M 426.5 127.64 419.06 140.66 406.77 163.28 
M 403.95 168.19 397.97 177.91 
M 394.9 182.66 391.85 187.32 
M 388.8 191.9 385.73 196.42 
M 376.29 209.27 373.67 212.54 
M 431.19 130.54 422.57 145.59 411.65 165.66 407.2 173.07 
M 404.07 178.01 393.25 194.45 388.72 200.98 
M 431.19 141.5 423.21 155.2 416.4 167.89 
M 413.44 172.95 403.67 187.83 
M 431.19 151.61 426.42 159.67 422.35 167.35 
M 419.52 172.56 414.83 180.36 400.32 201.63 
M 431.19 161.29 424.08 174.65 421.07 180 419.43 182.6 
M 416.08 187.72 412.7 192.63 
M 409.41 197.33 406.23 201.79 
M 431.19 171.97 427.31 179.55 424.27 184.9 422.61 187.47 
M 419.26 192.46 415.85 197.21 
M 203.5 105.46 205.31 105.54 
M 218.36 102.62 223.3 52.61 224.31 52.69 222 102.44 
M 233.34 100.48 240.97 39.35 241.98 39.45 236.99 100.44 
M 248.33 98.44 257.39 30 258.39 30.11 251.99 98.36 
M 263.34 96.4 275.28 33.42 276.27 33.59 266.99 96.53 
M 278.48 95.75 293.52 38.39 294.5 38.63 282.1 96.16 
M 293.64 95.57 310.88 46.66 311.84 46.97 297.26 96.13 
M 308.71 97.17 322.29 66.94 323.23 67.32 312.21 98.14 
M 326.29 99.37 327.97 100.07 
M 206.03 105.41 210.91 95.35 213.21 90.17 215.31 84.92 217.19 79.59 218.84 74.18 220.28 68.7 222.81 57.62 
M 224.08 57.71 228.45 56.02 230.51 55.02 232.45 53.85 234.24 52.49 235.89 50.93 237.41 49.21 240.21 45.46 
M 241.47 45.59 245.46 44.77 247.36 44.18 249.15 43.42 250.81 42.44 252.36 41.27 253.8 39.9 256.49 36.84 
M 257.75 36.98 261.17 38.87 262.91 39.62 264.68 40.16 266.5 40.46 268.35 40.53 270.24 40.39 274.09 39.72 
M 275.34 39.93 278.73 42.12 280.47 43.02 282.27 43.72 284.12 44.19 286.03 44.42 287.99 44.45 292.02 44.13 
M 293.25 44.42 296.26 47.19 297.84 48.39 299.51 49.4 301.28 50.2 303.14 50.77 305.09 51.15 309.16 51.55 
M 310.37 51.94 311.6 56.6 312.38 58.83 313.35 60.96 314.53 62.96 315.91 64.84 317.47 66.62 320.94 69.96 
M 322.11 70.44 322.01 77.2 322.15 80.54 322.5 83.85 323.08 87.11 323.9 90.34 324.93 93.52 327.38 99.82 
M 226.29 56.9 230.51 55.02 232.45 53.85 234.24 52.49 235.89 50.93 238.84 47.37 
M 226.53 64.74 230.01 63.19 231.61 62.22 234.45 59.82 236.88 56.88 
M 226.77 72.58 229.51 71.36 230.77 70.6 233.01 68.71 234.92 66.39 
M 227.01 80.42 229.93 78.98 231.57 77.59 232.97 75.9 
M 243.49 45.21 247.36 44.18 249.15 43.42 250.81 42.44 252.36 41.27 255.17 38.41 
M 243.39 51.57 246.81 50.65 248.39 49.98 249.86 49.12 251.23 48.08 253.7 45.55 
M 243.29 57.92 246.26 57.13 247.63 56.54 250.09 54.89 252.24 52.7 
M 243.19 64.27 245.71 63.6 246.87 63.1 248.96 61.7 250.78 59.84 
M 243.09 70.62 245.16 70.07 246.11 69.66 247.83 68.51 249.32 66.99 
M 243 76.97 245.35 76.22 246.69 75.33 247.86 74.14 
M 259.45 37.97 262.91 39.62 264.68 40.16 266.5 40.46 268.35 40.53 272.16 40.09 
M 259.24 44.93 262.29 46.39 263.86 46.87 265.46 47.14 267.1 47.2 270.46 46.81 
M 259.03 51.9 261.68 53.16 264.43 53.81 265.85 53.86 268.77 53.53 
M 258.81 58.86 261.06 59.94 262.22 60.29 264.6 60.53 267.07 60.25 
M 258.6 65.83 260.45 66.71 262.36 67.16 265.38 66.97 
M 258.39 72.8 259.83 73.48 261.33 73.84 263.69 73.68 
M 277.02 41.06 280.47 43.02 282.27 43.72 284.12 44.19 286.03 44.42 290 44.33 
M 276.42 48.82 279.38 50.5 280.93 51.1 282.52 51.5 284.16 51.7 287.57 51.63 
M 275.81 56.57 278.29 57.98 280.92 58.82 282.3 58.99 285.15 58.92 
M 275.2 64.32 277.2 65.46 278.24 65.86 280.43 66.27 282.73 66.22 
M 274.6 72.07 276.9 73.24 278.56 73.55 280.3 73.51 
M 294.74 45.84 297.84 48.39 299.51 49.4 301.28 50.2 303.14 50.77 307.11 51.39 
M 293.77 52.89 296.44 55.08 297.87 55.95 299.39 56.63 300.99 57.12 304.41 57.66 
M 292.8 59.93 295.03 61.76 296.23 62.49 298.85 63.48 301.7 63.92 
M 291.83 66.97 293.63 68.45 294.59 69.04 296.7 69.83 299 70.19 
M 290.86 74.02 292.96 75.58 294.55 76.18 296.3 76.46 
M 310.95 54.3 312.38 58.83 313.35 60.96 314.53 62.96 315.91 64.84 319.17 68.31 
M 309.06 64.26 310.17 67.74 310.91 69.36 312.87 72.34 315.37 75 
M 307.18 74.22 307.95 76.64 309.09 78.84 309.83 79.84 311.57 81.69 
M 186.35 147.28 422.16 148.42 422.16 149.43 187.22 150.83 
M 187.32 151.71 389.02 163.25 388.97 164.26 187.67 155.26 
M 187.77 156.18 355.5 174.68 355.4 175.68 187.59 159.69 
M 187.53 160.59 321.86 182.69 321.71 183.69 187.68 164.14 
M 187.79 165.1 288.36 187.3 288.16 188.28 188.45 168.74 
M 188.81 169.87 255.27 188.53 255.01 189.51 189.9 173.57 
M 190.16 174.97 222.84 186.44 222.53 187.4 190.78 178.29 
M 190.75 178.98 191.32 179.27 190.96 180.21 190.71 180.15 
M 397.92 149.57 390.8 151.15 387.31 152.12 383.9 153.29 380.59 154.68 377.37 156.29 374.23 158.09 368.11 162.06 
M 368.04 163.33 360.97 164.18 357.49 164.8 354.07 165.62 350.73 166.66 347.46 167.94 344.25 169.41 337.95 172.74 
M 337.82 174.01 330.85 174.15 327.41 174.42 324.01 174.89 320.67 175.59 317.37 176.53 314.11 177.68 307.68 180.36 
M 307.49 181.61 300.69 181.06 297.31 180.98 293.96 181.1 290.63 181.47 287.33 182.07 284.06 182.89 277.54 184.91 
M 277.28 186.15 270.71 184.92 267.43 184.5 264.15 184.29 260.87 184.32 257.59 184.59 254.32 185.07 247.77 186.42 
M 247.45 187.65 241.15 185.76 237.99 185.01 234.8 184.47 231.6 184.17 228.37 184.11 225.12 184.26 218.59 184.95 
M 218.2 186.16 212.32 183.25 209.33 181.99 206.28 180.93 203.17 180.11 200 179.51 196.78 179.12 190.76 178.75 
M 394.34 150.33 387.31 152.12 383.9 153.29 380.59 154.68 377.37 156.29 371.15 160.03 
M 369.31 150.41 363.1 152 360.09 153.03 357.16 154.26 354.32 155.68 348.83 158.99 
M 344.28 150.5 338.89 151.88 333.74 153.84 331.27 155.07 326.5 157.94 
M 319.25 150.59 314.68 151.76 310.31 153.42 308.22 154.46 304.18 156.9 
M 294.22 150.68 290.47 151.64 286.89 153 285.17 153.86 281.85 155.86 
M 269.19 150.77 264.84 152 262.12 153.25 259.53 154.81 
M 364.49 163.71 357.49 164.8 354.07 165.62 350.73 166.66 347.46 167.94 341.09 171.04 
M 338.63 162.51 332.61 163.44 329.67 164.15 326.8 165.05 323.99 166.14 318.51 168.81 
M 312.78 161.31 307.73 162.09 305.28 162.68 300.51 164.35 295.92 166.58 
M 286.92 160.1 282.86 160.73 280.88 161.2 277.04 162.55 273.34 164.35 
M 261.06 158.9 256.48 159.73 253.57 160.76 250.76 162.12 
M 334.33 174.04 327.41 174.42 324.01 174.89 320.67 175.59 317.37 176.53 310.89 178.98 
M 307.28 171.43 301.58 171.74 296.01 172.71 293.29 173.49 287.95 175.51 
M 280.24 168.83 275.75 169.07 271.36 169.84 269.22 170.45 265.01 172.04 
M 253.2 166.22 249.91 166.4 246.71 166.96 242.06 168.56 
M 304.08 181.29 297.31 180.98 293.96 181.1 290.63 181.47 287.33 182.07 280.8 183.86 
M 275.08 177.07 269.89 176.82 264.77 177.2 262.24 177.66 257.23 179.03 
M 246.08 172.84 242.47 172.67 238.91 172.93 237.15 173.26 233.66 174.21 
M 274 185.49 267.43 184.5 264.15 184.29 260.87 184.32 257.59 184.59 251.04 185.7 
M 241.03 179.09 236.76 178.45 234.62 178.31 230.36 178.51 226.11 179.23 
M 244.3 186.67 237.99 185.01 234.8 184.47 231.6 184.17 228.37 184.11 221.86 184.56 
M 246.19 230.42 251.43 235.65 254.03 239.25 257.47 242.06 273.61 273.56 271.85 275.97 270.36 278.64 267.39 279.41 265.05 279.81 262.48 280 259.49 279.75 254.24 276.82 248.99 273.18 240.75 267.88 239.4 267.52 238.35 266.98 223.77 240.46 222.04 235.13 219.92 230.68 215.53 225.1 
M 241.18 229.89 244.3 233.61 246.43 236.8 248.83 239.84 250.79 242.16 252.7 243.88 253.92 247.05 255.83 250.66 258.03 252.31 259.63 254.7 262.5 257.8 266.04 263.15 
M 236.17 229.36 238.99 232.99 243.04 239.18 244.96 241.58 249.65 249.14 251.42 252.58 254.5 256.02 
M 231.22 228.38 233.48 231.9 235.49 235.58 237.75 239.04 241.32 243.68 242.09 246.89 243.66 249.39 244.93 252.59 
M 226.28 227.38 228.14 230.57 229.52 234.08 231.06 237.37 232.99 240.66 237.03 246.66 238.04 249.57 239.23 252.33 
M 221.35 226.34 223.65 230.19 224.86 233.29 225.86 237.23 226.74 239.89 228.3 242.84 231.73 246.48 234.7 252.25 235.93 255.44 235.55 258.15 
M 421.34 204.34 425.45 211.22 424.68 211.87 418.57 206.69 
M 407.03 209.19 421.03 228.37 420.25 229.01 404.22 211.49 
M 392.61 213.66 407.39 235.47 406.59 236.08 389.71 215.84 
M 378.01 217.47 391.26 239.19 390.43 239.76 375.01 219.52 
M 363.25 220.69 374.7 241.22 373.85 241.76 360.19 222.63 
M 348.41 223.51 357.35 240.79 356.48 241.32 345.31 225.39 
M 329.52 226.92 332.44 234.38 331.58 234.89 326.41 228.78 
M 424.07 211.35 421.84 214.34 420.91 215.89 420.19 217.5 419.7 219.18 419.43 220.93 419.37 222.73 419.63 226.45 
M 418.64 227.26 415.26 227.43 413.65 227.69 412.14 228.14 410.72 228.81 409.41 229.7 408.19 230.78 405.91 233.29 
M 404.9 234.05 401.32 233.44 399.57 233.33 397.86 233.42 396.2 233.75 394.58 234.32 393.01 235.09 389.94 237.02 
M 388.89 237.73 385.36 236.76 383.61 236.47 381.89 236.39 380.19 236.55 378.5 236.95 376.84 237.56 373.56 239.17 
M 372.48 239.85 368.98 238.38 367.23 237.84 365.46 237.52 363.67 237.43 361.88 237.58 360.08 237.95 356.45 239.07 
M 355.37 239.72 350.54 237.12 348.07 236 345.55 235.1 342.97 234.42 340.33 233.97 337.64 233.73 332.15 233.63 
M 416.93 227.3 413.65 227.69 412.14 228.14 410.72 228.81 409.41 229.7 407.03 232 
M 410.44 222.14 408.31 222.39 407.33 222.68 405.55 223.7 404.01 225.19 
M 403.1 233.71 399.57 233.33 397.86 233.42 396.2 233.75 394.58 234.32 391.47 236.01 
M 396.36 227.73 394.06 227.48 391.87 227.76 390.82 228.12 388.79 229.22 
M 387.12 237.21 383.61 236.47 381.89 236.39 380.19 236.55 378.5 236.95 375.2 238.32 
M 380.82 231.21 378.54 230.73 377.42 230.68 375.22 231.05 373.07 231.94 
M 370.74 239.07 367.23 237.84 365.46 237.52 363.67 237.43 361.88 237.58 358.27 238.46 
M 430.18 129.02 433.88 128.29 437.45 127.2 440.09 126.12 442.61 124.36 444.58 122.68 447.02 121.31 449.85 120.44 452.47 118.16 454.78 117.29 457.72 116.58 461.39 114.63 468.27 111.71 470.83 110.34 473.51 107.73 476.31 106.22 479.35 105.51 474.4 112.31 473.26 115.41 471.16 117.56 469.9 120.53 467.15 125.48 466.64 128.75 465.23 131.27 463.17 133.14 462.54 136.47 460.94 143.17 457.24 148.01 456.95 154.15 456.21 156.68 455.89 159.76 455.05 162.31 451.52 166.54 450.67 169.91 449.65 172.64 449.9 175.33 451.82 179.31 451.95 185.99 451.3 188.13 450.5 190.07 450.68 192.95 452.16 196.26 453.92 198.89 455.13 201.42 454.65 204.42 454.95 207.64 455.01 210.15 455.99 213.63 456.33 216.29 457.99 221.95 454.1 220.12 450.52 217.93 447.31 214.49 444.29 212.24 441.69 209.77 438.37 207.54 434.84 204.72 430.18 201.73 
M 436.84 131.31 440.41 130.02 443.15 128.8 445.98 126.31 448.12 125.05 450.26 124.26 453.31 123.9 455.33 123.35 458 121.78 461.52 120.41 467.3 116.33 
M 436.65 134.88 440.11 133.85 443.02 132.55 445.98 130.7 447.83 129.24 451.2 128.26 453.98 127.7 456.48 127.47 459.69 125.86 462.16 124.3 465.93 123.57 
M 439.55 137.94 443 136.93 451.71 133.47 455.53 132.12 458.61 131.64 460.62 131.56 464.04 129.7 
M 434.55 144.06 437.95 143.49 441.22 143.21 443.2 141.58 446.52 140.45 
M 438.48 147.17 441.87 146.42 444.51 146.29 
M 430.18 150.83 434.34 151.51 445.1 151.02 447.6 150.35 450.34 148.42 
M 435.37 155.52 439.25 156.06 442.69 155.58 446.15 156.42 449.47 156 
M 435.42 159.08 439.78 160.03 443.33 160.12 446.37 161.08 
M 439.26 163.59 442.8 164.03 
M 434.56 168.07 438.58 168.79 442.62 169.85 447.15 170.64 
M 430.18 169.01 434.34 171.44 438.78 172.95 
M 434.69 175.31 442.06 177.04 
M 434.92 178.97 438.56 179.91 441.8 181.17 445.31 182.15 
M 430.18 179.91 434.74 181.92 438.79 184.26 442.25 185.81 444.57 186.43 
M 430.18 183.55 434.08 186.72 437.58 188.08 440.85 189.67 
M 437.75 192.03 441.23 193.69 447.16 197.02 
M 437.75 196.39 441.15 197.96 444.2 199.73 
M 434.67 197.36 437.63 199.78 440.98 202.21 443.43 203.57 
M 438.05 203.67 444.51 208.05 446.23 210.82 
M 336.44 99.35 338.15 99.33 340.14 99.59 341.97 98.95 343.6 97.76 345.44 96.8 347.53 96.51 351.01 101.2 353.13 101.84 355.09 102.2 357.02 101.9 360.72 100.19 362.78 100.35 365.2 103.75 366.67 105.29 370.44 106.35 376.16 104.54 377.76 105.58 380.13 109.06 381.88 110.17 383.76 110.85 385.71 111.28 389.54 110.24 391.3 110.27 393.11 113.05 394.47 114.24 398.56 115.95 400.86 115.97 402.88 115.63 405.05 115.5 407.27 118.22 408.64 119.61 410.65 120.41 412.55 121.1 414.57 121.16 418.89 120.88 419.96 125.18 
M 72.93 142.29 75.13 139.34 78.41 136.09 82.57 132.9 86.99 130.53 103.78 123.27 110.68 121.22 118.8 119.84 126.35 118.17 134.18 116.72 156.36 113.96 168.29 113.05 172.48 112.96 174.69 113.27 180.89 118.3 182.45 123.69 183.57 129.13 184.41 134.59 184.85 140.09 185.93 145.53 187.24 150.94 187.79 156.43 187.44 162.01 188.05 167.49 189.77 172.87 190.78 178.32 190.56 183.88 190.89 189.39 190.78 194.95 189.34 206.18 188.16 211.83 184.76 217.65 168.89 217.16 157.41 216.11 146.87 214.2 137.49 211.71 129.16 208.75 121.74 204.98 114.95 200.79 108.69 196.64 102.54 191.49 96 185.34 
M 93.73 183.12 85.2 174.66 81.22 169.64 77.88 164.2 75.68 159.43 74.45 154.53 73.99 151.8 
M 158.42 141.15 158.66 145.81 157.72 150.22 157.35 154.19 157.79 157.74 157.64 161.16 156.75 164.5 157.1 170.78 157.61 174.33 158.8 178.41 159.87 182.96 159.39 188.25 140.93 189.66 133.3 189.56 126.03 188.86 119.21 187.43 112.91 184.86 107.05 181.46 
M 94.61 184.53 88.32 174.91 84.74 168.61 75.52 154.05 74.1 151.95 70.79 147.88 69.74 145.54 70.73 143.05 73.1 142.23 75.24 143.65 78.01 148.2 81.68 155.08 86.93 165.89 90.92 174.84 96.2 185.21 
M 95.67 185.99 81.21 183.04 66.52 179.55 58.46 178.13 53.49 177.06 44.39 174.85 42.04 174.12 40.64 171.97 41.2 169.48 43.27 168.37 45.59 168.88 50.08 170.8 52.26 171.53 72.41 177.51 81.73 180.58 95.9 184.96 
M 114.23 150.51 113.02 145.92 113.36 141.18 115.22 136.82 118.4 133.29 122.56 130.99 127.23 130.16 131.92 130.9 136.12 133.12 139.37 136.58 141.32 140.91 141.76 145.63 140.64 150.25 138.08 154.25 134.37 157.2 129.89 158.79 125.14 158.83 120.64 157.34 116.86 154.46 114.23 150.51 
M 114.05 150.11 113.47 148.41 113.1 146.67 112.96 144.88 113.03 143.1 113.32 141.34 113.83 139.62 114.55 137.99 115.47 136.45 116.57 135.04 117.83 133.78 119.24 132.68 120.78 131.76 122.41 131.05 124.12 130.54 125.89 130.24 127.67 130.17 129.45 130.31 131.2 130.68 132.89 131.26 
M 115.91 149.33 115.41 147.88 114.97 144.84 115.04 143.31 115.71 140.37 
M 118.95 135.5 120.38 134.34 121.7 133.56 124.58 132.5 126.1 132.25 129.16 132.31 132.12 133.12 
M 117.78 148.56 117.36 147.34 116.99 144.8 117.04 143.51 117.59 141.1 
M 120.46 136.83 122.62 135.35 125.03 134.46 126.3 134.25 128.87 134.31 131.35 134.99 
M 119.64 147.79 119.09 145.79 119 144.76 119.05 143.72 119.45 141.92 
M 122.06 138.14 123.54 137.14 124.49 136.72 126.51 136.26 128.58 136.3 130.58 136.85 
M 122.12 146.96 121.63 145.12 121.83 143.08 
M 123.98 139.96 125.45 139.15 127.32 138.82 129.19 139.11 130.87 140 132.17 141.38 132.95 143.11 133.13 145.01 132.68 146.85 131.66 148.45 130.17 149.63 128.38 150.27 126.48 150.29 124.68 149.69 123.17 148.54 122.12 146.96 
M 125.17 139.3 124.51 140.61 
M 123.02 143.61 121.85 145.94 
M 126.89 138.89 125.43 141.8 
M 124.34 143.99 122.54 147.59 
M 128.36 138.98 126.3 143.1 
M 125.88 143.93 123.47 148.76 
M 129.67 139.37 124.56 149.59 
M 130.87 140 125.83 150.07 
M 131.86 141.05 127.24 150.28 
M 132.66 142.47 128.84 150.1 
M 133.09 144.62 130.87 149.08 
M 76.39 160.96 80.38 164.96 
M 74.14 152.67 75.5 154.03 
M 74.15 140.58 77.36 143.79 
M 77.05 137.44 80.65 141.04 
M 80.3 134.64 85.66 139.99 
M 83.9 132.18 88.28 136.56 
M 87.9 130.14 92.68 134.91 
M 92.14 128.33 96.02 132.21 
M 96.39 126.53 100.06 130.2 
M 100.6 124.69 106.23 130.32 
M 104.9 122.94 108.93 126.97 
M 109.56 121.55 113.22 125.22 
M 114.61 120.55 120.15 126.09 
M 119.74 119.63 123.32 123.21 
M 124.7 118.54 128.32 122.16 
M 129.75 117.54 134.43 122.23 
M 134.88 116.63 138.86 120.61 
M 140.3 116 144.38 120.07 
M 145.69 115.34 149.4 119.05 
M 151.06 114.66 155.66 119.26 
M 156.4 113.96 159.78 117.33 
M 161.96 113.47 167.7 119.21 
M 167.64 113.09 172.29 117.75 
M 173.73 113.14 179.2 118.61 
M 146.74 185.57 144.48 182.13 142.19 177.41 142.08 176.63 142.37 176.03 
M 116.8 178.7 114.11 177.01 111.15 176.07 110.61 175.64 110.34 175.16 
M 117.62 120.46 117.43 120.08 
M 134.51 194.71 135.06 192.49 135.13 191.22 134.65 190.57 133.57 189.86 133.17 189.24 
M 105.28 134.03 105.66 135.14 106.98 136.76 108.27 137.36 110.76 138.12 112.83 139.37 
M 90.52 161.02 90.32 162.31 90.85 163.33 
M 82.97 149.33 81.87 149.17 81.11 148.8 79.6 147.43 77.85 145.44 76.78 143.25 76.43 141.97 76.01 139.01 76.08 138.4 
M 148.19 159.19 147.96 157.97 147.6 157.46 143.43 153.53 143.07 152.85 142.74 150.8 
M 165.86 122.57 163.2 123.17 161.22 123.94 160.07 124.06 157.92 124.95 
M 103.68 188.97 101.45 187.65 99.61 185.9 99.31 185.09 
M 157.75 178.79 156.64 178.61 154.42 178.59 152.7 178.28 151.86 177.84 151.1 177.07 
M 140.23 151.35 140.22 150.9 
M 103.86 143.15 106.41 142.73 107.73 142.16 109.29 141.21 110.02 140.97 110.37 141.1 
M 141.92 191.92 140.21 192.15 139.34 192.07 137.85 191.13 135.2 190.22 
M 139.26 177.39 137.46 177.05 136.57 177.24 136.14 177.54 
M 102.33 171.06 103.68 168.79 106.36 164.86 108.95 160.44 109.12 159.27 
M 146.93 184.36 145.03 181.5 144.67 180.52 144.2 178.11 144.32 177.32 144.68 176.65 146.08 175.19 
M 120.35 175.15 117.96 174.82 115.87 174 112.71 173.31 111.23 172.54 109.9 171.35 
M 166.66 153.87 167.64 153.44 169.63 153.68 170.78 153.24 171.67 153.13 
M 143.85 189.64 136.4 189.63 134.24 189.77 
M 124.37 196.6 124.34 195.74 124.77 192.39 125.34 191.33 126.44 189.89 127.04 189.56 
M 173.7 153.95 174.72 154.75 174.91 156.12 175.47 157.18 
M 163.9 165.33 161.13 163.31 159.21 161.38 156.69 160.77 152.99 159.26 
M 173.51 153.71 174.41 154.32 174.82 154.81 174.98 156.21 175.46 157.14 
M 112.9 148.97 111.88 150 111.2 150.98 110.41 151.53 109.19 151.58 108.77 151.33 108.53 150.91 
M 181.43 182.78 179.49 185.67 179.17 186.59 179.22 188.29 180.01 190.25 
M 133.09 166.14 132.84 168.92 132.31 170.73 131.63 172.04 131.64 172.67 
M 163.5 195.41 162.85 193.67 161.73 191.53 160.98 190.91 160.02 190.5 
M 148.12 120.82 148.98 118.03 149.27 114.89 
M 113.02 163.53 112.36 163.75 111.74 163.75 111.21 163.52 110.88 163.16 110.54 162.33 110.46 160.98 109.56 159.58 
M 113.07 184.91 112.32 184.77 109.17 183.07 108.19 182.48 107.21 181.59 105.51 179.37 105.13 178.53 105.06 177.81 105.2 177.29 
M 179.78 135.31 178.39 134.82 176.7 134.47 173.88 134.26 171.77 133.24 171.12 132.51 170.35 130.53 168.97 128.13 
M 114.29 178.32 113.18 177.91 112.12 177.85 110.3 176.92 109.66 176.24 108.71 174.39 
M 105.12 136.61 106.07 137.48 106.77 137.78 110.02 138.23 110.83 138.54 113.13 139.92 
M 180.17 145.91 179.24 146.75 178.23 146.93 
M 76.79 156.07 74.68 155.42 
M 164.08 205.59 161.25 202.62 158.72 201.01 158.03 199.82 157.86 198.6 158.24 197.22 158.64 196.65 159.24 196.34 159.91 196.3 
M 163.27 160.81 161.87 159.56 160.79 159.34 
M 123.29 205.62 123.16 205.7 
M 152.26 187.46 148.53 183.98 147.86 183.17 146.78 180.62 146.67 179.82 146.87 177.44 147.5 176.8 
M 173.08 206.05 172.64 207.68 172.35 208.13 171.7 208.32 169.93 207.2 167.39 206.13 163.92 203.51 
M 105.45 141.65 107.39 141.38 110.06 140.2 110.46 140.35 110.84 140.98 
M 91.39 140.67 90.6 138.65 90.74 138.04 91.75 135.85 
M 135.53 129.06 135.29 126.71 135.56 122 135.01 118.29 135.22 116.99 
M 109.59 164.58 109.86 160.88 109.22 158.68 108.88 158.13 
M 182.05 137.22 182.52 137.75 182.78 138.41 182.82 139.69 182.06 141.76 180.89 143.4 
M 79.92 167.52 81.86 168.04 
M 175.14 131.02 174.59 130.46 174.16 129.68 174.04 128.84 174.24 128.48 174.57 128.23 175.43 128.15 176.93 128.85 
M 96.03 185.32 96.6 186.3 
M 92.83 181.77 92.78 182.22 93.08 182.15 
M 90.13 177.57 89.76 178.04 89.47 179 90.06 178.56 90.73 178.47 
M 87.54 173.61 86.67 174.48 86.15 175.78 86.97 175 88.18 174.67 
M 85.24 169.46 83.58 170.91 82.84 172.57 83.88 171.44 85.99 170.72 
M 82.75 165.51 80.49 167.35 79.53 169.35 80.79 167.87 83.58 166.8 
M 80.21 161.62 77.4 163.79 76.21 166.14 77.7 164.31 81.06 162.91 
M 77.78 157.65 74.31 160.22 72.9 162.92 74.61 160.75 78.61 159 
M 75.29 153.72 71.21 156.66 69.59 159.71 71.52 157.18 76.16 155.07 
M 72.58 149.96 68.12 153.09 66.27 156.49 68.43 153.62 73.55 151.23 
M 70 146.11 65.03 149.53 62.96 153.28 65.34 150.05 70.64 147.52 
M 95.81 185.35 97.07 185.69 
M 91.42 183.57 92.12 183.29 92.28 183.81 
M 86.92 182.12 87.38 181.57 88.14 181.14 87.97 181.73 88.11 182.51 
M 82.46 180.8 83.18 179.68 84.16 179 83.76 179.84 83.82 181.21 
M 78.11 179.37 78.97 177.79 80.19 176.85 79.55 177.95 79.5 179.82 
M 73.77 177.95 74.76 175.9 76.21 174.71 75.34 176.06 75.17 178.4 
M 69.4 176.6 70.55 174.01 72.23 172.56 71.13 174.17 70.84 177.03 
M 65.04 175.24 66.34 172.12 68.25 170.42 66.92 172.28 66.49 175.69 
M 60.65 173.96 62.13 170.23 64.28 168.27 62.72 170.39 62.14 174.38 
M 56.23 172.76 57.92 168.34 60.3 166.13 58.51 168.5 57.77 173.21 
M 51.88 171.4 53.71 166.45 56.32 163.98 54.3 166.61 53.42 171.86 
M 47.62 169.76 49.5 164.56 52.35 161.84 50.09 164.72 49.09 170.38 
M 43.28 168.37 45.3 162.67 48.37 159.69 45.88 162.83 44.8 168.71 
M 53.01 176.94 58.29 179.84 65.89 183.58 73.59 187.04 81.52 190.22 98.27 195.73 114.95 200.79 
M 181.54 120.56 185.23 124.26 
M 180.65 111.6 188.43 119.39 
M 186.95 109.85 195.22 118.11 
M 193.42 108.25 201.99 116.82 
M 199.98 106.74 210.71 117.47 
M 206.6 105.29 212.77 111.46 
M 213.35 103.99 222.59 113.22 
M 220.19 102.75 229.88 112.45 
M 227.12 101.62 236.37 110.87 
M 234.33 100.76 241.64 108.08 
M 241.49 99.86 251.47 109.84 
M 248.58 98.89 257.8 108.1 
M 255.55 97.8 267.14 109.38 
M 262.79 96.96 274.12 108.29 
M 270.31 96.42 280.37 106.48 
M 278.14 96.19 286.44 104.48 
M 286.14 96.13 296.12 106.1 
M 294.21 96.12 305.27 107.19 
M 302.98 96.83 314.99 108.84 
M 312.38 98.16 320.58 106.37 
M 321.7 99.43 331.2 108.92 
M 330.68 100.34 339.66 109.32 
M 339.71 101.3 349.11 110.7 
M 349.06 102.59 357.14 110.66 
M 359.04 104.5 365.95 111.41 
M 370.02 107.42 381.33 118.72 
M 381.94 111.27 392.35 121.69 
M 394.8 116.06 405.49 126.76 
M 407.48 120.68 418.62 131.82 
M 420.09 125.23 429.78 134.92 
M 433.05 130.12 437.03 134.1 
M 227.33 291.39 225.44 297.7 
M 227.33 291.39 230.03 291.39 230.84 291.7 231.17 292.6 230.9 293.5 230.03 294.39 229.04 294.7 226.34 294.7 
M 236.3 293.5 235.04 297.7 
M 236.03 294.39 235.61 293.8 235.1 293.5 234.2 293.5 233.51 293.8 232.73 294.39 232.16 295.3 231.98 295.89 232.01 296.8 232.43 297.39 232.94 297.7 233.84 297.7 234.53 297.39 235.31 296.8 
M 238.7 293.5 237.44 297.7 
M 238.16 295.3 238.73 294.39 239.51 293.8 240.2 293.5 241.1 293.5 
M 242.93 291.39 243.14 291.7 243.53 291.39 243.32 291.1 242.93 291.39 
M 242.6 293.5 241.34 297.7 
M 245 293.5 243.74 297.7 
M 244.46 295.3 245.03 294.39 245.81 293.8 246.5 293.5 247.4 293.5 
M 252.2 293.5 250.94 297.7 
M 251.93 294.39 251.51 293.8 251 293.5 250.1 293.5 249.41 293.8 248.63 294.39 248.06 295.3 247.88 295.89 247.91 296.8 248.33 297.39 248.84 297.7 249.74 297.7 250.43 297.39 251.21 296.8 
M 255.53 291.39 254 296.5 254.03 297.39 254.54 297.7 255.14 297.7 
M 254 293.5 256.1 293.5 
M 258.2 293.5 257.3 296.5 257.33 297.39 257.84 297.7 258.74 297.7 259.43 297.39 260.6 296.5 
M 261.5 293.5 260.24 297.7 
M 266.63 294.39 266.51 293.8 265.7 293.5 264.8 293.5 263.81 293.8 263.33 294.39 263.45 295 263.96 295.3 265.37 295.6 265.88 295.89 265.9 296.8 265.43 297.39 264.44 297.7 263.53 297.7 262.73 297.39 262.61 296.8 
M 274.73 294.39 274.61 293.8 273.8 293.5 272.89 293.5 271.91 293.8 271.43 294.39 271.55 295 272.06 295.3 273.47 295.6 273.98 295.89 274.01 296.8 273.52 297.39 272.54 297.7 271.64 297.7 270.83 297.39 270.7 296.8 
M 276.26 295.3 279.86 295.3 280.04 294.7 279.92 294.1 279.2 293.5 278.3 293.5 277.61 293.8 276.83 294.39 276.26 295.3 276.08 295.89 276.11 296.8 276.52 297.39 277.04 297.7 277.94 297.7 278.63 297.39 279.41 296.8 
M 285.52 294.39 285.11 293.8 284.6 293.5 283.7 293.5 283.01 293.8 282.23 294.39 281.66 295.3 281.48 295.89 281.51 296.8 281.93 297.39 282.44 297.7 283.33 297.7 284.02 297.39 284.81 296.8 
M 291.2 293.5 289.94 297.7 
M 290.93 294.39 290.51 293.8 290 293.5 289.1 293.5 288.41 293.8 287.63 294.39 287.06 295.3 286.88 295.89 286.91 296.8 287.33 297.39 287.83 297.7 288.74 297.7 289.43 297.39 290.2 296.8 
M 292.82 297.1 292.43 297.39 292.64 297.7 293.02 297.39 292.82 297.1 
"/></svg>
