<svg xmlns="http://www.w3.org/2000/svg" width="520" height="320"><rect x="0" y="0" width="520" height="320" fill="floralwhite"/><rect x="10" y="10" width="500" height="300" stroke="black" stroke-width="1" fill="none"/><path stroke="black" stroke-width="1" fill="none" stroke-linecap="round" stroke-linejoin="round" d="
M 175.92 48.4 186.07 47.66 196.19 47.16 206.32 47.15 216.44 48.13 226.56 51.71 236.68 56.56 246.81 60 256.93 62.53 267.05 65.41 277.17 68.78 287.29 71.89 307.54 75.91 317.66 78.29 337.91 82.09 348.03 84.4 368.27 90.65 388.52 94.87 398.64 97.16 408.76 99.72 418.88 102.86 429.01 111.58 
M 429.01 148.32 418.88 166.23 408.76 173.65 398.64 179.24 388.52 183.83 368.27 191.85 358.15 196.42 348.03 201.51 327.78 212.29 317.66 216.84 307.54 219.71 297.42 221.5 277.17 224.04 246.81 227.21 236.68 228.75 216.44 232.65 206.32 233.79 196.19 234.28 186.07 233.81 175.95 231.97 165.83 227.72 
M 421.62 125.93 413.16 127.85 409.05 128.53 400.99 129.22 388.45 129.26 372.14 128.81 363.73 128.19 357.16 127.37 
M 352.76 126.65 346.19 125.63 337.72 124.75 329.49 125.11 325.41 125.57 317.39 126.84 313.46 127.26 309.53 127.59 305.58 127.56 297.58 126.63 278.99 123.64 
M 274.52 122.7 269.99 121.54 
M 261.04 119.03 246.92 114.84 243.1 113.93 233.17 112.27 
M 228.98 111.59 222.54 110.47 212.1 108.2 
M 204.19 106.74 202.23 106.4 192.4 105.86 
M 180.66 106.22 180.34 106.23 
M 169.51 214.96 169.57 215.02 
M 177.73 222.16 179.13 223.31 
M 170.1 210.82 171.62 212.24 
M 170.57 206.07 171 206.51 
M 178.84 208.7 181.71 211.47 
M 171.21 193.75 175.75 199.27 
M 178.43 202.28 181.2 205.23 
M 184.04 208.15 189.85 213.7 
M 195.67 218.62 198.51 220.82 
M 201.34 222.86 203.34 224.2 
M 175.78 191.95 180.97 198.41 
M 189.25 207.57 195.04 213.13 
M 173.14 180.38 181.08 190.98 
M 183.61 194.34 188.83 200.84 
M 194.45 206.96 197.32 209.82 
M 200.16 212.56 202.99 215.19 
M 174.71 174.26 175.87 175.71 
M 181.37 182.99 188.76 193.59 
M 191.31 196.95 194.02 200.18 
M 196.83 203.3 199.68 206.32 
M 208.23 214.85 211.21 217.5 
M 181.72 175.02 185.53 180.29 192.6 191.18 196.53 196.24 
M 188.55 176.18 195.24 186.91 199.1 192.15 
M 204.71 198.87 210.44 205.46 
M 213.37 208.7 216.4 211.87 
M 196.65 180.68 200.27 186.17 202.96 189.74 213.07 201.97 
M 219.06 208.83 222.2 212.14 
M 204 183.7 209.71 191.05 
M 212.67 194.72 215.64 198.39 
M 224.83 209.14 229.67 214.18 234.61 218.73 
M 204.73 177.37 209.04 183.26 
M 212.02 187.08 218.12 194.74 
M 178.52 136.43 179.78 137.75 
M 211.09 179 217.35 187.05 
M 223.62 194.93 229.92 202.59 
M 236.27 209.77 242.54 216.13 
M 178.67 130.8 182.97 135.48 187.48 139.87 
M 216.41 179.05 219.57 183.11 
M 222.77 187.18 225.97 191.22 
M 238.66 206.42 244.78 213.17 
M 178.71 124.6 179.6 125.81 
M 182.77 129.7 184.44 131.55 192.84 139.63 
M 221.81 179.08 225.03 183.23 
M 181.58 121.62 184.59 125.63 
M 191.34 132.76 194.92 136.16 
M 227.32 179.17 233.77 187.54 
M 180.92 112.87 185.24 119.33 189.75 125.16 
M 192.99 128.73 200.04 135.65 
M 231.82 177.87 232.86 179.26 
M 239.23 187.6 242.36 191.61 
M 253.93 207.14 256.69 210.91 
M 180.54 104.2 187.56 114.82 193.38 122.74 196.45 126.34 205.16 135.2 
M 238.36 179.29 247.51 191.73 
M 255.99 203.62 258.74 207.54 
M 261.5 211.35 264.29 214.94 
M 181.27 97.47 185.66 103.83 
M 188.53 108.17 192.79 114.52 195.66 118.41 198.55 122.1 203.28 127.52 
M 206.72 131.15 212.07 136.73 213.76 138.7 
M 240.07 174.23 243.69 179.43 
M 249.61 187.85 255.3 195.9 
M 181.42 89.49 195.21 110.28 198.02 114.22 206.75 125.26 213.64 132.76 217.06 136.69 218.43 138.5 
M 244.59 173.39 245.95 175.44 
M 248.86 179.77 251.76 183.97 
M 183.02 83.43 192.02 97.76 200.47 110.28 208.9 121.24 212 125.02 217.13 130.8 
M 253.98 180.13 259.7 188.21 
M 180.82 72.47 184.77 77.77 187.24 81.51 194.7 93.97 200.21 102.53 202.98 106.55 207.11 112.06 
M 209.91 115.61 219.32 126.86 
M 222.55 130.86 225.51 135.02 
M 253.75 172.5 256.3 176.31 
M 180.55 65.44 185.13 70.82 187.71 74.24 190.22 77.96 200.12 94.62 205.58 102.92 211.08 110.28 215.5 115.53 
M 218.65 119.16 221.91 122.94 
M 225.11 126.88 226.66 128.88 232.48 137.87 
M 261.6 176.44 264.51 180.36 
M 273.18 192.28 276.01 196.38 
M 180.15 59.3 183.04 61.99 188.09 67.64 190.62 70.98 194.4 76.61 
M 196.86 80.63 203.03 91.08 208.26 99.27 211.01 103.14 215.27 108.5 
M 218.25 111.96 226.29 121 229.45 124.88 232.28 128.93 237.75 137.64 
M 261.4 168.54 264.14 172.39 
M 267.05 176.34 272.9 184.22 
M 275.77 188.24 278.57 192.34 
M 284.06 200.71 289.68 208.79 
M 177.87 52.97 180.93 55.04 183.49 57.04 186.04 59.31 188.57 61.87 191.09 64.75 193.59 67.99 196.07 71.56 201.08 79.44 208.57 91.7 213.84 99.51 219.54 106.72 232.14 121.01 235.09 124.89 243.09 137.4 
M 266.73 168.24 269.66 172.27 
M 283.85 192.58 286.49 196.88 
M 176.03 48.39 181.28 51.14 183.9 52.82 186.49 54.72 189.05 56.89 191.61 59.33 194.14 62.09 197.85 66.94 
M 200.3 70.54 211.67 88.24 216.84 95.91 222.42 103.18 226.87 108.37 
M 229.97 111.87 236.13 119.15 
M 239 123.03 245.69 133.41 247.21 135.49 
M 271.79 167.44 275.23 172.24 
M 280.96 180.38 283.71 184.51 
M 294.14 202.1 296.82 206.41 
M 181.66 47.98 184.2 49.26 186.86 50.83 189.48 52.64 192.09 54.68 194.69 56.99 197.25 59.62 199.75 62.59 202.19 65.9 216.08 86.71 
M 218.65 90.47 222.65 96.01 228.18 103.11 237.04 113.65 239.96 117.38 242.74 121.3 246.78 127.5 
M 280.71 172.39 283.51 176.58 
M 288.84 185.08 296.52 198.76 
M 187.11 47.61 192.47 50.74 195.14 52.65 197.8 54.82 200.41 57.29 202.94 60.09 205.41 63.21 207.82 66.63 220.46 85.09 225.7 92.41 233.79 103.07 240.89 111.97 
M 243.68 115.77 251.95 128.06 
M 255.09 132.22 258.82 136.71 
M 278.95 162.06 285.99 172.82 
M 192.41 47.35 195.45 49.02 198.2 50.78 200.91 52.79 203.58 55.08 206.17 57.68 208.67 60.6 211.11 63.8 226.07 85.18 236.64 99.55 240.68 104.82 
M 243.46 108.43 247.53 114.16 251.48 120.34 
M 254.32 124.54 259.08 130.8 263.93 136.48 
M 282.98 160.44 285.74 164.67 
M 197.78 47.16 201.22 49.06 204.01 50.9 206.73 53 209.38 55.38 211.94 58.07 214.41 61.04 216.8 64.27 230.33 83.39 
M 232.94 86.98 248.98 108.59 
M 251.6 112.57 255.52 118.86 260.02 125.24 
M 263.33 129.41 269.13 136.25 
M 287.03 159.18 288.18 161 
M 203.53 47.16 207.05 49.13 209.84 51.03 212.54 53.19 215.15 55.63 217.63 58.39 220 61.42 233.26 79.82 
M 235.82 83.38 242.36 92.31 246.46 97.57 
M 251.98 104.87 254.65 108.84 
M 257.27 113.02 259.98 117.34 
M 262.92 121.66 267.72 128.01 272.79 134.12 
M 291.35 158.64 293.24 161.6 
M 295.88 165.8 298.53 170.1 
M 301.16 174.57 303.78 179.31 
M 306.37 184.31 311.52 194.29 
M 316.82 202.94 319.57 206.7 
M 210.04 47.51 212.86 49.18 215.62 51.11 218.24 53.35 220.72 55.91 225.41 61.76 236.21 76.33 
M 238.71 79.81 245.13 88.62 253.61 99.17 257.81 105 
M 263.25 113.52 267.54 120.13 272.25 126.52 
M 278.73 134.72 279.58 135.78 
M 303.56 170.72 306.2 175.37 
M 308.83 180.32 311.44 185.43 
M 319.48 199.53 322.27 203.48 
M 217.49 48.5 221.21 51.24 223.69 53.6 228.41 59.06 237.96 71.29 247.86 84.94 259.45 99.08 263.78 105.23 
M 266.6 109.59 269.42 114.05 
M 272.31 118.49 275.29 122.83 
M 303.22 162.9 305.92 167.13 
M 313.89 181.54 316.53 186.61 
M 227.04 51.94 231.34 56.52 238.54 65.06 243.32 71.24 250.59 81.27 253.27 84.66 262.3 95.17 265.4 99.11 268.43 103.36 272.8 110.08 
M 275.65 114.58 281.32 123.32 
M 284.18 127.55 289.49 135.34 
M 300.08 151.36 300.26 151.64 
M 308.24 163.83 312.34 170.49 313.65 172.91 
M 321.64 187.78 324.55 192.4 
M 330.55 200.68 332.28 202.96 
M 236.4 56.43 241.53 62.12 243.89 64.99 256.01 80.93 265.05 91.26 268.29 95.13 271.51 99.31 277.57 108.31 284.41 119.45 
M 289.69 128.01 294.29 135.13 
M 303.42 149.63 313.3 165.01 
M 315.98 169.57 318.56 174.37 
M 321.14 179.29 323.88 184.18 
M 244.33 59.16 249.1 64.79 258.9 77.19 271.09 91.15 274.42 95.25 277.67 99.62 282.18 106.48 
M 284.95 111.02 295.12 128.5 
M 297.73 132.73 299.09 134.92 
M 310.19 153.26 315.67 161.84 
M 251.48 61.17 264.65 76.65 273.88 87.2 280.55 95.46 283.73 99.95 286.69 104.56 293.08 115.79 
M 300.53 128.98 303.93 134.7 
M 311.33 147.39 315.45 154.11 
M 325.89 172.39 328.45 177.12 
M 258.84 63.07 267.8 72.94 275.15 81.48 
M 278.36 85.25 283.3 91.33 286.52 95.69 289.57 100.22 294.9 109.28 298.51 116.01 
M 303.41 125.02 305.88 129.36 
M 314.2 143.86 315.48 145.99 
M 318.18 150.42 323.74 159.56 
M 328.68 168.84 332.37 175.78 333.8 178.03 
M 339.92 186.78 343.06 190.99 
M 267.35 65.51 270.94 69.31 276.71 75.94 282.79 83.27 289.17 91.51 292.25 95.89 295.12 100.34 297.75 104.81 303.84 116.15 
M 306.3 120.77 311.15 129.56 
M 317.45 140.6 318.34 142.1 
M 321.02 146.54 323.86 151.14 
M 326.71 155.82 329.35 160.49 
M 331.77 165.14 334.12 169.71 
M 348.35 191.49 350.16 194.03 
M 276.67 68.61 282.78 75.83 291.78 87.43 297.74 95.95 301.69 102.52 
M 304.19 106.98 316.4 129.61 
M 318.77 133.79 318.92 134.04 
M 321.12 137.83 326.73 147.12 
M 329.63 151.85 334.96 161.26 
M 337.3 165.84 340.82 172.57 344.89 179.21 
M 350.74 187.81 353.19 191.35 
M 285.04 71.2 297.45 87.56 303.04 95.97 306.86 102.48 
M 309.38 106.98 316.89 120.93 
M 319.31 125.34 321.71 129.6 
M 326.77 138.31 332.43 147.71 
M 335.31 152.51 337.99 157.24 
M 292.14 72.87 300.2 83.67 305.7 91.87 313.36 104.87 327.1 129.64 
M 329.63 134.07 332.33 138.69 
M 335.16 143.48 340.72 153.1 
M 345.53 162.32 347.84 166.82 
M 352.98 175.75 355.75 180.15 
M 298.86 74.21 305.84 83.97 311.02 92.22 321.37 109.86 332.56 129.86 
M 335.14 134.45 340.64 144.07 
M 343.29 148.88 345.79 153.57 
M 305.37 75.48 311.35 84.47 326.91 110.35 330.72 116.97 
M 333.17 121.35 338.08 130.33 
M 343.39 139.9 345.98 144.7 
M 348.39 149.4 350.72 154.01 
M 363.54 176.61 368.77 184.63 
M 311.6 76.86 314.24 81.08 321.65 93.68 332.48 110.89 337.47 119.58 343.75 131.06 
M 346.39 135.87 351.28 145.37 
M 353.49 149.96 356.95 156.81 360.82 163.69 
M 317.3 78.21 324.31 90.41 331.26 100.86 
M 334.05 105.06 339.29 113.57 
M 341.8 117.94 352.17 136.8 
M 354.54 141.52 358.82 150.63 
M 363.76 159.77 369.16 168.75 
M 322.34 79.18 326.85 87.24 329.49 91.39 338.24 103.55 340.94 107.69 346.17 116.31 350.16 123.29 
M 352.86 128.12 356.84 135.41 363.35 149.16 365.67 153.67 372.41 165.02 
M 380.16 177.83 382.02 180.79 
M 327.1 80.09 329.33 84.09 331.9 88.2 334.75 92.19 340.84 100 343.76 103.99 347.87 110.28 
M 350.57 114.7 353.3 119.34 
M 358.79 129.08 362.7 136.35 367.02 145.5 370.52 152.26 
M 373.16 156.84 375.89 161.39 
M 331.94 80.98 334.35 84.94 337.13 88.88 346.44 100.36 349.39 104.37 352.19 108.55 357.75 117.63 364.64 129.94 
M 367.2 134.77 372.87 146.29 376.71 153.15 
M 379.44 157.76 382.08 162.29 
M 337.26 81.97 339.67 85.45 342.66 89.23 349.08 96.73 352.19 100.63 355.13 104.69 360.77 113.49 367.71 125.72 
M 370.3 130.64 375.1 140.13 
M 377.5 144.76 382.86 154.04 
M 385.57 158.68 388.05 163.22 
M 343.69 83.41 345.42 85.63 355.01 96.86 356.53 98.85 
M 359.51 102.92 363.8 109.36 369.39 118.9 381.89 143.11 390.16 157.26 393.67 164.21 
M 351.48 85.47 357.95 93.04 361.03 96.96 366.87 105.31 369.67 109.82 372.4 114.63 378.72 126.91 
M 386.23 141.38 393.17 153.41 394.4 155.8 
M 360.22 88.17 364.08 93.03 367.05 97.07 369.94 101.31 372.74 105.78 378.05 115.38 381.76 122.67 
M 384.17 127.44 386.63 132.24 
M 394.66 146.98 397.24 151.87 
M 399.64 156.73 402.99 163.97 406.1 169.81 
M 368.31 90.66 372.95 97.34 378.51 106.45 387.33 123.26 
M 389.79 127.99 392.32 132.83 
M 394.89 137.79 397.48 142.79 
M 400.02 147.77 404.77 157.64 
M 407.1 162.52 409.39 166.86 
M 374.99 92.11 378.66 97.81 384.21 107.17 391.81 121.44 397.88 133.43 
M 400.35 138.44 407.67 153.52 
M 381.15 93.4 387.14 103.01 392.52 112.52 397.43 121.89 403.28 134.01 
M 408.17 144.13 413.17 154.21 
M 387.18 94.61 392.84 103.44 395.61 108.14 399.34 115.23 
M 401.69 119.95 412.38 142.15 418.96 154.78 
M 393.51 96 398.46 103.72 401.11 108.44 409.34 125.13 
M 411.68 130.03 414.13 135.01 
M 400 97.5 403.9 103.97 407.67 111.12 
M 410.06 115.89 419.77 135.47 
M 422.4 140.64 425.12 145.81 
M 406.4 99.13 409.25 104.24 415.5 116.25 
M 417.95 121.06 420.41 125.92 
M 422.91 130.9 425.49 136.06 
M 412.7 100.95 423.61 121.39 
M 419.15 103.09 424.17 112.13 
M 180.19 48.09 176.66 50.14 
M 185.91 47.67 182.83 49.34 177.7 52.57 
M 191.82 47.38 185.21 50.9 178.81 55.17 
M 197.94 47.16 194.05 49.02 187.55 52.67 184.28 54.81 180.03 58.02 
M 203.76 47.16 196.49 50.76 189.86 54.67 186.57 56.92 183.29 59.42 180.32 61.96 
M 209.03 47.41 198.91 52.73 192.16 56.92 188.83 59.28 185.53 61.9 180.61 66.44 
M 213.86 47.88 204.72 52.93 197.85 57.14 191.09 61.93 186.15 66.15 
M 182.92 69.3 180.8 71.56 
M 218.04 48.69 207.08 55.27 200.11 59.84 196.68 62.29 193.32 64.9 190.03 67.72 186.8 70.82 180.96 77.31 
M 221.59 49.95 209.36 57.9 198.86 65.47 195.52 68.2 192.27 71.11 189.09 74.3 184.24 79.64 
M 225.22 51.24 218.55 55.79 207.98 63.49 201.02 68.95 197.71 71.8 194.52 74.82 188.06 81.55 184.78 85.31 181.42 89.55 
M 228.67 52.72 220.68 58.58 206.59 69.77 199.95 75.64 191.85 83.79 
M 188.6 87.43 185.44 91.33 
M 232.02 54.33 226.05 58.92 215.81 67.42 208.79 73.5 200.55 81.21 
M 197.27 84.48 192.41 89.71 189.3 93.48 186.39 97.47 183.68 101.68 180.24 107.58 
M 235.42 55.95 228.1 61.89 221.38 67.79 207.75 80.46 201.09 86.96 197.83 90.38 194.7 93.97 191.76 97.74 189.01 101.72 184.97 108.27 
M 239.1 57.38 233.44 62.08 226.85 67.99 206.62 87.72 200.13 94.62 195.74 100.15 
M 192.97 104.05 188.9 110.37 186.25 114.89 181.26 123.77 178.68 128.93 
M 242.86 58.66 235.56 65.05 228.97 71.28 208.85 91.73 202.54 98.82 196.89 106.27 194.16 110.29 188.88 119.06 184.09 127.7 182.18 131.71 178.63 140.26 
M 246.52 59.9 237.72 68.11 231.15 74.62 221.32 85.12 211.15 95.66 207.99 99.25 202.19 106.52 199.41 110.27 196.71 114.29 191.56 122.95 188.24 129.27 
M 186.36 133.28 183.41 140.05 
M 250.35 60.88 236.62 74.6 223.62 88.77 216.85 95.91 210.46 103.12 204.68 110.28 201.94 114.03 199.29 118.06 196.74 122.32 193.38 128.68 
M 191.47 132.74 188.28 139.83 
M 254.19 61.84 238.82 78.04 225.99 92.41 219.31 99.6 211.48 108.52 
M 203.2 119.69 199.54 125.96 198.52 128.04 
M 196.59 132.14 193.21 139.62 
M 174.48 174.17 173.2 176.21 
M 258.08 62.86 247.29 74.46 239.49 83.36 
M 236.37 86.98 231.65 92.41 218.67 106.73 212.56 113.77 209.71 117.43 207.08 121.32 204.68 125.41 203.66 127.47 
M 201.72 131.58 198.18 139.39 
M 178.82 175.19 175.76 179.88 
M 261.99 63.97 252.58 74.22 234.03 96.01 219.85 111.94 
M 213.84 119.22 212.4 121.13 209.85 125.1 208.81 127.1 
M 183.88 175.1 181.34 178.91 
M 178.22 183.55 175.16 188.16 
M 172.25 192.62 171.19 194.25 
M 266.04 65.12 261.3 70.18 254.78 77.52 242.64 92.3 231.73 104.83 
M 228.73 108.35 222.72 115.47 
M 219.69 119.15 216.76 122.98 
M 214.16 126.91 212.98 128.88 208.26 138.95 
M 270.1 66.42 263.69 73.29 257.13 80.84 245.08 95.81 235.75 106.57 224.18 121 221.17 124.88 218.46 128.81 216.22 132.74 213.36 138.72 
M 191.61 177.63 188.89 181.81 
M 182.79 190.69 174.15 202.88 
M 274.3 67.82 266.13 76.52 262.81 80.34 250.73 95.59 238.38 110.1 231.55 119.14 
M 228.61 122.94 224.1 128.85 221.45 132.83 218.4 138.5 
M 194.76 179.62 193.82 181.1 
M 190.93 185.54 185.01 194.12 
M 278.71 69.25 268.73 79.9 265.51 83.74 253.32 99.18 243.77 110.23 241.01 113.76 226.76 132.98 223.47 138.27 
M 198.6 180.38 195.88 184.82 
M 283.26 70.65 274.81 79.61 271.54 83.44 259.16 99.08 246.22 114.06 232.14 133.1 228.71 138.04 
M 200.81 184.1 198.09 188.44 
M 195.26 192.69 192.44 196.79 
M 287.92 72.02 280.91 79.48 277.65 83.29 265.1 99.11 261.76 103.07 251.52 114.5 248.58 118.07 234.2 137.8 
M 208.86 178.2 208.24 179.28 
M 189.6 207.52 187.01 210.97 
M 292.88 73.01 286.87 79.5 283.7 83.28 274.43 95.25 267.82 103.32 253.85 118.67 250.99 122.2 239.89 137.54 
M 212.93 179.77 208.42 187.25 
M 203.03 195.39 200.22 199.36 
M 297.9 74.02 292.68 79.62 289.57 83.38 280.55 95.46 273.99 103.71 270.44 107.74 256.39 122.89 253.61 126.37 245.74 137.29 
M 219.84 177.13 218.66 179.04 
M 200.06 206.27 197.43 209.8 
M 194.88 213.15 192.36 216.28 
M 303 75.02 298.49 79.79 295.34 83.52 292.36 87.44 283.44 99.93 280.14 104.14 272.99 112.24 262.3 123.58 257.87 128.79 
M 255.2 132.26 252.59 135.85 
M 225.68 176.65 219.06 187.06 
M 216.5 190.91 213.85 194.7 
M 308.11 76.04 304.26 80.06 301.06 83.71 298.02 87.57 289.28 100.21 286.11 104.52 282.73 108.71 279.17 112.75 266.86 125.99 
M 263.79 129.46 257.97 136.74 
M 227.07 183.28 224.52 187.23 
M 219.3 194.76 213.71 201.96 
M 207.95 208.83 205.2 212.1 
M 200.06 218.16 197.59 220.91 
M 313.09 77.22 306.69 84.03 303.58 87.75 300.61 91.73 291.8 104.78 288.55 109.07 285.13 113.2 279.84 119.11 
M 276.36 122.91 268.35 131.83 264.46 136.45 
M 237.85 175.03 230.02 187.43 
M 227.45 191.28 224.82 194.98 
M 222.11 198.57 219.29 202.05 
M 205.16 217.74 202.63 220.44 
M 318.08 78.37 312.17 84.57 309.03 88.09 305.98 91.88 303.04 95.97 297.22 104.82 294.09 109.27 290.77 113.53 272.95 134.13 
M 244.38 173.4 243.19 175.25 
M 240.62 179.33 238.08 183.48 
M 235.52 187.57 232.96 191.49 
M 222.07 205.64 216.2 211.86 
M 323.14 79.33 314.39 88.69 311.29 92.25 308.27 96.1 299.42 109.29 294.57 115.83 
M 291.26 119.91 277.91 135.86 
M 249.79 173.59 247.12 177.6 238.45 191.59 
M 224.92 209.14 222 212.12 
M 328.11 80.28 316.6 92.89 313.53 96.49 310.54 100.41 301.57 113.82 298.36 118.21 284.32 135.57 
M 257.7 170.16 251.02 179.96 
M 248.58 183.82 246.18 187.74 
M 243.78 191.64 240.08 197.35 236.16 202.82 
M 333.04 81.19 318.89 97.14 315.83 100.82 312.83 104.84 308.34 111.56 
M 305.28 116.15 300.54 122.71 295.81 128.55 
M 292.8 132.24 290.34 135.31 
M 264.75 167.75 261.53 172.43 
M 256.16 180.27 244.11 199.26 
M 337.97 82.1 330.02 91.48 321.27 101.44 318.19 105.25 315.14 109.44 305.93 123.01 298.15 132.76 
M 269.91 168.18 260.06 182.34 256.25 188.11 
M 253.84 191.94 251.49 195.73 
M 244.37 206.51 241.86 209.85 
M 342.82 83.21 331.24 97.13 
M 328.33 100.48 323.69 105.82 320.55 109.8 311.24 123.17 308.12 127.41 302.15 134.78 
M 280.51 161.25 272.57 172.24 
M 266.81 180.32 264.04 184.3 
M 261.38 188.23 258.83 192.11 
M 249.41 206.76 247.05 210.05 
M 347.8 84.35 343.54 89.25 335.35 99.49 326.07 110.27 322.86 114.37 313.38 127.52 307.87 134.53 
M 286.5 160.8 270.87 182.24 266.66 188.26 
M 256.57 203.64 254.27 207.15 
M 352.6 85.82 346.45 92.97 337.97 103.52 328.37 114.71 313.41 134.28 
M 298.83 152.17 296.8 154.67 
M 291.58 161.42 283.5 172.58 
M 269.27 192.27 266.55 196.29 
M 357.44 87.32 352.45 93.04 343.49 103.97 330.58 119.08 318.94 134.04 
M 307.52 148.24 306.98 148.92 
M 304.29 152.27 299.16 158.64 
M 296.59 162.01 288.66 173.13 
M 285.96 176.82 283.2 180.52 
M 280.37 184.33 274.65 192.28 
M 271.84 196.34 269.12 200.34 
M 266.49 204.22 261.6 211.35 
M 362.27 88.8 350.65 102.49 
M 347.53 106.22 332.73 123.43 324.59 133.79 
M 321.89 137.33 309.29 153.08 
M 306.66 156.3 304.11 159.43 
M 301.57 162.66 298.99 166.15 
M 291.05 177.43 285.63 184.69 
M 271.72 204.33 269.09 208.1 
M 367.07 90.28 348.36 112.36 338.24 123.87 334.87 127.84 330.42 133.53 
M 330.14 133.9 322.15 144.49 317.46 150.29 
M 314.5 153.91 309.13 160.37 
M 306.58 163.49 302.72 168.55 298.75 174.25 
M 296.09 178.07 288 188.95 
M 285.25 192.7 277.04 204.39 
M 271.77 211.77 269.21 215.14 
M 372.06 91.48 350.77 116.83 338.77 130.41 
M 335.54 134.48 324.7 149.07 317.04 158.26 
M 314.27 161.47 310.36 166.12 306.44 171.2 
M 303.78 174.93 298.43 182.63 
M 295.74 186.28 293.04 189.8 
M 290.32 193.34 287.6 197.02 
M 284.93 200.78 282.32 204.54 
M 377.1 92.57 353.2 121.51 342.75 133.1 338.01 139.24 
M 335 143.45 330.46 149.73 327.33 153.75 318.06 164.29 311.5 172.33 
M 303.45 183.64 298.04 191 
M 295.33 194.42 291.28 199.58 287.45 204.89 
M 382.17 93.61 375.76 101.79 369.09 109.76 359.08 122.32 355.65 126.34 346.85 135.96 
M 340.52 144.07 336.12 150.37 331.43 156.44 
M 328.11 160.26 324.85 163.85 
M 321.82 167.21 316.47 173.73 
M 311.21 180.88 303.04 192.33 
M 387.27 94.63 381.48 102.41 371.54 114.53 361.55 127.23 358.08 131.21 350.83 138.78 347.44 142.68 344.36 146.76 338.62 155.12 337.02 157.13 
M 330.27 164.88 326.99 168.46 
M 321.33 175.22 318.79 178.62 
M 313.56 185.96 310.82 189.81 
M 305.32 197.12 299.95 203.52 
M 392.35 95.74 387.15 103.01 378.89 113.23 
M 375.56 117.35 367.34 128 363.95 132.11 360.36 135.99 352.89 143.45 349.54 147.35 342.31 157.68 
M 332.33 169.46 329.12 173.1 
M 326.27 176.61 323.69 180.05 
M 321.19 183.54 318.63 187.16 
M 310.36 198.23 307.61 201.59 
M 397.39 96.87 392.84 103.44 389.63 107.74 379.45 120.13 369.63 132.85 366.15 136.85 356.6 146.12 
M 353.15 149.95 351.53 151.92 347.29 158.11 
M 341.16 166.23 332.89 175.86 330.03 179.52 326.24 184.78 
M 309.96 205.64 307.34 208.64 
M 402.25 98.07 395.33 108.12 391.95 112.48 381.6 124.93 371.74 137.56 368.07 141.42 362.16 146.9 
M 358.43 150.59 356.66 152.48 353.61 156.47 347.9 164.68 343.23 170.68 
M 334.12 182.15 331.51 185.77 
M 326.5 192.76 323.8 196.26 
M 407.02 99.28 400.84 108.43 397.59 112.84 394.19 117.15 383.72 129.66 377.19 138.16 373.72 142.14 362.15 153.19 358.8 157.02 348.55 171.15 
M 334.48 190.04 331.95 193.52 
M 323.49 203.6 320.5 206.79 
M 411.69 100.63 406.19 108.72 399.72 117.53 389.31 130.2 379.34 142.81 375.8 146.68 368.06 154.01 364.42 157.74 359.6 163.57 
M 353.81 171.59 350.93 175.57 
M 348.03 179.49 345.2 183.32 
M 339.97 190.66 337.47 194.16 
M 416.4 102.09 408.35 113.47 403.43 120.06 
M 400.08 124.37 393.3 132.92 
M 389.93 137.2 385.01 143.48 381.69 147.45 378.1 151.24 370.46 158.56 365.18 164.2 
M 362.01 168.1 356.27 176.03 
M 353.45 179.95 350.65 183.8 
M 420.64 104.38 410.44 118.23 392.36 142.11 
M 389.15 146.21 385.86 150.16 
M 382.37 153.96 374.81 161.25 
M 371.08 164.89 367.61 168.64 
M 358.76 180.41 356 184.26 
M 424.26 107.49 405.82 131.88 397.89 142.82 
M 394.8 146.98 390.07 152.94 386.65 156.73 381.01 162.14 
M 364.03 180.8 361.26 184.7 
M 427.8 110.55 411.22 132.36 403.24 143.52 
M 400.16 147.76 395.59 153.81 392.39 157.62 388.9 161.3 387.02 163.05 
M 383.18 166.48 377.44 171.59 375.7 173.41 
M 369.39 181.07 366.56 185.02 
M 429.01 116.7 416.77 132.78 405.41 148.51 
M 402.32 152.67 397.7 158.57 394.44 162.27 390.91 165.76 385.21 170.71 
M 378.01 177.61 374.88 181.39 
M 429.01 124.6 407.54 153.48 
M 404.38 157.55 401.23 161.42 
M 398 165.05 394.59 168.46 
M 429.01 132.73 414.69 152.01 406.41 162.39 
M 403.22 166.11 400 169.57 
M 429.01 141.15 425.53 145.87 
M 418.78 154.77 415.34 159.11 
M 419.88 161.43 418.82 162.72 
M 194.42 46.75 196.2 47.16 
M 209.68 47.02 216.72 31.4 217.67 31.75 213.24 47.82 
M 224.54 50.61 238.52 29.99 239.38 30.52 227.77 52.29 
M 238.47 56.72 256.2 30.92 257.06 31.46 241.78 58.29 
M 253.02 61.08 270.19 32.13 271.08 32.61 256.43 62.41 
M 267.66 65.24 285.92 35.62 286.81 36.11 271 66.72 
M 282.12 69.93 300.28 38.77 301.18 39.25 285.49 71.34 
M 296.92 73.36 312 44.8 312.91 45.24 300.39 74.51 
M 311.79 76.52 326 49.33 326.92 49.76 315.25 77.72 
M 326.7 79.55 339.68 54.96 340.59 55.39 330.19 80.66 
M 341.65 82.47 353.53 62.55 354.43 63.02 345.08 83.73 
M 356.32 86.56 367.09 70.23 367.97 70.73 359.67 88 
M 376.8 91.96 378.4 92.86 
M 197.17 47.16 201.86 45.16 204.27 43.93 206.54 42.53 208.68 40.94 210.67 39.15 212.53 37.2 216.01 32.97 
M 217.22 33.4 221.73 34.4 223.97 34.7 226.2 34.8 228.41 34.65 230.6 34.26 232.78 33.66 237.12 32.06 
M 238.21 32.72 241.75 34.19 243.53 34.73 245.32 35.06 247.12 35.15 248.94 34.99 250.76 34.63 254.43 33.5 
M 255.51 34.18 258.3 35.67 259.72 36.21 261.14 36.55 262.58 36.64 264.04 36.49 265.51 36.14 268.48 35.02 
M 269.6 35.63 272.56 37.56 274.08 38.34 275.65 38.9 277.26 39.23 278.92 39.32 280.62 39.2 284.1 38.58 
M 285.21 39.21 287.9 41.08 289.28 41.82 290.71 42.36 292.18 42.65 293.7 42.72 295.26 42.57 298.47 41.89 
M 299.59 42.49 301.46 44.82 302.47 45.8 303.58 46.59 304.79 47.17 306.1 47.52 307.51 47.69 310.49 47.66 
M 311.64 48.21 314.15 50.31 315.45 51.17 316.82 51.83 318.26 52.26 319.77 52.45 321.34 52.45 324.58 52.05 
M 325.74 52.59 328.08 54.88 329.33 55.84 330.65 56.6 332.05 57.14 333.54 57.45 335.11 57.56 338.38 57.41 
M 339.54 57.96 341.79 60.58 343 61.71 344.32 62.66 345.74 63.39 347.27 63.91 348.9 64.24 352.35 64.54 
M 353.48 65.13 355.65 67.77 356.82 68.92 358.1 69.88 359.49 70.63 361 71.17 362.61 71.52 366.01 71.86 
M 367.12 72.49 368.35 77.56 369.14 80 370.12 82.35 371.31 84.57 372.72 86.69 374.31 88.7 377.84 92.54 
M 219.47 33.94 223.97 34.7 226.2 34.8 228.41 34.65 230.6 34.26 234.95 32.9 
M 239.98 33.5 243.53 34.73 245.32 35.06 247.12 35.15 248.94 34.99 252.59 34.1 
M 237.56 40.89 239.87 41.69 241.03 41.91 243.38 41.86 245.75 41.29 
M 256.9 34.96 259.72 36.21 261.14 36.55 262.58 36.64 264.04 36.49 266.99 35.62 
M 254.67 40.76 256.82 41.72 257.92 41.98 260.14 41.94 262.4 41.27 
M 252.43 46.56 254.69 47.41 256.24 47.38 257.81 46.92 
M 271.07 36.64 274.08 38.34 275.65 38.9 277.26 39.23 278.92 39.32 282.35 38.93 
M 268.94 43.03 271.25 44.33 273.68 45.02 274.95 45.09 277.58 44.79 
M 266.81 49.43 268.41 50.33 270.11 50.81 272.82 50.65 
M 286.55 40.18 289.28 41.82 290.71 42.36 292.18 42.65 293.7 42.72 296.86 42.27 
M 284.2 46.78 286.3 48.04 287.39 48.45 289.68 48.73 292.1 48.38 
M 281.85 53.38 284.07 54.54 285.67 54.73 287.35 54.5 
M 300.51 43.69 302.47 45.8 303.58 46.59 304.79 47.17 306.1 47.52 308.98 47.71 
M 298.32 50.41 299.83 52.02 300.68 52.63 302.61 53.34 304.82 53.49 
M 296.14 57.12 297.19 58.25 298.42 58.98 300.66 59.27 
M 312.88 49.3 315.45 51.17 316.82 51.83 318.26 52.26 319.77 52.45 322.95 52.29 
M 311.28 55.46 313.25 56.9 314.3 57.4 316.56 57.88 318.99 57.76 
M 309.67 61.63 311.78 62.98 313.35 63.31 315.04 63.22 
M 326.9 53.78 329.33 55.84 330.65 56.6 332.05 57.14 333.54 57.45 336.73 57.53 
M 324.8 62.54 326.38 63.88 327.23 64.37 329.12 64.93 331.19 64.98 
M 340.64 59.31 343 61.71 344.32 62.66 345.74 63.39 347.27 63.91 350.61 64.42 
M 338.95 67.18 340.49 68.75 341.34 69.36 343.26 70.18 345.43 70.51 
M 354.54 66.49 356.82 68.92 358.1 69.88 359.49 70.63 361 71.17 364.29 71.73 
M 178.41 138.47 349.34 131.47 349.39 132.48 178.24 142.01 
M 178.19 143.06 328.23 146.24 328.21 147.25 177.61 146.57 
M 177.44 147.57 306.55 158.39 306.48 159.4 176.85 151.05 
M 176.69 151.99 284.56 167.9 284.42 168.9 176.08 155.44 
M 175.92 156.31 262.49 174.77 262.3 175.77 175.31 159.74 
M 175.16 160.54 240.59 179.02 240.33 180.01 174.49 163.95 
M 174.34 164.66 219.08 180.69 218.76 181.65 173.63 168.04 
M 173.49 168.69 198.2 179.81 197.83 180.76 172.86 172.03 
M 172.84 172.24 178.19 175.79 177.76 176.71 172.53 175.12 
M 331.45 133.48 326.5 135.15 324.13 136.15 321.89 137.33 319.77 138.71 317.78 140.29 315.91 142.05 312.39 145.9 
M 312.37 147.18 307.45 148.26 305.08 148.97 302.8 149.88 300.64 150.99 298.58 152.33 296.63 153.85 292.9 157.24 
M 292.8 158.52 287.95 159.01 285.6 159.44 283.32 160.08 281.14 160.93 279.04 162.01 277.01 163.29 273.11 166.21 
M 272.94 167.48 268.23 167.4 265.92 167.56 263.67 167.92 261.49 168.51 259.36 169.33 257.3 170.36 253.26 172.81 
M 253.01 174.06 248.49 173.43 246.26 173.32 244.07 173.41 241.9 173.74 239.78 174.31 237.68 175.09 233.56 177.04 
M 233.23 178.28 228.96 177.12 226.83 176.74 224.71 176.58 222.6 176.65 220.49 176.97 218.39 177.49 214.21 178.94 
M 213.81 180.16 209.84 178.5 207.84 177.88 205.82 177.46 203.78 177.28 201.71 177.35 199.63 177.62 195.44 178.57 
M 194.96 179.75 191.39 177.5 189.55 176.56 187.67 175.83 185.72 175.34 183.71 175.08 181.65 175.02 177.43 175.29 
M 328.95 134.28 324.13 136.15 321.89 137.33 319.77 138.71 317.78 140.29 314.13 143.94 
M 301.11 135.75 297.13 137.29 295.28 138.26 291.89 140.71 288.88 143.72 
M 273.26 137.22 270.13 138.44 267.3 140.1 266.01 141.13 263.63 143.5 
M 245.42 138.69 243.13 139.58 241.06 140.79 238.38 143.28 
M 309.89 147.68 305.08 148.97 302.8 149.88 300.64 150.99 298.58 152.33 294.74 155.51 
M 285.38 147.51 281.41 148.58 279.53 149.33 276.05 151.35 272.88 153.97 
M 260.88 147.35 257.74 148.19 256.27 148.78 253.52 150.37 251.03 152.44 
M 236.37 147.18 233 148.23 231 149.39 229.17 150.9 
M 290.36 158.72 285.6 159.44 283.32 160.08 281.14 160.93 279.04 162.01 275.05 164.71 
M 262.24 156.87 258.59 157.43 256.85 157.91 253.56 159.39 250.5 161.46 
M 234.12 155.02 231.58 155.41 230.37 155.74 228.08 156.78 225.95 158.22 
M 270.57 167.4 265.92 167.56 263.67 167.92 261.49 168.51 259.36 169.33 255.27 171.54 
M 235.32 163.01 232.3 163.11 230.83 163.34 228.03 164.26 225.37 165.7 
M 250.75 173.7 246.26 173.32 244.07 173.41 241.9 173.74 239.78 174.31 235.62 176.02 
M 222.43 168.52 219.52 168.27 218.09 168.33 215.3 168.92 212.6 170.03 
M 231.1 177.66 226.83 176.74 224.71 176.58 222.6 176.65 220.49 176.97 216.3 178.18 
M 237.72 227.24 247.8 235.82 247.22 236.66 235.64 230.25 
M 223.01 230.35 272.8 279.26 272.11 280 220.5 233 
M 207.76 232.67 214.8 243.87 214 244.49 204.88 234.91 
M 246.06 236.01 249.76 245.18 251.79 249.67 254 254.05 256.41 258.31 259.04 262.45 261.85 266.49 267.82 274.37 
M 266.95 275.3 255.89 266.95 250.25 262.95 244.5 259.13 238.63 255.51 232.63 252.1 226.52 248.87 214.1 242.75 
M 247.88 240.62 251.79 249.67 254 254.05 256.41 258.31 259.04 262.45 264.8 270.45 
M 261.44 271.09 250.25 262.95 244.5 259.13 238.63 255.51 232.63 252.1 220.33 245.77 
M 379.66 186.55 382.52 191.11 381.82 191.85 377.13 189.19 
M 365.54 192.27 374.98 202.49 374.3 203.24 363.1 195 
M 351.75 198.79 364.12 210.42 363.48 211.21 349.46 201.64 
M 338.25 205.84 351.48 217.78 350.85 218.58 336.02 208.73 
M 324.79 212.82 335.69 224.29 335.01 225.04 322.36 215.54 
M 310.63 218.07 318.04 229.05 317.26 229.7 307.82 220.4 
M 288.79 221.73 290.7 226.77 289.87 227.35 285.8 223.82 
M 381.35 191.58 378.67 193 377.5 193.83 376.49 194.79 375.68 195.88 375.06 197.13 374.61 198.49 374.04 201.47 
M 373.18 202.42 370.17 202.85 368.78 203.24 367.5 203.8 366.35 204.56 365.34 205.52 364.45 206.65 362.88 209.26 
M 362.08 210.26 358.82 210.51 357.28 210.81 355.84 211.3 354.52 212.01 353.3 212.92 352.19 214.03 350.15 216.58 
M 349.37 217.59 345.63 217.61 343.83 217.8 342.1 218.19 340.46 218.81 338.9 219.65 337.42 220.69 334.6 223.14 
M 333.75 224.09 329.8 223.68 327.87 223.67 325.98 223.86 324.16 224.29 322.38 224.96 320.66 225.83 317.3 227.95 
M 316.32 228.77 310.71 226.91 307.88 226.19 305.04 225.67 302.17 225.39 299.28 225.35 296.37 225.52 290.51 226.26 
M 371.66 202.6 368.78 203.24 367.5 203.8 366.35 204.56 365.34 205.52 363.64 207.92 
M 360.43 210.35 357.28 210.81 355.84 211.3 354.52 212.01 353.3 212.92 351.15 215.27 
M 347.48 217.56 343.83 217.8 342.1 218.19 340.46 218.81 338.9 219.65 336 221.87 
M 331.76 223.85 327.87 223.67 325.98 223.86 324.16 224.29 322.38 224.96 318.97 226.85 
M 429.01 111.58 432.24 110.27 434.58 107.69 436.35 104.91 438.2 102.38 445.2 96.01 447.13 94.47 450.36 93.1 453.46 92.23 459.54 88.6 462.01 87.4 463.97 85.89 466.93 85.18 470.57 84.57 473.29 82.96 476.12 83.12 479.49 83.62 482.67 82.56 484.75 81.18 486.16 88.03 486.25 90.67 486.23 93.21 484.68 98.74 484.81 102.74 483.71 105.8 482.84 109.07 481.07 111.45 479.62 114.05 478.49 117.02 475.12 117.95 472.02 119.15 470.68 122.11 469 124.72 466.4 126.38 464.08 128.32 462.11 130.39 459.23 131.33 455.89 131.81 454.04 134.17 455.19 137.1 459.17 140.23 465.24 146.05 469.59 149.08 472.56 151.36 480.69 159.95 482.45 162.21 484.69 167.43 485.49 169.72 486.83 172.57 488.96 176.23 489.58 178.37 488.62 181.44 487.22 182.95 484.05 187.39 480.96 186.94 479.1 187.18 476.03 186.16 471.75 184.09 468.35 182.86 465.84 182.23 462.92 180.02 459.24 179.55 456.09 177.76 453.98 176.14 452.09 175.69 451.14 173.36 449.55 170.94 446.87 167.91 443.23 165.47 437.94 161.16 434.48 155.42 432.25 152.16 429.01 148.32 
M 435.02 110.26 436.93 108.07 442.01 103.74 444.72 102.01 446.49 100.11 449.29 98.61 456.15 96.88 459.24 95.08 462.45 92.87 464.85 92.69 468.13 90.76 471.14 90.79 475.9 90.5 
M 435.62 113.3 438.28 111.08 440.09 109.25 442.7 108.08 450.8 103.62 454.6 102.77 458.03 101.46 461.02 99.89 463.78 98.85 465.98 98.15 467.28 97.96 470.49 96.7 473.87 96.68 477.69 97.05 481.91 96.17 485.68 95.11 
M 435.86 116.02 441.94 112 444.38 110.97 446.57 110.82 449.51 110.01 452.55 108.78 456.38 108.05 459.8 106.67 462.68 106 465.67 105.01 468.36 104.65 470.24 104.97 472.38 104.59 
M 429.01 120.46 432.54 119.73 435.82 117.97 440.01 116.56 443.08 114.91 445.99 114.13 448.77 114.12 450.41 114.64 453.88 114.01 
M 440.43 119.27 443.85 118.08 449.46 117.84 452.84 118.36 455.09 118.23 458.72 118.68 463.3 118.67 466.91 118.31 471.09 116.57 
M 429.01 124.89 433.22 125.26 436.89 124.45 441.23 123.86 444.9 122.71 448.02 122.15 450.51 122.77 
M 437.55 128.08 442.03 128.57 445.83 128.28 452.12 126.53 455.37 126.28 
M 434.36 130.59 438.21 131.61 442.44 133.31 
M 442.06 136.97 445.37 137.74 450.57 137.17 
M 429.01 133.76 433.64 136.61 437.42 138.16 440.14 139.08 443.34 139.72 447.35 141.99 451.4 141.11 458.71 141.82 
M 436.69 140.65 443.25 142.82 450.12 145.92 452.67 147.5 456.34 146.2 458.86 145.54 461.57 146.33 
M 429.01 138.2 432.64 141.52 439.39 145.27 442.46 146.61 445.86 147.73 449.39 149.5 451.55 151.54 454.96 152.06 458.08 152.15 462.23 151.1 465.91 151.28 
M 435.79 145.66 441.8 149.95 451.01 154.97 454.6 156.21 459.06 156.8 461.87 156.89 465.22 157.41 469.26 157.48 
M 438.36 150.58 444.42 155.09 447.25 157.38 453.54 160.57 457.44 161.04 459.23 161.68 461.11 161.48 464.89 162.55 
M 432.33 148.21 435.31 150.82 440.08 156 442.97 158.31 446.5 160.38 449.1 162.16 451.83 164.42 454.79 165.24 456.39 165.89 459.75 166.22 463.03 167.55 466.13 170.15 
M 432.4 150.76 438.97 158.97 441.51 161.67 444.91 163.69 447.96 166.11 453.46 169.23 454.53 170.39 459.76 172.58 462.94 174.46 469.03 177.3 479.42 181.07 
M 406.35 171.23 402.89 173.29 401.66 174.92 400.43 179.08 398.65 180.01 394.57 179.17 392.4 179.26 386.52 181.84 388.52 183.83 
M 62.51 124.73 65.05 121.16 68.4 117.04 72.68 112.36 81.9 103.36 87.65 98.31 94.13 91.79 101.43 84.78 118.23 71.99 127.32 66.39 136.46 61.73 145.42 57.66 153.57 54.4 161.32 51.84 168.01 49.91 173.08 48.78 175.91 48.4 180.07 58.1 180.69 67.6 180.95 77.08 181.42 86.58 181.42 96.05 180.4 105.46 179.67 114.88 178.71 124.3 178.65 133.76 178.18 143.2 174.91 161.96 172.93 171.31 171.94 180.72 171.31 190.16 171.04 199.61 170.35 209.04 169.01 218.43 165.81 227.8 152.11 227.82 142.04 226.84 133.02 224.67 124.84 221.05 117.68 216.18 111.65 210.5 105.9 204.25 100.48 197.37 95.56 190.18 90.82 182.69 
M 88.77 177.68 87.33 174.06 84.48 165.3 81.36 156.65 77 149.11 73.71 144.84 
M 149.41 117.49 149.24 119.45 147.94 126.81 143.34 139.88 141.05 145.73 140.18 151.26 140.22 156.44 142.51 167.72 143.57 174.43 143.38 182.23 128.05 184.72 121.69 185.15 115.46 184.24 109.67 181.81 104.61 177.99 99.73 172.88 
M 89.57 181.84 84.97 174.16 76.25 157.95 73.78 153.81 65.26 138.1 60.12 129.64 59.4 127.44 60.62 125.19 63.1 124.59 65.07 125.96 73.38 144.18 78.86 155.6 87.19 174.57 91.21 182.46 
M 90.58 183.22 88.07 182.7 83.08 181.34 73.31 178.35 68.29 177.08 63.44 175.65 54.06 172.61 41.68 169.44 32.09 166.54 30.41 164.58 31.01 162.11 33.46 160.99 35.91 161.72 45.07 165.18 50.08 166.73 57.12 169.24 63.77 172.05 73.53 175.69 83.05 179.56 87.93 181.34 90.9 182.24 
M 113.1 112.33 111.27 105.4 111.79 98.26 114.6 91.67 119.4 86.35 125.67 82.88 132.73 81.63 139.81 82.74 146.14 86.08 151.05 91.31 153.99 97.84 154.65 104.97 152.96 111.94 149.1 117.97 143.49 122.43 136.74 124.83 129.57 124.9 122.77 122.64 117.08 118.29 113.1 112.33 
M 112.83 111.72 111.96 109.17 111.4 106.53 111.18 103.84 111.29 101.15 111.74 98.49 112.51 95.9 113.59 93.43 114.97 91.11 116.63 88.98 118.54 87.08 120.66 85.42 122.98 84.04 125.45 82.96 128.04 82.19 130.7 81.74 133.39 81.63 136.08 81.85 138.72 82.41 141.27 83.28 
M 114.71 110.95 113.91 108.63 113.41 106.24 113.21 103.8 113.31 101.36 113.71 98.94 114.08 97.71 
M 114.33 96.86 115.39 94.36 116.65 92.26 118.15 90.33 119.88 88.6 121.81 87.09 123.91 85.84 126.15 84.86 128.49 84.16 130.91 83.76 133.35 83.66 135.79 83.86 138.18 84.36 140.5 85.16 
M 116.58 110.17 115.87 108.09 115.42 105.95 115.24 103.76 115.33 101.56 115.96 98.48 
M 120.29 91.04 121.22 90.12 122.95 88.77 124.84 87.65 126.85 86.76 128.95 86.14 131.12 85.78 133.31 85.69 135.5 85.87 137.64 86.32 139.72 87.03 
M 118.46 109.39 117.82 107.55 117.43 105.65 117.26 103.72 117.35 101.77 117.84 99.27 
M 121.78 92.42 124.1 90.44 125.77 89.45 127.55 88.67 129.41 88.11 131.33 87.79 133.27 87.71 135.2 87.87 137.11 88.27 138.94 88.9 
M 120.33 108.62 119.78 107.02 119.43 105.36 119.29 103.67 119.36 101.98 119.71 100.09 
M 123.36 93.7 125.24 92.12 126.69 91.25 128.24 90.57 129.87 90.09 131.54 89.81 133.23 89.74 134.91 89.88 136.57 90.23 138.17 90.78 
M 122.2 107.84 121.74 106.48 121.32 103.63 121.38 102.19 121.66 100.64 
M 124.88 95.05 126.39 93.79 127.62 93.06 130.32 92.07 133.18 91.77 134.62 91.89 137.39 92.65 
M 125.01 106.97 124.27 104.2 124.48 101.44 
M 127.13 97.01 127.53 96.57 130.03 95.19 132.86 94.69 135.69 95.13 138.22 96.47 140.18 98.56 141.36 101.17 141.63 104.02 140.95 106.81 139.41 109.22 137.16 111.01 134.46 111.97 131.6 111.99 128.88 111.09 126.6 109.35 125.01 106.97 
M 124.67 101.5 124.44 101.97 
M 129.09 95.71 128.05 97.79 
M 125.97 101.95 124.47 104.94 
M 130.95 95.02 129.04 98.85 
M 127.29 102.35 125 106.93 
M 132.62 94.73 130.01 99.94 
M 128.63 102.71 125.86 108.25 
M 134.07 94.88 130.96 101.09 
M 130.11 102.79 126.76 109.48 
M 135.48 95.1 131.91 102.24 
M 131.79 102.47 127.87 110.32 
M 136.71 95.67 128.98 111.13 
M 137.92 96.31 130.29 111.56 
M 138.96 97.26 131.59 111.99 
M 139.95 98.31 133.12 111.98 
M 140.74 99.79 134.69 111.88 
M 141.39 101.52 136.54 111.23 
M 141.59 104.16 138.83 109.68 
M 92.43 185.23 97.68 190.48 
M 87.32 174.04 92.08 178.8 
M 84.37 165 89.42 170.05 
M 80.33 154.88 83.84 158.38 
M 66.3 128.68 67.87 130.24 
M 64.97 121.26 69.74 126.03 
M 67.69 117.9 71.98 122.18 
M 70.56 114.68 74.83 118.95 
M 73.52 111.55 79.09 117.13 
M 76.62 108.57 80.16 112.11 
M 79.69 105.55 85.1 110.96 
M 82.79 102.58 87.9 107.68 
M 86.03 99.73 91.33 105.03 
M 89.17 96.78 93.37 100.98 
M 92.2 93.73 96.19 97.72 
M 95.26 90.7 98.69 94.13 
M 98.37 87.72 103.97 93.33 
M 101.47 84.75 107.5 90.77 
M 104.94 82.13 108.49 85.68 
M 108.41 79.51 111.88 82.98 
M 111.86 76.88 116.41 81.43 
M 115.3 74.24 118.88 77.81 
M 118.79 71.64 122.18 75.03 
M 122.56 69.32 126.08 72.84 
M 126.32 67 130.1 70.78 
M 130.28 64.88 135.43 70.02 
M 134.31 62.82 139.89 68.4 
M 138.42 60.84 144.31 66.73 
M 142.6 58.94 147.56 63.9 
M 146.84 57.09 152.71 62.97 
M 151.18 55.35 154.33 58.5 
M 155.63 53.72 159.67 57.76 
M 160.21 52.21 165.53 57.53 
M 164.89 50.81 168.34 54.25 
M 169.7 49.53 173.79 53.62 
M 174.8 48.55 175.9 49.65 
M 153.88 185.94 154.82 184.68 156.76 183.09 157.97 182.72 160.28 182.5 161.4 182.2 
M 70.7 138.22 70.96 137.62 72.21 136.28 74.22 134.96 
M 119.83 180.52 117 182.5 112.03 183.5 110.79 183.54 
M 96.56 112.45 95.12 114.19 92.8 116.37 91.02 118.32 90.47 118.74 89.16 119.32 88.61 119.47 88.01 119.43 
M 176.6 108.51 174.46 107.48 173.73 106.79 173.15 105.78 172.25 105.43 
M 148.65 152.66 147.94 154.69 147.85 155.43 147.97 157.36 148.73 160.44 
M 105.03 112.88 104.67 111.35 102.98 108.13 103.06 107.08 103.61 105.4 
M 171.11 197.17 168.47 195.76 166.92 195.18 163.87 193.64 
M 142.59 167.19 143.55 166.41 144.09 165.74 144.89 163.59 145.26 163.22 146.72 162.82 147.49 162.9 148.11 163.23 
M 176.65 113.28 175.24 111.07 173.91 109.52 173.17 107.94 172.52 105.97 
M 153.14 79.02 154.74 80.31 156.07 81.73 157.09 81.76 
M 127.95 153.64 126.09 151.99 122.56 148.01 121.51 147.11 119.47 145.83 117.02 145.1 
M 99.95 141.91 100.26 141.4 101.67 140.43 104.55 137.52 106.02 136.76 109.19 134.57 
M 156.08 70.27 155.25 73.17 155.29 73.79 155.6 74.03 
M 115.74 124.26 113 124.82 111.74 124.89 110.74 125.24 
M 67.7 124.88 67.98 125.6 69.53 126.77 70.27 127.17 71.15 127.22 73.13 126.49 73.83 125.94 75.39 123.73 
M 75.53 120.77 73.34 121.21 72.85 121.45 71.78 122.6 71.5 123.44 71.57 123.86 72.05 124.49 72.77 124.68 
M 70.68 118.47 64.68 121.65 
M 99.06 118.86 98.3 119.15 97.78 119.58 95.87 121.79 94.12 124.24 92.76 126.89 91.08 129.28 
M 156.59 63.02 157.21 64.09 159.15 65.71 
M 119.18 162.62 117.08 166.74 116.93 167.66 117.14 169.56 
M 157.79 104.72 158.74 104.85 160.62 105.89 161.76 106.25 162.44 106.22 163.79 105.4 
M 76.21 132.95 78.44 131.19 79.03 130.47 79.21 129.52 79.22 127.56 
M 134.32 210.78 136.47 209.7 137.55 208.97 138.05 208.38 138.13 207.47 137.22 205.83 
M 164.65 59.4 163.41 59.74 162.47 60.24 161.94 60.81 161.03 62.77 
M 105.93 180.69 107.13 182.03 107.5 183.46 
M 103.78 168.64 104.65 167.18 105.51 166.19 107.02 165.59 107.56 165.18 
M 116.5 85.07 114.68 84.42 112.8 84.03 111.8 83.25 109.42 80.79 108.51 80.12 107.88 79.92 
M 98.6 191.17 101.3 189.75 103.02 187.54 103.42 187.22 104.85 186.98 
M 168.52 148.53 169.4 147.02 169.65 147 170.11 147.35 
M 170.3 192.07 169.04 190.86 166.52 187.55 166.02 186.66 165.81 185.35 165.97 184.8 167.02 183.57 167.78 183.07 
M 99.62 103.41 96.58 104.33 95.93 104.35 93.95 103.79 92.54 103.65 91.44 104.12 90.63 105.11 
M 124.01 158.08 122.91 158.76 121.44 160.39 119.42 161.95 118.51 163.22 
M 133.82 174.57 134.57 175.83 136.2 177.13 137.27 177.55 139.25 177.51 
M 162.07 222.68 161.64 221.65 161.65 220.54 161.43 219.96 160.88 219.79 160.46 220.16 
M 146.28 164.95 146.54 163.87 146.76 163.57 147.31 163.38 148.01 163.67 148.39 164.65 
M 99.4 101.35 98.22 102.26 96.42 103.17 92.03 103.45 91.52 103.69 90.73 104.53 
M 97.85 193.53 98.08 193.35 
M 73.05 116.38 72.54 115.55 72.19 114.22 72.09 113 
M 174.7 143.56 173.12 144.61 172.22 145.46 171.93 146.13 171.96 147.05 
M 122.07 84.87 120.1 83.2 118.96 81.43 118.49 81 116.65 80.11 
M 141.51 162.37 143.88 162.33 146.48 161.84 
M 155.02 64.74 154.8 70.46 154.46 72.29 
M 141 143 139.89 141.97 138.77 140.44 137.49 139.36 135.46 138.36 134.15 137.51 
M 120.6 175.06 117.36 177.82 113.19 179.37 111.55 180.14 110.57 180.84 
M 154.08 90.84 153.96 89.93 154.23 88.85 154.01 88.05 
M 113.01 200.75 114.7 198.82 115.63 196.76 117.03 194.71 119 193.23 119.65 193.12 
M 159.28 69.95 159.33 70.53 159.17 70.8 
M 109.69 163.31 109.79 163.89 109.43 164.62 108.57 165.28 107.79 165.51 
M 106.17 174.93 106.01 173.39 106.5 171.02 106.35 169.62 
M 150.67 74.5 151.89 73.78 152.66 73.51 153.81 73.45 154.42 73.75 
M 145.44 65.13 145.83 65.63 145.8 66.16 144.72 68 144.28 69.63 
M 159.95 162.37 164.24 160.13 165.2 158.6 166.17 158.12 
M 81.93 139.36 82.81 141.8 83.34 142.76 84.03 143.4 86.45 145.05 87.33 145.25 88.72 145.21 89.73 145.38 
M 166.23 95.79 166.52 93.4 166.3 92.98 165.57 92.53 164.55 92.26 163.92 92.29 161.07 93.1 160.63 93.09 
M 131.71 156.26 131.76 154.63 131.54 153.82 130.99 152.93 130.08 152.12 127.97 150.76 125.22 147.78 123.72 145.89 122.64 145.43 
M 163.25 59.2 162.3 59.66 161.73 60.19 161.47 60.67 161.35 61.95 161.07 62.67 
M 150.51 65.91 150.27 66.78 149.02 68.37 149.24 69.77 149.11 70.27 
M 97.01 178.9 96.47 178.29 94.73 177.04 90.09 175.81 88.51 175.08 87.82 175.16 
M 85.53 121.14 87.19 121.83 87.87 122.85 87.85 123.49 
M 160 168.76 160.49 168.56 161.72 167.51 164.3 166.14 166.72 164.17 169.1 162.61 
M 179.26 118.86 178.48 119.36 177.93 119.98 176.63 122.6 175.82 123.56 
M 130.38 163 130.48 161.24 130.37 159.01 129.75 156.88 128.45 154.49 125.74 151.76 
M 168.13 122.76 163.27 124.15 162.19 124.28 158.97 124.26 
M 148.34 216.29 147.3 216.34 146.61 217.01 146.34 218.61 146.49 219.05 146.86 219.32 
M 175.72 138.7 174.13 140.81 172.57 142.22 171.85 143.23 171.38 144.56 171.36 145.6 
M 82.11 156.78 81.66 157.48 
M 175.42 101.96 176.28 103.39 177.69 104.79 
M 103.56 98.68 102.79 98.45 
M 156.57 190.3 151.52 187.73 151.17 187.46 150.99 187.07 
M 161.03 142.19 159.96 141.68 158.48 140.51 156.18 136.84 155.27 136.04 153.58 135.13 152.53 134.3 
M 115.28 139.81 114.51 137.41 113.91 136.58 112.93 135.64 112.57 134.76 
M 113.38 175.91 112.61 176.03 108.73 175.65 107.74 175.09 106.44 173.72 
M 154.71 217.11 155.46 220.3 156.5 223.53 156.6 224.45 157.35 225.53 
M 137.63 124.51 136.46 126.33 134.6 128.23 132.34 129.4 131.35 129.76 129.57 130.09 
M 98.26 123.79 97.34 124.57 94.97 127.74 91.94 130.88 89.86 132.39 88.23 133.3 87.01 133.15 
M 125.88 191.4 121.18 189.94 120.98 189.97 120.91 190.23 
M 114.73 208.55 116.23 208.17 116.82 207.69 116.87 207.07 116.33 204.5 
M 119.08 187.58 119.56 187.24 119.79 186.36 120.17 185.84 
M 75.88 147.35 75.77 146.57 76.33 145.34 78.84 143.51 79.83 143.23 80.36 143.25 80.9 143.37 81.81 143.89 
M 90.8 182.7 91.14 183.35 
M 86.32 176.56 86.29 176.73 86.41 176.71 
M 84.37 173.02 84.1 173.88 84.69 173.63 
M 82.58 169.7 82.26 170.06 81.91 171.02 82.54 170.6 83.04 170.55 
M 80.77 166.45 80.19 167.03 79.72 168.16 80.47 167.57 81.3 167.43 
M 79.01 163.2 78.12 164 77.53 165.3 78.4 164.54 79.59 164.27 
M 77.29 159.94 76.05 160.97 75.34 162.44 76.33 161.51 77.89 161.1 
M 75.5 156.74 73.99 157.94 73.15 159.58 74.26 158.48 76.23 157.91 
M 73.66 153.59 71.92 154.91 70.96 156.72 72.19 155.45 74.34 154.78 
M 71.91 150.37 69.85 151.88 68.77 153.86 70.13 152.42 72.57 151.61 
M 70.21 147.12 67.78 148.84 66.58 151 68.06 149.39 70.87 148.41 
M 68.45 143.92 65.71 145.81 64.38 148.14 65.99 146.35 69.16 145.21 
M 66.7 140.72 63.64 142.78 62.19 145.29 63.92 143.32 67.41 142.03 
M 64.93 137.52 61.57 139.75 60 142.43 61.85 140.29 65.67 138.84 
M 63.04 134.41 59.51 136.72 57.81 139.57 59.78 137.26 63.86 135.68 
M 61.1 131.33 57.44 133.69 55.62 136.71 57.72 134.23 61.88 132.58 
M 59.58 127.98 55.37 130.66 53.43 133.85 55.65 131.2 60.05 129.43 
M 90.82 182.5 91.64 182.76 
M 86.57 180.86 87.39 180.68 87.8 181.3 
M 82.97 179.52 84.11 178.92 84.08 179.33 84.32 180.04 
M 79.51 178.09 80.06 177.53 80.82 177.15 80.64 177.72 80.77 178.6 
M 76.01 176.69 76.62 175.92 77.54 175.38 77.2 176.11 77.24 177.18 
M 72.48 175.34 73.18 174.31 74.26 173.61 73.76 174.49 73.73 175.77 
M 68.93 174.02 69.74 172.7 70.98 171.84 70.32 172.88 70.2 174.53 
M 65.4 172.66 66.3 171.09 67.7 170.08 66.87 171.27 66.68 173.14 
M 61.93 171.2 62.85 169.48 64.41 168.31 63.43 169.66 63.16 171.77 
M 58.45 169.75 59.41 167.87 61.13 166.54 59.99 168.05 59.67 170.24 
M 54.9 168.43 55.97 166.26 57.85 164.77 56.55 166.44 56.15 168.88 
M 51.32 167.19 52.53 164.65 54.57 163 53.11 164.83 52.6 167.66 
M 47.74 165.96 49.09 163.04 51.28 161.24 49.67 163.22 49.07 166.4 
M 44.12 164.83 45.65 161.43 48 159.47 46.23 161.61 45.49 165.3 
M 40.61 163.43 42.21 159.82 44.72 157.7 42.79 160 41.96 163.99 
M 37.07 162.14 38.77 158.21 41.44 155.93 39.35 158.39 38.43 162.64 
M 33.45 161 35.33 156.6 38.16 154.16 35.91 156.78 34.88 161.41 
M 39.33 168.73 47.66 174.85 55.12 180.06 62.92 185.22 71.19 189.92 79.75 193.89 88.47 197.58 105.9 204.25 
M 46.23 173.47 47 174.07 50.81 175.48 
M 69.41 188.91 68.87 187.77 68.91 187.36 
M 178.3 53.97 180.36 56.03 
M 180.51 48.07 189.95 57.51 
M 188.12 47.56 198.06 57.5 
M 195.85 47.18 202.47 53.8 
M 203.94 47.16 215.97 59.19 
M 212.66 47.76 223.14 58.24 
M 223.71 50.7 230.82 57.81 
M 238.2 57.07 247.75 66.63 
M 250.04 60.81 260.09 70.86 
M 261.05 63.7 272.43 75.08 
M 272.78 67.31 283.94 78.48 
M 284.66 71.08 296.61 83.04 
M 295.16 73.47 301.58 79.9 
M 305.26 75.46 316.35 86.55 
M 315.76 77.85 323.38 85.47 
M 325.88 79.85 334.77 88.75 
M 335.85 81.71 342.42 88.28 
M 346.25 83.99 356.19 93.93 
M 357.79 87.43 368.7 98.33 
M 369.37 90.89 380.17 101.69 
M 379.71 93.12 387.87 101.28 
M 389.89 95.18 398.61 103.91 
M 400.43 97.61 410.95 108.13 
M 411.51 100.58 420.76 109.83 
M 166.29 226.39 167.25 228.32 
M 167.73 222.17 171.75 230.2 
M 169.1 217.81 176.2 232.01 
M 169.89 212.29 178.97 230.46 
M 170.54 206.49 178.49 222.4 
M 170.99 200.3 178.01 214.33 
M 171.21 193.64 176.62 204.46 
M 171.51 187.14 176.14 196.4 
M 171.93 180.88 176.56 190.15 
M 197.43 231.87 198.57 234.16 
M 172.54 175.01 177.9 185.71 
M 196.95 223.81 202.04 234 
M 175.95 174.73 177.91 178.65 
M 197.87 218.56 205.5 233.83 
M 197.29 210.29 208.89 233.5 
M 197.61 203.84 212.25 233.12 
M 196.12 193.76 215.61 232.74 
M 195.53 185.49 217.3 229.03 
M 195.6 178.53 217.03 221.38 
M 178.48 137.18 179.99 140.2 
M 198.78 177.8 216.79 213.81 
M 178.67 130.47 182.09 137.31 
M 202.1 177.34 216.56 206.25 
M 178.78 123.6 182.76 131.56 
M 205.71 177.45 217.23 200.49 
M 179.38 117.7 183.79 126.5 
M 209.78 178.48 216.44 191.81 
M 233.67 226.28 235.07 229.07 
M 179.92 111.67 184.89 121.61 
M 213.95 179.74 214.82 181.47 
M 233.87 219.57 238.33 228.5 
M 180.4 105.53 186.89 118.52 
M 234.97 214.67 241.63 228 
M 181.03 99.69 188.1 113.83 
M 235.27 208.17 244.93 227.5 
M 181.42 93.38 189.5 109.54 
M 202.2 134.93 204.29 139.12 
M 234.85 200.24 248.26 227.06 
M 181.4 86.25 190 103.43 
M 202.69 128.83 207.77 138.97 
M 234.44 192.32 250.97 225.38 
M 181.01 78.36 190.52 97.39 
M 203.22 122.78 211.24 138.82 
M 234.97 186.28 252.2 220.75 
M 180.78 70.79 189.37 87.99 
M 204.79 118.83 214.71 138.66 
M 235.64 180.51 252.87 214.98 
M 180.38 62.9 188.23 78.59 
M 206.37 114.87 218.18 138.51 
M 236.7 175.53 253.53 209.21 
M 176.65 48.35 188.9 72.84 
M 207.04 109.12 220.65 136.33 
M 239.66 174.35 254.21 203.45 
M 180.08 48.1 188.69 65.33 
M 207.74 103.43 220.44 128.83 
M 242.83 173.6 254.91 197.76 
M 183.5 47.85 188.49 57.83 
M 208.45 97.74 222.05 124.95 
M 246.24 173.32 254.71 190.26 
M 186.94 47.62 187.39 48.53 
M 209.16 92.06 222.77 119.28 
M 249.93 173.61 255.42 184.59 
M 273.56 220.87 275.25 224.25 
M 209 84.64 224.42 115.48 
M 253.21 173.07 256.16 178.97 
M 274.3 215.25 278.61 223.86 
M 208.83 77.21 224.25 108.05 
M 274.14 207.83 281.95 223.44 
M 208.69 69.83 225.02 102.49 
M 240.44 133.33 242.49 137.43 
M 274 200.45 285.29 223.02 
M 208.61 62.58 225.85 97.05 
M 241.27 127.89 245.96 137.28 
M 274.83 195.01 288.63 222.6 
M 208.42 55.09 226.56 91.38 
M 241.98 122.22 249.44 137.12 
M 274.64 187.52 291.97 222.19 
M 207.03 45.21 227.44 86.03 
M 242.86 116.87 252.91 136.97 
M 273.7 178.55 295.31 221.77 
M 209.57 43.18 227.25 78.56 
M 243.58 111.21 256.38 136.81 
M 274.42 172.89 296.19 216.43 
M 211.95 40.85 227.82 72.6 
M 245.06 107.06 258.66 134.28 
M 274.99 166.93 296.76 210.47 
M 214.21 38.26 226.45 62.76 
M 244.59 99.04 259.11 128.06 
M 276.8 163.45 297.2 204.26 
M 216.76 36.28 224.47 51.7 
M 244.43 91.61 259.85 122.45 
M 279.51 161.77 292.5 187.76 
M 220.8 37.26 222.16 39.98 
M 243.93 83.52 261.16 117.98 
M 282.39 160.44 292 179.66 
M 243.2 74.96 261.34 111.25 
M 285.46 159.48 293.09 174.74 
M 244 69.45 262.14 105.74 
M 275.75 132.95 277.22 135.89 
M 288.73 158.92 293.89 169.23 
M 243.61 61.58 262.66 99.68 
M 276.26 126.89 280.69 135.74 
M 292.11 158.57 294.41 163.17 
M 318.9 212.15 320.58 215.53 
M 242.14 51.54 262.1 91.45 
M 276.61 120.48 284.16 135.58 
M 294.32 155.9 294.75 156.76 
M 318.33 203.93 323.48 214.22 
M 240.79 41.75 262.56 85.29 
M 277.98 116.13 287.63 135.43 
M 314.27 188.7 326.38 212.92 
M 242.15 37.35 262.55 78.17 
M 277.98 109.01 291.11 135.27 
M 313.35 179.76 329.23 211.52 
M 246.09 38.14 261.96 69.89 
M 279.2 104.35 294.58 135.12 
M 313.66 173.29 332.03 210.02 
M 249.53 37.92 260.86 60.59 
M 279.91 98.69 294.43 127.72 
M 314.38 167.63 334.83 208.52 
M 252.68 37.12 261.29 54.35 
M 280.34 92.45 295.76 123.29 
M 313.9 159.57 337.33 206.43 
M 256.58 37.82 259.75 44.17 
M 281.52 87.71 296.04 116.74 
M 314.18 153.02 336.85 198.37 
M 281.4 80.37 295.92 109.4 
M 314.96 147.5 335.83 189.22 
M 281.26 72.99 296.68 103.83 
M 315.83 142.13 333.87 178.21 
M 280.69 64.75 297.02 97.4 
M 315.16 133.69 315.41 134.19 
M 318.27 139.9 335.11 173.6 
M 281.52 59.3 297.84 91.96 
M 315.08 126.42 318.89 134.04 
M 320.86 138 335.94 168.15 
M 282.36 53.9 297.78 84.74 
M 315.02 119.21 322.36 133.89 
M 323.62 136.42 336.79 162.75 
M 281.46 45 297.79 77.65 
M 315.02 112.12 325.83 133.73 
M 326.53 135.14 336.79 155.66 
M 354.94 191.94 357.37 196.81 
M 283.39 41.76 299.27 73.51 
M 314.69 104.35 329.3 133.58 
M 329.56 134.09 336.46 147.89 
M 354.6 184.17 360.25 195.47 
M 288.21 44.29 299.55 66.97 
M 315.87 99.62 336.74 141.35 
M 354.88 177.63 363.14 194.16 
M 292.47 45.71 300.18 61.13 
M 316.5 93.78 336.46 133.69 
M 355.51 171.79 366.04 192.86 
M 295.91 45.49 299.99 53.66 
M 317.22 88.12 335.36 124.41 
M 356.23 166.13 368.95 191.58 
M 299.44 45.45 300.8 48.17 
M 318.03 82.64 334.36 115.29 
M 356.13 158.83 371.92 190.42 
M 317.7 74.88 334.93 109.35 
M 356.7 152.89 374.88 189.25 
M 317.8 67.98 335.03 102.45 
M 356.8 145.99 375.85 184.08 
M 317.14 59.56 336.19 97.65 
M 356.14 137.56 376.1 177.47 
M 318.58 55.34 336.27 90.72 
M 356.22 130.63 377.08 172.35 
M 322.16 55.41 337.13 85.34 
M 355.27 121.62 377.04 165.16 
M 325.91 55.81 337.25 78.49 
M 354.49 112.96 377.16 158.31 
M 331.55 59.99 334.73 66.34 
M 353.78 104.44 376.45 149.79 
M 354 97.79 375.77 141.33 
M 354.01 90.7 375.78 134.24 
M 397.72 178.12 398.34 179.37 
M 354.84 85.26 375.7 126.99 
M 396.56 168.71 401.13 177.86 
M 354.41 77.31 374.37 117.22 
M 397.04 162.58 403.92 176.32 
M 354.72 70.83 373.77 108.93 
M 395.54 152.47 406.7 174.79 
M 359.73 73.76 372.88 100.06 
M 393.75 141.79 409.43 173.16 
M 363.75 74.7 371.46 90.12 
M 391.42 130.03 412.03 171.25 
M 390.19 120.48 412.87 165.83 
M 389.62 112.24 413.21 159.41 
M 389.94 105.77 412.61 151.13 
M 389.35 97.49 411.12 141.03 
M 391.98 95.66 408.76 129.22 
M 395.98 96.56 408.22 121.05 
M 400 97.5 407.71 112.92 
M 404.07 98.53 407.24 104.88 
M 427.2 144.79 428.98 148.36 
M 426.73 136.75 429.01 141.32 
M 426.37 128.94 429.01 134.22 
M 425.13 119.36 429.01 127.12 
M 425.68 113.36 429.01 120.02 
M 427.83 110.57 429.01 112.92 
M 216.83 291.39 214.94 297.7 
M 214.94 297.7 218.54 297.7 
M 224.6 293.5 223.34 297.7 
M 224.33 294.39 223.91 293.8 223.4 293.5 222.5 293.5 221.81 293.8 221.03 294.39 220.46 295.3 220.28 295.89 220.31 296.8 220.73 297.39 221.24 297.7 222.14 297.7 222.83 297.39 223.61 296.8 
M 229.73 294.39 229.61 293.8 228.8 293.5 227.9 293.5 226.91 293.8 226.43 294.39 226.55 295 227.06 295.3 228.47 295.6 228.98 295.89 229.01 296.8 228.53 297.39 227.54 297.7 226.64 297.7 225.83 297.39 225.71 296.8 
M 232.1 293.5 231.2 296.5 231.23 297.39 231.74 297.7 232.64 297.7 233.33 297.39 234.5 296.5 
M 235.4 293.5 234.14 297.7 
M 240.53 294.39 240.41 293.8 239.6 293.5 238.7 293.5 237.71 293.8 237.23 294.39 237.35 295 237.86 295.3 239.27 295.6 239.78 295.89 239.81 296.8 239.33 297.39 238.34 297.7 237.44 297.7 236.63 297.39 236.51 296.8 
M 248.93 294.39 248.51 293.8 248 293.5 247.1 293.5 246.41 293.8 245.63 294.39 245.06 295.3 244.88 295.89 244.91 296.8 245.33 297.39 245.84 297.7 246.74 297.7 247.43 297.39 248.21 296.8 
M 254.6 293.5 253.34 297.7 
M 254.33 294.39 253.91 293.8 253.4 293.5 252.5 293.5 251.81 293.8 251.03 294.39 250.46 295.3 250.28 295.89 250.31 296.8 250.73 297.39 251.24 297.7 252.14 297.7 252.83 297.39 253.61 296.8 
M 259.43 291.39 258.83 291.39 258.14 291.7 257.57 292.6 256.03 297.7 
M 256.39 293.5 258.5 293.5 
M 263.89 293.5 262.64 297.7 
M 263.63 294.39 263.21 293.8 262.7 293.5 261.8 293.5 261.11 293.8 260.33 294.39 259.76 295.3 259.58 295.89 259.61 296.8 260.02 297.39 260.53 297.7 261.44 297.7 262.13 297.39 262.9 296.8 
M 269.02 294.39 268.91 293.8 268.1 293.5 267.2 293.5 266.2 293.8 265.73 294.39 265.85 295 266.36 295.3 267.77 295.6 268.27 295.89 268.31 296.8 267.83 297.39 266.83 297.7 265.94 297.7 265.13 297.39 265.01 296.8 
M 271.39 293.5 270.14 297.7 
M 270.86 295.3 271.43 294.39 272.2 293.8 272.89 293.5 273.8 293.5 
M 274.7 293.5 275.24 297.7 
M 278.3 293.5 274.27 298.89 273.5 299.5 272.51 299.8 
M 281.02 291.39 279.5 296.5 279.52 297.39 280.04 297.7 280.64 297.7 
M 279.5 293.5 281.6 293.5 
M 284.33 291.39 282.44 297.7 
M 283.33 294.7 284.51 293.8 285.2 293.5 286.1 293.5 286.61 293.8 286.64 294.7 285.74 297.7 
M 289.39 293.5 288.14 297.7 
M 288.86 295.3 289.43 294.39 290.2 293.8 290.89 293.5 291.8 293.5 
M 293.3 293.5 292.39 296.5 292.43 297.39 292.94 297.7 293.83 297.7 294.52 297.39 295.7 296.5 
M 296.6 293.5 295.33 297.7 
M 301.73 294.39 301.61 293.8 300.8 293.5 299.89 293.5 298.91 293.8 298.43 294.39 298.55 295 299.06 295.3 300.47 295.6 300.98 295.89 301.01 296.8 300.52 297.39 299.54 297.7 298.64 297.7 297.83 297.39 297.7 296.8 
M 303.32 297.1 302.93 297.39 303.14 297.7 303.52 297.39 303.32 297.1 
"/></svg>
