<svg xmlns="http://www.w3.org/2000/svg" width="520" height="320"><rect x="0" y="0" width="520" height="320" fill="floralwhite"/><rect x="10" y="10" width="500" height="300" stroke="black" stroke-width="1" fill="none"/><path stroke="black" stroke-width="1" fill="none" stroke-linecap="round" stroke-linejoin="round" d="
M 107.82 111.18 112.37 110.34 120.77 109.31 146.04 106.9 179.63 102.77 188.07 102.13 196.53 101.97 204.98 102.36 221.79 104.3 230.23 104.96 272.52 106.35 280.98 106.42 289.44 106.26 297.9 106.46 306.33 107.18 314.71 108.37 347.97 114.63 356.23 116.45 364.46 118.43 372.63 120.62 388.83 125.51 396.79 128.4 399.71 130.5 
M 399.71 160.59 396.17 162.6 388.17 165.35 371.9 170.01 363.69 172.04 347.09 175.34 330.39 178.08 322.02 179.28 313.62 180.35 305.19 181.08 279.85 182.61 262.97 183.83 229.27 186.95 212.4 188.28 195.51 189.42 187.06 189.84 178.6 190.04 171.15 189.81 
M 162.4 189.03 153.35 187.78 145.89 186.33 
M 118.31 180.07 111.95 179.2 95.69 177.34 
M 185.79 139.36 187.81 139.31 
M 191.37 139.05 193.05 138.82 199.1 137.39 200.77 137.26 
M 204.31 137.2 208.15 137.53 
M 212.1 138.06 215.92 138.48 
M 219.42 138.6 225.97 138.43 
M 229.33 138.44 232.61 138.34 
M 238.61 137.49 243.14 136.91 250.19 137.16 254.01 137.58 258.1 138.28 266.9 140.23 270.86 140.74 274.36 140.75 281.01 140.32 289.91 140.1 
M 293.41 139.96 295.11 139.84 301.34 138.89 304.83 138.82 310.77 139.57 
M 317.66 139.61 322.26 139.1 330.78 139.11 
M 334.33 139.26 336.17 139.39 340.49 140.31 349.74 142.76 354.05 143.69 362.01 144.92 367.61 145.49 
M 371.03 145.57 372.65 145.53 378.67 144.87 382 144.86 393.23 145.9 399.71 146.06 
M 111.34 179.11 111.35 179.13 
M 121.22 118.71 118.04 123.13 117.08 124.73 
M 138.6 107.63 136.8 110.37 
M 133.48 116.77 131.76 119.96 
M 127.76 125.91 125.75 128.94 
M 143.3 117.38 140.02 123.69 
M 138.22 126.75 135.95 130.88 
M 151.59 121.05 150.15 124.28 
M 148.62 127.45 146.59 131.19 
M 164.11 115.2 162.3 120.19 158.48 127.7 
M 174.05 181.76 174.52 183.06 
M 171.51 122.48 171.03 124.21 169.8 127.38 169.38 128.12 
M 179.6 172.51 182.18 178.53 
M 181.57 114.89 181.31 116.86 180.36 120.32 179.75 121.88 
M 186.45 166.75 186.89 167.95 
M 188.71 173.07 190.05 177.08 191.07 181.11 
M 188.49 117.87 187.79 121.53 
M 185.92 128.2 184.86 131.36 
M 190.52 156.24 192.53 160.68 
M 193.68 163.31 195.42 168.22 
M 196.13 170.63 198.4 178.78 
M 196.17 117.61 194.57 124.66 
M 192.93 131.42 192.11 134.73 
M 195.92 149.17 196.91 151.5 
M 202.04 162.29 203.41 166.04 204.05 170.2 204.47 171.59 
M 206.52 177.8 207.08 179.55 
M 206.32 115.96 204.11 120.41 202 126.88 198.27 136.74 
M 203.03 147.37 204.57 150.25 
M 209.16 159.11 211.12 163.4 213.17 169.81 
M 214.81 175.41 215.67 179.59 
M 210.67 125.88 209.64 129.07 
M 208.63 132.22 208.07 133.73 206.11 137.27 
M 212.24 148.16 213.7 151.01 
M 217.97 159.7 219.99 164.15 221.55 168.36 
M 222.32 171.01 222.98 173.66 
M 223.78 176.55 225.31 181.1 
M 230.28 110.69 228.59 113.73 
M 224.93 119.25 221.37 124.54 
M 219.83 127.31 219.12 128.73 217.47 133.35 
M 216.16 136.69 215.35 138.48 
M 219.75 146.36 222.63 152.09 
M 224.1 155.05 225.59 158.07 
M 226.97 161.06 230.16 168.59 232.3 175.69 
M 233.43 178.98 234.48 181.8 
M 239.05 111.24 236.48 115.74 235.49 117.07 
M 231.32 121.96 230.31 123.19 228.8 126.04 227.54 129.08 224.05 136.62 
M 227.36 146.2 230.55 152.39 
M 232.26 155.66 235.48 162.18 
M 238.59 168.89 239.32 170.56 241.93 178.29 
M 243.37 182.26 244.25 184.59 
M 242.95 116.41 240.69 118.76 
M 234.17 129.93 232.82 134.92 231.12 138.45 
M 235.66 148.38 239.93 155.9 
M 243.52 162.95 245.16 166.44 
M 246.68 169.87 247.97 173.15 
M 249.08 176.32 250.82 181.3 252.27 184.78 
M 254.09 114.77 252.91 115.98 251.61 117.02 
M 248.93 118.99 245.01 121.94 243.02 124.44 241.54 127.38 238.89 135.76 
M 238.84 138.92 240.09 141.78 
M 245.04 151.71 253.83 168.75 255.48 172.41 258.41 180.65 
M 259.65 183.98 259.71 184.12 
M 264.68 112.5 262.87 115.5 
M 256.06 122.8 253.63 124.97 
M 251.39 127.24 250.31 128.41 248.5 131.03 245.62 136.9 
M 251.45 148.74 253.42 152.49 
M 257.54 160.28 259.4 164.05 
M 262.53 171.15 264.7 177.5 
M 266.06 181.03 267.09 183.52 
M 269.52 118.78 268.57 120.21 264.12 125.17 260.11 130.35 255.95 135.16 254.32 137.63 
M 258.55 146.3 260.44 150.01 
M 262.36 153.77 264.55 158.78 268.81 169.97 
M 270.38 173.6 274.49 182.97 
M 273.82 124.28 270.92 128.42 270.13 129.95 
M 268.6 133.04 267.01 136.02 
M 265.28 138.58 264.42 139.72 
M 270.26 152.01 272.64 159.15 274.41 163.85 
M 275.62 167.04 281.42 182.53 
M 280.23 126.9 278.62 130.01 
M 277 133.07 276.21 134.61 273.61 140.78 
M 278.66 152.39 280.05 155.69 
M 282.39 161.86 284.57 168.92 285.69 172.04 289.39 181.15 
M 292.92 117.02 291.23 120.16 
M 286.22 129.49 283.96 134.31 281.45 140.31 
M 285.55 149.1 287.11 152.54 
M 288.54 155.85 289.75 158.94 
M 290.74 161.82 292.88 168.71 297.07 178.8 298.07 181.58 
M 304.96 111.39 302.81 114.19 
M 297.08 123.11 294.75 128 292.62 133.04 
M 291.24 136.42 290.19 139.1 
M 298.33 158.81 300.75 165.02 
M 302.07 168.26 304.62 174.76 
M 305.52 177.67 306.5 180.97 
M 307.27 121.1 306.14 122.43 304.11 125.3 302.3 128.35 300.64 131.52 299.2 134.89 298.44 137.15 
M 302.23 148.58 308.7 163.55 311.94 171.74 
M 313.06 174.89 314.8 180.2 
M 319.5 116.24 317.4 119.17 
M 315.35 122.12 313.45 125.21 
M 311.77 128.46 309.28 133.33 305.5 138.87 
M 310.94 150.82 317.39 165.02 
M 318.8 168.45 322.99 179.14 
M 327.76 117.33 324.17 121.38 322.09 124.36 320.32 127.61 318.71 131 315.75 137.92 314.58 139.86 
M 316.39 144.45 319.13 150.97 
M 320.4 154.17 323.19 160.9 
M 324.92 164.64 327.37 170.17 330.4 178.07 
M 336.88 119.33 331.2 126.51 328.74 129.15 326.45 131.92 324.38 134.88 321.84 139.12 
M 328.18 154.05 331.33 161.2 
M 332.85 164.76 337.62 176.93 
M 346.47 121.88 343.85 124.48 
M 341.37 127.2 340.16 128.58 334.62 133.36 332.13 135.97 329.82 139.1 
M 332.82 146.85 333.42 148.42 338.91 159.88 344.14 172.35 
M 355.7 124.42 354.61 125.97 352.2 128.82 349.61 131.48 346.85 133.96 343.88 136.19 338.56 139.85 
M 344.1 152.1 346.41 157.4 348.91 163.96 352.54 174.31 
M 362.07 129.71 356.1 136.99 353.45 139.61 349.38 142.67 
M 353.15 151.16 356.63 159.53 357.47 162.35 358.7 167.56 360.45 172.72 
M 370.8 132.5 367.12 136.82 359.19 144.55 
M 361.41 149.51 364.38 157.14 366.87 165.29 368.96 170.74 
M 382.2 127.6 380.97 129.03 377.73 133.78 
M 375.66 137.06 373.46 140.21 
M 370.93 143.03 368.07 145.56 
M 368.61 146.94 369.59 149.65 
M 370.55 152.34 372.26 156.67 375.13 163.02 377.36 168.51 
M 387.58 132.93 380.74 139.46 376.89 143.75 
M 378.37 151.87 385.73 166.08 
M 395.55 135.81 394.29 137.25 391.35 139.69 383.14 144.93 
M 387.17 152.08 393.87 163.39 
M 399.71 141.06 397.07 143.19 391.99 145.81 
M 394.68 149.58 399.71 156.43 
M 264.18 108.41 260.99 108.76 260.39 108.67 260.17 108.29 
M 318.05 164.18 319.13 161.17 320.16 159.93 320.51 159.02 
M 394.96 133.06 396.38 132.04 396.64 131.61 396.69 130.27 396.01 128.12 
M 182.85 106.16 179.51 105.16 176.59 103.14 
M 191.07 189.45 188.06 186.83 187.05 186.37 185.82 186.37 184.36 187.85 
M 141.88 131.18 141.92 131.08 
M 258.73 184.2 258.3 181.31 258.4 179.2 
M 197.9 162.2 195.75 158.56 195.01 157.96 194.19 157.74 
M 384.9 147.89 384.81 149.44 385.15 150.66 
M 331.93 141.72 331.17 142.34 330.66 143.19 331.1 145.3 331.06 145.93 
M 203.97 170.7 204.72 169.47 204.58 168.47 204.18 167.94 
M 257.97 140.35 260.62 136.15 260.59 135.57 259.71 134.83 
M 351.44 117.36 350.31 116.88 349.91 116.42 349.4 114.94 
M 201.64 122.8 201.26 121.78 200.78 121.39 199.31 120.49 197.5 119.63 196.98 119.14 195.95 116.47 
M 399.71 150.7 399.22 149.84 398.27 147.37 397.85 144.25 397.36 142.81 
M 341.59 161.08 341.3 160.88 341.01 160.89 
M 184.27 116.76 184.07 117.17 184.13 118.3 185.12 120.84 185.34 122.08 185.16 122.88 184.82 123.19 
M 214.54 119.65 214.44 118.37 214.13 117.54 212.41 115.47 211.46 114.69 210.96 114.49 210.54 114.56 210.18 114.85 
M 111.23 110.55 108.26 111.99 
M 178.79 129.36 178.25 126.04 178.24 125.1 178.42 124.35 179.32 123.29 180.81 122.37 
M 282.45 172.57 280.01 172.54 277.24 172.91 275.84 172.39 274.01 171.16 
M 254.58 173.17 255.57 175.25 257.34 175.91 
M 288.84 154.08 288.08 151.56 287.51 150.5 285.27 149.32 284.7 149.19 284.27 149.31 
M 188.91 179.06 188.39 180.33 186.94 181.36 185.81 182.41 
M 276.25 134.26 276.44 133.64 276.28 133.04 274.8 131.06 274.19 130.49 273.04 129.76 269.62 128.56 
M 239.23 129.91 237.66 129.55 234.86 127.36 233.38 126.56 232.83 126.49 232.32 126.62 230.64 127.69 230.11 128.17 229.45 129.38 
M 192.64 101.8 194.03 99.6 195.11 97.12 197.73 89.16 199.73 84.37 202.77 79.67 203.7 77.65 205.04 75.62 209.05 70.37 209.74 67.1 210.65 64.1 211.6 62.14 215.59 59.02 223.79 56.07 226.19 53.96 228.16 52.57 229.72 51.1 231.42 49.07 233.67 46.78 236.52 45 239.3 42.28 245.9 39.87 246.96 43.92 246.28 49.74 248.18 52.33 249.72 53.97 251.61 56.69 252.8 58.98 253.46 61.82 253.17 64.68 254.77 67.97 258.66 73.38 263.43 78.95 264.52 81.06 265.27 83.48 265.59 85.45 267.74 87.45 271.98 90.19 273.46 91.63 275.21 95.03 277.6 96.96 280.59 98.33 283.63 100.1 285.68 101.59 288.02 102.96 291.04 104.02 293.67 104.42 295.86 105.13 297.24 106.19 297.38 106.45 
M 301.79 106.56 301.78 106.56 
M 197.14 101.99 199.33 97.23 200.1 94.71 203.13 87.61 204.73 85.37 206.09 82.06 207.42 80.07 208.23 77.88 209.91 75.42 211.58 72.1 212.59 69.44 214.24 66.98 215.08 65.31 216.73 63.92 218.36 62.22 221.38 61.48 226.9 58.81 228.76 57.3 230.6 55.18 
M 201.63 102.19 202.91 99.94 203.98 97.37 206.08 90.56 207.8 87.99 211.16 80.18 212.77 76.9 214.83 74.27 216.45 72.63 218.6 71.06 221.28 68.54 222.37 66.26 226.26 62.67 228.29 60.02 230.91 58.52 234.62 55.85 235.96 54.08 239.74 51.97 
M 206.13 102.5 207.49 100.55 208.19 98.17 209.29 95.89 211.52 89.94 213.01 87 214.53 82.12 216.53 79.81 220.67 76.34 222.78 75.08 225.36 72.77 
M 210.59 103.07 211.97 101.21 214.58 96.09 216.97 90.25 221.18 83.12 224.31 78.39 225.99 77.42 227.75 76.81 233.57 70.05 235.49 68.36 237.39 67.81 
M 215.06 103.64 216.79 102.18 219.43 96.41 220.04 94.01 220.87 92.19 222.81 89.79 225.7 84.17 226.84 81.07 229.02 79.78 229.32 78.91 231.51 76.76 236.53 72.85 238.46 71.59 241.13 70.45 248.01 68.38 249.39 67.45 251.27 66.48 
M 219.54 104.1 221.22 102.38 222.07 99.95 223.37 97.34 224.95 95.1 226.37 92.4 227.3 90.03 227.6 87.19 228.97 84.32 230.6 82.59 233.61 78.44 235.84 76.84 237.92 74.38 
M 224.02 104.49 225.28 102.36 226.36 99.94 227.7 97.54 228.59 95.21 230.04 93.4 231.62 87.99 234.01 83.83 235.59 81.88 237.99 80.01 239.75 77.52 244.53 73.76 246.66 72.57 251 72.56 254.19 72.21 
M 228.51 104.88 229.59 102.73 230.18 100.21 231.15 98.13 231.94 95.84 233.67 93.79 234.65 91.5 235.25 88.07 236.17 85.66 237.12 83.72 241.18 78.23 243.68 76.92 
M 233.01 105.03 233.96 103.35 234.8 98.99 235.87 96.2 237.02 93.75 238.51 91.29 239.24 88.48 240.75 85.78 241.19 82.58 243.51 80.55 
M 237.51 105.14 238.56 103.76 240.01 98.86 241.22 96.08 244.59 91.44 245.66 86.37 
M 242.01 105.26 243.74 103.65 244.56 101.1 245.08 98.79 246.36 96.48 247.38 91.83 251.27 87.08 253.11 86.07 258.44 82.22 261.22 80.47 
M 246.51 105.42 248.4 103.62 249.29 100.93 249.07 98.39 249.17 95.8 249.94 93.51 251.6 91.16 254.47 89.43 
M 251.01 105.58 252.71 103.7 253.64 101.42 253.69 95.55 255.95 92.78 259.37 90.8 
M 255.51 105.76 257.1 103.58 258.11 101.23 258.67 96.84 260.47 95.8 262.14 94.17 263.6 92.31 266.63 90.17 
M 260.01 105.94 261.26 103.83 261.37 100.95 262.22 98.45 263.53 96.91 
M 264.5 106.13 265.31 103.96 265.84 101.61 266.72 99.56 268.52 98.95 270.38 97.55 273.77 96.77 
M 269 106.26 269.91 105.43 271.59 101.3 274.06 100.16 
M 273.51 106.38 274.84 105.76 275.76 103.91 277.65 101.36 
M 278.01 106.48 279.55 105.91 
M 282.51 106.39 284.26 106.23 
M 287.01 106.31 289.39 105.08 
M 291.51 106.3 296.8 105.46 
M 296.01 106.42 296.01 106.42 
M 113.05 136.79 136.37 128.05 136.71 128.88 113.09 139.19 
M 112.67 142.52 177.51 125.59 177.75 126.46 111.93 145.6 
M 111.2 148.39 195.52 136.36 195.65 137.25 110.14 151.48 
M 109.3 153.87 205.31 151.28 205.34 152.18 107.87 156.89 
M 107.03 158.86 196.59 166.93 196.52 167.82 105.94 161.77 
M 105.19 163.41 185.85 180.34 185.68 181.22 103.87 166.22 
M 103.26 167.51 179.46 193.04 179.19 193.9 101.79 170.24 
M 101.31 171.13 136.02 187.99 135.64 188.81 99.56 173.59 
M 132.66 130.65 140.89 131.16 144.99 131.24 149.07 131.13 153.14 130.8 161.23 129.54 169.27 127.74 
M 169.58 128.84 172.55 131.83 174.12 133.18 175.79 134.36 177.56 135.35 181.4 136.81 185.5 137.79 
M 185.68 138.91 186.64 142.38 188.06 145.54 189.02 146.95 190.16 148.24 191.45 149.42 194.33 151.58 
M 194.37 152.71 191.63 155.08 189.35 157.72 188.48 159.2 187.79 160.79 187.26 162.47 186.51 166.02 
M 186.42 167.15 183.41 168.91 180.82 171.03 179.75 172.28 178.85 173.68 178.1 175.19 176.86 178.45 
M 176.64 179.56 174.39 181.41 173.42 182.41 172.61 183.5 172 184.69 171.33 187.34 171.13 190.25 
M 170.78 191.33 162.33 189.01 153.8 187.23 149.5 186.64 145.17 186.27 140.81 186.08 132.04 186.06 
M 136.78 130.94 144.99 131.24 149.07 131.13 153.14 130.8 157.19 130.27 165.25 128.68 
M 171.04 130.37 174.12 133.18 175.79 134.36 177.56 135.35 179.43 136.16 183.43 137.33 
M 144.64 137.4 146.64 139.22 148.88 140.64 150.1 141.16 152.7 141.92 
M 186.13 140.66 187.27 144.01 188.06 145.54 189.02 146.95 190.16 148.24 192.86 150.52 
M 165.01 143.79 165.89 146.35 166.49 147.53 168.1 149.59 170.17 151.34 
M 143.89 146.91 144.92 149.51 146.04 150.95 147.48 152.17 
M 192.97 153.88 190.41 156.35 189.35 157.72 188.48 159.2 187.79 160.79 186.85 164.23 
M 170.25 154.76 168.29 156.66 167.48 157.71 166.28 160.06 165.56 162.69 
M 147.54 155.64 146.17 156.96 145.14 158.48 144.28 161.16 
M 184.89 168.01 182.04 169.91 180.82 171.03 179.75 172.28 178.85 173.68 177.45 176.8 
M 164.06 166.43 161.88 167.89 160.94 168.75 159.43 170.78 158.36 173.17 
M 143.23 164.86 141.06 166.47 140.01 167.88 139.26 169.55 
M 175.48 180.47 173.42 182.41 172.61 183.5 172 184.69 171.58 185.97 171.19 188.78 
M 147.53 175.01 146.19 176.27 145.67 176.98 144.99 178.58 144.74 180.41 
M 166.56 190.13 158.08 188.03 153.8 187.23 149.5 186.64 145.17 186.27 136.43 186.04 
M 156.26 188.34 158.62 191.57 162.72 196.45 164.44 198.98 165.86 201.54 168.08 203.49 172.53 208.4 175.45 209.98 177.81 210.96 179.38 213.15 180.57 216.09 182.03 218.49 183.44 221.64 185.42 223.07 185.62 231.51 183.08 232.75 180.93 234.36 179.44 240.24 178.2 242.65 176.73 248.28 175.04 250.13 172.35 251.26 170.07 252.78 168.23 254.74 166.78 257.09 165.57 263.28 164.95 264.55 156.45 270.12 156.3 267.73 155.24 265.06 155.61 262.51 154.3 260.39 153.74 257.98 154.86 255.35 155.1 252.71 155.01 250.21 154.21 244.06 152.73 238.54 151.25 235.47 150.46 233.11 149.92 230.6 150.06 228.13 150.01 224.64 148.41 215.63 147.25 212.33 147.01 209.41 147.15 201.54 146.61 198.49 146.54 195.61 145.23 189.59 144.2 186.23 
M 154.49 188 158.45 194.03 162.39 199.18 163.91 201.61 165.14 204.21 166.92 206.84 169.05 209.48 
M 152.72 187.66 156.42 193.68 157.79 196.51 159.86 198.88 161.85 201.48 163.22 204.2 166.26 212.6 168.41 215.04 170.31 217.98 172.63 219.54 173.74 220.94 174.26 223.92 
M 150.95 187.32 152.86 190.65 154 193.41 155.44 196.23 157.06 198.87 158.86 201.32 162.28 206.95 163.39 210.47 163.35 213.22 168.22 221.05 169.67 226.8 169.64 228.4 
M 149.18 186.97 150.98 190.35 153.41 196.08 154.87 198.73 155.86 201.43 161.18 213.2 161.97 216.08 162.95 221.49 164 224.22 163.98 227.23 164.3 229.59 
M 147.42 186.63 149.09 190.01 151.29 195.86 152.09 198.95 154 204.68 155.19 207.15 155.73 209.91 157.16 213.03 158.32 216.15 157.91 219.43 158.51 226.26 160.02 228.58 161.24 231 161.4 233.8 162.46 237.48 164.25 240.1 165.92 243.08 166.12 244.88 165.64 246.45 166.34 249.34 167.12 251.05 
M 145.66 186.31 148.15 192.74 148.8 195.67 150.57 207.19 151.17 210.11 152 212.57 152.53 216.02 153.99 221.73 154.15 224.75 154.05 226.84 154.88 228.43 157.03 241.96 157.82 243.86 159.56 246.86 
M 374.55 169.36 379.17 177.78 386.8 182.92 389.13 191.61 387.6 193.6 386.73 200.05 385.08 202.13 380.88 205.28 379.44 207.42 377.37 209.16 376 211.56 373.56 212.21 370.71 212.51 368.35 213.39 366.21 214.5 364.64 216.69 363.4 219.23 360.98 220.61 357.91 220.34 352.24 220.27 349.99 220.83 346.75 219.93 341.36 219.88 338.06 219.51 334.78 218.1 332.17 217.17 328.5 216.98 326.15 216.38 323.79 216.88 320.97 217.16 315.11 217.31 311.08 220.82 308.73 220.16 306.12 218.99 303.15 217.91 298.55 216.71 296.4 215.61 294.04 213.9 287.77 208.78 275.04 200.61 272.81 195.55 271.55 191.9 269.48 188.7 265.4 183.62 
M 370.18 170.44 372.81 174.83 374.88 177.55 377.53 180.44 380.49 182.91 
M 365.81 171.52 370.71 177.89 373.78 180.49 378.54 185.72 
M 361.43 172.55 363.68 175.82 371.26 183.61 373.57 186.33 377.26 191.43 379.72 194.28 
M 357.01 173.44 360.87 179.26 363.25 181.55 367.43 186.38 370.04 189.78 372.08 192.82 
M 352.6 174.34 356.65 180.85 358.49 183.49 362.12 187.66 364.33 189.38 365.45 191.75 370.7 197.66 372.49 200.11 375.48 202.69 
M 348.17 175.16 350.83 178.84 355.96 187.11 357.8 189.35 359.59 190.71 360.92 192.56 362.07 194.92 363.74 196.63 365.4 198.71 
M 343.73 175.91 348.72 182.38 351.55 187.91 355.8 192.75 357.99 194.12 358.74 196.31 360.8 197.75 
M 339.29 176.66 344.39 182.94 346.21 185.93 348.16 188.17 349.75 189.68 352.69 195.28 354.32 197.78 355.57 200.28 356.66 201.1 357.49 203.26 
M 334.85 177.37 337.81 180.33 339.82 183.23 345.87 190.63 349.43 194.72 350.71 197.51 
M 330.4 178.07 335.18 184.07 336.99 186.59 338.26 188.83 340.68 191.63 342.41 194.89 344.23 196.24 345.61 197.86 
M 325.95 178.77 328.2 182.26 330.33 184.92 331.91 187.92 333.83 190.2 335.35 192.87 339.78 197.02 344.36 203.25 345.23 206.56 347.98 210.07 352.73 216.67 
M 321.49 179.35 323.84 182.92 325.4 185.57 326.69 188.28 329.9 193.3 331.72 195.85 333.56 197.99 336.28 199.57 338.2 201.03 339.7 203.46 341.06 206.85 
M 317.02 179.92 319.57 183.07 325.77 193.91 327.34 196.1 329.02 197.58 330.93 199.94 
M 312.55 180.44 315.27 183.62 317.54 188.43 318.92 190.78 322.39 195.97 326.24 201.12 327.3 203.78 328.82 206.02 331.03 208.51 333.5 210.92 335.01 214.14 
M 308.06 180.83 310.53 183.62 312.05 186.34 313.11 188.8 315.07 191.46 316.36 194.3 317.94 196.53 320.36 199.14 323.37 200.9 324.6 203.51 
M 303.58 181.22 307.67 187.3 310.23 193.01 312.25 195.28 314.33 198.49 316.23 200.88 
M 299.09 181.54 303.05 187.83 307.09 193.16 308.21 195.6 309.3 198.94 310.97 201.69 311.7 204.83 314.28 206.69 
M 294.59 181.8 298.94 188.18 306.77 198.76 307.99 202.47 307.98 205.18 
M 290.1 182.06 292.81 185.55 294.34 188.55 298.19 194.28 299.63 196.72 301.72 199.29 305.25 204.45 306.69 207.87 307.29 210.94 309.88 215.95 310.32 219.22 
M 285.6 182.3 290 189.05 292.93 194.49 293.89 197.05 297.66 202.37 
M 281.11 182.54 283.84 186.49 288.11 194.04 289.36 197.04 290.29 199.92 292.9 204.68 295.73 208.14 
M 276.61 182.8 283.76 194.19 285.89 196.61 286.72 199.31 
M 272.12 183.13 274.55 187.83 277.56 192.95 279.31 195.14 281.06 197.95 282.64 199.91 283.96 203.88 286.26 205.79 
M 398.8 129.13 401.86 128.07 404.28 126.88 406.97 125.85 409.75 124.56 414.07 122.19 416.34 120.44 417.8 118.82 420.89 117.28 426.13 114.25 432.74 109.32 436.67 106.12 440.69 104.3 446.58 103.1 448.55 101.08 450.28 98.9 455.66 94.06 461.27 92.33 464.04 91.78 465.89 91.19 468.17 89.69 469 87.13 471.18 85.37 474.11 83.28 481.22 80.22 486.95 75.17 488.16 72.89 490 72.27 483.8 85.18 483 88.16 481.34 90.27 480.45 93.16 478.58 95.06 476.12 96.38 474.79 98.79 472.77 100.51 471.06 102.55 470.28 105.51 465.54 112.12 464.36 114.76 461.97 116.17 456.96 125.65 452.68 128.95 450.69 130.74 448.44 132.27 446.53 134.16 444.18 135.62 442.09 137.33 442.46 141.17 440.4 142.85 437.9 144.16 436.26 149.12 437.69 155.93 438.56 158.19 440.96 161.52 441.04 164.06 440.7 166.4 441.56 168.42 442.57 169.97 442.76 171.89 443.97 174.84 444.76 177.6 444.77 179.58 446.07 181.44 448.28 184.09 450.18 187.04 451.13 191.21 451.12 192.14 452.66 200.51 451.81 198.9 449.22 196.46 439.03 191.59 436.28 190.06 432.5 185.68 430.36 184.27 428.11 182.28 425.94 181.61 423.66 181.3 418.21 177.7 413.43 173.31 411.99 171.57 409.42 169.72 407.23 167.71 403.94 165.87 401.54 164.25 398.8 161.69 
M 407.11 127.53 410.01 126.62 412.38 125.36 414.48 123.97 418.86 121.47 421.55 120.19 424.2 119.27 429.71 116.1 433.83 113.07 436.67 112.02 440.92 109.48 445.99 108.16 451.37 106.06 452.84 104.22 455.46 102.09 460.3 99.62 463.86 98.48 467.14 98.71 469.7 96.81 472.7 92.55 474.41 92.06 477.34 89.64 479.92 89.56 
M 398.8 132.39 402.25 131.67 404.83 130.58 407.54 129.66 415.1 126.18 417.18 125.51 424.92 122.23 427.09 121.06 431.94 118.87 435.14 118.01 437.82 116.81 439.92 114.8 441.58 113.74 444.09 111.78 446.88 110.61 449.48 110.97 451.96 109.98 456.37 107.12 459.57 106.24 
M 398.8 134.01 402.29 133.52 405.28 132.72 410.31 130.85 413.44 129.33 416.02 128.49 417.98 128.28 420.58 126.85 423.5 126.83 425.36 126.45 427.94 125.66 430.31 124.22 432.36 123.91 435.37 122.2 438.3 121.32 444.42 117.43 448.13 115.81 
M 402.28 135.33 405.31 134.55 410.5 133.5 416.52 131.18 418.95 131.05 421.69 129.89 424.58 129.86 426.75 130.36 429.22 129.58 431.67 127.68 433.92 126.72 436.52 126.19 438.63 124.92 442.38 124.38 444.53 122.68 446.51 122.03 450.07 122.06 
M 407.65 136.14 410.47 135.71 413.61 135.6 416.74 134.03 419.47 133.07 422.48 132.99 425.1 133.21 427.53 133.71 430.52 132.65 432.74 130.84 435.55 129.48 438.33 128.66 440.2 129.21 442.36 129.5 
M 402.3 138.88 407.99 137.85 410.75 137.69 414.18 137.73 416.69 137.32 419.49 136.3 426.44 136.25 
M 398.8 140.53 402.29 140.73 405.57 140.3 411.24 140.01 414.76 140.34 419.29 140.5 423.2 139.69 426.7 139.33 429.91 139.62 432.79 139.48 436.03 137.55 
M 409.38 142.7 414.91 143.11 417.09 143.46 419.56 143.42 423.85 142.91 427.4 143.52 
M 409.84 145.52 413.01 145.84 415.75 146.37 418.13 146.49 
M 410.02 147.93 415.69 148.68 419.1 150.14 421.81 150.33 425 150.25 
M 402.52 148.51 406.25 149.15 418.91 152.11 425.17 153.31 427.86 153.06 
M 410.01 151.8 415.2 153.4 418.4 153.06 421.94 153.42 424.56 155.24 427.69 155.42 
M 409.43 153.81 414.54 155.41 417.96 154.74 421.06 155.26 
M 405.52 154.89 411.55 156.86 414.25 157.41 417.04 157.72 420.67 157.68 423.38 158.85 426.43 159.82 428.82 161.4 
M 405.07 156.96 411.36 158.92 414.05 159.11 419.39 161.83 422.33 162.91 425.46 163.71 427.77 164.58 430.46 165.74 433.13 168.18 
M 404.96 158.68 408.44 159.68 411.16 160.74 413.87 161.33 418.08 165.28 424.31 167.35 426.78 168.46 430.1 169.65 432.6 171.79 435.61 172.81 
M 404.97 160.26 407.93 161.73 413.62 164.09 416.26 166.39 418.07 168.5 423.5 170.73 426.32 171.34 429.95 172.88 432.41 174.53 435.14 175.83 
M 407.94 163.7 410.87 165.21 417.19 170.22 419.65 171.43 422.7 173.42 426.16 175.19 428.32 177.22 430.68 177.82 433.34 179.25 436.55 180.31 439.1 180.91 
M 398.8 160.06 401.71 162.56 407.22 165.83 410.22 167.37 412.72 169.12 416.32 172.77 418.59 174.75 425.12 178.57 427.76 179.31 430.04 180.64 434.06 183.79 437.07 185.26 442.14 188.43 445.19 189.46 451.27 192.51 
M 35.94 136.95 38.44 134.4 40.91 132.28 44.06 130.09 47.9 127.93 56.55 123.6 67.11 118.67 72.79 116.56 78.33 114.8 83.76 113.31 88.83 112.17 93.47 111.32 97.96 110.71 102.09 110.44 105.49 110.49 107.63 110.83 109.85 114.92 111.11 122.38 112.02 126.15 112.57 129.87 112.95 133.55 113.1 140.8 111.44 147.72 109.08 154.51 107.4 157.81 106.2 161.21 103.09 167.86 101.3 171.15 99.02 174.34 95.69 177.32 88.73 177.13 83.54 176.6 78.82 175.79 74.17 174.72 69.57 173.35 65.25 171.68 61.39 169.69 51 162.09 47.98 159.14 
M 75.49 160.69 70.21 160.78 66.46 160.34 62.83 159.37 59.59 157.82 
M 44.34 155.46 36.22 144.9 33.42 141.53 32.41 139.54 33.1 137.37 35.19 136.55 37.14 137.6 41.59 145.54 45.76 154.05 48.34 158.93 
M 47.73 159.47 41.58 156.4 31.68 151.13 30 149.62 30.31 147.42 32.16 145.95 34.32 146.33 42.69 154 48.23 158.81 
M 68.9 156.55 65.16 151.32 63.33 145.16 63.59 138.74 65.93 132.75 70.09 127.85 75.61 124.56 81.9 123.24 88.27 124.03 94.05 126.86 98.59 131.4 101.42 137.17 102.21 143.55 100.89 149.84 97.6 155.36 92.7 159.52 86.71 161.85 80.29 162.12 74.13 160.29 68.9 156.55 
M 95.42 133.67 97.67 138.29 98.31 143.39 97.25 148.42 94.62 152.84 90.7 156.16 85.91 158.03 80.77 158.25 75.84 156.78 71.66 153.79 
M 76.51 147.59 75.01 145.5 74.28 143.04 74.38 140.47 75.32 138.07 76.98 136.11 79.19 134.79 81.71 134.27 84.26 134.59 86.57 135.71 88.38 137.53 89.51 139.84 89.83 142.39 89.3 144.91 87.99 147.12 86.03 148.78 83.63 149.71 81.06 149.82 78.6 149.09 76.51 147.59 
M 75.86 146.54 77.93 148.61 
M 75.59 143.84 81.55 149.8 
M 79.29 145.1 83.82 149.64 
M 78.44 141.83 85.57 148.96 
M 81 141.96 87 147.95 
M 81.03 139.55 88.21 146.74 
M 83.87 139.96 89.12 145.21 
M 81.4 135.06 89.64 143.3 
M 83.7 134.92 89.64 140.87 
M 48.13 158.52 49.98 160.38 
M 36.61 136.2 39.64 139.22 
M 39.39 133.58 42.19 136.38 
M 42.43 131.22 45.25 134.04 
M 45.76 129.14 50.13 133.51 
M 49.25 127.23 53.29 131.26 
M 52.82 125.39 55.78 128.35 
M 56.46 123.64 61.49 128.67 
M 60.12 121.89 65 126.77 
M 63.81 120.17 67.58 123.95 
M 67.54 118.51 70.97 121.94 
M 71.48 117.04 76.3 121.87 
M 75.53 115.69 78.23 118.39 
M 79.67 114.43 83.71 118.46 
M 83.92 113.27 88.99 118.34 
M 88.33 112.28 93.24 117.19 
M 92.88 111.43 96.94 115.49 
M 97.61 110.76 100.49 113.63 
M 102.71 110.45 107.95 115.7 
M 84.1 115.97 83.75 115.27 81.98 113.79 
M 106.56 126.81 107.26 126.15 108.2 124.53 108.71 123.95 111.15 122.57 
M 51.74 141.66 51.37 140.87 50.77 140.18 48.21 138.66 47.36 137.93 45.82 136.16 43.99 134.58 
M 45.36 148.08 44.71 149.52 44.68 149.97 45.5 152.17 45.82 153.7 46.14 154.12 48.36 155.74 
M 94.69 111.5 95.08 112.48 95.75 112.88 96.99 112.36 97.49 112 97.77 111.56 
M 95.4 174.97 94.7 174.61 92.64 172.51 89.44 170.31 87.87 168.26 
M 53.15 141.93 54.49 141.96 56.07 142.58 58.06 144.19 
M 68.42 119.87 67.11 119.37 66.67 118.87 
M 49.68 147.3 47.13 151.96 46.93 152.66 47.04 153.53 
M 79.95 120.67 78.94 117.95 78.27 117.04 76.55 115.37 
M 79.07 120.37 77.37 117.61 76.43 116.77 74.96 115.87 
M 51.82 130.58 51.39 129.74 52.09 127.26 51.99 126.47 51.74 125.93 
M 63.51 140.81 61.06 139.38 
M 83.4 172.9 85.82 175.62 86.58 176.26 87.97 177.05 
M 89.77 177.16 89.81 176.97 
M 43.35 147.04 42.87 148.02 
M 65.44 153.08 66.09 152.62 
M 63.88 147 63.33 146.25 
M 63.41 143.2 62.41 142.64 
M 70.74 162.24 69.2 160.97 68.84 160.49 68.91 158.36 
M 106.84 111.18 106.25 111.06 105.91 110.56 
M 75.56 173.75 77.69 173.92 80.08 174.63 80.88 175.09 81.79 176.3 
M 101.03 130.82 102.33 129.28 103.5 128.24 106.49 126.24 107.07 125.53 107.82 123.96 109.46 122.2 
M 104.44 155.77 105.13 155.27 106.03 155.04 108.84 154.97 
M 91.1 112.33 91.25 113.03 91.04 113.85 90.67 114.17 90.2 114.12 
M 99.88 152.87 100.23 152.27 100.38 150.7 
M 71.13 123.87 70.06 122.32 67.82 120.38 66.84 119.8 66.71 119.42 
M 97.52 155.59 99.94 152.82 100.26 152.22 100.39 150.68 
M 63.8 138.22 61.36 137.26 
M 104.24 136.48 104.45 137.7 
M 77.22 167.9 77.75 167.35 78.44 165.69 79.06 164.98 
M 45.86 154.24 49.28 156.46 51.75 156.92 53.01 157.38 
M 63.55 139.76 60.77 138.13 59.92 137.21 59.67 135.98 59.9 134.18 
M 73.14 159.58 72.59 160.04 71.84 160.3 70.56 160.32 69.83 160.12 69.32 159.78 68.99 158.78 
M 103.51 160.53 103.78 161.43 103.71 163.66 104.05 164.65 
M 110.07 140.78 110.3 141.33 111.16 141.66 
M 102.17 146.35 102.01 144.96 102.12 143.99 
M 102.21 143.53 102.89 141.83 104.29 139.67 104.78 139.25 105.19 139.46 
M 72.4 120.36 68.29 118.23 
M 55.35 150.02 54.76 152.46 53.89 154.18 53.86 155.17 54.24 157.53 
M 63.49 141.19 60.78 139.54 59.61 138.24 
M 101.83 140.45 102.97 138.84 103.75 137.21 
M 84.96 175.4 86.07 176.86 
M 90.07 177.17 90.07 177.07 
M 107.09 147.06 106.46 145.43 105.97 143.05 106.39 140.41 
M 56.24 143.3 57.59 144.58 58.15 144.7 58.38 144.46 
M 101.51 137.89 102.95 135.65 103.5 135.43 104.39 135.49 
M 100.16 157.37 100.53 156.7 101.62 152.9 101.65 150.69 101.16 148.55 
M 48.79 137.79 47.29 136.21 44.78 132.94 44.15 132.66 41.65 132.99 
M 88.83 167.78 88.21 167.3 87.53 165.84 86.96 165.03 
M 101.88 140.86 103.24 138.98 104.15 137.35 
M 56.12 148.17 56.37 148.96 56.26 150.66 55.34 153.2 
M 104.47 144.49 104.56 142.75 105.03 141.49 105.51 140.73 106.29 140.42 
M 51.97 146.81 51.75 148.16 50.1 151.68 50.18 153.27 50.47 153.9 
M 105.65 147.46 105.11 145.49 104.85 143.52 104.9 142.74 105.48 141.12 106.28 140.47 
M 107.8 154.15 109.21 154.13 
M 78.74 169.15 79.58 169.01 82.81 169.5 85.73 171.36 
M 108.1 139.96 106.55 140.1 106.28 140.35 
M 95.45 160.84 95.11 161.86 92.67 166.4 89.59 167.53 
M 54.19 145.45 54.36 147.48 54.23 148.57 52.89 151.53 51.75 152.55 
M 102.75 131.5 103.77 130.89 104.93 130.53 106.27 129.65 108.33 127.84 109.89 125.59 111.6 124.4 
M 46.97 153.17 47.38 154.07 48.53 155.2 49.34 155.68 52.2 156.6 53.43 157.45 
M 51.01 159.17 52.36 158.95 
M 83.5 119.61 83.98 117.36 83.91 116.52 83.24 115.05 81.79 113.85 
M 55.67 143.82 57.3 145.16 57.96 145.15 58.33 144.66 
M 100.37 163 101.49 167.15 102.51 168.94 
M 65.99 127.02 62.64 128.86 61.7 129.14 57.91 128.21 
M 101.61 170.12 101.72 170.37 
M 95.94 172.83 94.96 172.48 90.64 169.18 88.59 168.28 88.02 167.58 
M 40.46 155.82 45.22 159.62 48.18 161.69 51.32 163.64 57.94 167.28 
M 111.06 122.11 112.24 123.29 
M 108.4 112.24 115.32 119.17 
M 113.55 110.19 122.57 119.21 
M 119.95 109.39 128.06 117.5 
M 126.54 108.77 133.23 115.47 
M 133.13 108.16 142.96 117.99 
M 139.71 107.53 148.97 116.8 
M 146.25 106.87 155.37 115.99 
M 152.72 106.14 158.93 112.35 
M 159.15 105.36 167.51 113.72 
M 165.51 104.52 173.74 112.76 
M 171.91 103.71 179.11 110.92 
M 178.33 102.93 188.33 112.93 
M 184.95 102.35 193.47 110.87 
M 191.67 101.87 197.94 108.14 
M 199.09 102.08 206.27 109.26 
M 206.8 102.59 215.96 111.75 
M 215.05 103.64 222.27 110.86 
M 223.02 104.4 229.81 111.19 
M 230.79 104.97 240.65 114.83 
M 238.18 105.16 248.25 115.22 
M 245.62 105.39 253.02 112.79 
M 253.09 105.66 263.06 115.63 
M 260.6 105.97 268.9 114.26 
M 268.08 106.23 275.5 113.66 
M 275.48 106.43 285.38 116.34 
M 282.64 106.39 291.05 114.81 
M 289.71 106.26 295.61 112.15 
M 297.1 106.44 305.06 114.4 
M 304.84 106.98 314.29 116.43 
M 313.19 108.12 321.99 116.92 
M 321.93 109.67 330.84 118.57 
M 330.78 111.31 338 118.53 
M 339.69 113.02 349.98 123.3 
M 348.64 114.76 357.02 123.14 
M 357.92 116.84 365.07 123.99 
M 367.54 119.25 376.25 127.96 
M 377.5 122.01 388.21 132.72 
M 387.85 125.15 394.74 132.05 
M 400.48 130.59 408.56 138.66 
M 113 134.98 114.39 137.76 
M 112.14 126.97 112.99 128.67 
M 115.41 133.5 117.02 136.73 
M 110.14 116.67 114.98 126.34 
M 119.01 134.39 119.66 135.7 
M 110.27 110.61 117.11 124.3 
M 121.14 132.35 122.3 134.68 
M 113.23 110.23 118.47 120.7 
M 123.3 130.37 124.94 133.65 
M 116.2 109.86 117.4 112.28 
M 119.82 117.11 124.65 126.77 
M 119.16 109.49 121.17 113.51 
M 121.98 115.12 126.81 124.79 
M 122.16 109.18 122.56 109.99 
M 124.98 114.82 126.59 118.04 
M 131.42 127.71 132.9 130.67 
M 127.99 114.54 129.6 117.76 
M 131.21 120.98 132.02 122.59 
M 132.82 124.2 136.17 130.9 
M 131 114.26 133.42 119.09 
M 134.22 120.7 139.41 131.08 
M 137.24 120.42 142.07 130.09 
M 134.2 108.06 134.61 108.86 
M 141.86 123.36 142.66 124.97 
M 151.46 117.35 153.07 120.57 
M 149.2 106.54 149.61 107.34 
M 152.83 113.79 155.24 118.62 
M 156.05 120.23 157.66 123.45 
M 159.27 126.67 160.75 129.63 
M 181.82 171.78 183.43 175 
M 152.19 106.2 154.2 110.23 
M 155.01 111.84 159.84 121.51 
M 160.64 123.12 163.6 129.03 
M 155.17 105.87 157.99 111.5 
M 159.6 114.73 160.41 116.34 
M 164.43 124.39 166.44 128.4 
M 158.14 105.5 159.35 107.91 
M 168.21 125.63 169.26 127.75 
M 169.29 127.8 170.06 129.34 
M 161.09 105.1 164.72 112.35 
M 169.29 115.18 170.09 116.8 
M 170.9 118.41 174.12 124.85 
M 168.21 106.74 171.44 113.18 
M 172.24 114.79 176.27 122.85 
M 177.88 126.07 179.49 129.29 
M 169.97 103.95 171.98 107.98 
M 174.4 112.81 179.23 122.47 
M 180.04 124.08 181.65 127.3 
M 183.26 130.53 184.06 132.14 
M 186.48 136.97 187.29 138.58 
M 199.37 162.74 201.78 167.58 
M 172.94 103.59 175.76 109.23 
M 176.57 110.84 183.81 125.33 
M 184.62 126.94 191.87 141.44 
M 208.78 175.27 210.39 178.49 
M 175.91 103.23 193.23 137.86 
M 208.53 168.46 212.56 176.52 
M 178.88 102.87 197.01 139.11 
M 213.11 171.32 213.92 172.94 
M 217.14 179.38 217.95 180.99 
M 218.75 182.6 220.36 185.82 
M 181.89 102.57 189.54 117.87 
M 191.95 122.7 198.4 135.59 
M 219.34 177.47 220.95 180.69 
M 184.93 102.35 188.55 109.6 
M 192.58 117.65 200.64 133.76 
M 187.97 102.13 190.79 107.77 
M 192.4 110.99 202.07 130.32 
M 191.01 101.91 204.3 128.49 
M 205.91 131.71 206.72 133.32 
M 215.58 151.04 217.19 154.27 
M 224.44 168.76 228.47 176.82 
M 194.14 101.86 209.85 133.27 
M 218.71 150.99 219.51 152.6 
M 227.57 168.71 230.79 175.16 
M 195.55 98.39 210.45 128.19 
M 211.26 129.8 212.06 131.41 
M 225.76 158.79 227.37 162.01 
M 196.85 94.67 212.55 126.08 
M 200.14 94.96 214.64 123.96 
M 199.56 87.49 199.96 88.29 
M 203.18 94.74 208.02 104.4 
M 209.63 107.62 218.49 125.34 
M 241.84 172.06 243.45 175.28 
M 201.32 84.71 204.14 90.35 
M 205.75 93.57 215.42 112.9 
M 216.22 114.51 220.25 122.56 
M 244.41 170.89 245.22 172.5 
M 246.02 174.11 246.83 175.72 
M 203.03 81.82 211.48 98.73 
M 213.9 103.56 217.12 110.01 
M 219.54 114.84 223.57 122.89 
M 228.4 132.56 229.2 134.17 
M 231.62 139 232.42 140.61 
M 247.73 171.22 249.34 174.44 
M 204.69 78.85 213.96 97.37 
M 222.01 113.48 227.65 124.75 
M 230.87 131.2 235.7 140.86 
M 206.56 76.27 218.24 99.63 
M 222.26 107.68 231.12 125.4 
M 234.34 131.84 236.76 136.67 
M 237.57 138.29 239.18 141.51 
M 245.62 154.39 246.42 156 
M 208.47 73.8 221.76 100.38 
M 224.98 106.82 234.65 126.15 
M 237.87 132.59 241.9 140.65 
M 252.37 161.59 254.78 166.42 
M 259.62 176.09 260.42 177.7 
M 209.7 69.95 223.8 98.14 
M 227.02 104.59 238.3 127.14 
M 239.1 128.75 243.13 136.8 
M 261.65 173.85 263.26 177.07 
M 210.96 66.16 212.17 68.58 
M 212.97 70.19 226.66 97.57 
M 229.89 104.02 237.13 118.51 
M 237.94 120.13 245.99 136.23 
M 262.91 170.06 265.32 174.89 
M 212.93 63.8 239.1 116.15 
M 242.33 122.59 248.77 135.48 
M 253.6 145.14 255.21 148.37 
M 265.68 169.31 266.49 170.92 
M 215.6 62.84 216.4 64.45 
M 218.01 67.67 242.18 115.99 
M 246.2 124.05 251.04 133.71 
M 217.8 60.94 218.21 61.75 
M 225.45 76.24 229.48 84.3 
M 231.09 87.52 245.59 116.51 
M 248.01 121.35 251.23 127.79 
M 252.03 129.4 255.25 135.84 
M 220.47 59.97 224.09 67.22 
M 232.95 84.94 233.76 86.55 
M 234.56 88.16 240.2 99.43 
M 241.01 101.05 241.81 102.66 
M 242.62 104.27 249.06 117.15 
M 250.67 120.37 257.11 133.26 
M 272.42 163.87 273.22 165.48 
M 223.14 59.01 225.15 63.03 
M 226.76 66.25 227.57 67.87 
M 230.79 74.31 231.6 75.92 
M 237.23 87.19 244.48 101.69 
M 245.29 103.3 260.59 133.91 
M 225.44 57.31 227.46 61.34 
M 229.87 66.17 233.1 72.62 
M 235.51 77.45 237.12 80.67 
M 240.34 87.11 257.26 120.94 
M 258.87 124.16 262.9 132.22 
M 268.53 143.49 273.37 153.16 
M 227.73 55.58 229.74 59.6 
M 232.16 64.44 235.38 70.88 
M 237.79 75.71 239.41 78.93 
M 244.24 88.6 258.74 117.59 
M 261.96 124.04 274.04 148.2 
M 276.45 153.03 278.06 156.25 
M 229.89 53.6 242.37 78.57 
M 244.79 83.4 245.6 85.01 
M 246.4 86.62 260.9 115.62 
M 264.93 123.67 274.59 143 
M 279.42 152.66 281.84 157.5 
M 231.89 51.29 234.71 56.93 
M 235.51 58.54 244.37 76.26 
M 250.82 89.15 262.9 113.31 
M 266.92 121.36 270.95 129.42 
M 271.76 131.03 275.78 139.08 
M 282.23 151.97 286.25 160.02 
M 234.02 49.26 236.04 53.28 
M 239.26 59.73 248.12 77.44 
M 253.75 88.72 268.25 117.71 
M 269.86 120.94 271.47 124.16 
M 274.69 130.6 277.11 135.43 
M 285.16 151.54 289.19 159.6 
M 236.43 47.76 239.24 53.4 
M 240.05 55.01 241.66 58.23 
M 242.47 59.84 243.27 61.45 
M 247.3 69.51 251.33 77.56 
M 256.96 88.84 271.46 117.83 
M 273.07 121.05 273.88 122.66 
M 276.29 127.5 278.71 132.33 
M 289.18 153.27 292.4 159.71 
M 238.56 45.72 241.37 51.35 
M 242.18 52.96 244.6 57.8 
M 246.21 61.02 253.46 75.52 
M 254.26 77.13 255.87 80.35 
M 257.48 83.57 266.34 101.29 
M 268.76 106.12 271.17 110.95 
M 271.98 112.56 274.4 117.4 
M 275.2 119.01 281.64 131.89 
M 288.09 144.78 290.5 149.61 
M 241.02 44.33 244.64 51.58 
M 245.45 53.19 255.11 72.52 
M 256.72 75.74 268.8 99.91 
M 271.22 104.74 273.63 109.57 
M 274.44 111.18 285.72 133.73 
M 290.55 143.4 291.35 145.01 
M 243.67 43.34 246.62 49.24 
M 261.86 79.71 265.35 86.71 
M 266.5 88.99 270.12 96.24 
M 274.15 104.29 285.42 126.85 
M 286.23 128.46 289.45 134.9 
M 294.28 144.56 295.09 146.17 
M 271.42 92.54 273.44 96.57 
M 279.88 109.45 285.52 120.73 
M 288.74 127.17 292.77 135.23 
M 295.18 140.06 300.01 149.72 
M 284.33 112.06 286.75 116.89 
M 291.58 126.56 292.39 128.17 
M 293.19 129.78 298.83 141.06 
M 299.64 142.67 308.5 160.39 
M 284.55 106.19 285.36 107.8 
M 299.05 135.19 303.08 143.24 
M 307.91 152.91 311.13 159.35 
M 302.1 134.99 303.71 138.21 
M 310.15 151.09 312.57 155.93 
M 305.8 136.09 307.41 139.31 
M 312.25 148.97 313.86 152.19 
M 294.5 107.17 298.52 115.23 
M 304.97 128.11 305.77 129.72 
M 308.99 136.17 309.8 137.78 
M 314.63 147.44 317.05 152.28 
M 297.29 106.45 300.91 113.7 
M 301.72 115.31 305.74 123.36 
M 310.58 133.03 313.8 139.47 
M 315.41 142.69 319.43 150.75 
M 325.88 163.63 326.68 165.24 
M 300.48 106.53 309.74 125.05 
M 311.35 128.28 312.16 129.89 
M 312.96 131.5 314.57 134.72 
M 315.38 136.33 316.18 137.94 
M 318.6 142.77 321.02 147.6 
M 303.78 106.84 305.8 110.86 
M 308.21 115.7 315.46 130.19 
M 317.88 135.02 322.71 144.69 
M 310.79 114.55 314.82 122.6 
M 315.62 124.21 318.84 130.66 
M 320.46 133.88 321.26 135.49 
M 322.87 138.71 326.9 146.76 
M 319.81 126.29 320.62 127.9 
M 323.84 134.34 324.64 135.95 
M 326.26 139.17 328.67 144.01 
M 313.93 108.23 317.56 115.48 
M 325.61 131.58 327.22 134.8 
M 330.44 141.25 332.05 144.47 
M 317.4 108.85 320.22 114.49 
M 321.02 116.1 323.44 120.93 
M 333.91 141.87 334.71 143.48 
M 320.86 109.47 322.87 113.5 
M 323.68 115.11 327.71 123.16 
M 330.12 128 330.93 129.61 
M 343.01 153.77 346.23 160.21 
M 324.32 110.1 336 133.45 
M 346.47 154.39 348.08 157.61 
M 352.11 165.67 354.53 170.5 
M 327.8 110.74 337.86 130.88 
M 352.36 159.87 356.39 167.92 
M 331.28 111.41 340.54 129.93 
M 356.65 162.15 358.26 165.37 
M 360.68 170.2 361.45 171.74 
M 334.77 112.07 342.42 127.37 
M 362.55 167.64 364.63 171.81 
M 338.25 112.74 344.29 124.82 
M 341.74 113.42 346.98 123.89 
M 345.23 114.1 350.47 124.57 
M 359.33 142.29 360.94 145.51 
M 361.74 147.12 362.55 148.73 
M 368.19 160 372.21 168.06 
M 348.72 114.78 353.15 123.64 
M 362.01 141.35 363.62 144.58 
M 370.87 159.07 374.09 165.52 
M 352.25 115.53 355.88 122.78 
M 369.57 150.17 371.18 153.39 
M 355.82 116.35 356.22 117.16 
M 368.19 128.49 368.99 130.1 
M 380.27 152.65 381.08 154.26 
M 385.91 163.93 386.84 165.8 
M 387.13 160.08 389.53 164.88 
M 371.44 122.39 373.05 125.62 
M 374.67 128.84 376.28 132.06 
M 389.97 159.44 392.22 163.95 
M 374.28 121.76 379.92 133.04 
M 386.36 145.92 387.17 147.54 
M 377.57 122.03 380.38 127.67 
M 381.19 129.28 382.8 132.5 
M 389.24 145.39 390.85 148.61 
M 381.26 123.13 385.69 131.99 
M 396.16 152.93 398.58 157.76 
M 384.96 124.22 387.78 129.86 
M 398.25 150.8 400.67 155.63 
M 388.74 125.48 389.95 127.9 
M 390.76 129.51 391.56 131.12 
M 392.59 126.88 393 127.68 
M 397.02 135.74 398.64 138.96 
M 218.18 291.39 213.89 297.7 
M 218.18 291.39 218.69 297.7 
M 215.42 295.6 218.42 295.6 
M 221.45 293.5 220.19 297.7 
M 220.91 295.3 221.48 294.39 222.26 293.8 222.95 293.5 223.85 293.5 
M 225.98 291.39 224.09 297.7 
M 228.08 291.39 228.29 291.7 228.68 291.39 228.47 291.1 228.08 291.39 
M 227.75 293.5 226.49 297.7 
M 232.88 294.39 232.76 293.8 231.95 293.5 231.05 293.5 230.06 293.8 229.58 294.39 229.7 295 230.21 295.3 231.62 295.6 232.13 295.89 232.16 296.8 231.68 297.39 230.69 297.7 229.79 297.7 228.98 297.39 228.86 296.8 
M 235.25 293.5 233.99 297.7 
M 234.71 295.3 235.28 294.39 236.06 293.8 236.75 293.5 237.65 293.5 
M 238.55 293.5 239.09 297.7 
M 242.15 293.5 238.13 298.89 237.35 299.5 236.36 299.8 
M 246.68 294.39 246.56 293.8 245.75 293.5 244.85 293.5 243.86 293.8 243.38 294.39 243.5 295 244.01 295.3 245.42 295.6 245.93 295.89 246.05 296.5 245.48 297.39 244.49 297.7 243.59 297.7 242.78 297.39 242.66 296.8 
M 252.05 293.5 250.79 297.7 
M 251.51 295.3 252.08 294.39 252.86 293.8 253.55 293.5 254.45 293.5 
M 256.58 291.39 254.69 297.7 
M 255.59 294.7 256.76 293.8 257.45 293.5 258.35 293.5 258.86 293.8 258.89 294.7 257.99 297.7 
M 262.85 293.5 262.15 293.8 261.38 294.39 260.81 295.3 260.63 295.89 260.65 296.8 261.08 297.39 261.59 297.7 262.49 297.7 263.18 297.39 263.96 296.8 264.52 295.89 264.71 295.3 264.68 294.39 264.26 293.8 263.75 293.5 262.85 293.5 
M 267.35 293.5 266.08 297.7 
M 266.99 294.7 268.16 293.8 268.85 293.5 269.75 293.5 270.26 293.8 270.29 294.7 269.39 297.7 
M 270.29 294.7 271.45 293.8 272.14 293.5 273.05 293.5 273.56 293.8 273.58 294.7 272.69 297.7 
M 277.27 291.39 275.75 296.5 275.77 297.39 276.29 297.7 276.89 297.7 
M 275.75 293.5 277.85 293.5 
M 280.27 291.39 280.49 291.7 280.88 291.39 280.67 291.1 280.27 291.39 
M 279.95 293.5 278.69 297.7 
M 284.77 291.39 284.18 291.39 283.49 291.7 282.92 292.6 281.39 297.7 
M 281.75 293.5 283.85 293.5 
M 287.14 293.5 286.45 293.8 285.68 294.39 285.11 295.3 284.93 295.89 284.95 296.8 285.38 297.39 285.89 297.7 286.79 297.7 287.48 297.39 288.26 296.8 288.83 295.89 289.01 295.3 288.98 294.39 288.56 293.8 288.05 293.5 287.14 293.5 
M 291.64 293.5 290.39 297.7 
M 291.11 295.3 291.68 294.39 292.45 293.8 293.14 293.5 294.05 293.5 
M 295.55 293.5 294.29 297.7 
M 295.01 295.3 295.58 294.39 296.36 293.8 297.05 293.5 297.95 293.5 
M 299.77 291.39 299.99 291.7 300.38 291.39 300.17 291.1 299.77 291.39 
M 299.45 293.5 298.19 297.7 
M 302.18 291.39 302.39 291.7 302.77 291.39 302.57 291.1 302.18 291.39 
M 301.85 293.5 300.58 297.7 
M 303.47 297.1 303.08 297.39 303.29 297.7 303.68 297.39 303.47 297.1 
"/></svg>
