<svg xmlns="http://www.w3.org/2000/svg" width="520" height="320"><rect x="0" y="0" width="520" height="320" fill="floralwhite"/><rect x="10" y="10" width="500" height="300" stroke="black" stroke-width="1" fill="none"/><path stroke="black" stroke-width="1" fill="none" stroke-linecap="round" stroke-linejoin="round" d="
M 131.58 110.13 143.23 108.63 154.9 107.33 166.57 106.51 178.24 106.43 224.93 107.75 248.28 108.66 259.95 108.69 271.62 108.52 283.29 108.99 294.97 110.54 318.31 114.8 341.66 117.99 353.33 119.76 376.67 123.47 388.34 125.52 400.02 128.09 411.69 131.58 412.64 132.35 
M 412.64 161.16 411.69 161.85 400.02 165.28 388.34 168.05 376.67 170.52 365 172.66 353.33 174.28 329.98 176.52 318.31 178.34 294.97 183.42 283.29 185.17 271.62 185.7 259.95 185.58 248.28 185.84 224.93 186.77 201.59 187.39 189.92 187.87 178.24 187.96 166.57 187.3 154.9 186 119.89 181.44 
M 135.81 152.71 137.13 149.85 137.13 144.89 
M 131.18 172.08 130.56 171.66 
M 138.59 141.16 140.83 138.48 144.36 131.04 144.36 126.44 140.83 119 135.35 112.43 131.58 110.17 
M 139.66 152.38 138.63 151.54 
M 143.1 131.28 146.75 129.87 153.18 124.88 157.33 119.24 157.33 115.75 153.18 110.1 150.27 107.85 
M 136.78 114.45 149.91 113.34 
M 137.92 117.11 149.51 117.53 
M 141.31 120.55 150.16 121.81 
M 160.21 150.56 157.05 144.02 151.28 137.24 146.78 134.6 
M 152.26 116.1 156.36 114.74 161.6 111.27 164.98 107.33 164.98 106.63 
M 161.98 150.36 165.42 146.12 168.72 139 168.72 134.59 165.42 127.47 160.31 121.18 156.32 118.72 
M 152.58 133.11 162.57 131.09 
M 152.19 137.21 162.91 136.5 
M 154.42 140.9 162.8 142.4 
M 166.61 138.65 171.14 136.82 176.95 132.11 180.69 126.79 180.69 123.49 176.95 118.16 171.14 113.45 166.61 111.62 
M 161.86 122.14 173.99 121.28 
M 162.12 124.99 173.46 125.29 
M 162.56 128.19 173.91 128.97 
M 178.01 149.25 173.32 143.6 169.29 141.17 
M 179.35 123.53 181.22 122.84 185.95 119.36 188.99 115.42 188.99 112.98 185.95 109.04 182.56 106.55 
M 189.06 149.1 190.69 145.39 190.69 141.48 187.93 135.17 183.65 129.59 180.3 127.42 
M 176.71 140.3 185.23 138.39 
M 177.15 143.08 186.05 143.6 
M 177.17 146.38 185.81 148.67 
M 188.64 142.19 192.51 140.48 197.46 136.09 200.65 131.12 200.65 128.05 197.46 123.08 192.51 118.69 188.64 116.98 
M 194.58 148.96 192.7 146.55 189.14 144.28 
M 199.51 125.63 201.32 124.91 205.21 121.8 207.72 118.28 207.72 116.09 205.21 112.57 201.32 109.46 198.27 108.25 
M 194.98 115.48 203.38 114.89 
M 195.32 117.03 203.17 116.72 
M 195.23 118.69 202.97 119.93 
M 205.56 149.71 207.2 145.4 207.2 141.62 204.88 135.53 201.28 130.14 199.51 128.82 
M 195.58 140.63 202.73 139.33 
M 195.44 143.45 203.38 143.04 
M 195.92 146.25 203.38 147.77 
M 206.51 175.25 206.23 174.4 
M 207.43 142.52 210.86 140.87 215.24 136.64 218.07 131.85 218.07 128.89 215.24 124.1 210.86 119.87 207.43 118.22 
M 210.38 175.16 211.12 174.21 
M 212.76 149.95 210.46 146.84 207.18 144.62 
M 216.95 126.16 219.25 125.14 222.8 121.99 225.08 118.43 225.08 116.22 222.8 112.66 219.25 109.51 216.49 108.28 
M 223.09 150.72 225.18 145.3 225.18 141.6 222.88 135.64 219.3 130.37 217.06 128.72 
M 222.99 174.95 222.12 172.15 
M 225.33 142.12 228.64 140.49 232.89 136.32 235.63 131.61 235.63 128.68 232.89 123.97 228.64 119.8 225.33 118.17 
M 225.17 174.91 227.44 173.4 230.34 169.54 
M 230.98 150.92 227.44 146.21 224.23 144.07 
M 233.87 125.64 236.58 124.4 240.06 121.23 242.3 117.63 242.3 115.41 240.06 111.81 236.58 108.63 235.68 108.22 
M 240.74 150.88 243.09 145.07 243.09 141.51 240.79 135.76 237.23 130.68 234.45 128.7 
M 238.66 174.57 238.66 172.66 236.74 166.96 
M 243 141.61 246.22 139.99 250.34 135.84 253 131.13 253 128.22 250.34 123.52 246.22 119.36 243 117.74 
M 240.05 127.19 247.97 126.38 
M 239.49 129.62 248.51 129.67 
M 240.37 131.81 248.53 133.07 
M 241.45 173.82 244.58 171.79 248.6 166.56 250.89 161.32 
M 249.57 153.27 248.6 151.07 244.58 145.84 242.26 144.34 
M 246.16 162.92 246.39 162.94 
M 237.42 174.61 236.65 174.06 
M 251.57 125.17 254.12 123.98 257.6 120.72 259.84 117.03 259.84 114.75 257.6 111.06 255.05 108.68 
M 255.54 154.53 258.03 150.59 260.11 144.8 260.11 141.22 258.03 135.44 254.81 130.33 252.3 128.34 
M 256.41 174.11 256.41 172.54 254.29 166.75 251 161.64 250.67 161.39 
M 259.61 139.05 262.77 137.55 266.82 133.7 269.43 129.35 269.43 126.66 266.82 122.3 262.77 118.46 259.61 116.96 
M 255.15 168.11 258.2 166.18 262.09 161.22 264.6 155.61 264.6 152.14 262.09 146.53 258.2 141.57 255.15 139.64 
M 255.86 174.12 255.65 173.82 
M 268.8 123.2 271.61 122.1 275.2 119.29 277.51 116.1 277.51 114.13 275.2 110.94 272.14 108.54 
M 265.67 113.74 273.24 112.55 
M 265.85 114.73 273.17 115.18 
M 266.37 116.33 273.25 117.57 
M 265.93 150.05 268.44 148.41 271.65 144.22 273.72 139.46 273.72 136.52 271.65 131.76 268.44 127.56 265.93 125.92 
M 255.84 174.12 256.5 173.58 259.76 168.18 261.87 162.06 261.87 158.27 261.11 156.08 
M 260.6 154.59 259.76 152.15 256.5 146.75 253.95 144.64 
M 276.47 136.58 279.88 135.23 284.25 131.76 287.06 127.83 287.06 125.4 284.25 121.48 279.88 118.01 276.68 116.74 
M 272.97 125.06 282 123.84 
M 273.56 126.67 282.11 126.39 
M 273.52 129 282.24 129.25 
M 268.78 162.64 272.46 160.77 277.18 155.97 280.22 150.53 280.22 147.16 277.18 141.73 272.46 136.93 268.78 135.05 
M 274.22 174.04 272.14 169.32 267.29 163.08 263.51 160.64 
M 287.46 123.6 290.34 122.54 294.02 119.8 296.4 116.71 296.4 114.79 294.02 111.69 291.92 110.14 
M 284.27 114.45 292.27 113.56 
M 284.32 115.35 291.65 115.93 
M 284.32 117.51 292.08 118.3 
M 283.7 149.46 286.88 147.85 290.94 143.73 293.56 139.07 293.56 136.18 290.94 131.52 286.88 127.41 283.7 125.8 
M 274.14 173.99 275.59 173.22 280.76 167.74 284.1 161.52 284.1 157.68 280.76 151.47 279.13 149.74 
M 295.81 138.88 299.42 137.4 304.03 133.63 307.01 129.35 307.01 126.7 304.03 122.43 299.42 118.65 295.81 117.18 
M 291.04 167.97 295.51 166.01 301.24 160.99 304.93 155.3 304.93 151.78 301.24 146.09 295.51 141.07 292.62 139.8 
M 294.32 172.55 291.1 169.52 286.3 167.26 
M 305.94 125.16 308.55 123.96 312.02 120.79 314.25 117.2 314.25 114.97 313.62 113.96 
M 303.35 114.08 309.02 113.14 
M 303.57 116.35 310.29 116.11 
M 303.42 117.69 309.95 118.9 
M 306.24 157.25 309.5 155.26 313.67 150.18 316.35 144.42 316.35 140.86 313.67 135.1 309.5 130.02 306.24 128.04 
M 302.78 139.63 311.86 137.87 
M 302.9 142.77 311.11 142.42 
M 302.86 145.2 311.84 146.6 
M 314.65 169.38 312.8 166.28 307.12 160.88 302.68 158.77 
M 298.81 171.6 309.63 169.23 
M 314.82 141.52 318.32 139.83 322.79 135.49 325.68 130.58 325.68 127.54 322.79 122.63 318.32 118.29 314.82 116.59 
M 323.95 168.18 327.41 161.78 327.41 157.88 324.03 151.57 318.8 146.01 314.71 143.83 
M 310.97 156.5 321.64 154.91 
M 311.14 159.9 321.21 160.05 
M 310.89 163.4 321.53 164.28 
M 323.19 123.46 324.99 122.61 328.62 119.17 330.28 116.41 
M 319.69 115.73 326.64 116.6 
M 326.2 158.79 327.89 157.48 331.55 151.82 333.9 145.42 333.9 141.45 331.55 135.04 327.89 129.39 325.04 127.18 
M 322.3 140.42 329.62 138.76 
M 322.24 143.44 329.77 143.34 
M 321.97 146.9 329.5 148.18 
M 330.37 167.47 327.97 163.74 324.89 161.35 
M 333.07 141.92 336.54 140.2 340.98 135.79 343.85 130.79 343.85 127.69 340.98 122.69 336.54 118.28 333.74 116.89 
M 342.65 166.7 344.3 162.83 344.3 158.74 341.47 152.13 337.08 146.3 333.66 144.02 
M 342.13 125.45 345.18 124.19 349.09 120.97 350.25 119.29 
M 343.29 158.37 345.79 156.52 349.4 151.18 351.72 145.13 351.72 141.39 349.4 135.34 345.79 130.01 342.98 127.92 
M 340.6 140.18 347.8 138.21 
M 340.58 143.4 347.7 143.69 
M 340.11 146.4 347.36 148.04 
M 346.84 166.46 344.4 162.05 343.29 161.04 
M 351.92 142.19 355.38 140.55 359.8 136.34 362.65 131.57 362.65 128.61 359.8 123.84 355.94 120.17 
M 348.43 127.89 357.81 126.6 
M 349.04 129.97 357.05 130.39 
M 348.71 132.25 357.64 133.59 
M 360.29 165.44 361.61 162.32 361.61 158.3 358.87 151.8 354.63 146.07 351.32 143.83 
M 348.16 157.03 357.12 155.35 
M 347.92 160.32 356.66 160.08 
M 347.74 163.91 356.72 165.13 
M 361.63 126.19 364.15 125.11 367.75 122.04 
M 361.27 158.38 364.07 156.36 367.67 151.17 369.99 145.3 369.99 141.67 367.67 135.79 364.07 130.61 361.63 128.84 
M 364.02 165.09 362.06 161.62 360.63 160.36 
M 360.63 160.36 359.32 159.21 
M 370.08 142.15 373.42 140.52 377.68 136.35 380.44 131.63 380.44 128.7 377.68 123.98 377.26 123.57 
M 366.48 127.34 375.37 126.73 
M 367.13 129.94 375.41 130.06 
M 367.22 132.58 375.2 133.9 
M 378.97 163.11 379.44 162 379.44 158.03 376.71 151.61 372.47 145.95 370.68 144.76 
M 378.89 125.58 381.52 124.32 
M 379.13 158.2 381.84 156.17 385.32 150.95 387.56 145.05 387.56 141.4 385.32 135.49 381.84 130.28 379.45 128.49 
M 380.6 162.86 379.68 161.28 378.46 160.25 
M 387.66 141.58 390.94 139.95 395.14 135.78 397.85 131.05 397.85 128.13 397.51 127.54 
M 384.03 126.85 391.24 126.16 
M 384.61 129.33 392.77 129.44 
M 384.23 132.25 393.01 133.2 
M 396.99 160.21 396.99 157.59 394.29 151.22 390.11 145.59 386.85 143.4 
M 396.19 157.09 398.9 155.05 402.36 149.82 404.59 143.9 404.59 140.24 402.36 134.32 398.9 129.09 396.88 127.56 
M 396.25 160.34 395.18 159.4 
M 405.23 140.89 408.51 139.27 412.64 135.2 
M 412.64 152.68 411.63 150.33 407.41 144.73 404.12 142.55 
M 411.8 157.26 411.22 156.78 
M 138.68 180.19 134.17 174.09 131.18 172.08 
M 135.29 176.81 144.07 179.16 
M 157.74 182.36 155.07 178.88 151.24 176.38 
M 164.98 106.63 164.98 106.63 
M 169.98 183.45 171.08 180.24 171.08 178.1 
M 187.24 183.83 188.44 180.31 188.44 178.44 
M 206.4 183.25 207.06 181.24 207.06 176.92 206.51 175.25 
M 207.18 177.33 210.38 175.16 
M 222.34 182.88 223.25 179.94 223.25 175.77 222.99 174.95 
M 224.23 175.54 225.17 174.91 
M 227.17 182.75 224.87 179.4 222.5 177.68 
M 236.68 182.44 238.66 176.59 238.66 174.57 
M 243.6 182.16 243.26 181.33 239.55 176.1 237.42 174.61 
M 255.05 108.68 255.05 108.68 
M 254.31 181.85 256.41 176.12 256.41 174.11 
M 258.62 181.77 258.62 180.91 256.13 174.52 255.86 174.12 
M 253.95 175.69 255.84 174.12 
M 291.92 110.14 291.92 110.14 
M 277.86 181.58 276.88 179.98 274.14 177.74 
M 281.94 180.28 293.83 178.92 
M 313.62 113.96 313.62 113.96 
M 299.13 177.66 303.14 178.15 
M 314.71 175.82 318.8 173.65 323.95 168.18 
M 333.14 173.24 331.9 169.86 330.37 167.47 
M 357.2 171.07 358.87 168.81 360.29 165.44 
M 367.75 122.04 367.75 122.04 
M 366.23 169.9 365.56 167.8 364.02 165.09 
M 376.83 168.14 378.97 163.11 
M 383 166.95 380.6 162.86 
M 395.81 164.32 396.99 161.54 396.99 160.21 
M 398.95 163.65 397.86 161.73 396.25 160.34 
M 164.89 106.21 166.58 106.52 
M 179.12 106.15 186.42 77 187.35 77.19 182.51 106.55 
M 193.34 106.53 206.32 56.26 207.24 56.47 196.73 106.97 
M 207.55 106.9 223.84 45.25 224.76 45.47 210.95 107.34 
M 221.77 107.27 240.73 39.96 241.64 40.2 225.16 107.76 
M 235.98 107.85 254.13 45.99 255.05 46.24 239.37 108.36 
M 250.18 108.24 266.77 49.15 267.68 49.39 253.58 108.68 
M 264.4 108.17 279.82 55.03 280.74 55.28 267.81 108.58 
M 278.65 108.32 295.71 62.17 296.61 62.48 282.03 108.94 
M 292.83 109.77 308.97 76.74 309.84 77.13 296.11 110.75 
M 305.12 111.94 306.64 112.71 
M 167.27 106.51 172.28 101.38 174.69 98.65 176.93 95.82 178.99 92.85 182.57 86.54 185.69 79.92 
M 186.86 80.16 191.77 76.81 194.1 75.01 196.28 73.06 198.29 70.97 201.86 66.32 205.02 61.29 
M 206.18 61.56 210.4 60.33 214.31 58.63 216.09 57.5 217.75 56.18 219.3 54.7 222.21 51.41 
M 223.37 51.69 227.18 51.74 230.82 51.24 232.54 50.69 234.18 49.92 235.77 48.96 238.83 46.69 
M 239.99 46.99 242.25 49.27 243.46 50.23 244.74 51.02 246.11 51.59 249.11 52.15 252.32 52.18 
M 253.47 52.49 255.79 54.25 258.24 55.46 259.53 55.74 260.87 55.81 262.26 55.68 265.11 55.06 
M 266.26 55.36 268.47 57.6 269.64 58.54 270.89 59.3 272.22 59.86 275.14 60.36 278.28 60.35 
M 279.43 60.65 282.2 63.14 285.19 65.1 286.81 65.78 288.51 66.25 290.3 66.55 294.01 66.78 
M 295.14 67.17 296.97 70.87 298.02 72.59 299.22 74.18 300.57 75.61 303.76 78.02 307.36 80.04 
M 308.45 80.53 306.71 87.53 306.03 91.05 305.55 94.58 305.29 98.12 305.41 105.26 306.11 112.44 
M 189.34 78.51 194.1 75.01 196.28 73.06 198.29 70.97 200.15 68.72 203.47 63.83 
M 189.01 85.09 192.65 82.4 194.32 80.91 197.29 77.58 199.84 73.84 
M 188.67 91.67 192.36 88.76 194.43 86.44 196.2 83.84 
M 208.31 60.98 212.4 59.56 214.31 58.63 216.09 57.5 217.75 56.18 220.78 53.09 
M 207.44 67.44 210.96 66.22 212.6 65.41 215.56 63.31 218.16 60.65 
M 206.57 73.89 209.52 72.87 210.89 72.2 213.37 70.44 215.55 68.21 
M 205.7 80.35 208.08 79.53 209.18 78.99 211.18 77.57 212.93 75.78 
M 204.84 86.81 206.64 86.19 208.26 85.28 210.32 83.34 
M 225.29 51.75 229.03 51.59 230.82 51.24 232.54 50.69 234.18 49.92 237.31 47.86 
M 224.24 58.26 227.55 58.11 230.64 57.32 232.1 56.64 234.86 54.82 
M 223.19 64.76 226.06 64.63 227.43 64.37 230.01 63.35 232.41 61.78 
M 222.15 71.27 224.58 71.16 225.74 70.93 227.93 70.07 229.96 68.73 
M 221.1 77.77 224.05 77.5 225.84 76.79 227.51 75.69 
M 220.05 84.27 222.36 84.06 223.76 83.51 225.06 82.65 
M 241.11 48.16 243.46 50.23 244.74 51.02 246.11 51.59 247.57 51.96 250.7 52.2 
M 239.87 55.14 241.95 56.97 243.08 57.66 245.58 58.5 248.34 58.71 
M 238.64 62.13 240.44 63.71 241.43 64.31 243.59 65.04 245.99 65.22 
M 237.4 69.11 238.93 70.45 240.66 71.33 241.6 71.57 243.63 71.73 
M 236.17 76.09 238.11 77.61 239.61 78.11 241.28 78.24 
M 234.93 83.07 236.45 84.26 237.62 84.65 238.93 84.75 
M 254.62 53.41 256.99 54.95 258.24 55.46 259.53 55.74 260.87 55.81 263.67 55.41 
M 253.47 59.83 255.56 61.2 256.66 61.64 258.99 61.95 261.46 61.6 
M 252.31 66.26 254.13 67.44 255.09 67.83 257.11 68.1 259.25 67.79 
M 251.16 72.68 252.7 73.69 253.51 74.02 255.22 74.24 257.04 73.99 
M 250.01 79.11 251.93 80.2 253.34 80.39 254.83 80.18 
M 248.85 85.54 250.36 86.39 251.46 86.54 252.62 86.37 
M 267.35 56.51 269.64 58.54 270.89 59.3 272.22 59.86 273.64 60.2 276.7 60.39 
M 266.17 63.81 268.14 65.55 270.36 66.69 271.59 66.98 274.21 67.15 
M 265 71.11 266.64 72.57 267.54 73.12 269.53 73.76 271.72 73.9 
M 263.82 78.41 265.15 79.58 265.87 80.02 267.47 80.54 269.24 80.66 
M 262.64 85.7 264.2 86.93 265.41 87.33 266.75 87.41 
M 280.8 61.93 283.65 64.21 285.19 65.1 286.81 65.78 288.51 66.25 292.14 66.7 
M 279.73 68.49 282.18 70.44 283.5 71.21 286.36 72.2 289.48 72.59 
M 278.66 75.04 280.71 76.68 281.82 77.32 284.21 78.15 286.82 78.47 
M 277.59 81.59 279.25 82.91 280.13 83.43 282.06 84.1 284.16 84.36 
M 276.52 88.14 277.78 89.15 279.16 89.84 281.51 90.24 
M 296.03 69.05 298.02 72.59 299.22 74.18 300.57 75.61 302.09 76.88 305.53 79.06 
M 294 78.53 295.52 81.24 296.44 82.46 298.65 84.53 301.28 86.2 
M 291.97 88 293.03 89.89 294.39 91.5 297.03 93.34 
M 135.53 152.73 142.98 151.94 151.76 151.48 166.37 149.9 174.74 149.75 177.65 149.26 180.36 149.18 183.34 149.17 186.25 149.39 192 148.82 203.48 149.47 206.61 149.83 209.51 149.74 212.37 149.85 215.37 150.64 220.54 150.52 223.85 150.78 226.48 150.61 234.71 151.1 238.26 150.7 241.45 150.94 243.85 152.01 246.95 152.94 249.54 153.27 252.53 154.22 255.12 154.53 260.99 154.6 264.12 154.36 253.07 160.71 250.3 161.49 242.45 164.28 237.47 166.56 235.08 167.89 232.35 168.89 226.68 170.59 221.4 172.38 215.92 173.91 212.99 174.23 206.62 174.37 200.66 175.07 197.97 175.78 193.08 177.63 190.28 177.97 185.3 179.28 182.55 179.68 176.73 178.8 164.96 177.38 162.35 177.52 159.11 177.03 150.12 176.28 146.44 176.41 136.91 174.61 132.43 172.24 130.81 171.16 
M 135.15 154.42 140.15 154.29 143.02 153.93 146.1 153.84 151.87 153.99 154.69 153.87 164.04 152.59 171.65 152.85 177.14 153.3 180.1 152.98 185.91 153.06 194.98 153.66 200.66 153.61 203.7 153.94 206.69 154.8 210.12 155.04 215.63 155.99 218.15 156.23 220.93 156.96 
M 134.73 156.12 140.23 156.25 143.07 155.95 146.24 155.95 151.92 156.44 154.7 156.49 164.07 155.46 166.72 155.59 174.51 156.64 180.07 156.5 182.96 156.73 186.06 156.73 192.69 157.93 204.4 159.36 207.22 160.12 213.22 161.02 
M 137.37 158.02 146.07 158.13 151.97 158.82 161.17 158.54 163.95 158.73 166.91 158.73 169.58 159.35 171.88 160.1 174.83 160.29 177.69 160.21 180.63 159.9 183.43 160.26 193.15 161.56 198.93 163.01 201.5 164.19 204.16 164.81 206.84 165.81 209.99 166.23 213.11 166.99 217.38 168.34 220.04 168.63 223.02 169.34 225.79 169.54 
M 134.49 159.6 146 160.33 152.12 161.06 154.95 161.18 161.06 161.05 166.7 161.88 172.15 163.93 175.07 164.52 178.02 164.38 181.03 163.79 183.58 164.22 186.27 165.18 189.54 165.75 192.8 166.04 195.76 166.78 
M 134.32 161.37 146.03 162.65 148.99 163.31 155.11 163.96 157.93 163.92 163.56 164.27 166.2 165.15 169.13 166.45 171.99 167.45 175.08 168.02 178.16 167.89 180.52 168.5 183.17 168.94 186.58 169.89 189.76 170.49 192.34 171.67 195.2 172.72 197.21 173.27 
M 133.93 163.17 140.06 163.91 145.75 165.09 155.12 166.66 157.72 166.67 160.48 167.06 163.2 167.69 166.14 169.01 
M 133.53 164.79 139.93 165.93 145.63 167.43 148.62 167.89 152.1 168.69 157.74 169.54 166.34 172.89 169.06 173.64 172.25 173.7 177.93 176.4 
M 132.95 166.37 140.05 168 145.39 169.69 148.88 170.23 151.88 171.12 154.96 171.79 160.28 174.08 163.13 175.62 165.83 176.62 168.64 177.17 
M 132.4 167.87 134.71 168.46 137.61 169.45 145.44 172.55 
M 131.81 169.49 135.08 170.63 
M 166.57 187.3 172.17 192.71 174.38 195.62 179.81 199.99 184.78 203.08 186.78 204.95 188.46 207.49 190.22 209.54 194.13 212.35 198.36 217 200.65 220.74 198.55 228.93 196.92 231.19 196.31 234.33 197.02 238.41 196.27 244.37 195.33 247.06 192.28 248.03 189.74 249.5 187.56 251.34 186.05 253.85 182.53 258.07 181.27 259.84 170.89 270.03 171.44 265.15 170.47 262.29 168.07 259.2 167.13 256.31 167.17 253.13 166.63 250.11 166.81 247.27 166.26 244.48 165.4 241.35 163.9 238.61 163.71 235.73 164.61 231.61 163.56 224.8 162.59 220.09 163.01 217.43 160.02 208.72 159.57 205.46 159.94 202.21 158.64 196.01 156.46 189.59 154.9 186 
M 164.69 187.09 169.55 193.1 173.36 198.57 179.96 204.98 182.29 206.1 184.91 209.6 186.58 212.5 191.67 215.67 193.14 218.59 194.2 221.29 199.75 228.99 
M 162.8 186.88 165.49 190.25 169.01 196.09 172.61 201.61 176.5 206.94 178.52 209.11 180.51 210.87 182.2 213.47 183.68 216.38 
M 160.92 186.67 163.45 190.27 165.22 193.46 167.07 196.3 168.21 199.13 169.86 202.33 170.94 204.98 173.83 210.39 174.69 212.94 176.58 215.07 178.17 217.69 182.51 225.94 
M 159.04 186.46 161.16 190.18 164.5 196.72 167.23 202.51 167.55 204.83 168.82 207.32 169.43 211.14 170.19 213.55 172.44 218.58 172.61 220.83 174.42 222.97 175.15 226.55 177.3 229.31 179.39 231.63 
M 157.15 186.25 159.01 189.95 163.88 202.48 163.93 204.67 165.26 207.52 168.07 216.99 168.04 220.09 169.92 227.83 171.2 230.41 173.2 232.98 174.47 236.04 
M 343.13 174.51 345.94 181.82 345.12 182.29 340.18 176.22 
M 328.98 176.01 340.15 196.73 339.34 197.22 326.07 177.79 
M 314.94 178.43 330.08 203.31 329.29 203.84 312.11 180.32 
M 301.06 181.47 314.31 204.13 313.52 204.64 298.2 183.33 
M 287.13 184.02 296.66 204.53 295.82 204.98 284.12 185.62 
M 273.18 185 275.23 192.55 274.37 192.94 270.07 186.4 
M 344.62 181.68 342.26 184.08 340.42 186.71 339.8 188.15 339.39 189.68 339.15 191.29 339.03 194.66 
M 338.01 195.28 335.29 195.46 332.87 196.13 331.82 196.75 330.88 197.56 330.05 198.54 328.56 200.83 
M 327.57 201.49 324.3 200.35 321.04 199.79 319.42 199.83 317.81 200.1 316.2 200.56 312.99 201.86 
M 311.99 202.51 308.37 201.29 304.76 200.63 302.95 200.63 301.14 200.85 299.33 201.27 295.71 202.48 
M 294.65 203.04 290.9 199.49 286.86 196.42 284.68 195.17 282.39 194.12 280 193.24 275.03 191.79 
M 336.63 195.34 334.03 195.71 332.87 196.13 331.82 196.75 330.88 197.56 329.28 199.65 
M 330.99 189.32 329.3 189.56 327.86 190.24 327.26 190.76 326.22 192.12 
M 325.93 200.88 322.67 199.97 321.04 199.79 319.42 199.83 317.81 200.1 314.59 201.17 
M 319.16 193.88 317.04 193.29 315.98 193.17 313.88 193.37 311.79 194.07 
M 310.18 201.86 306.56 200.86 304.76 200.63 302.95 200.63 301.14 200.85 297.52 201.84 
M 304.04 195.47 301.69 194.82 300.51 194.67 298.16 194.82 295.81 195.46 
M 411.69 131.58 415.2 130.8 425.25 125.67 427.7 124.63 430.02 122.99 433.02 121.27 437.58 116.91 440.27 115.61 448.09 112.65 449.95 111.54 452.33 109.72 455.25 108.25 456.25 105.89 458.1 103.27 460.08 101.96 463.95 100.39 467.29 100.04 472.68 97.3 475.27 95.79 477.2 93.74 479.61 92.23 482.08 91.58 485.06 89.83 487.25 86.35 489.43 84.77 489.73 97.24 488.28 99.8 486.53 102.05 486.17 105.18 484.81 109.69 485.58 116.34 484.96 119.08 484.01 121.48 483.26 124.08 482.01 125.88 481.62 128.32 480.94 130.72 478.61 135.88 477.11 138.32 476.34 141.08 476.24 144.25 475.83 146.79 476.84 150.54 477.41 153.84 479.96 159.13 480.33 162.14 479.47 164.89 479.45 167.24 479.17 168.8 479.52 171.12 479.67 173.49 483.38 183.51 484.06 186.12 484.87 188.41 486.03 191.06 486.71 194.18 487.12 197.08 487.45 199.94 487.74 205.88 487.96 207.66 490 216.23 487.27 214.43 480.49 210.45 477.54 207.3 473.17 206.27 471.7 203.95 469.56 203.2 467.69 201.68 463.58 199.24 461.24 197.29 458.73 194.74 453.58 192.22 451.55 190.23 448.64 188.25 445.59 186.31 442.29 184.69 439.71 182.34 430.83 175.05 428.29 173.78 423.14 169.68 417.47 166.02 411.69 161.85 
M 418.12 131.25 421.04 129.95 423.54 128.63 428.46 126.85 430.77 125.79 433.55 124.09 438.36 120.03 440.88 118.81 443.26 117.9 446.15 117.58 451.53 115.26 
M 421.11 132.01 426.44 129.8 429.38 129.11 431.82 128.27 434.52 126.65 437.01 124.49 441.36 122.21 443.57 121.31 449.72 119.78 453.07 118.33 
M 418.31 134.93 421.35 134.05 424.1 133.46 427.07 132.21 429.81 131.67 432.47 130.34 437.92 127.22 440.88 126.13 443.28 125.46 445.2 125.11 450.41 123.3 
M 421.51 135.97 424.5 135.62 427.55 134.26 433.4 132.62 438.63 129.82 441.75 129.03 444.56 127.88 446.41 127.81 448.77 126.34 
M 415.6 139.5 421.99 137.75 425.18 137.31 436.87 133.57 440.11 132.66 442.75 132.16 445.1 131.15 447.17 130.94 449.7 130.2 453.01 129.91 456.63 129.12 459.96 127.92 463.08 127.87 465.62 127.6 467.67 127.14 470.87 127.22 476.37 126.12 480.19 125.09 
M 411.69 140.66 415.64 140.89 422.35 139.93 430.65 137.74 434.15 137.45 440.1 135.38 445.47 134.97 448.22 134.05 454.08 133.3 
M 422.23 141.88 425.55 141.74 427.94 140.72 431.13 140.18 434.3 140.13 437.44 139.4 440.05 138.43 443.2 139.07 445.9 139.03 448.57 137.87 451.97 137.73 455.13 138.28 457.86 138.45 461.01 137.53 464.31 137.28 467.48 136.56 470.48 135.14 472.34 134.7 475.52 135.43 
M 411.69 143.69 415.59 144.18 418.82 143.85 422.25 144.1 425.23 143.79 428.62 143.67 431.67 143.26 434.45 143.5 437.78 142.95 440.38 142.23 443.47 142.58 446.07 142.5 448.71 141.67 452.33 141.53 455.62 142.66 457.87 143.24 460.39 143.21 463.98 142.23 466.87 140 472.03 138.97 
M 418.81 145.71 422.01 145.84 425.75 146.62 429.18 146.81 432.43 146.68 434.84 147 437.84 146.63 440.63 146.74 443.16 146.48 445.57 145.9 447.98 146.02 451.53 145.91 455.23 146.7 458.35 146.68 460.94 146.27 
M 419.05 147.72 422.46 148.2 429.71 149.76 432.8 149.95 435.28 150.3 438.02 149.86 440.88 150.04 442.81 149.9 445.05 149.4 448.32 150.45 450.71 150.69 461.66 151.17 463.89 149.13 469.77 148.68 475.35 151.96 
M 415.58 149.06 422.51 150.07 426.04 150.95 429.51 152.32 432.42 152.95 434.63 152.69 440.49 152.69 445.15 153.13 446.9 153.55 450.69 153.94 454.61 153.5 458.37 154.38 461.44 153.78 463.64 153.78 466.08 154.34 
M 419.04 151.09 422.4 151.84 425.89 152.94 428.87 154.21 431.77 155.1 434.45 155.69 437.51 155.6 443.05 156.82 444.83 157.51 447.6 157.71 
M 415.44 152.65 418.85 153.03 422.04 153.7 431.46 157.39 437.51 158.45 439.83 159.62 443.01 160.45 445.36 160.82 447.39 161.54 450.58 162.36 454.51 162.28 457.94 161.15 460.95 161.48 463.15 162.87 469.7 166.25 
M 421.9 156.43 424.51 157.22 427.85 158.7 437.06 161.34 440.12 162.87 444.67 163.97 449.66 165.83 454.13 166.21 
M 421.47 158.82 430.89 161.4 436.33 163.85 439.69 165.6 442.74 166.76 444.56 167.76 446.18 168.1 448.65 169.07 452.99 170.05 457.07 169.75 460.13 169.21 462.73 170.74 465.6 173.07 468.11 174.86 470.95 175.54 
M 411.69 155.8 415.54 157.72 418.32 159.34 427.61 162.55 433.53 165.46 436.04 167.21 439.89 167.93 442.66 168.89 444.14 171.36 445.64 172.18 447.92 172.59 451.49 173.67 
M 411.69 157.31 418.22 160.94 421.16 162.34 427.41 164.84 430.62 166.56 433.33 168.41 435.57 170.3 438.71 170.57 443.22 173.4 448.03 175.33 451.22 175.99 454.71 178.23 458.37 179.52 461.52 181.09 464.19 182.77 466.76 183.85 473.55 187.49 475.54 188.96 
M 418.21 162.76 421.04 164.24 424.11 165.51 427.48 167.23 432.72 170.77 435.55 172.21 439.03 174.85 441.92 176.26 443.95 177.8 446.87 177.84 449.77 179.29 
M 411.69 160.34 417.81 164.46 420.58 166 423.66 167.38 429.41 171.53 434.47 174.45 436.4 176.24 438.61 177.18 440.86 178.67 443 181.36 446.12 182.72 452.7 186.45 454.39 188.92 456.04 190.4 461.78 193.45 464.06 195.26 467.81 196.43 470.88 196.89 472.98 198.87 
M 376.67 123.47 379.05 122.41 381.64 121.56 384.47 120.95 393.81 119.99 396.72 119.46 402.27 118.14 404.97 117.4 407.48 116.48 410.11 115.87 413.5 117.38 416.68 120.64 418.42 124.41 417.97 127.42 415.8 129.27 412.68 129.74 402.08 128.57 400.02 128.09 
M 386 124.56 393.81 123.78 396.72 123.25 402.27 121.94 404.97 121.19 407.48 120.27 410.11 119.66 411.8 120.41 
M 54.09 116.55 61.29 114.98 65.28 114.35 81.18 113.6 87.84 113.55 94.36 113.23 111.77 111.31 126.39 110.67 131.58 110.19 134.9 114.54 136.19 118.6 137.12 122.61 138.52 130.54 139.45 134.55 139.21 138.36 138.38 142.08 136.78 145.67 135.46 153.16 134.54 156.87 134.47 160.71 133.66 164.43 132.33 168.06 130.58 171.63 128.29 175.11 125.55 178.51 119.89 181.42 110.58 180.98 103.66 179.87 97.36 178.18 91.29 175.96 85.71 173.37 80.77 170.67 76.1 167.36 71.82 163.09 64.55 153.63 
M 61.86 149.27 61.28 148.1 
M 119.27 125.57 118.35 128.72 116.42 131.6 113.75 136.97 112.31 139.28 110.64 146.18 109.4 154.25 106.48 157.09 100.29 157.56 95.59 157.64 91 157.3 86.2 156.39 81.54 154.89 77.3 152.99 73.28 150.21 
M 63.37 152.62 56.09 136.56 53.05 127.9 49.18 119 49.78 116.64 51.96 115.65 54.09 116.55 54.94 118.73 57.71 128.15 59.18 134.77 64.74 153.56 
M 64.09 154.15 37.92 144.2 31.33 141.22 30 139.23 30.63 136.98 32.75 136.07 35 136.97 40.99 140.68 61.7 151.65 64.5 153.28 
M 83.97 123.76 83.27 121.09 83.47 118.34 84.55 115.8 86.4 113.75 86.75 113.56 
M 95.64 113.09 96.7 113.65 98.59 115.66 99.73 118.18 99.98 120.93 99.33 123.61 97.84 125.94 95.68 127.65 93.08 128.58 90.32 128.6 87.7 127.73 85.5 126.06 83.97 123.76 
M 83.87 123.53 83.32 121.53 83.28 119.45 83.45 118.43 84.16 116.48 84.69 115.59 85.33 114.77 86.67 113.56 
M 85.62 122.8 85.13 120.45 85.42 118.44 
M 87.13 115.64 88.65 114.55 90.15 113.99 91.75 113.83 94.1 114.32 
M 88.56 121.7 88.28 120.63 88.37 119.5 
M 89.46 117.77 90.5 117.16 91.58 116.96 92.68 117.13 93.65 117.65 94.41 118.46 94.86 119.46 94.96 120.56 94.7 121.63 94.11 122.57 93.24 123.25 92.2 123.62 91.1 123.63 90.05 123.28 89.17 122.61 88.56 121.7 
M 90.24 117.3 89.84 118.11 
M 89.02 119.74 88.38 121.02 
M 91.81 117 90.81 119.01 
M 90.25 120.12 89.08 122.47 
M 93.06 117.34 91.73 120.01 
M 91.52 120.44 90.09 123.3 
M 94.09 118.12 91.34 123.63 
M 94.85 119.45 92.89 123.38 
M 66.7 156.36 71.45 161.11 
M 62.73 146.71 64.13 148.1 
M 60.27 138.56 61.25 139.53 
M 55.11 116.34 57.98 119.21 
M 59.78 115.32 62.88 118.42 
M 64.6 114.46 69.19 119.05 
M 69.91 114.07 75.39 119.56 
M 75.39 113.88 80.23 118.71 
M 80.82 113.62 84.06 116.85 
M 86.45 113.56 86.56 113.67 
M 97.18 112.92 101.16 116.89 
M 102.3 112.35 107.32 117.37 
M 107.42 111.79 111.4 115.77 
M 112.59 111.26 117.82 116.5 
M 118.01 111 122.55 115.55 
M 123.51 110.81 128.63 115.94 
M 128.88 110.5 133.46 115.08 
M 132.54 146.56 132.67 144.54 133.2 143.25 134.65 141.78 135.28 141.48 
M 66.47 155.15 66.86 154.5 67.16 152.96 68.09 151.5 68.34 150.64 67.84 149.26 66.97 148.5 
M 73.07 144.94 72.58 144.12 72.09 143.67 70.84 143.3 68.89 142 66.11 138.95 
M 98.04 155.64 99.07 155.86 101.68 157.06 102.39 157.08 105.71 155.23 106.74 154.97 
M 105.02 116.04 104.97 115.29 103.69 112.97 104.01 112.17 
M 66.55 141.98 65.92 140.74 64.21 138.68 62.69 135.72 62.16 135.38 61.03 135.2 60.44 135.3 59.63 136.04 
M 87.31 138.57 87.13 135 86.78 134.26 86.08 133.62 84.19 132.92 82.7 132.72 80.3 133.71 
M 65.49 115.16 63.5 115.46 60.61 115.54 58.65 116.39 58.18 116.24 57.67 115.83 
M 129.79 159.71 130.09 160.98 131.11 162.11 131.6 162.35 
M 126.77 165.01 126.22 164.65 125.5 164.45 122.81 164.43 121.83 164.23 
M 74.1 121.88 73.75 123.24 73.28 124.07 72.64 124.66 71.94 124.93 69.93 125.25 68 125.76 
M 86.29 113.87 85.87 113.57 
M 91.05 164.02 90.47 165.77 89.81 167.06 
M 107.44 179.78 107.76 178.48 107.51 176.41 107.66 175.08 107.55 174.54 107.2 173.94 
M 61.48 117.04 58.76 116.96 58.28 116.68 57.55 115.81 
M 116.15 155.55 116.75 156.17 117.74 158.86 119.13 160.03 119.54 160.56 
M 82.64 159.42 83.42 160.02 83.5 160.47 83.34 160.67 
M 122.84 130.73 120.18 128.6 117.92 125.94 116.33 122.61 
M 117.79 164.54 118.34 164.74 119.37 164.75 120.67 164.4 121.2 163.91 
M 66.24 155.78 66.97 154.89 67.28 153.38 68.39 151.24 68.5 150.77 68.37 150.04 
M 133.13 145.17 133.41 144.33 134.79 141.82 135.13 141.55 135.41 141.56 
M 109.7 148.41 110.81 145.41 111.11 143.93 110.4 141.33 108.85 139.38 
M 80.88 159.71 82.8 159.87 83.27 160.17 83.36 160.64 
M 122.35 166.72 121.91 166.64 121.55 166.22 121.19 164.1 
M 125.86 145.96 125.58 148.25 125.58 149.02 125.86 149.91 126.51 150.4 128.61 150.45 
M 91.16 157.74 92.61 159.74 93.63 160.77 94.67 161.41 97.08 162.09 97.87 162.67 98.12 163.11 
M 87.6 170.13 87.05 170.83 86.47 172.19 85.63 172.87 
M 79.02 168.74 79.92 168.98 80.24 168.84 80.43 168.5 
M 117.33 116.52 117.81 116.49 118.45 116.7 119.16 117.84 
M 122.21 158.16 122.3 159.85 123.14 162.51 122.91 163.27 122.08 163.6 
M 127.19 128.96 126.04 127.11 125.51 126.46 124.82 125.96 123.93 125.66 122.07 125.46 121.37 125.27 120.86 124.91 120.1 124.06 119.65 122.7 
M 84.24 144.13 83.46 140.8 82.24 137.41 80.62 135.18 80.01 135.05 
M 98.14 160.02 99.16 161.06 99.32 161.63 99.25 165.05 98.58 167.97 98.81 169.45 
M 90.62 139.38 90.34 138.19 88.97 134.74 88.47 134.09 87.69 133.52 86.7 133 85.56 132.69 82.89 132.44 80.96 133.25 
M 76.79 135.04 75.65 135.98 75.28 136.71 
M 126.07 133.19 126.83 132.66 127.03 132.2 126.78 131.55 126 130.5 
M 127.57 137.87 128.41 136.63 130.17 135.48 
M 109.16 167.12 111.5 169.02 112.05 169.66 112.78 171.15 113.05 172.91 112.94 176.6 113.06 178.84 
M 127.69 156.46 127.84 157.81 127.62 159.73 127.71 161.14 127.33 162.37 
M 107.83 119.64 108.54 116.88 108.64 115.48 108.22 113.06 107.81 111.75 
M 69.36 135.72 67.63 133.64 66.67 131.48 66.13 131.01 65.44 130.8 64.69 130.81 62.07 131.3 60.87 131.86 60.3 132.36 
M 119.96 152.55 120.41 154.43 120.51 155.83 119.91 158.66 121.1 161.16 
M 96.74 145.56 97.37 144.68 97.77 143.68 100.33 139.22 101.31 138.16 
M 107.55 163.2 110.32 166.58 112.12 168.21 113.33 169.74 113.73 170.61 114.1 174.68 
M 79.12 126.41 79.28 124.71 
M 86.92 173.9 87.19 173.52 87.15 173.19 86.92 172.97 86.54 172.96 
M 127.15 142.49 128.97 141.33 130.9 139.69 132.79 138.63 133.89 138.2 
M 71.19 116.09 67.69 119.3 66.95 119.74 65.17 120.6 59.94 122.11 
M 138.06 137.17 138.67 137.32 139.28 137.18 
M 115.79 130.87 114.87 128.66 114.7 126.31 114.45 125.5 113.76 124.05 112.09 121.92 111.93 121.06 112.24 120.33 
M 134.15 135.29 134.49 135.56 135.03 135.54 136.93 134.6 
M 121.64 142.04 120.45 142.52 118.81 142.49 117.67 142.15 117.29 141.87 116.55 140.85 
M 71.86 151.67 72.29 149.37 72.27 148.24 71.88 147.26 70.43 145.32 69.84 144.04 68.41 142.26 
M 94.05 141.77 94.81 139.51 96.31 136.04 96.53 135.09 96.5 134.4 96.19 133.82 95.68 133.33 94.21 132.56 90.98 132.17 
M 111.16 126.97 107.99 125.14 107.48 124.76 107.21 124.26 107.07 121.47 106.64 119.08 106.68 118.19 
M 134.66 114.23 134.46 114.33 
M 62.47 128.97 58.83 133.23 
M 78.94 132.21 79 131.54 79.54 131.32 
M 93 159.46 94.25 160.42 96.72 161.03 98.27 162.02 98.67 163.01 98.45 165.23 
M 125.75 129.9 123.25 127.67 120.65 126.17 120.1 125.71 119.62 125.21 118.94 124.08 118.8 123.08 
M 136.7 124.49 136.56 125.69 136.11 126.37 135.4 126.93 134.88 127.03 134.29 126.88 133.6 126.09 
M 129.94 164.12 129.16 163.7 127.68 163.95 126.68 163.2 
M 125.74 175.32 121.09 174.31 120.47 174.44 119.74 175.26 
M 67.98 157.96 69.2 156.79 70.03 155.37 70.97 152.42 71.68 149.12 
M 102.12 137.95 102.46 135.93 103.23 133.2 103.02 132.43 102.45 131.51 
M 94.03 174.88 94.73 173.91 96.27 174.17 96.94 173.89 
M 122.87 166.11 122.21 166.15 121.68 165.81 121.26 164.89 121.2 164.02 
M 87.94 147.43 86.68 144.68 86.57 143.76 86.58 142.89 86.98 140.93 86.89 135.15 86.6 134.4 85.94 133.77 84.97 133.32 
M 109.2 173.5 109.75 175.09 109.73 176.05 109.96 176.7 
M 129.54 161.54 129.73 162.2 129.34 162.38 
M 113.14 158.31 114.52 158.97 116.33 160.87 117.79 162.03 119.71 163.01 
M 111.4 119.07 112.4 118.51 113.33 118.46 114.38 118.75 116.06 119.62 117.38 119.89 
M 73.77 118.3 74.07 121.44 73.98 122.21 73.58 123.45 73.09 124.2 72.39 124.73 70.8 125.08 
M 126.2 144.26 126.7 145.77 126.41 148.2 126.53 148.82 126.95 149.49 127.73 149.75 
M 73.74 148.87 72.18 145.82 70.68 143.91 68.53 142.02 66.94 139.9 
M 69.65 114.58 68.53 114.8 65.1 114.82 63.35 115.06 61.19 115.01 
M 60.44 115.17 58.82 115.94 58.2 116.01 
M 85.54 114.71 84.64 113.57 
M 129.84 131.82 129.71 131.43 129.85 128.86 128.97 126.75 
M 132.33 111.17 130.38 114.82 129.6 115.65 128.29 116.33 
M 93.58 136.56 93.65 135.4 93.44 134.65 92.98 134.15 90.07 132.52 86.22 132.04 83.37 132.18 
M 84.39 164.68 83.5 164.78 83.28 165.08 
M 102.55 143.98 102.72 142.73 102.23 138.09 102.54 136.04 103.06 134.57 
M 69.82 119.58 68.94 121.03 68.32 121.6 65.39 123.5 63.4 124.4 61.62 125 61.11 125.4 60.1 126.84 
M 118.09 148.65 117.96 147.39 118.04 144.43 117.6 142.97 116.72 141.37 
M 130.3 144.98 130.89 143.46 131.45 142.61 132.22 142.2 134.12 141.55 
M 105.51 113.78 105.15 112.67 105.43 112.01 
M 100.44 163.41 100.11 166.38 99.35 169.24 99.28 170.48 
M 59.42 123.31 58.4 124.24 57.18 126.36 
M 135.9 134.76 139.08 132.95 
M 75.7 161.01 77.23 159.25 77.78 158.84 78.71 158.5 79.84 158.37 80.94 158.45 82.97 159.15 
M 102.09 150.33 102.78 149.8 104.14 149.58 104.84 149.57 105.87 149.87 106.46 149.67 
M 64.58 153.61 64.96 154.67 
M 62.52 150.65 62.56 150.74 
M 60.72 146.93 60.35 147.7 60.97 147.5 
M 59.13 143.4 58.77 143.67 58.21 144.65 58.97 144.21 59.49 144.19 
M 57.54 139.94 56.85 140.39 56.07 141.61 57.04 140.93 57.92 140.83 
M 56.04 136.45 54.92 137.11 53.92 138.57 55.12 137.65 56.46 137.43 
M 54.71 132.89 53 133.83 51.78 135.52 53.19 134.37 55.12 134 
M 53.5 129.29 51.08 130.55 49.63 132.48 51.27 131.09 53.9 130.52 
M 52.14 125.77 49.15 127.27 47.49 129.44 49.34 127.81 52.68 127.03 
M 50.62 122.34 47.23 123.99 45.34 126.4 47.42 124.53 51.2 123.6 
M 49.21 118.87 45.3 120.71 43.2 123.35 45.5 121.25 49.67 120.17 
M 64.34 153.64 65.5 154.18 
M 61.07 151.34 61.72 151.2 61.72 151.67 
M 57.38 149.45 57.96 148.93 58.79 148.62 58.48 149.18 58.45 150.01 
M 53.88 147.57 54.75 146.57 55.87 146.03 55.27 146.81 55.05 148.19 
M 50.43 145.67 51.54 144.21 52.94 143.45 52.06 144.45 51.62 146.34 
M 46.98 143.78 48.33 141.84 50.02 140.87 48.85 142.08 48.2 144.44 
M 43.51 141.93 45.12 139.48 47.09 138.29 45.64 139.72 44.74 142.64 
M 40.04 140.1 41.91 137.12 44.17 135.7 42.43 137.36 41.29 140.83 
M 36.71 138.03 38.7 134.75 41.24 133.12 39.22 134.99 37.91 138.78 
M 33.21 136.25 35.49 132.39 38.32 130.54 36.01 132.63 34.52 136.77 
M 40.51 145.15 46.19 149.73 50.85 153.17 55.66 156.36 65.63 162.17 70.83 164.88 76.1 167.36 
M 42.14 146.48 42.39 145.88 
M 136.18 118.57 137.66 120.05 
M 134.9 109.7 141.97 116.77 
M 141.61 108.84 152.7 119.92 
M 148.41 108.05 158.53 118.17 
M 155.25 107.31 163.68 115.74 
M 162.33 106.81 168.89 113.37 
M 169.6 106.49 179 115.9 
M 177.12 106.44 188.25 117.56 
M 184.88 106.61 191.75 113.48 
M 192.69 106.84 201.82 115.97 
M 200.53 107.1 211.74 118.31 
M 208.29 107.28 215.13 114.12 
M 216.07 107.47 227.36 118.77 
M 223.89 107.71 230.58 114.4 
M 231.81 108.05 237.53 113.77 
M 239.71 108.37 249.31 117.98 
M 247.56 108.63 257.97 119.05 
M 255.18 108.68 261.66 115.15 
M 262.74 108.65 272.65 118.56 
M 270.21 108.54 278.55 116.88 
M 278.03 108.78 287.75 118.5 
M 286.21 109.38 296.58 119.75 
M 294.95 110.54 303.39 118.98 
M 304.26 112.27 314.79 122.79 
M 313.52 113.94 323.15 123.57 
M 322.52 115.37 329.92 122.76 
M 331.29 116.55 338.14 123.4 
M 340.09 117.77 350.3 127.98 
M 349.01 119.1 358.97 129.07 
M 357.98 120.49 369.31 131.83 
M 366.99 121.92 375.64 130.57 
M 376.01 123.36 382.01 129.36 
M 385.19 124.96 391.61 131.38 
M 394.74 126.93 406.07 138.26 
M 404.96 129.57 414.61 139.22 
M 179.6 91.84 180.87 94.39 
M 181.72 96.08 182.56 97.78 
M 181.87 87.86 185.68 95.49 
M 184 83.59 187.81 91.22 
M 187.78 82.63 188.63 84.32 
M 189.48 86.02 190.33 87.71 
M 196.76 83.53 198.46 86.92 
M 199.3 88.61 201 92 
M 198.91 79.3 205.69 92.86 
M 201.71 76.36 203.4 79.75 
M 205.1 83.14 208.49 89.92 
M 202.6 69.62 203.45 71.31 
M 205.14 74.7 211.08 86.57 
M 217.86 100.13 220.4 105.22 
M 203.75 63.38 205.87 67.62 
M 206.71 69.31 208.41 72.7 
M 218.58 93.05 221.12 98.13 
M 221.97 99.83 225.45 106.79 
M 206.99 61.34 211.65 70.66 
M 221.82 91.01 228.61 104.57 
M 210.69 60.22 215.36 69.54 
M 225.53 89.89 232.31 103.45 
M 214.19 58.68 218.85 68.01 
M 229.87 90.05 230.72 91.74 
M 233.26 96.83 234.11 98.52 
M 219.48 60.73 220.33 62.42 
M 240.02 84.76 240.87 86.45 
M 251.04 106.8 251.72 108.16 
M 240.89 77.97 245.98 88.14 
M 251.91 100.01 256.23 108.65 
M 243.1 73.86 249.88 87.42 
M 254.97 97.59 260.49 108.63 
M 245.71 70.55 249.95 79.02 
M 250.8 80.72 253.34 85.8 
M 258.43 95.98 264.74 108.61 
M 240.38 51.36 241.23 53.06 
M 250.56 71.71 253.95 78.49 
M 254.8 80.18 255.64 81.88 
M 263.27 97.14 269.03 108.66 
M 244.36 50.78 248.17 58.41 
M 266.82 95.71 268.52 99.1 
M 270.21 102.49 271.91 105.88 
M 249.31 52.15 251.43 56.39 
M 253.92 52.85 254.35 53.7 
M 276.39 97.78 278.08 101.17 
M 277.86 92.2 283.79 104.06 
M 269.24 66.42 274.32 76.59 
M 280.26 88.46 287.04 102.02 
M 290.54 109.02 291.07 110.09 
M 269.51 58.44 270.78 60.98 
M 272.48 64.37 274.17 67.76 
M 275.02 69.46 277.56 74.54 
M 279.26 77.93 280.11 79.63 
M 284.34 88.1 290.28 99.97 
M 291.13 101.67 291.97 103.36 
M 294.52 108.45 295.64 110.69 
M 275.99 62.86 282.77 76.42 
M 289.55 89.99 292.09 95.07 
M 298.87 108.64 300.33 111.55 
M 279.11 60.57 285.46 73.28 
M 286.31 74.98 287.16 76.67 
M 285.76 65.34 287.88 69.58 
M 289.57 72.97 291.27 76.36 
M 292.11 78.05 294.66 83.14 
M 292.76 70.81 294.45 74.2 
M 295.3 75.9 297 79.29 
M 297.84 80.98 299.54 84.38 
M 297.42 71.61 304.63 86.02 
M 305.36 78.96 306.63 81.5 
M 229.13 292.89 229.01 292.3 228.59 291.7 228.08 291.39 226.88 291.39 226.19 291.7 225.41 292.3 224.93 292.89 224.36 293.8 223.91 295.3 224.06 296.8 224.48 297.39 224.99 297.7 226.19 297.7 226.88 297.39 227.66 296.8 228.14 296.2 
M 230.21 295.3 233.81 295.3 233.99 294.7 233.87 294.1 233.15 293.5 232.25 293.5 231.56 293.8 230.78 294.39 230.21 295.3 230.03 295.89 230.06 296.8 230.48 297.39 230.99 297.7 231.89 297.7 232.58 297.39 233.36 296.8 
M 236.45 293.5 235.19 297.7 
M 236.09 294.7 237.26 293.8 237.95 293.5 238.85 293.5 239.36 293.8 239.39 294.7 238.49 297.7 
M 243.08 291.39 241.55 296.5 241.58 297.39 242.09 297.7 242.69 297.7 
M 241.55 293.5 243.65 293.5 
M 246.68 291.39 245.15 296.5 245.18 297.39 245.69 297.7 246.29 297.7 
M 245.15 293.5 247.25 293.5 
M 248.51 295.3 252.11 295.3 252.29 294.7 252.17 294.1 251.45 293.5 250.55 293.5 249.86 293.8 249.08 294.39 248.51 295.3 248.33 295.89 248.36 296.8 248.78 297.39 249.29 297.7 250.19 297.7 250.88 297.39 251.66 296.8 
M 257.48 294.39 257.36 293.8 256.55 293.5 255.65 293.5 254.66 293.8 254.18 294.39 254.3 295 254.81 295.3 256.22 295.6 256.73 295.89 256.85 296.5 256.27 297.39 255.29 297.7 254.39 297.7 253.58 297.39 253.46 296.8 
M 263.77 291.39 262.25 296.5 262.27 297.39 262.78 297.7 263.39 297.7 
M 262.25 293.5 264.35 293.5 
M 266.45 293.5 265.19 297.7 
M 265.9 295.3 266.48 294.39 267.26 293.8 267.95 293.5 268.85 293.5 
M 270.68 291.39 270.89 291.7 271.27 291.39 271.07 291.1 270.68 291.39 
M 270.35 293.5 269.08 297.7 
M 272.75 293.5 271.49 297.7 
M 272.2 295.3 272.77 294.39 273.56 293.8 274.25 293.5 275.14 293.5 
M 277.85 293.5 277.15 293.8 276.38 294.39 275.81 295.3 275.63 295.89 275.65 296.8 276.08 297.39 276.58 297.7 277.49 297.7 278.18 297.39 278.95 296.8 279.52 295.89 279.7 295.3 279.68 294.39 279.26 293.8 278.75 293.5 277.85 293.5 
M 285.08 294.39 284.95 293.8 284.14 293.5 283.25 293.5 282.26 293.8 281.77 294.39 281.89 295 282.4 295.3 283.82 295.6 284.33 295.89 284.36 296.8 283.88 297.39 282.89 297.7 281.99 297.7 281.18 297.39 281.06 296.8 
M 291.38 291.39 289.49 297.7 
M 290.48 294.39 290.06 293.8 289.55 293.5 288.64 293.5 287.95 293.8 287.18 294.39 286.61 295.3 286.43 295.89 286.45 296.8 286.88 297.39 287.39 297.7 288.28 297.7 288.98 297.39 289.76 296.8 
M 293.48 291.39 293.69 291.7 294.08 291.39 293.87 291.1 293.48 291.39 
M 293.14 293.5 291.89 297.7 
M 294.77 297.1 294.38 297.39 294.58 297.7 294.98 297.39 294.77 297.1 
"/></svg>
