<svg xmlns="http://www.w3.org/2000/svg" width="520" height="320"><rect x="0" y="0" width="520" height="320" fill="floralwhite"/><rect x="10" y="10" width="500" height="300" stroke="black" stroke-width="1" fill="none"/><path stroke="black" stroke-width="1" fill="none" stroke-linecap="round" stroke-linejoin="round" d="
M 122.47 126.27 147.12 117.08 159.43 112.75 171.74 108.75 184.05 105.12 196.35 101.77 220.97 96.23 233.28 93.82 245.59 93.7 257.9 95.44 270.2 98.21 282.51 101.71 294.82 104.34 307.13 106.57 319.44 110.47 331.74 115.36 356.36 123.81 368.67 128.81 393.28 139.26 405.59 144.2 418.88 148.95 
M 418.88 192.48 405.59 198.46 393.28 203.43 380.98 207.98 368.67 212.83 356.36 217.45 344.05 221.26 331.74 224.59 307.13 229.25 294.82 231.78 282.51 233.7 270.2 234.83 257.9 235.5 245.59 235.71 220.97 235.8 196.35 233.11 184.05 231.47 171.74 229.28 159.43 226.56 147.12 222.99 134.81 218.89 110.25 209.67 
M 418.36 163.97 396.16 162.76 377.77 160.18 374.18 159.85 363.05 159.78 359.4 159.69 355.88 159.4 352.49 158.86 345.68 157.34 328.17 153.05 319.54 150.54 
M 316.01 149.65 303.07 147.13 297.58 146.33 
M 293.92 145.77 290.21 145.15 
M 286.45 144.53 282.66 143.9 
M 278.82 143.1 269 140.63 256.98 137.89 245.14 135.6 243.23 135.44 
M 239.45 135.26 233.91 135.29 230.43 135.65 228.77 135.99 
M 222.06 137.33 214.89 138.46 
M 207.57 139.89 200.26 141.61 
M 192.87 143.19 187.05 144.14 176.71 145.49 
M 172.63 146.05 168.66 146.66 
M 164.77 147.32 148.96 149.73 
M 136.57 151.3 128.12 152.39 
M 117.16 199.85 117.96 200.65 
M 119.38 195.22 128.06 203.97 
M 131.34 207.13 134.59 210.15 
M 121.49 190.33 122.51 191.39 
M 131.86 200.97 139.88 208.54 142.98 211.22 147.63 214.78 
M 123.85 185.51 125.37 187.13 
M 141.94 203.81 148.18 209.17 
M 151.35 211.6 154.62 213.87 
M 126 180.3 127.38 181.8 
M 130.42 185.05 131.87 186.56 
M 151.13 205.16 151.81 205.71 
M 155.02 208.24 159.99 211.85 165.16 215.21 
M 171.99 219.31 175.25 221.17 
M 178.35 222.86 181.13 224.28 
M 127.57 174.11 130.83 177.88 
M 133.93 181.26 138.33 185.83 
M 161.94 207.36 168.73 212.42 
M 172.14 214.85 175.47 217.19 
M 129.12 167.81 135.84 175.65 140.54 180.72 
M 143.67 183.92 145.2 185.48 
M 169.81 207.61 172.22 209.59 
M 178.9 214.98 182.05 217.51 
M 130.36 161.4 137.72 169.78 
M 140.9 173.41 147.29 180.29 
M 150.47 183.46 151.71 184.68 
M 178.02 208.77 179.14 209.76 
M 182.44 212.69 188.52 218.14 
M 196.87 224.59 199.76 226.14 
M 127.81 152.27 133.12 157.16 136.33 160.45 144.4 169.46 
M 150.9 176.62 158.41 184.06 
M 186.19 210.33 189.32 213.37 
M 192.26 216.24 195.07 218.89 
M 125.96 144.09 127.93 146.09 
M 131.22 149.19 136.25 153.7 141.23 158.46 
M 144.53 161.93 147.82 165.56 
M 154.42 172.87 159.42 178.04 164.27 182.74 
M 191.54 209.29 193.3 211.12 
M 196.25 214.17 199.06 217 
M 207.62 223.95 210.66 225.71 
M 124.54 133.73 127.09 137.55 129.86 141.07 132.86 144.36 136.05 147.46 146.1 156.57 149.43 159.97 159.43 170.9 171.49 182.94 
M 200.39 211.92 203.21 214.92 
M 211.74 222.52 214.71 224.49 
M 125.08 125.28 130.67 133.84 133.35 137.48 136.23 140.94 139.23 144.19 142.38 147.27 152.48 156.41 166.05 170.73 178.03 182.73 
M 207.36 212.72 210.15 215.71 
M 129.39 123.66 136.58 133.79 142.32 140.8 145.35 144.03 157.02 154.65 
M 160.38 157.98 163.75 161.5 
M 167.23 165.12 184.92 183.13 
M 216.94 216.46 219.73 219.04 
M 133.45 122.13 142.35 133.71 148.27 140.62 151.41 143.79 164.88 156.07 173.63 164.97 
M 177.24 168.68 191.01 182.87 
M 214.96 207.9 215.07 208.03 
M 220.68 214.29 226.09 219.36 
M 137.47 120.64 148.14 133.67 154.2 140.36 157.43 143.49 171.1 155.85 179.99 165.09 
M 183.61 168.84 197.14 182.65 
M 219.83 207 222.8 210.42 226.87 214.64 
M 141.56 119.13 154 133.64 157 136.9 161.77 141.6 
M 165.11 144.68 172.03 150.85 
M 175.56 154.17 186.33 165.42 
M 189.98 169.12 197.22 176.27 
M 224.77 206.14 227.47 209.18 
M 230.12 212.03 232.58 214.66 
M 237.02 219.34 239.11 221.4 
M 243.29 224.99 245.46 226.5 
M 145.64 117.63 156.93 130.32 162.85 136.63 166 139.71 176.53 149.18 180.07 152.58 190.84 163.91 203.96 176.56 
M 207.68 180.26 210.55 183.17 
M 149.7 116.17 165.67 133.29 172.04 139.43 179.35 145.89 182.92 149.27 193.47 160.37 199.17 165.9 
M 203.03 169.48 208.84 174.9 216.73 182.83 
M 238.09 209.13 240.22 211.94 
M 248.85 221.63 253.42 225.49 
M 255.69 227.13 257.35 228.2 
M 153.76 114.75 171.5 132.95 185.8 145.88 190.97 151.19 
M 194.4 154.84 199.87 160.36 211.64 171.18 217.42 176.88 
M 221.09 180.7 223.31 183.09 
M 239.85 205 240.58 206.08 
M 242.7 209.11 244.83 211.97 
M 251.63 219.68 253.96 221.93 
M 258.52 225.87 260.77 227.53 
M 157.83 113.31 165.39 120.63 174.2 129.58 177.42 132.62 188.47 142.38 202.53 156.46 212.27 165.4 
M 216.2 169.14 221.95 174.97 229.43 183.2 
M 245.16 206.11 247.36 209.2 
M 162.03 111.9 167.85 117.29 179.82 129.16 196.22 143.89 
M 199.79 147.31 216.69 163.17 220.55 167 226.14 172.96 
M 229.71 176.86 233.13 180.57 
M 247.79 202.91 249.99 206.28 
M 259.87 217.84 262.2 220.32 
M 166.32 110.51 173.15 116.84 182 125.65 194.5 136.79 
M 202.09 143.39 215.24 155.52 219.05 159.18 224.66 164.98 
M 231.99 172.88 240.54 181.99 242.4 184.4 
M 255.32 206.51 257.94 209.66 
M 170.58 109.12 175.32 113.42 184.13 122.16 190.72 128.28 206 141.08 215.64 149.8 
M 219.43 153.48 224.97 159.17 235.84 170.91 242.92 178.03 246.04 181.65 248.63 185.47 
M 258.43 203.35 259.71 205.12 263.74 209.9 
M 268.59 215.76 270.8 218.43 
M 174.94 107.8 180.44 112.87 189.36 121.65 192.56 124.57 205.73 135.46 
M 209.79 138.83 215.8 144.12 221.57 149.71 
M 225.24 153.56 235.83 165.35 
M 239.47 169.04 244.92 174.26 248.27 177.77 251.21 181.56 253.66 185.55 
M 266.87 206.99 269.42 210.17 
M 276.24 218.54 278.53 220.88 
M 179.31 106.51 194.52 120.87 201.36 126.73 213.57 136.74 221.65 144.08 225.4 147.87 229 151.81 237.6 161.82 
M 241.13 165.53 250.15 174.11 253.37 177.75 256.2 181.67 258.58 185.63 
M 267.26 200.2 272.39 207.26 
M 183.65 105.23 199.74 120 205.02 124.55 
M 208.95 127.82 215.23 133.08 223.39 140.32 227.19 144.04 230.82 147.96 236.04 154.12 
M 239.43 158.16 242.84 161.96 
M 250.03 168.89 253.59 172.34 
M 259.79 179.89 262.46 184 
M 270.26 196.75 272.7 200.47 
M 287.59 217.92 289.93 220.27 
M 188.04 104.03 200.51 115.1 
M 203.61 117.94 222.94 134.81 
M 226.88 138.38 232.53 143.98 237.87 150.09 
M 241.33 154.21 244.74 158.14 
M 248.22 161.81 257.26 170.52 260.53 174.2 264.88 180.16 
M 275.51 196.77 279.45 202.23 283.44 206.82 
M 192.35 102.86 204.5 113.21 214.63 122.65 230.35 136.44 234.17 140.04 237.88 143.9 248.58 156.07 252.16 159.82 259.4 166.95 262.76 170.6 264.31 172.51 
M 278.81 193.65 280.94 196.61 
M 286.42 203.27 289.13 206.21 
M 291.72 209.03 294.17 211.83 
M 196.59 101.72 207.09 110.29 210.33 113.14 220.29 122.9 224.04 126.28 233.85 134.65 
M 237.73 138.16 239.65 139.97 245.22 145.91 
M 256.34 157.8 261.76 163.34 265.15 167.04 268.29 170.84 274.11 178.76 278.19 184.82 
M 280.89 188.8 281.16 189.2 
M 283.2 192.05 286.44 196.22 
M 301.92 214.41 304.11 217.11 
M 201.01 100.74 206.58 105.06 212.93 110.42 225.9 123.21 237.51 132.96 243.36 138.27 
M 247.15 142.08 250.93 146.07 
M 262.37 157.82 265.88 161.62 
M 275.17 173.12 280.69 180.91 
M 283.4 184.82 286.18 188.64 
M 289.05 192.3 294.87 199.12 
M 205.5 99.75 209.33 102.68 215.53 107.93 221.74 113.79 228.08 120.24 231.6 123.45 243.27 133.2 247.16 136.77 260.69 150.34 
M 264.55 154.23 266.45 156.18 271.51 161.99 
M 274.61 165.8 278.98 171.45 288.65 184.72 
M 294.51 192.01 297.46 195.51 
M 300.3 198.94 303 202.28 
M 305.54 205.54 307.93 208.72 
M 209.89 98.76 215.13 103.02 221.23 108.37 233.91 120.44 245.17 130.18 251.01 135.51 
M 258.66 143.02 268.43 152.72 272.06 156.61 278.38 164.21 288.29 177.17 
M 315.42 212.14 317.66 215.07 
M 214.01 97.82 220.89 103.52 230.13 111.5 239.91 120.64 254.96 134.28 270.27 149.3 273.98 153.14 278.99 158.83 
M 282.04 162.58 293.54 177.23 
M 299.14 184.65 304.86 192.08 
M 307.77 195.75 310.63 199.36 
M 315.95 206.24 318.34 209.47 
M 217.98 96.92 232.92 109 239.38 114.55 264.67 138.51 277.59 151.61 
M 281.01 155.36 284.19 159.1 
M 287.2 162.82 290.13 166.51 
M 293.03 170.14 298.6 177.42 
M 304 184.91 309.84 192.42 
M 221.86 96.06 235.86 106.67 242.31 111.89 245.55 114.82 255.67 124.77 266.82 135.42 275.93 144.58 
M 282.99 151.97 289.45 159.38 
M 308.86 185.3 311.86 189.06 
M 318.08 196.55 320.94 200.21 
M 330.16 213.98 332.43 217.19 
M 225.85 95.28 228.22 96.92 
M 231.17 98.98 242.19 106.86 248.58 112.19 251.75 115.19 261.72 125.3 276.3 139.61 285.02 148.67 
M 288.41 152.31 296.34 161.47 299.28 165.13 303.33 170.64 
M 308.37 178.18 309.64 180.08 313.99 185.71 
M 320.24 193.35 325.79 200.83 
M 328.13 204.42 330.33 207.95 
M 229.93 94.48 242.24 102.39 248.61 107.1 254.81 112.6 265.96 124.06 
M 269.41 127.54 282.05 140.12 290.54 149.06 
M 297.12 156.23 301.8 161.63 305.99 167.18 
M 313.56 178.59 319.4 186.31 
M 322.5 190.24 325.46 194.14 
M 234.34 93.81 239.26 96.58 245.62 100.45 251.9 104.94 257.95 110.2 260.96 113.07 265.49 117.75 
M 268.59 121.07 278.85 131.59 
M 286.03 138.81 299.35 153.03 
M 302.62 156.49 307.29 161.81 310.09 165.56 313.87 171.31 
M 316.35 175.22 321.9 183.21 
M 324.95 187.25 327.91 191.25 
M 337.75 206.62 340.08 210.45 
M 240.13 93.75 245.88 96.8 249.03 98.66 252.14 100.71 256.68 104.15 
M 259.67 106.6 264.16 110.51 267.08 113.39 276.06 123.19 288.31 135.74 
M 291.74 139.39 299.86 148.34 308.13 156.77 
M 316.72 167.89 319.19 171.88 
M 321.75 175.96 327.47 184.28 
M 335.74 196.41 338.13 200.31 
M 246.31 93.8 252.42 97.07 255.45 98.99 261.52 103.23 267.55 107.95 270.42 110.66 282.03 123.68 290.76 132.69 
M 294.18 136.38 303.74 147.18 
M 307.03 150.51 310.36 153.76 
M 313.6 157.1 315.18 158.82 316.61 160.69 
M 327.08 176.94 332.84 185.47 
M 254.43 94.95 265.01 101.07 268.13 103.11 271.15 105.39 273.99 107.95 276.68 110.83 283.5 119.02 
M 286.67 122.47 291.84 127.77 296.91 133.31 
M 303.07 140.73 307.66 146 309.28 147.63 
M 315.76 154.14 317.35 155.8 320.32 159.35 324.29 165.25 
M 326.84 169.4 332.26 178.02 
M 343.3 194.9 345.73 198.99 
M 264.69 96.97 268.63 98.94 271.82 100.77 274.87 102.88 277.73 105.31 280.39 108.09 288.42 117.82 298.44 128.3 301.58 131.99 310.18 142.93 314.75 147.96 
M 320.9 154.62 325.26 160.02 327.91 163.99 334.5 174.69 
M 350.65 200.13 352.88 204.38 
M 278.82 100.66 281.52 102.84 284.19 105.52 292.17 115.02 301.79 125.14 304.84 128.72 315.64 143.18 325.9 155.18 
M 328.79 158.87 332.86 164.82 336.79 171.32 
M 339.48 175.75 345.08 184.31 
M 347.92 188.43 351.97 194.68 353.17 196.83 
M 287.53 102.79 290.63 106.14 296.01 112.4 305.09 122.04 308.05 125.46 310.75 128.99 317.03 138.04 
M 319.59 141.62 325.11 148.63 
M 328.03 152.15 333.87 159.57 
M 336.59 163.66 339.15 168.03 
M 341.72 172.49 344.4 176.86 
M 347.19 181.03 350.03 185.06 
M 352.85 189.14 355.53 193.35 
M 294.67 104.31 311.07 122.27 313.78 125.63 316.32 129.11 319.94 134.51 
M 322.36 138.15 326.17 143.6 334.73 154.46 337.62 158.35 340.33 162.54 344.06 169.27 
M 346.6 173.68 350.68 179.86 354.93 185.75 
M 360.21 194.16 362.5 198.51 
M 364.67 202.71 368.02 208.64 
M 301.27 105.51 311.41 116.21 316.69 122.35 321.75 129.11 327.76 138.23 
M 330.29 141.94 340.03 155.06 341.39 157.14 
M 346.52 165.9 348.95 170.36 
M 351.5 174.59 358.35 184.36 362.19 190.68 
M 366.83 199.31 369.07 203.28 
M 308.27 106.93 312.06 110.77 317.06 116.24 322.17 122.3 325.99 127.31 
M 330.89 134.51 334.59 140.15 338.54 145.77 
M 341.27 149.58 345.32 155.61 347.87 159.96 353.9 170.97 
M 361.73 182.88 363 184.92 366.52 191.49 
M 316.63 109.58 322.58 116.14 327.73 122.17 332.94 128.92 340.28 140.12 345.5 147.68 348.08 151.69 351.77 158.13 
M 354.17 162.51 359.07 170.93 
M 361.65 174.9 365.37 180.98 368.7 187.62 
M 370.99 192.06 372.17 194.24 375.98 200.12 
M 325.3 112.8 333.53 122 337.34 127.09 
M 339.75 130.7 348.52 143.72 350.99 147.57 354.58 153.77 
M 356.98 158 367.01 174.43 
M 375.88 192.2 378.47 196.22 
M 334.45 116.29 339.13 121.94 351.49 139.69 353.95 143.42 361.18 155.31 367.62 165.43 
M 372.44 173.9 377.57 185.5 379.88 189.86 381.2 191.86 
M 342.27 118.97 354.35 135.65 361.78 146.56 372 162.48 374.5 166.71 376.79 171.2 377.82 173.56 
M 379.87 178.27 381.96 182.86 
M 384.26 187.17 386.83 191.21 
M 349.43 121.43 358.54 133.32 
M 363.73 140.17 367.45 145.57 372.49 153.39 375.03 157.55 378.72 164.12 
M 381.07 168.7 383.28 173.38 
M 387.62 182.42 388.76 184.55 391.28 188.6 395.45 194.64 
M 357.44 124.25 368.24 137.43 370.76 140.87 375.61 148.56 381.75 159.35 
M 384.21 163.95 388.88 173.32 
M 391.12 177.8 393.43 182.06 
M 367.04 128.15 374.06 136.48 376.5 140.02 382.38 150.17 
M 384.83 154.58 394.62 173.32 
M 401.78 186.18 404.39 190.47 
M 377.28 132.47 379.8 135.8 382.16 139.42 390.45 154.4 
M 392.98 159.18 395.53 164.03 
M 398.05 168.78 402.79 177.7 
M 386.18 136.25 390.06 142.93 403.86 168.76 
M 406.18 173.3 408.4 177.75 
M 394.1 139.59 399.46 149.48 
M 402.05 154.3 407.07 164 
M 409.4 168.69 413.89 177.88 
M 401.67 142.62 406.66 152.04 414.82 168.72 
M 417.12 173.45 418.88 177.03 
M 409.01 145.43 412.57 152.52 418.88 166.03 
M 416.04 147.95 418.88 154.14 
M 128.95 123.82 127.09 126.36 123.93 130.15 
M 136.12 121.13 132.57 126.44 129.88 130.11 124.8 136.04 
M 143.56 118.39 140.29 122.96 135.54 130.11 132.8 133.83 129.76 137.53 125.66 142.07 
M 152.21 115.29 145.93 123.1 138.66 133.76 135.94 137.44 133 141.01 126.61 148.26 
M 160.22 112.49 156.65 117.48 149.35 126.68 141.9 137.33 139.24 140.87 135 145.91 
M 132.21 149.17 128.38 153.89 
M 167.05 110.27 162.45 117.58 160.21 120.75 152.75 130.24 145.23 140.73 138.66 148.93 
M 135.98 152.15 130.53 159.08 
M 173.1 108.35 168.01 117.28 164.78 122.25 
M 162.42 125.52 156.11 133.61 147.47 145.53 
M 144.96 148.73 139.73 155.17 
M 136.97 158.67 134.1 162.43 
M 131.17 166.38 128.61 169.86 
M 178.79 106.67 173.31 116.82 169.23 123.57 166.93 126.9 159.48 136.79 155.92 141.92 
M 153.56 145.27 143.5 158.38 
M 134.72 169.98 130.21 176.07 124.59 183.28 
M 184.78 104.92 182.05 109.52 176.56 119.7 172.47 126.5 165.31 136.49 157.31 148.25 
M 154.97 151.48 141.33 169.59 
M 138.3 173.58 135.26 177.55 
M 129.14 185.14 127.51 187.02 
M 122.49 191.81 119.86 194.06 
M 190.95 103.24 189.17 105.86 187.29 109.05 176.87 127.75 
M 174.73 131.15 170.07 137.87 
M 165.61 144.65 152.37 163.58 146.54 171.29 141.91 177.09 
M 123.66 196.55 122.27 197.71 
M 197.72 101.47 196.54 102.74 194.45 105.47 192.5 108.51 184.97 122.08 181.44 129.04 179.53 132.5 177.39 135.92 160.04 161.58 
M 157.44 165.35 154.69 169.16 
M 145.53 180.41 140.97 185.63 
M 205.08 99.84 202.13 102.65 199.89 105.18 197.8 108 195.84 111.12 192.06 118.02 190.2 121.54 187.71 126.84 
M 186.11 130.38 183.52 135.66 181.48 139.13 179.26 142.56 175.71 147.54 
M 171.1 154.17 162.61 167.1 159.94 170.89 157.05 174.62 153.96 178.27 149.14 183.56 
M 213.58 97.92 210.41 100.43 207.98 102.65 205.6 105.06 203.33 107.67 201.2 110.54 199.17 113.72 196.28 118.94 
M 194.55 122.56 189.37 135.37 186.69 140.69 
M 184.52 144.16 177.34 154.2 
M 175.01 157.63 172.67 161.26 
M 170.28 165.03 167.82 168.83 
M 156.02 183.14 154.89 184.31 
M 129.97 210.11 128.26 211.67 
M 223.77 95.69 218.68 98.94 215 101.88 
M 212.63 104.05 209.17 107.63 206.89 110.29 204.67 113.2 202.54 116.41 200.6 119.88 198.97 123.54 196.92 129.22 
M 195.61 133.04 193.5 138.67 191.82 142.29 189.7 145.86 186.05 151.06 
M 183.61 154.46 178.98 161.39 
M 162.93 182.8 162.03 183.7 
M 143.55 203.4 143.27 203.7 
M 140.1 207 136.87 210.12 
M 234.42 93.81 229.81 96.13 224.51 99.51 219.56 103.4 217.22 105.56 212.73 110.41 208.25 116.12 206.12 119.35 204.38 122.83 203.67 124.68 
M 202.33 128.43 199.17 138.13 197.64 141.97 195.75 145.72 193.52 149.38 188.68 156.51 180.71 168.77 
M 169.77 182.58 169.29 183.06 
M 241.81 93.73 236.06 96.46 230.45 99.92 225.35 103.89 222.96 106.04 218.44 110.77 214.07 116.26 211.97 119.32 210.13 122.58 208.58 126.04 205.46 135.48 
M 204.13 139.4 201.7 145.29 198.49 151.06 
M 196.16 154.82 191.61 162.12 
M 189.37 165.6 187.07 169.01 
M 184.68 172.43 180.86 177.57 176.47 182.47 
M 248.28 94.08 242.61 96.69 236.7 100.19 233.92 102.14 228.79 106.42 224.13 111.19 219.74 116.61 217.69 119.57 215.93 122.7 215.18 124.36 
M 213.77 127.76 209.21 140.75 207.63 144.69 205.75 148.66 203.62 152.61 198.01 162.24 
M 193.48 169.28 191.08 172.62 
M 185.89 179.27 182.53 183.07 
M 158.42 206.73 157.28 207.93 
M 253.69 94.84 249.22 96.92 246.22 98.56 240.31 102.34 237.49 104.43 234.83 106.64 232.32 108.99 229.93 111.49 225.4 117 223.32 119.95 221.57 122.97 220.1 126.15 215.07 140.4 211.83 148.12 209.88 152.08 205.59 160.07 203.41 163.98 200 169.44 
M 197.59 172.85 195.06 176.16 
M 258.85 95.65 252.74 98.83 246.85 102.53 243.94 104.61 238.45 109.17 235.92 111.67 233.51 114.36 229.01 120.28 227.18 123.28 225.66 126.34 224.4 129.57 222.14 136.65 220.18 142.22 
M 218.64 145.96 215.07 153.63 
M 213.07 157.59 210.99 161.59 
M 208.86 165.56 206.63 169.39 
M 204.26 173.01 200.43 178.13 196.57 182.68 
M 170.18 207.64 168.04 209.72 
M 164.94 212.67 161.75 215.53 
M 263.4 96.68 256.18 100.95 250.42 104.86 244.76 109.39 242.1 111.88 239.56 114.55 237.13 117.44 234.87 120.47 232.92 123.49 231.29 126.52 229.92 129.64 228.16 134.74 
M 227.01 138.38 225.11 144.06 223.64 147.84 219.26 157.28 
M 217.34 161.19 214.32 167.23 212.15 171.17 208.53 176.68 
M 205.88 180.15 203.56 182.98 
M 174.95 209.6 171.9 212.31 
M 168.85 214.96 165.69 217.51 
M 267.95 97.7 262.6 101.12 256.73 105.26 251.1 109.7 248.36 112.17 245.74 114.83 243.23 117.68 240.89 120.68 237.96 125.17 
M 236.33 128.19 234.91 131.33 
M 233.62 134.66 229.13 147.93 227.63 151.74 221.56 164.99 
M 219.63 169.02 216.47 174.96 215.27 176.82 
M 272.41 98.84 266.15 103.18 260.14 107.81 254.6 112.58 251.94 115.2 249.39 118.02 247 120.99 244.87 123.98 243.01 126.95 240.67 131.48 
M 239.25 134.69 237.18 139.98 233.01 152 227.43 165.04 
M 225.69 168.97 223.81 172.97 
M 276.91 100.12 272.88 102.94 266.49 107.95 260.75 113.05 258.1 115.69 255.55 118.47 253.14 121.41 250.96 124.39 248.15 128.86 
M 246.5 131.87 243.49 138.28 
M 242.01 141.93 236.78 156.14 234.5 161.64 
M 233 165.26 230.62 170.96 227.79 176.9 
M 225.68 180.74 224.3 183.03 
M 182.89 219.68 179.94 221.33 
M 281.58 101.45 276.22 105.31 272.93 107.95 266.86 113.38 261.63 118.98 257.05 124.89 255.05 127.89 251.56 133.93 248.41 140.32 235.44 172.83 
M 206.78 209.83 199.47 214.53 
M 286.8 102.63 282.71 105.44 279.34 108.05 272.97 113.64 270.15 116.5 267.58 119.42 263.07 125.42 258.34 133.01 
M 256.62 136.09 254.13 140.84 252.59 144.28 245.79 160.06 240.26 174.48 237.43 180.32 
M 217.72 207.47 216.75 208.27 
M 202.69 217.38 199.06 219.31 
M 192.35 222.53 189.31 223.79 
M 292.46 103.84 289.14 105.96 285.69 108.42 282.31 111.12 279.09 113.96 276.13 116.87 273.49 119.82 271.12 122.83 268.98 125.89 265.18 132.02 259.93 141.42 257.62 146.51 
M 256.03 150.15 249.69 163.6 247.64 168.94 
M 244.87 176.09 242.07 181.89 240.71 184.28 
M 223.01 208.96 219.98 211.54 
M 213.27 216.08 209.64 218.11 
M 298.48 105.01 292.18 109.1 288.71 111.66 285.32 114.43 282.2 117.33 279.45 120.27 277.02 123.27 274.85 126.34 271.07 132.55 265.79 141.97 259.43 155.91 255.48 163.41 253.75 167.03 250.11 175.93 
M 231.91 205.91 231.69 206.17 
M 226.16 211.98 224.7 213.3 221.59 215.67 219.94 216.75 
M 205.66 223.8 202.14 225.05 
M 304.33 106.07 298.71 109.89 291.93 114.99 288.62 117.84 285.61 120.78 283.01 123.76 280.76 126.82 278.76 129.93 271.57 142.5 269.97 145.77 265.38 156.11 262.46 161.52 
M 260.45 165.14 257.68 170.53 252.58 181.58 250.32 185.63 
M 231.95 212.02 230.63 213.4 227.76 215.94 224.73 218.24 223.11 219.26 
M 309.31 107.26 298.69 115.56 295.43 118.35 290.85 122.78 
M 288.13 125.82 286.85 127.35 283.72 132.01 
M 281.85 135.16 277.28 143.01 275.61 146.25 271.04 156.54 269.25 160.02 266.24 165.27 
M 264.2 168.83 255.5 185.44 
M 239.32 209.11 237.06 211.97 
M 229.2 219.39 226.2 221.44 
M 313.59 108.62 305.21 115.99 299.15 121.73 293.33 127.9 290.82 131.02 288.66 134.12 282.95 143.49 279.57 150 277.23 155.15 
M 275.58 158.65 272.82 163.89 269.77 169.11 
M 267.66 172.67 265.59 176.32 
M 263.56 180.08 260.29 186.07 
M 249.11 202.03 248.44 202.93 
M 243.9 209.12 241.73 211.94 
M 231.96 221.45 229.11 223.33 
M 222.95 226.35 219.66 227.46 
M 317.7 109.92 313.99 113.44 308.45 119.07 297.14 131.61 294.67 134.76 292.52 137.84 288.58 143.93 286.75 147.11 284.19 152.05 
M 280.82 158.94 279.02 162.44 
M 275.16 169.46 268.76 180.4 
M 266.58 184.26 264.7 187.53 
M 253.57 203.16 248.63 209.26 
M 321.59 111.33 314.21 119.2 300.68 135.39 298.27 138.54 294.15 144.52 292.29 147.55 282.29 166.18 
M 280.36 169.7 271.87 184.6 
M 262.19 199.65 261.96 199.95 
M 259.18 203.39 256.44 206.56 
M 253.82 209.49 251.33 212.22 
M 246.62 217.15 244.29 219.36 
M 325.43 112.85 319.76 119.18 304 139.15 299.66 145.2 297.78 148.12 293.22 156.06 
M 291.32 159.48 279.34 180.9 
M 269.95 196.87 266.32 201.99 264.96 203.63 
M 256.75 212.47 254.14 215.02 
M 244.35 223.34 241.92 224.96 
M 329.4 114.43 325.28 119.07 322.7 122.29 313.58 134.38 
M 310.97 137.82 307.3 142.77 303.26 148.69 288.63 173.55 
M 286.59 177.17 279.92 189.32 
M 277.06 194.28 274.29 198.71 271.83 202.28 267.99 207.05 
M 262.45 212.72 259.65 215.29 
M 246.87 225.11 244.38 226.46 
M 333.57 115.99 328.28 122.16 322.98 129.1 315.2 139.75 308.79 149.14 294.87 171.95 290.78 179.03 285.15 189.28 
M 283.72 191.86 283.26 192.67 
M 280.93 196.63 278.48 200.47 
M 275.98 204.05 273.45 207.3 
M 270.86 210.25 268.12 213 
M 265.26 215.58 259.68 220.16 
M 254.5 223.87 252 225.39 
M 249.48 226.69 246.95 227.78 
M 337.89 117.47 329.91 127.22 
M 327.12 130.85 320.53 139.91 315.22 147.97 
M 313.38 150.92 311.56 153.84 
M 309.69 156.86 303.24 167.04 
M 301.04 170.5 295.01 180.91 
M 288.68 192.35 286.43 196.24 
M 281.52 203.76 278.93 207.2 
M 270.74 215.87 267.89 218.28 
M 342.11 118.92 331.34 132.62 325.85 140.03 321.36 146.76 312.11 162.06 303.94 174.23 
M 301.91 177.63 296.22 188.3 
M 294.16 192.04 289.64 199.54 
M 284.57 206.71 281.85 210.03 
M 279.04 213.13 276.16 215.98 
M 267.61 222.81 264.88 224.6 
M 346.25 120.34 328.79 143.69 324.6 150.22 320.27 157.72 
M 318.41 160.86 316.31 164.19 
M 313.95 167.64 308.98 174.61 
M 306.77 178.03 304.82 181.43 
M 303.05 184.86 298.52 193.72 296.4 197.32 292.82 202.65 
M 275.87 220.91 272.98 223.05 
M 267.46 226.49 265 227.74 
M 350.28 121.72 331.88 147.35 329.77 150.63 320.35 166.48 316.76 171.58 
M 314.24 175.01 310.7 180.17 307.9 185.22 
M 306.21 188.63 303.66 193.8 300.64 198.94 
M 295.88 205.63 293.21 208.9 
M 354.33 123.12 335.11 151.03 323.16 170.61 316.02 180.62 313.9 183.94 311.19 189.01 
M 309.51 192.4 307.76 195.75 
M 305.84 199.06 303.69 202.3 
M 296.01 211.71 293.14 214.78 
M 358.35 124.62 355.88 128.15 348.32 139.87 340.56 151.4 337.34 156.51 
M 335.34 159.76 333.31 163.05 
M 331.23 166.43 326.09 174.88 320.45 182.97 
M 318.35 186.17 311.96 197.78 309.98 200.99 306.57 205.59 
M 304.09 208.57 300.08 213.03 295.8 217.38 
M 287.06 224.78 284.68 226.37 
M 362.46 126.29 358.86 131.43 356.28 135.46 335.19 169.04 329.22 179.23 322.83 188.58 319.94 193.32 
M 316.17 199.78 314.06 202.92 
M 306.7 211.63 301.23 217.18 
M 298.4 219.84 295.55 222.32 
M 366.61 127.97 361.89 134.73 356.56 143.2 344.39 163.44 340.15 170.2 337.22 175.26 
M 335.33 178.67 331.47 185.15 
M 325.18 194.11 321.3 200.26 
M 311.91 211.9 309.24 214.54 
M 306.52 217.13 303.76 219.66 
M 370.7 129.67 364.89 138.02 359.31 146.93 349.37 164.33 343.09 174.74 340.3 179.74 
M 338.46 183.1 335.69 187.93 333.66 190.88 330.35 195.12 
M 324.13 203.85 320.9 208.21 319.68 209.59 
M 314.47 214.83 311.76 217.28 
M 374.74 131.39 370.71 137.01 364.91 146.03 346.15 179.07 341.63 187.39 
M 339.71 190.59 336.57 194.97 333.14 199.03 
M 328.77 204.53 326.66 207.33 
M 324.5 210.1 322.19 212.75 
M 378.75 133.09 373.57 140.41 367.78 149.79 350.18 181.54 
M 348.42 184.84 345.71 189.93 342.66 194.72 
M 340.45 197.61 338.14 200.3 
M 333.47 205.5 331.25 208.14 
M 322.21 218.19 319.61 220.27 
M 382.77 134.8 379.27 139.72 373.47 148.85 361.33 170.69 
M 358.96 174.96 356.91 178.74 
M 355.09 182.18 351.58 188.94 
M 349.7 192.4 346.56 197.38 343.13 201.7 
M 338.42 206.81 334.91 210.52 331.7 214.29 
M 329.56 216.73 327.35 218.96 
M 386.83 136.53 381.92 143.61 376.32 152.9 363 176.87 356.45 189.64 
M 352.55 196.68 350.35 200.02 
M 343.39 208.38 341.07 210.77 
M 390.92 138.26 386.08 145.42 
M 383.23 150.08 377.83 159.57 
M 375.18 164.37 365.75 180.99 362.77 186.83 
M 359.33 193.99 357.36 197.55 
M 352.89 204.35 351.73 205.94 348.26 210.04 
M 395.17 140.02 393.21 142.75 390.24 147.36 372.16 178.55 
M 369.51 183.19 367.27 187.42 
M 363.73 194.88 361.92 198.42 
M 399.6 141.79 395.97 147.15 393.08 151.93 384.77 166.28 373.12 185.59 370.76 189.96 368.02 195.7 
M 362.29 206.14 360.07 209.48 
M 404.29 143.67 401.84 147.1 398.88 151.85 390.37 166.34 378.33 185.46 375.68 190.09 372.52 196.2 
M 409.42 145.57 407.88 147.47 404.8 151.94 397.56 164.04 
M 394.63 168.75 383.84 185.02 379.8 191.99 
M 375.35 200.11 371.58 206.6 
M 414.7 147.47 410.71 152.34 407.68 156.85 400.48 168.78 
M 397.41 173.34 392.69 179.97 388.13 186.79 
M 385.35 191.4 382.83 195.84 
M 418.88 150.51 416.61 152.98 413.35 157.11 410.39 161.63 404.76 171.08 401.72 175.55 393.99 186.3 
M 388.48 195.2 384.07 202.49 
M 418.88 157.78 415.86 161.78 408.81 173.27 
M 405.86 177.7 397.04 190.39 
M 394.31 194.69 391.65 198.94 
M 418.88 165.97 412.82 175.59 408.49 182.08 
M 405.64 186.27 402.89 190.42 
M 418.88 175 416.89 178.02 
M 414.04 182.34 411.26 186.54 
M 416.89 186.91 414.35 190.82 
M 134.81 121.61 134.81 121.61 
M 140.06 119.68 141.18 112.56 143.61 110.86 146.23 109.34 148.02 107 148.88 103.77 150.88 101.66 151.89 98.58 153.26 95.84 154.28 92.8 155.11 89.64 160.15 86.5 163.34 85.56 168.29 82.45 171.11 81.2 173.11 79.09 176.21 78.03 177.75 71.9 179.83 69.84 183.17 64.91 185.7 63.35 188.01 61.57 190.75 60.26 195.83 57.18 197.91 55.15 200.62 53.88 202.98 52.41 206.02 51.67 208.48 50.38 211.83 50.09 214.91 49.45 217.09 47.48 219.53 45.77 222.16 40.18 227.3 37.11 229.11 34.78 234.18 32.28 236.99 31.36 239.8 30.78 242.41 30 246.45 30.65 250.15 31.7 256.7 33.93 262.41 34.11 265.03 33.51 270.93 34.78 272.6 34.65 274.98 35.25 277.55 34.27 279.56 32.48 282.08 31.2 285.35 30.96 291.57 31.46 299.46 32.79 301.19 35.69 303.76 39.44 306.53 42.71 309.46 45.84 310.74 46.57 313.21 48.52 315.41 51.81 319.81 53.13 322.95 52.41 325.13 50.74 327.05 48.84 329.47 47.49 332.18 46.84 335.77 48.2 342.94 52.12 349.24 56.13 351.79 58.19 353.16 60.97 354.09 63.6 354.44 65.65 363.05 72.87 364.27 74.89 365.54 77.55 364.5 79.96 363.85 82.89 366.45 89.5 367.34 92.53 367.08 94.87 366.44 96.83 367.11 102.67 368.05 106.08 367.83 108.31 368.78 112.6 363.41 126.68 
M 356.36 123.82 356.36 123.81 
M 139.41 119.92 140.98 119.31 141.39 118.02 
M 144 118.23 145.66 117 145.38 115.32 145.56 113.13 146.71 108.45 
M 148.6 116.56 149.96 115.08 150.03 112.56 150.98 110.8 151.22 108.34 149.82 105.63 151.06 103.48 
M 153.22 114.94 154.29 113.65 154.47 108.56 155.43 107.13 155.91 105.18 
M 157.84 113.31 159.13 112.23 159.47 110.14 160.29 107.74 160.43 105.7 160.83 103.39 
M 162.48 111.76 163.54 109.91 163.82 106.21 164.18 103.69 163.34 98.12 164.19 96.27 
M 167.13 110.24 168.18 108.06 168.4 106.04 168.14 104.02 168.6 100.94 168.84 97.81 168.33 92.37 166.46 88.62 
M 171.79 108.73 172.74 106.76 173.37 104.31 173.8 99.38 173.44 96.61 173.48 94.62 
M 176.48 107.35 178.13 105.39 178.57 103.51 178.04 101.03 176.89 98.54 176.39 95.88 176.92 93.11 178.11 90.95 178.19 88.45 177.76 85.98 179.52 78.72 
M 181.18 105.96 182.41 104.12 182.8 101.72 182.74 99.11 183.22 96.57 183.47 94.04 183.11 88.82 183.81 86.84 184.35 83.79 184.37 77.11 183.24 74.26 182.99 71.72 183.18 69.13 
M 185.88 104.62 186.84 102.31 187.33 100.29 188.29 98.25 188.71 92.58 189.55 90.08 189.07 87.05 188.88 84.72 188.38 82.17 188.16 79.11 
M 190.6 103.33 191.7 101.62 192.21 99.42 192.65 96.76 192.98 91.76 193.3 89.29 192.64 86.06 192.57 83.23 192.26 80.65 193.75 77.04 193.65 73.83 193.37 71.03 
M 195.33 102.05 196.65 100.65 198.72 92.98 197.66 91.15 197.62 88.78 198.56 85.74 198.65 83.12 197.04 72.89 198.1 69.6 
M 200.1 100.94 201.18 99 201.66 93.87 202.51 90.93 203.46 88.76 203.44 83.86 204.33 77.51 203.94 75.76 
M 204.87 99.88 205.51 97.48 205.33 94.83 205.52 92.03 206.24 89.62 207.53 86.79 209.15 84.36 208.65 81.84 207.67 79.41 208.21 76.84 
M 209.65 98.82 210.39 96.54 210.64 91.4 211.56 88.51 212.12 85.66 212.44 82.46 213.07 81.15 213.7 78.23 213.38 74.84 214.03 70.01 214.03 66.66 213.21 64.22 212.59 60.67 212.61 57.34 
M 214.42 97.73 215.41 95.65 215.17 92.95 216.68 87.53 216.22 84.92 216.73 82.14 218.29 78.91 218.9 76.86 219.11 73.98 220.45 67.86 220.61 64.74 220.07 61.73 
M 219.19 96.64 220.22 94.61 220.58 92.15 220.69 89.41 221.2 86.47 221.49 83.67 221.57 80.85 222.52 76.72 222.72 73.58 224.92 66.88 225.53 63.53 224.82 60.29 223.86 57.71 223.58 53.36 224.31 50.47 
M 223.99 95.64 224.93 93.81 225.62 91.4 227.07 84.87 227.23 81.65 227.72 80.16 227.05 77.6 225.95 74.82 226.72 71.39 231.06 65.36 231.16 62.98 229.62 60.58 228.4 57.39 
M 228.79 94.7 229.88 92.88 230.71 87.44 231.84 84.4 231.98 81.49 231.47 78.83 231.41 76.58 232.38 74.46 233.16 71.02 233.14 68.08 233.48 65.96 234.62 63.2 235.29 59.4 234.33 53.2 234.42 51.86 
M 233.6 93.82 235.16 92.16 236.1 89.22 236.5 86.36 238.52 78.39 239.48 76.06 240.07 72.92 239.98 70.7 240.33 67.98 241.33 62.68 242.49 60.09 244.96 56.41 245.13 53.24 244 51.04 245.97 46.92 246.51 44.27 
M 238.5 93.77 240.18 91.78 241.53 89.73 242.68 87.35 244.44 79.94 245.51 77.48 246.24 74.84 248.52 71.97 249.7 66.28 250.62 63.83 251.31 60.99 251.74 57.75 252.37 54.56 254.02 51.58 254.18 48.19 255.24 44.95 255.88 43.32 257.04 41.92 
M 243.39 93.72 245.65 91.98 247.84 87.65 249.7 82.43 251.07 76.77 252.59 73.43 253.79 71.6 253.74 69.65 253.42 66.82 
M 248.27 94.08 250.82 92.56 252.32 90.47 254.99 85.54 256.07 82.94 256.7 80.35 258.65 76.71 260.86 71.79 260.34 69.74 261.3 66.81 
M 253.12 94.76 255.18 93.46 256.74 91.33 259.88 85.98 260.7 83.12 263.08 78.86 263.36 76.65 264.21 74.63 266.7 70.88 268.43 67.86 269.78 64.6 271.48 61.72 272.67 58.09 273.55 53.62 275.76 51.29 278.04 48.31 
M 257.97 95.46 260.22 93.9 261.85 91.62 263.3 88.75 264.09 86 266.06 83.83 267.75 79.27 268.28 77.16 269.45 74.4 273.68 68.85 276 66.55 277.39 64.61 278.34 61.89 278.16 59.04 279.41 56.83 281.55 54.46 
M 262.74 96.53 265.1 94.97 266.88 92.69 269.41 88.05 271.31 86.11 273.23 83.79 274.39 81.02 275.39 77.67 276 74.78 277.51 72.44 281.72 69.01 
M 267.52 97.6 269.77 96.05 273.25 91.7 278.88 85.78 279.53 82.7 281.47 76.61 283.12 74.33 283.98 72.16 287.64 66.16 289.31 64.09 291.31 62.11 291.92 60.55 
M 272.26 98.79 274.71 97 281.33 88.47 283.68 83.85 285.69 81.41 287.06 78.67 288.61 76.55 291.07 73.88 
M 276.97 100.14 279.45 98.49 281.39 96.11 284.45 91.06 287.52 87.81 290.99 82.59 298.24 74.6 299.4 72.29 300.9 70.32 304.24 66.55 306.62 64.25 308.59 61.06 
M 281.68 101.48 284.45 100.2 286.6 97.7 287.79 94.9 289.04 92.57 290.55 90.98 292.17 88.63 294.5 86.29 296.57 83.84 297.65 81.6 299.54 79.39 300.82 76.44 
M 286.45 102.56 288.81 101.41 290.45 98.84 291.68 96.47 293.62 94.63 294.86 91.96 299.97 84.66 301.39 82.22 302.43 79.28 303.89 76.64 
M 291.24 103.58 293.5 102.29 295.05 100.03 296.5 97.51 298.28 95.48 300.05 92.99 301.65 90.36 303.66 87.83 305.05 84.9 306.92 82.57 307.2 79.33 308.36 76.95 308.93 74.54 310.29 72.92 313.55 71.62 315.37 69.62 316.73 66.42 319.52 63.39 320.37 60.18 320.49 57.8 321.82 56.42 324.95 52.57 
M 296.03 104.56 298.1 103.16 299.7 100.59 303.03 95.89 304.25 93.32 306.22 91.02 307.79 88.8 309.29 86.33 310.04 84.43 311.89 81.64 313.61 76 315.15 73.75 317.7 72.47 
M 300.85 105.43 302.98 103.65 304.56 101.29 306.55 99.04 307.72 96.45 309.79 94.98 311.07 92.81 312.65 90.62 313.17 88.06 314.63 85.22 316.05 83.16 317.75 77.09 319.16 74.52 322.06 72.74 323.99 70.6 326.17 67.5 326.73 62.49 
M 305.67 106.31 307.83 104.54 309.69 102.39 311.24 100.21 313.16 98.11 315.55 96 318.5 91.32 318.9 88.54 320.74 86.27 322.22 83.26 322.94 80.27 324.47 76.75 326.32 74.39 329.21 71.26 331.6 68.29 
M 310.38 107.6 312.84 106.16 315.07 104.46 321.59 95.75 327.17 86.87 328.94 85.37 331.47 81.02 333.98 79.41 334.53 77.7 337.05 74.7 339.5 70.89 341.55 68.59 
M 315.05 109.08 317.42 107.67 319.72 105.32 321.82 102.91 323.62 100.41 324.86 98.18 328.89 94.24 332.22 89.83 332.7 87.69 333.57 85.72 336.73 83.31 343.55 76.54 346.14 71.59 348.76 68.96 350.34 65.4 351.77 62.64 
M 319.71 110.58 322.07 108.86 324.21 106.71 326.88 104.51 330.17 99.59 337.09 94.57 338.01 92.54 339.65 89.65 342.49 87.44 344.96 84.94 
M 324.26 112.39 328.86 109.05 333.88 104.58 337.64 100.29 341.68 96.03 343.17 93.4 345.51 92.11 348.25 90.22 
M 328.81 114.19 333.58 110.1 336.11 108.27 338.2 106.28 340.55 104.6 342.54 102.76 344.12 100.56 347.42 95.03 352.15 92.68 354.59 90.83 
M 333.39 115.92 335.48 114.2 337.21 112.27 339.56 110.11 342.31 108.26 345.04 106.1 347.31 104.02 349.86 100.18 351.76 97.89 354.38 95.65 356.5 94.46 358.52 91.71 359.81 89.33 360.2 86.02 361.8 82.19 
M 338.02 117.51 340.19 116.11 343.95 111.58 346.39 110.08 348.86 107.57 351.16 105.1 352.39 102.54 354.37 100.62 356.71 99.26 358.9 97.1 360.34 93.96 361.58 91.71 
M 342.65 119.1 345.11 117.79 347.4 116.06 350.02 114.83 352.43 112.82 354.69 110.14 355.82 107.32 
M 347.27 120.69 350.62 120.06 353.72 118.62 358.18 115.4 360.12 112.28 362.96 109.74 364.3 108.36 365.3 107.03 
M 351.9 122.28 355.67 121.8 359.26 120.43 361.93 118.39 363.24 116.7 365.21 115.22 
M 122.87 187.11 125.7 187.13 128.76 186.94 137.99 185.86 146.81 185.35 152.6 184.54 170.58 182.96 179.42 182.66 182.6 183.08 185.62 183.15 188.74 183.11 192.01 182.76 198.03 182.61 201.05 182.7 206.46 183.42 212.2 183.12 214.99 182.73 217.91 182.9 221.02 183.34 224.06 183.01 227.04 183.26 229.86 183.19 232.51 183.34 235.46 184.17 238.81 184.16 242.22 184.37 248.63 185.47 251.67 185.76 254.7 185.44 257.92 185.46 262.23 186.64 264.95 187.61 272.16 188.53 275.81 188.81 278.52 189.51 280.89 189.2 285.95 189.3 289.29 189.84 262.34 199.63 256.39 200.52 253.76 201.3 247.88 202.25 240.33 204.95 231.41 205.95 225.05 206.09 216.87 207.67 213.97 208.02 210.97 208.27 201.41 208.02 198.74 208.4 196.29 209.01 193.28 209.05 187.99 209.87 185.03 209.96 178.54 208.83 175.64 208.5 172.38 207.81 161.39 207.11 157.29 206.58 131.61 200.63 129.51 199.31 126.45 198.21 122.51 195.86 
M 128.74 188.85 132 188.54 137.94 188.31 143.8 188.58 147.01 188.47 152.88 187.71 155.43 187.97 165.02 187.64 173.68 187.94 176.74 187.6 179.83 187.7 186.46 189.14 189.44 189.48 195.85 189.62 203.55 190.76 206.58 190.86 212.02 191.5 
M 128.8 190.76 135.13 190.55 138.09 190.66 140.99 191.03 147.06 191.47 155.94 191.2 158.89 191.6 162.2 191.64 168.05 192.97 173.84 193.25 176.93 193.16 179.97 193.69 183.02 194.9 186.69 195.8 189.94 196.27 195.72 196.27 206.35 198.42 
M 125.84 192.28 132.02 192.96 137.87 193.12 147.11 194.74 153.08 194.86 158.76 196.08 167.36 198.34 170.32 198.74 
M 125.92 193.93 128.96 194.61 132.04 195.06 137.59 195.63 150.51 198.76 155.67 199.53 164.05 202.93 166.8 204.37 169.46 205.2 
M 126.04 195.69 140.76 199.62 147.64 202.54 152.43 204.38 
M 208.66 234.52 211.78 239.7 214.36 243.31 217.58 247.28 218.39 249.73 222.82 258.95 222.93 262.26 222.79 265.32 221.33 267.91 219.37 270.08 218.53 272.94 217.36 275.47 215.81 277.99 212.28 277.98 206.75 280 203.68 278.71 200.06 276.87 197.55 276.47 195.36 278.12 192.51 279.12 189.83 277.27 181.2 270 168.28 241.18 167.16 239.27 166.09 235.5 163.8 231.6 159.43 226.56 
M 203.8 233.97 206.86 238.2 208.7 241.89 210.87 245.3 215.55 251.38 
M 198.94 233.41 201.96 237.44 204.67 240.37 205.78 243.88 207.45 247.07 211.09 252.54 213.69 255.81 216.04 258.35 217.49 260.83 
M 194.08 232.81 200.04 239.36 201.93 242.42 203.03 246.16 203.66 249.61 207.09 254.83 
M 189.23 232.16 192.13 236.16 196.69 241.32 199.06 244.56 202.76 254.42 206.6 261.11 208.45 263.7 
M 184.38 231.51 187.02 235.35 190.52 241.21 194.77 247.1 196.39 250.5 199.77 256.78 201.05 259.69 
M 179.56 230.67 183.75 237.61 185.67 240.48 186.89 243.7 188.88 246.21 190.17 249.8 195.39 259.04 197.75 265.07 198.83 266.88 199.08 268.43 200.24 271.15 202.62 273.84 
M 174.74 229.81 178.87 236.17 181.31 238.93 182.35 241.82 183.37 245.81 184.92 249.18 186.07 252.81 
M 169.93 228.88 177.28 241.23 179.42 248.67 180.7 252.42 182.6 255.38 182.91 258.34 184.28 259.22 184.99 261.2 188.15 268.11 189.41 271.69 190.1 274.9 
M 165.15 227.82 167.66 232.14 169.3 235.89 172.37 241.12 174.09 248 175.83 252.27 176.85 255.48 
M 380.98 207.98 384.7 214.08 387.88 216.61 390.77 219.52 394.01 222.26 395.34 229.25 394.51 232.24 390.5 236.2 389.3 238.83 387.72 241.38 385.14 242.91 383.64 245.47 382.01 247.67 380.7 250.2 379.85 253.4 378.47 256.07 372.78 257.09 370.33 258.72 367.87 259.05 364.39 258.37 360.22 257.23 357.59 257.68 355.62 258.8 352.71 264.15 348.12 262.64 344.86 260.69 342.11 260.34 339.77 260.4 337.14 259.86 334.99 258.9 330.25 256.35 320.55 242.67 314.76 236.94 311.18 234.06 307.13 229.25 
M 376.42 209.78 379.95 214.21 385.02 218.53 
M 371.87 211.57 375.38 215.89 378.38 218.62 381.02 220.77 
M 367.31 213.34 373.24 220.16 376.05 222.21 380.33 226.72 382.32 229.7 382.69 232.55 
M 362.72 215.06 371.19 224.1 372.78 227.9 375.48 229.97 377.71 232.08 
M 358.14 216.78 366.66 225.43 368.58 228.41 369.93 231.41 372.61 233.68 375.11 237.46 
M 353.5 218.33 356.7 221.77 358.74 224.74 361.41 227.44 367.34 236.44 369.35 238.96 373.85 243.74 
M 348.82 219.78 354.87 226.22 357.43 228.72 360.28 231.06 361.38 234.16 362.24 238 
M 344.15 221.23 347.38 225.26 350.02 227.92 352.64 229.71 355.66 232.37 357.69 235.65 359.87 242.02 361.41 244.85 364.93 249.02 367.45 250.85 
M 339.42 222.51 342.67 226.18 346.97 231.57 349.59 234.5 352.2 236.98 354.49 240.02 355.97 242.63 358.66 246.01 
M 334.7 223.79 340.45 229.83 342.34 233.29 344.71 235.45 351.31 245.34 354.01 247.57 356.18 250.56 357.65 253.79 358.91 255.78 361.44 256.71 
M 329.94 224.93 333.41 228.11 336.05 230.83 341.44 240.57 
M 325.13 225.83 330.7 231.95 332.63 234.63 334.57 238.67 336.65 242.2 339.03 245.02 340.12 247.71 341.83 248.54 
M 320.32 226.73 323.63 230.35 325.63 233.18 327.37 236.24 329.61 239.76 332.29 243.37 333.55 245.84 335.88 248.81 337.99 250.72 339.09 252.29 
M 315.51 227.64 320.74 234.7 324.43 240.65 328.28 247.47 330.46 250.21 334.82 254.32 335.57 257.45 
M 310.7 228.57 321.35 240.78 323.39 247.99 328.7 252.66 
M 417.9 148.62 421.38 147.72 431.75 142.62 434.13 141.05 439.6 136.96 445.35 133.48 448.71 132.08 450.8 131.4 455.5 127.72 462.96 126.41 465.46 124.29 467.38 122.97 469.51 120.83 470.63 118.73 473.47 117.47 477.92 115.95 483.45 113.18 484.79 110.48 486.83 106.94 482.43 121.1 480.86 123.64 480.1 126.99 477.54 128.55 473.79 132.95 472.66 135.86 471.78 139.09 464.74 144.49 462.73 146.58 460.51 148.38 459.55 151.41 459.25 155.07 458.61 158.4 457.71 161.47 450.2 165.98 448.7 168.61 445.62 173.28 444.73 175.92 444.95 179.04 445.75 182.65 446.96 186.33 450.17 192.3 453.59 197.8 454.56 200.61 455.07 207.4 457.82 221.79 455.37 221.92 452.49 220.17 449.7 217.94 448.48 214.83 442.62 210.76 440.38 208.47 435.59 205.39 433.07 202.86 423.88 198.43 421.26 196.42 417.9 192.94 
M 426.83 148.38 429.35 147.02 440.78 141.51 445.69 137.53 448.86 136.13 452.31 135.35 
M 424.79 151.85 427.52 150.85 429.83 150.5 432.83 149.59 438.7 146.15 444.76 144.05 449.85 140.97 455.9 138.7 
M 427.89 153.95 433.12 152.95 436.9 150.89 443.28 148.06 445.54 147.24 447.91 146.09 451.05 145.39 453.58 143.59 455.3 142.84 
M 425.3 157.19 427.97 157.14 430.38 156.39 433.69 156.09 442.9 151.58 446.2 151.77 448.39 150.89 450.48 149.63 
M 425.09 159.94 428.04 159.95 430.45 159.24 433.88 158.52 437.8 158.19 441.16 156.97 443.99 155.3 446.7 155.88 450.08 156.16 452.11 154.84 454.92 153.56 458.82 152.45 
M 427.74 162.29 430.81 162.73 433.96 161.71 
M 421.96 164.84 425.38 164.88 428.16 164.67 430.83 165.33 441.84 163.41 447.82 163.76 
M 428.93 167.14 430.37 168.36 434.45 167.95 438.45 168.41 442.6 167.62 445.88 167.73 
M 425.05 169.34 431.15 170.35 
M 428.05 172.68 431.84 172.73 437.5 174.98 
M 417.9 173 421.74 174.42 425.73 174.86 432.75 176.77 436.7 176.77 439.43 177.53 
M 417.9 175.22 421.78 177.35 425.97 178.25 434.29 180.43 437.5 181.56 440.33 181.24 
M 421.83 179.99 430.16 182.83 434.42 184.62 437.15 185.4 439.1 185.37 
M 421.73 182.38 425.6 184.18 434.1 186.34 436.79 186.8 439.23 186.4 442.18 187.17 
M 429.23 186.81 433.13 187.54 
M 421.83 187.22 425.02 188.88 428.66 189.37 432.32 190.26 435.68 191.42 438.48 193.17 440.96 194.31 
M 417.9 186.3 421.62 189.51 424.5 191.33 428.36 192.12 435.49 193.94 437.34 195.78 439.82 196.82 443.26 197.68 
M 421.64 192.2 424.63 193.67 428.04 194.56 431.8 195.23 434.59 196.63 439.71 200.05 441.89 200.48 
M 424.44 196.11 431.04 198.15 433.81 199.76 436.35 202.2 441.65 204.31 445.18 206.91 446.83 209.35 449.72 211.74 
M 45.23 160.23 46.01 159.25 48.15 157.16 53.2 152.48 56.61 149.68 65.6 143.22 70.66 140.4 81.98 135.92 100.6 130.1 111.69 127.46 116.42 126.71 120.24 126.29 122.46 126.23 124.25 131 124.73 135.55 126.78 149.31 130.13 158.78 130.53 163.32 129.18 167.6 125.93 180.58 123.86 184.76 118.48 197.42 116.23 201.57 113.71 205.68 110.22 209.7 100.67 209.71 93.55 209.19 87.23 208.35 81.62 207.12 76.8 205.28 72.58 202.94 68.51 200.19 64.61 196.99 61.01 193.43 57.85 189.76 55.04 185.7 
M 109.28 153.6 109.44 157.49 107.76 160.98 104.44 167.36 102.71 170.15 100.52 172.56 99.06 174.8 97.98 176.96 96.85 182.15 96.37 185.22 95.17 188.73 79.7 190.24 75.35 190.22 71.42 189.49 67.87 188 64.42 185.78 
M 52.14 182.01 42.03 164.97 41.35 162.46 42.59 160.28 45 160.02 46.9 161.74 55.44 185.5 
M 54.66 186.09 44.77 179 34.95 171.46 33.22 169.73 33.16 167.13 35.13 165.53 37.54 165.88 45.66 174.93 55.32 185.36 
M 72.62 167.52 71.18 162.09 71.59 156.48 73.8 151.31 77.56 147.14 82.48 144.42 88.01 143.44 93.57 144.31 98.53 146.93 102.38 151.03 104.69 156.15 105.21 161.75 103.88 167.21 100.86 171.95 96.46 175.44 91.16 177.32 85.54 177.37 80.21 175.6 75.74 172.19 72.62 167.52 
M 72.41 167.04 71.72 165.04 71.29 162.97 71.11 160.86 71.2 158.75 71.55 156.66 72.15 154.63 73 152.69 74.09 150.88 75.39 149.21 76.88 147.71 78.55 146.41 80.37 145.33 82.31 144.48 84.34 143.88 86.42 143.53 88.54 143.44 90.64 143.61 92.72 144.05 94.72 144.74 
M 74.22 166.29 73.61 164.52 73.23 162.69 73.07 160.82 73.15 158.95 73.58 156.7 
M 77.34 150.02 79.66 148.03 81.27 147.07 82.98 146.32 84.78 145.78 86.62 145.47 88.5 145.4 90.36 145.55 92.2 145.94 93.97 146.54 
M 76.03 165.54 75.5 164 75.16 162.4 75.03 160.78 75.1 159.15 75.43 157.33 
M 78.73 151.4 80.76 149.64 82.16 148.81 83.66 148.16 85.22 147.69 86.83 147.42 88.46 147.35 90.08 147.49 91.68 147.82 93.22 148.35 
M 77.84 164.79 77.39 163.48 76.99 160.74 77.3 157.89 
M 80.16 152.72 81.87 151.26 83.06 150.55 85.66 149.6 88.41 149.31 89.8 149.43 92.47 150.16 
M 79.65 164.04 79.04 161.84 78.94 160.7 79.19 158.38 
M 81.58 154.07 82.97 152.88 83.95 152.29 86.1 151.5 87.23 151.32 89.52 151.36 91.72 151.97 
M 81.96 163.31 81.38 161.14 81.55 158.91 
M 83.41 155.75 83.94 155.16 85.9 154.07 88.12 153.68 90.34 154.03 92.32 155.08 93.86 156.72 94.79 158.77 94.99 161 94.46 163.19 93.25 165.08 91.49 166.48 89.37 167.23 87.13 167.25 84.99 166.55 83.21 165.18 81.96 163.31 
M 84.46 154.87 83.84 156.11 
M 82.36 159.07 81.39 161 
M 86.37 153.99 84.87 156.98 
M 83.71 159.3 81.87 162.98 
M 87.98 153.7 85.88 157.91 
M 85.22 159.22 82.65 164.36 
M 89.36 153.87 83.57 165.46 
M 90.67 154.2 84.63 166.27 
M 91.83 154.82 85.83 166.82 
M 92.87 155.66 87.08 167.24 
M 93.83 156.68 88.55 167.24 
M 94.54 158.21 90.17 166.95 
M 94.93 160.35 92.12 165.99 
M 55.37 185.53 59.7 189.86 
M 52.16 176.44 52.34 176.63 
M 46.36 158.9 50.33 162.87 
M 49.38 156.04 54.89 161.56 
M 52.42 153.22 56.16 156.95 
M 55.6 150.52 61.19 156.11 
M 58.95 148 64.52 153.57 
M 62.37 145.54 66.17 149.35 
M 65.8 143.1 69.31 146.61 
M 69.58 141 74.82 146.25 
M 73.65 139.2 77.51 143.06 
M 77.85 137.53 83.7 143.38 
M 82.08 135.89 85.7 139.5 
M 86.58 134.51 90.14 138.07 
M 91.02 133.08 96.69 138.75 
M 95.45 131.64 100.39 136.58 
M 99.97 130.29 104.22 134.53 
M 104.64 129.08 107.78 132.22 
M 109.4 127.97 113.52 132.08 
M 114.35 127.04 118.44 131.13 
M 119.55 126.36 122.9 129.72 
M 90.62 133.21 90.63 133.25 
M 71.01 154.81 70.78 154.51 70.55 154.54 
M 100.29 174.16 99.23 174.26 97.6 175.07 96.48 175.43 
M 112.13 127.39 112.23 127.82 112.47 127.97 114.19 128.03 
M 118.12 148.57 115.49 151.01 114.62 151.48 113.28 151.91 112.63 151.95 111.59 151.67 107.49 149.73 
M 53.31 168.1 47.49 160.68 46.03 159.22 
M 116.46 170.95 114.87 171.64 114.1 171.81 112.8 171.67 112.31 171.35 111.12 170.02 110.18 169.33 108.12 168.39 106.72 167.37 106.24 166.87 106.07 166.4 
M 76.7 143.04 75.82 142.1 74.99 141.71 74.13 141.86 73.35 142.56 
M 108.96 192.69 108.31 194.31 106.53 195.99 105.51 196.37 104.57 196.51 103.88 196.32 103.48 196.03 
M 95.16 131.72 91.41 133 91.02 133.81 
M 62.81 195.02 61.9 194.31 
M 71.36 143.26 71.81 147.33 70.94 150.14 
M 72.37 154.66 71.68 153.72 71.32 153.68 71.13 154.03 
M 72.05 150.93 71.41 151.68 71.04 152.44 70.84 153.33 70.93 154.32 
M 94.71 132.08 91.43 133.14 90.76 134.59 
M 53.42 166.64 49.78 161.52 48.82 160.38 47.5 159.36 46.74 158.53 
M 95.66 197.33 96.16 196.07 96.06 195.41 95.74 195.16 93.33 194.42 
M 92.5 199 93.03 198.19 93.38 197.22 93.46 196.33 93.15 194.91 86.29 189.89 84.64 188.29 
M 93.13 191.91 91.93 192.29 91.3 192.21 90.69 191.91 85.66 188.12 84.01 186.41 83.46 185.38 83.14 183.52 
M 88.21 194.79 85.43 192.32 81.32 189.25 80.69 188.43 80.33 187.51 79.96 182.73 80.32 181.52 
M 118.79 138.66 119.73 136.42 120.79 134.97 121.57 134.54 124.57 134.07 
M 112.96 128.18 114.67 127.97 
M 57.61 186.49 56.61 185.71 56.19 185.79 55.75 186.12 
M 107.4 155.94 107.34 153.7 106.75 152.7 105.88 151.83 103.95 150.87 101.58 150.18 
M 107.3 181.25 109.01 181.77 111.33 181.86 112.61 182.68 
M 88.47 203.81 88.56 203.06 88.29 202.36 87.79 201.7 87.09 201.19 83.76 199.74 82.74 199.57 82.1 199.84 
M 127.28 175.29 125.42 173.79 123.37 172.92 122.85 172.96 121.7 173.66 121 174.79 
M 103.37 191.74 102.81 192.68 102.86 193.29 
M 110.09 170.45 104.34 167.85 103.54 167.75 
M 101.58 201.93 101.3 201.08 101.19 199.79 101.45 198.63 102.32 197.4 
M 90.59 133.22 90.67 134.44 
M 102.93 173.16 101.65 172.57 100.51 172.54 98.05 174.46 97.09 174.94 
M 68.23 169.93 68.8 171.45 70.07 173.21 70.9 173.89 71.58 173.6 
M 64.58 154.3 64.96 154.64 66.31 154.89 
M 67.96 154.29 66.86 154.18 66.34 154.58 
M 116.25 145.32 114.11 145.25 113.24 145.06 111.52 144.04 108.91 141.41 108.06 141.17 106.98 141.37 
M 74.98 203.48 75.33 203.13 
M 71.38 183.41 71.99 181.36 72.61 180.55 75.05 178.55 75.71 176.82 75.78 175.77 75.52 174.83 73.87 170.89 
M 84.16 181.41 85.39 179.87 86.85 177.36 
M 43.73 178.2 47.23 182.04 50.47 185.31 53.87 188.41 57.39 191.36 64.61 196.99 
M 45.98 180.67 46.1 179.93 
M 45.31 179.95 45.54 179.54 
M 124.28 131.31 128.06 135.09 
M 125.81 125.01 134.66 133.85 
M 131.5 122.86 139.67 131.04 
M 137.2 120.73 148.07 131.61 
M 142.92 118.63 152.96 128.67 
M 148.67 116.54 156.99 124.86 
M 154.46 114.5 164.39 124.43 
M 160.27 112.48 171.16 123.37 
M 166.18 110.56 172.69 117.07 
M 172.09 108.64 183.28 119.83 
M 178.14 106.86 187.11 115.82 
M 184.19 105.08 190.89 111.77 
M 190.35 103.4 201.17 114.22 
M 196.51 101.74 206.09 111.32 
M 202.92 100.32 209.86 107.25 
M 209.33 98.89 219.14 108.7 
M 215.71 97.44 222.81 104.54 
M 222.11 96.01 232.67 106.57 
M 228.66 94.73 239.97 106.04 
M 235.57 93.8 242.61 100.84 
M 243.32 93.72 251.51 101.91 
M 252.04 94.61 260.57 103.14 
M 261.51 96.25 271.77 106.51 
M 271.73 98.64 283.11 110.02 
M 282.67 101.75 289.5 108.58 
M 292.63 103.87 299.55 110.79 
M 302.28 105.69 311.13 114.55 
M 312.78 108.36 321.02 116.61 
M 324.88 112.64 332.59 120.34 
M 337.37 117.29 346.06 125.98 
M 349.29 121.38 360.95 133.04 
M 361.74 126 372.63 136.89 
M 375.13 131.56 381.89 138.32 
M 388.73 137.33 395.07 143.67 
M 401.98 142.75 411.8 152.56 
M 414.44 147.38 420.35 153.28 
M 426.43 151.53 428.7 153.8 
M 239.28 134.38 239.78 134.8 239.93 135.76 239.58 136.31 239.09 135.89 238.94 134.93 239.28 134.38 
M 239.09 136.01 239.2 135.37 239.95 134.75 240.6 134.76 240.49 135.4 239.74 136.02 239.09 136.01 
M 251.95 129.93 252 130.57 251.42 131.36 250.78 131.5 250.73 130.86 251.32 130.07 251.95 129.93 
M 251.86 130.15 251.6 130.75 250.71 131.17 250.09 131 250.35 130.4 251.23 129.98 251.86 130.15 
M 235.48 119.05 235.14 119.6 234.2 119.9 233.61 119.64 233.95 119.09 234.88 118.8 235.48 119.05 
M 234.91 118.7 234.78 119.33 234 119.93 233.36 119.89 233.49 119.26 234.26 118.66 234.91 118.7 
M 237.29 147.48 237.52 148.08 237.19 149 236.62 149.32 236.39 148.71 236.73 147.79 237.29 147.48 
M 236.3 148.74 236.75 148.28 237.73 148.21 238.25 148.6 237.79 149.06 236.81 149.13 236.3 148.74 
M 223.76 142.65 224.2 142.17 225.17 142.07 225.7 142.44 225.26 142.92 224.29 143.02 223.76 142.65 
M 224.33 141.91 224.83 142.33 224.98 143.3 224.64 143.85 224.14 143.43 223.99 142.46 224.33 141.91 
M 226.61 126.07 227.2 126.35 227.6 127.24 227.42 127.86 226.83 127.59 226.43 126.69 226.61 126.07 
M 227.6 126.5 227.24 127.04 226.29 127.29 225.71 127.01 226.07 126.47 227.02 126.22 227.6 126.5 
M 253.92 139.18 254.54 139.35 255.08 140.17 254.99 140.82 254.37 140.64 253.83 139.82 253.92 139.18 
M 253.83 139.58 254.46 139.76 255 140.58 254.91 141.22 254.29 141.04 253.75 140.23 253.83 139.58 
M 243.5 127.15 242.85 127.17 242.09 126.55 241.98 125.91 242.63 125.89 243.39 126.51 243.5 127.15 
M 243.34 126.08 242.96 126.61 242.01 126.84 241.43 126.54 241.81 126.02 242.76 125.79 243.34 126.08 
M 262.54 154.23 263.19 154.29 263.87 154.99 263.91 155.64 263.26 155.58 262.58 154.88 262.54 154.23 
M 263.74 154.4 263.46 154.98 262.56 155.36 261.94 155.16 262.22 154.58 263.12 154.2 263.74 154.4 
M 269.72 141.86 270.23 142.26 270.41 143.22 270.09 143.78 269.58 143.38 269.39 142.42 269.72 141.86 
M 270.57 142.49 270.11 142.94 269.13 142.99 268.62 142.6 269.08 142.15 270.06 142.09 270.57 142.49 
M 262.69 131.14 262.96 130.55 263.86 130.15 264.48 130.34 264.2 130.93 263.31 131.33 262.69 131.14 
M 262.85 130.9 263.42 130.58 264.38 130.76 264.78 131.27 264.22 131.59 263.26 131.41 262.85 130.9 
M 250.48 155.17 250.7 154.56 251.55 154.08 252.18 154.2 251.97 154.81 251.12 155.3 250.48 155.17 
M 252.06 154.86 251.41 154.91 250.63 154.33 250.48 153.7 251.13 153.65 251.92 154.23 252.06 154.86 
M 279.88 126.25 280.31 126.74 280.32 127.71 279.91 128.21 279.48 127.73 279.46 126.75 279.88 126.25 
M 279.2 126.96 279.84 127 280.54 127.69 280.59 128.33 279.95 128.29 279.25 127.61 279.2 126.96 
M 272.91 118.81 272.27 118.88 271.46 118.33 271.3 117.7 271.94 117.63 272.75 118.19 272.91 118.81 
M 272.83 118.45 272.18 118.48 271.41 117.88 271.29 117.24 271.93 117.21 272.7 117.81 272.83 118.45 
M 262.21 119.79 262.65 120.26 262.69 121.24 262.29 121.75 261.85 121.28 261.81 120.3 262.21 119.79 
M 261.85 121.4 262.02 120.77 262.83 120.22 263.47 120.3 263.3 120.93 262.49 121.47 261.85 121.4 
M 252.89 119.38 252.52 119.91 251.57 120.14 250.99 119.85 251.37 119.32 252.32 119.08 252.89 119.38 
M 252.19 118.91 252.17 119.56 251.51 120.28 250.87 120.35 250.88 119.71 251.55 118.98 252.19 118.91 
M 266.85 165.77 266.32 165.41 266.08 164.46 266.37 163.88 266.9 164.25 267.14 165.19 266.85 165.77 
M 265.97 165.21 266.4 164.72 267.37 164.59 267.91 164.94 267.49 165.43 266.52 165.56 265.97 165.21 
M 250.85 166.06 251.47 166.22 252.03 167.03 251.95 167.67 251.33 167.51 250.77 166.7 250.85 166.06 
M 250.73 166.54 251.37 166.63 252.01 167.38 252.01 168.02 251.37 167.93 250.73 167.19 250.73 166.54 
M 257.16 146.6 257.77 146.81 258.27 147.66 258.15 148.29 257.53 148.09 257.04 147.24 257.16 146.6 
M 257.89 146.74 257.88 147.39 257.22 148.12 256.58 148.2 256.6 147.55 257.25 146.82 257.89 146.74 
M 254.69 182.88 254.6 182.24 255.13 181.41 255.75 181.23 255.84 181.87 255.31 182.7 254.69 182.88 
M 254.51 181.84 255.16 181.83 255.9 182.46 256.01 183.1 255.36 183.11 254.61 182.48 254.51 181.84 
M 264.66 111.09 264.43 111.7 263.57 112.17 262.94 112.03 263.17 111.42 264.03 110.96 264.66 111.09 
M 264.3 112.11 263.74 111.79 263.42 110.86 263.66 110.26 264.22 110.59 264.54 111.51 264.3 112.11 
M 273.24 102.48 273.83 102.76 274.22 103.66 274.03 104.28 273.44 104 273.05 103.1 273.24 102.48 
M 274.1 102.8 273.87 103.4 273.01 103.87 272.37 103.72 272.61 103.12 273.47 102.66 274.1 102.8 
M 289.81 118.82 289.18 118.96 288.32 118.48 288.1 117.87 288.73 117.74 289.59 118.21 289.81 118.82 
M 288.58 118.99 288.72 118.36 289.5 117.78 290.15 117.83 290.01 118.46 289.22 119.04 288.58 118.99 
M 233.91 205.73 233.89 206.19 233.26 206.07 233.05 205.8 
M 233.33 205.78 233.22 206.22 232.69 206.59 232.44 205.86 
M 245.12 182.01 244.62 181.6 244.44 180.64 244.77 180.08 245.28 180.49 245.45 181.45 245.12 182.01 
M 245.26 181.72 244.82 181.24 244.79 180.27 245.2 179.76 245.64 180.24 245.67 181.22 245.26 181.72 
M 232.93 181.3 232.68 181.9 231.8 182.33 231.18 182.17 231.42 181.58 232.3 181.14 232.93 181.3 
M 231.47 182.2 231.83 181.66 232.77 181.4 233.36 181.68 233 182.22 232.05 182.48 231.47 182.2 
M 226.62 107.69 227.21 107.42 228.15 107.69 228.51 108.23 227.92 108.5 226.98 108.24 226.62 107.69 
M 226.83 108.07 227.41 107.79 228.36 108.04 228.72 108.57 228.14 108.86 227.19 108.6 226.83 108.07 
M 246.29 110.54 246.2 111.18 245.46 111.82 244.81 111.82 244.91 111.18 245.65 110.54 246.29 110.54 
M 244.81 111.09 245.45 110.97 246.3 111.46 246.51 112.07 245.87 112.19 245.02 111.7 244.81 111.09 
M 217.44 122.79 217.32 123.42 216.56 124.04 215.91 124.01 216.03 123.38 216.79 122.76 217.44 122.79 
M 216.91 124.11 216.53 123.59 216.6 122.61 217.07 122.15 217.45 122.68 217.37 123.65 216.91 124.11 
M 236.74 102.71 236.58 103.34 235.77 103.89 235.13 103.82 235.29 103.19 236.1 102.64 236.74 102.71 
M 236.4 102.68 236.17 103.29 235.31 103.76 234.68 103.62 234.9 103.01 235.76 102.54 236.4 102.68 
M 254.75 109.28 254.18 109.6 253.22 109.41 252.83 108.89 253.39 108.57 254.35 108.76 254.75 109.28 
M 253.62 108.36 253.95 108.92 253.77 109.88 253.27 110.28 252.94 109.72 253.12 108.76 253.62 108.36 
M 227.49 173.72 227.03 174.17 226.05 174.23 225.53 173.84 225.99 173.39 226.97 173.32 227.49 173.72 
M 225.77 173.72 226.4 173.57 227.26 174.02 227.5 174.63 226.87 174.78 226 174.32 225.77 173.72 
M 224.31 206.21 224.06 206.93 223.5 207.25 223.26 206.65 223.36 206.38 
M 223.95 206.28 224.07 207.08 223.73 207.63 223.23 207.21 223.11 206.42 
M 224.24 222.81 224.72 223.25 224.82 224.22 224.46 224.76 223.98 224.32 223.87 223.34 224.24 222.81 
M 224.37 224.53 224.16 223.92 224.52 223.01 225.1 222.71 225.31 223.32 224.94 224.23 224.37 224.53 
M 274.92 175.85 274.49 175.37 274.46 174.39 274.88 173.89 275.31 174.37 275.33 175.35 274.92 175.85 
M 275.52 174.47 275.11 174.97 274.15 175.14 273.59 174.8 274 174.3 274.97 174.13 275.52 174.47 
M 245.8 102.63 245.76 101.99 246.36 101.21 246.99 101.08 247.03 101.73 246.43 102.51 245.8 102.63 
M 247.12 102.01 246.48 102.08 245.68 101.52 245.51 100.89 246.16 100.82 246.96 101.38 247.12 102.01 
M 207.66 177.31 208.31 177.26 209.1 177.85 209.24 178.48 208.59 178.53 207.8 177.94 207.66 177.31 
M 208.38 177.15 208.64 177.75 208.33 178.68 207.78 179.01 207.52 178.42 207.83 177.49 208.38 177.15 
M 223.72 165.56 224.34 165.35 225.24 165.71 225.54 166.29 224.93 166.5 224.02 166.13 223.72 165.56 
M 223.92 166.16 224.45 165.78 225.42 165.86 225.87 166.32 225.35 166.7 224.38 166.62 223.92 166.16 
M 222.27 156.94 221.63 156.83 221.01 156.07 221.02 155.43 221.66 155.53 222.28 156.29 222.27 156.94 
M 222.35 156.43 221.7 156.41 220.98 155.74 220.91 155.1 221.56 155.12 222.28 155.79 222.35 156.43 
M 279.81 165.83 279.83 165.18 280.49 164.46 281.13 164.38 281.11 165.03 280.45 165.75 279.81 165.83 
M 281.03 165.6 280.44 165.34 280.02 164.45 280.19 163.83 280.78 164.09 281.2 164.97 281.03 165.6 
M 285.73 158.01 285.16 157.71 284.81 156.79 285.03 156.18 285.6 156.49 285.95 157.4 285.73 158.01 
M 284.72 157.43 285.18 156.98 286.16 156.92 286.67 157.32 286.21 157.77 285.23 157.82 284.72 157.43 
M 292.67 154.78 292.87 154.16 293.72 153.67 294.35 153.78 294.15 154.4 293.3 154.89 292.67 154.78 
M 292.94 153.8 293.54 154.05 293.97 154.93 293.81 155.55 293.21 155.3 292.78 154.42 292.94 153.8 
M 284.61 176.75 284.19 176.26 284.2 175.28 284.63 174.8 285.05 175.29 285.04 176.27 284.61 176.75 
M 285.17 176.28 284.58 176.01 284.18 175.11 284.36 174.49 284.95 174.76 285.35 175.66 285.17 176.28 
M 295.09 167.73 294.9 168.36 294.08 168.88 293.44 168.79 293.62 168.17 294.45 167.64 295.09 167.73 
M 294.45 167.54 294.49 168.19 293.88 168.96 293.25 169.09 293.21 168.44 293.82 167.67 294.45 167.54 
M 198.19 180.51 198.82 180.62 199.44 181.38 199.41 182.03 198.78 181.92 198.16 181.15 198.19 180.51 
M 198.13 180.95 198.77 181.04 199.42 181.77 199.42 182.42 198.78 182.33 198.13 181.6 198.13 180.95 
M 179.81 178.02 179.18 178.17 178.31 177.73 178.07 177.13 178.69 176.97 179.57 177.42 179.81 178.02 
M 178.21 177.41 178.86 177.35 179.65 177.93 179.79 178.56 179.15 178.61 178.36 178.04 178.21 177.41 
M 199.47 224.96 199.33 225.6 198.55 226.18 197.9 226.13 198.04 225.5 198.83 224.91 199.47 224.96 
M 199.43 225.65 198.79 225.76 197.95 225.25 197.76 224.63 198.39 224.53 199.23 225.04 199.43 225.65 
M 202 153.27 201.54 152.82 201.45 151.84 201.84 151.32 202.3 151.77 202.38 152.75 202 153.27 
M 201.52 151.67 202.02 152.08 202.17 153.05 201.83 153.6 201.33 153.18 201.18 152.22 201.52 151.67 
M 196.2 212.37 196.82 212.52 197.39 213.32 197.33 213.97 196.7 213.81 196.13 213.01 196.2 212.37 
M 196.37 213.8 196.53 213.18 197.32 212.61 197.97 212.67 197.82 213.3 197.02 213.87 196.37 213.8 
M 294.21 180.01 294.28 179.37 294.99 178.7 295.64 178.67 295.57 179.32 294.86 179.99 294.21 180.01 
M 295.33 178.72 295.16 179.34 294.35 179.88 293.7 179.8 293.88 179.18 294.69 178.64 295.33 178.72 
M 308.76 166.43 308.28 166 308.16 165.02 308.52 164.49 309 164.92 309.12 165.89 308.76 166.43 
M 309.39 165.5 308.76 165.66 307.88 165.22 307.64 164.62 308.27 164.46 309.14 164.9 309.39 165.5 
M 302.89 155.79 303.49 156.03 303.95 156.89 303.81 157.52 303.2 157.29 302.74 156.42 302.89 155.79 
M 302.64 156.89 303.16 156.51 304.14 156.6 304.59 157.06 304.06 157.44 303.09 157.35 302.64 156.89 
M 207.09 135.7 207.71 135.87 208.26 136.68 208.19 137.32 207.56 137.15 207.01 136.34 207.09 135.7 
M 208.25 136.08 207.86 136.6 206.9 136.8 206.33 136.49 206.72 135.97 207.68 135.77 208.25 136.08 
M 198.13 138 197.65 137.57 197.53 136.59 197.9 136.06 198.38 136.49 198.49 137.47 198.13 138 
M 197.29 136.84 197.94 136.81 198.71 137.41 198.84 138.04 198.19 138.08 197.42 137.48 197.29 136.84 
M 259.96 92.81 259.45 93.2 258.47 93.14 258.01 92.69 258.52 92.3 259.5 92.36 259.96 92.81 
M 258.89 92.01 259.16 92.6 258.9 93.54 258.36 93.9 258.09 93.31 258.35 92.37 258.89 92.01 
M 245.65 94.46 245.01 94.4 244.33 93.7 244.3 93.05 244.94 93.11 245.62 93.82 245.65 94.46 
M 244.26 93.54 244.91 93.53 245.66 94.16 245.76 94.8 245.11 94.81 244.36 94.18 244.26 93.54 
M 323.84 179.83 323.2 179.96 322.35 179.48 322.13 178.87 322.76 178.74 323.62 179.22 323.84 179.83 
M 322.41 178.88 323.01 179.12 323.46 179.99 323.31 180.62 322.7 180.38 322.26 179.51 322.41 178.88 
M 299.46 136.1 299.26 136.71 298.42 137.22 297.78 137.1 297.98 136.49 298.82 135.99 299.46 136.1 
M 298.54 135.86 298.8 136.45 298.51 137.39 297.97 137.73 297.7 137.14 297.99 136.2 298.54 135.86 
M 288.1 137.13 288.46 137.67 288.33 138.64 287.85 139.07 287.49 138.53 287.62 137.56 288.1 137.13 
M 287.25 137.95 287.89 137.88 288.69 138.45 288.85 139.07 288.21 139.14 287.41 138.58 287.25 137.95 
M 278.29 137.74 278.7 138.24 278.68 139.22 278.24 139.69 277.83 139.19 277.85 138.21 278.29 137.74 
M 278.47 138 278.49 138.64 277.88 139.41 277.24 139.52 277.21 138.88 277.83 138.11 278.47 138 
M 285.75 198.45 285.39 197.91 285.5 196.94 285.98 196.5 286.34 197.04 286.23 198.01 285.75 198.45 
M 286.1 196.77 286.09 197.42 285.44 198.15 284.8 198.23 284.81 197.58 285.46 196.85 286.1 196.77 
M 263.25 211.19 263.84 211.46 264.24 212.36 264.05 212.98 263.46 212.7 263.06 211.81 263.25 211.19 
M 263.29 212.74 263.42 212.1 264.19 211.5 264.84 211.54 264.71 212.17 263.93 212.77 263.29 212.74 
M 200.23 120.07 199.95 120.66 199.05 121.04 198.44 120.85 198.72 120.26 199.62 119.88 200.23 120.07 
M 199.88 120.97 199.3 120.69 198.9 119.8 199.09 119.18 199.67 119.45 200.07 120.35 199.88 120.97 
M 212.87 115.29 212.22 115.31 211.46 114.69 211.35 114.05 212 114.03 212.76 114.65 212.87 115.29 
M 211.38 114.51 212.03 114.45 212.83 115.01 212.98 115.64 212.34 115.71 211.54 115.14 211.38 114.51 
M 226.49 119.72 225.89 119.96 224.96 119.65 224.63 119.09 225.23 118.84 226.16 119.16 226.49 119.72 
M 224.83 119.27 225.47 119.19 226.28 119.73 226.46 120.35 225.81 120.43 225 119.89 224.83 119.27 
M 282.94 103.72 282.93 103.08 283.56 102.33 284.2 102.22 284.21 102.87 283.58 103.62 282.94 103.72 
M 283.41 103.7 283.35 103.06 283.92 102.26 284.55 102.11 284.61 102.76 284.04 103.55 283.41 103.7 
M 277.32 95.34 276.98 94.78 277.14 93.82 277.63 93.4 277.97 93.95 277.81 94.92 277.32 95.34 
M 276.88 94.82 277.25 94.29 278.2 94.06 278.78 94.35 278.41 94.88 277.46 95.11 276.88 94.82 
M 268.27 93.68 267.7 93.97 266.75 93.74 266.37 93.21 266.95 92.91 267.9 93.15 268.27 93.68 
M 266.73 92.99 267.34 93.21 267.82 94.06 267.69 94.69 267.08 94.48 266.6 93.62 266.73 92.99 
M 278.37 114.87 278.63 114.28 279.52 113.86 280.14 114.03 279.88 114.62 279 115.05 278.37 114.87 
M 279.8 114.96 279.22 114.68 278.82 113.79 279.01 113.17 279.6 113.45 279.99 114.34 279.8 114.96 
M 304.89 129.13 304.86 128.48 305.46 127.71 306.1 127.58 306.13 128.23 305.53 129 304.89 129.13 
M 305.83 129.02 305.38 128.56 305.32 127.58 305.71 127.07 306.16 127.53 306.23 128.5 305.83 129.02 
M 312.42 135.68 312.9 135.23 313.87 135.2 314.38 135.6 313.91 136.04 312.93 136.08 312.42 135.68 
M 313.24 136.37 313.18 135.72 313.76 134.93 314.39 134.78 314.44 135.43 313.87 136.22 313.24 136.37 
M 295.31 124.5 295.74 124.99 295.73 125.97 295.3 126.45 294.88 125.96 294.89 124.98 295.31 124.5 
M 295.61 126.16 295.18 125.67 295.17 124.69 295.58 124.2 296.01 124.68 296.03 125.66 295.61 126.16 
M 308.55 144.22 308.05 144.64 307.07 144.62 306.59 144.19 307.09 143.77 308.07 143.79 308.55 144.22 
M 307.09 143.63 307.64 143.98 307.92 144.92 307.65 145.51 307.1 145.16 306.83 144.22 307.09 143.63 
M 205.05 99.21 204.55 99.63 203.58 99.61 203.09 99.18 203.59 98.76 204.57 98.78 205.05 99.21 
M 203.57 98.64 204.13 98.97 204.45 99.9 204.2 100.5 203.64 100.17 203.33 99.24 203.57 98.64 
M 219.37 103.76 219.91 104.1 220.2 105.04 219.93 105.63 219.38 105.29 219.1 104.35 219.37 103.76 
M 220.36 104.48 219.83 104.85 218.86 104.74 218.42 104.27 218.95 103.9 219.92 104 220.36 104.48 
M 192.78 154.91 192.63 155.54 191.83 156.12 191.19 156.06 191.34 155.43 192.13 154.86 192.78 154.91 
M 191.32 155.15 191.96 155.25 192.58 156.01 192.57 156.65 191.93 156.55 191.31 155.79 191.32 155.15 
M 337.27 183.8 336.64 183.92 335.79 183.42 335.58 182.81 336.22 182.69 337.06 183.18 337.27 183.8 
M 337.05 183.71 336.43 183.54 335.88 182.73 335.96 182.08 336.59 182.25 337.13 183.07 337.05 183.71 
M 311.2 201.29 311.78 201.58 312.17 202.47 311.98 203.09 311.39 202.81 311.01 201.91 311.2 201.29 
M 310.9 201.91 311.54 201.96 312.23 202.66 312.28 203.3 311.63 203.25 310.94 202.56 310.9 201.91 
M 276.44 218.29 277.08 218.34 277.77 219.04 277.81 219.68 277.17 219.63 276.48 218.94 276.44 218.29 
M 276.5 218.58 277.13 218.75 277.66 219.57 277.58 220.21 276.96 220.04 276.42 219.22 276.5 218.58 
M 206.38 82.63 206.71 83.18 206.55 84.15 206.05 84.56 205.71 84.01 205.88 83.04 206.38 82.63 
M 206.66 84.19 206.13 83.82 205.9 82.86 206.2 82.29 206.72 82.66 206.96 83.62 206.66 84.19 
M 193.42 106.07 192.86 105.75 192.54 104.83 192.78 104.22 193.34 104.55 193.66 105.47 193.42 106.07 
M 193.83 104.99 193.27 105.31 192.31 105.13 191.91 104.63 192.47 104.3 193.43 104.48 193.83 104.99 
M 220.08 94.81 220.73 94.81 221.47 95.46 221.56 96.1 220.91 96.1 220.17 95.45 220.08 94.81 
M 221.1 94.76 221.05 95.41 220.36 96.1 219.72 96.15 219.76 95.5 220.45 94.81 221.1 94.76 
M 190.55 89.23 190.06 88.81 189.93 87.84 190.29 87.29 190.77 87.72 190.9 88.69 190.55 89.23 
M 189.84 88.74 190.19 88.2 191.13 87.92 191.72 88.18 191.37 88.73 190.43 89.01 189.84 88.74 
M 201.52 108.09 201.21 108.65 200.28 108.98 199.68 108.75 200 108.18 200.92 107.85 201.52 108.09 
M 200.43 107.69 200.76 108.25 200.6 109.21 200.09 109.62 199.76 109.07 199.93 108.1 200.43 107.69 
M 217.74 134.15 218 134.74 217.71 135.67 217.15 136.01 216.9 135.42 217.19 134.49 217.74 134.15 
M 216.72 135.25 217.28 134.92 218.24 135.08 218.65 135.59 218.1 135.92 217.13 135.75 216.72 135.25 
M 320.55 162.27 320.04 161.87 319.86 160.9 320.19 160.34 320.7 160.75 320.88 161.71 320.55 162.27 
M 320.99 160.89 320.59 161.4 319.62 161.58 319.06 161.26 319.47 160.75 320.43 160.56 320.99 160.89 
M 187.1 78.79 187.11 78.14 187.76 77.41 188.4 77.33 188.39 77.97 187.74 78.7 187.1 78.79 
M 187.02 77.91 187.66 77.84 188.47 78.39 188.63 79.02 187.99 79.09 187.18 78.54 187.02 77.91 
M 176.66 95.53 176.03 95.39 175.45 94.6 175.5 93.96 176.13 94.1 176.71 94.89 176.66 95.53 
M 175.37 94.95 175.91 94.59 176.88 94.72 177.31 95.2 176.77 95.56 175.8 95.43 175.37 94.95 
M 180.36 85.68 180.78 85.19 181.75 85.06 182.3 85.41 181.87 85.9 180.9 86.03 180.36 85.68 
M 181.61 84.85 181.56 85.5 180.86 86.19 180.22 86.23 180.26 85.59 180.96 84.9 181.61 84.85 
M 200.52 76 199.99 75.63 199.74 74.69 200.02 74.1 200.56 74.47 200.81 75.42 200.52 76 
M 199.67 75.49 200.05 74.97 201.01 74.75 201.58 75.06 201.2 75.58 200.24 75.79 199.67 75.49 
M 183.13 100.96 183.44 101.53 183.25 102.49 182.74 102.88 182.42 102.32 182.61 101.36 183.13 100.96 
M 182.5 101.32 183.02 101.7 183.23 102.66 182.92 103.23 182.4 102.84 182.19 101.89 182.5 101.32 
M 323.16 134.97 322.65 134.58 322.44 133.62 322.75 133.05 323.27 133.44 323.48 134.4 323.16 134.97 
M 322.8 134.74 322.74 134.1 323.31 133.3 323.94 133.15 324 133.79 323.43 134.59 322.8 134.74 
M 184.26 69.13 184.08 69.96 183.56 70.35 183.26 69.75 
M 184.46 69.68 183.68 69.49 
M 184.42 69.03 184.46 69.68 
M 268.94 79.85 269.59 79.87 270.31 80.53 270.38 81.18 269.74 81.16 269.02 80.5 268.94 79.85 
M 268.99 80.83 269.46 80.39 270.44 80.36 270.95 80.76 270.47 81.2 269.49 81.24 268.99 80.83 
M 276.2 86.09 276.74 85.74 277.71 85.89 278.13 86.38 277.59 86.72 276.62 86.58 276.2 86.09 
M 277.34 86.96 277.01 86.4 277.17 85.44 277.67 85.03 278 85.58 277.84 86.55 277.34 86.96 
M 258.68 79.54 259.32 79.42 260.16 79.91 260.37 80.53 259.73 80.65 258.89 80.15 258.68 79.54 
M 259.02 79.49 259.58 79.8 259.91 80.73 259.68 81.33 259.11 81.01 258.78 80.09 259.02 79.49 
M 197.18 65.21 197.8 65.41 198.31 66.24 198.2 66.88 197.59 66.69 197.08 65.85 197.18 65.21 
M 196.97 66.24 197.52 65.89 198.49 66.03 198.91 66.52 198.36 66.87 197.4 66.73 196.97 66.24 
M 176.73 111.68 176.85 111.05 177.62 110.44 178.27 110.47 178.15 111.11 177.38 111.71 176.73 111.68 
M 177.39 110.34 177.68 110.92 177.42 111.87 176.89 112.23 176.6 111.65 176.86 110.7 177.39 110.34 
M 166.09 100.27 166.65 100.58 166.99 101.5 166.76 102.1 166.2 101.79 165.86 100.87 166.09 100.27 
M 165.7 101.01 166.35 100.96 167.13 101.55 167.26 102.19 166.62 102.23 165.83 101.64 165.7 101.01 
M 186.35 118.08 187 118.05 187.77 118.66 187.89 119.3 187.24 119.33 186.47 118.72 186.35 118.08 
M 187.86 118.8 187.22 118.9 186.39 118.39 186.19 117.77 186.83 117.67 187.66 118.18 187.86 118.8 
M 179.87 135.58 180.32 136.05 180.36 137.02 179.96 137.53 179.51 137.06 179.47 136.08 179.87 135.58 
M 180.46 137.06 179.88 136.79 179.47 135.89 179.66 135.27 180.25 135.55 180.65 136.44 180.46 137.06 
M 187.09 126.09 187.47 126.61 187.39 127.59 186.92 128.04 186.54 127.52 186.63 126.54 187.09 126.09 
M 187.65 127.44 187.02 127.3 186.44 126.51 186.49 125.87 187.12 126.01 187.7 126.8 187.65 127.44 
M 333.62 192.58 334.16 192.93 334.44 193.87 334.17 194.46 333.63 194.11 333.35 193.17 333.62 192.58 
M 333.94 192.78 334.1 193.4 333.66 194.28 333.06 194.52 332.9 193.89 333.34 193.02 333.94 192.78 
M 249.79 80.45 250.43 80.5 251.13 81.19 251.17 81.83 250.53 81.79 249.83 81.1 249.79 80.45 
M 251.03 80.64 250.71 81.2 249.79 81.53 249.18 81.29 249.5 80.73 250.43 80.4 251.03 80.64 
M 288.7 88.04 288.61 87.4 289.15 86.58 289.77 86.4 289.86 87.04 289.32 87.86 288.7 88.04 
M 289.44 87.94 289.08 87.4 289.2 86.43 289.68 85.99 290.04 86.53 289.92 87.5 289.44 87.94 
M 261.19 100.5 260.92 101.08 260.03 101.49 259.41 101.31 259.68 100.72 260.57 100.31 261.19 100.5 
M 260.92 101.31 260.3 101.14 259.76 100.32 259.84 99.68 260.46 99.85 261 100.67 260.92 101.31 
M 291.79 100.78 292.27 100.34 293.25 100.32 293.75 100.73 293.27 101.17 292.29 101.19 291.79 100.78 
M 293.4 100.36 292.99 100.85 292.02 101 291.47 100.66 291.89 100.16 292.86 100.01 293.4 100.36 
M 263.28 65.45 263.35 66.09 262.79 66.89 262.16 67.05 262.09 66.41 262.66 65.61 263.28 65.45 
M 263.31 66.71 262.7 66.49 262.24 65.62 262.38 64.99 262.98 65.22 263.45 66.08 263.31 66.71 
M 255.3 71.4 254.66 71.52 253.81 71.03 253.61 70.41 254.24 70.3 255.09 70.79 255.3 71.4 
M 253.76 71.18 254.26 70.77 255.24 70.8 255.71 71.24 255.21 71.65 254.23 71.62 253.76 71.18 
M 272.5 69.42 272.12 69.94 271.16 70.15 270.59 69.85 270.97 69.33 271.93 69.11 272.5 69.42 
M 270.82 69.48 271.46 69.41 272.26 69.97 272.42 70.6 271.77 70.67 270.97 70.11 270.82 69.48 
M 334.03 162.89 334.6 162.59 335.55 162.82 335.93 163.35 335.35 163.65 334.4 163.41 334.03 162.89 
M 335.64 163.45 335 163.35 334.37 162.61 334.37 161.96 335.01 162.06 335.65 162.8 335.64 163.45 
M 263.2 56.43 262.81 56.95 261.85 57.15 261.28 56.84 261.67 56.33 262.63 56.12 263.2 56.43 
M 262.15 55.9 262.42 56.49 262.14 57.43 261.6 57.78 261.33 57.19 261.6 56.25 262.15 55.9 
M 284.67 63.74 284.32 64.28 283.38 64.55 282.79 64.28 283.14 63.74 284.08 63.47 284.67 63.74 
M 284.04 63.33 283.96 63.97 283.24 64.64 282.59 64.66 282.67 64.01 283.39 63.35 284.04 63.33 
M 271.39 52.91 271.65 52.32 272.54 51.91 273.16 52.09 272.9 52.68 272.01 53.09 271.39 52.91 
M 271.53 52.59 272.12 52.32 273.06 52.59 273.41 53.14 272.82 53.41 271.88 53.13 271.53 52.59 
M 287.22 74.18 287.87 74.15 288.63 74.76 288.75 75.4 288.1 75.42 287.34 74.81 287.22 74.18 
M 287.45 75.31 287.76 74.74 288.67 74.38 289.28 74.6 288.98 75.17 288.06 75.53 287.45 75.31 
M 297.6 216.3 297.36 216.9 296.49 217.35 295.86 217.19 296.1 216.59 296.97 216.14 297.6 216.3 
M 296.03 217.01 296.54 216.61 297.52 216.65 297.99 217.09 297.48 217.5 296.5 217.45 296.03 217.01 
M 297.32 64.02 297.33 64.67 296.69 65.41 296.05 65.5 296.05 64.86 296.68 64.11 297.32 64.02 
M 296.02 65.09 296.48 64.64 297.46 64.59 297.97 64.98 297.51 65.43 296.53 65.49 296.02 65.09 
M 285.67 53.85 286.28 53.62 287.19 53.96 287.5 54.53 286.9 54.76 285.98 54.42 285.67 53.85 
M 286.72 53.46 286.8 54.1 286.26 54.92 285.64 55.09 285.56 54.45 286.1 53.63 286.72 53.46 
M 232.31 92.32 232.34 92.97 231.74 93.74 231.11 93.87 231.07 93.22 231.67 92.45 232.31 92.32 
M 231.65 92.35 231.89 92.95 231.58 93.88 231.02 94.21 230.77 93.61 231.09 92.68 231.65 92.35 
M 216.26 86.65 216.47 87.27 216.11 88.18 215.53 88.47 215.32 87.86 215.68 86.95 216.26 86.65 
M 215.67 86.85 216.04 87.38 215.95 88.36 215.47 88.8 215.1 88.27 215.2 87.3 215.67 86.85 
M 211.19 73.08 211.77 72.79 212.72 73.03 213.09 73.57 212.51 73.86 211.56 73.61 211.19 73.08 
M 211.81 73.99 211.91 73.35 212.65 72.72 213.3 72.72 213.2 73.36 212.46 74 211.81 73.99 
M 261.81 47.9 261.16 47.89 260.44 47.23 260.36 46.59 261.01 46.6 261.73 47.26 261.81 47.9 
M 260.56 46.72 261.14 47.01 261.49 47.93 261.28 48.54 260.71 48.24 260.35 47.33 260.56 46.72 
M 273.73 43.3 273.14 43.57 272.2 43.3 271.85 42.76 272.44 42.48 273.38 42.76 273.73 43.3 
M 272.12 43.36 272.59 42.91 273.56 42.85 274.08 43.24 273.61 43.7 272.64 43.76 272.12 43.36 
M 166.06 94.05 165.44 94.25 164.54 93.87 164.25 93.29 164.86 93.09 165.77 93.47 166.06 94.05 
M 164.41 93.73 165.01 93.48 165.94 93.79 166.27 94.35 165.67 94.6 164.74 94.29 164.41 93.73 
M 234.23 81.76 233.72 81.36 233.54 80.4 233.86 79.84 234.37 80.24 234.56 81.2 234.23 81.76 
M 233.62 81.41 233.81 80.79 234.65 80.28 235.29 80.38 235.09 81 234.26 81.51 233.62 81.41 
M 223.67 84.44 223.77 83.8 224.51 83.17 225.16 83.17 225.06 83.81 224.32 84.45 223.67 84.44 
M 224.79 84.45 224.31 84.02 224.19 83.05 224.55 82.51 225.03 82.94 225.15 83.91 224.79 84.45 
M 285.15 221.12 285.75 220.88 286.68 221.19 287.01 221.74 286.41 221.99 285.48 221.68 285.15 221.12 
M 286.83 221.48 286.2 221.64 285.33 221.19 285.08 220.59 285.71 220.44 286.58 220.88 286.83 221.48 
M 339.44 137.97 339.89 138.44 339.93 139.42 339.52 139.93 339.08 139.46 339.04 138.48 339.44 137.97 
M 340.16 139.26 339.52 139.18 338.86 138.46 338.84 137.81 339.49 137.89 340.15 138.61 340.16 139.26 
M 170.72 128.08 171.21 127.66 172.19 127.66 172.68 128.08 172.19 128.51 171.21 128.51 170.72 128.08 
M 170.96 128.16 171.55 127.9 172.49 128.19 172.83 128.73 172.24 129 171.31 128.71 170.96 128.16 
M 169.98 119.34 170.62 119.45 171.24 120.2 171.23 120.85 170.59 120.74 169.96 119.99 169.98 119.34 
M 169.86 120.19 170.45 119.91 171.39 120.18 171.75 120.72 171.16 120.99 170.22 120.73 169.86 120.19 
M 343.65 175.57 344.17 175.96 344.39 176.92 344.08 177.49 343.56 177.1 343.35 176.14 343.65 175.57 
M 343.9 177.27 343.68 176.67 344.02 175.75 344.58 175.44 344.81 176.04 344.47 176.96 343.9 177.27 
M 339.56 211.78 338.92 211.77 338.19 211.12 338.1 210.48 338.75 210.49 339.48 211.14 339.56 211.78 
M 339.39 210.64 339.06 211.19 338.13 211.5 337.53 211.25 337.86 210.7 338.79 210.39 339.39 210.64 
M 342.49 200.67 342.57 200.03 343.3 199.38 343.94 199.36 343.86 200.01 343.13 200.66 342.49 200.67 
M 343.95 200.13 343.31 200.23 342.48 199.71 342.29 199.1 342.93 198.99 343.76 199.51 343.95 200.13 
M 350.77 174.39 351.41 174.39 352.15 175.03 352.25 175.67 351.6 175.67 350.86 175.03 350.77 174.39 
M 351.81 175.71 351.38 175.22 351.37 174.25 351.79 173.75 352.22 174.24 352.22 175.22 351.81 175.71 
M 160.27 109.53 159.75 109.15 159.54 108.19 159.85 107.62 160.37 108.01 160.58 108.96 160.27 109.53 
M 159.33 108.71 159.9 108.41 160.85 108.62 161.24 109.14 160.67 109.45 159.71 109.23 159.33 108.71 
M 325.31 222.29 325.94 222.17 326.79 222.66 326.99 223.28 326.36 223.39 325.51 222.9 325.31 222.29 
M 326.76 223.21 326.14 223.02 325.63 222.18 325.73 221.54 326.35 221.74 326.86 222.57 326.76 223.21 
M 306.59 112.22 305.98 112.01 305.5 111.15 305.63 110.52 306.24 110.74 306.72 111.59 306.59 112.22 
M 306.86 111.35 306.25 111.56 305.34 111.2 305.04 110.63 305.65 110.41 306.56 110.78 306.86 111.35 
M 305.54 74.97 305.08 75.43 304.1 75.5 303.59 75.11 304.04 74.65 305.02 74.58 305.54 74.97 
M 304.58 74.29 304.76 74.92 304.36 75.81 303.77 76.08 303.59 75.46 303.99 74.57 304.58 74.29 
M 298.31 87.93 298.89 88.21 299.29 89.1 299.09 89.72 298.51 89.44 298.12 88.55 298.31 87.93 
M 299.12 89.44 298.61 89.04 298.42 88.08 298.74 87.52 299.25 87.91 299.44 88.87 299.12 89.44 
M 205.42 61.64 206.07 61.55 206.89 62.08 207.07 62.7 206.43 62.79 205.61 62.26 205.42 61.64 
M 206.87 61.76 206.46 62.26 205.5 62.44 204.94 62.11 205.35 61.6 206.31 61.43 206.87 61.76 
M 232.26 134.17 232.81 134.51 233.11 135.44 232.85 136.04 232.3 135.7 232 134.76 232.26 134.17 
M 231.95 134.67 232.57 134.87 233.07 135.71 232.96 136.34 232.35 136.14 231.84 135.31 231.95 134.67 
M 207.48 126.13 207.81 126.69 207.63 127.65 207.12 128.05 206.8 127.49 206.98 126.53 207.48 126.13 
M 208.01 127.34 207.36 127.32 206.64 126.66 206.56 126.01 207.21 126.03 207.93 126.69 208.01 127.34 
M 330.89 130.91 330.83 130.27 331.4 129.47 332.03 129.31 332.09 129.96 331.52 130.76 330.89 130.91 
M 330.85 130.53 331.24 130.02 332.21 129.83 332.77 130.16 332.37 130.67 331.41 130.85 330.85 130.53 
M 359.64 180.14 360.1 180.59 360.18 181.57 359.8 182.09 359.33 181.64 359.25 180.66 359.64 180.14 
M 359 180.92 359.64 180.89 360.41 181.5 360.53 182.14 359.88 182.16 359.12 181.55 359 180.92 
M 319.86 118.91 319.21 118.94 318.44 118.33 318.32 117.7 318.97 117.67 319.74 118.27 319.86 118.91 
M 319.33 117.6 319.32 118.25 318.66 118.97 318.02 119.05 318.03 118.4 318.69 117.68 319.33 117.6 
M 321.37 69.65 321.09 70.24 320.2 70.64 319.58 70.46 319.85 69.87 320.75 69.47 321.37 69.65 
M 320.74 69.36 320.7 70.01 320.02 70.71 319.38 70.76 319.41 70.12 320.1 69.41 320.74 69.36 
M 309.57 88.23 309.02 87.9 308.72 86.97 308.97 86.37 309.52 86.71 309.82 87.64 309.57 88.23 
M 309.8 87.82 309.22 87.53 308.85 86.63 309.05 86.01 309.63 86.3 310.01 87.21 309.8 87.82 
M 307.47 60.34 307.41 59.69 307.98 58.9 308.61 58.74 308.67 59.39 308.1 60.19 307.47 60.34 
M 307.54 60.09 307.81 59.5 308.7 59.1 309.32 59.29 309.05 59.88 308.16 60.28 307.54 60.09 
M 222.52 75.01 222.71 74.39 223.53 73.86 224.18 73.96 223.99 74.58 223.17 75.1 222.52 75.01 
M 223.27 75.22 223.14 74.59 223.62 73.74 224.24 73.52 224.36 74.16 223.88 75.01 223.27 75.22 
M 149.4 111.56 149.29 112.2 148.53 112.81 147.88 112.79 147.99 112.15 148.75 111.54 149.4 111.56 
M 148.04 111.8 148.63 111.94 149.21 112.73 149.15 113.38 148.52 113.23 147.94 112.44 147.99 111.94 
M 361.08 161.1 360.58 160.69 360.4 159.73 360.73 159.17 361.24 159.58 361.41 160.54 361.08 161.1 
M 361.03 159.4 361.12 160.04 360.6 160.87 359.98 161.05 359.88 160.41 360.41 159.59 361.03 159.4 
M 359.45 171.38 359.73 170.8 360.63 170.41 361.25 170.61 360.96 171.19 360.06 171.58 359.45 171.38 
M 359.7 170.62 360.33 170.76 360.92 171.55 360.87 172.19 360.23 172.05 359.65 171.26 359.7 170.62 
M 297.94 109.76 297.32 109.58 296.79 108.75 296.88 108.11 297.5 108.3 298.03 109.12 297.94 109.76 
M 297.91 108.39 297.64 108.98 296.75 109.37 296.13 109.19 296.4 108.6 297.3 108.2 297.91 108.39 
M 311.01 100.64 310.39 100.83 309.49 100.43 309.22 99.85 309.83 99.66 310.73 100.05 311.01 100.64 
M 310.74 99.85 310.32 100.34 309.36 100.49 308.81 100.14 309.23 99.65 310.2 99.5 310.74 99.85 
M 278.06 71.89 278.67 71.67 279.58 72.02 279.89 72.59 279.28 72.81 278.36 72.46 278.06 71.89 
M 278.73 72.95 278.74 72.3 279.4 71.57 280.04 71.5 280.03 72.14 279.37 72.87 278.73 72.95 
M 212.45 62.77 212.5 62.12 213.2 61.43 213.84 61.39 213.79 62.03 213.1 62.72 212.45 62.77 
M 213.56 61.46 213.38 62.08 212.56 62.62 211.92 62.53 212.1 61.91 212.92 61.37 213.56 61.46 
M 163.02 135.05 162.68 134.5 162.85 133.53 163.35 133.12 163.68 133.68 163.52 134.64 163.02 135.05 
M 163.54 133.43 163.42 134.07 162.65 134.68 162 134.65 162.12 134.02 162.89 133.41 163.54 133.43 
M 158.42 123.1 158.9 123.53 159.04 124.5 158.69 125.04 158.2 124.61 158.07 123.64 158.42 123.1 
M 158.89 123.41 158.79 124.05 158.03 124.67 157.38 124.65 157.49 124.02 158.25 123.39 158.89 123.41 
M 373.3 169.18 372.68 169.36 371.79 168.95 371.53 168.36 372.15 168.18 373.04 168.59 373.3 169.18 
M 371.88 169.29 372.19 168.72 373.1 168.37 373.71 168.59 373.4 169.16 372.49 169.51 371.88 169.29 
M 331.35 70.8 331.22 71.43 330.43 72.02 329.79 71.97 329.92 71.34 330.71 70.75 331.35 70.8 
M 330.12 71.98 330.33 71.37 331.18 70.88 331.82 71.01 331.61 71.62 330.76 72.11 330.12 71.98 
M 336.67 61.19 336.41 61.79 335.53 62.22 334.9 62.05 335.16 61.45 336.04 61.03 336.67 61.19 
M 335.4 60.98 335.89 61.41 336.01 62.38 335.66 62.92 335.17 62.49 335.05 61.52 335.4 60.98 
M 317.81 86.84 318.15 86.28 319.08 85.98 319.67 86.23 319.34 86.79 318.41 87.09 317.81 86.84 
M 319.45 86.29 318.93 86.68 317.95 86.61 317.49 86.15 318.01 85.76 318.99 85.83 319.45 86.29 
M 325.66 56.93 326.04 56.4 326.99 56.17 327.56 56.47 327.18 57 326.23 57.22 325.66 56.93 
M 327.36 56.69 326.74 56.89 325.84 56.52 325.55 55.94 326.16 55.74 327.07 56.11 327.36 56.69 
M 167.83 110.13 168.17 110.68 168.01 111.65 167.51 112.06 167.17 111.51 167.33 110.55 167.83 110.13 
M 168.42 111.1 167.8 111.3 166.9 110.9 166.62 110.32 167.24 110.13 168.14 110.52 168.42 111.1 
M 335.4 81.27 336.04 81.38 336.66 82.13 336.64 82.78 336 82.67 335.38 81.92 335.4 81.27 
M 336.76 82.04 336.14 82.23 335.25 81.82 334.98 81.23 335.6 81.05 336.49 81.45 336.76 82.04 
M 343.03 71.32 342.92 71.96 342.16 72.58 341.52 72.57 341.62 71.93 342.38 71.3 343.03 71.32 
M 341.61 72.28 342.07 71.83 343.04 71.76 343.56 72.15 343.1 72.61 342.12 72.67 341.61 72.28 
M 314.6 78.04 314.18 78.54 313.22 78.69 312.67 78.35 313.08 77.86 314.05 77.7 314.6 78.04 
M 314.1 77.62 313.87 78.22 313 78.67 312.37 78.52 312.61 77.92 313.47 77.47 314.1 77.62 
M 299.2 48.35 299.07 47.71 299.54 46.86 300.14 46.63 300.28 47.26 299.81 48.12 299.2 48.35 
M 299.11 47.98 299.45 47.43 300.38 47.12 300.97 47.37 300.64 47.93 299.71 48.23 299.11 47.98 
M 337.19 118.68 336.97 119.29 336.12 119.77 335.48 119.64 335.7 119.03 336.56 118.55 337.19 118.68 
M 336.74 119.79 336.24 119.38 336.08 118.41 336.41 117.86 336.91 118.27 337.08 119.23 336.74 119.79 
M 319.36 106.27 319.99 106.14 320.85 106.61 321.07 107.21 320.44 107.35 319.58 106.88 319.36 106.27 
M 320.92 106.98 320.27 106.97 319.54 106.32 319.46 105.68 320.11 105.69 320.84 106.34 320.92 106.98 
M 232.02 64.71 232 65.36 231.33 66.07 230.68 66.14 230.71 65.49 231.38 64.78 232.02 64.71 
M 232.06 65.66 231.41 65.65 230.68 65 230.59 64.36 231.24 64.37 231.97 65.02 232.06 65.66 
M 221.72 58.03 222.35 58.16 222.95 58.94 222.91 59.58 222.27 59.45 221.68 58.68 221.72 58.03 
M 222.05 59.51 222.08 58.86 222.76 58.15 223.41 58.09 223.37 58.74 222.7 59.45 222.05 59.51 
M 169.69 140.44 170.32 140.29 171.18 140.75 171.42 141.35 170.79 141.5 169.92 141.04 169.69 140.44 
M 171.05 141.45 170.49 141.12 170.18 140.19 170.43 139.59 170.99 139.93 171.29 140.86 171.05 141.45 
M 150.55 128.16 149.92 128.31 149.05 127.86 148.81 127.26 149.44 127.11 150.31 127.56 150.55 128.16 
M 148.98 127.98 149.49 127.58 150.46 127.61 150.94 128.05 150.44 128.46 149.46 128.42 148.98 127.98 
M 139.4 125.29 139.34 124.65 139.91 123.85 140.54 123.7 140.6 124.35 140.03 125.14 139.4 125.29 
M 140.67 124.75 140.02 124.73 139.31 124.06 139.24 123.42 139.88 123.44 140.6 124.11 140.67 124.75 
M 241.82 69.49 242.04 70.1 241.69 71.01 241.12 71.32 240.9 70.71 241.25 69.8 241.82 69.49 
M 241.72 69.7 241.7 70.35 241.04 71.07 240.39 71.14 240.41 70.5 241.07 69.77 241.72 69.7 
M 350.87 72.86 351.02 72.24 351.82 71.67 352.47 71.73 352.31 72.36 351.51 72.93 350.87 72.86 
M 351.55 73.04 351.45 72.39 351.98 71.57 352.6 71.38 352.69 72.02 352.17 72.85 351.55 73.04 
M 349.37 87.76 348.93 87.28 348.9 86.3 349.31 85.8 349.75 86.28 349.78 87.26 349.37 87.76 
M 349.26 87.52 349.13 86.89 349.61 86.03 350.22 85.81 350.35 86.45 349.87 87.3 349.26 87.52 
M 343.92 59.19 344.56 59.21 345.29 59.87 345.36 60.51 344.71 60.49 343.99 59.83 343.92 59.19 
M 343.9 59.73 344.54 59.64 345.37 60.16 345.55 60.78 344.91 60.88 344.09 60.35 343.9 59.73 
M 252.84 57.27 252.27 57.58 251.31 57.38 250.92 56.86 251.49 56.55 252.45 56.75 252.84 57.27 
M 251.32 56.57 251.91 56.83 252.34 57.71 252.17 58.34 251.57 58.08 251.15 57.2 251.32 56.57 
M 380.69 176.09 381.17 176.53 381.3 177.5 380.94 178.04 380.46 177.61 380.33 176.63 380.69 176.09 
M 381.03 176.35 381.04 177 380.41 177.75 379.77 177.85 379.76 177.2 380.39 176.45 381.03 176.35 
M 237.42 54.8 237.12 55.38 236.21 55.74 235.6 55.53 235.9 54.96 236.8 54.59 237.42 54.8 
M 236.33 54.44 236.67 55 236.51 55.96 236.01 56.37 235.67 55.82 235.83 54.86 236.33 54.44 
M 284.39 43.62 284.26 44.26 283.48 44.85 282.84 44.82 282.97 44.18 283.74 43.59 284.39 43.62 
M 283.21 43.59 283.71 44.01 283.87 44.97 283.53 45.52 283.03 45.11 282.87 44.14 283.21 43.59 
M 225.07 47.27 225.72 47.29 226.45 47.94 226.52 48.59 225.88 48.57 225.15 47.91 225.07 47.27 
M 226.18 48.57 225.69 48.14 225.57 47.17 225.93 46.63 226.41 47.06 226.54 48.03 226.18 48.57 
M 156.94 149.55 157.59 149.48 158.39 150.04 158.55 150.67 157.91 150.74 157.1 150.18 156.94 149.55 
M 157.94 149.39 157.97 150.04 157.37 150.81 156.73 150.93 156.7 150.29 157.3 149.51 157.94 149.39 
M 348.22 142.08 348.54 141.51 349.46 141.18 350.06 141.41 349.75 141.97 348.83 142.31 348.22 142.08 
M 348.42 141.93 348.97 141.58 349.94 141.74 350.35 142.23 349.8 142.57 348.84 142.42 348.42 141.93 
M 346.99 128.9 347.11 129.54 346.62 130.39 346.01 130.6 345.89 129.97 346.38 129.12 346.99 128.9 
M 345.95 130.25 346.27 129.69 347.2 129.38 347.8 129.62 347.47 130.18 346.55 130.5 345.95 130.25 
M 344.85 118.77 344.35 118.35 344.2 117.39 344.54 116.84 345.04 117.25 345.19 118.22 344.85 118.77 
M 343.95 117.83 344.56 117.61 345.47 117.96 345.78 118.53 345.17 118.75 344.26 118.4 343.95 117.83 
M 179.22 122.49 179.56 121.94 180.5 121.66 181.09 121.92 180.74 122.47 179.81 122.75 179.22 122.49 
M 179.52 122.59 179.94 122.1 180.91 121.97 181.45 122.32 181.03 122.81 180.06 122.94 179.52 122.59 
M 168.43 175.68 169.02 175.43 169.95 175.73 170.29 176.29 169.69 176.54 168.76 176.24 168.43 175.68 
M 169.99 175.6 169.57 176.09 168.6 176.23 168.06 175.88 168.48 175.39 169.45 175.25 169.99 175.6 
M 236.46 48.3 236.03 47.81 236.03 46.83 236.45 46.34 236.88 46.83 236.88 47.81 236.46 48.3 
M 235.74 47.12 236.38 47.1 237.15 47.71 237.26 48.35 236.61 48.37 235.85 47.76 235.74 47.12 
M 252.86 43.38 252.21 43.37 251.48 42.71 251.4 42.07 252.05 42.08 252.78 42.74 252.86 43.38 
M 252.69 42.24 252.36 42.79 251.42 43.09 250.83 42.83 251.17 42.28 252.1 41.98 252.69 42.24 
M 323.97 96.7 324.03 97.35 323.46 98.14 322.82 98.29 322.77 97.64 323.34 96.85 323.97 96.7 
M 323.92 96.96 323.63 97.54 322.73 97.92 322.11 97.71 322.4 97.13 323.31 96.76 323.92 96.96 
M 327.58 88.31 328.1 87.91 329.07 87.98 329.53 88.43 329.02 88.82 328.04 88.76 327.58 88.31 
M 329.27 88.14 328.74 88.52 327.77 88.43 327.32 87.96 327.84 87.58 328.82 87.67 329.27 88.14 
M 332.8 97.38 333.33 97.01 334.3 97.1 334.75 97.57 334.22 97.95 333.25 97.85 332.8 97.38 
M 334.39 97.9 333.77 97.71 333.24 96.88 333.34 96.24 333.96 96.43 334.48 97.26 334.39 97.9 
M 136.9 136.96 137.13 136.36 137.99 135.89 138.62 136.03 138.39 136.64 137.53 137.1 136.9 136.96 
M 138.49 136.37 137.92 136.67 136.97 136.45 136.59 135.92 137.16 135.62 138.11 135.85 138.49 136.37 
M 338.51 107.06 338.23 106.48 338.49 105.53 339.03 105.17 339.31 105.76 339.05 106.7 338.51 107.06 
M 338.54 105.41 338.92 105.93 338.83 106.91 338.36 107.36 337.98 106.83 338.07 105.86 338.54 105.41 
M 294.96 79.99 295.58 79.81 296.47 80.23 296.73 80.82 296.11 80.99 295.22 80.58 294.96 79.99 
M 295.61 79.7 295.99 80.22 295.91 81.2 295.45 81.65 295.07 81.12 295.15 80.15 295.61 79.7 
M 360.07 121.09 360.4 120.53 361.32 120.21 361.92 120.45 361.6 121.01 360.67 121.33 360.07 121.09 
M 360.86 121.5 360.78 120.86 361.33 120.05 361.95 119.88 362.03 120.52 361.49 121.33 360.86 121.5 
M 363.14 136.9 363.13 137.55 362.47 138.28 361.83 138.35 361.84 137.71 362.5 136.98 363.14 136.9 
M 362.57 136.89 362.7 137.52 362.21 138.37 361.6 138.59 361.47 137.95 361.96 137.1 362.57 136.89 
M 384.33 200.65 384.98 200.68 385.7 201.35 385.76 201.99 385.12 201.97 384.4 201.3 384.33 200.65 
M 385.79 201.3 385.18 201.51 384.27 201.15 383.97 200.58 384.58 200.37 385.49 200.73 385.79 201.3 
M 400.15 183.32 399.88 183.91 398.98 184.31 398.36 184.13 398.63 183.54 399.52 183.14 400.15 183.32 
M 398.55 183.49 399.19 183.5 399.93 184.14 400.02 184.78 399.37 184.78 398.63 184.14 398.55 183.49 
M 126.08 137 126.62 136.64 127.59 136.76 128.02 137.24 127.48 137.6 126.51 137.48 126.08 137 
M 126.51 137.64 126.82 137.07 127.73 136.72 128.34 136.94 128.04 137.51 127.12 137.86 126.51 137.64 
M 155.72 184.24 155.38 183.71 155.53 182.74 156.02 182.32 156.36 182.87 156.22 183.84 155.75 184.24 
M 156.62 183.23 156.02 183.47 155.09 183.16 154.76 182.6 155.36 182.36 156.29 182.67 156.62 183.23 
M 356.99 112.27 356.4 112.54 355.46 112.26 355.11 111.72 355.7 111.45 356.64 111.72 356.99 112.27 
M 355.35 111.73 356 111.76 356.7 112.45 356.75 113.09 356.11 113.05 355.41 112.37 355.35 111.73 
M 328.99 110.61 329.63 110.67 330.3 111.38 330.34 112.02 329.69 111.96 329.02 111.25 328.99 110.61 
M 330.13 111.9 329.59 111.54 329.33 110.6 329.61 110.01 330.14 110.37 330.4 111.31 330.13 111.9 
M 348.81 102.58 348.4 103.07 347.43 103.23 346.88 102.89 347.3 102.39 348.26 102.24 348.81 102.58 
M 347.11 102.62 347.75 102.52 348.58 103.04 348.77 103.66 348.13 103.76 347.3 103.24 347.11 102.62 
M 374.76 155.73 374.89 155.1 375.67 154.51 376.32 154.55 376.19 155.18 375.41 155.78 374.76 155.73 
M 375.56 154.4 375.74 155.02 375.33 155.91 374.74 156.18 374.56 155.55 374.97 154.67 375.56 154.4 
M 366.72 152.54 366.09 152.38 365.54 151.57 365.62 150.92 366.24 151.09 366.8 151.9 366.72 152.54 
M 365.61 151.24 366.2 151.5 366.62 152.39 366.44 153.01 365.85 152.75 365.44 151.86 365.61 151.24 
M 152.86 209.6 152.47 210.12 151.51 210.32 150.95 210 151.34 209.49 152.3 209.29 152.86 209.6 
M 152.63 209.65 152.07 209.97 151.11 209.78 150.71 209.27 151.27 208.95 152.23 209.14 152.63 209.65 
M 376.49 140.38 377.13 140.51 377.74 141.28 377.7 141.92 377.07 141.8 376.46 141.03 376.49 140.38 
M 376.72 141.79 376.86 141.16 377.66 140.59 378.3 140.64 378.16 141.27 377.37 141.85 376.72 141.79 
M 372.11 133.62 372.22 132.98 372.97 132.36 373.62 132.38 373.51 133.02 372.76 133.64 372.11 133.62 
M 373.61 133.07 372.98 133.21 372.12 132.74 371.89 132.13 372.52 131.99 373.38 132.46 373.61 133.07 
M 151.53 167.97 150.88 167.97 150.15 167.32 150.06 166.68 150.71 166.68 151.44 167.33 151.53 167.97 
M 150.82 168.07 150.6 167.46 150.96 166.55 151.53 166.25 151.75 166.86 151.39 167.77 150.82 168.07 
M 151.69 159.47 151.06 159.61 150.2 159.15 149.97 158.54 150.6 158.4 151.46 158.86 151.69 159.47 
M 150.1 159.15 150.67 158.84 151.62 159.04 152.01 159.56 151.44 159.87 150.49 159.67 150.1 159.15 
M 126.51 201.51 125.87 201.39 125.27 200.62 125.3 199.98 125.93 200.1 126.54 200.87 126.51 201.51 
M 126.38 200.17 126.14 200.77 125.27 201.22 124.64 201.07 124.88 200.47 125.75 200.02 126.38 200.17 
M 364.16 82.14 363.54 82.31 362.65 81.88 362.4 81.29 363.02 81.12 363.9 81.55 364.16 82.14 
M 362.63 81.36 363.26 81.48 363.86 82.25 363.83 82.9 363.19 82.77 362.59 82 362.63 81.36 
M 387.1 142.55 387.02 143.19 386.3 143.85 385.65 143.87 385.73 143.23 386.45 142.57 387.1 142.55 
M 385.65 143.41 386.2 143.05 387.17 143.19 387.59 143.67 387.05 144.03 386.08 143.89 385.65 143.41 
M 217.42 173.58 216.87 173.24 216.56 172.31 216.81 171.72 217.37 172.05 217.67 172.98 217.42 173.58 
M 217.15 173.39 216.93 172.78 217.27 171.87 217.84 171.56 218.06 172.16 217.72 173.08 217.15 173.39 
M 415.95 178.79 415.86 179.43 415.13 180.08 414.48 180.09 414.57 179.45 415.3 178.8 415.95 178.79 
M 415.81 179 415.44 179.52 414.48 179.74 413.91 179.44 414.29 178.92 415.24 178.69 415.81 179 
M 402.37 150.48 402.97 150.74 403.39 151.62 403.23 152.25 402.63 151.99 402.21 151.11 402.37 150.48 
M 403.43 151.76 402.8 151.6 402.25 150.79 402.32 150.15 402.95 150.31 403.5 151.12 403.43 151.76 
M 396.33 173.98 396.95 173.81 397.84 174.22 398.1 174.82 397.47 174.99 396.59 174.57 396.33 173.98 
M 397.87 174.05 397.42 174.51 396.44 174.59 395.92 174.2 396.38 173.74 397.35 173.67 397.87 174.05 
M 363.91 92.2 363.52 92.72 362.56 92.91 361.99 92.59 362.39 92.07 363.35 91.88 363.91 92.2 
M 363.05 93.13 362.77 92.55 363.03 91.61 363.57 91.25 363.85 91.83 363.59 92.77 363.05 93.13 
M 343.63 94.23 343.12 94.62 342.14 94.56 341.68 94.11 342.19 93.72 343.17 93.77 343.63 94.23 
M 342.66 93.42 342.85 94.04 342.46 94.94 341.87 95.21 341.68 94.6 342.08 93.7 342.66 93.42 
M 387.65 153.64 387.24 153.14 387.27 152.16 387.71 151.69 388.12 152.19 388.09 153.17 387.65 153.64 
M 387.09 153.12 387.46 152.59 388.41 152.34 388.99 152.63 388.62 153.16 387.67 153.41 387.09 153.12 
M 139.82 160.89 139.67 161.52 138.88 162.09 138.24 162.04 138.38 161.41 139.18 160.83 139.82 160.89 
M 138.29 161.4 138.92 161.26 139.78 161.71 140.02 162.32 139.39 162.46 138.52 162.01 138.29 161.4 
M 129.54 174.22 129.51 174.87 128.82 175.57 128.18 175.63 128.22 174.98 128.9 174.28 129.54 174.22 
M 129.45 174.46 129.08 175 128.14 175.25 127.56 174.97 127.92 174.43 128.87 174.18 129.45 174.46 
M 136.13 149.7 136.71 149.41 137.66 149.64 138.03 150.17 137.45 150.47 136.5 150.23 136.13 149.7 
M 137.77 150.21 137.13 150.17 136.43 149.48 136.38 148.83 137.03 148.88 137.73 149.57 137.77 150.21 
M 121.87 189.46 121.85 189.82 121.6 190.07 
M 121.53 190.24 121.66 190.52 121.49 191.14 121.18 191.01 
M 365.64 102.81 365.66 102.17 366.33 101.45 366.54 101.42 
M 366.54 102.46 366.29 102.74 365.64 102.81 
M 366.49 102.09 365.86 102.75 365.22 102.82 365.25 102.17 365.92 101.46 366.55 101.39 
M 352.11 94.05 352.69 93.75 353.64 93.99 354.01 94.52 353.44 94.81 352.49 94.58 352.11 94.05 
M 353.25 93.56 353.29 94.21 352.69 94.98 352.06 95.12 352.02 94.47 352.61 93.69 353.25 93.56 
M 398.15 158.69 398.48 159.25 398.3 160.21 397.79 160.62 397.46 160.06 397.64 159.1 398.15 158.69 
M 397.72 160.36 397.74 159.71 398.4 158.99 399.05 158.92 399.03 159.57 398.36 160.29 397.72 160.36 
M 422.43 172.8 422.81 172.28 423.76 172.06 424.34 172.36 423.95 172.88 423 173.11 422.43 172.8 
M 422.64 172.55 423.26 172.38 424.15 172.8 424.41 173.39 423.78 173.57 422.9 173.15 422.64 172.55 
M 399.43 141.72 399.32 141.82 399.19 141.63 
M 131.39 125.91 131.32 126.55 130.6 127.21 129.95 127.23 130.02 126.58 130.74 125.92 131.39 125.91 
M 131.16 127.13 130.61 126.79 130.31 125.86 130.56 125.26 131.12 125.6 131.41 126.53 131.16 127.13 
M 356.92 129.02 356.55 129.55 355.6 129.79 355.02 129.5 355.39 128.96 356.34 128.73 356.92 129.02 
M 355.39 129.73 355.75 129.18 356.69 128.92 357.27 129.19 356.92 129.73 355.98 130 355.39 129.73 
M 227.63 291.39 223.34 297.7 
M 227.63 291.39 228.14 297.7 
M 224.87 295.6 227.87 295.6 
M 230.9 293.5 229.64 297.7 
M 230.36 295.3 230.93 294.39 231.71 293.8 232.4 293.5 233.3 293.5 
M 236 293.5 235.31 293.8 234.53 294.39 233.96 295.3 233.78 295.89 233.81 296.8 234.23 297.39 234.74 297.7 235.64 297.7 236.33 297.39 237.11 296.8 237.68 295.89 237.86 295.3 237.83 294.39 237.41 293.8 236.9 293.5 236 293.5 
M 240.5 293.5 239.24 297.7 
M 239.96 295.3 240.53 294.39 241.31 293.8 242 293.5 242.9 293.5 
M 244.4 293.5 243.5 296.5 243.53 297.39 244.04 297.7 244.94 297.7 245.63 297.39 246.8 296.5 
M 247.7 293.5 246.44 297.7 
M 252.83 294.39 252.71 293.8 251.9 293.5 251 293.5 250.01 293.8 249.53 294.39 249.65 295 250.16 295.3 251.57 295.6 252.08 295.89 252.11 296.8 251.63 297.39 250.64 297.7 249.74 297.7 248.93 297.39 248.81 296.8 
M 260.93 294.39 260.81 293.8 260 293.5 259.1 293.5 258.11 293.8 257.63 294.39 257.75 295 258.26 295.3 259.66 295.6 260.18 295.89 260.21 296.8 259.73 297.39 258.74 297.7 257.83 297.7 257.02 297.39 256.9 296.8 
M 266.6 293.5 265.34 297.7 
M 266.33 294.39 265.9 293.8 265.39 293.5 264.5 293.5 263.81 293.8 263.02 294.39 262.46 295.3 262.27 295.89 262.31 296.8 262.73 297.39 263.24 297.7 264.14 297.7 264.83 297.39 265.61 296.8 
M 269 293.5 267.74 297.7 
M 268.45 295.3 269.02 294.39 269.81 293.8 270.5 293.5 271.39 293.5 
M 272.89 293.5 272 296.5 272.02 297.39 272.54 297.7 273.44 297.7 274.13 297.39 275.3 296.5 
M 276.2 293.5 274.94 297.7 
M 281.63 294.39 281.2 293.8 280.7 293.5 279.8 293.5 279.11 293.8 278.33 294.39 277.76 295.3 277.58 295.89 277.61 296.8 278.02 297.39 278.54 297.7 279.44 297.7 280.13 297.39 280.9 296.8 
M 284 293.5 283.1 296.5 283.13 297.39 283.64 297.7 284.53 297.7 285.23 297.39 286.39 296.5 
M 287.3 293.5 286.03 297.7 
M 292.43 294.39 292.31 293.8 291.5 293.5 290.6 293.5 289.61 293.8 289.13 294.39 289.25 295 289.76 295.3 291.16 295.6 291.68 295.89 291.7 296.8 291.23 297.39 290.24 297.7 289.33 297.7 288.52 297.39 288.4 296.8 
M 294.02 297.1 293.63 297.39 293.83 297.7 294.23 297.39 294.02 297.1 
"/></svg>
