<svg xmlns="http://www.w3.org/2000/svg" width="520" height="320"><rect x="0" y="0" width="520" height="320" fill="floralwhite"/><rect x="10" y="10" width="500" height="300" stroke="black" stroke-width="1" fill="none"/><path stroke="black" stroke-width="1" fill="none" stroke-linecap="round" stroke-linejoin="round" d="
M 123.99 147.04 135.2 143.85 146.45 141.18 157.7 138.85 168.95 137.65 180.21 136.88 191.46 135.6 202.71 134.56 213.96 133.78 236.46 131.64 247.71 131.73 258.96 133.05 270.21 133.5 281.47 132.91 292.72 133.67 303.97 135.26 315.22 136.48 326.47 138.25 337.72 140.22 348.97 142.45 360.22 145.75 382.72 153.66 393.98 158.22 406.17 163.77 
M 406.17 205.6 382.72 213.37 371.47 216.88 348.97 223.01 326.47 227.94 315.22 230.83 303.97 232.99 292.72 234.37 281.47 236.3 247.71 242.79 236.46 243.02 213.96 241.79 188.16 239.13 
M 161.61 233.94 157.7 232.92 146.45 230.69 135.13 228.01 
M 406.17 175.08 394.99 173.12 
M 390.78 172.56 384.59 171.83 355.9 169.39 330.98 166.32 323 165.2 315.21 164.38 307.14 163.91 296.34 163.73 
M 287.87 163.42 283.97 163.4 
M 280.28 163.49 274.98 163.68 269.8 164.38 
M 266.31 164.77 264.55 164.93 257.42 164.89 253.98 164.62 248.91 163.71 
M 245.45 163.06 241.86 162.42 
M 229.89 161.08 221.34 160.95 
M 213.27 161.15 209.46 161.31 
M 202 161.51 194.46 161.96 
M 190.59 162.34 186.65 162.82 
M 182.65 163.42 178.61 164.09 
M 170.56 165.03 158.58 165.11 
M 154.53 165.05 148.41 165.17 142.36 165.84 
M 134.66 166.92 132.88 167.21 
M 134.47 189.58 138.77 195.55 
M 133.52 179.26 135.22 182.13 137.64 185.77 143.32 193.89 
M 132.95 168.27 141 181.78 146.85 190.66 
M 132.51 158.69 135.2 162.49 139.95 169.82 146.78 181.44 153 191.48 
M 128.32 145.81 138.6 158.67 142.24 163.78 
M 144.72 167.56 148.29 173.48 152.56 181.1 158.2 190.49 
M 132.85 144.52 142.19 155.2 147.14 161.61 149.64 165.33 152.03 169.24 155.29 175.12 
M 157.35 178.89 162.48 187.65 
M 137.64 143.27 145.93 151.92 150.93 157.91 153.47 161.36 155.89 165.09 158.14 168.97 164.22 180.26 167.41 185.64 
M 212.55 232.47 215.44 233.42 
M 142.79 142.05 147.34 146.26 152.28 151.49 157.36 157.67 159.82 161.13 162.11 164.82 168.19 176.03 173.26 184.99 
M 148.29 140.8 151.2 143.26 156.24 148.26 158.76 151.15 163.74 157.42 166.07 160.83 168.25 164.42 173.2 173.35 
M 175.07 176.71 179.08 184.35 
M 216.04 228.61 219.25 230.54 
M 222.24 232.07 226.58 233.86 227.95 234.26 
M 154.12 139.6 157.68 142.57 160.23 145.08 162.74 147.87 170 157.07 172.29 160.34 174.43 163.76 178.27 170.65 181.8 177.37 184.81 183.71 
M 217.95 225.96 222.57 229.21 
M 160.27 138.58 164.21 142.04 166.71 144.71 176.33 156.5 178.56 159.66 180.6 162.95 182.46 166.33 186.71 174.96 
M 188.38 178.46 190.61 183.06 
M 228.57 229.54 231.27 231.21 
M 236.55 233.82 239.17 234.81 
M 166.59 137.91 170.65 141.77 180.37 152.88 182.67 155.8 185.74 160.55 
M 187.55 163.9 189.23 167.37 
M 190.86 170.87 196.04 181.5 
M 218.22 215.06 220.36 217.4 
M 234.21 229.71 239.52 232.88 
M 172.71 137.39 177.12 141.62 182.07 146.84 184.47 149.46 187.86 153.64 
M 189.93 156.69 192.65 161.63 195.1 166.83 
M 196.79 170.28 202.31 181.76 
M 220.38 210.99 220.64 211.29 
M 226.44 217.78 231.82 223.38 
M 245.26 233.24 249.44 235.26 250.88 235.76 
M 178.79 136.98 183.63 141.46 188.56 146.33 190.89 148.84 193.08 151.55 195.06 154.58 196.81 157.86 200.1 164.69 203.65 171.51 207.95 181.14 
M 223.96 208.6 226.57 211.65 
M 229.43 214.9 234.81 220.77 
M 237.46 223.37 240.15 225.76 
M 184.62 136.38 190.17 141.16 195 145.75 197.16 148.3 199.1 151.17 200.83 154.35 204.11 161.08 209.55 171.27 212 177.01 
M 229.43 208.54 237.82 217.9 
M 248.81 228.21 254.67 232.5 
M 190.51 135.71 196.68 140.64 199.03 142.86 201.17 145.3 203.08 148.02 203.94 149.54 
M 205.59 152.7 208 157.69 210.73 162.66 
M 212.62 166.02 215.37 171.41 219.61 181.72 
M 230.99 203.7 236.61 210.39 240.83 214.92 
M 196.84 135.1 200.62 137.96 204.05 141.25 
M 206.09 143.72 207.05 145.03 208.78 147.94 213.66 157.71 217.58 164.42 219.53 168.07 223.09 176.14 229.02 191 
M 230.95 194.98 231.97 196.92 234.29 200.61 235.58 202.37 
M 238.24 205.77 241.03 208.96 
M 243.88 212 246.74 214.96 
M 249.62 217.93 252.54 220.93 
M 255.49 223.92 258.42 226.82 
M 203.28 134.52 206.83 137.39 209.03 139.63 211.01 142.13 212.79 144.91 217.76 154.41 221.77 161.15 223.78 164.82 225.64 168.77 229.19 177.17 234.17 189.84 236.99 195.73 
M 239.15 199.42 241.58 202.89 
M 244.23 206.15 255.92 218.45 
M 209.63 134.08 212.83 136.95 214.9 139.34 216.79 141.99 226.21 157.82 228.23 161.5 230.08 165.48 237.79 184.57 
M 239.42 188.7 242.05 194.63 243.07 196.49 
M 245.25 200.08 247.69 203.44 
M 253.29 209.69 259.22 216.07 
M 270.72 229.4 273.21 231.71 
M 215.54 133.62 218.68 136.72 220.69 139.25 228.66 151.08 230.79 154.47 232.79 158.13 234.59 162.11 239.48 175.05 245.44 189.55 
M 247.23 193.46 250.26 198.99 251.43 200.69 
M 270.98 224.45 274 227.77 
M 220.97 133.1 222.31 134.36 224.42 136.73 231.78 146.45 
M 234.06 149.6 235.19 151.24 237.21 154.83 238.97 158.76 243.59 171.74 245.3 176.01 250.56 188.31 253.34 194.11 
M 257.71 201.22 260.3 204.56 
M 263.06 207.9 265.88 211.36 
M 280.66 229.11 282.49 230.8 
M 226.09 132.61 230.01 136.88 236.72 145.13 239.08 148.28 241.23 151.74 243.01 155.56 249.2 172.64 257.51 190.84 
M 272.26 212.47 278 220.09 
M 281.07 223.72 284.25 227.14 
M 230.94 132.16 233.35 134.7 240.08 142.58 242.46 145.6 244.69 148.91 246.63 152.55 248.24 156.53 251.26 165.01 253.84 171.31 
M 255.72 175.41 263.62 191.25 
M 270.65 202.16 276.07 209.66 
M 284.84 221.29 287.94 224.9 
M 235.56 131.73 238.69 135.06 243.18 140.25 245.55 143.15 247.84 146.31 249.87 149.76 251.6 153.51 254.74 161.69 257.41 167.87 
M 259.36 171.92 267.64 187.74 
M 274.6 198.95 277.25 202.71 
M 240.42 131.67 244.03 135.52 248.66 140.9 250.96 143.91 253.03 147.16 254.82 150.66 259.9 162.39 267.07 176.3 
M 269.26 180.25 271.46 184.15 
M 278.54 195.57 281.17 199.42 
M 286.95 207.42 292.9 215.59 
M 245.31 131.71 247.3 133.7 251.94 138.82 254.23 141.67 256.31 144.72 257.22 146.34 
M 258.95 149.68 264.27 160.83 
M 270.49 172.64 276.27 182.43 279.9 188.17 
M 288.06 199.94 291.17 204.01 
M 250.55 132.06 255.35 136.9 257.63 139.57 259.71 142.41 261.54 145.39 263.22 148.54 267.53 157.31 
M 271.51 165.01 274.87 170.87 278.56 176.73 
M 283.65 184.44 286.28 188.32 
M 295.36 200.42 298.61 204.6 
M 306.96 217 309.49 220.83 
M 256.17 132.72 259.85 136.37 
M 262.02 138.9 264.92 142.93 266.62 145.81 273.52 159.42 278 167.09 280.54 170.97 291.37 186.49 295.99 192.55 
M 302.67 200.89 305.84 205.12 
M 261.44 133.15 264.14 135.73 266.2 138.08 268.08 140.58 271.41 146.11 275.61 154.17 
M 277.6 157.75 281.04 163.36 283.65 167.18 290.73 176.83 
M 293.52 180.74 297.9 186.7 302.89 192.89 
M 309.59 201.34 312.53 205.61 
M 266.28 133.34 269.08 136.09 270.98 138.39 272.75 140.86 274.42 143.52 281.68 156.1 284.07 159.73 291.23 169.11 
M 297.01 176.96 299.86 180.94 
M 306.16 189.09 312.9 197.56 
M 318.68 206.26 321.23 210.53 
M 270.83 133.47 273.66 136.35 275.49 138.63 279 143.76 284.78 152.87 288.65 158.01 
M 297.69 169.14 303.36 177.19 
M 309.34 185.35 314.33 191.61 317.59 195.95 319.07 198.18 
M 327.28 211.21 330.14 215.17 
M 274.83 133.26 278.08 136.57 279.96 138.86 288.02 149.87 290.56 153 299.8 163.39 302.81 167.26 311.16 179.61 319.06 189.92 
M 325.12 198.87 327.91 203.39 
M 278.76 133.05 282.61 136.81 292.63 148.56 
M 295.39 151.54 298.42 154.67 
M 301.62 158.02 306.37 163.53 309.23 167.53 313.33 173.76 
M 319.2 181.88 322.36 185.99 
M 282.92 133.01 287.45 137.11 294.57 144.57 304.86 154.8 
M 308.03 158.22 309.62 160.02 312.6 163.9 316.82 170.03 
M 319.67 174.1 322.67 178.11 
M 335.12 195.48 338.19 200.07 
M 287.79 133.34 292.7 137.42 306.38 150.37 309.45 153.44 312.54 156.81 317.11 162.53 
M 320.05 166.53 326.05 174.49 
M 329.23 178.43 332.48 182.5 
M 338.9 191.38 343.74 198.27 345.44 200.43 
M 293.14 133.73 298.29 137.72 300.92 140.05 309.39 147.82 313.86 152.31 
M 319.9 159.38 322.98 163.27 
M 326.09 167.21 332.53 174.98 
M 335.86 178.94 339.21 183.08 
M 299.54 134.64 304.06 138.01 315.26 148.11 318.16 151.14 330.6 165.97 335.69 171.7 
M 339.11 175.57 346 183.7 
M 349.45 187.99 352.96 192.34 
M 360.12 200.75 363.52 204.71 
M 306.08 135.49 308.48 137.23 
M 311.23 139.42 318.2 145.51 321.05 148.39 331.72 160.87 
M 335.18 164.67 338.68 168.46 
M 312.65 136.2 318.41 140.51 321.2 142.92 324.02 145.64 326.87 148.73 334.53 157.66 
M 337.93 161.43 348.62 172.8 
M 352.26 176.62 357.66 182.49 362.91 188.59 
M 320.02 137.23 324.23 140.46 327.05 143.02 329.89 145.94 342.28 160.07 349.44 167.59 354.99 173.15 
M 358.71 176.88 364.14 182.59 372.79 192.61 
M 376.04 196.54 381.81 203.94 
M 327.4 138.41 330.07 140.66 335.81 146.44 344.94 156.82 350.1 162.35 
M 353.76 166.02 361.29 173.25 
M 365.04 176.89 368.71 180.64 
M 334.11 139.59 338.75 143.93 350.89 157.14 354.33 160.72 359.89 166.07 
M 363.69 169.6 371.29 176.79 
M 375 180.56 380.3 186.44 388.09 196.02 
M 340.64 140.8 344.49 144.4 358.63 158.93 
M 362.23 162.41 375.55 174.78 379.37 178.5 384.77 184.34 
M 388.11 188.26 391.26 192.11 
M 347.43 142.14 353.23 147.52 366.34 160.42 381.62 174.57 387.31 180.28 
M 397.58 192.1 404.25 200.04 
M 355.8 144.45 362.25 150.37 374.04 161.78 
M 381.69 168.85 385.64 172.51 
M 389.57 176.27 393.4 180.14 
M 365.33 147.5 369.72 151.64 
M 372.93 154.75 381.74 163.16 391.71 172.36 
M 395.71 176.19 401.45 182.09 403.23 184.12 
M 375.19 150.94 383.89 159.34 395.89 170.41 401.91 176.19 
M 405.72 180.13 406.17 180.61 
M 385.29 154.7 400.09 168.55 
M 404.12 172.37 406.17 174.36 
M 396.45 159.34 406.17 168.55 
M 130.17 145.28 126.64 149.03 
M 136.27 143.6 129.15 151.13 
M 142.82 142.04 136.99 147.44 130.94 154.04 
M 150.04 140.44 142.74 146.74 139.53 149.72 134.96 154.58 
M 157.44 138.91 148.91 146.09 142.23 152.23 139.03 155.48 135.99 158.98 132.82 163.14 
M 164.17 138.16 155.34 145.48 148.42 151.74 145.06 154.99 141.82 158.41 138.7 162.12 133.1 169.84 
M 171.14 137.5 165.36 141.98 161.86 144.97 154.83 151.35 148.01 158.04 144.74 161.73 141.59 165.71 133.39 177 
M 178.22 137.02 171.79 141.74 168.31 144.65 161.31 151.03 154.41 157.78 151.01 161.45 147.7 165.41 136.66 180.1 
M 185.9 136.23 181.76 139.03 174.74 144.42 171.2 147.5 164.25 154.11 157.37 161.22 153.93 165.16 145.68 175.62 
M 139.4 183.77 134.57 190.72 
M 193.29 135.43 184.79 141.42 181.24 144.15 174.09 150.37 167.12 157.26 163.67 160.96 154.96 171.14 
M 151.58 175.32 143.63 185.37 139.53 191.16 
M 136.93 195.11 136.12 196.39 
M 199.89 134.82 187.76 143.79 180.55 149.83 176.96 153.23 173.42 156.79 166.32 164.57 152.43 181.11 147.84 186.95 
M 206.03 134.33 190.65 146.14 183.38 152.55 176.14 159.94 172.49 163.99 159.95 178.72 
M 156.61 182.72 148.96 192.48 
M 211.97 133.91 198.8 144.16 
M 195.22 147.09 189.74 151.87 186.08 155.41 180.53 161.2 
M 173.1 169.62 169.43 173.95 
M 165.86 178.19 162.41 182.27 
M 159.13 186.23 155.64 190.59 
M 218.21 133.36 210.08 139.56 199.54 148.16 192.29 154.79 188.56 158.5 182.9 164.48 
M 179.14 168.68 168.26 181.53 
M 164.89 185.65 163.82 186.98 
M 224.84 132.72 219.29 136.71 212.45 142.08 205.35 147.97 198.22 154.42 190.8 161.78 183.22 169.88 175.86 178.38 170.13 185.34 
M 231.52 132.1 225.01 136.74 214.64 144.9 207.4 151.06 198.46 159.55 
M 194.75 163.29 189.06 169.22 183.5 175.33 
M 179.86 179.51 175.44 184.75 
M 238.12 131.66 236.36 132.72 230.58 136.9 218.56 146.41 
M 214.86 149.52 205.85 157.69 196.82 166.72 
M 193.03 170.67 185.58 178.75 
M 181.94 182.88 180.84 184.15 
M 244.1 131.7 241.67 133.14 236.05 137.19 220.76 149.52 
M 216.93 152.76 207.99 161.02 195.17 174.07 
M 187.68 182.25 186.55 183.51 
M 250.13 132.01 247.07 133.67 244.2 135.54 241.44 137.61 221.14 154.39 215.51 159.36 
M 212 162.66 199.25 175.49 193.58 181.68 
M 255.91 132.69 249.77 136.18 246.88 138.17 244.14 140.35 235.42 148.05 223.66 157.77 216.13 164.37 208.99 171.27 203.32 177.12 
M 199.55 181.23 198.71 182.16 
M 261.81 133.16 255.53 136.92 249.65 141.03 246.9 143.33 241.37 148.49 236.21 153.02 
M 232.3 156.3 222.27 164.69 212.93 173.18 
M 209.18 176.96 205.47 180.98 
M 267.29 133.38 258.21 139.65 252.3 144.12 240.43 155.18 216.93 175.35 211.47 180.82 
M 272.36 133.39 257.63 144.91 254.68 147.43 242.47 159.31 234.76 166.13 222.96 176.12 217.59 181.05 
M 277.46 133.12 273.47 136.34 259.76 148.18 256.76 150.98 247.78 160.33 244.35 163.68 236.8 170.56 227.08 178.81 
M 223.14 182.23 222.4 182.89 
M 282.48 132.98 280.09 134.72 277.9 136.56 261.77 151.62 249.64 164.7 242.64 171.57 235.16 178.23 226.27 185.68 
M 287.16 133.3 284.71 134.98 280.11 138.86 269.79 148.98 263.88 155.24 254.82 165.6 246.51 174.21 
M 242.95 177.58 237.29 182.53 231.28 187.48 
M 227.43 190.82 227.07 191.14 
M 292.19 133.64 287.24 137.1 282.34 141.37 274.53 149.24 267.53 157.31 
M 264.65 160.86 258.59 168 
M 255.42 171.52 248.72 178.44 
M 245.12 181.81 231.55 193.24 229.23 195.39 
M 297.07 134.29 292.47 137.4 287.27 141.68 282 146.67 279.31 149.48 273.89 155.8 268.44 162.97 262.56 170.26 254.46 179.13 
M 250.95 182.59 245.33 187.65 239.51 192.47 
M 302.06 134.99 298.06 137.71 292.65 141.97 287.12 146.94 284.34 149.73 281.6 152.73 278.91 156 268.05 170.6 261.89 177.87 255.03 184.96 251.3 188.4 241.88 196.36 
M 238.42 199.36 235.3 202.38 
M 232.53 205.46 227.55 211.7 
M 219.45 220.16 219.25 220.33 
M 307.26 135.62 301.11 140.06 295.61 144.62 289.88 149.93 286.99 152.93 284.19 156.18 281.54 159.66 272.1 172.7 
M 269.13 176.41 266.01 180.06 
M 262.68 183.67 257.3 188.97 248 197.06 
M 244.5 200.02 239.77 204.34 237.03 207.29 233.27 211.89 
M 230.81 214.94 226.96 219.28 222.81 223 
M 312.43 136.18 306.94 140.36 301.55 144.88 295.93 150.06 293 153.02 290.07 156.27 287.23 159.77 279.15 170.96 273.36 178.52 266.89 185.84 261.5 191.12 
M 254.17 197.66 245.82 204.81 241.62 209.02 
M 239.01 211.96 236.48 214.97 
M 233.94 217.95 230.06 222.12 228.76 223.31 
M 220.56 229.07 217.66 230.42 
M 317.31 136.81 312.77 140.55 304.89 147.6 299.39 153.08 296.49 156.26 290.63 163.42 279.25 178.66 272.87 186.1 269.44 189.7 262.23 196.55 249.05 207.95 246.24 210.64 242.24 214.93 
M 239.62 217.87 234.41 223.38 
M 231.86 225.72 229.31 227.74 
M 221.13 231.99 218.21 232.83 
M 322.05 137.55 318.59 140.5 313.41 145.4 305.75 153.25 303.05 156.32 294.16 167.18 285.33 178.7 282.22 182.51 275.62 189.92 270.37 195.17 
M 266.82 198.49 263.33 201.61 
M 256.86 207.18 252.44 211.02 248.22 215.02 
M 245.46 217.82 240.09 223.32 
M 232.41 229.65 229.87 231.16 
M 326.92 138.33 321.81 142.92 314.25 150.85 309.34 156.58 299.18 169.15 
M 296.07 173.01 288.46 182.57 283.59 188.24 
M 280.22 191.91 276.79 195.45 
M 273.31 198.84 266.45 205.08 
M 263.24 207.87 260.22 210.45 
M 254.48 215.44 248.72 220.71 
M 243.23 225.75 240.6 227.92 
M 238.03 229.78 236.75 230.64 232.95 232.58 
M 332.06 139.23 327.66 143.04 325.06 145.68 320.02 151.29 316.46 155.61 
M 314.09 158.68 310.23 163.73 291.7 186.5 288.45 190.3 283.3 195.8 
M 279.86 199.28 274.72 204.21 266.51 211.42 
M 263.55 213.92 260.71 216.32 
M 243.74 229.97 241.11 231.55 
M 238.54 232.82 235.98 233.79 
M 337.32 140.15 333.54 143.46 330.94 146.02 325.79 151.8 311.96 169.7 
M 308.85 173.5 301.16 182.93 295.2 190.54 290.18 196.18 
M 286.65 199.8 281.38 204.93 276.23 209.64 
M 263.98 219.9 261.18 222.13 
M 342.41 141.15 339.35 143.99 334.3 149.33 331.73 152.32 328.03 157.02 
M 325.72 160.16 320.91 166.66 
M 312.1 177.68 307.58 183.28 299.01 194.67 295.68 198.46 292.11 202.15 286.6 207.35 
M 279.53 213.66 270.06 221.37 
M 267.22 223.51 260.31 228.33 256.01 230.86 
M 347.41 142.14 342.66 147.05 337.75 152.86 325.71 168.97 314.06 183.64 307.31 193.14 
M 304.45 196.97 302.94 198.89 299.55 202.67 295.85 206.34 288.27 213.17 282.98 217.67 
M 276.44 222.84 270.57 226.98 
M 267.81 228.74 265.06 230.33 
M 262.27 231.78 259.43 233.08 
M 250.7 235.74 247.88 236.08 
M 352.11 143.37 348.44 147.41 346.04 150.31 341.33 156.54 337.94 161.43 
M 335.64 164.71 330.65 171.25 
M 325.05 178.23 320.61 183.88 317.77 187.78 312.55 195.5 308.28 201.25 
M 304.98 205.05 303.22 206.93 299.4 210.59 293.62 215.66 
M 280.06 226.39 277.01 228.42 
M 271.29 231.69 268.5 233.01 
M 251.08 236.67 250.47 236.64 
M 356.65 144.7 354.27 147.52 349.56 153.71 340.8 166.91 337.11 171.82 
M 334.45 175.15 328.73 182.26 
M 322.87 190.12 316.17 199.89 311.74 205.55 
M 290.11 225.24 286.92 227.59 
M 361.24 146.1 357.81 150.5 355.48 153.81 353.25 157.2 347.04 167.43 344.81 170.74 342.37 174.06 330.9 188.52 323.53 198.66 
M 317.94 206.18 316.47 208.01 311.32 213.5 
M 365.73 147.64 361.44 153.65 359.26 157.15 351.15 171.2 346.37 178.01 342.19 183.36 
M 332.84 195.28 329.71 199.36 
M 326.74 203.25 323.86 206.93 
M 317.67 214.07 310.61 220.92 
M 370.25 149.19 367.33 153.39 365.19 156.92 359.41 167.87 355.32 174.95 350.38 182.08 342.96 191.73 
M 333.05 203.91 329.94 207.63 
M 374.72 150.77 371.04 156.58 369.09 160.26 363.67 171.41 359.48 178.73 357.04 182.46 350.01 192.21 
M 346.83 196.28 341.7 202.42 336.58 208.14 
M 323.96 221.81 321.55 224.1 
M 379.18 152.38 376.86 156.19 374.92 159.88 369.79 171.25 367.92 174.98 363.53 182.59 359.69 188.53 
M 357 192.53 354.08 196.57 
M 347.37 204.59 343.81 208.4 
M 383.75 154.07 380.76 159.5 375.82 171 372.13 178.66 365.01 190.64 361.12 196.73 
M 354.92 204.66 347.77 212.2 
M 388.46 155.98 386.71 159.23 384.94 163.01 380.16 174.62 378.33 178.53 376.23 182.49 372.64 188.57 
M 370.21 192.67 366.5 198.82 363.74 202.79 362.16 204.7 
M 358.85 208.5 355.33 212.26 
M 393.47 158.01 389.37 166.66 384.45 178.37 382.46 182.38 376.47 192.55 
M 374.01 196.65 371.51 200.73 
M 398.58 160.31 393.09 172.34 
M 391.37 176.23 387.46 184.27 
M 385.13 188.34 382.6 192.36 
M 380.03 196.38 374.91 204.47 
M 403.69 162.63 395.67 180.12 
M 391.25 188.19 380.69 204.04 
M 406.17 170.83 402.84 178.13 399.77 184.11 
M 397.46 188.13 393.59 194.01 386.55 203.63 
M 383.83 207.56 382.11 210.1 
M 406.17 183.68 402.58 190.18 401.3 192.13 
M 398.61 195.97 390.07 206.94 
M 405.18 196.18 402.41 199.93 
M 236.46 131.64 237.69 128.98 238.55 126.17 239.7 123.53 240.57 120.91 241.49 118.74 242.3 115.7 243.32 109.25 244.46 106.79 245.45 103.81 246.2 99.25 248.27 93.76 250.33 91.41 252.33 88.77 252.7 86.53 253.56 83.47 254.71 81.82 255.05 79.8 261.18 72.79 262.19 70.49 266.08 64.44 268 62.85 271.42 61.7 274.33 60.11 275.04 58.09 278 55.48 279.49 52.15 282.01 49.68 284.45 48.91 286.95 47.62 290.02 44.92 292.89 42.12 298.46 38.02 301.49 37.64 303.44 36.09 306.01 35.02 298.72 45.43 299.14 49.14 298.53 51.82 298.11 54.69 297.78 60.94 296.46 62.82 296.49 65.79 296.26 68.52 296.86 72.07 296.8 74.95 295.87 80.35 295.07 83.11 293.84 85.45 292.9 88.08 292.53 91.4 289.86 92.64 288.7 95.38 286.51 97.1 285.28 99.54 284.36 102.01 283.25 107.6 283.25 110.67 283.87 117.42 284.32 120.34 284.4 122.82 284.82 125.66 284.09 128.5 285.42 133.18 
M 281.47 132.91 281.47 132.91 
M 241.19 131.68 242.42 129.19 245.06 121.68 245.92 118.37 246.15 115.37 246.7 112.45 247.54 110.17 248.83 108.2 249.29 105.86 249.2 102.85 249.97 99.69 250.3 96.23 252.38 93.42 254.24 91.41 254.71 88.82 256.13 86.88 258.78 81.88 261 80.76 264.97 76.34 266.71 73.24 268.56 70.59 269.96 68.19 272.93 66.28 278.94 63.81 280.58 61.92 283.19 59.57 287.79 53.31 290.48 52.24 
M 245.92 131.71 247.28 129.45 248.69 124.19 249.68 117.96 250.46 115.29 250.61 112.91 253.32 108.69 254.78 105.9 255.77 102.69 255.12 99.75 255.86 96.82 257.58 94.36 259.92 92.16 262.84 89.76 265.78 85.12 267.7 83.82 269.4 82.37 
M 250.63 132.07 252.18 130.32 252.99 127.62 253.93 121.6 255.54 115.86 256.62 113.48 260.56 109.58 262.29 107.09 262.38 104.22 263.2 100.18 265.04 97.43 266.98 95.44 
M 255.33 132.62 256.81 130.56 259.19 122.24 259.24 120.16 261.46 115.48 263.13 113.3 265.45 110.71 266.82 107.89 270.18 102.58 271.27 100.46 
M 260.04 133.09 261.15 131.06 261.85 128.1 262.6 122.67 263.66 121.05 264.79 118.81 266.55 116.84 268.45 114.16 270.53 111.96 272.27 109.82 274.53 106.87 276.09 104.44 278.47 102.49 280.85 101.03 
M 264.76 133.28 265.99 131.01 266.81 128.06 267.17 125.83 270.81 120.28 
M 269.49 133.47 270.71 130.87 270.95 128.27 272.38 126.22 
M 274.21 133.29 275.41 131.39 276.15 128.71 
M 278.93 133.05 281.54 131.47 
M 135.3 196.57 138.78 195.55 141.75 194.07 144.61 193.74 146.84 192.62 150.27 192.39 155.98 190.48 158.2 190.49 160.07 189.04 163.06 187.32 166.51 185.74 211.16 180.78 213.5 181.09 217.53 181.03 220.6 182.05 224.42 183.83 226.5 185.92 227.2 189.01 227.06 191.27 228.1 194.27 232.99 199.15 233.13 201.95 231 203.69 228.68 205.25 225.81 206.26 224.07 208.53 219.35 211.71 218 214.31 219.46 219.18 218.98 221.75 218.75 224.57 217.4 226.91 215.63 229.13 214.06 231.55 211.65 233.03 209.44 233.99 206.18 233.91 203.26 234.18 197.04 234.31 194.35 234.8 191.82 236.1 189.55 237.82 186.56 240.66 164.93 237.67 162.19 235.21 161.02 232.62 159.13 230.94 155.49 229.49 153.44 229.34 145.74 227.3 142.9 225.23 141.6 223.66 139.7 221.91 
M 135.68 198.09 138.93 197.18 144.9 195.04 150.4 193.77 153.21 193.66 158.42 192.27 163.41 189.54 169.05 188.68 171.68 187.86 174.97 187.68 178.26 186.88 180.88 185.81 183.6 186.04 186.9 184.71 189.81 183.81 195.51 182.89 197.99 181.52 
M 136.59 200.15 139.14 199.84 142.29 198.59 145.23 197.82 148.17 197.46 151.07 196.78 154.34 196.31 157.37 195.66 159.81 195.08 161.76 194.27 164.5 193.83 170.18 194.33 173.42 192.63 176.35 192.48 181.57 190.31 183.85 189.96 187.39 189.82 189.63 188.19 192.66 187.05 195.65 187.39 199.62 188.76 205.55 187.49 
M 137.64 202.52 139.82 202.15 142.49 201.46 148.28 200.53 157.51 199.59 159.94 198.81 162.39 198.41 168.6 198.46 171.2 199.7 176.37 199.55 180.28 198.28 184.27 196.49 187.47 196.84 189.03 196.3 194.8 195.14 197.57 194.17 201.66 193.84 
M 138.66 204.87 139.89 204.84 142.07 204.24 145 203.93 154.91 204.23 157.88 204.07 160.34 203.59 163.34 202.51 166.15 202.9 168.8 203.95 171.56 204.5 174.43 204.24 177.8 204.35 181.32 203.48 185.28 202.27 188.16 202.04 190.6 201.26 192.03 201.56 199.28 201.51 202.06 200.54 204.88 200.46 206.65 201.12 209.5 201.84 212.56 201.77 215.09 202.31 
M 139.25 207.22 141.99 206.9 148.63 207.49 152.53 207.61 155.51 208.06 158.43 208.17 163.24 207.55 166.21 207.6 168.44 207.75 171.73 208.83 178.17 208.63 181.22 208.28 184.27 207.51 188.02 208.14 194.01 207.05 196.21 207.43 198.55 208.81 201.18 210.66 203.98 211.74 
M 139.58 209.68 144.55 210.1 148.3 210.85 151.96 211.23 155.01 211.85 158.17 212.02 161.07 211.58 164.25 211.52 167.02 211.79 169.41 211.49 172.02 212.38 174.3 212.67 178.49 212.58 181.39 213.03 183.7 213.1 187.37 213.99 190.58 214.56 
M 139.84 212.1 144.74 213.57 151.42 213.88 154.47 214.87 163.53 214.81 166.3 215.52 169.39 215.95 171.92 216.78 174.42 217.22 
M 140.09 214.65 141.67 215.52 144.77 216.4 147.75 216.65 151.12 217.21 154.5 217.92 157.41 218.86 160.04 219.26 162.88 219.43 165.96 220.4 168.65 220.48 171.42 222.2 174.49 223.54 176.99 224.04 180.15 223.99 182.9 224.51 186.52 224.95 190.12 226 192.31 226.9 193.72 227.69 197.82 229.45 200.3 230.69 202.63 230.76 205.42 231.49 
M 140.27 217.59 144.38 219.62 147.54 220.54 151.14 221.45 154.63 221.67 157.13 222.45 163.95 223.68 167.05 224.72 
M 140.05 220.1 141.86 220.94 143.9 222.35 147.45 224.04 150.76 224.65 153.71 226 156.11 226.66 159.94 227.31 162.67 228.33 165.25 229.62 168.97 233.52 172.23 235.33 174.43 237.15 182.06 239.83 185.19 241.15 
M 202.71 240.63 207.18 245.86 210.93 249.02 217.46 267.13 216.11 269.51 215.13 272.38 213.24 274.44 210.33 274.97 205.35 272.25 203.35 271.6 197.85 268.87 195.76 269.14 192.23 267.97 189.41 267.57 187.46 268.41 184.9 268.63 182.2 266.81 174.87 259.08 173.02 257.51 167.64 255.58 163.98 243 160.64 238.62 157.7 232.92 
M 198 240.15 200.86 244.67 203.42 247.6 207.57 251.44 209 253.28 
M 193.3 239.67 196.3 243.26 200.25 249.83 202.87 252.36 205.64 254.48 206.43 256.1 207.1 258.29 209.2 260.57 
M 188.6 239.18 191.89 242.39 193.72 245.32 195.41 248.79 197.2 251.56 199.66 254.46 202.15 256.77 203.23 259.59 205.24 261.54 206.62 263.26 207.7 265.7 
M 185.02 240.44 186.36 242.54 188.69 245.33 190.87 248.29 192.41 250.69 195.2 253.54 197.91 259.29 201.43 265.42 
M 180.12 239.77 181.71 242.74 185.42 248.66 189.98 254.42 
M 175.73 239.16 176.89 241.29 178.25 244.55 180.03 248 183.75 254.56 184.7 257.63 186.74 259.46 
M 171.48 238.57 174.53 243.06 175.22 246.46 179.33 257.08 
M 167.34 238 170.1 242.03 171.26 245.12 171.7 253.87 
M 160.8 233.73 162.37 237.99 165.09 241.29 167.21 244.93 
M 382.72 213.37 386.63 218.04 389.95 222.37 392.62 224.92 397.13 233.54 395.88 235.94 392.17 239.98 389.87 245.71 387.31 247.05 384.22 247.8 381.07 247.8 378.27 246.74 376.25 248.68 374.42 250.78 372.24 252.38 369.8 253.22 367.09 252.71 364.69 251.94 361.81 251.56 359.5 252.87 355.59 251.99 352.41 251.85 349.58 252.23 347.59 253.45 345.02 254.2 340.15 256.53 334.59 257.15 331.76 256.7 328.97 255.75 320.8 253.72 316.67 253 313.28 254.8 309.17 254.24 305.69 252.84 302.26 251 300.02 251.07 297.82 251.96 290.87 247.69 288.02 244.6 285.68 241.1 281.47 236.3 
M 378.21 214.78 381.86 217.69 384.04 220.96 386.45 223.56 389.14 225.23 391.95 228.8 394.84 231.98 
M 373.7 216.19 377.27 219.07 379.32 221.82 381.62 224 383.51 226.42 
M 369.16 217.52 372.92 220.31 375.23 223.28 376.91 226.03 382.01 230.33 384.48 233.45 
M 364.6 218.79 368.43 221.97 370.87 224.59 375.57 230 377.66 233.4 379.46 235.36 384.37 239.5 386.28 242.6 
M 360.05 220.05 362.77 223.13 365.7 225.6 370.33 231.87 
M 355.48 221.27 358.4 224.26 360.23 227.2 362.47 229.53 364.91 232.66 
M 350.91 222.5 353.95 225.69 358.29 231.19 360.34 233.44 362.77 235.67 366.29 240 367.37 242.68 
M 346.31 223.61 349.33 226.87 353.45 233.75 355.71 236.2 358.18 238.25 359.75 240.01 360.88 241.79 
M 341.7 224.63 344.81 228.36 347.48 231.2 349.33 234.14 352.89 240.56 
M 337.08 225.66 340.21 229.49 343.32 231.84 345.47 234.22 348.58 240.69 350.8 243.58 354.16 246.1 356.27 248.5 357.44 250.37 
M 332.46 226.65 335.18 231.07 337.53 233.81 339.92 236.06 342.58 238.95 344.43 241.26 346.99 243.68 349.02 247.17 350.33 250.18 
M 327.83 227.65 333.23 235.35 335.65 238.22 337.78 240.23 
M 323.24 228.77 326.45 232.49 331.12 238.6 333.5 242.01 336.02 244.74 338.49 246.74 
M 318.66 229.95 322.3 233.2 324.41 236.23 326.08 239.71 331.02 245.65 
M 314.06 231.05 317.69 234.59 319.9 237.74 322.49 244.72 324.91 246.85 
M 309.42 231.94 313.07 235.41 315.01 238.48 316.93 242.17 318.39 246.3 320.07 248.82 325.1 251.01 
M 304.78 232.83 309.8 240.21 311.58 243.12 314.34 246.65 315.43 249.93 
M 300.09 233.46 304.89 241.22 306.94 243.7 308.88 246.72 
M 295.4 234.04 298.39 238.54 300.02 241.51 301.71 243.67 303.82 247.82 
M 290.72 234.71 293.7 239 296.17 241.84 297.71 245.36 
M 286.05 235.51 289.52 240.17 292.04 242.88 293.88 245.34 295.3 248.88 
M 405.23 163.33 408.74 162.48 411.26 161.14 416.14 158.08 418.67 156.87 422.96 153.64 425.73 152.11 428.34 150.15 430.69 148.67 436.4 146.59 443.97 142.45 446.8 141.27 449.26 139.72 450.37 138.31 451.68 135.4 454.26 134.28 456.47 133 461.75 130.73 465.69 127.62 468.87 125.55 477.86 122.12 479.51 121.04 482.4 120.18 484.82 118.57 488.64 116.63 468.15 135.57 466.27 137.64 464.54 139.85 463.32 142.55 463.21 145.99 462.25 148.58 461.09 150.94 460.75 156.48 460.37 159.38 459.14 161.69 458.97 165.15 457.75 167.77 454.2 171.92 452.66 174.26 452.57 176.99 451.94 182.38 450.89 184.88 450.43 188.05 450.34 191.08 451.38 194.74 451.58 196.94 451.56 198.81 452.84 204.25 456.27 210.3 456.32 213.05 457.39 215.44 459.23 217.69 459.63 219.32 459.21 221.25 460.65 227.37 464.25 236.44 467.59 241.6 468.13 243.06 490 261.86 485.46 260.9 481.9 259.68 478.45 257.74 475.85 255.43 473.78 253.04 472.56 252.66 466.63 249.23 463.61 246.06 460.62 245.07 457.78 243.89 453.11 238.95 450.71 237.42 447.95 236.87 445.71 234.42 443.42 233.12 441.18 231.44 439.46 229.27 436.64 227.58 432.43 224.44 429.09 222.75 421.67 217.1 419.06 214.73 416.62 213.29 414.11 211.53 411.43 209.96 408.41 208.47 405.23 205.93 
M 405.23 165.46 408.71 164.8 411.59 163.76 413.73 162.5 416.68 161.02 419.55 159.83 422.47 158.32 425.09 157.56 432.21 153.62 438.69 150.84 441.84 149.17 443.73 147.8 446.08 147.34 448.72 146.06 451.47 145.48 453.99 144.61 457.34 143.16 458.57 140.94 460.95 138.01 463.86 137.22 466.9 136.05 
M 414.21 165.45 417.33 164.69 422.95 161.76 426.12 160.87 430.83 158.87 434.11 158.22 436.59 156.63 439.62 155.02 441.93 153.09 
M 414.77 168.31 417.45 167.77 420.36 166.71 423.05 165.37 431.4 162.75 434.84 161.9 437.1 160.22 439.32 159.22 442.74 158.56 449.82 155.49 452.36 153.39 453.14 152.49 455.25 151.75 
M 414.92 171.11 420.2 170.12 423.38 170.04 427.1 168.8 432.52 166.41 
M 405.23 173.98 408.67 174.02 411.91 173.8 414.82 173.93 420.65 173.31 424.28 173.37 427.3 172.03 431.21 171.47 433.12 170.55 
M 411.52 176.43 414.94 176.6 417.69 176.16 420.65 175.91 423.66 176.47 432.56 173.57 435.02 172.6 437.69 171.97 441.02 171.82 
M 411.82 178.82 414.71 179.26 421.12 178.69 423.19 178.2 426.68 178.87 429.96 178.83 432.25 178.56 
M 415.13 181.46 418.46 181.79 421.54 181.59 424.54 181.61 427.68 182.19 430.33 182.18 432.68 182.48 435.4 181.88 439.27 180.71 
M 405.23 182.5 408.89 183.05 412.34 183.24 415.39 183.72 418.81 184.48 425.53 184.42 428.98 184.79 432.16 185.34 437.64 185.68 
M 415.68 186.06 418.12 186.93 426.33 187.62 429.54 187.52 432.51 188.03 434.83 188.1 438.21 189.72 
M 415.74 188.92 418.67 189.71 425.47 190.79 429.3 191.08 432.71 191.75 435.06 191.68 437.97 193.08 441.32 192.9 443.88 193.76 
M 416.19 192.03 421.8 193.57 425.05 193.8 428.59 194.46 
M 412.44 193.57 421.1 197.18 423.91 197.08 430.18 197.94 433.57 197.61 436.14 199.2 438.58 200.11 441.75 200.76 444.32 202.18 
M 405.23 193.15 409 194.92 415.35 197.37 418.01 198.94 421.21 199.41 423.76 200.16 427.56 200.46 
M 412.37 198.63 415.23 200.03 418.5 200.26 421.47 201.13 423.77 202.17 427.68 203.26 431.52 204.81 
M 409.1 199.64 411.93 201.28 414.76 202.29 417.88 202.42 420.5 203.05 424.3 205.09 427.77 206.43 435.34 210.56 439.48 212.55 442 214.03 443.66 215.93 445.63 217.19 447.67 216.83 450.42 217.67 
M 405.23 199.54 411.5 203.53 414.14 204.27 417.24 204.86 420.08 205.91 423.6 207.78 426.44 209.6 428.83 210.8 430.95 212.43 434.23 214.39 440.02 218.55 443.13 220.01 445.56 220.9 446.3 222.24 452.02 225.17 455.87 226.29 458.65 228.01 
M 414.2 206.72 417.09 207.95 425.64 212.66 427.75 213.49 430.27 215.03 432.96 217.12 436.07 219.16 438.76 221.58 
M 414.59 209.33 417.13 210.7 419.44 212.3 425 215.24 430.01 218.86 433.08 220.02 436.21 222.04 438.02 224.5 440.64 225.84 442.71 228.34 444.46 230.14 447.63 230.95 
M 371.47 149.61 373.55 145.12 374.74 143.03 377.45 139.17 378.97 137.42 380.71 135.87 382.71 134.6 385.02 133.62 387.56 132.88 390.27 132.31 393.37 132.58 396.89 134.95 400.04 138.96 401.91 143.48 402.18 147.53 401.12 150.42 396.26 156.01 393.98 158.22 
M 376.76 143.91 378.97 141.2 380.71 139.65 382.71 138.38 385.02 137.4 387.56 136.66 390.27 136.09 391.82 136.23 
M 395.13 137.55 396.89 138.73 400.04 142.74 400.98 145 
M 55.78 168.43 62.27 164.5 69.91 160.75 74.38 158.3 79.24 156.28 84.36 154.57 100.25 150.01 105.8 149.06 119.25 147.19 122.28 146.97 123.96 147.02 128.89 150.71 131.36 154.71 132.57 158.89 132.89 167.53 133.27 171.83 133.34 176.16 133.84 184.78 134.42 189.04 134.8 193.34 135.46 197.59 139.06 205.78 140.07 214.33 140.34 218.63 139.48 223.1 135.12 228.03 123.27 227.85 114.53 227.07 106.82 225.74 99.68 223.86 93.12 221.45 87.38 218.49 82.67 214.87 69.9 203.48 
M 67.58 200.64 66.16 198.9 63.07 194.11 60.68 189.7 58.96 185.47 58.09 182.83 
M 113.02 168.94 113.05 172.68 112.53 179.59 112.02 182.66 111.82 185.44 112.8 187.9 114.07 190.21 114.78 192.59 117.17 198.2 117.89 201.72 116.01 206.04 102.12 207.1 96.58 207.15 91.04 206.6 85.64 205.37 80.77 203.33 76.73 200.34 
M 68.62 202.61 63.77 193.11 59.23 185.19 57.21 181.12 52.75 172.87 52.07 170.55 53.3 168.5 55.51 168.19 57.27 169.73 59.07 174.2 62.96 185.04 66.56 193.81 70.07 203.39 
M 68.04 203.62 62.81 202.05 58.42 200.47 45.19 196.29 41 194.54 31.68 191.87 30 190.34 30.11 188.07 32.05 186.85 34.51 187.29 38.83 189 47.36 192.95 58.24 197.64 68.86 202.72 
M 69.32 202.93 69.81 203.15 
M 84.07 175.56 83.42 173.1 83.61 170.55 84.61 168.2 86.32 166.31 88.55 165.07 91.06 164.63 93.58 165.02 95.84 166.22 97.58 168.08 98.63 170.4 98.87 172.94 98.27 175.42 96.89 177.57 94.89 179.16 92.49 180.01 89.94 180.04 87.52 179.23 85.49 177.69 84.07 175.56 
M 83.98 175.35 83.47 173.5 83.43 171.58 83.86 169.71 84.25 168.83 85.33 167.25 86.77 165.98 87.59 165.49 89.39 164.83 91.3 164.63 92.26 164.71 94.1 165.22 
M 85.72 174.62 85.28 172.5 85.47 170.92 
M 87.05 168.2 88.46 167.17 89.82 166.67 91.26 166.52 93.38 166.97 
M 88.31 173.65 88.05 172.67 88.25 171.36 
M 89.11 170.06 90.1 169.46 91.11 169.28 92.12 169.44 93.02 169.91 93.72 170.66 94.14 171.59 94.23 172.6 93.99 173.6 93.44 174.46 92.64 175.09 91.68 175.43 90.66 175.44 89.69 175.12 88.88 174.5 88.31 173.65 
M 90.08 169.47 89.58 170.48 
M 89.17 171.31 88.2 173.23 
M 91.56 169.35 88.96 174.56 
M 92.77 169.78 90.04 175.24 
M 93.73 170.69 91.36 175.44 
M 94.22 172.54 93.15 174.69 
M 69.92 203.47 70.36 203.92 
M 59.9 187.79 61.72 189.6 
M 56.89 167.75 62.54 173.4 
M 60.4 165.58 65.64 170.82 
M 64.11 163.62 69.04 168.55 
M 67.91 161.75 72.72 166.55 
M 71.64 159.8 76.32 164.49 
M 75.4 157.88 79.67 162.15 
M 79.41 156.22 82.56 159.37 
M 83.67 154.8 87.42 158.56 
M 88.03 153.49 92.93 158.39 
M 92.4 152.19 97.82 157.61 
M 96.82 150.93 101.03 155.14 
M 101.38 149.82 104.6 153.04 
M 106.24 149 110.21 152.98 
M 111.24 148.33 115.94 153.02 
M 116.17 147.59 120.7 152.11 
M 121.3 147.04 125 150.74 
M 98.32 195.98 94.37 192.89 93.48 191.73 93.09 190.33 93.66 186.68 
M 105.25 153.3 106.37 153.09 107.81 152.5 108.52 152.39 109.49 152.68 109.9 153.28 
M 117.6 151.37 116.63 151.41 115.04 151.84 112.65 152.96 111.22 154.27 110.62 155.12 110.39 155.99 110.39 157.44 
M 130.18 214.96 128.15 212.01 126.99 210.81 125.49 208.24 125.37 207.72 125.47 207.27 126.07 206.2 
M 86.38 183.87 85.12 185.63 83.95 187.64 83.13 188.41 81.65 189.03 79.95 188.99 78.6 189.15 76.26 190.3 
M 80.01 191.66 78.53 191.39 76.92 191.62 75.28 191.6 74.34 191.88 72.14 193 71.5 193.92 71.34 194.88 
M 83.36 173.55 80.13 173.74 79.24 173.32 77.47 171.34 76.03 168.65 
M 80.11 187.04 74.3 189.9 71.4 191.05 70.35 191.92 69.56 193.59 
M 108.49 187.32 108.04 186.63 106.08 184.81 103.44 182.9 103.19 182.47 102.98 181.44 103.06 180.88 103.69 179.69 
M 126.11 193.92 125.16 193.14 122.86 191.68 120.66 188.83 119.84 187.13 119.14 183.71 118.93 181.9 
M 114.14 190.8 114.1 189.68 114.75 188.33 116.88 187.43 117.33 187.06 117.65 186.49 
M 88.64 218.74 89.21 219.43 
M 92.56 218.55 93.74 218.69 94.39 218.44 95.71 217.37 98.26 215.83 98.6 215.86 98.95 216.36 
M 118.45 217.56 116.39 216.79 114.82 215.47 113.63 214.72 112.51 214.51 111.34 215.05 
M 72.41 186.8 70.35 188.78 69.65 189.13 69.18 189.18 68.74 189.11 68.09 188.57 67.93 188.17 68.06 187.17 
M 117.43 218.47 114.72 215.77 113.7 215 112.56 214.69 111.79 214.83 111.27 215.15 
M 72.37 177.53 70.74 175.42 68.63 171.69 67.03 169.23 66.36 168.59 64.66 167.69 62.88 166.07 
M 105.52 152.94 108.46 152.28 109.61 152.65 109.96 153.27 
M 87.88 154.49 87.65 153.6 
M 89.81 216.78 92.55 218.18 93.77 218.33 94.43 218.06 95.85 216.99 97.86 215.92 
M 133.27 203.7 135.68 202.9 137.41 201.99 
M 130.48 213.52 129.78 212.2 129.06 211.34 127.6 210.26 126.1 208.33 125.89 207.85 126.07 206.98 127.48 205.28 
M 106.14 167.74 104.74 167.18 103.62 166.95 102.94 167.02 102.25 167.49 
M 96.36 187.57 98.57 184.15 99.68 181.89 101.44 179.41 102.71 177.97 103.92 175.99 
M 79.77 180.59 75.78 179.44 74.71 179.03 73.79 178.41 71.97 176.54 71.12 175.43 69.76 173.41 68.76 171.53 68.09 170.78 
M 115.97 151.26 113.85 151.97 112.63 152.58 110.9 154.38 110.36 155.59 110.4 158.52 
M 109.02 172.79 111.01 171.28 111.77 171.16 112.65 171.43 112.93 171.3 
M 83.8 170.1 82.57 169.95 81.04 170.06 79.78 169.96 79.26 169.69 78.76 168.89 78.8 168.41 79.2 168.03 
M 100.31 194.21 99.33 194.74 98.64 194.61 97.81 193.91 97.02 192.77 96.31 191.26 96 189.19 96.14 188.11 96.58 187.06 
M 105.3 156.11 106.68 153.98 107.36 153.33 108.71 152.67 109.3 152.8 109.64 153.11 
M 112.82 174.05 112.03 172.02 112.44 171.71 
M 102.82 195.6 102.56 196.33 102.76 197.88 102.45 199.01 
M 100.29 188.01 100.03 186.64 100.63 183.11 101.68 180.18 103.74 177.17 
M 97.27 197.78 96.1 196.75 95.36 195.53 93.04 192.85 92.48 191.46 92.4 190.23 
M 92.13 208.47 94.14 210.3 94.74 210.36 95.95 209.8 96.57 209.78 
M 69.74 202.51 70.56 202.99 71.21 204.06 71.46 204.88 
M 88.38 194.51 88.75 193.75 89.72 193.5 90.21 193.17 
M 88.01 159.35 87.45 158.68 87.29 158.22 87.6 155.78 87.28 153.71 
M 82.71 214.91 85.52 213.5 87.31 212.98 88.29 212.34 89.46 211.85 
M 108.89 162.08 108.58 163.2 108.28 163.23 108.13 162.97 
M 88.34 199.96 88.63 200.8 91.48 202.72 92.76 203.95 
M 115.7 222.47 115.31 221.15 115.89 219.11 115.98 217.75 
M 124.61 156.9 125.62 156.94 126.31 156.7 128.62 155.07 129.24 154.36 130 152.51 
M 90.01 193.82 90.54 193.55 90.95 193.07 90.79 191.45 91.36 189.69 
M 108.9 176.19 109.05 174.59 109.5 173.69 110.35 173.08 111.05 172.29 111.84 171.82 
M 62.8 191.5 61.69 191.56 
M 86.88 213.6 89.58 212.55 92.93 212.58 94.08 212.12 94.59 211.71 
M 118.14 187.15 118.34 185.42 118.42 181.64 118.15 178.82 119.15 176.64 
M 61.64 168.9 61.97 168.42 62.15 167.49 61.67 165.88 61.56 164.9 
M 101.79 163.25 102.27 162.69 102.85 160.6 103.66 159.02 106.07 156.26 
M 101.12 149.87 101.17 149.85 
M 97.42 210.14 100.77 211.25 101.52 211.87 103.34 214.03 
M 118.86 164.15 118.68 162.95 118.4 162.57 117.61 162.31 116.88 162.59 
M 97.65 207.9 97.85 208.61 97.87 209.55 98.13 209.93 100.68 210.95 
M 89.8 199.97 90.08 200.83 90.82 201.87 93.47 204.55 
M 92.2 183.2 94.68 179.96 97.37 177.63 
M 121.45 226.21 120.16 223.72 119.01 219.65 116.94 218.07 116.57 217.54 115.13 216.21 
M 133.74 185.77 131.3 185.34 129.44 184.79 128.54 184.14 127.79 183.21 
M 111.61 198.13 110.22 196.78 108.86 195.8 108.25 195.56 107.65 195.54 107.11 195.66 106.44 196.16 105.67 198.1 
M 69.75 191.7 68.68 193.59 67.07 195.22 
M 65.55 196.72 65.01 197.12 
M 115.7 201.53 113.99 198.03 112.77 194.46 111.41 192.34 
M 90.4 191.94 90.36 191.36 90.7 190.13 90.61 189.4 
M 134.32 220.61 129.97 221.89 129.19 222.63 128.38 223.88 127.35 223.99 
M 133.27 221.02 129.81 222.11 128.27 224 127.57 224.05 126.55 223.86 
M 80.92 204.56 80.2 206.69 80.36 207.81 81.1 209.32 82.55 210.15 
M 113.49 222.21 113.64 221.11 115.04 220.14 115.77 219.23 
M 129.7 225.84 129.24 226.17 128.62 226.35 127.09 226.45 126.34 226.48 124.6 226.04 122.8 225.37 122.1 224.92 120.79 223.48 120.38 222.45 
M 67.01 172.63 66.05 169.91 65.62 169.13 63.51 167.94 62.01 165.86 61.71 164.82 
M 82.05 214.31 83.63 213.69 85.68 212.4 86.56 211.75 87.74 210.51 88.95 210.34 
M 70.6 184.18 70.23 184.06 69.95 183.52 69.97 181.2 68.86 179.72 
M 82.1 156.99 82.09 155.33 
M 136.65 223.74 135.08 224.65 134.04 225.5 133.47 226.34 132.99 228 
M 120.71 184.4 120.22 183.28 119.83 181.58 119.04 179.88 118.94 179.04 121.04 173.87 
M 125.65 220.58 124 219.7 121.84 217.93 120.76 217.45 116.81 216.35 114.57 214.9 
M 100.16 189.21 99.41 187.94 99.44 186.53 100.23 183.75 101.36 180.73 102.67 178.75 
M 103.51 209.58 104.38 209.63 105.34 210.13 108.67 214 
M 99.35 201.77 100.26 202.31 101.6 202.48 102.04 202.38 103.27 201.59 
M 103.6 219.06 103.43 222.62 102.17 224.51 
M 123.05 166.46 122.53 165.53 121.04 164.15 118.63 161.37 117.65 161.11 116.57 161.37 
M 104.29 213.49 105.31 215.56 106.65 217.63 106.96 218.43 106.66 220.29 106.01 221.46 105.42 223.84 104.63 225.11 
M 88 203.19 91.59 203.51 92.98 204.54 93.93 205.84 
M 85.6 177.77 81.05 178.38 80.05 178.25 
M 117.1 155.9 114.64 158.67 112.92 160.03 112.11 161.75 112.31 162.62 
M 101.22 208.86 101.88 209.12 102.41 209.12 102.89 208.86 103.71 207.96 104.69 207.56 
M 128 194.96 126.8 193.41 125.13 192 124.09 190.88 122.71 187.42 120.43 183.74 
M 133.91 193.97 133.8 193.09 133.15 192.09 130.95 191.11 129.44 190.2 126.89 187.92 125.66 185.99 
M 122.39 168.92 119.14 164.98 118.83 164.29 118.56 162.8 118.25 162.51 117.68 162.36 
M 137.64 212.42 138.2 209.11 138.63 207.4 139.13 206.32 
M 95.74 189.07 95.94 188.01 96.43 186.92 98.73 183.57 99.4 182.1 101.16 179.59 103.07 177.33 
M 74.2 176.55 71.79 174.21 69.95 171.9 68.27 170.34 67.13 168.88 66.42 168.34 64.66 167.44 62.51 165.28 
M 64.26 185.64 63.96 185.5 63.15 185.51 
M 60.16 186.81 59.65 187.16 
M 83 159.97 82.88 158.91 83.61 154.82 
M 131.23 161.16 131.89 160.88 132.69 160.91 
M 86.72 162.34 85.34 161.17 84.5 159.63 84.55 158.51 85.13 155.86 86.03 154.08 
M 110.35 217.15 110.39 217.72 109.67 218.47 
M 70.99 204.6 69.11 206.49 66.92 209.74 66.28 212.17 65.86 216.44 65.21 219.29 64.22 222.05 62.74 224.63 61.74 225.73 60.61 226.67 58.09 228.12 55.46 229.24 50.02 230.88 54.03 229.49 57.83 227.62 60.11 226.05 61.91 224.03 63.06 221.59 63.78 218.94 64.18 216.21 64.24 211.99 64.4 210.45 64.81 208.9 65.47 207.47 67.04 204.9 68.98 202.59 
M 54.74 204.59 53.74 207.12 53.21 209.68 53.08 212.28 53.49 214.83 54.46 217.26 55.83 219.58 59.2 223.99 62.89 228.25 68.9 234.25 70.79 236.47 72.39 238.92 73.61 241.6 74.3 244.45 74.55 247.35 74.39 250.24 73.85 253.08 73 255.83 71.81 258.44 70.36 260.91 65.34 267.79 62.23 272.54 65.25 267.73 70.01 260.69 71.34 258.21 72.41 255.61 73.14 252.91 73.55 250.16 73.61 247.38 73.27 244.64 72.52 242 71.3 239.55 69.72 237.31 67.84 235.28 61.59 229.47 57.7 225.29 54 220.82 52.4 218.31 51.17 215.52 50.57 212.48 50.6 209.4 51.11 206.39 52.08 203.6 
M 50.89 214.09 50.62 217.46 50.73 220.19 51.05 222.94 52.69 231.21 53.34 233.94 54.97 239.38 55.57 242.24 55.79 245.15 55.61 248.07 55.07 250.93 54.09 253.68 52.68 256.22 50.88 258.5 48.71 260.42 46.25 261.92 43.63 263.08 35.65 266.05 30.59 268.6 35.61 265.95 43.47 262.7 45.99 261.46 48.33 259.92 50.34 258.01 51.98 255.77 53.22 253.3 54.05 250.67 54.46 247.94 54.53 245.18 54.22 242.45 53.55 239.77 51.73 234.4 49.56 226.1 48.53 220.41 48.31 217.48 48.37 214.52 48.75 211.58 49.41 208.69 50.35 205.88 51.53 203.22 
M 54.74 204.19 54.62 204.54 
M 53.81 206.93 53.81 206.95 
M 48.34 216.16 46.46 219.15 45.59 221.62 45.28 224.2 45.6 226.78 46.55 229.21 48.09 231.35 50.09 233.12 51.63 234.05 
M 53.65 234.98 54.93 235.46 57.62 235.93 60.39 235.98 68.16 235.63 
M 70.12 235.68 71.77 235.78 74.61 236.24 77.36 237.07 82.65 239.17 93.04 243.73 85.18 240.47 77.2 237.57 74.48 236.86 70.81 236.49 
M 68.92 236.45 60.43 237.13 57.52 237.19 54.14 236.63 
M 52.26 236.01 49.18 234.41 46.86 232.5 45 230.09 43.77 227.28 43.28 224.24 43.54 221.18 44.44 218.26 45.86 215.61 48.84 211.21 
M 52 203.45 52.03 203.33 
M 69.93 203.47 70.38 204.46 
M 66.87 199.24 66.79 199.59 67.03 199.55 
M 64.36 194.28 63.97 194.68 63.59 195.58 64.21 195.2 64.81 195.16 
M 61.79 189.73 61.02 190.35 60.39 191.57 61.26 190.87 62.32 190.67 
M 59.23 185.19 58.07 186.02 57.2 187.55 58.31 186.54 59.79 186.17 
M 56.89 180.53 55.12 181.69 54 183.54 55.36 182.21 57.46 181.6 
M 54.44 175.95 52.17 177.36 50.8 179.53 52.41 177.88 55.01 177.06 
M 52.26 171.21 49.22 173.03 47.6 175.52 49.46 173.55 52.63 172.49 
M 69.71 203.49 70.87 203.93 
M 65.26 201.07 65.82 200.91 65.86 201.34 
M 60.62 198.84 61.65 198.22 61.39 198.79 61.41 199.23 
M 56.01 196.7 56.42 196.15 57.48 195.53 56.96 196.34 56.9 197.08 
M 51.41 194.6 51.99 193.69 53.3 192.84 52.52 193.89 52.37 195.01 
M 46.74 192.66 47.56 191.24 49.13 190.15 48.09 191.44 47.78 193.13 
M 42.19 190.52 43.13 188.79 44.96 187.46 43.66 188.99 43.23 191.03 
M 37.56 188.53 38.7 186.34 40.79 184.77 39.23 186.54 38.66 188.94 
M 32.73 186.97 34.26 183.89 36.62 182.08 34.8 184.09 34.01 187.2 
M 37.11 193.39 42.37 197.2 47.56 200.57 53 203.67 58.59 206.58 64.71 209.27 
M 66.82 210.01 70.4 211.26 82.67 214.87 
M 53.6 200.31 53.07 201.13 53.1 201.78 53.36 202.22 
M 47.95 197.48 46.79 200.07 
M 129.13 145.58 138.12 154.56 
M 135.02 143.9 141.81 150.69 
M 141.13 142.45 150.28 151.59 
M 147.27 141.01 158.52 152.26 
M 153.54 139.72 162.27 148.45 
M 160 138.61 166.59 145.2 
M 166.83 137.88 172.99 144.04 
M 173.84 137.32 184.75 148.23 
M 180.89 136.8 190.97 146.89 
M 187.68 136.03 198.89 147.24 
M 194.53 135.31 203.72 144.5 
M 201.45 134.67 211.81 145.03 
M 208.5 134.15 218.89 144.54 
M 215.54 133.62 225.85 143.94 
M 222.44 132.96 233.59 144.11 
M 229.35 132.3 236.79 139.75 
M 236.27 131.66 242.88 138.27 
M 243.88 131.7 253.58 141.4 
M 251.97 132.23 262.36 142.61 
M 260.42 133.11 268.9 141.59 
M 268.3 133.42 276 141.12 
M 275.66 133.22 284.75 142.31 
M 283.03 133.02 292.91 142.9 
M 291.14 133.57 297.73 140.16 
M 299.82 134.68 310.25 145.11 
M 308.45 135.75 317.46 144.76 
M 317.04 136.76 323.35 143.07 
M 326.01 138.18 331.95 144.11 
M 335.18 139.78 345.09 149.69 
M 344.54 141.57 355.13 152.16 
M 354.65 144.12 363.43 152.9 
M 365.74 147.64 371.55 153.45 
M 377.41 151.74 384.28 158.62 
M 389.73 156.5 395.6 162.36 
M 403.22 162.42 410.17 169.37 
M 220.43 291.39 218.54 297.7 
M 220.43 291.39 220.94 297.7 
M 225.23 291.39 220.94 297.7 
M 225.23 291.39 223.34 297.7 
M 226.16 295.3 229.76 295.3 229.94 294.7 229.82 294.1 229.1 293.5 228.2 293.5 227.51 293.8 226.73 294.39 226.16 295.3 225.98 295.89 226.01 296.8 226.43 297.39 226.94 297.7 227.84 297.7 228.53 297.39 229.31 296.8 
M 233.03 291.39 231.14 297.7 
M 236 293.5 235.31 293.8 234.53 294.39 233.96 295.3 233.78 295.89 233.81 296.8 234.23 297.39 234.74 297.7 235.64 297.7 236.33 297.39 237.11 296.8 237.68 295.89 237.86 295.3 237.83 294.39 237.41 293.8 236.9 293.5 236 293.5 
M 240.5 293.5 239.24 297.7 
M 239.96 295.3 240.53 294.39 241.31 293.8 242 293.5 242.9 293.5 
M 244.4 293.5 243.5 296.5 243.53 297.39 244.04 297.7 244.94 297.7 245.63 297.39 246.8 296.5 
M 247.7 293.5 246.44 297.7 
M 252.83 294.39 252.71 293.8 251.9 293.5 251 293.5 250.01 293.8 249.53 294.39 249.65 295 250.16 295.3 251.57 295.6 252.08 295.89 252.11 296.8 251.63 297.39 250.64 297.7 249.74 297.7 248.93 297.39 248.81 296.8 
M 258.83 291.39 256.94 297.7 
M 257.84 294.7 259.01 293.8 259.7 293.5 260.6 293.5 261.11 293.8 261.14 294.7 260.24 297.7 
M 267.2 293.5 265.94 297.7 
M 266.93 294.39 266.51 293.8 266 293.5 265.1 293.5 264.4 293.8 263.63 294.39 263.06 295.3 262.88 295.89 262.9 296.8 263.33 297.39 263.84 297.7 264.74 297.7 265.43 297.39 266.2 296.8 
M 269.6 293.5 268.33 297.7 
M 269.06 295.3 269.63 294.39 270.41 293.8 271.1 293.5 272 293.5 
M 273.5 293.5 272.6 296.5 272.63 297.39 273.14 297.7 274.04 297.7 274.73 297.39 275.89 296.5 
M 276.8 293.5 275.54 297.7 
M 279.2 293.5 277.94 297.7 
M 278.83 294.7 280.01 293.8 280.7 293.5 281.6 293.5 282.11 293.8 282.14 294.7 281.24 297.7 
M 288.2 293.5 286.94 297.7 
M 287.93 294.39 287.51 293.8 287 293.5 286.1 293.5 285.4 293.8 284.63 294.39 284.06 295.3 283.88 295.89 283.9 296.8 284.33 297.39 284.83 297.7 285.74 297.7 286.43 297.39 287.2 296.8 
M 291.23 291.39 289.33 297.7 
M 293.33 291.39 293.54 291.7 293.93 291.39 293.72 291.1 293.33 291.39 
M 293 293.5 291.74 297.7 
M 298.13 294.39 298.01 293.8 297.2 293.5 296.3 293.5 295.31 293.8 294.83 294.39 294.95 295 295.45 295.3 296.87 295.6 297.38 295.89 297.4 296.8 296.93 297.39 295.94 297.7 295.04 297.7 294.23 297.39 294.11 296.8 
M 299.72 297.1 299.33 297.39 299.54 297.7 299.93 297.39 299.72 297.1 
"/></svg>
